<svg width="1130" height="657" viewBox="0 0 1130 657" fill="none" xmlns="http://www.w3.org/2000/svg">
<path d="M0 12C0 6.47716 4.47715 2 10 2H1120C1125.52 2 1130 6.47715 1130 12V657H0V12Z" fill="#F4F4F4"/>
<rect x="101" y="110" width="929" height="514" rx="10" fill="white"/>
<mask id="mask0_918_127" style="mask-type:alpha" maskUnits="userSpaceOnUse" x="101" y="110" width="929" height="514">
<rect x="101" y="110" width="929" height="514" rx="10" fill="white"/>
</mask>
<g mask="url(#mask0_918_127)">
<path d="M1230.53 111.5C1345.44 189.682 1345.47 423.857 1230.53 592.801C1115.59 761.745 848.915 824.683 733.999 746.5C619.083 668.318 773.734 391.656 903.999 337.5C913.368 161.5 1115.61 33.3176 1230.53 111.5Z" fill="url(#paint0_linear_918_127)"/>
</g>
<path d="M189.804 164.866V166H184.484V156.48H189.664V157.628H185.702V160.61H189.244V161.758H185.702V164.866H189.804ZM190.62 157.628V156.48H197.382V157.628H194.61V166H193.392V157.628H190.62ZM204.421 166V161.758H200.263V166H199.045V156.48H200.263V160.61H204.421V156.48H205.639V166H204.421ZM209.819 166H208.601V156.48H209.819V166ZM217.992 166L215.276 161.506C215.08 161.711 214.875 161.921 214.66 162.136C214.455 162.351 214.24 162.565 214.016 162.78V166H212.798V156.48H214.016V161.422C214.894 160.535 215.626 159.695 216.214 158.902C216.802 158.109 217.302 157.301 217.712 156.48H219.028C218.608 157.301 218.17 158.048 217.712 158.72C217.264 159.383 216.751 160.045 216.172 160.708L219.476 166H217.992ZM222.969 157.796L225.237 156.48H226.343V166H225.153V157.768L223.501 158.72L222.969 157.796Z" fill="black"/>
<path d="M193.12 297L192.28 294.34H187.62L186.78 297H184.4L188.94 283.4H191.06L195.62 297H193.12ZM188.92 290.18L188.3 292.14H191.58L190.96 290.18L189.96 286.74L188.92 290.18ZM203.116 288.96C202.49 288.96 201.89 289.06 201.316 289.26C200.756 289.447 200.216 289.753 199.696 290.18V297H197.396V286.86H199.576V288.42C200.256 287.78 200.863 287.327 201.396 287.06C201.93 286.793 202.503 286.66 203.116 286.66V288.96ZM211.231 296.66C210.884 296.82 210.484 296.947 210.031 297.04C209.577 297.147 209.117 297.2 208.651 297.2C207.877 297.2 207.257 297.04 206.791 296.72C206.324 296.4 205.984 295.953 205.771 295.38C205.571 294.807 205.471 294.153 205.471 293.42V288.86H203.831V286.86H205.471V284.22H207.771V286.86H210.931V288.86H207.771V293.42C207.771 294.033 207.884 294.46 208.111 294.7C208.351 294.927 208.691 295.04 209.131 295.04C209.344 295.04 209.571 295.02 209.811 294.98C210.064 294.927 210.344 294.84 210.651 294.72L211.231 296.66ZM215.44 284.94H213.02V282.56H215.44V284.94ZM215.38 297H213.08V286.86H215.38V297ZM224.609 297L222.109 292.78C221.709 293.18 221.289 293.58 220.849 293.98V297H218.549V282.2H220.849V291.44C221.609 290.667 222.262 289.927 222.809 289.22C223.369 288.5 223.882 287.713 224.349 286.86H226.989C226.549 287.66 226.069 288.42 225.549 289.14C225.029 289.86 224.455 290.587 223.829 291.32L227.389 297H224.609ZM236.6 296.42C235.907 296.7 235.254 296.9 234.64 297.02C234.027 297.14 233.447 297.2 232.9 297.2C231.394 297.2 230.254 296.773 229.48 295.92C228.707 295.067 228.32 293.933 228.32 292.52V291.32C228.32 290.373 228.494 289.553 228.84 288.86C229.187 288.167 229.68 287.627 230.32 287.24C230.96 286.853 231.714 286.66 232.58 286.66C233.287 286.66 233.947 286.807 234.56 287.1C235.187 287.38 235.694 287.827 236.08 288.44C236.48 289.04 236.68 289.813 236.68 290.76C236.68 291.04 236.66 291.34 236.62 291.66C236.58 291.967 236.514 292.293 236.42 292.64H230.54C230.567 293.467 230.774 294.087 231.16 294.5C231.547 294.913 232.167 295.12 233.02 295.12C233.474 295.12 233.94 295.067 234.42 294.96C234.914 294.853 235.42 294.693 235.94 294.48L236.6 296.42ZM232.58 288.6C231.967 288.6 231.487 288.8 231.14 289.2C230.807 289.587 230.614 290.147 230.56 290.88H234.4C234.414 290.813 234.42 290.753 234.42 290.7C234.42 290.633 234.42 290.573 234.42 290.52C234.42 289.88 234.24 289.4 233.88 289.08C233.52 288.76 233.087 288.6 232.58 288.6ZM239.27 294.14V282.2H241.57V294.14C241.57 294.34 241.617 294.533 241.71 294.72C241.817 294.893 242.017 294.98 242.31 294.98H242.63V297.1H242.07C241.31 297.1 240.73 296.953 240.33 296.66C239.93 296.367 239.65 295.993 239.49 295.54C239.343 295.087 239.27 294.62 239.27 294.14ZM256.201 293.3C256.201 294.007 256.055 294.66 255.761 295.26C255.468 295.847 254.995 296.32 254.341 296.68C253.701 297.027 252.841 297.2 251.761 297.2C251.148 297.2 250.508 297.127 249.841 296.98C249.188 296.833 248.468 296.587 247.681 296.24L248.421 294.18C249.128 294.433 249.721 294.633 250.201 294.78C250.695 294.913 251.188 294.98 251.681 294.98C252.388 294.98 252.921 294.84 253.281 294.56C253.655 294.267 253.841 293.813 253.841 293.2V292.92C253.841 292.413 253.681 292.007 253.361 291.7C253.055 291.38 252.575 291.22 251.921 291.22H249.801V289.06H251.921C252.548 289.06 253.008 288.913 253.301 288.62C253.595 288.313 253.741 287.92 253.741 287.44V287.16C253.741 286.547 253.568 286.107 253.221 285.84C252.888 285.56 252.395 285.42 251.741 285.42C251.275 285.42 250.801 285.487 250.321 285.62C249.855 285.74 249.288 285.927 248.621 286.18L247.881 284.12C248.628 283.773 249.321 283.533 249.961 283.4C250.601 283.267 251.221 283.2 251.821 283.2C252.848 283.2 253.675 283.373 254.301 283.72C254.928 284.067 255.381 284.533 255.661 285.12C255.955 285.707 256.101 286.353 256.101 287.06V287.34C256.101 287.967 255.941 288.52 255.621 289C255.315 289.467 254.908 289.84 254.401 290.12C254.948 290.413 255.381 290.807 255.701 291.3C256.035 291.78 256.201 292.353 256.201 293.02V293.3ZM260.621 289.24H258.201V286.86H260.621V289.24ZM260.621 297H258.201V294.62H260.621V297ZM186.9 325.14C186.9 326.113 187.073 327.12 187.42 328.16C187.78 329.2 188.307 330.173 189 331.08L187.74 332.06C186.927 331.033 186.307 329.9 185.88 328.66C185.453 327.42 185.24 326.233 185.24 325.1V324.56C185.24 322.707 185.707 320.867 186.64 319.04C187.587 317.2 189.013 315.52 190.92 314L191.82 315.26C190.26 316.58 189.047 318.007 188.18 319.54C187.327 321.073 186.9 322.78 186.9 324.66V325.14ZM194.248 323.68L193.308 329H191.568L193.968 315.4H198.008C198.861 315.4 199.575 315.567 200.148 315.9C200.721 316.233 201.135 316.7 201.388 317.3C201.641 317.887 201.701 318.567 201.568 319.34L201.428 320.2C201.295 320.973 201.001 321.64 200.548 322.2C200.095 322.76 199.501 323.16 198.768 323.4C199.555 325.2 200.195 327.067 200.688 329H198.808C198.595 328.093 198.341 327.2 198.048 326.32C197.755 325.427 197.428 324.547 197.068 323.68H194.248ZM197.948 317H195.428L194.528 322.08H197.048C197.741 322.08 198.315 321.913 198.768 321.58C199.235 321.247 199.521 320.773 199.628 320.16L199.788 319.3C199.908 318.567 199.801 318 199.468 317.6C199.135 317.2 198.628 317 197.948 317ZM210.52 328.6C209.947 328.813 209.393 328.967 208.86 329.06C208.327 329.153 207.82 329.2 207.34 329.2C206.273 329.2 205.433 328.987 204.82 328.56C204.22 328.12 203.82 327.527 203.62 326.78C203.42 326.033 203.393 325.193 203.54 324.26L203.72 323.24C203.933 321.933 204.433 320.887 205.22 320.1C206.02 319.3 207.027 318.9 208.24 318.9C208.84 318.9 209.4 319.007 209.92 319.22C210.453 319.433 210.88 319.767 211.2 320.22C211.52 320.673 211.68 321.253 211.68 321.96C211.68 322.347 211.62 322.76 211.5 323.2C211.393 323.627 211.187 324.093 210.88 324.6H205.1C204.98 325.52 205.087 326.273 205.42 326.86C205.753 327.433 206.44 327.72 207.48 327.72C207.853 327.72 208.28 327.68 208.76 327.6C209.24 327.507 209.74 327.373 210.26 327.2L210.52 328.6ZM208.18 320.36C207.42 320.36 206.793 320.613 206.3 321.12C205.807 321.613 205.487 322.307 205.34 323.2H209.82C209.927 322.973 209.993 322.76 210.02 322.56C210.06 322.36 210.08 322.173 210.08 322C210.08 321.44 209.9 321.027 209.54 320.76C209.18 320.493 208.727 320.36 208.18 320.36ZM218.258 320.42C217.524 320.42 216.911 320.667 216.418 321.16C215.924 321.64 215.604 322.333 215.458 323.24L215.278 324.32C215.118 325.307 215.178 326.12 215.458 326.76C215.751 327.387 216.378 327.7 217.338 327.7C218.044 327.7 218.851 327.533 219.758 327.2L220.038 328.62C218.984 329.007 218.038 329.2 217.198 329.2C216.211 329.2 215.431 328.987 214.858 328.56C214.284 328.12 213.904 327.527 213.718 326.78C213.531 326.033 213.511 325.193 213.658 324.26L213.818 323.24C214.044 321.893 214.538 320.833 215.298 320.06C216.071 319.287 217.044 318.9 218.218 318.9C218.698 318.9 219.184 318.967 219.678 319.1C220.171 319.233 220.664 319.42 221.158 319.66L220.578 321.06C220.164 320.86 219.758 320.707 219.358 320.6C218.971 320.48 218.604 320.42 218.258 320.42ZM228.681 320.44C228.428 320.44 228.128 320.5 227.781 320.62C227.448 320.727 227.061 320.94 226.621 321.26C226.181 321.58 225.674 322.047 225.101 322.66L223.981 329H222.341L224.941 314.2H226.581L225.421 320.82C226.181 320.033 226.861 319.52 227.461 319.28C228.074 319.027 228.628 318.9 229.121 318.9C230.041 318.9 230.714 319.227 231.141 319.88C231.568 320.533 231.688 321.393 231.501 322.46L230.341 329H228.701L229.821 322.6C229.968 321.88 229.934 321.34 229.721 320.98C229.521 320.62 229.174 320.44 228.681 320.44ZM239.307 328.66C238.453 329.02 237.647 329.2 236.887 329.2C236.207 329.2 235.68 329.053 235.307 328.76C234.933 328.453 234.693 328.06 234.587 327.58C234.48 327.1 234.473 326.587 234.567 326.04L235.527 320.54H233.807L234.047 319.1H235.787L236.267 316.34H237.907L237.427 319.1H240.667L240.407 320.54H237.167L236.187 326.04C236.08 326.653 236.127 327.087 236.327 327.34C236.527 327.58 236.82 327.7 237.207 327.7C237.42 327.7 237.673 327.673 237.967 327.62C238.273 327.553 238.6 327.44 238.947 327.28L239.307 328.66ZM253.999 329.1C253.346 329.1 252.859 328.94 252.539 328.62C252.232 328.287 252.066 327.873 252.039 327.38C251.412 328.06 250.812 328.533 250.239 328.8C249.666 329.067 249.126 329.2 248.619 329.2C247.966 329.2 247.426 328.993 246.999 328.58C246.586 328.167 246.299 327.6 246.139 326.88C245.979 326.16 245.966 325.347 246.099 324.44L246.239 323.46C246.452 322.033 246.952 320.92 247.739 320.12C248.526 319.307 249.559 318.9 250.839 318.9C251.506 318.9 252.166 319.013 252.819 319.24C253.486 319.453 254.126 319.76 254.739 320.16L253.659 326.3C253.592 326.7 253.606 327.02 253.699 327.26C253.792 327.487 254.006 327.6 254.339 327.6H254.619L254.339 329.1H253.999ZM247.799 324.44C247.652 325.493 247.692 326.307 247.919 326.88C248.146 327.44 248.526 327.72 249.059 327.72C249.459 327.72 249.926 327.547 250.459 327.2C250.992 326.853 251.566 326.247 252.179 325.38L252.959 320.94C252.239 320.58 251.566 320.4 250.939 320.4C250.072 320.4 249.386 320.687 248.879 321.26C248.386 321.82 248.072 322.553 247.939 323.46L247.799 324.44ZM262.835 329L263.155 327.2C262.382 328.013 261.695 328.553 261.095 328.82C260.509 329.073 259.975 329.2 259.495 329.2C258.602 329.2 257.949 328.873 257.535 328.22C257.135 327.567 257.029 326.713 257.215 325.66L258.375 319.1H260.015L258.895 325.5C258.762 326.233 258.789 326.78 258.975 327.14C259.175 327.487 259.489 327.66 259.915 327.66C260.169 327.66 260.455 327.607 260.775 327.5C261.095 327.38 261.469 327.16 261.895 326.84C262.322 326.52 262.815 326.06 263.375 325.46L264.495 319.1H266.135L264.395 329H262.835ZM274.607 320.54H271.367L269.867 329H268.227L269.727 320.54H268.007L268.247 319.1H269.987L270.267 317.46C270.387 316.793 270.587 316.2 270.867 315.68C271.147 315.16 271.534 314.753 272.027 314.46C272.534 314.153 273.174 314 273.947 314C274.374 314 274.787 314.053 275.187 314.16C275.601 314.253 275.987 314.393 276.347 314.58L275.707 315.9C275.067 315.633 274.507 315.5 274.027 315.5C273.454 315.5 272.987 315.653 272.627 315.96C272.267 316.267 272.027 316.76 271.907 317.44L271.607 319.1H274.867L274.607 320.54ZM287.296 327.38L287.016 329H279.556L281.956 315.4H283.696L281.576 327.38H287.296ZM296.321 328.6C295.747 328.813 295.194 328.967 294.661 329.06C294.127 329.153 293.621 329.2 293.141 329.2C292.074 329.2 291.234 328.987 290.621 328.56C290.021 328.12 289.621 327.527 289.421 326.78C289.221 326.033 289.194 325.193 289.341 324.26L289.521 323.24C289.734 321.933 290.234 320.887 291.021 320.1C291.821 319.3 292.827 318.9 294.041 318.9C294.641 318.9 295.201 319.007 295.721 319.22C296.254 319.433 296.681 319.767 297.001 320.22C297.321 320.673 297.481 321.253 297.481 321.96C297.481 322.347 297.421 322.76 297.301 323.2C297.194 323.627 296.987 324.093 296.681 324.6H290.901C290.781 325.52 290.887 326.273 291.221 326.86C291.554 327.433 292.241 327.72 293.281 327.72C293.654 327.72 294.081 327.68 294.561 327.6C295.041 327.507 295.541 327.373 296.061 327.2L296.321 328.6ZM293.981 320.36C293.221 320.36 292.594 320.613 292.101 321.12C291.607 321.613 291.287 322.307 291.141 323.2H295.621C295.727 322.973 295.794 322.76 295.821 322.56C295.861 322.36 295.881 322.173 295.881 322C295.881 321.44 295.701 321.027 295.341 320.76C294.981 320.493 294.527 320.36 293.981 320.36ZM307.898 324.64C307.685 326.093 307.185 327.22 306.398 328.02C305.625 328.807 304.578 329.2 303.258 329.2C302.538 329.2 301.845 329.087 301.178 328.86C300.525 328.62 299.878 328.313 299.238 327.94L301.678 314.2H303.318L302.158 320.74C302.772 320.047 303.352 319.567 303.898 319.3C304.458 319.033 304.985 318.9 305.478 318.9C306.145 318.9 306.692 319.107 307.118 319.52C307.545 319.933 307.838 320.5 307.998 321.22C308.172 321.94 308.185 322.76 308.038 323.68L307.898 324.64ZM305.018 320.4C304.605 320.4 304.125 320.587 303.578 320.96C303.032 321.32 302.432 321.96 301.778 322.88L301.038 327.16C301.772 327.533 302.478 327.72 303.158 327.72C304.065 327.72 304.765 327.447 305.258 326.9C305.752 326.34 306.065 325.587 306.198 324.64L306.338 323.68C306.498 322.627 306.458 321.82 306.218 321.26C305.992 320.687 305.592 320.4 305.018 320.4ZM317.473 328.6C316.9 328.813 316.346 328.967 315.813 329.06C315.28 329.153 314.773 329.2 314.293 329.2C313.226 329.2 312.386 328.987 311.773 328.56C311.173 328.12 310.773 327.527 310.573 326.78C310.373 326.033 310.346 325.193 310.493 324.26L310.673 323.24C310.886 321.933 311.386 320.887 312.173 320.1C312.973 319.3 313.98 318.9 315.193 318.9C315.793 318.9 316.353 319.007 316.873 319.22C317.406 319.433 317.833 319.767 318.153 320.22C318.473 320.673 318.633 321.253 318.633 321.96C318.633 322.347 318.573 322.76 318.453 323.2C318.346 323.627 318.14 324.093 317.833 324.6H312.053C311.933 325.52 312.04 326.273 312.373 326.86C312.706 327.433 313.393 327.72 314.433 327.72C314.806 327.72 315.233 327.68 315.713 327.6C316.193 327.507 316.693 327.373 317.213 327.2L317.473 328.6ZM315.133 320.36C314.373 320.36 313.746 320.613 313.253 321.12C312.76 321.613 312.44 322.307 312.293 323.2H316.773C316.88 322.973 316.946 322.76 316.973 322.56C317.013 322.36 317.033 322.173 317.033 322C317.033 321.44 316.853 321.027 316.493 320.76C316.133 320.493 315.68 320.36 315.133 320.36ZM326.611 320.44C326.357 320.44 326.064 320.5 325.731 320.62C325.397 320.727 325.011 320.94 324.571 321.26C324.131 321.567 323.624 322.027 323.051 322.64L321.911 329H320.271L322.031 319.1H323.571L323.271 320.92C324.057 320.093 324.757 319.553 325.371 319.3C325.997 319.033 326.557 318.9 327.051 318.9C327.957 318.9 328.624 319.233 329.051 319.9C329.491 320.553 329.617 321.407 329.431 322.46L328.271 329H326.631L327.751 322.6C328.017 321.16 327.637 320.44 326.611 320.44ZM342.152 329L342.472 327.2C341.699 328.013 341.012 328.553 340.412 328.82C339.825 329.073 339.292 329.2 338.812 329.2C337.919 329.2 337.265 328.873 336.852 328.22C336.452 327.567 336.345 326.713 336.532 325.66L337.692 319.1H339.332L338.212 325.5C338.079 326.233 338.105 326.78 338.292 327.14C338.492 327.487 338.805 327.66 339.232 327.66C339.485 327.66 339.772 327.607 340.092 327.5C340.412 327.38 340.785 327.16 341.212 326.84C341.639 326.52 342.132 326.06 342.692 325.46L343.812 319.1H345.452L343.712 329H342.152ZM353.564 320.44C353.31 320.44 353.017 320.5 352.684 320.62C352.35 320.727 351.964 320.94 351.524 321.26C351.084 321.567 350.577 322.027 350.004 322.64L348.864 329H347.224L348.984 319.1H350.524L350.224 320.92C351.01 320.093 351.71 319.553 352.324 319.3C352.95 319.033 353.51 318.9 354.004 318.9C354.91 318.9 355.577 319.233 356.004 319.9C356.444 320.553 356.57 321.407 356.384 322.46L355.224 329H353.584L354.704 322.6C354.97 321.16 354.59 320.44 353.564 320.44ZM364.69 329L364.99 327.24C364.363 327.973 363.763 328.487 363.19 328.78C362.63 329.06 362.09 329.2 361.57 329.2C360.903 329.2 360.356 328.993 359.93 328.58C359.503 328.167 359.21 327.6 359.05 326.88C358.89 326.16 358.876 325.347 359.01 324.44L359.15 323.46C359.363 322.007 359.856 320.887 360.63 320.1C361.416 319.3 362.47 318.9 363.79 318.9C364.23 318.9 364.656 318.953 365.07 319.06C365.483 319.167 365.89 319.313 366.29 319.5L367.23 314.2H368.87L366.25 329H364.69ZM360.71 324.44C360.563 325.493 360.603 326.307 360.83 326.88C361.056 327.44 361.456 327.72 362.03 327.72C362.456 327.72 362.943 327.533 363.49 327.16C364.036 326.787 364.636 326.133 365.29 325.2L366.03 320.98C365.296 320.593 364.583 320.4 363.89 320.4C362.996 320.4 362.303 320.673 361.81 321.22C361.316 321.767 360.996 322.513 360.85 323.46L360.71 324.44ZM382.178 323.28H377.258L376.238 329H374.498L376.898 315.4H384.178L383.878 317.04H378.358L377.538 321.64H382.478L382.178 323.28ZM390.662 320.56C390.355 320.56 389.989 320.613 389.562 320.72C389.135 320.813 388.675 321.013 388.182 321.32C387.702 321.627 387.209 322.093 386.702 322.72L385.602 329H383.962L385.722 319.1H387.262L386.942 320.96C387.702 320.12 388.422 319.567 389.102 319.3C389.795 319.033 390.409 318.9 390.942 318.9L390.662 320.56ZM398.606 328.6C398.032 328.813 397.479 328.967 396.946 329.06C396.412 329.153 395.906 329.2 395.426 329.2C394.359 329.2 393.519 328.987 392.906 328.56C392.306 328.12 391.906 327.527 391.706 326.78C391.506 326.033 391.479 325.193 391.626 324.26L391.806 323.24C392.019 321.933 392.519 320.887 393.306 320.1C394.106 319.3 395.112 318.9 396.326 318.9C396.926 318.9 397.486 319.007 398.006 319.22C398.539 319.433 398.966 319.767 399.286 320.22C399.606 320.673 399.766 321.253 399.766 321.96C399.766 322.347 399.706 322.76 399.586 323.2C399.479 323.627 399.272 324.093 398.966 324.6H393.186C393.066 325.52 393.172 326.273 393.506 326.86C393.839 327.433 394.526 327.72 395.566 327.72C395.939 327.72 396.366 327.68 396.846 327.6C397.326 327.507 397.826 327.373 398.346 327.2L398.606 328.6ZM396.266 320.36C395.506 320.36 394.879 320.613 394.386 321.12C393.892 321.613 393.572 322.307 393.426 323.2H397.906C398.012 322.973 398.079 322.76 398.106 322.56C398.146 322.36 398.166 322.173 398.166 322C398.166 321.44 397.986 321.027 397.626 320.76C397.266 320.493 396.812 320.36 396.266 320.36ZM405.343 316.68H403.503L403.803 314.84H405.643L405.343 316.68ZM403.043 329H401.403L403.163 319.1H404.803L403.043 329ZM412.939 320.44C412.685 320.44 412.385 320.5 412.039 320.62C411.705 320.727 411.319 320.94 410.879 321.26C410.439 321.58 409.932 322.047 409.359 322.66L408.239 329H406.599L409.199 314.2H410.839L409.679 320.82C410.439 320.033 411.119 319.52 411.719 319.28C412.332 319.027 412.885 318.9 413.379 318.9C414.299 318.9 414.972 319.227 415.399 319.88C415.825 320.533 415.945 321.393 415.759 322.46L414.599 329H412.959L414.079 322.6C414.225 321.88 414.192 321.34 413.979 320.98C413.779 320.62 413.432 320.44 412.939 320.44ZM425.325 328.6C424.751 328.813 424.198 328.967 423.665 329.06C423.131 329.153 422.625 329.2 422.145 329.2C421.078 329.2 420.238 328.987 419.625 328.56C419.025 328.12 418.625 327.527 418.425 326.78C418.225 326.033 418.198 325.193 418.345 324.26L418.525 323.24C418.738 321.933 419.238 320.887 420.025 320.1C420.825 319.3 421.831 318.9 423.045 318.9C423.645 318.9 424.205 319.007 424.725 319.22C425.258 319.433 425.685 319.767 426.005 320.22C426.325 320.673 426.485 321.253 426.485 321.96C426.485 322.347 426.425 322.76 426.305 323.2C426.198 323.627 425.991 324.093 425.685 324.6H419.905C419.785 325.52 419.891 326.273 420.225 326.86C420.558 327.433 421.245 327.72 422.285 327.72C422.658 327.72 423.085 327.68 423.565 327.6C424.045 327.507 424.545 327.373 425.065 327.2L425.325 328.6ZM422.985 320.36C422.225 320.36 421.598 320.613 421.105 321.12C420.611 321.613 420.291 322.307 420.145 323.2H424.625C424.731 322.973 424.798 322.76 424.825 322.56C424.865 322.36 424.885 322.173 424.885 322C424.885 321.44 424.705 321.027 424.345 320.76C423.985 320.493 423.531 320.36 422.985 320.36ZM432.062 316.68H430.222L430.522 314.84H432.362L432.062 316.68ZM429.762 329H428.122L429.882 319.1H431.522L429.762 329ZM438.858 328.66C438.004 329.02 437.198 329.2 436.438 329.2C435.758 329.2 435.231 329.053 434.858 328.76C434.484 328.453 434.244 328.06 434.138 327.58C434.031 327.1 434.024 326.587 434.118 326.04L435.077 320.54H433.358L433.598 319.1H435.338L435.818 316.34H437.458L436.978 319.1H440.218L439.958 320.54H436.718L435.738 326.04C435.631 326.653 435.678 327.087 435.878 327.34C436.078 327.58 436.371 327.7 436.758 327.7C436.971 327.7 437.224 327.673 437.518 327.62C437.824 327.553 438.151 327.44 438.498 327.28L438.858 328.66ZM443.834 321.42V320.94C443.834 319.953 443.654 318.94 443.294 317.9C442.934 316.847 442.414 315.873 441.734 314.98L442.974 314C443.801 315.013 444.428 316.147 444.854 317.4C445.281 318.64 445.494 319.833 445.494 320.98V321.52C445.494 323.36 445.028 325.2 444.094 327.04C443.161 328.867 441.741 330.54 439.834 332.06L438.914 330.8C440.461 329.493 441.668 328.073 442.534 326.54C443.401 325.007 443.834 323.3 443.834 321.42ZM184.54 361.14V359.48C185.62 359.48 186.407 359.26 186.9 358.82C187.407 358.38 187.66 357.613 187.66 356.52V347.4H189.4V356.52C189.4 357.427 189.253 358.233 188.96 358.94C188.68 359.633 188.187 360.173 187.48 360.56C186.787 360.947 185.807 361.14 184.54 361.14ZM200.206 360.42C199.606 360.713 199.006 360.913 198.406 361.02C197.806 361.14 197.252 361.2 196.746 361.2C195.319 361.2 194.252 360.793 193.546 359.98C192.852 359.167 192.506 358.053 192.506 356.64V355.44C192.506 354.067 192.852 352.967 193.546 352.14C194.252 351.313 195.246 350.9 196.526 350.9C197.206 350.9 197.826 351.04 198.386 351.32C198.959 351.587 199.412 352 199.746 352.56C200.092 353.107 200.266 353.813 200.266 354.68C200.266 355.24 200.186 355.88 200.026 356.6H194.126V356.64C194.126 357.653 194.332 358.42 194.746 358.94C195.172 359.46 195.852 359.72 196.786 359.72C197.212 359.72 197.679 359.667 198.186 359.56C198.706 359.453 199.212 359.287 199.706 359.06L200.206 360.42ZM196.526 352.34C195.752 352.34 195.166 352.593 194.766 353.1C194.379 353.593 194.166 354.293 194.126 355.2H198.606C198.646 354.96 198.666 354.733 198.666 354.52C198.666 353.773 198.452 353.227 198.026 352.88C197.612 352.52 197.112 352.34 196.526 352.34ZM209.124 361V359.62C208.51 360.207 207.95 360.62 207.444 360.86C206.95 361.087 206.437 361.2 205.904 361.2C204.85 361.2 204.037 360.8 203.464 360C202.904 359.2 202.624 358.08 202.624 356.64V355.48C202.624 354.08 202.97 352.967 203.664 352.14C204.37 351.313 205.39 350.9 206.724 350.9C207.11 350.9 207.497 350.94 207.884 351.02C208.27 351.1 208.657 351.213 209.044 351.36V346.2H210.684V361H209.124ZM204.324 356.64C204.324 357.68 204.484 358.447 204.804 358.94C205.137 359.42 205.63 359.66 206.284 359.66C206.67 359.66 207.07 359.567 207.484 359.38C207.897 359.18 208.417 358.773 209.044 358.16V352.88C208.657 352.707 208.284 352.587 207.924 352.52C207.564 352.44 207.21 352.4 206.864 352.4C205.957 352.4 205.304 352.673 204.904 353.22C204.517 353.767 204.324 354.52 204.324 355.48V356.64ZM221.397 360.42C220.797 360.713 220.197 360.913 219.597 361.02C218.997 361.14 218.444 361.2 217.937 361.2C216.51 361.2 215.444 360.793 214.737 359.98C214.044 359.167 213.697 358.053 213.697 356.64V355.44C213.697 354.067 214.044 352.967 214.737 352.14C215.444 351.313 216.437 350.9 217.717 350.9C218.397 350.9 219.017 351.04 219.577 351.32C220.15 351.587 220.604 352 220.937 352.56C221.284 353.107 221.457 353.813 221.457 354.68C221.457 355.24 221.377 355.88 221.217 356.6H215.317V356.64C215.317 357.653 215.524 358.42 215.937 358.94C216.364 359.46 217.044 359.72 217.977 359.72C218.404 359.72 218.87 359.667 219.377 359.56C219.897 359.453 220.404 359.287 220.897 359.06L221.397 360.42ZM217.717 352.34C216.944 352.34 216.357 352.593 215.957 353.1C215.57 353.593 215.357 354.293 215.317 355.2H219.797C219.837 354.96 219.857 354.733 219.857 354.52C219.857 353.773 219.644 353.227 219.217 352.88C218.804 352.52 218.304 352.34 217.717 352.34ZM229.495 352.54C228.895 352.54 228.308 352.647 227.735 352.86C227.175 353.073 226.575 353.48 225.935 354.08V361H224.295V351.1H225.855V352.7C226.535 352.033 227.155 351.567 227.715 351.3C228.288 351.033 228.882 350.9 229.495 350.9V352.54ZM240.754 352.44C240.381 352.44 239.941 352.533 239.434 352.72C238.941 352.907 238.341 353.287 237.634 353.86V361H235.994V346.2H237.634V352.42C238.328 351.833 238.954 351.433 239.514 351.22C240.074 351.007 240.621 350.9 241.154 350.9C242.074 350.9 242.774 351.193 243.254 351.78C243.748 352.353 243.994 353.173 243.994 354.24V361H242.354V354.48C242.354 353.12 241.821 352.44 240.754 352.44ZM254.66 361.1C254.047 361.1 253.553 360.96 253.18 360.68C252.82 360.4 252.567 360.053 252.42 359.64C251.767 360.213 251.173 360.62 250.64 360.86C250.107 361.087 249.573 361.2 249.04 361.2C248.173 361.2 247.533 360.92 247.12 360.36C246.707 359.8 246.5 359.113 246.5 358.3C246.5 357.753 246.6 357.267 246.8 356.84C247 356.413 247.34 356.08 247.82 355.84C248.3 355.587 248.947 355.46 249.76 355.46C250.12 355.46 250.513 355.487 250.94 355.54C251.367 355.58 251.8 355.633 252.24 355.7V354.36C252.24 353.613 252.073 353.107 251.74 352.84C251.42 352.56 250.947 352.42 250.32 352.42C249.467 352.42 248.513 352.653 247.46 353.12L246.94 351.76C247.553 351.48 248.14 351.267 248.7 351.12C249.26 350.973 249.827 350.9 250.4 350.9C251.333 350.9 252.047 351.053 252.54 351.36C253.033 351.667 253.373 352.073 253.56 352.58C253.747 353.087 253.84 353.64 253.84 354.24V358.52C253.84 358.827 253.9 359.087 254.02 359.3C254.14 359.5 254.38 359.6 254.74 359.6H254.96V361.1H254.66ZM248.12 358.28C248.12 358.733 248.227 359.1 248.44 359.38C248.653 359.66 248.96 359.8 249.36 359.8C249.707 359.8 250.107 359.7 250.56 359.5C251.013 359.287 251.573 358.867 252.24 358.24V356.98C251.333 356.833 250.533 356.76 249.84 356.76C249.227 356.76 248.787 356.887 248.52 357.14C248.253 357.393 248.12 357.773 248.12 358.28ZM262.723 360.64C261.977 361.013 261.183 361.2 260.343 361.2C259.623 361.2 259.057 361.053 258.643 360.76C258.243 360.467 257.957 360.073 257.783 359.58C257.623 359.087 257.543 358.54 257.543 357.94V352.54H255.823V351.1H257.543V348.34H259.183V351.1H262.423V352.54H259.183V357.88C259.183 358.573 259.297 359.053 259.523 359.32C259.763 359.573 260.13 359.7 260.623 359.7C260.863 359.7 261.11 359.673 261.363 359.62C261.63 359.553 261.917 359.447 262.223 359.3L262.723 360.64ZM275.257 361V359.62C274.643 360.207 274.083 360.62 273.577 360.86C273.083 361.087 272.57 361.2 272.037 361.2C270.983 361.2 270.17 360.8 269.597 360C269.037 359.2 268.757 358.08 268.757 356.64V355.48C268.757 354.08 269.103 352.967 269.797 352.14C270.503 351.313 271.523 350.9 272.857 350.9C273.243 350.9 273.63 350.94 274.017 351.02C274.403 351.1 274.79 351.213 275.177 351.36V346.2H276.817V361H275.257ZM270.457 356.64C270.457 357.68 270.617 358.447 270.937 358.94C271.27 359.42 271.763 359.66 272.417 359.66C272.803 359.66 273.203 359.567 273.617 359.38C274.03 359.18 274.55 358.773 275.177 358.16V352.88C274.79 352.707 274.417 352.587 274.057 352.52C273.697 352.44 273.343 352.4 272.997 352.4C272.09 352.4 271.437 352.673 271.037 353.22C270.65 353.767 270.457 354.52 270.457 355.48V356.64ZM287.59 361.1C286.977 361.1 286.483 360.96 286.11 360.68C285.75 360.4 285.497 360.053 285.35 359.64C284.697 360.213 284.103 360.62 283.57 360.86C283.037 361.087 282.503 361.2 281.97 361.2C281.103 361.2 280.463 360.92 280.05 360.36C279.637 359.8 279.43 359.113 279.43 358.3C279.43 357.753 279.53 357.267 279.73 356.84C279.93 356.413 280.27 356.08 280.75 355.84C281.23 355.587 281.877 355.46 282.69 355.46C283.05 355.46 283.443 355.487 283.87 355.54C284.297 355.58 284.73 355.633 285.17 355.7V354.36C285.17 353.613 285.003 353.107 284.67 352.84C284.35 352.56 283.877 352.42 283.25 352.42C282.397 352.42 281.443 352.653 280.39 353.12L279.87 351.76C280.483 351.48 281.07 351.267 281.63 351.12C282.19 350.973 282.757 350.9 283.33 350.9C284.263 350.9 284.977 351.053 285.47 351.36C285.963 351.667 286.303 352.073 286.49 352.58C286.677 353.087 286.77 353.64 286.77 354.24V358.52C286.77 358.827 286.83 359.087 286.95 359.3C287.07 359.5 287.31 359.6 287.67 359.6H287.89V361.1H287.59ZM281.05 358.28C281.05 358.733 281.157 359.1 281.37 359.38C281.583 359.66 281.89 359.8 282.29 359.8C282.637 359.8 283.037 359.7 283.49 359.5C283.943 359.287 284.503 358.867 285.17 358.24V356.98C284.263 356.833 283.463 356.76 282.77 356.76C282.157 356.76 281.717 356.887 281.45 357.14C281.183 357.393 281.05 357.773 281.05 358.28ZM292.633 359.74C293.966 359.74 294.633 359.287 294.633 358.38C294.633 357.993 294.513 357.687 294.273 357.46C294.033 357.233 293.593 357.04 292.953 356.88L291.853 356.6C291.04 356.4 290.433 356.053 290.033 355.56C289.633 355.053 289.433 354.453 289.433 353.76C289.433 353.253 289.546 352.787 289.773 352.36C290 351.92 290.36 351.567 290.853 351.3C291.346 351.033 291.986 350.9 292.773 350.9C293.28 350.9 293.793 350.96 294.313 351.08C294.846 351.187 295.386 351.373 295.933 351.64L295.413 353.02C294.44 352.58 293.56 352.36 292.773 352.36C291.613 352.36 291.033 352.793 291.033 353.66C291.033 353.993 291.14 354.28 291.353 354.52C291.566 354.76 291.966 354.953 292.553 355.1L293.653 355.38C294.533 355.593 295.18 355.94 295.593 356.42C296.006 356.9 296.213 357.52 296.213 358.28C296.213 358.827 296.093 359.327 295.853 359.78C295.626 360.22 295.253 360.567 294.733 360.82C294.226 361.073 293.54 361.2 292.673 361.2C292.1 361.2 291.526 361.14 290.953 361.02C290.393 360.9 289.813 360.707 289.213 360.44L289.653 359.08C290.226 359.307 290.746 359.473 291.213 359.58C291.68 359.687 292.153 359.74 292.633 359.74ZM305.282 355.68V361H303.542V347.4H307.802C309.082 347.4 310.069 347.74 310.762 348.42C311.469 349.087 311.822 349.98 311.822 351.1V351.96C311.822 352.76 311.635 353.453 311.262 354.04C310.902 354.627 310.382 355.06 309.702 355.34C310.275 356.26 310.809 357.193 311.302 358.14C311.795 359.087 312.249 360.04 312.662 361H310.662C309.902 359.187 309.015 357.413 308.002 355.68H305.282ZM307.802 349H305.282V354.08H307.802C308.482 354.08 309.022 353.893 309.422 353.52C309.822 353.133 310.022 352.613 310.022 351.96V351.1C310.022 350.433 309.822 349.92 309.422 349.56C309.022 349.187 308.482 349 307.802 349ZM322.374 360.42C321.774 360.713 321.174 360.913 320.574 361.02C319.974 361.14 319.42 361.2 318.914 361.2C317.487 361.2 316.42 360.793 315.714 359.98C315.02 359.167 314.674 358.053 314.674 356.64V355.44C314.674 354.067 315.02 352.967 315.714 352.14C316.42 351.313 317.414 350.9 318.694 350.9C319.374 350.9 319.994 351.04 320.554 351.32C321.127 351.587 321.58 352 321.914 352.56C322.26 353.107 322.434 353.813 322.434 354.68C322.434 355.24 322.354 355.88 322.194 356.6H316.294V356.64C316.294 357.653 316.5 358.42 316.914 358.94C317.34 359.46 318.02 359.72 318.954 359.72C319.38 359.72 319.847 359.667 320.354 359.56C320.874 359.453 321.38 359.287 321.874 359.06L322.374 360.42ZM318.694 352.34C317.92 352.34 317.334 352.593 316.934 353.1C316.547 353.593 316.334 354.293 316.294 355.2H320.774C320.814 354.96 320.834 354.733 320.834 354.52C320.834 353.773 320.62 353.227 320.194 352.88C319.78 352.52 319.28 352.34 318.694 352.34ZM326.432 355.46V356.64C326.432 357.653 326.618 358.42 326.992 358.94C327.365 359.447 327.958 359.7 328.772 359.7C329.572 359.7 330.432 359.493 331.352 359.08L331.852 360.46C330.758 360.953 329.698 361.2 328.672 361.2C327.392 361.2 326.418 360.793 325.752 359.98C325.085 359.167 324.752 358.053 324.752 356.64V355.46C324.752 354.047 325.085 352.933 325.752 352.12C326.418 351.307 327.392 350.9 328.672 350.9C329.152 350.9 329.645 350.967 330.152 351.1C330.672 351.22 331.192 351.393 331.712 351.62L331.212 353.02C330.772 352.833 330.345 352.687 329.932 352.58C329.532 352.473 329.145 352.42 328.772 352.42C327.958 352.42 327.365 352.68 326.992 353.2C326.618 353.707 326.432 354.46 326.432 355.46ZM339.016 352.44C338.643 352.44 338.203 352.533 337.696 352.72C337.203 352.907 336.603 353.287 335.896 353.86V361H334.256V346.2H335.896V352.42C336.589 351.833 337.216 351.433 337.776 351.22C338.336 351.007 338.883 350.9 339.416 350.9C340.336 350.9 341.036 351.193 341.516 351.78C342.009 352.353 342.256 353.173 342.256 354.24V361H340.616V354.48C340.616 353.12 340.083 352.44 339.016 352.44ZM351.122 360.64C350.375 361.013 349.582 361.2 348.742 361.2C348.022 361.2 347.455 361.053 347.042 360.76C346.642 360.467 346.355 360.073 346.182 359.58C346.022 359.087 345.942 358.54 345.942 357.94V352.54H344.222V351.1H345.942V348.34H347.582V351.1H350.822V352.54H347.582V357.88C347.582 358.573 347.695 359.053 347.922 359.32C348.162 359.573 348.529 359.7 349.022 359.7C349.262 359.7 349.509 359.673 349.762 359.62C350.029 359.553 350.315 359.447 350.622 359.3L351.122 360.64ZM364.875 361.1C364.262 361.1 363.768 360.96 363.395 360.68C363.035 360.4 362.782 360.053 362.635 359.64C361.982 360.213 361.388 360.62 360.855 360.86C360.322 361.087 359.788 361.2 359.255 361.2C358.388 361.2 357.748 360.92 357.335 360.36C356.922 359.8 356.715 359.113 356.715 358.3C356.715 357.753 356.815 357.267 357.015 356.84C357.215 356.413 357.555 356.08 358.035 355.84C358.515 355.587 359.162 355.46 359.975 355.46C360.335 355.46 360.728 355.487 361.155 355.54C361.582 355.58 362.015 355.633 362.455 355.7V354.36C362.455 353.613 362.288 353.107 361.955 352.84C361.635 352.56 361.162 352.42 360.535 352.42C359.682 352.42 358.728 352.653 357.675 353.12L357.155 351.76C357.768 351.48 358.355 351.267 358.915 351.12C359.475 350.973 360.042 350.9 360.615 350.9C361.548 350.9 362.262 351.053 362.755 351.36C363.248 351.667 363.588 352.073 363.775 352.58C363.962 353.087 364.055 353.64 364.055 354.24V358.52C364.055 358.827 364.115 359.087 364.235 359.3C364.355 359.5 364.595 359.6 364.955 359.6H365.175V361.1H364.875ZM358.335 358.28C358.335 358.733 358.442 359.1 358.655 359.38C358.868 359.66 359.175 359.8 359.575 359.8C359.922 359.8 360.322 359.7 360.775 359.5C361.228 359.287 361.788 358.867 362.455 358.24V356.98C361.548 356.833 360.748 356.76 360.055 356.76C359.442 356.76 359.002 356.887 358.735 357.14C358.468 357.393 358.335 357.773 358.335 358.28ZM373.598 361V359.6C372.905 360.2 372.285 360.62 371.738 360.86C371.192 361.087 370.645 361.2 370.098 361.2C369.218 361.2 368.545 360.913 368.078 360.34C367.612 359.753 367.378 358.933 367.378 357.88V351.1H369.018V357.64C369.018 358.333 369.138 358.847 369.378 359.18C369.632 359.5 370.005 359.66 370.498 359.66C370.872 359.66 371.292 359.567 371.758 359.38C372.225 359.193 372.805 358.82 373.498 358.26V351.1H375.138V361H373.598ZM383.87 352.54H380.63V361H378.99V352.54H377.27V351.1H378.99V349.46C378.99 348.847 379.09 348.28 379.29 347.76C379.503 347.227 379.843 346.8 380.31 346.48C380.777 346.16 381.397 346 382.17 346C382.557 346 382.963 346.047 383.39 346.14C383.83 346.22 384.237 346.347 384.61 346.52L384.15 347.9C383.47 347.633 382.877 347.5 382.37 347.5C381.81 347.5 381.377 347.653 381.07 347.96C380.777 348.267 380.63 348.76 380.63 349.44V351.1H383.87V352.54ZM397.818 359.38V361H390.378V347.4H392.118V359.38H397.818ZM407.12 360.42C406.52 360.713 405.92 360.913 405.32 361.02C404.72 361.14 404.166 361.2 403.66 361.2C402.233 361.2 401.166 360.793 400.46 359.98C399.766 359.167 399.42 358.053 399.42 356.64V355.44C399.42 354.067 399.766 352.967 400.46 352.14C401.166 351.313 402.16 350.9 403.44 350.9C404.12 350.9 404.74 351.04 405.3 351.32C405.873 351.587 406.326 352 406.66 352.56C407.006 353.107 407.18 353.813 407.18 354.68C407.18 355.24 407.1 355.88 406.94 356.6H401.04V356.64C401.04 357.653 401.246 358.42 401.66 358.94C402.086 359.46 402.766 359.72 403.7 359.72C404.126 359.72 404.593 359.667 405.1 359.56C405.62 359.453 406.126 359.287 406.62 359.06L407.12 360.42ZM403.44 352.34C402.666 352.34 402.08 352.593 401.68 353.1C401.293 353.593 401.08 354.293 401.04 355.2H405.52C405.56 354.96 405.58 354.733 405.58 354.52C405.58 353.773 405.366 353.227 404.94 352.88C404.526 352.52 404.026 352.34 403.44 352.34ZM418.018 356.64C418.018 358.027 417.671 359.133 416.978 359.96C416.284 360.787 415.264 361.2 413.918 361.2C412.584 361.2 411.264 360.847 409.958 360.14V346.2H411.598V352.44C412.198 351.88 412.744 351.487 413.238 351.26C413.744 351.02 414.258 350.9 414.778 350.9C415.818 350.9 416.618 351.3 417.178 352.1C417.738 352.9 418.018 354.027 418.018 355.48V356.64ZM414.378 352.44C414.004 352.44 413.604 352.54 413.178 352.74C412.764 352.94 412.238 353.353 411.598 353.98V359.22C412.384 359.553 413.124 359.72 413.818 359.72C414.711 359.72 415.351 359.447 415.738 358.9C416.124 358.34 416.318 357.587 416.318 356.64V355.48C416.318 354.44 416.158 353.673 415.838 353.18C415.518 352.687 415.031 352.44 414.378 352.44ZM428.233 360.42C427.633 360.713 427.033 360.913 426.433 361.02C425.833 361.14 425.28 361.2 424.773 361.2C423.346 361.2 422.28 360.793 421.573 359.98C420.88 359.167 420.533 358.053 420.533 356.64V355.44C420.533 354.067 420.88 352.967 421.573 352.14C422.28 351.313 423.273 350.9 424.553 350.9C425.233 350.9 425.853 351.04 426.413 351.32C426.986 351.587 427.44 352 427.773 352.56C428.12 353.107 428.293 353.813 428.293 354.68C428.293 355.24 428.213 355.88 428.053 356.6H422.153V356.64C422.153 357.653 422.36 358.42 422.773 358.94C423.2 359.46 423.88 359.72 424.813 359.72C425.24 359.72 425.706 359.667 426.213 359.56C426.733 359.453 427.24 359.287 427.733 359.06L428.233 360.42ZM424.553 352.34C423.78 352.34 423.193 352.593 422.793 353.1C422.406 353.593 422.193 354.293 422.153 355.2H426.633C426.673 354.96 426.693 354.733 426.693 354.52C426.693 353.773 426.48 353.227 426.053 352.88C425.64 352.52 425.14 352.34 424.553 352.34ZM435.891 352.44C435.518 352.44 435.078 352.533 434.571 352.72C434.078 352.907 433.478 353.287 432.771 353.86V361H431.131V351.1H432.691V352.48C433.398 351.88 434.038 351.467 434.611 351.24C435.198 351.013 435.758 350.9 436.291 350.9C437.211 350.9 437.911 351.193 438.391 351.78C438.884 352.353 439.131 353.173 439.131 354.24V361H437.491V354.48C437.491 353.12 436.958 352.44 435.891 352.44ZM443.498 359.18V359.56C443.498 360.533 443.378 361.46 443.138 362.34C442.898 363.22 442.464 364.16 441.838 365.16L440.758 364.56C441.091 363.92 441.331 363.333 441.478 362.8C441.638 362.28 441.738 361.733 441.778 361.16C441.831 360.6 441.858 359.94 441.858 359.18H443.498ZM457.761 355.28H452.821V361H451.081V347.4H458.361V349.04H452.821V353.64H457.761V355.28ZM465.765 352.54C465.165 352.54 464.578 352.647 464.005 352.86C463.445 353.073 462.845 353.48 462.205 354.08V361H460.565V351.1H462.125V352.7C462.805 352.033 463.425 351.567 463.985 351.3C464.558 351.033 465.151 350.9 465.765 350.9V352.54ZM475.088 360.42C474.488 360.713 473.888 360.913 473.288 361.02C472.688 361.14 472.135 361.2 471.628 361.2C470.202 361.2 469.135 360.793 468.428 359.98C467.735 359.167 467.388 358.053 467.388 356.64V355.44C467.388 354.067 467.735 352.967 468.428 352.14C469.135 351.313 470.128 350.9 471.408 350.9C472.088 350.9 472.708 351.04 473.268 351.32C473.842 351.587 474.295 352 474.628 352.56C474.975 353.107 475.148 353.813 475.148 354.68C475.148 355.24 475.068 355.88 474.908 356.6H469.008V356.64C469.008 357.653 469.215 358.42 469.628 358.94C470.055 359.46 470.735 359.72 471.668 359.72C472.095 359.72 472.562 359.667 473.068 359.56C473.588 359.453 474.095 359.287 474.588 359.06L475.088 360.42ZM471.408 352.34C470.635 352.34 470.048 352.593 469.648 353.1C469.262 353.593 469.048 354.293 469.008 355.2H473.488C473.528 354.96 473.548 354.733 473.548 354.52C473.548 353.773 473.335 353.227 472.908 352.88C472.495 352.52 471.995 352.34 471.408 352.34ZM479.727 348.68H477.887V346.84H479.727V348.68ZM479.627 361H477.987V351.1H479.627V361ZM487.922 352.44C487.549 352.44 487.109 352.533 486.602 352.72C486.109 352.907 485.509 353.287 484.802 353.86V361H483.162V346.2H484.802V352.42C485.496 351.833 486.122 351.433 486.682 351.22C487.242 351.007 487.789 350.9 488.322 350.9C489.242 350.9 489.942 351.193 490.422 351.78C490.916 352.353 491.162 353.173 491.162 354.24V361H489.522V354.48C489.522 353.12 488.989 352.44 487.922 352.44ZM501.768 360.42C501.168 360.713 500.568 360.913 499.968 361.02C499.368 361.14 498.815 361.2 498.308 361.2C496.881 361.2 495.815 360.793 495.108 359.98C494.415 359.167 494.068 358.053 494.068 356.64V355.44C494.068 354.067 494.415 352.967 495.108 352.14C495.815 351.313 496.808 350.9 498.088 350.9C498.768 350.9 499.388 351.04 499.948 351.32C500.521 351.587 500.975 352 501.308 352.56C501.655 353.107 501.828 353.813 501.828 354.68C501.828 355.24 501.748 355.88 501.588 356.6H495.688V356.64C495.688 357.653 495.895 358.42 496.308 358.94C496.735 359.46 497.415 359.72 498.348 359.72C498.775 359.72 499.241 359.667 499.748 359.56C500.268 359.453 500.775 359.287 501.268 359.06L501.768 360.42ZM498.088 352.34C497.315 352.34 496.728 352.593 496.328 353.1C495.941 353.593 495.728 354.293 495.688 355.2H500.168C500.208 354.96 500.228 354.733 500.228 354.52C500.228 353.773 500.015 353.227 499.588 352.88C499.175 352.52 498.675 352.34 498.088 352.34ZM506.406 348.68H504.566V346.84H506.406V348.68ZM506.306 361H504.666V351.1H506.306V361ZM515.282 360.64C514.535 361.013 513.742 361.2 512.902 361.2C512.182 361.2 511.615 361.053 511.202 360.76C510.802 360.467 510.515 360.073 510.342 359.58C510.182 359.087 510.102 358.54 510.102 357.94V352.54H508.382V351.1H510.102V348.34H511.742V351.1H514.982V352.54H511.742V357.88C511.742 358.573 511.855 359.053 512.082 359.32C512.322 359.573 512.689 359.7 513.182 359.7C513.422 359.7 513.669 359.673 513.922 359.62C514.189 359.553 514.475 359.447 514.782 359.3L515.282 360.64ZM191.86 393V391.6C191.167 392.2 190.547 392.62 190 392.86C189.453 393.087 188.907 393.2 188.36 393.2C187.48 393.2 186.807 392.913 186.34 392.34C185.873 391.753 185.64 390.933 185.64 389.88V383.1H187.28V389.64C187.28 390.333 187.4 390.847 187.64 391.18C187.893 391.5 188.267 391.66 188.76 391.66C189.133 391.66 189.553 391.567 190.02 391.38C190.487 391.193 191.067 390.82 191.76 390.26V383.1H193.4V393H191.86ZM201.692 384.44C201.319 384.44 200.879 384.533 200.372 384.72C199.879 384.907 199.279 385.287 198.572 385.86V393H196.932V383.1H198.492V384.48C199.199 383.88 199.839 383.467 200.412 383.24C200.999 383.013 201.559 382.9 202.092 382.9C203.012 382.9 203.712 383.193 204.192 383.78C204.685 384.353 204.932 385.173 204.932 386.24V393H203.292V386.48C203.292 385.12 202.759 384.44 201.692 384.44ZM214.378 393V391.62C213.764 392.207 213.204 392.62 212.698 392.86C212.204 393.087 211.691 393.2 211.158 393.2C210.104 393.2 209.291 392.8 208.718 392C208.158 391.2 207.878 390.08 207.878 388.64V387.48C207.878 386.08 208.224 384.967 208.918 384.14C209.624 383.313 210.644 382.9 211.978 382.9C212.364 382.9 212.751 382.94 213.138 383.02C213.524 383.1 213.911 383.213 214.298 383.36V378.2H215.938V393H214.378ZM209.578 388.64C209.578 389.68 209.738 390.447 210.058 390.94C210.391 391.42 210.884 391.66 211.538 391.66C211.924 391.66 212.324 391.567 212.738 391.38C213.151 391.18 213.671 390.773 214.298 390.16V384.88C213.911 384.707 213.538 384.587 213.178 384.52C212.818 384.44 212.464 384.4 212.118 384.4C211.211 384.4 210.558 384.673 210.158 385.22C209.771 385.767 209.578 386.52 209.578 387.48V388.64ZM226.966 391.64C227.806 391.64 228.453 391.46 228.906 391.1C229.36 390.727 229.586 390.187 229.586 389.48C229.586 388.893 229.426 388.4 229.106 388C228.8 387.6 228.293 387.293 227.586 387.08L225.966 386.6C224.953 386.293 224.206 385.833 223.726 385.22C223.246 384.593 223.006 383.827 223.006 382.92C223.006 382.227 223.14 381.6 223.406 381.04C223.686 380.48 224.126 380.033 224.726 379.7C225.34 379.367 226.14 379.2 227.126 379.2C227.726 379.2 228.346 379.273 228.986 379.42C229.626 379.553 230.273 379.773 230.926 380.08L230.366 381.58C229.726 381.3 229.146 381.1 228.626 380.98C228.12 380.847 227.633 380.78 227.166 380.78C226.406 380.78 225.813 380.94 225.386 381.26C224.973 381.567 224.766 382.08 224.766 382.8C224.766 383.32 224.906 383.76 225.186 384.12C225.466 384.467 225.966 384.753 226.686 384.98L228.306 385.46C230.333 386.06 231.346 387.353 231.346 389.34C231.346 390.487 231 391.42 230.306 392.14C229.613 392.847 228.5 393.2 226.966 393.2C226.34 393.2 225.673 393.127 224.966 392.98C224.273 392.82 223.553 392.573 222.806 392.24L223.346 390.76C224.053 391.08 224.686 391.307 225.246 391.44C225.82 391.573 226.393 391.64 226.966 391.64ZM235.684 380.68H233.844V378.84H235.684V380.68ZM235.584 393H233.944V383.1H235.584V393ZM240.279 387.46V388.64C240.279 389.653 240.466 390.42 240.839 390.94C241.213 391.447 241.806 391.7 242.619 391.7C243.419 391.7 244.279 391.493 245.199 391.08L245.699 392.46C244.606 392.953 243.546 393.2 242.519 393.2C241.239 393.2 240.266 392.793 239.599 391.98C238.933 391.167 238.599 390.053 238.599 388.64V387.46C238.599 386.047 238.933 384.933 239.599 384.12C240.266 383.307 241.239 382.9 242.519 382.9C242.999 382.9 243.493 382.967 243.999 383.1C244.519 383.22 245.039 383.393 245.559 383.62L245.059 385.02C244.619 384.833 244.193 384.687 243.779 384.58C243.379 384.473 242.993 384.42 242.619 384.42C241.806 384.42 241.213 384.68 240.839 385.2C240.466 385.707 240.279 386.46 240.279 387.46ZM252.864 384.44C252.49 384.44 252.05 384.533 251.544 384.72C251.05 384.907 250.45 385.287 249.744 385.86V393H248.104V378.2H249.744V384.42C250.437 383.833 251.064 383.433 251.624 383.22C252.184 383.007 252.73 382.9 253.264 382.9C254.184 382.9 254.884 383.193 255.364 383.78C255.857 384.353 256.104 385.173 256.104 386.24V393H254.464V386.48C254.464 385.12 253.93 384.44 252.864 384.44ZM266.71 392.42C266.11 392.713 265.51 392.913 264.91 393.02C264.31 393.14 263.756 393.2 263.25 393.2C261.823 393.2 260.756 392.793 260.05 391.98C259.356 391.167 259.01 390.053 259.01 388.64V387.44C259.01 386.067 259.356 384.967 260.05 384.14C260.756 383.313 261.75 382.9 263.03 382.9C263.71 382.9 264.33 383.04 264.89 383.32C265.463 383.587 265.916 384 266.25 384.56C266.596 385.107 266.77 385.813 266.77 386.68C266.77 387.24 266.69 387.88 266.53 388.6H260.63V388.64C260.63 389.653 260.836 390.42 261.25 390.94C261.676 391.46 262.356 391.72 263.29 391.72C263.716 391.72 264.183 391.667 264.69 391.56C265.21 391.453 265.716 391.287 266.21 391.06L266.71 392.42ZM263.03 384.34C262.256 384.34 261.67 384.593 261.27 385.1C260.883 385.593 260.67 386.293 260.63 387.2H265.11C265.15 386.96 265.17 386.733 265.17 386.52C265.17 385.773 264.956 385.227 264.53 384.88C264.116 384.52 263.616 384.34 263.03 384.34ZM274.808 384.54C274.208 384.54 273.621 384.647 273.048 384.86C272.488 385.073 271.888 385.48 271.248 386.08V393H269.608V383.1H271.168V384.7C271.848 384.033 272.468 383.567 273.028 383.3C273.601 383.033 274.194 382.9 274.808 382.9V384.54ZM281.711 384.44C281.338 384.44 280.898 384.533 280.391 384.72C279.898 384.907 279.298 385.287 278.591 385.86V393H276.951V378.2H278.591V384.42C279.285 383.833 279.911 383.433 280.471 383.22C281.031 383.007 281.578 382.9 282.111 382.9C283.031 382.9 283.731 383.193 284.211 383.78C284.705 384.353 284.951 385.173 284.951 386.24V393H283.311V386.48C283.311 385.12 282.778 384.44 281.711 384.44ZM295.557 392.42C294.957 392.713 294.357 392.913 293.757 393.02C293.157 393.14 292.604 393.2 292.097 393.2C290.671 393.2 289.604 392.793 288.897 391.98C288.204 391.167 287.857 390.053 287.857 388.64V387.44C287.857 386.067 288.204 384.967 288.897 384.14C289.604 383.313 290.597 382.9 291.877 382.9C292.557 382.9 293.177 383.04 293.737 383.32C294.311 383.587 294.764 384 295.097 384.56C295.444 385.107 295.617 385.813 295.617 386.68C295.617 387.24 295.537 387.88 295.377 388.6H289.477V388.64C289.477 389.653 289.684 390.42 290.097 390.94C290.524 391.46 291.204 391.72 292.137 391.72C292.564 391.72 293.031 391.667 293.537 391.56C294.057 391.453 294.564 391.287 295.057 391.06L295.557 392.42ZM291.877 384.34C291.104 384.34 290.517 384.593 290.117 385.1C289.731 385.593 289.517 386.293 289.477 387.2H293.957C293.997 386.96 294.017 386.733 294.017 386.52C294.017 385.773 293.804 385.227 293.377 384.88C292.964 384.52 292.464 384.34 291.877 384.34ZM300.195 380.68H298.355V378.84H300.195V380.68ZM300.095 393H298.455V383.1H300.095V393ZM309.071 392.64C308.324 393.013 307.531 393.2 306.691 393.2C305.971 393.2 305.404 393.053 304.991 392.76C304.591 392.467 304.304 392.073 304.131 391.58C303.971 391.087 303.891 390.54 303.891 389.94V384.54H302.171V383.1H303.891V380.34H305.531V383.1H308.771V384.54H305.531V389.88C305.531 390.573 305.644 391.053 305.871 391.32C306.111 391.573 306.478 391.7 306.971 391.7C307.211 391.7 307.458 391.673 307.711 391.62C307.978 391.553 308.264 391.447 308.571 391.3L309.071 392.64ZM321.604 393V391.62C320.991 392.207 320.431 392.62 319.924 392.86C319.431 393.087 318.918 393.2 318.384 393.2C317.331 393.2 316.518 392.8 315.944 392C315.384 391.2 315.104 390.08 315.104 388.64V387.48C315.104 386.08 315.451 384.967 316.144 384.14C316.851 383.313 317.871 382.9 319.204 382.9C319.591 382.9 319.978 382.94 320.364 383.02C320.751 383.1 321.138 383.213 321.524 383.36V378.2H323.164V393H321.604ZM316.804 388.64C316.804 389.68 316.964 390.447 317.284 390.94C317.618 391.42 318.111 391.66 318.764 391.66C319.151 391.66 319.551 391.567 319.964 391.38C320.378 391.18 320.898 390.773 321.524 390.16V384.88C321.138 384.707 320.764 384.587 320.404 384.52C320.044 384.44 319.691 384.4 319.344 384.4C318.438 384.4 317.784 384.673 317.384 385.22C316.998 385.767 316.804 386.52 316.804 387.48V388.64ZM333.878 392.42C333.278 392.713 332.678 392.913 332.078 393.02C331.478 393.14 330.924 393.2 330.418 393.2C328.991 393.2 327.924 392.793 327.218 391.98C326.524 391.167 326.178 390.053 326.178 388.64V387.44C326.178 386.067 326.524 384.967 327.218 384.14C327.924 383.313 328.918 382.9 330.198 382.9C330.878 382.9 331.498 383.04 332.058 383.32C332.631 383.587 333.084 384 333.418 384.56C333.764 385.107 333.938 385.813 333.938 386.68C333.938 387.24 333.858 387.88 333.698 388.6H327.798V388.64C327.798 389.653 328.004 390.42 328.418 390.94C328.844 391.46 329.524 391.72 330.458 391.72C330.884 391.72 331.351 391.667 331.858 391.56C332.378 391.453 332.884 391.287 333.378 391.06L333.878 392.42ZM330.198 384.34C329.424 384.34 328.838 384.593 328.438 385.1C328.051 385.593 327.838 386.293 327.798 387.2H332.278C332.318 386.96 332.338 386.733 332.338 386.52C332.338 385.773 332.124 385.227 331.698 384.88C331.284 384.52 330.784 384.34 330.198 384.34ZM341.976 384.54C341.376 384.54 340.789 384.647 340.216 384.86C339.656 385.073 339.056 385.48 338.416 386.08V393H336.776V383.1H338.336V384.7C339.016 384.033 339.636 383.567 340.196 383.3C340.769 383.033 341.362 382.9 341.976 382.9V384.54ZM348.835 393V379.4H353.075C354.382 379.4 355.375 379.747 356.055 380.44C356.748 381.12 357.095 382.033 357.095 383.18V384.24C357.095 385.387 356.748 386.307 356.055 387C355.375 387.693 354.382 388.04 353.075 388.04H350.575V393H348.835ZM353.075 381.04H350.575V386.42H353.075C353.795 386.42 354.342 386.227 354.715 385.84C355.102 385.453 355.295 384.92 355.295 384.24V383.18C355.295 382.513 355.102 381.993 354.715 381.62C354.342 381.233 353.795 381.04 353.075 381.04ZM366.749 392.42C366.149 392.713 365.549 392.913 364.949 393.02C364.349 393.14 363.795 393.2 363.289 393.2C361.862 393.2 360.795 392.793 360.089 391.98C359.395 391.167 359.049 390.053 359.049 388.64V387.44C359.049 386.067 359.395 384.967 360.089 384.14C360.795 383.313 361.789 382.9 363.069 382.9C363.749 382.9 364.369 383.04 364.929 383.32C365.502 383.587 365.955 384 366.289 384.56C366.635 385.107 366.809 385.813 366.809 386.68C366.809 387.24 366.729 387.88 366.569 388.6H360.669V388.64C360.669 389.653 360.875 390.42 361.289 390.94C361.715 391.46 362.395 391.72 363.329 391.72C363.755 391.72 364.222 391.667 364.729 391.56C365.249 391.453 365.755 391.287 366.249 391.06L366.749 392.42ZM363.069 384.34C362.295 384.34 361.709 384.593 361.309 385.1C360.922 385.593 360.709 386.293 360.669 387.2H365.149C365.189 386.96 365.209 386.733 365.209 386.52C365.209 385.773 364.995 385.227 364.569 384.88C364.155 384.52 363.655 384.34 363.069 384.34ZM374.847 384.54C374.247 384.54 373.66 384.647 373.087 384.86C372.527 385.073 371.927 385.48 371.287 386.08V393H369.647V383.1H371.207V384.7C371.887 384.033 372.507 383.567 373.067 383.3C373.64 383.033 374.233 382.9 374.847 382.9V384.54ZM379.41 391.74C380.744 391.74 381.41 391.287 381.41 390.38C381.41 389.993 381.29 389.687 381.05 389.46C380.81 389.233 380.37 389.04 379.73 388.88L378.63 388.6C377.817 388.4 377.21 388.053 376.81 387.56C376.41 387.053 376.21 386.453 376.21 385.76C376.21 385.253 376.324 384.787 376.55 384.36C376.777 383.92 377.137 383.567 377.63 383.3C378.124 383.033 378.764 382.9 379.55 382.9C380.057 382.9 380.57 382.96 381.09 383.08C381.624 383.187 382.164 383.373 382.71 383.64L382.19 385.02C381.217 384.58 380.337 384.36 379.55 384.36C378.39 384.36 377.81 384.793 377.81 385.66C377.81 385.993 377.917 386.28 378.13 386.52C378.344 386.76 378.744 386.953 379.33 387.1L380.43 387.38C381.31 387.593 381.957 387.94 382.37 388.42C382.784 388.9 382.99 389.52 382.99 390.28C382.99 390.827 382.87 391.327 382.63 391.78C382.404 392.22 382.03 392.567 381.51 392.82C381.004 393.073 380.317 393.2 379.45 393.2C378.877 393.2 378.304 393.14 377.73 393.02C377.17 392.9 376.59 392.707 375.99 392.44L376.43 391.08C377.004 391.307 377.524 391.473 377.99 391.58C378.457 391.687 378.93 391.74 379.41 391.74ZM393.444 387.44V388.64C393.444 390.053 393.077 391.167 392.344 391.98C391.624 392.793 390.59 393.2 389.244 393.2C387.91 393.2 386.877 392.793 386.144 391.98C385.41 391.167 385.044 390.053 385.044 388.64V387.44C385.044 386.053 385.404 384.953 386.124 384.14C386.857 383.313 387.897 382.9 389.244 382.9C390.59 382.9 391.624 383.313 392.344 384.14C393.077 384.953 393.444 386.053 393.444 387.44ZM391.744 387.44C391.744 386.493 391.53 385.753 391.104 385.22C390.677 384.673 390.057 384.4 389.244 384.4C388.444 384.4 387.824 384.673 387.384 385.22C386.957 385.753 386.744 386.493 386.744 387.44V388.64C386.744 389.627 386.957 390.387 387.384 390.92C387.824 391.453 388.444 391.72 389.244 391.72C390.057 391.72 390.677 391.453 391.104 390.92C391.53 390.387 391.744 389.627 391.744 388.64V387.44ZM401.184 384.44C400.811 384.44 400.371 384.533 399.864 384.72C399.371 384.907 398.771 385.287 398.064 385.86V393H396.424V383.1H397.984V384.48C398.691 383.88 399.331 383.467 399.904 383.24C400.491 383.013 401.051 382.9 401.584 382.9C402.504 382.9 403.204 383.193 403.684 383.78C404.177 384.353 404.424 385.173 404.424 386.24V393H402.784V386.48C402.784 385.12 402.251 384.44 401.184 384.44ZM408.891 393H407.051V391.18H408.891V393Z" fill="black"/>
<path d="M187.75 179.6L193.45 193.55L199.12 179.6H203.05V200H199.6V192.2L200.05 185.06L194.98 197.6H191.77L186.82 185.03L187.27 192.2V200H183.82V179.6H187.75ZM219.793 199.13C218.753 199.55 217.773 199.85 216.853 200.03C215.933 200.21 215.063 200.3 214.243 200.3C211.983 200.3 210.273 199.66 209.113 198.38C207.953 197.1 207.373 195.4 207.373 193.28V191.48C207.373 190.06 207.633 188.83 208.153 187.79C208.673 186.75 209.413 185.94 210.373 185.36C211.333 184.78 212.463 184.49 213.763 184.49C214.823 184.49 215.813 184.71 216.733 185.15C217.673 185.57 218.433 186.24 219.013 187.16C219.613 188.06 219.913 189.22 219.913 190.64C219.913 191.06 219.883 191.51 219.823 191.99C219.763 192.45 219.663 192.94 219.523 193.46H210.703C210.743 194.7 211.053 195.63 211.633 196.25C212.213 196.87 213.143 197.18 214.423 197.18C215.103 197.18 215.803 197.1 216.523 196.94C217.263 196.78 218.023 196.54 218.803 196.22L219.793 199.13ZM213.763 187.4C212.843 187.4 212.123 187.7 211.603 188.3C211.103 188.88 210.813 189.72 210.733 190.82H216.493C216.513 190.72 216.523 190.63 216.523 190.55C216.523 190.45 216.523 190.36 216.523 190.28C216.523 189.32 216.253 188.6 215.713 188.12C215.173 187.64 214.523 187.4 213.763 187.4ZM231.328 187.7C230.828 187.7 230.258 187.82 229.618 188.06C228.978 188.3 228.218 188.77 227.338 189.47V200H223.888V184.79H227.158V186.83C228.098 186.01 228.988 185.42 229.828 185.06C230.668 184.68 231.518 184.49 232.378 184.49C233.838 184.49 234.948 184.96 235.708 185.9C236.468 186.82 236.848 188.12 236.848 189.8V200H233.398V190.22C233.398 188.54 232.708 187.7 231.328 187.7ZM245.667 197.3C246.407 197.3 247.017 197.18 247.497 196.94C247.977 196.68 248.217 196.3 248.217 195.8C248.217 195.36 248.057 195.02 247.737 194.78C247.437 194.52 246.887 194.29 246.087 194.09L244.377 193.64C243.057 193.3 242.077 192.73 241.437 191.93C240.817 191.13 240.507 190.18 240.507 189.08C240.507 187.78 240.957 186.69 241.857 185.81C242.757 184.93 244.147 184.49 246.027 184.49C246.787 184.49 247.587 184.58 248.427 184.76C249.267 184.94 250.147 185.23 251.067 185.63L250.077 188.57C249.237 188.17 248.477 187.89 247.797 187.73C247.117 187.57 246.517 187.49 245.997 187.49C244.577 187.49 243.867 187.97 243.867 188.93C243.867 189.31 243.987 189.61 244.227 189.83C244.487 190.05 244.957 190.25 245.637 190.43L247.347 190.88C248.807 191.26 249.867 191.84 250.527 192.62C251.207 193.4 251.547 194.38 251.547 195.56C251.547 196.96 251.067 198.1 250.107 198.98C249.167 199.86 247.677 200.3 245.637 200.3C243.897 200.3 242.067 199.9 240.147 199.1L241.077 196.25C242.017 196.63 242.867 196.9 243.627 197.06C244.387 197.22 245.067 197.3 245.667 197.3ZM257.729 191.51V193.28C257.729 194.56 257.959 195.52 258.419 196.16C258.879 196.8 259.619 197.12 260.639 197.12C261.139 197.12 261.699 197.06 262.319 196.94C262.959 196.8 263.649 196.59 264.389 196.31L265.379 199.22C264.479 199.58 263.629 199.85 262.829 200.03C262.029 200.21 261.239 200.3 260.459 200.3C258.459 200.3 256.929 199.66 255.869 198.38C254.809 197.1 254.279 195.4 254.279 193.28V191.51C254.279 189.37 254.809 187.67 255.869 186.41C256.929 185.13 258.459 184.49 260.459 184.49C261.219 184.49 261.989 184.58 262.769 184.76C263.549 184.94 264.369 185.2 265.229 185.54L264.239 188.51C262.799 187.95 261.599 187.67 260.639 187.67C259.619 187.67 258.879 187.99 258.419 188.63C257.959 189.25 257.729 190.21 257.729 191.51ZM275.976 187.7C275.476 187.7 274.906 187.82 274.266 188.06C273.626 188.3 272.866 188.77 271.986 189.47V200H268.536V177.8H271.986V186.68C272.906 185.9 273.766 185.34 274.566 185C275.366 184.66 276.186 184.49 277.026 184.49C278.486 184.49 279.596 184.96 280.356 185.9C281.116 186.82 281.496 188.12 281.496 189.8V200H278.046V190.22C278.046 188.54 277.356 187.7 275.976 187.7ZM297.606 199.13C296.566 199.55 295.586 199.85 294.666 200.03C293.746 200.21 292.876 200.3 292.056 200.3C289.796 200.3 288.086 199.66 286.926 198.38C285.766 197.1 285.186 195.4 285.186 193.28V191.48C285.186 190.06 285.446 188.83 285.966 187.79C286.486 186.75 287.226 185.94 288.186 185.36C289.146 184.78 290.276 184.49 291.576 184.49C292.636 184.49 293.626 184.71 294.546 185.15C295.486 185.57 296.246 186.24 296.826 187.16C297.426 188.06 297.726 189.22 297.726 190.64C297.726 191.06 297.696 191.51 297.636 191.99C297.576 192.45 297.476 192.94 297.336 193.46H288.516C288.556 194.7 288.866 195.63 289.446 196.25C290.026 196.87 290.956 197.18 292.236 197.18C292.916 197.18 293.616 197.1 294.336 196.94C295.076 196.78 295.836 196.54 296.616 196.22L297.606 199.13ZM291.576 187.4C290.656 187.4 289.936 187.7 289.416 188.3C288.916 188.88 288.626 189.72 288.546 190.82H294.306C294.326 190.72 294.336 190.63 294.336 190.55C294.336 190.45 294.336 190.36 294.336 190.28C294.336 189.32 294.066 188.6 293.526 188.12C292.986 187.64 292.336 187.4 291.576 187.4ZM309.14 187.7C308.64 187.7 308.07 187.82 307.43 188.06C306.79 188.3 306.03 188.77 305.15 189.47V200H301.7V184.79H304.97V186.83C305.91 186.01 306.8 185.42 307.64 185.06C308.48 184.68 309.33 184.49 310.19 184.49C311.65 184.49 312.76 184.96 313.52 185.9C314.28 186.82 314.66 188.12 314.66 189.8V200H311.21V190.22C311.21 188.54 310.52 187.7 309.14 187.7ZM327.8 187.94C326.86 187.94 325.96 188.09 325.1 188.39C324.26 188.67 323.45 189.13 322.67 189.77V200H319.22V184.79H322.49V187.13C323.51 186.17 324.42 185.49 325.22 185.09C326.02 184.69 326.88 184.49 327.8 184.49V187.94ZM342.371 199.13C341.331 199.55 340.351 199.85 339.431 200.03C338.511 200.21 337.641 200.3 336.821 200.3C334.561 200.3 332.851 199.66 331.691 198.38C330.531 197.1 329.951 195.4 329.951 193.28V191.48C329.951 190.06 330.211 188.83 330.731 187.79C331.251 186.75 331.991 185.94 332.951 185.36C333.911 184.78 335.041 184.49 336.341 184.49C337.401 184.49 338.391 184.71 339.311 185.15C340.251 185.57 341.011 186.24 341.591 187.16C342.191 188.06 342.491 189.22 342.491 190.64C342.491 191.06 342.461 191.51 342.401 191.99C342.341 192.45 342.241 192.94 342.101 193.46H333.281C333.321 194.7 333.631 195.63 334.211 196.25C334.791 196.87 335.721 197.18 337.001 197.18C337.681 197.18 338.381 197.1 339.101 196.94C339.841 196.78 340.601 196.54 341.381 196.22L342.371 199.13ZM336.341 187.4C335.421 187.4 334.701 187.7 334.181 188.3C333.681 188.88 333.391 189.72 333.311 190.82H339.071C339.091 190.72 339.101 190.63 339.101 190.55C339.101 190.45 339.101 190.36 339.101 190.28C339.101 189.32 338.831 188.6 338.291 188.12C337.751 187.64 337.101 187.4 336.341 187.4ZM349.106 191.51V193.28C349.106 194.56 349.336 195.52 349.796 196.16C350.256 196.8 350.996 197.12 352.016 197.12C352.516 197.12 353.076 197.06 353.696 196.94C354.336 196.8 355.026 196.59 355.766 196.31L356.756 199.22C355.856 199.58 355.006 199.85 354.206 200.03C353.406 200.21 352.616 200.3 351.836 200.3C349.836 200.3 348.306 199.66 347.246 198.38C346.186 197.1 345.656 195.4 345.656 193.28V191.51C345.656 189.37 346.186 187.67 347.246 186.41C348.306 185.13 349.836 184.49 351.836 184.49C352.596 184.49 353.366 184.58 354.146 184.76C354.926 184.94 355.746 185.2 356.606 185.54L355.616 188.51C354.176 187.95 352.976 187.67 352.016 187.67C350.996 187.67 350.256 187.99 349.796 188.63C349.336 189.25 349.106 190.21 349.106 191.51ZM367.353 187.7C366.853 187.7 366.283 187.82 365.643 188.06C365.003 188.3 364.243 188.77 363.363 189.47V200H359.913V177.8H363.363V186.68C364.283 185.9 365.143 185.34 365.943 185C366.743 184.66 367.563 184.49 368.403 184.49C369.863 184.49 370.973 184.96 371.733 185.9C372.493 186.82 372.873 188.12 372.873 189.8V200H369.423V190.22C369.423 188.54 368.733 187.7 367.353 187.7ZM386.583 199.49C386.063 199.73 385.463 199.92 384.783 200.06C384.103 200.22 383.413 200.3 382.713 200.3C381.553 200.3 380.623 200.06 379.923 199.58C379.223 199.1 378.713 198.43 378.393 197.57C378.093 196.71 377.943 195.73 377.943 194.63V187.79H375.483V184.79H377.943V180.83H381.393V184.79H386.133V187.79H381.393V194.63C381.393 195.55 381.563 196.19 381.903 196.55C382.263 196.89 382.773 197.06 383.433 197.06C383.753 197.06 384.093 197.03 384.453 196.97C384.833 196.89 385.253 196.76 385.713 196.58L386.583 199.49ZM393.616 197.3C394.356 197.3 394.966 197.18 395.446 196.94C395.926 196.68 396.166 196.3 396.166 195.8C396.166 195.36 396.006 195.02 395.686 194.78C395.386 194.52 394.836 194.29 394.036 194.09L392.326 193.64C391.006 193.3 390.026 192.73 389.386 191.93C388.766 191.13 388.456 190.18 388.456 189.08C388.456 187.78 388.906 186.69 389.806 185.81C390.706 184.93 392.096 184.49 393.976 184.49C394.736 184.49 395.536 184.58 396.376 184.76C397.216 184.94 398.096 185.23 399.016 185.63L398.026 188.57C397.186 188.17 396.426 187.89 395.746 187.73C395.066 187.57 394.466 187.49 393.946 187.49C392.526 187.49 391.816 187.97 391.816 188.93C391.816 189.31 391.936 189.61 392.176 189.83C392.436 190.05 392.906 190.25 393.586 190.43L395.296 190.88C396.756 191.26 397.816 191.84 398.476 192.62C399.156 193.4 399.496 194.38 399.496 195.56C399.496 196.96 399.016 198.1 398.056 198.98C397.116 199.86 395.626 200.3 393.586 200.3C391.846 200.3 390.016 199.9 388.096 199.1L389.026 196.25C389.966 196.63 390.816 196.9 391.576 197.06C392.336 197.22 393.016 197.3 393.616 197.3ZM414.588 199.13C413.548 199.55 412.568 199.85 411.648 200.03C410.728 200.21 409.858 200.3 409.038 200.3C406.778 200.3 405.068 199.66 403.908 198.38C402.748 197.1 402.168 195.4 402.168 193.28V191.48C402.168 190.06 402.428 188.83 402.948 187.79C403.468 186.75 404.208 185.94 405.168 185.36C406.128 184.78 407.258 184.49 408.558 184.49C409.618 184.49 410.608 184.71 411.528 185.15C412.468 185.57 413.228 186.24 413.808 187.16C414.408 188.06 414.708 189.22 414.708 190.64C414.708 191.06 414.678 191.51 414.618 191.99C414.558 192.45 414.458 192.94 414.318 193.46H405.498C405.538 194.7 405.848 195.63 406.428 196.25C407.008 196.87 407.938 197.18 409.218 197.18C409.898 197.18 410.598 197.1 411.318 196.94C412.058 196.78 412.818 196.54 413.598 196.22L414.588 199.13ZM408.558 187.4C407.638 187.4 406.918 187.7 406.398 188.3C405.898 188.88 405.608 189.72 405.528 190.82H411.288C411.308 190.72 411.318 190.63 411.318 190.55C411.318 190.45 411.318 190.36 411.318 190.28C411.318 189.32 411.048 188.6 410.508 188.12C409.968 187.64 409.318 187.4 408.558 187.4ZM427.263 187.94C426.323 187.94 425.423 188.09 424.563 188.39C423.723 188.67 422.913 189.13 422.133 189.77V200H418.683V184.79H421.953V187.13C422.973 186.17 423.883 185.49 424.683 185.09C425.483 184.69 426.343 184.49 427.263 184.49V187.94ZM439.374 200L435.624 193.67C435.024 194.27 434.394 194.87 433.734 195.47V200H430.284V177.8H433.734V191.66C434.874 190.5 435.854 189.39 436.674 188.33C437.514 187.25 438.284 186.07 438.984 184.79H442.944C442.284 185.99 441.564 187.13 440.784 188.21C440.004 189.29 439.144 190.38 438.204 191.48L443.544 200H439.374ZM446.161 195.71V177.8H449.611V195.71C449.611 196.01 449.681 196.3 449.821 196.58C449.981 196.84 450.281 196.97 450.721 196.97H451.201V200.15H450.361C449.221 200.15 448.351 199.93 447.751 199.49C447.151 199.05 446.731 198.49 446.491 197.81C446.271 197.13 446.161 196.43 446.161 195.71ZM466.062 200.15C465.042 200.15 464.222 199.94 463.602 199.52C463.002 199.1 462.562 198.58 462.282 197.96C461.422 198.76 460.592 199.35 459.792 199.73C458.992 200.11 458.132 200.3 457.212 200.3C455.872 200.3 454.882 199.87 454.242 199.01C453.622 198.15 453.312 197.06 453.312 195.74C453.312 194.86 453.472 194.09 453.792 193.43C454.132 192.75 454.682 192.22 455.442 191.84C456.202 191.46 457.242 191.27 458.562 191.27C459.082 191.27 459.622 191.31 460.182 191.39C460.742 191.45 461.302 191.53 461.862 191.63V189.86C461.862 189.02 461.632 188.45 461.172 188.15C460.712 187.83 460.092 187.67 459.312 187.67C458.712 187.67 458.052 187.75 457.332 187.91C456.632 188.07 455.872 188.32 455.052 188.66L454.062 185.72C456.082 184.9 457.912 184.49 459.552 184.49C461.032 184.49 462.172 184.74 462.972 185.24C463.792 185.74 464.362 186.4 464.682 187.22C465.002 188.04 465.162 188.92 465.162 189.86V195.71C465.162 196.01 465.242 196.3 465.402 196.58C465.582 196.84 465.922 196.97 466.422 196.97H466.752V200.15H466.062ZM456.642 195.68C456.642 196.22 456.762 196.65 457.002 196.97C457.242 197.27 457.592 197.42 458.052 197.42C458.512 197.42 459.032 197.3 459.612 197.06C460.192 196.82 460.942 196.26 461.862 195.38V194.09C460.822 193.91 459.802 193.82 458.802 193.82C458.022 193.82 457.462 193.98 457.122 194.3C456.802 194.62 456.642 195.08 456.642 195.68ZM458.172 181.73H454.902V178.52H458.172V181.73ZM463.992 181.73H460.722V178.52H463.992V181.73ZM478.327 187.94C477.387 187.94 476.487 188.09 475.627 188.39C474.787 188.67 473.977 189.13 473.197 189.77V200H469.747V184.79H473.017V187.13C474.037 186.17 474.947 185.49 475.747 185.09C476.547 184.69 477.407 184.49 478.327 184.49V187.94ZM490.409 200V197.99C489.489 198.79 488.629 199.38 487.829 199.76C487.029 200.12 486.219 200.3 485.399 200.3C484.039 200.3 482.989 199.84 482.249 198.92C481.509 197.98 481.139 196.67 481.139 194.99V184.79H484.589V194.57C484.589 196.25 485.209 197.09 486.449 197.09C486.949 197.09 487.489 196.97 488.069 196.73C488.669 196.49 489.389 196.03 490.229 195.35V184.79H493.679V200H490.409ZM505.869 187.7C505.369 187.7 504.799 187.82 504.159 188.06C503.519 188.3 502.759 188.77 501.879 189.47V200H498.429V184.79H501.699V186.83C502.639 186.01 503.529 185.42 504.369 185.06C505.209 184.68 506.059 184.49 506.919 184.49C508.379 184.49 509.489 184.96 510.249 185.9C511.009 186.82 511.389 188.12 511.389 189.8V200H507.939V190.22C507.939 188.54 507.249 187.7 505.869 187.7ZM528.578 201.53C528.578 203.15 527.938 204.41 526.658 205.31C525.398 206.23 523.638 206.69 521.378 206.69C520.318 206.69 519.198 206.57 518.018 206.33C516.838 206.09 515.748 205.69 514.748 205.13L515.738 202.4C516.698 202.88 517.648 203.22 518.588 203.42C519.528 203.64 520.448 203.75 521.348 203.75C522.608 203.75 523.568 203.58 524.228 203.24C524.888 202.9 525.218 202.45 525.218 201.89C525.218 201.03 524.708 200.6 523.688 200.6H520.088C519.108 200.6 518.318 200.44 517.718 200.12C517.118 199.8 516.678 199.39 516.398 198.89C516.118 198.37 515.978 197.83 515.978 197.27C515.978 196.69 516.098 196.15 516.338 195.65C516.598 195.13 516.948 194.65 517.388 194.21C516.668 193.77 516.088 193.18 515.648 192.44C515.228 191.7 515.018 190.81 515.018 189.77C515.018 188.59 515.268 187.61 515.768 186.83C516.268 186.05 516.948 185.47 517.808 185.09C518.688 184.69 519.658 184.49 520.718 184.49H521.228C521.628 184.49 522.018 184.52 522.398 184.58C522.778 184.62 523.138 184.69 523.478 184.79H528.908V187.73L525.908 187.25C526.208 187.57 526.438 187.97 526.598 188.45C526.778 188.91 526.868 189.48 526.868 190.16C526.868 191.18 526.608 192.06 526.088 192.8C525.588 193.52 524.908 194.08 524.048 194.48C523.208 194.86 522.268 195.05 521.228 195.05H520.718C520.318 195.05 519.938 195.02 519.578 194.96C519.358 195.2 519.198 195.45 519.098 195.71C518.998 195.95 518.948 196.18 518.948 196.4C518.948 197.1 519.398 197.45 520.298 197.45H523.958C525.338 197.45 526.448 197.81 527.288 198.53C528.148 199.23 528.578 200.23 528.578 201.53ZM521.228 192.23C521.848 192.23 522.388 192.02 522.848 191.6C523.328 191.18 523.568 190.57 523.568 189.77C523.568 188.97 523.328 188.36 522.848 187.94C522.388 187.52 521.848 187.31 521.228 187.31H520.718C520.078 187.31 519.518 187.52 519.038 187.94C518.578 188.36 518.348 188.97 518.348 189.77C518.348 190.57 518.578 191.18 519.038 191.6C519.518 192.02 520.078 192.23 520.718 192.23H521.228ZM535.821 182.51L541.011 179.6H544.011V200H540.471V183.56L537.411 185.24L535.821 182.51ZM561.95 191.96C561.95 194.76 561.29 196.85 559.97 198.23C558.65 199.61 556.79 200.3 554.39 200.3C553.55 200.3 552.68 200.2 551.78 200C550.88 199.8 549.87 199.44 548.75 198.92L550.04 195.83C550.94 196.25 551.73 196.55 552.41 196.73C553.11 196.89 553.74 196.97 554.3 196.97C555.56 196.97 556.57 196.59 557.33 195.83C558.11 195.07 558.5 193.78 558.5 191.96V190.88C557.82 191.5 557.1 191.96 556.34 192.26C555.6 192.56 554.85 192.71 554.09 192.71C552.91 192.71 551.87 192.44 550.97 191.9C550.09 191.36 549.41 190.61 548.93 189.65C548.45 188.69 548.21 187.58 548.21 186.32V185.72C548.21 184.6 548.48 183.55 549.02 182.57C549.56 181.59 550.33 180.8 551.33 180.2C552.33 179.6 553.52 179.3 554.9 179.3C557.12 179.3 558.85 180.05 560.09 181.55C561.33 183.05 561.95 185.11 561.95 187.73V191.96ZM551.72 186.32C551.72 187.24 551.97 188 552.47 188.6C552.99 189.18 553.71 189.47 554.63 189.47C556.05 189.47 557.34 188.93 558.5 187.85V187.73C558.5 186.01 558.18 184.73 557.54 183.89C556.92 183.05 556.02 182.63 554.84 182.63C553.86 182.63 553.09 182.95 552.53 183.59C551.99 184.23 551.72 184.94 551.72 185.72V186.32ZM579.06 195.38H576.93V200H573.45V195.38H564.69V192.47C565.59 191.07 566.48 189.65 567.36 188.21C568.26 186.75 569.1 185.3 569.88 183.86C570.66 182.4 571.3 180.98 571.8 179.6H575.73C574.99 181.64 573.99 183.74 572.73 185.9C571.47 188.04 570.17 190.13 568.83 192.17H573.45V189.08H576.93V192.17H579.06V195.38ZM595 194.45C595 195.55 594.74 196.54 594.22 197.42C593.72 198.3 592.95 199 591.91 199.52C590.87 200.04 589.55 200.3 587.95 200.3C586.37 200.3 585.09 200.06 584.11 199.58C583.13 199.08 582.41 198.43 581.95 197.63C581.49 196.83 581.26 195.94 581.26 194.96C581.26 193.98 581.49 193.08 581.95 192.26C582.41 191.42 583.17 190.65 584.23 189.95C583.39 189.39 582.74 188.7 582.28 187.88C581.84 187.06 581.62 186.1 581.62 185C581.62 183.94 581.87 182.98 582.37 182.12C582.87 181.26 583.6 180.58 584.56 180.08C585.52 179.56 586.67 179.3 588.01 179.3C589.45 179.3 590.66 179.54 591.64 180.02C592.62 180.5 593.35 181.15 593.83 181.97C594.33 182.77 594.58 183.67 594.58 184.67C594.58 185.55 594.37 186.38 593.95 187.16C593.55 187.92 592.87 188.63 591.91 189.29C593.97 190.45 595 192.17 595 194.45ZM587.74 187.76L589.21 188.21C589.89 187.63 590.36 187.1 590.62 186.62C590.9 186.12 591.04 185.61 591.04 185.09C591.04 184.29 590.78 183.66 590.26 183.2C589.76 182.72 589.04 182.48 588.1 182.48C587.16 182.48 586.43 182.71 585.91 183.17C585.41 183.63 585.16 184.26 585.16 185.06C585.16 186.32 586.02 187.22 587.74 187.76ZM584.8 194.45C584.8 195.25 585.09 195.9 585.67 196.4C586.25 196.88 587.07 197.12 588.13 197.12C589.17 197.12 589.98 196.88 590.56 196.4C591.16 195.92 591.46 195.28 591.46 194.48C591.46 193.88 591.24 193.34 590.8 192.86C590.38 192.36 589.65 191.95 588.61 191.63L586.99 191.12C586.25 191.72 585.7 192.28 585.34 192.8C584.98 193.32 584.8 193.87 584.8 194.45Z" fill="black"/>
<path d="M0 10C0 4.47715 4.47715 0 10 0H1120C1125.52 0 1130 4.47715 1130 10V75H0V10Z" fill="white"/>
<rect x="18" y="17" width="627" height="38" rx="10" fill="#F4F4F4"/>
<path d="M45.2045 43L42.5455 34.2727H43.9545L45.8409 40.9545H45.9318L47.7955 34.2727H49.2273L51.0682 40.9318H51.1591L53.0455 34.2727H54.4545L51.7955 43H50.4773L48.5682 36.2955H48.4318L46.5227 43H45.2045ZM58.2045 43L55.5455 34.2727H56.9545L58.8409 40.9545H58.9318L60.7955 34.2727H62.2273L64.0682 40.9318H64.1591L66.0455 34.2727H67.4545L64.7955 43H63.4773L61.5682 36.2955H61.4318L59.5227 43H58.2045ZM71.2045 43L68.5455 34.2727H69.9545L71.8409 40.9545H71.9318L73.7955 34.2727H75.2273L77.0682 40.9318H77.1591L79.0455 34.2727H80.4545L77.7955 43H76.4773L74.5682 36.2955H74.4318L72.5227 43H71.2045ZM82.017 43.0909C81.7367 43.0909 81.4962 42.9905 81.2955 42.7898C81.0947 42.589 80.9943 42.3485 80.9943 42.0682C80.9943 41.7879 81.0947 41.5473 81.2955 41.3466C81.4962 41.1458 81.7367 41.0455 82.017 41.0455C82.2973 41.0455 82.5379 41.1458 82.7386 41.3466C82.9394 41.5473 83.0398 41.7879 83.0398 42.0682C83.0398 42.2538 82.9924 42.4242 82.8977 42.5795C82.8068 42.7348 82.6837 42.8598 82.5284 42.9545C82.3769 43.0455 82.2064 43.0909 82.017 43.0909ZM85.446 43V34.2727H86.7415V35.6364H86.8551C87.0369 35.1705 87.3305 34.8087 87.7358 34.5511C88.1411 34.2898 88.6278 34.1591 89.196 34.1591C89.7718 34.1591 90.2509 34.2898 90.6335 34.5511C91.0199 34.8087 91.321 35.1705 91.5369 35.6364H91.6278C91.8513 35.1856 92.1866 34.8277 92.6335 34.5625C93.0805 34.2936 93.6165 34.1591 94.2415 34.1591C95.0218 34.1591 95.66 34.4034 96.1562 34.892C96.6525 35.3769 96.9006 36.1326 96.9006 37.1591V43H95.5597V37.1591C95.5597 36.5152 95.3835 36.0549 95.0312 35.7784C94.679 35.5019 94.2642 35.3636 93.7869 35.3636C93.1733 35.3636 92.6979 35.5492 92.3608 35.9205C92.0237 36.2879 91.8551 36.7538 91.8551 37.3182V43H90.4915V37.0227C90.4915 36.5265 90.3305 36.1269 90.0085 35.8239C89.6866 35.517 89.2718 35.3636 88.7642 35.3636C88.4157 35.3636 88.09 35.4564 87.7869 35.642C87.4877 35.8277 87.2453 36.0852 87.0597 36.4148C86.8778 36.7405 86.7869 37.1174 86.7869 37.5455V43H85.446ZM102.898 43.1818C102.11 43.1818 101.419 42.9943 100.824 42.6193C100.233 42.2443 99.7708 41.7197 99.4375 41.0455C99.108 40.3712 98.9432 39.5833 98.9432 38.6818C98.9432 37.7727 99.108 36.9792 99.4375 36.3011C99.7708 35.6231 100.233 35.0966 100.824 34.7216C101.419 34.3466 102.11 34.1591 102.898 34.1591C103.686 34.1591 104.375 34.3466 104.966 34.7216C105.561 35.0966 106.023 35.6231 106.352 36.3011C106.686 36.9792 106.852 37.7727 106.852 38.6818C106.852 39.5833 106.686 40.3712 106.352 41.0455C106.023 41.7197 105.561 42.2443 104.966 42.6193C104.375 42.9943 103.686 43.1818 102.898 43.1818ZM102.898 41.9773C103.496 41.9773 103.989 41.8239 104.375 41.517C104.761 41.2102 105.047 40.8068 105.233 40.3068C105.419 39.8068 105.511 39.2652 105.511 38.6818C105.511 38.0985 105.419 37.5549 105.233 37.0511C105.047 36.5473 104.761 36.1402 104.375 35.8295C103.989 35.5189 103.496 35.3636 102.898 35.3636C102.299 35.3636 101.807 35.5189 101.42 35.8295C101.034 36.1402 100.748 36.5473 100.562 37.0511C100.377 37.5549 100.284 38.0985 100.284 38.6818C100.284 39.2652 100.377 39.8068 100.562 40.3068C100.748 40.8068 101.034 41.2102 101.42 41.517C101.807 41.8239 102.299 41.9773 102.898 41.9773ZM112.445 43.1818C111.657 43.1818 110.965 42.9943 110.371 42.6193C109.78 42.2443 109.318 41.7197 108.984 41.0455C108.655 40.3712 108.49 39.5833 108.49 38.6818C108.49 37.7727 108.655 36.9792 108.984 36.3011C109.318 35.6231 109.78 35.0966 110.371 34.7216C110.965 34.3466 111.657 34.1591 112.445 34.1591C113.232 34.1591 113.922 34.3466 114.513 34.7216C115.107 35.0966 115.57 35.6231 115.899 36.3011C116.232 36.9792 116.399 37.7727 116.399 38.6818C116.399 39.5833 116.232 40.3712 115.899 41.0455C115.57 41.7197 115.107 42.2443 114.513 42.6193C113.922 42.9943 113.232 43.1818 112.445 43.1818ZM112.445 41.9773C113.043 41.9773 113.536 41.8239 113.922 41.517C114.308 41.2102 114.594 40.8068 114.78 40.3068C114.965 39.8068 115.058 39.2652 115.058 38.6818C115.058 38.0985 114.965 37.5549 114.78 37.0511C114.594 36.5473 114.308 36.1402 113.922 35.8295C113.536 35.5189 113.043 35.3636 112.445 35.3636C111.846 35.3636 111.354 35.5189 110.967 35.8295C110.581 36.1402 110.295 36.5473 110.109 37.0511C109.924 37.5549 109.831 38.0985 109.831 38.6818C109.831 39.2652 109.924 39.8068 110.109 40.3068C110.295 40.8068 110.581 41.2102 110.967 41.517C111.354 41.8239 111.846 41.9773 112.445 41.9773ZM121.741 43.1818C121.014 43.1818 120.372 42.9981 119.815 42.6307C119.259 42.2595 118.823 41.7367 118.509 41.0625C118.194 40.3845 118.037 39.5833 118.037 38.6591C118.037 37.7424 118.194 36.947 118.509 36.2727C118.823 35.5985 119.26 35.0777 119.821 34.7102C120.382 34.3428 121.029 34.1591 121.764 34.1591C122.332 34.1591 122.781 34.2538 123.111 34.4432C123.444 34.6288 123.698 34.8409 123.872 35.0795C124.05 35.3144 124.188 35.5076 124.287 35.6591H124.401V31.3636H125.741V43H124.446V41.6591H124.287C124.188 41.8182 124.048 42.0189 123.866 42.2614C123.685 42.5 123.425 42.714 123.088 42.9034C122.751 43.089 122.302 43.1818 121.741 43.1818ZM121.923 41.9773C122.461 41.9773 122.916 41.8371 123.287 41.5568C123.658 41.2727 123.94 40.8807 124.134 40.3807C124.327 39.8769 124.423 39.2955 124.423 38.6364C124.423 37.9848 124.329 37.4148 124.139 36.9261C123.95 36.4337 123.67 36.0511 123.298 35.7784C122.927 35.5019 122.469 35.3636 121.923 35.3636C121.355 35.3636 120.882 35.5095 120.503 35.8011C120.128 36.089 119.846 36.4811 119.656 36.9773C119.471 37.4697 119.378 38.0227 119.378 38.6364C119.378 39.2576 119.473 39.822 119.662 40.3295C119.855 40.8333 120.139 41.2348 120.514 41.5341C120.893 41.8295 121.363 41.9773 121.923 41.9773ZM129.724 31.3636V43H128.384V31.3636H129.724ZM135.839 43.1818C134.999 43.1818 134.273 42.9962 133.663 42.625C133.057 42.25 132.589 41.7273 132.26 41.0568C131.934 40.3826 131.771 39.5985 131.771 38.7045C131.771 37.8106 131.934 37.0227 132.26 36.3409C132.589 35.6553 133.048 35.1212 133.635 34.7386C134.226 34.3523 134.915 34.1591 135.703 34.1591C136.158 34.1591 136.607 34.2348 137.05 34.3864C137.493 34.5379 137.896 34.7841 138.26 35.125C138.624 35.4621 138.913 35.9091 139.129 36.4659C139.345 37.0227 139.453 37.7083 139.453 38.5227V39.0909H132.726V37.9318H138.089C138.089 37.4394 137.991 37 137.794 36.6136C137.601 36.2273 137.324 35.9223 136.964 35.6989C136.608 35.4754 136.188 35.3636 135.703 35.3636C135.169 35.3636 134.707 35.4962 134.317 35.7614C133.93 36.0227 133.633 36.3636 133.425 36.7841C133.216 37.2045 133.112 37.6553 133.112 38.1364V38.9091C133.112 39.5682 133.226 40.1269 133.453 40.5852C133.684 41.0398 134.004 41.3864 134.413 41.625C134.822 41.8598 135.298 41.9773 135.839 41.9773C136.192 41.9773 136.51 41.928 136.794 41.8295C137.082 41.7273 137.33 41.5758 137.538 41.375C137.747 41.1705 137.908 40.9167 138.021 40.6136L139.317 40.9773C139.18 41.4167 138.951 41.803 138.629 42.1364C138.307 42.4659 137.91 42.7235 137.436 42.9091C136.963 43.0909 136.43 43.1818 135.839 43.1818ZM142.47 43.0909C142.19 43.0909 141.949 42.9905 141.749 42.7898C141.548 42.589 141.447 42.3485 141.447 42.0682C141.447 41.7879 141.548 41.5473 141.749 41.3466C141.949 41.1458 142.19 41.0455 142.47 41.0455C142.75 41.0455 142.991 41.1458 143.192 41.3466C143.393 41.5473 143.493 41.7879 143.493 42.0682C143.493 42.2538 143.446 42.4242 143.351 42.5795C143.26 42.7348 143.137 42.8598 142.982 42.9545C142.83 43.0455 142.66 43.0909 142.47 43.0909ZM151.399 39.4318V34.2727H152.74V43H151.399V41.5227H151.308C151.104 41.9659 150.786 42.3428 150.354 42.6534C149.922 42.9602 149.376 43.1136 148.717 43.1136C148.172 43.1136 147.687 42.9943 147.263 42.7557C146.839 42.5133 146.505 42.1496 146.263 41.6648C146.02 41.1761 145.899 40.5606 145.899 39.8182V34.2727H147.24V39.7273C147.24 40.3636 147.418 40.8712 147.774 41.25C148.134 41.6288 148.592 41.8182 149.149 41.8182C149.482 41.8182 149.821 41.733 150.166 41.5625C150.515 41.392 150.806 41.1307 151.041 40.7784C151.28 40.4261 151.399 39.9773 151.399 39.4318ZM156.537 37.75V43H155.196V34.2727H156.491V35.6364H156.605C156.81 35.1932 157.12 34.8371 157.537 34.5682C157.954 34.2955 158.491 34.1591 159.151 34.1591C159.741 34.1591 160.259 34.2803 160.702 34.5227C161.145 34.7614 161.49 35.125 161.736 35.6136C161.982 36.0985 162.105 36.7121 162.105 37.4545V43H160.764V37.5455C160.764 36.8598 160.586 36.3258 160.23 35.9432C159.874 35.5568 159.385 35.3636 158.764 35.3636C158.336 35.3636 157.954 35.4564 157.616 35.642C157.283 35.8277 157.02 36.0985 156.827 36.4545C156.634 36.8106 156.537 37.2424 156.537 37.75ZM164.555 43V34.2727H165.896V43H164.555ZM165.237 32.8182C164.976 32.8182 164.75 32.7292 164.561 32.5511C164.375 32.3731 164.283 32.1591 164.283 31.9091C164.283 31.6591 164.375 31.4451 164.561 31.267C164.75 31.089 164.976 31 165.237 31C165.499 31 165.722 31.089 165.908 31.267C166.097 31.4451 166.192 31.6591 166.192 31.9091C166.192 32.1591 166.097 32.3731 165.908 32.5511C165.722 32.7292 165.499 32.8182 165.237 32.8182ZM173.352 37.3864V38.6364H168.261V37.3864H173.352ZM175.712 34.2727H177.053V43.6364C177.053 44.1742 176.96 44.6402 176.774 45.0341C176.592 45.428 176.316 45.733 175.945 45.9489C175.577 46.1648 175.113 46.2727 174.553 46.2727C174.507 46.2727 174.462 46.2727 174.416 46.2727C174.371 46.2727 174.325 46.2727 174.28 46.2727V45.0227C174.325 45.0227 174.367 45.0227 174.405 45.0227C174.443 45.0227 174.484 45.0227 174.53 45.0227C174.939 45.0227 175.238 44.9015 175.428 44.6591C175.617 44.4205 175.712 44.0795 175.712 43.6364V34.2727ZM176.371 32.8182C176.109 32.8182 175.884 32.7292 175.695 32.5511C175.509 32.3731 175.416 32.1591 175.416 31.9091C175.416 31.6591 175.509 31.4451 175.695 31.267C175.884 31.089 176.109 31 176.371 31C176.632 31 176.856 31.089 177.041 31.267C177.231 31.4451 177.325 31.6591 177.325 31.9091C177.325 32.1591 177.231 32.3731 177.041 32.5511C176.856 32.7292 176.632 32.8182 176.371 32.8182ZM183.168 43.1818C182.327 43.1818 181.601 42.9962 180.991 42.625C180.385 42.25 179.918 41.7273 179.588 41.0568C179.262 40.3826 179.099 39.5985 179.099 38.7045C179.099 37.8106 179.262 37.0227 179.588 36.3409C179.918 35.6553 180.376 35.1212 180.963 34.7386C181.554 34.3523 182.243 34.1591 183.031 34.1591C183.486 34.1591 183.935 34.2348 184.378 34.3864C184.821 34.5379 185.224 34.7841 185.588 35.125C185.952 35.4621 186.241 35.9091 186.457 36.4659C186.673 37.0227 186.781 37.7083 186.781 38.5227V39.0909H180.054V37.9318H185.418C185.418 37.4394 185.319 37 185.122 36.6136C184.929 36.2273 184.652 35.9223 184.293 35.6989C183.937 35.4754 183.516 35.3636 183.031 35.3636C182.497 35.3636 182.035 35.4962 181.645 35.7614C181.259 36.0227 180.961 36.3636 180.753 36.7841C180.545 37.2045 180.44 37.6553 180.44 38.1364V38.9091C180.44 39.5682 180.554 40.1269 180.781 40.5852C181.012 41.0398 181.332 41.3864 181.741 41.625C182.151 41.8598 182.626 41.9773 183.168 41.9773C183.52 41.9773 183.838 41.928 184.122 41.8295C184.41 41.7273 184.658 41.5758 184.866 41.375C185.075 41.1705 185.236 40.9167 185.349 40.6136L186.645 40.9773C186.509 41.4167 186.279 41.803 185.957 42.1364C185.635 42.4659 185.238 42.7235 184.764 42.9091C184.291 43.0909 183.759 43.1818 183.168 43.1818ZM190.162 37.75V43H188.821V34.2727H190.116V35.6364H190.23C190.435 35.1932 190.745 34.8371 191.162 34.5682C191.579 34.2955 192.116 34.1591 192.776 34.1591C193.366 34.1591 193.884 34.2803 194.327 34.5227C194.77 34.7614 195.115 35.125 195.361 35.6136C195.607 36.0985 195.73 36.7121 195.73 37.4545V43H194.389V37.5455C194.389 36.8598 194.211 36.3258 193.855 35.9432C193.499 35.5568 193.01 35.3636 192.389 35.3636C191.961 35.3636 191.579 35.4564 191.241 35.642C190.908 35.8277 190.645 36.0985 190.452 36.4545C190.259 36.8106 190.162 37.2424 190.162 37.75ZM200.749 43.2045C200.196 43.2045 199.694 43.1004 199.243 42.892C198.792 42.6799 198.434 42.375 198.169 41.9773C197.904 41.5758 197.771 41.0909 197.771 40.5227C197.771 40.0227 197.87 39.6174 198.067 39.3068C198.264 38.9924 198.527 38.7462 198.857 38.5682C199.186 38.3902 199.55 38.2576 199.947 38.1705C200.349 38.0795 200.752 38.0076 201.158 37.9545C201.688 37.8864 202.118 37.8352 202.447 37.8011C202.781 37.7633 203.023 37.7008 203.175 37.6136C203.33 37.5265 203.408 37.375 203.408 37.1591V37.1136C203.408 36.553 203.254 36.1174 202.947 35.8068C202.644 35.4962 202.184 35.3409 201.567 35.3409C200.927 35.3409 200.425 35.4811 200.061 35.7614C199.697 36.0417 199.442 36.3409 199.294 36.6591L198.021 36.2045C198.249 35.6742 198.552 35.2614 198.93 34.9659C199.313 34.6667 199.73 34.4583 200.18 34.3409C200.635 34.2197 201.082 34.1591 201.521 34.1591C201.802 34.1591 202.124 34.1932 202.487 34.2614C202.855 34.3258 203.209 34.4602 203.55 34.6648C203.894 34.8693 204.18 35.178 204.408 35.5909C204.635 36.0038 204.749 36.5568 204.749 37.25V43H203.408V41.8182H203.339C203.249 42.0076 203.097 42.2102 202.885 42.4261C202.673 42.642 202.391 42.8258 202.038 42.9773C201.686 43.1288 201.256 43.2045 200.749 43.2045ZM200.953 42C201.483 42 201.93 41.8958 202.294 41.6875C202.661 41.4792 202.938 41.2102 203.124 40.8807C203.313 40.5511 203.408 40.2045 203.408 39.8409V38.6136C203.351 38.6818 203.226 38.7443 203.033 38.8011C202.843 38.8542 202.624 38.9015 202.374 38.9432C202.127 38.9811 201.887 39.0152 201.652 39.0455C201.421 39.072 201.233 39.0947 201.089 39.1136C200.741 39.1591 200.415 39.233 200.112 39.3352C199.813 39.4337 199.571 39.5833 199.385 39.7841C199.203 39.9811 199.112 40.25 199.112 40.5909C199.112 41.0568 199.285 41.4091 199.629 41.6477C199.978 41.8826 200.419 42 200.953 42ZM208.173 43.0909C207.893 43.0909 207.652 42.9905 207.452 42.7898C207.251 42.589 207.151 42.3485 207.151 42.0682C207.151 41.7879 207.251 41.5473 207.452 41.3466C207.652 41.1458 207.893 41.0455 208.173 41.0455C208.454 41.0455 208.694 41.1458 208.895 41.3466C209.096 41.5473 209.196 41.7879 209.196 42.0682C209.196 42.2538 209.149 42.4242 209.054 42.5795C208.963 42.7348 208.84 42.8598 208.685 42.9545C208.533 43.0455 208.363 43.0909 208.173 43.0909ZM214.898 43.1818C214.17 43.1818 213.528 42.9981 212.972 42.6307C212.415 42.2595 211.979 41.7367 211.665 41.0625C211.35 40.3845 211.193 39.5833 211.193 38.6591C211.193 37.7424 211.35 36.947 211.665 36.2727C211.979 35.5985 212.417 35.0777 212.977 34.7102C213.538 34.3428 214.186 34.1591 214.92 34.1591C215.489 34.1591 215.938 34.2538 216.267 34.4432C216.6 34.6288 216.854 34.8409 217.028 35.0795C217.206 35.3144 217.345 35.5076 217.443 35.6591H217.557V31.3636H218.898V43H217.602V41.6591H217.443C217.345 41.8182 217.205 42.0189 217.023 42.2614C216.841 42.5 216.581 42.714 216.244 42.9034C215.907 43.089 215.458 43.1818 214.898 43.1818ZM215.08 41.9773C215.617 41.9773 216.072 41.8371 216.443 41.5568C216.814 41.2727 217.097 40.8807 217.29 40.3807C217.483 39.8769 217.58 39.2955 217.58 38.6364C217.58 37.9848 217.485 37.4148 217.295 36.9261C217.106 36.4337 216.826 36.0511 216.455 35.7784C216.083 35.5019 215.625 35.3636 215.08 35.3636C214.511 35.3636 214.038 35.5095 213.659 35.8011C213.284 36.089 213.002 36.4811 212.812 36.9773C212.627 37.4697 212.534 38.0227 212.534 38.6364C212.534 39.2576 212.629 39.822 212.818 40.3295C213.011 40.8333 213.295 41.2348 213.67 41.5341C214.049 41.8295 214.519 41.9773 215.08 41.9773ZM225.199 43.1818C224.358 43.1818 223.633 42.9962 223.023 42.625C222.417 42.25 221.949 41.7273 221.619 41.0568C221.294 40.3826 221.131 39.5985 221.131 38.7045C221.131 37.8106 221.294 37.0227 221.619 36.3409C221.949 35.6553 222.407 35.1212 222.994 34.7386C223.585 34.3523 224.275 34.1591 225.062 34.1591C225.517 34.1591 225.966 34.2348 226.409 34.3864C226.852 34.5379 227.256 34.7841 227.619 35.125C227.983 35.4621 228.273 35.9091 228.489 36.4659C228.705 37.0227 228.812 37.7083 228.812 38.5227V39.0909H222.085V37.9318H227.449C227.449 37.4394 227.35 37 227.153 36.6136C226.96 36.2273 226.684 35.9223 226.324 35.6989C225.968 35.4754 225.547 35.3636 225.062 35.3636C224.528 35.3636 224.066 35.4962 223.676 35.7614C223.29 36.0227 222.992 36.3636 222.784 36.7841C222.576 37.2045 222.472 37.6553 222.472 38.1364V38.9091C222.472 39.5682 222.585 40.1269 222.812 40.5852C223.044 41.0398 223.364 41.3864 223.773 41.625C224.182 41.8598 224.657 41.9773 225.199 41.9773C225.551 41.9773 225.869 41.928 226.153 41.8295C226.441 41.7273 226.689 41.5758 226.898 41.375C227.106 41.1705 227.267 40.9167 227.381 40.6136L228.676 40.9773C228.54 41.4167 228.311 41.803 227.989 42.1364C227.667 42.4659 227.269 42.7235 226.795 42.9091C226.322 43.0909 225.79 43.1818 225.199 43.1818Z" fill="black"/>
<circle cx="1067.5" cy="35.5" r="7.5" fill="#FCBD2E"/>
<circle cx="1044.5" cy="35.5" r="7.5" fill="#FA6058"/>
<circle cx="1090.5" cy="35.5" r="7.5" fill="#30CA41"/>
<rect x="574" y="227.723" width="88" height="49" rx="15" transform="rotate(-23.2389 574 227.723)" fill="#F1A2A2"/>
<path d="M614.513 243.671C615.285 243.34 615.808 242.919 616.082 242.41C616.352 241.888 616.347 241.302 616.068 240.653C615.836 240.114 615.495 239.723 615.043 239.482C614.603 239.236 614.017 239.154 613.283 239.236L611.605 239.435C610.553 239.553 609.686 239.425 609.003 239.05C608.314 238.664 607.791 238.054 607.433 237.221C607.16 236.584 607.035 235.956 607.059 235.336C607.096 234.711 607.324 234.127 607.743 233.584C608.175 233.035 608.845 232.567 609.751 232.177C610.303 231.941 610.901 231.763 611.547 231.646C612.188 231.516 612.869 231.463 613.59 231.487L613.668 233.086C612.969 233.081 612.357 233.126 611.832 233.221C611.314 233.298 610.84 233.429 610.412 233.613C609.713 233.913 609.231 234.294 608.965 234.757C608.707 235.202 608.719 235.755 609.003 236.416C609.208 236.894 609.511 237.243 609.91 237.464C610.304 237.672 610.877 237.738 611.628 237.662L613.306 237.464C615.405 237.216 616.846 238.004 617.63 239.83C618.082 240.883 618.132 241.878 617.779 242.813C617.421 243.736 616.537 244.5 615.128 245.105C614.552 245.352 613.911 245.548 613.204 245.692C612.504 245.818 611.745 245.876 610.927 245.864L610.839 244.291C611.615 244.306 612.286 244.264 612.853 244.166C613.433 244.062 613.986 243.897 614.513 243.671ZM622.453 241.742L620.762 242.468L620.044 240.795L621.735 240.069L622.453 241.742ZM623.106 228.707L625.341 225.701L626.793 225.077L632.159 237.574L630.597 238.245L625.957 227.439L624.325 229.62L623.106 228.707ZM640.959 228.049C641.69 229.752 641.849 231.186 641.435 232.35C641.015 233.503 640.126 234.371 638.766 234.955C638.288 235.16 637.75 235.326 637.151 235.452C636.565 235.573 635.905 235.625 635.171 235.606L635.146 234.027C635.785 234.029 636.349 233.99 636.837 233.911C637.333 233.814 637.758 233.69 638.113 233.537C638.983 233.163 639.566 232.594 639.861 231.829C640.157 231.063 640.02 230.019 639.452 228.696L638.986 227.612C638.708 228.181 638.368 228.69 637.966 229.138C637.564 229.587 637.081 229.932 636.517 230.174C635.439 230.637 634.449 230.663 633.547 230.252C632.64 229.829 631.947 229.06 631.468 227.945L631.231 227.394C630.921 226.671 630.798 225.962 630.862 225.267C630.939 224.567 631.197 223.934 631.636 223.368C632.082 222.785 632.709 222.319 633.518 221.972C634.828 221.409 636.025 221.425 637.107 222.019C638.202 222.609 639.097 223.712 639.791 225.329L640.959 228.049ZM632.993 227.29C633.293 227.989 633.716 228.467 634.263 228.726C634.821 228.979 635.438 228.961 636.112 228.672C636.626 228.451 637.069 228.13 637.44 227.71C637.818 227.272 638.131 226.768 638.379 226.197L638.284 225.976C637.753 224.739 637.132 223.917 636.42 223.512C635.722 223.101 634.956 223.074 634.123 223.432C633.387 223.747 632.904 224.209 632.671 224.817C632.439 225.424 632.467 226.065 632.757 226.739L632.993 227.29Z" fill="black"/>
<defs>
<linearGradient id="paint0_linear_918_127" x1="823.904" y1="316.159" x2="1230.53" y2="592.801" gradientUnits="userSpaceOnUse">
<stop stop-color="#B5EAD7"/>
<stop offset="0.442708" stop-color="#E2F0CB"/>
<stop offset="0.671775" stop-color="#E3F1CD"/>
<stop offset="0.671875" stop-color="white"/>
</linearGradient>
</defs>
</svg>
