<svg xmlns="http://www.w3.org/2000/svg" width="1130" height="657" fill="none"><path d="M0 12C0 6.477 4.477 2 10 2h1110c5.52 0 10 4.477 10 10v645H0V12z" fill="#f4f4f4"/><rect x="101" y="110" width="929" height="514" rx="10" fill="#fff"/><mask id="A" maskUnits="userSpaceOnUse" x="101" y="110" width="929" height="514" mask-type="alpha"><rect x="101" y="110" width="929" height="514" rx="10" fill="#fff"/></mask><g mask="url(#A)"><path d="M1230.53 111.5c114.91 78.182 114.94 312.357 0 481.301S848.915 824.683 733.999 746.5s39.735-354.844 170-409c9.369-176 211.611-304.182 326.531-226z" fill="url(#B)"/></g><g fill="#000"><path d="M189.804 164.866V166h-5.32v-9.52h5.18v1.148h-3.962v2.982h3.542v1.148h-3.542v3.108h4.102zm.816-7.238v-1.148h6.762v1.148h-2.772V166h-1.218v-8.372h-2.772zM204.421 166v-4.242h-4.158V166h-1.218v-9.52h1.218v4.13h4.158v-4.13h1.218V166h-1.218zm5.398 0h-1.218v-9.52h1.218V166zm8.173 0l-2.716-4.494-.616.63-.644.644V166h-1.218v-9.52h1.218v4.942c.878-.887 1.61-1.727 2.198-2.52a16.3 16.3 0 0 0 1.498-2.422h1.316c-.42.821-.858 1.568-1.316 2.24-.448.663-.961 1.325-1.54 1.988l3.304 5.292h-1.484zm4.977-8.204l2.268-1.316h1.106V166h-1.19v-8.232l-1.652.952-.532-.924z"/><path d="M193.12 297l-.84-2.66h-4.66l-.84 2.66h-2.38l4.54-13.6h2.12l4.56 13.6h-2.5zm-4.2-6.82l-.62 1.96h3.28l-.62-1.96-1-3.44-1.04 3.44zm14.196-1.22a5.43 5.43 0 0 0-1.8.3c-.56.187-1.1.493-1.62.92V297h-2.3v-10.14h2.18v1.56c.68-.64 1.287-1.093 1.82-1.36a3.79 3.79 0 0 1 1.72-.4v2.3zm8.115 7.7c-.347.16-.747.287-1.2.38-.454.107-.914.16-1.38.16-.774 0-1.394-.16-1.86-.48s-.807-.767-1.02-1.34c-.2-.573-.3-1.227-.3-1.96v-4.56h-1.64v-2h1.64v-2.64h2.3v2.64h3.16v2h-3.16v4.56c0 .613.113 1.04.34 1.28.24.227.58.34 1.02.34.213 0 .44-.02.68-.06.253-.053.533-.14.84-.26l.58 1.94zm4.209-11.72h-2.42v-2.38h2.42v2.38zm-.06 12.06h-2.3v-10.14h2.3V297zm9.229 0l-2.5-4.22-1.26 1.2V297h-2.3v-14.8h2.3v9.24c.76-.773 1.413-1.513 1.96-2.22.56-.72 1.073-1.507 1.54-2.36h2.64c-.44.8-.92 1.56-1.44 2.28l-1.72 2.18 3.56 5.68h-2.78zm11.991-.58c-.693.28-1.346.48-1.96.6s-1.193.18-1.74.18c-1.506 0-2.646-.427-3.42-1.28s-1.16-1.987-1.16-3.4v-1.2c0-.947.174-1.767.52-2.46s.84-1.233 1.48-1.62 1.394-.58 2.26-.58c.707 0 1.367.147 1.98.44a3.42 3.42 0 0 1 1.52 1.34c.4.6.6 1.373.6 2.32a7.28 7.28 0 0 1-.06.9c-.04.307-.106.633-.2.98h-5.88c.027.827.234 1.447.62 1.86s1.007.62 1.86.62a6.42 6.42 0 0 0 1.4-.16c.494-.107 1-.267 1.52-.48l.66 1.94zm-4.02-7.82c-.613 0-1.093.2-1.44.6-.333.387-.526.947-.58 1.68h3.84c.014-.067.02-.127.02-.18v-.18c0-.64-.18-1.12-.54-1.44s-.793-.48-1.3-.48zm6.69 5.54V282.2h2.3v11.94c0 .2.047.393.14.58.107.173.307.26.6.26h.32v2.12h-.56c-.76 0-1.34-.147-1.74-.44s-.68-.667-.84-1.12a4.51 4.51 0 0 1-.22-1.4zm18.111-.22h-1.42V297h-2.32v-3.08h-5.84v-1.94l1.78-2.84 1.68-2.9a21.76 21.76 0 0 0 1.28-2.84h2.62c-.493 1.36-1.16 2.76-2 4.2l-2.6 4.18h3.08v-2.06h2.32v2.06h1.42v2.14zm3.767-4.68h-2.42v-2.38h2.42v2.38zm0 7.76h-2.42v-2.38h2.42V297zM186.9 325.14c0 .973.173 1.98.52 3.02.36 1.04.887 2.013 1.58 2.92l-1.26.98a11.44 11.44 0 0 1-1.86-3.4c-.427-1.24-.64-2.427-.64-3.56v-.54c0-1.853.467-3.693 1.4-5.52.947-1.84 2.373-3.52 4.28-5.04l.9 1.26c-1.56 1.32-2.773 2.747-3.64 4.28-.853 1.533-1.28 3.24-1.28 5.12v.48zm15.808-9.74l-6.74 13.6h-1.76l-1.96-13.6h1.76l.94 6.9.5 4.34 2.08-4.36 3.34-6.88h1.84zm6.386 13.2c-.573.213-1.127.367-1.66.46a8.86 8.86 0 0 1-1.52.14c-1.067 0-1.907-.213-2.52-.64-.6-.44-1-1.033-1.2-1.78s-.227-1.587-.08-2.52l.18-1.02c.213-1.307.713-2.353 1.5-3.14.8-.8 1.807-1.2 3.02-1.2a4.39 4.39 0 0 1 1.68.32c.533.213.96.547 1.28 1s.48 1.033.48 1.74c0 .387-.06.8-.18 1.24-.107.427-.313.893-.62 1.4h-5.78c-.12.92-.013 1.673.32 2.26.333.573 1.02.86 2.06.86.373 0 .8-.04 1.28-.12.48-.093.98-.227 1.5-.4l.26 1.4zm-2.34-8.24c-.76 0-1.387.253-1.88.76-.493.493-.813 1.187-.96 2.08h4.48a2.2 2.2 0 0 0 .2-.64c.04-.2.06-.387.06-.56 0-.56-.18-.973-.54-1.24s-.813-.4-1.36-.4zm11.838.2a4.62 4.62 0 0 0-1.1.16c-.427.093-.887.293-1.38.6-.48.307-.974.773-1.48 1.4l-1.1 6.28h-1.64l1.76-9.9h1.54l-.32 1.86c.76-.84 1.48-1.393 2.16-1.66.693-.267 1.306-.4 1.84-.4l-.28 1.66zm9.423 4.08c-.213 1.453-.713 2.58-1.5 3.38-.773.787-1.82 1.18-3.14 1.18a6.41 6.41 0 0 1-2.08-.34 12.24 12.24 0 0 1-1.94-.92l2.44-13.74h1.64l-1.16 6.54c.614-.693 1.194-1.173 1.74-1.44.56-.267 1.087-.4 1.58-.4.667 0 1.214.207 1.64.62s.72.98.88 1.7c.174.72.187 1.54.04 2.46l-.14.96zm-2.88-4.24c-.413 0-.893.187-1.44.56-.546.36-1.146 1-1.8 1.92l-.74 4.28c.734.373 1.44.56 2.12.56.907 0 1.607-.273 2.1-.82.494-.56.807-1.313.94-2.26l.14-.96c.16-1.053.12-1.86-.12-2.42-.226-.573-.626-.86-1.2-.86zm13.935 3.44l-.16 1c-.213 1.413-.72 2.493-1.52 3.24-.787.747-1.813 1.12-3.08 1.12-.933 0-1.707-.213-2.32-.64-.6-.427-1.02-1.013-1.26-1.76s-.287-1.593-.14-2.54l.16-1.02c.227-1.36.727-2.42 1.5-3.18.787-.773 1.82-1.16 3.1-1.16.947 0 1.72.22 2.32.66s1.02 1.033 1.26 1.78c.24.733.287 1.567.14 2.5zm-1.7-.04c.16-1 .067-1.813-.28-2.44-.347-.64-.933-.96-1.76-.96-.773 0-1.413.247-1.92.74-.493.493-.813 1.193-.96 2.1l-.16 1.06c-.16 1.027-.067 1.853.28 2.48.36.627.947.94 1.76.94.773 0 1.407-.24 1.9-.72.507-.493.833-1.213.98-2.16l.16-1.04zm9.32 4.86c-.854.36-1.66.54-2.42.54-.68 0-1.207-.147-1.58-.44-.374-.307-.614-.7-.72-1.18s-.114-.993-.02-1.54l.96-5.5h-1.72l.24-1.44h1.74l.48-2.76h1.64l-.48 2.76h3.24l-.26 1.44h-3.24l-.98 5.5c-.107.613-.06 1.047.14 1.3.2.24.493.36.88.36.213 0 .466-.027.76-.08a4.82 4.82 0 0 0 .98-.34l.36 1.38zm12.492.34l.3-1.76c-.627.733-1.227 1.247-1.8 1.54-.56.28-1.1.42-1.62.42-.667 0-1.214-.207-1.64-.62s-.72-.98-.88-1.7-.174-1.533-.04-2.44l.14-.98c.213-1.453.706-2.573 1.48-3.36.786-.8 1.84-1.2 3.16-1.2a5.09 5.09 0 0 1 1.28.16 7.05 7.05 0 0 1 1.22.44l.94-5.3h1.64l-2.62 14.8h-1.56zm-3.98-4.56c-.147 1.053-.107 1.867.12 2.44.226.56.626.84 1.2.84.426 0 .913-.187 1.46-.56s1.146-1.027 1.8-1.96l.74-4.22c-.734-.387-1.447-.58-2.14-.58-.894 0-1.587.273-2.08.82s-.814 1.293-.96 2.24l-.14.98zm16.373 4.16c-.574.213-1.127.367-1.66.46a8.87 8.87 0 0 1-1.52.14c-1.067 0-1.907-.213-2.52-.64-.6-.44-1-1.033-1.2-1.78s-.227-1.587-.08-2.52l.18-1.02c.213-1.307.713-2.353 1.5-3.14.8-.8 1.806-1.2 3.02-1.2a4.39 4.39 0 0 1 1.68.32c.533.213.96.547 1.28 1s.48 1.033.48 1.74c0 .387-.06.8-.18 1.24-.107.427-.314.893-.62 1.4h-5.78c-.12.92-.014 1.673.32 2.26.333.573 1.02.86 2.06.86.373 0 .8-.04 1.28-.12.48-.093.98-.227 1.5-.4l.26 1.4zm-2.34-8.24c-.76 0-1.387.253-1.88.76-.494.493-.814 1.187-.96 2.08h4.48a2.23 2.23 0 0 0 .2-.64c.04-.2.06-.387.06-.56 0-.56-.18-.973-.54-1.24s-.814-.4-1.36-.4zm11.837.2c-.306 0-.673.053-1.1.16-.426.093-.886.293-1.38.6-.48.307-.973.773-1.48 1.4l-1.1 6.28h-1.64l1.76-9.9h1.54l-.32 1.86c.76-.84 1.48-1.393 2.16-1.66.694-.267 1.307-.4 1.84-.4l-.28 1.66zm8.279 7.08c.987 0 1.734-.213 2.24-.64.52-.427.78-1 .78-1.72 0-.933-.54-1.64-1.62-2.12l-1.44-.64c-.813-.36-1.413-.807-1.8-1.34-.386-.547-.58-1.227-.58-2.04 0-.72.154-1.373.46-1.96.307-.6.794-1.08 1.46-1.44s1.534-.54 2.6-.54c1.24 0 2.454.293 3.64.88l-.6 1.5c-.573-.267-1.1-.467-1.58-.6a5.44 5.44 0 0 0-1.46-.2c-.893 0-1.573.207-2.04.62-.453.4-.68.947-.68 1.64 0 .453.12.833.36 1.14.254.293.667.573 1.24.84l1.42.64c.774.333 1.374.78 1.8 1.34.427.547.64 1.26.64 2.14 0 .707-.16 1.373-.48 2-.32.613-.833 1.113-1.54 1.5-.706.373-1.646.56-2.82.56a9.45 9.45 0 0 1-2-.22c-.666-.16-1.353-.407-2.06-.74l.6-1.5c.667.32 1.274.553 1.82.7.547.133 1.094.2 1.64.2zm12.978 1.36l-2-4.6-.94.78-1.02.78-.54 3.04h-1.64l2.62-14.8h1.64l-1.76 9.92 2.7-2.42c.813-.8 1.566-1.667 2.26-2.6h1.96l-1.88 2.26-2.06 2.08 2.56 5.56h-1.9zm4.436-2.5l2.16-12.3h1.64l-2.16 12.32c-.053.373-.047.647.02.82.08.173.307.26.68.26h.3l-.28 1.5h-.34c-.92 0-1.52-.24-1.8-.72-.28-.493-.353-1.12-.22-1.88zm13.093 2.6c-.653 0-1.14-.16-1.46-.48-.306-.333-.473-.747-.5-1.24-.626.68-1.226 1.153-1.8 1.42s-1.113.4-1.62.4c-.653 0-1.193-.207-1.62-.62-.413-.413-.7-.98-.86-1.7s-.173-1.533-.04-2.44l.14-.98c.214-1.427.714-2.54 1.5-3.34.787-.813 1.82-1.22 3.1-1.22.667 0 1.327.113 1.98.34.667.213 1.307.52 1.92.92l-1.08 6.14c-.066.4-.053.72.04.96.094.227.307.34.64.34h.28l-.28 1.5h-.34zm-6.2-4.66c-.146 1.053-.106 1.867.12 2.44.227.56.607.84 1.14.84.4 0 .867-.173 1.4-.52s1.107-.953 1.72-1.82l.78-4.44c-.72-.36-1.393-.54-2.02-.54-.866 0-1.553.287-2.06.86-.493.56-.806 1.293-.94 2.2l-.14.98zm17.917-5.34l-5.24 9.9h-1.52l-1.8-9.9h1.6l.82 4.82.46 3.06 1.54-3.06 2.46-4.82h1.68zm7.656 9.5c-.574.213-1.127.367-1.66.46a8.87 8.87 0 0 1-1.52.14c-1.067 0-1.907-.213-2.52-.64-.6-.44-1-1.033-1.2-1.78s-.227-1.587-.08-2.52l.18-1.02c.213-1.307.713-2.353 1.5-3.14.8-.8 1.806-1.2 3.02-1.2a4.39 4.39 0 0 1 1.68.32c.533.213.96.547 1.28 1s.48 1.033.48 1.74c0 .387-.06.8-.18 1.24-.107.427-.314.893-.62 1.4h-5.78c-.12.92-.014 1.673.32 2.26.333.573 1.02.86 2.06.86.373 0 .8-.04 1.28-.12.48-.093.98-.227 1.5-.4l.26 1.4zm-2.34-8.24c-.76 0-1.387.253-1.88.76-.494.493-.814 1.187-.96 2.08h4.48a2.23 2.23 0 0 0 .2-.64c.04-.2.06-.387.06-.56 0-.56-.18-.973-.54-1.24s-.814-.4-1.36-.4zm11.837.2c-.306 0-.673.053-1.1.16-.426.093-.886.293-1.38.6-.48.307-.973.773-1.48 1.4l-1.1 6.28h-1.64l1.76-9.9h1.54l-.32 1.86c.76-.84 1.48-1.393 2.16-1.66.694-.267 1.307-.4 1.84-.4l-.28 1.66zm7.944 8.04a9.41 9.41 0 0 1-1.66.46 8.86 8.86 0 0 1-1.52.14c-1.066 0-1.906-.213-2.52-.64-.6-.44-1-1.033-1.2-1.78s-.226-1.587-.08-2.52l.18-1.02c.214-1.307.714-2.353 1.5-3.14.8-.8 1.807-1.2 3.02-1.2a4.39 4.39 0 0 1 1.68.32 2.8 2.8 0 0 1 1.28 1c.32.453.48 1.033.48 1.74 0 .387-.06.8-.18 1.24-.106.427-.313.893-.62 1.4h-5.78c-.12.92-.013 1.673.32 2.26.334.573 1.02.86 2.06.86.374 0 .8-.04 1.28-.12.48-.093.98-.227 1.5-.4l.26 1.4zm-2.34-8.24c-.76 0-1.386.253-1.88.76-.493.493-.813 1.187-.96 2.08h4.48a2.17 2.17 0 0 0 .2-.64c.04-.2.06-.387.06-.56 0-.56-.18-.973-.54-1.24s-.813-.4-1.36-.4zm9.078-3.68h-1.84l.3-1.84h1.84l-.3 1.84zm-2.3 12.32h-1.64l1.76-9.9h1.64l-1.76 9.9zm14.011 0l.32-1.8c-.774.813-1.46 1.353-2.06 1.62-.587.253-1.12.38-1.6.38-.894 0-1.547-.327-1.96-.98-.4-.653-.507-1.507-.32-2.56l1.16-6.56h1.64l-1.12 6.4c-.134.733-.107 1.28.08 1.64.2.347.513.52.94.52.253 0 .54-.053.86-.16.32-.12.693-.34 1.12-.66s.92-.78 1.48-1.38l1.12-6.36h1.64l-1.74 9.9h-1.56zm11.412-8.56c-.254 0-.547.06-.88.18-.334.107-.72.32-1.16.64-.44.307-.947.767-1.52 1.38l-1.14 6.36h-1.64l1.759-9.9h1.541l-.3 1.82c.786-.827 1.486-1.367 2.1-1.62.626-.267 1.186-.4 1.68-.4.906 0 1.573.333 2 1 .44.653.566 1.507.38 2.56l-1.16 6.54h-1.64l1.12-6.4c.266-1.44-.114-2.16-1.14-2.16zm11.125 8.56l.3-1.76c-.626.733-1.226 1.247-1.8 1.54-.56.28-1.1.42-1.62.42-.666 0-1.213-.207-1.64-.62s-.72-.98-.88-1.7-.173-1.533-.04-2.44l.14-.98c.214-1.453.707-2.573 1.48-3.36.787-.8 1.84-1.2 3.16-1.2.44 0 .867.053 1.28.16s.82.253 1.22.44l.94-5.3h1.64l-2.62 14.8h-1.56zm-3.98-4.56c-.146 1.053-.106 1.867.12 2.44.227.56.627.84 1.2.84.427 0 .914-.187 1.46-.56s1.147-1.027 1.8-1.96l.74-4.22c-.733-.387-1.446-.58-2.14-.58-.893 0-1.586.273-2.08.82s-.813 1.293-.96 2.24l-.14.98zm19.469 4.56l.3-1.76c-.627.733-1.227 1.247-1.8 1.54-.56.28-1.1.42-1.62.42-.667 0-1.214-.207-1.64-.62s-.72-.98-.88-1.7-.174-1.533-.04-2.44l.14-.98c.213-1.453.706-2.573 1.48-3.36.786-.8 1.84-1.2 3.16-1.2a5.09 5.09 0 0 1 1.28.16 7.05 7.05 0 0 1 1.22.44l.94-5.3h1.64l-2.62 14.8h-1.56zm-3.98-4.56c-.147 1.053-.107 1.867.12 2.44.226.56.626.84 1.2.84.426 0 .913-.187 1.46-.56s1.146-1.027 1.8-1.96l.74-4.22c-.734-.387-1.447-.58-2.14-.58-.894 0-1.587.273-2.08.82s-.814 1.293-.96 2.24l-.14.98zm16.372 4.16a9.41 9.41 0 0 1-1.66.46 8.86 8.86 0 0 1-1.52.14c-1.066 0-1.906-.213-2.52-.64-.6-.44-1-1.033-1.2-1.78s-.226-1.587-.08-2.52l.18-1.02c.214-1.307.714-2.353 1.5-3.14.8-.8 1.807-1.2 3.02-1.2a4.39 4.39 0 0 1 1.68.32 2.8 2.8 0 0 1 1.28 1c.32.453.48 1.033.48 1.74 0 .387-.06.8-.18 1.24-.106.427-.313.893-.62 1.4h-5.78c-.12.92-.013 1.673.32 2.26.334.573 1.02.86 2.06.86.374 0 .8-.04 1.28-.12.48-.093.98-.227 1.5-.4l.26 1.4zm-2.34-8.24c-.76 0-1.386.253-1.88.76-.493.493-.813 1.187-.96 2.08h4.48a2.17 2.17 0 0 0 .2-.64c.04-.2.06-.387.06-.56 0-.56-.18-.973-.54-1.24s-.813-.4-1.36-.4zm7.798 7.38c.773 0 1.327-.133 1.66-.4a1.25 1.25 0 0 0 .52-1.04c0-.347-.107-.627-.32-.84s-.573-.413-1.08-.6l-.96-.38c-.68-.253-1.193-.593-1.54-1.02-.333-.427-.5-.967-.5-1.62 0-.533.113-1.02.34-1.46.24-.44.62-.793 1.14-1.06.52-.28 1.2-.42 2.04-.42 1.027 0 2.067.24 3.12.72l-.52 1.4c-.48-.227-.933-.387-1.36-.48-.427-.107-.853-.16-1.28-.16-.653 0-1.127.12-1.42.36-.28.24-.42.567-.42.98a1.17 1.17 0 0 0 .26.76c.187.213.5.407.94.58l.98.36c.733.267 1.287.613 1.66 1.04s.56.98.56 1.66c0 .52-.127 1.02-.38 1.5-.253.467-.667.847-1.24 1.14-.56.293-1.307.44-2.24.44-1.107 0-2.22-.247-3.34-.74l.52-1.38c.52.227 1.013.393 1.48.5s.927.16 1.38.16zm13.628-.1c.987 0 1.733-.213 2.24-.64.52-.427.78-1 .78-1.72 0-.933-.54-1.64-1.62-2.12l-1.44-.64c-.813-.36-1.413-.807-1.8-1.34-.387-.547-.58-1.227-.58-2.04 0-.72.153-1.373.46-1.96.307-.6.793-1.08 1.46-1.44s1.533-.54 2.6-.54c1.24 0 2.453.293 3.64.88l-.6 1.5c-.573-.267-1.1-.467-1.58-.6s-.967-.2-1.46-.2c-.893 0-1.573.207-2.04.62-.453.4-.68.947-.68 1.64 0 .453.12.833.36 1.14.253.293.667.573 1.24.84l1.42.64c.773.333 1.373.78 1.8 1.34.427.547.64 1.26.64 2.14 0 .707-.16 1.373-.48 2-.32.613-.833 1.113-1.54 1.5-.707.373-1.647.56-2.82.56a9.45 9.45 0 0 1-2-.22c-.667-.16-1.353-.407-2.06-.74l.6-1.5a10.68 10.68 0 0 0 1.82.7c.547.133 1.093.2 1.64.2zm12.977 1.36l-2-4.6-.94.78-1.02.78-.54 3.04h-1.64l2.62-14.8h1.64l-1.76 9.92 2.7-2.42a22.28 22.28 0 0 0 2.26-2.6h1.96l-1.88 2.26-2.06 2.08 2.56 5.56h-1.9zm4.436-2.5l2.16-12.3h1.64l-2.16 12.32c-.053.373-.046.647.02.82.08.173.307.26.68.26h.3l-.28 1.5h-.34c-.92 0-1.52-.24-1.8-.72-.28-.493-.353-1.12-.22-1.88zm13.094 2.6c-.654 0-1.14-.16-1.46-.48-.307-.333-.474-.747-.5-1.24-.627.68-1.227 1.153-1.8 1.42s-1.114.4-1.62.4c-.654 0-1.194-.207-1.62-.62-.414-.413-.7-.98-.86-1.7s-.174-1.533-.04-2.44l.14-.98c.213-1.427.713-2.54 1.5-3.34.786-.813 1.82-1.22 3.1-1.22a6 6 0 0 1 1.98.34 7.94 7.94 0 0 1 1.92.92l-1.08 6.14c-.067.4-.054.72.04.96.093.227.306.34.64.34h.28l-.28 1.5h-.34zm-6.2-4.66c-.147 1.053-.107 1.867.12 2.44.226.56.606.84 1.14.84.4 0 .866-.173 1.4-.52s1.106-.953 1.72-1.82l.78-4.44c-.72-.36-1.394-.54-2.02-.54-.867 0-1.554.287-2.06.86-.494.56-.807 1.293-.94 2.2l-.14.98zm17.916-5.34l-5.24 9.9h-1.52l-1.8-9.9h1.6l.82 4.82.46 3.06 1.54-3.06 2.46-4.82h1.68zm7.656 9.5a9.41 9.41 0 0 1-1.66.46 8.86 8.86 0 0 1-1.52.14c-1.066 0-1.906-.213-2.52-.64-.6-.44-1-1.033-1.2-1.78s-.226-1.587-.08-2.52l.18-1.02c.214-1.307.714-2.353 1.5-3.14.8-.8 1.807-1.2 3.02-1.2a4.39 4.39 0 0 1 1.68.32 2.8 2.8 0 0 1 1.28 1c.32.453.48 1.033.48 1.74 0 .387-.06.8-.18 1.24-.106.427-.313.893-.62 1.4h-5.78c-.12.92-.013 1.673.32 2.26.334.573 1.02.86 2.06.86.374 0 .8-.04 1.28-.12.48-.093.98-.227 1.5-.4l.26 1.4zm-2.34-8.24c-.76 0-1.386.253-1.88.76-.493.493-.813 1.187-.96 2.08h4.48a2.17 2.17 0 0 0 .2-.64c.04-.2.06-.387.06-.56 0-.56-.18-.973-.54-1.24s-.813-.4-1.36-.4zm11.478.08c-.253 0-.547.06-.88.18-.333.107-.72.32-1.16.64-.44.307-.947.767-1.52 1.38l-1.14 6.36h-1.64l1.76-9.9h1.54l-.3 1.82c.787-.827 1.487-1.367 2.1-1.62.627-.267 1.187-.4 1.68-.4.907 0 1.573.333 2 1 .44.653.567 1.507.38 2.56l-1.16 6.54h-1.64l1.12-6.4c.267-1.44-.113-2.16-1.14-2.16zm11.426 0c-.254 0-.554.06-.9.18-.334.107-.72.32-1.16.64s-.947.787-1.52 1.4l-1.12 6.34h-1.64l2.6-14.8h1.64l-1.16 6.62c.76-.787 1.44-1.3 2.04-1.54.613-.253 1.166-.38 1.66-.38.92 0 1.593.327 2.02.98s.546 1.513.36 2.58l-1.16 6.54h-1.64l1.12-6.4c.146-.72.113-1.26-.1-1.62-.2-.36-.547-.54-1.04-.54zm13.325 8.66c-.653 0-1.14-.16-1.46-.48-.306-.333-.473-.747-.5-1.24-.626.68-1.226 1.153-1.8 1.42s-1.113.4-1.62.4c-.653 0-1.193-.207-1.62-.62-.413-.413-.7-.98-.86-1.7s-.173-1.533-.04-2.44l.14-.98c.214-1.427.714-2.54 1.5-3.34.787-.813 1.82-1.22 3.1-1.22.667 0 1.327.113 1.98.34.667.213 1.307.52 1.92.92l-1.08 6.14c-.066.4-.053.72.04.96.094.227.307.34.64.34h.28l-.28 1.5h-.34zm-6.2-4.66c-.146 1.053-.106 1.867.12 2.44.227.56.607.84 1.14.84.4 0 .867-.173 1.4-.52s1.107-.953 1.72-1.82l.78-4.44c-.72-.36-1.393-.54-2.02-.54-.866 0-1.553.287-2.06.86-.493.56-.806 1.293-.94 2.2l-.14.98zm15.277-4c-.253 0-.547.06-.88.18-.333.107-.72.32-1.16.64-.44.307-.947.767-1.52 1.38l-1.14 6.36h-1.64l1.76-9.9h1.54l-.3 1.82c.787-.827 1.487-1.367 2.1-1.62.627-.267 1.187-.4 1.68-.4.907 0 1.573.333 2 1 .44.653.567 1.507.38 2.56l-1.16 6.54h-1.64l1.12-6.4c.267-1.44-.113-2.16-1.14-2.16zm11.126 8.56l.3-1.76c-.627.733-1.227 1.247-1.8 1.54-.56.28-1.1.42-1.62.42-.667 0-1.214-.207-1.64-.62s-.72-.98-.88-1.7-.174-1.533-.04-2.44l.14-.98c.213-1.453.706-2.573 1.48-3.36.786-.8 1.84-1.2 3.16-1.2a5.09 5.09 0 0 1 1.28.16 7.05 7.05 0 0 1 1.22.44l.94-5.3h1.64l-2.62 14.8h-1.56zm-3.98-4.56c-.147 1.053-.107 1.867.12 2.44.226.56.626.84 1.2.84.426 0 .913-.187 1.46-.56s1.146-1.027 1.8-1.96l.74-4.22c-.734-.387-1.447-.58-2.14-.58-.894 0-1.587.273-2.08.82s-.814 1.293-.96 2.24l-.14.98zm16.373 4.16c-.574.213-1.127.367-1.66.46a8.87 8.87 0 0 1-1.52.14c-1.067 0-1.907-.213-2.52-.64-.6-.44-1-1.033-1.2-1.78s-.227-1.587-.08-2.52l.18-1.02c.213-1.307.713-2.353 1.5-3.14.8-.8 1.806-1.2 3.02-1.2a4.39 4.39 0 0 1 1.68.32c.533.213.96.547 1.28 1s.48 1.033.48 1.74c0 .387-.06.8-.18 1.24-.107.427-.314.893-.62 1.4h-5.78c-.12.92-.014 1.673.32 2.26.333.573 1.02.86 2.06.86.373 0 .8-.04 1.28-.12.48-.093.98-.227 1.5-.4l.26 1.4zm-2.34-8.24c-.76 0-1.387.253-1.88.76-.494.493-.814 1.187-.96 2.08h4.48a2.23 2.23 0 0 0 .2-.64c.04-.2.06-.387.06-.56 0-.56-.18-.973-.54-1.24s-.814-.4-1.36-.4zm5.557 6.14l2.16-12.3h1.64l-2.16 12.32c-.053.373-.046.647.02.82.08.173.307.26.68.26h.3l-.28 1.5h-.34c-.92 0-1.52-.24-1.8-.72-.28-.493-.353-1.12-.22-1.88zm7.514 1.24c.773 0 1.326-.133 1.66-.4.346-.267.52-.613.52-1.04 0-.347-.107-.627-.32-.84s-.574-.413-1.08-.6l-.96-.38c-.68-.253-1.194-.593-1.54-1.02-.334-.427-.5-.967-.5-1.62 0-.533.113-1.02.34-1.46.24-.44.62-.793 1.14-1.06.52-.28 1.2-.42 2.04-.42 1.026 0 2.066.24 3.12.72l-.52 1.4c-.48-.227-.934-.387-1.36-.48a5.25 5.25 0 0 0-1.28-.16c-.654 0-1.127.12-1.42.36-.28.24-.42.567-.42.98 0 .293.086.547.26.76.186.213.5.407.94.58l.98.36c.733.267 1.286.613 1.66 1.04s.56.98.56 1.66c0 .52-.127 1.02-.38 1.5-.254.467-.667.847-1.24 1.14-.56.293-1.307.44-2.24.44-1.107 0-2.22-.247-3.34-.74l.52-1.38c.52.227 1.013.393 1.48.5a6.15 6.15 0 0 0 1.38.16zm8.638-6.32v-.48c0-.987-.18-2-.54-3.04a10.28 10.28 0 0 0-1.56-2.92l1.24-.98a10.9 10.9 0 0 1 1.88 3.4c.426 1.24.64 2.433.64 3.58v.54c0 1.84-.467 3.68-1.4 5.52-.934 1.827-2.354 3.5-4.26 5.02l-.92-1.26c1.546-1.307 2.753-2.727 3.62-4.26s1.3-3.24 1.3-5.12zM186.12 361v-13.6h1.82l3.34 5.24 2.88 5.48-.2-5.2v-5.52h1.7V361h-1.82l-2.9-5.68-3.24-5.42.12 5.54V361h-1.7zm15.189-12.32h-1.84v-1.84h1.84v1.84zm-.1 12.32h-1.64v-9.9h1.64v9.9zm10.715-.58a6.83 6.83 0 0 1-1.8.6c-.6.12-1.153.18-1.66.18-1.426 0-2.493-.407-3.2-1.22-.693-.813-1.04-1.927-1.04-3.34v-1.2c0-1.373.347-2.473 1.04-3.3.707-.827 1.7-1.24 2.98-1.24a4.1 4.1 0 0 1 1.86.42 3.05 3.05 0 0 1 1.36 1.24c.347.547.52 1.253.52 2.12 0 .56-.08 1.2-.24 1.92h-5.9v.04c0 1.013.207 1.78.62 2.3.427.52 1.107.78 2.04.78.427 0 .894-.053 1.4-.16.52-.107 1.027-.273 1.52-.5l.5 1.36zm-3.68-8.08c-.773 0-1.36.253-1.76.76-.386.493-.6 1.193-.64 2.1h4.48c.04-.24.06-.467.06-.68 0-.747-.213-1.293-.64-1.64-.413-.36-.913-.54-1.5-.54zm11.239.1c-.374 0-.794.1-1.26.3-.467.187-1.054.56-1.76 1.12V361h-1.64v-9.9h1.56v1.38c.706-.587 1.333-.993 1.88-1.22.546-.24 1.086-.36 1.62-.36.626 0 1.146.147 1.56.44.413.28.72.687.92 1.22.733-.627 1.386-1.06 1.96-1.3.586-.24 1.16-.36 1.72-.36.88 0 1.553.293 2.02.88.466.573.7 1.393.7 2.46V361h-1.64v-6.52c0-1.36-.494-2.04-1.48-2.04-.374 0-.8.1-1.281.3-.466.187-1.053.56-1.759 1.12.013.053.02.113.02.18v.2V361h-1.64v-6.52c0-1.36-.5-2.04-1.5-2.04zm19.962 8.66c-.613 0-1.106-.14-1.48-.42-.36-.28-.613-.627-.76-1.04-.653.573-1.246.98-1.78 1.22-.533.227-1.066.34-1.6.34-.866 0-1.506-.28-1.92-.84s-.62-1.247-.62-2.06c0-.547.1-1.033.3-1.46s.54-.76 1.02-1c.48-.253 1.127-.38 1.94-.38a9.62 9.62 0 0 1 1.18.08l1.3.16v-1.34c0-.747-.166-1.253-.5-1.52-.32-.28-.793-.42-1.42-.42-.853 0-1.806.233-2.86.7l-.52-1.36c.614-.28 1.2-.493 1.76-.64a6.67 6.67 0 0 1 1.7-.22c.934 0 1.647.153 2.14.46s.834.713 1.02 1.22a4.76 4.76 0 0 1 .28 1.66v4.28c0 .307.06.567.18.78.12.2.36.3.72.3h.22v1.5h-.3zm-6.54-2.82c0 .453.107.82.32 1.1s.52.42.92.42c.347 0 .747-.1 1.2-.3.454-.213 1.014-.633 1.68-1.26v-1.26c-.906-.147-1.706-.22-2.4-.22-.613 0-1.053.127-1.32.38s-.4.633-.4 1.14zm13.924-5.84c-.374 0-.814.093-1.32.28-.494.187-1.094.567-1.8 1.14V361h-1.64v-9.9h1.56v1.38c.706-.6 1.346-1.013 1.92-1.24.586-.227 1.146-.34 1.68-.34.92 0 1.62.293 2.1.88.493.573.74 1.393.74 2.46V361h-1.64v-6.52c0-1.36-.534-2.04-1.6-2.04zm12.685 8.56v-1.38c-.613.587-1.173 1-1.68 1.24a3.64 3.64 0 0 1-1.54.34c-1.053 0-1.866-.4-2.44-1.2-.56-.8-.84-1.92-.84-3.36v-1.16c0-1.4.347-2.513 1.04-3.34.707-.827 1.727-1.24 3.06-1.24.387 0 .774.04 1.16.12s.774.193 1.16.34v-5.16h1.64V361h-1.56zm-4.8-4.36c0 1.04.16 1.807.48 2.3.334.48.827.72 1.48.72.387 0 .787-.093 1.2-.28.414-.2.934-.607 1.56-1.22v-5.28c-.386-.173-.76-.293-1.12-.36-.36-.08-.713-.12-1.06-.12-.906 0-1.56.273-1.96.82-.386.547-.58 1.3-.58 2.26v1.16zm20.269 4.36v-1.38c-.613.587-1.173 1-1.68 1.24-.493.227-1.007.34-1.54.34-1.053 0-1.867-.4-2.44-1.2-.56-.8-.84-1.92-.84-3.36v-1.16c0-1.4.347-2.513 1.04-3.34.707-.827 1.727-1.24 3.06-1.24a5.71 5.71 0 0 1 1.16.12c.387.08.773.193 1.16.34v-5.16h1.64V361h-1.56zm-4.8-4.36c0 1.04.16 1.807.48 2.3.333.48.827.72 1.48.72.387 0 .787-.093 1.2-.28.413-.2.933-.607 1.56-1.22v-5.28a4.99 4.99 0 0 0-1.12-.36c-.36-.08-.713-.12-1.06-.12-.907 0-1.56.273-1.96.82-.387.547-.58 1.3-.58 2.26v1.16zm17.133 4.46c-.613 0-1.106-.14-1.48-.42-.36-.28-.613-.627-.76-1.04-.653.573-1.246.98-1.78 1.22-.533.227-1.066.34-1.6.34-.866 0-1.506-.28-1.92-.84s-.62-1.247-.62-2.06c0-.547.1-1.033.3-1.46s.54-.76 1.02-1c.48-.253 1.127-.38 1.94-.38a9.62 9.62 0 0 1 1.18.08l1.3.16v-1.34c0-.747-.166-1.253-.5-1.52-.32-.28-.793-.42-1.42-.42-.853 0-1.806.233-2.86.7l-.52-1.36c.614-.28 1.2-.493 1.76-.64a6.67 6.67 0 0 1 1.7-.22c.934 0 1.647.153 2.14.46s.834.713 1.02 1.22a4.76 4.76 0 0 1 .28 1.66v4.28c0 .307.06.567.18.78.12.2.36.3.72.3h.22v1.5h-.3zm-6.54-2.82c0 .453.107.82.32 1.1s.52.42.92.42c.347 0 .747-.1 1.2-.3.454-.213 1.014-.633 1.68-1.26v-1.26c-.906-.147-1.706-.22-2.4-.22-.613 0-1.053.127-1.32.38s-.4.633-.4 1.14zm14.364-5.74c-.6 0-1.187.107-1.76.32-.56.213-1.16.62-1.8 1.22V361h-1.64v-9.9h1.56v1.6c.68-.667 1.3-1.133 1.86-1.4.573-.267 1.166-.4 1.78-.4v1.64zm7.343 0h-3.24V361h-1.64v-8.46h-1.72v-1.44h1.72v-1.64c0-.613.1-1.18.3-1.7a2.77 2.77 0 0 1 1.02-1.28c.467-.32 1.087-.48 1.86-.48.387 0 .794.047 1.22.14.44.08.847.207 1.22.38l-.46 1.38c-.68-.267-1.273-.4-1.78-.4-.56 0-.993.153-1.3.46-.293.307-.44.8-.44 1.48v1.66h3.24v1.44zm7.888-3.86h-1.84v-1.84h1.84v1.84zm-.1 12.32h-1.64v-9.9h1.64v9.9zm8.296-8.56c-.373 0-.813.093-1.32.28-.493.187-1.093.567-1.8 1.14V361h-1.64v-9.9h1.56v1.38c.707-.6 1.347-1.013 1.92-1.24.587-.227 1.147-.34 1.68-.34.92 0 1.62.293 2.1.88.493.573.74 1.393.74 2.46V361h-1.64v-6.52c0-1.36-.533-2.04-1.6-2.04zm14.161 7.2c.84 0 1.487-.18 1.94-.54.453-.373.68-.913.68-1.62 0-.587-.16-1.08-.48-1.48-.307-.4-.813-.707-1.52-.92l-1.62-.48c-1.013-.307-1.76-.767-2.24-1.38-.48-.627-.72-1.393-.72-2.3 0-.693.133-1.32.4-1.88.28-.56.72-1.007 1.32-1.34.613-.333 1.413-.5 2.4-.5a8.3 8.3 0 0 1 1.86.22c.64.133 1.287.353 1.94.66l-.56 1.5c-.64-.28-1.22-.48-1.74-.6-.507-.133-.993-.2-1.46-.2-.76 0-1.353.16-1.78.48-.413.307-.62.82-.62 1.54 0 .52.14.96.42 1.32.28.347.78.633 1.5.86l1.62.48c2.027.6 3.04 1.893 3.04 3.88 0 1.147-.347 2.08-1.04 2.8-.693.707-1.807 1.06-3.34 1.06-.627 0-1.293-.073-2-.22-.693-.16-1.413-.407-2.16-.74l.54-1.48c.707.32 1.34.547 1.9.68a7.59 7.59 0 0 0 1.72.2zm13.077 1.36l-2.78-4.58-.8.78-.88.8v3h-1.64v-14.8h1.64v9.96l2.3-2.46a19.5 19.5 0 0 0 1.86-2.6h1.88l-1.48 2.22a26.78 26.78 0 0 1-1.68 2.04l3.56 5.64h-1.98zm4.037-2.4v-12.4h1.64v12.32c0 .36.053.633.16.82.12.173.353.26.7.26h.32v1.5h-.46c-.88 0-1.494-.233-1.84-.7s-.52-1.067-.52-1.8zm12.533 2.5c-.613 0-1.107-.14-1.48-.42-.36-.28-.613-.627-.76-1.04-.653.573-1.247.98-1.78 1.22-.533.227-1.067.34-1.6.34-.867 0-1.507-.28-1.92-.84s-.62-1.247-.62-2.06c0-.547.1-1.033.3-1.46s.54-.76 1.02-1c.48-.253 1.127-.38 1.94-.38.36 0 .753.027 1.18.08l1.3.16v-1.34c0-.747-.167-1.253-.5-1.52-.32-.28-.793-.42-1.42-.42-.853 0-1.807.233-2.86.7l-.52-1.36c.613-.28 1.2-.493 1.76-.64a6.67 6.67 0 0 1 1.7-.22c.933 0 1.647.153 2.14.46s.833.713 1.02 1.22a4.76 4.76 0 0 1 .28 1.66v4.28c0 .307.06.567.18.78.12.2.36.3.72.3h.22v1.5h-.3zm-6.54-2.82c0 .453.107.82.32 1.1s.52.42.92.42c.347 0 .747-.1 1.2-.3.453-.213 1.013-.633 1.68-1.26v-1.26c-.907-.147-1.707-.22-2.4-.22-.613 0-1.053.127-1.32.38s-.4.633-.4 1.14zm16.169-7.18l-3.5 9.9h-1.54l-3.54-9.9h1.7l1.66 4.82 1 3.02.98-3.02 1.62-4.82h1.62zm9.178 9.32a6.83 6.83 0 0 1-1.8.6c-.6.12-1.153.18-1.66.18-1.426 0-2.493-.407-3.2-1.22-.693-.813-1.04-1.927-1.04-3.34v-1.2c0-1.373.347-2.473 1.04-3.3.707-.827 1.7-1.24 2.98-1.24a4.1 4.1 0 0 1 1.86.42 3.05 3.05 0 0 1 1.36 1.24c.347.547.52 1.253.52 2.12 0 .56-.08 1.2-.24 1.92h-5.9v.04c0 1.013.207 1.78.62 2.3.427.52 1.107.78 2.04.78.427 0 .894-.053 1.4-.16.52-.107 1.027-.273 1.52-.5l.5 1.36zm-3.68-8.08c-.773 0-1.36.253-1.76.76-.386.493-.6 1.193-.64 2.1h4.48c.04-.24.06-.467.06-.68 0-.747-.213-1.293-.64-1.64-.413-.36-.913-.54-1.5-.54zm11.778.2a5.02 5.02 0 0 0-1.76.32c-.56.213-1.16.62-1.8 1.22V361h-1.64v-9.9h1.56v1.6c.68-.667 1.3-1.133 1.86-1.4.574-.267 1.167-.4 1.78-.4v1.64zm9.324 7.88a6.83 6.83 0 0 1-1.8.6c-.6.12-1.153.18-1.66.18-1.427 0-2.493-.407-3.2-1.22-.693-.813-1.04-1.927-1.04-3.34v-1.2c0-1.373.347-2.473 1.04-3.3.707-.827 1.7-1.24 2.98-1.24a4.1 4.1 0 0 1 1.86.42c.573.267 1.027.68 1.36 1.24.347.547.52 1.253.52 2.12 0 .56-.08 1.2-.24 1.92h-5.9v.04c0 1.013.207 1.78.62 2.3.427.52 1.107.78 2.04.78a6.81 6.81 0 0 0 1.4-.16c.52-.107 1.027-.273 1.52-.5l.5 1.36zm-3.68-8.08c-.773 0-1.36.253-1.76.76-.387.493-.6 1.193-.64 2.1h4.48c.04-.24.06-.467.06-.68 0-.747-.213-1.293-.64-1.64-.413-.36-.913-.54-1.5-.54zm8.318-3.66h-1.84v-1.84h1.84v1.84zm-.1 12.32h-1.64v-9.9h1.64v9.9zm15.731-5.56v1.2c0 1.413-.366 2.527-1.1 3.34-.72.813-1.753 1.22-3.1 1.22-1.333 0-2.366-.407-3.1-1.22s-1.1-1.927-1.1-3.34v-1.2c0-1.387.36-2.487 1.08-3.3.734-.827 1.774-1.24 3.12-1.24s2.38.413 3.1 1.24c.734.813 1.1 1.913 1.1 3.3zm-1.7 0c0-.947-.213-1.687-.64-2.22-.426-.547-1.046-.82-1.86-.82-.8 0-1.42.273-1.86.82-.426.533-.64 1.273-.64 2.22v1.2c0 .987.214 1.747.64 2.28.44.533 1.06.8 1.86.8.814 0 1.434-.267 1.86-.8s.64-1.293.64-2.28v-1.2zm10.701 5.56v-1.38c-.614.587-1.174 1-1.68 1.24-.494.227-1.007.34-1.54.34-1.054 0-1.867-.4-2.44-1.2-.56-.8-.84-1.92-.84-3.36v-1.16c0-1.4.346-2.513 1.04-3.34.706-.827 1.726-1.24 3.06-1.24a5.72 5.72 0 0 1 1.16.12 7.62 7.62 0 0 1 1.16.34v-5.16h1.64V361h-1.56zm-4.8-4.36c0 1.04.16 1.807.48 2.3.333.48.826.72 1.48.72.386 0 .786-.093 1.2-.28.413-.2.933-.607 1.56-1.22v-5.28a4.99 4.99 0 0 0-1.12-.36 4.88 4.88 0 0 0-1.06-.12c-.907 0-1.56.273-1.96.82-.387.547-.58 1.3-.58 2.26v1.16zm17.073 3.78a6.83 6.83 0 0 1-1.8.6c-.6.12-1.153.18-1.66.18-1.427 0-2.493-.407-3.2-1.22-.693-.813-1.04-1.927-1.04-3.34v-1.2c0-1.373.347-2.473 1.04-3.3.707-.827 1.7-1.24 2.98-1.24a4.1 4.1 0 0 1 1.86.42c.573.267 1.027.68 1.36 1.24.347.547.52 1.253.52 2.12 0 .56-.08 1.2-.24 1.92h-5.9v.04c0 1.013.207 1.78.62 2.3.427.52 1.107.78 2.04.78a6.81 6.81 0 0 0 1.4-.16c.52-.107 1.027-.273 1.52-.5l.5 1.36zm-3.68-8.08c-.773 0-1.36.253-1.76.76-.387.493-.6 1.193-.64 2.1h4.48c.04-.24.06-.467.06-.68 0-.747-.213-1.293-.64-1.64-.413-.36-.913-.54-1.5-.54zm11.778.2c-.6 0-1.187.107-1.76.32-.56.213-1.16.62-1.8 1.22V361h-1.64v-9.9h1.56v1.6c.68-.667 1.3-1.133 1.86-1.4a4.17 4.17 0 0 1 1.78-.4v1.64zm14.299 6.84V361h-7.44v-13.6h1.74v11.98h5.7zm9.302 1.04a6.83 6.83 0 0 1-1.8.6c-.6.12-1.153.18-1.66.18-1.426 0-2.493-.407-3.2-1.22-.693-.813-1.04-1.927-1.04-3.34v-1.2c0-1.373.347-2.473 1.04-3.3.707-.827 1.7-1.24 2.98-1.24a4.1 4.1 0 0 1 1.86.42 3.05 3.05 0 0 1 1.36 1.24c.347.547.52 1.253.52 2.12 0 .56-.08 1.2-.24 1.92h-5.9v.04c0 1.013.207 1.78.62 2.3.427.52 1.107.78 2.04.78.427 0 .894-.053 1.4-.16.52-.107 1.027-.273 1.52-.5l.5 1.36zm-3.68-8.08c-.773 0-1.36.253-1.76.76-.386.493-.6 1.193-.64 2.1h4.48c.04-.24.06-.467.06-.68 0-.747-.213-1.293-.64-1.64-.413-.36-.913-.54-1.5-.54zm8.318-3.66h-1.84v-1.84h1.84v1.84zm-.1 12.32h-1.64v-9.9h1.64v9.9zm11.536-4.36c0 1.387-.347 2.493-1.04 3.32s-1.713 1.24-3.06 1.24c-1.333 0-2.653-.353-3.96-1.06V346.2h1.64v6.24c.6-.56 1.147-.953 1.64-1.18.507-.24 1.02-.36 1.54-.36 1.04 0 1.84.4 2.4 1.2s.84 1.927.84 3.38v1.16zm-3.64-4.2c-.373 0-.773.1-1.2.3-.413.2-.94.613-1.58 1.24v5.24c.787.333 1.527.5 2.22.5.893 0 1.533-.273 1.92-.82.387-.56.58-1.313.58-2.26v-1.16c0-1.04-.16-1.807-.48-2.3s-.807-.74-1.46-.74zm13.855 7.98a6.83 6.83 0 0 1-1.8.6c-.6.12-1.153.18-1.66.18-1.426 0-2.493-.407-3.2-1.22-.693-.813-1.04-1.927-1.04-3.34v-1.2c0-1.373.347-2.473 1.04-3.3.707-.827 1.7-1.24 2.98-1.24a4.1 4.1 0 0 1 1.86.42 3.05 3.05 0 0 1 1.36 1.24c.347.547.52 1.253.52 2.12 0 .56-.08 1.2-.24 1.92h-5.9v.04c0 1.013.207 1.78.62 2.3.427.52 1.107.78 2.04.78.427 0 .894-.053 1.4-.16.52-.107 1.027-.273 1.52-.5l.5 1.36zm-3.68-8.08c-.773 0-1.36.253-1.76.76-.386.493-.6 1.193-.64 2.1h4.48c.04-.24.06-.467.06-.68 0-.747-.213-1.293-.64-1.64-.413-.36-.913-.54-1.5-.54zm8.318-3.66h-1.84v-1.84h1.84v1.84zm-.1 12.32h-1.64v-9.9h1.64v9.9zm11.456 1.24c0 .973-.4 1.753-1.2 2.34-.786.587-1.873.88-3.26.88-.693 0-1.42-.093-2.18-.28-.746-.187-1.453-.487-2.12-.9l.56-1.28c.667.373 1.307.633 1.92.78.627.16 1.234.24 1.82.24.907 0 1.607-.147 2.1-.44s.74-.687.74-1.18c0-.36-.12-.64-.36-.84-.24-.187-.626-.28-1.16-.28h-2.3c-.866 0-1.493-.207-1.88-.62s-.58-.867-.58-1.36a2.33 2.33 0 0 1 .24-1.02c.16-.347.387-.687.68-1.02a3.17 3.17 0 0 1-1.12-1.14c-.28-.493-.42-1.087-.42-1.78 0-.76.16-1.393.48-1.9.334-.507.774-.887 1.32-1.14.547-.267 1.16-.4 1.84-.4h.34a3.91 3.91 0 0 1 1.28.2h3.56v1.46l-2.16-.3c.28.24.507.54.68.9.174.347.26.773.26 1.28 0 .72-.166 1.327-.5 1.82-.32.493-.753.873-1.3 1.14-.546.253-1.153.38-1.82.38h-.34a6.18 6.18 0 0 1-.5-.02l-.48-.08c-.386.427-.58.847-.58 1.26 0 .533.374.8 1.12.8h2.24c.96 0 1.714.213 2.26.64s.82 1.047.82 1.86zm-4.54-5.88c.52 0 .98-.167 1.38-.5s.6-.84.6-1.52c0-.667-.2-1.167-.6-1.5-.4-.347-.86-.52-1.38-.52h-.34a2.07 2.07 0 0 0-1.4.52c-.4.333-.6.833-.6 1.5 0 .68.2 1.187.6 1.52s.867.5 1.4.5h.34zm14.191 4.06a6.83 6.83 0 0 1-1.8.6c-.6.12-1.153.18-1.66.18-1.427 0-2.493-.407-3.2-1.22-.693-.813-1.04-1.927-1.04-3.34v-1.2c0-1.373.347-2.473 1.04-3.3.707-.827 1.7-1.24 2.98-1.24a4.1 4.1 0 0 1 1.86.42c.573.267 1.027.68 1.36 1.24.347.547.52 1.253.52 2.12 0 .56-.08 1.2-.24 1.92h-5.9v.04c0 1.013.207 1.78.62 2.3.427.52 1.107.78 2.04.78a6.81 6.81 0 0 0 1.4-.16c.52-.107 1.027-.273 1.52-.5l.5 1.36zm-3.68-8.08c-.773 0-1.36.253-1.76.76-.387.493-.6 1.193-.64 2.1h4.48c.04-.24.06-.467.06-.68 0-.747-.213-1.293-.64-1.64-.413-.36-.913-.54-1.5-.54zm11.338.1c-.373 0-.813.093-1.32.28-.493.187-1.093.567-1.8 1.14V361h-1.64v-9.9h1.56v1.38c.707-.6 1.347-1.013 1.92-1.24.587-.227 1.147-.34 1.68-.34.92 0 1.62.293 2.1.88.493.573.74 1.393.74 2.46V361h-1.64v-6.52c0-1.36-.533-2.04-1.6-2.04zm9.086 7.3c1.333 0 2-.453 2-1.36 0-.387-.12-.693-.36-.92s-.68-.42-1.32-.58l-1.1-.28c-.814-.2-1.42-.547-1.82-1.04-.4-.507-.6-1.107-.6-1.8 0-.507.113-.973.34-1.4.226-.44.586-.793 1.08-1.06s1.133-.4 1.92-.4c.506 0 1.02.06 1.54.18a6.7 6.7 0 0 1 1.62.56l-.52 1.38c-.974-.44-1.854-.66-2.64-.66-1.16 0-1.74.433-1.74 1.3 0 .333.106.62.32.86s.613.433 1.2.58l1.1.28c.88.213 1.526.56 1.94 1.04s.62 1.1.62 1.86c0 .547-.12 1.047-.36 1.5-.227.44-.6.787-1.12 1.04-.507.253-1.194.38-2.06.38a8.37 8.37 0 0 1-1.72-.18c-.56-.12-1.14-.313-1.74-.58l.44-1.36c.573.227 1.093.393 1.56.5a6.33 6.33 0 0 0 1.42.16zm7.353-4.28v1.18c0 1.013.187 1.78.56 2.3.373.507.967.76 1.78.76.8 0 1.66-.207 2.58-.62l.5 1.38c-1.093.493-2.153.74-3.18.74-1.28 0-2.253-.407-2.92-1.22s-1-1.927-1-3.34v-1.18c0-1.413.333-2.527 1-3.34s1.64-1.22 2.92-1.22a5.82 5.82 0 0 1 1.48.2c.52.12 1.04.293 1.56.52l-.5 1.4c-.44-.187-.867-.333-1.28-.44-.4-.107-.787-.16-1.16-.16-.813 0-1.407.26-1.78.78-.373.507-.56 1.26-.56 2.26zm12.584-3.02c-.373 0-.813.093-1.32.28-.493.187-1.093.567-1.8 1.14V361h-1.64v-14.8h1.64v6.22c.694-.587 1.32-.987 1.88-1.2s1.107-.32 1.64-.32c.92 0 1.62.293 2.1.88.494.573.74 1.393.74 2.46V361h-1.64v-6.52c0-1.36-.533-2.04-1.6-2.04zm13.906 8.66c-.613 0-1.106-.14-1.48-.42-.36-.28-.613-.627-.76-1.04-.653.573-1.246.98-1.78 1.22-.533.227-1.066.34-1.6.34-.866 0-1.506-.28-1.92-.84s-.62-1.247-.62-2.06c0-.547.1-1.033.3-1.46s.54-.76 1.02-1c.48-.253 1.127-.38 1.94-.38a9.62 9.62 0 0 1 1.18.08l1.3.16v-1.34c0-.747-.166-1.253-.5-1.52-.32-.28-.793-.42-1.42-.42-.853 0-1.806.233-2.86.7l-.52-1.36c.614-.28 1.2-.493 1.76-.64a6.67 6.67 0 0 1 1.7-.22c.934 0 1.647.153 2.14.46s.834.713 1.02 1.22a4.76 4.76 0 0 1 .28 1.66v4.28c0 .307.06.567.18.78.12.2.36.3.72.3h.22v1.5h-.3zm-6.54-2.82c0 .453.107.82.32 1.1s.52.42.92.42c.347 0 .747-.1 1.2-.3.454-.213 1.014-.633 1.68-1.26v-1.26c-.906-.147-1.706-.22-2.4-.22-.613 0-1.053.127-1.32.38s-.4.633-.4 1.14zm15.723-.26v-5.48h-4.6V361h-1.64v-8.46h-1.72v-1.44h1.72v-1.44a4.43 4.43 0 0 1 .36-1.8c.24-.56.64-1.007 1.2-1.34.56-.347 1.314-.52 2.26-.52.587 0 1.227.073 1.92.22s1.407.387 2.14.72v4.16h3.24v1.44h-3.24v5.42c0 .667.107 1.127.32 1.38.227.24.574.36 1.04.36.24 0 .494-.033.76-.1a4.47 4.47 0 0 0 .94-.36l.48 1.36a5.28 5.28 0 0 1-2.46.6c-.693 0-1.24-.14-1.64-.42a2.2 2.2 0 0 1-.84-1.14c-.16-.493-.24-1.033-.24-1.62zm-4.6-8.38v1.46h4.6v-3.22c-.893-.253-1.686-.38-2.38-.38-.733 0-1.286.167-1.66.5s-.56.88-.56 1.64zm-385.27 44.6c0 .973-.4 1.753-1.2 2.34-.787.587-1.873.88-3.26.88-.693 0-1.42-.093-2.18-.28-.747-.187-1.453-.487-2.12-.9l.56-1.28c.667.373 1.307.633 1.92.78.627.16 1.233.24 1.82.24.907 0 1.607-.147 2.1-.44s.74-.687.74-1.18c0-.36-.12-.64-.36-.84-.24-.187-.627-.28-1.16-.28h-2.3c-.867 0-1.493-.207-1.88-.62s-.58-.867-.58-1.36a2.33 2.33 0 0 1 .24-1.02c.16-.347.387-.687.68-1.02-.467-.28-.84-.66-1.12-1.14-.28-.493-.42-1.087-.42-1.78 0-.76.16-1.393.48-1.9.333-.507.773-.887 1.32-1.14.547-.267 1.16-.4 1.84-.4h.34c.467 0 .893.067 1.28.2h3.56v1.46l-2.16-.3c.28.24.507.54.68.9.173.347.26.773.26 1.28 0 .72-.167 1.327-.5 1.82-.32.493-.753.873-1.3 1.14-.547.253-1.153.38-1.82.38h-.34a6.18 6.18 0 0 1-.5-.02l-.48-.08c-.387.427-.58.847-.58 1.26 0 .533.373.8 1.12.8h2.24c.96 0 1.713.213 2.26.64s.82 1.047.82 1.86zm-4.54-5.88c.52 0 .98-.167 1.38-.5s.6-.84.6-1.52c0-.667-.2-1.167-.6-1.5-.4-.347-.86-.52-1.38-.52h-.34a2.07 2.07 0 0 0-1.4.52c-.4.333-.6.833-.6 1.5 0 .68.2 1.187.6 1.52s.867.5 1.4.5h.34zm14.191 4.06a6.83 6.83 0 0 1-1.8.6c-.6.12-1.154.18-1.66.18-1.427 0-2.494-.407-3.2-1.22-.694-.813-1.04-1.927-1.04-3.34v-1.2c0-1.373.346-2.473 1.04-3.3.706-.827 1.7-1.24 2.98-1.24a4.1 4.1 0 0 1 1.86.42 3.06 3.06 0 0 1 1.36 1.24c.346.547.52 1.253.52 2.12 0 .56-.08 1.2-.24 1.92h-5.9v.04c0 1.013.206 1.78.62 2.3.426.52 1.106.78 2.04.78.426 0 .893-.053 1.4-.16a7.01 7.01 0 0 0 1.52-.5l.5 1.36zm-3.68-8.08c-.774 0-1.36.253-1.76.76-.387.493-.6 1.193-.64 2.1h4.48c.04-.24.06-.467.06-.68 0-.747-.214-1.293-.64-1.64-.414-.36-.914-.54-1.5-.54zm11.338.1c-.374 0-.814.093-1.32.28-.494.187-1.094.567-1.8 1.14V393h-1.64v-14.8h1.64v6.22c.693-.587 1.32-.987 1.88-1.2s1.106-.32 1.64-.32c.92 0 1.62.293 2.1.88.493.573.74 1.393.74 2.46V393h-1.64v-6.52c0-1.36-.534-2.04-1.6-2.04zm13.906 8.66c-.614 0-1.107-.14-1.48-.42-.36-.28-.614-.627-.76-1.04-.654.573-1.247.98-1.78 1.22a4.06 4.06 0 0 1-1.6.34c-.867 0-1.507-.28-1.92-.84s-.62-1.247-.62-2.06c0-.547.1-1.033.3-1.46s.54-.76 1.02-1c.48-.253 1.126-.38 1.94-.38.36 0 .753.027 1.18.08l1.3.16v-1.34c0-.747-.167-1.253-.5-1.52-.32-.28-.794-.42-1.42-.42-.854 0-1.807.233-2.86.7l-.52-1.36c.613-.28 1.2-.493 1.76-.64s1.126-.22 1.7-.22c.933 0 1.646.153 2.14.46s.833.713 1.02 1.22.28 1.06.28 1.66v4.28c0 .307.06.567.18.78.12.2.36.3.72.3h.22v1.5h-.3zm-6.54-2.82c0 .453.106.82.32 1.1s.52.42.92.42c.346 0 .746-.1 1.2-.3.453-.213 1.013-.633 1.68-1.26v-1.26c-.907-.147-1.707-.22-2.4-.22-.614 0-1.054.127-1.32.38s-.4.633-.4 1.14zm9.143.32v-12.4h1.64v12.32c0 .36.053.633.16.82.12.173.353.26.7.26h.32v1.5h-.46c-.88 0-1.494-.233-1.84-.7s-.52-1.067-.52-1.8zm10.733 2.04c-.746.373-1.54.56-2.38.56-.72 0-1.286-.147-1.7-.44a2.42 2.42 0 0 1-.86-1.18c-.16-.493-.24-1.04-.24-1.64v-5.4h-1.72v-1.44h1.72v-2.76h1.64v2.76h3.24v1.44h-3.24v5.34c0 .693.114 1.173.34 1.44.24.253.607.38 1.1.38a3.61 3.61 0 0 0 .74-.08 4.57 4.57 0 0 0 .86-.32l.5 1.34zm9.338-.22a6.83 6.83 0 0 1-1.8.6c-.6.12-1.153.18-1.66.18-1.427 0-2.493-.407-3.2-1.22-.693-.813-1.04-1.927-1.04-3.34v-1.2c0-1.373.347-2.473 1.04-3.3.707-.827 1.7-1.24 2.98-1.24a4.1 4.1 0 0 1 1.86.42c.573.267 1.027.68 1.36 1.24.347.547.52 1.253.52 2.12 0 .56-.08 1.2-.24 1.92h-5.9v.04c0 1.013.207 1.78.62 2.3.427.52 1.107.78 2.04.78a6.81 6.81 0 0 0 1.4-.16c.52-.107 1.027-.273 1.52-.5l.5 1.36zm-3.68-8.08c-.773 0-1.36.253-1.76.76-.387.493-.6 1.193-.64 2.1h4.48c.04-.24.06-.467.06-.68 0-.747-.213-1.293-.64-1.64-.413-.36-.913-.54-1.5-.54zm11.338.1c-.373 0-.813.093-1.32.28-.493.187-1.093.567-1.8 1.14V393h-1.64v-9.9h1.56v1.38c.707-.6 1.347-1.013 1.92-1.24.587-.227 1.147-.34 1.68-.34.92 0 1.62.293 2.1.88.493.573.74 1.393.74 2.46V393h-1.64v-6.52c0-1.36-.533-2.04-1.6-2.04zm22.961-1.34l-2.54 9.9h-1.9l-2.08-8.12-2.14 8.12h-1.9l-2.52-9.9h1.68l1 4.14.9 4.1 2.14-8.24h1.74l2.14 8.28.88-4.12.98-4.16h1.62zm9.479 9.32a6.83 6.83 0 0 1-1.8.6c-.6.12-1.154.18-1.66.18-1.427 0-2.494-.407-3.2-1.22-.694-.813-1.04-1.927-1.04-3.34v-1.2c0-1.373.346-2.473 1.04-3.3.706-.827 1.7-1.24 2.98-1.24a4.1 4.1 0 0 1 1.86.42 3.06 3.06 0 0 1 1.36 1.24c.346.547.52 1.253.52 2.12 0 .56-.08 1.2-.24 1.92h-5.9v.04c0 1.013.206 1.78.62 2.3.426.52 1.106.78 2.04.78.426 0 .893-.053 1.4-.16a7.01 7.01 0 0 0 1.52-.5l.5 1.36zm-3.68-8.08c-.774 0-1.36.253-1.76.76-.387.493-.6 1.193-.64 2.1h4.48c.04-.24.06-.467.06-.68 0-.747-.214-1.293-.64-1.64-.414-.36-.914-.54-1.5-.54zm11.778.2c-.6 0-1.187.107-1.76.32-.56.213-1.16.62-1.8 1.22V393h-1.64v-9.9h1.56v1.6c.68-.667 1.3-1.133 1.86-1.4.573-.267 1.166-.4 1.78-.4v1.64zm8.163 8.46v-1.38c-.613.587-1.173 1-1.68 1.24a3.64 3.64 0 0 1-1.54.34c-1.053 0-1.866-.4-2.44-1.2-.56-.8-.84-1.92-.84-3.36v-1.16c0-1.4.347-2.513 1.04-3.34.707-.827 1.727-1.24 3.06-1.24.387 0 .774.04 1.16.12s.774.193 1.16.34v-5.16h1.64V393h-1.56zm-4.8-4.36c0 1.04.16 1.807.48 2.3.334.48.827.72 1.48.72.387 0 .787-.093 1.2-.28.414-.2.934-.607 1.56-1.22v-5.28c-.386-.173-.76-.293-1.12-.36-.36-.08-.713-.12-1.06-.12-.906 0-1.56.273-1.96.82-.386.547-.58 1.3-.58 2.26v1.16zm17.074 3.78a6.83 6.83 0 0 1-1.8.6c-.6.12-1.154.18-1.66.18-1.427 0-2.494-.407-3.2-1.22-.694-.813-1.04-1.927-1.04-3.34v-1.2c0-1.373.346-2.473 1.04-3.3.706-.827 1.7-1.24 2.98-1.24a4.1 4.1 0 0 1 1.86.42 3.06 3.06 0 0 1 1.36 1.24c.346.547.52 1.253.52 2.12 0 .56-.08 1.2-.24 1.92h-5.9v.04c0 1.013.206 1.78.62 2.3.426.52 1.106.78 2.04.78.426 0 .893-.053 1.4-.16a7.01 7.01 0 0 0 1.52-.5l.5 1.36zm-3.68-8.08c-.774 0-1.36.253-1.76.76-.387.493-.6 1.193-.64 2.1h4.48c.04-.24.06-.467.06-.68 0-.747-.214-1.293-.64-1.64-.414-.36-.914-.54-1.5-.54zm11.338.1c-.373 0-.813.093-1.32.28-.493.187-1.093.567-1.8 1.14V393h-1.64v-9.9h1.56v1.38c.707-.6 1.347-1.013 1.92-1.24.587-.227 1.147-.34 1.68-.34.92 0 1.62.293 2.1.88.493.573.74 1.393.74 2.46V393h-1.64v-6.52c0-1.36-.533-2.04-1.6-2.04zm7.746.5h-1.84v-1.84h1.84v1.84zm-.1 6.24v.38c0 .973-.12 1.9-.36 2.78-.24.893-.674 1.833-1.3 2.82l-1.08-.6c.333-.64.573-1.227.72-1.76.16-.52.26-1.067.3-1.64.053-.56.08-1.22.08-1.98h1.64zm10.363.46c.84 0 1.486-.18 1.94-.54.453-.373.68-.913.68-1.62 0-.587-.16-1.08-.48-1.48-.307-.4-.814-.707-1.52-.92l-1.62-.48c-1.014-.307-1.76-.767-2.24-1.38-.48-.627-.72-1.393-.72-2.3 0-.693.133-1.32.4-1.88.28-.56.72-1.007 1.32-1.34.613-.333 1.413-.5 2.4-.5a8.3 8.3 0 0 1 1.86.22 8.76 8.76 0 0 1 1.94.66l-.56 1.5c-.64-.28-1.22-.48-1.74-.6-.507-.133-.994-.2-1.46-.2-.76 0-1.354.16-1.78.48-.414.307-.62.82-.62 1.54 0 .52.14.96.42 1.32.28.347.78.633 1.5.86l1.62.48c2.026.6 3.04 1.893 3.04 3.88 0 1.147-.347 2.08-1.04 2.8-.694.707-1.807 1.06-3.34 1.06a9.83 9.83 0 0 1-2-.22 11.85 11.85 0 0 1-2.16-.74l.54-1.48c.706.32 1.34.547 1.9.68.573.133 1.146.2 1.72.2zm13.077 1.36l-2.78-4.58-.8.78-.88.8v3h-1.64v-14.8h1.64v9.96l2.3-2.46a19.5 19.5 0 0 0 1.86-2.6h1.88l-1.48 2.22a26.78 26.78 0 0 1-1.68 2.04l3.56 5.64h-1.98zm4.036-2.4v-12.4h1.64v12.32c0 .36.054.633.16.82.12.173.354.26.7.26h.32v1.5h-.46c-.88 0-1.493-.233-1.84-.7s-.52-1.067-.52-1.8zm12.534 2.5c-.614 0-1.107-.14-1.48-.42-.36-.28-.614-.627-.76-1.04-.654.573-1.247.98-1.78 1.22a4.06 4.06 0 0 1-1.6.34c-.867 0-1.507-.28-1.92-.84s-.62-1.247-.62-2.06c0-.547.1-1.033.3-1.46s.54-.76 1.02-1c.48-.253 1.126-.38 1.94-.38.36 0 .753.027 1.18.08l1.3.16v-1.34c0-.747-.167-1.253-.5-1.52-.32-.28-.794-.42-1.42-.42-.854 0-1.807.233-2.86.7l-.52-1.36c.613-.28 1.2-.493 1.76-.64s1.126-.22 1.7-.22c.933 0 1.646.153 2.14.46s.833.713 1.02 1.22.28 1.06.28 1.66v4.28c0 .307.06.567.18.78.12.2.36.3.72.3h.22v1.5h-.3zm-6.54-2.82c0 .453.106.82.32 1.1s.52.42.92.42c.346 0 .746-.1 1.2-.3.453-.213 1.013-.633 1.68-1.26v-1.26c-.907-.147-1.707-.22-2.4-.22-.614 0-1.054.127-1.32.38s-.4.633-.4 1.14zm16.169-7.18l-3.5 9.9h-1.54l-3.54-9.9h1.7l1.66 4.82 1 3.02.98-3.02 1.62-4.82h1.62zm9.178 9.32a6.83 6.83 0 0 1-1.8.6c-.6.12-1.154.18-1.66.18-1.427 0-2.494-.407-3.2-1.22-.694-.813-1.04-1.927-1.04-3.34v-1.2c0-1.373.346-2.473 1.04-3.3.706-.827 1.7-1.24 2.98-1.24a4.1 4.1 0 0 1 1.86.42 3.06 3.06 0 0 1 1.36 1.24c.346.547.52 1.253.52 2.12 0 .56-.08 1.2-.24 1.92h-5.9v.04c0 1.013.206 1.78.62 2.3.426.52 1.106.78 2.04.78.426 0 .893-.053 1.4-.16a7.01 7.01 0 0 0 1.52-.5l.5 1.36zm-3.68-8.08c-.774 0-1.36.253-1.76.76-.387.493-.6 1.193-.64 2.1h4.48c.04-.24.06-.467.06-.68 0-.747-.214-1.293-.64-1.64-.414-.36-.914-.54-1.5-.54zm11.778.2c-.6 0-1.187.107-1.76.32-.56.213-1.16.62-1.8 1.22V393h-1.64v-9.9h1.56v1.6c.68-.667 1.3-1.133 1.86-1.4a4.17 4.17 0 0 1 1.78-.4v1.64zm9.324 7.88a6.83 6.83 0 0 1-1.8.6c-.6.12-1.154.18-1.66.18-1.427 0-2.494-.407-3.2-1.22-.694-.813-1.04-1.927-1.04-3.34v-1.2c0-1.373.346-2.473 1.04-3.3.706-.827 1.7-1.24 2.98-1.24a4.1 4.1 0 0 1 1.86.42 3.06 3.06 0 0 1 1.36 1.24c.346.547.52 1.253.52 2.12 0 .56-.08 1.2-.24 1.92h-5.9v.04c0 1.013.206 1.78.62 2.3.426.52 1.106.78 2.04.78.426 0 .893-.053 1.4-.16a7.01 7.01 0 0 0 1.52-.5l.5 1.36zm-3.68-8.08c-.774 0-1.36.253-1.76.76-.387.493-.6 1.193-.64 2.1h4.48c.04-.24.06-.467.06-.68 0-.747-.214-1.293-.64-1.64-.414-.36-.914-.54-1.5-.54zm8.318-3.66h-1.84v-1.84h1.84v1.84zm-.1 12.32h-1.64v-9.9h1.64v9.9zm13.991 0v-1.4c-.693.6-1.313 1.02-1.86 1.26-.547.227-1.093.34-1.64.34-.88 0-1.553-.287-2.02-.86-.467-.587-.7-1.407-.7-2.46v-6.78h1.64v6.54c0 .693.12 1.207.36 1.54.253.32.627.48 1.12.48.373 0 .793-.093 1.26-.28s1.047-.56 1.74-1.12v-7.16h1.64v9.9h-1.54zm9.832-8.56c-.373 0-.813.093-1.32.28-.493.187-1.093.567-1.8 1.14V393h-1.64v-9.9h1.56v1.38c.707-.6 1.347-1.013 1.92-1.24.587-.227 1.147-.34 1.68-.34.92 0 1.62.293 2.1.88.493.573.74 1.393.74 2.46V393h-1.64v-6.52c0-1.36-.533-2.04-1.6-2.04zm12.686 8.56v-1.38c-.614.587-1.174 1-1.68 1.24-.494.227-1.007.34-1.54.34-1.054 0-1.867-.4-2.44-1.2-.56-.8-.84-1.92-.84-3.36v-1.16c0-1.4.346-2.513 1.04-3.34.706-.827 1.726-1.24 3.06-1.24a5.72 5.72 0 0 1 1.16.12 7.62 7.62 0 0 1 1.16.34v-5.16h1.64V393h-1.56zm-4.8-4.36c0 1.04.16 1.807.48 2.3.333.48.826.72 1.48.72.386 0 .786-.093 1.2-.28.413-.2.933-.607 1.56-1.22v-5.28a4.99 4.99 0 0 0-1.12-.36 4.88 4.88 0 0 0-1.06-.12c-.907 0-1.56.273-1.96.82-.387.547-.58 1.3-.58 2.26v1.16zm17.388 3c.84 0 1.487-.18 1.94-.54.454-.373.68-.913.68-1.62 0-.587-.16-1.08-.48-1.48-.306-.4-.813-.707-1.52-.92l-1.62-.48c-1.013-.307-1.76-.767-2.24-1.38-.48-.627-.72-1.393-.72-2.3 0-.693.134-1.32.4-1.88.28-.56.72-1.007 1.32-1.34.614-.333 1.414-.5 2.4-.5a8.3 8.3 0 0 1 1.86.22c.64.133 1.287.353 1.94.66l-.56 1.5c-.64-.28-1.22-.48-1.74-.6-.506-.133-.993-.2-1.46-.2-.76 0-1.353.16-1.78.48-.413.307-.62.82-.62 1.54 0 .52.14.96.42 1.32.28.347.78.633 1.5.86l1.62.48c2.027.6 3.04 1.893 3.04 3.88 0 1.147-.346 2.08-1.04 2.8-.693.707-1.806 1.06-3.34 1.06-.626 0-1.293-.073-2-.22-.693-.16-1.413-.407-2.16-.74l.54-1.48c.707.32 1.34.547 1.9.68.574.133 1.147.2 1.72.2zm13.078 1.36l-2.78-4.58-.8.78-.88.8v3h-1.64v-14.8h1.64v9.96l2.3-2.46a19.5 19.5 0 0 0 1.86-2.6h1.88l-1.48 2.22c-.494.667-1.054 1.347-1.68 2.04l3.56 5.64h-1.98zm4.036-2.4v-12.4h1.64v12.32c0 .36.053.633.16.82.12.173.353.26.7.26h.32v1.5h-.46c-.88 0-1.493-.233-1.84-.7s-.52-1.067-.52-1.8zm12.533 2.5c-.613 0-1.106-.14-1.48-.42-.36-.28-.613-.627-.76-1.04-.653.573-1.246.98-1.78 1.22-.533.227-1.066.34-1.6.34-.866 0-1.506-.28-1.92-.84s-.62-1.247-.62-2.06c0-.547.1-1.033.3-1.46s.54-.76 1.02-1c.48-.253 1.127-.38 1.94-.38a9.62 9.62 0 0 1 1.18.08l1.3.16v-1.34c0-.747-.166-1.253-.5-1.52-.32-.28-.793-.42-1.42-.42-.853 0-1.806.233-2.86.7l-.52-1.36c.614-.28 1.2-.493 1.76-.64a6.67 6.67 0 0 1 1.7-.22c.934 0 1.647.153 2.14.46s.834.713 1.02 1.22a4.76 4.76 0 0 1 .28 1.66v4.28c0 .307.06.567.18.78.12.2.36.3.72.3h.22v1.5h-.3zm-6.54-2.82c0 .453.107.82.32 1.1s.52.42.92.42c.347 0 .747-.1 1.2-.3.454-.213 1.014-.633 1.68-1.26v-1.26c-.906-.147-1.706-.22-2.4-.22-.613 0-1.053.127-1.32.38s-.4.633-.4 1.14zm16.169-7.18l-3.5 9.9h-1.54l-3.54-9.9h1.7l1.66 4.82 1 3.02.98-3.02 1.62-4.82h1.62zm9.179 9.32a6.83 6.83 0 0 1-1.8.6c-.6.12-1.154.18-1.66.18-1.427 0-2.494-.407-3.2-1.22-.694-.813-1.04-1.927-1.04-3.34v-1.2c0-1.373.346-2.473 1.04-3.3.706-.827 1.7-1.24 2.98-1.24a4.1 4.1 0 0 1 1.86.42 3.06 3.06 0 0 1 1.36 1.24c.346.547.52 1.253.52 2.12 0 .56-.08 1.2-.24 1.92h-5.9v.04c0 1.013.206 1.78.62 2.3.426.52 1.106.78 2.04.78.426 0 .893-.053 1.4-.16a7.01 7.01 0 0 0 1.52-.5l.5 1.36zm-3.68-8.08c-.774 0-1.36.253-1.76.76-.387.493-.6 1.193-.64 2.1h4.48c.04-.24.06-.467.06-.68 0-.747-.214-1.293-.64-1.64-.414-.36-.914-.54-1.5-.54zm11.338.1c-.374 0-.814.093-1.32.28-.494.187-1.094.567-1.8 1.14V393h-1.64v-9.9h1.56v1.38c.706-.6 1.346-1.013 1.92-1.24.586-.227 1.146-.34 1.68-.34.92 0 1.62.293 2.1.88.493.573.74 1.393.74 2.46V393h-1.64v-6.52c0-1.36-.534-2.04-1.6-2.04zm11.425 0c-.373 0-.813.093-1.32.28-.493.187-1.093.567-1.8 1.14V393h-1.64v-14.8h1.64v6.22c.694-.587 1.32-.987 1.88-1.2s1.107-.32 1.64-.32c.92 0 1.62.293 2.1.88.494.573.74 1.393.74 2.46V393h-1.64v-6.52c0-1.36-.533-2.04-1.6-2.04zm13.906 8.66c-.613 0-1.106-.14-1.48-.42-.36-.28-.613-.627-.76-1.04-.653.573-1.246.98-1.78 1.22-.533.227-1.066.34-1.6.34-.866 0-1.506-.28-1.92-.84s-.62-1.247-.62-2.06c0-.547.1-1.033.3-1.46s.54-.76 1.02-1c.48-.253 1.127-.38 1.94-.38a9.62 9.62 0 0 1 1.18.08l1.3.16v-1.34c0-.747-.166-1.253-.5-1.52-.32-.28-.793-.42-1.42-.42-.853 0-1.806.233-2.86.7l-.52-1.36c.614-.28 1.2-.493 1.76-.64a6.67 6.67 0 0 1 1.7-.22c.934 0 1.647.153 2.14.46s.834.713 1.02 1.22a4.76 4.76 0 0 1 .28 1.66v4.28c0 .307.06.567.18.78.12.2.36.3.72.3h.22v1.5h-.3zm-6.54-2.82c0 .453.107.82.32 1.1s.52.42.92.42c.347 0 .747-.1 1.2-.3.454-.213 1.014-.633 1.68-1.26v-1.26c-.906-.147-1.706-.22-2.4-.22-.613 0-1.053.127-1.32.38s-.4.633-.4 1.14zm13.924-5.84c-.374 0-.814.093-1.32.28-.494.187-1.094.567-1.8 1.14V393h-1.64v-9.9h1.56v1.38c.706-.6 1.346-1.013 1.92-1.24.586-.227 1.146-.34 1.68-.34.92 0 1.62.293 2.1.88.493.573.74 1.393.74 2.46V393h-1.64v-6.52c0-1.36-.534-2.04-1.6-2.04zm12.685 8.56v-1.38c-.613.587-1.173 1-1.68 1.24a3.64 3.64 0 0 1-1.54.34c-1.053 0-1.866-.4-2.44-1.2-.56-.8-.84-1.92-.84-3.36v-1.16c0-1.4.347-2.513 1.04-3.34.707-.827 1.727-1.24 3.06-1.24.387 0 .774.04 1.16.12s.774.193 1.16.34v-5.16h1.64V393h-1.56zm-4.8-4.36c0 1.04.16 1.807.48 2.3.334.48.827.72 1.48.72.387 0 .787-.093 1.2-.28.414-.2.934-.607 1.56-1.22v-5.28c-.386-.173-.76-.293-1.12-.36-.36-.08-.713-.12-1.06-.12-.906 0-1.56.273-1.96.82-.386.547-.58 1.3-.58 2.26v1.16zm17.074 3.78a6.83 6.83 0 0 1-1.8.6c-.6.12-1.154.18-1.66.18-1.427 0-2.494-.407-3.2-1.22-.694-.813-1.04-1.927-1.04-3.34v-1.2c0-1.373.346-2.473 1.04-3.3.706-.827 1.7-1.24 2.98-1.24a4.1 4.1 0 0 1 1.86.42 3.06 3.06 0 0 1 1.36 1.24c.346.547.52 1.253.52 2.12 0 .56-.08 1.2-.24 1.92h-5.9v.04c0 1.013.206 1.78.62 2.3.426.52 1.106.78 2.04.78.426 0 .893-.053 1.4-.16a7.01 7.01 0 0 0 1.52-.5l.5 1.36zm-3.68-8.08c-.774 0-1.36.253-1.76.76-.387.493-.6 1.193-.64 2.1h4.48c.04-.24.06-.467.06-.68 0-.747-.214-1.293-.64-1.64-.414-.36-.914-.54-1.5-.54zm6.558 6.26v-12.4h1.64v12.32c0 .36.053.633.16.82.12.173.353.26.7.26h.32v1.5h-.46c-.88 0-1.494-.233-1.84-.7s-.52-1.067-.52-1.8zM188.18 423.74c1.333 0 2-.453 2-1.36 0-.387-.12-.693-.36-.92s-.68-.42-1.32-.58l-1.1-.28c-.813-.2-1.42-.547-1.82-1.04-.4-.507-.6-1.107-.6-1.8 0-.507.113-.973.34-1.4.227-.44.587-.793 1.08-1.06s1.133-.4 1.92-.4a6.83 6.83 0 0 1 1.54.18 6.7 6.7 0 0 1 1.62.56l-.52 1.38c-.973-.44-1.853-.66-2.64-.66-1.16 0-1.74.433-1.74 1.3 0 .333.107.62.32.86s.613.433 1.2.58l1.1.28c.88.213 1.527.56 1.94 1.04s.62 1.1.62 1.86c0 .547-.12 1.047-.36 1.5-.227.44-.6.787-1.12 1.04-.507.253-1.193.38-2.06.38-.573 0-1.147-.06-1.72-.18-.56-.12-1.14-.313-1.74-.58l.44-1.36c.573.227 1.093.393 1.56.5s.94.16 1.42.16zm7.933-11.06h-1.84v-1.84h1.84v1.84zm-.1 12.32h-1.64v-9.9h1.64v9.9zm8.296-8.56c-.373 0-.813.093-1.32.28-.493.187-1.093.567-1.8 1.14V425h-1.64v-9.9h1.56v1.38c.707-.6 1.347-1.013 1.92-1.24.587-.227 1.147-.34 1.68-.34.92 0 1.62.293 2.1.88.493.573.74 1.393.74 2.46V425h-1.64v-6.52c0-1.36-.533-2.04-1.6-2.04zm12.686 8.56v-1.38c-.613.587-1.173 1-1.68 1.24-.493.227-1.007.34-1.54.34-1.053 0-1.867-.4-2.44-1.2-.56-.8-.84-1.92-.84-3.36v-1.16c0-1.4.347-2.513 1.04-3.34.707-.827 1.727-1.24 3.06-1.24a5.71 5.71 0 0 1 1.16.12c.387.08.773.193 1.16.34v-5.16h1.64V425h-1.56zm-4.8-4.36c0 1.04.16 1.807.48 2.3.333.48.827.72 1.48.72.387 0 .787-.093 1.2-.28.413-.2.933-.607 1.56-1.22v-5.28a4.99 4.99 0 0 0-1.12-.36c-.36-.08-.713-.12-1.06-.12-.907 0-1.56.273-1.96.82-.387.547-.58 1.3-.58 2.26v1.16zm15.989-7.96h-1.84v-1.84h1.84v1.84zm-.1 12.32h-1.64v-9.9h1.64v9.9zm8.295-8.56c-.373 0-.813.093-1.32.28-.493.187-1.093.567-1.8 1.14V425h-1.64v-9.9h1.56v1.38c.707-.6 1.347-1.013 1.92-1.24.587-.227 1.147-.34 1.68-.34.92 0 1.62.293 2.1.88.494.573.74 1.393.74 2.46V425h-1.64v-6.52c0-1.36-.533-2.04-1.6-2.04zm18.262 8.66c-.614 0-1.107-.14-1.48-.42-.36-.28-.614-.627-.76-1.04-.654.573-1.247.98-1.78 1.22a4.06 4.06 0 0 1-1.6.34c-.867 0-1.507-.28-1.92-.84s-.62-1.247-.62-2.06c0-.547.1-1.033.3-1.46s.54-.76 1.02-1c.48-.253 1.126-.38 1.94-.38.36 0 .753.027 1.18.08l1.3.16v-1.34c0-.747-.167-1.253-.5-1.52-.32-.28-.794-.42-1.42-.42-.854 0-1.807.233-2.86.7l-.52-1.36c.613-.28 1.2-.493 1.76-.64s1.126-.22 1.7-.22c.933 0 1.646.153 2.14.46s.833.713 1.02 1.22.28 1.06.28 1.66v4.28c0 .307.06.567.18.78.12.2.36.3.72.3h.22v1.5h-.3zm-6.54-2.82c0 .453.106.82.32 1.1s.52.42.92.42c.346 0 .746-.1 1.2-.3.453-.213 1.013-.633 1.68-1.26v-1.26c-.907-.147-1.707-.22-2.4-.22-.614 0-1.054.127-1.32.38s-.4.633-.4 1.14zm9.143.32v-12.4h1.64v12.32c0 .36.053.633.16.82.12.173.353.26.7.26h.32v1.5h-.46c-.88 0-1.493-.233-1.84-.7s-.52-1.067-.52-1.8zm5.273 0v-12.4h1.64v12.32c0 .36.054.633.16.82.12.173.354.26.7.26h.32v1.5h-.46c-.88 0-1.493-.233-1.84-.7s-.52-1.067-.52-1.8zm12.474 1.82a6.83 6.83 0 0 1-1.8.6c-.6.12-1.154.18-1.66.18-1.427 0-2.494-.407-3.2-1.22-.694-.813-1.04-1.927-1.04-3.34v-1.2c0-1.373.346-2.473 1.04-3.3.706-.827 1.7-1.24 2.98-1.24a4.1 4.1 0 0 1 1.86.42 3.06 3.06 0 0 1 1.36 1.24c.346.547.52 1.253.52 2.12 0 .56-.08 1.2-.24 1.92h-5.9v.04c0 1.013.206 1.78.62 2.3.426.52 1.106.78 2.04.78.426 0 .893-.053 1.4-.16a7.01 7.01 0 0 0 1.52-.5l.5 1.36zm-3.68-8.08c-.774 0-1.36.253-1.76.76-.387.493-.6 1.193-.64 2.1h4.48c.04-.24.06-.467.06-.68 0-.747-.214-1.293-.64-1.64-.414-.36-.914-.54-1.5-.54zm11.338.1c-.373 0-.813.093-1.32.28-.493.187-1.093.567-1.8 1.14V425h-1.64v-9.9h1.56v1.38c.707-.6 1.347-1.013 1.92-1.24.587-.227 1.147-.34 1.68-.34.92 0 1.62.293 2.1.88.493.573.74 1.393.74 2.46V425h-1.64v-6.52c0-1.36-.533-2.04-1.6-2.04zm12.761-3.76h-1.84v-1.84h1.84v1.84zm-.1 12.32h-1.64v-9.9h1.64v9.9zm8.296-8.56c-.373 0-.813.093-1.32.28-.493.187-1.093.567-1.8 1.14V425h-1.64v-14.8h1.64v6.22c.693-.587 1.32-.987 1.88-1.2s1.107-.32 1.64-.32c.92 0 1.62.293 2.1.88.493.573.74 1.393.74 2.46V425h-1.64v-6.52c0-1.36-.533-2.04-1.6-2.04zm11.866.1c-.6 0-1.187.107-1.76.32-.56.213-1.16.62-1.8 1.22V425h-1.64v-9.9h1.56v1.6c.68-.667 1.3-1.133 1.86-1.4.573-.267 1.166-.4 1.78-.4v1.64zm9.323 7.88a6.83 6.83 0 0 1-1.8.6c-.6.12-1.153.18-1.66.18-1.426 0-2.493-.407-3.2-1.22-.693-.813-1.04-1.927-1.04-3.34v-1.2c0-1.373.347-2.473 1.04-3.3.707-.827 1.7-1.24 2.98-1.24a4.1 4.1 0 0 1 1.86.42 3.05 3.05 0 0 1 1.36 1.24c.347.547.52 1.253.52 2.12 0 .56-.08 1.2-.24 1.92h-5.9v.04c0 1.013.207 1.78.62 2.3.427.52 1.107.78 2.04.78.427 0 .894-.053 1.4-.16.52-.107 1.027-.273 1.52-.5l.5 1.36zm-3.68-8.08c-.773 0-1.36.253-1.76.76-.386.493-.6 1.193-.64 2.1h4.48c.04-.24.06-.467.06-.68 0-.747-.213-1.293-.64-1.64-.413-.36-.913-.54-1.5-.54zm11.339.1c-.374 0-.814.093-1.32.28-.494.187-1.094.567-1.8 1.14V425h-1.64v-9.9h1.56v1.38c.706-.6 1.346-1.013 1.92-1.24.586-.227 1.146-.34 1.68-.34.92 0 1.62.293 2.1.88.493.573.74 1.393.74 2.46V425h-1.64v-6.52c0-1.36-.534-2.04-1.6-2.04zm18.061 2.84h-4.94V425h-1.74v-13.6h7.28v1.64h-5.54v4.6h4.94v1.64zm10.644.16v1.2c0 1.413-.367 2.527-1.1 3.34-.72.813-1.754 1.22-3.1 1.22-1.334 0-2.367-.407-3.1-1.22s-1.1-1.927-1.1-3.34v-1.2c0-1.387.36-2.487 1.08-3.3.733-.827 1.773-1.24 3.12-1.24s2.38.413 3.1 1.24c.733.813 1.1 1.913 1.1 3.3zm-1.7 0c0-.947-.214-1.687-.64-2.22-.427-.547-1.047-.82-1.86-.82-.8 0-1.42.273-1.86.82-.427.533-.64 1.273-.64 2.22v1.2c0 .987.213 1.747.64 2.28.44.533 1.06.8 1.86.8.813 0 1.433-.267 1.86-.8s.64-1.293.64-2.28v-1.2zm9.88-2.9c-.6 0-1.187.107-1.76.32-.56.213-1.16.62-1.8 1.22V425h-1.64v-9.9h1.56v1.6c.68-.667 1.3-1.133 1.86-1.4a4.17 4.17 0 0 1 1.78-.4v1.64zm6.804-.1c-.374 0-.794.1-1.26.3-.467.187-1.054.56-1.76 1.12V425h-1.64v-9.9h1.56v1.38c.706-.587 1.333-.993 1.88-1.22.546-.24 1.086-.36 1.62-.36.626 0 1.146.147 1.56.44.413.28.72.687.92 1.22.733-.627 1.386-1.06 1.96-1.3.586-.24 1.16-.36 1.72-.36.88 0 1.553.293 2.02.88.466.573.7 1.393.7 2.46V425h-1.64v-6.52c0-1.36-.494-2.04-1.48-2.04-.374 0-.8.1-1.28.3-.467.187-1.054.56-1.76 1.12.013.053.02.113.02.18v.2V425h-1.64v-6.52c0-1.36-.5-2.04-1.5-2.04zm19.902 7.98a6.83 6.83 0 0 1-1.8.6c-.6.12-1.153.18-1.66.18-1.426 0-2.493-.407-3.2-1.22-.693-.813-1.04-1.927-1.04-3.34v-1.2c0-1.373.347-2.473 1.04-3.3.707-.827 1.7-1.24 2.98-1.24a4.1 4.1 0 0 1 1.86.42 3.05 3.05 0 0 1 1.36 1.24c.347.547.52 1.253.52 2.12 0 .56-.08 1.2-.24 1.92h-5.9v.04c0 1.013.207 1.78.62 2.3.427.52 1.107.78 2.04.78.427 0 .894-.053 1.4-.16.52-.107 1.027-.273 1.52-.5l.5 1.36zm-3.68-8.08c-.773 0-1.36.253-1.76.76-.386.493-.6 1.193-.64 2.1h4.48c.04-.24.06-.467.06-.68 0-.747-.213-1.293-.64-1.64-.413-.36-.913-.54-1.5-.54zm11.339.1c-.374 0-.814.093-1.32.28-.494.187-1.094.567-1.8 1.14V425h-1.64v-9.9h1.56v1.38c.706-.6 1.346-1.013 1.92-1.24.586-.227 1.146-.34 1.68-.34.92 0 1.62.293 2.1.88.493.573.74 1.393.74 2.46V425h-1.64v-6.52c0-1.36-.534-2.04-1.6-2.04zm18.261-1.34l-3.5 9.9h-1.54l-3.54-9.9h1.7l1.66 4.82 1 3.02.98-3.02 1.62-4.82h1.62zm9.178 9.32a6.83 6.83 0 0 1-1.8.6c-.6.12-1.153.18-1.66.18-1.427 0-2.493-.407-3.2-1.22-.693-.813-1.04-1.927-1.04-3.34v-1.2c0-1.373.347-2.473 1.04-3.3.707-.827 1.7-1.24 2.98-1.24a4.1 4.1 0 0 1 1.86.42c.573.267 1.027.68 1.36 1.24.347.547.52 1.253.52 2.12 0 .56-.08 1.2-.24 1.92h-5.9v.04c0 1.013.207 1.78.62 2.3.427.52 1.107.78 2.04.78a6.81 6.81 0 0 0 1.4-.16c.52-.107 1.027-.273 1.52-.5l.5 1.36zm-3.68-8.08c-.773 0-1.36.253-1.76.76-.387.493-.6 1.193-.64 2.1h4.48c.04-.24.06-.467.06-.68 0-.747-.213-1.293-.64-1.64-.413-.36-.913-.54-1.5-.54zm11.778.2a5.02 5.02 0 0 0-1.76.32c-.56.213-1.16.62-1.8 1.22V425h-1.64v-9.9h1.56v1.6c.68-.667 1.3-1.133 1.86-1.4.574-.267 1.167-.4 1.78-.4v1.64zm10.144 4.1c0 1.387-.347 2.493-1.04 3.32s-1.713 1.24-3.06 1.24c-1.333 0-2.653-.353-3.96-1.06V410.2h1.64v6.24c.6-.56 1.147-.953 1.64-1.18.507-.24 1.02-.36 1.54-.36 1.04 0 1.84.4 2.4 1.2s.84 1.927.84 3.38v1.16zm-3.64-4.2c-.373 0-.773.1-1.2.3-.413.2-.94.613-1.58 1.24v5.24c.787.333 1.527.5 2.22.5.893 0 1.533-.273 1.92-.82.387-.56.58-1.313.58-2.26v-1.16c0-1.04-.16-1.807-.48-2.3s-.807-.74-1.46-.74zm14.515 3v1.2c0 1.413-.367 2.527-1.1 3.34-.72.813-1.753 1.22-3.1 1.22-1.333 0-2.367-.407-3.1-1.22s-1.1-1.927-1.1-3.34v-1.2c0-1.387.36-2.487 1.08-3.3.733-.827 1.773-1.24 3.12-1.24s2.38.413 3.1 1.24c.733.813 1.1 1.913 1.1 3.3zm-1.7 0c0-.947-.213-1.687-.64-2.22-.427-.547-1.047-.82-1.86-.82-.8 0-1.42.273-1.86.82-.427.533-.64 1.273-.64 2.22v1.2c0 .987.213 1.747.64 2.28.44.533 1.06.8 1.86.8.813 0 1.433-.267 1.86-.8s.64-1.293.64-2.28v-1.2zm10.12 5.2c-.746.373-1.54.56-2.38.56-.72 0-1.286-.147-1.7-.44a2.42 2.42 0 0 1-.86-1.18c-.16-.493-.24-1.04-.24-1.64v-5.4h-1.72v-1.44h1.72v-2.76h1.64v2.76h3.24v1.44h-3.24v5.34c0 .693.114 1.173.34 1.44.24.253.607.38 1.1.38a3.61 3.61 0 0 0 .74-.08 4.57 4.57 0 0 0 .86-.32l.5 1.34zm9.338-.22a6.83 6.83 0 0 1-1.8.6c-.6.12-1.153.18-1.66.18-1.427 0-2.493-.407-3.2-1.22-.693-.813-1.04-1.927-1.04-3.34v-1.2c0-1.373.347-2.473 1.04-3.3.707-.827 1.7-1.24 2.98-1.24a4.1 4.1 0 0 1 1.86.42c.573.267 1.027.68 1.36 1.24.347.547.52 1.253.52 2.12 0 .56-.08 1.2-.24 1.92h-5.9v.04c0 1.013.207 1.78.62 2.3.427.52 1.107.78 2.04.78a6.81 6.81 0 0 0 1.4-.16c.52-.107 1.027-.273 1.52-.5l.5 1.36zm-3.68-8.08c-.773 0-1.36.253-1.76.76-.387.493-.6 1.193-.64 2.1h4.48c.04-.24.06-.467.06-.68 0-.747-.213-1.293-.64-1.64-.413-.36-.913-.54-1.5-.54zm11.338.1c-.373 0-.813.093-1.32.28-.493.187-1.093.567-1.8 1.14V425h-1.64v-9.9h1.56v1.38c.707-.6 1.347-1.013 1.92-1.24.587-.227 1.147-.34 1.68-.34.92 0 1.62.293 2.1.88.494.573.74 1.393.74 2.46V425h-1.64v-6.52c0-1.36-.533-2.04-1.6-2.04zm7.707 8.56h-1.84v-1.82h1.84V425z"/><path d="M187.75 179.6l5.7 13.95 5.67-13.95h3.93V200h-3.45v-7.8l.45-7.14-5.07 12.54h-3.21l-4.95-12.57.45 7.17v7.8h-3.45v-20.4h3.93zm32.043 19.53c-1.04.42-2.02.72-2.94.9s-1.79.27-2.61.27c-2.26 0-3.97-.64-5.13-1.92s-1.74-2.98-1.74-5.1v-1.8c0-1.42.26-2.65.78-3.69s1.26-1.85 2.22-2.43 2.09-.87 3.39-.87c1.06 0 2.05.22 2.97.66.94.42 1.7 1.09 2.28 2.01.6.9.9 2.06.9 3.48 0 .42-.03.87-.09 1.35a11.3 11.3 0 0 1-.3 1.47h-8.82c.04 1.24.35 2.17.93 2.79s1.51.93 2.79.93a9.67 9.67 0 0 0 2.1-.24c.74-.16 1.5-.4 2.28-.72l.99 2.91zm-6.03-11.73c-.92 0-1.64.3-2.16.9-.5.58-.79 1.42-.87 2.52h5.76a1.39 1.39 0 0 0 .03-.27v-.27c0-.96-.27-1.68-.81-2.16s-1.19-.72-1.95-.72zm17.565.3c-.5 0-1.07.12-1.71.36s-1.4.71-2.28 1.41V200h-3.45v-15.21h3.27v2.04c.94-.82 1.83-1.41 2.67-1.77.84-.38 1.69-.57 2.55-.57 1.46 0 2.57.47 3.33 1.41.76.92 1.14 2.22 1.14 3.9V200h-3.45v-9.78c0-1.68-.69-2.52-2.07-2.52zm14.339 9.6c.74 0 1.35-.12 1.83-.36.48-.26.72-.64.72-1.14 0-.44-.16-.78-.48-1.02-.3-.26-.85-.49-1.65-.69l-1.71-.45c-1.32-.34-2.3-.91-2.94-1.71-.62-.8-.93-1.75-.93-2.85 0-1.3.45-2.39 1.35-3.27s2.29-1.32 4.17-1.32c.76 0 1.56.09 2.4.27s1.72.47 2.64.87l-.99 2.94c-.84-.4-1.6-.68-2.28-.84s-1.28-.24-1.8-.24c-1.42 0-2.13.48-2.13 1.44 0 .38.12.68.36.9.26.22.73.42 1.41.6l1.71.45c1.46.38 2.52.96 3.18 1.74.68.78 1.02 1.76 1.02 2.94 0 1.4-.48 2.54-1.44 3.42-.94.88-2.43 1.32-4.47 1.32-1.74 0-3.57-.4-5.49-1.2l.93-2.85c.94.38 1.79.65 2.55.81s1.44.24 2.04.24zm12.062-5.79v1.77c0 1.28.23 2.24.69 2.88s1.2.96 2.22.96c.5 0 1.06-.06 1.68-.18.64-.14 1.33-.35 2.07-.63l.99 2.91c-.9.36-1.75.63-2.55.81s-1.59.27-2.37.27c-2 0-3.53-.64-4.59-1.92s-1.59-2.98-1.59-5.1v-1.77c0-2.14.53-3.84 1.59-5.1 1.06-1.28 2.59-1.92 4.59-1.92a10.25 10.25 0 0 1 2.31.27 17.3 17.3 0 0 1 2.46.78l-.99 2.97c-1.44-.56-2.64-.84-3.6-.84-1.02 0-1.76.32-2.22.96-.46.62-.69 1.58-.69 2.88zm18.247-3.81c-.5 0-1.07.12-1.71.36s-1.4.71-2.28 1.41V200h-3.45v-22.2h3.45v8.88c.92-.78 1.78-1.34 2.58-1.68s1.62-.51 2.46-.51c1.46 0 2.57.47 3.33 1.41.76.92 1.14 2.22 1.14 3.9V200h-3.45v-9.78c0-1.68-.69-2.52-2.07-2.52zm21.63 11.43c-1.04.42-2.02.72-2.94.9s-1.79.27-2.61.27c-2.26 0-3.97-.64-5.13-1.92s-1.74-2.98-1.74-5.1v-1.8c0-1.42.26-2.65.78-3.69s1.26-1.85 2.22-2.43 2.09-.87 3.39-.87c1.06 0 2.05.22 2.97.66.94.42 1.7 1.09 2.28 2.01.6.9.9 2.06.9 3.48 0 .42-.03.87-.09 1.35a11.3 11.3 0 0 1-.3 1.47h-8.82c.04 1.24.35 2.17.93 2.79s1.51.93 2.79.93a9.67 9.67 0 0 0 2.1-.24c.74-.16 1.5-.4 2.28-.72l.99 2.91zm-6.03-11.73c-.92 0-1.64.3-2.16.9-.5.58-.79 1.42-.87 2.52h5.76a1.39 1.39 0 0 0 .03-.27v-.27c0-.96-.27-1.68-.81-2.16s-1.19-.72-1.95-.72zm17.564.3c-.5 0-1.07.12-1.71.36s-1.4.71-2.28 1.41V200h-3.45v-15.21h3.27v2.04c.94-.82 1.83-1.41 2.67-1.77.84-.38 1.69-.57 2.55-.57 1.46 0 2.57.47 3.33 1.41.76.92 1.14 2.22 1.14 3.9V200h-3.45v-9.78c0-1.68-.69-2.52-2.07-2.52zm18.66.24c-.94 0-1.84.15-2.7.45-.84.28-1.65.74-2.43 1.38V200h-3.45v-15.21h3.27v2.34c1.02-.96 1.93-1.64 2.73-2.04a5.69 5.69 0 0 1 2.58-.6v3.45zm14.571 11.19c-1.04.42-2.02.72-2.94.9s-1.79.27-2.61.27c-2.26 0-3.97-.64-5.13-1.92s-1.74-2.98-1.74-5.1v-1.8c0-1.42.26-2.65.78-3.69s1.26-1.85 2.22-2.43 2.09-.87 3.39-.87c1.06 0 2.05.22 2.97.66.94.42 1.7 1.09 2.28 2.01.6.9.9 2.06.9 3.48 0 .42-.03.87-.09 1.35a11.3 11.3 0 0 1-.3 1.47h-8.82c.04 1.24.35 2.17.93 2.79s1.51.93 2.79.93a9.67 9.67 0 0 0 2.1-.24c.74-.16 1.5-.4 2.28-.72l.99 2.91zm-6.03-11.73c-.92 0-1.64.3-2.16.9-.5.58-.79 1.42-.87 2.52h5.76a1.39 1.39 0 0 0 .03-.27v-.27c0-.96-.27-1.68-.81-2.16s-1.19-.72-1.95-.72zm12.765 4.11v1.77c0 1.28.23 2.24.69 2.88s1.2.96 2.22.96c.5 0 1.06-.06 1.68-.18.64-.14 1.33-.35 2.07-.63l.99 2.91c-.9.36-1.75.63-2.55.81s-1.59.27-2.37.27c-2 0-3.53-.64-4.59-1.92s-1.59-2.98-1.59-5.1v-1.77c0-2.14.53-3.84 1.59-5.1 1.06-1.28 2.59-1.92 4.59-1.92a10.25 10.25 0 0 1 2.31.27 17.3 17.3 0 0 1 2.46.78l-.99 2.97c-1.44-.56-2.64-.84-3.6-.84-1.02 0-1.76.32-2.22.96-.46.62-.69 1.58-.69 2.88zm18.247-3.81c-.5 0-1.07.12-1.71.36s-1.4.71-2.28 1.41V200h-3.45v-22.2h3.45v8.88c.92-.78 1.78-1.34 2.58-1.68s1.62-.51 2.46-.51c1.46 0 2.57.47 3.33 1.41.76.92 1.14 2.22 1.14 3.9V200h-3.45v-9.78c0-1.68-.69-2.52-2.07-2.52zm19.23 11.79a8.28 8.28 0 0 1-1.8.57 9.01 9.01 0 0 1-2.07.24c-1.16 0-2.09-.24-2.79-.72s-1.21-1.15-1.53-2.01c-.3-.86-.45-1.84-.45-2.94v-6.84h-2.46v-3h2.46v-3.96h3.45v3.96h4.74v3h-4.74v6.84c0 .92.17 1.56.51 1.92.36.34.87.51 1.53.51.32 0 .66-.03 1.02-.09.38-.08.8-.21 1.26-.39l.87 2.91zm7.033-2.19c.74 0 1.35-.12 1.83-.36.48-.26.72-.64.72-1.14 0-.44-.16-.78-.48-1.02-.3-.26-.85-.49-1.65-.69l-1.71-.45c-1.32-.34-2.3-.91-2.94-1.71-.62-.8-.93-1.75-.93-2.85 0-1.3.45-2.39 1.35-3.27s2.29-1.32 4.17-1.32c.76 0 1.56.09 2.4.27s1.72.47 2.64.87l-.99 2.94c-.84-.4-1.6-.68-2.28-.84s-1.28-.24-1.8-.24c-1.42 0-2.13.48-2.13 1.44 0 .38.12.68.36.9.26.22.73.42 1.41.6l1.71.45c1.46.38 2.52.96 3.18 1.74.68.78 1.02 1.76 1.02 2.94 0 1.4-.48 2.54-1.44 3.42-.94.88-2.43 1.32-4.47 1.32-1.74 0-3.57-.4-5.49-1.2l.93-2.85c.94.38 1.79.65 2.55.81s1.44.24 2.04.24zm20.972 1.83c-1.04.42-2.02.72-2.94.9s-1.79.27-2.61.27c-2.26 0-3.97-.64-5.13-1.92s-1.74-2.98-1.74-5.1v-1.8c0-1.42.26-2.65.78-3.69s1.26-1.85 2.22-2.43 2.09-.87 3.39-.87c1.06 0 2.05.22 2.97.66.94.42 1.7 1.09 2.28 2.01.6.9.9 2.06.9 3.48 0 .42-.03.87-.09 1.35a11.3 11.3 0 0 1-.3 1.47h-8.82c.04 1.24.35 2.17.93 2.79s1.51.93 2.79.93a9.67 9.67 0 0 0 2.1-.24c.74-.16 1.5-.4 2.28-.72l.99 2.91zm-6.03-11.73c-.92 0-1.64.3-2.16.9-.5.58-.79 1.42-.87 2.52h5.76a1.39 1.39 0 0 0 .03-.27v-.27c0-.96-.27-1.68-.81-2.16s-1.19-.72-1.95-.72zm18.705.54c-.94 0-1.84.15-2.7.45-.84.28-1.65.74-2.43 1.38V200h-3.45v-15.21h3.27v2.34c1.02-.96 1.93-1.64 2.73-2.04a5.69 5.69 0 0 1 2.58-.6v3.45zM439.374 200l-3.75-6.33-1.89 1.8V200h-3.45v-22.2h3.45v13.86c1.14-1.16 2.12-2.27 2.94-3.33.84-1.08 1.61-2.26 2.31-3.54h3.96c-.66 1.2-1.38 2.34-2.16 3.42l-2.58 3.27 5.34 8.52h-4.17zm6.787-4.29V177.8h3.45v17.91c0 .3.07.59.21.87.16.26.46.39.9.39h.48v3.18h-.84c-1.14 0-2.01-.22-2.61-.66s-1.02-1-1.26-1.68a6.78 6.78 0 0 1-.33-2.1zm19.901 4.44c-1.02 0-1.84-.21-2.46-.63-.6-.42-1.04-.94-1.32-1.56-.86.8-1.69 1.39-2.49 1.77s-1.66.57-2.58.57c-1.34 0-2.33-.43-2.97-1.29-.62-.86-.93-1.95-.93-3.27 0-.88.16-1.65.48-2.31.34-.68.89-1.21 1.65-1.59s1.8-.57 3.12-.57a11.46 11.46 0 0 1 1.62.12l1.68.24v-1.77c0-.84-.23-1.41-.69-1.71-.46-.32-1.08-.48-1.86-.48-.6 0-1.26.08-1.98.24a14.37 14.37 0 0 0-2.28.75l-.99-2.94c2.02-.82 3.85-1.23 5.49-1.23 1.48 0 2.62.25 3.42.75.82.5 1.39 1.16 1.71 1.98s.48 1.7.48 2.64v5.85a1.73 1.73 0 0 0 .24.87c.18.26.52.39 1.02.39h.33v3.18h-.69zm-9.42-4.47c0 .54.12.97.36 1.29.24.3.59.45 1.05.45s.98-.12 1.56-.36 1.33-.8 2.25-1.68v-1.29c-1.04-.18-2.06-.27-3.06-.27-.78 0-1.34.16-1.68.48-.32.32-.48.78-.48 1.38zm1.53-13.95h-3.27v-3.21h3.27v3.21zm5.82 0h-3.27v-3.21h3.27v3.21zm14.335 6.21c-.94 0-1.84.15-2.7.45-.84.28-1.65.74-2.43 1.38V200h-3.45v-15.21h3.27v2.34c1.02-.96 1.93-1.64 2.73-2.04a5.69 5.69 0 0 1 2.58-.6v3.45zM490.409 200v-2.01c-.92.8-1.78 1.39-2.58 1.77a5.87 5.87 0 0 1-2.43.54c-1.36 0-2.41-.46-3.15-1.38-.74-.94-1.11-2.25-1.11-3.93v-10.2h3.45v9.78c0 1.68.62 2.52 1.86 2.52.5 0 1.04-.12 1.62-.36.6-.24 1.32-.7 2.16-1.38v-10.56h3.45V200h-3.27zm15.46-12.3c-.5 0-1.07.12-1.71.36s-1.4.71-2.28 1.41V200h-3.45v-15.21h3.27v2.04c.94-.82 1.83-1.41 2.67-1.77.84-.38 1.69-.57 2.55-.57 1.46 0 2.57.47 3.33 1.41.76.92 1.14 2.22 1.14 3.9V200h-3.45v-9.78c0-1.68-.69-2.52-2.07-2.52zm22.709 13.83c0 1.62-.64 2.88-1.92 3.78-1.26.92-3.02 1.38-5.28 1.38-1.06 0-2.18-.12-3.36-.36s-2.27-.64-3.27-1.2l.99-2.73c.96.48 1.91.82 2.85 1.02.94.22 1.86.33 2.76.33 1.26 0 2.22-.17 2.88-.51s.99-.79.99-1.35c0-.86-.51-1.29-1.53-1.29h-3.6c-.98 0-1.77-.16-2.37-.48s-1.04-.73-1.32-1.23c-.28-.52-.42-1.06-.42-1.62 0-.58.12-1.12.36-1.62.26-.52.61-1 1.05-1.44-.72-.44-1.3-1.03-1.74-1.77-.42-.74-.63-1.63-.63-2.67 0-1.18.25-2.16.75-2.94s1.18-1.36 2.04-1.74c.88-.4 1.85-.6 2.91-.6h.51a7.49 7.49 0 0 1 1.17.09c.38.04.74.11 1.08.21h5.43v2.94l-3-.48c.3.32.53.72.69 1.2.18.46.27 1.03.27 1.71 0 1.02-.26 1.9-.78 2.64-.5.72-1.18 1.28-2.04 1.68-.84.38-1.78.57-2.82.57h-.51a6.93 6.93 0 0 1-1.14-.09 2.38 2.38 0 0 0-.48.75c-.1.24-.15.47-.15.69 0 .7.45 1.05 1.35 1.05h3.66c1.38 0 2.49.36 3.33 1.08.86.7 1.29 1.7 1.29 3zm-7.35-9.3c.62 0 1.16-.21 1.62-.63.48-.42.72-1.03.72-1.83s-.24-1.41-.72-1.83c-.46-.42-1-.63-1.62-.63h-.51a2.47 2.47 0 0 0-1.68.63c-.46.42-.69 1.03-.69 1.83s.23 1.41.69 1.83a2.47 2.47 0 0 0 1.68.63h.51zm14.593-9.72l5.19-2.91h3V200h-3.54v-16.44l-3.06 1.68-1.59-2.73zm26.129 9.45c0 2.8-.66 4.89-1.98 6.27s-3.18 2.07-5.58 2.07c-.84 0-1.71-.1-2.61-.3s-1.91-.56-3.03-1.08l1.29-3.09c.9.42 1.69.72 2.37.9.7.16 1.33.24 1.89.24 1.26 0 2.27-.38 3.03-1.14.78-.76 1.17-2.05 1.17-3.87v-1.08c-.68.62-1.4 1.08-2.16 1.38-.74.3-1.49.45-2.25.45-1.18 0-2.22-.27-3.12-.81-.88-.54-1.56-1.29-2.04-2.25s-.72-2.07-.72-3.33v-.6c0-1.12.27-2.17.81-3.15a6.25 6.25 0 0 1 2.31-2.37c1-.6 2.19-.9 3.57-.9 2.22 0 3.95.75 5.19 2.25s1.86 3.56 1.86 6.18v4.23zm-10.23-5.64c0 .92.25 1.68.75 2.28.52.58 1.24.87 2.16.87 1.42 0 2.71-.54 3.87-1.62v-.12c0-1.72-.32-3-.96-3.84-.62-.84-1.52-1.26-2.7-1.26-.98 0-1.75.32-2.31.96-.54.64-.81 1.35-.81 2.13v.6zm27.34 9.06h-2.13V200h-3.48v-4.62h-8.76v-2.91l2.67-4.26 2.52-4.35c.78-1.46 1.42-2.88 1.92-4.26h3.93c-.74 2.04-1.74 4.14-3 6.3l-3.9 6.27h4.62v-3.09h3.48v3.09h2.13v3.21zm15.94-.93c0 1.1-.26 2.09-.78 2.97-.5.88-1.27 1.58-2.31 2.1s-2.36.78-3.96.78c-1.58 0-2.86-.24-3.84-.72-.98-.5-1.7-1.15-2.16-1.95s-.69-1.69-.69-2.67.23-1.88.69-2.7c.46-.84 1.22-1.61 2.28-2.31-.84-.56-1.49-1.25-1.95-2.07-.44-.82-.66-1.78-.66-2.88 0-1.06.25-2.02.75-2.88s1.23-1.54 2.19-2.04c.96-.52 2.11-.78 3.45-.78 1.44 0 2.65.24 3.63.72s1.71 1.13 2.19 1.95c.5.8.75 1.7.75 2.7 0 .88-.21 1.71-.63 2.49-.4.76-1.08 1.47-2.04 2.13 2.06 1.16 3.09 2.88 3.09 5.16zm-7.26-6.69l1.47.45c.68-.58 1.15-1.11 1.41-1.59.28-.5.42-1.01.42-1.53 0-.8-.26-1.43-.78-1.89-.5-.48-1.22-.72-2.16-.72s-1.67.23-2.19.69c-.5.46-.75 1.09-.75 1.89 0 1.26.86 2.16 2.58 2.7zm-2.94 6.69c0 .8.29 1.45.87 1.95.58.48 1.4.72 2.46.72 1.04 0 1.85-.24 2.43-.72.6-.48.9-1.12.9-1.92 0-.6-.22-1.14-.66-1.62-.42-.5-1.15-.91-2.19-1.23l-1.62-.51c-.74.6-1.29 1.16-1.65 1.68a2.85 2.85 0 0 0-.54 1.65z"/></g><path d="M0 10C0 4.477 4.477 0 10 0h1110c5.52 0 10 4.477 10 10v65H0V10z" fill="#fff"/><rect x="18" y="17" width="627" height="38" rx="10" fill="#f4f4f4"/><path d="M45.205 43l-2.659-8.727h1.409l1.886 6.682h.091l1.864-6.682h1.432l1.841 6.659h.091l1.886-6.659h1.409L51.796 43h-1.318l-1.909-6.705h-.136L46.523 43h-1.318zm13 0l-2.659-8.727h1.409l1.886 6.682h.091l1.864-6.682h1.432l1.841 6.659h.091l1.886-6.659h1.409L64.796 43h-1.318l-1.909-6.705h-.136L59.523 43h-1.318zm13 0l-2.659-8.727h1.409l1.886 6.682h.091l1.864-6.682h1.432l1.841 6.659h.091l1.886-6.659h1.409L77.796 43h-1.318l-1.909-6.705h-.136L72.523 43h-1.318zm10.813.091c-.28 0-.521-.1-.721-.301s-.301-.441-.301-.722.1-.521.301-.722.441-.301.721-.301.521.1.722.301.301.441.301.722c0 .186-.047.356-.142.511a1.06 1.06 0 0 1-.369.375c-.151.091-.322.136-.511.136zM85.446 43v-8.727h1.296v1.364h.114c.182-.466.475-.828.881-1.085s.892-.392 1.46-.392c.576 0 1.055.131 1.438.392s.688.619.903 1.085h.091c.224-.451.559-.809 1.006-1.074s.983-.403 1.608-.403c.78 0 1.418.244 1.915.733s.744 1.241.744 2.267V43H95.56v-5.841c0-.644-.176-1.104-.529-1.381s-.767-.415-1.244-.415c-.614 0-1.089.186-1.426.557s-.506.833-.506 1.398V43h-1.364v-5.977c0-.496-.161-.896-.483-1.199s-.737-.46-1.244-.46a1.84 1.84 0 0 0-.977.278c-.299.186-.542.443-.727.773a2.28 2.28 0 0 0-.273 1.131V43h-1.341zm17.452.182c-.788 0-1.479-.187-2.074-.562s-1.053-.9-1.386-1.574-.494-1.462-.494-2.364c0-.909.165-1.703.494-2.381s.796-1.204 1.386-1.579 1.286-.562 2.074-.562 1.477.188 2.068.563 1.057.901 1.386 1.579.5 1.472.5 2.381c0 .901-.166 1.689-.5 2.364s-.791 1.199-1.386 1.574-1.28.563-2.068.563zm0-1.205c.598 0 1.091-.153 1.477-.46s.672-.71.858-1.21.278-1.042.278-1.625-.092-1.127-.278-1.631-.472-.911-.858-1.222-.879-.466-1.477-.466-1.091.155-1.478.466-.672.718-.858 1.222-.278 1.047-.278 1.631.093 1.125.278 1.625.472.903.858 1.21.879.46 1.478.46zm9.547 1.205c-.788 0-1.48-.187-2.074-.562s-1.053-.9-1.387-1.574c-.329-.674-.494-1.462-.494-2.364 0-.909.165-1.703.494-2.381.334-.678.796-1.204 1.387-1.579s1.286-.562 2.074-.562 1.477.188 2.068.563 1.057.901 1.386 1.579.5 1.472.5 2.381c0 .901-.167 1.689-.5 2.364s-.792 1.199-1.386 1.574-1.281.563-2.068.563zm0-1.205c.598 0 1.091-.153 1.477-.46s.672-.71.858-1.21.278-1.042.278-1.625-.093-1.127-.278-1.631-.472-.911-.858-1.222-.879-.466-1.477-.466-1.091.155-1.478.466-.672.718-.858 1.222-.278 1.047-.278 1.631.093 1.125.278 1.625.472.903.858 1.21.879.46 1.478.46zm9.296 1.205c-.727 0-1.369-.184-1.926-.551s-.992-.894-1.306-1.568-.472-1.479-.472-2.403c0-.917.157-1.712.472-2.386s.751-1.195 1.312-1.562 1.208-.551 1.943-.551c.568 0 1.017.095 1.347.284s.587.398.761.636l.415.58h.114v-4.296h1.34V43h-1.295v-1.341h-.159a8.77 8.77 0 0 1-.421.602c-.181.239-.441.453-.778.642s-.786.278-1.347.278zm.182-1.205c.538 0 .993-.14 1.364-.42s.653-.676.847-1.176.289-1.085.289-1.744c0-.652-.094-1.222-.284-1.71s-.469-.875-.841-1.148-.829-.415-1.375-.415c-.568 0-1.041.146-1.42.438s-.657.68-.847 1.176-.278 1.045-.278 1.659a4.82 4.82 0 0 0 .284 1.693c.193.504.477.905.852 1.205s.849.443 1.409.443zm7.801-10.614V43h-1.34V31.364h1.34zm6.115 11.818c-.84 0-1.566-.186-2.176-.557s-1.074-.898-1.403-1.568-.489-1.458-.489-2.352.163-1.682.489-2.364.788-1.22 1.375-1.602 1.28-.579 2.068-.579c.455 0 .904.076 1.347.227a3.34 3.34 0 0 1 1.21.739c.364.337.653.784.869 1.341s.324 1.242.324 2.057v.568h-6.727v-1.159h5.363c0-.492-.098-.932-.295-1.318s-.47-.691-.83-.915-.776-.335-1.261-.335c-.534 0-.996.133-1.386.398s-.684.602-.892 1.023-.313.871-.313 1.352v.773c0 .659.114 1.218.341 1.676s.551.801.96 1.04.885.352 1.426.352a2.9 2.9 0 0 0 .955-.148c.288-.102.536-.254.744-.455s.37-.458.483-.761l1.296.364a2.88 2.88 0 0 1-.688 1.159c-.322.329-.719.587-1.193.773s-1.006.273-1.597.273zm6.631-.091a.98.98 0 0 1-.721-.301c-.201-.201-.302-.441-.302-.722s.101-.521.302-.722a.98.98 0 0 1 .721-.301c.28 0 .521.1.722.301s.301.441.301.722a.96.96 0 0 1-.142.511c-.091.155-.214.28-.369.375s-.322.136-.512.136zm8.929-3.659v-5.159h1.341V43h-1.341v-1.477h-.091c-.204.443-.522.82-.954 1.131s-.978.46-1.637.46c-.545 0-1.03-.119-1.454-.358s-.758-.606-1-1.091-.364-1.104-.364-1.847v-5.545h1.341v5.455c0 .636.178 1.144.534 1.523s.818.568 1.375.568c.333 0 .672-.085 1.017-.256s.64-.432.875-.784.358-.801.358-1.347zm5.138-1.682V43h-1.341v-8.727h1.295v1.364h.114c.205-.443.515-.799.932-1.068s.954-.409 1.614-.409c.59 0 1.108.121 1.551.364s.788.602 1.034 1.091.369 1.099.369 1.841V43h-1.341v-5.455c0-.686-.178-1.22-.534-1.602s-.845-.58-1.466-.58c-.428 0-.81.093-1.148.278s-.596.456-.789.813-.29.788-.29 1.295zm8.018 5.25v-8.727h1.341V43h-1.341zm.682-10.182a.95.95 0 0 1-.676-.267c-.186-.178-.278-.392-.278-.642s.092-.464.278-.642.415-.267.676-.267.485.089.671.267a.85.85 0 0 1 .284.642.85.85 0 0 1-.284.642c-.186.178-.409.267-.671.267zm8.115 4.568v1.25h-5.091v-1.25h5.091zm2.36-3.114h1.341v9.364c0 .538-.093 1.004-.279 1.398s-.458.699-.829.915-.832.324-1.392.324h-.137-.136v-1.25h.125.125c.409 0 .708-.121.898-.364s.284-.58.284-1.023v-9.364zm.659-1.455a.95.95 0 0 1-.676-.267c-.186-.178-.279-.392-.279-.642s.093-.464.279-.642a.95.95 0 0 1 .676-.267.93.93 0 0 1 .67.267c.19.178.284.392.284.642s-.094.464-.284.642a.93.93 0 0 1-.67.267zm6.797 10.364c-.841 0-1.567-.186-2.177-.557a3.74 3.74 0 0 1-1.403-1.568c-.326-.674-.489-1.458-.489-2.352s.163-1.682.489-2.364.788-1.22 1.375-1.602 1.28-.579 2.068-.579c.455 0 .904.076 1.347.227a3.34 3.34 0 0 1 1.21.739c.364.337.653.784.869 1.341s.324 1.242.324 2.057v.568h-6.727v-1.159h5.364c0-.492-.099-.932-.296-1.318a2.23 2.23 0 0 0-.829-.915c-.356-.224-.777-.335-1.262-.335-.534 0-.996.133-1.386.398s-.684.602-.892 1.023a3.01 3.01 0 0 0-.313 1.352v.773c0 .659.114 1.218.341 1.676s.551.801.96 1.04.885.352 1.427.352c.352 0 .67-.049.954-.148s.536-.254.744-.455.37-.458.483-.761l1.296.364a2.87 2.87 0 0 1-.688 1.159c-.322.329-.719.587-1.193.773a4.42 4.42 0 0 1-1.596.273zm6.994-5.432V43h-1.341v-8.727h1.295v1.364h.114c.205-.443.515-.799.932-1.068s.954-.409 1.614-.409c.59 0 1.108.121 1.551.364s.788.602 1.034 1.091.369 1.099.369 1.841V43h-1.341v-5.455c0-.686-.178-1.22-.534-1.602s-.845-.58-1.466-.58c-.428 0-.81.093-1.148.278s-.596.456-.789.813-.29.788-.29 1.295zm10.587 5.455c-.553 0-1.055-.104-1.506-.312a2.58 2.58 0 0 1-1.074-.915c-.265-.401-.398-.886-.398-1.455 0-.5.099-.905.296-1.216s.46-.561.79-.739.693-.311 1.09-.398l1.211-.216 1.289-.153c.334-.038.576-.1.728-.187s.233-.239.233-.454v-.046c0-.561-.154-.996-.461-1.307s-.763-.466-1.38-.466c-.64 0-1.142.14-1.506.421s-.619.579-.767.898l-1.273-.455c.228-.53.531-.943.909-1.239s.8-.508 1.25-.625.902-.182 1.341-.182a5.3 5.3 0 0 1 .966.102 3.09 3.09 0 0 1 1.063.403c.344.205.63.513.858.926s.341.966.341 1.659V43h-1.341v-1.182h-.069c-.09.189-.242.392-.454.608s-.494.4-.847.551-.782.227-1.289.227zm.204-1.205c.53 0 .977-.104 1.341-.312s.644-.477.83-.807a2.06 2.06 0 0 0 .284-1.04v-1.227c-.057.068-.182.131-.375.188s-.409.1-.659.142l-.722.102-.563.068c-.348.046-.674.119-.977.222s-.541.248-.727.449-.273.466-.273.807c0 .466.173.818.517 1.057.349.235.79.352 1.324.352zm7.22 1.091a.98.98 0 0 1-.721-.301c-.201-.201-.301-.441-.301-.722s.1-.521.301-.722a.98.98 0 0 1 .721-.301c.281 0 .521.1.722.301s.301.441.301.722a.96.96 0 0 1-.142.511c-.091.155-.214.28-.369.375s-.322.136-.512.136zm6.725.091c-.728 0-1.37-.184-1.926-.551s-.993-.894-1.307-1.568-.472-1.479-.472-2.403c0-.917.157-1.712.472-2.386s.752-1.195 1.312-1.562 1.209-.551 1.943-.551c.569 0 1.018.095 1.347.284s.587.398.761.636l.415.58h.114v-4.296h1.341V43h-1.296v-1.341h-.159c-.098.159-.238.36-.42.602s-.442.453-.779.642-.786.278-1.346.278zm.182-1.205c.537 0 .992-.14 1.363-.42s.654-.676.847-1.176.29-1.085.29-1.744c0-.652-.095-1.222-.285-1.71s-.469-.875-.84-1.148-.83-.415-1.375-.415c-.569 0-1.042.146-1.421.438s-.657.68-.847 1.176-.278 1.045-.278 1.659a4.82 4.82 0 0 0 .284 1.693c.193.504.477.905.852 1.205s.849.443 1.41.443zm10.119 1.205c-.841 0-1.566-.186-2.176-.557s-1.074-.898-1.404-1.568c-.325-.674-.488-1.458-.488-2.352s.163-1.682.488-2.364c.33-.686.788-1.22 1.375-1.602s1.281-.579 2.068-.579c.455 0 .904.076 1.347.227a3.33 3.33 0 0 1 1.21.739c.364.337.654.784.87 1.341s.323 1.242.323 2.057v.568h-6.727v-1.159h5.364c0-.492-.099-.932-.296-1.318s-.469-.691-.829-.915-.777-.335-1.262-.335c-.534 0-.996.133-1.386.398s-.684.602-.892 1.023a3.01 3.01 0 0 0-.312 1.352v.773c0 .659.113 1.218.34 1.676s.552.801.961 1.04.884.352 1.426.352c.352 0 .67-.049.954-.148a2.05 2.05 0 0 0 .745-.455c.208-.205.369-.458.483-.761l1.295.364c-.136.439-.365.826-.687 1.159a3.35 3.35 0 0 1-1.194.773 4.42 4.42 0 0 1-1.596.273z" fill="#000"/><circle cx="1067.5" cy="35.5" r="7.5" fill="#fcbd2e"/><circle cx="1044.5" cy="35.5" r="7.5" fill="#fa6058"/><circle cx="1090.5" cy="35.5" r="7.5" fill="#30ca41"/><rect x="136.051" y="190.551" width="88" height="49" rx="15" transform="rotate(24.584 136.051 190.551)" fill="#f1a2a2"/><path d="M150.927 231.051c.764.35 1.427.455 1.989.316.568-.151.999-.548 1.293-1.19.244-.534.303-1.049.179-1.546-.113-.491-.446-.981-1-1.469l-1.273-1.11c-.794-.7-1.282-1.429-1.463-2.187-.176-.769-.075-1.566.302-2.391.289-.63.671-1.145 1.146-1.543.488-.393 1.074-.616 1.758-.669.696-.048 1.493.133 2.39.543a8.36 8.36 0 0 1 1.6.974 8.83 8.83 0 0 1 1.49 1.407l-1.134 1.131a10.03 10.03 0 0 0-1.332-1.269 5.71 5.71 0 0 0-1.245-.789c-.691-.316-1.297-.418-1.818-.304-.503.107-.905.487-1.204 1.142-.217.473-.273.931-.168 1.375.111.432.446.901 1.007 1.406l1.273 1.111c1.593 1.389 1.977 2.986 1.15 4.793-.477 1.043-1.18 1.747-2.11 2.113-.925.354-2.084.213-3.479-.425-.569-.261-1.145-.605-1.727-1.032a11.83 11.83 0 0 1-1.656-1.572l1.107-1.121c.509.585.991 1.054 1.445 1.409a7.56 7.56 0 0 0 1.48.897zm6.762 4.589l-1.674-.766.757-1.655 1.674.766-.757 1.655zm12.788 5.85l-7.057-3.228.549-1.2c.416-.91.875-1.624 1.376-2.142.513-.513 1.05-.884 1.608-1.112.577-.235 1.157-.365 1.741-.391l1.457-.059c.691-.036 1.272-.137 1.743-.302.484-.16.862-.537 1.134-1.131l.141-.31c.311-.679.341-1.258.092-1.739-.237-.475-.725-.882-1.465-1.22-.412-.189-.874-.334-1.384-.436-.506-.113-1.092-.177-1.761-.189l.098-1.561c.734-.001 1.407.065 2.021.199a8.61 8.61 0 0 1 1.72.567c1.345.615 2.165 1.372 2.459 2.268.299.885.221 1.824-.234 2.819l-.141.309c-.3.654-.677 1.142-1.131 1.462-.442.325-.939.545-1.49.66a9.98 9.98 0 0 1-1.649.191l-1.465.078c-.708.042-1.324.266-1.847.672-.511.412-.967 1.024-1.368 1.838l5.51 2.521-.657 1.436zm8.969 4.104l-7.057-3.229.55-1.2c.416-.909.874-1.623 1.375-2.142.514-.513 1.05-.883 1.609-1.111.576-.235 1.156-.366 1.74-.392l1.457-.059c.691-.036 1.272-.137 1.744-.302.483-.16.861-.537 1.133-1.131l.141-.309c.311-.679.342-1.259.092-1.74-.237-.475-.725-.882-1.465-1.22-.412-.188-.874-.334-1.384-.435-.505-.114-1.092-.177-1.761-.19l.098-1.561c.734-.001 1.408.065 2.021.199a8.61 8.61 0 0 1 1.72.567c1.346.616 2.165 1.372 2.459 2.269.299.884.221 1.824-.234 2.818l-.141.309c-.3.655-.677 1.142-1.131 1.462-.442.326-.939.546-1.49.66-.533.108-1.083.172-1.649.192l-1.465.077c-.708.043-1.324.267-1.847.673-.511.411-.967 1.023-1.368 1.837l5.51 2.521-.657 1.437z" fill="#000"/><defs><linearGradient id="B" x1="823.904" y1="316.159" x2="1230.53" y2="592.801" gradientUnits="userSpaceOnUse"><stop stop-color="#b5ead7"/><stop offset=".443" stop-color="#e2f0cb"/><stop offset=".672" stop-color="#e3f1cd"/><stop offset=".672" stop-color="#fff"/></linearGradient></defs></svg>