<svg xmlns="http://www.w3.org/2000/svg" width="1130" height="657" fill="none"><path d="M0 12C0 6.477 4.477 2 10 2h1110c5.52 0 10 4.477 10 10v645H0V12z" fill="#f4f4f4"/><rect x="101" y="110" width="929" height="514" rx="10" fill="#fff"/><mask id="A" maskUnits="userSpaceOnUse" x="101" y="110" width="929" height="514" mask-type="alpha"><rect x="101" y="110" width="929" height="514" rx="10" fill="#fff"/></mask><g mask="url(#A)"><path d="M1230.53 111.5c114.91 78.182 114.94 312.357 0 481.301S848.915 824.683 733.999 746.5s39.735-354.844 170-409c9.369-176 211.611-304.182 326.531-226z" fill="url(#B)"/></g><g fill="#000"><path d="M194.9 288.76v2.86c0 1.733-.407 3.1-1.22 4.1-.813.987-2.007 1.48-3.58 1.48s-2.767-.493-3.58-1.48c-.813-1-1.22-2.367-1.22-4.1v-2.86c0-1.733.407-3.093 1.22-4.08s2.007-1.48 3.58-1.48 2.767.493 3.58 1.48 1.22 2.347 1.22 4.08zm-2.42 0c0-2.227-.793-3.34-2.38-3.34-.813 0-1.413.28-1.8.84s-.58 1.393-.58 2.5v2.86c0 1.107.193 1.947.58 2.52.387.56.987.84 1.8.84 1.587 0 2.38-1.12 2.38-3.36v-2.86zm14.627 0v2.86c0 1.733-.407 3.1-1.22 4.1-.813.987-2.007 1.48-3.58 1.48s-2.767-.493-3.58-1.48c-.813-1-1.22-2.367-1.22-4.1v-2.86c0-1.733.407-3.093 1.22-4.08s2.007-1.48 3.58-1.48 2.767.493 3.58 1.48 1.22 2.347 1.22 4.08zm-2.42 0c0-2.227-.793-3.34-2.38-3.34-.813 0-1.413.28-1.8.84s-.58 1.393-.58 2.5v2.86c0 1.107.193 1.947.58 2.52.387.56.987.84 1.8.84 1.587 0 2.38-1.12 2.38-3.36v-2.86zm5.067 1.22l.4-6.58h6.96v2.26h-4.84l-.18 3a6.01 6.01 0 0 1 1.5-.18c1.32 0 2.353.347 3.1 1.04.747.68 1.12 1.687 1.12 3.02v.54c0 .747-.153 1.433-.46 2.06s-.8 1.127-1.48 1.5c-.667.373-1.553.56-2.66.56-.613 0-1.253-.073-1.92-.22-.653-.147-1.373-.393-2.16-.74l.74-2.06 1.78.62a6.24 6.24 0 0 0 1.48.18c.747 0 1.307-.153 1.68-.46.387-.307.58-.787.58-1.44v-.54c0-.587-.173-1.053-.52-1.4-.333-.347-.873-.52-1.62-.52-.333 0-.68.047-1.04.14-.36.08-.747.2-1.16.36l-1.3-1.14zm19.211 3.32c0 .733-.173 1.393-.52 1.98-.333.587-.847 1.053-1.54 1.4s-1.573.52-2.64.52c-1.053 0-1.907-.16-2.56-.48-.653-.333-1.133-.767-1.44-1.3s-.46-1.127-.46-1.78.153-1.253.46-1.8c.307-.56.813-1.073 1.52-1.54-.56-.373-.993-.833-1.3-1.38-.293-.547-.44-1.187-.44-1.92a3.75 3.75 0 0 1 .5-1.92c.333-.573.82-1.027 1.46-1.36.64-.347 1.407-.52 2.3-.52.96 0 1.767.16 2.42.48s1.14.753 1.46 1.3c.333.533.5 1.133.5 1.8a3.45 3.45 0 0 1-.42 1.66c-.267.507-.72.98-1.36 1.42 1.373.773 2.06 1.92 2.06 3.44zm-4.84-4.46l.98.3c.453-.387.767-.74.94-1.06a2.06 2.06 0 0 0 .28-1.02c0-.533-.173-.953-.52-1.26-.333-.32-.813-.48-1.44-.48s-1.113.153-1.46.46c-.333.307-.5.727-.5 1.26 0 .84.573 1.44 1.72 1.8zm-1.96 4.46c0 .533.193.967.58 1.3.387.32.933.48 1.64.48.693 0 1.233-.16 1.62-.48.4-.32.6-.747.6-1.28 0-.4-.147-.76-.44-1.08-.28-.333-.767-.607-1.46-.82l-1.08-.34c-.493.4-.86.773-1.1 1.12a1.9 1.9 0 0 0-.36 1.1zm17.892-1.66c0 1.867-.44 3.26-1.32 4.18s-2.12 1.38-3.72 1.38c-.56 0-1.14-.067-1.74-.2s-1.274-.373-2.02-.72l.86-2.06c.6.28 1.126.48 1.58.6.466.107.886.16 1.26.16.84 0 1.513-.253 2.02-.76.52-.507.78-1.367.78-2.58v-.72c-.454.413-.934.72-1.44.92-.494.2-.994.3-1.5.3-.787 0-1.48-.18-2.08-.54-.587-.36-1.04-.86-1.36-1.5s-.48-1.38-.48-2.22v-.4a4.28 4.28 0 0 1 .54-2.1c.36-.653.873-1.18 1.54-1.58s1.46-.6 2.38-.6c1.48 0 2.633.5 3.46 1.5s1.24 2.373 1.24 4.12v2.82zm-6.82-3.76c0 .613.166 1.12.5 1.52.346.387.826.58 1.44.58.946 0 1.806-.36 2.58-1.08v-.08c0-1.147-.214-2-.64-2.56-.414-.56-1.014-.84-1.8-.84-.654 0-1.167.213-1.54.64-.36.427-.54.9-.54 1.42v.4zm17.046 5.42c0 .707-.146 1.36-.44 1.96-.293.587-.766 1.06-1.42 1.42-.64.347-1.5.52-2.58.52-.613 0-1.253-.073-1.92-.22-.653-.147-1.373-.393-2.16-.74l.74-2.06 1.78.6a5.67 5.67 0 0 0 1.48.2c.707 0 1.24-.14 1.6-.42.374-.293.56-.747.56-1.36v-.28c0-.507-.16-.913-.48-1.22-.306-.32-.786-.48-1.44-.48h-2.12v-2.16h2.12c.627 0 1.087-.147 1.38-.44.294-.307.44-.7.44-1.18v-.28c0-.613-.173-1.053-.52-1.32-.333-.28-.826-.42-1.48-.42-.466 0-.94.067-1.42.2-.466.12-1.033.307-1.7.56l-.74-2.06c.747-.347 1.44-.587 2.08-.72s1.26-.2 1.86-.2c1.027 0 1.854.173 2.48.52s1.08.813 1.36 1.4c.294.587.44 1.233.44 1.94v.28c0 .627-.16 1.18-.48 1.66a3.39 3.39 0 0 1-1.22 1.12c.547.293.98.687 1.3 1.18.334.48.5 1.053.5 1.72v.28zm54.903 1.4v2.3h-7.88v-13.6h7.68v2.3h-5.28v3.26h4.68v2.3h-4.68v3.44h5.48zm8.642 1.96a5.48 5.48 0 0 1-1.2.38c-.453.107-.913.16-1.38.16-.773 0-1.393-.16-1.86-.48s-.806-.767-1.02-1.34c-.2-.573-.3-1.227-.3-1.96v-4.56h-1.64v-2h1.64v-2.64h2.3v2.64h3.16v2h-3.16v4.56c0 .613.114 1.04.34 1.28.24.227.58.34 1.02.34a4.14 4.14 0 0 0 .68-.06 5.29 5.29 0 0 0 .84-.26l.58 1.94zm6.81-7.86c-.334 0-.714.08-1.14.24s-.934.473-1.52.94V297h-2.3v-14.8h2.3v5.92c.613-.52 1.186-.893 1.72-1.12s1.08-.34 1.64-.34c.973 0 1.713.313 2.22.94.506.613.76 1.48.76 2.6v6.8h-2.3v-6.52c0-1.12-.46-1.68-1.38-1.68zm9.079-3.86h-2.42v-2.38h2.42v2.38zm-.06 12.06h-2.3v-10.14h2.3V297zm9.229 0l-2.5-4.22-1.26 1.2V297h-2.3v-14.8h2.3v9.24c.76-.773 1.413-1.513 1.96-2.22.56-.72 1.073-1.507 1.54-2.36h2.64c-.44.8-.92 1.56-1.44 2.28l-1.72 2.18 3.56 5.68h-2.78zm7.209-11.66l3.46-1.94h2V297h-2.36v-10.96l-2.04 1.12-1.06-1.82zM399.357 297v-13.6h4.14c1.013 0 1.813.147 2.4.44.6.293 1.026.707 1.28 1.24.266.533.4 1.16.4 1.88v.56a2.68 2.68 0 0 1-1.36 2.42c.64.253 1.126.62 1.46 1.1s.5 1.053.5 1.72v.56c0 .733-.134 1.38-.4 1.94-.267.547-.707.973-1.32 1.28s-1.434.46-2.46.46h-4.64zm4.14-11.4h-1.74v3.4h1.74c.533 0 .933-.12 1.2-.36.28-.253.42-.593.42-1.02v-.66c0-.427-.14-.76-.42-1-.267-.24-.667-.36-1.2-.36zm.5 5.6h-2.24v3.6h2.24c.56 0 .986-.133 1.28-.4s.44-.627.44-1.08v-.66c0-.453-.147-.807-.44-1.06-.294-.267-.72-.4-1.28-.4zm14.459 5.22c-.694.28-1.347.48-1.96.6s-1.194.18-1.74.18c-1.507 0-2.647-.427-3.42-1.28s-1.16-1.987-1.16-3.4v-1.2c0-.947.173-1.767.52-2.46a3.87 3.87 0 0 1 1.48-1.62c.64-.387 1.393-.58 2.26-.58a4.54 4.54 0 0 1 1.98.44c.626.28 1.133.727 1.52 1.34.4.6.6 1.373.6 2.32a7.28 7.28 0 0 1-.06.9 7.59 7.59 0 0 1-.2.98h-5.88c.026.827.233 1.447.62 1.86s1.006.62 1.86.62c.453 0 .92-.053 1.4-.16.493-.107 1-.267 1.52-.48l.66 1.94zm-4.02-7.82c-.614 0-1.094.2-1.44.6-.334.387-.527.947-.58 1.68h3.84a.96.96 0 0 0 .02-.18v-.18c0-.64-.18-1.12-.54-1.44a1.89 1.89 0 0 0-1.3-.48zm9.589 6.6c.494 0 .9-.08 1.22-.24.32-.173.48-.427.48-.76 0-.293-.106-.52-.32-.68-.2-.173-.566-.327-1.1-.46l-1.14-.3c-.88-.227-1.533-.607-1.96-1.14-.413-.533-.62-1.167-.62-1.9 0-.867.3-1.593.9-2.18s1.527-.88 2.78-.88a7.64 7.64 0 0 1 1.6.18c.56.12 1.147.313 1.76.58l-.66 1.96c-.56-.267-1.066-.453-1.52-.56s-.853-.16-1.2-.16c-.946 0-1.42.32-1.42.96 0 .253.08.453.24.6.174.147.487.28.94.4l1.14.3c.974.253 1.68.64 2.12 1.16.454.52.68 1.173.68 1.96 0 .933-.32 1.693-.96 2.28-.626.587-1.62.88-2.98.88-1.16 0-2.38-.267-3.66-.8l.62-1.9c.627.253 1.194.433 1.7.54s.96.16 1.36.16zm12.382 1.46c-.347.16-.747.287-1.2.38-.454.107-.914.16-1.38.16-.774 0-1.394-.16-1.86-.48s-.807-.767-1.02-1.34c-.2-.573-.3-1.227-.3-1.96v-4.56h-1.64v-2h1.64v-2.64h2.3v2.64h3.16v2h-3.16v4.56c0 .613.113 1.04.34 1.28.24.227.58.34 1.02.34.213 0 .44-.02.68-.06.253-.053.533-.14.84-.26l.58 1.94zm9.529.44c-.68 0-1.227-.14-1.64-.42-.4-.28-.694-.627-.88-1.04-.574.533-1.127.927-1.66 1.18s-1.107.38-1.72.38c-.894 0-1.554-.287-1.98-.86-.414-.573-.62-1.3-.62-2.18 0-.587.106-1.1.32-1.54.226-.453.593-.807 1.1-1.06s1.2-.38 2.08-.38c.346 0 .706.027 1.08.08l1.12.16v-1.18c0-.56-.154-.94-.46-1.14-.307-.213-.72-.32-1.24-.32-.4 0-.84.053-1.32.16-.467.107-.974.273-1.52.5l-.66-1.96c1.346-.547 2.566-.82 3.66-.82.986 0 1.746.167 2.28.5.546.333.926.773 1.14 1.32s.32 1.133.32 1.76v3.9a1.15 1.15 0 0 0 .16.58c.12.173.346.26.68.26h.22v2.12h-.46zm-6.28-2.98c0 .36.08.647.24.86.16.2.393.3.7.3s.653-.08 1.04-.24.886-.533 1.5-1.12v-.86a11.96 11.96 0 0 0-2.04-.18c-.52 0-.894.107-1.12.32-.214.213-.32.52-.32.92zm13.697-5.32c-.334 0-.714.08-1.14.24s-.934.473-1.52.94V297h-2.3v-10.14h2.18v1.36c.626-.547 1.22-.94 1.78-1.18.56-.253 1.126-.38 1.7-.38.973 0 1.713.313 2.22.94.506.613.76 1.48.76 2.6v6.8h-2.3v-6.52c0-1.12-.46-1.68-1.38-1.68zm12.659 8.2v-1.38c-.613.613-1.146 1.033-1.6 1.26a3.13 3.13 0 0 1-1.38.32c-1.093 0-1.946-.413-2.56-1.24-.6-.827-.9-1.987-.9-3.48v-1.08c0-1.453.367-2.607 1.1-3.46s1.794-1.28 3.18-1.28a5.16 5.16 0 0 1 1.02.1c.347.067.687.16 1.02.28v-4.84h2.3V297h-2.18zm-4.08-4.52c0 .893.147 1.547.44 1.96.307.413.734.62 1.28.62.307 0 .634-.087.98-.26.347-.187.767-.533 1.26-1.04v-4.64c-.653-.267-1.253-.4-1.8-.4-.773 0-1.326.24-1.66.72s-.5 1.133-.5 1.96v1.08zm17.129 3.94c-.693.28-1.346.48-1.96.6s-1.193.18-1.74.18c-1.506 0-2.646-.427-3.42-1.28s-1.16-1.987-1.16-3.4v-1.2c0-.947.174-1.767.52-2.46s.84-1.233 1.48-1.62 1.394-.58 2.26-.58c.707 0 1.367.147 1.98.44a3.42 3.42 0 0 1 1.52 1.34c.4.6.6 1.373.6 2.32a7.28 7.28 0 0 1-.06.9c-.04.307-.106.633-.2.98h-5.88c.027.827.234 1.447.62 1.86s1.007.62 1.86.62a6.42 6.42 0 0 0 1.4-.16c.494-.107 1-.267 1.52-.48l.66 1.94zm-4.02-7.82c-.613 0-1.093.2-1.44.6-.333.387-.526.947-.58 1.68h3.84c.014-.067.02-.127.02-.18v-.18c0-.64-.18-1.12-.54-1.44s-.793-.48-1.3-.48zm11.71.2c-.333 0-.713.08-1.14.24s-.933.473-1.52.94V297h-2.3v-10.14h2.18v1.36c.627-.547 1.22-.94 1.78-1.18.56-.253 1.127-.38 1.7-.38.973 0 1.713.313 2.22.94.507.613.76 1.48.76 2.6v6.8h-2.3v-6.52c0-1.12-.46-1.68-1.38-1.68zm49.383-3.46l3.46-1.94h2V297h-2.36v-10.96l-2.04 1.12-1.06-1.82zm10.168 9.28v.38c0 1.12-.127 2.187-.38 3.2-.253 1.027-.74 2.113-1.46 3.26l-1.44-.78c.293-.547.513-1.107.66-1.68.147-.56.247-1.193.3-1.9l.08-2.48h2.24zm11.703-5.86v2.86c0 1.733-.406 3.1-1.22 4.1-.813.987-2.006 1.48-3.58 1.48s-2.766-.493-3.58-1.48c-.813-1-1.22-2.367-1.22-4.1v-2.86c0-1.733.407-3.093 1.22-4.08s2.007-1.48 3.58-1.48 2.767.493 3.58 1.48 1.22 2.347 1.22 4.08zm-2.42 0c0-2.227-.793-3.34-2.38-3.34-.813 0-1.413.28-1.8.84s-.58 1.393-.58 2.5v2.86c0 1.107.194 1.947.58 2.52.387.56.987.84 1.8.84 1.587 0 2.38-1.12 2.38-3.36v-2.86z"/><path d="M183.82 200v-20.4h3.3a78.47 78.47 0 0 1 4.5 6.54 73.07 73.07 0 0 1 3.87 7.05l-.27-6.09v-7.5h3.45V200h-3.3l-3.99-7.59a76.87 76.87 0 0 0-4.35-7.23l.24 7.02v7.8h-3.45zm32.479-8.52v1.8c0 2.12-.58 3.82-1.74 5.1s-2.8 1.92-4.92 1.92-3.76-.64-4.92-1.92-1.74-2.98-1.74-5.1v-1.8c0-2.12.57-3.81 1.71-5.07 1.16-1.28 2.81-1.92 4.95-1.92s3.78.64 4.92 1.92c1.16 1.26 1.74 2.95 1.74 5.07zm-3.54 0c0-1.22-.27-2.17-.81-2.85-.54-.7-1.31-1.05-2.31-1.05s-1.77.35-2.31 1.05c-.54.68-.81 1.63-.81 2.85v1.8c0 1.22.27 2.18.81 2.88s1.31 1.05 2.31 1.05 1.77-.35 2.31-1.05.81-1.66.81-2.88v-1.8zm16.558 8.01a8.28 8.28 0 0 1-1.8.57 9.01 9.01 0 0 1-2.07.24c-1.16 0-2.09-.24-2.79-.72s-1.21-1.15-1.53-2.01c-.3-.86-.45-1.84-.45-2.94v-6.84h-2.46v-3h2.46v-3.96h3.45v3.96h4.74v3h-4.74v6.84c0 .92.17 1.56.51 1.92.36.34.87.51 1.53.51.32 0 .66-.03 1.02-.09.38-.08.8-.21 1.26-.39l.87 2.91zm14.324-.36c-1.04.42-2.02.72-2.94.9s-1.79.27-2.61.27c-2.26 0-3.97-.64-5.13-1.92s-1.74-2.98-1.74-5.1v-1.8c0-1.42.26-2.65.78-3.69s1.26-1.85 2.22-2.43 2.09-.87 3.39-.87c1.06 0 2.05.22 2.97.66.94.42 1.7 1.09 2.28 2.01.6.9.9 2.06.9 3.48 0 .42-.03.87-.09 1.35a11.3 11.3 0 0 1-.3 1.47h-8.82c.04 1.24.35 2.17.93 2.79s1.51.93 2.79.93a9.67 9.67 0 0 0 2.1-.24c.74-.16 1.5-.4 2.28-.72l.99 2.91zm-6.03-11.73c-.92 0-1.64.3-2.16.9-.5.58-.79 1.42-.87 2.52h5.76a1.39 1.39 0 0 0 .03-.27v-.27c0-.96-.27-1.68-.81-2.16s-1.19-.72-1.95-.72zm17.564.3c-.5 0-1.07.12-1.71.36s-1.4.71-2.28 1.41V200h-3.45v-15.21h3.27v2.04c.94-.82 1.83-1.41 2.67-1.77.84-.38 1.69-.57 2.55-.57 1.46 0 2.57.47 3.33 1.41.76.92 1.14 2.22 1.14 3.9V200h-3.45v-9.78c0-1.68-.69-2.52-2.07-2.52zm14.34 9.6c.74 0 1.35-.12 1.83-.36.48-.26.72-.64.72-1.14 0-.44-.16-.78-.48-1.02-.3-.26-.85-.49-1.65-.69l-1.71-.45c-1.32-.34-2.3-.91-2.94-1.71-.62-.8-.93-1.75-.93-2.85 0-1.3.45-2.39 1.35-3.27s2.29-1.32 4.17-1.32c.76 0 1.56.09 2.4.27s1.72.47 2.64.87l-.99 2.94c-.84-.4-1.6-.68-2.28-.84s-1.28-.24-1.8-.24c-1.42 0-2.13.48-2.13 1.44 0 .38.12.68.36.9.26.22.73.42 1.41.6l1.71.45c1.46.38 2.52.96 3.18 1.74.68.78 1.02 1.76 1.02 2.94 0 1.4-.48 2.54-1.44 3.42-.94.88-2.43 1.32-4.47 1.32-1.74 0-3.57-.4-5.49-1.2l.93-2.85c.94.38 1.79.65 2.55.81s1.44.24 2.04.24zm15.931 3a8.09 8.09 0 0 1-1.53-.15c-.5-.1-1.01-.24-1.53-.42v6.66h-3.45v-21.6h3.27v2.07c.94-.94 1.74-1.57 2.4-1.89s1.35-.48 2.07-.48c1.66 0 2.94.62 3.84 1.86s1.35 2.98 1.35 5.22v1.62c0 2.18-.55 3.91-1.65 5.19s-2.69 1.92-4.77 1.92zm.3-12.6c-.46 0-.95.14-1.47.42-.5.26-1.13.77-1.89 1.53v6.96c.98.4 1.88.6 2.7.6 1.16 0 1.99-.36 2.49-1.08s.75-1.7.75-2.94v-1.62c0-1.34-.23-2.32-.69-2.94-.44-.62-1.07-.93-1.89-.93zm13.664-5.79h-3.63v-3.57h3.63v3.57zm-.09 18.09h-3.45v-15.21h3.45V200zm16.303-.87c-1.04.42-2.02.72-2.94.9s-1.79.27-2.61.27c-2.26 0-3.97-.64-5.13-1.92s-1.74-2.98-1.74-5.1v-1.8c0-1.42.26-2.65.78-3.69s1.26-1.85 2.22-2.43 2.09-.87 3.39-.87c1.06 0 2.05.22 2.97.66.94.42 1.7 1.09 2.28 2.01.6.9.9 2.06.9 3.48 0 .42-.03.87-.09 1.35a11.3 11.3 0 0 1-.3 1.47h-8.82c.04 1.24.35 2.17.93 2.79s1.51.93 2.79.93a9.67 9.67 0 0 0 2.1-.24c.74-.16 1.5-.4 2.28-.72l.99 2.91zm-6.03-11.73c-.92 0-1.64.3-2.16.9-.5.58-.79 1.42-.87 2.52h5.76a1.39 1.39 0 0 0 .03-.27v-.27c0-.96-.27-1.68-.81-2.16s-1.19-.72-1.95-.72zm22.755 14.13c0 1.62-.64 2.88-1.92 3.78-1.26.92-3.02 1.38-5.28 1.38-1.06 0-2.18-.12-3.36-.36s-2.27-.64-3.27-1.2l.99-2.73c.96.48 1.91.82 2.85 1.02.94.22 1.86.33 2.76.33 1.26 0 2.22-.17 2.88-.51s.99-.79.99-1.35c0-.86-.51-1.29-1.53-1.29h-3.6c-.98 0-1.77-.16-2.37-.48s-1.04-.73-1.32-1.23c-.28-.52-.42-1.06-.42-1.62 0-.58.12-1.12.36-1.62.26-.52.61-1 1.05-1.44-.72-.44-1.3-1.03-1.74-1.77-.42-.74-.63-1.63-.63-2.67 0-1.18.25-2.16.75-2.94s1.18-1.36 2.04-1.74c.88-.4 1.85-.6 2.91-.6h.51a7.49 7.49 0 0 1 1.17.09c.38.04.74.11 1.08.21h5.43v2.94l-3-.48c.3.32.53.72.69 1.2.18.46.27 1.03.27 1.71 0 1.02-.26 1.9-.78 2.64-.5.72-1.18 1.28-2.04 1.68-.84.38-1.78.57-2.82.57h-.51a6.93 6.93 0 0 1-1.14-.09 2.38 2.38 0 0 0-.48.75c-.1.24-.15.47-.15.69 0 .7.45 1.05 1.35 1.05h3.66c1.38 0 2.49.36 3.33 1.08.86.7 1.29 1.7 1.29 3zm-7.35-9.3c.62 0 1.16-.21 1.62-.63.48-.42.72-1.03.72-1.83s-.24-1.41-.72-1.83c-.46-.42-1-.63-1.62-.63h-.51a2.47 2.47 0 0 0-1.68.63c-.46.42-.69 1.03-.69 1.83s.23 1.41.69 1.83a2.47 2.47 0 0 0 1.68.63h.51zm22.207 6.9c-1.04.42-2.02.72-2.94.9s-1.79.27-2.61.27c-2.26 0-3.97-.64-5.13-1.92s-1.74-2.98-1.74-5.1v-1.8c0-1.42.26-2.65.78-3.69s1.26-1.85 2.22-2.43 2.09-.87 3.39-.87c1.06 0 2.05.22 2.97.66.94.42 1.7 1.09 2.28 2.01.6.9.9 2.06.9 3.48 0 .42-.03.87-.09 1.35a11.3 11.3 0 0 1-.3 1.47h-8.82c.04 1.24.35 2.17.93 2.79s1.51.93 2.79.93a9.67 9.67 0 0 0 2.1-.24c.74-.16 1.5-.4 2.28-.72l.99 2.91zm-6.03-11.73c-.92 0-1.64.3-2.16.9-.5.58-.79 1.42-.87 2.52h5.76a1.39 1.39 0 0 0 .03-.27v-.27c0-.96-.27-1.68-.81-2.16s-1.19-.72-1.95-.72zm10.035 8.31V177.8h3.45v17.91c0 .3.07.59.21.87.16.26.46.39.9.39h.48v3.18h-.84c-1.14 0-2.01-.22-2.61-.66s-1.02-1-1.26-1.68a6.78 6.78 0 0 1-.33-2.1z"/></g><path d="M0 10C0 4.477 4.477 0 10 0h1110c5.52 0 10 4.477 10 10v65H0V10z" fill="#fff"/><rect x="18" y="17" width="627" height="38" rx="10" fill="#f4f4f4"/><path d="M45.205 43l-2.659-8.727h1.409l1.886 6.682h.091l1.864-6.682h1.432l1.841 6.659h.091l1.886-6.659h1.409L51.796 43h-1.318l-1.909-6.705h-.136L46.523 43h-1.318zm13 0l-2.659-8.727h1.409l1.886 6.682h.091l1.864-6.682h1.432l1.841 6.659h.091l1.886-6.659h1.409L64.796 43h-1.318l-1.909-6.705h-.136L59.523 43h-1.318zm13 0l-2.659-8.727h1.409l1.886 6.682h.091l1.864-6.682h1.432l1.841 6.659h.091l1.886-6.659h1.409L77.796 43h-1.318l-1.909-6.705h-.136L72.523 43h-1.318zm10.813.091c-.28 0-.521-.1-.721-.301s-.301-.441-.301-.722.1-.521.301-.722.441-.301.721-.301.521.1.722.301.301.441.301.722c0 .186-.047.356-.142.511a1.06 1.06 0 0 1-.369.375c-.151.091-.322.136-.511.136zM85.446 43v-8.727h1.296v1.364h.114c.182-.466.475-.828.881-1.085s.892-.392 1.46-.392c.576 0 1.055.131 1.438.392s.688.619.903 1.085h.091c.224-.451.559-.809 1.006-1.074s.983-.403 1.608-.403c.78 0 1.418.244 1.915.733s.744 1.241.744 2.267V43H95.56v-5.841c0-.644-.176-1.104-.529-1.381s-.767-.415-1.244-.415c-.614 0-1.089.186-1.426.557s-.506.833-.506 1.398V43h-1.364v-5.977c0-.496-.161-.896-.483-1.199s-.737-.46-1.244-.46a1.84 1.84 0 0 0-.977.278c-.299.186-.542.443-.727.773a2.28 2.28 0 0 0-.273 1.131V43h-1.341zm17.452.182c-.788 0-1.479-.187-2.074-.562s-1.053-.9-1.386-1.574-.494-1.462-.494-2.364c0-.909.165-1.703.494-2.381s.796-1.204 1.386-1.579 1.286-.562 2.074-.562 1.477.188 2.068.563 1.057.901 1.386 1.579.5 1.472.5 2.381c0 .901-.166 1.689-.5 2.364s-.791 1.199-1.386 1.574-1.28.563-2.068.563zm0-1.205c.598 0 1.091-.153 1.477-.46s.672-.71.858-1.21.278-1.042.278-1.625-.092-1.127-.278-1.631-.472-.911-.858-1.222-.879-.466-1.477-.466-1.091.155-1.478.466-.672.718-.858 1.222-.278 1.047-.278 1.631.093 1.125.278 1.625.472.903.858 1.21.879.46 1.478.46zm9.547 1.205c-.788 0-1.48-.187-2.074-.562s-1.053-.9-1.387-1.574c-.329-.674-.494-1.462-.494-2.364 0-.909.165-1.703.494-2.381.334-.678.796-1.204 1.387-1.579s1.286-.562 2.074-.562 1.477.188 2.068.563 1.057.901 1.386 1.579.5 1.472.5 2.381c0 .901-.167 1.689-.5 2.364s-.792 1.199-1.386 1.574-1.281.563-2.068.563zm0-1.205c.598 0 1.091-.153 1.477-.46s.672-.71.858-1.21.278-1.042.278-1.625-.093-1.127-.278-1.631-.472-.911-.858-1.222-.879-.466-1.477-.466-1.091.155-1.478.466-.672.718-.858 1.222-.278 1.047-.278 1.631.093 1.125.278 1.625.472.903.858 1.21.879.46 1.478.46zm9.296 1.205c-.727 0-1.369-.184-1.926-.551s-.992-.894-1.306-1.568-.472-1.479-.472-2.403c0-.917.157-1.712.472-2.386s.751-1.195 1.312-1.562 1.208-.551 1.943-.551c.568 0 1.017.095 1.347.284s.587.398.761.636l.415.58h.114v-4.296h1.34V43h-1.295v-1.341h-.159a8.77 8.77 0 0 1-.421.602c-.181.239-.441.453-.778.642s-.786.278-1.347.278zm.182-1.205c.538 0 .993-.14 1.364-.42s.653-.676.847-1.176.289-1.085.289-1.744c0-.652-.094-1.222-.284-1.71s-.469-.875-.841-1.148-.829-.415-1.375-.415c-.568 0-1.041.146-1.42.438s-.657.68-.847 1.176-.278 1.045-.278 1.659a4.82 4.82 0 0 0 .284 1.693c.193.504.477.905.852 1.205s.849.443 1.409.443zm7.801-10.614V43h-1.34V31.364h1.34zm6.115 11.818c-.84 0-1.566-.186-2.176-.557s-1.074-.898-1.403-1.568-.489-1.458-.489-2.352.163-1.682.489-2.364.788-1.22 1.375-1.602 1.28-.579 2.068-.579c.455 0 .904.076 1.347.227a3.34 3.34 0 0 1 1.21.739c.364.337.653.784.869 1.341s.324 1.242.324 2.057v.568h-6.727v-1.159h5.363c0-.492-.098-.932-.295-1.318s-.47-.691-.83-.915-.776-.335-1.261-.335c-.534 0-.996.133-1.386.398s-.684.602-.892 1.023-.313.871-.313 1.352v.773c0 .659.114 1.218.341 1.676s.551.801.96 1.04.885.352 1.426.352a2.9 2.9 0 0 0 .955-.148c.288-.102.536-.254.744-.455s.37-.458.483-.761l1.296.364a2.88 2.88 0 0 1-.688 1.159c-.322.329-.719.587-1.193.773s-1.006.273-1.597.273zm6.631-.091a.98.98 0 0 1-.721-.301c-.201-.201-.302-.441-.302-.722s.101-.521.302-.722a.98.98 0 0 1 .721-.301c.28 0 .521.1.722.301s.301.441.301.722a.96.96 0 0 1-.142.511c-.091.155-.214.28-.369.375s-.322.136-.512.136zm8.929-3.659v-5.159h1.341V43h-1.341v-1.477h-.091c-.204.443-.522.82-.954 1.131s-.978.46-1.637.46c-.545 0-1.03-.119-1.454-.358s-.758-.606-1-1.091-.364-1.104-.364-1.847v-5.545h1.341v5.455c0 .636.178 1.144.534 1.523s.818.568 1.375.568c.333 0 .672-.085 1.017-.256s.64-.432.875-.784.358-.801.358-1.347zm5.138-1.682V43h-1.341v-8.727h1.295v1.364h.114c.205-.443.515-.799.932-1.068s.954-.409 1.614-.409c.59 0 1.108.121 1.551.364s.788.602 1.034 1.091.369 1.099.369 1.841V43h-1.341v-5.455c0-.686-.178-1.22-.534-1.602s-.845-.58-1.466-.58c-.428 0-.81.093-1.148.278s-.596.456-.789.813-.29.788-.29 1.295zm8.018 5.25v-8.727h1.341V43h-1.341zm.682-10.182a.95.95 0 0 1-.676-.267c-.186-.178-.278-.392-.278-.642s.092-.464.278-.642.415-.267.676-.267.485.089.671.267a.85.85 0 0 1 .284.642.85.85 0 0 1-.284.642c-.186.178-.409.267-.671.267zm8.115 4.568v1.25h-5.091v-1.25h5.091zm2.36-3.114h1.341v9.364c0 .538-.093 1.004-.279 1.398s-.458.699-.829.915-.832.324-1.392.324h-.137-.136v-1.25h.125.125c.409 0 .708-.121.898-.364s.284-.58.284-1.023v-9.364zm.659-1.455a.95.95 0 0 1-.676-.267c-.186-.178-.279-.392-.279-.642s.093-.464.279-.642a.95.95 0 0 1 .676-.267.93.93 0 0 1 .67.267c.19.178.284.392.284.642s-.094.464-.284.642a.93.93 0 0 1-.67.267zm6.797 10.364c-.841 0-1.567-.186-2.177-.557a3.74 3.74 0 0 1-1.403-1.568c-.326-.674-.489-1.458-.489-2.352s.163-1.682.489-2.364.788-1.22 1.375-1.602 1.28-.579 2.068-.579c.455 0 .904.076 1.347.227a3.34 3.34 0 0 1 1.21.739c.364.337.653.784.869 1.341s.324 1.242.324 2.057v.568h-6.727v-1.159h5.364c0-.492-.099-.932-.296-1.318a2.23 2.23 0 0 0-.829-.915c-.356-.224-.777-.335-1.262-.335-.534 0-.996.133-1.386.398s-.684.602-.892 1.023a3.01 3.01 0 0 0-.313 1.352v.773c0 .659.114 1.218.341 1.676s.551.801.96 1.04.885.352 1.427.352c.352 0 .67-.049.954-.148s.536-.254.744-.455.37-.458.483-.761l1.296.364a2.87 2.87 0 0 1-.688 1.159c-.322.329-.719.587-1.193.773a4.42 4.42 0 0 1-1.596.273zm6.994-5.432V43h-1.341v-8.727h1.295v1.364h.114c.205-.443.515-.799.932-1.068s.954-.409 1.614-.409c.59 0 1.108.121 1.551.364s.788.602 1.034 1.091.369 1.099.369 1.841V43h-1.341v-5.455c0-.686-.178-1.22-.534-1.602s-.845-.58-1.466-.58c-.428 0-.81.093-1.148.278s-.596.456-.789.813-.29.788-.29 1.295zm10.587 5.455c-.553 0-1.055-.104-1.506-.312a2.58 2.58 0 0 1-1.074-.915c-.265-.401-.398-.886-.398-1.455 0-.5.099-.905.296-1.216s.46-.561.79-.739.693-.311 1.09-.398l1.211-.216 1.289-.153c.334-.038.576-.1.728-.187s.233-.239.233-.454v-.046c0-.561-.154-.996-.461-1.307s-.763-.466-1.38-.466c-.64 0-1.142.14-1.506.421s-.619.579-.767.898l-1.273-.455c.228-.53.531-.943.909-1.239s.8-.508 1.25-.625.902-.182 1.341-.182a5.3 5.3 0 0 1 .966.102 3.09 3.09 0 0 1 1.063.403c.344.205.63.513.858.926s.341.966.341 1.659V43h-1.341v-1.182h-.069c-.09.189-.242.392-.454.608s-.494.4-.847.551-.782.227-1.289.227zm.204-1.205c.53 0 .977-.104 1.341-.312s.644-.477.83-.807a2.06 2.06 0 0 0 .284-1.04v-1.227c-.057.068-.182.131-.375.188s-.409.1-.659.142l-.722.102-.563.068c-.348.046-.674.119-.977.222s-.541.248-.727.449-.273.466-.273.807c0 .466.173.818.517 1.057.349.235.79.352 1.324.352zm7.22 1.091a.98.98 0 0 1-.721-.301c-.201-.201-.301-.441-.301-.722s.1-.521.301-.722a.98.98 0 0 1 .721-.301c.281 0 .521.1.722.301s.301.441.301.722a.96.96 0 0 1-.142.511c-.091.155-.214.28-.369.375s-.322.136-.512.136zm6.725.091c-.728 0-1.37-.184-1.926-.551s-.993-.894-1.307-1.568-.472-1.479-.472-2.403c0-.917.157-1.712.472-2.386s.752-1.195 1.312-1.562 1.209-.551 1.943-.551c.569 0 1.018.095 1.347.284s.587.398.761.636l.415.58h.114v-4.296h1.341V43h-1.296v-1.341h-.159c-.098.159-.238.36-.42.602s-.442.453-.779.642-.786.278-1.346.278zm.182-1.205c.537 0 .992-.14 1.363-.42s.654-.676.847-1.176.29-1.085.29-1.744c0-.652-.095-1.222-.285-1.71s-.469-.875-.84-1.148-.83-.415-1.375-.415c-.569 0-1.042.146-1.421.438s-.657.68-.847 1.176-.278 1.045-.278 1.659a4.82 4.82 0 0 0 .284 1.693c.193.504.477.905.852 1.205s.849.443 1.41.443zm10.119 1.205c-.841 0-1.566-.186-2.176-.557s-1.074-.898-1.404-1.568c-.325-.674-.488-1.458-.488-2.352s.163-1.682.488-2.364c.33-.686.788-1.22 1.375-1.602s1.281-.579 2.068-.579c.455 0 .904.076 1.347.227a3.33 3.33 0 0 1 1.21.739c.364.337.654.784.87 1.341s.323 1.242.323 2.057v.568h-6.727v-1.159h5.364c0-.492-.099-.932-.296-1.318s-.469-.691-.829-.915-.777-.335-1.262-.335c-.534 0-.996.133-1.386.398s-.684.602-.892 1.023a3.01 3.01 0 0 0-.312 1.352v.773c0 .659.113 1.218.34 1.676s.552.801.961 1.04.884.352 1.426.352c.352 0 .67-.049.954-.148a2.05 2.05 0 0 0 .745-.455c.208-.205.369-.458.483-.761l1.295.364c-.136.439-.365.826-.687 1.159a3.35 3.35 0 0 1-1.194.773 4.42 4.42 0 0 1-1.596.273z" fill="#000"/><circle cx="1067.5" cy="35.5" r="7.5" fill="#fcbd2e"/><circle cx="1044.5" cy="35.5" r="7.5" fill="#fa6058"/><circle cx="1090.5" cy="35.5" r="7.5" fill="#30ca41"/><path d="M186.43 165.048c.588 0 1.041-.126 1.358-.378.317-.261.476-.639.476-1.134 0-.411-.112-.756-.336-1.036-.215-.28-.569-.495-1.064-.644l-1.134-.336c-.709-.215-1.232-.537-1.568-.966-.336-.439-.504-.975-.504-1.61 0-.485.093-.924.28-1.316a2.18 2.18 0 0 1 .924-.938c.429-.233.989-.35 1.68-.35.42 0 .854.051 1.302.154a6.11 6.11 0 0 1 1.358.462l-.392 1.05c-.448-.196-.854-.336-1.218-.42-.355-.093-.695-.14-1.022-.14-.532 0-.947.112-1.246.336-.289.215-.434.574-.434 1.078 0 .364.098.672.294.924.196.243.546.443 1.05.602l1.134.336c1.419.42 2.128 1.325 2.128 2.716 0 .803-.243 1.456-.728 1.96-.485.495-1.265.742-2.338.742a6.88 6.88 0 0 1-1.4-.154c-.485-.112-.989-.285-1.512-.518l.378-1.036c.495.224.938.383 1.33.476a5.32 5.32 0 0 0 1.204.14zm11.618-4.858v2.086c0 1.185-.299 2.128-.896 2.828-.588.691-1.437 1.036-2.548 1.036s-1.965-.345-2.562-1.036c-.588-.7-.882-1.643-.882-2.828v-2.086c0-1.176.294-2.109.882-2.8.597-.7 1.451-1.05 2.562-1.05s1.96.35 2.548 1.05c.597.691.896 1.624.896 2.8zm-1.26 0c0-.868-.187-1.535-.56-2.002-.364-.476-.905-.714-1.624-.714-.709 0-1.251.238-1.624.714-.373.467-.56 1.134-.56 2.002v2.086c0 .877.187 1.554.56 2.03s.915.714 1.624.714c.719 0 1.26-.238 1.624-.714.373-.476.56-1.153.56-2.03v-2.086zm8.856 4.676V166h-6.006v-.98l4.41-7.392h-4.27v-1.148h5.726v.994l-4.424 7.392h4.564zm3.232 1.134h-1.218v-9.52h1.218V166zm8.019 0l-.714-2.212h-3.612l-.714 2.212h-1.19l3.164-9.52h1.148l3.178 9.52h-1.26zm-3.444-4.956l-.532 1.638h2.898l-.532-1.638-.91-2.94-.924 2.94zm11.692 3.822V166h-5.208v-9.52h1.218v8.386h3.99zm7.194 0V166h-5.32v-9.52h5.18v1.148h-3.962v2.982h3.542v1.148h-3.542v3.108h4.102zM242.544 166l-.714-2.212h-3.612l-.714 2.212h-1.19l3.164-9.52h1.148l3.178 9.52h-1.26zm-3.444-4.956l-.532 1.638h2.898l-.532-1.638-.91-2.94-.924 2.94zm7.702 1.232V166h-1.218v-9.52h2.982c.896 0 1.586.238 2.072.714.494.467.742 1.092.742 1.876v.602c0 .56-.131 1.045-.392 1.456a2.24 2.24 0 0 1-1.092.91l1.12 1.96.952 2.002h-1.4a31.55 31.55 0 0 0-1.862-3.724h-1.904zm1.764-4.676h-1.764v3.556h1.764c.476 0 .854-.131 1.134-.392.28-.271.42-.635.42-1.092v-.602c0-.467-.14-.826-.42-1.078-.28-.261-.658-.392-1.134-.392zm5.426 8.4v-9.52h2.8c.914 0 1.586.224 2.016.672.438.439.658 1.031.658 1.778v.308c0 .411-.094.775-.28 1.092s-.458.569-.812.756c.494.159.868.42 1.12.784.261.355.392.784.392 1.288v.308c0 .765-.224 1.381-.672 1.848-.439.457-1.13.686-2.072.686h-3.15zm2.8-8.4h-1.582v3.01h1.582c.466 0 .816-.117 1.05-.35.242-.243.364-.574.364-.994v-.336c0-.411-.122-.733-.364-.966-.234-.243-.584-.364-1.05-.364zm.35 4.13h-1.932v3.164h1.932c.494 0 .863-.126 1.106-.378.252-.252.378-.602.378-1.05v-.336c0-.429-.126-.77-.378-1.022-.243-.252-.612-.378-1.106-.378zm10.359 3.136V166h-5.32v-9.52h5.18v1.148h-3.962v2.982h3.542v1.148h-3.542v3.108h4.102zm3.336 1.134h-1.218v-9.52h1.218V166zm1.677-8.372v-1.148h6.762v1.148h-2.772V166h-1.218v-8.372h-2.772z" fill="#000"/><defs><linearGradient id="B" x1="823.904" y1="316.159" x2="1230.53" y2="592.801" gradientUnits="userSpaceOnUse"><stop stop-color="#b5ead7"/><stop offset=".443" stop-color="#e2f0cb"/><stop offset=".672" stop-color="#e3f1cd"/><stop offset=".672" stop-color="#fff"/></linearGradient></defs></svg>