<svg width="1130" height="657" viewBox="0 0 1130 657" fill="none" xmlns="http://www.w3.org/2000/svg">
<path d="M0 12C0 6.47716 4.47715 2 10 2H1120C1125.52 2 1130 6.47715 1130 12V657H0V12Z" fill="#F4F4F4"/>
<rect x="101" y="110" width="929" height="514" rx="10" fill="white"/>
<mask id="mask0_936_2" style="mask-type:alpha" maskUnits="userSpaceOnUse" x="101" y="110" width="929" height="514">
<rect x="101" y="110" width="929" height="514" rx="10" fill="white"/>
</mask>
<g mask="url(#mask0_936_2)">
<path d="M1230.53 111.5C1345.44 189.682 1345.47 423.857 1230.53 592.801C1115.59 761.745 848.915 824.683 733.999 746.5C619.083 668.318 773.734 391.656 903.999 337.5C913.368 161.5 1115.61 33.3176 1230.53 111.5Z" fill="url(#paint0_linear_936_2)"/>
</g>
<path d="M194.9 288.76V291.62C194.9 293.353 194.493 294.72 193.68 295.72C192.867 296.707 191.673 297.2 190.1 297.2C188.527 297.2 187.333 296.707 186.52 295.72C185.707 294.72 185.3 293.353 185.3 291.62V288.76C185.3 287.027 185.707 285.667 186.52 284.68C187.333 283.693 188.527 283.2 190.1 283.2C191.673 283.2 192.867 283.693 193.68 284.68C194.493 285.667 194.9 287.027 194.9 288.76ZM192.48 288.76C192.48 286.533 191.687 285.42 190.1 285.42C189.287 285.42 188.687 285.7 188.3 286.26C187.913 286.82 187.72 287.653 187.72 288.76V291.62C187.72 292.727 187.913 293.567 188.3 294.14C188.687 294.7 189.287 294.98 190.1 294.98C191.687 294.98 192.48 293.86 192.48 291.62V288.76ZM207.107 288.76V291.62C207.107 293.353 206.7 294.72 205.887 295.72C205.074 296.707 203.88 297.2 202.307 297.2C200.734 297.2 199.54 296.707 198.727 295.72C197.914 294.72 197.507 293.353 197.507 291.62V288.76C197.507 287.027 197.914 285.667 198.727 284.68C199.54 283.693 200.734 283.2 202.307 283.2C203.88 283.2 205.074 283.693 205.887 284.68C206.7 285.667 207.107 287.027 207.107 288.76ZM204.687 288.76C204.687 286.533 203.894 285.42 202.307 285.42C201.494 285.42 200.894 285.7 200.507 286.26C200.12 286.82 199.927 287.653 199.927 288.76V291.62C199.927 292.727 200.12 293.567 200.507 294.14C200.894 294.7 201.494 294.98 202.307 294.98C203.894 294.98 204.687 293.86 204.687 291.62V288.76ZM209.754 289.98L210.154 283.4H217.114V285.66H212.274L212.094 288.66C212.561 288.54 213.061 288.48 213.594 288.48C214.914 288.48 215.947 288.827 216.694 289.52C217.441 290.2 217.814 291.207 217.814 292.54V293.08C217.814 293.827 217.661 294.513 217.354 295.14C217.047 295.767 216.554 296.267 215.874 296.64C215.207 297.013 214.321 297.2 213.214 297.2C212.601 297.2 211.961 297.127 211.294 296.98C210.641 296.833 209.921 296.587 209.134 296.24L209.874 294.18C210.581 294.46 211.174 294.667 211.654 294.8C212.147 294.92 212.641 294.98 213.134 294.98C213.881 294.98 214.441 294.827 214.814 294.52C215.201 294.213 215.394 293.733 215.394 293.08V292.54C215.394 291.953 215.221 291.487 214.874 291.14C214.541 290.793 214.001 290.62 213.254 290.62C212.921 290.62 212.574 290.667 212.214 290.76C211.854 290.84 211.467 290.96 211.054 291.12L209.754 289.98ZM228.965 293.3C228.965 294.033 228.792 294.693 228.445 295.28C228.112 295.867 227.598 296.333 226.905 296.68C226.212 297.027 225.332 297.2 224.265 297.2C223.212 297.2 222.358 297.04 221.705 296.72C221.052 296.387 220.572 295.953 220.265 295.42C219.958 294.887 219.805 294.293 219.805 293.64C219.805 292.987 219.958 292.387 220.265 291.84C220.572 291.28 221.078 290.767 221.785 290.3C221.225 289.927 220.792 289.467 220.485 288.92C220.192 288.373 220.045 287.733 220.045 287C220.045 286.293 220.212 285.653 220.545 285.08C220.878 284.507 221.365 284.053 222.005 283.72C222.645 283.373 223.412 283.2 224.305 283.2C225.265 283.2 226.072 283.36 226.725 283.68C227.378 284 227.865 284.433 228.185 284.98C228.518 285.513 228.685 286.113 228.685 286.78C228.685 287.367 228.545 287.92 228.265 288.44C227.998 288.947 227.545 289.42 226.905 289.86C228.278 290.633 228.965 291.78 228.965 293.3ZM224.125 288.84L225.105 289.14C225.558 288.753 225.872 288.4 226.045 288.08C226.232 287.747 226.325 287.407 226.325 287.06C226.325 286.527 226.152 286.107 225.805 285.8C225.472 285.48 224.992 285.32 224.365 285.32C223.738 285.32 223.252 285.473 222.905 285.78C222.572 286.087 222.405 286.507 222.405 287.04C222.405 287.88 222.978 288.48 224.125 288.84ZM222.165 293.3C222.165 293.833 222.358 294.267 222.745 294.6C223.132 294.92 223.678 295.08 224.385 295.08C225.078 295.08 225.618 294.92 226.005 294.6C226.405 294.28 226.605 293.853 226.605 293.32C226.605 292.92 226.458 292.56 226.165 292.24C225.885 291.907 225.398 291.633 224.705 291.42L223.625 291.08C223.132 291.48 222.765 291.853 222.525 292.2C222.285 292.547 222.165 292.913 222.165 293.3ZM240.057 291.64C240.057 293.507 239.617 294.9 238.737 295.82C237.857 296.74 236.617 297.2 235.017 297.2C234.457 297.2 233.877 297.133 233.277 297C232.677 296.867 232.003 296.627 231.257 296.28L232.117 294.22C232.717 294.5 233.243 294.7 233.697 294.82C234.163 294.927 234.583 294.98 234.957 294.98C235.797 294.98 236.47 294.727 236.977 294.22C237.497 293.713 237.757 292.853 237.757 291.64V290.92C237.303 291.333 236.823 291.64 236.317 291.84C235.823 292.04 235.323 292.14 234.817 292.14C234.03 292.14 233.337 291.96 232.737 291.6C232.15 291.24 231.697 290.74 231.377 290.1C231.057 289.46 230.897 288.72 230.897 287.88V287.48C230.897 286.733 231.077 286.033 231.437 285.38C231.797 284.727 232.31 284.2 232.977 283.8C233.643 283.4 234.437 283.2 235.357 283.2C236.837 283.2 237.99 283.7 238.817 284.7C239.643 285.7 240.057 287.073 240.057 288.82V291.64ZM233.237 287.88C233.237 288.493 233.403 289 233.737 289.4C234.083 289.787 234.563 289.98 235.177 289.98C236.123 289.98 236.983 289.62 237.757 288.9V288.82C237.757 287.673 237.543 286.82 237.117 286.26C236.703 285.7 236.103 285.42 235.317 285.42C234.663 285.42 234.15 285.633 233.777 286.06C233.417 286.487 233.237 286.96 233.237 287.48V287.88ZM250.283 293.3C250.283 294.007 250.137 294.66 249.843 295.26C249.55 295.847 249.077 296.32 248.423 296.68C247.783 297.027 246.923 297.2 245.843 297.2C245.23 297.2 244.59 297.127 243.923 296.98C243.27 296.833 242.55 296.587 241.763 296.24L242.503 294.18C243.21 294.433 243.803 294.633 244.283 294.78C244.777 294.913 245.27 294.98 245.763 294.98C246.47 294.98 247.003 294.84 247.363 294.56C247.737 294.267 247.923 293.813 247.923 293.2V292.92C247.923 292.413 247.763 292.007 247.443 291.7C247.137 291.38 246.657 291.22 246.003 291.22H243.883V289.06H246.003C246.63 289.06 247.09 288.913 247.383 288.62C247.677 288.313 247.823 287.92 247.823 287.44V287.16C247.823 286.547 247.65 286.107 247.303 285.84C246.97 285.56 246.477 285.42 245.823 285.42C245.357 285.42 244.883 285.487 244.403 285.62C243.937 285.74 243.37 285.927 242.703 286.18L241.963 284.12C242.71 283.773 243.403 283.533 244.043 283.4C244.683 283.267 245.303 283.2 245.903 283.2C246.93 283.2 247.757 283.373 248.383 283.72C249.01 284.067 249.463 284.533 249.743 285.12C250.037 285.707 250.183 286.353 250.183 287.06V287.34C250.183 287.967 250.023 288.52 249.703 289C249.397 289.467 248.99 289.84 248.483 290.12C249.03 290.413 249.463 290.807 249.783 291.3C250.117 291.78 250.283 292.353 250.283 293.02V293.3ZM305.186 294.7V297H297.306V283.4H304.986V285.7H299.706V288.96H304.386V291.26H299.706V294.7H305.186ZM313.828 296.66C313.482 296.82 313.082 296.947 312.628 297.04C312.175 297.147 311.715 297.2 311.248 297.2C310.475 297.2 309.855 297.04 309.388 296.72C308.922 296.4 308.582 295.953 308.368 295.38C308.168 294.807 308.068 294.153 308.068 293.42V288.86H306.428V286.86H308.068V284.22H310.368V286.86H313.528V288.86H310.368V293.42C310.368 294.033 310.482 294.46 310.708 294.7C310.948 294.927 311.288 295.04 311.728 295.04C311.942 295.04 312.168 295.02 312.408 294.98C312.662 294.927 312.942 294.84 313.248 294.72L313.828 296.66ZM320.638 288.8C320.304 288.8 319.924 288.88 319.498 289.04C319.071 289.2 318.564 289.513 317.978 289.98V297H315.678V282.2H317.978V288.12C318.591 287.6 319.164 287.227 319.698 287C320.231 286.773 320.778 286.66 321.338 286.66C322.311 286.66 323.051 286.973 323.558 287.6C324.064 288.213 324.318 289.08 324.318 290.2V297H322.018V290.48C322.018 289.36 321.558 288.8 320.638 288.8ZM329.717 284.94H327.297V282.56H329.717V284.94ZM329.657 297H327.357V286.86H329.657V297ZM338.886 297L336.386 292.78C335.986 293.18 335.566 293.58 335.126 293.98V297H332.826V282.2H335.126V291.44C335.886 290.667 336.539 289.927 337.086 289.22C337.646 288.5 338.159 287.713 338.626 286.86H341.266C340.826 287.66 340.346 288.42 339.826 289.14C339.306 289.86 338.733 290.587 338.106 291.32L341.666 297H338.886ZM346.095 285.34L349.555 283.4H351.555V297H349.195V286.04L347.155 287.16L346.095 285.34ZM399.357 297V283.4H403.497C404.51 283.4 405.31 283.547 405.897 283.84C406.497 284.133 406.923 284.547 407.177 285.08C407.443 285.613 407.577 286.24 407.577 286.96V287.52C407.577 288.573 407.123 289.38 406.217 289.94C406.857 290.193 407.343 290.56 407.677 291.04C408.01 291.52 408.177 292.093 408.177 292.76V293.32C408.177 294.053 408.043 294.7 407.777 295.26C407.51 295.807 407.07 296.233 406.457 296.54C405.843 296.847 405.023 297 403.997 297H399.357ZM403.497 285.6H401.757V289H403.497C404.03 289 404.43 288.88 404.697 288.64C404.977 288.387 405.117 288.047 405.117 287.62V286.96C405.117 286.533 404.977 286.2 404.697 285.96C404.43 285.72 404.03 285.6 403.497 285.6ZM403.997 291.2H401.757V294.8H403.997C404.557 294.8 404.983 294.667 405.277 294.4C405.57 294.133 405.717 293.773 405.717 293.32V292.66C405.717 292.207 405.57 291.853 405.277 291.6C404.983 291.333 404.557 291.2 403.997 291.2ZM418.456 296.42C417.762 296.7 417.109 296.9 416.496 297.02C415.882 297.14 415.302 297.2 414.756 297.2C413.249 297.2 412.109 296.773 411.336 295.92C410.562 295.067 410.176 293.933 410.176 292.52V291.32C410.176 290.373 410.349 289.553 410.696 288.86C411.042 288.167 411.536 287.627 412.176 287.24C412.816 286.853 413.569 286.66 414.436 286.66C415.142 286.66 415.802 286.807 416.416 287.1C417.042 287.38 417.549 287.827 417.936 288.44C418.336 289.04 418.536 289.813 418.536 290.76C418.536 291.04 418.516 291.34 418.476 291.66C418.436 291.967 418.369 292.293 418.276 292.64H412.396C412.422 293.467 412.629 294.087 413.016 294.5C413.402 294.913 414.022 295.12 414.876 295.12C415.329 295.12 415.796 295.067 416.276 294.96C416.769 294.853 417.276 294.693 417.796 294.48L418.456 296.42ZM414.436 288.6C413.822 288.6 413.342 288.8 412.996 289.2C412.662 289.587 412.469 290.147 412.416 290.88H416.256C416.269 290.813 416.276 290.753 416.276 290.7C416.276 290.633 416.276 290.573 416.276 290.52C416.276 289.88 416.096 289.4 415.736 289.08C415.376 288.76 414.942 288.6 414.436 288.6ZM424.025 295.2C424.519 295.2 424.925 295.12 425.245 294.96C425.565 294.787 425.725 294.533 425.725 294.2C425.725 293.907 425.619 293.68 425.405 293.52C425.205 293.347 424.839 293.193 424.305 293.06L423.165 292.76C422.285 292.533 421.632 292.153 421.205 291.62C420.792 291.087 420.585 290.453 420.585 289.72C420.585 288.853 420.885 288.127 421.485 287.54C422.085 286.953 423.012 286.66 424.265 286.66C424.772 286.66 425.305 286.72 425.865 286.84C426.425 286.96 427.012 287.153 427.625 287.42L426.965 289.38C426.405 289.113 425.899 288.927 425.445 288.82C424.992 288.713 424.592 288.66 424.245 288.66C423.299 288.66 422.825 288.98 422.825 289.62C422.825 289.873 422.905 290.073 423.065 290.22C423.239 290.367 423.552 290.5 424.005 290.62L425.145 290.92C426.119 291.173 426.825 291.56 427.265 292.08C427.719 292.6 427.945 293.253 427.945 294.04C427.945 294.973 427.625 295.733 426.985 296.32C426.359 296.907 425.365 297.2 424.005 297.2C422.845 297.2 421.625 296.933 420.345 296.4L420.965 294.5C421.592 294.753 422.159 294.933 422.665 295.04C423.172 295.147 423.625 295.2 424.025 295.2ZM436.407 296.66C436.06 296.82 435.66 296.947 435.207 297.04C434.753 297.147 434.293 297.2 433.827 297.2C433.053 297.2 432.433 297.04 431.967 296.72C431.5 296.4 431.16 295.953 430.947 295.38C430.747 294.807 430.647 294.153 430.647 293.42V288.86H429.007V286.86H430.647V284.22H432.947V286.86H436.107V288.86H432.947V293.42C432.947 294.033 433.06 294.46 433.287 294.7C433.527 294.927 433.867 295.04 434.307 295.04C434.52 295.04 434.747 295.02 434.987 294.98C435.24 294.927 435.52 294.84 435.827 294.72L436.407 296.66ZM445.936 297.1C445.256 297.1 444.709 296.96 444.296 296.68C443.896 296.4 443.602 296.053 443.416 295.64C442.842 296.173 442.289 296.567 441.756 296.82C441.222 297.073 440.649 297.2 440.036 297.2C439.142 297.2 438.482 296.913 438.056 296.34C437.642 295.767 437.436 295.04 437.436 294.16C437.436 293.573 437.542 293.06 437.756 292.62C437.982 292.167 438.349 291.813 438.856 291.56C439.362 291.307 440.056 291.18 440.936 291.18C441.282 291.18 441.642 291.207 442.016 291.26C442.389 291.3 442.762 291.353 443.136 291.42V290.24C443.136 289.68 442.982 289.3 442.676 289.1C442.369 288.887 441.956 288.78 441.436 288.78C441.036 288.78 440.596 288.833 440.116 288.94C439.649 289.047 439.142 289.213 438.596 289.44L437.936 287.48C439.282 286.933 440.502 286.66 441.596 286.66C442.582 286.66 443.342 286.827 443.876 287.16C444.422 287.493 444.802 287.933 445.016 288.48C445.229 289.027 445.336 289.613 445.336 290.24V294.14C445.336 294.34 445.389 294.533 445.496 294.72C445.616 294.893 445.842 294.98 446.176 294.98H446.396V297.1H445.936ZM439.656 294.12C439.656 294.48 439.736 294.767 439.896 294.98C440.056 295.18 440.289 295.28 440.596 295.28C440.902 295.28 441.249 295.2 441.636 295.04C442.022 294.88 442.522 294.507 443.136 293.92V293.06C442.442 292.94 441.762 292.88 441.096 292.88C440.576 292.88 440.202 292.987 439.976 293.2C439.762 293.413 439.656 293.72 439.656 294.12ZM453.353 288.8C453.019 288.8 452.639 288.88 452.213 289.04C451.786 289.2 451.279 289.513 450.693 289.98V297H448.393V286.86H450.573V288.22C451.199 287.673 451.793 287.28 452.353 287.04C452.913 286.787 453.479 286.66 454.053 286.66C455.026 286.66 455.766 286.973 456.273 287.6C456.779 288.213 457.033 289.08 457.033 290.2V297H454.733V290.48C454.733 289.36 454.273 288.8 453.353 288.8ZM466.012 297V295.62C465.399 296.233 464.866 296.653 464.412 296.88C463.972 297.093 463.512 297.2 463.032 297.2C461.939 297.2 461.086 296.787 460.472 295.96C459.872 295.133 459.572 293.973 459.572 292.48V291.4C459.572 289.947 459.939 288.793 460.672 287.94C461.406 287.087 462.466 286.66 463.852 286.66C464.199 286.66 464.539 286.693 464.872 286.76C465.219 286.827 465.559 286.92 465.892 287.04V282.2H468.192V297H466.012ZM461.932 292.48C461.932 293.373 462.079 294.027 462.372 294.44C462.679 294.853 463.106 295.06 463.652 295.06C463.959 295.06 464.286 294.973 464.632 294.8C464.979 294.613 465.399 294.267 465.892 293.76V289.12C465.239 288.853 464.639 288.72 464.092 288.72C463.319 288.72 462.766 288.96 462.432 289.44C462.099 289.92 461.932 290.573 461.932 291.4V292.48ZM479.061 296.42C478.368 296.7 477.715 296.9 477.101 297.02C476.488 297.14 475.908 297.2 475.361 297.2C473.855 297.2 472.715 296.773 471.941 295.92C471.168 295.067 470.781 293.933 470.781 292.52V291.32C470.781 290.373 470.955 289.553 471.301 288.86C471.648 288.167 472.141 287.627 472.781 287.24C473.421 286.853 474.175 286.66 475.041 286.66C475.748 286.66 476.408 286.807 477.021 287.1C477.648 287.38 478.155 287.827 478.541 288.44C478.941 289.04 479.141 289.813 479.141 290.76C479.141 291.04 479.121 291.34 479.081 291.66C479.041 291.967 478.975 292.293 478.881 292.64H473.001C473.028 293.467 473.235 294.087 473.621 294.5C474.008 294.913 474.628 295.12 475.481 295.12C475.935 295.12 476.401 295.067 476.881 294.96C477.375 294.853 477.881 294.693 478.401 294.48L479.061 296.42ZM475.041 288.6C474.428 288.6 473.948 288.8 473.601 289.2C473.268 289.587 473.075 290.147 473.021 290.88H476.861C476.875 290.813 476.881 290.753 476.881 290.7C476.881 290.633 476.881 290.573 476.881 290.52C476.881 289.88 476.701 289.4 476.341 289.08C475.981 288.76 475.548 288.6 475.041 288.6ZM486.751 288.8C486.418 288.8 486.038 288.88 485.611 289.04C485.184 289.2 484.678 289.513 484.091 289.98V297H481.791V286.86H483.971V288.22C484.598 287.673 485.191 287.28 485.751 287.04C486.311 286.787 486.878 286.66 487.451 286.66C488.424 286.66 489.164 286.973 489.671 287.6C490.178 288.213 490.431 289.08 490.431 290.2V297H488.131V290.48C488.131 289.36 487.671 288.8 486.751 288.8ZM536.134 285.34L539.594 283.4H541.594V297H539.234V286.04L537.194 287.16L536.134 285.34ZM546.302 294.62V295C546.302 296.12 546.175 297.187 545.922 298.2C545.669 299.227 545.182 300.313 544.462 301.46L543.022 300.68C543.315 300.133 543.535 299.573 543.682 299C543.829 298.44 543.929 297.807 543.982 297.1C544.035 296.393 544.062 295.567 544.062 294.62H546.302ZM558.005 288.76V291.62C558.005 293.353 557.599 294.72 556.785 295.72C555.972 296.707 554.779 297.2 553.205 297.2C551.632 297.2 550.439 296.707 549.625 295.72C548.812 294.72 548.405 293.353 548.405 291.62V288.76C548.405 287.027 548.812 285.667 549.625 284.68C550.439 283.693 551.632 283.2 553.205 283.2C554.779 283.2 555.972 283.693 556.785 284.68C557.599 285.667 558.005 287.027 558.005 288.76ZM555.585 288.76C555.585 286.533 554.792 285.42 553.205 285.42C552.392 285.42 551.792 285.7 551.405 286.26C551.019 286.82 550.825 287.653 550.825 288.76V291.62C550.825 292.727 551.019 293.567 551.405 294.14C551.792 294.7 552.392 294.98 553.205 294.98C554.792 294.98 555.585 293.86 555.585 291.62V288.76Z" fill="black"/>
<path d="M183.82 200V179.6H187.12C188.7 181.66 190.2 183.84 191.62 186.14C193.04 188.42 194.33 190.77 195.49 193.19L195.22 187.1V179.6H198.67V200H195.37C194.09 197.48 192.76 194.95 191.38 192.41C190.02 189.85 188.57 187.44 187.03 185.18L187.27 192.2V200H183.82ZM216.299 191.48V193.28C216.299 195.4 215.719 197.1 214.559 198.38C213.399 199.66 211.759 200.3 209.639 200.3C207.519 200.3 205.879 199.66 204.719 198.38C203.559 197.1 202.979 195.4 202.979 193.28V191.48C202.979 189.36 203.549 187.67 204.689 186.41C205.849 185.13 207.499 184.49 209.639 184.49C211.779 184.49 213.419 185.13 214.559 186.41C215.719 187.67 216.299 189.36 216.299 191.48ZM212.759 191.48C212.759 190.26 212.489 189.31 211.949 188.63C211.409 187.93 210.639 187.58 209.639 187.58C208.639 187.58 207.869 187.93 207.329 188.63C206.789 189.31 206.519 190.26 206.519 191.48V193.28C206.519 194.5 206.789 195.46 207.329 196.16C207.869 196.86 208.639 197.21 209.639 197.21C210.639 197.21 211.409 196.86 211.949 196.16C212.489 195.46 212.759 194.5 212.759 193.28V191.48ZM229.317 199.49C228.797 199.73 228.197 199.92 227.517 200.06C226.837 200.22 226.147 200.3 225.447 200.3C224.287 200.3 223.357 200.06 222.657 199.58C221.957 199.1 221.447 198.43 221.127 197.57C220.827 196.71 220.677 195.73 220.677 194.63V187.79H218.217V184.79H220.677V180.83H224.127V184.79H228.867V187.79H224.127V194.63C224.127 195.55 224.297 196.19 224.637 196.55C224.997 196.89 225.507 197.06 226.167 197.06C226.487 197.06 226.827 197.03 227.187 196.97C227.567 196.89 227.987 196.76 228.447 196.58L229.317 199.49ZM243.641 199.13C242.601 199.55 241.621 199.85 240.701 200.03C239.781 200.21 238.911 200.3 238.091 200.3C235.831 200.3 234.121 199.66 232.961 198.38C231.801 197.1 231.221 195.4 231.221 193.28V191.48C231.221 190.06 231.481 188.83 232.001 187.79C232.521 186.75 233.261 185.94 234.221 185.36C235.181 184.78 236.311 184.49 237.611 184.49C238.671 184.49 239.661 184.71 240.581 185.15C241.521 185.57 242.281 186.24 242.861 187.16C243.461 188.06 243.761 189.22 243.761 190.64C243.761 191.06 243.731 191.51 243.671 191.99C243.611 192.45 243.511 192.94 243.371 193.46H234.551C234.591 194.7 234.901 195.63 235.481 196.25C236.061 196.87 236.991 197.18 238.271 197.18C238.951 197.18 239.651 197.1 240.371 196.94C241.111 196.78 241.871 196.54 242.651 196.22L243.641 199.13ZM237.611 187.4C236.691 187.4 235.971 187.7 235.451 188.3C234.951 188.88 234.661 189.72 234.581 190.82H240.341C240.361 190.72 240.371 190.63 240.371 190.55C240.371 190.45 240.371 190.36 240.371 190.28C240.371 189.32 240.101 188.6 239.561 188.12C239.021 187.64 238.371 187.4 237.611 187.4ZM255.175 187.7C254.675 187.7 254.105 187.82 253.465 188.06C252.825 188.3 252.065 188.77 251.185 189.47V200H247.735V184.79H251.005V186.83C251.945 186.01 252.835 185.42 253.675 185.06C254.515 184.68 255.365 184.49 256.225 184.49C257.685 184.49 258.795 184.96 259.555 185.9C260.315 186.82 260.695 188.12 260.695 189.8V200H257.245V190.22C257.245 188.54 256.555 187.7 255.175 187.7ZM269.515 197.3C270.255 197.3 270.865 197.18 271.345 196.94C271.825 196.68 272.065 196.3 272.065 195.8C272.065 195.36 271.905 195.02 271.585 194.78C271.285 194.52 270.735 194.29 269.935 194.09L268.225 193.64C266.905 193.3 265.925 192.73 265.285 191.93C264.665 191.13 264.355 190.18 264.355 189.08C264.355 187.78 264.805 186.69 265.705 185.81C266.605 184.93 267.995 184.49 269.875 184.49C270.635 184.49 271.435 184.58 272.275 184.76C273.115 184.94 273.995 185.23 274.915 185.63L273.925 188.57C273.085 188.17 272.325 187.89 271.645 187.73C270.965 187.57 270.365 187.49 269.845 187.49C268.425 187.49 267.715 187.97 267.715 188.93C267.715 189.31 267.835 189.61 268.075 189.83C268.335 190.05 268.805 190.25 269.485 190.43L271.195 190.88C272.655 191.26 273.715 191.84 274.375 192.62C275.055 193.4 275.395 194.38 275.395 195.56C275.395 196.96 274.915 198.1 273.955 198.98C273.015 199.86 271.525 200.3 269.485 200.3C267.745 200.3 265.915 199.9 263.995 199.1L264.925 196.25C265.865 196.63 266.715 196.9 267.475 197.06C268.235 197.22 268.915 197.3 269.515 197.3ZM285.446 200.3C284.946 200.3 284.436 200.25 283.916 200.15C283.416 200.05 282.906 199.91 282.386 199.73V206.39H278.936V184.79H282.206V186.86C283.146 185.92 283.946 185.29 284.606 184.97C285.266 184.65 285.956 184.49 286.676 184.49C288.336 184.49 289.616 185.11 290.516 186.35C291.416 187.59 291.866 189.33 291.866 191.57V193.19C291.866 195.37 291.316 197.1 290.216 198.38C289.116 199.66 287.526 200.3 285.446 200.3ZM285.746 187.7C285.286 187.7 284.796 187.84 284.276 188.12C283.776 188.38 283.146 188.89 282.386 189.65V196.61C283.366 197.01 284.266 197.21 285.086 197.21C286.246 197.21 287.076 196.85 287.576 196.13C288.076 195.41 288.326 194.43 288.326 193.19V191.57C288.326 190.23 288.096 189.25 287.636 188.63C287.196 188.01 286.566 187.7 285.746 187.7ZM299.41 181.91H295.78V178.34H299.41V181.91ZM299.32 200H295.87V184.79H299.32V200ZM315.623 199.13C314.583 199.55 313.603 199.85 312.683 200.03C311.763 200.21 310.893 200.3 310.073 200.3C307.813 200.3 306.103 199.66 304.943 198.38C303.783 197.1 303.203 195.4 303.203 193.28V191.48C303.203 190.06 303.463 188.83 303.983 187.79C304.503 186.75 305.243 185.94 306.203 185.36C307.163 184.78 308.293 184.49 309.593 184.49C310.653 184.49 311.643 184.71 312.563 185.15C313.503 185.57 314.263 186.24 314.843 187.16C315.443 188.06 315.743 189.22 315.743 190.64C315.743 191.06 315.713 191.51 315.653 191.99C315.593 192.45 315.493 192.94 315.353 193.46H306.533C306.573 194.7 306.883 195.63 307.463 196.25C308.043 196.87 308.973 197.18 310.253 197.18C310.933 197.18 311.633 197.1 312.353 196.94C313.093 196.78 313.853 196.54 314.633 196.22L315.623 199.13ZM309.593 187.4C308.673 187.4 307.953 187.7 307.433 188.3C306.933 188.88 306.643 189.72 306.563 190.82H312.323C312.343 190.72 312.353 190.63 312.353 190.55C312.353 190.45 312.353 190.36 312.353 190.28C312.353 189.32 312.083 188.6 311.543 188.12C311.003 187.64 310.353 187.4 309.593 187.4ZM332.348 201.53C332.348 203.15 331.708 204.41 330.428 205.31C329.168 206.23 327.408 206.69 325.148 206.69C324.088 206.69 322.968 206.57 321.788 206.33C320.608 206.09 319.518 205.69 318.518 205.13L319.508 202.4C320.468 202.88 321.418 203.22 322.358 203.42C323.298 203.64 324.218 203.75 325.118 203.75C326.378 203.75 327.338 203.58 327.998 203.24C328.658 202.9 328.988 202.45 328.988 201.89C328.988 201.03 328.478 200.6 327.458 200.6H323.858C322.878 200.6 322.088 200.44 321.488 200.12C320.888 199.8 320.448 199.39 320.168 198.89C319.888 198.37 319.748 197.83 319.748 197.27C319.748 196.69 319.868 196.15 320.108 195.65C320.368 195.13 320.718 194.65 321.158 194.21C320.438 193.77 319.858 193.18 319.418 192.44C318.998 191.7 318.788 190.81 318.788 189.77C318.788 188.59 319.038 187.61 319.538 186.83C320.038 186.05 320.718 185.47 321.578 185.09C322.458 184.69 323.428 184.49 324.488 184.49H324.998C325.398 184.49 325.788 184.52 326.168 184.58C326.548 184.62 326.908 184.69 327.248 184.79H332.678V187.73L329.678 187.25C329.978 187.57 330.208 187.97 330.368 188.45C330.548 188.91 330.638 189.48 330.638 190.16C330.638 191.18 330.378 192.06 329.858 192.8C329.358 193.52 328.678 194.08 327.818 194.48C326.978 194.86 326.038 195.05 324.998 195.05H324.488C324.088 195.05 323.708 195.02 323.348 194.96C323.128 195.2 322.968 195.45 322.868 195.71C322.768 195.95 322.718 196.18 322.718 196.4C322.718 197.1 323.168 197.45 324.068 197.45H327.728C329.108 197.45 330.218 197.81 331.058 198.53C331.918 199.23 332.348 200.23 332.348 201.53ZM324.998 192.23C325.618 192.23 326.158 192.02 326.618 191.6C327.098 191.18 327.338 190.57 327.338 189.77C327.338 188.97 327.098 188.36 326.618 187.94C326.158 187.52 325.618 187.31 324.998 187.31H324.488C323.848 187.31 323.288 187.52 322.808 187.94C322.348 188.36 322.118 188.97 322.118 189.77C322.118 190.57 322.348 191.18 322.808 191.6C323.288 192.02 323.848 192.23 324.488 192.23H324.998ZM347.205 199.13C346.165 199.55 345.185 199.85 344.265 200.03C343.345 200.21 342.475 200.3 341.655 200.3C339.395 200.3 337.685 199.66 336.525 198.38C335.365 197.1 334.785 195.4 334.785 193.28V191.48C334.785 190.06 335.045 188.83 335.565 187.79C336.085 186.75 336.825 185.94 337.785 185.36C338.745 184.78 339.875 184.49 341.175 184.49C342.235 184.49 343.225 184.71 344.145 185.15C345.085 185.57 345.845 186.24 346.425 187.16C347.025 188.06 347.325 189.22 347.325 190.64C347.325 191.06 347.295 191.51 347.235 191.99C347.175 192.45 347.075 192.94 346.935 193.46H338.115C338.155 194.7 338.465 195.63 339.045 196.25C339.625 196.87 340.555 197.18 341.835 197.18C342.515 197.18 343.215 197.1 343.935 196.94C344.675 196.78 345.435 196.54 346.215 196.22L347.205 199.13ZM341.175 187.4C340.255 187.4 339.535 187.7 339.015 188.3C338.515 188.88 338.225 189.72 338.145 190.82H343.905C343.925 190.72 343.935 190.63 343.935 190.55C343.935 190.45 343.935 190.36 343.935 190.28C343.935 189.32 343.665 188.6 343.125 188.12C342.585 187.64 341.935 187.4 341.175 187.4ZM351.21 195.71V177.8H354.66V195.71C354.66 196.01 354.73 196.3 354.87 196.58C355.03 196.84 355.33 196.97 355.77 196.97H356.25V200.15H355.41C354.27 200.15 353.4 199.93 352.8 199.49C352.2 199.05 351.78 198.49 351.54 197.81C351.32 197.13 351.21 196.43 351.21 195.71Z" fill="black"/>
<path d="M0 10C0 4.47715 4.47715 0 10 0H1120C1125.52 0 1130 4.47715 1130 10V75H0V10Z" fill="white"/>
<rect x="18" y="17" width="627" height="38" rx="10" fill="#F4F4F4"/>
<path d="M45.2045 43L42.5455 34.2727H43.9545L45.8409 40.9545H45.9318L47.7955 34.2727H49.2273L51.0682 40.9318H51.1591L53.0455 34.2727H54.4545L51.7955 43H50.4773L48.5682 36.2955H48.4318L46.5227 43H45.2045ZM58.2045 43L55.5455 34.2727H56.9545L58.8409 40.9545H58.9318L60.7955 34.2727H62.2273L64.0682 40.9318H64.1591L66.0455 34.2727H67.4545L64.7955 43H63.4773L61.5682 36.2955H61.4318L59.5227 43H58.2045ZM71.2045 43L68.5455 34.2727H69.9545L71.8409 40.9545H71.9318L73.7955 34.2727H75.2273L77.0682 40.9318H77.1591L79.0455 34.2727H80.4545L77.7955 43H76.4773L74.5682 36.2955H74.4318L72.5227 43H71.2045ZM82.017 43.0909C81.7367 43.0909 81.4962 42.9905 81.2955 42.7898C81.0947 42.589 80.9943 42.3485 80.9943 42.0682C80.9943 41.7879 81.0947 41.5473 81.2955 41.3466C81.4962 41.1458 81.7367 41.0455 82.017 41.0455C82.2973 41.0455 82.5379 41.1458 82.7386 41.3466C82.9394 41.5473 83.0398 41.7879 83.0398 42.0682C83.0398 42.2538 82.9924 42.4242 82.8977 42.5795C82.8068 42.7348 82.6837 42.8598 82.5284 42.9545C82.3769 43.0455 82.2064 43.0909 82.017 43.0909ZM85.446 43V34.2727H86.7415V35.6364H86.8551C87.0369 35.1705 87.3305 34.8087 87.7358 34.5511C88.1411 34.2898 88.6278 34.1591 89.196 34.1591C89.7718 34.1591 90.2509 34.2898 90.6335 34.5511C91.0199 34.8087 91.321 35.1705 91.5369 35.6364H91.6278C91.8513 35.1856 92.1866 34.8277 92.6335 34.5625C93.0805 34.2936 93.6165 34.1591 94.2415 34.1591C95.0218 34.1591 95.66 34.4034 96.1562 34.892C96.6525 35.3769 96.9006 36.1326 96.9006 37.1591V43H95.5597V37.1591C95.5597 36.5152 95.3835 36.0549 95.0312 35.7784C94.679 35.5019 94.2642 35.3636 93.7869 35.3636C93.1733 35.3636 92.6979 35.5492 92.3608 35.9205C92.0237 36.2879 91.8551 36.7538 91.8551 37.3182V43H90.4915V37.0227C90.4915 36.5265 90.3305 36.1269 90.0085 35.8239C89.6866 35.517 89.2718 35.3636 88.7642 35.3636C88.4157 35.3636 88.09 35.4564 87.7869 35.642C87.4877 35.8277 87.2453 36.0852 87.0597 36.4148C86.8778 36.7405 86.7869 37.1174 86.7869 37.5455V43H85.446ZM102.898 43.1818C102.11 43.1818 101.419 42.9943 100.824 42.6193C100.233 42.2443 99.7708 41.7197 99.4375 41.0455C99.108 40.3712 98.9432 39.5833 98.9432 38.6818C98.9432 37.7727 99.108 36.9792 99.4375 36.3011C99.7708 35.6231 100.233 35.0966 100.824 34.7216C101.419 34.3466 102.11 34.1591 102.898 34.1591C103.686 34.1591 104.375 34.3466 104.966 34.7216C105.561 35.0966 106.023 35.6231 106.352 36.3011C106.686 36.9792 106.852 37.7727 106.852 38.6818C106.852 39.5833 106.686 40.3712 106.352 41.0455C106.023 41.7197 105.561 42.2443 104.966 42.6193C104.375 42.9943 103.686 43.1818 102.898 43.1818ZM102.898 41.9773C103.496 41.9773 103.989 41.8239 104.375 41.517C104.761 41.2102 105.047 40.8068 105.233 40.3068C105.419 39.8068 105.511 39.2652 105.511 38.6818C105.511 38.0985 105.419 37.5549 105.233 37.0511C105.047 36.5473 104.761 36.1402 104.375 35.8295C103.989 35.5189 103.496 35.3636 102.898 35.3636C102.299 35.3636 101.807 35.5189 101.42 35.8295C101.034 36.1402 100.748 36.5473 100.562 37.0511C100.377 37.5549 100.284 38.0985 100.284 38.6818C100.284 39.2652 100.377 39.8068 100.562 40.3068C100.748 40.8068 101.034 41.2102 101.42 41.517C101.807 41.8239 102.299 41.9773 102.898 41.9773ZM112.445 43.1818C111.657 43.1818 110.965 42.9943 110.371 42.6193C109.78 42.2443 109.318 41.7197 108.984 41.0455C108.655 40.3712 108.49 39.5833 108.49 38.6818C108.49 37.7727 108.655 36.9792 108.984 36.3011C109.318 35.6231 109.78 35.0966 110.371 34.7216C110.965 34.3466 111.657 34.1591 112.445 34.1591C113.232 34.1591 113.922 34.3466 114.513 34.7216C115.107 35.0966 115.57 35.6231 115.899 36.3011C116.232 36.9792 116.399 37.7727 116.399 38.6818C116.399 39.5833 116.232 40.3712 115.899 41.0455C115.57 41.7197 115.107 42.2443 114.513 42.6193C113.922 42.9943 113.232 43.1818 112.445 43.1818ZM112.445 41.9773C113.043 41.9773 113.536 41.8239 113.922 41.517C114.308 41.2102 114.594 40.8068 114.78 40.3068C114.965 39.8068 115.058 39.2652 115.058 38.6818C115.058 38.0985 114.965 37.5549 114.78 37.0511C114.594 36.5473 114.308 36.1402 113.922 35.8295C113.536 35.5189 113.043 35.3636 112.445 35.3636C111.846 35.3636 111.354 35.5189 110.967 35.8295C110.581 36.1402 110.295 36.5473 110.109 37.0511C109.924 37.5549 109.831 38.0985 109.831 38.6818C109.831 39.2652 109.924 39.8068 110.109 40.3068C110.295 40.8068 110.581 41.2102 110.967 41.517C111.354 41.8239 111.846 41.9773 112.445 41.9773ZM121.741 43.1818C121.014 43.1818 120.372 42.9981 119.815 42.6307C119.259 42.2595 118.823 41.7367 118.509 41.0625C118.194 40.3845 118.037 39.5833 118.037 38.6591C118.037 37.7424 118.194 36.947 118.509 36.2727C118.823 35.5985 119.26 35.0777 119.821 34.7102C120.382 34.3428 121.029 34.1591 121.764 34.1591C122.332 34.1591 122.781 34.2538 123.111 34.4432C123.444 34.6288 123.698 34.8409 123.872 35.0795C124.05 35.3144 124.188 35.5076 124.287 35.6591H124.401V31.3636H125.741V43H124.446V41.6591H124.287C124.188 41.8182 124.048 42.0189 123.866 42.2614C123.685 42.5 123.425 42.714 123.088 42.9034C122.751 43.089 122.302 43.1818 121.741 43.1818ZM121.923 41.9773C122.461 41.9773 122.916 41.8371 123.287 41.5568C123.658 41.2727 123.94 40.8807 124.134 40.3807C124.327 39.8769 124.423 39.2955 124.423 38.6364C124.423 37.9848 124.329 37.4148 124.139 36.9261C123.95 36.4337 123.67 36.0511 123.298 35.7784C122.927 35.5019 122.469 35.3636 121.923 35.3636C121.355 35.3636 120.882 35.5095 120.503 35.8011C120.128 36.089 119.846 36.4811 119.656 36.9773C119.471 37.4697 119.378 38.0227 119.378 38.6364C119.378 39.2576 119.473 39.822 119.662 40.3295C119.855 40.8333 120.139 41.2348 120.514 41.5341C120.893 41.8295 121.363 41.9773 121.923 41.9773ZM129.724 31.3636V43H128.384V31.3636H129.724ZM135.839 43.1818C134.999 43.1818 134.273 42.9962 133.663 42.625C133.057 42.25 132.589 41.7273 132.26 41.0568C131.934 40.3826 131.771 39.5985 131.771 38.7045C131.771 37.8106 131.934 37.0227 132.26 36.3409C132.589 35.6553 133.048 35.1212 133.635 34.7386C134.226 34.3523 134.915 34.1591 135.703 34.1591C136.158 34.1591 136.607 34.2348 137.05 34.3864C137.493 34.5379 137.896 34.7841 138.26 35.125C138.624 35.4621 138.913 35.9091 139.129 36.4659C139.345 37.0227 139.453 37.7083 139.453 38.5227V39.0909H132.726V37.9318H138.089C138.089 37.4394 137.991 37 137.794 36.6136C137.601 36.2273 137.324 35.9223 136.964 35.6989C136.608 35.4754 136.188 35.3636 135.703 35.3636C135.169 35.3636 134.707 35.4962 134.317 35.7614C133.93 36.0227 133.633 36.3636 133.425 36.7841C133.216 37.2045 133.112 37.6553 133.112 38.1364V38.9091C133.112 39.5682 133.226 40.1269 133.453 40.5852C133.684 41.0398 134.004 41.3864 134.413 41.625C134.822 41.8598 135.298 41.9773 135.839 41.9773C136.192 41.9773 136.51 41.928 136.794 41.8295C137.082 41.7273 137.33 41.5758 137.538 41.375C137.747 41.1705 137.908 40.9167 138.021 40.6136L139.317 40.9773C139.18 41.4167 138.951 41.803 138.629 42.1364C138.307 42.4659 137.91 42.7235 137.436 42.9091C136.963 43.0909 136.43 43.1818 135.839 43.1818ZM142.47 43.0909C142.19 43.0909 141.949 42.9905 141.749 42.7898C141.548 42.589 141.447 42.3485 141.447 42.0682C141.447 41.7879 141.548 41.5473 141.749 41.3466C141.949 41.1458 142.19 41.0455 142.47 41.0455C142.75 41.0455 142.991 41.1458 143.192 41.3466C143.393 41.5473 143.493 41.7879 143.493 42.0682C143.493 42.2538 143.446 42.4242 143.351 42.5795C143.26 42.7348 143.137 42.8598 142.982 42.9545C142.83 43.0455 142.66 43.0909 142.47 43.0909ZM151.399 39.4318V34.2727H152.74V43H151.399V41.5227H151.308C151.104 41.9659 150.786 42.3428 150.354 42.6534C149.922 42.9602 149.376 43.1136 148.717 43.1136C148.172 43.1136 147.687 42.9943 147.263 42.7557C146.839 42.5133 146.505 42.1496 146.263 41.6648C146.02 41.1761 145.899 40.5606 145.899 39.8182V34.2727H147.24V39.7273C147.24 40.3636 147.418 40.8712 147.774 41.25C148.134 41.6288 148.592 41.8182 149.149 41.8182C149.482 41.8182 149.821 41.733 150.166 41.5625C150.515 41.392 150.806 41.1307 151.041 40.7784C151.28 40.4261 151.399 39.9773 151.399 39.4318ZM156.537 37.75V43H155.196V34.2727H156.491V35.6364H156.605C156.81 35.1932 157.12 34.8371 157.537 34.5682C157.954 34.2955 158.491 34.1591 159.151 34.1591C159.741 34.1591 160.259 34.2803 160.702 34.5227C161.145 34.7614 161.49 35.125 161.736 35.6136C161.982 36.0985 162.105 36.7121 162.105 37.4545V43H160.764V37.5455C160.764 36.8598 160.586 36.3258 160.23 35.9432C159.874 35.5568 159.385 35.3636 158.764 35.3636C158.336 35.3636 157.954 35.4564 157.616 35.642C157.283 35.8277 157.02 36.0985 156.827 36.4545C156.634 36.8106 156.537 37.2424 156.537 37.75ZM164.555 43V34.2727H165.896V43H164.555ZM165.237 32.8182C164.976 32.8182 164.75 32.7292 164.561 32.5511C164.375 32.3731 164.283 32.1591 164.283 31.9091C164.283 31.6591 164.375 31.4451 164.561 31.267C164.75 31.089 164.976 31 165.237 31C165.499 31 165.722 31.089 165.908 31.267C166.097 31.4451 166.192 31.6591 166.192 31.9091C166.192 32.1591 166.097 32.3731 165.908 32.5511C165.722 32.7292 165.499 32.8182 165.237 32.8182ZM173.352 37.3864V38.6364H168.261V37.3864H173.352ZM175.712 34.2727H177.053V43.6364C177.053 44.1742 176.96 44.6402 176.774 45.0341C176.592 45.428 176.316 45.733 175.945 45.9489C175.577 46.1648 175.113 46.2727 174.553 46.2727C174.507 46.2727 174.462 46.2727 174.416 46.2727C174.371 46.2727 174.325 46.2727 174.28 46.2727V45.0227C174.325 45.0227 174.367 45.0227 174.405 45.0227C174.443 45.0227 174.484 45.0227 174.53 45.0227C174.939 45.0227 175.238 44.9015 175.428 44.6591C175.617 44.4205 175.712 44.0795 175.712 43.6364V34.2727ZM176.371 32.8182C176.109 32.8182 175.884 32.7292 175.695 32.5511C175.509 32.3731 175.416 32.1591 175.416 31.9091C175.416 31.6591 175.509 31.4451 175.695 31.267C175.884 31.089 176.109 31 176.371 31C176.632 31 176.856 31.089 177.041 31.267C177.231 31.4451 177.325 31.6591 177.325 31.9091C177.325 32.1591 177.231 32.3731 177.041 32.5511C176.856 32.7292 176.632 32.8182 176.371 32.8182ZM183.168 43.1818C182.327 43.1818 181.601 42.9962 180.991 42.625C180.385 42.25 179.918 41.7273 179.588 41.0568C179.262 40.3826 179.099 39.5985 179.099 38.7045C179.099 37.8106 179.262 37.0227 179.588 36.3409C179.918 35.6553 180.376 35.1212 180.963 34.7386C181.554 34.3523 182.243 34.1591 183.031 34.1591C183.486 34.1591 183.935 34.2348 184.378 34.3864C184.821 34.5379 185.224 34.7841 185.588 35.125C185.952 35.4621 186.241 35.9091 186.457 36.4659C186.673 37.0227 186.781 37.7083 186.781 38.5227V39.0909H180.054V37.9318H185.418C185.418 37.4394 185.319 37 185.122 36.6136C184.929 36.2273 184.652 35.9223 184.293 35.6989C183.937 35.4754 183.516 35.3636 183.031 35.3636C182.497 35.3636 182.035 35.4962 181.645 35.7614C181.259 36.0227 180.961 36.3636 180.753 36.7841C180.545 37.2045 180.44 37.6553 180.44 38.1364V38.9091C180.44 39.5682 180.554 40.1269 180.781 40.5852C181.012 41.0398 181.332 41.3864 181.741 41.625C182.151 41.8598 182.626 41.9773 183.168 41.9773C183.52 41.9773 183.838 41.928 184.122 41.8295C184.41 41.7273 184.658 41.5758 184.866 41.375C185.075 41.1705 185.236 40.9167 185.349 40.6136L186.645 40.9773C186.509 41.4167 186.279 41.803 185.957 42.1364C185.635 42.4659 185.238 42.7235 184.764 42.9091C184.291 43.0909 183.759 43.1818 183.168 43.1818ZM190.162 37.75V43H188.821V34.2727H190.116V35.6364H190.23C190.435 35.1932 190.745 34.8371 191.162 34.5682C191.579 34.2955 192.116 34.1591 192.776 34.1591C193.366 34.1591 193.884 34.2803 194.327 34.5227C194.77 34.7614 195.115 35.125 195.361 35.6136C195.607 36.0985 195.73 36.7121 195.73 37.4545V43H194.389V37.5455C194.389 36.8598 194.211 36.3258 193.855 35.9432C193.499 35.5568 193.01 35.3636 192.389 35.3636C191.961 35.3636 191.579 35.4564 191.241 35.642C190.908 35.8277 190.645 36.0985 190.452 36.4545C190.259 36.8106 190.162 37.2424 190.162 37.75ZM200.749 43.2045C200.196 43.2045 199.694 43.1004 199.243 42.892C198.792 42.6799 198.434 42.375 198.169 41.9773C197.904 41.5758 197.771 41.0909 197.771 40.5227C197.771 40.0227 197.87 39.6174 198.067 39.3068C198.264 38.9924 198.527 38.7462 198.857 38.5682C199.186 38.3902 199.55 38.2576 199.947 38.1705C200.349 38.0795 200.752 38.0076 201.158 37.9545C201.688 37.8864 202.118 37.8352 202.447 37.8011C202.781 37.7633 203.023 37.7008 203.175 37.6136C203.33 37.5265 203.408 37.375 203.408 37.1591V37.1136C203.408 36.553 203.254 36.1174 202.947 35.8068C202.644 35.4962 202.184 35.3409 201.567 35.3409C200.927 35.3409 200.425 35.4811 200.061 35.7614C199.697 36.0417 199.442 36.3409 199.294 36.6591L198.021 36.2045C198.249 35.6742 198.552 35.2614 198.93 34.9659C199.313 34.6667 199.73 34.4583 200.18 34.3409C200.635 34.2197 201.082 34.1591 201.521 34.1591C201.802 34.1591 202.124 34.1932 202.487 34.2614C202.855 34.3258 203.209 34.4602 203.55 34.6648C203.894 34.8693 204.18 35.178 204.408 35.5909C204.635 36.0038 204.749 36.5568 204.749 37.25V43H203.408V41.8182H203.339C203.249 42.0076 203.097 42.2102 202.885 42.4261C202.673 42.642 202.391 42.8258 202.038 42.9773C201.686 43.1288 201.256 43.2045 200.749 43.2045ZM200.953 42C201.483 42 201.93 41.8958 202.294 41.6875C202.661 41.4792 202.938 41.2102 203.124 40.8807C203.313 40.5511 203.408 40.2045 203.408 39.8409V38.6136C203.351 38.6818 203.226 38.7443 203.033 38.8011C202.843 38.8542 202.624 38.9015 202.374 38.9432C202.127 38.9811 201.887 39.0152 201.652 39.0455C201.421 39.072 201.233 39.0947 201.089 39.1136C200.741 39.1591 200.415 39.233 200.112 39.3352C199.813 39.4337 199.571 39.5833 199.385 39.7841C199.203 39.9811 199.112 40.25 199.112 40.5909C199.112 41.0568 199.285 41.4091 199.629 41.6477C199.978 41.8826 200.419 42 200.953 42ZM208.173 43.0909C207.893 43.0909 207.652 42.9905 207.452 42.7898C207.251 42.589 207.151 42.3485 207.151 42.0682C207.151 41.7879 207.251 41.5473 207.452 41.3466C207.652 41.1458 207.893 41.0455 208.173 41.0455C208.454 41.0455 208.694 41.1458 208.895 41.3466C209.096 41.5473 209.196 41.7879 209.196 42.0682C209.196 42.2538 209.149 42.4242 209.054 42.5795C208.963 42.7348 208.84 42.8598 208.685 42.9545C208.533 43.0455 208.363 43.0909 208.173 43.0909ZM214.898 43.1818C214.17 43.1818 213.528 42.9981 212.972 42.6307C212.415 42.2595 211.979 41.7367 211.665 41.0625C211.35 40.3845 211.193 39.5833 211.193 38.6591C211.193 37.7424 211.35 36.947 211.665 36.2727C211.979 35.5985 212.417 35.0777 212.977 34.7102C213.538 34.3428 214.186 34.1591 214.92 34.1591C215.489 34.1591 215.938 34.2538 216.267 34.4432C216.6 34.6288 216.854 34.8409 217.028 35.0795C217.206 35.3144 217.345 35.5076 217.443 35.6591H217.557V31.3636H218.898V43H217.602V41.6591H217.443C217.345 41.8182 217.205 42.0189 217.023 42.2614C216.841 42.5 216.581 42.714 216.244 42.9034C215.907 43.089 215.458 43.1818 214.898 43.1818ZM215.08 41.9773C215.617 41.9773 216.072 41.8371 216.443 41.5568C216.814 41.2727 217.097 40.8807 217.29 40.3807C217.483 39.8769 217.58 39.2955 217.58 38.6364C217.58 37.9848 217.485 37.4148 217.295 36.9261C217.106 36.4337 216.826 36.0511 216.455 35.7784C216.083 35.5019 215.625 35.3636 215.08 35.3636C214.511 35.3636 214.038 35.5095 213.659 35.8011C213.284 36.089 213.002 36.4811 212.812 36.9773C212.627 37.4697 212.534 38.0227 212.534 38.6364C212.534 39.2576 212.629 39.822 212.818 40.3295C213.011 40.8333 213.295 41.2348 213.67 41.5341C214.049 41.8295 214.519 41.9773 215.08 41.9773ZM225.199 43.1818C224.358 43.1818 223.633 42.9962 223.023 42.625C222.417 42.25 221.949 41.7273 221.619 41.0568C221.294 40.3826 221.131 39.5985 221.131 38.7045C221.131 37.8106 221.294 37.0227 221.619 36.3409C221.949 35.6553 222.407 35.1212 222.994 34.7386C223.585 34.3523 224.275 34.1591 225.062 34.1591C225.517 34.1591 225.966 34.2348 226.409 34.3864C226.852 34.5379 227.256 34.7841 227.619 35.125C227.983 35.4621 228.273 35.9091 228.489 36.4659C228.705 37.0227 228.812 37.7083 228.812 38.5227V39.0909H222.085V37.9318H227.449C227.449 37.4394 227.35 37 227.153 36.6136C226.96 36.2273 226.684 35.9223 226.324 35.6989C225.968 35.4754 225.547 35.3636 225.062 35.3636C224.528 35.3636 224.066 35.4962 223.676 35.7614C223.29 36.0227 222.992 36.3636 222.784 36.7841C222.576 37.2045 222.472 37.6553 222.472 38.1364V38.9091C222.472 39.5682 222.585 40.1269 222.812 40.5852C223.044 41.0398 223.364 41.3864 223.773 41.625C224.182 41.8598 224.657 41.9773 225.199 41.9773C225.551 41.9773 225.869 41.928 226.153 41.8295C226.441 41.7273 226.689 41.5758 226.898 41.375C227.106 41.1705 227.267 40.9167 227.381 40.6136L228.676 40.9773C228.54 41.4167 228.311 41.803 227.989 42.1364C227.667 42.4659 227.269 42.7235 226.795 42.9091C226.322 43.0909 225.79 43.1818 225.199 43.1818Z" fill="black"/>
<circle cx="1067.5" cy="35.5" r="7.5" fill="#FCBD2E"/>
<circle cx="1044.5" cy="35.5" r="7.5" fill="#FA6058"/>
<circle cx="1090.5" cy="35.5" r="7.5" fill="#30CA41"/>
<path d="M186.43 165.048C187.018 165.048 187.471 164.922 187.788 164.67C188.105 164.409 188.264 164.031 188.264 163.536C188.264 163.125 188.152 162.78 187.928 162.5C187.713 162.22 187.359 162.005 186.864 161.856L185.73 161.52C185.021 161.305 184.498 160.983 184.162 160.554C183.826 160.115 183.658 159.579 183.658 158.944C183.658 158.459 183.751 158.02 183.938 157.628C184.134 157.236 184.442 156.923 184.862 156.69C185.291 156.457 185.851 156.34 186.542 156.34C186.962 156.34 187.396 156.391 187.844 156.494C188.292 156.587 188.745 156.741 189.202 156.956L188.81 158.006C188.362 157.81 187.956 157.67 187.592 157.586C187.237 157.493 186.897 157.446 186.57 157.446C186.038 157.446 185.623 157.558 185.324 157.782C185.035 157.997 184.89 158.356 184.89 158.86C184.89 159.224 184.988 159.532 185.184 159.784C185.38 160.027 185.73 160.227 186.234 160.386L187.368 160.722C188.787 161.142 189.496 162.047 189.496 163.438C189.496 164.241 189.253 164.894 188.768 165.398C188.283 165.893 187.503 166.14 186.43 166.14C185.991 166.14 185.525 166.089 185.03 165.986C184.545 165.874 184.041 165.701 183.518 165.468L183.896 164.432C184.391 164.656 184.834 164.815 185.226 164.908C185.627 165.001 186.029 165.048 186.43 165.048ZM198.048 160.19V162.276C198.048 163.461 197.749 164.404 197.152 165.104C196.564 165.795 195.715 166.14 194.604 166.14C193.493 166.14 192.639 165.795 192.042 165.104C191.454 164.404 191.16 163.461 191.16 162.276V160.19C191.16 159.014 191.454 158.081 192.042 157.39C192.639 156.69 193.493 156.34 194.604 156.34C195.715 156.34 196.564 156.69 197.152 157.39C197.749 158.081 198.048 159.014 198.048 160.19ZM196.788 160.19C196.788 159.322 196.601 158.655 196.228 158.188C195.864 157.712 195.323 157.474 194.604 157.474C193.895 157.474 193.353 157.712 192.98 158.188C192.607 158.655 192.42 159.322 192.42 160.19V162.276C192.42 163.153 192.607 163.83 192.98 164.306C193.353 164.782 193.895 165.02 194.604 165.02C195.323 165.02 195.864 164.782 196.228 164.306C196.601 163.83 196.788 163.153 196.788 162.276V160.19ZM205.644 164.866V166H199.638V165.02L204.048 157.628H199.778V156.48H205.504V157.474L201.08 164.866H205.644ZM208.876 166H207.658V156.48H208.876V166ZM216.895 166L216.181 163.788H212.569L211.855 166H210.665L213.829 156.48H214.977L218.155 166H216.895ZM213.451 161.044L212.919 162.682H215.817L215.285 161.044L214.375 158.104L213.451 161.044ZM225.143 164.866V166H219.935V156.48H221.153V164.866H225.143ZM232.337 164.866V166H227.017V156.48H232.197V157.628H228.235V160.61H231.777V161.758H228.235V164.866H232.337ZM242.544 166L241.83 163.788H238.218L237.504 166H236.314L239.478 156.48H240.626L243.804 166H242.544ZM239.1 161.044L238.568 162.682H241.466L240.934 161.044L240.024 158.104L239.1 161.044ZM246.802 162.276V166H245.584V156.48H248.566C249.462 156.48 250.152 156.718 250.638 157.194C251.132 157.661 251.38 158.286 251.38 159.07V159.672C251.38 160.232 251.249 160.717 250.988 161.128C250.736 161.539 250.372 161.842 249.896 162.038C250.297 162.682 250.67 163.335 251.016 163.998C251.361 164.661 251.678 165.328 251.968 166H250.568C250.036 164.731 249.415 163.489 248.706 162.276H246.802ZM248.566 157.6H246.802V161.156H248.566C249.042 161.156 249.42 161.025 249.7 160.764C249.98 160.493 250.12 160.129 250.12 159.672V159.07C250.12 158.603 249.98 158.244 249.7 157.992C249.42 157.731 249.042 157.6 248.566 157.6ZM253.992 166V156.48H256.792C257.706 156.48 258.378 156.704 258.808 157.152C259.246 157.591 259.466 158.183 259.466 158.93V159.238C259.466 159.649 259.372 160.013 259.186 160.33C258.999 160.647 258.728 160.899 258.374 161.086C258.868 161.245 259.242 161.506 259.494 161.87C259.755 162.225 259.886 162.654 259.886 163.158V163.466C259.886 164.231 259.662 164.847 259.214 165.314C258.775 165.771 258.084 166 257.142 166H253.992ZM256.792 157.6H255.21V160.61H256.792C257.258 160.61 257.608 160.493 257.842 160.26C258.084 160.017 258.206 159.686 258.206 159.266V158.93C258.206 158.519 258.084 158.197 257.842 157.964C257.608 157.721 257.258 157.6 256.792 157.6ZM257.142 161.73H255.21V164.894H257.142C257.636 164.894 258.005 164.768 258.248 164.516C258.5 164.264 258.626 163.914 258.626 163.466V163.13C258.626 162.701 258.5 162.36 258.248 162.108C258.005 161.856 257.636 161.73 257.142 161.73ZM267.501 164.866V166H262.181V156.48H267.361V157.628H263.399V160.61H266.941V161.758H263.399V164.866H267.501ZM270.837 166H269.619V156.48H270.837V166ZM272.514 157.628V156.48H279.276V157.628H276.504V166H275.286V157.628H272.514Z" fill="black"/>
<defs>
<linearGradient id="paint0_linear_936_2" x1="823.904" y1="316.159" x2="1230.53" y2="592.801" gradientUnits="userSpaceOnUse">
<stop stop-color="#B5EAD7"/>
<stop offset="0.442708" stop-color="#E2F0CB"/>
<stop offset="0.671775" stop-color="#E3F1CD"/>
<stop offset="0.671875" stop-color="white"/>
</linearGradient>
</defs>
</svg>
