<svg xmlns="http://www.w3.org/2000/svg" width="1130" height="657" fill="none"><path d="M0 12C0 6.477 4.477 2 10 2h1110c5.52 0 10 4.477 10 10v645H0V12z" fill="#f4f4f4"/><rect x="101" y="110" width="929" height="514" rx="10" fill="#fff"/><mask id="A" maskUnits="userSpaceOnUse" x="101" y="110" width="929" height="514" mask-type="alpha"><rect x="101" y="110" width="929" height="514" rx="10" fill="#fff"/></mask><g mask="url(#A)"><path d="M1230.53 111.5c114.91 78.182 114.94 312.357 0 481.301S848.915 824.683 733.999 746.5s39.735-354.844 170-409c9.369-176 211.611-304.182 326.531-226z" fill="url(#B)"/></g><path d="M189.804 164.866V166h-5.32v-9.52h5.18v1.148h-3.962v2.982h3.542v1.148h-3.542v3.108h4.102zm.816-7.238v-1.148h6.762v1.148h-2.772V166h-1.218v-8.372h-2.772zM204.421 166v-4.242h-4.158V166h-1.218v-9.52h1.218v4.13h4.158v-4.13h1.218V166h-1.218zm5.398 0h-1.218v-9.52h1.218V166zm8.173 0l-2.716-4.494-.616.63-.644.644V166h-1.218v-9.52h1.218v4.942c.878-.887 1.61-1.727 2.198-2.52a16.3 16.3 0 0 0 1.498-2.422h1.316c-.42.821-.858 1.568-1.316 2.24-.448.663-.961 1.325-1.54 1.988l3.304 5.292h-1.484zm4.977-8.204l2.268-1.316h1.106V166h-1.19v-8.232l-1.652.952-.532-.924z" fill="#000"/><rect x="451" y="494.984" width="88" height="49" rx="15" transform="rotate(342.826 451 494.984)" fill="#f1a2a2"/><g fill="#000"><path d="M489.805 515.062c.802-.248 1.367-.611 1.694-1.089.323-.49.38-1.073.171-1.748-.173-.561-.472-.985-.895-1.272-.411-.292-.986-.435-1.724-.431l-1.69.02c-1.058.006-1.908-.213-2.547-.657-.644-.457-1.1-1.118-1.367-1.985-.205-.662-.263-1.3-.173-1.914.102-.618.39-1.174.865-1.67.488-.5 1.203-.895 2.145-1.186.574-.178 1.188-.291 1.843-.339.65-.062 1.333-.043 2.048.057l-.092 1.599c-.694-.079-1.308-.099-1.84-.06a5.81 5.81 0 0 0-1.454.24c-.726.225-1.246.553-1.559.985-.304.415-.35.966-.137 1.654.153.497.417.876.791 1.137.37.249.932.375 1.687.379l1.689-.02c2.114-.025 3.464.911 4.05 2.809.339 1.096.283 2.09-.166 2.983-.454.879-1.414 1.546-2.878 1.999a9.91 9.91 0 0 1-1.976.38c-.71.052-1.471.029-2.282-.069l.078-1.574c.77.097 1.442.127 2.017.089.587-.042 1.154-.148 1.702-.317zm8.099-1.08l-1.758.544-.537-1.739 1.758-.543.537 1.738zm2.027-12.893l2.54-2.753 1.51-.466 4.016 12.993-1.625.502-3.472-11.235-1.853 1.996-1.116-1.037zm18.407 6.578l-7.414 2.292-.39-1.262c-.295-.955-.428-1.793-.4-2.514.041-.724.195-1.358.46-1.9a5.19 5.19 0 0 1 1.037-1.451l1.047-1.015c.492-.486.858-.949 1.1-1.386.254-.441.285-.974.092-1.599l-.1-.324c-.221-.714-.584-1.167-1.09-1.359-.493-.197-1.129-.175-1.906.065-.433.134-.874.333-1.322.598-.453.251-.933.595-1.44 1.031l-.966-1.23c.546-.49 1.093-.889 1.639-1.197.56-.313 1.113-.554 1.661-.723 1.414-.437 2.529-.419 3.345.055.813.46 1.38 1.213 1.703 2.258l.1.325c.213.687.256 1.302.131 1.843-.113.538-.337 1.032-.672 1.485-.326.435-.693.849-1.103 1.241l-1.041 1.033a3.26 3.26 0 0 0-.93 1.732c-.107.647-.039 1.408.203 2.282l5.79-1.789.466 1.509z"/><path d="M193.12 297l-.84-2.66h-4.66l-.84 2.66h-2.38l4.54-13.6h2.12l4.56 13.6h-2.5zm-4.2-6.82l-.62 1.96h3.28l-.62-1.96-1-3.44-1.04 3.44zm14.196-1.22a5.43 5.43 0 0 0-1.8.3c-.56.187-1.1.493-1.62.92V297h-2.3v-10.14h2.18v1.56c.68-.64 1.287-1.093 1.82-1.36a3.79 3.79 0 0 1 1.72-.4v2.3zm8.115 7.7c-.347.16-.747.287-1.2.38-.454.107-.914.16-1.38.16-.774 0-1.394-.16-1.86-.48s-.807-.767-1.02-1.34c-.2-.573-.3-1.227-.3-1.96v-4.56h-1.64v-2h1.64v-2.64h2.3v2.64h3.16v2h-3.16v4.56c0 .613.113 1.04.34 1.28.24.227.58.34 1.02.34.213 0 .44-.02.68-.06.253-.053.533-.14.84-.26l.58 1.94zm4.209-11.72h-2.42v-2.38h2.42v2.38zm-.06 12.06h-2.3v-10.14h2.3V297zm9.229 0l-2.5-4.22-1.26 1.2V297h-2.3v-14.8h2.3v9.24c.76-.773 1.413-1.513 1.96-2.22.56-.72 1.073-1.507 1.54-2.36h2.64c-.44.8-.92 1.56-1.44 2.28l-1.72 2.18 3.56 5.68h-2.78zm11.991-.58c-.693.28-1.346.48-1.96.6s-1.193.18-1.74.18c-1.506 0-2.646-.427-3.42-1.28s-1.16-1.987-1.16-3.4v-1.2c0-.947.174-1.767.52-2.46s.84-1.233 1.48-1.62 1.394-.58 2.26-.58c.707 0 1.367.147 1.98.44a3.42 3.42 0 0 1 1.52 1.34c.4.6.6 1.373.6 2.32a7.28 7.28 0 0 1-.06.9c-.04.307-.106.633-.2.98h-5.88c.027.827.234 1.447.62 1.86s1.007.62 1.86.62a6.42 6.42 0 0 0 1.4-.16c.494-.107 1-.267 1.52-.48l.66 1.94zm-4.02-7.82c-.613 0-1.093.2-1.44.6-.333.387-.526.947-.58 1.68h3.84c.014-.067.02-.127.02-.18v-.18c0-.64-.18-1.12-.54-1.44s-.793-.48-1.3-.48zm6.69 5.54V282.2h2.3v11.94c0 .2.047.393.14.58.107.173.307.26.6.26h.32v2.12h-.56c-.76 0-1.34-.147-1.74-.44s-.68-.667-.84-1.12a4.51 4.51 0 0 1-.22-1.4zm8.211-8.8l3.46-1.94h2V297h-2.36v-10.96l-2.04 1.12-1.06-1.82zm10.659 3.9h-2.42v-2.38h2.42v2.38zm0 7.76h-2.42v-2.38h2.42V297zm-71.24 28.14c0 .973.173 1.98.52 3.02.36 1.04.887 2.013 1.58 2.92l-1.26.98a11.44 11.44 0 0 1-1.86-3.4c-.427-1.24-.64-2.427-.64-3.56v-.54c0-1.853.467-3.693 1.4-5.52.947-1.84 2.373-3.52 4.28-5.04l.9 1.26c-1.56 1.32-2.773 2.747-3.64 4.28-.853 1.533-1.28 3.24-1.28 5.12v.48zm12.348-1.86h-4.92l-1.02 5.72h-1.74l2.4-13.6h7.28l-.3 1.64h-5.52l-.82 4.6h4.94l-.3 1.64zm8.484-2.72c-.306 0-.673.053-1.1.16-.426.093-.886.293-1.38.6-.48.307-.973.773-1.48 1.4l-1.1 6.28h-1.64l1.76-9.9h1.54l-.32 1.86c.76-.84 1.48-1.393 2.16-1.66.694-.267 1.307-.4 1.84-.4l-.28 1.66zm7.944 8.04c-.573.213-1.127.367-1.66.46a8.86 8.86 0 0 1-1.52.14c-1.067 0-1.907-.213-2.52-.64-.6-.44-1-1.033-1.2-1.78s-.227-1.587-.08-2.52l.18-1.02c.213-1.307.713-2.353 1.5-3.14.8-.8 1.807-1.2 3.02-1.2a4.39 4.39 0 0 1 1.68.32c.533.213.96.547 1.28 1s.48 1.033.48 1.74c0 .387-.06.8-.18 1.24-.107.427-.313.893-.62 1.4h-5.78c-.12.92-.013 1.673.32 2.26.333.573 1.02.86 2.06.86.373 0 .8-.04 1.28-.12.48-.093.98-.227 1.5-.4l.26 1.4zm-2.34-8.24c-.76 0-1.387.253-1.88.76-.493.493-.813 1.187-.96 2.08h4.48a2.2 2.2 0 0 0 .2-.64c.04-.2.06-.387.06-.56 0-.56-.18-.973-.54-1.24s-.813-.4-1.36-.4zm9.078-3.68h-1.84l.3-1.84h1.84l-.3 1.84zm-2.3 12.32h-1.64l1.76-9.9h1.64l-1.76 9.9zm9.895-8.56c-.253 0-.553.06-.9.18-.333.107-.72.32-1.16.64s-.947.787-1.52 1.4l-1.12 6.34h-1.64l2.6-14.8h1.64l-1.16 6.62c.76-.787 1.44-1.3 2.04-1.54.613-.253 1.167-.38 1.66-.38.92 0 1.593.327 2.02.98s.547 1.513.36 2.58l-1.16 6.54h-1.64l1.12-6.4c.147-.72.113-1.26-.1-1.62-.2-.36-.547-.54-1.04-.54zm12.386 8.16c-.573.213-1.127.367-1.66.46a8.86 8.86 0 0 1-1.52.14c-1.067 0-1.907-.213-2.52-.64-.6-.44-1-1.033-1.2-1.78s-.227-1.587-.08-2.52l.18-1.02c.213-1.307.713-2.353 1.5-3.14.8-.8 1.807-1.2 3.02-1.2a4.39 4.39 0 0 1 1.68.32c.533.213.96.547 1.28 1s.48 1.033.48 1.74c0 .387-.06.8-.18 1.24-.107.427-.313.893-.62 1.4h-5.78c-.12.92-.013 1.673.32 2.26.333.573 1.02.86 2.06.86.373 0 .8-.04 1.28-.12.48-.093.98-.227 1.5-.4l.26 1.4zm-2.34-8.24c-.76 0-1.387.253-1.88.76-.493.493-.813 1.187-.96 2.08h4.48a2.2 2.2 0 0 0 .2-.64c.04-.2.06-.387.06-.56 0-.56-.18-.973-.54-1.24s-.813-.4-1.36-.4zm9.078-3.68h-1.84l.3-1.84h1.84l-.3 1.84zm-2.3 12.32h-1.64l1.759-9.9h1.641l-1.76 9.9zm9.095-.34c-.854.36-1.66.54-2.42.54-.68 0-1.207-.147-1.58-.44-.374-.307-.614-.7-.72-1.18s-.114-.993-.02-1.54l.96-5.5h-1.72l.24-1.44h1.74l.48-2.76h1.64l-.48 2.76h3.24l-.26 1.44h-3.24l-.98 5.5c-.107.613-.06 1.047.14 1.3.2.24.493.36.88.36.213 0 .466-.027.76-.08a4.82 4.82 0 0 0 .98-.34l.36 1.38zm3.397-1.48l-.06.38c-.174 1.08-.467 2.047-.88 2.9-.414.867-1 1.767-1.76 2.7l-.98-.62c.413-.64.746-1.227 1-1.76.24-.52.44-1.06.6-1.62s.306-1.22.44-1.98h1.64zm16.003 1c-.734.373-1.447.64-2.14.8a9.36 9.36 0 0 1-1.98.22c-1.08 0-1.967-.24-2.66-.72s-1.174-1.153-1.44-2.02c-.267-.88-.3-1.907-.1-3.08l.46-2.6c.306-1.827.92-3.213 1.84-4.16.933-.947 2.24-1.42 3.92-1.42.6 0 1.213.067 1.84.2.64.133 1.28.353 1.92.66l-.62 1.52c-.614-.293-1.18-.493-1.7-.6s-1.014-.16-1.48-.16c-1.094 0-1.967.347-2.62 1.04-.64.68-1.074 1.653-1.3 2.92l-.46 2.6c-.227 1.347-.134 2.393.28 3.14.413.733 1.186 1.1 2.32 1.1a6.79 6.79 0 0 0 1.16-.1 7.59 7.59 0 0 0 1.34-.42l.66-3.68h-2.54l.3-1.54h4.12l-1.12 6.3zm3.39-1.68l2.16-12.3h1.64l-2.16 12.32c-.053.373-.047.647.02.82.08.173.307.26.68.26h.3l-.28 1.5h-.34c-.92 0-1.52-.24-1.8-.72-.28-.493-.353-1.12-.22-1.88zm12.153 2.1a9.41 9.41 0 0 1-1.66.46 8.86 8.86 0 0 1-1.52.14c-1.066 0-1.906-.213-2.52-.64-.6-.44-1-1.033-1.2-1.78s-.226-1.587-.08-2.52l.18-1.02c.214-1.307.714-2.353 1.5-3.14.8-.8 1.807-1.2 3.02-1.2a4.39 4.39 0 0 1 1.68.32 2.8 2.8 0 0 1 1.28 1c.32.453.48 1.033.48 1.74 0 .387-.06.8-.18 1.24-.106.427-.313.893-.62 1.4h-5.78c-.12.92-.013 1.673.32 2.26.334.573 1.02.86 2.06.86.374 0 .8-.04 1.28-.12.48-.093.98-.227 1.5-.4l.26 1.4zm-2.34-8.24c-.76 0-1.386.253-1.88.76-.493.493-.813 1.187-.96 2.08h4.48a2.17 2.17 0 0 0 .2-.64c.04-.2.06-.387.06-.56 0-.56-.18-.973-.54-1.24s-.813-.4-1.36-.4zm9.078-3.68h-1.84l.3-1.84h1.84l-.3 1.84zm-2.3 12.32h-1.64l1.76-9.9h1.64l-1.76 9.9zm8.495-8.58c-.733 0-1.346.247-1.84.74-.493.48-.813 1.173-.96 2.08l-.18 1.08c-.16.987-.1 1.8.18 2.44.294.627.92.94 1.88.94.707 0 1.514-.167 2.42-.5l.28 1.42c-1.053.387-2 .58-2.84.58-.986 0-1.766-.213-2.34-.64-.573-.44-.953-1.033-1.14-1.78s-.206-1.587-.06-2.52l.16-1.02c.227-1.347.72-2.407 1.48-3.18.774-.773 1.747-1.16 2.92-1.16a5.59 5.59 0 0 1 1.46.2c.494.133.987.32 1.48.56l-.58 1.4c-.413-.2-.82-.353-1.22-.46a3.71 3.71 0 0 0-1.1-.18zm10.424.02c-.254 0-.554.06-.9.18-.334.107-.72.32-1.16.64s-.947.787-1.52 1.4l-1.12 6.34h-1.64l2.6-14.8h1.64l-1.16 6.62c.76-.787 1.44-1.3 2.04-1.54.613-.253 1.166-.38 1.66-.38.92 0 1.593.327 2.02.98s.546 1.513.36 2.58l-1.16 6.54h-1.64l1.12-6.4c.146-.72.113-1.26-.1-1.62-.2-.36-.547-.54-1.04-.54zm11.426 0c-.254 0-.554.06-.9.18-.334.107-.72.32-1.16.64s-.947.787-1.52 1.4l-1.12 6.34h-1.64l2.6-14.8h1.64l-1.16 6.62c.76-.787 1.44-1.3 2.04-1.54.613-.253 1.166-.38 1.66-.38.92 0 1.593.327 2.02.98s.546 1.513.36 2.58l-1.16 6.54h-1.64l1.12-6.4c.146-.72.113-1.26-.1-1.62-.2-.36-.547-.54-1.04-.54zm12.385 8.16a9.41 9.41 0 0 1-1.66.46 8.86 8.86 0 0 1-1.52.14c-1.066 0-1.906-.213-2.52-.64-.6-.44-1-1.033-1.2-1.78s-.226-1.587-.08-2.52l.18-1.02c.214-1.307.714-2.353 1.5-3.14.8-.8 1.807-1.2 3.02-1.2a4.39 4.39 0 0 1 1.68.32 2.8 2.8 0 0 1 1.28 1c.32.453.48 1.033.48 1.74 0 .387-.06.8-.18 1.24-.106.427-.313.893-.62 1.4h-5.78c-.12.92-.013 1.673.32 2.26.334.573 1.02.86 2.06.86.374 0 .8-.04 1.28-.12.48-.093.98-.227 1.5-.4l.26 1.4zm-2.34-8.24c-.76 0-1.386.253-1.88.76-.493.493-.813 1.187-.96 2.08h4.48a2.17 2.17 0 0 0 .2-.64c.04-.2.06-.387.06-.56 0-.56-.18-.973-.54-1.24s-.813-.4-1.36-.4zm9.078-3.68h-1.84l.3-1.84h1.84l-.3 1.84zm-2.3 12.32h-1.64l1.76-9.9h1.64l-1.76 9.9zm9.095-.34c-.853.36-1.66.54-2.42.54-.68 0-1.206-.147-1.58-.44-.373-.307-.613-.7-.72-1.18a3.99 3.99 0 0 1-.02-1.54l.96-5.5h-1.72l.24-1.44h1.74l.48-2.76h1.64l-.48 2.76h3.24l-.26 1.44h-3.24l-.98 5.5c-.106.613-.06 1.047.14 1.3.2.24.494.36.88.36a4.36 4.36 0 0 0 .76-.08 4.78 4.78 0 0 0 .98-.34l.36 1.38zm3.397-1.48l-.06.38c-.173 1.08-.467 2.047-.88 2.9-.413.867-1 1.767-1.76 2.7l-.98-.62c.413-.64.747-1.227 1-1.76.24-.52.44-1.06.6-1.62a19.58 19.58 0 0 0 .44-1.98h1.64zm7.263 1.82l2.4-13.6h3.8c1.254 0 2.18.34 2.78 1.02s.807 1.573.62 2.68l-.08.46a3.18 3.18 0 0 1-1.86 2.5c.587.28 1.007.693 1.26 1.24.254.533.32 1.147.2 1.84l-.06.46c-.173 1.067-.606 1.9-1.3 2.5s-1.706.9-3.04.9h-4.72zm6.12-12h-2.26l-.76 4.3h2.26c.667 0 1.2-.153 1.6-.46s.647-.727.74-1.26l.1-.48c.107-.653.02-1.167-.26-1.54s-.753-.56-1.42-.56zm-.54 5.9h-2.76l-.8 4.52h2.76c.707 0 1.274-.16 1.7-.48.427-.333.687-.787.78-1.36l.08-.48c.107-.667.014-1.2-.28-1.6s-.786-.6-1.48-.6zm12.479-2.34c-.307 0-.673.053-1.1.16-.427.093-.887.293-1.38.6-.48.307-.973.773-1.48 1.4l-1.1 6.28h-1.64l1.76-9.9h1.54l-.32 1.86c.76-.84 1.48-1.393 2.16-1.66.693-.267 1.307-.4 1.84-.4l-.28 1.66zm6.744 8.44l.32-1.8c-.774.813-1.46 1.353-2.06 1.62-.587.253-1.12.38-1.6.38-.894 0-1.547-.327-1.96-.98-.4-.653-.507-1.507-.32-2.56l1.16-6.56h1.64l-1.12 6.4c-.134.733-.107 1.28.08 1.64.2.347.513.52.94.52.253 0 .54-.053.86-.16.32-.12.693-.34 1.12-.66s.92-.78 1.48-1.38l1.12-6.36h1.64l-1.74 9.9h-1.56zm-1.2-12.38h-1.72l.3-1.72h1.72l-.3 1.72zm3.82 0h-1.72l.3-1.72h1.72l-.3 1.72zm8.492 12.38l.3-1.76c-.627.733-1.227 1.247-1.8 1.54-.56.28-1.1.42-1.62.42-.667 0-1.214-.207-1.64-.62s-.72-.98-.88-1.7-.174-1.533-.04-2.44l.14-.98c.213-1.453.706-2.573 1.48-3.36.786-.8 1.84-1.2 3.16-1.2a5.09 5.09 0 0 1 1.28.16 7.05 7.05 0 0 1 1.22.44l.94-5.3h1.64l-2.62 14.8h-1.56zm-3.98-4.56c-.147 1.053-.107 1.867.12 2.44.226.56.626.84 1.2.84.426 0 .913-.187 1.46-.56s1.146-1.027 1.8-1.96l.74-4.22c-.734-.387-1.447-.58-2.14-.58-.894 0-1.587.273-2.08.82s-.814 1.293-.96 2.24l-.14.98zm16.372 4.16a9.41 9.41 0 0 1-1.66.46 8.86 8.86 0 0 1-1.52.14c-1.066 0-1.906-.213-2.52-.64-.6-.44-1-1.033-1.2-1.78s-.226-1.587-.08-2.52l.18-1.02c.214-1.307.714-2.353 1.5-3.14.8-.8 1.807-1.2 3.02-1.2a4.39 4.39 0 0 1 1.68.32 2.8 2.8 0 0 1 1.28 1c.32.453.48 1.033.48 1.74 0 .387-.06.8-.18 1.24-.106.427-.313.893-.62 1.4h-5.78c-.12.92-.013 1.673.32 2.26.334.573 1.02.86 2.06.86.374 0 .8-.04 1.28-.12.48-.093.98-.227 1.5-.4l.26 1.4zm-2.34-8.24c-.76 0-1.386.253-1.88.76-.493.493-.813 1.187-.96 2.08h4.48a2.17 2.17 0 0 0 .2-.64c.04-.2.06-.387.06-.56 0-.56-.18-.973-.54-1.24s-.813-.4-1.36-.4zm11.838.2c-.307 0-.673.053-1.1.16-.427.093-.887.293-1.38.6-.48.307-.973.773-1.48 1.4l-1.1 6.28h-1.64l1.76-9.9h1.54l-.32 1.86c.76-.84 1.48-1.393 2.16-1.66.693-.267 1.307-.4 1.84-.4l-.28 1.66zm1.064 5.94l2.16-12.3h1.64l-2.16 12.32c-.054.373-.047.647.02.82.08.173.306.26.68.26h.3l-.28 1.5h-.34c-.92 0-1.52-.24-1.8-.72-.28-.493-.354-1.12-.22-1.88zm8.793-9.82h-1.84l.3-1.84h1.84l-.3 1.84zm-2.3 12.32h-1.64l1.76-9.9h1.64l-1.76 9.9zm8.496-8.58c-.734 0-1.347.247-1.84.74-.494.48-.814 1.173-.96 2.08l-.18 1.08c-.16.987-.1 1.8.18 2.44.293.627.92.94 1.88.94.706 0 1.513-.167 2.42-.5l.28 1.42c-1.054.387-2 .58-2.84.58-.987 0-1.767-.213-2.34-.64-.574-.44-.954-1.033-1.14-1.78s-.207-1.587-.06-2.52l.16-1.02c.226-1.347.72-2.407 1.48-3.18.773-.773 1.746-1.16 2.92-1.16.48 0 .966.067 1.46.2s.986.32 1.48.56l-.58 1.4c-.414-.2-.82-.353-1.22-.46a3.72 3.72 0 0 0-1.1-.18zm10.423.02c-.253 0-.553.06-.9.18-.333.107-.72.32-1.16.64s-.947.787-1.52 1.4l-1.12 6.34h-1.64l2.6-14.8h1.64l-1.16 6.62c.76-.787 1.44-1.3 2.04-1.54.613-.253 1.167-.38 1.66-.38.92 0 1.593.327 2.02.98s.547 1.513.36 2.58l-1.16 6.54h-1.64l1.12-6.4c.147-.72.113-1.26-.1-1.62-.2-.36-.547-.54-1.04-.54zm11.226 8.56l-2-4.6-.94.78-1.02.78-.54 3.04h-1.64l2.62-14.8h1.64l-1.76 9.92 2.7-2.42c.813-.8 1.566-1.667 2.26-2.6h1.96l-1.88 2.26-2.06 2.08 2.56 5.56h-1.9zm10.984-.4c-.573.213-1.127.367-1.66.46a8.86 8.86 0 0 1-1.52.14c-1.067 0-1.907-.213-2.52-.64-.6-.44-1-1.033-1.2-1.78s-.227-1.587-.08-2.52l.18-1.02c.213-1.307.713-2.353 1.5-3.14.8-.8 1.807-1.2 3.02-1.2a4.39 4.39 0 0 1 1.68.32c.533.213.96.547 1.28 1s.48 1.033.48 1.74c0 .387-.06.8-.18 1.24-.107.427-.313.893-.62 1.4h-5.78c-.12.92-.013 1.673.32 2.26.333.573 1.02.86 2.06.86.373 0 .8-.04 1.28-.12.48-.093.98-.227 1.5-.4l.26 1.4zm-2.34-8.24c-.76 0-1.387.253-1.88.76-.493.493-.813 1.187-.96 2.08h4.48a2.2 2.2 0 0 0 .2-.64c.04-.2.06-.387.06-.56 0-.56-.18-.973-.54-1.24s-.813-.4-1.36-.4zm9.078-3.68h-1.84l.3-1.84h1.84l-.3 1.84zm-2.3 12.32h-1.64l1.76-9.9h1.64l-1.76 9.9zm9.095-.34c-.853.36-1.66.54-2.42.54-.68 0-1.207-.147-1.58-.44-.373-.307-.613-.7-.72-1.18a3.97 3.97 0 0 1-.02-1.54l.96-5.5h-1.72l.24-1.44h1.74l.48-2.76h1.64l-.48 2.76h3.24l-.26 1.44h-3.24l-.98 5.5c-.107.613-.06 1.047.14 1.3.2.24.493.36.88.36a4.37 4.37 0 0 0 .76-.08 4.8 4.8 0 0 0 .98-.34l.36 1.38zm4.977-7.24v-.48c0-.987-.18-2-.54-3.04a10.28 10.28 0 0 0-1.56-2.92l1.24-.98a10.9 10.9 0 0 1 1.88 3.4c.426 1.24.64 2.433.64 3.58v.54c0 1.84-.467 3.68-1.4 5.52-.934 1.827-2.354 3.5-4.26 5.02l-.92-1.26c1.546-1.307 2.753-2.727 3.62-4.26s1.3-3.24 1.3-5.12zM193.32 361l-1.02-3.16h-5.16l-1.02 3.16h-1.7l4.52-13.6h1.64l4.54 13.6h-1.8zm-4.92-7.08l-.76 2.34h4.14l-.76-2.34-1.3-4.2-1.32 4.2zm8.883 4.68v-12.4h1.64v12.32c0 .36.053.633.16.82.12.173.353.26.7.26h.32v1.5h-.46c-.88 0-1.493-.233-1.84-.7s-.52-1.067-.52-1.8zm5.273 0v-12.4h1.64v12.32c0 .36.054.633.16.82.12.173.354.26.7.26h.32v1.5h-.46c-.88 0-1.493-.233-1.84-.7s-.52-1.067-.52-1.8zm12.474 1.82a6.83 6.83 0 0 1-1.8.6c-.6.12-1.153.18-1.66.18-1.427 0-2.493-.407-3.2-1.22-.693-.813-1.04-1.927-1.04-3.34v-1.2c0-1.373.347-2.473 1.04-3.3.707-.827 1.7-1.24 2.98-1.24a4.1 4.1 0 0 1 1.86.42c.573.267 1.027.68 1.36 1.24.347.547.52 1.253.52 2.12 0 .56-.08 1.2-.24 1.92h-5.9v.04c0 1.013.207 1.78.62 2.3.427.52 1.107.78 2.04.78a6.81 6.81 0 0 0 1.4-.16c.52-.107 1.027-.273 1.52-.5l.5 1.36zm-3.68-8.08c-.773 0-1.36.253-1.76.76-.387.493-.6 1.193-.64 2.1h4.48c.04-.24.06-.467.06-.68 0-.747-.213-1.293-.64-1.64-.413-.36-.913-.54-1.5-.54zm13.333-4.94l4.14 10.08 4.16-10.08h1.98V361h-1.7v-5.82l.22-5.24-3.9 9.46h-1.64l-3.82-9.5.22 5.28V361h-1.7v-13.6h2.04zm21.362 13.02a6.83 6.83 0 0 1-1.8.6c-.6.12-1.153.18-1.66.18-1.426 0-2.493-.407-3.2-1.22-.693-.813-1.04-1.927-1.04-3.34v-1.2c0-1.373.347-2.473 1.04-3.3.707-.827 1.7-1.24 2.98-1.24a4.1 4.1 0 0 1 1.86.42 3.05 3.05 0 0 1 1.36 1.24c.347.547.52 1.253.52 2.12 0 .56-.08 1.2-.24 1.92h-5.9v.04c0 1.013.207 1.78.62 2.3.427.52 1.107.78 2.04.78.427 0 .894-.053 1.4-.16.52-.107 1.027-.273 1.52-.5l.5 1.36zm-3.68-8.08c-.773 0-1.36.253-1.76.76-.386.493-.6 1.193-.64 2.1h4.48c.04-.24.06-.467.06-.68 0-.747-.213-1.293-.64-1.64-.413-.36-.913-.54-1.5-.54zm11.339.1c-.374 0-.814.093-1.32.28-.494.187-1.094.567-1.8 1.14V361h-1.64v-9.9h1.56v1.38c.706-.6 1.346-1.013 1.92-1.24.586-.227 1.146-.34 1.68-.34.92 0 1.62.293 2.1.88.493.573.74 1.393.74 2.46V361h-1.64v-6.52c0-1.36-.534-2.04-1.6-2.04zm9.085 7.3c1.334 0 2-.453 2-1.36 0-.387-.12-.693-.36-.92s-.68-.42-1.32-.58l-1.1-.28c-.813-.2-1.42-.547-1.82-1.04-.4-.507-.6-1.107-.6-1.8 0-.507.114-.973.34-1.4.227-.44.587-.793 1.08-1.06s1.134-.4 1.92-.4a6.83 6.83 0 0 1 1.54.18 6.67 6.67 0 0 1 1.62.56l-.52 1.38c-.973-.44-1.853-.66-2.64-.66-1.16 0-1.74.433-1.74 1.3 0 .333.107.62.32.86s.614.433 1.2.58l1.1.28c.88.213 1.527.56 1.94 1.04s.62 1.1.62 1.86c0 .547-.12 1.047-.36 1.5-.226.44-.6.787-1.12 1.04-.506.253-1.193.38-2.06.38-.573 0-1.146-.06-1.72-.18-.56-.12-1.14-.313-1.74-.58l.44-1.36c.574.227 1.094.393 1.56.5s.94.16 1.42.16zm7.354-4.28v1.18c0 1.013.186 1.78.56 2.3.373.507.966.76 1.78.76.8 0 1.66-.207 2.58-.62l.5 1.38c-1.094.493-2.154.74-3.18.74-1.28 0-2.254-.407-2.92-1.22s-1-1.927-1-3.34v-1.18c0-1.413.333-2.527 1-3.34s1.64-1.22 2.92-1.22a5.82 5.82 0 0 1 1.48.2c.52.12 1.04.293 1.56.52l-.5 1.4c-.44-.187-.867-.333-1.28-.44-.4-.107-.787-.16-1.16-.16-.814 0-1.407.26-1.78.78-.374.507-.56 1.26-.56 2.26zm12.584-3.02c-.373 0-.813.093-1.32.28-.493.187-1.093.567-1.8 1.14V361h-1.64v-14.8h1.64v6.22c.693-.587 1.32-.987 1.88-1.2s1.107-.32 1.64-.32c.92 0 1.62.293 2.1.88.493.573.74 1.393.74 2.46V361h-1.64v-6.52c0-1.36-.533-2.04-1.6-2.04zm13.846 7.98a6.83 6.83 0 0 1-1.8.6c-.6.12-1.154.18-1.66.18-1.427 0-2.494-.407-3.2-1.22-.694-.813-1.04-1.927-1.04-3.34v-1.2c0-1.373.346-2.473 1.04-3.3.706-.827 1.7-1.24 2.98-1.24a4.1 4.1 0 0 1 1.86.42 3.06 3.06 0 0 1 1.36 1.24c.346.547.52 1.253.52 2.12 0 .56-.08 1.2-.24 1.92h-5.9v.04c0 1.013.206 1.78.62 2.3.426.52 1.106.78 2.04.78.426 0 .893-.053 1.4-.16a7.01 7.01 0 0 0 1.52-.5l.5 1.36zm-3.68-8.08c-.774 0-1.36.253-1.76.76-.387.493-.6 1.193-.64 2.1h4.48c.04-.24.06-.467.06-.68 0-.747-.214-1.293-.64-1.64-.414-.36-.914-.54-1.5-.54zm11.338.1c-.373 0-.813.093-1.32.28-.493.187-1.093.567-1.8 1.14V361h-1.64v-9.9h1.56v1.38c.707-.6 1.347-1.013 1.92-1.24.587-.227 1.147-.34 1.68-.34.92 0 1.62.293 2.1.88.493.573.74 1.393.74 2.46V361h-1.64v-6.52c0-1.36-.533-2.04-1.6-2.04zm13.441 7.3c1.334 0 2-.453 2-1.36 0-.387-.12-.693-.36-.92s-.68-.42-1.32-.58l-1.1-.28c-.813-.2-1.42-.547-1.82-1.04-.4-.507-.6-1.107-.6-1.8 0-.507.114-.973.34-1.4.227-.44.587-.793 1.08-1.06s1.134-.4 1.92-.4a6.83 6.83 0 0 1 1.54.18 6.67 6.67 0 0 1 1.62.56l-.52 1.38c-.973-.44-1.853-.66-2.64-.66-1.16 0-1.74.433-1.74 1.3 0 .333.107.62.32.86s.614.433 1.2.58l1.1.28c.88.213 1.527.56 1.94 1.04s.62 1.1.62 1.86c0 .547-.12 1.047-.36 1.5-.226.44-.6.787-1.12 1.04-.506.253-1.193.38-2.06.38-.573 0-1.146-.06-1.72-.18-.56-.12-1.14-.313-1.74-.58l.44-1.36c.574.227 1.094.393 1.56.5s.94.16 1.42.16zm7.933-11.06h-1.84v-1.84h1.84v1.84zm-.1 12.32h-1.64v-9.9h1.64v9.9zm8.296-8.56c-.373 0-.813.093-1.32.28-.493.187-1.093.567-1.8 1.14V361h-1.64v-9.9h1.56v1.38c.707-.6 1.347-1.013 1.92-1.24.587-.227 1.147-.34 1.68-.34.92 0 1.62.293 2.1.88.494.573.74 1.393.74 2.46V361h-1.64v-6.52c0-1.36-.533-2.04-1.6-2.04zm12.686 8.56v-1.38c-.613.587-1.173 1-1.68 1.24-.493.227-1.007.34-1.54.34-1.053 0-1.867-.4-2.44-1.2-.56-.8-.84-1.92-.84-3.36v-1.16c0-1.4.347-2.513 1.04-3.34.707-.827 1.727-1.24 3.06-1.24a5.71 5.71 0 0 1 1.16.12c.387.08.773.193 1.16.34v-5.16h1.64V361h-1.56zm-4.8-4.36c0 1.04.16 1.807.48 2.3.333.48.827.72 1.48.72.387 0 .787-.093 1.2-.28.413-.2.933-.607 1.56-1.22v-5.28a4.99 4.99 0 0 0-1.12-.36c-.36-.08-.713-.12-1.06-.12-.907 0-1.56.273-1.96.82-.387.547-.58 1.3-.58 2.26v1.16zm19.449-4.1h-3.24V361h-1.64v-8.46h-1.72v-1.44h1.72v-1.64c0-.613.1-1.18.3-1.7.213-.533.553-.96 1.02-1.28s1.086-.48 1.86-.48a5.74 5.74 0 0 1 1.22.14 5.04 5.04 0 0 1 1.22.38l-.46 1.38c-.68-.267-1.274-.4-1.78-.4-.56 0-.994.153-1.3.46-.294.307-.44.8-.44 1.48v1.66h3.24v1.44zm6.992 0c-.6 0-1.187.107-1.76.32-.56.213-1.16.62-1.8 1.22V361h-1.64v-9.9h1.56v1.6c.68-.667 1.3-1.133 1.86-1.4a4.17 4.17 0 0 1 1.78-.4v1.64zm9.324 7.88a6.83 6.83 0 0 1-1.8.6c-.6.12-1.154.18-1.66.18-1.427 0-2.494-.407-3.2-1.22-.694-.813-1.04-1.927-1.04-3.34v-1.2c0-1.373.346-2.473 1.04-3.3.706-.827 1.7-1.24 2.98-1.24a4.1 4.1 0 0 1 1.86.42 3.06 3.06 0 0 1 1.36 1.24c.346.547.52 1.253.52 2.12 0 .56-.08 1.2-.24 1.92h-5.9v.04c0 1.013.206 1.78.62 2.3.426.52 1.106.78 2.04.78.426 0 .893-.053 1.4-.16a7.01 7.01 0 0 0 1.52-.5l.5 1.36zm-3.68-8.08c-.774 0-1.36.253-1.76.76-.387.493-.6 1.193-.64 2.1h4.48c.04-.24.06-.467.06-.68 0-.747-.214-1.293-.64-1.64-.414-.36-.914-.54-1.5-.54zm8.318-3.66h-1.84v-1.84h1.84v1.84zm-.1 12.32h-1.64v-9.9h1.64v9.9zm13.991 0v-1.4c-.693.6-1.313 1.02-1.86 1.26-.547.227-1.093.34-1.64.34-.88 0-1.553-.287-2.02-.86-.467-.587-.7-1.407-.7-2.46v-6.78h1.64v6.54c0 .693.12 1.207.36 1.54.253.32.627.48 1.12.48.373 0 .793-.093 1.26-.28s1.047-.56 1.74-1.12v-7.16h1.64v9.9h-1.54zm9.832-8.56c-.373 0-.813.093-1.32.28-.493.187-1.093.567-1.8 1.14V361h-1.64v-9.9h1.56v1.38c.707-.6 1.347-1.013 1.92-1.24.587-.227 1.147-.34 1.68-.34.92 0 1.62.293 2.1.88.493.573.74 1.393.74 2.46V361h-1.64v-6.52c0-1.36-.533-2.04-1.6-2.04zm12.686 8.56v-1.38c-.614.587-1.174 1-1.68 1.24-.494.227-1.007.34-1.54.34-1.054 0-1.867-.4-2.44-1.2-.56-.8-.84-1.92-.84-3.36v-1.16c0-1.4.346-2.513 1.04-3.34.706-.827 1.726-1.24 3.06-1.24a5.72 5.72 0 0 1 1.16.12 7.62 7.62 0 0 1 1.16.34v-5.16h1.64V361h-1.56zm-4.8-4.36c0 1.04.16 1.807.48 2.3.333.48.826.72 1.48.72.386 0 .786-.093 1.2-.28.413-.2.933-.607 1.56-1.22v-5.28a4.99 4.99 0 0 0-1.12-.36 4.88 4.88 0 0 0-1.06-.12c-.907 0-1.56.273-1.96.82-.387.547-.58 1.3-.58 2.26v1.16zm22.169 5.6c0 .973-.4 1.753-1.2 2.34-.787.587-1.874.88-3.26.88-.694 0-1.42-.093-2.18-.28a7.42 7.42 0 0 1-2.12-.9l.56-1.28c.666.373 1.306.633 1.92.78a7.34 7.34 0 0 0 1.82.24c.906 0 1.606-.147 2.1-.44s.74-.687.74-1.18c0-.36-.12-.64-.36-.84-.24-.187-.627-.28-1.16-.28h-2.3c-.867 0-1.494-.207-1.88-.62s-.58-.867-.58-1.36a2.33 2.33 0 0 1 .24-1.02c.16-.347.386-.687.68-1.02-.467-.28-.84-.66-1.12-1.14-.28-.493-.42-1.087-.42-1.78 0-.76.16-1.393.48-1.9.333-.507.773-.887 1.32-1.14.546-.267 1.16-.4 1.84-.4h.339a3.92 3.92 0 0 1 1.281.2h3.56v1.46l-2.16-.3a2.73 2.73 0 0 1 .68.9c.173.347.26.773.26 1.28 0 .72-.167 1.327-.5 1.82-.32.493-.754.873-1.3 1.14-.547.253-1.154.38-1.821.38h-.339a6.16 6.16 0 0 1-.5-.02l-.48-.08c-.387.427-.58.847-.58 1.26 0 .533.373.8 1.12.8h2.24c.96 0 1.713.213 2.26.64s.82 1.047.82 1.86zm-4.541-5.88c.521 0 .981-.167 1.381-.5s.6-.84.6-1.52c0-.667-.2-1.167-.6-1.5-.4-.347-.86-.52-1.381-.52h-.339c-.534 0-1 .173-1.4.52-.4.333-.6.833-.6 1.5 0 .68.2 1.187.6 1.52a2.12 2.12 0 0 0 1.4.5h.339zm6.991 2.24v-12.4h1.64v12.32c0 .36.053.633.16.82.12.173.353.26.7.26h.32v1.5h-.46c-.88 0-1.493-.233-1.84-.7s-.52-1.067-.52-1.8zm12.474 1.82a6.83 6.83 0 0 1-1.8.6c-.6.12-1.154.18-1.66.18-1.427 0-2.494-.407-3.2-1.22-.694-.813-1.04-1.927-1.04-3.34v-1.2c0-1.373.346-2.473 1.04-3.3.706-.827 1.7-1.24 2.98-1.24a4.1 4.1 0 0 1 1.86.42 3.06 3.06 0 0 1 1.36 1.24c.346.547.52 1.253.52 2.12 0 .56-.08 1.2-.24 1.92h-5.9v.04c0 1.013.206 1.78.62 2.3.426.52 1.106.78 2.04.78.426 0 .893-.053 1.4-.16a7.01 7.01 0 0 0 1.52-.5l.5 1.36zm-3.68-8.08c-.774 0-1.36.253-1.76.76-.387.493-.6 1.193-.64 2.1h4.48c.04-.24.06-.467.06-.68 0-.747-.214-1.293-.64-1.64-.414-.36-.914-.54-1.5-.54zm8.318-3.66h-1.84v-1.84h1.84v1.84zm-.1 12.32h-1.64v-9.9h1.64v9.9zm4.695-5.54v1.18c0 1.013.187 1.78.56 2.3.374.507.967.76 1.78.76.8 0 1.66-.207 2.58-.62l.5 1.38c-1.093.493-2.153.74-3.18.74-1.28 0-2.253-.407-2.92-1.22s-1-1.927-1-3.34v-1.18c0-1.413.334-2.527 1-3.34s1.64-1.22 2.92-1.22c.48 0 .974.067 1.48.2.52.12 1.04.293 1.56.52l-.5 1.4c-.44-.187-.866-.333-1.28-.44-.4-.107-.786-.16-1.16-.16-.813 0-1.406.26-1.78.78-.373.507-.56 1.26-.56 2.26zm12.585-3.02c-.373 0-.813.093-1.32.28-.493.187-1.093.567-1.8 1.14V361h-1.64v-14.8h1.64v6.22c.693-.587 1.32-.987 1.88-1.2s1.107-.32 1.64-.32c.92 0 1.62.293 2.1.88.493.573.74 1.393.74 2.46V361h-1.64v-6.52c0-1.36-.533-2.04-1.6-2.04zm18.261 8.66c-.613 0-1.107-.14-1.48-.42-.36-.28-.613-.627-.76-1.04-.653.573-1.247.98-1.78 1.22-.533.227-1.067.34-1.6.34-.867 0-1.507-.28-1.92-.84s-.62-1.247-.62-2.06c0-.547.1-1.033.3-1.46s.54-.76 1.02-1c.48-.253 1.127-.38 1.94-.38.36 0 .753.027 1.18.08l1.3.16v-1.34c0-.747-.167-1.253-.5-1.52-.32-.28-.793-.42-1.42-.42-.853 0-1.807.233-2.86.7l-.52-1.36c.613-.28 1.2-.493 1.76-.64a6.67 6.67 0 0 1 1.7-.22c.933 0 1.647.153 2.14.46s.833.713 1.02 1.22a4.76 4.76 0 0 1 .28 1.66v4.28c0 .307.06.567.18.78.12.2.36.3.72.3h.22v1.5h-.3zm-6.54-2.82c0 .453.107.82.32 1.1s.52.42.92.42c.347 0 .747-.1 1.2-.3.453-.213 1.013-.633 1.68-1.26v-1.26c-.907-.147-1.707-.22-2.4-.22-.613 0-1.053.127-1.32.38s-.4.633-.4 1.14zm13.923-5.84c-.373 0-.813.093-1.32.28-.493.187-1.093.567-1.8 1.14V361h-1.64v-9.9h1.56v1.38c.707-.6 1.347-1.013 1.92-1.24.587-.227 1.147-.34 1.68-.34.92 0 1.62.293 2.1.88.494.573.74 1.393.74 2.46V361h-1.64v-6.52c0-1.36-.533-2.04-1.6-2.04zm12.982.72l.96 5.5 3.14-11.26h1.62l3.14 11.2 1-5.44 1.18-5.76h1.72l-3 13.6h-1.76l-3.12-11.12-3.12 11.12h-1.78l-2.98-13.6h1.82l1.18 5.76zm21.151 7.84v-1.4c-.693.6-1.313 1.02-1.86 1.26-.546.227-1.093.34-1.64.34-.88 0-1.553-.287-2.02-.86-.466-.587-.7-1.407-.7-2.46v-6.78h1.64v6.54c0 .693.12 1.207.36 1.54.254.32.627.48 1.12.48.374 0 .794-.093 1.26-.28s1.047-.56 1.74-1.12v-7.16h1.64v9.9h-1.54zm-3.4-12.38h-1.72v-1.72h1.72v1.72zm3.82 0h-1.72v-1.72h1.72v1.72zm9.852 3.92a5.02 5.02 0 0 0-1.76.32c-.56.213-1.16.62-1.8 1.22V361h-1.64v-9.9h1.56v1.6c.68-.667 1.3-1.133 1.86-1.4.574-.267 1.167-.4 1.78-.4v1.64zm8.164 8.46v-1.38c-.613.587-1.173 1-1.68 1.24-.493.227-1.007.34-1.54.34-1.053 0-1.867-.4-2.44-1.2-.56-.8-.84-1.92-.84-3.36v-1.16c0-1.4.347-2.513 1.04-3.34.707-.827 1.727-1.24 3.06-1.24a5.71 5.71 0 0 1 1.16.12c.387.08.773.193 1.16.34v-5.16h1.64V361h-1.56zm-4.8-4.36c0 1.04.16 1.807.48 2.3.333.48.827.72 1.48.72.387 0 .787-.093 1.2-.28.413-.2.933-.607 1.56-1.22v-5.28a4.99 4.99 0 0 0-1.12-.36c-.36-.08-.713-.12-1.06-.12-.907 0-1.56.273-1.96.82-.387.547-.58 1.3-.58 2.26v1.16zm17.073 3.78a6.83 6.83 0 0 1-1.8.6c-.6.12-1.153.18-1.66.18-1.426 0-2.493-.407-3.2-1.22-.693-.813-1.04-1.927-1.04-3.34v-1.2c0-1.373.347-2.473 1.04-3.3.707-.827 1.7-1.24 2.98-1.24a4.1 4.1 0 0 1 1.86.42 3.05 3.05 0 0 1 1.36 1.24c.347.547.52 1.253.52 2.12 0 .56-.08 1.2-.24 1.92h-5.9v.04c0 1.013.207 1.78.62 2.3.427.52 1.107.78 2.04.78.427 0 .894-.053 1.4-.16.52-.107 1.027-.273 1.52-.5l.5 1.36zm-3.68-8.08c-.773 0-1.36.253-1.76.76-.386.493-.6 1.193-.64 2.1h4.48c.04-.24.06-.467.06-.68 0-.747-.213-1.293-.64-1.64-.413-.36-.913-.54-1.5-.54zM191.86 393v-1.4c-.693.6-1.313 1.02-1.86 1.26-.547.227-1.093.34-1.64.34-.88 0-1.553-.287-2.02-.86-.467-.587-.7-1.407-.7-2.46v-6.78h1.64v6.54c0 .693.12 1.207.36 1.54.253.32.627.48 1.12.48.373 0 .793-.093 1.26-.28s1.047-.56 1.74-1.12v-7.16h1.64v9.9h-1.54zm9.832-8.56c-.373 0-.813.093-1.32.28-.493.187-1.093.567-1.8 1.14V393h-1.64v-9.9h1.56v1.38c.707-.6 1.347-1.013 1.92-1.24.587-.227 1.147-.34 1.68-.34.92 0 1.62.293 2.1.88.493.573.74 1.393.74 2.46V393h-1.64v-6.52c0-1.36-.533-2.04-1.6-2.04zm12.686 8.56v-1.38c-.614.587-1.174 1-1.68 1.24-.494.227-1.007.34-1.54.34-1.054 0-1.867-.4-2.44-1.2-.56-.8-.84-1.92-.84-3.36v-1.16c0-1.4.346-2.513 1.04-3.34.706-.827 1.726-1.24 3.06-1.24a5.72 5.72 0 0 1 1.16.12 7.62 7.62 0 0 1 1.16.34v-5.16h1.64V393h-1.56zm-4.8-4.36c0 1.04.16 1.807.48 2.3.333.48.826.72 1.48.72.386 0 .786-.093 1.2-.28.413-.2.933-.607 1.56-1.22v-5.28a4.99 4.99 0 0 0-1.12-.36 4.88 4.88 0 0 0-1.06-.12c-.907 0-1.56.273-1.96.82-.387.547-.58 1.3-.58 2.26v1.16zm16.348-.96V393h-1.74v-13.6h4.26c1.28 0 2.267.34 2.96 1.02.707.667 1.06 1.56 1.06 2.68v.86c0 .8-.186 1.493-.56 2.08a3.2 3.2 0 0 1-1.56 1.3l1.6 2.8 1.36 2.86h-2c-.76-1.813-1.646-3.587-2.66-5.32h-2.72zm2.52-6.68h-2.52v5.08h2.52c.68 0 1.22-.187 1.62-.56.4-.387.6-.907.6-1.56v-.86c0-.667-.2-1.18-.6-1.54-.4-.373-.94-.56-1.62-.56zm14.572 11.42a6.83 6.83 0 0 1-1.8.6c-.6.12-1.153.18-1.66.18-1.427 0-2.493-.407-3.2-1.22-.693-.813-1.04-1.927-1.04-3.34v-1.2c0-1.373.347-2.473 1.04-3.3.707-.827 1.7-1.24 2.98-1.24a4.1 4.1 0 0 1 1.86.42c.573.267 1.027.68 1.36 1.24.347.547.52 1.253.52 2.12 0 .56-.08 1.2-.24 1.92h-5.9v.04c0 1.013.207 1.78.62 2.3.427.52 1.107.78 2.04.78a6.81 6.81 0 0 0 1.4-.16c.52-.107 1.027-.273 1.52-.5l.5 1.36zm-3.68-8.08c-.773 0-1.36.253-1.76.76-.387.493-.6 1.193-.64 2.1h4.48c.04-.24.06-.467.06-.68 0-.747-.213-1.293-.64-1.64-.413-.36-.913-.54-1.5-.54zm7.738 3.12v1.18c0 1.013.187 1.78.56 2.3.374.507.967.76 1.78.76.8 0 1.66-.207 2.58-.62l.5 1.38c-1.093.493-2.153.74-3.18.74-1.28 0-2.253-.407-2.92-1.22s-1-1.927-1-3.34v-1.18c0-1.413.334-2.527 1-3.34s1.64-1.22 2.92-1.22c.48 0 .974.067 1.48.2.52.12 1.04.293 1.56.52l-.5 1.4c-.44-.187-.866-.333-1.28-.44-.4-.107-.786-.16-1.16-.16-.813 0-1.406.26-1.78.78-.373.507-.56 1.26-.56 2.26zm12.585-3.02c-.374 0-.814.093-1.32.28-.494.187-1.094.567-1.8 1.14V393h-1.64v-14.8h1.64v6.22c.693-.587 1.32-.987 1.88-1.2s1.106-.32 1.64-.32c.92 0 1.62.293 2.1.88.493.573.74 1.393.74 2.46V393h-1.64v-6.52c0-1.36-.534-2.04-1.6-2.04zm12.105 8.2c-.746.373-1.54.56-2.38.56-.72 0-1.286-.147-1.7-.44a2.42 2.42 0 0 1-.86-1.18c-.16-.493-.24-1.04-.24-1.64v-5.4h-1.72v-1.44h1.72v-2.76h1.64v2.76h3.24v1.44h-3.24v5.34c0 .693.114 1.173.34 1.44.24.253.607.38 1.1.38a3.61 3.61 0 0 0 .74-.08 4.57 4.57 0 0 0 .86-.32l.5 1.34zm9.338-.22a6.83 6.83 0 0 1-1.8.6c-.6.12-1.153.18-1.66.18-1.427 0-2.493-.407-3.2-1.22-.693-.813-1.04-1.927-1.04-3.34v-1.2c0-1.373.347-2.473 1.04-3.3.707-.827 1.7-1.24 2.98-1.24a4.1 4.1 0 0 1 1.86.42c.573.267 1.027.68 1.36 1.24.347.547.52 1.253.52 2.12 0 .56-.08 1.2-.24 1.92h-5.9v.04c0 1.013.207 1.78.62 2.3.427.52 1.107.78 2.04.78a6.81 6.81 0 0 0 1.4-.16c.52-.107 1.027-.273 1.52-.5l.5 1.36zm-3.68-8.08c-.773 0-1.36.253-1.76.76-.387.493-.6 1.193-.64 2.1h4.48c.04-.24.06-.467.06-.68 0-.747-.213-1.293-.64-1.64-.413-.36-.913-.54-1.5-.54zm11.338.1c-.373 0-.813.093-1.32.28-.493.187-1.093.567-1.8 1.14V393h-1.64v-9.9h1.56v1.38c.707-.6 1.347-1.013 1.92-1.24.587-.227 1.147-.34 1.68-.34.92 0 1.62.293 2.1.88.494.573.74 1.393.74 2.46V393h-1.64v-6.52c0-1.36-.533-2.04-1.6-2.04zm18.941 9.8c0 .973-.4 1.753-1.2 2.34-.786.587-1.873.88-3.26.88-.693 0-1.42-.093-2.18-.28-.746-.187-1.453-.487-2.12-.9l.56-1.28c.667.373 1.307.633 1.92.78.627.16 1.234.24 1.82.24.907 0 1.607-.147 2.1-.44s.74-.687.74-1.18c0-.36-.12-.64-.36-.84-.24-.187-.626-.28-1.16-.28h-2.3c-.866 0-1.493-.207-1.88-.62s-.58-.867-.58-1.36a2.33 2.33 0 0 1 .24-1.02c.16-.347.387-.687.68-1.02a3.17 3.17 0 0 1-1.12-1.14c-.28-.493-.42-1.087-.42-1.78 0-.76.16-1.393.48-1.9.334-.507.774-.887 1.32-1.14.547-.267 1.16-.4 1.84-.4h.34a3.91 3.91 0 0 1 1.28.2h3.56v1.46l-2.16-.3c.28.24.507.54.68.9.174.347.26.773.26 1.28 0 .72-.166 1.327-.5 1.82-.32.493-.753.873-1.3 1.14-.546.253-1.153.38-1.82.38h-.34a6.18 6.18 0 0 1-.5-.02l-.48-.08c-.386.427-.58.847-.58 1.26 0 .533.374.8 1.12.8h2.24c.96 0 1.714.213 2.26.64s.82 1.047.82 1.86zm-4.54-5.88c.52 0 .98-.167 1.38-.5s.6-.84.6-1.52c0-.667-.2-1.167-.6-1.5-.4-.347-.86-.52-1.38-.52h-.34a2.07 2.07 0 0 0-1.4.52c-.4.333-.6.833-.6 1.5 0 .68.2 1.187.6 1.52s.867.5 1.4.5h.34zm14.191 4.06a6.83 6.83 0 0 1-1.8.6c-.6.12-1.153.18-1.66.18-1.427 0-2.493-.407-3.2-1.22-.693-.813-1.04-1.927-1.04-3.34v-1.2c0-1.373.347-2.473 1.04-3.3.707-.827 1.7-1.24 2.98-1.24a4.1 4.1 0 0 1 1.86.42c.573.267 1.027.68 1.36 1.24.347.547.52 1.253.52 2.12 0 .56-.08 1.2-.24 1.92h-5.9v.04c0 1.013.207 1.78.62 2.3.427.52 1.107.78 2.04.78a6.81 6.81 0 0 0 1.4-.16c.52-.107 1.027-.273 1.52-.5l.5 1.36zm-3.68-8.08c-.773 0-1.36.253-1.76.76-.387.493-.6 1.193-.64 2.1h4.48c.04-.24.06-.467.06-.68 0-.747-.213-1.293-.64-1.64-.413-.36-.913-.54-1.5-.54zm14.578 4.3c0 1.387-.346 2.493-1.04 3.32s-1.713 1.24-3.06 1.24c-1.333 0-2.653-.353-3.96-1.06V378.2h1.64v6.24c.6-.56 1.147-.953 1.64-1.18.507-.24 1.02-.36 1.54-.36 1.04 0 1.84.4 2.4 1.2s.84 1.927.84 3.38v1.16zm-3.64-4.2c-.373 0-.773.1-1.2.3-.413.2-.94.613-1.58 1.24v5.24c.787.333 1.527.5 2.22.5.894 0 1.534-.273 1.92-.82.387-.56.58-1.313.58-2.26v-1.16c0-1.04-.16-1.807-.48-2.3s-.806-.74-1.46-.74zm14.515 3v1.2c0 1.413-.366 2.527-1.1 3.34-.72.813-1.753 1.22-3.1 1.22-1.333 0-2.366-.407-3.1-1.22s-1.1-1.927-1.1-3.34v-1.2c0-1.387.36-2.487 1.08-3.3.734-.827 1.774-1.24 3.12-1.24s2.38.413 3.1 1.24c.734.813 1.1 1.913 1.1 3.3zm-1.7 0c0-.947-.213-1.687-.64-2.22-.426-.547-1.046-.82-1.86-.82-.8 0-1.42.273-1.86.82-.426.533-.64 1.273-.64 2.22v1.2c0 .987.214 1.747.64 2.28.44.533 1.06.8 1.86.8.814 0 1.434-.267 1.86-.8s.64-1.293.64-2.28v-1.2zm9.881-2.9c-.6 0-1.187.107-1.76.32-.56.213-1.16.62-1.8 1.22V393h-1.64v-9.9h1.56v1.6c.68-.667 1.3-1.133 1.86-1.4.573-.267 1.166-.4 1.78-.4v1.64zm9.323 7.88a6.83 6.83 0 0 1-1.8.6c-.6.12-1.153.18-1.66.18-1.426 0-2.493-.407-3.2-1.22-.693-.813-1.04-1.927-1.04-3.34v-1.2c0-1.373.347-2.473 1.04-3.3.707-.827 1.7-1.24 2.98-1.24a4.1 4.1 0 0 1 1.86.42 3.05 3.05 0 0 1 1.36 1.24c.347.547.52 1.253.52 2.12 0 .56-.08 1.2-.24 1.92h-5.9v.04c0 1.013.207 1.78.62 2.3.427.52 1.107.78 2.04.78.427 0 .894-.053 1.4-.16.52-.107 1.027-.273 1.52-.5l.5 1.36zm-3.68-8.08c-.773 0-1.36.253-1.76.76-.386.493-.6 1.193-.64 2.1h4.48c.04-.24.06-.467.06-.68 0-.747-.213-1.293-.64-1.64-.413-.36-.913-.54-1.5-.54zm11.339.1c-.374 0-.814.093-1.32.28-.494.187-1.094.567-1.8 1.14V393h-1.64v-9.9h1.56v1.38c.706-.6 1.346-1.013 1.92-1.24.586-.227 1.146-.34 1.68-.34.92 0 1.62.293 2.1.88.493.573.74 1.393.74 2.46V393h-1.64v-6.52c0-1.36-.534-2.04-1.6-2.04zm7.706 8.56h-1.84v-1.82h1.84V393zm10.263-1.36c.84 0 1.487-.18 1.94-.54.454-.373.68-.913.68-1.62 0-.587-.16-1.08-.48-1.48-.306-.4-.813-.707-1.52-.92l-1.62-.48c-1.013-.307-1.76-.767-2.24-1.38-.48-.627-.72-1.393-.72-2.3 0-.693.134-1.32.4-1.88.28-.56.72-1.007 1.32-1.34.614-.333 1.414-.5 2.4-.5a8.3 8.3 0 0 1 1.86.22c.64.133 1.287.353 1.94.66l-.56 1.5c-.64-.28-1.22-.48-1.74-.6-.506-.133-.993-.2-1.46-.2-.76 0-1.353.16-1.78.48-.413.307-.62.82-.62 1.54 0 .52.14.96.42 1.32.28.347.78.633 1.5.86l1.62.48c2.027.6 3.04 1.893 3.04 3.88 0 1.147-.346 2.08-1.04 2.8-.693.707-1.806 1.06-3.34 1.06-.626 0-1.293-.073-2-.22-.693-.16-1.413-.407-2.16-.74l.54-1.48c.707.32 1.34.547 1.9.68.574.133 1.147.2 1.72.2zm8.718-10.96h-1.84v-1.84h1.84v1.84zm-.1 12.32h-1.64v-9.9h1.64v9.9zm10.715-.58a6.83 6.83 0 0 1-1.8.6c-.6.12-1.153.18-1.66.18-1.426 0-2.493-.407-3.2-1.22-.693-.813-1.04-1.927-1.04-3.34v-1.2c0-1.373.347-2.473 1.04-3.3.707-.827 1.7-1.24 2.98-1.24a4.1 4.1 0 0 1 1.86.42 3.05 3.05 0 0 1 1.36 1.24c.347.547.52 1.253.52 2.12 0 .56-.08 1.2-.24 1.92h-5.9v.04c0 1.013.207 1.78.62 2.3.427.52 1.107.78 2.04.78.427 0 .894-.053 1.4-.16.52-.107 1.027-.273 1.52-.5l.5 1.36zm-3.68-8.08c-.773 0-1.36.253-1.76.76-.386.493-.6 1.193-.64 2.1h4.48c.04-.24.06-.467.06-.68 0-.747-.213-1.293-.64-1.64-.413-.36-.913-.54-1.5-.54zm13.354 7.4c1.333 0 2-.453 2-1.36 0-.387-.12-.693-.36-.92s-.68-.42-1.32-.58l-1.1-.28c-.813-.2-1.42-.547-1.82-1.04-.4-.507-.6-1.107-.6-1.8 0-.507.113-.973.34-1.4.227-.44.587-.793 1.08-1.06s1.133-.4 1.92-.4a6.83 6.83 0 0 1 1.54.18 6.7 6.7 0 0 1 1.62.56l-.52 1.38c-.973-.44-1.853-.66-2.64-.66-1.16 0-1.74.433-1.74 1.3 0 .333.107.62.32.86s.613.433 1.2.58l1.1.28c.88.213 1.527.56 1.94 1.04s.62 1.1.62 1.86c0 .547-.12 1.047-.36 1.5-.227.44-.6.787-1.12 1.04-.507.253-1.193.38-2.06.38-.573 0-1.147-.06-1.72-.18-.56-.12-1.14-.313-1.74-.58l.44-1.36c.573.227 1.093.393 1.56.5s.94.16 1.42.16zm7.933-11.06h-1.84v-1.84h1.84v1.84zm-.1 12.32h-1.64v-9.9h1.64v9.9zm8.296-8.56c-.373 0-.813.093-1.32.28-.493.187-1.093.567-1.8 1.14V393h-1.64v-9.9h1.56v1.38c.707-.6 1.347-1.013 1.92-1.24.587-.227 1.147-.34 1.68-.34.92 0 1.62.293 2.1.88.493.573.74 1.393.74 2.46V393h-1.64v-6.52c0-1.36-.533-2.04-1.6-2.04zm12.686 8.56v-1.38c-.614.587-1.174 1-1.68 1.24-.494.227-1.007.34-1.54.34-1.054 0-1.867-.4-2.44-1.2-.56-.8-.84-1.92-.84-3.36v-1.16c0-1.4.346-2.513 1.04-3.34.706-.827 1.726-1.24 3.06-1.24a5.72 5.72 0 0 1 1.16.12 7.62 7.62 0 0 1 1.16.34v-5.16h1.64V393h-1.56zm-4.8-4.36c0 1.04.16 1.807.48 2.3.333.48.826.72 1.48.72.386 0 .786-.093 1.2-.28.413-.2.933-.607 1.56-1.22v-5.28a4.99 4.99 0 0 0-1.12-.36 4.88 4.88 0 0 0-1.06-.12c-.907 0-1.56.273-1.96.82-.387.547-.58 1.3-.58 2.26v1.16zm18.909-4.2c-.374 0-.794.1-1.26.3-.467.187-1.054.56-1.76 1.12V393h-1.64v-9.9h1.56v1.38c.706-.587 1.333-.993 1.88-1.22.546-.24 1.086-.36 1.62-.36.626 0 1.146.147 1.56.44.413.28.72.687.92 1.22.733-.627 1.386-1.06 1.96-1.3.586-.24 1.16-.36 1.72-.36.88 0 1.553.293 2.02.88.466.573.7 1.393.7 2.46V393h-1.64v-6.52c0-1.36-.494-2.04-1.48-2.04-.374 0-.8.1-1.28.3-.467.187-1.054.56-1.76 1.12.013.053.02.113.02.18v.2V393h-1.64v-6.52c0-1.36-.5-2.04-1.5-2.04zm14.462-3.76h-1.84v-1.84h1.84v1.84zm-.1 12.32h-1.64v-9.9h1.64v9.9zm8.976-.36c-.747.373-1.54.56-2.38.56-.72 0-1.287-.147-1.7-.44-.4-.293-.687-.687-.86-1.18-.16-.493-.24-1.04-.24-1.64v-5.4h-1.72v-1.44h1.72v-2.76h1.64v2.76h3.24v1.44h-3.24v5.34c0 .693.113 1.173.34 1.44.24.253.607.38 1.1.38a3.61 3.61 0 0 0 .74-.08c.267-.067.553-.173.86-.32l.5 1.34zm15.613-13.24l-4.34 13.6h-1.76l-4.36-13.6h1.84l2.16 6.9 1.3 4.36 1.32-4.38 2.12-6.88h1.72zm8.881 13.02a6.83 6.83 0 0 1-1.8.6c-.6.12-1.153.18-1.66.18-1.427 0-2.493-.407-3.2-1.22-.693-.813-1.04-1.927-1.04-3.34v-1.2c0-1.373.347-2.473 1.04-3.3.707-.827 1.7-1.24 2.98-1.24a4.1 4.1 0 0 1 1.86.42c.573.267 1.027.68 1.36 1.24.347.547.52 1.253.52 2.12 0 .56-.08 1.2-.24 1.92h-5.9v.04c0 1.013.207 1.78.62 2.3.427.52 1.107.78 2.04.78a6.81 6.81 0 0 0 1.4-.16c.52-.107 1.027-.273 1.52-.5l.5 1.36zm-3.68-8.08c-.773 0-1.36.253-1.76.76-.387.493-.6 1.193-.64 2.1h4.48c.04-.24.06-.467.06-.68 0-.747-.213-1.293-.64-1.64-.413-.36-.913-.54-1.5-.54zm11.778.2c-.6 0-1.187.107-1.76.32-.56.213-1.16.62-1.8 1.22V393h-1.64v-9.9h1.56v1.6c.68-.667 1.3-1.133 1.86-1.4a4.17 4.17 0 0 1 1.78-.4v1.64zm6.904-.1c-.373 0-.813.093-1.32.28-.493.187-1.093.567-1.8 1.14V393h-1.64v-9.9h1.56v1.38c.707-.6 1.347-1.013 1.92-1.24.587-.227 1.147-.34 1.68-.34.92 0 1.62.293 2.1.88.493.573.74 1.393.74 2.46V393h-1.64v-6.52c0-1.36-.533-2.04-1.6-2.04zM529.79 393v-1.4c-.694.6-1.314 1.02-1.86 1.26a4.25 4.25 0 0 1-1.64.34c-.88 0-1.554-.287-2.02-.86-.467-.587-.7-1.407-.7-2.46v-6.78h1.64v6.54c0 .693.12 1.207.36 1.54.253.32.626.48 1.12.48.373 0 .793-.093 1.26-.28s1.046-.56 1.74-1.12v-7.16h1.64v9.9h-1.54zm9.832-8.56c-.374 0-.814.093-1.32.28-.494.187-1.094.567-1.8 1.14V393h-1.64v-9.9h1.56v1.38c.706-.6 1.346-1.013 1.92-1.24.586-.227 1.146-.34 1.68-.34.92 0 1.62.293 2.1.88.493.573.74 1.393.74 2.46V393h-1.64v-6.52c0-1.36-.534-2.04-1.6-2.04zm13.225 5.58v-5.48h-4.6V393h-1.64v-8.46h-1.72v-1.44h1.72v-1.44a4.43 4.43 0 0 1 .36-1.8c.24-.56.64-1.007 1.2-1.34.56-.347 1.314-.52 2.26-.52.587 0 1.227.073 1.92.22s1.407.387 2.14.72v4.16h3.24v1.44h-3.24v5.42c0 .667.107 1.127.32 1.38.227.24.574.36 1.04.36.24 0 .494-.033.76-.1a4.47 4.47 0 0 0 .94-.36l.48 1.36a5.28 5.28 0 0 1-2.46.6c-.693 0-1.24-.14-1.64-.42a2.2 2.2 0 0 1-.84-1.14c-.16-.493-.24-1.033-.24-1.62zm-4.6-8.38v1.46h4.6v-3.22c-.893-.253-1.686-.38-2.38-.38-.733 0-1.286.167-1.66.5s-.56.88-.56 1.64zM191.86 425v-1.4c-.693.6-1.313 1.02-1.86 1.26-.547.227-1.093.34-1.64.34-.88 0-1.553-.287-2.02-.86-.467-.587-.7-1.407-.7-2.46v-6.78h1.64v6.54c0 .693.12 1.207.36 1.54.253.32.627.48 1.12.48.373 0 .793-.093 1.26-.28s1.047-.56 1.74-1.12v-7.16h1.64v9.9h-1.54zm9.832-8.56c-.373 0-.813.093-1.32.28-.493.187-1.093.567-1.8 1.14V425h-1.64v-9.9h1.56v1.38c.707-.6 1.347-1.013 1.92-1.24.587-.227 1.147-.34 1.68-.34.92 0 1.62.293 2.1.88.493.573.74 1.393.74 2.46V425h-1.64v-6.52c0-1.36-.533-2.04-1.6-2.04zm12.686 8.56v-1.38c-.614.587-1.174 1-1.68 1.24-.494.227-1.007.34-1.54.34-1.054 0-1.867-.4-2.44-1.2-.56-.8-.84-1.92-.84-3.36v-1.16c0-1.4.346-2.513 1.04-3.34.706-.827 1.726-1.24 3.06-1.24a5.72 5.72 0 0 1 1.16.12 7.62 7.62 0 0 1 1.16.34v-5.16h1.64V425h-1.56zm-4.8-4.36c0 1.04.16 1.807.48 2.3.333.48.826.72 1.48.72.386 0 .786-.093 1.2-.28.413-.2.933-.607 1.56-1.22v-5.28a4.99 4.99 0 0 0-1.12-.36 4.88 4.88 0 0 0-1.06-.12c-.907 0-1.56.273-1.96.82-.387.547-.58 1.3-.58 2.26v1.16zm23.208 3.42c-.386.253-.94.507-1.66.76-.706.253-1.56.38-2.56.38-1.08 0-1.993-.227-2.74-.68-.733-.467-1.293-1.113-1.68-1.94-.373-.84-.56-1.807-.56-2.9v-2.98c0-1.707.427-3.047 1.28-4.02.867-.987 2.12-1.48 3.76-1.48.6 0 1.227.067 1.88.2.667.133 1.327.353 1.98.66l-.56 1.5c-1.2-.493-2.293-.74-3.28-.74-1.093 0-1.913.333-2.46 1-.533.653-.8 1.613-.8 2.88v2.98c0 1.2.274 2.153.82 2.86s1.374 1.06 2.48 1.06c.427 0 .86-.047 1.3-.14a5.48 5.48 0 0 0 1.2-.38v-3.66h-2.54v-1.54h4.14v6.18zm10.291.36a6.83 6.83 0 0 1-1.8.6c-.6.12-1.154.18-1.66.18-1.427 0-2.494-.407-3.2-1.22-.694-.813-1.04-1.927-1.04-3.34v-1.2c0-1.373.346-2.473 1.04-3.3.706-.827 1.7-1.24 2.98-1.24a4.1 4.1 0 0 1 1.86.42 3.06 3.06 0 0 1 1.36 1.24c.346.547.52 1.253.52 2.12 0 .56-.08 1.2-.24 1.92h-5.9v.04c0 1.013.206 1.78.62 2.3.426.52 1.106.78 2.04.78.426 0 .893-.053 1.4-.16a7.01 7.01 0 0 0 1.52-.5l.5 1.36zm-3.68-8.08c-.774 0-1.36.253-1.76.76-.387.493-.6 1.193-.64 2.1h4.48c.04-.24.06-.467.06-.68 0-.747-.214-1.293-.64-1.64-.414-.36-.914-.54-1.5-.54zm18.479-1.24l-2.54 9.9h-1.9l-2.08-8.12-2.14 8.12h-1.9l-2.52-9.9h1.68l1 4.14.9 4.1 2.14-8.24h1.74l2.14 8.28.88-4.12.98-4.16h1.62zm4.116-2.42h-1.84v-1.84h1.84v1.84zm-.1 12.32h-1.64v-9.9h1.64v9.9zm5.956-1.26c1.333 0 2-.453 2-1.36 0-.387-.12-.693-.36-.92s-.68-.42-1.32-.58l-1.1-.28c-.813-.2-1.42-.547-1.82-1.04-.4-.507-.6-1.107-.6-1.8 0-.507.113-.973.34-1.4.227-.44.587-.793 1.08-1.06s1.133-.4 1.92-.4a6.83 6.83 0 0 1 1.54.18 6.7 6.7 0 0 1 1.62.56l-.52 1.38c-.973-.44-1.853-.66-2.64-.66-1.16 0-1.74.433-1.74 1.3 0 .333.107.62.32.86s.613.433 1.2.58l1.1.28c.88.213 1.527.56 1.94 1.04s.62 1.1.62 1.86c0 .547-.12 1.047-.36 1.5-.227.44-.6.787-1.12 1.04-.507.253-1.193.38-2.06.38-.573 0-1.147-.06-1.72-.18-.56-.12-1.14-.313-1.74-.58l.44-1.36c.573.227 1.093.393 1.56.5s.94.16 1.42.16zm8.613 0c1.334 0 2-.453 2-1.36 0-.387-.12-.693-.36-.92s-.68-.42-1.32-.58l-1.1-.28c-.813-.2-1.42-.547-1.82-1.04-.4-.507-.6-1.107-.6-1.8 0-.507.114-.973.34-1.4.227-.44.587-.793 1.08-1.06s1.134-.4 1.92-.4a6.83 6.83 0 0 1 1.54.18 6.67 6.67 0 0 1 1.62.56l-.52 1.38c-.973-.44-1.853-.66-2.64-.66-1.16 0-1.74.433-1.74 1.3 0 .333.107.62.32.86s.614.433 1.2.58l1.1.28c.88.213 1.527.56 1.94 1.04s.62 1.1.62 1.86c0 .547-.12 1.047-.36 1.5-.226.44-.6.787-1.12 1.04-.506.253-1.193.38-2.06.38-.573 0-1.146-.06-1.72-.18-.56-.12-1.14-.313-1.74-.58l.44-1.36c.574.227 1.094.393 1.56.5s.94.16 1.42.16zm13.374.68a6.83 6.83 0 0 1-1.8.6c-.6.12-1.154.18-1.66.18-1.427 0-2.494-.407-3.2-1.22-.694-.813-1.04-1.927-1.04-3.34v-1.2c0-1.373.346-2.473 1.04-3.3.706-.827 1.7-1.24 2.98-1.24a4.1 4.1 0 0 1 1.86.42 3.06 3.06 0 0 1 1.36 1.24c.346.547.52 1.253.52 2.12 0 .56-.08 1.2-.24 1.92h-5.9v.04c0 1.013.206 1.78.62 2.3.426.52 1.106.78 2.04.78.426 0 .893-.053 1.4-.16a7.01 7.01 0 0 0 1.52-.5l.5 1.36zm-3.68-8.08c-.774 0-1.36.253-1.76.76-.387.493-.6 1.193-.64 2.1h4.48c.04-.24.06-.467.06-.68 0-.747-.214-1.293-.64-1.64-.414-.36-.914-.54-1.5-.54zm11.338.1c-.374 0-.814.093-1.32.28-.494.187-1.094.567-1.8 1.14V425h-1.64v-9.9h1.56v1.38c.706-.6 1.346-1.013 1.92-1.24.586-.227 1.146-.34 1.68-.34.92 0 1.62.293 2.1.88.493.573.74 1.393.74 2.46V425h-1.64v-6.52c0-1.36-.534-2.04-1.6-2.04zm19.021 4.2c0 1.387-.347 2.493-1.04 3.32s-1.713 1.24-3.06 1.24c-1.333 0-2.653-.353-3.96-1.06V410.2h1.64v6.24c.6-.56 1.147-.953 1.64-1.18.507-.24 1.02-.36 1.54-.36 1.04 0 1.84.4 2.4 1.2s.84 1.927.84 3.38v1.16zm-3.64-4.2c-.373 0-.773.1-1.2.3-.413.2-.94.613-1.58 1.24v5.24c.787.333 1.527.5 2.22.5.893 0 1.533-.273 1.92-.82.387-.56.58-1.313.58-2.26v-1.16c0-1.04-.16-1.807-.48-2.3s-.807-.74-1.46-.74zm13.855 7.98a6.83 6.83 0 0 1-1.8.6c-.6.12-1.153.18-1.66.18-1.427 0-2.493-.407-3.2-1.22-.693-.813-1.04-1.927-1.04-3.34v-1.2c0-1.373.347-2.473 1.04-3.3.707-.827 1.7-1.24 2.98-1.24a4.1 4.1 0 0 1 1.86.42c.573.267 1.027.68 1.36 1.24.347.547.52 1.253.52 2.12 0 .56-.08 1.2-.24 1.92h-5.9v.04c0 1.013.207 1.78.62 2.3.427.52 1.107.78 2.04.78a6.81 6.81 0 0 0 1.4-.16c.52-.107 1.027-.273 1.52-.5l.5 1.36zm-3.68-8.08c-.773 0-1.36.253-1.76.76-.387.493-.6 1.193-.64 2.1h4.48c.04-.24.06-.467.06-.68 0-.747-.213-1.293-.64-1.64-.413-.36-.913-.54-1.5-.54zm14.498 9.9c0 .973-.4 1.753-1.2 2.34-.786.587-1.873.88-3.26.88-.693 0-1.42-.093-2.18-.28-.746-.187-1.453-.487-2.12-.9l.56-1.28c.667.373 1.307.633 1.92.78.627.16 1.234.24 1.82.24.907 0 1.607-.147 2.1-.44s.74-.687.74-1.18c0-.36-.12-.64-.36-.84-.24-.187-.626-.28-1.16-.28h-2.3c-.866 0-1.493-.207-1.88-.62s-.58-.867-.58-1.36a2.33 2.33 0 0 1 .24-1.02c.16-.347.387-.687.68-1.02a3.17 3.17 0 0 1-1.12-1.14c-.28-.493-.42-1.087-.42-1.78 0-.76.16-1.393.48-1.9.334-.507.774-.887 1.32-1.14.547-.267 1.16-.4 1.84-.4h.34a3.91 3.91 0 0 1 1.28.2h3.56v1.46l-2.16-.3c.28.24.507.54.68.9.174.347.26.773.26 1.28 0 .72-.166 1.327-.5 1.82-.32.493-.753.873-1.3 1.14-.546.253-1.153.38-1.82.38h-.34a6.18 6.18 0 0 1-.5-.02l-.48-.08c-.386.427-.58.847-.58 1.26 0 .533.374.8 1.12.8h2.24c.96 0 1.714.213 2.26.64s.82 1.047.82 1.86zm-4.54-5.88c.52 0 .98-.167 1.38-.5s.6-.84.6-1.52c0-.667-.2-1.167-.6-1.5-.4-.347-.86-.52-1.38-.52h-.34a2.07 2.07 0 0 0-1.4.52c-.4.333-.6.833-.6 1.5 0 .68.2 1.187.6 1.52s.867.5 1.4.5h.34zm14.251 4.74c-.614 0-1.107-.14-1.48-.42-.36-.28-.614-.627-.76-1.04-.654.573-1.247.98-1.78 1.22a4.06 4.06 0 0 1-1.6.34c-.867 0-1.507-.28-1.92-.84s-.62-1.247-.62-2.06c0-.547.1-1.033.3-1.46s.54-.76 1.02-1c.48-.253 1.126-.38 1.94-.38.36 0 .753.027 1.18.08l1.3.16v-1.34c0-.747-.167-1.253-.5-1.52-.32-.28-.794-.42-1.42-.42-.854 0-1.807.233-2.86.7l-.52-1.36c.613-.28 1.2-.493 1.76-.64s1.126-.22 1.7-.22c.933 0 1.646.153 2.14.46s.833.713 1.02 1.22.28 1.06.28 1.66v4.28c0 .307.06.567.18.78.12.2.36.3.72.3h.22v1.5h-.3zm-6.54-2.82c0 .453.106.82.32 1.1s.52.42.92.42c.346 0 .746-.1 1.2-.3.453-.213 1.013-.633 1.68-1.26v-1.26c-.907-.147-1.707-.22-2.4-.22-.614 0-1.054.127-1.32.38s-.4.633-.4 1.14zm17.163-1.64c0 1.387-.347 2.493-1.04 3.32s-1.713 1.24-3.06 1.24c-1.333 0-2.653-.353-3.96-1.06V410.2h1.64v6.24c.6-.56 1.147-.953 1.64-1.18.507-.24 1.02-.36 1.54-.36 1.04 0 1.84.4 2.4 1.2s.84 1.927.84 3.38v1.16zm-3.64-4.2c-.373 0-.773.1-1.2.3-.413.2-.94.613-1.58 1.24v5.24c.787.333 1.527.5 2.22.5.893 0 1.533-.273 1.92-.82.387-.56.58-1.313.58-2.26v-1.16c0-1.04-.16-1.807-.48-2.3s-.807-.74-1.46-.74zm12.115 8.2c-.746.373-1.54.56-2.38.56-.72 0-1.286-.147-1.7-.44a2.42 2.42 0 0 1-.86-1.18c-.16-.493-.24-1.04-.24-1.64v-5.4h-1.72v-1.44h1.72v-2.76h1.64v2.76h3.24v1.44h-3.24v5.34c0 .693.114 1.173.34 1.44.24.253.607.38 1.1.38a3.61 3.61 0 0 0 .74-.08 4.57 4.57 0 0 0 .86-.32l.5 1.34zm12.613.36v-1.4c-.693.6-1.313 1.02-1.86 1.26-.546.227-1.093.34-1.64.34-.88 0-1.553-.287-2.02-.86-.466-.587-.7-1.407-.7-2.46v-6.78h1.64v6.54c0 .693.12 1.207.36 1.54.254.32.627.48 1.12.48.374 0 .794-.093 1.26-.28s1.047-.56 1.74-1.12v-7.16h1.64v9.9h-1.54zm9.832-8.56c-.373 0-.813.093-1.32.28-.493.187-1.093.567-1.8 1.14V425h-1.64v-9.9h1.56v1.38c.707-.6 1.347-1.013 1.92-1.24.587-.227 1.147-.34 1.68-.34.92 0 1.62.293 2.1.88.494.573.74 1.393.74 2.46V425h-1.64v-6.52c0-1.36-.533-2.04-1.6-2.04zm12.686 8.56v-1.38c-.613.587-1.173 1-1.68 1.24-.493.227-1.007.34-1.54.34-1.053 0-1.867-.4-2.44-1.2-.56-.8-.84-1.92-.84-3.36v-1.16c0-1.4.347-2.513 1.04-3.34.707-.827 1.727-1.24 3.06-1.24a5.71 5.71 0 0 1 1.16.12c.387.08.773.193 1.16.34v-5.16h1.64V425h-1.56zm-4.8-4.36c0 1.04.16 1.807.48 2.3.333.48.827.72 1.48.72.387 0 .787-.093 1.2-.28.413-.2.933-.607 1.56-1.22v-5.28a4.99 4.99 0 0 0-1.12-.36c-.36-.08-.713-.12-1.06-.12-.907 0-1.56.273-1.96.82-.387.547-.58 1.3-.58 2.26v1.16zm16.669 3.1c1.333 0 2-.453 2-1.36 0-.387-.12-.693-.36-.92s-.68-.42-1.32-.58l-1.1-.28c-.814-.2-1.42-.547-1.82-1.04-.4-.507-.6-1.107-.6-1.8 0-.507.113-.973.34-1.4.226-.44.586-.793 1.08-1.06s1.133-.4 1.92-.4c.506 0 1.02.06 1.54.18a6.7 6.7 0 0 1 1.62.56l-.52 1.38c-.974-.44-1.854-.66-2.64-.66-1.16 0-1.74.433-1.74 1.3 0 .333.106.62.32.86s.613.433 1.2.58l1.1.28c.88.213 1.526.56 1.94 1.04s.62 1.1.62 1.86c0 .547-.12 1.047-.36 1.5-.227.44-.6.787-1.12 1.04-.507.253-1.194.38-2.06.38a8.37 8.37 0 0 1-1.72-.18c-.56-.12-1.14-.313-1.74-.58l.44-1.36c.573.227 1.093.393 1.56.5a6.33 6.33 0 0 0 1.42.16zm14.033-4.3v1.2c0 1.413-.367 2.527-1.1 3.34-.72.813-1.753 1.22-3.1 1.22-1.333 0-2.367-.407-3.1-1.22s-1.1-1.927-1.1-3.34v-1.2c0-1.387.36-2.487 1.08-3.3.733-.827 1.773-1.24 3.12-1.24s2.38.413 3.1 1.24c.733.813 1.1 1.913 1.1 3.3zm-1.7 0c0-.947-.213-1.687-.64-2.22-.427-.547-1.047-.82-1.86-.82-.8 0-1.42.273-1.86.82-.427.533-.64 1.273-.64 2.22v1.2c0 .987.213 1.747.64 2.28.44.533 1.06.8 1.86.8.813 0 1.433-.267 1.86-.8s.64-1.293.64-2.28v-1.2zm4.66 3.16v-12.4h1.64v12.32c0 .36.054.633.16.82.12.173.354.26.7.26h.32v1.5h-.46c-.88 0-1.493-.233-1.84-.7s-.52-1.067-.52-1.8zm5.274 0v-12.4h1.64v12.32c0 .36.053.633.16.82.12.173.353.26.7.26h.32v1.5h-.46c-.88 0-1.494-.233-1.84-.7s-.52-1.067-.52-1.8zm12.473 1.82a6.83 6.83 0 0 1-1.8.6c-.6.12-1.153.18-1.66.18-1.426 0-2.493-.407-3.2-1.22-.693-.813-1.04-1.927-1.04-3.34v-1.2c0-1.373.347-2.473 1.04-3.3.707-.827 1.7-1.24 2.98-1.24a4.1 4.1 0 0 1 1.86.42 3.05 3.05 0 0 1 1.36 1.24c.347.547.52 1.253.52 2.12 0 .56-.08 1.2-.24 1.92h-5.9v.04c0 1.013.207 1.78.62 2.3.427.52 1.107.78 2.04.78.427 0 .894-.053 1.4-.16.52-.107 1.027-.273 1.52-.5l.5 1.36zm-3.68-8.08c-.773 0-1.36.253-1.76.76-.386.493-.6 1.193-.64 2.1h4.48c.04-.24.06-.467.06-.68 0-.747-.213-1.293-.64-1.64-.413-.36-.913-.54-1.5-.54zm11.338.1c-.373 0-.813.093-1.32.28-.493.187-1.093.567-1.8 1.14V425h-1.64v-9.9h1.56v1.38c.707-.6 1.347-1.013 1.92-1.24.587-.227 1.147-.34 1.68-.34.92 0 1.62.293 2.1.88.494.573.74 1.393.74 2.46V425h-1.64v-6.52c0-1.36-.533-2.04-1.6-2.04zm18.202 7.98a6.83 6.83 0 0 1-1.8.6c-.6.12-1.154.18-1.66.18-1.427 0-2.494-.407-3.2-1.22-.694-.813-1.04-1.927-1.04-3.34v-1.2c0-1.373.346-2.473 1.04-3.3.706-.827 1.7-1.24 2.98-1.24a4.1 4.1 0 0 1 1.86.42 3.06 3.06 0 0 1 1.36 1.24c.346.547.52 1.253.52 2.12 0 .56-.08 1.2-.24 1.92h-5.9v.04c0 1.013.206 1.78.62 2.3.426.52 1.106.78 2.04.78.426 0 .893-.053 1.4-.16a7.01 7.01 0 0 0 1.52-.5l.5 1.36zm-3.68-8.08c-.774 0-1.36.253-1.76.76-.387.493-.6 1.193-.64 2.1h4.48c.04-.24.06-.467.06-.68 0-.747-.214-1.293-.64-1.64-.414-.36-.914-.54-1.5-.54zm8.318-3.66h-1.84v-1.84h1.84v1.84zm-.1 12.32h-1.64v-9.9h1.64v9.9zm8.296-8.56c-.374 0-.814.093-1.32.28-.494.187-1.094.567-1.8 1.14V425h-1.64v-9.9h1.56v1.38c.706-.6 1.346-1.013 1.92-1.24.586-.227 1.146-.34 1.68-.34.92 0 1.62.293 2.1.88.493.573.74 1.393.74 2.46V425h-1.64v-6.52c0-1.36-.534-2.04-1.6-2.04zm13.905 8.66c-.613 0-1.106-.14-1.48-.42-.36-.28-.613-.627-.76-1.04-.653.573-1.246.98-1.78 1.22-.533.227-1.066.34-1.6.34-.866 0-1.506-.28-1.92-.84s-.62-1.247-.62-2.06c0-.547.1-1.033.3-1.46s.54-.76 1.02-1c.48-.253 1.127-.38 1.94-.38a9.62 9.62 0 0 1 1.18.08l1.3.16v-1.34c0-.747-.166-1.253-.5-1.52-.32-.28-.793-.42-1.42-.42-.853 0-1.806.233-2.86.7l-.52-1.36c.614-.28 1.2-.493 1.76-.64a6.67 6.67 0 0 1 1.7-.22c.934 0 1.647.153 2.14.46s.834.713 1.02 1.22a4.76 4.76 0 0 1 .28 1.66v4.28c0 .307.06.567.18.78.12.2.36.3.72.3h.22v1.5h-.3zm-6.54-2.82c0 .453.107.82.32 1.1s.52.42.92.42c.347 0 .747-.1 1.2-.3.454-.213 1.014-.633 1.68-1.26v-1.26c-.906-.147-1.706-.22-2.4-.22-.613 0-1.053.127-1.32.38s-.4.633-.4 1.14zm13.924-5.84c-.374 0-.814.093-1.32.28-.494.187-1.094.567-1.8 1.14V425h-1.64v-9.9h1.56v1.38c.706-.6 1.346-1.013 1.92-1.24.586-.227 1.146-.34 1.68-.34.92 0 1.62.293 2.1.88.493.573.74 1.393.74 2.46V425h-1.64v-6.52c0-1.36-.534-2.04-1.6-2.04zm12.685 8.56v-1.38c-.613.587-1.173 1-1.68 1.24a3.64 3.64 0 0 1-1.54.34c-1.053 0-1.866-.4-2.44-1.2-.56-.8-.84-1.92-.84-3.36v-1.16c0-1.4.347-2.513 1.04-3.34.707-.827 1.727-1.24 3.06-1.24.387 0 .774.04 1.16.12s.774.193 1.16.34v-5.16h1.64V425h-1.56zm-4.8-4.36c0 1.04.16 1.807.48 2.3.334.48.827.72 1.48.72.387 0 .787-.093 1.2-.28.414-.2.934-.607 1.56-1.22v-5.28c-.386-.173-.76-.293-1.12-.36-.36-.08-.713-.12-1.06-.12-.906 0-1.56.273-1.96.82-.386.547-.58 1.3-.58 2.26v1.16zm17.074 3.78a6.83 6.83 0 0 1-1.8.6c-.6.12-1.154.18-1.66.18-1.427 0-2.494-.407-3.2-1.22-.694-.813-1.04-1.927-1.04-3.34v-1.2c0-1.373.346-2.473 1.04-3.3.706-.827 1.7-1.24 2.98-1.24a4.1 4.1 0 0 1 1.86.42 3.06 3.06 0 0 1 1.36 1.24c.346.547.52 1.253.52 2.12 0 .56-.08 1.2-.24 1.92h-5.9v.04c0 1.013.206 1.78.62 2.3.426.52 1.106.78 2.04.78.426 0 .893-.053 1.4-.16a7.01 7.01 0 0 0 1.52-.5l.5 1.36zm-3.68-8.08c-.774 0-1.36.253-1.76.76-.387.493-.6 1.193-.64 2.1h4.48c.04-.24.06-.467.06-.68 0-.747-.214-1.293-.64-1.64-.414-.36-.914-.54-1.5-.54zm11.778.2c-.6 0-1.187.107-1.76.32-.56.213-1.16.62-1.8 1.22V425h-1.64v-9.9h1.56v1.6c.68-.667 1.3-1.133 1.86-1.4.573-.267 1.166-.4 1.78-.4v1.64zm8.239-3.86h-1.84v-1.84h1.84v1.84zm-.1 12.32h-1.64v-9.9h1.64v9.9zm8.196-8.56c-.374 0-.794.1-1.26.3-.467.187-1.054.56-1.76 1.12V425h-1.64v-9.9h1.56v1.38c.706-.587 1.333-.993 1.88-1.22.546-.24 1.086-.36 1.62-.36.626 0 1.146.147 1.56.44.413.28.72.687.92 1.22.733-.627 1.386-1.06 1.96-1.3.586-.24 1.16-.36 1.72-.36.88 0 1.553.293 2.02.88.466.573.7 1.393.7 2.46V425h-1.64v-6.52c0-1.36-.494-2.04-1.48-2.04-.374 0-.8.1-1.28.3-.467.187-1.054.56-1.76 1.12.013.053.02.113.02.18v.2V425h-1.64v-6.52c0-1.36-.5-2.04-1.5-2.04zM194.72 456.06c-.387.253-.94.507-1.66.76-.707.253-1.56.38-2.56.38-1.08 0-1.993-.227-2.74-.68-.733-.467-1.293-1.113-1.68-1.94-.373-.84-.56-1.807-.56-2.9v-2.98c0-1.707.427-3.047 1.28-4.02.867-.987 2.12-1.48 3.76-1.48.6 0 1.227.067 1.88.2.667.133 1.327.353 1.98.66l-.56 1.5c-1.2-.493-2.293-.74-3.28-.74-1.093 0-1.913.333-2.46 1-.533.653-.8 1.613-.8 2.88v2.98c0 1.2.273 2.153.82 2.86s1.373 1.06 2.48 1.06c.427 0 .86-.047 1.3-.14.453-.093.853-.22 1.2-.38v-3.66h-2.54v-1.54h4.14v6.18zm10.29.36a6.83 6.83 0 0 1-1.8.6c-.6.12-1.153.18-1.66.18-1.426 0-2.493-.407-3.2-1.22-.693-.813-1.04-1.927-1.04-3.34v-1.2c0-1.373.347-2.473 1.04-3.3.707-.827 1.7-1.24 2.98-1.24a4.1 4.1 0 0 1 1.86.42 3.05 3.05 0 0 1 1.36 1.24c.347.547.52 1.253.52 2.12 0 .56-.08 1.2-.24 1.92h-5.9v.04c0 1.013.207 1.78.62 2.3.427.52 1.107.78 2.04.78.427 0 .894-.053 1.4-.16.52-.107 1.027-.273 1.52-.5l.5 1.36zm-3.68-8.08c-.773 0-1.36.253-1.76.76-.386.493-.6 1.193-.64 2.1h4.48c.04-.24.06-.467.06-.68 0-.747-.213-1.293-.64-1.64-.413-.36-.913-.54-1.5-.54zm8.318-3.66h-1.84v-1.84h1.84v1.84zm-.1 12.32h-1.64v-9.9h1.64v9.9zm5.956-1.26c1.334 0 2-.453 2-1.36 0-.387-.12-.693-.36-.92s-.68-.42-1.32-.58l-1.1-.28c-.813-.2-1.42-.547-1.82-1.04-.4-.507-.6-1.107-.6-1.8 0-.507.114-.973.34-1.4.227-.44.587-.793 1.08-1.06s1.134-.4 1.92-.4a6.83 6.83 0 0 1 1.54.18 6.67 6.67 0 0 1 1.62.56l-.52 1.38c-.973-.44-1.853-.66-2.64-.66-1.16 0-1.74.433-1.74 1.3 0 .333.107.62.32.86s.614.433 1.2.58l1.1.28c.88.213 1.527.56 1.94 1.04s.62 1.1.62 1.86c0 .547-.12 1.047-.36 1.5-.226.44-.6.787-1.12 1.04-.506.253-1.193.38-2.06.38-.573 0-1.146-.06-1.72-.18-.56-.12-1.14-.313-1.74-.58l.44-1.36c.574.227 1.094.393 1.56.5s.94.16 1.42.16zm11.634.9c-.747.373-1.54.56-2.38.56-.72 0-1.287-.147-1.7-.44-.4-.293-.687-.687-.86-1.18-.16-.493-.24-1.04-.24-1.64v-5.4h-1.72v-1.44h1.72v-2.76h1.64v2.76h3.24v1.44h-3.24v5.34c0 .693.113 1.173.34 1.44.24.253.606.38 1.1.38.24 0 .486-.027.74-.08.266-.067.553-.173.86-.32l.5 1.34zm9.337-.22a6.83 6.83 0 0 1-1.8.6c-.6.12-1.153.18-1.66.18-1.427 0-2.493-.407-3.2-1.22-.693-.813-1.04-1.927-1.04-3.34v-1.2c0-1.373.347-2.473 1.04-3.3.707-.827 1.7-1.24 2.98-1.24a4.1 4.1 0 0 1 1.86.42c.573.267 1.027.68 1.36 1.24.347.547.52 1.253.52 2.12 0 .56-.08 1.2-.24 1.92h-5.9v.04c0 1.013.207 1.78.62 2.3.427.52 1.107.78 2.04.78a6.81 6.81 0 0 0 1.4-.16c.52-.107 1.027-.273 1.52-.5l.5 1.36zm-3.68-8.08c-.773 0-1.36.253-1.76.76-.387.493-.6 1.193-.64 2.1h4.48c.04-.24.06-.467.06-.68 0-.747-.213-1.293-.64-1.64-.413-.36-.913-.54-1.5-.54zm16.954 8.66v-1.38c-.614.587-1.174 1-1.68 1.24-.494.227-1.007.34-1.54.34-1.054 0-1.867-.4-2.44-1.2-.56-.8-.84-1.92-.84-3.36v-1.16c0-1.4.346-2.513 1.04-3.34.706-.827 1.726-1.24 3.06-1.24a5.72 5.72 0 0 1 1.16.12 7.62 7.62 0 0 1 1.16.34v-5.16h1.64V457h-1.56zm-4.8-4.36c0 1.04.16 1.807.48 2.3.333.48.826.72 1.48.72.386 0 .786-.093 1.2-.28.413-.2.933-.607 1.56-1.22v-5.28a4.99 4.99 0 0 0-1.12-.36 4.88 4.88 0 0 0-1.06-.12c-.907 0-1.56.273-1.96.82-.387.547-.58 1.3-.58 2.26v1.16zm17.073 3.78a6.83 6.83 0 0 1-1.8.6c-.6.12-1.153.18-1.66.18-1.427 0-2.493-.407-3.2-1.22-.693-.813-1.04-1.927-1.04-3.34v-1.2c0-1.373.347-2.473 1.04-3.3.707-.827 1.7-1.24 2.98-1.24a4.1 4.1 0 0 1 1.86.42c.573.267 1.027.68 1.36 1.24.347.547.52 1.253.52 2.12 0 .56-.08 1.2-.24 1.92h-5.9v.04c0 1.013.207 1.78.62 2.3.427.52 1.107.78 2.04.78a6.81 6.81 0 0 0 1.4-.16c.52-.107 1.027-.273 1.52-.5l.5 1.36zm-3.68-8.08c-.773 0-1.36.253-1.76.76-.387.493-.6 1.193-.64 2.1h4.48c.04-.24.06-.467.06-.68 0-.747-.213-1.293-.64-1.64-.413-.36-.913-.54-1.5-.54zm11.778.2c-.6 0-1.187.107-1.76.32-.56.213-1.16.62-1.8 1.22V457h-1.64v-9.9h1.56v1.6c.68-.667 1.3-1.133 1.86-1.4a4.17 4.17 0 0 1 1.78-.4v1.64zm6.859 8.46v-13.6h4c1.307 0 2.267.32 2.88.96.627.627.94 1.473.94 2.54v.44c0 .587-.133 1.107-.4 1.56s-.653.813-1.16 1.08c.707.227 1.24.6 1.6 1.12.374.507.56 1.12.56 1.84v.44c0 1.093-.32 1.973-.96 2.64-.626.653-1.613.98-2.96.98h-4.5zm4-12h-2.26v4.3h2.26c.667 0 1.167-.167 1.5-.5.347-.347.52-.82.52-1.42v-.48c0-.587-.173-1.047-.52-1.38-.333-.347-.833-.52-1.5-.52zm.5 5.9h-2.76v4.52h2.76c.707 0 1.234-.18 1.58-.54.36-.36.54-.86.54-1.5v-.48c0-.613-.18-1.1-.54-1.46-.346-.36-.873-.54-1.58-.54zm12.04-2.36c-.6 0-1.187.107-1.76.32-.56.213-1.16.62-1.8 1.22V457h-1.64v-9.9h1.56v1.6c.68-.667 1.3-1.133 1.86-1.4.573-.267 1.166-.4 1.78-.4v1.64zm8.243 8.46v-1.4c-.693.6-1.313 1.02-1.86 1.26-.546.227-1.093.34-1.64.34-.88 0-1.553-.287-2.02-.86-.466-.587-.7-1.407-.7-2.46v-6.78h1.64v6.54c0 .693.12 1.207.36 1.54.254.32.627.48 1.12.48.374 0 .794-.093 1.26-.28s1.047-.56 1.74-1.12v-7.16h1.64v9.9h-1.54zm-3.4-12.38h-1.72v-1.72h1.72v1.72zm3.82 0h-1.72v-1.72h1.72v1.72zM312.854 457v-1.38c-.613.587-1.173 1-1.68 1.24a3.64 3.64 0 0 1-1.54.34c-1.053 0-1.866-.4-2.44-1.2-.56-.8-.84-1.92-.84-3.36v-1.16c0-1.4.347-2.513 1.04-3.34.707-.827 1.727-1.24 3.06-1.24.387 0 .774.04 1.16.12s.774.193 1.16.34v-5.16h1.64V457h-1.56zm-4.8-4.36c0 1.04.16 1.807.48 2.3.334.48.827.72 1.48.72.387 0 .787-.093 1.2-.28.414-.2.934-.607 1.56-1.22v-5.28c-.386-.173-.76-.293-1.12-.36-.36-.08-.713-.12-1.06-.12-.906 0-1.56.273-1.96.82-.386.547-.58 1.3-.58 2.26v1.16zm17.074 3.78a6.83 6.83 0 0 1-1.8.6c-.6.12-1.154.18-1.66.18-1.427 0-2.494-.407-3.2-1.22-.694-.813-1.04-1.927-1.04-3.34v-1.2c0-1.373.346-2.473 1.04-3.3.706-.827 1.7-1.24 2.98-1.24a4.1 4.1 0 0 1 1.86.42 3.06 3.06 0 0 1 1.36 1.24c.346.547.52 1.253.52 2.12 0 .56-.08 1.2-.24 1.92h-5.9v.04c0 1.013.206 1.78.62 2.3.426.52 1.106.78 2.04.78.426 0 .893-.053 1.4-.16a7.01 7.01 0 0 0 1.52-.5l.5 1.36zm-3.68-8.08c-.774 0-1.36.253-1.76.76-.387.493-.6 1.193-.64 2.1h4.48c.04-.24.06-.467.06-.68 0-.747-.214-1.293-.64-1.64-.414-.36-.914-.54-1.5-.54zm11.778.2c-.6 0-1.187.107-1.76.32-.56.213-1.16.62-1.8 1.22V457h-1.64v-9.9h1.56v1.6c.68-.667 1.3-1.133 1.86-1.4.573-.267 1.166-.4 1.78-.4v1.64zm2.123 6.06v-12.4h1.64v12.32c0 .36.054.633.16.82.12.173.354.26.7.26h.32v1.5h-.46c-.88 0-1.493-.233-1.84-.7s-.52-1.067-.52-1.8zm7.034-9.92h-1.84v-1.84h1.84v1.84zm-.1 12.32h-1.64v-9.9h1.64v9.9zm4.696-5.54v1.18c0 1.013.186 1.78.56 2.3.373.507.966.76 1.78.76.8 0 1.66-.207 2.58-.62l.5 1.38c-1.094.493-2.154.74-3.18.74-1.28 0-2.254-.407-2.92-1.22s-1-1.927-1-3.34v-1.18c0-1.413.333-2.527 1-3.34s1.64-1.22 2.92-1.22a5.82 5.82 0 0 1 1.48.2c.52.12 1.04.293 1.56.52l-.5 1.4c-.44-.187-.867-.333-1.28-.44-.4-.107-.787-.16-1.16-.16-.814 0-1.407.26-1.78.78-.374.507-.56 1.26-.56 2.26zm12.584-3.02c-.373 0-.813.093-1.32.28-.493.187-1.093.567-1.8 1.14V457h-1.64v-14.8h1.64v6.22c.693-.587 1.32-.987 1.88-1.2s1.107-.32 1.64-.32c.92 0 1.62.293 2.1.88.493.573.74 1.393.74 2.46V457h-1.64v-6.52c0-1.36-.533-2.04-1.6-2.04zm12.766 8.56l-2.78-4.58-.8.78-.88.8v3h-1.64v-14.8h1.64v9.96l2.3-2.46a19.5 19.5 0 0 0 1.86-2.6h1.88l-1.48 2.22c-.494.667-1.054 1.347-1.68 2.04l3.56 5.64h-1.98zm11.002-.58a6.83 6.83 0 0 1-1.8.6c-.6.12-1.154.18-1.66.18-1.427 0-2.494-.407-3.2-1.22-.694-.813-1.04-1.927-1.04-3.34v-1.2c0-1.373.346-2.473 1.04-3.3.706-.827 1.7-1.24 2.98-1.24a4.1 4.1 0 0 1 1.86.42 3.06 3.06 0 0 1 1.36 1.24c.346.547.52 1.253.52 2.12 0 .56-.08 1.2-.24 1.92h-5.9v.04c0 1.013.206 1.78.62 2.3.426.52 1.106.78 2.04.78.426 0 .893-.053 1.4-.16a7.01 7.01 0 0 0 1.52-.5l.5 1.36zm-3.68-8.08c-.774 0-1.36.253-1.76.76-.387.493-.6 1.193-.64 2.1h4.48c.04-.24.06-.467.06-.68 0-.747-.214-1.293-.64-1.64-.414-.36-.914-.54-1.5-.54zm8.318-3.66h-1.84v-1.84h1.84v1.84zm-.1 12.32h-1.64v-9.9h1.64v9.9zm8.976-.36c-.747.373-1.54.56-2.38.56-.72 0-1.287-.147-1.7-.44-.4-.293-.687-.687-.86-1.18-.16-.493-.24-1.04-.24-1.64v-5.4h-1.72v-1.44h1.72v-2.76h1.64v2.76h3.24v1.44h-3.24v5.34c0 .693.113 1.173.34 1.44.24.253.606.38 1.1.38.24 0 .486-.027.74-.08.266-.067.553-.173.86-.32l.5 1.34zm14.513-4c0 1.387-.347 2.493-1.04 3.32s-1.714 1.24-3.06 1.24c-1.334 0-2.654-.353-3.96-1.06V442.2h1.64v6.24c.6-.56 1.146-.953 1.64-1.18.506-.24 1.02-.36 1.54-.36 1.04 0 1.84.4 2.4 1.2s.84 1.927.84 3.38v1.16zm-3.64-4.2c-.374 0-.774.1-1.2.3-.414.2-.94.613-1.58 1.24v5.24c.786.333 1.526.5 2.22.5.893 0 1.533-.273 1.92-.82.386-.56.58-1.313.58-2.26v-1.16c0-1.04-.16-1.807-.48-2.3s-.807-.74-1.46-.74zm13.855 7.98a6.83 6.83 0 0 1-1.8.6c-.6.12-1.154.18-1.66.18-1.427 0-2.494-.407-3.2-1.22-.694-.813-1.04-1.927-1.04-3.34v-1.2c0-1.373.346-2.473 1.04-3.3.706-.827 1.7-1.24 2.98-1.24a4.1 4.1 0 0 1 1.86.42 3.06 3.06 0 0 1 1.36 1.24c.346.547.52 1.253.52 2.12 0 .56-.08 1.2-.24 1.92h-5.9v.04c0 1.013.206 1.78.62 2.3.426.52 1.106.78 2.04.78.426 0 .893-.053 1.4-.16a7.01 7.01 0 0 0 1.52-.5l.5 1.36zm-3.68-8.08c-.774 0-1.36.253-1.76.76-.387.493-.6 1.193-.64 2.1h4.48c.04-.24.06-.467.06-.68 0-.747-.214-1.293-.64-1.64-.414-.36-.914-.54-1.5-.54zm14.498 9.9c0 .973-.4 1.753-1.2 2.34-.787.587-1.873.88-3.26.88-.693 0-1.42-.093-2.18-.28-.747-.187-1.453-.487-2.12-.9l.56-1.28c.667.373 1.307.633 1.92.78.627.16 1.233.24 1.82.24.907 0 1.607-.147 2.1-.44s.74-.687.74-1.18c0-.36-.12-.64-.36-.84-.24-.187-.627-.28-1.16-.28h-2.3c-.867 0-1.493-.207-1.88-.62s-.58-.867-.58-1.36a2.33 2.33 0 0 1 .24-1.02c.16-.347.387-.687.68-1.02-.467-.28-.84-.66-1.12-1.14-.28-.493-.42-1.087-.42-1.78 0-.76.16-1.393.48-1.9.333-.507.773-.887 1.32-1.14.547-.267 1.16-.4 1.84-.4h.34c.467 0 .893.067 1.28.2h3.56v1.46l-2.16-.3c.28.24.507.54.68.9.173.347.26.773.26 1.28 0 .72-.167 1.327-.5 1.82-.32.493-.753.873-1.3 1.14-.547.253-1.153.38-1.82.38h-.34a6.18 6.18 0 0 1-.5-.02l-.48-.08c-.387.427-.58.847-.58 1.26 0 .533.373.8 1.12.8h2.24c.96 0 1.713.213 2.26.64s.82 1.047.82 1.86zm-4.54-5.88c.52 0 .98-.167 1.38-.5s.6-.84.6-1.52c0-.667-.2-1.167-.6-1.5-.4-.347-.86-.52-1.38-.52h-.34a2.07 2.07 0 0 0-1.4.52c-.4.333-.6.833-.6 1.5 0 .68.2 1.187.6 1.52s.867.5 1.4.5h.34zm14.191 4.06a6.83 6.83 0 0 1-1.8.6c-.6.12-1.154.18-1.66.18-1.427 0-2.494-.407-3.2-1.22-.694-.813-1.04-1.927-1.04-3.34v-1.2c0-1.373.346-2.473 1.04-3.3.706-.827 1.7-1.24 2.98-1.24a4.1 4.1 0 0 1 1.86.42 3.06 3.06 0 0 1 1.36 1.24c.346.547.52 1.253.52 2.12 0 .56-.08 1.2-.24 1.92h-5.9v.04c0 1.013.206 1.78.62 2.3.426.52 1.106.78 2.04.78.426 0 .893-.053 1.4-.16a7.01 7.01 0 0 0 1.52-.5l.5 1.36zm-3.68-8.08c-.774 0-1.36.253-1.76.76-.387.493-.6 1.193-.64 2.1h4.48c.04-.24.06-.467.06-.68 0-.747-.214-1.293-.64-1.64-.414-.36-.914-.54-1.5-.54zm14.498 9.9c0 .973-.4 1.753-1.2 2.34-.787.587-1.874.88-3.26.88-.694 0-1.42-.093-2.18-.28a7.42 7.42 0 0 1-2.12-.9l.56-1.28c.666.373 1.306.633 1.92.78a7.34 7.34 0 0 0 1.82.24c.906 0 1.606-.147 2.1-.44s.74-.687.74-1.18c0-.36-.12-.64-.36-.84-.24-.187-.627-.28-1.16-.28h-2.3c-.867 0-1.494-.207-1.88-.62s-.58-.867-.58-1.36a2.33 2.33 0 0 1 .24-1.02c.16-.347.386-.687.68-1.02-.467-.28-.84-.66-1.12-1.14-.28-.493-.42-1.087-.42-1.78 0-.76.16-1.393.48-1.9.333-.507.773-.887 1.32-1.14.546-.267 1.16-.4 1.84-.4h.34c.466 0 .893.067 1.28.2h3.56v1.46l-2.16-.3a2.73 2.73 0 0 1 .68.9c.173.347.26.773.26 1.28 0 .72-.167 1.327-.5 1.82-.32.493-.754.873-1.3 1.14-.547.253-1.154.38-1.82.38h-.34a6.16 6.16 0 0 1-.5-.02l-.48-.08c-.387.427-.58.847-.58 1.26 0 .533.373.8 1.12.8h2.24c.96 0 1.713.213 2.26.64s.82 1.047.82 1.86zm-4.54-5.88c.52 0 .98-.167 1.38-.5s.6-.84.6-1.52c0-.667-.2-1.167-.6-1.5-.4-.347-.86-.52-1.38-.52h-.34c-.534 0-1 .173-1.4.52-.4.333-.6.833-.6 1.5 0 .68.2 1.187.6 1.52a2.12 2.12 0 0 0 1.4.5h.34zm11.77-3.92c-.373 0-.813.093-1.32.28-.493.187-1.093.567-1.8 1.14V457h-1.64v-9.9h1.56v1.38c.707-.6 1.347-1.013 1.92-1.24.587-.227 1.147-.34 1.68-.34.92 0 1.62.293 2.1.88.494.573.74 1.393.74 2.46V457h-1.64v-6.52c0-1.36-.533-2.04-1.6-2.04zm13.846 7.98a6.83 6.83 0 0 1-1.8.6c-.6.12-1.153.18-1.66.18-1.427 0-2.493-.407-3.2-1.22-.693-.813-1.04-1.927-1.04-3.34v-1.2c0-1.373.347-2.473 1.04-3.3.707-.827 1.7-1.24 2.98-1.24a4.1 4.1 0 0 1 1.86.42c.573.267 1.027.68 1.36 1.24.347.547.52 1.253.52 2.12 0 .56-.08 1.2-.24 1.92h-5.9v.04c0 1.013.207 1.78.62 2.3.427.52 1.107.78 2.04.78a6.81 6.81 0 0 0 1.4-.16c.52-.107 1.027-.273 1.52-.5l.5 1.36zm-3.68-8.08c-.773 0-1.36.253-1.76.76-.387.493-.6 1.193-.64 2.1h4.48c.04-.24.06-.467.06-.68 0-.747-.213-1.293-.64-1.64-.413-.36-.913-.54-1.5-.54zm11.338.1c-.373 0-.813.093-1.32.28-.493.187-1.093.567-1.8 1.14V457h-1.64v-9.9h1.56v1.38c.707-.6 1.347-1.013 1.92-1.24.587-.227 1.147-.34 1.68-.34.92 0 1.62.293 2.1.88.494.573.74 1.393.74 2.46V457h-1.64v-6.52c0-1.36-.533-2.04-1.6-2.04zm7.707 8.56h-1.84v-1.82h1.84V457z"/><path d="M187.75 179.6l5.7 13.95 5.67-13.95h3.93V200h-3.45v-7.8l.45-7.14-5.07 12.54h-3.21l-4.95-12.57.45 7.17v7.8h-3.45v-20.4h3.93zm32.043 19.53c-1.04.42-2.02.72-2.94.9s-1.79.27-2.61.27c-2.26 0-3.97-.64-5.13-1.92s-1.74-2.98-1.74-5.1v-1.8c0-1.42.26-2.65.78-3.69s1.26-1.85 2.22-2.43 2.09-.87 3.39-.87c1.06 0 2.05.22 2.97.66.94.42 1.7 1.09 2.28 2.01.6.9.9 2.06.9 3.48 0 .42-.03.87-.09 1.35a11.3 11.3 0 0 1-.3 1.47h-8.82c.04 1.24.35 2.17.93 2.79s1.51.93 2.79.93a9.67 9.67 0 0 0 2.1-.24c.74-.16 1.5-.4 2.28-.72l.99 2.91zm-6.03-11.73c-.92 0-1.64.3-2.16.9-.5.58-.79 1.42-.87 2.52h5.76a1.39 1.39 0 0 0 .03-.27v-.27c0-.96-.27-1.68-.81-2.16s-1.19-.72-1.95-.72zm17.565.3c-.5 0-1.07.12-1.71.36s-1.4.71-2.28 1.41V200h-3.45v-15.21h3.27v2.04c.94-.82 1.83-1.41 2.67-1.77.84-.38 1.69-.57 2.55-.57 1.46 0 2.57.47 3.33 1.41.76.92 1.14 2.22 1.14 3.9V200h-3.45v-9.78c0-1.68-.69-2.52-2.07-2.52zm14.339 9.6c.74 0 1.35-.12 1.83-.36.48-.26.72-.64.72-1.14 0-.44-.16-.78-.48-1.02-.3-.26-.85-.49-1.65-.69l-1.71-.45c-1.32-.34-2.3-.91-2.94-1.71-.62-.8-.93-1.75-.93-2.85 0-1.3.45-2.39 1.35-3.27s2.29-1.32 4.17-1.32c.76 0 1.56.09 2.4.27s1.72.47 2.64.87l-.99 2.94c-.84-.4-1.6-.68-2.28-.84s-1.28-.24-1.8-.24c-1.42 0-2.13.48-2.13 1.44 0 .38.12.68.36.9.26.22.73.42 1.41.6l1.71.45c1.46.38 2.52.96 3.18 1.74.68.78 1.02 1.76 1.02 2.94 0 1.4-.48 2.54-1.44 3.42-.94.88-2.43 1.32-4.47 1.32-1.74 0-3.57-.4-5.49-1.2l.93-2.85c.94.38 1.79.65 2.55.81s1.44.24 2.04.24zm12.062-5.79v1.77c0 1.28.23 2.24.69 2.88s1.2.96 2.22.96c.5 0 1.06-.06 1.68-.18.64-.14 1.33-.35 2.07-.63l.99 2.91c-.9.36-1.75.63-2.55.81s-1.59.27-2.37.27c-2 0-3.53-.64-4.59-1.92s-1.59-2.98-1.59-5.1v-1.77c0-2.14.53-3.84 1.59-5.1 1.06-1.28 2.59-1.92 4.59-1.92a10.25 10.25 0 0 1 2.31.27 17.3 17.3 0 0 1 2.46.78l-.99 2.97c-1.44-.56-2.64-.84-3.6-.84-1.02 0-1.76.32-2.22.96-.46.62-.69 1.58-.69 2.88zm18.247-3.81c-.5 0-1.07.12-1.71.36s-1.4.71-2.28 1.41V200h-3.45v-22.2h3.45v8.88c.92-.78 1.78-1.34 2.58-1.68s1.62-.51 2.46-.51c1.46 0 2.57.47 3.33 1.41.76.92 1.14 2.22 1.14 3.9V200h-3.45v-9.78c0-1.68-.69-2.52-2.07-2.52zm21.63 11.43c-1.04.42-2.02.72-2.94.9s-1.79.27-2.61.27c-2.26 0-3.97-.64-5.13-1.92s-1.74-2.98-1.74-5.1v-1.8c0-1.42.26-2.65.78-3.69s1.26-1.85 2.22-2.43 2.09-.87 3.39-.87c1.06 0 2.05.22 2.97.66.94.42 1.7 1.09 2.28 2.01.6.9.9 2.06.9 3.48 0 .42-.03.87-.09 1.35a11.3 11.3 0 0 1-.3 1.47h-8.82c.04 1.24.35 2.17.93 2.79s1.51.93 2.79.93a9.67 9.67 0 0 0 2.1-.24c.74-.16 1.5-.4 2.28-.72l.99 2.91zm-6.03-11.73c-.92 0-1.64.3-2.16.9-.5.58-.79 1.42-.87 2.52h5.76a1.39 1.39 0 0 0 .03-.27v-.27c0-.96-.27-1.68-.81-2.16s-1.19-.72-1.95-.72zm17.564.3c-.5 0-1.07.12-1.71.36s-1.4.71-2.28 1.41V200h-3.45v-15.21h3.27v2.04c.94-.82 1.83-1.41 2.67-1.77.84-.38 1.69-.57 2.55-.57 1.46 0 2.57.47 3.33 1.41.76.92 1.14 2.22 1.14 3.9V200h-3.45v-9.78c0-1.68-.69-2.52-2.07-2.52zm18.66.24c-.94 0-1.84.15-2.7.45-.84.28-1.65.74-2.43 1.38V200h-3.45v-15.21h3.27v2.34c1.02-.96 1.93-1.64 2.73-2.04a5.69 5.69 0 0 1 2.58-.6v3.45zm14.571 11.19c-1.04.42-2.02.72-2.94.9s-1.79.27-2.61.27c-2.26 0-3.97-.64-5.13-1.92s-1.74-2.98-1.74-5.1v-1.8c0-1.42.26-2.65.78-3.69s1.26-1.85 2.22-2.43 2.09-.87 3.39-.87c1.06 0 2.05.22 2.97.66.94.42 1.7 1.09 2.28 2.01.6.9.9 2.06.9 3.48 0 .42-.03.87-.09 1.35a11.3 11.3 0 0 1-.3 1.47h-8.82c.04 1.24.35 2.17.93 2.79s1.51.93 2.79.93a9.67 9.67 0 0 0 2.1-.24c.74-.16 1.5-.4 2.28-.72l.99 2.91zm-6.03-11.73c-.92 0-1.64.3-2.16.9-.5.58-.79 1.42-.87 2.52h5.76a1.39 1.39 0 0 0 .03-.27v-.27c0-.96-.27-1.68-.81-2.16s-1.19-.72-1.95-.72zm12.765 4.11v1.77c0 1.28.23 2.24.69 2.88s1.2.96 2.22.96c.5 0 1.06-.06 1.68-.18.64-.14 1.33-.35 2.07-.63l.99 2.91c-.9.36-1.75.63-2.55.81s-1.59.27-2.37.27c-2 0-3.53-.64-4.59-1.92s-1.59-2.98-1.59-5.1v-1.77c0-2.14.53-3.84 1.59-5.1 1.06-1.28 2.59-1.92 4.59-1.92a10.25 10.25 0 0 1 2.31.27 17.3 17.3 0 0 1 2.46.78l-.99 2.97c-1.44-.56-2.64-.84-3.6-.84-1.02 0-1.76.32-2.22.96-.46.62-.69 1.58-.69 2.88zm18.247-3.81c-.5 0-1.07.12-1.71.36s-1.4.71-2.28 1.41V200h-3.45v-22.2h3.45v8.88c.92-.78 1.78-1.34 2.58-1.68s1.62-.51 2.46-.51c1.46 0 2.57.47 3.33 1.41.76.92 1.14 2.22 1.14 3.9V200h-3.45v-9.78c0-1.68-.69-2.52-2.07-2.52zm19.23 11.79a8.28 8.28 0 0 1-1.8.57 9.01 9.01 0 0 1-2.07.24c-1.16 0-2.09-.24-2.79-.72s-1.21-1.15-1.53-2.01c-.3-.86-.45-1.84-.45-2.94v-6.84h-2.46v-3h2.46v-3.96h3.45v3.96h4.74v3h-4.74v6.84c0 .92.17 1.56.51 1.92.36.34.87.51 1.53.51.32 0 .66-.03 1.02-.09.38-.08.8-.21 1.26-.39l.87 2.91zm7.033-2.19c.74 0 1.35-.12 1.83-.36.48-.26.72-.64.72-1.14 0-.44-.16-.78-.48-1.02-.3-.26-.85-.49-1.65-.69l-1.71-.45c-1.32-.34-2.3-.91-2.94-1.71-.62-.8-.93-1.75-.93-2.85 0-1.3.45-2.39 1.35-3.27s2.29-1.32 4.17-1.32c.76 0 1.56.09 2.4.27s1.72.47 2.64.87l-.99 2.94c-.84-.4-1.6-.68-2.28-.84s-1.28-.24-1.8-.24c-1.42 0-2.13.48-2.13 1.44 0 .38.12.68.36.9.26.22.73.42 1.41.6l1.71.45c1.46.38 2.52.96 3.18 1.74.68.78 1.02 1.76 1.02 2.94 0 1.4-.48 2.54-1.44 3.42-.94.88-2.43 1.32-4.47 1.32-1.74 0-3.57-.4-5.49-1.2l.93-2.85c.94.38 1.79.65 2.55.81s1.44.24 2.04.24zm20.972 1.83c-1.04.42-2.02.72-2.94.9s-1.79.27-2.61.27c-2.26 0-3.97-.64-5.13-1.92s-1.74-2.98-1.74-5.1v-1.8c0-1.42.26-2.65.78-3.69s1.26-1.85 2.22-2.43 2.09-.87 3.39-.87c1.06 0 2.05.22 2.97.66.94.42 1.7 1.09 2.28 2.01.6.9.9 2.06.9 3.48 0 .42-.03.87-.09 1.35a11.3 11.3 0 0 1-.3 1.47h-8.82c.04 1.24.35 2.17.93 2.79s1.51.93 2.79.93a9.67 9.67 0 0 0 2.1-.24c.74-.16 1.5-.4 2.28-.72l.99 2.91zm-6.03-11.73c-.92 0-1.64.3-2.16.9-.5.58-.79 1.42-.87 2.52h5.76a1.39 1.39 0 0 0 .03-.27v-.27c0-.96-.27-1.68-.81-2.16s-1.19-.72-1.95-.72zm18.705.54c-.94 0-1.84.15-2.7.45-.84.28-1.65.74-2.43 1.38V200h-3.45v-15.21h3.27v2.34c1.02-.96 1.93-1.64 2.73-2.04a5.69 5.69 0 0 1 2.58-.6v3.45zM439.374 200l-3.75-6.33-1.89 1.8V200h-3.45v-22.2h3.45v13.86c1.14-1.16 2.12-2.27 2.94-3.33.84-1.08 1.61-2.26 2.31-3.54h3.96c-.66 1.2-1.38 2.34-2.16 3.42l-2.58 3.27 5.34 8.52h-4.17zm6.787-4.29V177.8h3.45v17.91c0 .3.07.59.21.87.16.26.46.39.9.39h.48v3.18h-.84c-1.14 0-2.01-.22-2.61-.66s-1.02-1-1.26-1.68a6.78 6.78 0 0 1-.33-2.1zm19.901 4.44c-1.02 0-1.84-.21-2.46-.63-.6-.42-1.04-.94-1.32-1.56-.86.8-1.69 1.39-2.49 1.77s-1.66.57-2.58.57c-1.34 0-2.33-.43-2.97-1.29-.62-.86-.93-1.95-.93-3.27 0-.88.16-1.65.48-2.31.34-.68.89-1.21 1.65-1.59s1.8-.57 3.12-.57a11.46 11.46 0 0 1 1.62.12l1.68.24v-1.77c0-.84-.23-1.41-.69-1.71-.46-.32-1.08-.48-1.86-.48-.6 0-1.26.08-1.98.24a14.37 14.37 0 0 0-2.28.75l-.99-2.94c2.02-.82 3.85-1.23 5.49-1.23 1.48 0 2.62.25 3.42.75.82.5 1.39 1.16 1.71 1.98s.48 1.7.48 2.64v5.85a1.73 1.73 0 0 0 .24.87c.18.26.52.39 1.02.39h.33v3.18h-.69zm-9.42-4.47c0 .54.12.97.36 1.29.24.3.59.45 1.05.45s.98-.12 1.56-.36 1.33-.8 2.25-1.68v-1.29c-1.04-.18-2.06-.27-3.06-.27-.78 0-1.34.16-1.68.48-.32.32-.48.78-.48 1.38zm1.53-13.95h-3.27v-3.21h3.27v3.21zm5.82 0h-3.27v-3.21h3.27v3.21zm14.335 6.21c-.94 0-1.84.15-2.7.45-.84.28-1.65.74-2.43 1.38V200h-3.45v-15.21h3.27v2.34c1.02-.96 1.93-1.64 2.73-2.04a5.69 5.69 0 0 1 2.58-.6v3.45zM490.409 200v-2.01c-.92.8-1.78 1.39-2.58 1.77a5.87 5.87 0 0 1-2.43.54c-1.36 0-2.41-.46-3.15-1.38-.74-.94-1.11-2.25-1.11-3.93v-10.2h3.45v9.78c0 1.68.62 2.52 1.86 2.52.5 0 1.04-.12 1.62-.36.6-.24 1.32-.7 2.16-1.38v-10.56h3.45V200h-3.27zm15.46-12.3c-.5 0-1.07.12-1.71.36s-1.4.71-2.28 1.41V200h-3.45v-15.21h3.27v2.04c.94-.82 1.83-1.41 2.67-1.77.84-.38 1.69-.57 2.55-.57 1.46 0 2.57.47 3.33 1.41.76.92 1.14 2.22 1.14 3.9V200h-3.45v-9.78c0-1.68-.69-2.52-2.07-2.52zm22.709 13.83c0 1.62-.64 2.88-1.92 3.78-1.26.92-3.02 1.38-5.28 1.38-1.06 0-2.18-.12-3.36-.36s-2.27-.64-3.27-1.2l.99-2.73c.96.48 1.91.82 2.85 1.02.94.22 1.86.33 2.76.33 1.26 0 2.22-.17 2.88-.51s.99-.79.99-1.35c0-.86-.51-1.29-1.53-1.29h-3.6c-.98 0-1.77-.16-2.37-.48s-1.04-.73-1.32-1.23c-.28-.52-.42-1.06-.42-1.62 0-.58.12-1.12.36-1.62.26-.52.61-1 1.05-1.44-.72-.44-1.3-1.03-1.74-1.77-.42-.74-.63-1.63-.63-2.67 0-1.18.25-2.16.75-2.94s1.18-1.36 2.04-1.74c.88-.4 1.85-.6 2.91-.6h.51a7.49 7.49 0 0 1 1.17.09c.38.04.74.11 1.08.21h5.43v2.94l-3-.48c.3.32.53.72.69 1.2.18.46.27 1.03.27 1.71 0 1.02-.26 1.9-.78 2.64-.5.72-1.18 1.28-2.04 1.68-.84.38-1.78.57-2.82.57h-.51a6.93 6.93 0 0 1-1.14-.09 2.38 2.38 0 0 0-.48.75c-.1.24-.15.47-.15.69 0 .7.45 1.05 1.35 1.05h3.66c1.38 0 2.49.36 3.33 1.08.86.7 1.29 1.7 1.29 3zm-7.35-9.3c.62 0 1.16-.21 1.62-.63.48-.42.72-1.03.72-1.83s-.24-1.41-.72-1.83c-.46-.42-1-.63-1.62-.63h-.51a2.47 2.47 0 0 0-1.68.63c-.46.42-.69 1.03-.69 1.83s.23 1.41.69 1.83a2.47 2.47 0 0 0 1.68.63h.51zm14.593-9.72l5.19-2.91h3V200h-3.54v-16.44l-3.06 1.68-1.59-2.73zm26.129 9.45c0 2.8-.66 4.89-1.98 6.27s-3.18 2.07-5.58 2.07c-.84 0-1.71-.1-2.61-.3s-1.91-.56-3.03-1.08l1.29-3.09c.9.42 1.69.72 2.37.9.7.16 1.33.24 1.89.24 1.26 0 2.27-.38 3.03-1.14.78-.76 1.17-2.05 1.17-3.87v-1.08c-.68.62-1.4 1.08-2.16 1.38-.74.3-1.49.45-2.25.45-1.18 0-2.22-.27-3.12-.81-.88-.54-1.56-1.29-2.04-2.25s-.72-2.07-.72-3.33v-.6c0-1.12.27-2.17.81-3.15a6.25 6.25 0 0 1 2.31-2.37c1-.6 2.19-.9 3.57-.9 2.22 0 3.95.75 5.19 2.25s1.86 3.56 1.86 6.18v4.23zm-10.23-5.64c0 .92.25 1.68.75 2.28.52.58 1.24.87 2.16.87 1.42 0 2.71-.54 3.87-1.62v-.12c0-1.72-.32-3-.96-3.84-.62-.84-1.52-1.26-2.7-1.26-.98 0-1.75.32-2.31.96-.54.64-.81 1.35-.81 2.13v.6zm27.34 9.06h-2.13V200h-3.48v-4.62h-8.76v-2.91l2.67-4.26 2.52-4.35c.78-1.46 1.42-2.88 1.92-4.26h3.93c-.74 2.04-1.74 4.14-3 6.3l-3.9 6.27h4.62v-3.09h3.48v3.09h2.13v3.21zm15.94-.93c0 1.1-.26 2.09-.78 2.97-.5.88-1.27 1.58-2.31 2.1s-2.36.78-3.96.78c-1.58 0-2.86-.24-3.84-.72-.98-.5-1.7-1.15-2.16-1.95s-.69-1.69-.69-2.67.23-1.88.69-2.7c.46-.84 1.22-1.61 2.28-2.31-.84-.56-1.49-1.25-1.95-2.07-.44-.82-.66-1.78-.66-2.88 0-1.06.25-2.02.75-2.88s1.23-1.54 2.19-2.04c.96-.52 2.11-.78 3.45-.78 1.44 0 2.65.24 3.63.72s1.71 1.13 2.19 1.95c.5.8.75 1.7.75 2.7 0 .88-.21 1.71-.63 2.49-.4.76-1.08 1.47-2.04 2.13 2.06 1.16 3.09 2.88 3.09 5.16zm-7.26-6.69l1.47.45c.68-.58 1.15-1.11 1.41-1.59.28-.5.42-1.01.42-1.53 0-.8-.26-1.43-.78-1.89-.5-.48-1.22-.72-2.16-.72s-1.67.23-2.19.69c-.5.46-.75 1.09-.75 1.89 0 1.26.86 2.16 2.58 2.7zm-2.94 6.69c0 .8.29 1.45.87 1.95.58.48 1.4.72 2.46.72 1.04 0 1.85-.24 2.43-.72.6-.48.9-1.12.9-1.92 0-.6-.22-1.14-.66-1.62-.42-.5-1.15-.91-2.19-1.23l-1.62-.51c-.74.6-1.29 1.16-1.65 1.68a2.85 2.85 0 0 0-.54 1.65z"/></g><path d="M0 10C0 4.477 4.477 0 10 0h1110c5.52 0 10 4.477 10 10v65H0V10z" fill="#fff"/><rect x="18" y="17" width="627" height="38" rx="10" fill="#f4f4f4"/><path d="M45.205 43l-2.659-8.727h1.409l1.886 6.682h.091l1.864-6.682h1.432l1.841 6.659h.091l1.886-6.659h1.409L51.796 43h-1.318l-1.909-6.705h-.136L46.523 43h-1.318zm13 0l-2.659-8.727h1.409l1.886 6.682h.091l1.864-6.682h1.432l1.841 6.659h.091l1.886-6.659h1.409L64.796 43h-1.318l-1.909-6.705h-.136L59.523 43h-1.318zm13 0l-2.659-8.727h1.409l1.886 6.682h.091l1.864-6.682h1.432l1.841 6.659h.091l1.886-6.659h1.409L77.796 43h-1.318l-1.909-6.705h-.136L72.523 43h-1.318zm10.813.091c-.28 0-.521-.1-.721-.301s-.301-.441-.301-.722.1-.521.301-.722.441-.301.721-.301.521.1.722.301.301.441.301.722c0 .186-.047.356-.142.511a1.06 1.06 0 0 1-.369.375c-.151.091-.322.136-.511.136zM85.446 43v-8.727h1.296v1.364h.114c.182-.466.475-.828.881-1.085s.892-.392 1.46-.392c.576 0 1.055.131 1.438.392s.688.619.903 1.085h.091c.224-.451.559-.809 1.006-1.074s.983-.403 1.608-.403c.78 0 1.418.244 1.915.733s.744 1.241.744 2.267V43H95.56v-5.841c0-.644-.176-1.104-.529-1.381s-.767-.415-1.244-.415c-.614 0-1.089.186-1.426.557s-.506.833-.506 1.398V43h-1.364v-5.977c0-.496-.161-.896-.483-1.199s-.737-.46-1.244-.46a1.84 1.84 0 0 0-.977.278c-.299.186-.542.443-.727.773a2.28 2.28 0 0 0-.273 1.131V43h-1.341zm17.452.182c-.788 0-1.479-.187-2.074-.562s-1.053-.9-1.386-1.574-.494-1.462-.494-2.364c0-.909.165-1.703.494-2.381s.796-1.204 1.386-1.579 1.286-.562 2.074-.562 1.477.188 2.068.563 1.057.901 1.386 1.579.5 1.472.5 2.381c0 .901-.166 1.689-.5 2.364s-.791 1.199-1.386 1.574-1.28.563-2.068.563zm0-1.205c.598 0 1.091-.153 1.477-.46s.672-.71.858-1.21.278-1.042.278-1.625-.092-1.127-.278-1.631-.472-.911-.858-1.222-.879-.466-1.477-.466-1.091.155-1.478.466-.672.718-.858 1.222-.278 1.047-.278 1.631.093 1.125.278 1.625.472.903.858 1.21.879.46 1.478.46zm9.547 1.205c-.788 0-1.48-.187-2.074-.562s-1.053-.9-1.387-1.574c-.329-.674-.494-1.462-.494-2.364 0-.909.165-1.703.494-2.381.334-.678.796-1.204 1.387-1.579s1.286-.562 2.074-.562 1.477.188 2.068.563 1.057.901 1.386 1.579.5 1.472.5 2.381c0 .901-.167 1.689-.5 2.364s-.792 1.199-1.386 1.574-1.281.563-2.068.563zm0-1.205c.598 0 1.091-.153 1.477-.46s.672-.71.858-1.21.278-1.042.278-1.625-.093-1.127-.278-1.631-.472-.911-.858-1.222-.879-.466-1.477-.466-1.091.155-1.478.466-.672.718-.858 1.222-.278 1.047-.278 1.631.093 1.125.278 1.625.472.903.858 1.21.879.46 1.478.46zm9.296 1.205c-.727 0-1.369-.184-1.926-.551s-.992-.894-1.306-1.568-.472-1.479-.472-2.403c0-.917.157-1.712.472-2.386s.751-1.195 1.312-1.562 1.208-.551 1.943-.551c.568 0 1.017.095 1.347.284s.587.398.761.636l.415.58h.114v-4.296h1.34V43h-1.295v-1.341h-.159a8.77 8.77 0 0 1-.421.602c-.181.239-.441.453-.778.642s-.786.278-1.347.278zm.182-1.205c.538 0 .993-.14 1.364-.42s.653-.676.847-1.176.289-1.085.289-1.744c0-.652-.094-1.222-.284-1.71s-.469-.875-.841-1.148-.829-.415-1.375-.415c-.568 0-1.041.146-1.42.438s-.657.68-.847 1.176-.278 1.045-.278 1.659a4.82 4.82 0 0 0 .284 1.693c.193.504.477.905.852 1.205s.849.443 1.409.443zm7.801-10.614V43h-1.34V31.364h1.34zm6.115 11.818c-.84 0-1.566-.186-2.176-.557s-1.074-.898-1.403-1.568-.489-1.458-.489-2.352.163-1.682.489-2.364.788-1.22 1.375-1.602 1.28-.579 2.068-.579c.455 0 .904.076 1.347.227a3.34 3.34 0 0 1 1.21.739c.364.337.653.784.869 1.341s.324 1.242.324 2.057v.568h-6.727v-1.159h5.363c0-.492-.098-.932-.295-1.318s-.47-.691-.83-.915-.776-.335-1.261-.335c-.534 0-.996.133-1.386.398s-.684.602-.892 1.023-.313.871-.313 1.352v.773c0 .659.114 1.218.341 1.676s.551.801.96 1.04.885.352 1.426.352a2.9 2.9 0 0 0 .955-.148c.288-.102.536-.254.744-.455s.37-.458.483-.761l1.296.364a2.88 2.88 0 0 1-.688 1.159c-.322.329-.719.587-1.193.773s-1.006.273-1.597.273zm6.631-.091a.98.98 0 0 1-.721-.301c-.201-.201-.302-.441-.302-.722s.101-.521.302-.722a.98.98 0 0 1 .721-.301c.28 0 .521.1.722.301s.301.441.301.722a.96.96 0 0 1-.142.511c-.091.155-.214.28-.369.375s-.322.136-.512.136zm8.929-3.659v-5.159h1.341V43h-1.341v-1.477h-.091c-.204.443-.522.82-.954 1.131s-.978.46-1.637.46c-.545 0-1.03-.119-1.454-.358s-.758-.606-1-1.091-.364-1.104-.364-1.847v-5.545h1.341v5.455c0 .636.178 1.144.534 1.523s.818.568 1.375.568c.333 0 .672-.085 1.017-.256s.64-.432.875-.784.358-.801.358-1.347zm5.138-1.682V43h-1.341v-8.727h1.295v1.364h.114c.205-.443.515-.799.932-1.068s.954-.409 1.614-.409c.59 0 1.108.121 1.551.364s.788.602 1.034 1.091.369 1.099.369 1.841V43h-1.341v-5.455c0-.686-.178-1.22-.534-1.602s-.845-.58-1.466-.58c-.428 0-.81.093-1.148.278s-.596.456-.789.813-.29.788-.29 1.295zm8.018 5.25v-8.727h1.341V43h-1.341zm.682-10.182a.95.95 0 0 1-.676-.267c-.186-.178-.278-.392-.278-.642s.092-.464.278-.642.415-.267.676-.267.485.089.671.267a.85.85 0 0 1 .284.642.85.85 0 0 1-.284.642c-.186.178-.409.267-.671.267zm8.115 4.568v1.25h-5.091v-1.25h5.091zm2.36-3.114h1.341v9.364c0 .538-.093 1.004-.279 1.398s-.458.699-.829.915-.832.324-1.392.324h-.137-.136v-1.25h.125.125c.409 0 .708-.121.898-.364s.284-.58.284-1.023v-9.364zm.659-1.455a.95.95 0 0 1-.676-.267c-.186-.178-.279-.392-.279-.642s.093-.464.279-.642a.95.95 0 0 1 .676-.267.93.93 0 0 1 .67.267c.19.178.284.392.284.642s-.094.464-.284.642a.93.93 0 0 1-.67.267zm6.797 10.364c-.841 0-1.567-.186-2.177-.557a3.74 3.74 0 0 1-1.403-1.568c-.326-.674-.489-1.458-.489-2.352s.163-1.682.489-2.364.788-1.22 1.375-1.602 1.28-.579 2.068-.579c.455 0 .904.076 1.347.227a3.34 3.34 0 0 1 1.21.739c.364.337.653.784.869 1.341s.324 1.242.324 2.057v.568h-6.727v-1.159h5.364c0-.492-.099-.932-.296-1.318a2.23 2.23 0 0 0-.829-.915c-.356-.224-.777-.335-1.262-.335-.534 0-.996.133-1.386.398s-.684.602-.892 1.023a3.01 3.01 0 0 0-.313 1.352v.773c0 .659.114 1.218.341 1.676s.551.801.96 1.04.885.352 1.427.352c.352 0 .67-.049.954-.148s.536-.254.744-.455.37-.458.483-.761l1.296.364a2.87 2.87 0 0 1-.688 1.159c-.322.329-.719.587-1.193.773a4.42 4.42 0 0 1-1.596.273zm6.994-5.432V43h-1.341v-8.727h1.295v1.364h.114c.205-.443.515-.799.932-1.068s.954-.409 1.614-.409c.59 0 1.108.121 1.551.364s.788.602 1.034 1.091.369 1.099.369 1.841V43h-1.341v-5.455c0-.686-.178-1.22-.534-1.602s-.845-.58-1.466-.58c-.428 0-.81.093-1.148.278s-.596.456-.789.813-.29.788-.29 1.295zm10.587 5.455c-.553 0-1.055-.104-1.506-.312a2.58 2.58 0 0 1-1.074-.915c-.265-.401-.398-.886-.398-1.455 0-.5.099-.905.296-1.216s.46-.561.79-.739.693-.311 1.09-.398l1.211-.216 1.289-.153c.334-.038.576-.1.728-.187s.233-.239.233-.454v-.046c0-.561-.154-.996-.461-1.307s-.763-.466-1.38-.466c-.64 0-1.142.14-1.506.421s-.619.579-.767.898l-1.273-.455c.228-.53.531-.943.909-1.239s.8-.508 1.25-.625.902-.182 1.341-.182a5.3 5.3 0 0 1 .966.102 3.09 3.09 0 0 1 1.063.403c.344.205.63.513.858.926s.341.966.341 1.659V43h-1.341v-1.182h-.069c-.09.189-.242.392-.454.608s-.494.4-.847.551-.782.227-1.289.227zm.204-1.205c.53 0 .977-.104 1.341-.312s.644-.477.83-.807a2.06 2.06 0 0 0 .284-1.04v-1.227c-.057.068-.182.131-.375.188s-.409.1-.659.142l-.722.102-.563.068c-.348.046-.674.119-.977.222s-.541.248-.727.449-.273.466-.273.807c0 .466.173.818.517 1.057.349.235.79.352 1.324.352zm7.22 1.091a.98.98 0 0 1-.721-.301c-.201-.201-.301-.441-.301-.722s.1-.521.301-.722a.98.98 0 0 1 .721-.301c.281 0 .521.1.722.301s.301.441.301.722a.96.96 0 0 1-.142.511c-.091.155-.214.28-.369.375s-.322.136-.512.136zm6.725.091c-.728 0-1.37-.184-1.926-.551s-.993-.894-1.307-1.568-.472-1.479-.472-2.403c0-.917.157-1.712.472-2.386s.752-1.195 1.312-1.562 1.209-.551 1.943-.551c.569 0 1.018.095 1.347.284s.587.398.761.636l.415.58h.114v-4.296h1.341V43h-1.296v-1.341h-.159c-.098.159-.238.36-.42.602s-.442.453-.779.642-.786.278-1.346.278zm.182-1.205c.537 0 .992-.14 1.363-.42s.654-.676.847-1.176.29-1.085.29-1.744c0-.652-.095-1.222-.285-1.71s-.469-.875-.84-1.148-.83-.415-1.375-.415c-.569 0-1.042.146-1.421.438s-.657.68-.847 1.176-.278 1.045-.278 1.659a4.82 4.82 0 0 0 .284 1.693c.193.504.477.905.852 1.205s.849.443 1.41.443zm10.119 1.205c-.841 0-1.566-.186-2.176-.557s-1.074-.898-1.404-1.568c-.325-.674-.488-1.458-.488-2.352s.163-1.682.488-2.364c.33-.686.788-1.22 1.375-1.602s1.281-.579 2.068-.579c.455 0 .904.076 1.347.227a3.33 3.33 0 0 1 1.21.739c.364.337.654.784.87 1.341s.323 1.242.323 2.057v.568h-6.727v-1.159h5.364c0-.492-.099-.932-.296-1.318s-.469-.691-.829-.915-.777-.335-1.262-.335c-.534 0-.996.133-1.386.398s-.684.602-.892 1.023a3.01 3.01 0 0 0-.312 1.352v.773c0 .659.113 1.218.34 1.676s.552.801.961 1.04.884.352 1.426.352c.352 0 .67-.049.954-.148a2.05 2.05 0 0 0 .745-.455c.208-.205.369-.458.483-.761l1.295.364c-.136.439-.365.826-.687 1.159a3.35 3.35 0 0 1-1.194.773 4.42 4.42 0 0 1-1.596.273z" fill="#000"/><circle cx="1067.5" cy="35.5" r="7.5" fill="#fcbd2e"/><circle cx="1044.5" cy="35.5" r="7.5" fill="#fa6058"/><circle cx="1090.5" cy="35.5" r="7.5" fill="#30ca41"/><defs><linearGradient id="B" x1="823.904" y1="316.159" x2="1230.53" y2="592.801" gradientUnits="userSpaceOnUse"><stop stop-color="#b5ead7"/><stop offset=".443" stop-color="#e2f0cb"/><stop offset=".672" stop-color="#e3f1cd"/><stop offset=".672" stop-color="#fff"/></linearGradient></defs></svg>