<svg width="24" height="24" viewBox="0 0 24 24" fill="none" xmlns="http://www.w3.org/2000/svg">
<g clip-path="url(#clip0_2882_959)">
<path d="M0 1.53559C0 1.0451 0.2595 0.562972 0.7388 0.264778C1.5051 -0.208995 2.5493 -0.027845 3.0714 0.674445L12.0229 12.7333L20.9286 0.677239C21.4476 -0.0250598 22.4918 -0.21178 23.2581 0.261993C24.0275 0.735756 24.232 1.68887 23.713 2.39116L13.4181 16.3256C13.1067 16.7464 12.5846 17 12.029 17C11.4703 17 10.9482 16.7491 10.6368 16.3283L0.290001 2.39395C0.0946009 2.1292 0 1.831 0 1.53559Z" fill="black"/>
<rect y="20.5" width="24" height="3.5" rx="1.75" fill="black"/>
</g>
<defs>
<clipPath id="clip0_2882_959">
<rect width="24" height="24" fill="white" transform="matrix(0 1 -1 0 24 0)"/>
</clipPath>
</defs>
</svg>
