<svg width="23" height="25" viewBox="0 0 23 25" fill="none" xmlns="http://www.w3.org/2000/svg">
<path d="M16.018 24.5984C15.743 24.731 15.4373 24.7999 15.1215 24.7999C14.7217 24.7999 14.3549 24.7999 13.9474 24.7999C13.0051 24.7999 11.8309 24.805 9.51836 24.7667C9.09558 24.7591 8.75938 24.4121 8.76703 23.9887C8.77467 23.5652 9.1236 23.2285 9.54384 23.2361C11.8411 23.2744 13.0076 23.2718 13.9449 23.2693C14.3549 23.2693 14.7242 23.2693 15.1317 23.2693C15.2692 23.2693 15.3966 23.2182 15.4934 23.1213C15.5901 23.0269 15.6436 22.8994 15.6436 22.7616L15.7048 12.8126C15.7099 12.1315 15.4475 11.4886 14.9713 11.0039C14.495 10.5192 13.8557 10.2513 13.1757 10.2462L9.10067 10.2207C7.69733 10.2131 6.54614 11.3508 6.5385 12.7565L6.47737 22.7029C6.47737 22.8407 6.52832 22.9683 6.6251 23.0652C6.77027 23.2132 6.96129 23.2182 6.98167 23.2182C7.40445 23.2182 7.74573 23.5626 7.74319 23.9861C7.74319 24.4096 7.39935 24.7489 6.97657 24.7489C6.72188 24.7489 6.07497 24.6876 5.53757 24.1417C5.15554 23.754 4.94669 23.2387 4.94924 22.6928L5.01036 12.7463C5.0231 10.4963 6.86451 8.67481 9.11086 8.68757L13.1859 8.71307C14.2734 8.71817 15.2947 9.1493 16.0588 9.92481C16.8228 10.7003 17.2405 11.7284 17.2354 12.8177L17.1743 22.7667C17.1718 23.3126 16.9553 23.8228 16.5681 24.2055C16.4051 24.3662 16.2192 24.4963 16.0206 24.5933L16.018 24.5984Z" fill="black"/>
<path d="M15.1939 10.0739C14.9494 10.1912 14.6744 10.2576 14.384 10.255L7.88945 10.2142C7.39536 10.2116 6.93436 10.0152 6.58798 9.6657C6.2416 9.31366 6.05314 8.84936 6.05569 8.35446L6.06332 7.2065C6.07096 6.18608 6.90381 5.36211 7.92001 5.36721L14.4146 5.40804C14.9087 5.41059 15.3697 5.60702 15.716 5.95652C16.0624 6.30856 16.2509 6.77285 16.2483 7.26775L16.2407 8.41572C16.2356 9.14531 15.8077 9.77542 15.1914 10.0713L15.1939 10.0739ZM14.3942 8.72438C14.5699 8.72438 14.7126 8.58152 14.7151 8.4055L14.7227 7.25754C14.7227 7.08152 14.5827 6.9361 14.4069 6.9361L7.91237 6.89528C7.73663 6.89528 7.594 7.03814 7.59146 7.21416L7.58382 8.36212C7.58382 8.47692 7.63985 8.55346 7.67551 8.58917C7.71116 8.62488 7.78502 8.68356 7.89963 8.68356L14.3942 8.72438Z" fill="black"/>
<path d="M15.2313 6.94372L7.20605 6.89523L7.65431 5.8391C7.92428 5.19879 8.30632 4.70391 8.78768 4.36718C8.83098 4.33656 8.87683 4.30593 8.92267 4.27787C8.96597 4.2498 9.02709 4.20899 9.0653 4.18093C9.0653 4.16052 9.0602 4.14011 9.0602 4.1146C9.0551 4.05337 9.05001 3.9845 9.04492 3.90032C9.02199 3.54062 9.03728 3.23194 9.04492 3.06612V2.98706C9.05256 2.36971 9.28177 1.80591 9.69437 1.4054C10.0993 1.01254 10.6546 0.798253 11.2582 0.800804C11.8618 0.803355 12.4144 1.02531 12.8143 1.42327C13.2218 1.82889 13.4459 2.39521 13.4408 3.01256V3.08911C13.4485 3.25492 13.4612 3.56612 13.4332 3.92327C13.4281 4.00745 13.4205 4.07891 13.4154 4.14013C13.4154 4.16564 13.4103 4.18605 13.4077 4.20646C13.4434 4.23707 13.5045 4.27786 13.5504 4.30592C13.5962 4.33654 13.642 4.36718 13.6853 4.39779C14.1616 4.73963 14.536 5.23962 14.7983 5.88248L15.2339 6.94627L15.2313 6.94372ZM10.0076 5.37993L12.4476 5.39522C12.254 5.23961 12.0477 5.01258 11.9382 4.67329C11.8516 4.40543 11.872 4.19623 11.8923 3.99215C11.8974 3.94113 11.9025 3.88247 11.9076 3.81104C11.928 3.53297 11.9204 3.28807 11.9127 3.14011C11.9127 3.07889 11.9102 3.03296 11.9102 3.00235C11.9102 2.79316 11.8516 2.62226 11.7344 2.50491C11.6173 2.39011 11.4492 2.3289 11.2454 2.32635C11.0417 2.32635 10.8736 2.38501 10.7539 2.4998C10.6367 2.6146 10.573 2.78553 10.5705 2.99217C10.5705 3.02278 10.5705 3.07123 10.5654 3.13245C10.5578 3.28041 10.5476 3.52531 10.5654 3.80082C10.5705 3.87225 10.5756 3.93095 10.5781 3.98197C10.596 4.18605 10.6138 4.39522 10.5247 4.66307C10.4126 5.00236 10.2012 5.22432 10.0076 5.37993V5.37993Z" fill="black"/>
<path d="M9.71922 14.7443C9.61734 14.7928 9.50273 14.8209 9.38303 14.8209L8.10958 14.8132C7.6868 14.8132 7.34805 14.4664 7.3506 14.0431C7.35315 13.6198 7.69698 13.2807 8.11977 13.2832L9.39321 13.2909C9.81599 13.2909 10.1547 13.6377 10.1522 14.061C10.1522 14.3619 9.97391 14.6219 9.71922 14.7469V14.7443Z" fill="black"/>
<path d="M9.70262 17.8049C9.60074 17.8533 9.48613 17.8814 9.36643 17.8814L8.09298 17.8737C7.6702 17.8737 7.33145 17.5269 7.334 17.1037C7.334 16.6804 7.68038 16.3412 8.10316 16.3438L9.37661 16.3514C9.79939 16.3514 10.1381 16.6982 10.1356 17.1215C10.1356 17.4224 9.95731 17.6825 9.70262 17.8074V17.8049Z" fill="black"/>
<path d="M9.68307 20.8674C9.5812 20.9158 9.46658 20.9439 9.34688 20.9439L8.07344 20.9362C7.65065 20.9362 7.31192 20.5894 7.31447 20.1662C7.31701 19.7429 7.66083 19.4037 8.08362 19.4063L9.35706 19.4139C9.77985 19.4139 10.1186 19.7607 10.116 20.184C10.116 20.4849 9.93776 20.745 9.68307 20.8699V20.8674Z" fill="black"/>
<path d="M5.53499 22.0888C2.58569 22.0888 0.186523 20.0097 0.186523 17.4536C0.186523 14.8975 2.58569 12.8184 5.53499 12.8184C5.95777 12.8184 6.29906 13.1602 6.29906 13.5837C6.29906 14.0071 5.95777 14.349 5.53499 14.349C3.42871 14.349 1.71466 15.7419 1.71466 17.4536C1.71466 19.1653 3.42871 20.5582 5.53499 20.5582C5.95777 20.5582 6.29906 20.9001 6.29906 21.3235C6.29906 21.747 5.95777 22.0888 5.53499 22.0888Z" fill="black"/>
<path d="M16.7836 22.0888C16.3608 22.0888 16.0195 21.747 16.0195 21.3235C16.0195 20.9001 16.3608 20.5582 16.7836 20.5582C18.8899 20.5582 20.6039 19.1653 20.6039 17.4536C20.6039 15.7419 18.8899 14.349 16.7836 14.349C16.3608 14.349 16.0195 14.0071 16.0195 13.5837C16.0195 13.1602 16.3608 12.8184 16.7836 12.8184C19.7329 12.8184 22.1321 14.8975 22.1321 17.4536C22.1321 20.0097 19.7329 22.0888 16.7836 22.0888Z" fill="black"/>
</svg>
