<svg width="38" height="38" viewBox="0 0 38 38" fill="none" xmlns="http://www.w3.org/2000/svg">
<path d="M20 26H18" stroke="white" stroke-width="2" stroke-linecap="round"/>
<path d="M23.3808 25.1268L33.07 28.3565C33.2351 28.4116 33.256 28.6366 33.1039 28.7211L31.4989 29.6127C29.8665 30.5196 28.5206 31.8655 27.6137 33.4979L26.7221 35.1029C26.6376 35.255 26.4126 35.2341 26.3575 35.069L23.1278 25.3798C23.0757 25.2234 23.2244 25.0747 23.3808 25.1268Z" stroke="white" stroke-width="2" stroke-linecap="round"/>
<path d="M24 22V20" stroke="white" stroke-width="2" stroke-linecap="round"/>
<path d="M21.4142 23.4142L20 22" stroke="white" stroke-width="2" stroke-linecap="round"/>
<path d="M18.6569 19.3431C17.1566 17.8429 15.1217 17 13 17C10.8783 17 8.84344 17.8429 7.34315 19.3431C5.84286 20.8434 5 22.8783 5 25" stroke="white" stroke-width="2" stroke-linecap="round"/>
<path d="M13 14.5C15.7614 14.5 18 12.2614 18 9.5C18 6.73858 15.7614 4.5 13 4.5C10.2386 4.5 8 6.73858 8 9.5C8 12.2614 10.2386 14.5 13 14.5Z" stroke="white" stroke-width="2"/>
</svg>
