<svg width="24" height="24" viewBox="0 0 24 24" fill="none" xmlns="http://www.w3.org/2000/svg">
<path d="M12.3987 23.4786C11.4099 23.4786 10.4828 23.1316 9.81725 22.6324C8.86644 21.9217 8.50275 21.2205 8.37202 20.864C8.17235 20.3268 8.16047 19.8942 8.15096 19.4378C8.14383 19.1693 8.1367 18.8888 8.09153 18.537C8.08202 18.4681 8.0749 18.3873 8.06777 18.2969C8.0226 17.8002 7.94892 16.9682 7.25007 15.9628C6.865 15.409 6.49656 15.0263 5.94271 14.4463L5.63132 14.1183C4.38814 12.8086 3.59897 11.4823 3.28521 10.1798C2.53644 7.05651 4.62584 4.32782 4.86829 4.02596C7.00286 1.35431 10.1049 1.12612 10.7039 1.10711C11.3243 1.09047 14.5356 1.12612 16.8081 3.76449C18.4149 5.63037 18.6621 7.72205 18.6669 8.80355C18.6669 9.19812 18.3507 9.519 17.9562 9.519H17.9538C17.5616 9.519 17.2431 9.20287 17.2407 8.8083C17.2383 8.09523 17.0838 6.26739 15.7265 4.6915C13.8772 2.54277 11.2506 2.51187 10.7467 2.5285C10.257 2.54277 7.72309 2.73054 5.98074 4.91255C5.78344 5.15737 4.0815 7.37978 4.671 9.84226C4.92534 10.9 5.59566 12.0053 6.66294 13.1319L6.97195 13.4552C7.55194 14.0613 7.97031 14.4986 8.41956 15.1428C9.33709 16.4596 9.43455 17.5696 9.48684 18.1638C9.49397 18.2351 9.49873 18.2969 9.50586 18.3492C9.56053 18.7747 9.56766 19.1193 9.57479 19.3974C9.5843 19.7873 9.59143 20.0463 9.7079 20.3601C9.75782 20.4908 9.96937 20.9591 10.6706 21.4844C11.3908 22.0239 12.6578 22.3163 13.737 21.6817C14.8755 21.0114 15.061 19.7088 15.0776 19.5615C15.1228 19.1693 15.4769 18.8912 15.8691 18.9363C16.2613 18.9815 16.5395 19.3356 16.4943 19.7278C16.4515 20.0844 16.1568 21.9122 14.4596 22.9105C13.7869 23.3075 13.0761 23.4715 12.3963 23.4715L12.3987 23.4786Z" fill="black"/>
<path d="M10.0491 14.2679C9.69497 14.2679 9.38834 14.0041 9.34318 13.6452C9.33842 13.6071 9.33367 13.5643 9.32891 13.5144C9.30752 13.2815 9.27899 12.9606 8.99613 12.5494C8.82498 12.3022 8.65621 12.1239 8.39949 11.8553L8.24499 11.6937C7.59844 11.0092 7.18483 10.3056 7.01844 9.60678C6.62386 7.95008 7.64598 6.55483 7.85516 6.29337C8.99137 4.86247 10.6434 4.74124 10.9619 4.73174C11.2923 4.7151 13.0038 4.74124 14.2137 6.15788C14.4704 6.45737 14.4347 6.90661 14.1352 7.16332C13.8357 7.42003 13.3865 7.38437 13.1298 7.08488C12.343 6.16501 11.2258 6.15313 11.0047 6.15788C10.7955 6.16501 9.71399 6.24583 8.96998 7.18233C8.9367 7.22512 8.15229 8.2258 8.40425 9.27877C8.51359 9.73276 8.80834 10.2176 9.28137 10.7192L9.43112 10.8784C9.71161 11.1732 9.93267 11.4061 10.168 11.746C10.6672 12.4662 10.7218 13.0937 10.748 13.3956C10.7504 13.4241 10.7527 13.4503 10.7551 13.4716C10.805 13.8615 10.5293 14.2204 10.1371 14.2679C10.1062 14.2727 10.0753 14.2727 10.0468 14.2727L10.0491 14.2679Z" fill="black"/>
<path d="M21.0281 19.4902C20.8451 19.4902 20.6621 19.4213 20.5242 19.281L12.7252 11.4824C12.4471 11.2043 12.4471 10.7527 12.7252 10.4746C13.0033 10.1965 13.4549 10.1965 13.733 10.4746L21.532 18.2732C21.8102 18.5513 21.8102 19.0029 21.532 19.281C21.3918 19.4213 21.2111 19.4902 21.0281 19.4902Z" fill="black"/>
<path d="M4.07733 2.54032C3.8943 2.54032 3.71127 2.47139 3.57341 2.33115L2.45858 1.21638C2.18047 0.938283 2.18047 0.486673 2.45858 0.208574C2.73669 -0.0695247 3.18833 -0.0695247 3.46644 0.208574L4.58126 1.32335C4.85937 1.60144 4.85937 2.05306 4.58126 2.33115C4.44339 2.47139 4.26036 2.54032 4.07733 2.54032Z" fill="black"/>
</svg>
