<svg width="25" height="24" viewBox="0 0 25 24" fill="none" xmlns="http://www.w3.org/2000/svg">
<circle cx="12.4615" cy="4.15385" r="3.41538" stroke="black" stroke-width="1.47692"/>
<path d="M0.922852 13.3848V9.66705C0.922852 8.49215 2.00589 7.61425 3.1591 7.83894C4.28603 8.0585 5.63409 8.30627 6.69208 8.45591C8.97355 8.77859 12.4613 9.69217 12.4613 9.69217C12.4613 9.69217 15.9491 8.77859 18.2305 8.45591C19.2885 8.30627 20.6366 8.0585 21.7635 7.83894C22.9167 7.61425 23.9998 8.49215 23.9998 9.66705V19.2755C23.9998 20.1464 23.3917 20.8987 22.5378 21.0699C21.3081 21.3165 19.5453 21.654 18.2305 21.84C15.9491 22.1627 12.4613 23.0763 12.4613 23.0763C12.4613 23.0763 8.97355 22.1627 6.69208 21.84C5.37728 21.654 3.61449 21.3165 2.38485 21.0699C1.53091 20.8987 0.922852 20.1464 0.922852 19.2755V16.5" stroke="black" stroke-width="1.47692" stroke-linecap="round"/>
</svg>
