<svg width="24" height="24" viewBox="0 0 24 24" fill="none" xmlns="http://www.w3.org/2000/svg">
<path d="M19.2405 2H15.2934C15.0286 2 14.8139 2.21467 14.8139 2.47948L14.8139 11.9337C14.8139 12.1985 14.5992 12.4132 14.3344 12.4132H9.50062C9.36821 12.4132 9.26088 12.3059 9.26088 12.1735V9.69906C9.26088 9.48753 9.00689 9.37966 8.85467 9.52654L3.36419 14.8242C3.16631 15.0151 3.16921 15.333 3.37054 15.5203L8.85784 20.6251C9.01119 20.7677 9.26088 20.659 9.26088 20.4495V17.9611C9.26088 17.8287 9.36821 17.7214 9.50062 17.7214H19.2405C19.5053 17.7214 19.72 17.5067 19.72 17.2419L19.72 2.47948C19.72 2.21467 19.5053 2 19.2405 2Z" stroke="black" stroke-width="1.79805" stroke-linecap="round"/>
</svg>
