<svg width="24" height="24" viewBox="0 0 24 24" fill="none" xmlns="http://www.w3.org/2000/svg">
<g clip-path="url(#clip0_3528_1181)">
<mask id="mask0_3528_1181" style="mask-type:luminance" maskUnits="userSpaceOnUse" x="0" y="0" width="24" height="24">
<path d="M24 0H0V24H24V0Z" fill="white"/>
</mask>
<g mask="url(#mask0_3528_1181)">
<path d="M18.8534 18C18.5834 18 18.3187 17.8382 18.1705 17.5457C17.9455 17.1041 18.0699 16.5316 18.4457 16.2671C19.9861 15.1875 21.2963 13.7316 22.2624 12.0329C20.0073 8.21556 16.0981 5.86667 11.9322 5.86667C10.9317 5.86667 9.93643 5.99733 8.97305 6.25866C8.54692 6.37378 8.12079 6.05956 8.02022 5.55867C7.92229 5.05777 8.18962 4.55688 8.61574 4.43866C9.69561 4.14622 10.8099 4 11.9294 4C16.8101 4 21.3863 6.884 23.8769 11.5258C24.0383 11.8244 24.041 12.2071 23.8849 12.5089C22.7652 14.6773 21.164 16.5316 19.2556 17.8693C19.1286 17.9596 18.9884 18 18.8507 18H18.8534Z" fill="black"/>
<path d="M11.6392 19.9966C6.93445 19.9966 2.52129 17.0748 0.118996 12.3688C-0.0370643 12.0646 -0.0396223 11.6748 0.11132 11.3674C1.45446 8.6357 3.43253 6.83336 5.86041 5.45484C6.24672 5.23617 6.70211 5.44532 6.87863 5.92384C7.05515 6.40236 6.88631 6.96645 6.5 7.18511C4.50193 8.31646 2.85644 9.68466 1.68214 11.8522C3.85675 15.7184 7.62264 18.0983 11.6367 18.0983C13.1334 18.0983 14.589 17.7814 15.968 17.1572C16.3671 16.9766 16.8071 17.23 16.953 17.7244C17.0988 18.2187 16.8941 18.7638 16.495 18.9445C14.9473 19.6448 13.3124 19.9997 11.6367 19.9997L11.6392 19.9966Z" fill="black"/>
</g>
<circle cx="12" cy="12" r="4.125" stroke="black" stroke-width="1.75"/>
<circle cx="12" cy="12" r="1.5" fill="black"/>
</g>
<defs>
<clipPath id="clip0_3528_1181">
<rect width="24" height="24" fill="white"/>
</clipPath>
</defs>
</svg>
