<svg width="24" height="24" viewBox="0 0 24 24" fill="none" xmlns="http://www.w3.org/2000/svg">
<path d="M21.2617 13.1693C21.2617 12.6482 21.2592 12.1272 21.2592 11.6061V10.4159V7.14148C21.2592 7.03776 21.2592 6.93405 21.2592 6.82786C21.2592 6.55376 21.2617 6.26978 21.2543 5.97839C21.2147 4.68196 20.1632 3.66457 18.8643 3.66457C18.7505 3.66457 18.6367 3.67198 18.5253 3.68927C18.5006 3.69174 18.4758 3.69668 18.4536 3.70162C18.2185 2.61508 17.2586 1.83476 16.1304 1.83476C16.0735 1.83476 16.0166 1.83476 15.9596 1.84216C15.878 1.8471 15.7964 1.85698 15.7172 1.8718C15.5638 1.14086 15.0764 0.538327 14.3564 0.217306C14.0298 0.0716123 13.6983 0 13.3618 0C12.8299 0 12.3153 0.182735 11.8798 0.530919C11.5606 0.782797 11.197 1.20506 11.0436 1.8718C10.9446 1.85451 10.8456 1.84216 10.7442 1.83723C10.7046 1.83723 10.665 1.83476 10.623 1.83476C9.58877 1.83476 8.65602 2.51384 8.35665 3.48925C8.25274 3.83002 8.23789 4.14611 8.23789 4.38564C8.23789 6.4377 8.23789 8.48976 8.23789 10.5443V12.6581C8.17852 12.5741 8.11914 12.4902 8.05976 12.4062C7.78265 12.0111 7.50555 11.6185 7.22845 11.2234C7.08743 11.0258 6.90929 10.7937 6.65445 10.5887C6.23385 10.2529 5.70439 10.0677 5.16255 10.0677C4.53907 10.0677 3.94776 10.3048 3.49746 10.732C2.62162 11.5666 2.50286 12.868 3.20799 13.8977L4.26197 15.4386C5.47677 17.2141 6.73115 19.0513 7.98059 20.8515C9.07168 22.427 10.6056 23.4296 12.5379 23.8345C13.0649 23.9457 13.5919 24 14.1016 24C15.3857 24 16.6004 23.6568 17.7138 22.9777C17.8919 22.869 18.0627 22.7554 18.2284 22.6369C18.2284 22.6369 18.2309 22.6369 18.2334 22.6344C18.4363 22.4961 18.5699 22.264 18.5699 22.0023C18.5699 21.58 18.226 21.2368 17.8029 21.2368C17.7262 21.2368 17.652 21.2516 17.5827 21.2713C17.454 21.3726 17.3179 21.4664 17.1769 21.5602C17.1002 21.6121 17.0235 21.664 16.9444 21.7133C16.0512 22.2566 15.0987 22.5184 14.1065 22.5184C13.6933 22.5184 13.2727 22.4739 12.8447 22.385C11.3256 22.0665 10.091 21.2886 9.20528 20.0095C7.60452 17.7006 6.02355 15.3794 4.43763 13.0631C4.13826 12.6285 4.18032 12.1346 4.5267 11.8062C4.70236 11.6382 4.93493 11.5518 5.1675 11.5518C5.36791 11.5518 5.56584 11.616 5.72913 11.7469C5.84294 11.8383 5.93695 11.9593 6.02108 12.0803C6.56786 12.8507 7.10474 13.6261 7.65153 14.3941C7.88162 14.72 8.20821 14.8904 8.56943 14.8904C8.66345 14.8904 8.76241 14.8781 8.86137 14.8534C9.30672 14.7447 9.63578 14.3743 9.70753 13.8953C9.72485 13.7866 9.72732 13.673 9.72732 13.5619C9.72732 10.5048 9.72732 7.44521 9.72979 4.38811C9.72979 4.235 9.73722 4.07202 9.78423 3.92633C9.89556 3.56333 10.2568 3.31886 10.6329 3.31886C10.6477 3.31886 10.6625 3.31886 10.6774 3.31886C11.093 3.34108 11.4369 3.62013 11.5211 4.0177C11.5483 4.14117 11.5557 4.26957 11.5557 4.39304C11.5557 6.56611 11.5631 8.73917 11.5532 10.9122C11.5508 11.3888 11.7784 11.5345 12.006 11.5345C12.0109 11.5345 12.0159 11.5345 12.0208 11.5345C12.2658 11.5271 12.4736 11.3765 12.4711 10.9172C12.4612 8.12676 12.4687 5.33635 12.4662 2.54594C12.4662 2.2101 12.5379 1.91131 12.8126 1.69153C12.9882 1.55325 13.1763 1.48163 13.3717 1.48163C13.4979 1.48163 13.6241 1.51127 13.7552 1.56806C14.0843 1.71623 14.2797 1.98292 14.2896 2.35086C14.302 2.88672 14.2946 3.42257 14.2946 3.95843C14.2946 6.27225 14.2946 8.58607 14.2946 10.8999C14.2946 11.011 14.302 11.1246 14.3317 11.2308C14.3911 11.4333 14.5543 11.5222 14.7523 11.537C14.7597 11.537 14.7696 11.537 14.777 11.537C14.9601 11.537 15.1358 11.3962 15.1803 11.2135C15.2075 11.1073 15.2149 10.9937 15.2149 10.8826C15.2149 8.69472 15.2149 6.50684 15.2149 4.31896C15.2149 3.73866 15.5465 3.35343 16.0685 3.31639C16.0908 3.31639 16.1106 3.31639 16.1328 3.31639C16.5609 3.31639 16.9419 3.62753 17.0136 4.05474C17.0334 4.1708 17.0384 4.2918 17.0384 4.41033C17.0384 6.8649 17.0384 9.32195 17.0384 11.7765C17.0384 11.8654 17.0384 11.9543 17.0483 12.0432C17.0755 12.2778 17.2487 12.4408 17.4763 12.4482C17.4812 12.4482 17.4887 12.4482 17.4936 12.4482C17.7212 12.4482 17.9068 12.2877 17.939 12.0531C17.9513 11.9716 17.9464 11.8901 17.9464 11.8086C17.9464 9.92695 17.9464 8.0428 17.9464 6.16113C17.9464 5.60798 18.2482 5.22276 18.7282 5.15609C18.7752 5.14868 18.8197 5.14621 18.8643 5.14621C19.3542 5.14621 19.755 5.51662 19.7698 6.02531C19.7822 6.39819 19.7748 6.7686 19.7748 7.14148C19.7748 8.63052 19.7748 10.1171 19.7748 11.6061C19.7748 13.3026 19.7896 14.9991 19.7723 16.6955C19.7624 17.6956 19.5595 18.5896 19.1636 19.3773C19.0869 19.5304 18.9979 19.6786 18.9063 19.8243C18.8964 19.8391 18.8865 19.8539 18.8766 19.8687C18.8049 19.9848 18.7604 20.1206 18.7604 20.2688C18.7604 20.691 19.1043 21.0343 19.5273 21.0343C19.7005 21.0343 19.8589 20.975 19.9875 20.8762C20.0914 20.7281 20.1879 20.5774 20.277 20.4219C20.3512 20.2959 20.423 20.17 20.4873 20.0416C20.9846 19.0563 21.2419 17.9352 21.2543 16.7104C21.2667 15.5275 21.2642 14.3274 21.2617 13.1693Z" fill="black"/>
</svg>
