<svg width="24" height="24" viewBox="0 0 24 24" fill="none" xmlns="http://www.w3.org/2000/svg">
<path fill-rule="evenodd" clip-rule="evenodd" d="M12 24C18.6274 24 24 18.6274 24 12C24 5.37258 18.6274 0 12 0C5.37258 0 0 5.37258 0 12C0 18.6274 5.37258 24 12 24ZM7.48836 10.7521C8.54875 10.7521 9.40836 9.8925 9.40836 8.83211C9.40836 7.77172 8.54875 6.91211 7.48836 6.91211C6.42797 6.91211 5.56836 7.77172 5.56836 8.83211C5.56836 9.8925 6.42797 10.7521 7.48836 10.7521ZM18.3366 8.83211C18.3366 9.8925 17.477 10.7521 16.4166 10.7521C15.3562 10.7521 14.4966 9.8925 14.4966 8.83211C14.4966 7.77172 15.3562 6.91211 16.4166 6.91211C17.477 6.91211 18.3366 7.77172 18.3366 8.83211ZM17.8653 16.186C18.3577 15.3383 17.5419 14.4961 16.5616 14.4961H12.1446H7.72768C6.74735 14.4961 5.93162 15.3383 6.42397 16.186C6.73515 16.7218 7.19125 17.2086 7.76623 17.6187C8.34121 18.0287 9.02381 18.354 9.77506 18.5759C10.5263 18.7979 11.3315 18.9121 12.1446 18.9121C12.9578 18.9121 13.763 18.7979 14.5142 18.5759C15.2655 18.354 15.9481 18.0287 16.523 17.6187C17.098 17.2086 17.5541 16.7218 17.8653 16.186Z" fill="black"/>
</svg>
