<svg width="24" height="24" viewBox="0 0 24 24" fill="none" xmlns="http://www.w3.org/2000/svg">
<g clip-path="url(#clip0_820_846)">
<path d="M12 24C8.8174 24 5.76516 22.7357 3.51472 20.4853C1.26428 18.2348 0 15.1826 0 12C0 8.8174 1.26428 5.76516 3.51472 3.51472C5.76516 1.26428 8.8174 0 12 0C15.1826 0 18.2348 1.26428 20.4853 3.51472C22.7357 5.76516 24 8.8174 24 12C24 15.1826 22.7357 18.2348 20.4853 20.4853C18.2348 22.7357 15.1826 24 12 24ZM7.8 10.8C8.27739 10.8 8.73523 10.6104 9.07279 10.2728C9.41036 9.93523 9.6 9.47739 9.6 9C9.6 8.52261 9.41036 8.06477 9.07279 7.72721C8.73523 7.38964 8.27739 7.2 7.8 7.2C7.32261 7.2 6.86477 7.38964 6.52721 7.72721C6.18964 8.06477 6 8.52261 6 9C6 9.47739 6.18964 9.93523 6.52721 10.2728C6.86477 10.6104 7.32261 10.8 7.8 10.8ZM16.2 10.8C16.6774 10.8 17.1352 10.6104 17.4728 10.2728C17.8104 9.93523 18 9.47739 18 9C18 8.52261 17.8104 8.06477 17.4728 7.72721C17.1352 7.38964 16.6774 7.2 16.2 7.2C15.7226 7.2 15.2648 7.38964 14.9272 7.72721C14.5896 8.06477 14.4 8.52261 14.4 9C14.4 9.47739 14.5896 9.93523 14.9272 10.2728C15.2648 10.6104 15.7226 10.8 16.2 10.8ZM18.792 14.4H5.208C5.70274 15.8064 6.62184 17.0245 7.83845 17.8862C9.05505 18.7479 10.5091 19.2107 12 19.2107C13.4909 19.2107 14.945 18.7479 16.1616 17.8862C17.3782 17.0245 18.2973 15.8064 18.792 14.4Z" fill="black"/>
</g>
<defs>
<clipPath id="clip0_820_846">
<rect width="24" height="24" fill="white"/>
</clipPath>
</defs>
</svg>
