<svg width="24" height="24" viewBox="0 0 24 24" fill="none" xmlns="http://www.w3.org/2000/svg">
<g clip-path="url(#clip0_823_77)">
<path d="M12.0056 22.844C11.7942 22.844 11.5933 22.7594 11.4453 22.6114L2.59884 13.7654C0.410363 11.577 -0.453921 8.86001 0.227998 6.31482C0.864983 3.93879 2.73629 2.06493 5.11507 1.42797C7.44893 0.804229 9.92288 1.47554 12.0056 3.27805C13.5624 1.92485 15.3201 1.21389 17.1253 1.21389H17.1306C18.9464 1.21389 20.667 1.93278 21.9727 3.24105C23.2811 4.54932 24.0026 6.2699 24 8.08826C24 10.1128 23.104 12.0765 21.4124 13.768L17.3843 17.7959C17.0751 18.1051 16.5729 18.1051 16.2637 17.7959C15.9544 17.4867 15.9544 16.9845 16.2637 16.6753L20.2917 12.6474C21.6794 11.2598 22.4141 9.68462 22.4141 8.08826C22.4141 6.69541 21.8591 5.37129 20.8521 4.36431C18.9913 2.50366 15.6055 1.8852 12.5686 4.92462C12.2594 5.23385 11.7572 5.23385 11.4479 4.92462C9.64272 3.11947 7.53881 2.42437 5.52741 2.96354C3.69575 3.45513 2.25262 4.89819 1.76365 6.72713C1.22446 8.74107 1.91957 10.8422 3.7248 12.6474L12.0109 20.9331L14.0197 18.9244C14.3289 18.6152 14.8311 18.6152 15.1403 18.9244C15.4496 19.2337 15.4496 19.7358 15.1403 20.0451L12.5713 22.6167C12.4232 22.7647 12.2197 22.8493 12.0109 22.8493L12.0056 22.844Z" fill="black"/>
</g>
<defs>
<clipPath id="clip0_823_77">
<rect width="24" height="24" fill="white"/>
</clipPath>
</defs>
</svg>
