<svg width="24" height="24" viewBox="0 0 24 24" fill="none" xmlns="http://www.w3.org/2000/svg">
<path d="M15.28 19.8427H8.71142C8.42773 19.8427 8.16314 19.7309 7.96674 19.5291C7.51393 19.0653 7.53029 18.288 7.55484 17.2078C7.57121 16.4932 7.58756 15.6803 7.44299 15.1921C7.21113 14.4174 7.03656 13.9264 6.12821 12.7917C5.21167 11.6461 4.97164 10.7978 4.8107 10.2386L4.76431 10.0804C3.98144 7.45367 5.17349 5.09969 5.3126 4.84056C6.11185 3.34307 7.39937 2.23563 9.1397 1.54553C9.75346 1.30277 10.3945 1.13911 11.0546 1.05728C11.0546 1.05728 11.6301 0.999794 12 1C12.3665 1.0002 12.9368 1.05728 12.9368 1.05728C13.5969 1.13639 14.2379 1.30004 14.8544 1.54553C15.4136 1.76647 16.2592 2.14835 17.1158 2.88755C17.4567 3.18213 17.4949 3.70039 17.2003 4.04135C16.9057 4.38231 16.3874 4.4205 16.0465 4.12591C15.299 3.48218 14.538 3.17941 14.2516 3.06485C13.5724 2.79481 12.8522 2.65024 12.1048 2.6366H12.0748H12.0039H11.922H11.8948C11.1474 2.65024 10.4272 2.79481 9.748 3.06485C8.37864 3.60765 7.3748 4.46414 6.76104 5.60976C6.75013 5.62886 5.73269 7.57641 6.33826 9.61125L6.39007 9.78855C6.52646 10.2741 6.69831 10.8796 7.41026 11.7661C8.48228 13.1054 8.73051 13.7764 9.0142 14.7174C9.23515 15.4539 9.21334 16.4031 9.19698 17.2405C9.19152 17.5324 9.18061 17.9225 9.19698 18.2034H14.8108C14.8244 17.9225 14.8162 17.5324 14.8108 17.2405C14.7917 16.4031 14.7699 15.4539 14.9935 14.7174C15.2772 13.7737 15.5255 13.1054 16.5975 11.7661C17.3067 10.8769 17.4786 10.2741 17.6177 9.78855L17.6695 9.61125C18.1468 8.00738 17.6204 6.4717 17.3749 5.88525C17.2003 5.46792 17.394 4.98785 17.8113 4.81328C18.226 4.63871 18.7088 4.83237 18.8834 5.24971C19.1998 5.99982 19.8681 7.96919 19.2407 10.0804L19.1943 10.2386C19.0361 10.7978 18.7933 11.6461 17.8768 12.7917C16.9684 13.9264 16.7939 14.4174 16.562 15.1921C16.4147 15.6803 16.4338 16.4932 16.4502 17.2078C16.4747 18.2852 16.4911 19.0653 16.0383 19.5291C15.8391 19.7309 15.5745 19.8427 15.2936 19.8427H15.28Z" fill="black"/>
<path d="M15.5425 20.3883C15.5425 22.3468 13.9549 23.9343 11.9963 23.9343C10.0378 23.9343 8.4502 22.3468 8.4502 20.3883" fill="black"/>
</svg>
