<svg width="24" height="24" viewBox="0 0 24 24" fill="none" xmlns="http://www.w3.org/2000/svg">
<path d="M19.9254 11.0358L4.07851 11.0001C3.48347 11.0001 3 11.4376 3 11.9805C3 12.5233 3.47956 12.9644 4.0746 12.9644L19.9215 13.0001C20.5165 13.0001 21 12.5626 21 12.0198C21 11.4769 20.5204 11.0358 19.9254 11.0358V11.0358Z" fill="black"/>
<path d="M19.9254 16.0357L4.07851 16C3.48543 15.9982 3 16.4375 3 16.9804C3 17.5232 3.47956 17.9643 4.0746 17.9643L19.9215 18C20.5165 18 21 17.5625 21 17.0196C21 16.4768 20.5204 16.0357 19.9254 16.0357Z" fill="black"/>
<path d="M4.0746 7.96429L19.9215 8.00001C20.5165 8.00001 21 7.5625 21 7.01965C21 6.47679 20.5204 6.0375 19.9254 6.03571L4.07852 6C3.48543 6 3.00196 6.4375 3.00001 6.98036C2.99805 7.52322 3.47956 7.96429 4.0746 7.96429Z" fill="black"/>
</svg>
