<svg width="462" height="142" viewBox="0 0 462 142" fill="none" xmlns="http://www.w3.org/2000/svg">
<mask id="mask0_3450_1156" style="mask-type:luminance" maskUnits="userSpaceOnUse" x="0" y="0" width="462" height="142">
<path d="M461.499 0H0.699219V141.7H461.499V0Z" fill="white"/>
</mask>
<g mask="url(#mask0_3450_1156)">
<path d="M411.599 92.9996H407.699V113.3H411.999V102.4C411.999 100.4 412.399 98.8996 413.099 97.8996C413.799 96.8996 414.899 96.3996 416.399 96.3996H418.699V92.6996C418.099 92.5996 417.499 92.5996 416.799 92.5996C414.799 92.5996 413.299 93.4996 412.099 95.1996L411.599 92.9996ZM303.999 85.0996H299.699V113.3H303.999V102.3C303.999 98.2996 305.499 96.3996 308.499 96.3996C310.099 96.3996 311.299 96.8996 311.999 97.7996C312.699 98.6996 313.099 100.2 313.099 102.3V113.3H317.399V102.3C317.399 98.9996 316.799 96.5996 315.499 95.0996C314.199 93.4996 312.199 92.6996 309.399 92.6996C308.199 92.6996 307.099 92.9996 306.199 93.4996C305.299 93.9996 304.499 94.5996 303.999 95.2996V85.0996ZM303.799 53.8996H299.499V74.0996H303.799V53.8996ZM303.999 45.8996H299.099V50.6996H303.999V45.8996ZM279.999 95.4996C278.299 97.3996 277.399 99.9996 277.399 103.1C277.399 106.3 278.299 108.8 279.999 110.7C281.699 112.6 284.099 113.6 286.999 113.6C288.299 113.6 289.399 113.4 290.499 113C291.599 112.6 292.399 112.1 293.199 111.4C293.899 110.7 294.499 110 294.899 109.2C295.299 108.4 295.699 107.6 295.799 106.7C293.599 106.3 292.199 106 291.499 105.9C291.199 107.1 290.599 108.1 289.899 108.8C289.099 109.5 288.199 109.8 286.999 109.8C285.299 109.8 283.999 109.2 283.099 107.9C282.199 106.7 281.699 105 281.699 102.9C281.699 100.8 282.199 99.1996 283.099 97.8996C283.999 96.6996 285.299 96.0996 286.999 96.0996C288.099 96.0996 288.999 96.3996 289.799 97.0996C290.599 97.7996 291.099 98.6996 291.499 99.9996C291.699 99.9996 293.199 99.6996 295.799 99.1996C295.599 98.4996 295.399 97.7996 295.099 97.1996C294.799 96.5996 294.399 95.9996 293.899 95.3996C293.399 94.7996 292.799 94.2996 292.199 93.8996C291.599 93.4996 290.799 93.0996 289.899 92.8996C288.999 92.5996 288.099 92.4996 286.999 92.4996C283.999 92.5996 281.699 93.5996 279.999 95.4996ZM261.299 106.5C261.299 106.5 259.899 106.8 257.099 107.3C257.399 109.2 258.299 110.8 259.799 111.9C261.299 113.1 263.299 113.7 265.799 113.7C268.299 113.7 270.399 113.1 271.999 112C273.599 110.9 274.399 109.3 274.399 107.2C274.399 106.3 274.199 105.5 273.899 104.8C273.599 104.1 273.199 103.6 272.699 103.1C272.199 102.7 271.599 102.3 270.799 102C269.999 101.7 269.299 101.5 268.499 101.4C267.799 101.3 266.899 101.1 265.899 101C264.599 100.9 263.599 100.6 262.899 100.3C262.299 99.9996 261.899 99.3996 261.899 98.6996C261.899 98.0996 262.199 97.4996 262.899 97.0996C263.599 96.5996 264.399 96.3996 265.499 96.3996C268.099 96.3996 269.499 97.4996 269.699 99.7996C272.099 99.2996 273.499 99.0996 273.999 98.9996C273.899 97.8996 273.499 96.8996 272.999 96.0996C272.499 95.2996 271.799 94.5996 271.099 94.0996C270.299 93.5996 269.399 93.1996 268.499 92.9996C267.599 92.7996 266.499 92.5996 265.399 92.5996C263.199 92.5996 261.399 93.1996 259.899 94.2996C258.399 95.4996 257.699 96.8996 257.699 98.5996C257.699 99.4996 257.799 100.3 258.099 101C258.399 101.7 258.799 102.2 259.199 102.6C259.699 103 260.199 103.3 260.899 103.6C261.499 103.9 262.199 104 262.899 104.1C263.599 104.2 264.299 104.3 264.999 104.4C265.699 104.5 266.299 104.6 266.999 104.7C267.599 104.8 268.199 104.9 268.699 105.1C269.199 105.3 269.599 105.5 269.799 105.9C270.099 106.2 270.199 106.7 270.199 107.2C270.199 107.8 269.999 108.3 269.699 108.7C269.299 109.1 268.899 109.4 268.399 109.6C267.899 109.8 267.399 109.9 266.999 109.9C266.599 110 266.299 110 265.999 110C263.199 110 261.699 108.8 261.299 106.5ZM240.099 85.0996H235.799V113.3H240.099V102.3C240.099 98.2996 241.599 96.3996 244.599 96.3996C246.199 96.3996 247.399 96.8996 248.099 97.7996C248.799 98.6996 249.199 100.2 249.199 102.3V113.3H253.499V102.3C253.499 98.9996 252.899 96.5996 251.599 95.0996C250.299 93.4996 248.299 92.6996 245.499 92.6996C244.299 92.6996 243.199 92.9996 242.299 93.4996C241.399 93.9996 240.599 94.5996 240.099 95.2996V85.0996ZM236.199 63.9996C236.199 66.1996 235.699 67.8996 234.799 69.0996C233.899 70.2996 232.599 70.8996 231.099 70.8996C229.499 70.8996 228.299 70.2996 227.399 69.0996C226.499 67.8996 225.999 66.1996 225.999 63.9996C225.999 61.7996 226.499 60.1996 227.399 58.9996C228.299 57.7996 229.599 57.1996 231.099 57.1996C232.699 57.1996 233.899 57.7996 234.799 58.9996C235.699 60.0996 236.199 61.7996 236.199 63.9996ZM237.999 71.5996C239.699 69.6996 240.499 67.0996 240.499 63.9996C240.499 60.8996 239.599 58.2996 237.899 56.3996C236.199 54.4996 233.899 53.4996 230.999 53.4996C228.099 53.4996 225.799 54.4996 224.099 56.3996C222.399 58.2996 221.599 60.8996 221.599 63.9996C221.599 67.1996 222.399 69.6996 224.099 71.5996C225.799 73.4996 228.099 74.4996 230.999 74.4996C233.999 74.4996 236.299 73.4996 237.999 71.5996ZM215.999 95.4996C214.299 97.3996 213.399 99.9996 213.399 103.1C213.399 106.3 214.299 108.8 215.999 110.7C217.699 112.6 220.099 113.6 222.999 113.6C224.299 113.6 225.399 113.4 226.499 113C227.599 112.6 228.399 112.1 229.199 111.4C229.899 110.7 230.499 110 230.899 109.2C231.299 108.4 231.699 107.6 231.799 106.7C229.599 106.3 228.199 106 227.499 105.9C227.199 107.1 226.599 108.1 225.799 108.8C224.999 109.5 224.099 109.8 222.899 109.8C221.199 109.8 219.899 109.2 218.999 107.9C218.099 106.6 217.599 105 217.599 102.9C217.599 100.8 218.099 99.1996 218.999 97.8996C219.899 96.6996 221.199 96.0996 222.899 96.0996C223.999 96.0996 224.899 96.3996 225.699 97.0996C226.499 97.7996 226.999 98.6996 227.399 99.9996C227.599 99.9996 229.099 99.6996 231.699 99.1996C231.499 98.4996 231.299 97.7996 230.999 97.1996C230.699 96.5996 230.299 95.9996 229.799 95.3996C229.299 94.7996 228.699 94.2996 228.099 93.8996C227.499 93.4996 226.699 93.0996 225.799 92.8996C224.899 92.5996 223.999 92.4996 222.899 92.4996C220.099 92.5996 217.799 93.5996 215.999 95.4996ZM196.299 103.1C196.299 100.9 196.799 99.2996 197.699 98.0996C198.599 96.8996 199.899 96.2996 201.399 96.2996C202.999 96.2996 204.199 96.8996 205.099 98.0996C205.999 99.2996 206.499 101 206.499 103.1C206.499 105.3 205.999 107 205.099 108.2C204.199 109.4 202.899 110 201.399 110C199.799 110 198.599 109.4 197.699 108.2C196.699 107 196.299 105.3 196.299 103.1ZM194.499 95.4996C192.799 97.3996 191.999 99.9996 191.999 103.1C191.999 106.3 192.799 108.8 194.499 110.7C196.199 112.6 198.499 113.6 201.399 113.6C204.299 113.6 206.599 112.6 208.299 110.7C209.999 108.8 210.799 106.2 210.799 103.1C210.799 99.9996 209.899 97.3996 208.199 95.4996C206.499 93.5996 204.199 92.5996 201.299 92.5996C198.499 92.5996 196.199 93.5996 194.499 95.4996ZM186.199 57.0996C187.799 57.0996 188.999 57.5996 189.699 58.4996C190.399 59.4996 190.799 60.9996 190.799 62.9996V73.9996H195.099V62.9996C195.099 59.6996 194.499 57.2996 193.199 55.6996C191.999 54.0996 189.899 53.3996 186.999 53.2996C185.799 53.2996 184.699 53.5996 183.699 54.0996C182.699 54.5996 181.999 55.1996 181.599 55.8996L181.199 53.6996H177.299V73.8996H181.599V62.8996C181.699 59.0996 183.199 57.0996 186.199 57.0996ZM171.899 85.0996H167.399V113.3H171.899V100.7H183.999V113.3H188.499V85.0996H183.999V96.8996H171.899V85.0996ZM171.899 45.8996H167.399V74.0996H171.899V45.8996ZM57.4988 94.9996L7.19883 72.5996L69.9988 46.7996L120.299 69.1996L57.4988 94.9996ZM59.5988 136.1V130.6L122.399 104.8V110.3L59.5988 136.1ZM122.499 100.1L59.6988 125.9V119.8L122.499 93.9996V100.1ZM122.399 89.2996L59.5988 115.1V109.1L122.399 83.3996V89.2996ZM122.399 78.5996L59.5988 104.3V98.6996L122.399 72.9996V78.5996ZM122.399 65.3996L72.1988 43.0996V5.89961L122.299 28.4996L122.399 65.3996ZM67.7988 5.69961V11.1996L5.19883 36.8996V31.3996L67.7988 5.69961ZM5.19883 41.5996L67.8988 15.8996V21.8996L5.19883 47.5996V41.5996ZM5.19883 52.3996L67.8988 26.6996V32.6996L5.19883 58.3996V52.3996ZM5.19883 63.0996L67.8988 37.3996V42.9996L5.19883 68.6996V63.0996ZM5.09883 76.4996L55.1988 98.7996V136L5.09883 113.4V76.4996ZM57.3988 141.8L126.799 113.3L126.699 25.5996L69.9988 0.0996094L0.798828 28.4996V116.3L57.3988 141.8ZM188.199 25.9996C188.199 25.0996 188.099 24.1996 187.799 23.4996C187.599 22.6996 187.299 22.0996 186.899 21.5996C186.499 21.0996 186.099 20.5996 185.499 20.1996C184.899 19.7996 184.299 19.3996 183.799 19.1996C183.199 18.8996 182.599 18.6996 181.799 18.4996C180.999 18.2996 180.399 18.1996 179.799 18.0996C179.199 17.9996 178.499 17.8996 177.799 17.7996C173.599 17.2996 171.499 15.9996 171.499 13.7996C171.499 12.9996 171.699 12.3996 171.999 11.7996C172.299 11.1996 172.799 10.7996 173.299 10.3996C173.899 10.0996 174.499 9.79961 175.099 9.69961C175.799 9.49961 176.499 9.49961 177.199 9.49961C177.899 9.49961 178.599 9.59961 179.299 9.79961C179.999 9.99961 180.599 10.2996 181.099 10.6996C181.699 11.0996 182.099 11.5996 182.499 12.2996C182.899 12.9996 183.099 13.7996 183.199 14.5996L187.499 13.8996C187.399 12.5996 187.099 11.4996 186.499 10.3996C185.899 9.39961 185.099 8.49961 184.199 7.79961C183.199 7.09961 182.099 6.59961 180.899 6.19961C179.699 5.79961 178.399 5.59961 177.199 5.59961C176.199 5.59961 175.299 5.69961 174.299 5.89961C173.399 6.09961 172.499 6.39961 171.599 6.79961C170.699 7.19961 169.899 7.79961 169.299 8.39961C168.599 8.99961 168.099 9.79961 167.699 10.6996C167.299 11.5996 167.099 12.5996 167.099 13.6996C167.099 18.1996 170.599 20.7996 177.499 21.4996C178.099 21.4996 178.599 21.5996 178.999 21.6996C179.399 21.7996 179.899 21.8996 180.399 21.9996C180.899 22.0996 181.299 22.2996 181.699 22.4996C182.099 22.6996 182.399 22.9996 182.699 23.2996C182.999 23.5996 183.299 23.9996 183.399 24.3996C183.599 24.8996 183.599 25.3996 183.599 25.8996C183.599 27.3996 182.999 28.4996 181.799 29.2996C180.599 30.0996 179.099 30.4996 177.399 30.4996C176.299 30.4996 175.199 30.2996 174.299 29.8996C173.399 29.4996 172.699 28.9996 172.199 28.2996C171.699 27.6996 171.299 26.9996 170.999 26.2996C170.699 25.5996 170.599 24.8996 170.599 24.1996L166.099 24.9996C166.099 25.8996 166.299 26.6996 166.499 27.5996C166.799 28.3996 167.199 29.2996 167.799 30.0996C168.399 30.8996 169.099 31.5996 169.899 32.2996C170.699 32.8996 171.799 33.3996 173.099 33.7996C174.399 34.1996 175.799 34.3996 177.299 34.3996C180.499 34.3996 183.099 33.5996 184.999 32.0996C187.199 30.5996 188.199 28.4996 188.199 25.9996ZM197.799 17.0996H201.999V13.8996H197.799V7.99961H193.499V13.8996H189.999V17.0996H193.499V28.2996C193.499 30.2996 193.899 31.7996 194.599 32.7996C195.399 33.7996 196.699 34.2996 198.499 34.2996H198.999L201.599 34.0996V30.5996C201.399 30.5996 200.999 30.5996 200.599 30.5996C200.199 30.5996 199.899 30.5996 199.699 30.5996C198.999 30.5996 198.499 30.4996 198.199 30.0996C197.899 29.7996 197.799 29.2996 197.799 28.3996V17.0996ZM209.799 53.4996C208.599 53.4996 207.499 53.7996 206.499 54.2996C205.499 54.7996 204.799 55.3996 204.399 56.0996L203.999 53.8996H200.099V74.0996H204.399V63.0996C204.399 59.0996 205.899 57.0996 208.899 57.0996C210.499 57.0996 211.599 57.5996 212.399 58.4996C213.099 59.4996 213.499 60.9996 213.499 62.9996V73.9996H217.799V62.9996C217.799 59.6996 217.199 57.2996 215.899 55.6996C214.699 54.2996 212.699 53.4996 209.799 53.4996ZM206.899 34.0996H211.199V13.7996H206.899V34.0996ZM206.699 10.7996H211.599V5.99961H206.699V10.7996ZM224.899 9.59961H227.299V5.89961H224.299C220.599 5.89961 218.699 7.69961 218.699 11.3996V13.8996H215.199V17.0996H218.699V34.0996H222.999V17.0996H226.799V13.8996H222.999V11.6996C223.199 10.2996 223.699 9.59961 224.899 9.59961ZM237.199 17.0996H241.399V13.8996H237.199V7.99961H232.899V13.8996H229.399V17.0996H232.899V28.2996C232.899 30.2996 233.299 31.7996 233.999 32.7996C234.799 33.7996 236.099 34.2996 237.899 34.2996H238.399L240.999 34.0996V30.5996C240.799 30.5996 240.399 30.5996 239.999 30.5996C239.599 30.5996 239.299 30.5996 239.099 30.5996C238.399 30.5996 237.899 30.4996 237.599 30.0996C237.299 29.7996 237.199 29.2996 237.199 28.3996V17.0996ZM245.999 53.8996H241.499L249.099 74.0996H253.399L260.899 53.8996H256.399L251.199 68.8996L245.999 53.8996ZM259.199 34.0996H263.099V13.7996H258.799V24.7996C258.799 26.7996 258.399 28.2996 257.699 29.2996C256.999 30.2996 255.799 30.7996 254.299 30.7996C252.699 30.7996 251.599 30.2996 250.799 29.3996C250.099 28.4996 249.699 26.9996 249.699 24.8996V13.8996H245.399V24.8996C245.399 28.1996 245.999 30.5996 247.199 32.1996C248.399 33.7996 250.399 34.4996 253.199 34.4996C254.499 34.4996 255.599 34.1996 256.599 33.6996C257.599 33.1996 258.299 32.5996 258.699 31.8996L259.199 34.0996ZM275.699 65.2996V66.2996C275.699 67.4996 275.199 68.5996 274.199 69.4996C273.199 70.3996 271.899 70.8996 270.199 70.8996C268.999 70.8996 268.099 70.5996 267.499 70.0996C266.899 69.5996 266.599 68.8996 266.599 68.0996C266.599 67.7996 266.699 67.4996 266.799 67.1996C266.899 66.8996 267.099 66.5996 267.399 66.2996C267.699 65.9996 268.099 65.6996 268.699 65.4996C269.299 65.2996 269.999 65.1996 270.899 65.1996H275.699V65.2996ZM271.399 53.4996C269.899 53.4996 268.599 53.6996 267.399 54.1996C266.199 54.6996 265.199 55.3996 264.399 56.3996C263.599 57.3996 263.099 58.5996 262.999 60.0996C263.499 60.1996 264.199 60.2996 265.199 60.4996C266.199 60.6996 266.899 60.7996 267.299 60.8996C267.299 59.6996 267.699 58.7996 268.399 58.1996C269.099 57.5996 270.099 57.2996 271.399 57.2996C272.099 57.2996 272.699 57.3996 273.299 57.4996C273.799 57.6996 274.299 57.8996 274.599 58.0996C274.899 58.2996 275.199 58.5996 275.399 58.9996C275.599 59.2996 275.699 59.6996 275.799 59.9996C275.899 60.2996 275.899 60.5996 275.899 60.9996V62.1996H270.699C268.199 62.1996 266.099 62.7996 264.699 63.9996C263.199 65.1996 262.499 66.5996 262.499 68.2996C262.499 70.1996 263.199 71.7996 264.499 72.9996C265.799 74.1996 267.699 74.7996 269.999 74.7996C271.499 74.7996 272.799 74.3996 273.899 73.7996C274.999 73.1996 275.799 72.4996 276.399 71.7996C276.599 72.6996 276.899 73.3996 277.499 73.8996C278.099 74.3996 278.899 74.6996 279.899 74.6996C280.799 74.6996 281.599 74.5996 282.499 74.3996V70.8996C282.199 70.9996 281.899 71.0996 281.499 71.0996C281.099 71.0996 280.799 70.8996 280.599 70.5996C280.399 70.2996 280.399 69.7996 280.399 69.1996V62.1996C280.399 59.3996 279.699 57.3996 278.199 55.9996C276.399 54.1996 274.199 53.4996 271.399 53.4996ZM281.999 34.0996H286.299V23.0996C286.299 19.7996 285.699 17.3996 284.399 15.7996C283.199 14.1996 281.099 13.4996 278.199 13.3996C276.999 13.3996 275.899 13.6996 274.899 14.1996C273.899 14.6996 273.199 15.2996 272.799 15.9996L272.399 13.7996H268.499V33.9996H272.799V22.9996C272.799 18.9996 274.299 16.9996 277.299 16.9996C278.899 16.9996 279.999 17.4996 280.799 18.3996C281.499 19.3996 281.899 20.8996 281.899 22.8996V34.0996H281.999ZM286.299 47.9996V53.8996H282.799V57.0996H286.299V68.2996C286.299 70.2996 286.699 71.7996 287.399 72.7996C288.199 73.7996 289.499 74.2996 291.299 74.2996H291.799L294.399 74.0996V70.5996C294.199 70.5996 293.799 70.5996 293.399 70.5996C292.999 70.5996 292.699 70.5996 292.499 70.5996C291.799 70.5996 291.299 70.3996 290.999 70.0996C290.699 69.7996 290.599 69.1996 290.599 68.4996V56.9996H294.799V53.7996H290.599V47.8996H286.299V47.9996ZM304.699 23.8996C304.699 26.0996 304.299 27.7996 303.399 28.9996C302.499 30.1996 301.299 30.7996 299.699 30.7996C298.099 30.7996 296.799 30.1996 295.899 28.9996C294.999 27.7996 294.499 26.0996 294.499 23.8996C294.499 21.6996 294.999 20.0996 295.899 18.8996C296.799 17.6996 298.099 17.0996 299.699 17.0996C301.299 17.0996 302.499 17.6996 303.399 18.8996C304.299 20.0996 304.699 21.7996 304.699 23.8996ZM306.399 39.9996C308.099 38.3996 308.999 36.1996 308.999 33.1996V13.7996H304.999L304.599 16.3996C304.199 15.5996 303.499 14.8996 302.399 14.2996C301.299 13.6996 300.199 13.3996 298.899 13.3996C296.299 13.3996 294.099 14.3996 292.499 16.2996C290.799 18.2996 289.999 20.7996 289.999 23.8996C289.999 26.9996 290.799 29.4996 292.499 31.4996C294.199 33.4996 296.299 34.3996 298.899 34.3996C300.099 34.3996 301.199 34.0996 302.299 33.5996C303.399 33.0996 304.199 32.3996 304.599 31.5996V33.0996C304.599 34.7996 304.199 36.0996 303.299 37.0996C302.399 38.0996 301.199 38.5996 299.599 38.5996C298.499 38.5996 297.499 38.2996 296.599 37.7996C295.699 37.2996 295.199 36.5996 294.999 35.7996L290.799 36.9996C291.199 38.6996 292.199 39.9996 293.799 40.8996C295.399 41.7996 297.299 42.2996 299.599 42.2996C302.399 42.3996 304.699 41.5996 306.399 39.9996ZM322.799 63.9996C322.799 66.1996 322.299 67.8996 321.399 69.0996C320.499 70.2996 319.199 70.8996 317.699 70.8996C316.099 70.8996 314.899 70.2996 313.999 69.0996C313.099 67.8996 312.599 66.1996 312.599 63.9996C312.599 61.7996 313.099 60.1996 313.999 58.9996C314.899 57.7996 316.199 57.1996 317.699 57.1996C319.299 57.1996 320.499 57.7996 321.399 58.9996C322.399 60.0996 322.799 61.7996 322.799 63.9996ZM324.599 71.5996C326.299 69.6996 327.099 67.0996 327.099 63.9996C327.099 60.8996 326.199 58.2996 324.499 56.3996C322.799 54.4996 320.499 53.4996 317.599 53.4996C314.699 53.4996 312.399 54.4996 310.699 56.3996C308.999 58.2996 308.199 60.8996 308.199 63.9996C308.199 67.1996 308.999 69.6996 310.699 71.5996C312.399 73.4996 314.699 74.4996 317.599 74.4996C320.599 74.4996 322.899 73.4996 324.599 71.5996ZM330.499 110C328.899 110 327.799 109.5 326.999 108.6C326.299 107.7 325.899 106.2 325.899 104.1V93.0996H321.599V104.1C321.599 107.4 322.199 109.8 323.399 111.4C324.599 113 326.599 113.7 329.399 113.7C330.699 113.7 331.799 113.4 332.799 112.9C333.799 112.4 334.499 111.8 334.899 111.1L335.299 113.3H339.199V93.0996H334.999V104.1C334.999 106.1 334.599 107.6 333.899 108.6C333.099 109.5 331.999 110 330.499 110ZM344.799 74.0996H349.099V63.0996C349.099 59.7996 348.499 57.3996 347.199 55.7996C345.999 54.1996 343.899 53.4996 340.999 53.3996C339.799 53.3996 338.699 53.6996 337.699 54.1996C336.699 54.6996 335.999 55.2996 335.599 55.9996L335.199 53.7996H331.299V73.9996H335.599V62.9996C335.599 58.9996 337.099 56.9996 340.099 56.9996C341.699 56.9996 342.799 57.4996 343.599 58.3996C344.299 59.3996 344.699 60.8996 344.699 62.8996V74.0996H344.799ZM344.799 113.3H349.099V85.0996H344.799V113.3ZM354.499 113.3H358.799V85.0996H354.499V113.3ZM363.199 50.7996H368.099V45.9996H363.199V50.7996ZM367.799 53.8996H363.499V74.0996H367.799V53.8996ZM376.599 101.2H367.399C367.499 99.8996 367.899 98.6996 368.699 97.7996C369.499 96.7996 370.599 96.3996 371.999 96.3996C373.399 96.3996 374.499 96.7996 375.299 97.6996C376.099 98.4996 376.499 99.6996 376.599 101.2ZM378.699 95.2996C377.099 93.4996 374.799 92.5996 371.999 92.5996C369.199 92.5996 366.899 93.5996 365.199 95.4996C363.499 97.3996 362.599 99.9996 362.599 103.1C362.599 106.2 363.499 108.7 365.299 110.7C367.099 112.6 369.399 113.6 372.099 113.6C373.399 113.6 374.599 113.4 375.699 113C376.799 112.6 377.699 112.1 378.399 111.5C379.099 110.9 379.699 110.2 380.199 109.5C380.699 108.8 380.999 108 381.299 107.3C378.999 106.6 377.599 106.2 377.299 106.2C376.799 107.5 376.099 108.5 375.199 109.1C374.299 109.7 373.199 110 372.099 110C370.699 110 369.499 109.5 368.499 108.4C367.599 107.3 367.099 106 366.999 104.5H380.899C380.999 104 380.999 103.4 380.999 102.6C381.199 99.4996 380.399 97.0996 378.699 95.2996ZM386.999 74.0996H391.299V63.0996C391.299 59.7996 390.699 57.3996 389.399 55.7996C388.199 54.1996 386.099 53.4996 383.199 53.3996C381.999 53.3996 380.899 53.6996 379.899 54.1996C378.899 54.6996 378.199 55.2996 377.799 55.9996L377.399 53.7996H373.499V73.9996H377.799V62.9996C377.799 58.9996 379.299 56.9996 382.299 56.9996C383.899 56.9996 384.999 57.4996 385.799 58.3996C386.499 59.3996 386.899 60.8996 386.899 62.8996V74.0996H386.999ZM398.999 113.3H403.299V102.3C403.299 98.9996 402.699 96.5996 401.399 95.0996C400.099 93.4996 398.099 92.6996 395.299 92.6996C394.099 92.6996 392.999 92.9996 392.099 93.4996C391.199 93.9996 390.399 94.5996 389.899 95.2996V85.1996H385.599V113.3H389.899V102.3C389.899 98.2996 391.399 96.3996 394.399 96.3996C395.999 96.3996 397.199 96.8996 397.899 97.7996C398.599 98.6996 398.999 100.2 398.999 102.3V113.3ZM418.799 63.9996C418.799 66.1996 418.399 67.8996 417.499 69.0996C416.599 70.2996 415.399 70.8996 413.799 70.8996C412.199 70.8996 410.899 70.2996 409.999 69.0996C409.099 67.8996 408.599 66.1996 408.599 64.0996C408.599 61.8996 409.099 60.2996 409.999 59.0996C410.899 57.8996 412.199 57.2996 413.799 57.2996C415.399 57.2996 416.599 57.8996 417.499 59.0996C418.399 60.0996 418.799 61.7996 418.799 63.9996ZM419.199 74.0996H423.199V45.8996H418.899V56.2996C418.399 55.5996 417.599 54.9996 416.499 54.3996C415.399 53.7996 414.299 53.4996 412.999 53.4996C410.299 53.4996 408.199 54.4996 406.599 56.3996C404.999 58.2996 404.199 60.8996 404.199 63.9996C404.199 67.0996 404.999 69.5996 406.699 71.5996C408.299 73.5996 410.399 74.4996 412.999 74.4996C414.299 74.4996 415.499 74.1996 416.599 73.5996C417.699 72.9996 418.399 72.2996 418.899 71.5996L419.199 74.0996ZM426.699 97.7996C427.499 96.7996 428.599 96.3996 429.999 96.3996C431.399 96.3996 432.499 96.7996 433.299 97.6996C434.099 98.5996 434.499 99.7996 434.499 101.3H425.299C425.499 99.8996 425.899 98.6996 426.699 97.7996ZM429.999 92.5996C427.199 92.5996 424.899 93.5996 423.199 95.4996C421.499 97.3996 420.699 99.9996 420.699 103.1C420.699 106.2 421.599 108.7 423.399 110.7C425.199 112.6 427.499 113.6 430.199 113.6C431.499 113.6 432.699 113.4 433.799 113C434.899 112.6 435.799 112.1 436.499 111.5C437.199 110.9 437.799 110.2 438.299 109.5C438.799 108.8 439.099 108 439.399 107.3C437.099 106.6 435.699 106.2 435.399 106.2C434.899 107.5 434.199 108.5 433.299 109.1C432.399 109.7 431.299 110 430.199 110C428.799 110 427.599 109.5 426.599 108.4C425.699 107.3 425.199 106 425.099 104.5H438.999C439.099 104 439.099 103.4 439.099 102.6C439.099 99.5996 438.299 97.0996 436.599 95.3996C435.099 93.4996 432.799 92.5996 429.999 92.5996ZM432.099 61.9996C432.199 60.6996 432.599 59.4996 433.399 58.5996C434.199 57.5996 435.299 57.1996 436.699 57.1996C438.099 57.1996 439.199 57.5996 439.999 58.4996C440.799 59.3996 441.199 60.5996 441.199 62.0996H432.099V61.9996ZM433.299 69.1996C432.399 68.0996 431.899 66.7996 431.799 65.2996H445.699C445.799 64.7996 445.799 64.1996 445.799 63.3996C445.799 60.3996 444.999 57.8996 443.299 56.1996C441.699 54.3996 439.399 53.4996 436.599 53.4996C433.799 53.4996 431.499 54.4996 429.799 56.3996C428.099 58.2996 427.199 60.8996 427.199 63.9996C427.199 67.0996 428.099 69.5996 429.899 71.5996C431.699 73.4996 433.999 74.4996 436.699 74.4996C437.999 74.4996 439.199 74.2996 440.299 73.8996C441.399 73.4996 442.299 72.9996 442.999 72.3996C443.699 71.7996 444.299 71.0996 444.799 70.3996C445.299 69.6996 445.599 68.8996 445.899 68.1996C443.599 67.4996 442.199 67.0996 441.899 67.0996C441.399 68.3996 440.699 69.3996 439.799 69.9996C438.899 70.5996 437.799 70.8996 436.699 70.8996C435.499 70.7996 434.299 70.2996 433.299 69.1996ZM461.599 57.2996V53.5996C460.999 53.4996 460.399 53.4996 459.699 53.4996C457.699 53.4996 456.199 54.3996 454.999 56.0996L454.599 53.8996H450.699V74.0996H454.999V63.1996C454.999 61.1996 455.399 59.6996 456.099 58.6996C456.799 57.6996 457.899 57.1996 459.399 57.1996H461.599V57.2996Z" fill="black"/>
</g>
</svg>
