<svg width="50" height="50" viewBox="0 0 50 50" fill="none" xmlns="http://www.w3.org/2000/svg">
<path fill-rule="evenodd" clip-rule="evenodd" d="M27.3119 1.31947C27.4991 2.1437 26.9826 2.9636 26.1584 3.15078C15.4422 5.58437 10.897 10.9573 9.30511 16.453C7.66896 22.1016 9.05318 28.2239 10.8858 32.142C11.2439 32.9076 10.9136 33.8186 10.1479 34.1767C9.38234 34.5348 8.4714 34.2044 8.11331 33.4388C6.08051 29.0927 4.45823 22.1849 6.36518 15.6014C8.31641 8.86506 13.8639 2.80407 25.4806 0.165992C26.3048 -0.0211846 27.1247 0.495246 27.3119 1.31947Z" fill="#4075FF"/>
<path d="M12.2582 6.79382C12.5141 9.71269 10.3554 12.2864 7.43649 12.5423C4.51762 12.7982 1.94394 10.6395 1.68801 7.72062C1.43208 4.80176 3.59082 2.22807 6.50969 1.97214C9.42855 1.71621 12.0022 3.87495 12.2582 6.79382Z" fill="#4075FF"/>
<path fill-rule="evenodd" clip-rule="evenodd" d="M22.5434 48.6812C22.3543 47.8574 22.8688 47.0363 23.6926 46.8472C34.4031 44.3885 38.9357 39.0049 40.5147 33.5055C42.1376 27.8531 40.739 21.734 38.8972 17.8203C38.5373 17.0555 38.8656 16.1438 39.6303 15.7839C40.3951 15.424 41.3068 15.7522 41.6667 16.517C43.7097 20.8583 45.3481 27.7623 43.4566 34.3502C41.5212 41.0911 35.9879 47.1651 24.3774 49.8304C23.5536 50.0195 22.7325 49.505 22.5434 48.6812Z" fill="#F2A774"/>
<path d="M38.0227 43.2496C37.7599 40.3314 39.9126 37.7526 42.8309 37.4899C45.7491 37.2271 48.3278 39.3798 48.5906 42.2981C48.8534 45.2163 46.7007 47.795 43.7824 48.0578C40.8642 48.3206 38.2854 46.1679 38.0227 43.2496Z" fill="#F2A774"/>
<path fill-rule="evenodd" clip-rule="evenodd" d="M48.6197 27.1C47.7947 27.2837 46.977 26.7637 46.7934 25.9387C44.406 15.212 39.0527 10.6437 33.5639 9.02817C27.9224 7.36768 21.7942 8.72549 17.8682 10.5412C17.1011 10.896 16.1916 10.5617 15.8368 9.79458C15.482 9.02744 15.8163 8.11793 16.5834 7.76314C20.9382 5.7491 27.853 4.15662 34.4282 6.09193C41.1561 8.07219 47.1931 13.6458 49.781 25.2737C49.9647 26.0988 49.4447 26.9164 48.6197 27.1Z" fill="#BE464F"/>
<path d="M42.8989 11.708C39.9789 11.9514 37.4146 9.78155 37.1712 6.86161C36.9279 3.94166 39.0977 1.37731 42.0177 1.13397C44.9376 0.890627 47.502 3.06044 47.7453 5.98039C47.9886 8.90033 45.8188 11.4647 42.8989 11.708Z" fill="#BE464F"/>
<path fill-rule="evenodd" clip-rule="evenodd" d="M1.3216 22.3583C2.14903 22.1858 2.95962 22.7167 3.13211 23.5442C5.37481 34.302 10.6661 38.942 16.1326 40.6313C21.7512 42.3676 27.8972 41.0924 31.8473 39.3298C32.6191 38.9853 33.524 39.3318 33.8685 40.1037C34.2129 40.8755 33.8664 41.7804 33.0946 42.1249C28.713 44.0801 21.7775 45.5793 15.2289 43.5556C8.52831 41.4849 2.5669 35.8306 0.135751 24.1688C-0.036743 23.3414 0.494181 22.5308 1.3216 22.3583Z" fill="#39C895"/>
<path d="M6.92678 38.2C9.84974 37.996 12.3846 40.2001 12.5886 43.1231C12.7926 46.046 10.5885 48.5809 7.66553 48.7849C4.74257 48.9889 2.20767 46.7848 2.00367 43.8618C1.79967 40.9389 4.00382 38.404 6.92678 38.2Z" fill="#39C895"/>
</svg>
