<svg width="50" height="46" viewBox="0 0 50 46" fill="none" xmlns="http://www.w3.org/2000/svg">
<path d="M0 19.3948C0 35.0482 2.70889 45.0237 16.4384 45.0237C30.1678 45.0237 50 49.114 50 33.4607C50 17.8074 46.7732 0 33.0438 0C19.3143 0 0 3.74154 0 19.3948Z" fill="black"/>
<path fill-rule="evenodd" clip-rule="evenodd" d="M26.4498 8.79052C26.5621 9.28505 26.2523 9.77698 25.7577 9.88928C19.3281 11.3494 16.601 14.5731 15.6459 17.8705C14.6642 21.2596 15.4948 24.9329 16.5943 27.2838C16.8092 27.7431 16.611 28.2897 16.1516 28.5045C15.6922 28.7194 15.1457 28.5212 14.9308 28.0618C13.7112 25.4542 12.7378 21.3096 13.882 17.3596C15.0527 13.3178 18.3811 9.68126 25.3511 8.09844C25.8456 7.98614 26.3375 8.29599 26.4498 8.79052Z" fill="#4075FF"/>
<path d="M17.4169 12.0759C17.5705 13.8272 16.2752 15.3713 14.5239 15.5249C12.7727 15.6785 11.2285 14.3832 11.0749 12.6319C10.9214 10.8806 12.2166 9.33646 13.9679 9.1829C15.7192 9.02934 17.2634 10.3246 17.4169 12.0759Z" fill="#4075FF"/>
<path fill-rule="evenodd" clip-rule="evenodd" d="M23.5884 37.2075C23.4749 36.7133 23.7836 36.2206 24.2779 36.1072C30.7041 34.632 33.4236 31.4019 34.371 28.1023C35.3447 24.7109 34.5056 21.0395 33.4005 18.6913C33.1846 18.2324 33.3815 17.6854 33.8404 17.4695C34.2992 17.2535 34.8462 17.4504 35.0622 17.9093C36.2879 20.514 37.271 24.6564 36.1361 28.6091C34.9749 32.6536 31.655 36.2979 24.6888 37.897C24.1945 38.0105 23.7018 37.7018 23.5884 37.2075Z" fill="#F2A774"/>
<path d="M32.8758 33.9494C32.7181 32.1985 34.0097 30.6513 35.7607 30.4936C37.5116 30.336 39.0588 31.6276 39.2165 33.3785C39.3741 35.1294 38.0825 36.6766 36.3316 36.8343C34.5807 36.992 33.0335 35.7004 32.8758 33.9494Z" fill="#F2A774"/>
<path fill-rule="evenodd" clip-rule="evenodd" d="M39.2343 24.2602C38.7393 24.3704 38.2487 24.0584 38.1385 23.5634C36.7061 17.1275 33.4942 14.3866 30.201 13.4172C26.8162 12.421 23.1393 13.2356 20.7837 14.325C20.3234 14.5379 19.7777 14.3374 19.5649 13.8771C19.352 13.4168 19.5526 12.8711 20.0128 12.6582C22.6257 11.4498 26.7745 10.4944 30.7195 11.6555C34.7562 12.8437 38.3784 16.1878 39.9311 23.1644C40.0413 23.6594 39.7293 24.15 39.2343 24.2602Z" fill="#BE464F"/>
<path d="M35.8019 15.0247C34.0499 15.1707 32.5113 13.8688 32.3653 12.1169C32.2193 10.365 33.5212 8.82638 35.2731 8.68038C37.0251 8.53437 38.5637 9.83624 38.7097 11.5882C38.8557 13.3401 37.5538 14.8787 35.8019 15.0247Z" fill="#BE464F"/>
<path fill-rule="evenodd" clip-rule="evenodd" d="M10.8551 21.4156C11.3515 21.3121 11.8379 21.6306 11.9414 22.1271C13.287 28.5817 16.4617 31.3656 19.7416 32.3792C23.1127 33.421 26.8002 32.6559 29.1702 31.5983C29.6333 31.3917 30.1762 31.5995 30.3829 32.0626C30.5895 32.5257 30.3817 33.0687 29.9186 33.2754C27.2897 34.4485 23.1284 35.348 19.1993 34.1338C15.179 32.8914 11.6022 29.4988 10.1436 22.5019C10.0401 22.0054 10.3586 21.5191 10.8551 21.4156Z" fill="#39C895"/>
<path d="M14.2185 30.9197C15.9723 30.7973 17.4932 32.1198 17.6156 33.8735C17.738 35.6273 16.4155 37.1482 14.6618 37.2706C12.908 37.393 11.3871 36.0705 11.2647 34.3167C11.1423 32.563 12.4648 31.0421 14.2185 30.9197Z" fill="#39C895"/>
</svg>
