<svg width="24" height="24" viewBox="0 0 24 24" fill="none" xmlns="http://www.w3.org/2000/svg">
<path d="M2.926 14.611C2.85 14.0917 2.88167 13.6293 3.021 13.224C3.16033 12.806 3.35033 12.4323 3.591 12.103C3.84433 11.761 4.104 11.4507 4.37 11.172C4.636 10.8807 4.85767 10.602 5.035 10.336C5.225 10.0573 5.32 9.77867 5.32 9.5C5.32 9.10733 5.19967 8.80967 4.959 8.607C4.731 8.40433 4.427 8.303 4.047 8.303C3.69233 8.303 3.37567 8.38533 3.097 8.55C2.831 8.71467 2.57133 8.92367 2.318 9.177L0.779 7.771C1.22233 7.25167 1.75433 6.83367 2.375 6.517C2.99567 6.20033 3.67333 6.042 4.408 6.042C5.092 6.042 5.7 6.156 6.232 6.384C6.77667 6.612 7.20733 6.96667 7.524 7.448C7.84067 7.92933 7.999 8.54367 7.999 9.291C7.999 9.75967 7.904 10.1777 7.714 10.545C7.524 10.8997 7.28967 11.229 7.011 11.533C6.73233 11.837 6.46 12.141 6.194 12.445C5.928 12.7363 5.71267 13.0593 5.548 13.414C5.38333 13.756 5.32633 14.155 5.377 14.611H2.926ZM4.142 19.228C3.66067 19.228 3.26167 19.0633 2.945 18.734C2.62833 18.392 2.47 17.974 2.47 17.48C2.47 16.9733 2.62833 16.5553 2.945 16.226C3.26167 15.884 3.66067 15.713 4.142 15.713C4.62333 15.713 5.02233 15.884 5.339 16.226C5.66833 16.5553 5.833 16.9733 5.833 17.48C5.833 17.974 5.66833 18.392 5.339 18.734C5.02233 19.0633 4.62333 19.228 4.142 19.228ZM10.9229 14.611L10.5239 8.797L10.4289 6.27H13.2409L13.1459 8.797L12.7469 14.611H10.9229ZM11.8349 19.228C11.3536 19.228 10.9483 19.0633 10.6189 18.734C10.3023 18.392 10.1439 17.974 10.1439 17.48C10.1439 16.9733 10.3023 16.5553 10.6189 16.226C10.9483 15.884 11.3536 15.713 11.8349 15.713C12.3163 15.713 12.7153 15.884 13.0319 16.226C13.3613 16.5553 13.5259 16.9733 13.5259 17.48C13.5259 17.974 13.3613 18.392 13.0319 18.734C12.7153 19.0633 12.3163 19.228 11.8349 19.228ZM17.798 14.611C17.722 14.0917 17.7536 13.6293 17.893 13.224C18.0323 12.806 18.2223 12.4323 18.463 12.103C18.7163 11.761 18.976 11.4507 19.242 11.172C19.508 10.8807 19.7296 10.602 19.907 10.336C20.097 10.0573 20.192 9.77867 20.192 9.5C20.192 9.10733 20.0716 8.80967 19.831 8.607C19.603 8.40433 19.299 8.303 18.919 8.303C18.5643 8.303 18.2476 8.38533 17.969 8.55C17.703 8.71467 17.4433 8.92367 17.19 9.177L15.651 7.771C16.0943 7.25167 16.6263 6.83367 17.247 6.517C17.8676 6.20033 18.5453 6.042 19.28 6.042C19.964 6.042 20.572 6.156 21.104 6.384C21.6486 6.612 22.0793 6.96667 22.396 7.448C22.7126 7.92933 22.871 8.54367 22.871 9.291C22.871 9.75967 22.776 10.1777 22.586 10.545C22.396 10.8997 22.1616 11.229 21.883 11.533C21.6043 11.837 21.332 12.141 21.066 12.445C20.8 12.7363 20.5846 13.0593 20.42 13.414C20.2553 13.756 20.1983 14.155 20.249 14.611H17.798ZM19.014 19.228C18.5326 19.228 18.1336 19.0633 17.817 18.734C17.5003 18.392 17.342 17.974 17.342 17.48C17.342 16.9733 17.5003 16.5553 17.817 16.226C18.1336 15.884 18.5326 15.713 19.014 15.713C19.4953 15.713 19.8943 15.884 20.211 16.226C20.5403 16.5553 20.705 16.9733 20.705 17.48C20.705 17.974 20.5403 18.392 20.211 18.734C19.8943 19.0633 19.4953 19.228 19.014 19.228Z" fill="black"/>
</svg>
