<svg width="24" height="24" viewBox="0 0 24 24" fill="none" xmlns="http://www.w3.org/2000/svg">
<g clip-path="url(#clip0_775_592)">
<path d="M8.78113 24C8.36967 24 8.03349 23.6688 8.02847 23.2549C8.01091 21.6041 7.55179 21.2228 7.4138 21.145C7.27832 21.0698 6.80916 21.0322 6.21456 20.987C5.79809 20.9544 5.48449 20.9519 5.23109 20.9494C4.67663 20.9443 4.24009 20.9418 3.78599 20.5655C3.04337 19.9534 3.01075 18.9273 3.01075 18.7291C3.01075 18.3026 3.13118 18.0116 3.20895 17.821C3.27167 17.6654 3.27669 17.6454 3.26666 17.5751C3.26164 17.54 3.23488 17.4923 3.18637 17.4321C3.06344 17.2816 2.87778 17.0558 2.77994 16.6494C2.63442 16.0523 2.79248 15.5706 2.93549 15.2269C2.64446 15.1793 2.26562 15.0714 1.94951 14.7202C1.5506 14.2811 1.28215 13.5686 1.63088 13.0443L3.5326 10.1919C3.57776 9.6826 3.60284 9.21597 3.62793 8.7644C3.71323 7.13371 3.7885 5.72631 4.88487 4.02287C5.51961 3.03443 6.74895 1.66214 8.99187 0.723873C12.3186 -0.665971 16.4607 -0.0162065 19.2983 2.34452C21.1824 3.90998 22.2838 5.75892 22.5723 7.83616C22.8759 10.0112 22.1885 11.8677 21.7544 12.7809C21.3505 13.6238 21.1072 13.9675 20.7032 14.537C20.51 14.808 20.2692 15.1466 19.9455 15.6333C19.1728 16.7924 18.8241 17.7482 18.8166 18.7341C18.8065 20.2419 19.1327 20.9393 19.509 21.7497C19.6871 22.1285 19.8678 22.5198 20.0308 23.0065C20.1086 23.2348 20.0685 23.4882 19.928 23.6839C19.7875 23.8796 19.5592 23.9975 19.3183 23.9975H10.7882C10.3717 23.9975 10.0356 23.6613 10.0356 23.2449C10.0356 22.8284 10.3717 22.4922 10.7882 22.4922H18.1944C18.1793 22.4571 18.1617 22.422 18.1442 22.3869C17.7277 21.4938 17.2962 20.5705 17.3087 18.7241C17.3188 17.4447 17.7578 16.1978 18.6886 14.8004C19.0248 14.2962 19.2732 13.9475 19.4714 13.6665C19.8653 13.1121 20.0459 12.8587 20.3921 12.1336C20.7559 11.3735 21.3279 9.83061 21.0796 8.0469C20.8437 6.35099 19.9205 4.82316 18.3324 3.50356C15.9138 1.49155 12.3939 0.934607 9.57142 2.11372C8.05607 2.74592 6.90701 3.66161 6.15184 4.83821C5.27123 6.20548 5.21604 7.25664 5.13074 8.84468C5.10314 9.34392 5.07554 9.90839 5.01282 10.5255C5.00028 10.6485 4.95763 10.7664 4.88989 10.8692L3.02831 13.6615C3.03835 13.6765 3.05089 13.6941 3.06595 13.7091C3.08602 13.7317 3.23153 13.7493 3.31934 13.7593C3.60284 13.7919 4.07953 13.8446 4.38561 14.2937C4.74437 14.823 4.51356 15.3624 4.37557 15.6835C4.26518 15.9444 4.19744 16.1125 4.2426 16.2956C4.26016 16.3659 4.27271 16.3835 4.35048 16.4788C4.48094 16.6368 4.69671 16.9003 4.75943 17.3794C4.82215 17.8511 4.68918 18.1747 4.60137 18.3904C4.54367 18.5309 4.51607 18.6012 4.51356 18.7367C4.51356 18.8872 4.56875 19.266 4.74187 19.4065C4.7795 19.4366 4.8924 19.4416 5.24113 19.4441C5.50205 19.4441 5.86082 19.4491 6.32997 19.4868C7.25574 19.5595 7.71988 19.5946 8.14137 19.8305C9.04456 20.3322 9.51371 21.4787 9.53379 23.2399C9.5388 23.6563 9.20512 23.995 8.78865 24H8.78113V24Z" fill="black"/>
<path d="M8.22392 14.4768C8.0759 14.4768 7.92537 14.4568 7.76982 14.4166C7.03974 14.226 6.41002 13.5612 5.99606 12.5451C5.46418 11.2406 5.22835 9.08054 6.31217 7.27926C7.0272 6.09011 7.74975 5.51561 8.37697 5.26223C8.18378 4.91351 8.13611 4.56982 8.23898 4.20103C8.50993 3.24018 9.80701 2.79363 10.5572 2.613C12.7323 2.09118 15.738 2.43738 17.5443 4.3942C18.2694 5.17693 18.7937 6.21053 19.0622 7.31689C19.5213 7.68568 19.8525 8.10213 20.0281 8.50603C20.2539 9.02785 20.2138 9.53964 19.9152 9.91344C19.7371 10.1367 19.4636 10.2772 19.1199 10.3525C18.8941 11.361 18.4099 12.1989 17.7174 12.7634C16.4078 13.8321 14.328 13.9174 12.1553 12.9892C11.7715 12.8261 11.365 12.6179 10.9761 12.3745C10.088 13.5687 9.2375 14.4718 8.22392 14.4718V14.4768ZM9.24503 6.59437C8.76584 6.59437 8.15117 7.13877 7.59922 8.05446C6.85409 9.29378 6.95695 10.9169 7.38848 11.9756C7.63434 12.5802 7.95548 12.9089 8.14866 12.9591C8.50492 13.0519 9.16475 12.2817 9.78193 11.4538C9.19485 10.8793 8.77337 10.2095 8.71315 9.48194C8.60778 8.1799 9.10955 7.37208 9.41061 6.8904C9.45076 6.82518 9.50093 6.7449 9.53857 6.67967C9.47835 6.63953 9.38302 6.59437 9.25005 6.59186H9.24503V6.59437ZM11.8492 11.1503C12.1202 11.3133 12.4187 11.4689 12.7449 11.6068C14.0169 12.1487 15.7405 12.4322 16.7666 11.5968C17.1228 11.3058 17.3938 10.8818 17.5619 10.3575C16.2523 10.1769 14.6817 9.63497 13.4574 9.06298C12.8979 9.68013 12.361 10.4277 11.8517 11.1503H11.8492ZM10.8331 7.44985C10.7855 7.53264 10.7353 7.61292 10.6901 7.68818C10.4242 8.11467 10.1482 8.55621 10.2134 9.36152C10.2335 9.59483 10.3916 9.89337 10.6726 10.207C11.1242 9.56723 11.5958 8.91245 12.1001 8.3229C12.0825 8.31035 12.065 8.30032 12.0499 8.28777C11.6084 7.98672 11.2019 7.70825 10.8331 7.44985V7.44985ZM14.7118 7.98422C15.7856 8.42074 16.9322 8.73182 17.7551 8.86478C17.7501 8.64652 17.73 8.42826 17.6999 8.21C17.2483 7.94658 16.6487 7.7208 15.9261 7.6631C15.5147 7.63299 15.1057 7.75341 14.7118 7.98422V7.98422ZM9.72171 4.58487C9.98263 5.054 11.5281 6.10768 12.8979 7.04595C12.9882 7.10866 13.0836 7.16887 13.1814 7.22908C14.0219 6.52162 14.9577 6.07757 16.044 6.16538C16.4103 6.19548 16.7566 6.25569 17.0852 6.3435C16.8996 6.00231 16.6813 5.68872 16.4354 5.42028C14.905 3.76451 12.4739 3.86737 11.7614 3.93761C10.6475 4.048 9.92744 4.38919 9.7192 4.58738L9.72171 4.58487Z" fill="black"/>
</g>
<defs>
<clipPath id="clip0_775_592">
<rect width="24" height="24" fill="white"/>
</clipPath>
</defs>
</svg>
