<svg width="24" height="24" viewBox="0 0 24 24" fill="none" xmlns="http://www.w3.org/2000/svg">
<path d="M4.58333 9C3.1625 9 2 10.1625 2 11.5833C2 13.0042 3.1625 14.1667 4.58333 14.1667C6.00417 14.1667 7.16667 13.0042 7.16667 11.5833C7.16667 10.1625 6.00417 9 4.58333 9ZM20.0833 9C18.6625 9 17.5 10.1625 17.5 11.5833C17.5 13.0042 18.6625 14.1667 20.0833 14.1667C21.5042 14.1667 22.6667 13.0042 22.6667 11.5833C22.6667 10.1625 21.5042 9 20.0833 9ZM12.3333 9C10.9125 9 9.75 10.1625 9.75 11.5833C9.75 13.0042 10.9125 14.1667 12.3333 14.1667C13.7542 14.1667 14.9167 13.0042 14.9167 11.5833C14.9167 10.1625 13.7542 9 12.3333 9Z" fill="black"/>
</svg>
