<svg width="24" height="24" viewBox="0 0 24 24" fill="none" xmlns="http://www.w3.org/2000/svg">
<path d="M15.5798 23.9975C15.9976 23.9975 16.3389 23.6664 16.344 23.2525C16.3618 21.6019 16.8279 21.2206 16.968 21.1428C17.1055 21.0676 17.5818 21.03 18.1829 20.9848C18.6083 20.9522 18.9266 20.9497 19.1814 20.9472C19.7442 20.9422 20.1874 20.9397 20.6485 20.5634C21.4024 19.9513 21.4355 18.9253 21.4355 18.7272C21.4355 18.3007 21.3132 18.0097 21.2343 17.8191C21.1706 17.6636 21.1655 17.6435 21.1757 17.5733C21.1808 17.5382 21.208 17.4905 21.2572 17.4303C21.382 17.2798 21.5705 17.054 21.6698 16.6476C21.8176 16.0506 21.6571 15.569 21.5119 15.2253C21.8074 15.1777 22.192 15.0698 22.5129 14.7186C22.9179 14.2796 23.1904 13.5672 22.8364 13.043L20.9057 10.1908C20.8573 9.68159 20.8344 9.21501 20.809 8.76348C20.7224 7.13297 20.6459 5.72571 19.5329 4.02245C18.8885 3.03662 17.6404 1.66197 15.3633 0.723797C11.9859 -0.665902 7.78328 -0.0162036 4.90002 2.34428C2.98718 3.91208 1.86908 5.75832 1.57616 7.83535C1.26797 10.0102 1.96587 11.8665 2.40651 12.7796C2.81658 13.6224 3.06363 13.9661 3.47371 14.5355C3.66983 14.8064 3.91435 15.1451 4.24292 15.6317C5.02741 16.7906 5.38145 17.7464 5.38909 18.7322C5.39928 20.2398 5.06816 20.9371 4.6861 21.7474C4.50526 22.1262 4.32186 22.5175 4.1563 23.0041C4.07734 23.2324 4.11807 23.4858 4.2607 23.6814C4.40334 23.8771 4.63517 23.995 4.87968 23.995H13.5397C13.9625 23.995 14.3038 23.6588 14.3038 23.2424C14.3038 22.826 13.9625 22.4899 13.5397 22.4899H6.02076C6.03604 22.4548 6.05386 22.4197 6.07169 22.3845C6.4945 21.4915 6.93261 20.5684 6.91987 18.7222C6.90968 17.4453 6.46395 16.1961 5.51899 14.7989C5.17769 14.2947 4.9255 13.946 4.72429 13.6651C4.3244 13.1107 4.14103 12.8573 3.78954 12.1324C3.42021 11.3723 2.83949 9.82959 3.09165 8.04606C3.33107 6.35283 4.26837 4.82266 5.88066 3.5032C8.33601 1.49139 11.9121 0.934508 14.7775 2.11349C16.3159 2.74563 17.4825 3.66123 18.2492 4.83771C19.1432 6.20483 19.1992 7.25588 19.2858 8.84375C19.3138 9.34294 19.3418 9.90735 19.4055 10.5244C19.4183 10.6474 19.4616 10.7653 19.5303 10.8681L21.4202 13.66C21.41 13.6751 21.3973 13.6926 21.382 13.7077C21.3617 13.7303 21.2114 13.7478 21.1248 13.7579C20.837 13.7905 20.353 13.8432 20.0448 14.2922C19.6806 14.8215 19.9149 15.3608 20.055 15.6819C20.167 15.9428 20.2358 16.1108 20.19 16.2939C20.1721 16.3642 20.1594 16.3817 20.0805 16.4771C19.948 16.6351 19.729 16.8985 19.6653 17.3776C19.6017 17.8492 19.7366 18.1728 19.8258 18.3885C19.8843 18.529 19.9124 18.5992 19.9149 18.7347C19.9149 18.8852 19.8589 19.264 19.6831 19.4045C19.6449 19.4346 19.5303 19.4396 19.1763 19.4446C18.9114 19.4446 18.5472 19.4496 18.0709 19.4872C17.131 19.56 16.6597 19.5976 16.2318 19.8309C15.3149 20.3326 14.8387 21.479 14.8183 23.2399C14.8132 23.6563 15.1519 23.995 15.5747 24H15.5824L15.5798 23.9975Z" fill="black"/>
<path d="M14.6883 7.1907C15.7428 7.1907 16.5986 6.34785 16.5986 5.30934C16.5986 4.27083 15.7428 3.42798 14.6883 3.42798C13.6339 3.42798 12.7781 4.27083 12.7781 5.30934C12.7781 6.34785 13.6339 7.1907 14.6883 7.1907ZM14.6883 4.93307C14.8997 4.93307 15.0704 5.10114 15.0704 5.30934C15.0704 5.51754 14.8997 5.68561 14.6883 5.68561C14.4769 5.68561 14.3063 5.51754 14.3063 5.30934C14.3063 5.10114 14.4769 4.93307 14.6883 4.93307Z" fill="black"/>
<path d="M8.13808 6.99005C8.23742 6.99005 8.33673 6.96999 8.43352 6.92985L11.0901 5.82863C11.4798 5.66808 11.6632 5.22659 11.4976 4.84279C11.3346 4.45899 10.8863 4.28089 10.4966 4.44144L7.84003 5.54266C7.45034 5.7032 7.26699 6.14469 7.43254 6.52849C7.5548 6.81697 7.84008 6.99005 8.13808 6.99005Z" fill="black"/>
<path d="M10.0232 7.74757C10.1225 7.74757 10.2218 7.7275 10.3186 7.68736C10.7083 7.52682 10.8917 7.08533 10.7261 6.70153L9.60795 4.08518C9.44494 3.70138 8.99668 3.52078 8.60698 3.68383C8.21728 3.84437 8.03393 4.28586 8.19949 4.66966L9.31762 7.28601C9.43987 7.57448 9.72515 7.74757 10.0232 7.74757Z" fill="black"/>
<path d="M13.3437 12.6566C13.6519 12.6566 13.9423 12.471 14.0569 12.1725L14.6402 10.6674L16.176 11.2444C16.3645 11.3146 16.5759 11.3096 16.7619 11.2293C16.9478 11.1465 17.0905 10.996 17.1643 10.8104L18.0201 8.60292C18.1704 8.21411 17.9717 7.78014 17.5795 7.63214C17.1847 7.48163 16.7441 7.6798 16.5938 8.06611L16.0105 9.5712L14.4746 8.99425C14.2861 8.92401 14.0747 8.92903 13.8888 9.0093C13.7029 9.09208 13.5603 9.24258 13.4864 9.42821L12.6306 11.6357C12.4803 12.0245 12.679 12.4585 13.0712 12.6065C13.1603 12.6391 13.2521 12.6566 13.3437 12.6566V12.6566Z" fill="black"/>
<path d="M7.42912 9.94993C7.64052 9.94993 7.85448 9.86213 8.00475 9.69406C8.28238 9.3805 8.24926 8.9064 7.93343 8.63298L5.89579 6.87704C5.5774 6.60361 5.09602 6.63622 4.81839 6.94728C4.54076 7.25833 4.57388 7.73494 4.88971 8.00836L6.92735 9.7643C7.07254 9.88972 7.25082 9.94993 7.42912 9.94993Z" fill="black"/>
<path d="M9.82793 15.2579C9.94 15.2579 10.0521 15.2329 10.1565 15.1852C10.4138 15.0648 10.5793 14.8139 10.592 14.5355L10.7398 10.6448C10.75 10.3463 10.5818 10.0704 10.3118 9.93996C10.0393 9.80952 9.71584 9.84965 9.48405 10.0428L6.937 12.165C6.75871 12.313 6.65942 12.5337 6.66706 12.762C6.6747 12.9903 6.78676 13.2035 6.9727 13.3415L9.372 15.1099C9.50699 15.2103 9.66747 15.2604 9.83048 15.2604L9.82793 15.2579ZM9.14789 12.2904L9.11984 13.043L8.65626 12.7018L9.14789 12.2929V12.2904Z" fill="black"/>
</svg>
