<svg width="22" height="25" viewBox="0 0 22 25" fill="none" xmlns="http://www.w3.org/2000/svg">
<path d="M7.48244 24.7983C7.07171 24.7983 6.73612 24.4672 6.73111 24.0533C6.71358 22.4027 6.25529 22.0214 6.11755 21.9436C5.98231 21.8684 5.51398 21.8307 4.92294 21.7856C4.50471 21.753 4.19168 21.7505 3.94124 21.748C3.38776 21.7429 2.95199 21.7404 2.4987 21.3642C1.75739 20.7521 1.72481 19.7261 1.72481 19.528C1.72481 19.1015 1.84503 18.8105 1.92267 18.6199C1.98528 18.4644 1.99028 18.4443 1.98027 18.374C1.97526 18.3389 1.94853 18.2913 1.90011 18.2311C1.77739 18.0806 1.5921 17.8548 1.49443 17.4484C1.34917 16.8514 1.50692 16.3698 1.64967 16.0261C1.35916 15.9785 0.98101 15.8706 0.665455 15.5194C0.267254 15.0804 -0.000721849 14.368 0.34739 13.8437L2.24575 10.9916C2.29333 10.4824 2.31584 10.0158 2.34089 9.56426C2.42604 7.93375 2.50117 6.52649 3.5956 4.82323C4.22921 3.8374 5.4564 2.46275 7.69534 1.52458C11.0162 0.13488 15.1485 0.784576 17.9834 3.14506C19.8643 4.71286 20.9636 6.5591 21.2516 8.63612C21.5547 10.811 20.8685 12.6673 20.4352 13.5803C20.032 14.4232 19.7891 14.7669 19.3859 15.3363C19.193 15.6072 18.9526 15.9458 18.6295 16.4325C17.8582 17.5914 17.5101 18.5471 17.5026 19.533C17.4925 21.0406 17.8181 21.7379 18.1938 22.5482C18.3716 22.9269 18.5519 23.3183 18.7147 23.8049C18.7924 24.0332 18.7523 24.2865 18.6121 24.4822C18.4718 24.6779 18.2439 24.7958 18.0034 24.7958H9.48847C9.07274 24.7958 8.73715 24.4596 8.73715 24.0432C8.73715 23.6268 9.07274 23.2907 9.48847 23.2907H16.8815C16.8664 23.2556 16.8489 23.2204 16.8314 23.1853C16.4157 22.2923 15.9849 21.3692 15.9974 19.5229C16.0074 18.2461 16.4457 16.9969 17.3748 15.5997C17.7104 15.0955 17.9584 14.7468 18.1562 14.4658C18.5494 13.9115 18.7297 13.6581 19.0753 12.9332C19.4385 12.1731 20.0095 10.6304 19.7615 8.84684C19.5261 7.15361 18.6045 5.62344 17.0192 4.30398C14.605 2.29217 11.0888 1.73529 8.27136 2.91428C6.7587 3.54641 5.61165 4.46201 4.85783 5.63849C3.97878 7.00561 3.92373 8.05666 3.83858 9.64453C3.81103 10.1437 3.78343 10.7081 3.72082 11.3252C3.70829 11.4481 3.66572 11.566 3.5981 11.6689L1.73985 14.4608C1.74987 14.4759 1.76237 14.4934 1.7774 14.5085C1.79743 14.5311 1.94519 14.5486 2.03034 14.5586C2.31334 14.5913 2.78917 14.6439 3.09221 15.093C3.45034 15.6222 3.21998 16.1616 3.08224 16.4827C2.97205 16.7435 2.90442 16.9116 2.9495 17.0947C2.96703 17.165 2.97954 17.1825 3.05717 17.2778C3.1874 17.4359 3.40275 17.6993 3.46536 18.1784C3.52797 18.65 3.39527 18.9736 3.30761 19.1893C3.25001 19.3298 3.22244 19.4 3.21993 19.5355C3.21993 19.686 3.27507 20.0648 3.44787 20.2052C3.48544 20.2353 3.59814 20.2404 3.94625 20.2454C4.20671 20.2454 4.5648 20.2504 5.03312 20.288C5.95725 20.3608 6.42062 20.3984 6.84136 20.6317C7.74294 21.1334 8.21122 22.2798 8.23125 24.0407C8.23626 24.4571 7.90318 24.7958 7.48745 24.8008H7.47993L7.48244 24.7983Z" fill="black"/>
<path d="M14.0315 10.9545C13.4054 10.9545 12.8094 10.7162 12.3511 10.2822L11.5621 9.58232L10.7557 10.2972C10.315 10.7136 9.71894 10.9545 9.09284 10.9545C7.73295 10.9545 6.62598 9.82816 6.62598 8.44598C6.62598 7.06381 7.73295 5.9375 9.09284 5.9375C9.74398 5.9375 10.3575 6.19336 10.8209 6.65743L11.5621 7.31215L12.3034 6.65743C12.7668 6.19336 13.3804 5.9375 14.034 5.9375C15.3939 5.9375 16.5008 7.06381 16.5008 8.44598C16.5008 9.82816 15.3939 10.9545 14.034 10.9545H14.0315ZM12.5464 8.44598L13.3628 9.17093C13.5581 9.35656 13.7911 9.44937 14.0315 9.44937C14.5625 9.44937 14.9957 9.00036 14.9957 8.44598C14.9957 7.89161 14.5625 7.44259 14.0315 7.44259C13.7761 7.44259 13.5357 7.54544 13.3553 7.73106C13.3428 7.74361 13.3303 7.75615 13.3152 7.76869L12.5464 8.44598V8.44598ZM9.09033 7.44259C8.5594 7.44259 8.12611 7.89161 8.12611 8.44598C8.12611 9.00036 8.5594 9.44937 9.09033 9.44937C9.33076 9.44937 9.56112 9.35656 9.73893 9.18849L10.5729 8.44849L9.80405 7.76869C9.79153 7.75615 9.77652 7.74361 9.764 7.73106C9.58369 7.54544 9.34327 7.44259 9.08783 7.44259H9.09033Z" fill="black"/>
</svg>
