<svg width="24" height="24" viewBox="0 0 24 24" fill="none" xmlns="http://www.w3.org/2000/svg">
<path fill-rule="evenodd" clip-rule="evenodd" d="M17.9242 20C17.9449 19.7887 17.9555 19.5742 17.9555 19.3571C17.9555 15.9211 15.2892 13.1357 12 13.1357C8.71085 13.1357 6.04445 15.9211 6.04445 19.3571C6.04445 19.5742 6.05509 19.7887 6.07586 20H4.02331C4.00787 19.7879 4 19.5735 4 19.3571C4 14.7415 7.58174 11 12 11C16.4183 11 20 14.7415 20 19.3571C20 19.5735 19.9922 19.7879 19.9767 20H17.9242Z" fill="black"/>
<path d="M12 12C14.2091 12 16 10.2091 16 8C16 5.79086 14.2091 4 12 4C9.79086 4 8 5.79086 8 8C8 10.2091 9.79086 12 12 12Z" stroke="black" stroke-width="2.30001"/>
</svg>
