<svg width="24" height="24" viewBox="0 0 24 24" fill="none" xmlns="http://www.w3.org/2000/svg">
<path fill-rule="evenodd" clip-rule="evenodd" d="M22.3747 18.7695C22.391 18.6112 22.3993 18.4505 22.3993 18.288C22.3993 15.7138 20.3125 13.6271 17.7384 13.6271C15.1643 13.6271 13.0775 15.7138 13.0775 18.288C13.0775 18.4505 13.0859 18.6112 13.1021 18.7695H11.4958C11.4837 18.6105 11.4775 18.45 11.4775 18.288C11.4775 14.8302 14.2806 12.0271 17.7384 12.0271C21.1962 12.0271 23.9993 14.8302 23.9993 18.288C23.9993 18.45 23.9931 18.6105 23.981 18.7695H22.3747Z" fill="black"/>
<path fill-rule="evenodd" clip-rule="evenodd" d="M10.8972 18.7693C10.9134 18.611 10.9217 18.4503 10.9217 18.2877C10.9217 15.7136 8.835 13.6269 6.26087 13.6269C3.68674 13.6269 1.6 15.7136 1.6 18.2877C1.6 18.4503 1.60833 18.611 1.62458 18.7693H0.0182446C0.00615521 18.6104 0 18.4498 0 18.2877C0 14.8299 2.80309 12.0269 6.26087 12.0269C9.71865 12.0269 12.5217 14.8299 12.5217 18.2877C12.5217 18.4498 12.5156 18.6104 12.5035 18.7693H10.8972Z" fill="black"/>
<circle cx="6.2002" cy="8.90137" r="3.7" stroke="black" stroke-width="1.6"/>
<circle cx="17.7998" cy="8.90137" r="3.7" stroke="black" stroke-width="1.6"/>
</svg>
