<svg width="24" height="24" viewBox="0 0 24 24" fill="none" xmlns="http://www.w3.org/2000/svg">
<path fill-rule="evenodd" clip-rule="evenodd" d="M12 0C5.37259 0 0 5.37259 0 12C0 18.6274 5.37259 24 12 24C18.6274 24 24 18.6274 24 12C24 5.37259 18.6274 0 12 0ZM5.48375 6.63458C5.32217 6.86938 5.23595 7.14545 5.23595 7.42786C5.23595 7.80655 5.39087 8.16971 5.66663 8.4375C5.94238 8.70526 6.31641 8.85571 6.70639 8.85571C6.99722 8.85571 7.28151 8.77197 7.52333 8.61505C7.76514 8.45816 7.95361 8.23517 8.06491 7.97427C8.17619 7.71335 8.20532 7.42627 8.14859 7.14929C8.09184 6.87231 7.9518 6.61789 7.74615 6.41821C7.54051 6.21851 7.2785 6.08252 6.99326 6.02744C6.70802 5.97235 6.41237 6.00061 6.14368 6.1087C5.87498 6.21677 5.64532 6.39978 5.48375 6.63458ZM16.071 6.63458C15.9094 6.86938 15.8232 7.14545 15.8232 7.42786C15.8232 7.80655 15.9781 8.16971 16.2538 8.4375C16.5296 8.70526 16.9036 8.85571 17.2936 8.85571C17.5844 8.85571 17.8687 8.77197 18.1105 8.61505C18.3524 8.45816 18.5408 8.23517 18.6521 7.97427C18.7634 7.71335 18.7925 7.42627 18.7358 7.14929C18.6791 6.87231 18.539 6.61789 18.3334 6.41821C18.1277 6.21851 17.8657 6.08252 17.5805 6.02744C17.2952 5.97235 16.9996 6.00061 16.7309 6.1087C16.4622 6.21677 16.2326 6.39978 16.071 6.63458ZM18.9925 17.0256C18.9773 16.914 18.9397 16.8064 18.8817 16.7089C18.1825 15.5381 17.1787 14.5662 15.9709 13.8906C14.7632 13.215 13.3938 12.8594 12 12.8594C10.6062 12.8594 9.2368 13.215 8.02905 13.8906C6.82129 14.5662 5.81754 15.5381 5.1183 16.7089C5.0603 16.8064 5.02267 16.914 5.00754 17.0256C4.99242 17.1372 5.00009 17.2507 5.03014 17.3594C5.06018 17.4681 5.112 17.5701 5.18263 17.6594C5.25328 17.7486 5.34134 17.8235 5.4418 17.8797C5.54167 17.938 5.65262 17.9761 5.76799 17.9918C5.88338 18.0075 6.00084 18.0005 6.11337 17.9712C6.22589 17.9419 6.33119 17.8909 6.42297 17.8212C6.51476 17.7515 6.59114 17.6646 6.64757 17.5656C7.18909 16.6521 7.96896 15.8934 8.90863 15.3658C9.8483 14.8382 10.9146 14.5604 12 14.5604C13.0854 14.5604 14.1517 14.8382 15.0914 15.3658C16.031 15.8934 16.8109 16.6521 17.3524 17.5656C17.4299 17.6959 17.5414 17.8041 17.6756 17.8793C17.8098 17.9545 17.9621 17.994 18.1171 17.994C18.2713 17.9899 18.4224 17.9508 18.5582 17.8797C18.6587 17.8235 18.7467 17.7486 18.8174 17.6594C18.888 17.5701 18.9398 17.4681 18.9699 17.3594C18.9999 17.2507 19.0076 17.1372 18.9925 17.0256Z" fill="#B5EAD7"/>
</svg>
