<svg width="24" height="24" viewBox="0 0 24 24" fill="none" xmlns="http://www.w3.org/2000/svg">
<path fill-rule="evenodd" clip-rule="evenodd" d="M12 24C18.6274 24 24 18.6274 24 12C24 5.37258 18.6274 0 12 0C5.37258 0 0 5.37258 0 12C0 18.6274 5.37258 24 12 24ZM9.436 8.968C9.436 10.0549 8.55489 10.936 7.468 10.936C6.3811 10.936 5.5 10.0549 5.5 8.968C5.5 7.8811 6.3811 7 7.468 7C8.55489 7 9.436 7.8811 9.436 8.968ZM18.46 8.968C18.46 10.0549 17.5789 10.936 16.492 10.936C15.4051 10.936 14.524 10.0549 14.524 8.968C14.524 7.8811 15.4051 7 16.492 7C17.5789 7 18.46 7.8811 18.46 8.968ZM18 17.5C15.6165 13.2593 8.88352 13.2593 6.5 17.5C6.40665 17.6661 6.56594 17.9573 6.79189 18.1874C7.1716 18.5742 7.68672 18.2969 8.05348 17.8978C10.5 15.5 14 15.5 16.3199 17.8978L16.5335 18.087C16.8437 18.3616 17.2414 18.5783 17.564 18.3183C17.8591 18.0806 18.1123 17.6998 18 17.5Z" fill="black"/>
</svg>
