<svg width="24" height="24" viewBox="0 0 24 24" fill="none" xmlns="http://www.w3.org/2000/svg">
<path d="M21.4729 19.976L16.3101 14.7776C17.3782 13.4326 18.0187 11.7351 18.0187 9.89058C18.0187 8.82668 17.8081 7.79306 17.3956 6.81782C17.1394 6.21235 16.4382 5.92907 15.8303 6.1864C15.2224 6.44156 14.938 7.14002 15.1963 7.74549C15.4851 8.42448 15.6305 9.14672 15.6305 9.89058C15.6305 12.9309 13.1468 15.4047 10.0943 15.4047C7.04179 15.4047 4.55809 12.9309 4.55809 9.89058C4.55809 6.85025 7.04179 4.37864 10.0943 4.37864C11.0887 4.37864 12.0635 4.64461 12.9145 5.14629C13.4812 5.48146 14.215 5.29549 14.5515 4.73111C14.888 4.16672 14.7013 3.43583 14.1347 3.10066C12.9145 2.38058 11.5185 2 10.0943 2C5.72396 2 2.16992 5.53984 2.16992 9.89275C2.16992 14.2456 5.72396 17.7855 10.0943 17.7855C11.753 17.7855 13.2923 17.2752 14.5667 16.4037L19.7751 21.6475C20.0096 21.8832 20.3157 22 20.624 22C20.9323 22 21.2319 21.8854 21.4642 21.6562C21.9331 21.1934 21.9375 20.4409 21.4729 19.9738V19.976Z" fill="black"/>
</svg>
