<svg width="20" height="20" viewBox="0 0 20 20" fill="none" xmlns="http://www.w3.org/2000/svg">
<path d="M16.8748 10.4751V9.51888L18.0748 8.46888C18.296 8.27391 18.4412 8.00702 18.4846 7.71538C18.5281 7.42374 18.467 7.12612 18.3123 6.87513L16.8373 4.37513C16.7277 4.1853 16.5701 4.02762 16.3803 3.91792C16.1905 3.80822 15.9752 3.75036 15.756 3.75013C15.6202 3.74909 15.4851 3.7702 15.356 3.81263L13.8373 4.32513C13.5751 4.15089 13.3016 3.99429 13.0185 3.85638L12.6998 2.28138C12.6426 1.99364 12.4861 1.73516 12.2576 1.5512C12.0291 1.36723 11.7431 1.26951 11.4498 1.27513H8.52479C8.23148 1.26951 7.94553 1.36723 7.71701 1.5512C7.48848 1.73516 7.33195 1.99364 7.27479 2.28138L6.95604 3.85638C6.671 3.99426 6.3954 4.15085 6.13104 4.32513L4.64354 3.78763C4.5131 3.75365 4.37803 3.74098 4.24354 3.75013C4.02434 3.75036 3.80905 3.80822 3.61927 3.91792C3.42949 4.02762 3.27189 4.1853 3.16229 4.37513L1.68729 6.87513C1.54141 7.12575 1.4872 7.41929 1.53395 7.70548C1.5807 7.99168 1.72549 8.25271 1.94354 8.44388L3.12479 9.52513V10.4814L1.94354 11.5314C1.71933 11.7239 1.57058 11.9896 1.52367 12.2813C1.47676 12.5731 1.53473 12.8721 1.68729 13.1251L3.16229 15.6251C3.27189 15.815 3.42949 15.9726 3.61927 16.0823C3.80905 16.192 4.02434 16.2499 4.24354 16.2501C4.37939 16.2512 4.51449 16.2301 4.64354 16.1876L6.16229 15.6751C6.4245 15.8494 6.69803 16.006 6.98104 16.1439L7.29979 17.7189C7.35695 18.0066 7.51348 18.2651 7.74201 18.4491C7.97053 18.633 8.25648 18.7308 8.54979 18.7251H11.4998C11.7931 18.7308 12.0791 18.633 12.3076 18.4491C12.5361 18.2651 12.6926 18.0066 12.7498 17.7189L13.0685 16.1439C13.3536 16.006 13.6292 15.8494 13.8935 15.6751L15.406 16.1876C15.5351 16.2301 15.6702 16.2512 15.806 16.2501C16.0252 16.2499 16.2405 16.192 16.4303 16.0823C16.6201 15.9726 16.7777 15.815 16.8873 15.6251L18.3123 13.1251C18.4582 12.8745 18.5124 12.581 18.4656 12.2948C18.4189 12.0086 18.2741 11.7476 18.056 11.5564L16.8748 10.4751ZM15.756 15.0001L13.6123 14.2751C13.1105 14.7002 12.5369 15.0325 11.9185 15.2564L11.4748 17.5001H8.52479L8.08104 15.2814C7.46756 15.0511 6.89712 14.7194 6.39354 14.3001L4.24354 15.0001L2.76854 12.5001L4.46854 11.0001C4.35298 10.3532 4.35298 9.69085 4.46854 9.04388L2.76854 7.50013L4.24354 5.00013L6.38729 5.72513C6.88913 5.30006 7.46267 4.96779 8.08104 4.74388L8.52479 2.50013H11.4748L11.9185 4.71888C12.532 4.94915 13.1025 5.28085 13.606 5.70013L15.756 5.00013L17.231 7.50013L15.531 9.00013C15.6466 9.64709 15.6466 10.3094 15.531 10.9564L17.231 12.5001L15.756 15.0001Z" fill="black"/>
<path d="M10 13.75C9.25832 13.75 8.5333 13.5301 7.91661 13.118C7.29993 12.706 6.81928 12.1203 6.53545 11.4351C6.25162 10.7498 6.17736 9.99584 6.32206 9.26841C6.46675 8.54098 6.8239 7.8728 7.34835 7.34835C7.8728 6.8239 8.54098 6.46675 9.26841 6.32206C9.99584 6.17736 10.7498 6.25162 11.4351 6.53545C12.1203 6.81928 12.706 7.29993 13.118 7.91661C13.5301 8.5333 13.75 9.25832 13.75 10C13.755 10.4939 13.6614 10.9837 13.4748 11.441C13.2881 11.8982 13.0121 12.3136 12.6628 12.6628C12.3136 13.0121 11.8982 13.2881 11.441 13.4748C10.9837 13.6614 10.4939 13.755 10 13.75ZM10 7.5C9.66959 7.4923 9.34105 7.55171 9.03426 7.67462C8.72747 7.79753 8.44879 7.9814 8.2151 8.2151C7.9814 8.44879 7.79753 8.72747 7.67462 9.03426C7.55171 9.34105 7.4923 9.66959 7.5 10C7.4923 10.3304 7.55171 10.6589 7.67462 10.9657C7.79753 11.2725 7.9814 11.5512 8.2151 11.7849C8.44879 12.0186 8.72747 12.2025 9.03426 12.3254C9.34105 12.4483 9.66959 12.5077 10 12.5C10.3304 12.5077 10.6589 12.4483 10.9657 12.3254C11.2725 12.2025 11.5512 12.0186 11.7849 11.7849C12.0186 11.5512 12.2025 11.2725 12.3254 10.9657C12.4483 10.6589 12.5077 10.3304 12.5 10C12.5077 9.66959 12.4483 9.34105 12.3254 9.03426C12.2025 8.72747 12.0186 8.44879 11.7849 8.2151C11.5512 7.9814 11.2725 7.79753 10.9657 7.67462C10.6589 7.55171 10.3304 7.4923 10 7.5Z" fill="black"/>
</svg>
