<svg width="24" height="24" viewBox="0 0 24 24" fill="none" xmlns="http://www.w3.org/2000/svg">
<g clip-path="url(#clip0_1329_100)">
<path fill-rule="evenodd" clip-rule="evenodd" d="M19 9.5C21.4853 9.5 23.5 7.48528 23.5 5C23.5 2.51472 21.4853 0.5 19 0.5C16.5147 0.5 14.5 2.51472 14.5 5C14.5 7.48528 16.5147 9.5 19 9.5ZM21 5C21 6.10457 20.1046 7 19 7C17.8954 7 17 6.10457 17 5C17 3.89543 17.8954 3 19 3C20.1046 3 21 3.89543 21 5ZM10.3314 15.3899C9.3246 16.6745 7.7587 17.5 6 17.5C2.96243 17.5 0.5 15.0376 0.5 12C0.5 8.96243 2.96243 6.5 6 6.5C7.7587 6.5 9.3246 7.32546 10.3314 8.61008L12.8066 6.95994C13.381 6.577 14.1571 6.73221 14.5401 7.30662C14.923 7.88104 14.7678 8.65712 14.1934 9.04006L11.3916 10.9079C11.4627 11.2609 11.5 11.6261 11.5 12C11.5 12.3739 11.4627 12.7391 11.3916 13.0921L14.1934 14.9599C14.7678 15.3429 14.923 16.119 14.5401 16.6934C14.1571 17.2678 13.381 17.423 12.8066 17.0401L10.3314 15.3899ZM6 15C7.65685 15 9 13.6569 9 12C9 10.3431 7.65685 9 6 9C4.34315 9 3 10.3431 3 12C3 13.6569 4.34315 15 6 15ZM23.5 19C23.5 21.4853 21.4853 23.5 19 23.5C16.5147 23.5 14.5 21.4853 14.5 19C14.5 16.5147 16.5147 14.5 19 14.5C21.4853 14.5 23.5 16.5147 23.5 19ZM19 21C20.1046 21 21 20.1046 21 19C21 17.8954 20.1046 17 19 17C17.8954 17 17 17.8954 17 19C17 20.1046 17.8954 21 19 21Z" fill="black"/>
</g>
<defs>
<clipPath id="clip0_1329_100">
<rect width="24" height="24" fill="white"/>
</clipPath>
</defs>
</svg>
