<svg width="45" height="24" viewBox="0 0 45 24" fill="none" xmlns="http://www.w3.org/2000/svg">
<g clip-path="url(#clip0_116_421)">
<path d="M0.964844 8.93345C0.964844 6.09492 3.25442 3.79492 6.08021 3.79492H38.4823C41.3081 3.79492 43.5977 6.09492 43.5977 8.93345V15.7862C43.5977 18.6248 41.3081 20.9248 38.4823 20.9248H6.08021C3.25442 20.9248 0.964844 18.6248 0.964844 15.7862V8.93345Z" fill="#A11D26"/>
<path d="M0.964486 8.93318C0.964486 6.09466 3.25407 3.79466 6.07985 3.79466H38.482C41.3078 3.79466 43.5973 6.09466 43.5973 8.93318V15.7859C43.5973 18.6246 41.3078 20.9246 38.482 20.9246H6.07985C3.25407 20.9246 0.964486 18.6246 0.964486 15.7859V8.93318ZM38.482 2.93761H6.07985C2.78828 2.93761 0.111328 5.62676 0.111328 8.93318V15.7859C0.111328 19.0924 2.78838 21.7817 6.07975 21.7817H38.482C41.7695 21.7817 44.4505 19.0924 44.4505 15.7859V8.93329C44.4505 5.62676 41.7695 2.9375 38.4821 2.9375L38.482 2.93761Z" fill="#262626"/>
<path d="M26.4482 9.67591V15.8052C26.7749 15.8052 26.984 15.7426 27.0732 15.6186L27.088 15.5955L27.1006 15.5719C27.1728 15.4151 27.2093 15.0424 27.2093 14.4528V10.8326C27.2093 10.4111 27.1949 10.1402 27.1689 10.0215C27.1415 9.90212 27.0811 9.81486 26.9857 9.75928C26.8901 9.70339 26.711 9.67591 26.4482 9.67591ZM24.0361 8.07875H25.8395C27.0054 8.07875 27.792 8.13244 28.203 8.24002C28.6135 8.34739 28.9257 8.52391 29.1393 8.76981C29.3532 9.01539 29.4871 9.28875 29.5407 9.59065C29.5941 9.8917 29.621 10.4844 29.621 11.3669V14.6328C29.621 15.4696 29.5824 16.0288 29.5036 16.3111C29.4244 16.5932 29.2889 16.8142 29.0939 16.9737C28.8987 17.1328 28.6592 17.2442 28.3716 17.3074C28.0852 17.3709 27.6541 17.4023 27.0776 17.4023H24.0361V8.07875ZM30.4573 11.4355C30.4573 10.5443 30.5055 9.89728 30.6004 9.49412C30.696 9.09044 30.971 8.72086 31.4236 8.38496C31.8762 8.04865 32.4615 7.88086 33.1795 7.88086C33.8867 7.88086 34.4737 8.02717 34.9399 8.31865C35.4056 8.61075 35.7096 8.9577 35.8513 9.35918C35.9927 9.76065 36.0636 10.3437 36.0636 11.1082V11.5119H33.651V10.6635C33.651 10.1288 33.6278 9.79381 33.5822 9.6597C33.5357 9.52475 33.427 9.45739 33.2549 9.45739C33.1048 9.45739 33.0039 9.51507 32.9499 9.63044C32.8964 9.7457 32.8695 10.0419 32.8695 10.5185V14.9979C32.8695 15.4169 32.8964 15.692 32.9499 15.8249C33.0039 15.9576 33.1113 16.0237 33.2717 16.0237C33.4478 16.0237 33.5683 15.949 33.6306 15.7995C33.6943 15.6497 33.7262 15.3579 33.7262 14.9245V13.8189H33.237V12.3992H36.0636V17.4023H34.5441L34.3201 16.7344C34.1554 17.0222 33.9489 17.2384 33.6988 17.3831C33.4478 17.5281 33.153 17.6005 32.8124 17.6005C32.408 17.6005 32.0293 17.5018 31.6754 17.304C31.3222 17.1061 31.0535 16.8611 30.8704 16.5693C30.6873 16.277 30.5726 15.9708 30.5265 15.6501C30.4808 15.3295 30.4573 14.8484 30.4573 14.2068V11.4355ZM36.7946 10.5028C36.7946 9.78865 36.8855 9.2656 37.0672 8.93539C37.2487 8.60517 37.5417 8.34665 37.9482 8.16002C38.3535 7.97391 38.8433 7.88086 39.4177 7.88086C40.0439 7.88086 40.5796 7.98265 41.0206 8.18581C41.4629 8.38939 41.7559 8.64581 41.8995 8.95454C42.043 9.26391 42.1148 9.78865 42.1148 10.529V10.8977H39.8721V10.2066C39.8721 9.88423 39.8427 9.67854 39.7852 9.59023C39.7277 9.50191 39.6302 9.45739 39.4955 9.45739C39.3498 9.45739 39.2385 9.51728 39.1629 9.6356C39.0881 9.75496 39.0494 9.93486 39.0494 10.1765C39.0494 10.4871 39.0923 10.7212 39.178 10.8784L39.2198 10.9453C39.3241 11.0881 39.5386 11.2569 39.862 11.4495C39.9209 11.4844 39.9782 11.519 40.0342 11.553C41.0119 12.1488 41.6333 12.6416 41.8986 13.0309C42.1786 13.4414 42.3182 14.1045 42.3182 15.0184C42.3182 15.6834 42.2413 16.1735 42.0864 16.4884C41.9303 16.803 41.6311 17.0677 41.1871 17.2804C40.7436 17.4936 40.2257 17.6005 39.6369 17.6005C38.9894 17.6005 38.4375 17.4774 37.98 17.2319C37.5221 16.986 37.223 16.6732 37.0821 16.2931C36.9403 15.9131 36.869 15.3741 36.869 14.6752V14.0648H39.1111V15.1997C39.1111 15.5492 39.1433 15.7741 39.2059 15.8737C39.2698 15.9739 39.382 16.0237 39.5433 16.0237C39.7047 16.0237 39.8248 15.9606 39.9034 15.8336C39.9826 15.707 40.0213 15.5182 40.0213 15.2683C40.0213 14.7182 39.9478 14.3589 39.7981 14.1898C39.6447 14.0203 39.2676 13.7385 38.6667 13.3428C38.0653 12.9438 37.6669 12.6543 37.4712 12.4738C37.2764 12.2934 37.1151 12.0435 36.9868 11.7246C36.858 11.4057 36.7946 10.9985 36.7946 10.5028Z" fill="white"/>
<path d="M26.4482 9.67691V15.8062C26.7748 15.8062 26.984 15.7436 27.0732 15.6196L27.088 15.5965L27.1005 15.5729C27.1727 15.4161 27.2093 15.0434 27.2093 14.4538V10.8336C27.2093 10.4121 27.1948 10.1412 27.1688 10.0225C27.1415 9.90312 27.0811 9.81586 26.9857 9.76028C26.8901 9.70438 26.7109 9.67691 26.4482 9.67691ZM24.0361 8.07975H25.8395C27.0054 8.07975 27.792 8.13344 28.2029 8.24101C28.6135 8.34838 28.9257 8.52491 29.1393 8.7708C29.3532 9.01638 29.4871 9.28975 29.5406 9.59165C29.5941 9.8927 29.6209 10.4854 29.6209 11.3679V14.6338C29.6209 15.4706 29.5824 16.0298 29.5036 16.3121C29.4244 16.5942 29.2888 16.8152 29.0939 16.9747C28.8986 17.1338 28.6592 17.2452 28.3716 17.3084C28.0852 17.3719 27.6541 17.4033 27.0776 17.4033H24.0361V8.07975ZM25.8395 7.42449H23.3838V18.0586H27.0775C27.7076 18.0586 28.1768 18.0228 28.5121 17.9485C28.8974 17.8636 29.2318 17.7064 29.5058 17.4824C29.8049 17.2382 30.0159 16.9035 30.1311 16.489C30.1924 16.2709 30.2733 15.8416 30.2733 14.6338V11.3679C30.2733 10.4383 30.2434 9.81965 30.1829 9.47628C30.1085 9.05733 29.9224 8.67428 29.6306 8.33922C29.3301 7.99417 28.9043 7.74733 28.3674 7.60659C27.892 7.4827 27.0884 7.42449 25.8395 7.42449ZM30.4573 11.4365C30.4573 10.5453 30.5055 9.89828 30.6004 9.49512C30.696 9.09144 30.9709 8.72186 31.4236 8.38596C31.8762 8.04965 32.4615 7.88186 33.1795 7.88186C33.8866 7.88186 34.4737 8.02817 34.9399 8.31965C35.4056 8.61175 35.7096 8.9587 35.8513 9.36017C35.9926 9.76165 36.0636 10.3447 36.0636 11.1092V11.5129H33.6509V10.6645C33.6509 10.1298 33.6278 9.7948 33.5822 9.6607C33.5357 9.52575 33.4269 9.45838 33.2548 9.45838C33.1047 9.45838 33.0039 9.51607 32.9499 9.63144C32.8964 9.7467 32.8695 10.0429 32.8695 10.5195V14.9989C32.8695 15.4179 32.8964 15.693 32.9499 15.8259C33.0039 15.9586 33.1113 16.0247 33.2717 16.0247C33.4478 16.0247 33.5683 15.95 33.6305 15.8005C33.6943 15.6507 33.7262 15.3589 33.7262 14.9255V13.8199H33.2369V12.4002H36.0636V17.4033H34.5441L34.3201 16.7354C34.1554 17.0232 33.9488 17.2394 33.6987 17.3841C33.4478 17.5291 33.1529 17.6015 32.8124 17.6015C32.408 17.6015 32.0293 17.5028 31.6754 17.305C31.3222 17.1071 31.0535 16.8621 30.8704 16.5703C30.6873 16.278 30.5725 15.9718 30.5264 15.6511C30.4807 15.3305 30.4573 14.8494 30.4573 14.2078V11.4365ZM33.1795 7.22659C32.3219 7.22659 31.6001 7.43933 31.0353 7.85922C30.4577 8.28765 30.0981 8.78701 29.9658 9.3427C29.8576 9.8027 29.8049 10.4872 29.8049 11.4364V14.2078C29.8049 14.8858 29.8302 15.3882 29.8802 15.7436C29.9398 16.1548 30.0867 16.5498 30.3177 16.9192C30.5598 17.3042 30.9091 17.6261 31.3583 17.8771C31.8093 18.1292 32.2984 18.2568 32.8124 18.2568C33.2669 18.2568 33.6748 18.1542 34.0244 17.952L34.0371 17.9446L34.0753 18.0586H36.7159V11.1092C36.7159 10.2622 36.6341 9.6188 36.4662 9.14165C36.274 8.59828 35.8765 8.1348 35.2852 7.76354H35.2847L35.2843 7.76312C34.7141 7.40701 34.0066 7.22659 33.1795 7.22659ZM36.7945 10.5038C36.7945 9.78965 36.8855 9.26659 37.0672 8.93638C37.2486 8.60617 37.5417 8.34765 37.9482 8.16101C38.3535 7.97491 38.8433 7.88186 39.4177 7.88186C40.0439 7.88186 40.5796 7.98365 41.0205 8.1868C41.4628 8.39038 41.7559 8.6468 41.8995 8.95554C42.0429 9.26491 42.1147 9.78965 42.1147 10.53V10.8987H39.8721V10.2076C39.8721 9.88522 39.8426 9.67954 39.7852 9.59123C39.7277 9.50291 39.6302 9.45838 39.4955 9.45838C39.3498 9.45838 39.2384 9.51828 39.1628 9.63659C39.0881 9.75596 39.0494 9.93586 39.0494 10.1775C39.0494 10.4881 39.0923 10.7222 39.178 10.8794L39.2198 10.9463C39.3241 11.0891 39.5385 11.2579 39.862 11.4505C39.9208 11.4854 39.9782 11.52 40.0342 11.554C41.0119 12.1498 41.6333 12.6426 41.8985 13.0319C42.1785 13.4424 42.3182 14.1055 42.3182 15.0194C42.3182 15.6844 42.2413 16.1745 42.0864 16.4894C41.9303 16.804 41.6311 17.0687 41.1871 17.2814C40.7436 17.4946 40.2257 17.6015 39.6368 17.6015C38.9894 17.6015 38.4375 17.4784 37.98 17.2329C37.5221 16.987 37.2229 16.6742 37.0821 16.2941C36.9403 15.9141 36.8689 15.3751 36.8689 14.6762V14.0658H39.1111V15.2007C39.1111 15.5502 39.1433 15.7751 39.2059 15.8747C39.2698 15.9749 39.382 16.0247 39.5433 16.0247C39.7046 16.0247 39.8247 15.9616 39.9034 15.8346C39.9825 15.708 40.0213 15.5192 40.0213 15.2693C40.0213 14.7192 39.9478 14.3599 39.7981 14.1908C39.6446 14.0213 39.2676 13.7395 38.6666 13.3438C38.0653 12.9448 37.6668 12.6553 37.4712 12.4748C37.2764 12.2944 37.1151 12.0445 36.9867 11.7256C36.858 11.4067 36.7945 10.9995 36.7945 10.5038ZM39.4177 7.22659C38.7519 7.22659 38.1661 7.34059 37.6769 7.56512C37.1424 7.81028 36.7454 8.16533 36.4958 8.62017C36.2575 9.05217 36.1423 9.66859 36.1423 10.5038C36.1423 11.0901 36.2202 11.5701 36.3814 11.9711C36.5458 12.3801 36.2166 13.4105 36.2166 13.4105V14.6761C36.2166 15.4603 36.2997 16.0652 36.4711 16.524C36.6679 17.0551 37.072 17.4885 37.6725 17.8108C38.2239 18.1066 38.8841 18.2568 39.6367 18.2568C40.3213 18.2568 40.938 18.1275 41.4688 17.8726C42.0443 17.5968 42.4487 17.2299 42.6705 16.7812C42.8726 16.368 42.9705 15.7926 42.9705 15.0194C42.9705 13.9596 42.7958 13.1882 42.4365 12.6613C42.2086 12.3272 41.8177 11.9663 41.2337 11.554H42.7671V10.53C42.7671 9.67249 42.6786 9.08449 42.4908 8.6787C42.2803 8.22649 41.8773 7.86049 41.2923 7.59133V7.59091C40.7666 7.34944 40.136 7.2267 39.4176 7.2267L39.4177 7.22659Z" fill="#262626"/>
<path d="M12.0169 4.07472L12.0247 4.06293V4.06683L12.0169 4.07472ZM9.36735 7.33398C9.53956 7.33398 10.3652 6.84251 10.4553 6.79146C10.5453 6.73641 10.7841 6.46514 10.8859 6.35893C10.9877 6.25672 11.649 5.5962 11.7117 5.52946C11.7743 5.46251 12.3887 4.54251 12.4279 4.50714C12.467 4.47177 12.8153 3.92135 12.8897 3.81914C12.9641 3.71304 13.191 3.34335 13.3359 3.24514C13.4807 3.14293 13.8095 2.80093 14.1382 2.40767C14.4708 2.01851 14.7722 1.76683 14.9992 1.53093C15.2262 1.29514 15.7703 0.823247 15.7703 0.823247C15.7703 0.823247 15.9856 0.681774 16.2282 0.681774C16.369 0.681774 16.5178 0.728932 16.6352 0.8823C16.7565 1.03167 16.7996 1.17314 16.7996 1.30293C16.7957 1.52314 16.6665 1.70398 16.5648 1.81009C16.4082 1.98314 15.5002 3.09177 15.5002 3.09177C15.5002 3.09177 14.8897 3.7562 14.647 4.26335C14.4043 4.76662 13.5316 5.5923 13.2811 6.09156C13.195 6.26851 13.1637 6.42967 13.1637 6.56335C13.1637 6.81493 13.2616 6.97619 13.2616 6.97619C13.2616 6.97619 13.4963 6.73241 13.6216 6.63019L13.6999 6.56335L13.7664 6.50051C13.9856 6.2882 14.3418 5.91862 14.4435 5.80062C14.5687 5.65125 14.9092 5.32493 15.054 5.17156C15.1988 5.0183 15.2771 5.00251 15.4141 4.92788C15.551 4.85314 15.9895 4.50714 16.1851 4.40893C16.3808 4.31451 17.0892 3.71304 17.2262 3.63041C17.3631 3.55177 17.8485 3.20577 18.1772 2.91093C18.3611 2.74577 18.6233 2.6082 18.8778 2.6082C19.0736 2.6082 19.2652 2.68683 19.4218 2.89914C19.5275 3.04072 19.5666 3.17441 19.5666 3.2962C19.5666 3.59114 19.3279 3.80346 19.2457 3.86241C19.1283 3.94493 18.9718 4.12577 18.7525 4.2202C18.5372 4.31841 17.8876 4.98683 17.6802 5.14409C17.4688 5.30135 16.7212 5.93041 16.6391 6.01693C16.5569 6.09946 16.1539 6.57904 15.8681 6.7403C15.5785 6.90146 15.3123 7.21998 15.1362 7.29462C14.964 7.36935 14.4473 7.8923 14.3457 8.0023C14.3183 8.03777 14.3065 8.09672 14.3065 8.16356C14.3065 8.32083 14.3691 8.51735 14.3691 8.51735L14.8231 8.15567L14.8348 8.14777C14.9327 8.06914 15.5355 7.58167 15.6371 7.50304C15.7428 7.42441 16.0481 7.25146 16.2712 7.19251L16.3182 7.18062C16.5413 7.13746 17.0226 6.84251 17.0736 6.81893C17.1244 6.79925 17.3319 6.61051 17.872 6.32356C18.412 6.03651 18.8817 5.82041 19.0696 5.60019C19.183 5.46651 19.504 5.26198 19.8015 5.26198C19.9815 5.26198 20.1576 5.34062 20.275 5.55693C20.3377 5.67483 20.365 5.79272 20.365 5.89904C20.3689 6.30388 20.005 6.59872 19.8876 6.65377C19.7388 6.72462 19.4687 6.92504 19.1869 7.12556C18.9051 7.32609 18.2595 7.73104 17.8993 7.96304C17.5393 8.19504 16.9562 8.65883 16.4786 8.90662C16.0011 9.1504 15.3593 9.55925 15.054 9.7283C14.8818 9.82262 14.8466 9.94851 14.8466 10.0388C14.8466 10.1136 14.8701 10.1686 14.8701 10.1686C14.8701 10.1686 14.9484 10.4754 15.0384 10.5146C15.0815 10.5304 15.1205 10.5658 15.2106 10.5658C15.2927 10.5658 15.4219 10.5342 15.6371 10.4321C16.0833 10.2276 16.3064 10.1215 16.4943 10.0822C16.6861 10.0389 16.874 10.0743 17.1636 9.98777C17.4492 9.89735 18.776 9.51598 18.776 9.51598C18.776 9.51598 19.0265 9.43346 19.1752 9.37841C19.324 9.32335 19.6566 9.28788 19.6566 9.28788H19.6919C19.778 9.28788 19.9853 9.31156 20.095 9.56714C20.138 9.66535 20.1576 9.75188 20.1576 9.83451C20.1576 10.0231 20.0559 10.1686 19.958 10.3023C19.8131 10.4871 18.6625 10.8645 18.6625 10.8645C18.6625 10.8645 17.5667 11.1711 17.4571 11.2498C17.3436 11.3245 16.1695 11.6705 16.1695 11.6705C16.1695 11.6705 14.9562 12.0283 14.8779 12.2012C14.8036 12.3703 14.2047 12.7518 13.7077 13.1448C13.2106 13.538 11.8603 14.2221 11.5121 14.5287C11.1677 14.8355 10.1697 15.0674 10.1697 15.0674C10.1697 15.0674 9.13251 15.3662 8.73324 15.3662L8.63935 15.3583C8.34977 15.2915 7.88008 15.2522 7.88008 15.2522C6.81945 12.7281 5.74324 11.989 5.74324 11.816L5.77061 11.7845C5.99756 11.6902 6.57282 10.6444 6.64324 10.6168C6.71377 10.5894 6.92903 8.56062 6.98377 7.97472C7.03861 7.38504 7.26166 7.09809 7.36345 6.81893C7.46524 6.53977 7.7705 5.53725 7.7705 5.34851V5.33672C7.7705 5.15988 7.86051 4.84925 7.86051 4.7863V4.78241C7.86051 4.71556 8.16577 3.92925 8.18924 3.8782C8.19714 3.85451 8.20103 3.79946 8.20103 3.73662C8.20103 3.64609 8.19314 3.53209 8.17366 3.45346C8.15787 3.38272 8.15008 3.25693 8.15008 3.12325C8.15008 2.98567 8.15798 2.84409 8.17356 2.74188C8.20093 2.54135 8.28324 2.44704 8.45935 2.44704H8.47893C8.67061 2.45493 8.92503 2.45493 9.16377 2.84019C9.4025 3.22156 9.35166 3.71304 9.41819 4.15335C9.43387 4.26735 9.43777 4.39314 9.43777 4.51893C9.43777 4.87683 9.39082 5.22662 9.39082 5.22662C9.39082 5.22662 9.30472 5.69451 9.2224 5.94609C9.14029 6.19767 9.10514 6.93293 9.10514 6.93293C9.10514 6.93293 9.14029 6.99188 9.15208 7.04304C9.15987 7.0902 9.22251 7.29462 9.35556 7.33009L9.36735 7.33398ZM16.2282 0.0839844C15.8289 0.0839844 15.5041 0.280616 15.4455 0.323879L15.4102 0.343563L15.3788 0.371037C15.3553 0.390721 14.8152 0.862511 14.5726 1.11809C14.4961 1.19455 14.4178 1.26924 14.3379 1.34209C14.1539 1.51904 13.9268 1.73525 13.6842 2.0223C13.3398 2.43114 13.0698 2.69851 12.9953 2.75356C12.8036 2.88725 12.6236 3.13883 12.4475 3.40619L12.4005 3.47304C12.3731 3.5163 12.3222 3.59493 12.2322 3.72862C12.1488 3.85668 12.064 3.98381 11.9778 4.10998C11.9269 4.16893 11.8525 4.27514 11.5943 4.65651C11.4846 4.81756 11.3203 5.06146 11.2655 5.13219L10.467 5.9343H10.4631V5.9382C10.4319 5.96956 10.3849 6.01683 10.3379 6.06788C10.2831 6.12683 10.1736 6.24472 10.1266 6.28809C9.98566 6.37062 9.85261 6.44925 9.73524 6.5122C9.75082 6.33135 9.77429 6.18588 9.78998 6.13083C9.87998 5.84767 9.96608 5.38767 9.97787 5.33662V5.32483L9.98177 5.30904C9.98956 5.2383 10.0797 4.57788 10.0052 4.06672C9.99356 3.96451 9.98566 3.85051 9.97398 3.73251C9.95051 3.37083 9.91924 2.92262 9.66872 2.52156C9.26556 1.87683 8.74114 1.85714 8.51408 1.84935H8.45935C8.09145 1.84935 7.66882 2.06167 7.58261 2.65525C7.55135 2.87546 7.53566 3.33946 7.5944 3.59104C7.59829 3.61851 7.60608 3.68146 7.60608 3.72472C7.33608 4.40093 7.27735 4.62893 7.26556 4.73904L7.24998 4.81767C7.21082 5.00241 7.17556 5.16756 7.17556 5.32872C7.14429 5.52535 6.90166 6.33925 6.80377 6.61041C6.77923 6.67196 6.75183 6.73235 6.72166 6.79135C6.60419 7.04293 6.43977 7.38104 6.39282 7.91577C6.31851 8.67851 6.17366 9.94841 6.10714 10.3298C6.0524 10.4045 5.98977 10.4988 5.91135 10.6206C5.80966 10.7819 5.57093 11.1515 5.46482 11.2694C5.31261 11.3559 5.20303 11.4975 5.16387 11.6743C5.08177 12.0203 5.28914 12.2483 5.5044 12.496C5.85661 12.8931 6.58861 13.7227 7.33219 15.484L7.47303 15.8182L7.83303 15.8497C7.95051 15.8615 8.30272 15.8968 8.51019 15.944C8.57672 15.9598 8.65114 15.9637 8.73335 15.9637C9.18724 15.9637 10.1109 15.7081 10.3223 15.6452C10.6119 15.5784 11.4886 15.3464 11.9073 14.9768C12.0365 14.8628 12.4901 14.5995 12.8584 14.3831C13.3202 14.1158 13.7938 13.8367 14.0756 13.6165C14.2321 13.4907 14.4004 13.3688 14.5648 13.247C14.964 12.956 15.1949 12.783 15.328 12.6022C15.4963 12.5197 15.9346 12.3624 16.3378 12.2444C17.4023 11.9299 17.6528 11.8276 17.7467 11.7686C17.8837 11.7176 18.4004 11.5603 18.823 11.4423L18.8465 11.4345C20.1771 10.9981 20.3493 10.774 20.4316 10.664C20.5685 10.483 20.9364 9.99946 20.6429 9.32714C20.4707 8.93398 20.1067 8.6863 19.6919 8.6863C19.6487 8.6863 19.6175 8.6903 19.594 8.69419V8.6903C19.5001 8.70209 19.1752 8.74135 18.9718 8.81609H18.9639C18.8465 8.86325 18.6469 8.93009 18.5999 8.94577C18.459 8.98514 17.2653 9.32714 16.9875 9.41367C16.8896 9.44514 16.8113 9.45304 16.7173 9.45683L16.7526 9.43725C17.1048 9.2564 17.4766 8.98904 17.8093 8.75314C17.944 8.6555 18.0811 8.56113 18.2203 8.47009C18.3024 8.41504 18.3964 8.35609 18.4982 8.28925C18.8543 8.06125 19.3005 7.77809 19.5313 7.61304L19.6253 7.5462C19.8092 7.41641 20.0559 7.23567 20.138 7.20019C20.3611 7.09409 20.7446 6.77167 20.8973 6.31167C21.0108 5.96567 20.9756 5.60398 20.7995 5.27377C20.5921 4.88451 20.2281 4.6643 19.8015 4.6643H19.7976C19.277 4.6643 18.8073 4.99062 18.6156 5.21083C18.5686 5.26588 18.4082 5.3603 18.232 5.45851C18.2946 5.39956 18.369 5.32872 18.459 5.24619C18.6156 5.10072 18.9091 4.82556 19.0108 4.76262C19.2379 4.65651 19.4022 4.51104 19.5158 4.41272L19.5901 4.34977C19.6645 4.29472 20.0637 3.99198 20.1498 3.47704C20.185 3.25283 20.1732 2.90693 19.9032 2.54125C19.6488 2.19914 19.2848 2.00651 18.8778 2.00651C18.506 2.00651 18.1068 2.17567 17.782 2.46262C17.4649 2.74577 17.0148 3.06419 16.9287 3.11135C16.8387 3.16641 16.7173 3.26083 16.4747 3.45346C16.3104 3.58314 16.005 3.82693 15.915 3.87409C15.7703 3.94883 15.5902 4.07462 15.3553 4.24356L15.3398 4.25546C15.5393 3.95272 15.8211 3.62641 15.9385 3.49662L15.962 3.47304C16.3064 3.05241 16.8896 2.34072 17.003 2.21493V2.21893C17.4845 1.69598 17.5237 1.03946 17.1009 0.508616C16.8857 0.233458 16.5765 0.0839844 16.2282 0.0839844Z" fill="#262626"/>
<path d="M4.86391 11.7675C4.86391 11.7675 6.80728 11.0117 7.33044 10.7816C7.86834 10.5445 8.2276 10.5973 8.51939 10.5509C8.81202 10.5056 9.84865 10.2849 9.9996 10.1949C10.1519 10.1046 10.4841 10.0311 10.5311 10.0013C10.5784 9.9708 11.4238 9.85417 11.4798 9.84764C11.5352 9.84112 11.7352 9.72449 11.84 9.6287C11.9457 9.53312 12.2674 9.35617 12.4611 9.28196C12.5257 9.25701 12.5828 9.24385 12.6332 9.24385C12.7322 9.24385 12.8049 9.29501 12.8629 9.40817C12.9144 9.50859 12.9776 9.62659 12.9776 9.78649C12.978 9.89912 12.9462 10.0332 12.8562 10.1975C12.6379 10.5947 12.1875 10.7908 11.8356 11.0599C11.483 11.329 10.8881 11.5587 10.8881 11.5587C10.8881 11.5587 10.441 11.7094 10.181 11.761C9.92265 11.8134 9.26644 12.1367 9.26644 12.1367L9.19255 12.2302C9.15865 12.2586 9.03507 12.3891 9.03644 12.5123L9.04076 12.55C9.07476 12.681 9.95486 13.1995 10.0453 13.2528C10.1358 13.3056 10.4889 13.3816 10.6294 13.4219C10.7684 13.4629 11.6656 13.7229 11.7543 13.7447C11.8421 13.7679 12.9397 13.8579 12.9901 13.8759C13.0411 13.8932 13.6903 13.9316 13.816 13.9452C13.9413 13.9591 14.3743 13.9807 14.5322 14.0597C14.6897 14.1384 15.1471 14.2585 15.649 14.3585C16.149 14.4585 16.513 14.6027 16.8296 14.6888C17.1462 14.7734 17.819 15.019 17.819 15.019C17.819 15.019 18.2337 15.2392 18.2334 15.6043C18.2329 15.6743 18.2184 15.7436 18.1908 15.808C18.0508 16.1469 17.8051 16.2294 17.5923 16.2294C17.5011 16.2294 17.4162 16.2136 17.3489 16.1971C17.1236 16.1434 15.7181 15.8844 15.7181 15.8844C15.7181 15.8844 14.9597 15.7 14.4061 15.7C14.364 15.7 14.3235 15.7013 14.2839 15.7031L14.2104 15.7052C13.93 15.7052 13.5338 15.6275 13.1407 15.5502C12.7454 15.4729 12.3527 15.3951 12.0792 15.3951L12.0283 15.3961C11.4725 15.4187 11.2477 15.8087 11.2477 15.8087C11.2477 15.8087 11.5356 15.8848 11.696 15.946L11.7252 15.9573C11.7596 15.9717 11.826 15.9936 11.9104 16.0197C12.1983 16.1089 12.694 16.2443 12.8436 16.2741C13.0368 16.3125 13.4873 16.4491 13.6899 16.5025C13.8925 16.557 13.9455 16.6187 14.0765 16.7022C14.21 16.7856 14.7244 17.0022 14.9031 17.1276C15.0815 17.2526 15.9495 17.5819 16.0852 17.6632C16.2213 17.7453 16.76 18.0026 17.1732 18.1476C17.5067 18.2643 17.8651 18.5373 17.8619 18.9291C17.8611 19.0244 17.839 19.1266 17.7902 19.2354C17.6505 19.5455 17.4205 19.626 17.2222 19.626C17.0631 19.626 16.9232 19.5744 16.8661 19.5468C16.7375 19.4847 16.5039 19.4333 16.3148 19.2895C16.1256 19.1459 15.2302 18.9025 14.9901 18.7946C14.7514 18.6867 13.8399 18.3368 13.7264 18.3062C13.6125 18.2752 13.0023 18.1546 12.7214 17.9808C12.4405 17.8065 12.0321 17.7279 11.8831 17.6094C11.7343 17.492 11.029 17.2936 10.8829 17.2596L10.8589 17.2574C10.7068 17.2574 10.4445 17.5282 10.4445 17.5282L10.8172 17.6836L10.9807 17.7514C10.9807 17.7514 11.8164 18.0922 11.9438 18.149C12.0631 18.2027 12.3631 18.3896 12.5228 18.5543L12.5571 18.592C12.7023 18.7649 13.1947 19.0435 13.2381 19.0772C13.2808 19.1117 13.5459 19.2022 14.0577 19.536C14.5697 19.8701 14.9876 20.1807 15.268 20.2388C15.4919 20.2842 15.9855 20.573 15.9877 20.9688C15.9887 21.0648 15.9603 21.167 15.8925 21.2736C15.725 21.5353 15.4872 21.6136 15.2694 21.6136C15.0315 21.6136 14.8183 21.5205 14.7483 21.4699C14.6167 21.3725 14.3109 21.2309 13.9987 21.0802C13.6864 20.9317 13.0189 20.5616 12.6436 20.3589C12.2674 20.1559 11.5812 19.8701 11.1351 19.5705C10.688 19.2708 10.0239 18.9051 9.72528 18.72C9.64034 18.668 9.56612 18.6487 9.50349 18.6487C9.34297 18.6487 9.25507 18.7702 9.25507 18.7702C9.25507 18.7702 9.03865 18.9781 9.0356 19.0776L9.03602 19.0873C9.04728 19.1816 8.99865 19.2847 9.3956 19.574C9.79391 19.864 9.99139 20.0082 10.1204 20.1567C10.2484 20.3043 10.3071 20.4843 10.5244 20.6952C10.7415 20.9059 11.7182 21.883 11.7182 21.883C11.7182 21.883 11.9113 22.0622 12.0335 22.167C12.1552 22.2719 12.3453 22.5457 12.3453 22.5457C12.3453 22.5457 12.4193 22.6419 12.4193 22.7843C12.4193 22.8669 12.3944 22.9647 12.3161 23.0687C12.164 23.2701 11.9892 23.3207 11.8174 23.3207C11.7469 23.3207 11.6769 23.3121 11.6104 23.302C11.3795 23.2674 10.4905 22.4383 10.4905 22.4383C10.4905 22.4383 9.69055 21.6267 9.57055 21.5659C9.45086 21.5048 8.5776 20.6428 8.5776 20.6428C8.5776 20.6428 7.69349 19.767 7.4957 19.767H7.49044L7.4757 19.7679C7.27223 19.7679 6.66812 19.4371 6.0997 19.197C5.51623 18.951 4.26202 18.0983 3.82707 17.9436C3.39233 17.7881 2.70655 17.0253 2.70655 17.0253C2.70655 17.0253 1.79465 16.1141 1.71023 15.8257C1.62633 15.5366 1.43286 15.1077 1.43286 15.1077C3.17234 12.872 3.23791 11.5548 3.39749 11.5548L3.4236 11.5657C3.61844 11.7208 4.80728 11.7208 4.86391 11.7675ZM9.36781 7.33406C9.54002 7.33406 10.3657 6.84259 10.4558 6.79154C10.5459 6.73649 10.7845 6.46522 10.8863 6.35901C10.9881 6.25691 11.6495 5.59638 11.7121 5.52954C11.7748 5.4627 12.3892 4.5427 12.4283 4.50722C12.4675 4.47185 12.8157 3.92143 12.8902 3.81922C12.9644 3.71301 13.1915 3.34343 13.3363 3.24522C13.4811 3.14312 13.8099 2.80101 14.1387 2.40775C14.4713 2.01859 14.7727 1.76701 14.9997 1.53112C15.2267 1.29522 15.7708 0.823433 15.7708 0.823433C15.7708 0.823433 15.986 0.681854 16.2287 0.681854C16.3696 0.681854 16.5181 0.729012 16.6357 0.882275C16.757 1.03175 16.7999 1.17322 16.7999 1.30301C16.7961 1.52322 16.667 1.70406 16.5652 1.81017C16.4088 1.98312 15.5007 3.09185 15.5007 3.09185C15.5007 3.09185 14.8901 3.75638 14.6475 4.26343C14.4048 4.7667 13.532 5.59238 13.2816 6.09175C13.1955 6.26859 13.1641 6.42985 13.1641 6.56354C13.1641 6.81512 13.262 6.97617 13.262 6.97617C13.262 6.97617 13.4969 6.73249 13.622 6.63028L13.7003 6.56354L13.7669 6.50059C13.986 6.28828 14.3421 5.9187 14.4439 5.8008C14.5692 5.65133 14.9097 5.32501 15.0544 5.17175C15.1993 5.01838 15.2776 5.00259 15.4147 4.92796C15.5515 4.85322 15.9899 4.50722 16.1856 4.40901C16.3813 4.31459 17.0896 3.71301 17.2267 3.63059C17.3637 3.55196 17.849 3.20596 18.1777 2.91101C18.3616 2.74585 18.6238 2.60838 18.8782 2.60838C19.074 2.60838 19.2658 2.68701 19.4223 2.89922C19.5279 3.0408 19.5671 3.17449 19.5671 3.29628C19.5671 3.59122 19.3284 3.80354 19.2461 3.86249C19.1288 3.94512 18.9722 4.12596 18.7531 4.22028C18.5378 4.31849 17.8881 4.98691 17.6807 5.14417C17.4693 5.30143 16.7217 5.93049 16.6396 6.01691C16.5574 6.09954 16.1543 6.57922 15.8687 6.74038C15.5789 6.90164 15.3129 7.22007 15.1367 7.2948C14.9644 7.36943 14.4479 7.89238 14.3461 8.00249C14.3188 8.03775 14.307 8.0968 14.307 8.16354C14.307 8.32091 14.3696 8.51743 14.3696 8.51743L14.8236 8.15575L14.8354 8.14785C14.9332 8.06922 15.5359 7.58175 15.6377 7.50312C15.7433 7.42449 16.0487 7.25154 16.2717 7.19259L16.3187 7.1807C16.5418 7.13754 17.0232 6.84259 17.0739 6.81901C17.1249 6.79943 17.3323 6.61059 17.8723 6.32364C18.4124 6.0367 18.8822 5.82038 19.07 5.60017C19.1835 5.46649 19.5044 5.26206 19.8019 5.26206C19.9819 5.26206 20.158 5.3407 20.2754 5.55701C20.3381 5.67491 20.3655 5.79291 20.3655 5.89901C20.3694 6.30406 20.0055 6.5988 19.888 6.65385C19.7393 6.72459 19.4692 6.92522 19.1875 7.12564C18.9057 7.32628 18.2599 7.73112 17.8998 7.96312C17.5398 8.19501 16.9565 8.65891 16.4791 8.9067C16.0017 9.15049 15.3597 9.55933 15.0544 9.72838C14.8822 9.8227 14.8471 9.94849 14.8471 10.039C14.8471 10.1137 14.8705 10.1687 14.8705 10.1687C14.8705 10.1687 14.9489 10.4753 15.0388 10.5147C15.0819 10.5305 15.1211 10.5659 15.211 10.5659C15.2933 10.5659 15.4223 10.5344 15.6377 10.4322C16.0838 10.2277 16.3069 10.1215 16.4948 10.0822C16.6865 10.039 16.8744 10.0744 17.164 9.98785C17.4497 9.89743 18.7765 9.51607 18.7765 9.51607C18.7765 9.51607 19.0271 9.43354 19.1757 9.37849C19.3244 9.32343 19.6571 9.28796 19.6571 9.28796H19.6923C19.7784 9.28796 19.9858 9.31164 20.0955 9.56722C20.1385 9.66543 20.158 9.75196 20.158 9.83459C20.158 10.0233 20.0563 10.1687 19.9584 10.3024C19.8136 10.4872 18.663 10.8647 18.663 10.8647C18.663 10.8647 17.5672 11.1713 17.4575 11.25C17.344 11.3246 16.1699 11.6706 16.1699 11.6706C16.1699 11.6706 14.9567 12.0285 14.8783 12.2014C14.8039 12.3704 14.2052 12.7519 13.7082 13.145C13.2111 13.5382 11.8609 14.2222 11.5124 14.5289C11.1681 14.8355 10.1701 15.0674 10.1701 15.0674C10.1701 15.0674 9.13297 15.3663 8.7337 15.3663L8.63981 15.3584C8.35023 15.2916 7.88055 15.2523 7.88055 15.2523C6.81981 12.7282 5.7437 11.9891 5.7437 11.8161L5.77097 11.7846C5.99802 11.6903 6.57339 10.6445 6.64381 10.6169C6.71423 10.5894 6.92949 8.5607 6.98433 7.9748C7.03907 7.38512 7.26223 7.09817 7.36391 6.81901C7.4657 6.53996 7.77097 5.53733 7.77097 5.34859V5.3368C7.77097 5.15996 7.86107 4.84933 7.86107 4.78638V4.78249C7.86107 4.71564 8.16634 3.92933 8.1897 3.87828C8.19749 3.85459 8.20149 3.79954 8.20149 3.73659C8.20149 3.64628 8.1936 3.53217 8.17412 3.45354C8.15844 3.3828 8.15055 3.25701 8.15055 3.12333C8.15055 2.98575 8.15844 2.84428 8.17412 2.74196C8.20149 2.54143 8.2837 2.44712 8.45981 2.44712H8.47928C8.67107 2.45491 8.9256 2.45491 9.16423 2.84028C9.40307 3.22164 9.35212 3.71301 9.41865 4.15343C9.43444 4.26743 9.43823 4.39322 9.43823 4.51912C9.43823 4.8768 9.39128 5.2268 9.39128 5.2268C9.39128 5.2268 9.30518 5.69459 9.22297 5.94617C9.14086 6.19775 9.1056 6.93312 9.1056 6.93312C9.1056 6.93312 9.14076 6.99206 9.15255 7.04312C9.16034 7.09038 9.22307 7.2947 9.35612 7.33006L9.3677 7.33406H9.36781Z" fill="white"/>
<path d="M5.34133 11.4076L5.24133 11.3032L5.23691 11.3C5.27565 11.3312 5.31091 11.367 5.34133 11.4076ZM4.87291 11.7693C5.02817 11.7693 6.80723 11.0114 7.33039 10.7812C7.86828 10.5439 8.22754 10.5967 8.51933 10.5504C8.81196 10.5051 9.8487 10.2844 9.99954 10.1944C10.1518 10.104 10.484 10.0306 10.531 10.001C10.5784 9.97043 11.4238 9.85369 11.4799 9.84716C11.5351 9.84064 11.7351 9.72401 11.8399 9.62822C11.9455 9.53264 12.2674 9.35569 12.4609 9.28148C12.5256 9.25653 12.5827 9.24348 12.6331 9.24348C12.7323 9.24348 12.8049 9.29453 12.8627 9.40769C12.9145 9.50822 12.9774 9.62611 12.9774 9.78601C12.978 9.89864 12.9462 10.0328 12.8562 10.1971C12.6379 10.5941 12.1873 10.7903 11.8355 11.0594C11.4829 11.3285 10.888 11.5583 10.888 11.5583C10.888 11.5583 10.4409 11.709 10.1809 11.7605C9.9226 11.813 9.26639 12.1362 9.26639 12.1362L9.19249 12.2297C9.1586 12.2581 9.03502 12.3886 9.03638 12.5119L9.0407 12.5495C9.0746 12.6805 9.95481 13.199 10.0452 13.2523C10.1358 13.3052 10.4888 13.3812 10.6292 13.4214C10.7684 13.4624 11.6655 13.7224 11.7543 13.7442C11.8421 13.7674 12.9396 13.8574 12.9901 13.8753C13.041 13.8927 13.6903 13.9312 13.816 13.9447C13.9412 13.9587 14.3743 13.9801 14.5322 14.0592C14.6895 14.1378 15.147 14.258 15.6489 14.358C16.1489 14.458 16.513 14.6022 16.8295 14.6882C17.1462 14.773 17.8189 15.0185 17.8189 15.0185C17.8189 15.0185 18.2336 15.2386 18.2333 15.6038C18.2333 15.6672 18.2207 15.7358 18.1907 15.8075C18.0507 16.1464 17.8049 16.229 17.5923 16.229C17.501 16.229 17.4162 16.2132 17.3488 16.1966C17.1235 16.143 15.7181 15.8839 15.7181 15.8839C15.7181 15.8839 14.9596 15.6996 14.4061 15.6996C14.364 15.6996 14.3234 15.7008 14.2839 15.7026L14.2104 15.7047C13.9299 15.7047 13.5338 15.6271 13.1406 15.5497C12.7453 15.4724 12.3526 15.3946 12.0791 15.3946L12.0282 15.3955C11.4724 15.4182 11.2476 15.8083 11.2476 15.8083C11.2476 15.8083 11.5355 15.8843 11.6961 15.9455L11.7251 15.9568C11.7594 15.9713 11.826 15.9931 11.9104 16.0193C12.1983 16.1084 12.694 16.2438 12.8435 16.2736C13.0367 16.312 13.4872 16.4487 13.6899 16.502C13.8925 16.5566 13.9455 16.6182 14.0764 16.7017C14.21 16.7851 14.7244 17.0017 14.9031 17.1272C15.0814 17.2521 15.9494 17.5815 16.085 17.6627C16.2211 17.7448 16.76 18.0021 17.1731 18.1472C17.5066 18.2638 17.8649 18.5368 17.862 18.9286C17.861 19.0239 17.8388 19.1261 17.7902 19.235C17.6506 19.5451 17.4205 19.6255 17.2223 19.6255C17.0631 19.6255 16.923 19.5739 16.8661 19.5463C16.7373 19.4843 16.5039 19.4327 16.3147 19.2891C16.1255 19.1454 15.2301 18.902 14.9901 18.7941C14.7513 18.6862 13.8399 18.3362 13.7264 18.3057C13.6124 18.2747 13.0023 18.1541 12.7214 17.9803C12.4404 17.806 12.0322 17.7274 11.883 17.609C11.7343 17.4915 11.0289 17.2932 10.8828 17.2591L10.8589 17.257C10.7067 17.257 10.4444 17.5277 10.4444 17.5277L10.817 17.6833L10.9806 17.751C10.9806 17.751 11.8164 18.0917 11.9438 18.1484C12.063 18.2021 12.363 18.3892 12.5227 18.5539L12.557 18.5915C12.7023 18.7644 13.1945 19.0431 13.2381 19.0767C13.2806 19.1113 13.5459 19.2017 14.0578 19.5355C14.5695 19.8696 14.9874 20.1802 15.268 20.2383C15.4919 20.2838 15.9854 20.5725 15.9876 20.9683C15.9885 21.0644 15.9603 21.1666 15.8924 21.2732C15.725 21.5348 15.4871 21.6132 15.2692 21.6132C15.0313 21.6132 14.8183 21.52 14.7483 21.4694C14.6165 21.3719 14.3108 21.2304 13.9986 21.0797C13.6864 20.9312 13.0188 20.5612 12.6435 20.3584C12.2674 20.1553 11.5811 19.8696 11.135 19.57C10.688 19.2703 10.024 18.9047 9.72512 18.7195C9.64038 18.6675 9.56596 18.6482 9.50344 18.6482C9.34291 18.6482 9.25502 18.7697 9.25502 18.7697C9.25502 18.7697 9.03849 18.9776 9.03544 19.0772L9.03596 19.0868C9.04723 19.1812 8.99849 19.2842 9.39554 19.5735C9.79386 19.8635 9.99133 20.0077 10.1205 20.1562C10.2483 20.3039 10.307 20.4838 10.5245 20.6948C10.7414 20.9054 11.7182 21.8826 11.7182 21.8826C11.7182 21.8826 11.9112 22.0617 12.0334 22.1665C12.1552 22.2714 12.3452 22.5453 12.3452 22.5453C12.3452 22.5453 12.4191 22.6414 12.4191 22.7838C12.4191 22.8663 12.3944 22.9642 12.3161 23.0682C12.1639 23.2696 11.9891 23.3202 11.8173 23.3202C11.7468 23.3202 11.6768 23.3115 11.6103 23.3015C11.3794 23.267 10.4905 22.4378 10.4905 22.4378C10.4905 22.4378 9.69038 21.6262 9.57038 21.5655C9.45081 21.5043 8.57754 20.6423 8.57754 20.6423C8.57754 20.6423 7.69344 19.7665 7.49565 19.7665H7.49039L7.47565 19.7674C7.27207 19.7674 6.66807 19.4367 6.09975 19.1964C5.51607 18.9505 4.26196 18.0978 3.82712 17.9432C3.39228 17.7877 2.70649 17.025 2.70649 17.025C2.70649 17.025 1.7946 16.1137 1.71017 15.8254C1.62628 15.5361 1.4327 15.1072 1.4327 15.1072C3.17217 12.8714 3.23796 11.5543 3.39744 11.5543L3.42354 11.5653C3.61828 11.7203 4.80733 11.7203 4.86386 11.7671L4.87291 11.7693ZM12.6331 8.64453C12.5091 8.64453 12.383 8.66979 12.2473 8.7219C12.0304 8.80527 11.6294 9.01243 11.4399 9.184C11.4178 9.20453 11.3642 9.24043 11.3241 9.26358C11.2276 9.27706 11.0681 9.29937 10.9136 9.32295C10.5179 9.38285 10.3801 9.40906 10.2796 9.45664L10.214 9.47664C10.03 9.53222 9.86554 9.58464 9.72554 9.66243C9.54081 9.73274 8.71323 9.91443 8.42838 9.95853C8.37491 9.96695 8.3066 9.97116 8.22839 9.97601C7.95481 9.99348 7.57954 10.0171 7.09081 10.2328C6.46891 10.5063 5.22996 11.0262 4.85207 11.1555C4.76207 11.145 4.65207 11.1376 4.50986 11.1284C4.31586 11.1153 3.87491 11.0865 3.72228 11.0463C3.62428 10.9871 3.51197 10.9557 3.39744 10.9555C3.2727 10.9555 2.96344 10.9974 2.78649 11.3871C2.75039 11.466 2.71733 11.5596 2.67691 11.678C2.50217 12.1812 2.13849 13.2275 0.963122 14.7385L0.889648 15.3544C0.93828 15.4632 1.07912 15.7908 1.13786 15.994C1.22186 16.281 1.60365 16.7663 2.27291 17.436C2.46817 17.6526 3.09996 18.3193 3.62712 18.5076C3.79186 18.5661 4.24628 18.8374 4.61207 19.0558C5.0686 19.3284 5.54091 19.6105 5.86839 19.7486C6.05049 19.8255 6.23933 19.9138 6.42196 19.999C6.87333 20.2095 7.13333 20.327 7.35733 20.358C7.51207 20.4651 7.85965 20.7721 8.15965 21.0692C8.95723 21.8568 9.1646 22.0197 9.25818 22.0765C9.37207 22.1696 9.7587 22.5461 10.0674 22.8594L10.0853 22.8764C11.1089 23.8322 11.3885 23.8737 11.5221 23.8938C11.606 23.9064 11.7064 23.9191 11.8173 23.9191C12.3165 23.9191 12.6223 23.6536 12.7905 23.4303C13.1231 22.9908 13.0423 22.4824 12.8258 22.1901C12.7501 22.0822 12.5766 21.8459 12.4213 21.7118C12.3239 21.6269 12.2278 21.5405 12.133 21.4527C12.0447 21.3636 11.1502 20.4694 10.9398 20.2645C10.8645 20.192 10.8206 20.1256 10.7698 20.0456L10.8036 20.068C11.1342 20.2899 11.5507 20.4899 11.9182 20.6664C12.0869 20.7473 12.2456 20.8237 12.3613 20.8861C12.4646 20.9417 12.5676 20.9976 12.6705 21.0539C13.0553 21.2636 13.4915 21.5008 13.7433 21.621L13.866 21.6799C14.0491 21.7681 14.3265 21.901 14.3961 21.952C14.5744 22.0826 14.9119 22.212 15.2692 22.212C15.7415 22.212 16.1411 21.9936 16.3943 21.5964C16.6069 21.2632 16.6426 20.8883 16.4951 20.5393C16.272 20.0107 15.6963 19.7141 15.3853 19.6512C15.3145 19.6351 15.1562 19.5416 14.9858 19.4323C15.0679 19.4603 15.1645 19.4918 15.2805 19.5298C15.4863 19.5971 15.8663 19.7211 15.9715 19.7787C16.1686 19.9242 16.3778 20.0006 16.5182 20.0518L16.6095 20.0872C16.6939 20.1278 16.9261 20.2243 17.2222 20.2243C17.7159 20.2243 18.1211 19.9535 18.3333 19.4817C18.4912 19.1314 18.5003 18.7714 18.3594 18.4412C18.1959 18.0576 17.8349 17.7443 17.3692 17.5815C16.9734 17.4425 16.4769 17.2004 16.3921 17.1494C16.3021 17.0953 16.1607 17.0354 15.8754 16.9157C15.6828 16.8348 15.3262 16.6851 15.2375 16.6313C15.1031 16.5383 14.9058 16.4422 14.6426 16.3167L14.6247 16.3085C14.9905 16.3382 15.4184 16.4278 15.578 16.4662L15.6106 16.4732C16.1481 16.5719 17.0574 16.7426 17.2105 16.7795C17.3354 16.8106 17.4636 16.8267 17.5923 16.8275C18.115 16.8275 18.5329 16.5396 18.7412 16.0377C19.0091 15.3872 18.6203 14.7664 18.0981 14.4891L18.0233 14.4558C17.9946 14.4453 17.3205 14.1994 16.9823 14.1095C16.893 14.085 16.7883 14.0518 16.6769 14.0168C16.4347 13.94 16.1321 13.8447 15.7654 13.7705C15.1858 13.6552 14.8623 13.5534 14.7966 13.5223C14.5844 13.4161 14.2934 13.3847 13.9633 13.3567L13.8816 13.3494C13.7766 13.34 13.6715 13.3318 13.5663 13.3248C13.4359 13.3157 13.2024 13.2986 13.1189 13.2895C13.0449 13.2728 12.9131 13.2602 12.4696 13.2179C12.2674 13.1986 11.9673 13.1706 11.8808 13.1584C11.7421 13.1208 11.0315 12.9151 10.7959 12.8461C10.7336 12.8292 10.6711 12.8131 10.6084 12.7977C10.5327 12.7787 10.3819 12.7408 10.3196 12.7198C10.191 12.6435 10.0634 12.5655 9.93691 12.4857C10.1035 12.4136 10.2427 12.3594 10.2988 12.3477C10.5858 12.2908 11.0285 12.1427 11.0776 12.1262L11.1024 12.1175C11.1715 12.0907 11.7876 11.8479 12.1961 11.5364C12.2782 11.4735 12.3726 11.4115 12.4726 11.3459C12.7745 11.1485 13.1493 10.9031 13.3781 10.4867C13.7438 9.82011 13.5028 9.34832 13.3998 9.14643L13.3928 9.13253C13.2328 8.82232 12.9562 8.64453 12.6331 8.64453Z" fill="#262626"/>
</g>
<defs>
<clipPath id="clip0_116_421">
<rect width="44.5263" height="24" fill="white"/>
</clipPath>
</defs>
</svg>
