<svg width="24" height="24" viewBox="0 0 24 24" fill="none" xmlns="http://www.w3.org/2000/svg">
<path d="M1 16.4918V7.50818C1 7.22752 1.11881 7 1.26537 7H6.66486C6.81142 7 6.93023 7.22752 6.93023 7.50818V10.9901C6.93023 11.1304 6.98964 11.2442 7.06292 11.2442H16.8393C16.9126 11.2442 16.972 11.1304 16.972 10.9901V7.25409C16.972 7.11376 17.0314 7 17.1047 7H22.3625C22.5091 7 22.6279 7.22752 22.6279 7.50818V16.4918C22.6279 16.7725 22.5091 17 22.3625 17H5.08011H3.2225H1.26537C1.11881 17 1 16.7725 1 16.4918Z" stroke="black" stroke-width="1.74419" stroke-linecap="round"/>
</svg>
