<svg width="24" height="24" viewBox="0 0 24 24" fill="none" xmlns="http://www.w3.org/2000/svg">
<path fill-rule="evenodd" clip-rule="evenodd" d="M20.4184 0.482934C20.7078 0.606206 20.9646 0.796913 21.1987 1.01271C21.3824 1.18198 21.5643 1.38693 21.7065 1.63677C22.9072 3.7464 22.6121 6.27908 21.534 8.46313C20.733 10.0856 19.1477 11.917 17.1253 11.7058C15.7428 11.5614 14.7202 11.8894 14.0587 12.8008L6.54256 22.4913C5.8052 23.5072 4.43595 23.7067 3.38096 23.0456L3.35424 23.021L2.63746 22.3586C2.55162 22.2795 2.4729 22.1924 2.40228 22.0983C1.64379 21.0882 1.63971 19.6567 2.51784 18.7705L11.1789 10.0301C11.9667 9.23515 12.0999 8.00148 11.7938 6.58974C11.3461 4.52453 12.6092 2.58712 14.0575 1.56129C15.9305 0.234737 18.2694 -0.432483 20.4184 0.482934ZM20.2987 1.80078C20.047 1.5688 19.6568 1.41371 19.3387 1.30078C17.7581 0.739724 16.2326 1.60107 14.5387 2.80078C13.288 3.68661 12.7856 4.85641 13.0987 6.30078C13.4367 7.8597 13.3255 9.60311 12.1387 10.8008L3.49871 19.8008C3.07024 20.2332 3.02659 20.672 3.49871 21.3008C3.52914 21.3413 3.46172 21.2667 3.49871 21.3008L3.97871 21.8008C4.63539 22.2123 5.05892 22.2965 5.41871 21.8008L12.9616 11.7991C13.9582 10.4261 15.5987 10.1477 17.1253 10.3072C18.5397 10.4549 19.6071 9.20186 20.2987 7.80078C21.2737 5.82578 21.7289 3.97033 20.7787 2.30078C20.6688 2.14983 20.4261 1.91814 20.2987 1.80078Z" fill="black"/>
<path d="M18.8114 2.80266C15.8599 2.46424 14.6345 4.50872 14.1092 5.46359" stroke="black" stroke-width="1.11482" stroke-linecap="round"/>
</svg>
