<svg width="25" height="25" viewBox="0 0 25 25" fill="none" xmlns="http://www.w3.org/2000/svg">
<path d="M14.2163 7.16026C13.7989 7.16026 13.4619 6.82277 13.4619 6.40468C13.4619 5.51309 13.2884 4.63912 12.959 3.87598C12.7478 3.38989 12.4788 2.95671 12.167 2.59906C11.8552 2.95671 11.5861 3.38737 11.3749 3.87598C11.0455 4.6366 10.872 5.51057 10.872 6.40468C10.872 6.82277 10.535 7.16026 10.1176 7.16026C9.70023 7.16026 9.36328 6.82277 9.36328 6.40468C9.36328 5.30908 9.57953 4.22607 9.99191 3.27655C10.3993 2.33459 10.9877 1.53622 11.6968 0.967009C11.9734 0.745372 12.3656 0.745372 12.6422 0.967009C13.3488 1.53622 13.9397 2.33459 14.347 3.27655C14.7569 4.22607 14.9757 5.30908 14.9757 6.40468C14.9757 6.82277 14.6387 7.16026 14.2213 7.16026H14.2163Z" fill="black"/>
<path d="M7.19821 9.04435C6.9367 9.04435 6.68271 8.90834 6.54441 8.66655C5.99624 7.71704 5.64423 6.67182 5.52605 5.64422C5.40786 4.62419 5.52103 3.63942 5.84791 2.79065C5.97615 2.46071 6.31813 2.26426 6.66513 2.31715C7.56281 2.45568 8.47054 2.85108 9.29279 3.4631C10.1226 4.08016 10.8493 4.90878 11.3974 5.8583C11.6061 6.21846 11.4829 6.68191 11.1208 6.89095C10.7613 7.1 10.2986 6.97656 10.0899 6.61388C9.64483 5.84067 9.05895 5.17325 8.3926 4.67709C7.96765 4.36226 7.52006 4.12046 7.06996 3.96934C6.97693 4.43529 6.95931 4.94407 7.02217 5.47045C7.11772 6.29404 7.40187 7.14028 7.84694 7.91097C8.05564 8.27365 7.93244 8.73455 7.57035 8.94359C7.45217 9.0116 7.32141 9.04435 7.19317 9.04435H7.19821Z" fill="black"/>
<path d="M5.60959 12.1351C5.48135 12.1351 5.35311 12.1024 5.23241 12.0344C4.28444 11.4853 3.45716 10.7575 2.84111 9.92632C2.23008 9.10274 1.83532 8.19353 1.69702 7.29439C1.64422 6.9443 1.84035 6.60177 2.16975 6.47584C3.01714 6.1459 4.00282 6.03507 5.01869 6.15345C6.04461 6.27182 7.08813 6.62441 8.0361 7.17347C8.39568 7.38251 8.5214 7.84344 8.3127 8.20612C8.10399 8.56628 7.64384 8.69221 7.28175 8.48316C6.50979 8.03737 5.66741 7.75276 4.84517 7.65705C4.31963 7.59661 3.81171 7.61425 3.34653 7.70492C3.49991 8.15575 3.73881 8.60407 4.05312 9.02971C4.54848 9.69714 5.21481 10.284 5.98677 10.7298C6.34634 10.9388 6.47206 11.3997 6.26336 11.7624C6.12255 12.0042 5.8711 12.1402 5.60959 12.1402V12.1351Z" fill="black"/>
<path d="M5.78134 15.6098C4.68753 15.6098 3.60628 15.3932 2.6583 14.9802C1.71787 14.5722 0.920762 13.9828 0.352481 13.2726C0.131204 12.9955 0.131204 12.6026 0.352481 12.3256C0.920762 11.6178 1.71787 11.0259 2.6583 10.6179C3.60628 10.2074 4.68753 9.98828 5.78134 9.98828C6.19875 9.98828 6.5357 10.3258 6.5357 10.7439C6.5357 11.162 6.19875 11.4994 5.78134 11.4994C4.8912 11.4994 4.01866 11.6732 3.25676 12.0032C2.77146 12.2147 2.33898 12.4842 1.98443 12.7965C2.34149 13.1088 2.77146 13.3783 3.25928 13.5899C4.01866 13.9198 4.89372 14.0936 5.78386 14.0936C6.20127 14.0936 6.53821 14.4311 6.53821 14.8492C6.53821 15.2673 6.20127 15.6048 5.78386 15.6048L5.78134 15.6098Z" fill="black"/>
<path d="M4.23919 19.4981C3.50244 19.4981 2.79838 19.3722 2.16975 19.1304C1.84035 19.002 1.64422 18.662 1.69702 18.3119C1.83532 17.4127 2.23259 16.5035 2.84111 15.6799C3.45716 14.8488 4.28444 14.1184 5.23241 13.5718C5.5945 13.3628 6.05465 13.4887 6.26336 13.8489C6.47206 14.2116 6.34886 14.6725 5.98677 14.8815C5.21481 15.3273 4.54597 15.9142 4.05312 16.5816C3.73881 17.0072 3.4974 17.4556 3.34653 17.9064C3.81171 17.9996 4.31963 18.0172 4.84517 17.9542C5.66993 17.8585 6.51231 17.5739 7.28175 17.1281C7.64384 16.9191 8.10399 17.0425 8.31269 17.4052C8.5214 17.7653 8.39819 18.2288 8.0361 18.4378C7.08813 18.9869 6.04461 19.3395 5.01869 19.4578C4.75466 19.488 4.49567 19.5032 4.23919 19.5032V19.4981Z" fill="black"/>
<path d="M6.55373 23.2937C6.24696 23.2937 5.96532 23.1049 5.85217 22.8127C5.52277 21.9639 5.41215 20.9791 5.53033 19.9591C5.64852 18.9315 6.00053 17.8863 6.54869 16.9368C6.7574 16.5766 7.21758 16.4507 7.57967 16.6597C7.93924 16.8688 8.06496 17.3297 7.85626 17.6924C7.41119 18.4656 7.12704 19.3093 7.03149 20.1329C6.97114 20.6593 6.98873 21.168 7.07925 21.634C7.52935 21.4804 7.97694 21.2411 8.40189 20.9263C9.06824 20.4326 9.65412 19.7627 10.0992 18.9894C10.3079 18.6293 10.7681 18.5034 11.1302 18.7124C11.4897 18.9215 11.6155 19.3824 11.4068 19.745C10.8586 20.6945 10.1319 21.5232 9.30211 22.1402C8.47986 22.7523 7.5721 23.1477 6.67442 23.2862C6.6367 23.2912 6.59648 23.2963 6.55876 23.2963L6.55373 23.2937Z" fill="black"/>
<path d="M12.1656 24.8015C11.9971 24.8015 11.8312 24.746 11.6929 24.6352C10.9863 24.066 10.3954 23.2676 9.988 22.3256C9.57814 21.3761 9.35938 20.2932 9.35938 19.1976C9.35938 18.7795 9.69632 18.442 10.1137 18.442C10.5311 18.442 10.8681 18.7795 10.8681 19.1976C10.8681 20.0891 11.0416 20.9631 11.371 21.7262C11.5822 22.2123 11.8513 22.6455 12.1631 23.0007C12.4749 22.643 12.7439 22.2123 12.9551 21.7237C13.2845 20.9606 13.458 20.0866 13.458 19.195C13.458 18.7769 13.795 18.4395 14.2124 18.4395C14.6298 18.4395 14.9667 18.7769 14.9667 19.195C14.9667 20.2906 14.7505 21.3736 14.3381 22.3231C13.9307 23.2651 13.3424 24.0635 12.6333 24.6327C12.495 24.7435 12.329 24.7989 12.1605 24.7989L12.1656 24.8015Z" fill="black"/>
<path d="M17.7786 23.2943C17.7409 23.2943 17.7007 23.2918 17.663 23.2843C16.7653 23.1457 15.8575 22.7503 15.0353 22.1383C14.2055 21.5212 13.4763 20.6926 12.9306 19.7431C12.7219 19.3829 12.8451 18.9195 13.2072 18.7105C13.5693 18.5014 14.0295 18.6248 14.2382 18.9875C14.6833 19.7607 15.2691 20.4282 15.9355 20.9243C16.3604 21.2391 16.808 21.4809 17.2581 21.632C17.3512 21.1661 17.3688 20.6573 17.3059 20.131C17.2103 19.3049 16.9262 18.4611 16.4811 17.6904C16.2724 17.3302 16.3957 16.8668 16.7577 16.6578C17.1198 16.4487 17.58 16.5747 17.7887 16.9348C18.3369 17.8843 18.6889 18.9296 18.807 19.9572C18.9252 20.9772 18.8121 21.962 18.4852 22.8108C18.3721 23.1054 18.0904 23.2918 17.7837 23.2918L17.7786 23.2943Z" fill="black"/>
<path d="M20.0905 19.4973C19.834 19.4973 19.5725 19.4822 19.311 19.452C18.2851 19.3336 17.2416 18.981 16.2936 18.4319C15.934 18.2229 15.8083 17.762 16.017 17.3993C16.2257 17.0391 16.6858 16.9132 17.0479 17.1223C17.8199 17.5681 18.6623 17.8552 19.4845 17.9483C20.0101 18.0088 20.518 17.9912 20.9832 17.9005C20.8298 17.4497 20.5909 17.0014 20.2766 16.5757C19.7812 15.9083 19.1149 15.3214 18.3429 14.8757C17.9833 14.6666 17.8576 14.2057 18.0663 13.843C18.275 13.4829 18.7352 13.3569 19.0973 13.566C20.0452 14.115 20.8725 14.8429 21.4886 15.6741C22.0996 16.4976 22.4944 17.4069 22.6327 18.306C22.6855 18.6561 22.4894 18.9986 22.16 19.1245C21.5313 19.3688 20.8272 19.4922 20.0905 19.4922V19.4973Z" fill="black"/>
<path d="M18.5508 15.6087C18.1334 15.6087 17.7964 15.2712 17.7964 14.8531C17.7964 14.435 18.1334 14.0975 18.5508 14.0975C19.4409 14.0975 20.3135 13.9237 21.0754 13.5938C21.5607 13.3822 21.9932 13.1128 22.3477 12.8004C21.9907 12.4881 21.5607 12.2186 21.0729 12.0071C20.311 11.6771 19.4384 11.5034 18.5483 11.5034C18.1309 11.5034 17.7939 11.1659 17.7939 10.7478C17.7939 10.3297 18.1309 9.99219 18.5483 9.99219C19.6421 9.99219 20.7233 10.2088 21.6713 10.6218C22.6117 11.0299 23.4088 11.6192 23.9771 12.3295C24.1984 12.6065 24.1984 12.9994 23.9771 13.2765C23.4088 13.9842 22.6117 14.576 21.6713 14.9841C20.7233 15.3946 19.6421 15.6137 18.5483 15.6137L18.5508 15.6087Z" fill="black"/>
<path d="M18.7206 12.1379C18.4591 12.1379 18.2052 12.0019 18.0669 11.7601C17.8582 11.3999 17.9814 10.9365 18.3435 10.7274C19.1154 10.2817 19.7818 9.69482 20.2771 9.02738C20.5915 8.60174 20.8328 8.15342 20.9837 7.70259C20.5185 7.6094 20.0106 7.59176 19.4851 7.65472C18.6628 7.75043 17.8179 8.03504 17.0485 8.48083C16.6864 8.68988 16.2262 8.56395 16.0175 8.20379C15.8088 7.84111 15.932 7.38021 16.2941 7.17117C17.2421 6.62211 18.2856 6.2695 19.3116 6.15112C20.3274 6.03275 21.3131 6.14609 22.1605 6.47351C22.4899 6.60196 22.6861 6.94197 22.6332 7.29206C22.4949 8.1912 22.0976 9.10041 21.4891 9.92399C20.8731 10.7551 20.0458 11.483 19.0978 12.0321C18.9796 12.1001 18.8489 12.1328 18.7206 12.1328V12.1379Z" fill="black"/>
<path d="M17.1324 9.04501C17.0042 9.04501 16.8759 9.01226 16.7552 8.94426C16.3957 8.73521 16.2699 8.27431 16.4786 7.91163C16.9237 7.13842 17.2103 6.2947 17.3034 5.47112C17.3637 4.94473 17.3461 4.43595 17.2556 3.97C16.8055 4.12364 16.3579 4.36292 15.933 4.67775C15.2666 5.17139 14.6808 5.84133 14.2357 6.61454C14.027 6.9747 13.5668 7.10066 13.2047 6.89161C12.8452 6.68257 12.7194 6.22164 12.9281 5.85896C13.4763 4.90944 14.203 4.08082 15.0328 3.46376C15.855 2.85174 16.7628 2.45634 17.6605 2.31781C18.01 2.2624 18.3494 2.46137 18.4777 2.79131C18.8071 3.64008 18.9177 4.62485 18.7995 5.64488C18.6814 6.67248 18.3293 7.7177 17.7811 8.66722C17.6403 8.909 17.3889 9.04501 17.1274 9.04501H17.1324Z" fill="black"/>
<path d="M12.1651 20.106C8.14443 20.106 4.87305 16.8293 4.87305 12.802C4.87305 8.77476 8.14443 5.49805 12.1651 5.49805C16.1859 5.49805 19.4572 8.77476 19.4572 12.802C19.4572 16.8293 16.1859 20.106 12.1651 20.106ZM12.1651 7.00921C8.97674 7.00921 6.38176 9.60842 6.38176 12.802C6.38176 15.9956 8.97674 18.5948 12.1651 18.5948C15.3535 18.5948 17.9485 15.9956 17.9485 12.802C17.9485 9.60842 15.3535 7.00921 12.1651 7.00921Z" fill="black"/>
<path d="M8.89247 13.9285C8.52032 13.9285 8.19596 13.654 8.14567 13.2737C7.94199 11.7474 8.6058 10.2614 9.88066 9.39752C11.1555 8.53363 12.8352 8.47821 14.1654 9.25646C14.525 9.4655 14.6457 9.92895 14.437 10.2891C14.2283 10.6493 13.7656 10.7702 13.406 10.5611C12.5762 10.075 11.5226 10.1103 10.728 10.6493C9.93095 11.1882 9.51607 12.1176 9.64431 13.0722C9.69963 13.4852 9.41044 13.8655 8.99554 13.9209C8.96285 13.926 8.92768 13.9285 8.89499 13.9285H8.89247Z" fill="black"/>
<path d="M12.1336 16.7617C11.3289 16.7617 10.5243 16.5249 9.84035 16.0489C9.49837 15.8122 9.41288 15.3412 9.64924 14.9987C9.88561 14.6561 10.3558 14.5705 10.6978 14.8072C11.5452 15.3941 12.6868 15.4016 13.5392 14.8224C14.4042 14.238 14.8141 13.2003 14.5852 12.1803C14.4947 11.7723 14.7487 11.3693 15.156 11.2761C15.5608 11.1855 15.9657 11.4399 16.0587 11.8479C16.4259 13.4799 15.7696 15.1372 14.3866 16.0741C13.7102 16.5325 12.9206 16.7592 12.1336 16.7617Z" fill="black"/>
</svg>
