<svg width="24" height="24" viewBox="0 0 24 24" fill="none" xmlns="http://www.w3.org/2000/svg">
<path d="M18.5992 11.7501L13.3197 18.89C13.1802 19.0932 12.857 18.9963 12.857 18.7512L12.7499 15.0877C12.7499 15.0192 12.6933 14.9636 12.6234 14.9636H2.12647C2.05662 14.9636 2 14.908 2 14.8394L2.00001 8.28474C2.00001 8.21617 2.05663 8.16058 2.12648 8.16058H12.6234C12.6933 8.16058 12.7499 8.105 12.7499 8.03643L12.7499 4.24877C12.7499 4.0033 13.074 3.90667 13.2131 4.11069L18.5996 11.4733C18.6567 11.5571 18.6566 11.6665 18.5992 11.7501Z" stroke="black" stroke-width="1.64234" stroke-linecap="round"/>
<path d="M22.2559 4L22.2559 18.8905" stroke="black" stroke-width="1.64234" stroke-linecap="round"/>
</svg>
