<svg width="24" height="24" viewBox="0 0 24 24" fill="none" xmlns="http://www.w3.org/2000/svg">
<g clip-path="url(#clip0_823_94)">
<path d="M15.1134 16.2205C13.0326 16.2205 11.0841 15.2869 9.86981 13.7439C9.05252 14.0862 8.16518 14.2652 7.27005 14.2652C3.7622 14.2652 0.908203 11.6123 0.908203 8.35529C0.908203 5.09823 3.7622 2.44538 7.27005 2.44538C7.75523 2.44538 8.24044 2.49984 8.72044 2.60357C9.63372 1.02171 11.424 0 13.3855 0C15.1498 0 16.7636 0.803887 17.7443 2.1342C18.1854 2.01491 18.6395 1.95527 19.1013 1.95527C21.8022 1.95527 23.9998 4.0039 23.9998 6.52189C23.9998 8.14005 23.0736 9.62855 21.5999 10.4454C21.4546 13.6532 18.6005 16.2205 15.1109 16.2205H15.1134ZM10.1293 11.978C10.3913 11.978 10.6482 12.1102 10.7935 12.3514C11.6653 13.7777 13.3206 14.6645 15.1134 14.6645C17.8351 14.6645 20.0509 12.6548 20.0509 10.1861C20.0509 10.1576 20.0509 10.1316 20.0457 10.1031C20.0431 10.0668 20.0405 10.0305 20.0379 9.99419C20.025 9.67004 20.2118 9.36923 20.5127 9.24475C21.6855 8.74945 22.4431 7.68105 22.4431 6.5193C22.4431 4.85965 20.9434 3.5086 19.1013 3.5086C18.6213 3.5086 18.1568 3.60195 17.7158 3.78348C17.3499 3.93388 16.9271 3.78607 16.7376 3.43858C16.0994 2.27682 14.8151 1.55332 13.3855 1.55332C11.808 1.55332 10.3913 2.45835 9.86205 3.80422C9.71157 4.18801 9.28863 4.3851 8.89685 4.25803C8.36496 4.08428 7.8175 3.99612 7.27005 3.99612C4.621 3.99612 2.46494 5.94879 2.46494 8.3501C2.46494 10.7514 4.621 12.7041 7.27005 12.7041C8.14182 12.7041 9.00064 12.4863 9.75307 12.0713C9.87242 12.0065 10.0021 11.9754 10.1293 11.9754V11.978Z" fill="black"/>
<path d="M4.92953 19.8509C3.49992 19.8509 2.33496 18.6866 2.33496 17.2578C2.33496 15.8289 3.49992 14.6646 4.92953 14.6646C6.35913 14.6646 7.52409 15.8289 7.52409 17.2578C7.52409 18.6866 6.35913 19.8509 4.92953 19.8509ZM4.92953 16.2205C4.35613 16.2205 3.8917 16.6847 3.8917 17.2578C3.8917 17.8308 4.35613 18.295 4.92953 18.295C5.50292 18.295 5.96735 17.8308 5.96735 17.2578C5.96735 16.6847 5.50292 16.2205 4.92953 16.2205Z" fill="black"/>
<path d="M2.07565 23.9999C0.931449 23.9999 0 23.069 0 21.9254C0 20.7818 0.931449 19.8508 2.07565 19.8508C3.21985 19.8508 4.1513 20.7818 4.1513 21.9254C4.1513 23.069 3.21985 23.9999 2.07565 23.9999ZM2.07565 21.4067C1.79025 21.4067 1.55674 21.6401 1.55674 21.9254C1.55674 22.2106 1.79025 22.444 2.07565 22.444C2.36105 22.444 2.59456 22.2106 2.59456 21.9254C2.59456 21.6401 2.36105 21.4067 2.07565 21.4067Z" fill="black"/>
</g>
<defs>
<clipPath id="clip0_823_94">
<rect width="24" height="24" fill="white"/>
</clipPath>
</defs>
</svg>
