<svg width="24" height="24" viewBox="0 0 24 24" fill="none" xmlns="http://www.w3.org/2000/svg">
<path d="M17.4004 12.105C17.4004 11.4726 21.3004 8.09961 21.3004 8.09961V15.8996C21.3004 15.8996 17.4004 12.7374 17.4004 12.105Z" fill="black"/>
<path d="M21.2992 8.09994H22.0492V6.45969L20.8086 7.53267L21.2992 8.09994ZM21.2992 15.8999L20.8269 16.4825L22.0492 17.4736V15.8999H21.2992ZM13.7993 5.25018L5.69931 5.25L5.69928 6.75L13.7992 6.75018L13.7993 5.25018ZM1.94922 9L1.94924 14.9999H3.44925L3.44922 9H1.94922ZM5.69925 18.7499H7.72424H9.74923H11.7742H13.7992V17.2499H11.7742H9.74923H7.72424H5.69925V18.7499ZM17.5492 14.9999V9.00018H16.0492V14.9999H17.5492ZM13.7992 18.7499C15.8703 18.7499 17.5492 17.071 17.5492 14.9999H16.0492C16.0492 16.2426 15.0418 17.2499 13.7992 17.2499V18.7499ZM1.94924 14.9999C1.94924 17.071 3.62817 18.7499 5.69925 18.7499V17.2499C4.45659 17.2499 3.44925 16.2426 3.44925 14.9999H1.94924ZM5.69931 5.25C3.6282 5.24994 1.94921 6.92889 1.94922 9H3.44922C3.44922 7.75734 4.45662 6.74997 5.69928 6.75L5.69931 5.25ZM13.7992 6.75018C15.0419 6.75021 16.0492 7.75758 16.0492 9.00018H17.5492C17.5492 6.92916 15.8703 5.25024 13.7993 5.25018L13.7992 6.75018ZM21.2992 8.09994C20.8086 7.53267 20.8086 7.53267 20.8086 7.53267L20.8077 7.53345L20.8054 7.53546C20.8033 7.5372 20.8004 7.53975 20.7966 7.54308C20.7889 7.54974 20.7776 7.55952 20.7631 7.57221C20.7339 7.59759 20.6913 7.63473 20.6373 7.68207C20.5293 7.77675 20.3753 7.91241 20.1906 8.07711C19.8218 8.40609 19.3284 8.85273 18.8338 9.32061C18.3418 9.78606 17.8373 10.283 17.4518 10.7102C17.2605 10.9222 17.0845 11.1323 16.9518 11.3223C16.8858 11.4169 16.8195 11.522 16.767 11.6313C16.722 11.7249 16.6492 11.8971 16.6492 12.1053H18.1492C18.1492 12.2345 18.1069 12.3063 18.119 12.281C18.1236 12.2714 18.1411 12.2392 18.1818 12.181C18.2624 12.0655 18.3911 11.9083 18.5654 11.7151C18.9111 11.3321 19.3817 10.8672 19.8646 10.4103C20.345 9.95592 20.8267 9.51978 21.1891 9.19656C21.37 9.03516 21.5207 8.90238 21.626 8.81013C21.6786 8.76402 21.7198 8.72805 21.7478 8.70372C21.7618 8.69157 21.7724 8.6823 21.7795 8.67615C21.783 8.67309 21.7857 8.67078 21.7874 8.66928L21.7893 8.66763C21.7893 8.66763 21.7898 8.66721 21.2992 8.09994ZM16.6492 12.1053C16.6492 12.3159 16.7234 12.4888 16.7704 12.584C16.8246 12.6938 16.8927 12.7979 16.9597 12.8904C17.0944 13.0761 17.2724 13.2788 17.4645 13.4813C17.8517 13.8894 18.3576 14.3603 18.85 14.7995C19.3452 15.2412 19.8391 15.6616 20.2082 15.9709C20.393 16.1257 20.5471 16.2532 20.6552 16.3421C20.7093 16.3866 20.7519 16.4214 20.7812 16.4453C20.7958 16.4572 20.8071 16.4664 20.8148 16.4727C20.8186 16.4758 20.8216 16.4782 20.8236 16.4798L20.8259 16.4817L20.8269 16.4825C20.8269 16.4825 20.8269 16.4825 21.2992 15.8999C21.7716 15.3174 21.7716 15.3174 21.7716 15.3174L21.7692 15.3154C21.7675 15.314 21.7648 15.3119 21.7613 15.309C21.7542 15.3033 21.7436 15.2946 21.7297 15.2832C21.7018 15.2605 21.6606 15.2268 21.608 15.1835C21.5029 15.0971 21.3523 14.9726 21.1715 14.8211C20.8094 14.5177 20.3282 14.108 19.8484 13.6801C19.3659 13.2497 18.8967 12.8115 18.5527 12.4489C18.3791 12.2659 18.2524 12.1178 18.1738 12.0095C18.1343 11.955 18.1186 11.9264 18.1156 11.9204C18.1055 11.8998 18.1492 11.9738 18.1492 12.1053H16.6492ZM22.0492 15.8999V8.09994H20.5492V15.8999H22.0492Z" fill="black"/>
</svg>
