<svg width="24" height="24" viewBox="0 0 24 24" fill="none" xmlns="http://www.w3.org/2000/svg">
<path d="M21.5149 12.0007L23.7669 9.70853C24.0777 9.39212 24.0777 8.87884 23.7669 8.56243L22.6409 7.41633C22.33 7.09992 21.8258 7.09992 21.5149 7.41633L19.263 9.70853L17.011 7.41633C16.7002 7.09992 16.1959 7.09992 15.885 7.41633L14.759 8.56243C14.4482 8.87884 14.4482 9.39212 14.759 9.70853L17.011 12.0007L14.7595 14.2924C14.4487 14.6088 14.4487 15.1221 14.7595 15.4385L15.8855 16.5846C16.1964 16.901 16.7006 16.901 17.0115 16.5846L19.263 14.2929L21.5149 16.5851C21.8258 16.9015 22.33 16.9015 22.6409 16.5851L23.7669 15.439C24.0777 15.1226 24.0777 14.6093 23.7669 14.2929L21.5149 12.0007Z" fill="black"/>
<path d="M11.1556 3.57156C11.0169 3.3601 10.8197 3.19525 10.589 3.09786C10.3581 3.00053 10.104 2.97508 9.85895 3.02475C9.61387 3.07441 9.38877 3.19695 9.21212 3.37687L4.52964 8.14304H1.26315C0.928139 8.14304 0.606853 8.2785 0.369967 8.51962C0.133081 8.76074 0 9.08777 0 9.42876V14.5717C0 14.9127 0.133081 15.2397 0.369967 15.4808C0.606853 15.7219 0.928139 15.8574 1.26315 15.8574H4.52964L9.21212 20.6236C9.38878 20.8033 9.61382 20.9257 9.85882 20.9753C10.1038 21.0249 10.3577 20.9994 10.5885 20.9021C10.8193 20.8049 11.0166 20.6401 11.1554 20.4287C11.2942 20.2173 11.3683 19.9688 11.3683 19.7146V4.28587C11.3684 4.0316 11.2944 3.78302 11.1556 3.57156Z" fill="black"/>
</svg>
