<svg width="24" height="24" viewBox="0 0 24 24" fill="none" xmlns="http://www.w3.org/2000/svg">
<g clip-path="url(#clip0_2937_965)">
<mask id="mask0_2937_965" style="mask-type:luminance" maskUnits="userSpaceOnUse" x="0" y="0" width="24" height="24">
<path d="M24 0H0V24H24V0Z" fill="white"/>
</mask>
<g mask="url(#mask0_2937_965)">
<path d="M1 9.06628C1 8.51393 1.44777 8.06615 2.00013 8.06615H5.00051C5.00051 8.06615 6.47906 6.49472 7.50083 5.56583C8.3478 4.79586 9.51332 3.89248 10.4461 3.19632C11.095 2.712 12.0014 3.17963 12.0014 3.98935V20.144C12.0014 20.9537 11.095 21.4213 10.4461 20.937C9.51332 20.2408 8.3478 19.3374 7.50083 18.5675C6.47906 17.6386 5.00051 16.0672 5.00051 16.0672H2.00013C1.44777 16.0672 1 15.6194 1 15.0671V9.06628Z" fill="black"/>
</g>
<path d="M21.4766 9L15 15.5334" stroke="black" stroke-width="2.47814" stroke-linecap="round"/>
<path d="M21.4766 15.5334L15 9" stroke="black" stroke-width="2.47814" stroke-linecap="round"/>
</g>
<defs>
<clipPath id="clip0_2937_965">
<rect width="24" height="24" fill="white"/>
</clipPath>
</defs>
</svg>
