<svg width="20" height="26" viewBox="0 0 20 26" fill="none" xmlns="http://www.w3.org/2000/svg">
<path d="M4.66719 17.1585C3.92098 18.0419 3.7256 19.3184 4.27226 20.4203C4.81328 21.5109 5.9302 22.1262 7.07273 22.0809M15.0728 17.8089L13.8456 23.1433C13.6581 23.9582 14.2771 24.7357 15.1133 24.7357H15.9948C16.6371 24.7357 17.1832 24.267 17.2806 23.6321L18.3448 16.6917C18.4577 15.9553 17.9304 15.2748 17.1892 15.2002L13.8538 14.8647C13.4428 14.8234 13.174 14.4144 13.299 14.0208L14.5823 9.97822C15.1149 8.30065 13.8627 6.5894 12.1026 6.5894H7.14873C6.80819 6.5894 6.48123 6.72294 6.23806 6.96134L3.07823 10.0592C2.40423 10.72 2.63627 11.8561 3.5154 12.1997L3.72336 12.2809C4.18172 12.4601 4.70192 12.3652 5.06754 12.0358L7.70972 9.65546C7.94865 9.44022 8.25883 9.32111 8.58041 9.32111H10.0148C10.5287 9.32111 10.8396 9.88901 10.5628 10.3219L9.4142 12.1179M12.6337 19.0772C12.6337 22.2382 10.0712 24.8008 6.91013 24.8008C3.74907 24.8008 1.18652 22.2382 1.18652 19.0772C1.18652 15.9162 3.74907 13.3536 6.91013 13.3536C10.0712 13.3536 12.6337 15.9162 12.6337 19.0772ZM17.6419 3.30485C17.6419 4.6878 16.5208 5.80891 15.1378 5.80891C13.7548 5.80891 12.6337 4.6878 12.6337 3.30485C12.6337 1.92189 13.7548 0.800781 15.1378 0.800781C16.5208 0.800781 17.6419 1.92189 17.6419 3.30485Z" stroke="black" stroke-width="1.5" stroke-linecap="round"/>
</svg>
