<svg width="109" height="57" viewBox="0 0 109 57" fill="none" xmlns="http://www.w3.org/2000/svg">
<path d="M30.0956 55.1149C30.0956 55.1149 18.43 46.5855 13.8511 38.8704C9.13684 30.9272 7.35331 16.1281 7.35331 16.1281L1.93848 7.46435L12.7681 4.21545L18.183 10.7132L12.7681 13.9621C12.7681 13.9621 15.304 27.0317 20.3489 33.4555C24.6332 38.9108 35.5104 42.1193 35.5104 42.1193C35.5104 42.1193 40.3267 40.9965 43.0912 38.8704C46.393 36.331 47.423 32.3726 47.423 32.3726C47.423 32.3726 40.1061 29.7508 37.6764 25.8748C34.5315 20.858 34.9241 15.9556 37.6764 10.7132C40.5116 5.31276 44.6687 3.12876 50.6719 2.04952C55.7359 1.13915 59.434 1.29161 63.6675 4.21545C68.9681 7.87618 70.8491 12.9716 70.1653 19.377C69.5179 25.442 61.5016 32.3726 61.5016 32.3726C61.5016 32.3726 61.2306 34.8752 62.5846 36.7065C64.3977 39.1588 69.0824 41.0384 69.0824 41.0384C69.0824 41.0384 80.88 36.5386 86.4098 31.2896C91.4407 26.5142 97.2395 17.211 97.2395 17.211L90.7417 13.9621L92.9076 7.46435L106.986 9.63235L104.82 19.377C104.82 19.377 99.1111 31.0645 92.9076 37.7895C88.0243 43.0833 77.7461 52.951 77.7461 52.951" stroke="black" stroke-width="2"/>
<path d="M58.3311 15.048C59.537 15.9226 60.5331 17.5185 61.5828 20.6217C61.5298 22.3331 60.6116 24.1804 59.0489 25.6356C57.4494 27.1252 55.25 28.1293 52.8385 28.1293C50.427 28.1293 48.2276 27.1252 46.6281 25.6356C45.0422 24.1588 44.1201 22.2782 44.0924 20.5456C44.6141 17.4956 45.6108 15.9328 46.9064 15.0711C48.2682 14.1655 50.1674 13.8848 52.8385 13.8848C55.5043 13.8848 57.1143 14.1654 58.3311 15.048Z" stroke="black" stroke-width="2"/>
<path d="M53.9229 8.55439C53.9229 8.55439 55.7006 6.78968 57.1717 6.38846C59.7523 5.68467 63.6695 8.55439 63.6695 8.55439" stroke="black" stroke-width="2" stroke-linecap="round"/>
<path d="M49.5905 8.54976C49.5905 8.54976 47.679 7.47453 46.3416 7.4668C43.6336 7.45114 40.9268 11.7987 40.9268 11.7987" stroke="black" stroke-width="2" stroke-linecap="round"/>
</svg>
