<svg width="1378" height="548" viewBox="0 0 1378 548" fill="none" xmlns="http://www.w3.org/2000/svg">
<path d="M1361 276.552C1361 276.552 1333.27 191.839 1293.8 154.149C1206.91 71.1971 1133.22 139.18 985.995 142.383C701.151 148.581 545.714 -14.6618 265.76 1.17224C143.932 8.0628 99.7563 22.501 43.9203 98.7509C1.62776 156.506 0 276.552 0 276.552C0 276.552 0.000411987 360.998 33.3346 398.706C113.712 489.631 227.764 407.448 374.973 404.396C659.791 398.49 816.089 512.117 1095.14 538.949L1100.34 539.45C1234.74 552.388 1308.82 559.52 1360.88 466.652C1397.15 401.951 1361 276.552 1361 276.552Z" fill="#C7CEEA"/>
</svg>
