<svg width="18" height="42" viewBox="0 0 18 42" fill="none" xmlns="http://www.w3.org/2000/svg">
<g clip-path="url(#clip0_1317_644)">
<mask id="mask0_1317_644" style="mask-type:luminance" maskUnits="userSpaceOnUse" x="0" y="0" width="18" height="42">
<path d="M0 0H18V42H0V0Z" fill="white"/>
</mask>
<g mask="url(#mask0_1317_644)">
<path d="M-0.000749588 5C-0.28975 8.46804 1.95775 11.6413 5.32505 12.5198L7.95725 13.2064C9.91338 13.7167 11.6061 14.944 12.6993 16.6445C14.4049 19.2977 14.4049 22.7023 12.6993 25.3555L12.5713 25.5545C11.5528 27.139 10.0325 28.3363 8.25345 28.9551L5.18585 30.022C1.83895 31.1862 -0.29505 34.4687 -0.000749588 38" fill="#FDFDFD"/>
<path d="M-0.000749588 5C-0.28975 8.46804 1.95775 11.6413 5.32505 12.5198L7.95725 13.2064C9.91338 13.7167 11.6061 14.944 12.6993 16.6445C14.4049 19.2977 14.4049 22.7023 12.6993 25.3555L12.5713 25.5545C11.5528 27.139 10.0325 28.3363 8.25345 28.9551L5.18585 30.022C1.83895 31.1862 -0.29505 34.4687 -0.000749588 38" stroke="#070D1C"/>
</g>
</g>
<defs>
<clipPath id="clip0_1317_644">
<rect width="18" height="42" fill="white" transform="matrix(-1 0 0 1 18 0)"/>
</clipPath>
</defs>
</svg>
