<svg width="20" height="42" viewBox="0 0 20 42" fill="none" xmlns="http://www.w3.org/2000/svg">
<g clip-path="url(#clip0_2593_943)">
<rect width="3" height="33" transform="matrix(-1 0 0 1 3 5)" fill="#FDFDFD"/>
<mask id="mask0_2593_943" style="mask-type:luminance" maskUnits="userSpaceOnUse" x="2" y="0" width="18" height="42">
<path d="M2 0H20V42H2V0Z" fill="white"/>
</mask>
<g mask="url(#mask0_2593_943)">
<path d="M2.5 5C2.5 8.5 3.95775 11.6413 7.32505 12.5198L9.95725 13.2064C11.9134 13.7167 13.6061 14.944 14.6993 16.6445C16.4049 19.2977 16.4049 22.7023 14.6993 25.3555L14.5713 25.5545C13.5528 27.139 12.0325 28.3363 10.2535 28.9551L7.18585 30.022C3.83895 31.1862 2.5 34.5 2.5 38" fill="#FDFDFD"/>
<path d="M2.5 5C2.5 8.5 3.95775 11.6413 7.32505 12.5198L9.95725 13.2064C11.9134 13.7167 13.6061 14.944 14.6993 16.6445C16.4049 19.2977 16.4049 22.7023 14.6993 25.3555L14.5713 25.5545C13.5528 27.139 12.0325 28.3363 10.2535 28.9551L7.18585 30.022C3.83895 31.1862 2.5 34.5 2.5 38" stroke="#070D1C"/>
</g>
</g>
<defs>
<clipPath id="clip0_2593_943">
<rect width="20" height="42" fill="white" transform="matrix(-1 0 0 1 20 0)"/>
</clipPath>
</defs>
</svg>
