<?xml version="1.0" encoding="UTF-8" standalone="no"?>
<!DOCTYPE svg PUBLIC "-//W3C//DTD SVG 1.1//EN" "http://www.w3.org/Graphics/SVG/1.1/DTD/svg11.dtd">
<svg height="100%" stroke-miterlimit="10" style="fill-rule:nonzero;clip-rule:evenodd;stroke-linecap:round;stroke-linejoin:round;" version="1.1" viewBox="0 0 1315 680" width="100%" xml:space="preserve" xmlns="http://www.w3.org/2000/svg" xmlns:vectornator="http://vectornator.io" xmlns:xlink="http://www.w3.org/1999/xlink">
<defs>
<linearGradient gradientTransform="matrix(1 0 0 1 0 0)" gradientUnits="userSpaceOnUse" id="LinearGradient" x1="1.05693e-13" x2="1315" y1="340" y2="340">
<stop offset="0" stop-color="#e2f0cb"/>
<stop offset="1" stop-color="#b6ead7"/>
</linearGradient>
</defs>
<g id="Ebene-5" vectornator:layerName="Ebene 5">
<path d="M1.05693e-13 0L1315 0L1315 680L1.05693e-13 680L1.05693e-13 0Z" fill="url(#LinearGradient)" fill-rule="nonzero" opacity="1" stroke="none" vectornator:layerName="Rechteck 1"/>
</g>
<clipPath id="ArtboardFrame">
<rect height="680" width="1315" x="0" y="0"/>
</clipPath>
<g clip-path="url(#ArtboardFrame)" id="Ebene-6" vectornator:layerName="Ebene 6">
<path d="M0 405.267L1317.73 405.267L1317.73 654.346L0 654.346L0 405.267Z" fill="#7d8ca3" fill-rule="nonzero" opacity="1" stroke="none" vectornator:layerName="Rechteck 1"/>
<path d="M0 203.177L988.095 203.177L988.095 405.267L0 405.267L0 203.177Z" fill="#7d8ca3" fill-rule="nonzero" opacity="1" stroke="none" vectornator:layerName="Rechteck 2"/>
<path d="M2.41585e-13 58.7597L740.001 58.7597L740.001 187.91L2.41585e-13 187.91L2.41585e-13 58.7597Z" fill="#7d8ca3" fill-rule="nonzero" opacity="1" stroke="none" vectornator:layerName="Rechteck 3"/>
<g opacity="1" vectornator:layerName="Kurve 1">
<path d="M985.188 202.281C984.686 202.282 984.28 202.686 984.281 203.188C984.329 203.835 984.456 204.476 984.438 205.125C984.4 206.43 984.044 207.696 983.969 209C983.894 210.294 983.924 211.611 983.875 212.906C983.754 216.148 983.697 219.382 983.656 222.625C983.516 233.639 983.746 244.673 983.812 255.688C983.871 265.405 983.962 275.127 983.938 284.844C983.931 287.436 983.862 290.001 983.875 292.594C983.938 305.55 984.01 318.512 983.969 331.469C983.94 340.535 984.181 349.623 984.031 358.688C983.86 369.054 983.739 379.413 983.688 389.781C983.695 391.601 985.181 393.07 987 393.062C988.819 393.055 990.289 391.569 990.281 389.75C990.214 384.563 990 379.405 989.938 374.219C989.607 346.996 988.828 319.749 988.188 292.531C988.111 289.292 987.919 286.083 987.844 282.844C987.647 274.426 987.461 265.981 987.312 257.562C987.106 245.907 987.138 234.247 986.844 222.594C986.746 218.708 986.553 214.822 986.469 210.938C986.455 210.29 986.509 209.647 986.469 209C986.388 207.696 986.012 206.43 985.969 205.125C985.947 204.476 986.049 203.836 986.094 203.188C986.093 202.686 985.688 202.28 985.188 202.281Z" fill="#7d8ca3" stroke="none"/>
</g>
<g opacity="1" vectornator:layerName="Kurve 2">
<path d="M736.531 58.8125C734.79 58.9 733.444 60.3842 733.531 62.125C733.279 65.2949 733.761 68.4905 733.938 71.6562C734.293 78.0284 734.636 84.4315 734.781 90.8125C735.258 111.704 735.317 132.573 735.531 153.469C735.613 161.438 735.658 169.436 735.75 177.406C735.765 178.706 735.699 180.015 735.75 181.312C735.784 182.183 735.967 183.041 736.062 183.906C736.11 184.335 736.128 184.757 736.156 185.188C736.184 185.617 736.066 186.066 736.219 186.469C736.405 186.96 736.823 187.351 737.125 187.781C737.125 188.035 737.34 188.219 737.594 188.219C737.848 188.219 738.062 188.035 738.062 187.781C738.365 187.352 738.782 186.959 738.969 186.469C739.122 186.066 739.003 185.617 739.031 185.188C739.06 184.758 739.077 184.335 739.125 183.906C739.222 183.042 739.401 182.182 739.438 181.312C739.492 180.016 739.449 178.705 739.469 177.406C739.584 169.884 739.685 162.365 739.812 154.844C739.994 144.118 740.05 133.382 740.188 122.656C740.318 112.431 740.491 102.194 740.438 91.9688C740.402 85.1082 740.489 78.2664 740.344 71.4062C740.276 68.2111 740.418 64.9679 739.844 61.8125C739.756 60.0717 738.272 58.725 736.531 58.8125Z" fill="#7d8ca3" stroke="none"/>
</g>
</g>
<g id="Ebene-7" vectornator:layerName="Ebene 7"/>
<g clip-path="url(#ArtboardFrame)" id="Ebene-3" vectornator:layerName="Ebene 3">
<path d="M1119.57 656.015L1119.84 479.478C1119.84 479.478 1123.38 460.43 1131.51 460.95C1139.65 461.471 1197.23 460.535 1197.23 460.535L1317.34 459.953L1317.73 655.572L1119.57 656.015Z" fill="#f2eee9" fill-rule="nonzero" opacity="1" stroke="none" vectornator:layerName="Kurve 1"/>
<path d="M1115.06 655.32L1114.28 482.759C1114.28 482.759 1115 470.626 1110.08 466.097C1105.17 461.567 1089.11 460.182 1089.11 460.182L1072.82 460.71L923.166 459.379L814.698 460.446C814.698 460.446 798.581 459.653 798.581 488.716C798.581 517.78 797.653 613.506 797.653 613.506L797.995 654.438L1115.06 655.32Z" fill="#f2eee9" fill-rule="nonzero" opacity="1" stroke="none" vectornator:layerName="Kurve 2"/>
<path d="M794.081 654.346L793.636 510.826L793.047 476.869C793.047 476.869 788.814 460.916 773.871 461.015C758.927 461.114 494.206 459.232 494.206 459.232C494.206 459.232 471.248 462.258 474.962 484.298C478.676 506.338 474.928 595.962 474.928 595.962L476.124 653.247L794.081 654.346Z" fill="#f2eee9" fill-rule="nonzero" opacity="1" stroke="none" vectornator:layerName="Kurve 3"/>
<path d="M472.119 652.719L472.208 507.132L471.978 475.555C471.978 475.555 469.481 462.779 456.78 462.131C444.079 461.484 188.153 460.719 188.153 460.719L164.187 462.791C164.187 462.791 154.633 466.418 154.611 476.232C154.589 486.047 154.584 654.734 154.584 654.734L472.119 652.719Z" fill="#f2eee9" fill-rule="nonzero" opacity="1" stroke="none" vectornator:layerName="Kurve 4"/>
<path d="M149.641 653.338L150.154 475.801C150.154 475.801 148.739 462.119 135.833 461.655C122.927 461.19-1.98394 461.679-1.98394 461.679L-2.02975 653.701L149.641 653.338Z" fill="#f2eee9" fill-rule="nonzero" opacity="1" stroke="none" vectornator:layerName="Kurve 5"/>
<path d="M962.965 392.848L964.203 295.377L963.319 253.452C963.319 253.452 961.019 244.43 945.806 243.722C930.592 243.015 756.474 242.467 756.474 242.467L675.498 245.173C675.498 245.173 661.307 249.856 663.283 267.824C665.258 285.792 666.651 391.431 666.651 391.431L962.965 392.848Z" fill="#f2eee9" fill-rule="nonzero" opacity="1" stroke="none" vectornator:layerName="Kurve 6"/>
<path d="M657.799 394.639L657.219 339.667L658.38 256.82C658.38 256.82 660.122 243.271 626.635 243.077C593.148 242.884 381.011 243.855 381.011 243.855C381.011 243.855 359.896 240.679 360.014 277.116C360.131 313.552 358.94 393.623 358.94 393.623L657.799 394.639Z" fill="#f2eee9" fill-rule="nonzero" opacity="1" stroke="none" vectornator:layerName="Kurve 7"/>
<path d="M353.14 394.042L353.882 258.589C353.882 258.589 357.095 245.241 334.602 244.252C312.109 243.264 200.23 242.115 173.328 242.789C146.427 243.462 67.5701 244.414 67.5701 244.414C67.5701 244.414 57.9366 240.721 54.3432 272.181C51.7884 294.548 54.771 340.67 55.2659 391.604" fill="#f2eee9" fill-rule="nonzero" opacity="1" stroke="none" vectornator:layerName="Kurve 8"/>
<path d="M50.4236 392.378L49.6657 339.175L50.1204 262.326" fill="#f2eee9" fill-rule="nonzero" opacity="1" stroke="none" vectornator:layerName="Kurve 9"/>
<path d="M50.6201 391.826L50.3315 328.633L49.6102 255.197C49.6102 255.197 43.1177 242.789 28.6901 242.933C14.2625 243.077-2.76216 243.077-2.76216 243.077L-3.77209 391.971L50.6201 391.826Z" fill="#f2eee9" fill-rule="nonzero" opacity="1" stroke="none" vectornator:layerName="Kurve 10"/>
<path d="M718.812 188.688L720.208 107.671C720.208 107.671 717.939 90.859 709.036 90.6801C700.134 90.5013 588.445 91.1215 588.445 91.1215L476.694 90.2186C476.694 90.2186 439.855 86.4204 438.465 109.209C437.075 131.998 438.465 189.92 438.465 189.92L718.812 188.688Z" fill="#f2eee9" fill-rule="nonzero" opacity="1" stroke="none" vectornator:layerName="Kurve 11"/>
<path d="M433.232 189.631L433.787 103.783C433.787 103.783 433.904 94.4213 428.036 93.5716C422.169 92.7219 354.53 91.2438 354.53 91.2438L163.46 91.574C163.46 91.574 144.498 91.0752 144.579 105.115C144.659 119.154 145.273 188.795 145.273 188.795L433.232 189.631Z" fill="#f2eee9" fill-rule="nonzero" opacity="1" stroke="none" vectornator:layerName="Kurve 12"/>
<path d="M140.974 188.768L140.156 101.071C140.156 101.071 134.785 90.3281 124.976 90.4448C115.167 90.5616-3.11764 91.4141-3.11764 91.4141L-2.22961 190.201L140.974 188.768Z" fill="#f2eee9" fill-rule="nonzero" opacity="1" stroke="none" vectornator:layerName="Kurve 13"/>
</g>
<g clip-path="url(#ArtboardFrame)" id="Ebene-8" vectornator:layerName="Ebene 8">
<path d="M5.77316e-14 391.604L1315 391.604L1315 405.267L5.77316e-14 405.267L5.77316e-14 391.604Z" fill="#070d1c" fill-rule="nonzero" opacity="1" stroke="none" vectornator:layerName="Rechteck 1"/>
<path d="M3.19744e-14 187.91L1002.06 187.91L1002.06 203.177L3.19744e-14 203.177L3.19744e-14 187.91Z" fill="#070d1c" fill-rule="nonzero" opacity="1" stroke="none" vectornator:layerName="Rechteck 2"/>
<path d="M1.7053e-13 48.7427L753.512 48.7427L753.512 58.8563L1.7053e-13 58.8563L1.7053e-13 48.7427Z" fill="#070d1c" fill-rule="nonzero" opacity="1" stroke="none" vectornator:layerName="Rechteck 3"/>
<path d="M740.129 65.1411L753.438 58.7869" fill="#070d1c" fill-rule="nonzero" opacity="1" stroke="none" vectornator:layerName="Kurve 1"/>
<path d="M740.001 58.7597L740.063 65.5669L753.512 58.8563L740.001 58.7597Z" fill="#070d1c" fill-rule="nonzero" opacity="1" stroke="none" vectornator:layerName="Kurve 2"/>
<path d="M988.154 202.756L988.095 207.769L1001.85 202.902L988.154 202.756Z" fill="#070d1c" fill-rule="nonzero" opacity="1" stroke="none" vectornator:layerName="Kurve 3"/>
</g>
<g id="Ebene-11" vectornator:layerName="Ebene 11">
<path d="M790.316 652.215L794.271 652.215L794.043 539.984L794.271 492.861C794.271 492.861 796.39 470.343 789.414 469.608C788.207 469.481 788.826 491.051 789.699 539.117C790.572 587.182 790.309 652.215 790.316 652.215Z" fill="#c3c6d6" fill-rule="nonzero" opacity="1" stroke="none" vectornator:layerName="Kurve 1"/>
<path d="M1115.06 652.431L1114.84 533.161C1114.84 533.161 1117.05 489.098 1113.16 471.413C1111.52 463.938 1106.07 463.976 1106.07 463.976C1106.07 463.976 1108.67 473.96 1108.93 481.169C1110.37 522.062 1109.7 627.61 1109.7 627.61L1109.49 652.431" fill="#c3c6d6" fill-rule="nonzero" opacity="1" stroke="none" vectornator:layerName="Kurve 2"/>
<path d="M472.628 651.839L472.444 545.473C472.444 545.473 472.804 498.006 472.368 477.247C472.208 469.607 465.576 465.349 465.576 465.349L468.232 560.584L467.133 652.431L472.628 651.839Z" fill="#c3c6d6" fill-rule="nonzero" opacity="1" stroke="none" vectornator:layerName="Kurve 3"/>
<path d="M149.851 652.8L150.052 506.976C150.052 506.976 150.154 478.965 150.154 473.96C150.154 469.607 143.614 463.976 143.614 463.976L144.034 561.534L144.636 653.401" fill="#c3c6d6" fill-rule="nonzero" opacity="1" stroke="none" vectornator:layerName="Kurve 4"/>
<path d="M963.229 391.604C963.43 367.783 964.036 296.319 964.036 296.319C964.036 296.319 964.203 267.774 964.203 254.153C964.203 249.593 957.454 246.159 957.454 246.159L956.357 319.022L956.357 370.294L957.454 391.604" fill="#c3c6d6" fill-rule="nonzero" opacity="1" stroke="none" vectornator:layerName="Kurve 5"/>
<path d="M658.395 391.604C658.395 391.604 658.395 291.992 658.254 255.616C658.231 249.63 652.81 247.933 652.81 247.933L653.504 391.604L658.395 391.604Z" fill="#c3c6d6" fill-rule="nonzero" opacity="1" stroke="none" vectornator:layerName="Kurve 6"/>
<path d="M354.04 391.604C354.04 391.604 354.088 346.641 354.04 306.028C354.017 286.326 353.353 267.326 353.834 255.596C354.04 250.579 348.795 247.933 348.795 247.933L348.013 391.604L354.04 391.604Z" fill="#c3c6d6" fill-rule="nonzero" opacity="1" stroke="none" vectornator:layerName="Kurve 7"/>
<path d="M798.102 651.812L798.55 504.802C798.55 504.802 797.706 481.815 800.585 473.33C804.618 461.444 809.469 461.454 809.469 461.454L806.791 473.96L803.526 651.601" fill="#c3c6d6" fill-rule="nonzero" opacity="1" stroke="none" vectornator:layerName="Kurve 8"/>
<path d="M1119.57 652.431L1124.52 652.431L1124.19 516.001L1123.49 482.988L1122.89 469.607L1121.05 473.33L1119.57 478.681L1119.57 652.431Z" fill="#c3c6d6" fill-rule="nonzero" opacity="1" stroke="none" vectornator:layerName="Kurve 9"/>
<path d="M476.223 652.06L480.792 652.226L479.307 466.678C479.307 466.678 477.189 469.263 475.701 472.7C474.214 476.138 473.942 481.195 473.942 481.195" fill="#c3c6d6" fill-rule="nonzero" opacity="1" stroke="none" vectornator:layerName="Kurve 10"/>
<path d="M154.515 652.159L159.881 652.159L158.647 466.631C158.647 466.631 157.186 467.851 156.039 470.111C154.892 472.371 154.059 475.672 154.059 475.672" fill="#c3c6d6" fill-rule="nonzero" opacity="1" stroke="none" vectornator:layerName="Kurve 11"/>
<path d="M666.75 391.307L673.085 391.505L667.895 250.336C667.895 250.336 666.038 252.533 664.678 255.57C663.317 258.606 662.453 262.482 662.453 262.482" fill="#c3c6d6" fill-rule="nonzero" opacity="1" stroke="none" vectornator:layerName="Kurve 12"/>
<path d="M358.94 391.604L364.119 391.652L365.913 251.202C365.913 251.202 363.991 254.24 362.441 258.642C360.891 263.044 359.713 268.81 359.713 268.81" fill="#c3c6d6" fill-rule="nonzero" opacity="1" stroke="none" vectornator:layerName="Kurve 13"/>
<path d="M54.9934 391.604L59.6222 391.604C59.6222 391.604 52.6882 292.063 60.8851 256.113C61.0436 255.419 64.4871 244.615 64.4871 244.615C64.4871 244.615 57.8698 246.222 54.7861 258.201C51.7024 270.179 53.3218 293.16 53.3218 293.16" fill="#c3c6d6" fill-rule="nonzero" opacity="1" stroke="none" vectornator:layerName="Kurve 15"/>
<path d="M50.6201 391.604L46.3423 391.604L46.0273 260.029L44.1499 252.608L41.8037 246.86C41.8037 246.86 47.4855 249.828 49.6657 255.085" fill="#c3c6d6" fill-rule="nonzero" opacity="1" stroke="none" vectornator:layerName="Kurve 16"/>
<path d="M718.817 187.91L720.208 109.264C720.208 109.264 720.208 103.889 717.94 98.7539C716.071 94.5207 713.228 92.1201 713.228 92.1201L713.421 154.025L714.167 187.91" fill="#c3c6d6" fill-rule="nonzero" opacity="1" stroke="none" vectornator:layerName="Kurve 17"/>
<path d="M438.223 187.91L437.668 136.265C437.668 136.265 437.618 115.781 438.73 106.129C439.066 103.209 443.409 97.8291 443.409 97.8291L442.024 117.304L440.657 154.03L441.402 187.91" fill="#c3c6d6" fill-rule="nonzero" opacity="1" stroke="none" vectornator:layerName="Kurve 18"/>
<path d="M433.788 187.91L433.788 108.445C433.788 108.445 434.718 101.407 432.991 97.8291C431.265 94.2507 428.329 93.617 428.329 93.617L429.53 187.868" fill="#c3c6d6" fill-rule="nonzero" opacity="1" stroke="none" vectornator:layerName="Kurve 19"/>
<path d="M145.257 187.91C145.074 171.456 144.448 122.122 144.448 122.122L144.237 103.164L146.884 97.127L147.26 187.91" fill="#c3c6d6" fill-rule="nonzero" opacity="1" stroke="none" vectornator:layerName="Kurve 20"/>
<path d="M141.092 187.94L140.169 106.952C140.169 106.952 141.138 102.271 139.609 99.0403C138.08 95.81 134.055 94.031 134.055 94.031C134.055 94.031 136.766 101.45 136.843 103.607C137.674 127.085 138.216 187.91 138.216 187.91" fill="#c3c6d6" fill-rule="nonzero" opacity="1" stroke="none" vectornator:layerName="Kurve 21"/>
</g>
<g clip-path="url(#ArtboardFrame)" id="Ebene-4" vectornator:layerName="Ebene 4">
<path d="M1315.15 404.448L0 405.267L-0.182898 411.964L1314.86 410.403" fill="#070d1c" fill-rule="nonzero" opacity="0.353216" stroke="none" vectornator:layerName="Kurve 1"/>
<path d="M-0.182898 203.177L-0.182898 210.826L987.906 209.013L988.64 202.847" fill="#070d1c" fill-rule="nonzero" opacity="0.353216" stroke="none" vectornator:layerName="Kurve 2"/>
<path d="M-0.182898 58.7597L-0.182898 65.1411L739.508 64.2183L740.293 58.9347" fill="#070d1c" fill-rule="nonzero" opacity="0.353216" stroke="none" vectornator:layerName="Kurve 3"/>
</g>
<g id="Ebene-2" vectornator:layerName="Ebene 2">
<path d="M0 643.142L1315 643.142L1315 680L0 680L0 643.142Z" fill="#070d1c" fill-rule="nonzero" opacity="1" stroke="none" vectornator:layerName="Rechteck 1"/>
</g>
</svg>
