<svg width="215" height="7010" viewBox="0 0 215 7010" fill="none" xmlns="http://www.w3.org/2000/svg">
<path d="M102 0C102 28.8856 62.3779 60.5 78.3779 110.5C94.3779 160.5 139.103 242.443 157.378 319C175.878 396.5 230.624 537.69 96.8842 711.455C78.378 735.5 -84.4073 950.429 113.378 1135.5C177.5 1195.5 181 1257 119.07 1251.5C61.0002 1246.34 -15 1162 14.0001 1310.5C43.0002 1459 287 2634.5 75.5001 2683C-30.7423 2707.36 23.0001 2517 135 2584C225.833 2638.34 253.5 2899 79.9998 3156.5C-13.0304 3294.57 19.9456 3387.25 103 3457.5C236 3570 32 3805.82 32 3731C32 3647.5 176.914 3598.13 145.5 3683C117 3760 63.0001 3757.5 25.0002 3857.5C6.39576 3906.46 25.0002 3998.5 45.878 4087.5C76.408 4217.65 112.5 4361 126 4526C139.5 4691 118.5 4904.5 90.3779 5116C62.319 5327.03 -41.6207 5882 49.2392 5743.5C97.2831 5670.27 70.469 5875.38 142.239 5815C236.739 5735.5 32.2392 6122.1 32.2392 6293C32.2392 6383.5 70.7529 6366.47 142.239 6508.5C213.725 6650.53 37.0971 6762.5 49.3778 6862.5C61.6585 6962.5 102 6954.5 102 7010" stroke="#B6EBD8" stroke-opacity="0.7" stroke-width="15"/>
</svg>
