<svg width="20" height="42" viewBox="0 0 20 42" fill="none" xmlns="http://www.w3.org/2000/svg">
<g clip-path="url(#clip0_2592_936)">
<rect x="17" y="5" width="3" height="33" fill="#FDFDFD"/>
<mask id="mask0_2592_936" style="mask-type:luminance" maskUnits="userSpaceOnUse" x="0" y="0" width="18" height="42">
<path d="M18 0H0V42H18V0Z" fill="white"/>
</mask>
<g mask="url(#mask0_2592_936)">
<path d="M17.5 5C17.5 8.5 16.0422 11.6413 12.6749 12.5198L10.0427 13.2064C8.08662 13.7167 6.3939 14.944 5.3007 16.6445C3.59508 19.2977 3.59508 22.7023 5.3007 25.3555L5.42868 25.5545C6.44724 27.139 7.96751 28.3363 9.74655 28.9551L12.8141 30.022C16.161 31.1862 17.5 34.5 17.5 38" fill="#FDFDFD"/>
<path d="M17.5 5C17.5 8.5 16.0422 11.6413 12.6749 12.5198L10.0427 13.2064C8.08662 13.7167 6.3939 14.944 5.3007 16.6445C3.59508 19.2977 3.59508 22.7023 5.3007 25.3555L5.42868 25.5545C6.44724 27.139 7.96751 28.3363 9.74655 28.9551L12.8141 30.022C16.161 31.1862 17.5 34.5 17.5 38" stroke="#070D1C"/>
</g>
</g>
<defs>
<clipPath id="clip0_2592_936">
<rect width="20" height="42" fill="white"/>
</clipPath>
</defs>
</svg>
