<svg width="359" height="2383" viewBox="0 0 359 2383" fill="none" xmlns="http://www.w3.org/2000/svg">
<path d="M13.4894 2.8896C10.667 -0.142125 5.92133 -0.311825 2.8896 2.51057C-0.142125 5.33296 -0.311825 10.0787 2.51057 13.1104L13.4894 2.8896ZM219.5 366L212.106 367.258L212.106 367.258L219.5 366ZM76 860L68.513 859.558L76 860ZM44.5 1863L37.0514 1862.12L44.5 1863ZM8 8C2.51057 13.1104 2.51045 13.1103 2.51103 13.1109C2.51216 13.1121 2.51343 13.1135 2.51568 13.1159C2.52018 13.1207 2.52747 13.1286 2.53753 13.1394C2.55764 13.1611 2.58883 13.1947 2.63092 13.2401C2.71511 13.331 2.84293 13.4693 3.01308 13.654C3.3534 14.0235 3.86302 14.5787 4.53157 15.3126C5.86868 16.7804 7.84129 18.9624 10.3662 21.8013C15.4163 27.4794 22.674 35.783 31.4741 46.252C49.0792 67.1959 72.8321 96.7768 97.4225 131.319C146.804 200.686 198.787 289.006 212.106 367.258L226.894 364.742C212.966 282.913 159.199 192.233 109.642 122.62C84.7636 87.6726 60.7503 57.7687 42.9564 36.6002C34.057 26.0131 26.7071 17.6036 21.5745 11.8327C19.008 8.94703 16.9954 6.72062 15.6202 5.21103C14.9326 4.45621 14.4043 3.88056 14.0457 3.49127C13.8664 3.29662 13.7295 3.14856 13.6364 3.04799C13.5898 2.9977 13.5542 2.95928 13.5296 2.93285C13.5173 2.91963 13.5078 2.90941 13.5011 2.9022C13.4978 2.89859 13.4949 2.89544 13.4932 2.89364C13.491 2.89124 13.4894 2.8896 8 8ZM212.106 367.258C227.669 458.688 195.686 532.651 157.273 608.73C119.071 684.39 74.2453 762.45 68.513 859.558L83.487 860.442C88.9947 767.136 131.923 692.216 170.663 615.491C209.191 539.183 243.338 461.353 226.894 364.742L212.106 367.258ZM68.513 859.558C62.8427 955.618 70.1588 1022.6 84.5843 1073.45C99.0422 1124.42 120.525 1158.75 142.438 1189.48C164.433 1220.33 186.133 1246.69 202.692 1283.02C219.123 1319.07 230.5 1365.13 230.5 1434.5H245.5C245.5 1363.37 233.809 1315.12 216.341 1276.8C199.002 1238.75 175.973 1210.67 154.651 1180.77C133.245 1150.75 112.818 1118.02 99.0149 1069.36C85.1793 1020.59 77.8827 955.382 83.487 860.442L68.513 859.558ZM149.5 2376.5C149.5 2347.01 142.133 2308.92 131.654 2266.69C121.155 2224.37 107.309 2177.06 94.105 2129.19C80.8647 2081.2 68.2224 2032.48 59.9421 1986.83C51.6485 1941.09 47.8265 1898.91 51.9486 1863.88L37.0514 1862.12C32.6735 1899.34 36.789 1943.22 45.1829 1989.5C53.5901 2035.86 66.3853 2085.12 79.6451 2133.18C92.9412 2181.38 106.658 2228.23 117.096 2270.3C127.555 2312.45 134.5 2348.99 134.5 2376.5H149.5ZM51.9486 1863.88C55.0051 1837.9 67.7433 1815.99 86.1573 1792.95C95.3749 1781.42 105.85 1769.79 117.102 1757.26C128.304 1744.78 140.213 1731.46 152.036 1716.79C199.648 1657.71 245.5 1576.99 245.5 1434.5H230.5C230.5 1573.01 186.197 1650.49 140.356 1707.38C128.815 1721.7 117.155 1734.74 105.939 1747.24C94.7726 1759.68 83.9806 1771.65 74.4394 1783.59C55.3357 1807.49 40.5892 1832.05 37.0514 1862.12L51.9486 1863.88Z" fill="#C1EEDE"/>
</svg>
