<svg xmlns="http://www.w3.org/2000/svg" width="298" height="264" fill="none" xmlns:v="https://vecta.io/nano"><g clip-path="url(#D)"><mask id="A" maskUnits="userSpaceOnUse" x="-134" y="0" width="461" height="977"><path d="M326.657 0H-133.715V976.141H326.657V0Z" fill="#fff"/></mask><g mask="url(#A)"><path d="M180.644 160.716a26.48 26.48 0 0 0-.208-5.793v-.016l-.092-.7c-.202-1.166-1.463-1.917-2.581-1.902-.151-.174-.321-.332-.504-.472-.239-.179-.51-.3-.766-.447-1.589-1.191-3.282-2.087-5.248-2.542-.08-.018-.158-.022-.236-.034l-.463-.299c-.951-1.422-2.158-2.581-4.023-2.64-1.643-.051-2.949 1.862-2.258 3.356-.013.616.195 1.246.698 1.777.051.054.095.114.143.169l-.036.22c-.249.39-.396.842-.369 1.321a11.29 11.29 0 0 1-.145 2.551 4.55 4.55 0 0 0-.464 1.535l-.042.113c-1.16 1.633-2.058 3.41-2.721 5.32l-2.636 3.683c-.074.105-.128.211-.181.316l-2.073 2.799a2.05 2.05 0 0 0-.229.489l-1.421 1.35c-.946.542-1.792 1.243-2.503 2.071l-1.136.934c-1.038.854-.879 2.184-.186 3.122l-.477.211c-2.833.432-5.702.891-8.251 2.245-.143.076-.273.168-.41.25a2.27 2.27 0 0 0-1.061.394c-.899.62-1.736 1.302-2.536 2.017-.243-.201-.512-.363-.797-.483l.3-.97c.453-1.471-.573-2.714-1.821-3.161-.666-1.837-3.537-2.639-4.701-.611-1.056-.957-2.779-1.175-3.713.102a2.62 2.62 0 0 0-3.521-.354c-.777-1.093-2.107-1.797-3.549-1.912a2.43 2.43 0 0 0-1.116-2.375c1.141-2.26-1.333-4.377-3.369-3.407-.295-.43-.705-.783-1.169-1.012-.13-.55-.484-1.027-.952-1.371-.133-.814-.613-1.536-1.257-1.961-.116-.705-.502-1.387-1.016-1.783-.256-.2-.55-.351-.861-.444a2.64 2.64 0 0 0-.449-.868c-.333-.43-.829-.751-1.37-.919-.206-.58-.621-1.102-1.131-1.466-.04-1.309-1.018-2.521-2.307-2.665 1.081-1.688-.094-3.65-1.827-3.98l.734-.445c2.216 1.45 5.18-1.906 3.171-4.29l-.835-.989c-.766-.91-2.256-.954-3.23-.417-5.33 2.933-10.119 6.753-14.163 11.297-1.593 1.792-.382 4.032 1.37 4.452-.008.628.271 1.225.716 1.695-.739.948-.695 2.025-.216 2.875l-2.539 2.526c-1.99 1.98.128 4.812 2.323 4.496.544.946 1.616 1.579 2.726 1.379l-.286.281c-2.136 2.016.227 4.856 2.558 4.306.075.129.159.251.254.366l-1.962 2.231c-2.185 2.527 1.192 5.977 3.687 3.687l.51-.486c.088 1.987 2.871 3.644 4.428 1.795l.239-.283c.563.411 1.245.624 1.895.51l-2.545 4.769c-1.494 2.87 2.758 5.391 4.357 2.547l.22-.396c1.085.432 2.344.203 3.255-.661.319-.301.487-.716.537-1.144l.928-.672.335.861c.569 1.316 2.468 1.563 3.581.94.293-.164.547-.355.783-.556.411.338.917.564 1.385.619 1.103.13 1.981-.361 2.612-1.251.051-.075.093-.153.143-.227.187.11.39.206.619.269.502.138 1.031.109 1.513-.052.636.373 1.469.424 2.195.191.03.037.044.075.074.111.927 1.068 2.74.959 3.71.008.829.38 1.855.38 2.699-.168.843.212 1.792.061 2.518-.596.583.579 1.333.999 2.168 1.106 1.555.198 2.693-.604 3.819-1.565l.37-.294c.547.892 1.542 1.448 2.789 1.06l2.715-.945c.535 1.163 1.91 2.032 3.19 1.625.995-.319 1.956-.695 2.89-1.108.573.505 1.389.759 2.367.528a20.37 20.37 0 0 0 5.104-1.973c.856.268 1.759.317 2.783.093 1.62-.356 2.092-1.687 1.781-2.891.512-.055.993-.273 1.371-.621.166-.156.308-.335.468-.497.682.118 1.389-.032 1.901-.514.978.886 1.715 1.909 3.274 1.863.51-.018 1.005-.17 1.437-.441.342-.02.703-.12 1.069-.335.925-.538 1.498-1.301 1.853-2.187.845-.939 1.805-1.785 2.396-2.945.945-1.86 1.406-4.013 1.965-6.009 1.208-4.3 2.163-8.711 2.161-13.198 0-1.018-.466-1.712-1.116-2.092l-.013.004zm56.798 304.938c-.256-.508-.635-.984-1.057-1.368s-.963-.741-1.522-.88c-.377-.092-.81-.182-1.2-.146-1.009.096-1.847.547-2.26 1.519-.37.881-.216 2.025.512 2.701l.791.749.021.034c-.361.721-.831 1.383-1.308 2.006l-.438.56.157-.208-.361.466c-.168.065-.337.13-.487.231-.379-.256-.852-.453-1.307-.418-1.234.097-2.378.389-3.465.997-.667.374-1.167.867-1.601 1.486-.101.149-.183.309-.245.479l-.225.253c-2.921.41-5.67 1.234-8.275 2.657-.247.137-.462.323-.638.542-.042 0-.08-.011-.122-.009l-5.96.16-1.727-.025c-1.769-.258-3.552-.363-5.34-.405-.313-.386-.781-.67-1.447-.764l-.711-.078c-.029-.013-.057-.014-.088-.01-2.753-.338-5.469-.426-8.226-.193-.846-.536-1.961-.676-2.798-.105-1.163-.598-2.823-.408-3.668.894-.873-.601-2.097-.657-3.026-.007-.701-.134-1.423-.031-1.969.401-1.139-.888-2.804-.917-3.763.699l-.05.092c-.319-.096-.655-.14-.993-.126-.95-.984-2.514-1.326-3.548-.339-.941-1.016-2.752-1.048-3.841-.045-1.156-.474-2.705.023-3.397 1.085l-.334.569c-.8-.357-1.784-.342-2.575.118-1.066-.496-2.476-.359-3.263.524-.888-1.123-2.552-1.635-3.658-.753-.59-.323-1.287-.441-1.952-.283-.921-.926-2.439-1.203-3.696-.019-.436.413-.822.848-1.19 1.297-.037-.047-.06-.097-.1-.143-1.163-1.333-3.396-.861-4.233.546l-.552.923c-1.066-.575-2.388-.315-3.238.579-1.268-.709-3.079-.399-3.849 1.347-1.196-1.047-3.179-1.062-4.036.63-.925 0-1.871.544-2.436 1.312-.308-.2-.649-.361-1.068-.418-1.003-.136-2.273.401-2.731 1.381-.803.008-1.603.312-2.104.944-.076-.035-.145-.086-.223-.111-.205-.245-.434-.474-.724-.663-.785-.512-1.668-.772-2.589-.869-1.986-.206-3.824.594-5.597 1.383-.429-.827-1.398-1.356-2.305-1.437a5.38 5.38 0 0 0-1.364.073 2.99 2.99 0 0 0-2.501-.833c-.082-.057-.154-.126-.244-.172-1.458-.726-2.696-.414-3.813.298-.031-.103-.04-.204-.08-.309-.461-1.177-1.273-1.664-2.182-1.761-.907-.956-2.632-1.338-3.792-.321l-.386.368c-.522-1.406-2.355-2.382-3.861-1.302-.793-1.162-2.031-1.462-3.121-1.049l-.09-1.173c-.038-.632-.296-1.232-.728-1.696s-1.011-.766-1.639-.852c-.426-2.518-3.954-2.749-5.013-.436-.329-.367-.747-.644-1.202-.819-.225-1.878-2.409-2.841-3.914-2.247-.607-.691-1.631-.982-2.579-.854a3.06 3.06 0 0 0-.944-.741c-.361-.181-.755-.29-1.158-.321-.692-.638-1.723-.838-2.648-.613-.617-2.004-3.116-2.694-4.592-1.11-.529-1.767-2.888-2.428-4.29-1.547-.323-.396-.686-.774-1.146-1.112-.892-.653-2.082-.472-2.953.138-.519-.495-1.146-.902-1.935-1.187-.852-.305-2.093.021-2.683.711a6.34 6.34 0 0 0-.703 1.018c-1.125-1.255-2.57-1.939-4.29-.894-1.012-1.708-3.728-2.541-4.722-.264-1.507-1.052-4.194-.282-4.028 1.966.016.231.067.443.097.665.573 4.25 3.291 7.274 6.405 10.078.438.394.895.623 1.345.726l1.7 1.954c.604.7 1.311.946 1.987.893 1.9 1.205 3.948 2.158 6.163 2.764.627.172 1.281.063 1.862-.22l.309 1.345c.441 1.576 2.573 2.71 4.046 1.646.136-.097.248-.202.365-.303 1.138 1.272 3.169 1.99 4.569 2.623l13.534 5.621c4.378 1.594 8.869 2.81 13.515 3.269 2.52.248 5.058.225 7.584.032l.306-.017c2.567.766 5.301.908 8 1.175.032.05.049.109.084.157a2.05 2.05 0 0 0 .584.489c.025.028.044.059.073.086.166.17.376.305.573.443a1.93 1.93 0 0 0 .233.135c.323.157.69.323 1.051.402.384.082.775.124 1.165.164a3.14 3.14 0 0 1 .42.103 2.65 2.65 0 0 0 1.221.246c-1.941 1.937-3.739 4.065-4.86 6.448-.321.685-.298 1.476.264 2.038.508.508 1.417.67 2.038.261 1.041-.683 2.027-1.465 2.988-2.284.076.009.152.038.229.04 1.402.008 2.013-.877 3.148-1.492 1.207-.653 2.665-.923 3.989-1.224 2.873-.654 5.765-1.043 8.695-1.322l.543-.058c.107.205.256.386.435.533a1.72 1.72 0 0 0 .608.325 1.69 1.69 0 0 0 .685.061 1.73 1.73 0 0 0 .658-.208c2.418-1.228 5.386-1.63 8.221-1.987 2.209.676 4.493.508 6.77.281l7.406-.999 4.031-.768c.393.264.896.399 1.519.323l.697-.096c4.231-.557 8.749-1.436 12.703-3.203 4.231-.703 8.294-2.315 12.396-3.612 5.272-1.668 10.598-3.181 15.903-4.744.357.073.737.085 1.13.042.455.18.982.256 1.578.17a78.29 78.29 0 0 0 8.579-1.742 2.52 2.52 0 0 0 1.244-.737c.999-.288 1.958-.707 2.89-1.263a3.25 3.25 0 0 0 .841-.263 33.39 33.39 0 0 0 4.766-2.768c.313-.218.578-.499.794-.812.115-.054.231-.111.337-.187.181-.132.343-.279.515-.417l.008.012.285-.247.504-.437 1.356-1.175c.279-.248.485-.565.598-.921 1.377-1.717 2.493-3.645 3.547-5.635.086-.162.153-.336.205-.512a12.03 12.03 0 0 0 1.171-1.07c.966-1.02 1.891-2.103 2.393-3.429.512-1.35.27-2.84-.366-4.099z" fill="#f2f0e7"/><path d="M84.008 165.116l-5.545 2.879c-5.748.544-20.092 3.074-25.36 1.888 0 0-1.5.298-7.625 3.387l-13.867 6.775-9.173 7.912c.09-.27-10.791 14.297-10.791 14.297l-6.115 15.825c.27 0-1.618 8.812-1.618 8.812s.36 14.298 0 18.883c-.396 13.884.729 22.025-4.406 33.112-2.29 6.713-8.039 21.151-11.151 27.491-1.725 6.737-9.051 15.068-5.126 23.379 4.113 8.736 5.1 14.839 5.396 21.85 0 0-.633 4.903 6.295 6.384s16.004 10.944 16.366 10.52c6.594 1.616 18.562 2.907 23.83-5.401l2.968.726 4.91-1.079s.307 2.607 5.253-2.697 8.6-8.667 8.6-8.667c-.928 1.045-1.12 8.709 1.927 9.119-1.648 4.686 1.163 10.409 3.318 14.461l.627 5.754c-1.205 2.997-4.088 8.684-5.873 11.354-1.111 3.622-1.659 11.552-1.77 15.599-3.479 13.458-14.826 20.851-10.52 36.341l3.287 3.624 2.584.934s-.416.875 6.07 0 13.142 1.013 13.142 1.013c6.919 2.382 21.576 7.814 28.241 10.817l14.055 3.846c.197-.054 13.074 1.385 13.074 1.385l18.109-.516c13.137-2.142 30.977-7.599 43.998-9.813 13.054-1.02 30.08.703 42.493-3.987-.197 0 1.106 1.112 4.346-5.819s2.388-11.176 2.323-11.373-2.942-11.03-2.713-11.267c-4.714-10.409-6.533-8.418-6.113-21.026l-6.999-19.282 1.58-24.427.459-10.03 4.101-12.87.466-8.722c-1.691-3.635-5.284-13.882-6.405-17.655l3.465-14.153c.012-6.074.627-17.874 2.025-23.794l6.747 15.034 1.435 14.247 5.95 29.06 1.341 5.116-.804 6.017c-.077.226 3.431 10.067 3.431 10.067l7.904 12.665-2.361 1.653-.323 3.104 3.559 3.626c-.069 17.44 12.6 35.244 15.011 52.117.875 5.034.563 16.048.447 21.093.304.023.074 7.083.074 7.083.346 1.733 1.238 5.907 2.734 7.168-3.513 2.863-3.631 9.547-3.404 13.576l2.313 4.982 2.793 2.41c7.534-2.275 37.042-8.118 42.003-.546 1.977-19.683-2.182-42.95-1.628-62.712.27-22.758-.961-50.973-8.714-72.633l2.015-3.059c.527-2.71-2.235-11.748-2.984-14.468l-5.742-24.755c-6.289-31.913-12.701-70.71-26.027-100.669l-11.11-18.029-10.665-9.338-9.099-3.878c-1.641-.672-20.136-7.233-20.359-7.233s-11.785-1.492-11.785-1.492c-5.44.64-16.564.912-22.023.609 0 0 .676 9.745.33 10.304s-7.024 14.897-7.402 15.03-8.164 7.844-8.415 7.928c-6.59 3.135-10.034 5.652-18.749 6.997-19.2 3.475-37.009 2.447-53.921-5.931 0 0-9.486-8.647-9.238-8.731s-4.417-8.165-4.417-8.165l-1.499-7.831.443-6.205z" fill="#585577"/><path d="M272.555 484.351l3.035 13.49s-.051 4.659 4.294 4.186l17.966-1.997 12.367-.448s4.482-.449 4.482-2.957.827-16.704.827-16.704-.021-2.921-6.025-3.815-17.116 0-17.116 0l-12.501 1.613-5.6 1.792s-3.129.28-1.729 4.84zM186.866 161.72l.797 6.537s-2.118 11.02-4.426 14.355-7.473 10.614-13.658 13.512-10.02 5.244-18.553 6.262-21.591 1.872-28.174.858-19.934-4.064-24.14-7.196-11.695-10.64-12.766-14.871-2.915-13.56-2.399-15.659 5.948-5.557 5.792-5.323 1.956 13.386 4.462 17.064 7.203 9.863 7.517 10.019 1.277 1.802 5.902 4.452l3.208-4.437s.884 1.048 4.416 2.219 31.58 1.726 31.58 1.726l16.7-4.183s2.525-.482 6.714-4.004l3.638 1.963s1.91-.928 3.205-4.593 5.238-14.141 4.93-14.264.147-8.628.147-8.628l5.11 4.192-.002-.001zM44.97 444.018c-.069.298 5.078 4.279 5.078 4.279s-2.128 1.03 7.823.069 26.146 6.244 26.146 6.244l20.106 7.958s24.398 5.011 34.468 3.021 25.946-3.809 33.61-7.068 27.861-3.775 27.861-3.775l21.343-1.165 7.822-1.991s2.069-.768 4.188-5.215 2.756-3.637 2.756-3.637l2.482 17.156.342 5.122s2.517.916-9.422 6.475-14.411 6.312-14.411 6.312l-15.442-.822-17.773.411-25.254 2.984-30.193 6.665h-15.443l-15.576-3.746c-.206-.069-23.607-9.813-23.607-9.813s-11.803-5.07-17.842-5.209-11.922.139-14.306.697-2.966 1.133-2.966 1.133-3.591.393-1.179-2.975 5.332-7.125 5.107-7.324 3.031-10.693 2.806-10.581 1.479-5.203 1.479-5.203l-.002-.002zm42.101-171.535c-.08.047-6.012 4.319-4.508 21.719s9.888 18.192 9.888 18.43 4.915 3.97 7.989 2.532 7.041-4.597 7.041-4.597l5.228-1.891c-.007.079 2.891-.473-3.581-6.09s-7.265-21.752-7.265-21.752v-7.117l9.551-2.38s1.513-7.521-8.204-5.133-16.138 6.279-16.138 6.279z" fill="#88889a"/><path d="M193.447 338.325c-5.045-7.311-8.357-16.516-16.971-20.539-1.035-1.311-2.579-2.505-4.093-3.101-2.233-2.332-3.882-5.507-6.461-7.383l-.642-1.085c.787.623 1.895.755 2.906.241 5.324-3.291 12.273 5.496 16.277-1.207 2.229-2.484-1.039-5.085-3.528-3.54-7.362-.078-11.716-6.254-17.92-9.081-1.381-1.001-2.577-3.139-4.556-2.039-2.501-5.497-3.261-13.089-7.614-17.23-4.832-14.529-21.936-8.105-32.314-4.229-2.73.202-18.06 2.25-16.159 6.097-1.332 6.785-.186 14.602 3.687 20.428-1.131 8.262 7.549.619 10.193-1.486.88 2.715 3.008 4.843 4.831 7.152 4.059 6.478 10.069 11.909 14.504 18.26-.038.875.442 1.723 1.257 2.115 1.404 2.799.487 6.508 2.906 8.85-.946.904-1.42 2.302-1.502 3.63-2.147 2.349-.76 11.121 3.435 7.637.848-3.843 9.215-9.131 5.532-12.191l-.302-1.832c.086-.008.166-.048.25-.063 1.271 1.644 3.899 2.594 5.64 3.694-1.628 4.453-1.143 9.276 2.015 12.942-2.057 1.886-3.211 4.793-2.982 7.595-1.519 2.835 2.818 5.2 4.193 2.209-.287.225.069-.373.143-.482-.011.14-.046.279-.103.407.93-2.032 2.287-3.809 3.719-5.492l-.116.09c.048-.048.111-.082.156-.132l-.082.065c.921-.554 1.315-1.694.992-2.728.388-4.928.571-9.801 1.778-14.627.781 1.437 2.315 2.296 3.842 2.7-.375 4.613 2.17 8.922 4.894 12.674-2.722 4.002-3.754 10.774-1.171 15.082.884 2.634 5.001 1.023 3.868-1.502.013-.074.013-.151.021-.227 1.704-2.661 2.636-5.733 5.095-7.937.454-1.11 1.553-2.339 1.348-3.637-1.811-4.856-3.32-9.812-3.253-15.082.806 1.666 2.852 2.325 4.566 2.604-.482 3.293 2.311 6.582 5.19 7.91-1.347 4.734-2.231 7.104.72 11.49 1.482 3.175 5.337.934 4.464-2.237.801-1.811.694-4.177 1.171-6.164.371-2.657 3.769-7.087.18-8.625l-.004.006zm-16.537-6.61c-.275-1.644-1.368-4.074-3.337-3.57-.296-.369-.604-.728-.908-1.087l3.265 1.679c.313.751.844 1.341 1.267 2.021-.144.296-.241.615-.287.957zm147.281 197.772c-.805-5.976-3.762-33.042-12.545-29.774-.485.014-1.077.253-1.416.463-1.218-.252-2.477-.077-3.625.397-5.79-.017-28.707-1.272-29.284 5.549-5.926 10.297-2.285 23.472-2.52 34.861-.762 10.657-.73 21.618-2.367 32.287-1.629 4.837 1.477 11.979 7.322 8.754 6.092-5.946 5.655-30.65 9.41-40.663.086.015.172.044.26.053-.025 4.864 4.672 9.043 6.388 13.617.216 3.27 1.515 6.147 1.897 9.297-4.751 1.501-7.124 6.846-9.429 10.869-2.818 6.113-9.466 8.512-13.464 13.53-2.602 2.652-2.554 12.436 2.753 9.349 6.3-7.778 13.148-15.219 20.478-21.876 1.503 11.66-4.904 22.961-2.061 34.251 2.143 4.816 8.544 10.885 9.967 2.065-.007.298-.007.598.006.898-1.358 1.79.831 4.21 2.99 3.864 3.108 2.93 5.138-1.476 3.946-4.263.736-16.02 5.783-31.976 5.7-48.156 1.576-5.24 3.557-11.595 3.416-17.024 1.792-5.905 2.802-12.153 2.178-18.348zM86.836 76.318c-.224 17.047 4.611 41.027 9.595 57.218 0 0 2.42 4.792 5.293 7.328s1.71 5.474 1.71 5.474c-.419 10.856 9.542 27.752 22.638 29.799 7.11 1.21 10.753 5.444 10.753 5.444l14.505-8.515 10.647-13.488c.589-2.452 2.845-10.084 1.886-12.552 4.665-5.54 7.725-6.289 10.833-15.877 3.234-18.555 5.794-37.925 8.543-53.897l-16.706-20.625-31.914-5.476-37.506 1.221-10.275 23.945-.002.002z" fill="#f2d6ca"/><path d="M105.88 84.323s-4.644 3.323 0 7.154 9.198 2.942 9.198 2.942l4.959-1.378s2.21-1.613 2.476-5.18-1.649-4.829-1.771-4.788-9.456-1.258-9.578-1.112-5.284 2.362-5.284 2.362zm41.422 1.003c-.122.04-1.813 3.077 1.005 5.141s6.31 4.923 10.868 3.713 5.996-3.502 5.914-3.542 2.67-1.891 1.012-6.681c-1.977-2.686-11.515-2.213-11.515-2.213l-6.76 1.927-.524 1.656z" fill="#fff"/><path d="M118.849 85.779c-.052-6.474-9.823-3.888-8.847 1.641.795 4.917 10.105 3.538 8.847-1.641zm43.42-.235c-.354-7.43-12.812-4.233-9.492 2.519 2.405 4.248 8.949 1.762 9.492-2.519z" fill="#3da5dd"/><path d="M146.995 136.229c-.55-1.789-2.573-2.376-4.16-1.459-1.416-.456-2.732.264-4.062.671-2.63.13-5.322.047-7.843-.66-1.282-1.263-3.387-.521-4.128 1.012-2.659 6.681 21.567 7.043 20.193.436z" fill="#f2c0c7"/><path d="M199.518 71.385c-.019-.01-.04-.012-.061-.022l.112.047-.051-.025z" fill="#d9884c"/><path d="M201.856 72.474c-.594-.781-1.811-.685-2.632-1.195.781-.822-.737-1.724-.94-2.75 0-.39-2.046-6.914-2.137-7.206-.654-6.677-3.651-22.627-4.973-29.214l-4.772-8.375s-5.843-6.524-5.746-6.217-9.933-7.806-9.933-7.806L155.92 4.309s-13.536-.441-13.127-.636-19.595-1.46-19.595-1.46-12.564 2.63-12.854 2.921-8.959 5.161-8.959 5.161c-1.96 2.234-5.504 5.828-7.493 8.47-.323-.682-.334-1.426-.201-2.15l-.04.285c.313-1.029-.783-2.057-1.755-1.479-1.358 1.276-.579 4.274.844 5.289-.6.885-1.03 1.566-1.001 1.659l-1.146-1.272-2.501.065-6.692 4.104-6.812 9.25-4.671 11.465c.195.367-.984 18.752-.25 18.916-.522 1.661-.256 3.572-1.207 5.112-.886 1.907 1.901 2.754 2.64.94-.031 1.586-.944 2.991-.63 4.609.327 2.422 3.954 3.126 4.726.631 2.214 4.429 5.59 11.754 5.242 16.458.222 1.663-2.099 3.965-.317 5.079.938.405 1.616-.486 1.901-1.282l-.619 4.583.632.374c-.203 1.923 1.964 6.814 4.067 4.209.346 4.949 5.832 6.169 3.293-.022.783.513-2.73-19.226-2.565-19.13 0 0 5.498-9.208 5.695-9.205s2.867-17.331 2.867-17.331l3.973-4.495s2.411-.586 3.685.064c4.138 1.474 7.865 1.798 11.435 2.67l12.894.52 20.045-3.142c1.749 2.654 6.067 3.221 8.907 2.438-.103.228 6.186 1.972 6.422 2.072l7.754 5.472 10.703 14.335c-.082 5.629-1.572 20.132-2.475 25.825-.573 6.16 5.558 5.403 5.008-.33l.266-.04.059-4.897c2.89 1.345 4.163-3.134 3.471-5.26.388-2.441 1.148-8.001 2.984-9.235l5.624 1.261-2.245-3.507-.529-3.171c2.157 1.397 5.081 1.528 7.542.931-1.257-1.274-6.616-7.382-7.542-9.208l5.106 1.456.094-.315c1.045 1.003 4.107 1.288 3.285-.897l-.002.006z" fill="#d9884c"/><path opacity=".29" d="M110.817 120.073c13.087-.126 23.628-7.518 23.54-16.509s-10.766-16.178-23.855-16.052-23.628 7.518-23.54 16.509 10.766 16.178 23.855 16.052z" fill="url(#B)"/><path opacity=".29" d="M158.856 120.073c13.087-.126 23.628-7.518 23.54-16.509s-10.766-16.178-23.855-16.052-23.628 7.518-23.54 16.509 10.766 16.178 23.855 16.052z" fill="url(#C)"/><path d="M135.75 180.17c-.735-1.192-2.214-2.027-3.408-2.711-1.331-.762-2.766-1.397-4.246-1.801-2.93-.798-6.203-.712-8.948.664-2.667 1.338-4.573 3.706-6.325 6.045-2.168 2.894-4.336 5.939-6.09 9.104-.275.495.381 1.024.791.611 2.331-2.346 4.402-5.009 6.445-7.603 1.643-2.085 3.206-4.39 5.485-5.84 2.424-1.543 5.41-1.943 8.202-1.373 1.387.283 2.717.767 3.974 1.417 1.228.632 2.359 1.64 3.666 2.081.336.114.636-.303.456-.594h-.002zm38.27 4.38c-2.149-2.645-5.591-4.209-8.621-5.622-3.257-1.517-6.603-3.217-10.164-3.864-1.685-.306-3.389-.388-5.078-.276l1.259-.88c2.019-1.516 3.804-3.282 5.41-5.227 3.349-4.051 6.487-8.863 7.924-13.96.412-1.465.67-3.008.659-4.533a15.25 15.25 0 0 0-.121-1.721c-.064-.413-.15-.823-.259-1.226-.004-.018 0-.036 0-.054-.149-.539-.335-1.059-.623-1.498-.665-1.01-2.103-.353-1.895.799.149.832.487 1.612.6 2.457.111.824.105 1.672.03 2.498-.143 1.615-.615 3.203-1.195 4.71-1.114 2.893-2.73 5.631-4.455 8.199-1.649 2.455-3.532 4.718-5.687 6.743-1.074 1.008-2.212 1.915-3.425 2.744l-1.918 1.303c-.222.144-.46.278-.691.422-3.183.92-6.138 2.595-8.537 4.985-2.449 2.438-4.235 5.542-4.959 8.91-.084.379.103.639.355.753-2.697-.059-5.397-.188-8.092-.353-2.008-.123-4.031-.234-6.025-.518-2.095-.299-4.054-.963-6.088-1.509-.741-.198-1.049.754-.491 1.167 1.484 1.097 3.322 1.574 5.106 1.942 1.88.387 3.794.591 5.702.776 3.771.375 7.555.596 11.345.665 7.389.122 14.858-.432 22.041-2.259 3.992-1.016 8.176-2.364 11.714-4.524 1.092-.667.137-2.144-.977-1.668-3.32 1.416-6.565 2.825-10.059 3.789-3.459.955-7.001 1.6-10.567 1.988-4.335.472-8.686.586-13.038.508a.72.72 0 0 0 .371-.403c2.122-5.334 6.197-9.907 11.692-11.85 2.892-1.023 6.052-1.363 9.089-.877 3.297.527 6.375 2.016 9.399 3.367 1.602.717 3.157 1.506 4.712 2.319 1.639.857 3.148 1.913 4.765 2.806.685.38 1.251-.469.794-1.03l-.002.002zm4.144-4.296c.049.037.13.089 0 0h0zm5.688-15.214c.028.02.036.034 0 0h0z" fill="#1d1d1b"/><path d="M245.821 171.575c-.671-.634-1.221-1.224-1.987-1.76s-1.614-.957-2.46-1.354c-1.7-.795-3.484-1.401-5.248-2.032l-11.482-3.791c-3.834-1.064-7.752-1.868-11.725-2.171-4.096-.313-8.169.104-12.243.481l-6.73.426c-2.139.033-4.279-.228-6.413-.09l-.344-.547c-.628-.864-1.446-1.508-2.282-2.158-.699-.544-1.355-1.183-2.172-1.505l-.069-.868c-.168-1.377-.308-2.857-1.41-3.834s-2.571-1.59-3.851-2.268c-3.32-1.755-6.779-3.45-10.374-4.541-.329-.101-.518.373-.232.545l8.035 4.518 3.968 2.369c.515.32 1.142.621 1.457 1.161.338.58.365 1.398.438 2.05.664 6.036-.604 12.067-2.57 17.756-.546 1.585-1.108 3.182-1.738 4.735-.59 1.458-1.525 3.031-1.656 4.611-.027.305.372.42.569.236.77-.719 1.287-1.747 1.75-2.755.017.027.032.057.048.084.084.131.173.252.29.357.092.082.185.161.281.237a6.8 6.8 0 0 0 .676.477c.103.065.212.125.321.18.092.045.189.099.288.121.077.017.151.005.228 0l-.012.005c.134.018.268.016.399-.006.186-.033.338-.213.386-.386.058-.207-.015-.378-.143-.536-.05-.064-.128-.113-.189-.166-.04-.04-.078-.103-.147-.145-.05-.03-.105-.052-.159-.076a9.17 9.17 0 0 1-.317-.15 5.48 5.48 0 0 1-.634-.38c-.048-.033-.096-.067-.143-.102-.016-.011-.031-.022-.044-.034-.13-.102-.266-.173-.407-.252a1.65 1.65 0 0 0-.312-.123l.142-.309c.695-1.469 1.385-2.927 1.979-4.44.151.161.305.288.489.41a4.49 4.49 0 0 0 .531.292c.39.188.793.375 1.211.492.287.079.693.105.865-.191.06-.1.077-.233.044-.348-.049-.178-.195-.284-.345-.37-.205-.115-.426-.18-.648-.259-.189-.069-.384-.131-.575-.195-.214-.074-.424-.159-.642-.221-.109-.03-.214-.069-.323-.095-.126-.032-.263-.037-.393-.052.603-1.593 1.14-3.213 1.604-4.853.144.109.285.22.447.307a4.9 4.9 0 0 0 .761.315c.24.081.481.144.728.192.145.027.296.064.439.066.179.003.349-.057.502-.148.22-.131.27-.45.082-.633-.112-.11-.244-.206-.393-.257-.109-.037-.231-.043-.346-.063-.239-.04-.479-.085-.716-.135l-.686-.151a14.7 14.7 0 0 0-.655-.114c.305-1.155.579-2.317.777-3.498.073-.432.132-.867.191-1.3.258.328.686.408 1.064.558l.123.055.099.055.027.018c-.01-.01-.008-.004-.025-.022a.79.79 0 0 0 .275.171c.032.015.051.025.072.036.054.037.102.057.155.078.149.057.352-.038.422-.173a.79.79 0 0 0 .058-.457.78.78 0 0 0-.212-.409 1.72 1.72 0 0 0-.642-.359c-.18-.051-.365-.07-.548-.103-.081-.015-.161-.03-.243-.039l-.082-.008a4.77 4.77 0 0 0-.333-.037c-.049-.004-.091.014-.133.031.189-1.604.282-3.217.244-4.831.617.768 1.549 1.419 2.13 2.06 1.246 1.377 1.588 3.223 1.603 5.024.027 3.688-.745 7.377-2.017 10.827-2.564 6.956-7.468 12.981-13.542 17.189-1.679 1.161-3.444 2.258-5.261 3.194-1.801.928-3.826 1.528-5.534 2.613-.319.201-.224.802.206.764 1.865-.168 3.668-1.049 5.355-1.811 1.784-.806 3.52-1.688 5.169-2.743 3.282-2.094 6.359-4.64 8.923-7.575 5.152-5.892 8.537-13.666 8.728-21.541.038-1.529-.067-3.189-.619-4.654 1.39.525 2.863.673 4.374.76 1.939.111 3.886.048 5.826-.058 3.968-.221 7.924-.64 11.903-.566 7.979.15 15.662 2.669 23.111 5.319l6.103 2.242 2.821 1.151c1.017.449 2.123.758 3.114 1.231.466.222 1.003-.357.581-.754l-.006.003zm-87.962 28.832c-6.726 1.05-13.339 2.336-20.165 2.581-6.747.24-13.511-.293-20.141-1.554-6.411-1.218-13.118-2.951-18.648-6.531-4.504-2.917-8.145-7.068-10.648-11.8-1.404-2.661-2.407-5.499-3.07-8.432-.323-1.438-.604-2.909-.619-4.386l-.057-4.686c0-.024-.013-.043-.015-.067a1.81 1.81 0 0 1 .099-.158c.013-.018.029-.037.042-.055a4.85 4.85 0 0 1 .29-.31c.501-.498 1.034-.966 1.551-1.446s1.035-.987 1.549-1.481l.724-.687a32.34 32.34 0 0 0 .21 2.35c.088.657.193 1.313.313 1.965-.224.035-.447.147-.625.248l-.894.512a16.48 16.48 0 0 0-1.841 1.236c-.267.211-.686.456-.783.805a.52.52 0 0 0 .241.59c.243.14.514.034.739-.087.613-.33 1.175-.761 1.755-1.144l.98-.666.506-.342c.046-.033.088-.071.134-.105a41.58 41.58 0 0 0 1.163 4.393c.006.014.011.026.015.039-.304.137-.596.327-.864.504-.373.247-.713.55-1.049.846a10.36 10.36 0 0 0-.879.843c-.157.176-.302.356-.413.565-.105.195-.204.376-.191.579-.004.033-.021.094-.013.143.021.173.128.321.321.321.055 0 .103-.016.153-.028.203.001.384-.127.552-.237a3.81 3.81 0 0 0 .522-.415c.294-.278.577-.572.871-.85.287-.272.592-.522.873-.8.157-.156.329-.309.493-.469a43.59 43.59 0 0 0 2.613 5.884c-.151.072-.292.172-.428.267a9.71 9.71 0 0 0-.588.452l-1.011.843a31.38 31.38 0 0 0-.951.85c-.166.155-.331.303-.476.48-.073.092-.153.192-.21.297-.069.126-.057.256-.076.385-.029.191.08.435.315.416.097-.009.195.001.29-.012.128-.02.246-.086.355-.155.212-.133.399-.301.583-.47l.97-.885.934-.865c.166-.152.334-.302.489-.464.088-.09.187-.183.279-.282.888 1.567 1.878 3.074 2.959 4.514-.159.136-.309.286-.457.427-.285.266-.546.553-.814.834a18.22 18.22 0 0 0-.749.85l-.39.472c-.084.108-.157.228-.185.365s-.004.27.019.408a.42.42 0 0 0 .151.22c.073.055.16.085.252.085a.87.87 0 0 0 .363-.073c.115-.049.216-.122.3-.215.126-.139.237-.299.353-.446l.755-.961.665-.87.275-.36c.873 1.105 1.817 2.152 2.823 3.137l.949.919c-.137.131-.277.261-.405.4l-.79.861c-.256.279-.495.576-.74.864l-.39.459-.174.203a1.21 1.21 0 0 0-.204.434c-.132.447.365.764.745.573.115-.057.22-.109.309-.204.061-.065.115-.14.17-.207l.361-.441c.264-.322.535-.64.787-.973l.682-.903c.113-.148.218-.301.321-.457.521.448 1.07.861 1.666 1.171.382.199.97-.245.657-.657-.915-1.195-2.102-2.177-3.11-3.291a46.56 46.56 0 0 1-3.038-3.708 42.61 42.61 0 0 1-4.564-7.871c-1.244-2.806-2.166-5.743-2.753-8.755a44.93 44.93 0 0 1-.669-4.732c-.122-1.41.076-3.061-.3-4.43.162.081.342.125.52.06.709-.255 1.161-.792 1.692-1.303l1.713-1.604a78.99 78.99 0 0 1 3.469-2.978 110.7 110.7 0 0 1 3.538-2.729l1.748-1.261c-.042.811-.008 1.634.011 2.357.042 1.585.226 3.177.604 4.717.781 3.173 2.164 6.196 3.96 8.922 1.729 2.625 3.805 5.016 6.153 7.107 2.245 2.002 4.848 4.076 7.696 5.119.159.059.253-.155.155-.264-1.008-1.109-2.216-1.992-3.308-3.013l-3.301-3.083c-2.083-2.052-4.021-4.269-5.607-6.728-1.649-2.554-2.911-5.349-3.685-8.291-.386-1.466-.707-2.973-.842-4.484-.067-.747-.094-1.496-.08-2.245.009-.569.072-1.132.059-1.695.078-.187.055-.413-.058-.584-.007-.045-.007-.09-.017-.134-.109-.538-.928-.631-1.176-.154-.044.084-.06.187-.098.276-.397.18-.775.43-1.127.653l-1.958 1.291c-1.289.878-2.535 1.816-3.757 2.785-1.196.946-2.365 1.928-3.505 2.94l-1.731 1.587c-.59.554-1.228 1.055-1.511 1.834a.63.63 0 0 0-.004.415c-.021-.003-.042-.008-.061-.009a.55.55 0 0 0-.518.382c-.367.933-.313 2.111-.269 3.154-.695.325-1.272.925-1.851 1.418l-1.807 1.553c-.533.471-1.112.921-1.589 1.449-.285.312-.571.715-.713 1.141-.212.133-.418.277-.64.399a9.9 9.9 0 0 1-1.7.715c-1.068.349-2.151.612-3.251.849-2.781.598-5.584 1.123-8.407 1.484a83.04 83.04 0 0 1-8.212.636c-1.373.037-2.747.041-4.12.012-1.303-.025-2.882-.363-4.134.027-.559.174-.792 1.077-.177 1.36 1.269.585 2.936.423 4.313.453a80.05 80.05 0 0 0 4.3-.029 85.07 85.07 0 0 0 8.804-.755c2.957-.408 5.893-.97 8.774-1.758 1.1-.301 2.201-.622 3.221-1.142a11.16 11.16 0 0 0 1.322-.769c-.265 2.334-.05 4.703.302 7.021.422 2.776 1.247 5.452 2.367 8.024 2.231 5.128 5.735 9.734 10.151 13.175 5.234 4.076 11.645 6.17 18.039 7.65 6.84 1.588 13.889 2.27 20.907 2.147 3.953-.07 7.895-.38 11.813-.92 3.947-.545 7.916-1.305 11.666-2.671.43-.155.258-.745-.187-.676zm-47.638-10.1c-.537.051-.986.669-1.322 1.039-.42.465-.791.973-1.14 1.49-.335.497-.636 1.013-.906 1.548l-.399.829c-.16.357-.212.647-.223 1.031-.014.405.55.663.829.344.21-.242.389-.456.517-.756l.348-.764.833-1.586.896-1.488.466-.726c.135-.21.311-.502.302-.758-.006-.101-.09-.213-.201-.203zm6.533 2.144c-.178.198-.275.464-.38.706l-.35.885-.557 1.654-.447 1.687c-.13.548-.35 1.264.038 1.748.092.112.275.112.39.049.485-.256.586-1.004.702-1.486l.411-1.574.451-1.562.239-.778c.07-.225.12-.602.229-.768.287-.435-.372-.953-.726-.561zm7.03 1.15c-.077-.127-.247-.178-.376-.1-.264.159-.325.422-.415.703l-.29.951-.407 1.808-.321 1.824-.134.917c-.053.389-.036.647.155.989.111.195.405.237.562.071.223-.239.326-.43.378-.758l.124-.921.296-1.901.323-1.832.141-.921c.046-.292.126-.567-.034-.832l-.002.002zm5.694.71c-.059-.235-.41-.286-.525-.069-.287.545-.363 1.15-.478 1.75l-.275 1.798-.24 1.835-.1.94c-.002.319.086.552.241.827.025.041.057.075.097.102s.085.042.132.047a.32.32 0 0 0 .14-.013.3.3 0 0 0 .118-.073c.216-.225.357-.427.432-.735s.095-.644.134-.961l.204-1.813.162-1.812c.033-.612.105-1.225-.044-1.823h.002zm6.222.275c-.076-.254-.416-.294-.556-.072-.284.45-.317 1.062-.391 1.577l-.182 1.569-.084 1.564c-.017.524-.111 1.219.176 1.681.181.295.634.317.81 0 .25-.45.166-1.062.162-1.56l.025-1.624.057-1.561c.027-.508.132-1.077-.017-1.574zm6.342.231c-.136-.269-.521-.231-.667 0s-.149.558-.179.835l-.096.85-.118 1.704-.092 1.704c.008.281.073.573.331.732.214.128.452.122.668.013.191-.095.239-.298.197-.481.002-.017.002-.012.006-.033l-.031-.21c.004.126.019-.16.017-.128l.031-.745.046-1.385.021-1.383c-.01-.456.076-1.058-.134-1.473zm7.108 3.131l-.118-1.57-.182-1.57c-.03-.235-.051-.503-.216-.688a.49.49 0 0 0-.632-.126c-.191.099-.218.34-.136.514.018.044.021.048.016.008l-.01.137-.006.313-.003.678.026 1.309c.037.898 0 1.836.167 2.722.055.287.384.468.655.426.307-.046.496-.281.517-.586.039-.52-.036-1.049-.076-1.569l-.002.002zm6.306.075c-.086-.22-.159-.445-.218-.675-.128-.475-.214-.96-.3-1.446l-.317-1.392c-.145-.476-.311-1.013-.653-1.383s-.869.028-.793.46c.08.461.271.9.352 1.362l.214 1.469.252 1.412c.128.517.29 1.245.869 1.413.323.094.59-.114.707-.399.109-.271-.012-.563-.113-.821zm6.201-2.501c-.115-.183-.216-.372-.308-.567l-.499-1.127c-.343-.825-.693-1.872-1.56-2.277-.279-.132-.619.084-.535.409.118.456.285.819.466 1.245.01.025.019.048.031.071l.061.158.118.321.21.621.508 1.318c.211.436.51 1.095 1.026 1.206.405.087.791-.182.801-.608.005-.307-.165-.523-.319-.77zm5.469-2.655c-.182-.283-.342-.464-.55-.756l-.648-.919-.785-1.072c-.269-.343-.512-.69-.894-.916-.151-.09-.415.022-.388.222.05.386.203.695.384 1.036l.575 1.007 1.184 1.862c.235.298.682.653 1.074.445.061-.028.116-.07.158-.124s.069-.118.079-.185c.048-.249-.063-.405-.189-.6zm4.764-3.071l-.027-.035c.04.06-.057-.132-.076-.16-.176-.276-.443-.498-.673-.729l-.611-.637-.665-.741-.34-.381a2.68 2.68 0 0 0-.407-.382c-.284-.214-.735.144-.611.469.055.15.128.293.216.425l.277.394.588.756.579.669c.201.223.401.464.632.658.138.123.291.227.457.309-.057-.027.023.015.029.018l.158.067c.115.036.237.045.348.002.187-.072.261-.264.223-.453a.72.72 0 0 0-.097-.249zm3.815-3.233l-.056-.096.035.086.015.1a.42.42 0 0 0-.14-.324c-.043-.039-.089-.076-.139-.106-.031-.018-.059-.039-.088-.06-.055-.044-.109-.093-.156-.146l-.174-.184-.077-.06a.26.26 0 0 0-.139-.045c-.082-.011-.174 0-.245.045a.46.46 0 0 0-.135.136c-.05.077-.067.207-.04.294.022.065.049.126.078.188.013.033.027.066.048.096.065.085.13.168.206.241a2.11 2.11 0 0 0 .244.198.67.67 0 0 0 .19.097c.032.013.061.015.097.022.055.012.111.01.164-.008l.048-.019.086-.021c.176-.051.283-.27.178-.434zm-51.594-5.375c-.019-.013-.066-.014-.068-.01.008 0 .03.004.053.01h.015z" fill="#1d1d1b"/><path d="M126.591 179.304a1.69 1.69 0 0 0-.38-.516c-.19-.165-.482-.398-.747-.363-.18.022-.316.067-.43.214-.096.125-.161.32-.098.476.077.19.188.295.321.435l.042.064c.008.012.084.156.102.18l.015.048c.019.058.03.116.044.174 0-.012-.004-.016 0-.032-.002.009 0 .029.006.047l.001.034c.006.075 0 .147 0 .222.006-.015 0-.012.01-.034-.01.021-.011.06-.015.081l-.042.159a.72.72 0 0 1-.027.064l-.097.173c-.004.009.003.004-.041.052s-.093.096-.143.143l-.034.025c-.065.044-.136.084-.207.119.016-.002-.007.006-.026.013l-.031.012-.212.062c-.067.015-.265.022-.059.019-.077 0-.153.014-.231.015-.063 0-.126-.003-.189-.007s-.073-.012-.073-.012l-.212-.056c-.027-.007-.067-.019-.095-.034l-.044-.021a2.12 2.12 0 0 1-.18-.101l-.096-.064-.15-.15-.067-.075c-.052-.084-.1-.152-.126-.221l-.035-.108-.026-.124-.006-.266c0-.034.006-.067.007-.101-.009.145.006-.012.012-.04l.027-.099c.011-.034.057-.143.015-.052.04-.084.086-.163.137-.238.012-.015.014-.015.025-.027l.103-.11c.138-.142.176-.156.333-.258.149-.097.239-.219.424-.277s.176-.306 0-.374a2.18 2.18 0 0 0-.548-.154c-.241-.024-.491.075-.707.174-.403.183-.73.55-.909.949-.428.955-.142 2.044.683 2.681.354.27.766.451 1.204.531a2.83 2.83 0 0 0 1.312-.073c.856-.263 1.555-.929 1.679-1.836.063-.471-.017-.925-.223-1.351l.004.008z" fill="#1d1d1b"/><path d="M125.466 180.297v-.006c-.021.07 0 .072 0 .006zm-.606.783c-.011-.002-.042.013-.048.019l.031-.012.017-.007zm.598-1.06c-.002.051.012.072.006.03 0-.02-.004-.025-.006-.03zm-74.924-9.699c-2.8.747-5.551 1.923-8.227 3.028-2.599 1.073-5.133 2.27-7.568 3.676-4.361 2.519-8.395 5.611-12.019 9.105-7.472 7.215-13.101 16.118-16.411 25.964-.954 2.837-1.693 5.752-2.231 8.697-.525 2.873-1.053 6.019-.576 8.929.069.418.702.37.802 0 .684-2.531.843-5.236 1.306-7.819a64.39 64.39 0 0 1 1.892-7.756c1.558-5.01 3.704-9.818 6.442-14.296 5.118-8.373 12.196-15.392 20.477-20.633 2.507-1.586 5.13-2.999 7.759-4.369 2.81-1.467 5.731-2.615 8.599-3.951.332-.155.094-.669-.244-.578v.003zm-40.21 122.04l.067-6.547c.018-2.12-.039-4.229-.352-6.33-.315-2.121-.909-4.195-1.458-6.264-2.261-8.514-3.399-17.353-3.833-26.144-.121-2.451-.171-4.905-.224-7.358-.054-2.552.099-5.179-.156-7.715-.009-.094-.144-.125-.172-.023-.552 2.011-.697 4.195-.895 6.265-.216 2.262-.318 4.535-.334 6.806a125.36 125.36 0 0 0 .321 10.266c-.33 1.572-.403 3.192-.55 4.789l-.537 5.551a165.75 165.75 0 0 1-1.567 11.305c-1.267 7.322-3.104 14.513-5.32 21.6-1.263 4.034-2.881 7.942-4.167 11.964-.211.66.793 1.088 1.125.473 1.782-3.312 3.058-6.928 4.314-10.468 1.263-3.553 2.338-7.167 3.284-10.818a137.78 137.78 0 0 0 3.873-22.325 109.78 109.78 0 0 0 .315-4.932c.411 3.012.946 6.008 1.752 8.93 1.155 4.191 2.57 8.27 2.948 12.629.208 2.415.345 4.833.484 7.251s.117 4.95.582 7.33c.032.159.305.166.327 0 .287-2.059.128-4.162.174-6.235zm20.43 73.772c-3.968 1.525-8.225 3.064-12.53 2.994-2.109-.035-4.176-.507-6.012-1.569-1.75-1.014-3.204-2.435-4.674-3.805-3.061-2.858-6.435-5.135-10.475-6.359-1.838-.558-4.139-.642-5.697-1.866-1.472-1.156-1.708-3.208-1.814-4.946-.27-4.405-.712-8.68-1.969-12.934a46.09 46.09 0 0 0-2.402-6.31c-.951-2.054-2.12-4.119-2.308-6.42-.191-2.344.576-4.648 1.335-6.831l2.273-5.905 5.413-11.949 5.604-13.003 2.138-6.741c.603-2.302 1.264-4.665 1.302-7.053.005-.265-.369-.298-.448-.061-.72 2.138-1.137 4.361-1.828 6.514l-2.264 6.206-5.535 12.22-5.736 12.237-2.384 5.959c-.823 2.257-1.65 4.575-1.804 6.991-.144 2.26.519 4.35 1.408 6.398l2.738 6.668c1.464 4.442 2.136 8.931 2.365 13.588.094 1.908.274 3.979 1.359 5.614 1.099 1.66 2.861 2.432 4.733 2.898 2.158.537 4.254 1.043 6.262 2.038 1.912.948 3.649 2.159 5.235 3.582 1.747 1.566 3.383 3.276 5.348 4.581 2.021 1.341 4.341 2.071 6.754 2.254 4.962.38 9.81-1.492 14.221-3.549.796-.373.228-1.756-.604-1.437l-.002-.004zm22.633-37.401c-1.979 1.911-3.553 4.465-4.943 6.82l-4.077 7.71c-2.518 5.282-4.968 10.531-7.915 15.591-.804 1.381-1.641 2.738-2.555 4.05-.304.437-2.318 2.676-1.179 3.102 1.014.382 1.952-1.366 2.434-2.023.855-1.167 1.638-2.387 2.383-3.627 1.471-2.451 2.645-5.093 3.782-7.71 2.264-5.215 4.353-10.566 7.041-15.582.754-1.408 1.564-2.783 2.404-4.141.867-1.403 1.907-2.673 2.81-4.046.075-.115-.09-.233-.184-.144zm59.792-20.839c-5.899.157-11.051 4.381-15.521 7.806L82.45 327.483c-10.122 8.038-20.052 16.392-29.062 25.678-2.41 2.485-4.674 5.219-7.486 7.266-2.834 2.067-5.955 2.877-9.423 2.625-.408-.031-.556.579-.207.764 2.465 1.312 5.487.772 7.94-.307 2.786-1.229 5.064-3.319 7.172-5.468 4.551-4.638 9.132-9.218 13.955-13.58 9.691-8.758 19.985-16.819 30.304-24.816 2.774-2.149 5.507-4.382 8.439-6.317 2.894-1.908 5.932-3.27 9.255-4.239.648-.187.543-1.215-.16-1.196zm-1.864-4.252l-4.337-6.378c-1.31-2.405-2.218-4.995-2.846-7.66-.703-2.994-1.041-6.033-1.2-9.101-.143-2.815-.452-5.923.239-8.686.363-1.45 1.1-2.766 2.378-3.595.591-.382 1.252-.607 1.947-.697.5-.065.917.002 1.32-.344.046-.04.059-.115.046-.17-.01-.034-.029-.055-.042-.084l.481.021c.732.05 1.039-1.072.378-1.396-2.693-1.326-5.778-.562-8.504.311l-8.824 3.142a537.76 537.76 0 0 0-17.299 6.761c-11.422 4.689-22.694 9.784-33.71 15.362-3.049 1.542-6.094 3.091-9.068 4.778-3.037 1.721-6.336 3.299-9.116 5.415-.12.092-.059.329.112.266 2.785-.978 5.418-2.495 8.087-3.75l8.156-3.893 16.513-7.729a593.86 593.86 0 0 1 28.583-11.975c-.288.469-.552.958-.77 1.474-1.415 3.33-1.868 7.185-2.225 10.755a43.67 43.67 0 0 0-.17 6.359c-.044.019-.088.036-.13.056-.288.129-.113.517.159.525.279 4.586 1.375 9.097 3.742 13.108 1.752 2.972 4.143 5.74 7.343 7.175.772.346 1.784-.653.995-1.287-1.014-.816-2.002-1.678-2.93-2.597a39.27 39.27 0 0 0 6.038-2.328 58.57 58.57 0 0 0 3.337-1.742c.993-.566 2.201-1.16 2.789-2.186.159-.273-.038-.701-.384-.67-1.18.101-2.227.865-3.23 1.442a79.36 79.36 0 0 1-3.192 1.759l-6.031 3.013c-.766-.82-1.492-1.677-2.115-2.611-.955-1.427-1.719-2.963-2.338-4.556 1.133-.293 2.273-.808 3.322-1.223l3.618-1.413c1.213-.446 2.441-.862 3.687-1.202a35.22 35.22 0 0 1 1.882-.443c.617-.134 1.284-.241 1.759-.68a.47.47 0 0 0-.093-.728c-1.049-.566-2.619.008-3.691.294-1.387.369-2.737.846-4.069 1.379a99.23 99.23 0 0 0-3.759 1.599c-.99.447-2.076.875-3.037 1.441a25.31 25.31 0 0 1-.587-1.966c-.498-1.989-.802-4.021-.909-6.067l6.801-1.639a130.77 130.77 0 0 1 4.38-.969c1.37-.28 3.102-.343 4.275-1.152.334-.231.308-.771-.115-.89-1.333-.37-2.944.149-4.264.419-1.572.321-3.135.703-4.686 1.108a52.78 52.78 0 0 0-6.411 2.114 44.85 44.85 0 0 1 .141-5.287c2.019-.39 4.008-1.078 5.96-1.668l3.576-1.119c1.135-.358 2.214-.671 3.16-1.412.313-.246.029-.714-.304-.73-1.234-.061-2.357.377-3.517.753l-3.435 1.127c-1.752.6-3.591 1.129-5.311 1.866a65.97 65.97 0 0 1 1.045-6.43c.409-.078.816-.206 1.137-.282 1.167-.275 2.329-.589 3.484-.91l3.467-.964 1.786-.514c.556-.17 1.039-.323 1.232-.917.059-.18.002-.447-.151-.569-.818-.663-2.203.049-3.089.321l-3.11.949-3.1.986a49.39 49.39 0 0 0-1.289.449c.355-1.225.852-2.4 1.649-3.416a6.9 6.9 0 0 1 1.4-1.341l1.442-.558 9.462-3.486c1.605-.577 3.213-1.171 4.879-1.545.061-.014.124-.02.185-.031-.466.319-.888.699-1.253 1.129-1.987 2.374-2.069 5.666-2.115 8.609-.105 6.732.541 13.582 3.41 19.754 1.372 2.946 3.259 6.138 6.193 7.743.476.26 1.102-.281.778-.776zm-49.703-33.892c-.491-3.27-1.45-6.454-2.487-9.589-1.916-5.796-4.259-11.62-4.493-17.798-.063-1.671-.003-3.351.306-4.999a27.42 27.42 0 0 1 .604-2.447c.154-.543.392-1.123.119-1.654-.012-.025-.042-.033-.066-.027-1.042.223-1.458 1.99-1.74 2.852-.444 1.358-.685 2.787-.819 4.208-.274 2.917.065 5.895.636 8.757 1.261 6.319 3.989 12.218 5.386 18.501a37.47 37.47 0 0 1 .793 5.413c.134 1.855.063 3.683.285 5.532.04.342.514.56.709.191 1.469-2.726 1.215-5.965.768-8.94zm-10.703-65.071l-1.438-5.791-1.209-5.185c-.123-.84-.166-1.706-.066-2.552.087-.734.561-1.488.501-2.208-.014-.168-.166-.252-.318-.181-1.206.554-1.347 2.897-1.344 4.034.003 1.824.429 3.606.835 5.373l1.432 6.182c.504 2.082.88 4.241 1.903 6.145.167.31.637.157.643-.174.039-1.929-.495-3.78-.94-5.639v-.004zm191.912-28.126c-.057-.196-.387-.283-.481-.063-.646 1.531-.795 3.105-.951 4.746l-.464 5.348-.87 10.502-1.897 21.139-1.205 12.092c-.013.151.235.185.264.036 1.379-6.863 2.365-13.815 3.276-20.758.924-7.038 1.748-14.087 2.252-21.166l.374-6.085c.079-1.951.254-3.893-.299-5.791h.001zm-2.494 148.331l-1.357-6.048-2.403-12.344-1.935-12.497c-.527-3.908-.676-8.034-1.943-11.795s-4.307-6.62-5.358-10.461a.39.39 0 0 0-.22-.256l2.258-5.813c1.525-3.526 3.276-7.003 4.365-10.697 1.076-3.653 1.651-7.338 1.309-11.145-.023-.244-.39-.254-.386 0 .069 6.873-3.463 13.267-6.252 19.349-1.422 3.099-2.793 6.239-3.731 9.523-1.068 3.742-1.347 7.601-1.377 11.477-.031 4.08.128 8.176-.465 12.227-.538 3.706-1.574 7.33-2.895 10.828a91.57 91.57 0 0 1-4.621 10.267c-1.788 3.402-3.809 6.661-5.748 9.977-4.774 8.165-9.71 16.278-13.892 24.759-.41.831.728 1.502 1.244.726 4.73-7.098 8.873-14.587 13.085-22.006l5.698-10.315c1.739-3.169 3.433-6.396 4.883-9.71.42 2.603 1.142 5.133 2.13 7.603 1.177 2.941 3.085 5.835 3.425 9.041.342 3.219-.407 6.573-.968 9.729-.539 3.022-1.427 5.929-2.509 8.797-4.384 11.629-11.585 22.034-18.791 32.067l-6.686 9.211c-2.305 3.2-4.76 6.367-6.726 9.792-.109.187.149.398.302.233 2.369-2.504 4.426-5.331 6.503-8.078l6.321-8.558c3.727-5.144 7.385-10.34 10.722-15.748 2.932-4.747 5.553-9.72 7.767-14.847-1.169 7.095-1.576 14.323-2.199 21.483-.298 3.429-.775 7.001-.5 10.441.271 3.382 1.822 6.048 3.392 8.969 1.544 2.877 2.619 5.981 3.208 9.192a30.37 30.37 0 0 1 .481 5.053c.021 1.648-.128 3.293.126 4.928.485 3.139 2.48 5.762 3.966 8.484 1.587 2.909 2.896 5.967 3.723 9.18.879 3.401 1.192 6.977.655 10.463-.525 3.4-1.933 6.489-3.641 9.448-.349.607.464 1.234.967.747 1.452-1.414 2.506-3.162 3.274-5.058-.13 1.459 0 2.959.161 4.389.231 2.077.638 4.127 1.035 6.176s.817 4.086 1.052 6.151c.126 1.037.209 2.079.247 3.123.03 1.022-.101 2.113.218 3.099.141.435.718.518.964.126.992-1.572.715-4.088.55-5.855-.191-2.076-.557-4.132-.976-6.17l-1.186-6.071c-.365-2.166-.382-4.338-.627-6.512-.043-.393-.414-.594-.733-.535.884-3.175 1.058-6.611.711-9.692-.363-3.242-1.234-6.39-2.478-9.403-1.261-3.052-2.957-5.815-4.501-8.718-.779-1.469-1.375-2.999-1.461-4.676-.086-1.653.061-3.309-.029-4.963-.175-3.324-.846-6.631-2.007-9.75-.579-1.548-1.269-3.051-2.06-4.499-.798-1.461-1.702-2.89-2.271-4.462-1.167-3.225-.688-6.753-.447-10.094l.751-12.384c.233-4.191.493-8.371.413-12.57-.008-.384-.558-.506-.719-.187l.745-1.708c1.175-2.886 2.142-5.83 3.112-8.787.988-3.016 1.792-6.086 2.174-9.244.222-1.835.073-3.717-.499-5.48-.557-1.725-1.408-3.337-2.166-4.978-1.629-3.528-2.762-7.267-3.818-10.998-.027-.097-.075-.177-.134-.244 1.157-2.938 2.114-5.956 2.751-9.049.796-3.872.981-7.779.974-11.719-.01-4.096-.13-8.243.705-12.278.17-.811.37-1.616.601-2.414.491 2.89 2.549 5.268 3.794 7.887 1.739 3.653 1.882 7.884 2.399 11.83 1.097 8.327 2.505 16.614 4.236 24.834l1.505 6.76c.529 2.262.943 4.68 1.985 6.776.233.468 1.001.242.981-.266-.076-2.047-.695-4.078-1.159-6.063h.006zm-46.116 31.124c-.684.348-1.127 1.156-1.58 1.763l-2.013 2.529-3.729 4.713-3.612 4.791c-1.219 1.608-2.655 3.175-3.517 5.014-.097.207.117.503.344.346 1.614-1.11 2.842-2.722 4.095-4.206l3.884-4.841 3.456-5.108 1.545-2.565c.453-.711 1.144-1.527 1.215-2.388.006-.046-.052-.067-.088-.048z" fill="#1d1d1b"/><path d="M66.681 401.843c-1.626.556-3.034 1.618-4.361 2.688a47.97 47.97 0 0 0-3.92 3.528l-3.651 3.915c1.018-2.831 1.441-5.785 1.657-8.797.249-3.477.316-7.026 1.409-10.369 1.011-3.085 3.11-5.607 4.523-8.495 1.496-3.053 1.758-6.161.617-9.387-1.291-3.649-3.991-7.179-3.733-11.215.061-.97.567-1.885.548-2.85-.017-.831-.546-1.391-1.102-1.943-1.333-1.322-1.964-3.23-1.888-5.091.017-.393-.537-.43-.655-.088-.504 1.446-.477 2.956.138 4.365a7.27 7.27 0 0 0 1.181 1.844c.321.374.663.617.617 1.169-.038.46-.321.955-.416 1.411-.77 3.613.925 7.032 2.395 10.22.766 1.658 1.519 3.391 1.75 5.219.21 1.683-.139 3.335-.823 4.877-1.343 3.022-3.509 5.591-4.686 8.703-2.567 6.791-.777 14.392-3.762 21.097-2.836 6.367-7.796 11.538-9.329 18.497-.832 3.779-1.183 8.186.148 11.893a11.31 11.31 0 0 0 .399.931c-.745 4.361-1.363 8.657-2.987 12.808-.777 1.987-1.688 3.908-2.779 5.742-.535.902-1.056 1.794-1.66 2.652-.615.871-1.352 1.744-1.828 2.697-.106.214.123.504.352.351 1.663-1.102 3.014-3.133 4.116-4.764 1.252-1.855 2.33-3.857 3.204-5.914 1.594-3.756 2.447-7.656 2.726-11.683 1.459 1.922 3.566 3.285 6.1 3.335.853.017 1.093-1.402.207-1.53-3.184-.46-5.394-3.081-6.24-6.057-.976-3.439-.598-7.366.27-10.788 1.456-5.74 5.336-10.288 8.038-15.442l.194-.212 1.834-2c1.188-1.307 2.405-2.589 3.672-3.821a62.98 62.98 0 0 1 3.916-3.539c1.375-1.131 2.89-2.128 4.141-3.397.227-.231 0-.68-.331-.567l-.004.007zm73.094-43.882c-1.626.243-3.104 1.19-4.514 1.981l-4.401 2.665-8.251 5.906-8.065 6.51-4.046 3.24c-1.306 1.024-2.913 1.979-4.028 3.215-.128.142.032.317.192.25 1.533-.657 2.931-1.921 4.264-2.909l4.134-3.127 8.098-6.206 8.275-5.899 4.401-2.665c1.412-.789 2.991-1.416 4.208-2.502.228-.203-.023-.497-.267-.461v.002zm119.655 13.188l5.698-1.43c4.277-1.129 8.596-2.27 12.457-4.488.238-.139.078-.565-.195-.46-6.321 2.418-12.914 4.375-19.626 5.364-2.713.401-6.608.059-7.458-3.158-.823-3.119 3.991-4.471 6.142-5.094 3.69-1.074 7.614-1.108 11.283-2.216.222-.065.171-.376-.051-.39-2.054-.135-4.174.065-6.226.252-1.824.168-3.65.381-5.444.763-1.358.288-3.03.758-4.468 1.53.019-.077.023-.159-.021-.251l-2.233-4.833c-.762-1.57-1.664-3.083-2.499-4.617-1.551-2.854-3.19-5.652-4.189-8.764-.963-3.003-1.482-6.302.329-9.089.896-1.379 1.946-2.657 2.846-4.038.873-1.339 1.685-2.717 2.466-4.111 1.589-2.85 3.181-5.756 4.445-8.768 1.253-2.984 1.87-6.122 2.029-9.349.162-3.299-.134-6.592-.493-9.868-.346-3.143-.73-6.323-2.048-9.234-.538-1.194-1.26-2.35-2.666-2.535-1.313-.174-2.724.366-3.842 1.018-2.294 1.341-3.885 3.658-4.139 6.315-.01.107.158.126.185.025.626-2.504 2.319-4.77 4.672-5.895 1.322-.632 3.148-1.19 4.119.25.806 1.196 1.158 2.787 1.433 4.18.601 3.05.649 6.233.802 9.331.153 3.068.26 6.19-.193 9.238-.46 3.108-1.591 5.945-3.007 8.73-1.394 2.743-2.831 5.475-4.433 8.102-.772 1.266-1.586 2.508-2.463 3.706s-1.803 2.353-2.338 3.765c-1.016 2.685-.51 5.753.313 8.422 2.067 6.711 6.382 12.652 10.316 18.359a.34.34 0 0 0 .198.136c-1.425.854-2.546 2.038-2.758 3.702-.348 2.749 1.773 4.963 4.239 5.748.072 2.688.067 5.393.395 8.061.346 2.809.995 5.544 1.847 8.237 1.75 5.519 4.255 10.757 6.48 16.089 4.705 11.282 7.15 23.289 6.837 35.532-.155 6.077-1.528 13.112 1.603 18.7.307.546 1.276.176 1.039-.438-1.039-2.699-1.53-5.404-1.555-8.296-.023-2.8.227-5.591.363-8.386.29-6.04-.077-12.105-1.055-18.073-.966-5.92-2.559-11.731-4.712-17.33-2.056-5.35-4.518-10.535-6.484-15.924-1.094-2.991-2.004-6.059-2.588-9.192-.31-1.658-.459-3.324-.59-5.003-.1-1.243-.19-2.51-.468-3.73.038.005.076.021.114.024 1.876.216 3.777-.191 5.592-.632v.013zm46.268-39.737c-1.706-5.602-2.932-11.289-4.069-17.028l-3.647-18.277-7.182-35.8c-4.398-21.607-9.406-43.571-20.012-63.105-2.764-5.089-5.857-10.026-9.622-14.441-3.607-4.23-7.895-8.217-12.921-10.689-.485-.239-.858.41-.42.718 4.216 2.964 8.008 6.313 11.318 10.274 3.23 3.867 6.013 8.12 8.499 12.497 5.448 9.597 9.54 19.876 12.776 30.409 3.216 10.478 5.629 21.183 7.841 31.911l7.051 35.107 4.038 20.095c1.282 6.333 2.172 13.028 5.101 18.857.347.695 1.478.212 1.251-.528h-.002zm1.448 7.674c-.161-1.418-.273-2.911-.717-4.27-.063-.194-.404-.24-.441 0-.185 1.227-.101 2.486-.051 3.722.023.575.099 1.163.051 1.738-.059.718-.391 1.287-.796 1.866-1.229 1.758-2.713 3.313-4.287 4.762-1.536 1.418-3.223 2.606-5.011 3.683l-2.823 1.546c-.942.472-1.985.823-2.858 1.408-.357.24-.246.863.231.852 2.14-.054 4.491-1.28 6.323-2.314 2.006-1.134 3.88-2.598 5.54-4.189 1.639-1.566 3.227-3.465 4.321-5.459.606-1.103.653-2.119.514-3.347l.004.002zm6.455 137.941c-1.368-2.042-4.772-2.324-7.011-2.47-3.016-.196-6.075-.055-9.089.105-6.214.331-12.422 1.108-18.514 2.392-2.006.424-4.113.909-5.752 2.115-.031-.073-.076-.138-.136-.189-1.834-1.59-3.377-3.51-4.042-5.876-.812-2.898-.602-6.243.193-9.126.694-2.519 2.505-5.425 5.488-5.253 1.317.075 2.6.634 3.888.067.985-.437 1.665-1.402 2.051-2.38.107-.27-.269-.426-.449-.262-.622.56-1.132 1.307-1.977 1.561-.819.244-1.719-.067-2.521-.222-1.303-.25-2.52-.195-3.741.378-2.703 1.273-3.866 4.169-4.559 6.885-.793 3.102-1.057 6.447 0 9.523.852 2.487 2.399 4.768 4.926 5.683-.172.181-.344.361-.5.569-.109.145-.121.285-.081.407-.106.179-.198.361-.254.542-.309 1.015-.061 2.111.111 3.124.197 1.144.413 2.286.648 3.425.47 2.273 1.018 4.527 1.645 6.76.313 1.118.63 2.233.991 3.337.346 1.055.617 2.264 1.247 3.187.23.332.766.219.776-.211.019-.951-.294-1.9-.497-2.827l-.663-3.047-1.27-6.107-1.373-5.866c-.211-.821-.325-1.643.026-2.399 1.494-1.053 3.276-1.553 5.089-1.888-.013.337.035.663.09.999l.403 2.339c.25 1.604.459 3.209.606 4.827.265 2.938.577 6.273 2.254 8.798.353.533 1.186.205 1.039-.437-.365-1.568-.701-3.11-.85-4.715l-.371-4.439c-.154-1.536-.349-3.076-.659-4.59-.156-.772-.313-1.546-.54-2.3a5.39 5.39 0 0 0-.279-.755l1.522-.227c1.24-.195 2.482-.342 3.725-.497-.294 1.156-.166 2.566-.17 3.647.006 1.66.054 3.318.147 4.976.165 3.288.275 6.709 1.271 9.861.166.525.93.424.955-.13.137-3.299-.405-6.615-.598-9.914-.094-1.597-.141-3.194-.197-4.793-.038-1.148.107-2.613-.22-3.805 1.817-.212 3.636-.388 5.458-.545-.22 1.026-.256 2.092-.292 3.152a87.93 87.93 0 0 0-.035 5.135c.042 1.711.096 3.425.222 5.131.053.806.145 1.608.277 2.405.132.764.201 1.614.733 2.208.14.153.4.103.497-.065.357-.596.298-1.308.313-1.987.02-.855-.026-1.707-.076-2.561l-.248-4.946-.115-4.953-.042-2.569c-.015-.323-.09-.684-.147-1.042a136.78 136.78 0 0 1 4.841-.284c-.121.756-.077 1.583-.113 2.267-.099 1.863-.124 3.735-.159 5.599s-.059 3.733-.005 5.599c.034 1.202-.19 3.565 1.119 4.216.225.113.436.01.525-.212.233-.581.117-1.312.151-1.935l.138-2.441c.084-1.616.091-3.234.105-4.852l-.008-4.852a54.27 54.27 0 0 0-.074-2.615c-.008-.153-.067-.484-.119-.826l4.252-.093h.365c-.084.223-.143.439-.17.59-.292 1.652-.246 3.406-.328 5.081l-.191 5.034c-.052 1.364-.478 3.452.435 4.59.149.185.487.162.638 0 .824-.882.667-2.552.705-3.673l.132-3.968c.019-.611.323-6.294.059-7.645 1.03.017 2.059.067 3.076.231.705.113 1.402.275 2.08.503.764.256 1.459.67 2.266.789.657.097 1.415-.566.957-1.248zm2.496-24.449c-.705-4.976-1.249-9.905-1.375-14.933-.25-9.971-.124-19.96-.159-29.935-.034-9.874-.034-19.752-1.19-29.573a168.28 168.28 0 0 0-2.615-15.779c-1.148-5.32-2.508-10.739-4.537-15.799-.302-.753-1.44-.484-1.243.342 1.123 4.695 2.483 9.326 3.488 14.052 1.008 4.752 1.897 9.522 2.521 14.344 1.259 9.709 1.483 19.45 1.519 29.23l.118 29.835c.05 4.827.243 9.647.889 14.434.336 2.493.754 4.974 1.014 7.474.252 2.421.3 4.847.279 7.279-.101 11.259-.871 22.506-1.083 33.761-.021 1.085 1.614 1.07 1.675 0 .581-10.088.865-20.201 1.309-30.296.214-4.868.074-9.611-.608-14.44l-.002.004zm-3.555 46.24c-.743-.316-1.576-.403-2.409-.426.614-2.594.493-5.468.249-8.094s-.644-5.171-.124-7.79c.08-.403-.445-.653-.675-.287-1.394 2.249-1.289 5.114-1.047 7.641l.209 4.205c-.014 1.434-.105 2.894.101 4.319l-.208.004-4.434.181-8.852.694-8.831 1.027c-2.818.348-5.88.489-8.564 1.452-.504.182-.42.898.126.934 2.902.187 5.92-.466 8.806-.771l8.648-.74 8.669-.605 4.434-.293c1.274-.101 2.75-.135 3.904-.731.256-.132.289-.596 0-.718l-.002-.002zm-171.47-235.01c-1.41-.374-3.06-.2-4.499-.126l-4.672.463c-3.152.41-6.256 1.058-9.334 1.854l-9.188 2.717-4.594 1.352c-1.362.382-3.064.673-4.18 1.593-.242.199-.093.598.178.677 1.352.382 3.003-.117 4.33-.434l4.629-1.219 9.022-2.686 8.995-2.401c1.59-.328 3.196-.556 4.812-.695 1.479-.128 3.045.006 4.501-.271.426-.081.39-.721 0-.824zm-26.199 31.502c.021-.139-.035-.305-.193-.338-.149-.03-.31-.076-.462-.059a2.24 2.24 0 0 0-.417.107c-.027.01-.204.117-.242.111l-.102.013c-.17.048-.328.159-.477.25-.506.308-.971.711-1.439 1.074l-1.255 1.039-.628.59c-.21.235-.453.491-.522.805-.072.326.155.71.526.689.565-.032 1.081-.46 1.511-.792l1.14-.858 1.228-.921c.233-.172.484-.346.682-.558.115-.126.124-.181.235-.302.09-.095.161-.208.212-.328.107-.157.176-.334.203-.522zm-4.861 625.481c-.554 1.15-.848 2.4-1.234 3.613l-1.253 3.709-2.797 7.009c-1.719 3.878-3.694 7.637-5.912 11.254-4.397 7.142-9.836 13.664-16.226 19.11-3.614 3.081-7.461 5.677-11.601 7.994-.678.378-.084 1.328.596 1.02 15.699-7.087 27.258-21.603 34.398-36.908 1.205-2.584 2.308-5.217 3.303-7.889a96.25 96.25 0 0 0 1.406-4.035c.464-1.432 1.001-2.882 1.154-4.382.099-.963-1.422-1.354-1.834-.496v.001zm-11.956 1.328c-2.004-1.832-4.468-3.051-7.003-3.969-6.117-2.216-12.615-2.472-18.952-1.124-1.861.398-3.706.875-5.578 1.213-2.046.371-4.073.375-6.14.468a.33.33 0 0 0-.088.644c2.844.928 6.138.132 8.98-.479 3.129-.675 6.207-1.385 9.421-1.479 5.723-.164 12.124.959 16.967 4.174a14.02 14.02 0 0 1 3.284 3.014c.965 1.233 1.304 2.453 1.7 3.932.063.233.367.158.391-.052.293-2.342-1.341-4.837-2.985-6.34l.002-.002zm-42.957-3.513l-1.726-1.121c-.589-.34-1.23-.611-1.857-.877-1.15-.487-2.54-1.146-3.818-.928-.176.028-.16.258-.045.342.502.364 1.125.555 1.709.746l1.885.638c1.221.47 2.45 1.001 3.6 1.622.282.153.508-.246.249-.424l.002.002zm8.196-16.619c-1.001-.642-2.195-1.011-3.33-1.339a34.32 34.32 0 0 0-3.824-.871c-2.503-.428-4.982-.591-7.517-.453a.23.23 0 0 0-.138.074c-.036.041-.055.094-.055.148s.02.107.055.147.085.068.138.076c2.476.14 4.98.413 7.415.885l3.426.785c1.211.324 2.424.758 3.668.932.225.034.378-.247.162-.384zm46.639-26.946l-.363-5.183c-.155-1.673-.19-3.541-.784-5.127-.156-.418-.842-.519-.953 0-.365 1.71-.145 3.576-.092 5.311l.222 5.184.078 1.849-.703-.672c-1.096-1.057-2.315-1.979-3.629-2.749a23.66 23.66 0 0 0-4.151-1.916 21.64 21.64 0 0 0-2.101-.623c-.68-.162-1.771-.542-2.441-.267a1.15 1.15 0 0 0-.777 1.368c.042.263.25.534.489.657.013.007.032.007.046.013.027.013.05.027.109.05.088.051.18.074.281.076l.386.075 1.074.225 2.109.596a20.89 20.89 0 0 1 4 1.855 26.81 26.81 0 0 1 3.532 2.489l1.666 1.436c.072.048.149.094.227.136l.025.592c.08 1.825.395 3.534.649 5.326.088.615.963.395 1.013-.136l.319-5.19-.233-5.371.004-.004zM94.052 13.749c1.677-3.009 3.969-5.527 4.434-9.072.063-.475-.621-.477-.77-.105-.699 1.747-1.444 3.497-2.581 5.011-1.058 1.408-2.437 2.578-3.293 4.136-.747 1.36-1.077 2.868-1.202 4.402l-.057-.219-.361-2.107c-.088-.705-.069-1.586-.67-2.084-.155-.127-.359-.146-.514 0-.583.552-.466 1.442-.376 2.156a18.76 18.76 0 0 0 .445 2.365 16.41 16.41 0 0 0 .606 1.868c-1.958-.181-3.901.822-5.509 1.835-3.354 2.117-5.956 5.211-8.115 8.496-2.395 3.641-4.533 7.587-6.033 11.684-1.628 4.45-1.937 9.034-1.799 13.735l.256 7.944-.132 3.746-.266 2.198c-.086.585-.023 1.157-.107 1.744-.034.24.317.459.439.184.401-.898.798-1.64 1.007-2.615.212-1 .35-2.02.455-3.037.22-2.107.208-4.239.151-6.356-.115-4.28-.464-8.608.399-12.838.84-4.125 2.699-7.943 4.726-11.601 1.75-3.158 3.692-6.263 6.225-8.86 1.75-1.793 6.544-5.899 9.278-4.363.088.652.216 1.288.466 1.849.143.324.579.439.894.364l.094-.023c.197-.047.414-.24.447-.447.01-.064.008-.132.015-.197a.34.34 0 0 0 .12-.192 2.23 2.23 0 0 0-.048-1.11l-.086-3.395c.078-1.835.571-3.497 1.463-5.1l-.002.002zM73.089 67.57c-.153-.81-.481-1.91-1.417-2.047-.155-.023-.35.064-.334.253.067.834.562 1.54.638 2.398.088.973.011 1.975-.044 2.948l-.264 3.327c-.118 1.063-.386 2.185-.227 3.252.034.231.365.234.47.061.6-.982.718-2.275.886-3.392l.39-3.71c.057-1.033.094-2.071-.099-3.093l.002.002zm6.961 16.806c-1.114-2.03-2.55-3.68-3.099-5.99-.556-2.345-.111-4.792-.676-7.109-.147-.601-.944-.51-1.129 0-.751 2.044-.615 4.561-.313 6.686.327 2.317 1.329 4.177 2.587 6.11 1.247 1.915 1.952 3.843 1.933 6.152-.01 1.15-.162 2.291-.378 3.419-.214 1.113-.636 2.267-.642 3.402-.006.793 1.022 1.002 1.431.387.621-.934.875-2.182 1.127-3.261a19.93 19.93 0 0 0 .491-3.308c.134-2.243-.239-4.503-1.328-6.487l-.004-.002zm19.636-29.514c-2.995.66-4.864 3.752-5.733 6.482-1.232 3.866-.716 8.043-1.543 11.988-.808 3.848-2.638 7.137-4.892 10.313-2.13 3.002-4.401 5.936-5.574 9.475-1.238 3.734-1.738 8.472.21 12.057.13.238.543.139.523-.143-.248-3.603-.682-7.074.361-10.613s3.249-6.347 5.484-9.198c2.199-2.803 4.069-5.722 5.154-9.141 1.181-3.713 1.014-7.502 1.406-11.328.187-1.823.556-3.665 1.415-5.297.837-1.585 2.059-2.73 3.587-3.642.52-.309.17-1.078-.401-.952l.002-.002zm-13.068 50.371l-.546-3.819-.437-3.449c-.036-1.084.124-2.161.17-3.243.011-.28-.342-.394-.529-.219-1.742 1.613-1.222 4.501-.907 6.592l.753 4.06.487 1.896c.191.626.342 1.34.722 1.881.092.134.306.123.353-.046.315-1.11.057-2.521-.065-3.653z" fill="#1d1d1b"/><path d="M123.205 23.53c-3.5 2.267-7.674 2.628-11.701 3.197-3.925.555-7.555 1.634-10.73 4.096-2.964 2.3-5.383 5.464-6.26 9.163-.05.208-.076.42-.115.63-.565-.186-1.093-.442-1.54-.918-.758-.81-1.121-1.918-1.333-2.987-.451-2.276-.111-4.692.588-6.882.695-2.176 1.84-4.168 3.198-5.996 1.438-1.934 3.226-3.555 4.716-5.435.323-.408-.095-1.144-.611-.792-2.225 1.526-4.164 3.674-5.796 5.803-1.712 2.236-3.106 4.749-3.811 7.49-.663 2.575-.734 5.573.319 8.058.686 1.616 2.254 3.29 4.05 3.452a14.44 14.44 0 0 0 2.067 8.255c1.053 1.73 2.464 3.212 4.141 4.347 1.435.969 3.655 2.09 5.384 1.403.233-.091.261-.355.066-.504-.657-.499-1.415-.741-2.173-1.07a12.92 12.92 0 0 1-2.174-1.221c-1.326-.918-2.436-2.143-3.296-3.503-1.84-2.906-2.571-6.367-1.729-9.731.858-3.422 2.926-6.476 5.727-8.613 3.041-2.32 6.537-3.233 10.262-3.765 3.916-.558 8.267-.925 11.106-4.017.216-.236-.065-.648-.356-.46l-.001.002zm43.645 29.608c-3.587-1.238-7.458-.763-11.123-.078l-11.359 2.32c-7.773 1.332-15.549 2.315-23.454 2.111-4.401-.112-8.703-.787-13.077-1.177-.698-.061-.74.942-.157 1.15 3.574 1.284 7.503 1.667 11.276 1.915 3.861.253 7.746.152 11.601-.148s7.683-.825 11.487-1.494c3.816-.67 7.576-1.63 11.356-2.474 4.353-.973 8.669-1.547 13.123-.939.768.105 1.097-.921.327-1.186zm-20.688-25.903c-11.465 6.059-25.834 1.238-36.853 8.538-2.909 1.928-4.955 4.713-6.235 7.942-.137.346.38.508.568.24 1.022-1.468 1.86-3.03 3.1-4.336.97-1.022 2.063-1.919 3.255-2.672 2.455-1.549 5.236-2.435 8.069-2.996 6.191-1.225 12.56-.78 18.761-1.936 3.6-.672 6.953-1.823 9.868-4.09.407-.318-.111-.913-.533-.69zm5.828 3.108c-2.051 1.084-3.879 2.514-6.086 3.309-2.456.885-4.877.799-7.438.587-2.1-.176-4.255-.348-6.31.24-1.488.426-3.603 1.399-3.996 3.063-.059.249.225.522.464.357.743-.511 1.318-1.18 2.134-1.597.894-.454 1.912-.693 2.903-.807 2.335-.268 4.659.271 6.982.415 4.489.279 8.684-1.807 11.959-4.776.437-.396-.121-1.051-.612-.792zm10.226 16.711c-2.917.042-5.83.645-8.661-.408a7.43 7.43 0 0 1-1.689-.87c-.084-.058-.77-.498-.747-.669.035-.243.718-.477.942-.592l4.231-2.35c.72-.414.336-1.384-.395-1.456a81.42 81.42 0 0 0-8.988-.379c4.216-2.503 8.365-5.773 9.385-10.717.101-.493-.567-.666-.745-.205-1.032 2.66-2.69 4.789-4.928 6.542-2.308 1.807-4.866 3.206-7.435 4.599-.695.376-.399 1.565.411 1.519a82.66 82.66 0 0 1 9.792.021l-.757.454c-.774.469-1.673.898-2.344 1.51-1.31 1.198.283 2.425 1.313 3.057 3.13 1.927 7.299 1.832 10.762 1.024.607-.141.474-1.09-.147-1.081zm21.314-27.626c-3.94-5.329-9.776-9.344-15.73-12.148-6.064-2.854-12.612-4.529-19.302-4.936a47.59 47.59 0 0 0-5.171-.037c-1.91.091-3.813.379-5.727.378-2.021 0-3.96-.501-5.929-.885-1.549-.303-3.116-.506-4.69-.607-6.17-.39-12.447.865-18.042 3.47-3.112 1.448-6.084 3.312-8.671 5.573s-5.129 4.975-6.699 8.07c-.254.502.424 1.124.827.639 1.924-2.314 3.801-4.596 6.098-6.56a38.47 38.47 0 0 1 7.373-4.963c5.292-2.725 11.25-4.237 17.208-4.174a32.18 32.18 0 0 1 4.472.342c1.79.271 3.541.742 5.333 1.008 3.551.526 7.104-.219 10.665-.267 6.478-.088 12.919 1.212 18.917 3.641 3.385 1.37 6.629 3.141 9.651 5.194 3.031 2.059 5.773 4.533 8.491 6.983.47.423 1.349-.148.93-.717l-.004-.002zm18.88 52.784c-1.303-.714-2.31-1.636-3.003-2.961s-1.068-2.794-1.414-4.239l-2.258-12.033c-1.041-7.634-1.459-15.441-4.502-22.624-.747-1.763-1.634-3.456-2.724-5.033-1.028-1.49-2.209-3.158-3.832-4.037-.361-.195-.801.206-.577.577.899 1.495 2.16 2.746 3.094 4.229a29.95 29.95 0 0 1 2.392 4.674c1.421 3.489 2.21 7.18 2.793 10.891 1.276 8.151 1.713 16.363 3.918 24.357.773 2.805 2.403 6.734 5.662 7.271.611.1 1.077-.729.451-1.071zm.131 9.181c-.525-1.608-2.313-1.984-3.463-3.031-1.102-1.002-1.899-2.264-2.628-3.549l-.849-1.514.959.312c1.25.418 2.47.849 3.779 1.042.336.049.573-.379.244-.579-1.78-1.075-3.811-1.627-5.723-2.423l-.292-.129c-.955-1.549-2.044-2.991-3.57-4.083-.518-.369-1.313.123-1.278.733.114 2.012 1.518 3.363 3.238 4.161l1.99 3.666c.715 1.24 1.515 2.465 2.539 3.474a9.33 9.33 0 0 0 1.667 1.309l.715.402c-1.139.134-2.287-.111-3.429-.373-.785-.181-1.249.871-.55 1.306 1.761 1.098 4.09.951 6.008.408.462-.13.798-.655.643-1.132zm-3.503 6.703c-1.49-1.129-2.741-2.569-3.712-4.163-.943-1.549-1.851-3.341-2.351-5.083-.1-.345-.638-.285-.633.085.039 2.15.4 4.001 1.433 5.905a14.57 14.57 0 0 0 .902 1.438l-6.77-3.065c-3.242-1.745-5.834-4.173-8.084-7.064l-6.128-8.421c-2.186-2.778-4.723-5.221-7.779-7.025a23.09 23.09 0 0 0-11.484-3.212c-.843-.012-.795 1.183 0 1.278a27.31 27.31 0 0 1 10.273 3.399c3.035 1.741 5.509 4.15 7.658 6.892l5.987 8.151c2.178 2.755 4.661 5.13 7.694 6.923 1.788 1.057 3.681 1.921 5.582 2.753l6.434 2.879c1.148.486 1.977-.91.976-1.669l.002-.001zm-9.402-1.294c-.612-.868-1.177.537-1.286 1-.311 1.309-.451 2.657-.604 3.992l-.11.901-.503-1.915c-.307-1.01-.613-2.234-1.232-3.101-.332-.466-1.238-.369-1.188.322.069.972.483 1.927.756 2.858l.743 2.945c.369 1.963.432 3.99-.085 5.93-.268 1 1.18 1.365 1.528.421.75-2.039 1.016-4.211 1.194-6.366l.244-3.287c.027-.34.468-3.176.203-3.261.236.077.487-.225.338-.439h.002zm-5.076 8.754c-.105-.126-.342-.12-.447 0-.275.312-.306.684-.355 1.086l-.134 1.507-.155 2.799-.217 5.807c.024.672 1.102.894 1.23.167.342-1.933.384-3.909.439-5.866l.035-2.906c-.01-.778.129-1.961-.394-2.593l-.002-.001zm67.058 276.654c-.145-.145-.317-.161-.508-.134-.415.057-.753.42-1.041.699l-.755.78a16.66 16.66 0 0 0-1.421 1.801c-.096.168-.123.365-.073.55a.74.74 0 0 0 .333.445c.362.191.773.078.995-.262l.602-.867.149-.202.064-.084c.008-.01.016-.018.031-.037l.334-.41.688-.768c.285-.298.632-.589.735-1.005a.53.53 0 0 0-.131-.506h-.002zM167.769 84.865c-.579-.693-1.249-1.261-2.002-1.757-1.469-.967-3.188-1.621-4.913-1.949-4.399-.84-9.081.349-13.236 1.771-.197.067-.407.222-.445.444-.247 1.49-.883 2.829-1.229 4.284-.084.351.363.652.631.366.983-1.054 1.444-2.579 1.748-3.98l4.559-1.29c-.653.508-1.182 1.181-1.471 1.907-.674 1.7-.173 3.71 1.017 5.05 1.217 1.372 3.138 2.05 4.947 1.829 1.912-.231 3.613-1.313 4.684-2.903.617-.915 1.022-2.047.919-3.161-.086-.912-.502-2.233-1.521-2.473-.313-.073-.674.215-.555.556.225.645.68 1.127.735 1.841.057.733-.195 1.45-.565 2.072-.73 1.22-1.979 2.164-3.361 2.504-1.306.321-2.769.024-3.843-.788-1.117-.844-1.647-2.206-1.542-3.584.064-.799.348-1.584.864-2.204.407-.49.932-.795 1.503-1.02 1.857-.324 3.737-.447 5.651-.151 1.667.256 3.274.796 4.711 1.693.676.423 1.312.931 1.891 1.479.573.541.974 1.266 1.606 1.736.138.102.365-.034.35-.201-.071-.805-.634-1.473-1.133-2.072zm-1.996 4.989c-.833-.118-1.339.315-1.828.949a5.33 5.33 0 0 1-2.065 1.633c-1.593.73-3.408 1.015-5.152.945-1.706-.071-3.381-.475-4.933-1.189a13.97 13.97 0 0 1-2.177-1.283l-2.046-1.564c-.208-.132-.556.093-.451.346.653 1.57 2.283 2.723 3.727 3.515a13.43 13.43 0 0 0 5.272 1.606c1.8.162 3.699-.028 5.393-.669.909-.345 1.775-.786 2.518-1.421a6.22 6.22 0 0 0 .966-1.084c.254-.351.478-.754.885-.942.34-.157.277-.787-.109-.841zm3.654-13.098c-1.65-1.107-3.79-1.59-5.857-1.85-2.286-.289-4.584-.237-6.884-.089l-7.265.505c-2.237.069-4.581-.003-6.665-.754-.997-.358-1.945-.816-2.735-1.438-.852-.673-1.29-1.466-1.681-2.369-.073-.165-.419-.156-.398.045.155 1.43 1.397 2.825 2.694 3.719 1.643 1.132 3.679 1.64 5.776 1.838 4.959.468 9.93-.654 14.898-.501 1.34.041 2.665.126 3.976.366s2.554.628 3.809 1.003c.313.093.596-.298.332-.475zm-40.654-4.104l-.164.004c-.019 0-.037.017-.035.035s.016.034.035.034l.164.005c.021 0 .04-.018.04-.039a.04.04 0 0 0-.04-.039zm0 .324c-.057 0-.057.088 0 .088s.057-.088 0-.088z" fill="#1d1d1b"/><path d="M128.744 71.563c-.596.789-1.014 1.613-1.771 2.285-.775.687-1.673 1.195-2.668 1.483-2.14.619-4.424.357-6.617.342l-7.158-.03c-1.866 0-3.796.062-5.609.525s-3.749 1.327-4.869 2.891c-.149.208.147.499.354.354 1.566-1.099 3.146-1.802 5.052-2.09 1.964-.297 3.933-.315 5.914-.315l7.439-.017c2.107-.042 4.304-.031 6.288-.844.969-.397 1.863-.981 2.575-1.751.65-.703 1.376-1.675 1.513-2.645a.24.24 0 0 0-.441-.186l-.002-.002zm-5.589 16.813c-.237-.553-.35-1.151-.329-1.753.033-.976.268-1.916-.246-2.819-.913-1.603-3.095-1.783-4.72-2.008-4.228-.586-9.053-.786-12.694 1.852-1.446 1.05-3.087 3.038-3.104 4.92-.002.215.271.268.384.105.63-.927 1.106-1.871 1.94-2.653.751-.702 1.659-1.292 2.562-1.778 1.171-.63 2.436-.997 3.733-1.192-.401.334-.73.754-.969 1.221-.848 1.661-1.008 3.582.178 5.119 2.069 2.682 6.611 2.786 8.848.253 1.198-1.356 1.744-3.704.613-5.266-.185-.253-.471-.385-.777-.258-.26.108-.476.444-.365.733.453 1.156.47 2.302-.2 3.383-.65 1.046-1.874 1.649-3.072 1.783-1.175.132-2.409-.154-3.366-.861-1.137-.841-1.435-2.104-1.236-3.459.109-.732.373-1.464.883-2.014a2.15 2.15 0 0 1 1.006-.628c.405-.112.785-.07 1.192-.115.048-.004.079-.031.092-.066l.823.022c1.376.065 2.745.237 4.107.444.9.138 2.027.261 2.722.913.43.402.461.883.482 1.444.021.589.067 1.147.237 1.714.263.885.697 1.981 1.623 2.339.1.039.191-.075.169-.166-.111-.43-.346-.796-.516-1.204v-.005zm-1.339 2.371c-2.78 1.784-5.892 3.038-9.256 2.777-3.3-.257-6.059-1.993-8.259-4.37-.119-.127-.314.035-.235.181 3.36 6.296 13.723 7.785 17.979 1.639.097-.138-.092-.315-.229-.228zm7.545 33.217c-.412-.172-.8-.384-1.232-.509l-1.27-.386c-.768-.273-1.483-.688-1.968-1.358-.443-.611-.636-1.399-.577-2.145.033-.383.132-.773.296-1.123.084-.175.176-.347.277-.513.094-.154.233-.305.27-.482.013-.063-.029-.146-.105-.14-.39.036-.743.486-.946.789a3.9 3.9 0 0 0-.539 1.233c-.229.932-.158 1.922.268 2.787.468.948 1.373 1.574 2.326 1.97.47.196.961.334 1.464.411.58.089 1.096.015 1.667-.057.279-.034.325-.369.065-.477h.004zm13.225-3.259c-.835-.138-1.685-.027-2.462.306-.825.355-1.402.887-1.83 1.673-.474.87-1.101 1.419-2.071 1.66-.831.207-1.7.177-2.544.108-.474-.039-1.089-.028-1.515-.261-.417-.226-.696-.736-.997-1.084-.568-.655-3.92-3.311-4.262-1.248-.048.278.034.518.273.675a.52.52 0 0 0 .537.032c.076-.035.172-.057.172-.072.156.037.386.184.504.249.363.196.712.418 1.043.666.625.469 1.093 1.102 1.715 1.563.633.471 1.395.516 2.157.557.749.05 1.5.033 2.245-.05.653-.082 1.285-.246 1.87-.552.678-.353 1.058-.886 1.549-1.448s1.125-1.074 1.841-1.296a3.05 3.05 0 0 1 1.053-.137 2.49 2.49 0 0 1 .43.053l.26.067a.37.37 0 0 0 .12.056c.153.482.842.443 1.098.071.6-.877-.452-1.465-1.186-1.588zm3.335-2.958a.65.65 0 0 0-.575-.33c-.179.01-.349.054-.471.195-.207.24-.245.524-.104.808.285.574.591 1.163.732 1.793s-.025 1.191-.365 1.731c-.63 1-1.61 1.937-2.886 1.568-.201-.059-.384.222-.212.367 1.324 1.111 2.964-.205 3.792-1.273.525-.676.85-1.43.831-2.3-.02-.912-.35-1.748-.74-2.558l-.002-.001zm7.895 16.332c-2.309 1.019-4.802 1.007-7.26.683-2.631-.346-5.128-.709-7.785-.42-1.352.147-2.699.318-4.057.171-1.28-.138-2.543-.377-3.834-.373-2.648.01-5.183.877-7.803 1.119-2.394.22-5.072-.072-6.975-1.678-.206-.176-.447.124-.267.313 3.499 3.711 9.133 1.85 13.517 1.537 2.764-.198 5.427.616 8.193.351 1.421-.137 2.829-.342 4.262-.287 1.423.055 2.838.269 4.254.41 2.699.271 5.719.339 7.966-1.425.193-.15.042-.512-.207-.401h-.004zm-13.524 6.537c-.315-.279-.652-.216-1.051-.163l-1.406.228c-.905.131-1.824.223-2.741.217a10.07 10.07 0 0 1-2.361-.298c-.789-.197-1.524-.662-2.315-.806-.124-.022-.222.051-.233.177l-.033.281c-.004.033.031.075.065.049l.119-.082c.422.584 1.188.919 1.835 1.162.828.31 1.714.453 2.591.513 1.012.069 2.021-.005 3.026-.14l1.478-.231c.403-.081.871-.136 1.076-.531.061-.116.057-.281-.05-.376zm40.931-56.941c-.311.702-.35 1.456-.439 2.206l-.283 2.476-.558 4.947-1.274 10.02c-.913 6.562-1.907 13.113-3.064 19.635l-.988 5.434-.544 2.849c-.176.901-.426 1.805-.426 2.726 0 .564.724.579.915.123.319-.765.426-1.598.586-2.41l.474-2.439.927-5.025 1.604-9.814c.995-6.551 1.781-13.13 2.413-19.726l.475-5.496.203-2.888c.05-.867.174-1.765-.021-2.617zm-8.459 51.901c-1.259 2.029-2.621 4.011-4.181 5.829l-4.963 5.221c-3.561 3.495-7.12 7.101-11.255 9.923-1.055.72-2.138 1.399-3.173 2.151-.953.692-2.247 1.514-2.734 2.625-.147.337.166.732.529.528 1.003-.561 1.819-1.534 2.753-2.213.968-.705 1.981-1.345 2.974-2.017 2.046-1.384 3.96-2.95 5.788-4.611 1.886-1.714 3.672-3.537 5.468-5.344 1.692-1.703 3.379-3.425 4.903-5.284 1.677-2.045 3.236-4.211 4.243-6.659.084-.209-.241-.327-.352-.149zm-45.936 25.149c-.808-.654-1.809-1.079-2.691-1.624-.936-.575-1.83-1.217-2.69-1.899l-5.144-4.482-11.255-9.898-3.055-2.737c-.938-.887-1.771-1.979-2.861-2.684-.268-.174-.501.156-.395.396.47 1.083 1.391 1.946 2.191 2.794l2.535 2.51 5.67 5.203 10.942 9.763 2.98 2.178c1.008.644 2.151 1.347 3.356 1.494.495.06.802-.7.418-1.011v-.003zm5.632-58.171c-.008-.127-.283-.166-.327-.031-.544 1.7-.741 3.394-.722 5.135.017 1.752-.254 3.571.042 5.311.01.062.155.093.172.017.353-1.689.254-3.431.504-5.131.262-1.776.447-3.517.331-5.301zm4.963 9.81c-.018-.014-.048-.01-.077-.012.059-.303.025-1.071.023-1.2l-.034-1.378-.056-2.654-.122-2.656c-.048-.754.099-1.746-.407-2.432-.059-.081-.225-.076-.275.009-.25.429-.187.934-.166 1.39l.086 1.378.21 2.924.21 3.089c.023.466-.074 1.024.065 1.479.05.163.113.278.346.341.057.015.126.008.172-.021.126-.076.134-.167.025-.257zm-41.094 18.581l-1.488-5.479-2.596-11.245c-1.57-7.567-2.913-15.168-3.744-22.857l-.63-6.361c-.185-2.081-.187-4.497-.965-6.458-.109-.273-.506-.315-.598 0-.516 1.735-.361 3.783-.258 5.573.113 1.946.246 3.893.438 5.835a213.38 213.38 0 0 0 1.456 11.515c1.192 7.72 2.879 15.349 5.148 22.824l1.945 6.089c.676 2.024 1.244 4.182 2.346 6.02.086.143.361.096.338-.091-.222-1.84-.879-3.588-1.391-5.365z" fill="#1d1d1b"/><g style="mix-blend-mode:darken" opacity=".25"><path d="M114.635 520.217c-22.014 21.751-51.814 31.367-78.854 45.132-12.881 5.381-31.307 31.512-9.425 36.45a3.35 3.35 0 0 0 .386.712c6.965 41.172-36.089 38.499-33.567 89.973l-5.707 87.738c-.252 14.077-10.475 25.653-23.861 29.254-8.129-7.301-11.998-18.277-14.353-28.688-.122 5.377-.48 10.688-.913 16.031a71.73 71.73 0 0 0 1.11 2.514c-.286 11.522-4.037 27.16 5.354 35.809 1.129 1.729 1.35 4.86 3.536 5.492 1.179 1.612 2.504 4.094 4.727 4.059 2.983 6.176 24.734.587 30.458-1.044l.033 1.734c-1.549 9.481 1.392 21.16.711 31.372-1.305 2.096-5.289 5.391-2.564 7.697 1.092-.111 2.183-.237 3.28-.302l.907-.646c3.663.235 6.127-4.73 9.079-6.604 1.892.587 4.698-.703 4.088-2.865 1.987-3.272 7.756-7.391 5.94-11.423.257-1.143.799-2.466.265-3.586 1.047-2.911-.015-6.308.528-9.406a2.88 2.88 0 0 0-.663-.13l.949-14.508c5.935-4.216 1.062-14.648 2.432-21.143 1.039-18.314 5.145-36.963 6.892-55.044 2.843-11.188 7.624-22.906 7.37-34.388.322-1.212 1.264-2.705.537-3.865.151-1.075.449-2.164.456-3.249 5.072-18.302 9.653-38.763 10.046-57.438 1.137-7.064 4.364-15.293 2.494-22.197.525-7.15.991-14.986.829-21.878.72-7.332-.574-14.961-1.871-22.192 0-.194.011-.389 0-.582 6.652-1.844 14.674-1.876 20.367-5.911 1.669.566 3.675-.878 3.563-2.647 2.504-7.685 9.565-13.932 10.747-22.549 1.051-.953 2.653-3.045 2.271-4.531.959-8.472 10.81-9.821 14.774-16.016 2.825-1.686 5.608-3.432 8.334-5.272-.118-.244.021-.571.256-.76 2.709-1.918 3.939-5.292 6.08-7.416.917-2.051 2.054-4.149 3.063-6.063.303-.586.292-1.343.58-1.889-.216.042-.439.128-.663.265h.002zm27.294-178.406l-.172-.302c-3.664 5.051-6.118-7.853-2.884-9.183.183-.622.496-1.241.978-1.598-2.678-3.718-2.098-8.698-5.364-12.003-3.311-2.802-4.742-7.089-8.163-9.946l.441-.203-3.746-4.33-.141.063c-2.758-2.757-3.767-6.719-6.522-9.475.079-.18.107-.373.136-.566-1.249-1.625-1.843-3.631-1.524-5.627-3.949 1.056-7.259 3.507-10.533 5.874.296.875 1.807 1.994.794 2.812.205.985 1.131 1.331 1.893 1.774l-.109.245c-20.172.325-38.266 46.545-58.509 36.197-1.014 1.662-1.963 3.359-2.768 5.143.28.038.631.07.82.3-1.12 1.509-2.126 3.134-2.728 4.934-8.587-3.192-12.328 14.183-21.381 15.165-6.328 2.073-13.975-5.335-18.962 1.561 1.63 1.064 3.011 2.434 4.452 3.738.393-.452.901-.827 1.477-.97 1.099 3.57 5.707 4.075 8.87 3.645 3.05 1.293 6.816-.157 9.642-1.488 2.05.831 6.525-2.063 6.103-4.403l.954-1.124c.79 1.118 2.453 1.641 3.761 1.087 1.434.778 3.63-.754 4.943-1.28 4.002-1.159 6.841-4.657 9.21-7.912 4.161-2.149 7.358-7.119 10.691-10.495 13.964-11.091 27.642-23.217 42.418-32.684 1.738-.551 3.442-1.418 5.19-1.777-20.27 11.697-38.924 27.613-55.284 44.412.873.46.193 1.188-.074 1.807.436 1.805.762 3.673 2.043 5.131 1.906-2.302 4.428-4.306 5.908-6.891 11.471-11.125 24.287-20.846 36.958-30.585 13.713-9.129 19.96-13.305 32.205.163.109 2.72 1.92 4.943 3.452 7.075-7.903 10.13 6.151 22.841 5.518 11.72l.006-.004zm-28.791-35.388c-.019.042-.027.077-.002.046l-.033.015c.029.258-.122.501-.128.759-.093-.625-.388-1.198-.705-1.735.035-.152.071-.3.023-.45.296.431.753.84.847 1.363l-.002.002zm-52.464-32.124l-3.471-12.996c-1.332-5.437-2.029-11.935-3.968-17.074.218-.621.549-1.196 1.035-1.704-.147-1.358.2-2.705.499-4.051-11.713.829-5.265 16.338-5.076 23.736 2.284 9.389-7.544 24.528-3.791 28.693l1.468-.851c-.021-1.285 2.099-.876 2.906-1.56.106-.277.207-.558.301-.843 2.753-.093 5.608-1.465 7.118-3.992 2.999-1.992 2.63-6.208 2.978-9.358zm193.217 23.66c-.447-1.815.271-4.451-1.431-5.635-.049-2.419-1.637-3.962-3.249-5.49-10.785-8.209-8.736-22.303-5.681-33.865 1.375-5.204 4.264-13.812-1.62-17.472-2.48-1.541-5.731-.947-6.86 1.936-.922 2.93-.063 6.187.132 9.129-.113 1.984-1.01 4.011-.821 5.99-1.892 4.403-4.325 11.246-6.656 15.313l-.015-.006c-.951 1.922-1.95 4.774.405 6.063 5.016 7.483 5.316 16.581 7.326 24.87.072 1.072-.13 2.491.561 3.331.262 1.815-.38 4.243.801 5.733.762 5.347.745 11.416 2.796 16.337.264 3.05.952 5.935 1.798 8.836.447.319 1.018.438 1.597.363.755-1.102 1.425-2.254 2.474-3.121.027-.264.042-.527.08-.791 1.458-.913 4.122-5.394 3.652-7.102 1.16-3.546 4.415-7.039 3.895-10.866.921-4.458.572-9.016.816-13.555v.002z" fill="#111119"/></g><g style="mix-blend-mode:darken" opacity=".25"><path d="M206.679 160.708c-1.499.157-3.025.421-4.506.034l-.338.912c-4.036-.035-8.254.759-12.252.679-.501-.272-1.059-.421-1.628-.437s-1.135.104-1.648.349c-.031-2.1-2.205-3.428-4.041-3.581.176-2.516-.053-6.473-3.377-6.502-2.844-2.414-6.264-4.997-10.161-5.03-1.258-1.33-3.662-1.716-4.578.198-.791.268-1.46.814-1.729 1.601-10.7 12.03-30.987 22.86-43.113 6.527-1.41-.966-3.238-2.03-4.094-3.59-.118.02-.221.078-.322.093-1.232.69-3.607-2.117-3.714-3.126-.812-1.137-2.705-1.607-3.266-2.859-1.351-1.141-2.554-2.553-3.827-3.835 2.585 11.254 13.399 19.999 21.745 27.53 13.331 8.988 33.244 4.404 40.694 22.128.787 1.284 1.394 2.799 2.558 3.764 1.499 1.249 4.048-.067 3.977-2.02 2.134-2.185 6.048-3.852 6.413-7.088 2.235-2.614 4.065-5.76 5.505-8.856 9.66-1.107 20.948-6.07 22.516-16.773l-.819-.117.005-.001zm-37.834 21.13c-.85-.411-1.861-.646-2.734-.472-.94-.987-1.914-1.953-2.987-2.806.756.274 1.471.805 2.305.711.724.588 1.603.964 2.499 1.189.667.789 1.354 1.775 2.432 1.991.084.203.204.396.313.598-.571-.461-1.171-.892-1.828-1.208v-.003zm8.546-3.636a2.46 2.46 0 0 0-.233-.564 14.37 14.37 0 0 0 .657-1.212c.127.087.243.186.379.264-.308.483-.564.991-.803 1.512zm14.266-92.888l-1.538-.424c-1.029.13-1.761-1.249-2.695-1.655l-1.064-.624c-.703 1.147-5.496-3.992-5.098-4.794-8.705-11.797-16.532-21.169-32.265-20.76-1.272-2.478-4.901-.663-7.079-.481-8.929-.883-19.305 4.296-28.129.663-4.114.15-10.019-.571-12.73-4.251-5.484 6.253 16.815 9.601 19.848 9.943 26.35 1.525 39.164-7.848 56.011 18.793 1.492 4.951-3.928 20.644 1.912 21.575l-.002 4.585c.048-.023.103-.022.153-.032.382 3.882 5.341 2.063 4.584-1.296.086-.114.205-.199.34-.246.237-1.732.241-3.556.442-5.315-.188-.212-.102-.56.068-.783l.021-.264c.067-.009.128-.036.193-.052-.007-.081.008-.158.021-.233 2.583-.762 3.296-3.425 2.77-5.768 1.584-1.358.881-3.9 1.742-5.698-.321-.511-.374-1.377.373-1.562.073-.119.172-.219.292-.289-.025.015-.048.032-.074.046.101-.07.21-.132.305-.21.52-.31.976-.726 1.605-.841l-.006-.026zm-36.833 268.101c-.461-1.087-.594-2.325-.476-3.532.51-4.541 4.162-4.982.26-10.033-2.398-8.26 3.11-7.872-6.023-13.809-.342-.018-.545-.304-.581-.623-2.902 1.456.525 4.659-.443 6.827.092.096.178.195.273.285-.814 3.759.181 8.111 2.47 11.137-7.284 10.177 3.188 20.9 4.711 12.013.214-.71.126-1.513-.191-2.265zm17.387 9.897c.726-.787.37-1.727-.142-2.499-2.827-4.665 1.101-9.366 1.506-13.966-1.681-3.559-4.402-6.548-5.162-10.583-.042-3.348-2.863-4.454-5.115-6.239-1.003.566-1.609 2.241-.852 3.315-.216.852-.211 1.736-.381 2.592l.134.08c-.028 3.861 1.842 7.441 4.228 10.514-3.175 6.551-3.974 19.296 4.672 21.118 2.287.084 3.121-3.236 1.112-4.332zm18.185-7.066c.614-2.256-1.713-4.138-2.055-6.283-.432-2.718 1.486-5.299-.09-7.863-1.539-2.33-3.742-4.155-5.079-6.64-1.142-2.063-3.966-1.916-5.099-3.996-.359-.063-.789-.122-1.132-.031.256 1.502.519 3.059.288 4.575l.189.157.313 2.634c.323.163.677.273 1.024.379.361 2.24 1.676 4.256 3.339 5.644-3.018 4.319 4.396 20.222 8.801 12.367-.344-.131-.625-.485-.502-.941l.003-.002zm48.701 107.839c-1.29-3.534-1.51-7.22-1.974-10.905.455-.254.98-.535 1.301-.925-.069-.166-.059-.369-.101-.548-2.35-2.732-1.565-6.69-2.13-9.981-.749.47-1.393 1.087-1.897 1.813 2.306-6.107 2.392-12.726.16-18.835-1.081-3.15-2.189-6.757-5.161-8.642-3.043-5.72-1.849-12.228-3.217-18.037-.263-2.902-.8-6.39-2.993-8.451-.514-1.444-1.471-2.598-1.937-4.038-.252-.774-.785-1.632-1.498-1.848.155-3.646.758-7.536.012-11.113.683-2.514.649-5.168.947-7.726.663-.739.705-1.715.363-2.555.449-1.72.592-3.647 1.706-5.068-.694-2.831.271-5.664-.159-8.49-.198.161-.378.348-.531.553 1.616-4.747 4.902-9.917 4.432-14.902.997-3.003 1.868-6.488.439-9.491.19-3.333-3.067-6.71-4.263-9.866.076-2.365-.717-5.71-3.616-4.105-.333 1.366-1.37 2.491-1.429 3.897-.952.573-1.133 1.702-1.418 2.649-1.94 3.918-4.638 7.808-6.495 11.886a57.66 57.66 0 0 0-5.159 7.198c.426 1.778-.965 3.826-2.063 5.299 17.276-2.697 12.027 14.392 9.761 25.395-4.317 4.598-8.05 10.827-11.368 16.161-1.387 1.291-3.001 2.67-3.539 4.46-5.133 7.001-38.672 33.275-33.436 39.464 6.965 4.273 14.186-10.012 21.445-11.433 11.047-4.609 23.668.552 14.831 13.303-4.745 6.543-13.62 10.997-14.921 19.636-3.626 8.019 16.132 27.998 3.654 28.109 2.742 6.78 6.167 17.511-2.508 21.349.25 16.125-.77 34.26-10.437 47.772-6.994 8.311-18.734 9.914-27.745 15.228-1.217 1.017-1.005 2.879-.554 4.302 6.25 18.528-7.992 33.42-23.509 41.01a27.91 27.91 0 0 1 1.333 1.222c.141-.007.279.008.42.008 7.865 14.863-2.615 34.048-10.913 46.965-9.798 9.351-14.063 21.739-13.278 35.159-5.779 22.921-6.751 46.851-10.511 70.158-2.676 9.629-2.445 19.278-3.578 29.099-.3 7.725-4.13 15.306-3.643 22.888-.311 4.178-2.552 8.577-1.457 12.774-.063 3.295-2.344 6.833-1.559 9.979-.833 3.727-1.91 7.393-2.027 11.229l-.031-.014c-1.133 2.883-.917 5.821-1.572 8.767-2.092-.178-5.003-.595-6.728.865-10.562-3.431-18.598-11.211-25.688-19.401.084-.953-.224-1.921-1.032-2.433-.625-7.181-6.933-3.594-4.455 2.059-2.501 2.797-1.066 8.711 1.612 10.804 1.03 2.23 2.182 4.39 3.594 6.384.556.293 1.054.98.502 1.513 1.248 1.473 3.052 2.4 4.308 3.842 6.019 7.983 17.71 15.251 27.67 13.439 2.241 2.082 4.281-.965 6.598-.398 3.162 2.291 15.225-7.712 19.257-9.542 1.422.931 3.391-1.167 4.505-1.889 1.018-.422 2.025-.932 2.846-1.69 1.53-1.137 1.043-3.341 1.146-5.001.178-3.865 2.155-7.886.892-11.741.726-8.26 2.992-16.982 2.386-25.131.012-.128.014-.258.004-.388 2.883-4.315 3.853-11.847 2.055-16.793.377-6.371 5.032-13.679 2.146-19.716 2.731-16.48 4.804-33.183 7.232-49.527-.012-1.02-.006-2.04.231-3.045-.243-.487-.367-1.06-.636-1.522-1.431-4.707 2.128-13.51 3.467-18.052.367-1.641 1.815-3.227 1.631-4.95 2.367-2.479 3.744-5.633 5.89-8.269.533-.678 4.477-4.233 4.552-5.101.663-.664 1.633-1.306 1.773-2.271.722-.722 1.482-1.408 2.158-2.182.325.337.736.551 1.171.683 1.139-1.33 2.514-2.407 3.777-3.603.716-8.875 2.773-17.682 3.012-26.35 1.918-9.215 3.381-18.507 4.644-27.829-.298-4.659 3.026-9.591 1.819-14.121.112-2.527 2.601-7.95 1.902-10.349.327-1.213.503-2.453.793-3.664 1.095-.669 2.13-1.425 3.165-2.186 2.1-2.175 5.051-3.186 7.318-5.054 3.057-.923 6.725-3.452 8.954-5.733 10.132-5.677 20.526-11.845 30.012-18.212a2.26 2.26 0 0 0 .357-.229c4.917 1.362 7.03-25.634 7.494-30.014.08-.163.117-.34.17-.512 1.49-2.938 1.973-6.696 2.865-9.943.151-.726.168-1.519-.3-2.134 1.347-12.705 5.515-25.301 9.888-37.368 2.426-3.273 2.879-8.243 5.391-11.683-.396-1.068-.812-2.127-1.12-3.223-1.547 2.128-2.624 4.611-4.252 6.711-.113 0-.229.032-.344.051l1.148-2.307c1.639-.915 1.798-3.145 2.558-4.713 1.929-1.316 4.333-4.457 2.846-6.778.369-.605.572-1.339.64-2.068l-.003.005zm-127.898 460.81a23.74 23.74 0 0 1 .38-2.394c-2.942-4.229-5.606 1.679-6.581 4.489-4.195 5.666-7.763 12.22-12.649 17.58-.004.042-.027.08-.029.122-1.163 4.018-7.561 5.605-7.091 9.663a232.62 232.62 0 0 1-19.639 8.12c-.548.212-1.205.478-1.534.942-4.455-1.33-9.159-.145-13.672-.631-3.386-1.793-7.291-4.483-11.245-4.109-2.461-1.509-4.59-4.785-7.538-5.027a32.24 32.24 0 0 1-3.527-10.535c-.37-2.465-4.607-1.911-4.38.594.345 3.826 1.332 7.415 2.971 10.781-1.407 1.16-.697 3.269.724 4.352.787 4.401 6.478 6.466 10.13 8.183 2.423 3.345 7.152 4.665 11.059 5.364 3.079 6.658 26.702 1.941 29.915-3.431a2.23 2.23 0 0 0 .785-1.394c1.979-1.421 5.479-2.279 6.266-4.736l1.236-1.312c2.898-1.392 5.832-4.537 6.972-7.534 1.056-1.32 2.831-2.533 3.207-4.214.69-.663 1.488-1.603 1.429-2.485.688-.653 1.284-1.523 1.198-2.476 2.802-1.299 7.391-9.251 8.101-12.319 1.326-2.445 2.482-4.978 3.507-7.592l.006-.001zm215.137-393.593c.693-6.151-3.435-12.809-2.455-18.417-.546-.994-.98-2.035-1.369-3.091-.497-.086-1.177-.327-1.106-.951.254-3.477-3.19-5.779-4.629-8.541-.118-.141-.279-.29-.317-.466-.317-.05-.64-.084-.965-.113-1.008-1.345-2.691-1.234-3.916-.137-6.84-.281-13.591.534-20.373 1.505-8.007-.999-14.195 2.516-17.278 9.761.044.877-.099 1.96.468 2.677a55.05 55.05 0 0 0-1.841 3.025c.384 3.418.941 6.891.303 10.3 10.409-25.996 39.061-27.394 48.127-.899 2.39 6.433-.687 14.034 3.84 19.702l1.263-5.245c-.004-.014-.016-.021-.019-.035-.986-2.689.286-6.16.265-9.074l.002-.001z" fill="#111119"/></g></g></g><defs><radialGradient id="B" cx="0" cy="0" r="1" gradientUnits="userSpaceOnUse" gradientTransform="translate(110.649 103.581) rotate(-0.553028) scale(23.7021 16.2747)"><stop stop-color="#d4a2a1"/><stop offset=".132" stop-color="#d4a3a2" stop-opacity=".98"/><stop offset=".27" stop-color="#d7a9a8" stop-opacity=".922"/><stop offset=".409" stop-color="#dbb2b1" stop-opacity=".824"/><stop offset=".551" stop-color="#e1bfbe" stop-opacity=".686"/><stop offset=".693" stop-color="#e9cfcf" stop-opacity=".51"/><stop offset=".836" stop-color="#f2e3e3" stop-opacity=".293"/><stop offset=".978" stop-color="#fdfbfb" stop-opacity=".042"/><stop offset="1" stop-color="#fff" stop-opacity="0"/></radialGradient><radialGradient id="C" cx="0" cy="0" r="1" gradientUnits="userSpaceOnUse" gradientTransform="translate(158.688 103.581) rotate(-0.553028) scale(23.7021 16.2747)"><stop stop-color="#d4a2a1"/><stop offset=".132" stop-color="#d4a3a2" stop-opacity=".98"/><stop offset=".27" stop-color="#d7a9a8" stop-opacity=".922"/><stop offset=".409" stop-color="#dbb2b1" stop-opacity=".824"/><stop offset=".551" stop-color="#e1bfbe" stop-opacity=".686"/><stop offset=".693" stop-color="#e9cfcf" stop-opacity=".51"/><stop offset=".836" stop-color="#f2e3e3" stop-opacity=".293"/><stop offset=".978" stop-color="#fdfbfb" stop-opacity=".042"/><stop offset="1" stop-color="#fff" stop-opacity="0"/></radialGradient><clipPath id="D"><path fill="#fff" d="M0 0h298v263.615H0z"/></clipPath></defs></svg>