<svg xmlns="http://www.w3.org/2000/svg" width="217" height="208" fill="none" xmlns:v="https://vecta.io/nano"><g clip-path="url(#D)"><path d="M134.199 107.33c.098-1.282.081-2.571-.102-3.866-.731-2.421-5.112-3.308-7.276-4.418-1.472-3.177-6.095-1.053-3.633 2.033-1.364 9.414-11.755 18.859-18.547 18.509-.669-.044-.967 1.54-1.217.592-.576-.83-2.23-.893-2.715-2.107-8.8 1.557-12.116-10.039-19.748-13.507-2.008-6.766-4.145-3.498-7.834.291-1.54 1.971-.484 3.147.031 4.59-.989 3.873-4.084 6.121 2.381 7.558-1.665 1.261-.209 3.456 1.515 3.059-1.773 1.691-2.156 6.559 1.66 3.867.413 2.756 1.923 1.97 3.455 2.332-4.568 6.017 1.882 6.128 5.424 1.978.917 2.737 4.802.75 6.306.438 2.42.136 4.419 1.011 6.795.059 1.948-.473 3.911 1.251 5.671-.703.953.453 2.502.786 3.917-.121 1.658 2.67 10.81-4.374 13.305-3.23 8.427 3.864 32.216-8.662 10.612-17.356v.002z" fill="#f2f0e7"/><path d="M69.108 110.375l-3.698 1.92c-3.833.363-13.398 2.05-16.911 1.259 0 0-1 .199-5.085 2.259l-9.247 4.518-6.117 5.277c.06-.18-7.196 9.535-7.196 9.535l-4.078 10.554c.18 0-1.079 5.877-1.079 5.877s.24 9.535 0 12.593c-.264 9.259.486 14.689-2.938 22.083-1.527 4.477-5.361 14.105-7.436 18.334-1.15 4.493-6.036 10.048-3.418 15.591 2.743 5.826 3.401 9.897 3.598 14.572 0 0-.422 3.271 4.198 4.258s10.672 7.299 10.914 7.016c4.397 1.078 12.378 1.939 15.891-3.602l1.979.484 3.274-.72s.205 1.739 3.503-1.799 5.735-5.78 5.735-5.78c-.619.698-.747 5.809 1.285 6.083-1.099 3.125.775 6.942 2.213 9.644l.417 3.837c-.804 1.999-2.726 5.791-3.916 7.572-.741 2.416-1.106 7.704-1.18 10.403-2.32 8.976-9.887 13.906-7.015 24.237l2.192 2.416 1.723.623s-.277.584 4.048 0 8.763.675 8.763.675c4.615 1.589 14.389 5.212 18.833 7.215l9.373 2.564c.131-.035 8.719.924 8.719.924l12.076-.344c8.76-1.428 20.657-5.068 29.339-6.544 8.706-.68 20.06.469 28.337-2.659-.131 0 .738.741 2.898-3.88s1.593-7.455 1.549-7.586-1.962-7.356-1.809-7.514c-3.143-6.942-4.356-5.614-4.076-14.022l-4.667-12.86 1.053-16.29.306-6.69 2.735-8.583.311-5.817c-1.128-2.424-3.524-9.258-4.272-11.773l2.311-9.439c.008-4.051.418-11.921 1.351-15.869l4.499 10.026.956 9.501L172.5 217.5h5.5 22 15l-3.228-16.002c-4.194-21.283-8.47-47.157-17.357-67.137l-7.409-12.024-7.112-6.228-6.067-2.586c-1.094-.448-13.428-4.824-13.577-4.824s-7.858-.995-7.858-.995c-3.628.427-11.046.608-14.687.406 0 0 .452 6.499.221 6.872s-4.684 9.935-4.936 10.024-5.445 5.231-5.612 5.287c-4.394 2.09-6.691 3.77-12.502 4.667-12.804 2.317-24.68 1.631-35.958-3.956 0 0-6.326-5.767-6.16-5.823s-2.945-5.445-2.945-5.445l-1-5.223.295-4.138z" fill="#585577"/><path d="M137.702 108.11l.531 4.36s-1.413 7.349-2.951 9.573-4.984 7.079-9.108 9.011-6.682 3.498-12.372 4.177-14.399 1.248-18.789.572-13.292-2.71-16.097-4.799-7.799-7.096-8.513-9.918-1.944-9.043-1.601-10.443 3.968-3.706 3.863-3.55 1.305 8.927 2.976 11.38 4.803 6.578 5.012 6.682.853 1.202 3.936 2.969l2.139-2.959s.59.699 2.945 1.48 21.06 1.151 21.06 1.151l11.136-2.79s1.684-.321 4.478-2.67l2.425 1.309s1.274-.619 2.137-3.063 3.494-9.431 3.288-9.513.099-5.754.099-5.754l3.407 2.796-.001-.001zm-66.548 73.869c-.053.032-4.009 2.88-3.007 14.485s6.594 12.132 6.594 12.291 3.278 2.648 5.328 1.688 4.695-3.065 4.695-3.065l3.487-1.261c-.006.052 1.927-.316-2.389-4.062s-4.845-14.506-4.845-14.506v-4.747l6.37-1.587s1.008-5.016-5.471-3.424-10.761 4.188-10.761 4.188h-.001z" fill="#88889a"/><g fill="#f2d6ca"><path d="M142.089 225.886c-3.364-4.875-5.573-11.014-11.317-13.698-.69-.873-1.72-1.67-2.73-2.067-1.489-1.555-2.588-3.673-4.308-4.924l-.428-.724c.525.416 1.263.503 1.937.161 3.551-2.195 8.185 3.665 10.855-.805 1.486-1.656-.693-3.392-2.353-2.361-4.91-.052-7.813-4.171-11.95-6.057-.921-.667-1.718-2.093-3.038-1.359-1.668-3.666-2.175-8.729-5.078-11.491-3.222-9.69-14.628-5.406-21.548-2.82-1.821.135-12.043 1.5-10.776 4.066-.888 4.525-.123 9.738 2.458 13.624-.753 5.51 5.035.413 6.798-.991.587 1.81 2.006 3.229 3.222 4.77 2.707 4.32 6.714 7.941 9.672 12.177-.025.584.294 1.15.838 1.411.936 1.866.325 4.34 1.938 5.902-.631.603-.947 1.535-1.001 2.42-1.433 1.568-.508 7.417 2.29 5.094.566-2.564 6.145-6.09 3.689-8.131-.073-.406-.144-.813-.201-1.222.057-.005.11-.031.166-.041.847 1.096 2.601 1.729 3.761 2.464-1.085 2.969-.762 6.186 1.344 8.631-1.372 1.257-2.142 3.196-1.989 5.065-1.013 1.891 1.879 3.468 2.797 1.472-.192.151.045-.248.095-.321a.85.85 0 0 1-.069.272c.621-1.356 1.525-2.54 2.48-3.663l-.077.06c.031-.032.073-.055.104-.088l-.055.043c.614-.369.877-1.13.661-1.819.259-3.286.381-6.536 1.186-9.754.521.958 1.544 1.531 2.562 1.8-.249 3.076 1.447 5.95 3.264 8.453-1.815 2.668-2.503 7.185-.781 10.058.59 1.756 3.335.682 2.58-1.002.008-.049.009-.101.013-.151 1.137-1.775 1.758-3.824 3.398-5.294.303-.74 1.035-1.559.899-2.425-1.207-3.239-2.214-6.543-2.169-10.059.537 1.112 1.902 1.551 3.045 1.737-.322 2.196 1.541 4.39 3.46 5.276-.898 3.156-1.487 4.737.481 7.663.988 2.117 3.559.623 2.977-1.493.533-1.207.462-2.785.78-4.11.248-1.773 2.514-4.727.12-5.753l-.002.004zm-11.028-4.407c-.183-1.097-.912-2.718-2.226-2.382-.197-.245-.402-.485-.605-.725l2.177 1.12c.209.501.563.895.845 1.348-.095.197-.16.41-.191.639zm-8.433-121.698l-1.11-2.694.35-4.221 2.807-4.463s6.006-8.822 5.89-9.31 1.007-29.849 1.007-29.849l-25.556-23.242-37.856 1.326-4.82 15.245c.205.065 1.649 9.515 1.649 9.515L67.386 56l.676 3.34.158 10.871c.027.208 3.967 14.889 3.967 14.889l3.241 9.451 3.522 6.914s1.7 4.064 4.286 4.877c.443.074 2.838 3.177 2.786 3.399s6.081 5.935 6.081 5.935 1.966 1.693 3.19 1.881 4.991.956 4.991.956l4.086 2.902 4.36-2.902 5.172-2.837 5.048-5.788 3.411-6.281.266-3.826h.001z"/></g><path d="M98.926 63.563c.413-.088 2.677.15 2.677.15l3.484-1.526s2.909-1.361 2.528-4.657l-2.914-2.211-4.049-.974-3.493.196-2.963.779s-2.422 3.272.957 6.208 3.773 2.037 3.773 2.037v-.002zm-27.859-2.781l2.882 2.064h2.636l2.029-1.032 1.21-2.476s1.099-2.552-.594-3.649-5.461-1.097-5.461-1.097l-3.005.725-1.06 1.159s-.063 3.312 1.363 4.306z" fill="#fff"/><path d="M97.651 60.405l2.05.377 1.901-1.444v-2.672l-1.975-1.159-1.868.181-1.238 1.133c-.155.233-.274 1.897-.274 1.897l1.404 1.687zm-25.331-.868l1.629.868 1.642-.434 1.238-1.251-.321-2.053-1.571-1.159-2.087.736-.94 1.505.41 1.788z" fill="#3da5dd"/><path d="M83.925 93.452l3.949.212s3.576-.834 3.607-3.605l-4.53-1.04-2.331-.127-3.079.234L80 88.785s-3.184 2.246 3.924 4.668l.001-.001z" fill="#f2c0c7"/><path d="M144.039 41.974c-.248-9.354-5.795-20.706-9.519-24.234S120.584 6.405 108.801 4.871s-18.478.307-18.478.307-6.083 1.704-8.153 3.185l-1.445 1.024a4.99 4.99 0 0 0 .071-.255c.571-2.327 2.304-4.232 3.729-6.085.242-.315.048-.823-.263-1.005-.379-.222-.762-.052-1.005.263-.852 1.106-1.742 2.194-2.496 3.371a12.58 12.58 0 0 0-.449.76c.035-.531.045-1.076-.143-1.54-.14-.343-.587-.448-.803-.105-.367.584-.377 1.349-.464 2.016a55.09 55.09 0 0 0-.22 2.071c-.031.338-.091.675.066.991.121.243.331.419.581.496l-2.068 1.434-6.225 2.228s-5.162 3.926-5.736 6.135-.898 7.291.454 9.149l-2.011 4.058-2.364 7.16c-.056.268-.511 5.181-.474 5.332l1.123 3.619.798-2.384 1.36 5.09 1.314 3.133s1.937 2.556 1.885.682-1.611-3.814-1.611-3.814l-1.098-5.412s1.53-6.172 1.369-6.118 1.077-3.725 1.077-3.725l1.552-4.271 2.354 1.385s2.009.516 2.637.489 2.2-.371 4.615 1.078 3.596 1.127 3.596 1.127l.833.029h8.452l7.325-1.94s7.409-2.324 7.677-2.582c.147.177 1.466 1.075 1.466 1.075l4.883 8.147 4.58 7.842 5.067 5.035 4.953 2.772h1.706s-1.233 3.643-.817 7.469 1.652 5.693 1.652 5.693l-3.738 15.547-1.662 3.447s-.432 2.124 2.191 1.817l.687-2.956 1.729-2.07s1.778-.241 1.703-.289.071-4.156.14-4.334 1.465-1.002 1.465-1.002l2.125 1.173.385-5.596 2.587-7.195 3.87-9.48s3.15-8.01 2.903-17.365l.002-.003z" fill="#d9884c"/><path opacity=".29" d="M100.241 76.673c11.808-.114 21.334-4.894 21.278-10.676s-9.673-10.377-21.48-10.263-21.334 4.894-21.278 10.676 9.673 10.377 21.48 10.263z" fill="url(#A)"/><path opacity=".29" d="M75.744 73.128c5.917-.057 10.683-3.322 10.645-7.292s-4.866-7.142-10.784-7.085-10.683 3.322-10.645 7.292 4.866 7.142 10.784 7.085z" fill="url(#B)"/><path opacity=".57" d="M112.862 212.811c8.922 0 16.155-3.02 16.155-6.746s-7.233-6.746-16.155-6.746-16.155 3.02-16.155 6.746 7.233 6.746 16.155 6.746z" fill="url(#C)"/><g fill="#1d1d1b"><path d="M103.62 120.415c-.49-.795-1.477-1.352-2.273-1.808-.887-.508-1.844-.932-2.831-1.201-1.955-.532-4.136-.475-5.967.443-1.779.892-3.05 2.471-4.218 4.031-1.446 1.93-2.891 3.961-4.061 6.072-.183.33.254.683.528.407 1.553-1.564 2.934-3.34 4.297-5.07 1.096-1.391 2.138-2.928 3.658-3.895 1.616-1.029 3.607-1.296 5.469-.916.925.189 1.812.512 2.65.945.819.422 1.574 1.094 2.445 1.388.224.076.424-.202.304-.396h-.001zm25.519 2.921c-1.433-1.764-3.728-2.807-5.749-3.749-2.171-1.012-4.403-2.146-6.778-2.577-1.123-.204-2.26-.259-3.385-.184l.839-.587c1.346-1.011 2.536-2.189 3.608-3.486 2.232-2.702 4.325-5.911 5.283-9.31.276-.977.448-2.006.44-3.023a10.02 10.02 0 0 0-.081-1.148 7.57 7.57 0 0 0-.172-.818c-.003-.012 0-.024-.001-.036-.099-.359-.222-.706-.415-.999-.443-.673-1.402-.235-1.264.533.1.555.325 1.075.401 1.639.073.549.069 1.115.02 1.666-.096 1.077-.41 2.136-.797 3.141-.743 1.929-1.821 3.755-2.971 5.468-1.099 1.637-2.356 3.146-3.793 4.497-.715.672-1.475 1.277-2.284 1.83l-1.279.869c-.147.096-.307.185-.461.281-2.122.614-4.093 1.731-5.693 3.325-1.632 1.626-2.824 3.696-3.307 5.942-.055.253.069.426.238.502-1.799-.039-3.599-.125-5.396-.235-1.34-.082-2.688-.156-4.018-.346-1.398-.199-2.703-.642-4.06-1.006-.494-.132-.699.503-.328.778.99.732 2.216 1.05 3.406 1.295 1.253.258 2.53.394 3.802.518a94.17 94.17 0 0 0 7.565.443c4.928.082 9.909-.287 14.698-1.506 2.663-.678 5.452-1.577 7.811-3.017.729-.445.092-1.43-.651-1.113-2.214.945-4.378 1.884-6.707 2.527-2.307.637-4.669 1.067-7.047 1.326-2.891.315-5.793.391-8.695.339.103-.047.194-.134.247-.269 1.416-3.557 4.133-6.607 7.798-7.903 1.929-.682 4.035-.909 6.061-.585 2.199.352 4.251 1.345 6.267 2.246 1.069.478 2.106 1.004 3.143 1.546 1.093.572 2.099 1.276 3.177 1.872.457.253.834-.313.53-.687l-.002.001zm6.556-13.012c.025.024.02.014 0 0z"/><path d="M177.018 114.683c-.447-.423-.814-.816-1.325-1.174s-1.077-.638-1.641-.903c-1.133-.53-2.323-.934-3.499-1.355l-7.657-2.528c-2.557-.71-5.17-1.246-7.819-1.448-2.731-.209-5.447.069-8.165.321l-4.487.284c-1.427.022-2.854-.152-4.277-.06l-.229-.365c-.419-.576-.964-1.006-1.522-1.439-.467-.363-.903-.789-1.449-1.004l-.045-.579c-.113-.918-.206-1.905-.94-2.557s-1.715-1.06-2.569-1.512c-2.214-1.171-4.521-2.301-6.918-3.029-.219-.067-.345.249-.154.364l5.358 3.013 2.646 1.58c.344.213.761.414.971.774.226.387.244.932.292 1.367.444 4.026-.402 8.048-1.713 11.842-.365 1.057-.739 2.122-1.159 3.158-.394.972-1.017 2.021-1.105 3.075-.017.203.249.28.38.157.513-.479.859-1.165 1.167-1.837.011.018.021.038.032.056.056.087.116.168.193.238.061.054.124.107.188.158.145.114.293.222.45.318.069.043.141.083.215.12.061.03.125.066.192.081.051.011.101.003.152 0l-.008.003a.88.88 0 0 0 .266-.004c.123-.022.225-.142.257-.257.038-.138-.01-.252-.095-.358-.034-.042-.085-.075-.127-.11-.026-.027-.051-.069-.098-.097-.033-.02-.069-.035-.105-.051-.071-.032-.142-.065-.212-.1-.146-.075-.288-.159-.423-.253-.032-.022-.063-.045-.095-.068a.6.6 0 0 1-.03-.023c-.086-.068-.176-.115-.271-.168-.057-.031-.131-.06-.207-.082l.094-.206c.464-.98.923-1.952 1.32-2.961.1.107.204.192.326.273.113.073.231.138.354.195.26.125.528.25.807.328.192.053.463.07.578-.127.039-.067.05-.156.029-.232-.033-.119-.13-.19-.231-.247-.136-.077-.284-.12-.431-.173-.127-.046-.256-.087-.384-.13-.143-.049-.283-.106-.428-.147-.072-.02-.143-.046-.215-.064-.085-.021-.176-.024-.263-.034a39.54 39.54 0 0 0 1.07-3.237c.096.073.19.147.298.205a3.31 3.31 0 0 0 .508.21c.16.054.32.096.485.128.096.018.197.043.293.044.119.002.233-.038.335-.099.146-.087.18-.3.054-.422-.075-.073-.162-.137-.262-.171-.073-.025-.154-.029-.23-.042-.16-.027-.32-.057-.478-.09l-.458-.101a9.24 9.24 0 0 0-.436-.076c.204-.77.386-1.545.518-2.333.048-.288.088-.578.127-.867.173.219.458.272.71.372l.082.037.066.037.018.012c-.007-.007-.005-.003-.017-.015.053.052.114.087.183.114.022.01.035.017.049.024.035.025.067.038.103.052.099.038.234-.025.282-.115.043-.096.056-.202.038-.305a.53.53 0 0 0-.141-.273 1.15 1.15 0 0 0-.429-.239c-.119-.034-.243-.047-.365-.069-.054-.01-.107-.02-.162-.026-.019-.002-.037-.004-.055-.005-.079-.012-.149-.019-.221-.025-.034-.003-.061.009-.089.021.126-1.07.188-2.146.162-3.222.412.512 1.034.946 1.421 1.374.83.918 1.058 2.149 1.068 3.35.019 2.46-.496 4.92-1.344 7.221-1.71 4.639-4.98 8.657-9.031 11.463-1.12.775-2.297 1.506-3.508 2.13-1.201.619-2.552 1.02-3.691 1.743-.212.134-.148.535.138.51 1.243-.112 2.446-.699 3.571-1.208 1.189-.537 2.347-1.126 3.447-1.829 2.188-1.397 4.24-3.095 5.95-5.052 3.435-3.93 5.693-9.114 5.82-14.366.025-1.02-.044-2.127-.413-3.104.928.35 1.91.449 2.917.507 1.294.074 2.592.032 3.886-.039 2.646-.147 5.284-.427 7.937-.377 5.321.1 10.444 1.78 15.411 3.547l4.071 1.495 1.881.768c.678.299 1.415.505 2.076.821.311.148.669-.238.388-.503l-.004.002zm-83.086 2.1c-.263-.29-.556-.546-.848-.805-.035-.024-.066-.056-.096-.091l-1.262-1.115-2.201-2.056c-1.389-1.368-2.682-2.847-3.74-4.487-.434-.673-.815-1.377-1.165-2.097-.227-.075-.441-.177-.657-.274l-.067.003c-.318-.006-.629-.063-.933-.145.46 1.073.991 2.116 1.631 3.088 1.153 1.751 2.538 3.345 4.103 4.74 1.497 1.335 3.234 2.718 5.133 3.414.105.039.168-.104.103-.176l-.001.001zm24.428 17.13c-4.485.7-8.895 1.557-13.447 1.72a60.33 60.33 0 0 1-13.432-1.035c-4.274-.813-8.747-1.968-12.435-4.356-3.004-1.945-5.432-4.714-7.099-7.87-.937-1.774-1.606-3.667-2.047-5.623-.216-.959-.403-1.941-.413-2.925l-.039-3.125c0-.016-.008-.029-.01-.045.021-.036.043-.071.067-.105.009-.013.018-.025.028-.037.061-.072.126-.14.193-.207.333-.332.69-.644 1.035-.964s.69-.658 1.033-.988l.482-.458a21.68 21.68 0 0 0 .141 1.568 27.49 27.49 0 0 0 .208 1.311c-.148.023-.297.098-.416.165l-.596.342c-.421.247-.845.521-1.228.824-.178.141-.458.304-.522.537-.042.154.024.314.16.393.162.094.343.023.493-.058.41-.219.784-.507 1.171-.763.22-.145.436-.296.653-.445l.338-.228c.031-.022.059-.047.089-.071.207.99.462 1.969.776 2.93.003.009.007.018.01.026-.202.091-.398.218-.576.336-.248.165-.475.367-.699.563a6.91 6.91 0 0 0-.586.562 1.98 1.98 0 0 0-.275.377c-.07.13-.137.251-.128.386-.002.022-.014.063-.009.096.015.115.086.214.214.214.037 0 .069-.011.102-.019.135.001.256-.085.369-.157.126-.082.238-.175.347-.278.197-.185.385-.381.581-.567s.395-.348.582-.533c.105-.104.22-.206.33-.313a29 29 0 0 0 1.743 3.924c-.101.048-.195.115-.286.178-.136.095-.264.197-.392.302l-.674.562c-.216.184-.427.373-.634.567-.111.103-.221.203-.317.32-.05.061-.103.128-.141.198-.046.084-.038.171-.051.257-.019.127.054.29.211.277.065-.005.129.001.193-.008.086-.013.164-.057.237-.103.141-.089.266-.202.389-.314l.647-.59.623-.577c.111-.101.222-.201.326-.309.058-.06.125-.122.186-.188.592 1.045 1.251 2.05 1.973 3.01-.106.091-.206.191-.305.285-.189.177-.364.369-.542.557s-.338.374-.5.567l-.26.315c-.056.072-.104.152-.123.243s-.003.18.013.272a.28.28 0 0 0 .269.204.59.59 0 0 0 .242-.049c.076-.033.145-.082.201-.143.084-.093.157-.2.235-.298l.503-.641.444-.58c.057-.077.121-.158.183-.24.583.737 1.212 1.435 1.883 2.092l.633.614c-.092.087-.184.174-.27.267l-.527.574c-.17.187-.33.384-.493.576l-.26.306-.116.136a.79.79 0 0 0-.136.289c-.088.298.243.51.497.382.076-.038.146-.072.206-.136.04-.043.076-.093.113-.138l.241-.294.525-.648.455-.602c.075-.099.145-.201.213-.305.348.299.714.574 1.111.781.255.133.648-.163.438-.438-.61-.797-1.401-1.452-2.074-2.195-.714-.788-1.395-1.616-2.025-2.473-1.198-1.632-2.219-3.399-3.043-5.249a27.22 27.22 0 0 1-1.835-5.839c-.204-1.042-.354-2.098-.446-3.156-.081-.94.051-2.041-.2-2.954.109.054.228.083.347.04.472-.17.775-.528 1.128-.869l1.143-1.071a53.36 53.36 0 0 1 2.313-1.986c.262-.213.536-.411.802-.619-.199-.362-.359-.743-.502-1.133l-1.029.792c-.797.631-1.577 1.286-2.337 1.961l-1.155 1.058c-.393.37-.818.704-1.007 1.223-.034.093-.031.188-.003.277-.014-.002-.027-.005-.041-.006-.178.009-.286.105-.345.255-.244.622-.208 1.408-.179 2.103-.464.217-.849.617-1.235.946l-1.204 1.036c-.356.314-.742.614-1.061.966-.188.208-.38.477-.474.761-.142.089-.28.185-.428.266-.365.201-.738.348-1.133.477-.713.233-1.435.408-2.168.566-1.855.399-3.724.749-5.607.99-1.817.232-3.646.373-5.476.424a58.5 58.5 0 0 1-2.747.008c-.869-.017-1.922-.242-2.757.018-.373.116-.528.718-.119.907.846.39 1.958.282 2.876.302.955.02 1.912.012 2.867-.019 1.965-.064 3.925-.236 5.872-.504 1.973-.272 3.929-.647 5.85-1.172.734-.201 1.468-.415 2.148-.762.278-.142.594-.311.881-.513-.177 1.557-.032 3.137.202 4.683.281 1.851.832 3.636 1.578 5.351 1.488 3.42 3.824 6.492 6.769 8.786 3.491 2.719 7.766 4.115 12.029 5.103 4.562 1.058 9.263 1.513 13.943 1.431 2.636-.046 5.265-.253 7.877-.613 2.631-.364 5.279-.871 7.78-1.781.287-.104.172-.498-.125-.452v.002zm-31.767-6.736c-.357.034-.657.446-.881.693-.28.31-.527.648-.761.994a9.57 9.57 0 0 0-.603 1.031l-.266.553c-.108.239-.142.433-.15.689-.009.27.367.441.553.229.141-.162.26-.305.346-.505l.231-.509.556-1.058.597-.992.311-.484c.09-.141.207-.335.201-.506-.003-.067-.059-.142-.134-.135zm4.356 1.429c-.119.133-.183.31-.254.472l-.232.59-.373 1.103-.297 1.125c-.087.365-.234.843.025 1.165.061.075.183.075.26.034.323-.171.391-.67.468-.991l.275-1.05.3-1.043.159-.518c.047-.15.08-.401.153-.512.191-.291-.25-.636-.485-.374l.001-.001zm4.688.767c-.051-.084-.165-.118-.251-.066-.176.106-.217.282-.277.469l-.193.634-.272 1.205-.214 1.217-.089.612c-.035.26-.024.432.104.659.074.131.27.159.374.048.149-.159.218-.287.252-.506l.083-.614.198-1.268.215-1.221.094-.615c.031-.194.084-.378-.023-.555l-.001.001zm3.798.474c-.039-.156-.273-.191-.35-.046-.191.363-.242.767-.318 1.167l-.184 1.199-.161 1.224-.066.627c-.001.213.057.369.161.552.016.027.038.05.065.067s.056.028.088.032.063.001.093-.009.057-.026.08-.048c.143-.151.238-.285.288-.49s.063-.43.089-.642l.136-1.209.108-1.209c.022-.407.07-.816-.029-1.215h.001zm4.148.184c-.051-.17-.278-.197-.371-.049-.189.301-.211.708-.26 1.052l-.122 1.047-.056 1.043c-.011.349-.074.813.117 1.121.121.196.424.211.541 0 .167-.301.11-.708.108-1.041l.016-1.083.039-1.04c.017-.339.087-.72-.012-1.051v.001zm4.23.154c-.091-.18-.348-.154-.445 0s-.099.372-.12.556l-.064.568-.078 1.136-.062 1.136c.005.187.049.383.221.488.142.086.301.082.446.009.127-.064.159-.199.131-.321.001-.011.001-.007.003-.021l-.02-.141c.003.084.013-.107.011-.085l.021-.497.03-.923.014-.923c-.006-.305.052-.706-.088-.982zm4.74 2.088l-.08-1.047-.121-1.047c-.02-.157-.034-.335-.143-.459-.114-.13-.267-.164-.422-.084-.128.066-.145.226-.09.343.011.029.014.031.009.005l-.006.091-.004.209-.002.453.018.872c.024.599 0 1.225.111 1.815.036.192.256.313.437.285.204-.031.331-.188.345-.391.025-.347-.025-.7-.051-1.047l-.001.002zm4.205.05a4.21 4.21 0 0 1-.145-.45c-.085-.317-.142-.641-.2-.964l-.211-.929c-.097-.318-.208-.675-.436-.923s-.58.02-.529.308c.054.306.181.599.235.908l.143.98.168.941c.085.345.193.831.579.943.215.062.394-.077.471-.267.073-.181-.008-.376-.075-.547zm4.135-1.668c-.076-.122-.143-.248-.205-.378l-.332-.752c-.229-.55-.463-1.248-1.041-1.519-.186-.087-.412.057-.356.273.079.304.189.547.31.831.006.016.013.031.02.047l.042.106.078.214.14.413.339.88c.14.29.341.73.684.804.27.058.528-.121.534-.406.004-.205-.11-.349-.213-.513zm3.647-1.771c-.121-.189-.229-.309-.367-.505l-.432-.612-.524-.715c-.18-.229-.341-.46-.596-.611-.101-.06-.276.015-.259.148.033.258.135.464.257.691l.383.672.79 1.242c.156.198.454.435.715.296a.27.27 0 0 0 .106-.083c.028-.036.046-.078.053-.123.031-.166-.043-.269-.127-.399l.001-.001zm3.178-2.048l-.018-.023c.026.04-.038-.088-.051-.107-.117-.184-.296-.332-.449-.486l-.407-.425-.444-.494-.227-.254a1.77 1.77 0 0 0-.271-.255c-.189-.143-.49.096-.407.313a1.26 1.26 0 0 0 .144.283l.184.263.393.504.386.446c.134.149.267.31.421.439a1.34 1.34 0 0 0 .305.206c-.038-.018.015.01.019.012l.105.045c.077.024.158.03.233.001.124-.048.174-.176.148-.302-.011-.059-.033-.115-.064-.166zm2.543-2.156l-.037-.064.024.057.009.067c0-.082-.029-.161-.092-.216-.03-.026-.06-.051-.094-.071a.75.75 0 0 1-.058-.04c-.037-.029-.072-.062-.104-.097l-.116-.123-.051-.04c-.028-.019-.061-.029-.094-.03-.054-.007-.115 0-.162.03-.037.024-.067.054-.091.091-.033.051-.045.138-.026.196a1.72 1.72 0 0 0 .051.125c.01.022.019.044.033.064.043.057.086.112.137.161a1.29 1.29 0 0 0 .163.132c.038.028.081.05.126.065.022.008.041.01.065.014.037.008.074.007.11-.005l.031-.013.058-.014c.117-.034.188-.18.117-.289h.001zm-34.398-3.586c-.013-.009-.045-.01-.047-.007.006 0 .022.003.037.007h.01z"/><path d="M97.508 119.839c-.061-.126-.149-.252-.254-.344-.126-.11-.321-.265-.498-.242-.119.015-.21.045-.286.143-.064.083-.107.213-.065.317.051.127.125.197.214.29.008.015.019.029.028.043.005.008.056.104.067.12l.011.032c.012.039.02.077.029.116 0-.008-.003-.011 0-.021-.002.006 0 .019.003.031l.002.023c.003.05 0 .098 0 .148.003-.01 0-.008.006-.023-.006.014-.007.04-.01.054l-.028.106-.018.043-.065.115c-.002.006.003.003-.026.035s-.063.064-.096.095l-.023.017c-.044.029-.09.056-.138.079.01-.001-.005.004-.018.009l-.02.008c-.052.018-.096.031-.141.041s-.177.015-.04.013c-.051 0-.102.009-.154.01-.042 0-.084-.002-.126-.005s-.05-.006-.048-.008l-.142-.037c-.017-.005-.044-.013-.064-.023l-.029-.014c-.041-.02-.08-.043-.119-.067l-.064-.043-.101-.1-.045-.05c-.034-.056-.066-.101-.084-.147l-.022-.072-.018-.083-.004-.177c0-.023.004-.045.005-.068-.007.097.004-.008.008-.026l.018-.066c.007-.023.038-.096.01-.035.026-.056.057-.109.092-.159.007-.01.008-.01.016-.018l.069-.073c.092-.095.117-.104.222-.172.099-.065.158-.146.282-.185s.117-.204 0-.249c-.117-.051-.239-.085-.365-.103-.161-.016-.328.05-.472.116-.268.122-.487.367-.606.633-.286.637-.094 1.363.456 1.788.236.179.511.3.802.353a1.88 1.88 0 0 0 .876-.048c.57-.175 1.037-.619 1.119-1.224.042-.314-.011-.617-.149-.901l.003.005z"/><path d="M96.759 120.499v-.004c-.014.047 0 .048 0 .004zm-.403.522c-.008-.001-.028.009-.032.013l.02-.008.012-.005zm.398-.707c-.001.034.007.048.003.02 0-.013-.002-.016-.003-.02zm-49.959-6.468c-1.867.498-3.702 1.282-5.486 2.019-1.733.716-3.423 1.514-5.047 2.452-2.908 1.68-5.598 3.742-8.015 6.072a43.21 43.21 0 0 0-10.944 17.315c-.636 1.893-1.129 3.837-1.488 5.801-.35 1.916-.702 4.014-.384 5.954.046.28.468.248.535 0 .456-1.688.562-3.491.871-5.214.313-1.749.735-3.476 1.262-5.172 1.039-3.342 2.47-6.548 4.296-9.535 3.413-5.583 8.133-10.265 13.655-13.76 1.672-1.058 3.421-2 5.174-2.914 1.874-.978 3.822-1.744 5.734-2.635.221-.103.063-.446-.163-.385v.002zm-26.815 81.39l.045-4.366c.012-1.415-.026-2.821-.235-4.222-.21-1.414-.606-2.798-.972-4.177-1.508-5.679-2.267-11.573-2.556-17.436-.081-1.635-.114-3.272-.149-4.908-.036-1.702.066-3.453-.104-5.145-.006-.063-.096-.083-.115-.016-.368 1.342-.465 2.798-.597 4.179-.144 1.508-.212 3.025-.223 4.539-.022 2.284.049 4.568.214 6.847-.22 1.048-.269 2.128-.367 3.193l-.358 3.703c-.262 2.524-.61 5.038-1.045 7.539-.845 4.883-2.07 9.678-3.548 14.405-.842 2.691-1.921 5.297-2.779 7.979-.141.441.529.726.75.316 1.188-2.209 2.039-4.621 2.877-6.981.842-2.37 1.559-4.78 2.19-7.215 1.264-4.88 2.137-9.868 2.583-14.889.095-1.095.165-2.192.21-3.289.274 2.008.631 4.006 1.168 5.956.77 2.795 1.714 5.515 1.966 8.422.139 1.61.23 3.223.323 4.836s.078 3.3.388 4.888c.021.105.203.111.218 0 .191-1.374.086-2.776.117-4.159l-.001.001z"/><path d="M33.604 244.438c-2.646 1.016-5.485 2.044-8.356 1.996-1.406-.023-2.785-.337-4.009-1.046-1.167-.676-2.137-1.624-3.117-2.538-2.041-1.905-4.291-3.424-6.985-4.241-1.226-.372-2.76-.428-3.799-1.244-.982-.771-1.139-2.139-1.21-3.298-.18-2.938-.475-5.789-1.313-8.626a30.69 30.69 0 0 0-1.602-4.208c-.634-1.37-1.414-2.747-1.539-4.282-.127-1.564.384-3.1.89-4.556l1.516-3.938 3.61-7.968 3.737-8.672 1.426-4.496c.402-1.536.843-3.111.868-4.704.003-.177-.246-.199-.299-.04-.48 1.425-.758 2.908-1.219 4.343l-1.51 4.14-3.691 8.149-3.825 8.162-1.59 3.973c-.549 1.506-1.1 3.051-1.203 4.663-.096 1.507.346 2.901.939 4.266l1.826 4.448c.976 2.962 1.424 5.956 1.577 9.062.063 1.272.183 2.653.906 3.744.733 1.107 1.908 1.621 3.156 1.932 1.439.358 2.837.696 4.176 1.36 1.275.632 2.433 1.439 3.491 2.388 1.165 1.045 2.256 2.185 3.566 3.055 1.348.895 2.895 1.381 4.504 1.504 3.309.253 6.542-.995 9.483-2.368.531-.248.152-1.17-.403-.957l-.001-.003zm15.093-24.943c-1.32 1.274-2.369 2.977-3.296 4.548l-2.719 5.142c-1.679 3.522-3.313 7.023-5.278 10.398-.536.921-1.094 1.826-1.704 2.701-.203.291-1.546 1.784-.786 2.069.676.254 1.302-.911 1.623-1.349.57-.779 1.092-1.593 1.589-2.42.981-1.634 1.764-3.396 2.522-5.141 1.51-3.478 2.903-7.047 4.695-10.392.503-.939 1.043-1.856 1.603-2.762.578-.935 1.272-1.783 1.874-2.699.05-.076-.06-.155-.123-.095zm39.874-13.898c-3.934.105-7.37 2.921-10.351 5.205l-10.141 7.86c-6.75 5.361-13.372 10.931-19.38 17.125-1.607 1.657-3.117 3.48-4.992 4.846-1.89 1.378-3.971 1.918-6.284 1.75-.272-.02-.371.386-.138.51 1.644.875 3.659.514 5.295-.206 1.858-.819 3.377-2.213 4.783-3.646 3.035-3.093 6.09-6.148 9.306-9.056 6.462-5.842 13.327-11.217 20.209-16.551 1.849-1.433 3.672-2.922 5.627-4.212 1.93-1.273 3.956-2.182 6.173-2.827.431-.125.36-.811-.108-.798h.001zm-1.245-2.836l-2.891-4.253c-.875-1.605-1.48-3.332-1.898-5.109-.47-1.997-.695-4.023-.8-6.07-.096-1.877-.302-3.95.159-5.792.242-.967.734-1.845 1.586-2.398.393-.255.834-.405 1.298-.465.333-.043.611.002.88-.229.031-.027.04-.076.03-.114-.006-.022-.019-.036-.027-.056l.321.015c.487.033.692-.715.252-.932-1.796-.884-3.854-.374-5.672.208l-5.883 2.095a361.08 361.08 0 0 0-11.537 4.509c-7.616 3.128-15.133 6.525-22.479 10.245-2.033 1.029-4.064 2.062-6.047 3.186-2.025 1.148-4.225 2.201-6.079 3.612-.08.061-.039.219.075.178 1.857-.653 3.613-1.664 5.393-2.501l5.439-2.597 11.012-5.154c6.282-2.826 12.639-5.492 19.061-7.987-.192.314-.368.64-.514.984-.943 2.22-1.245 4.791-1.484 7.172-.141 1.404-.178 2.827-.113 4.241-.029.013-.058.024-.087.037-.192.087-.075.345.106.35.186 3.059.917 6.067 2.495 8.743 1.169 1.982 2.764 3.828 4.898 4.785.514.23 1.189-.436.663-.859-.676-.544-1.335-1.118-1.954-1.732 1.384-.41 2.721-.918 4.026-1.553.754-.363 1.497-.751 2.226-1.161.663-.377 1.467-.774 1.86-1.458.105-.182-.025-.467-.256-.447-.787.068-1.485.577-2.154.962-.703.404-1.408.801-2.129 1.173l-4.021 2.009c-.511-.546-.995-1.118-1.411-1.741-.636-.952-1.146-1.976-1.559-3.038.756-.196 1.516-.54 2.215-.816l2.413-.943c.809-.296 1.628-.574 2.459-.801a22.52 22.52 0 0 1 1.254-.296c.412-.089.857-.16 1.173-.453.143-.132.108-.393-.062-.485-.699-.377-1.746.005-2.461.196-.925.246-1.825.564-2.713.92-.842.338-1.679.693-2.507 1.066-.66.298-1.385.583-2.026.961-.148-.432-.278-.869-.391-1.312a21.19 21.19 0 0 1-.606-4.046l4.535-1.093c.97-.233 1.944-.448 2.921-.645.913-.188 2.069-.23 2.851-.769.223-.154.205-.514-.077-.593-.889-.248-1.963.099-2.843.279-1.048.214-2.09.468-3.125.738-1.473.384-2.883.851-4.275 1.411a29.86 29.86 0 0 1 .095-3.527c1.346-.259 2.672-.718 3.974-1.112l2.384-.746c.757-.238 1.477-.447 2.107-.942.209-.164.02-.476-.202-.487-.823-.04-1.572.251-2.345.503l-2.29.751c-1.169.4-2.395.753-3.542 1.245a43.97 43.97 0 0 1 .697-4.289c.272-.051.544-.137.758-.188.778-.183 1.553-.392 2.323-.606l2.312-.644 1.191-.342c.371-.114.693-.216.822-.612.039-.12.001-.298-.1-.38-.546-.442-1.469.034-2.06.214l-2.074.633-2.067.658c-.289.095-.575.196-.861.3.237-.817.568-1.601 1.1-2.278.268-.341.581-.642.933-.895l.962-.372 6.31-2.325c1.07-.385 2.142-.781 3.253-1.03.041-.009.083-.013.124-.021-.311.212-.592.465-.836.753-1.325 1.583-1.38 3.779-1.41 5.742-.07 4.489.361 9.058 2.274 13.174.914 1.965 2.173 4.093 4.13 5.164.317.173.735-.188.518-.518zm-33.144-22.602c-.328-2.182-.967-4.305-1.659-6.396-1.278-3.865-2.84-7.75-2.996-11.869-.042-1.115-.002-2.235.204-3.334a18.08 18.08 0 0 1 .403-1.633c.103-.361.261-.748.079-1.103-.008-.016-.028-.021-.044-.018-.695.149-.972 1.328-1.16 1.902-.296.906-.457 1.859-.546 2.807-.183 1.945.043 3.931.424 5.84.841 4.214 2.66 8.148 3.591 12.338a24.85 24.85 0 0 1 .529 3.611c.089 1.237.042 2.456.19 3.689.027.228.342.373.473.128.979-1.819.81-3.979.511-5.963l.001.001zm-7.137-43.397l-.959-3.863-.806-3.457c-.082-.561-.111-1.138-.044-1.702.058-.49.374-.993.334-1.473-.009-.112-.111-.168-.212-.121-.804.37-.898 1.932-.896 2.69.002 1.217.286 2.406.557 3.584l.955 4.123c.336 1.388.587 2.828 1.269 4.098.111.207.425.105.429-.116.026-1.286-.33-2.521-.627-3.761v-.002zm127.976-18.758c-.038-.131-.259-.189-.321-.042-.431 1.021-.53 2.071-.634 3.165l-.31 3.567-.579 7.004-1.266 14.097-.803 8.065c-.009.1.157.123.176.024.919-4.578 1.576-9.214 2.184-13.844.617-4.693 1.166-9.394 1.502-14.116l.25-4.058c.052-1.301.169-2.596-.2-3.862h.001zm-1.663 98.924l-.904-4.033-1.603-8.233-1.29-8.334c-.351-2.607-.451-5.359-1.295-7.867s-2.873-4.414-3.574-6.976c-.024-.087-.08-.139-.146-.171l1.506-3.877c1.016-2.352 2.184-4.67 2.91-7.134.717-2.436 1.101-4.894.873-7.433-.015-.162-.26-.169-.258 0 .046 4.584-2.309 8.848-4.169 12.905-.947 2.066-1.862 4.161-2.487 6.35-.713 2.496-.899 5.069-.919 7.654-.021 2.721.085 5.453-.309 8.155-.36 2.471-1.05 4.888-1.932 7.221-.885 2.343-1.914 4.63-3.081 6.848-1.193 2.268-2.54 4.442-3.833 6.653-3.184 5.445-6.475 10.856-9.264 16.512-.273.555.485 1.002.83.485 3.154-4.734 5.916-9.729 8.726-14.677l3.8-6.879c1.159-2.114 2.289-4.265 3.255-6.476.281 1.737.762 3.424 1.421 5.071.784 1.962 2.057 3.892 2.284 6.029.228 2.147-.271 4.384-.646 6.489-.359 2.015-.952 3.954-1.673 5.867-2.923 7.756-7.726 14.695-12.531 21.386l-4.458 6.143c-1.538 2.134-3.175 4.246-4.486 6.53-.072.125.1.265.202.156 1.579-1.671 2.952-3.556 4.336-5.388l4.215-5.708c2.486-3.43 4.925-6.896 7.151-10.502 1.955-3.166 3.703-6.482 5.179-9.902-.78 4.732-1.051 9.553-1.466 14.328-.199 2.286-.518 4.669-.334 6.963.181 2.255 1.215 4.034 2.262 5.982 1.03 1.918 1.747 3.989 2.139 6.13.203 1.112.307 2.24.321 3.37.014 1.099-.085 2.196.084 3.287.324 2.092 1.654 3.842 2.645 5.657 1.058 1.94 1.931 3.98 2.483 6.123.585 2.268.794 4.653.436 6.977-.35 2.268-1.289 4.328-2.427 6.302-.233.405.309.823.644.497.968-.942 1.671-2.108 2.184-3.373-.087.973 0 1.973.107 2.928.154 1.385.425 2.752.69 4.118s.545 2.725.702 4.103c.084.691.139 1.386.164 2.082.021.682-.067 1.409.146 2.067.094.29.478.345.643.084.661-1.049.476-2.726.367-3.905-.128-1.384-.372-2.755-.652-4.115l-.791-4.048c-.243-1.445-.254-2.893-.417-4.343-.03-.263-.277-.396-.489-.357.589-2.117.705-4.409.474-6.464-.243-2.162-.823-4.262-1.653-6.271-.841-2.035-1.972-3.877-3.001-5.814-.52-.98-.917-2-.975-3.119-.057-1.102.041-2.206-.018-3.309-.118-2.217-.565-4.422-1.34-6.503-.385-1.032-.845-2.034-1.373-3-.532-.974-1.135-1.928-1.514-2.976-.779-2.151-.459-4.504-.298-6.732l.5-8.259c.156-2.795.329-5.582.275-8.382-.005-.257-.372-.338-.478-.125l.496-1.14c.784-1.924 1.428-3.888 2.075-5.86.659-2.011 1.195-4.059 1.45-6.165.148-1.224.049-2.479-.332-3.654-.373-1.151-.939-2.226-1.445-3.321-1.087-2.353-1.842-4.846-2.546-7.334-.018-.065-.05-.118-.089-.163.771-1.959 1.409-3.972 1.834-6.035.531-2.582.655-5.187.649-7.816-.006-2.731-.086-5.497.47-8.187a22.14 22.14 0 0 1 .402-1.61c.327 1.927 1.699 3.513 2.53 5.26 1.159 2.435 1.254 5.258 1.6 7.889.731 5.554 1.669 11.08 2.824 16.562l1.003 4.509c.353 1.508.63 3.121 1.324 4.518.156.313.668.162.655-.177-.051-1.365-.464-2.72-.774-4.043h.004zm43.588 4.355c-1.138-3.736-1.956-7.529-2.714-11.356l-2.431-12.189-4.79-23.876c-2.932-14.41-6.272-29.058-13.345-42.086-1.843-3.394-3.906-6.686-6.416-9.63-2.405-2.821-5.265-5.48-8.617-7.129-.323-.159-.572.274-.28.479 2.811 1.977 5.34 4.21 7.547 6.852 2.155 2.579 4.011 5.415 5.668 8.334 3.633 6.4 6.361 13.256 8.519 20.281 2.146 6.987 3.754 14.127 5.23 21.281l4.702 23.413 2.693 13.403c.854 4.223 1.448 8.688 3.4 12.575.233.464.986.141.835-.352h-.001zm-109.78-45.086c-.94-.249-2.041-.134-3.001-.084l-3.115.308c-2.102.274-4.172.706-6.224 1.238l-6.128 1.811-3.063.902c-.909.255-2.044.448-2.788 1.062-.161.133-.062.399.119.451.902.255 2.002-.077 2.888-.289l3.087-.813 6.016-1.79 5.998-1.602c1.06-.219 2.131-.371 3.209-.464.986-.085 2.031.004 3.001-.18.284-.054.26-.481 0-.55h.001zm-17.472 21.01c.014-.093-.022-.204-.128-.226-.1-.021-.206-.051-.308-.039a1.4 1.4 0 0 0-.278.071c-.018.006-.137.077-.162.074l-.068.009c-.113.031-.219.105-.318.166-.337.206-.647.475-.959.717l-.837.693-.419.393c-.14.157-.302.328-.348.537-.048.217.103.473.35.459.377-.021.721-.307 1.008-.528l.761-.572.819-.615c.155-.114.322-.23.454-.372.077-.083.083-.12.157-.201a.73.73 0 0 0 .141-.219.8.8 0 0 0 .135-.348v.001zm87.292 20.546h1.644l2.965-5.847c.836-1.99 1.247-4.083 1.353-6.235.108-2.201-.089-4.397-.329-6.582-.231-2.096-.487-4.217-1.365-6.158-.36-.796-.841-1.567-1.779-1.691-.875-.115-1.817.245-2.562.68-1.529.894-2.591 2.439-2.76 4.211-.007.071.106.084.123.017.418-1.671 1.547-3.182 3.117-3.932.881-.421 2.099-.794 2.746.167.537.797.772 1.859.955 2.788.401 2.034.433 4.157.535 6.223.102 2.046.174 4.128-.128 6.161-.308 2.072-1.061 3.965-2.005 5.822-.93 1.829-2.51 4.376-2.51 4.376z"/><path d="M104.351 214.8c-1.322-2.176-3.025-4.155-4.575-6.174l-4.741-6.135c-1.477-1.86-3.146-3.705-4.071-5.921-.879-2.106-1.164-4.455-.749-6.704.449-2.435 1.573-4.661 3.268-6.462.161-.171-.079-.401-.254-.254-3.551 2.98-5.029 7.69-3.997 12.188.552 2.408 1.885 4.392 3.394 6.302l5.139 6.339 2.992 3.653c.999 1.212 1.962 2.46 3.086 3.559.259.254.704-.072.509-.393l-.001.002zm2.226 5.747c-1.325-1.27-1.687-2.996-1.693-4.77 0-.154-.234-.235-.306-.083-.82 1.735-.216 3.768.962 5.202-.954 1.118-1.502 2.526-1.556 3.995a6.38 6.38 0 0 0 .413 2.457c.243.637.591 1.457 1.263 1.728.034.008.069.009.103.002s.066-.021.093-.042a.23.23 0 0 0 .091-.178c-.069-.613-.509-1.161-.717-1.739-.245-.68-.359-1.401-.331-2.123.055-1.43.698-2.709 1.677-3.728.187-.195.202-.526 0-.72l.001-.001zm5.64.348c-.081-.577-.127-1.16-.145-1.743-.035-1.101.172-2.165.206-3.256.032-1.003-.802-1.714-1.389-2.429l-1.929-2.564c-.587-.823-1.163-1.845-1.929-2.508-.039-.033-.12-.015-.113.047.094.866.587 1.797.999 2.555.496.915 1.072 1.781 1.682 2.623l.898 1.18c.35.432.64.709.603 1.303l-.145 3.167.135 1.537c.061.468.319 1.13.203 1.599-.094.382-.576.775-.84 1.058l-.912.937c-1.123 1.135-2.292 2.323-2.343 3.999-.005.152.23.227.298.081.771-1.64 2.041-2.883 3.344-4.101.558-.522 1.498-1.207 1.572-2.026.043-.479-.128-.989-.194-1.459h-.001zm4.014 8.598c-1.255-1.61-1.794-3.669-1.62-5.692.041-.477.133-.947.261-1.408.112-.403.37-.85.193-1.268-.151-.358-.555-.545-.861-.742-.429-.277-.859-.623-1.388-.623-.086 0-.174.094-.139.183.176.451.556.696.938.973.214.156.55.3.601.561.044.225-.116.471-.184.685-.284.894-.412 1.868-.371 2.806.078 1.752.682 3.402 1.694 4.818-.975 1.121-1.511 2.57-1.576 4.052-.067 1.514.355 3.318 1.572 4.33.186.155.466-.036.344-.265-.68-1.27-1.196-2.504-1.136-3.98.059-1.442.656-2.77 1.673-3.787.189-.189.151-.448 0-.642l-.001-.001zm5.178-11.806l-2.032-2.604-4.101-5.594c-.044-.054-.141.004-.118.068.642 1.765 1.651 3.398 2.625 4.999l1.67 2.465.785 1.029c.291.375.732.781.877 1.245.137.436-.038.964-.108 1.402l-.233 1.574-.348 3.063-.219 3.17c-.044.919.079 2.005-.294 2.865-.214.495-.582.941-.885 1.383l-.969 1.432c-.643.922-1.511 1.867-1.845 2.954-.031.1.093.204.184.141.834-.579 1.395-1.528 2.005-2.324l2.019-2.58c.564-.755.745-1.509.782-2.439l.183-3.385.388-3.376.538-3.25c.116-.934-.344-1.55-.904-2.239v.001zm6.261 25.162c-1.235-1.285-2.022-3.029-2.078-4.818-.063-2.005.69-3.797 1.688-5.489.424-.72.284-1.23-.232-1.846-.598-.712-1.13-1.457-1.562-2.283s-.76-1.693-.987-2.592c-.232-.914-.28-1.821-.383-2.753-.022-.203-.15-.359-.367-.367-.407-.016-.718-.199-1.02-.46-.123-.107-.382-.007-.307.179.183.453.52.738.95.905-.091 1.736.464 3.612 1.176 5.158a12.56 12.56 0 0 0 1.447 2.393c.332.432.732.718.391 1.269-.268.434-.513.88-.725 1.344-1.469 3.216-1.367 7.52 1.665 9.807.265.2.562-.222.346-.448l-.002.001zm6.311-10.229c-.193-1.234-.694-2.452-.98-3.673l-.747-4.032-.325-3.804c-.113-1.177-.967-1.682-1.824-2.37l-2.922-2.454-3.114-2.911c-.956-.931-1.891-1.958-2.957-2.763-.051-.038-.104.033-.08.08 1.039 2.041 2.842 3.796 4.443 5.4l2.62 2.448 1.28 1.089c.401.326 1.074.675 1.318 1.15.227.442.134 1.185.177 1.672l.22 1.996.608 3.637.929 3.659c.146.488.48 1.104.413 1.619-.073.557-.565 1.045-.889 1.475-1.367 1.815-3.146 3.994-3.193 6.378-.003.124.194.192.247.067.464-1.075.882-2.155 1.49-3.162.62-1.028 1.356-1.979 2.119-2.904.653-.791 1.34-1.495 1.168-2.596l-.001-.001zm6.417 5.554c-.607-.436-1.308-.692-1.877-1.199-.597-.532-1.084-1.21-1.352-1.966-.568-1.604-.183-3.432.876-4.744.159-.197.185-.452 0-.647-.721-.763-1.391-1.569-1.992-2.429-.175-.25-1.637-2.253-1.435-2.452.283-.28-.017-.671-.359-.616a1.96 1.96 0 0 1-.893-.076c-.176-.06-.293.177-.175.3.206.214.407.343.639.418-.046.712.692 1.648.994 2.139.672 1.093 1.467 2.108 2.322 3.064-1.073 1.511-1.417 3.494-.751 5.257.559 1.478 2.111 3.458 3.881 3.403.253-.008.313-.315.122-.452zm3.03-12.19l-1.141-1.467c-1.317-1.811-2.445-3.753-3.449-5.753-.485-.966-.862-1.958-1.718-2.663-.894-.737-1.863-1.391-2.799-2.072l-3.381-2.477c-1.139-.839-2.266-1.821-3.526-2.472-.135-.07-.263.095-.161.209.791.874 1.798 1.578 2.714 2.313l2.784 2.243 2.678 2.176 1.211.999c.387.39.613.878.857 1.363.971 1.932 2.017 3.835 3.228 5.628l1.881 2.519c.171.211.359.426.419.697.066.296-.04.572-.12.861l-.465 1.615-.906 3.858c-.239 1.216-.566 2.486-.464 3.731.012.151.234.2.276.037.299-1.153.388-2.352.663-3.514.284-1.201.699-2.386 1.07-3.563l.553-1.716c.155-.458.359-.916.326-1.409-.03-.451-.26-.798-.533-1.143h.003zm-19.243-21.436l-1.655-3.113c-1.07-2.199-1.937-4.472-2.778-6.765l-2.446-6.782c-.842-2.262-1.725-4.553-3.096-6.557-1.34-1.959-3.055-3.684-5.284-4.579-.218-.087-.349.257-.156.371 4.155 2.464 6.018 6.914 7.633 11.245 1.625 4.359 3.265 8.725 5.298 12.914.578 1.19 1.181 2.367 1.842 3.513.585 1.014 1.175 2.185 2.134 2.898.076.056.179-.037.155-.119-.321-1.095-1.079-2.049-1.646-3.026h-.001zm-12.605 2.431a1.45 1.45 0 0 0-.317-.166 2.83 2.83 0 0 0-.68-.16c-.44-.052-.954-.016-1.347.202-.146.081-.042.286.108.257l.592-.104c.204-.015.412-.009.614.027.196.033.387.089.569.167l.283.118c.105.048.194.119.314.089.084-.022.115-.104.104-.183-.017-.118-.148-.186-.24-.247zm9.298-.254c-.654-.017-1.33.234-1.974.053-.614-.173-1.154-.334-1.802-.249-.483.064-1.26.234-1.433.764-.025.076.029.17.106.187.234.054.452-.019.683-.062.267-.049.529-.077.8-.055.554.046.985.339 1.497.511.641.215 1.249.011 1.876-.135.233-.055.482-.102.723-.092.223.009.417.074.641.029.042-.012.079-.037.105-.072s.041-.077.041-.12c-.039-.577-.789-.747-1.264-.759h.001zm-11.343-8.369l-.306-3.075-.545-6.289c-.011-.119-.183-.122-.188 0-.073 2.14-.006 4.276.126 6.412l.271 3.197c.103.981.12 2.073.496 2.995.084.205.347.167.376-.051.137-1.041-.121-2.152-.23-3.189zm5.24-.093l-1.287-1.963c-.837-1.236-1.57-2.529-2.31-3.824-.086-.15-.291-.043-.264.111.265 1.505 1.079 2.84 1.86 4.13l1.268 1.974c.422.651.859 1.389 1.495 1.854.154.113.332-.073.298-.229-.161-.744-.651-1.426-1.06-2.053zm21.952 2.52c-.365-.063-.576-.169-.968-.169l-1.146.029c-.79.009-1.595-.003-2.378-.12-1.511-.226-2.958-.837-4.129-1.822-1.192-1.003-2.288-2.045-3.641-2.839l-2.254-1.236c-.711-.375-1.469-.9-2.27-1.04-.211-.037-.345.187-.205.353.548.649 1.43 1.055 2.142 1.499l2.279 1.4c1.427.908 2.562 2.136 3.941 3.098 1.272.888 2.716 1.222 4.238 1.369.757.072 1.518.099 2.278.082l1.249-.058c.362-.039.542-.164.864-.26.13-.039.152-.26 0-.286zm-.033 1.214c-.023-.034-.057-.06-.096-.074a.2.2 0 0 0-.121-.006c-.04.011-.075.034-.102.066s-.042.071-.045.113c.068 1.114-.218 2.166-1.197 2.814-1.006.666-2.262.612-3.371.273s-2.01-1.188-3.165-1.358c-.586-.086-1.183-.065-1.769.012-.552.073-1.189.141-1.605.539-.259.248-.038.613.268.647.356.04.675-.093 1.021-.165.363-.076.729-.118 1.099-.129.82-.024 1.414.181 2.122.567 1.114.608 2.36 1.037 3.646.916 1.058-.1 2.151-.549 2.832-1.391.628-.777.969-1.897.484-2.825l-.001.001zM118.427 91.25c-1.134 2.282-3.142 3.741-5.384 4.842l-3.784 1.707c-1.264.586-2.479 1.265-3.679 1.97-4.626 2.719-9.267 6.038-14.765 6.574-1.601.156-3.212.046-4.805-.141-1.419-.167-2.728-.48-3.903-1.331-.42-.304-.814.327-.521.675.814.964 2.071 1.343 3.274 1.564 1.448.265 2.941.424 4.412.443 2.826.036 5.545-.727 8.116-1.857 2.724-1.198 5.229-2.813 7.765-4.356 2.517-1.531 5.128-2.791 7.756-4.112 2.493-1.253 5.103-2.984 6.053-5.752.107-.311-.387-.524-.535-.226z"/><path d="M91.409 107.008c-.036.957.525 1.905.981 2.708l.753 1.322c.13.224.285.435.45.635.181.219.373.354.591.525.144.113.318.008.294-.171-.036-.259-.05-.48-.139-.732-.086-.244-.191-.486-.315-.713l-.716-1.24-.626-1.163c-.197-.419-.323-.844-.473-1.28s-.784-.363-.802.109h.002zm39.014-41.803l-3.61 14.905c-.563 2.287-.981 4.714-1.894 6.894-.484 1.157-1.239 2.093-1.97 3.097-.611.839-1.09 1.758-1.425 2.741-.37 1.085-.548 2.238-.534 3.384.013 1.106.127 2.374.734 3.324.183.287.725.202.692-.187-.087-1.024-.373-2.001-.376-3.037-.002-1.053.171-2.101.501-3.1.708-2.147 2.454-3.646 3.335-5.701.919-2.144 1.366-4.506 1.936-6.76l1.703-7.241c.577-2.736.996-5.491 1.192-8.28.011-.164-.245-.196-.284-.039zM67.6 35.171c-1.686 4.201-3.448 8.833-3.072 13.443.186 2.28.978 4.273 1.864 6.354.452 1.062.837 2.143 1.007 3.288.18 1.21.161 2.442.111 3.661-.098 2.407-.194 4.784.037 7.188s.706 4.774 1.329 7.106c1.268 4.744 2.888 9.415 4.424 14.078.83 2.52 1.831 4.945 3.039 7.307 1.229 2.404 2.682 4.648 4.125 6.924.196.309.673.034.492-.288-2.309-4.116-4.623-8.266-6.15-12.747-1.546-4.536-3.016-9.126-4.365-13.724-1.367-4.661-2.139-9.346-1.907-14.215.108-2.273.293-4.596-.335-6.815-.6-2.118-1.802-4.004-2.315-6.154-1.228-5.144.466-10.446 1.956-15.34.048-.158-.183-.212-.241-.066h.001zm13.868 30.954c-.215.388-.254.879-.348 1.307l-.33 1.431-.349 1.375c-.091.343-.368.929-.162 1.266.04.065.121.085.187.049.342-.183.387-.791.469-1.126l.332-1.432.291-1.389c.088-.442.254-.951.194-1.404-.018-.137-.203-.223-.284-.077zm-3.111 9.481c-.345-.329-1.12.167-1.373.463-.45.526-.366 1.291-.301 1.929.153 1.489.692 3.08 1.851 4.091 1.166 1.017 2.754 1.325 4.167.645.718-.346 1.332-.873 2.005-1.294a2.66 2.66 0 0 1 1.042-.396c.343-.052.695.044 1.02-.036.083-.02.136-.116.112-.197-.142-.474-.838-.662-1.281-.65-.616.016-1.251.22-1.786.515-1.163.641-2.159 1.581-3.575 1.106-1.291-.433-2.133-1.549-2.566-2.798-.218-.627-.507-1.378-.452-2.051.034-.421.274-.701.644-.882.212-.103.447-.116.514-.366.007-.028 0-.06-.021-.08v.001zm7.598 6.322c-.185.224-.015.484.226.578.327.128.733.158 1.08.197.77.087 1.527.016 2.181-.434.606-.417 1.127-.976 1.339-1.693.174-.591.19-1.449-.404-1.822-.145-.091-.299.059-.27.207.042.21.099.413.065.629-.036.227-.101.439-.212.64-.233.42-.548.816-.907 1.134-.391.345-.855.541-1.36.654-.13.029-1.539.113-1.539-.009 0-.095-.133-.164-.2-.083l.001.002zm-6.689 6.991c.035 0 .035-.055 0-.055s-.035.055 0 .055zm.175.26c.786-.34 1.553.183 2.286.414.745.235 1.406.053 2.144-.093 1.897-.375 3.787.666 5.574 1.142a9.47 9.47 0 0 0 4.807.028c1.454-.373 3.132-1.086 3.98-2.385.18-.275-.163-.539-.417-.417-.76.366-1.45.861-2.22 1.212-.727.332-1.514.555-2.303.675-1.796.272-3.453-.155-5.145-.719-.84-.28-1.678-.548-2.558-.664-.916-.12-1.707.013-2.593.229-1.26.307-2.865-.922-3.923.099-.268.258.071.607.369.479h-.001zm2.89 3.766c.112.194.196.332.375.476s.383.239.586.33c.431.192.885.297 1.352.357a4.96 4.96 0 0 0 1.333-.007c.468-.066 1.047-.145 1.24-.641l-.093.16c.077-.068.124-.135.146-.236.028-.127-.021-.242-.127-.313-.088-.059-.171-.071-.276-.071l.183.05c-.387-.215-.831.011-1.231.071a5.23 5.23 0 0 1-1.139.046c-.373-.025-.734-.111-1.093-.208l-.551-.173c-.197-.052-.373-.055-.571-.076-.122-.013-.188.141-.134.235zm-1.668-36.679c-.219-.408-.667-.597-1.058-.815-.485-.27-.983-.5-1.501-.701-1.028-.399-2.133-.671-3.235-.735s-2.239.053-3.294.39c-.939.3-1.948.727-2.291 1.732-.3.88-.094 1.959.186 2.819.314.966.83 1.862 1.52 2.608 1.309 1.415 3.235 2.223 5.161 1.897 2.294-.388 3.619-2.36 4.111-4.503.047-.206-.196-.352-.353-.205-.6.564-.84 1.313-1.276 1.994-.449.7-1.088 1.245-1.876 1.524-1.525.541-3.214.065-4.425-.958-1.217-1.029-2.091-2.66-2.077-4.277.009-1.048.918-1.373 1.794-1.633.884-.262 1.802-.352 2.722-.312 1.022.045 2.015.229 2.995.522l1.37.457c.446.158.923.454 1.405.408.106-.01.175-.112.121-.212h.001z"/><path d="M74.379 55.71c-.247-.211-.448-.225-.765-.163a2.46 2.46 0 0 0-.805.315 2.67 2.67 0 0 0-1.12 1.372c-.421 1.181.102 2.555 1.17 3.19 1.137.675 2.559.417 3.487-.492.879-.862 1.257-2.258.607-3.363-.325-.552-.846-.956-1.438-1.187-.515-.201-1.509-.357-1.817.245-.077.149-.046.36.116.444.377.194.831.058 1.217.16.35.092.665.28.917.548.592.631.494 1.535.029 2.215-.515.753-1.459 1.181-2.351.919-.908-.266-1.446-1.141-1.345-2.074.055-.51.317-.968.715-1.288a2.29 2.29 0 0 1 .652-.362c.129-.046.265-.061.394-.102s.212-.132.314-.21c.049-.038.079-.117.021-.166l.002-.001zm17.927 3.392c1.181-.902 1.722-2.11 1.82-3.57l-.358.47c3.092-1.097 6.371-1.568 9.579-.622 1.468.433 2.695 1.264 3.735 2.376.951 1.017 1.61 2.405 2.77 3.191.209.142.44-.091.396-.304-.298-1.435-1.53-2.773-2.532-3.8-1.143-1.172-2.51-2.032-4.085-2.493-3.265-.954-7.154-.682-10.239.761-.211.099-.254.349-.224.55.165 1.113-.367 2.309-1.137 3.084-.175.176.064.517.275.357zm1.189.237c-.022.585.379 1.313.705 1.78.404.579.905 1.074 1.462 1.504 1.127.87 2.449 1.413 3.864 1.577 1.507.175 3.04-.126 4.416-.748 1.2-.542 2.788-1.562 3.253-2.86.096-.268-.242-.499-.471-.362-.525.317-.94.796-1.421 1.174-.529.415-1.117.757-1.725 1.041-1.202.562-2.547.827-3.871.697-1.197-.117-2.376-.576-3.365-1.253-.51-.349-.977-.777-1.383-1.243-.394-.452-.716-1.042-1.157-1.435-.117-.104-.301-.032-.307.128z"/><path d="M99.267 55.183c-.609-.26-1.356-.037-1.922.237-.578.28-1.195.698-1.436 1.319-.234.604-.172 1.365-.031 1.983.148.647.469 1.274.942 1.743.992.984 2.525 1.153 3.696.393.543-.352 1.136-.873 1.414-1.47.285-.611.275-1.335.103-1.978a3.6 3.6 0 0 0-1.04-1.699c-.432-.395-1.328-1.024-1.865-.523-.124.115-.131.303-.057.445.142.276.355.304.617.413a1.96 1.96 0 0 1 .475.285c.317.256.546.591.693.97.15.387.239.814.178 1.23-.07.481-.446.809-.799 1.106-.329.278-.718.524-1.156.572-.453.049-.894-.108-1.266-.357-.803-.537-1.126-1.557-1.085-2.485.025-.576.499-.911.96-1.181.244-.143.506-.254.764-.369.269-.12.568-.205.815-.364.088-.056.115-.221 0-.27zm-17.837-6.667c-1.176.94-2.375 1.238-3.861 1.141l-4.663-.26c-1.278-.06-2.595-.068-3.777.495-.749.357-2.157 1.393-1.755 2.389.084.209.31.345.528.215.428-.257.616-.78.989-1.113.454-.405 1.032-.634 1.622-.753 1.406-.283 2.937-.093 4.36-.052 2.405.068 5.325.421 6.95-1.759.184-.246-.191-.464-.393-.303zm7.916-.455c.152 1.702 2.383 2.608 3.812 2.853 2.232.382 4.593.233 6.849.235 2.269.002 4.65-.198 6.891.232.917.176 1.804.482 2.634.907.808.412 1.394 1.192 2.193 1.583.126.062.281-.012.282-.162.011-1.622-2.259-2.824-3.552-3.255-2.074-.691-4.332-.617-6.488-.598l-7.046.108c-1.049-.005-2.121-.084-3.109-.463-.915-.351-1.505-.976-2.261-1.558-.08-.062-.214.021-.206.118h.001zM65.677 29.179c-.691.481-1.066 1.356-1.416 2.098l-1.183 2.633c-.771 1.803-1.468 3.642-1.963 5.542-.931 3.571-1.203 7.589.229 11.069.26.633 1.09.527 1.172-.159.16-1.329.36-2.588.911-3.817l-1.022-.134c.354 1.723.548 3.445 1.06 5.138.24.794.52 1.575.839 2.34.329.789.721 1.408 1.217 2.093.178.245.665.109.535-.226-.275-.709-.513-1.421-.808-2.128-.32-.764-.595-1.549-.832-2.343-.477-1.596-.93-3.349-.914-5.024.005-.584-.742-.721-1.042-.282-.848 1.241-.974 2.93-1.139 4.382l1.112-.301c-1.42-3.293-1.147-7.165-.301-10.567.436-1.754 1.043-3.461 1.671-5.154l.924-2.505c.341-.853.857-1.631 1.172-2.484.045-.122-.117-.246-.224-.172l.002.001z"/><path d="M74.295 34.273c-6.185-.042-9.67-6.391-9.03-12.013.177-1.552.943-2.846 1.958-4.001.94-1.07 1.977-2.102 3.074-3.011 1.179-.976 2.495-1.645 3.982-2.013 1.497-.37 3.057-.547 4.588-.717 1.868-.207 3.696-.191 5.543.187 1.758.36 3.446.959 5.206 1.307.371.073.658-.461.274-.65-3.156-1.555-6.762-2.362-10.287-2.058-3.307.285-6.858.683-9.562 2.769-1.299 1.002-2.489 2.201-3.568 3.435-1.051 1.202-1.913 2.548-2.182 4.147-.502 2.982.152 6.38 1.769 8.937 1.727 2.731 5.015 4.653 8.297 4.134.262-.041.191-.451-.061-.453h-.001z"/><path d="M82.752 16.248c.8-.284 1.46-.921 2.256-1.253.884-.368 1.834-.537 2.787-.565 1.875-.054 3.724.358 5.568.638s3.718.506 5.56.072c1.558-.367 3.208-1.067 4.228-2.332.092-.115-.02-.266-.156-.202l-2.434 1.124c-.845.311-1.752.471-2.649.525-1.983.119-3.915-.252-5.869-.513-1.729-.232-3.483-.327-5.208-.007-.801.149-1.584.403-2.306.784-.677.357-1.518.854-1.959 1.493-.077.112.052.281.181.235l.001.001zm14.611 1.096c2.161.422 4.339.166 6.479-.295 2.195-.472 4.32-1.231 6.313-2.264l-.653-.847-7.068 5.843c-.404.329.055.828.45.772 2.404-.342 4.822-.076 7.111.724v-.915c-1.475.558-2.827 1.297-4.156 2.139-.396.251-.146.886.322.764 2.188-.571 4.484-.549 6.671.022 1.056.274 2.076.673 3.036 1.191.987.534 1.854 1.305 2.878 1.755.235.103.511-.115.369-.369-.566-1.006-1.669-1.664-2.665-2.19-1.064-.562-2.203-.995-3.372-1.279a14.63 14.63 0 0 0-7.139.064l.322.764c1.248-.791 2.61-1.414 3.987-1.946.434-.168.464-.757 0-.915-2.454-.837-5.044-1.056-7.609-.7l.45.772 7.177-5.734c.495-.402-.136-1.115-.653-.847-1.914.992-3.925 1.771-6.023 2.276-2.047.493-4.15.659-6.226.972-.122.018-.117.218 0 .241l-.001.002zm6.926 14.038c.004 1.075 1.384.959 2.07 1.345 1.131.637 1.898 2.054 2.537 3.137l3.814 7.215c1.222 2.364 2.496 4.718 4.106 6.846 1.733 2.291 3.836 4.138 6.185 5.779 1.3.908 2.635 1.708 4.182 2.117 1.625.429 3.325.513 4.995.595.76.037.892-1.112.177-1.31-2.516-.697-4.612-2.526-5.608-4.948l-1.146.483c1.169 1.525 2.975 2.3 4.878 2.344 1.041.024 2.102-.18 3.088-.504 1.102-.362 1.997-.879 2.887-1.612.216-.178-.02-.503-.258-.444-.902.223-1.748.509-2.629.806s-1.785.53-2.717.554c-1.553.041-3.224-.473-4.166-1.778-.381-.528-1.418-.235-1.146.483a9.71 9.71 0 0 0 2.528 3.721c1.123 1.025 2.471 1.772 3.935 2.18l.177-1.31c-1.411-.066-2.833-.128-4.217-.434-1.426-.315-2.657-.918-3.873-1.713-2.297-1.502-4.392-3.255-6.097-5.415-3.198-4.051-4.979-8.963-7.774-13.265-.729-1.122-1.471-2.312-2.374-3.304-.42-.461-.921-.88-1.514-1.096-.439-.161-1.4-.104-1.638-.581-.098-.195-.401-.096-.4.108l-.002.001z"/><path d="M113.167 42.62c-.372.653.083 1.616.316 2.249l1.044 2.556 1.238 2.472c.431.782.879 1.76 1.574 2.345.159.133.43.011.366-.213-.236-.827-.829-1.592-1.248-2.337l-1.199-2.296-1.093-2.447-.502-1.264c-.133-.356-.225-.748-.442-1.065-.013-.019-.042-.022-.054 0zm15.144 18.062c-.749.472-.705 1.987-.696 2.76.014 1.199.174 2.392.443 3.56.262 1.136.635 2.24 1.115 3.303.432.956.963 2.191 1.907 2.749.118.07.231-.045.212-.163-.156-.97-.814-1.866-1.218-2.748-.467-1.018-.842-2.084-1.119-3.169-.269-1.054-.436-2.131-.523-3.215l-.083-1.588c.003-.471.171-.995.047-1.453-.01-.036-.054-.055-.086-.035l.001-.001zm.351 1.504c-.046 1.627.303 3.389.952 4.882.289.666.682 1.282 1.213 1.781.507.477 1.099.893 1.821.766.169-.03.209-.263.098-.372-.435-.428-.995-.684-1.428-1.119-.466-.468-.824-1.031-1.098-1.629-.296-.647-.49-1.339-.668-2.027-.2-.772-.474-1.531-.582-2.324-.024-.18-.302-.128-.307.042h-.001zM79.575 9.666c.154-.459.384-.912.557-1.369s.383-.897.622-1.322c.481-.864 1.05-1.677 1.666-2.449l1.826-2.123c.315-.337.648-.675 1.039-.924s.794-.303 1.22-.44c.325-.105.312-.538 0-.648-.89-.314-1.864.449-2.452 1.04-.752.756-1.407 1.638-2.057 2.482-.666.864-1.299 1.764-1.787 2.742a11.12 11.12 0 0 0-.595 1.422 4.55 4.55 0 0 0-.202.779c-.039.264.002.521-.004.786-.002.1.139.112.169.023l-.002.001z"/><path d="M79.768 8.983c0-.51.253-1.002.412-1.48s.259-.97.317-1.465.074-.998.046-1.497c-.025-.454-.024-1.046-.335-1.405-.177-.204-.486-.073-.563.149-.081.234-.025.49.003.731l.064.74c.021.482-.002.963-.056 1.442s-.168.951-.238 1.431a4.87 4.87 0 0 0 .005 1.401c.027.199.345.146.345-.047zm.89.57c5.853-3.476 12.5-4.889 19.254-4.871s13.644 1.387 19.929 3.905c6.311 2.528 12.034 6.477 16.133 11.949 4.008 5.349 6.415 11.77 7.166 18.396.465 4.099.335 8.351-.413 12.41a48.75 48.75 0 0 1-1.482 5.917c-.64 2.016-1.465 3.953-2.224 5.923-.204.531.65.879.914.385 1.781-3.329 2.905-7.13 3.679-10.813.779-3.705 1.177-7.451 1.037-11.239-.258-6.97-2.375-13.891-6.188-19.743-3.818-5.859-9.337-10.319-15.65-13.259-6.329-2.948-13.348-4.614-20.317-4.958-6.772-.335-14.03.728-19.956 4.193-.73.427-1.422.928-2.104 1.426-.222.162-.027.525.221.378l.001.001zm58.155 54.891c-.536.461-.724 1.198-.988 1.832l-.914 2.251-1.767 4.463c-.525 1.41-.983 2.864-1.187 4.358-.217 1.587-.14 3.154.087 4.736l.964-.561c-1.03-1.065-2.902-2.452-4.292-1.061-.616.617-.655 1.504-.604 2.324l.258 3.514 1.013-.137c-.143-.742-.87-1.154-1.591-1.071-.845.098-1.595.787-2.134 1.4-1.088 1.235-1.887 3.026-1.549 4.691.067.33.62.341.678 0 .188-1.111.366-2.181.963-3.159.28-.459.625-.874 1.024-1.234.29-.261 1.451-1.173 1.615-.352.113.564 1.06.445 1.013-.137l-.197-2.441c-.054-.667-.213-1.434-.064-2.096.166-.739.865-.943 1.525-.696.624.233 1.092.793 1.526 1.273.427.471 1.044-.046.964-.561-.227-1.474-.391-2.991-.219-4.481.175-1.519.66-2.975 1.199-4.399l1.63-4.135.795-2.034c.258-.681.668-1.402.592-2.144-.018-.175-.203-.259-.34-.141v-.002zM77.111 34.887c1.635 1.633 4.125 2.276 6.357 2.485 2.584.242 5.269.07 7.841-.225 2.854-.328 5.548-1.088 8.226-2.111l7.761-2.744c1.445-.355 2.924-.578 4.415-.572s3.116.245 4.525.725c.424.144.712-.526.307-.728-.566-.283-1.07-.581-1.691-.748-.599-.161-1.228-.249-1.845-.309-1.283-.126-2.571-.055-3.845.125-2.695.38-5.246 1.33-7.767 2.319-2.561 1.004-5.124 2.04-7.835 2.568-2.694.524-5.517.729-8.262.723-1.363-.003-2.746-.084-4.081-.371-1.391-.299-2.598-.8-3.846-1.473-.211-.114-.437.16-.26.336z"/></g><g style="mix-blend-mode:darken" opacity=".25"><path d="M107.739 228.22l-.114-.201c-2.444 3.368-4.081-5.238-1.924-6.124.122-.415.332-.828.653-1.067-1.786-2.478-1.399-5.8-3.577-8.004-2.208-1.869-3.162-4.727-5.444-6.633l.294-.136-2.498-2.888-.094.042c-1.839-1.838-2.512-4.48-4.349-6.318.053-.12.071-.249.091-.377-.834-1.085-1.229-2.422-1.017-3.753-2.633.704-4.841 2.339-7.024 3.917.197.583 1.205 1.33.53 1.875.136.658.754.888 1.262 1.184l-.072.163c-13.452.216-25.518 31.041-39.017 24.14-.676 1.109-1.309 2.24-1.846 3.43.187.025.421.047.547.2-.747 1.006-1.418 2.091-1.819 3.291-5.726-2.129-8.221 9.459-14.258 10.113-4.22 1.383-9.319-3.558-12.645 1.041 1.087.71 2.008 1.623 2.969 2.494.262-.302.601-.552.985-.648.733 2.382 3.806 2.718 5.915 2.431 2.034.863 4.545-.105 6.43-.992 1.367.554 4.351-1.376 4.07-2.937l.636-.749c.527.745 1.636 1.094 2.508.725.956.519 2.421-.503 3.296-.854 2.669-.773 4.562-3.105 6.142-5.276 2.775-1.433 4.907-4.748 7.129-7 9.312-7.396 18.433-15.484 28.286-21.797 1.16-.367 2.296-.946 3.462-1.185-13.517 7.801-25.957 18.415-36.867 29.619.582.306.129.792-.049 1.205.291 1.203.508 2.449 1.362 3.422 1.271-1.536 2.953-2.872 3.94-4.596 7.65-7.419 16.196-13.902 24.645-20.397 9.146-6.089 13.311-8.873 21.477.108.072 1.814 1.28 3.297 2.301 4.719-5.269 6.756 4.102 15.233 3.681 7.816l.003-.003zm-19.199-23.6c-.013.028-.018.051-.001.03l-.022.011c.019.171-.082.333-.086.505-.062-.416-.258-.799-.47-1.157.023-.101.047-.2.016-.3.197.288.502.56.564.91l-.001.001zm-34.986-21.425l-2.315-8.667c-.888-3.625-1.353-7.959-2.646-11.386.145-.414.366-.798.69-1.136-.098-.906.133-1.804.333-2.703-7.811.553-3.511 10.897-3.385 15.831 1.523 6.261-5.031 16.357-2.528 19.135l.979-.567c-.014-.858 1.4-.585 1.938-1.041.071-.185.138-.372.201-.562 1.836-.062 3.74-.977 4.746-2.663 2.001-1.328 1.756-4.14 1.987-6.241zm128.847 15.78c-.299-1.21.181-2.969-.955-3.759-.033-1.612-1.091-2.642-2.167-3.661-7.192-5.474-5.825-14.873-3.788-22.585.917-3.47 2.843-9.211-1.08-11.652-1.653-1.028-3.822-.631-4.575 1.291-.615 1.954-.042 4.126.088 6.088-.075 1.324-.674 2.676-.548 3.995-1.26 2.937-2.883 7.501-4.438 10.213l-.01-.004c-.634 1.281-1.3 3.184.27 4.044 3.345 4.99 3.546 11.058 4.886 16.585.048.715-.087 1.661.374 2.222.174 1.211-.254 2.829.534 3.823.508 3.566.496 7.613 1.865 10.895.176 2.035.634 3.959 1.199 5.894.297.212.678.292 1.065.242.502-.735.95-1.504 1.649-2.082.018-.176.028-.352.053-.527.973-.609 2.749-3.598 2.436-4.737.774-2.364 2.944-4.695 2.598-7.246.614-2.974.38-6.014.543-9.04l.001.001z" fill="#111119"/></g><path d="M159 217.5h5.5c.127-2.223-2.173-5.038-2.971-7.143.051-1.577-.478-3.807-2.411-2.738-.222.912-.913 1.662-.953 2.599-.634.383-.756 1.136-.945 1.768l-2.72 5.514h4.5z" fill="#464460"/><g style="mix-blend-mode:darken" opacity=".25"><path d="M137.745 108.894l-.117-.767c-.144.038-.288.078-.418.145-.021-1.4-1.47-2.286-2.694-2.388.117-1.678-.036-4.317-2.253-4.336-1.897-1.609-4.177-3.333-6.775-3.355-.84-.887-2.442-1.144-3.054.132a2.09 2.09 0 0 0-.256.114l-.074-.058-.801-.617.066-.266c.12-.363.305-.702.514-1.026l-.16-.9-.028-.241c-.011-.169-.065-.3-.134-.414l-.112-.447.22-.845.583-.942c.065-.086.108-.186.125-.292s.007-.215-.029-.317l.144-.209.607-.228c.487-.146.456-.742.132-.958l.242-.407c.488-.892.892-1.824 1.249-2.774l1.416-3.722 1.639-5.971c.136-.107.232-.255.274-.422l.266-1.125c.511-1.037.827-2.158.933-3.309.058-.013.097-.037.148-.053.079-.63.171-1.264.392-1.863-1.019-1.96-1.466-4.257-1.62-6.394l-.055-2.325c-.156-.936-.042-1.906.189-2.841.058-.517.152-1.038.329-1.527.019-.054.052-.102.074-.155-.105-.058-.217-.104-.343-.114.03-.172.052-.347.107-.509.01-.03.027-.054.038-.084-.193-.128-.423-.217-.664-.264a.46.46 0 0 0-.298-.267c-1.046-.314-2.087-.677-3.098-1.108-.167.136-.424.182-.597.04l-1.643-1.269c-.057-.041-.1-.09-.131-.144l-.914-.752c-.027-.039-.066-.059-.099-.091-.087-.084-.117-.183-.119-.283l-.853-.67c-.498-.449-.965-1.004-1.098-1.641l-1.803-1.708-.936-1.492c-.473-.917-1.01-1.797-1.647-2.625-.147-.192-.337-.334-.546-.403l-.868-1.613c-.366-.97-.832-1.883-1.415-2.734-.008-.036-.003-.072-.017-.108l-.614-1.58c-.598-.84-1.162-1.707-1.578-2.653-.029-.068-.042-.141-.039-.215-.57-.888-1.229-1.777-2.018-2.469-.584-.511-1.291-.867-1.808-1.438-1.489.457-2.905 1.124-4.357 1.68a.49.49 0 0 1-.466-.045l-.316.16c-.688.272-1.361.582-2.015.928l-.557.201a.94.94 0 0 0-.299.183l-1.128.199c-.043.061-.081.127-.147.165-1.714.98-3.815.973-5.715 1.281-2.428.394-4.923-.122-7.326.4-.251.054-.424-.072-.507-.249-.081-.003-.163 0-.244-.005-1.213-.085-2.39-.466-3.51-.923-.235-.096-.449-.227-.656-.368l-.216-.02c-.065.007-.131.003-.197-.025l-.086-.033a7.94 7.94 0 0 1-.819-.221c-.504-.167-.998-.349-1.515-.427l-.099-.006c.009.03.015.059.031.089.53.978 1.614 1.736 2.535 2.318 1.011.638 2.131 1.116 3.286 1.424 1.552.413 3.152.506 4.747.422 1.217.121 2.438.08 3.654-.049 2.368-.252 4.686-.815 7.041-1.142l.867-.189c2.022-.43 4.251-.862 6.324-.599 3.719.473 5.011 4.011 6.45 6.959l1.652 3.366 1.499 2.649c1.783 2.51 3.921 4.752 6.558 6.385l.15.087 3.144 2.894c.473.429.984.856 1.32 1.406.331.542.484 1.164.551 1.79.141 1.315.009 2.642.159 3.958.131 1.152.386 2.266.771 3.349l.038.486c.028 1.038.003 2.085-.089 3.119-.189 2.151-.647 4.274-1.219 6.353-.907 3.296-2.161 6.472-3.698 9.519l-.454.643-1.805 2.549c-.633.387-1.244.808-1.798 1.309-.821.742-1.518 1.619-2.386 2.31-.894.711-1.962 1.184-2.993 1.656-.207.095-.317.242-.354.403-.045.012-.088.015-.133.036l-.406.189c-.135.039-.273.07-.406.114a.6.6 0 0 0-.613.036l-1.205.749c-.245.132-.482.28-.717.431-.147-.065-.322-.069-.507.05l-.644.413c-1.111.409-2.164.948-3.124 1.649a.68.68 0 0 0-.206.224.69.69 0 0 0-.088.292l-.863.574c-.57.274-1.132.565-1.678.886-.807.387-1.606.789-2.398 1.205-.716.223-1.416.491-2.11.776-.952.175-1.83.629-2.523 1.305-.01.01-.014.023-.023.033l-.249.108c-.028.012-.043.033-.067.048l-.157.048c-.017-.007-.032-.015-.049-.022-.026-.032-.048-.068-.083-.091-.033-.033-.073-.056-.118-.069-.064-.034-.135-.049-.207-.046l-.043-.002c-.074-.003-.144.013-.208.047-.067.022-.125.059-.174.112l-.002.002-.153.065c-.073.039-.135.096-.179.165-.04.04-.067.087-.082.141-.04.076-.058.158-.055.246.004.069.013.137.026.205a.3.3 0 0 0 .011.041c.016.045.041.091.062.137a.5.5 0 0 0-.011.211c-.169.317-.033.778.267.968.298-.026.596-.061.891-.101 1.217-.167 2.488-.382 3.647-.804 2.724-.992 5.198-2.596 7.987-3.418 2.738-.807 5.422-.345 7.688 1.417 1.931 1.501 4.839 4.243 3.385 6.937-.442.818-1.095 1.446-1.823 2.006-.174.322-.352.643-.537.947-.211.346-.594.238-.781-.017-.348.234-.69.476-1.028.724.601.095.51 1.046-.12.986-.301-.028-.599-.076-.898-.123-.067.065-.141.124-.204.192-.021.033-.022.058-.034.083 5.579 1.477 10.744 3.503 13.448 9.935.526.857.931 1.867 1.706 2.51 1 .833 2.7-.045 2.653-1.346 1.422-1.458 4.033-2.57 4.276-4.728 1.49-1.742 2.711-3.841 3.671-5.906.209-.024.422-.057.633-.087.136-.673.314-1.34.424-2.016.205-1.253.404-2.51.495-3.778a16.92 16.92 0 0 0-.132-3.736l.001.005z" fill="#111119"/></g><g fill="#070d1c"><path d="M4.741 205H160l1.079 3H4l.741-3zm165.462 0h42.502l.295 3h-42l-.797-3z"/></g></g><defs><radialGradient id="A" cx="0" cy="0" r="1" gradientUnits="userSpaceOnUse" gradientTransform="translate(100.148 66.1932) rotate(-0.553028) scale(21.3796 10.4693)"><stop stop-color="#d4a2a1"/><stop offset=".132" stop-color="#d4a3a2" stop-opacity=".98"/><stop offset=".27" stop-color="#d7a9a8" stop-opacity=".922"/><stop offset=".409" stop-color="#dbb2b1" stop-opacity=".824"/><stop offset=".551" stop-color="#e1bfbe" stop-opacity=".686"/><stop offset=".693" stop-color="#e9cfcf" stop-opacity=".51"/><stop offset=".836" stop-color="#f2e3e3" stop-opacity=".293"/><stop offset=".978" stop-color="#fdfbfb" stop-opacity=".042"/><stop offset="1" stop-color="#fff" stop-opacity="0"/></radialGradient><radialGradient id="B" cx="0" cy="0" r="1" gradientUnits="userSpaceOnUse" gradientTransform="translate(75.6079 65.9959) rotate(-0.553028) scale(0.474 0.318)"><stop stop-color="#d4a2a1"/><stop offset=".132" stop-color="#d4a3a2" stop-opacity=".98"/><stop offset=".27" stop-color="#d7a9a8" stop-opacity=".922"/><stop offset=".409" stop-color="#dbb2b1" stop-opacity=".824"/><stop offset=".551" stop-color="#e1bfbe" stop-opacity=".686"/><stop offset=".693" stop-color="#e9cfcf" stop-opacity=".51"/><stop offset=".836" stop-color="#f2e3e3" stop-opacity=".293"/><stop offset=".978" stop-color="#fdfbfb" stop-opacity=".042"/><stop offset="1" stop-color="#fff" stop-opacity="0"/></radialGradient><radialGradient id="C" cx="0" cy="0" r="1" gradientUnits="userSpaceOnUse" gradientTransform="translate(112.824 206.293) scale(0.7145 0.2985)"><stop stop-color="#d4a2a1"/><stop offset=".132" stop-color="#d4a3a2" stop-opacity=".98"/><stop offset=".27" stop-color="#d7a9a8" stop-opacity=".922"/><stop offset=".409" stop-color="#dbb2b1" stop-opacity=".824"/><stop offset=".551" stop-color="#e1bfbe" stop-opacity=".686"/><stop offset=".693" stop-color="#e9cfcf" stop-opacity=".51"/><stop offset=".836" stop-color="#f2e3e3" stop-opacity=".293"/><stop offset=".978" stop-color="#fdfbfb" stop-opacity=".042"/><stop offset="1" stop-color="#fff" stop-opacity="0"/></radialGradient><clipPath id="D"><path fill="#fff" d="M0 0h217v208H0z"/></clipPath></defs></svg>