<svg xmlns="http://www.w3.org/2000/svg" width="195" height="220" fill="none" xmlns:v="https://vecta.io/nano"><style><![CDATA[.B{fill:#111119}.C{opacity:.25}.D{fill:#f2d6ca}]]></style><g clip-path="url(#D)"><path d="M151.791 190.226l2.288 3.497 9.476-1.647c-.194-.068 2.199-4.735 1.973-4.763s-3.427-2.954-3.427-2.954l-10.31 5.867h0z" fill="#96ca95"/><path d="M141.546 191.751c-.309.194.916 4.593.916 4.593l11.28.592 1.463-2.208s-3.356-3.366-3.713-4.142-9.946 1.164-9.946 1.164v.001z" fill="#e8829f"/><path d="M137.492 195.241c.133-.08 7.783-2.122 8.987-2.186l6.52-.5-.315-2.274s3.575-.19 6.537-1.685 5.11-2.201 5.11-2.201l-6.857-24.599-4.917-17.759-.975-2.925-.089-8.178s-4.006-5.375-5.967-9.106-3.129-3.44-3.129-3.44.052-.032-4.17-.763-20.099-2.818-20.099-2.818l-11.537-1.08-25.427 4.343-23.713 4.943-2.752 11.127s.311 1.283 3.178 1.233l37.717-.105 33.661-.134s6.013.088 6.621.282.537.278.608 1.65-.085 6.164-.085 6.164l.186 37.656c-.054.562.177 10.388.177 10.388s-.296 2.583.73 1.967z" fill="#9e9e9e"/><path d="M64.86 124.734s.372 1.318-.888 2.954-3.861 2.927-5.046 3.646-2.891 1.677-3.489 2.961l-1.843 3.996s-1.289 1.832-1.922 2.017-.766-3.641-.736-3.581.134-3.15.197-3.593l.264-1.567s.077-.745.404-.87 1.515-.693 2.678-1.563 3.264-2.275 4.152-2.607 4.902-1.574 4.756-1.514 1.473-.278 1.473-.278v-.001zm31.958-6.085s4.636-.091 5.377-.387 2.96-.838 3.447-1.456l1.284-1.599-6.423-1.93-3.765-1.128-2.232 2.298-1.759 1.462.835 1.758.88 1.224c.075.069 2.355-.242 2.355-.242zM51.953 44.015l.988-4.394s4.897.339 8.319 1.104 7.7 1.948 9.168 2.864 3.761 2.592 4.366 3.247l1.215 1.346v2.555l-6.556-3.909c-.062 0-2.965-1.472-4.728-1.846s-4.053-.888-6.391-.91l-5.739-.023-.643-.034z" fill="#f2f0e7"/><path d="M75.543 9.568s1.737-.752 3.691 4.753l.856 2.766-.219 2.609s-.559 1.568.49 3.032 3.495 4.254 3.495 4.254l.718.815s.22.71-.674 1.492-1.549.907-1.549.907c.024.319.075.635.151.945.125.499.339.937-.646 1.43l.381.851s.129.543-.459 1.107-.52.947-.251 1.626.864 1.689-.492 2.818-1.907 1.066-4.573.561-4-1.138-4-1.138-.703 4.824.296 6.784c0 0-4.487-3.551-12.398-4.533l-4.361-.74-.843-10.579 2.339-8.628 18.05-11.132h-.001z" class="D"/><path d="M78.973 8.719c-.001-.096-.031-.19-.108-.26a.42.42 0 0 0-.304-.109c-.088-.006-.175.013-.252.056-.069.039-.126.094-.185.146l-.225.185.097-.075-.163.129c-.101.076-.207.144-.314.212l.254-1.046c.231-.72.295-2.075.295-2.075l-.38-1.599-1.007 1.428-1.15-3.937s-.587 2.154-2.433-.277c0 0-.017.07-1.737-.1S68.08.705 68.08.705s-.465.927-3.626.239-3.443-.357-3.443-.357-.517.191-.307.77-.918.749-.918.749l-3.125-.33s-2.579.134-3.425.354-.628.671-.628.671.158.827-1.05 1.102c-1.133.258-2.351.576-3.99 1.879l.05-.558.038-.42a1.51 1.51 0 0 0-.044-.495c-.04-.157-.183-.271-.34-.292a.41.41 0 0 0-.407.195c-.168.268-.213.584-.26.892l-.025.191-.021-.014-.172-.139a.53.53 0 0 0-.411-.054c-.112.037-.204.097-.277.191-.168.217-.137.499.042.7.082.093.193.167.293.238a1.84 1.84 0 0 0 .229.14 2.59 2.59 0 0 0 .42.168l-2.316 2.034s-3.668 3.948-4.496 7.812-.732 7.588 1.071 11.47 2.058 4.595 2.124 5.168.428.258.428.258l.613-1.291s.726-.491 1.299.475 1.031 2.626 1.031 2.626l.728-.725s1.214-.767 1.886 1.289.616 2.002 1.413 2.177 1.403.255 1.666.941a6.17 6.17 0 0 0 .724 1.3l.086-.435 2.3.206-.005.022a4.98 4.98 0 0 1-.187.572l-.02.05-.067.147-.136.268c-.057.112-.122.225-.153.347-.052.207.015.442.207.554.353.207.652-.114.817-.392a4.19 4.19 0 0 0 .218-.431c.033.072.069.134.136.187s.171.101.265.094c.516-.041.706-.619.869-1.031.128-.324.225-.683.223-1.033 0-.014-.006-.028-.007-.042a4.25 4.25 0 0 0 .212-.932c.108-1.028-.437-3.949-.11-4.627s1.219-2.086 1.219-2.086-1-.92-1.108-3.411-.072-4.225.722-4.847 2.277-.784 2.943-.297.501 2.375.501 2.375l-.075 1.152 1.105-.387-.196.927.953-.765s.436 1.627.888.704 1.885-2.659 1.885-2.659l4.219-3.234 1.216-1.321 2.24-1.828 2.202-3.378.762-2.767.285-1.5.436.025.26.023c.125.011.241-.003.366-.02.067-.01.152-.069.199-.116.07-.07.111-.161.124-.259.019-.144-.042-.324-.169-.415l.168-.153a4.2 4.2 0 0 0 .163-.178.71.71 0 0 0 .153-.248c.019-.066.023-.136.011-.203z" fill="#d9884c"/><path d="M148.465 211.105s8.326 5.078 11.784 6.089 9.414 2.456 11.275 2.345 3.68 0 3.68 0 .044-4.632-1.978-6.175-3.016-.53-7.704-5.212l-1.707-1.587.113-2.976s12.084.426 16.01-.671 6.747-1.174 11.453-4.434l3.231-2.561-.482-1.196-.416.362-.279-.934s-.909-2.777-5.794-1.865-8.753-.414-8.753-.414l-2.898-.64s.214-.135-.519-.559-5.556-2.64-5.556-2.64-3.6-1.32-3.568-1.385-2.069-.463-2.069-.463-.275 2.499-3.291 4.192-4.701 1.909-4.701 1.909-1.023.437-2.466-.144l-.728.344.977 1.233.369.253-1.613.845s-3.171.981-5.169.997-4.27-1.234-4.27-1.234l-.677-.796-5.447 1.547s-.395 1.539-.455 1.6-1.362 4.923-1.424 5.571-.594 3.868-.594 3.868l1.943 1.173 4.805 2.664 1.853.793 1.451-2.264 3.615 2.366-.001-.001z" fill="#5c5149"/><path d="M48.507 47.096s2.35.822 7.284.493 8.06-.247 11.679 1.563 7.032 4.36 7.237 4.401 3.513 1.346 4.841 1.352 1.286-.447 2.068 1.116 3.578 7.403 4.77 14.395 3.002 15.177 3.002 15.177l1.275 6.622c0 .124.134 1.192.134 1.192s1.593 1.111 2.909 3.99 2.646 5.037 2.646 5.037 1.161 2.045-1.01 3.686l-1.573.675-1.749 1.79-10.461 8.997s.261 1.31-7.654 1.935-10.218.543-11.451.831-6.159 1.484-7.829 2.428-3.605 2.038-4.2 2.766-1.241 1.594-1.241 1.594l-1.245-.866-.508.701s-.397.698-2.206-.66-3.926-1.556-4.019-1.58-2.335-.763-2.335-.763-2.098-.33-2.108-2.181 1.398-2.494 1.398-2.494.855-.673 1.554-2.441 1.041-1.885 1.041-1.885l-.136-2.33s.143-3.106.812-4.793 1.006-2.782 1.351-3.18.952-.993.952-.993l-3.482-1.237s-1.525-.842-1.813-2.322-.422-3.26-1.342-4.037-3.305-2.668-3.305-2.668-.832-1.892-.725-3.66 1.506-6.581 1.506-6.581l2.426-6.992 1.316-5.47 1.727-8.144 1.478-4.317 1.633-2.493s.326-.635.313-2.157 1.838-3.331 1.838-3.331l3.202-3.167h0z" fill="#585577"/><path d="M50.659 44.502c-.051.081-2.152 2.595-2.152 2.595s1.022.367 1.912.479 5.102.327 6.506.043 5.058-.111 5.907.033 3.639.845 4.496 1.379l4.643 2.873 3.783 2.04c.791.306 3.793.962 3.793.962s1.333.266 1.179-.257-.884-2.36-.884-2.36-.04-.303-.864-.5-4.516-1.911-4.516-1.911l-5.255-3.243s-3.213-1.459-5.228-1.833-4.422-.861-5.976-.818l-6.052.033-1.003.022-.29.464h0zm28.63 56.931c-.021.179 3.173 1.011 3.22 1.29s-.075 1.376-.398 2.247-2.67 6.046-2.67 6.046l-1.218 2.09s-.263.691-1.05.57-4.297-.927-4.297-.927l-1.129-.45s1.178-1.122 1.511-2.168 2.446-5.914 2.446-5.914l1.231-3.064c.103-.365 2.352.28 2.352.28zm-30.107 25.703s.885-1.593 2.63-2.766 4.443-2.477 8.131-3.33 9.966-1.351 9.966-1.351 5.206-.24 6.463-.417 3.343-.52 4.265-1.105 1.475-.983 1.475-.983l11.064-9.794 1.967-1.32.7 3.181s.792 2.168 1.253 2.476l-5.003 5.08s-10.715 6.965-10.715 6.965-1.691.816-4.781.963-8.071-.171-8.071-.171-3.566-.059-6.006.709-4.352 1.394-6.023 2.436-3.735 2.593-3.735 2.593-1.23.846-2.01-.374-1.569-2.791-1.569-2.791v-.001z" fill="#88889a"/><path d="M82.395 103.962l6.397 2.223c1.408.751 3.482 1.038 3.419 4.356s.425 5.396 1.182 6.843 3.424 3.657 3.424 3.657.346 1.695-1.671 1.318l-1.07-1.318-2.049-.97s-.245 1.725.655 3.75 1.779 4.065 1.868 5.751l.105 3.063-2.901 3.107s-1.162-1.021-.914-1.82.692-1.509 1.224-1.642c0 0-.488-2.042-.399-2.619s-.141-1.506-.141-1.506l-1.63 4.349-3.894 2.206c-.043.025-.548-1.143-.104-1.764s.673-1.285 1.246-1.419.973-.312.973-.312-.284-1.604-.209-2.023.392-1.503.392-1.503.252-.35.19-.676-.41-1.648-.41-1.648l-2.359 3.585-3.461 1.878s-.412-1.094.061-1.753.871-1.279 1.404-1.279.641-.364.641-.364-.004-1.026.188-1.374.926-1.117.902-1.147-.353-1.091-.353-1.091l-.108-1.331-.955 1.654-3.017 1.716-.747.199s-.355-1.434-.137-1.499 1.24-.787 1.24-.787l.911-.395.128-1.802.266-.535-.569-3.276-.929-5.35-2.451-.056s3.271-6.489 3.665-8.397v.001z" class="D"/><path d="M74.334 22.151c.043.043 1.23.916 2.096.948s1.083-.034 1.185-.318.185-1.234.144-1.681-.093-.934-.266-1.067-.441-.513-.906-.495-1.734.537-2.06.806-1.384.596-.192 1.807z" fill="#fff"/><path d="M76.434 20.31c-.056.126-.354.907-.161 1.577s.706.977.97.967.515.011.576-.543 0-1.755 0-1.755l-.501-.657s-.515-.421-.884.411z" fill="#3da5dd"/><path d="M82.259 33.42a.58.58 0 0 0-.12-.288c-.029-.037-.061-.061-.093-.087-.011-.031-.018-.064-.035-.091-.052-.081-.12-.148-.201-.201-.093-.06-.247-.088-.368-.069a.61.61 0 0 0-.14.021.81.81 0 0 0-.124.05 1.74 1.74 0 0 1-.288.08l-.11.006-.197-.018a.6.6 0 0 0-.469-.051l.031-.004c-.277.064-.484.298-.487.6 0 .119.032.235.091.338s.144.189.246.249c.164.096.377.123.56.166l.45.106c.196.04.398.088.598.098.127.006.255-.049.353-.125a.55.55 0 0 0 .209-.303c.005-.024.005-.048.008-.072l.015-.019a.6.6 0 0 0 .072-.389z" fill="#f2c0c7"/><path d="M45.2 130.908s-.586 2.147-1.087 2.821-.279.468-.455 1.404-.486 1.518-.486 1.518H17.483s-1.681-.616-1.885-1.518-.162-1.549.28-1.901 2.536-.259 2.536-.259l3.618-.669c.516-.085.729-.064 1.256 0a13.56 13.56 0 0 0 4.436-.402l4.515-.994 3.058-.001s1.503-1.752 1.69-2.45 8.214 2.45 8.214 2.45v.001z" class="D"/><path d="M37.414 123.221c-.023.031-1.179 2.768-1.228 3.544l-.163 1.831 9.209 2.83 1.314-4.321s-.95-.338-1.324-.794-3.914-1.531-3.938-1.577-2.416-.923-2.416-.923l-1.455-.59z" fill="#88889a"/><path opacity=".29" d="M75.107 29.971c3.64-.035 6.572-2.089 6.548-4.588s-2.995-4.496-6.635-4.46-6.572 2.089-6.548 4.588 2.995 4.496 6.635 4.461z" fill="url(#A)"/><path opacity=".57" d="M35.056 135.269c.367-1.315-1.888-3.095-5.039-3.975s-6.002-.527-6.37.789 1.888 3.095 5.039 3.975 6.002.527 6.37-.789z" fill="url(#B)"/><path opacity=".57" d="M93.784 121.117c.367-1.315-1.889-3.095-5.039-3.976s-6.002-.527-6.369.789 1.888 3.096 5.039 3.976 6.002.527 6.369-.789z" fill="url(#C)"/><g class="B"><path d="M153.754 192.223c.684.535 1.615.511 2.427.357.911-.173 1.813-.454 2.677-.789 1.654-.642 3.212-1.583 4.308-3.005.286-.371.533-.771.74-1.191a6.83 6.83 0 0 0 .279-.654c.085-.235.102-.436.117-.682.008-.149-.219-.213-.286-.077l-.247.496-.233.534c-.173.346-.378.669-.609.978a8.19 8.19 0 0 1-1.669 1.652c-1.383 1.025-3.01 1.636-4.651 2.107-.909.262-1.837.43-2.747.092-.098-.036-.191.116-.106.182z"/><path d="M164.123 186.355l1.314.302 1.211.371 2.335.901 4.565 2.149 1.269.583c.41.178.878.465 1.332.457a.16.16 0 0 0 .112-.269c-.288-.298-.742-.424-1.112-.596l-1.151-.541-2.33-1.126c-1.531-.735-3.078-1.447-4.697-1.969l-1.375-.385c-.467-.108-.998-.242-1.474-.118-.117.03-.12.211 0 .24l.001.001z"/><path d="M175.999 190.851c-.182.179-.261.471-.354.703l-.283.782c-.082.256-.162.512-.205.777a3.48 3.48 0 0 0-.038.394c-.006.116-.029.243.027.349.022.043.075.039.107.014.094-.075.135-.222.179-.331l.139-.339.23-.743.242-.738c.083-.239.227-.499.23-.754.002-.141-.176-.21-.274-.114z"/><path d="M175.851 193.257c-.639-.214-1.315-.328-1.981-.423l-2.005-.191c-1.335-.048-2.685.062-3.974.425-.633.178-1.261.41-1.829.745-.548.324-1.024.752-1.447 1.225-.84.94-1.512 1.991-2.092 3.107-.617 1.188-1.156 2.574-1.127 3.934.003.173.286.228.315.043.188-1.196.456-2.327.993-3.421.524-1.064 1.242-2.048 1.997-2.96.38-.46.794-.905 1.283-1.251.524-.369 1.116-.622 1.726-.815 1.219-.384 2.5-.53 3.776-.52.718.005 1.438.055 2.151.135l2.173.271c.182.013.199-.251.041-.304h0zm.2-1.912c.5.338 1.193.427 1.775.552l1.884.344 3.795.48c.651.069 1.305.115 1.96.079.646-.036 1.287-.137 1.927-.236 1.213-.189 2.483-.385 3.692-.062.567.152 1.096.425 1.52.835a2.8 2.8 0 0 1 .495.635c.145.256.211.533.309.807.075.209.377.177.388-.052.026-.495-.251-.992-.547-1.372-.316-.406-.728-.739-1.184-.976-1.086-.562-2.36-.578-3.547-.441-1.348.154-2.668.465-4.034.4-1.336-.063-2.681-.261-4.005-.444l-2.192-.358-1.105-.241c-.354-.084-.702-.193-1.067-.185-.129.003-.165.166-.063.235h-.001z"/><path d="M160.996 202.024l1.862.05 1.862.065 3.611.039 6.789-.203c4.412-.334 8.816-1.145 12.857-3.004 1.112-.511 2.186-1.129 3.215-1.789s2.111-1.366 2.931-2.285c.078-.087-.022-.237-.13-.169-.915.586-1.749 1.29-2.659 1.887s-1.866 1.133-2.854 1.597c-1.983.932-4.056 1.659-6.187 2.169-4.309 1.038-8.74 1.235-13.154 1.294l-4.055.026c-.666.003-1.334.002-1.999.037-.695.038-1.392.019-2.089.054-.027.004-.053.018-.071.039s-.029.049-.029.077.011.055.029.077.044.035.071.039zm.839 1.714l3.638.063 3.683.038c2.364.032 4.728.039 7.085-.172 4.455-.397 8.854-1.467 12.834-3.548 2.054-1.074 4.022-2.437 5.669-4.072.161-.16-.081-.397-.247-.247-1.543 1.386-3.211 2.597-5.036 3.585a30.41 30.41 0 0 1-5.818 2.392c-2.201.656-4.469 1.08-6.752 1.317-2.315.242-4.637.263-6.962.267l-4.001.023c-1.365.001-2.73-.019-4.093.044-.199.01-.199.299 0 .31h0z"/><path d="M194.676 195.803v-.015l-.031.072c.074-.07.053-.186.038-.276-.011-.07-.034-.134-.056-.201l-.065-.199c-.028-.085-.05-.19-.118-.252a.19.19 0 0 0-.179-.047c-.056.015-.119.067-.128.128s-.006.119.016.18l.036.094.079.203c.03.077.057.155.099.227a.53.53 0 0 0 .07.1l.03.033c.031.03.065.037.106.04l-.073-.03.01.012c.053.069.168.01.166-.069h0zm-30.85 7.848c-.141.112-.098.302-.095.462l-.007.482-.09.923c-.018.108.028.219.141.25.098.027.232-.033.25-.142a6.5 6.5 0 0 0 .102-1.013l-.013-.5c-.01-.17.005-.388-.168-.477-.044-.022-.084-.013-.12.016v-.001zm-20.716-9.296c.474.59 1.207.981 1.904 1.244.765.288 1.601.381 2.414.387 1.546.011 3.184-.161 4.66-.641.813-.264 1.637-.627 2.321-1.148.197-.15.023-.482-.201-.344-.623.386-1.255.708-1.953.94-.688.228-1.397.39-2.113.499-1.494.228-3.14.364-4.616-.029a5.7 5.7 0 0 1-1.198-.459c-.369-.194-.707-.435-1.061-.654-.134-.082-.245.096-.158.205h.001z"/><path d="M153.68 193.425c.101.197.265.336.428.485l.552.529.943 1.018c.626.729 1.185 1.511 1.713 2.313l3.043 4.868.936 1.329.463.595c.171.211.33.437.556.59.139.094.277-.085.214-.214-.102-.204-.263-.366-.406-.542l-.487-.628-.813-1.155-1.541-2.467c-.989-1.641-1.98-3.291-3.211-4.764a14.11 14.11 0 0 0-1.087-1.167l-.575-.506c-.198-.162-.395-.331-.647-.389-.062-.014-.109.05-.081.106v-.001zm8.809 12.015c.406.553.948 1.025 1.443 1.498l1.53 1.427 3.105 2.652c.514.391 1.052.755 1.628 1.049s1.188.493 1.771.765c1.101.514 1.875 1.405 2.341 2.518.281.67.447 1.388.55 2.105l.251 2.338c.021.147.239.099.247-.034.089-1.368-.03-2.857-.483-4.158-.378-1.09-1.024-2.113-1.992-2.767-.524-.355-1.123-.575-1.708-.806a9.36 9.36 0 0 1-1.804-.944c-1.141-.77-2.172-1.713-3.203-2.621l-1.744-1.581c-.574-.535-1.125-1.147-1.763-1.609-.098-.071-.24.07-.169.168h0z"/><path d="M165.567 208.115c-.076-.096-.187-.072-.29-.04-.147.046-.289.117-.429.179l-.835.397c-.534.271-1.087.564-1.508.998-.037.038 0 .108.053.091.593-.188 1.136-.519 1.689-.797l.832-.402c.102-.047.644-.225.487-.426h.001zm3.097 2.877c-.141.092-.229.238-.328.371l-.298.398-.278.392c-.043.067-.087.136-.117.211-.025.065-.064.153-.043.222.008.028.035.05.065.049.071-.002.129-.055.183-.097.064-.049.115-.109.167-.17.109-.129.208-.271.307-.408l.279-.392c.096-.135.212-.266.256-.427.029-.107-.095-.213-.193-.149z"/><path d="M168.631 211.206c-.047.202-.063.407-.085.613l-.028.295c-.002.104.02.206.059.301.022.052.088.067.121.016.054-.08.093-.171.113-.266.021-.106.024-.216.033-.324l.032-.602c-.005-.136-.212-.175-.245-.033zm12.19-19.192c-.081.002-.121.068-.166.128a1.88 1.88 0 0 0-.147.238l-.241.468-.239.468c-.078.157-.166.34-.168.516-.001.056.071.108.12.07.144-.111.239-.287.32-.447l.257-.519.244-.506c.027-.061.19-.422.02-.416z"/><path d="M180.816 192.29l-.043.445-.003.462c.002.283-.037.613.09.873.021.045.097.046.118 0 .122-.263.077-.59.073-.873l-.011-.445c-.007-.156-.032-.308-.052-.462-.015-.109-.159-.112-.172 0zm5.103.242l-.032.241-.02.218-.041.231-.018.129c-.004.04.003.075.01.115.009.054.082.064.117.031.127-.12.15-.309.171-.474a2.05 2.05 0 0 0 .018-.234.87.87 0 0 0-.04-.258c-.021-.075-.152-.088-.165 0v.001zm-48.459 12.443c1.24.34 2.425.818 3.556 1.432 1.109.603 2.156 1.312 3.188 2.038l6.668 4.413c4.654 2.763 9.668 4.995 14.984 6.108a36.26 36.26 0 0 0 4.544.65c1.563.125 3.144.177 4.702-.015.153-.019.163-.247 0-.247-1.397.002-2.795.019-4.19-.08a34.37 34.37 0 0 1-4.103-.547 43.47 43.47 0 0 1-7.865-2.328c-4.996-1.997-9.55-4.84-13.94-7.918-2.252-1.578-4.687-3.34-7.478-3.741-.151-.022-.221.192-.065.234l-.001.001zm.136-1.944c1.172.41 2.335.832 3.459 1.362a35.66 35.66 0 0 1 3.246 1.76c2.132 1.289 4.159 2.739 6.235 4.116 4.47 2.966 9.333 5.379 14.52 6.803 1.485.407 2.997.726 4.525.923s3.094.316 4.632.152c.148-.016.156-.234 0-.237-1.377-.031-2.752-.06-4.121-.226-1.38-.167-2.748-.434-4.095-.776-2.652-.674-5.238-1.626-7.727-2.76-2.413-1.1-4.725-2.396-6.946-3.843l-6.196-4.11c-1.167-.727-2.36-1.412-3.603-2.001-1.236-.585-2.524-1.114-3.867-1.389-.149-.03-.205.177-.062.227v-.001zm24.449 1.552c-.622.408-1.21.873-1.788 1.34l.255-.033-3.348-2.105c-1.053-.647-2.126-1.264-3.272-1.733-2.208-.904-4.694-1.135-6.849.038-.534.291-1.03.651-1.487 1.052-.44.385-.939.827-1.226 1.342-.089.159.111.3.243.187.392-.335.714-.752 1.102-1.097a8 8 0 0 1 1.27-.924 6.43 6.43 0 0 1 3.127-.89c2.42-.05 4.625 1.075 6.643 2.295l3.585 2.199c.085.052.183.026.255-.033.559-.466 1.117-.942 1.627-1.46.088-.089-.027-.25-.137-.178h0z"/><path d="M138.189 194.586c-.01.226.352.389.506.503a6.26 6.26 0 0 1 .71.622c.443.446.809.961 1.101 1.517.669 1.274.884 2.719.831 4.146-.017.457-.063.912-.136 1.363l-.113.637c-.039.206-.107.416-.087.627 0 .022.007.043.02.06s.032.029.053.035.043.004.063-.004.037-.022.048-.041c.223-.315.276-.806.347-1.178a12.09 12.09 0 0 0 .176-1.242 9.16 9.16 0 0 0-.109-2.485c-.252-1.365-.884-2.678-1.858-3.675a5.23 5.23 0 0 0-.886-.726c-.06-.039-.656-.404-.667-.159h.001zm-1.058 1.197c-.363.598-.547 1.307-.751 1.973l-.588 2.091-.884 4.296-.17 1.172c-.054.411-.131.837-.115 1.252.008.193.296.246.347.047.108-.435.129-.898.186-1.342l.201-1.408.517-2.733.674-2.698c.242-.86.602-1.727.717-2.614.009-.075-.1-.092-.134-.036h0zm-1.429 11.646c.023 0 .023-.037 0-.037s-.023.037 0 .037zm-.432-.675c1.215.927 2.607 1.65 3.948 2.374l4.119 2.06c.093.043.241.037.289-.076a5.7 5.7 0 0 1 .444-.848c.156-.246.415-.481.481-.77.021-.094-.065-.208-.169-.169-.293.107-.468.409-.632.659a5.78 5.78 0 0 0-.489.915l.289-.076-4.13-2.041-1.985-1.08-2.063-1.121c-.119-.057-.203.095-.102.173h0z"/><path d="M137.191 202.785c-.014-.076-.087-.117-.153-.143l-.249-.086c-.166-.055-.338-.093-.508-.132l-.491-.091c-.133-.016-.457-.008-.401.213.044.173.31.142.446.162l.482.077.52.089c.078.012.383.08.354-.089zm-.151 1.947c-.016-.155-.241-.204-.362-.251l-.529-.179a4.85 4.85 0 0 0-.545-.105c-.175-.024-.406-.08-.575-.015-.036.01-.068.032-.09.062s-.035.066-.035.103.012.074.035.104.054.051.09.062c.093.037.205.028.304.032l.258.018a4.69 4.69 0 0 1 .539.088l.546.12c.08.02.165.049.249.038.035-.004.12-.024.115-.077zm-.201-9.156c.521-.024 1.048-.241 1.544-.391l1.587-.453 3.124-.764c2.143-.465 4.312-.799 6.495-1.001l1.82-.136.911-.045c.297-.012.611.017.864-.156.101-.069.11-.214 0-.282-.22-.134-.438-.118-.69-.111l-.868.039-1.647.112-3.267.375c-2.179.316-4.336.775-6.455 1.373l-1.746.533c-.567.186-1.239.344-1.728.696-.084.06-.065.217.057.211h-.001zm16.279-3.493c.026-.399-.05-.825-.102-1.221l-.16-1.221-.077-.587c-.021-.164-.019-.355-.081-.51-.124-.315-.499-.259-.776-.264-1.607-.025-3.204.094-4.793.332l-1.366.234c-.42.083-.84.17-1.186.43-.095.071-.063.21.06.221.441.04.878-.061 1.312-.143l1.41-.241 2.775-.308 1.43-.091c.199-.009.427-.046.626-.025.159.017.158.033.182.19l.051.361.202 1.446c.066.469.103.98.259 1.43.044.127.225.104.233-.032l.001-.001zm-.844-4.386l-.068-10.737-.101-10.727-.227-21.357-.185-12.047c-.009-.259-.4-.261-.404 0-.054 3.577.026 7.157.064 10.733l.116 10.733.252 21.353.186 12.049c.007.235.365.237.367 0h0zm-10.02-67.443c-.073.413.445.369.695.476.202.088.354.278.488.446l.513.686 1.675 2.576c1.071 1.778 2.063 3.604 3.242 5.315.661.96 1.375 1.898 2.193 2.73.238.241.601-.124.371-.371-1.384-1.487-2.509-3.149-3.565-4.88s-2.054-3.498-3.225-5.154c-.315-.444-.632-.9-.992-1.308-.163-.185-.361-.352-.599-.429-.133-.042-.545.018-.615-.11-.038-.071-.166-.062-.181.023zm-34.181-4.198c1.082.163 2.178.198 3.267.279l3.237.297c2.194.236 4.382.522 6.566.836l13.13 1.904 3.695.491 1.812.228.906.112c.333.042.615.05.944-.013.116-.023.142-.209.034-.26a2.46 2.46 0 0 0-.727-.222l-.84-.109-1.677-.22-3.278-.435-6.604-.925c-4.346-.632-8.692-1.325-13.063-1.761-1.227-.122-2.455-.226-3.685-.305s-2.47-.176-3.696-.058c-.083.008-.12.146-.021.16v.001z"/><path d="M142.265 120.424c-.25.37-.391.837-.565 1.246l-.537 1.268-.517 1.27c-.172.436-.355.876-.451 1.335-.017.083.089.129.136.058.253-.378.436-.801.621-1.215l.548-1.261.529-1.266c.176-.423.421-.867.514-1.319.034-.169-.18-.261-.278-.117v.001zm8.984 12.571c.156.147-.5.361-.565.389l-.758.318-1.515.635-1.432.62c-.5.227-1.054.431-1.5.755-.019.012-.033.029-.041.051s-.006.044.003.064.024.038.045.047.043.012.064.006c.322-.057.644-.187.95-.303l.93-.371 1.774-.751 1.803-.775c.213-.094.46-.196.53-.443.048-.168-.033-.303-.183-.377-.084-.041-.179.065-.104.135h-.001zm.353 8.158c.132.752.345 1.488.537 2.227l.588 2.213 1.223 4.461 2.436 8.829 2.454 8.873 2.445 8.827 1.238 4.456 1.268 4.401c.113.358.235.674.413 1.005.045.082.183.046.179-.049-.034-.748-.255-1.462-.449-2.183l-.594-2.212-1.223-4.46-2.445-8.828-2.46-8.87-2.455-8.825-2.513-8.855-.361-1.089c-.013-.034-.038-.062-.071-.079s-.07-.02-.105-.01-.066.032-.085.063-.027.068-.02.104v.001z"/><path d="M164.347 186.103c-.124-.047-.231.004-.342.06-.182.092-.353.2-.529.302l-.964.524c-.673.339-1.369.623-2.074.887l-4.534 1.459-1.285.352-.686.186c-.229.066-.395.175-.597.298-.114.069-.06.231.065.24.207.015.383.043.589.004l.606-.141 1.202-.321 2.382-.717c1.472-.479 2.944-.99 4.327-1.693l1.128-.644.474-.338c.128-.104.29-.22.281-.402-.002-.028-.018-.047-.043-.056zm-1.461-3.152l.01.014c.005.009.012.016.02.021s.018.009.028.011.019 0 .029-.003.018-.009.025-.015c.025-.022.032-.039.045-.068.015-.036-.017-.077-.05-.087-.254-.079-.657.129-.889.218l-.971.386-2.032.795-2.051.75-.987.359c-.302.112-.678.218-.904.456-.033.034-.021.099.029.11.307.067.655-.044.951-.126l1.045-.313 2.015-.716 1.962-.801.951-.433.463-.24c.083-.045.162-.096.239-.151.01-.008.172-.154.16-.155l-.068-.089-.011.026.102-.013-.013-.011c-.05-.045-.141.014-.099.076l.001-.001zm-20.314 10.917c.062-1.344-.039-2.701-.11-4.043l-.233-4.04-.624-7.979-.231-2.264c-.078-.729-.17-1.479-.371-2.185-.016-.055-.092-.041-.096.013-.096 1.333.109 2.701.221 4.028l.344 4.033.565 7.986.321 4.48c.017.127.208.087.214-.029zm-1.606-24.696c.024-1.684-.203-3.383-.355-5.058l-.485-5.013-.147-1.413c-.049-.464-.077-.948-.219-1.395-.039-.12-.195-.087-.209.029-.048.423.004.853.041 1.276l.109 1.23.247 2.552.504 5.013.39 2.796c.015.071.123.053.124-.017zm-4.001 25.695l-.136-11.1-.148-11.103-.066-22.093.042-6.232.029-3.059-.033-3.172c0-.235-.357-.234-.364 0l-.103 2.833-.032 2.719-.042 5.552-.02 11.103.219 22.092.379 12.46c.007.176.277.178.275 0h0zm-.106-57.088l.469.778.511.787.495.765.243.386c.082.12.171.266.306.329.095.045.205-.008.209-.12.008-.283-.252-.58-.397-.805l-.517-.786-.53-.743c-.188-.257-.401-.49-.605-.733-.086-.103-.254.03-.184.142zm.15-.214c.168.132.336.248.532.334a3.52 3.52 0 0 0 .599.195c.416.101.834.123 1.246-.002.065-.019.071-.122 0-.138l-1.144-.23c-.379-.088-.755-.223-1.122-.351-.104-.036-.201.121-.111.192zm-41.747-9.782l3.922.296 3.83.265 7.749.502 15.486 1.138 4.369.346 2.184.124 2.184.072c.091-.004.12-.145.022-.167-.635-.14-1.286-.212-1.933-.28l-1.911-.219-3.868-.337-7.786-.592-15.492-.976-4.377-.191-4.378-.131c-.098.002-.093.138 0 .149v.001zm41.092 9.491c-2.49-.341-4.996-.331-7.504-.324-2.613.008-5.226.001-7.839-.003a3823.35 3823.35 0 0 0-15.52.015l-31.04.092-17.42.081c-.309.005-.31.48 0 .482l31.04-.09 31.041-.155 8.71-.07 8.494.26c.162.019.202-.265.039-.287v-.001zm-79.684.174l-.053-.027.048.064c-.039-.102-.127-.138-.218-.184l-.265-.14a3.65 3.65 0 0 1-.499-.325 4.15 4.15 0 0 1-.451-.4l-.2-.226c-.07-.086-.131-.192-.226-.251-.161-.101-.346.065-.307.236.028.119.132.226.209.317l.204.222a3.71 3.71 0 0 0 .515.432 3.56 3.56 0 0 0 .554.306c.102.045.204.085.311.117.101.03.227.076.324.014l-.081.011.06.008c.097.014.181-.122.074-.175v.001z"/><path d="M100.293 136.77c-.065.079-.15.132-.235.188l.165.213c.205-.243.353-.52.527-.786l.561-.793a12.51 12.51 0 0 1 1.283-1.457c.138-.135.595-.457.445-.687-.175-.269-.554.15-.687.273-.473.437-.896.937-1.285 1.449a9.8 9.8 0 0 0-.59.881c-.189.313-.389.631-.482.988-.044.169.212.239.262.072.03-.098.056-.195.114-.281.032-.046-.042-.104-.079-.06h.001z"/><path d="M99.887 136.865c-.03.029-.058.041-.101.041l.091.069c-.026-.114-.13-.116-.211-.162s-.127-.095-.198-.166l-.422-.466c-.126-.153-.24-.316-.341-.486-.055-.093-.103-.212-.179-.289a.41.41 0 0 0-.043-.036c-.027-.012-.032-.018-.016-.018l-.056-.055c-.041-.039-.082-.077-.14-.089s-.104.008-.133.054c-.057.092-.027.229-.018.312.014.124.091.249.155.355a4.4 4.4 0 0 0 .403.559 3.03 3.03 0 0 0 .486.46 1.1 1.1 0 0 0 .274.164c.082.032.189.056.285.044.063-.008.135-.042.148-.113l.003-.017-.066.066a.33.33 0 0 0 .184-.144c.041-.067-.052-.137-.108-.083h0zm56.883 59.932c-.227-.005-.443.192-.624.315l-.561.406-.551.386-.272.216c-.089.076-.183.178-.191.298l.044-.106c-.038.048-.07.089-.085.149-.01.045.014.104.065.113.113.02.163.007.281-.031a1.6 1.6 0 0 0 .326-.15c.211-.122.407-.273.604-.417l.589-.442.262-.224c.106-.096.215-.193.246-.337.019-.089-.04-.174-.133-.176zm.629 1.215l-.061.035.082-.023c-.107-.01-.198.071-.284.125s-.162.115-.241.175l-.487.393-.45.372c-.15.124-.386.274-.433.473-.027.115.056.25.185.243.215-.011.397-.205.553-.337l.474-.397.455-.392.215-.207c.081-.089.165-.16.176-.286l-.048.115.046-.054c.107-.124-.028-.326-.182-.235zm.966 1.552c-.039.015-.073.017-.113.028s-.071.03-.109.041c-.08.022-.161.085-.232.127-.148.089-.284.199-.418.308a4.3 4.3 0 0 0-.348.327l-.167.179c-.034.04-.064.083-.094.125-.038.053-.062.115-.067.18-.016.135.145.235.263.2.158-.048.276-.229.386-.346l.331-.327.331-.305.169-.157c.06-.058.122-.127.151-.205l-.031.053.051-.051c.07-.07-.001-.216-.103-.177h0zm9.052-12.317c-.254.037-.253.416-.28.611l-.094.708-.081.745c-.013.173-.05.577.237.52.229-.045.214-.433.233-.613l.075-.744.083-.696c.014-.118.048-.26.009-.375-.026-.075-.091-.169-.182-.156zm1.754.6c-.031-.023-.054-.052-.092-.067-.016-.006-.033-.01-.05-.01.001 0-.089.015-.035.011s-.046-.006-.039-.006a.18.18 0 0 0-.085.023c-.037.021-.062.053-.091.08-.055.05-.092.079-.121.147-.024.055-.041.106-.05.166-.02.132-.026.266-.037.399l-.057.791-.016.406c.003.131.019.298.127.388.041.035.101.051.151.019.174-.109.189-.349.21-.535l.04-.599.036-.598.014-.268c.008-.054.022-.138.004-.212v.101c.018-.061.04-.104.044-.17l-.039.095.062-.063-.056.023.025.007c.082.023.115-.084.054-.129l.001.001zm1.095.525c-.139.256-.212.522-.237.812a2.3 2.3 0 0 0 .002.398c.012.146.02.376.17.45.069.034.174.038.228-.029.062-.077.073-.143.063-.237l-.021-.185a2.3 2.3 0 0 1-.006-.371 3.18 3.18 0 0 1 .134-.699c.059-.196-.233-.322-.332-.14l-.001.001zm-87.309-84.001l4.245 1.425 2.057.889c.545.257 1.1.531 1.567.916.49.402.841.904.993 1.524.166.676.126 1.386.112 2.076l-.084 4.765-.045 2.704.005 1.329c.005.439.023.874.136 1.3.017.063.106.06.124 0 .232-.756.221-1.615.238-2.4l.055-2.474.108-4.949c.026-1.385.107-2.848-.911-3.931-.913-.972-2.293-1.463-3.502-1.947-1.615-.647-3.308-1.189-5.014-1.534-.199-.04-.283.249-.085.307h0zm1.231 2.708c-.736.116-1.417.58-1.935 1.102-.533.536-.939 1.208-1.145 1.938-.266.942-.198 1.935-.062 2.892l.547 3.031c.219 1.14.37 2.323.834 3.393.03.07.132.029.133-.036.03-.983-.195-1.95-.381-2.911l-.567-2.875c-.182-.919-.368-1.854-.273-2.796a4.1 4.1 0 0 1 .9-2.181c.544-.664 1.243-1.059 2.011-1.408.091-.042.02-.163-.063-.15v.001z"/><path d="M81.052 112.304l-.056-.01.075.058c-.053-.09-.107-.101-.2-.121-.064-.014-.135-.02-.202-.026a3.73 3.73 0 0 0-.366-.018l-.366-.003c-.135-.001-.311-.027-.429.049-.031.019-.057.046-.075.078s-.027.068-.027.104.009.073.027.105.044.058.075.077c.118.077.293.051.429.05l.366-.003.366-.018.198-.023c.087-.019.153-.04.203-.124l-.075.058.056-.01a.12.12 0 0 0 0-.224v.001zm3.786 6.575c-.092.463.024.989.064 1.457l.134 1.533c.011.131.03.237-.053.35-.06.082-.135.156-.199.236l-.378.519c-.247.382-.444.791-.602 1.217l.142-.142c-1.378.206-2.255 1.538-3.631 1.727l.25.102c-.349-.523-.227-1.19.273-1.565.443-.332 1.006-.457 1.496-.703.123-.062.202-.112.226-.255.032-.185.013-.399.019-.586.012-.362-.017-.754.047-1.111.029-.161.129-.265.189-.412.056-.136.055-.264.033-.406-.052-.348-.102-.725-.257-1.041-.079-.161-.293-.064-.307.083-.03.307.051.621.103.924.025.141.039.223-.035.35-.065.111-.123.217-.153.345-.065.278-.049.579-.058.862l-.034.992.112-.195c-.607.325-1.338.461-1.842.959-.256.257-.415.595-.451.956s.055.724.256 1.026c.061.091.145.116.25.101 1.384-.197 2.256-1.529 3.622-1.76.071-.012.12-.08.142-.143a5.69 5.69 0 0 1 .624-1.265c.133-.202.285-.386.434-.575.136-.172.158-.332.132-.545l-.201-1.578c-.061-.477-.059-1.026-.251-1.47-.018-.041-.088-.03-.097.013zm2.695 1.192c-.028.892.077 1.797.137 2.687l.089 1.321.047.637.027.365c.008.103.05.265.027.364-.037.158-.228.335-.323.465l-.374.524-.694 1.032-.664 1.059c-.233.336-.572.503-.923.691l-2.654 1.43.291.076a2.05 2.05 0 0 1 .2-1.944c.381-.546 1.034-.854 1.693-.848.145.001.236-.138.207-.272a2.65 2.65 0 0 1 .965-2.623c.075-.059.075-.185.034-.261-.206-.379-.296-.776-.326-1.205-.018-.26-.394-.263-.406 0-.023.499.122.987.36 1.423l.034-.262c-.905.712-1.317 1.923-1.073 3.042l.207-.271a2.49 2.49 0 0 0-2.062 1.062c-.482.697-.526 1.607-.199 2.374.046.108.2.125.291.076l2.451-1.331c.346-.189.734-.358 1.015-.642s.47-.668.684-1.005l1.515-2.185c.054-.073.133-.147.166-.231.037-.095.008-.212 0-.31l-.058-.729-.119-1.411-.317-3.131c-.027-.144-.243-.103-.247.034v-.001zm1.96 1.527l1.717 5.392c.133.456.002.842-.135 1.28l-.42 1.347-.853 2.739.114-.148-4.078 2.321.35.143c-.29-.703-.247-1.507.169-2.152a2.3 2.3 0 0 1 1.772-1.021c.146-.009.278-.145.228-.3-.262-.813-.316-1.68-.129-2.516.168-.749.705-1.532.429-2.316-.088-.252-.446-.151-.398.11.075.407-.063.809-.201 1.187-.147.4-.28.795-.346 1.217a5.29 5.29 0 0 0 .188 2.444l.228-.3c-.858.052-1.654.487-2.144 1.198-.511.743-.599 1.746-.257 2.575.058.141.203.225.35.142l2.829-1.597.709-.397c.183-.103.521-.221.639-.4.063-.095.086-.255.12-.363l.123-.392.244-.782.489-1.564.471-1.535c.121-.501.029-.929-.147-1.403l-.577-1.541-1.335-3.433c-.037-.087-.176-.024-.152.064v.001zm2.547.473c-.178-.011-.043.018-.046.07-.004.065.027.154.039.218l.093.401c.083.304.186.603.299.897l.701 1.677c.47 1.16.856 2.327 1.071 3.563a13.94 13.94 0 0 1 .195 1.854l.008.841c-.006.3.038.715-.123.982-.145.24-.387.441-.576.645l-.702.757-.642.69-.337.361-.153.165c-.075.079-.082.121-.192.083-.115-.04-.231-.219-.298-.318a1.7 1.7 0 0 1-.194-.374c-.104-.284-.137-.601-.072-.898a1.66 1.66 0 0 1 1.092-1.207c.107-.036.206-.161.159-.281-.349-.898-.432-1.801-.424-2.756.002-.217-.354-.28-.391-.053-.159.977.022 2.014.376 2.93l.159-.28c-1.138.379-1.776 1.638-1.327 2.77.167.42.684 1.237 1.24.918.133-.077.235-.211.338-.321l.398-.426.798-.851.799-.85c.209-.222.434-.44.508-.747.082-.339.067-.718.072-1.065l-.028-1.093a14.11 14.11 0 0 0-.914-4.199c-.282-.73-.653-1.417-.982-2.126-.175-.372-.331-.752-.466-1.14l-.178-.592c-.04-.144-.059-.288-.163-.401-.046-.05-.114-.047-.17-.022-.109.048-.131.231.012.243.011.001.023-.007.029-.017l.01-.018c.008-.014-.002-.029-.017-.03h0zm.702-6.039c-.118.206.032.447.117.643l.363.749c.265.494.576.961.918 1.404a10.36 10.36 0 0 0 2.472 2.292l-.112-.145c.154.404.042.902-.341 1.141-.372.232-.891.14-1.173-.191s-.389-.781-.74-1.064c-.21-.169-.465-.254-.715-.348-.242-.091-.537-.274-.799-.183-.102.035-.156.147-.1.246.118.208.354.256.565.336.248.093.543.165.75.339.305.256.417.693.669.997.51.614 1.546.66 2.08.05.259-.295.397-.691.359-1.083-.017-.179-.053-.4-.2-.515-.188-.148-.402-.268-.594-.412-.717-.538-1.361-1.168-1.915-1.873-.317-.402-.601-.832-.856-1.276l-.337-.639c-.089-.183-.149-.424-.362-.49-.019-.006-.042.004-.052.021v.001zm-6.759 2.606c.038.015.073.038.11.058.046.023.091.041.139.061l.23.107c.158.073.315.171.442.275.022.018.044.038.07.053.014.008.03.016.045.02l.041.006-.025-.005.048.016c.017.003.032.004.048.002.031-.004.059-.018.079-.043.075-.094-.023-.23-.096-.287-.148-.118-.308-.219-.481-.296a1.42 1.42 0 0 0-.305-.096c-.056-.011-.114-.024-.172-.021l-.156.015c-.08.004-.091.109-.018.135zm2.749 1.715l.291.128.271.084.556.191.532.217c.182.082.376.181.579.184.095.002.179-.119.117-.203-.12-.164-.303-.262-.486-.341l-.596-.237-.582-.173c-.211-.049-.405-.077-.621-.077-.112 0-.177.177-.062.227h0zm-1.352-3.531l.603-1.597.302-.796c.099-.261.212-.526.257-.804.008-.051-.059-.111-.1-.059-.342.433-.517 1.015-.702 1.528l-.267.807c-.087.297-.138.589-.191.893-.011.066.075.088.099.027v.001zm2.2 1.771c-.08-.446-.15-.896-.16-1.35-.005-.216.007-.431.023-.647.017-.226.067-.459.044-.686-.006-.062-.084-.089-.12-.032-.129.2-.164.45-.195.682s-.037.472-.029.707c.015.478.104.947.297 1.385.037.086.156.021.142-.059h0zm-39.59-65.674c-2.549-.359-5.227.79-6.961 2.644-2.032 2.172-2.813 5.212-3.491 8.028l-1.983 9.351-1.279 4.543-1.529 4.298c-.976 2.791-1.911 5.732-1.876 8.722.004.359.033.701.097 1.054.026.146.235.099.245-.033l.127-2.195c.069-.719.185-1.434.333-2.141.3-1.431.735-2.83 1.214-4.21l2.868-8.536 1.926-9.14 1.129-4.471c.416-1.357.932-2.685 1.704-3.883 1.437-2.228 3.889-3.564 6.497-3.846l.962-.066c.064-.002.086-.108.016-.118h.001zM33.34 92.077a1.36 1.36 0 0 0 .128 1.1c.204.367.521.674.837.943l2.458 1.953c.361.324.64.697.801 1.158.154.443.22.91.285 1.373.123.884.3 1.722.779 2.489.462.741 1.238 1.604 2.141 1.768.111.02.224-.119.121-.208-.308-.264-.656-.477-.963-.745a4.7 4.7 0 0 1-.808-.902c-.489-.725-.684-1.521-.804-2.376s-.241-1.731-.801-2.43c-.282-.351-.639-.627-.995-.899l-1.297-.971c-.699-.52-1.796-1.224-1.724-2.233.007-.092-.133-.106-.158-.021h.001zm27.579-36.245c.968.641 1.676 1.683 2.127 2.736.461 1.077.658 2.245.695 3.411.074 2.373-.491 4.734-1.197 6.984-1.47 4.685-3.838 9.017-6.482 13.134l-2.28 3.438-1.187 1.732c-.398.576-.765 1.159-1.107 1.771-.067.119.1.261.196.151a20.56 20.56 0 0 0 1.176-1.487l1.067-1.521 2.131-3.149c1.381-2.114 2.693-4.275 3.86-6.515 1.153-2.214 2.169-4.51 2.935-6.888.744-2.312 1.354-4.747 1.348-7.19-.006-2.479-.797-5.549-3.188-6.764-.105-.053-.191.093-.092.158h0z"/><path d="M60.66 74.436c-1.559 2.556-4.352 3.77-6.479 5.749-.591.55-1.102 1.157-1.444 1.892-.03.064.053.145.106.081.934-1.126 2.028-2.091 3.202-2.959s2.408-1.679 3.411-2.746c.55-.586 1.013-1.224 1.322-1.968.029-.069-.081-.11-.118-.05zM41.701 103.11c.532.269 1.083.441 1.648.626l1.655.537 3.398 1.094 6.769 2.12 6.772 2.107 3.379 1.05c1.021.32 2.02.675 2.929 1.25.867.547 1.786 1.187 2.866.949.916-.202 1.723-.985 1.766-1.948.009-.196-.271-.216-.329-.044-.26.765-.927 1.441-1.76 1.521-.917.088-1.705-.578-2.438-1.027-.885-.541-1.87-.883-2.855-1.193l-3.244-1.006-13.117-4.046-3.637-1.09-1.842-.546c-.634-.187-1.253-.388-1.908-.477-.068-.009-.127.085-.052.124v-.001zm-1.555-12.802c1.145.598 2.453.923 3.732 1.061 1.288.139 2.592.076 3.86-.191 1.34-.282 2.621-.847 4.016-.756 1.232.081 2.39.596 3.438 1.221 1.121.669 2.148 1.481 3.191 2.262l3.299 2.339c2.253 1.47 4.688 2.718 7.325 3.323 1.44.331 2.934.473 4.408.339.722-.066 1.498-.316 2.224-.187.53.095 1.111.596.883 1.183-.106.271.341.459.471.199.248-.496.097-1.029-.271-1.422-.429-.458-1.056-.58-1.661-.543-.689.042-1.366.201-2.056.241a13.1 13.1 0 0 1-2.053-.046c-2.749-.273-5.349-1.365-7.71-2.757-1.209-.713-2.367-1.507-3.503-2.331l-3.221-2.371c-1.057-.726-2.193-1.389-3.438-1.73-.602-.165-1.233-.251-1.858-.228-.672.025-1.328.184-1.972.369l-2.274.573c-.755.125-1.523.177-2.288.161-1.547-.032-3.013-.385-4.471-.878-.1-.034-.165.121-.072.17h-.001zm7.54.103c-.384-.143-.805-.172-1.204-.274a6.57 6.57 0 0 1-1.22-.445c-.374-.181-.732-.398-1.064-.648s-.631-.568-.999-.77c-.071-.039-.187.028-.151.117.165.407.503.702.846.964.368.282.766.523 1.187.719a6.2 6.2 0 0 0 1.263.434c.434.098.911.19 1.343.062.081-.024.073-.13 0-.157h0zm29.018 11.413c-.306.157-.429.605-.559.899l-.489 1.131-.94 2.181-1.829 4.44c-.061.173.216.291.298.125.712-1.43 1.305-2.926 1.92-4.401l.913-2.192.457-1.096c.126-.306.378-.729.275-1.068-.006-.021-.028-.029-.046-.019z"/><path d="M72.097 112.547c.801.555 1.774.796 2.716 1.003l1.426.255c.452.061 1.001.193 1.44.019.115-.046.161-.21.037-.28-.4-.225-.924-.204-1.369-.265l-1.435-.247c-.93-.197-1.833-.51-2.778-.621-.079-.009-.089.099-.037.136h0z"/><path d="M77.629 113.836c.309-.124.561-.407.771-.657.238-.285.445-.595.634-.914.392-.663.714-1.362 1.035-2.06l2.104-4.713a11.69 11.69 0 0 0 .42-1.349c.098-.406.255-.924.165-1.34-.045-.208-.311-.161-.376 0-.073.179-.075.378-.106.567l-.112.569a10.9 10.9 0 0 1-.339 1.155c-.265.759-.597 1.491-.931 2.22l-2.025 4.368a11.4 11.4 0 0 1-.615 1.051c-.22.333-.525.659-.687 1.023-.017.037.012.099.062.08h0z"/><path d="M82.601 102.82c-.091-.298-.406-.469-.668-.6-.303-.151-.623-.262-.945-.365l-2.419-.703-.571-.148c-.168-.044-.354-.111-.503.01-.067.054-.094.106-.078.192.032.177.208.23.356.273l2.411.643 1.231.35a4.74 4.74 0 0 1 .585.234c.166.08.328.177.513.203.051.007.106-.03.088-.088l.001-.001zm-.421 1.778c-.269-.266-.76-.313-1.115-.404l-1.264-.351-1.251-.395-.585-.176c-.208-.064-.408-.145-.629-.144-.109.001-.177.144-.092.223.284.26.742.386 1.098.522.422.16.858.288 1.29.415l1.269.335c.362.086.874.272 1.237.133.064-.025.096-.105.042-.158h0zm-.628 1.468c-.293-.265-.752-.359-1.121-.473l-1.247-.379-1.211-.354c-.346-.098-.801-.288-1.161-.209-.069.015-.103.12-.044.167.154.124.342.165.528.221l.577.182 1.199.398 1.247.379c.373.107.808.27 1.199.197.057-.01.075-.092.034-.129h0zm-.595 1.227l-2.221-.672-1.143-.314-.602-.129c-.161-.027-.315-.07-.476-.029-.041.01-.051.061-.024.091.128.141.326.201.499.274l.576.222 1.211.397 1.215.361c.353.097.691.167.999-.072.049-.039.015-.113-.034-.13v.001zm-.885 1.453c-.052-.03-.067-.081-.119-.12-.074-.057-.202-.077-.29-.103l-.675-.178-1.258-.374-1.274-.368-.677-.207c-.21-.064-.42-.151-.642-.153-.159-.002-.196.201-.077.283.181.124.41.172.617.24l.674.218 1.257.43 1.257.375.656.143c.107.016.234.042.343.025.076-.013.119-.065.191-.08.062-.012.068-.101.017-.131zm-.506 1.564c-.368.133-.72-.12-1.036-.282l-1.175-.532-1.238-.449c-.33-.104-.822-.332-1.156-.158-.033.018-.046.067-.026.098.115.175.307.235.497.302l.687.224 1.453.557 1.271.585c.302.114.717.141.847-.219.026-.071-.055-.153-.127-.126zm-.78 1.516c-.074-.031-.11-.073-.193-.093-.068-.018-.139-.025-.209-.036l-.489-.082-1.004-.219-.957-.266c-.27-.085-.629-.264-.915-.215-.088.015-.092.124-.047.18.098.121.254.17.396.226l.502.18.955.27.972.202.491.078.26.029c.096.002.147-.032.24-.047.118-.018.084-.171 0-.207h0zm-.538.967c-.094-.048-.112-.097-.22-.117-.081-.016-.167-.01-.249-.01a12.31 12.31 0 0 1-.608-.011 9.76 9.76 0 0 1-1.157-.127 10.49 10.49 0 0 1-1.106-.251c-.322-.091-.755-.162-.959-.448-.047-.065-.159-.105-.22-.028-.51.646 1.522.989 1.861 1.054.455.087.916.143 1.379.168l.729.013c.107-.002.225.003.33-.023s.136-.086.22-.142c.027-.018.033-.062 0-.079v.001zm4.299-9.353c-.22-.22-.566-.231-.858-.296l-1.036-.255-.991-.285-.49-.16c-.164-.055-.326-.133-.5-.144s-.197.214-.081.298c.138.1.324.14.484.194l.525.171.991.283 1.005.229c.303.062.647.182.939.046.03-.015.032-.06.01-.081zm-38.787.369c-.146-.067-.179-.175-.354-.115-.147.051-.279.157-.386.268-.249.258-.409.6-.575.913a17.71 17.71 0 0 0-.962 2.146c-.554 1.493-.889 3.069-1.011 4.655l-.053 1.37c-.001.424-.047.925.11 1.327.045.116.228.142.263 0 .085-.35.028-.728.026-1.084l.03-1.089c.045-.748.142-1.489.278-2.225.27-1.461.721-2.897 1.342-4.247l.544-1.082c.091-.164.186-.331.318-.468.056-.059.121-.109.193-.148.047-.026.208-.18.233-.187.015-.003.019-.027.004-.034h0zm-.288 7.167c-.128.233-.208.487-.328.725a5.73 5.73 0 0 1-.407.693c-.325.466-.717.885-1.108 1.297-.788.831-1.572 1.662-2.026 2.731-.264.623-.453 1.288-.835 1.854-.348.516-.849.906-1.281 1.347-.389.397-.751.857-.888 1.406-.119.477-.085.997.083 1.458.185.506.52.966.995 1.235.256.145.526.203.812.255.259.047.59.083.766.299.096.118.245-.015.227-.132-.085-.553-.689-.59-1.128-.681-.466-.098-.836-.394-1.073-.803s-.338-.904-.259-1.369c.093-.556.457-1 .843-1.389.415-.419.867-.8 1.218-1.278.388-.528.596-1.159.826-1.765.217-.571.497-1.094.868-1.58.337-.441.72-.846 1.092-1.257.403-.446.804-.898 1.135-1.4.299-.454.643-1.049.596-1.611-.005-.063-.093-.098-.128-.035zm-3.426 13.581c.703.295 1.451.495 2.176.732l2.161.766c.339.13.648.273.91.53.22.215.426.455.706.595.496.249 1.208.229 1.624-.169.188-.181-.051-.466-.271-.351-.266.139-.507.243-.816.199-.301-.043-.519-.217-.727-.428-.222-.224-.439-.438-.72-.588-.289-.154-.605-.259-.911-.371l-2.003-.682c-.684-.211-1.38-.429-2.091-.524-.181-.025-.177.234-.04.291h-.001z"/><path d="M37.188 123.4c-.271.384-.421.872-.572 1.314l-.416 1.419-.294 1.448-.093.689c-.022.192-.034.385.092.545.117.147.298.197.471.249l.783.233 1.563.478 3.001.897 3.441 1.01a.27.27 0 0 0 .326-.185l.503-1.813.239-.864.131-.475.06-.216.024-.086c.052-.092.03-.116-.066-.073l-.183-.105.027-.142.21-.027-.021-.01c-.114-.054-.3.039-.242.186l.008.019c.028.07.085.13.167.128.291-.011.325-.434.038-.493-.433-.088-.511.673-.587.942l-.819 2.888.326-.186-5.663-1.658-2.794-.792c-.15-.043-.545-.083-.593-.242-.021-.068.013-.179.021-.249l.046-.378.239-1.398.38-1.474c.148-.493.371-.982.46-1.489.023-.13-.135-.2-.212-.09h0z"/><path d="M37.507 129.17c.033-.103.097-.166.117-.272.013-.065.017-.133.026-.198l.075-.538.178-.989.22-.98.118-.509c.029-.146.07-.293.033-.44-.022-.09-.135-.111-.199-.052-.111.102-.157.25-.207.39-.059.163-.108.331-.152.499l-.235 1.054-.155 1.011-.058.517c-.008.083-.027.176-.015.259s.056.16.069.248c.014.101.159.081.185 0h0zm1.432.488c.016-.073.066-.135.084-.21.021-.086.032-.174.047-.261l.095-.562.218-1.046.272-1.035c.1-.333.273-.681.219-1.035-.015-.099-.144-.108-.206-.054-.268.231-.345.644-.44.971l-.268 1.076-.164 1.073-.045.53-.005.305c.004.083.045.15.05.229s.123.102.141.019h0zm1.432.685c.248-.246.336-.663.408-.993.084-.386.115-.783.148-1.176l.128-1.174c.069-.391.192-.754.335-1.123.026-.067-.007-.145-.051-.194s-.083-.051-.141-.059c-.069-.008-.138.045-.172.099-.41.647-.453 1.489-.507 2.232l-.116 1.179c-.029.19-.065.378-.116.563s-.123.361-.142.552c-.012.119.151.169.227.094zm1.417.245c.267-.571.372-1.199.496-1.814l.184-.913.099-.491c.031-.155.072-.304.027-.461-.034-.12-.218-.193-.306-.081-.189.242-.198.618-.255.913l-.178.913c-.121.621-.272 1.252-.243 1.886.004.086.134.138.176.048h0zm1.219.177c.161-.302.246-.64.345-.966l.306-.996.337-.986.159-.475c.04-.148.099-.306.013-.446-.025-.04-.073-.06-.12-.048-.276.07-.395.538-.483.776l-.331 1.025-.257 1.046c-.066.338-.136.688-.103 1.033.006.066.097.104.133.037h0zm1.054.618c.237-.521.367-1.079.543-1.623l.289-.822c.085-.226.267-.533.154-.769-.022-.047-.092-.074-.141-.058-.248.085-.331.435-.414.656l-.288.853c-.171.556-.336 1.127-.327 1.713.002.091.142.144.184.05zm6.859-25.37c-.151.05-.238.095-.323.233-.099.161-.178.333-.261.502l-.489 1.063-.804 2.134c-.477 1.446-.832 2.93-1.099 4.429-.54 3.03-.737 6.12-.762 9.194-.007.835.029 1.714.438 2.464.291.532.919 1.239 1.591 1.08.133-.031.129-.198.035-.267-.234-.171-.511-.27-.731-.464a2.23 2.23 0 0 1-.532-.716c-.321-.671-.315-1.454-.306-2.181l.182-4.356c.218-2.905.667-5.799 1.521-8.589l.821-2.316.485-1.129.258-.55c.081-.184.104-.298.046-.491-.009-.029-.041-.051-.072-.041l.001.001zm-7.303-51.331c.026-.216-.008-.431-.002-.648.008-.241.044-.481.107-.714.121-.455.322-.879.562-1.283.439-.737 1.004-1.4 1.589-2.024l3.58-3.56.867-1.041c.286-.378.566-.763.732-1.209.065-.175-.201-.334-.321-.187-.268.331-.485.697-.738 1.04-.258.35-.538.683-.829 1.006-.583.647-1.212 1.25-1.841 1.851-1.246 1.191-2.583 2.417-3.407 3.955-.241.45-.437.937-.53 1.44-.082.437-.158 1.016.081 1.415.044.074.14.034.15-.04v-.001z"/><path d="M50.951 44.183c1.003.078 2.03.003 3.035.001l3.051.049c2.004.075 4.016.253 5.988.626 1.938.366 3.859.951 5.638 1.808 1.725.83 3.276 1.952 4.881 2.983.87.559 1.758 1.095 2.696 1.535s1.948.842 2.996.841c.222 0 .249-.305.051-.374l-2.608-.928c-.852-.384-1.664-.851-2.457-1.344l-4.855-2.978c-3.571-1.809-7.604-2.434-11.568-2.578-1.136-.041-2.274-.051-3.411-.04l-1.683.029c-.584.015-1.174.008-1.754.08-.184.023-.191.277 0 .292h0zm-2.54 2.926c.071.079.136.184.224.244s.239.098.343.134c.273.096.561.159.843.219a13.55 13.55 0 0 0 1.55.236c1.088.105 2.184.104 3.275.062 2.206-.085 4.41-.331 6.62-.227 1.093.052 2.18.196 3.234.492s2.068.74 3.038 1.254c1.954 1.036 3.736 2.358 5.652 3.458 2.105 1.209 4.48 2.279 6.959 2.156.3-.015.301-.454 0-.467-2.225-.1-4.305-.89-6.236-1.959-1.912-1.058-3.689-2.339-5.601-3.398-.955-.529-1.943-1.004-2.978-1.356s-2.107-.557-3.192-.657c-2.173-.201-4.356.011-6.527.136-1.228.07-2.461.118-3.69.047a16.8 16.8 0 0 1-1.822-.202 17.46 17.46 0 0 1-.856-.17c-.151-.033-.315-.084-.469-.096-.121-.01-.24.04-.359.065-.014.003-.016.02-.008.028zm31.04 4.739c.067.253.214.484.331.717a7.31 7.31 0 0 1 .323.741c.093.253.173.512.236.774l.084.397c.012.064.018.137.041.198.026.069.07.099.115.152.082.099.281.022.265-.11l-.012-.098c-.007-.053-.084-.095-.132-.075l-.09.038.228.176c.029-.07.055-.11.048-.191s-.023-.157-.039-.234l-.095-.393a6.86 6.86 0 0 0-.278-.815c-.106-.258-.228-.51-.366-.752-.135-.235-.287-.479-.508-.641-.076-.055-.173.036-.151.116zm1.495 3.457l1.598 3.283 1.378 3.352c.849 2.332 1.477 4.726 1.98 7.154l2.987 15.343.825 4.299.413 2.149c.143.743.245 1.505.493 2.221.065.189.375.172.365-.049-.027-.659-.175-1.302-.297-1.95l-.372-1.972-.735-3.852-1.505-7.79-1.518-7.751c-.489-2.432-1.063-4.842-1.885-7.186-.451-1.286-.959-2.552-1.528-3.789s-1.18-2.477-1.941-3.614c-.108-.162-.343-.023-.26.152h0z"/><path d="M77.912 82.206a12.44 12.44 0 0 0 1.939 2.741c.762.821 1.604 1.562 2.471 2.27l5.952 4.59c1.017.774 2.09 1.511 2.985 2.428.836.857 1.438 1.896 2.01 2.939l1.888 3.462c.533.978 1.179 2.045 1.177 3.196-.003 2.337-3.151 2.118-3.933 3.951-.111.26.22.469.386.226.485-.713 1.279-1.062 2.025-1.433.817-.406 1.599-.908 1.943-1.795.414-1.069.002-2.264-.461-3.244-.559-1.184-1.24-2.319-1.866-3.469-.595-1.093-1.162-2.217-1.9-3.224-.747-1.018-1.69-1.81-2.69-2.568l-6.325-4.722c-2.04-1.539-4.097-3.234-5.472-5.423-.051-.081-.173-.01-.129.075h0z"/><path d="M94.973 106.341c-.039.438.073.914.163 1.342l.355 1.376c.275.882.613 1.765 1.055 2.578.044.081.149.147.243.139.11-.009.296-.009.397.046s.198-.053.151-.151c-.052-.107-.072-.196-.165-.279a.96.96 0 0 0-.309-.169l.168.129c-.386-.811-.749-1.622-1.025-2.479l-.367-1.286c-.104-.425-.161-.886-.324-1.292-.073-.183-.325-.157-.343.046h0z"/><path d="M97.159 111.499c-.335.165-.56.466-.808.738l-.822.864-.829.815c-.293.276-.633.527-.898.831-.174.199.051.548.298.386.338-.219.629-.533.92-.81l.845-.842.799-.887c.256-.298.544-.591.645-.979.024-.091-.072-.155-.151-.116h0zM63.912 79.657c.041.822.356 1.552.747 2.266l1.32 2.214 2.779 4.286a91.12 91.12 0 0 0 6.364 8.134l1.939 2.137s1.337 1.444 2.098 2.04c.147.116.43-.041.29-.224-.511-.664-1.113-1.267-1.682-1.882l-1.724-1.888-3.31-3.894-3.103-4.03s-1.988-2.739-2.914-4.156l-1.543-2.434c-.492-.8-.958-1.651-1.108-2.59-.014-.088-.159-.067-.155.021zm3.242 14.852c-.023.435.133.901.254 1.314.131.449.288.894.477 1.323a9.85 9.85 0 0 0 .657 1.228c.094.15.2.334.395.358.165.02.312-.103.316-.268s-.193-.222-.306-.126l.056-.033.148.061c-.036-.041-.089-.057-.125-.094-.057-.058-.099-.15-.142-.218l-.287-.478-.538-1.013c-.166-.342-.316-.692-.447-1.048-.125-.338-.207-.709-.376-1.027-.022-.041-.081-.019-.083.022h0zm14.562 22.718c-.874.608-1.806 1.056-2.833 1.338-1.052.289-2.132.428-3.216.534l-7.62.486c-2.523.157-5.052.393-7.524.945-2.307.514-4.589 1.279-6.707 2.335-1.03.513-2.017 1.119-2.9 1.86-.434.364-.836.765-1.196 1.203-.369.448-.7.896-.84 1.466-.032.13.135.241.232.135.351-.378.624-.808.954-1.205a9.66 9.66 0 0 1 1.04-1.058c.766-.674 1.631-1.227 2.53-1.706 2.068-1.101 4.333-1.874 6.608-2.414 4.911-1.166 9.986-1.003 14.982-1.465 1.226-.114 2.462-.247 3.655-.565 1.108-.296 2.239-.776 3.054-1.605.139-.142-.045-.404-.218-.284h-.001z"/><path d="M49.023 127.273c-.01.144.055.279.111.408l.22.456.485.852.505.806c.155.241.343.66.642.74.13.035.227-.062.241-.184.017-.15-.079-.308-.156-.432l-.263-.396-.533-.823-.516-.8-.272-.391c-.088-.12-.175-.255-.311-.324-.015-.008-.033-.013-.051-.013a.1.1 0 0 0-.088.051c-.009.015-.014.032-.014.05h-.001zm2.649 3.513c.936-.008 1.75-.568 2.477-1.105l2.342-1.675c1.642-1.018 3.441-1.759 5.303-2.266 1.881-.512 3.82-.788 5.765-.88 2.061-.097 4.115.066 6.174.147 1.19.046 2.384.062 3.571-.048 1.159-.108 2.37-.282 3.419-.813.182-.092.05-.352-.132-.314l-3.121.568c-1.06.098-2.125.106-3.187.078l-6.225-.167c-3.839.128-7.729.944-11.101 2.837-.928.521-1.782 1.133-2.615 1.793-.417.33-.837.659-1.289.942s-.938.52-1.425.74c-.082.036-.037.163.044.163h.001zm-.318.546c-.272.73-.385 1.503-.479 2.274a21.64 21.64 0 0 0-.158 2.276c-.026 1.543.131 3.088.435 4.601.027.138.201.233.332.189 1.274-.428 2.082-1.578 2.594-2.764.584-1.353.928-2.82 1.913-3.961 1.774-2.056 4.536-2.855 6.63-4.508 1.146-.905 2.11-2.056 2.381-3.525.046-.252-.322-.362-.389-.107-.687 2.582-3.239 3.941-5.393 5.144-1.136.635-2.273 1.307-3.211 2.222-.472.46-.882.985-1.199 1.564-.352.644-.601 1.338-.858 2.024-.495 1.324-1.163 2.882-2.61 3.39l.332.188c-.319-1.48-.477-2.988-.49-4.501-.006-.746.025-1.491.096-2.233.071-.752.203-1.496.253-2.25.007-.108-.144-.113-.177-.024l-.001.001zm43.973-12.462c.472.083.956.009 1.431-.009l1.469-.043 2.977-.175c1.541-.188 3.104-.63 4.372-1.556.685-.5 1.262-1.125 1.657-1.878.076-.146.016-.357-.161-.395-1.681-.37-3.353-.782-5.013-1.237l-2.483-.708-1.192-.364c-.179-.056-.382-.159-.573-.128s-.391.154-.561.243c-.161.083-.08.328.089.331.104.001.208.003.311-.003.067-.003.162-.033.228-.022.165.027.358.125.525.177l1.192.364 2.442.691c1.62.432 3.251.824 4.891 1.175l-.161-.395c-.677 1.302-1.933 2.154-3.286 2.643-1.631.589-3.364.644-5.076.742-.535.031-1.069.063-1.602.122-.5.056-1.036.082-1.49.316-.044.023-.037.101.014.11v-.001z"/><path d="M52.468 130.284l-.037-.092c-.014-.036-.013-.073-.029-.109l-.099-.208c-.067-.133-.143-.261-.229-.383l-.252-.354c-.098-.134-.187-.279-.321-.379-.117-.088-.309.06-.255.196.056.142.157.255.248.375l.266.361a4.17 4.17 0 0 0 .283.351l.146.157c.027.03.056.043.087.067s.056.056.083.082c.044.042.135.001.11-.064zm1.279-.792c.009-.113.025-.188-.016-.295s-.09-.207-.14-.307l-.287-.541-.6-1.124c-.071-.137-.191-.363-.381-.333-.17.027-.113.291-.072.392.157.383.392.746.596 1.105l.364.61.211.302c.031.041.064.09.104.123.053.044.126.059.189.087.015.007.031-.001.032-.019zm1.145-.741c-.024-.305-.169-.621-.28-.905l-.378-.965-.36-.94c-.091-.246-.173-.643-.447-.746-.033-.013-.075.008-.092.037-.145.251.055.613.148.852l.388.966.404.902c.135.283.278.621.501.847.038.039.12.012.115-.048zm1.252-1.105l-.117-.315-.123-.264-.246-.587-.204-.586-.082-.3c-.028-.112-.044-.226-.136-.305-.072-.062-.212-.071-.259.034-.092.204.022.455.085.657l.234.643a4.28 4.28 0 0 0 .303.597l.181.277c.07.094.153.166.231.251.07.077.167-.02.133-.102zm1.624-.88c-.006-.049.021-.091.016-.144-.008-.076-.044-.15-.069-.222l-.164-.439-.29-.835-.231-.854-.099-.462c-.016-.068-.032-.157-.072-.215-.029-.043-.09-.074-.111-.096-.046-.047-.143-.042-.173.022s-.071.094-.08.172.008.159.02.232l.101.461.262.906.337.874c.064.144.134.283.213.418.034.058.067.132.121.175.033.027.081.034.103.055.039.038.124.014.117-.049v.001zm1.338-.708c-.002-.189.001-.373-.03-.563l-.103-.539-.125-.533c-.046-.186-.084-.382-.16-.558-.04-.092-.172-.12-.256-.084-.101.045-.134.138-.118.242.025.171.095.342.142.508l.144.528.135.51c.047.179.123.343.188.514.036.093.184.088.183-.024v-.001zm1.398-.624l-.259-1.028a3.62 3.62 0 0 1-.071-.489c-.014-.191-.002-.377-.048-.563s-.299-.164-.355 0c-.067.194-.047.398-.026.6.02.189.05.379.094.564.087.364.246.739.51 1.007.069.069.173-.003.155-.091h0zm1.346-.319c-.09-.265-.139-.554-.179-.83-.019-.13-.031-.26-.033-.391l.004-.209.007-.104c0-.054-.014-.088-.031-.137-.048-.142-.243-.178-.324-.042-.026.043-.048.071-.058.122s-.011.098-.012.146l-.001.209a3.34 3.34 0 0 0 .051.485c.056.311.192.579.361.841.069.107.259.042.215-.09zm2.042-.607c-.112-.237-.172-.511-.224-.767l-.066-.367c-.017-.154.013-.347-.132-.444-.025-.015-.053-.022-.082-.022s-.057.007-.082.022c-.084.063-.112.142-.109.246a2.15 2.15 0 0 0 .02.211c.019.153.043.306.091.453a2.47 2.47 0 0 0 .172.405c.068.128.154.246.237.366.075.108.231.016.175-.103zm1.477-.157a2.52 2.52 0 0 1-.144-.621 3.01 3.01 0 0 1-.012-.33c.002-.114.047-.256.006-.364-.045-.121-.195-.18-.295-.078s-.108.28-.116.42c-.007.132.006.274.035.403a1.5 1.5 0 0 0 .349.673c.069.076.214-.003.177-.103zm1.836-.088l.005-.052-.016.058c.03-.038.034-.107.037-.145s.001-.069.002-.104l-.002-.226-.014-.226c-.012-.109-.029-.197-.11-.277-.069-.068-.179-.049-.23.03-.099.154-.037.355-.006.522l.047.22.025.1c.012.038.033.1.069.13l-.03-.051.017.049c.039.116.193.088.205-.028h0zm1.418.107l.024-.384-.011-.357-.026-.356c-.015-.155-.006-.32-.157-.407-.061-.035-.135-.022-.185.024-.122.112-.081.264-.063.41l.055.38.067.349c.029.126.072.243.107.367.03.106.183.081.189-.026zm1.804-.259c-.03-.08-.044-.159-.062-.242-.014-.069-.02-.12-.021-.212v-.243l.007-.117v-.066c0-.031-.008-.062-.024-.089-.007-.056-.071-.099-.122-.106-.062-.008-.113.021-.148.071l-.009.013.056-.056c-.059.039-.101.099-.118.167-.016.054-.026.11-.029.166a1.1 1.1 0 0 0 .017.302 1.52 1.52 0 0 0 .092.278c.035.081.087.155.138.227.035.05.093.076.152.05.051-.022.092-.086.07-.143zm1.61.239l-.022-.092v.07c.02-.079.012-.14-.007-.216l-.038-.163-.079-.326-.072-.328c-.028-.125-.06-.252-.182-.333-.054-.037-.143-.024-.187.024-.059.064-.077.131-.085.216l-.005.083c0 .044.011.088.018.132.016.11.044.22.076.327.035.116.084.23.133.341.053.119.119.257.236.321l-.047-.047.056.078c.073.097.237.044.204-.086v-.001zm1.995.028l-.037-.408-.058-.414-.062-.396c-.023-.157-.009-.34-.144-.447l.046.078-.011-.028c-.029-.07-.082-.124-.163-.124-.069 0-.15.052-.163.124l-.005.028.046-.078c-.072.09-.1.165-.085.279l.034.243.074.409a2.97 2.97 0 0 0 .294.798c.06.107.24.062.235-.063v-.001zm1.576-.025c-.034-.087-.051-.181-.081-.27l-.084-.237-.167-.538-.122-.533c-.03-.186-.025-.377-.061-.562-.02-.107-.143-.174-.243-.159-.117.018-.179.105-.192.218-.023.195.023.413.057.605a3.44 3.44 0 0 0 .141.567 3.19 3.19 0 0 0 .251.545 2.39 2.39 0 0 0 .165.241c.061.078.131.134.198.205.054.057.169-.002.139-.081v-.001zm2.513-.358c-.02-.028-.002-.079-.014-.113s-.033-.055-.048-.084l-.12-.22-.231-.379c-.146-.253-.28-.515-.379-.786l-.085-.232c-.051-.106-.173-.18-.293-.147-.101.027-.176.14-.176.242 0 .089.047.185.08.268.116.29.252.574.431.831.101.145.211.283.334.411.057.059.121.126.191.17l.111.071c.013.007.027.016.041.02.031.008.067-.009.094.011.036.027.089-.026.063-.063h0zm1.894-.278l-.03-.054v.067c.028-.088-.021-.174-.062-.252l-.128-.217-.265-.412-.276-.407-.14-.211c-.022-.033-.048-.066-.066-.102.004.02.003.015-.004-.013 0 .012-.002.024-.005.036l-.182.103a.26.26 0 0 0 .056.009c.023 0 .046-.006.065-.017s.036-.028.048-.048c.025-.051.021-.093.009-.146-.038-.179-.255-.2-.376-.099-.209.175-.038.421.077.589l.328.468.36.456.18.197c.067.071.153.163.257.16l-.064-.018.044.044c.089.088.236-.025.173-.133h.001zm1.62-.533l-.062-.261c-.023-.076-.058-.149-.085-.222l-.173-.485-.17-.49-.069-.232c-.03-.108-.044-.214-.128-.295a.23.23 0 0 0-.1-.056c-.038-.009-.077-.009-.114.001s-.072.029-.1.056-.049.061-.06.098c-.033.113.007.215.04.323l.086.264.202.506a4.71 4.71 0 0 0 .253.45c.05.079.099.162.161.233s.129.123.192.185c.054.054.151 0 .129-.075h-.001zm11.82-8.473c-.026-.014-.05-.03-.074-.048l.048.048c-.019-.028-.042-.053-.066-.076-.001-.004-.013-.018-.025-.029l-.027-.029c-.009-.009-.016-.022-.026-.03.014.012.022.03.004.005a.63.63 0 0 1-.041-.067l-.018-.035a.23.23 0 0 0 .008.02l-.024-.057c-.015-.035.018.049.005.012l-.013-.037c-.016-.05-.03-.1-.038-.153l.008.056c-.005-.04-.002-.085-.013-.125-.015-.055-.05-.103-.1-.132-.025-.017-.008 0 .049.05-.011-.02-.025-.036-.043-.048l.039.067c-.015-.061-.057-.119-.123-.128s-.126.035-.156.092l.055-.055c-.019.009-.035.021-.051.036l.028-.02-.05.038c-.023.023-.04.051-.051.081a.23.23 0 0 0-.013.095c.004.055.012.11.025.163.027.103.077.198.147.279a.8.8 0 0 0 .202.171c.042.025.088.043.137.053l.038.005.1.013c.048.005.102-.039.112-.085s-.007-.105-.053-.131v.001zm1.45-1.064c-.045-.121-.068-.24-.129-.357l-.225-.397-.489-.773-.454-.765-.222-.4c-.076-.132-.169-.291-.331-.318-.069-.011-.159.006-.192.079-.128.278.127.595.262.829l.487.808.512.76c.09.124.188.243.293.355.049.052.093.107.148.153s.123.075.181.12c.066.051.198.008.16-.093v-.001zm1.365-1.212c-.081-.13-.142-.263-.234-.386l-.269-.345-.55-.736-.501-.749c-.163-.257-.294-.552-.478-.794-.076-.1-.191-.158-.315-.103-.107.047-.189.177-.146.297.108.297.306.576.476.841l.551.779.604.715.346.345c.122.108.254.176.388.264.078.051.176-.05.127-.128h.001zM52.897 39.73c-.144.056-.171.182-.221.319l-.156.487-.28 1.096-.237 1.069-.108.537c-.03.17-.052.324.073.459.048.052.125.053.184.024.167-.082.194-.258.225-.425l.096-.502.22-1.074.23-1.072.093-.505c.022-.145.063-.27-.036-.391-.018-.021-.058-.033-.084-.022z"/><path d="M52.942 39.79c1.782.042 3.533.344 5.286.644l5.047.992c3.073.726 6.099 1.742 8.744 3.505.69.46 1.347.967 1.96 1.526l.868.859.857.921c.198.184.509-.048.376-.29-.357-.649-.936-1.197-1.471-1.702-.548-.517-1.135-.994-1.747-1.433-1.223-.878-2.555-1.598-3.939-2.188-3.18-1.355-6.571-1.992-9.963-2.557-1.974-.329-4.007-.777-6.017-.595-.201.018-.208.313 0 .318h0z"/><path d="M75.845 48.182l-.004.033.049-.12c-.044.05-.077.091-.09.158-.008.042-.008.086-.01.128l-.002.2.001.448.003.432c.004.176-.009.419.211.464l-.072-.055.049.062c.026.03.086.032.111 0l.047-.062-.072.055c.212-.049.202-.274.2-.448l-.011-.448-.013-.432-.009-.216-.009-.1a.29.29 0 0 0-.096-.186l.044.075-.005-.032c-.013-.08-.107-.129-.181-.118-.088.013-.132.078-.143.162h0zM46.126 6.949c-.752.499-1.436 1.108-2.078 1.741-.65.641-1.255 1.327-1.79 2.066a16.88 16.88 0 0 0-2.429 4.847c-1.209 3.859-.956 8.137.633 11.849.438 1.023.987 1.992 1.461 2.999.24.51.458 1.029.626 1.568s.252 1.078.327 1.634a.27.27 0 0 0 .26.198c.317-.028.573-.242.532-.584-.018-.147-.241-.261-.32-.087a.21.21 0 0 1-.212.131l.27.27c-.006-.949-.343-1.903-.708-2.767-.381-.901-.849-1.76-1.281-2.637-.882-1.793-1.475-3.716-1.697-5.705-.426-3.82.474-7.64 2.489-10.904a17.74 17.74 0 0 1 1.787-2.417c.677-.766 1.433-1.437 2.214-2.094.059-.05-.018-.151-.083-.108v.001zM43.969 32.45c.127-.375.485-.52.83-.312.337.203.567.602.755.935a5.2 5.2 0 0 1 .662 2.368c.007.201.279.352.428.177.176-.207.301-.441.432-.677.104-.187.221-.429.428-.521.596-.265 1.061.814 1.24 1.203a6.37 6.37 0 0 1 .364 1.02c.088.329.099.7.244 1.009.303.651 1.055.351 1.601.525.298.095.563.277.772.509.229.253.313.579.5.855.091.134.315.125.359-.047.163-.644-.449-1.31-.949-1.628-.277-.175-.589-.285-.914-.322-.247-.029-.763.114-.873-.176-.062-.165-.073-.354-.109-.526a6.38 6.38 0 0 0-.163-.617 6.68 6.68 0 0 0-.479-1.13c-.304-.568-.798-1.335-1.55-1.226-.735.107-.857.909-1.258 1.395l.428.177c-.057-1.13-.446-2.226-1.139-3.123-.278-.36-.697-.763-1.195-.665-.33.065-.786.458-.522.811.03.04.09.037.107-.014zm14.349-.273c-.599.161-.863.983-.965 1.524-.144.764-.043 1.533.018 2.299.127 1.585-.133 3.123-.931 4.513l.487.205c.049-.201.069-.384.065-.59-.003-.181-.248-.25-.342-.092-.106.176-.18.343-.237.541-.083.29.336.468.487.205.753-1.3 1.138-2.835 1.013-4.339-.066-.8-.246-1.599-.184-2.406.026-.337.098-.679.236-.989.124-.278.315-.514.431-.793.019-.046-.036-.089-.077-.077h-.001zm-2.435 6.548c-.065.435-.157.879-.3 1.297-.071.208-.155.412-.253.608l-.322.589c-.087.197.14.411.314.242s.289-.392.394-.605.2-.444.269-.677a3.45 3.45 0 0 0 .132-1.422c-.015-.118-.212-.178-.234-.032zm5.262-16.801l.376 2.342a11.32 11.32 0 0 1-.07 2.36c-.029.211.147.352.345.265.253-.111.501-.462.408-.747-.018-.055-.086-.076-.129-.034-.156.15-.25.272-.46.351l.297.227c.111-.833.128-1.671.044-2.508-.08-.803-.228-1.624-.561-2.363-.068-.151-.277-.036-.251.106zm2.119 1.419l-.139.492-.09.507-.192.939a20.62 20.62 0 0 1-.529 1.921c-.071.217.227.384.38.221l.998-1.057-.282.036c.164.095.275.25.29.443.023.3.495.301.47 0-.03-.358-.21-.664-.525-.844-.087-.05-.211-.039-.282.036l-.991 1.064.381.221c.206-.645.377-1.3.509-1.965l.158-.964.058-.512c.013-.176-.009-.338-.02-.513-.007-.108-.162-.138-.194-.026h0zm1.297 4.221c.136-.428.249-.862.451-1.266a5.34 5.34 0 0 1 .764-1.121c.605-.69 1.338-1.255 2.094-1.771 1.449-.99 3.103-1.966 3.921-3.591.245-.486.386-1 .462-1.537.046-.321.079-.643.116-.965.036-.315.121-.634-.018-.932-.039-.084-.186-.107-.245-.032-.173.223-.181.467-.213.739l-.102.876c-.063.506-.161 1.011-.379 1.476-.383.817-1.015 1.479-1.701 2.052-1.408 1.176-3.1 1.995-4.303 3.413-.61.718-1.193 1.68-1.058 2.659.016.116.183.094.213 0z"/><path d="M51.605 12.722c.683-.869 1.455-1.667 2.363-2.302s1.95-1.083 2.999-1.437c2.247-.757 4.604-1.019 6.966-1.036a33.07 33.07 0 0 1 8.434 1.019l2.062.6c.583.19 1.221.358 1.743.692.21.134.396.312.486.549.122.318.068.689.019 1.017a10.73 10.73 0 0 1-.399 1.694c-.401 1.243-1.026 2.39-1.812 3.43-.79 1.046-1.794 1.849-2.764 2.714-.074.066.004.211.1.172 1.115-.441 2.046-1.295 2.825-2.191.805-.927 1.44-1.984 1.91-3.117a10.8 10.8 0 0 0 .549-1.725c.142-.62.306-1.324.183-1.957-.117-.599-.594-1.008-1.124-1.255-.629-.294-1.314-.489-1.977-.69a34.11 34.11 0 0 0-8.861-1.458c-2.559-.077-5.158.109-7.619.852-2.167.655-4.308 1.875-5.735 3.663-.171.214-.314.452-.45.689-.035.061.055.137.101.078z"/><path d="M56.881 8.676c-.713.484-1.286 1.196-1.774 1.899a10.54 10.54 0 0 0-.677 1.122c-.182.348-.443.803-.419 1.208.006.09.111.139.179.074.276-.264.422-.7.596-1.034.197-.378.416-.744.655-1.096.479-.707 1.062-1.309 1.604-1.963.089-.108-.027-.301-.161-.209h-.001zm-.22-.399c-.592.012-1.19-.06-1.782-.088l-.873-.06-.435-.039c-.141-.014-.29-.048-.41.044-.082.063-.097.154-.03.236.093.114.236.118.374.133l.469.041.873.034c.615.008 1.207-.084 1.815-.147.097-.01.101-.157 0-.155zm-9.397-2.172c.553-.375 1.034-.826 1.625-1.151.608-.334 1.264-.573 1.945-.708.59-.118 1.28-.162 1.709-.642.353-.396.459-1.048.023-1.429l-.11.415c2.039-.59 4.261-.766 6.358-.41.476.081.991.216 1.457.019.338-.143.628-.459.629-.842 0-.182-.114-.418.086-.528.143-.079.34-.068.497-.056.546.04 1.099.123 1.64.205l1.807.351 1.793.421c.201.03.367-.247.151-.359-.485-.25-1.016-.396-1.544-.527L63.655.522 62.018.321c-.4-.022-.859-.078-1.226.126-.142.079-.264.203-.311.362-.066.22.062.429.018.644-.12.594-.956.462-1.367.384-1.054-.2-2.131-.308-3.204-.301-1.213.008-2.443.236-3.604.576-.169.05-.256.289-.11.415.174.151.176.37.103.578-.094.268-.306.423-.563.527-.268.109-.559.155-.84.217-.302.067-.599.154-.889.26-.55.198-1.077.455-1.565.776-.47.308-.966.668-1.272 1.146-.029.046.03.107.076.076zM67.452.438c.626.688 1.69.967 2.578 1.11.963.155 1.939.133 2.894-.068l-.259-.069.828.936c.249.258.547.485.911.534.64.087 1.301-.388 1.4-1.031h-.547l1.157 3.935c.063.215.303.25.462.122.504-.404.865-.941 1.074-1.551h-.526c.215.811.43 1.647.368 2.493-.031.429-.165.808-.351 1.192-.173.358-.301.72-.095 1.093.073.133.302.078.294-.08-.023-.416.298-.798.448-1.169.153-.378.225-.783.242-1.19.033-.841-.171-1.676-.379-2.485-.071-.275-.441-.243-.526 0-.182.521-.51.961-.939 1.305l.462.122-1.143-3.939c-.072-.247-.503-.292-.547 0-.066.438-.527.763-.956.571-.237-.106-.417-.309-.589-.497l-.672-.739c-.065-.071-.169-.089-.259-.069-.883.2-1.805.237-2.7.097a8.31 8.31 0 0 1-1.291-.309L67.505.346c-.053-.011-.09.05-.053.091v.001z"/><path d="M77.318 9.675c-.186.051-.23.298-.092.424.031.029.081.049.124.033.288-.112.558-.283.814-.454l.777-.556.712-.595c.239-.212.51-.426.708-.679.06-.077.092-.18.035-.271l.012.037c-.009-.076-.053-.123-.13-.13l.038.013c-.092-.056-.193-.027-.271.035-.24.191-.447.432-.673.638l-.702.606-.704.562-.739.582.123-.033c-.035-.012.025-.069.028-.071.08-.039.023-.164-.06-.142h0z"/><path d="M77.32 10.213a5.57 5.57 0 0 1 1.237.035 4.83 4.83 0 0 1 .593.121l.285.085c.134.036.24.045.353-.044.053-.042.058-.118.047-.178-.04-.232-.41-.29-.599-.337a3.83 3.83 0 0 0-.65-.095c-.441-.029-.88.049-1.297.188-.115.039-.105.238.03.225h0zM47.446.822c-.121.565-.164 1.139-.232 1.712l-.225 1.737-.118.863c-.02.132-.025.283-.063.411-.02.066.017.058-.03.065-.039.006-.155-.054-.18-.064l-.852-.319c-.264-.082-.558-.19-.835-.206-.134-.007-.229.192-.117.281.254.201.598.337.898.459l.912.349c.266.075.525.011.656-.249.127-.252.115-.607.148-.882l.172-2.046c.021-.701.072-1.401-.018-2.098-.008-.06-.1-.087-.115-.016h0zm13.196 21.893c-.113-.031-.202-.101-.314-.131a1.58 1.58 0 0 0-.252-.043 3.1 3.1 0 0 0-.692.008c-.41.05-.81.186-1.13.454-.741.619-.853 1.793-.958 2.685a12.26 12.26 0 0 0 .048 3.26c.139.916.452 1.876 1.137 2.533.674.646 1.783 1.064 2.666.597.274-.145.084-.567-.207-.492-.708.182-1.404.028-1.957-.464-.604-.537-.89-1.329-1.039-2.104-.174-.902-.201-1.841-.15-2.756a12.97 12.97 0 0 1 .161-1.471c.068-.393.128-.793.34-1.138.227-.37.599-.566 1.015-.652.219-.045.441-.063.663-.077l.291-.025c.13-.018.239-.082.368-.097.047-.005.064-.073.012-.087h0zm16.795-12.023c.644 1.091 1.099 2.286 1.498 3.485l.592 1.833c.201.638.38 1.283.345 1.958-.033.644-.207 1.272-.297 1.908a4.57 4.57 0 0 0 .087 1.767c.282 1.106 1 2.042 1.727 2.895l1.47 1.68.773.874c.264.299.541.546.843.805.112.096.31-.028.218-.168-.175-.267-.334-.532-.544-.773l-.71-.811-1.366-1.549c-.753-.853-1.551-1.761-1.902-2.866-.394-1.241.161-2.436.245-3.678.045-.66-.09-1.308-.293-1.933l-.636-1.798c-.496-1.309-1.087-2.574-1.94-3.692-.049-.064-.155-.008-.111.065h0zm7.126 17.29c-.131.256-.241.52-.402.761a3.65 3.65 0 0 1-.598.672c-.216.194-.457.378-.717.509-.115.058-.258.117-.389.098-.137-.02-.172-.133-.243-.235s-.17-.194-.283-.257-.239-.098-.367-.104c-.27-.008-.487.124-.687.29-.191.158-.384.372-.652.273s-.444-.369-.712-.449c-.044-.013-.101.024-.096.073.026.268.296.526.504.676.24.172.585.238.863.13.258-.1.44-.436.718-.469.313-.037.399.388.661.498.576.24 1.23-.364 1.587-.745.419-.448.832-1.05.969-1.655.02-.089-.109-.154-.154-.065h0z"/><path d="M82.3 30.167c.03.018.026.025-.014.022l-.031.013c-.028.027-.06.054-.079.089-.05.094-.039.215-.026.315.032.248.136.474.21.711.081.26.111.519-.087.734-.204.221-.52.342-.807.405-.348.077-.696.011-1.047.045-.295.029-.545.153-.799.298s-.495.285-.794.293c-.327.008-.56-.112-.84-.261-.063-.034-.148.037-.104.104.314.478 1.032.572 1.535.389.346-.127.625-.397 1.002-.442.385-.046.766.032 1.151-.05.568-.121 1.249-.488 1.259-1.147.004-.293-.133-.564-.234-.831-.048-.128-.092-.255-.112-.39-.01-.065-.009-.128-.039-.187-.006-.022-.017-.041-.033-.056-.035-.016-.035-.025-.001-.025.006-.06-.082-.078-.109-.03v.001z"/><path d="M81.798 32.572c-.012.142.079.293.126.424.052.147.089.296.09.452.001.334-.147.604-.353.857s-.435.514-.513.844.001.662.123.969c.129.325.305.638.357.988a1.7 1.7 0 0 1-.207 1.084c-.377.652-1.067 1.014-1.638 1.464-.106.083.013.227.12.206.614-.12 1.162-.563 1.574-1.019.402-.445.64-1.008.603-1.614-.019-.303-.108-.579-.225-.856-.125-.294-.306-.616-.295-.946.011-.308.224-.537.408-.763.176-.215.343-.434.43-.702.095-.293.077-.63-.026-.919-.074-.209-.254-.542-.517-.526-.015 0-.029.007-.04.017s-.017.025-.017.04h0zm-18.274-2.601c.144 1.198.327 2.384.795 3.508.224.536.51 1.047.887 1.49.416.49.933.876 1.477 1.213 2.348 1.452 5.047 2.315 7.691 3.047l2.272.609c.746.192 1.559.367 2.324.185.218-.052.176-.414-.053-.397-.71.053-1.372-.06-2.057-.239l-1.948-.533-3.758-1.163a26.37 26.37 0 0 1-3.682-1.608c-1.072-.575-2.05-1.268-2.663-2.346-.654-1.149-.902-2.502-1.169-3.781-.013-.064-.123-.051-.115.016h0zm15.979-12.664c-.168.279-.498.408-.794.515a4.68 4.68 0 0 1-.925.23l-1.758.206c-.529.073-1.044.196-1.53.424-.236.111-.463.249-.662.418-.091.074-.171.16-.239.256-.081.119-.073.204-.087.341-.007.072.075.095.127.073.13-.056.214-.075.328-.17l.306-.258a3.06 3.06 0 0 1 .712-.377c.534-.203 1.095-.297 1.656-.388.616-.099 1.228-.17 1.824-.362a3.54 3.54 0 0 0 .795-.364c.187-.117.397-.258.418-.496.008-.095-.127-.12-.171-.046h0zm-1.023 1.735c-.373.321-.927.209-1.38.254-.494.049-.984.143-1.456.296a5.3 5.3 0 0 0-1.334.642c-.367.248-.778.57-.713 1.066.059.448.44.84.768 1.124.343.297.735.527 1.161.684.725.268 1.966.476 2.312-.43.169-.444.152-.981.134-1.448-.018-.498-.095-1.084-.449-1.463-.141-.151-.342.041-.268.206.177.393.288.746.3 1.182.01.374.006.776-.067 1.144-.03.15-.074.315-.182.429-.138.145-.351.147-.538.148-.395.004-.788-.07-1.159-.205s-.731-.348-1.028-.615c-.254-.228-.737-.676-.531-1.053.188-.345.693-.586 1.03-.758.39-.2.798-.354 1.223-.465.458-.119.922-.172 1.391-.223.342-.037.727-.096.916-.417.049-.083-.06-.158-.128-.099h0z"/><path d="M77.455 19.947c-.079-.174-.208-.28-.4-.298-.184-.017-.37.044-.512.162-.357.296-.411.833-.452 1.263-.048.488-.008 1.02.288 1.429.254.35.734.688 1.177.512.189-.075.151-.317-.046-.343-.315-.041-.594-.154-.783-.421-.215-.302-.258-.689-.247-1.049.01-.327.022-.739.201-1.025.073-.117.176-.191.313-.216.117-.022.265-.014.345.078.059.069.15-.019.117-.09h0zM72.41 38.212c-.003.058-.069.084-.103.159-.046.1-.047.233-.057.341l-.065.839-.18 1.637c-.1 1.039-.172 2.173.378 3.104.039.067.167.044.157-.043a14.6 14.6 0 0 1-.036-3.186l.15-1.595c.014-.208.158-1.217-.197-1.224l.052.052-.011-.083c-.007-.055-.085-.059-.089 0v-.001z"/></g><g fill="#000"><path d="M45.202 131.007c-.165.01-.247.251-.3.379l-.276.737c-.188.487-.387.969-.659 1.416-.132.217-.276.43-.439.625-.089.106-.145.166-.132.309l.049.42c.025.283.008.554-.046.833-.045.233-.166.514-.126.75.007.041.06.056.092.037.286-.165.395-.664.448-.965.071-.402.084-.793.024-1.197l-.059.223c.495-.546.834-1.188 1.102-1.871.055-.139.583-1.713.321-1.696zm-8.756.032c-.345-.178-.826-.183-1.207-.217L34 130.755c-.841-.016-1.682.027-2.517.129a17.69 17.69 0 0 0-2.447.467l-1.186.362c-.368.127-.798.28-1.086.55-.05.047-.012.139.057.136.382-.013.777-.173 1.136-.296l1.187-.361a18.29 18.29 0 0 1 2.421-.477c.807-.102 1.621-.149 2.435-.14l1.239.055c.378.03.806.133 1.18.066.095-.018.11-.164.027-.207h-.001zm-5.78 2.725c-.377-.084-.788.032-1.161.09l-1.276.221c-.211.034-.432.066-.644.02-.178-.038-.342-.126-.521-.163-.363-.077-.655.085-.976.227-.381.17-.797.176-1.206.189l-1.325.041-1.264.046c-.294.031-.581.139-.721.419-.358.713.416 1.382.971 1.669.048.024.116-.017.097-.075-.096-.286-.296-.464-.494-.683-.172-.191-.387-.552-.184-.796s.766-.164 1.048-.173l1.188-.038c.676-.022 1.421.035 2.052-.249.146-.065.287-.153.442-.197.205-.058.379.007.572.071.315.104.611.109.938.057l1.262-.238c.398-.078.871-.117 1.217-.343.035-.023.033-.084-.013-.094v-.001zm-2.677-.915c-.804.177-1.612.311-2.438.232-.416-.04-.826-.152-1.246-.101-.4.049-.773.206-1.162.302-.805.198-1.644.179-2.468.209-.619.022-1.393.011-1.883.458-.595.541-.218 1.491.379 1.869.134.085.266-.078.204-.204-.149-.302-.444-.545-.477-.901-.03-.322.201-.53.478-.637.606-.233 1.341-.169 1.979-.188.737-.021 1.474-.074 2.182-.294.361-.112.718-.245 1.102-.23.361.013.716.098 1.078.119.806.047 1.633-.062 2.36-.424.121-.06.033-.236-.088-.21h0zm-2.042-.69c-.229-.026-.454.038-.68.071-.285.041-.569.068-.856.067-.534-.004-1.014-.158-1.535-.24-.51-.08-.961.114-1.442.253-.507.147-1.026.252-1.548.33-1.075.159-2.163.197-3.245.262-.424.025-.83.078-1.097.446-.235.323-.306.756-.263 1.147.094.854.703 1.669 1.583 1.797.129.019.246-.171.099-.235-.649-.284-1.201-.9-1.263-1.625-.029-.336.033-.792.345-.988.196-.123.458-.111.681-.124l.731-.043 2.836-.283c.478-.082.952-.191 1.415-.335l.637-.19c.272-.055.521-.012.788.05.487.114.982.176 1.483.144.441-.027 1.041-.077 1.372-.404.039-.039.007-.095-.041-.1h0z"/><path d="M36.497 129.027l-.801 1.2a7.32 7.32 0 0 1-.484.532l-.267.255c-.086.079-.168.185-.167.308 0 .045.034.096.081.106.253.053.478-.224.64-.381.181-.176.347-.367.503-.566.316-.405.608-.847.773-1.337.056-.168-.188-.259-.277-.117zm-18.429 7.686c.393.047.791.029 1.187.03l1.233.001 2.375.007 4.841-.008 9.591.015 2.695-.03 1.37-.006c.437.001.877.024 1.311-.034.117-.016.115-.217 0-.235-.374-.059-.751-.051-1.128-.057l-1.233-.025-2.421-.062-4.796-.028c-3.228-.005-6.455.026-9.683.07l-2.695.063-1.324.034-1.351.071c-.12.018-.074.182.026.194z"/></g><g style="mix-blend-mode:darken" class="C B"><path d="M160.881 115.896c-.024 0-.024.037 0 .037s.023-.037 0-.037zm50.295 107.839l-.231.067c-.033.009-.057.047-.046.081s.046.059.081.046l.226-.086c.014-.005.025-.013.033-.026s.01-.03.006-.043c-.01-.028-.039-.047-.069-.039h0z"/></g><g style="mix-blend-mode:darken" class="C B"><path d="M78.063 8.533c.004-.006.009-.01.013-.016-.096.092-.041.054-.013.016z"/></g><g style="mix-blend-mode:darken" class="C B"><path d="M78.704 12.333c-.004-.017-.003-.03-.003-.046l-.045-.163c-.333-.457-.677-.91-.94-1.41l-.134-.148h-.196c-.031 0-.056-.01-.078-.024-.166.483-.073 1.102-.139 1.597a8.84 8.84 0 0 1-.445 1.766c-.397 1.115-1.033 2.159-1.791 3.066-.043.009-.085.024-.128.035.191-.249.344-.545.464-.745.278-.457.527-.931.747-1.419.238-.532.559-1.272.53-1.922a3.49 3.49 0 0 0 .073-.9c.216-.376.312-.816.234-1.257l.474-.252.095-.042.028-.013a.22.22 0 0 1-.021.01l.053-.021.253-.09.272-.085c.049-.019.103-.038.147-.066l.026-.02c.021-.013.016-.014-.012 0 .009-.005.019-.009.029-.013.038-.011.072-.03.1-.058.02-.015.035-.033.052-.051a.39.39 0 0 0 .168-.379c-.004-.034-.019-.065-.032-.096.179-.156.338-.333.475-.528.155-.224.049-.587-.187-.711-.262-.139-.527-.053-.698.171-.005.004-.008.011-.013.016l-.031.038-.104.114-.101.097-.063.055-.028.022-.055.039-.13.082c-.06.035-.124.064-.186.093l-.06-.018-.042-.014.008-.018.39-1.019.131-.5c.048-.25.111-.526-.041-.752a.51.51 0 0 0-.056-.07c-.146.007-.285.08-.404.254-.266.388-.354.899-.437 1.353-.026.142-.221.243-.323.102-.052-.073-.098-.149-.141-.226l-.077.224v-.38c-.192-.425-.267-.902-.338-1.36-.098-.627-.209-1.231-.433-1.828l-.134-.332c-.15.029-.296.078-.436.14l-.033.133c.039.367.105.732.186 1.093.253 1.145.572 2.271.521 3.456-.007.167-.221.212-.323.102-.07-.075-.12-.166-.16-.262l-.007.109-.028.224-.051-.026a4.36 4.36 0 0 0-1.489-.558.18.18 0 0 1-.129-.087 2.3 2.3 0 0 0-1.207.558c-1.31 1.157-1.086 3.01-1.258 4.575-.164 1.496-.644 2.968-1.356 4.291a12.13 12.13 0 0 1-1.039 1.619c-.904.826-1.911 1.531-2.85 2.315-1.146.957-2.148 2.069-2.643 3.5-.111.323.048.592.291.733.001.007.004.014.005.021l-.048.376c.011-.007.019-.017.031-.022.042-.118.176-.139.274-.085.228.125.363.368.591.493.053.029.087.108.078.167l-.011.117c.068-.035.131-.079.182-.138a1.98 1.98 0 0 0 .036.866c.087.307.455.365.66.186.045-.734.353-1.41.799-1.997l.225-.305c.024-.03.053-.056.078-.085l.191-.164c.519-.52 1.116-.953 1.72-1.373l2.301-1.708c.449-.452 1.018-.785 1.634-.857.497-.058 1.029.017 1.497.187.273.099.653.213.929.14l-.052-.029c-.281-.18-.606-.419-.698-.758-.032-.118-.012-.24.041-.347l-.094-.025-.037-.016-.002-.001.05-.123c.007-.021.008-.043.011-.064l.164-.141.827-.575c.152-.111.328-.231.412-.406h.09l.159-.01.31-.03a.6.6 0 0 0 .307-.083l.123-.095c.047-.047.08-.102.107-.16a.47.47 0 0 0 .153.029l.099.002c.066.003.127-.011.183-.041.059-.019.111-.053.153-.098.009-.008.011-.021.019-.029.019.008.036.018.056.024.085.023.17.023.255 0 .052-.01.091-.031.131-.059l.103-.079.076-.098.012-.029c.011-.02.017-.038.028-.063.013-.018.021-.037.024-.058l.005-.035.01-.024.015-.113-.015-.113a.32.32 0 0 0-.076-.145c-.018-.032-.045-.058-.076-.076a.21.21 0 0 0-.094-.055c-.033-.019-.07-.029-.107-.029-.056-.012-.115-.01-.17.008l-.067.009-.02.008-.128.051c-.038.02-.072.047-.101.079a.58.58 0 0 0-.058-.024c.366-.424.689-.922 1.007-1.382.376-.541.724-1.105.996-1.706a7.21 7.21 0 0 0 .495-1.484c-.206-.484-.343-.995-.488-1.502v.001zM66.47 23.973l-.938.924a.64.64 0 0 0 .047-.27c.676-.66 1.418-1.247 2.205-1.772.033.007.067.01.1.01a15.23 15.23 0 0 0-1.414 1.108h0zm2.731-1.969l.824-.737c.058-.015.115-.036.168-.066l.022-.001c.055 0 .11.004.165.01-.376.287-.777.543-1.179.795zm3.031-2.699l-.097.142-.002.001a1.11 1.11 0 0 0-.165.093c-.193.103-.399.191-.613.239l.204-.277a.81.81 0 0 0 .283-.142l.089-.069c.092-.012.179-.047.255-.099l.268-.195-.222.307zm1.951-1.76c-.001.051-.019.101-.062.13l-.12.085c-.016.047-.05.088-.096.116-.416.253-.755.607-1.059.984-.073.091-.174.083-.247.033.549-.424 1.041-.905 1.473-1.431a.58.58 0 0 0 .206-.027l-.096.111h0z"/></g><g style="mix-blend-mode:darken" class="C B"><path d="M72.412 44.259c-.041-.033-.072-.081-.072-.146-.004-.362-.074-.72-.084-1.082v-.004l-.003-.047c-.001-.073.037-.118.087-.142v-.119c0-.05.03-.09.069-.12l.007-.201c-.121-.453-.203-.918-.233-1.382a7.93 7.93 0 0 1 .023-1.313c.037-.356.126-.692-.067-1.023-.365-.624-1.229-.626-1.837-.826a6.12 6.12 0 0 1-1.913-1.038c-.161-.129-.335-.179-.5-.175l-.461-.707c-.082-.042-.161-.09-.231-.148l-.053-.026a.16.16 0 0 1-.088-.003l-.15-.059c-.044.055-.117.088-.199.059-.399-.14-.746-.369-1.047-.653l-.086-.044c-.077-.039-.112-.102-.114-.164l-.139-.152c-.019-.024-.031-.053-.035-.083s-.002-.061.008-.09l-.16-.179c.201.558.443 1.102.735 1.618l1.865 3.237c.938 2.068 1.804 4.441 4.206 5.158.185.055.347.037.48-.028l-.008-.116h-.001z"/></g><g style="mix-blend-mode:darken" class="C B"><path d="M56.808 40.953c-.004.007-.011.01-.015.016l-.025.036.04-.052z"/></g><g style="mix-blend-mode:darken" class="C B"><path d="M58.5 30.626a.53.53 0 0 0-.657-.556c-.226.051-.409.258-.56.425a7.17 7.17 0 0 0-.443.548c-.241.327-.445.681-.607 1.053-.231.526-.374 1.084-.415 1.651-.105.561-.156 1.119-.18 1.615l-.007 3.048a5.67 5.67 0 0 1-.26 1.435c-.239.387-.409.818-.599 1.23-.277.599.517 1.08.891.521a4.99 4.99 0 0 0 .308-.538l.109.085c.061.039.127.06.198.063.047.013.094.013.142 0 .048 0 .093-.012.134-.036.045-.012.084-.035.117-.069a.4.4 0 0 0 .122-.133l.107-.152.05-.086.1-.183.093-.177c.035-.07.06-.144.086-.218a.64.64 0 0 0 .026-.106l-.003.02a.6.6 0 0 0 .028-.172.47.47 0 0 0 .008-.081c0-.064-.011-.112-.028-.168s-.044-.107-.08-.153c.117-.485.219-.972.274-1.48.097-.893-.006-1.714-.077-2.603-.06-.741.034-1.44.301-2.133.136-.352.313-.686.515-1.004.21-.33.488-.597.609-.976.082-.257-.072-.544-.302-.67h0z"/></g><g style="mix-blend-mode:darken" class="C B"><path d="M63.519 67.197l.056-.382-.101.33c-.02-.019-.043-.034-.066-.05-.052.617-.004 1.35-.502 1.756-.067.054-.146.05-.206.013l-.209.559c.001.023-.002.046-.009.069l-.655 1.774c-.041.155-.099.306-.165.455l-.216.737c-.128.369-.308.855-.632 1.132l-.168.606-.563 1.053-1.597 2.982-1.796 2.969-1.871 2.93-1.563 2.456c-.815 1.263-1.721 2.583-2.861 3.605l.036-.015.622-.197c.181-.05.353-.116.531-.035.048.004.092.02.144.03.106.02.209-.021.299-.095a12.91 12.91 0 0 1 1.499.397.43.43 0 0 0 .078.018c.057.255.241.445.446.497.022-.021.05-.035.079-.04a.15.15 0 0 1 .088.012l.042.022c.351.168.659.403.971.627l.176.127.183-.341 1.195-2.307 2.136-4.935c1.303-3.384 2.348-6.856 3.279-10.358.525-1.978 1.043-3.962 1.415-5.974a.52.52 0 0 0-.096-.426h-.002zm130.892 127.839a.64.64 0 0 0-.833.05c-.855.791-1.788 1.514-2.767 2.147a.74.74 0 0 0-.21.197l-1.002.563-.846.402c-.237.123-.541.265-.723.478l-.528.217-1.106.409-2.403.778a46.06 46.06 0 0 1-5 1.166 44.25 44.25 0 0 1-4.99.581 57.49 57.49 0 0 1-2.525.084l-1.263.008c-.288.002-.595-.014-.879.046l-.97-2.8c-.379-1.182-.72-2.378-.983-3.591-.33-1.528-.521-3.094-.489-4.654.02-.062.035-.125.043-.19l.383-3.375c.048-.423-.293-.656-.648-.669-.14-.058-.295-.069-.44-.024a.66.66 0 0 0-.099-.04l-.749-.221c-.047-.012-.095-.019-.143-.021a3.32 3.32 0 0 0-.527-.128c-.017-.002-.033-.003-.05-.005-.086-.014-.173-.021-.261-.022-.175.001-.355.076-.49.198l-.007-.019c-.015-.042-.033-.081-.055-.119.049-.011.095-.037.13-.073.217-.222.172-.509.067-.773-.119-.297-.227-.598-.323-.903a14.82 14.82 0 0 1-.255-.899 13.7 13.7 0 0 1-.103-.456c-.036-.176-.115-.364-.315-.4-.114-.021-.249-.009-.33.087-.024.004-.048.009-.071.022-.176.092-.344.199-.52.293-.061.032-.123.054-.184.078l-.163.059a3.71 3.71 0 0 1-.23.061 12.15 12.15 0 0 0-1.234.321c-.829.273-1.623.65-2.412 1.019-.243-.018-.482-.07-.71-.155-.583-.218-1.098-.612-1.532-1.051-.982-.993-1.562-2.328-1.976-3.642-.438-1.391-.689-2.831-.935-4.266l-.786-4.514a7.68 7.68 0 0 1-.088.619c-.043.242-.082.483-.101.727-.006.077-.015.152-.027.228-.002.013-.003.038-.006.061.18.02.212.317.003.362-.017.004-.028.001-.044.003l.399 2.463.086.507c-.125.472-.111 1.006-.115 1.485l-.008 1.647.023 3.248c.012 1.048.008 2.096.105 3.14.048.521.106 1.044.082 1.568-.011.247-.082.48-.101.723-.021.256.209.379.331.576a1.38 1.38 0 0 1 .195.557c-.052.047-.094.105-.125.174l-.008-.063c-.032-.232-.036-.514-.258-.654-.228-.143-.562-.051-.81-.028l-.864.083-1.421.135c-.354-.122-.76-.089-1.131-.139a8.62 8.62 0 0 1-1.291-.275 8.22 8.22 0 0 1-2.321-1.096 7.16 7.16 0 0 1-.886-.715 5.33 5.33 0 0 1-.282-.391c-.409-.639-.712-1.339-.996-2.041l-.224-.556a12.77 12.77 0 0 1-.336-2.086c-.009-.111-.08-.197-.17-.246-.021-.277-.036-.555-.036-.835 0-.114-.06-.183-.137-.219a42.81 42.81 0 0 0-.14-2.581c.016-.297-.005-.601-.013-.889l-.055-1.679-.16-3.356a121.73 121.73 0 0 0-.579-6.744c-.037-.327-.072-.683-.186-1.004l-.044-.396c-.082-.792-.183-1.582-.308-2.369-.002-.014-.01-.023-.014-.036.029-.043.048-.092.043-.155l-.066-.72c-.015-.547-.065-1.092-.149-1.633l-.001-.009c.057-1.029.051-2.063.047-3.092l.001-3.666c.021-2.278.103-4.576.582-6.81.236-1.102.572-2.182 1.031-3.212.44-.986.873-2.005.485-3.086-.368-1.025-1.19-1.748-1.991-2.44-.786-.679-1.507-1.409-2.046-2.304-.289-.48-.521-.991-.67-1.532a4.84 4.84 0 0 1-.143-.725c-.012-.053-.024-.105-.033-.159-.044-.27-.051-.636-.244-.849-.221-.242-.637-.316-.941-.374-.438-.083-.884-.124-1.327-.172-.244-.027-.492-.052-.736-.093-.083.015-.167.025-.248.048a.24.24 0 0 0-.131.093 1.16 1.16 0 0 0-.193-.116c-.165-.076-.317-.032-.406.086-.084-.04-.172-.068-.265-.068a.48.48 0 0 0-.293.095c-.014-.006-.029-.013-.043-.018-.102-.031-.223-.028-.329-.04-.304-.036-.609-.058-.914-.083l-1.691-.136-3.381-.234-6.808-.466-13.525-.911-7.676-.511c-.043-.003-.086.003-.127.018-.103-.009-.208-.014-.311-.019l-.713-.028-.906-.021c-.058-.051-.133-.08-.21-.081l-.121-.003c-.023-.004-.045-.012-.068-.014-.039-.003-.078-.004-.117-.003-.225-.057-.462-.053-.685.012-.014.004-.023.013-.035.018l-.084.007c-.008 0-.014-.002-.022-.001s-.014.004-.022.005c-.015.002-.03.002-.045.003-.092.035-.165.101-.18.209s.056.256.18.275c.016.003.032.004.047.006.027.035.061.065.1.088a.31.31 0 0 0-.017.187l.171.691.02.214c.025.297.045.594.059.891.027.568.088 1.171.016 1.737-.065.511-.348.89-.702 1.245-.191.192-.39.377-.586.564l-.311.297c-.054.052-.121.129-.188.189-.025.002-.05.003-.076.013-.135.048-.272.179-.257.337l.003.027a.48.48 0 0 0 .044.153l-.275.27c-.125.106-.248.215-.369.327-.018.013-.034.028-.051.042-.496-.042-.926-.36-1.139-.799-.02-.071-.053-.14-.081-.209-.006-.02-.015-.038-.02-.058-.013-.023-.018-.046-.03-.07-.066-.518.074-1.054.376-1.488.031-.045.043-.097.046-.15.155-.169.341-.302.575-.36.213-.053.354-.344.218-.535-.27-.38-.37-.826-.254-1.281.037-.146-.028-.276-.13-.361.004-.016.011-.031.011-.05.002-.103-.001-.205-.004-.308.017-.03.025-.065.023-.1l-.006-.068a.2.2 0 0 0 .051-.137.25.25 0 0 0 .03-.176c.001-.033.007-.048.007-.064-.005-.145-.015-.289-.029-.433a.94.94 0 0 0-.009-.078l-.026-.223-.008-.072c-.015-.109-.148-.175-.246-.16-.111.016-.192.106-.194.22-.001.04.003.08.004.12-.006.03-.005.061.004.096.003.04.008.08.014.119-.017.032-.026.067-.027.103-.018.019-.032.041-.04.065s-.012.05-.009.076l.013.147c-.005.019-.012.038-.01.059s.007.048.009.072c-.013.017-.024.036-.033.056-.048.132-.08.266-.106.402-.048-.001-.096.013-.136.039-.08.059-.136.118-.165.218-.008.03-.014.061-.02.091l-.017.083-.008.046a.47.47 0 0 0 .003.185l-.011-.082c-.015.118-.024.232-.01.35l.017.132c.002.014.003.029.007.043l.024.057-.008-.024.022.057c.011.027.013.033.008.016s-.002-.01.014.032a14.09 14.09 0 0 0-.413 1.27c-.174.159-.393.286-.579.391l-1.927 1.052c-.068.037-.109.085-.138.136l-1.604.806c-.041.017-.08.037-.12.056-.251-.572-.294-1.215-.12-1.815.029-.1.007-.193-.041-.269.034-.077.072-.152.114-.225a.35.35 0 0 0 .138-.177c.01-.029.025-.054.036-.082.136-.172.3-.324.49-.446.106-.068.151-.18.157-.293a1.66 1.66 0 0 1 .938-.234c.296.018.424-.316.314-.547a2.53 2.53 0 0 1-.105-.255.36.36 0 0 0-.002-.188l-.07-.253c-.089-.447.015-.9.156-1.338.18-.562.387-1.103.432-1.697a.3.3 0 0 0-.027-.149c.005-.021.012-.042.01-.065l-.027-.38-.018-.255c-.004-.01-.01-.019-.012-.03-.035-.141-.062-.285-.095-.427a.22.22 0 0 0-.126-.088c-.111-.025-.249.015-.304.124a.33.33 0 0 0-.036.141c.002.041.008.081.011.122-.041.02-.075.051-.098.09-.029.027-.053.059-.067.099-.017.049-.034.099-.049.148-.018.06-.023.126-.03.188-.033.043-.06.078-.081.117-.452.846-1.021 1.624-1.571 2.409l-2.594 1.32c-.096.049-.151.146-.169.25-.09.041-.177.087-.268.126-.18.075-.362.145-.545.211-.273-.569-.336-1.22-.132-1.834.158-.476.483-.892.892-1.185l.596-.31c.134-.035.272-.056.41-.06.257-.005.39-.228.352-.463s-.074-.477-.061-.719c.014-.249.118-.442.237-.656.08-.144.14-.29.174-.437l.029-.029.034-.033c.008-.004.043-.031.049-.034a.88.88 0 0 1 .067-.039c.018-.009.018-.009.024-.011.029-.007.056-.016.086-.022.096-.02.175-.109.2-.2.067-.24-.001-.514-.185-.685-.029-.027-.06-.051-.09-.077-.004-.008-.008-.017-.01-.025-.006-.018-.014-.034-.02-.052.003-.023.002-.032.002-.04.019-.021.034-.046.044-.073s.014-.055.012-.084c.008-.03.016-.048.021-.068.024-.019.043-.042.055-.069s.019-.057.018-.087a6.92 6.92 0 0 1-.006-.537c-.026-.186-.043-.374-.063-.562-.026-.023-.056-.044-.09-.052-.042-.009-.085-.009-.128 0-.051.011-.122.061-.143.11s-.052.11-.049.168a.3.3 0 0 0 .02.092l.005.249c-.039.014-.075.037-.103.067s-.049.068-.059.108c-.058.052-.1.129-.095.206-.049.041-.095.085-.125.147a1.23 1.23 0 0 0-.109.349c-.006.042-.006.082-.007.123-.18-.042-.394.047-.554.108-.195.074-.385.161-.565.268-.173.103-.33.228-.475.367-.075.072-.136.159-.189.248l-.536.325c-.181.114-.359.243-.546.35-.041.014-.08.035-.12.051l-.853.256-.031.003a4.45 4.45 0 0 1-.315-.79l-.021-.082.274-.08c.045-.013.086-.035.122-.064-.001-.115.011-.229.048-.336.007-.054.018-.108.031-.161a.51.51 0 0 0 .11.01c.044-.049.085-.099.132-.146l.001-.001a2.62 2.62 0 0 1 .185-.172l.023-.021c.01-.008.018-.018.028-.026.17-.143.353-.27.547-.378.341-.19.707-.332 1.066-.485a9.3 9.3 0 0 1-.037-.431c-.008-.094-.013-.189-.014-.284.042-.179.047-.373.032-.569.008-.064.017-.128.028-.192.008-.044.014-.087.024-.13.023-.113.049-.226.081-.336.01-.035.03-.059.054-.078.016-.038.034-.073.052-.11.019-.178.061-.371.142-.523-.075-.028-.139-.085-.153-.163-.004-.024-.007-.049-.011-.073-.012-.01-.024-.021-.032-.034a.21.21 0 0 1-.06-.1c-.007-.03-.017-.059-.024-.089-.039-.027-.069-.069-.08-.118-.069-.318-.072-.644-.103-.967-.006-.044.004-.09.028-.127s.062-.066.105-.078l-.247-.846a50.71 50.71 0 0 1-.915-4.147l-.014-.369c-.005-.353.047-.738-.109-1.066a.89.89 0 0 0-.225-.296c-.036-.044-.077-.083-.122-.117-.275.021-.548.06-.82.098l-.569.07c-.1.009-.206.025-.308.022-.082-.003-.128-.044-.182-.099s-.048-.156-.011-.221c.075-.133.203-.254.324-.344.011-.009.023-.015.035-.023.04-.085.067-.174.063-.265-.002-.035-.011-.066-.015-.1l.026-.062c.03-.109.03-.224 0-.334a.48.48 0 0 0-.112-.213c-.037-.061-.088-.114-.148-.153a.48.48 0 0 0-.201-.072c-.288-.254-.679-.413-1.079-.498-.868-.187-1.712-.43-2.512-.822-.711-.348-1.546-.927-2.354-.494-.216.116-.376.289-.512.49-.09.131-.137.23-.277.31-.161.091-.331.141-.496.202-.641.125-1.352-.019-1.957-.196-1.195-.351-2.332-.914-3.473-1.403l-7.709-3.301c-2.513-1.076-5.009-2.221-7.562-3.198-1.207-.461-2.446-.855-3.726-1.05-1.315-.201-2.577-.121-3.894-.005-1.29.114-2.678.148-3.712-.757-.853-.747-1.284-1.802-1.298-2.925-.007-.556-.905-.725-1.007-.136-.007.043-.008.086-.014.129a2.16 2.16 0 0 1 .188.392c.142.325.228.667.19 1.022.022.217.044.436.083.657.051.293.135.575.218.856a4.78 4.78 0 0 0 .555.71c-.014.046-.024.093-.029.141-.037.334.197.6.393.842.145.18.304.348.479.499.061.053.124.101.187.15.262.088.515.201.763.325.098.023.195.05.293.074.148.083.3.161.451.235.305.147.618.287.939.398.163.056.323.111.494.134.056.008.115.019.172.021.055.019.092.038.127.059.247.052.496.088.744.075.095.12.223.21.368.259l3.585 1.112c-.271.627-.522 1.263-.751 1.906-.541 1.525-.959 3.089-1.256 4.679s-.481 3.206-.545 4.825c-.049 1.248-.095 2.589.1 3.856a60.13 60.13 0 0 0 .131 3.847c.009.139.015.286.021.436l-.014.09c-.03.151-.077.294-.121.441a1 1 0 0 0-.019.05l-.03.064c-.032.063-.066.125-.102.185a2.13 2.13 0 0 1-.091.137c-.011.008-.102.116-.116.132-.16.171-.294.332-.345.548-.108.082-.193.193-.225.328a40.39 40.39 0 0 1-.482 1.866 26.98 26.98 0 0 1-.286.921c-.094.288-.236.58-.298.876-.079.376.055.741.349.946-.073.206-.136.415-.213.619a6.59 6.59 0 0 1-.622 1.18 4.89 4.89 0 0 1-.342.466c-.171.204-.381.386-.531.607-.166.245-.207.528-.184.817.024.309.018.652.108.949a.71.71 0 0 0 .143.254c-.086.285-.016.595.238.784.309.231.648.169.938-.056.434-.335.555-.929.564-1.448 0-.021-.002-.041-.002-.061.013-.074.028-.147.038-.222a4.58 4.58 0 0 0 .035-.368l.002-.076a1.29 1.29 0 0 0 .158-.124 1.67 1.67 0 0 0 .271-.342c.515-.82.915-1.847.998-2.825a.82.82 0 0 0 .297-.497c.028-.165.031-.247.071-.453a7.74 7.74 0 0 1 .11-.484c.054-.206.115-.41.182-.612.02-.018.039-.037.057-.057-.005.006-.01.013-.016.02.021-.027.045-.049.067-.076a.59.59 0 0 0 .131-.209c.132-.225.195-.501.252-.748.027-.117.054-.234.075-.352.024-.139.045-.28.004-.419-.033-.115-.098-.211-.187-.288-.005-.005-.011-.007-.016-.012s-.003-.014-.004-.021c.008-.01.015-.02.023-.03a.75.75 0 0 0 .082-.032c.635.318 1.498.111 1.532-.753.021-.544-.203-1.143-.289-1.68-.09-.57-.155-1.144-.197-1.72a.63.63 0 0 0 .223-.242c.052-.099.077-.209.072-.321a39.59 39.59 0 0 1 2.621-15.025c.024-.001.048-.006.071-.013l.02-.009c.007-.003.014 0 .02-.003l.14-.059c.069-.036.115-.081.163-.121.019-.016.039-.029.057-.044s.033-.036.049-.054l.045-.052.104-.134c.044-.068.053-.101.064-.158l.006-.028c.003-.006.006-.013.008-.019l.021-.157-.021-.158c-.018-.077-.053-.144-.106-.201a.3.3 0 0 0-.088-.088l5.675 1.76 6.153 1.902c1.871.578 3.755 1.16 5.512 2.038.314.157.635.356.964.546-.105-.034-.218-.027-.318.019a10.69 10.69 0 0 1 .708.404c-.028-.123-.096-.233-.193-.312.5.277 1.019.514 1.567.532a1.4 1.4 0 0 0 .599-.109 1.42 1.42 0 0 0 .499-.349c.396.25.858.425 1.291.595.443.175.903.312 1.366.424.828.2 1.684.298 2.537.316.17 1.797-.088 3.643-.842 5.288-.107.234-.287.483-.322.739-.033.245.059.526.117.763.118.487.291.955.496 1.412.417.929 1.033 1.762 1.773 2.459.201.189.557.272.801.104a6.28 6.28 0 0 1 .541-.331c.063.031.132.05.208.054 0 .079.012.159.046.24.014.033.038.056.056.085-.244.074-.479.174-.694.311-.009.003-.016.009-.025.013l-1.823.2a.47.47 0 0 0-.196.072c-.139.019-.277.043-.415.071-1.336.013-2.671-.074-4.005-.156-1.744-.107-3.479-.17-5.223-.038a37.36 37.36 0 0 0-1.417.139c-.156.018-.332.032-.493.073-.009-.047-.022-.09-.045-.126-.115-.342-.748-.248-.696.141l.013.098c.007.044.007.089.012.133 0 .013 0 .025-.001.038-.047.169-.058.346-.031.52-.001.007-.001.015-.002.022a3.67 3.67 0 0 0-.222.492.31.31 0 0 0 .024.244.3.3 0 0 0 .007.252c-.011.023-.021.047-.032.071l-.401.678-.86.988c-.046.053-.076.119-.085.189a13.52 13.52 0 0 1-1.514 1.139.35.35 0 0 0-.18.096c-.026.026-.055.048-.082.073-.656.415-1.334.796-2 1.169-.062.034-.1.08-.129.129l-.366.183a12.94 12.94 0 0 0-2.729 1.881.3.3 0 0 0-.088.149c-.303.284-.586.589-.835.927a4.44 4.44 0 0 0-.424.697c-.127.261-.279.565-.211.864a.77.77 0 0 0 .381.488c.238.242.52.432.83.559.056.104.159.182.307.183l9.316-.008 9.269-.129 2.603-.058c.852-.021 1.727.012 2.572-.111.059.038.128.059.198.059l10.484-.053c.033.001.066.005.099.006a6.61 6.61 0 0 0 .508-.001c3.088.11 6.179.061 9.269.06l9.251-.027 5.2-.02c.042 0 .076-.011.11-.022a52.87 52.87 0 0 1 2.73.081c.111.007.195-.032.252-.092l.513.005 1.91-.015 2.176-.023a.35.35 0 0 0 .286.156l5.795-.091 2.876-.022 1.46-.006h.066a15.74 15.74 0 0 0 1.546.146c.357.019.716.046 1.07.103.077.013.152.033.229.049a4.18 4.18 0 0 1 .278.339c.287.986.138 2.037.278 3.05l-.033.763a.3.3 0 0 0-.261.296c-.042.733-.018 1.465.072 2.193.003.03.016.055.025.081l.014.852a.28.28 0 0 0 .035.147c.025.045.062.083.107.108a6.1 6.1 0 0 0-.028.866c-.03.038-.052.085-.054.149-.001.026-.001.051-.001.076-.005.02-.012.038-.013.06l-.021 2.973c-.131.032-.242.13-.228.289a12.91 12.91 0 0 1-.021 2.502.25.25 0 0 0 .161.275l-.008.48c-.001.023.007.04.01.06-.035.045-.06.101-.056.178l.018.309a.24.24 0 0 0-.083.098c-.018.039-.024.083-.019.126l.139 1.935c-.005.483.013.966.055 1.447a22.88 22.88 0 0 0 .057 2.191c-.003.013-.009.025-.01.04-.109 1.013-.095 2.027.016 3.036-.026.464-.036.912-.042 1.36-.056.043-.094.11-.09.206l.119 2.548c-.066.04-.114.11-.11.217l.106 2.718c-.013.037-.018.077-.015.117l.12 2.036.01.688a.26.26 0 0 0-.034.135l.001.188a.26.26 0 0 0-.112.219c-.011.73.01 1.46.061 2.188-.009.168-.009.335-.016.477-.022.413-.025.827-.02 1.241l.053 2.54.139 5.127c.019.622-.002 1.285.113 1.909-.01.013-.022.023-.03.038-.092.213-.085.404-.078.633l.021.774.039 1.413.08 2.87.071 2.527c-.074.121-.12.257-.135.397a.44.44 0 0 0 .141.367c.027.024.056.045.086.065-.001 0 .062.044.04.026.015.012.029.033.034.046.008.021.017.037.005.006.008.019.014.038.019.058.006.025.012.05.017.076.006.099.006.189 0 .279-.013.179-.045.374-.028.558-1.068 2.782-1.752 5.696-2.038 8.663-.023.02-.046.04-.066.069-.443.634-.049 1.409.479 1.84s1.119.808 1.694 1.181c.018-.001.035-.002.055.002.341.085.614.319.912.492.348.202.7.4 1.064.574.292.139.623.231.858.466.011.011.016.025.026.037l.206.083c.315.118.62.215.948.227.175.203.391.37.634.507.395.222.848.326 1.23.57.205.13.452-.005.523-.213a6.91 6.91 0 0 1 .205-.523c.102-.008.197-.054.245-.167.111-.257.241-.505.396-.738.132-.201.292-.376.441-.563.011-.011.017-.018.023-.024.023-.032.039-.05.053-.069-.006-.011-.002-.026.003-.04l.299.228 2.39 1.691c1.504 1.058 2.998 2.142 4.611 3.031.442.243.891.473 1.351.681l.286.126c.015.011.022.024.039.033.853.475 1.736.893 2.643 1.252l1.679.795c.072.037.154.048.234.033s.151-.057.205-.119c.181.092.377.161.499.22.744.358 1.494.713 2.265 1.01.422.163.851.329 1.292.43a1.41 1.41 0 0 0 .571.024c.041-.008.076-.021.109-.035.197.066.41.104.585.153a33.79 33.79 0 0 0 1.223.322 34.21 34.21 0 0 0 2.435.498c1.623.271 3.265.436 4.911.464.465.008.93.007 1.395-.016.118-.006.478-.016.706-.11.043.021.091.033.146.033.182 0 .369-.163.356-.355-.028-.4-.018-.964-.556-.962-.486.002-.979.088-1.467.105-.928.033-1.854-.006-2.776-.105a1.27 1.27 0 0 0-.214-.076c-.193-.049-.389-.088-.583-.132l-1.11-.259c-.736-.179-1.469-.372-2.198-.577a64.42 64.42 0 0 1-4.328-1.386c-.969-.349-1.924-.733-2.873-1.13-.279-.037-.558-.077-.827-.164a10.71 10.71 0 0 1-1.077-.426c-.354-.158-.703-.334-1.034-.538-.198-.123-.4-.244-.56-.411-.297-.009-.557-.198-.768-.421l-.409-.207-.036-.111.375.242a3.7 3.7 0 0 1-.187-.231c-.321-.431-.544-.901-.682-1.419-.158-.592-.232-1.205-.317-1.811-.096-.682-.155-1.371-.194-2.058-.081-1.415-.061-2.839.106-4.248.143-1.202.335-2.496.926-3.571.241-.438.562-.824.926-1.166a8.5 8.5 0 0 1 .609-.512 4.76 4.76 0 0 1 .38-.27c.059-.036.289-.134.272-.218-.024-.118.056-.191.148-.205l-.175-.459 1.843 3.032 1.417 2.284.761 1.214c.251.4.423.737.88.911.029.011.061.01.091.015.39.618.834 1.2 1.327 1.738a.84.84 0 0 0 .269.36c.047.135.103.24.191.334a.83.83 0 0 0 .483.254c-.032-.825-.062-1.652.106-2.465.021-.101.128-.215.245-.156l.145.072.006-.416c.419.073.908.033 1.303.044l2.776.076c.275.275.759.159 1.001-.139.617.163 1.364.096 1.948.101.842.009 1.684-.022 2.524-.07a47.8 47.8 0 0 0 5.296-.61c1.715-.294 3.414-.686 5.085-1.173.835-.243 1.664-.51 2.484-.801l1.263-.47c.416-.161.875-.3 1.243-.557.144-.1.233-.225.28-.356.219-.084.433-.185.641-.285.615-.296 1.177-.652 1.725-1.057a.89.89 0 0 0 .234-.26c.722-.526 1.405-1.094 2.057-1.707.139-.086.24-.205.347-.358.18-.256.071-.644-.163-.819h.002zm-113.41-72.853a.55.55 0 0 0 0-.089l-.086-.813c.038-.023.073-.05.105-.08l.09.781c.002.024.004.149.01.265a.54.54 0 0 0-.118-.064zm-3.022-4.388a11.26 11.26 0 0 1-.085.655.66.66 0 0 0-.206.241 11.94 11.94 0 0 0 .291-.896zm-.361 1.162c-.006.117-.004.233-.003.35-.006.024-.009.048-.014.073-.094.033-.18.082-.256.146.108-.235.206-.474.298-.715a.69.69 0 0 0-.024.146h0zm18.996-7.473c-.831-1.432-1.332-3.059-1.479-4.707-.024-.265-.157-.46-.343-.561.257-.156.489-.353.678-.597.043-.055.081-.115.112-.178l.1-.075c.456-.343.84-.696.892-1.299.088-1.011-.494-2.14-.962-2.999-.831-1.527-1.777-3.003-2.718-4.475-.207-.818-.626-1.593-1.16-2.232-.509-.608-1.188-1.017-1.785-1.528-.655-.561-1.267-1.186-1.854-1.818-.245-.263-.577-.225-.804-.045a17.78 17.78 0 0 0-.608-.717c-.52-.573-1.129-1.251-1.835-1.59-.124-.059-.265-.048-.379.009.521.476 1.084.911 1.612 1.37.808.702 1.531 1.459 2.182 2.307 1.078 1.406 2.041 2.919 2.796 4.523.742 1.575 1.347 3.338 1.245 5.103-.044.765-.243 1.519-.628 2.184-.363.629-.968 1.065-1.596 1.404-.348.188-.711.347-1.086.474.726.319 1.416.609 2.001 1.196.658.661 1.05 1.504 1.178 2.425.145 1.051.011 2.127.006 3.182-.002.536.017 1.084.129 1.61.106.498.263 1.14.641 1.499.029.027.063.046.097.065.169-.181.35-.351.541-.508.08-.08.162-.157.244-.235-.025-.125-.056-.249-.09-.373.123-.13.24-.265.357-.402.15.01.309-.043.449-.191l1.972-2.072c.191-.2.237-.509.097-.751v.001zm-16.184-9.628c-.038-.067-.084-.128-.137-.184l-.174-.178-.048-.045a.66.66 0 0 0-.16-.16l-.036-.026-.13-.123-.48-.532-.36-.469c-.093-.122-.181-.216-.335-.258-.042-.011-.085-.016-.128-.017l-.188-.218c.02.025-.081-.108-.105-.14l-.153-.213-.319-.457c-.408-.582-.842-1.128-1.407-1.559l-.008-.01c-.043-.029-.079-.064-.122-.094-.082-.057-.181-.075-.283-.075-.174-.407-.447-.791-.742-1.097-.178-.184-.417-.192-.609-.092l-.191-.383c-.27-.524-.566-1.04-.905-1.523l-.558-.746c-.197-.246-.381-.534-.699-.619-.227-.061-.489.115-.477.363.015.305.196.505.361.749l.467.719.79 1.404a11.5 11.5 0 0 1 .628 1.469l.138.473c.294.553.519 1.129.704 1.72.153-.025.298-.109.382-.267.036.021.067.048.107.065a.93.93 0 0 0 .401.067c.084-.004.17-.021.254-.035l.049-.007.044-.005c-.001.003.004.006.021.011s.079.03.089.032a.8.8 0 0 1 .195.132c.316.302.5.617.615 1.033s.57.53.897.389a1.22 1.22 0 0 0 .388.246c.12.155.254.3.392.438.023.023.048.044.073.065.011-.001.022-.004.035-.003.204.022.404.063.603.112l.577.038c.056.006.109.019.162.029.133.001.267.011.399.027l-.02-.045v-.001zm16.372 20.172a.65.65 0 0 0-.19-.208c-.003.024-.011.047-.025.067-.048.07-.106.119-.171.174-.011.009-.022.013-.033.019-.206.188-.406.347-.722.334-.026-.001-.05-.008-.073-.02s-.041-.031-.055-.052c-.033-.014-.066-.031-.096-.05-.239-.037-.45-.144-.582-.364-.008-.015-.006-.031-.009-.047-.025-.011-.049-.025-.068-.05-.149-.195-.262-.409-.371-.628-.035-.07-.014-.14.031-.191l-.17-.071a2.23 2.23 0 0 1-.704-.271c-.038.014-.081.019-.121.008-.439-.118-.854-.334-1.216-.609-.016-.012-.021-.028-.032-.042-.091-.006-.182-.016-.271-.04-.016-.004-.026-.012-.039-.019l-.019.177.023.056c.067.032.107.107.107.182-.001.144-.016.288-.045.43l-.004.117.093.015c.003 0 .125.014.128.012l.129.024a2.79 2.79 0 0 1 .324.083l.128.046c.014.009.112.055.114.055a3.61 3.61 0 0 1 .287.173l.048.034.128.112a2.15 2.15 0 0 1 .209.228c.014.023.077.115.074.11l.103.169c.306.507.683.878 1.249 1.076.534.188 1.092.112 1.598-.108.337-.146.414-.64.244-.931h-.001z"/></g></g><defs><radialGradient id="A" cx="0" cy="0" r="1" gradientUnits="userSpaceOnUse" gradientTransform="translate(75.0713 25.3809) rotate(-0.55313) scale(6.59018 4.52278)"><stop stop-color="#d4a2a1"/><stop offset=".132" stop-color="#d4a3a2" stop-opacity=".98"/><stop offset=".27" stop-color="#d7a9a8" stop-opacity=".922"/><stop offset=".409" stop-color="#dbb2b1" stop-opacity=".824"/><stop offset=".551" stop-color="#e1bfbe" stop-opacity=".686"/><stop offset=".693" stop-color="#e9cfcf" stop-opacity=".51"/><stop offset=".836" stop-color="#f2e3e3" stop-opacity=".293"/><stop offset=".978" stop-color="#fdfbfb" stop-opacity=".042"/><stop offset="1" stop-color="#fff" stop-opacity="0"/></radialGradient><radialGradient id="B" cx="0" cy="0" r="1" gradientUnits="userSpaceOnUse" gradientTransform="translate(29.2863 133.872) rotate(15.607) scale(0.261938 0.109449)"><stop stop-color="#d4a2a1"/><stop offset=".132" stop-color="#d4a3a2" stop-opacity=".98"/><stop offset=".27" stop-color="#d7a9a8" stop-opacity=".922"/><stop offset=".409" stop-color="#dbb2b1" stop-opacity=".824"/><stop offset=".551" stop-color="#e1bfbe" stop-opacity=".686"/><stop offset=".693" stop-color="#e9cfcf" stop-opacity=".51"/><stop offset=".836" stop-color="#f2e3e3" stop-opacity=".293"/><stop offset=".978" stop-color="#fdfbfb" stop-opacity=".042"/><stop offset="1" stop-color="#fff" stop-opacity="0"/></radialGradient><radialGradient id="C" cx="0" cy="0" r="1" gradientUnits="userSpaceOnUse" gradientTransform="translate(88.0231 119.704) rotate(15.6097) scale(0.261939 0.109448)"><stop stop-color="#d4a2a1"/><stop offset=".132" stop-color="#d4a3a2" stop-opacity=".98"/><stop offset=".27" stop-color="#d7a9a8" stop-opacity=".922"/><stop offset=".409" stop-color="#dbb2b1" stop-opacity=".824"/><stop offset=".551" stop-color="#e1bfbe" stop-opacity=".686"/><stop offset=".693" stop-color="#e9cfcf" stop-opacity=".51"/><stop offset=".836" stop-color="#f2e3e3" stop-opacity=".293"/><stop offset=".978" stop-color="#fdfbfb" stop-opacity=".042"/><stop offset="1" stop-color="#fff" stop-opacity="0"/></radialGradient><clipPath id="D"><path fill="#fff" d="M0 0h195v220H0z"/></clipPath></defs></svg>