<svg width="357" height="345" viewBox="0 0 357 345" fill="none" xmlns="http://www.w3.org/2000/svg">
<g clip-path="url(#clip0_2433_1152)">
<path d="M24.5 276.578V227.078C24.5 227.078 36.7628 199.765 51.5 189.078C62.2733 181.265 83 176.078 83 176.078L109 173.078L115 166.078L122.5 156.078L261 287.578L256.5 325.078L264 346.078L257.5 380.078H286.5L274.5 357.078L277.5 350.078L261 287.578L122.5 156.078L107.5 111.078V88.5778L98 78.5778L90.5 59.0778L104 37.5778L101.5 32.5778L108.5 12.0778L132 5.07778C132 5.07778 167.9 -4.86674 188.5 3.07778C204.69 9.32158 214.261 16.0873 223 31.0778C231.023 44.8401 231 71.0778 231 71.0778L218.5 102L201.5 117.078L195 151.078L215.5 163.078L223 169.578C223 169.578 261.557 166.003 281.5 177.578C296.192 186.105 311.5 209.078 311.5 209.078L336 303.078L356.5 424.078H255.5H73.5L77.5 393.578L82.5 380.578L79.5 373.578L39.5 393.578L8.5 376.578L0 341.578L24.5 276.578Z" fill="#070D1C"/>
</g>
<defs>
<clipPath id="clip0_2433_1152">
<rect width="357" height="345" fill="white"/>
</clipPath>
</defs>
</svg>
