<?xml version="1.0" encoding="UTF-8"?>
<svg id="Ebene_1" data-name="Ebene 1" xmlns="http://www.w3.org/2000/svg" xmlns:xlink="http://www.w3.org/1999/xlink" viewBox="0 0 298 264">
  <defs>
    <style>
      .cls-1 {
        fill: none;
      }

      .cls-2 {
        clip-path: url(#clippath);
      }

      .cls-3 {
        mask: url(#mask);
      }

      .cls-4 {
        fill: #f2f0e7;
      }

      .cls-5 {
        fill: #fff;
      }

      .cls-6 {
        fill: #f2d6ca;
      }

      .cls-7 {
        fill: #f2c0c7;
      }

      .cls-8 {
        fill: #d9884c;
      }

      .cls-9 {
        fill: #111119;
      }

      .cls-10 {
        fill: #1d1d1b;
      }

      .cls-11 {
        fill: #3da5dd;
      }

      .cls-12 {
        fill: #88889a;
      }

      .cls-13 {
        fill: #585577;
      }

      .cls-14 {
        opacity: .25;
      }

      .cls-15 {
        fill: url(#Unbenannter_Verlauf_2);
      }

      .cls-15, .cls-16 {
        isolation: isolate;
        opacity: .29;
      }

      .cls-16 {
        fill: url(#Unbenannter_Verlauf);
      }
    </style>
    <clipPath id="clippath">
      <rect class="cls-1" y="0" width="298" height="263.61"/>
    </clipPath>
    <mask id="mask" x="-133.71" y="0" width="460.37" height="976.14" maskUnits="userSpaceOnUse">
      <g id="A">
        <path class="cls-5" d="m326.66,0H-133.71v976.14h460.37V0Z"/>
      </g>
    </mask>
    <radialGradient id="Unbenannter_Verlauf" data-name="Unbenannter Verlauf" cx="-141.87" cy="535.05" fx="-141.87" fy="535.05" r=".99" gradientTransform="translate(3557.25 8778.42) rotate(-.55) scale(23.7 -16.27)" gradientUnits="userSpaceOnUse">
      <stop offset="0" stop-color="#d4a2a1"/>
      <stop offset=".13" stop-color="#d4a3a2" stop-opacity=".98"/>
      <stop offset=".27" stop-color="#d7a9a8" stop-opacity=".92"/>
      <stop offset=".41" stop-color="#dbb2b1" stop-opacity=".82"/>
      <stop offset=".55" stop-color="#e1bfbe" stop-opacity=".69"/>
      <stop offset=".69" stop-color="#e9cfcf" stop-opacity=".51"/>
      <stop offset=".84" stop-color="#f2e3e3" stop-opacity=".29"/>
      <stop offset=".98" stop-color="#fdfbfb" stop-opacity=".04"/>
      <stop offset="1" stop-color="#fff" stop-opacity="0"/>
    </radialGradient>
    <radialGradient id="Unbenannter_Verlauf_2" data-name="Unbenannter Verlauf 2" cx="-141.87" cy="535.05" fx="-141.87" fy="535.05" r=".99" gradientTransform="translate(3605.29 8778.42) rotate(-.55) scale(23.7 -16.27)" gradientUnits="userSpaceOnUse">
      <stop offset="0" stop-color="#d4a2a1"/>
      <stop offset=".13" stop-color="#d4a3a2" stop-opacity=".98"/>
      <stop offset=".27" stop-color="#d7a9a8" stop-opacity=".92"/>
      <stop offset=".41" stop-color="#dbb2b1" stop-opacity=".82"/>
      <stop offset=".55" stop-color="#e1bfbe" stop-opacity=".69"/>
      <stop offset=".69" stop-color="#e9cfcf" stop-opacity=".51"/>
      <stop offset=".84" stop-color="#f2e3e3" stop-opacity=".29"/>
      <stop offset=".98" stop-color="#fdfbfb" stop-opacity=".04"/>
      <stop offset="1" stop-color="#fff" stop-opacity="0"/>
    </radialGradient>
  </defs>
  <g class="cls-2">
    <g class="cls-3">
      <g>
        <path class="cls-4" d="m180.64,160.72c-.14-2.74,1.07-8.17-2.88-8.41-2.06-1.88-4.66-2.86-7.22-3.79-2.53-4.76-9.01-2.27-5.44,2.66-.68,1.83-.26,3.88-1.06,5.74-1.16,1.63-2.06,3.41-2.72,5.32-1.34,2-3.91,5.24-5.12,7.29-1.61,2.16-7.51,4.25-5.25,7.48-4.49.99-9.36,1.69-12.74,5.12-.24-.2-.51-.36-.8-.48.83-1.65.25-3.59-1.52-4.13-.67-1.84-3.54-2.64-4.7-.61-1.06-.96-2.78-1.18-3.71.1-.9-1.01-2.43-1.17-3.52-.35-.78-1.09-2.11-1.8-3.55-1.91.12-.94-.31-1.87-1.12-2.38,1.14-2.26-1.33-4.38-3.37-3.41-.29-.43-.71-.78-1.17-1.01-.13-.55-.48-1.03-.95-1.37-.13-.81-.61-1.54-1.26-1.96-.18-1.06-.88-1.94-1.88-2.23-.25-.86-.95-1.52-1.82-1.79-.21-.58-.62-1.1-1.13-1.47-.04-1.31-1.02-2.52-2.31-2.66,1.08-1.69-.09-3.65-1.83-3.98l.73-.45c3.14,1.62,5.32-3.11,2.34-5.28-4.85-2.75-13.85,7.61-17.39,10.88-1.59,1.79-.38,4.03,1.37,4.45,0,.63.27,1.23.72,1.7-.74.95-.69,2.02-.22,2.88l-2.54,2.53c-1.99,1.98.13,4.81,2.32,4.5.54.95,1.62,1.58,2.73,1.38-2.5,1.89-.32,5.18,2.27,4.59.07.13.16.25.25.37l-1.96,2.23c-2.43,2.97,1.94,6.22,4.2,3.2.1,2.19,3.24,3.7,4.67,1.51.56.41,1.25.62,1.89.51l-2.54,4.77c-1.58,3.17,3.28,5.46,4.58,2.15,1.37.59,3.59-.1,3.79-1.8l.93-.67c.38,2.26,3.24,2.77,4.7,1.24,1.35,1.16,3.33.65,4.14-.86.62.39,1.45.46,2.13.22.64.37,1.47.42,2.19.19.85,1.19,2.8,1.09,3.78.12.83.38,1.85.38,2.7-.17.84.21,1.79.06,2.52-.6,1.89,2.04,4.67.96,6.36-.75.97,2.11,3.92.68,5.5.11,1.18,2.68,4.11,1.48,6.08.52,2.14,1.6,5.34-.52,7.47-1.45,1.93.8,5.42-.3,4.56-2.8.76-.06,1.37-.55,1.84-1.12.68.12,1.39-.03,1.9-.51,8.64,9.42,17.08-20.79,13.04-25.34h-.01Zm56.8,304.94c-2.09-4.81-9.42-1.26-4.72,2.61-.47.93-1.11,1.76-1.75,2.57l.16-.21-.36.47c-.17.07-.34.13-.49.23-2.41-1.21-5.66.58-6.84,2.8-3.1.54-6.4,1.22-8.91,3.2-4.02.25-9.18.01-13.15-.28-2.88-1.8-7.14-1.02-10.47-1.05-.85-.54-1.96-.68-2.8-.11-1.16-.6-2.82-.41-3.67.89-.87-.6-2.1-.66-3.03,0-.7-.13-1.42-.03-1.97.4-1.16-.92-2.91-.88-3.81.79-.32-.1-.65-.14-.99-.13-.95-.98-2.51-1.33-3.55-.34-.94-1.02-2.75-1.05-3.84-.05-1.41-.58-3.14.27-3.73,1.65-.8-.36-1.78-.34-2.57.12-1.07-.5-2.48-.36-3.26.52-.89-1.12-2.55-1.64-3.66-.75-.59-.32-1.29-.44-1.95-.28-1.42-1.66-3.81-.43-4.89,1.28-1.48-1.93-4.18-.6-4.89,1.33-1.07-.58-2.39-.32-3.24.58-1.27-.71-3.08-.4-3.85,1.35-1.2-1.05-3.18-1.06-4.04.63-.93,0-1.87.54-2.44,1.31-1.17-.86-3.15-.38-3.8.96-.8,0-1.6.31-2.1.94-.08-.04-.14-.09-.22-.11-2.34-2.55-6.2-1.49-8.91-.15-.68-1.29-2.33-1.65-3.67-1.36-.66-.65-1.58-.96-2.5-.83-1.38-.95-2.92-.63-4.06.13-.27-1.25-1.3-2.01-2.26-2.07-1.03-1.13-3.09-1.31-4.18.05-.52-1.41-2.36-2.38-3.86-1.3-.79-1.16-2.03-1.46-3.12-1.05.07-1.63-.61-3.53-2.46-3.72-.43-2.52-3.95-2.75-5.01-.44-.33-.37-.75-.64-1.2-.82-.22-1.88-2.41-2.84-3.91-2.25-.61-.69-1.63-.98-2.58-.85-.52-.62-1.3-1-2.1-1.06-.69-.64-1.72-.84-2.65-.61-.62-2-3.12-2.69-4.59-1.11-.53-1.77-2.89-2.43-4.29-1.55-.9-1.34-2.69-2.08-4.1-.97-1.45-1.67-4.4-1.79-5.32.54-1.12-1.26-2.57-1.94-4.29-.89-1.01-1.71-3.73-2.54-4.72-.26-9.21-2.25-.41,12.35,3.82,13.44.86.9,2.28,3.16,3.69,2.85,2.35,1.2,5.26,3.46,8.02,2.54.02,2.31,2.69,4.64,4.72,2.69,8.78,5.2,21.45,10.24,31.62,11.51,5.39.05,10.52.45,15.89,1.19,1.21,1.71,3.5,1.91,5.4,2.23-4.58,3.33-8.3,13.61.43,6.46,5.19-2.15,10.73-3.84,16.6-4.06,1.6,2.35,7.42-1.79,10.61-1.27,5.5,1.32,12.72-.67,18.21-1.49,9.16.49,18.42-4.28,27.32-6.59,5.27-1.67,10.6-3.18,15.9-4.75,4.05.36,8.9-.41,12.53-2.27,3.21-1.28,6.81-2.61,9.29-5.11.32-.13.58-.39.85-.6h0c2.96-2.26,4.87-5.57,6.5-8.92,2.5-2.02,5.06-5.35,3.2-8.6h0Z"/>
        <path class="cls-13" d="m84.01,165.12l-5.54,2.88c-5.75.54-20.09,3.07-25.36,1.89-.68-.21-18.72,8.86-21.49,10.16,0,0-9.17,7.91-9.17,7.91.09-.27-10.79,14.3-10.79,14.3l-6.11,15.82c-4.16,17.19,2.09,44.05-6.02,60.81-2.29,6.71-8.04,21.15-11.15,27.49-1.73,6.74-9.05,15.07-5.13,23.38,4.11,8.74,5.1,14.84,5.4,21.85,0,0-.63,4.9,6.3,6.38s16,10.94,16.37,10.52c6.59,1.62,18.56,2.91,23.83-5.4l2.97.73,4.91-1.08s.31,2.61,5.25-2.7,8.6-8.67,8.6-8.67c-.93,1.05-1.12,8.71,1.93,9.12-2.35,15.07,11.01,12.5-1.93,31.57-1.11,3.62-1.66,11.55-1.77,15.6-2.57,10.8-21.91,33.52-4.65,40.9,0,0-.42.87,6.07,0,6.49-.88,13.14,1.01,13.14,1.01,12.57,4.18,29.34,11.87,42.3,14.66,26.22,4.84,50.21-3.82,75.18-8.95,13.05-1.02,30.08.7,42.49-3.99-.2,0,1.11,1.11,4.35-5.82s2.39-11.18,2.32-11.37-2.94-11.03-2.71-11.27c-4.71-10.41-6.53-8.42-6.11-21.03l-7-19.28c.47-7.02,1.84-27.76,2.04-34.46,7.55-21.8,4.66-18.96-1.84-39.25l3.46-14.15c.01-6.07.63-17.87,2.02-23.79,0,0,6.75,15.03,6.75,15.03.6,12.13,5.68,36.56,8.73,48.42,0,0-.8,6.02-.8,6.02-.08.23,3.43,10.07,3.43,10.07l7.9,12.67-2.36,1.65-.32,3.1,3.56,3.63c1.76,25.72,19.75,45.26,15.46,73.21.36,4.17-.48,10.89,2.81,14.25-5.23,5.32-4.73,16.84,1.7,20.97,7.53-2.27,37.04-8.12,42-.55,1.98-19.68-2.18-42.95-1.63-62.71.27-22.76-.96-50.97-8.71-72.63,0,0,2.02-3.06,2.02-3.06.53-2.71-2.23-11.75-2.98-14.47-12.58-46.75-14.46-102.57-42.88-143.45,0,0-10.67-9.34-10.67-9.34-6.04-3.03-23.94-9.26-29.46-11.11-10.15-2.2-23.61-.36-33.81-.88,0,0,.68,9.74.33,10.3-.35.56-7.02,14.9-7.4,15.03s-8.16,7.84-8.41,7.93c-27.32,16.11-91.58,12.99-87.38-29.87h0Z"/>
        <path class="cls-12" d="m272.55,484.35s3.04,13.49,3.04,13.49c0,0-.05,4.66,4.29,4.19l17.97-2c3.14-.77,16.11,1.42,16.85-3.4,0-2.51.83-16.7.83-16.7,0,0-.02-2.92-6.02-3.82s-17.12,0-17.12,0c-3.98.45-14.54,1.66-18.1,3.41,0,0-3.13.28-1.73,4.84Zm-85.69-322.63c2.59,11.79-4.29,27.26-17.29,34.4-20.08,10.64-51.59,9.96-70.87-.08-4.21-3.13-11.69-10.64-12.77-14.87-1.72-10.09-5.99-16.36,3.39-20.98-.16.23,1.96,13.39,4.46,17.06,7.35,9.34,4.25,8.36,13.42,14.47l3.21-4.44c3.31,4.54,34.15,3.5,36,3.95,7.3-2.56,16.2-2.06,23.41-8.19l3.64,1.96c2.89-.83,8.05-18.38,8.14-18.86-.31-.12.15-8.63.15-8.63l5.11,4.19h0s0,0,0,0ZM44.97,444.02c-.07.3,5.08,4.28,5.08,4.28,0,0-2.13,1.03,7.82.07,9.95-.96,26.15,6.24,26.15,6.24,0,0,20.11,7.96,20.11,7.96,38.12,10.4,63.72-7.39,95.94-7.82,5.6-.29,24.11-.83,29.16-3.16,0,0,2.07-.77,4.19-5.21s2.76-3.64,2.76-3.64c.52,3.71,2.89,18.8,2.82,22.28,0,0,.16.06.21.23.15.52-.67,2.08-9.63,6.25-11.94,5.56-14.41,6.31-14.41,6.31l-15.44-.82c-21.67-.65-52.2,4.74-73.22,10.06,0,0-15.44,0-15.44,0l-15.58-3.75c-15.83-5.92-40.49-20.75-58.72-13.19-6.26.61,5.32-10.56,3.93-10.3.87-3.82,3.24-12.31,4.29-15.78h0s0,0,0,0Zm42.1-171.54c-7.36,4.41-6.3,38.47,5.38,40.15,0,.24,4.91,3.97,7.99,2.53s7.04-4.6,7.04-4.6l5.23-1.89c0,.08,2.89-.47-3.58-6.09-8.92-11.18-6.73-21.33-7.26-28.87l9.55-2.38c2.28-13.02-25.21,1.36-24.34,1.15h0Z"/>
        <path class="cls-6" d="m193.45,338.33c-5.04-7.31-8.36-16.52-16.97-20.54-1.04-1.31-2.58-2.51-4.09-3.1-2.27-2.9-4.84-5.75-7.1-8.47.79.62,1.9.76,2.91.24,5.32-3.29,12.27,5.5,16.28-1.21,2.23-2.48-1.04-5.08-3.53-3.54-7.36-.08-11.72-6.25-17.92-9.08-1.38-1-2.58-3.14-4.56-2.04-7.66-24.72-14.32-32.27-39.93-21.46-2.73.2-18.06,2.25-16.16,6.1-1.33,6.79-.19,14.6,3.69,20.43-1.13,8.26,7.55.62,10.19-1.49,4.84,9.33,13.14,16.8,19.33,25.41-.04.88.44,1.72,1.26,2.11,1.4,2.8.49,6.51,2.91,8.85-.95.9-1.42,2.3-1.5,3.63-2.15,2.35-.76,11.12,3.43,7.64.85-3.84,9.21-9.13,5.53-12.19l-.3-1.83c.09,0,.17-.05.25-.06,1.27,1.64,3.9,2.59,5.64,3.69-1.63,4.45-1.14,9.28,2.01,12.94-2.06,1.89-3.21,4.79-2.98,7.6-1.52,2.83,2.82,5.2,4.19,2.21-.29.23.07-.37.14-.48-.01.14-.05.28-.1.41.93-2.03,2.29-3.81,3.72-5.49l-.12.09s.11-.08.16-.13l-.08.07c.92-.55,1.32-1.69.99-2.73.39-4.93.57-9.8,1.78-14.63.78,1.44,2.32,2.3,3.84,2.7-.38,4.61,2.17,8.92,4.89,12.67-2.72,4-3.75,10.77-1.17,15.08.88,2.63,5,1.02,3.87-1.5,1.49-2.8,2.7-5.88,5.12-8.16,3.35-5.06-3.04-12.24-1.9-18.72.81,1.67,2.85,2.33,4.57,2.6-.48,3.29,2.31,6.58,5.19,7.91-4.48,9.47,4.89,18.4,5.18,9.25.8-1.81.69-4.18,1.17-6.16.37-2.66,3.77-7.09.18-8.62h0s0,0,0,0Zm-16.54-6.61c-.27-1.64-1.37-4.07-3.34-3.57-.3-.37-.6-.73-.91-1.09l3.26,1.68c.31.75.84,1.34,1.27,2.02-.14.3-.24.61-.29.96h0Zm147.28,197.77c-.98-6.4-3.68-35.09-13.96-29.31-40.5-.4-36.68,3.47-35.43,40.81-.76,10.66-.73,21.62-2.37,32.29-1.63,4.84,1.48,11.98,7.32,8.75,6.09-5.95,5.65-30.65,9.41-40.66.09.02.17.04.26.05-.02,4.86,4.67,9.04,6.39,13.62.22,3.27,1.52,6.15,1.9,9.3-4.75,1.5-7.12,6.85-9.43,10.87-2.82,6.11-9.47,8.51-13.46,13.53-2.6,2.65-2.55,12.44,2.75,9.35,6.3-7.78,13.15-15.22,20.48-21.88,1.5,11.66-4.9,22.96-2.06,34.25,2.14,4.82,8.54,10.89,9.97,2.07,0,.3,0,.6,0,.9-1.36,1.79.83,4.21,2.99,3.86,3.11,2.93,5.14-1.48,3.95-4.26.74-16.02,5.78-31.98,5.7-48.16,3.07-11.5,5.99-23.47,5.59-35.37h0ZM86.84,76.32c.74,16.8,3.46,51.73,14.89,64.55,2.87,2.54,1.71,5.47,1.71,5.47-.42,10.86,9.54,27.75,22.64,29.8,7.11,1.21,10.75,5.44,10.75,5.44l14.51-8.51,10.65-13.49c.59-2.45,2.85-10.08,1.89-12.55,4.66-5.54,7.73-6.29,10.83-15.88,3.23-18.56,5.79-37.93,8.54-53.9l-16.71-20.62-31.91-5.48-37.51,1.22s-10.27,23.95-10.28,23.95h0Z"/>
        <path class="cls-5" d="m105.88,84.32c-7.39,5.84,6.78,11.48,9.2,10.1,0,0,4.96-1.38,4.96-1.38,2.16-.78,3.77-8.84.7-9.97-.12.04-9.46-1.26-9.58-1.11s-5.28,2.36-5.28,2.36Zm41.42,1c-3.16,4.41,6.76,10.44,11.87,8.85,4.56-1.21,6-3.5,5.91-3.54,6.16-8.84-5.82-9.24-10.5-8.89,0,0-6.76,1.93-6.76,1.93l-.52,1.66h0Z"/>
        <path class="cls-11" d="m118.85,85.78c-.05-6.47-9.82-3.89-8.85,1.64.79,4.92,10.1,3.54,8.85-1.64Zm43.42-.24c-.35-7.43-12.81-4.23-9.49,2.52,2.4,4.25,8.95,1.76,9.49-2.52Z"/>
        <path class="cls-7" d="m146.99,136.23c-.55-1.79-2.57-2.38-4.16-1.46-3.91.13-7.94,1.5-11.91.01-1.28-1.26-3.39-.52-4.13,1.01-2.66,6.68,21.57,7.04,20.19.44Z"/>
        <path class="cls-8" d="m199.52,71.39s-.04-.01-.06-.02l.11.05s-.05-.03-.05-.02Z"/>
        <path class="cls-8" d="m201.86,72.47c-.59-.78-1.81-.68-2.63-1.19-3.74-10.3-5.56-27.96-8.05-39.17,0,0-4.77-8.37-4.77-8.37,0,0-5.84-6.52-5.75-6.22s-9.93-7.81-9.93-7.81l-14.8-5.4s-13.54-.44-13.13-.64-19.6-1.46-19.6-1.46c0,0-12.56,2.63-12.85,2.92s-8.96,5.16-8.96,5.16c-1.96,2.23-5.5,5.83-7.49,8.47-.32-.68-.33-1.43-.2-2.15l-.04.28c-.69-4.54-4.57.98-.91,3.81-.6.89-1.03,1.57-1,1.66l-1.15-1.27-2.5.07-6.69,4.1-6.81,9.25-4.67,11.47c.19.37-.98,18.75-.25,18.92-.52,1.66-.26,3.57-1.21,5.11-.89,1.91,1.9,2.75,2.64.94-.03,1.59-.94,2.99-.63,4.61.33,2.42,3.95,3.13,4.73.63,2.21,4.43,5.59,11.75,5.24,16.46.22,1.66-2.1,3.96-.32,5.08.94.4,1.62-.49,1.9-1.28l-.62,4.58.63.37c-.2,1.92,1.96,6.81,4.07,4.21.35,4.95,5.83,6.17,3.29-.02.78.51-2.73-19.23-2.57-19.13,0,0,5.5-9.21,5.69-9.21s2.87-17.33,2.87-17.33l3.97-4.49c4.33-.62,11,2.41,15.12,2.73,0,0,12.89.52,12.89.52l20.05-3.14c1.75,2.65,6.07,3.22,8.91,2.44-.1.23,6.19,1.97,6.42,2.07l7.75,5.47,10.7,14.33c-.08,5.63-1.57,20.13-2.48,25.82-.57,6.16,5.56,5.4,5.01-.33l.27-.04.06-4.9c5.6,2.22,2.36-11.94,6.45-14.5l5.62,1.26-2.24-3.51-.53-3.17c2.16,1.4,5.08,1.53,7.54.93-1.26-1.27-6.62-7.38-7.54-9.21l5.11,1.46.09-.32c1.04,1,4.11,1.29,3.29-.9h0s0,0,0,0Z"/>
        <path class="cls-16" d="m110.82,120.07c31.18-.72,30.87-32.44-.32-32.56-31.18.72-30.87,32.44.32,32.56Z"/>
        <path class="cls-15" d="m158.86,120.07c31.18-.72,30.87-32.44-.32-32.56-31.18.72-30.87,32.44.32,32.56Z"/>
        <path class="cls-10" d="m135.75,180.17c-6.28-7.22-18.26-6.41-22.93,2.2-.69,1.3-8.18,10.1-5.3,9.71,8.52-9.5,13.65-21.27,27.77-11.32.34.11.64-.3.46-.6h0Zm38.27,4.38c-6.26-5.6-15.35-9.87-23.86-9.76,8.24-6.36,18.03-18.11,14.25-29.1-.67-1.01-2.1-.35-1.9.8,2.64,10.58-6.31,21.17-14.13,27.35-3.51,2.6-8.13,3.24-11.15,6.71-2.16,2.46-5.5,6.45-4.6,9.66-4.71-.15-9.44-.3-14.12-.87-1.35.28-7.99-3.13-6.58-.34,17.45,5.9,39.24,4.76,55.91-3.4,1.09-.67.14-2.15-.98-1.67-10.46,5.04-22.14,6.63-33.66,6.29,6.5-15.93,22.36-15.79,35.26-7.44,1.24.25,6.1,4.82,5.56,1.77h0Zm4.14-4.29s.13.09,0,0h0Zm5.69-15.21s.04.03,0,0h0Z"/>
        <path class="cls-10" d="m245.82,171.57c-4.66-4.79-15.13-6.51-21.18-8.94-12.03-4.14-24.78-.9-37.11-1.35-1.14-1.78-3-3.18-4.8-4.21.29-3.62-2.2-5.79-5.33-6.97-1.74-.71-10.26-5.71-10.61-4,3.44,2.15,10.48,5.43,13.46,8.05,4.41,7.91-10.54,38.91-3.21,26.63.47.67,1.3,1.37,2.13,1.46h-.01c2.34-.28-.96-2.04-1.71-2.35.73-1.58,1.49-3.13,2.12-4.75,3.31,2.71,4.76.09.21-.54.6-1.59,1.14-3.21,1.6-4.85,3.3,2.12,4.67-.34.16-.62.42-1.58.77-3.18.97-4.8.32.41.89.42,1.31.69,0,0,0,0-.02-.02.65.71,1.39-.1.77-.75-.53-.44-1.32-.55-1.98-.51.19-1.6.28-3.22.24-4.83,5.9,4.18,3.61,12.11,1.72,17.91-3.91,11.16-13.8,18.62-24.34,23-.56,2.09,4.58-.72,5.56-1.05,13.62-5.91,25.38-21.17,22.2-36.51,7.17,2,14.78-.18,22.1.14,7.98.15,15.66,2.67,23.11,5.32l6.1,2.24c.94.1,7.39,3.81,6.52,1.63h0s0,0,0,0Zm-87.96,28.83c-27.74,6.43-75.02,3.13-73.36-34.88,1.27-1.5,2.88-2.72,4.26-4.14.07,1.45.26,2.89.52,4.32-5.49,2.26-5.56,5.67.21,1.05.31,1.5.7,2.98,1.18,4.43-4.8,2.66-4.25,6.2.38,1,.72,2.02,1.6,3.99,2.61,5.88-5.5,3.56-4.59,6.36.48.86.89,1.57,1.88,3.07,2.96,4.51-.75.46-4.42,4.54-1.51,3.37.64-.79,1.43-1.83,2.05-2.64,1.12,1.44,2.44,2.8,3.77,4.06-.91,1-2.08,2.02-2.7,3.22.42,2.19,2.82-2.03,3.38-2.61,9.17,5.5-13.13-9.88-12.11-32.27,1.49.27,2.78-2.1,3.93-2.85,2.74-2.5,5.73-4.82,8.75-6.97-.73,11.53,8.41,24.55,18.58,27.96-8.83-7.43-17.89-17.09-16.76-29.54.35-.92-1.08-1.79-1.35-.6-4.02,2.64-11.59,7.35-13.59,11.51-1.27.31-.77,2.46-.85,3.53-2.04,1.58-4.65,3.3-5.96,5.56-9.41,4.32-20.37,3.88-30.46,4.12-2.83,4.7,28.41.14,30.56-2.64-2.14,27.92,28.32,39.45,51.77,38.02,7.91-.24,15.97-.98,23.48-3.59.43-.16.26-.75-.19-.68h0Zm-47.64-10.1c-1.84.89-2.84,3.15-3.77,4.91-.81,2.44,1.09,1.51,1.47-.14.39-.79,1.26-2.33,1.73-3.07.16-.41,1.19-1.37.57-1.69Zm6.53,2.14c-.47.76-3,6.92-1.31,6.73,1.02-1.07.97-3.27,1.56-4.62.15-.61,1.13-2.71-.26-2.11Zm7.03,1.15c-.98-.67-1.23,2.79-1.49,3.36.01.73-1.25,4.27.26,3.8.67-.8.52-2.6.8-3.58.08-1,.68-2.62.43-3.59,0,0,0,0,0,0Zm5.69.71c-1.08-.82-1.02,2.83-1.28,3.48.05.78-1.03,3.92.39,3.67.78-.78.55-2.5.77-3.51.06-1.06.35-2.6.12-3.64h0,0Zm6.22.27c-1.09-.92-.94,2.48-1.13,3.07.06.78-.68,4.21.9,3.25.32-1.95.25-4.34.23-6.32h0Zm6.34.23c-1.31-1.23-.96,4.45-1.15,5.09-.14,1.03,1.53,1.12,1.17.02,0,.13.02-.16.02-.13-.02-1.56.31-3.47-.04-4.99h0Zm7.11,3.13c-.15-1.09-.07-2.83-.52-3.83-.33-.48-1.05.04-.75.4-.01,1.68-.05,3.49.17,5.16,1.08,1.43,1.38-.89,1.1-1.73h0Zm6.31.08c-.39-.72-1.07-6.91-2.28-4.44.39,1.27.57,2.93.82,4.24-.02,1.52,2.12,2.07,1.46.19Zm6.2-2.5c-.52-.68-1.91-5.39-2.9-3.56.41,1.2.95,2.54,1.39,3.73.32,1.59,2.63,1.56,1.51-.17h0Zm5.47-2.65c-.58-.5-2.62-4.52-3.26-3.44.26,1.26,1.51,2.8,2.14,3.91.45.83,1.84.48,1.12-.46h0Zm4.76-3.07l-.03-.04c-.43-.75-1.46-1.52-2.02-2.27-.46-.88-1.89-1.22-1.14.13.73.96,1.5,2.14,2.53,2.79.37.32,1.05-.08.66-.61h0Zm3.82-3.23l-.06-.1s.05.14.05.19c-.03-.41-.55-.57-.77-.88-1.68-.18.79,2.35.78.79Zm-51.59-5.38s-.07-.01-.07,0c0,0,.05.01.07,0Z"/>
        <path class="cls-10" d="m126.59,179.3c-.41-1.27-2.51-1-1.29.31.07.1.14.27.16.4,0-.01,0-.02,0-.03.01.1,0,.2,0,.3,0-.01,0-.01.01-.03-.05.36-.27.67-.61.82.01.04-.63.13-.33.11-.79.14-1.68-.47-1.52-1.32-.04.24.1-.36.05-.19.21-.43.62-.69,1.02-.91.51-.55-.95-.64-1.25-.35-4.54,3.85,5.5,6.48,3.75.9h0s0,0,0,0Z"/>
        <path class="cls-10" d="m125.47,180.3h0c-.02.06,0,.07,0,0Zm-.61.78s-.04.01-.05.02c.01,0,.04-.01.05-.02Zm.6-1.06c0,.05.01.07,0,.03,0-.02,0-.02,0-.03Zm-74.92-9.7c-25.98,7.05-47.54,31.94-47.03,59.4,1.69,1.19,1.55-6.55,2.11-7.82,4.53-27.14,23.48-40.98,44.92-51.58h0s0,0,0,0Zm-40.21,122.04c.16-6.25.32-13.18-1.74-19.14-3.91-13.28-3.65-28.01-4.38-41.24-2.24,9.24-.37,18.81-1.46,28.13-1.02,13.03-3.43,26.01-7.42,38.46-5.25,12.69-5.13,19.71,1.27,1.97,4.27-12.25,6.86-25.11,7.47-38.08.69,7.4,3.93,14.2,4.7,21.56.52,4.84.33,9.78,1.07,14.58,1.13-.87.2-4.48.5-6.24h0Zm20.43,73.77c-18.41,8.63-19.34-2.95-33.69-8.74-3.91-.51-7.94-2.14-7.51-6.81-2.43-30.54-14.56-15.94,2.34-50.35,1.91-4.17,6.7-15.38,7.74-19.74.23-1.7,2.22-6.75.85-7.11-1.66,7.41-6.31,18.01-9.63,24.94-3.11,7.21-8.99,17.36-9.92,25.19-.34,4.03,2.86,9.36,4.15,13.07,2.66,6.14,1.16,13.19,3.72,19.2,2.52,3.56,7.49,2.9,11,4.94,4.15,1.88,6.91,5.62,10.58,8.16,4.05,5.23,25.86-.73,20.37-2.73h0s0,0,0,0Zm22.63-37.4c-8.61,9.84-11.96,23.58-19.49,34.17-.3.44-2.32,2.68-1.18,3.1,2.37-.29,3.38-3.95,4.82-5.65,5.4-10.28,9.47-22.54,15.85-31.62h0Zm59.79-20.84c-10.66.86-22.14,14.03-30.73,19.59-10.12,8.04-20.05,16.39-29.06,25.68-4.49,4.9-9.58,10.79-16.91,9.89-.41-.03-.56.58-.21.76,12.45,3.62,20.05-13.29,29.07-19.35,15.4-12.24,29.63-27.85,48-35.38.65-.19.54-1.21-.16-1.19h0Zm-1.86-4.25c-5.28-6.46-8.36-14.79-8.38-23.14-.38-6.26-1.05-11.86,5.89-13.58.85.33,1.78-.8.86-1.38-4.95-2.41-12.55,2.16-17.33,3.45-23.36,9.21-48.76,18.9-69.08,32.58,19.86-9.15,40.84-19.67,61.34-27.35-2.95,5.59-3.2,12.38-3.16,18.59-.38.06-.34.55.03.58-.31,17.69,19.46,25.73,9.15,16.4,4.2-1.49,9.03-3,12.16-6.26-.04-1.74-2.81.39-3.61.77-2.08,1.27-6.99,3.65-9.22,4.77-1.98-2.04-3.44-4.53-4.45-7.17,4.1-1.32,8.25-3.49,12.51-4.28.64-.12,2.5-.51,1.67-1.41-5.01-.53-10,2.83-14.56,4.71-.88-2.59-1.34-5.31-1.5-8.03,2.91-.69,8.31-2.05,11.18-2.61,1.03-.32,5.41-.39,4.16-2.04-5.19-.1-10.47,1.96-15.36,3.64-.06-1.76,0-3.53.14-5.29,16.3-3.71,17.41-7.98.13-1.18.24-2.16.59-4.31,1.04-6.43,2.52-.58,5.58-1.46,8.09-2.16.84-.37,2.69-.39,3.02-1.43-.01-1.57-2.38-.54-3.24-.25-2.16.66-5.38,1.62-7.5,2.38.63-2.29,2.02-4.71,4.49-5.31,3.48-1.19,11.03-4.31,14.53-5.06-7.44,7.67-2.73,31.63,6.23,37.23.48.26,1.1-.28.78-.78h0Zm-49.7-33.89c-2.32-12.18-9.5-24.01-6.02-36.51-8.55,13.92,6.11,30.2,4.54,45.26,2.13,1.33,1.94-7.31,1.48-8.75h0Zm-10.7-65.07c-.69-2.73-2.03-8.25-2.65-10.98-.41-1.62.2-3.22.44-4.76-1.35-.71-1.72,2.93-1.66,3.85-.48,3.88,7.01,28.9,3.87,11.88h0Zm191.91-28.13c-1.96-.8-2.21,18.27-2.77,20.53-.67,7.65-2.31,25.78-3.1,33.23,3.47-16.56,6.46-36.16,5.87-53.76h0Zm-2.49,148.33c-2.09-8.76-4.43-21.94-5.69-30.89.05-8.4-3.61-15.47-7.52-22.51,2.79-8.53,9.96-19.34,7.55-27.66-.08,10.45-7.34,19.06-9.98,28.87-2.29,7.72-.73,15.84-1.84,23.7-3.62,20.78-18.51,37.08-27.16,55.83-.41.83.73,1.5,1.24.73,8.47-13.34,16.75-27.8,23.67-42.03.54,5.94,4.49,10.9,5.56,16.64-.24,27.34-22.03,47.82-35.68,69.6,11.81-12.7,23.87-30.36,31.61-47-1.37,10.55-2.62,21.29-2.7,31.92,2.7,9.91,8.42,16.97,7.21,28.14,5.21,11.78,13.57,25.08,4.7,37.57.46,3.17,3.91-3.22,4.24-4.31-.11,7.74,2.67,15.21,2.71,22.94,2.11,1.52,1.68-4.59,1.51-5.73-.32-3.6-1.51-8.64-2.16-12.24-.81-2.05.47-5.92-1.36-7.05,2.78-9.85-1.31-19.48-6.27-27.81-1.85-2.93-1.43-6.35-1.49-9.64-.08-6.83-3.34-12.81-6.34-18.71-1.81-6.01.36-16.22.3-22.48-.29-2.4,1.63-12.66-.31-12.76,8.84-20.38,6.62-21.92-.59-41.44,5.47-11.21,2.2-23.79,5.03-35.46,7.62,13.6,6.67,29.62,10.43,44.55,1.03,3.97,1.79,9.83,3.49,13.54,2.34.95-.13-5.12-.18-6.33h0,0Zm-46.12,31.12c-2.29,2.17-5.2,6.57-7.32,9-.81,1.71-8.1,9.25-6.79,10.15,5.45-5.06,11.17-12.58,14.11-19.16h0Z"/>
        <path class="cls-10" d="m66.68,401.84c-4.72,1.94-8.48,6.51-11.93,10.13,2.35-6.13,1.12-12.95,3.07-19.17,2.25-5.85,7.96-11.15,5.14-17.88-1.84-4.51-4.95-9.04-3.18-14.06-.8-2.41-3.51-4.06-2.99-7.03.02-.39-.54-.43-.66-.09-1.9,4.31,2.9,5.73,1.52,8.79.45,15.41,9.77,11.64-1.37,29.02-2.57,6.79-.78,14.39-3.76,21.1-4.99,9.57-13.56,19.92-8.78,31.32-.99,8.68-3.93,16.93-9.25,23.9,6.26-2.99,9.79-14.58,10.4-22.01.42,1.96,8.91,5.33,6.31,1.8-14.17-5.49-3.46-24.02,2.26-32.5,2.96-3.26,6.02-6.57,9.42-9.36.69-.91,5.24-3.18,3.81-3.96h0s0,0,0,0Zm73.09-43.88c-5.54,1.52-12.42,7.36-17.17,10.55-2.65,2.15-9.52,7.69-12.11,9.75-.89.96-4.21,2.43-3.84,3.46,7.88-5.06,16.87-12.94,24.77-18.14.75-.9,10.08-5.01,8.34-5.63h0Zm119.65,13.19c6.01-1.59,12.72-2.83,18.16-5.92-5.15.45-13.32,4.57-19.82,4.9-8.78,1.27-10.46-6.69-1.32-8.25,3.69-1.07,7.61-1.11,11.28-2.22-4.12-1.2-11.46.2-16.19,2.15-2.26-6.36-6.77-12.07-8.94-18.47-4.66-15,20.72-21.31,9.57-54.46-2.42-6.33-11.35.61-10.46,4.82.66-3.35,5.48-8.59,8.79-5.65,13.36,45.06-29.42,35.87.63,73.97-4.5,2.19-2.98,8.35,1.48,9.45-.59,11.53,4.15,22.1,8.72,32.39,4.7,11.28,7.15,23.29,6.84,35.53-.15,6.08-1.53,13.11,1.6,18.7.31.55,1.28.18,1.04-.44-3.6-11.18.62-23.29-2.25-34.75-2.37-17.86-14.23-32.97-14.84-51.18,1.91.28,3.86-.17,5.71-.61h0s0,.01,0,.01Zm46.27-39.74c-14.16-45.73-14.45-132.1-57.45-159.34-.49-.24-.86.41-.42.72,35.39,27.52,37.88,79.65,47.49,120.2,1.32,3.56,6.85,43.43,10.39,38.42h0,0Zm1.45,7.67c-.19-4.22-1.6-6.57-1.21-.55-.21,7.53-9.9,11.84-15.72,15,1.67,4.09,19.16-9.56,16.93-14.46h0s0,0,0,0Zm6.45,137.94c-6.16-5.55-32.97-1.46-40.37,2.14-6.12-4.28-7.17-18.91,1.5-20.44,1.32.08,2.6.63,3.89.07.7-.12,2.95-2.73,1.6-2.64-.62.56-1.13,1.31-1.98,1.56-12.33-3.78-15.74,17.87-5.89,22.25-.21.27-.7.6-.58.98-2.18,2.03,6.36,29.12,4.67,17.34-.43-1.92-1.52-7.16-1.93-9.15-1.02-5.39-4.08-9.26,3.74-10.15.43,1.7,1.75,20.38,4.39,16.53-1.46-5.4-.77-11.51-2.7-16.8,1.71-.26,3.53-.52,5.25-.72-.5,24.04,3.95,25.45,1.19-.16,1.82-.21,3.64-.39,5.46-.55-.17,3.75-1.43,16.3,1.4,17.97.82-2.55-.07-6.8,0-9.49-.13-2.23.02-6.38-.3-8.56,1.61-.12,3.23-.22,4.84-.28-1.63,23.81,3.07,23.2,1.56-.05.28,0,4.47-.11,4.62-.09-.74,3.1-.42,7.5-.69,10.7.02,1.15-.77,4.92,1.07,4.59,1.27-1.82.52-5.52.84-7.64.02-.61.32-6.29.06-7.65,1.93-.87,9.24,3.29,8.38.27h0Zm2.5-24.45c-4.42-35.2,3.26-72.09-9.88-106.02-3.38-2.81,2.49,12.83,2.24,14.39,3.26,14.3,4.09,28.95,4.04,43.57-.51,17.41.66,41.99,2.3,59.02.86,3.05-3.26,39.62.59,33.76.38-14.89,2.36-29.89.7-44.74,0,0,0,0,0,0Zm-3.55,46.24c-.74-.32-1.58-.4-2.41-.43,1.34-5.25-.78-10.62.12-15.88-1.63-1.99-2.16,6.29-1.72,7.35.25,2.52.07,6.05.31,8.52-2.17.12-34.34,1.79-30.76,4.29,8.03-.33,18.01-1.83,26.12-2.12,1.34-.39,9.14.25,8.34-1.74h0Zm-171.47-235.01c-9.03-.91-19.09,2.36-27.69,4.91-1.17.71-10.02,1.94-8.6,3.62,5.17.31,12.92-3.17,17.98-4.34,3.26-.84,10.49-3.03,13.81-3.1.93-.31,5.74.51,4.5-1.1Zm-26.2,31.5c-.84-1.57-4.31,2.08-5.21,2.79-.47.37-.89,1.41,0,1.49.96-.11,1.87-1.15,2.65-1.65.88-.73,2.31-1.42,2.56-2.63h0Zm-4.86,625.48c-6.38,21.32-18.95,41.89-39.02,52.69-.68.38-.08,1.33.6,1.02,18.39-8.38,30.82-26.35,37.7-44.8.37-1.59,4.93-11.27.73-8.91Zm-11.96,1.33c-10.73-9.28-25.82-4.96-37.99-3.07,5.72,2.37,12.52-1.97,18.63-1.66,8.07-.1,19.71,2.01,21.95,11.12,1.64-.85-1.27-5.37-2.59-6.39h0s0,0,0,0Zm-42.96-3.51c-1.38-.89-6.49-4.07-7.45-2.58.91.62,2.56.98,3.59,1.38.77,0,4.22,2.44,3.85,1.2h0s0,0,0,0Zm8.2-16.62c-4.22-1.94-10.76-3.57-14.81-2.3,3.54.34,7.49.79,10.98,1.75.85.03,3.84,1.6,3.83.55Zm46.64-26.95c-1.09-18.43-3.13-10.01-1.89,2.03-3.4-3.34-8.21-6.16-13.02-6.23-1.11.3-1.05,2.08.15,2.16,4.98.73,9.31,3.53,12.99,6.81.19.93.11,8.03,1.69,5.78.29-2.63.32-7.92.09-10.56h0s0,0,0,0ZM94.05,13.75c.67-1.1,6.47-9.94,3.66-9.18-1.32,5.15-7,8-7.08,13.55-1.17-8.98-3.19-2.56-.93,1.98-10.49,1.35-15.84,13.35-19.66,22.01-3.06,7.89-1.18,17.19-1.67,25.43.05.63-.93,4.66.07,4.13,3.48-7.8.21-16.69,2.01-24.85,2.31-8.38,10-25.74,20.23-24.82-.1,1.16,1.19,3.48,1.92,1.55.27-3.1-.53-6.95,1.45-9.8h0s0,0,0,0Zm-20.96,53.82c-.02-.75-.98-2.73-1.75-1.79.07.83.56,1.54.64,2.4.25,3.04-.62,6.52-.54,9.53,1.63.59,1.92-8.75,1.65-10.13h0s0,0,0,0Zm6.96,16.81c-3.17-3.83-3.45-8.39-3.77-13.1-2.28-1.67-1.64,5.41-1.44,6.69,2.43,7.64,6.39,10.2,3.5,19.08,3.02,3.69,3.9-11.23,1.72-12.67h0s0,0,0,0Zm19.64-29.51c-7.61,2.53-6.09,12.18-7.28,18.47-2.31,10.95-16.1,19.66-10.26,31.85-.43-16.94,5.54-15.12,11.52-29.09,2.35-6.66-.85-16.13,6.41-20.27.52-.31.17-1.08-.4-.95h0s0,0,0,0Zm-13.07,50.37c-.27-1.81-.77-5.46-.98-7.27-.32-.89.86-3.54-.36-3.46-3.62,1.72,2.54,22.47,1.34,10.73h0Z"/>
        <path class="cls-10" d="m123.21,23.53c-10.24,4.83-26.1,2.49-28.81,17.09-8.01-5.75.59-17.14,5.63-22.22.32-.41-.09-1.14-.61-.79-7.03,4.57-16.04,20.02-5.24,24.8-.3,4.91,2.1,9.87,6.21,12.6,1.09.84,5.13,2.75,5.45.9-10.86-3.27-12.94-17.72-3.64-24.14,4.73-5.05,19.47-2.58,21.01-8.24h0s0,0,0,0Zm43.65,29.61c-6.39-2.25-16.05,1.25-22.48,2.24-12.08,2.34-24.36,2.72-36.53.93-1.75,4.84,30.18,2.89,34.21,1.42,8.13-1.34,16.12-4.58,24.48-3.41.77.11,1.1-.92.33-1.19Zm-20.69-25.9c-12.62,6.94-38.98-.39-42.52,16.72,8.43-16.6,30.33-6.43,43.05-16.03.41-.32-.11-.91-.53-.69h0Zm5.83,3.11c-8.28,7.78-19.21-.16-23.83,7.2-.06.25.23.52.46.36,3.16-3.37,7.9-2.42,12.02-1.99,1.91,1.24,14.83-4.42,11.35-5.57h0Zm10.23,16.71c-3.7.08-8.24,1-11.1-1.95.43-.51,4.53-2.48,5.17-2.94,1.91-2.72-7.82-1.49-9.38-1.83,4.22-2.5,8.37-5.77,9.38-10.72.1-.49-.57-.67-.74-.2-.66,6.26-16.09,11.62-11.95,12.66,3.26-.19,6.53-.18,9.79.02-2.35,1.3-5.6,2.89-1.79,5.02,1.03,1.64,13.1,2.45,10.61-.06h0Zm21.31-27.62c-10.66-13.58-29.27-18.72-45.93-16.74-16.11-4-35.39.25-44.03,15.62-.04,3.04,5.56-5.55,6.93-5.92,14.5-13.24,28.22-7.14,45.05-8.05,13.96-.3,27.23,6.15,37.06,15.82.47.43,1.36-.16.93-.72h0Zm18.88,52.78c-10.74-8.69-3.17-40.81-17.73-50.93-.36-.2-.8.21-.58.58,4.74,5.6,7.37,12.53,8.28,19.79,2.47,9.09.1,27.05,9.58,31.63.61.1,1.08-.73.45-1.07h0Zm.13,9.18c-.52-1.61-2.31-1.98-3.46-3.03-1.51-1.36-2.49-3.31-3.48-5.06,9.3,3.09,3.5-.44-1.03-1.78-3.76-7.24-8.03-3.15-1.61.81,1.74,3.14,3.48,7.24,6.91,8.85-1.06.42-5.4-1.47-3.98.93,1.61.94,6.3,1.66,6.65-.72Zm-3.5,6.7c-2.97-2.27-4.94-5.74-6.06-9.25-1.92-.63.66,6.59,1.7,7.43-19.19-5.36-19.11-28.45-40.24-28.79-.84-.01-.8,1.18,0,1.28,10.93.65,18.35,10.03,23.92,18.44,3.37,4.51,8.1,7.6,13.28,9.68.77.1,9.87,5.5,7.41,1.21h0s0,0,0,0Zm-9.4-1.29c-1.81-1.15-1.67,4.8-2,5.89-.35-1-1.42-7.17-2.92-4.69.81,3.77,2.6,7.81,1.41,11.73-.27,1,1.18,1.36,1.53.42,1.27-3.91,1.49-8.92,1.64-12.91.24.08.49-.22.34-.44,0,0,0,0,0,0Zm-5.08,8.75c-1.3-.57-.86,4.61-1.09,5.39,0,0-.22,5.81-.22,5.81,2.06,3.69,2.05-10.53,1.31-11.2Zm67.06,276.65c-1.44-.54-2.85,2.2-3.73,3.15-.32,1.82,1.41,1.03,1.86-.13.39-.88,2.48-2.04,1.87-3.01h0ZM167.77,84.86c-5.1-5.65-13.73-4.26-20.15-1.93-2.58,4.18-1.52,8.74.7,1.11l4.56-1.29c-4.19,3.18-.23,9.66,4.49,8.79,3.76-.09,8.04-6.03,4.08-8.54-.31-.07-.67.22-.56.56,2.81,4.04-3.6,8.5-7.03,5.63-6.88-9.89,11.67-8.35,14.68-2.05,1-.16-.42-1.83-.78-2.27h0Zm-2,4.99c-6.51,4.65-11.58,5.02-18.2-.51-1.63,2.1,6.35,5.65,8.55,5.47,3.82.46,7.52-1.04,9.76-4.12.34-.16.28-.79-.11-.84h0Zm3.65-13.1c-8.88-6.12-24.73,4.09-31.09-5.99,1.16,8.65,16.14,4.76,22.97,5.1,1.66-.6,8.35,2.1,8.12.89h0Zm-40.65-4.1s-.21-.02-.2.04c0,.08.36.04.2-.04Zm0,.32c-.06,0-.06.09,0,.09s.06-.09,0-.09Z"/>
        <path class="cls-10" d="m128.74,71.56c-6.05,9.61-21.51-.85-28.69,7.5-.15.21.15.5.35.35,3.14-2.4,7.19-2.42,10.97-2.4,5.66-.43,15.63,1.92,17.82-5.26.09-.27-.31-.45-.44-.19h0Zm-5.59,16.81c-.76-1.46.2-3.13-.57-4.57-5.19-4.31-19.26-3.44-20.52,4.76,0,.22.27.27.38.11,1.61-3.09,4.79-5.17,8.24-5.62-7.65,9.45,12.63,11.97,8.67,1.33-.35-.6-1.35-.2-1.14.48,1.8,3.97-3.67,6.72-6.64,4.3-2.45-1.8-1.28-6.53,1.94-6.28,2.48.49,7.77-.57,8.13,2.82-.62,1.66,3.08,6.36,1.51,2.68Zm-1.34,2.37c-5.63,4.51-13.44,2.82-17.75-1.41,2.97,6.4,15.15,7.74,17.75,1.41h0Zm7.54,33.22c-3.26-.93-6.78-2.7-4.2-6.52-1.65-.08-2.12,3.35-1.32,4.67.28,1.58,5.6,3.53,5.52,1.85,0,0,0,0,0,0Zm13.23-3.26c-4.92-.6-4.21,5.67-10.42,3.49-.87-.85-4.3-4.73-5.26-2.33-.14.59.54.97.98.64,2.04.72,3.03,3.26,5.42,3.03,4.7,1.22,5.57-4.26,9.37-3.31,1.35,1.3,1.92-1.43-.09-1.52h0Zm3.34-2.96c-2.04-1.28-.76,1.61-.42,2.47.28,1.67-1.48,3.77-3.25,3.3-.2-.06-.38.22-.21.37,3.28,1.75,5.88-3.61,3.88-6.13h0s0,0,0,0Zm7.9,16.33c-4.85,2.13-10.01-.43-15.04.26-2.65.51-5.25-.07-7.89-.2-6.21.67-9.74,2.17-15.04-.25,3.5,3.71,9.13,1.85,13.52,1.54,5.59.57,11.14-.23,16.71.47,1.56.42,8.48-.04,7.75-1.83h0Zm-13.52,6.54c-1.56-.54-3.52.51-5.2.28-1.3.51-4.81-1.86-4.94-.65,0,.13.14,0,.18-.03.76,1.93,10.13,2.41,9.96.4h0Zm40.93-56.94c-2.21,16.6-4.38,33.83-7.58,50.29,1.4,2.77,2.5-9.01,2.9-9.75,2.13-13.22,4.44-27.19,4.67-40.54Zm-8.46,51.9c-6.38,10.66-17.23,17.89-26.31,25.75,3.65.66,27.15-21.28,26.31-25.75h0Zm-45.94,25.15c-6.82-3.79-15.71-12.88-21.78-17.9-.88-.32-6.38-6.88-6.31-5.03,2.1,3.54,7.47,7.58,10.4,10.51,1.42.93,17.81,17.39,17.7,12.42h0s0,0,0,0Zm5.63-58.17c-1.74,2.19-.98,7.29-1.01,10.41.8-2.83.92-7.1,1.01-10.41Zm4.96,9.81s-.05-.01-.08-.01c-.1-1.16.3-10.87-.87-10.31-.48,1.52.15,4.09.13,5.69.11.39.06,6.32.82,4.63h0Zm-41.09,18.58c-5.1-16.89-7.13-35.07-9.42-52.4-2.16.18-.29,9.19-.42,11.41,1.15,11.62,3.2,23.16,6.6,34.34,1.26,3.52,2.47,8.87,4.29,12.11.95-.85-.87-3.93-1.05-5.46h0Z"/>
        <g class="cls-14">
          <path class="cls-9" d="m114.64,520.22c-22.01,21.75-51.81,31.37-78.85,45.13-12.88,5.38-31.31,31.51-9.42,36.45,8.56,41.35-35.97,39.1-33.18,90.68,0,0-5.71,87.74-5.71,87.74-.25,14.08-10.48,25.65-23.86,29.25-8.13-7.3-12-18.28-14.35-28.69.53,6.14-2.2,12.86.2,18.55-1.18,16.96-3.4,28.13,8.89,41.3,1.18,1.61,2.5,4.09,4.73,4.06,2.98,6.18,24.73.59,30.46-1.04-1.29,10.25,1.19,22.17.74,33.11-1.31,2.1-5.29,5.39-2.56,7.7,1.09-.11,2.18-.24,3.28-.3l.91-.65c3.66.23,6.13-4.73,9.08-6.6,1.89.59,4.7-.7,4.09-2.86,1.99-3.27,7.76-7.39,5.94-11.42.26-1.14.8-2.47.27-3.59,1.05-2.91-.02-6.31.53-9.41-.22-.07-.44-.11-.66-.13l.95-14.51c5.93-4.22,1.06-14.65,2.43-21.14,1.04-18.31,5.15-36.96,6.89-55.04,3.53-12.43,7.82-25.69,7.91-38.25,4.35-19.55,10.4-40.8,10.5-60.69,1.14-7.06,4.36-15.29,2.49-22.2,1.05-15.07,1.89-29.88-1.04-44.65,6.65-1.84,14.67-1.88,20.37-5.91,1.67.57,3.68-.88,3.56-2.65,2.5-7.68,9.57-13.93,10.75-22.55,1.05-.95,2.65-3.04,2.27-4.53.96-8.47,10.81-9.82,14.77-16.02,2.82-1.69,5.61-3.43,8.33-5.27,3.8-4.84,8.16-10.03,9.98-16.13-.22.04-.44.13-.66.27h0,0Zm27.29-178.41l-.17-.3c-3.66,5.05-6.12-7.85-2.88-9.18.18-.62.5-1.24.98-1.6-2.68-3.72-2.1-8.7-5.36-12-3.31-2.8-4.74-7.09-8.16-9.95l.44-.2-3.75-4.33-.14.06c-2.76-2.76-3.77-6.72-6.52-9.48.08-.18.11-.37.14-.57-1.25-1.62-1.84-3.63-1.52-5.63-3.95,1.06-7.26,3.51-10.53,5.87.3.88,1.81,1.99.79,2.81.21.98,1.13,1.33,1.89,1.77l-.11.24c-20.17.33-38.27,46.55-58.51,36.2-1.01,1.66-1.96,3.36-2.77,5.14.28.04.63.07.82.3-1.12,1.51-2.13,3.13-2.73,4.93-8.59-3.19-12.33,14.18-21.38,15.17-6.33,2.07-13.98-5.33-18.96,1.56,1.63,1.06,3.01,2.43,4.45,3.74.39-.45.9-.83,1.48-.97,1.1,3.57,5.71,4.08,8.87,3.64,3.05,1.29,6.82-.16,9.64-1.49,2.05.83,6.53-2.06,6.1-4.4l.95-1.12c.79,1.12,2.45,1.64,3.76,1.09,5.71.22,11.04-4.63,14.15-9.19,4.16-2.15,7.36-7.12,10.69-10.5,15.75-11.47,29.66-27.32,47.61-34.46-20.27,11.7-38.92,27.61-55.28,44.41.87.46.19,1.19-.07,1.81.44,1.8.76,3.67,2.04,5.13,12.21-14.63,27.87-25.8,42.87-37.48,13.71-9.13,19.96-13.3,32.2.16.11,2.72,1.92,4.94,3.45,7.08-7.9,10.13,6.15,22.84,5.52,11.72h0s0,0,0,0Zm-28.79-35.39s-.03.08,0,.05l-.03.02c.03.26-.12.5-.13.76-.09-.62-.39-1.2-.71-1.73.04-.15.07-.3.02-.45.3.43.75.84.85,1.36h0s0,0,0,0Zm-52.46-32.12c-2.9-9.01-4.71-21.22-7.44-30.07.22-.62.55-1.2,1.03-1.7-.15-1.36.2-2.71.5-4.05-11.71.83-5.26,16.34-5.08,23.74,2.28,9.39-7.54,24.53-3.79,28.69l1.47-.85c.05-1.6,3.18-.55,3.21-2.4,6.68-.25,10.52-7.18,10.1-13.35h0Zm193.22,23.66c-.45-1.82.27-4.45-1.43-5.64-.05-2.42-1.64-3.96-3.25-5.49-20.06-15.35,4.5-41.8-7.3-51.34-7.59-3.89-7.96,6.11-6.73,11.07-.63,7.12-4.28,15.03-7.48,21.3h-.01c-.95,1.92-1.95,4.77.4,6.06,5.59,8.48,5.6,18.94,7.89,28.2.26,1.82-.38,4.24.8,5.73.7,8.61,2.49,16.94,4.59,25.17.45.32,1.02.44,1.6.36.76-1.1,1.43-2.25,2.47-3.12.03-.26.04-.53.08-.79,1.46-.91,4.12-5.39,3.65-7.1,4.64-7.53,4.69-15.85,4.71-24.42h0s0,0,0,0Z"/>
        </g>
        <g class="cls-14">
          <path class="cls-9" d="m206.68,160.71c-1.5.16-3.02.42-4.51.03l-.34.91c-5.18.41-10.56.45-15.53.59-.03-2.1-2.21-3.43-4.04-3.58.18-2.52-.05-6.47-3.38-6.5-2.84-2.41-6.26-5-10.16-5.03-1.26-1.33-3.66-1.72-4.58.2-13.97,15.57-33.99,24.69-48.94,4.54-1.42.96-3.84-1.85-4.04-3.03-2.6-2.05-4.84-4.23-7.09-6.69,2.58,11.25,13.4,20,21.75,27.53,13.33,8.99,33.24,4.4,40.69,22.13,1.12,3.15,5.27,6.87,6.54,1.74,2.13-2.18,6.05-3.85,6.41-7.09,2.24-2.61,4.07-5.76,5.51-8.86,9.66-1.11,20.95-6.07,22.52-16.77l-.82-.12h0s0,0,0,0Zm-37.83,21.13c-.85-.41-1.86-.65-2.73-.47-.94-.99-1.91-1.95-2.99-2.81.76.27,1.47.8,2.3.71.72.59,1.6.96,2.5,1.19.67.79,1.35,1.77,2.43,1.99.08.2.2.4.31.6-.57-.46-1.17-.89-1.83-1.21h0Zm8.55-3.64c-.05-.2-.13-.39-.23-.56.24-.39.46-.8.66-1.21.13.09.24.19.38.26-.31.48-.56.99-.8,1.51Zm14.27-92.89l-1.54-.42c-1.33-.06-2.42-1.83-3.76-2.28-.7,1.15-5.5-3.99-5.1-4.79-8.71-11.8-16.53-21.17-32.26-20.76-1.27-2.48-4.9-.66-7.08-.48-8.93-.88-19.31,4.3-28.13.66-4.11.15-10.02-.57-12.73-4.25-5.48,6.25,16.82,9.6,19.85,9.94,26.35,1.53,39.16-7.85,56.01,18.79,1.49,4.95-3.93,20.64,1.91,21.58v4.58s.1-.02.15-.03c.38,3.88,5.34,2.06,4.58-1.3.09-.11.21-.2.34-.25.24-1.73.24-3.56.44-5.32-.19-.21-.1-.56.07-.78l.02-.26c.07,0,.13-.04.19-.05,0-.08,0-.16.02-.23,2.58-.76,3.3-3.43,2.77-5.77,1.58-1.36.88-3.9,1.74-5.7-.32-.51-.37-1.38.37-1.56.07-.12.17-.22.29-.29-.02.01-.05.03-.07.05.62-.38,1.16-.9,1.91-1.05,0,0,0-.03,0-.03Zm-36.83,268.1c-2.64-5.75,4.57-7.85-.22-13.56-2.4-8.26,3.11-7.87-6.02-13.81-.34-.02-.54-.3-.58-.62-2.9,1.46.52,4.66-.44,6.83.09.1.18.2.27.29-.81,3.76.18,8.11,2.47,11.14-8.39,12.02,6.13,21.68,4.52,9.75h0Zm17.39,9.9c.73-.79.37-1.73-.14-2.5-2.83-4.67,1.1-9.37,1.51-13.97-1.68-3.56-4.4-6.55-5.16-10.58-.04-3.35-2.86-4.45-5.12-6.24-1,.57-1.61,2.24-.85,3.32-.22.85-.21,1.74-.38,2.59l.13.08c-.03,3.86,1.84,7.44,4.23,10.51-9.17,20.85,11.4,25.67,5.78,16.79h0Zm18.18-7.07c.61-2.26-1.71-4.14-2.05-6.28-.43-2.72,1.49-5.3-.09-7.86-1.54-2.33-3.74-4.15-5.08-6.64-1.14-2.06-3.97-1.92-5.1-4-.36-.06-.79-.12-1.13-.03.26,1.5.52,3.06.29,4.58l.19.16.31,2.63c.32.16.68.27,1.02.38.36,2.24,1.68,4.26,3.34,5.64-3.02,4.32,4.4,20.22,8.8,12.37-.34-.13-.62-.48-.5-.94h0s0,0,0,0Zm48.7,107.84c-1.29-3.53-1.51-7.22-1.97-10.9.46-.25.98-.54,1.3-.92-2.05-3.09-1.88-6.92-2.23-10.53-.75.47-1.39,1.09-1.9,1.81,3.24-8.85,2.16-20.9-5-27.48-4.43-8.37-.39-19.02-6.21-26.49-1.16-1.86-1.6-4.71-3.44-5.89.52-6.35.02-12.56.96-18.84.66-.74.71-1.71.36-2.55.45-1.72.59-3.65,1.71-5.07-.69-2.83.27-5.66-.16-8.49-.2.16-.38.35-.53.55,5.09-11.34,8.5-23.43.61-34.26.08-2.37-.72-5.71-3.62-4.11-.33,1.37-1.37,2.49-1.43,3.9-3.98,7.24-8.02,14.93-13.07,21.73.43,1.78-.96,3.83-2.06,5.3,17.28-2.7,12.03,14.39,9.76,25.39-5.51,6.2-10,14.13-14.91,20.62-5.13,7-38.67,33.28-33.44,39.46,6.96,4.27,14.19-10.01,21.45-11.43,11.05-4.61,23.67.55,14.83,13.3-4.74,6.54-13.62,11-14.92,19.64-3.63,8.02,16.13,28,3.65,28.11,2.74,6.78,6.17,17.51-2.51,21.35.25,16.12-.77,34.26-10.44,47.77-6.99,8.31-18.73,9.91-27.74,15.23-1.22,1.02-1.01,2.88-.55,4.3,6.25,18.53-7.99,33.42-23.51,41.01.46.39.9.8,1.33,1.22.14,0,.28,0,.42,0,14.21,31.35-28.17,51.72-24.19,82.12-10.05,51.64-14.06,104.72-22.77,156.13h-.03c-1.13,2.87-.92,5.81-1.57,8.75-2.09-.18-5-.59-6.73.86-10.56-3.43-18.6-11.21-25.69-19.4.08-.95-.22-1.92-1.03-2.43-.62-7.18-6.93-3.59-4.46,2.06-4.8,6.62,4.56,13.2,5.71,18.7,8.24,8.32,19.18,19.73,31.98,17.28,2.24,2.08,4.28-.97,6.6-.4,3.16,2.29,15.22-7.71,19.26-9.54,1.42.93,3.39-1.17,4.5-1.89,3.17-.91,4.46-3.54,3.99-6.69.18-3.86,2.16-7.89.89-11.74.77-8.4,3-17.22,2.39-25.52,2.88-4.32,3.85-11.85,2.06-16.79.38-6.37,5.03-13.68,2.15-19.72,2.75-17.52,5.37-35.15,7.46-52.57-3.29-7.34,3.05-17.42,4.46-24.52,2.37-2.48,3.74-5.63,5.89-8.27.53-.68,4.48-4.23,4.55-5.1.66-.66,1.63-1.31,1.77-2.27.72-.72,1.48-1.41,2.16-2.18.32.34.74.55,1.17.68,1.14-1.33,2.51-2.41,3.78-3.6,2.74-26.47,7.82-52.73,11.38-78.65.33-1.21.5-2.45.79-3.66,15.86-11.3,33.63-20.57,49.81-31.41,4.92,1.36,7.03-25.63,7.49-30.01,1.22-3.74,3.62-8.63,2.74-12.59,2.1-16.96,7.77-33.69,15.28-49.05-.4-1.07-.81-2.13-1.12-3.22-1.55,2.13-2.62,4.61-4.25,6.71-.11,0-.23.03-.34.05l1.15-2.31c1.64-.92,1.8-3.14,2.56-4.71,1.93-1.32,4.33-4.46,2.85-6.78.37-.61.57-1.34.64-2.07h0s0,0,0,0Zm-127.9,460.81c.09-.8.21-1.6.38-2.39-2.94-4.23-5.61,1.68-6.58,4.49-4.19,5.67-7.76,12.22-12.65,17.58-1.05,4.1-7.6,5.69-7.12,9.79-6.8,3.53-14.44,5.63-21.17,9.06-4.46-1.33-9.16-.15-13.67-.63-3.39-1.79-7.29-4.48-11.24-4.11-2.46-1.51-4.59-4.78-7.54-5.03-1.78-3.28-2.97-6.85-3.53-10.53-.37-2.47-4.61-1.91-4.38.59.34,3.83,1.33,7.41,2.97,10.78-1.41,1.16-.7,3.27.72,4.35.79,4.4,6.48,6.47,10.13,8.18,2.42,3.34,7.15,4.66,11.06,5.36,3.48,6.71,28.44,2.17,30.7-4.83,1.98-1.42,5.48-2.28,6.27-4.74l1.24-1.31c4.63-2.35,7.41-7.73,10.18-11.75.69-.66,1.49-1.6,1.43-2.48.69-.65,1.28-1.52,1.2-2.48,5.75-3.99,8.69-13.83,11.61-19.91h0s0,0,0,0Zm215.14-393.59c.69-6.15-3.43-12.81-2.45-18.42-.55-.99-.98-2.04-1.37-3.09-.5-.09-1.18-.33-1.11-.95.21-3.66-3.46-6.07-4.95-9.01-.32-.05-.64-.08-.96-.11-1.01-1.35-2.69-1.23-3.92-.14-6.84-.28-13.59.53-20.37,1.51-7.53-1.33-18.48,4.17-16.81,12.44-.65.99-1.26,2-1.84,3.03.38,3.42.94,6.89.3,10.3,10.41-26,39.06-27.39,48.13-.9,2.39,6.43-.69,14.03,3.84,19.7l1.26-5.24c-1.03-2.69.27-6.18.25-9.11h0s0,0,0,0Z"/>
        </g>
      </g>
    </g>
  </g>
</svg>