<?xml version="1.0" encoding="UTF-8"?>
<svg id="Ebene_1" data-name="Ebene 1" xmlns="http://www.w3.org/2000/svg" xmlns:xlink="http://www.w3.org/1999/xlink" viewBox="0 0 217 208">
  <defs>
    <style>
      .cls-1 {
        fill: none;
      }

      .cls-2 {
        clip-path: url(#clippath);
      }

      .cls-3 {
        mask: url(#mask);
      }

      .cls-4 {
        fill: #f2f0e7;
      }

      .cls-5 {
        fill: #fff;
      }

      .cls-6 {
        fill: #f2d6ca;
      }

      .cls-7 {
        fill: #f2c0c7;
      }

      .cls-8 {
        fill: #d9884c;
      }

      .cls-9 {
        fill: #070d1c;
      }

      .cls-10 {
        fill: #111119;
      }

      .cls-11 {
        fill: #1d1d1b;
      }

      .cls-12 {
        fill: #3da5dd;
      }

      .cls-13 {
        fill: #464460;
      }

      .cls-14 {
        fill: #88889a;
      }

      .cls-15 {
        fill: #585577;
      }

      .cls-16 {
        fill: url(#Unbenannter_Verlauf_2);
        fill-opacity: .9;
      }

      .cls-16, .cls-17, .cls-18 {
        isolation: isolate;
      }

      .cls-16, .cls-18 {
        opacity: .29;
      }

      .cls-19 {
        opacity: .25;
      }

      .cls-17 {
        fill: url(#Unbenannter_Verlauf_3);
        opacity: .57;
      }

      .cls-18 {
        fill: url(#Unbenannter_Verlauf);
      }
    </style>
    <clipPath id="clippath">
      <rect class="cls-1" y="0" width="217" height="208"/>
    </clipPath>
    <mask id="mask" x="0" y="0" width="217" height="311.46" maskUnits="userSpaceOnUse">
      <g id="A">
        <path class="cls-5" d="m0,0h217v208H0V0Z"/>
      </g>
    </mask>
    <radialGradient id="Unbenannter_Verlauf" data-name="Unbenannter Verlauf" cx="-180.3" cy="494.44" fx="-180.3" fy="494.44" r=".99" gradientTransform="translate(4008.98 5207.43) rotate(-.55) scale(21.38 -10.47)" gradientUnits="userSpaceOnUse">
      <stop offset="0" stop-color="#d4a2a1"/>
      <stop offset=".13" stop-color="#d4a3a2" stop-opacity=".98"/>
      <stop offset=".27" stop-color="#d7a9a8" stop-opacity=".92"/>
      <stop offset=".41" stop-color="#dbb2b1" stop-opacity=".82"/>
      <stop offset=".55" stop-color="#e1bfbe" stop-opacity=".69"/>
      <stop offset=".69" stop-color="#e9cfcf" stop-opacity=".51"/>
      <stop offset=".84" stop-color="#f2e3e3" stop-opacity=".29"/>
      <stop offset=".98" stop-color="#fdfbfb" stop-opacity=".04"/>
      <stop offset="1" stop-color="#fff" stop-opacity="0"/>
    </radialGradient>
    <radialGradient id="Unbenannter_Verlauf_2" data-name="Unbenannter Verlauf 2" cx="-171.4" cy="479.24" fx="-171.4" fy="479.24" r=".99" gradientTransform="translate(1918.2 3399.89) rotate(-.75) scale(10.5 -7)" gradientUnits="userSpaceOnUse">
      <stop offset="0" stop-color="#d4a2a1"/>
      <stop offset=".13" stop-color="#d4a3a2" stop-opacity=".98"/>
      <stop offset=".27" stop-color="#d7a9a8" stop-opacity=".92"/>
      <stop offset=".41" stop-color="#dbb2b1" stop-opacity=".82"/>
      <stop offset=".69" stop-color="#e9cfcf" stop-opacity=".51"/>
      <stop offset=".84" stop-color="#f2e3e3" stop-opacity=".29"/>
      <stop offset=".98" stop-color="#fdfbfb" stop-opacity=".04"/>
      <stop offset="1" stop-color="#fff" stop-opacity="0"/>
    </radialGradient>
    <radialGradient id="Unbenannter_Verlauf_3" data-name="Unbenannter Verlauf 3" cx="75.52" cy="-537.09" fx="75.52" fy="-537.09" r=".99" gradientTransform="translate(58.86 45.97) scale(.71 -.3)" gradientUnits="userSpaceOnUse">
      <stop offset="0" stop-color="#d4a2a1"/>
      <stop offset=".13" stop-color="#d4a3a2" stop-opacity=".98"/>
      <stop offset=".27" stop-color="#d7a9a8" stop-opacity=".92"/>
      <stop offset=".41" stop-color="#dbb2b1" stop-opacity=".82"/>
      <stop offset=".55" stop-color="#e1bfbe" stop-opacity=".69"/>
      <stop offset=".69" stop-color="#e9cfcf" stop-opacity=".51"/>
      <stop offset=".84" stop-color="#f2e3e3" stop-opacity=".29"/>
      <stop offset=".98" stop-color="#fdfbfb" stop-opacity=".04"/>
      <stop offset="1" stop-color="#fff" stop-opacity="0"/>
    </radialGradient>
  </defs>
  <g class="cls-2">
    <g class="cls-3">
      <g>
        <path class="cls-4" d="m134.2,107.33c1.37-5.09-3.29-6.85-7.38-8.28-1.47-3.18-6.1-1.05-3.63,2.03-1.66,11-12.89,18.56-19.76,19.1-.58-.83-2.23-.89-2.71-2.11-8.8,1.56-12.12-10.04-19.75-13.51-2.01-6.77-4.14-3.5-7.83.29-1.54,1.97-.48,3.15.03,4.59-.99,3.87-4.08,6.12,2.38,7.56-1.67,1.26-.21,3.46,1.51,3.06-1.77,1.69-2.16,6.56,1.66,3.87.41,2.76,1.92,1.97,3.46,2.33-4.57,6.02,1.88,6.13,5.42,1.98.92,2.74,4.8.75,6.31.44,2.42.14,4.42,1.01,6.79.06,1.95-.47,3.91,1.25,5.67-.7.95.45,2.5.79,3.92-.12,1.66,2.67,10.81-4.37,13.31-3.23,8.43,3.86,32.22-8.66,10.61-17.36h0s0,0,0,0Z"/>
        <path class="cls-15" d="m69.11,110.38c-4.78,3.03-15.33,3.58-20.61,3.18-.45-.14-12.49,5.91-14.33,6.78,0,0-6.12,5.28-6.12,5.28.06-.18-7.2,9.53-7.2,9.53l-4.08,10.55c-2.77,11.46,1.39,29.37-4.02,40.55-1.53,4.48-5.36,14.1-7.44,18.33-1.15,4.49-6.04,10.05-3.42,15.59,2.74,5.83,3.4,9.9,3.6,14.57,0,0-.42,3.27,4.2,4.26,4.62.99,10.67,7.3,10.91,7.02,4.4,1.08,12.38,1.94,15.89-3.6l1.98.48,3.27-.72s.21,1.74,3.5-1.8,5.74-5.78,5.74-5.78c-.62.7-.75,5.81,1.28,6.08-1.41,9.98,7.2,8.91-1.29,21.05-.74,2.42-1.11,7.7-1.18,10.4-1.77,7.49-14.63,22.06-3.1,27.28,0,0-.28.58,4.05,0s8.76.67,8.76.67c8.38,2.79,19.56,7.92,28.21,9.78,16.8,3.26,34-2.6,50.13-5.97,8.71-.68,20.06.47,28.34-2.66-.13,0,.74.74,2.9-3.88s1.59-7.45,1.55-7.59-1.96-7.36-1.81-7.51c-3.14-6.94-4.36-5.61-4.08-14.02l-4.67-12.86,1.05-16.29.31-6.69,2.74-8.58.31-5.82c-1.13-2.42-3.52-9.26-4.27-11.77,2.69-7.33,2.21-17.78,3.66-25.31l4.5,10.03c.23,5.97,2.92,20.55,4.11,26.55h42.5c-7.34-31.19-9.35-68.05-27.99-95.16,0,0-7.11-6.23-7.11-6.23-4.01-1.98-15.98-6.2-19.64-7.41-6.77-1.47-15.74-.24-22.54-.59,0,0,.45,6.5.22,6.87s-4.68,9.93-4.94,10.02c-5.21,5.35-10.08,8.68-18.11,9.95-18.51,3.94-48.2-.54-45.77-24.58Z"/>
        <path class="cls-14" d="m137.7,108.11c2.84,12.92-9.86,25.96-23.9,27.12-15.7,2.04-36.34,1.34-43.4-14.14-1.22-6.27-3.77-11.37,2.26-13.99.05,6.46,5.05,17.61,11.92,21.03l2.14-2.96c2.21,3.03,22.77,2.33,24,2.63,4.87-1.71,10.8-1.38,15.61-5.46l2.43,1.31c1.93-.55,5.37-12.26,5.43-12.58-.21-.08.1-5.75.1-5.75l3.41,2.8h0s0,0,0,0Zm-66.55,73.87c-4.91,2.94-4.2,25.66,3.59,26.78,0,.16,3.28,2.65,5.33,1.69,4.13-2.34,4.81-3.43,8.18-4.33,0,.05,1.93-.32-2.39-4.06-5.97-7.55-4.48-14.15-4.85-19.25l6.37-1.59s1.01-5.02-5.47-3.42-10.76,4.19-10.76,4.19h0Z"/>
        <path class="cls-6" d="m142.09,225.89c-3.36-4.88-5.57-11.01-11.32-13.7-2.8-2.25-5.28-4.9-7.47-7.71.53.42,1.26.5,1.94.16,3.55-2.2,8.19,3.66,10.86-.8,1.49-1.66-.69-3.39-2.35-2.36-4.91-.05-7.81-4.17-11.95-6.06-.92-.67-1.72-2.09-3.04-1.36-4.93-16.33-9.8-21.57-26.63-14.31-1.82.13-12.04,1.5-10.78,4.07-.89,4.52-.12,9.74,2.46,13.62-.75,5.51,5.03.41,6.8-.99,3.23,6.22,8.77,11.2,12.89,16.95-.03.58.29,1.15.84,1.41.94,1.87.32,4.34,1.94,5.9-.63.6-.95,1.54-1,2.42-1.43,1.57-.51,7.42,2.29,5.09.57-2.56,6.14-6.09,3.69-8.13-.07-.41-.14-.81-.2-1.22.06,0,.11-.03.17-.04.85,1.1,2.6,1.73,3.76,2.46-1.08,2.97-.76,6.19,1.34,8.63-1.37,1.26-2.14,3.2-1.99,5.07-1.01,1.89,1.88,3.47,2.8,1.47-.19.15.04-.25.1-.32,0,.09-.03.19-.07.27.62-1.36,1.53-2.54,2.48-3.66l-.08.06s.07-.05.1-.09l-.06.04c1.73-3.23.46-7.91,1.85-11.57.52.96,1.54,1.53,2.56,1.8-.25,3.08,1.45,5.95,3.26,8.45-1.82,2.67-2.5,7.18-.78,10.06.59,1.76,3.33.68,2.58-1,7.3-11.35,2.63-6.17,2.14-17.93.54,1.11,1.9,1.55,3.04,1.74-.32,2.2,1.54,4.39,3.46,5.28-2.93,5.59,2.99,12.63,3.46,6.17.53-1.21.46-2.79.78-4.11.25-1.77,2.51-4.73.12-5.75,0,0,0,0,0,0Zm-11.03-4.41c-.18-1.1-.91-2.72-2.23-2.38-.2-.24-.4-.49-.6-.73l2.18,1.12c.21.5.56.9.85,1.35-.1.2-.16.41-.19.64h0Zm-8.43-121.7l-1.11-2.69.35-4.22,2.81-4.46s6.01-8.82,5.89-9.31,1.01-29.85,1.01-29.85l-25.56-23.24-37.86,1.33-4.82,15.24c.21.06,1.65,9.51,1.65,9.51,0,0,2.4,3.91,2.4,3.91.91,2.1.78,11.81.83,14.21,2.75,9.24,6.83,30.72,15.02,36.13.44.07,2.84,3.18,2.79,3.4s6.08,5.93,6.08,5.93c0,0,1.97,1.69,3.19,1.88s4.99.96,4.99.96c0,0,4.09,2.9,4.09,2.9,2.23-1.63,7.05-4.48,9.53-5.74,0,0,5.05-5.79,5.05-5.79l3.41-6.28s.27-3.83.27-3.83Z"/>
        <path class="cls-5" d="m98.93,63.56c.41-.09,2.68.15,2.68.15,2.6-1.62,5.8-.84,6.01-6.18l-2.91-2.21-4.05-.97c-1.66-.03-4.9.39-6.46.97,0,0-2.42,3.27.96,6.21,3.38,2.94,3.77,2.04,3.77,2.03h0Zm-27.86-2.78l2.88,2.06h2.64l2.03-1.03c.58-1.87,2.93-3.66.62-6.13-3.84-1.71-5.72-1.05-8.47-.37l-1.06,1.16s-.06,3.31,1.36,4.31Z"/>
        <path class="cls-12" d="m97.65,60.41l2.05.38,1.9-1.44v-2.67l-1.97-1.16-1.87.18-1.24,1.13c-.15.23-.27,1.9-.27,1.9,0,0,1.4,1.69,1.4,1.69Zm-25.33-.87l1.63.87,1.64-.43,1.24-1.25-.32-2.05-1.57-1.16-2.09.74-.94,1.51.41,1.79Z"/>
        <path class="cls-7" d="m83.93,93.45c2.85-.08,6.28,1.47,7.56-3.39-1.52-.38-5.32-1.29-6.86-1.17-1.05.11-3.64.35-4.62-.11,0,0-3.18,2.25,3.92,4.67h0Z"/>
        <path class="cls-8" d="m144.04,41.97c-.25-9.35-5.79-20.71-9.52-24.23-10.79-12.16-40.44-18.79-53.79-8.35-.1-2.53,4.68-5.76,3.54-7.34-1.84.02-2.83,3.06-3.95,4.39-.19-5.6-2.97,3.28-.98,3.93-1.19,1.33-6.62,3.07-8.29,3.66-4.83,3.11-8.23,8.62-5.28,15.28-2.81,5.66-6.54,13.95-3.73,20.17l.8-2.38c.48,2.02,1.71,6.41,2.67,8.22,0,0,1.94,2.56,1.88.68s-1.61-3.81-1.61-3.81l-1.1-5.41c.97-4.27,2.25-10.09,4-14.11,1.47.91,2.92,1.83,4.99,1.87,1.01-.97,7.52,2.78,8.21,2.21.05.04,8.88.03,9.29.03,3.96-1.02,11.06-2.89,15-4.52.15.18,1.47,1.08,1.47,1.08,2.4,3.97,7.15,11.98,9.46,15.99,0,0,5.07,5.03,5.07,5.03l4.95,2.77h1.71c-1.19,1.2-.99,11.79.83,13.16l-3.74,15.55c-.43,1.63-3.96,5.21.53,5.26l.69-2.96,1.73-2.07s1.78-.24,1.7-.29.07-4.16.14-4.33,1.46-1,1.46-1l2.12,1.17c1.05-16.98,9.64-18.52,9.75-39.64h0Z"/>
        <path class="cls-18" d="m104.48,78.94c28.13-.53,27.93-20.95-.2-20.94-28.13.53-27.93,20.95.2,20.94Z"/>
        <path class="cls-16" d="m74.55,77c13.59-.03,13.57-14.29-.1-14-13.59.04-13.57,14.29.1,14Z"/>
        <path class="cls-17" d="m112.86,212.81c21.13-.03,21.13-13.46,0-13.49-21.13.03-21.13,13.46,0,13.49Z"/>
        <path class="cls-11" d="m103.62,120.42c-4.19-4.82-12.18-4.28-15.29,1.47-.52,1-5.38,6.54-3.53,6.48,7.76-8.49,7.31-12.71,18.82-7.94Zm25.52,2.92c-4.17-3.73-10.23-6.58-15.91-6.51,5.49-4.24,12.03-12.08,9.5-19.41-.44-.67-1.4-.24-1.26.53,1.76,7.06-4.21,14.12-9.42,18.24-4.26,2.28-10.93,5.25-10.5,10.92-4.52-.18-9.14-.12-13.47-1.59-.49-.13-.7.5-.33.78,11.63,3.93,26.17,3.18,37.28-2.27.73-.45.09-1.43-.65-1.11-6.98,3.36-14.76,4.42-22.45,4.19,4.89-12.44,17.88-9.46,26.69-3.09.46.25.83-.31.53-.69,0,0,0,0,0,0Zm6.56-13.01s.02.01,0,0Z"/>
        <path class="cls-11" d="m177.02,114.68c-3.11-3.2-10.09-4.34-14.12-5.96-8.02-2.76-16.52-.6-24.75-.9-.76-1.19-2-2.12-3.2-2.81.2-2.41-1.47-3.86-3.55-4.65-1.61-.61-6.18-3.64-7.07-2.67,2.29,1.43,7,3.63,8.98,5.37,3.03,4.13-6.86,25.92-2.14,17.76.32.45.87.91,1.42.97h0c1.5-.21-.61-1.35-1.14-1.57.49-1.05.99-2.09,1.41-3.17,2.19,1.81,3.13.03.14-.36.4-1.06.76-2.14,1.07-3.24,2.2,1.42,3.07-.25.11-.41.28-1.05.51-2.12.65-3.2.21.27.59.28.88.46,0,0,0,0-.02-.01.26.28.75.24.65-.23-.16-.57-.97-.63-1.46-.62.13-1.07.19-2.15.16-3.22,6.79,6.95-1.42,18.89-7.89,23.41-1.06,1.46-7.86,3.29-7.06,4.38,10.78-2.63,20.67-14.1,18.38-25.56,14.26,1.11,19.36-1.53,34.22,5.13.69.07,4.82,2.53,4.35,1.08h0s0,0,0,0Zm-83.09,2.1c-3.41-3.18-7.33-6.3-9.31-10.65-.53-.28-1.09-.28-1.66-.42,2.04,4.52,6.45,9.88,10.97,11.07,0,0,0,0,0,0Zm24.43,17.13c-18.5,4.29-50.03,2.08-48.92-23.26.84-1,1.92-1.81,2.84-2.76.05.97.17,1.93.35,2.88-3.65,1.48-3.62,3.75.14.7.21,1,.46,1.99.79,2.96-3.2,1.75-2.77,4.09.25.67.48,1.35,1.07,2.66,1.74,3.92-3.65,2.35-3.03,4.22.32.57.59,1.04,1.25,2.05,1.97,3.01-2.74,2.25-1.8,3.85.36.49.75.96,1.63,1.87,2.52,2.71-.32.41-2.86,2.59-1.31,2.53.67-.53,1.23-1.44,1.75-2.12,5.87,3.79-9.15-7.89-8.07-21.52.61.22,1.06-.48,1.48-.83,1.34-1.27,2.79-2.57,4.26-3.68-.2-.36-.36-.74-.5-1.13-1.75,1.62-4.66,3.11-5.53,5.31-.85.22-.51,1.64-.57,2.35-1.36,1.05-3.1,2.2-3.97,3.71-6.27,2.88-13.58,2.59-20.32,2.75-1.33,3.18,18.57.11,20.37-1.76-1.59,25.05,33.77,29.71,50.05,22.51h0Zm-31.77-6.73c-1.22.59-1.9,2.1-2.51,3.27-.55,1.61.74,1,.98-.1.26-.53.84-1.56,1.15-2.05.11-.27.79-.92.38-1.13Zm4.36,1.43c-.32.55-2,4.55-.87,4.49.68-.71.65-2.18,1.04-3.08.1-.41.75-1.81-.17-1.4h0s0,0,0,0Zm4.69.77c-.69-.4-.8,1.82-.99,2.24-.33.99-.48,3.89.43,2.03.08-1.34.67-2.97.57-4.27h0s0,0,0,0Zm3.8.47c-.77-.45-.65,1.82-.85,2.32.05.57-.71,2.54.26,2.45.68-1.32.62-3.29.59-4.77Zm4.15.18c-.77-.54-.6,1.6-.75,2.05.04.52-.46,2.81.6,2.16.21-1.29.17-2.89.15-4.22h0s0,0,0,0Zm4.23.15c-.92-.72-.61,2.91-.77,3.4-.09.68,1.02.74.78.01,0,.08.01-.11.01-.09-.01-1.04.21-2.32-.02-3.32Zm4.74,2.09c-.1-.73-.05-1.89-.34-2.55-.23-.32-.7.02-.5.26,0,1.12-.03,2.33.12,3.44.72.95.92-.6.73-1.15h0s0,0,0,0Zm4.21.05c-.3-.54-.64-4.52-1.52-2.96.26.84.38,1.96.55,2.83-.05,1,1.44,1.34.98.13h0Zm4.14-1.67c-.39-.5-1.19-3.53-1.93-2.38.27.8.64,1.69.93,2.49.17,1.05,1.77,1,1.01-.12h0Zm3.65-1.77c-.62-.76-1.15-1.83-1.92-2.44-.87.08,1.01,2.31,1.17,2.75.3.56,1.23.32.75-.31,0,0,0,0,0,0Zm3.18-2.05l-.02-.02c-.28-.49-.98-1.02-1.35-1.51-.29-.59-1.27-.8-.76.09.49.64,1,1.43,1.69,1.86.24.21.7-.05.44-.41Zm2.54-2.16l-.04-.06s.03.09.03.12c-.02-.27-.36-.38-.51-.59-1.12-.12.52,1.57.52.53h0,0Zm-34.4-3.59s-.04-.01-.05,0c0,0,.03,0,.05,0Z"/>
        <path class="cls-11" d="m97.51,119.84c-.56-.98-1.61-.7-.75.47,0,0,0-.01,0-.02,0,.06,0,.14,0,.2,0-.01,0,0,0-.02-.03.24-.18.45-.4.54,0,.03-.41.09-.22.07-.1,0-.24.02-.33,0-.42-.06-.77-.45-.69-.88-.03.17.07-.24.04-.13.16-.44,1.36-.79.32-.96-4.14,1.81,3.01,5.11,2.03.72,0,0,0,0,0,0Z"/>
        <path class="cls-11" d="m96.76,120.5h0s0,.04,0,0Zm-.4.52s-.03,0-.03.01c0,0,.03-.01.03-.01Zm.4-.71s0,.05,0,.02c0-.01,0-.02,0-.02Zm-49.96-6.47c-17.33,4.7-31.7,21.3-31.36,39.61,4.34-21.01,12.08-30.3,31.36-39.62h0Zm-26.82,81.39c.1-4.17.21-8.79-1.16-12.76-2.61-8.86-2.43-18.68-2.92-27.51-1.43,14.85-.6,30.08-5.93,44.4-3.47,8.33-3.3,12.9.85,1.31,2.84-8.17,4.58-16.75,4.98-25.39.87,6.5,3.64,12.56,3.46,19.21,0,4.38.85,7.28.72.73h0s0,0,0,0Z"/>
        <path class="cls-11" d="m33.6,244.44c-13.59,6.39-14.18-4.48-26.27-7.07-2.38-3.31-.86-8.15-2.52-11.92-.68-2.96-2.69-5.48-3.14-8.49.89-8.21,7.03-17.36,9.75-25.13.5-2.38,3.01-7.48,2-9.24-.67,2.45-1.74,6.08-2.73,8.48-2.38,7.11-13.17,22.9-9.37,29.21,3.13,5.27,2.6,11.72,4.31,17.25,1.68,2.38,4.99,1.94,7.33,3.29,2.77,1.25,4.61,3.75,7.06,5.44,2.05,3.28,17.12-.17,13.58-1.82,0,0,0,0,0,0Zm15.09-24.94c-5.74,6.56-7.98,15.72-13,22.79-.2.29-1.55,1.78-.79,2.07,6.68-6.09,8.17-17.95,13.78-24.86Zm39.87-13.9c-7.11.57-14.77,9.35-20.49,13.06-6.75,5.36-13.37,10.93-19.38,17.13-2.99,3.27-6.38,7.19-11.28,6.6-.27-.02-.37.39-.14.51,8.49,2.31,13.26-8.8,19.38-12.91,9.53-8.74,22.38-18.51,31.9-24.39Zm-1.25-2.84c-3.52-4.31-5.57-9.87-5.59-15.43-.38-3.87-.43-8.21,3.93-9.05.57.22,1.18-.53.57-.92-3.3-1.61-8.37,1.44-11.55,2.3-15.58,6.14-32.52,12.6-46.07,21.73,13.24-6.1,27.23-13.12,40.91-18.24-1.97,3.73-2.13,8.25-2.11,12.4-.26.04-.23.37.02.39-.6,10.88,12.94,17.54,6.1,10.94,1.67-.67,8.61-2.77,7.86-4.62-1.57.3-2.83,1.51-4.28,2.13,0,0-4.02,2.01-4.02,2.01-1.32-1.36-2.29-3.02-2.97-4.78,2.74-.88,5.5-2.33,8.34-2.86.43-.08,1.67-.34,1.11-.94-3.34-.35-6.67,1.89-9.71,3.14-.59-1.73-.9-3.54-1-5.36,14.39-2.54,13.27-5.25-.01-.67-.04-1.18,0-2.35.1-3.53,10.79-2.44,11.5-5.3.09-.79.16-1.44.39-2.87.7-4.29,1.68-.39,3.72-.97,5.39-1.44.56-.24,1.79-.26,2.01-.95.19-1.64-6.12,1.29-7.16,1.42.42-1.53,1.35-3.15,3-3.54,2.32-.79,7.35-2.88,9.69-3.38-5.23,3.3-.91,25.53,4.68,24.32h0Zm-33.14-22.6c-1.49-8.13-6.42-15.93-3.97-24.33-.72.02-1.02,1.33-1.2,1.88-2.62,9.7,4.84,18.55,4.19,28.29,1.55.58,1.24-4.66.98-5.84,0,0,0,0,0,0Zm-7.14-43.4c-.46-1.82-1.35-5.5-1.76-7.32-.5-.97.65-2.81.08-3.3-3.31,1.44,4.31,23.08,1.69,10.62Zm127.98-18.76c-1.44.04-1.39,11.79-1.84,13.69-.45,5.1-1.54,17.2-2.07,22.16,2.31-11.05,4.31-24.11,3.91-35.86Zm-1.66,98.92c-1.39-5.84-2.95-14.63-3.8-20.6.03-5.61-2.41-10.32-5.02-15.01,1.86-5.69,6.64-12.9,5.03-18.44-.05,6.97-4.9,12.71-6.66,19.26-1.53,5.15-.49,10.56-1.23,15.81-2.42,13.86-12.34,24.73-18.11,37.23-.27.55.48,1,.83.48,5.65-8.9,11.17-18.54,15.78-28.03,11.14,21.66-9.11,40.31-20.09,57.52,7.88-8.47,15.92-20.25,21.08-31.34-.42,8.9-4.27,19.1.46,27.27,3.71,5.73.82,13.07,5.19,18.44,3.44,5.9,4.43,13.49.49,19.4.3,2.11,2.6-2.14,2.83-2.88-.07,5.16,1.78,10.16,1.81,15.3,1.46.87,1.1-2.96,1.01-3.82-.21-2.4-1.01-5.76-1.44-8.16-.54-1.37.31-3.95-.91-4.7,1.85-6.57-.87-12.99-4.18-18.55-1.75-6.39-.99-13.08-5.22-18.91-1.21-4.01.24-10.82.2-14.99.16-2.79.33-5.58.28-8.38,0-.26-.37-.34-.48-.12,5.7-12.12,4.28-15.87-.39-27.64,3.65-7.48,1.46-15.87,3.35-23.65,6.21,11.85,4.58,26.23,9.28,38.74,1.56.63-.09-3.41-.12-4.22h0Zm43.59,4.35c-8.97-28.59-10.63-92.07-38.59-105.79,23.6,18.36,25.26,53.12,31.67,80.16.99,2.66,4.38,28.51,6.93,25.63h0,0Zm-109.78-45.09c-6.01-.61-12.73,1.57-18.47,3.27-.84.51-6.59,1.23-5.73,2.41,3.45.21,8.62-2.11,11.99-2.89,2.17-.56,6.99-2.02,9.21-2.07.71-.23,3.68.39,3-.73Zm-17.47,21.01c-.69-1.01-2.79,1.35-3.48,1.86-1.72,2.68,3.57-.99,3.48-1.86,0,0,0,0,0,0Zm87.29,20.55h1.64c1.76-3.4,4.46-8.14,4.32-12.08-.35-3.85.75-17.2-6.03-13.75-1.39.77-2.99,2.86-2.64,4.23.42-1.67,1.55-3.18,3.12-3.93,5.75-2.59,4.07,12.12,4.11,15.34-.15,2.88-3.48,8.65-4.52,10.2Z"/>
        <path class="cls-11" d="m104.35,214.8c-6.36-10.39-20.5-19.36-11.12-31.65-9.16,7.75-1.79,18.15,4.54,24.83.87.63,6.33,8.86,6.59,6.82h0s0,0,0,0Zm2.23,5.75c-1.32-1.27-1.69-3-1.69-4.77-1.48.38-.42,4.05.66,5.12-1.87,1.86-2.42,7.29.38,8.06-1.08-2.51-1.68-5.57.65-7.69.19-.19.2-.53,0-.72h0s0,0,0,0Zm5.64.35c-.6-2.55,1.08-5.54-1.33-7.43-1.2-1.41-2.57-3.79-3.86-5.07-.33.6.59,1.91.89,2.6,3.82,6.23,3.01,2.32,3.17,9.81,1.16,3.13-4.06,4.27-3.89,7.59,0,.15.23.23.3.08.77-1.64,2.04-2.88,3.34-4.1,1.18-.84,1.95-2.05,1.38-3.49h0Zm4.01,8.6c-3.87-4.26,1.3-8.83-3.41-9.73-.51.68,1.22,1.12,1.4,1.72-.97,2.74-.65,5.93,1.14,8.31-1.95,2.24-2.3,6.26,0,8.38.19.15.47-.04.34-.27-2.2-3.39-.7-5.54.54-8.41h0Zm5.18-11.81c-1.4-1.51-4.89-6.92-6.25-8.13,1.3,3.53,3.86,6.7,5.96,9.74.02,1.68-.61,4.32-.69,6.04-.26,1.71-.01,4.41-.51,6.03-1.01,1.99-2.88,3.69-3.7,5.77.75.32,1.61-1.61,2.19-2.18,2.66-2.78,3.02-4.67,2.98-8.4,0,0,.39-3.38.39-3.38.19-1.55,1.19-4.3-.37-5.49h0Zm6.26,25.16c-5.14-5.54.75-8.83-.62-12.15-1.87-2.1-2.81-4.84-2.93-7.63-.14-.6-1.04-.3-1.39-.83-.83-.1.26,1.06.64,1.08-.08,2.71,1.03,5.42,2.62,7.55.33.43.73.72.39,1.27-2.16,3.36-2.53,8.51.94,11.15.26.2.56-.22.35-.45h0s0,0,0,0Zm6.31-10.23c-4.45-15.29,2.42-8.3-9.91-19.24-.96-.93-1.89-1.96-2.96-2.76.58,1.94,2.89,3.89,4.36,5.48.83.8,3.03,2.84,3.9,3.54,1.13.58,1.67,1.55,1.49,2.82.09,1.25.6,4.37.83,5.63,0,0,.93,3.66.93,3.66.6,1.11.47,2.24-.48,3.09-1.12,1.62-3.87,4.76-2.95,6.45.71-3.37,4.27-5.46,4.78-8.66h0Zm6.42,5.55c-4.28-2.01-3.82-5.03-2.35-8.56-1.13-1.29-2.95-3.32-3.43-4.88.28-.28-.02-.67-.36-.62-.94-.09-1.72,0-.43.64.45,2.04,2.07,3.61,3.32,5.2-2.29,2.83-.7,8.28,3.13,8.66.25,0,.31-.32.12-.45Zm3.03-12.19c-3.52-3.73-4.36-9.46-9.11-11.95-1.91-1.01-5.42-4.78-7.07-4.74,2.8,2.61,6.48,5.22,9.39,7.73,1.92,3.1,3.54,6.7,5.97,9.51.93.77,0,2.25-.17,3.17-.45,2.17-1.49,5.38-1.37,7.59,1.06-1.25.91-5.04,2.01-7.04.29-1.32,1.54-3.09.35-4.27,0,0,0,0,0,0Zm-19.24-21.44c-5.1-7-6.93-25.94-15.41-27.43,9.8,7.13,8.92,21.89,16.91,30.57.37-.82-1.11-2.23-1.49-3.14h0Zm-12.6,2.43c-.34-.43-2.86-.51-2.24.13.57-.14,1.23-.17,1.78.09.36.27,1.1.25.46-.22Zm9.3-.25c-1.44.54-4.77-1.23-5.1.75,1.05-.15,2.03-.16,2.98.39,1.09.31,2.14-.39,3.24-.2.55-.54-.66-1.01-1.12-.95h0Zm-11.34-8.37c-.22-1.96-.68-7.33-.85-9.36-1.23,1.13,1.54,20.01.85,9.36Zm5.24-.09c-1.22-1.83-2.55-3.87-3.6-5.79-.09-.15-.29-.04-.26.11-.26,2.05,7.34,12.19,3.86,5.68Zm21.95,2.52c-9.41.36-9.01-4.37-16.79-7.2-1.08.64,3.68,2.68,4.22,3.25,3.05,2.55,6.19,5.09,10.46,4.55.45-.06,2.43.06,2.11-.6h0Zm-.03,1.21c-.65-.35-.18,2.49-1.56,2.91-3.29,2.03-6.6-2.92-9.91-.53-.43,1.31,1.74.21,2.39.35,2.05,0,3.63,1.85,5.77,1.48,2.02-.07,4.28-2.12,3.32-4.22h0s0,0,0,0Zm-18.27-110.75c-1.63,3.52-5.86,5.06-9.17,6.55-8.21,4.23-17.59,12.2-27.15,7.07-.42-.3-.81.33-.52.68,4.37,3.27,11.05,2.18,15.8.15,5.33-2.53,10.11-6.06,15.52-8.47,1.4-.13,7.85-5.76,5.52-5.98Z"/>
        <path class="cls-11" d="m91.41,107.01c-.22.82,2.35,5.96,3.07,5.02-.11-1.35-1.26-2.64-1.8-3.85-.22-.52-.7-2.42-1.28-1.17,0,0,0,0,0,0Zm39.01-41.8c-1.35,4.95-3.83,17.16-5.5,21.8-2.31,3.69-5.55,8.05-3.19,12.55.18.29.72.2.69-.19-1.43-4.55,1.13-8.2,3.46-11.84,1.94-6.69,4.9-16,4.55-22.32Zm-62.82-30.03c-3.96,7.55-3.61,15.49-.2,23.08-.73,11.11,2.01,21.68,5.9,32.03,1.61,5.11,4.23,9.78,7.16,14.23.2.31.67.03.49-.29-8.45-14.42-12.78-30.91-12.76-47.5-4.11-6.75-2.35-15.18-.6-21.56Zm13.87,30.95c-.33.72-.45,1.96-.68,2.74-.08.74-.74,1.93-.51,2.64.81.11.69-1.95.99-2.51-.03-.5,1-3.05.2-2.87Zm-3.11,9.48c-4.42.1.12,9.84,4.34,7.13,1.33-.72,2.44-1.94,4.07-1.73.44-.49-.77-.91-1.17-.85-2.01-.05-3.3,2.3-5.36,1.62-2.24-.82-4.29-4.78-1.88-6.18h0Zm7.6,6.32c-.06,1.24,2.72.89,3.49.34,1.08-.66,2.12-2.52.94-3.52-.15-.09-.3.06-.27.21.46,2.15-2.53,3.67-4.15,2.96,0,0,0,0,0,0Zm-6.69,6.99s.04-.06,0-.06-.04.06,0,.06Zm.18.26c.79-.34,1.55.18,2.29.41,2.65-.14,5.2-.12,7.72,1.05,2.97.76,6.83.19,8.79-2.36.18-.28-.16-.54-.42-.42-4.64,4.11-9.78-.09-14.82.73-1.26.31-2.86-.92-3.92.1-.27.26.07.61.37.48h0Zm2.89,3.77c.9,1.32,3.82,1.77,4.89.51l-.09.16c.3-.22.11-.67-.26-.62l.18.05c-1.11-.18-2.32.42-3.46-.09-.29-.05-1.29-.55-1.26-.01h0Zm-1.67-36.68c-2.76-2.46-9.04-3.63-11.38-.13-.84,3.81,2.94,8.03,6.87,7.32,1.74.1,4.97-3.75,3.76-4.71-1.07,1.18-1.43,3.03-3.15,3.52-7.86,1.16-10.16-10.94,2.38-6.2.39.08,1.42.79,1.53.2Z"/>
        <path class="cls-11" d="m74.38,55.71c-2.63-.96-3.93,3.58-1.52,4.71,2.32,1.47,5.48-1.46,4.09-3.85-1.09-2.48-5.58-.67-1.92-.34,2.6.69.85,4.42-1.4,3.68-1.47-.38-1.83-2.46-.63-3.36.32-.43,1.34-.29,1.38-.84,0,0,0,0,0,0Zm17.93,3.39c1.18-.9,1.72-2.11,1.82-3.57l-.36.47c6.21-2.7,12.46-.57,16.08,4.95.21.14.44-.09.4-.31-1.97-6.56-12.25-9.07-17.08-4.98.64,1.09-1.87,3.64-.86,3.44Zm1.19.24c1.32,6.02,11.03,6.45,13.7,1.25-.2-1.13-1.44.55-1.89.81-4.84,3.7-8.55,1.03-11.81-2.06Z"/>
        <path class="cls-11" d="m99.27,55.18c-7.47-.39-1.31,10.63,2.66,4.2,1.54-4.33-4.92-5.32-2.24-3.34,2.77,1.14.65,5.43-1.87,3.81-1.16-.8-1.68-3.02-.12-3.67.37-.39,1.76-.42,1.58-1Zm-17.84-6.67c-3.35,2.69-8.61-.32-12.3,1.38-.82.17-2.89,2.44-1.23,2.6,3.23-4.65,10.42.67,13.92-3.68.18-.25-.19-.46-.39-.3Zm7.92-.46c3.04,6.58,16.2,0,22.66,5.65-3.77-7.99-17.09-.57-22.66-5.65Zm-23.67-18.88c-2.33,2.79-3.43,6.84-4.56,10.27-1.69,3.59-.05,18.45,2.31,7.09l-1.02-.13c.62,3.29,1.06,6.81,3.12,9.57,1.49.43-1.15-3.78-1.1-4.7-.48-1.6-.93-3.35-.91-5.02-1.51-1.99-2.12,3.04-2.18,4.1l1.11-.3c-3.08-6.92,1.47-14.89,3.24-20.88,0,0,0,0,0,0Z"/>
        <path class="cls-11" d="m74.29,34.27c-17.21-3.74-8.22-25.5,10.12-21.57,1.07-.1,6.04,2.36,5.48.66-3.16-1.56-6.76-2.36-10.29-2.06-21.48.58-17.57,25.87-5.31,22.97Z"/>
        <path class="cls-11" d="m82.75,16.25c5.61-4.87,16.09,2.8,20.24-3.64-5.76,4.45-16.21-2.55-20.24,3.64,0,0,0,0,0,0Zm14.61,1.1c4.37.72,8.89-.63,12.79-2.56l-.65-.85c-9.42,8.62-10.12,5.09.49,7.34v-.92c-11.27,5.3,2.37-.21,8.75,5.87.24.1.51-.12.37-.37-3-3.71-8.74-4.5-13.18-3.41l.32.76c8.97-3.58.97-3.82-3.62-3.56l.45.77,7.18-5.73c.5-.4-.14-1.11-.65-.85-3.57,2.33-8.86,2.42-12.25,3.49,0,0,0,0,0,0Zm6.93,14.04c0,1.07,1.38.96,2.07,1.34,1.13.64,1.9,2.05,2.54,3.14,3.79,6.92,7.12,15.51,14.11,19.84.88,1.49,11.59,4.55,9.35,1.4-2.52-.7-4.61-2.53-5.61-4.95l-1.15.48c2.59,3.38,7.87,2.77,10.85.23.22-.18-.02-.5-.26-.44-3.04.91-7.12,2.69-9.51-.42-4.03-.95,3.37,6.88,5.32,6.38l.18-1.31c-17.78.31-17.6-23.2-27.89-25.7,0,0,0,0,0,0Z"/>
        <path class="cls-11" d="m113.17,42.62c-.38,2.29,1.77,5.19,2.6,7.28,1.41,3.11,2.96,3.05.69-.21-1.23-2.04-2.29-5.04-3.29-7.07Zm15.14,18.06c-1.88,2.58.27,11.33,2.98,12.21-1.87-3.81-3.17-8.07-2.98-12.21h0s0,0,0,0Zm.35,1.5c-.29,2.12,1.62,8.75,4.08,7.06-2.56-1.46-3.23-4.4-3.78-7.1-.02-.18-.3-.13-.31.04ZM79.57,9.67c1.33-3.24,3.51-7.36,6.93-8.63-.14-3.77-8.67,7.35-6.93,8.63,0,0,0,0,0,0Z"/>
        <path class="cls-11" d="m79.77,8.98c.25-.88,1.8-6.61-.12-5.7.36.79-.79,6.64.12,5.7Zm.89.57c32.12-16.71,73.45,10.54,60.59,47.71-.64,2.02-1.46,3.95-2.22,5.92,1.54,2.74,4.26-9.02,4.59-10.43,4.29-17.37-4.01-37.07-20.8-44.24-12.4-5.65-32.23-8.22-42.16,1.04,0,0,0,0,0,0Zm58.15,54.89c-2.58,5.27-5.76,11.58-4.77,17.64l.96-.56c-4.76-4.44-5.39.84-4.64,4.78l1.01-.14c-2.07-3.47-6.11,2.56-5.27,5.02.07.33.62.34.68,0-.05-1.43,1.94-6.08,3.6-4.75.11.56,1.06.45,1.01-.14-1.45-10.93,3.41-1.39,3.75-4.52-1.09-4.42.96-9,2.61-13.02.11-.81,2.2-4.19,1.05-4.32h0s0,0,0,0Zm-61.7-29.56c8.89,6.21,21.06.47,30.18-2.59,2.91-.74,6.08-.82,8.94.15.42.14.71-.53.31-.73-12.37-4.55-23.33,9.57-39.43,3.17Z"/>
        <g class="cls-19">
          <path class="cls-10" d="m107.74,228.22l-.11-.2c-2.44,3.37-4.08-5.24-1.92-6.12.12-.41.33-.83.65-1.07-1.79-2.48-1.4-5.8-3.58-8-2.21-1.87-3.16-4.73-5.44-6.63l.29-.14-2.5-2.89-.09.04c-1.84-1.84-2.51-4.48-4.35-6.32.05-.12.07-.25.09-.38-.83-1.09-1.23-2.42-1.02-3.75-2.63.7-4.84,2.34-7.02,3.92.2.58,1.21,1.33.53,1.88.14.66.75.89,1.26,1.18l-.07.16c-13.45.22-25.52,31.04-39.02,24.14-.68,1.11-1.31,2.24-1.85,3.43.19.02.42.05.55.2-.75,1.01-1.42,2.09-1.82,3.29-5.73-2.13-8.22,9.46-14.26,10.11-4.22,1.38-9.32-3.56-12.65,1.04,1.09.71,2.01,1.62,2.97,2.49.26-.3.6-.55.99-.65.73,2.38,3.81,2.72,5.91,2.43,2.03.86,4.55-.1,6.43-.99,1.37.55,4.35-1.38,4.07-2.94l.64-.75c.53.74,1.64,1.09,2.51.73,6.81-.4,11.79-8.65,16.57-13.13,10.5-7.65,19.78-18.22,31.75-22.98-13.52,7.8-25.96,18.42-36.87,29.62.58.31.13.79-.05,1.21.29,1.2.51,2.45,1.36,3.42,8.14-9.76,18.59-17.21,28.59-24.99,9.15-6.09,13.31-8.87,21.48.11.07,1.81,1.28,3.3,2.3,4.72-5.27,6.76,4.1,15.23,3.68,7.82h0s0,0,0,0Zm-19.2-23.6s-.02.05,0,.03h-.02c.02.18-.08.34-.09.52-.06-.42-.26-.8-.47-1.16.02-.1.05-.2.02-.3.2.29.5.56.56.91h0s0,0,0,0Zm-34.99-21.43c-1.93-6.01-3.14-14.15-4.96-20.05.15-.41.37-.8.69-1.14-.1-.91.13-1.8.33-2.7-7.81.55-3.51,10.9-3.38,15.83,1.52,6.26-5.03,16.36-2.53,19.13l.98-.57c.03-1.07,2.12-.37,2.14-1.6,4.45-.17,7.02-4.79,6.73-8.9Zm128.85,15.78c-.3-1.21.18-2.97-.96-3.76-.03-1.61-1.09-2.64-2.17-3.66-13.37-10.14,2.97-27.59-4.87-34.24-5.06-2.6-5.31,4.07-4.49,7.38-.42,4.75-2.85,10.02-4.99,14.21h0c-.63,1.28-1.3,3.18.27,4.04,3.73,5.66,3.73,12.63,5.26,18.81.17,1.21-.25,2.83.53,3.82.46,5.74,1.66,11.3,3.06,16.79.3.21.68.29,1.07.24.5-.74.95-1.5,1.65-2.08.02-.18.03-.35.05-.53.97-.61,2.75-3.6,2.44-4.74,3.09-5.02,3.13-10.57,3.14-16.29h0s0,0,0,0Z"/>
        </g>
        <path class="cls-13" d="m159,217.5h5.5c.13-2.22-2.17-5.04-2.97-7.14.05-1.58-.48-3.81-2.41-2.74-.22.91-.91,1.66-.95,2.6-.94.97-2.84,6.04-3.67,7.28h4.5Z"/>
        <g class="cls-19">
          <path class="cls-10" d="m137.74,108.89l-.12-.77c-.14.04-.29.08-.42.14-.02-1.4-1.47-2.29-2.69-2.39.12-1.68-.04-4.32-2.25-4.34-1.9-1.61-4.18-3.33-6.78-3.36-.84-.89-2.44-1.14-3.05.13-.09.03-.17.07-.26.11-.01-.01-.84-.65-.88-.67.09-.47.32-.89.58-1.29-.1-.62-.24-1.42-.43-2-.02-.82,1.02-1.62.9-2.4l.14-.21c.58-.11,1.42-.64.74-1.19,2.02-3.49,3.51-8.97,4.55-12.87.67-1.47,1.27-3.21,1.47-4.86.06-.01.1-.04.15-.05.08-.63.17-1.26.39-1.86-1.85-4.05-2.29-8.99-1.08-13.24-.1-.06-.22-.1-.34-.11.04-.2.05-.41.14-.59-.19-.13-.42-.22-.66-.26-.91-.72-2.34-.78-3.4-1.38-.48.56-1.85-1.08-2.24-1.23-.23-.34-1.22-.83-1.26-1.27-.77-.58-1.76-1.33-1.95-2.31-2.26-1.47-2.96-4.61-4.93-6.23-1.47-2.97-3.06-5.97-4.53-8.9-.9-1.67-2.42-2.75-3.83-3.91-1.64.33-3.21,1.62-4.82,1.64-1.04.51-2.17.93-3.19,1.47l-1.13.2c-3.98,2.02-9.52,1.67-13.7,1.6-2.6-.08-4.81-1.65-7.34-2.03,7.09,8.66,19.31,1.89,28.48,2.27,6.86.97,7.01,14.66,16.16,19.36,1.57,1.64,5.08,3.64,5.16,6.18,1.53,9.23.69,18.43-4.04,26.78-2.34,3.76-6.14,6.65-9.79,8.87-.29.09-.64.28-.94.34-.81-.22-1.81.93-2.54,1.22-1.36.44-3.81,1.32-4.57,2.63-3.08,2.24-6.97,2.94-10.07,4.98-.53-.63-1.71.21-1.25.93-.02.07-.02.14-.01.21-.17.32-.03.78.27.97,6.93-.03,13.59-8.2,20.21-2.91,4.25,3.04,4.94,6.24,1.02,9.89-.21.35-.59.24-.78-.02-.35.23-.69.48-1.03.72,1.15.64-.28,1.25-1.02.86-.08.09-.21.16-.24.28,5.58,1.48,10.74,3.5,13.45,9.93.67,2.09,3.62,4.53,4.36,1.16,1.42-1.46,4.03-2.57,4.28-4.73,1.49-1.74,2.71-3.84,3.67-5.91.21-.02.42-.06.63-.09.68-3.11,1.26-6.34.79-9.53h0s0,0,0,0Z"/>
        </g>
        <path class="cls-9" d="m4.74,205h155.26l1.08,3H4l.74-3Zm165.46,0h42.5l.29,3h-42l-.8-3Z"/>
      </g>
    </g>
  </g>
</svg>