<svg xmlns="http://www.w3.org/2000/svg" width="337" height="268" fill="none" xmlns:v="https://vecta.io/nano"><g clip-path="url(#A)"><path d="M203.248 162.444a26.74 26.74 0 0 0-.209-5.854v-.017h-.002l-.091-.708c-.205-1.177-1.479-1.937-2.608-1.922-.149-.166-.313-.328-.511-.477-.241-.18-.515-.303-.775-.452-1.606-1.203-3.316-2.109-5.303-2.569-.08-.018-.159-.022-.239-.034l-.467-.302c-.962-1.438-2.182-2.61-4.066-2.669-1.661-.052-2.981 1.882-2.283 3.392-.012.623.197 1.259.707 1.796.051.054.095.115.143.171l-.036.223c-.251.394-.4.85-.373 1.335.05.899-.004 1.74-.147 2.578a4.62 4.62 0 0 0-.468 1.552l-.044.114c-1.172 1.65-2.078 3.446-2.749 5.377l-2.663 3.723c-.076.106-.131.213-.185.319l-2.093 2.83a2.04 2.04 0 0 0-.232.494l-1.437 1.364a9.66 9.66 0 0 0-2.529 2.093l-1.149.944c-1.049.864-.888 2.209-.188 3.156l-.482.214c-2.863.436-5.764.9-8.339 2.269-.144.077-.276.169-.415.253a2.27 2.27 0 0 0-1.07.398c-.911.626-1.755 1.316-2.565 2.039a3.22 3.22 0 0 0-.806-.488l.303-.981c.459-1.487-.577-2.743-1.838-3.195-.675-1.856-3.576-2.667-4.752-.618-1.068-.967-2.81-1.187-3.754.103-.865-.994-2.437-1.204-3.559-.358-.785-1.105-2.127-1.816-3.586-1.932a2.46 2.46 0 0 0-1.127-2.401c1.152-2.284-1.349-4.424-3.407-3.443a3.1 3.1 0 0 0-1.181-1.023c-.132-.557-.488-1.039-.962-1.386-.135-.823-.619-1.553-1.27-1.982-.117-.712-.508-1.402-1.026-1.802-.278-.214-.572-.361-.872-.449-.086-.298-.235-.594-.453-.877-.337-.435-.838-.76-1.384-.929-.209-.587-.627-1.114-1.143-1.483-.041-1.323-1.03-2.547-2.332-2.693 1.093-1.706-.096-3.689-1.846-4.022l.741-.45c2.24 1.465 5.235-1.927 3.204-4.337l-.843-1c-.774-.92-2.281-.964-3.264-.421-5.382 2.966-10.232 6.825-14.315 11.418-1.61 1.812-.385 4.076 1.385 4.5-.007.635.273 1.238.725 1.714-.748.958-.704 2.046-.219 2.906l-2.567 2.554c-2.011 2 .13 4.863 2.349 4.543.549.957 1.632 1.596 2.754 1.395-.099.092-.191.191-.29.283-2.158 2.039.231 4.909 2.586 4.353.076.13.161.253.256.37l-1.982 2.255c-2.208 2.554 1.205 6.041 3.727 3.727.174-.161.342-.329.515-.491.088 2.008 2.901 3.683 4.476 1.814l.24-.286c.569.415 1.26.63 1.915.515l-2.571 4.821c-1.509 2.899 2.787 5.449 4.403 2.573l.223-.398c1.097.435 2.369.203 3.289-.668.323-.307.494-.725.544-1.158l.938-.679c.102.291.211.582.336.871.576 1.331 2.495 1.579 3.621.949a4.91 4.91 0 0 0 .791-.561c.416.341.928.568 1.401.624 1.114.132 2.002-.363 2.638-1.264.054-.074.094-.154.146-.228.189.11.393.207.626.271.508.139 1.041.111 1.528-.052.644.376 1.485.429 2.219.193.03.036.043.076.075.112.937 1.079 2.769.968 3.75.008.837.385 1.875.385 2.727-.17.851.214 1.811.062 2.544-.602.008-.006.014-.013.02-.02.57.605 1.328 1.03 2.172 1.137 1.571.202 2.722-.611 3.86-1.581.123-.104.25-.195.374-.297.552.901 1.558 1.463 2.819 1.072.926-.288 1.837-.619 2.744-.956.539 1.176 1.931 2.055 3.223 1.642a28.73 28.73 0 0 0 2.922-1.12c.579.511 1.404.767 2.392.534 1.807-.428 3.536-1.105 5.159-1.995.864.272 1.778.322 2.813.094 1.637-.359 2.114-1.705 1.799-2.922.503-.062.993-.257 1.385-.627.169-.158.311-.338.473-.502.69.118 1.405-.033 1.922-.52.988.896 1.734 1.93 3.31 1.883.556-.017 1.028-.19 1.451-.446.345-.02.71-.121 1.082-.338.933-.544 1.514-1.315 1.873-2.211.852-.949 1.823-1.804 2.42-2.977.957-1.879 1.422-4.056 1.987-6.073 1.221-4.347 2.186-8.806 2.183-13.34 0-1.029-.471-1.731-1.126-2.115l-.015.003z" fill="#f2f0e7"/><g fill="#88889a"><path d="M137.053 267.844c-1.153-.633-2.279-.658-3.37-.367-.109-.144-.19-.305-.32-.434-1.402-1.371-3.351-1.268-5.076-.691l-4.697 1.599c-2.428.869-4.639 2.136-5.9 4.288l-.226.11a1.9 1.9 0 0 0-.388.255 24.74 24.74 0 0 0-3.754 1.455c-.186.092-.344.22-.488.359l-1.035.414c-.103.041-.203.095-.302.147-.893.212-1.753.565-2.432 1.179-.923-.535-2.18-.432-2.939.766-2.204 3.47-2.933 8.061-3.281 12.088-.364 4.2-.037 8.478.888 12.589 1.585 7.041 5.054 14.515 11.649 17.957.5.868 1.529 1.386 2.599.772.571-.118 1.081-.475 1.479-.932 3.142-1.968 6.301-3.649 9.965-4.598 1.831-.473 4.05-.499 5.432-1.973 1.727-1.843 1.235-4.565-.557-6.157-1.328-1.179-3.083-1.732-4.429-2.916-1.261-1.108-2.295-2.39-3.151-3.83-1.805-3.032-2.798-6.564-3.142-10.065a3.7 3.7 0 0 0-.405-1.232c-.003-.167-.019-.335-.048-.503-.481-2.771-.588-5.634-.309-8.442.423-.005.868-.105 1.326-.359 3.681-2.045 7.461-3.883 11.291-5.632.493-.225.849-.669 1.067-1.182 1.863-.629 2.662-3.511.552-4.667l.001.002zm53.175-81.256c-.115.083-.224.152 0 0z"/><path d="M210.983 170.098a2.17 2.17 0 0 0 .104-.323c.246-1.127-.112-2.175-.674-3.142l-.259-.448c-.028-.188-.043-.825-.088-1.151-.079-.563-.234-1.086-.535-1.577-.155-.253-.356-.499-.569-.707l-.016-.125c-.449-2.148-3.673-2.503-4.684-.613-.46.863-.522 1.861-.206 2.73.043 1.271-.28 2.64-.483 3.845l-1.064 5.035c-.43 1.544-1.029 2.949-1.708 4.394-.573 1.218-.958 2.375-1.093 3.598-.007.012-.018.019-.026.031l-1.859 3.441-.487.752-1.243 1.586-.195.251a2.06 2.06 0 0 0-.64-.696c-.079-.475-.292-.922-.654-1.254-.98-.898-2.409-.916-3.383 0l-.604.548-.312.262c-.018.015-.045.033-.069.051l.118-.08-1.258.894-1.332.782-.731.361-.282.124c-.947.381-1.937.713-2.807 1.252-.236-.003-.482.017-.748.093l-8.189 2.153-4.255.596-4.809.35-6.417.141a2.78 2.78 0 0 0-1.1-.383c-1.881-.226-3.742-.229-5.6-.081-1.811-.192-3.624-.259-5.449-.204l-4.306-.302a2.36 2.36 0 0 0-1.306.368c-.606-.198-1.225-.36-1.854-.491-.9-.291-1.817-.524-2.758-.671-.377-.059-.743-.05-1.093 0-.433-.526-1.073-.838-1.749-.967-.635-.232-1.288-.24-1.89-.024-.721.189-1.385.644-1.706 1.251-.214.405-.293.801-.313 1.187-.134.134-.25.281-.339.443l-.049.039c-.557.534-.836 1.331-1.073 2.043-.295.894-.419 1.858-.433 2.807l-.093.349c-.181.786.034 1.565.534 2.128a2.33 2.33 0 0 0 .755.888c.138.218.321.414.507.558.332.256.761.441 1.192.421.133-.006.257-.046.385-.074.233.868.911 1.552 1.831 1.868 2.235.77 4.595.97 6.923.726.012 0 .024.002.038.003 1.867.507 3.846.494 5.815.472 2.083 1.177 4.409 1.677 6.814 1.408l1.249.025a2.51 2.51 0 0 0 .788.117c2.186-.045 4.359-.236 6.514-.547a2.04 2.04 0 0 0 1.217.241 54.13 54.13 0 0 0 8.045-1.482c.544.632 1.42 1.017 2.549.83 4.465-.735 8.782-2.106 12.863-4.062 3.842-1.841 8.059-4.257 10.772-7.611.303-.374.483-.767.568-1.152.312-.277.582-.609.846-.946l1.143-1.468.251-.324c1.343-1.346 2.539-2.87 3.421-4.552l.385-.756c.126-.084.258-.161.365-.268.264-.264.497-.554.737-.84 1.327.682 3.349-.359 3.354-2.028.003-1.552 1.08-2.989 1.903-4.254 1.124-1.73 2.033-3.595 1.986-5.705-.02-.912-.509-1.661-1.184-2.135l.002.001z"/><path d="M129.394 193.744c-.032-.021-.084-.033-.132-.039.048.013.066.024.094.034.013 0 .021.004.036.005h.002z"/><path d="M134.907 200.24c-.641-.124-1.331-.174-1.998-.229.331-.183.622-.442.84-.782 1.067-1.659.188-3.828-1.411-4.774-.79-.467-1.648-.585-2.543-.676l-.39-.033c-.001.007.011.013.015.022-.003-.006-.042-.018-.065-.027-.286-.027-.209-.048-.094-.035l-.638-.153c-.104-.062-.22-.112-.326-.171l-.768-.455-1.672-1.029-1.606-.921-.107-.061-.186-.161c.431.329-.282-.271-.352-.33l-.556-.433c-.407-.357-.791-.731-1.15-1.137l-.349-.415c.064.071-.133-.181-.274-.364l-1.056-1.52c-.352-.507-.858-.904-1.422-1.136l-1.288-2.02-1.725-3.357c-.211-.409-.543-.718-.931-.929l-.442-.576-.3-1.132c.088-.52.004-1.096-.347-1.693-.175-.294-.297-.596-.452-.891l-1.263-3.23-.23-.909c-.379-1.79-.295-3.585-.442-5.393-.194-2.388-3.406-2.919-4.199-.568-.059.176-.085.362-.135.541-.551.499-1.045 1.012-1.483 1.626-.57.802-.842 1.764-.913 2.736-.006.089 0 .179 0 .268-.503.655-.733 1.52-.477 2.34l1.5 4.402.82 2.791c-.12.3-.182.617-.148.937.247 2.322 1.274 4.08 2.819 5.794l.473.515c.034.379.115.761.295 1.137 1.107 2.323 2.681 4.382 4.564 6.114a14.67 14.67 0 0 0 1.77 1.82c-.379.972-.056 1.968.58 2.792 1.035 1.34 2.547 2.234 4.059 2.939l5.253 2.246c1.778.668 3.586 1.137 5.472 1.373.841.105 1.668.093 2.358.279l.524.162.084.026c.009.006.012.007.022.013l.266.175a7.44 7.44 0 0 0 .288.312c1.186 1.396 3.963.317 3.769-1.561-.232-2.245-1.831-3.83-4.038-4.256l.005-.003z"/></g><path d="M339.553 463.52a2.56 2.56 0 0 0-.232-.95 95.52 95.52 0 0 0-1.009-9.805c-.053-.344-.208-.644-.423-.9-.282-3.399-.384-6.816-.462-10.227l-.194-8.239-.112-3.541c.194-1.956.348-3.911.278-5.859-.018-.488-.183-.915-.444-1.27l-.003-.227c.555-6.355.347-12.747.256-19.115-.094-6.546-.134-13.097-.55-19.63-.05-.79-.389-1.389-.865-1.804l-.597-7.737c-.069-.752-.397-1.326-.849-1.734-.229-2.702-.409-5.502-1.417-7.996-.143-.353-.341-.634-.564-.875-.008-.144.011-.286-.021-.432l-3.495-15.829c.588-1 .9-2.161 1.006-3.405.32-.394.516-.904.488-1.531-.159-3.516-.847-6.911-2.178-10.173-.183-.45-.447-.797-.75-1.068-.054-.134-.097-.269-.153-.402-.242-.58-.615-.996-1.044-1.276l-.738-2.792c-.737-4.28-1.643-8.525-2.719-12.732l-1.031-5.347c-.303-2.151-.641-4.296-1.075-6.425-.007-.037-.022-.067-.031-.102.289-.517.429-1.153.272-1.921l-2.782-13.724c-.866-4.268-1.61-8.588-3.198-12.662a3.16 3.16 0 0 0-.337-.627l-.119-.972c-.449-3.307-1.011-6.597-1.634-9.875-1.223-6.43-2.751-12.816-4.073-19.227-.139-.675-.466-1.132-.882-1.42-.954-4.708-2.061-9.381-3.555-13.95-1.326-4.958-2.922-9.844-4.82-14.606-.268-.673-.705-1.214-1.279-1.517l-.615-1.488c.375-.696.474-1.548.057-2.354-1.071-2.072-2.329-4.027-3.727-5.881-.464-.929-.962-1.835-1.493-2.723.175-.567.122-1.196-.3-1.792-2.631-3.722-5.433-7.319-8.328-10.838-.317-.408-.653-.802-.979-1.202l-1.128-1.385c-.028-.033-.059-.055-.088-.086l-.122-.149c.323-1.058-.029-2.273-1.045-2.842l-4.645-2.599c-.133-.656-.514-1.259-1.126-1.588l-1.81-.973c-.547-.408-1.098-.81-1.667-1.189-1.349-.897-2.77-1.626-4.286-2.203-.135-.052-.288-.046-.435-.059-.355-.206-.712-.405-1.058-.626a2.23 2.23 0 0 0-.645-.275l-.929-.498c-.623-.335-1.342-.382-1.978-.178l-.16-.092c-.498-.299-1.085-.376-1.633-.262-5.132-3.271-11.742-4.586-17.577-5.864-6.331-1.385-12.731-2.013-18.951.115-.015 0-.03-.003-.045-.003-.354.005-.705.03-1.058.044l-.529.011c-.064 0-.303-.013-.373-.01-1.466-.204-2.84-.803-4.358-.725-.51.025-1.026.115-1.529.204-.203.037-.409.071-.609.118-.092-.098-.167-.204-.27-.297-.085-.077-.179-.147-.273-.213-.139 0-.278.006-.418.006-.826.001-1.793.013-2.633-.202-.945.623-1.652 1.914-1.229 3.059.176.475.426.879.705 1.248-.035.096-.086.178-.118.276-.08.258-.14.52-.211.779l-.308.523a4.04 4.04 0 0 0-.551 1.576c-.088.66.02 1.277.132 1.912.004.057.003.116.003.174.001.03.003.053.001.077-.101.338-.147.681-.027 1.055a2.02 2.02 0 0 0 .205.456l-.214.637c-.593 1.679-1.21 3.354-1.893 4.998-1.405 3.376-3.16 6.736-5.597 9.485-2.493 2.814-5.591 5.585-8.76 7.608-1.845 1.179-4.077 2.143-5.861 3.545-1.052.356-2.093.791-3.089 1.139l-.202.065c-.032.004-.051.007-.035.004-.333.046-.665.09-.995.155-.91.177-1.793.465-2.672.755-.892.294-1.886.536-2.75.953-1.171.28-2.346.541-3.531.764-5.953 1.117-12.019 1.249-18.008 2.02-3.003-.197-5.993-.594-8.973-1-7.258-.987-14.368-2.268-21.331-4.473-.762-.771-1.744-1.171-2.825-1.12-.547-.458-1.135-.876-1.723-1.259-1.997-1.301-3.922-2.524-5.627-3.956-1.763-1.481-3.495-3.236-4.711-5.044-1.429-2.125-2.073-4.685-3.775-6.623-.141-.161-.303-.274-.47-.376l-.641-3.248c-.214-1.249-.3-2.507-.324-3.772-.078-.108-.126-.238-.132-.397a38.41 38.41 0 0 1-.41-2.977l.272-.426c.347-.512.45-1.411.26-1.994-.175-.546-.471-.993-.927-1.345-.437-.336-1.002-.58-1.569-.556-.423.02-.896.126-1.294.341-.561.008-1.135.236-1.552.559-.379.293-.628.647-.788 1.047l-.991.313a35.2 35.2 0 0 1-5.559 1.109c-3.687.435-7.414.429-11.122.4-3.546-.029-7.172-.273-10.574.919-1.097.383-2.305.868-3.475 1.467-1.191.494-2.372 1.035-3.542 1.588-5.509 2.601-11.403 5.156-15.614 9.7-.565.493-1.085 1.038-1.601 1.588-.815.62-1.575 1.302-2.273 2.048-.017.012-.033.024-.051.035a2.21 2.21 0 0 0-1 .448c-1.76 1.355-3.152 2.938-4.216 4.764a10.35 10.35 0 0 0-.793.796c-2.016 2.22-3.671 4.812-5.155 7.405-3.19 5.573-6.613 11.673-7.998 17.989-1.488 6.784-1.228 14.054-1.293 20.961-.052 5.457.192 10.803 1.163 16.107-1.755 5.017-1.3 10.726-1.855 15.929-.121 1.143-.293 2.274-.482 3.4-.409.13-.777.399-1.018.852-.041.079-.074.16-.115.239-.5.24-.916.653-1.094 1.263l-.967 3.295a2.03 2.03 0 0 0-.079.488l-1.082 2.843-3.443 8.433c-1.128 2.679-2.331 5.323-3.516 7.975-.238.532-.482 1.093-.711 1.667l-2.131 4.029c-2.398 4.639-4.95 9.619-6.026 14.766-1.228 5.864.75 11.273 3.012 16.591l.247.592c.242.565.653.901 1.128 1.068.032.199.061.397.102.591.63 3.003.796 5.991 1.037 9.044.208 2.626.168 6.314 2.005 8.398 1.828 2.072 5.464 2.528 7.925 3.492 2.583 1.011 5.885 2.114 7.951 4.03 1.963 1.821 3.403 3.939 5.829 5.233 3.771 2.014 8.665 2.475 12.611.722.009.003.015.007.026.012.559.204 1.175.307 1.772.295.823-.018 1.622-.233 2.355-.597.503-.249.937-.641 1.453-.859 1.105-.469 2.231-.775 3.165-1.722.829-.84 1.39-1.879 1.911-2.924 1.775 1.301 4.218 1.407 6.311.922 2.122-.493 3.845-1.87 5.415-3.313.791-.728 1.531-1.51 2.242-2.315.088-.037.183-.051.264-.104 1.749-1.135 3.18-2.753 4.662-4.204l2.242-2.21c.062.409.164.809.352 1.188.097.197.229.374.326.568l.003.006c.085.511.04 1.054.135 1.574.097.527.279.994.493 1.486.458 1.049 1.168 2.012 2.028 2.86-.873 2.865-.376 6.378.458 9.011 1.355 4.278 4.024 8.148 3.162 12.832s-4.936 7.737-6.126 12.352c-.473 1.836-.82 4.108-.394 6.03-.232.959-.355 1.984-.455 2.954-.4 3.899-.997 7.746-1.893 11.564-2.228 2.479-3.678 5.635-5.326 8.484-1.041 1.8-2.349 3.445-3.122 5.388-.835 2.099-1.411 4.356-1.684 6.596-.488 4.01.17 8.89 2.895 12.054.509.591 1.132 1.088 1.825 1.489 1.122 1.043 2.801 1.586 4.271 1.549 1.253-.032 2.452-.415 3.656-.721 1.34-.341 2.574-.337 3.948-.253 5.858.356 11.658 1.647 17.157 3.686 2.596.962 5.029 2.205 7.52 3.396 1.363.652 2.768 1.241 4.196 1.74 1.127.394 2.844.488 3.81 1.11.195.125.576.722.865.935.593.433 1.258.685 1.942.942 1.441.544 2.939.926 4.427 1.314 2.805.731 5.608 1.557 8.454 2.113.109.021.211.023.314.032 1.015.579 2.296.861 3.363 1.134 2.423.618 4.897 1.008 7.376 1.323 4.877.621 9.794.739 14.697.391 4.883-.349 9.744-1.082 14.559-1.958 4.791-.87 9.721-1.821 14.336-3.426.993.137 1.949-.335 2.349-1.17a20 20 0 0 0 1.267-.283c.243.007.494-.006.767-.067 7.934-1.8 15.867-3.668 23.976-4.495a123.33 123.33 0 0 1 12.259-.64c1.943-.004 3.883.075 5.826.096 1.668.018 3.436-.315 5.105-.252.379.109.777.129 1.156.071.749.179 1.457.134 2.218.003 1.247-.213 2.481-.518 3.73-.733 1.271-.22 2.453-.403 3.381-.514.665-.08 1.355-.11 2.008-.262.394-.091.793-.247 1.141-.45.037-.023.072-.049.108-.071.144-.037.28-.096.415-.155.543.111 1.113.032 1.596-.332.221-.167.516-.341.696-.53.042-.046.077-.099.117-.146.404.032.809-.045 1.154-.288 1.889-1.326 2.381-3.545 2.833-5.679l.252-1.264c.882-1.055 1.159-2.698 1.447-4.136.481-2.405.835-4.886.693-7.343-.138-2.396-.703-4.715-1.551-6.954a53.08 53.08 0 0 0-1.414-3.376l-.288-.629c-.047-.196-.11-.394-.203-.599-.89-1.951-1.832-3.877-2.849-5.765-.391-.726-.796-1.443-1.205-2.159-.144-.563-.3-1.124-.473-1.68-.312-1.963-.447-3.943-.464-6.02-.027-3.368-.677-6.527-1.609-9.756-.466-1.612-1.005-3.238-1.952-4.638-.82-1.214-1.871-2.252-2.627-3.512-1.547-2.578-1.873-5.611-1.096-8.493.265-.984-.021-1.783-.557-2.35.125-.291.204-.621.212-1 .053-2.66.191-5.314.398-7.963l.259-2.607a186.33 186.33 0 0 1 1.128-8.031c.411-2.516.731-4.976.681-7.531l-.029-2.599c.036-.088.08-.168.109-.264l.499-1.617c.228-.27.419-.609.551-1.034 1.783-5.765 3.526-11.773 2.731-17.866-.761-5.838-3.921-11.035-5.012-16.829-.127-.679-.529-1.169-1.05-1.481 2.746-6.114 3.924-12.813 3.65-19.619-.022-.522-.16-.957-.366-1.325.384-4.594.832-9.178 1.946-13.66.144-.581.071-1.126-.135-1.608.275-.705.558-1.402.798-2.108.095.119.178.238.286.359 1.594 1.77 1.714 4.212 2.821 6.314 1.289 2.451 2.853 4.645 3.892 7.244 1.032 2.583.808 5.602 1.218 8.342l1.452 8.838 1.543 9.332c.186 1.129.293 2.288.562 3.308.191 3.91 1.057 7.668 2.524 11.294.004.108.004.213.024.325.106.632.253 1.255.382 1.882-.114.39-.112.779-.042 1.217.222 1.404.456 2.813.903 4.165.071.215.157.427.239.641l.429 2.163c-1.076 1.973-.935 4.028-.209 5.996.268 2.423 1.27 4.84 2.461 7.096a45.89 45.89 0 0 0 4.258 7.247l.132.213c-.185.536-.143 1.174.268 1.85l2.981 4.914c.015.031.04.06.056.092-1.762.879-2.507 2.927-2.157 4.799.346 1.85 1.857 3.278 3.693 3.632.09.017.18.017.269.029-.312 4.671.452 9.211 1.769 13.624a2.61 2.61 0 0 0 .077.764 42.59 42.59 0 0 0 .77 2.586c1.243 3.978 2.83 7.835 4.411 11.695 1.321 3.229 2.493 6.572 4.207 9.608-.143.52-.13 1.09.105 1.632.759 1.755 1.044 3.482 1.344 5.347.303 1.889 1.015 3.674 1.408 5.543.847 4.033 1.608 8.369 1.653 12.488.023 2.022.154 4.07.026 6.087-.135 2.133-.58 4.236-.645 6.375-.091 2.934.398 5.877.986 8.775-.398.728-.523 1.634-.157 2.48.28.648.665 1.18 1.157 1.626l.561.999c-2.402 1.82-3.076 6.255-3.261 8.88-.27 3.837.357 8.192 3.958 10.316 1.057.623 2.181.346 2.944-.398l.539-.07 1.88-.242 3.758-.485 7.519-.975 7.293-.879c2.401-.227 4.855-.165 7.239-.47a3.19 3.19 0 0 0 .494-.106c.791.317 1.573.261 2.266-.055 1.09.957 2.551 1.124 3.769.537.084-.006.171-.001.252-.014.633.625 1.314 1.214 1.888 1.798 1.399 1.422 4.408.447 4.205-1.742l-.431-4.568c.747-4.189.662-8.416.477-12.659l.008.001zM135.119 299.88c-.247.144-.478.299-.719.452-.107.068-.218.131-.331.192-.032.017-.07.029-.105.041.024-.005.026-.006.058-.012-.029.006-.06.018-.09.026-.111.031-.161.028-.004-.005-.09-.082-.193-.158-.293-.235.005-.044-.004-.088.008-.13.033-.378.31-.756.795-.756a.7.7 0 0 1 .266.056c.312-.44 1.044-.566 1.28.075.003.009.005.02.008.029-.293.029-.587.1-.875.27l.002-.003zm83.038 46.412c-1.126 2.512-1.903 5.166-2.434 7.863-.116.594-.212 1.195-.306 1.793-.047-.039-.077-.091-.127-.127-.199-.7-.664-1.311-1.373-1.61-1.14-.48-2.415-.04-3.069 1.007-.044.07-.081.141-.125.21-.115-.021-.219-.071-.342-.072a2.16 2.16 0 0 0-1.713.733v-.059c.44-.47.71-1.111.77-1.805l.07-.788c.582-.267 1.053-.74 1.178-1.407.404-2.164-.123-4.263-.643-6.374-.167-.681-.641-1.22-1.235-1.546l-.047-.75c-.073-1.178-.838-2.204-1.961-2.478-.046-1.052-.107-2.102-.113-3.157-.012-2.115-2.155-2.844-3.642-2.198-.142-.141-.3-.274-.491-.386-1.138-.666-2.544-.308-3.349.68-.908 1.116-.661 2.554.092 3.677.078.115.173.186.261.276v.053l.108 2.463c.103 1.709.284 3.416.492 5.115.368 3.004.866 5.987 1.49 8.948a1.96 1.96 0 0 0-.379.277c-1.478 1.414-2.886 3.042-3.61 4.982a2.39 2.39 0 0 0-1.273.393c-.04-.068-.067-.141-.109-.206-.41-.623-1.001-1.04-1.686-1.192-.232-.394-.554-.754-1.032-1.067-1.097-.718-2.461-.227-3.216.708l-.024-.353c-.02-.379-.021-.758-.009-1.137.01-.338.036-.674.071-1.011.001-.019.001-.025.003-.039s.005-.023.008-.046l.09-.497a14.92 14.92 0 0 1 .578-2.068c.05-.141.103-.279.156-.419.018-.044.042-.1.065-.147a15.85 15.85 0 0 1 .459-.9c.514-.92 1.177-1.632 1.16-2.76-.011-.782-.406-1.472-.99-1.907l-.247-.383c.543-.359.9-.956.928-1.658.044-1.114.132-2.184 0-3.295-.147-1.25-.393-2.458-.723-3.671-.197-.723-.704-1.238-1.316-1.538-.007-.693-.038-1.385-.104-2.075-.114-1.162-.776-2.102-1.91-2.386l.017-.506c.088-2.605-4.058-3.236-4.606-.623-.5 2.38-.779 4.832-.652 7.266.026.505.056 1.04.109 1.575l-.08 1.449c-.064 1.141.163 2.237.942 3.016-.127 3.204-1.311 6.177-3.414 8.567-1.273-.407-2.877.028-3.372 1.463-.619-.026-1.227.135-1.678.537-.074-1.496-.012-3 .236-4.47.2-1.175.314-1.855 1.043-2.711a3.43 3.43 0 0 0 .409-3.9c-1-1.852-3.055-2.032-2.614-4.503.429-2.402 1.456-4.488.941-6.999-.471-2.304-2.584-4.795-5.176-4-2.567.787-2.848 4.335-3.102 6.54-.112.973-.17 2.024-.56 2.937-.46 1.08-1.486 1.875-2.311 2.665l-1.255 1.199c-.106.047-.21.088-.317.15-.751.445-1.674 1.123-2.588 1.177a1.15 1.15 0 0 1-.694-.151c-.031-.979.318-1.919.109-2.95-.161-.797-.502-1.502-.943-2.153.171-.509.396-.934.711-1.099 1.093-.571 1.202-1.822.732-2.755.427-.846.565-1.725.164-2.736-.337-.844-.54-1.481-.437-2.422.117-1.062.447-2.093.562-3.162.137-1.271-.127-2.44-.694-3.576-.515-1.034-1.826-1.458-2.925-1.192-.041-.088-.07-.175-.123-.26-.369-.591-.8-1.025-1.382-1.411-.145-.097-.298-.182-.45-.272-.029-.016-.114-.077-.191-.132-.02-.028-.041-.054-.059-.087-.082-.15-.202-.454-.074-.132-.202-.513-.388-1.029-.623-1.528-.876-1.863-2.613-3.584-4.755-3.657l-.486-.841c-.509-.92-.949-2.054-1.704-2.81-.274-.275-.6-.464-.95-.591-.761-1.084-1.435-2.246-1.984-3.427l-.127-.282c-.015-.039-.084-.206-.09-.221l-.275-.734c-.191-.541-.357-1.091-.514-1.643-.316-1.103-.587-2.222-.969-3.304-.848-2.402-2.598-6.323-5.856-5.339-1.325.4-2.157 1.523-2.402 2.817-.332-.148-.678-.265-1.045-.318a3.03 3.03 0 0 0-2.476.68c-.139.043-.276.064-.415.125-.693.3-1.219 1.294-1.164 2.028.053.71.372 1.353.842 1.823.164.605.47 1.143.928 1.573.305.775.673 1.479 1.294 2.058.312.291.666.543 1.008.794l.323.231c.185.173.374.336.546.524.028.032.194.262.204.265a.73.73 0 0 0 .037.058c.142.223.25.459.38.688.036.097.076.193.108.291.08.246.145.496.198.747.003-.024 0-.032.006-.06-.006.036 0 .08.003.122a.69.69 0 0 1 .009.119c.006.039.012.079.014.113s-.006.079-.008.116c-.412.73-.961 1.368-1.738 1.785-.33.177-.646.061-.844-.171a6.65 6.65 0 0 1-.506.271c-.322.155-.587.418-.795.733-.374.175-.747.351-1.083.578-.303.206-.622.441-.926.699-1.816.768-3.488 1.74-5.078 2.847-1.239.72-2.414 1.569-3.463 2.548l-.564-.185c-.074-.112-.18-.198-.268-.3-2.804-.442-5.251-2.22-7.188-4.215-1.177-1.211-2.501-2.784-3.123-4.503-.043-.044-.08-.094-.125-.137-.419-.404-.92-.602-1.427-.658-.015-.02-.031-.037-.045-.056-.485-.84-.94-1.692-1.364-2.563l-.126-.429c-.189-.567-.368-1.137-.541-1.708a50.67 50.67 0 0 1-.967-3.726 44.31 44.31 0 0 1-.956-6.908c-.264-4.677.241-9.607 1.625-14.099a5.37 5.37 0 0 0 .453-.755 5.94 5.94 0 0 0 .326-.755c.394-1.115-.36-2.375-1.402-2.813l2.891-1.088 9.202-3.328c.48-.175.9-.44 1.227-.779 2.663-.793 5.361-1.481 7.995-2.233a2.68 2.68 0 0 0 1.264.314c.208 0 .432-.035.643-.068.019 0 .019 0 .051-.002a12.84 12.84 0 0 1 1.287.008c.096.028.286.039.33.05.231.051.458.113.682.189l.252.09c.168.086.338.166.502.262.157.092.307.195.46.295.032.028.066.053.096.081.158.138.309.283.453.436a6.51 6.51 0 0 1 .235.261 5.63 5.63 0 0 1 .08.097l.146.21a6.89 6.89 0 0 1 .321.542c.376.706.702 1.315 1.482 1.694.926.45 1.936.456 2.779-.196.43-.331.718-.791.863-1.294.325.059.657.091.995.073 1.586-.086 3.084-.947 4.554-1.478 1.537-.555 3.098-1.036 4.673-1.473 3.082-.855 6.236-1.469 9.422-1.766.603-.056 1.178-.136 1.71-.279 1.217 1.011 2.97 1.484 4.425 1.848 1.757.441 3.054.837 4.521 1.604 2.839 1.485 4.749 3.505 6.33 6.313.153.273.353.481.569.661.278 1.202.78 2.369 1.192 3.52l4.101 11.294c.493 1.332 1.873 2.422 3.378 1.919a2.92 2.92 0 0 1 .984-.128c.808.731 1.835 1.279 2.764 1.78 1.34.72 2.76 1.332 3.986 2.247 1.295.966 2.133 2.375 3.461 3.31.392.278.812.502 1.245.698.023.022.052.039.075.062 1.02 1.949 2.985 3.533 5.233 3.637.975.046 1.907-.239 2.731-.726a3.41 3.41 0 0 0 1.232 1.266l-.048 1.162-.052.75-.006.11c-.06.313-.116.624-.204.932-.046.157-.1.31-.15.466-.005.014-.005.016-.008.028-.012.019-.017.025-.033.051l-.111.196-1.111 1.05a2.47 2.47 0 0 0-.661 1.131c-.074-.194-.133-.402-.21-.594-.237-.588-.479-1.183-.766-1.749-.589-1.169-1.617-2.057-2.879-2.416-1.116-.319-2.39-.337-3.547-.413-1.024-.066-2.054-.092-3.077-.004-1.226.104-2.499.283-3.64.765-.978.413-1.692 1.181-1.837 2.266-.117.867.196 1.595.682 2.287 1.179 1.676 2.511 3.266 3.995 4.682 1.655 1.579 3.506 2.983 5.491 4.122.775.444 1.817.449 2.618.015.454.328.942.614 1.446.836.069.121.112.25.197.368 1.605 2.246 4.475 2.955 6.332 4.897 2.078 2.173 3.445 5.427 4.954 8.007 1.448 2.473 2.697 5.776 4.87 7.719.733.658.529.433.711 1.286.082.387.086.784.135 1.178l-.516 1.052.012-.005z" fill="#585577"/><g fill="#f2d6ca"><path d="M203.713 81.293c.111-1.005-.318-1.81-.991-2.31l.258-1.919c.203-1.51-.882-2.993-2.196-3.221l1.428-8.237c.542-3.134-4.097-4.539-4.853-1.338l-.79 3.45.039-.473a2.32 2.32 0 0 0-.06-.693c.018-.865-.343-1.564-.887-2.038l.605-3.354c.567-3.149-4.138-4.547-4.867-1.341l-.323 1.416a2.65 2.65 0 0 0-.551.171l.256-3.362c.13-2.275-2.48-3.069-4.041-2.057-.553-1.907-3.17-2.681-4.366-1.235-.184.033-.363.083-.534.161-.738-.958-1.969-1.469-3.133-.588a10.87 10.87 0 0 0-1.453 1.328l.203-1.209c.432-2.73-2.708-4.15-4.306-2.567-.986-.477-2.199-.379-2.934.544-.809-.6-2.054-.693-3.008-.221-.57-.308-1.233-.423-1.846-.306-.341-2.583-4.305-2.98-5.055-.299l-.162.594c-1.141-1.593-4.444-1.085-4.642 1.502l-.414 3.9c-.523-.399-1.155-.641-1.781-.673-.159-.899-.377-1.793-.7-2.675-.938-2.563-4.526-2.128-4.73.64l-.231 2.639a5.25 5.25 0 0 0-2.258-.873c-.355-1.072-1.563-1.911-2.874-1.222-.877.461-1.336 1.202-1.565 2.048l-.011-.062c-.342-1.925-3.352-2.181-4.21-.621-.888-.823-2.343-.674-3.256.109l-.259-.512c-.465-.853-1.325-1.216-2.182-1.193-.352-.489-.805-.776-1.308-.881l-.184-.383c-.591-1.17-1.661-1.449-2.637-1.173l-.003-.006c-.587-1.469-2.333-2.06-3.619-1.644-.435-.247-.948-.365-1.545-.285-1.117.151-2.152 1.103-2.235 2.273-1.587-.532-3.7.462-3.557 2.423l.106 1.29c-.887.421-1.59 1.314-1.511 2.337l.148 1.585c-.668.394-1.123 1.102-1.038 2.133l.505 5.362c-.794.349-1.387 1.106-1.363 2.278l.009.201c-1.129.179-2.075.987-1.906 2.434l.429 3.283c-.805.526-1.333 1.484-1.064 2.74l.271 1.358c-1.122.391-1.955 1.457-1.504 2.972l.21.699a2.32 2.32 0 0 0-.161.855 83.53 83.53 0 0 0 3.86 24.714c-.003.08-.016.159-.007.242.462 4.255 1.218 8.447 2.337 12.578.003.011.007.019.01.029-.016 1.869.372 3.692.917 5.541l.153.522.266 1.3c.068.288.189.534.345.741.384 1.248.791 2.487 1.287 3.695.27.655.561 1.287.868 1.904.008.018.015.038.022.056.05.135.09.271.133.408-.012.11-.023.183.006.019l.023.072c.007.024.012.03.018.047-.041 1.047.397 2.005 1.443 2.446.107.045.221.044.332.074.23.288.45.58.707.856 1.475 1.58 3.28 2.834 5.094 4.012-.05.083-.098.168-.141.253-.162.2-.292.434-.386.697-.02-.006-.039-.01-.059-.016l-.076.585c-.001.015-.008.029-.009.044v.024c-.288 2.161-.497 4.271-.174 6.458.344 2.328 1.206 4.498 2.261 6.594.959 1.907 2.028 3.932 3.336 5.748.023.633.195 1.264.562 1.859.421.682.956.934 1.567 1.398.509.386.913.976 1.349 1.456 1.908 2.099 3.807 4.427 6.226 5.958.359.227.743.4 1.119.588.056.068.104.142.173.205a2.72 2.72 0 0 0 1.239.66h-.004c.033.008.047.013.06.016.019.003.037.01.055.015.247.145.535.219.802.32l-.281-.119c.337.144.676.267 1.052.267.174 0 .337-.05.502-.089.959.224 1.929.407 2.905.532a44.88 44.88 0 0 0 2.713.248c.041.026.074.059.117.083.367.205.803.319 1.2.457.096.033.773.282.553.191.463.189.908.426 1.349.664.161.463.397.909.782 1.324.313.34.694.62 1.078.875.124.081.273.203.411.256.65.802 1.72 1.314 2.758.977 1.05-.339 1.62-1.138 1.82-2.153a17.72 17.72 0 0 0 2.033-.861c1.065-.535 2.041-1.231 3.116-1.748a7.77 7.77 0 0 1 .364-.115c.272-.083.544-.159.81-.261a5.06 5.06 0 0 0 2.224-1.614c2.179-1.147 4.144-2.587 5.864-4.345.368-.245.677-.577.908-.988.456-.52.9-1.056 1.32-1.623a2.07 2.07 0 0 0 .419-1.236c.026-.034.055-.065.081-.1.597-.788 1.088-1.629 1.565-2.494l1.204-2.195c.295-.207.552-.474.732-.805 2.097-3.863 4.11-8.075 3.722-12.593-.009-.107-.05-.203-.07-.307 1.586-1.583 2.974-3.37 4.325-5.147.727-.958 1.347-1.93 1.83-2.965l2.462-2.915 1.405-1.709c.423-.532.723-1.037.723-1.745 0-.122-.028-.244-.055-.365.788-.793 1.175-2.06.75-3.166.547-2.013.678-4.238.949-6.131l1.463-11.044 1.064-8.546c.557-2.005.845-4.077 1.009-6.158.017-.065.03-.13.045-.196.008-.024.011-.047.017-.071.079-.321.162-.643.227-.969a18.96 18.96 0 0 0 .435-5.024c-.004-.111-.028-.209-.045-.312 0-.008.001-.015.003-.024a2.63 2.63 0 0 0 .199-.874c.03-.649.083-1.296.125-1.945l.138-1.146c.005-.017.012-.029.015-.046a50.5 50.5 0 0 0 .937-6.296c.043-.497-.097-.934-.346-1.302l-.003-.001zm12.469 260.666c-.047-.015-.085-.059-.129-.081l-.104-.154-.175-.219-.154-.208-.867-1.185-1.855-3.315-3.721-6.831c-.296-.556-.702-.892-1.149-1.068-1.453-1.645-2.976-3.227-4.621-4.683-1.206-1.069-2.758-2.542-4.375-3.018l-.134-.185c-.747-.917-1.676-1.649-2.696-2.225l-.094-.089c-.394-.35-.808-.544-1.216-.632l-5.669-6.919c-.231-.282-.535-.441-.861-.544l-.649-1.097c.796.63 1.914.762 2.936.244 2.578-1.307 5.139-.851 7.635.342 2.932 1.399 7.037 1.87 8.817-1.562.045-.087.069-.179.104-.269.444-.392.614-.982.646-1.535a1.16 1.16 0 0 0-.067-.58c-.095-.341-.268-.639-.518-.89a1.53 1.53 0 0 0-.482-.391c-.176-.102-.361-.174-.552-.223a1.58 1.58 0 0 0-.486-.109 1.59 1.59 0 0 0-.843.038l-.083.032a2.66 2.66 0 0 0-1.284.351c-.649-.118-1.463-.062-1.878-.174-1.447-.394-2.857-.937-4.278-1.414-1.427-.479-2.134-.817-3.429-1.801-.942-.715-1.899-1.614-2.96-2.223-1.518-1.391-3.146-2.601-5.127-3.433a2.35 2.35 0 0 0-.44-.135l-1.162-.888a1.91 1.91 0 0 0-.297-.436c-.182-.281-.423-.504-.725-.666l-.616-.26a1.95 1.95 0 0 0-1.03-.046 1.27 1.27 0 0 0-.651.176c-.044.015-.081.041-.123.058-1.91-5.476-3.745-10.978-6.255-16.221-.327-.682-.855-1.054-1.441-1.194-1.736-3.813-4.191-7.663-8.363-8.957-2.337-.726-4.535.033-6.887.038-1.423.003-2.66.329-3.742.994-4.182.174-8.324 1.24-12.113 3.034-.455.152-.887.356-1.294.604l-.135.027-.125-.015c-.027-.014-.056-.009-.084-.011-2.539-.241-4.809.481-7.145 1.469-.132.012-.264.022-.403.054-2.457.556-4.959 1.007-7.354 1.781-1.265.409-1.697 1.81-1.344 2.869-.402.952-.437 2.022-.475 3.046a43.16 43.16 0 0 0 .008 3.488c.217 4.804 1.267 9.601 3.871 13.704.094.149.203.285.321.411-.171.48-.25 1.23-.267 1.431-.156 1.808 2.224 3.132 3.698 2.121 2.301-1.576 4.534-3.237 6.736-4.948l.136-.106c.89 2.743 3.041 4.894 4.884 7.229a2.12 2.12 0 0 0 .433 1.064l1.669 2.177a3.15 3.15 0 0 0 .647.622l5.668 6.746 3.603 4.45c.873 1.107 1.679 2.34 2.64 3.397-.015.529.138 1.065.473 1.5.198.258.48.475.797.638l.103.237c.08.197.291.759.4 1.105.128.403.232.81.309 1.226l.031.153c.003.044.007.11.018.221l.064.641c.198 1.955.583 3.915 2.012 5.362a5.2 5.2 0 0 0-1.117 1.716c-.25.612-.318 1.287-.4 1.952-.277.271-.498.619-.614 1.061-.474 1.805-.468 3.63.05 5.424a2.24 2.24 0 0 0 .31.646c.048.121.091.241.151.368l.338.438c.196.211.429.361.697.448.431.181.954.256 1.41.109a2.44 2.44 0 0 0 1.127-.773 2.08 2.08 0 0 0 .475-.647c1.403-2.965 3.231-5.611 5.551-7.93 1.274-1.273.707-2.945-.433-3.747a47.95 47.95 0 0 1-.305-1.852c.087-.007.167-.047.252-.062 1.284 1.661 3.942 2.621 5.7 3.735-.095.386-.189.771-.301 1.151-.216.723-.313 1.504-.454 2.247-.162.862-.339 1.747-.285 2.628.099 1.6.769 3.029 1.449 4.454.441.92.96 1.826 1.628 2.602-.55.491-1.062 1.01-1.359 1.711-.02.047-.034.099-.052.147-.032.029-.068.047-.1.079-.43.415-.686.92-.884 1.473-.227.638-.315 1.34-.451 2.001-.102.486-.232.996-.241 1.493a3.56 3.56 0 0 0 .076.773c-.278.63-.3 1.238-.199 1.943.052.353.358.789.603 1.036.367.367.84.578 1.348.646.906.121 1.879-.298 2.338-1.121l.147-.275c-.101.135-.185.021-.018-.221a3.89 3.89 0 0 0 .143-.218c.009-.015.01-.032.019-.047-.021.197-.062.324-.104.412.416-.762.815-1.534 1.164-2.328l.001-.005c.696-.742 1.346-1.532 1.902-2.379l.094-.224c.188-.219.378-.434.596-.616l-.117.091c.015-.009.023-.026.038-.035l.096-.072c.009-.008.015-.019.025-.026l-.083.065c.236-.145.449-.317.599-.549a1.83 1.83 0 0 0 .435-.826c.115-.418.104-.932-.031-1.382.478-1.85.272-3.959.343-5.823.042-1.088.141-2.173.236-3.257l.951-3.801c.156-.629.297-1.262.268-1.902.461.879 1.305 1.59 2.149 2.052.55.302 1.135.514 1.734.676-.378 4.662 2.193 9.018 4.947 12.811a2.2 2.2 0 0 0-.603.758c-.117.24-.213.485-.319.728-.174.285-.368.558-.506.867a2.61 2.61 0 0 0-.22 1.029c-1.112 3.42-1.267 7.035-.341 10.6.149.573.441.982.807 1.262.106.291.257.555.478.779l.428.331a2.09 2.09 0 0 0 1.067.288c.291.01.562-.05.814-.182a1.57 1.57 0 0 0 .68-.437 1.58 1.58 0 0 0 .437-.68c.132-.252.192-.523.182-.814l-.076-.562c-.024-.087-.068-.161-.102-.241.012-.074.014-.153.02-.229.012-.012.029-.018.041-.032.776-.902 1.171-1.896 1.537-3.016.019-.061.091-.25.13-.364.006-.012.015-.03.018-.038.05-.098.105-.195.159-.292.24-.417.517-.811.79-1.205l.965-1.428c.066-.06.128-.126.194-.186.492-.453.93-.909 1.316-1.461.268-.384.5-.9.644-1.451.14-.192.27-.394.412-.585.334-.442.375-1.123.305-1.64a2.53 2.53 0 0 0-.587-1.303c-.124-.465-.271-.926-.395-1.379l-.793-2.883c-.135-.553-.285-1.102-.453-1.649-.104-.338-.261-.614-.445-.846a42.2 42.2 0 0 1-.372-2.749c-.141-1.437-.11-2.954-.244-4.433a3.53 3.53 0 0 0 1.32 1.473c.675.418 1.484.729 2.245.957.338.101.696.16 1.052.204-.438 1.204.209 2.377.712 3.488a10.14 10.14 0 0 0 1.332 2.174c.528.661 1.201 1.205 1.934 1.624.3.169.609.322.91.494.119.068.239.139.356.215a14.03 14.03 0 0 1-.172.627c-.291.984-.475 1.996-.579 3.017-.641.897-.848 2.03-.642 3.207.111.633.358 1.217.659 1.786.194.367.673 1.002.691 1.254.046.629.287 1.296.773 1.725.737 2.243 4.5 2.034 4.5-.699-.015-.52.009-1.043.012-1.563.129-.165.111-.15.244-.462.135-.32.22-.64.223-.994a3.44 3.44 0 0 0-.039-.411c.198-.861.347-1.738.51-2.605a3.31 3.31 0 0 0 .055-.855c.061-.302.145-.594.189-.902.02-.053.047-.098.064-.156l1.74-5.708c.379-1.239-.455-2.473-1.62-2.855l-.011-.002zm-16.714-6.679c-.185-.879-.465-1.731-.943-2.52-.586-.969-1.547-1.261-2.431-1.09-.298-.371-.609-.735-.917-1.099l3.3 1.698a6.53 6.53 0 0 0 .573 1.02c.238.338.494.666.706 1.023a3.17 3.17 0 0 0-.289.968h.001z"/></g><g fill="#fff"><path d="M144.018 89.144a2.33 2.33 0 0 0-.216-.512l.026-.497c-.036-.755-.2-1.425-.545-2.098s-.875-1.129-1.471-1.572c-.713-.531-1.862-.424-2.588 0-.793.464-1.251 1.305-1.27 2.214-.006.294-.038.585-.067.876-.079.459-.191.912-.32 1.359l-.3.158-.395.048a2.09 2.09 0 0 0-.793.365c-.053-.039-.09-.091-.146-.126-.66-.417-1.411-.412-2.149-.324.041-.012.099-.02.155-.027-.246.03-.488.017-.732.002a4.84 4.84 0 0 1-.47-.135l-.605-.33.394-.139a2.13 2.13 0 0 0 1.499.155c.522-.168.97-.483 1.254-.964.315-.537.376-1.15.351-1.757-.022-.582-.236-1.234-.679-1.641-.48-.441-.995-.609-1.641-.679-.24-.026-.49.006-.729.033l-1.255.182c-.659.13-1.267.386-1.882.653a7.8 7.8 0 0 0-1.287.702c-.523.356-1.073.749-1.505 1.217-.622.674-.928 1.507-.805 2.419.097.721.429 1.293.917 1.826l1.108 1.097c1.044.962 2.173 1.745 3.522 2.208a6.28 6.28 0 0 0 1.978.323 3.88 3.88 0 0 0 .603.271c1.452.473 3.056.206 4.502-.161.148-.038.281-.105.425-.152.408-.079.804-.221 1.184-.391 1.079-.091 2.201-.396 2.981-1.168a3.66 3.66 0 0 0 .913-1.69 4.92 4.92 0 0 0 .124-.975c.005-.247-.03-.571-.085-.771h-.001zm44.961-1.914c-.006-.126-.037-.249-.049-.374-.026-.253-.038-.488-.094-.717-.2-.821-.877-1.484-1.676-1.775-.206-.138-.433-.243-.681-.288a4.56 4.56 0 0 0-.556-.065c-.362-.267-.748-.485-1.233-.6-.448-.108-.905-.138-1.36-.174-.556-.432-1.384-.559-2.026-.383-.317.086-.607.259-.866.471a1.69 1.69 0 0 0-.294.05c-.074.024-.145.067-.22.097-.669.159-1.245.537-1.685 1.037a2.86 2.86 0 0 0-.941-.938c-.618-.38-1.246-.34-1.916-.264l-2.839.406c-1.215.261-1.829 1.225-2.446 2.193-.633.991-.892 2.202-.451 3.327.348.887.85 1.655 1.505 2.351 1.035 1.099 2.502 1.937 3.99 2.219.009.009.014.021.023.03.829.864 2.116 1.115 3.272 1.044.853-.051 1.689-.236 2.518-.427l.375.065a3.44 3.44 0 0 0 1.863-.376c.12-.061.22-.145.327-.221a3.3 3.3 0 0 0 .88-.053c.609-.126 1.117-.438 1.574-.85.563-.505 1.041-1.181 1.489-1.779.301-.402.559-.852.789-1.315l.114-.158c.45-.685.643-1.537.599-2.36.001-.058.013-.112.01-.17l.005-.001zm-8.336.508c.289.053.583.093.876.079.068-.003.129-.024.194-.032l.198.083c.055.018.111.026.167.039.026.062.044.126.077.187l-.025.014-.516.194a3.45 3.45 0 0 1-.444.114c-.072.014-.139.053-.209.077-.27-.118-.559-.193-.818-.191a1.7 1.7 0 0 0 .498-.564h.002zm-4.985.973l-.486-.252-.307-.202c-.007-.008-.015-.014-.022-.02-.046-.039-.087-.083-.129-.124l.241-.052a2.14 2.14 0 0 0 .852-.051c.033.003.087-.012.144-.029l.154-.021h.191a2.18 2.18 0 0 0 1.232-.382c.162.359.461.612.81.791l-.161.065c.052-.029.106-.035.158-.059l-.31.129c-.141.061-.257.162-.369.27l-.557.132c-.239.015-.479.017-.718.002a5.71 5.71 0 0 1-.721-.199l-.002.002z"/></g><g fill="#3da5dd"><path d="M140.788 86.698c0-.127.014-.241.002-.355a4.12 4.12 0 0 0-.45-1.666l-.091-.171c-.158-.242-.344-.502-.552-.703a3.56 3.56 0 0 0-1.179-.762c-.488-.206-.875-.294-1.435-.314-.819-.027-1.521.239-2.247.564-.512.229-.956.582-1.386.935-.109.089-.205.191-.299.296-.121.094-.25.176-.347.282-.37.408-.529.732-.72 1.237-.126.335-.159.718-.179 1.069a1.59 1.59 0 0 0 .009.249c.008.083.029.167.038.252-.042.255-.104.508-.104.747 0 .599.263 1.196.673 1.626.219.23.495.421.748.608.376.276.844.459 1.282.599.141.044.285.074.431.099.326.052.664.111.996.108a4.98 4.98 0 0 0 .707-.052c.375.082.763.093 1.142-.021.373-.112.777-.267 1.102-.493s.662-.468.912-.781c.18-.226.377-.452.521-.703s.252-.54.356-.811a1.84 1.84 0 0 0 .096-.317c.047-.233.111-.629.105-.752-.011-.239-.038-.544-.131-.768zm43.503.144c.036-.4-.044-.826-.179-1.205-.141-.392-.352-.778-.634-1.094a2.8 2.8 0 0 0-.238-.452c-.623-.949-1.602-1.47-2.728-1.49-.124-.001-.248.018-.373.035l-.144-.05c-.278-.083-.571-.147-.863-.13-.44.026-.901.077-1.322.212-.843.27-1.657.697-2.277 1.34-1.385 1.437-1.749 3.592-.836 5.379.515 1.009 1.479 1.647 2.519 2.016.426.15.912.195 1.353.23.464.038.961-.042 1.408-.129.86-.164 1.79-.693 2.348-1.37.164-.199.289-.376.405-.552.106-.077.216-.145.312-.241.367-.29.62-.668.805-1.082l.092-.12a2.57 2.57 0 0 0 .352-1.297z"/></g><path d="M168.854 138.079c-.395-1.222-1.855-2.369-3.211-1.823l-.993.348c-.914-.254-1.972-.128-2.856.231l-.65.267-.438.163-.16.018-.387.028-.773.018a39.23 39.23 0 0 1-3.067-.071l-.755-.066-.031-.003-.251-.044-.705-.087-.053-.01c-.011 0-.014-.001-.024-.003-.081-.036-.15-.083-.243-.107-.242-.064-.495-.07-.747-.052l-.27-.066-.626-.2c.106.016-.415-.266-.506-.331-.856-.62-2.223-.326-2.926.378-.208.207-.36.438-.47.682-.087.1-.203.171-.269.292-.288.546-.432 1.206-.236 1.811.185.573.538 1.11 1.081 1.405.404.221.838.405 1.276.547a4.6 4.6 0 0 0 .776.173c.633.24 1.288.415 1.864.57 1.547.418 3.174.629 4.774.691 3.065.12 6.205-.408 9.053-1.544 1.264-.505 2.291-1.766 1.823-3.212v-.003z" fill="#f2c0c7"/><g fill="#d9884c"><path d="M202.825 100.117l.018-.13-.018.13z"/><path d="M219.754 77.557c-.061 0-.121-.015-.182-.012l-.115-.227-.02-.038-.03-.077-.109-.273a7.61 7.61 0 0 1-.631-1.126c-.044-.038-.092-.068-.13-.111-.15-.17-.27-.364-.39-.555a2.08 2.08 0 0 1-.266-.594c-.038-.147-.023-.309-.023-.461 0-.1.036-.193.085-.279l-.149-.326c.009.006.02.012.029.02.046.085.108.161.161.243.103-.144.251-.261.407-.308.308-.094.584.011.802.23.193.194.347.414.509.631 1.099-.015 2.081.388 3.063.843a4.42 4.42 0 0 0 .643-.424c.708-.568.912-1.738.679-2.567-.011-.038-.035-.073-.047-.111l-.355-.073c-1.076-.309-1.571-1.073-1.755-1.975-.16-.162-.332-.315-.521-.435l-.443-.28a3.41 3.41 0 0 0-.533-.567c.051.04.068.047-.041-.068l-.083-.133-.173-.537-.12-.612-.02-.201-.069-.829-.159-1.957c-.063-.773-.428-1.523-1.002-2.017l-.1-.379c.291-.761.362-1.596.071-2.413-1.111-3.113-1.769-6.269-1.842-9.572-.065-3.006-.287-5.794-1.912-8.242-.127-1.852-.261-3.707-.758-5.521-.494-1.798-1.179-3.537-1.96-5.236.069-.486.058-.984-.069-1.475-.423-1.626-1.322-2.79-2.545-3.659-.19-.324-.429-.6-.7-.844-.779-1.885-1.842-3.583-3.412-4.98l-5.871-4.844c-.687-.564-1.489-.928-2.309-1.064l-.047-.068c-.904-1.443-2.131-2.322-3.707-2.911l-.927-.318c.762.253.065-.074-.329-.287l-.743-.58-1.425-1.082c-.78-.54-1.627-.958-2.494-1.335-2.018-.878-4.329-1.985-6.578-1.84-.409.027-.79.105-1.161.202-.926-.394-1.872-.732-2.817-.984-5.143-1.373-10.36-.623-15.589-.491-5.527.138-10.76-1.757-16.313-1.372-4.146.288-9.005.562-12.659 2.825-2.836.218-5.027 1.669-6.966 3.584a21.77 21.77 0 0 0-7.476 7.084c-.071.035-.144.062-.212.121a29.98 29.98 0 0 0-4.273 4.56l-.432.564c-.327-.1-.661-.171-.991-.199-1.221-.101-2.451.264-3.601.817-.485.068-.979.244-1.464.553-8.089 5.158-12.586 13.881-15.433 22.778-1.172 3.663-1.279 7.228-.473 10.715-.377 1.499-.321 3.156-.155 4.721.338 3.175-.208 6.066-.978 9.136-.168.67-.021 1.349.329 1.904.027.888.203 1.772.618 2.645.368.775 1.275 1.109 2.097 1.034a3.62 3.62 0 0 0 .003.183c-.046.887.015 1.752.341 2.54.265 1.002.659 1.969 1.188 2.843.633 1.046 1.929 1.473 3.052 1 .267-.112.512-.277.728-.479.298.972.744 1.855 1.359 2.583.477.564 1.031 1.019 1.623 1.391.049.249.105.497.167.744.15.602.362 1.181.69 1.65-.087.405-.16.812-.231 1.209-.414 2.302-.712 4.677-.7 7.02.006 1.14.95 2.222 2.11 2.284.041.478.106.955.18 1.432a21.07 21.07 0 0 0-.056 2.452c.018.467.021.969.138 1.42.15.582.552 1.075 1.062 1.381.297.576.879 1.046 1.478 1.201.247 1.153.529 2.317 1.019 3.373.315.681 1.258 1.199 1.997 1.146.459-.033.758-.108 1.167-.315.658-.335 1.226-1.246 1.146-1.998-.149-1.39-.599-2.751-.928-4.11a79.53 79.53 0 0 1-.847-3.951c-.238-1.273-.436-2.554-.647-3.832-.203-1.226-.515-2.445-.702-3.671.023-.242.061-.483.07-.727.026-.614.012-1.223-.045-1.834-.084-.89-.29-1.47-.604-2.296-.048-.127-.122-.22-.186-.327.524-.564.694-1.347.553-2.084.058-.032.118-.05.174-.083 2.856-1.698 4.103-5.194 4.978-8.207 1.77-6.105.663-12.655 4.036-18.26.765-1.272 1.653-2.423 2.619-3.499a10.19 10.19 0 0 0 .715-.105c.049-.009.097-.015.146-.029.316-.086.676-.282.977-.412.058-.024.115-.05.173-.076.194-.086.383-.185.577-.271l-.92.388c.564-.205 1.107-.483 1.622-.812 1.582 1.376 3.909 2.442 5.787 2.786 1.609.294 3.355.239 5.038-.061 1.705.8 3.696.878 5.648 1.037a81.15 81.15 0 0 0 15.562-.253c3.444-.385 7.181-.77 10.64-1.788.69.138 1.426.158 2.175.111 1.717 1.035 3.687 1.596 5.896 1.869 3.449.426 6.735.623 10.036 1.852 1.731.644 3.348 1.546 4.905 2.531 1.235.781 2.477 1.587 3.889 1.829.818 1.247 1.691 2.467 2.562 3.675 1.566 2.173 3.213 4.292 5.041 6.241.07.147.134.297.228.435.089.13.191.249.28.377.129.352.271.703.462 1.052.625 1.138 1.561 2.135 2.515 3.007.045.042.1.074.148.115a2.73 2.73 0 0 0-.194.885l-.282 6.97c-.01.333.064.653.194.947-.022.106-.047.211-.06.32l-.664 5.456c-.03.255.009.502.083.738-.032.252-.053.503-.066.756a9.02 9.02 0 0 0-.376 3.266c.013.206.056.406.11.6l-.124.596a36.32 36.32 0 0 0-.191 1.402l-.158 1.359-.069.582-.02.153-.017.117c-.119.835-.265 1.665-.41 2.495-.194 1.106-.595 2.274-.317 3.39.358 1.44 2.498 2.211 3.563 1.032.009-.008.018-.017.027-.024.016-.018.037-.027.052-.046.305-.31.536-.71.685-1.129.151-.427.224-.88.308-1.326.207-1.096.362-2.198.485-3.305a36.25 36.25 0 0 0 .224-2.909c.01-.373 0-.744-.014-1.115.047-.046.1-.085.144-.134 1.342-.059 2.424-1.071 2.443-2.438l.019-3.484c.812-.417 1.339-1.259 1.409-2.229.024-1.125.105-2.239.221-3.348l.15-.758c.402-.32.76-.685 1.089-1.076l.298-.174c.262-.152.485-.35.669-.577.777 1.061 1.932 1.901 3.313 1.8.905-.065 1.782-.544 2.266-1.287-.546-.383-1.042-.89-1.462-1.372-.492-.564-1.07-1.334-.982-2.131.058-.523.429-1.106.913-1.334.412-.194.885-.156 1.299.017.401.168.76.417 1.136.632.009.006.067.038.096.055.02.009.044.021.051.024a1.75 1.75 0 0 0 .225.083c.022.005.025.005.051.009.07.011.141.018.211.02.109.005.215-.004.324-.018.567-.064 1.135-.176 1.673.074.144.067.278.139.416.208.401-.43.657-.987.627-1.66a2.8 2.8 0 0 0-.838-1.87c-1.14-.565-2.176-1.316-2.981-2.266l.009.006zM183.851 53.45a3.39 3.39 0 0 0-.199 1.149c-1.274-.385-2.566-.7-3.884-.92 1.458-.376 2.925-.681 4.41-.821-.138.188-.253.388-.327.593z"/></g><g fill="#1d1d1b"><path d="M157.873 182.107c-.742-1.205-2.238-2.049-3.445-2.74-1.344-.77-2.794-1.412-4.29-1.82-2.963-.806-6.269-.72-9.044.671-2.696 1.352-4.623 3.745-6.393 6.11-2.191 2.925-4.381 6.003-6.155 9.202-.277.501.385 1.036.801.617 2.353-2.37 4.446-5.062 6.512-7.684 1.661-2.108 3.241-4.438 5.544-5.903 2.449-1.56 5.467-1.964 8.289-1.388 1.402.286 2.746.776 4.016 1.432 1.242.639 2.386 1.658 3.706 2.104.34.115.643-.307.461-.601h-.002zm38.678 4.427c-2.172-2.674-5.651-4.254-8.714-5.682-3.29-1.534-6.673-3.252-10.272-3.906-1.702-.309-3.426-.392-5.131-.279a27.3 27.3 0 0 0 1.272-.889c2.04-1.533 3.844-3.318 5.468-5.284 3.383-4.095 6.555-8.958 8.007-14.11.418-1.481.679-3.04.667-4.582-.004-.548-.048-1.142-.123-1.74a11.42 11.42 0 0 0-.26-1.239c-.005-.019 0-.037-.002-.055-.15-.544-.336-1.07-.629-1.514-.671-1.02-2.125-.356-1.916.808.152.841.493 1.629.608 2.484.111.832.105 1.69.03 2.525-.145 1.632-.621 3.237-1.208 4.76-1.126 2.924-2.759 5.692-4.502 8.288-1.666 2.481-3.571 4.768-5.749 6.815a28.56 28.56 0 0 1-3.462 2.774l-1.938 1.317c-.223.146-.465.28-.699.426-3.216.931-6.203 2.623-8.628 5.039-2.474 2.465-4.28 5.602-5.012 9.006-.084.384.104.646.36.761a208.79 208.79 0 0 1-8.178-.356c-2.031-.125-4.074-.237-6.09-.525-2.118-.301-4.096-.973-6.153-1.524-.749-.2-1.059.762-.497 1.179 1.5 1.109 3.359 1.591 5.162 1.963 1.899.391 3.835.597 5.762.785 3.814.372 7.635.607 11.466.671 7.469.124 15.018-.435 22.276-2.282 4.037-1.028 8.264-2.391 11.839-4.573 1.105-.675.139-2.167-.987-1.687-3.355 1.432-6.635 2.855-10.165 3.83-3.496.965-7.076 1.617-10.68 2.01-4.382.477-8.78.592-13.179.513.156-.071.294-.203.375-.407 2.146-5.391 6.264-10.014 11.818-11.978 2.924-1.034 6.116-1.378 9.186-.887 3.333.534 6.443 2.039 9.499 3.404 1.62.725 3.192 1.522 4.763 2.344 1.657.866 3.182 1.933 4.815 2.837.693.383 1.264-.475.804-1.041l-.003.001zm4.183-4.336l.017.012c.034.025.118.079-.017-.012zm5.753-15.386c.038.036.03.021 0 0z"/><path d="M269.117 173.419c-.678-.641-1.234-1.237-2.008-1.779s-1.633-.967-2.488-1.369c-1.717-.803-3.52-1.415-5.303-2.054-3.834-1.374-7.678-2.741-11.605-3.831-3.875-1.076-7.835-1.888-11.85-2.195-4.139-.316-8.256.105-12.375.487-2.263.209-4.527.396-6.801.43-2.162.034-4.325-.23-6.482-.091-.108-.188-.218-.375-.347-.553-.635-.873-1.461-1.524-2.307-2.181-.708-.55-1.368-1.196-2.196-1.521-.026-.293-.033-.585-.068-.878-.171-1.391-.312-2.887-1.425-3.875-1.105-.981-2.599-1.607-3.893-2.292-3.356-1.775-6.852-3.487-10.485-4.591-.332-.101-.523.378-.234.552 2.653 1.605 5.434 3.007 8.121 4.566l4.01 2.395c.522.323 1.154.628 1.472 1.173.342.587.37 1.413.442 2.072.673 6.102-.609 12.198-2.596 17.948-.553 1.602-1.12 3.216-1.756 4.786-.598 1.473-1.542 3.063-1.675 4.661-.026.307.377.424.576.238.777-.726 1.302-1.766 1.768-2.785.017.028.032.058.049.085.085.132.176.255.292.361.093.083.188.162.285.239.22.173.444.337.682.482a3.6 3.6 0 0 0 .326.182c.093.046.19.1.291.123.078.017.153.005.231 0l-.012.005c.142.015.259.019.403-.006.186-.034.341-.216.389-.39.058-.209-.015-.382-.144-.543-.051-.063-.129-.113-.192-.166-.04-.041-.078-.105-.149-.147-.05-.031-.104-.053-.159-.078-.108-.048-.215-.098-.321-.151a5.46 5.46 0 0 1-.641-.384c-.049-.033-.096-.068-.144-.103-.016-.01-.031-.022-.046-.034-.13-.104-.267-.175-.411-.255-.086-.047-.198-.091-.313-.124l.142-.313c.703-1.485 1.399-2.958 2.001-4.487.151.162.309.291.494.413a4.44 4.44 0 0 0 .536.296c.394.189.801.379 1.224.497.291.08.701.106.876-.192.059-.102.075-.237.043-.352-.05-.18-.197-.288-.35-.374-.206-.117-.43-.182-.653-.263-.192-.069-.388-.131-.582-.197-.217-.074-.429-.16-.649-.222-.109-.031-.216-.07-.325-.097-.129-.032-.267-.037-.399-.052.606-1.609 1.156-3.246 1.622-4.906.145.111.288.223.451.311.246.132.505.229.77.318.243.082.485.146.735.194.146.027.299.065.444.067.181.003.354-.058.508-.15.221-.132.273-.455.082-.64-.114-.111-.246-.208-.397-.259-.111-.038-.233-.044-.349-.064-.242-.041-.485-.086-.724-.136-.232-.047-.462-.106-.694-.153a14.07 14.07 0 0 0-.661-.115c.309-1.167.585-2.342.785-3.536.073-.437.133-.876.192-1.314.263.332.695.412 1.077.563l.124.057c.033.018.067.036.1.056l.027.018c-.01-.011-.007-.005-.026-.023.081.079.173.132.278.173.033.015.053.026.074.036.053.038.102.058.156.079.15.058.355-.038.428-.174a.79.79 0 0 0-.157-.876c-.189-.162-.409-.294-.65-.362-.18-.052-.368-.072-.553-.105-.082-.015-.162-.03-.246-.039-.027-.004-.056-.007-.083-.008-.12-.018-.226-.029-.335-.038-.051-.004-.092.014-.135.032a34.67 34.67 0 0 0 .246-4.883c.624.776 1.567 1.433 2.154 2.082 1.257 1.391 1.603 3.257 1.618 5.077.029 3.729-.752 7.457-2.037 10.945-2.591 7.03-7.548 13.12-13.687 17.373-1.698 1.175-3.482 2.282-5.317 3.228-1.82.938-3.868 1.546-5.594 2.642-.321.203-.224.811.209.773 1.884-.17 3.707-1.06 5.412-1.831 1.802-.814 3.557-1.707 5.225-2.772 3.316-2.117 6.426-4.691 9.017-7.657 5.207-5.956 8.629-13.813 8.821-21.773.038-1.546-.066-3.224-.626-4.705 1.407.531 2.895.681 4.421.769 1.962.112 3.929.048 5.89-.059 4.01-.223 8.008-.647 12.029-.572 8.065.152 15.829 2.698 23.357 5.376l6.17 2.266 2.851 1.164c1.028.453 2.145.765 3.147 1.244.471.225 1.014-.36.588-.762l-.006.003zm-88.901 29.146c-6.797 1.061-13.481 2.36-20.38 2.607-6.819.244-13.656-.294-20.358-1.569-6.478-1.232-13.257-2.982-18.846-6.602-4.553-2.947-8.233-7.144-10.761-11.927-1.42-2.689-2.434-5.558-3.103-8.523-.327-1.453-.611-2.94-.626-4.433l-.059-4.736c0-.024-.012-.044-.015-.068a1.87 1.87 0 0 1 .102-.159.9.9 0 0 1 .042-.056c.092-.11.191-.213.293-.314.506-.503 1.045-.976 1.568-1.461.531-.491 1.046-.998 1.566-1.498l.73-.694a32.42 32.42 0 0 0 .214 2.375 42.76 42.76 0 0 0 .315 1.987c-.224.035-.45.149-.63.25l-.903.518c-.639.375-1.281.79-1.862 1.249-.269.214-.694.461-.791.814-.063.234.037.476.243.596.245.142.52.035.747-.088.62-.333 1.188-.768 1.775-1.156l.989-.673.513-.346c.047-.033.089-.071.135-.106.313 1.5.7 2.984 1.176 4.441.004.013.01.025.015.039-.306.138-.603.331-.873.509-.376.25-.72.557-1.06.855-.307.271-.613.546-.888.852-.159.179-.304.361-.417.571-.106.197-.207.381-.194.585-.003.034-.021.096-.013.146.023.174.13.324.324.324.056 0 .105-.016.155-.029.204.002.388-.128.559-.239a3.74 3.74 0 0 0 .526-.42c.299-.28.583-.577.881-.859.289-.275.598-.528.882-.808.159-.158.333-.312.498-.474.731 2.05 1.62 4.034 2.642 5.947-.153.073-.296.174-.434.27-.206.144-.4.298-.594.457l-1.021.852a28.02 28.02 0 0 0-.961.859c-.168.157-.335.307-.481.485-.074.093-.156.194-.213.3-.07.128-.058.26-.078.39-.028.192.082.44.32.42.099-.009.196.001.293-.012.13-.02.248-.087.359-.156.214-.135.403-.305.59-.476l.98-.895.944-.874c.169-.153.337-.305.494-.468.088-.091.19-.185.282-.285.893 1.582 1.898 3.101 2.991 4.562-.161.138-.313.289-.463.432-.286.268-.551.559-.821.842-.264.278-.512.567-.758.86l-.394.477c-.085.109-.158.23-.186.368s-.005.273.019.413c.031.172.237.318.408.309.267-.014.485-.087.67-.291.127-.141.238-.303.356-.452l.762-.971.673-.879.278-.364a33.5 33.5 0 0 0 2.854 3.171l.959.929a8.2 8.2 0 0 0-.409.404l-.799.87c-.259.282-.5.582-.747.873l-.394.464-.176.206c-.108.133-.158.277-.206.438-.133.452.368.773.753.579.115-.058.221-.109.312-.206.061-.065.116-.141.172-.209l.365-.446.796-.983.689-.913a7.79 7.79 0 0 0 .323-.462c.527.453 1.082.87 1.684 1.184.386.201.982-.247.664-.664-.925-1.208-2.124-2.201-3.144-3.327a47.5 47.5 0 0 1-3.069-3.748c-1.817-2.474-3.363-5.152-4.612-7.956-1.259-2.828-2.187-5.812-2.782-8.849-.31-1.579-.537-3.18-.676-4.783-.123-1.425.077-3.094-.304-4.477.166.081.346.125.526.06.716-.258 1.175-.8 1.71-1.317l1.732-1.622a81.63 81.63 0 0 1 3.506-3.01c1.17-.947 2.369-1.859 3.577-2.758a85.09 85.09 0 0 1 1.767-1.275c-.044.82-.009 1.652.011 2.383.042 1.602.227 3.211.61 4.768.79 3.207 2.187 6.262 4.002 9.018 1.747 2.654 3.846 5.07 6.218 7.184 2.269 2.023 4.902 4.119 7.78 5.174.159.059.254-.158.156-.267-1.02-1.121-2.24-2.014-3.344-3.046l-3.335-3.116c-2.106-2.073-4.065-4.315-5.669-6.801-1.665-2.581-2.942-5.406-3.724-8.379-.389-1.483-.714-3.006-.851-4.534a20.94 20.94 0 0 1-.081-2.268c.011-.575.075-1.145.059-1.713a.64.64 0 0 0-.057-.591c-.008-.046-.008-.091-.017-.135-.111-.544-.938-.638-1.19-.156-.044.085-.059.189-.098.279-.402.182-.784.435-1.138.66l-1.98 1.305a65.14 65.14 0 0 0-3.798 2.815c-1.208.956-2.39 1.949-3.542 2.972l-1.75 1.604c-.596.56-1.24 1.066-1.527 1.853-.051.141-.047.285-.004.42-.021-.003-.041-.008-.062-.009-.27.013-.434.159-.523.386-.37.943-.315 2.134-.272 3.188-.703.329-1.286.935-1.871 1.433l-1.825 1.571c-.54.475-1.125.93-1.608 1.464-.287.315-.576.723-.719 1.153-.215.135-.424.28-.648.403-.553.305-1.119.526-1.717.723-1.079.353-2.175.618-3.286.858-2.811.605-5.644 1.135-8.498 1.5-2.754.352-5.526.566-8.3.643-1.388.038-2.777.041-4.163.012-1.317-.026-2.913-.367-4.178.027-.565.176-.8 1.089-.179 1.375 1.282.591 2.968.427 4.359.458 1.449.03 2.898.018 4.345-.029a85.81 85.81 0 0 0 8.9-.764c2.989-.412 5.955-.98 8.866-1.776 1.112-.305 2.225-.629 3.255-1.155.422-.215.902-.471 1.335-.778-.268 2.36-.048 4.755.307 7.098.425 2.805 1.261 5.511 2.391 8.11 2.255 5.183 5.796 9.839 10.259 13.316 5.291 4.121 11.771 6.237 18.232 7.734 6.914 1.604 14.039 2.293 21.132 2.169a100.21 100.21 0 0 0 11.938-.929c3.989-.55 8.001-1.32 11.792-2.699.435-.158.26-.753-.19-.684zm-48.148-10.21c-.541.052-.995.676-1.335 1.051a13.58 13.58 0 0 0-1.153 1.506c-.34.502-.64 1.023-.914 1.563l-.403.838c-.164.362-.215.656-.228 1.044-.013.409.557.669.838.347.214-.245.395-.462.525-.765l.35-.771.843-1.604.905-1.503.471-.734c.136-.214.314-.508.304-.767-.004-.101-.089-.214-.203-.203v-.002zm6.598 2.166c-.18.201-.277.47-.385.715l-.352.894-.565 1.672-.45 1.705c-.132.553-.355 1.278.038 1.766.092.114.277.114.394.051.489-.259.592-1.015.709-1.502l.417-1.591.455-1.581.241-.785c.071-.227.121-.608.231-.776.29-.441-.378-.964-.735-.567l.002-.001zm7.109 1.163c-.077-.127-.25-.179-.38-.1-.267.16-.329.427-.42.711l-.292.961-.413 1.826-.324 1.844-.135.928c-.053.394-.036.655.158.999.112.198.409.241.567.072.225-.241.33-.435.382-.766l.125-.931.3-1.922.326-1.85.143-.933c.047-.294.127-.572-.035-.841l-.002.002zm5.755.718c-.059-.236-.414-.289-.531-.069-.289.55-.366 1.162-.482 1.768l-.278 1.818-.244 1.855-.1.95c-.002.323.086.559.244.837.097.172.354.209.492.063.217-.229.361-.432.437-.742.075-.316.095-.652.135-.973l.206-1.833.163-1.832c.034-.617.106-1.237-.044-1.842h.002zm6.291.279c-.077-.258-.421-.299-.562-.074-.287.456-.32 1.073-.394 1.594l-.185 1.587-.085 1.581c-.017.529-.112 1.232.177 1.699.183.297.643.319.82 0 .253-.457.167-1.073.164-1.578l.024-1.641.059-1.577c.026-.514.132-1.091-.018-1.593v.002zm6.409.233c-.138-.273-.527-.233-.674 0-.153.241-.15.564-.182.843l-.097.861-.119 1.722-.093 1.721c.007.284.074.581.334.74a.68.68 0 0 0 .676.014c.193-.097.241-.302.199-.487.001-.017.002-.011.005-.032l-.031-.214c.005.128.02-.162.017-.128l.032-.754.045-1.399.021-1.398c-.009-.463.079-1.07-.133-1.489zm7.186 3.165l-.121-1.587-.183-1.587c-.03-.238-.052-.508-.217-.696-.173-.197-.405-.248-.639-.127-.194.1-.22.343-.137.52.017.044.021.047.014.008l-.009.137-.006.317-.003.687.027 1.321c.036.908 0 1.857.168 2.751.055.291.388.475.662.432.31-.047.502-.285.523-.592.038-.526-.038-1.061-.077-1.587l-.002.003zm6.366.076a6.45 6.45 0 0 1-.22-.682c-.129-.48-.215-.971-.303-1.461l-.32-1.408c-.147-.482-.315-1.023-.661-1.399-.351-.382-.879.03-.802.467.082.464.275.908.357 1.376l.216 1.485.255 1.427c.129.522.292 1.259.877 1.429.326.094.598-.117.714-.405.111-.274-.01-.57-.112-.829h-.001zm6.272-2.528c-.115-.185-.217-.376-.311-.573l-.503-1.14c-.347-.834-.702-1.891-1.578-2.302-.282-.132-.624.086-.539.414.119.46.286.829.469 1.259-.027-.064.026.061.031.071l.063.161.119.324.212.626.514 1.334c.212.439.516 1.106 1.036 1.218.409.088.8-.183.81-.615.006-.311-.167-.529-.323-.777zm5.526-2.684c-.183-.287-.347-.468-.556-.766l-.655-.927-.794-1.084c-.273-.347-.517-.697-.903-.926-.153-.091-.419.023-.393.225.05.391.205.703.39 1.047l.58 1.018 1.197 1.883c.237.3.688.659 1.084.448.138-.074.212-.159.241-.312.047-.251-.065-.408-.192-.605l.001-.001zm4.814-3.105l-.028-.035c.04.061-.057-.133-.077-.162-.177-.279-.448-.503-.68-.736l-.617-.644-.673-.749-.344-.385a2.74 2.74 0 0 0-.411-.387c-.286-.216-.743.146-.617.475a1.99 1.99 0 0 0 .218.429l.279.398.596.764.585.676c.203.226.405.47.638.666.147.124.287.23.462.312-.057-.028.023.015.029.018l.159.068c.117.036.24.046.353.002.188-.073.264-.267.225-.458-.017-.085-.05-.177-.097-.252zm3.854-3.266l-.056-.097.037.086.013.102c0-.124-.044-.244-.139-.327a.88.88 0 0 0-.143-.108.85.85 0 0 1-.087-.061c-.056-.045-.111-.094-.158-.147l-.176-.186-.077-.061c-.044-.028-.093-.044-.143-.045-.081-.011-.174 0-.245.045-.056.037-.102.082-.138.138a.39.39 0 0 0-.039.297c.022.066.05.128.077.19.015.033.029.066.05.097a2.02 2.02 0 0 0 .207.244 2.19 2.19 0 0 0 .248.2c.059.042.119.074.19.098.034.013.063.016.099.022.056.012.112.01.167-.008l.047-.02.088-.021c.177-.051.286-.273.178-.438zm-52.135-5.435c-.02-.013-.067-.015-.07-.01.009 0 .033.004.055.01z"/><path d="M148.608 181.234c-.093-.191-.226-.382-.385-.521-.191-.167-.487-.402-.755-.367-.18.023-.318.068-.433.217-.097.126-.162.323-.099.48.077.193.19.299.325.44.012.022.028.044.042.065.008.012.085.158.101.182.007.016.013.032.017.048.018.059.03.117.044.176 0-.012-.004-.017 0-.032-.003.009 0 .029.005.047l.003.035c.004.076 0 .149 0 .224.004-.015 0-.012.009-.034-.009.021-.011.06-.015.081l-.043.161c-.003.011-.018.047-.027.065l-.099.175-.015.022c.012-.013.02-.018-.024.031s-.095.097-.145.144l-.035.025a1.81 1.81 0 0 1-.21.12c.016-.001-.007.006-.027.014l-.03.012-.214.062c-.068.017-.268.023-.06.02-.078 0-.155.013-.234.015a2.46 2.46 0 0 1-.191-.008l-.02-.001c-.046-.005-.056-.008-.053-.011l-.01-.001-.205-.055c-.026-.008-.066-.02-.097-.035l-.044-.021c-.062-.03-.121-.065-.18-.102l-.097-.065-.153-.151-.068-.076-.016-.021c-.036-.064-.084-.132-.112-.202l-.033-.109-.027-.126-.006-.268c0-.035.006-.068.007-.103-.01.147.006-.012.012-.04l.028-.1c.01-.034.057-.145.015-.053.039-.085.086-.165.139-.241.011-.015.012-.015.024-.027l.105-.111c.139-.144.177-.157.337-.26.15-.099.239-.222.427-.281.194-.06.177-.309 0-.377s-.362-.138-.553-.156c-.244-.024-.497.076-.716.176-.406.185-.738.556-.918.959-.434.966-.143 2.066.691 2.71a2.85 2.85 0 0 0 2.543.462c.864-.265 1.572-.938 1.696-1.855a2.35 2.35 0 0 0-.226-1.365l.005.007z"/><path d="M147.478 182.235v-.006c-.021.07 0 .072 0 .006zm-.618.792c-.012-.002-.042.013-.048.019l.03-.012zm.609-1.072c-.002.05.01.071.004.03 0-.02-.003-.024-.004-.03zm-75.726-9.804c-2.83.754-5.611 1.943-8.315 3.06-2.626 1.085-5.188 2.294-7.649 3.716-4.407 2.546-8.484 5.671-12.148 9.203-7.54 7.27-13.252 16.314-16.587 26.242a63.5 63.5 0 0 0-2.255 8.793c-.53 2.903-1.064 6.083-.582 9.023.07.425.709.376.811 0 .691-2.558.852-5.291 1.32-7.902a65.13 65.13 0 0 1 1.913-7.839c1.575-5.065 3.744-9.924 6.511-14.451 5.173-8.462 12.327-15.558 20.696-20.855 2.534-1.603 5.185-3.031 7.842-4.416 2.84-1.482 5.793-2.643 8.691-3.994.335-.156.096-.676-.247-.583v.003zM31.108 295.506l.068-6.617c.018-2.144-.039-4.275-.356-6.399-.318-2.143-.918-4.24-1.473-6.33-2.285-8.608-3.436-17.541-3.874-26.427-.123-2.478-.173-4.959-.226-7.438-.055-2.58.1-5.234-.158-7.798-.009-.095-.146-.126-.174-.024-.558 2.034-.705 4.24-.905 6.334-.218 2.285-.321 4.584-.338 6.879-.026 3.459.067 6.925.324 10.377-.334 1.589-.408 3.225-.556 4.84l-.543 5.612a167.49 167.49 0 0 1-1.584 11.426c-1.281 7.401-3.137 14.668-5.377 21.832-1.276 4.079-2.911 8.029-4.212 12.093-.214.669.802 1.101 1.137.479 1.8-3.348 3.09-7.003 4.36-10.58 1.276-3.592 2.363-7.245 3.319-10.935a139.19 139.19 0 0 0 3.915-22.566c.147-1.66.247-3.321.318-4.985.415 3.043.956 6.072 1.77 9.027 1.167 4.236 2.598 8.359 2.98 12.764.211 2.441.349 4.885.489 7.33s.118 5.001.588 7.408c.032.159.308.168.33 0 .29-2.082.13-4.207.177-6.303l-.002.001zm102.076 11.405l-4.381-6.446c-1.326-2.432-2.243-5.05-2.877-7.743-.712-3.026-1.053-6.097-1.212-9.2-.146-2.844-.458-5.986.241-8.778.367-1.466 1.112-2.796 2.403-3.634.596-.387 1.265-.614 1.968-.705.504-.065.926.003 1.334-.347.046-.041.06-.115.045-.173-.009-.033-.029-.055-.041-.085l.487.023c.738.05 1.048-1.084.381-1.413-2.722-1.339-5.841-.566-8.596.316l-8.916 3.175a548.16 548.16 0 0 0-17.486 6.834c-11.543 4.74-22.936 9.889-34.069 15.527-3.081 1.56-6.159 3.125-9.165 4.829-3.069 1.74-6.404 3.336-9.213 5.474-.121.093-.059.332.114.27 2.814-.99 5.476-2.522 8.174-3.791l8.243-3.936 16.69-7.811a600.16 600.16 0 0 1 28.889-12.105c-.291.476-.558.97-.779 1.491-1.429 3.365-1.887 7.261-2.249 10.87-.214 2.128-.27 4.285-.171 6.428l-.132.056c-.291.132-.114.523.16.53.282 4.637 1.39 9.195 3.782 13.251 1.772 3.004 4.189 5.802 7.423 7.252.779.349 1.802-.66 1.005-1.301a38.51 38.51 0 0 1-2.961-2.625c2.097-.622 4.124-1.392 6.101-2.354a58.67 58.67 0 0 0 3.374-1.76c1.005-.571 2.224-1.173 2.819-2.21.159-.275-.038-.707-.388-.677-1.193.103-2.25.874-3.264 1.458-1.066.612-2.134 1.214-3.227 1.778l-6.094 3.045c-.775-.828-1.508-1.695-2.139-2.639-.964-1.443-1.737-2.995-2.363-4.604 1.146-.298 2.298-.819 3.357-1.237l3.658-1.429c1.226-.449 2.467-.87 3.726-1.214.629-.172 1.264-.313 1.901-.449.624-.135 1.299-.243 1.778-.687.217-.2.163-.595-.094-.735-1.06-.571-2.646.008-3.73.297-1.402.373-2.766.855-4.112 1.395-1.276.512-2.545 1.05-3.8 1.615-1 .452-2.099.884-3.07 1.457-.224-.655-.421-1.317-.593-1.989-.512-2-.8-4.055-.918-6.132l6.873-1.656c1.469-.357 2.946-.673 4.427-.978 1.384-.285 3.136-.349 4.321-1.165.338-.234.311-.779-.117-.899-1.347-.376-2.975.15-4.308.423-1.589.324-3.168.709-4.737 1.118-2.232.582-4.369 1.29-6.479 2.139-.053-1.778-.014-3.565.144-5.346 2.04-.392 4.05-1.088 6.023-1.685l3.613-1.131c1.148-.361 2.239-.677 3.194-1.428.316-.248.03-.721-.307-.738-1.247-.06-2.382.381-3.554.763l-3.47 1.138c-1.772.606-3.63 1.141-5.369 1.887.244-2.201.607-4.383 1.057-6.501.412-.077.824-.207 1.149-.284 1.179-.278 2.353-.595 3.52-.919l3.504-.976 1.806-.518c.562-.173 1.05-.328 1.245-.928.059-.182.002-.452-.151-.576-.828-.67-2.227.052-3.122.325l-3.144.959-3.132.997c-.439.144-.872.297-1.305.455.359-1.238.86-2.427 1.667-3.453a6.94 6.94 0 0 1 1.414-1.356l1.458-.564 9.563-3.524c1.622-.583 3.247-1.183 4.931-1.561.062-.013.125-.02.188-.032-.472.328-.905.708-1.268 1.142-2.008 2.399-2.091 5.727-2.137 8.702-.106 6.804.548 13.729 3.447 19.967 1.385 2.978 3.293 6.203 6.259 7.826.481.263 1.114-.285.785-.785zm-50.239-34.255c-.497-3.307-1.466-6.525-2.514-9.694-1.937-5.858-4.304-11.746-4.541-17.989-.064-1.69-.003-3.387.309-5.053.158-.841.377-1.655.611-2.475.156-.547.395-1.133.12-1.671-.012-.025-.042-.032-.067-.028-1.053.226-1.473 2.013-1.758 2.883-.449 1.373-.693 2.818-.827 4.254-.277 2.948.065 5.958.643 8.852 1.275 6.386 4.032 12.349 5.443 18.699a37.66 37.66 0 0 1 .802 5.473c.135 1.875.064 3.722.288 5.591.041.346.518.565.717.194 1.484-2.757 1.228-6.031.774-9.038l.002.002zm-10.819-65.773l-1.453-5.855-1.222-5.239c-.124-.85-.168-1.725-.067-2.58.088-.742.567-1.505.506-2.232-.014-.17-.168-.255-.321-.184-1.219.561-1.361 2.929-1.358 4.077.003 1.845.433 3.647.844 5.432l1.447 6.249c.509 2.104.89 4.286 1.923 6.211.168.314.644.159.65-.176.039-1.949-.5-3.821-.95-5.7v-.003zm193.961-28.43c-.057-.198-.392-.286-.486-.064-.653 1.548-.803 3.139-.961 4.797l-.47 5.407-.877 10.615-1.919 21.365-1.217 12.224c-.014.151.238.186.267.036 1.392-6.938 2.388-13.965 3.31-20.982.935-7.113 1.767-14.238 2.276-21.394l.379-6.151c.079-1.971.256-3.934-.303-5.853h.001zm-2.514 149.93l-1.37-6.112a334.59 334.59 0 0 1-2.43-12.478 326.09 326.09 0 0 1-1.955-12.632c-.532-3.951-.683-8.122-1.963-11.923s-4.354-6.69-5.416-10.573a.4.4 0 0 0-.222-.259c.664-1.993 1.451-3.948 2.283-5.876 1.54-3.565 3.31-7.078 4.41-10.812 1.087-3.692 1.669-7.418 1.323-11.266-.022-.245-.394-.256-.391 0 .07 6.948-3.499 13.41-6.318 19.559-1.436 3.131-2.822 6.307-3.77 9.624-1.08 3.783-1.362 7.683-1.392 11.601-.032 4.124.128 8.264-.469 12.36-.545 3.745-1.591 7.408-2.928 10.944-1.343 3.554-2.901 7.017-4.669 10.379-1.809 3.437-3.85 6.732-5.81 10.083-4.825 8.252-9.813 16.453-14.04 25.026-.414.841.735 1.518 1.258.735 4.78-7.175 8.966-14.746 13.225-22.245l5.759-10.426c1.757-3.204 3.469-6.464 4.933-9.815.426 2.633 1.155 5.19 2.154 7.686 1.188 2.974 3.118 5.899 3.462 9.137.345 3.254-.411 6.645-.979 9.835-.544 3.054-1.443 5.993-2.536 8.892-4.43 11.755-11.71 22.272-18.992 32.413l-6.757 9.31c-2.331 3.235-4.812 6.436-6.799 9.897-.109.19.152.402.307.237 2.393-2.533 4.474-5.39 6.571-8.166l6.388-8.651c3.768-5.199 7.465-10.452 10.839-15.917 2.963-4.799 5.612-9.824 7.849-15.008-1.182 7.172-1.593 14.479-2.222 21.716-.302 3.465-.785 7.076-.506 10.553.274 3.418 1.841 6.114 3.428 9.066 1.561 2.907 2.648 6.046 3.242 9.291.308 1.685.465 3.395.486 5.108.022 1.665-.128 3.328.128 4.981.491 3.171 2.507 5.823 4.009 8.574 1.603 2.94 2.926 6.032 3.763 9.28.886 3.438 1.203 7.052.661 10.575-.531 3.437-1.954 6.559-3.679 9.551-.353.614.469 1.247.976.753 1.467-1.427 2.533-3.195 3.31-5.112-.131 1.475 0 2.99.163 4.438.233 2.099.644 4.171 1.045 6.241.4 2.063.826 4.13 1.064 6.219a37.87 37.87 0 0 1 .249 3.155c.032 1.034-.102 2.136.221 3.133a.54.54 0 0 0 .975.127c1.001-1.59.721-4.131.556-5.918-.194-2.098-.564-4.176-.988-6.237l-1.199-6.135c-.368-2.19-.385-4.385-.632-6.582-.046-.399-.42-.601-.741-.541.892-3.209 1.068-6.683.718-9.797-.368-3.277-1.247-6.46-2.505-9.505-1.275-3.084-2.989-5.876-4.548-8.812-.789-1.485-1.39-3.031-1.478-4.727-.087-1.67.062-3.343-.027-5.015-.179-3.36-.857-6.702-2.031-9.856-.584-1.564-1.281-3.083-2.081-4.547-.807-1.476-1.721-2.922-2.295-4.51-1.181-3.26-.696-6.826-.452-10.203l.758-12.518c.237-4.236.499-8.46.417-12.703-.008-.39-.564-.513-.724-.19l.751-1.728c1.189-2.916 2.165-5.892 3.145-8.881.999-3.048 1.811-6.152 2.198-9.344.224-1.855.074-3.757-.503-5.538-.566-1.744-1.424-3.374-2.19-5.033-1.648-3.566-2.792-7.345-3.859-11.116-.027-.098-.076-.178-.135-.247 1.168-2.969 2.135-6.02 2.78-9.146.804-3.914.992-7.862.983-11.846-.009-4.139-.13-8.332.713-12.409a32.69 32.69 0 0 1 .609-2.44c.495 2.921 2.575 5.325 3.834 7.972 1.757 3.691 1.901 7.969 2.425 11.957 1.108 8.418 2.53 16.793 4.28 25.101l1.52 6.834c.535 2.286.955 4.731 2.007 6.848.237.474 1.013.245.993-.268-.077-2.069-.703-4.123-1.173-6.128h.006zm66.06 6.6c-1.724-5.663-2.964-11.411-4.113-17.212l-3.684-18.473-7.26-36.187c-4.444-21.84-9.506-44.04-20.226-63.786-2.793-5.144-5.92-10.133-9.724-14.595-3.645-4.276-7.98-8.306-13.06-10.805-.49-.241-.867.415-.424.726 4.26 2.996 8.093 6.381 11.438 10.385 3.266 3.909 6.079 8.207 8.59 12.631 5.507 9.7 9.641 20.091 12.912 30.738 3.252 10.59 5.689 21.411 7.926 32.254l7.127 35.485 4.081 20.313c1.295 6.401 2.195 13.168 5.153 19.059.353.703 1.495.214 1.266-.533h-.002zm-166.386-68.332c-1.425-.378-3.094-.204-4.549-.128l-4.721.467c-3.186.415-6.323 1.07-9.433 1.876l-9.288 2.745-4.642 1.367c-1.378.387-3.098.679-4.225 1.61-.244.201-.094.604.18.683 1.367.387 3.034-.116 4.377-.438l4.679-1.232 9.118-2.713 9.09-2.428c1.607-.332 3.23-.562 4.864-.703 1.494-.129 3.078.006 4.548-.273.431-.082.394-.729 0-.833h.002zm25.797 42.968l-2.508-4.718c-1.622-3.333-2.936-6.778-4.21-10.253l-3.708-10.279c-1.276-3.428-2.614-6.9-4.692-9.938-2.031-2.969-4.63-5.583-8.008-6.94-.331-.132-.529.39-.237.563 6.298 3.734 9.121 10.479 11.569 17.043 2.463 6.606 4.948 13.223 8.03 19.572.876 1.804 1.789 3.588 2.791 5.325.887 1.536 1.781 3.311 3.235 4.392.115.085.271-.056.235-.181-.487-1.659-1.636-3.105-2.495-4.586h-.002zm-73.32-295.726c1.694-3.042 4.012-5.587 4.482-9.169.062-.48-.629-.482-.779-.106-.707 1.766-1.46 3.534-2.609 5.065-1.068 1.423-2.463 2.605-3.328 4.18-.755 1.375-1.09 2.899-1.214 4.45-.017-.074-.043-.147-.058-.221a23.99 23.99 0 0 1-.365-2.129c-.089-.712-.07-1.604-.677-2.107-.157-.129-.364-.147-.52 0-.588.558-.472 1.458-.381 2.18a19.17 19.17 0 0 0 .45 2.39 16.59 16.59 0 0 0 .613 1.888c-1.98-.183-3.944.831-5.569 1.855-3.39 2.14-6.02 5.267-8.202 8.587-2.42 3.68-4.582 7.669-6.096 11.81-1.646 4.498-1.958 9.132-1.819 13.883.079 2.677.267 5.352.258 8.03-.005 1.262-.024 2.526-.132 3.786-.064.743-.159 1.484-.268 2.222-.088.591-.024 1.17-.109 1.763-.035.242.32.464.444.186.405-.908.806-1.658 1.017-2.643.215-1.011.353-2.041.461-3.069.221-2.129.209-4.285.152-6.425-.115-4.326-.468-8.701.403-12.977.85-4.169 2.728-8.028 4.777-11.726 1.769-3.192 3.731-6.331 6.291-8.956 1.769-1.813 6.615-5.962 9.378-4.41.088.659.219 1.302.47 1.869.146.327.587.444.905.368l.094-.023c.199-.047.42-.242.452-.452.01-.065.007-.133.015-.199a.35.35 0 0 0 .123-.194 2.27 2.27 0 0 0-.049-1.122c-.006-1.143-.136-2.301-.088-3.431.079-1.855.578-3.534 1.479-5.155l-.001.002zM94.537 68.295c-.155-.818-.486-1.931-1.432-2.069-.156-.023-.353.065-.338.256.068.843.568 1.556.646 2.423.088.984.011 1.996-.044 2.98l-.267 3.363c-.12 1.075-.391 2.208-.23 3.287.035.233.37.237.476.062.606-.993.726-2.299.896-3.428l.394-3.75c.058-1.044.094-2.093-.102-3.127l.001.001zm7.039 16.986c-1.126-2.052-2.578-3.719-3.133-6.055-.562-2.37-.111-4.844-.683-7.186-.149-.608-.953-.515-1.141 0-.758 2.066-.621 4.611-.317 6.758.332 2.342 1.344 4.223 2.616 6.176 1.26 1.935 1.971 3.885 1.953 6.219-.009 1.162-.164 2.316-.382 3.456-.216 1.125-.643 2.292-.649 3.439-.005.802 1.034 1.013 1.446.391.627-.944.885-2.205 1.14-3.296a20.29 20.29 0 0 0 .495-3.343c.137-2.267-.241-4.551-1.341-6.556l-.003-.002zm19.845-29.831c-3.026.667-4.915 3.792-5.794 6.552-1.244 3.907-.723 8.13-1.559 12.117-.816 3.889-2.666 7.214-4.944 10.424-2.154 3.034-4.448 6-5.634 9.577-1.25 3.774-1.756 8.563.212 12.187.131.241.549.141.529-.144-.25-3.642-.689-7.15.366-10.727 1.053-3.569 3.283-6.416 5.542-9.297 2.222-2.833 4.112-5.784 5.209-9.239 1.193-3.753 1.025-7.582 1.421-11.45.189-1.843.562-3.704 1.432-5.355.844-1.602 2.079-2.76 3.625-3.681.525-.312.171-1.09-.406-.962l.001-.002zm-13.209 50.913l-.552-3.86-.442-3.486c-.037-1.096.126-2.184.171-3.278.012-.283-.346-.398-.535-.221-1.76 1.631-1.235 4.549-.915 6.662l.759 4.104.492 1.916c.194.634.346 1.355.73 1.902.093.135.309.125.357-.047.318-1.121.061-2.547-.063-3.692h-.002z"/><path d="M145.192 23.781c-3.537 2.292-7.756 2.657-11.826 3.231-3.968.561-7.635 1.652-10.844 4.141-2.996 2.325-5.441 5.523-6.326 9.262-.05.211-.077.424-.117.637-.571-.188-1.103-.447-1.555-.928-.767-.819-1.135-1.938-1.349-3.019-.454-2.301-.112-4.742.596-6.957.702-2.199 1.858-4.213 3.231-6.061 1.454-1.955 3.26-3.593 4.767-5.494.326-.412-.097-1.156-.617-.8-2.249 1.543-4.209 3.713-5.858 5.865-1.731 2.26-3.14 4.8-3.853 7.57-.669 2.602-.741 5.633.323 8.145.693 1.634 2.278 3.325 4.092 3.489a14.61 14.61 0 0 0 2.09 8.343c1.055 1.74 2.501 3.256 4.187 4.394 1.448.979 3.693 2.113 5.441 1.419.234-.092.263-.359.066-.509-.664-.505-1.43-.749-2.197-1.082a13.01 13.01 0 0 1-2.196-1.234c-1.342-.927-2.463-2.166-3.332-3.54-1.858-2.937-2.598-6.435-1.746-9.836.866-3.459 2.957-6.546 5.788-8.706 3.074-2.345 6.607-3.268 10.372-3.806 3.957-.564 8.355-.935 11.224-4.06.218-.238-.065-.655-.359-.465l-.002.002zm44.11 29.926c-3.627-1.252-7.539-.771-11.243-.079-3.842.718-7.625 1.684-11.479 2.345-7.857 1.346-15.717 2.34-23.706 2.134-4.448-.114-8.797-.796-13.218-1.19-.703-.062-.747.952-.157 1.163 3.613 1.297 7.584 1.685 11.396 1.935 3.902.256 7.829.153 11.726-.15s7.764-.834 11.609-1.51c3.858-.678 7.657-1.648 11.477-2.501 4.401-.984 8.761-1.564 13.264-.949.776.106 1.108-.931.331-1.199zm-20.91-26.181c-11.589 6.125-26.111 1.252-37.246 8.63-2.941 1.949-5.01 4.763-6.302 8.028-.14.35.383.514.573.242 1.033-1.484 1.88-3.063 3.134-4.383.977-1.029 2.087-1.943 3.289-2.701 2.481-1.566 5.292-2.461 8.155-3.028 6.257-1.238 12.695-.788 18.96-1.957 3.641-.679 7.028-1.843 9.975-4.135.412-.321-.113-.923-.538-.697zm5.888 3.142c-2.074 1.096-3.921 2.542-6.15 3.345-2.483.894-4.929.808-7.519.593-2.122-.177-4.299-.352-6.377.242-1.505.43-3.64 1.414-4.039 3.096-.059.252.228.527.47.361.75-.517 1.331-1.193 2.157-1.614.903-.459 1.932-.7 2.934-.815 2.36-.271 4.709.274 7.057.42 4.536.282 8.775-1.826 12.085-4.827.443-.4-.121-1.062-.617-.8h-.001zm10.336 16.891c-2.949.042-5.894.652-8.754-.412-.6-.223-1.182-.511-1.707-.879-.085-.059-.779-.503-.755-.676.034-.245.726-.482.951-.599l4.277-2.375c.727-.418.339-1.399-.399-1.472a82.3 82.3 0 0 0-9.084-.383c4.26-2.53 8.454-5.835 9.484-10.832.103-.499-.573-.673-.753-.208-1.041 2.689-2.717 4.841-4.98 6.613-2.333 1.826-4.917 3.24-7.515 4.648-.701.38-.403 1.582.416 1.535 3.299-.19 6.6-.18 9.897.021l-.764.459c-.782.474-1.693.908-2.371 1.526-1.323 1.211.287 2.451 1.326 3.09 3.165 1.948 7.378 1.852 10.879 1.035.613-.142.478-1.102-.148-1.093zm21.547-27.924c-3.983-5.387-9.882-9.445-15.899-12.279a53.41 53.41 0 0 0-19.507-4.989c-1.74-.106-3.486-.121-5.226-.038-1.931.092-3.854.383-5.79.382-2.041 0-4.001-.506-5.992-.894-1.565-.305-3.15-.514-4.74-.614-6.235-.394-12.579.875-18.236 3.507-3.144 1.464-6.148 3.348-8.763 5.634-2.62 2.293-5.183 5.029-6.77 8.157-.258.508.429 1.137.837.646 1.943-2.339 3.842-4.645 6.162-6.631 2.281-1.951 4.783-3.642 7.452-5.017 5.347-2.754 11.369-4.283 17.392-4.219 1.509.015 3.025.12 4.519.346 1.809.274 3.58.75 5.39 1.018 3.59.532 7.181-.221 10.78-.27 6.546-.089 13.056 1.225 19.118 3.68 3.423 1.385 6.701 3.175 9.755 5.25 3.064 2.081 5.835 4.582 8.581 7.058.474.427 1.364-.15.94-.724l-.003-.002zm19.08 53.353c-1.317-.721-2.334-1.654-3.036-2.993s-1.079-2.824-1.429-4.285c-.957-4.009-1.724-8.08-2.281-12.163-1.054-7.716-1.476-15.608-4.552-22.868-.754-1.782-1.65-3.493-2.752-5.088-1.04-1.507-2.232-3.192-3.872-4.08-.366-.197-.81.208-.584.584.909 1.511 2.183 2.775 3.127 4.274s1.75 3.089 2.417 4.724c1.437 3.527 2.234 7.257 2.822 11.008 1.29 8.239 1.733 16.54 3.961 24.62.782 2.836 2.429 6.807 5.722 7.349.619.102 1.089-.737.457-1.082zm.131 9.28c-.531-1.625-2.337-2.005-3.5-3.063-1.114-1.012-1.919-2.288-2.657-3.587l-.856-1.531.968.315c1.263.423 2.497.858 3.82 1.053.339.05.579-.383.247-.585-1.801-1.087-3.853-1.644-5.785-2.449l-.296-.13c-.965-1.566-2.066-3.024-3.609-4.127-.522-.373-1.326.124-1.291.741.117 2.034 1.535 3.4 3.274 4.206l2.011 3.706c.722 1.254 1.531 2.492 2.566 3.512a9.44 9.44 0 0 0 1.685 1.323l.722.406c-1.151.135-2.312-.112-3.465-.377-.794-.183-1.262.881-.556 1.32 1.781 1.109 4.133.961 6.071.412.467-.132.808-.662.651-1.144zm-3.545 6.775c-1.505-1.141-2.771-2.596-3.751-4.207-.953-1.566-1.87-3.377-2.377-5.138-.1-.349-.645-.288-.639.086.039 2.173.403 4.044 1.449 5.968a14.71 14.71 0 0 0 .911 1.454l-6.842-3.098c-3.277-1.764-5.897-4.218-8.172-7.14-2.155-2.771-4.021-5.752-6.193-8.512-2.208-2.808-4.772-5.277-7.861-7.101-3.548-2.095-7.51-3.19-11.608-3.246-.852-.012-.803 1.196 0 1.291a27.59 27.59 0 0 1 10.383 3.436c3.069 1.76 5.569 4.195 7.74 6.966 2.104 2.683 3.938 5.562 6.052 8.239 2.199 2.784 4.711 5.185 7.775 6.998 1.808 1.069 3.721 1.941 5.643 2.783l6.502 2.91c1.161.491 1.997-.92.987-1.687l.001-.001zm-9.504-1.308c-.617-.877-1.188.543-1.299 1.011-.313 1.323-.456 2.686-.61 4.035l-.111.911-.508-1.936c-.31-1.021-.62-2.258-1.245-3.134-.337-.471-1.252-.373-1.202.326.069.982.489 1.948.765 2.889l.75 2.977c.375 1.984.438 4.033-.086 5.995-.27 1.011 1.193 1.379 1.544.426.76-2.062 1.028-4.258 1.207-6.436l.247-3.322c.028-.344.474-3.21.206-3.296.239.077.492-.227.341-.444h.001zm-5.118 8.848c-.106-.127-.346-.121-.452 0-.279.315-.309.691-.359 1.097l-.135 1.523-.157 2.83-.22 5.87c.026.679 1.114.903 1.244.168.346-1.954.387-3.951.444-5.929l.034-2.937c-.01-.787.131-1.982-.398-2.62l-.001-.002zm-16.984-10.801c-.583-.7-1.262-1.275-2.023-1.776-1.484-.978-3.222-1.638-4.965-1.97-4.445-.849-9.179.353-13.378 1.79-.199.068-.411.224-.449.449-.25 1.507-.893 2.86-1.241 4.33-.085.355.367.659.636.37.995-1.065 1.46-2.607 1.766-4.022 1.523-.462 3.058-.934 4.609-1.303-.659.514-1.194 1.194-1.485 1.928-.682 1.719-.178 3.75 1.026 5.105 1.23 1.387 3.172 2.072 5.001 1.849 1.931-.233 3.65-1.328 4.733-2.934.623-.925 1.034-2.069.928-3.195-.086-.921-.508-2.257-1.535-2.499-.317-.074-.682.217-.563.562.228.652.687 1.14.743 1.861.058.741-.195 1.466-.571 2.095a5.61 5.61 0 0 1-3.397 2.531 4.7 4.7 0 0 1-3.884-.797c-1.129-.853-1.664-2.229-1.557-3.622.062-.808.35-1.6.872-2.228.412-.496.942-.803 1.52-1.031 1.876-.327 3.777-.452 5.711-.153 1.685.259 3.308.805 4.76 1.711a12.38 12.38 0 0 1 1.913 1.494c.577.547.983 1.279 1.623 1.755.139.103.368-.035.353-.203-.071-.814-.641-1.488-1.146-2.095zm-2.024 5.042c-.841-.12-1.354.318-1.848.959a5.37 5.37 0 0 1-2.087 1.65c-1.609.738-3.445 1.026-5.206.955a13.24 13.24 0 0 1-4.986-1.202 14.11 14.11 0 0 1-2.201-1.297l-2.067-1.581c-.211-.133-.562.094-.456.35.66 1.587 2.308 2.752 3.767 3.553a13.58 13.58 0 0 0 5.329 1.623c1.818.164 3.738-.029 5.449-.676.92-.349 1.794-.794 2.546-1.437.378-.323.684-.696.976-1.096.258-.355.482-.762.894-.952.344-.159.279-.796-.11-.85zm3.696-13.238c-1.667-1.119-3.829-1.607-5.918-1.87-2.311-.293-4.635-.24-6.96-.089l-7.341.511c-2.262.07-4.63-.003-6.737-.762-1.006-.362-1.964-.825-2.763-1.453-.862-.681-1.304-1.482-1.701-2.395-.072-.167-.422-.158-.4.045.155 1.446 1.411 2.855 2.721 3.759 1.661 1.144 3.719 1.658 5.839 1.858 5.013.473 10.035-.661 15.056-.506 1.354.041 2.695.127 4.02.37 1.318.241 2.581.635 3.848 1.014.317.094.603-.302.336-.48zm-41.088-4.149l-.167.004c-.018 0-.036.017-.034.035s.015.035.034.035l.167.005c.021 0 .041-.018.04-.039s-.019-.041-.04-.039zm-.002.328c-.058 0-.058.09 0 .09s.058-.09 0-.09z"/><path d="M150.775 72.335c-.602.797-1.026 1.631-1.79 2.31-.784.694-1.692 1.208-2.698 1.499-2.161.626-4.471.361-6.687.346l-7.235-.03c-1.886 0-3.835.062-5.669.53s-3.789 1.341-4.921 2.922c-.15.211.149.505.358.358 1.583-1.111 3.179-1.822 5.106-2.113 1.985-.3 3.977-.318 5.979-.318l7.517-.017c2.13-.042 4.35-.032 6.355-.853.979-.402 1.883-.991 2.602-1.77.658-.711 1.392-1.693 1.53-2.674.039-.277-.275-.415-.446-.188l-.001-.001zm-5.65 16.995a4.13 4.13 0 0 1-.334-1.772c.034-.987.272-1.937-.248-2.849-.923-1.62-3.127-1.802-4.771-2.029-4.273-.593-9.15-.794-12.828 1.872-1.463 1.061-3.121 3.071-3.139 4.973-.002.217.276.271.388.106.638-.937 1.118-1.892 1.962-2.681.758-.709 1.677-1.306 2.589-1.797 1.184-.637 2.461-1.008 3.772-1.205a3.96 3.96 0 0 0-.977 1.234c-.858 1.679-1.02 3.621.179 5.174 2.091 2.712 6.682 2.816 8.943.256 1.21-1.37 1.761-3.744.619-5.323-.187-.256-.476-.389-.785-.261-.264.109-.482.449-.369.741.456 1.169.475 2.326-.203 3.419-.656 1.058-1.894 1.667-3.105 1.802-1.187.133-2.434-.156-3.401-.87-1.149-.85-1.451-2.126-1.249-3.496.109-.74.376-1.479.891-2.035.277-.3.623-.526 1.019-.635.407-.114.792-.071 1.204-.117.047-.004.079-.032.091-.067.278.003.557.009.832.023 1.392.065 2.775.239 4.152.449.911.139 2.049.264 2.752.923.433.406.465.893.487 1.459.021.596.066 1.16.237 1.732.269.894.707 2.002 1.642 2.364.101.039.194-.076.17-.168-.111-.435-.349-.805-.52-1.217v-.005zm-1.354 2.397c-2.81 1.804-5.955 3.071-9.354 2.807-3.338-.259-6.125-2.014-8.35-4.416-.12-.129-.315.035-.236.183 3.395 6.364 13.869 7.869 18.172 1.657.097-.139-.094-.318-.232-.23zm7.628 33.574c-.417-.174-.808-.388-1.244-.515l-1.286-.389c-.776-.276-1.497-.696-1.988-1.374-.447-.616-.643-1.414-.582-2.167.032-.388.133-.782.298-1.135a5.76 5.76 0 0 1 .281-.518c.094-.157.235-.31.273-.488.013-.064-.031-.148-.108-.141-.394.036-.75.491-.955.797a3.94 3.94 0 0 0-.544 1.246c-.232.942-.161 1.943.27 2.817.473.958 1.388 1.591 2.351 1.992a6.34 6.34 0 0 0 1.48.415c.585.089 1.107.015 1.686-.058.28-.035.327-.373.065-.482h.003zm13.37-3.294a4.47 4.47 0 0 0-2.489.309 3.65 3.65 0 0 0-1.85 1.692c-.479.879-1.111 1.434-2.093 1.678-.84.209-1.717.178-2.572.109-.478-.04-1.099-.029-1.531-.264-.42-.229-.702-.744-1.006-1.096-.575-.662-3.964-3.346-4.309-1.261-.047.281.035.523.277.682.178.115.353.119.543.032.076-.035.173-.057.173-.073.157.038.391.187.51.252.367.199.72.423 1.054.673.63.474 1.105 1.114 1.734 1.581.639.476 1.409.521 2.179.562.756.039 1.517.045 2.269-.05.659-.083 1.299-.249 1.89-.558.685-.357 1.07-.896 1.565-1.464s1.137-1.085 1.862-1.309c.345-.108.701-.156 1.064-.14a2.55 2.55 0 0 1 .435.055l.262.066c.068.041.098.054.121.058.155.487.852.447 1.109.071.608-.886-.456-1.48-1.197-1.605zm3.369-2.99a.66.66 0 0 0-.582-.334c-.181.011-.354.055-.476.197-.21.243-.247.531-.105.817.287.581.596 1.176.74 1.813.145.643-.026 1.203-.37 1.749-.637 1.011-1.626 1.958-2.916 1.585-.203-.059-.39.225-.215.372 1.338 1.123 2.996-.208 3.833-1.287.53-.684.859-1.446.839-2.325-.019-.922-.353-1.767-.747-2.586l-.001-.001zm7.986 16.508c-2.334 1.031-4.855 1.019-7.34.691-2.659-.35-5.182-.717-7.868-.424-1.365.148-2.726.321-4.1.173l-3.875-.378c-2.675.011-5.238.887-7.887 1.131-2.419.223-5.126-.073-7.048-1.696-.209-.177-.451.126-.271.317 3.537 3.751 9.232 1.87 13.662 1.553 2.793-.2 5.485.623 8.281.355 1.437-.138 2.858-.346 4.307-.29 1.439.055 2.869.272 4.3.414 2.728.274 5.779.343 8.051-1.44.194-.151.042-.518-.209-.406h-.003zm-13.672 6.609c-.318-.282-.659-.218-1.062-.165l-1.422.23c-.914.133-1.843.226-2.769.22-.808-.006-1.604-.106-2.387-.302-.797-.198-1.541-.668-2.34-.814-.126-.022-.225.052-.235.179l-.033.284c-.005.033.03.075.065.05.038-.031.079-.056.119-.084.428.591 1.202.929 1.857 1.175.835.314 1.731.458 2.618.518 1.023.07 2.043-.004 3.056-.141l1.495-.233c.408-.082.88-.138 1.088-.537.062-.118.058-.285-.05-.38zm41.365-57.555c-.003-.014-.021-.011-.026 0-.289.709-.327 1.472-.418 2.229l-.287 2.502-.563 5-1.289 10.127c-.921 6.632-1.926 13.254-3.096 19.847l-.999 5.492-.55 2.88c-.177.911-.43 1.825-.429 2.755 0 .57.731.585.923.125.325-.773.432-1.616.594-2.436l.479-2.466.937-5.079 1.622-9.919c1.004-6.622 1.799-13.272 2.438-19.94l.481-5.555.203-2.919c.051-.876.177-1.784-.02-2.645zm-8.548 52.46c-1.273 2.051-2.649 4.055-4.227 5.891-1.582 1.842-3.282 3.577-5.015 5.278-3.598 3.533-7.196 7.178-11.376 10.03-1.065.728-2.16 1.414-3.205 2.173-.964.701-2.271 1.531-2.763 2.654-.15.341.166.74.533.534 1.014-.567 1.839-1.551 2.783-2.237.979-.713 2.002-1.36 3.005-2.039 2.069-1.399 4.003-2.981 5.85-4.66 1.906-1.733 3.712-3.576 5.526-5.402 1.712-1.722 3.417-3.462 4.956-5.341 1.696-2.067 3.271-4.256 4.288-6.731.086-.21-.244-.33-.356-.15h.001zm-46.429 25.42c-.816-.661-1.828-1.091-2.721-1.641a27.85 27.85 0 0 1-2.717-1.921l-5.2-4.53-11.375-10.004-3.087-2.766c-.949-.898-1.79-2.001-2.892-2.713-.271-.176-.506.157-.4.4.476 1.094 1.405 1.967 2.214 2.823a56.26 56.26 0 0 0 2.563 2.537l5.731 5.26c3.649 3.314 7.225 6.764 11.057 9.868.967.782 1.962 1.534 3.012 2.202 1.02.65 2.175 1.361 3.393 1.51.501.06.811-.708.423-1.022l-.001-.003zm5.694-58.798c-.008-.129-.287-.168-.331-.032-.55 1.719-.749 3.432-.73 5.191.018 1.77-.256 3.609.042 5.368.011.063.158.094.174.017.358-1.706.257-3.468.51-5.186.265-1.795.451-3.554.335-5.358zm5.016 9.915c-.016-.013-.048-.009-.077-.012.061-.306.026-1.082.023-1.212l-.033-1.393-.057-2.683-.124-2.684c-.047-.762.102-1.766-.411-2.458-.06-.082-.227-.077-.277.009-.253.433-.191.944-.168 1.405l.086 1.393.212 2.955.213 3.122c.022.472-.075 1.035.066 1.495a.43.43 0 0 0 .349.345c.058.015.127.008.174-.021.128-.077.135-.171.024-.262v.001zm-41.532 18.781l-1.503-5.538a253.41 253.41 0 0 1-2.625-11.365c-1.587-7.649-2.944-15.332-3.783-23.104l-.638-6.429c-.187-2.104-.19-4.545-.975-6.528-.109-.276-.511-.318-.605 0-.521 1.754-.363 3.824-.259 5.633.114 1.967.249 3.935.441 5.897a214.96 214.96 0 0 0 1.472 11.64c1.205 7.802 2.908 15.513 5.203 23.069l1.964 6.155c.685 2.046 1.258 4.227 2.372 6.085.087.144.365.097.343-.093-.226-1.859-.89-3.627-1.407-5.423z"/></g><g style="mix-blend-mode:darken" opacity=".25"><path d="M81.984 277.256c.039-.522-.104-.968-.353-1.333a14.08 14.08 0 0 0-.55-2.475c-.044-.135-.124-.226-.182-.346-.408-3.048-1.505-6.038-2.425-8.981.132-.384.15-.817 0-1.279-1.502-4.661-2.563-9.438-3.106-14.306-.082-.74-.433-1.298-.906-1.672a4.7 4.7 0 0 1 1.046-1.722c-.148-1.373.202-2.734.505-4.096-.399-.231-.915-.305-1.538-.122-4.201 1.243-5.961 5.867-5.641 9.926.377 4.783 1.863 9.354 2.049 14.189.183 4.78-.273 9.562-1.411 14.209-.585 2.392-1.35 4.732-2.258 7.02-.912 2.299-2.099 4.609-.882 6.993.161.314.417.575.72.778l1.484-.86c-.056-.365.12-.76.597-.841.82-.11 1.588-.4 2.34-.738.108-.28.209-.564.305-.852.362.078.737.093 1.113-.047.164-.06.312-.13.468-.195.279-.049.533-.146.802-.218.07-.034.139-.072.211-.103.109-.05.215-.046.32-.041a8.01 8.01 0 0 0 4.165-3.215c.049-.073.079-.145.117-.218.435-.185.822-.485 1.087-.923.056-.093.102-.19.155-.284.082-.118.18-.209.244-.356.038-.088.058-.173.094-.26.587-1.151 1.008-2.359 1.226-3.649a2.81 2.81 0 0 0-.1-1.401c.132-.855.241-1.716.306-2.588l.001.006z" fill="#111119"/></g><g style="mix-blend-mode:darken" opacity=".25"><path d="M277.273 301.172c.015-.413-.053-.771-.18-1.076l-.153-2.669c-.081-.901-.525-1.549-1.114-1.953-.099-1.045-.347-2.046-.861-2.921-.384-.655-.914-1.182-1.516-1.578-.209-.382-.501-.741-.908-1.05-10.9-8.296-8.828-22.542-5.741-34.23 1.39-5.259 4.309-13.96-1.636-17.66-2.506-1.558-5.793-.956-6.934 1.957-.463 1.181-.428 2.434-.36 3.681.091 1.672.078 3.526.56 5.141-.028.132-.056.262-.067.406l-.029.419-.824 4.524a2.7 2.7 0 0 0 .022 1.112c-.087.143-.169.293-.236.461l-3.378 8.454c-.078.193-.106.391-.114.59l-.352.689a2.69 2.69 0 0 0-.257.816c-.199.336-.388.676-.567 1.021-.211.193-.396.435-.535.746l-.687 1.528c-.138.159-.263.338-.357.559-.088.204-.158.411-.241.614l-.016-.006-.96 2.375c-.182.448-.193.874-.094 1.264-.023 1.041.589 2.023 1.464 2.49a29.88 29.88 0 0 0 2.704 5.271c.2.309.45.547.726.729l.136.268c.12.92.288 1.824.53 2.706.011.078.011.153.029.235.452 2.165 1.063 4.275 1.822 6.342a39.03 39.03 0 0 0 .556 5.719c.005.022.014.041.018.063l.037 1.875c.016.86.354 1.499.847 1.927l.052 1.799c.018.647.213 1.168.515 1.568l.145 4.091c.026.73.285 1.291.664 1.705.305 4.988 1.357 9.829 2.004 14.779.098.75.408 1.323.824 1.735l.688 5.085c.132.338.229.671.335 1.002.02.025.04.054.061.08.161.194.2.402.162.593.211.719.39 1.448.571 2.176.451.321 1.028.442 1.615.367.309-.511.651-.995 1.033-1.449.296-.608.813-1.129 1.337-1.589.011-.013.023-.027.033-.04.028-.032.064-.05.096-.078.027-.266.042-.533.08-.798.666-.245 1.243-.745 1.501-1.509.397-1.171.967-2.252 1.755-3.211.648-.788.708-1.688.435-2.46l1.997-4.379c.887-1.565 1.569-3.232 2.045-4.98a2.45 2.45 0 0 0-.103-1.623l.529-2.934a2.75 2.75 0 0 0-.065-1.279c.215-2.433.294-4.87.277-7.31l.082-2.178-.002-.002z" fill="#111119"/></g><g style="mix-blend-mode:darken" opacity=".25"><path d="M229.547 162.438l-2.031.187c-.847.094-1.691.074-2.522-.152l-.342.922c-.197-.041-.4-.066-.615-.053-3.771.222-7.575.688-11.351.745-.156.003-.436-.033-.418-.006-.552-.194-.937-.485-1.628-.464-.618.02-1.182.147-1.681.373-.075-.683-.222-1.349-.651-1.896-.452-.576-.996-.909-1.563-1.064-.543-.447-1.193-.682-1.869-.659.096-2.42.14-5.691-2.69-6.52a1.96 1.96 0 0 0-.724-.052c-.598-.676-1.367-1.194-2.109-1.703a36.69 36.69 0 0 0-2.741-1.737c-.926-.525-1.922-1.061-2.954-1.334-.749-.197-1.628-.348-2.465-.311-.374-.288-.757-.627-1.18-.841-.916-.459-1.942-.448-2.774.196-.283.218-.5.52-.674.845-.799.272-1.475.823-1.748 1.619l-2.464 2.025c-.221.185-.378.393-.497.609-.507.441-1.035.855-1.523 1.319a2.44 2.44 0 0 0-.435.559c-.599.509-1.187 1.031-1.81 1.51a3.57 3.57 0 0 0-.679.683l-2.361 1.743a2.92 2.92 0 0 0-.685.711c-.029.017-.061.026-.09.045l-1.077.776c-.008.005-.016.011-.023.016-.609.288-1.167.657-1.699 1.064-3.66 2.137-7.424 3.792-11.855 4.004-4.799.23-9.358-1.101-13.445-3.488l-.594-.391c-1.51-1.503-2.942-3.061-4.332-4.587-.165-.016-.332-.081-.477-.225-.252-.247-.523-.473-.784-.709-1.046-.59-1.91-1.396-2.717-2.308a.65.65 0 0 1-.16-.388c-.006-.005-.01-.009-.016-.014-.103.033-.208.093-.309.108-.161.127-.372.198-.57.198-.393 0-.622-.245-.893-.498-.114-.106-.218-.22-.326-.329-.702-.553-1.32-1.339-1.831-1.854-.18-.182-.201-.444-.135-.677-.033-.055-.06-.116-.092-.172-.947-.735-1.888-1.477-2.881-2.152-.235-.159-.325-.364-.328-.567-.304-.272-.619-.532-.913-.817-.452-.438-1.004-.97-1.449-1.559-.476-.397-.91-.835-1.31-1.31-.065-.062-.129-.127-.194-.191-.07.341-.091.705-.032 1.09.423 2.733 2.177 5.097 3.735 7.305 1.691 2.398 3.519 4.715 5.432 6.939 3.868 4.498 8.102 8.906 12.844 12.49 4.841 3.659 10.942 5.308 16.837 6.347 2.451.432 4.879.666 7.283.979a2.61 2.61 0 0 0 .203.103l1.694.767c1.072.511 2.128 1.064 3.151 1.668a31.03 31.03 0 0 1 5.54 4.137c1.711 1.584 3.195 3.259 4.428 5.059.729 1.064 1.374 2.174 1.992 3.304.317.581.62 1.184.996 1.728.085.123.197.238.295.359a6.64 6.64 0 0 0 .452.885c.061.113.17.176.249.272.045.063.106.112.157.171.079.074.127.18.221.241.066.061.143.101.214.151.059.043.094.105.158.143a1.88 1.88 0 0 0 .941.3c.336.076.673.061 1.009-.045.046-.016.091-.038.137-.055a1.85 1.85 0 0 0 .541-.227c.532-.343 1-.854 1.146-1.49l.089-.662c.008-.01.018-.014.026-.022 1.502-1.179 2.932-2.429 4.342-3.718.156-.142.277-.313.383-.495.313-.237.64-.458.917-.735.579-.579.773-1.213.825-2.007.004-.063-.008-.127-.012-.191 2.181-2.41 3.695-5.444 5.294-8.239a2.59 2.59 0 0 0 .268-.71c.828-.135 1.649-.308 2.404-.432 1.537-.254 3.063-.576 4.56-1.01 3.044-.882 6.04-2.181 8.574-4.103 2.36-1.789 4.409-4.01 5.731-6.683.672-1.361 1.186-2.778 1.429-4.28.024-.147.038-.299.059-.448l-.828-.118v.003zm-38.238 21.358c-.86-.415-1.88-.653-2.763-.477a33.23 33.23 0 0 0-2.818-2.681c-.065-.055-.136-.102-.201-.155l1.441.611c.28.115.585.139.89.107.363.308.772.551 1.206.726.418.211.862.376 1.319.476.371.463.76.913 1.192 1.337.355.349.799.564 1.266.676.088.199.189.396.315.591-.579-.453-1.184-.888-1.849-1.208l.002-.003zm8.639-3.675c-.055-.199-.135-.388-.237-.57.238-.396.462-.802.664-1.225.129.088.245.188.383.267-.312.488-.57 1.002-.81 1.528z" fill="#111119"/></g><g style="mix-blend-mode:darken" opacity=".25"><path d="M214.357 86.232l-.478-.124c-.367-.079-.724-.18-1.077-.305a.61.61 0 0 1-.676-.094l-.47-.417-.134-.067c-.136-.082-.213-.186-.266-.297l-.067-.056c-.368-.196-.718-.429-1.044-.706l-.065-.038c-.043-.017-.081-.043-.117-.068l-.96-.562a.74.74 0 0 1-1.13.021l-3.833-3.847c-.305-.258-.337-.697-.188-1.02-1.258-1.252-2.396-2.645-3.503-3.997-2.149-2.625-3.827-5.781-6.171-8.221-2.108-2.193-4.991-3.901-7.6-5.42-2.426-1.413-4.951-2.337-7.546-2.925-2.602.567-5.239.5-7.788-.42-.458-.888-1.442-1.522-2.792-1.29l-4.364.803c-.524-.371-1.205-.541-2.009-.341-3 .746-6.026 1.07-9.064 1.156l-1.438.208-5.241.638c-2.102.202-4.236.341-6.347.199-1.437-.097-3.11-.323-4.33-1.188-1.096.024-2.193.02-3.298-.057-1.24-.086-4.138-.412-5.638-1.491-1.339-.458-2.547-1.199-3.661-2.138-.195-.165-.265-.39-.268-.609a2.07 2.07 0 0 0-.315.343c-4.304 6.125 17.305 9.354 20.377 9.708 4.227.485 8.501.541 12.743.233 2.812.053 5.67-.259 8.154-.453 6.054-.476 12.554-1.053 18.164 1.772 2.478 1.249 5.048 2.813 7.185 4.591 2.354 1.957 3.834 5.033 5.731 7.424 1.471 1.855 2.962 3.739 4.633 5.432l.054 2.952a91.41 91.41 0 0 1-.21 5.899c-.137 1.96-.347 3.918-.408 5.88l-.099 2.977c-.053 1.102-.156 2.176.476 3.146.472.725 1.322 1.086 2.118.952l-.02 4.517c0 .041.015.077.018.118l.005-.003c.048-.02.1-.021.15-.03a.8.8 0 0 0 .001.048 1.67 1.67 0 0 0 .193.858c.089.276.244.515.46.717l.451.348c.256.163.532.252.829.264a1.12 1.12 0 0 0 .592 0c.297-.013.573-.101.829-.264.481-.309.884-.762 1.025-1.33.056-.229.086-.466.135-.696.062-.298.101-.599.133-.902l.017-.15c.006-.074-.023-.133-.029-.201.088-.114.203-.202.342-.249.005-.018.007-.036.011-.054.008-.029.032-.037.041-.063l.396-5.257c-.023-.043-.066-.073-.079-.118-.065-.21-.003-.485.147-.673.009-.09.013-.178.022-.267.067-.009.129-.036.194-.053-.007-.082.008-.159.022-.235h.001c.278-.109.566-.217.831-.353.062-.032.121-.07.179-.111a6.71 6.71 0 0 0 .698-.547 1.48 1.48 0 0 0 .143-.155 2.83 2.83 0 0 0 .589-.917c.07-.091.143-.177.199-.28l.282-.67a2.83 2.83 0 0 0 0-1.49c-.017-.07-.029-.139-.04-.209a2.04 2.04 0 0 0-.015-.109c-.021-.093-.063-.173-.097-.259l.028-.728c.397-.3.709-.718.906-1.228.073-.996.236-1.993.442-2.945.053-.246.119-.532.196-.826.05-.256.124-.511.217-.762-.084-.12-.137-.259-.15-.403-.172-.356-.097-.868.312-1.09.07-.038.144-.055.214-.086a.83.83 0 0 1 .294-.293c-.025.015-.049.032-.075.047.037-.023.072-.045.106-.071.063-.044.128-.083.19-.126l.015-.009c.055-.038.108-.08.167-.111l.016-.017c.078-.077.181-.121.29-.147.324-.289.702-.496 1.146-.58-.003-.009-.003-.018-.006-.027l-.003-.004z" fill="#111119"/></g></g><defs><clipPath id="A"><path fill="#fff" d="M0 0h337v268H0z"/></clipPath></defs></svg>