<svg width="143" height="108" viewBox="0 0 143 108" fill="none" xmlns="http://www.w3.org/2000/svg">
<path d="M143 71.5C143 110.988 102.5 107 71.5 107C40.5 107 0 110.988 0 71.5C0 32.0116 32.0116 0 71.5 0C110.988 0 143 32.0116 143 71.5Z" fill="#D9D9D9"/>
<path d="M143 71.5C143 110.988 102.5 107 71.5 107C40.5 107 0 110.988 0 71.5C0 32.0116 32.0116 0 71.5 0C110.988 0 143 32.0116 143 71.5Z" fill="#7BAAC1"/>
<path d="M102.159 36.0945C101.954 39.0366 98.8665 38.5221 96.4877 38.3558C94.1089 38.1894 90.9803 38.2693 91.1861 35.3272C91.3918 32.3851 94.015 30.1718 97.0452 30.3837C100.075 30.5956 102.365 33.1524 102.159 36.0945Z" fill="#434343"/>
<path d="M52.3457 35.3274C52.5514 38.2695 49.4229 38.1897 47.0441 38.356C44.6653 38.5224 41.5782 39.0369 41.3725 36.0947C41.1668 33.1526 43.4564 30.5958 46.4866 30.3839C49.5168 30.172 52.14 32.3853 52.3457 35.3274Z" fill="#434343"/>
<path d="M47 65.875C47 62.9257 60.8776 69.3834 71.5 69.3834C82.1224 69.3834 97 62.9257 97 65.875C97 68.8243 85.031 77.375 71.5 77.375C57.969 77.375 47 68.8243 47 65.875Z" fill="#434343"/>
</svg>
