<?xml version="1.0" encoding="UTF-8"?>
<svg id="Ebene_1" data-name="Ebene 1" xmlns="http://www.w3.org/2000/svg" xmlns:xlink="http://www.w3.org/1999/xlink" viewBox="0 0 166 166">
  <defs>
    <style>
      .cls-1 {
        fill: none;
      }

      .cls-2 {
        clip-path: url(#clippath);
      }

      .cls-3 {
        fill: #010202;
      }

      .cls-4 {
        fill: #ea571f;
      }

      .cls-5 {
        fill: #fff;
      }

      .cls-6 {
        fill: #efefef;
      }

      .cls-7 {
        fill: #e5bdae;
      }

      .cls-8 {
        fill: #aa7157;
      }

      .cls-9 {
        fill: #bfa576;
      }

      .cls-10 {
        fill: #d3a090;
      }

      .cls-11 {
        fill: #70b581;
      }

      .cls-12 {
        fill: #9c593e;
      }

      .cls-13 {
        fill: #020203;
        opacity: .33;
      }

      .cls-13, .cls-14, .cls-15 {
        isolation: isolate;
      }

      .cls-14 {
        fill: url(#Unbenannter_Verlauf_2);
      }

      .cls-14, .cls-15 {
        opacity: .2;
      }

      .cls-15 {
        fill: url(#Unbenannter_Verlauf);
      }
    </style>
    <clipPath id="clippath">
      <rect class="cls-1" y="0" width="166" height="166"/>
    </clipPath>
    <radialGradient id="Unbenannter_Verlauf" data-name="Unbenannter Verlauf" cx="-194.22" cy="467.27" fx="-194.22" fy="467.27" r=".99" gradientTransform="translate(2140.49 4365.97) rotate(1.38) scale(11.22 -9.09)" gradientUnits="userSpaceOnUse">
      <stop offset="0" stop-color="#ba695c"/>
      <stop offset=".25" stop-color="#b6695b" stop-opacity=".74"/>
      <stop offset=".51" stop-color="#aa6957" stop-opacity=".48"/>
      <stop offset=".77" stop-color="#966752" stop-opacity=".21"/>
      <stop offset=".97" stop-color="#82644c" stop-opacity="0"/>
    </radialGradient>
    <radialGradient id="Unbenannter_Verlauf_2" data-name="Unbenannter Verlauf 2" cx="-194.22" cy="467.27" fx="-194.22" fy="467.27" r=".99" gradientTransform="translate(2169.61 4366.65) rotate(1.38) scale(11.22 -9.09)" gradientUnits="userSpaceOnUse">
      <stop offset="0" stop-color="#ba695c"/>
      <stop offset=".25" stop-color="#b6695b" stop-opacity=".74"/>
      <stop offset=".51" stop-color="#aa6957" stop-opacity=".48"/>
      <stop offset=".77" stop-color="#966752" stop-opacity=".21"/>
      <stop offset=".97" stop-color="#82644c" stop-opacity="0"/>
    </radialGradient>
  </defs>
  <g class="cls-2">
    <g>
      <path class="cls-8" d="m60.44,127.3c9.71,12.65,26.66,9.13,37.15-.39,4.95-4.43,12.25,2.74,7.3,7.3,0,.07,3.61,1.63,3.61,1.63-5.15,20.01-1.65,43.6-48.06,37.66-3.12-2.46-3.75-16.48-6.26-37.73-2.21-2.67-4.65-6.98-1.11-9.71.5-.28,1.22-.41,1.76-.07.62.33.57-.75.33-1.04,2.09-.46,3.98.59,5.28,2.35h0Z"/>
      <path class="cls-12" d="m101.05,121.3c-.52-.07-1.03.33-1.04.85-.36.6-1.02,1.46-1.43,2.02-.46.07-.89.57-.98,1.11,0,0-.07,0-.07.07-.63.42-1.25,1.02-1.89,1.43-.95-.23-1.73,1.17-2.28,1.76-.72,0-1.5.33-1.96.98-2.43.89-6.35,3.3-8.93,3.19-.52-.33-1.2-.11-1.56.33-1.6-.45-3.19.18-4.76.13-.52-.05-2.79-.67-3.26-.39-.82-.32-1.91-.82-2.74-1.17-.8-1.42-3.25-1.81-4.56-2.67-4.84-1.95-7.34-7.04-11.15-9.84,0,.13.06.19.06.33.38.05.18,2.17.26,2.41.01.86.21,1.76.13,2.61,0,0,.06,0,.06.07.2.38.5.81.39,1.24.06.07,0,.19,0,.26,8.19,11.72,24.6,16.8,37.16,8.99,3.02-2.26,7.45-3.8,7.23-8.21,1.39-1.51.98-3.61,1.3-5.47h0Z"/>
      <path class="cls-4" d="m81.36,150.57c-1.01-5.27-5.17-.97-4.5,2.35,1.24,3.33,5.7.48,4.5-2.35h0Z"/>
      <path class="cls-7" d="m101.5,113.61c1.39-8.46-3.71-9.62-5.61-16.75-.46-1.75-.41-8.14-3.26-4.5-.06.63.8,4.5.78,5.28-2.52-.14-4.68,2.8-5.67,4.89-.72-.19-1.56.26-1.63,1.11-.9-.39-1.96.11-2.22.98-.33.07-.65.19-.85.52-.55-1.04-2.07-.79-2.48.26-.65-.26-1.24-.13-1.69.26-.52-.59-1.63-.72-2.02.13-.55-.65-1.59-.56-2.15,0-.33-.45-.94-.59-1.43-.33-.24-.37-.89-.7-1.37-.65-.14-1.01-1.55-1.59-2.48-1.17.16-.98-.77-1.81-1.69-1.56.46-1.38-1.17-2.18-2.22-1.37.37-1.1-.47-2.05-1.63-1.76-.13-.59-.78-.78-1.3-.65,0-1,.2-2.68.19-3.65,2.46-1.36-2.17-4.28-2.41.13.55,13.2-8.92,10.28-5.47,23.86,8.57,15.51,29.75,18.94,42.17,6.26,2.07-2.13,4.31-4.08,4.04-7.3.62-1.15.38-2.79.39-3.98h0Z"/>
      <path class="cls-6" d="m62.66,173.5c2.48,12.58-26.16-1-26.16-1,0,0-35.9-.94-35.83-3.68l.52-9.58h0c-.06-4.95.33-9.91,1.04-14.86h0c1.75-8.49,2.9-20.25,10.43-25.49,6.09-3.78,12.68-7.5,19.75-9,4.9-1.99,10.2-2.86,15.45-3.26.2-.26.39-.46.65-.59,1.09-1.39,2.43-2.71,3.78-3.78.49-1.82,3.11-2.89,4.76-3.32.21-.6,1.02-.3,1.5-.59.41-.42,1.58-.52,1.43.33-.43,1.3-.48,2.86-1.37,3.98-.06,0-.06.07-.06.07l-.2.2c-.29,2-2.72,3.41-3.91,5.02.19,3.51-.61,8.08-.85,11.6,5.7,16.73,5.95,36.46,9.06,53.96h0Z"/>
      <path class="cls-7" d="m110.24,57.69c-1.31-4.01-5.48-.04-6.58,2.15.23-5.26-1.26-10.81-2.74-15.71-.85-4.9-3.89-11.45-10.04-10.88-1.69-1.24-3.71-1.5-5.47-.65-1.67-.58-3.85-.36-5.41.78-.33-.13-.65-.19-.98-.26-1.91-1.96-5.96-1.47-7.89.13-16.14-8.16-19.14,14.3-18.84,25.68-6.5-9.58-4.77,5.24-3.84,9.13.46,2.94,2.19,13.72,6.52,8.08.49,2.99.94,6.03,1.56,9.06-.13.13-.2.26-.33.39,1.15,2.04,2.48,4.04,3.52,6.19.54-.14.42.51.52.85.22-.08.42.12.39.39.25.12.19.43.2.65-.03.25.09.68-.13.85,0,.46-.06.91-.2,1.43,10.13,15.55,25.12,14.08,35.39-.46-.15-.66-.36-1.39-.26-2.02l.13-.13h.07c1.67-2.47,3.55-4.91,4.69-7.76-.07-.13-.13-.26-.13-.33l-.07-.07c1.31-2.82,1.34-6.04,2.41-8.93,7.29,1.3,7.18-13.57,7.5-18.58h0Z"/>
      <path class="cls-6" d="m164,153.44c1.11,9.19,2,12.06,2,12.06l-72,.5c1.34-17.35,5.69-34.52,7.7-51.8l.07-.07c0-.26.07-.46.13-.65h0c.07-.46.19-.78.39-1.11-.47-1.07.04-2.46-.2-3.65,0,0-.59-2.61-.59-2.61v-.19c-1.65-1.3-2.66-3.66-3.72-5.54-.74-.36-1.61-1.71-1.37-2.54h0v-.07c-.22-.31-.29-.68-.33-1.04q.07.07.13.07c0,.07-.13-.59-.13-.59.07.33.13-.21.33-.21,0-.13.33.41.33.28.15.12.51.17.65.33.77-.22,1.77.43,2.41.85,2.82,1.41,5.85,3.05,7.63,5.8,14.1-.75,29.8.61,42.63,8.02,3.15,1.26,4.28,5.93,5.93,8.73,5.11,10.46,6.09,22.16,8,33.44h0Z"/>
      <path class="cls-3" d="m165.5,166c-3.51-17.87-2.92-39.66-15.17-54.6-4.38,8.73-8.2,18.26-11.34,27.51,1-8.68,6.16-19.58,10.56-28.09-7.75-3.14-16.04-5.85-24.51-6.52-1.68-.4-22.78-1.04-13.95-1.83,13.15.06,27.12,1.1,38.85,7.63.44-.94,1.06-.28.59.46,13.05,14.53,12.91,37.49,14.98,55.45Z"/>
      <path d="m45.12,106.9l-.16-.04c-11.73,1.75-23.6,5.35-33.15,12.76-.03,7.8,2.27,15.27,3.78,22.81-3.15-5.76-4.36-15.18-4.69-22.42-.13,0-.26-.13-.33-.26-4.67,8.14-7.58,17.56-8.41,26.79-1.38,11.4-.86,22.05-1.67,33.47.18-20.14-2.21-43.63,9.95-60.72-.19-.39.41-.74.72-.52,9.72-6.86,21.82-12.11,33.8-11.91.07-.03.14-.06.22-.08,0,.26,0,.2-.06.13h0Z"/>
      <g>
        <path class="cls-3" d="m120.08,125.41c-3.42-11.74-10.48-27.23-23.79-29.53,12.18,4.39,20.32,18.79,23.73,31.61.88.31.07-1.57.07-2.09h0Zm-18.71-21.84c2.53,9.5-.37,19.4-2.02,28.81-2.08,11.42-3.92,24.1-4.85,35.62,0,0-1.72,7.26-1-.5,1.15-12.14,2.89-24.3,5.07-36.29.96-8.39,6.65-25.29-.91-31.35-.33-.13-.2-.59.13-.52,2.06.27,3.13,2.4,3.59,4.24h0Zm11.28,27.44c.93-.5,7.46-2.17,6.45-3.26-3.1.88-6.42,2.62-9.65,3.06-.2-.14-.48-.12-.65.07-14.48-16.91,6.6,9.47,8.6,13.23-1.95,8.92-6.24,18.03-9.52,26.53-4.34,13.62-10.34,28.43-11.02,42.82,2.74-12.24,6.78-28.28,11.47-40.93,2.98-9.44,8.52-18.11,9.58-28.09,1.29-2.02-6.84-10.19-8.28-12.51.79-.17,2.22-.65,3-.91h0Zm-76.46-2.74c3.42-11.98,10.24-28.01,23.79-30.57-12.38,4.79-20.26,19.52-23.73,32.72-.89.3-.06-1.66-.07-2.15Zm17.79-16.23c.46-3.37.47-8.8,4.5-9.78.33-.06.46.39.13.52-9.08,8.75.54,31.42,1.04,43.02,3.72,24.06,5.68,48.69,2.8,72.94h-.06c1.5-23.92.37-47.9-3.45-71.57-1.46-11.29-5.4-23.74-4.95-35.13h0Z"/>
        <path class="cls-3" d="m43.62,133.95c-.93-.5-7.46-2.17-6.45-3.26,3.1.88,6.42,2.62,9.65,3.06.2-.14.48-.12.65.07,14.48-16.9-6.6,9.46-8.6,13.23,1.95,8.91,6.24,18.03,9.52,26.53,4.34,13.62,10.34,28.43,11.02,42.83-2.74-12.24-6.78-28.28-11.47-40.93-2.99-9.44-8.52-18.1-9.58-28.09-1.29-2.02,6.84-10.19,8.28-12.51-.79-.17-2.22-.65-3-.91h0Z"/>
      </g>
      <path class="cls-9" d="m117.02,45.95c-8.9-4.44-.59-13.7-9.84-16.56.31-1.38-.12-2.99-1.56-3.52-.79-2.15-2.65-4.28-4.89-4.56-1.49-7.45-10.24-9.39-16.69-10.36-.64-8.74-15.4-11.83-22.36-7.82-3.69-.39-7.86-.37-11.15,1.63-1.81,1.64.99,2.82,2.41,1.89-2.72.37-12.71,8.02-5.21,7.17-1.87,1.01-6.08,9.22-1.24,6.52,1.03-2.01,2.16-3.98,3.98-5.41-.81,2.91-3.71,5.18-4.17,8.28.25,2.73,2.61,1.08,3.13-.65.13,1.63.58,3.23,1.3,4.69-2.54,1.11-4.76,3.32-5.54,5.93-4.2,2.3-8.12,10.56-4.11,13.88-.05,2.32,2.85,12.69,5.34,6.91-.02-.33-.16-.71-.33-.98v-.06c2.33.57,3.07-1.17,2.48-3.13.13.52.2,1.04.33,1.56.13,0,.2-.06.33-.06.39,2,.8,4,1.04,6,.45.44.79.98,1.11,1.5.32,1.4-.09,3.36,1.56,4.04.06.33.06.59.13.91.32-6.25.56-12.54,2.48-18.51h-.06c.06-.26.06-.52,0-.72.75-2.03,1.55-4.06,2.67-5.93,0,0,0,.06-.06.06.21-.3.71-.77.98-1.04h-.06.13c.13-.13.06-.06,0,0,.53-.36,1.17-.94,1.76-1.17.87.06,2.04.15,2.54-.78.95.87,2.71,1.5,3.33-.07.95.6,2.5,1.25,3.32.13.76.68,2.09,1.06,2.87.2.96.59,2.39,1.17,3.32.33,1.49,2.08,4.76,2.09,6-.26.99.81,2.38.24,3.39.2.89.41,2,.39,2.8-.19.79.57,1.8.4,2.67.2,1.04.53,2.21.66,3.19.07,0,0,0,.06.07.06.46.66,1.52.91,2.15.33-.04.51.14,1.1.59,1.37.47.72,1.55,1.06,2.35,1.24,2.28,5.13,3.35,10.92,3.39,16.56.64,1.04-.02,2.82.19,4.11.19.76.37,1.73.13,2.48v.13c2.21-.19,1.92-3.39,2.28-5.02.36-.66.95-1.14,1.5-1.63.12-.51.04-1.18.46-1.56,0-.06,0-.13.07-.2-.12-.1-.14-.36-.13-.52.43-.96.3-2.62,1.11-3.26.17-1.15,1.04-2.02.91-3.13,1.45,5.94,6.53,4.3,3.78,1.04-.33-.5-.48-1.16-.78-1.69,1.15,1.5,5.64,2.4,4.63-.59h0Z"/>
      <path class="cls-4" d="m78.56,9.39c-2.42-1.3-5.69.6-8.08,1.37.11.22-.16.64-.46.52l-.07.06c-.09.13-.06.34-.07.52,2.9-.36,6.02-.42,9-.98.07-.06.2-.06.26-.06,0-.52-.13-1.04-.59-1.43h0Z"/>
      <path class="cls-9" d="m73.35,56.19c-.08-1.26-1.16-2.96-2.61-2.54-.43-.66-1.68-1.19-1.76,0-.2.11-.54,0-.72.13-3.32-.22-7.81-2.24-10.49.46-3.21,1.7-1.76,4.16,1.11,1.76.2.06.46.06.65-.06q.06,0,.13-.06c2.35-.48,4.89.02,7.24.72,1.68.52,3.42.46,5.02.91.51.22,1.46-.1,1.37-.78.07.13.13-.2.07-.52h0Zm25.94-.39c-.31-.51-.78-.78-1.24-1.17-.07-.05-.15-.03-.19-.13-.56-.37-1.18-.66-1.82-.85-1.3-.68-3.06-.19-4.5-.26-2.33-.29-4.93-.03-6.91,1.17.44-.39-.02-.98-.52-.65-.26.29-.92,1.31-1.17,1.63-3.06,4.46,4.21-.22,5.8.46-.05.18,4.01-.11,4.11-.07.43.17,1.03.09,1.5.19.33.38.96.7,1.3.2,1.14-.12,3.13,1.72,3.78,0,.13-.13,0-.33-.13-.52h0Zm-21.51,26.85c.01-.42-.43-.86-.85-.85.04-.66-.86-1.32-1.5-.91-.05-.14-.26-.33-.39-.46-.75-.33-1.28.33-1.7.85-.73-1.22-1.99.33-2.67.85-.23-.68-1.38-.57-1.63.07,0,.07-.07.07-.07.13-.44.3-.79.74-1.17,1.11-1.21-1.42-2.51,1.09-3.39,1.82-.8,1.15.78,2.32,1.63,1.17.53.85,1.65.38,2.15-.33.54,1.23,1.97.07,2.61-.52.91,1.15,1.96-.45,2.67-1.04.35.75,1.26.62,1.76.06.93,1.27,2.24-.05,2.41-1.17.07-.26.13-.52.13-.78h0Zm14.47,2.22c-.17-.67-.6-1.42-1.24-1.56-.2-.1-.4-.08-.59,0-.03-.22-.07-.37-.2-.59,0-.07-.07-.07-.07-.07-.22-1.05-1.94-1.04-2.15,0-.09-1.12-1.55-2.12-2.15-.78-.15-.68-.86-2.09-1.76-1.37-.26.14-.47.36-.39.72-.16-1.29-2.22-1.75-2.28-.2-.71-.96-2.22-.3-1.76.85-2.69-.21-.19,5,1.3,2.87.41.43,1.16.43,1.56,0,.27.98,1.71,1.51,2.28.52.21.88,1.43,1.46,2.09.72.27.92,1.6,1.81,2.28.78.6.42,1.45.08,1.69-.59,1.08.99,1.88-.31,1.37-1.3h0Z"/>
      <path class="cls-5" d="m70.02,61.73c-.03-.28-.26-.57-.52-.72-.07,0-.13-.06-.2-.06-.52-.8-1.89-.77-2.02.26-.33.13-.59.46-.59.78-.23.03-.44.13-.65.19h.07c-1.01.16-2.14.03-2.93-.65.03-.23.17-.49.13-.72,1.38-.6-.06-2.29-1.04-1.3-.39.22-.98.38-1.37.46-.1-.02-.17.05-.26.06-.06.06-.13.06-.13.13-.11.11-.14.26-.13.39-.4.83.57,1.73,1.24,1.96,1,1.34,3.41,2.05,4.89,1.24.59-.11,1.08-.28,1.56-.59.65-.19,1.98-.6,1.96-1.43h0Zm25.36-1.76c-2.69-1.04-3.41-.44-5.02,1.76,0,.06-.07.06-.07.13-.44-.43-1.14-.27-1.69-.39.71-.22,2.1-.93.98-1.7-3.13-.45-7.13,3.26-1.37,3.46.6.31,1.32.38,2.02.39,1.48.87,7.81-1.94,5.15-3.65h0Z"/>
      <path class="cls-11" d="m67.35,60.42c-.39-1.12-1.84-1.73-2.8-.91-1.13.37-1.3,2.24-.65,3.06.06.13.2.2.26.33.13.06.26.13.33.26.59.26,1.38.15,1.89-.26.08-.1.32-.27.33-.39.35-.59.89-1.42.65-2.09h0Zm25.42.52c.24-2.2-2.26-2.18-3.65-1.43,0,0-.07,0-.07.06-.79.48-.91,1.58-.52,2.35.76,2.58,4.15,1.27,4.24-.98h0Z"/>
      <path class="cls-10" d="m85.86,88.52c-.52-.77-1.07-.24-1.63-.39,0-3.03-4.1-2.12-6.13-2.22-1.95-.37-7.49-1.15-6.32,2.28l-.2.2c-.68-.22-1.84-.46-2.02.52-.12.36-.05.7.26.98.1.05.16.29.33.33.43.48,1.09.88,1.69,1.04,3.18,2.13,8.82,2.15,11.93-.13.86-.48,2.92-1.38,2.09-2.61h0Zm-8.47.72c-.59-.14-1.21-.55-1.82-.65.87.14,1.82.49,2.74.39-.26,0-.65.26-.91.26Z"/>
      <g>
        <path class="cls-3" d="m57.44,89.04c-.06.07-.06,0,0,0s0,.07,0,0Z"/>
        <path class="cls-3" d="m71.65,104.03c-16.4-12.93-16.02-23.2-18.77-41.33.02,5.62,1.6,14.05,2.35,19.69,1.05,7.02,11.03,19.89,16.43,21.64Zm31.61-31.29c-.09-.93,1.2-7.14,0-6.45-.81,11.29-2.7,23.13-11.6,31.09-4.35,6.71-11.61,9.35-19.23,7.04-1.96,1.94,13.11,2.25,14.6-1.04,8.93-8.05,15.81-18.28,16.23-30.64h0Zm7.95-4.5l-.07-.13v.07c0-.07-.07-.07-.07-.13-.31-.27-.66-.66-1.11-.72.38-3.52,2.06-9.05-1.04-11.6-2.15-.85-3.85,1.76-4.04,3.52,5.53-8.72,5.6,3.37,4.24,7.82-.15.02-.34-.06-.46.07-.35-.07-.44.42-.2.59-.02.06.36.17.19.07q.07,0,.13.07c-.13.59-.33,1.11-.52,1.69-1.03-.17-1.31.7-.26.85-.47,1.23-1.15,2.68-1.83,3.78-.62-1.05-2.53.46-1.04.59.26-.13.39.06.46.39-.46.72-1.24,1.63-1.96,1.04-2.14-.08.68,2.07,1.89.39-.09,1.22-.41,2.7-1.56,3.33-.51-.6-.05-1.35-.19-1.96-1.59-1.32-1.48,3.18.07,3.13,2.34-.54,2.63-3.72,2.61-5.74.86-1.44,1.67-3.01,2.28-4.56,1.37.97,2.01-.63.39-.98.18-.49.33-.99.46-1.5,0,0,.07,0,.07.07l.07.07h.07c.04.12.66.51.46.33.07,0,.13.07.13.07.65.13.91-.26.85-.59h0Z"/>
        <path class="cls-3" d="m109.13,62.18c.78-3.06-2.32-5.37-3.19-1.43,2.99-3.89,2.92,1.07,2.41,3.65-.4,2.15-.74,5.83-3.26,6.06.12,1.25,1.66.25,2.02-.39,1.57-1.84,1.66-5.63,2.02-7.89h0Zm-55.41,15.19c-4.83,2.86-7.22-18.75-5.54-21.12,1.6-.14,2.31,2,3.19,3.06.54-.88-1.94-4.57-3.58-3.58-2.22,4.21.31,15.14,1.89,19.75.34,1.43,3.64,4.61,4.04,1.89h0Zm-1.89-7.23c-.26-.7-.5.85-1.17-.13-.78-1.43-2.91-10.17-.65-9.97,1.82,3.15,1.47.49.2-.72-3.91-1.97-.93,15.52,1.63,10.82h0Zm36.63,17.14c-2.39,1.52-5.18-.2-7.76.39-2.85,1.49-5.75-.47-8.73.2-1.68.35-3.8-.52-5.21-.39,1.94,1.29,4.6,1.15,6.84.98,2.32.02,4.56,1.28,6.78.13,2.67-.9,6.18,1.2,8.34-1.11.06-.13-.07-.26-.26-.2Zm-4.04,3.26c-2.28,2.43-5.28,1.65-8.21,1.89-2.08.5-3.97-1.53-5.48-2.09,2.76,3.84,10.99,3.85,13.88.2,0,0-.13-.07-.2,0h0Zm-.65-4.04c-1.32-1.55-3.86-1.26-5.67-1.04-1.96-.15-4.04-.76-5.8.52-.23.57,2.21-.89,2.87-.46,2.8.88,5.72-.07,8.47,1.04.13.2.19.06.13-.07Zm-6.58-3.78c-.37-.34-1.27,1.29-1.24,1.63.45.85,1.43-1.25,1.24-1.63Zm-.65-.98c-.43-.43-1.01.72-1.37.98-.24.31-2.15,2.31-.59,1.89.63-.92,1.59-1.89,1.96-2.87h0Zm-1.82-.59c-1.31,1.24-2.52,2.75-3.52,4.24.49,1.37,1.71-1.27,2.22-1.69.24-.51,2.08-2.38,1.3-2.54h0Zm-2.08.39c-1.4,1.18-2.57,2.74-3.78,4.11-.25,1.39,1.27.09,1.56-.52.6-.96,2.63-2.7,2.22-3.58h0Z"/>
        <path class="cls-3" d="m69.7,82.65c-.83.73-1.57,1.76-2.35,2.54-.23.41-1.08.84-.72,1.37.36,1,4.66-4.39,3.06-3.91h0Zm-2.74,1.04c-.79.76-1.98,1.65-2.35,2.67.46.88,1.27-.73,1.63-1.04.18-.31,1.44-1.66.72-1.63h0Zm13.36.07c-.16-.51-.47-.89-.85-1.24-.08-.03-.15-.09-.26-.07-.11-.16-.35.08-.2.2q0,.07.07.13c.01.07.09.1.07.19.07.07.07.19.13.26,0,.07.07.07.07.13,0,0,.07.07.07.13.07.07.07.13.13.2-.02.1.05.12.07.19.15,1.4,1.26,1.12.72-.13h0Zm1.82.13c-.49-.92-.88-1.94-1.56-2.74-.78-.12.07,1.24.13,1.63.18.49,1.15,2.84,1.43,1.11h0Zm1.96.46c-.55-.98-.89-3.77-2.09-3.65-.03,1.15.82,2.68,1.11,3.78.13.33.2.78.59.85.44-.02.59-.7.39-.98h0Zm2.48.85c-.43-.56-1.39-4.42-2.22-3.59.07,1.01,1.01,2.78,1.37,3.85.13.51,1.1.24.85-.26Zm1.95.52c-.43-.73-.67-3.77-1.76-3.46-.51.71,1.91,6.84,1.76,3.45h0Zm1.69-.46c-.16-.58-.25-1.31-.52-1.82-1.18-1.12-.2,2.28-.07,2.67.45.51.83-.38.59-.85h0Z"/>
        <path class="cls-3" d="m91.99,85.65v.19c0-.07,0-.19-.07-.26,0,0,0-.07-.07-.07,0,0,0-.07-.07-.07,0-.07-.07-.07-.13-.13l.07.07c-.18-.17-.35-.37-.46-.59l.07.07c-.07-.07-.07-.13-.13-.19.02-.06-.05-.19-.07-.19,0,0,0-.07-.07-.07.07.12-.03,0,0-.07-.84-.55-.44,1.26.07,1.5.17.29,1.08.32.85-.2Zm-9.52-6.91c-.85-.72-1.89-.19-2.61.39-2.2,2.95-4.79-3.25-6.78-.2-1.34-1.07-1.37-2.91-.59-4.3.06-.13-.13-.2-.2-.13-.85.59-1.11,2.22-.91,3.13-.14.95,2.79,3.95,2.41,1.89-.26-.33.33-.52.52-.52,1.43,0,1.89,1.73,3.26,1.82,1.7.34,2.78-2.18,4.43-1.43.39.2.78-.39.46-.65h0Zm1.95-1.43c-.36-2.8-1.4-3.73-.72-.13.08.81-.28,1.55-.59,2.28.49,1.61,1.52-1.56,1.3-2.15h0Zm-9.13-14.8c-.11-1.32-1.51-3.94-2.67-3.91.78.77,1.39,1.75,1.69,2.8-.07.55.49,2.29.98,1.11h0Zm7.17-3.52c-.59-.27-1.69,2.13-1.83,2.93-.33,1.62,1.07,1.12.78-.26.06-.95.39-1.93,1.04-2.67h0Zm1.69-5.54c-1.27-.29-2.1,2.65-2.28,3.65.42.42.84-1.19,1.11-1.5.2-.29,1.07-1.55,1.24-1.83.13-.07.06-.26-.07-.33Zm1.89.07c-.45-.84-2.33,1.22-1.56,1.43.51-.22.81-.77,1.37-.98.26-.06.33-.26.2-.46h0Zm14.14,2.47c-2.07-4.02-9.92-4.23-12.78-2.22,3.73-.13,8.24-1.28,11.28,1.56.28.27,1.22,1.3,1.5.65h0Zm-3.19.65c-3.82-1.41-9.96-1.37-13.1.65,4.24-1.27,9.1-.86,13.1-.65h0Zm-23.07.39c.24-1.4-.23-3.3-1.56-3.98-1.01-.4-1.02,1.34-.13,1.24,1,.78.93,2.19,1.43,3.19q0,.06.07.13c0,.06.07.06.13,0,.09-.14.02-.39.07-.59Zm-2.61-1.96v-.46.06c-.04-1.01-2.14-2.96-1.76-.78.07.08.23.22.33.13.07.07.2.17.19.26.26.23.45.55.72.78h.07c-.02.08.12.03.13.13.13.2.33.06.33-.13h0Zm-3.58-1.76c-4.28-1.15-9.36-1.6-12.12,2.54-.2.26.13.59.39.33,2.83-4.26,8.48-3.38,12.51-2.15-.19-.33-.46-.52-.78-.72h0Zm4.37,4.43c-3.66-.56-11.14-3.65-13.82-1.04,4.33-1.81,9.27,1.05,13.69,1.3.19.13.26-.2.13-.26h0Zm25.03,3.19c-2.96-3.51-10.93-3.01-12.97,1.3-.06.39.46.59.65.2.58-1.06,1.87-1.75,2.93-2.22-.56,4.99,7.51,4.16,5.15-.72,1.51.17,2.77,1.19,4.17,1.57.07.06.13-.06.07-.13h0Zm-5.41-1.11c1.58.57.49,2.77-.72,3.06-1.72.06-3.74-2.7-1.24-3.26.53-.15,1.09-.15,1.63-.19,0,.2.13.33.33.39Zm4.82,1.83c-.06-.51-.73-.2-.91.07-2.47,3.22-6.19,1.85-9.45,1.11,3.12,2.29,7.41,2.36,10.3-.85,0-.06.07-.2.07-.33h0Zm-7.43-3.52c-1.73-.18-4.84,1.3-5.15,2.67,1.35-1.42,3.8-1.88,5.15-2.67h0Zm-18.06,3.52c-3.21-3.71-8.57-3.61-12.38-.85-.2.13-.07.52.19.39.87-.31,3.63-1.52,4.5-1.63-.06.06-.13.13-.13.2-.98,1.69.36,4.18,2.35,4.17-2.05.13-3.97-1.03-5.08-2.74-.2-.33-.72,0-.52.33,1.64,3.32,7.22,4.16,9.32,1.11-1.03.37-2.01,1.26-3.26,1.3,1.3-.36,2.15-1.99,2.02-3.32.72.17,3.76,3.23,3,1.04Zm-4.43-1.63c.19.22.4.43.52.65.03.91-.8,2.75-1.89,2.09-.12-.03-.23-.09-.32-.13-2.1-1.56-.72-4.22,1.7-2.74v.13h0Zm4.43.65c-.59-.99-1.65-1.46-2.67-1.96-1.36-.68-1.52.15-.13.46.97.25,1.96,1.37,2.8,1.5Zm-17.27-3.19c.22-2.63,1.51-9.64,2.02-12.32-1.9,4.72-2.65,11.08-2.48,16.49h.06c.26-1.43.19-2.87.39-4.17h0Zm-3.91-3.52c-.93-4.15-2.49-9.06-2.79-13.18-.82,2,.64,5.22.96,7.25.73,2.09,1.21,6.08,2.22,7.69-.06-.59-.26-1.17-.39-1.76Zm62.31-4.37c-.61-1.39-1.68-2.57-2.02-4.11.59-1.41.75-5.26-.26-1.11-.65-1.61.44-3.94.13-5.08-1.25,1.73-1.11,4.3-.52,6.26-.08.09-1.05,3.2-1.11,3.32-.41,1.82-1.43,4.38-1.37,6.26.67-.27.54-2.29.98-3.13.47-1.35,1.45-4.2,1.89-5.54.41.81,1.35,3.39,2.28,3.13Zm-32.72-15.9c-2.12-6.01-9.25-9.07-12.25-14.08,2.23,7.1,13.11,9.54,12.19,18.06.88-.52.36-2.93.07-3.98h0Zm-2.41-7.43c-4.02-3.18-10.27-7.56-7.3-13.3-6.09,9.84,12.21,12.59,10.95,21.84,1.08-3.06-1.28-6.41-3.65-8.54Zm5.74,2.54c-.61-3.6-4.45-6.25-6.13-8.8,1.83,5.74,8.59,6.8,4.89,15.45,1.47-1.34,1.65-4.58,1.24-6.65h0Zm8.08-3.65c.88-6.2-4.17-11.96-9.65-13.43,3.21,1.63,6.61,3.93,8.15,7.24,2.8,5.92-1.1,11.92-4.56,15.84,3.04-2.32,5.63-5.76,6.06-9.65Zm2.48-4.11c.79,5.1-1.89,10.45-6.52,13.36,4.89-1.71,8.26-8.29,6.52-13.36h0Zm1.83,5.02c-.54,3.55-3.03,7.73-6.26,9.52,3.8-1.21,6.63-5.59,6.26-9.52Zm-17.08,9.84c-.48-1.22-3.22-3.97-4.37-3.91.91,1.22,2.63,2.13,3.52,3.39.36.57.99,2.2.85.52Z"/>
        <path class="cls-3" d="m75.76,36.44c-.92-.61-1.61-1.49-2.48-2.15-1.26.02.35,1.44.85,1.63.24.17,2,1.1,1.63.52h0Zm-2.67-.26c-1.34-.3-2.4-1.98-3.85-2.09-.27.54,1.6,1.09,1.96,1.5.26.34,2.27,1.45,1.89.59Zm-2.48-.06c-1.19-.08-1.94-1.56-3.13-1.56-1.12.23,3.5,2.66,3.13,1.56Zm-3,0c-3.57-2.81-3.73-.92,0,.2.07.13.13-.13,0-.2h0Zm-2.47.19c-.78-.36-1.79-.69-2.54-1.11-.9-.61-.89.47-.06.65.82.44,1.78.8,2.74.72,0,0,0-.2-.13-.26Zm28.55-1.63c-.62.65-1.65.78-2.28,1.3-.28.04-.35.24,0,.19.43.42,3.98-1.52,2.28-1.5h0Zm2.87.39c-.24-.83-1.52.6-1.96.65-.28.14-.52.2-.78.32.07,0-.07,0,0,0-.41.19-.15.67.26.59,0,0,.26.02.33-.06.71-.25,1.64-.66,2.09-1.3,0,0,.07-.06.07-.2h0Zm2.28,1.05c-.07-.66-1.09.13-1.37.26-.33.18-.84.27-1.17.39-.07,0-.13.06-.13.06-.53.18-.03.55.32.52.75-.1,2.01-.39,2.35-1.24h0Zm1.37,1.3c-.72.1-1.78.43-2.41.78l.07-.06c-.47.17-.31.3.07.39.52.2,3.44-.23,2.28-1.11h0Zm3.46,21.18c-.31-6.22-1.14-12.94-3.85-18.58,1.75,7.12,3.89,15.38,3.52,23.14.48-1.17.28-3.15.33-4.56h0Zm-24.18-49.28c-1.19-2.25-10.6.14-9.91,2.15,2.6-1.18,6.45-3.12,9.19-1.5v.06c-1.31.44-9.48,1-8.8,2.41,1.67-1.41,11.83.02,9.52-3.13h0Zm6.58,10.89c-.97-3.34-4.17-8.05-7.63-8.15,6.03,1.71,8.89,13.46,7.63,8.15Zm20.21,5.67c-.65-2.43-2.74-3.88-4.95-4.76-1.85-7.45-10.01-9.14-16.56-10.23-.59-1.57-.53-3.61-2.35-4.43-.13-.07-.26.06-.19.2,1.15,1.13,1.55,2.6,1.69,4.17-.88-.03-2.41-.65-3-.26,11.2,2.62,25.07,5.37,18.38,20.4,2.18-1.26,2.81-6.15,2.15-8.93,4.3,1.71,5.69,7.12,2.74,10.69,0,.06.07.06.07.06,2.09-1.63,2.74-4.63,2.02-6.91h0Zm1.17,3.26c.39-.92-.45-3.2-.39-.98.04,2.23-1.05,4.47-2.74,5.87,1.57-.25,2.9-3.17,3.13-4.89h0Zm-39.7-16.62c-6.06.68-15.45,6.61-13.88,14.01-2.79-.34-6.82,1.86-7.3,4.37,1.45-2.38,4.82-4.42,7.56-3.39.3.52.54,2.23,1.11,2.09-3.48-6.65,1.85-12.84,8.15-15.06-1.9,1.4-2.95,3.83-3.13,6.13,1.05-.77,1.05-3.65,2.54-4.69,1.49-1.14,2.95-2.74,4.82-3.06.19-.13.19-.26.13-.39Zm-7.24,20.08c-9.32-6.73-25.96,3.87-20.27,14.99-3.55-11.11,10.12-20.72,20.21-14.93.13.13.2-.06.06-.06h0Zm-6.26,1.17c-2.47-.65-5,.92-7.43,1.17-1.56.22-3.9,1.96-4.11,3.26,1.58-1.39,3.1-2.81,5.35-2.93-5.87,3.98-8.02,13.42-3.85,19.23-2.22-5.75-2.19-14.64,4.24-18.71.47-.98,5.43-.97,3.52-1.43.56-.24,2.37.08,2.28-.59h0Zm-3.13,2.67c-6.39.12-8.56,9.39-5.08,14.01-.68-3.3-2.47-8.56,1.37-11.6.99-.89,2.24-2.36,3.65-2.15.13.07.26-.2.06-.26Zm64.27,10.49c-7.01-3.39.83-15.26-7.23-16.82,7.71,2.72-.63,14.5,7.17,17.08.07-.06.13-.2.07-.26h0ZM72.7,7.49c-5.33-4.28-16.77-6.4-21.77-1.89,6.7-3.4,15.37-1.52,21.64,2.02.07.13.26-.07.13-.13Z"/>
        <path class="cls-3" d="m71.59,7.76c-3.47-3.34-9-3.06-13.43-2.22,6.68-3.01-11.25,2.63-12.51,7.76,2.35-2.28,5.85-5.28,9.58-6.32-1.52,1.41-2.88,3.2-3.85,5.09-3.08,1.44-6.14,5.41-6.06,8.47,1.45-2.78,2.59-6.01,5.61-7.5-.96,3.53-3.2,7.48-3.59,10.82.3-.73,1.59-3.95,1.96-4.56.01,1.35-.32,4.56.72,4.95-.21-2.06-.23-4.34.13-6.39,1.48-2.38,3.68-4.29,6.32-5.21.2-.07.13-.33-.13-.33-2.45.52-4.4,2.2-5.87,4.04.34-1.32.84-2.51,1.43-3.72,3.34-1.64,7.04-2.79,10.82-2.28-2.02-1.92-7.51.09-10.3,1.37,3.18-7.26,13.02-7.18,19.03-3.59.13-.13.2-.26.13-.39h0Zm9.84-2.02c-4.11-4.52-13.48-6.2-18.32-3.26,2.61-.65,5.42-1.09,8.15-.65,1.65,1.25,2.38,3.37,3.45,5.02,1.13-.1-1.82-4.43-2.41-4.82,1.35.17,2.64.61,3.91,1.11.46,1.65.06,3.49.32,5.15.78-1.05.72-3.41.26-4.82,1.62.55,2.87,1.86,4.37,2.61.26-.13.33-.26.26-.33h0Z"/>
      </g>
      <path class="cls-15" d="m74.39,69.35c-.06,11.8-22.99,11.19-22.49-.52.07-11.73,23-11.26,22.49.52Z"/>
      <path class="cls-14" d="m103.53,70.07c-.06,11.8-22.99,11.19-22.49-.52.06-11.77,23-11.23,22.49.52Z"/>
      <path class="cls-3" d="m60.9,94.38c-.06-.26-.46-.2-.46.07-.25,2.56-.57,5.25-1.83,7.56-.21,1.94-5.35,5.89-4.17,6.65,4.55-2.74,6.94-9.1,6.45-14.27h0Zm40.41,10.36c-2.19-2.22-3.99-5.2-5.02-8.15-1.29-3.6-.92.55-.39,1.69-.03,1.27,5.47,10.25,5.41,6.45h0Zm-16.69,6.85c-3.08,4.78-6.53,3.18-10.75,1.56,1.68,1.47,4.01,2.76,6.32,2.74,2.05.14,5.36-2.5,4.43-4.3h0Zm16.69,15.97c-2.92,2.55-5.7,5.28-9.12,7.1l4.5-8.21c1.47-1.29,2.59-2.8,3.39-4.63.07-.9-1.71,1.55-1.83,1.5.94-1.04,4.59-11.58,1.5-5.48-.46,1.21-2.1,4.39-2.67,5.61-3.86,6.04-12.58,8.02-19.36,8.73-6.86.09-12.87-3.92-17.86-8.21-1.23-2.98-2.35-6.01-3.19-9.12-1.93-.87,1.88,7.08,2.09,8.21-1.43-1.3-2.74-2.67-3.52-4.43-.06-.19-.46-.07-.33.13,3.21,4.97,6.69,9.49,9.32,14.93-2.8-1.89-5.08-4.24-7.1-6.84-.2-.26-.59,0-.46.26,1.5,2.8,3.85,5.15,6.45,7.04,5.22,3.65,7.91,10.13,13.1,14.08.33.26.78-.2.46-.46-3.71-3.45-7.04-7.3-9.91-11.47,6.91,3.45,15.62,3.75,22.68.59-2.45,3.86-5.51,7.46-9.06,10.36-3.15-1.04-4.85,4.4-3.19,6.58,3.84,3.78,7.24-3.08,4.17-6.06,4.09-3.16,7.17-7.44,9.97-11.73,3.95-2.09,7.67-5.09,10.3-8.54,0,.13-.19-.07-.33.07h0Zm-20.6,21.71c3.31,8-7.68,4.84-1.37-1.04-.12.21,0,.59.26.59.16.22.54-.05.72-.13.13.13.26.46.39.59Zm9.65-13.62c-10.8,5.19-26.22,3.26-29.72-9.71,9.2,9.56,23.69,9.28,34.15,1.95-1.35,2.55-2.92,5.33-4.43,7.76h0Z"/>
      <g>
        <path class="cls-13" d="m54.71,195.48c-2.38-8.17-6.88-20.78-9.78-28.88-2.22-6.21-5.66-12.39-6.13-19.1-.97.91-1.41,2.39-1.17,3.71l-.06-.46c1.16,6.15,5.41,15.37,7.5,21.38,5.41,11.79,8.1,25.36,13.1,36.89-1.3-4.56-2.28-9.13-3.46-13.56Zm-7.3-60.55c-.21-.79-1.56-.84-2.28-.98-2.82-.8-6.66-1.05-8.67-3.39-.98,3.84,7.19,4.68,9.71,6.06l1.24-1.69h0Zm72.03,17.73c.99-2.63.06-5.37-2.28-6.91-1.2,7.63-5.76,16.01-8.47,23.27-4.02,12.46-8.96,25.29-11.21,38.2.07-.07.2-.13.26-.26-.91,3.94-1.21,9.12-1.63,13.17.2.07.39.07.59.07,2.4-23.98,12.25-46.17,22.75-67.53h0Zm-5.28-19.16c2.29-.88,6.95-1.58,5.54-5.15-1.17.2-2.35.33-3.52.39.07.2.13.39.13.59-2.4,1.03-5.68.9-7.82,2.41l2.09,2.93,3.58-1.17h0Zm2.74-16.69l-.33-.33.72,2.02c.71-.48.08-1.31-.39-1.7Zm-6.78-10.36c-.87-1.43-3.18-2.91-2.93-4.76-.31-.14-.7.1-.98.19-.02-1.47-2.75-2.55-3.65-3.59-.93-.65-2.21-1.49-3.26-1.82-.8-.17-2.45-.02-3.13-.52-.07,0-.07-.07-.13-.13-.07,0-.13-.07-.19-.07v.07-.07c-.29-.37-.31-.96-.33-1.43-.19-.26-.46-.46-.72-.59-.85,1.82-2.77,3.3-3.85,5.02-.47.47-1.1,1.8-1.89,1.76-.86,1.11-2.11,1.74-2.8,2.87-1.65.7-3.24,1.55-5.08,1.76,3.44,6.72,14.18,4.42,20.47,4.63.07-.2.18-.37.33-.52-.4-.45.27-.87.39-1.3,1.6-2.43,5.33-2.89,7.69-1.37.07-.07.07-.13.07-.13h0Zm8.28-3c-.07.07-.13.07-.13.13-.22-.27-.49-.39-.85-.2-.07-.07-.2-.07-.26-.07-.36-.19-.87-.26-.98.26-.75-.29-1.44-.39-2.22-.46-1.42-.54-3.39.05-4.82-.59-.04.12-.38.11-.33-.06,0,.13.07.19.07.26-.51-.37-1.19.1-.72.65.07,0,.07.07.13.07,0,.07.07.13.13.13,0,.07.06.13.13.13l.07.07v.07c.13.19.26.39.46.52.29.56.64,1.18,1.17,1.5.13.41.41,1.24.85,1.43,2.44-.26,7.94-.45,7.3-3.85Zm-9.25-43.15c.01-.28-.3-.52-.33-.78-.55-.95-2.04-.81-2.22.33-1.02.25-.44,2.42.33,1.43,0-.2.26-.13.39,0,.54,1.98,0,4.42-.72,6.32-.1-.1-.23-.23-.33-.33-.06-.08-.03-.15-.13-.19-1.44-1.25-1.37,2.54-1.11,3.32,2.98,1.01,4.26-7.88,4.11-10.1Z"/>
        <path class="cls-13" d="m110.7,61.01c-.23-1.61.03-4.02-1.76-4.69,0,0,0,.06.07.06,1.36,5.26.51,17.16-5.67,18.64-.54-.1-1.05.28-.98.85,5.47,4.48,8.83-11.01,8.34-14.86h0Zm-15.97-25.42h0c.13.06.07,0,0,0Z"/>
        <path class="cls-13" d="m104.57,55.27c-.8-5.38-.95-12.03-4.37-16.36,1.25-.06,1.53-2.21.07-1.37-.22.08-.48.21-.65.33-.27.09-.55.22-.85.19.13,0,0,0-.07,0-.19.03-.34-.08-.52-.06-.15-.11-.26-.3-.33-.46,2.38-.9,2.02-3.32-.46-1.37-.16.11-.36.1-.52.19-.09,0-.12.02-.19-.06-.07-.05-.15-.03-.19-.13l-.07-.06.07-.06v-.06c1.4-.75.32-2.26-.72-.91,0,0-.07,0-.07.06l-.13.13c-.22.1-.47.28-.72.39-.08-.08-.2-.02-.26-.13l-.07-.06c.03-.11-.07-.29.07-.32.58-.33.06-1.11-.19-1.17,0,0-.07,0-.07-.06-.46-.1-.8.3-1.04.59l-.26.26h-.33c.36-1.06,1.91-2.17,2.15-3.59.35-1.1.36-3.41-.52-.98-1.65,1.37-2.72,4.68-5.21,4.82-.08-.02-.23-.33-.07-.39v-.06c7.29-3.24,5.08-14.89,4.43-9.06-.88,3.52-2.95,6.64-5.87,8.67-.33.2-.65.33-.98.46,16.23-13.47-7.06-26.07-.98-20.01.31.24.65.56,1.04.65,6.06,5.87,3.96,17.58-4.04,20.53,2.37-3.63,2.01-9.26-1.5-12.06-1.02-1.47-2.81-2.61-3.58-4.37.14-.77-1.04-1.33-1.11-.39.22.96.21,2.6,1.17,3.06.18.16.5.6.78.46.39.46.85.78,1.3,1.17-.04.45.34.83.65,1.11.46.56.84,1.44,1.37,1.83.17.38.24.84.46,1.17,0,.07.07.07.07.07.07.13.07.33.13.46.89,1.8-1.58,8,.07,7.56-.07.18-.1.38-.19.52.07.05.15.03.19.13,1.07.59,2.28,0,3.33.06.67.33,1.45.24,2.09-.06.07-.06.2-.06.26-.13.01-.12.24-.05.32-.06.94.72,2.25-.07,3.19.46.69.18,1.69.36,2.34-.13h.13c.07.06.13.06.2.06.28.49.86.75,1.43.65.2,0,.51.31.72.26.03.29.22.61.46.78v.06c.07,0,.09.18.2.13.55.54,1.25.72,1.96.98.14-.01.27.12.39.19.02.35-.07.74.26.98,0,.18.21.33.07.52,3,6.33,3.62,13.51,3.58,20.47-.52.2-.26,1.17.33,1.11,1.72-1.44.69-5.43.85-7.56h0Z"/>
        <path class="cls-13" d="m111.61,33.83c-.2-1.57-1.27-2.9-2.74-3.52-.38-.41-1.16-.6-1.69-.46.15-.84.52-2.1-.19-2.8h-.07c-.07-.4-.75-.48-.78,0-.07-.33-.2-.65-.33-.98.06-1.31-1.46-3.83-3-3.52-.07-.2-.19-.33-.33-.46-.06-.09-.03-.3-.13-.33.07-.55-.82-.45-.85,0,.25,2.06.42,4.24-.33,6.26.95-4.58-.43-10.54-4.63-13.04-.37-.08-.14.33,0,.46,3.91,4.4,5.93,12.19,1.04,16.82,0,0,0,.06-.07.06-.11.13-1.04.81-1.04.98-.21,2.88,5.16-2.27,5.28-3.45.94-1.55,1.42-3.31,1.3-5.15,2.52,1.63,2.78,5.42.98,7.69-.07,0-.07.06-.07.13-.09.1-.2.22-.26.39-6.17,5.02,1.67,3.54,2.22-.52.33-.46.65-.98.85-1.5,1,.4,2.29.39,3,1.43.79.38,1.61,3.92,1.83,1.5h0Zm-29.4-24.44c.01.38-.28.74-.19,1.11.07,0,.13,0,.19.06.46,0,.85.06,1.3.26v-.06c.55-.42.5-1.51-.13-1.76.57-3.84-14.32-9.5-10.49-6.19-.08.29.22.67.46.39.07,0,.65.13.72.2,3.06.98,6.82,3.02,8.15,6h0Zm-13.34,130.64c.52.94,2.43,2.06,2.07,3.04-1.98-.8-3.84-4.06-5.29-5.6h0c-.31-.46-2.52-3.58-2.68-4.01-.06,0-.18,0-.24.06l-.73-1.22c-.06,0-.06-.06-.06-.06-.4.17-.78-.47-1.03-.67-.21.43-.66-.04-.97,0-.09-.08-.47-.11-.55,0h.06l-.12.12c3.63,16.61,5.51,34.72,5.05,51.81-5.22,1.1-7.35-42.91-10.1-51.87-.86-8.79-7.35-29.47,5.35-31.63-.49,1.16-.97,2.31-1.4,3.47-7.04,10.06,4.06,28.15,10.65,36.56h0Z"/>
      </g>
    </g>
  </g>
</svg>