<?xml version="1.0" encoding="UTF-8"?>
<svg id="Ebene_1" data-name="Ebene 1" xmlns="http://www.w3.org/2000/svg" xmlns:xlink="http://www.w3.org/1999/xlink" viewBox="0 0 358.99 932.34">
  <defs>
    <style>
      .cls-1, .cls-2 {
        fill: #010202;
      }

      .cls-3 {
        fill: #010103;
      }

      .cls-4 {
        fill: #ea571f;
      }

      .cls-5 {
        fill: #fff;
      }

      .cls-6 {
        fill: #efefef;
      }

      .cls-7 {
        fill: #e5bdae;
      }

      .cls-8 {
        fill: #aa7157;
      }

      .cls-9 {
        fill: #bfa576;
      }

      .cls-10 {
        fill: #d3a090;
      }

      .cls-11 {
        fill: #70b581;
      }

      .cls-12 {
        fill: #546264;
      }

      .cls-13 {
        fill: #9c593e;
      }

      .cls-14 {
        fill: #2b4c51;
      }

      .cls-15 {
        fill: #020203;
        opacity: .33;
      }

      .cls-15, .cls-16, .cls-17, .cls-18, .cls-19 {
        isolation: isolate;
      }

      .cls-2 {
        stroke: #010103;
        stroke-miterlimit: 10;
      }

      .cls-16 {
        fill: url(#Unbenannter_Verlauf_4);
      }

      .cls-16, .cls-17, .cls-18, .cls-19 {
        opacity: .2;
      }

      .cls-17 {
        fill: url(#Unbenannter_Verlauf_2);
      }

      .cls-18 {
        fill: url(#Unbenannter_Verlauf_3);
      }

      .cls-19 {
        fill: url(#Unbenannter_Verlauf);
      }
    </style>
    <radialGradient id="Unbenannter_Verlauf" data-name="Unbenannter Verlauf" cx="-486.89" cy="486.37" fx="-486.89" fy="486.37" r="13" gradientTransform="translate(739.17 636.12) rotate(1.38) scale(1.31 -1.06) skewX(.03)" gradientUnits="userSpaceOnUse">
      <stop offset="0" stop-color="#ba695c"/>
      <stop offset=".25" stop-color="#b6695b" stop-opacity=".74"/>
      <stop offset=".51" stop-color="#aa6957" stop-opacity=".48"/>
      <stop offset=".77" stop-color="#966752" stop-opacity=".21"/>
      <stop offset=".97" stop-color="#82644c" stop-opacity="0"/>
    </radialGradient>
    <radialGradient id="Unbenannter_Verlauf_2" data-name="Unbenannter Verlauf 2" cx="-452.84" cy="486.39" fx="-452.84" fy="486.39" r="13.01" gradientTransform="translate(739.17 636.12) rotate(1.38) scale(1.31 -1.06) skewX(.03)" gradientUnits="userSpaceOnUse">
      <stop offset="0" stop-color="#ba695c"/>
      <stop offset=".25" stop-color="#b6695b" stop-opacity=".74"/>
      <stop offset=".51" stop-color="#aa6957" stop-opacity=".48"/>
      <stop offset=".77" stop-color="#966752" stop-opacity=".21"/>
      <stop offset=".97" stop-color="#82644c" stop-opacity="0"/>
    </radialGradient>
    <radialGradient id="Unbenannter_Verlauf_3" data-name="Unbenannter Verlauf 3" cx="175.56" cy="162.29" fx="175.56" fy="162.29" r="12.97" gradientTransform="translate(144.78 627.88) rotate(1.38) scale(.81 -.73) skewX(.02)" gradientUnits="userSpaceOnUse">
      <stop offset="0" stop-color="#ba695c"/>
      <stop offset=".25" stop-color="#b6695b" stop-opacity=".74"/>
      <stop offset=".51" stop-color="#aa6957" stop-opacity=".48"/>
      <stop offset=".77" stop-color="#966752" stop-opacity=".21"/>
      <stop offset=".97" stop-color="#82644c" stop-opacity="0"/>
    </radialGradient>
    <radialGradient id="Unbenannter_Verlauf_4" data-name="Unbenannter Verlauf 4" cx="-139.15" cy="207.34" fx="-139.15" fy="207.34" r="12.93" gradientTransform="translate(117.86 626.71) rotate(1.37) scale(.8 -.62) skewX(.03)" gradientUnits="userSpaceOnUse">
      <stop offset="0" stop-color="#ba695c"/>
      <stop offset=".25" stop-color="#b6695b" stop-opacity=".74"/>
      <stop offset=".51" stop-color="#aa6957" stop-opacity=".48"/>
      <stop offset=".77" stop-color="#966752" stop-opacity=".21"/>
      <stop offset=".97" stop-color="#82644c" stop-opacity="0"/>
    </radialGradient>
  </defs>
  <g id="Ebene_23" data-name="Ebene 23">
    <path class="cls-5" d="m234.31,816.35c-.95-2-.46-4.41-1.4-6.4v-.1h0c-.15-.39-.39-1.12-.6-1.5,1.07-7.01-.31-13.02,1.1-19.7h0c2.42-7.86-5.51-12.84-12.1-9.9-3.41-2.06-8.07-2.13-11.5.1-15.07-11.06-18,8.99-15.7,20.2,1.28,8.4-.47,17.02,1.8,25.2.7.2,1.5.5,2.2.6,1.55,1.41-1.1.89-1.9.4,1.77,7.19,9.86,14.4,16.4,8,10.01,11.84,27.36-6.33,21.7-16.9Z"/>
    <path class="cls-5" d="m136.81,774.45c.2-10.05-13.97-11.23-18.7-3.8-.99.18-2-.09-3,.1-1.8-1.2-3.9-1.8-6-1.7-5.6-5.4-16,.9-13.9,8.8h-.1q0,.1.1.2c-.7,6.39-1.28,16.33,6.4,18.7,3.51,4.24,9.72,8.77,15.2,5.7,22.12,2.31,19.37-11.7,20-28Z"/>
    <path class="cls-5" d="m141.41,814.65c-.02-2.01-.88-4.07-.9-6.1,0-4.1-5.8-4.3-6.6-.6-.62,2.31-.15,4.46-.4,6.9-1.85,6.92-9.27,10.32-11.6,16.6-2.46,3.42-5.89,6.12-7,10.3-3.47,2.96-3.53,8.08-5.9,11.7-.95,1.9-3.46,4.23-2.4,6.4-3.9,5-8.4,9.3-13.5,13-14.37,6.43-22,11.66-39.5,8.1-.3-1.3-.4-2.6-.5-4-.1-4-6.2-4-6.3,0,0,3.6.6,7,1.9,10.3-.74,2.52,2.98,5.47,5.3,4.7,21.37,4.63,46.69-5.04,58.7-24.3h0c4.1-4.21,3.06-10.64,5.3-15.8,2.78-2.35,2.28-6.31,4-9.2,1.44-1.72,2.94-3.29,4.2-5.2h0c10.41-8.77,13.63-7.81,15.2-22.8Z"/>
    <path class="cls-5" d="m288.51,916.25c-.4-3.2-4.5-4.9-6.3-1.7-1,1.8-2,3.6-3.7,4.6-1.73.04-4.25.39-5.4,2-3.39.21-8.38-4.51-10.4.2-3.4-1.28-7.16-2.44-10-4.3-2.5-1.7-3.6-4-6.7-4.3-5.86-4.67-13.22-7.81-16-15.6-.6-1.1-1.7-1.6-2.8-1.6-1.51-3.6-.89-10.56-5.4-11.7-2.93-11.32-14.04-16.95-18.2-27.6-.9-2.4-3.5-2.8-5.2-1.8-.9-3.3-.8-6.8,1.2-9.3,2.6-3.1-1.8-7.7-4.5-4.5-7.7,8.9-2.1,23.1,6.2,29.4,18.31,8.75,12.48,33.43,27.8,44.9,12.51,12.11,32.86,19.18,50,14.9,1.3.6,3,.5,4-.6,1.9-.32,3.69-2.14,3.4-4.1,1.8-2.2,2.5-5.2,2-8.9Z"/>
    <path class="cls-12" d="m237.41,595.65c1.45-7.64-.16-15.98.4-23.8,1.69-14.34-6.87-24.23-19.2-13.1-11.81.2-23.66,4.08-35.4,2.8-2.65-47.15-10.31-94.31-7.8-141.6.4-5.6-6.1-10.3-11.3-8.6-16.1,5.5-33.3,7.3-50.2,4.5-7.1-1.2-11.9,3.9-10.9,10.9.79,43.39-2.48,86.96-3.4,130.4-3.96,1.64-4.67,7.31-4.7,11.6-.2.1-.5.3-.7.4-1.54-7.09-9.84-12.2-16.3-7.4-1.3,0-2.6.3-3.9.8-18.82-3.51-11.51,18.8-9.9,29.7,1.77,29.68,11.09,58.43,15.8,87.6,4.9,25,9.7,49.8,12.4,75.2.5,4.7,3.6,8.8,8.8,8.8,9.8-.1,19.6-1,29.3-2.4,3.8-.5,6.4-5,6.5-8.5-.3-20.38,1.03-40.3.3-60.7-1.56-19.29,3.31-39.2-2.4-58-5.56-26.31.23-53.33-1-79.9,1.63-2.55.95-6.06.9-9,1.1-4.65,2.63-10.65,1.1-15.2.8-5.9,1.8-12.1,1.5-18.1,1.19-1.99,1.21-4.81.7-6.9,1.15-3.2.09-7.13,2.7-9.6,1.98,1.84,4.5,3.87,6.4,6.1,9.5,43.5,15.28,87.11,22.6,131.2,2.25,40.81,9.97,80.47,17.71,120.4,1.23,10.59-3.7,30.08,13.5,27.4,8.76.81,17.88-2.02,26.1-4,12.76-1.02,8.02-16.28,7.7-24.8,1.6-2.6,2.1-5.9.4-8.7,1.22-19,.84-37.91,1.6-57-.95-10.29,3.53-22.53-2-31.7-.83-2.78.23-5.57-.1-8.3,5.08-15.7,2.83-34.05,2.8-50.5Zm-94-149.1c.45-.11.96-.16,1.4-.3v.5c-.4,0-.9-.1-1.4-.2Z"/>
    <path class="cls-14" d="m135.41,753.95c-12.36,4.28-25.84,3.65-38.8,3.9-.22-.23-.56-.43-.9-.4-1.4-2.03-5.71-.17-3.9,2.2.66,5.19.05,10.86,1.7,15.8,7.35,4.98,42.56,6.88,43.4-5.7-.67-3.42,3.59-16.35-1.5-15.8Z"/>
    <path class="cls-14" d="m238.41,779.05h0c.46-1.22.64-3.53-.3-4.6-.02-1.41.34-2.92.1-4.3.88-1.86.61-5.76-2.3-4.4-11.62,8.56-26.8,5.07-40.1,6.7-10.18-6.22-8.99,4.2-8.4,11.1-.29,2.65,1.51,4.72,4.2,4.7,13.95,1.25,38.84,4.48,46.8-9.2h0Z"/>
    <path class="cls-7" d="m52.71,413.35c-.5-3-2.9-4-5.2-3.7-2.5-2.2-6.9-2-8.7.9.41-6.16-8.13-10.36-11.4-4.6-2.1-.5-4.3.3-5.7,2-7.33-5.13-12.25,1.49-10.1,9.2h0c.43,10.61.81,20.89,1.4,31.6-16.54,31.39-10.3,66.97-6.7,100.8,1.98,7.18,12.81,3.24,10.2-3.8,3.5.2,7.1-2.5,5.7-6.8-2.6-7.9-4.2-15.8-4.9-24.1h-.1c-.45-7.05,3.29-13.83,7.1-19.4.3,1.9.7,3.9.9,5.8h0c-1.8,5.23,4.75,10.28,8.9,6.2,2.63-6.28,4.19-14.02,4.7-21,2.82-.78,5.92-1.26,6.5-5.1,1.6-11.6,3.2-23.2,4.8-34.7,1.5-10.8,4.4-22.4,2.6-33.3Z"/>
    <path class="cls-7" d="m299.61,510.65c2.59-16.2-2.99-33.71-7.7-49.1,1.48-12,1.63-24.22,2.5-36.2h0c.31-2.92.55-6.18-1.8-8.3-.07-3.46-1.72-6.54-4.8-6.7-2.42-3.45-7.86-3.68-10.6-.2-2.08-5.6-11.06-5.11-11.7,1.3-4.43-1.01-8.85,3.33-8.2,7.8,2.5,13.8,5.2,27.5,8.6,41.1-5.66,15.3-9.91,33.18-5.9,49.7,2.17,7.73,12.13,2.37,10.4-4.3,1.78-1.8,1.6-4.57,2.5-6.7.1.1.2.2.3.2,4.19,5.03,6.23,11.12,7.3,17.4-4.12,4-7.05,11.35,0,14.1.04,6.97-10.32,22.07.2,24.3,9.56,4.12,10.61-11.39,13.9-17.2,2.46-5.37,2.86-11.18,3-17,1.44-1.73.22-4.57.6-6.6.8-1.5,1.2-2.5,1.4-3.6Z"/>
    <path class="cls-8" d="m166.21,193.15c-16.1,14.6-42.1,20-57,.6-2-2.7-4.9-4.3-8.1-3.6.12.28.39.58.2.9.17.5-.21,1.04-.7.7-.83-.53-1.93-.33-2.7.1-5.43,4.19-1.69,10.8,1.7,14.9,7.55,56.77,9.96,113.83,6.5,171,.82,8.38-5.43,25.07,1.1,30.7,13.46,7.12,46.89,2.35,61.3-2.9,5-2.1,6.3-6.7,4.9-10.2-3.59-63.63-14.63-128.19,3.9-190.9,0,0,.1,0,.1-.1,7.6-7-3.6-18-11.2-11.2Z"/>
    <path class="cls-13" d="m171.51,184.55c-2.04.14-2.28,3.24-3.8,4.4-.7.11-1.37.88-1.5,1.7,0,0-.1,0-.1.1-.97.64-1.91,1.57-2.9,2.2-1.61-.27-2.52,1.68-3.5,2.7-1.1,0-2.3.5-3,1.5-5.14,2.69-10.63,4.68-15.93,5.23-3.95.24-8.54.18-12.47-.23-5.71-2.89-11.6-5.85-17-9.7-4.71-2.75-6.79-8.91-11.3-11.3.73,2.41.52,5.55.7,8.2.34.46.84,1.29.7,1.9v.1c.1.1,0,.3,0,.4,12.49,18.05,37.77,25.72,57,13.8,9.41-6.22,8.75-4.61,12.5-14.9h0c.44-2.01.19-4.08.6-6.1Z"/>
    <path class="cls-4" d="m141.31,229.45c-1.55-8.09-7.93-1.48-6.9,3.6,1.88,5.1,8.75.75,6.9-3.6Z"/>
    <path class="cls-7" d="m172.21,172.75c1.91-14.27-5.49-13.87-8.6-25.7-1.02-2.51-.07-5.74-1.6-7.9-1.59-1.71-4.53.74-3.1,2.6.2,2.2.4,4.3.9,6.5-3.86-.21-7.17,4.27-8.7,7.5-1.1-.3-2.4.4-2.5,1.7-1.38-.59-3.01.16-3.4,1.5-.5.1-1,.3-1.3.8-.84-1.59-3.18-1.21-3.8.4-1-.4-1.9-.2-2.6.4-.8-.9-2.5-1.1-3.1.2h0c-.84-.99-2.44-.85-3.3,0-.5-.7-1.5-.9-2.2-.5-.37-.57-1.37-1.07-2.1-1-.21-1.56-2.38-2.44-3.8-1.8.24-1.5-1.19-2.77-2.6-2.4.71-2.11-1.8-3.35-3.4-2.1.57-1.69-.72-3.15-2.5-2.7-.2-.9-1.2-1.2-2-1,.09-1.84.29-3.79.3-5.6h0c3.8-2.62-3.79-6.05-3.7.2.84,20.27-13.68,15.75-8.4,36.6,6.3,11.84,20.47,20.76,34,21.9,14.17-.38,34.72-8.17,36.9-23.5.95-1.76.58-4.28.6-6.1Z"/>
    <path class="cls-6" d="m113.31,317.05c.48-44.66-2.69-92.07-14.6-135.2.4-5.91,1.56-11.84,1.3-17.8,1.83-2.47,5.56-4.62,6-7.7.1-.1.2-.2.3-.3,0,0,0-.1.1-.1.77-.89,3.3-7.25,1.2-7.1-1,.07-1.8.95-2.87.8-.36.03-.63.32-.73.6-2.54.68-6.55,2.31-7.3,5.1-2.5,1.88-4.58,4.47-6.8,6.7-73.91,8.38-71.56,44.47-72.4,108.2-1.35,1.78-1.51,4.11-.7,6.1,2.63,13.9-12.96,20.99-6.4,33.1.29,4.66-4.19,8.43-2,13.2,6.32,14.45-11,25.5-4.8,42.1-.81,2.46.1,5.28,1.9,6.8-1.35,14.38-.26,29.03,2.1,43.3h0c3.64-1.73,7.78-3.09,11.9-2.7,0-.3,0-.7.1-1,6.38-.72,12.65-.29,18.8,1.7-.1.3-.2.7-.2,1,3.19,1.28,6.57,2.05,9.8,3.4-.15,42.35-10.05,91.11-16.7,135.1-1.46.6-1.48,5.3-.1,6,.17.28.5.69.8.7,18.45,14.68,45.45,23.75,67.8,20.1,1.32.73,3.62.15,4.7-.9.1,0,.1-.1.2-.1.1.2.3.2.6.3.17.66,1.14.77,1.6.3,1.4.03.56-2.04.7-2.9-.16-.84.41-2.16-.4-2.7-.13-.8.42-2.19-.6-2.5.28-2.38.13-4.72.3-7.1.39-.34.35-.87.1-1.2.06-2.26-.06-4.53-.1-6.7v.1c.85-30.42,1.05-61.38,1.8-91.5-.79-49.07,4.97-98.23,4.6-147.2Zm-55.6,72.6c-1.1,4.7-2,9.3-3,14-.5.3-.9.6-1.4,1l-.1.1c1.39-6.34,2.48-12.59,4.2-18.9.09,1.3.26,2.5.3,3.8Z"/>
    <path class="cls-7" d="m185.61,86.95c-2.01-6.15-8.41-.07-10.1,3.3h0c-.63-11.68-3.56-42.01-19.6-40.8-2.6-1.9-5.7-2.3-8.4-1-2.57-.89-5.91-.56-8.3,1.2-.5-.2-1-.3-1.5-.4-2.94-3-9.14-2.26-12.1.2-24.54-12.34-29.5,21.89-28.9,39.4h0c-1.23-3.33-6.59-7.69-7.5-1.8.2,5.3.7,10.6,1.6,15.8.68,4.75,3.33,20.86,10,12.4.76,4.58,1.45,9.25,2.4,13.9-.2.2-.3.4-.5.6.23.58.76.92.9,1.5h0c1.41,2.74,3.24,5.17,4.5,8,.82-.21.64.78.8,1.3.34-.13.65.19.6.6h0c.24.12.32.36.3.6h0c-.07.52.19,1.3-.2,1.7,0,.7-.1,1.4-.3,2.2,16.46,24.11,37.65,21.81,54.3-.7-.19-.92-.56-2.02-.4-2.9h0v-.2l.1-.1h0l.1-.1h.1c.05-.29.18-.55.4-.8h0c2.82-3.34,5-7.11,6.8-11.1-.1-.2-.2-.4-.2-.5l-.1-.1c2.02-4.32,2.05-9.27,3.7-13.7,10.64,2.8,11.3-21.44,11.5-28.5Z"/>
    <path class="cls-6" d="m297.41,418.25c-.1,0-.2-.1-.2-.1.54-9.42.84-18.7-.3-28,.76-.45.2-3.98.3-4.7,1.47-.59.12-3.74.1-4.8-.16-1.02.54-3.02-.8-3.3-.99-5.07,1.05-13.3-1.7-17.3v-.4c.68-8.05-2.2-32.11-9.1-37,7.13-6.44-7.26-13.49-2.2-20.7,4.24-2.08.78-6.59-.5-9.6-3.04-4.95-4.29-11.8-7.6-16.1-11.41-34.59-4.69-77.96-28.7-107-16.91-10.66-46.32-13.87-65.4-12.3-3.63-4.9-9.67-8.87-15.4-10.2-.2-.23-.77-.33-1-.5.36.61-.31,1.68-.8.9v-.1q-.1,0-.2-.1c.05.53.18,1.17.5,1.6-.37,1.34.91,3.4,2.1,4,1.64,2.89,3.14,6.47,5.7,8.5,1.02,3.22.7,6.77,1.2,9.9-.45.76-.69,1.73-.8,2.7l-.1.1h0c-9.91,59.78-20.63,121.32-8.1,181.6,2.08,69.21,6.41,138.37,7.1,207.4-1.21,1.27-.49,3.16-.4,4.7-.39,1.66-1.35,9.9,2.2,8.3,3.04-.57,6.67.21,9.4-1.1,9.85.89,20.02-.4,29.7-2.6,3.8,1.3,8.3-1.7,12.3-2.3,7.11-1.2,13.95-4.01,20.1-7.5,3.9-.26,4.81-3.73,3.7-7v-.1h0c-1.16-5.13-.9-10.34-2-15.3-.14-9.26-2.57-18.65-2.9-27.8h0c.09-.46.09-1.03,0-1.5h0c.01-.22.01-.74-.2-.9-1.46-17.85-5.4-35.39-7.3-53.1,0-3.57-1.48-6.86-1.9-10.3,0-.5-.4-.9-.8-.9-1.95-9.78-2.19-19.75-4.2-29.5-6.78-49.51-16.18-99.67-14.8-149.8h0c.53-4.67.92-9.38,1.8-14h.1c.23.68.62,1.8,1.5,1.7.5,8.92,5.04,16.78,7.6,25.2,2.17,8.38,2.64,17.01,2.6,25.9h0c.1,1.6.3,3.1.8,4.7v.1h0c.38,6.75,2.27,13.6,5.7,19.4,0,.1.1.1.1.2,1.17,1.74,2.38,3.82,4,5.1,3.03,7.02,1.43,15.13,2.8,22.7-2.1.48-1.29,3.08.6,2.8-.44,3.88.82,7.88,1.7,11.7h0c2.27,12.06,5.99,23.88,7.4,36.1,1.19,3.75.36,9.3,3.3,12.6.2.6.2,1.3.2,2,.13,2.12,2.71,1.38,3.2-.2,2.49-1.71,4.73-4.09,7.3-5.8,1.58.86,2.64-1.56,4.1-1.9.97-.4,2.82.2,3.1-1.1,7.23-1.42,14.93.79,20.7,5.3,1,.9,1.9,2.2,3.4,2.2,1.23-.11,2.62-1.56,1-2.5ZM168.01,150.15c-.2,0-.3.1-.5.2-.35-.22-.07-.72-.4-.9.3.2.6.4.9.7,0-.1,0,0,0,0Zm64.3,163.3c-.09-.72-.12-1.47-.1-2.2.2.69.2,1.39.4,2.1-.2,0-.3,0-.3.1Zm59.3,79.2c-.1-.5-.2-1-.3-1.5h.3c.1.3.3.7.4,1-.1.1-.3.3-.4.5Z"/>
    <path class="cls-6" d="m358.01,388.45c-1.3,0-1.3,2,0,2s1.3-2,0-2Z"/>
    <path class="cls-7" d="m14.41,549.55c-1.68-.34-1.66,2.05-2.8,2.9-.35-.39-.57-.8-1.1-1,.25-1.35-.71-3.13.3-4.2.9-.1,1-1.5,0-1.5-1.89-.11-2.49,2.16-2.4,3.7-1.32,1.23-1.15,3.22-.4,4.8h0c-.05,6.1,10.31-2.09,6.4-4.7Z"/>
    <path class="cls-7" d="m22.71,544.95c-.04-.92-.35-2.08-.6-2.7-.1-.1-.2-.3-.2-.4-.11-.13-.28-.23-.4-.2v-.1c-.72-.63-1.33.44-1.2,1.1,0-.24,0,.35,0,.4-.3-.1-.7-.1-1,0-.46-.27-1.14.01-1.4.4-2.24.28-2.99,4.3-.6,5.1,2.17,0,5.8-.62,5.4-3.6Z"/>
    <path class="cls-7" d="m34.81,505.15c-2.06-3.06-3.14,1.96-3.4,3.7h-.1c.17-1.47-1.52-1.9-2.3-1,.02-1.06-.19-1.92-.2-2.9h0c-.2-.8-1.5-.9-1.7,0-1.49.23-1,2.19-1.32,3.28.73,5.75-4.52,22.47,3.01,23.75,7.69-.15,4.45-20.77,6.01-26.83Z"/>
    <path class="cls-7" d="m266.51,509.65c-.4.9-.7,1.9-.9,2.8-.5-.6-1.4-.7-2-.1,0-1,.1-1.9.1-2.9,1.45-1.74-2.33-3.53-2.1-.1-.5.1-.9.5-.8,1.1h0c-.18,4.61-.78,13.29,2.2,17,0,2.13,3.13,2.95,2.5.3,3.17-1.59,2.38-6.03,2.9-9-.18-2.1,2.75-13.23-1.9-9.1Z"/>
    <path class="cls-7" d="m279.51,526.55c.1-.6-.2-1.1-.7-1.4.95-.22.62-1.67,0-2.2-1.61-4.67-6.17,4.78-7,6.4-1.59,1.67-3.11,3.85-4.2,5.9v.1c-2.98,3.22-2.01,12.39,2.6,5.3,2.81-.69,3.71-4.13,5.7-5.9,1.49-1.79,7.92-6.8,3.6-8.2Z"/>
    <path class="cls-7" d="m288.01,553.65c-.14-.29-.4-.6-.7-.7.21-2.57-3.22-.52-3.4,1,.42-1.06-.77-1.94-1.7-1.6-.39-1.53-2.39-.89-3.3-.4,0-.8.1-1.6-.2-2.4.2-.6.3-1.2.5-1.8h0c-.04-2.02-1.88-1.06-2.3.3-2.13,1.29-.91,6.83-.5,8.9-.06,3.33,4.07,4.26,5.6,1.4.64-1.43.94-2.98,1.8-4.3-.2.7-.3,1.4-.1,2.1h0c-.09,1.68,2.27,1.74,2.7.3h0c.88-.55,1.7-1.8,1.6-2.8Z"/>
    <path class="cls-13" d="m128.31,417.85c-1.28-19.52.41-10.48-16.5-14-3.94-.2-1.63,5.49-2.3,7.9.2,2.15-1.69,7.07,1.6,7.3,4.12.4,8.53,1.21,12.8.9,2.03-.16,4.37,1.33,4.4-2.1Z"/>
    <path class="cls-13" d="m166.31,403.35c.21-3.9-13.91.3-16.5.8-4.7-.93-1.15,7.56-2.3,10.3-.59-2.87.88-11.63-3.3-11.4-3.55,1.59-16.58-2.45-16.4,2.3-.97,4.22,1.4,8.39.5,12.6-.4,1.7.2,3.6,2.3,3.7,4.34-.85,15.84,1.09,16.8-4.3,4.4,2.58,12.8-1.03,18-1.5,2.92-2.07.41-9.15.9-12.5Z"/>
    <path class="cls-4" d="m295.61,444.45c-.09-.44-.51-.97-1-.9h0c-.36-.44-1.43-.69-1.5.1v.1l-.1.1c-6.52-4.99-22.65-8-30.3-3.5-.3-.2-.6,0-.8.2-1.11-.51-2.6.9-2.2,2.1.19,1.25,2.21,1.44,2.5.2,10.4-4.26,20.61.49,30.5,2.2,0,0,0,.1.1.1v.1c.1.1.1.2.2.3,0,0,.1,0,.1.1h0s0,.1.1.1c0,.1.1.2.2.2.7.74,2.4.18,2.5-.9-.2-.2-.2-.4-.3-.6Z"/>
    <g>
      <path class="cls-4" d="m294.21,454.45c.05-.74-.9-1.61-1.6-1.2h0q-.1-.1-.2-.1c-.1-.1-.2-.2-.3-.2,0-.1-.1-.1-.1-.2-.1-.1-.3-.2-.4-.2-.33-.32-.88-.38-1.3-.5-.2-.3-.7-.5-1-.3h-.2c-.2-.4-.6-.6-1-.6-.3-.3-.7-.4-1-.2-.1-.1-.3-.2-.5-.2-.15-.24-.53-.21-.8-.2-.2-.2-.5-.3-.8-.3-.3-.3-.7-.5-1.1-.3-.2-.2-.6-.3-.9-.3-.2-.2-.6-.4-.9-.3-.1-.1-.3-.2-.5-.2-.2-.2-.5-.3-.8-.3-.3-.3-.6-.3-1-.2-.2-.3-.6-.4-.9-.3-.2-.2-.6-.3-.9-.2-.3-.2-.7-.3-1-.2-.3-.3-.7-.4-1.1-.2-.3-.2-.6-.2-1-.1-.2-.1-.4-.2-.7-.1-.3-.3-.8-.5-1.2-.3-.3-.2-.7-.2-1,0-.2-.1-.5-.1-.7-.1-.3-.3-.7-.4-1.1-.2-.3-.1-.6-.2-.9,0-.3-.2-.6-.2-.9,0-.2-.1-.5-.1-.7-.1-.3-.2-.8-.2-1.2,0-.4-.2-.8-.1-1.1.2-1.41.59-3.3-.16-4.3,1-.82,1.77,1.57,2.67,2.7,1.4.1,0,.1-.1.2-.2.47.15,1,.37,1.4-.1.3.3.7.3,1,.2.3.2.6.2.9.1.3.1.6.1.9,0,.2.1.5.1.7.1.3.2.6.2.9.1.14.12.36.09.6.1.3.3.8.3,1.2.1.3.2.6.2,1,0,.1.1.3.1.5.1.3.4.8.5,1.2.2.3.2.6.2.9.1.2.2.4.2.7.2.3.3.7.4,1.1.3.2.2.6.3.9.2.2.2.6.3.9.2.2.21.59.29.8.2.2.2.4.3.6.3.34.3.9.34,1.3.5.2.4.7.6,1.2.4.2.2.5.4.8.3.34.4.85.44,1.3.2.55.16,1.11.93,1.7,1,.3.4.7.5,1.2.3.1.1.3.2.4.2.2.2.5.3.7.3.2.2.6.3.9.2.1.1.3.1.4.1.55.43,1.51,1.41,2.1.5,0,.1.1.2.2.3h0c1.22,1.49,2.29-.5,1.8-1.5Z"/>
      <path class="cls-4" d="m263.81,448.65s-.1,0,0,0q-.1.1-.2.1.1,0,.2-.1Z"/>
    </g>
    <path class="cls-4" d="m295.21,463.75c-4.35-3.5-10.04-5.49-15.2-6.9-4.15-1.23-9.22-2.22-13.3-.8-4.28-1.12-4.64,4.36-.5,2.3.3.3.7.4,1.1.1.1,0,.1-.1.2-.2h0c7.29-1.29,20.14,2.15,26.4,6.4.9,1,2.1-.1,1.3-.9Z"/>
    <path class="cls-8" d="m140.61,801.25c0-.5-.2-1-.6-1.3-.84-2.81,2.04-9.47-1.2-10.5-2.24-.16-2.53,3.01-3.1,4.6-1.5,4.02-6.47,2.52-9.5,4.5-5.48-.41-8.75-7.62-15.2-2.5-2.01-7.53-15.24-10.87-19.2-3.1h0c-9.75,18.25-21.48,35.18-32.4,52.6h0c-35.59,45.96,9.37,48.25,40.4,24.1,10.05-9.16,13.41-23.37,21.4-34.2,9.64-9.28,19.48-20.11,19.4-34.2Z"/>
    <path class="cls-8" d="m289.21,906.55c-5.9-20-22.51-35-32.5-52.9-3.81-6.27-7.97-12.39-10.7-19.3-2.22-8.19-12.2-13.45-19.1-7-.45-.02-1.02.49-1.3,1h0c-1.13,1.3-1.68,2.88-2.3,4.4-1.68-.67-2.31-3.18-4.39-3-1.19.21-3.43-.42-3.71,1.3-7.2,3.17-16.42,3.67-18.2-5.8-4.26-1.63-2.93,4.18-3.3,6.6-4.62,27.9,23.7,34.72,30.5,58.3,7.49,19.63,33.68,33.47,54.2,31.9,3.24-.37,8.66-1.27,8.3-5.5,2.3-2.4,3-6.8,2.5-10Z"/>
    <path class="cls-4" d="m138.01,790.05c-6.23.64.27,10.14-17.4,6.5-1.89-5.17-8.64-.94-10.5,2.2h0c-1,1.4-1.8,2.9-2.6,4.5h0c-8.41,20.69-34.42,44.44-14.4,66.1,1.12,5.89,7.01,2.19,9.3-.7,2.66-2.85-1.61-7.42-4-8.9-11.59-14.59,12.2-39.69,20.1-53,7.07-1.59,16.46-1.54,20.5-8.8,1-2.4,2.59-7.28-1-7.9Z"/>
    <path class="cls-4" d="m93.51,792.85c0-.9-.4-1.5-.9-2h0c-4.12,4.04-4.7,10.81-8.8,14.7-7.35,17.63-20.14,32.56-31.5,47.6,2.82,1.32,5.67-1.51,8.1-2.9,1.16.1,2.24-.43,2.9-1.4v-.1c.76-.16,1.5-.95,1.9-1.6,11.57-9.74,27.55-38.35,28.3-54.3Z"/>
    <path class="cls-4" d="m242.41,867.55c-5.57-5.32-17.85-48.71-28.1-36.2-6.34,2.37-15.89,2.98-17.5-6-5.05-1.69-2.62,5.7-3.6,8.4,4.12,5.28,13.56,8.8,19.7,5h0c.6.4,1.1.5,1.7.5.3.2.6.5.9.7h0c.77,1,1.39,1.94,2,3h0c5.5,12.77,14.86,23.38,20.5,36.2h0c2.78,5.76,1.13,7.47.2,12.6h0c-1.09,1.02-2.55,2.26-2.3,3.8-1.16,1.36-1.81,3.34-3.1,4.4,0,0-.1,0-.1.1-2.86,1.55-1.66,6.13,1.5,6.1,5.28,11.06,15.74-14.93,14.7-19.4,1.6-5.8-2.4-15.2-6.5-19.2Z"/>
    <path class="cls-4" d="m280.41,887.75c-2.17-2.54-2.96-6.54-5.8-8.4-2.13-1.87-2.41-6.87-5.6-6.9-4.87-7.33-7.59-17.35-14.6-23.3-3.58-7.04-7.49-13.91-11.8-20.6.17,15.31,7.52,28.69,16,41.1,2.99,6.75,7.71,12.84,14,16.7h0c.72.75,1.78,1.25,2.7,1.1,2.4,1.6,4.7,3.2,7.5,4.4-.8-1.5-1.5-2.9-2.4-4.1Z"/>
    <path class="cls-1" d="m289.21,317.55c-.23-5.28-8.15-9.81-4-15.1.9-1,1.8-1.9,1.9-3.3-23.68-40.04-10.48-94.24-39.7-131.1.1-.3.2-.5.3-.8h0c-.03-1.01-.98-.59-1.2.1-15.71-8.99-47.31-14.21-63.1-10.7,21.32.99,42.94,2.81,62.5,11.8-6.74,13.06-14.67,29.78-16.2,43.1,4.93-14.43,10.55-28.53,17.4-42.2,27.26,35.71,14.55,86.62,36.4,125,1.54,2.28,3.12,5.19.4,7.3-6.51,6.77,8.91,14.43,1.7,20.4-1,.5-.1,1.9.9,1.5,2.1-1.2,2.9-3.8,2.7-6Z"/>
    <path class="cls-1" d="m252.01,401.05c11.75-13.01,33.68-19.1,45.6-2.8v-3.6c-12.67-15.46-34.45-8.89-46.2,4.5h0c.2.66.53,1.16.6,1.9Z"/>
    <path class="cls-1" d="m298.91,392.35v-3h0l-.1-.1c-1.34-13.57-.45-61.93-12.1-65.6,9.85,11.81,8.82,45.79,10.4,61.9.14.13.22.24.2.4h0c.17,11.67.22,23.24-.5,34.9-11.3-11.72-30.91-10.09-40.2,3.4-2.37-10.51-5.11-20.82-7.4-31.3l.1-.1h0c-.2-.5-.3-1.1-.4-1.7h0c-3.5-16.1-8.41-32.15-7.5-48.8-.7-.96-.99.43-1.12,2.3-.75,18.76,4.14,32.66,7.52,49.4,2.38,10.49,4.95,21.02,7.4,31.5-1.19,2.74,3.09,3.98,1.8.5,9.89-12.81,28.58-13.92,39.7-1.9v.2c.41.17.69.32,1,.5q.1-.1.2-.1s.1,0,.1-.1h.1c.1-.1.2-.1.3-.2h0c.2-.27.22-.94-.1-1.2.46-10.26.84-20.67.6-30.9Z"/>
    <path class="cls-1" d="m239.51,334.85c-13.31-13.03-9.69-32.64-12.3-49.4-1.74-12.57-11.42-23.78-8.6-36.9.1-.4-.5-.7-.7-.3-4.54,11.93,4.97,23.5,7.1,35,3.72,15.24-1.32,45.83,14.5,51.6Z"/>
    <path class="cls-1" d="m255.21,303.65c-5.16,9.54-9.54,19.5-13.4,29.6,2.81-1.5,3.97-7.89,6-11.1,2.04-5.78,7.59-13.56,7.4-18.5Z"/>
    <path class="cls-1" d="m252.81,273.45c-4.95,18.96-9.5,38.3-13,57.6,5.44-13.52,7.18-30.43,11.3-44.8.08-2.25,4.02-12.88,1.7-12.8Z"/>
    <path class="cls-1" d="m279.51,301.35c7.75-11.31-8.85,7.96-7.2,10.6,9.13,7.47,12.17,6.15,1.3-.9,1.67-3.44,3.86-6.56,5.9-9.7Z"/>
    <path class="cls-1" d="m238.41,256.25c-4.56,13.02-5.18,27.67-7,41.4,3.84-12.73,4.2-27.8,7.6-41.1-.2-.3-.4-.5-.6-.3Z"/>
    <path class="cls-1" d="m270.31,321.65c-10.64-4.86-23.16,3.97-25.9,13.5,6.54-8.82,14.36-15.39,26-13.1,0,0,.1-.3-.1-.4Z"/>
    <path class="cls-1" d="m229.71,514.85c-3.02-48.84-7.53-97.55-13.4-146.1,4.3,49.5,9.39,103.1,12.6,154,2.26,1.66.57-6.76.8-7.9Z"/>
    <path class="cls-1" d="m264.91,452.75c-3.33-13.45-5.24-27.48-9.4-40.6-.86.12,9.98,53.99,9.4,40.6Z"/>
    <path class="cls-1" d="m302.01,500.15c-1.26-13.56-5.41-26.59-8.9-39.7.64-11.64,1.69-23.35,1.9-35,0-.7-1.1-.9-1.2-.2-1.18,10.28-1.47,20.74-2.3,31.1-1.25-.12-.2,1.99-.1,2.6.13,1.3-1.25,5.76,1.3,4.5,3.6,15.93,9.6,32.36,6.7,48.8-.83,1.21-1.79,2.43-2.5,3.7-.59,2.04,1.1.74,1.5-.3.48,14.56-4.95,28.06-11.6,40.7-1.64.03-1.28,2.85,0,1.5,2.53-.71,2.6-4.58,3.9-6.5,5.41-11.39,10.21-23.48,8.2-36.3.83-.5,1.1-1.64,1.9-2,.1-.2.2-.5.4-.7.6-4.3,1-8.2.8-12.2Z"/>
    <path class="cls-1" d="m279.21,529.85c-1.51,1.72-12.71,18.36-13.2,11.8,1.31-11.21,12.24-18.26,16.3-28.5-.1-.5-.2-1-.3-1.4-4.77,10.63-16.57,18.3-17.5,30.4.3,11.1,17.94-12.54,14.7-12.3Z"/>
    <path class="cls-1" d="m279.91,559.65c-7.09,2.29-1.38-21.02.3-24.1,3.17-12.25,1.34-26.35-6.1-36.7.97-1.24,5.12-19.73,1.7-16.5.56,8.67-3.6,16.37-5.5,24.6-2.52,4.79.18,21.23-6.6,20.7-4.95-4.96-2.11-27.3-4.2-35.2h0l-.2-.2h0l-.1-.1-.1-.1h-.1l-.1.1c.1-.1,0,0,0,0,0,0,0,.1-.1.1,0,.1-.1.1-.1.2h0c-.07.19-.17.74-.3.9,1.78,5.86-2.08,40.43,7.9,35.3,5.26-4.36,3.26-20.6,7.3-28.5,2.78,4.12,4.65,8.82,5.7,13.7h0c5.26,15.44-7.24,30.08-3.1,45.3,1.92,4.99,7.13.33,3.7.5Z"/>
    <path class="cls-1" d="m292.71,512.15c-2.77-2.36-.66,16.59-1.4,18.8-.14,9.74-6.91,18.04-9.2,27.3,3.89-3.22,5.46-12,8.4-17.1,3.94-8.93,2.31-19.53,2.2-29Z"/>
    <path class="cls-1" d="m266.21,457.55c-.02-.54-1.53-3.59-1.4-1,.83,4-1.42,7.53-2.7,11.2-2.4,6.92-3.8,14.07-3.6,21.4,1.88,3.18,1.35-12.83,2.8-14.4.94-5.9,5.59-11.13,4.9-17.2Z"/>
    <path class="cls-1" d="m85.71,162.45c-18.41-.58-37.14,7.7-52.1,18.2-.46-.33-1.39.21-1.1.8-18.56,26.18-14.68,62.14-16.5,93,.66,13.21-3.64,15.76-8.9,26-.95,4.59,3.62,8.85,1.1,13.4-2.84,5.66,1.49,11,1.2,16.7,0,.4.3.6.6.6-10.82,17.81-6.91,32.02-5.3,51.4,4.05-.62-1.39-23.67-.8-28.3,1.1-.1.57-1.68.7-2.4h0c-.7-7.62,4.74-13.87,5.9-21.1,1.63-8.5-4.43-8.59.1-20.2-1.8-9.26-3.88-9.77,3.1-17.9,8.71-21.54,1.81-46.7,6.1-69.4,1.3-14.28,5.74-28.6,12.9-41.1.1.2.3.4.5.4.51,11.1,2.36,25.58,7.2,34.4-2.31-11.58-5.84-23.04-5.8-35,14.75-11.51,33.13-16.84,51.2-19.7,0,.4,0,.3-.1.2Z"/>
    <path class="cls-1" d="m71.91,291.25c0-.3-.3-.4-.5-.3.55-2.11-1.61-30.46-4.4-25.3,9.17,31.43-2.43,45.8-5.8,74.6-.46,25.83-4.22,51.71-11.5,76.5-12.82-6.28-28.4-9.24-41.9-3.2-1.52-8.83-1.11-18.09-2.6-26.9,14.8-8.2,34.38-6.58,46.7,5.4.7.6,2.96,3.07,3.2,1.1-10.97-14.37-36.85-18.7-50.7-7-1.79,4.33.93,10.87.7,15.9.66,2.44.06,13.82,3.3,12.9,13.55-6.46,27.9-1.61,41.3,2.3.99,5.37,4.2-9.98,4.6-11.2,6.96-24.59,7.4-50.12,9.7-75.3,2.55-13.26,7.85-25.84,7.9-39.5Z"/>
    <path class="cls-1" d="m38.01,357.05c-8.31-5.22-13.14-14-20.1-20.5-3.98-.92-8.27,3.59-9,7.1-.13,1.9,5.61-8.84,8.9-5.7,6.14,6.14,11.95,16.95,20.2,19.1Z"/>
    <path class="cls-1" d="m50.61,315.15c-3.73-11.36-7.16-22.81-9.3-34.6,2.89,6.69,5.83,16.37,10.4,20.8-4.1-9-8.7-17.8-11.5-27.3-.2-.6-1.3-.6-1.2.2,2.19,17.45,7.86,34.48,14.2,50.9.1.3.6.1.5-.2-.9-3.3-2-6.6-3.1-9.8Z"/>
    <path class="cls-1" d="m30.31,341.45c-5.56-8.87-11.02-17.86-15.2-27.5-.2-.4-.8-.1-.7.3,3.77,9.81,8.95,19.35,15.7,27.4,0,.2.3,0,.2-.2Z"/>
    <path class="cls-1" d="m47.61,422.25c-.04,5.66-2.56,12.92-1.2,17.9.78-.5,4.34-22.96,1.2-17.9Z"/>
    <path class="cls-1" d="m229.71,640.25c.12-.8,1.86-5.42,1-5-1.86,6.08-4.66,11.92-8.5,16.9-.4.5,0,1.3.5,1.2,1.84-.68,3.91-.32,4.8,1.7,1.69.6-.87-4.39-3.6-3.3,2.41-3.4,4.5-7.59,5.8-11.5Z"/>
    <path class="cls-3" d="m206.11,753.95c-8.38-8.24-14.04-18.81-20.3-28.6,2.58,9.82,11.32,19.71,18,28-3.52.58-10.78-7.61-10.3-5.1-.02,2.87,13.29,9.38,12.6,5.7Z"/>
    <path class="cls-3" d="m202.31,761.35c-5.16-.51-11.87-2.99-16-3.5,2.87,1.47,14.47,6.03,16,3.5Z"/>
    <path class="cls-1" d="m131.11,674.55c-1.45-6.17.86-38.85-10.7-31.8,5.66-1.57,7.65,4.14,7.6,9.1.87,9.23,1.34,18.56,3,27.7.85-.41-.07-3.81.1-5Z"/>
    <path class="cls-1" d="m130.41,743.85c-1.29-3.81-3.81-6.82-6.3-9.8-6.17-8.08,10.08-2.31,9.3-14.9-.1-.3-.5-.2-.5.1-.1,5.05-4.36,8.44-9.2,8.7-7.02,3.45,6.41,12.75,6.3,18.8,1.78,3.79,1.15-1.75.4-2.9Z"/>
    <path class="cls-1" d="m206.21,266.65c-.37-2.48.29-5.73-1-7.8.3-1.32-2.39-.65-3.2-.6-7.19.7-14.41.19-21.6.2,6.1,2.43,16.83,1.48,24.3.7-.32,2.32.05,4.67,0,7-6.5,1.04-13.26,1.33-19.8,1.1-1.9,2.49,18.08,1.1,19.9-.1.21,10.56.1,21.17-.9,31.7-2.03,7.83-14.33,6.65-20.6,5.4-4.09-1.73-6.3-.56-.8.9,6.99,1.44,21.05,2.61,22.8-6.4,1-10.57,1.14-21.61.9-32.1Z"/>
    <path class="cls-1" d="m177.21,299.15c-.4-9.42.51-19.29-.9-28.5-1.29.12-.99,44.13.9,28.5Z"/>
    <path class="cls-1" d="m200.71,190.85c-5.03-17.78-16.34-42-36.5-45.3,18.7,6.74,31.18,28.83,36.4,48.5,1.35.48.11-2.4.1-3.2Z"/>
    <path class="cls-1" d="m173.41,165.85c-.71-5.18-.71-13.5-6.9-15,12.28,10.98-.05,49.99-1.8,66.8-5.7,36.9-8.72,74.7-4.3,111.9h.1c-5.76-55.23,7.36-109.33,12.9-163.7Z"/>
    <path class="cls-1" d="m189.31,199.45c1.57-.76,11.37-3.33,9.9-5-4.94,1.41-9.64,3.97-14.8,4.7-.3-.2-.7-.2-1,.1-21.37-24.85,9.58,13.75,13.2,20.3-9.15,34.88-30.38,70.15-31,106.5,4.5-37.11,23.09-70.28,31.8-106,1.28-4.44-10.03-14.8-12.7-19.2,1.55-.36,3.08-.89,4.6-1.4Z"/>
    <path class="cls-1" d="m72.01,195.25c5.03-18.14,15.98-43.21,36.5-46.9-18.94,7.26-31.16,30.12-36.4,50.2-1.37.46-.1-2.56-.1-3.3Z"/>
    <path class="cls-1" d="m99.31,170.35c.71-5.18.71-13.5,6.9-15-12.28,10.98.05,49.99,1.8,66.8,5.7,36.9,8.72,74.7,4.3,111.9h-.1c5.76-55.23-7.36-109.33-12.9-163.7Z"/>
    <path class="cls-1" d="m83.41,203.95c-1.57-.76-11.38-3.33-9.9-5,4.94,1.41,9.64,3.97,14.8,4.7.3-.2.7-.2,1,.1,21.37-24.85-9.58,13.75-13.2,20.3,9.15,34.88,30.38,70.15,31,106.5-4.5-37.11-23.09-70.28-31.8-106-1.28-4.44,10.03-14.8,12.7-19.2-1.55-.36-3.08-.89-4.6-1.4Z"/>
    <path class="cls-1" d="m177.51,397.95c-9.96,1.85-19.85,4.08-30,4.9-.21-2.36-1.64-1.55-3.4-1.4-4.81,1.47-14.38-1.38-17.3,2.5-7.92.08-15.82-.48-23.7-1.2,6.63,2.19,16.15,2.08,23.8,2.6-.07,4.57.34,9.13.4,13.7-7.78.2-15.72-.6-23.5-1,5.93,2.58,16.14,1.88,23.5,2.4v.5c-.13.07-.24.13-.4.1v.2h0v.1c.2.3.3.4.5.4.08,2.04,1.45,2.68,1.6.3,2.33.16,21.02.98,19-2.5,30.93-4.12,33.16-7.12-.1-1.7.21-4.56.11-9.05-.2-13.6,10.1-1.2,20.17-2.64,29.8-6.1.4.2.3-.3,0-.2Zm-45.3,7.5c4.7-.1,9.4-.3,14.1-.7,0,4.5.15,9.01.4,13.5-5.89.54-11.9.91-17.8.9-.08-4.71-.28-9.15-.6-13.9,1.4.2,2.6.2,3.9.2Zm10.1,14.9c-4.34.56-8.89.75-13.3.7v-.4c5,.03,9.91-.15,14.9-.6-.5.2-1,.3-1.6.3Z"/>
    <path class="cls-1" d="m145.61,458.15c-1.05-5.75.58-14.11-1.8-18.6-2.32,8.96,5.75,25.28-8.4,25.8.46-12.68-.69-26.7-2.7-38.8.61,12.99-.12,26.41,1.5,39.2-.47.03-.56.73,0,.7,5.23.36,12.71-1.97,11.4-8.3Z"/>
    <path class="cls-1" d="m144.11,434.05c-1.18-1.18-.98,3.53-.5,3.8,0,.1.4.1.4,0h0c.1-.1.1-.2.2-.3.14-1.07.23-2.38-.1-3.5Z"/>
    <path class="cls-1" d="m160.41,513.75c-5.79-6.64-12.93-12.1-19.2-18.3.27-.4-.17-.9-.7-.8-.8-1.1-1.5-2.3-1.8-3.6,3.05.13,18.25-2.48,17.5-5.2-5.7,1.93-11.59,3.41-17.6,3.8-.13-1.1.63-2.44.1-3.4l-.1-.1h0c.1,0-.1,0,0,0h0s-.17,0-.2,0c-.02-.02-.4.02-.3.1-.31,1.17-.66,2.32-.7,3.5-23.31-.23-22.54.6,0,1.5.2,1.6.9,3,1.8,4.4-6.41,41.9-7.63,84.97-7,127.4.16,1.09-.22,4.78,1.2,3.2-.14-43.26,1.32-86.66,6.2-129.7,14.96,13.81,10.85,50.41,19.1,68.2-3.38-20.36-6.34-41.39-11.3-61.4,4.13,3.06,8.52,9.52,13,10.4Z"/>
    <path class="cls-1" d="m171.81,644.85c-4.38-25.19-6.19-54.78-12.2-77.8-.16,4.5,15.49,117.15,12.2,77.8Z"/>
    <path class="cls-1" d="m135.71,495.55c-7.9,10-17.9,22.7-21.8,33.5,7.53-11.03,14.75-22.32,22.2-33.4-.1,0-.3-.2-.4-.1Z"/>
    <path class="cls-1" d="m133.81,494.35c-2.66,3.08-9.15,7.64-10,10.6,3.34-2.98,8.51-7.21,10-10.6Z"/>
    <path class="cls-2" d="m238.51,622.85c.02-16.33,1.23-33.88-.9-49.6-1.69,24.97,1.88,53.38-3.9,76.8,6.34-7.12,3.82-18.43,4.8-27.2Z"/>
    <path class="cls-1" d="m238.11,779.75c-12.76,12-33.61,10.5-49.7,7.5-.03-4.59-.83-9.09-.9-13.7-.05-1.5,2.4-1.89,2.2-3.1-3.78-.33-4.08,4.27-3.7,7,.56,1.84-.61,11.78,2,10.7,9.06,5.36,50.35,3.92,50.1-8.4Z"/>
    <path class="cls-1" d="m239.71,768.45c.08-12.35-10.15,8.52-48.1,1.8-1.14,3.99,19.45,2.07,23.1,2.6,6.77-.16,13.57-1.96,19.4-5.4,6.77-5.51,2.44,7.25,3.9,10.5,2.53,1.22,1.43-7.75,1.7-9.5Z"/>
    <path class="cls-1" d="m187.91,755.55c-3.83-31.66-14.27-64.13-15.6-95.8-1.96,32.08,10.66,62.91,13.9,94.5.15,12.26,3.27,19.12,1.7,1.3Z"/>
    <path class="cls-1" d="m237.21,661.45c.53-1.64-2.24-11.47-3.4-8.7,4.65,12.65.75,26.94,1.6,40.2-.12,22.29-1.28,44.88-1,67.2,2.8,3.36,1.53-19.48,2-21.7.46-25.62.95-51.41.8-77Z"/>
    <path class="cls-1" d="m109.61,577.55c-15.99,3.04-32.53,2.57-47.9-3.3-.93-9.64-2.88-12.22-1.4-.5-10.33-3.72-19.6-9.34-28.6-15.5-.3-.2-.7.3-.4.6,8.45,7.42,18.78,12.99,29.2,17,2.31,10.77,3.08,49.86,11.8,53.3-7.55-16.43-7.16-35.11-10.2-52.7,13.71,4.31,36.96,9.39,47.5,1.1Z"/>
    <path class="cls-1" d="m137.81,754.45v-.8c1.87-.4,2.36-2.09,0-1.4-1.63-38,4.99-79.54-2.2-116.5,3.29,36.2-.07,78.59.4,116.9-14.03,4.17-28.87,5.35-43.3,2.9-5.9-41.14-11.27-87.6-23.8-125.2,8.94,41.32,17.21,82.76,21.9,124.8-3.47-1.14-.03,8.74-.4,10.8.87,3.57.01,8.23,2.8,11,.64,11.03,3.2,14.72,1.8.8,13.34,3.11,28.56,4.95,40.7-2.8-.43,20.79,2.34,14.14,1.8-1.4,2.24-2.86.93-7.11,1.5-10.5-.35-1.54,1.81-10.82-1.2-8.6Zm-2.7,19c-11.75,8.02-26.93,5.5-40.1,3-.66-6.29-1.3-12.52-2.1-18.8,14.37,2.13,29.32,1.28,43.2-3.2-.09,6.19-.15,12.31-.2,18.5-.2.2-.5.3-.8.5Z"/>
    <path class="cls-1" d="m250.81,559.75c-.7-.7-2.3-.1-1.9.9-22.7,14.14-52.29,11.44-76.5,16.1,18.59-.56,68.08-1.65,78.4-17Z"/>
    <path class="cls-1" d="m249.01,554.85c-1.33-27.09-4.66-54.1-8.7-80.9-.91-2.78-2.92-26.08-5.3-23.1,4.03,27.64,8.54,55.13,10.9,83,.29,2,2.39,31.44,3.1,21Z"/>
    <path class="cls-1" d="m46.51,444.25c0-.5-.9-.8-1-.2-2.53,14.18-3.63,28.79-5.8,43-2.68,22.46-6.74,44.86-9.6,67.3,7.96-34.17,12.61-73.84,16.4-110.1Z"/>
    <path class="cls-1" d="m108.91,481.35c-1.54-49.05-3.64,90.3-1.9,93.6,1.57-31.03,1.46-62.54,1.9-93.6Z"/>
    <path class="cls-1" d="m171.61,548.65c-.55-32.71.11-65.81-3.8-98.3-1.98-.53-.11,10.17-.4,12.1.61,12.01,1.22,23.81,1.5,35.8.35,14.8,2.38,117.11,2.7,50.4Z"/>
    <path class="cls-9" d="m196.01,68.95c-14.15-7.57-.51-20.63-15.1-25.4.54-2.13-.36-4.73-2.4-5.4-1.22-3.3-4.06-6.57-7.5-7-2.29-11.44-15.71-14.41-25.6-15.9-.98-13.4-23.62-18.15-34.3-12-5.66-.59-12.06-.57-17.1,2.5-2.77,2.52,1.52,4.32,3.7,2.9-4.02.53-19.81,12.55-8,11-2.4,2.49-4.84,5.3-5.4,8.8-.3,2.1,2.4,3,3.5,1.2,1.58-3.08,3.31-6.11,6.1-8.3-1.24,4.46-5.69,7.95-6.4,12.7.53,4.27,3.88,1.7,4.8-1,.2,2.5.9,5,2,7.2-3.9,1.7-7.3,5.1-8.5,9.1-6.44,3.53-12.45,16.21-6.3,21.3-.1,3.46,4.48,19.63,8.2,10.6-.03-.51-.25-1.09-.5-1.5v-.1c3.65.83,4.68-1.71,3.8-4.8.2.8.3,1.6.5,2.4.2,0,.3-.1.5-.1.59,3.08,1.23,6.13,1.6,9.2,1.18,1.15,1.91,2.47,2,4.1h0c-.14,1.71.36,3.66,2.1,4.4.1.5.1.9.2,1.4h0c.51-9.6.84-19.17,3.8-28.4h-.1c.1-.4.1-.8,0-1.1,1.1-3.1,2.4-6.1,4-9h0l.1-.1s0,.1-.1.1c.42-.58.99-1.07,1.5-1.6h-.1.2c.2-.2.1-.1,0,0,2.05-2.59,4.9-.8,6.6-3,1.47,1.34,4.15,2.3,5.1-.1,1.46.91,3.82,1.92,5.1.2,1.16,1.05,3.21,1.63,4.4.3,1.48.91,3.67,1.79,5.1.5,2.31,3.21,7.29,3.2,9.2-.4,1.53,1.24,3.63.37,5.2.3,1.37.62,3.07.59,4.3-.3,1.21.87,2.76.62,4.1.3,1.59.81,3.39,1.01,4.9.1,0,0,0,.1.1.1.71,1.01,2.34,1.39,3.3.5-.13,2.32,2.54,3.61,4.5,4,2.85,6.19,4.06,13.32,5.3,20-.6,1.6-.4,3.6-.1,5.4.99,1.59-.03,4.33.3,6.3.36,1.19.49,2.83.2,4,4.77-.87,1.58-8.27,5.8-10.2.19-.78.06-1.82.7-2.4,0-.1,0-.2.1-.3-.36-1.15.58-5.09,1.5-5.8.25-1.76,1.6-3.1,1.4-4.8,2.56,9.61,9.95,6.11,5.8,1.6-.52-.76-.74-1.78-1.2-2.6,1.78,2.31,8.65,3.68,7.1-.9Z"/>
    <path class="cls-4" d="m137.01,12.85c-3.75-1.99-8.68.92-12.4,2.1.17.36-.25.98-.7.8h0l-.1.1h0c-.1.16-.12.3-.1.5h0v.1s0,.17,0,.2h0c4.46-.58,9.24-.6,13.8-1.5.1-.1.3-.1.4-.1,0-.8-.2-1.6-.9-2.2Z"/>
    <path class="cls-9" d="m129.01,84.65c-.12-1.93-1.78-4.55-4-3.9h0c-.66-1.02-2.58-1.82-2.7,0-.34.18-.78-.02-1.1.2-5.08-.34-11.99-3.43-16.1.7-.6.3-1.1.7-1.5,1.2-3.14,1.92-.33,4.41,2.1,2.2h0c.4-.2.8-.4,1.1-.7.3.1.7.1,1-.1q.1,0,.2-.1c4.63-2.2,19.58,5.13,20.9,1.3.1.2.2-.3.1-.8Z"/>
    <path class="cls-9" d="m168.81,84.05c-.47-.73-1.08-1.16-1.8-1.7l-.1-.1c-.12-.08-.23-.05-.3-.2-2.86-2.1-6.3-1.91-9.7-1.7-.08-.13-.47-.1-.6-.1-3.5-.2-7.1.1-10,1.9.68-.59-.02-1.51-.8-1-.64.83-1.18,1.67-1.8,2.5-4.79,6.86,6.5-.35,8.9.7,2.9.31,5.92-.5,8.7.3.51.55,1.42.92,1.9.2,1.77-.17,4.81,2.63,5.8,0,.2-.2,0-.5-.2-.8Z"/>
    <path class="cls-9" d="m135.81,125.25c.02-.65-.66-1.32-1.3-1.3.05-1.02-1.32-2.02-2.3-1.4-.8-1.62-2.51-.51-3.2.6-1.12-1.84-3.09.47-4.1,1.3-.42-1.15-2.31-.79-2.6.3-.68.46-1.22,1.14-1.8,1.7h0c-1.85-2.18-3.85,1.68-5.2,2.8-1.23,1.79,1.2,3.55,2.5,1.8.81,1.3,2.53.58,3.3-.5.83,1.89,3.02.1,4-.8,1.4,1.76,3-.69,4.1-1.6.54,1.15,1.94.95,2.7.1,1.93,2.37,3.98-1.07,3.9-3Z"/>
    <path class="cls-9" d="m158.01,128.65c-.29-1.27-1.4-2.87-2.8-2.4-.05-.34-.1-.57-.3-.9,0-.1-.1-.1-.1-.1-.34-1.62-2.97-1.6-3.3,0-.14-1.72-2.38-3.25-3.3-1.2-.16-1.89-2.85-3.74-3.3-1-.25-1.98-3.42-2.68-3.5-.3-1.09-1.47-3.41-.47-2.7,1.3-4.12-.33-.29,7.68,2,4.4.56.65,1.84.65,2.4,0,.41,1.5,2.61,2.32,3.5.8.31,1.35,2.2,2.24,3.2,1.1.41,1.4,2.46,2.78,3.5,1.2.92.64,2.22.12,2.6-.9,1.77,1.5,2.83-.4,2.1-2Z"/>
    <path class="cls-5" d="m123.91,93.15c-.07-.53-.57-1.09-1.1-1.2-.8-1.24-2.9-1.19-3.1.4-.5.2-.9.7-.9,1.2-.35.04-.68.2-1,.3-.67.24-3.38.09-4.4-1,.04-.35.26-.74.2-1.1,1.18-.43,1.15-2.1-.1-2.4-1.27-.17-2.38,1.06-3.6,1.1-.15-.03-.27.08-.4.1-.1.1-.2.1-.2.2-.98,1.39.35,3.19,1.7,3.6,2.32,3.07,6.93,2.82,9.9,1,.71.01,1.17-.54,1.8-.8h0c.67-.01,1.2-.72,1.2-1.4Z"/>
    <path class="cls-5" d="m162.81,90.45c-3.37-1.72-5.86-.3-7.7,2.7,0,.1-.1.1-.1.2h0c-.65-.66-1.76-.41-2.6-.6,1.09-.34,3.23-1.42,1.5-2.6-4.75-.66-11.04,4.93-2.1,5.3.89.48,2.04.58,3.1.6,2.28,1.34,11.99-2.97,7.9-5.6Z"/>
    <path class="cls-11" d="m119.81,91.15c-.1-.3-.2-.5-.4-.7h0c-.76-1.31-2.7-1.73-3.9-.7-.61.1-.9.63-1.2,1.1h0c-.65,1.41-.46,3.06.6,4.1h0c.2.1.4.2.5.4h0c.94.4,2.11.22,2.9-.4.83-.94,1.84-2.53,1.5-3.8Z"/>
    <path class="cls-11" d="m158.81,91.95c.43-3.38-3.68-3.42-5.7-2.1h0c-4.33,4.84,4.68,8.91,5.7,2.1Z"/>
    <path class="cls-10" d="m148.21,134.25c-.63-1.08-1.67-.42-2.5-.6-.01-4.65-6.29-3.26-9.4-3.4-3-.57-11.49-1.76-9.7,3.5-.1.1-.2.2-.3.3-.89-.25-2.57-.75-3,.5h0c0,.13.03.19-.1.3,2.7,6.99,16.14,7.58,21.8,3.4,1.33-.74,4.48-2.12,3.2-4Zm-13,1.1c-.91-.22-1.86-.85-2.8-1,1.35.22,2.79.75,4.2.6-.4,0-1,.4-1.4.4Z"/>
    <path class="cls-1" d="m104.61,135.05c-.1,0-.1.1,0,0,0,.1.1,0,0,0Z"/>
    <path class="cls-1" d="m126.41,158.05c-23.85-19-25.58-35-28.4-63.4-.41,10.85,1.84,25.51,5.1,36.9,5.45,10.53,13.35,19.69,22.6,27.1.6.4,1.1-.2.7-.6Z"/>
    <path class="cls-1" d="m174.91,110.05c-.12-1.62,1.83-10.89,0-9.9-.13,24.86-16.22,66.72-47.3,58.5-.7-.1-.9.9-.2,1,26.83,8.94,46.23-27.04,47.5-49.6Z"/>
    <path class="cls-1" d="m187.11,103.15l-.1-.2v.1c0-.1-.1-.1-.1-.2-.45-.42-.99-.92-1.6-1.1h-.1c.59-5.4,3.16-13.89-1.6-17.8-3.3-1.3-5.9,2.7-6.2,5.4,8.79-13.57,8.41,5.19,6.5,12-.24.04-.5-.1-.7.1h-.1c-.47-.04-.54.69-.2.9h0c-.03.09.56.26.3.1q.1,0,.2.1c-.2.9-.5,1.7-.8,2.6-1.56-.23-2.09,1.01-.4,1.3-.7,1.99-1.74,3.99-2.8,5.8-1.06-1.64-3.83.75-1.6.9.4-.2.6.1.7.6-.7,1.1-1.9,2.5-3,1.6-3.13-.3.7,3.29,2.9.6-.14,1.87-.63,4.14-2.4,5.1h0c-.78-.92-.08-2.07-.3-3-1.65-1.74-2.26,2.38-1.4,3.4,3.15,4.97,6.16-4.75,5.5-7.4,1.47-2.4,2.46-4.47,3.5-7,2.09,1.48,3.08-.97.6-1.5.3-.8.5-1.5.7-2.3,0,0,.1,0,.1.1l.1.1h.1c.09.21.98.76.7.5.1,0,.2.1.2.1,1,.2,1.4-.4,1.3-.9Z"/>
    <path class="cls-1" d="m183.91,93.85c1.13-4.78-3.48-8.26-4.9-2.2,7.11-9.23,4.13,15.72-1.3,14.9.19,1.91,2.54.39,3.1-.6,2.52-3.43,2.61-8.11,3.1-12.1Z"/>
    <path class="cls-1" d="m98.91,117.15c-.1-.3-.6-.3-.7-.1-6.43,5.35-12.77-38.83-5.6-31.3,3.55,5.21,4.16,4.41.8-.5-10.89-11.34-1.69,43.08,5.5,31.9Z"/>
    <path class="cls-1" d="m96.01,106.05c-.43-1.12-.67,1.33-1.8-.2-1.2-2.02-4.44-15.85-1-15.3.57.37,1.39,3.02,2,2.1-6.88-14.84-4.94,21.38.8,13.4Z"/>
    <path class="cls-1" d="m152.21,132.35c-3.67,2.33-7.94-.31-11.9.6-3.26,1.73-6.51.49-9.9.1-3.79.49-8.1-.04-11.5-.4,2.98,1.97,7.06,1.77,10.5,1.5,3.55.04,7,1.97,10.4.2,4.09-1.39,9.48,1.84,12.8-1.7.1-.2-.1-.4-.4-.3Z"/>
    <path class="cls-1" d="m146.01,137.35c-3.5,3.72-8.11,2.52-12.6,2.9-3.2.76-6.09-2.35-8.4-3.2,3.64,5.79,17.49,5.82,21.3.3,0,0-.2-.1-.3,0Z"/>
    <path class="cls-1" d="m145.01,131.15c-2.03-2.38-5.93-1.94-8.7-1.6-3.03-.22-6.18-1.17-8.9.8-.53.9,3.44-1.36,4.4-.7,4.3,1.35,8.77-.11,13,1.6.2.3.3.1.2-.1Z"/>
    <path class="cls-1" d="m134.91,125.35c-.82-.41-1.05,1.17-1.6,1.6-.42.47-.5,1.3.3,1.2.67-.65,1.44-1.84,1.3-2.8Z"/>
    <path class="cls-1" d="m133.91,123.85c-.66-.66-1.56,1.11-2.1,1.5-.55.66-3.17,3.39-.9,2.9.95-1.4,2.44-2.9,3-4.4Z"/>
    <path class="cls-1" d="m131.11,122.95c-2.04,1.93-3.85,4.19-5.4,6.5.58,2.21,2.71-2.02,3.4-2.6.33-.67,3.24-3.82,2-3.9Z"/>
    <path class="cls-1" d="m127.91,123.55c-2.19,1.86-3.91,4.2-5.8,6.3-.55,3.9,6.93-5.82,5.8-6.3Z"/>
    <path class="cls-1" d="m123.41,125.25c-1.72,1.75-3.34,3.48-4.8,5.4-.14,1.77,1.72.14,2.1-.5.52-.86,4.75-4.72,2.7-4.9Z"/>
    <path class="cls-1" d="m119.21,126.85c-1.22,1.17-3.04,2.54-3.6,4.1.75,1.32,1.91-1.08,2.5-1.6.26-.41,2.23-2.66,1.1-2.5Z"/>
    <path class="cls-1" d="m139.71,126.95c-.24-.78-.72-1.36-1.3-1.9-.17-.07-.15-.13-.4-.1h0c-.18-.22-.52.12-.3.3h0q0,.1.1.2c0,.1.1.1.1.2h0v.1c.1.1.1.3.2.4,0,.1.1.1.1.2h0s.1.1.1.2c.1.1.1.2.2.3.15,2.08,2.04,2.47,1.2.1Z"/>
    <path class="cls-1" d="m142.51,127.15c-.76-1.42-1.35-2.96-2.4-4.2-1.66-.79,2.07,8.05,2.4,4.2Z"/>
    <path class="cls-1" d="m145.51,127.85c-.69-1.27-1.6-6.1-3.2-5.6.34,2.1,1.19,5.64,2.6,7.1.68-.03.91-1.07.6-1.5Z"/>
    <path class="cls-1" d="m149.31,129.15c-.95-1.89-1.43-4.07-2.8-5.7h0c-1.94-.94,2.38,9.66,2.8,5.7Z"/>
    <path class="cls-1" d="m152.31,129.95c-.12-1.37-3.21-9.02-2.6-3.6.04,1.2,2.71,8.21,2.6,3.6Z"/>
    <path class="cls-1" d="m154.91,129.25c-.26-.92-.37-1.94-.8-2.8-1.81-1.71-.31,3.49-.1,4.1.69.78,1.27-.58.9-1.3Z"/>
    <path class="cls-1" d="m157.61,129.85v.3c0-.1,0-.3-.1-.4,0,0,0-.1-.1-.1,0,0,0-.1-.1-.1,0-.1-.1-.1-.2-.2l.1.1c-.27-.24-.56-.61-.7-.9l.1.1c-.1-.1-.1-.2-.2-.3v-.1h0c0-.1-.1-.2-.1-.2h0s0-.1-.1-.1c0,.1.1.1,0,0v-.1c-.19-.23-.61-.33-.7.1v.1h0v.1h0c-.16.9.53,2.33,1.6,2.3h0c.34.04.73-.2.5-.6Z"/>
    <path class="cls-1" d="m143.01,119.25c-1.3-1.1-2.9-.3-4,.6-3.51,4.55-7.28-5.04-10.4-.3-2.04-1.63-2.11-4.45-.9-6.6-1.29-.76-2.1,3.61-1.7,4.6-.22,1.45,4.27,6.05,3.7,2.9-.4-.5.5-.8.8-.8,2.19-.01,2.89,2.66,5,2.8,2.6.52,4.27-3.34,6.8-2.2.6.3,1.2-.6.7-1Z"/>
    <path class="cls-1" d="m146.01,117.05c-.13-.76-.6-4.74-1.6-3.7.55,2.38.86,4.79-.4,7,.67,2.63,2.35-2.49,2-3.3Z"/>
    <path class="cls-1" d="m132.01,94.35c-.17-2.03-2.32-6.05-4.1-6,1.24,1.27,2.1,2.57,2.6,4.3-.1.84.76,3.51,1.5,1.7Z"/>
    <path class="cls-1" d="m143.01,88.95c-.62-.75-2.77,3.52-2.8,4.5-.5.86.59,2.53,1.1,1,.14-1.92.28-3.98,1.7-5.5Z"/>
    <path class="cls-1" d="m145.61,80.45c-2.05-1.3-6.95,13.07.1.5.2-.1.1-.4-.1-.5Z"/>
    <path class="cls-1" d="m148.51,80.55c-.65-1.32-3.61,1.94-2.4,2.2.44-.45,2.9-1.65,2.4-2.2Z"/>
    <path class="cls-1" d="m170.21,84.35c-3.68-6.44-13.51-5.88-19.7-3.8,4.62,1.1,12.94-2.09,17.4,2.8.43.42,1.87,2,2.3,1Z"/>
    <path class="cls-1" d="m165.31,85.35c-6.31-2.37-13.95-1.74-20.2.7,2.5.54,7.05-1.53,10.2-1.2,3.19-.54,7.31,1.08,10,.5Z"/>
    <path class="cls-1" d="m129.91,85.95c.37-2.14-.35-5.07-2.4-6.1-1.54-.62-1.57,2.06-.2,1.9,1.61,1.25,1.4,3.53,2.3,5.1.37.29.24-.67.3-.9Z"/>
    <path class="cls-1" d="m125.91,82.95h0v-.3h0v-.4.1c-.15-.89-.89-1.84-1.5-2.5-.98-.78-1.75.65-1.1,1.4h0c.1.1.3.2.4.1h0s.33.31.3.4l.1.1.1.1h0c.28.27.6.76.9,1h.1c-.03.12.18.05.2.2h0c.2.3.5.1.5-.2Z"/>
    <path class="cls-1" d="m120.41,80.25c-6.57-1.77-14.36-2.46-18.6,3.9-.3.4.2.9.6.5,4.34-6.54,13.01-5.18,19.2-3.3-.3-.5-.7-.8-1.2-1.1Z"/>
    <path class="cls-1" d="m127.11,87.05c-6.79-1.01-14.84-5.28-21.3-1.8,5.94-2.66,15.82,2.68,21.3,1.8Z"/>
    <path class="cls-1" d="m165.51,91.95c-4.54-5.39-16.77-4.62-19.9,2-.1.6.7.9,1,.3.9-1.62,2.87-2.69,4.5-3.4-.88,2.63,2.37,5.49,4.9,5.4,2.82-.42,4.8-4.11,3-6.5,2.28.21,4.25,1.86,6.4,2.4.1.1.2-.1.1-.2Zm-8.3-1.7c2.42.87.75,4.26-1.1,4.7-4.95-.77-4.88-5.82.6-5.3,0,.3.2.5.5.6Z"/>
    <path class="cls-1" d="m164.61,93.05c-.1-.79-1.12-.31-1.4.1-3.79,4.95-9.5,2.84-14.5,1.7,5.42,3.54,10.77,3.79,15.8-1.3,0-.1.1-.3.1-.5Z"/>
    <path class="cls-1" d="m153.21,87.65c-3.01-.2-6.33,1.63-8.1,4,2.2-1.52,5.65-2.95,8.1-4Z"/>
    <path class="cls-1" d="m125.51,93.05c-4.92-5.69-13.15-5.54-19-1.3-.55,1.85,5.93-2.15,7.2-1.9-.1.1-.2.2-.2.3-1.51,2.59.56,6.41,3.6,6.4-3.14.2-6.09-1.57-7.8-4.2-.3-.5-1.1,0-.8.5,2.52,5.09,11.07,6.38,14.3,1.7-1.6.58-3.1,1.93-5,2,2-.55,3.3-3.05,3.1-5.1,1.04.22,5.87,5.02,4.6,1.6Zm-6.8-2.5c1.86,1.13-.18,5.33-2.1,4.2-3.75-1.79-2.07-6.93,2.1-4.4,0,.1,0,.2,0,.2Z"/>
    <path class="cls-1" d="m125.51,91.55c-.36-1.09-5.5-4.51-5.8-3,1.99.76,4.02,2.3,5.8,3Z"/>
    <path class="cls-1" d="m99.01,86.65c.74-6.36,1.7-12.61,3.1-18.9-2.92,7.24-4.07,17-3.8,25.3h.1c.4-2.2.3-4.4.6-6.4Z"/>
    <path class="cls-1" d="m93.01,81.25c-1.56-6.47-3.63-14.35-4.4-20.1-.37,7.52,2.9,16.18,5,22.8-.1-.9-.4-1.8-.6-2.7Z"/>
    <path class="cls-1" d="m188.61,74.55c-.93-2.11-2.6-4.01-3.1-6.3.09-.83,1.66-4.8.3-4.3-.45.73-.43,1.79-.7,2.6-1-2.46.68-6.04.2-7.8-1.91,2.66-1.71,6.59-.8,9.6-4.59,13.7-5.44,21.46.6,1.4.58,1.23,2.15,5.26,3.5,4.8Z"/>
    <path class="cls-1" d="m138.41,50.15c-3.25-9.22-14.18-13.92-18.8-21.6,3.42,10.89,20.11,14.63,18.7,27.7,1.33-.67.56-4.52.1-6.1Z"/>
    <path class="cls-1" d="m134.71,38.75c-6.17-4.86-15.76-11.65-11.2-20.4-9.34,15.09,18.74,19.32,16.8,33.5,1.65-4.7-1.96-9.84-5.6-13.1Z"/>
    <path class="cls-1" d="m143.51,42.65c-.79-5.94-6.78-8.49-9.1-13.6-1.39,5.62,13.69,9.31,7.2,23.8,2.26-2.05,2.53-7.02,1.9-10.2Z"/>
    <path class="cls-1" d="m155.91,37.05c1.34-9.51-6.39-18.34-14.8-20.6,17.12,7.25,17.29,23.64,5.5,35.4,4.65-3.55,8.64-8.84,9.3-14.8Z"/>
    <path class="cls-1" d="m159.71,30.75c1.21,7.83-2.9,16.03-10,20.5,7.52-2.64,12.67-12.72,10-20.5Z"/>
    <path class="cls-1" d="m162.51,38.45c-1.24,6.23-4.05,11.16-9.6,14.6,5.83-1.85,10.17-8.58,9.6-14.6Z"/>
    <path class="cls-1" d="m136.31,53.55c-1.09-2.22-4.53-5.74-6.7-6,1.98,2.45,5.36,3.96,6.4,7.1.39.43.44-.85.3-1.1Z"/>
    <path class="cls-1" d="m132.71,54.35c-1.42-.93-2.46-2.29-3.8-3.3-3.03.27,4.22,4.64,3.8,3.3Z"/>
    <path class="cls-1" d="m128.61,53.95c-1.7-.08-4.66-4.07-6-2.9.44.44,6.93,4.83,6,2.9Z"/>
    <path class="cls-1" d="m124.81,53.85c-1.83-.12-2.97-2.39-4.8-2.4-1.18.49,1.84,1.57,2.1,2.1.45.55,2.96,1.1,2.7.3Z"/>
    <path class="cls-1" d="m120.21,53.85c-5.64-4.38-5.72-1.42,0,.3.1.2.2-.2,0-.3Z"/>
    <path class="cls-1" d="m116.41,54.15c-1.21-.17-4.31-2.53-5-1.7-.24,1.13,5.73,2.97,5,1.7Z"/>
    <path class="cls-1" d="m160.21,51.65c-.98,1.01-2.52,1.18-3.5,2-.48.07-.45.37,0,.3.73.64,6.07-2.29,3.5-2.3Z"/>
    <path class="cls-1" d="m164.61,52.25c-.43-1.24-1.97.71-2.8.9,0,.01-.2-.05-.2.1-.43.21-.79.31-1.2.5.1,0-.1,0,0,0-.63.28-.23,1.03.4.9,0,0,.4.03.5-.1,1.12-.4,2.48-1,3.2-2,0,0,.1-.1.1-.3,0,.1,0,0,0,0Z"/>
    <path class="cls-1" d="m168.11,53.85c.01-1.08-1.96.36-2.1.4-.63.34-1.42.38-2,.7-1.45,1.68,4.09.3,4.1-1.1Z"/>
    <path class="cls-1" d="m170.21,55.85c-1.18.18-2.65.63-3.7,1.2l.1-.1c-1.97,1.3,6.02.53,3.6-1.1Z"/>
    <path class="cls-1" d="m175.51,88.35c-.49-9.64-1.72-19.72-5.9-28.5,2.73,11,5.95,23.52,5.4,35.5.74-1.79.43-4.83.5-7Z"/>
    <path class="cls-1" d="m138.41,12.75c-1.99-3.43-16.07.13-15.2,3.3,4-1.82,9.9-4.78,14.1-2.3v.1c-2.14.71-14.41,1.49-13.5,3.7,2.64-2.24,17.89.21,14.6-4.8Z"/>
    <path class="cls-1" d="m148.51,29.45c-1.49-5.12-6.4-12.35-11.7-12.5,9.1,2.49,13.62,20.5,11.7,12.5Z"/>
    <path class="cls-1" d="m179.51,38.15c-.99-3.73-4.21-5.96-7.6-7.3-2.8-11.37-15.36-14.11-25.4-15.7-.58-1.68-1.6-7.47-3.9-6.5,1.77,1.73,2.37,4,2.6,6.4-1.35-.05-3.71-1-4.6-.4,17.05,3.76,38.62,8.75,28.2,31.3,3.34-1.94,4.31-9.44,3.3-13.7,6.6,2.62,8.72,10.92,4.2,16.4,0,.1.1.1.1.1,3.2-2.5,4.2-7.1,3.1-10.6Z"/>
    <path class="cls-1" d="m181.31,43.15c.59-1.41-.69-4.99-.6-1.5.06,3.41-1.61,6.85-4.2,9,2.4-.39,4.44-4.87,4.8-7.5Z"/>
    <path class="cls-1" d="m120.41,17.65c-9.01.8-23.94,10.48-21.3,21.5-4.29-.53-10.47,2.85-11.2,6.7,2.22-3.66,7.39-6.78,11.6-5.2.46.8.84,3.43,1.7,3.2-5.34-10.2,2.84-19.7,12.5-23.1-2.92,2.15-4.52,5.86-4.8,9.4,1.61-1.17,1.61-5.6,3.9-7.2,2.29-1.74,4.53-4.21,7.4-4.7.3-.2.3-.4.2-.6Z"/>
    <path class="cls-1" d="m109.31,48.45c-13.21-8.86-34.23,1.99-32.8,18.3.72,5.28,3.06,6.68,1,.1-1.64-16.52,19.41-25.47,31.8-18.4Z"/>
    <path class="cls-1" d="m99.71,50.25c-4.87-.42-16.05,1.61-17.7,6.8,2.43-2.14,4.74-4.3,8.2-4.5-9,6.11-12.3,20.58-5.9,29.5-3.41-8.82-3.35-22.46,6.5-28.7.68-1.49,8.49-1.53,5.4-2.2.86-.37,3.64.12,3.5-.9Z"/>
    <path class="cls-1" d="m94.91,54.35c-9.83.18-13.12,14.41-7.8,21.5-2.68-9.67-2.72-17.28,7.8-21.5Z"/>
    <path class="cls-1" d="m193.51,70.45c-10.79-5.42,1.33-22.41-11-26,11.33,4.38-.89,22.21,10.9,26.4.1-.1.2-.3.1-.4Z"/>
    <path class="cls-1" d="m128.01,9.95c-8.71-6.73-24.05-9.43-33.6-3.2,9.83-4.51,24.46-1.77,33.6,3.2Z"/>
    <path class="cls-1" d="m126.31,10.35c-5.33-5.12-13.81-4.7-20.6-3.4,10.76-4.46-16.37,3.19-19.2,11.9,3.6-3.49,8.97-8.1,14.7-9.7-2.3,2.13-4.46,4.97-5.9,7.8-4.73,2.22-9.42,8.29-9.3,13,2.23-4.26,3.98-9.22,8.6-11.5-1.74,5.51-4.27,10.92-5.7,16.5,1.32-1.38,1.89-4.95,3.2-6.9-.03,1.78-.38,7.39,1.1,7.6-1.72-8.21,1.85-15.15,9.9-17.8-1.42-1.84-7.98,3.82-9.2,5.7.51-2.04,1.28-3.85,2.2-5.7,5.13-2.52,10.78-4.28,16.6-3.5-3.12-2.95-11.52.14-15.8,2.1,4.86-11.11,20.01-11.03,29.2-5.5.2-.2.3-.4.2-.6Z"/>
    <path class="cls-1" d="m141.41,7.25c-6.3-6.93-20.67-9.52-28.1-5C121.98,0,127.53-.44,131.11,8.95c1.57-.67-2.62-6.47-3.7-7.4,2.07.26,4.06.94,6,1.7.71,2.54.1,5.36.5,7.9,1.2-1.6,1.11-5.23.4-7.4,2.49.84,4.4,2.85,6.7,4,.4-.2.5-.4.4-.5Z"/>
    <path class="cls-19" d="m130.61,104.85c-.5,18.23-34.87,17.31-34.5-.8.52-18.12,34.88-17.42,34.5.8Z"/>
    <path class="cls-17" d="m175.31,105.95c-.5,18.23-34.87,17.31-34.5-.8.49-18.19,34.9-17.38,34.5.8Z"/>
    <path class="cls-1" d="m109.91,143.25c-.82-.95-.88,1.1-.9,1.7-.13,7.7-4.59,14.06-9.5,19.5-.2.4.1.8.5.7,6.98-4.21,10.65-13.96,9.9-21.9Z"/>
    <path class="cls-1" d="m171.91,159.15c-3.72-3.86-6.55-8.56-8.1-13.7-.17-.36-.6-1.4-.9-.9-2.02,2.89,9.47,21.58,9,14.6Z"/>
    <path class="cls-1" d="m146.31,169.65c-4.53,7.25-10.16,4.9-16.5,2.4,3.78,3.41,9.97,6.07,14.5,2.4.89-.68,3.31-4.35,2-4.8Z"/>
    <path class="cls-1" d="m171.91,194.15c-4.49,3.89-8.74,8.13-14,10.9,2.51-4.14,4.66-8.66,7.1-12.8,2.44-1.61,8.29-11.33,2.2-4.6.9-2.4,5.49-9.85,3.7-11.2-9.04,32.79-61.77,33.16-67.5-1.8-2.99-1.72,2.93,11.18,3.2,12.6-2.2-2-4.2-4.1-5.4-6.8-1.82-.07,3.02,6.03,3.9,6.8,4.82,4.27,6.02,11.15,9.9,16.3-4.3-2.9-7.8-6.5-10.9-10.5-2.99.21,7.46,10.43,9.2,11.2,7.98,5.56,12.15,15.55,20.1,21.6.5.4,1.2-.3.7-.7-5.7-5.3-10.8-11.2-15.2-17.6,10.6,5.29,23.96,5.75,34.8.9-3.76,5.92-8.45,11.44-13.9,15.9-4.84-1.6-7.45,6.75-4.9,10.1,6.06,5.79,11.01-4.58,6.4-9.3,6.27-4.85,11-11.42,15.3-18,6.07-3.22,11.76-7.8,15.8-13.1,0,.2-.3-.1-.5.1Zm-31.6,33.3c2.64,2.95-.02,9.94-4.1,6.6-1.87-2.55-.52-6.61,2-8.2-.19.32,0,.9.4.9.3.34.76-.05,1.1-.2.2.2.4.7.6.9Zm14.8-20.9c-16.82,7.89-39.99,5.19-45.6-14.9,14.11,14.66,36.33,14.24,52.4,3-2.12,4.03-4.41,8.05-6.8,11.9Z"/>
    <path class="cls-1" d="m168.11,425.25c-1.94-31.05-.46-62.65-6.4-93.3,1.6,9.99,7.42,167.66,6.4,93.3Z"/>
    <path class="cls-1" d="m113.11,336.15c-1.89,40.87-7.82,91.84-3.8,132-1-44.03,4.79-88.03,3.8-132Z"/>
    <path class="cls-1" d="m111.11,349.15c-.46-5.14-.4-12.81-2.7-16.6.13,3.15,2.48,33.19,2.7,16.6Z"/>
    <path class="cls-1" d="m224.61,370.35c-5.4-39.24-12.23-79.19-7.7-118.9-13.75,46.63,37.9,321.47,7.7,118.9Z"/>
    <path class="cls-1" d="m13.11,440.45c-.4-8.57-.72-17.22-1.6-25.7,0-.62-.47-1.85-1-1-.28,4.04,2.49,49.78,2.6,26.7Z"/>
    <path class="cls-1" d="m5.61,469.55c1.29-7.41,6.88-16.45,7.3-22.6-18.04,33.79-12.06,73.83-5.6,110-.13-24.52-9.76-59.73-1.7-87.4Z"/>
    <path class="cls-1" d="m19.41,494.25c-14.75,26.18,5.53,58.18-9.9,62.3,14.97,1.97,1.89-37.02,6.5-47.3-.3-2.45,5.82-15.72,3.4-15Z"/>
    <path class="cls-1" d="m23.31,540.85c-3.42-10.88-6.68-22.05-4.9-33.5-1.54-1.05-1.66,7.02-1.7,8.3-.43,10.34,4.72,20.06,5.6,29.9-.39,2.06-3.19.2-2.9,2,.5,1.1,2,.9,2.9.4,2.43-1.48,1.82-4.84,1-7.1Z"/>
    <path class="cls-1" d="m40.41,478.05c.4-2.16-2.73-14.09-4.6-12,8.41,14.47-1.42,30.28-1.9,45.4,1,29.3-11.68,25.83-8.1-1.4,1.6-5.41-6.67-45.49-3.4-21.9,1.22,6.7,1.84,13.53,2,20.4,1.34,7.64-3.72,18.53,2.5,24.3,11.08,2.63,7.12-17.09,8.3-23.5.9-10.52,5.74-20.71,5.2-31.3Z"/>
    <path class="cls-1" d="m96.71,477.05c-.76,28.19-6.05,60.73-4.7,86.9,2.72-27.99,4.84-59.51,4.7-86.9Z"/>
    <path class="cls-1" d="m294.81,456.15c-8.96-3.79-24.21-11.02-33-6.5,10.04-.67,19.61,2.66,29,5.9.77.12,4.64,2.21,4,.6Z"/>
    <path class="cls-1" d="m293.91,452.95c-9.7-5.03-22.17-9.98-33-6.2l-.1.1h0c3.03,1.49,9.04-.91,13.1.6,6.27,1.01,12.08,3.17,17.9,5.5.52.22,2.42.89,2.1,0Z"/>
    <path class="cls-1" d="m295.61,446.75c-9.67-4.86-27.19-10.57-34.8-2.4,11.27-5.35,23.57-.74,34.5,3,.4.3.7-.3.3-.6Z"/>
    <path class="cls-1" d="m295.01,443.15c-10.55-5.04-25.5-9.85-35.7-1.8-.17,1.01,1.21.16,1.7,0,8.02-4.05,17.39-3.02,25.6-.2,1.36-.08,9.49,4.53,8.4,2Z"/>
    <path class="cls-1" d="m296.41,466.45c-5.88-5.6-26.62-12.75-32.5-6.7,9.72-2.53,20.22.74,29,5.3.79.19,3.85,3.54,3.5,1.4Z"/>
    <path class="cls-1" d="m295.01,463.15c-5.39-5.33-26.98-12.59-31.6-5.9,10.61-4.38,23.13,2.92,31.6,5.9Z"/>
    <path class="cls-18" d="m301.11,513.05c0,12.42-21.94,11.92-21.3-.5.05-12.4,21.74-11.94,21.3.5Z"/>
    <path class="cls-16" d="m20.81,494.75c-.04,10.62-21.45,10.26-20.8-.5.08-10.62,21.23-10.21,20.8.5Z"/>
    <path class="cls-1" d="m50.21,889.15c-.26-.28-.61-.3-.9-.5-.1,0-.1-.1-.2-.1h0c.1.1,0,0,0,0l-.1-.1s0-.1.1-.1c-2.19-4.18-1.16-9.34-4-13.3.78,4.88.35,10.55,3.1,14.8,0,0,0-.1.1-.1.41.39.93.62,1.5.6.57.01.86-.86.4-1.2.1,0,0,0,0,0Z"/>
    <path class="cls-1" d="m89.61,795.75c-7.78,12.9-15.43,25.71-24,38.1-7.62,13.53-26.61,27.99-19.2,44.9,0-.1,0-.2-.1-.4,1.67,3.15,4.65,6.39,8.5,6.3.3,0,.6-.5.2-.7-21.62-11.81,3.12-35.19,11.2-48.3,7.98-12.45,18.93-27.68,23.4-39.9Z"/>
    <path class="cls-1" d="m139.31,806.95c-1.9,16.28-19.5,23.6-25.7,37.8-7.11,23.79-32.21,41.32-57.1,39.1,13.92,6.44,35.32-6.86,46.6-16.2,7.77-8.11,9.39-19.95,16.1-28.8,7.41-10.06,21.07-17.8,21.3-31.6.2-.8-1.1-1.1-1.2-.3Z"/>
    <path class="cls-1" d="m108.91,820.75c-9.05,12.56-22.31,30.77-6.9,42.7-14.07-17.57,2.14-27.73,6.9-42.7Z"/>
    <path class="cls-1" d="m104.91,813.95c-.7-.5-1.4-1-2.1-1.4,5.31-9.86,3.92-11.34-1.2-.7-4.26-2.22-8.9-4.22-13.8-4-1.48,1.05,1.15,1.56,2,1.6-1.4,1.97-2.57,4.1-3.8,6.2-2.1-.55-3.99,1.27-.9,1.6-1.03,1.91-2.15,3.8-3.2,5.7-3.19-.91-5.24,1.02-.9,1.5-1,1.8-2,3.5-3,5.3-2.64-.8-4.85.87-.9,1.3-1,1.8-2,3.6-3.1,5.4-3.81-.7-6.51,1-.9,1.5-4.06,7.13-10.8,11.89-18.2,15.1,7.01-.15,16.11-8.1,20.1-15,3.68.51,7.54,1.38,11.1,2.4-4.17,9.44.93,24.28,7.8,29.6-4.69-8.77-11.26-18.97-6.4-29.1,6.59,2.67,7.23.56.6-1.6.7-1.6,1.6-3.1,2.4-4.6,4.2,1.95,5.73-.08.7-1.3.96-1.73,1.93-3.38,2.9-5.2,5.4,2.88,6.26,1.03.7-1.4,1.1-2.1,2.3-4.1,3.4-6.2,6.11,3.88,7.03,1.23.8-1.5,1-1.8,1.9-3.6,2.8-5.4,1.29.53,2.44,2.23,3.9,2,.92-.55-.15-1.45-.8-1.8Zm-18.1,25c-3.51-1.17-7.17-1.9-10.9-2.4,1.06-1.73,2.03-3.46,3-5.2,3.51.47,6.93,1.7,10.3,2.9-.9,1.6-1.7,3.1-2.4,4.7Zm4.4-8c-.4.7-.8,1.4-1.2,2.1-3.31-1.28-6.71-2.58-10.3-3,1-1.7,1.9-3.5,2.9-5.2,3.47.66,7.03,1.77,10.3,3.1-.6.9-1.2,1.9-1.7,3Zm2.5-4.5c-3.31-1.41-6.64-2.66-10.2-3.2,1.11-2,2.14-3.81,3.1-5.8,3.62.42,7.18,1.35,10.5,2.9-1.1,1.9-2.3,4-3.4,6.1Zm4.9-8.9c-.2.4-.4.8-.6,1.1-3.4-1.37-6.9-2.39-10.5-2.9,1.07-1.95,2.2-4.19,3-6.2,3.6.55,7.19,1.92,10.4,3.7-.8,1.4-1.6,2.9-2.3,4.3Z"/>
    <path class="cls-1" d="m140.51,792.05c.75-3.14-2.16-5.46-4.4-2.6-1.83,5.62-8.24,9.16-13.7,6-3.21-2.46-7.35-3.73-10.6-.6-2.36-8.25-16.3-9.52-20.5-2.6,6.01-3.36,16.74-5.28,19.2,4-2.81,2.61-1.76,6.1.8,1.4.47.09.67-.44.7-.8,5.87-8.77,15.73,12.64,26-6.4,1.33-1.05,1.13.94,1.2,1.8.41,14.62,2.11,13.68,1.3-.2Z"/>
    <path class="cls-1" d="m142.01,812.35c-.1-.6-1-.7-1,0,1.37,18.41-10.97,18.24-18.8,30.4-5.48,7.89-5.42,18.04-10.2,26.2-12.21,18.18-35.73,26.48-56.9,23.1-10.3-.96,6.85,3.17,9.5,2.4,19.88.41,40.52-9.95,50.4-27.5,2.79-6.69,3.49-14.11,7-20.5,6.5-14.09,22.93-14.47,20-34.1Z"/>
    <path class="cls-1" d="m284.81,926.65c.26-.28.61-.3.9-.5.1,0,.1-.1.2-.1-.1.1,0,0,0,0l.1-.1s0-.1-.1-.1c2.38-4.18,1.25-9.45,4.1-13.4-.74,4.96-.42,10.68-3.2,15,0,0,0-.1-.1-.1-.42.4-.92.7-1.5.6-.63.03-.84-1-.4-1.3h0Z"/>
    <path class="cls-1" d="m244.81,831.65c7.8,13.12,15.81,26.1,24.4,38.7,7.57,13.51,27.28,28.84,19.4,45.6,0-.1,0-.2.1-.4-1.67,3.19-4.75,6.36-8.6,6.4-.3,0-.6-.6-.2-.7,22.01-12.04-3.41-35.75-11.5-49.1-7.88-12.7-19.58-27.93-23.6-40.5Z"/>
    <path class="cls-1" d="m194.31,843.15c1.9,16.57,19.8,23.93,26,38.4,6.96,23.46,30.25,39.87,54.6,40.1,8.34-1.08-.61,1.59-3.1,1.3-15.18.14-29.65-8.75-41-18.2-7.92-8.27-9.66-20.27-16.4-29.3-7.5-10.26-21.28-18.14-21.6-32.1.1-.8,1.4-1.1,1.5-.2Z"/>
    <path class="cls-1" d="m225.21,857.15c9.08,12.94,22.68,30.78,7.1,43.2,13.88-17.15-1.41-28.54-7.1-43.2Z"/>
    <path class="cls-1" d="m227.91,851.85c1.09,1.15,3.08-1.37,4.3-1.8,1,1.8,1.9,3.6,2.9,5.5-6.52,2.94-5.2,5.44.9,1.6,1.1,2.1,2.3,4.2,3.4,6.3-5.73,2.54-4.49,4.19.8,1.4.94,1.71,1.98,3.49,2.9,5.2-5.48,1.45-3.23,3.32.8,1.2.9,1.5,1.7,3.1,2.5,4.7-1.37.77-4.72,1.04-4.7,2.9,1.87.21,3.54-.95,5.3-1.4,4.87,10.4-1.81,20.64-6.5,29.6,6.93-5.58,12.18-20.33,7.9-30,3.69-1.21,7.51-1.93,11.3-2.5,4.08,6.96,13.3,15.05,20.4,15.1-7.48-3.33-14.43-8.17-18.5-15.4,5.68-.4,2.86-2.34-.9-1.5-1.1-1.8-2.1-3.6-3.2-5.4,4.05-.4,1.95-2.39-.9-1.5h0c-1-1.8-2-3.6-3-5.3,4.48-.51,2.29-2.4-.9-1.5-1.06-1.92-2.19-3.86-3.2-5.9,3.2-.4,1.22-2.08-.9-1.6-1.21-2.15-2.52-4.19-3.8-6.3.94-.07,3.47-.5,1.9-1.7-4.83-.14-9.78,1.73-14,4-4.97-10.54-6.83-9.6-1.3.6-1.36.66-3.23,2.39-3.5,3.7Zm17.3,19.1c3.36-1.32,6.87-2.45,10.5-3,1.04,1.75,1.96,3.56,3.1,5.3-3.68.44-7.5,1.17-11,2.4-.8-1.6-1.7-3.2-2.6-4.7Zm-3.7-6.6c3.39-1.39,6.85-2.38,10.4-3.1,1,1.8,1.9,3.5,2.9,5.3-3.66.43-6.96,1.74-10.4,3-1.01-1.71-1.94-3.47-2.9-5.2Zm-4.3-7.8c3.36-1.47,7.05-2.5,10.7-2.9,1.08,2.01,2.15,4.03,3.3,6-3.53.63-7.12,1.77-10.4,3.2-1.3-2.1-2.5-4.2-3.6-6.3Zm-3.8-7.1c3.29-1.72,6.89-3.15,10.6-3.7.92,2.15,1.91,4.3,3.1,6.3-3.7.56-7.2,1.42-10.6,3-.98-1.91-2.19-3.66-3.1-5.6Z"/>
    <path class="cls-1" d="m193.11,827.95c-.75-3.14,2.16-5.46,4.4-2.6,3.22,9.21,11.93,8.23,18.7,3.6,2.2-.6,4.34.49,6.1,1.8,2.26-8.45,16.44-9.64,20.7-2.7-6.01-3.43-16.83-5.41-19.4,3.9,2.81,2.62,1.77,6.09-.8,1.4-.47.09-.67-.44-.7-.8-2.94-4.02-6.52-2.36-9.9.3-5.39,3.16-13.03.77-15.5-5-.41-.79-.76-2.53-2-2.1-.54,4.31-.21,8.84-1.1,13.2-1.57-.81-.22-8.34-.5-11Z"/>
    <path class="cls-1" d="m191.61,848.55c.1-.6,1-.7,1,0-1.38,18.58,11.36,18.68,19.3,31,5.45,8.1,5.62,18.27,10.3,26.6,12.5,18.45,36.25,27.02,57.9,23.5,10.58-.89-7.13,3.34-9.7,2.6-20.16.45-41.3-10.02-51.3-27.9-2.8-6.82-3.52-14.3-7.1-20.8-7.07-14.89-22.92-13.74-20.4-35Z"/>
    <path class="cls-1" d="m195.51,816.95c.07-4.23.29-27.89-3-28,.73,9.42,2.33,18.71,1.7,28.2.37,3.31,3,3.68,1.3-.2Z"/>
    <path class="cls-1" d="m236.31,819.15c-4.53-10.57-.16-23.43-2.7-33.8-1.77,3.94-.43,9.54-.9,14-.71,7.35.41,14.3,2,21.3-1.52,2.02,2.45,2.44,1.6-1.5Z"/>
    <path class="cls-1" d="m224.61,796.65c-2.12-.09-4.04.53-6.1.7-.08-9.76-2.01-9.17-1,.2-.1,0-.3,0-.4.1-2.63.29-5.26.68-8,.8-.63-10.82-2.21-9.51-1,0-2.35.17-4.76.33-7.1.1-.46-9.66-2.49-10.48-1-.2-6-2.32-4.69.21.1,1.1-.06,4.12,2.22,5.58,1.2.3,2.37.35,4.73.22,7.1.1-.1,4.18,1.75,4.56,1.1,0,2.8-.2,5.5-.5,8.3-.8.03.88.03,4.4,1.5,3.6-.15-1.19-.45-2.37-.5-3.6,2.06-.35,4.27-.38,6.2-1.2.3-.6,0-1.2-.4-1.2Z"/>
    <path class="cls-1" d="m137.21,798.65c-7.96,11.25-18.91.73-22.4,14.1-.1.3.3.5.5.2,2.68-9.34,9.89-5.09,16.6-8.1-1.89,2.64-4.82,18.02-1,18.4.22-6.43-.76-13.76,3.3-19.6,1.66-1.07,4.18-2.65,4.2-4.9,0-.5-.9-.6-1.2-.1Z"/>
    <path class="cls-1" d="m218.21,844.55c-5.16-12.22-6.76.12-19.2-6.8-1-.7-2-1.1-2.2-.1-.1.2.2.4.4.3,8.74,4.99,9.99,14.85,9.7,23.9.2.5.8.4.9,0,1.02-7.33.57-15.77-5.2-21.1,7.5,2.55,11.08-5.13,14.3,3.3,3.02,6.34,6.53,10.07,1.3.5Z"/>
    <path class="cls-15" d="m23.61,543.45c-5.15-15.02-11.29-35.16,1.1-48.2-.2-1.3-.3-2.6-.5-3.9-9.11.48-10.67,29.54-8.7,36.7-1.53,1.92-.63,5.81.9,8,.1,3.3.4,6.5.9,9.8-.5.89-.53,1.95-.1,2.8h1.7c.1-.1.3-.1.5,0,.27-.12.74-.14,1-.4v-.1c1.32-.59,2.91-1,3.7-2.5h0c.02-.67-.06-1.33-.3-1.9-.2-.1-.2-.2-.2-.3Z"/>
    <path class="cls-15" d="m126.81,218.65c-14.23-15.3-32.32-49.79-17.4-68.3-26.39.95-2.44,74.31-2.5,92.6,4.12,37.87,3.32,76.27,3.2,114.3-3.23,73.53-1.22,149.31-9.2,221.8-13.11,2.69-26.78-.01-39.7-2.7.2,1.2.4,2.5.6,3.7,15.51,5.51,32.15,5.14,47.9,2.3.1-.09.28-.31.5-.3,7.44-52.9,3.63-108.5,7.1-162.1-3.7-1.01-1.49-6.11-1.9-8.9.72-2.39-1.49-9.31,2.5-7,1.6-67.16,4.76-135.58-9-201.6l.1-.1.1-.1h-.1c.09-.17.27-.07.4-.1.12,0,.44-.01.5.1.49-.07,1.28.71,1.6,0,.53.41.92,1.31,1.7,1.1,0,0,0,.1.1.1.4.7.8,1.3,1.2,2,.1-.1.3-.1.4-.1-.03,2.06,17.78,23.04,11.9,13.3Zm-18.2-19.1c-.1.1-.2.1-.4.2-.1-.4-.2-.9-.3-1.3.3.3.6.7.8,1.1,0-.1-.1-.1-.1,0Z"/>
    <path class="cls-15" d="m100.41,298.35c-6.17-25.17-19.3-48.34-24.4-73.6-1.49,1.39-2.16,3.67-1.8,5.7l-.1-.7c6.17,23.12,17.3,44.7,24.2,67.7,3.07,6.84,2.93,15.95,7.4,21.7-2-7-3.5-14-5.3-20.8Z"/>
    <path class="cls-15" d="m89.21,205.45c-4.42-3.36-12.86-1.74-16.8-6.7-1.61,5.7,11.07,7.38,14.9,9.3.7-.9,1.3-1.7,1.9-2.6Z"/>
    <path class="cls-15" d="m199.71,232.65c1.51-4.04.09-8.24-3.5-10.6-9.03,31.54-24.88,61.52-30.2,94.3.1-.1.3-.2.4-.4-1.5,6.57-1.8,13.47-2.5,20.2.3.1.6.1.9.1,3.66-36.79,18.81-70.79,34.9-103.6Z"/>
    <path class="cls-15" d="m191.61,203.25c3.89-1.36,10.41-2.28,8.5-7.9-1.8.3-3.6.5-5.4.6.1.3.2.6.2.9-3.88,1.63-8.52,1.33-12,3.7,1.1,1.5,2.2,3,3.2,4.5,1.9-.6,3.7-1.2,5.5-1.8Z"/>
    <path class="cls-15" d="m140.61,495.25c-1.1-1.12-1.95-2.46-2.4-4-7.78-1.77-5.62,9.32-6.5,14-1.15,32.96-23.95,112.52-11.9,140.5,9.46,1.78,6.04,25.51,8.5,33.8.49,6.79,9.58,6.74,10.1-.1h0c-.58-10.83-.86-21.55-.1-32.3.07-6-3.84-10.89-4.3-16.8h0c-.15-.66-.25-1.27-.6-1.9.25-.5-.11-1.33,0-1.9v-.1h0c0-.14-.03-.27.1-.4,0-.03,0-.22,0-.2.02-.14-.06-.46.1-.5.07-.33-.14-.98.1-1.2.17-1.29-.45-3.04.4-4.1-1.48-34.2.86-68.89,4.1-102.8h-.4c.61-6.49,1.3-12.99,1.4-19.5.2-.1.4-.3.7-.5.3-.7.6-1.3.7-2Z"/>
    <path class="cls-15" d="m195.81,177.65c-.2-.2-.3-.3-.5-.5.4,1,.8,2,1.1,3.1,1.08-.73.12-2.01-.6-2.6Z"/>
    <path class="cls-15" d="m185.41,161.75c-1.38-2.48-4.81-4.19-4.5-7.3-.47-.22-1.07.15-1.5.3-1.58-3.63-6.83-6.53-10.5-8.2l-.1-.1c-1.58-.32-3.38.04-4.8-.8-.1,0-.1-.1-.2-.2-.1,0-.2-.1-.3-.1v.1-.1c-.45-.56-.47-1.47-.5-2.2h0c-.3-.4-.7-.7-1.1-.9-3.4,5.83-8.67,10.17-13.1,14.8-2.53,1.07-4.96,2.37-7.8,2.7,5.73,10.51,21.37,6.73,31.4,7.1.1-.3.3-.6.5-.8-.46-.5.04-1.09.4-1.6h0c.1-.1.2-.3.2-.4,2.45-3.73,8.17-4.44,11.8-2.1.1-.1.1-.2.1-.2Z"/>
    <path class="cls-15" d="m198.11,157.15c-.1.1-.2.1-.2.2-.34-.41-.74-.61-1.3-.3-.64-.21-1.67-.72-1.9.3-3.48-1.41-7.29-.6-10.8-1.6h0c0,.1-.1.1-.1.1.07-.03-.51.11-.4-.2h0c0,.2.1.3.1.4h0c-.78-.57-1.83.16-1.1,1,.1,0,.1.1.2.1,0,.1.1.2.2.2,0,.1.1.2.2.2l.1.1v.1c.9.96,1.37,2.38,2.5,3.1.31.82.49,1.73,1.3,2.2,3.74-.4,12.18-.7,11.2-5.9Z"/>
    <path class="cls-15" d="m183.91,90.95c0-.39-.35-.77-.5-1.1v-.1c-.84-1.45-3.13-1.24-3.4.5-1.55.42-.69,3.73.5,2.2,2.25.52.24,7.67-.5,9.7l-.1-.1h0c-.14-.14-.26-.26-.4-.4h0c-.08-.12-.05-.23-.2-.3,0,0-.1-.2,0,0-2.2-1.92-2.1,3.91-1.7,5.1,4.17,2.15,6.75-12.53,6.3-15.5Z"/>
    <path class="cls-15" d="m186.31,92.05c-.35-2.46.05-6.17-2.7-7.2,0,0,0,.1.1.1,2.3,7.24.32,27.27-8.7,28.6-1.13-.24-1.82.92-1.4,1.9,9.54,4.14,12.96-16.87,12.7-23.4Z"/>
    <g>
      <path class="cls-15" d="m161.81,53.05q.1,0,0,0c.2.1.1,0,0,0Z"/>
      <path class="cls-15" d="m176.91,83.25c-.43-6.07-1.58-12.18-3.3-18h0c-.72-2.48-1.16-5.58-3.4-7.1,1.94-.15,2.36-3.38.1-2.1-.78.28-1.45.86-2.3.8.17.06-.74-.1-.9-.1-.24-.19-.38-.44-.5-.7,3.66-1.43,3.18-5.1-.7-2.1h0c-.39.25-.56.12-.8.3h-.1c-.09.01-.13-.04-.21-.1-.03-.02-.17-.09,0,0-.12-.08-.23-.05-.3-.2h0l-.1-.1h0l.1-.1v-.1c2.13-1.13.5-3.48-1.1-1.4,0,0-.1,0-.1.1-.44.33-1.24,1.06-1.7.6l-.1-.1v-.2s0-.17,0-.2h0c1.02-.6.21-1.75-.3-2-.92-.17-1.41.78-2,1.3h-.5c.59-1.69,2.87-3.23,3.3-5.5.53-1.68.56-5.24-.8-1.5-2.56,2.26-3.95,6.62-7.8,7.5,0-.01-.2.05-.2-.1,0,0-.1,0-.1-.1h0c-.07-.13-.13-.24-.1-.4h0c-.02-.1.12-.04.1-.2h0c11.53-5.43,7.58-22.92,6.8-13.9-1.55,5.8-5.05,11.46-10.5,14,8.56-6.02,11.69-18.06,5.3-26.8-3.39-6.31-14.63-8.58-5.2-2.9,9.3,9.01,6.07,26.97-6.2,31.5,3.64-5.55,3.07-14.24-2.3-18.5,0-.6-.7-1.2-1.2-1.5-2.02-1.22-3.03-3.43-4.3-5.2.21-1.19-1.59-2.04-1.7-.6.29,2.05.71,5.05,3,5.4.6.7,1.3,1.2,2,1.8.72,2.29,3.22,3.93,3.8,6.3,0,.1.1.1.1.1,1.83,2.63-2.28,13.32.3,12.3-.11.27-.15.55-.3.8.12.08.23.05.3.2,1.47.61,3.08.51,4.6,0,1.36.41,2.84.66,4.1-.2.04-.18.36-.07.5-.1,1.43,1.1,3.44-.11,4.9.7,1.12.28,2.58.55,3.6-.2h.2c.1.1.2.1.3.1.34.56,1.13,1.15,1.8,1,.55-.14.99.39,1.5.4.04.45.33.93.7,1.2v.1c.15.02.07.26.3.2.93.91,2.15,1.16,3.3,1.6h0c.1.1.2.1.3.2.04.53-.11,1.14.4,1.5-.01.27.32.51.1.8,4.61,9.72,5.55,20.72,5.5,31.4-.8.3-.4,1.8.5,1.7,2.45-1.13,1.16-9.07,1.3-11.6Z"/>
    </g>
    <path class="cls-15" d="m187.71,50.35c-.38-3.12-3.6-6.28-6.8-6.1.23-1.28.8-3.2-.3-4.3h-.1c0-.1-.1-.2-.1-.2h0c-.19-.46-1.09-.42-1.1.2-.47-2.32-1.84-7.34-5.1-6.9-.22-.43-.54-.79-.7-1.2-2.23-3.39-.23,8.25-1.8,9.6h0c1.47-7.02-.66-16.17-7.1-20,4.6,6.97,10.06,18.58,1.6,26.5,0,0,0,.1-.1.1-6.69,7.15,9.85-.41,8.5-11.7,3.86,2.49,4.26,8.33,1.5,11.8-.1,0-.1.1-.1.2h0c-.14.15-.31.33-.4.6-9.42,8,2.54,5.75,4.7-3.1l.1.1h0c5.53-.27,6.93,8.81,7.3,4.4Z"/>
    <path class="cls-15" d="m142.61,12.85c.02.58-.43,1.13-.3,1.7h0c.1,0,.2,0,.3.1.7,0,1.3.1,2,.4v-.1c.85-.65.77-2.31-.2-2.7,1.04-4.75-18.92-14.3-16.9-9.9h0c.2.2.5.3.8.4-.12.45.34,1.03.7.6,5.09,1.34,11.37,4.61,13.6,9.5Z"/>
    <path class="cls-15" d="m300.71,502.15s0-.1,0,0v-.7c.78-1.24.43-4.6-.9-5.3,0-.8-.1-1.6-.1-2.5.98-.83-.21-2.66-.2-3.8-.4-2.39-.52-5.59-2-7.4-1.96-6.82-2.13-14.59-5.8-20.9v-.3h0c.24-3.43,1.34-7.42.2-10.6.2-1,.3-2,.4-3.1,1.19-.55,2.23-16.01.7-16.6.07-3.04,2.36-7.2,1-9.9h0c-.1-.7-1.1-1.1-1.4-.4-.1,0-.2,0-.4.1-.07-.69,0-1.74-1-1.6-.3-.53-.12-1.43-.6-1.8-2.27-2.33-1.39,3.5-1.6,4.7,0,12.75-2.53,25.56-1.5,38.3,6.12,20.36,12.18,37.64,5.3,57.4v.4c-.57.31-.2,1.07-.3,1.6-.74,3.83-.43,8.7-.2,12.7v.1c-1.55.82-.28,4.92-1.8,6.7-1.82,5.25-4.04,10.64-6.3,15.6v.1h0c-.91.69-.42,2.99.9,2,.1,0,.1-.1.2-.1l.1-.1c2.34,2.12,7.02-14.24,8.5-16.1h0c1.17-1.53,2.28-3.48,1.9-5.4l.1-.3c.2-.1.4-.2.4-.4.1-.1.2-.2.3-.3q0-.1.1-.2h0c.31-1.09,1.4-2.42.6-3.4,0-.2-.1-.3-.2-.4.04-.38.21-.73,0-1.1,1.13-2.8.49-6.59,1.1-9.7.17-.98,1.07-5.19-.9-4.3l.3-.6c.77.57,1.16-.34,1.3-1,.56-.26.44-1.08.6-1.6,1.61-.92.32-2.84.6-4.3,1.63-1.14.39-3.53.6-5.5Z"/>
    <path class="cls-15" d="m280.91,524.85c.17-.56.76-1.25.1-1.7-.31-.15-1.06-.62-1.1.1-2.45,6.78-8.76,12.2-13.4,17.8-1.04.16-2.26,2.54-.7,2.7,0,.1.1.2.2.2,2.71,1.67,9.54-10.16,11.8-12.3,1.56.32,2.86-4.25,3.7-5.6h0c0-.1.1-.1.1-.2.4-.6-.2-1-.7-1Z"/>
    <path class="cls-15" d="m297.81,398.15c1.1-.4.6-2.1-.5-1.7h0c-.2-.4-.6-.6-1-.5-.17-.54-.67-.99-1.3-.9v-1.6h0c.2.3.5.5.9.4-.34,2,2.38,2.34,2,.2.54-11.49-1.03-24.02-1.7-35.7h0c.04-.6-.43-.92-1-.8v-.4c2.77-.29-1.21-10.75-1-13.3-.76-6.38-1.51-13.8-5.8-19.1-.25-1.12-.4-2.92-1.9-2.7,6.26-7.37-10.59-14.32-1.1-21.7,1.29-.14,1.03-1.9.3-2.6-2.97-2.47-5.35,2.19-6.7,4.3-1.38,3.11-5.12,6.28-4.6,9.7-.1,0-.1.1-.2.1,21.18,19.04,13.64,53.77,18.4,79.1.04.26.09.47.2.7-.5-.1-1.1.2-1,.9.2,7.9.4,15.8-.7,23.7-.1.5.2,1.1.7,1.2.63,1.6,3.32,1.89,4.2,3.6,1.37,1.17,1.97-1.07,1.1-2,.4,0,.8-.3.8-.9-.33-6.56.74-13.27,0-19.8-.3-.1-.2-.1-.1-.2Z"/>
    <path class="cls-15" d="m71.01,291.65c-.11-.66.29-1.76-.3-2.2-.03-.43-.16-.98-.6-1.1.04-.26-.1-.49.1-.7.2-2.7.1-5.4-.3-8.1h0v-.2h0c-.62-2.92.38-6.95-1.2-9.3-.29-8.85-8.65-20.95-13.8-28.4,1.59,15.25,18.12,75.76-5,78.9-.6,9.02,2.67,18.68.1,27.9-.16,7.33-9.48,36.39-3.8,39.1-2.69,22.59-8.05,45.32-7.5,68.1,1.25,5.89,5.88,29.43-2.1,11h0l-.1-.1h0c-.54-.4-.67.36-.6.7,1.97,4.64,2.82,10.12,1.7,15.1h0c-2.1,10.35-7.12,21.29-5.8,32.4.91,6.57-.39,12.74-4,18.1,12.17-.67,4.76-21.44,8.2-29.5h0c1.83-7.01,3.73-13.9,5.1-21,.36.15.76-.15.7-.6,0,1.39-.54,3.25.4,4.4-1.27,5.44-2.42,10.71-2.6,16.5-.4,3.17-2.68,6.39-1.7,9.6.33,4.52-3.22,9.24-1.9,13.3-1.29,7.23-2.96,14.88-4.1,22h0c-.13,1.1-1.64,2.78-.5,3.6l-.2,1.5c-2.37,1.14-.19,7.17,2.1,7.1.96.68,2.22,3.07,3.4,1.9.2.2.5.4.8.5.1-.9.3-1.9.5-2.8h-.1c10.99-88.94,23.95-179.39,33.1-267.7Zm-25.5,124.1c.1-.1.2-.2.3-.4h0c.47.7,1.36.84,2,1.2-.2.2-.4.5-.5.8-.8-.2-1.5-.4-2.3-.7.2-.3.4-.6.5-.9Zm-.3,42.8c-.83,6.14-2.65,12.11-2.2,18.3-.9.61-.86,1.97-1.2,2.9.03-1.17-.12-2.43-.5-3.5,1.35-10.12,2.82-20.75,4.4-31-.05.37.13.66.4.9.81,3.9-2.44,8.76-.9,12.4Zm2.9-27.8c-.41,2.87-.79,5.77-1.4,8.7-.1,0-.1.1-.1.1.01-.59.29-1.4-.1-1.9.01-.36-.03-.76-.3-.9.35-3.81.86-7.6,1.5-11.4.3,0,.5-.2.7-.5,0-.1.1-.2.1-.2h0c.2-.4.3-.7.4-1.1h.1c-.42,2.39-1.04,4.84-.9,7.2Zm4.9-22.7c-.1.6-.3,1.2-.4,1.8-1.12.99-.57,2.93-1,4.3-.54.47-.82,1.27-.7,1.9-.2.5-.4,1-.6,1.5-.1,0-.2,0-.3.1.58-3.97,2.02-8.12,2.8-12.2.3.1.7,0,.9-.3-.3.9-.5,1.9-.7,2.9Zm9.7-62.3c-.36,4.6-.9,9.19-1.1,13.8h0c-1.9,12.2-3.4,24.5-5,36.7-.2,0-.4,0-.5.1.02-.69-.16-1.53-.5-2.1,1.81-1.28.47-4.53,1.5-6.5,1.16-2.43,1.98-6.38,1.4-9,.39-1.89,2.93-13.98,1.5-14.8.35-1.94,3.03-9.21.8-10.1.29-1.71.31-3.61.5-5.4.75-.43,1.69-6.02.5-6.3.73.22,1.04-.82,1.2-1.4.1,0,.1-.1.2-.1-.2,1.7-.4,3.4-.5,5.1Zm3.8-27.9c-.6,3.5-1.2,7.1-1.8,10.6-.06-.5.13-1.05-.1-1.5.37-.86-.4-1.39-.7-.4-.2,0-.3.1-.4.2.09-1.45,1.14-2.89.8-4.3,1.06-3.03,1.99-6.07,3-9.1-.3,1.5-.6,3-.8,4.5Z"/>
    <path class="cls-15" d="m279.91,916.15c.28,5.07-.4,10.3-.8,15.3,2.82-.57,5.98-1.67,7.4-4.3,15.05-34.34-31.99-65.09-42.4-97.5-1.45-5.13-10.46-1.62-9-8.5h0c-1.52-12-2.83-24.28-1.3-36.3,4-2.56,6.13-7.69,4.3-12.2-.06-1.14.08-2.25.4-3.3,1.3-2.36-1.13-4.9-3.5-3.9-.66-28.42.9-56.9.5-85.3,1.17-4.88,2.03-24.19-1.7-27.4-.79-5.76,4.32-11.1,2.1-16.1,2.11-3.26,3.11-21.89.4-24.6,1.75-15.4.59-30.57,1.2-45.8,2.66-1.41,5.51-2.61,8.1-4.1,2.87.41,4.27-2.83,3.3-5.2-3.03-26.07-4.41-52.53-9.7-78.4-4.87-37.84-11.33-75.9-17.2-113.7.96-5.07-.49-10.94-1.2-16.1-.56-2.13.68-5.21-1.6-6.4-1.64-29.13-6.79-58.36-3-87.6.69-.9.51-2.42,1.1-3.4.24,1.99.71,3.82,1.1,5.8.45,5.63,3.18,11.22,5.7,16.3-.4.2-.7.5-.5,1,2.41,5.3,3.17,10.89,4.4,16.5-1.34,1.93.57,5.12.3,7.4-1.95,5.23.69,12.94,1.6,18.7.31,6.01,4.31,11.45,8,16-.45,1,.54,2.14,1.5,2.4,2.63,3.88.67,8.73,1.3,13.1h0c3.08,4.83-1.06-12.58,8.2-20.3.79-4.03-4.64,2.43-5.5,3.1,0-.4-.1-.8-.2-1.2.23-1.25,8-13.4,3.5-10.6-1.63,1.68-2.62,5.82-4.8,6.4-1.7-1.43,5.13-14.66.5-11.3-.57,1.75-1.15,3.55-1.7,5.3-.09-.04-.3.09-.4.1-8.7-8.1-5.14-25.04-8.3-36.2-5.64-13.68-9.62-20.91-8.4-36.4-12.46-15.63-11.97,41.54-11.7,47.2,1.5,66.87,8.71,133.67,13,200.4,6.2,40.16,4.78,81.22-46.8,80.5,8.44,2.16,16.89-2.13,25.2-1.1.52,6.33,16.09-4.44,19.8,8.5,3.27,8.72,1.84,18.18,2,27.3-.44,13.89.39,28.34-4.5,41.6-3.51,6.46,2.89,13.51,3.2,20.3,5.58,32.37.86,65.5.4,98.1h0s0-.1.1-.1c.2-.4.8-.2.9.2,0-.1.1-.1.1-.1.2-.99,1.82-.53,1,.3h0c-.79,2.13,1.89,17.79-1,17,0,0,0-.1-.1-.1-.3.4-.7.7-1.2.9.1.4.2.7.5,1,.8-.2,1.6-.5,2.4-.8-1.2,12.77,1.09,25.56,1.5,38.2,1.69-1.24,3.66-2.26,5.7-2.4,8.39,29.64,44.88,62.38,45.8,91.8Zm-49.6-147.5v-.7c.5.1,1,.1,1.5-.1-.5.3-1,.6-1.5.8Z"/>
    <path class="cls-15" d="m140.81,811.45c-2.36-6.19,1.67-18.74-3.3-22.6-1.16,2.94-5.09,4.36-4.9,7.9-1.79,13.19-4.34,25.68-2.7,39.1,2.1-2.27,5.07-3.34,7.1-5.6,0-.2-.1-.3-.1-.5,4.08-4.74,5.29-12.23,3.9-18.3Z"/>
  </g>
</svg>