<?xml version="1.0" encoding="UTF-8"?>
<svg id="Ebene_1" data-name="Ebene 1" xmlns="http://www.w3.org/2000/svg" xmlns:xlink="http://www.w3.org/1999/xlink" viewBox="0 0 204.58 220">
  <defs>
    <style>
      .cls-1 {
        fill: none;
      }

      .cls-2 {
        clip-path: url(#clippath);
      }

      .cls-3 {
        fill: #010101;
      }

      .cls-4 {
        fill: #ea571f;
      }

      .cls-5 {
        fill: #fff;
      }

      .cls-6 {
        fill: #efefef;
      }

      .cls-7 {
        fill: #e5bdae;
      }

      .cls-8 {
        fill: #aa7157;
      }

      .cls-9 {
        fill: #bfa576;
      }

      .cls-10 {
        fill: #d3a090;
      }

      .cls-11 {
        fill: #70b581;
      }

      .cls-12 {
        fill: #546264;
      }

      .cls-13 {
        fill: #9c593e;
      }

      .cls-14 {
        fill: #2b4c51;
      }

      .cls-15 {
        opacity: .33;
      }

      .cls-16 {
        fill: url(#Unbenannter_Verlauf_2);
      }

      .cls-16, .cls-17, .cls-18 {
        isolation: isolate;
        opacity: .2;
      }

      .cls-17 {
        fill: url(#Unbenannter_Verlauf_3);
      }

      .cls-18 {
        fill: url(#Unbenannter_Verlauf);
      }
    </style>
    <clipPath id="clippath">
      <rect class="cls-1" width="204.58" height="220"/>
    </clipPath>
    <radialGradient id="Unbenannter_Verlauf" data-name="Unbenannter Verlauf" cx="-153.41" cy="452.82" fx="-153.41" fy="452.82" r=".99" gradientTransform="translate(747.03 1785.07) rotate(4.94) scale(5.32 -3.75)" gradientUnits="userSpaceOnUse">
      <stop offset="0" stop-color="#ba695c"/>
      <stop offset=".14" stop-color="#b8685b" stop-opacity=".98"/>
      <stop offset=".28" stop-color="#b4685a" stop-opacity=".91"/>
      <stop offset=".43" stop-color="#ae6758" stop-opacity=".8"/>
      <stop offset=".57" stop-color="#a56756" stop-opacity=".64"/>
      <stop offset=".72" stop-color="#9a6653" stop-opacity=".44"/>
      <stop offset=".87" stop-color="#8c644f" stop-opacity=".19"/>
      <stop offset=".97" stop-color="#82644c" stop-opacity="0"/>
    </radialGradient>
    <radialGradient id="Unbenannter_Verlauf_2" data-name="Unbenannter Verlauf 2" cx="-180.46" cy="368.79" fx="-180.46" fy="368.79" r=".99" gradientTransform="translate(1590.95 561.43) rotate(-13.89) scale(7.88 -2.15)" gradientUnits="userSpaceOnUse">
      <stop offset="0" stop-color="#ba695c"/>
      <stop offset=".14" stop-color="#b8685b" stop-opacity=".98"/>
      <stop offset=".28" stop-color="#b4685a" stop-opacity=".91"/>
      <stop offset=".43" stop-color="#ae6758" stop-opacity=".8"/>
      <stop offset=".57" stop-color="#a56756" stop-opacity=".64"/>
      <stop offset=".72" stop-color="#9a6653" stop-opacity=".44"/>
      <stop offset=".87" stop-color="#8c644f" stop-opacity=".19"/>
      <stop offset=".97" stop-color="#82644c" stop-opacity="0"/>
    </radialGradient>
    <radialGradient id="Unbenannter_Verlauf_3" data-name="Unbenannter Verlauf 3" cx="-171.69" cy="328.51" fx="-171.69" fy="328.51" r=".98" gradientTransform="translate(998.52 479.36) rotate(-13.89) scale(4.92 -1.72)" gradientUnits="userSpaceOnUse">
      <stop offset="0" stop-color="#ba695c"/>
      <stop offset=".14" stop-color="#b8685b" stop-opacity=".98"/>
      <stop offset=".28" stop-color="#b4685a" stop-opacity=".91"/>
      <stop offset=".43" stop-color="#ae6758" stop-opacity=".8"/>
      <stop offset=".57" stop-color="#a56756" stop-opacity=".64"/>
      <stop offset=".72" stop-color="#9a6653" stop-opacity=".44"/>
      <stop offset=".87" stop-color="#8c644f" stop-opacity=".19"/>
      <stop offset=".97" stop-color="#82644c" stop-opacity="0"/>
    </radialGradient>
  </defs>
  <g class="cls-2">
    <g>
      <path class="cls-7" d="m167.56,170.79c-.14-.24-.21-.59-.51-.74-.42-.79-.36-1.83-.82-2.56.1-2.26-2.16-.1-3.17.17-1.44,1.92,1.07,3.42-2.65,5.16-3.88,1.41-8.58,2.75-12.91,2.9-2.2-1.15.32,4.49.18,5,3.32,1.57,10.24-.37,13.1-2.65.18-.85,0-2,.01-2.88,2.01-.58,6.96-2.12,6.76-4.41h0s0,0,0,0Z"/>
      <path class="cls-12" d="m165.49,163.03c.31-.64.1-1.51-.18-2.13,0-.94.29-2.29-.92-2.62-.45-1.65-.88-4.2-1.12-5.9-.3-.82-.86-7.47-1.87-7.82-.22-3.81.71-8.75-1.36-12.17-2.04-3.19-4.91-6.85-8.78-7.61-.78-.33-1.65-.94-2.5-1.05-.81-.33-1.76-.9-2.62-.93-.9-.48-2.83-1.37-3.8-1.54-.94-.49-1.9-1.14-2.99-1.12-2.94-2.18-5.54,1.32-2.95,3.56.3.13,2.41,1.58,2.68,1.62,3.3,5.77,6.7,11.38,9.57,17.37-1.04.47-2.17.96-3.19,1.53-.72-1.26-3.07-.95-3.29.73-2.73.85-3.18,3.21-.53,4.57-1.93,1.78,2.09,14.19,2.07,17.65-3.01,7.29,12.93.41,16.06-.02.93-.32,3.01-1.03,3.91-1.37,1.43.04,3.05-1.44,1.8-2.74h0s0,0,0,0Zm-3.86-1.47c-.1.02-.22-.05-.25-.15-.69.08-.23-1.14-.38-1.57-.19-.22,0-.75.32-.51.68-.45.61,2.03.31,2.23h0Z"/>
      <g>
        <path class="cls-14" d="m145.16,167.76s.08.04.12.05l-.12-.05Z"/>
        <path class="cls-14" d="m166.18,164.85c-.35-1.88-.94-3.82-.87-5.74.16-.79-.97-.94-1.28-.31-.06.03-.11.06-.16.08-.46.19-1.45.6-2.11.77.08.42.04.85.04,1.27.03.02.06.04.09.06.05.53.19,1.3.27,1.83-.42.13-.66.55-1.01.79-4.75,2.65-10.25,4.04-15.67,4.37-1.5-.97-2.95-.18-1.82,1.59-.07,1.95.65,5.04,1.97,6.14,5.12.29,10.97-1.25,15.53-3.52l-.02-.03c.35-.09.76-.34.97-.67.89-.04.71-1.1.67-1.73l.02.14-.04-.29c.24-.39.25-.95.15-1.45,1.05-.78,3.6-1.73,3.29-3.3h0s0,0,0,0Z"/>
      </g>
      <path class="cls-12" d="m161.89,161.72c-.14-.77.32-4.82-1.28-2.94-.54.03-.58,3.74.2,3.51.41.51,1.26.05,1.08-.57h0s0,0,0,0Z"/>
      <path class="cls-6" d="m170.92,179.48c-1.51-2.32-2.18-5.36-3.28-7.86l.07-.17h-.02c-.38-1.91-2.42,1.61-3.48,1.65-.79.93-4.81,1.07-3.43,2.59,0,.39.11,1.61.13,2.01-.09.12-.17.23-.24.35-.7-.3-1.41.83-2.16.9-2.97,1.57-6.63,1.48-9.85,1.67-.36-.48-1.14-.07-1.01.52,1.05,3.19.33,6.6.95,9.82,1.33,7.36,3.17,7.36,9.32,3.74.16,0,.31-.11.44-.19-.1.07.04-.02.08,0,.89.3,1.07-.97,1.68-1.35.51-.51,1.22-.75,1.85-1.05.89.13.85-.74.35-1.21.1,0,.19-.02.29-.05,2.05.04,3.16-2.12,4.27-3.53.68-.28.81-1.34,1.54-1.69.47-1.13.68-2.39,1.66-3.31,1.03-.93,2.08-1.49.83-2.85h0s0,0,0,0Z"/>
      <path class="cls-8" d="m169.78,208.71c-.87-.96-10.13-11.29-10.42-8.88-3.11,1.28-7.05,2.76-9.95.42-.72-1.81-3.71-5.01-5.44-2.87-.6,1.42-2.47,4.95.24,5.14.24.37,1.73.82,2.11,1.01.4.03,4.15,2.01,4.45,1.44,2.87,1.22,7.82,2.94,10.67,3.95,1.47.47,3.66,1.29,5.18,1.55.38.12,1.42.47,1.78.59.59,2.41,2.71-1.11,1.37-2.34h0s0,0,0,0Zm13.49-15.24c-1.27-.36-4.05-1.58-5.3-1.74-1.71-1.08-3.94-1.15-5.61-2.19-.29-.22-.61-.07-.79.18-.54.31-.93.83-1.02,1.46-.32.33-1.63,1.4-1.86,1.8-1.42.92-2.55.87-.83,2.51-.14.3,1.14,1.72,1.24,1.96.28.62.84.85,1.5.78,3.5.16,7.54-1.08,11.02-1.11,3.5.65,6.02-1.73,1.65-3.64Z"/>
      <path class="cls-6" d="m186.87,215.96c-.15-.56-.83-.8-1.32-.54-1.95.02-4.3-1.33-6.19-.98-12.58-3.03-25.11-7.49-37.11-12.31-.13-.57-1-.38-1.03.18.07,1.34-1.73,2.94-.93,4.1,5.37,3.37,11.84,4.64,17.77,6.73,9.01,2.15,19.1,6.93,28.18,5.52.8-.48.68-1.87.63-2.7h0Zm16.09-22.53c-10.1,1.44-21.11,4.33-31.62,5.18-.53-.6-1.55.17-.93.76,1.5.81,2.15,3.42,3.87,3.53,4.27-1.36,33.92-2.39,28.69-9.47h0Z"/>
      <path class="cls-4" d="m175.92,212.12c-.56-4.72-4.65-7.8-7.41-11.32-11.44-13.42-12.42,1.59-19.12-5.4-.2-.65-.62-1.31-.8-2.01,1.35-7.61-6.5,4.52-2.68,3.04.49.34,1.3.38,1.76.8,2.9,5.53,8,4.75,12.72,1.94l4.65,4.63c1.21,1.34,4.91,4,5.34,5.8-.64,2.35-1.11,2.18,1.48,2.48.9.05,4.83,2.31,4.07.04h0s0,0,0,0Zm15.43-17.05c-.24-1.38-1.78-2.84-2.95-3.58-.3-.49-1.21-.79-1.7-1.07-.6-.22-1.31-.96-1.98-.83-.13-.07-.3-.12-.43-.1-3.39-1.5-8.67-4.66-12.46-4.43-2.63-.49-4.53,2.37-5.86,4.2-.8,1.07-2.59.97-3.27,2.05-.15.98,1.17.74,1.74.5.1.03.22.04.33.01.87.43,1.73,2.58,2.74,1.58,1.79-.87,3.17-2.61,4.29-4.25,1.82.4,4.27,1.56,6,2.31,2.26,1.04,7.68,1.11,7.75,4.29-.32,1.85,2.15,0,3.1.32.75-.23,3.01.28,2.71-1.02h0Z"/>
      <path class="cls-8" d="m183.87,211.1c-4.07-1.1-6.45-5.23-9.68-7.03-.17-.15-.99-1.24-1.22-1.25-.23-.21-.82-1.26-1.2-1.19-.18-.13-3.64-5.36-3.9-5.17l-.87-1.31c.14-.47-.47-.71-.69-1.04-.53-.74-1.03-1.66-1.9-2.06-1.74-.52-3.43.68-4.73,1.68-.73.7.29,1.39.91.74,2.26.43,3.73,2.63,5.52,3.8.98.83,2.42,2.81,3.47,3.51,2.03,2.54,4.8,5.19,6.01,8.25.37,2.72,1.09,4.16,4.07,4.53,1.2.21,2.55.25,3.76.37.57.04,1.43.41,1.81-.17,2.94.89.34-3.58-1.35-3.68h0s0,0,0,0Zm18.04-18.82c-.85-2.33-3.62-2.23-5.64-1.89,0,0-2.7-.44-2.7-.44-.31,0-4.72-1.7-4.9-1.27-2.48-1-5.27-2.41-7.77-3.32-.47-.95-2.12-1-2.94-1.52-1.52-.95-3.44-3.04-5.37-2.8-1.31-.16-5.59,4.58-2.8,4.06,1.56-.35,3.15-.31,4.74.09,2.75.98,5.67,2.05,8.4,3.21,2.29,1.67,4.87,2.31,7.06,4.04,2.3,2.08,1.29,3.78,4.94,2.18,1.14-.25,7.24-1.12,6.98-2.33h0Z"/>
      <path class="cls-7" d="m90.34,24.25c-.87-2.43-3.8-3.42-4.81-5.75,1.36-3.94-1.08-7.01-3.16-10.11-.1-.44-.49-.78-.75-1.14,1.13.09-.54-2.37-1.01-1.76-2.07.97-2.49,3.61-3.13,5.57-.6,1.65-1.77,4.29-2.69,5.78-2.04,2.48-4.86,4.9-8.23,5.82-.55-.34-.71-1.15-1.17-1.57-1.15-1.84-4.07-1.33-4.74.66-.88,2.89,1.05,5.98,3.26,7.75-2.6,1.69-1.17,5.51-3.14,7.68-.21.89.3,1.81.18,2.73.07.59-.72,1.69.18,1.87,7.73.48,13.68,6.35,18.62,10.89.8.07,5.27-1.36,3.25-2.11-1.09-1.12-2.7-1.95-4.11-2.66-1.15-.99-1.46-2.46-1.66-3.89,2.53-2.78.07-5.92,5.25-5.18,1.87-.04,3.83,1.74,5.56.44,1.5-.96,1.58-3.77,0-4.61-.15-1.5,1.02-2.88.01-4.43,1.44-.14.81-1.81.47-2.74.18-1.09,2.8-1.65,1.82-3.24h0s0,0,0,0Z"/>
      <path class="cls-8" d="m103.08,112.33c-.24-.38-.29-1.08-.72-1.26.12-.44-.28-.83-.4-1.23.03-.08-.31-.72-.53-.92-.04-.72-.2-1.51-.4-2.21-.57-7.26-1.03-14.89-2.14-22.14.04-3.62-.86-7.7-2.19-11.15-.73-2.34-1.99-5.43-3.15-7.63.46-.33.32-1.11-.17-1.22-.87-1.55-2.03-4.08-2.71-5.74-.91-1.74-2.91-3.94-4.12-5.51-.92-.64-1.68,1-2.63,1.12-3.78.81-2.54,1.12-.96,3.81,3.47,5.85,6.18,12.58,7.44,19.26,1.18,6.07,1.13,12.58,3.06,18.49.79,4.71,4.85,13.4,8.54,16.31.02.79,1.16.82,1.08.02h0Z"/>
      <path class="cls-13" d="m85.31,52.31c-1.19-1.83-1.69-.19-3.21.17-1.61.26-2.82,1.1-1.1,2.4,1.03-.17,5.54-1.06,4.3-2.57h0s0,0,0,0Z"/>
      <path class="cls-4" d="m91.43,58.98c-.33-1.42-2.35-1.4-2.1.22.17,1.97,2.83,1.9,2.1-.22,0,0,0,0,0,0ZM49.74,19.41c-.04-.08-.1-.13-.18-.17-.18-1.53-.28-3.17.11-4.67-1.37-1.84-1.28,3.8-1.13,4.55-.2,1.14,1.67,1.72,1.2.29h0Z"/>
      <path class="cls-5" d="m82.3,18.44c.65-1.35-1.41-.57-1.93-.2-2.01.3-1.62,1.16.13,1.46,1.6.53,1.88.49,1.8-1.27Z"/>
      <path class="cls-9" d="m83.65,5.74c-.24-.72-.68-1.62-1.47-1.85-.54-.3-1.4-1.05-2.01-.78-.54-.41-1.23-.24-1.77.07-10.12-6.33-26.33-.32-28.73,11.65-.34,1.58-.35,3.15.26,4.42-.09.37-.15.75-.2,1.12-.18-.16-.4-.25-.64-.29-.15-.2-.28-.47-.55-.51-.4-1.24.11-2.61-.21-3.82l.19-.91s.07-.04.11-.06c.48.17.58-.54.13-.66l.06.05c-.18-.07-.13-.33-.3-.42-.26-1.48-1.8-2.07-2.97-2.6-.34-1.3-6.51-3.04-4.64-.69.77.09,1.57.17,2.28.49-1.51.08-2.97.7-3.78,2.03-3.97.08-4.87,5.19-1.8,1.88.34-.25.73-.47,1.13-.6-1.91,4.23.16,10.15,4.9,11.1-.14,1.12,2,7.1,3.05,5.66-.57-1.88-1.69-3.6-1.9-5.6.44-.03.88-.12,1.29-.27,1.18,3.43,4.33,6.59,2.62,10.39,0,.21.22.37.41.32,3.69-3.16-.91-7.9-1.94-11.31.59-.46.99-1.12,1.11-1.85.48-.25.37-1.31,1.01-1.28.1.02.23.33.34.44,0,2.33.76,4.53,1.98,6.52-.61,1.04-.47,5.67,1.17,4.75-.08-1.15-.61-2.32-.34-3.53.4.53.82,1.04,1.27,1.53.24,1.65-.08,3.31-.57,4.87,1.05,1.07,1.77-2.88,1.72-3.71.99.88,2,1.79,3.17,2.42.14.34.52.54.86.65h-.03c.82.51,1.33,1.5,1.7,2.37.43.67,1.36.08,1.08-.62,1.59-1.87.77-4.93,2.43-6.68.44-.33.16-.98-.32-.9-.29-.25-.76-.81-1-1.1-.2-.24-.6-1.02-1.09-1.13-.77-1.9-2.53-4.7-.59-6.52,1.55.43,3.07,1.03,4.71.93l.08.16c-1.01.34-2.07.18-3.07.08-1.44,1.68,4.15,1.55,5.04.99,0,.06,0,.12-.03.16-5.33,3.4,1.79,1.57,3.32-.27.17-.04.29.13.27.29-.62.6-2.06,6.49-.2,4.42-.02.72.23,4.19,1.34,2.7-.57-2.67-.06-5.32.54-7.9.24-.59,2.12-2.76.58-2.64.39-.82,1.65-2.3.86-3.06.23-.4.44-.82.61-1.25,3.11-2.47,1.43-7.58,4.85-9.79.76.7,1.54,1.61,2.2,2.41,1.26,2.28,1.9-1.1,1.44-2.26h0s0,0,0,0Zm-20.71,13.98c.27.11.59.08.86.18-.37.01-.9.04-1.26-.04l.4-.14Zm18.79-13.48c-.3-.29-.88-.85-1.21-1.09.13-.17.24-.36.28-.57.37.51,1.14,1.62,1.39,2.19l-.47-.53h0Zm2.2,8.38c-.87-.39-6.78,2.1-3.71,2.11.72-.27,1.8-.65,2.55-.82.77.14,2.36-.61,1.16-1.29h0s0,0,0,0Zm3.57,12.33c-.12-.49-.79-.44-.91.01-.26-.32-.76-.2-.92.16-.21-.37-.76-.3-.95.05-.39-.19-.87-.04-1.11.32-1.56-.78-1.73,3.06-.13,1.94.25.29.74.29.99-.01.26.33.82.27,1.01-.09.19.24.58.29.82.1,1.28,1.38,1.24-1.79,1.19-2.48h0Z"/>
      <path class="cls-11" d="m83.26,18.36c.2-.72-.84-1.34-1-.43.22.66-.36,1.76.38,2.12.91.12.63-1.12.62-1.69h0Z"/>
      <path class="cls-7" d="m57.38,131.57c-1.51-3.82-2.38-8.02-2.13-12.15-.26-1.04-1.06.21-1.6.3-.19.04-.53.14-.7.21-.38-2.4.28-5.2-.19-7.5-.05-.25-.38-.35-.56-.19-.1,0-.2.03-.3.06-1.28-.67-.9,5.43-1.66,6.57-.61,3.5-2.9,7.75-2.85,11.32-2.81.76-6.04,1.25-8.38,3.12-.45-.16-.64.54-.85.82-.54.77-1.17,1.58-1.92,2.13l-.26-.03c3.43-2.14,3.99-7.34,4.86-10.94.78-3.12,2.24-6.34,3.81-9.14.8-.66,1.25-2.02,1.88-2.87.37-.37,1.21-1.1.87-1.65-.1-.13-.27-.2-.43-.14-.25-.79-1.14-1.84-2.03-1.57-2.28-1.49-4.87-2.94-7.61-3.24-.62-1.52-1.87,2.82-1.74,3.11-2.24,5.22-3.66,12.61-6.36,17.65-1.9,1.74-4.55,1.25-6.87,1.77-1.85.5-6.1,2.09-7.98,2.7-3.78,1.14-7.78,1.54-11.71,1.19-.38-.03-.5.36-.36.63-.5.07-1.31-.1-1.59.41-.53,1.38.89,2.6,2.11,1.77,2.75.1,7.87.08,10.64.13,6.28.37,14.27.53,20.61.57.13.72,1.05.37,1.56.44,6.43-.15,12.93-.52,19.4-.49,2.32.42,1.87-1.05,3.11-2.3.8-.71-.48-1.95-.77-2.71,0,0,0,0,0,0Z"/>
      <path class="cls-6" d="m150.13,142.42c-.27-.56-.49-1.62-1.03-2-.76-1.16-1.39-2.46-2.23-3.57-1.79-4.32-4.24-8.98-7.2-12.65-2.74-7.76-13.32-7.41-19.99-9.74-5.77-1.77-11.76-1.91-17.65-1.83-8.12-7.65-9.33-19.05-11.2-29.5-.9-17.07-11.77-38.29-30.15-41.3-1.51-.17-4.53-.16-3.61,2.13-.19.55-.2,1.14-.02,1.7-.92.88-2.13,1.31-2.85,2.46-1.58.53-1.63,2.46-2.16,3.68-.23-.09-.47.1-.4.37-.02.04-.04.08-.06.12-.99,1.7-2.31,6.95-3.24,8.87-1.56,3.23-4.95,4.2-2.81,8.25.12.4,1.1,2.28.14,2.19-3.86-.36-1.93,5.91-3.13,8.29.07.2-1.04,4.22-1.04,4.41-.38,1.57-1.14,4.19-1.47,5.74-.29,1.02-1.46,2.92-1.46,3.92l-.35.77c-1.9,1.37-.78,3.66-.11,5.32-1.09,1.89-1.79,4.03-2.58,6.06.02,1.03,1.63.15,2.29.32.67.27,2.11.53,2.81.75,2.52.9,4.75,2.44,6.72,4.24.22.2.63.14.7-.19.4-1.47,2.25-2.87,3.18-4.03-.13.73-.12,2.3-.2,3.05.13.85-1.24,2.4.49,1.99.63.06,1.53.02,2.02-.43-.51.7-1.36,9.21.38,7.58.26-.2.88-.61,1.15-.77.08.03.15.06.23.08-.21,5.69,1.69,11.01,3.73,16.29.21.81.81,1.49,1.53,1.89,9.48,1.6,19.06.93,28.41-.54,4.26,2.41,8.56,4.79,12.28,7.99,6.61,3.16,13.39,6.98,20.63,8.66,8.66,2.69,16.18-4.23,23.69-7.61-.43.2,2.18-.95,2.37-1.52.71-.03,2.25-.58,2.19-1.44h0s0,0,0,0Zm-92.84-38.87c-.09.76-.24,1.52-.38,2.27-.02-.11-.02-.24-.09-.33.29-1.27.39-3.13.57-4.43.02.83,0,1.67-.09,2.49h0Zm-5.61,3.02c.03-.18-.09-.35-.25-.47.11.03.22.03.33-.01,0,.16.04.35-.08.49,0,0,0,0,0,0Zm5.78,3.07c-.25.02-.49.08-.72.17.05-.09.1-.19.14-.28.21.04.43-.04.64-.14-.02.09-.04.17-.07.26h0,0Z"/>
      <g>
        <path class="cls-10" d="m88.66,31.3c.05-.44-.44-.98-.86-.65-.55-.01-1.19-.08-1.68.22-1.59.36-.3,1.72.91,1.05.6.43,1.58.2,1.63-.62h0Z"/>
        <path class="cls-10" d="m88.97,29.53c.03-.64-.92-.84-1.28-.39-.15,0-.3.05-.4.17-.18.05-.31.19-.46.3h0c-.63.73.51,1.39,1,.67.03-.01.07-.02.1-.04.47.2,1.13-.16,1.04-.71h0Z"/>
      </g>
      <path class="cls-4" d="m54.89,122.02c-1.76.22-3.5.1-5.24-.03-1.75-.95-1.4.98.11.67.54.45,7.19.69,5.14-.64h0s0,0,0,0Zm.26,2.4c-2.36.62-4.83.06-7.16-.41-1.93,1.34,6.65,1.81,7.38,1.22h0c.47-.15.35-.9-.21-.81h0Zm1.07,3.89c-3.04.54-6.28.02-9.02-1.39-3.09,1.56,12.01,3.93,9.02,1.39h0Z"/>
      <g>
        <path d="m83.68,61.8c-.49-1.2-3.31,5.39-4.72,6.12,1.64-.16,3.27-3.3,4.25-4.9.79,5.07-2.29,9.59-4.8,13.72,3.45-2.73,6.69-9.84,5.27-14.94h0Zm21.77,50.81c-17.41-1.55-16.15-26.39-26.42-35.37,8.49,9.61,10.84,37.47,26.42,35.38h0Zm-42.54-59.5c-.92-.95-2.16-1.91-3.39-2.41-.77-.1-3.49.14-3.72.47,1.79.39,3.78-.82,5.22.92.46.2,1.54,1.5,1.9,1.02h0,0Z"/>
        <path d="m100.89,111.25c-.05-.12-.18-.2-.29-.26-.57-.04.26.86.29.27h0s0,0,0,0Z"/>
        <path d="m100.78,111.12l.04.03-.04-.03Zm-48.53-59.71c-2.12,1.16-2.59,5.51-3.5,7.51-1.4,4.84-6.67,6.51-3.17,12.01-4.06.19-2.6,6.36-3.63,9.08-.82,4.45-2.05,8.82-3.68,13.05-.58,1.83-2.69,4.73-.37,6.13.39.18.73-.39.34-.58-2.12-2.48,2.42-7.79,2.6-10.98,1.78-4.95,1.79-10.37,3.2-15.33,1.02-1.7,2.73.44,2.55-.85-1.53-2.76-2.58-5.72.46-7.86,2.64-3.44,3.23-9.28,5.21-12.18h0Zm19.17,11.47c1.17,4.89-3.25,9.24-4.57,13.93.83,4.13-1.71,3.65-4.04,5.8,2.32,2.33.63,4-1.39,6.01-3.74,4.03-4.68,9.6-7.08,14.36-.09.75-2.72,2.18-1.56,2.38,2.36-1.14,3.02-4.06,3.91-6.3.52,3.41-.48,6.79-.88,10.07,2.08-2.49,1.83-7.72,1.24-11.06.87-2.39,1.88-4.84,3.28-6.96,1.36-2.52,6.51-5.46,3.26-8.44,1.99-1.27,4.75-2.1,3.87-5.11.37-5.06,6.27-9.22,3.97-14.69h0s0,0,0,0Zm-19.07,43.77c-2.62-4.76-9.56-8.55-14.6-6.57-.37.3-3.85,8.54-1.85,5.9.6-1.87,1.56-3.99,2.15-5.86,5.3-.55,10.87,1.99,13.58,6.64-1.56,1.42-3.02,3-4.13,4.8-2.52-2.62-8-6.29-11.36-4.86,14.38,2.15,7.96,10.55,16.21-.05h0Zm21.57-17.47c-.34-5.13-.02-13.7-2.42-17.79,2.61,8.15,1.56,19.33,1.62,27.79-3.08,2.52-6.43,5.1-9.91,7.04-3.04,2.33-7.95,2.67-10.26,5.73-.31.42-.76,10.14.52,7.8.49.29,1.1-.42,1.55-.63-.45,4.13,2.23,16.75,5.68,17.62-3.39-5.36-5.15-11.58-5.23-17.92,6.19-4.4,12.85-9.14,17.55-15.17-.03,1.54-.2,5.85-.27,7.45.19,1.4-.78,4.56.18,5.13,1.07-8.53.81-18.45.99-27.07h0,0Zm-.87,13.4c-5.12,6.95-12.77,11.76-19.58,16.89.33-2.52-1.26-7.22,1.56-8.55,6.56-2.65,12.87-6.15,18.08-10.98l-.06,2.64h0,0Zm-36.72,30.35c-.92-.85.03,4.25-3.32,3.69-4.25-.13-13.39-.4-17.7-.53,1.43-4.24,7.7-.72,10.71-2.31.01-.75-2.46.05-3.07-.15-2.6.01-7.51-1.27-8.1,2.44-2.7-.11-9.36-.2-12.14-.23-.13-.74-.56-1.9-.06-2.51,2.36.14,4.75.13,7.1-.18,5.96-.4,11.18-4,17.15-4.22,3.74-.67,4.28-6.2,5.5-9.04.96-2.91,2.88-8.81,3.81-11.74-.37-1.1-1.99,5.22-2.16,5.16-1.79,3.48-3.23,14.13-7.12,14.96-7.63.55-14.74,5.31-22.63,4.46-.75.03-2.39-.47-2.48.73-1.19-.35-1.86.66-1.41,1.73.05.25.62,1,.79.55-.2-.55-.54-1.13-.3-1.74.27-.09.6-.12.88-.15-.02.67.06,1.36.35,1.97-.56-.03-.2.44.17.32.08.22.38.23.44.02,6.7.37,15.91.62,22.62.82,3.82-.33,11.59,2.35,10.94-4.07h0Z"/>
        <path d="m46.68,112.79c-5.8,6.59-6.16,17.76-10.65,23.77,4.46-2.98,4.17-9.13,5.97-13.69,1.19-3.5,2.99-6.74,5.03-9.81.14-.21-.2-.48-.36-.28h0,0Zm37.4-73.78c-.45-.2-1.37-.12-1.86-.18-.87.09-2.76-.46-3.36.41-.6.88-.03,2.05-.51,2.97-1.81,1.65-1.5,4.34.37,5.84.37.31,1.56,1.44,1.83.82-.62-.82-1.62-1.28-2.18-2.16-1.74-2,.57-3.47.81-5.37-.03-.83-.36-2.21.93-2.11,1.06-.11,3.11.2,3.97-.22Zm18.83,72.65c-4.21-16.95-1.53-35.62-11.21-51.21.58-1.13-.36-3.14-1.75-3.02-1.06-1.65-2.26-3.21-3.62-4.6.04-.2-.17-.38-.36-.36-.5-.5-1.03-.97-1.58-1.42,0-.17-.16-.28-.33-.26-3.01-2.37-4.54-2.43-.52.25-1.08,1-2.53,1.25-3.91,1.51-.41-.34-.74-.89-1.22-1.11-4.47-5.1-10.57-9.21-17.44-9.97.27-.97.36-1.98.23-2.98,2-2.2,1.61-5.58,2.62-7.94-1.81,1.71-.71,5.42-2.7,7.43-.1-.41-.28-1.47-.9-1.21-.08.55.42,1.27.35,1.94-.38.34-.85,1.22.01.53.03.75-.11,1.48-.31,2.19-.57-.23-5.33.57-3.52,1.05-.17,1.05-.19,2.14.02,3.18-1.18.11-5.88,4.9-3.94,4.99.89-1.91,2.3-3.59,4.24-4.52,1.39,1.57,4.03.47,5.86,1.34-4.59,3.68-2.99,3.41.65.19,9.09,2.61,13.2,12.71,14.94,20.53-.62-11.26-9.23-22.12-20.89-22.31.13-.13.03-.33-.13-.36-.14-1.07-.19-2.14-.05-3.21.9-.19,1.82-.24,2.74-.2-.06.4.35.29.47.03,16.17,2.15,24.98,18.89,28.85,33.17,2.38,12.12,2.18,25.6,10.63,35.53-10.89-16.09-6.15-39.35-18.7-55.5.15-.03.31-.06.46-.09,2.14,1.69,4.61,2.98,7.24,3.73.07.92.94,2.18,1.97,1.94,6.16,11.26,8.12,23.94,8.87,36.6.16,2.3.65,15.17,2.94,14.14h0,0Zm-21.96-57.01l-.43-.58c.19.18.39.36.59.54,0,0-.16.04-.17.04Zm.88-.19c-.48-.37-.96-.75-1.4-1.17,1.38-.27,2.71-.7,3.75-1.72.44.4.87.82,1.29,1.25-.98.95-2.29,1.45-3.63,1.64h0Zm7.48,3.64c-.04.08-.06.16-.08.24-2.33-.73-4.53-1.82-6.52-3.23,1.22-.26,2.37-.85,3.25-1.74,1.29,1.41,2.44,2.95,3.44,4.58-.04.05-.07.1-.1.15h0Zm2.03,1.67c-.41,1.69-2.32-.52-1.56-1.44.88-.95,1.73.59,1.56,1.44h0Zm58.72,83c-3.03,1.48-6.68,3.56-9.68,5.13-.02-.06-.04-.12-.06-.18-.01-.02-.14-.01-.08-.01-.2.01-.37.16-.51.28l.09.23c-7.03,4.17-13.6,7.21-21.62,3.41-10.42-3.02-19.19-9.4-28.26-14.92.81-.16,2.45-.55,3.25-.75,2.11-.23,2.67-1.67.05-.8-9.12,2.36-18.66,3.01-28.03,2.08-.81-.08-2.39-.24-3.19-.31,6.12,2.68,18.82,1.36,26.96-.03,10.82,6.86,21.56,14.24,34.37,16.96,6.11,1.54,11.71-2.28,16.85-5.03.21.25.46.46.74.64-1.11,1.06.36,4.51.38,5.8.68,2.88,1.49,9.31,2.38,12-1.52.46-.37,2.46-.23,3.49.31.51,1.04,5.89,1.79,4.9-.02-1.19-.72-3.02-.96-4.21.01-.88-1.5-3.34-.28-3.7.28-.11.13-.43-.11-.46-.33-4.76-1.97-11.29-2.64-16.12-.67-2.17,2.61-.68-.48-2.66.35-.51,11.57-5.4,9.27-5.73h0,0Zm3.14-8.17c-1.69.69-3.58,2.18-5.16,3.11-.28-.54-.9-1.73-1.19-2.27,8.11-7.11,7.52-8.63-.23-.45-2.5-4.45-6.43-11.77-9.5-15.81-9.55-3.32-20.28-6.89-30.39-6.83,9.76,1.9,21.32,3.47,30.51,7.89,3.04,4.88,6.19,10.19,8.87,15.27-2.77,2.71-2.87,3.33.22.41.24.42.91,1.73,1.14,2.18-2.56,1.86-2.29,2.14.22.43,1.94,4.43,3.06,3.97.59-.36.39-.43,6.23-3.26,4.92-3.58h0ZM87.3,26.95c-.47-.9-.95,2.61-.44,2.45.56.06.47-2.03.44-2.45h0Zm-1.08.28c-.57-.42-.52.89-.65,1.21-.14.3,0,.89.41.59.21-.5.31-1.25.24-1.8h0Zm-1.03.23c-.53-.64-.74,1.24-.66,1.56.73.56.66-1.14.66-1.56h0Zm-1.23.2c-.47-.74-.91,2.23-.12,1.61.23-.44.18-1.12.11-1.61h0Zm-.87.53c-.09-1.47-1.03,1.6-.11,1.1.15-.31.1-.76.11-1.1,0,0,0,0,0,0Zm1.25-13.55c-.57-.11,0,.62-.25.87-1.36.53-3.2.3-4.58,1.12,1.16-1.17,2.79-1.56,4.28-1.99-1.52-.77-4.77,1.08-5.49,2.8,0,.87,3.21-1.39,4.31-1.1,1.03.13,2.86-.49,1.72-1.7h0Zm-.79,5.29h-.03c.19-.87.27-1.88-.3-2.63,1.21-.98-3.33.84-3.7.91-4.21.91,5.27,3.36,4.03,1.72h0Zm-4.55-1.07c.92-.4,2.2-.78,3.14-1.14-.09.62-.07,1.52-.06,2.15-1.09-.1-2.13-.47-3.08-1.01h0Zm3.99.94s-.09.07-.11.12h-.27c0-.66-.02-1.71-.04-2.36l.19-.07c.47.68.41,1.54.22,2.31h0Zm-16.86,7.78c-.46-.09-.53-.55-.62-.91-.57-.37-.42.76-.11.96-1.27-.12-2.22-1.06-2.77-2.14h0c-.64.35.71,1.67,1.18,1.99.41.43,2.88,1.17,2.33.11h0Zm10.37,10.08c-2.05-.69-4.62-1.34-6.56-2.34-.65-.78-.6-2.21-1.08-3.08-.44.45.46,2.07.53,2.77.15.7,1.31.94,1.84,1.22.92.21,4.93,2.21,5.28,1.43h0Zm-26.37-18.59c-.26-1-.59-2.31-.44-3.34.05-.29.35-1.47-.18-1.3-.65.81.56,7.66-.45,4.81-.55-1.6-.53-3.44.13-5,.04-.11-.1-.17-.18-.1-1.27,1.67-1.11,4.64,0,6.36.91.6,1.5-.68,1.12-1.43Zm-.77,10.37c-.66-1.39-1.68-2.63-2.26-4.07.85.03,2.97-4.62,1.72-4.14-.83,1.06-.67,2.76-1.97,3.48-.97-1.86-.26-4.44-.15-5.94-1.18,1.82-1.1,4.25-.39,6.23-.58.24-1.2.35-1.82.33-.17-1.28.11-2.65.58-3.84-1.03.28-1.14,2.7-1.1,3.8-4.72-.75-7.22-7.24-5.05-11.28,2.65-.69,5.32.15,7.54,1.58-1.12-1.91-4.82-2.53-7.14-2.27,2.26-3.89,7.46-2.39,8.3,1.73.53-1.09-1.02-2.95-1.91-3.79,1.36.42,2.14,1.67,2.76,2.87.83-.12-.98-2.58-1.57-2.95-1.36-1.32-9.69-1.94-3.74-.74-2.09,0-3.86,1.18-4.76,3.07-.65,0-2.93,1.53-2.03,1.94.45-.52,1.02-.89,1.65-1.16-1.87,4.46.91,11.09,6,11.72.34,1.53,1.01,4.09,2.23,4.76-.51-1.56-1.43-3.08-1.69-4.73.68,0,1.35-.13,1.97-.39,1.66,3,3.99,6.53,2.39,9.84,1.7-1.39,1.1-4.25.41-6.05Zm-2.65-12.57c-1.68,2.7-6.8,3.02-7.97-.05.12,3.83,7.68,2.87,7.97.05h0Z"/>
        <path d="m46.61,18.08c-1.11,3.13-3.99,4.4-6.88,2.59-.14,1.22,3.22,1.82,4.32,1.08,1.11-.7,2.83-2.48,2.56-3.67h0s0,0,0,0Zm21.88,11.39c-.07-.29-.46-.25-.55,0-.73,2-2.99.65-3.96-.42-3.57-1.78-4.78-10.99.94-8.23,1.41,1.54.34-.53-.52-.77-2.53-1.54-4.59,1.38-4.24,3.77-1.64-.36-3.45-.22-4.82-1.36.96-.28,1.94-.01,2.9.03-.58-.76-2.42-.55-3.4-.38-2.23-1.77-3.32-2.12-.45.14-.32.12-.62.28-.89.47-.33-.24-1.19-1.04-1.5-1.34-2.38-2.3-.03,1.21,1,1.74-1.1.99-1.39,2.64-.76,3.95-.17.41-.31.83-.42,1.25-1.24-2.13-1.74-4.59-1.99-7.01-.89,2.26.52,5.87,1.79,8.11-.12.93-.12,2.98.76,3.25-.26-.89-.49-1.75-.4-2.69.6.89,1.31,1.71,2.08,2.45-.83,3.82-.65,4.99.36.34,7.77,5.37,6.39,3.33.03-.99.05-1.63-.88-3.36-1.64-4.75.51-1.02,1.25-1.93,2.23-2.51,1.7.87,3.66,1.74,5.6,1.4.85,2.55,6.6,8.29,7.84,3.52h0,0Zm-15.9-1.65c.57,1,1.4,2.39,1.44,3.57-.72-.75-1.35-1.59-1.88-2.48.1-.41.22-.81.38-1.2,0,0,.06.12.06.12Zm1.11-2.94c-.45.44-.82.96-1.13,1.52-.33-1.05.07-2.18.86-2.92.25.21.79.58,1.07.76-.29.19-.55.41-.8.65h0Zm.24-1.82c.28-.2.6-.34.92-.46.22.14,1.17.79,1.38.88-.36.08-.71.2-1.05.36-.43-.24-.85-.5-1.25-.78h0Zm6.11,2.29c-1.47-.02-2.9-.56-4.21-1.18,1.39-.6,2.92.15,4.36.07.05.37.12.73.23,1.09l-.38.02h0Zm30.72-1.53c-.39-.57-1.25-1.39-1.71-1.93-6.7-6.18,1.33-3.97-5.89-12.84,3.14-2.73-.88-7.65-4.47-6.28-9.74-5.89-26.61-1.39-28.66,10.77,3.15-10.17,17.56-16.08,27.68-10.38-.5.31-1.92,1.21-1.55,1.73.69-.5,1.34-1.09,2.17-1.37.36.22.7.46,1.04.71-1.79.65-2.89,2.61-2.78,4.34.53-1.75,1.48-3.38,3.38-3.84.13.12.26.24.39.36-2.72,1.41-2.66,5.01-3.8,7.51-2.22,5.74-7.94,10.39-13.69,9.96,5.37,1.91,10.82-3.23,13.17-7.69,2.22-2.71,1.49-7.59,4.8-9.28,2.27,2.9,1.34.1.02-1.02,1.14.02,1.49,1.24,1.74,2.12.78-1.05-.89-3.26-2.37-2.74-.26-.25-.54-.5-.83-.71,3.03-.47,5.31,2.87,3.52,5.45-1.77-2.48-2.19-2.15-.31.26,1.16,2.02,2.8,3.95,3.18,6.3.04,1.41-1.04,2.93.07,4.2.88,1.54,4.76,4.01,4.31,5.68-.28.89-2.03,1.14-1.83,2.1.11,1.03,1.29,2.93-.63,2.84-1.36-.04-2.48,1.23-3.93.52-.56.65,1.51.82,1.98.7.85-.18,1.44-.77,2.38-.61.46,1.19-.15,2.21-.44,3.3,1.21,1.96,2.14,5.49-1.29,5.61-.4.14-1.38-.61-1.43-.03,3.17,2.4,6.1-2.6,3.59-5.13-.42-1.18,1.09-2.63.06-3.89,1.41-.6.68-2.21.21-3.22,1-.88,2.87-1.92,1.93-3.49h0,0Zm-17.68-4.11c-1.7,2-3.9,3.95-6.59,4.75.14,1.44,6.99-3.32,6.59-4.75h0Zm1.72-14.36c-5.8-1.87-13.82-2.59-18.5,1.52,5.49-3.58,12.89-2.51,18.49-1.52h0Zm.55,2.31c-7.77,1.66-20.48-3.84-23.81,6.61,6.2-11.73,17.5-3.2,23.81-6.61h0Zm-1.28,1.83c-6.93,3.73-16.96-1.52-22.37,5.38,5.5-6.23,16.4-1,22.37-5.38h0Zm-1.77,4.43c-5.81,4.41-13.69,4.78-20.44,2.65,5.78,3.11,16.18,2.26,20.44-2.65h0Zm-10.58,15.54c-.41.93-.91,2.01-1.11,3.01.38.16.56-1.09.75-1.39.03-.36.83-1.6.36-1.62h0Zm-1.01-1.2c-.31.29-1.64,3.18-.71,2.36,0-.3,1.25-2.62.71-2.36h0Zm-1.02-1.06c-.22.38-.48.82-.5,1.27.28.28.95-1.43.5-1.26h0Zm14.01-6.84c-1.5,1.52-3.01,4.33-2.68,6.29.51-1.52,1.04-3.33,1.9-4.71.06-.24,1.13-1.58.78-1.58Zm-1.33,3.73c-.65,1.38-1.16,3.84-.49,5.02-.16-1.43.64-3.97.5-5.02h0Zm-19.31,88.31c.16-.11.14-.38-.03-.47-.28-.18-1.13.05-1.57.09-.08-.32.66-5.09-.15-4.28-.36,3.06-.74,7.51-1.29,10.59-.53,4.03-3.16,7.57-3.13,11.67-1.23-.24-9.61,2.47-7.76,3.46,2.3-1.58,5.06-2.5,7.79-2.99-.03.6.79,3.48,1.45,2.51-2.82-6.65,3.63-13.37,3.04-20.41.52-.02,1.2.1,1.65-.17h0s0,0,0,0Zm3.71-8.47c-1.08.15-2.54-.03-3.49.48-.18.7,2.18.22,2.63.29.53.06,1.93-.22.86-.77h0s0,0,0,0Zm1.81,29.52c-.39-.27-.46.23-.47.51-.28.7-1.09,1.07-1.18,1.88-.05.29-.17.72-.55.61,0,.01-.01.03-.02.04-4.27-.06-11.06.15-15.39.23.03.16-5.42-.18-4.51.46,0,0,4.01.06,4.01.06,3.71.05,10.47-.02,14.2-.06.81-.09,2.03.18,2.66-.44.07-1.24,1.83-2.11,1.26-3.3h0Zm128.37,82.57c-1.37-.96,1.21,3.85-2.85,2.82-15.01-1.89-30.01-6.49-43.84-12.49.22-1.57.75-3.08,1.44-4.5,13.72,6.48,29.16,11.81,44.31,13.62,1.39-.97-3.87-1.04-4.46-1.42-.58-.12-4.77-.96-5.21-1.09.29-2.22-1.25-4.63-2.73-6.25,1.06,1.67,1.93,3.95,2.07,6.1-11.13-2.69-22.01-6.75-32.63-11,.36-1.72.99-3.33,1.63-4.96,3.98-.32,4.75,4.63,5.94,7.38.62-.76-.47-2.52-.66-3.52,3.02,1.92,7.47.75,10.15-1.31,1.59,2.5,10.34,8.6,9.86,10.93,3.15-.06-8.63-10.18-9.68-11.14-13.68,5.48-7.88-1.68-15.42-2.81.65-1.77,1.49-3.47,2.54-5.02-2.82,1.73-4.02,6.87-5.16,10.18-1.17-1.02-3.4,5.55-2.15,5.17,3.02,2.44,51.89,19.77,46.85,9.32h0s0,0,0,0Zm-3.72-5.79c-5.58-2.46-10.25-8.11-14.02-12.75-2.16-3.77-5.14-8.51-9.54-4.19-.7.58-.38,1.23.3.42,1.21-1.1,2.93-1.72,4.55-1.42-.11-.22.19.36.41.15,1.12,1.28,1.97,2.75,2.88,4.18-.05.03-.1.07-.13.12.04-.05-.16.06-.15.05-.5.25-1.32.73-1.81,1.01-8.47-10.34-13.71,7.62-17.13-6.96.45-1.48-.6-12.18-.55-5.61.1,1.75,0,4.21-.03,5.91-.02.26.22.82.41.37.1,7.4,4.57,7.17,9.78,3.91,2.69-1.14,5.12.97,6.93,2.73-2.56,1.35-1.2,1.99.66.62.05.05,1.13,1.08,1.14,1.1-1.73,1.34-.86,2.25.56.57l1.26,1.3c-.19.35-2.49,1.52-1.51,2.02.39.24,1.76-1.29,2.06-1.44l.97,1.02c-2.09,1.34-1.16,2.2.55.58l1.69,1.73c-.33.43-1.38.96-1.28,1.57.17.39.63.13.83-.1.72-.69,1.88-1.78,2.55-2.51l2.04,1.95c2.22,3.59,8.59,3.42,9.28,7.69-.04.41.59.4.63,0,.23-2.05-1.72-3.32-3.34-4.01,0,0,0,0,0,0Zm-15.83-10.78l-1.03-1.03c.52-.34,1.41-.75,1.85-1.17l.72,1.02c-.54.35-1.05.76-1.54,1.18h0Zm1.86,1.91l-1.3-1.35,1.39-1.19,1.3,1.61c-.4.19-1.02.67-1.39.93h0Zm1.49,1.63l-.97-1.07c.34-.28.95-.75,1.25-1.06l1.09,1.22c-.36.27-1,.64-1.38.91h0Zm2.31,2.16l-.31.29-1.48-1.85c.33-.29,1.06-.67,1.26-1.08l1.64,1.64c-.39.3-.75.67-1.11,1h0Z"/>
        <path d="m162.51,189.6c-.94-4.86-1.34-11.78-1.71-16.71,2.03-1.07,2.36-2.37-.1-.64-.12-.78-.35-.25-.32.18-4.18,2.16-9.03,2.81-13.66,3.14-.09-1.06-.9-1.36-.52-.05-1.17-.32-.77.54.13.6.16,1.13,2.27,10.08,1.51,4.52.6.15,1.22.21,1.84.24-.01.91.2,1.89.31,2.8-1.3-.16-1.06.1.05.28.14.98.56,1.2.38.04.54.04,1.1.01,1.64-.06.19,2.33.81,2.23.4-.06,2.2-.38,2.3-1.04-.04-.3-.1-.77-.26-1.96-.38-2.73.41-.04,1.39-.13,1.78-.2,0,.02,0,.03.02.05.01.6.18,1.47.32,2.05.18,1.02.76.71.38-.16-.14-.57-.29-1.41-.35-2,.77-.25,4.48-.8,4.22-1.67-3.4.95-7.06,1.66-10.64,1.24-.19-1.07-.61-2.92-.88-3.97,4.51-.24,9.45-.87,13.49-3.02.02,1.35.18,2.96.26,4.32-.34.24-.92.47-1.07.86-.14.17.16.32.19.27.35.02.65-.37.92-.55.37,3.63.76,10,1.76,13.47.78.43.1-1.5.1-1.92h0s0,0,0,0Zm-12.22-8.71l1.38-.02c.07.82.24,1.94.33,2.76-.54.07-1.09.09-1.63.07-.11-.61-.31-2.18-.39-2.82,0,0,.31.01.31,0h0Zm12.66-18.25c-.95-1.06-3.98,2.06-5.44,2.25-3.97,2.11-9.02,2.29-13.06,2.91,6.13.97,12.61-1.51,17.8-4.71.31.35.86-.03.69-.45h0Z"/>
        <path d="m163.08,167.19c-.15-.49.25-4.53-.73-3.64.08,2.29.02,4.98.11,7.26,1.1.12.45-2.88.62-3.62h0Zm-2.29-33.91c-3.5-9.04-14.39-10.97-22.49-14.07-1.7.43,9.78,4.05,10.48,4.59,5.01,1.69,9.38,4.81,11.63,9.7.15.25.51.03.38-.23h0Zm1.33,27.3c-1.01-8.56.18-17.72-1-26.24-.82-.21,0,2.14-.11,2.77.18,1.65.22,6.28.23,8-.34,4.29-.11,9.43.24,13.69-.11.84.51,5.01.64,1.78h0Zm-9.63-6.1c.04-2.36-.04-8.77-.07-11.22-.25-1.13.26-3.51-.22-4.24-.16,2.08-.24,5.33-.31,7.46.07,2.82.15,9.06.46,11.79.47-.81.02-2.65.14-3.79h0Zm14.05,39.81c2.15-1.03,4.18-2.66,5.21-4.83,2.49,1.61,12.97,3.54,13.5,5.86,2.83-1.36-12.07-5.69-13.43-6.12-1.59,1.04-3.18,3.91-5.56,4.65l.28.45h0Zm2.66,3.7c.18.21.52.67.68.9,9.09-.72,18.27-1.7,27.12-3.96.82-.41,6.12-1.22,4.8-2.17-2.83.78-6.76,1.7-9.66,2.31-.66-2.14-3.06-3.7-5.07-4.56,1.65,1.08,3.39,2.79,4.41,4.7-7.35,1.46-14.81,2.21-22.28,2.78h0s0,0,0,0Zm33.86-4.53c-1.31-.44,1.64,2.91-.19,3.29-9.54,3.66-19.86,4.89-29.94,6.06l.48.57c4.06-.93,36.13-2.89,29.66-9.92h0Zm-1.08-1.46c-1.97-3.98-7.51-1.24-10.85-3.16-3.58-1.28-8.69-2.92-11.9-4.9-2.24-1.05-4.54-3.83-7.13-3.21-1.54-2.41-2.15-2.11-.44.2-1.25.63-3.51,2.7-2.76,4.01.78-1.39,1.6-2.96,3.24-3.56.1.05.28.05.25-.1.1-.04.33-.1.43-.13-.19-.15.32.24.43-.03,1.55.71,2.93,1.69,4.35,2.61-.03.05-.06.1-.07.16.01-.06-.12.12-.11.11-.35.44-.89,1.21-1.23,1.67-9.11-4.07-7.76,3.1-13.79,4.87.02.24.15.64.21.87,5.9-1.32,4.86-8.98,13.18-5.19-1.77,2.29-.27,2.31.86.29.07.03,1.47.51,1.5.53-1.02,1.94.15,2.4.75.28l1.69.66c-.03.4-1.64,2.41-.53,2.46.45.05,1.06-1.91,1.28-2.16l1.3.52c-1.35,2.09-.14,2.49.75.3l2.26.88c-.12.53-.86,1.44-.52,1.96.32.28.63-.14.71-.43.37-.93.97-2.4,1.28-3.34,3.82,1.63,7.87,2.44,11.99,2.33.99.19,1.97.77,2.31,1.76.13.39.7.12.58-.26h0s0,0,0,0Zm-23.58-5.52l-1.36-.51c.33-.52.97-1.27,1.2-1.84l1.08.63c-.35.55-.64,1.13-.92,1.71h0s0,0,0,0Zm2.48.96l-1.75-.69.77-1.66,1.85.93c-.29.34-.65,1.03-.88,1.42Zm2.03.87l-1.32-.57c.19-.4.55-1.07.7-1.48l1.5.65c-.21.39-.65,1-.88,1.39h0Zm2.99,1.01l-.16.39-2.11-1.07c.18-.4.69-1.06.7-1.51l2.17.82c-.23.44-.4.92-.59,1.37h0,0Z"/>
        <path d="m164.39,157.16c-.18-.95-.67-3.61-.85-4.61,0,0-1.2-6.11-1.2-6.11-.25-.94-.4-2.44-.81-3.31-.41.05.02,1.05.03,1.39.27,1.02,3.48,18.39,2.83,12.64h0s0,0,0,0ZM54.55,75.23c-2.4-2.56-5.47-5.72-6.51-8.66.3,3.46,4.01,7.21,6.51,8.66h0Zm-.53-7.5c-1.93-4.45-1.7-10.03-.76-14.17-2.5,5.35-1.04,13.02,2.02,17.4,0,0-1.25-3.23-1.25-3.23h0s0,0,0,0Zm6.94,19.59c-4.17,1.65-8.25,6.5-9.47,10.24,2.35-3.95,6.22-7.98,9.47-10.24Zm-4.09,41.6c-3.49,1.18-7.06.07-10.23-1.38,2.14,2.72,7.13,2.91,10.41,2.01-.08-.21-.14-.42-.19-.63h0s0,0,0,0Zm-.45-1.34c-3.03,1.27-6.49.46-9.24-1.11.07-.36-.45-.14-.34.15,2.45,2.22,6.69,2.76,9.78,1.52l-.2-.56s0,0,0,0Zm-.59-2.65c-2.55.74-5.83.7-8.19-.54-.06.02-.12,0-.14.08,1.63,2.18,5.97,1.65,8.43,1.1l-.11-.64h0Z"/>
        <path d="m55.63,123.89c-2.5,1.04-5.28.45-7.71-.19,0,.03-.02.06-.04.09h0s-.03.07-.04.1c.02.07.07.13.11.19,2.38,1.19,5.24,1.29,7.76.47-.06-.22-.06-.44-.08-.67h0,0Zm-.08-1.32s0-.07,0-.09c-2.04.93-4.64.22-6.79-.01-.14.01-.31,0-.32.18.02-.09-.02.16.02.2,0,0,0,.02.01.04,2.22.61,4.89,1.01,7.11.26l-.03-.57h0Zm-.03-1.23c-2.1.89-4.7.49-6.68.21l-.04.03s-.02.12-.04.14c.02.04.05.1.07.14,2.12.87,4.56.76,6.72.1l-.03-.63s0,0,0,0Zm108.03,54.12c-.15-.29-.32-1.65-.65-1.29.25.91.48,1.85.84,2.72.34-.14-.14-1.07-.19-1.43h0s0,0,0,0Zm6.45,1.3c-1.3-3.31-2.44-7.16-3.93-10.36.88-1.08-.22-3.77-.19-5.04-.35-.93.16-3.55-1.36-3.33-.38.09-.56.69-.95.68-.7.32.58.7.83.15.84-1.22.81,3.59,1.05,3.86.01.87.6,2.35.24,3.17-2.79,1.83-3.61,3.23.12.78.26,1.21.9,2.65,1.29,3.83-.9,1.24-2.4,1.79-3.52,2.74.3.76,1.62-.45,2.11-.72.32.85.57,1.93,1.1,2.67-.25.16-1.13.73-1.38.84-1.05-3.4-1.45-3.24-.33.17-.51.18-.43.54.08.26.88,3.32,1.46,2.86.34-.17,1.05-.51,2.12-1.35,2.98-2.15.26,1.08,2.82,6.83,1.54,2.61h0s0,0,0,0Zm-2.24-2.33l-.81.64c-.18-.86-.64-1.94-1.03-2.72.5-.37.96-.8,1.39-1.25.25.69.77,2.08,1.04,2.77-.21.17-.4.39-.59.56h0Z"/>
      </g>
      <g class="cls-15">
        <path class="cls-3" d="m58.63,133.35s-.37-.69-.39-.71c-.2-.07-1.47-3.36-1.36-3.54-.05-.28-.24-.52-.29-.8.26-.87-.1-1.92-.72-2.6.06-.25-.06-.47-.23-.62-.02.04-.06.07-.1.09-.38.54-1.3.25-1.88.35-.4.35-1.1.05-1.59.08-.32-.09-.86.22-1.05-.09-.31-.15-1.55-.1-1.81-.33-.29-.07-.99.09-.94-.36,0,0,0-.02-.01-.03h-.02s-.41.98-.41.98c1.13.52,2.65.73,3.87.87,1.21.09,4.76-.47,3.19,1.72.47.12.43.79.21,1.12h0c-.07.11-.2.24-.34.17-2.48.12-5.14-.3-7.31-1.62-.03,0-.06,0-.1,0-.16.36-.35.83-.33,1.24,1.92,1.65,4.69,1.51,7.02,1.91,2.37,3.36-3.46,4.52-5.43,5.79.4-.05.8-.12,1.23-.03.56-.18,1.15.02,1.7.15l.09-.06c.3.15.64.07.91-.09.73.48,1.7-.08,2.53.17l.1-.43c.6.5,1.42.21,2.09.15.27-1.1,1-1.98,1.68-2.86l-.29-.63s0,0,0,0Z"/>
      </g>
      <g class="cls-15">
        <path class="cls-3" d="m72.93,103.36v.02c-1.08.32-1.96,1.94-2.64,2.73-1.32,1.09-2.65,2.51-3.79,3.79-.82.14-1.62,1.5-2.29,1.96-1.7,1.48-4.04,2.82-5.38,4.55-.99.68-1.97,1.3-3,1.88-.11-.09-.25-.13-.38-.11-.07.82-.07,1.72.17,2.5,6.52-5.01,12.89-10.4,17.95-16.94,0-.2.01-.41.04-.61-.23-.05-.47,0-.67.22h0Z"/>
      </g>
      <g class="cls-15">
        <path class="cls-3" d="m99.58,143.51c2.63,1.65,5.5,3.04,8.07,4.81,1.61-.14,3.34.94,4.76,1.72-4.45-5.11-15.9-6.09-16.33-14.63,1.07-2.12-2.93-.77-3.91-.61-10.61,2.44-21.5,1.71-32.19.57-3.33,3.92,26.22,2.6,28.63,1.42.11-.08.28,0,.42-.03h0c.12-.02.23.03.24.13.13,0,.18.1.23.19l.5-.08c.15.65,1.03,1.15,1.67,1.13.58.24,1.11,1,1.78.65,1.66,1.99,3.98,3.06,5.79,4.9.02-.15.18-.28.34-.17h0Z"/>
      </g>
      <g class="cls-15">
        <path class="cls-3" d="m159.56,193.35c-1.69-.12-3.18,1.2-4.8,1.01-1.31-.46-1.59-2.09-1.63-3.34,0,0-.67-5.63-.67-5.63-.3-2.65-.92-7.3-1.21-9.92.91-.42-.25-3.56-.13-4.32-.41-1.06.18-3.75-1.26-3.94-.81-6.38-1.93-16.2-2.84-22.48-.48.12-1.08.53-1.55.63l.04.66c-.05-.25-.1-.49-.16-.74-1.77.71-3.14,2.12-4.86,2.88-.04.58.65.69.77,1.18-.91.31-.65,1.83-.18,2.45.47,2.57.98,5.21,1.74,7.7l.19,1.15c-.27.17-.45.47-.38.87.39,1.41.94,4.64,1.34,5.98-1.1.39.66,4.32.61,5.01.14,1.34.35,3.25,1.99,3.5,1.49,4.7,2.12,9.79,1.72,14.74-2.5.92-3.02,4.5-4.11,6.65-.36,1.4-2.03,3.54-.86,4.89-1.41-.99-1.94-.96-2.21.9-.59.86-1.41,2.72-.54,3.58,2.72,1.32,5.57,3.45,8.69,3.34v.29s.54.16.54.16c.18-1.61.29-3.55,1.56-4.71-.15-.76-.75-1.74-.52-2.46-.81-2.16-.62-4.58.59-6.57,1.85.73,3.9-.3,5.61-1,.53-.15,1.36-.04,1.55-.72.25-.05.6-.09.85-.12.06-.6.33-1.12.73-1.57-.19-.06-.4-.09-.6-.08h0Zm-13.77,10.13l-1.33-.59c.63.1,2.66,1.07,3.3.84.42.33.87.62,1.35.85l-3.32-1.1h0Z"/>
      </g>
      <g class="cls-15">
        <path class="cls-3" d="m167.15,187.56c-.18-.09-.38-.12-.59-.08-2.83-.34-2.51-5.35-3.29-7.35-.49-2.41-.85-6.36-1.3-8.71-.09.53-.86.81-1.33.92l.04.55c-.06.03-.12.06-.18.08-.07,3.48.32,7.23,1.1,10.65-.54.87-.1,2.35.09,3.31.14.6.2,1.47.64,1.93.13.62-.04,1.56.21,2.14-.34.86.74,1.27,1.38.91.14.05.28.04.4,0v.15c.56.08,1,.52,1.37.93-.17-1.45.28-2.88.98-4.14.36-.22.48-.69.28-1.06l.2-.25h0Z"/>
      </g>
      <g class="cls-15">
        <path class="cls-3" d="m73.87,85.46c.26-3.88.03-8.2-.47-12.09-.5-2.99-.05-7.72-1.87-10.28.23,1.29.15,3.06-.22,4.32,0,1.71-1.67,3.02-1.87,4.65,0,.24-.3.25-.4.08-.67,1.28-1.78,2.4-1.89,3.87-.53.61-.16,1.62-.58,2.31-.98,1.51-7.37,2.65-3.26,4.87.36.31.24.87.22,1.29-1.41,4.2-6.91,5.54-8.65,9.8-2.18,2.85-1.51,8.47-5.86,9.07.28.28.53.6.75.93-1.51,1.69-3.44,3.48-4.33,5.55.12.01.21.12.17.26.14.06.2.16.23.28-5.25,6.76-7.3,15.32-9.64,23.31-.07.04-.16.07-.24.04l-.03.04c-.06,1.5-.9,2.89-2.53,3.09.11.09.31-.03.41.07,1.43-.23,2.58-1,3.48-2.12,2.16-1.6,2.4-5.5,3.2-8.1.88-3.67,2.3-7.32,4.13-10.62.54.02,2.01-2.96,2.33-3.3.31-.48,1.27-1.35,1.19-1.98.88-1.82,3.91-2.87,3.95-4.83,1.69-2.02,3.33-4.23,4.11-6.78.03.02.06.05.07.09.17.02.16.27.17.4,0,0,.02,0,.02,0,.19-1.04.66.12.55.61.3.06.11.79.14.97,0,.46-.04,1.48-.15,1.93l-.02.18c.14.39.04,1.16-.17,1.51-.15.61.03,1.42-.39,1.91-.05.49,0,1.17-.4,1.5l-.04.33h.06s.01,0,.02-.02c.08-.25.19-.74.51-.75,1.41-5.22,4.8-10.67,7.35-15.42,1.09-2.85,5.52-7,2.28-9.77,1.61-.63,2.51-2,3.03-3.56,3.03-2.17,3.16,6.75,3.05,8.33.14.93-.3,11.61,1.43,9.32-.04-1.55-.16-3.36.15-4.85-.13-.92-.07-2.83.04-3.76-.01-.53-.13-2.21-.05-2.72h0,0Z"/>
      </g>
      <g class="cls-15">
        <path class="cls-3" d="m57.13,72.89c-3.22-5.81-4.08-12.51-2.96-18.98-3.23-.96-1.68,12.9-.34,14.96.42.83,2.38,6.47,3.3,4.02h0Z"/>
      </g>
      <g class="cls-15">
        <path class="cls-3" d="m55.13,75.71c-2.3-2.68-6.06-5.19-6.7-8.91-1.64-1.31-.75,2.32-.25,2.97.44,1.29,6.56,9.21,6.95,5.94h0Z"/>
      </g>
      <g class="cls-15">
        <path class="cls-3" d="m49.68,124.49c1.61.05,3.6.5,5.17.1.97-.21.65-1.67-.31-1.43-.61.23-1.71.06-2.37.08-.99.13-3.74-1.03-3.19.93.25.07.47.21.7.32Z"/>
      </g>
      <g class="cls-15">
        <path class="cls-3" d="m82.54,6.08c.02-.17-.02-.36-.12-.5.14-.55-.4-.98-.76-1.33-.17,0-.33.07-.46.18-.24-.07-.52.1-.75.2.35.48-.02.7-.49.73-.57.27-1.29,1.5-1.63,2.01-.35,1.34-.78,2.66-1.33,3.93.18.31-.08,1.09-.37,1.31-.07.12-.23.88-.4.89-.07.14-.1.35-.26.41-.07.48-.38,1.05-.76,1.35-.31.68-.95,1.4-1.34,2.03-.11.3-.39.53-.57.79.42.29-.99.97-1.08,1.15-.11.07-.39.46-.56.36-.65.88-1.85,1.28-2.72,1.92-.1.09-.24.09-.31-.02l-.2.09c-.68.43-1.84,1.01-2.66.82l-.47.11c-.04.05-.1.09-.18.09l.02-.02c-.07.05-.16.05-.23.02.06,2.34,3.94-.14,5.09-.62,6.61-2.9,7.29-10.3,10.53-15.63.05-.06.13-.09.21-.07.46.5.95,1.03,1.29,1.62.61-.27.58-1.27.5-1.83h0,0Z"/>
      </g>
      <g class="cls-15">
        <path class="cls-3" d="m68.87,29.43c-.25-.39-.66-.03-.87.21-.19,1.32-2.85,1.21-3.17.21-1.17-.51-1.88-1.62-2.83-2.46-.07.12-.27.18-.38.21l-.06.07c1.02,2.84,7.56,7.36,7.32,1.76h0Z"/>
      </g>
      <g class="cls-15">
        <path class="cls-3" d="m77.87,38.46c-1.5-.49-3.65-1.49-5.21-1.72l-.28-.28c-.97-.21-1.98-.81-2.77-1.44,0,.02,0,.05,0,.07,2.14,1.56,3.52,4.98,5.11,7.06.71,1.01,1.96,3.7,2.93,4.43-.25-1.22-.39-2.81.43-3.02.01-.14.37-.6.45-.71l-.17-.18c.1.02.19.02.28.01.25-.37.41-.83.37-1.3l-.05-.05c0-.91-.13-2.16,1.11-2.26-.74-.16-1.47-.36-2.2-.6h0s0,0,0,0Z"/>
      </g>
      <g class="cls-15">
        <path class="cls-3" d="m72.92,14.59s.03-.11.04-.14c.07-.29-.03-.35-.32-.34-4.98,2.79-10.73,5.04-16.49,3.65-.53-.05-.7.74-.26.98,5.56,1.9,12.95.04,17.03-4.15h0Z"/>
      </g>
      <g class="cls-15">
        <path class="cls-3" d="m61.46,26.39c-.12-.32-.28-.64-.36-.97-.18.02-.33.11-.45.24l-.99-.19c-.59.73-2.01-.32-2.77-.51-2.13-.69-3.98-2.03-5.48-3.58-.64-.73-1.15-1.55-1.42-2.49-.2-.05-.42-.08-.63-.04-.68-.91-1.27.47-1.4,1.09-2.25,4.96-6.25,3.22-9.35.69-.2-.19-.44-.38-.72-.37.63,1.08,1.08,2.27,1.71,3.34.59.52,1.21.99,1.86,1.41.46.03.9.23,1.24.54.61.03,1.21.38,1.83.23.02.05.05.1.08.14l.51.03c.5,0,1.15-.52,1.55-.32,1.19-.84,2.31-2.26,2.22-3.8l.29-.56c.18.21.38.49.65.56-.94,5.08,8.2,16.01,2.46,4.83.32-.22.57-.52.73-.87.5-.15,1.06-.45,1.21-.99,2.16,1.63,4.83,2.39,7.48,2.15-.09-.19-.18-.38-.24-.58h0Z"/>
      </g>
      <g class="cls-15">
        <path class="cls-3" d="m91.01,83.24c.18,1.02.26,2.06.42,3.09.22.41.05,1.33.19,1.79.67,1.91.54,4.18,1.13,6.18.86,3.28,1.74,6.66,3.06,9.84.1.03.14.15.18.23.55.53.72,1.56,1.19,2.23.13.06,2.75,4.01,2.85,4.1-9.98-14.91-4.36-37.28-16.25-50.41,1.25,2.4,3.11,4.8,3.51,7.49.17.95,1.08,2.22.73,3.04,0,.01.16.32.16.32,1.51,3.61,2.83,8.57,2.83,12.11h0Z"/>
      </g>
      <g class="cls-15">
        <path class="cls-3" d="m98.72,110.88l-.51-.44c-.29.06-.55-.64-.78-.76-3.53-2.43-5.24-6.9-7.19-10.64-.42-.47-.55-1.2-.84-1.77-.78-.83-1.17-2.18-1.47-3.29-.19.02-.5-.95-.59-1.06-.51-.77-.56-1.87-.94-2.7-.99-1.68-1.59-3.72-2.39-5.48-.48-.51-.94-2.02-1.3-2.67-.3-.59-1.15-1.78-1.29-2.42-.02-.05-.09-.16-.08-.21-.55-.86-1.34-1.55-2.03-2.24-.15.07-.28.19-.36.33-1.6,1.21,1.48,3.07,1.95,4.28.51.74,1.53,2.34,1.87,3.15,4.06,7.61,7.61,23.32,16.01,25.95-.02,0-.04-.01-.06-.03h0s0,0,0,0Z"/>
      </g>
      <path class="cls-18" d="m86.42,21.98c.54-4.83-10.29-5.77-10.59-.91-.54,4.83,10.29,5.77,10.59.91Z"/>
      <path class="cls-16" d="m19.58,134.73c9.93-2.39,8.86-6.69-1.03-4.17-9.93,2.39-8.86,6.69,1.03,4.17Z"/>
      <path class="cls-17" d="m43.63,134.35c6.2-1.49,5.35-4.92-.83-3.35-6.2,1.49-5.35,4.92.83,3.35h0Z"/>
    </g>
  </g>
</svg>