<svg width="290" height="363" viewBox="0 0 290 363" fill="none" xmlns="http://www.w3.org/2000/svg">
<path d="M113.551 5.20035C113.012 5.34722 108.946 5.73887 104.488 6.13052C90.8209 7.35443 88.3716 7.99085 80.4358 12.0542C76.174 14.2573 73.2348 16.9009 67.9443 23.3142C61.576 31.0003 60.1554 34.2804 58.8818 44.2675C57.5591 54.5483 56.4814 67.0322 56.4814 71.9768C56.4814 74.2778 56.1385 77.7047 55.6976 79.614C54.9628 82.6003 54.6199 83.2367 53.3463 84.0201C52.5135 84.4607 48.6926 87.7407 44.9206 91.2656C41.0997 94.7905 36.6909 98.658 35.1233 99.8819C31.9392 102.33 30.0287 104.826 30.0287 106.589C30.0287 109.282 34.2905 115.842 39.5321 121.325C45.3125 127.346 56.5794 133.76 67.1115 137.089C70.3936 138.117 72.2061 138.949 72.353 139.488C72.451 139.928 72.8429 141.789 73.1368 143.698C73.6267 146.978 74.8513 149.915 77.6926 154.713C79.4071 157.699 82.5912 169.938 82.0034 171.456C81.7584 172.093 79.848 174.638 77.7415 177.184C75.5861 179.681 73.3328 182.569 72.647 183.597C65.8378 194.025 61.576 198.333 56.2855 200.242C54.7179 200.83 54.0321 201.466 53.1993 203.082C51.9257 205.628 52.1216 206.362 54.1791 207.096L55.7466 207.635L52.6115 209.593C50.848 210.67 48.1047 212.237 46.4882 212.971C39.0912 216.496 29.9307 223.546 26.9426 228.099C20.7213 237.547 19.0068 242.492 16.2635 259.333C15.7247 262.76 15.1858 265.697 15.0878 265.844C14.2551 267.166 11.8057 281.314 11.1689 288.609C10.6791 293.994 9.55236 300.799 8.27872 306.233C6.66216 313.038 5.58446 320.283 5.04561 327.774C4.80068 331.005 4.26182 334.725 3.82095 336.096C2.49831 340.258 0.734797 350.538 0.342905 356.315L0 361.798H138.73H277.41V324.298V286.797L275.892 280.09C275.059 276.418 273.296 269.369 271.973 264.375C270.699 259.382 269.181 253.066 268.642 250.276C267.466 244.205 265.703 238.33 263.155 231.868C260.559 225.455 259.579 223.644 256.836 220.021C255.513 218.307 254.338 216.496 254.142 215.957C253.652 214.342 246.206 209.887 239.691 207.243C236.311 205.872 228.62 203.033 222.546 200.977C209.221 196.375 206.968 195.396 201.09 191.528C198.542 189.864 195.603 188.248 194.476 187.954C190.998 187.024 188.451 184.772 186.198 180.709C182.573 174.1 181.789 172.288 178.605 162.644C174.343 149.719 174.882 150.503 170.767 150.65C168.954 150.699 166.407 150.845 165.182 151.041L162.929 151.286L163.566 148.496C163.958 146.929 164.497 143.208 164.742 140.271C165.476 132.536 165.672 132.046 169.052 130.724C170.571 130.088 174.392 128.374 177.478 126.808C180.564 125.29 184.63 123.43 186.541 122.598C189.431 121.423 190.851 120.297 195.946 115.352C201.041 110.456 202.265 108.988 203.784 105.904C205.155 103.162 205.645 101.449 205.792 99.1965C206.037 94.8394 205.008 93.2728 200.355 90.825C198.346 89.7479 195.848 88.1324 194.819 87.3001C191.586 84.6075 187.765 81.6212 185.12 79.6629C182.083 77.362 178.262 73.7882 176.792 71.781C175.47 69.9206 174.392 66.3468 172.873 58.1711C171.649 51.7578 169.248 43.5332 167.534 39.6656C166.995 38.4417 165.476 34.8189 164.154 31.5878C161.361 24.636 159.255 21.0133 156.904 19.006C150.829 13.8167 140.297 7.84399 135.497 6.86487C128.002 5.29827 125.258 4.95556 120.164 5.00452C117.078 5.00452 114.09 5.10244 113.551 5.20035Z" fill="#070D1C"/>
</svg>
