<?xml version="1.0" encoding="UTF-8"?>
<svg id="Ebene_1" data-name="Ebene 1" xmlns="http://www.w3.org/2000/svg" xmlns:xlink="http://www.w3.org/1999/xlink" viewBox="0 0 195.02 220">
  <defs>
    <style>
      .cls-1, .cls-2 {
        fill: none;
      }

      .cls-3 {
        clip-path: url(#clippath);
      }

      .cls-4 {
        fill: #f15a24;
      }

      .cls-5 {
        fill: #e6e6e6;
      }

      .cls-6 {
        fill: red;
      }

      .cls-7 {
        fill: #743f22;
      }

      .cls-8 {
        fill: #09f;
      }

      .cls-9 {
        fill: #42210b;
      }

      .cls-10 {
        fill: #1b1464;
      }

      .cls-11 {
        fill: #603813;
      }

      .cls-12 {
        fill: #754c24;
      }

      .cls-2 {
        stroke: #42210b;
        stroke-miterlimit: 10;
        stroke-width: 1.43px;
      }

      .cls-13 {
        opacity: .5;
      }
    </style>
    <clipPath id="clippath">
      <rect class="cls-1" x=".02" width="195" height="220"/>
    </clipPath>
  </defs>
  <g class="cls-3">
    <g>
      <path d="m170.22,195.08c-1.96-1.82-5.37,1.37-4.11,3.55,1.85,2.98,6.16-1.33,4.11-3.55h0Z"/>
      <path class="cls-6" d="m190.8,195.83c-6.8-.02-14.75-2.27-19.95-6.74-.4-.42-.77-.95-2.25-4.62-.46-1.13-.7-1.76-1.32-1.99-.93-.54-2.19.74-1.72,1.53-1.97.92-6.35.47-7.96,1.21.03,0,.06.01.09.02,1.24,4.28,1.97,11.4,1.62,15.88-4.16-4.38-3.61-8.26-4.53-13.07-1.21-2.08-3.49-.8-4.07,2.1-2.27.83-8.86-.28-10.87-1.95.28,4.34-.98,11.68-2.94,15.43,8.18,6.09,17.88,9.28,28.33,13.79.66-2.43,3.16-5.45,4.97-6.48-2.48-2.99-5.72-4.96-8.54-7.58,4.62-.3,13.93-.68,18.57-.76,2.28.34,6.01.14,8.83-.94-.48-.98.33-4.86,1.74-5.84h0s0,0,0,0Z"/>
      <g>
        <path class="cls-5" d="m172.26,214.52c-.52-1.51-1.48-2.61-2.37-3.36-1.48.73-4.13,3.65-4.66,6.01,1.68,1.47,9.18,1.92,7.02-2.65Z"/>
        <path class="cls-5" d="m172.64,217.54c-2.48,2.05-11.67-1.51-12.05-1.86-4.99-2.27-10.51-4.03-15.66-6.8-3.22-1.7-5.75-3.59-8.03-5.24-.3.05-.2.68-.67,1.46-.79,2.07,12.42,7.13,15.34,8.92,4.7,2.01,4.23,1.36,9.94,3.71,2.21,1,10.36,3.64,11.13-.2h0,0Zm-6.99-26.81c-2.49-3-6.44.88-4.44,3.56,2.2,2.88,5.95-1.18,4.44-3.56h0s0,0,0,0Zm29.03,7.76c-.01-1.78-3.64-2.97-4.13-2.52-1.27,1.42-1.8,4.61-1.48,5.83-9.7,1.15-17.99.94-27.09,1.56l2.77,2.43c7.17-2.09,27.53,2.01,29.93-7.3Z"/>
      </g>
      <path class="cls-8" d="m164.08,168.21c-.22-1.16-.88-.95-1.46.06-2.63-9.5-4.15-43.95-14.9-46.39-2.69-4.16-8.99-7.87-15.15-7.57-12.11-.89-26.44-4.09-37.77-2.9-3.26-4.98-6.33-7.49-6.51-11.38-1.83-2.09-20.51,4.16-24.32,5.12-2.31,4.33-6.62,6.43-10.24,9.37-5.12,5.36-1.57,17.29,5.21,21.08,7.57,4.4,27.14,2.06,35.87,2.42,9.56-.66,34.99.22,43.52-2.57-1.44,14.73-1.83,21.44-.78,35.85-.15-.07-.33-.13-.55-.15v4.42c3.21.93,9.84-.17,14.54-1.58.18,2.58-.21,2.38.14,3.45,4.12-1.83,14.79-3.47,12.4-9.24h0Z"/>
      <path class="cls-12" d="m152.15,186.85c-.11-.25-.36-.48-.66-.39-1.68-3.54-2.33-7.93-1.53-11.82-15.19,4.3-10.71-5.03-9.24,10.39-.03.97-.09,1.98-.38,2.91-.09.25-.12.78.23.85,1.74,1.06,4.09,1.42,6.07,1.67,2,.15,2.09-.26,3-.02.22.08.99.23,1.07-.26.15-.63.47-1.57.85-2.01.47-.19,1.17-.8.58-1.3,0,0,0,0,0-.01Zm15.52-4.32c-2.49-2.27-5.12-6.26-4.74-10.1-2.25,2.31-5.78,2.88-8.66,4.64,1.39,1.61,3.11,4.35,3.39,6.19.19.6.1,2.29,1.37,1.84,2.12-.03,4.71-.38,6.75-.99-.36-.57-.21-1.32.39-1.61.35,0,1.68.14,1.51.04h0,0Z"/>
      <path class="cls-4" d="m92.14,79.25c3.27-16.81-9.34-23.35-21.08-28.93-5.11-3.19-14.17-5.18-16.55-10.21-9.83,10.86-15.02,22.3-16.14,38.63l1.77,2.18.98-1.6c3.7.65,9.42,3.73,11.69,5.95l-.87,2.63c.96.82,2.6,1.83,3.81,2.34.46,3.24.71,8.27-.92,14.01-.67,3.06-4.73,10.02-3.43,11.43,1.05.21,3.78-2.54,4.84-3.29,2.84-1.69,5.79-3.71,8-7.61,8.43-.58,19.96-8.28,26.19-3.86,3.14-2.57.82-17.72,1.72-21.66h0Z"/>
      <g>
        <path class="cls-12" d="m55.87,92.38c1.1-2.9-2.28-2.63-3.73-4.35-.57-1.08.88-1.97.47-3.08-1.49-1.39-8.4-5.4-11.38-6-1.97,3.06-4.42,10.86-3.9,15.16-9.77,9.38-10.27,24.42-15.7,35.68,6.03-1.94,6.68,4.24,8.24-.71,4.34-9.86,14.86-20.49,16.42-32.14,1.86-1.41,1.76-1.67,2.85-3.16-.22,1.24.12,3.67.63,4.74-5.86,7.69-4.93,21.48-7.11,32.45-1.68.62-2.33,1.78-4.29,2.31-2.42.83-4.81.14-7.36,1.51-.46.57-.64,1.78-.52,2.26,9.52.24,8.83-.17,15.49-.32,2.32.16,3.42.62,4.74-.63.88-1.4,2.35-3.96,2.53-5.68-1.56-5.36-3.59-11.02-.32-15.16-.09.07-1.11.78-1.58.32-1.23-3.69,4.69-11.42,4.27-15.98.63-4.74-.4-4.6.26-7.22h0s0,0,0,0Z"/>
        <path class="cls-12" d="m30.16,132.95c-2.12-2.78-3.9-3.64-7.9-3.47-1.65.3-5.47,3.24-8.04,3.59-1.09.24-5.16.45-7.45.83-2.79-.13-3.4-.32-5.67.9-5.38,3.93,14.77,2.24,18,2.57,3.04-.93,13.94,2.35,11.06-4.42h0s0,0,0,0ZM82.72,16.35c.11-5.77-1.01-7.24-3.85-10.63-5.73,2.77-13.67,14.52-13.36,22.78-3.22.02-3.99.36-4.12.64-.76,2.43-2.48,4.34-6.95,11.02,5.66,6.9,15.57,8.12,25.37,14.42-2.53-3.56-5.76-6.6-9.46-8.91-1.05-1.16-.94-6.14,1.17-7.67,3,1.13,7.16,3.47,9.41.53-.08-.64-.15-1.24.29-1.87.98-1.39,1.41-2.08.23-3.48,1.98-2.6,2.67,1.12,1.12-4.07,4.84-.53-.53-5.67-.8-7.41-.55-1.86.63-2.44.95-5.36h0Z"/>
      </g>
      <path class="cls-11" d="m61.49.3c-6.96,1.09-13.22,5.8-15.53,11.76-1.06,2.73-.1,2.63-.77,10.06-.82,8.99-2.35,10.51-3.35,20.62-.03,3.42-2.11,24.42-1.56,23.72,1.41-4.98,5.84-15.54,6.78-16.28,1.1-2.12,4.22-5.91,5.23-7.55,1.04-1.67,1.94-3.54,2.84-1.89,1.57-3.25,5.45-9.13,6.69-12.39l.27,17.44,6.32,2.84c-1.69-16.2-2.3-34.26,10.58-42.81-1.14-1-8.2-6.98-17.5-5.52Z"/>
      <path class="cls-7" d="m78.17,33.18c.54,1.28,3.75,2.52,4.64,1.79.69-.89-1-1.5-1.2-1.61.12-.14,2.44-.35,1.7-1.48-1.44-.6-3.75.95-5.14,1.31h0s0,0,0,0Z"/>
      <path class="cls-5" d="m75.1,21.95c.92-1.16,5.31-2.34,4.73.63-.45.91-4.71.12-4.73-.63h0Z"/>
      <path class="cls-9" d="m77.32,20.98c-.87,1,.47,2.54,1.54,1.67,1.16-1.11-.44-2.91-1.54-1.67h0s0,0,0,0Z"/>
      <path d="m77.95,21.38c-.31.4.2,1.02.64.69.45-.47-.19-1.22-.64-.69h0Z"/>
      <path class="cls-5" d="m78.6,21.02c-.1.14.19.2.17.03,0-.05-.13-.09-.17-.03Z"/>
      <g class="cls-13">
        <path class="cls-10" d="m140.31,175.93c-.37-1.34-.44-3.16-.22-4.4-3.46-1.41-3.27.28-3.09,3.97.05.64,2.23.49,3.31.44Z"/>
      </g>
      <g class="cls-13">
        <path class="cls-10" d="m144.63,175.93c-2.3.28-4.3.22-5.88.06,1.99,3.04,2.46,9.44,1.53,12.44-.69.07-.38,1.04-.27,1.57.17.35-.33,4.45-.51,5.78-.54,3.45-2.15,6.97-3.49,9.79.67.42,1.98,1.33,2.61,1.81.03-.06,2.04,1.76,2.74,1.41-3.98-6.24.34-12.74.3-19.7.33.24.74.54.85.22,1.01-6.3.12-7.55-.39-10.59,2.4-.15,5.06-.47,7.36-1.74.15-.55.38-1.7.47-2.27-1.42.48-3.22.95-5.33,1.21,0,0,0,0,0,0Zm-3.66,12.96c.02.14.18.19.3.14.04.01.21.1.25.11-.02,0-.04,0-.06.02-.07-.04-.17-.03-.24.06-.03-.04-.08-.06-.13-.07-.06-.14-.2-.15-.3-.09h-.03s0-.05,0-.07c.08,0,.15-.02.2-.09h0s0,0,0,0Z"/>
      </g>
      <g class="cls-13">
        <path class="cls-10" d="m154.91,176.4c-.38-.98-.43-2.39-.17-3.31-4.72.12-3.01.99-3.12,4.23,1.15.13,2.24-.42,3.3-.93h0s0,0,0,0Z"/>
      </g>
      <g class="cls-13">
        <path class="cls-10" d="m166.33,205.38c-7.63-5.65-3.77-13.96-6.88-19.95-.05-.39-.32-.42-.88-.22.06-.03.73-.4.78-.37,1.24-.06-1.42-6.02-2.45-6.88,1.74-1.05,6.28-2.48,6.02-4.75-.02-.6-.36-.76-.67.06l-.76.26c-.12-.26-2.5,1.57-2.63,1.58-.86.64-3.11,1.5-4.13,1.84-.21-.23-.57.08-.35.31.22.11.6,1.02.91.77,2.03,2.09,1.96,4.59,2.83,6.95-.01,0-.02.02-.03.03-1.02-.18-.24.86-.06,1.29.42,1.08.22,1.65.7,2.74-.43.86.13,1.61.43,2.79.54,1.39-.1,2.07.46,4.2-.05.65-.13,1.41.13,2.02.09,1.12-.31,2.41.13,3.48.14.51,2.38,1.67,3.53,2.98.83,1.43,1.72,1.73,2.92.87h.01Z"/>
      </g>
      <g class="cls-13">
        <path class="cls-10" d="m94.71,111.15c-2.13-3.62-6.76-6.94-6.4-11.29-1.37-.48-3.49-.42-4.54-.09-.67,3.05,2.06,10.41,5.85,12.59,0,0,5.09-1.21,5.09-1.21h0Z"/>
      </g>
      <g class="cls-13">
        <path class="cls-10" d="m92.44,75.61c-1.68,3.71-2.04,17.84-4.54,23.66l2.52,1.63c1.21-1.79,1.77-6.59,1.44-7.69-.53-5.92,1.06-17.56.58-17.61h0s0,0,0,0Z"/>
      </g>
      <g class="cls-13">
        <path class="cls-10" d="m61.27,71.95c-1.09,2.79-3.54,13.6-3.22,16.75.2,2.38-.24,1.03-1.53,1.93-1.25-.35-.99,1.01-.52,2.53.97.53,2.12.93,3.23,1.11-.27-2.39,1.71-20.88,2.04-22.31h0s0,0,0,0Z"/>
      </g>
      <g class="cls-13">
        <path class="cls-10" d="m141.85,134.56l-.52-.33c-11.79,3.2-25.26,2.25-37.32,2.73-13.6-.02-25.47,1.03-41.38-.54-.59-.06-3.74-.79-3.67-.74,6.23,4.29,28.21,2.01,37.53,2.46,13.4-.76,29.16.24,41.78-2.36-.46,9.65-1.32,23.04-.85,33.5-.33,2.62,1.1,2.2,3.82,2.16-1.61-10.59-1.52-25.37.62-36.88,0,0,0,0,0,0Z"/>
      </g>
      <g class="cls-13">
        <path class="cls-10" d="m64.38,97.38c-.53.41-.61,2.25-.95,2.98-1.23,4.16-3.44,8.03-6.36,11.24-.19.21.12.51.31.31,3.56-4.03,6.41-9.14,7-14.52h0Z"/>
      </g>
      <g class="cls-13">
        <path class="cls-10" d="m64.45,105.25c-3.9,5.5-7.02,6.06-11.56,9.75-5.29,2.18,3.07-12.05,1.95-12.36,0-1.57.75-3.61.75-3.61,1.12-.28-1.67-10.04,1.41-8.58-3.01-8.44-24.22-14.77-16.75-10.08,6.32,6.49,15.07,5.93,5.26,15.67-3.92,12.92-11.34,23.49-18.13,34.15l1.61.76c5.02-11.05,15.36-22.16,17.4-34.08,2-1.52,3.54-4.02,4.47-6.47,4.31-7.58,2.87,12.73.53,16.01-7.03,19.51,3.85,28.23-9.85,30.27,6.27.14,10.01,1.6,11.7-6.32,3.44,3.86,4.46,4.63,4.66,4.48-1-1.57-6.89-12.38-2.54-18.41,1.98-2.99,7.22-6.64,9.1-11.18h0s0,0,0,0Zm-13.1,18.03c.08.15.01.3-.11.39.06-.09-.29-.91.11-.39Z"/>
      </g>
      <g class="cls-13">
        <path class="cls-10" d="m87.9,99.28c-.46-1.63-2.69-3.77-3.06-6.54-.21,1.54,1.14,6.42,3.06,6.54h0Z"/>
      </g>
      <g class="cls-13">
        <path class="cls-10" d="m84.97,60.95c-7.73-3.84-12.46-2.17-14.35-10.74l-.32-.09c-.99-.08-.33,6.13-1.1,6.05-5.9-2.55-15.1-7.87-16.95-12.14,2.38,6.51,10.9,9.68,17.75,13.13.03-1.62.16-5,.33-6.58.61,1.85,1.82,4.74,2.51,6.59,3.52,1.34,8.45,3.04,12.14,3.8h0s0-.01,0-.01Z"/>
      </g>
      <g class="cls-13">
        <path class="cls-10" d="m71.4,38.37c-2.36-.17-8.66-4.69-8.22-4.38.83,1.77,5.05,4.77,5.85,6.02.33.79-.08.98.1,2.44.18,1.52.78,2.69.74,2.71-.49-1.95-.69-5.58,1.52-6.78h0Z"/>
      </g>
      <g class="cls-13">
        <path class="cls-10" d="m80.75,37.85c-1.17,3.35-7.18.1-10-.26.99.08,9.8,4.85,10.01.25h0s0,0,0,0Z"/>
      </g>
      <g class="cls-13">
        <path class="cls-10" d="m30.42,136.54c1-2.66-.88-5.18-3.07-6.13-1.61,3.13-7.65,6.77-10.12,6.99,4.53-.46,8.49.68,13.19-.86h0Z"/>
      </g>
      <g>
        <path class="cls-9" d="m50.46,5.42c-6.22,6.04-3.63,14.59-4.78,22.17-2.96,11.38-3.03,23.24-5.1,34.78-.1.6.82.85.91.25,1.25-7.19,2.05-15.85,2.9-23.16,1.89-8.73,2.76-17.35,2.9-26.22-.47-1.69,5.69-8.84,3.17-7.82,0,0,0,0,0,0ZM66.7.18c-9.46,7.17-10.63,18.97-11.7,29.81-1.83,8.82-8.36,15.51-11.18,23.93-.21.57.71.82.91.25,3.34-9.35,10.76-16.98,11.8-27.19-.09-9.75,2.98-19.83,10.83-26.14.47-.4-.21-1.06-.67-.67h0s0,0,0,0Z"/>
        <path class="cls-9" d="m58.08,1.02c-5.68,4.68-7.67,12-7.41,19.11-1.02,13.39-6.15,25.95-9.11,38.95-.15.59.77.85.91.25,2.8-12.27,7.52-24.1,8.89-36.67.29-7.67.8-15.84,7.39-20.97.45-.41-.22-1.08-.67-.67,0,0,0,0,0,0Zm-9.22,6.49c-4.37,4.4-4.42,10.4-4.26,16.16-3.36,14.33-3.3,29.25-5.24,43.75-.11.6.8.85.91.25,1.75-9.58,1.32-19.78,2.75-29.43,1.14-7.6,3-14.96,2.71-22.68-.53-1.73,5.64-9.13,3.12-8.04,0,0,0-.01,0-.01Z"/>
        <path class="cls-9" d="m52.49,3.92c-6.66,7.36-3.82,17.31-5.77,26.13-2.16,8.65-3.54,17.47-4.47,26.33-.07.61.88.6.95,0,.85-13.82,6.09-27.02,5.47-40.92.39-4.06,2.21-7.84,4.65-11.06.37-.49-.46-.96-.82-.48h0s0,0,0,0Z"/>
        <path class="cls-9" d="m55.14,2.32c-4.73,4.91-6.31,11.88-6.06,18.52-.74,10.23-2.95,20.33-5.41,30.27-.16.59.76.84.91.25,2.68-11.09,5.25-22.38,5.56-33.83-.1-5.33,2.1-10.6,5.67-14.55.4-.46-.27-1.13-.67-.67,0,0,0,0,0,0Z"/>
        <path class="cls-9" d="m60.5.45c-7.39,5.67-8.17,14.82-8.87,23.38-1.46,9.11-4.3,17.91-7.09,26.68-.19.58.72.83.91.25,5.04-13.18,6.85-27.1,9.25-40.83-.21-2.27,8.88-10.65,5.8-9.49,0,0,0,0,0,0Z"/>
        <path class="cls-9" d="m62.83.19c-10.59,7.73-8.55,21.43-11.31,32.73-.77,2.59-12,25.65-7.89,24.77,1.85-13.24,11.15-24.06,10.88-37.84.14-6.58,2.59-13.16,7.49-17.67.58-.49,2.78-2.26.83-2h0Z"/>
        <path class="cls-9" d="m65.14.11c-14.37,9.81-7.34,29.23-16.6,41.99-1.48.72-6.52,12.95-3.27,10.58-.18-6.43,5.55-10.68,7.4-16.5,4.47-11.25,1.01-27.41,13.15-35.4.48-.38-.2-1.04-.67-.67h0Z"/>
        <path class="cls-9" d="m68.65.55c-16.51,11.97-6.52,28.66-18.83,43.63,0,0-6.12,9.55-6.12,9.55l-1.15,1.77c-.33.51.49.99.82.48,3.56-5.66,9.35-14.12,12.32-19.99,4.58-11.24.69-24.85,11.82-33.29.55-.52,3.01-2.1,1.14-2.14h0Z"/>
      </g>
      <g>
        <path d="m70.46,50.03c-.29.38,2.85,8.31,2.95,5.88-.84-1.59-2.14-4.79-2.95-5.88h0Z"/>
        <path d="m86.03,61.11c-3.45-1.53-9-3.69-12.5-5.24-3.8.04,12.85,6.03,12.5,5.23,0,0,0,0,0,0Zm-16.15-10.9c-.03.43-1.59,7.18-.28,5.68.14-1.41.37-4.25.47-5.66.01-.1-.16-.13-.18-.02h0Z"/>
        <path d="m51.78,42.05c1.52,7.69,11.05,10.79,17.22,14.11.41.17.77-.43.36-.61-6.64-3-14.73-6.83-17.58-13.5Zm10.37,16.74c.51,10.9-4.67,21.01-4.69,31.88-.02.41.63.41.64,0,.08-4.15.67-8.32,1.61-12.36,1.36-6.16,4.21-13.67,2.44-19.52h0s0,0,0,0Z"/>
        <path d="m56.77,68.58c-.79,6.78-.17,15.54.58,22.31,1.2,1.36-.74-8.8-.5-8.77,0,0-.04-8.67-.04-8.67-.11.06.42-5.52-.04-4.87Zm-7.06,5.82c-1.53-8.55-3.36-17.83-.81-26.36-3.59,1.2-1.25,22.74.81,26.36Z"/>
        <path d="m51.63,43.45c-6.56,5.44-15.76,29.15-12.92,35.29.46-12.55,5.85-25.68,12.92-35.3h0s0,0,0,0Zm-12.66,35.35c7.06,2.04,14.48,5.49,18.3,12.11,2.3.25-3.65-5.74-4.56-6.31-1.42-1.64-12.98-7.47-13.75-5.8h0Zm.13-1.62c6.8,1.26,13.01,4.73,17.37,10.16.26.29.69-.14.43-.43-4.25-5-11.45-10.33-17.79-9.73h0Z"/>
        <path d="m38.59,79.08c-.2.85,2.13,3.01,1.38,1.42-.19-.14-.49-.46-.65-.64-.26-.14-.44-1.08-.73-.78h0,0Zm13.24,8.87c.39.87,5.52,3.99,5.02,2.33-1.75-.2-3.77-2.41-5.02-2.33Zm6.33,9.74c-.35,5.03-9.67,14.72-6.62,18.07-.49-6.62,6.75-12.1,6.63-18.08,0,0,0,0,0,0Z"/>
        <path d="m64.29,95.16c-1.48,8.12-5.69,15.9-12.79,20.43-.34.22-.02.77.32.55,6.65-4.45,12.91-13.22,12.47-20.98h0,0Z"/>
        <path d="m66.07,99.48c-1.47,5.91-5.84,10.58-11.04,13.55-.35.21-.03.76.32.55,4.87-2.88,11.06-8.46,10.72-14.1Zm-10.65-9.14c.31,5.58-.03,11.59-1.98,16.88,1.19,1.64,2.32-7.11,2.54-8.29.13-1.06.84-9.72-.56-8.59,0,0,0,0,0,0Zm87.84,43.08c-6.01,2.92-12.75,3.52-19.35,3.64-13.36.29-31.96,1.06-45.13.8-5.85-.59-15.85.84-20.77-3.08-4.53-3.84-7.58-10.47-5.9-16.38-.03-.69,1.93-3.08.25-2.42-3.91,6.84.25,16.16,6.38,20.22,11.96,4.33,26.55,1.76,39.2,2.22,12.59-1.29,35.59,1.83,45.31-5h0Zm-58.13-19.29c13.99-5.89,29.12-.89,43.54.32,13.51-1.23,21.74,8.03,23.99,20.63,1.94.76-2.09-8.14-2.5-9.32-3.02-7.61-10.34-12.16-18.46-11.71-15.2-.65-32.65-7.21-46.57.08h0Z"/>
        <path d="m154.78,166.65c.5-8.05.35-16.83-.52-24.82-.33-1.01-.3-8.67-1.5-6.85,1.71,10.2,1.5,21.92,2.02,31.67h0Zm-8.93,3.34c-.12-11.13-1.04-22.75-.27-33.87,2.13-10.35-8.39-7.28-14.76-8.08-12.48-.57-24.98-.2-37.41-1.86-4.81-.35-9.63,1.73-14.39.3-8.75-1.5-8.06-12.05-5.66-18.54-1.38-1.95-2.3,6.58-2.35,7.69-1.02,6.73,3.97,12.06,10.65,12.14,8.93-.98,17.71-.48,26.64.57,8.51.55,17.04-.34,25.52.71,7.8-.34,12.76-.78,10.89,9,.13,8.89-.31,23.93,1.15,31.94h0s0,0,0,0Zm-93.67-45.33c.99.1,7.13-4.32,5.26-4.5-1.48,1.77-3.43,3.06-5.33,4.33-.09.05-.03.21.07.17h0Zm16.42,12.22c-.28.28.09.86.34.41.14-1.07.05-2.74.08-3.84-.92-1.32-.53,1.62-.54,1.93.04.56-.04,1.37.05,1.91l.32-.25c-.06-.1-.09-.32-.24-.17h0Z"/>
        <path d="m57.73,120.53c1.95,5.11,6.68,9.41,10.82,12.82,1.63-.15-2.52-2.58-2.83-3.31-1.75-1.77-4.21-4.19-5.59-6.25-.74-.75-1.56-3.17-2.4-3.26h0Zm24.65-16.13c1.8,6.79-1.79,13.87-8.84,15.41-.94,1.77,3.4-.63,3.96-1.07,4.97-2.19,7.69-10.44,4.88-14.34,0,0,0,0,0,0Zm-10.03,8.2c1.39,0,3.25-.34,4.52-.6.21.32-.19,6.77.52,5.57.17-1.87.24-3.92.08-5.79-.24-.81-1.76-.09-2.31-.13-.51.22-3.39.11-2.81.93h0s0,0,0,0Zm17.54-11.88c-2.87-4.39-13.51,1.5-17.79,1.95.22.19-10.36,2.01-7.6,2.76,0,0,12.48-3.29,12.48-3.29,2.96-.53,8.59-3.57,11.52-1.93.27.03,1.43.92,1.38.51h0s0,0,0,0Z"/>
        <path d="m84.82,92.75c-.33,2.2,4.09,9.39,5.72,8.11-2.27-1.11-3.54-3.5-4.5-5.71-.39-.56-.57-2.37-1.22-2.41h0s0,0,0,0Zm-1.57,7.8c.83,1.18.87,2.8.86,4.23.78.53.17-4.55-.86-4.23h0Zm1.38-.21c.94.76.45,4.84,1.11,4.42.01-1.06-.04-4.59-1.11-4.42Zm-23.91,9.79c6.95-1.01,15.46-3.67,22.12-5.89.38-.13.22-.74-.17-.61-6.95,2.7-15.47,4.2-21.95,6.51h0s0,0,0,0Z"/>
        <path d="m85.82,103.12c.43.07,3.97-.81,2.32-1.27-.34.26-3.06.68-2.32,1.27h0Z"/>
        <path d="m88.31,100.09c-1.33,1.49,5.61,12.13,5.99,10.18-2.27-2.64-5.16-7.21-5.99-10.18h0Zm50,35.98c-.99,10.42-3.29,25.47-.45,34.34-1.68-11.15.79-24.07.46-34.34h0,0Zm24.18,30.88c-.69-5.96-2.33-15.21-3.37-21.19-2.01-8.99-2.76-19.92-11.63-24.99-2.38-.15,4.96,4.37,5.09,5.74,6.67,12,6.19,28.06,9.9,40.45h0Zm-7.18-.06c-5.25,3.74-12.01,4.57-18.3,3.95-.43-.05-.43.63,0,.68,5.94.46,14.66.04,18.29-4.63,0,0,0,0,0,0Zm-18.29,8.9c6.43,1.4,13.51-.47,19.02-3.92.34-.22.03-.76-.32-.55-4.32,2.68-9.26,4.22-14.36,4.29-.77.23-4.7-.65-4.33.19,0,0,0,0,0,0Z"/>
        <path d="m136.92,171.58l-.16,3.32c-.01.29.44.29.45,0-.14-.05.43-4.3-.29-3.32Zm18.29-4.18c-.14.96.13,2.36.16,3.34,1.12,1.97.54-4.61-.15-3.34h0,0Zm8.49-.37c-1.78,1.15-3.35,2.84-5.29,3.8-.72,1.03-7.62,2.28-5.99,3.01,3.93-1.09,9.59-3.3,11.29-6.81h0Zm-12.09,10.51c1.69.88,15.37-5.83,12.49-6.46-2.5,2.15-5.56,3.81-8.64,4.97-.37.24-4.32,1.18-3.85,1.49h0,0Zm-.32-3.36c.2.37-.04,4.15.66,2.82.08-.51-.09-3.17-.66-2.82h0s0,0,0,0Z"/>
        <path d="m163.81,167.57c.08.41-.09,4.4.73,2.91.04-.83.17-2.69-.73-2.91h0Zm-24.88,8.72c.75,3.63,1.89,7.64,1.42,11.44,1.67,1.56.04-11.76-1.42-11.44h0Zm10.7-.56c-1.05,1.39,1.08,12.84,2.49,10.92-2.14-3.15-1.75-8.07-2.49-10.92h0Zm5.16,1.94c.93,2.17,2.41,4.31,2.94,6.68,1.94,1.3-2.05-7.34-2.94-6.68h0,0Zm8.03-4.58c-.82,1.2,2.99,10.73,3.68,8.08-1.61-1.65-2.47-4.02-2.99-6.23-.21-.41-.18-1.87-.69-1.85h0Zm-26.49,32.08c1.85-2.27,5.59-16.26,3.17-16.7.51,5.64-1.79,12.05-3.17,16.7h0Z"/>
        <path d="m137.3,203.96c6.09,5.76,15.57,8.36,23.04,11.9,3.35,1.31,13.21,6.18,12.63-.83-5.87-11.2-17.8-12.32-17.93-27.48-1.26-3.06-5.56,2.06-3.06,1.28.35-.86,1.72-2.19,2.34-.83-.21,13.11,10.34,16.51,17.11,25.53,7.31,13.36-31.98-8.13-34.13-9.57h0,0Z"/>
        <path d="m172.85,217.28c-4.95,6.21-22.39-4.97-28.79-7.15-1.32-.12-9.05-6.33-8.05-3.83,4.7,3.34,35.6,19.91,36.84,10.98h0Z"/>
        <path d="m164.35,217.92c-5.12-2.31-11.85-4.95-17.02-7.3,0,0-2.93-1.32-2.93-1.32-1.41-.13-7.98-6.05-7.62-4.12,6.28,5.31,16.53,8.62,24.01,11.83.49.1,3.62,1.56,3.56.92h0Zm5.21-6.64c-1.16,1.2-4.25,3.22-3.96,4.96.82-1.67,3.18-3.78,3.97-4.96h0Zm-17.25-21.7c.21,9.71,8.31,17.05,14.89,23.3.29.26.72-.16.43-.43-6.81-6.09-14.11-13.94-15.32-22.87h0Zm-12.12-1.07c1.31,2.11,11.67,3.24,11.55,1.15-3.71,1.41-8.37-.18-11.55-1.15h0s0,0,0,0Zm10.99,2.98c-.63-.49-1.01.75-.28.89.88.27,1.07-1.31.11-1-.25.15.08.42.18.31.05-.02-.03,0,.01,0,.02,0,.05,0,.06.01-.06-.03.07.05.01,0,0,0,.04.04.04.04-.03-.03,0,0,0,.02.02.03,0-.01,0-.01s0,.04.01.04c0,.03,0,0,0,0,0,.05-.02.12-.02.11-.01.03-.04.06-.05.08v-.02s-.03.04-.04.05c.04-.02-.02.02,0,0,0,0-.11.06-.05.04-.03.01-.06.02-.09.03,0,0-.07,0-.09,0,.04,0-.03,0,0,0-.02,0-.1-.03-.05-.01-.02,0-.04-.02-.06-.03,0,0-.08-.07-.04-.04-.02-.01-.03-.05-.04-.07.01.04,0-.02,0,0,0-.03-.01-.06-.02-.09.01.08,0-.11,0-.05,0-.04.02-.08.04-.11-.02.03.01-.02.03-.02.01-.02.15-.08.15-.07.06-.02.22,0,.16-.1h.01Zm.99,3.24c-.9.02-.98,1.49.03,1.11.4-.19.47-1.05-.06-1.07-.39-.01-.24.6.06.3,0,0-.04.04-.02.03.02,0-.04.01,0,0,.03,0-.01,0-.01,0,.02,0,.03,0,0,0,.02,0-.02-.01,0,0-.04-.03.02.02.02.04-.01-.06.03.13.02.06v.13s0,.04,0,0c0,.03-.04.14-.03.11-.01.03-.03.06-.05.08.02-.03-.03.03-.04.03h0s-.01.02,0,0c0,0-.04.02-.05.03.03,0-.03.02,0,0-.08.02-.06.02-.14.02h0s-.04-.01-.06-.01c.04.02-.07-.05-.04-.02.02.03-.05-.05-.01,0-.01-.01-.02-.03-.03-.04,0,.04-.01-.02,0,0,0-.02,0-.03-.01-.05,0,.04,0-.02,0,0-.01-.05.03-.14.02-.15,0-.01.07-.12.05-.09.06-.17.73-.37.35-.49h0s0,0,0,0Zm1.74,5.26c.35-.15-.15-.48-.37-.34-1,.33.06,1.65.64.85.45-.68-.89-.94-.29-.32l-.02-.02s.01.02.02.02c.02,0-.05-.05,0,0,0,0,0,.02.01.02-.03-.07.01.06,0,.02,0-.03,0,0,0,0,0,.01,0,.04,0,.05,0,.03,0-.05,0-.01,0,.02,0,.04-.01.05-.01.04,0-.01,0,0-.03.06-.02.02-.06.07.08-.06-.1.06,0,0-.08.03-.05.02-.15.02h.03s-.02,0-.03,0c-.11-.04-.1-.02-.19-.11.04.04.02.02,0,0-.03-.04-.03-.06-.02-.03-.01-.11-.03-.03,0-.16-.03.05.04-.07.03-.05.01-.02.1-.1.05-.05.03-.02.07-.04.1-.06h-.02c.05,0,.07-.02.12-.02.02.01.05.01.08.01.01.02.02.02.02.02.02.01-.02-.03,0,0,0,0,.02.02,0,0-.02-.04,0,.06.05.04h0s0,0,0,0Zm2.79,3.46c-1.65-.68-.72,2.19.19.67.28-.55-.92-.99-.46-.34-.06-.02,0,0,.02.01h0c.1.1.08.06.09.22,0-.1,0,.02-.02.04.03-.08,0,0,0,.01,0,.02-.03.03,0-.01-.02.02-.04.04-.06.06.07-.06-.01.01-.04.02-.03.02.05-.02,0,0-.03,0-.06.02-.09.02h.05s-.08,0-.12,0h.05s-.07,0-.09-.02c.06.02.02,0,0,0-.07-.05-.09-.08-.11-.18,0-.02,0-.1.02-.16,0-.05.21-.22.41-.12.07.1.34-.07.15-.21,0,0,.01,0,.01,0Zm3.18,3.43c-.84-.69-1.33,1.06-.25.9.84-.19-.03-1.49,0-.57-.04-.06,0,0,0,.01.01.03-.02-.04,0-.02s.01.04.02.07v-.05s0,.06,0,.09v-.05c-.02.1,0,.04-.05.13.05-.07,0,0-.02.01-.03.03.03-.02,0,0-.02.02-.1.04-.02.02l-.06.02s.05,0,0,0c-.06,0,.02,0,0,0-.02,0-.09-.04-.02,0-.07-.04-.04-.01-.11-.09.07.1-.07-.14-.02-.04l-.02-.08s0,.04,0,.01c0-.02.01-.11,0-.04,0-.01,0-.05.02-.06-.02.05,0,0,.02-.02-.03.03.08-.09.04-.04.01,0,.04-.02.06-.03-.1.03.15-.04.06-.02.05,0,.1,0,.14,0h0s.05.02.07.02c.09.1.28-.06.17-.18v.02s0,0,0,0Zm2.94,3.35c.07,0,.16-.01.19-.09,0-.85-1.27.07-.66.57.36.45,1.12-.12.71-.55-.2-.19-.47.15-.24.3,0,0-.03-.04-.02-.02,0,0,.02.03,0,0s0,0,0,.01c-.02-.08,0-.03,0,0,0,.03,0-.05,0-.02-.03.1.02-.01-.02.05-.02.04.02-.03,0,0-.02.02-.04.04,0,0,0,0-.02,0-.02.01-.02.01-.05.02,0,0-.09.02.04,0-.05,0-.01,0-.03,0-.09-.04,0,0-.07-.08-.03-.03,0,0-.05-.11-.03-.04-.02-.03-.01-.09-.01-.04-.03-.11.09-.23.14-.25.06-.02.11-.03.1-.02.03.01,0,0,0,0,0,0,.02.01,0,0,.03.02.04.03.02,0h0s0,0,0,0,0-.03,0,0v.02s.02.06.04.06v-.05c-.07-.01-.1.08-.02.1h-.01s0,.01,0,.01Z"/>
        <path d="m165.85,212.5c-.59-.37-1.14.63-.47.9.54.29,1.07-.46.48-.78-.46-.11-.26.38-.14.4.01.02.04.06.01.01,0,0,0,.03,0,.04v-.05s0,.04,0,.04v-.05c0,.05.02,0,0,.01-.03.05,0,.01,0,.01-.06.05,0,0-.02.02-.03,0-.02.02-.09.03h.05s-.07,0-.1,0h.05s-.07-.01-.11-.02h.03c-.09-.04-.05,0-.11-.06,0,0,.03.04.02.02,0,0-.04-.08-.02-.02,0,0-.01-.05-.01-.06v.03c-.01-.06.05-.15.07-.16.05-.06.23-.08.21-.07.15.08.29-.11.15-.21h0s0,0,0,0Zm.94-.49h-.02c.38-.16.71-.51,1.09-.69.22-.24,1.7-.69,1.36-1.21-.26-.73-3.41,1.78-2.42,1.89h0Z"/>
        <path d="m165.68,212.62c.05-1.44.78-3.37,1.21-4.74-.74-1.89-2.07,4.94-1.21,4.74h0Zm-2.92-2.33c.58-1.44.45-3.2,1.25-4.59-.63-2.46-1.9,4.75-1.26,4.59h0s0,0,0,0Zm-3-3.24c.17-1.13.83-2.63,1.27-3.69-.46-2.15-2.07,3.85-1.28,3.69h0Zm-3.49-3.21c.27.19.42-.38.48-.54.35-.98.63-2.15,1.31-2.96.04-1.55-1.38.77-1.39,1.38-.14.6-.4,1.37-.36,1.95-.1,0-.13.12-.05.17Zm-2.33-3.69c.24-.56.57-1.46.85-2.01.11-.56,2.14-2.66.71-2.23-.72,1.07-2.14,3.22-1.57,4.24h0Zm-1.67-4.88c.34-.44,1.04-1.32,1.38-1.75.33-.73,1.77-1.23,1.56-2-.59-.71-3.8,3.99-2.95,3.75Z"/>
        <path d="m168.43,209.52c-.45-.57-5.65-.12-3.79.59,1.07-.69,3.06-.16,3.79-.59h0Zm-2.95-2.49c-1.19-.27-3.03-1.12-4.24-.61-.4.19-.05.81.35.6.88-.42,3.53.49,3.88,0h0s0,0,0,0Zm-3.04-2.61c-1.37-1.64-6.5.13-1.6-.06,0,0,.77.02.77.02.23-.04.81.38.83.04h0Zm-3.22-3.28c-.69-.43-2.14-1.14-2.9-1.44-.43-.13-.62.56-.19.67.04-.09,3.44,1.3,3.08.76h0s0,0,0,0Zm-2.85-3.67c-.77-1.73-4.74-1.86-1.27-.42.08-.03,1.41.86,1.27.42h0Zm-.81-3.28c.03-2.19-5.97-3.56-1.34-.93.41.24.84,1.05,1.34.93h0s0,0,0,0Z"/>
        <path d="m150.94,191.85c.3.33,6.05-.42,4.31-1.08-1.1.08-2.26.38-3.31.7-.23.12-1.13-.02-.99.38h0s0,0,0,0Z"/>
        <path d="m154.02,191.03c-3.1.7-3.54,5.73-2.77,8.32,2.77,1.86,4.25-6.13,3.33-7.95-1.5-.89-.42,3.01-.17,3.79,3.53,7.15,7.17-1.99.52-4.29-.48-.26-.91.48-.43.73,7.81,3.97.05,9.38.1-.12l-.72.1c.7,2.4.15,5.95-1.92,7.48-1.01-2.65.2-6.48,2.07-8.06h0Z"/>
        <path d="m149.43,201.09c.83-3.3,2.12-6.6,4.37-9.21-.51-2.58-5.79,8.63-4.37,9.22h0Zm11.17-5.54c-.33-1.79-2-2.97-3.38-3.97-.43-.32-3.13-.89-1.97.24,1.65.14,3.12,1.23,4.12,2.49.27.32.82,1.53,1.22,1.23h0Z"/>
        <path d="m157.33,184.99c.98,5.09,2.27,10.44,1.77,15.69,1.96,1.68-.21-15.65-1.78-15.68h0Zm4.93,18.62c4.45-.14,11.21-.54,15.73-.61,0,0,7.79-.25,7.79-.25,2.96-.11,11.62-2.62,7.59-6.48-1.46-1.04-4.29-.82-5.98-.99-6.86-.73-15.79-3.26-18.38-10.38-.06-1.85-2.38-4.47-3.43-1.73-.07.44.6.62.66.18,1.25-2.42,2.22,2.24,2.61,3.03,4.22,7.78,14.52,9.49,22.61,9.9,2.73.32,3.19,2.72.59,3.84-6.2,3.42-14.8,1.68-21.62,2.44-1.04.33-9.15-.13-8.18,1.06h0,0Z"/>
        <path d="m194.54,198.39c-1.8,10.06-25.78,4.06-29.69,7.83,6.64-1.65,30.66,1.69,29.7-7.83h0s0,0,0,0Z"/>
        <path d="m163.24,204.64c.92.86,3.12.08,4.24.12,0,0,4.92-.27,4.92-.27,1.2-.28,17.53.28,14.96-1.69-5.23.97-13.49.6-18.87,1.12-.81.09-3.16.32-3.94.4-.39.1-1.57-.39-1.31.32h0Zm27.08-8.28c-1.11-.02-2.5,5.83-1.1,4.68-.26-1.65.93-3.3,1.1-4.68h0s0,0,0,0Z"/>
        <path d="m166.54,183.73c1.29,10.66,13.32,14.23,22.58,14.46.41,0,.4-.62,0-.63-9.55-.07-20.17-4.31-22.58-13.83h0Zm-8.4,1.51c.67.63,9.33-.62,7.82-1.48-1.87.59-4.02.84-5.98,1.02-.48.09-1.8-.13-1.85.46h0Zm5.78,4.34c-1.25-.8-2.76.7-3.26,1.8-1.82,5.54,6.19,5.46,5.72.16.19-2.64-5.54-2.62-3.31-1.31.97-.24,2.22.07,2.53,1.14-.51,7.73-8.84.83-1.68-1.79h0Zm23.51,9.14c-.38-.5-1.03.29-.57.67.3.32.88-.05.73-.46-.14-.3-.4.05-.29.14-.01.05-.01.03-.04.08.06-.07-.09.07-.01.01-.05.04-.09.04-.08.04.05,0-.1,0-.01,0-.01,0-.1-.04-.03,0-.02,0-.04-.02-.05-.03.06.04-.02-.01-.02-.02.06.07-.03-.03-.02-.05.02.08-.03-.13-.01-.04v-.12c-.01.09.03-.11,0-.03.02-.06.09-.1.11-.12.05-.03.12-.02.12-.03.06,0,.19.08.16-.04h.01s0,0,0,0Zm-4.79-.7c-.36-.13-.76.3-.59.65.29.66,1.23-.01.72-.51-.28-.2-.35.23-.21.29-.03-.06,0-.02,0,0,0,0,0,.05,0,.01,0-.05,0,.04,0,.04,0-.04,0,.04,0,0,0,.01-.03.08,0,.04.03-.04-.07.09,0,.01,0,0-.01.02-.02.02.03-.02-.03.03,0,0,0,0-.02.02-.03.02h.02s-.02,0-.02,0c.05,0-.04,0-.04,0-.02,0,.04,0,.02,0-.02,0-.09-.04-.03,0-.02,0-.07-.04-.04-.02-.04-.05-.02,0-.04-.06.02.05-.01-.06,0-.08,0-.02,0,.04,0,0,0-.01.02-.08,0-.03-.01-.12.49-.19.29-.41h0,0Z"/>
        <path d="m177.48,196.41c-1.26-.57-.73,1.84.15.61.23-.6-.65-.9-.27-.25,0,.09,0,.07-.02.15,0,.02-.01.02,0,0-.01.04-.05.07-.08.1.05-.04-.04.02-.03.02.06-.03-.03.01-.04,0-.03,0,.04,0,0,0-.03,0-.12-.02-.09,0-.02,0-.07-.03-.08-.04.03.03-.03-.03-.04-.05.02.04-.03-.06-.02-.06h0s0-.07,0-.07c-.01.06.03-.09.01-.05,0-.03.08-.13.06-.11.03-.04.11-.11.12-.12.08-.12.34.05.31-.11h0Zm-4.33-1.98h0s.02.04.02.04c-1.01-.71-.83,1.56.25.77.55-.41-.57-1.26-.26-.53.01.02.04.03.05.05-.05-.07.06.11.02.03.03.1.02.05.02.14,0,.02,0-.02,0-.02,0,.04-.04.11-.03.08-.03.03-.03.01,0,.01-.01,0-.03.03-.05.03.02,0-.03.02,0,0-.08.02-.1.01-.19.01.02,0-.04,0,0,0-.03,0-.06-.01-.08-.01-.07-.05-.04-.01-.09-.07.02.02-.02-.02,0,0-.01,0-.04-.09-.03-.04-.01-.03-.02-.06-.03-.1,0,.07,0-.05,0-.05-.02.04.05-.12.04-.09,0,0,.08-.07.04-.04.02-.02.06-.04.08-.04,0-.02.15-.03.12-.03.07,0,.1-.02.13-.06h-.05c.05.03.1-.03.04-.07h0s0,0,0,0Zm-3.88-2.4c.13-.22-.12-.26-.28-.18-1.09.57.8,1.4.53.28-.29-.43-.59.15-.28.16.03.02-.02-.02,0,0,.02.02-.01-.02,0,0,0,0,.03.05.01.02-.01-.04.01.02,0,.03,0-.05,0-.02,0,0,.02-.07-.04.06,0-.02,0,0-.01.02-.02.03.03-.03-.01,0-.02.01h.02s-.07.02-.02,0c-.09.03-.11.02-.18,0,0,0-.03,0,0,0-.05-.03.01.01-.03-.02-.02-.03.02.02,0,0l-.02-.03s-.01-.03,0,0c-.02-.03,0-.13,0-.11.03-.06.05-.07.1-.11,0,0,.04-.03.09-.05-.03,0,.07-.02.08-.03l-.12-.02s.09.1.13.05c0,0,0,0,0,0Zm-2.12-3.45c.01-.25-.38-.19-.48-.04-.62.98,1.34.89.62-.03-.19-.17-.39.15-.18.27l-.02-.03s.02.04.04.06l-.02-.04s.02.05.02.08v-.04s0,.05,0,.08v-.04s0,.05-.01.08l.02-.04s-.02.04-.04.06l.02-.03s-.03.04-.05.05l.03-.02s-.03.02-.05.03l.04-.02s-.05.02-.08.02h.04s-.06,0-.09,0h.04s-.05,0-.08-.02l.04.02s-.05-.02-.07-.04l.03.02s-.04-.03-.05-.05l.02.03s-.02-.04-.04-.06l.02.04s-.02-.05-.02-.07v.04s0-.08,0-.08v.04s0-.06.02-.09l-.02.04s.03-.06.05-.08c-.04.05,0,0,.01-.01.03-.02-.02.02,0,0,.01-.01.03-.01.04-.02-.03,0,.17-.02.18-.07-.03.04,0,0,0-.02h-.01s0,0,0,0Zm-.99-3.61c-.77-.37-.62,1.02.09.61.62-.34-.4-1.2-.14-.43l-.02-.03.04.06-.02-.04s.02.05.02.08v-.04s0,.06,0,.09v-.04s0,.05-.02.08l.02-.04s-.02.04-.04.06l.02-.03s-.02.03-.04.04l.03-.02s-.04.02-.05.03h.04s-.04,0-.06,0h.04s-.07,0-.07,0h.04s-.07,0-.1-.02l.03.02s-.05-.03-.06-.04c.03.02-.03,0-.03-.09,0,.03,0-.03,0-.04h0s.02-.02.03-.03c.05-.13.34,0,.26-.16h0s0,0,0,0Zm22.83,10.86c-.58.43-1,1.13-1.27,1.79-.11.5.62.55.68.06-.05-.29,1.58-2.07.59-1.85h0Zm-1.72,3.19c-.53-1.04.19-2.81-.52-3.51-.67.28-.29,1.43-.28,2.03.04.28.55,1.92.8,1.48h0Zm-4.84-.47c-.09-1.11-.55-2.33-.16-3.43-1.12-1.85-.71,3.81.16,3.43h0s0,0,0,0Z"/>
        <path d="m177.22,196.84c-.17-1.21-.09-2.45.14-3.65-1.03-1.97-.82,4.14-.14,3.64h0Zm-4.14-1.98c-.01-.64-.03-2.27.05-2.89.03-.39.46-1.71-.34-1.13-.34,1.05-.44,3.53.29,4.02h0,0Zm-3.77-2.66c.31-1.09.53-2.75.96-3.77-.59-2.08-1.58,3.94-.96,3.77h0Zm-2.12-3.41c.48-1.19.83-2.53,1.54-3.62-.39-2.1-2.31,3.69-1.54,3.62h0,0Zm20.3,7.02c-2.2-.27-6.7,2.87-1.64.87.35-.18,2.02-.37,1.64-.87h0Zm-4.71-.81c-1.33,0-2.67.14-3.91.65-.84,1.24,1.63.07,2.18.02.19-.16,2.29-.39,1.73-.67h0s0,0,0,0Z"/>
        <path d="m178.82,193.86c-.3-.37-5.53-.23-3.87.58,1.01-.44,3.21.11,3.87-.58h0Zm-3.27-1.7c-.55-.3-6-1.18-4.46.02,1.31-.5,3.63.61,4.46-.02Zm-4.11-2.43c-.25-.62-3.66-1.26-2.35-.17.6-.1,2.11.68,2.35.17h0s0,0,0,0Zm-2.05-2.95c-.38-.54-1.05-.88-1.62-1.2-1.09-.02-.13.78.58,1,.22.06,1.06.64,1.04.2h0Zm-3.24-1.4c.77.31,3.22-1.43,1.51-1.26-.25.19-.54.36-.82.48-.19.05-1.47.45-.69.77h0s0,0,0,0Z"/>
        <path d="m167.55,184.27c-3.04,7.91,5.67,8.5.6.35-1.66-.54.48,2.31.94,2.78,4.91,3.32,4.36-5.15-.86-3.52-.47.15-.27.89.2.74,6.19-.77,2.38,6.67-.29,0l-.57.44c.81,1.09,2.33,3.97.93,4.83-1.24-1.4-.94-3.76-.65-5.5.05-.18-.2-.29-.3-.13h0s0,0,0,0Z"/>
        <path d="m164.88,192.74c.02-2.6.84-5.21,2.37-7.34-.9-2.31-3.74,7.17-2.37,7.34Zm9.4-4.2c.38-1.41-6.74-5.95-5.74-3.69,2.38.07,4.08,3.01,5.74,3.69Zm-29.15-16.95c-.15.35-.41,4.07.19,3.39-.02-.57-.07-2.01-.04-2.56-.04-.19.14-.92-.16-.82h0Zm1.05-.17c-.1.15-.26,4,.23,3.22,0-.54.01-1.96,0-2.48-.05-.17.09-.85-.21-.74h0,0ZM40.84,79.54c-1.77,1.8-5.04,12.55-3.09,13.06-.07-4.47,1.44-8.91,3.33-12.92.04-.13-.15-.25-.24-.14Zm11.83,5.54c-1.24,3.2-2.87,8.24-5.44,10.64-.29.3.22.71.46.36,1.75-2.91,5.48-7.85,4.98-11h0Zm-12.89,7.43c.63-.17,1.63.49,2.26.62.64.03,2.43,2.2,2.25.8-.85-.99-3.98-2.42-4.51-1.41h0s0,0,0,0Zm-2.31,1.1c-9.54,8.41-11.16,22.14-14.78,33.71-.11.45.57.64.7.19,1.53-5.61,3.11-11.19,4.92-16.72,1.36-6.41,5.92-12.6,9.16-17.18h0Zm8.68,2.79c.3,4.34-3.37,9.7-5.18,13.44-3.19,6.31-8.49,13.08-11.61,19.36-.17.37.37.69.55.32,2.05-4.38,5.03-8.22,7.58-12.31,3.18-6.4,9.45-13.86,8.68-20.82h0,0Zm-24.5,33.16c4.05.34,10.47,1.94,8.25,7.38-.12.39.49.56.61.17,2.66-5.32-4.95-9.18-8.86-7.55,0,0,0,0,0,0Zm27.44-35.31c-.97.56.38,5.86,1,3.93-.91-1.08-.44-3.01-1.01-3.93,0,0,0,0,0,0Z"/>
        <path d="m49.53,98.93c-6.38,8.55-4.91,21.22-6.84,31.33-.03.35.5.34.54,0,1.44-9.43,1.78-23.32,6.3-31.33,0,0,0,0,0,0Zm3.4,31.93c-.38,1.8-1.31,3.49-2.48,4.9.07,2.65,3.76-5.3,2.49-4.9h0s0,0,0,0Zm-31.73-1.06c-1.7.3-2.87,1.71-4.39,2.44-3.03,1.81-12.86-.45-13.21,3.93,1.64,2.51,6.4.97,9.01,1.43.25,0,.25-.39,0-.39-2.37-.11-5.23.15-7.55-.26-3.09-1.14,1.08-3.43,2.79-3.07,6.18-.56,8.38-.24,13.36-4.07h0Zm-2.94,4.46c-6.36-.24-8.2,4.46.03,3.12.27-.02.27-.43,0-.42-1.48-.05-3.83.66-5.09-.25.29-2.17,3.76-1.95,5.05-2.46h0s0,0,0,0Zm-13.1-.54c-3.33-.85-8.48,3.19-2.22,3.49.29.04.35-.36.05-.4-2.15-.06-4.02-.79-1.21-2.29,1.01-.36,2.28-.64,3.36-.68.07,0,.08-.1.02-.12h0,0Zm20.18-.91c3.76,3.66,1.86,4.85-2.56,4.25-3.92-.02-4.27.87-.04.41.73,0,2.21.04,2.94.09,3.49.28,1.68-4.71-.34-4.76h0s0,0,0,0Z"/>
        <path d="m27.71,137.14c.02.06.08.07.13.07l-.07-.03c.19.12.54-.03.76-.03.14-.07,1.01.01.9-.32-.06-.3-.8.05-.96.03-.2.07-.57.04-.71.21l.06-.05s-.12.06-.11.13h0s0,0,0,0Zm13.98-5.8c-2.14,4.82,4.59,6.53,8.09,5.49.25-.08.14-.49-.11-.4-3.66,1.05-9.21-.63-7.98-5.1h0s0,0,0,0Z"/>
        <path d="m41.05,131.8c-3,2.22-6.83,1.4-10.16,2.7-.49.95,3.65-.87,4.51-.57,1.87-.11,4.62-.59,5.64-2.13,0,0,0,0,0,0Zm-8.73,5.21c3.72.16,8.5.23,12.23-.03.23-.02.23-.38,0-.36-3.92.48-8.57,0-12.23.39h0s0,0,0,0ZM79.28,6.2c6.58,8.81.61,10.65,2.81,16.78.82,1.81,4.46,5.39.56,5.98-.33.04-.33.56,0,.52,4.57-.82.75-4.99-.39-7.25-1.06-2.23.75-4.66.85-6.93-.05-3.06-1.34-7.72-3.83-9.1,0,0,0,0,0,0Zm-16.6,26.68c1.9,4.11,7.23,4.89,11.03,6.32,4.69,1.78,7.19,2.17,8.2-3.37-.3-1.56-1.4,1.45-1.23,2.03.07.78-.44,1.4-1.16,1.63-4.45.56-9.04-2.18-13.19-3.63-1.15-.1-3.37-3.71-3.64-2.97h0Z"/>
        <path d="m71.39,37.96c-2.33.5-2.51,8.95-1,6.99-1.22-2.41.18-5.08,1-6.99,0,0,0,0,0,0Zm15.87,55.34c-.91.94,2.76,9.54,3.44,7.46-1.97-2.02-2.31-5.32-3.44-7.46,0,0,0,0,0,0Z"/>
        <path d="m54.63,40.4c1.49,4.1,8.89,6.18,12.3,8.23,29.69,12.39,26.02,22.09,24.1,50.48-.03.65-1.71,2.48-.22,1.97,1.58-2.15,1.45-4.97,1.52-7.51-.92-8.08,2.17-17.35-.15-25.13-5.53-16.34-26.84-18.21-37.54-28.04,0,0,0,0,0,0Z"/>
        <path d="m66.61,44.01c4.89,3.03,9.83,6.35,13.45,10.92,2.31-.88-11.63-11.84-13.45-10.92h0Z"/>
        <path d="m55.79,39.53c3.93,2.23,10.43,5.43,14.16,4.99-4.9-.84-9.87-3.16-14.16-4.99h0Zm-12.73,89.05c.9,1.42,2.35,2.42,3.83,3.15.77.45,5.77,2.14,4.88.66-3.24-.22-6.1-1.89-8.53-3.95-.1-.09-.27.03-.19.14h0s0,0,0,0Zm.69-2.65c.51,1.59,9.48,5.75,9.19,3.78-3.35-.28-6.45-2.79-9.19-3.78h0Zm.22,1.45c.12,0,.12-.19,0-.19s-.12.19,0,.19Z"/>
        <path d="m44.03,127.84c-.04.24.18,1.49.4,1.02-.24-.2-.08-1.32-.4-1.02h0Zm.59,1.61c.04-.17,1.76-1.72,1.41-1.9-.27-.24-.71.84-.86.94-.09.26-1,.93-.55.97h0s0,0,0,0Zm1.28-.99c.31.47.3,3.1.9,2.27-.19-.5-.33-2.94-.9-2.27Zm1.04,2.54c.07-.69,2.62-2.4,1.25-2.36-.35.57-1.66,2-1.25,2.36h0Z"/>
        <path d="m48.37,129.13c.11.08.8,4.09,1.21,2.62-.1.02-1-3.27-1.21-2.62h0Z"/>
        <path d="m49.67,132.29c.27-.39,1.92-1.89,1.43-2.29-.41-.28-.8.97-.99,1.14-.05.19-.94,1.29-.44,1.14h0,0Z"/>
        <path d="m51.42,130.17c.13.66.34,1.56.69,2.13.18.33.67.02.48-.28l-.55-.93c-.21-.18-.38-1.31-.61-.93h0Zm-7.35-6.26c2.2,1.97,5.05,3.31,7.97,3.77.33.05.47-.44.14-.5-2.89-.24-5.97-2.36-8.11-3.27h0s0,0,0,0Zm-.36,2.56c.49,5.33,1.29,1.33,0,0,0,0,0,0,0,0Zm12.08-86.93c5.48,3.83,13.46,8.9,19.13,9.81-6.66-2.34-13.32-6.39-19.12-9.81h0Z"/>
      </g>
      <g>
        <path class="cls-9" d="m78.58,5.52c-18.13,9.38-9.52,45.19-10.14,62.36,0,0,.12,2.34.12,2.34.03.61.98.61.95,0-.38-7.64-1.08-23.31-1.3-30.86-.64-11.06-.24-27.54,10.89-33.11l-.52-.72s0,0,0,0Z"/>
        <path class="cls-9" d="m68.07,69.91c-.25-13.78-2.41-31.04-1.08-44.7,1.19-7.2,3.38-15.11,9.91-19.23.69-.25,2.17-1.59.58-1.49-15.45,9.77-11.62,31.52-11.22,47.12.37-.19.08,22.48,1.8,18.3h0s0,0,0,0ZM76.07,3.77c-18.68,13.24-10.28,43.48-10.88,63.16,0,0,.14,2.34.14,2.34.04.61.99.61.95,0-.36-16.98-3.46-37,1.35-53.5,1.35-3.95,3.91-7.29,7.15-9.89.58-.48,3.2-2.05,1.29-2.12h0Zm-1.34-.98c-18.57,13.1-10.67,46.03-10.81,65.83-.19.66.75,1.66.99.57-.58-17.94-3.86-38.23,1.97-55.57,1.39-3.65,4.07-6.85,7.19-9.2.65-.3,2.27-1.76.65-1.62h0s0,0,0,0Zm-1.61-.71c-18.67,12.93-10.03,45.78-10.42,65.32,0,0,.14,2.19.14,2.19.04.61.99.61.95,0-.35-17.48-4.08-37.97.92-54.98,1.57-5.03,4.63-8.95,8.89-11.72.51-.33.03-1.15-.48-.82h0Zm-1.65-.59c-14.37,9.69-7.65,26.31-16.2,37.96-.99,1.47-12.46,11.71-9.38,11.46,20.09-19.15,10.9-18.08,18.69-39.76-.03-2.21,10.16-10.78,6.89-9.67,0,0,0,0,0,0Z"/>
        <path class="cls-9" d="m70.39.99c-17.49,11.96-5.92,33.42-23.45,46.65-.45.42.23,1.09.67.67,17.78-13.43,6.13-34.44,23.25-46.5.49-.36.02-1.18-.48-.82,0,0,0,0,0,0Z"/>
      </g>
      <g>
        <path d="m78.23,33.13c1.26-.08,2.36-.9,3.58-1.16,1-.46,2.36.37.81.95-.36.31-3.17.16-2.62.65,4.09.28,5.26-3.21.52-1.41-.61.37-1.9.55-2.29.97h0Z"/>
        <path d="m78.13,33.39c.97,1.31,2.91,2.04,4.5,1.86,1.21-.8-.37-2.13-1.38-2.01-.45.43,1.15.3,1.32.81.91,2.51-3.82-.11-4.44-.65h0Zm1-12.67c-.62-.37-1.43-.48-2.1-.15-.33.42-3.03.98-2.13,1.37,1.37-.52,2.91-1.57,4.23-1.21h0Z"/>
        <path d="m74.76,21.91c1.35,1.19,3.34,1.53,5.01.85.24-.1.1-.44-.14-.33-1.55.67-3.41.34-4.7-.74-.12-.09-.29.12-.17.22,0,0,0,0,0,0Zm-.86-2.78c2.03-1.07,4.59-1.66,6.59-.2.22.14.42-.21.2-.35-1.92-1.37-5.38-1.17-6.79.55h0Zm5.39,1.78c.35.4.35,1.07.61,1.44.32-.22-.34-1.71-.61-1.44h0Zm4.14,10.67c-.17-.75-.65-1.52-.61-2.36-.83-.81,0,2.59.61,2.36h0Z"/>
      </g>
      <path class="cls-2" d="m52.86,40.73l-1.47,2.29"/>
      <path d="m81.06,26.82c-2.48-.89-1.09,3.37.7,1.65.29-.32.77-.43,1.11-.12.18.14.45-.12.26-.26-.8-.77-1.45.17-2.19.39-1.48-.2-1.1-1.71.11-1.66h0,0Z"/>
    </g>
  </g>
</svg>