<?xml version="1.0" encoding="UTF-8"?>
<svg id="Ebene_1" data-name="Ebene 1" xmlns="http://www.w3.org/2000/svg" xmlns:xlink="http://www.w3.org/1999/xlink" viewBox="0 0 201 247">
  <defs>
    <style>
      .cls-1, .cls-2 {
        fill: none;
      }

      .cls-3 {
        clip-path: url(#clippath);
      }

      .cls-4 {
        fill: #f15a24;
      }

      .cls-5 {
        fill: #e6e6e6;
      }

      .cls-6 {
        fill: #743f22;
      }

      .cls-7 {
        fill: #09f;
      }

      .cls-8 {
        fill: #42210b;
      }

      .cls-9 {
        fill: #1b1464;
      }

      .cls-10 {
        fill: #603813;
      }

      .cls-11 {
        fill: #754c24;
      }

      .cls-12 {
        clip-path: url(#clippath-1);
      }

      .cls-13 {
        opacity: .5;
      }

      .cls-14 {
        opacity: .49;
      }

      .cls-2 {
        stroke: #fff;
        stroke-width: 12px;
      }
    </style>
    <clipPath id="clippath">
      <rect class="cls-1" width="201" height="240"/>
    </clipPath>
    <clipPath id="clippath-1">
      <rect class="cls-1" x="35" width="147" height="247"/>
    </clipPath>
  </defs>
  <g class="cls-3">
    <g>
      <path class="cls-2" d="m133.23,39.61l1.62,4.83c54.71-13.13,72.08,75.7,49.22,111.53-24.03,41.62-80.88,54.79-127.41,27.93C-19.14,142.02-6.1,30.65,80.9,20.75c20.72-3.01,44.74-1.1,52.33,18.86h0Z"/>
      <g class="cls-12">
        <g>
          <path class="cls-4" d="m153.06,125.67c-4.49-17.26-4.41-17.39-10.84-41.08-2.24-14.34-11.16-19.7-22.34-17.66-.59-1.44-3.91-4.46-6.27-4.83l-.04,1.73c4,1.67,3.88,6.37,3.1,10.47-2.96,19.74-.98,11.47-6.08,26.94l-12.02-14.9-8.82-14.83c-2.85-4.64.61-9.55,1.18-13.37-1.53.58-3.24,1.47-4.48,2.29-.93.5-3.24,3.89-4,5.32-15.33,3.21-15.77-2.48-26.94,8.66-5.34,11.76-4.1,37.33-5.16,48.18,6.56,2.16,22.36,1.51,29.44-1.69.16,2.75-.11,5.53-.78,8.21,3.24.89,9.82,5.94,11.73,9.68.26,1.06,1.53,2.05,2.78,2.06,4.69.28,6.85,3.35,9.36,7.35,6.66,1.44,10.77,6.11,13.92,10.73,3.3-.5,7.3-.6,10.37-.36.43-1.25,1.83-3.2,3.88-2.84,3.71,1.45-2.98,6.46,4.63,2.73,3.57-6.07,2.28-15.66.75-25.17,6.28-1.67,13.88-2.82,16.61-7.61h.01s0,0,0,0Zm-68.95,28.59c-2.17-.78-7.41-1.78-10.44-2.36-.24,4.2-1.67,4.54-3.03,9.16-.98,4.47,4.04,5.46,7.94,1.53,3.5,3.74,4.1.17,8.81-1.49,2.03-.96,4.65-.36,5.34-.49.36-.61-3.35-4.54-8.63-6.36h0s0,0,0,0Z"/>
          <path class="cls-11" d="m112.87,17.31c-18.61.09-21.2,14.15-22.12,28.75.06,7.84-.12,15.35-1.86,21.04,3.15,13.52,15.29,26.22,21.58,34.12,4.11-10.94,6.25-24.22,6.02-33.12.14.03-1.08-4.3-3.01-4.52l.24-2.43c7.93-3.62,8.53-8.35,13.45-18.79,1.49-8.06-3.15-22.25-14.32-25.07h.01s0,.01,0,.01Zm67.28,186.9c-1-2.25-3.3-7.34-4.25-9.51-2.35-4.24-1.57-9.81-4.43-14.08-6.37-16.16-4.08-41.54-20.66-52.81-4.45,2.78-9.37,4.8-14.49,5.95,1.26,4.5,2.2,11.22,2.11,16.49,3,6.74,8.29,15.53,12.77,21.3,0,0,4.8,10.14,4.8,10.14.36,2.51.99,5.45,2.06,8.64,2.82,6.11,4.6,11.6,2.16,18.25-.36,3.91,1.53,3.67,2.35,10.03.38,2.96.18,4.58,1,8.52.36,2.5,1.46,6.12,3.84,3.27,1.83-3.44.5-5.37,1.3-9.83.22.49.75.81,1.29.77.12.08.23.2.37.24,1.36,2.55.36,8.64-1.58,10.87-1.56,1.75-4.28,7.09-.38,6.32.81.11,3-3.47,3.81-5.29.06-.02.11-.07.14-.12,0,0,.02,0,.04.01.75,3.07,4.41-1.9,4.46-4.92-.03-.56-.05-2.61.75-4.26.39-.1.47-.53.59-.87,2.44-1.59,3.33-4.66,2.51-7.2,1.52-3.7.62-9.68-.56-11.9,0,0,0,0,0,0Zm-45.82-43.63c-.28-.87-2.25-1.15-2.73-.59,1.47-2.77-.13-5.4-2.42-4.22-3.02,2.98-2.53,5.62-6.37,7.37-1.61,1.91-10.85-10.87-12.47-11.67-11.8-4.52-8.28-9.88-18.48-11.01-1.43-3.39-8.27-9.96-12.85-11.34l.6-7.85c-5.51,2.26-15.7,3.51-21.07,2.81-2.07,7.22,2.4,17.65,5.43,21.76,4.85,5.8,13.08,6.88,20.12,8.44,8.63,5.17,14.05,13.07,25.53,15.55,7.43,2.82,24.46,1.59,24.7-9.25h0Z"/>
          <path class="cls-7" d="m147,186l-38,13.5-49-11c-1.6.75,10.11-16.88,11.96-23.52.76-.71,1.84.5,3.28-.13,1.52-.64,2.33-2.15,3.25-2.37.89.21,1.21,1.78,2.84,1.95,3.58-.2,6.05-5.4,11.42-3.79,11.27,8.59,24.13,13.83,37.43,7.82,1.34-1.03,6.71-7.91,2.94-8.85.61-.26,1.97-.88,2.58-1.15,3.93,7.84,7.85,16.7,11.3,27.55h0Zm-19.75-28c-3.29.72-7.76.94-10.56.51.54,1.39,3.86,4.38,6.43,4.53,1.86-.77,3.87-3.54,4.13-5.04h0s0,0,0,0Z"/>
          <path class="cls-10" d="m136.64,49.63c-1.28-5.37-.6-35.18-3.53-37.92C129.08,3.43,118.23-.86,106.71.31c-26.6,9.14-28.77,44.02-28.42,65.64,7.08,1.46,2.22-4.11,12.65-7.82-.41-16.98,1.28-37.89,22.24-38.27,11.64,1.18,11.7,12.77,13.79,23.33-2.87,5.56-6.57,16.38-13.24,17.99l-.11,1.42c2.64-.19,5.51,2.57,6.73,4.34,8.74-1.06,12.73.75,16.88,4.91.34-11.18-.09-17.99-.59-22.22h0s0,.01,0,.01Z"/>
          <path class="cls-5" d="m97.65,36.92c4.84-.37,9.35-2.39,10.17,3.68-3.63,1.68-9.69-2.35-10.18-3.68h0Z"/>
          <path class="cls-8" d="m101.87,37.77c-.65,1.65,1.68,3.64,3.2,2.44,3.31-2.02-1.71-6.47-3.2-2.44Z"/>
          <path d="m103.96,39.45c1.39.02,1.39-2.16,0-2.14-1.39-.02-1.39,2.16,0,2.14Z"/>
          <path class="cls-5" d="m105.24,37.63c.18,0,.18-.27,0-.27-.18,0-.18.27,0,.27Zm17.01,5.68c-3.33-3.47-6.22-5.87-9.39-1.82,2.43,2.74,7.99,2.44,9.39,1.82h0Z"/>
          <path class="cls-8" d="m119.34,42.52c-1.32,2.62-5.47.11-3.94-1.88,1.14-2.4,5.23-.77,3.94,1.89h0s0,0,0,0Z"/>
          <path d="m117.35,42.69c1.39.02,1.39-2.16,0-2.14-1.39-.02-1.39,2.16,0,2.14Z"/>
          <path class="cls-5" d="m118.75,41.14c.18,0,.18-.27,0-.27-.18,0-.18.27,0,.27Z"/>
          <path class="cls-6" d="m103.85,58.12c3.25,1.28,7.48,2.21,9.36-1.02-2.57-.61-1.7-2.58-5.43-2.03-1.31-1.76-5.09.95-7.58,0,.58.78,1.74,2.11,3.64,3.06,0,0,0,0,0,0Z"/>
          <g class="cls-14">
            <path class="cls-9" d="m79.62,121.25c-6.36,2.21-15.39,3.24-21.02,2.88v1.87c3.49,2.31,14.01,1.64,20.92-.5l.1-4.25h0Z"/>
          </g>
          <g class="cls-14">
            <path class="cls-9" d="m153.78,129.88l-2.55-1.83c-20.21,13.8-8.68-17.96-13.43-30.12.85,15.7-3.46,19.43-2,34.14,3.54,16.74-.17,14,9.51,31.01,4.18,7.64-.04-1.59-2.12-8.14-1.23-3.89-2.7-9.72-3.26-17.32,3.43.56,11.76-3.17,13.87-7.73h0Zm-15.64,3.4c.02-.09.17-.24.12-.42.47.21.65-.63,1.01-.09-.38.16-.75.33-1.13.5h0s0,0,0,0Z"/>
          </g>
          <g class="cls-13">
            <path class="cls-9" d="m129.42,168.52c-8.05,3.91-16.77,2.79-24.91-.32-8.57-3.57-10.24-9.39-19.43-13.44-6.86-2.85-10.46-3.09-2.97.91,13.84,8.69,17.49,20.44,36.01,23.35,9.01.48,21.88-1.75,11.3-10.5h0,0Z"/>
          </g>
          <g class="cls-13">
            <path class="cls-9" d="m113.72,61.17c-6.62,4.89-19.85.69-21.98-9.47l-.84,4.12c2.52,7.14,14.56,12.81,22.66,6.89l.15-1.53s0,0,0,0Z"/>
          </g>
          <g class="cls-13">
            <path class="cls-9" d="m126.92,42.25l-.75-1.24c-2.99,6.69-4.65,12.76-9.77,18.71,4.99-2.82,8.69-11.08,10.52-17.47h0Z"/>
          </g>
          <g>
            <path class="cls-8" d="m123.84,49.6c.82,5.2,1.35,12.13,1.02,16.9h1.5c.07-6.38-.38-13.21-1.28-19.42,0,0-1.26,2.51-1.25,2.52Zm-1.96,4.13c.55,4.06.94,8.74.69,12.81l1.49-.2c-.02-3.74-.37-11.42-.9-15.08,0,0-1.27,2.47-1.28,2.47Zm-1.92,2.98c.42,3.04.71,7.28.46,10.07l1.44-.11c.23-3.8.03-7.63-.62-11.38l-1.29,1.42h0Zm-1.96,1.99c.27,1.85.34,4.19.13,6.15l1.56,1.1c.18-2.78.05-5.57-.37-8.33l-1.32,1.06h0Zm-2.01,1.29c.24,1.16.31,2.57.15,3.79l1.51.39c.12-1.63.03-3.52-.25-5.06l-1.42.88h0Z"/>
            <path class="cls-8" d="m114.27,60.91l.11,1.66,1.24.38-.06-2.56-1.29.53Zm3.01-52.07c-34.9-4.2-36.6,31.44-37.92,56.86-.02.95,1.49.99,1.5,0,1.3-24.09,2.59-59.49,36.01-55.41.95.18,1.35-1.28.4-1.45h0Z"/>
            <path class="cls-8" d="m117.97,6.87c-35.61-4.6-40.87,32.06-40.43,59.08-.03.97,1.47.97,1.5,0-.33-25.88,4.07-61.94,38.53-57.63.95.16,1.35-1.31.39-1.45h0Z"/>
            <path class="cls-8" d="m118.5,4.76c-15.15-2.97-31.2,6-35.4,21.23-.29.93,1.16,1.32,1.45.4,3.88-14.39,19.16-22.93,33.55-20.18.95.16,1.35-1.3.4-1.45h0Z"/>
            <path class="cls-8" d="m119.15,3.1c-14.63-3.51-30.05,4.55-34.96,18.87-.52,1.13-3.42,8.07-.39,5.79,3.24-15.95,18.77-27.23,34.95-23.21.94.2,1.35-1.25.4-1.45Z"/>
            <path class="cls-8" d="m119.68,1.31c-12.18-3.59-26.06,2.38-31.81,13.71-.45.86.85,1.62,1.3.76,5.4-10.77,18.58-16.39,30.11-13.01.94.26,1.33-1.2.4-1.46h0Zm-.13,9.58c21.12,11.6,15.48,40.06,16.51,60.28-.02.97,1.49.97,1.5,0-.84-20.7,4.41-49.87-17.25-61.58-.87-.41-1.64.88-.76,1.3,0,0,0,0,0,0Z"/>
            <path class="cls-8" d="m120.38,9.24c9.47,3.68,13.77,14.4,14.52,23.9,3.71,3.53-.64-11.19-1.58-12.47-1.62-3.58-3.67-6.98-6.75-9.5-.88-.98-8.33-5.63-6.19-1.94h0Z"/>
            <path class="cls-8" d="m121.02,7.44c8.72,2.56,11.84,12,13.52,20.01,4.77,3.32-4.07-17.67-6.93-17.97-.67-1.2-9-5.7-6.6-2.04h0Z"/>
            <path class="cls-8" d="m121.51,5.48c9.72,2.52,13.5,13.54,13.43,22.63,3.31,3.62.35-10.28-.44-11.53-1.15-7.68-15.69-16.11-12.99-11.1Z"/>
            <path class="cls-8" d="m121.86,3.77c14.57,3.2,13.18,20.74,13,32.39,3.35,3.97.95-17.68.56-19.62-.25-9.91-16.37-17.61-13.57-12.77,0,0,0,0,0,0Z"/>
          </g>
          <g>
            <path d="m107.78,97.59c-4.3-6.38-10.22-13.09-13.77-19.94-1.25-2.71-5.27-8.12-4.69-11.31-.29-1.08,2.41-6.32.05-4.71-2.62,5.27-.03,10.5,2.9,14.99,3.12,5.9,7.84,12.24,12.09,17.31,0,0,3.2,3.84,3.2,3.84.11.13.34-.04.24-.18h0,0Zm-18.35-24.72c-.18.32-4.95,10.5-2.73,8.57.53-1.36,1.91-4.9,2.37-6.22.05-.5,1.03-2.5.36-2.35h0Z"/>
            <path d="m109.4,100.37c-7.69-6.14-16.17-11.79-22.76-19.18-.47-.52-1.24.25-.76.76,6.68,6.9,15.59,14.62,23.52,18.41Zm-21.01-29.34c-.93.37-5.76,8.15-3.48,7.18.52-1.82,1.49-3.66,2.52-5.25.1-.45,1.68-1.93.96-1.93h0Zm1.16-12.46c-8.02,2.47-10.97,12.93-6.21,19.6.34.51,1.17.02.83-.48-5.1-6.74-.56-15.8,5.37-19.11,0,0,0,0,0,0Zm20.64,43.68c3.49-6.25,11.64-34.41,4.24-38.35-.55-.14-.76.66-.23.84,1.16.4,1.65,1.66,1.83,2.77,1.05,11.56-2.5,24.63-5.85,34.74h.01s0,0,0,0Zm7.51-29.14c1.83.08,2.61,2.42,4,2.68,1.58-1.34-5.79-5.46-4-2.68Z"/>
            <path d="m115.02,63.51c4.9,2,7.19,7.34,6.72,12.38,2.27,2.09.44-6.91-.43-7.86-.04-1.42-7.08-7.66-6.29-4.52h0Zm2.18,11.92c1.68,2.66,3.9,4.99,4.75,8.14.17.5.95.29.79-.22.1-1.36-4.92-10.02-5.54-7.92,0,0,0,0,0,0Z"/>
            <path d="m111.74,101.14c3.97-5.3,7.72-11.48,10.76-17.33-.35-3.34-4.84,7.64-5.8,8.42-1.28,2.19-3.9,6.58-5.22,8.75-.1.16.15.31.26.15,0,0,0,0,0,0Zm-6.38-22.63c.31.16.6-.25.35-.5-1.17-.45-1.67,1.92-.72,2.44,1.68.74,2.08-3.02.31-2.72-1.43.55-1.09,3.86.74,2.8.97-.65.73-2.96-.66-2.8-1.95.57-1.1,4.53.89,2.83.6-.79.52-2.39-.55-2.74-1.31-.23-1.69,1.51-1.23,2.45.45,1.02,2.15.57,1.82-.57-.23-.82-1.48-.37-1.16.4l-.02-.16v.05l.02-.16c-.01.06-.05.1.03-.04-.04.08.08-.1.04-.05-.04.04.14-.08.04-.04l.1-.04s-.04.01-.06.01l.16-.02h-.09l.16.02s-.11-.04-.01,0c.12.06,0,0,0-.01,0,.01.12.11.04.03-.04-.04-.04-.07.03.04-.09-.15-.02.03-.02-.01,0,0-.05-.21-.05-.21l.02.16c-.02-.22-.02-.45,0-.67l-.02.16c.01-.07.03-.14.04-.21.03-.1-.05.09-.01.03.01-.02.07-.11.01-.03-.1.13.12-.1,0,.01-.14.09.2-.1-.06.02.03,0,.06-.01.08-.02l-.16.02s.07,0,.11,0l-.16-.02h.06s-.08-.03-.08-.03c.11.07-.06-.07-.03-.02.09.11-.06-.11,0-.01.05.1.09.15.14.41l-.02-.16c.01.14.01.29,0,.43l.02-.16c.02.07-.16.52-.05.28-.02.03-.06.1-.08.13-.03.06.09-.1.02-.03-.08.08.09-.06.03-.02s-.06,0,.06-.01c-.07.04-.16,0,.03,0-.16,0-.01,0,.03.01-.2-.06,0,.03-.02,0-.03-.02-.09-.04-.11-.07.12.1.04.02-.02-.04.13.13.02.05,0-.02-.06-.1.02.09.01.04-.04-.1,0-.1-.01-.01,0-.05,0-.18,0-.23-.04.26.13-.48.08-.23-.01-.06.4-.69.23-.46.08-.09.05-.07-.01,0,.08-.05.04-.02-.03,0,.06-.01.04-.01-.07,0,.06,0,.02.03-.08-.01.07,0,.07.02-.05-.03,0,0,.04.02.04.03-.01.01-.11-.11-.06-.04-.06-.11.08.1,0,0,.01.03.06.07.06.11,0,0-.05-.14-.03-.06.08.26.07.32.07.68-.01-.14.02-.01-.02.04-.03.11,0-.02.01-.01-.01.03-.04.09-.06.11.12-.14,0-.02-.03.01.19-.15-.13.07-.01,0,.15-.04-.22.02.05,0-.21-.01.12.03-.06-.01l.08.03s-.03-.01.01.01c.06.06.01.01,0,0-.05-.04.07.11.02.03,0-.01-.02-.04-.03-.05.06.16,0-.05-.02-.1.03.32,0-.51.01-.24,0-.07.16-.59.1-.41.03-.08.11-.21.16-.29l-.04.06c.06-.06-.01.01-.04.02.08-.04-.03,0-.05.01.14,0-.23,0-.14,0-.14-.04-.1-.04-.06-.03.07.04-.05-.04-.05-.04,0,.01.04.04.05.04.04.04-.07-.1-.03-.03.05.05.06.17.03.03,0,.05.04.11.05.17-.04-.25.02.38-.03.44.04-.14-.04.14-.05.18-.02.04.06-.11,0-.01,0,.01-.11.18-.05.08.05-.07,0,0-.01.02-.12.1.11-.06-.02.02-.07.04.11-.04.02-.02,0,0,.14-.01.06-.01h.08s-.04,0,.04.03c-.03-.01-.07-.05.01.01t0,0c.07.1-.14-.26-.04-.06-.03-.03-.09-.38-.06-.2,0-.12-.03-.24,0-.36-.03.18.04-.2.07-.22-.04.07.01-.04,0,0,0-.02.17-.28.1-.18.05-.06.25-.34.03-.12h-.15.01l-.13-.07h.01s-.07-.11-.07-.11c0-.06.02-.12.03-.18h0s.1-.07.15-.11c-.21.03-.28.37-.08.47,0,0,0,.03,0,.03Z"/>
            <path d="m105.6,77.75c1.42-.11,11.33-12.71,7.79-11.49-1.63,4.21-6.41,8.1-7.79,11.5h0Z"/>
            <path d="m105.6,77.71c-4.37-4.65-10.47-8.04-14.65-12.86-3.3.04,5.57,6.21,6.49,7.08,2.35,1.8,5.39,4.6,7.93,6.08.19.11.37-.14.23-.3Zm-14.78-14.2c4.07,6.86,15.22,7.62,21.04,2.53.3-.33-.1-.95-.5-.65-7.42,5-14.51,2.72-20.53-1.87h0Z"/>
            <path d="m113.36,63.98c-.85.47-1.91,1.51-2.73,2.08-.55.36.06,1.15.55.71.65-.69,2.66-1.91,2.18-2.79h0s0,0,0,0Zm-3.62,38.93c-.08,12.68,1.31,25.39,2.29,38,.55,1.41-1.38,13.63.77,10.85,1.02-10.87-1-22.45-2.12-33.25-.49-4.86.18-11.64-.94-15.6Zm-29.26-37.1c-15.94-.81-29.09,3.79-28.63,22.07-1.04,9.81-1.5,24.96-1.99,34.95-.02.63.96.63.98,0,1.04-15.26.21-31.04,4-45.92,4.47-11.84,18.47-8.11,25.64-11.1h0s0,0,0,0Z"/>
            <path d="m73.15,100.31c-2.6-10.09-8.39-19.71-15.57-27.22-.41-.41-1.02.21-.63.63,7.45,7.29,12.21,18.15,16.2,26.59h0Zm6.84-9.58c-.13,1.86-.53,5.59-.78,7.44-2.18,10.04,1.43,21.04-.75,31.06,2.26,3.14,1.73-13.31,1.45-14.85-2.02-7.61,1.49-17,.08-23.65h0Z"/>
            <path d="m69.78,77.78c2.41,2.81,3.43,8.74,4.77,12.15,1.08,3.28,3.03,9.95,3.89,13.3,2.45,2.3-1.37-6.92-1.19-7.05-1.38-3.13-4.72-18.34-7.47-18.4h0,0Zm-18.74,45.1c9.1,2.75,19.41,1.89,28.33-1.17,2.39-2.4-12.25,2.76-14.1,1.91-4.54.72-10.49-1.2-14.23-.74h0s0,0,0,0Zm.39-4.01c8.55,4.43,18.73,1.17,27.35-1.45.56-1.66-5.7,1.68-6.91,1.64-6.58,2.18-14.54,1.08-20.43-.19,0,0,0,0,0,0Zm70.22-51.96c8.61.03,16.73,3.59,18.4,12.84,2.9,8.53,6.53,20.43,7.92,29.27.62,1.81,4.12,19.58,5.6,16.24-6.98-16.12-7.19-65.06-31.93-58.34h0Zm14.6,23.73c3.34,13.07-1.88,26.37-.7,39.61.79,9.01,4.51,19.1-.25,27.76-.31.55.55,1.05.85.5,4.38-8.18,1.52-17.5.42-26.1-2.18-13.52,4.98-29.56-.33-41.75,0,0,0-.01,0-.01Z"/>
            <path d="m132.78,120.92c1.16-1.59,5.15-8.62,3.74-9.37-.3,3.18-3.22,7.19-3.74,9.36h0Zm5.85-28.17c1.05-1.3.77-23.01-1.65-19.14,1.23,4.48,1.69,9.55,1.61,14.21.14-.08-.63,5.81.04,4.92h0Zm12.64,31.13c-4.78,2.39-9.72,4.85-15.2,5.11-2.82,3.35,17.03-2.96,15.2-5.11h0s0,0,0,0Zm1.23,2.4c-4.82,3.12-10.17,5.47-15.88,6.66-1.89,3.03,17.28-4.21,15.88-6.67,0,0,0,0,0,0Zm-20.73,12.97c.03,5.26.17,10.87-1.72,15.9,1.71,3.37,3.59-16.39,1.72-15.9h0Zm-52.97,16.29c-2.49,7.32.64,12.62,7.84,6.25.57-.31.07-1.17-.51-.87-3.18,2.54-7.56,4.98-7.03-1.44-.18-.98.66-3.47-.31-3.95h0Zm-1.88,7.9c-2.37,1.36-6.37,2.12-5.65-1.95-.38-1.31,5.14-9.8,1.96-8.12-.78,3.53-6.47,11.09-.09,12.2,1.18.01,4.26-.94,3.78-2.12h0Zm-1.1-36.18c5.35,5.28,10.96,5.4,15.03,13.37.32.48,1.1,0,.76-.45-3.36-6.12-10.5-10.31-15.79-12.92,0,0,0,0,0,0Zm-17.45-2.86c-2,9.06,2.12,18.67,8.7,24.91.37.34.91-.21.55-.55-7.17-5.93-8.96-16.36-9.24-24.36,0,0,0,0,0,0Zm10.81,25.54c3.22,1.47,7.52,3.22,11.03,3.6,11.42,2.71,18.58,14.57,30.32,16.93.49.13.69-.61.21-.76-7.92-1.98-13.76-7.86-20.38-12.25-5.9-4.63-14.91-5.68-21.17-7.52h0s0,0,0,0Zm25.54,2.84c2.47,4.1,8.3,4.25,12.24,6.2,6.89,2.54,5.29-4.16.29-5.83-1.7-.31-4.6-6.7-4.78-5.29,1.09,4.8,6.71,5.6,8.57,9.3.35,3.9-4.97.81-6.71.25-2-.78-4.98-1.33-6.8-2.43-.99-.44-1.99-2.12-2.82-2.18h.01s0-.01,0-.01Z"/>
            <path d="m91.99,140.6c4.18.54,8.08,2.44,9.75,6.55.15.29.58.03.43-.25-1.63-3.91-6.24-7.06-10.18-6.3h0s0,0,0,0Zm13.17,8.69c1.24.33,3.06,1.35,4.26,1.92,5.23,2.98,7.21,11.42,13.8,12.11.36-.02.36-.58,0-.56-3.2-.16-5.35-3.28-7.4-5.41-2.1-3.15-4.87-6.7-8.66-7.8-.37-.1-2.16-1.03-2-.26h0Zm19.32,13.05c2.81-1.19,3.3-8.23,7.15-5.95,1.11.63-.95,3.73.29,3.05.96-1.49.78-4.04-1.41-4.1-3.12.11-4.47,5.24-6.02,7h0s0,0,0,0Zm5.48-.43c.74-1.57,3.64-3,4.3-.66-.2,2.22-1.94,4.27-3.27,5.98-.24.99-4.17,1.93-2.94,2.27,3.44-.68,6.46-5.24,6.67-8.56-.77-2.78-5.14-.89-4.76.97h0s0,0,0,0Zm-5,3.3c6.59-6.88,6.97,1.08.27,4.74-.52,1.59,3.15-2.09,3.28-2.05,5.81-5-1.27-8.7-3.55-2.69h0Z"/>
            <path d="m110.04,163.26c5.6,6.56,13.14-.52,16.36,4.16-2.02,5.37-9.66,2.6-14.07,2.85-.36-.03-.35.52,0,.55,2.58-.08,9.64,1.1,11.98-.16,1.74-.68,3.99-3.59,1.57-4.82-6.37-1.88-9.71,2.09-15.84-2.59,0,0,0,0,0,0Zm3.16-50.17c-1.16-.16-.74,1.66.26,1.11.88-.56-.2-1.8-.9-1.03-.73.85.83,1.79,1.26.76.4-.76-.64-1.47-1.26-.94-.84.68.25,2.05,1.07,1.29.74-.7-.48-1.77-1.04-.91-.39,2.19,2.46-.2.27-.09-.74.36.26,1.25.41.41,0,.03,0,.06-.01.09,0-.01,0-.03.01-.04l-.04.08v-.03s-.04.07-.04.07l.03-.03-.07.06s.03-.01.04-.02l-.08.04s.04-.01.06-.01h-.09s.07.01.07.01h-.09s.06,0,.06,0l-.08-.04.04.03-.07-.06.03.03-.06-.07s.01.02.02.03l-.04-.08v.04s0-.09,0-.09v.06-.09s0,.03,0,.05l.04-.08s-.02.04-.04.06l.06-.07s-.03.04-.05.05l.07-.06-.06.04.08-.04h-.06s.09,0,.09,0h-.06.09s-.03,0-.04,0l.08.04s-.04-.01-.05-.03l.07.05s-.04-.03-.04-.04l.05.07s-.03-.05-.04-.07l.04.08s-.01-.05-.02-.08v.09s.01-.09.01-.09v.09s0-.05,0-.07l-.04.08s.02-.04.04-.06l-.05.07s.04-.04.06-.06l-.07.05s.04-.03.07-.04l-.08.04s.06-.02.08-.03h-.09s.1.01.1.01h-.09s.07,0,.1.01l-.08-.04s.06.03.08.04l-.07-.05s.04.04.06.06l-.05-.07.04.07-.04-.08s.02.06.03.1v-.09s-.01.11-.01.11v-.08s0,.08-.03.12l.04-.08s-.03.07-.06.1l.05-.07s-.05.06-.08.08l.07-.05-.07.04.08-.04s-.07.03-.11.03h.08s-.09,0-.13-.01h.08s-.1,0-.14-.03l.07.03s-.08-.04-.12-.07l.07.05s-.06-.05-.09-.08l.05.07s-.05-.07-.07-.12l.03.08s-.03-.09-.04-.13v.09c0-.06,0-.11.01-.16v.08c0-.06,0-.11.03-.15l-.03.07s.04-.08.07-.11l-.05.07s.05-.06.09-.08l-.07.05s.07-.04.11-.06l-.07.03s.08-.03.12-.04h-.08c.05,0,.1,0,.14.01h-.08c.05,0,.1.01.15.03l-.07-.03s.08.04.12.07l-.07-.05s.06.05.09.08l-.05-.06s.04.06.06.1l-.03-.07s.02.07.03.11v-.08s0,.08-.01.13v-.08c0,.05,0,.1-.03.14l.03-.07s-.04.09-.08.13l.05-.06s-.06.07-.1.1l.06-.04s-.06.04-.1.06l.07-.03s-.07.03-.11.03h.07s-.11-.01-.11-.01h.07s-.07,0-.11-.02l.07.03s-.07-.03-.1-.06c.11.08-.04-.02-.05-.05-.02-.03.04.06.02.03,0-.01-.01-.02-.02-.03l-.03-.05s.02.06.01.03c0-.02-.02-.07-.03-.1v.07s.01-.11.01-.11v.07s.06-.16,0-.04c.09-.13.04-.07.15-.13.02-.02.13-.01.02,0h.1c-.17-.03.14.05-.01,0,.02.01.04.02.06.04.04.03-.04-.04-.01-.01.03.01.06.09.01.01.05.08.03.02.05.13-.01-.16,0,.19,0,.03-.01.03-.01.05-.02.07-.02.04.03-.06,0-.01-.05.08,0,.01-.01.03-.01.02-.09.06-.02.02-.08.05-.04.02-.13.05.08-.02,0,0-.03,0,0,0-.04,0-.04,0-.04,0,.06.01.01,0-.03,0-.05-.02-.07-.02.08.02-.02,0-.03-.03-.04-.02.04.04,0,0-.02-.01-.03-.03-.04-.05-.03-.04.03.05,0,.01-.01-.02-.02-.05-.04-.06.03.09-.03-.09,0-.12,0-.02.02-.07.02-.08s-.03.07.01-.03c-.02.06.01-.04.02-.04,0-.05.49-.24.24-.32,0,0,.04.01.04.01Zm-.32-8.26c-.91-.67-1.08,1.19-.07.91,1.5-.86-1.04-2.14-1.05-.47-.06.96,1.4,1.11,1.49.13.07-1.02-1.56-1.19-1.58-.11-.1,1.08,1.62,1.27,1.7.17.06-1.01-1.53-1.11-1.51-.07.42,1.7,2.28-.53.54-.58-.46.12-.26.83.2.71h-.08s.04.01.04.01h-.1s.04-.01.05,0l-.08-.04.04.03-.07-.06.06.06-.06-.07.04.07-.04-.08.02.07v-.1s-.01.07-.01.07v-.1s0,.05,0,.05l.04-.09-.03.05.06-.08s-.02.02-.03.04l.07-.06-.06.04.08-.04s-.04.01-.07.01h.1s-.07-.01-.07-.01h.1s-.06,0-.09-.01l.09.04s-.06-.03-.08-.05l.08.06s-.04-.03-.05-.05l.06.07-.04-.06.04.08-.02-.07.02.1v-.09l-.02.1s.02-.06.03-.08l-.04.09s.03-.06.05-.09l-.06.08s.05-.05.07-.07l-.07.06s.06-.04.09-.05l-.09.04s.07-.02.1-.03h-.1s.1.01.1.01h-.1s.06,0,.09.01l-.09-.04s.06.03.09.05l-.07-.06s.07.06.1.1l-.06-.07s.05.07.06.11l-.04-.08s.03.07.04.11v-.1s0,.08-.01.12v-.1s0,.06-.01.09l.04-.08s-.04.07-.06.1l.06-.07s-.05.06-.08.08l.07-.06s-.07.05-.11.07l.09-.04s-.09.03-.14.04h.1s-.09-.01-.13-.01h.1s-.08,0-.11-.02l.08.04s-.07-.03-.11-.06l.07.06s-.07-.06-.1-.1l.06.07s-.06-.08-.07-.13l.04.08s-.03-.1-.04-.15v.09c0-.05,0-.1.01-.15v.09s0-.08.03-.12l-.04.08s.03-.07.06-.11l-.06.07s.04-.06.07-.07l-.07.06s.04-.03.07-.04l-.08.04s.07-.02.1-.03h-.09s.12.01.12.01h-.09s.08,0,.12.03l-.08-.04s.08.04.11.07l-.07-.06s.06.06.09.1l-.06-.07s.05.07.07.11l-.04-.08s.03.07.03.11v-.09s-.01.12-.01.12v-.09s0,.06-.02.09l.04-.08s-.04.07-.06.1l.05-.07s-.05.05-.08.07l.07-.05s-.07.05-.11.07l.08-.04s-.07.03-.11.03h.08s-.1-.01-.1-.01h.08s-.05,0-.07,0l.07.04s-.06-.03-.09-.06l.07.05s-.06-.06-.08-.08l.05.07s-.06-.08-.07-.13l.03.08s-.03-.1-.04-.15v.08c0-.05,0-.11.01-.17v.08s.06-.21,0-.08c.01-.03.04-.07.05-.1l-.02.03s.12-.09.02-.03c.02-.03.15-.07.03-.03.03-.02.18-.02.05-.01.02,0,.08,0,.11,0,.05,0-.08-.01-.03,0,.03,0,.06.02.1.03-.09-.05.03.02.04.04-.09-.1.08.11-.01,0,.01.02.02.04.03.06.02.04-.02-.07,0-.01,0,.01,0,.02.01.03.01.05,0-.07,0-.02v.07c0-.12,0,.02-.02.04.05-.11-.07.11,0,.01,0,.02-.13.1-.04.04-.02.01-.04.02-.06.03-.04.03.05-.01,0,0-.03,0-.07.02-.01.01-.12,0,.04.02-.04,0-.03,0-.03-.03.01.01-.02,0-.08-.06-.02,0-.01,0-.08-.09-.03-.03-.02-.02-.03-.05-.05-.08.04.08-.01-.02,0-.03.01.03,0-.01,0-.05,0-.04,0,.04,0,0,0-.02.02-.08,0-.03v-.03s.01,0,.01,0c0,0,.07-.06.03-.04.16-.08.51.09.32-.25h0Z"/>
            <path d="m114.32,123s-.05-.07-.01,0c-.03-.07-.11-.1-.18-.1.1.01-.06-.01-.04,0-.51-.05-.84.57-.56.99.63.99,2.01-.27,1.16-1.03-2.51-1.1-.83,3.18.22.66.03-1.03-1.55-1.02-1.54,0,0,.79,1.18,1.03,1.45.28.47-1.22-1.68-1.36-1.36-.08.11.74,1.22.35.66-.24l.06.07-.04-.07.04.08s-.02-.07-.03-.1v.1s.01-.11.01-.11v.1s0-.07.01-.1l-.04.08s.03-.06.05-.08l-.06.07s.04-.04.06-.06l-.07.06s.04-.03.07-.04l-.09.04s.06-.02.09-.03h-.1s.11.01.11.01h-.1s.08,0,.11.01l-.08-.04.09.05-.07-.06s.05.04.07.07l-.06-.07s.03.05.04.08l-.04-.08s.01.05.02.08v-.1s-.01.11-.01.11v-.1s0,.07-.01.11l.04-.08s-.04.07-.06.11l.06-.07s-.05.05-.07.07l.07-.06s-.05.04-.08.05l.08-.04s-.06.02-.09.03h.1s-.1-.01-.1-.01h.1s-.07,0-.11-.02l.09.04s-.07-.04-.1-.06l.07.06s-.06-.06-.09-.08l.06.07s-.04-.06-.06-.1l.04.08s-.02-.06-.03-.1v.09s.01-.09.01-.09v.09s0-.07.02-.11l-.04.08s.04-.07.06-.1l-.06.07s.06-.07.09-.09l-.07.06s.07-.04.1-.06l-.08.04s.07-.02.1-.03h-.09s.1.01.1.01h-.09s.07,0,.1.01l-.08-.04s.07.04.11.06l-.07-.06s.06.05.07.08l-.06-.07s.05.07.07.11l-.04-.08s.03.07.03.11v-.09s-.01.11-.01.11v-.09s0,.07-.02.1l.04-.08-.05.09.05-.07s-.05.06-.08.08l.07-.05s-.07.05-.11.07l.08-.04s-.07.03-.11.03h.09s-.11-.01-.11-.01h.09s-.09,0-.13-.03l.08.04s-.07-.04-.11-.06l.07.05s-.07-.06-.1-.1l.05.07-.06-.09.04.08s-.03-.08-.04-.11v.08s0-.09.01-.14v.08c0-.05,0-.1.03-.14l-.03.08s.04-.08.07-.12l-.05.07s.05-.06.09-.08l-.07.05s.06-.04.1-.06l-.08.03s.08-.03.12-.03h-.09s.1,0,.15.01h-.08s.09,0,.13.03l-.07-.03.11.07-.07-.05s.06.06.08.08l-.05-.07s.04.06.06.1l-.03-.08s.03.09.04.13v-.08s0,.09-.01.14v-.08c0,.05,0,.1-.03.14l.03-.07s-.03.07-.06.11l.04-.06s-.06.06-.09.09l.06-.04s-.07.05-.11.06l.07-.03s-.08.03-.13.04h.08s-.09,0-.14-.01h.08s-.08,0-.12-.02l.07.03-.09-.05.06.04s-.05-.05-.06-.06c.04.05.03.04-.02-.03l.02.03s-.04-.06-.04-.07l.03.07s-.02-.07-.03-.11v.07s.01-.1.01-.1v.07s0-.05,0-.07c.01-.04-.03.06,0,.01,0-.02.08-.09,0-.02,0-.02.12-.11.04-.04.04-.02.08-.05.12-.08h-.03s.04,0,.06,0c.01,0,0,0-.03,0,.07,0,.14-.04.18-.1l-.07.07c.06.03.2-.17.06-.29h0Zm1.01,9.56c.04-.15-.06-.29-.21-.33h.04c-.69-.17-1.14,1.01-.5,1.35.87.54,1.57-.92.67-1.33-.84-.46-1.58.92-.7,1.33.85.45,1.51-.78.73-1.28-.82-.54-1.63.9-.74,1.31.85.48,1.49-.96.54-1.22-1.26-.18-.75,1.79.25,1.01.5-.44-.35-1.06-.59-.43l.04-.07-.03.04.06-.07-.03.03.07-.06s-.03.02-.04.02l.09-.04h-.06s.1,0,.1,0h-.08.1s-.05,0-.07,0l.09.04s-.04-.02-.06-.04l.08.06-.03-.03.06.07s-.02-.03-.03-.04l.04.09s-.01-.03-.01-.04v.1s.01-.05.01-.05v.1s-.01-.04,0-.05l-.04.09.03-.06-.06.08.06-.06-.07.06.07-.05-.08.04.07-.02h-.1s.07.01.07.01h-.1s.06,0,.06,0l-.09-.04s.03.02.04.03l-.07-.06.04.05-.06-.08s.03.04.04.05l-.04-.09s.02.05.03.09v-.1s-.01.1-.01.1v-.1s0,.06-.01.09l.04-.09-.04.07.06-.07s-.04.04-.06.05l.07-.05-.06.04.08-.04s-.05.02-.08.02h.1s-.11-.01-.11-.01h.1s-.07,0-.11-.01l.08.04s-.07-.03-.1-.05l.07.05s-.04-.04-.06-.06l.06.07s-.04-.05-.05-.08l.04.09s-.02-.05-.03-.09v.1s.01-.1.01-.1v.1s0-.08.02-.12l-.04.09s.04-.08.07-.11l-.06.07s.05-.05.08-.08l-.07.05s.06-.04.1-.05l-.09.04s.06-.02.09-.02h-.09s.09,0,.09,0h-.09s.06,0,.09.01l-.09-.04.08.04-.07-.05s.06.05.08.08l-.06-.07s.04.07.06.1l-.04-.08s.03.08.04.12v-.09s0,.07-.01.12v-.09s0,.07-.01.1l.04-.08s-.02.05-.04.07l.06-.07s-.04.04-.06.06l.07-.05s-.06.04-.08.05l.08-.04s-.08.03-.12.03h.09s-.12,0-.12,0h.09s-.09,0-.13-.03l.08.04s-.07-.04-.11-.06l.07.05s-.05-.04-.07-.07l.05.07s-.04-.05-.05-.09l.04.07s-.02-.06-.03-.09v.09s.01-.12.01-.12v.09s0-.08.02-.12l-.03.07.07-.12-.05.07s.06-.07.09-.1l-.07.05s.07-.05.1-.06l-.08.03s.06-.02.09-.02h-.09s.11,0,.11,0h-.08s.08,0,.11.02l-.07-.03s.07.04.11.07l-.06-.05s.07.07.1.1l-.04-.06s.05.07.07.12l-.03-.07s.02.07.03.11v-.08s0,.08-.01.12v-.07s0,.08-.02.12l.03-.07s-.09.16-.03.07c-.02.02-.03.05-.06.06-.04.04.06-.04.02,0l-.08.04.07-.03s-.07.02-.1.03h.08s-.08,0-.12,0h.08s-.06,0-.09-.01c-.04-.01.07.03.01,0-.03,0-.1-.08-.03-.01-.02,0-.09-.11-.03-.02-.02-.02-.06-.11-.02-.03,0-.02-.02-.05-.02-.07,0,.11,0-.05,0-.07-.02.11.02-.06.03-.08-.04.08.08-.15.12-.18l-.02.02s.04-.05.06-.06c-.06.06,0,0,.03-.01,0-.02-.04.02.03,0h-.04s.07,0,.11-.02c-.04.01-.04.01-.03,0h-.04s-.04,0-.01,0c-.07-.04.02.02-.04-.02-.02-.04.01.02,0,0,.06.11.26.09.29-.04h-.02s0,0,0,0Zm.08,9.11l.12-.11h-.07c.59-.05-.13-.54-.42-.25-1.07.7.7,1.94,1.02.71.21-.78-.91-1.18-1.3-.51-.44.81.78,1.52,1.25.7.49-.77-.82-1.52-1.24-.73-.46.78.7,1.55,1.2.77.47-.95-1.03-1.38-1.26-.38-.37.68.59.92.64.15l-.03.07c.03-.07.07-.13.11-.2l-.05.07s.06-.06.08-.09l-.07.05.07-.04-.07.03.07-.02h-.08s.08,0,.08,0h-.08s.04,0,.07.01l-.07-.03s.04.02.06.04l-.07-.05s.04.04.07.07l-.05-.07s.04.05.04.08l-.03-.07s.02.06.03.09v-.09s-.01.1-.01.1v-.09s0,.04,0,.07l.03-.07s-.03.05-.04.07l.05-.07-.06.06.07-.05s-.06.04-.08.05l.07-.03s-.07.02-.11.03h.09s-.08,0-.12,0h.08s-.06,0-.1-.01l.08.03s-.05-.02-.07-.04l.06.05s-.05-.04-.06-.06l.05.07s-.04-.06-.06-.09l.03.07s-.03-.08-.03-.12v.08s0-.09.01-.13v.09s0-.09.03-.13l-.03.07s.03-.05.05-.09l-.05.07s.04-.04.06-.06l-.07.05s.05-.04.08-.04l-.08.03s.06-.02.09-.02h-.09s.11,0,.11,0h-.09s.08,0,.12.03l-.07-.03s.07.04.11.07l-.07-.05s.06.05.08.08l-.05-.07s.04.06.06.1l-.03-.08s.02.06.03.09v-.09s-.01.09-.01.09v-.09s0,.07-.01.1l.03-.08s-.04.07-.06.1l.05-.06s-.06.06-.09.09l.06-.05s-.07.04-.11.06l.07-.03s-.07.02-.11.03h.08s-.1,0-.1,0h.08s-.06,0-.09-.01l.07.03s-.06-.03-.09-.05l.06.04s-.06-.05-.09-.09l.04.06s-.04-.07-.06-.1l.03.07s-.03-.09-.04-.13v.08s.01-.12.01-.12v.07s0-.07.02-.1l-.03.07s.03-.06.05-.08l-.04.05s.04-.04.07-.07l-.06.04s.06-.04.1-.06l-.06.02s.09-.03.13-.04h-.07s.11,0,.11,0h-.07s.16.04.07,0c.02,0,.11.08.04.02,0,0,.02.02.02.02.05.06-.03-.06.03.05.01.02-.03-.07-.01-.02,0,.02.02.07.03.1v-.07s0,.1-.01.14v-.07s-.06.19,0,.08c-.05.09-.02.04-.08.11.04-.02,0-.02-.03.01.11-.06-.02.01-.05,0h.07s-.12,0-.12,0h.07c-.07,0-.18-.07-.15-.04,0,0-.04-.04-.04-.04l-.02-.02c.07.12-.07-.14,0,0-.01-.03-.01-.09-.01-.03,0-.1-.02-.04.02-.13v.03s.06-.11.01-.06c.04-.06.07-.07.11-.11-.06.04.04-.02.07-.03-.04.01.03-.01,0,0,.01,0,.03,0,.04,0-.04,0,.03-.01,0,0h.07-.03c.07,0,.14,0,.2-.06l-.25-.07v.03s.02-.07.02-.07c-.09.07-.21.3,0,.23h0Z"/>
            <path d="m116.02,150.45l-.07-.04.06.08c-.01-.09-.11-.12-.18-.1-.98.02-.88,1.58.15,1.42,1.33-.53-.24-2.24-.99-1.02-.63.83.64,1.69,1.2.83.65-1.15-1.08-1.82-1.27-.46-.04,1.32,2.1.92,1.46-.3-.99-1.26-2.1,1.27-.43,1.04.74-.17.58-1.33-.15-1.36-.81.12-.86,1.59.1,1.41.46-.13.22-.83-.23-.66h.09s-.04,0-.04,0h.09s-.05,0-.05,0l.08.04-.05-.03.07.05s-.04-.03-.05-.05l.06.07s-.04-.05-.04-.08l.04.08-.02-.07v.09s.01-.07.01-.07v.09s0-.07.02-.1l-.04.08s.05-.09.08-.13l-.06.07c.06-.07.12-.13.18-.19l-.33.09s.05.02.07.02l-.08-.04.06.03s-.07-.06-.04-.03c.01.01.02.02.03.03s.04.04,0,0c-.06-.08.02.04.03.07l-.04-.08s.03.07.03.11v-.09s-.01.1-.01.1v-.09s0,.05,0,.08l.04-.08s-.02.05-.03.07c.01-.03.07-.07,0-.02,0,0,.11-.08,0,0l.08-.04s-.06.02-.1.02h.09s-.11,0-.11,0h.09s-.08,0-.12-.03l.08.04s-.13-.08-.05-.02c.04.04.01,0,0,0-.06-.07.04.09-.02-.04l.04.08-.02-.08v.09s.01-.08.01-.08v.09s0-.06.01-.09l-.04.08s.04-.05.04-.07c-.07.09,0,0,.03-.02-.12.11.01-.01.05-.02l-.08.04s.07-.03.1-.03h-.09s.11,0,.11,0h-.09s.05,0,.08.01l-.08-.04s.04.03.06.03c-.07-.05-.03-.03,0,.02-.1-.12,0,0,0,.03l-.04-.08s.03.07.03.11v-.09s0,.09-.01.14v-.09s0,.08-.03.12l.04-.08s-.03.07-.05.08c.12-.15-.09.08.04-.03-.01,0-.06.03-.07.04l.08-.04s-.07.02-.11.03h.08s-.11,0-.11,0h.08s-.08,0-.11-.01c-.06-.02.07.04.02,0-.03,0-.15-.11-.04-.01-.03-.02-.04-.04-.08-.07-.03-.02.05.07.02.03-.01-.02-.03-.05-.03-.07.01.06.01.02,0-.05v.09s.01-.13.01-.13v.09s.04-.15,0-.05c.02-.04.04-.08.06-.1-.07.11.02-.03.05-.03.04-.04-.06.04-.03.01.01-.01.15-.08.08-.04-.09.03.07-.02.09-.02h-.08s.04,0,.04,0l-.22-.1s.02.03.04.05c-.09-.1.04.04.04.08.03.05-.02-.07,0-.02.02.06.03.11.04.17v-.09c0,.05,0,.12-.01.17v-.09s0,.08-.02.12c.04-.09,0,0-.03.03.12-.13-.13.1.03-.02,0,0-.11.06-.05.03.07-.03-.08.02-.09.02h.09s-.09,0-.14,0h.08s-.11,0-.11,0h.08s-.14-.03-.05,0c0-.01-.04-.02-.06-.04l.04.03c-.07-.08,0,.03-.01,0,0-.01-.04-.07-.01-.02s0-.04,0-.04v.02s0-.17,0-.07c0-.07.09-.19.06-.15.03-.03.06-.07.09-.09,0,0,.01,0,.01-.01.02-.02-.06.04-.01,0l.08-.05s.03-.02,0,0c.21-.07.18-.03.28.03,0,.01.04.05,0,.01-.04-.05.02.03.02.04.03.05,0-.01,0-.01.01.02.03.1.03.12,0-.14,0,.17,0,.03,0,.12-.02.05-.05.14.02-.04.04-.04,0,0,0,.02.05-.04-.01.01-.01,0-.06.02-.01,0,.07-.02-.11,0-.02,0,.06,0-.15,0-.03,0-.05,0-.12-.05-.05,0-.01-.01-.12-.08-.05-.03-.02-.02-.05-.05-.07-.07.04.05-.01-.01-.02-.04,0,0-.01-.02-.01-.02.03.1-.02-.15,0,0,0-.02-.01-.05-.01-.08v.03s0-.13,0-.05c0-.01.03-.14.02-.08.02-.03.03-.08.07-.11.03-.1.33-.13.35-.31-.01.03-.03.06-.04.1.06-.04.12-.11.04-.17h-.03s0,0,0,0Zm-2.33-89.31c-.13.69-.32,2.1-.39,2.81.63,1.03.53-1.14.55-1.39-.06-.02.12-1.79-.16-1.41Z"/>
            <path d="m105.36,63.29c11.21.24,17.38-8.26,20.79-17.86.14-.33-.34-.62-.49-.29-4.53,11.43-8.08,16.08-20.3,18.15,0,0,0-.01,0-.01Zm-1.52-.22c-6.16-1.7-11.34-6.61-12.49-13.02-.07-.36-.62-.21-.55.15,1.07,6.09,7.18,12.9,13.04,12.86h0Zm51.74,117.42c3.78-2.1,9.52-5.19,13.51-7.03.38-.17.05-.73-.33-.56-4.11,2.28-10.55,4.58-13.18,7.59Zm1.22,3.35c3.72-1.93,9.48-4.66,13.45-6.2,2.22-2.34-14.79,5.75-13.45,6.2h0s0,0,0,0Zm.88,3.59c23.33-11.05,14.2-9.19-.01,0,0,0,.01,0,.01,0Z"/>
            <path d="m159.17,182.6c-.91,1.27-1.25,2.82-1.66,4.33.64,1.21.82-1.58,1.12-2.06.06-.6,1.16-2.07.53-2.27h0Z"/>
            <path d="m158.91,182.68c.71.71,1.96,1.49,2.75,2.14.15.11.34.13.47-.03.6-.33-3.54-2.94-3.21-2.1h0Z"/>
            <path d="m162.75,180.39c-1.19,1.75-1.13,7.94-.21,2.18-.04-.43.81-2.26.22-2.18h0,0Z"/>
            <path d="m162.81,180.73c.43.32,2.94,2.74,3.27,2.14.32-.44-1.46-1.18-1.63-1.42-.36-.12-1.53-1.28-1.64-.73h0s0,0,0,0Z"/>
            <path d="m166.95,178.7c-.91.01-1,3.22-1.37,3.98-.06.32.42.45.48.14.25-1.16.51-3.11.88-4.12h0Z"/>
            <path d="m166.58,178.84c.05.48,3.58,4.06,2.96,2.2-.46-.35-1.71-1.31-2.1-1.7-.2-.15-.74-1.14-.86-.5h0s0,0,0,0Z"/>
            <path d="m170.21,177.29c-.43,1.08-.74,2.94-1.09,4.09.58,1.16.77-1.5.97-1.97-.04-.38.87-2.36.12-2.12Zm-32.05-26.97c1.71,5.66,6.68,12.55,10.04,17.4,7.69,8.95,6.96,21.53,13.74,30.69.43.53,1.18-.23.75-.75-5.14-5.5-4.56-13.34-7.67-19.77-3.35-8.27-9.69-14.73-13.68-22.64-.73-.87-2.32-6.09-3.18-4.93h0Z"/>
            <path d="m152.04,128.86c3.15,2.02,5.57,7.49,7.71,10.48,7.13,11.83,6.01,26.17,10.27,38.94,1.61,4.73,4.4,9.34,4.14,14.49,4.68,3.3-6.73-23.25-5.86-26.53-1.88-12.77-5.12-30.69-16.27-37.38Zm9.22,70.59c.43,2.5-.82,6.08-1.23,8.56,0,6.08,3.6,12.06,3.22,18.32-.48,3.62,2.74,8.41,4.94,3.11.27-1.17,1.76-9.01.19-8.05-.26,2.55.46,9.07-2.67,9.72-3.35-2.44-1.34-10.33-3.28-14.31-3.78-7.52-.03-11.33-1.17-17.34v-.02Z"/>
            <path d="m166.65,216.03c.39,3.22,2.74,7.42,6.54,6.47.32-.09.18-.59-.14-.5-4.08,1.02-5.13-3.95-6.4-5.97h0s0,0,0,0Zm4.13,7.09c2.79,5.5-8.35,13.38-3.15,16.15,3.78-.66,5.05-5.95,6.91-8.78,1.08-.94,2.34-10.72.38-8.87,3.08,3.09-7.68,23.67-8.02,14.89,1.1-4.05,6.99-9.84,3.88-13.4h0Zm2.05,11.41c5.3-1.88,4.88-10,4.79-14.71-.02-.4-.63-.4-.62,0,.43,5.09-.02,11.82-4.17,14.72h0s0,0,0,0Zm5.19-10.14c1.18-.45,1.82-6.72.53-5.43.87,1.77-.61,4.2-.53,5.43h0Zm1.93-2.58c1.33-1.12,1.91-3.62,1.08-5.17-.19-.26-.63,0-.43.25.72,1.43.13,3.49-.8,4.73-.1.09.03.28.15.2h0s0,0,0,0Z"/>
            <path d="m173.91,221.69c1.29-.19,2.29-1.32,3.25-2.11,2.11-1.3,4.19-2.95,4.39-5.62-.68-1.03-.81,2.18-1.48,2.54-1.74,1.87-4.44,3.89-6.16,5.19h0s0,0,0,0Z"/>
            <path d="m175.48,194.53c2.79,6.36,7.17,12.83,5.62,20.12,1.44,1.38.73-6.96.29-8-1.01-4.06-3.72-8.46-5.67-12.22-.08-.12-.3-.04-.25.11h0Zm-11.39,4.52c.61,1.56,2.64.95,3.54,0,0,0,4.66-4.25,4.66-4.25.28-.26-.14-.68-.42-.42-1.98,1.3-5.31,6.72-7.78,4.67h0Zm-21.48-62.49c1.45.13,8.9-3.33,7.37-4.3-2.02,2.05-4.67,3.34-7.5,3.81-.32.05-.18.54.13.48h0s0,0,0,0Zm-78.28-8.36c2.9-1.56,6.98-2.98,10.07-1.38.18.28.62.03.45-.26-2.75-2.02-8.66-.7-10.52,1.64h0Zm53.03,30.39c2.05.93,6.08.13,8.34.25.7-.03.71-1.11,0-1.1-1.55.25-7.64-.39-8.34.85Zm-28.45,3.07c.79,3.16.8,6.6-.4,9.65,1.54,1.74,2.03-10.83.39-9.65h0s0,0,0,0Zm3.21-.61c.57,3.28.65,6.73-.49,9.9-.1.31.38.44.48.14.89-2.9,1.66-7.92,0-10.03Z"/>
            <path d="m87.37,161.05c.97.37,2.57.03,3.61.02.65,0,.65-1.01,0-1-.74.24-3.94-.11-3.61.98h0Zm-28.04,30.45c.12-.3,8.77-18.11,12.86-24.85.29-.5-.49-.96-.78-.46-4.36,7.5-12.08,23.04-12.08,23.04,0,0,0,2.27,0,2.28Zm89.18-2.42c.9,3.09-10.47-32.21-12.64-28.23,6.08,11.53,9.5,24.74,12.64,28.23h0Zm-63.86-19.67c.98,13.26-11.38,21.3-23.6,20.28-.87.04-.87,1.4,0,1.35,9.62.12,20.27-3.67,23.43-13.63.6-1.28,2.01-8.83.17-8h0s0,0,0,0Z"/>
            <path d="m65.55,177.91c2.51.29,5.55.06,8.08.1.16-.03.7.11.28-.21-.01,0-.03.54-.03.55l-.81,9.57c-.06.74,1.08.73,1.14,0,.15-1.81.57-6.37.7-8.11.22-1.61.55-3.5-1.8-2.96-1.2.31-7.72-.24-7.56,1.08h0s0-.01,0-.01Zm47.12-6.15c.17,4.83-.08,14.52-.5,19.34,1.75,4.8,2.37-23.1.49-19.34h0Zm1.56,18.6c6.26,3.13,6.11-22.61,3.92-18.27-.24,6.05,1.88,14.72-3.92,18.28h0Zm18.25-24.1c.12-.01.43-.23.49-.22.87,6.05,3.17,13.61,10.47,14.1.87.1.87-1.27,0-1.37-6.34-.32-8.48-7.02-9.31-12.32-.11-.41-.28-.91-.69-1.11-.52-.4-1.62.58-.96.91h0s0,0,0,0Zm2.09-3.38c.16.05.45.06.55.08.58.13,1.24.02,1.81-.07,1.04-.69-.23-1.19-.83-.88-.42.12-2.33.14-1.53.86h0s0,0,0,0Zm-63.69,6.14c.96,1.68,21.6,1.22,17.67-1.14-5.15.95-10.43,1.32-15.66.78-.52-.02-2.01-.36-2.02.36Zm22.4-1.26c.8.59,9.31.42,6.38-1.1-1.54.35-3.28.47-4.85.64-.39.2-1.73-.16-1.53.46h0s0,0,0,0Z"/>
          </g>
          <g>
            <path class="cls-8" d="m114.42,19.02c-36.61-2.54-21.84,67.41-22.05,89.86,0,0,.18,2.24.18,2.24.07.96,1.58.97,1.5,0-1-25.37-6.71-54.73,1.63-79.25,5.89-15.96,22.24-9.5,18.73-12.85h0,0Zm.72-2.24c-39.75-2.86-24.53,68.44-24.63,92.84,0,0,.18,2.39.18,2.39.07.96,1.58.97,1.51,0-.55-27.75-8.85-60.78,4.58-86.31,6.67-10.54,21.98-5.96,18.36-8.91h0s0,0,0,0Z"/>
            <path class="cls-8" d="m115.53,14.79c-41.94-3.42-27.86,65.38-26.82,91,0,0,.37,3.65.37,3.65.1.95,1.61.96,1.5,0-1.32-27.85-10.33-62.74,6.14-87.36,7.67-8.93,22.43-4.33,18.8-7.29h0Z"/>
            <path class="cls-8" d="m116.19,12.94c-44.01-5.21-31.12,69.37-30.1,96.39,0,0,.43,4.18.43,4.18.1.95,1.61.96,1.5,0-2.5-27.82-5.62-56.79,1.94-84.06,3.39-10.5,15.09-17.02,25.83-15.07.95.16,1.35-1.29.4-1.45h0s0,.01,0,.01Z"/>
            <path class="cls-8" d="m116.95,10.96c-46.89-6.15-34.22,70.2-32.09,98.6,0,0,.33,3.34.33,3.34.1.95,1.6.96,1.51,0-2.66-28.65-7.75-61.58,3.53-88.83,5.27-8.75,16.28-13.71,26.32-11.65.94.2,1.35-1.25.4-1.45h0,0Zm-.49,10.03c12.36,5.29,8.75,22.59,9.73,33.54.53,16.83-.86,39.4-1.73,56.38,0,0-.25,3.91-.25,3.91-.06.97,1.44.96,1.51,0-.28-17.33,8.59-86.11-5.9-93.92-.92-.82-5.4-2.47-3.35.09h-.01s0,0,0,0Z"/>
            <path class="cls-8" d="m117.03,19.21c19.11,4.74,9.1,73.82,10.1,91.17,0,0-.15,3.81-.15,3.81-.04.97,1.47.97,1.5,0-.77-18.59,8.54-87.43-8.63-95.43-.78-.39-1.6-.73-2.43-1-.92-.3-1.32,1.15-.4,1.45h0Zm.79-2.1c15.07,6.83,11.12,30.78,12.52,44.49-.42,13.33-.36,35.81-.23,49.26,0,0,.04,3.57.04,3.57,0,.97,1.51.97,1.51,0-.74-24.08,1.18-52.45-.94-76.32-1.12-8.67-3.2-19.16-12.5-22.45-.9-.37-1.28,1.09-.4,1.45h0Zm.22-2.32c14.38,6.47,12.64,24.77,13.98,37.89-.03,17.51.22,39.99.93,57.69,0,0,.12,3.58.12,3.58.04.96,1.54.97,1.51,0-1.39-23.63,0-51.76-2.13-75.16-.44-9.9-3.82-21.06-13.66-25.31-.87-.41-1.64.89-.76,1.3,0,0,0,.02,0,.02Zm.59-2.05c21.89,9.46,13.93,55.16,15.99,75.57.46,2.06.03,30.08,2.78,24.71-1.79-22.04-1.4-44.74-1.97-66.84-.91-12.84-2.8-28.8-16.05-34.74-.88-.4-1.64.9-.76,1.3h0s0,0,0,0Z"/>
          </g>
          <g>
            <path d="m110.47,42.63c-.55.56-.27,5.84.66,4.51-.77-1.35-.34-3.32-.66-4.5h0s0,0,0,0Zm13.47-2.28c-1.15-3.17-7.91-6.65-10.39-4.16.37.77,1.51.08,2.18.24,2.87,0,5.69,1.34,7.52,3.55.15.19.47.7.69.37,0,0,0,0,0,0Zm-26.42-7.76c4.23-1.06,8.93-.24,12.06,2.99.45.44,1.18-.26.71-.71-2.93-2.98-9.83-4.96-12.77-2.27h0s0,0,0,0Zm8.6,14.88c-1.99-.91-2.93,2.23-1.03,2.95,1.63-.11,2.81.95,4.33,1.17,1.38-.23,3.88.62,3.76-1.62.2-.95-2.3-2.15-1.41-.77.4.14.77.48.78.93-.16,1.56-2.04.43-3.02.83-1.25.07-2.11-1.24-3.44-1.04-.86.21-1.73-.63-1.44-1.5.09-.77,1.67-.42,1.47-.95h0Zm6.78-5.82c.68,1.8,9.28,3.31,8.89,1.67-3.07.43-6.5-.15-8.89-1.68,0,0,0,0,0,0Z"/>
            <path d="m112.9,41.56c3.45-3.91,6.36-.71,9.2,1.87,1.4-.17-1.8-1.84-1.99-2.55-1.64-2.5-6.69-2.22-7.21.67h-.01,0Zm-5.43-.84c-3.42,0-6.84-1.05-9.3-3.51-.29-.27-.72.16-.43.43,2.25,2.15,7.22,4.63,9.73,3.08,0,0,0,0,0,0Z"/>
            <path d="m107.9,40.62c.22-4.59-5.09-5.56-8.51-3.99-.47.18-2.75-.31-1.75.57,4.98-.24,8.02-2.52,10.24,3.42h.01s0,0,0,0Zm5.35,16.37c-1.64-.31-2.34-2.29-4.15-2.2-.47.02-.95.31-1.31-.12-1.27-.7-2.9,0-4.23.25-.33.38-4.03-.46-3.05.42,2.05.47,4.61-.5,6.63-.48.99.81,2.06.11,3.14.68,1.04.5,1.62,1.75,2.93,1.71.14.01.17-.21.04-.24,0,0,0,0,0-.01Z"/>
            <path d="m112.27,57.34c-1.87.41-3.23-.88-4.95-1.2-1.72.08-3.43.25-5.1-.34-.19-.05-.27.24-.08.29,2.1.96,4.46-.14,6.49.74.94.66,2.79,1.23,3.64.51h0s0,0,0,0Zm.77.18c-3.6,2.99-9.84,1.17-12.55-2.31-.2,3.08,11.04,6.35,12.55,2.31,0,0,0,0,0,0Zm-3.89-13.69c-.42.85-.73,1.95-1.74,2.4-.34,1.76,2.64-1.89,1.73-2.4,0,0,0,0,0,0Z"/>
          </g>
          <path class="cls-2" d="m46.5,177c23.95,22.4,79.6,27.97,106.5,9.11"/>
        </g>
      </g>
    </g>
  </g>
</svg>