<?xml version="1.0" encoding="UTF-8"?>
<svg id="Ebene_1" data-name="Ebene 1" xmlns="http://www.w3.org/2000/svg" viewBox="0 0 451.87 882.36">
  <defs>
    <style>
      .cls-1 {
        fill: #f15a24;
      }

      .cls-2 {
        fill: #e6e6e6;
      }

      .cls-3 {
        fill: red;
      }

      .cls-4 {
        fill: #743f22;
      }

      .cls-5 {
        fill: #09f;
      }

      .cls-6 {
        fill: #42210b;
      }

      .cls-7 {
        fill: #603813;
      }

      .cls-8 {
        fill: #754c24;
      }

      .cls-9 {
        opacity: .5;
      }

      .cls-9, .cls-10 {
        fill: #1b1464;
        isolation: isolate;
      }

      .cls-10 {
        opacity: .49;
      }
    </style>
  </defs>
  <path class="cls-1" d="m334.73,215.47c-19.27-42.05-8.42-91.02-75.54-79.67-3.25-3.31-6.19-4.23-9.69-5.61l-.14,1.71c2.83,3.17,2.37,15.45-.15,17.95-8.99,13.72-28.56,44.1-36.83,57.92-4.33-7.82-15.78-28.74-20.24-36.85-10.96-12.91-12.35-33.54,2.99-50.04-6.27-.25-6.99,2.24-11.65,4.65-9.82,3-36.43-.87-51.12,2.72-23.01,7.61-41.93,53.06-47.5,86.72,8.67,13.62,23.6,25.99,36.61,35.43l-.75,8.44c13.23,6.6,18.35-15.79,20.16-24.77,1.85,12.11,2.54,28.71.19,45.11-2.21,15.93-6.62,35.59-8.85,55.75-1.73,15.66,18.23,6.53,24.85,1.25,4.23,4.81,15.12,3.86,18.45-1.03,10.55-.31,47.29-.59,54.61-2.08,9.81-1.54,24.79-4.72,34.54-3.43,7.29.4,5.73,1.87,10.5-3.4,5.8,2.49,10.49.4,8.19-6.89-1.59-6.88-3.38-16.52-5.55-29.47-1.76-17.37-1.14-38.06,1.39-54.39,2.26,17.62,9.56,35.85,19.49,49.38,6.03,1.99,16.21-2.79,18.14-5.53-1.35-.76-3.43-3.51-3.7-5.56,14.31-12.34,26.12-22.22,32.26-41.05-4.11-5.39-7.68-11.18-10.65-17.28v.02Z"/>
  <path class="cls-5" d="m309.58,452.01c-3.3-15.82-6.08-99.72-33.83-125.72-4.69,4.73-2.9,3.5-11.08,3.36-7.13-1.39-17.08.68-22.92,2.33-14.66,2.94-54.36,3.99-65.57,3.17-2.17,3.2-14.06,7.63-20.01,1.26-2.89,3.73-10.36,7.27-15.8,6.77-46.61,82.75-58.14,159.59-57.55,231.45-16.76,49.75-23.58,75.06-12.76,148.55-7.86-1.82-5.14,5.61-5.31,11.58,13.12,7.36,40.55,3.85,61.03-1.49l1.94-12.49c-3.77.66-1.28-3.73-.62-4.75,7.6-26.14,19.56-64.73,27.91-121.77,13.28-22.12,38.03-85.04,49.75-130.01,9.3,35.24,7.9,92.69,15.81,128.09-9.79,47.12-12.71,100.61-5.6,142.67l-4.03.03-1.11,12.95c10.76,5.04,41.18,6.58,57.47-2.5l1.62-14.23-5.02,2.39c17.84-32.98,32.92-104.76,29.98-141.68,9.61-39.48,16.34-96.73,15.71-139.97h0Z"/>
  <path class="cls-8" d="m272.61,37.39c-37.23-8.76-45.66,33.13-62.89,59.33,0,0-18.55,29.54-18.55,29.54-13.66,15.27-5.63,30.81,2.31,47,6.01,12.73,12.38,24.07,18.63,34.02,6.87-10.74,20.82-32.24,27.82-42.9,9.33-12.91,13.4-20.73,9.31-32.9l.97-2.96c29.99-2.74,42.3-30.49,39.41-59.91-.65-13.81-1.02-22.81-17.01-31.22ZM121.46,250.41c-10.4-6.6-24.55-19.21-33.23-31.12-1.11,7.54-1.98,10.28-.73,16.5l-2.5-1.38c1.62-18.46-10.57-23.27-24.47-35-.49-4.79-1.95-12.71-7.36-11.69-4.78-3.6-10.27-20.6-17.82-20.76-8.73,2.43,1.99,13.08,4.86,15.58-7.24-1.96-6.05,7.59-4.52,11.9-3.8-6.03-8.49-13.73-15.14-15.74-4.04-1.83-8.89,1.01-5.37,5.15-2.96-2.18-4.26-6.4-9.23-6.71-1.05-.17-5.71,1.47-5.34,5.13.1,3.45,4.95,5.59,9.83,8.82,8.45,5.17,21.59,20.57,24.95,27.43,4.8,8.59,8.48,15.06,15.75,21.52.7,2.19,1.24,7.47,1.32,9.81.87,15.67.74,24,12.47,34.35,2.44,1.9,15.04,10.72,29.08,6.77,18.66-5.05,27.32-30.09,27.46-40.58v.02Zm135.74,524.09c-2.68-7.46-4.11-16.08-4-23.85-11.04,1.8-24.59,1.77-34.2.46-.23,5.65-2.29,13.06-5.36,18.29,2.99,4.79,15.18,11.04,20.05,10.84,1.4-7.87,15.12-12.66,17.28-.35l6.22-5.41v.02Z"/>
  <path class="cls-3" d="m115.06,763.18c-2.51-1.02-11.68,6.14-19.49,2.55-.43-13.11-16.13-14.45-18.29-3.28-1.36-.23-4.15-1.05-5.47-1.5,0-.01,0,.01-.02.02-6.04,46.58-24,34.16-46.48,65.23,10.95,5.5,20.24,15,25.32,29.39,8.9-4.65,13.51-11.01,20.44-18.41,11.12-10.82,28.43-18.47,42.39-22.95.02-12.58.09-25.35.97-40.35.62-8.17,1.69-9.85.63-10.7Zm161.36,79.89c-1.92-3.62-4.53-11.2-9.35-18.89-11.5-13.38-10.3-28.72-8.89-47.21.09-6.54-4.34,2.45-6.93,3.37-2.66-12.38-15.92-8.44-17.77.24-6.11.64-18.71-7.69-19.48-10.96-.11-.38-.75-1.07-.91-.22-1.3,3.58.2,13.75.2,13.75.12.85-.39,5.88-1.42,15.9-.71,5.85-2.03,13.28,1.22,19.12,6.61,13.53,12.67,21.21,30.57,50.36,5.45-6.77,24.72-17.02,35.17-17.44l-2.38-8.03h-.03Z"/>
  <path class="cls-2" d="m113.45,814.23c-14.37,4.86-25.54,9.01-38.33,19.69-6.6,6.77-15.23,16.23-24.18,22.02-5.73-13.07-11.96-23.45-25.65-29.74-22.54,22.26,6.74,58.96,45.85,21.69,12.83-10.51,9.95-10.53,15.17-13.27,3.62-1.9,21.09-10.34,25.49-11.57,4.07-1.05,1.26-5.23,1.65-8.82h0Zm.56-36.22c-13.38-1.59-12.55,19.17-.2,17.55l.2-17.55Zm167.34,83.13c.25-5.12-1.74-8.89-2.6-10.32-9.42.78-28.97,10.48-35.51,17.91-10.07-17.02-25.82-38.87-32.4-57.55-.63,6-4.84,10.69-1.85,14.24,3.68,3.63,13.56,26.15,21.07,36.38,7.4,11,11.22,16.55,16.75,18.77,14.17,5.72,33.69-3.5,34.54-19.43Zm-62.22-74.51c-2.77-.93-5.57,1.15-5.99,1.47l-1.02,12.2c7.91,7.03,15.83-10.14,7-13.68h.01Z"/>
  <path class="cls-8" d="m115.76,737.18c.37-1.66-9.6.15-10.7-.01-39.84,2.65-14.46-4.11-32.81,22.8-.51.82.85,1.2,1.28,1.51,2.38.91,3.93.18,4.23-.46h0c2.4-7.9,14.45-7.68,17.08.16l.23,4.01c4.09,1.11,9,.59,12.87-.61.16.34.57.56.95.45.7.39,1.37-.3,1.88-.71.68.44,1.55-.08,1.61-.87,2.84-.15,1.47-2.16,1.45-3.96-.77-7.32-.33-15.24,1.94-22.3h-.01Zm335.38-365.91c.26-3.92-8.15-10.8-13.3-14.29h0c-11.59-8.93-9.82-14.1-15.26-26.65,5.23-1.58,33.54-14.78,21.11-21.66-44.31,17.53-57.29,3.17-74.41-32.11-1.13-5.08-10.21-15.09-16.37-16.15-2.04-6.97-5.35-14.88-9.05-21.44-6.79,11.72-18.99,26.1-30.6,35.21.63,2.72,5.65,7.23,9.45,7.18-1.57,7.4,6.9,18.96,10.78,20.9,7.56,6.26,17.95,15.98,31.37,28.73,1.4,10.98,11.01,21.81,20.06,26.47,3.78,7.43,9.53,15.93,15.4,22.42,5.31-.99,3.03-4.61.14-10.58,0,0-5.04-10.49-5.04-10.49,3.14-3.42,14.33,22.81,22.06,20.72,5.69.15-2.54-15.49-4.67-17.15v-.02s4.76,3.35,4.76,3.35c1.99,3.61,4.5,7.32,7.79,10.46,3.72,2.28,6.36,3.43,8.26.29.64-5.36-6.97-11.73-10.55-19.8,8.51,6.03,12.97,9.61,15.49,11.83,3.05,2.54,13.4,9.79,12.63,2.77h-.05Z"/>
  <path class="cls-7" d="m295.64,14.11c-2.34-4.77-15.18-14.42-24.27-11.68-20.11-3-51.79,12.77-60.46,25.22-15.71,20.12-35.85,67.61-37.52,98.35,5.38,3.97,14.46-5.54,21.05-5.12-.15,2.96,5.71-2.27,8.43-4.85,3.36-3.24,8.85-11.03,6.82-18.46,4.51-9.97,16.91-34.86,22.2-40.87,7.67-11.1,35.38-33.73,52.3-10.38,4.26,1.44,5.76,30.22,3.31,50.35-1.46,9.32-18.3,32.34-38.3,32.07l.29,1.47c3.59,1.08,7.88,3.52,10.44,5.75,13.61-4.37,37.54,1.45,44.95,6.85-.67-25.84,7.11-103.18-9.24-128.7h0Z"/>
  <path class="cls-2" d="m279.91,92c-1.05-1.71-4.99-8.12-5.23-7.92-2.55-3.03-9.31-1.94-10.88,1.32,1.69,4.25,12.82,8.24,16.11,6.6Z"/>
  <path class="cls-6" d="m275.47,89.47c-1.05,3.36-6.76,1.46-8.14-.75-1.92-8.09,11.47-6.93,8.14.75Z"/>
  <path d="m271.49,85.33c2.82-.04,2.82,4.38,0,4.34-2.82.04-2.82-4.38,0-4.34Z"/>
  <g>
    <path class="cls-2" d="m274.37,86.07c.35,0,.35.55,0,.54-.35,0-.35-.55,0-.54Z"/>
    <path class="cls-2" d="m234.12,71.08c9.86-.2,19.91.04,19.84,11.13-8.74,1.7-16.26-5.71-19.84-11.13Z"/>
  </g>
  <path class="cls-6" d="m242.12,75.46c-1.57,5.39,7.92,7.19,8.58,2.3,1.46-5.18-7.06-8.09-8.58-2.3Z"/>
  <path d="m246.38,74.53c2.82-.04,2.82,4.38,0,4.34-2.82.04-2.82-4.38,0-4.34Z"/>
  <path class="cls-2" d="m248.98,74.63c.35,0,.35.55,0,.54-.35,0-.35-.55,0-.54Z"/>
  <path class="cls-4" d="m240.69,120.02c6.33,1.59,9.94,4.67,14.42.53-4.73-9.51-4.65-4.2-9.68-8.34-2.63-1.98-9.76.86-13.97-1.25,3.89,6.66,7.68,8.49,9.23,9.07h0Z"/>
  <g>
    <path class="cls-10" d="m87.44,239.26c.1-2.42-1.75-4.19-2.26-4.66-6.81,20.12-20.53,13.54-33.77,6.7-.58,3.45,6.29,6.58,12.35,8.3,12.54,1.89,20.03-1.53,23.67-10.36v.02Zm125.57,241.32c-.64-11.56-2.76-38.23-3.76-50l-4.56,32.27,8.68,61.51c.63-18.51.2-33.34-.35-43.78h0Z"/>
    <path class="cls-9" d="m144.72,650.08c2.92-12.75,6.46-30.57,9.14-52.77,0,0-7.49,10.92-7.49,10.92-3.76,18.12-11.8,55.42-15.96,73.23,0,0-9.59,39.21-9.59,39.21-.05,1.9,4.18-.06,4.35-.1,10.5-25.34,12.65-46.41,19.55-70.5h0Zm-17.56,70.61l-3.67,1.3c-.08,3.49-1.32,9.21-2.84,12.62l5.14-1.32,1.37-12.6Zm-12.96,42.26c-1.23-8.04-.7-18.18,1.64-26.36-6.3.57-29.5,3-35.4,2.66v5c20.73,5.3,32.94-10.02,29.31,20.08-.51,20.78,1.47,42.46-5.34,60.69,4.69-1.96,9.81-1.07,9.58-4.96-.2-12.32-.22-11.15.96-55.93l-.77-1.18h.02Zm154.29-26.43c.08-1.05,1.03-5.45-1.07-3.95-.2.02-.39.11-.51.27-.57-.13-.95.38-.99.91-.07.02-.14.05-.2.09-1.32-3.14-.74,5.59-.99,6.19.39,1.19-2.44,8.87.07,6.79,0,0,.14-.64.14-.64.31.31.83.38,1.07-.12.17.02.34-.02.48-.11.35.08.74-.05.82-.47.21-1.56,1.04-6.92.97-8.41.16-.11.21-.34.22-.54h-.01Zm-15.16,14.49c-11.24,1.36-23.04,1.35-34.32.1l-.54,4.6c8.96,2.8,24.12,3.3,34.41.33l.45-5.04h0Zm10.02-603.61c-3.84,17.24-2.13,10.5-12.16-.16l-.68.92c2.13,2.72,3.55,4.54,5.26,9.11,1.49,2.8,3.03,12.93,4.39,10.38.68-2.84,3.68-19.8,3.19-20.25h0Z"/>
    <path class="cls-9" d="m292.94,602.34c-4.43-1.66-3.88,14.95-4.79,19.18-1.08,12.43-2.67,22.95-4.14,31.1-6.71,35.02-12.99,53.77-22.52,81l2.71-.63c16.79-32.73,31.09-99.39,28.73-130.65h.01Z"/>
    <path class="cls-9" d="m140.48,211.26l-.61-16.85c-4.62,23.47-.11,36.75-11.65,59.84-15.79-7.39-28.31-23.09-40.23-34.9l-.16,8.21c7.52,10.39,16.91,19.41,27.59,26.51-.63,10.25-10.56,32.06-30.79,36.87,8.98.89,10.86.31,21.12-6.09,13.23-12.02,11.85-18.95,15.04-30.95l-.47,4.67c19.63,7.31,20.4-32.02,20.16-47.31h0Zm143.06,112.74c-.23-17.76-6.76-23.18-7.79-44.92.56-7.86.69-17.41.5-25.67-3.5,23.86-1.39,28.88,2.98,58.94.85,3.82,2.34,13.68-4.05,13.9,1.8,1.96,7.52.79,8.37-2.25h-.01Zm62.59-80.19l-2.27-4.83c-6.68,13.67-28.51,36.79-43.38,44.69-15.08-26.07-18.56-56.56-16.03-86.14-2,8.67-3.06,20.22-4.08,29.65-2.02,3.66-1.01,13.16.36,15.26,2.94,7.76,6.02,24.51,12.79,34.01,2.22,2.51,3.37,8.68,6.97,8.28,16.7-7.87,36.19-15.74,45.64-40.92h0Zm-97.86-111.14l1.72-3.7c-25.86,8.95-39.42-11.84-39.91-32.26l-2.58,6.33c2.46,19.04,19.19,37.7,40.77,29.63Zm29.6-18.76c2.2-2.77,5.21-7.19,7.55-13.35-4.94,9.92-22.01,24.29-31.28,27.2,3.95,1.83,20.86-7.73,23.73-13.85Z"/>
  </g>
  <path class="cls-6" d="m263.31,125.55l-2.91,1.41.66,8.94,2.69-.59s-.44-9.76-.44-9.76Zm4.35-2.15l-3.01,1.72.42,9.61,2.89-.82-.3-10.51h0Zm3.94-2.35l-2.53,1.74c.04,2.84.04,8.54,0,11.38l3.06.15c-.06-3.3-.31-10.01-.53-13.28h0Zm4.64-4.8l-3.3,2.82c.77,4.58.97,10.01.47,14.78l2.68-.49c.36-4.26.51-12.87.14-17.11h.01Zm4.25-5.71l-2.84,3.94c.34,5.84.02,12.99-.95,19.07l2.99.3c.66-7.43.95-15.67.81-23.31h0Zm4.66-8.01l-2.94,6.58c.35,7.54-.06,17.61-1.4,24.29l3,.15c1.23-10.12,1.7-20.98,1.34-31.02Zm-25.74,24.35l-3,.64.38,5.27,3.14,3.19-.52-9.1h0Zm-4.64,1.17l-3.1.52.2,2.53,2.97,1.42-.07-4.47h0Zm18.63-114.65c-56.83-6.25-84.4,66.23-93.84,111.51-.36,1.89,2.53,2.7,2.89.8,9.34-43.96,35.09-114.28,90.16-109.41,1.89.28,2.7-2.61.8-2.89h0Zm.17-4.14c-46.06-5.48-75.54,41.71-88.43,79.81-1.04,3.05-15.89,44.51-7.57,36.85,11.06-47.35,36.07-117.5,95.19-113.76,1.84.5,2.7-2.42.8-2.9h.01Zm0-4.58c-61.32-6.67-94.18,70.86-103.33,120.83-.33,1.89,2.56,2.7,2.89.8C181.8,78.31,213.76,1.57,272.78,7.57c1.89.31,2.7-2.58.8-2.89h0Z"/>
  <path d="m216.1,205.27c1.88-.13,45.09-33.36,34.89-30.55-7.87,7.69-17.32,15.4-25.97,22.28-1.1,1.07-10.46,7.72-8.93,8.27h0Z"/>
  <path d="m249.83,150.02c.83,7.92,1.83,16.3,1.19,24.28,4.53,6.69,1.34-26.12-1.18-24.27h0Zm1.22-2.84c2.64,4.08,6.35,7.82,7.16,12.93,6,4.05-4.35-15.72-7.18-12.93h.02Z"/>
  <path d="m254.67,133.2c5.65,4.25,8.17,11.27,6.03,18.1,0,0-1.69,8.04-1.69,8.04-.26,1.26,1.66,1.79,1.93.53,2.39-9.12,5.34-23.06-5.58-27.85-.69-.25-1.16.71-.69,1.18h0Zm-72.19,20.12c-1.71,2.7-2.32,7.68-3.24,10.73,0,0-2.64,11.26-2.64,11.26-.29,1.25,1.64,1.79,1.93.53.17-2.39,6.4-22.98,3.95-22.52h0Z"/>
  <path d="m209.15,203.87c-10.28-9.13-21.16-18.81-30.69-28.74-9.96-3.52,30.8,32.59,30.69,28.75h0Zm-27.38-55.33c-1.81.35-17.45,12.2-10.97,11.42,3.56-3.87,7.55-7.3,11.33-10.95.25-.24-.07-.62-.36-.47h0Z"/>
  <path d="m188.76,121.8c-14.12,6.09-20.77,22.55-19.81,37.23.07,1.29,2.1,1.28,2,0-1.56-17.05,7.29-27.66,17.81-37.22h0Zm22.88,88.27c5.99-8.36,13.87-22.13,19.67-30.82,5.32-8.79,14.84-20.81,19.05-30.05,2.18-5.3,2.94-11.68.17-16.95-.71-1.35-2.76-.15-2.05,1.2,5.48,10.44-3.11,21.14-8.72,29.42-6.62,9.78-13.05,19.69-19.29,29.71-.67,1.86-12.53,18.29-8.83,17.49h0Zm-1.08-6.22c-8.68-23.86-39.88-53.45-17.87-78.13,1-1.05-.6-2.65-1.59-1.59-17.51,18.56-2.59,43.27,7.88,61.35,3.02,5.67,7.58,13.32,11.07,18.67.19.33.69.04.51-.3h0Z"/>
  <path d="m210.67,210.46c.13,27.6-1.48,67.55-.92,95.58.67-1.24-1.81,35.21,2.1,27.32-.08-21.43-.19-50.72-.4-72.14,0-7.82-.03-16.17.49-24.24.57-8.83,1.52-17.91-.44-26.63-.11-.48-.8-.34-.83.11h0Zm6.88,2.63s-.02,0-.03-.02l.19.14-.02-.02.15.19v-.02l.09.22v-.03l.03.25v-.04l-.03.26s0-.03,0-.04l-.26.44c.21-.2.28-.47.3-.75l-.04.27s0-.06.02-.09l-.1.24s.03-.05.04-.08l-.16.2.04-.04-.2.16s.02-.02.04-.02l-.24.1h.03l-.27.04h.03l-.27-.04h.03l-.24-.1s.02,0,.03.02l-.2-.16h0l-.16-.19s0,.02.02.03l-.1-.24s.02.04.02.07l-.04-.27v.07l.04-.27s0,.06-.02.08l.1-.24-.05.09.16-.2-.08.08.2-.16-.09.06.24-.1s-.05.02-.08.02l.27-.04h-.07l.27.04s-.05,0-.07-.02l.24.1s-.02,0-.03-.02l.46.6v-.04l.04.27v-.15l-.04.27c0-.07.03-.13.05-.19l-.1.24c.03-.06.06-.12.1-.17l-.16.2c.05-.06.1-.11.16-.16l-.21.16s.08-.06.13-.08l-.24.1c.06-.03.12-.04.19-.05l-.27.04h.17l-.28-.04.11.02-.77-1.02c0,.08,0,.16-.02.23l.04-.28c-.03.19-.08.37-.15.55l.11-.27c-.09.2-.19.39-.32.56l.18-.23c-.08.1-.16.18-.25.27h1.62s-.06-.05-.08-.09l.18.23-.06-.1.12.27-.04-.14.04.31v-.16l-.04.31c.01-.07.03-.14.06-.21l-.12.28c.03-.07.07-.13.11-.19l-.18.24s.08-.09.13-.13l-.24.18s.09-.06.14-.08l-.28.12.14-.04-.31.04h.13l-.31-.04s.05.02.08.02l-.82-.82s.01.05.02.07l-.04-.31v.07l.04-.31-.02.08.12-.28s-.02.05-.04.07l.19-.24-.08.08.24-.19s-.07.05-.11.07l.28-.12c-.05.02-.1.04-.16.04l.32-.04h-.13l.32.04s-.06,0-.09-.02l.29.12s-.05-.02-.07-.04l.24.19-.05-.05.19.24-.03-.06.12.29c-.76-2.27-3.71.21-1.69,1.45,2.05,1.33,3.77-2.59,1.09-2.63-1.93-.02-2.47,3.28-.4,3.49,1.52-.1,2.56-3.16.94-3.79-3.21-.59-2.4,4.9.17,2.21,1.12-2.61-3.33-2.09-1.83.16l-.16-.2c.74,1.39,2.81-.18,1.45-1.14h0l-.07-.05Zm-131.89,4.03c3.7-28.61,16.19-57.47,34.02-80.02,10.73-12.25,28.89-8.57,43.44-9.12,2.3.05,22.78.01,16.64-3.35-19.2,4.19-42.12-4.54-58.8,8.37-17.31,18.37-26.76,43.15-34.5,66.84-.91,2.63-4.3,18.82-.82,17.28h.02Z"/>
  <path d="m132.51,209.66c-6.18-21.8-11.21-58.56-.97-79.29.6-1.1-1.1-2.08-1.67-.98-9.33,16.85-6.02,65.16,2.64,80.26h0Zm-46.39,7.34c10.85,16.36,26.57,29.36,43.35,39.31.86.49,1.62-.82.77-1.32-13.01-7.6-25.02-16.99-34.97-28.34-1.19-.96-8.88-11.31-9.16-9.65h0Zm1.53-6.17c10.9,16.38,26.72,28.89,42.42,40.53.79.57,1.59-.76.77-1.32-12.49-8.56-23.58-19.04-33.82-30.15-1.35-1.06-8.65-10.6-9.36-9.06h-.01Zm32.81,48.9c27.01,8.79,20.29-50.77,21.5-65.87,0-1.31-2-1.31-2.03,0-1.71,14.04,5.79,69.49-18.57,64.36-1.04-.46-1.81.84-.89,1.52h-.01Zm26.48-92.39c-3.27,7.17-4.32,16.01-5.56,23.67-.07.42.58.61.65.18l1.13-5.85c1.65-5.63,3.3-12.02,4.35-17.84.1-.37-.45-.52-.57-.16h0Z"/>
  <path d="m123.43,197.18c-.37,3.76,8,61.43,11.85,53.57-3.92-13.06-8.11-26.2-9.64-39.79-.26.35-1.17-16.01-2.21-13.78h0Zm27.16,59.87c-4.85,22.48-17.62,42.92-18.09,66.53-.1,1.36,2.02,1.36,2.12,0,1.05-13.75,4.21-27.36,9.46-40.12,2.33-7.15,10.26-20.02,6.5-26.4h.01Z"/>
  <path d="m139.86,225.16c2.44,24.76,2.76,50.06-4.43,74.16-.34,1.24,1.58,1.77,1.93.53,5.34-18.93,7.38-38.77,5.83-58.38-.78-4.44-.36-14.06-3.33-16.3h0Zm14.46,112.65c-5.21,2.9-17.33,8.59-20.99,1.41-.66-5.23,1.09-10.37.67-15.65-.03-1.56-2.48-1.56-2.42,0,1.29,6.54-4.14,17.22,4.06,20.33,3.82,1.35,20.19-1.53,18.69-6.11h0v.02Zm21.14-3.02c-28.03,16.03-18.48-18.62-18.66-34.45-.34-2.1,4.28-19.71,1.62-17.42-2.85,10.82-4.66,21.93-4.42,33.11.22,8.12-3.18,21.6,7.62,24.13,2.45,2.04,17.48-3.58,13.83-5.38h0Zm3.19,1.17c-3.42.41-8.45,20.19-3.85,15.57-.19-5.41,2.06-10.43,4.42-15.13.11-.31-.3-.63-.57-.44h0Zm4.27.66c-1.69.96-6.5,20.39-1.92,15.18.17-3.64,1.06-7.58,2.1-11.08.28-1.08,2.24-4.95-.18-4.11h0Zm66.11-3.92c1.06,5.47,3.53,10.92,2.33,16.65-.08.46.63.64.69.19.96-2.35.65-19.14-3.03-16.84h0Zm5.27-1.38c1.51,4.85,2.39,10.01,1.2,15.03-.25,1.15,1.5,1.64,1.76.49,1.17-5.18.94-11.35-1.99-15.93-.32-.5-1.14-.19-.97.41h0Z"/>
  <path d="m177.92,335.82c27.74,3.13,55.55-3.47,82.92-5.03,1.24.2,1.77-1.69.52-1.9-10.69-1.21-21.09,3.04-31.75,3.5-10.98,1.11-22.03,1.79-33.07,2.01.62.45-22.36-.81-18.63,1.42h.01Zm95.31-60.25c-4.17,16.29,3.75,32.83,1.48,49.08-1.04,3.82-5.5,6.08-9.16,3.97-1.05-.61-2.02,1.08-.95,1.62,20.9,5.07,9.24-27.8,8.54-38.52-.76-5.25-.56-10.82.66-15.99.09-.37-.48-.53-.57-.16h0Zm3.71,51.63c4.69,3.14,10.19-2.72,7.53-7.46-1.87-6.63-2.85-13.45-3-20.33-.03-1.34-2.11-1.34-2.08,0-.32,8.35,2.61,16.41,3.8,24.4-1,3.72-7.24,2.34-6.24,3.38h-.01Z"/>
  <path d="m288.25,172.97c-9.62,41.33-16.84,84.89-10,127.22.21,1.27,2.14.73,1.93-.53-2.75-16.29-3.18-32.97-2.17-49.43,1.03-16.72,3.56-33.29,6.51-49.77-.06-2.68,6.95-29.68,3.73-27.49h0Z"/>
  <path d="m298.23,283.93c-9.3-15.33-16.52-32.36-17.56-50.48-5.55-5.64,2.57,24.78,3.79,26.81,3.16,7.5,7.73,19.97,13.78,23.66h0Z"/>
  <path d="m303.71,193.4c-7.48,27.36-8.95,56.05-10.1,84.27-.03,1.19,1.83,1.19,1.84,0-.7-27.88,6.25-58.27,8.26-84.28h0Zm-42.31-57.17c55.84-8.01,55.2,28.94,68.58,70.25.39,3,14.16,33.6,15.39,25.54-23.09-27.08-14.59-80.97-50.1-95.75-5.06-1.85-10.46-2.68-15.83-2.86-2.19-.17-21,.2-18.05,2.84v-.02Zm82.44,98.33c-8.16,20.06-25.28,35.85-43.29,47.29-2.68,10.39,38.28-29.45,38.42-33.79,1.54-1.17,9.25-15.29,4.87-13.49h0Zm-3.77-2.76c-10.48,17.79-23.7,34.36-41.64,45.11-2.6,7.13,19-12.03,20.3-13.56,7.62-8.5,20.01-21.27,21.35-31.55h-.01Zm-39.17,53.51c2.13,2.18,17.98-3.87,11.59-5.01-3.31,2.7-7.51,3.66-11.59,4.43-.29.07-.27.49,0,.57h0Zm-81.78-49.79c.02-.05-.17-.47-.07-.22-.31-.7-1.42-.24-1.5.42-.23,1.38,2.05,1.5,2.09.15-1.06-3.85-4.38,2.03-.55.95,1.06-.61.44-2.2-.72-2.1-1.33.01-1.44,1.87-.21,2.2,1.23.49,2.11-1.12,1.21-2-1.15-1.36-3.02.37-2.21,1.76.38.84,1.44.41,2.05.08,1.41-.76.53-2.89-.99-2.56-1.41.23-1.3,2.45.02,2.74,2.76.43,2.03-4.02-.48-2.77-1.04.55-.98,2.2.01,2.77.84.47,1.5-.84.63-1.27l.14.11c-.05-.04-.11-.1-.15-.15l.11.14c-.05-.06-.09-.13-.12-.2l.07.17c-.04-.09-.06-.18-.07-.27l.02.19c-.01-.09-.01-.19,0-.28l-.02.18c0-.08.03-.17.07-.24l-.07.17c.03-.06.06-.11.1-.17l-.11.14c.04-.05.09-.1.14-.14l-.14.11c.05-.04.1-.07.16-.1l-.17.07c.07-.03.14-.05.22-.06l-.18.02c.09,0,.18,0,.27,0l-.18-.02c.09,0,.17.04.26.07l-.16-.07c.07.03.13.07.2.11l-.14-.11c.05.04.1.09.15.14l-.11-.14s.07.1.1.16l-.07-.16c.02.06.04.12.05.18l-.02-.18v.19l.02-.18c0,.08-.03.15-.06.22l.07-.16c-.03.07-.07.14-.12.2l.11-.14c-.05.06-.1.12-.17.17l.14-.11c-.06.05-.13.09-.2.12l.16-.07c-.06.02-.12.04-.18.05l.18-.02h-.17l.18.02c-.06,0-.11-.02-.17-.04l.16.07c-.05-.02-.1-.05-.15-.09l.14.11c-.05-.04-.1-.09-.14-.14l.11.14c-.04-.06-.08-.12-.11-.19l.07.16c-.03-.08-.05-.16-.07-.24l.02.18v-.23l-.02.18c0-.06.03-.12.05-.18l-.07.16.08-.13-.1.14s.07-.08.11-.11l-.14.1s.08-.05.13-.07l-.16.07c.05-.02.1-.03.15-.04l-.18.02h.2l-.18-.02c.07.01.14.03.21.06l-.16-.07c.07.03.14.07.21.12l-.13-.1c.05.04.1.09.14.14l-.1-.13c.03.05.06.1.09.15l-.07-.16.04.14-.02-.18v.17l.02-.17c0,.07-.03.13-.05.19l.07-.16c-.03.06-.06.11-.1.16l.1-.13c-.05.07-.11.12-.18.18l.13-.1c-.1.08-.22.14-.34.19l.16-.07c-.24.1-.49.16-.75.2l.63.17-.06-.07.1.13c-.05-.06-.08-.12-.11-.19l.06.15c-.03-.07-.05-.15-.06-.23l.02.17c-.01-.09-.01-.19,0-.28l-.02.17c0-.09.04-.17.07-.25l-.06.15c.03-.07.07-.14.12-.2l-.1.13c.04-.05.09-.1.14-.14l-.13.1s.1-.07.16-.09l-.15.06c.05-.02.1-.04.16-.04l-.17.02h.15l-.17-.02c.06,0,.12.03.18.05l-.15-.06c.06.03.12.07.18.11l-.13-.1c.06.05.12.1.16.17l-.1-.13c.05.06.08.13.11.2l-.06-.15c.02.06.04.12.05.18l-.02-.17v.16l.02-.16s-.02.1-.04.14l.06-.15-.08.13.1-.12s-.05.06-.08.08l.12-.1-.1.06.15-.06-.14.04.16-.02h-.18l.16.02c-.07,0-.13-.03-.2-.05l.15.06c-.07-.03-.13-.07-.19-.11l.12.1s-.09-.08-.13-.13l.1.12-.07-.12.06.15s-.03-.08-.03-.12l.02.16v-.12l-.02.16.03-.11-.06.14s.03-.07.06-.1l-.09.12s.05-.06.09-.09l-.12.09.11-.06-.14.06.15-.04-.16.02h.19l-.16-.02c.07,0,.14.03.2.05l-.14-.06c.05.02.1.05.15.09l-.12-.09s.06.07.1.1l-.09-.12s.04.08.06.11l-.06-.14s.02.08.03.12l-.02-.16v.14l.02-.16s-.02.08-.04.13l.06-.14s-.04.08-.07.11l.09-.12s-.07.08-.12.12l.12-.09c-.06.04-.12.07-.18.1l.14-.06c-.06.03-.13.04-.2.05l.16-.02h-.22l.15.02s-.1-.02-.14-.04l.14.06s-.08-.04-.11-.07l.11.09-.09-.09.09.11s-.05-.07-.07-.11l.06.13s-.03-.08-.03-.12l.02.14v-.16l-.02.14c0-.07.03-.13.05-.2l-.05.13c.03-.07.07-.14.12-.2l-.08.11s.08-.09.13-.13l-.11.08s.09-.06.14-.08l-.13.05c.05-.02.1-.04.16-.04l-.14.02h.13l-.14-.02c.05,0,.1.02.15.04l-.13-.05.14.08-.11-.08s.09.08.13.13l-.08-.11c.02.06.05.11.09.16l-.05-.12c.03.06.04.12.05.19l-.02-.14v.16l.02-.14s-.02.09-.04.13l.05-.12s-.03.07-.06.1l.08-.1s-.05.06-.08.08l.1-.08-.12.07.12-.05-.15.04.14-.02h-.17l.14.02c-.06,0-.11-.02-.17-.04l.12.05s-.08-.04-.12-.07l.1.08s-.06-.05-.08-.08l.08.1s-.04-.06-.05-.09l.05.12-.03-.1.02.13v-.1l-.02.13.03-.12-.05.12s.03-.06.05-.08c.02-.04-.12.14,0,.01.02-.02.06-.05,0,0-.09.08.06-.05.09-.05l-.12.05s.16-.07.19-.11c-.07.05-.04.03,0,0-.02,0-.14.05,0,0h-.08c.12.03.23-.05.31-.12l-.18.1s.09-.02.02,0c-.13,0,.13,0-.04,0,.17.03.37-.09.36-.27h0v.02Zm-.98,36.31c-2.1-.61-2.46,2.87-.31,2.86,2.15.06,1.85-3.48-.28-3.05-1.7.22-1.69,2.72-.07,3.06,1.8.43,2.59-2.54.81-3.05-2.14-.56-2.94,2.94-.59,3.07,2.04.08,1.79-3.31-.25-2.69-3.04,1.6,2.28,4.14,1.35.64-.62-1.38-2.45.22-.96.77l-.16-.07s.06.04.09.06l-.14-.1s.04.06.07.08l-.1-.13s.04.08.06.11l-.07-.16s.03.11.04.16l-.02-.18v.17l.02-.18c0,.06-.02.11-.04.16l.07-.16-.06.11.1-.13-.09.09.13-.1-.08.05.16-.07s-.08.03-.13.03l.18-.02h-.11l.18.02s-.09-.02-.13-.04l.16.07s-.1-.05-.14-.08l.13.1s-.09-.08-.13-.13l.1.13s-.07-.11-.09-.16l.07.16c-.02-.05-.03-.11-.04-.16l.02.18v-.14l-.02.18.03-.11-.07.16s.04-.08.07-.11l-.1.13s.06-.07.1-.1l-.13.1s.09-.06.15-.08l-.16.07c.06-.02.12-.04.19-.05l-.17.02h.19l-.17-.02c.07,0,.13.02.19.05l-.16-.07c.05.02.1.05.15.08l-.13-.1.11.11-.1-.13s.06.09.08.14l-.07-.16c.02.05.03.11.04.16l-.02-.17v.21l.02-.17c0,.08-.03.15-.06.23l.07-.16c-.03.07-.06.13-.11.18l.1-.13s-.08.09-.13.13l.13-.1c-.05.04-.1.07-.16.1l.16-.07c-.06.03-.13.04-.19.05l.17-.02h-.2l.17.02c-.08,0-.16-.03-.24-.07l.15.07c-.08-.03-.15-.08-.22-.13l.13.1c-.06-.05-.11-.1-.16-.16l.1.13c-.05-.06-.09-.13-.12-.2l.06.15c-.03-.06-.04-.13-.05-.2l.02.17v-.19l-.02.17c0-.08.03-.15.06-.23l-.06.15c.04-.08.08-.16.14-.23l-.1.13c.06-.08.13-.15.21-.21l-.13.1c.08-.06.17-.12.27-.16l-.15.06c.08-.03.16-.06.25-.07l-.17.02h.22l-.17-.02c.07,0,.13.03.19.05l-.15-.06c.06.03.12.06.17.1l-.13-.1c.05.04.1.09.14.14l-.1-.13c.04.06.07.12.1.18l-.06-.15c.03.08.05.16.06.24l-.02-.17c0,.1,0,.19,0,.29l.02-.17c-.02.11-.04.21-.08.3l.06-.15c-.04.09-.09.17-.15.25l.1-.13c-.05.06-.1.11-.16.16l.13-.1c-.06.04-.11.08-.18.1l.15-.06c-.06.02-.12.04-.19.05l.16-.02h-.21l.16.02c-.08-.01-.15-.03-.22-.06l.15.06c-.08-.03-.15-.07-.22-.12l.12.1c-.07-.06-.14-.12-.2-.19l.1.12c-.06-.08-.11-.17-.15-.26l.06.15c-.03-.08-.05-.16-.07-.24l.02.16v-.22l-.02.16c.01-.07.03-.14.06-.21l-.06.15c.03-.07.07-.14.12-.2l-.09.12c.05-.07.11-.12.18-.17l-.12.09c.07-.06.15-.1.24-.14l-.14.06c.09-.03.17-.06.27-.07l-.16.02c.1-.01.2-.01.3,0l-.16-.02c.08.01.15.03.22.06l-.14-.06.18.1-.12-.09c.06.05.11.1.16.16l-.09-.12c.05.06.08.13.11.2l-.06-.14c.04.09.06.18.07.27l-.02-.15c0,.1,0,.2,0,.3l.02-.15c0,.09-.04.18-.07.27l.06-.14c0,.06-.21.32-.03.1-.03.04-.07.09-.11.12-.07.06.12-.08.04-.03-.04.03-.09.05-.14.07l.14-.06c-.08.03-.15.05-.23.06l.15-.02c-.1.01-.19.01-.29,0l.15.02c-.11-.02-.22-.05-.33-.08.26.1-.07-.03-.1-.08.24.21-.21-.25-.02,0-.04-.04-.11-.27-.05-.06l-.04-.16c.01.3,0-.31,0,0,0-.07.03-.14.06-.2-.09.21.04-.08.08-.11l-.03.04s.23-.21.08-.1l.12-.09-.04.03s.11-.06.16-.09c-.21.09.12-.04.15-.06l-.07.03s.23-.05.06-.03c.52.12.79-.62.26-.79h0l-.05.04Z"/>
  <path d="m218.5,294.38v-.22s0,.15,0,.15c.04-.68-.98-.91-1.49-.69-2.18,1,.57,4.03,1.94,1.91,1.03-1.81-2.07-3.44-2.77-1.33-.94,2.67,3.5,2.77,3.05.15-.7-2.54-4.65-.74-3.02,1.45,2.52,2.51,4.32-3.08.81-2.51-1.88.52-1.42,3.35.49,3.37,1.45.13,2.32-1.87,1.03-2.71-1.17-.86-2.74,1.05-1.49,1.92.8.54,1.93-.47,1.18-1.24-.63-.66-1.66.35-1,1h0l-.11-.13s0,.02,0,.03l-.07-.17h0c-.03-.09-.03-.26,0-.35h0s.05-.1.07-.16c0,0,0,.01,0,.02l.11-.14-.02.02.14-.11s-.03.02-.04.02l.17-.07s-.05.01-.07.02l.19-.03h-.1l.19.03s-.05-.01-.07-.02l.17.07-.05-.03.14.11-.03-.03.11.14-.03-.06.07.17-.03-.11.03.19v-.11l-.03.19s.02-.09.04-.13l-.07.17c.02-.05.05-.1.09-.14l-.11.14s.06-.07.1-.1l-.14.11.14-.09-.17.07.13-.04-.19.03h.14l-.19-.03s.09.03.13.04l-.17-.07s.08.05.12.07l-.14-.11s.09.08.13.13l-.11-.14s.07.11.09.17l-.07-.17c.02.06.04.12.05.19l-.03-.19v.19l.03-.19c0,.06-.02.11-.05.16l.07-.17c-.03.07-.06.13-.11.18l.11-.14c-.05.06-.09.1-.15.15l.14-.11c-.07.06-.15.1-.24.14l.17-.07c-.08.03-.16.05-.24.06l.19-.03c-.09,0-.18,0-.27,0l.19.03c-.09-.01-.18-.04-.26-.07l.17.07c-.08-.04-.16-.08-.23-.14l.14.11c-.08-.06-.15-.13-.22-.21l.11.14c-.06-.08-.11-.17-.15-.26l.07.17c-.03-.08-.06-.17-.07-.26l.02.19v-.24l-.02.18c0-.08.03-.15.06-.23l-.07.17c.04-.08.08-.16.13-.23l-.11.14c.06-.08.13-.15.21-.21l-.14.11c.07-.05.15-.1.23-.13l-.17.07c.08-.03.16-.06.25-.07l-.18.02h.23l-.18-.02c.06.01.12.03.19.05l-.16-.07c.08.03.14.07.21.12l-.14-.11c.06.05.12.11.17.17l-.11-.14c.06.07.1.15.14.23l-.07-.16c.03.08.06.17.07.26l-.02-.18c0,.08,0,.16,0,.24l.02-.18c-.01.07-.03.14-.06.21l.07-.16c-.03.06-.06.11-.1.16l.11-.14c-.04.06-.09.1-.15.15l.14-.11c-.07.05-.15.1-.23.13l.16-.07c-.08.03-.17.06-.26.07l.18-.02c-.09,0-.18,0-.27,0l.18.02c-.08-.01-.16-.03-.23-.06l.16.07c-.07-.03-.13-.06-.19-.11l.14.11c-.06-.05-.11-.1-.16-.16l.1.14c-.05-.07-.09-.14-.13-.22l.07.16c-.04-.1-.07-.2-.08-.3l.02.18c-.01-.09-.01-.19,0-.28l-.02.18c0-.09.04-.18.07-.27l-.07.16.09-.17c.06-.1-.1.12-.04.05.04-.06.25-.18,0-.02.06-.04.13-.08.2-.11l-.16.07c.09-.03.18-.06.27-.07l-.18.02c.1-.01.2-.01.31,0l-.18-.02c.12.02.23.05.34.09l-.16-.07c.08.01.41.28.13.05.04.03.09.07.12.11.1.1-.09-.13-.03-.04l.09.16-.07-.16c.03.07.05.14.06.21l-.02-.17c0,.08,0,.15,0,.23l.02-.17c0,.08-.03.15-.06.22l.07-.15c0,.06-.25.35-.06.12-.23.23-.06.08-.33.25.23-.09-.06.02-.14.02l.17-.02c-.08.01-.17.01-.25,0l.17.02c-.08-.01-.26-.08-.06,0-.09-.02-.21-.14-.06-.01,0-.03-.07-.07-.09-.09-.04-.04.1.14.05.06,0-.02-.02-.03-.03-.05-.04-.06-.07-.19,0,.02-.03-.08-.05-.16-.06-.24l.02.16c0-.1,0-.2,0-.3l-.02.16s.11-.41.05-.24c-.05.12.02-.03.04-.06,0-.02.03-.04.04-.07.04-.07-.11.12-.03.04l.11-.1c-.12.11-.06.03.03,0,.08-.04-.14.05-.06.03.04,0,.08-.03.12-.02h-.09s.11.01.14.01c-.1-.02-.13-.03,0,0,0,0,.09.02.09.03,0,0-.13-.06-.08-.03.05.01.17.06.19.11,0,.01-.11-.09-.07-.05.05.05.12.1.16.16,0,.01-.08-.12-.05-.07.02.03.11.15.11.19l-.03-.07c.01.05.04.15.05.21v-.09s-.01.1,0,.13c0,.11.03-.13,0-.04,0,.03,0,.05-.02.08-.03.11.05-.07.01-.01-.02.03-.04.07-.06.1-.03.05.05-.07.05-.06,0,.02-.11.13-.14.14,0,0,.11-.08.06-.05-.04.02-.09.06-.14.08.11-.05-.1.03-.13.03-.11.03.11,0,.02,0h-.18c-.07,0,.12.03.06,0-.04,0-.08-.01-.12-.02l.06.03s-.09-.07-.13-.08l.05.04s-.15-.16-.05-.05c0-.01-.02-.02-.02-.03-.03-.07-.09-.15-.03-.03-.03-.07-.02-.15-.05-.21v.07c0-.06,0-.31,0-.12v-.09s0,.01,0,.01c0-.05.03-.09.04-.14.01-.05-.05.08-.02.04.03-.03.08-.16.02-.05.03-.02.15-.15.05-.06.02,0,.15-.08.16-.09-.12.06.05-.03.11-.03.05-.02-.09,0-.03,0,.05,0,.14,0,.19,0-.12-.02.15.04.2.06-.06-.02,0,0,.02.02-.04,0,.25.13.32.07h-.15s.04.01.06.02c.08.06.3.03.3-.15h0v.02Zm-.28,19.6s-.47.03-.26,0c-.08,0-.16.02-.24.02h.07c-2.16.55-1.2,3.57.92,2.6,1.69-.79.1-3.41-1.42-2.46-2.19,1.63,1.09,4.37,2.39,1.97.85-1.54-1.05-2.89-2.32-1.75-1.6.88-.32,3.27,1.27,2.35,2.24-1.6-1.43-4.29-2.35-1.75-.39,1.3,1.35,2.62,2.36,1.52.94-.8.15-3.01-1.15-2.16-1.7.9-.14,3.39.57,1.33l-.02.18c0-.09.04-.18.08-.27l-.07.17c.04-.09.09-.17.14-.24l-.11.14c.06-.07.12-.14.2-.2l-.14.11c.07-.05.14-.09.21-.13l-.17.07h.03c-.18-.04-.36-.06-.53-.08l.09.06-.14-.11.09.09-.11-.14.09.14-.07-.17c.02.06.04.12.05.19l-.02-.18c0,.08,0,.16,0,.24l.02-.18c0,.08-.03.16-.07.24l.07-.17c-.03.06-.06.12-.1.17l.11-.14c-.04.05-.09.1-.14.14l.14-.11s-.08.05-.13.07l.16-.07c-.05.02-.1.03-.15.04l.18-.02h-.15l.18.02c-.07,0-.13-.03-.19-.05l.16.07c-.06-.03-.12-.06-.17-.1l.14.11c-.06-.05-.11-.1-.16-.16l.11.14c-.05-.07-.09-.14-.13-.22l.07.16c-.03-.07-.05-.14-.06-.22l.02.18v-.22l-.02.18c0-.06.03-.11.05-.17l-.07.16s.06-.1.09-.15l-.11.14.12-.12-.14.11c.05-.04.11-.07.17-.1l-.16.07c.08-.03.16-.05.24-.07l-.18.02c.09,0,.18,0,.27,0l-.18-.02c.09.01.18.04.26.07l-.16-.07c.07.03.13.07.19.11l-.14-.11c.06.05.11.1.16.16l-.11-.14c.02.06.05.11.09.16l-.07-.16c.03.07.05.14.06.22l-.02-.18v.23l.02-.18c0,.08-.03.15-.06.22l.07-.16c-.03.07-.07.13-.11.19l.11-.14s-.07.08-.12.12l.14-.11s-.09.06-.14.08l.16-.07-.15.04.18-.02h-.18l.18.02c-.07-.01-.14-.03-.2-.06l.16.07-.16-.09.14.11s-.08-.07-.11-.11l.11.14s-.05-.07-.07-.11l.07.16c-.02-.05-.03-.11-.04-.16l.02.18v-.14l-.02.18c0-.06.03-.12.05-.18l-.07.16c.03-.06.06-.12.1-.17l-.11.14c.07-.09.15-.16.24-.23l-.14.11c.13-.1.28-.18.43-.25l-.16.07c.13-.05.26-.1.4-.12l-.18.02h.16l-.18-.02s.09.03.13.04l-.16-.07s.08.05.12.07l-.14-.11s.08.08.12.12l-.11-.14c.05.06.08.13.11.2l-.07-.16c.03.07.05.14.06.22l-.02-.18c.01.09.01.17,0,.26l.02-.18c0,.08-.03.16-.06.23l.07-.16c-.03.07-.06.12-.1.19-.06.09.12-.14.02-.03-.04.05-.08.09-.13.13-.08.07.15-.11.03-.02-.06.04-.12.07-.19.1l.16-.07c-.1.04-.2.07-.3.09l.17-.02c-.09.01-.17.01-.26,0l.17.02s-.16-.03-.2-.05c.23.07.05.03,0-.02-.08-.05.12.1.06.05l-.09-.09c-.06-.07.09.13.05.07-.05-.05-.13-.3-.03-.05-.03-.08-.05-.16-.06-.25l.02.17c0-.1,0-.2,0-.31l-.02.17c0-.08.03-.16.06-.24.02-.07-.07.16-.03.08.01-.06.19-.22.02-.05.02-.03.2-.19.07-.08-.09.07-.03.02,0,0,.19-.09-.06,0-.01,0,.05,0,.09-.03.14-.03l-.16.02h.17l-.16-.02c.07,0,.13.03.19.05-.24-.08-.02,0,.03.04.08.05-.13-.11-.02-.02.03.02.05.05.07.07.09.1-.04-.07-.02-.03.02.03.03.05.05.07.02.03.03.06.05.09.05.09-.06-.16,0-.03,0,.02,0,.05.02.07.03.14,0-.14,0-.04v.1c.05-.33-.09.21.02-.09-.02.03-.03.06-.05.09-.05.08.11-.12,0-.01-.02.02-.04.03-.06.05l.05-.04s-.23.1-.02.03c-.35.1-.45.07-.85-.15l.25.32-.03-.11c-.02-.1,0,.1,0,.04,0-.04,0-.13,0-.17,0-.05.03-.08,0,.04.04-.26.05-.16.17-.4.04-.06,0,.02-.03.03.2-.22.16-.14.42-.32-.17.11.15-.07,0,.01l.11-.04c.27.13.67-.8-.03-.82h0v.02Z"/>
  <path d="m219.32,254.2c.32-.16.25-.69.13-.74-.52-.79-1.85.3-1.5,1.31.31,1.68,2.59.78,2.2-.68-.74-1.8-2.81-.98-2.02.88.66.61,2.19.18,2.16-.84-.04-1.45-2.25-1.44-2.27.02-.25,1.32,2.28,2.04,2.27.49-.23-2.18-3.49-1.2-1.93.67.58.59,1.47-.36.86-.91l.1.13c-.05-.07-.09-.14-.12-.21l.06.15c-.03-.08-.05-.16-.06-.24l.02.17v-.25l-.02.17.02-.1-.29.37s.04-.02.07-.04l-.15.06.14-.04-.17.02h.16l-.17-.02c.07,0,.13.03.2.05l-.15-.06.18.1-.13-.1c.06.05.11.1.16.16l-.1-.12c.04.05.07.1.09.16l-.06-.15c.02.05.04.1.04.16l-.02-.16v.15l.02-.16s0,.06-.02.09l.43-.43c-.06.02-.12.04-.18.05l.16-.02h-.23l.16.02c-.07,0-.14-.03-.2-.06l.15.06-.18-.1.12.1-.12-.11.09.12s-.06-.09-.08-.14l.06.14-.04-.15.02.16v-.17l-.02.16c0-.06.03-.13.05-.19l-.06.14c.02-.05.05-.1.09-.15l-.09.12s.07-.08.11-.11l-.12.09s.07-.05.11-.07l-.14.06.13-.04-.16.02h.1l-.16-.02s.09.03.13.04l-.14-.06s.1.05.14.08l-.12-.09s.06.07.1.1l-.09-.12s.06.09.08.14l-.06-.14s.02.09.03.13l-.02-.16v.1l.02-.16-.03.11.06-.14-.06.1.09-.12-.09.09.12-.09s-.09.06-.14.08l.14-.06c-.08.03-.16.05-.25.06l.15-.02c-.18.02-.36.01-.54,0l.58.58v-.93l-.41.54c.05-.02.11-.03.16-.04l-.15.02h.18l-.15-.02c.08.01.15.03.22.06l-.13-.06c.07.03.13.07.2.11l-.11-.09c.05.04.1.09.15.14l-.09-.11c.04.05.08.11.1.17l-.06-.13c.02.05.03.11.04.16l-.02-.15v.19l.02-.15c0,.07-.03.14-.06.2l.05-.13c-.03.07-.07.13-.11.18l.08-.11c-.05.06-.11.12-.17.17l.11-.08c-.05.04-.11.07-.16.1l.13-.05c-.06.02-.12.04-.18.05l.14-.02h-.04l.14.02s-.03,0-.05-.02l.12.05s-.1-.05-.14-.08l.1.08s-.09-.08-.13-.13l.08.1c-.04-.06-.08-.12-.1-.18l.05.12c-.03-.07-.05-.14-.06-.22l.02.13c-.01-.09-.01-.19,0-.28l-.02.13c0-.08.03-.16.06-.24l-.05.12.1-.18-.08.1c.04-.05.08-.11.13-.16l-.08.1s.17-.18.03-.05c.02-.01.18-.08.07-.04-.07.02-.03,0,0,0-.08,0-.07.04-.18-.02l.1.04-.06-.03s.07.05,0,0c-.03-.02-.03-.03,0,0,.02.04.26.13.14.09-.02,0-.1-.08-.06-.03l-.03-.04c.03.05.07.09.12.12l-.11-.11c-.02.06.17.24.35.14v.03Zm29.47-123.81c-9.94,22.16-47.99,17.56-49.81-7.98-.1-.63-1.06-.36-.96.27,1.81,20.19,25.57,28.79,41.89,18.86,4.39-2.43,8.2-6.04,9.86-10.88.21-.61-.76-.87-.96-.27h-.02Zm-16.67.54c26.84.64,46.44-7.47,55.87-34.11.23-.6-.74-.86-.96-.27-10.81,29.15-28.42,31.34-54.91,34.38Zm-3.87-1.49c-12.19-6.94-18.61-20.63-18.03-34.42,0-.64-.99-.64-1,0-.65,13.36,6.27,30.18,19.03,34.43h0Zm-19.16-25.44c-2.35,6.47-6.22,12.53-12.02,16.42-.66,3.29,6.82-4.7,7.43-5.7,1.37-1.83,6.46-9.53,4.59-10.71h0Zm5.47,72.04c-1.57.84-2.18,3.38-1.16,4.84,1.79,1.26,3.46-2.58,2.47-3.94-.54-1.13-1.66-.77-2.23.12-3.4,5.85,3.7,6.21,2.57.11-1.49-3.78-5.04,2.47-3.17,4.26,3.19,2.68,5.27-5.98,1.5-5.22-4.79,3.96,1.25,8.94,1.9,1.9-.14-2.69-2.91-1.12-2.9.76-.75,5.24,4.88-.62,1.13-.92-2.08,1.01.49,3.64.57,1.24-.03.15.03-.11,0,.03l.03-.06s-.04.05.02,0c-.1.05.06-.02.08-.03l-.94-.25s.11.21.07.08c.02.04.03.09.04.13.03.09,0-.11,0-.02v.11c0,.1.03-.11,0,0,0,.05-.08.27-.02.14-.03.07-.07.13-.11.2.12-.15-.21.21-.08.08l-.07.04c.1-.04-.17.04-.19.04l.84.47c-.29-.7.25-2.06.48-2.2.07.09-.35-.11-.29-.08.05.48.05,2.06-.86,2.45.1-.05-.07.02-.1,0,.07,0,.06,0-.02,0,.11.07,0-.04,0,0,.04-.06.12.16,0-.02.04.07,0-.04,0-.05-.31-.85.5-2.38,1.07-2.9,0,0-.21-.04-.21-.04l-.02-.02.07.12s.04.09.02.06c.41,1.01.26,2.6-.76,3.16-.26.04-.21,0-.35-.1.07.09.02.02,0,0,0,0-.09-.18-.04-.05-.13-.32-.11-.61-.08-.99.11-.64.48-1.99,1.32-2.37-.03.21-.25-.12-.27-.11.63,1.07.32,2.69-.63,3.51.04-.03-.16.14-.12.09l-.07.04s.05-.02.11,0c-.68-1.17-.17-2.81.97-3.52h-.53c1.16.71.3,2.41-.51,3.05-.22-.58-.28-2.06.3-2.85.2-.34,1.13-1.4.19-1.29h0v.03Z"/>
  <path d="m249.09,134.29c-7.25,16.94-19.77,30.92-33.9,42.51-.54.44.23,1.22.77.77,12.95-11.44,29.94-27.24,33.13-43.28h0Zm-34.19,42.23c-12-14.45-19.98-32.6-19.2-51.64.02-.75-1.15-.75-1.16,0-.3,18.42,6.84,39.91,20.37,51.64h-.01Zm3.81,163.73s-.15-.23-.07-.1c-.32-.48-.96.02-1.07.44-.01.04-.05.12.02-.03-.31,3.85,4.18.04.72-.87-1.52.08-1.44,2.41-.11,2.77,1.51.42,2.4-1.84,1.27-2.76-1.35-1.15-3.55.64-2.67,2.2,1.48,2.85,5.26-.61,2.66-2.37-3.11-1.73-3.97,4.26-.55,3.02,2.03-1.18-.3-4.02-1.88-2.38-1.94,3.34,4.11,2.92,1.75.05-1.12-.53-1.82,1.54-.92,2.11.63.37,1.31-.36,1.01-.99l.03.19v-.22l-.03.19c.01-.07.03-.14.06-.21l-.07.17c.03-.07.07-.13.11-.19l-.11.15.06-.07-.87.11h.02l-.15-.1s.05.05.08.08l-.11-.14s.04.06.05.09l-.07-.17s.02.08.03.12l-.03-.19v.17l.03-.19c0,.06-.03.12-.05.17l.07-.17-.1.18.11-.14s-.09.1-.14.14l.14-.11-.13.08.17-.07s-.08.03-.13.03l.19-.03h-.13l.19.03s-.09-.02-.14-.04l.17.07-.14-.08.14.11s-.08-.07-.11-.11l.11.14c-.04-.06-.08-.12-.1-.18l.07.17c-.03-.07-.05-.15-.06-.23l.03.19c0-.08,0-.16,0-.24l-.03.19c0-.07.03-.14.05-.21l-.07.17.09-.16-.11.14.12-.12-.14.11.15-.09-.17.07c.07-.03.14-.05.22-.06l-.19.03c.08-.01.17-.01.25,0l-.19-.03c.09.01.18.04.27.07l-.17-.07c.07.03.13.07.19.11l-.14-.11c.05.04.1.09.14.14l-.11-.14s.07.11.1.17l-.07-.17c.02.06.04.12.05.18l-.02-.18v.19l.02-.18c-.01.07-.03.14-.06.21l.07-.17c-.03.08-.08.15-.13.22l.11-.14c-.05.07-.11.13-.18.18l.14-.11c-.06.05-.12.08-.19.11l.16-.07c-.07.03-.14.05-.21.06l.18-.02h-.19l.18.02c-.07-.01-.13-.03-.19-.06l.16.07c-.06-.03-.12-.06-.17-.1l.14.11c-.07-.05-.12-.11-.18-.18l.11.14c-.06-.08-.1-.16-.14-.24l.07.16c-.04-.1-.07-.2-.08-.3l.02.18c0-.1,0-.21,0-.31l-.02.18c0-.09.04-.17.07-.25l-.07.16c.03-.08.08-.15.13-.22l-.1.14c.06-.07.12-.14.19-.19l-.14.1c.09-.07.18-.12.28-.16l-.16.07c.11-.05.22-.08.34-.09l-.18.02c.13-.02.25-.02.38,0l-.18-.02c.11.02.21.04.32.08l-.16-.07c.07,0,.41.28.15.06.04.04.1.07.13.13.07.08-.11-.16-.03-.03.04.06.07.12.09.18l-.07-.16c.04.09.06.19.08.29l-.02-.17c0,.12,0,.24,0,.35l.02-.17c-.02.13-.05.25-.1.37l.07-.15c-.15.29-.09.19-.26.35l.07-.05c-.06.04-.13.08-.2.11l.15-.06c-.08.04-.17.06-.26.07l.17-.02c-.1.01-.2.01-.3,0l.17.02c-.32-.06-.22-.05-.42-.16-.05-.03-.13-.12.02.02-.23-.21-.13-.1-.26-.34.15.28-.05-.09-.03-.16l.02.17c0-.09,0-.18,0-.27l-.02.17c0-.06.02-.12.04-.17.05-.14-.06.12-.02.03.02-.05.06-.11.09-.16.07-.1-.02.04-.04.04.05-.03.14-.16.2-.2-.15.13-.08.06-.03.03.23-.1.08-.08.39-.14l-.16.02c.09,0,.18,0,.27,0l-.16-.02c.05,0,.18.05.22.05-.02,0-.16-.08-.05-.02.03.02.16.11.06.03s.02.03.04.05c.07.07-.05-.05-.05-.07.03.03.08.12.1.16-.14-.28.03.05.02.12l-.02-.16c0,.1,0,.21,0,.31l.02-.16c0,.09-.03.2-.07.28-.03.09.06-.14.03-.07,0,.02-.02.03-.02.05-.02.03-.06.15-.1.17,0,0,.11-.13.05-.07-.04.03-.07.08-.11.1-.05.05.15-.11.02-.03-.03.02-.06.03-.08.04.17-.11.07-.01-.01,0-.09.02.06-.01.08,0h-.15c.1,0,.16.03,0,0-.08-.02.13.06.07.03-.03,0-.09-.06-.12-.07.13.11.04.03,0-.04-.06-.06.08.11.04.06-.05-.04-.16-.35-.07-.09-.04-.05-.08-.46-.06-.16,0-.06,0-.15,0-.21,0-.1-.02.12,0,.07l.04-.16c-.03.15-.05.1,0,.04,0-.01,0-.02.02-.03.05-.08-.08.09-.04.05.03-.06.18-.11,0-.01,0-.01.17-.09.06-.04-.1.04.02,0,.04,0,.09-.03-.2,0,.03,0-.14.01-.12-.02-.04,0,.12.04-.1-.06-.03-.01.02.01.05.03.07.04.06.04-.11-.1-.03-.03.02.03.07.06.09.1.05.06-.07-.1-.04-.05l.09.14c.05.12,0-.07-.01-.03.01.06.03.12.05.18.03.11,0-.12,0-.04v.09s0,.15,0,.03c.02-.14,0,.07-.02.09.04-.15.04-.09,0-.04-.06.11.08-.09,0-.01s.08-.05.03-.02c-.02.01-.04.03-.06.04-.07.04.11-.04.06-.02-.03,0-.06.01-.09.01-.04.02.2,0,0,0,.27.02-.1-.03.08,0,.17.1-.16-.15.05.03-.19-.18.05.12-.08-.09-.03-.06-.03-.13,0,.03l-.08-.34c.04.3,0-.22,0,.07.02-.06.02-.18,0-.24,0,.09,0,.12.02.08,0-.08,0,.07,0,.06s0-.07.02-.08c.02-.1,0-.03-.01.02.08-.12,0-.05,0-.02,0,0,.1-.09.02-.03-.03.03-.04.03-.02.01.03-.02.02-.01-.06.02.18-.07.3-.21.3-.41,0,.06-.03.11-.04.17.02-.02,0-.01-.03.03,0-.01.06-.05,0-.02.09-.06.12-.16.07-.26h0l.04-.04Z"/>
  <path d="m213.28,341.93c1.08.77,3.67-.06,4.97.04.32-.19,8.52,0,5.66-1.57-1.27.37-10.77.39-10.62,1.53h0Zm-3.41-5.32c-.12.04-.21.16-.2.28,0,0,.05,7.47.05,7.47,1.72,2.68,1.14-7.69.15-7.74h0Zm-.98,13.23c2.27,19.77-.75,39.89.7,59.71.06,1.28,2.07,1.29,2,0-.93-14.64-.52-30.84.15-45.57.08-1.91.22-17.65-2.85-14.15h0Zm12.75.64c1.72,15.95,1.02,33.49-.68,49.45-.93,3.73-3.14,7.56-6.89,9.01-1.24.48-.67,2.49.55,1.99,7.63-3.17,8.99-11.72,9.24-19.07-.61-5.02,3.54-42.14-2.22-41.37h0Zm36.8-7.17c2.15,2.64,26.22-9,20.8-9.85-6.47,4.12-13.62,6.99-20.88,9.31-.25.12-.14.46.07.54h.01Z"/>
  <path d="m181.46,348.89c22.45,2.84,45.98,2.53,68.14-2.52,1.25-.3.72-2.23-.53-1.93-17.36,4.24-35.21,4.62-52.98,4.04-1.81.37-15.47-1.57-14.63.41Zm-37.99-4.12c1.06,3.33,32.17,8.13,27.03,3.27-7.97.67-16.03-.68-23.63-3.07-.84-.1-3.44-1.5-3.4-.2h0Zm-3.88-.74c-45.71,77.72-64.16,170.66-55.93,260.42,0,0,.57,5.58.57,5.58.13,1.22,2.07,1.24,1.94,0-8.17-75.53,3.36-153.04,33.72-222.73,5.66-13.23,12.2-26.03,18.88-38.77.68-1.35,1.23-2.71,1.79-4.12.24-.61-.64-.84-.97-.41h0v.03Zm69.49,84.29c-4.2,41.75-17.92,81.59-34.16,120.05-8.78,23.16-19.61,45.57-34.27,65.62-.87,1.23,1.14,2.38,2.01,1.18,27.69-38.86,69.25-141.08,66.42-186.83h0v-.02Z"/>
  <path d="m229.93,629.17c-17.67-53.76-11.87-111.08-24.27-165.8-.28-1.35-2.34-.78-2.06.57,4.62,22.32,7.79,44.96,9.3,67.71,1.54,31.68,4.54,69.85,17.03,97.52h0Zm48.12,10.41c27.49-61.82,39.24-153.93,29.02-220.91-4.76-26.9-6.13-60.61-23.06-83.24-1.33-1.78-2.74-3.49-4.23-5.13-1.12-1.23-2.94.6-1.82,1.82,19.35,21.76,20.89,52.35,25.5,79.75,13.13,75.81-.8,157.25-25.39,227.71h-.02Zm-116.37-288.48c-3.73,23.74-13.12,31.87-37.26,30.77-1.55.09-1.56,2.53,0,2.42,6.73-.81,17.47-.23,23.43-3.82,9.13-2.48,19.3-33.02,13.82-29.37h.01Z"/>
  <path d="m132.34,360.69c3.11,1,6.69,1.18,9.93.78l-1.04-1.04-2.81,21.24c2.99,5.99,3.63-19.07,4.84-20.96-.12-2.57-4.19-.75-5.9-1.2-.99.19-6.59-.64-5.03,1.18h0Zm132.25-17.08c.4,19.77,7.47,32.55,29.12,30.16,1.41-.02,1.41-2.2,0-2.19-17.87,1.54-24.09-5.24-27.09-22.26-.5-1.02-.75-7.14-2.02-5.71h0ZM51.06,213.41c.44-3.83-.13-9.37-.32-13.26-.29-3.83-2.54-14.35,4.69-11.55,7.45,6.22,2.75,18.54,8.6,26,.42.6,1.4.03.98-.58-4.55-6.53-2.86-15.05-5.63-22.19-1.05-3.21-4.72-6.08-8.06-4.24-3.31,1.94-2.12,6.89-1.83,9.96,1.05,4.74-.32,12.62,1.56,15.86h0Zm-14.2-10.83c-.03-4.89-1.18-10.89-1.59-15.79-.48-3.24,3.01-5.78,5.34-2.86,2.99,3.46,3.68,8.28,4.32,12.67.35,1.2,1.02,12.92,2.67,9.8-1.69-6.42-1.25-13.33-3.93-19.5-1.07-4.02-7-8.17-9.08-2.55-.94,3.14.66,8.61.84,11.84.54,1.82.25,5.51,1.44,6.38h-.01Zm-7.44.61c-.16-3.17-3.61-4.68-5.21-7.12-3.12-4.8-7.35-9.29-9.43-14.6,1.82-9.51,15.8,5.5,17.55,9.57.43.66,1.49.04,1.06-.62-3.56-5.42-8.16-11.68-14.97-12.97-3.73-1.09-6.01,2.96-4.14,6.02,3.33,5.02,7.1,11.13,11.27,15.48,1.38,1.16,3.63,2.15,3.57,4.24,0,.19.29.19.3,0h0Zm-15.98-21.18c-5.1-10.05-19.77-3.54-10.35,4.16,18.7,11.82,30.09,30.73,42.05,48.64,4.96,6.23,11.76,11.75,19.89,12.81.78.11.94-.97.15-1.07-15.28-2.34-22.82-17.51-30.3-29.31-8.24-14.29-21.81-24.14-33.66-34.76-.86-5.91,7.25-5.69,9.96-1.99.56.25,2.09,3.02,2.26,1.49h0v.03Zm23.26-3.29c-10.94-14.8,2.34-14.22,7.84-1.69.63.89,4.87,8.98,4.89,5.33-3.11-3.83-4.9-8.58-8.21-12.26-10.32-10.61-13.02,3.92-4.51,8.6h0v.02Zm27.77,23.86c13.87,10.79,29.25,25.37,13.66,42.25-.47.62.58,1.23,1.05.61,15.57-16.41.21-34.84-14.71-42.86h0Z"/>
  <path d="m50.91,240.51c1.89,10.75.17,22.82,4.97,32.85-.21,2.96,15.27,17.83,14.53,13.22-21.78-10.87-13.98-30.16-19.51-46.07h0Zm69.93,11.33c-1.2,22.95-21.59,47.62-46.08,36.84-.75-.25-1.08.95-.33,1.19,13.66,5.34,29.32,1.23,37.43-11.19,4.98-6.9,11.32-19.83,8.97-26.84h.01Zm-35.81-17.32c3.55,4.8,2.93,15.46,4.02,21.14.15,1.34,2.27,1.34,2.11,0l-1.64-13.7c-.35-2.66-1.07-7.04-4.16-7.87-.24-.07-.47.21-.34.44h0Z"/>
  <path d="m90.76,253.31c6.95,4.27,12.74,11.04,13.61,19.44,5.06,4.6-1.12-11.45-2.96-12.43-.76-1.72-10.31-10.42-10.67-7h.02Zm-3.45-33.07c-.57,3.19-2.07,10.1.5,12.22,2.18-.84.17-4.64.59-6.55-.34-.98.53-7-1.09-5.67h0Zm235.29,61.89c-1.79,17.09,18.17,25.73,28.08,36.74,0,0,13.42,12.9,13.42,12.9,1,.98,2.53-.55,1.54-1.54-11.48-12.26-25.03-22.42-36.74-34.33-3.46-3.93-3.96-9.24-5.82-13.84-.12-.16-.38-.09-.47.06h-.01Zm21.32-41.47c2.26,5.41,5.37,11.07,7.03,16.7,5.83,4.81-5.5-19.16-7.05-16.7h.02Z"/>
  <path d="m352.45,261.31c24.48,11.51,23.99,51.14,54.17,56.77,1.25.33,1.78-1.6.53-1.93-19.78-3.97-26.93-24.38-36.67-39.52-4.08-6.88-8.66-15.94-17.74-16.37-.56,0-.76.8-.29,1.05Zm56.57,55c11.53.82,22.77-3.26,33.76-6.3,1.89-.47,3.77.73,3.75,2.73-.07,4.26-4.86,6.07-7.88,8.16-17.59,9.22-18.57,12.49,0,1.38,4.15-2.48,12.74-7.48,7.4-12.83-1.81-1.27-4.14-.51-6.05.09-9.73,3.65-21.69,5.12-30.97,6.74v.03Zm7.79,8.12c7.69,6.03,7.6,16.95,12.96,24.48,5.6,8.35,16.18,12.36,21.02,21.19.23,12.39-24.64-13.22-28.42-15.6-.66-.59-1.63.38-.97.97,4.16,3.04,31.81,30.49,30.41,14.06-4.34-7.93-13.47-11.96-19.21-18.75-7.46-7.01-6.24-22.37-15.77-26.34h-.02Z"/>
  <path d="m414.9,348.63c6.31,4.96,10.34,11.93,14.24,18.79,0,0,3.16,5.32,3.16,5.32,2.9,4.32-1.96,6.82-5.36,3.95-4.59-3.55-6.56-9.34-11-13.09-3.52-.57,3.01,4.5,3.31,5.68,2.39,4.72,12.14,15.94,15.07,6.08-3.47-8.46-11.46-23.28-19.41-26.73h-.01Z"/>
  <path d="m405,353.3c4.83,1.96,7.53,9.04,9.96,13.23,1.37,3.08,3.86,7.47,4.42,10.78-3.13,6.32-9.41-3.51-11.41-6.5-5.78-7.6-8.45-7.08-.92.64,1.96,2.53,4.46,6.76,7.31,8.36,4.2,1.89,7.77-1.4,5.25-5.59-2.35-4.86-8.79-22.04-14.61-20.94h0v.02Zm-39.63-20.05c-3.05,7.56,21.02,28.86,18.94,23.29-8.39-5.83-16.38-13.94-18.93-23.31h0v.02Zm19.74,24.72c4.88,7.3,7.46,17.7,15.52,22.07,8.26-1.21-.69-10.95-1.74-15.27-.64-.83-3.41-8.36-3.93-5.31,1.84,5.14,8.56,13.73,7.83,18.6-1.03,1.66-3.01.94-4.05-.31-6.1-5.06-8.32-15.26-13.64-19.76h0v-.02Z"/>
  <path d="m396.49,357.89c.79,1.47,10.01,14.87,10.26,11.52-3.81-3.06-7.23-9.13-10.26-11.52h0Zm-26.91-29.31c4.49-6.48,13.35-8.63,20.7-10.12,2.61-4.15-23.1,6.27-20.7,10.13h0Zm-290.42,252.93c-16.24,43.61-18.87,91.89-10.59,137.51.23,1.26,2.16.73,1.93-.53-2.86-15.62-4.39-31.48-4.49-47.37-.2-25.27,3.39-50.49,10.3-74.79,0-2.08,6.73-17.1,2.86-14.83h-.01Zm47.69,136.25c13.62-37.4,21.56-76.85,27.91-116.09.2-1.36-1.88-1.96-2.09-.58-2.34,14.83-4.86,29.61-7.97,44.3-4.12,23.78-13.97,50.34-17.85,72.36h0Zm87.61,12.94c-3.57-43.04-3.26-86.59,5.64-129.02.26-1.33-1.77-1.91-2.05-.56-3.45,16.78-5.69,33.82-6.91,50.91-1,25.5-2.87,55.25,3.32,78.67h0Zm52.62-2.89c1.66-2.61,4.36-7.99,5.34-10.9,13.61-36.97,23.54-76.65,22.49-116.26,0-1.6-2.46-1.6-2.48,0-.24,17.09-.82,34.23-3.68,51.12-3.79,25.48-15.26,53.17-21.67,76.04h0Zm-202.55-4.63c-1.1,1-1.69,12.34.62,9.36,0,0-.19-4.7-.19-4.7-.16-.62.76-5.73-.42-4.66h0Zm62.22-2.73c.92,2.8-.51,5.7-.76,8.49,1.85,4.04,2.75-11.02.77-8.49h0Z"/>
  <path d="m65.04,723.2c3.3,2.97,72.75,1.57,62.41-4.42-15.17,3.37-31.09,3.96-46.64,3.82-2.07.43-17.99-2.28-15.77.6Zm-.61,11.74c6.85,4.34,15.46,5.14,23.43,4.96,2.9.16,47.57-3.78,38.84-7.67-20.29,5.49-43.28,7.46-62.27,2.7h0Zm15.77,6.17c-.73,2.66-2.64,9.45-3.81,11.86-.65,1.29-1.38,2.53-2.19,3.72.44,3.42,4.88-5.95,5.23-6.99.59-1.26,3.03-9.38.75-8.58h.02Zm34.9-2.7c-1.44,4.45-2.06,9.61-1.91,14.27,1.88,2.34,1.59-5.84,1.92-6.94-.14-1.05,1.55-7.94-.01-7.33h0Z"/>
  <path d="m113.85,760.58c-.15-2.87.38-7,.48-9.92.08-.84-1.28-.86-1.33,0,0,.94-.47,11.42.85,9.92h0Zm-69.31,76.98c8.67-5.31,19.65-16.72,27.62-23.23,15.08-10.39,16.52-32.44,21.47-48.52.27-.99-1.27-1.41-1.54-.42-3.17,9.98-6.28,25.36-10.25,34.87-6.64,11.32-20.92,20.96-30.19,30.05-.77,1.07-9.1,6.81-7.12,7.26h.01Z"/>
  <path d="m92.17,765.6c3.82,1.76,8.33,1.56,12.46,1.48,1.78.5,15.79-3.9,9.71-5.1-4.86,3-10.71,3.22-16.26,2.94-1.47.1-5.76-.96-5.91.66v.02Z"/>
  <path d="m114.12,818.24c-.38-18.25.61-36.53,2.25-54.71.13-1.28-1.88-1.27-2,0-1.36,17.54-3.07,38.89-.26,54.71h.01Zm-83.35,8.53c3.67-2.16,10.42-7.14,13.51-10.05,15.62-15.09,35.97-30.26,36.47-53.98.06-1.25-1.87-1.24-1.94,0-.94,29.05-31.82,45.82-48.05,64.03h.01Z"/>
  <path d="m71.24,760.94c.84,1.82,12.7,4.01,7.89.38-2.36.27-6.28-2.27-7.89-.38h0Zm7.45-.89c3.39-6.44,13.55-4.92,15.35,1.98,4.82,2.67-2.27-8.66-6.94-7.64-3.74-.29-7.39,1.96-8.93,5.36-.17.34.33.64.51.3h.01Zm-7.4,2.57c-4.33,9.55-2.69,21.63-10.32,29.55-12.68,13.45-62.87,41.03-36.98,61.51,9.62,8.98,36.67,3.24,28.73.86-8.2,3.7-18.88,2.85-26.55-1.82-26.55-18.27,25.15-46.2,35.73-59.63,3.48-3.79,4.79-8.83,6.18-13.65.6-2.68,5.78-16.95,3.21-16.83h0Z"/>
  <path d="m111.08,814.74c-13.95,2.82-26.76,11.67-38.04,19.91-7.2,6.26-12.88,14.21-20.9,19.53-1.09.73-.07,2.5,1.03,1.77,11.24-7.52,18.17-20.1,30.2-26.6,0,0,12.86-7.04,12.86-7.04,2.27-1.9,15.83-5.78,14.84-7.57h0Zm1.33,7.51c-15.73,4.19-30.05,12.29-41.27,24.14-13.37,14.26-40.36,27.07-51.65,3.75-.63-1.24-2.49-.15-1.86,1.09,6.64,15.84,26.85,16.84,39.92,8.61,10.88-6.65,19.21-16.69,29.18-24.39,7.98-5.44,17.9-7.29,25.96-12.51.36-.25.14-.78-.29-.7h.01Zm-56.23,33.96c7.92-3.73,12.38-11.41,19.03-16.77,10.47-8.19,22.37-14.62,35.01-18.76,1.13-.37.65-2.16-.49-1.79-15.98,5.24-31.64,13.88-42.39,27.03-2.25,2.83-5.38,5.2-8.32,7.28-.52.62-4.29,2.82-2.82,3.02h-.02Zm56.21-78.58c-10.21.34-12.27,14.89-2.58,18.24,1.05.57,2-1.05.94-1.61-8.59-3.1-7.31-14.88,1.63-16.04.38-.02.38-.6,0-.59h0Zm-85.89,50.22c10.79,4.06,18.23,15.42,22.96,25.54,6.12,2.22-21.02-33.8-22.97-25.54h0Zm24.43,8.7c-2.87-1.43-2.88,4.97.3,3.05,1.52-.84,1.2-3.49-.69-3.46-.76.02-.61,1.18.13,1.04.03-.02.26.08.31.14.04.04.06.08.1.12-.11-.18.17.32.07.1.02.05.09.3.06.18v.23c.03.11-.18.55-.22.56-.07.08-.13.15-.22.21-.18.13-.51.25-.8.13.17.09-.26-.15-.11-.06-.04-.03-.09-.07-.11-.11.07.12-.1-.19-.04-.07-.13-.32.06-.79.17-1.11.01-.06.16-.26.13-.23,0-.01.25-.24.16-.16.21-.25.92-.12.74-.59h0l.02.03Zm10.62-8.62s.14.11.12.09c.01.03.15.18.1.11.07.07.23.36.22.31.11.26.09.33.09.55,0,.04-.03.12,0-.02-.06.31-.12.33-.24.43-.05.04-.26.12-.09.05-.06.03-.18.06-.25.06h.08c-.07,0-.44-.02-.22,0-.27-.03-.19-.03-.41-.16-.06-.04.05.04.05.04-.05-.05-.2-.21-.08-.07-.05-.05-.15-.29-.07-.1-.04-.07-.06-.3-.04-.11v-.24c-.02.21.03-.13.07-.18,0,0-.06.12-.03.07.04-.08.09-.16.15-.23l-.04.05s.14-.17.19-.18l-.05.04c.05-.06.3-.15.12-.08,0,0,.04-.01.04-.02.06-.02.12-.03.18-.04l-.14.02c.76.13.9-1.06.12-1.08-1.48,0-2.28,2.14-.99,2.99,1.5,1.13,3.51-.95,2.05-2.29-.22-.33-1.23-.46-.93,0Zm10.03-7.82c-.91-2.73-3.99,3.17-.04,2.45,3.86-2.24-2.08-5.1-.28-2.48-.18-.08.15.09.19.12-.17-.15.22.23.08.09.08.05.12.2.16.28-.07-.17.03.15.03.18,0-.23,0,.16,0,.18.01-.21-.03.2-.08.24.13-.22-.22.34-.08.14-.07.02-.11.16-.18.18.18-.08-.34.16-.11.08-.05.05-.35.06-.17.06-.07.01-.17-.02-.23,0,.17.02-.14-.04-.18-.06.16.08-.06-.06-.09-.07.1.05.02.03,0-.02-.01,0-.08-.07-.02-.02.07.06-.04-.06-.04-.09.03.09-.02-.05-.03-.11v.02-.13c.01-.2.17-.47.35-.74-.1.13.17-.23.07-.09.03-.03.05-.06.08-.08-.08.06.07-.05.09-.05-.13.04.11-.02-.02,0h.08c.06.03.33.05.39-.07h.04Zm9.1-8.04c-1.48-.61-2.31,2.32-.91,2.9,1.33.69,2.8-.7,2.25-2.06-.98-2.63-3.67.2-1.39-.17l-.05.04.05-.03-.07.03s.04-.01.05-.02c.09-.03-.12,0-.02,0,.05,0,.11,0-.01,0,.04.02.1.03.15.04.1.03-.1-.06,0,0l.1.06c.09.05-.08-.08-.01,0,.05.05.1.11.15.16-.16-.21.21.36.07.14.1.42.12.33.01.71.03-.13.03-.07,0-.02-.01.04-.16.24-.04.08-.04.05-.1.1-.15.14.24-.16-.32.14-.05.02-.27.07-.1.05-.39.06-.05,0-.11-.03.04,0-.26-.06-.15-.03-.41-.17.16.1-.02,0-.05-.05-.06-.06.06.1,0,.02-.02-.03-.05-.08-.07-.12-.05-.1.02.09,0-.02,0-.02-.07-.26-.03-.12-.02-.07,0-.39,0-.31.03-.26.15-.55.24-.65.02-.02.12-.16.07-.09.04-.05.08-.09.12-.13.09-.06.59-.19.33-.41h0v-.03Zm16.62-39.92s.01-.09.03-.12l-.04.08c-.28-1.9-3.87,1.85-.85,2.43,1.71.43,2.01-3.08.33-2.45-.34.36,0,.71.13.91-.1-.28.07.36.02.05v.2c0,.1.02-.11,0-.04,0,.03,0,.05-.02.08,0,.03-.02.08-.04.11.07-.15,0,0-.03.04-.05.08.07-.08.02-.03l-.09.09s.11-.07.03-.03c-.04.02-.08.06-.13.07.24-.1-.2.05-.06.02.12-.01-.13,0-.15,0,.19,0,.05.02,0-.01-.05,0-.19-.11-.03,0-.05-.03-.08-.03-.12-.07.18.1-.03.01-.03-.05.11.17-.1-.23.02,0-.04-.04-.07-.32-.06-.14,0-.02.02-.39,0-.16,0-.06.09-.36.05-.23.03-.08.11-.17.15-.25-.06.1.12-.13.14-.17-.05.07.16-.19.22-.22-.02.02.27-.17.35-.19l-.18-.02s.09.08.16.09l-.08-.04.02.02-.04-.07c-.03.21.22.28.29.1h-.01Zm-3.64,11.94c-1.62-.65-1.82,2.18-.18,2.14,1.59.21,1.71-2.33.14-2.3-.72.02-.59,1.11.11,1l-.13-.02s.09.03.13.04l-.12-.05s.08.05.12.07l-.1-.08s.09.08.12.12l-.08-.1.11.18-.05-.12c.02.06.04.12.05.19l-.02-.13v.18l.02-.13s-.02.09-.04.14l.05-.12s-.04.09-.07.13l.08-.1s-.07.08-.12.12l.1-.08s-.1.07-.16.09l.12-.05c-.07.03-.15.05-.23.06l.13-.02h-.24l.13.02c-.08-.01-.16-.03-.23-.06l.12.05c-.06-.03-.12-.06-.17-.1l.1.07s-.09-.08-.13-.13l.07.1c-.06-.08-.11-.16-.15-.25l.04.11c-.03-.07-.04-.13-.06-.2l.02.11v-.19.11s.07-.27,0-.1c.07-.14.04-.05.14-.17l-.04.03s.14-.07.18-.1c-.07.03,0,0,.04-.01h.03-.02c.26.05.41-.28.19-.43h0v-.02Zm-3.51,15.03c-1.16-.6-2.36,1.06-1.68,2.09,1.68,2.3,4.11-.22,2.2-1.93-.16-.63-1.17-.34-.97.27.13.36.37.68.58,1,.05.12.03.05.09.25.02.08-.02-.03,0-.03,0,.04,0,.22,0,.07-.01.07-.06.17,0,.04-.01.01-.05.08,0,.01l-.12.12c.22-.14-.31.14-.02,0-.06.02-.31.09-.12.06-.06,0-.37,0-.16,0-.29-.05-.23-.06-.47-.2l.04.03s-.1-.12-.15-.16l.03.04c-.04-.05-.06-.12-.1-.17.08.16-.02-.03-.02-.09-.03-.09,0,.12,0,.01,0-.03.02-.32,0-.11.07-.31.08-.32.22-.56-.07.12.03-.04.06-.07.12-.14.17-.17.32-.26.12-.04.55-.25.26-.47h0l.02.05Zm-15.55-32.03c-4.06.16.05,5.65,1.15,1.62,0-2.19-3.54-2.42-1.24-.48.14.24.17.23.22.45-.01-.16.02.12,0,.14,0,0,.03-.13,0-.03.01.07-.09.18,0,.05-.02.01-.03.06-.04.07,0,.01-.03.04-.03.05.16-.2-.2.23-.04.04-.05.02-.08.05-.12.08-.04.02-.1.05.01,0-.05.03-.35.07-.14.06h-.2c.23.03-.13-.03-.17-.06.17.08-.24-.15-.08-.05-.04-.02-.09-.09-.12-.11h0s-.03-.04.01,0c-.06-.06-.1-.16-.13-.23.03.16-.06-.29-.05-.15,0-.03.02-.3,0-.21,0-.09.04-.17.07-.25.04-.08.17-.29.3-.37.12-.22,1.02-.31.62-.62h-.01Z"/>
  <path d="m71.54,777.68s-.1-.02-.14-.04l.07.04c-1.2-.6-2.18,1.13-1.49,2.1.65,1.19,2.81.9,2.89-.52-.17-1.98-3.6-2.84-1.24-.36-.08-.11,0,0,0,.01.03.05.23.32.25.37l-.02-.06c.04.06,0,.14.02.02,0,.05,0,.11,0,0l-.02.06c-.03.1.06-.09,0,0l-.03.05c.1-.14-.03.04-.07.06,0,0-.12.11-.35.15-.1.02.13-.01.02,0-.07,0-.21,0-.28,0-.1,0,.1.02.04,0-.25-.06-.16-.05-.37-.15l.05.04c-.16-.16-.12-.11-.23-.32.04.13-.04-.15-.04-.21v.03s0-.34,0-.19c.05-.22.02-.23.15-.41.12-.19.44-.31.67-.41.08.14.38-.16.11-.26h.01Zm-6.02,12.27c-1.1-.34-1.97,1.28-1.35,2.15.76,1.11,2.98.09,2.68-1.21-.14-.81-1.76-1.68-2.23-.81-.16.65.6.63,1,.79-.15-.09.12.11.16.12-.13-.07.06.03.07.09-.1-.14.03.03.04.08,0,0-.04-.12-.02-.04.02.05.02.17.02.04,0,.18.03,0,0,.03,0,.02-.01.05-.02.07-.02.09.05-.09,0-.01,0,.02-.02.03-.03.05-.05.09.08-.08,0,0-.02.03-.18.17-.07.08-.13.1-.3.2-.45.27.13-.04-.22.07-.27.09-.06.01.12,0,.02,0h-.13c-.06,0,.11.03.02,0-.02,0-.04-.01-.05-.02-.09-.03.06.04.01,0-.11-.08.03.04-.07-.05-.06-.06,0,.01,0,.01-.01,0-.1-.16-.05-.07-.09-.2-.05-.17-.06-.38,0,0,.07-.3.2-.45,0-.01.02-.03.03-.04-.07.08.13-.14.16-.15-.05.04.02,0,.02-.01.19-.1.69-.32.33-.54h0l.04-.09Zm-7.03,7.52c-1.11-.24-1.91,1.66-1.03,2.45.98,1.06,2.81-.01,2.41-1.39-.59-2.07-3.5-.44-1.4,0,.06.03.14.02.2.05-.19-.07.07.03.09.07.06.04-.09-.09-.02-.02.02.02.06.06.08.08.07.07-.05-.08-.02-.02.02.04.05.11.08.14-.03-.09-.04-.05,0,.02,0,.02.02.11,0,.02-.01-.12,0,.11,0,.14.01-.19-.01.09-.04.13l.02-.04c0,.06-.16.21-.05.1l-.12.12.05-.04s-.29.13-.09.07c-.05.03-.27.05-.1.04-.05-.01-.12,0-.17,0-.05.01-.12-.03-.31-.14.14.09-.07-.04-.08-.08.07.11-.02-.06-.05-.1-.03-.05.03.1,0,0-.01-.04-.06-.25-.04-.11,0-.04,0-.32,0-.18,0-.05.1-.34.06-.25.04-.36.78-.67.51-1.06h.02Zm-7.2,6.16c-4.43.85,1.44,6.05,1.61,1.26-.15-.8-1.1-1.62-1.92-1.37-.53.36-.12.98.42,1l-.05-.02c.11.03.18.12.28.16-.14-.09.15.11.15.16l-.04-.05c.14.2.1.12.15.32.02.11-.01-.01,0-.02,0,.04,0,.37,0,.2-.05.25-.08.29-.18.41-.02.04-.17.13-.05.05-.03.02-.24.14-.12.08,0,0-.11.03-.12.04-.1.03.09,0,.02,0h-.09c-.06,0-.18,0-.04,0-.04-.01-.35-.1-.18-.05-.05-.03-.19-.1-.23-.14.12.1-.13-.09-.14-.14.1.12-.08-.09-.06-.15-.03-.04-.02,0-.02.03-.03-.28-.05-.37.07-.71-.04.1.15-.27.2-.32,0-.01.07-.09.02-.03.15-.21.64-.45.31-.72h.01Zm-8.06,7.41c-.09-.01-.18,0-.26-.01l.17.1h0c-.55-.46-1.28.45-1.31,1.01-.12,2.31,3.54,1.82,3.01-.36-.61-1.96-3.59-.29-1.31.06.07,0,.2.04.26.07-.08,0-.08-.04-.03,0,.06.01.11.11.03.01l.08.08c-.04-.06-.05-.07-.03-.04.04.03.04.11.03.02l.04.14v-.06s0,.23,0,.11c.03.06-.09.3-.03.17-.12.18-.05.15-.23.3-.07.06,0-.02.02,0-.06.04-.15.09-.21.13.13-.06-.06.04-.12.04-.06.02.1,0,.04,0-.04,0-.16,0-.2,0,.2.04-.26-.08-.07-.03-.03-.03-.27-.15-.17-.1-.06-.04-.11-.09-.15-.15,0-.01-.03-.04-.04-.04.08.09-.05-.05-.06-.09-.05-.11-.06-.14-.06-.32-.02.02.1-.32.16-.35.11-.15.39-.26.37-.47-.03.06-.07.11-.1.17.2-.04.5-.23.17-.36h0v-.03Zm-9.52,8.45c-.12-.05-.48,0-.47.02-3.16,1.85,1.55,4.73,2.15,1.11-.08-2.54-3.29-.71-1.13-.37-.02.04-.12,0-.03.01.07,0-.15-.03.02.02.06,0-.09-.05-.03-.02.05.02.13.11.04.02l.06.06h0s-.01,0-.02-.02c.04.03.12.21.06.08.01.04.02.08.04.12-.03-.23.02.25,0,.04-.02.06-.02.16-.06.21.12-.21-.25.38-.12.19-.1.12-.22.25-.34.34,0,0-.1.07-.04.03.05-.04,0,0-.02.02-.04.03-.16.1-.21.12,0-.01.12-.03,0-.01-.05.03-.15.01-.02.02-.05.01-.19-.02-.05,0-.05,0-.23-.07-.09-.02-.05-.03-.12-.05-.16-.1.17.15-.22-.23-.08-.08-.11-.17-.1-.14-.15-.31-.02-.06,0,.08,0,.02,0-.02,0-.3,0-.13,0-.02,0-.05,0-.06,0-.03.08-.26.04-.15.03-.07.24-.38.21-.33.1-.21.83-.69.41-.85l-.04.02Zm14.95,13.88c-.51-3.73-1.7-11.21-2.37-14.91-2.41-2.65.27,7.39.03,7.61.21-.14,1.65,9.53,2.34,7.3h0Z"/>
  <path d="m45.67,817.62c-.41-1.72-.44-3.56-.86-5.28-.31-1.09-1.98-.41-1.42.6.3.84,1.14,2.72,1.34,3.56.04.45.41,2.54.94,1.12h0Zm13.47,6.49c.7-1.87-6.02-26.09-7.61-18.67,3.02,5.97,5,12.42,7.02,18.76.1.3.61.27.58-.08h.01Zm9.52-8.84c-2.78-4.97-6.1-12.57-8.59-17.8-.52-1.26-2.3-.54-1.74.73,2.43,5.43,6.19,12.71,9.83,17.36.21.32.71.03.51-.3h0Zm8.6-8.22c-2.78-4.61-7.38-11.32-10.28-15.96-.65-1.08-2.39-.02-1.67.98,1.41,1.52,11.05,16.8,11.94,14.97h0Zm-40.05,15.68c8.02,1.05,16.62,3.08,23.9,6.71,4.46-.48-26.59-11.35-23.9-6.71Z"/>
  <path d="m47.47,814.14c8.04.65,16.17,4.1,23.66,6.96,2.91-.44-5.33-2.91-6.03-3.51-4.03-1.27-14.97-7.14-17.62-3.46h0Zm6.92-7.66c8.75.35,18.25,2.29,25.67,7.05,6.23-.48-9.5-6.94-11.15-6.75-2.86-.84-13.78-2.55-14.53-.3h.01Zm7.77-7.27c8.84.92,19.05.05,27.95.73,7.72-3.89-30.79-2.29-27.96-.74h0Zm-28.5,21.73c1.51,1.57,15.62,19.24,16.06,15.73,0,0-7.53-7.82-7.53-7.82-.98-.71-8.51-9.88-8.52-7.91h0Zm36.75-30.74c7.4-1.31,15.05-3.74,22.62-4.08,7.21-5.07-25.16,2.3-22.63,4.07h0Zm6.03-10.74c6.03-2.3,12.52-4.43,18.95-5.2,4.96-4.51-21.82,3.62-18.95,5.2Z"/>
  <path d="m84.63,794.25c-3.24-4.22-8.19-10.88-11.33-15.25-.61-.82-2,0-1.38.8l5.91,7.57c.46.4,7.1,9.17,6.79,6.87h.01Zm3.65-13.15c-3.02-4.22-8.95-9.13-12.91-12.5-.88-.71-2.15.53-1.26,1.26l6.85,5.84c.56.3,7.79,7.46,7.32,5.4h0Z"/>
  <path d="m74.53,769.63c7.01,1.23,14.41,2.34,21.32,4.11,8.16-2.62-22.87-6.38-21.32-4.12h0Z"/>
  <path d="m84.37,769.54c-8.6,1.24-20.09,11.28-16.92,20.64,7.72,7.34,15.19-6.44,16.53-13.09.57-2.06,1.71-4.76.73-6.82-.55-1.16-2.28-.15-1.73,1.01.36.76-.05,1.78-.23,2.54-7.46,30.84-28.34,12.55,1.61-4.28h0Z"/>
  <path d="m83.69,770.89c-7.03,27.15,14.91,25.62,7.76,9.26-.16-1.8-8.71-13.52-7.95-7.37,3.69,3.43,11.76,12.84,5.71,17.05-1.59.68-3.1-.61-3.81-1.93-2.26-5.29-1.24-11.35-1.12-16.94.03-.33-.53-.41-.58-.08h0Zm-1.37-1.51c-11.03.55-27.25,19.95-20.28,17.56,4.16-8.06,11.73-14.38,20.43-16.99.37-.11.21-.65-.16-.57h.01Z"/>
  <path d="m84.56,770.89c9.51,4.26,13.2,15.3,12.85,25.06,5.31,5.01-1.04-21.59-5.83-22.04-.84-.64-7.43-4.65-7.02-3.02Zm125.49-34.36c.15.12-.46,6.96.76,4.89-.16-.04.24-6.66-.76-4.89h0Zm57.92-2.76c-.84,2.74-.8,7.14-1,10.01,2.14,3.17,1.89-3.74,1.98-4.96-.15-.82.33-5.85-.96-5.05h-.02Z"/>
  <path d="m210.07,736.52c-.09.79-1.76,14.29,1.03,9.97-.15-1.03,1.52-12.14-1.03-9.95h0v-.02Zm.12-1.87c17.01,5.92,41.79,4.87,58.48-2.04.92-.43.26-2.05-.7-1.66-17.75,7.9-40.73,4.88-57.78,3.68v.02Zm-.45,14.08c15.93,6.19,42.49,5.82,57.67-2.42,1-.58.08-2.16-.91-1.55-16.77,10.14-39.82,6.16-56.75,3.96h0Z"/>
  <path d="m218.62,752c-.87,4.83-2.2,11.45-4.42,15.84,1.09,4.62,6.69-17.02,4.42-15.84h0Zm34.08.23c-.22,1.99.92,17.85,2.89,15.95-1.32-5.18-2.08-10.61-2.3-15.95-.02-.38-.59-.38-.59,0h0Zm-43.4,66.72c4.35-15.15,4.97-31.27,4.62-46.93-.03-1.26-2.05-1.25-1.95,0,1.98,15.27-2.3,33.32-2.66,46.94h-.01Zm4.63-49.07c3.62,4.72,9,9.11,14.95,10.31,1.95.33,4.03.59,5.45,2.02.82.82,2.11-.56,1.24-1.24-3.11-2.41-7.28-1.58-10.64-3.43-3.78-2.26-7.37-4.94-10.53-8.02-.23-.23-.66.07-.47.36h0Z"/>
  <path d="m259.58,853.31c-11.58-22.35-27.95-44.95-23.89-71.48.06-1.29-1.94-1.28-2,0-2.51,20.38,4.83,39.45,16.02,56.17.08-.55,9.89,18,9.88,15.31h-.01Zm15.05-3.71c-7.21-22.63-28.71-41.77-24.4-67.2.23-1.26-1.69-1.81-1.94-.54-4.62,25.04,16.51,48.33,26.33,67.72h0v.02Z"/>
  <path d="m256.72,774.43c-2.18,2.38-5.89,5.1-8.51,7.03-2.76,6.76,11.29-7.37,8.5-7.03h.01Zm-22.37,5.14c2.71-6.03,12.93-9.85,14.68-1.16.08.53.75.82,1.22.69,2.5-3.39-3.6-8.34-7.21-7.86-4.55.18-7.98,3.86-9.2,8.03-.15.34.32.64.51.3h0Zm-19.06,7.77c8.83-1.38,8.81,14.27-.06,13.23-1.28-.12-1.28,1.89,0,2,8.09.71,11.7-10.38,5.93-15.41-1.82-1.6-4.28-1.78-6.16-.32-.25.2.03.55.29.5Zm42.4-11.81c.94,12.47-3.87,26.04,1.96,37.65,8.47,14.02,17.05,28.35,20.48,44.59,2.92,17.23-22.81,21.39-33.52,12.96-4.78-4.21-7.43-10.19-10.78-15.49-6.37-11.97-18.89-28.18-22.83-41.07-.3-1.16-2.09-.67-1.79.49,5.39,15.68,18.62,32.94,26.47,47.55,7.13,20.59,47.35,20.07,44.27-5.18-2.15-10.12-6.56-19.71-11.32-28.82-5.55-9.29-13.41-18.4-12.35-29.92.11-7.54,1.94-15.38.09-22.83-.09-.36-.68-.29-.66.09h0l-.02-.02Zm18.91,97.22c-7.76,6.96-18.69,9.19-28.77,6.99-6.16,3.63,14.94,2.85,16.64,1.48,4.87-1.34,9.61-3.85,12.55-8.04.25-.28-.15-.7-.42-.42h0Z"/>
  <path d="m248.25,881.32c-18.63-15.08-26.85-37.94-39.36-57.64-.69-1.03-2.37-.04-1.66.97,13.33,17.41,20.66,48.4,41.01,56.68h.01Zm-38.2-61.07c5.29,12.54,12.46,24.49,19.53,36.07,1.22,1.2,7.76,14.68,8.25,11-7.4-10.87-14.93-23.56-20.84-35.32-.91-1.16-6.43-13.63-6.95-11.75h0Zm21.72-35.41l-.06-.06.05.08c-.89-1.17-2.45.85-1.32,1.72,1.48,1.45,3.46-1.03,1.78-2.18-.59-.35-1.06.59-.46.89l-.1-.08c.06.04.11.09.15.15l-.08-.1c.05.06.08.13.12.2l-.05-.12c.03.08.05.16.07.25l-.02-.13c0,.1,0,.19,0,.29l.02-.13c0,.08-.03.17-.07.24l.05-.12c-.03.07-.07.14-.12.2l.08-.1s-.09.1-.14.14l.1-.08c-.05.04-.11.07-.17.1l.12-.05c-.07.03-.14.05-.22.06l.13-.02c-.09.01-.18.01-.27,0l.13.02c-.1-.01-.19-.04-.28-.08l.12.05c-.08-.03-.16-.07-.22-.13l.1.08c-.06-.05-.12-.1-.16-.16l.08.1c-.04-.06-.08-.12-.11-.19l.05.12c-.03-.07-.05-.14-.06-.22l.02.13c0-.06,0-.12-.03-.18l.02.13c0-.08,0-.16,0-.23l-.02.13s.02-.11.05-.16l-.05.11c.09-.19.05-.12.16-.24.03-.02.08-.04-.02.02.04-.03.11-.08.15-.1-.12.06.02,0,.05-.02.07-.01.21,0,.33-.14l-.12.05c.15.04.3-.11.18-.25h.04Zm-1.1,14.06c-.1-.11-.2-.2-.35-.23-2.37-.25-1.05,3.87,1.31,2.35,2.1-1.76-2.6-3.73-.9-1.51.09.09.21.16.28.26,0-.01-.01-.02-.02-.03.06.04.14.32.09.14.02.03.06.32.04.09,0,.02,0,.28,0,.13,0-.1-.02.04-.02.07.09-.21-.08.1.04-.06-.06.06-.06.11-.02.05-.03.04-.26.12-.09.06-.05.04-.45.09-.25.08-.28-.02-.19.03-.44-.06-.08-.03.03,0,.04.02-.04-.03-.14-.06-.18-.1.13.12-.08-.07-.11-.11-.07-.07.05.08.02.02-.04-.04-.14-.27-.07-.12-.03-.04-.06-.3-.05-.12v-.16c.01.12-.02.02,0-.03,0-.02.04-.1,0-.03-.08.11.15-.22.03-.06.15-.15,0-.03.19-.18-.13.1.27-.13.28-.21l-.08.08s.47-.06.28-.33h-.03Zm1.45,12.68c.79-1.19-1.69-.79-1.74.21-.64,2.11,2.71,2.23,3.08.44.39-2.38-3.2-1.29-1.07-.52-.17.02-.01,0-.06.01-.06,0,.03,0,.04,0,.03.01,0,.03-.05-.02.03.02.06.04.09.06-.13-.08,0-.02.02.03.06.06-.02-.02-.03-.03.02.04.05.07.07.11.03.06-.04-.12,0-.03.02.04.06.24.03.06,0,.06,0,.19,0,.04,0,.02-.06.24-.03.14,0-.07,0,0-.02.02,0,.04-.06.06-.06.1.11-.16-.1.13-.14.13.1-.07-.19.1-.25.14h.03c-.05.02-.4.08-.24.06-.07-.01-.21,0-.29,0,.18,0-.06,0-.09-.03-.06-.02.09.05.03.01-.04-.01-.16-.1-.07-.04-.04-.02-.14-.2-.06-.06,0-.03-.05-.07-.06-.1.02,0,.04.11,0,.02-.04-.15-.02-.05-.02-.25,0,.17,0-.07.04-.1.02-.06-.04.07,0,.02.03-.05.04-.1.07-.13.06-.15.4-.38.57-.39,0,0-.03-.03-.03-.02.04.06.13.19.23.15l.02-.03Zm5.35,12.1c.91.06.06-.87-.63-.28-1.38.54-1.02,2.71.55,2.51,1.48-.04,2.05-2.25.56-2.78-.63-.17-.9.77-.27.97-.16-.06-.03-.01,0,.01.02,0,.04.02.05.03-.18-.16.14.16,0,0,.1.18.05.05.11.27-.05-.24.02.07,0,.12,0-.2,0,.02-.02.06l.02-.04s-.17.24-.04.09c0,.04-.27.22-.11.11-.07.04-.15.1-.22.12.27-.08-.4.08-.1.03h-.26c.15,0,.02,0-.02-.01-.02,0-.18-.05-.08-.02.08.02,0,0-.02-.01s-.04-.03-.06-.04c-.05-.03.08.08.02.01-.03-.02-.05-.06-.08-.08.08.09.04.05.02.03,0-.02-.02-.03-.03-.05-.05-.08.02.08,0,.02,0-.04-.03-.09-.04-.13,0-.06,0,.11,0,.02,0-.04,0-.13,0-.17-.02.12.01-.06.04-.09,0-.01,0-.03,0-.04-.07.16.15-.27.08-.13.17-.22.44-.39.64-.53,0,0,0,0,.02-.01-.08.02-.12-.05-.13-.19,0,0,.08-.05.08-.04-.13-.01-.19.17-.1.25h0Zm7.23,11.92c-3.21-.13-1.1,4.8.84,2.23.81-1.48-1.5-3.33-1-1.25.05.17.13.33.13.51-.04-.23.02.15,0,.18,0,.1.02-.11,0-.02l-.03.13c-.03.1.06-.1,0-.02-.01.04-.06.08-.08.12.15-.14-.2.15.03-.02-.07.05-.15.08-.03.02-.05.03-.11.01-.16.04.19-.01-.02,0-.09-.01-.05,0-.27-.11-.06-.01-.05,0-.34-.24-.15-.08-.04-.03-.09-.08-.13-.12l.03.03c-.09-.12-.1-.13-.03-.03,0-.01-.02-.02-.02-.03-.15-.28.02.11-.04-.09-.03-.04,0-.19-.02-.03.01-.3,0-.27.21-.6-.11.13.33-.33.22-.2.07-.07.19-.11.28-.16.18.03.46-.46.07-.58h.03Zm7.67,14.59s-.09-.01-.12-.03l.06.06c-1.74-.92-2.23,2.47-.27,2.46,1.1.09,1.84-1.29,1.27-2.19-.39-.61-1.24.05-.81.6-.1-.2.02.03.02.1-.05-.26.02.06,0,.11,0,.09.02-.12,0-.06,0,.02,0,.04,0,.05-.06.2-.01.07-.13.28.12-.19-.02.05-.08.07.12-.11.04-.03,0,0-.04.03-.17.06,0,.01-.19.05-.05.03-.28.04,0,0,.14.03.06,0-.23-.05-.09-.02-.33-.15.13.08.02.01,0-.02-.07-.07-.03-.05-.14-.21.05.14,0-.03-.02-.08-.02-.08,0,.1,0,.02-.01-.03.03-.26,0-.08-.03-.05.08-.27.02-.13.06-.15.26-.32.29-.35.03-.03.07-.05.1-.07.03,0,.05-.03.08-.05,0,0,.24-.06.26-.18l-.06.06h.02s-.05,0-.08.01c.21.06.42-.16.18-.29h0l-.02.02Zm22.52-8.39c-.7-.83-2.03.5-1.45,1.34,1.05,1.78,3.37-.54,1.68-1.66-.6-.35-1.06.62-.44.9l-.1-.08.11.11-.08-.1s.07.11.1.17l-.05-.12c.03.07.04.13.05.2l-.02-.13v.23l.02-.13c0,.07-.03.14-.05.2l.05-.12c-.03.06-.06.12-.1.17l.08-.1-.11.11.1-.08-.13.08.12-.05s-.11.04-.16.05l.13-.02h-.2l.13.02c-.07-.01-.14-.03-.21-.06l.12.05c-.06-.03-.12-.06-.19-.08l.12.05c-.07-.03-.13-.07-.19-.11l.1.08s-.09-.08-.13-.13l.07.09s-.07-.1-.09-.16l.05.11-.04-.15.02.12v-.16.11c0-.06.01-.12.03-.17l-.04.1c.1-.19.07-.16.2-.3.03-.02.02-.01-.03.02.01-.02.24-.11.1-.06.16-.07.54-.09.44-.34h0Zm-6.42-13.17c-4.2-.05-.34,5.72,1.39,1.93.59-2.02-2.46-2.67-1.08-.89l-.04-.05c.04.05.06.11.1.16,0,.01.01.03.02.04.02.05.02.04-.02-.04.03.09.06.19.08.29,0-.17-.01.14,0,.2v-.07c.02.09-.04.18-.05.26l.03-.06s-.02.04-.03.05c0,.04-.06.08-.08.12.14-.16-.24.24-.08.08-.03.04-.35.18-.16.1-.03.02-.44.09-.22.06-.09,0-.22,0-.3,0h.07c-.07.02-.31-.1-.17-.02-.05-.03-.16-.09-.21-.12.16.15-.23-.24-.08-.07-.03-.04-.18-.33-.11-.18-.03-.02-.1-.38-.07-.23-.01-.01,0-.33,0-.22.06-.3.11-.39.35-.6.05-.15,1.07-.44.65-.7h0v-.04Zm-8.63-14.57c-.59-.3-1.27.38-1.42.96-.75,2.62,3.82,2.54,3.14-.02-.59-2.38-3.85-.89-1.39-.28l-.06-.03s.32.19.15.08c.06.03.3.3.18.16.06.09.11.18.15.28-.08-.25.08.38.04.12.01.33-.06.31-.1.44-.02.02-.22.2-.07.07-.04.03-.11.07-.16.09-.04.02-.14.05.01,0-.39.1-.37.12-.7.04-.07-.02-.06-.02-.22-.12-.04-.02.05.04.05.04-.04-.04-.1-.08-.13-.13-.05-.05.05.07.02.03s-.05-.08-.08-.13c-.05-.09.02.08,0,0-.03-.05-.07-.3-.05-.14,0-.04,0-.38,0-.21.05-.27.06-.28.22-.53,0,0,.02-.05.01-.02-.05.04.27-.3.2-.23.11-.07.19-.14.23-.27l-.06.1c.13-.09.22-.28.02-.35h0l.02.05Zm-3.24-9.2s.02.03.02.05c-.06-.08.1.17.15.19-.07-.1.11.2.12.23.03.05-.03-.09,0,0,.02.06.04.12.04.18.01.06-.01-.11,0-.01,0,.05,0,.17,0,.21,0,.07.02-.11,0-.02,0,.05-.1.26-.02.09-.01.03-.05.09-.06.12-.05.08.06-.07.01-.02-.03.03-.06.06-.09.08-.05.05.1-.07.02-.02-.04.03-.22.09-.03.03-.04.01-.15.04-.19.05l.12-.02c-.08.01-.17.01-.25,0l.12.02c-.09-.01-.18-.04-.26-.07l.11.05c-.09-.04-.17-.09-.25-.15l.1.08s-.1-.09-.14-.14l.08.1s-.08-.11-.1-.17l.05.12c-.02-.06-.04-.12-.05-.18l.02.13v-.21l-.02.13c.01-.08.04-.16.07-.24l-.05.12c.03-.08.08-.15.13-.22l-.08.1c.06-.07.12-.14.19-.19l-.1.08c.06-.05.13-.08.2-.12l-.12.05c.06-.03.13-.05.2-.06l-.13.02c2.31-.7-1.56-2.05-1.24.72,1.06,2.61,4.19-.77,1.55-1.35l.03-.02c-.13.03-.22.15-.15.28h0v-.02Z"/>
  <path d="m255.68,794.18h-.03l.11.03c-2.32-.03-2.6,4.13.12,3.48,1.4-.39,1.33-2.54,0-2.97-.9-.2-.71,1.05-.27,1.05.02,0,.05.04.06.04-.12-.1,0,.01.05.05,0,.01.03.04.04.05-.11-.16.03.07.06.12.04.05-.03-.1-.02-.04.03.07.06.18.07.25-.04-.18.02.06,0,.1,0,.15.03-.08,0,.03.01.04-.1.26,0,.09-.02.06-.14.22-.04.1,0,0-.09.09-.1.1-.04.05.1-.07.02-.01-.03.02-.08.04-.1.06-.09.05.11-.03,0,0-.31.06-.23.07-.59-.03.14.04-.06-.03-.09-.07-.07-.04.05.05,0,.01-.05-.03-.15-.18-.08-.06-.13-.22-.13-.23-.11-.56-.08-.55,1.01-1.06,1.05-1.66v.11c.13-.12-.03-.32-.17-.27h.02Zm-.93-11.33c-1.37-.66-2.61,1.48-1.47,2.43,2.13,1.84,4.09-2.01,1.56-2.91-.73-.2-.94.95-.2,1.07.04.01-.08-.03-.07-.03.02,0,.15.08.17.09.41.4.38,1.14-.17,1.21-.08,0-.23,0-.31,0-.04,0-.13-.03.03,0-.31-.05-.2-.04-.44-.17-.04-.02.05.04.05.04-.17-.15-.11-.09-.2-.23,0-.02-.04-.09,0-.02s0-.03,0-.04c0-.04-.03-.08-.02-.12v.04s0-.28,0-.11c-.02-.06.08-.32.03-.2.11-.22.15-.31.33-.45-.07.06.07-.05.11-.07.12-.07,1.03-.09.57-.54h.05Zm-9.45,84.8c8.99-7.48,19.6-14.1,31.35-15.86.77-.1.6-1.24-.14-1.04-10.82,2.75-25.59,8.79-31.21,16.91h0Zm6.79-16.15c3.27-.25,8.17-2.4,11.35-3.34,1.33-.98,16.47-3.78,11.17-5.46-5.66,2.13-19.79,4.56-22.52,8.81h0Zm3.76-4.51c3.41-5.96,7.55-11.76,12.82-16.2,1.4-5.7-15.53,17.04-12.82,16.21h0Zm-8.06-13.78c1.12-.78,1.81-3.16,2.56-4.28,0,0,2.81-4.7,2.81-4.7,2.03-3.06,4.45-5.84,7.17-8.31.92-7.86-16.2,15.99-12.54,17.3h0Zm-6.13-11.99c3.43-5.98,8.02-11.46,13.7-15.42,1.19-4.28-8.12,4.88-8.87,5.96-1.1,1.11-6.63,9.4-4.83,9.47h0Z"/>
  <path d="m237.08,809.65c5.89-4.38,11.69-9.96,18.28-13.26,2.85-6.91-20.95,12.47-18.29,13.27h.01Zm-1.69-10.79c6.15-5.1,12.35-10.24,19.14-14.46.47-.29.04-1.02-.43-.74-6.99,4.12-13.62,8.77-19.13,14.78-.26.29.13.66.42.42h0Zm35.41,43.15c-3.7-.59-9.05-1.61-12.76-2.51-1.71.06-16.88-6.35-12.95-1.68,7.53,1.48,19.61,7.73,25.7,4.2h0Zm-6.85-11.29c-8.58-1.64-17.7-3.31-25.84-6.61-7.35,1.96,27.29,9.37,25.83,6.61h0Zm-8.01-14.36c-8.03-.56-16.2-1.98-23.7-4.9-7.85,2.51,24.98,7.44,23.71,4.91h0Z"/>
  <path d="m251.27,805.41c-6.73-2.09-13.72-3.49-20-6.93-6.76,1.26,12.48,6.99,14.2,6.97,1.82.57,3.73-.19,5.49.47.34.17.64-.33.3-.51h0Zm-3.24-11.07c-5.02-3.1-11.57-4.9-15.98-8.89-5.79.13,9.55,7.44,10.82,7.64.08-.17,6.29,2.83,5.16,1.24h0Z"/>
  <path d="m231.31,786.02c2.94.74,7.57-.17,10.6-.25,0,0,10.96-.76,10.96-.76,1.35-.08,1.36-2.19,0-2.11l-11.17.83c-1.03.34-11.02.44-10.39,2.29Z"/>
  <path d="m241.83,783.72c-5.68,3.69-12.03,10.81-9.89,18.07.89,3.12,4.55,4.77,7.25,2.69,4.39-2.85,7.34-8.5,5.84-13.72-.48-1.36-3.23-10.46-4.41-5.64.87,2.84,2.7,5.5,2.68,8.56-1.61,13.23-15.26,12.15-7.53-1.45.41-2.01,7.42-8.05,6.06-8.52h0Z"/>
  <path d="m241.06,785.26c2.42,28.98,28.45,13.83,4.2-1.35-1.41-.6-2.24,1.35-.82,1.94,6.75,1.04,14.58,20.05,2.65,11.68-2.94-3.53-3.77-8.28-5.48-12.42-.14-.29-.53-.12-.55.15h0Zm-15.02,22.37c2.39-7.96,7.81-15.31,14.44-20.27,1.05-.79-.06-2.25-1.11-1.44-6.06,4.74-13.88,15.23-13.34,21.71h0Z"/>
  <path d="m264.2,802.69c-1.83-3.78-4.5-9.21-7.38-12.25-2.54-3.55-7-4.73-9.81-7.9-.78-1.01-2.21.41-1.41,1.41,4.9,4.17,10.71,6.91,13.96,12.9.12-.23,4.74,8.09,4.65,5.84h-.01Zm82.38-539.94c-4.58,7.87-12.62,13.67-21.57,15.49-.68.15-.39,1.19.29,1.04,8.73-1.78,18.94-8.37,21.28-16.53h0Zm11.79,63.01c7.61-9.25,17.34-17.2,29.26-20.09.69-.18.4-1.25-.29-1.07-11.2,3.11-24.5,10.74-28.96,21.17h0Zm5.72,4.6c7.56-9.18,17.83-16.47,29.95-17.94.69-.1.4-1.16-.29-1.05-11.4,1.83-24.85,8.54-29.67,18.98h.01Z"/>
  <path d="m363.01,320.29c-.86.61-.17,2.74-.3,3.66,0,0,.35,4.23.35,4.23.06.8,1.24.66,1.1-.15-.38-2.04-.48-4.35-.6-6.43-.02-.27.02-1.45-.55-1.31h0Z"/>
  <path d="m363.15,320.78c.93.32,2.44.61,3.4.93.91.07,5.09,2.86,3.91.46-.71-.53-8.49-3.31-7.31-1.38h0Z"/>
  <path d="m370.52,313.52c-.47,2.54-.35,6.93-.54,9.57,1.53,2.56.98-4.89,1.14-5.16-.08-.64.44-5.02-.6-4.4h0Z"/>
  <path d="m371.14,313.92c.73-.26,9.65,4.83,7.51,1.86-.43-.12-9.81-4.11-7.51-1.86Z"/>
  <path d="m378.76,308.3c-.76,2.49-.26,5.56-.11,8.15,1.7,2.45.64-3.74.68-4.13-.2-.56.5-4.69-.56-4.03h0Z"/>
  <path d="m388.33,312.9c-2.59-2.21-6.06-3.67-9.22-4.92-2.68.83,3.72,2.12,4.38,2.87,0,0,2.38,1.32,2.38,1.32.54.22,2.76,2.29,2.46.72h0Z"/>
  <path d="m386.55,305.43c-.29,2.29.43,5.76.71,8.06,1.96,1.67.25-3.3.37-4.18-.27-.62.17-5.16-1.09-3.88h.01Zm-32.21,15.93c8.65-8.33,16.91-16.24,29.3-19.11,1.37-.38.79-2.46-.59-2.12-9.68,2.36-18.7,7.72-25.32,15.17-1.1,1.59-4.51,4.21-3.39,6.07h0Zm-40.94-46.52c-.09,2.66,6.1,8.15,8.2,5.91.25-1.36-1.55-1.29-2.17-1.76-1.85-.2-5.31-5.26-6.05-4.15h.02Zm-55.13-186.37c-1.05.56-3.77,12.71-1.3,10.01-.08-2.53.39-5.32,1.01-7.77.02-.52.97-2.05.29-2.23h0Zm27.35-3.42c-.61-6.91-12.41-14.95-18.2-10.75,0,.5.47,1.08,1.02,1.02,6.59-.79,13.28,2.83,16.11,8.85.18.42.56,1.39,1.09.88h-.02Zm-49.91-23.36c8.57.49,17.18,3.25,23.26,9.59.92.9,2.34-.52,1.41-1.41-5.36-5.16-12.47-8.3-19.86-8.96-.94.05-5.55-.61-4.83.79h.02Zm11.76,34.73c-4.04-2.75-8.22,2.64-4.68,6.01,1.66,1.82,4.54,1.29,6.27,3.11.84.73,1.44,1.6,2.51,2.04,2.19.52,4.4.55,6.5,1.47,3.23.25,3.86-4.77.97-5.82-.77-.34-1.45.8-.67,1.15,1.04.46,1.63,1.57,1.04,2.65-1.15,1.83-3.36-.46-5.02-.25-3.13.44-4.41-2.91-7.14-3.73-2.76-.09-6.47-3.24-3.68-5.77.75-1.08,4.52.29,3.89-.85h0Zm16.35-10.71c3.26,5.19,9.87,7.41,15.79,7.22.65,0,.65-1.04,0-1.02-6.36.57-11.71-2.55-15.79-6.19h0Z"/>
  <path d="m263.83,85.55c8.48-6.03,11.22.23,15.97,6.36,2.9.57-2.21-3.73-2.25-4.88-2.09-5.65-11.57-6.95-13.73-1.5v.02Zm-10.69-3.23c-7.28-1.18-14.18-4.89-18.26-11.19-.44-.64-1.5-.03-1.05.62,3.57,5.49,13.64,12.99,19.31,10.58h0Z"/>
  <path d="m254.08,82.29c1.44-12.44-10.21-11.4-18.75-12.18-.71-.16-1.01.93-.3,1.08,10.6,1.57,16.17-1.65,19.05,11.1h0Zm1.42,38.15c-1.79-2.71-3.34-7.07-7.15-7.24-1.15.3-1.78-.37-2.52-1.12-4.6-1.86-9.86.74-14.42-1.57-.5-.2-.72.61-.22.81,4.81,2.81,11.35-1.17,15.44,2.63,4.6-.47,6.03,3.84,8.48,6.79.19.2.54-.06.39-.3h0Z"/>
  <path d="m254.5,120.68c-5.35-4.54-15.54-7.4-21.04-7.53,3.28,1.68,7.06,1.42,10.46,2.72,0,0,5.17,2.1,5.17,2.1,1.51.53,4.13,2.72,5.4,2.72h0Zm.54.13c-7.42,4.36-19.64-2.49-23.26-9.59-.23-.44-.89-.05-.66.39,2.51,6.58,19.41,15.96,23.92,9.2h0Z"/>
  <g>
    <path class="cls-6" d="m274.83,40.22c21.93,12.51,11.79,45.38,12.63,66.2-2.38,32.83-7.76,67.18-9.73,100.03,0,0-.45,6.57-.45,6.57-.13,1.93,2.87,1.92,3,0,1.86-34.43,7.36-70.3,10.04-104.67.45-18.47,3.74-37.71-1.02-55.8-2.29-6.39-7.15-11.55-12.97-14.93-1.67-.98-3.18,1.62-1.51,2.59h.01Zm1.04-4.54c25.86,14.41,15.23,52.07,15.22,76.45-2.61,24.83-4.27,65.9-5.54,91.12,0,0-.33,7.54-.33,7.54-.08,1.93,2.92,1.93,3,0,1.19-42.69,6.1-92.96,7.65-135.26.79-15.92-2.85-34.76-18.49-42.45-1.71-.89-3.23,1.7-1.51,2.59h0Zm.54-4.46c30.06,14.6,17.42,55.73,18.43,82.2-.63,23.23-1.81,71.68-2.34,95.13,0,0-.18,7.41-.18,7.41-.05,1.93,2.95,1.93,3,0,.94-45.69,2.49-103.47,4.21-148.82-.35-15.35-6.81-32.06-21.62-38.52-1.74-.82-3.26,1.77-1.51,2.59h.01Zm.75-4.77c16.22,7.83,23.73,25.76,22.95,43.1-.51,20.33-1.56,61.59-2.08,82,1.14-2.61-4.43,60.94,1.77,48.38,0,0,2.23-87.79,2.23-87.79-.27-14.28,3.34-49.1-1.57-62.51-3.29-11.21-11.55-20.33-21.79-25.77-1.7-.9-3.22,1.68-1.51,2.59h0Zm.36-4.14c30.99,12.74,27.04,51.42,26.98,79.03-.34,23.53-2.45,72.56-3.79,96.27,0,0-.45,7.4-.45,7.4-.12,1.93,2.88,1.92,3,0,1.05-47.51,8.87-106.47,1.44-153.28-3.14-23.05-33.32-39.21-27.2-29.42h.02Z"/>
    <path class="cls-6" d="m278.16,17.97c22.22,8.37,27.42,29.27,26.54,51.01-.08,1.93,2.92,1.93,3,0,.71-23.1-4.65-44.45-28.04-53.6-1.68-.95-3.2,1.64-1.51,2.59h0Z"/>
    <path class="cls-6" d="m278.43,13.91c15.13,3.79,24.91,18.12,26.04,33.26.49,4.26.45,8.61-.15,12.86-.48,1.86,2.41,2.69,2.9.8,3.24-20.51-6.39-44.43-27.98-49.81-1.88-.53-2.62,2.38-.81,2.89Z"/>
    <path class="cls-6" d="m277.76,8.91c15.13,3.79,24.92,18.13,26.04,33.26.49,4.26.45,8.61-.15,12.86-.48,1.86,2.41,2.69,2.9.8,3.25-20.59-6.44-44.48-27.98-49.81-1.88-.53-2.62,2.38-.81,2.89Z"/>
    <path class="cls-6" d="m277.75,4.79c14.54,3.7,24.66,17.24,24.78,32.14,5.9,6.97,1.18-13.04-.25-14.9-3.26-12.91-30.74-26.06-24.54-17.23h0Zm-7.14,30.58c-16.05-4.37-30.1,6.76-38.93,19.14-34.09,46.77-35.13,108.02-38.36,163.66,0,0-.11,4.15-.11,4.15-.04,1.93,2.96,1.93,3,0,3.15-56.8,4.09-148.99,57.02-182.92,5.17-2.15,11.12-2.24,16.59-1.12,1.88.39,2.69-2.5.8-2.89h0v-.02Zm1.43-4.26c-17.9-4.68-33.83,7.3-43.83,21.13-36.33,49.13-36,114.39-38.61,172.98,0,0-.03,4.45-.03,4.45,0,1.93,2.99,1.93,3,0,2.37-60.53,1.71-159.25,59.7-194.32,5.99-2.44,12.7-2.61,18.98-1.35,1.85.37,2.69-2.51.8-2.89h-.01Zm0-4.1c-19.86-4.82-36.82,9.39-48.52,23.94-30.49,40.22-34.02,92.87-37.1,141.5-.53,10.81-.86,21.64-.86,32.46,0,1.93,3,1.93,3,0,2.55-63.57.66-156.17,62.15-193.12,6.42-2.8,13.72-3.33,20.54-1.88,1.85.39,2.69-2.5.8-2.89h0Zm.65-4.41c-17.79-4.49-33.67,6.23-45.53,18.46-42.1,45.54-43.06,113.25-46.7,171.87,0,0-.15,7.84-.15,7.84-.03,1.93,2.97,1.93,3,0,2.85-58.27,3.44-123.93,40.76-172,11.12-12.32,24.91-25.53,42.92-23.99,1.65.13,3.3.37,4.92.7,1.88.39,2.69-2.51.8-2.89h-.02Zm.65-4.59c-16.87-3.66-33.14,4.43-44.8,16.21-46.95,46.51-48.68,118.62-53.42,180.81,0,0-.27,7.57-.27,7.57-.06,1.93,2.94,1.93,3,0,4.03-61.36,5.17-131.02,46.78-180.27,11.28-12.01,25.65-23.81,43.17-22.02,1.59.11,3.17.31,4.74.58,1.89.33,2.7-2.56.8-2.89h0Zm.48-17.39c-33.98-4.9-65.57,20.02-76.8,51.04-.69,1.8,2.2,2.58,2.89.8C210.75,22.68,241.18-1.33,273.84,3.62c1.91.06,1.95-3,0-3h-.01Z"/>
  </g>
</svg>