<?xml version="1.0" encoding="UTF-8"?>
<svg id="Ebene_1" data-name="Ebene 1" xmlns="http://www.w3.org/2000/svg" viewBox="0 0 291.79 869.58">
  <defs>
    <style>
      .cls-1 {
        fill: #f15a24;
      }

      .cls-2 {
        fill: #e6e6e6;
      }

      .cls-3 {
        fill: red;
      }

      .cls-4 {
        fill: #743f22;
      }

      .cls-5 {
        fill: #09f;
      }

      .cls-6 {
        fill: #42210b;
      }

      .cls-7 {
        fill: #603813;
      }

      .cls-8 {
        fill: #754c24;
      }

      .cls-9 {
        opacity: .5;
      }

      .cls-9, .cls-10 {
        fill: #1b1464;
        isolation: isolate;
      }

      .cls-10 {
        opacity: .49;
      }
    </style>
  </defs>
  <path class="cls-1" d="m247.58,245.46l-11.57-38.79c-5.35-24.29-8.42-55.5-30.74-73.22-12.52-10.67-26.94-9.34-48.71-7.94-.53-1.29-6.44-2.37-7.86-.74,1.47,2.82,3.12,5.84,3.72,8.98-1.09,25.21-10.98,48.96-24.97,69.67-13.26-16.44-21.04-37.95-26.97-58.38l.58-2.02c-4.18-1.76-10.39-6.92-12.71-10.28-27.23.12-44.85,12.24-55.05,30.62-17.63,38.63-21.16,51.41-24.25,93.19-1.18,10.96,1.69,16.67,11.86,17.81l.16-4.77c13.12.19,31.62-2.25,43.77-5.63l.86,6.95,17.77.85c5.22-.69,10.29-2.94,15.45-3.84,15.27-3.14,22.09-.2,41.71-.29,15.09-.73,36.94-2.65,54.75-1.37l2.24-11.33c16.69-.96,33.89-3.86,50.07-8.44l-.02.16-.1-1.19h.01Zm-51.38,95.61c-14.47-6.94-29.79-5.73-41.8-15-6.42-4.17-16.13-2.92-24.71-2.51-22.74-1.75-52.9,2.56-75.32-.49-4.49,8.49-8.59,22.92-9.34,31.8,4.42,1.88,7.19-3.53,11.69-5.5.53,6.59,5.31,5.61,12.88,3.51,9.28-2.46,19.49-6.31,30.63-6.73,8.55-.93,22.04,1.16,30.35,2.08,0,0,16.69-.7,16.69-.7,3.98.11,27.67-1.6,31.04.35,6.4,1.65,14,8.17,18.9,2.87.72-.23-.95-7.13-1.02-9.68h0Z"/>
  <path class="cls-8" d="m242.61,263.07c-.34-3.13-2.11-9.17-5.04-12.82-14.91,1.2-26.91,5.04-40.89,4.94.57,3.25-.08,7.98-1.12,10.52-15.95-.26-34.59.41-50.44,1.8-14.88-1.28-34.91-.89-49.65.92-6.57,4.73-22.21,2.68-30.16,2.49l-.47-6.94c-15.67,3.44-30.52,7.1-43.77,5.63-.18,2.77.8,6.54,2.01,8.68-6.24,1.56-15.93,5.99-21.82,10.41,2.01,13.63,25.54-5.04,34.39-2.43-8.13,4.72-29.92,12.49-25.23,25.47,9.74-1.38,9.63-9.97,17.97-11.65-3.61,2.39-7.98,12.35-7.46,16.02.3,6.67,4.39,4.76,6.96.41,4.02-7.18,2.06-10.3,12.37-9.65-15.19,10.93-2.41,26.28,2.05,17.75-.84-1.05-1.79-4.31-1.48-6.06,10.4,5.8,33.98,7.47,42.93,5.53,10.84-1.4,36.03-1.18,53.37-.14,10.5.4,11.46.37,13.64.97,3.97,1.03,14.76,7.71,21.63,10.05,9.51.57,16.3,2.7,20.84,4.61,10.66,5.6,21.5,3.84,26.05-7.98,3.63-.74,7.34-7.41,5.21-11.43,5.2-2.07,5.02-9.84-.25-11.65,7.57-3.03,16.67-17.99,19.34-25.01,1.48-5,.66-10.15-.99-20.46v.02Zm-90.36-129.34c-.7-7.26-1.89-4.23-5.72-19.81-5.66-23.09-4.42-35.13-15.45-53.05-21.52-40.96-74.93-42.85-75.9,22.79,0,0,2.4,5.86,2.4,5.86,11.18,29.66,13.63,45.26,43.49,53.51,4.96,21.55,17.17,45.36,26.62,61.27,13.72-25.64,25.5-44.98,24.55-70.57h0Z"/>
  <path class="cls-2" d="m122.74,759.13l-1.06-11.43c-6.18,11.24-12.17,31.35-14.06,44.15-1.08,5.73-2.31,13.25-3.24,22.19l-3.12,5.72c-10.43-8.13-26.76-14.7-39.15-14.85-4.69,9.99,2.79,25.01,14.13,26.92,8.99,9.39,25.48,3.44,29.87-1.87,9.82-5.62,12.49-53.9,16.63-70.83Zm166.61,93.98c5.12-6.65-4.08-17.77-5.61-18.27-10.62,5.79-18.71,15.91-22,27.55-30.11-12.48-38.3-31.9-65.87-52.23l-.54,9.76c9.1,11.14,37.34,32.04,44.63,37.05,1.82,2.11,7.86,8.56,18.19,10.73,14.64,2.17,29.09-2.17,31.21-14.6h-.01Z"/>
  <path class="cls-3" d="m283.73,834.85c-19.08-25.14-31.03-26.22-41.63-55.79-1.39-14.74-5.89-25.04-11.01-25.48-4.19-.89-10.3,5.8-9.11,9.99-8.23,2.91-22.67-1.75-26.41-5.45-1.47,5.84-1.4,13.28-.59,18.59.5,3.45.82,25.27.89,33.47,7.08,6.34,21.72,19.18,28.92,25.21,19.21,16.88,19.73,20.61,37.18,26.25,1.92-7.51,12.13-21.9,21.77-26.79h0Z"/>
  <path class="cls-2" d="m211.82,784.58c-.56-6.74-9.5-12.15-16.16-7.79l.04,19.88c7.74,2.72,16.37-.61,16.12-12.09Z"/>
  <path class="cls-8" d="m224.78,735.77c-.28-2.27-.28-4.37-.12-6.23-10.11,4.04-20.78,6.63-31.6,7.73,1.46,5.41,2.35,14.21,1.79,20.47,4.82,4.03,21.01,7.8,27.8,5.99-1.4-7.4,6-12.83,11.19-9.55-2.82-2.97-7.93-9.3-9.07-18.41h.01Z"/>
  <path class="cls-5" d="m235.24,715.94c-1.6-2.85-5.76,1.67-4.66.24,8.02-26.8,8.22-59.04,6.19-95.61-.51-17.82-6.34-35.28-6.41-52.99,5.13-64.05-2.97-108.62-19.1-164.26-4.7-13.3-12.24-33.35-14.39-51.65-8.88,3.12-13.68-4.44-23.93-4.71-21.09-.85-16.51,1.84-39.69.81-9.34-.25-36.46-2.28-41.89-.71-1.43.27-6.58,1.76-16.9,4.75-10.7,2.97-17.26,5.72-17.84-3.2l-5.4,4.77-4.23,1.88c-16.95,57.31-16.69,65.71-16.97,143.49-1.76,22.88,5.62,51.75,12.42,75.68-2.02,37.53.31,68.33,24.44,122.74l-1.21-.54c-1.02,3.79-.3,9.71.9,12.45,19.04,3.43,35.68-1.31,54.18-8.39,2.35-1.4.98-3.98,1.19-8.88.09-3.2.68-4.66-.06-5.09s-2.13.58-3.1,1.41c5.95-29.54,1.78-83.61-10.53-113.34,7.03-41.19,19.28-98.45,17.76-137.3,14.52,55.41,18.57,110.91,36.64,159.34-6.8,55.39,2.78,80.98,21.2,128.65l-.85.31c-1.15,3.54,0,7.46,2.07,11.49,21.79-.93,13.4.03,41.17-8.23,1.04-.17,6.53-2.46,8.96-4.57.05-.02.09-.06.13-.09.22-.96,1.32-6.1-.13-8.43l.04-.02Z"/>
  <path class="cls-7" d="m164.93,73.46c-8.47-24.57-14.27-43.69-33.41-59.33-24.49-16.33-53.46-21.31-71.14,3.64-25.34,34.17-14.45,88.48-14.38,128.58,6.61-5.93,23.69-13.07,35.38-12.72-8.87-8.28-10.54-9.38-17.57-26.58-6.04-17.52-14.95-32.89.82-59.37,9.66-16,34.24-16.92,46.46-6.34,9.42,7,19.63,27.63,24.29,40.55,4.31,16.6,3.45,24.96,13.33,42.88,2.22-.48,5.55-.23,7.85.74,3.69-.27,12.89-.92,16.48-1.12-.85-21.74-4.68-39.04-8.12-50.93h0Z"/>
  <path class="cls-3" d="m121.68,747.7c-3.03-13.98-2.12-22.75-9.78-33.53-1.67,4.35-6.21,9.26-9.86,11.19-2.79-9.04-15.26-9.2-18.74-.31l-4.88-3.71c-7.4,15.26-1.63,29.13-4.96,46.43-3.42,13.28-6,19.01-11.35,37.13,10.85-.1,32.3,8.42,39.65,15.24,6.5-22.93,8.83-51.52,19.92-72.44Z"/>
  <path class="cls-2" d="m116.6,723.48c-8.82,2.79-5.72,22.2,3.96,17.43-.54-5.71-2.15-12.47-3.95-17.43h-.01Z"/>
  <path class="cls-8" d="m111.39,704.15c-8.6,3.35-21.88,6.19-32.39,6.37.4,2.73.26,7.12-.32,9.8l4.9,4.68c4.88-10.12,14.5-7.59,18.46.77,3.69-3.45,7.49-8.03,10.1-12.04-.73-2.8-1.01-6.97-.75-9.58Z"/>
  <path class="cls-2" d="m65.33,90.67c3.02-.91,7.16-4.54,9.28-5.24,3.3-1.2,8.36,1.91,8.69,5.31-3.77,3.75-15.73,2.56-17.96-.09v.02Zm54.13-8.87c-6.76-2.2-19.74-3.54-21.23,5.58,6.31,3.37,19.27-1.93,21.24-5.58h0Z"/>
  <path class="cls-6" d="m110.79,85.32c0,2.38-.56,2.72-4.25,2.97-3.89.85-4.43-.24-4.63-2.97.09-5.47,8.75-6.04,8.88,0Z"/>
  <path d="m106.35,83.25c2.82-.04,2.82,4.38,0,4.34-2.82.04-2.82-4.38,0-4.34Z"/>
  <path class="cls-2" d="m108.37,82.79c.35,0,.35.55,0,.54-.35,0-.35-.55,0-.54Z"/>
  <path class="cls-6" d="m80.08,90.33c-.47,2.33-.68,3.12-4.03,2.91-3.49.36-3.75-1.41-3.83-2.91.12-5.03,7.79-5.1,7.86,0Z"/>
  <path d="m76.15,88.47c2.49-.04,2.49,3.88,0,3.84-2.49.04-2.49-3.88,0-3.84Z"/>
  <path class="cls-2" d="m78.02,88.06c.31,0,.31.48,0,.48-.31,0-.31-.48,0-.48Z"/>
  <path class="cls-4" d="m99.24,130.04c-6.53-.12-10.81,1.91-14.05-3.26,7.05-7.9,5.56-2.86,11.54-5.51,3.44-1.2,8.52,3.3,13.81,2.45-5.5,5.41-9.64,6.18-11.28,6.34l-.02-.02Z"/>
  <g>
    <path class="cls-10" d="m101.32,150.82c-2.99.14-6.22,4.55-8.61,6.63-1.01.51-1.56,1.77-2.11,2.72-.06,0-.12.02-.17.05-.34-.09-.65.21-.65.58-1.86-.94-1,7.48.54,5.72,2.7-5.79,7.33-10.31,11.18-15.23,0,0,.02-.02.02-.03.16-.2,0-.45-.2-.44Zm63.28-16.45c-.37-1.08-2.48-4.95-3.55-3.7,3.27,4.47,4.46,10.26,5.33,15.65-1.29-.04-.69,4.07-1.01,5-.61.12-.16,1.59-.22,1.97-.21-.23-.88-.74-.95-.15-.93-.92-12.86-9.14-10.83-4.83,4.59,2.33,9.21,4.74,12.66,8.66,4.58-.82.61-19.09-1.43-22.61h0Zm-26.95-34.64c2.85,22.82-17.54,40.85-37.61,42.78l1.68,4c21.73-2.44,47.53-22.02,35.93-46.78Zm-58.76,82.43c-12,33.61-9.7,51.16-10.77,81.12-20.02,4.79-39.17,9.36-58.59,4.39,12.01,16.89,42-.23,60.99,2.99-1.85-29.25,1.99-61.41,8.37-88.5Zm-39.67,123.83c-6.13-1.45-10.56,3.99-13,8.87-.71,1.77-8.51,7.19-2.19,5.33.23.39.81.6,1.18.19,5.11-4.46,5.5-13.92,13.71-13.61.49.28.84-.62.29-.76v-.02Zm.32-10.21c-12.24-1.45-19.23,11.17-29.23,15.15-.9.16-.52,1.54.38,1.38,4.34-.8,7.27-4.51,10.43-7.26,4.91-5.08,12.59-7.26,18.42-9.28h0Zm-1.95-9.38c-12.06-1.34-23.32,8.19-35.34,5.18-4.02,2.96,12.19,1.71,13.56.53,6.52-2.11,13.12-3.99,19.92-4.95.51-.15,2.03-.07,1.86-.76Zm84.45,408.76l.18-5.95c.71-3.86-1.89-2.48-3.41-1.06,6.18-18.09.25-106.57-10.62-112.65-7.77,6.75,7.87,42.42,7.34,62.36,1.55,17.61,1.23,35.34-.95,52.88l1.43-.2c0,4.07-.33,8.45-.9,12.39,8.56-1.27,6.12-1.79,6.94-7.76h-.01Zm114.88-69.11c-3.08-33.36-5.55-50.01-7.42-49.95-.94.03-1.73,4.31-2.37,12.84,5.34,42.42,5.37,85.49.13,127.92l3.93-1.84c5.34-25.67,7.7-63.43,5.73-88.98h0Zm-1.42,94.84l-1.04-5.7-5.03,1.64c.3,3.64-.27,8.21-1.28,11.44l7.29-3.87.07-3.51h-.01Z"/>
    <path class="cls-9" d="m227.73,313.52c-.3-1.61-2.76-2.92-3.65-4.73-1.1-.82-3.21.29-3.53.44-4.32,4.7-61.97-7.96-79.44-8.13-11.1,1.99-24.54,4.72-32.98,4.42-11.93-2.22-20.52-.61-26.31,1.41-9.16,2.79-25.33,12.89-38.18,6.6-9.42,2.51-9.57,20.06-1.32,11.11-2.17-1.87-3.19-4.16-1.38-5.93,13.71,7.94,34.13-5.04,48.08-8.31,6.54-1.23,8.04-.37,21.2-.94,12.53-.54,16.49-1.41,22.99-1.78,32.25.1,50.46,11.51,88.16,8.89-1.46,9.53-6.4,18.44-13.71,24.72,4.31.17,6.76-.63,10.51-8.49,2.72-2.59,7.92-7.54,5.74-12.53,2.18-.11,4.93-4.35,3.8-6.73l.02-.02Zm15.27-51.71c-1.78-4.84-3.69-7.49-5.43-11.57-11.52,3.04-27.12,5.19-40.89,4.94.58,1.56.63,3.91.05,5.6,13.24.88,26.63-.61,39.36-4.38,7.5,14.65,3.68,40.42-11.15,51.32,7.93-2.71,13.08-14.19,17.78-21.47,4.67-11.03,1.11-22.08.28-24.46v.02Zm-106.06,211.3c-.13-2.42-12.31-59.89-10.3-43.2-1.17.11.62,4.95.5,5.51.42,6.09,2.6,12.41,3.92,18.49-.86,1.22.31,3.4.34,4.9-.76-.2,1.17,10.2,1.04,10.42.09.67,1.13.69,1.09.04l1.56,6.3c.03.13.1.21.17.28l.54,2.97c-.19,3.01,2.39,26.44,5.67,24.43-1.09-10.1-2.66-20.15-4.52-30.13h0Zm1.42,18.69c.24-.03.47-.21.51-.48l1.04,7.96c-.79-2.37-1.33-4.83-1.72-7.31.07-.04.13-.09.18-.17h0Zm57.93-139.28c-4.6,1.06-9.47-.03-13.87-1.47,4.18-.46-5.28-3.42-6.35-3.5-8.83-2.62-19.96-.38-29.27.8-.33-.12-.7.07-1.03.09-.18-.52-.9-.36-1.35-.4-1.81-.59-3.85.28-5.71.4-.44-.85-1.97.11-2.79-.05-.96-.53-2.46.04-3.59-.04-3.7-.22-10.93-.68-14.51-.38-2.73-.62-6.51-.71-9.3-1.13-.24-.03-.41.15-.46.36-.82-.06-1.65-.09-2.47-.11-4.61-1.16-10.34.12-15.24.53-.29-.03-.47.21-.43.47-.32.08-.79-.02-1,.27-.33.09-.9,0-.98.41-1.21.21-2.38.53-3.54.92-.3-.59-1.49.18-1.9.26-.17-.63-6.56,2.3-6.89,2.26-.01-.16-.22-.24-.32-.11-1.75.18-3.43.97-5.05,1.56-.23.05-.46.14-.69.19-.21-.42-4.11.68-4.46.66-.18.04-.31.19-.36.37-3.17.24-6.2-.12-8.73-2.2.57-.46,1.18-2.32-.05-1.27.28-.25.52-.85-.05-.84.73-.25.92-1.54-.08-1.16-1.24.77-3.12,1.8-3.77,3.09,0,0-.02.02-.03.02-1,1.37-4.87,2.08-4.52,3.71-.43.13-.47.6-.28.9-.87,3.32,7.7-2.64,8.35-3.89,11.48,10.02,32.85-6.93,47.95-4.26,20.6,3.48,41.12.84,61.8.2,9.95-1.73,23.67,8.83,31.66,3.53-.08-.35-.5-.46-.69-.19Zm.81-5l-1.51-6.96c-5.6-2.87-18.54-5.49-25.15-6.82-7.73-2.13-8.91-4.51-15.3-7.07,1.2-1.54-39.39-3.8-47.3-3.93-19.29.25-31.31,2.09-53.85,1.08-.23.73-1.29,3.85-1.76,4.53,0,3.25,21.63,4.14,21.63,4.14,17.78.73,24.09-.92,46.72-1.48,19.04-.47,24.03.47,28.78,2.11,11.17,5.09,36.49,13.88,47.74,14.4Zm-74.27,412.36c-.53-9.76-1.17-13.71-3.6-26.17-2.14-9.27-5.76-17.73-8.05-22.61,0,0,.26-7.53.26-7.53-1.51.53-7.81,2.33-8.89,3.45,0,0-23.56,3.5-23.56,3.5l.35,5.85c7.66-.06,19.5-2.08,27.28-4.88,8.05,12.8,15.46,47.2,11.94,65.48,2.08,3.72,2.68-11.22,4.26-17.09h0Zm101.77-23.42c.3-1.09.33-3.58.11-4.7.26-.93-.81-1.64-1.35-.79-.15.02-.29.09-.39.2-.3-.23-.79-.15-.95.28-2.2-.15-4.27,1.14-6.26,1.92-5.39.39-11.21,2.24-16.54,3.27-.59-.24-1.28-.04-1.8.23-.68-.09-1.73.21-1.8,1-.16-.35-.59-.27-.79-.02-.15-.25-.42-.63-.74-.47-1.18-.46-1,.86-.41,1.45.13.75.43,1.62,1.08,2.09.43.59.07,1.95,1.01,2-3.83,5,32-2.76,28.84-6.47h-.01ZM137.1,95.84c-.45-5.29-1.51-9.93-2.72-13.79,2.38,10.2-.69,34.46-7.04,45.38,9.92-9.4,11.05-20.92,9.76-31.59Z"/>
  </g>
  <g>
    <path class="cls-6" d="m65.01,136.03c-2.27-12.65-3.83-26.24-4.53-38.87-.9-1.52-1.85-2.88-2.27-2.72-.27,14,1.93,28.42,3.9,42.39.24,1.74,1.83.43,2.89-.8h.01Zm4.37-1.97c-1.62-6.71-2.5-13.6-2.66-20.5,0,0-4.73-13.38-4.73-13.38,1.14,11.6,2.65,23.17,4.5,34.68l2.89-.8Zm3.74-.02c-1.03-3.48-1.57-8.09-1.87-11.73,0,0-3.37-5-3.37-5,.04,4.85,1.48,12.6,2.62,17.66l2.62-.94h0Zm4.07-.74l-1.46-5.8-3.45-4.6,2.02,11.08,2.89-.68Zm10.81-118.46c39.81-2.25,61.19,40.62,69.12,73.91,2.73,11.64,4.25,23.52,4.77,35.46.08,1.92,3.08,1.93,3,0-1.94-45.18-21.79-113.06-76.87-112.37-1.96.13-1.87,3.13-.02,3Zm1.68-4.01c43.14-.21,64.55,45.48,72.64,81.89,2.28,10.45,3.5,20.36,3.98,30.67.09,1.92,3.09,1.93,3,0-2.86-46.97-23.16-114.27-79.63-115.56-1.93,0-1.93,3,0,3h.01Zm1.61-4.23c45.05.18,67.47,48.81,76.47,86.74,2.05,9.73,3.13,19.63,3.31,29.57.03,1.93,3.03,1.93,3,0-1.43-47.59-26.46-118.4-82.78-119.32-1.93-.02-1.93,2.98,0,3h0Z"/>
    <path class="cls-6" d="m93.45,3.03c33.48-.42,57.11,29.15,65.7,58.94,1.15,3.65,2.15,7.36,2.92,11.12.39,1.89,3.28,1.09,2.89-.8C158.03,37.24,132.71-.34,93.45.02c-1.93-.03-1.93,2.97,0,3h0Z"/>
  </g>
  <path d="m100.53,143.56c-.71,8.39,4.54,16.24,7.08,24.02,5.12,12.38,11.41,24.24,18.29,35.72.52.87,1.89.08,1.36-.8-11.58-17.85-19.48-40.77-26.74-58.95h.01Zm-.01,9.89c-.79,5.36-4.16,12.8-5.95,17.95-.33.85,1.07,1.25,1.37.38.84-3.12,7.12-17.2,4.58-18.32h0Z"/>
  <path d="m123.65,203.72c-9.63-9.92-18.95-20.3-26.87-31.67-10.02-4.35,25.85,34.56,26.88,31.68h0Zm-23.64-52.85c-4.58,2.49-8.55,6.44-12.21,10.08-.77,4.21,5.43-4.05,6.61-4.52.27-.51,7.77-5.81,5.59-5.56h.01Z"/>
  <path d="m88.53,161.9c.36-7.05.39-14.54,2.14-21.43-3.03-7.28-4.92,23.02-2.14,21.44h0Zm38.54,44.83c2.47-1.3,42.45-41.59,33.22-38.29-9.33,13.5-24.57,26.5-33.22,38.29h0Z"/>
  <path d="m153.01,150.89c2.03,5.79,5.51,11.57,7.61,17.28.38,1.17,2.14.34,1.5-.63-1.74-2.62-2.96-5.63-4.32-8.46-.4-.48-4.53-10.47-4.79-8.18h0Zm-4.56-25.98c9.15,25.58-8.2,52.35-18.94,74.84-.56,1.13,1.12,2.13,1.7.99,9.11-17.39,30.96-59.57,17.24-75.83h0Zm5.9,21.33c.96,3.26,7.3,4.92,9.83,6.79,1.13.6,2.14-1.14,1-1.71-1.77-.87-6.64-3.26-8.36-4.05-.82-.03-1.93-1.9-2.47-1.03h0Z"/>
  <path d="m153.12,124.45c8.96,6.06,13.27,17.26,10.71,27.79-.25,1.26,1.67,1.79,1.93.53,2.22-10.17-.6-22.6-10.14-28.07-.5-.16-3.14-1.41-2.5-.25h0Zm-45.42,17.76c13.61,13.72,36.53,1.38,39.51-16.24.29-1.29-1.68-1.84-1.99-.55-2.85,14.05-17.54,24.89-31.53,18.58-1.79-.32-4.44-3.09-5.98-1.79h0Zm18.22,25.4c-5.18-7-15.31-18.38-21.05-25.11-.85-.97-2.26.45-1.41,1.41,3.38,3.79,13.6,15.3,16.87,18.85.07-.26,6.15,7.1,5.59,4.84h0Z"/>
  <path d="m126.22,167.54c9.56-9.99,16.72-22.19,21.3-35.23.42-1.22-1.51-1.74-1.93-.53-3.36,12.93-13.5,25.91-19.36,35.77h-.01Z"/>
  <path d="m125.86,169c-2.23-.08-2.19,5.77.26,4.99,4.16-2.43-.64-10.14-1.98-3.13-.64,2.8,2.28,5.18,3.48,1.67,1.67-3.6-2.46-8.17-3.75-2.53-.99,2.45,1.38,7.61,3.5,3.61.77-1.41,1-5.77-1.43-5.16-.6.37-.58,1.07-.25,1.62-.08-.18-.02-.04,0,0l.13.42c.03.08.09.51.05.25.06.82.04,1.13-.24,1.88.08-.21-.03.05-.04.08-.02.11-.41.63-.25.46-.03.04-.09.08-.12.12.19-.27.88-.18.95.14-.12-.23-.3-.68-.37-1.19,0-.04-.03-.2,0,0-.09-.96-.03-1.4.28-2.29-.04.02.45-.79.38-.71-.25.2-.28.46-.85.13-.22-.24-.14-.1-.05.07.13.25-.04-.13.01.03.06.1.27,1.01.21.72.02.25.03.65,0,.9,0,0,0-.01,0-.02.01.16-.3,1.1-.21.87-.04.13-.4.75-.29.56.48-.25.83-.23,1.07.07,0-.04-.06-.12-.07-.15.1.23-.15-.43-.15-.56,0-.04-.03-.32-.01-.07-.02-.26-.03-.5.01-.76-.05.33.06-.28.08-.32,0-.05.2-.55.1-.32.04-.14.44-.76.33-.59.04-.04.07-.09.11-.13h-1.41s.23.29.07.07c.19.26.3.55.36.87.05.2,0-.21,0,.02,0,.03,0,.91,0,.52-.04.18-.09.46-.17.62.24-.43-.41.71-.16.3-.15.19-.3.36-.49.52h1.35q-.07-.08,0,0c-.06-.05-.34-.6-.27-.44-.07-.2-.14-.44-.17-.64h0c-.29-.75.77-1.84-.01-2.39h0v-.11Zm-1.53,39.57c-.83,7.93.35,19.26.45,27.34.59,2.93-.83,30.4,1.97,27.34.19-13.76-.88-27.5-.75-41.25-.23-1.91.54-15.24-1.68-13.42h.01Zm2.96,2.74c-.09.4,0,.82.29,1.12,0,.02.21.17.23.19.33.16.62.21.97.13-.06.02.19-.07.26-.11.15-.11.29-.23.39-.39.29-.57.13-1.32-.44-1.66,0,0-.03,0-.03,0-.17-.1-.41-.15-.61-.16-1.86.04-1.05,2.94.55,2.01l-.26.11h.03l-.29.04h.04l-.28-.04s.03,0,.05,0l-.26-.11.05.03-.22-.17.07.06-.16-.21s.02.03.03.04l-.1-.25s0,.03.01.04l-.04-.27v.03l.04-.27v.02l.1-.24s-.01.02-.02.03l.16-.21-.03.03.21-.16s-.02,0-.03.02l.24-.1s-.03,0-.04,0l.27-.04h-.05l.27.04s-.04,0-.06-.02l.24.1s-.04-.02-.05-.03l.2.16s-.03-.02-.04-.04l.16.2s-.02-.02-.02-.04l.1.24v-.03l.04.27v-.04l-.04.27c.38-1.26-1.58-1.83-1.93-.56h0v-.04Zm1.96,16.3h0c-.03.05-.05.12-.08.18,0-.03.03-.06.05-.08l-.13.16s.05-.06.08-.08l-.17.13s.03-.02.04-.03l-.21.09c.09-.03.17-.07.25-.11l-.21.09.1-.03-.25.03h.02l-.66-.27c.24.27.65.36,1,.27l-.26.04h.08l-.26-.04s.03,0,.04,0l-.72-.95v.83l1.27-.97s-.06,0-.09-.02l.24.1-.08-.05.2.16s-.05-.04-.07-.07l.16.2s-.05-.07-.06-.11l.1.24-.04-.13.04.27v-.14l-.04.27.03-.11-.1.24.05-.08-.16.21.06-.06-.21.16.02-.02-.24.1h.02l-.27.04h.05l-.27-.04h.03l-.24-.1.05.03-.21-.16.04.04-.16-.21.03.05-.1-.24s.01.04.02.05l-.04-.27v.05l.04-.27s0,.03,0,.04l.1-.24s0,.02-.02.03l.16-.21-.02.02.21-.16s-.02,0-.03.02l.24-.1s-.03,0-.05,0l.27-.04h-.05l.27.04s-.04,0-.06-.02l.25.1s-.04-.02-.05-.03l.21.16s-.03-.02-.04-.04l.16.21s-.02-.02-.02-.04l.1.25s0-.03,0-.04l.04.27c.08-1.37-2.08-1.37-2.06-.02,0,1.77,2.87,1.45,2.36-.29-1.44-2.78-3.9,1.61-1,1.92,1.18,0,1.22-1.69.76-2.44-.53-.76-1.98-.39-1.92.6l.27-.66c-1.1.99.42,2.75,1.17,1.23h0v.03Zm.5,14.19v-.02l-.07.16s.02-.04.04-.06l-.11.14s.02-.02.02-.03l-.68.18c.25.08.49.02.72-.09l-.2.08s.05-.02.08-.02l-.22.03h.06l-.23-.03h0l-.21-.08h0l-.31-.31c.13.21.35.38.58.45l-.22-.09s.04.02.06.04l-.18-.14.05.05-.14-.19.04.07-.09-.22s.02.05.02.08l-.03-.25v.08l.03-.25-.02.08.1-.23s-.02.04-.03.05l.58-.45h0c.09,0,.17-.02.26-.03h-.06l.26.03s-.05,0-.07-.02l.24.1s-.08-.04-.11-.07l.2.16s-.04-.03-.06-.05l.16.2s-.03-.04-.04-.07l.1.24s-.02-.05-.02-.07l.04.27v-.07l-.04.27.02-.08-.1.24s.02-.05.04-.07l-.16.2.06-.06-.2.16.08-.05-.24.1s.05-.02.08-.02l-.27.04h.07l-.27-.04h.03l-.7-.7c.03.07.05.14.06.22l-.04-.27v.22l.04-.27c0,.09-.03.17-.07.25l.1-.24c-.03.07-.07.14-.12.2l.16-.21-.1.11,1.6.21c-.04-.06-.08-.12-.11-.19l.1.24s-.04-.1-.04-.15l.04.27v-.09l-.04.27s0-.04.02-.06l-.1.25s.02-.04.03-.05l-.16.21.03-.03-.21.16s0,0,.02,0l-.25.1h.03l-.27.04h.02l-.28-.04h.02l-.25-.1s0,0,.02,0l-.21-.16.03.03-.16-.21.03.06-.11-.25s.02.04.02.07l-.04-.28v.04l.04-.28v.02c.16-.52.75-.88,1.29-.73h-.02l.25.11c-2.1-.95-2.09,2.75.02,1.81.76-.44.66-1.61-.06-2.03-.24-.14-.56-.2-.83-.12-.29.08-.59.29-.7.56-.04.07-.1.22-.12.29-.04.22-.06.49,0,.71.97,2.84,3.87-1.01,1.6-1.94-1.06-.32-2.03.96-1.45,1.9.52.98,2.24.77,2.2-.44.09-1.02-1.42-1.79-2-.8l.14-.18h0l.38-.21c-.57.15-1.01.84-.63,1.37l-.1-.35c-.1.79,1.05,1.12,1.29.32h-.06Zm-.53,17.41s0,.02.02.03l-.1-.24v.03l-.04-.27v.04l.04-.27s0,.03,0,.04l.1-.24s-.02.03-.03.04l.16-.2-.04.04.2-.16s-.03.02-.04.02l.24-.1s-.03.01-.05.01l.27-.04h-.03l.27.04h-.03l.24.1h-.02l.2.16-.03-.03.16.2s-.03-.04-.04-.07l.1.24s-.02-.06-.02-.09l.04.27v-.11l-.04.27.03-.11-.1.25.06-.11-.16.21.08-.08-.21.16.08-.05-.25.11s.03-.01.05-.01l-.28.04h.08l-.76-.31s0,.01,0,.02l-.17-.22s0,.02.02.03l-.11-.26s0,.03,0,.04l-.04-.29v.04l.04-.29s0,.06-.02.09l.11-.26-.03.06.17-.22s-.02.03-.04.04l.22-.17s-.03.02-.04.02l.26-.11s-.03,0-.04.01l.29-.04h-.03l.29.04c-2.5-.33-1.22,3.47.63,1.78l.18-.23c.34-.59.18-1.38-.42-1.74-.59-.34-1.37-.04-1.7.53,0,0,0,.01,0,.02-.25.44-.27,1.05,0,1.5,0,0,.19.25.19.24.02.02.18.14.21.16.36.19.83.18,1.18,0,.54-.3.77-1.04.43-1.58-.64-1.13-2.4-.09-1.73,1.01h0v-.03Zm-50.22-77.26c-7.2,17.19-10.75,35.84-10.59,54.47,0,.58.92.58.91,0-1.31-18.31,4.88-39,9.69-54.47h-.01Zm100.84-5.45c8.05,24.93,6.14,51.63,8.57,77.43,4.21,7.36-.53-28.78.21-30.97-1.39-15.26-1.83-34.37-8.78-46.46h0Z"/>
  <path d="m204.9,166.88c0,20.25-6.12,40.07-10.54,59.69.16,1.96-7.55,21.13-3.05,16.98,4.13-17.62,10.83-42.3,13.68-59.9.96-5.55,1.22-11.19.48-16.78-.04-.37-.62-.39-.59,0h.02Zm-123.52-33.74c-48.75-1.28-61.32,53.62-69.72,91.68-2.5,14.05-3.39,28.25-3.17,42.51.01.9,1.42.91,1.41,0-.71-34.68,8.36-68.73,21.86-100.43,7.95-15.97,23.06-28.53,40.87-31.48,1.4-.73,10.93-.49,8.78-2.29h-.03Z"/>
  <path d="m9.99,267.87c5.93,5.86,53.33.34,56.35-4.76-13.91,2.85-28.33,5.94-42.54,5.75-2.74.78-13.69-2.93-13.83-.97h0l.02-.02Zm-.46-6.66c18.58,5.98,39.01.13,57.67-3.32.52-.11.3-.9-.22-.8-9.59,1.8-19.22,3.5-28.95,4.32-7.07.54-14.17.49-21.22-.23-1.6.12-7.14-1.49-7.29.03h0Z"/>
  <path d="m8.86,267.47c.99,4.79,14.32,10.03,10.89,5.94-4.07-.55-8.07-2.8-10.38-6.24-.2-.32-.71-.03-.51.3h0Zm59.55-4.37c.28-6.64.69-13.99.86-20.68-.35-1,1.1-8.81-.54-6.89-.08,8.54-2.17,20.77-.33,27.57h.01Zm-20.29-65.36c3.54,19.23,8.62,38.91,18.31,55.79.44.83,1.76.07,1.27-.74-10.64-16.24-14.06-38.74-19.58-55.05h0Zm144.16,57.89c2.25,1.8,66.2-5.61,54.94-9.36-17.25,5.84-38.81,6.4-54.94,9.34v.02Zm-.27-4.78c8.74-.24,18.11-1.62,26.63-3.41,2.06-.87,33.17-5.59,26.01-7.89-16.52,6.05-37.33,6.95-52.64,11.3Z"/>
  <path d="m159.98,125.58c4.99.78,12.42-.06,17.54-.19,42.92-1.76,51.22,48.47,58.38,80.93,1.39,3.25,11.12,46.16,13.2,38.64-6.37-20.37-14.03-49.79-18.61-70.25-7.85-35.75-33.78-60.29-70.51-49.12h0Zm33,88.84c4.83-28.28,3.7-57.59-.46-85.88-.2-1.29-2.18-.75-1.97.54,3.54,22.03,4.6,44.32,3.19,66.58-.49,5.51-.93,13.2-1.33,18.68-.03.33.53.41.58.08h0Zm-139.78,111.22c-5.5,8.92-7.94,19.24-8.89,29.6,2.2,2.28,6.96-.59,8.45-2.96.52-.79-.76-1.54-1.27-.74-1.41,2.21-3.9,3.32-6.49,3.01l.69.69c.9-10.2,4.24-19.93,8.14-29.34.15-.37-.43-.58-.63-.26h0Zm12.73.15c-29.01,51.55,12.05,19.05,39.13,21.45,2.39-1.13,30.99,4.49,24.53.09-13.31-1.65-26.88-3.27-40.21-.89-9.64,1.66-18.55,6.94-28.51,6.67-8.47,1.05,4.68-22.95,5.6-27.09.14-.32-.37-.5-.54-.23h0Z"/>
  <path d="m46.49,355.66c-.57.95-.27,2.63-.43,3.71-.02,1.25,1.97,1.25,1.94,0,0,0-.11-1.7-.11-1.7,0-.84-.08-2.9-1.4-2h0Z"/>
  <path d="m47.37,359.87c4.85.73,12.31.25,17.28.28,0,0,17.66-.31,17.66-.31,1.24-.02,1.24-1.94,0-1.92-5.83.1-20.75.33-26.37.48-1.59.36-9.51-.41-8.57,1.48h0Zm-15.85,142.39c-1.28-46.7-2.72-96.63,15.6-140.42-15.75,27.54-17.43,68.75-18.41,102.21.02,11.33-.08,22.8,1.15,34.06.2,1.07.76,5.43,1.66,4.14h0Zm95.73-175.88c-.57,5.11.26,10.82-.48,16,2.87,4.29,2.14-6.93,2.15-8.4-.27-1.03-.09-8.33-1.67-7.6h0Z"/>
  <path d="m76.5,359.99c-.53,21.79-.09,38.5-24.58,46.13-5.2,1.61-10.63,2.21-16.05,1.64-1.28-.13-1.27,1.87,0,2,24.03,2.47,44.38-14.9,42.19-39.66-.05-3.35.06-6.83-.57-10.1-.66-1.34-2.16-.1-1.19.6.49.3.83-.76.19-.61h0Zm-33.97,20.69c3.27.89,6.9.1,10.17-.47,1.96-.71,2.04-.29,1.93,1.61,0,.33,1.05,18.71,1.09,19.81.07,1.28,2.07,1.29,2,0-.54-2.35-.29-21.9-2-23.3-2.53-1.14-5.53.8-8.25.64-1.2.33-6.69-.37-4.95,1.73v-.02Zm153.43-37.37c.36,2.48,1.02,4.96.6,7.5l.48-.84c-6.45,3.86-13.93-1.15-20.23-3.13-1.22-.51-1.84,1.56-.56,2.02l8.17,2.91c4.07,1.43,12.04,3.56,14.13-1.48.39-1.3-.59-9.05-2.59-6.98h0Z"/>
  <path d="m196.46,352.97c.21,1.69-.27,6.62,1.9,6.76.46-.13.77-.64.63-1.11-.25-.95-.88-3.4-1.1-4.32,0-.79-.7-2.89-1.42-1.33h0Zm-102.97-4.76c-2.65.82-6.82,23.01-3.13,19.18-.35-4.74.75-9.8,2.22-14.3.06-.68,2.34-5.57.92-4.88h-.01Zm6.17.08c-1.14,2.68-2.45,6.36-2.78,9.25.29-.11-2.46,12.39-.36,9.42.4-3.07,1.48-11.1,2.38-13.96-.16-.07,2.3-6.11.76-4.71h0Zm-8.27,20.35c.81.06,3.9,1.07,3.86-.28,0-1.14-1.69-.58-2.33-.59-.45.02-2.59.24-1.54.89v-.02Zm8.35-7.51c19.86.56,44.95,1.23,64.89,1.5,5.41-2.75-23.32-1.39-25.26-2.22-12.53.06-28.88-2.19-39.62.71h-.01Zm27.14-11.12c-1.92,12.36,3.51,11.14.6,0-.1-.26-.54-.33-.6,0h0Zm4.73,5.91c.25,1.55,8.5.23,10.14.5,1.38,0,1.38-2.15,0-2.14l-4.88.09c-1.3.33-5.24-.37-5.26,1.54h0Z"/>
  <path d="m138.5,353.78c-.9-1.44-2.84-.31-3.12,1.04-1.23,3.15,3.49,3.88,3.71.23.1-1.92-2.4-2.96-3.59-1.39-3.2,3.45,3.18,6.26,3.67,1.69-1.03-6.48-8.46.82-2.79,2.87,6.01,0,2-9.8-1.74-3.91-2,4.49,5.76,4.47,4.38-.01-.85-2.91-4.79-1.39-4.51,1.28-.35,2.48,3.32,2.79,2.18.18l.11.26c-.07-.17-.11-.34-.14-.52l.04.29c-.02-.18-.02-.36,0-.54l-.04.29c.03-.18.07-.35.14-.52l-.11.26c.06-.15.14-.28.24-.41l-.17.22c.09-.11.18-.2.29-.28l-.22.17c.1-.07.19-.13.3-.18l-.26.11c.09-.04.18-.06.28-.08l-.29.04h.24l-.29-.04c.08.01.16.03.23.07l-.27-.11c.06.03.11.06.17.1l-.22-.17c.08.06.15.13.21.21l-.17-.23c.07.09.12.19.17.3l-.11-.27c.05.13.08.25.11.39l-.04-.3c.02.16.02.32,0,.48l.04-.3c-.02.16-.06.32-.12.47l.11-.27c-.06.13-.13.26-.21.37l.18-.23c-.08.1-.17.19-.27.27l.23-.18c-.09.06-.18.11-.27.16l.27-.11c-.09.04-.19.06-.29.08l.3-.04c-.13.02-.26.02-.39,0l.3.04c-.11-.02-.22-.05-.33-.09l.27.11c-.09-.04-.17-.09-.26-.15l.23.18c-.08-.06-.15-.13-.21-.21l.18.23c-.04-.06-.08-.12-.11-.19l.11.27c-.04-.1-.07-.19-.08-.29l.04.3c0-.12,0-.24,0-.35l-.04.3c.02-.16.07-.31.13-.45l-.11.27c.08-.18.18-.35.31-.51l-.18.23c.14-.17.29-.32.46-.46l-.23.18c.12-.09.24-.16.38-.22l-.27.11c.1-.04.2-.07.31-.09l-.3.04c.11-.01.21-.02.32,0l-.3-.04c.08.01.15.03.23.06l-.27-.11c.1.04.2.1.29.17l-.23-.18c.09.07.16.15.23.24l-.18-.23c.07.09.12.19.17.29l-.11-.27c.05.12.09.24.11.37l-.04-.3c.02.16.02.32,0,.48l.04-.3c-.03.22-.09.44-.18.64l.11-.27c-.1.25-.24.49-.41.7l.18-.23c-.09.11-.18.21-.29.31l.23-.18c-.08.06-.17.12-.27.16l.27-.11c-.08.03-.16.05-.25.07l.3-.04c-.1.01-.21.01-.31,0l.3.04c-.12-.02-.24-.05-.35-.1l.27.11c-.09-.05-.18-.1-.27-.16l.23.18c-.1-.08-.18-.17-.26-.27l.18.23c-.09-.12-.16-.24-.22-.37l.11.27c-.07-.17-.12-.34-.15-.52l.04.29c-.02-.18-.03-.36,0-.55l-.04.29c.02-.16.06-.32.12-.47l-.11.26c.05-.12.11-.23.19-.33l-.17.22c.08-.09.16-.18.25-.26l-.22.17c.1-.07.2-.13.31-.18l-.25.11c.11-.05.22-.08.34-.1l-.28.04c.12-.02.23-.02.35,0l-.28-.04c.1.02.19.04.28.08l-.25-.11c.09.04.17.09.25.15l-.21-.17c.09.07.17.15.24.24l-.17-.21c.09.12.16.25.22.38l-.11-.25c.05.12.08.24.1.36l-.04-.28c.02.14.02.27,0,.41l.04-.28c-.02.15-.06.3-.11.44l.11-.25c-.01.05-.25.45-.12.24.11-.15.01-.02-.02.01l-.08.08c-.12.12.22-.14.07-.05l-.23.13.25-.1c-.08.03-.16.05-.25.07l.28-.04c-.1.01-.2.01-.3,0l.27.04c-.12-.02-.23-.04-.33-.09l.25.1c-.06,0-.42-.26-.19-.1.15.11.03.02,0,0-.04-.04-.18-.21-.06-.05.15.21-.05-.07-.06-.11l.1.24c-.03-.08-.05-.16-.07-.24l.04.27v-.25l-.04.27c0-.1.14-.5.04-.22.09-.18.22-.44.35-.58-.13.15-.07.1.03-.02.11-.12.18-.15,0-.03.07-.08.36-.16.01-.04.08-.02.15-.05.24-.06l-.27.04h.19l-.27-.04.14.03c.17.03-.2-.12-.07-.03l.08.05-.13-.1.12.12c.07.07-.15-.22-.04-.05.03.04.05.08.07.13.05.09-.09-.26-.03-.06.02.05.03.11.04.17l-.04-.27c0,.13,0,.25,0,.38l.04-.27c-.01.1-.05.21-.08.31l.04-.09c-.06.11-.15.22-.2.33.36-.4-.46.44-.07.08-.08.06-.26.15,0,.03l-.11.03.27-.04h-.15l.27.04c-.07.02-.39-.18-.04.01-.12-.07.06.07.08.07-.03-.01-.06-.06-.09-.09-.07-.06.12.2.05.05-.06-.12.02.07.03.09-.1-.45-.07-.55.11-1.22,0,0-.07.14,0,.04.03-.06.13-.23.06-.11,0,0,.07-.07.07-.08.09-.1-.08.06-.02.02s-.13.03-.02.01c.11,0,.14-.06.05-.02,0,0,.11,0,.11,0,0,.01-.15-.04-.05,0,.04.01.11.05.04,0-.1-.07.02.03.03.02s-.13-.07-.04-.03c.13.53,1.57.3,1.1-.64l-.09.03Zm-8.95-5.4c6.11.62,15.44-.01,21.68.13,2.23-.38,27.5,1.15,21.66-2.79-12.52,1.36-25.13.42-37.68,1.07-.97.1-6.74.57-5.66,1.58h0Zm37.42,1.16c.64,4.68,1.29,9.45.49,14.15-.05,1.09-2.64,7.62.27,5.14.48-6.22,3.29-13.77-.22-19.53-.19-.31-.59-.09-.54.23h0Zm5.76-.6c.85,6.25,1.54,13.49-1.2,19.4,2.34,6.62,5.96-23.61,1.2-19.39h0Z"/>
  <path d="m167.06,369.33c.83.08,2.19.31,2.91.32,2.02.86,2.16-2.27.16-1.32-.11.1-.97.26-1.24.31-.46.22-2.67-.18-1.83.69Zm8.72-6.26c36.08-1.01,24.86-5.64,0,0h0Zm-48.24.28c-1.24,13.69-.02,34.84-.61,48.81,3.64,7.27,1.47-25.29,2.07-24.6-.56-3.17,1.3-24.83-1.47-24.21h.01Z"/>
  <path d="m142.02,363.98c-1.66,11.68,5.9,48.7-13.08,47.51-1.46-.42-1.89,1.93-.29,2.12,17.83.16,14.88-23.52,15.62-35.82-.39-2.16.59-15.31-2.25-13.81h0Zm56.47-1.36c23.91,77.62,43.55,158.77,25.86,239.92,0,0-.88,4.36-.88,4.36-.26,1.26,1.67,1.79,1.93.53,13.23-61.23,8.63-125.02-8.39-185.03-3.68-13.37-11.43-40.29-15.46-53.56-.86-1.99-2.12-7.99-3.04-6.23h-.02Zm-144.11,244.3c-12.67-31.24-20.66-64.42-23.19-98.05-.1-1.15-1.88-1.18-1.81,0,2.3,32.93,10.12,70.41,25,98.04h0Zm45.51-1.45c16.85-57.93,28.61-118.68,26.99-179.21-.04-1.47-2.34-1.47-2.28,0,.96,24.19-.05,48.53-3.7,72.48-5.02,34.01-14.02,74.86-20.99,106.72h-.02Z"/>
  <path d="m170.88,614.32c-24.88-52.94-28.3-116.24-41.98-172.61,0,0-1.28-6-1.28-6-.27-1.26-2.2-.73-1.93.53,4.03,18.92,11.99,57.98,15.42,76.77,5.37,33.8,13.04,73.11,29.77,101.31h0ZM38.21,285.68c-10.52,1.63-20.5,8.22-27.06,16.52-1.72,2.46-5.06,10.51.85,9.95,10.92-3.64,9.5-12.86,27.91-15.68.95-.21.55-1.66-.4-1.46-9.37,1.39-17.44,6.14-23.36,13.44-6.71,5.98-8.35.13-4.1-5.28,4.77-6.1,11.45-10.63,18.5-13.74,1.18-.94,8.74-2.48,7.65-3.75h0Z"/>
  <path d="m30.54,299.13c-6.79.47-15.87,22.39-6.05,21.71,6.56-3.92,5.32-14.12,15.5-13.53,4.15-3.75-7.46-1.01-8.38.78-3.92,2.78-3.4,10.14-8.3,11.33-3.95-2.83-.05-9.37.97-13.11,1.24-2.87,3.78-5.32,6.56-6.67.35-.17.04-.67-.3-.51h0Z"/>
  <path d="m40.69,306.38c-20.26,14.9,2.39,29.73,1.87,17.09-.64-1.38-1.81-2.64-1.54-4.27.3-1.83,1.76-3.15,3.13-4.25.92-.73-.38-2.02-1.29-1.29-8.02,6.24.93,9.47-1.86,12.3-7.11,2.29-8.68-7.87-5.33-12.31.06-1.76,6.6-7.56,5.01-7.26h.01Zm-2.74-21.24c-11.62-1.83-20.94,7.46-32.07,7.45-19.53-5.22,44.7-21.93,48.82-20.74,9.57-.32,19.22.29,28.78.88,6.39-3.68-25.29-2.56-27.39-2.86-7.66-.52-14.56,2.13-21.54,4.8-11.39,3.25-24.9,5.21-34,13.17-2.16,3.7,2.47,6.62,5.66,6.64,6.31.11,11.71-3.48,17.42-5.58,4.61-1.55,9.6-2.33,14.39-3.11.39-.06.27-.64-.09-.66h.02Zm9.16,30.1c11.66,4.3,23.64-2.93,34.04-7.44,18.26-4.06,37.53-.03,55.87-4.95,1.24-.25.7-2.1-.52-1.88-17.41,4.09-35.27,1.76-52.77,4.03-9.5,2.38-17.4,9.4-27.61,9.31-2.23.59-8.29-1.01-9.02.94h0Zm190.88-63.02c8.51,20.81,7.55,35.29-8.55,51.78-16.49,12.36-67.42-3.03-88.68-4.61-1.36-.23-1.94,1.87-.57,2.08,22.25,1.63,71.35,16.54,89.12,4.71,9.73-10.17,19.07-23.06,15.35-37.9-.1-2.53-4.17-18.64-6.67-16.08h0v.02Zm-151.03,19.95c23.3-8.32,48.6-1.69,72.69-4.05,16.82-1.09,33.67-3.19,49.98,1.86.9.28,1.26-1.1.39-1.4-23.5-7.88-48.25-.78-72.38-1.97-13.5.67-41.72-3.91-50.68,5.56h0Zm109.21-15.05c-.13.89-.21,2.1-.37,3,0,0-.49,3.02-.49,3.02-.34,1.24,1.59,1.78,1.93.53.23-1.24,1.52-8.87-1.06-6.56h0Z"/>
  <path d="m20.45,269.69c-1.46,1.84,2.68,12.98,3.57,7.4-1.89-1.01-1.83-9.72-3.58-7.4h0Zm203.85,40.67c4.08,2.28,4.11,7.01-.28,8.94-2.14,2.55,2.44,5.37-2.29,9.35-8.16,5.9-4,13.31-19.28,12.16-2.23.66-21.05-7.55-16.78-2.19,12.95,3.67,29.13,9.84,35.01-7.1,2.66-1.39,5.06-3.67,5.29-6.87.51-1.4-1.11-3.08-.18-4.16,2.57-1.25,4.23-4.22,3.54-7.09-.49-2.05-2.26-4.29-4.47-4.4-.65-.03-1.11.93-.56,1.36h0Zm-178.69,10.62c19.98,8.11,41.91,2.71,62.75,2.67,9.42-.05,18.85.83,28.26,1.2,18-2.09,28.5,11.31,45.95,12.28,1.01.12,1-1.46,0-1.58-9.31-.96-18.21-4.25-25.96-9.45-13.67-5.23-28.97-2.26-43.32-4.17-22.12.13-47.45,3.65-67.7-.96h.02Zm47.5-50.54c-2.2,10.75-1.29,22.23.87,32.91.1.44.77.25.68-.19-3.26-10.5-.82-23.75-1.55-32.72h0Zm9.87-2.55c-2.57,2.22-1.65,43.8,2.4,37.34-4.15-11.72-1.85-26.83-2.4-37.34h0Zm9.06-.52c-4.41,9.86-1.42,25.38,1.14,35.8.34,1.24,2.27.71,1.93-.53-1.71-6.17-2.61-12.57-2.84-18.96-.72-3.57,1.52-14.51-.23-16.31h0Z"/>
  <path d="m93.35,274.08c.2-.55,7.36-5.06,6.06-5.9-.69-1.2-5.94,5.33-6.48,5.48-.28.28.13.65.42.42h0Z"/>
  <path d="m93.54,273.81c.67.23,9.53,6.52,7.67,3.03-.51-.09-8.77-4.9-7.67-3.04h0Z"/>
  <path d="m100.81,278.32c-1.86,1.02-5.58,3.14-7.41,4.23-1.29,2.66,3.76-1.26,4.14-1.38-.01-.16,5.23-2.91,3.27-2.86h0Zm-7.7,6.08c1.9,1.1,5.7,3.32,7.59,4.44.83.45,1.57-.84.73-1.25l-4.01-1.84c-.13.1-5.34-2.97-4.3-1.34h-.01Zm8.17,4.65c-2.06,1.17-6.22,3.49-8.3,4.63-.66.33-.04,1.4.58.98l4.05-2.49c.05-.21,6.16-3.09,3.68-3.12h-.01Zm-7.66,6.75c2.05,1.37,5.43,2.64,7.7,3.68,1.09.57,1.84-1.17.65-1.54-1.19-.18-8.63-3.86-8.35-2.14h0Z"/>
  <path d="m101.69,299.55c-1.42,1.19-4.3,3.57-5.75,4.73-.64.59.35,1.59.96.96,0,0,2.66-2.58,2.66-2.58.08-.25,4.4-3.56,2.13-3.11h0Zm-37.2-35.01c.34,1.07-.31,5.67,1.02,5.74,1.07-.1-.01-2.72.07-3.28-.27-.47-.34-3.65-1.1-2.45h.01Zm35.43-122.71c-28.26-7.55-33.74-31.78-42.99-55.67-.52-1.31-2.67-.74-2.14.59,6.09,16.14,12.79,39.45,28.06,49.46,1.31,2.07,18.47,9.66,17.08,5.62h-.01Zm2.69.69c13.22-2.01,24.72-10.46,31.9-21.58,4.51-7.52,2.86-16.57,4.56-24.87.16-1.2-1.73-1.19-1.89,0-1.62,7.37-.12,15.43-3.42,22.33-6.07,12.06-20.59,20.36-31.14,24.11h-.01Zm-61.39,436.47c-3.02,39.98,6.77,80.77,24.32,116.63.57,1.15,2.29.14,1.73-1.01-5.98-12.14-10.92-24.81-14.79-37.78-6.29-21-9.59-42.87-9.84-64.79-.43-2.03,1.39-15.04-1.42-13.05h0Zm78.45,106.68c6.75-37.31,2.05-76.61-10.62-112.19-.52-1.41-2.78-.81-2.28.63,5.32,15.07,9.19,30.56,11.53,46.37,4.06,21.13,1.24,45.46,1.36,65.2h.01Zm-54.24,11.09c10.4,4.41,33.53-1.4,44.93-3.89,1.87.2,16.31-6.04,9.54-6.23-9.37,7.26-43.68,11.45-54.47,10.12h0Zm2.99,12.93c17.85,2.85,36.29-1.66,52.71-8.4.85-.38.11-1.61-.73-1.24-16.07,6.87-36.03,10.73-52,9.63h.02Zm-3.73-10.6c-.04,2.6.17,5.17.53,7.74.27,1.21,2.24.69,1.87-.51-.8-.97-1.15-9.07-2.4-7.22h0Zm57.28-10.54c-.61,2.67-1.36,6.39-1.33,9.12-.04,1.14,1.8,1.14,1.77,0v-4.54c-.17-.09.72-6.01-.42-4.59h-.02Zm-37.43,34.97c3.7-4.95,10.91-5.65,14.7-.39.64.72,1.79-.21,1.31-1.01-3.3-5.99-12.94-6.08-16.33-.17-.15.4-.49,2.19.33,1.57h0Zm16.58,3.3c2.32.29,14.84-14.53,10.54-13.37-1.69,3.77-4.9,7.01-7.78,9.91-.33.5-4.34,3.49-2.75,3.47h0Z"/>
  <path d="m112.08,714.02c1.74,4.91,4.23,9.55,5.72,14.56,1.2,1.86,2.03,17.29,3.84,15.36-1.98-10.28-2.57-21.46-8.52-30.37-.32-.54-1.26-.19-1.04.44h0Zm-27.26,11.56c-2.32-.44-6.14-8.12-7.68-5.61-2.27,7.93-4.38,16.26-3.95,24.57.8,8.34,1.89,16.78-.63,24.99,4.12,7.15,3.6-22.2,2.56-24.03-.64-8.62,1.67-16.8,3.8-25.05l-1.55.41c.37,1.22,7.65,6.66,7.44,4.7h0v.02Zm-12.96,46.58c-5.99,15.65-15.61,33.96-9.38,50.75,6.57,14.44,30.77,13.38,38.77.81,5.85-10.18,4.87-22.55,7.64-33.7,3.03-13.16,5.37-26.72,11.38-38.91.24-.49-.52-.92-.73-.43-7.05,15.19-12.12,31.48-14.27,48.1-1.7,9.98-1.6,22.83-11.01,29.1-8.43,4.35-21.9,5.19-28.28-3.17-9.81-16.52,3.16-35.44,7.15-52.03.23-.75-.92-1.26-1.29-.54h0l.02.02Zm49.74-17.74c-6.77,12.25-8.05,33.71-11.51,47.26.05,1.83-4.61,18.09-1.02,14.79,3.54-15.95,4.89-33.12,9.33-48.82-.03-1.7,5.71-14.89,3.2-13.25h0v.02Zm.99,4.79c-5.89,17.46-6.25,38.35-10.93,56.21-1.57,12.53-10.96,20.11-23.38,20.35-1.26.14-1.28,2.14,0,2,21.81-.27,25.7-18.56,28.2-36.4,1.09-7.02,3.85-24.14,5.1-30.95.01-1.75,3.12-12.15,1.02-11.21h-.01Z"/>
  <path d="m81.26,835.29l.31.27-.05-.41h0c-.24,2.05,7.44,3.61,7.31,1.04-.13-.47-.62-.74-1.09-.62-2.07.87-4.28-.69-6.16-.5l.41-.05c-.3-.32-1.07-.3-.72.26h-.01Zm33.14-110.62c-6.46,4.92-4.08,18.32,5.03,17.76,1.24-.12,1.23-2.08,0-1.94-7.66.64-9.38-11.03-4.61-15.4.27-.27-.14-.68-.42-.42h0Zm-35.33-11.57c-.46.21-.41.99-.44,1.4-.08.84-.16,3.18-.19,4.06-.03,1.22,1.94,1.23,1.9,0,0,0-.22-2.94-.22-2.94-.19-.67.15-2.84-1.04-2.52h0Zm32.03-8.11c.22.64-1.53,7.1.08,6.87,1.47.21.47-6.13.76-6.76,0-.48-.73-.58-.84-.11h0Zm-46,100.46c10.57,1.21,20.78,4.87,29.33,11.26,8.85-1.24-30.47-14.89-29.33-11.27h0Zm19.76-77.05c3.06,23.06-2.7,44.97-11.82,66.04-.49,1.89-6.22,12-2.02,8.76,8.37-22.35,20.98-52.31,13.83-74.8h.01Zm16.63-.68c-2.64,27.57-7.14,55.05-16.28,81.29-.4,1.21,1.5,1.72,1.9.52,7.56-25.8,15.89-56.44,14.38-81.8h0Zm-9.81,78.28c.13-.13.13-.31.04-.47-1.87-1.54-3.73,2.4-.97,2.95,3.61-.35.68-4.87.9-2.35,0,.02.06.14.04.07.02.04.1.34.07.25v.3s-.05.25-.15.34c0,.01-.13.14-.21.21.08-.07-.18.12-.23.13.18-.05-.19.07-.22.06h.03s-.3,0-.16,0c-.03,0-.07-.04,0,0-.01,0-.06-.03-.07-.04l.04.03c-.14-.13-.29-.26-.41-.41.08.15-.08-.14-.08-.15,0,0,.04.12,0,.02,0-.04-.07-.16-.02-.05v-.14s-.02.11,0,0c.04-.15,0-.05.08-.18,0-.01.05-.08.01-.03-.09.09.27-.27.14-.14.32-.23.71-.37,1.01-.48-.01.01-.14.02-.13.01.09.05.21.14.3.05h0v.02Zm4.39-13.01c-1.04-1.76-3.79.8-2.15,2.07.58.72,1.7-.24.66-.57.15.02-.07-.03-.07-.03.04.02.07.04.01,0,0,.03-.17-.17-.1-.09,0,0-.03-.05-.03-.04l-.05-.08s-.07-.1-.02-.04c.03.06,0-.02,0-.04,0-.06-.02-.12-.04-.17v.04-.2c-.01.09,0,.03.01-.01,0-.05.01-.08.04-.12-.05.12.11-.2.13-.2-.08.09.22-.22.15-.15.12-.09.33-.23.42-.26.18-.06.39-.16.58-.13.18,0,.45.43.5.03h-.03Z"/>
  <path d="m96.42,794.52c.58-.64-.49-2.38-.33-.85,0-.03,0,.24,0,.29.02-.02-.03.23-.08.29-.16.18.17.59.39.27h.02Zm-1.7.23c-.6.74,1.38.6,1.38.08-.24-.37-.86.18-1.18.08t0,0s0,.06-.03.07c.17-.1,0-.34-.15-.25h0l-.02.02Zm4.31-14.29c-2.21-1.16-3.37,2.61-.88,2.86,1.69.47,2.75-2.99.91-2.94-.29.19-.3.55-.1.81.02.04.03.11,0-.02.15.32.05.69.03.75-.13.22-.06.17-.21.31-.03.03-.09.06.02-.01-.23.15-.17.14-.46.2.24-.04-.18.02-.22,0h.02c-.08,0-.14-.04-.21-.07.17.09-.09-.05-.13-.08l.05.04c-.22-.2-.15-.13-.23-.3,0,0-.03-.14-.03-.14-.02-.09,0,.11,0,.02-.01-.03.03-.41,0-.19-.03-.04.12-.37.05-.2.03-.07.07-.13.12-.2-.13.18.22-.25.09-.09.05-.04.13-.06.18-.1-.06.01.39-.12.5-.11.15.05.99-.12.56-.5h0l-.06-.04Zm2.27-12.01c-1.87-.89-3.28,3.78-.67,3.59,1.4-.08,2.6-2.14,1.31-3.14-.48-.28-.91.45-.44.74-.06-.05.03.04.05.06-.06-.07.01.03.03.06-.05-.08,0,.03.02.06,0,.02,0,.05.01.07-.02-.15,0,.16,0,.18,0-.07-.06.25-.1.3-.06.13-.2.35-.39.5.04-.03-.02.02-.03.02-.05.05-.32.21-.28.17-.17.07-.24.08-.42.07.11.02-.21-.06-.1-.03-.05-.02-.09-.07-.14-.08-.33-.31.13-1.38.38-1.72.02-.02.22-.23.16-.17l.08-.06c-.05.03.14-.09.09-.06.43.06,1.15-.77.46-.56h-.02Zm1.61-11.93c-2.2-.95-2.89,2.86-.68,3.18,3.38.4,1.04-4.36.97-1.88-.08-.1.09.16.04.08-.02-.1.07.33.04.15v.21c.02-.1-.02.02-.02.04-.03.09.03-.05,0,0-.03.07-.08.12-.11.18-.03.05.06-.06.01-.02-.03.05-.19.14-.07.07-.01.02-.39.23-.21.14-.33.07-.28.09-.64-.02.01.02.09.04.03,0-.18-.11-.15-.06-.3-.23.08.13-.11-.19-.13-.25.08.21-.05-.15-.05-.19-.02-.07,0,.09,0,.03,0-.03-.01-.41,0-.24.01-.09.04-.18.07-.26-.05.08-.01.03,0,.01.1-.18.09-.16.15-.23.04-.05.14-.15.19-.2-.01-.13,1.07-.34.71-.61h0v.04Zm2.65-27.24c-.43-.96-2.01-.64-2.47.17-.95,1.47,1.23,3.24,2.53,2.15,2.2-2.14-1.91-4.2-.66-2,.05.06.11.09.15.16-.11-.15.04.07.07.12.04.08-.03-.09-.02-.04.1.29.06.23.07.58.03-.2-.04.16-.07.22.04-.14.02-.06,0-.02-.16.24-.1.18-.35.33.05-.02.1-.04,0-.01-.23.03-.22.05-.56-.06l.05.02s-.03-.02-.05-.02c-.2-.11-.22-.12-.39-.31.04.06.04.05,0-.01-.04-.04-.07-.14-.1-.18.02.05.03.06,0,0,0-.04-.03-.1-.04-.14-.01-.04,0,.04,0,.05,0-.04,0-.32,0-.16-.03-.15.16-.37.11-.32.29-.32.56-.47,1.03-.45.04-.08.71.35.69-.1h0v.02Zm-.67,12.5c-1.6-.45-2.46,2.1-.76,2.5,1.45.38,2.13-2.03.69-2.4-.66-.02-.45.89-.27.89.02.03.05.05.07.08.06.06-.05-.08-.02-.03l.06.09s.04.09,0,0,0,.02,0,.03c0,.03.02.06.02.09.02.09,0-.1,0-.04,0,.04,0,.13,0,.17,0,.06.03-.13,0-.04,0,.02,0,.05-.02.07,0,.02-.01.03-.01.05-.02.09.05-.1,0-.02-.02.03-.03.06-.05.08-.04.07.06-.06.02-.02-.02.02-.05.05-.07.07-.06.06.08-.05.02-.01-.19.11-.07.06-.27.12-.03,0-.02,0,.05,0-.02,0-.26,0-.13,0-.04.02-.26-.06-.14-.02-.13-.07-.08-.03-.2-.15,0,0-.02-.02.01.02-.02,0-.14-.27-.09-.15-.01,0-.07-.27-.05-.17,0-.01,0-.29,0-.19.02-.15.05-.23.14-.35.1-.46,1.39-.22.97-.67h.03Zm-22.69-2.02c-2.14-1.22-2.71,3.61-.13,2.98,1.7-.05,1.6-3.64-.08-3.04-.26.28-.13.67.16.87-.14-.16.1.13.1.18.05.09-.04-.1,0-.02l.08.29c.02.1,0-.1,0-.04,0,.08,0,.23,0,.31.02-.23-.02.13-.05.16-.02.06.06-.12.01-.03,0,.06-.19.26-.07.13-.02.04-.23.19-.05.08-.3.17-.17.1-.61.12.29.06-.34-.12-.09-.03-.05-.02-.14-.07-.18-.1.16.11-.04-.03-.06-.07-.06-.06.05.08.02.03-.17-.22-.12-.69.06-1.19,0-.07.19-.36.39-.39.21-.04.72.12.51-.28h0v.04Z"/>
  <path d="m82.14,728.96c-4.61-.03.47,5.92,1.58,1.29,0-2.94-3.43-.82-1.13-.62l-.06.03c.05-.01.04-.01-.04,0h.06s-.12-.02-.02,0c.06.02-.1-.06-.01,0l.06.04-.05-.03s.09.08.1.11c-.09-.13.05.06.05.1.04.06-.03-.11,0,0,.02.03.05.31.04.12,0,.05,0,.41,0,.22-.02.1-.04.22-.09.31.07-.16-.08.18-.12.19-.06.09.06-.05,0,0-.03.04-.24.24-.15.15,0,.03-.28.15-.13.1-.23.08-.18.06-.4.07.23.04-.25-.08-.25-.08-.1-.03.06.04,0,0-.22-.14-.21-.1-.38-.29-.05-.06,0,0,0,0-.03-.02-.13-.26-.09-.15-.03-.07-.04-.14-.06-.21.02.1,0,0,0-.02,0-.14,0-.15.06-.32.07-.15.18-.34.33-.47.11-.25,1.07-.18.66-.54h.04Zm-.29,24.37c-1.68-2.22-3.48,3.94-.02,2.32,1.93-1.28-.91-4.62-.49-2.01.04.09.18.63.14.45,0,.04,0,.58,0,.32-.01.07-.05.17-.05.24,0,0-.02.03,0-.04-.04.06-.05.12-.1.18.11-.19,0,.02-.05.04-.06.06.11-.08.04-.03-.05.03-.09.05-.14.08-.02,0-.04.02-.05.02.32-.11-.32.07-.05.02h-.24s-.06-.02-.1-.03c.04.03.1.05,0,0-.13-.09.07.07-.02-.01-.01-.02-.03-.04-.04-.04.08.06.06.08.03.03,0-.02-.02-.03-.03-.05-.04-.07.04.11.02.04,0,0-.03-.14-.01-.05-.02-.05,0-.12,0-.17-.02,0,.16-.71.16-.61.04-.12.11-.23.18-.33-.07.09.08-.1.11-.11-.11.06.06-.02.08-.04.07-.04-.07.02,0,0,.04-.02.12-.03.16-.05.03,0,.02,0,.1,0,.14.04.27,0,.36-.12h0l-.06.06s.07-.06.08-.1h-.01Zm-.97,11.29c-.23-.51-.96-.48-1.4-.29-2.3,1.27.96,4.12,2.07,1.79.47-.73-.09-2.75-1.15-2.15-.34.26.02.8.12.84,0,0,.04.05.04.06.02.04.1.16.12.21-.07-.19.07.21.07.26v-.03s0,.37,0,.17c0,.04-.1.33-.04.16-.12.22-.06.16-.23.32,0,0-.03.03.02-.02-.05.06-.13.07-.19.12.15-.08-.08.05-.13.03.17,0-.05,0-.09,0-.1,0,.08.02.02,0-.04.01-.28-.11-.13-.03-.02,0-.23-.14-.13-.07-.03,0-.22-.19-.21-.21.08.12-.06-.13-.09-.16l.02.05s-.06-.27-.04-.15v-.13h0c0-.06,0-.05,0,0,0-.02.04-.16.04-.16-.05.12.06-.11.09-.14-.07.05-.01.02,0,0,.11-.11.12-.12.29-.19.06-.01.29-.09.46-.06-.09,0,.11,0,.12,0-.11.02.5.11.36-.2h0v-.02Zm-3.74,11.5c.06.05.1.11.15.16,0-.03.12.24.1.17.08.22.07.35.06.59.02-.12-.03.16-.06.21-.01.04.02-.04.02-.04,0,.05-.16.28-.08.16,0,0-.01.02-.02.02-.33.26-.54.22-1-.06.16.13-.11-.08-.12-.13l.04.05s-.07-.11-.1-.16c-.04-.07.04.11,0,.02-.01-.05-.02-.09-.04-.14-.02-.07,0,.13,0,.03.02-.32,0-.28.29-.56l-.04.03s.16-.11.19-.12c-.1.04.17-.04.21-.05.07-.02-.13,0-.03,0,.04,0,.13,0,.17,0-.19-.02.06,0,.11.04.18.27,1.21-.42.47-.88-1.29-.69-2.95.93-2.11,2.2,1.38,2.2,4.27-.87,1.91-1.97-.21-.07-.34.24-.15.35h0l.03.08Zm-4.23,11.47c-4.07-.91-1.01,5.49.9,1.69.3-.8-.73-2.42-1.59-1.89-.47.51.25.86.54,1.2l-.04-.05s.19.29.12.17c.07.19.03.08.05.28.01-.19-.02.07-.04.12.06-.14-.03.04-.06.09-.05.08.08-.09,0,0-.02.05-.23.19-.08.1-.21.12-.11.08-.33.15h.05-.15c.18,0,0,.02-.03-.02-.06-.02-.08-.06.01.01-.09-.05-.16-.08-.25-.14l.05.04c-.06-.05-.12-.13-.18-.18l.02.03s-.14-.28-.09-.15c-.07-.22-.05-.14-.06-.36,0-.08,0,.03,0,.03,0-.04.08-.34.05-.2,0-.05.17-.28.11-.19.05-.05.11-.11.17-.15-.05.03.17-.11.22-.12-.09.04.14-.06.08-.03,0,0,.08-.04.03-.02.1-.03.23-.1.34-.12.15.11.47-.08.2-.26h0l-.04-.03Zm-4.97,11.31c-3.72.95.04,5.74,1.32,1.62.69-1.76-1.78-3.41-.95-.84.02.21-.02.72-.1.84-.03.1-.24.41-.19.35-.07.09-.16.17-.25.25.14-.07-.19.08-.11.05.05-.02-.02,0-.02,0-.12.05.09,0-.06,0-.01,0-.06-.01-.07-.02.15.08-.12-.09.01,0-.11-.11-.07-.07-.15-.24v.03c-.02-.09-.04-.19-.06-.28.03.13-.01-.23,0-.27-.02-.1.19-.56.29-.64.21-.25,1.03-.69.35-.89h0v.05Z"/>
  <path d="m67.85,800.4c6.68,1.69,17.04,3.04,22.68,7.19,8.09-.86-24.23-9.2-22.68-7.2h0Zm4.73-1.4c7.34-1.34,15.01-3.21,22.42-4.26,5.75-4.97-24.5,2.82-22.42,4.26Zm3.76-9.95c7.18-2.4,14.72-5.07,22.18-6.53,4.9-5.44-24.8,4.85-22.19,6.54h.01Zm4.4-11.94c6.32-2.79,13.01-4.96,19.8-6.16,5.35-5.11-22.66,5.6-19.8,6.15h0Zm3.05-11.35c5.73-3.69,12.27-6.16,19.03-7.02,3.41-4.25-21.82,5.78-19.03,7.01h0Zm2.37-12.71c5.58-3.78,11.73-6.81,18.03-9.23,3.94-5.75-20.46,8.26-18.03,9.23h0Zm.45-12.73c5.13-3.33,10.43-6.5,16.14-8.74,3.16-4.64-18.77,7.9-16.14,8.75h0Z"/>
  <path d="m88.07,801.97c-2.38-1.33-5.44-4.36-7.56-6.16-1.42-.59-9.25-11.3-8.3-6.03,2.84,2.79,12.94,14.58,15.87,12.2h-.01Zm3.12-11.72c-4.76-2.81-9.37-9.55-13.16-13.55-.8-.76-2.02.47-1.2,1.2,3.92,3.03,10.14,13.18,14.38,12.34h-.02Zm2.63-11.95c-5.25-2.95-9.02-7.86-12.76-12.54-5.79-1.72,12.56,15.97,12.77,12.55h-.01Zm2.18-12.33c-5.4-1.94-10.15-6.82-14.36-10.57-5.5-.61,15.35,13.91,14.35,10.57h.01Zm2.84-12.26c-5.84-3.77-11.65-7.59-16.69-12.44-4.23-.17,16.79,15.28,16.69,12.43h0Zm.8-11.91c-5.87-3.78-12.54-7.3-17.46-12.34-7.56-.55,17.42,15.15,17.46,12.34h0Z"/>
  <path d="m82.85,730.57c1.83-.39,26.59,2.73,20.9-1.05-6.32.72-16.35-.93-20.9,1.05h0Z"/>
  <path d="m92.8,729.91c-32.8,16.42-6.58,41.39.62,8.22.39-2.14.38-4.27-1.04-6.04-.81-1-2.21.42-1.41,1.41,1.04,1.29.72,3.19.41,4.69-1.33,4.91-2.08,11.17-7.48,13.22-1.54.78-3.41,1.8-4.64.1-3.43-8.24,6.96-17.66,13.7-21.03.35-.14.2-.71-.16-.57h0Z"/>
  <path d="m91.17,730.94c-1.88,27.21,30.75,26.88,12.85,6.9-.78-1.77-15.06-11.06-11.63-5.12,6.11.45,24.41,19.89,9.16,16.76-6.59-2.89-8.39-12.02-9.79-18.46-.04-.3-.51-.44-.58-.08h-.01Z"/>
  <path d="m67.21,762.71c3.54-13.23,11.26-26.59,24.47-31.87,1.29-.52.55-2.35-.75-1.77-12.62,5.5-23.87,21.25-23.73,33.64h.01Z"/>
  <path d="m111.16,762c3.52-12.9-5.32-27.43-17.6-32.08-1.2-.6-2.26,1.21-1.06,1.81,13.66,4.71,17.68,18.54,18.66,30.26h0Zm71.69-39.59c-17.22-39.88-24.48-84.12-19.78-127.37.12-1.07-1.56-1.06-1.67,0-4.44,42.45,2.07,91.07,21.46,127.37h0Zm49.78-11.46c8-43.7,7.97-88.9-.54-132.53-.22-1.06-1.76-.59-1.6.44,2.78,17.69,4.85,35.39,5.69,53.29,1.62,25.9-1.62,54.56-3.56,78.8h0Zm-50.12,15.13c17.91,1.54,35.86-3.92,52.35-10.48,1.31-.51.54-2.4-.75-1.78-12.18,5.76-25.28,9.53-38.71,10.83-2.65.87-12.46-.47-12.9,1.43h0Zm2.46,11.52c3.39,3.82,57.35-9.66,47.4-12.51-5.93,3.56-16.14,5.92-22.69,8.26-7.54,3.09-18.29,2.43-24.7,4.24h0Zm-2.68-10.59c-.59,2.71.02,5.66,1.4,8.06.55.99,2.12.08,1.52-.89-1.6-1.01-1.54-9.22-2.92-7.17h0Z"/>
  <path d="m234.84,716.05c.05,2.07.15,5.32-.04,7.44,3.17,4.96,1.31-10.08.06-7.42h0l-.02-.02Zm-38.81,97.37c1.06-8.12.2-20.61.32-28.92.73-9.1-2.41-17.89-.01-26.67-3.06-5.85-3.33,10.8-2.53,12.42.74,8.01.52,20.04.78,28.21.21,1.96-.31,15.67,1.44,14.96h0Zm1.6-37.08c17.57-2.95,18.08,21.61.83,19.99-1.49-.24-1.8,1.87-.28,2.06,13.67,2.32,21.37-16.59,8.21-22.88-2.22-1-8.35-2.03-8.77.83h0Z"/>
  <path d="m225.39,762.11c-9.97,2.01-20.11.35-28.84-5.07-7.3,1.16,12.19,7.88,14.08,7.69,2.84.67,15.47,1.18,14.75-2.62h0Zm-.05,1.92c2.26,30.52,26.65,54.52,48.55,73.71.74.57,1.57-.62.97-1.25-25.32-22.62-41.36-40.07-49.51-72.46h-.01Zm-2.11-3.57c1.48-7.47,11.5-8.36,13.7-.83,4.23,11.36,4.14,24.1,10.51,34.72,10.26,19.21,31.31,29.67,41.26,49.02,1.49,3.26,1.72,6.67-.99,9.37-.91.91.5,2.32,1.41,1.41,6.08-6.07.41-14.25-3.68-19.61-11.25-14.23-27.2-24.66-36.08-40.85-8.48-10.67-4.57-38.12-18.24-41.43-4.66-.55-9.47,3.11-8.81,8.06.06.48.76.67.91.12h0v.02Z"/>
  <path d="m197.95,812.63c9,10.43,26.16,23.41,36.27,33.09,15.06,15.57,40.85,29.17,56.44,6.49.82-.97-.53-2.37-1.41-1.41-22.04,29.69-51.98-6.01-70.46-21.43-3.3-2.93-11.92-10.45-15.15-13.29-1.27-.81-4.88-4.78-5.68-3.44h0Zm-1.62,3.66c13.81,14.12,35.11,30.33,50.27,43.17,1.19,1.13,8.86,7.21,6.92,2.54-4-2.18-7.39-5.1-10.86-8.01-7.08-5.84-26.17-21.98-33.42-28.12-1.32-.81-13.12-12.35-12.91-9.59h0Zm-1.36,3.85c9.85,13.92,25,22.47,38.16,32.75,13.85,16.05,41.65,25.44,56.03,4.97.55-.77-.73-1.78-1.33-1.02-13.71,19.02-39.51,10.2-52.45-4.96-11.64-9.09-24.61-16.5-34.8-27.38-.03.3-6.2-7-5.62-4.38h0v.02Zm67.94,39.13c5.04-8.12,9.75-17.42,18.44-22.22,1.69-4.73-11.01,8.29-11.9,9.2-1.89,2.08-8.36,11.47-6.55,13.03h0Zm-30.76-63.54c-.63-.83-1.82.19-2.09.9-.61,1.85,2.28,2.64,2.85.83.76-1.73-2.16-2.86-1.09-1,.05.06.09.16.13.23l-.03-.06c.04.08.05.2.08.28v-.04s-.03.31,0,.12c-.07.23-.01.15-.15.34.15-.18-.24.24-.06.07-.05.04-.13.07-.18.11h.03c-.05,0-.27.05-.11.03-.01.01-.28-.02-.15,0,.1.03-.07,0-.08-.02h-.03s-.04-.02.03,0c-.03-.03-.12-.06-.16-.09.15.14-.18-.22-.06-.06-.04-.05-.07-.13-.11-.18.05.14,0-.04,0-.09-.03-.1,0,.09,0,.03,0-.03,0-.19,0-.08,0-.07.02-.15.04-.21l-.02.05s.09-.24.05-.1c.18-.35.31-.55.65-.73.05-.13.57.03.47-.31h0v-.02Zm-5.82-16.3s-.08-.02-.11-.02l.07.04c-2.26-.87-1.98,3.55.29,2.42,2.86-1.9-1.75-4.19-.29-1.89-.08-.03-.07-.05-.02-.01.01,0,.14.16.09.09-.05-.07.03.04.04.06.01.02.08.18.03.06-.01-.13.07.39.05.14-.01.24.03.14-.04.33-.02.05-.03,0,.02-.04,0,.05-.19.26-.07.14,0,0-.03.04-.04.04-.04.05-.08.07-.12.12l.06-.04s-.12.07-.15.09c-.04.04-.13.04-.01.01-.05.01-.11.04-.17.05-.1.03.12,0,0,0-.03,0-.12-.01-.13,0,0,0,.12.03.03,0-.04,0-.15-.06-.04-.01-.02,0-.08-.05-.1-.06.12.1-.01-.02-.03-.05.1.17-.11-.25-.04-.06-.01-.04-.06-.18-.06-.21v.03-.19c-.04.18.1-.35.06-.17,0-.04.17-.28.08-.14.12-.17.21-.19.33-.31,0,0,.22-.14.27-.22l-.1.08c.19.05.32-.23.11-.29h0Zm-2.88-12.33c.15-.74-.98-.61-1.35-.27-1.7,1.52,1.38,3.48,2.12,1.36.58-1.97-2.59-2.12-1.08-.57l-.11-.09c.05.04.1.09.14.14l-.09-.11c.04.05.07.11.1.17l-.06-.13c.03.08.05.15.07.23l-.02-.15v.22l.02-.14c0,.07-.03.13-.05.19l.05-.13c-.02.06-.06.11-.09.16l.08-.11s-.09.1-.15.14l.11-.08c-.06.05-.13.08-.2.11l.13-.05c-.08.03-.16.05-.24.07l.14-.02c-.08.01-.16.01-.25,0l.14.02c-.07-.01-.13-.03-.2-.05l.12.05-.16-.09.1.08c-.06-.04-.1-.09-.15-.15l.08.1-.15-.2.08.1c-.12-.19-.06-.06-.12-.24-.02-.08,0,.11,0,.03,0-.05,0-.11,0-.16v.07s0-.09.02-.12c0-.02.02-.04.02-.06-.03.14,0-.02.03-.04.02-.06.2-.2.3-.24.17-.05.25-.02.46-.06l-.19-.05c-.03.22.29.32.31.07h.04Zm16.68,38.72c.07-.08.07-.15.07-.24l-.03.09s.03-.22.03-.08c-1.57-2.13-3.09,3.16-.26,2.65,1.47-.29,1.77-2.42.45-3.13-.64-.37-1.12.69-.44.94.04.03-.01,0-.03-.02.05.02.24.25.12.11.13.23.13.15.18.4-.03-.02,0-.12,0-.02.02.04-.03.33,0,.15-.03.19-.06.15-.09.23,0,.01-.09.13-.09.14.16-.18-.2.19-.06.07-.02.04-.37.18-.16.1-.19.04-.12.04-.25.04.14.03-.02-.01-.05-.02.14.04-.01,0-.05-.04.11.07,0,0-.02-.05-.07-.08,0,0,0,0,0,0-.04-.06-.04-.05-.09-.16-.06-.1-.12-.32,0,0,0,.13,0,.05.01-.4,0-.4.2-.76,0-.01.03-.03.03-.04-.04.06-.06.07-.03.04.01-.03.21-.2.09-.1.06-.02.12-.09.18-.12-.2.12.18-.1.06-.03.17-.07.09-.03.22-.08.04-.01.07-.03.1-.06-.03.02-.04.03-.02.02l-.14.02h.02s-.05-.02-.08-.04l-.02-.05c-.05.14.15.25.25.14h0l-.02.05Zm9.32,11.18c-3.78-1.49-1.29,5.1,1.01,1.32.55-2.38-3.09-1.52-1.06-.6-.07-.02-.1,0,0,.01.09.02-.1-.06-.02,0,0,0,.03.02.05.03.08.05-.07-.07-.02-.02.04.02.14.19.05.03.02.03.05.1.07.12,0,0-.04-.12-.02-.04.02.04.05.2.02.04-.01.19.01.04-.04.24l.03-.06s-.02.04-.03.05c-.12.19-.1.14-.34.29.09-.02.06-.04-.01,0-.05.02-.25.02-.06.02-.08,0-.19,0-.26,0h.08c-.05,0-.13,0-.17-.03-.02,0-.04-.01-.05-.02l.05.02c-.05-.02-.13-.08-.18-.1.17.18-.19-.23-.02-.02-.04-.05-.07-.13-.1-.19.08.17-.03-.09-.02-.14-.02-.09,0,.11,0,.02v-.13c0-.09-.02.08,0,.03,0-.01.04-.12.03-.13,0,0,.02-.03,0,.03.01-.02.02-.07.05-.09,0-.01.02-.03.03-.04-.12.14.07-.08.11-.09.05-.05-.08.04,0,0,.03-.02.2-.11.1-.07,0-.01.07-.02.08-.03.02-.01.19-.03.07-.02,0-.03.27.02.14,0,.06,0,.12.03.18.02.15.11.53-.18.29-.42h0l-.04-.03Zm8.82,9.67c-1.12-.87-2.67.79-1.98,1.94.58,1.2,2.54,1.22,2.94-.14.82-1.71-2.07-2.83-.94-.83-.1-.22.03.09.03.13,0,.02.02.1,0,0s0-.01,0,0c0,.04,0,.17,0,.22,0,.1.02-.13,0-.04,0,.02,0,.05-.01.07,0,.06-.13.31-.02.11-.03.08-.08.16-.13.23.13-.19-.04.06-.09.07-.07.06.1-.07.03-.02-.03.02-.08.05-.12.07-.09.05.12-.04.02-.01-.05.01-.1.03-.15.04-.1.02.13,0,.03,0-.05,0-.16,0-.21,0,.33.06-.43-.13-.11-.04l-.24-.15c.16.1-.01,0-.04-.04-.04-.02-.13-.19-.04-.04-.04-.06-.09-.13-.11-.2l.02.05c-.04-.08-.05-.14-.06-.23.04.14,0,.05,0,0-.01-.05.03-.19,0-.03.02-.07.03-.15.07-.22-.09.19.07-.11.07-.14,0,0,.04-.03,0,.03.08-.09.16-.17.24-.24-.13.1.11-.07.16-.09.08-.04-.08.03,0,0,.09-.03.36-.08.36-.12.01,0,.03-.01.05-.01.14.07.54-.19.24-.4h0v.03Zm11.41,9.93l-.1-.12.06.11c-.03-.12-.12-.21-.19-.31-.4-.69-1.35.17-1.49.76-.47,1.42,1.67,2.41,2.49,1.19,1.27-2.01-2.3-2.83-.87-1.09-.18-.13.02.02.05.07-.16-.2.04.05.04.1l-.05-.12c.04.08.06.17.07.26l-.02-.13c0,.09,0,.18,0,.27l.02-.13c-.01.08-.03.15-.06.22l.05-.12c0,.05-.2.28-.04.1-.03.03-.08.07-.1.1.19-.17-.05.04-.1.04l.12-.05c-.07.03-.15.05-.23.06l.13-.02c-.09.01-.17,0-.26,0l.13.02c-.09-.01-.18-.04-.27-.07l.12.05s-.16-.08-.21-.11c.19.13-.01,0-.04-.05-.08-.09.06.09.02.02-.03-.05-.06-.09-.08-.14l.05.12c-.03-.07-.05-.14-.06-.22l.02.13c0-.11,0-.22,0-.33l-.02.13c.06-.26.02-.2.16-.42-.19.2.24-.2.06-.06.02,0,.04-.02.05-.04l.11-.06h-.4c.18.07.35.15.54.16l-.13-.03c.22.18.61.05.41-.26h0l.02-.03Z"/>
  <path d="m269.93,837.5c2.72-1.95,6.64-5.14,9.55-6.93,2.01-4.47-4.97.74-6.06,1.68-.87.82-7.26,5.07-3.5,5.25h.01Zm.14-5.11c1.11-3.21,1.92-7,2.22-10.41-1.42-1.98-2.16,4.08-2.43,4.99.02,1.1-1.27,5.66.2,5.43h0Zm-9.88-9.27c.81-2.29,2.48-6.88,3.33-9.16.37-1.03-1.31-1.5-1.64-.45l-1.29,4.68c.15.08-1.79,6.36-.4,4.93h0Zm-8.37-8.52l3.22-9.93c.37-1.12-1.45-1.64-1.78-.49-.29,1.68-3.12,10.6-1.44,10.42h0Zm-9.2-11.15c1.62-2.98,3.17-7.98,4.32-11.21.36-1.13-1.38-1.59-1.76-.49l-1.83,5.77c0,.67-2.41,6.92-.74,5.93h0Zm-7.29-12.27c2.17-2.9,5.37-7.61,7.48-10.6.69-.96-.97-1.96-1.61-.94l-3.35,5.53c-.13.51-4.32,6.86-2.53,6.01h0Zm-6.06-12.87c2.53-5.42,5.69-10.54,8.7-15.71.59-1.01-.99-1.93-1.57-.91-2.97,5.25-5.25,10.8-7.65,16.32-.15.34.35.65.51.3h.01Z"/>
  <path d="m276.23,824.96c-4.11.08-8.54.13-12.54,1.14-3.04,2.72,8.22-.04,9.28.12.13-.14,4.79-.58,3.25-1.25h.01Z"/>
  <path d="m264.18,826.34c-1.83.58-4.65.75-6.57.95-.35.05-.55.5-.46.82.85,1.2,2.85-.35,4.04-.48.56-.3,4.45-.48,2.99-1.29h0Zm3.26-10.24c-3.03.48-6.14-1.19-9.26-.63-1.57-.11-13.64,2.11-8.67,3.96,5.77-2.58,11.99-2.79,18.1-2.76.35-.13.21-.7-.16-.57h0Zm-8.09-8.08c-1.49.74-4.11-.61-5.7-.75-4.76-1.26-10.09-2.6-14.97-1.38-1.04.23-.6,1.84.44,1.6,3.57-.97,7.25-.42,10.82.14,0,0,5.92.78,5.92.78,1.1.2,2.78.88,3.79.12.3-.23,0-.74-.3-.51h0Zm-10.08-10.98c-1.5-.9-22.72-3.32-17.5.44,5.71-.87,11.62-.59,17.33.14.37.08.53-.48.16-.57h0Zm-5.75-11.72c-5.03-.72-11.86-3.31-16.63-5.15-7.13,1.14,17.53,8.46,16.62,5.16h0Zm-3.02-12.19c-3.39-4.04-12.4-3.57-17.14-5.1-2.88,2.07,7.22,2.56,8.56,3.19,1.36.3,4.86.87,6.11,1.38.62-.06,2.82,1.79,2.46.53h0Z"/>
  <path d="m221.58,768.61l8.66-2.99,8.72-2.77c1.08-.36.57-2.1-.47-1.69-4.21,1.81-12.79,5.25-17.08,6.88-.35.13-.2.7.16.57h0Z"/>
  <path d="m230.99,764.19c-7.28,4.41-14.15,31.34.42,26.93,6.15-6.09,5.19-18.71.3-25.44-.82-1-2.22.42-1.41,1.41,4.23,5.72,3.81,14.17,1.56,20.59-3.53,5.51-7.73-.11-6.81-4.68.02-6.68,3.04-12.83,6.48-18.4.21-.35-.25-.65-.54-.42h0Z"/>
  <path d="m231.34,765.62c4.68,29.31,31.43,19.93,13.18,3.04-1.05-2.04-15.8-8.45-11.59-2.73,6.83,1.11,15.48,6.56,15.46,14.09-2.99,5.35-9.13.49-10.84-3.41-1.48-1.2-5.36-12.92-6.21-10.97h0v-.02Zm-12.4,33.59c-.91-12.09,3.11-24.62,11.75-33.41.18-7.08-11.21,12.9-10.97,14.88-1.59,5.27-3.46,14.8-.78,18.53h0Z"/>
  <path d="m255.18,779.32c-2.84-8.36-10.71-15.9-19.82-16.32-1.26-.23-1.8,1.71-.53,1.93,8.96.18,15.2,7.55,19.26,14.85.34.61,1.23.18,1.09-.46h0Zm-61.67-40.3c-.51,1.76.17,4.56.22,6.39.45,1.43-.7,10.96,2.19,6.82-.25-3.65.68-11.33-2.41-13.23h0v.02Zm30.67-7c-1.09,1.85,4.35,22.65,6.04,17.01-2.96-5.19-4.78-11.1-5.45-17.01-.03-.37-.6-.39-.59,0h0Zm-48.44-369.53c-3.76,19.32,12.17,42.36,33.31,38.02,1.39-.21.8-2.32-.58-2.11-14.85,2.78-27.73-9.17-30.4-23.22-1.16-1.9-.74-13.73-2.33-12.68h0ZM91.22,94.72c.06,1.6.76,3.25.82,4.88.48.96-.66,7.25,1.12,5.13.09-1.65-.49-9.84-1.94-10h0Zm-28.89-11.72c2.95.76,6.69-.71,9.67-1.44,1.62-.29,13.25-5.58,7.68-6.15-4.62,3.33-9.99,5.7-15.6,6.73-.51.1-1.97.06-1.75.86h0Zm57.33-9.83c-7.83,1.74-16.03,2.64-23.95.61-8.09,4.34,25.85,3.07,23.95-.62h0Zm-20.5,32.3c1.91-1.02,4.78-.46,3.14,2.17-1.95,1.66-5.24.75-7.35,2.52-2.16,1.62-4.75-.15-7.18.43-2.46.54-2.27-3.17-.08-3.31.84-.14.48-1.42-.35-1.28-1.21.2-2.35,1.21-2.63,2.43-.73,4.79,4.59,2.79,7.33,3.69,3.39.1,6.1-2.69,9.62-2.57,4.77-1.83,1.05-8.38-2.76-4.53-.16.2-.02.55.27.46h-.01Zm-15.9-14.88c-5.12,3.34-11.81,3.06-17.09.14-3.1.98,5.88,3.24,7.01,3.12,3.17.21,8.75-.64,10.08-3.26h0Z"/>
  <path d="m83.46,89.94c-3.38-9.6-12.45-3.16-18.21-.19-.69.22-.39,1.31.3,1.08,7.2-3.31,11.45-8.3,17.9-.88h0Zm15.2-1.74c6.5,4.13,25.61-5.92,20.12-6.29-5.36,5.02-12.84,6.76-19.98,5.75-.26.01-.41.39-.14.52v.02Zm-.45-.82c3.36-8.98,13.67-6.51,21.1-5.75.72.06.72-1.07,0-1.12-2.04-.19-7.41-.72-9.36-1.01-4.71-.83-12.83,2.78-11.72,7.87h-.02Zm-12.96,39.43c4.47-3.25,4.39-5.3,10.48-4.52,4.78-2.23,9.91,3.13,15.08,1.65.53-.07.54-.91,0-.84-4.32.86-8.21-1.75-12.34-2.27-1.55-.58-2.65.81-4.05.71-1.5-.7-3.19-.27-4.59.49-.65.32-5.93,4.89-4.58,4.79h0Z"/>
  <path d="m85.9,127.07c3.66-.8,7.55-1.91,11.34-2.04,1.6-.53,11.9,1.43,10.74-.49-5.31.45-11.13-.74-16.46.61-1.44.52-4.87.78-5.62,1.93h0Z"/>
  <path d="m85.06,127.15c4.81,7.3,20.88,2.94,25.73-2.88.33-.36-.21-.91-.54-.54-6,6.51-18.82,8.63-25.19,3.42h0Z"/>
  <g>
    <path class="cls-6" d="m85.76,35.74c12.27-2.36,23.58,4.05,31.04,13.35,18.36,20.65,20.85,49.22,23.27,75.53,3.38,35.5,5.09,71.11,6.12,106.75,0,0,.21,7.89.21,7.89.05,1.93,3.05,1.93,3,0-.94-37.17-2.61-74.33-6.01-111.36-2.6-26.71-4.32-55.42-21.59-77.36-8.26-11.77-21.96-20.84-36.84-17.73-1.87.29-1.09,3.19.8,2.89v.04Zm0-3.9c28.55-3.66,45.55,27.02,52.41,50.71,8.53,40.27,9.72,81.77,11.77,122.78,0,0,.82,27.89.82,27.89-.69,2.21,2.74,3.67,3.02.98,0,0-.68-24.61-.68-24.61-5.3-51.39,3.69-143.49-42.94-175.32-5.5-3.6-11.56-5.55-18.15-5.77-2.36-.08-4.71.11-7.05.44-1.9.27-1.09,3.16.8,2.89h0Zm.02-4.47c29.76-4.28,48.11,28.3,55.61,52.66,9.84,41.27,11.37,84.03,13.6,126.25,0,0,.87,27.88.87,27.88-.66,2.18,2.8,3.44,3.01.85-1.19-43.66-3.13-88.07-9.65-131.25-2.42-16.09-5.82-32.38-14.07-46.61-9.71-18.01-27.75-37.11-50.18-32.69-1.9.3-1.09,3.2.8,2.89v.02Zm1.09-4.4c31.34-4.2,51.25,29.87,58.01,56.12,10.69,48.39,12.85,98.22,14.87,147.59,0,0,.24,8.38.24,8.38.05,1.93,3.05,1.93,3,0-1.09-39.14-3.27-78.32-8.28-117.17-4.2-34.89-11.73-76.35-45.54-94.58-7.12-3.5-15.26-4.45-23.09-3.22-1.96.29-1.09,3.17.8,2.89h-.01Zm.54-4.17c31.41-3.95,52.13,29.48,60.73,55.47,13.04,48.3,14.6,98.94,16.2,148.69,0,0,.13,8.6.13,8.6.02,1.93,3.02,1.93,3,0-3.61-60.76,3.22-180.98-57.91-212.58-7.12-3.36-15.19-4.24-22.96-3.08-1.9.26-1.09,3.16.8,2.89h.01Zm-7.27,15.07c-39.01,8.4-24.48,70.55-23.64,99.66,2.37,25.49,7.18,77.31,9.55,102.91.18,1.91,3.18,1.92,3,0-2.67-48.59-16.43-125.21-10.87-172.97,3.33-29.82,31.7-25.09,21.95-29.6h.01Zm.12-3.77c-31.36,4.58-32.66,42.99-30.19,67.93.93,40.33,7.59,90.1,9.96,130.56,0,0,.48,6.85.48,6.85.13,1.92,3.13,1.93,3,0-2.13-39.59-8.55-88.29-10.11-127.58-1.16-25.96-6.63-69.11,27.66-74.87,1.9-.27,1.09-3.16-.8-2.89h0Z"/>
    <path class="cls-6" d="m80.25,25.65c-46.49,10.29-33.73,66.85-32.41,101.98,2.41,27.51,5.88,70.17,7.76,97.99,0,0,.49,7.09.49,7.09.13,1.92,3.13,1.93,3,0-2.28-38.2-7.21-85.96-9.28-123.85-3.18-29.01-5.7-73.32,31.24-80.33,1.9-.34,1.09-3.23-.8-2.89h0Zm0-4.12c-32.24,6.02-42.16,38.9-38.88,67.86,1.62,42.7,7.43,94.37,10.86,137.23,0,0,.57,6.65.57,6.65.16,1.91,3.16,1.93,3,0-3.18-41.49-9.18-93.52-10.87-134.88-3.12-28.16-.44-64.05,31.91-72.82,1.39-.45,2.8-.83,4.23-1.16,1.88-.44,1.08-3.33-.8-2.89h-.02Z"/>
    <path id="B" class="cls-6" d="m80.77,17.52c-20.98,2.95-38.36,21.49-37.96,43.01-.03,1.93,2.97,1.93,3,0,.87-41.52,46.67-38.46,34.97-43h0Z"/>
    <path id="B-2" data-name="B" class="cls-6" d="m81.62,13.08c-20.98,2.95-38.36,21.49-37.96,43.01-.03,1.93,2.97,1.93,3,0,.87-41.52,46.67-38.46,34.97-43h0Z"/>
    <path class="cls-6" d="m83.46,8.66c-20.59,1.69-36.3,20.03-39.08,39.83,3.91,10.28,2.53-22.71,26.31-33.17,3.98-1.96,8.35-3.19,12.77-3.65,1.9-.2,1.92-3.2,0-3h0Z"/>
    <path class="cls-6" d="m85.54,4.08c-20.93,1.82-38.01,19.32-39.93,40.18-.22,1.92,2.79,1.9,3,0,1.93-19.02,17.61-35.63,36.93-37.17,1.9-.18,1.92-3.18,0-3h0Z"/>
    <path class="cls-6" d="m87.04.02C62.92,0,43.78,33.47,53.51,28.47c4.22-9.77,11.67-18.12,21.52-22.43,3.79-1.66,7.89-2.66,12.01-3.03,1.91-.18,1.92-3.18,0-3h0Z"/>
  </g>
</svg>