<svg xmlns="http://www.w3.org/2000/svg" width="195" height="220" fill="none" xmlns:v="https://vecta.io/nano"><style><![CDATA[.B{opacity:.5}.C{fill:#1b1464}.D{fill:#e6e6e6}.E{fill:#42210b}]]></style><g clip-path="url(#A)"><path d="M170.199 195.08c-.5-.499-1.17-.629-1.846-.487-.547.114-1.116.455-1.486.872l-.187.23a2.07 2.07 0 0 0-.448.499c-.446.698-.588 1.699-.14 2.435.595.976 1.869 1.339 2.864.723.857-.534 1.439-1.487 1.733-2.428.199-.638-.022-1.377-.487-1.844h-.003z" fill="#000"/><path d="M190.781 195.831l-5.927-.471c-1.467-.24-3.224-.644-5.149-1.339-1.771-.641-3.269-1.38-4.486-2.078a22.42 22.42 0 0 1-2.529-1.455c-.97-.651-1.457-.973-1.859-1.396s-.768-.951-2.25-4.617c-.459-1.134-.696-1.762-1.322-1.986-.445-.158-1.185-.149-1.567.36-.358.473-.177 1.089-.152 1.174a15.37 15.37 0 0 1-2.934.607l-4.359.36c-.174.012-.935-.057-.664.24.029.009.06.015.092.022.594 2.264 1.135 4.954 1.438 8.011.291 2.94.301 5.593.181 7.864-1.78-1.996-2.659-3.882-3.114-5.129-.569-1.557-.971-2.653-1.005-4.213-.032-1.544.316-2.617-.411-3.726-.12-.183-.661-1.01-1.435-1.067-1.002-.076-2.175 1.159-2.634 3.17-1.283.24-3.391.471-5.911-.031-2.212-.442-3.894-1.282-4.956-1.92.193 3.278-.667 10.746-2.213 13.579l-.73 1.85 2.706 1.785c1.688 1.092 4.1 2.655 5.863 3.647 2.384 1.342 2.087.796 7.973 3.313 3.347 1.43 4.375 2.005 8.411 3.679l3.373 1.364a12.48 12.48 0 0 1 1.846-3.54c1.094-1.462 2.292-2.394 3.12-2.94-2.481-2.994-5.721-4.965-8.541-7.582l9.161-.487 9.404-.278c1.944.24 4.432.269 7.169-.432a17.98 17.98 0 0 0 1.657-.509c-.121-.672-.301-2.226.442-3.912.389-.878.901-1.513 1.303-1.924l.009.007z" fill="red"/><g class="D"><path d="M172.243 214.519c-.522-1.51-1.48-2.608-2.368-3.357-.942.591-2.437 1.715-3.588 3.616a10.74 10.74 0 0 0-1.068 2.39c.97.54 2.781 1.333 4.877.979.721-.123 1.818-.306 2.298-1.159.433-.773.124-1.673-.151-2.469z"/><path d="M172.621 217.545c-.639.272-1.676.622-2.978.663a8.25 8.25 0 0 1-2.004-.189c-3.509-.746-7.068-2.334-7.068-2.334l-7.381-3.123c-2.45-.865-5.27-2.046-8.276-3.679-2.953-1.601-5.44-3.288-7.476-4.841-.281-.386-.458-.414-.55-.398-.3.054-.196.676-.673 1.462-.057.092-.165.262-.149.48 0 0 .016.237.221.461.301.328 3.244 1.98 7.331 4.134l7.94 3.849c4.701 2.015 4.227 1.365 9.939 3.711 0 0 1.612.663 3.97 1.295 3.55.953 4.688.723 5.472.3.882-.477 1.397-1.238 1.685-1.791h-.003zm-6.987-26.814c-.547-.881-1.603-1.007-1.831-1.036a2.79 2.79 0 0 0-1.89.455c-1.056.726-1.166 1.939-1.192 2.192-.028.309-.107 1.168.475 1.948.173.234.72.881 1.637.982.923.104 1.59-.414 1.865-.628 1.068-.831 1.198-2.081 1.22-2.394.025-.385.067-.96-.284-1.522v.003zm29.029 7.761c-.104-.376-.326-.935-.806-1.446-1.233-1.308-3.076-1.109-3.322-1.077a7.78 7.78 0 0 0-1.028 1.86c-.638 1.654-.562 3.145-.452 3.966-4.318.499-7.852.726-10.318.843l-11 .398-5.772.319 2.766 2.432a55.8 55.8 0 0 1 3.256-.439c2.671-.278 4.352-.253 6.565-.291 3.256-.057 5.263-.211 9.284-.524 0 0 3.977-.309 6.484-1.478a24.15 24.15 0 0 0 1.568-.821c.932-.531 1.397-.793 1.729-1.124.319-.319.932-1.08 1.046-2.615v-.003z"/></g><path d="M164.065 168.215c-.224-1.159-.882-.945-1.463.06-2.627-9.499-4.145-43.949-14.898-46.387-2.687-4.162-8.994-7.87-15.145-7.57-12.113-.89-26.436-4.092-37.769-2.902-2.387-4.26-6.597-7.367-6.142-10.146-.038-.411-.038-.85-.364-1.229-1.83-2.093-20.506 4.159-24.324 5.119-1.094 1.601-3.408 4.605-4.84 5.615-1.065.799-4.397 2.441-5.399 3.752-5.124 5.356-1.574 17.293 5.206 21.079 7.571 4.405 27.144 2.059 35.872 2.416l28.592-.752c5.023.145 11.674-.853 14.923-1.813-1.444 14.729-1.833 21.443-.781 35.852-.155-.075-.332-.129-.55-.145v4.421c3.212.932 9.838-.173 14.541-1.579.177 2.583-.205 2.375.136 3.446 4.603-1.485 5.839-1.848 9.98-4.077 3.164-1.554 3.126-2.318 2.424-5.154v-.006z" fill="#09f"/><g fill="#754c24"><path d="M152.129 186.845l-.104-.173c-.102-.187-.351-.275-.554-.215l-.774-1.908-.449-1.44-.256-.991c-.104-.474-.18-.941-.262-1.693l-.193-2.716.404-3.072-1.261.306-2.219.499c-2.586.477-3.853.603-4.881.442-.913-.145-1.466.038-2.212-.246-.316-.12-.721.259-.585.584.158.376.322.761.556 1.039.291.341.408.66.749 2.732l.617 5.033a16.18 16.18 0 0 1-.206 2.277l-.17.632c-.016.047-.029.154-.06.297-.06.274.088.473.287.549l.364.145c.189.149.439.253.698.373l.835.363c.632.237 1.201.332 1.78.423l2.396.367c2.004.151 2.092-.259 3-.019.177.047.714.205.961-.051a.4.4 0 0 0 .107-.208c.107-.48.262-.941.484-1.38.17-.341.227-.525.369-.635.222-.174.475-.196.683-.483.038-.054.082-.111.101-.196.06-.246-.031-.486-.202-.625l-.003-.01zm15.518-4.316c.066-.139-.411-.448-1.135-1.127l-.762-.768-1.896-3.157c-.339-.762-.705-1.807-.873-3.086a11.07 11.07 0 0 1-.076-1.967c-.629.603-1.195 1.01-1.58 1.263-1.41.925-2.494 1.168-4.742 2.211l-1.182.568c-.547.224-1.227.439-1.16.597.006.012.009.025.016.038a.59.59 0 0 0 .221.278 14.86 14.86 0 0 1 1.41 1.888c.825 1.307 1.599 2.984 1.742 3.985.015.12.129.367.183.888.031.306.022.71.329.89.237.139.597.073.856.067l1.084-.035 1.945-.186 1.858-.288 1.862-.48a1.36 1.36 0 0 1-.186-.837c.022-.177.075-.322.126-.423l.452-.354.556.035c.825.051.923.057.949 0h.003z"/></g><path d="M92.118 79.253c1.976-11.154-1.843-15.96-7.998-21.326-3.193-3.587-9.388-5.428-13.087-7.607-5.105-3.193-14.171-5.176-16.551-10.213-2.791 2.697-5.595 5.675-5.883 7.652-1.069 1.633-2.447 3.897-3.853 6.704-1.498 2.99-4.21 8.507-5.582 16.146a53.73 53.73 0 0 0-.822 8.132l1.767 2.176.983-1.595c3.702.647 9.417 3.726 11.693 5.946l-.869 2.634c.964.818 2.598 1.828 3.806 2.337.455 3.24.708 8.271-.92 14.011-.667 3.06-4.729 10.023-3.427 11.426 1.05.205 3.781-2.539 4.836-3.294 2.839-1.693 5.791-3.708 7.997-7.614 9.588-1.816 13.046-3.859 22.409-5.596.414.069 1.012.208 1.675.508 1.362.615 1.634 1.291 2.105 1.231 3.136-2.57.822-17.719 1.716-21.66h.003z" fill="#f15a24"/><g fill="#754c24"><path d="M55.85 92.375c1.097-2.899-2.282-2.634-3.733-4.352-.569-1.077.882-1.971.471-3.076-.405-1.09-2.055-.878-4.726-3.054-1.875-1.276-4.738-2.485-6.654-2.946-1.966 3.06-4.422 10.863-3.898 15.164-2.561 2.864-5.412 6.922-7.166 10.099-3.142 8.147-4.859 18.136-8.535 25.579 6.034-1.942 6.679 4.241 8.235-.708.736-1.746 4.773-8.861 6.919-11.532 1.957-2.852 3.265-6.026 5.061-9.161 2.153-3.124 4.318-7.049 4.441-11.442 1.856-1.412 1.764-1.671 2.845-3.158-.221 1.244.123 3.666.632 4.737-1.451 2.088-2.396 3.907-3.044 5.678-.91 2.476-1.435 6.304-2.33 13.902-.405 3.426-1.091 6.824-1.287 10.266-.038.654-.297 1.292-.278 1.945.003.127.019.43-.174.657-.18.212-.449.24-.62.278-.61.129-.891.527-1.378.922-.623.502-1.245.73-2.292 1.112-2.146.783-3.025.158-5.507.833a11.78 11.78 0 0 0-1.852.673 3.18 3.18 0 0 0-.37.729c-.224.638-.196 1.204-.149 1.529 9.518.24 8.826-.167 15.489-.316 2.32.158 3.42.619 4.742-.631.885-1.399 2.349-3.96 2.529-5.685.145-1.459-.547-1.553-1.264-4.105-1.091-3.887-.983-6.91-.499-8.141.547-1.56 1.233-2.226 1.448-2.912-.073-.06-.424.449-.989.471a1.12 1.12 0 0 1-.591-.155c-.651-1.38.319-4.961 2.118-7.993 1.457-2.69 1.818-5.416 2.156-7.989.626-4.743-.401-4.598.256-7.225l-.006.006z"/><path d="M30.141 132.949c-.547-1.096-1.448-1.68-2.238-2.195a8.22 8.22 0 0 0-1.748-.865c-.446-.158-2.074-.717-3.913-.414-1.577.259-1.581.869-4.425 2.211-1.372.647-2.279 1.077-3.613 1.38-1.483.338-1.694.107-4.922.515l-2.529.315c-1.903.057-2.251-.341-3.477 0-.578.162-1.422.506-2.191.9l-.654.364c-.183.236-.405.596-.316.947.275 1.086 3.294 1.247 10.008 1.292l8.959-.029 4.16-.262a11.65 11.65 0 0 0 2.333.287c.212.007 1.966.032 3.939-.66.376-.129.506-.199.632-.315.79-.72.537-2.397 0-3.474l-.003.003zM82.7 16.349c.348-3.152-.667-5.653-.986-6.411a13.17 13.17 0 0 0-2.861-4.222c-2.175 1.399-6.234 4.418-9.376 9.752a29.28 29.28 0 0 0-3.983 13.033c-3.221.022-3.989.357-4.125.644-.082.174-.123.398-.253.774 0 0-.082.227-.177.458-.187.452-2.807 4.427-6.521 9.79a17.58 17.58 0 0 0 2.295 2.422c1.83 1.598 3.512 2.482 4.426 2.842.537.212 4.084 1.873 11.181 5.192a84.69 84.69 0 0 1 7.47 3.966 33.35 33.35 0 0 0-2.845-3.474 33.54 33.54 0 0 0-6.616-5.441c-.262-.521-1.062-2.28-.569-4.478a6.74 6.74 0 0 1 1.736-3.193c1.751.875 3.303 1.33 4.426 1.579.664.148 2.937.619 4.191-.13.209-.126.718-.429.797-.922.044-.275-.079-.388-.082-.748-.003-.407.149-.695.37-1.121.322-.619.578-.774.885-1.481.104-.237.142-.376.136-.537-.016-.35-.237-.644-.401-.865-.228-.303-.382-.388-.386-.6 0-.155.082-.275.139-.351.376-.521 1.315-.641 1.549-.663.123-.013.183-.013.237-.063.199-.196-.108-.745-.36-1.412-.142-.373-.316-.903-.442-1.576.616-.139 1.849-.499 2.115-1.374.196-.641-.234-1.206-1.097-2.662-1.087-1.838-1.634-2.754-1.814-3.369-.55-1.857.623-2.435.945-5.353v-.006z"/></g><path d="M61.473.301c-6.958 1.093-13.217 5.795-15.53 11.763-1.056 2.728-.095 2.634-.771 10.058-.819 8.994-2.355 10.513-3.351 20.615-.278 2.81-.051 1.62-.569 8.59-.711 9.603-1.375 15.076-.986 15.136.171.025.367-1.02.967-2.899 2.232-6.979 4.716-11.668 5.81-13.386l2.485-3.91c1.315-1.43 2.184-2.709 2.741-3.638.844-1.402 1.549-2.634 2.213-2.526.303.05.509.373.632.632l4.106-7.497a20.29 20.29 0 0 0 1.429-2.296c.496-.935.869-1.813 1.154-2.593l.269 17.438 6.322 2.842c-.784-6.726-.844-12.354-.721-16.437.202-6.79.335-10.27 1.954-14.359 2.399-6.069 6.607-9.929 9.347-12.016-1.138-.998-8.197-6.979-17.497-5.517h-.003z" fill="#603813"/><path d="M78.147 33.178c-.13.436 1.293 1.184 1.457 1.27.951.493 2.712 1.118 3.18.515.177-.227.149-.606.022-.853-.3-.584-1.227-.578-1.217-.755.01-.215 1.35-.066 1.716-.736.126-.231.136-.559-.016-.748-.247-.306-.857-.174-1.527-.022-1.34.306-1.454.698-2.775 1.02-.519.126-.787.136-.841.313v-.003z" fill="#743f22"/><path d="M75.078 21.946c-.006-.234.408-.407 1.195-.736.828-.344 2.257-.941 3.006-.303.3.256.442.673.477.783.025.085.19.613.054.887-.452.906-4.713.117-4.732-.632z" class="D"/><path d="M77.301 20.976c-.408.489-.351 1.317.177 1.702.392.287.98.284 1.359-.032.401-.338.37-.868.364-.992-.006-.111-.041-.717-.522-.985-.452-.253-1.059-.073-1.378.309v-.003z" class="E"/><path d="M77.928 21.378c-.18.227-.085.594.155.723.136.073.338.082.48-.032.18-.148.142-.401.129-.471s-.041-.259-.196-.351c-.18-.107-.439-.038-.572.13h.003z" fill="#000"/><path d="M78.586 21.024c-.038.041-.019.104.032.126.032.013.07.013.101-.006a.08.08 0 0 0 .041-.085c0-.003-.013-.041-.054-.057s-.092-.006-.12.022z" class="D"/><g style="mix-blend-mode:darken" class="B C"><path d="M140.291 175.929a11.1 11.1 0 0 1-.332-2.173c-.044-.868.019-1.626.111-2.229-.509-.196-2.308-.85-2.947-.146-.214.24-.199 1.226-.161 3.19l.019.922c0 .022 0 .041.007.063.126.524 2.241.442 3.3.373h.003z"/></g><g style="mix-blend-mode:darken" class="B C"><path d="M144.613 175.929c-2.298.277-4.302.221-5.883.063l.184.499c.455.802.977 1.904 1.337 3.284a13.75 13.75 0 0 1 .433 4.162c.022 2.29-.073 3.161-.19 3.433a2.61 2.61 0 0 0-.063.158c-.133.363-.164.682-.167.9a.48.48 0 0 0-.257.091c-.335.269-.107 1.026-.009 1.484.092.427-.013 1.45-.221 3.49l-.291 2.289c-.066.559-.202 1.384-.509 2.35l-.42 1.13c-.813 2.214-.712 2.663-1.315 3.774l-.626 1.162c-.13.218-.32.534-.493.995l-.127.379 1.255.827 1.359.982s1.846 1.475 2.57 1.472c.019 0 .158-.006.165-.06 0-.016-.004-.035-.016-.054-.313-.47-.642-.947-.863-1.468-.225-.534-.408-1.074-.531-1.639-.25-1.146-.301-2.331-.231-3.502.082-1.345.313-2.681.566-4.004l.831-4.14c.199-1.134.44-2.802.544-4.892.297.224.642.436.787.328.041-.031.054-.075.06-.104.933-4.004.092-8.372.092-8.372l-.478-2.213 1.477-.12c1.239-.136 2.519-.284 4.002-.799a13.26 13.26 0 0 0 1.88-.818l.241-1.004.23-1.263c-1.422.476-3.221.95-5.332 1.206l.009-.006zm-3.657 12.963c.025.136.183.189.3.136.006.003.016.006.022.009l.196.089.032.009c-.022 0-.044.006-.063.016-.073-.044-.174-.032-.237.06a.22.22 0 0 0-.127-.073c-.057-.136-.199-.145-.297-.088h-.032c.007-.026.01-.048.007-.073.076.003.155-.022.199-.088v.003z"/></g><g style="mix-blend-mode:darken" class="B C"><path d="M154.89 176.403a5.84 5.84 0 0 1-.335-1.819c-.013-.6.07-1.108.161-1.49-2.608-.06-3.126.59-3.262.916-.123.296-.025.54.079 2.163l.063 1.152c.161.026.348.045.56.032a2.71 2.71 0 0 0 1.242-.376c.322-.06.708-.167 1.116-.369.139-.067.262-.139.379-.212l-.003.003z"/></g><g style="mix-blend-mode:darken" class="B C"><path d="M166.31 205.383c-2.889-2.349-4.008-4.623-4.488-6.284-.819-2.82-1.066-8.324-1.126-8.972-.072-.792-.17-1.588-.341-2.365-.171-.796-.401-1.582-.822-2.28-.022-.038-.063-.054-.101-.051-.003-.019-.01-.047-.019-.079 0 0-.032-.11-.088-.189-.067-.098-.392-.104-.778.044l.68-.354.104-.019c.006.06.022.139.076.162.107.047.354-.152.338-.222-.446-2.128-1.037-4.329-2.308-6.132-.17-.24-.354-.468-.553-.689l.648-.29 1.887-.973c1.221-.685 2.368-1.497 3.452-2.381a.23.23 0 0 0 .067-.107c.057-.155-.048-.269-.057-.502 0-.051 0-.12.019-.206a1.48 1.48 0 0 0 .003-.287c-.003-.051-.051-.502-.199-.537-.124-.028-.31.221-.474.6l-.762.265c-.064-.041-.146-.053-.225-.006l-2.402 1.589-1.514.871-2.621.97c-.003-.007-.009-.01-.019-.016-.215-.205-.537.114-.329.328l.098.098.535.651c.088.107.199.091.281.025a12.01 12.01 0 0 1 .828 1.149c.588.923.98 1.807 1.246 2.558l.414 2.596c.025.136.142.366.31.622.006.013.019.016.028.026-.013.009-.022.018-.032.034-.11-.025-.23-.031-.366-.003-.124.025-.177.145-.165.256-.012.057-.012.114.022.167a6.47 6.47 0 0 1 .31.566l.142.306c.26.622.257 1.058.358 1.604.053.278.148.67.338 1.131-.01.015-.019.041-.035.072-.367.834.168 1.57.465 2.716.12.467.351 1.364.231 2.283 0 0-.035.326.107 1.731a.23.23 0 0 0 .127.183c-.08.613-.064 1.235.047 1.847.003.019.003.038.006.057a.18.18 0 0 0 .073.117v.417l-.038 1.408-.035.686a.77.77 0 0 0-.028.243c.012.186.095.271.193.6l.034.123c.143.508 2.378 1.667 3.528 2.975.62.704.654 1.143 1.22 1.31.61.177 1.249-.139 1.698-.442h.012z"/></g><g style="mix-blend-mode:darken" class="B C"><path d="M94.692 111.154c-2.127-3.622-6.765-6.938-6.404-11.29a8.77 8.77 0 0 0-1.435-.3c-1.274-.152-2.352.019-3.101.212-.079 1.342-.07 4.263 1.524 7.433a14.65 14.65 0 0 0 4.328 5.154l5.086-1.209h.003z"/></g><g style="mix-blend-mode:darken" class="B C"><path d="M92.42 75.615c-.338-.035-1.356 5.716-1.912 10.412-.37 3.114-.506 5.52-1.419 9.18a46.66 46.66 0 0 1-1.207 4.07l2.519 1.632a13.63 13.63 0 0 0 1.151-3.11c.522-2.223.338-4.011.288-4.576-.531-5.924 1.062-17.564.579-17.612l.003.003z"/></g><g style="mix-blend-mode:darken" class="B C"><path d="M61.253 71.948c-.155-.035-.974 3.076-1.495 5.305l-1.16 5.886c-.645 2.867-.686 4.538-.569 5.558.006.041.167 1.475-.243 1.623-.133.047-.247-.07-.509-.063-.322.006-.588.19-.774.366-.329-.126-.503-.076-.597-.022-.414.243-.389 1.254.076 2.549.313.167.661.338 1.046.493a10.73 10.73 0 0 0 2.184.622c0 .006.006.016.013.016.133 0 .047-4.254.392-8.618.37-4.683 1.388-11.466 1.467-11.972.098-.647.262-1.721.171-1.74v-.003z"/></g><g style="mix-blend-mode:darken" class="B C"><path d="M141.834 134.562l-.525-.326a54.67 54.67 0 0 1-5.371 1.222c-2.228.392-4.299.61-6.164.724l-7.839.454-8.516.158-9.433.171-3.303.06-6.177.129c-4.89.108-6.964-.031-14.746.019 0 0-9.546.057-13.492-.287-1.223-.108-2.447-.256-3.657-.464l-1.837-.341c-1.299-.285-1.808-.452-1.83-.398-.044.113 2.089 1.25 4.533 1.879 2.267.581 3.857.48 6.237.442 6.227-.104 5.56.407 13.242.312l6.186-.132 7.331-.038 4.008-.029a224.78 224.78 0 0 1 7.132-.334l7.014-.142 7.094-.193c4.994-.152 7.501-.265 10.017-.546a57.81 57.81 0 0 0 3.743-.54 56.12 56.12 0 0 0 2.775-.575 3.56 3.56 0 0 1 .026.786c-.013.145-.029.25-.032.272-.215 1.358-.307 5.491-.307 5.491 0 1.554-.076.951-.351 6.878l-.376 10.248.19 9.824.054 1.626c0 .019 0 .038.006.054.136.584 2.406.546 3.758.477-.793-5.732-1.315-12.537-1.077-20.176a119.46 119.46 0 0 1 1.694-16.705h-.006z"/></g><g style="mix-blend-mode:darken" class="B C"><path d="M64.357 97.376c-.013-.044-.069-.047-.092-.013-.149.209-.193.448-.253.695l-.187.767-.414 1.528c-.303 1.011-.657 2.005-1.069 2.978-.812 1.929-1.846 3.767-3.054 5.476-.689.972-1.435 1.901-2.235 2.782-.186.205.117.511.307.306a29.14 29.14 0 0 0 6.297-11.065l.468-1.718a23.02 23.02 0 0 0 .19-.903c.054-.278.117-.556.041-.834z"/></g><g style="mix-blend-mode:darken" class="B C"><path d="M64.435 105.248c-1.818 2.681-3.641 4.248-5.017 5.198-1.982 1.368-2.937 1.383-4.248 2.858-.303.341-1.037 1.222-2.295 1.69-.424.158-1.148.454-1.457.24-1.726-1.203 4.157-12.073 3.411-12.597 0-1.57.746-3.613.746-3.613 1.125-.281-1.666-10.042 1.41-8.583C53.978 82 32.764 75.668 40.231 80.358a24.86 24.86 0 0 0 4.28 3.572c2.867 1.885 4.928 2.362 5.355 4.153.19.793-.038 1.431-.458 2.552-.455 1.219-1.479 3.344-3.917 5.397-1.068 3.707-2.263 6.641-3.189 8.685-.996 2.194-1.976 3.96-3.932 7.493-2.115 3.815-3.831 6.676-4.419 7.652a240.4 240.4 0 0 1-6.594 10.323l1.609.765 5.605-10.321c3.575-4.601 6.888-11.668 9.799-16.421 1.47-3.587 1.318-4.168 1.995-7.336 2.001-1.516 3.54-4.023 4.473-6.471 4.305-7.585 2.867 12.729.534 16.007-7.033 19.513 3.85 28.232-9.847 30.266.006.088 1.489-.133 3.477 0 5.737 1.244 6.847-1.74 8.219-6.316 3.442 3.859 4.46 4.629 4.663 4.475.43-.326-3.392-4.273-3.955-10.191-.139-1.459-.471-4.945 1.41-8.214 1.552-2.697 3.344-3.041 6.297-6.83a29.19 29.19 0 0 0 2.804-4.355l-.003.006zM51.332 123.28c.082.155.013.303-.108.395.063-.089-.288-.907.108-.395z"/></g><g style="mix-blend-mode:darken" class="B C"><path d="M87.884 99.281c.228-.256-.676-1.304-1.365-2.394-.582-.919-1.261-2.264-1.694-4.143-.028.161-.06.407-.06.704 0 .325.041.733.351 1.702l.506 1.402a13.61 13.61 0 0 0 1.473 2.586c.313.142.676.272.793.142h-.003z"/></g><g style="mix-blend-mode:darken" class="B C"><path d="M84.953 60.952c-3.844-1.831-6.439-2.662-8.168-3.076-.676-.161-1.795-.398-2.839-1.288-1.129-.963-1.802-2.378-2.118-3.041-.307-.644-.572-1.364-.667-1.626l-.559-1.712-.322-.092c-.047-.05-.114-.104-.177-.092-.19.038-.221.613-.234.824l-.243 2.482c-.066 1.822-.104 2.735-.449 2.836-.243.073-.424-.284-1.299-.669a5.72 5.72 0 0 0-.749-.265l-4.742-2.495c-4.116-2.397-6.379-4.172-6.866-4.595-.907-.786-1.618-1.595-1.618-1.595-1.245-2.116-1.599-2.555-1.672-2.517-.114.06.297 1.339 1.144 2.511.414.569.828.935 1.426 1.497.986.928 2.039 1.775 3.136 2.571 1.078.783 3.395 2.337 7.014 4.2l5.026 2.353.114-3.783.218-2.801c.136.505.351 1.004.534 1.487l.629 1.63 1.35 3.471 4.365 1.598 4.35 1.374 3.424.824-.006-.01z"/></g><g style="mix-blend-mode:darken" class="B C"><path d="M71.383 38.367c-.572-.158-1.41-.417-2.38-.831-3.572-1.522-5.687-3.723-5.839-3.553-.139.155 1.606 1.939 1.799 2.138l1.909 1.844c1.565 1.39 1.881 1.402 2.14 2.037.326.789-.076.979.101 2.441.183 1.522.784 2.694.743 2.706-.01.003-.057-.073-.234-.502l-.01-2.201c0-.979.006-2.261.797-3.259.329-.417.708-.669.971-.821h.003z"/></g><g style="mix-blend-mode:darken" class="B C"><path d="M80.727 37.855c-.028-.01-.098.417-.443.802-.167.186-.661.66-1.95.73-.635.035-.986-.054-3.013-.597l-3.607-.947-.992-.243c.676.265 5.219 2.046 7.621 2.277.484.047 1.091.05 1.581-.316.743-.556.85-1.693.803-1.708v.003z"/></g><g style="mix-blend-mode:darken" class="B C"><path d="M30.403 136.544a4.83 4.83 0 0 0 .057-2.868c-.313-1.064-.923-1.746-1.242-2.059l-1.887-1.203c-.67.995-1.618 2.182-2.937 3.322-2.687 2.324-5.516 3.262-7.185 3.667l3.686-.146 4.675.142c1.148-.041 2.81-.214 4.833-.852v-.003z"/></g><g class="E"><path d="M50.44 5.424c-2.718 3.123-4.501 7.03-4.498 11.207 0 1.923.196 3.84.171 5.763-.022 1.731-.117 3.496-.455 5.195-.215 1.083-.528 2.144-.768 3.221-.48 2.157-.85 4.339-1.166 6.524-.503 3.458-.901 6.935-1.239 10.412a216.81 216.81 0 0 1-1.571 12.436l-.351 2.192c-.098.597.816.853.914.253a220.96 220.96 0 0 0 1.884-14.129l1.018-9.029c.48-3.651 1.144-7.247 2.017-10.825.816-3.347.718-6.856.55-10.27-.082-1.727-.085-3.436.335-5.125.559-2.242 1.631-4.339 3.028-6.174a18.52 18.52 0 0 1 .806-.982c.398-.458-.269-1.131-.67-.669h-.003zM66.679.177c-2.766 2.34-5.152 5.179-6.901 8.356a33 33 0 0 0-3.781 11.489c-.221 1.696-.149 3.392-.243 5.094s-.383 3.268-.778 4.866c-1.002 4.067-2.652 7.958-4.818 11.542-.942 1.56-1.947 3.082-2.845 4.671-1.163 2.065-2.156 4.225-3.025 6.433l-.49 1.288c-.212.572.705.821.914.253.793-2.157 1.707-4.273 2.775-6.306.872-1.661 1.871-3.246 2.861-4.838 2.251-3.613 4.056-7.456 5.213-11.561.414-1.472.746-2.968.955-4.481.234-1.712.186-3.42.265-5.141.104-2.245.585-4.465 1.233-6.613.55-1.832 1.249-3.619 2.112-5.327 1.577-3.126 3.762-5.934 6.348-8.293a29.07 29.07 0 0 1 .872-.764c.468-.395-.209-1.061-.67-.669l.003.003z"/><path d="M58.062 1.022c-3.025 2.77-5.469 6.268-6.591 10.244-.348 1.225-.49 2.485-.553 3.755l-.266 5.113c-.395 4.816-1.264 9.575-2.393 14.271-.781 3.25-1.729 6.436-2.677 9.641A317.67 317.67 0 0 0 41.83 57.9l-.291 1.187c-.145.594.771.846.914.253a320.89 320.89 0 0 1 3.528-13.282c.961-3.325 2.02-6.619 2.848-9.985 1.087-4.424 1.998-8.874 2.519-13.405.24-2.075.383-4.159.462-6.246.047-1.257.066-2.523.303-3.761.73-3.843 2.975-7.352 5.706-10.093a26.97 26.97 0 0 1 .914-.872c.452-.414-.221-1.08-.67-.669v-.003zm-9.224 6.486c-2.5 2.984-4.533 6.872-4.299 10.876l.145 2.078c.044 1.07-.003 2.141-.104 3.205-.231 2.447-.775 4.882-1.331 7.273-.401 1.721-.743 3.448-.955 5.201l-.812 7.45c-.364 3.404-.708 6.805-.809 10.229-.047 1.601-.073 3.196-.199 4.794a91.49 91.49 0 0 1-.907 7.475l-.227 1.33c-.108.597.806.853.913.253.736-4.118 1.242-8.296 1.337-12.48.073-3.278.313-6.534.651-9.793l.765-7.159c.199-1.844.424-3.673.809-5.488.91-4.295 2.102-8.602 1.776-13.033-.104-1.421-.177-2.754.13-4.159.443-2.03 1.321-3.928 2.482-5.646a20.43 20.43 0 0 1 1.309-1.724c.389-.464-.278-1.137-.67-.669l-.003-.009z"/><path d="M52.476 3.923c-2.257 2.984-3.973 6.417-4.593 10.131-.243 1.456-.288 2.908-.247 4.383.051 1.765.073 3.524-.047 5.29-.149 2.128-.446 4.238-.888 6.325-.291 1.38-.648 2.744-.964 4.118-.626 2.719-1.151 5.463-1.612 8.214-.781 4.642-1.385 9.316-1.897 13.996-.066.606.882.6.948 0 .774-7.105 1.748-14.211 3.303-21.193.695-3.117 1.502-6.186 1.865-9.37.231-2.024.326-4.055.278-6.092-.032-1.421-.111-2.842.025-4.263.386-4.061 2.21-7.835 4.65-11.059.367-.486-.455-.96-.819-.477l-.003-.003z"/><path d="M55.126 2.319c-2.162 2.447-3.882 5.264-4.912 8.368-.544 1.636-.853 3.319-.964 5.037l-.187 5.113c-.322 6.174-1.552 12.291-2.703 18.351-.762 4.004-1.669 7.98-2.706 11.921-.155.59.759.843.914.253 1.805-6.856 3.136-13.819 4.299-20.808.462-2.769.853-5.552 1.059-8.349.114-1.554.155-3.111.199-4.671s.133-3.24.503-4.832c.844-3.622 2.719-6.938 5.172-9.714.401-.455-.266-1.127-.67-.669h-.003z"/><path d="M60.485.451c-2.576 2.28-4.773 5.046-6.246 8.163-.964 2.04-1.435 4.172-1.672 6.404-.31 2.943-.503 5.886-.955 8.814-.676 4.364-1.713 8.659-2.905 12.906a322.78 322.78 0 0 1-4.185 13.775c-.19.581.724.831.913.253 1.315-4.004 2.532-8.04 3.702-12.088 1.23-4.257 2.339-8.549 3.107-12.916.56-3.174.872-6.363 1.157-9.572.19-2.141.477-4.247 1.283-6.256 1.369-3.401 3.736-6.401 6.468-8.817.458-.404-.215-1.074-.67-.669l.003.003z"/><path d="M62.813.194c-3.041 2.504-5.469 5.672-7.087 9.262-.809 1.797-1.41 3.692-1.697 5.643-.149 1.001-.212 2.015-.307 3.025-.354 3.78-.85 7.551-1.483 11.293-.199 1.178-.401 2.356-.736 3.505s-.762 2.267-1.242 3.36c-1.005 2.299-2.194 4.509-3.253 6.783-1.84 3.954-3.183 8.097-3.977 12.385-.123.66-.231 1.323-.332 1.989-.088.597.825.853.914.253.639-4.279 1.761-8.495 3.465-12.477 1.916-4.481 4.71-8.719 5.712-13.541.806-3.884 1.28-7.876 1.704-11.82l.37-3.878a13.07 13.07 0 0 1 .164-1.143c.212-1.168.522-2.318.926-3.436 1.258-3.474 3.367-6.654 6.031-9.209.48-.461.983-.9 1.498-1.326.471-.388-.202-1.055-.67-.669z"/><path d="M65.118.112c-3.597 2.817-6.455 6.493-8.231 10.705-1.252 2.968-1.982 6.114-2.127 9.328a61.22 61.22 0 0 1-.417 4.866l-.177 1.235a94.53 94.53 0 0 1-.506 2.984c-.417 2.242-.964 4.393-1.852 6.499-.936 2.226-1.966 4.352-3.294 6.373-.834 1.27-1.688 2.526-2.478 3.827-.901 1.484-1.391 3.148-1.609 4.863-.079.628-.12 1.26-.133 1.892s.936.609.948 0c.044-1.955.364-3.95 1.283-5.697.591-1.124 1.337-2.182 2.036-3.24 1.34-2.03 2.592-4.067 3.556-6.306l.357-.853.164-.407c-.013.028-.092.218-.016.041l.139-.328c.237-.572.462-1.153.661-1.737.316-.916.585-1.847.787-2.795.702-3.297 1.226-6.666 1.438-10.033.069-1.105.079-2.214.227-3.309.224-1.683.629-3.344 1.17-4.952 1.492-4.45 4.173-8.397 7.732-11.457.332-.284.67-.559 1.012-.831.48-.376-.196-1.042-.67-.669z"/><path d="M68.629.546c-3.417 2.621-6.373 5.896-8.26 9.79-1.603 3.306-2.481 7.017-2.845 10.664-.205 2.05-.177 4.108-.465 6.152-.345 2.444-.768 4.898-1.697 7.194-.68 1.686-1.603 3.265-2.526 4.825l-3.032 5.002-6.117 9.55-1.154 1.772c-.335.512.487.988.819.477l6.765-10.516 2.507-4.074c1.062-1.768 2.153-3.534 3.044-5.397 1.897-3.973 2.459-8.466 2.655-12.821.047-1.023.123-2.043.25-3.06.016-.136-.006.035.016-.126l.06-.407a33.44 33.44 0 0 1 .19-1.124c.417-2.258.996-4.519 1.894-6.638 1.492-3.521 3.894-6.6 6.758-9.117.525-.461 1.062-.903 1.615-1.326.206-.158.307-.404.171-.647-.114-.202-.446-.325-.648-.171z"/></g><g fill="#000"><path d="M70.443 50.035c-.016.55.117 1.023.322 1.532l.635 1.5 1.451 3.17c.171.37.718.047.547-.319l-1.391-2.927-.702-1.389c-.253-.486-.626-1.004-.673-1.566-.009-.12-.183-.123-.186 0h-.003z"/><path d="M86.009 61.11l-3.107-1.355-3.136-1.232-6.253-2.65c-.449-.202-.835.464-.386.66l6.313 2.599 3.152 1.175c1.053.385 2.251.625 3.37.979.117.038.161-.139.051-.18l-.003.003zM69.862 50.205l-.534 2.814-.303 2.867c-.029.354.525.354.553 0l.256-2.814.215-2.842c.01-.104-.161-.13-.183-.025h-.003z"/><path d="M51.764 42.051c.022.679.133 1.266.395 1.901s.569 1.197.955 1.731c.809 1.124 1.811 2.087 2.886 2.956 2.447 1.974 5.19 3.657 7.959 5.132l5.023 2.387c.414.174.774-.433.357-.61-2.911-1.228-5.718-2.675-8.421-4.31-2.431-1.468-4.934-3.089-6.79-5.271-.983-1.156-1.701-2.507-2.165-3.947-.035-.104-.202-.092-.199.028v.003zm10.374 16.737c.016.407-.054.812-.057 1.222l-.009 1.686-.171 3.647c-.196 2.094-.601 4.159-1.109 6.199-.955 3.84-2.061 7.623-2.649 11.542-.379 2.517-.569 5.043-.692 7.585-.019.411.635.414.642 0 .076-4.153.667-8.315 1.609-12.357s2.244-7.983 2.722-12.114c.149-1.292.24-2.596.228-3.894-.006-.685-.022-1.371-.088-2.053-.051-.499-.18-.97-.237-1.462-.013-.117-.193-.123-.186 0v-.003z"/><path d="M56.755 68.582l-.364 4.329-.025 4.415.455 8.738.512 4.832c.044.309.518.18.471-.13l-.974-8.64-.038-8.672.149-4.873c.01-.12-.177-.12-.186 0zm-7.06 5.819c-.196-.846-.291-1.705-.452-2.558l-.49-2.621-.749-5.29c-.36-3.363-.493-6.812-.215-10.187a25.95 25.95 0 0 1 1.097-5.703c.133-.42-.528-.6-.658-.18-1.021 3.281-1.22 6.767-1.122 10.181a75.69 75.69 0 0 0 1.034 10.484c.171 1.001.36 1.999.569 2.99s.55 1.952.806 2.934c.032.117.209.066.18-.05z"/><path d="M51.613 43.447l-1.378 1.197c-.439.42-.781.875-1.135 1.333-.733.951-1.366 1.971-1.957 3.016-1.236 2.192-2.32 4.481-3.344 6.777-2.064 4.633-3.8 9.455-4.824 14.432-.578 2.814-.92 5.669-.993 8.539-.013.458.699.458.711 0 .145-5.005 1.122-9.957 2.617-14.732s3.55-9.388 5.889-13.803a42.42 42.42 0 0 1 1.995-3.395 19.58 19.58 0 0 1 1.233-1.69c.443-.54.822-1.07 1.315-1.544.089-.085-.041-.208-.133-.133l.003.003zM38.948 78.793c1.849.42 3.597 1.203 5.355 1.895l4.23 1.898c1.966 1.109 3.812 2.469 5.402 4.071 1.28 1.288 2.336 2.728 3.316 4.247.243.379.841.038.61-.357-1.318-2.255-3.133-4.323-5.168-5.956-1.049-.843-2.153-1.62-3.31-2.308-1.334-.793-2.75-1.396-4.192-1.964l-3.044-1.165c-1.015-.392-2.029-.739-3.148-.723-.202 0-.259.316-.051.363zm.126-1.624c2.519.606 5.026 1.232 7.391 2.315s4.59 2.529 6.524 4.282c1.227 1.108 2.352 2.334 3.452 3.562.259.291.686-.139.427-.426-1.919-2.119-3.844-4.153-6.215-5.773-2.172-1.484-4.593-2.684-7.122-3.426-1.454-.43-2.908-.726-4.425-.761-.13 0-.158.196-.032.227z"/><path d="M38.572 79.078c-.022.171.076.373.142.527a4.27 4.27 0 0 0 .253.512c.19.328.446.619.733.865.123.107.303.107.408-.028s.057-.306-.076-.401l-.057-.041c-.006-.003-.051-.038-.022-.016l-.098-.079-.196-.177-.36-.382a2.93 2.93 0 0 1-.288-.395c-.085-.139-.155-.335-.281-.452-.066-.06-.149-.013-.161.066h.003zm13.244 8.868c.572.742 1.4 1.288 2.2 1.759a10.99 10.99 0 0 0 2.668 1.102c.345.091.484-.423.149-.534a16.52 16.52 0 0 1-2.516-1.077c-.809-.426-1.52-.988-2.308-1.443-.114-.066-.281.076-.193.193zm6.326 9.736c-.199 1.254-.689 2.495-1.211 3.648s-1.182 2.299-1.849 3.407c-1.315 2.179-2.668 4.374-3.499 6.79-.468 1.361-.733 2.788-.692 4.228.013.407.648.407.632 0-.209-5.28 3.698-9.442 5.696-14.024a16.81 16.81 0 0 0 .686-1.848c.212-.707.319-1.424.424-2.154.016-.117-.161-.171-.18-.051l-.006.003z"/><path d="M64.275 95.162c-.304.733-.392 1.566-.563 2.34l-.594 2.343a28.86 28.86 0 0 1-1.792 4.535c-1.429 2.871-3.306 5.501-5.586 7.762-1.299 1.289-2.725 2.448-4.252 3.455-.338.224-.022.771.319.546 5.538-3.657 9.714-9.237 11.712-15.559.278-.884.518-1.781.708-2.69s.389-1.847.243-2.732c-.019-.107-.158-.079-.19 0h-.006z"/><path d="M66.049 99.481c-.62 2.223-1.558 4.383-2.867 6.29-1.315 1.92-2.99 3.575-4.827 4.999a34.09 34.09 0 0 1-3.344 2.261c-.348.209-.032.755.319.547 4.09-2.448 7.994-5.767 9.942-10.226.534-1.225.879-2.507.986-3.843.01-.12-.177-.142-.209-.028zm-10.654-9.136c-.041.723.066 1.475.095 2.201l.025 2.059-.224 4.257c-.313 2.842-.923 5.669-1.878 8.366-.142.401.506.581.639.177.901-2.761 1.565-5.581 1.9-8.467.167-1.434.285-2.886.278-4.33l-.073-2.204c-.047-.733-.057-1.446-.237-2.125-.079-.3-.506-.224-.525.07v-.003zm87.844 43.076c-2.987 1.399-6.142 2.362-9.398 2.88-3.291.524-6.622.672-9.948.761l-22.447.594c-7.558.192-15.119.353-22.68.205l-11.332-.376c-3.31-.186-6.758-.572-9.439-2.706-2.374-1.889-4.166-4.661-5.257-7.472s-1.568-5.987-.642-8.908c.228-.714.541-1.387.923-2.028.256-.429-.414-.818-.67-.391-3.284 5.472-.831 12.615 2.934 17.182.977 1.184 2.121 2.251 3.446 3.038 1.445.862 3.072 1.351 4.726 1.623s3.464.366 5.203.452l5.778.221c7.827.227 15.666.101 23.49-.079l11.645-.304 11.7-.309c3.445-.133 6.9-.189 10.327-.578 3.246-.369 6.628-.979 9.584-2.428.746-.367 1.47-.742 2.165-1.2.114-.073.016-.234-.104-.18l-.003.003zm-58.134-19.29c5.516-2.179 11.522-3.221 17.443-2.792 3.316.24 6.635.622 9.935 1.004a170.04 170.04 0 0 1 6.174.824c3.322.506 6.635.998 9.986 1.283 2.911.246 5.854.325 8.737.83 1.113.196 2.222.48 3.259.941 1.192.531 2.263 1.27 3.246 2.122 1.916 1.661 3.436 3.449 4.622 5.599.755 1.371 1.369 2.824 1.953 4.27s1.063 2.82 1.489 4.263a48.9 48.9 0 0 1 .686 2.605c.095.401.711.231.62-.17-.73-3.155-1.799-6.196-3.117-9.152-1.031-2.311-2.352-4.396-4.084-6.237-1.818-1.929-3.91-3.597-6.468-4.402s-5.266-.878-7.906-1.067c-3.922-.284-7.801-.708-11.683-1.314-5.001-.78-10.03-1.367-15.078-1.775-3.069-.246-6.085-.379-9.151-.009s-6.192 1.178-9.142 2.34a46.62 46.62 0 0 0-1.596.666c-.095.041-.025.212.073.171h.003z"/><path d="M154.763 166.653l.281-6.211-.006-6.212c-.079-4.143-.386-8.277-.793-12.398a223.97 223.97 0 0 0-.806-6.941c-.067-.505-.775-.42-.699.095a156.21 156.21 0 0 1 1.29 12.42l.325 6.05c.095 2.018.105 4.143.181 6.212.041 1.137.022 2.28.019 3.417l.018 3.571c0 .124.181.12.187 0l.003-.003zm-8.93 3.348c.079-3.105-.184-6.215-.288-9.316l-.167-8.081c-.067-4.109-.184-8.23-.045-12.338a96.74 96.74 0 0 1 .231-4.134c.126-1.62.354-3.256-.218-4.825-.398-1.09-1.157-2.006-2.213-2.508s-2.276-.616-3.445-.606c-1.357.009-2.706.158-4.066.148-1.609-.012-3.211-.148-4.814-.293s-3.205-.31-4.814-.376-3.196.016-4.796.05a169.09 169.09 0 0 1-8.244 0c-3.888-.101-7.766-.382-11.632-.799-2.637-.284-5.276-.637-7.928-.729a31.65 31.65 0 0 0-3.67.076c-1.22.098-2.532.325-3.796.527-2.289.366-4.682.281-6.926-.306-2.052-.537-4.182-1.503-5.535-3.199-.999-1.251-1.394-3.076-1.555-4.709-.206-2.119-.101-4.272.275-6.366.259-1.453.654-2.88 1.151-4.27.164-.464-.566-.656-.733-.202-.929 2.533-1.514 5.198-1.612 7.895-.073 2.078.044 4.311.778 6.272 1.46 3.909 6.028 5.536 9.869 5.867 1.815.155 3.585-.019 5.371-.325a30.21 30.21 0 0 1 3.844-.414c2.507-.107 5.007.13 7.498.398 3.307.36 6.607.717 9.929.913a140.69 140.69 0 0 0 7.021.23c2.959.026 5.908-.098 8.864-.142 3.224-.047 6.417.449 9.631.622 1.527.082 3.038.048 4.565-.044 1.179-.069 2.399-.129 3.556.158s2.165 1.02 2.655 2.17c.408.953.459 2.021.389 3.041-.082 1.228-.237 2.447-.272 3.679-.101 3.675-.085 7.358-.006 11.033l.553 16.169c.054 1.582.12 3.161.294 4.737.022.192.301.202.307 0l-.003-.003zm-93.668-45.326l.816-.281a9.17 9.17 0 0 0 .784-.385c.522-.278 1.018-.625 1.492-.979.961-.71 1.786-1.557 2.557-2.463.228-.268-.161-.663-.392-.392-.74.872-1.603 1.639-2.494 2.356-.446.36-.917.676-1.391.998l-.689.455-.755.521c-.088.05-.028.211.073.17zm16.42 12.222c-.095.124-.111.263-.082.414.041.221.366.196.42 0 .085-.29.05-.644.06-.947l.022-.963-.006-1.927c-.016-.404-.647-.407-.632 0l.088 1.927.019.963c.003.303-.041.65.028.947l.322-.246c-.032-.032-.047-.07-.047-.114-.01-.107-.13-.132-.193-.054z"/><path d="M57.715 120.53c.101.697.433 1.285.774 1.894a20.03 20.03 0 0 0 1.163 1.807c.819 1.152 1.729 2.239 2.684 3.281l3.022 3.082c.974.95 1.954 2.122 3.18 2.76.367.193.645-.31.319-.546-1.144-.831-2.143-1.775-3.155-2.764l-2.921-2.981c-.942-1.026-1.859-2.119-2.668-3.271l-1.097-1.68c-.351-.569-.664-1.178-1.148-1.677-.073-.073-.171.006-.158.091l.003.004zm24.653-16.129c.433 2.546.613 5.066-.114 7.576-.344 1.194-.85 2.394-1.571 3.408-.771 1.086-2.02 1.815-3.107 2.548-1.255.846-2.551 1.56-4.043 1.879-.433.092-.25.764.183.666 1.356-.306 2.617-.985 3.774-1.737s2.44-1.528 3.322-2.58c1.698-2.024 2.507-4.894 2.586-7.493.047-1.5-.158-3-.793-4.371-.066-.145-.262-.035-.24.101l.003.003zm-10.033 8.202c.414.063.835-.022 1.246-.073l1.217-.176 1.305-.196.566-.085c.066-.01.253.018.183-.067.028.035.016.3.016.344l.104 2.533.022 2.646c.013.206.348.281.382.051.145-.97.123-1.952.145-2.931l.009-1.496c-.013-.43.035-.942-.076-1.358s-.496-.405-.841-.354l-1.473.224-1.473.224c-.462.079-.961.12-1.385.326-.155.075-.126.356.051.382v.006zm17.543-11.884c-.281-.271-.465-.587-.784-.83-.43-.328-.926-.556-1.441-.714-1.005-.309-2.102-.265-3.117-.019-.961.231-1.9.6-2.848.881l-9.597 2.637-7.798 2.04c-.465.12-.269.84.199.72l12.483-3.287 6.923-2.034c.904-.316 1.833-.512 2.794-.414.629.063 1.227.256 1.799.518l.705.348c.193.091.376.148.544.29.092.076.221-.047.133-.133l.006-.003z"/><path d="M84.805 92.745c-.101.429.06.919.18 1.336a12.74 12.74 0 0 0 .471 1.314c.297.714.651 1.389 1.04 2.056.929 1.592 2.146 2.94 3.809 3.783.247.127.465-.237.218-.376-.787-.438-1.514-.975-2.131-1.638s-1.046-1.393-1.457-2.166l-.914-1.901-.512-1.292c-.145-.388-.266-.849-.553-1.159-.047-.051-.142-.025-.158.041l.006.003zm-1.565 7.804l-.006.016c-.01.034 0 .075.025.097.48.468.585 1.144.689 1.778a12.07 12.07 0 0 1 .155 2.34c-.006.202.31.202.316 0 .022-.849-.044-1.699-.199-2.532-.111-.588-.234-1.447-.834-1.747-.041-.022-.088-.015-.123.016-.01.01-.019.016-.022.029v.003zm1.382-.209c.752 1.367.797 2.899.79 4.424 0 .202.316.202.316 0 .006-1.522.022-3.253-.885-4.554-.095-.132-.303-.015-.221.13zm-23.91 9.793l2.203-.331 2.172-.449 4.384-1.048 8.585-2.469 4.78-1.598c.382-.133.218-.742-.168-.61-5.624 1.952-11.361 3.597-17.136 5.04l-2.371.591c-.841.218-1.65.508-2.497.698-.117.025-.066.205.05.18l-.003-.004z"/><path d="M85.801 103.117c.215.035.462-.025.67-.079l.604-.174 1.22-.382c.171-.057.281-.227.231-.407-.044-.161-.237-.294-.408-.231l-1.207.427-.597.195c-.196.07-.446.152-.607.294-.114.098-.063.332.095.357z"/><path d="M88.288 100.094c-.225.925.032 1.857.341 2.738s.8 1.797 1.328 2.621c1.151 1.794 2.592 3.376 3.778 5.144.224.335.774.019.547-.319l-3.635-4.913c-.522-.787-.98-1.611-1.343-2.482s-.528-1.867-.835-2.792c-.028-.085-.158-.095-.18 0v.003zm50 35.977c-.294 1.062-.361 2.205-.465 3.3l-.322 3.414-.531 6.679c-.298 4.497-.449 9.007-.275 13.513.094 2.507.287 5.012.644 7.497.042.278.522.215.497-.066a121.51 121.51 0 0 1-.531-13.327c.066-4.462.37-8.918.752-13.364l.338-3.723c.117-1.241.332-2.596.234-3.875-.012-.186-.284-.243-.338-.048h-.003zm24.176 30.877l-.715-5.4-.85-5.318-1.802-10.475c-.638-3.455-1.413-6.887-2.263-10.295-.759-3.041-1.432-6.066-3.187-8.719-1.599-2.419-3.739-4.424-6.179-5.978-.437-.277-.844.42-.408.695 2.118 1.333 4.021 3.019 5.5 5.04.929 1.273 1.691 2.656 2.216 4.143.493 1.403.803 2.855 1.176 4.292 1.742 6.723 2.997 13.563 4.166 20.407l.99 5.744c.347 1.983.796 3.944 1.176 5.924.022.12.196.066.18-.05v-.01zm-7.183-.061c-.196.155-.433.266-.641.405l-1.018.631a17.66 17.66 0 0 1-1.827.973c-1.148.537-2.359.931-3.591 1.225-2.109.502-4.296.789-6.462.881a31.23 31.23 0 0 1-4.757-.17c-.433-.048-.433.634 0 .682 2.605.274 5.263.287 7.855-.105 2.276-.344 4.596-.792 6.711-1.724.756-.331 1.464-.726 2.15-1.187.335-.224.651-.455.948-.723l.762-.755c.091-.082-.041-.205-.133-.133h.003zm-18.292 8.902c.294.098.527.215.844.266l1.005.104 1.95.082c1.287.006 2.573-.066 3.847-.237 2.567-.344 5.074-1.045 7.46-2.052 1.369-.578 2.675-1.273 3.917-2.085.338-.221.028-.761-.319-.546-4.325 2.678-9.262 4.216-14.364 4.285a28.65 28.65 0 0 1-2.153-.053l-1.005-.082c-.18-.016-.354-.032-.534-.038-.209-.007-.392.047-.601.053-.177.007-.209.25-.041.307l-.006-.004z"/><path d="M136.902 171.581l-.158 3.325c-.012.288.439.288.449 0l.054-3.325c0-.224-.335-.221-.345 0zm18.291-4.182c-.06.268-.047.574-.041.849s.044.546.07.818l.129 1.671c.022.42.663.426.657 0-.01-.559-.076-1.118-.139-1.671l-.095-.837c-.041-.278-.06-.571-.139-.83-.063-.206-.388-.228-.439 0h-.003zm8.493-.375c-.386.123-.708.445-1.005.708l-1.192.994a23.54 23.54 0 0 1-3.095 2.094c-1.925 1.093-4.005 1.895-6.161 2.4-.395.092-.227.701.168.61 2.206-.518 4.337-1.349 6.316-2.461 1.097-.618 2.14-1.329 3.123-2.115l1.179-1.033c.31-.294.689-.635.815-1.055.026-.085-.06-.173-.145-.145l-.003.003zM151.6 177.537c.765-.108 1.517-.114 2.276-.304l1.861-.552c.746-.253 1.47-.553 2.185-.885 2.412-1.114 4.593-2.567 6.651-4.241.338-.274-.149-.767-.481-.48-1.947 1.661-4.204 3.041-6.527 4.109l-2.115.865-1.739.581-2.159.727c-.12.028-.066.195.051.18h-.003zm-.32-3.356c.006.041-.007.085-.007.127 0 .053.016.11.026.164l.047.309.092.739c.047.493.041.989-.007 1.481-.012.139.127.256.256.256.149 0 .246-.117.256-.256.038-.514.013-1.029-.06-1.541-.035-.249-.089-.492-.161-.732l-.117-.338-.063-.152c-.025-.047-.066-.079-.089-.126-.047-.104-.189-.026-.17.072l-.003-.003z"/><path d="M163.791 167.571c-.136.161-.006.47.029.66a9.58 9.58 0 0 1 .097.786c.051.489.032.982-.031 1.468-.022.171.161.316.316.316.189 0 .293-.145.316-.316a5.87 5.87 0 0 0-.029-1.658c-.044-.278-.136-.552-.234-.811-.044-.123-.094-.247-.161-.36-.053-.092-.205-.199-.303-.085zm-24.885 8.722c-.139.322.082.723.177 1.039l.373 1.355.664 3.189c.291 1.939.348 3.906.209 5.861-.026.37.55.37.578 0 .145-1.958.082-3.925-.183-5.87-.149-1.084-.354-2.161-.645-3.215l-.43-1.352c-.108-.309-.218-.909-.534-1.064-.067-.035-.174-.025-.209.054v.003zm10.698-.562c-.458 1.853-.281 3.83.06 5.697s1.003 3.792 1.884 5.542c.184.363.731.044.547-.319-.859-1.677-1.479-3.465-1.83-5.315s-.316-3.701-.386-5.567c-.006-.152-.233-.193-.271-.038h-.004zm5.158 1.941c.098.524.449 1.016.712 1.468l.942 1.781c.527 1.102.948 2.252 1.283 3.426.111.395.724.228.613-.17-.338-1.21-.781-2.384-1.324-3.518a20.17 20.17 0 0 0-.971-1.772c-.287-.467-.635-1.042-1.119-1.323-.076-.044-.151.029-.139.108h.003zm8.029-4.582c-.113.246-.057.578-.034.84.031.388.107.777.18 1.162.161.846.363 1.686.648 2.498.525 1.497 1.343 2.886 2.393 4.077.297.338.796-.158.496-.496-1.037-1.162-1.849-2.46-2.342-3.941l-.652-2.29-.256-1.073c-.069-.256-.11-.594-.284-.796-.038-.044-.123-.035-.149.019zM136.3 205.168c.84-1.329 1.343-2.848 1.931-4.298s.952-2.981 1.249-4.506c.505-2.596.695-5.252.626-7.892-.01-.404-.642-.407-.633 0 .07 2.615-.126 5.224-.61 7.794-.278 1.487-.695 2.937-1.09 4.399-.414 1.532-1.135 2.934-1.695 4.412-.05.132.152.205.222.091z"/><path d="M137.282 203.955c.224.25.429.505.692.717l.837.67c.522.416 1.078.792 1.635 1.165l3.546 2.166c2.612 1.412 5.4 2.482 8.124 3.651l8.207 3.53 4.109 1.642c1.343.493 2.709.96 4.135 1.131 1.15.139 2.487.123 3.483-.559s1.246-1.904.907-3.041-1.09-2.305-1.824-3.262a27.26 27.26 0 0 0-2.437-2.754c-3.515-3.477-7.865-6.158-10.668-10.314-.68-1.01-1.258-2.093-1.647-3.252-.424-1.267-.541-2.549-.617-3.875s-.205-2.776-.743-4.02c-.467-1.08-1.754-1.207-2.642-.547-.493.367-.822.882-1.138 1.399-.282.461.449.888.724.424s.591-1.043 1.106-1.298 1.027-.079 1.233.467c.461 1.235.569 2.571.642 3.872.069 1.231.196 2.444.572 3.625a13.81 13.81 0 0 0 1.384 3c2.447 4.014 6.382 6.676 9.844 9.726 1.78 1.57 3.423 3.269 4.666 5.303.569.928 1.365 2.346.708 3.416-.572.929-1.91 1.043-2.886 1.011-1.388-.047-2.735-.483-4.034-.941a84.45 84.45 0 0 1-3.913-1.503l-7.843-3.3c-2.564-1.09-5.162-2.132-7.675-3.335-1.182-.565-2.339-1.175-3.461-1.854s-2.194-1.443-3.278-2.188c-.256-.174-.509-.354-.759-.534-.272-.196-.569-.335-.863-.493-.101-.053-.193.073-.12.155h-.006z"/><path d="M172.835 217.278c-.344.382-.616.833-1.008 1.168-.417.354-.92.597-1.445.736-1.33.351-2.747.047-4.065-.234-2.696-.574-5.269-1.601-7.83-2.595-4.89-1.898-9.771-3.837-14.443-6.231-2.636-1.352-5.2-2.852-7.627-4.554-.446-.312-.87.42-.427.73 4.498 3.151 9.436 5.589 14.487 7.721 2.513 1.061 5.052 2.049 7.596 3.025 2.678 1.023 5.368 2.094 8.191 2.656 1.441.287 3.031.483 4.463.041 1.002-.309 2.418-1.162 2.355-2.359-.006-.117-.158-.202-.25-.104h.003z"/><path d="M164.328 217.916c-.199-.085-.341-.208-.525-.316-.212-.123-.468-.205-.695-.296l-1.587-.648-3.787-1.509-3.664-1.611-6.761-2.918-2.927-1.323c-2.513-1.307-4.884-2.877-7.116-4.62-.351-.275-.857.212-.499.499a41.97 41.97 0 0 0 9.559 5.814l10.817 4.566 3.629 1.453 1.849.679.828.278s.531.075.797.161c.117.038.202-.152.085-.202l-.003-.007zm5.21-6.629l-2.462 2.198c-.683.739-1.255 1.567-1.663 2.482a.23.23 0 0 0 .42.177c.373-.916.889-1.79 1.552-2.523.709-.78 1.524-1.475 2.289-2.201.089-.085-.041-.208-.133-.133h-.003zm-17.247-21.697c0 .928.025 1.825.187 2.744s.391 1.819.704 2.694c.633 1.762 1.518 3.401 2.532 4.971 1.995 3.079 4.296 5.892 6.86 8.513 1.483 1.516 3.019 2.981 4.612 4.377.291.256.718-.161.43-.429-5.333-4.93-10.602-10.055-13.586-16.804-.832-1.882-1.518-3.991-1.552-6.066 0-.12-.187-.12-.187 0zm-12.122-1.067c.325.344.645.644 1.078.868s.866.388 1.315.53c.954.297 1.95.48 2.94.616 2.143.291 4.286.351 6.35-.385.3-.107.161-.591-.133-.477-1.925.761-4.093.562-6.101.291-1.88-.256-3.651-.689-5.335-1.589-.095-.05-.187.07-.114.149v-.003zm10.988 2.977c-.028-.028-.066-.051-.091-.073-.041-.038-.117-.041-.171-.038-.114.007-.224.06-.304.139-.173.174-.17.458-.025.651.079.104.18.18.307.215.117.031.253.028.367-.016.24-.089.436-.325.41-.594a.48.48 0 0 0-.227-.372c-.136-.086-.297-.089-.436-.019-.086.041-.114.167-.064.243a.18.18 0 0 0 .244.063c.031-.019-.041.009-.003 0 .053-.019-.026-.006.012-.006h.029l.031.012c-.012.003-.038-.019-.003 0 .007.003.016.01.022.013.026.016-.003.009-.006-.006 0 .003.038.037.038.037-.013 0-.019-.031-.01-.009.007.009.01.019.016.028.016.029-.006-.012-.003-.012s.01.035.013.038c.009.034 0-.007 0-.007v.029.028c0 .038.006-.028 0-.003-.003.019-.01.038-.016.057s-.016.016 0 0c-.006.006-.013.025-.016.031-.006.013-.031.038-.031.051l.012-.016s-.009.013-.016.019-.009.013-.015.016l-.023.019c.035-.022-.019.016 0 0l-.06.035c-.028.015.007 0 .007 0-.007.006-.026.009-.032.012-.019.007-.038.01-.057.016.003.003-.016 0-.025 0h-.063c.041.009-.026 0 0 0-.007 0-.016-.003-.022-.006-.013 0-.023-.007-.035-.01-.029-.009 0 0 .006.003-.016 0-.035-.019-.05-.028l-.01-.006c0 .006-.013-.013-.019-.016l-.019-.019c-.009-.013-.022-.013 0 0-.013-.006-.022-.035-.028-.047s-.01-.016-.013-.026c.013.038-.009-.022 0 0-.006-.022-.013-.041-.016-.063 0-.006 0-.016-.003-.022.01.041 0 .009 0 0v-.047c0-.029-.006-.007 0 0 0-.003.006-.022.006-.026s.004-.019.007-.025v-.003c0-.016.022-.041.031-.054-.006.007-.016.026 0 0 .01-.009.016-.019.026-.025-.007.006.025-.019.031-.022l.044-.025.01-.004.028-.009c.01-.003.019-.006.029-.006.003 0 .031-.007.012 0 .019 0 .035-.003.054-.016.029-.003.044-.003.063 0 .045.009.079-.044.045-.079h.012zm.986 3.237c-.231.063-.471.142-.617.344s-.164.486 0 .679c.158.18.44.196.642.088.215-.113.323-.369.316-.603-.003-.139-.041-.3-.151-.391a.31.31 0 0 0-.225-.079c-.098.006-.171.05-.228.129-.05.07-.012.186.061.227.085.045.17.016.227-.06 0 .004-.038.035-.025.029.019-.01-.041.012-.006 0 .028-.01-.013.003-.013 0 .006.009.038-.013.009 0h-.012c.019.009-.019-.013.006.006-.009-.003-.032-.022 0 0 .01.016.013.025.019.035 0-.006-.009-.032 0 0l.016.063c0 .01.009.028 0-.006v.031.07.025c.006-.025 0 .041 0 0-.003.019-.007.038-.013.054l-.019.06c-.009.025.003 0 0-.003l-.016.031c-.009.019-.022.035-.031.051.019-.029-.003.003-.016.012-.006.007-.016.016-.022.022h-.003c-.016.016-.013.016.006 0-.003.01-.038.023-.047.029.031-.01-.032.019 0 0-.007 0-.013.006-.023.006-.015.006-.034.006-.05.013-.022.006.041 0 .003 0h-.022-.029-.015.009s-.016 0-.022-.003-.013-.004-.022-.007l-.013-.003c.026.006-.006-.003-.009-.006s-.013-.006-.019-.01-.025-.025-.01-.006-.006-.006-.009-.009-.032-.029-.003 0c-.013-.013-.019-.032-.029-.045.01.035-.012-.019 0 0 0-.006-.003-.015-.006-.022s-.003-.019-.006-.028c0 .038-.007-.022 0 0v-.06c0-.038-.007.022 0 0 0-.01.003-.019.006-.029s.009-.031.013-.047c0-.006.019-.044 0-.009l.009-.023.032-.053c.003-.007.028-.035.006-.01.009-.009.019-.019.028-.031.016-.016.029-.035.045-.051a.59.59 0 0 1 .095-.082 2.42 2.42 0 0 1 .256-.151c.094-.051.028-.203-.073-.174v-.003zm1.741 5.258c.073.006.117-.067.117-.133 0-.079-.06-.148-.127-.186-.107-.06-.249-.057-.363-.022-.234.069-.433.297-.421.552s.196.442.43.512.503-.003.626-.218c.136-.24.07-.609-.224-.688-.092-.026-.199.031-.222.126s.029.196.127.221c.009 0 .038.013.006 0s0 0 .003.003.013.01.016.013l-.019-.016c.01.009.013.016.016.016.016.012-.025-.038-.016-.019.003.006.007.012.013.016 0 .003.006.019.013.022 0 0-.016-.041-.013-.026.006.023.009.029.013.038s.006.041 0 .007 0-.003 0 .006v.028.023c0 .028.009-.048 0-.013-.004.019-.007.035-.013.05-.013.038 0-.012.006-.009l-.012.022c-.004.006-.007.013-.013.019-.019.028.019-.016.003-.006s-.025.022-.035.034c.035-.037.022-.015.007-.006s-.019.01-.026.016-.041.016.013-.003c-.006 0-.013.006-.022.009-.019.007-.038.01-.054.013-.009 0 .051-.006.016 0h-.025-.054-.016l.029.003c-.01 0-.019 0-.026-.006-.019-.003-.034-.01-.053-.016-.01 0-.038-.016-.01 0s0 0-.006-.003c-.016-.01-.032-.016-.048-.026-.006-.006-.015-.009-.022-.015s.035.028.01.006c-.016-.013-.029-.025-.041-.041-.007-.006-.01-.013-.016-.019.035.041.016.019.006.006-.006-.006-.028-.041-.028-.05 0-.003.012.041.009.022s-.009-.025-.009-.035-.007-.022-.007-.025 0 .041.003.022v-.044c0-.035-.006.028 0 .006l.013-.057c0-.009.006-.019.01-.028 0 0-.016.035-.01.019.016-.032.029-.051.038-.067.019-.028-.019.023 0 0 .006-.006.013-.012.016-.018l.047-.045c.013-.012-.016.013-.016.013l.042-.028c.019-.013.044-.019.06-.032l-.016.006c.028-.006.038-.012.047-.016a.12.12 0 0 0 .032-.006h.041 0c.019.01.047.01.066.013h.01c.012.019.019.022.025.025.019.013-.022-.028 0 0 .006.006.016.025.003 0 0-.006-.006-.022-.009-.013-.003.032.028.054.057.057l.003-.009zm2.786 3.461c-.193-.142-.477-.142-.679-.015-.225.138-.317.41-.26.663s.304.435.563.435.509-.157.566-.413c.031-.142.006-.284-.057-.417a.53.53 0 0 0-.307-.268c-.088-.032-.199.034-.221.126-.022.104.032.183.126.221-.06-.022 0 0 .019.013l-.009-.01.025.022c.007.006.013.013.019.019.029.032-.012-.019-.003-.006l.028.047c.004.01.01.019.013.025.006.013-.019-.047-.003-.006 0 .01.006.016.006.025s.01.048.003.01 0 0 0 .009v.026.06c0-.06.007-.035 0-.016 0 .009-.006.022-.009.031s-.006.016-.01.026c.016-.054.013-.032.007-.016-.007.009-.01.019-.016.028-.009.016-.028.029.009-.012-.012.015-.025.031-.041.044-.006.006-.012.009-.019.016.042-.041.026-.019.013-.01s-.035.019-.054.029c-.031.015.051-.016.01-.004-.01 0-.019.007-.029.01-.019.006-.041.009-.06.013l.051-.007c-.041.007-.082.007-.123 0l.05.007-.063-.013c-.01 0-.019-.006-.029-.01.057.016.023.01 0 0-.009-.006-.018-.009-.025-.015-.016-.01.025.025.003.003-.006-.007-.015-.013-.022-.022s-.031-.038-.012-.013-.004-.006-.01-.013-.009-.019-.016-.028-.009-.019-.012-.028-.013-.029 0 0 0 .003 0 0c-.007-.019-.013-.041-.016-.06.009.025 0 .019-.003.003v-.038-.038c0-.01.003-.044 0-.013s0-.003 0-.012.006-.026.009-.038.01-.019.01-.029c-.007.035-.013.029-.007.016l.026-.044c.022-.041-.019.016.003-.01.016-.015.028-.031.044-.047s-.019.01.003-.003l.032-.019c.009-.006.019-.009.028-.016.035-.016-.031.01.007 0 .022-.009.044-.016.066-.019.051-.009-.006-.003.009-.003s.029 0 .042-.003h.079c.019.003.034.009.047.013s.022.009.035.012c-.026-.006-.016-.006-.007 0s.016.01.026.013c.06.035.145.016.18-.048s.013-.135-.048-.18l.013-.003zm3.177 3.429a.5.5 0 0 0-.541-.114c-.088.035-.177.086-.237.162-.072.088-.117.192-.12.309-.003.202.117.42.304.505a.47.47 0 0 0 .341.035c.095-.025.183-.085.244-.161a.6.6 0 0 0 .135-.332c.013-.126-.034-.24-.113-.338-.029-.034-.089-.053-.13-.053a.19.19 0 0 0-.13.053c-.031.035-.056.079-.053.13s.022.088.053.129c-.003-.003-.028-.041-.012-.015.009.019.016.022.019.028.012.025-.016-.041-.01-.019s.013.044.016.066l-.006-.047a.43.43 0 0 1 0 .088l.006-.047c-.003.029-.013.054-.019.079s.019-.038.01-.019l-.032.054c-.003.006-.009.012-.013.019.029-.045.022-.029.013-.016l-.028.028c-.032.032.028-.019.003 0-.013.01-.026.016-.038.022s-.035.01.016-.006l-.057.016s.05-.003.025-.003h-.025c-.057 0 .025.009-.007 0-.012 0-.025-.007-.038-.01s-.031-.019.013.007c-.006-.004-.013-.007-.019-.01-.013-.006-.025-.016-.038-.022-.022-.016.019.013.016.013s-.019-.016-.025-.022l-.029-.029c-.006-.006-.009-.012-.016-.019.032.032.023.029.013.016a.3.3 0 0 1-.025-.041c-.013-.032-.022-.063-.007-.013l-.022-.079c-.006-.031.004.045 0 .013v-.025c0-.035.013-.06 0-.013l.01-.038c0-.006.003-.019.009-.022 0 0-.019.041-.006.019.006-.013.013-.025.022-.038-.003 0-.016.025.01-.016l.028-.028c.025-.022.003-.003 0 0l.035-.019c.006-.003.016-.006.022-.01-.038.026-.019.007-.006 0s.031-.009.05-.015c.063-.003.032-.003.016-.003.032 0 .063-.007.095-.007h.047-.006c.006 0 .016.003.022.007a.22.22 0 0 1 .044.012h.007c-.007.007.012.01.019.016.053.028.12.016.158-.032s.031-.113-.01-.161l-.003.016zm2.942 3.351c.016 0 .035 0 .05-.007.01 0 .016-.006.026-.009.022-.003.044 0 .063-.013s.041-.038.053-.063c.06-.117-.009-.256-.123-.306-.227-.104-.483.038-.606.237s-.095.467.069.641.439.23.635.082a.48.48 0 0 0 .18-.275c.025-.126 0-.271-.107-.354-.041-.031-.082-.056-.136-.056-.047 0-.104.022-.136.056-.063.07-.085.206 0 .272l.029.028c-.004 0-.029-.041-.016-.022.003.007.016.032 0-.003s0 0 0 .013c-.016-.057-.003-.044-.003-.029v.022c0 .032.009-.047.003-.025-.003.029-.022.07-.006.035s-.004.006-.01.013c-.025.041.025-.026-.003.003-.01.009-.019.019-.025.025-.019.019.019-.016.019-.016s-.016.01-.016.013c-.019.013-.048.016.006 0-.028.006-.057.013-.022.006s-.016 0-.025 0c.016-.006.019.007-.003 0-.016 0-.029-.009-.045-.012-.034-.01.032.015.01.006l-.029-.016c-.006-.003-.015-.009-.022-.013.003-.003-.012-.012-.025-.025-.003-.006-.009-.009-.013-.016-.019-.022.01.01.01.013 0-.013-.022-.035-.029-.047s-.006-.032 0 .009c-.006-.028-.012-.035-.012-.044-.006-.019.006-.022 0 .009v-.041-.025c0-.044-.01.032 0 0l.009-.041c0-.009.007-.016.01-.025.006-.022-.019.038 0 .006.006-.013.016-.028.022-.041l.016-.022.028-.029c.006-.006.013-.012.019-.015.016-.016-.032.022-.003.003.013-.01.025-.016.041-.025.028-.016-.003-.004-.003 0 0-.004.025-.01.028-.01.016-.006.035-.009.051-.012.031-.007-.026 0-.003 0h.031c.019 0-.035-.01-.003 0s.009.003 0 0c.006.003.019.015-.003-.007.031.025.038.029.016.01l.006.006c-.022-.025-.01-.013-.003-.003s-.01-.029 0 0l.006.025c0-.022 0-.016.003.013.003.012.016.038.026.044l.003-.054c-.01.003-.019.003-.026.003-.06 0-.06.089 0 .095l-.012.013z"/><path d="M165.835 212.498c-.158-.108-.357-.095-.518 0s-.285.274-.269.467.139.354.316.433c.089.038.184.063.282.057a.53.53 0 0 0 .265-.083c.139-.097.231-.252.193-.426-.028-.142-.149-.243-.262-.325-.038-.029-.108-.032-.152-.019s-.095.047-.12.092c-.054.101-.019.208.073.271.006.003.041.032.012.01s0 0 .01.006c.015.016.034.028.047.047s.013.029-.006-.009c.003.009.012.016.016.025.022.038 0-.009-.004-.013.007 0 .007.032.01.038l-.006-.053v.038l.006-.054s-.003.019-.006.025c0 .019.022-.041.006-.013-.003.007-.006.013-.013.019-.016.029.026-.025.007-.009-.01.006-.016.019-.026.025-.031.029.041-.028.003-.003-.009.006-.019.01-.028.016-.032.019.051-.019.009-.003-.022.009-.047.012-.069.015l.05-.006a.6.6 0 0 1-.104 0l.051.006c-.016 0-.035-.006-.051-.009s-.041-.019-.057-.019l.029.013c-.019-.01-.029-.013-.035-.019s-.016-.01-.022-.013-.038-.028-.01-.003 0 0-.003-.003a.17.17 0 0 0-.019-.019c-.003-.006-.012-.016-.016-.019s.029.041.016.019l-.022-.035c-.013-.025.006.016.006.016 0-.006-.012-.054-.015-.057l.003.028v-.044c0-.009.003-.044 0-.006s0 0 .003-.01.006-.015.006-.025c.007-.016-.012.022-.003.01l.029-.051c.009-.012-.019.022-.004.003.007-.006.01-.012.016-.019l.022-.022c.029-.025.007-.003-.003.003.016-.009.032-.022.048-.031.009-.003.015-.01.025-.013.028-.016-.035.013 0 0l.063-.019c.01 0 .019-.006.029-.006.031-.003-.026 0 0 0h.06c.022 0-.013 0-.013 0 .032.003.041.009.051.013.056.022.126-.019.148-.073.025-.06 0-.12-.05-.155l-.004-.009zm.94-.494h-.025c.016 0 .031-.003.047-.006.032-.01.06-.029.089-.048l.132-.094.253-.184c.184-.129.38-.24.569-.356l1.233-.727c.158-.094.228-.319.127-.48s-.313-.23-.481-.126l-1.233.802a4.21 4.21 0 0 0-.537.467c-.085.086-.168.174-.234.272-.032.044-.063.092-.089.136-.034.057-.041.117-.063.177-.047.12.114.227.215.164l-.003.003z"/><path d="M165.662 212.624c.004-.408.095-.825.171-1.226s.18-.808.297-1.206l.743-2.309c.142-.378-.48-.555-.61-.167-.272.809-.512 1.63-.676 2.466-.083.411-.155.828-.187 1.248s.022.805.079 1.216c.016.107.183.079.183-.026v.004zm-2.921-2.337c.199-.288.237-.638.294-.976l.205-1.241c.149-.834.386-1.611.752-2.378.174-.366-.376-.685-.546-.319-.354.767-.614 1.522-.718 2.362-.051.404-.073.809-.092 1.216l-.015.606c0 .202.037.455-.048.632-.05.11.092.196.161.095l.007.003zm-3-3.243c.117-.641.303-1.273.528-1.886l.746-1.806c.189-.363-.376-.682-.547-.319-.291.619-.569 1.279-.711 1.952s-.199 1.348-.212 2.033c0 .108.174.139.193.026h.003zm-3.489-3.215c.272.189.423-.383.483-.537l.361-1.068c.234-.669.483-1.345.951-1.891.266-.307-.18-.755-.445-.445-.459.533-.74 1.152-.942 1.822-.098.322-.165.647-.234.975l-.098.525-.038.233c-.01.057-.063.218.009.212-.095.009-.126.12-.047.174zm-2.33-3.686c.095-.136.13-.322.19-.477l.205-.518.456-1.017c.325-.66.72-1.288 1.188-1.86.275-.338-.212-.72-.477-.366a10.01 10.01 0 0 0-1.192 2.024 8.54 8.54 0 0 0-.376 1.074c-.054.189-.089.382-.12.578-.029.173-.079.366-.048.54.016.085.13.082.171.022h.003zm-1.67-4.876l.683-.871.702-.881c.474-.569.977-1.106 1.562-1.56.132-.105.107-.332 0-.439-.13-.13-.31-.105-.44 0a8.37 8.37 0 0 0-1.552 1.67l-.61.944-.553 1.02c-.079.133.117.244.205.12l.003-.003z"/><path d="M168.409 209.517c-.136-.098-.332-.117-.493-.145l-.484-.079c-.332-.048-.66-.07-.995-.063-.705.012-1.36.17-2.033.366-.383.11-.168.679.218.515.582-.25 1.261-.367 1.887-.427.316-.031.632-.044.952-.044a5.05 5.05 0 0 1 .49.029c.145.015.294.053.439.025.085-.019.082-.13.022-.171l-.003-.006zm-2.945-2.49l-2.14-.609c-.664-.133-1.457-.291-2.096 0-.401.186-.05.805.351.6.256-.13.569-.095.847-.076l.974.066c.673.048 1.35.063 2.013.196.117.022.168-.145.051-.18v.003zm-3.041-2.614c-.142-.205-.392-.316-.62-.401-.262-.098-.54-.161-.815-.212-.613-.11-1.265-.104-1.884-.047-.183.016-.338.142-.338.338 0 .164.155.36.338.338a12.78 12.78 0 0 1 1.716-.079l.772.025c.256.028.477.126.723.177.073.016.155-.066.108-.139zm-3.223-3.281l-1.4-.78-1.499-.656c-.177-.07-.385.075-.43.243-.05.186.064.375.244.429l3.012.932c.101.034.162-.117.073-.171v.003zm-2.853-3.667c-.506-.774-1.382-1.231-2.229-1.525-.167-.057-.376.066-.417.237-.041.183.054.36.237.417.408.126.762.287 1.138.454l1.144.55c.079.034.187-.041.13-.13l-.003-.003zm-.806-3.279c.069-.111-.022-.275-.051-.386-.041-.158-.158-.328-.262-.451-.199-.231-.427-.442-.661-.638-.509-.417-1.065-.742-1.678-.982-.181-.07-.392.075-.437.249-.053.199.067.373.25.436.525.189 1.053.48 1.502.84l.338.294.332.328.167.139c.057.047.124.073.187.114.079.05.234.177.313.053v.004z"/><path d="M150.923 191.845c.19.212.689.139.939.107.373-.047.74-.135 1.11-.221.746-.173 1.495-.252 2.257-.303.429-.028.423-.71 0-.666-.765.082-1.511.177-2.251.398l-1.062.303-.544.098c-.164.022-.313 0-.446.11-.053.045-.041.127 0 .171l-.003.003z"/><path d="M154.002 191.026c-.557-.088-.977.193-1.328.603-.446.521-.797 1.124-1.065 1.753-.547 1.263-.778 2.687-.705 4.058.034.606.069 1.354.332 1.91.294.619.907.502 1.368.139 1.006-.789 1.47-2.043 1.78-3.24.405-1.566.765-3.284.177-4.85-.142-.379-.708-.335-.724.097-.041 1.245.136 2.511.55 3.689.354 1.007.866 2.116 1.951 2.495s2.01-.275 2.298-1.298-.048-2.204-.655-3.076c-.765-1.093-1.918-1.8-3.072-2.416-.484-.259-.914.48-.43.733 1.027.537 2.108 1.137 2.797 2.097.56.777 1.053 2.188.288 3.006-.389.417-1.015.268-1.41-.057-.452-.369-.717-.963-.932-1.49-.478-1.175-.689-2.416-.645-3.679l-.724.098c.436 1.133.367 2.34.126 3.511-.205.998-.471 2.05-1.008 2.928-.126.205-.266.401-.43.574-.107.117-.436.502-.607.471-.139-.025-.189-.562-.215-.698-.054-.291-.088-.581-.107-.875a8.64 8.64 0 0 1 .398-3.249 10.64 10.64 0 0 1 .73-1.718c.272-.518.636-1.188 1.268-1.298.104-.019.107-.199 0-.215l-.006-.003z"/><path d="M149.415 201.085c.07-.455.269-.906.392-1.351l.449-1.485c.3-.887.642-1.755 1.059-2.595.67-1.352 1.505-2.622 2.469-3.784.253-.306-.184-.748-.44-.439a20.27 20.27 0 0 0-2.595 3.967 16.44 16.44 0 0 0-1.04 2.63c-.152.521-.278 1.046-.367 1.582-.079.487-.044.973-.107 1.453-.013.104.168.13.183.025l-.003-.003zm11.173-5.539c-.117-.593-.414-1.111-.724-1.626s-.714-.859-1.182-1.219l-1.47-1.124c-.24-.148-.509-.205-.781-.265l-.986-.221c-.474-.108-.676.634-.202.729l.844.168c.253.05.537.072.762.205.496.287.948.688 1.41 1.026s.812.625 1.106 1.096.61.963 1.062 1.323c.073.06.177.006.158-.092h.003z"/><path d="M157.31 184.991c.079 1.301.525 2.586.797 3.856l.67 3.837c.401 2.652.445 5.318.306 7.992-.022.446.683.449.696 0 .076-2.69-.098-5.403-.399-8.075-.145-1.316-.388-2.63-.667-3.922s-.524-2.63-1.175-3.748c-.06-.101-.238-.063-.231.063l.003-.003zm4.928 18.622c1.309.038 2.624-.107 3.929-.18l3.933-.176 7.868-.259 7.792-.253c2.263-.23 4.555-.748 6.518-1.942.838-.509 1.764-1.2 2.118-2.154s-.234-1.844-1.05-2.384-1.729-.704-2.645-.796l-3.332-.192c-2.434-.19-4.887-.591-7.198-1.399-2.295-.806-4.498-1.996-6.588-3.234-1.116-.66-2.133-1.437-2.914-2.482-.734-.986-1.271-2.107-1.679-3.262-.309-.881-.474-2.208-1.359-2.732-.812-.48-1.925.079-2.07.998-.07.436.603.616.66.183.054-.404.424-.764.857-.657s.651.597.784.989l.97 2.703c.863 1.904 2.159 3.442 3.936 4.554s3.831 2.242 5.848 3.091c2.118.891 4.343 1.44 6.616 1.747l3.303.29c.971.044 1.954.028 2.912.215.834.164 2.187.609 2.392 1.579.225 1.048-1.065 1.806-1.804 2.261-4.025 2.472-8.924 2.002-13.435 2.157l-8.184.278-4.087.233c-1.363.076-2.785.108-4.154.335-.284.047-.205.483.066.489h-.003z"/><path d="M194.519 198.388c-.094.426-.126.878-.256 1.291a3.32 3.32 0 0 1-.742 1.257c-.667.723-1.559 1.203-2.438 1.62-1.849.878-3.809 1.342-5.822 1.661-4.186.667-8.478.537-12.701.695-2.586.098-5.166.288-7.732.625-.43.057-.434.739 0 .683 4.697-.626 9.442-.645 14.171-.78 4.229-.12 8.528-.496 12.404-2.337 1.002-.477 2.023-1.046 2.737-1.917.598-.727 1.204-1.939.632-2.833-.06-.091-.221-.088-.249.032l-.004.003z"/><path d="M163.218 204.637c.443.487 1.249.417 1.846.351l2.393-.227 4.922-.269 9.85-.287c1.795-.057 3.572-.19 5.314-.648.487-.126.278-.881-.209-.751-1.492.391-3.047.483-4.58.534l-4.739.107-9.546.474-2.728.281-1.214.12c-.405.019-.765-.057-1.157-.063-.199-.004-.278.236-.155.375l.003.003zm27.076-8.277c-.325-.063-.591.546-.733.767-.247.379-.424.815-.563 1.245-.284.852-.398 1.771-.357 2.668.016.354.563.357.553 0-.022-.887.114-1.746.383-2.593a9.47 9.47 0 0 1 .483-1.212c.054-.114.528-.818.234-.878v.003z"/><path d="M166.519 183.73l.281 1.377.465 1.468c.3.856.645 1.699 1.068 2.501.844 1.607 2.09 2.994 3.55 4.067s3.307 1.908 5.061 2.609c1.821.726 3.721 1.317 5.636 1.73 2.134.462 4.34.689 6.521.708.408.003.405-.619 0-.632-3.749-.126-7.517-.789-11.047-2.062-1.755-.631-3.509-1.386-5.09-2.378a11.73 11.73 0 0 1-3.758-3.742 16.6 16.6 0 0 1-1.42-2.798 33.06 33.06 0 0 1-.527-1.453c-.168-.489-.399-.953-.56-1.446-.038-.114-.209-.069-.18.051zm-8.402 1.505c.506.325 1.277.186 1.846.151l2.02-.218c1.382-.211 2.744-.555 4.094-.922.316-.085.177-.587-.136-.489-1.318.404-2.668.65-4.037.824l-1.941.199c-.569.047-1.353-.038-1.846.294-.06.041-.06.123 0 .161zm5.778 4.339c-.56-.49-1.435-.13-1.963.24-.563.394-1.018.928-1.293 1.556-.544 1.245-.291 2.877.831 3.73.553.42 1.268.625 1.963.54s1.328-.49 1.805-1.011c.737-.808 1.255-1.983 1.119-3.094-.215-1.731-1.963-2.483-3.534-2.116-.522.12-.3.935.221.805.974-.243 2.216.07 2.532 1.14.225.767-.113 1.671-.534 2.315-.597.909-1.618 1.557-2.706 1.089s-1.489-1.636-1.22-2.69c.149-.594.496-1.118.945-1.532.247-.227.538-.42.857-.534s.619-.154.929-.24c.079-.022.12-.135.051-.192l-.003-.006zm23.511 9.142c-.015-.035-.034-.066-.066-.088a.34.34 0 0 0-.095-.048.4.4 0 0 0-.227-.006.46.46 0 0 0-.329.335c-.034.161.026.357.149.473a.42.42 0 0 0 .24.117.44.44 0 0 0 .275-.057c.173-.097.296-.325.218-.524-.016-.041-.035-.072-.073-.094s-.085-.029-.123-.016-.076.034-.095.072-.032.082-.016.124c.007.015.01.028.013.044v.022c0 .019.009-.044 0-.016-.003.016-.006.028-.013.044-.009.029.019-.034.003-.009s-.025.038-.031.05c.025-.041.006-.009-.007 0l-.015.016c-.01.01-.032.016.009-.006l-.031.022-.019.009c-.026.013.038-.012.009-.003-.013.003-.025.01-.038.01-.006 0-.031.006 0 0s0 0-.009 0h-.022c-.013 0-.019-.01.019 0l-.041-.01c-.013-.003-.026-.016.012.007-.006-.004-.012-.007-.019-.01s-.025-.016-.035-.022c.045.028.01.009 0 0s-.015-.019-.025-.025c.032.031.016.022.007.009-.004-.006-.01-.012-.013-.019l-.019-.038c.025.045.006.013 0 0l-.01-.034c-.003-.016-.006-.067-.003-.01v-.044-.073c0 .044-.003.026 0 .01.007-.026.003-.032.01-.038.009-.025.006-.022-.003 0 .006-.01.009-.022.019-.032.015-.031-.013.01.006-.009l.025-.029.016-.015c.016-.016-.022.015 0 0a.31.31 0 0 1 .041-.026c.022-.012.022-.009.006-.006.026-.013.041-.016.054-.022.038-.01.003-.003.022-.003h.041c.003 0 .025.003.006 0 .007 0 .013 0 .023.003.025.006.053.013.079.025.044.022.082-.022.063-.063l.012.003zm-4.785-.703c-.053-.035-.101-.029-.161-.019l-.104.022c-.085.025-.164.069-.227.133-.133.135-.174.341-.101.514s.252.291.442.275a.44.44 0 0 0 .268-.107c.06-.051.101-.124.127-.199.053-.161.009-.367-.12-.477-.07-.06-.177-.073-.244 0-.06.066-.072.18 0 .243.01.006.016.016.026.025.015.016-.026-.038-.01-.016s.019.032.022.038c-.022-.038-.012-.034-.009-.022s.006.013.006.022.01.051.003.013 0 .006 0 .013v.031c.01-.044 0 .041 0 0 0 .01-.003.019-.006.029s-.019.047-.003.015-.003.007-.01.013c-.015.028-.028.028.004 0-.007.006-.013.016-.019.022.034-.019-.029.029 0 0-.007.003-.023.016-.032.016l.016-.006c-.01 0-.016.006-.025.006.025-.006.012 0 0 0h-.042c-.022 0 .038.006.019 0-.006 0-.015 0-.022-.003s-.012 0-.019-.007c-.015-.006-.028-.018.007.004-.01-.007-.022-.01-.032-.016-.038-.022-.003-.003-.003 0-.003-.01-.022-.022-.028-.029-.016-.015.022.035.006.01-.003-.006-.01-.013-.013-.019s-.006-.016-.009-.022c0 0 .012.038.006.012l-.009-.034c-.004-.022-.004-.038-.004-.054 0-.022-.009.044 0 .01l.01-.038c.006-.026-.003.009-.006.012l.019-.038c.018-.028-.016.016.009-.012.009-.013.022-.022.032-.032.022-.016.003-.003 0 0-.023.016.006-.003.009-.006l.079-.051.082-.047a.2.2 0 0 0 .098-.085c.025-.051.013-.111-.038-.139h.006z"/><path d="M177.462 196.406c-.053-.079-.145-.114-.24-.111-.05 0-.098.013-.145.032s-.104.038-.148.072c-.174.133-.323.36-.25.585a.54.54 0 0 0 .467.36c.209.015.392-.133.465-.326a.55.55 0 0 0-.127-.578c-.057-.05-.151-.06-.205 0s-.06.149 0 .206l.019.019s.022.025.006.006 0 0 .003.006l.013.022c.022.041-.006-.019.006.013.007.016.01.032.016.047 0 .007 0 .013.003.022.004.016-.003.023 0-.009v.044.044c0 .032.007-.038 0-.006 0 .01 0 .016-.006.025-.003.016-.009.029-.013.045s-.015.025.004-.01c-.004.006-.007.016-.01.022-.006.013-.013.025-.022.035l-.044.041c.022-.025.019-.016.003-.003-.022.012-.035.016-.038.022.016-.016.028-.01.013-.006l-.054.015c-.032.007.038 0 .006 0h-.022-.022c-.031 0 .038.01.006 0l-.044-.009c-.031-.013-.028-.01-.006 0l-.057-.029c-.006 0-.016-.015-.022-.015.003 0 .028.022.009.006-.012-.009-.022-.019-.031-.032-.003-.003-.013-.019-.019-.022.013.019.016.022.006.01l-.006-.007s-.016-.028-.022-.044.012.035.003.007c0-.01-.006-.016-.006-.026l-.004.007v-.073c0 .028 0 .006 0 0l.01-.035c0-.003.016-.041.003-.012.003-.007.006-.016.01-.022.009-.019.019-.035.031-.054l.019-.032c.006-.009.019-.025.003-.006.026-.032.057-.063.086-.092l.022-.022s.025-.019.009-.009c.016-.013.035-.022.054-.032a.25.25 0 0 1 .088-.025c.038 0 .06 0 .095.019.044.019.107-.025.076-.076l.009-.009zm-4.326-1.975l-.009-.006.025.041c0-.048-.016-.089-.057-.114a.31.31 0 0 0-.079-.028.38.38 0 0 0-.168-.004c-.101.016-.196.067-.268.139-.162.158-.181.395-.092.594a.53.53 0 0 0 .199.227c.108.067.247.089.37.083s.253-.042.348-.13c.066-.06.114-.148.126-.237.035-.215-.057-.451-.253-.559-.069-.038-.164-.019-.202.054s-.019.161.054.202c.006.003.016.01.022.013.019.012-.01-.007-.01-.007.007.013.026.022.035.032.003.006.01.013.013.016-.022-.016-.016-.022-.007-.007l.026.041c.01.015.009.032 0-.006.012.032.016.047.019.06 0 .006 0 .013.003.022.006.032 0-.031 0-.012v.047.025c0 .025 0-.016 0-.016-.006.013-.006.032-.01.045-.009.019-.019.031-.025.044-.016.025.025-.029.003-.006-.031.028-.028.012-.006.012-.006 0-.016.01-.022.016s-.016.009-.025.013c.022-.007-.032.019 0 0l-.064.015c-.038.01.035 0-.006 0h-.028-.064-.031c.022.007-.041 0 0 0-.022-.006-.048-.009-.07-.015h-.013c-.006-.004-.018-.013-.025-.016s-.012-.01-.022-.013c-.003 0-.032-.019-.006-.003s0 0-.007-.006l-.015-.016c-.004-.003-.01-.013-.016-.019.016.025-.022-.022 0 0l-.029-.047c-.012-.022.007-.007 0 .006 0-.003-.006-.019-.009-.022-.006-.016-.01-.032-.013-.048 0-.006 0-.019-.003-.025 0 .025.003.029 0 .013v-.063c0-.019-.009.038 0 .006 0-.006.003-.016.006-.022s.004-.016.007-.022c.012-.029.019-.038.025-.048.016-.025-.003 0 0 0l.019-.022c.006-.006.013-.012.022-.019.019-.015.016-.012 0 0 0-.006.041-.028.048-.031s.015-.01.025-.013h.009c0-.009.038-.016.051-.016l.057-.012c.031-.003.031-.003.016-.003.066-.004.098-.019.126-.057l-.047.012h.009c.051.016.082-.053.035-.082l.003-.006zm-3.88-2.401c.019-.028.025-.057.031-.091.013-.057-.016-.105-.069-.124-.041-.015-.098 0-.139.007-.035.006-.067.016-.098.025-.079.028-.152.073-.205.139-.101.12-.146.294-.089.445a.38.38 0 0 0 .168.202.51.51 0 0 0 .277.057c.174-.012.367-.104.414-.29a.37.37 0 0 0-.038-.272c-.053-.095-.148-.152-.256-.155-.085-.003-.164.079-.161.161.004.092.07.155.161.161.023 0-.044-.009-.009 0 .025.007-.032-.019-.016-.006.029.016-.016-.019-.003-.006.022.022-.013-.022-.003-.007.003.007.006.013.012.019s.01.023 0-.003c-.003-.009-.009-.025 0 0 0 0 .01.032.007.032s0-.048-.003-.022v.031c-.004 0 .012-.047 0-.019 0 .007-.004.013-.007.019-.003.016-.012.003.01-.019-.006.007-.013.019-.016.029 0 0 .028-.029.009-.013s-.022.019-.025.025l.016-.012c-.019.012-.028.019-.041.022-.022.013.013-.006.016-.006l-.051.015c-.05.01.019.004-.012.004h-.073c-.035 0 .028.006.003 0-.006 0-.016 0-.022-.004s-.013-.003-.022-.006c0 .006-.032-.009 0 0-.003 0-.047-.032-.022-.013s-.007-.006-.01-.009c-.022-.028.016.022 0-.003l-.019-.029c.01.035-.015-.028 0 0l-.009-.034c0-.016.003.025 0 0v-.041c0-.016-.006.022 0 0 0-.01.003-.023.006-.032.013-.038.003-.006 0-.003.01-.013.013-.025.022-.038.026-.041-.009.006.01-.016l.028-.028a.34.34 0 0 0 .035-.032c.003 0 .019-.016.003-.003s.006-.003.01-.006c.025-.019.053-.032.079-.045-.004 0-.023.01 0 0l.025-.009c.019-.006.041-.009.057-.025l-.12-.016c.022.025.041.047.069.063.022.013.051.003.063-.016l.007-.003zm-2.124-3.448c.019-.067-.025-.114-.082-.142-.022-.01-.044-.023-.069-.026-.038-.009-.079 0-.117.003-.082.016-.161.06-.215.12-.107.117-.148.307-.088.458a.42.42 0 0 0 .174.212c.069.044.154.066.233.069.177.007.338-.094.408-.255s.041-.395-.108-.515a.17.17 0 0 0-.113-.048c-.041 0-.089.019-.114.048s-.051.072-.047.114.015.088.047.113c.016.013.032.029.044.044l-.025-.031c.012.019.025.038.035.06l-.016-.038c.009.025.016.05.022.079l-.006-.044c.003.028.003.053 0 .082l.006-.044a.35.35 0 0 1-.019.079l.016-.038c-.01.022-.019.041-.035.06l.025-.032a.15.15 0 0 1-.047.047l.031-.025c-.015.013-.034.022-.053.032l.038-.016a.8.8 0 0 1-.076.022l.041-.006c-.028.003-.057.003-.085 0l.041.006c-.026-.003-.054-.009-.076-.022l.038.016a.34.34 0 0 1-.07-.038l.032.025c-.019-.013-.035-.028-.047-.047l.025.031c-.013-.019-.025-.038-.035-.06l.016.038c-.01-.022-.016-.047-.019-.072l.006.041v-.082l-.006.041c.003-.029.013-.057.022-.086l-.016.035a.58.58 0 0 1 .048-.082c-.026.041-.013.016-.004.006a.17.17 0 0 0 .019-.019c.026-.022-.025.016-.003 0 .007-.003.013-.009.019-.012s.022-.007.025-.013c-.018.01-.022.01-.009.003l.073-.022h.006s.047-.003.05-.006c.029-.01.045-.025.064-.048-.029.035.006-.006.009-.019l-.013.004zm-.992-3.611c-.054-.045-.12-.07-.19-.067-.012 0-.025 0-.037.003-.004 0-.013 0-.023.004s-.028.006-.044.009a.26.26 0 0 0-.094.047c-.067.048-.117.111-.143.19s-.015.17.019.249a.44.44 0 0 0 .373.243c.079 0 .161-.018.227-.066a.46.46 0 0 0 .161-.211c.064-.161.016-.373-.116-.487-.032-.028-.067-.047-.111-.047-.038 0-.085.016-.11.047-.054.06-.067.168 0 .224.015.013.028.026.037.042l-.025-.032.035.057-.016-.038c.01.025.019.054.022.079l-.006-.041a.43.43 0 0 1 0 .088l.006-.041c-.003.029-.009.054-.022.079l.016-.038c-.01.022-.022.041-.035.063l.025-.031c-.012.016-.025.031-.041.044l.032-.025c-.016.012-.035.022-.054.031l.038-.015a.24.24 0 0 1-.063.015l.041-.006h-.073l.041.006c-.031-.006-.066-.012-.097-.025l.034.016-.031-.016c-.013-.006-.022-.019-.032-.022 0 0 .025.022.019.013s-.016-.013-.019-.019l-.019-.019c-.009-.01.019.025.013.015l-.019-.028c-.003-.016-.006-.028-.006-.038v-.016c0 .022 0 0 0-.003 0-.012.009-.022.009-.035l-.006.013c.003-.013.009-.016.012-.022.01-.016.013-.019.016-.022.003.003.01-.01.016-.016a.21.21 0 0 1 .028-.025c.016-.013.022-.016.029-.019.022-.006.028-.01.035-.01h.022.041c.012 0 .022.004.028.007.054.019.104-.06.057-.098v-.006zm22.831 10.862c-.158.082-.287.234-.401.367l-.357.451a4.42 4.42 0 0 0-.509.973c-.064.161.069.366.23.404.19.044.339-.057.405-.23l.044-.111.022-.054c.035-.088-.015.032.007-.015l.098-.215.237-.442c.082-.146.167-.275.259-.408l.069-.094.07-.092c.051-.066.108-.139.145-.215.098-.208-.104-.432-.319-.319zm-1.723 3.19c-.082-.25-.107-.534-.151-.793s-.064-.527-.086-.789a7.2 7.2 0 0 1 .029-1.608c.022-.17-.161-.315-.316-.315-.19 0-.294.145-.316.315-.076.578-.063 1.14.038 1.715.047.275.136.537.24.799l.158.363.234.389c.047.094.205.028.17-.073v-.003zm-4.836-.468c.006-.294-.095-.597-.139-.888l-.123-.862c-.07-.565-.098-1.137.098-1.68.132-.369-.471-.54-.591-.164-.196.613-.136 1.257-.025 1.879.057.319.129.628.24.935.098.281.189.606.379.843.054.066.158.009.161-.066v.003z"/><path d="M177.199 196.837c-.17-1.207-.091-2.454.139-3.645.079-.397-.537-.562-.603-.167-.107.644-.13 1.311-.095 1.964s.19 1.279.379 1.898c.035.12.196.066.18-.05zm-4.142-1.976l-.013-1.923.063-.967c.025-.281.035-.581.167-.836.174-.335-.337-.635-.508-.297-.145.29-.193.59-.215.912-.028.357-.034.72-.012 1.077.047.686.113 1.406.331 2.059.032.098.183.085.183-.025h.004zm-3.771-2.657l.461-1.954c.152-.597.215-1.267.503-1.819.174-.338-.338-.638-.512-.3-.297.584-.402 1.291-.481 1.935-.088.702-.126 1.406-.151 2.11-.004.104.164.129.183.025l-.003.003zm-2.115-3.41c.098-.319.243-.615.357-.928l.338-.935c.225-.613.487-1.209.847-1.756.225-.341-.328-.663-.547-.319-.366.575-.641 1.207-.834 1.86-.095.319-.161.638-.218.967-.06.353-.067.71-.12 1.061-.019.117.145.167.18.05h-.003zm20.299 7.019c-.12.035-.281.026-.408.035l-.505.057a8.2 8.2 0 0 0-.98.23 10.91 10.91 0 0 0-1.929.803c-.341.18-.041.688.301.514.604-.309 1.236-.559 1.881-.77l.964-.291c.148-.041.294-.091.436-.151.155-.064.224-.152.332-.272.06-.066.003-.183-.092-.158v.003zm-4.71-.81c-.136.045-.313.016-.455.016l-.503.013c-.335.009-.676.019-1.005.079a11.92 11.92 0 0 0-1.947.546c-.379.139-.215.748.167.61.661-.244 1.334-.408 2.011-.594l.967-.278.49-.101c.139-.025.256-.041.367-.136.072-.06-.007-.186-.092-.158v.003z"/><path d="M178.799 193.86c-.064-.114-.177-.126-.297-.133l-.516-.012-1.087-.019c-.721-.016-1.413.05-2.115.214-.338.079-.193.626.146.525.708-.215 1.463-.168 2.193-.228l1.088-.082c.098-.009.73-.009.588-.265zm-3.274-1.699c-.711-.256-1.501-.341-2.25-.455s-1.527-.189-2.289-.095c-.414.051-.338.651.076.569.74-.149 1.495-.101 2.241-.022s1.467.227 2.197.186c.108-.006.127-.149.025-.183zm-4.113-2.429a.91.91 0 0 0-.231-.228c-.082-.053-.174-.085-.262-.123l-.594-.224c-.414-.12-.835-.186-1.265-.224-.17-.016-.316.154-.316.315 0 .184.146.3.316.316.38.035.753.095 1.126.168l.581.116c.101.026.199.054.304.064.098.009.18-.004.275-.016.085-.01.12-.092.066-.161v-.003zm-2.052-2.947c-.053-.066-.091-.145-.148-.211s-.127-.114-.193-.164l-.411-.313c-.278-.193-.566-.36-.866-.515-.145-.075-.351-.044-.433.114-.076.145-.044.351.114.433l.901.454.445.206c.086.038.168.085.256.11s.165.022.244.044c.095.029.148-.088.091-.158zm-3.239-1.405c.364.044.708-.066 1.04-.209a4.1 4.1 0 0 0 .889-.508c.161-.123.234-.325.094-.505s-.35-.161-.512-.035c-.031.025-.031.025-.003 0l-.05.038-.102.073-.205.132c-.133.079-.269.149-.408.212l-.057.025c.032-.013.032-.013-.006 0l-.114.044-.202.073a3.58 3.58 0 0 0-.487.202c-.095.047-.139.177-.111.275.032.11.127.164.234.177v.006z"/><path d="M167.528 184.269c-.537.859-.603 1.876-.578 2.864.025.887.104 1.854.547 2.643.189.338.471.72.866.821s.793-.098 1.03-.398c.554-.691.291-1.885.101-2.671-.252-1.049-.717-2.05-1.371-2.906-.282-.369-.822-.066-.626.367.398.871.929 1.699 1.568 2.412.597.67 1.447 1.043 2.329.695.797-.316 1.265-1.162 1.148-2.005s-.813-1.566-1.556-1.955c-.853-.442-1.858-.549-2.778-.259-.468.149-.266.891.202.739.784-.256 1.641-.174 2.355.243.677.392 1.347 1.169.942 1.98-.174.348-.506.588-.891.638-.436.06-.809-.145-1.107-.445-.673-.679-1.179-1.551-1.586-2.41l-.569.439a6.61 6.61 0 0 1 1.274 2.599 6.26 6.26 0 0 1 .173 1.39c0 .256-.076 1.02-.515.843-.164-.066-.307-.325-.386-.467-.107-.19-.186-.392-.246-.604-.123-.426-.174-.871-.206-1.313-.075-1.049-.082-2.088.184-3.111.047-.183-.203-.287-.304-.126v-.003z"/><path d="M164.863 192.739c-.038-1.273.268-2.647.638-3.862s.958-2.422 1.736-3.48c.24-.326-.313-.654-.547-.319-.775 1.108-1.379 2.346-1.745 3.647a9.57 9.57 0 0 0-.351 1.933c-.048.698.022 1.386.076 2.084.009.123.196.126.193 0v-.003zm9.404-4.197c-.009-.562-.54-1.102-.904-1.484-.439-.461-.961-.85-1.46-1.241-.983-.774-2.077-1.551-3.379-1.557-.383 0-.373.559 0 .587 1.188.089 2.178.818 3.078 1.535l1.287 1.086c.218.196.42.408.623.622.186.193.344.42.575.559.076.048.18-.012.177-.101l.003-.006zm-29.145-16.951c-.098.23-.101.511-.126.757-.029.297-.038.591-.041.888l.056 1.743c.016.193.313.199.304 0l-.051-1.708.01-.856c0-.259.037-.553-.026-.809-.012-.053-.107-.075-.129-.015h.003zm1.051-.174c-.079.098-.066.186-.072.309l-.01.433v.805l.035 1.674a.14.14 0 0 0 .275 0l.006-1.674-.016-.805-.016-.433c-.006-.12 0-.215-.075-.309-.029-.035-.095-.035-.123 0h-.004zM40.819 79.537c-.724.831-1.208 1.923-1.622 2.937a27.13 27.13 0 0 0-1.1 3.278 27.2 27.2 0 0 0-.923 6.846c0 .357.55.357.553 0a26.18 26.18 0 0 1 .92-6.695c.291-1.067.654-2.116 1.081-3.139l1.331-3.088c.044-.133-.145-.246-.24-.139zm11.835 5.545l-2.311 5.972c-.831 1.68-1.827 3.31-3.133 4.667-.291.303.215.714.461.357l3.117-4.926c.98-1.892 1.827-3.913 2.045-6.044.013-.114-.149-.117-.183-.025h.003zm-12.892 7.434c.196-.13.401-.035.601.038l.534.18 1.125.398a6.21 6.21 0 0 1 1.818 1.231c.285.275.711-.151.433-.433a5.74 5.74 0 0 0-2.203-1.386 6.34 6.34 0 0 0-1.35-.294c-.341-.041-.784-.107-1.072.12-.082.066.025.205.114.148v-.003zm-2.306 1.101c-1.012.707-1.837 1.648-2.63 2.586l-2.061 2.665c-.942 1.358-1.732 2.82-2.418 4.323-2.08 4.557-3.48 9.426-4.906 14.214-.98 3.29-1.919 6.593-2.76 9.919-.114.448.572.641.695.192 1.53-5.608 3.11-11.195 4.922-16.721 1.239-3.789 2.542-7.626 4.707-11.005a31.82 31.82 0 0 1 1.966-2.751c.876-1.09 1.874-2.081 2.709-3.199.098-.13-.095-.313-.224-.224zm8.679 2.791c.126 2.368-.79 4.81-1.77 6.923l-3.414 6.521-3.642 6.417-3.951 6.044c-1.473 2.223-2.889 4.484-4.021 6.903-.171.366.373.688.547.319 2.048-4.383 5.029-8.22 7.577-12.31 1.34-2.153 2.576-4.367 3.765-6.606s2.323-4.408 3.382-6.654c.553-1.174 1.059-2.378 1.384-3.635s.42-2.576.332-3.922c-.01-.12-.193-.12-.187 0h-.003zM21.64 129.565c.547.199 1.141.236 1.717.3l1.805.268c1.068.215 2.162.556 3.082 1.156.828.543 1.536 1.342 1.865 2.286.398 1.143.133 2.252-.215 3.37-.12.388.49.556.61.167.376-1.213.74-2.482.303-3.729-.354-1.005-1.043-1.857-1.897-2.486-.977-.72-2.118-1.127-3.297-1.37-.642-.133-1.296-.224-1.947-.278s-1.378-.095-2.02.136c-.088.031-.088.148 0 .18h-.006zm27.445-35.306c-.111.092-.164.278-.209.414-.063.18-.092.376-.114.562-.047.376-.019.771.038 1.143a6.11 6.11 0 0 0 .74 2.125c.202.354.749.035.547-.319-.341-.603-.566-1.257-.673-1.942-.051-.335-.066-.666-.085-1.004l-.025-.508c-.013-.148 0-.319-.073-.452-.032-.057-.104-.057-.149-.019h.003z"/><path d="M49.512 98.929c-2.797 2.921-3.654 7.02-4.252 10.882-.582 3.755-1.087 7.522-1.558 11.293l-1.024 9.158c-.035.347.5.338.537 0l1.852-14.744.718-4.977c.209-1.371.401-2.751.721-4.103a20.01 20.01 0 0 1 1.328-3.865c.575-1.238 1.207-2.359 1.84-3.521.054-.098-.076-.208-.158-.123h-.003zm3.405 31.926c-.383 1.8-1.312 3.49-2.482 4.898-.269.325.206.793.465.464.544-.688 1.012-1.434 1.388-2.226.462-.973.733-1.999.917-3.06.032-.187-.246-.269-.285-.079l-.003.003zm-31.73-1.064c-.835.114-1.571.603-2.257 1.064s-1.369 1.001-2.134 1.374c-.907.442-1.903.575-2.899.663l-3.18.303-3.202.307c-.933.091-1.9.189-2.719.685-.654.395-1.34 1.149-1.208 1.977s1.154 1.105 1.875 1.225c1.154.189 2.336.158 3.502.167l3.635.032c.25 0 .253-.388 0-.388l-3.047-.032c-1.015-.01-2.023.006-3.035-.044a8.71 8.71 0 0 1-1.473-.183c-.351-.079-.743-.206-.964-.506-.272-.369-.117-.846.111-1.193s.547-.597.898-.787c.831-.448 1.818-.496 2.741-.584l3.044-.294 3.025-.293c.92-.101 1.846-.228 2.703-.597s1.571-.913 2.311-1.431l1.129-.758a13.32 13.32 0 0 1 1.188-.609c.057-.025.013-.098-.038-.092l-.006-.006zm-2.941 4.469c-.436-.057-.86-.108-1.299-.063a8.95 8.95 0 0 0-1.255.214c-.73.18-1.505.439-2.112.897-.256.193-.49.43-.635.72s-.259.685-.054.966c.088.124.224.193.36.247l.616.218c.42.123.841.12 1.274.094l3.136-.17c.269-.016.269-.433 0-.417l-2.402.148-1.195.064c-.398 0-.752-.105-1.116-.237-.123-.044-.322-.089-.376-.221s.025-.345.082-.471c.123-.268.338-.486.572-.66.544-.404 1.227-.641 1.871-.824a8.27 8.27 0 0 1 1.23-.253l1.299-.161c.063-.003.06-.085 0-.094l.003.003zm-13.096-.544c-.645-.208-1.356-.088-2.004.047l-1.034.266c-.31.091-.632.173-.929.306-.278.123-.49.325-.676.559s-.36.461-.452.739c-.183.549.098 1.042.632 1.219.332.11.699.129 1.043.177l1.204.173c.288.041.348-.36.054-.397l-1.154-.158c-.329-.045-.67-.067-.989-.155s-.509-.303-.449-.641c.057-.313.3-.607.503-.837.243-.278.534-.385.876-.496l1.091-.338a8.96 8.96 0 0 1 1.11-.237l1.157-.107c.066-.006.085-.098.016-.12h.003zm20.18-.906c.509.486 1.021.916 1.391 1.525a4.51 4.51 0 0 1 .436.96c.107.335.237.73.123 1.064-.256.758-1.192.837-1.862.802l-2.649-.101a27.32 27.32 0 0 0-3.038.199c-.269.032-.272.458 0 .423a28.1 28.1 0 0 1 2.997-.211l1.524.019 1.416.072c.74 0 1.596-.221 1.941-.947.177-.376.114-.783.016-1.172-.092-.366-.237-.72-.417-1.048-.389-.704-1.024-1.446-1.814-1.699-.063-.019-.111.066-.063.111v.003z"/><path d="M27.694 137.14c.016.06.082.072.133.072l-.073-.028c.104.082.25.035.373.019l.386-.054.774-.107c.095-.013.149-.136.123-.218-.025-.098-.123-.145-.218-.123l-.746.154-.367.076c-.114.022-.278.029-.344.136l.06-.047c-.05.019-.123.056-.108.126l.006-.006zm13.984-5.797c-.152.394-.304.776-.348 1.203a4.05 4.05 0 0 0 .057 1.25c.139.689.484 1.355.993 1.841.572.55 1.309.787 2.064.964l2.497.48c.948.104 1.916.069 2.823-.247.25-.085.142-.486-.111-.398-1.505.531-3.111.24-4.625-.098-.721-.161-1.489-.293-2.108-.729-.541-.379-.939-.966-1.141-1.592a3.87 3.87 0 0 1-.183-1.263c.006-.458.038-.95.167-1.392.016-.06-.069-.079-.092-.026l.006.007z"/><path d="M41.035 131.797c-.376.148-.724.41-1.084.603l-1.005.496a8.12 8.12 0 0 1-1.739.499c-.595.101-1.16.123-1.742.161a16.69 16.69 0 0 0-2.184.275 17.05 17.05 0 0 0-2.402.663c-.24.085-.136.47.104.382 1.419-.515 2.899-.834 4.403-.951l1.786-.173c.591-.098 1.189-.278 1.751-.509.364-.148.721-.319 1.059-.518.199-.113.386-.252.569-.388s.386-.281.531-.467c.025-.032-.016-.083-.054-.07l.006-.003zm-8.725 5.211l2.402.089 2.396.053 4.735-.022 2.693-.145c.231-.019.228-.382 0-.357-3.161.316-6.341.221-9.512.25l-2.718.041c-.06 0-.06.091 0 .095l.003-.004zM79.264 6.2l1.776 2.83c.364.72.632 1.478.876 2.245.645 2.034.942 4.099.186 6.148-.297.802-.528 1.626-.632 2.476-.082.666-.136 1.462.098 2.106.123.341.322.66.503.976l1.505 2.533.705 1.228c.108.215.224.452.224.698.01.865-1.157 1.446-1.878 1.522-.329.035-.326.559 0 .515 1.255-.167 2.779-1.27 2.2-2.675-.36-.868-.923-1.671-1.397-2.479l-1.192-2.097c-.626-1.206-.225-2.899.202-4.181.303-.91.604-1.775.648-2.747.054-1.131-.142-2.261-.449-3.347-.604-2.157-1.511-4.355-3.231-5.864-.076-.066-.212.019-.149.114h.003zM62.668 32.885c.639 1.333 1.742 2.526 3.022 3.278s2.636 1.213 3.967 1.696l4.037 1.345c1.833.603 3.844 1.617 5.801.951.74-.253 1.524-.723 1.71-1.544.098-.426.051-.875.123-1.307.089-.534.253-1.029.566-1.472.224-.316-.297-.616-.518-.303-.487.685-.664 1.506-.711 2.331-.019.319-.01.632-.186.909-.221.354-.598.572-.977.717-1.821.701-3.679-.243-5.399-.812-2.611-.862-5.336-1.557-7.795-2.817-1.391-.714-2.424-1.914-3.357-3.142-.126-.164-.373-.028-.281.164v.006z"/><path d="M71.369 37.956c-.224.066-.417.3-.569.467-.224.249-.417.54-.591.827a6.28 6.28 0 0 0-.822 2.337 7.36 7.36 0 0 0 .373 3.521c.136.382.752.211.61-.167-.376-1.004-.537-2.087-.42-3.158a6.57 6.57 0 0 1 .689-2.283c.139-.272.303-.527.471-.783.126-.196.329-.417.376-.647.013-.069-.044-.136-.117-.117v.003zm15.867 55.339c-.231.193-.126.609-.095.868l.199 1.134a14.05 14.05 0 0 0 .778 2.353c.522 1.222 1.201 2.368 2.011 3.423.243.319.793.003.547-.319-.771-1.004-1.429-2.091-1.938-3.253-.316-.72-.572-1.472-.775-2.23l-.284-1.181c-.054-.253-.066-.679-.332-.808a.1.1 0 0 0-.114.016l.003-.003z"/><path d="M54.615 40.403c.724 2.141 2.921 3.493 4.811 4.513l7.485 3.714c4.811 2.274 9.682 4.434 14.124 7.393 4.015 2.678 7.561 6.262 9.648 10.655.993 2.094 1.625 4.386 1.716 6.704.114 2.87-.537 5.709-.73 8.564s-.108 5.934-.06 8.896c.025 1.484-.009 2.968-.073 4.453-.054 1.285-.133 2.583-.522 3.818a5.5 5.5 0 0 1-.822 1.624c-.269.363.335.701.601.35.759-.998 1.119-2.204 1.29-3.43.186-1.345.224-2.722.231-4.08l-.006-8.981c.038-1.503.13-3.003.303-4.497s.408-2.912.506-4.377c.168-2.476-.13-4.933-.955-7.276-1.577-4.484-4.688-8.318-8.367-11.271-4.185-3.36-9.06-5.7-13.918-7.914l-7.606-3.594c-2.168-1.086-4.596-2.144-6.249-3.979-.392-.436-.759-.932-1.081-1.418-.104-.158-.386-.063-.319.136l-.006-.003z"/><path d="M66.594 44.012c.405.237.74.546 1.135.802l1.356.789 2.823 1.819c2.052 1.446 3.932 3.082 5.715 4.844.854.843 1.656 1.737 2.421 2.662.275.332.74-.142.471-.471-3.009-3.707-6.626-6.846-10.763-9.246-.509-.294-1.027-.597-1.558-.849-.493-.234-1.021-.325-1.527-.524-.101-.041-.161.12-.073.17v.003z"/><path d="M55.774 39.531c4.242 2.675 9.17 4.336 14.064 5.34.228.047.326-.303.098-.35-2.586-.531-5.127-1.26-7.596-2.195-2.222-.84-4.378-1.847-6.518-2.877-.054-.025-.098.047-.047.082zm-12.729 89.047l.702.942c.285.328.642.606.983.871a12.18 12.18 0 0 0 2.149 1.336c1.53.742 3.18 1.184 4.881 1.241.379.013.367-.546 0-.581-1.587-.158-3.161-.572-4.596-1.27a13.91 13.91 0 0 1-1.995-1.187l-.888-.692-1.046-.798c-.095-.086-.272.031-.186.142l-.003-.004zm.686-2.651c.126.337.468.596.736.827.326.278.667.527 1.024.764.721.483 1.489.897 2.276 1.263 1.593.742 3.262 1.226 4.991 1.51.379.063.544-.512.161-.581a20.03 20.03 0 0 1-4.802-1.529c-.749-.344-1.47-.742-2.178-1.165l-1.018-.635c-.341-.208-.692-.514-1.075-.571-.063-.01-.142.041-.117.117zm.22 1.445c.12 0 .12-.186 0-.186s-.12.186 0 .186z"/><path d="M44.016 127.84a2.55 2.55 0 0 0 .237 1.112c.022.047.088.056.13.034.047-.028.054-.082.035-.129-.148-.319-.218-.666-.212-1.017 0-.12-.186-.12-.186 0h-.003zm.591 1.607l1.426-1.639c.063-.082.073-.193-.019-.262-.085-.063-.202-.041-.259.05l-.597.888c-.209.29-.446.565-.683.833-.079.089.051.221.133.133v-.003zm1.282-.994c.221.783.395 1.576.515 2.381.016.107.152.164.246.139.114-.032.158-.139.139-.246a18.99 18.99 0 0 0-.568-2.366c-.066-.211-.395-.123-.332.092zm1.043 2.544c.411-.757.993-1.402 1.637-1.97.111-.098.101-.291 0-.392s-.294-.113-.392 0c-.575.689-1.021 1.462-1.41 2.268-.051.107.104.202.161.094h.003z"/><path d="M48.356 129.126l.746 2.75c.082.3.572.158.462-.126l-1.027-2.675c-.041-.11-.215-.066-.18.051z"/><path d="M49.648 132.295c.066-.085.152-.145.224-.227l.199-.231.383-.47.718-.985c.082-.12.022-.3-.098-.373-.127-.076-.297-.028-.373.098l-.613 1.045-.303.512-.155.265c-.05.092-.082.183-.145.272-.07.101.092.186.161.094h.003z"/><path d="M51.406 130.167l.247 1.086a6.2 6.2 0 0 0 .443 1.048c.177.331.673.019.477-.278l-.55-.925c-.168-.319-.326-.635-.433-.982-.035-.117-.202-.069-.18.051h-.003zm-7.354-6.262l1.707 1.351c.594.408 1.306.78 1.992 1.099 1.362.635 2.788 1.074 4.271 1.32.326.054.468-.442.139-.499a18.7 18.7 0 0 1-4.163-1.241c-.657-.284-1.283-.622-1.909-.972-.664-.373-1.299-.717-1.903-1.188-.095-.072-.228.057-.133.133v-.003zm-.357 2.558c.17.843.227 1.699.325 2.551a.23.23 0 0 0 .452-.06c-.126-.859-.376-1.702-.594-2.542-.032-.117-.205-.066-.18.051h-.003zm12.079-86.931c4.58 3.471 9.708 6.234 14.974 8.52 1.337.581 2.69 1.127 4.056 1.642.218.082.313-.268.098-.35-5.295-1.996-10.359-4.525-15.186-7.472l-3.891-2.422c-.054-.035-.095.044-.047.082h-.003z"/></g><g class="E"><path d="M78.558 5.521c-.556.275-1.239.647-1.982 1.149a16.7 16.7 0 0 0-1.422 1.067s-1.078.909-2.023 2.04c-1.894 2.271-3.158 5.552-3.158 5.552-1.887 4.44-2.788 9.316-2.877 14.128-.05 2.754.032 5.517.101 8.271l.436 12.97.784 17.182.12 2.337c.032.606.98.609.948 0l-.816-17.372-.48-13.491-.155-8.82c.003-4.494.654-8.994 2.175-13.235a29.9 29.9 0 0 1 2.38-5.11c1.735-2.937 4.252-4.544 5.453-5.324.42-.272.781-.483 1.034-.625l-.518-.723v.003z"/><path d="M68.054 69.908l-.759-16.327-.572-12.325-.275-9.818c.073-2.078.231-4.168.528-6.23.379-2.624 1.037-5.173 1.824-7.702.714-2.299 1.571-4.519 2.956-6.505s3.142-3.682 5.134-5.027a23.17 23.17 0 0 1 1.062-.673c.525-.313.047-1.131-.477-.818a21.37 21.37 0 0 0-5.013 4.105c-1.694 1.904-2.956 4.08-3.838 6.461-1.666 4.494-2.643 9.177-2.987 13.952-.158 2.214-.215 4.431-.13 6.648l.196 4.102.553 11.852.743 16.045.104 2.255c.029.606.977.609.948 0l.003.006zm8-66.136c-3.54 2.406-6.619 5.59-8.443 9.493-1.201 2.574-1.824 5.346-2.32 8.129-.348 1.952-.642 3.913-.847 5.886-.329 3.158-.364 6.332-.354 9.502.009 4.336.126 8.672.278 13.008l.812 17.147.139 2.34c.038.606.986.609.948 0l-.873-17.4-.348-13.434c-.025-2.896-.041-5.804.136-8.697a63.64 63.64 0 0 1 .74-6.467c.417-2.526.863-5.068 1.694-7.497 1.347-3.947 3.907-7.292 7.147-9.894A28.18 28.18 0 0 1 76.53 4.59c.503-.341.028-1.162-.477-.818zm-1.337-.98c-3.446 2.327-6.531 5.536-8.254 9.36-.793 1.759-1.347 3.622-1.811 5.495-.774 3.13-1.293 6.325-1.634 9.528-.487 4.573-.449 9.161-.373 13.753.092 5.64.319 11.28.61 16.914l.654 10.784.041.565c.044.603.992.609.948 0l-.588-9.37-.667-16.301c-.107-4.611-.24-9.253.098-13.857.224-3.057.635-6.098 1.233-9.104.468-2.35 1.04-4.696 1.897-6.938 1.394-3.647 4.072-6.846 7.191-9.202a28.18 28.18 0 0 1 1.129-.805c.503-.341.028-1.162-.477-.818l.003-.003zm-1.608-.709c-3.746 2.454-6.784 5.924-8.516 10.064-1.008 2.406-1.609 4.977-2.112 7.528s-.828 4.898-1.049 7.371c-.266 2.959-.272 5.889-.183 8.855l.55 14.915.892 16.592.139 2.192c.038.606.989.609.948 0l-.929-16.585-.588-14.975c-.095-3.013-.212-6.006-.029-9.019.294-4.841 1.018-9.761 2.469-14.397s4.122-8.293 7.89-11.034a24.34 24.34 0 0 1 .999-.688c.509-.332.035-1.153-.477-.818h-.003zm-1.651-.585c-2.829 2.299-5.336 5.024-7.16 8.192-1.524 2.64-2.472 5.548-3.158 8.507a49.93 49.93 0 0 0-1.024 6.152c-.168 1.626-.199 3.268-.433 4.889-.291 2.018-.857 4.001-1.685 5.864-.699 1.579-1.52 3.12-2.744 4.355A249.51 249.51 0 0 0 45.206 50.25c-.401.458.269 1.13.67.669 2.915-3.325 5.918-6.572 9.006-9.736.73-.748 1.429-1.487 2.09-2.296.487-.597.85-1.298 1.204-1.98.907-1.746 1.612-3.606 2.061-5.523.379-1.62.544-3.269.651-4.923a50.31 50.31 0 0 1 .733-5.956c.601-3.202 1.448-6.433 2.949-9.341 1.818-3.524 4.492-6.509 7.558-9 .474-.385-.202-1.052-.67-.669v.003z"/><path d="M70.367.99c-3.028 2.22-5.703 4.936-7.602 8.192-1.833 3.145-2.883 6.707-3.518 10.273a48.71 48.71 0 0 0-.537 3.947c-.142 1.478-.196 2.965-.348 4.44-.212 2.049-.676 4.058-1.432 5.978-.522 1.33-1.239 2.662-1.982 3.922-2.172 3.673-4.925 6.966-8.026 9.894-.446.42.228 1.09.67.67 2.858-2.697 5.428-5.713 7.533-9.035 1.818-2.871 3.281-5.931 3.891-9.294.518-2.864.48-5.795.891-8.675.522-3.651 1.426-7.345 3.126-10.636 1.833-3.546 4.609-6.508 7.814-8.858.487-.357.016-1.178-.477-.818h-.003z"/></g><g fill="#000"><path d="M78.216 33.129c.626-.022 1.274-.303 1.852-.534s1.122-.502 1.729-.628c.364-.076 1.634-.344 1.492.363-.073.369-.351.499-.68.587l-.847.196c-.544.098-1.182.136-1.77.183-.174.013-.174.287 0 .272l1.808-.193a8.63 8.63 0 0 0 1.015-.243c.303-.092.534-.249.664-.546.104-.243.136-.569-.066-.771s-.547-.215-.819-.202c-.743.035-1.413.243-2.086.543l-1.027.426c-.427.158-.882.265-1.283.48-.032.016-.016.066.019.066z"/><path d="M78.107 33.387c.613.897 1.704 1.437 2.734 1.699l.98.199c.256.035.537.054.784-.041.487-.186.512-.84.262-1.232-.341-.534-1.043-.745-1.644-.783-.174-.013-.174.259 0 .272.477.032.983.177 1.321.534.158.164.234.392.212.619-.028.278-.231.382-.484.401-.525.038-1.103-.123-1.603-.268a5.39 5.39 0 0 1-1.087-.439c-.512-.278-.964-.644-1.422-1.001-.028-.022-.079.006-.054.041zm.999-12.67c-.12-.054-.215-.126-.341-.171l-.303-.101a2.25 2.25 0 0 0-.559-.076 2.04 2.04 0 0 0-.895.193c-.319.142-.613.338-.926.493-.414.205-.86.392-1.312.496-.247.057-.133.461.104.379l1.179-.455c.335-.158.645-.354.964-.54a2.08 2.08 0 0 1 .771-.268 2.11 2.11 0 0 1 .528-.003 2.35 2.35 0 0 1 .335.047c.136.028.294.047.42.095.051.019.085-.063.035-.085v-.003z"/><path d="M74.74 21.909c.645.527 1.413.97 2.244 1.112.923.155 1.89.095 2.763-.262.243-.098.104-.439-.142-.335-.803.344-1.72.417-2.579.275-.778-.13-1.501-.534-2.118-1.011-.123-.095-.291.12-.168.218v.003zm-.86-2.781l1.609-.695c.556-.193 1.103-.344 1.678-.392 1.173-.095 2.323.246 3.3.887.218.142.423-.208.205-.351-.746-.48-1.59-.796-2.475-.894-1.04-.114-2.071.126-3.025.527-.48.202-.977.452-1.337.837-.028.032 0 .095.044.079zm5.39 1.778l.158.275a3.27 3.27 0 0 1 .171.37 2.73 2.73 0 0 1 .171.685c.006.057.044.107.107.107.054 0 .114-.05.107-.107-.032-.259-.092-.511-.193-.751s-.234-.48-.42-.657c-.054-.05-.136.013-.101.079zm4.145 10.668c.044-.079 0-.155-.032-.231l-.12-.256a5.31 5.31 0 0 1-.249-.657 4.54 4.54 0 0 1-.205-1.213c-.006-.234-.373-.234-.363 0a4.87 4.87 0 0 0 .268 1.39 3.91 3.91 0 0 0 .316.679 1.52 1.52 0 0 0 .174.256c.044.054.161.123.212.032z"/></g><path d="M52.843 40.729l-1.47 2.286" stroke="#42210b" stroke-width="1.427" stroke-miterlimit="10"/><path d="M81.046 26.824c-.183-.133-.364-.193-.591-.158s-.436.139-.582.309c-.275.322-.304.786-.101 1.153s.572.631.967.701.708-.107 1.005-.351c.139-.114.284-.243.462-.294.231-.063.471.032.651.174s.452-.117.262-.262c-.36-.284-.816-.404-1.239-.171-.319.174-.563.553-.951.562-.427.013-.91-.347-.974-.78-.035-.237.063-.49.247-.644.205-.174.547-.196.803-.155.054.01.082-.054.035-.085h.006z" fill="#000"/></g><defs><clipPath id="A"><path fill="#fff" d="M0 0h195v220H0z"/></clipPath></defs></svg>