<svg xmlns="http://www.w3.org/2000/svg" xmlns:xlink="http://www.w3.org/1999/xlink" width="248" height="274" fill="none" xmlns:v="https://vecta.io/nano"><style><![CDATA[.B{opacity:.5}.C{fill:#1b1464}.D{fill:#42210b}.E{fill:#e6e6e6}]]></style><g clip-path="url(#A)"><path d="M246.349 182.51c-.27-19.71-1.75-33.68-11.7-41.94-6.48-5.38-15.67-7.61-26.22-10.17-9.72-2.36-18.05-3.19-23.95-3.5-1.07-1.21-3.23-3.25-6.57-4.35-1.1-.36-2.28-.59-3.55-.66.7 1.07 2.75 4.5 2.43 9.26-.31 4.67-2.69 7.75-3.53 8.74l-21.3 35.85-14.29 23.13-6.9-12.54-13.34-24.31c-2.01-2.63-9.87-13.5-8.17-28.24.9-7.82 4.14-13.59 6.27-16.75l4.09-4.96c-2.64.08-4.53.71-5.79 1.28-2.06.94-2.86 1.93-5.26 2.72-1.37.45-2.61.62-3.94.7-8.42.51-33.89-1.8-46.99 2.58-14.46 4.83-21.82 20.47-28.98 35.68-4.2 8.93-6.61 17.67-9.79 29.22-2.78 10.09-4.59 18.67-5.75 24.85l2.66 3.87c3.1 4.36 7.96 11.19 14.92 17.84 3.8 3.64 9.5 8.43 17.38 12.99l-2.07 6.12c1.36.55 3.17 1.11 5.35 1.34 4.37.46 7.89-.66 9.78-1.44 1.49-5.6 2.29-10.18 2.75-13.45.38-2.76.75-6.2.98-8.4l.67-6.89c1.24 7.23 2.54 17.67 2.3 30.28a165.17 165.17 0 0 1-.38 8.47c-.22 3.07-.45 6.28-1.1 10.42a98.52 98.52 0 0 1-2.03 9.7l138.78 1.01c.31-8.3.11-17.38-.95-27.08-.29-2.7-.64-5.34-1.03-7.89a162.71 162.71 0 0 1 19.36 7.39c3.19 1.46 6.2 2.96 9.03 4.48l-3.84 6.23c1.21.66 3.84 1.9 7.39 1.9 3.45 0 6.02-1.16 7.23-1.81 5.35-33.77 6.32-61.58 6.05-81.68v.01z" fill="#f15a24"/><g fill="#754c24"><path d="M192.148 216.71l3.53 11.91 4.39 15.98c4.74 1.6 10.09 3.73 15.77 6.61a119.42 119.42 0 0 1 12.72 7.48c-.89 2.05-7.98 17.7-25.46 22.3-3.4.89-16.33 4.35-25.79-2.64-7.9-5.84-10.08-16.52-12.67-29.23-.18-.88-.51-2.88-1.16-6.88-1.23-7.53-2.36-15.11-3.71-25.25-2.17-16.29-1.46-13.27-2.42-19.27-2.44-15.18-6.08-28.97-5.01-36.85.06-.42.4-2.84.38-6.09-.02-2.94-.07-5.03-.92-7.57-.95-2.85-2.56-4.9-3.49-6.09-1.92-2.45-2.49-2.25-3.63-3.92-1.55-2.28-1.72-4.57-2.01-9.05-.36-5.73-.54-8.6 1.22-10.13 1.77-1.54 4.47-1.25 5.99-.93.41-.43 1.86-1.86 4.25-2.16 2.09-.26 3.68.5 4.23.79.41-.47 1.54-1.64 3.43-2.09 2.59-.62 4.64.59 5.06.85.39-.4 1.29-1.2 2.65-1.49.52-.1 2.13-.36 3.59.57 1.85 1.17 2.7 3.78 1.93 6.38.76.21 2.09.69 3.35 1.81.22.19 2.17 1.97 2.66 4.61.5 2.68-.81 4.98-3.47 9.48-2.5 4.25-3.56 4.82-4.09 7.37-.56 2.66.09 4.81.3 6.07 1.17 7.14 2.93 14.45 3.87 18.2l14.5 49.24.01-.01z"/><path d="M192.019 60.901c-2.11-6.36-9.19-27.91-27.18-31.08-15.35-2.7-27.77 9.28-30.33 11.89-10.91 11.18-12.15 26.41-13.74 45.4a150.87 150.87 0 0 0-.19 22.66l-.8 1.7c-2.58 2.77-6.84 8.09-9.22 15.98-1.68 5.56-1.83 10.44-1.67 13.75 2.81 7.37 6.06 15.12 9.85 23.14 6.01 12.73 12.38 24.07 18.63 34.02l13.77-21.38c6.12-9.24 9.48-13.14 14.05-21.52 5.82-10.68 7.06-16.1 7.57-19.91.77-5.76 1.41-10.54-.97-15.23-.81-1.6-1.88-2.95-3.12-4.14 5.33-2.74 8.63-5.9 10.63-8.25 1.32-1.54 2.51-3.23 10.57-20.24 2.95-6.23 3.19-6.85 3.48-7.94 2.13-8.05-.12-15.14-1.36-18.87l.03.02z"/></g><path d="M211.329 95.061l-1-22-.29-13.64-.12-5.12c-.43-15.58-.72-26.31-6.43-35.43-1.6-2.56-4.34-6.14-9.12-9.6-3.48-2.27-8.8-5.19-15.77-7.1-1.79-.49-7.22-1.88-14.45-1.99-5.35-.08-16.05.49-26.26 5.41-17.32 8.36-24.67 25.15-30.06 37.47-4.48 10.23-6.12 18.41-8.36 29.88-3.56 18.27-4.44 33.601-4.58 44.061 2.09-.4 4.69-.7 7.66-.62 2.03.05 3.86.27 5.44.55 1.33-1.18 3.59-2.88 6.81-3.94 1.83-.6 3.49-.83 4.8-.91a200 200 0 0 1 1.16-18.74c.5-4.55 1.03-9.34 2.3-15.32 5.27-24.88 14.67-33.21 17.1-35.13 1.8-1.43 13.05-10.57 26.03-8.33 4.79.82 8.2 2.92 8.86 3.33 5.81 3.64 8.41 8.85 10.52 13.21 2.23 4.6 3.16 8.96 5 17.48 1.14 5.25 1.88 9.67 2.35 12.82l-9.65 19.711c-.73 1.49-1.96 4.57-4.76 7.76a27.07 27.07 0 0 1-5.43 4.7c.51.62 1.31 1.78 1.72 3.43.3 1.2.28 2.24.21 2.94a9.49 9.49 0 0 1 2.48 1.03c1.28.78 1.85 1.57 3.28 2.97.62.6 1.54 1.45 2.74 2.4a120.42 120.42 0 0 1 13.41 1.51c6.56 1.11 12.37 2.66 17.35 4.3-.54-5.53-2.01-20.97-2.96-37.081l.02-.01z" fill="#603813"/><g class="D"><path d="M174.21 8.78c-11.16-1.38-22.74-.98-33.28 3.28-9.04 3.66-17.01 9.62-23.42 16.94-7.11 8.12-12.26 17.8-15.6 28.03-2.83 8.64-4.33 17.65-5.44 26.65-1.36 11.09-2.12 22.26-2.36 33.43-.04 1.93 2.96 1.93 3 0 .22-10.1.88-20.2 1.99-30.24.89-8.07 2.1-16.25 4.26-24.22 5.21-19.22 16.92-37.29 35.19-46.26 11.11-5.46 23.55-6.1 35.66-4.61 1.91.24 1.89-2.77 0-3zm-.57 4.151c-19.01-3.55-39.57 3.14-52.62 17.49-6.11 6.72-10.31 14.76-13.16 23.34-1.52 4.57-2.69 9.25-3.74 13.94-1.22 5.45-2.37 10.94-3.22 16.46a168.54 168.54 0 0 0-1.85 32.21c.07 1.92 3.08 1.93 3 0-.75-19.28 2.04-38.64 7.29-57.18 2.38-8.41 5.76-16.59 11.18-23.53s13.14-12.88 21.6-16.4c9.65-4.03 20.44-5.35 30.73-3.43 1.89.35 2.7-2.54.8-2.89l-.01-.01zm5.68 95.019a49.86 49.86 0 0 1 1.1 6.67c.32 3.39.24 6.41.01 8.94l2.63 1.64c.27-3.1.38-6.74.09-10.81a69.47 69.47 0 0 0-1.45-9.97l-2.37 3.54-.01-.01zm3.84-5.549c.7 3.57 1.29 7.65 1.6 12.17.31 4.54.27 8.69.06 12.34l2.65.36c.22-3.98.26-8.37.02-13.11-.31-6.07-1.04-11.56-1.94-16.37l-2.38 4.6-.01.01zm3.549-8.231a135.46 135.46 0 0 1 1.77 12.59c.68 7.37.69 14.1.35 20l2.81.19c.31-6.37.29-13.55-.34-21.37-.47-5.9-1.23-11.36-2.13-16.33l-2.46 4.9v.02zm-11.459 17.36a24.17 24.17 0 0 1 .77 4.02c.21 1.94.17 3.66.04 5.05l2.87 2.04a51.17 51.17 0 0 0-.16-7.2c-.23-2.4-.61-4.56-1.04-6.44l-2.48 2.52v.01z"/></g><path d="M48.07 243.821c-7.93-4.82-17.53-12.05-26.3-22.71a100.55 100.55 0 0 1-7.02-9.65c-1.33 3.53-3.29 8.86-5.46 15.43-5.56 16.83-7.08 25.26-7.81 31.32-1.11 9.23-2.08 18.12 2.39 20.96 2.9 1.84 6.28 1.3 9.94.75 2.51-.38 11.65-.2 29.89-.16 4.77.01 3.64.17 20.85 1.09 42.16 2.24 40.1.8 54.3 1.35 3.64.14 5.53.3 8.35-.34 2.54-.58 3.87-1.36 6.47-1.23 2.03.09 2.79.64 5.02 1.18 2.83.69 4.95.61 8.25.51l34.88-1.23-8.36-8.62a406.05 406.05 0 0 1-20.6-5.17c-10.19-2.84-10.38-3.32-15.57-4.49-9.27-2.09-12.96-1.53-28.17-2.85-8.43-.73-14.5-1.52-21.99-2.5l-30.89-4.53-10.9-1.64a19.2 19.2 0 0 0 2-4.31 20.42 20.42 0 0 0 .74-3.16h-.01z" fill="#754c24"/><g style="mix-blend-mode:darken" class="B C"><path d="M188.568 138.022c-.63-.04-1.24 11.89-3.09 11.97-.54.02-1.04-.97-1.4-1.95-.61-1.42-1.65-3.41-3.41-5.43a20.82 20.82 0 0 0-4.68-3.97c2.53 2.59 3.73 4.98 4.37 6.72l1.83 4.87c.09.26.76 2.15 2.27 3.68.35.36.84.78 1.33.68.52-.1.81-.71.94-1.01 1.81-4.1 1.96-7.72 1.96-7.72.11-2.72.3-7.8-.11-7.83l-.01-.01z"/></g><g style="mix-blend-mode:darken" class="B C"><path d="M65.77 202.35l-.21-7.43c.06-4.58.56-8.28.98-10.69a150.6 150.6 0 0 0-2.46 10.19c-2.47 11.98-2.48 19.35-3.55 29.42-.61 5.77-1.76 14.11-4.07 24.24-7.02-3.23-16.78-8.71-26.42-17.89-6.96-6.62-11.88-13.3-15.29-18.73l-2.67 6.95c5.13 7.84 10.12 12.71 13.31 15.44 4 3.44 6 5.15 7.87 6.02 0 0 4.8 2.23 7.99 5.1.24.22.74.68 1.06 1.44.83 1.96-.26 4.12-.72 4.93l4.09-.05.77-1.19c2.11.57 5.21 1.14 8.94.84 2.27-.18 4.21-.63 5.75-1.12 1.46-6.38 2.42-12.11 3.06-16.95a188.03 188.03 0 0 0 1.5-18.08c.1-2.78.24-6.95.07-12.46v.02z"/></g><g style="mix-blend-mode:darken" class="B C"><path d="M74.348 281.331l45.95.59c35.84.71 60.45 1.77 60.68-.49.03-.33-.46-.86-2.9-1.69l-19.29-.65-39.65-.99c-32.74.26-65.5-3.13-98.2-1.63-1.88.09-7.34.39-12.75-2.65-3.55-2-5.79-4.72-7.05-6.52-.26.72-1.73 5.07.67 9.05.94 1.55 2.15 2.52 3.02 3.09l69.53 1.89h-.01z"/></g><g fill="#000"><path d="M141.39 196.37c.61-.42 1.38-.48 2.02-.87s1.2-.85 1.77-1.29l3.46-2.65 7.02-5.33c1.19-.86-.09-2.56-1.24-1.61l-6.92 5.46-3.43 2.69-1.69 1.39c-.52.5-.79 1.25-1.35 1.73-.25.22.08.66.36.47v.01zm33.719-55.26c.37 2.09.36 4.29.63 6.41l.55 5.86c.29 4 .29 8.01.01 12.01-.09 1.28 1.92 1.28 2 0 .27-4.15.27-8.34-.09-12.48-.17-1.96-.45-3.91-.78-5.85-.36-2.13-1.16-4.04-1.74-6.1-.1-.37-.64-.21-.57.16l-.01-.01zm1.231-2.829c.08.61.39.91.77 1.38l1.25 1.46c.83.96 1.58 1.99 2.25 3.07a23.56 23.56 0 0 1 2.89 7.02c.28 1.21 2.16.7 1.87-.52-.63-2.64-1.69-5.16-3.17-7.43-.72-1.11-1.52-2.16-2.43-3.13-.46-.49-.93-.96-1.48-1.37s-.99-.82-1.67-.78c-.15 0-.32.13-.3.3h.02z"/><path d="M180.52 124.57l2.87 3.13c.87 1.12 1.58 2.31 2.11 3.6.67 1.63 1.12 3.4 1.22 5.16.1 1.9-.37 3.82-.7 5.68l-1.72 8.29c-.3 1.25 1.63 1.78 1.93.53l1.91-9.37c.32-1.82.71-3.68.55-5.54-.4-4.69-2.85-10.73-7.51-12.63-.7-.29-1.06.69-.67 1.15h.01zm-72.751 19.841c-1 1.48-1.39 3.3-1.82 5.01l-1.42 5.72-2.64 11.26c-.29 1.25 1.64 1.79 1.93.53l2.63-11.27 1.22-5.54c.4-1.84.9-3.71.65-5.56-.04-.29-.38-.41-.55-.15z"/><path d="M134.439 194.962c-1.49-1.06-2.69-2.5-4.06-3.71l-3.9-3.37-7.74-7.03c-5.14-4.73-10.12-9.63-14.99-14.63-.94-.97-2.42.52-1.48 1.48 4.99 5.11 10.14 10.06 15.41 14.89 2.57 2.36 5.2 4.65 7.85 6.91 1.25 1.06 2.49 2.14 3.82 3.1 1.52 1.11 3.23 1.85 4.79 2.88.32.21.61-.29.3-.51v-.01zm-27.38-55.311c-4.77 2.44-8.78 6.09-12.38 10.01-.87.95.54 2.36 1.41 1.41 3.56-3.87 7.55-7.3 11.33-10.95.25-.24-.07-.62-.36-.47z"/><path d="M114.04 112.901c-1.68.91-3.48 1.6-5.04 2.73-1.39 1.01-2.67 2.14-3.88 3.36-2.62 2.67-4.88 5.74-6.56 9.09-3.44 6.84-4.72 14.45-4.33 22.05.07 1.29 2.1 1.28 2 0-.56-7.19.79-14.6 4.04-21.05 1.59-3.15 3.57-6.07 6-8.64 1.17-1.24 2.43-2.4 3.73-3.51 1.42-1.21 2.71-2.56 4.34-3.51.33-.19.04-.7-.3-.51v-.01zm21.808 82.05l-3.92-8.4-4.26-7.91-8.6-15.67c-5.11-9.47-10.33-20.26-8.53-31.34.9-5.57 3.56-10.73 7.44-14.81 1-1.05-.6-2.65-1.59-1.59-7.49 7.96-9.62 18.96-7.14 29.43 1.3 5.49 3.63 10.7 6.19 15.71 2.8 5.48 5.86 10.83 8.83 16.21l5.23 9.37c1.76 3.12 4 6.13 5.84 9.3.19.33.69.04.51-.3zm.121 6.491c-.46 2.23-.31 4.5-.02 6.75.32 2.44.43 4.94.41 7.4-.05 4.81-.45 9.63-.76 14.43-.39 6.12-.66 12.2-.68 18.34l-.02 13.95c.02 1.33 2.05 1.33 2.06 0l.04-22.91c.02-2.49-.03-4.95.11-7.44.27-4.81.72-9.58.65-14.4l-.09-8.13c-.01-2.71.09-5.41-.9-7.99-.14-.35-.72-.45-.81 0h.01zm6.871 2.738s-.02-.01-.03-.02l.19.14-.02-.02.15.19v-.02l.09.22v-.03l.03.25v-.04l-.03.26s0-.03.01-.04l-.26.44a1.16 1.16 0 0 0 .16-.21.81.81 0 0 0 .12-.37c0-.06.01-.11.02-.17l-.04.27s.01-.06.02-.09l-.1.24s.03-.05.04-.08l-.16.2.04-.04-.2.16s.02-.02.04-.02l-.24.1h.03l-.27.04h.03l-.27-.04h.03l-.24-.1s.02.01.03.02l-.2-.16h.01l-.16-.19c0 .01.01.02.02.03l-.1-.24s.02.04.02.07l-.04-.27v.07l.04-.27s-.01.06-.02.08l.1-.24-.05.09.16-.2-.08.08.2-.16-.09.06.24-.1s-.05.02-.08.02l.27-.04h-.07l.27.04s-.05 0-.07-.02l.24.1s-.02-.01-.03-.02l.46.6v-.04l.04.27v-.15l-.04.27c0-.07.03-.13.05-.19l-.1.24a.95.95 0 0 1 .1-.17l-.16.2a1.21 1.21 0 0 1 .16-.16l-.21.16s.08-.06.13-.08l-.24.1c.06-.03.12-.04.19-.05l-.27.04h.17l-.28-.04.11.02-.77-1.02c0 .08 0 .16-.02.23l.04-.28c-.03.19-.08.37-.15.55l.11-.27c-.09.2-.19.39-.32.56l.18-.23c-.08.1-.16.18-.25.27h1.62s-.06-.05-.08-.09l.18.23-.06-.1.12.27-.04-.14.04.31v-.16l-.04.31a.83.83 0 0 1 .06-.21l-.12.28a1.18 1.18 0 0 1 .11-.19l-.18.24s.08-.09.13-.13l-.24.18s.09-.06.14-.08l-.28.12.14-.04-.31.04h.13l-.31-.04a.45.45 0 0 0 .08.02l-.82-.82a.31.31 0 0 0 .02.07l-.04-.31v.07l.04-.31-.02.08.12-.28s-.02.05-.04.07l.19-.24-.08.08.24-.19s-.07.05-.11.07l.28-.12a.42.42 0 0 1-.16.04l.32-.04h-.13l.32.04s-.06-.01-.09-.02l.29.12s-.05-.02-.07-.04l.24.19-.05-.05.19.24-.03-.06.12.29s-.01-.03-.01-.04c-.08-.29-.29-.57-.55-.72-.14-.09-.29-.14-.45-.14-.16-.04-.32-.03-.48.02-.29.09-.57.27-.72.55s-.22.62-.12.93c.09.26.18.43.36.63.08.09.18.16.28.22.02.02.04.03.07.04.26.13.41.17.71.19.15 0 .32-.02.46-.05.56-.12 1.07-.58 1.21-1.14.16-.67-.15-1.48-.9-1.63-.15-.03-.31-.06-.46-.04-.31.03-.45.06-.73.2-.46.22-.79.7-.94 1.18a1.84 1.84 0 0 0-.02.96c.07.29.25.62.48.81.1.11.23.19.37.24.14.07.28.1.44.1.3-.01.59-.12.81-.33a3.59 3.59 0 0 0 .46-.57c.13-.2.24-.44.32-.67s.11-.48.13-.72c.02-.16.01-.32 0-.48l-.04-.28c-.03-.14-.1-.26-.19-.36-.13-.16-.33-.34-.55-.38-.31-.05-.61-.07-.91.04s-.53.24-.75.47a1.97 1.97 0 0 0-.45.74c-.05.14-.06.29-.07.44a1.68 1.68 0 0 0 .05.45c.05.25.26.49.48.62.09.05.19.09.29.12a1.27 1.27 0 0 0 .67 0c.35-.09.62-.32.82-.61.01-.02.03-.04.04-.06a1.6 1.6 0 0 0 .13-.3c.03-.1.04-.21.05-.32 0-.11-.02-.23-.04-.33-.04-.21-.16-.4-.3-.55-.12-.13-.21-.17-.35-.23-.16-.07-.22-.1-.42-.1-.42.01-.79.23-1.01.59-.26.43-.28 1.03.11 1.4l-.16-.2c.14.23.37.44.64.51.09.02.2.04.3.04.2 0 .33-.06.51-.14.14-.08.24-.19.32-.32a.89.89 0 0 0 .12-.45c0-.3-.17-.63-.44-.78l-.07-.05zm-129.671 5.481c2.11-5.74 3.22-11.88 4.73-17.8a429.72 429.72 0 0 1 3.95-14.47c1.66-5.69 3.52-11.31 5.64-16.84 3.55-9.25 7.76-18.42 13.19-26.73 2.9-4.43 6.18-8.54 10.9-11.14 4.98-2.74 11.05-3.16 16.61-3.49 6.14-.36 12.29-.14 18.43-.28s12.49-.56 18.71-1.19c1.3-.13 1.33-2.18 0-2.06-5.76.52-11.54.88-17.33.99l-15.88.21c-5.95.25-12.17.36-17.84 2.39-5.07 1.81-9.27 5.32-12.49 9.56-6.16 8.12-10.62 17.57-14.49 26.94-2.51 6.06-4.74 12.25-6.63 18.53-1.49 4.97-2.88 9.98-4.23 14.99l-2.49 9.71c-.82 3.48-1.67 6.93-1.98 10.5-.06.73.98.76 1.2.16v.02z"/><path d="M57.799 200.761c-1.83-4.97-2.94-10.33-3.85-15.54s-1.5-10.82-1.84-16.28c-.64-10.22-1.48-20.68-.33-30.89.65-5.79 2.24-11.46 5.05-16.58.6-1.1-1.1-2.08-1.67-.98-4.73 9.15-5.7 19.75-5.51 29.9.2 10.8.92 21.77 2.61 32.45.48 3.02 1.08 6.01 1.84 8.97.81 3.13 1.96 6.1 3.13 9.1.14.35.71.2.57-.16v.01zm-44.03 9.66c.79 1.3 1.36 2.7 2.16 3.99l2.81 4.07c2.14 2.9 4.5 5.61 6.94 8.25 5.74 6.21 12.19 11.63 19.35 16.13 4.61 2.89 9.46 5.37 14.52 7.37.92.36 1.31-1.11.41-1.48-8.56-3.48-16.56-8.11-23.7-13.98-5.85-4.81-10.91-10.2-15.57-16.16-1.12-1.43-2.2-2.9-3.27-4.37s-2.2-2.64-3.14-4.11c-.21-.32-.71-.03-.51.3v-.01zm2.309-6.07c1.58 3.03 3.34 5.77 5.41 8.49 2.24 2.95 4.65 5.78 7.18 8.49 5.64 6.02 11.87 11.46 18.58 16.26 4.21 3.01 8.57 5.77 13.06 8.34.86.49 1.64-.85.77-1.32-14.52-7.85-26.93-19.15-37.31-31.9l-7.22-8.72c-.23-.27-.62.07-.47.36zM71.16 162.02c-1.71 5.8-3.39 11.61-4.31 17.61s-1.36 11.56-1.58 17.38c-.38 10.38.12 20.75-.83 31.11-.67 7.25-1.73 14.45-3.13 21.6-.08.42.56.6.65.18 2.2-11.12 3.61-22.41 4.32-33.72.7-11.17.32-22.39 1.7-33.52.85-6.86 1.94-13.8 3.75-20.47.1-.37-.46-.52-.57-.16v-.01z"/><path d="M50.749 192.461c.33 4.5.63 8.96 1.37 13.41l2.3 13.67c1.35 9.18 3.58 18.14 6.36 26.99.36 1.16 2.2.66 1.82-.5-2.78-8.64-5.09-17.44-7.32-26.23-1.12-4.42-1.78-9.04-2.32-13.56l-1.62-13.78c-.04-.38-.62-.38-.59 0zM65.16 216.18c-.67 2.79.05 5.71.34 8.54l.83 9.44a297.18 297.18 0 0 1 .82 19.11c.01 1.29 2 1.29 2 0 0-6.46-.23-12.91-.72-19.35a229.63 229.63 0 0 0-.93-9.43c-.34-2.83-.38-5.87-1.8-8.38a.3.3 0 0 0-.54.07zm140.739-39.9c-.67 1.69-.63 3.48-.75 5.28l-.51 5.91c-.46 4.31-1.08 8.6-1.9 12.85-1.74 8.97-4.46 17.81-7.93 26.26-.49 1.19 1.45 1.71 1.93.53 3.54-8.64 6.2-17.55 8.03-26.71.84-4.21 1.5-8.46 1.93-12.73.2-1.97.35-3.94.47-5.92.11-1.85.31-3.69-.3-5.47-.17-.49-.78-.45-.96 0h-.01zm9.3 19.542c-.2.73-.59 1.32-.87 2.02s-.47 1.44-.7 2.15l-1.57 4.52c-1.19 3.29-2.37 6.57-3.77 9.78-2.91 6.65-6.45 12.98-10.51 19-.72 1.07 1.01 2.07 1.73 1.01 4.13-6.14 7.67-12.69 10.58-19.49 1.35-3.14 2.65-6.35 3.64-9.62a121.18 121.18 0 0 0 1.27-4.62c.19-.73.4-1.47.53-2.21.14-.8.07-1.59.24-2.39.08-.37-.47-.53-.57-.16v.01zm-65.611-49.711c1.35 12.1 3.31 24.12 4.9 36.18l2.89 23.76c1.62 12.89 3.42 25.77 5.58 38.58 1.47 8.74 3.13 17.53 7.06 25.55 2.82 5.76 7.05 10.46 13.52 11.98 3.48.82 7.06.31 10.59.16l12.58-.45c1.18-.03 1.19-1.88 0-1.84l-11.12.45-4.88.25c-1.63.09-3.25.3-4.86.11-6.28-.74-10.82-4.76-13.68-10.18-4.03-7.63-5.76-16.12-7.16-24.56-2.08-12.51-3.8-25.09-5.38-37.67l-2.87-23.93c-1.67-12.91-3.61-25.81-6.6-38.48-.08-.32-.62-.26-.58.08l.01.01zm36.942-18.821c11.91 2.13 23.98 4.12 35.38 8.31 4.78 1.76 9.21 4.29 12.61 8.14 3.63 4.11 5.84 9.3 7.2 14.56 1.55 5.97 2.32 12.14 2.89 18.27.6 6.52.84 13.08.86 19.63.02 12.51-.76 25.02-2.08 37.46-1.07 10.13-2.36 20.22-4.12 30.25-.24 1.35 1.83 1.93 2.06.57 3.74-21.49 6.43-43.19 6.51-65.04.02-6.63-.19-13.26-.71-19.88-.5-6.38-1.19-12.82-2.63-19.07-1.26-5.47-3.11-10.98-6.35-15.62a28.93 28.93 0 0 0-11.73-9.77c-6.22-2.85-13.12-4.45-19.75-6.01s-13.22-2.77-19.99-3c-.67-.02-.85 1.07-.16 1.2h.01z"/><path d="M240.738 263.761c-2.4-2.32-5.65-3.8-8.58-5.39-3.28-1.79-6.59-3.54-9.94-5.21-6.36-3.16-12.88-6.02-19.49-8.63-1.22-.48-1.76 1.5-.54 1.97 6.62 2.57 13.11 5.45 19.48 8.58 3.28 1.61 6.53 3.29 9.71 5.07 2.86 1.6 5.65 3.61 8.76 4.64.59.2 1.03-.61.6-1.03zm-.848-6.309c-1.22-1.2-2.31-2.23-3.77-3.16l-4.34-2.52c-3.29-1.76-6.5-3.68-9.84-5.35-6.86-3.45-14.02-6.36-21.27-8.87-1.2-.41-1.72 1.49-.52 1.9 7.29 2.48 14.32 5.49 21.24 8.84 3.22 1.56 6.46 3.13 9.5 5.01l4.28 2.61c1.44.85 2.87 1.41 4.43 2.03.29.11.49-.3.29-.5v.01zm-1.282 7.509c-2.07.26-4.13.57-6.22.49s-4.21-.52-6.19-1.28c-.9-.35-1.3 1.11-.4 1.45 2.1.79 4.35 1.22 6.59 1.2s4.41-.36 6.33-1.44c.18-.1.11-.44-.11-.41v-.01zm-94.209-38.36c-.01-.09-.03-.16-.07-.25-.02-.03-.06-.11 0 .03-.04-.07-.04-.13-.11-.19a.64.64 0 0 0-.199-.11c-.15-.05-.35-.08-.5-.02-.32.12-.631.38-.691.74-.03.22-.01.43.1.62.08.15.22.28.37.36.28.15.63.19.93.08a1.13 1.13 0 0 0 .511-.38c.11-.15.159-.34.179-.53.03-.34-.14-.71-.39-.94-.29-.26-.689-.39-1.069-.27-.32.1-.6.33-.75.63s-.211.66-.091.99c.13.35.41.63.78.71.33.07.69.01.97-.17a1.17 1.17 0 0 0 .56-.92c.05-.69-.64-1.21-1.28-1.18-.38.02-.71.18-.93.5s-.21.74-.04 1.08c.16.3.45.5.76.62a1.24 1.24 0 0 0 .98-.05c.18-.08.31-.23.42-.38.12-.17.161-.37.181-.57.03-.37-.141-.72-.371-1-.24-.29-.59-.45-.96-.49s-.729.13-.979.38c-.49.49-.571 1.27-.271 1.87.05.09.11.17.18.25.02.02.03.04.05.06.04.04.09.08.14.11l.151.06a.65.65 0 0 0 .339 0l.36-.07c.29-.07.581-.17.831-.33.32-.21.569-.49.679-.86a1.28 1.28 0 0 0-.16-1.06c-.21-.3-.51-.53-.87-.62-.22-.06-.42-.06-.64-.02-.05 0-.09.02-.14.03a1.07 1.07 0 0 0-.289.13 1.36 1.36 0 0 0-.421.44 1.49 1.49 0 0 0-.17.59c-.03.31.05.64.21.91.18.31.481.56.831.64.39.1.819.02 1.149-.22.19-.14.35-.29.47-.5a1.34 1.34 0 0 0 .19-.48c.04-.23.05-.46-.02-.69s-.169-.39-.319-.56c-.1-.12-.241-.22-.371-.29a1.58 1.58 0 0 0-.47-.18c-.39-.07-.76-.04-1.11.15-.65.34-.91 1.21-.68 1.88a1.65 1.65 0 0 0 .69.89c.31.19.78.08.96-.25s.08-.75-.25-.96c-.03-.02-.06-.04-.08-.06l.141.11a1.07 1.07 0 0 1-.151-.15l.11.14c-.05-.06-.09-.13-.12-.2l.07.17a.83.83 0 0 1-.07-.27l.02.19a1.31 1.31 0 0 1 0-.28l-.02.18c.01-.08.03-.17.07-.24l-.07.17c.03-.06.06-.11.1-.17l-.11.14c.04-.05.09-.1.14-.14l-.14.11c.05-.04.1-.07.16-.1l-.17.07c.07-.03.14-.05.22-.06l-.18.02a1.22 1.22 0 0 1 .27 0l-.179-.02c.09.01.169.04.259.07l-.16-.07c.07.03.131.07.201.11l-.141-.11c.05.04.1.09.15.14l-.11-.14a1.67 1.67 0 0 0 .101.16l-.071-.16a1.21 1.21 0 0 1 .05.18l-.02-.18v.19l.02-.18c-.01.08-.029.15-.059.22l.069-.16c-.03.07-.07.14-.12.2l.11-.14c-.05.06-.099.12-.169.17l.14-.11c-.06.05-.13.09-.2.12l.159-.07a1.21 1.21 0 0 1-.18.05l.18-.02h-.17l.181.02c-.06 0-.11-.02-.17-.04l.159.07c-.05-.02-.1-.05-.15-.09l.14.11c-.05-.04-.1-.09-.14-.14l.11.14c-.04-.06-.08-.12-.11-.19l.07.16a2.17 2.17 0 0 1-.07-.24l.021.18v-.23l-.021.18c0-.06.031-.12.051-.18l-.071.16.08-.13-.1.14s.07-.08.11-.11l-.14.1s.08-.05.13-.07l-.16.07c.05-.02.101-.03.151-.04l-.181.02h.2l-.18-.02a.83.83 0 0 1 .21.06l-.159-.07a1.12 1.12 0 0 1 .209.12l-.129-.1c.05.04.1.09.14.14l-.101-.13a1.13 1.13 0 0 0 .09.15l-.07-.16.04.14-.02-.18v.17l.02-.17c0 .07-.03.13-.05.19l.07-.16c-.03.06-.06.11-.1.16l.1-.13c-.05.07-.11.12-.18.18l.13-.1c-.1.08-.22.14-.34.19l.161-.07c-.24.1-.49.16-.75.2l.629.17-.06-.07.1.13c-.05-.06-.08-.12-.11-.19l.06.15c-.03-.07-.05-.15-.06-.23l.021.17a1.31 1.31 0 0 1 0-.28l-.021.17c.01-.09.04-.17.07-.25l-.06.15c.03-.07.07-.14.12-.2l-.1.13c.04-.05.09-.1.14-.14l-.13.1s.1-.07.16-.09l-.149.06c.05-.02.109-.04.159-.04l-.17.02h.151l-.17-.02c.06 0 .119.03.179.05l-.149-.06c.06.03.119.06.179.11l-.13-.1c.06.05.12.1.16.17l-.099-.13c.05.06.08.13.11.2l-.061-.15a1.21 1.21 0 0 1 .05.18l-.02-.17v.16l.02-.16s-.019.1-.039.14l.059-.15-.08.13.101-.12s-.05.06-.08.08l.119-.1-.1.06.15-.06-.14.04.161-.02h-.181l.16.02c-.07-.01-.129-.03-.199-.05l.149.06c-.07-.03-.13-.07-.19-.11l.121.1s-.091-.08-.131-.13l.1.12-.07-.12.06.15s-.03-.08-.03-.12l.021.16v-.12l-.021.16.03-.11-.06.14s.03-.07.06-.1l-.09.12s.05-.06.09-.09l-.12.09.111-.06-.14.06.149-.04-.16.02h.19l-.16-.02c.07 0 .141.03.201.05l-.14-.06a.59.59 0 0 1 .149.09l-.119-.09a.9.9 0 0 0 .099.1l-.09-.12a.48.48 0 0 0 .06.11l-.06-.14a.5.5 0 0 0 .03.12l-.02-.16v.14l.02-.16s-.019.08-.039.13l.059-.14s-.04.08-.07.11l.091-.12s-.071.08-.121.12l.121-.09a1.05 1.05 0 0 1-.181.1l.14-.06c-.06.03-.13.04-.2.05l.161-.02h-.22l.149.02s-.1-.02-.14-.04l.14.06s-.08-.04-.11-.07l.11.09-.09-.09.09.11s-.049-.07-.069-.11l.059.13s-.029-.08-.029-.12l.019.14v-.16l-.019.14c0-.07.029-.13.049-.2l-.049.13c.03-.07.069-.14.119-.2l-.08.11s.08-.09.13-.13l-.11.08s.09-.06.14-.08l-.13.05c.05-.02.1-.04.16-.04l-.14.02h.131l-.14-.02c.05 0 .099.02.149.04l-.13-.05.14.08-.11-.08s.09.08.13.13l-.08-.11a.88.88 0 0 0 .09.16l-.049-.12a.59.59 0 0 1 .049.19l-.019-.14v.16l.019-.14s-.02.09-.04.13l.05-.12s-.029.07-.059.1l.079-.1s-.049.06-.079.08l.099-.08-.12.07.12-.05-.15.04.14-.02h-.169l.139.02c-.06 0-.109-.02-.169-.04l.119.05s-.079-.04-.119-.07l.099.08s-.06-.05-.08-.08l.08.1s-.04-.06-.05-.09l.05.12-.03-.1.02.13v-.1l-.02.13.03-.12-.05.12s.03-.06.05-.08c.03-.05-.09.1-.04.05.01-.01.02-.03.04-.04.06-.05.02-.02 0 0s-.06.05 0 0c.03-.02.06-.04.09-.05l-.12.05s.09-.03.13-.06l.06-.05c-.04.03-.05.04-.03.02 0 0 .02-.01.03-.02.03-.02-.12.04-.06.02l.06-.02h-.08c.06.02.11 0 .16-.02.06-.02.11-.06.15-.1l-.18.1s.091-.02.021-.01-.031 0-.011 0 .06 0-.03 0c.09.01.17 0 .25-.05.06-.05.12-.14.11-.22l.01.02z"/><use xlink:href="#B"/><use xlink:href="#B"/><path d="M139.838 167.151c-.44.21-.73.5-.99.91a4.32 4.32 0 0 0-.53 1.25c-.11.44-.16.91-.11 1.36s.14.98.47 1.32c.91.96 1.9-.43 2.32-1.16.48-.85.67-1.9.15-2.78-.23-.39-.77-.97-1.27-.71-.37.19-.7.51-.96.83-.55.7-.87 1.56-.88 2.45-.01.84.29 2.27 1.36 2.27.51 0 .95-.42 1.26-.79a4.23 4.23 0 0 0 .71-1.21c.32-.82.36-1.77.12-2.61-.14-.48-.37-1.07-.91-1.21s-1.06.24-1.42.58c-.67.62-1.02 1.56-1.22 2.43-.19.81-.2 1.8.38 2.46.75.87 2.01.47 2.65-.32s.94-1.9.83-2.91c-.05-.52-.17-1.07-.44-1.53a1.14 1.14 0 0 0-1.54-.46c-.48.25-.77.74-1.04 1.2-.28.48-.54 1-.68 1.54-.26 1.02-.07 2.66 1.28 2.7 1.12.03 1.87-1.1 2.17-2.03.15-.48.22-1.01.17-1.51-.05-.57-.2-1.27-.84-1.45-1.2-.34-1.91 1.29-2.06 2.21-.09.56-.08 1.1.05 1.65.06.26.37.54.66.5.64-.08 1.17-.43 1.45-1.03.26-.56.29-1.27-.09-1.79-.24-.33-.57-.41-.94-.25-.63.27-.93 1.05-.74 1.69a.7.7 0 0 0 .85.48c.37-.1.59-.49.48-.85-.02-.07-.02-.08-.02-.04 0 .05 0 .04 0-.04-.01.06-.01.07 0 .02s.01-.04-.01.01l.03-.06s-.04.05.02-.01c-.1.05.06-.02.08-.03l-.94-.25s.11.21.07.08c.02.04.03.09.04.13.03.09 0-.11 0-.02v.11c0 .1.03-.11 0-.01-.01.05-.08.27-.02.14-.03.07-.07.13-.11.2.07-.11-.04.04-.08.08-.05.05-.05.03 0 0l-.07.04c.08-.03-.03 0-.05.01l-.14.03.84.47c-.12-.48-.09-.98.08-1.48.07-.2.17-.4.31-.6.09-.13-.08.13.06-.08.14-.2.05-.02.03-.04.07.09-.35-.11-.29-.08-.05-.03-.05-.13-.03 0 .09.48.08.94-.08 1.44-.07.21-.17.41-.3.61-.11.17-.23.31-.45.4.09-.04-.04 0-.07.01h-.03c.07 0 .06 0-.02 0 .11.07.01-.04-.01-.01.04-.06.12.16.01-.02.04.07-.01-.04-.01-.05.04.09-.03-.12-.03-.12a1.58 1.58 0 0 1-.04-.38c0-.53.26-1.06.52-1.53l.39-.66.17-.18.03-.02c.07-.04.08-.05.03-.01-.01 0-.21-.04-.21-.04l-.02-.02.07.12c0-.01.04.09.02.06a2.4 2.4 0 0 1 .12.38c.07.27.1.49.09.78 0 .47-.11.95-.35 1.37-.12.21-.24.4-.44.54-.02.02-.19.1-.18.09a.46.46 0 0 1-.2.01c-.09-.02.1.07-.03-.01 0 0-.14-.1-.07-.04s-.05-.06-.05-.06c.07.09.02.02 0 0 0-.01-.09-.18-.04-.05-.01-.04-.03-.07-.04-.11-.02-.06-.03-.11-.04-.17-.03-.13 0 .07-.01-.08-.02-.21-.01-.42.01-.63 0 .03-.02.1 0-.02.01-.06.02-.12.04-.18l.09-.34c.13-.48.28-.91.58-1.31.07-.1.25-.28.34-.36.04-.03.27-.14.27-.16-.03.21-.25-.12-.27-.11l.1.18c.34.73.29 1.7-.07 2.45-.11.22-.24.44-.39.61-.08.1-.17.19-.27.27.04-.03-.16.14-.12.09l-.07.04s.01-.04.09-.01h.02l-.11-.18-.09-.25c-.08-.27-.1-.45-.1-.72 0-.92.45-1.87 1.27-2.37h-.53c.57.29.65 1 .48 1.56-.12.38-.33.72-.56 1.04-.1.13-.2.29-.33.39-.03.03-.07.04-.1.06.09-.06.07.12.02-.02-.09-.28-.17-.53-.19-.83a3.56 3.56 0 0 1 .08-1.03c.08-.34.21-.67.39-.97l.26-.39c.12-.16.2-.34.32-.51.17-.26-.15-.5-.39-.39v.03z"/><path d="M151.219 156.341c-1 .73-1.72 1.88-2.51 2.84l-2.86 3.17c-1.75 1.83-3.55 3.64-5.53 5.21-.54.43.24 1.24.77.77l5.62-5.28 2.75-3.13c.82-.97 1.83-2 2.26-3.2.09-.26-.26-.54-.49-.37l-.01-.01zm-11.069 12.3c-.88-1.13-1.64-2.42-2.44-3.61l-2.59-3.57-5.29-7.99c-3.78-6.13-7-12.59-9.71-19.27-1.58-3.89-2.94-7.86-4.12-11.88-.21-.72-1.34-.41-1.12.31 4.13 13.76 10.48 26.97 18.84 38.67.97 1.35 1.94 2.72 2.98 4.01s2.2 2.33 3.24 3.54c.13.15.32-.06.21-.21zm-22.701-51.711c.89 4.44 3.75 8.42 7.38 11.06 1.68 1.22 3.53 2.15 5.42 2.98 1.64.72 3.29 1.4 5.01 1.93 2.59.8 5.26 1.29 7.96 1.54.85.08.84-1.24 0-1.32a38.45 38.45 0 0 1-11.64-2.97c-1.75-.75-3.48-1.55-5.09-2.57-1.94-1.24-3.66-2.82-5.05-4.65s-2.47-4.03-3.35-6.18c-.16-.4-.74-.26-.66.18h.02z"/><path d="M174.93 128.211a45.73 45.73 0 0 0 .99-9.69c0-1.88-.18-3.76-1.73-5.04-1.18-.98-2.78-1.41-4.29-1.19-1.39.2-2.74.93-3.73 1.92l.66-.08c-2.77-1.93-6.7-1.41-8.86 1.19l.68-.09c-3.02-1.61-6.8-1.02-9.16 1.46l.67-.09c-2.54-1.18-5.48-.67-7.17 1.65s-1.64 5.26-1.22 8.01 1.13 5.33 1.64 8c.23 1.22.41 2.48 1.07 3.56.59.96 1.36 1.81 2 2.73 1.03 1.47 1.95 3.01 2.77 4.6.32.62 1.27.07.94-.55-1.22-2.35-2.7-4.47-4.28-6.59-.68-.91-1-1.7-1.23-2.81l-1.39-6.69c-.29-1.3-.55-2.62-.66-3.95-.12-1.41-.14-2.92.43-4.24.48-1.12 1.2-2.17 2.29-2.77 1.31-.71 2.92-.61 4.24 0 .22.1.49.1.67-.09 2.02-2.1 5.22-2.64 7.81-1.27.2.11.52.11.68-.09 1.85-2.25 5.12-2.71 7.52-1.04.19.13.5.08.66-.08 1.71-1.74 4.58-2.34 6.56-.68 1.41 1.18 1.38 3.02 1.37 4.7s-.13 3.45-.29 5.17l-.31 3.95c-.03.37.57.45.64.09h.03zM48.15 250.49c.8.51 1.74.68 2.66.82 1.22.18 2.45.25 3.69.24 2.22-.02 4.43-.4 6.55-1.05.72-.22.41-1.35-.31-1.13a25.91 25.91 0 0 1-6.24 1.08c-1.15.06-2.3.01-3.46-.09-.93-.08-1.87-.26-2.81-.16-.15.02-.22.2-.08.29zm-19.312 1.48c5.92-.32 11.83-.37 17.75.15 3.59.31 7.12.88 10.66 1.49 7.29 1.26 14.63 2.31 21.96 3.31 12.99 1.77 26.01 3.27 39.07 4.44 6.5.59 13.17.75 19.54 2.29 3.6.87 7.14 1.99 10.71 2.98 6.12 1.71 12.29 3.27 18.48 4.71l3.46.79c.63.14.89-.82.27-.96a447.44 447.44 0 0 1-18.04-4.43l-12.66-3.55c-5.82-1.57-11.74-1.96-17.72-2.47-12.99-1.11-25.96-2.53-38.89-4.23-8.23-1.08-16.44-2.28-24.63-3.62-2.52-.41-5.03-.87-7.57-1.19-6.33-.81-12.74-1.03-19.11-.57-1.09.08-2.18.18-3.26.32-.34.04-.36.57 0 .55l-.02-.01z"/><path d="M47.92 243.23c-.31.5-.3 1.16-.39 1.72-.11.75-.26 1.49-.47 2.21-.36 1.25-.91 2.37-1.59 3.47-.42.68.7 1.33 1.07.62.62-1.21 1.12-2.52 1.5-3.82.22-.74.39-1.5.51-2.27.09-.62.22-1.34-.06-1.93-.11-.23-.44-.19-.56 0h-.01zm-34.101-30.859c-4.5 11.1-8.05 22.57-10.58 34.28-1.11 5.12-2.04 10.29-2.63 15.5-.52 4.53-1.1 9.57.11 14.04.44 1.62 1.26 3.29 2.89 3.95 1.54.62 3.41.57 5.04.68 2.36.16 4.71.17 7.07 0 1.28-.1 1.29-2.1 0-2-1.88.14-3.77.17-5.66.09-1.73-.08-3.64-.05-5.32-.5-1.23-.33-1.72-1.44-2.07-2.67-1.18-4.17-.61-8.96-.16-13.2.84-7.92 2.38-15.83 4.28-23.57 2.19-8.91 4.86-17.7 7.87-26.36.18-.53-.63-.73-.83-.23l-.01-.01zm191.331 69.12c.89.28 1.99-.33 2.77-.72l3.23-1.76c2.53-1.48 4.93-3.18 7.17-5.06 4.46-3.76 8.12-8.52 11-13.56.69-1.22-1.18-2.31-1.88-1.1-2.79 4.9-6.41 9.12-10.61 12.87-2.1 1.87-4.35 3.57-6.73 5.06a40.45 40.45 0 0 1-3.07 1.75c-.74.39-1.88.84-2.24 1.65-.16.35-.04.74.35.87h.01zm.959-21.241c-.29-3.16-1.11-6.22-1.91-9.28-1.08-4.13-2.27-8.22-3.53-12.3a383.18 383.18 0 0 0-7.51-21.86c-5.51-14.59-9.8-29.6-13.41-44.77-2.07-8.72-3.98-17.49-5.63-26.3-.24-1.26-2.16-.73-1.93.53 2.86 15.29 6.34 30.5 10.61 45.46 2.25 7.86 4.71 15.67 7.57 23.33 2.5 6.72 4.98 13.42 7.11 20.27l4.23 14.36c1.03 3.58 1.86 7.25 3.3 10.7.22.53 1.17.55 1.1-.15v.01zm-30.14-139.63l2.2 1.6c.69.59 1.25 1.35 1.66 2.16.67 1.33.97 2.96.53 4.41-.52 1.7-1.41 3.34-2.24 4.91l-2.36 4.13c-1.05 1.84-1.99 3.74-2.85 5.68-.32.71.74 1.33 1.05.62l2.73-5.57 2.57-4.55 1.5-3.06c.32-.69.66-1.39.83-2.13.38-1.6-.02-3.36-.75-4.8-.89-1.76-2.67-3.67-4.79-3.69-.18 0-.2.21-.08.31v-.02z"/><path d="M174.558 155.851c-.3-.14-.5 0-.77.15a13.85 13.85 0 0 0-1.27.77l-2.66 1.7a56.16 56.16 0 0 1-5.77 2.98c-3.4 1.53-6.96 2.7-10.59 3.53-.69.16-.4 1.21.29 1.05 3.81-.86 7.51-2.1 11.06-3.74 2.11-.97 4.14-2.09 6.1-3.33.85-.53 1.72-1.05 2.51-1.68.11-.09 1.63-1.2 1.09-1.45l.01.02z"/><path d="M163.719 156.002l-.02.13.12-.15c-.24.04-.33.24-.4.44l-.32.9-.69 1.91-1.29 3.76c-.21.61.76.87.96.27l1.26-3.84.58-1.86c.12-.37.56-1.32.01-1.56l.08.14v-.13c0-.2-.28-.18-.3 0l.01-.01z"/><path d="M156.84 158.982c.22 0 .39.22.54.36l.59.53 1.15 1.03 2.38 2.05c.21.18.53.21.74 0 .19-.19.22-.56 0-.74l-2.79-2.28-1.38-1.09c-.36-.28-1.03-.97-1.47-.42-.16.2-.07.54.22.54l.02.02z"/><path d="M157.499 158.871c-.43.14-.53.78-.67 1.16l-.52 1.43-1.01 2.82c-.22.62.79.91.99.27l.89-2.8.44-1.4c.11-.36.45-1 .21-1.35-.07-.1-.2-.17-.33-.13zm11.449.31c-.14-.38-.55-.66-.85-.92l-1.11-.9-1.17-.82-1.12-.7c-.26-.19-.64 0-.75.25-.13.31.04.61.34.72.37.13.72.36 1.05.56l1.17.75.99.75.48.4c.17.15.31.3.53.36.25.07.54-.18.45-.45h-.01zm-14.769 12.13c.55.37 1.8.26 2.43.16l2.75-.52a38.28 38.28 0 0 0 5.85-1.67c3.9-1.46 7.66-3.33 11.05-5.76.48-.35.72-.96.4-1.51-.29-.5-1.01-.72-1.51-.4-3.36 2.17-6.9 4.09-10.66 5.48a69.71 69.71 0 0 1-5.68 1.85c-.86.24-1.73.39-2.59.61-.39.1-.78.26-1.16.4-.34.13-.75.22-.99.5s-.2.64.11.84v.02z"/></g><path d="M134.529 65.981c2.24 0 4.04-.2 5.29-.39 4.38-.67 6.01-1.79 8.7-1.02 1.69.48 2.78 1.42 3.3 1.88 2.9 2.55 3.31 6.05 3.39 7.01-1.53.42-3.34.72-5.37.66-8.37-.26-13.92-6.48-15.31-8.14z" class="E"/><path d="M141.049 67.711c-.27 1.01-.1 1.89-.02 2.24.05.2.7 2.65 3 3.3 1.74.5 3.2-.39 3.52-.59.27-.16 1.72-1.01 2.08-2.66.41-1.91-.53-4.74-3.14-5.44a4.45 4.45 0 0 0-5.44 3.14v.01z" class="D"/><path d="M145.318 71.121a2.17 2.17 0 1 0 0-4.34 2.17 2.17 0 1 0 0 4.34z" fill="#000"/><g class="E"><path d="M147.918 67.421a.27.27 0 1 0 0-.54.27.27 0 1 0 0 .54zm36.592 11.551a33.72 33.72 0 0 1-3.09-2.73c-2.14-2.15-2.43-3.02-3.86-3.93-2.27-1.45-4.75-1.3-5.23-1.26-4.17.33-6.55 3.73-6.9 4.24.8.75 1.72 1.47 2.78 2.11 6.4 3.87 13.64 2.3 16.29 1.58l.01-.01z"/></g><path d="M177.179 77.362c-.11.23-.51 1.12-1.44 1.71-2.16 1.37-4.89-.19-5.21-.38-.57-.32-1.17-.67-1.57-1.39-.94-1.67.14-3.65.21-3.78.97-1.7 3.5-3.25 5.92-2.09a4.44 4.44 0 0 1 2.09 5.92v.01z" class="D"/><path d="M173.129 77.711a2.17 2.17 0 1 0 0-4.34 2.17 2.17 0 1 0 0 4.34z" fill="#000"/><path d="M175.969 74.54a.27.27 0 1 0 0-.54.27.27 0 1 0 0 .54z" class="E"/><path d="M147.119 110.09c3.33 1.66 6.21 1.95 8.22 2.14 1.87.17 4.37.2 6.84-.64 1.45-.49 2.35-1.1 3.02-1.9a5.38 5.38 0 0 0 .95-1.68c-.65-.06-1.58-.24-2.43-.87-.6-.44-.7-.76-1.18-1.29-.91-1.01-2.62-2.17-4.4-2.17-1.36 0-2 .69-3.02.21-.53-.25-.67-.58-.98-.87-1.58-1.47-5.05.63-9.31 1.1-1.16.13-2.91.19-5.12-.24 1.18 1.59 3.53 4.29 7.39 6.21h.02z" fill="#743f22"/><g style="mix-blend-mode:darken" class="B C"><path d="M192.84 79.511l-1.49-2.47-2.98 7.06a196.71 196.71 0 0 1-4.89 11.55l-3.29 6.7c-1.53 2.85-3.83 6.76-7.1 11.2 1.74-1.29 4.12-3.26 6.51-6.05 1.49-1.74 3.68-4.61 6.89-11.35 1.93-4.04 4.29-9.64 6.35-16.64z"/></g><g class="D"><path d="M175.359 5.312c-12.04-2.63-24.75-1.46-36.1 3.34-10.48 4.43-19.43 11.95-25.8 21.36-3.54 5.23-6.23 11.04-7.94 17.12-.53 1.86 2.37 2.66 2.89.8 2.88-10.21 8.66-19.46 16.5-26.6 8.36-7.61 19.03-12.45 30.23-13.93 6.46-.85 13.06-.58 19.42.81 1.88.41 2.69-2.48.8-2.89v-.01z"/><path d="M176.229 1.111c-11.23-1.98-23.32-1.39-34.12 2.43s-20.07 11.48-26.49 21.16c-2.05 3.1-3.82 6.38-5.29 9.79-.76 1.75 1.83 3.28 2.59 1.51 3.03-7.05 7.34-13.58 12.86-18.92 8.73-8.44 20.21-12.84 32.21-13.82 5.82-.48 11.69-.28 17.45.73 1.89.33 2.701-2.56.801-2.89l-.011.01zm.9 15.989c5.72 2.84 10.79 6.66 15.01 11.47 3.5 3.99 6.28 8.52 8.62 13.27 4.16 8.42 6.36 17.86 7.62 27.16 1.02 7.47 1.29 15.03.94 22.56-.09 1.93 2.91 1.93 3 0 .6-13.1-.68-26.43-4.32-39.06-2.55-8.83-6.59-17.27-12.39-24.44-4.61-5.7-10.41-10.28-16.97-13.54-1.72-.86-3.25 1.73-1.51 2.59v-.01z"/><path d="M177.849 12.681c7.95 3.86 15.3 9.27 20.59 16.42 7.08 9.58 9.46 21.48 10.62 33.12.58 5.76.66 11.56.27 17.34-.13 1.93 2.87 1.92 3 0 .76-11.24-.31-22.74-2.98-33.69s-8.96-21.12-18.07-28.32c-3.69-2.92-7.69-5.4-11.92-7.45-1.73-.84-3.25 1.75-1.51 2.59v-.01z"/><path d="M178.919 9.09c10.72 3.67 19.05 11.4 24.04 21.5 3.63 7.33 5.51 15.52 6.15 23.65.19 2.44.27 4.88.22 7.32-.04 1.93 2.96 1.93 3 0 .33-15.76-3.96-32.94-15.18-44.5-4.85-4.99-10.86-8.61-17.43-10.86-1.83-.63-2.62 2.27-.8 2.89z"/><path d="M179.459 5.01c7.74 1.64 14.76 5.78 19.7 12s7.8 13.71 8.87 21.41c.48 3.46.57 6.97.38 10.45-.11 1.93 2.89 1.92 3 0 .88-15.95-5.16-33.35-19.28-42.04-3.64-2.24-7.7-3.83-11.88-4.71-1.88-.4-2.69 2.49-.8 2.89h.01z"/></g><g fill="#000"><path d="M173.169 113.682c.8-.48 1.63-.85 2.39-1.42.9-.68 1.75-1.44 2.55-2.23 1.4-1.38 2.65-2.92 3.7-4.58 2.32-3.64 4.02-7.71 5.87-11.61 1.26-2.65 2.46-5.32 3.64-8 .29-.66-.67-1.23-.97-.57l-5.98 13.01c-1.74 3.63-3.49 7.18-6.19 10.2-.85.95-1.76 1.86-2.72 2.71-.82.72-1.57 1.56-2.43 2.23-.15.11-.02.36.15.26h-.01zm-30.379 6.03l-4.92-2.52c-2.27-1.27-4.38-2.81-6.28-4.6-3.69-3.48-6.53-7.84-8.26-12.61-.58-1.6-1.04-3.24-1.37-4.91-.14-.71-1.23-.41-1.09.3 1.85 9.23 7.54 17.36 15.64 22.18 1.89 1.12 3.95 2.09 6.11 2.57.24.05.41-.29.17-.41z"/></g><g class="D"><path d="M168.559 33.53c-12.11-1.9-24.15 2.44-32.64 11.2-4.53 4.68-7.45 10.42-9.42 16.58-2.3 7.17-4.1 14.48-5.3 21.91-2.08 12.9-2.23 25.89-2.29 38.93l.36 47.11.59 44.59.03 3.82c.01 1.93 3.01 1.93 3 0l-.51-41.6-.48-45.14c-.01-12.93-.24-25.95 1.12-38.83.8-7.64 2.19-15.21 4.19-22.63 1.63-6.01 3.37-12.17 6.75-17.46 6.27-9.82 17.7-16.22 29.39-15.97 1.48.03 2.95.16 4.41.38 1.89.3 2.7-2.59.8-2.89z"/><path d="M169.369 28.772c-8.37-1.15-16.89.04-24.48 3.84-6.36 3.19-11.69 8.12-15.75 13.92-3.37 4.82-5.47 10.11-7.04 15.76-2.48 8.95-4.5 18-5.62 27.23-1.76 14.57-1.91 29.411-2.13 44.071l-.04 37.81.79 38.45.21 8.03c.05 1.93 3.05 1.93 3 0l-.97-43.98-.09-32.65c.14-15.15.4-30.34 1.6-45.441a150.42 150.42 0 0 1 3.53-22.53c1.04-4.42 2.14-8.85 3.48-13.18.91-2.94 2.02-5.79 3.57-8.46 2.73-4.68 6.19-8.91 10.45-12.3 6.89-5.49 15.64-8.25 24.42-8.02 1.43.04 2.86.14 4.27.33.81.11 1.6-.2 1.85-1.05.2-.7-.25-1.74-1.05-1.85v.02zm.839-3.921c-13.76-1.88-27.53 2.36-37.75 11.78-6.2 5.71-10.33 13.03-12.97 20.97-2.54 7.64-4.16 15.68-5.59 23.59-1.29 7.16-2.22 14.41-2.66 21.68-.37 6.08-.33 12.16-.26 18.24l.04 24.4c-.08 4.67-.33 9.34-.48 14.01-.52 16.46-.34 32.96.29 49.42l.18 4.31c.08 1.92 3.08 1.93 3 0-.7-15.95-.9-31.91-.61-47.87.09-4.97.33-9.93.5-14.9.25-7.32.22-14.65.16-21.97l-.08-19.31c.15-6.72.73-13.42 1.67-20.07 1.04-7.37 2.54-14.67 4.27-21.91 1.86-7.75 4.29-15.42 8.93-21.99 8.27-11.69 22.34-18.42 36.58-17.83a40.82 40.82 0 0 1 3.98.34c.81.11 1.6-.2 1.85-1.05.2-.7-.25-1.74-1.05-1.85v.01zm1.87-4.051c-13.67-2.01-27.74 1.27-38.95 9.41-6.29 4.56-11.51 10.55-14.47 17.77-1.74 4.24-2.91 8.7-4.02 13.14-1.37 5.48-2.55 11.01-3.56 16.57-2.21 12.22-3.82 24.73-3.98 37.17l-.49 39.28-.89 57.94-.14 8.8c-.03 1.93 2.97 1.93 3 0l.93-59.85.54-41.04c.12-10.66.85-21.22 2.36-31.79s3.54-20.84 6.37-31.01c1.01-3.65 2.12-7.33 3.84-10.72s4.09-6.46 6.77-9.15c9.43-9.5 23.13-14.6 36.45-14.12 1.82.07 3.65.22 5.45.49s2.7-2.61.8-2.89h-.01zm.902-3.619c-16.54-3.39-34.13 2.02-46.55 13.31-5.57 5.07-10.13 11.4-12.77 18.48s-4.04 15.28-5.58 22.94c-3.04 15.09-5.42 30.41-5.32 45.84l.32 17.94c.03 7.69-.12 15.38-.45 23.06-.75 17.35-1.18 34.71-1.33 52.08l-.05 8.48c0 1.93 2.99 1.93 3 0 .06-18.26.4-36.53 1.13-54.78.56-13.97.81-27.91.46-41.89s1.09-28.82 3.76-43.03c1.5-7.94 3-15.93 5.05-23.74 1.69-6.41 4.29-12.27 8.46-17.49 10.22-12.78 26.79-20.25 43.15-19.13 1.99.14 3.95.42 5.91.82s2.69-2.5.8-2.89h.01zm-2.041 19.89c5.63 3.57 10.42 8.54 13.58 14.43 3.44 6.41 4.63 13.83 5.19 20.99.95 12.04 1.8 24.1 2.26 36.18.15 4.05.22 8.1.2 12.15-.07 13.81-.85 27.59-1.36 41.39l-1.27 42.51-.15 6.6c-.04 1.93 2.96 1.93 3 0l1.28-45.38 1.45-40.96c.06-4.91.06-9.81-.11-14.72-.4-11.5-1.18-22.98-2.06-34.45-.58-7.61-1.29-15.27-4.24-22.39-2.6-6.27-6.92-11.83-12.22-16.05-1.3-1.03-2.64-2-4.05-2.89-1.64-1.04-3.14 1.56-1.51 2.59h.01zm1.31-4.07c7.15 3.44 12.45 9.29 15.35 16.67 3.13 7.99 4.98 16.57 6.27 25.03 2.02 13.2 2.49 26.74 2.44 40.08-.05 12.42-.56 24.86-.92 37.28l-1.34 42.24-.89 25.13-.04 1.13c-.07 1.93 2.93 1.93 3 0l.8-22.48 1.35-41.76 1.04-40.24c.14-12.62-.33-25.4-1.94-37.93-1.14-8.87-2.93-17.68-5.75-26.17-2.55-7.67-6.64-14.38-13.41-19.03-1.41-.97-2.89-1.81-4.43-2.55-1.73-.83-3.25 1.75-1.51 2.59l-.02.01zm.8-3.959c5.42 2.65 10.19 6.44 13.66 11.38 2.92 4.15 5.31 8.82 6.82 13.68 1.32 4.23 2.08 8.63 2.8 12.99 1.37 8.22 2.5 16.5 3.44 24.78 1.93 17.08 2.1 34.41 1.58 51.58l-1.19 26.87-2.51 46.34-.45 7.74c-.11 1.93 2.89 1.92 3 0l2.76-50.14 1.29-27.69c.62-17.04.49-34.18-1.11-51.16-.79-8.33-1.98-16.66-3.25-24.93-.81-5.28-1.63-10.61-3.06-15.77-2.79-10.09-8.73-19.64-17.49-25.51-1.53-1.03-3.13-1.94-4.79-2.75s-3.25 1.74-1.51 2.59h.01zm1.689-4.071c6.17 3.17 11.61 7.75 15.52 13.51 3.61 5.32 6.11 11.57 7.76 17.77 3.3 12.39 5.4 25.23 6.59 38 1.17 12.59 1.59 25.26 1.29 37.901l-.91 36.82-1.16 47.58-.16 6.41c-.05 1.93 2.95 1.93 3 0l1.21-49.27.99-39.97c.32-11.93.03-23.87-.93-35.77-1.07-13.28-3.21-26.42-6.25-39.39-1.44-6.15-3.54-12.18-6.53-17.76-3.6-6.72-8.99-12.39-15.44-16.44-1.12-.7-2.28-1.35-3.45-1.96-1.71-.88-3.23 1.71-1.51 2.59l-.02-.02zm1.05-3.82c6.67 3.65 12.55 8.63 17.15 14.7 3.35 4.42 5.49 9.69 7.27 14.9 3.52 10.3 5.73 21.07 7.4 31.82l.61 4.17c-.07-.48.01.11.03.25s.04.27.05.41c.11.93.19 1.86.28 2.79.77 8.13 1.23 16.29 1.54 24.45.65 17.09.26 34.2-.28 51.29l-2.22 49.21-.27 4.66c-.12 1.93 2.88 1.92 3 0l2.29-47.72c.62-17.46 1.13-34.95.65-52.42-.33-11.94-.74-24.04-2.48-35.87-1.53-10.42-3.6-20.84-6.75-30.9-1.7-5.43-3.7-10.9-6.66-15.78-3.73-6.15-9.24-11.43-15.14-15.49-1.6-1.1-3.25-2.11-4.95-3.04s-3.21 1.66-1.51 2.59l-.01-.02z"/></g><g fill="#000"><path d="M160.459 77.911c-.24.23-.29.59-.34.91l-.16 1.15a18.27 18.27 0 0 0-.06 2.96c.1 1.57.41 3.12.9 4.62.21.64 1.23.34.99-.27-.55-1.42-.94-2.91-1.1-4.43-.1-.93-.13-1.86-.08-2.79l.1-1.22c.03-.31.09-.6-.04-.89-.04-.09-.17-.09-.23-.03l.02-.01zm28.13-5.72c.09-.49-.24-.83-.51-1.22l-1.11-1.4c-1.05-1.21-2.25-2.28-3.55-3.22-3.3-2.38-7.24-3.65-11.3-3.73-1.43-.03-2.85.1-4.25.35-1.28.23-.75 2.22.54 1.96 6.08-1.22 12.79.69 17.35 5.03a21.2 21.2 0 0 1 1.39 1.45c.3.35.6.91 1.08.99.15.02.33-.04.37-.21h-.01zm-54.18-13.39c.64.02 1.19-.17 1.81-.32l2.35-.47c1.99-.32 3.99-.46 6.01-.33 3.87.24 7.65 1.42 10.99 3.37a30.77 30.77 0 0 1 1.96 1.24 19.2 19.2 0 0 1 .73.52l.36.27c-.01-.01.06.05.18.14.42.34 1 .41 1.41 0 .35-.35.43-1.08 0-1.41a26.79 26.79 0 0 0-21.1-5.22 22.45 22.45 0 0 0-2.9.75c-.73.24-1.42.44-2 .95-.2.18-.03.5.21.51h-.01zm16.97 29.17c-1.08-.55-2.34-.33-3.29.42s-1.31 2.09-.92 3.28c.33 1.02 1.06 2.02 2.09 2.42.86.33 1.82.16 2.71.24 1.33.11 2.44.66 3.51 1.41.8.56 1.82.83 2.8.77s1.82-.24 2.78-.18 2.07.44 3.02.08c1.27-.48 2.1-1.87 1.95-3.22-.16-1.42-1.25-2.47-2.55-2.93-.81-.29-1.15 1-.35 1.28s1.62 1.02 1.63 1.97c.01.81-.63 1.74-1.49 1.8s-1.79-.23-2.66-.25c-.75-.02-1.45.1-2.19.19-.7.08-1.45-.04-2.06-.41-.74-.45-1.37-.94-2.19-1.25-.93-.36-1.91-.51-2.91-.51-.63 0-1.33.1-1.89-.26-.87-.56-1.51-1.89-1.1-2.9.47-1.17 1.86-1.31 2.95-1.42.25-.03.41-.38.14-.52l.02-.01zm14.15-12.35c.21.49.87.88 1.28 1.19a14.76 14.76 0 0 0 2.31 1.42c1.51.75 3.14 1.21 4.8 1.48 3.18.52 6.45.61 9.66.31.65-.06.65-1.08 0-1.02-3.07.33-6.16.25-9.23-.09-1.68-.18-3.35-.55-4.9-1.24-.77-.34-1.5-.75-2.2-1.21-.48-.32-.99-.9-1.55-1.05-.14-.04-.22.11-.17.22v-.01z"/><path d="M165.51 75.412c.67-.46 1.27-1.06 1.89-1.59 1.2-1.04 2.65-1.85 4.22-2.12 2.93-.5 5.89.93 7.73 3.15 1.39 1.68 3.06 3.13 4.86 4.35.6.41 1.16-.57.57-.97a21.97 21.97 0 0 1-4.63-4.19c-.74-.9-1.55-1.63-2.56-2.22-1.71-1.02-3.7-1.56-5.69-1.32-1.75.21-3.34.98-4.69 2.1-.79.66-1.7 1.58-1.93 2.63-.03.12.1.25.22.17l.01.01zM154.459 73.7c-.91-.16-1.87-.12-2.78-.15-1.16-.04-2.32-.17-3.47-.4-1.95-.38-3.85-.95-5.65-1.79-2.59-1.2-4.95-2.84-7.02-4.79-.57-.54-1.43.32-.86.86 2.19 2.07 4.7 3.8 7.46 5.03 1.92.85 3.94 1.5 6.01 1.81 1.1.17 2.2.27 3.31.29.97.02 2.07.01 3-.32.24-.08.3-.49 0-.54z"/><path d="M155.348 73.502c.35-1.43-.23-3.03-.88-4.28a10.78 10.78 0 0 0-2.96-3.55c-3.23-2.48-7.26-2.07-10.91-.92-2.01.63-3.97.91-6.07.67-.72-.08-.71 1.04 0 1.12 1.71.19 3.47.12 5.14-.33 1.46-.39 2.87-.89 4.37-1.12 2-.3 4.09-.11 5.88.89 1.25.7 2.3 1.74 3.1 2.92.98 1.44 1.34 3.08 2.06 4.63.05.12.24.08.27-.04v.01zm10.871 34.27c-1.24-.34-2.52-.83-3.36-1.85-.67-.81-1.31-1.43-2.27-1.9s-2.03-.86-3.11-.83c-.46.01-.84.17-1.28.26-.6.12-.94-.16-1.35-.52-.72-.63-1.8-.62-2.7-.58-2.06.1-4.13.56-6.11 1.1-.69.19-1.3.23-2.02.23l-4.3-.24c-.54-.05-.54.8 0 .84l3.86.25c.73.02 1.44.03 2.15-.11l5.73-1.13c.85-.08 2.18-.2 2.77.28.73.59 1.36.96 2.35.69 1.12-.31 2.14-.12 3.21.32.6.25 1.22.56 1.71 1 .37.33.66.75 1.02 1.1.96.94 2.31 1.46 3.63 1.56.28.02.33-.41.07-.48v.01zm-2.29.918c-.9-.07-1.79.13-2.7.06-1.14-.08-2.25-.32-3.26-.88-1.42-.79-2.72-1.59-4.4-1.66s-3.23.29-4.86.25c-1.94-.06-3.84-.39-5.7-.95-.37-.11-.53.47-.16.58 1.86.56 3.78.93 5.72 1 1.67.06 3.33-.32 4.99-.25.89.04 1.8.3 2.6.69.75.37 1.41.88 2.18 1.2a8.01 8.01 0 0 0 3.09.59c.86-.01 1.77-.04 2.53-.47.07-.04.04-.15-.04-.15l.01-.01z"/><path d="M165.798 108.881l-2.64 1.84c-.66.37-1.36.66-2.08.86-1.89.52-3.86.31-5.78.1-3.53-.38-7.11-1.18-10.17-3.06-1.88-1.15-3.5-2.68-4.83-4.44-.29-.39-.96 0-.66.39 2.52 3.33 5.87 5.61 9.87 6.79 1.59.47 3.21.8 4.85.99 2.08.25 4.24.55 6.31.1s4.29-1.56 5.36-3.33c.09-.14-.09-.32-.23-.23v-.01zm-8.109-28.45c-.28.13-.32.67-.41.98-.15.52-.36 1.02-.63 1.49-.6 1.06-1.47 1.93-2.53 2.52-.58.33-.03 1.26.52.89 1.12-.76 2.05-1.77 2.64-2.99.26-.53.46-1.1.59-1.68.08-.34.26-.96-.01-1.19-.05-.05-.12-.05-.18-.02h.01zm-21.37 119.74c1.99-1.47 3.26-4.17 4.57-6.22l4.52-7.07 4.38-6.87 4.83-7.18c.83-1.29-1.23-2.48-2.05-1.2l-4.22 6.96-4.53 7.07-4.39 6.86-2.12 3.33c-.69 1.12-1.54 2.34-1.82 3.68-.09.43.4.95.83.64zm37.15-49.58c-.37-.46-2.41 1.22-2.73 1.44l-2.54 1.61c-1.76 1.02-3.6 1.93-5.49 2.69-3.04 1.23-6.21 2.11-9.43 2.65-.69.12-.4 1.17.29 1.05 3.34-.55 6.62-1.46 9.75-2.77a40.97 40.97 0 0 0 5.41-2.74c1.74-1.05 3.34-2.08 4.74-3.46.1-.1.15-.3.05-.43-.01-.02-.03-.04-.04-.05l-.01.01z"/><path d="M170.62 152.72l-.02.13.12-.15c-.24.04-.33.24-.4.44l-.32.9-.69 1.91-1.29 3.761c-.21.61.76.869.96.269l1.26-3.84.58-1.86c.12-.37.56-1.32.01-1.56l.08.14v-.13c0-.2-.28-.18-.3 0l.01-.01z"/><path d="M173.71 155.911c.02-.19-.09-.35-.19-.51l-.26-.43-.58-.85-.67-.85-.32-.36-.15-.16c-.02-.02-.04-.05-.06-.07-.1-.11.05.08-.03-.04-.19-.28-.58-.36-.83-.11a.53.53 0 0 0 .11.83c.08.05-.03-.03.02 0 .03.02.05.04.07.06l.16.15.32.32.68.78c.2.24.38.49.56.75l.26.39c.12.19.21.33.43.42.24.1.43-.14.46-.35l.02.03zm-21.572 4.76c-.32.35.16.83.36 1.11l.72 1 1.44 1.99c.18.25.49.35.76.14s.24-.53.05-.77l-1.55-1.95-.77-.96c-.13-.16-.24-.34-.39-.48-.15-.15-.45-.28-.62-.09v.01z"/></g><g style="mix-blend-mode:darken" class="B C"><path d="M102.998 142.962l4.09-3.11c-2.2 2.37-3.54 4.48-4.36 6.01-.97 1.8-2.36 3.38-3.19 5.25-.28.63-.79 1.87-1.63 1.94-.49.05-.92-.32-1.26-.61-.82-.7-1.13-1.59-1.25-2.07 2.07-2.37 4.59-4.9 7.61-7.4l-.01-.01z"/></g><g style="mix-blend-mode:darken" class="B C"><path d="M145.84 192.322l-6.42 5.06c3.15-1.48 6.47-3.2 9.91-5.2 2.45-1.42 4.74-2.86 6.88-4.28l-1.06-2.55-9.31 6.97z"/></g><g style="mix-blend-mode:darken" class="B C"><path d="M111.849 175.201l3.38 2.92c3.34 2.88 8.97 7.87 19.06 17.1a91.3 91.3 0 0 1-9.28-5.37c-5.24-3.44-3.95-3.35-12.43-9.63-3.33-2.46-5.92-5.82-9.21-8.33-.19-.15-.8-.6-1.09-1.39-.13-.34-.15-.63-.16-1.51l.02-2.21 9.72 8.42h-.01z"/></g><g style="mix-blend-mode:darken" class="B C"><path d="M240.301 264.189c-1.67.72-4.5 1.68-8.1 1.67-2.59 0-4.72-.5-6.21-.98-1.94 2.58-5.03 6.12-9.56 9.41-2.56 1.86-6.23 4.47-11.67 6.04-6.31 1.81-11.89 1.32-15.45.64 9.69-3.22 16.41-7.36 20.64-10.43 3.76-2.73 5.4-4.52 5.38-6.6-.02-3.27-4.14-6.49-10.37-8.38l-3.29-9.84a64.35 64.35 0 0 1 13.29 4.81c7.08 3.49 7.84 5.49 10.37 5.29 8.29-.67 13.17-23.28 15.7-35.01 3.3-15.31 4.23-28.42 4.97-28.36.36.03.39 3.28.39 5.73.02 13.06-.02 19.6-.96 29.51-.88 9.19-2.39 21.58-5.11 36.49l-.02.01z"/></g><g style="mix-blend-mode:darken" class="B C"><path d="M142.67 119.9c-2.66-.95-6.42-2.67-10.17-5.84-6.2-5.23-8.87-11.45-9.96-14.57l-1.44 7.05c1.77 2.91 4.62 6.88 9 10.73 4.49 3.95 8.9 6.3 12.06 7.69l.52-5.07-.01.01z"/></g></g><defs><clipPath id="A"><path fill="#fff" d="M0 0h248v274H0z"/></clipPath><path id="B" d="M143.849 246.732s.06-.04.09-.07c.02-.02.1-.12.05-.06-.05.07.04-.06.05-.08.01-.03.01-.03.02-.05.01-.04.03-.11.02-.15 0-.04-.02.16 0 .01v-.15c0-.04-.04-.1-.06-.14-.02-.03-.13-.17-.06-.08l.02.03s-.06-.09-.11-.12c-.05-.04-.06-.04-.01-.01.06.04.04.03-.06-.04-.26-.18-.61-.1-.85.08-.44.31-.57.89-.47 1.4a1.35 1.35 0 0 0 .32.63c.08.09.18.17.29.22s.23.1.36.1c.1 0 .19-.02.29-.04.67-.18 1.1-.91.94-1.59s-1.01-1.17-1.7-.94c-.24.08-.41.28-.41.54l-.03.93c0 .13.05.25.12.35.07.09.18.19.3.21.35.05.72.09 1.06-.02.44-.15.81-.53.8-1.03s-.36-.91-.82-1.07c-.2-.07-.45-.06-.65 0-.26.09-.45.25-.6.48-.13.18-.18.39-.2.61s.03.43.12.63c.16.36.55.64.94.7.23.04.45.05.68-.02.25-.07.44-.24.5-.49.02-.11.04-.22.03-.33-.03-.45-.27-.81-.63-1.06-.38-.27-.9-.3-1.31-.09s-.4.71-.34 1.09c.04.28.18.51.35.73.09.12.3.18.44.18.15 0 .34-.07.44-.18s.19-.28.18-.44l-.02-.17c-.03-.11-.08-.2-.16-.28l-.02-.02.1.13c-.05-.07-.09-.14-.12-.21l.06.15c-.03-.08-.05-.16-.06-.24l.02.17v-.25l-.02.17.02-.1-.29.37s.04-.02.07-.04l-.15.06.14-.04-.17.02h.16l-.17-.02c.07 0 .13.03.2.05l-.15-.06.18.1-.13-.1a1.21 1.21 0 0 1 .16.16l-.1-.12c.04.05.07.1.09.16l-.06-.15a.42.42 0 0 1 .04.16l-.02-.16v.15l.02-.16s-.01.06-.02.09l.43-.43c-.06.02-.12.04-.18.05l.16-.02h-.23l.16.02c-.07-.01-.14-.03-.2-.06l.15.06-.18-.1.12.1-.12-.11.09.12s-.06-.09-.08-.14l.06.14-.04-.15.02.16v-.17l-.02.16c0-.06.03-.13.05-.19l-.06.14c.02-.05.05-.1.09-.15l-.09.12s.07-.08.11-.11l-.12.09s.07-.05.11-.07l-.14.06.13-.04-.16.02h.1l-.16-.02a.79.79 0 0 0 .13.04l-.14-.06a.64.64 0 0 1 .14.08l-.12-.09a.88.88 0 0 0 .1.1l-.09-.12s.06.09.08.14l-.06-.14a.63.63 0 0 0 .03.13l-.02-.16v.1l.02-.16-.03.11.06-.14-.06.1.09-.12-.09.09.12-.09s-.09.06-.14.08l.14-.06c-.08.03-.16.05-.25.06l.15-.02a2.44 2.44 0 0 1-.54-.01l.58.58v-.93l-.41.54a.75.75 0 0 1 .16-.04l-.15.02h.18l-.15-.02a.9.9 0 0 1 .22.06l-.13-.06c.07.03.13.07.2.11l-.11-.09c.05.04.1.09.15.14l-.09-.11c.04.05.08.11.1.17l-.06-.13a.75.75 0 0 1 .04.16l-.02-.15v.19l.02-.15c-.01.07-.03.14-.06.2l.05-.13c-.03.07-.07.13-.11.18l.08-.11c-.05.06-.11.12-.17.17l.11-.08c-.05.04-.11.07-.16.1l.13-.05c-.06.02-.12.04-.18.05l.14-.02h-.04l.14.02s-.03-.01-.05-.02l.12.05s-.1-.05-.14-.08l.1.08a.8.8 0 0 1-.13-.13l.08.1a.81.81 0 0 1-.1-.18l.05.12c-.03-.07-.05-.14-.06-.22l.02.13a1.31 1.31 0 0 1 0-.28l-.02.13c.01-.08.03-.16.06-.24l-.05.12.1-.18-.08.1c.04-.05.08-.11.13-.16l-.08.1s.03-.04.05-.06l.03-.03c.05-.05-.04.03-.05.04.02-.01.05-.03.07-.04.07-.03.02 0 0 0-.04.01-.05.02-.03.01h.03s-.12.01-.06.01c.03 0 .02 0-.02 0s-.07-.01-.1-.03l.1.04-.06-.03c-.03-.02-.03-.03-.01 0l.08.06c.1.04.12.05.06.03-.02 0-.04-.02-.05-.03-.03-.02-.03-.02-.01 0l-.03-.04c.03.05.07.09.12.12l-.11-.11c.03.16.23.2.35.14l.01.03z"/></defs></svg>