<?xml version="1.0" encoding="UTF-8"?>
<svg id="Ebene_1" data-name="Ebene 1" xmlns="http://www.w3.org/2000/svg" viewBox="0 0 292.86 869.81">
  <defs>
    <style>
      .cls-1 {
        fill: #f15a24;
      }

      .cls-2 {
        fill: #e6e6e6;
      }

      .cls-3 {
        fill: red;
      }

      .cls-4 {
        fill: #743f22;
      }

      .cls-5 {
        fill: #09f;
      }

      .cls-6 {
        fill: #42210b;
      }

      .cls-7, .cls-8, .cls-9 {
        fill: #1b1464;
      }

      .cls-10 {
        fill: #603813;
      }

      .cls-11 {
        fill: #754c24;
      }

      .cls-8 {
        opacity: .5;
      }

      .cls-8, .cls-9 {
        isolation: isolate;
      }

      .cls-9, .cls-12 {
        opacity: .49;
      }
    </style>
  </defs>
  <path class="cls-1" d="m235.31,250.79c-8.94-34.4-8.78-34.66-21.6-81.86-4.28-15.84-6.58-23.88-14.22-29.3-13.44-7.91-20.32-7.25-30.29-5.9-1.18-2.86-7.8-8.89-12.5-9.63l-.07,3.45c7.98,3.33,7.73,12.69,6.17,20.87-5.89,39.34-1.96,22.86-12.11,53.68l-23.96-29.69-17.58-29.56c-.85-1.66-2.12-4.66-2.24-8.6-.17-5.7,2.18-9.86,3.22-11.48l1.38-6.57c-2.97,1.12-6.49,2.94-8.93,4.56-1.84,1-6.46,7.76-7.97,10.61-28.86,5.83-33.61-3.95-53.68,17.25-3.07,4.28-4.18,8.26-5.98,25.39-3.26,32.69-3.29,46.53-4.3,70.62,13.07,4.29,44.56,3,58.66-3.37.33,4.99-.23,11.25-1.55,16.35,6.45,1.77,19.57,11.84,23.37,19.28.52,2.1,3.04,4.07,5.53,4.1,9.58.68,13.48,6.54,18.65,14.65,13.65,3.19,20.88,11.58,27.74,21.38,6.83-.99,13.77-1.22,20.66-.71.72-3.04,6.34-8.67,9.9-4.1,1.47,4.69-5.62,9.89,7.07,3.88,7.07-11.08,4.43-33.12,1.5-50.15,11.05-2.85,28.32-5.91,33.1-15.17l.03.02Zm-137.39,56.98c-4.14-1.48-15.5-3.78-20.8-4.71-.44,8.19-3.37,9.16-6.03,18.26-1.96,8.9,8.05,10.87,15.83,3.05,6.62,8.83,13.12-4.22,22.41-4.1,3.7-.33,5.47.71,5.79.17.71-1.21-6.67-9.05-17.2-12.68h0Z"/>
  <path class="cls-11" d="m155.21,34.87c-36.11-.67-42.81,29.18-44.07,57.29-.67,9.41-.24,17.32.3,22.93-.95,6.95-4.13,16.17-4,19,6.26,26.93,30.47,52.24,43,67.99,8.59-23.18,12.35-48.26,12-66,.27.05-2.16-8.57-6-9l.48-4.84c15.71-7.23,17.05-16.63,26.81-37.45,3.12-15.7-6.53-44.67-28.54-49.95l.02.03Zm134.07,372.42c-3.06-6.36-7.01-16.97-10.81-22.79-.17-7.83-3.14-18.15-6.47-24.22-9.95-29.32-9.33-58.16-25.18-88-1.22-4.63-9.43-15.13-15.98-17.23-8.13,5.18-19.04,9.75-28.88,11.86,2.5,8.96,4.38,22.35,4.2,32.85,6.33,13.95,15.72,29.75,25.44,42.44,0,0,9.56,20.21,9.56,20.21.72,5,1.97,10.85,4.11,17.21,6.03,14.61,9.22,20.36,4.3,36.37-.71,7.8,3.05,7.31,4.69,19.99.76,5.9.35,9.13,2,16.97.64,4.04,2.6,12.6,7.65,6.51,3.65-6.86.99-10.69,2.59-19.59.44.98,1.5,1.62,2.57,1.53.23.16.45.39.73.47,6.87,17.02-11.78,26.16-6.98,33.97,5.01,2.56,7.68-5.06,10.67-10.25.12-.05.22-.14.28-.25.02.01.05.02.07.03,1.49,6.13,8.79-3.79,8.89-9.81-.06-1.11-.1-5.2,1.5-8.48.78-.2.93-1.06,1.17-1.74,4.87-3.16,6.63-9.29,5-14.34,3.02-7.37,1.23-19.29-1.11-23.72h0Zm-91.29-86.93c-.55-1.74-4.48-2.29-5.43-1.18,2.92-5.51-.25-10.76-4.82-8.41-4.76,5.05-4.56,7.39-8.45,11.87-5.86,4.78-6.04,4.82-17.17-7.09-8.3-10.28-11.32-14.99-21.18-17.8-13.02-6.81-10.5-16.49-27.55-17.5-2.85-6.76-16.48-19.85-25.61-22.59l1.2-15.64c-13.38,4.84-27.8,6.77-41.98,5.6-4.12,14.38,4.79,35.17,10.82,43.36,10.49,12.17,26.48,13.63,40.09,16.82,20.91,13.54,30.38,27.72,56.23,32.43,8.32,3.08,22.42.17,32.85-2.98,4.9-2.21,12.39-11.97,11-16.89Z"/>
  <path class="cls-5" d="m230.7,405.1c-10.01-46.2-13.41-53.65-30-89-1.23.56-3.93,1.77-5.15,2.3.9.42,2.17,1.22,2.67,2.59,1.5,1.88-6.69,14.5-8.54,15.04-26.57,11.97-52.08,1.55-74.59-15.58-11.32-3.08-15.52,7.22-22.75,7.55-3.22-.35-3.91-3.47-5.65-3.89-1.82.45-3.45,3.46-6.47,4.73-2.86,1.26-5.02-1.14-6.53.27-1.24,7.15-5.29,9.91-8,18-39.84,59.45-45.28,132.66-29.65,204.2-17.21,47.86-24.7,99.33-5.2,150.81l-4.63.3v-.1c-.66-.16-1.67-.14-1.79.62-.33,3.99-1.32,11.84-.71,14.03,1.34,1.92,5.49,1.14,6.8.9,10.88-1.93,5.79,2.07,29.28-1.98,8-1.38,18.22-3.5,30.01-6.89-.42-4.05-.41-8.5-.02-12.47-.66-1.27-3.01-.34-4.24-.35,14.92-45.59,20.14-90.53,17.16-138.08,16.47-41.42,28.92-84.6,43.91-126.59.97,47.93,4.77,84.36,11.09,129.59-20.43,42.32-22.48,75.78-24.1,116.5-.02-.82-3.08-2.19-3.9-1.5,1.2,3.08.45,9.11.92,11.46,14.67,8.72,36.23,6.5,58.08,3.54l2.3-10.01c0-.21-.05-.38-.15-.52-.61-.88-3.36,1.02-3.91.54-1.1-.96,6.37-11.19,7.78-13.15,15.02-23.07,26.11-60.34,27.88-91.45,7.68-39.44,18.34-88.47,8.09-171.41h0Zm-46.83-89.89c-6.8,1.38-14.18,1.93-21.05,1.02.9,2.68,8.03,8.88,12.81,9.02,3.21-1.38,7.35-6.06,8.23-10.05h.01Z"/>
  <path class="cls-11" d="m74.88,749.31c.48-11.49.49-24.43.03-35.82-8.15,1.22-24.64,3.28-32.85,4.12-.66,15.27-4.24,28.81-11.65,41.7l3.18,1.34c3.92-12.96,19.19-5.47,18.73,3.29,8.45-1.72,16.95-2.88,21.92-9.8.2-.83.62-4.81.62-4.83h.02Zm96.82-56.21c-10.11.54-23.15-.13-34-2,.68,3.05-1.68,5.84-2,10,4.05,9.68,22.21,11.4,25.57,12.46.59-5.08,4.21-6.99,9.43-6.45,1.53-.14-.32-9.75,1-14.01Z"/>
  <path class="cls-3" d="m175.01,740.62c.05-.25.21-19.39-.47-29.56-4.16-6.81-13.34-2.92-13.64,2.43-11.8-1.65-20.45-3.48-26.55-13.54-12.86,24.36-3.94,28.46-16.65,60.15,11.6,3.28,26.48,13.24,33.44,19.84,11.86,10.8,15.39,15.7,28.77,19.78-.11-7.18,10.06-25.02,24.44-25.93-23.8-15.37-29.26-26.03-29.36-33.17h.02Zm-31.88,3.96c-7.74,9.57-19.8-3.06-13.7-12.56,9.23-11.78,21.93,1.81,13.7,12.56Zm-64.88,45.92c-17.77,6.13-19.05-24.5-.76-20.44l-1.71-16.61c-2.13,4.8-17.2,12.58-23.66,10.99-.77-11.48-15.35-13.95-18.91-3.16-5.31-5.64-7.75-2.55-6.8,3.73,1.14,15.18-4.28,31.27-5.25,34.13-7.71,21.04-11.73,19.5-17.51,35.93,15.56-4.81,38.51,9.21,42.38,15.93,13.48-18.79,16.93-36.06,32.35-49.6l-.13-10.9h0Z"/>
  <path class="cls-2" d="m78.37,801.05c-7.11,7.74-9.36,9.33-18.06,24.45-4.93,9.06-7,15.47-13.78,25.77-8.01-10.77-29.75-19.46-42.89-16.2-6.85,11.94,3.19,23.57,13.22,28.72,8.34,6.63,22.43,5.47,28.03-.78,10.86-12.69,15.74-34.95,33.7-51.28l-.22-10.68Zm-1.24-30.96c-16.82-3.72-15.9,25.07.95,20.47l-.94-20.47h-.01Zm62.97-42.22c-9.67-3.49-17.44,12.35-7.8,17.78,12.61,6.73,18.56-12.91,7.81-17.79h0Zm71.02,56.01c-1.73-5.7-5.83-8.84-7.33-9.89-10.34,1.13-23.85,14.95-23.64,27.2-16.75-8.15-21.6-14.79-33.44-25.16-8.21-6.99-19.32-11.77-28.89-16.64-5.29,7.72.62,12.4,9.59,15.42,8.48,3.74,15.76,8.31,20.2,11.68,8.94,7.53,15.98,17.78,28.25,22.08,3.62,1.27,13.89,4.87,23.72-.45,4.13-1.4,15.78-13.29,11.54-24.24h0Zm-53.44,5.13c-.25.1-.44.33-.46.59-.05.05-.09.1-.12.16-.12-.11-.28-.16-.44-.16.2-.23.28-.56.1-.82.12-.11.2-.26.22-.41.24.21.5.4.75.61l-.04.04h-.01Z"/>
  <path class="cls-10" d="m202.58,99.27c-.85-2.28-2.39-30.61-2.29-39.93-1.51-30.82-.56-30.8-10.92-44.95-78.88-55.85-109.06,65.33-103.06,117.38,14.83,2.68,3.13-7.24,25.2-15.58-1.39-32.81,3.61-76.53,44.32-76.25,23.19,2.35,23.31,25.44,27.47,46.48-5.73,11.08-13.1,32.65-26.38,35.84l-.22,2.84c5.27-.38,10.98,5.13,13.41,8.64,17.41-2.12,25.37,1.5,33.63,9.79.67-22.27-.18-35.84-1.17-44.28v.02Z"/>
  <path class="cls-2" d="m124.9,73.93c5.16.38,10.05-2.31,13.71-1.39,4.28.88,6.78,6.92,6.56,8.72-7.23,3.34-19.31-4.68-20.28-7.33h0Z"/>
  <path class="cls-6" d="m133.29,75.63c-1.17,3.39,3.21,7.24,6.37,4.86,6.6-4.04-3.4-12.89-6.37-4.86h0Z"/>
  <path d="m137.47,74.72c2.76-.04,2.76,4.3,0,4.26-2.76.04-2.76-4.3,0-4.26Z"/>
  <g>
    <path class="cls-2" d="m140.02,74.81c.35,0,.35.55,0,.54-.35,0-.35-.55,0-.54Z"/>
    <path class="cls-2" d="m173.91,86.67c-1.94-1.17-5.34-5.55-6.82-6.53-4.8-3.44-10.99.87-11.89,2.91,4.78,5.43,15.95,4.88,18.71,3.62Z"/>
  </g>
  <path class="cls-6" d="m168.11,85.09c-1.44,3.56-6.95,2.11-8.06-.05-2.4-8.1,11.04-7.87,8.07.06h-.01Z"/>
  <path d="m164.14,81.17c2.76-.04,2.76,4.3,0,4.26-2.76.04-2.76-4.3,0-4.26Z"/>
  <path class="cls-2" d="m166.93,81.8c.35,0,.35.55,0,.54-.35,0-.35-.55,0-.54Z"/>
  <path class="cls-4" d="m137.25,116.18c6.47,2.54,14.91,4.41,18.66-2.03-3.18-.07-4.22-4.42-7.85-4.24-1.33,0-1.96.68-2.96.2-3.02-3.56-9.45,1.92-15.11,0,1.16,1.56,3.46,4.21,7.25,6.09h.01Z"/>
  <path class="cls-9" d="m189.65,686.98c.24-2.45.7-4.6,1.21-6.4l-5.53.13c.01,3.32-1.55,8.58-3.8,11.66l7.96-1.07c-.03-1.31.01-2.76.16-4.32ZM88.97,241.99c-12.66,4.4-30.66,6.45-41.88,5.74l.02,3.72c4.32,4.47,30.03,3.15,41.67-.99l.19-8.47Zm147.77,17.2l-5.08-3.65c-40.27,27.5-17.3-35.79-26.77-60.03,1.7,31.28-6.89,38.71-3.98,68.04,3.32,12.67,3.59,21.46,4.76,34.05,0,0,14.18,27.75,14.18,27.75,8.34,15.22-.09-3.18-4.23-16.23-2.45-7.75-5.39-19.36-6.49-34.52,7.31,1.36,24.33-7.4,27.63-15.4h-.02Zm-31.16,6.78c.04-.18.34-.49.23-.83.94.42,1.3-1.25,2.02-.18-.76.32-1.51.65-2.25,1h0Zm-52.68,148.63c.07-.79-1.18-.8-1.24,0l-.24,3.56s-.8,3.35-.83,3.41c-.24-.21-.61-.25-.82-.01-1.49.31-.42,4.33-1.19,5.7-.21.13-.23.85-.29,1.05-.28.07-.51,2.66-.59,2.89-2,1.24-.6,6.82-.8,9.23.26,2.77-.32,6.01.66,8.57.09.34.07,1.66.34,1.9.1,8.35.24,19.53.82,27.75.81,11.3,1.27,26.15,2.9,37.24-.1.2.22.32.26.1-.26-32.27-2.28-65.49.76-97.88,0-.04.29-3.48.26-3.51Zm-49.62,178.72c.3-11.24.06-21.88-.55-31.84l-5.39,9.28c2.25,41.41-4.74,86.34-15.68,126.38l3.19-.36c11.05-33.43,17.7-68.3,18.43-103.47h0Z"/>
  <g class="cls-12">
    <path class="cls-7" d="m87.67,709.51l-.09.03c.29.08.28-.15.09-.03Z"/>
    <path class="cls-7" d="m89.81,701.13l-.1-5.29-5.37.47c.88,4.67-.32,11.44-1.78,14.66l6.01-1.54c1.04-2.07,1.58-6.32,1.22-8.3h.02Z"/>
  </g>
  <g>
    <path class="cls-9" d="m78.08,788.92c-.02-.14-.07-.25-.14-.35-.14-.46.28-5.79-.39-5.9l-.48-14.77c0-.25-.11-.44-.27-.56-.33-1.55-.21-13.31-2.04-12.56-.31-.59.53-7.11-.93-6.76l-.2-3.58c.78-.06.17-5.54.32-5.98,1.25.13.14-6.43.37-6.97.49.24.06-8.96.15-9.12-.1-.73.6-2.92-.56-3.06v-.19c.69-.06.7-.72.46-1.27.42-.75,1.24-2.61-.16-2.74-.03-.44-.48-.66-.89-.61.62-1.79-.72-.59-.94.35-.15-.94-3.03-.04-3.56-.14-3.47-.35-6.79,1.04-9.94,2.32-.26-.1-.56-.02-.72.26-.03,0-.05.02-.08.03-.46-1.28-1.68-.13-2.14.58-.16-.59-.95-.72-1.32-.25-.53-.75-1.38.1-1.79.61-.12-.37-.55-.55-.92-.46-.22-.17-.52-.15-.76-.03.06-1.31-1.48-.78-2.03-.19-.5-1.62-1.74-.07-2.13.79l-.17.06c-.16-.2-.44-.3-.7-.25-.26-.59-1-.4-1.37-.03-.54-.09-.79.54-1,.94-.03-.01-.06-.03-.09-.03.59-1.14.29-2.25-.36-.47-.18-.12-.42-.15-.59-.01-2.02-.5-.7,3.44-.19,4.43,3.47,4.32,22.04-.3,27.56-1.42,2.14,12.7-.51,25.84,1.35,38.67,0,0,1.59,22.42,1.59,22.42-.07,3.82-1.03,8.22.07,11.81-.34,9.46-1.85,18.98-5.54,27.74.65,2.78,2.25-1.65,2.48-2.64.32.49,1.14.35,1.25-.33,1.37.43,2.15-2.19,3.13-2.89,1.64.55,2.77-2.65,3.59-3.82,2.33-6.93.55-16.1.04-23.67l.04.04Zm92.74-90.22c6.53-12.78-17.89-.69-32.6-7.51l-1.19,4.76c7.6,3.39,25.45,4.92,33.79,2.75Z"/>
    <path class="cls-8" d="m188.21,336.18c-15.79,7.97-34.84,5.2-49.63-.63-17.07-7.12-20.41-18.71-38.72-26.79-13.71-5.63-21.15-6.41-5.92,1.81,27.58,17.31,34.85,40.73,71.76,46.53,17.98,1.19,43.36-3.81,22.52-20.92h-.01Zm-31.29-213.92c-14.06,9.6-38.83,1.83-43.79-18.87l-1.68,8.21c5.68,14.58,28.22,25.42,45.16,13.72l.3-3.05h.01Zm26.29-37.71l-1.49-2.47c-6.01,13.68-9.1,25.08-19.47,37.28,10.46-6.55,16.39-20.04,20.96-34.81h0Z"/>
    <path class="cls-9" d="m220.89,596.86c1.41-8.48,2.11-16.05,2.46-22.39l-9.35,19.84c-.67,4.56-1.82,11.18-3.81,19.03-7.38,27.27-16.91,45.32-29.11,68.31l5.86-.53c16.7-20.85,33.75-72.34,33.94-84.26h.01Z"/>
  </g>
  <g>
    <path class="cls-6" d="m177.08,99.22c1.84,10.44,2.57,23.87,2.04,33.68h3c.15-12.72-.76-26.33-2.54-38.7,0,.01-2.51,5.01-2.5,5.02Zm-3.9,8.22c1.11,7.8,1.88,18.32,1.37,25.53l2.97-.39c.15-9.86-.5-20.47-1.79-30.06-.01.01-2.53,4.91-2.55,4.92Zm-3.82,5.94c.84,6.05,1.43,14.5.91,20.07l2.87-.23c.49-7.34.02-15.67-1.23-22.67l-2.56,2.83h0Zm-3.91,3.96c.55,3.53.66,8.68.26,12.26l3.11,2.2c.36-5.06.1-11.31-.73-16.59l-2.64,2.12h0Zm-4.01,2.58c.49,2.17.6,5.51.3,7.55l3.02.78c.24-3.25.06-7.02-.5-10.09,0,0-2.82,1.76-2.82,1.76Zm-3.43,1.83l.21,3.3,2.47.75-.12-5.11s-2.56,1.06-2.56,1.06Zm6-103.76c-70.94-7.3-72.26,61.79-75.56,113.31-.03,1.89,2.97,1.96,3,0,4.06-30.76-.32-65.72,20.2-91.54,12.12-14.96,32.66-22.42,51.56-18.88,1.89.35,2.7-2.54.8-2.89h0Zm1.36-3.92c-20.33-3.85-41.48,2.65-55.67,18.16-25.19,25.07-23.3,66.73-24.89,99.57-.06,1.93,2.94,1.93,3,0l1.47-33.22c-.58-42.42,27.03-90.75,75.31-81.62,1.89.31,2.7-2.58.8-2.89h-.02Z"/>
    <path class="cls-6" d="m166.43,9.86c-30.18-5.92-62.16,11.95-70.54,42.3-.57,1.85,2.32,2.64,2.89.8,7.72-28.67,38.18-45.68,66.85-40.21,1.89.31,2.7-2.58.8-2.89h0Z"/>
    <path class="cls-6" d="m167.73,6.55c-35.12-7.97-65.41,14.11-73.33,48.34-.47,1.87,2.43,2.67,2.89.8,7.64-32.86,35.9-53.62,69.64-46.25,1.88.4,2.69-2.49.8-2.89h0Z"/>
    <path class="cls-6" d="m168.78,2.98c-24.27-7.16-51.93,4.75-63.38,27.32-.9,1.71,1.69,3.23,2.59,1.51C118.75,10.36,145.01-.86,167.99,5.88c1.86.52,2.66-2.38.8-2.89h-.01Zm-.26,19.08c31.43,15.42,32.07,54.24,32.78,84.71.28,11.8.31,23.6.11,35.4-.03,1.93,2.97,1.93,3,0-1.68-41.24,8.78-99.38-34.38-122.71-1.74-.82-3.26,1.76-1.51,2.59h0Z"/>
    <path class="cls-6" d="m170.18,18.79c18.88,7.33,27.43,28.7,28.93,47.62.13,1.92,3.14,1.93,3,0-1.58-20.22-10.93-42.87-31.14-50.52-1.79-.72-2.57,2.18-.8,2.89h.01Z"/>
    <path class="cls-6" d="m171.46,15.2c17.37,5.1,23.59,23.9,26.95,39.87.42,1.88,3.31,1.09,2.89-.8-3.46-17-10.65-36.7-29.05-41.96-1.85-.56-2.64,2.33-.8,2.89h0Z"/>
    <path class="cls-6" d="m172.43,11.29c19.36,5.01,26.89,26.97,26.76,45.09,6.54,7.74.7-20.83-.88-22.98-5.33-20.19-32.09-30.3-25.89-22.12h0Z"/>
    <path class="cls-6" d="m173.13,7.89c19.84,3.75,26.07,24.67,25.82,42.43.39,7.36.4,14.74.09,22.11-.08,1.93,2.92,1.93,3,0,.65-24.48,2.35-60.99-28.12-67.42-1.88-.4-2.69,2.49-.8,2.89h0Z"/>
  </g>
  <path d="m145.08,194.83c-8.95-13.23-20.04-25.52-27.44-39.73-5.55-9.53-12.96-20.11-7.17-31.36.43-1.33-1.64-1.88-2.08-.57-5.21,11.24-.2,20.32,5.77,29.87,5.11,9.65,11.15,18.73,18.2,27.08,3.51,4.53,8.62,10.73,12.26,15.07.21.26.67-.09.47-.36h0Zm-36.56-49.26c-1.06,1.97-2.86,6.05-3.61,8.16.2.29-5.54,12.01-1.83,8.92.48-1.96,7.43-17.21,5.44-17.08h0Z"/>
  <path d="m148.3,200.38c-15.32-12.24-32.22-23.5-45.35-38.21-10.82-1.39,43.37,40.51,45.35,38.21h0Zm-41.86-58.47c-1.7.29-11.76,17.27-6.93,14.3,1.04-3.62,2.97-7.29,5.02-10.46.16-.79,3.41-4.05,1.92-3.84h-.01Zm2.31-24.83c-15.98,4.91-21.86,25.76-12.37,39.05.68,1.01,2.34.05,1.65-.96-10.03-14.56-1.59-30.54,10.71-38.08h.01Zm41.12,87.02c6.71-9.78,23.05-72.14,8.45-76.42-1.09-.28-1.51,1.32-.46,1.67,2.32.79,3.28,3.3,3.65,5.52,2.09,23.03-4.99,49.07-11.66,69.22h.02Zm14.96-58.06c2.75.71,5.11,2.57,6.61,4.97,5.91,1.89-3.48-7.37-6.08-6.9-1.24-.35-1.78,1.6-.53,1.93Z"/>
  <path d="m159.51,126.92c9.77,3.98,14.33,14.64,13.4,24.67,4.38,5.03.88-14.28-.86-15.66.22-2.69-14.9-15.57-12.55-9.01h0Zm4.35,23.76c3.37,5.31,7.77,9.96,9.46,16.22.34.99,1.89.58,1.58-.44.63-2.18-10.74-20.92-11.05-15.78h0Z"/>
  <path d="m152.97,201.9c1.66-1.93,27.45-39.37,19.72-35.54-3.11,6.02-6.39,11.96-9.83,17.79-3.13,5.16-7.17,12.44-10.4,17.44-.21.32.3.61.51.3h0Zm-12.71-45.08c2.62-.21-1.04-3.15-1.73,1.42-.35,3.5,3.87,3.39,3.87.04,0-6.32-6.08-1.35-3.46,2.34,3.73,3.15,5.68-5.64,1.36-5.33-3.89,1.13-2.18,9.02,1.77,5.64,2.52-2.92-1.63-8.4-3.74-3.68-.81,2.11.94,5.67,3.36,3.76,2.18-2.2-2.31-4.14-1.84-.98l-.04-.32v.1l.04-.32c-.02.12-.1.2.05-.09-.08.17.17-.19.07-.1-.08.08.27-.16.09-.08l.19-.08s-.07.02-.11.02l.32-.04h-.17l.32.04c-.05,0-.21-.07-.02,0,.24.11,0,0,0-.02,0,.02.24.22.08.06-.09-.09-.07-.15.05.08-.02-.03-.04-.07-.07-.1-.11-.17.06.21.03.07l-.09-.41.04.32c-.05-.44-.05-.9,0-1.33l-.04.32c.02-.14.05-.28.09-.42.06-.2-.1.18-.02.06.03-.04.15-.23.02-.05-.21.26.23-.2,0,.02-.28.18.41-.21-.11.05.05,0,.11-.03.16-.04l-.32.04c.07,0,.14,0,.22,0l-.32-.04.11.02-.15-.07c.21.14-.12-.13-.05-.04.17.21-.12-.22,0-.02.11.2.18.29.27.82l-.04-.31c.03.29.03.57,0,.86l.04-.31c.03.13-.32,1.04-.11.55-.03.07-.11.21-.15.27-.06.12.18-.19.04-.05-.17.16.18-.11.06-.04s-.12,0,.11-.03c-.14.07-.31-.02.06,0h-.1c-.17,0,.16,0,.16.02l-.12-.03c-.22-.05.17.1.08.04-.06-.04-.17-.07-.21-.13.24.22.08.03-.04-.09.27.26.05.09.01-.03-.12-.2.05.18.03.07-.08-.2,0-.19-.03-.03,0-.1,0-.36,0-.45.02.01.01.06,0,.1-.07.17.09-.41.1-.43.05-.06.11-.43.05-.13-.02-.13.79-1.37.45-.92.17-.18.1-.13-.02-.02.15-.1.09-.04-.06.02.12-.03.07-.02-.14,0,.12,0,.04.05-.16-.03.14.02.14.04-.1-.05,0,0,.08.04.08.05-.02.02-.22-.21-.12-.08.17.2-.12-.21,0,0,.03.05.12.15.12.21,0,0-.1-.28-.05-.11.16.52.14.64.13,1.36-.02-.27.03-.03-.03.09-.06.22.01-.04.02-.03-.03.06-.08.18-.12.22.24-.28,0-.05-.06.03.09-.14.18-.12.09-.07-.04.02-.3.15-.11.07.31-.08-.43.04.1,0-.06,0-.27,0-.06,0,.2.04,0-.01-.06-.03l.16.06c-.07-.04-.06-.03.02.02.12.12.03.02,0,0-.1-.08.13.23.04.06,0-.02-.04-.09-.06-.1.11.32,0-.09-.03-.2.1.34-.01.05.02-.06-.01-.1.03-.78,0-.42,0-.15.31-1.17.2-.81.05-.17.23-.42.31-.57l-.08.11c.11-.11-.03.02-.07.04.15-.08-.06.02-.1.03.27-.01-.45,0-.28,0-.27-.08-.19-.09-.12-.05.13.08-.09-.07-.09-.07,0,.02.07.07.09.09.08.07-.13-.2-.05-.06.09.09.11.35.05.06.01.1.08.22.09.33-.08-.5.04.75-.05.88.07-.27-.07.27-.1.35-.03.09.11-.22,0-.02,0,.03-.22.35-.09.17.1-.14,0,0-.03.03-.03.03-.16.12-.02.03.15-.09,0,0-.03,0-.14.09.22-.07.05-.03,0,0,.27-.02.12-.02l.16.02c-.09-.03-.07,0,.08.04-.05-.02-.14-.1.03.03q-.06-.06,0,0c.13.2-.28-.52-.07-.12-.05-.06-.17-.76-.12-.4.01-.24-.05-.48-.01-.72-.06.36.08-.4.13-.44.03-.09-.07.13,0,0,.01-.06.35-.56.2-.36.1-.12.49-.68.06-.23h-.31.03l-.25-.13.02.03-.14-.24c0-.12.03-.23.06-.35v.02c.09-.08.19-.16.3-.24-.42.06-.56.74-.15.94v.05Z"/>
  <path d="m140.73,155.3c2.59.14,22.89-25.98,15.53-22.9-3.7,7.03-8.36,13.55-13.77,19.37-.35.63-3.01,3.55-1.75,3.54h0Z"/>
  <path d="m140.73,155.23c-8.72-9.26-20.86-16.01-29.2-25.62-7.07-.73,11.47,12.87,12.94,14.1,2,1.1,15.87,14.1,16.26,11.52h0Zm-29.45-28.3c8.1,13.66,30.32,15.19,41.92,5.03.59-.66-.21-1.9-1-1.3-17.31,10.15-26.82,5.86-40.91-3.73h-.01Z"/>
  <path d="m156.2,127.86c-1.7.94-3.81,3.02-5.43,4.15-1.09.71.12,2.29,1.09,1.41,1.05-1.04,5.6-4.33,4.34-5.57h0Zm-7.21,77.58c-.16,25.26,2.61,50.6,4.57,75.72.99,2.27-2.58,28.09,1.53,21.61,2.02-21.65-1.99-44.74-4.22-66.25-.39-10.32-.71-20.76-1.29-31.08-.01-.38-.6-.38-.59,0h0Zm-58.3-73.94c-61.36-2.09-56.12,27.43-59.36,76.66.91-1.63-4.11,45,.28,36.97,2.07-30.41.41-61.84,7.98-91.5,5.25-13.91,20.68-18.76,34.32-19.51,2.13-.58,19.39-.07,16.77-2.61h.01Z"/>
  <path d="m76.07,200.25c-5.14-20.29-16.68-39.11-31.03-54.24-.81-.82-2.03.42-1.26,1.26,14.98,14.71,24.25,36.03,32.28,52.98h.01Zm13.64-19.1c-.27,3.71-1.05,11.14-1.55,14.83-3.46,14.79-.16,29.68.11,44.62,0,5.79-.47,11.59-1.6,17.27-.26,1.29,1.74,1.83,1.97.54,3.07-15.09.55-30.32-.36-45.47-.93-10.02,4.69-23.56,1.43-31.81h0v.02Z"/>
  <path d="m69.35,155.35c2.8,2.97,3.93,7.2,5.21,10.96,2.16,6.54,6.36,19.73,8.38,26.31,1.02,1.46,3.51,18.59,5.52,12.93-2.44-5.84-14.58-52.92-19.12-50.2h.01Zm-37.33,89.87c18.13,5.48,38.67,3.76,56.46-2.34,1.11-.42.68-2.2-.5-1.82-9.05,2.89-18.08,5.08-27.6,5.62-9.47.74-18.85-.97-28.2-2.05-.37-.07-.53.46-.16.57v.02Zm.78-7.99c17.05,8.83,37.32,2.33,54.5-2.89,2.04-3.41-11.95,3.4-13.77,3.26-8.82,2.3-18.12,3.19-27.21,2.2-4.4-.54-8.92-1.8-13.28-3.12-.32-.1-.52.38-.23.54h0Zm139.92-103.52c19.02,1.06,31.72,5.46,36.67,25.58,5.78,17,13.01,40.71,15.79,58.33.91,2.88,8.78,40.22,11.16,32.36-9.46-29.83-13.04-61.07-24.52-90.33-3.21-12.46-11.11-24.69-24.97-26.09-2.17-.37-14.41-2.1-14.13.16h0Zm29.1,47.29c6.65,26.05-3.74,52.54-1.39,78.93,1.57,17.96,8.99,38.07-.49,55.32-.62,1.1,1.09,2.09,1.69.99,8.73-16.31,3.02-34.88.84-52.01-4.34-26.95,9.91-58.89-.65-83.2h0v-.03Z"/>
  <path d="m194.89,241.33c1.73-1.45,10.87-19.68,7.46-18.67-1.49,6.46-4.24,12.87-7.97,18.36-.22.32.3.61.51.3h0Zm11.65-56.14c.88-5.71,1.86-13.62,1.36-19.34-.06-1.93-1.69-25.18-4.65-18.79,3.96,12,2.71,27.27,3.29,38.13h0Zm25.19,62.04c-9.54,4.76-19.36,9.66-30.28,10.19-7.3,7.05,35.14-6.43,30.29-10.18h-.01Zm2.44,4.78c-1.13-.02-2.4,1.17-3.29,1.8-8.3,6.18-18.5,8.9-28.36,11.48-5.59,6.51,35.52-8.88,31.65-13.29h0Zm-41.3,25.85c.06,10.48.34,21.67-3.42,31.68,3.24,7.32,7.28-33.02,3.42-31.69h0Zm-105.55,32.47c-2,2.3-1.13,6.16-1.39,9.02-.56,13.71,10,9.41,17.01,3.44,1.14-.61.13-2.33-1.01-1.73-6.55,5.04-14.89,10.16-14-2.86-.29-1.6,1.2-7.4-.6-7.89h0v.02Zm-3.76,15.75c-4.86,2.64-12.56,4.43-11.26-3.89-.75-2.21,10.26-20.21,3.9-16.19-1.56,7.04-12.89,22.1-.18,24.31,2.94-.17,6.25-1.15,7.89-3.75.2-.25-.05-.65-.36-.47h.01Zm-2.2-72.1c11.49,11.76,19.1,7.74,29.95,26.64.63.96,2.19.02,1.52-.89-5.8-8.54-12.7-16.67-22.49-20.64-2.99-1.47-6.36-3.02-8.56-5.52-.25-.29-.66.13-.42.42h0Zm-34.78-5.7c-3.99,18.05,4.22,37.21,17.33,49.63.73.68,1.82-.41,1.09-1.09-14.59-12.43-17.69-32.05-18.42-48.53h0Zm21.54,50.89c8.99,5.19,19.32,6.12,29.03,9.04,18.44,9.45,32.64,26.98,53.36,31.87.98.25,1.38-1.22.42-1.51-15.79-3.95-27.42-15.67-40.61-24.41-8.54-6.66-18.57-9.43-29.02-11.32-4.3-1.21-8.77-2.39-12.87-4.17-.35-.15-.65.35-.3.51h0Zm50.9,5.65c4.93,8.16,16.55,8.47,24.39,12.35,7.7,4.38,12.97-3.15,5.87-8.49,0,0-5.3-3.12-5.3-3.12-3.76-2.69-6.75-6.55-8.48-10.83-.26-.64-1.32-.36-1.05.29,3.75,11.73,14.64,11.55,17.07,18.54.44,7.81-9.61,1.6-13.36.49-9.6-3.01-11.8-3.12-19.16-9.2h0l.02-.03Zm-5.41-24.31c8.33,1.08,16.11,4.87,19.42,13.06.3.57,1.16.07.86-.5-3.25-7.78-12.42-14.09-20.29-12.55h.01Zm26.24,17.31c2.49.66,6.09,2.69,8.48,3.82,10.42,5.93,14.36,22.76,27.5,24.13.71-.04.72-1.15,0-1.11-6.37-.32-10.67-6.54-14.74-10.79-4.18-6.28-9.69-13.36-17.26-15.54-.68-.22-4.41-2.02-3.98-.51h0Z"/>
  <path d="m178.37,323.85c4.91-2.7,5.26-9.58,9.9-12.39,4.45-2.1,6.26,2.75,4,6.09.72,3.09,2.77-3.92,1.89-4.87-3.58-6.95-10.36.38-11.81,5.05-1.12,2.14-2.62,4.03-4.22,5.82-.14.16.03.42.24.31h0Zm10.92-.87c1.48-3.13,7.25-5.98,8.57-1.32-.4,4.42-3.87,8.51-6.52,11.91-1.5,1.64-3.5,3.19-5.86,3.45-.68.08-.68,1.16,0,1.07,6.87-1.39,12.91-10.4,13.3-17.05-1.85-5.1-8.77-2.61-9.83,1.79-.08.21.23.31.34.14h0Zm-9.97,6.59c11.41-12.85,15.65.27.54,9.44-1.08,3.17,6.31-4.17,6.53-4.08,11.57-10.12-2.45-17.32-7.07-5.36h0Z"/>
  <path d="m149.58,325.69c12.1,13.27,27.16-1.12,32.6,8.29-4.02,10.69-19.25,5.18-28.03,5.67-.71-.05-.7,1.04,0,1.1,9.2-.24,22.74,4.75,28.59-4.75,1.04-1.87.51-4.31-1.59-5.16-14.29-4.34-16.29,5.11-31.57-5.17v.02Zm6.29-99.97c-2.31-.32-1.46,3.31.52,2.21,1.75-1.12-.4-3.58-1.79-2.05-1.46,1.69,1.66,3.56,2.51,1.52.79-1.51-1.28-2.93-2.51-1.87-1.67,1.36.5,4.08,2.14,2.57,1.47-1.39-.95-3.53-2.07-1.81-1.18,2.82,3.83,1.78,1.59-.18-2.56-.86-1.35,3.17-.23.82,0,.06,0,.12-.02.18,0-.02,0-.05.02-.07l-.07.16.03-.06-.11.14.06-.06-.14.11s.05-.03.08-.04l-.16.07s.08-.03.12-.03l-.18.02h.13l-.18-.02.12.03-.16-.07.08.05-.14-.11.05.05-.11-.14s.03.04.04.06l-.07-.16.03.09-.02-.18v.11l.02-.18s0,.06-.02.09l.07-.16s-.04.08-.07.12l.11-.14s-.06.07-.1.1l.14-.11-.12.07.16-.07-.11.03.18-.02h-.12l.18.02s-.06,0-.09-.03l.16.07s-.07-.03-.1-.06l.14.1s-.07-.06-.09-.09l.1.14s-.06-.09-.08-.14l.07.16c-.02-.05-.03-.1-.04-.15l.02.18v-.18l-.02.18s.02-.09.04-.13l-.07.16s.04-.08.07-.12l-.1.13s.07-.08.11-.11l-.13.1s.09-.06.14-.08l-.16.07c.06-.02.11-.04.17-.05l-.18.02h.2l-.18-.02c.07,0,.13.03.2.05l-.16-.07c.06.02.11.05.16.09l-.13-.1s.08.07.11.11l-.1-.13.09.14-.07-.16c.02.06.04.12.05.19l-.02-.17v.22l.02-.17c0,.08-.03.16-.07.24l.07-.16c-.03.07-.07.13-.11.19l.1-.13c-.05.06-.1.11-.16.16l.13-.1-.15.09.16-.07c-.07.03-.15.05-.23.06l.17-.02c-.09.01-.17.01-.26,0l.17.02c-.1-.01-.19-.04-.28-.08l.15.06c-.08-.04-.16-.08-.23-.14l.13.1c-.06-.05-.12-.1-.17-.17l.1.13c-.05-.07-.1-.15-.13-.23l.06.15c-.03-.08-.06-.17-.07-.26l.02.17c-.01-.11-.01-.21,0-.32l-.02.17c.01-.11.04-.21.08-.31l-.06.15c.04-.08.08-.16.13-.23l-.1.13c.05-.06.11-.12.17-.17l-.13.1c.06-.05.13-.09.21-.12l-.15.06c.08-.03.16-.05.25-.07l-.17.02c.09-.01.19-.01.28,0l-.17-.02c.1,0,.2.04.3.08l-.15-.06c.09.04.17.09.24.14l-.13-.1c.06.05.12.1.17.17l-.1-.12c.05.06.09.13.12.2l-.06-.15c.03.07.04.14.05.21l-.02-.16c.01.09.01.17,0,.26l.02-.16c-.01.1-.04.19-.08.28l.06-.14c-.04.09-.09.17-.15.25l.09-.12c-.05.07-.12.13-.19.19l.12-.09c-.06.05-.13.09-.2.12l.14-.06c-.07.03-.14.05-.21.06l.15-.02h-.21l.15.02c-.08,0-.15-.03-.22-.06l.14.06c-.07-.03-.14-.07-.2-.11.23.16-.07-.04-.09-.1-.04-.05.07.11.04.05,0-.02-.02-.04-.04-.05l-.06-.1c-.03-.06.04.12.03.06,0-.04-.04-.15-.05-.19l.02.15v-.21l-.02.15c-.01-.06.13-.33,0-.09.15-.22.11-.18.36-.27.05,0,.14,0-.03,0h.2c-.34-.05.28.1-.03,0,.04.02.08.04.12.07.08.05-.09-.09-.03-.02.05.03.13.18.03.02.02.03.05.08.07.12.05.08-.04-.12,0-.03.02.05.03.11.04.17-.05-.19.02-.02,0,.04.01.06-.03.19,0,0-.02.05-.02.1-.04.14-.03.09.06-.11,0-.03-.11.17,0,.02-.03.06-.02.05-.17.12-.03.04-.17.11-.07.04-.26.11.1-.04.08,0,.03,0-.04,0-.12,0-.16,0-.09,0,.12.03.03,0-.05,0-.1-.04-.14-.04.17.04-.04,0-.06-.05-.08-.05.08.08.02,0-.04-.03-.05-.06-.08-.09-.06-.07.06.09,0,.02-.02-.04-.04-.09-.07-.12.08.15-.03-.03-.02-.08,0-.02,0-.06,0,.02,0-.03,0-.3,0-.14-.01-.05.04-.15.04-.19,0,0-.05.13.03-.06-.05.13.02-.07.05-.08-.04-.06.98-.49.47-.64h0l.08.02Zm-.63-16.46c-1.82-1.33-2.15,2.38-.14,1.81,2.99-1.72-2.07-4.25-2.1-.94-.11,1.91,2.8,2.2,2.96.26.13-2.04-3.1-2.37-3.14-.21-.2,2.16,3.23,2.53,3.38.33.12-2-3.04-2.22-3.01-.15.25,2.31,3.79.87,2.12-.89-1.24-1.22-2.44,1.3-.61,1.14l-.19.03h.08l-.19-.03s.07,0,.1.03l-.17-.07.09.05-.15-.11.11.11-.11-.15.08.13-.07-.17.04.15-.03-.19v.15l.03-.19-.03.1.07-.17-.05.09.11-.15s-.04.04-.06.07l.15-.11-.12.07.17-.07s-.09.03-.13.03l.19-.03h-.14l.19.03c-.06,0-.12-.02-.18-.05l.17.07c-.06-.03-.11-.06-.16-.1l.15.11s-.07-.06-.1-.1l.11.15-.07-.12.07.17-.04-.14.03.19v-.17l-.03.19c0-.06.03-.11.05-.16l-.07.17c.03-.06.06-.12.1-.17l-.11.15c.04-.05.09-.1.14-.14l-.14.11c.05-.04.11-.07.17-.1l-.17.07c.06-.03.13-.04.19-.05l-.19.03h.19l-.19-.03c.06.01.12.03.18.05l-.17-.07.18.1-.14-.11c.07.05.13.12.19.19l-.11-.14c.05.06.09.13.12.21l-.07-.17c.03.07.05.15.07.23l-.03-.19c0,.08,0,.16,0,.24l.03-.19c0,.06-.03.12-.05.18l.07-.17c-.03.07-.07.14-.12.2l.11-.14c-.05.06-.11.11-.17.16l.14-.11c-.07.05-.14.1-.22.13l.17-.07c-.09.04-.18.06-.28.08l.19-.03c-.09.01-.17.01-.26,0l.19.02c-.08,0-.15-.03-.23-.06l.17.07c-.08-.03-.15-.07-.21-.12l.14.11c-.07-.06-.14-.12-.19-.19l.11.14c-.06-.08-.11-.17-.15-.26l.07.17c-.04-.09-.06-.19-.08-.29l.02.18c0-.1,0-.2,0-.3l-.02.18c0-.09.04-.17.07-.25l-.07.16c.03-.08.07-.15.12-.21l-.11.14c.04-.06.09-.11.15-.15l-.14.11s.08-.06.13-.08l-.16.07c.06-.03.13-.04.2-.05l-.18.02h.24l-.18-.02c.09,0,.17.04.25.07l-.16-.07c.08.04.15.08.23.14l-.14-.11c.07.06.13.12.18.19l-.11-.14c.05.07.1.14.13.22l-.07-.16c.03.07.05.14.06.22l-.02-.18v.23l.02-.18c0,.06-.03.12-.05.17l.07-.16c-.03.07-.07.14-.12.2l.1-.14c-.04.05-.09.1-.15.14l.13-.1c-.07.05-.14.1-.22.13l.16-.07c-.07.03-.14.05-.22.06l.17-.02h-.2l.17.02s-.1-.02-.14-.04l.15.07c-.07-.03-.13-.06-.18-.11l.13.1c-.06-.05-.11-.11-.16-.17l.1.13c-.06-.08-.11-.16-.15-.25l.06.15c-.04-.09-.06-.19-.08-.29l.02.16c0-.11,0-.22,0-.33l-.02.16c-.02-.06.15-.43.03-.17.02-.05.07-.14.1-.19l-.04.05s.25-.18.05-.06c.04-.05.31-.13.06-.05.05-.03.37-.04.09-.03.05,0,.16,0,.21,0,.1,0-.15-.03-.05,0,.06,0,.14.04.19.05-.17-.09.04.02.08.07,0,0-.11-.1-.05-.04.06.03.12.19.03.02.02.04.04.06.07.11.04.08-.04-.13,0-.02,0,.02,0,.04.02.06.02.1,0-.14,0-.04v.13c.02-.24,0,.04-.04.08.12-.26-.16.26,0,.02-.02.04-.25.21-.07.08-.03.02-.08.05-.11.07-.09.06.1-.03,0,0-.07,0-.13.04-.02.02h-.08c-.1,0,.12.03.03,0,0,0-.03,0-.04,0-.05,0-.06-.05.03.02-.04,0-.17-.12-.04,0-.03-.02-.17-.19-.06-.05-.03-.05-.07-.09-.09-.15.08.17-.03-.06-.01-.1.04.15-.02,0,0-.05,0-.09-.02.08,0,0,0-.04.04-.18-.01-.05l.03-.05s0-.02.02-.03c-.04.05-.05.06-.03.04,0,0,.13-.12.06-.07,0-.01.13-.06.06-.04.25-.07.89.19.61-.36h0l-.04-.1Z"/>
  <path d="m158.1,245.46s-.1-.13-.03,0c-.06-.13-.22-.19-.35-.2.2.02-.12-.02-.07,0-1.88-.07-1.58,2.83.19,2.68,1.38,0,2.04-1.88,1-2.77-1-.95-2.72-.18-2.71,1.19-.06,1.99,3.09,2.17,3.15.13.06-2.04-3.08-2.04-3.07-.02,0,1.57,2.35,2.06,2.9.56.94-2.42-3.34-2.72-2.72-.17.22,1.48,2.42.69,1.32-.47l.11.14-.09-.15.07.17c-.02-.06-.04-.13-.05-.19l.03.19v-.22l-.03.19c0-.07.03-.13.05-.19l-.07.17c.03-.06.06-.12.1-.17l-.11.14s.08-.09.12-.12l-.14.11s.09-.06.14-.08l-.17.07c.06-.02.11-.04.17-.05l-.19.03h.22l-.19-.03c.08,0,.15.03.22.06l-.17-.07.18.1-.14-.11c.05.04.1.09.14.14l-.11-.14c.02.06.05.11.09.16l-.07-.17c.02.05.03.11.04.16l-.03-.19v.21l.03-.19c-.01.07-.03.14-.06.21l.07-.17c-.03.07-.07.14-.12.21l.11-.14c-.04.05-.1.11-.15.15l.14-.11c-.05.04-.1.07-.16.1l.17-.07c-.06.02-.12.04-.18.05l.19-.02h-.2l.19.02c-.07-.01-.14-.03-.21-.06l.17.07c-.07-.03-.13-.07-.19-.11l.14.11c-.07-.05-.12-.11-.18-.17l.11.14c-.04-.06-.08-.12-.11-.19l.07.17c-.02-.06-.04-.12-.05-.19l.02.18v-.18l-.02.18c0-.08.03-.15.06-.22l-.07.17c.03-.07.07-.14.12-.2l-.11.14c.05-.07.11-.13.18-.18l-.14.11c.06-.05.13-.08.2-.11l-.16.07c.06-.03.13-.04.2-.05l-.18.02h.2l-.18-.02c.06.01.13.03.19.05l-.16-.07c.07.03.14.07.21.12l-.14-.11c.06.05.11.1.15.16l-.11-.14c.06.07.1.15.13.23l-.07-.16c.03.07.05.14.06.21l-.02-.18v.22l.02-.18c0,.07-.03.13-.06.19l.07-.16-.1.18.1-.14c-.05.06-.1.12-.16.17l.14-.1c-.07.05-.14.1-.22.13l.16-.07c-.07.03-.15.05-.23.06l.18-.02h-.21l.18.02c-.09,0-.17-.04-.26-.07l.16.07c-.07-.03-.14-.07-.21-.12l.13.1c-.07-.06-.13-.12-.19-.19l.1.13-.11-.18.07.16c-.03-.08-.05-.15-.07-.23l.02.17c0-.09,0-.18,0-.27l-.02.17c.01-.1.04-.19.08-.28l-.06.15c.04-.08.08-.16.14-.23l-.1.13c.05-.06.11-.12.17-.17l-.13.1c.06-.04.12-.08.19-.11l-.15.06c.08-.03.15-.05.23-.06l-.17.02c.1,0,.19,0,.29,0l-.17-.02c.09,0,.18.04.26.07l-.15-.06.23.13-.13-.1c.06.05.12.11.17.17l-.1-.13c.04.06.08.12.11.19l-.06-.15c.04.08.06.17.07.26l-.02-.16c0,.09,0,.18,0,.27l.02-.16c0,.1-.04.19-.08.29l.06-.14c-.03.08-.07.15-.12.21l.09-.12c-.05.07-.11.12-.18.18l.12-.09c-.06.05-.13.09-.21.12l.14-.06c-.08.04-.17.06-.26.07l.16-.02c-.09,0-.18,0-.27,0l.15.02c-.08,0-.16-.03-.23-.06l.14.06-.18-.1.11.09s-.1-.09-.13-.12c0,0,.14.17-.04-.05l.04.05s-.08-.12-.09-.15l.05.13c-.03-.07-.05-.14-.06-.22l.02.14v-.2l-.02.14s.02-.1.04-.14c.02-.09-.06.11,0,.03.01-.04.15-.18.02-.04.01-.05.24-.21.08-.09.07-.05.17-.1.24-.15l-.06.03s.08-.01.11-.04c.03,0,0,0-.05,0,.15,0,.28-.08.36-.2l-.14.14s.07-.03,0,0c.13.03.36-.33.15-.5h0l-.04-.07Zm2.01,19.05c.06-.3-.12-.56-.41-.65l.07.03c-1.38-.37-2.27,1.97-1,2.67,1.73,1.06,3.13-1.83,1.33-2.66-1.68-.92-3.15,1.82-1.4,2.65,1.69.9,3.01-1.55,1.45-2.56-1.64-1.08-3.26,1.79-1.47,2.62,1.69.95,2.97-1.91,1.08-2.44-2.51-.36-1.5,3.58.49,2.02,1.02-.9-.75-2.11-1.18-.82l.08-.18-.05.08.12-.15-.06.06.15-.12s-.06.04-.09.05l.18-.07-.12.03.2-.03h-.15l.2.03s-.1-.02-.14-.04l.18.07s-.09-.04-.12-.07l.15.12-.06-.06.12.15s-.04-.06-.05-.09l.07.18s-.02-.06-.02-.09l.03.2v-.11l-.03.2s0-.07.03-.1l-.07.18.06-.11-.11.15.11-.11-.15.11.15-.09-.17.07.15-.04-.19.03h.13l-.19-.03.12.03-.17-.07s.06.04.09.06l-.15-.11.09.09-.11-.15s.04.07.07.11l-.07-.17s.04.11.05.17l-.03-.19v.2l.03-.19c0,.06-.02.12-.05.17l.07-.17-.08.13.11-.15s-.07.08-.11.11l.15-.11-.12.07.17-.07c-.05.02-.1.04-.16.04l.19-.03h-.21l.19.03c-.07-.01-.14-.03-.21-.06l.17.07c-.07-.03-.13-.07-.19-.11l.14.11s-.08-.07-.12-.12l.11.14s-.07-.1-.1-.16l.07.17c-.02-.06-.04-.11-.05-.17l.03.19v-.2l-.03.19c0-.08.03-.16.07-.24l-.07.17c.03-.08.08-.15.13-.22l-.11.14c.05-.06.1-.11.16-.16l-.14.11c.06-.05.12-.08.19-.11l-.17.07c.06-.02.11-.04.17-.05l-.18.02h.18l-.18-.02c.06,0,.12.03.18.05l-.17-.07.16.09-.14-.11c.06.05.11.1.16.16l-.11-.14c.05.06.08.13.12.2l-.07-.16c.03.08.06.16.07.24l-.02-.18c0,.08,0,.15,0,.23l.02-.18c0,.07-.03.13-.05.2l.07-.16s-.05.1-.08.14l.11-.14s-.08.09-.12.12l.14-.1c-.05.04-.11.07-.16.1l.16-.07c-.07.03-.15.05-.23.06l.18-.02h-.24l.18.02c-.09-.01-.17-.03-.25-.07l.16.07c-.07-.03-.14-.07-.21-.12l.13.1c-.05-.04-.1-.08-.14-.13l.1.13s-.07-.11-.1-.17l.07.15c-.02-.06-.04-.12-.05-.18l.02.17v-.23l-.02.17c0-.08.03-.15.06-.23l-.06.15c.04-.08.08-.16.13-.23l-.1.13c.05-.07.12-.13.18-.19l-.13.1c.06-.05.13-.09.2-.12l-.15.06c.06-.02.12-.04.18-.05l-.17.02h.21l-.16-.02c.08.01.15.03.22.06l-.15-.06c.08.03.15.08.23.13l-.12-.09c.08.06.14.13.2.2l-.09-.12c.05.07.1.15.13.23l-.06-.14c.03.07.05.14.06.22l-.02-.16c0,.08,0,.16,0,.23l.02-.15c0,.08-.03.15-.06.23l.06-.14s-.05.1-.08.15c-.03.06-.07.1.02-.02-.03.04-.07.09-.11.11-.07.07.11-.07.03-.02l-.16.09.13-.06c-.07.03-.13.04-.2.06l.15-.02c-.08.01-.15.01-.23,0l.15.02c-.06,0-.12-.03-.18-.04-.09-.03.13.06.02,0-.05,0-.2-.15-.06-.02-.05-.02-.18-.23-.06-.04-.03-.04-.12-.22-.04-.05-.01-.05-.03-.09-.04-.14,0,.22,0-.09,0-.13-.03.22.02-.12.06-.16-.09.17.17-.3.24-.35l-.04.05s.08-.1.12-.12c-.08.09-.05.04,0,.01.17-.1-.09.01.13-.05h-.07c.08,0,.15,0,.21-.05-.07.03-.09.03-.05.02h-.07c.09,0-.07-.02-.02,0-.14-.07.03.03-.09-.05-.01.11.52.28.57-.07h-.04Zm.16,18.17l.24-.21-.14.02c1.19-.11-.18-1.08-.84-.51-2.14,1.39,1.39,3.87,2.03,1.42.43-1.55-1.81-2.36-2.58-1.02-.88,1.62,1.55,3.02,2.49,1.4.98-1.53-1.64-3.03-2.47-1.45-.92,1.55,1.4,3.09,2.38,1.53.94-2.3-2.54-2.56-2.65-.28-.1,1.24,1.43.9,1.42-.17l-.06.15c.06-.14.13-.27.22-.39l-.1.13c.05-.06.11-.12.17-.17l-.13.1.15-.09-.15.06.15-.04-.17.02h.17l-.17-.02s.09.03.14.04l-.15-.06s.08.05.12.07l-.13-.1s.09.08.13.13l-.1-.13s.07.1.09.16l-.06-.15c.02.06.04.12.05.18l-.02-.17v.19l.02-.17s-.02.09-.04.14l.06-.15s-.05.1-.09.15l.1-.13-.12.12.13-.1c-.05.04-.11.07-.17.1l.15-.06c-.07.03-.14.05-.21.06l.17-.02c-.08.01-.16.01-.24,0l.16.02c-.06-.01-.13-.03-.19-.05l.15.06s-.1-.05-.14-.08l.12.1s-.09-.08-.12-.12l.1.13-.11-.18.06.15c-.03-.07-.05-.15-.06-.23l.02.16c-.01-.09-.01-.17,0-.26l-.02.17c0-.08.03-.17.07-.25l-.06.15c.03-.06.06-.11.1-.17l-.1.13s.08-.09.12-.12l-.13.1s.1-.07.16-.09l-.15.06c.06-.02.12-.04.18-.05l-.17.02h.22l-.17-.02c.08,0,.16.03.24.07l-.15-.06c.08.03.15.08.21.13l-.13-.1c.06.05.11.1.16.16l-.1-.13c.05.06.08.12.11.19l-.06-.15c.02.06.04.12.05.18l-.02-.17v.17l.02-.17c0,.07-.03.13-.05.19l.06-.15c-.03.07-.07.13-.11.19l.1-.12c-.05.07-.11.12-.18.17l.12-.1c-.07.05-.14.09-.22.12l.15-.06c-.07.03-.14.05-.22.06l.16-.02h-.2l.16.02c-.06,0-.11-.02-.17-.05l.14.06-.18-.1.12.09c-.07-.05-.12-.11-.18-.18l.09.12c-.05-.06-.09-.13-.12-.2l.06.14c-.04-.08-.06-.17-.07-.26l.02.15v-.23l-.02.15c0-.07.03-.14.06-.2l-.06.13c.03-.06.06-.11.1-.16l-.08.11s.08-.09.13-.13l-.11.08c.06-.05.13-.09.2-.12l-.12.05c.08-.04.17-.06.26-.07l-.14.02h.21l-.13-.02c.07-.01.32.1.14.02.04.02.22.15.08.03,0,0,.05.04.05.05l.04.04s-.08-.12-.03-.04l.06.1s-.05-.14-.02-.05c0,.04.04.15.05.19l-.02-.13c.01.09.01.19,0,.28l.02-.13s-.13.38-.03.15c-.02.06-.06.11-.09.16-.04.07.09-.1.02-.03l-.09.09c-.06.05.11-.07.04-.03-.03.02-.07.04-.1.06.21-.11-.04.03-.1.01l.13-.02h-.23l.13.02c-.24-.06-.12-.01-.34-.14-.06-.04.05.04.05.04,0,0-.09-.08-.09-.09l-.04-.05s.07.09.04.06c-.03-.04-.13-.25-.05-.07,0-.04-.03-.09-.03-.13,0-.04.02.08,0,.07,0-.05,0-.12,0-.17,0-.05-.02.11,0,.06,0-.02,0-.12.04-.14l-.03.06c.09-.2.07-.14.27-.33-.1.07,0,0,.06-.03.12-.04.09-.05.27-.05h-.06c.14,0,.29,0,.39-.11l-.5-.13.02.06.02-.14c-.18.14-.42.59,0,.45h-.01Z"/>
  <path d="m161.5,300.17l-.13-.08.12.16h0c-.03-.18-.22-.24-.37-.21-1.94.04-1.76,3.15.29,2.83,2.64-1.05-.48-4.46-1.97-2.04-1.59,2.36,2.7,3.41,2.63.69.06-2.15-2.63-1.85-2.77.04.28,3.64,5.33.48,2.09-1.22-2.27-.48-2.4,3.2-.04,2.69,2.6-.95-.6-4.45-1.52-1.52-.3.84.51,1.89,1.41,1.6.91-.26.43-1.65-.45-1.31l.18-.02h-.08l.18.02-.1-.03.16.07-.1-.06.14.11s-.07-.06-.1-.1l.11.14s-.07-.1-.09-.16l.07.16-.04-.15.02.18v-.15l-.02.18c.01-.07.03-.14.06-.2l-.07.16c.04-.09.1-.18.16-.26l-.11.14c.11-.14.24-.26.37-.38l-.66.17s.1.02.14.04l-.16-.07.12.06c.06.04-.14-.12-.07-.05.02.02.04.03.05.05.02.02.07.09,0-.01-.11-.16.05.1.06.13l-.07-.16c.03.07.05.14.06.22l-.02-.18v.2l.02-.18c0,.06-.02.11-.04.16l.07-.16s-.04.11-.07.13c.03-.06.14-.14.01-.04.04,0,.17-.12,0-.01l.16-.07c-.06.02-.12.04-.19.05l.18-.02h-.22l.18.02c-.08,0-.16-.03-.24-.07l.16.07s-.25-.17-.11-.05c.09.08.03.02.01,0-.1-.11.02.06.02.04-.02-.04-.05-.07-.06-.12l.07.16-.04-.15.02.18v-.16l-.02.18c0-.06.03-.12.05-.17l-.07.16s.08-.11.08-.14c-.13.18-.02,0,.06-.04-.23.2.03-.03.09-.04l-.16.07c.06-.03.13-.05.2-.06l-.18.02h.21l-.18-.02c.05,0,.1.02.15.04l-.16-.07s.08.05.12.06c-.14-.09-.07-.07,0,.03-.2-.24,0-.01,0,.06l-.07-.16c.03.07.05.14.06.21l-.02-.18c.01.09.01.19,0,.28l.02-.18c0,.08-.03.16-.07.24l.07-.16s-.07.14-.09.17c.12-.21.06-.05,0-.02-.07.07.05-.05.07-.05-.03,0-.11.06-.14.08l.16-.07c-.07.03-.14.05-.21.06l.17-.02h-.22l.17.02c-.06-.01-.17-.03-.22-.05-.11-.03.15.08.05.02-.06-.01-.3-.22-.08-.03-.06-.05-.09-.09-.15-.14-.05-.05.1.14.04.06-.02-.04-.05-.09-.07-.13-.04-.07.06.16.03.07-.02-.05-.03-.11-.04-.16l.02.17v-.25l-.02.17c0-.09.1-.3,0-.1.04-.07.08-.15.12-.21-.08.14-.07.08-.02.04.04-.04.06-.09.11-.11.08-.07-.11.08-.05.03l.15-.09s.12-.05,0,0c-.18.06.14-.05.19-.04l-.17.02h.09l-.45-.19s.05.07.08.09c-.12-.11-.06-.08-.02-.03.13.24.12.13.18.49l-.02-.17c0,.11,0,.23,0,.34l.02-.17c0,.08-.04.16-.06.24.08-.18,0,0-.05.06.22-.26-.24.2.05-.04-.02.02-.23.12-.1.06.14-.06-.15.04-.18.04l.17-.02c-.09,0-.18,0-.27,0l.17.02-.21-.03.16.02c-.07,0-.13-.03-.19-.05-.05-.01.09.04.09.04-.02-.03-.09-.04-.12-.07l.08.06-.06-.06c-.06-.06.08.13.03.04,0-.02-.07-.13-.02-.03.05.11,0-.07,0-.07v.05c0-.05,0-.34,0-.14.03-.21.02-.13.14-.34.03-.06-.08.09-.03.04.05-.05.11-.13.17-.18,0,0,.02-.02.03-.03.04-.04-.12.08-.03.02l.16-.1c.1-.05.06-.03-.01,0,.27-.07.13-.08.39-.06-.17-.03.01.01.09.04.09.03-.1-.05-.03,0,.21.14-.07-.08.11.09.02.02.08.1.02.02-.07-.1.04.07.05.09.06.11,0-.03,0-.03.03.04.06.19.06.25-.01-.3-.02.36,0,.06,0,.07-.01.13-.04.19-.03.1.06-.11,0-.02-.02.03-.04.07-.06.11-.02,0,.09-.1.05-.06-.02.02-.04.04-.05.06,0,0-.02.01-.02.02-.01.02.15-.12,0,0-.02,0-.11.05-.02.01.14-.04-.19.02-.04,0,.17,0-.33,0-.05,0-.05.03-.24-.1-.1-.01-.02-.02-.23-.14-.1-.06-.05-.04-.09-.1-.14-.14.1.12-.03-.04-.04-.07,0-.01-.02-.05-.03-.05.07.22-.05-.32,0-.02,0-.05-.03-.11-.02-.16v.06s0-.26,0-.11c.03-.04.02-.11.04-.16,0,0,0-.02,0-.03,0-.03,0-.02,0,.03.05-.06.07-.16.13-.21,0-.02.3-.28.38-.29.15-.03.32-.15.31-.32h0c-.03.06-.05.12-.08.19.13-.07.23-.22.08-.34h-.05Zm-4.64-177.96c-.26,1.38-.64,4.19-.77,5.59,1.24,2.07,1.06-2.29,1.1-2.78-.1-.02.22-3.58-.33-2.82h0Z"/>
  <path d="m140.25,126.48c14.66-.08,29.76-8.22,35.27-22.25.48-1.71,8.43-15.33,5.19-13.9-8.5,22.28-16.75,32.44-40.45,36.17v-.02Zm-3.04-.43c-12.27-3.38-22.61-13.17-24.89-25.94-.14-.71-1.23-.41-1.09.3,2.14,12.13,14.31,25.71,25.99,25.63h0Zm103.1,233.99c8.76-4.72,17.78-10.03,26.92-14.01.75-.34.1-1.45-.65-1.11-9.11,4.4-18.31,8.88-26.64,14.65-.29.23.08.6.36.47h.01Zm2.44,6.68c8.69-4.28,17.64-9.12,26.81-12.36.73-.27.41-1.46-.32-1.18-8.42,3.89-20.77,7.63-26.48,13.53h0Zm1.76,7.17c9.43-5.01,18.81-10.18,28.75-14.14.77-.3.33-1.39-.45-1.06-9.32,4.4-21.18,8.89-28.32,15.19h.02Z"/>
  <path d="m247.48,364.22c-.89.73-5.05,10.9-2.24,8.92.31-1.48.7-2.95,1.18-4.39.09-.95,2.35-4.52,1.05-4.53h.01Z"/>
  <path d="m246.97,364.39c.8.6,5.88,5.26,6.41,4.2,1.4-.5-7.37-6.01-6.4-4.19h0Z"/>
  <path d="m254.61,359.82c-1.28,2.7-1.66,5.81-2.09,8.75,1.46,2.13,1.24-3.55,1.67-4.4-.07-.67,1.6-4.82.43-4.35h0Z"/>
  <path d="m254.73,360.51c.68.8,1.96,1.63,2.78,2.29.54.13,3.18,3.14,3.73,1.97.65-.88-2.9-2.35-3.24-2.82-.54-.19-3.34-2.64-3.27-1.45h0Z"/>
  <path d="m262.99,356.47c-1.56-.52-2.14,6.78-2.72,7.94-.12.63.84.9.96.27.52-2.3.96-6.16,1.78-8.2h-.02Z"/>
  <path d="m262.24,356.73c.3.9,5.27,6.42,6.07,5.3.8-.89-2.78-2.66-3.11-3.18,0,0-1.25-1.12-1.25-1.12-.4-.3-1.47-2.27-1.71-.99h0Z"/>
  <path d="m269.48,353.65c-.85,2.15-1.48,5.87-2.17,8.15,1.07,2.54,1.58-3.11,1.93-3.92-.06-.6,1.69-4.95.24-4.23h0Zm-63.86-53.75c6.52,19.92,22.55,34.74,30.85,53.83,7.09,13.49,5.68,30.3,16.54,42,.86,1.05,2.34-.45,1.49-1.49-10.24-10.95-9.09-26.58-15.28-39.4-5.19-12.24-13.08-22.91-20.69-33.69-4.61-6.86-7.8-14.54-11.9-21.67-.33-.52-1.16-.19-1,.42h-.01Z"/>
  <path d="m233.26,257.15c12.68,11.93,20.74,29.2,25.2,45.92,4.19,17.39,4.84,35.56,10.64,52.57,3.21,9.42,8.76,18.61,8.25,28.87-.07,1.42,2.18,1.43,2.22,0-1.06-18.34-12.69-34.3-13.9-52.87-3-23.29-8.01-46.97-22.68-65.99-1.07-2.09-8.52-10.77-9.73-8.5h0Zm18.37,140.66c1.2,8.35-4.88,17.34-1.54,25.64,1.73,5.37,4.04,12.76,4.68,18.34,1.17,5.96-.04,12.53,2.47,18.18,4.61,6.5,9.47-2.58,9.16-7.42,1.74-10.68-.49-18.6-1.04-1.74-.48,2.29-.66,6.37-1.99,8.37-1.26,2.27-4.61,2.27-5.29-.45-2.39-11.56-2.01-23.75-6.79-34.86-4.14-8.33,3.58-18.69.34-26.03h0v-.03Z"/>
  <path d="m262.38,430.84c.78,6.41,5.46,14.79,13.03,12.9.63-.18.36-1.17-.27-.99-7.21,1.79-10.66-6.55-12.44-12.04-.09-.2-.35-.04-.32.14h0Zm8.24,14.12c3.39,10.74-6.85,17.79-9,27.26,1.79,19.31,24.81-21.3,18.56-30.61-.25-.84-1.57-.48-1.32.36,1.51,5.09.62,10.48-1.25,15.34-2.05,3.89-9.27,22.4-14.7,17.57-.74-10.74,13.25-18.48,8.37-30.11-.14-.43-.76-.25-.67.18h0Zm4.08,22.73c10.54-3.87,9.81-19.81,9.54-29.32-.04-.79-1.26-.79-1.23,0,.85,10.14-.04,23.54-8.31,29.33h0Zm10.34-20.22c2.52-.89,3.38-14.07,1.05-10.81,1.03,3.56.21,7.27-1.44,10.51-.11.24.19.53.39.3h0Zm3.84-5.14c2.66-2.24,3.81-7.21,2.16-10.31-.38-.51-1.25-.01-.86.5,1.43,2.84.25,6.95-1.59,9.43-.19.19.06.55.3.39h0Z"/>
  <path d="m276.86,442.12c3.69-.68,5.88-4.4,9.13-6.01,2.76-.13,8.63-11.95,5.04-9.4-.28,6.25-6.46,8.29-10.03,12.29-1.18,1.27-2.43,2.5-4.21,2.84-.19.04-.11.31.08.29h0Z"/>
  <path d="m279.97,388c5.57,12.67,14.3,25.57,11.2,40.1-.12.73.99,1.04,1.11.31,2.74-13.95-4.79-30.47-12.31-40.39h0v-.02Zm-22.69,9.02c1.21,3.11,5.26,1.89,7.05-.01.82-1.16,12.35-9.77,8.46-9.3,0,0-7.96,7.43-7.96,7.43-2.41,2.58-4.81,3.88-7.54,1.87h-.01Zm-42.8-124.53c2.07.89,19.15-7.95,14.68-8.56-4.02,4.08-9.31,6.66-14.95,7.59-.63.1-.36,1.07.27.96h0Zm-155.98-16.65c5.78-3.12,13.89-5.94,20.06-2.75.36.56,1.24.05.9-.52-5.19-4.03-17.51-1.34-20.96,3.26h0Zm105.67,60.55c1.71,1.38,5.7.55,7.79.8,0,0,8.83-.3,8.83-.3,1.4-.05,1.41-2.21,0-2.19-2.44.39-16.18-.59-16.62,1.69h0Zm-56.69,6.12c1.57,6.29,1.6,13.16-.79,19.22,1.53,2.98,3.09-8.44,2.94-9.66.11-1.39-.47-11.5-2.16-9.57h.01Zm6.39-1.21c1.14,6.54,1.28,13.41-.97,19.72,2.58,4.43,3.86-21.28.97-19.72h0Zm-9.46.03c1.96.74,5.13.05,7.2.04,1.29,0,1.29-2.02,0-2-1.11.34-8.39.02-7.19,1.96h0Zm-56.93,257.75c-15.34-29.15-18.49-62.68-18.17-95.13-2.86-52.16,15.03-101.89,41.72-146.01,0,0,3.13-5.46,3.13-5.46.58-1-.97-1.91-1.55-.91-27.05,44.6-47.21,93.63-45.11,146.74-.25,33.38.9,73.99,19.99,100.78h0Zm42.45,3.75c16.28-18.63,21.21-43.95,29.43-66.66,8.81-29.31,32.61-91.3,37.94-120.67.2-1.26-1.73-1.8-1.93-.53-7.49,36.27-25.34,79.61-36.18,115.2-6.69,21.94-18.15,54.5-29.26,72.67h0Z"/>
  <path d="m161.73,582.79c-7.6-48.58-13.94-99.39-14.41-148.52-.02-1.29-2.02-1.29-2,0,.35,19.53,1.33,39.05,2.95,58.51,3.05,29.3,5.5,63.35,13.47,90.01h-.01Zm51.33,14.21c19.98-30.73,18.3-69.93,22.38-105.14,4.47-56.79-2.47-115.43-29.31-166.05-1.38-2.82-4.73-9.79-5.07-4.91,27.31,49.6,36.64,107.16,32.84,163.41-2.52,37.46-5.23,80.68-20.84,112.68h0Zm-114.07-259.03c1.11,27.64-21.55,41.71-47.02,40.42-1.73.07-1.73,2.78,0,2.69,19.17.24,40.39-7.31,46.69-27.16,1.24-1.77,3.79-18.8.33-15.94h0Z"/>
  <path d="m60.92,354.88c5,.58,11.05.12,16.1.2.31-.07,1.39.21.56-.41.58,1.85-4.11,26.84.6,20.15,0,0,.95-10.77.95-10.77.02-2.88,1.04-7.53.62-10.32-2.12-2.36-6.33-.31-9.2-.69-1.57.35-10.2-.36-9.62,1.86v-.02Zm93.88-12.24c-.15,6.42.25,12.85.13,19.28.79,1.94-3.12,25.24.91,19.25.28-3.71,3.31-42.34-1.05-38.53h0Zm3.11,37.07c6.33,1.82,9.3-7.34,9.5-12.3.09-2.33,2.79-30.29-1.7-24.11.07,10.32,1.4,21.49-2.22,31.31-.65,1.18-1.57,2.2-2.68,2.96-.76.69-3.12.94-2.9,2.16h0v-.02Zm36.37-47.99c.23-.03.85-.46.98-.43,1.84,12.21,6.12,26.97,20.87,28.09,1.73.2,1.73-2.54,0-2.72-12.67-.65-16.85-13.98-18.56-24.54-.54-3.96-4.94-1.95-3.29-.41h0Zm4.17-6.72c.3.09.91.12,1.09.16,1.14.26,2.46.04,3.61-.13,1.25-.3.72-2.26-.53-1.93-.07.02-1.33.21-1.13.18-.75.2-4.78.35-3.04,1.71h0Zm-126.92,12.24c1.36,3.39,43.9,2.26,35.22-2.28-10.28,1.88-20.78,2.65-31.2,1.56-1.03-.03-4-.72-4.02.72h0Zm44.64-2.51c1.32,1.23,19.07.66,12.72-2.2-1.7.92-13.69.89-12.72,2.19h0ZM29.7,697.6c-16.27-53.38-9.92-93.67,6.39-145.7.36-1.29-1.66-1.84-2-.55-11.3,36.86-19.65,76.73-13.22,115.11,1.51,10.67,3.67,21.43,7.81,31.41.25.61,1.19.4,1.02-.28h0Zm57.59-6.88c14.84-40.36,19.23-84.3,16.89-127.08-.08-1.28-2.08-1.29-2,0,1.04,16.64.86,33.34-.56,49.96-.98,25.64-10.25,54.13-14.34,77.13h0Zm46.82-14.83c.86-38.26,6.97-76.66,23-111.7.53-1.2-1.24-2.24-1.77-1.03-14.53,34.57-25.72,76.69-21.24,112.73h0Zm56.28.31c20.05-29.83,30.71-65.49,34.12-101.05.11-1.28-1.89-1.27-2,0-2.44,27.69-10.04,54.71-22.06,79.75-3.39,7.07-7.39,13.81-10.86,20.83-.27.55.45.95.81.47h0Zm-163.78,26.56c20.15,2.85,40.69-2.24,60.44-5.89,6.19-5.04-28.13,4.2-30.66,3.41-9.88,1.51-19.86,1.29-29.79,1.67-.44.06-.36.7,0,.81h0Zm-1.86,15.19c22.08,2.79,44.7-1.77,65.85-8.09,1.31-.41.74-2.49-.57-2.06-20.51,7.87-45.23,7.85-65.29,10.15h0Zm105.99-29.71c4.61,8.66,66.18,6.81,56.32,1.92-18.09,3.52-40.28,3.31-56.33-1.93h0Z"/>
  <path d="m130.53,676.13c4.58,4.58,16.02,4.11,21.99,5.63,12.67,1.77,25.83,2.53,38.25-1.08,1.24-.35.71-2.28-.53-1.93-19.38,5.87-41.48-.03-59.7-2.63h0Zm-107.06,27.76c.06,1.52-2.53,16.44,1.02,11.79-.32-1.55,1.3-14.16-1.02-11.79h0Zm65.68-6.16c.84,1.59-2.39,13.74,1.2,9.85.56-1.39,1.56-13.11-1.19-9.85h0Zm40.36-19.93c.3,3.12.49,6.26-.23,9.33-.3,1.3,1.72,1.84,1.99.55.71-1.41.86-12.81-1.76-9.88h0Z"/>
  <path d="m190.64,680.4c-1.04,2.94-1.48,7.85-2.16,10.96-.2,1.43,1.79,1.72,1.96.27l.49-5.65c-.16-.82,1.12-6.23-.29-5.58h0Zm-164.02,77.96c-1.94,13.35-2.86,33.27-8.42,45.41-5.38,12.27-15.06,22.83-17.8,36.2-3.97,17.68,22.47,26.42,35.93,22.8,8.39-4.43,12.84-13.58,17.4-21.47,6.31-11.91,11.6-24.94,21.69-34.27.12-10.26-20.27,24.82-20.57,27.37-6.68,12.41-15.33,33.21-32.92,25.74-6.15-1.81-13.1-3.75-17.17-9.12-8.35-15.73,9.37-31.02,14.79-45,3.24-2.44,13.5-54.47,7.07-47.65h0Zm-10.6,105.44c18.69,14.72,33.82,0,40.7-18.42,5.73-11.76,12.44-23.38,22.34-32.12,1.02-.91-.49-2.42-1.5-1.5-19.38,14.82-23.61,49.2-40.94,55.17-6.99,2.14-13.81-1.35-20.26-3.57-.23-.04-.5.2-.34.44h0Zm31.86-8.39c7.44-11.11,12.77-24.13,20.13-35.21.32-1.84,12.73-13.48,8.02-12.09-12.64,12.97-21.08,32.27-28.16,47.3h0Z"/>
  <path d="m75.67,753.64c.34,18.81,2.87,38.5,2.31,57.35,3.88,5.95.88-26.62,1.25-28.97-.74-8.34-.68-20.49-2.88-28.48-.11-.39-.66-.3-.69.09h.01ZM4.57,835.93c14.13-1.09,28.9,3.67,38.41,14.52,1,1.13,2.69-.55,1.66-1.66-10.03-10.83-25.57-17.09-40.3-14.57-1,.22-.7,1.64.23,1.7h0Z"/>
  <path d="m13.62,833.73c7.97-14.67,15.35-30.5,19.32-46.76.12-5.97,7.59-29.75-3.3-27.93-1.2.39-.69,2.29.52,1.9,1.09-.35,2.11.19,2.77,1.08,1.74,2.12-.18,8.59-.16,11.05-.72,15.43-6.43,29.9-12.86,43.75-.66,2.16-8.29,16.74-6.28,16.92h-.01Zm16.75,4.42c5.49-2.56,25.92-76.97,16.67-70.29,1.23,8.46-2.51,20.14-4.1,28.46-2.25,14.01-9.62,29.62-12.57,41.83h0Zm17.24-73.24c13.27,4.45,35.03-13.06,26.79-12.21-4.7,5.66-11.5,9.5-18.8,10.52-1.45.48-8.91-.33-8,1.69h.01Zm28.61,4.65c-13.02-4.4-17.86,19.3-4.79,21.86,1.79.66,3.7,1.13,5.56.48,1.42-.5.79-2.78-.62-2.26-9.7,2.13-14.57-11.83-6.89-17.22,1.17-1.72,7.39-1.54,6.75-2.85h0Z"/>
  <path d="m33.75,760.68c1.84-1.13,2.53-3.48,4.18-4.82,5.5-2.93,13,1.12,13.33,7.43.34,1.28,2.19.73,1.96-.54-.31-11.49-19.95-13.8-19.47-2.08h0Zm4.25,71.82c.91-.47-.67-1.26-1.2-.77-1.9.95-.68,4.08,1.3,3.86,2.67.12,1.83-5.07-.39-3.58-.34.56.54,1.06.87.51-.02.12-.33.15-.28.14.04.01.04.04,0,0,.02.01.05.03.07.04-.11-.08.06.05.07.07,0-.05.29.49.31.52.06.12.09.28.11.41,0-.1,0,.22,0,.23,0-.08-.03.14-.05.16.05-.09-.18.29-.09.15-.06.08-.14.14-.21.2.16-.09-.28.17-.19.12.06-.02-.4.12-.26.08-.03,0-.32-.01-.2,0-.09-.01-.18-.04-.27-.07-.01,0-.21-.11-.28-.17.05.04-.21-.19-.25-.26.03.05-.13-.2-.15-.27-.03-.04-.12-.38-.09-.56,0-.11.02-.05,0-.16.02-.11.06-.22.1-.32.12-.26.56-.57.96-.51-.06-.03.04.01.03.01,0,.05.03.02.04-.06-.17.04-.12.28.04.29v-.06Zm4.28-10.48c-.88-1.74-3.31.61-2.27,2.02.73,1.57,3.39,1.07,3.47-.68.08-.86-.53-1.77-1.38-1.98-.72-.19-.95.95-.21,1.05.09.03.18.08.37.29,0,0-.07-.1-.04-.05,0,.01.02.02.02.04.04.05.07.1.1.16.04.08.03.07,0-.01.09.32.08.23.08.54,0,0,.03-.12,0-.07,0,.08-.04.16-.06.23.05-.19,0,.05-.05.09,0,.01-.03.03-.03.05l.04-.05s-.1.1-.13.13c-.14.12-.42.24-.81.21.24.05-.39-.12-.17-.06-.05-.04-.12-.05-.17-.1-.07-.04.08.08,0,0,0,0-.23-.25-.11-.11-.05-.06-.1-.13-.13-.2,0-.01,0-.03-.02-.04-.03-.05.03.09,0,.03-.03-.05-.11-.41-.08-.23-.05-.39.07-.71.17-.83.05-.05.09-.12.16-.16-.1.09.1-.08.04-.03.01,0,.26-.14.22-.12.3-.22.74.19.94-.1h0l.04-.02Zm3.76-10.8s-.06-.04-.08-.07l.08.14c-2.24-2.06-3.2,4.25-.12,3.32,1.88-.5,1.54-3.38-.39-3.49-.69-.02-.71,1.08,0,1.08-.19-.03.11.03.14.05l-.06-.03c.22.12.19.09.36.28,0,0,.03.04-.02-.02.03,0,.16.31.1.13,0,0,.02.07.03.07,0,.04.03.1.04.14,0,.09,0-.01,0-.04.01.04-.02.41,0,.22-.04.08-.04.18-.06.25.07-.19-.06.12-.12.16.12-.11-.1.09-.13.11.13-.1-.1.04-.14.08.18-.09-.32.07-.09.02-.05-.01-.17,0-.24,0-.1,0,.12.03,0,0-.08-.02-.16-.05-.25-.1.1.08-.02,0-.05-.05-.07-.06.04.07-.01-.02-.02-.03-.03-.06-.05-.09-.04-.06.03.11,0-.01-.02-.03-.09-.4-.07-.28-.08-.57.05-1.19.3-1.36.08-.06.17-.11.27-.16-.09.03.12-.03.13-.03-.03,0,.12-.01.15-.03-.04,0,.07-.01.06,0,.05.02.18-.16.14-.09l-.15.04c.15.06.36-.07.21-.22h.02Zm3.61-11.54c-2.84-.72-2.09,4.68.64,3.21,1.58-.84,1.01-3.24-.62-3.64-.95-.18-.74,1.12-.21,1.09.38.22.47.25.63.62t0-.03c.02.07.08.22.08.29,0-.19,0,.17,0,.22.06-.23-.12.41-.04.15-.02.06-.19.33-.1.2.02.05-.28.25-.13.14-.03.04-.28.14-.12.08-.08.01-.16.05-.24.06.2-.04-.15.02-.18,0,.24.07-.35-.11-.11-.03-.25-.14-.22-.11-.36-.38.06.14-.04-.21-.05-.24.01.14-.01-.31,0-.36-.05.22.1-.38.08-.25,0,0,.04-.09.05-.09.05-.13.3-.35.33-.38.19-.1.69-.28.38-.63h0l-.04-.03Zm3.47-11c0-.15-.23-.39-.26-.42-1.34-.85-2.16,1.11-1.95,2.22.04,2.11,3.01,1.84,3.29-.02.59-2.62-3.53-2.95-1.23-.93-.12-.17.13.19.13.24l-.03-.06s.1.39.07.22c0,.04,0,.41,0,.2.02.05-.13.4-.06.24-.01.09-.1.19-.15.26l.04-.05s-.27.25-.17.18c-.04.04-.11.06-.14.09-.03.02-.15.07-.03.03-.02.04-.31.06-.17.05-.04,0-.14,0-.18,0-.08,0,.13.03,0,0-.04,0-.2-.07-.06-.01-.04-.02-.1-.05-.13-.08.11.09-.04-.03-.05-.07.11.15-.07-.1-.07-.13-.08,0-.08-.93-.08-1.06.02-.13.05-.26.1-.39-.03.08,0,0,0-.02.01-.03.13-.22.07-.12.01-.03.21-.2.11-.11.02-.01.04-.02.05-.04.1-.06.05,0,.17-.06.02,0,.11-.01.02,0,.07,0,.15-.02.22-.02-.11,0,.06,0-.03,0h.08c.1.12.48.19.43-.13h0Z"/>
  <path d="m54.32,768.49c.74-1-1.15-1.25-1.53-.39-2.14,2.42,2.46,4.47,2.84,1.35.18-.91-1.34-2.75-2.02-1.56-.09.33.15.62.46.69-.29-.14.39.27.11.07.23.22.19.15.33.41.02.05.02.1,0-.02.12.45.13.43-.05.76.19-.23-.26.24-.05.06-.26.16-.15.12-.42.2-.05,0-.12,0,.03,0-.05.02-.49-.03-.23,0-.27-.06-.12-.02-.34-.13-.08-.05.09.08.02.02-.04-.03-.08-.07-.11-.11l.04.05s-.17-.32-.09-.13c-.04-.08-.04-.18-.07-.26v.07-.33.06c0-.12.05-.25.09-.36-.02.06-.03.06,0,.02.05-.12.12-.23.2-.33-.07.07.14-.17.2-.22.08-.08-.06.03.03-.03,0,0,.14-.07.07-.04,0,0,.12-.03.04-.02h.13c-.11-.02.05.02-.02,0,.02,0,.04.02.05.03-.05-.04.05.06.06.06,0,0,0-.02,0,0-.02-.02.03.05.04.05.04.07.13.09.2.05v-.02Zm-37.94,49.35c-.12-.09-.27-.21-.43-.21-4.16.18.04,6.03,1.63,1.86.36-2.87-3.64-1.65-1.34-.71-.13-.03-.07,0,.02.02.07.02-.13-.07-.03-.01.02,0,.18.11.05.02,0,.02.1.11.12.12l-.05-.06c.13.22.07.12.14.32.02.08,0-.15,0-.03,0,.16,0,.1-.05.3l.02-.04s-.21.31-.07.14c-.07.04-.11.16-.19.2,0,0-.03.03.03-.02-.05.03-.16.09-.2.12l.05-.02c-.07.03-.14.03-.21.06.16-.03,0,.02-.06,0,0,0-.07,0-.07,0-.11,0,.1.02.03,0-.07,0-.14-.04-.21-.04,0,0-.04-.03,0,0h.03c-.2-.09-.19-.09-.37-.29.07.12-.05-.12-.08-.15.04.07,0-.02-.01-.03-.03-.18-.06-.14-.04-.32-.04.22.08-.29.03-.11.01-.07.08-.16.13-.22-.07.08,0,.02.02-.02,0-.02.22-.2.11-.12.07-.05.16-.11.24-.14-.12.03.28-.06.33-.1.08-.04-.08,0,.02,0,.03,0,.06-.01.09-.02-.09.03.17-.01.13-.02.23,0,.35-.29.19-.45h0v-.03Zm3.87-8.86c-4.67,1.21,1.76,6.38,1.73,1.25-.36-2.12-3.86-1.61-1.37-.33.28.27.33.33.42.69-.03-.19.01.39,0,.16-.07.32-.11.38-.36.61.08-.07.03-.02.01-.01-.26.12-.15.11-.48.11.13.03-.12-.03-.16-.04-.12-.04.07.04-.04-.02-.05-.02-.26-.14-.15-.08-.14-.12-.28-.32-.31-.42-.04-.04-.06-.31-.07-.27,0-.16,0-.36.07-.51.03-.48,1.36-.79.7-1.15h.01Zm4.43-8.7c-1.07-1.14-1.96,1.01-1.6,1.92.49,1.68,2.62.68,2.77-.69.54-2.27-2.93-2.06-1.2-.79.03.02.09.04.11.07,0,0-.08-.07-.03-.02.03.02.15.19.05.05,0,.04.13.21.07.08.02.06.03.13.05.19-.02-.16.01.12,0,.17.05-.22-.11.38-.07.21-.05.12-.14.28-.23.37,0,0,.07-.09,0-.01-.2.22-.22.21-.4.27-.06.02.1,0,.03,0h-.07c-.06,0,.1.03,0,0-.17-.06-.02.04-.03,0-.02-.01-.11-.08-.05-.02.07.06-.03-.03-.04-.04-.07-.09.06.1,0-.02-.04-.05-.08-.18-.04-.05-.04-.03-.07-.43-.06-.21-.01-.16-.01-.4-.01-.57-.04.12.09-.42.08-.36.03-.1.16-.25.15-.24.02-.01.07-.04.09-.05-.06.03.14-.06.09-.03.05-.03.1-.06.14-.1l-.1.06c.13.05.44.05.32-.18h-.02Zm3.01-10.51c-1.62-1.1-2.34,1.82-1.32,2.75,2.71,1.84,3.93-3.5.79-3.53-.74,0-.65,1.16.08,1.06.13,0-.08-.02,0,0,.06.01.34.09.22.07.05.02.36.21.23.12.05.04.31.29.18.18.06.07.1.16.13.24-.04-.13.06.15.07.21.03.12,0-.08,0,0,.02.22-.04.45-.06.51,0,.03-.21.35-.13.24,0,.02-.26.25-.12.13-.02.02-.33.16-.16.1-.08.03-.14.05-.23.07.15.02-.08,0-.11,0,.12.02-.18-.03-.1-.02.09.05-.18-.12-.04-.02-.04-.03-.08-.07-.11-.11.08.1-.05-.1-.07-.13.03.07-.1-.36-.11-.46-.01-.03-.04-.51.03-.71,0,.03.06-.08.07-.1.01-.01.07-.07.12-.12-.04.03.06-.04.05-.03.2-.13.87.1.57-.42h0l.02-.03Zm3.94-23.9c-.44-1.57-2.05.2-1.86,1.18.09,2.35,3.55,1.8,3.31-.37-.02-.87-1.23-2.71-2.12-1.8-.24.43.13.78.49.96-.12-.09.17.14.19.17.01.01.22.24.12.13.17.25.22.34.28.61.02.1,0,0,0-.02,0,.06,0,.22,0,.28,0,.07.03-.09,0-.02,0,.02-.08.27-.04.18.04-.07-.21.35-.09.17-.12.15-.18.19-.26.25-.03.02-.18.08-.07.04-.05.03-.16.04-.21.07h.04c-.18,0-.11,0-.29-.04.14.08-.18-.12-.07-.04-.14-.13-.17-.15-.26-.34.03.07-.06-.2-.05-.26-.04-.17.13-1.02.46-1.1.02-.01-.23-.01.03,0-.18.16.44.4.44-.01h0l-.04-.04Z"/>
  <path d="m30.18,777.92c.01-.77-1.23-.71-1.62-.24-1.4,1.52.53,4.02,2.25,2.57,1.07-.65.56-3.56-.85-2.9-.3.31-.11.71.18.95-.15-.19.15.19.14.26-.08-.21.06.19.06.26.02.11,0-.14,0-.03.01.03-.02.5,0,.23-.07.27-.04.17-.16.37-.08.11.06-.06,0,0-.02.04-.25.2-.06.07-.23.14-.11.08-.38.16-.05,0-.12,0,.04,0h-.31.01c-.05.02-.29-.12-.09-.02-.05,0-.27-.19-.11-.05-.04-.04-.08-.09-.12-.12.09.07.05.07.02.02-.13-.19-.11-.18-.18-.46,0,.26,0-.56,0-.32,0-.05.1-.4.07-.26.1-.19.11-.2.22-.31l-.04.03s.1-.07.15-.08l-.04.02s.3-.07.2-.06h.13c.14.05.38.12.47-.08h.02Zm23.79-.21c-1.37-.35-2.59,1.44-1.78,2.6,1.03,1.17,3.28,0,3.37-1.43.3-2.21-2.97-2.02-1.33-.67.05.04.19.23.08.07.03.05.07.14.11.19-.08-.19.03.14.04.18-.02-.21,0,.17,0,.22.04-.2-.03.11-.06.16.11-.22-.16.25-.1.16.06-.07-.02.03-.03.03-.3.29-.55.43-1.08.54h-.24s.06.01,0-.02c0,0,.09.07,0,0-.06-.05-.02-.01,0,0-.02-.02-.11-.21-.05-.11-.03-.07-.04-.15-.05-.22,0,.18,0-.17,0-.19-.05.19.09-.36.06-.22.07-.14.15-.28.24-.4-.09.09.23-.24.17-.18.22-.24,1.2-.35.61-.75h0l.04.04Zm-41.43,50.69c3.34.49,8.23,1.58,11.59,2.25,3.91.88,7.81,1.93,11.5,3.52,1.24.53,2.33-1.27,1.07-1.83-2.11-1.37-27.01-8.85-24.15-3.93h-.01Zm4.57-1.98c7.61-1.62,15.56-2.12,23.32-1.99,6.62-4.8-25.2-.25-23.32,1.99Zm3.59-7.02c8.05-2.1,15.97-4.76,24.3-5.74,5.4-5.49-26.36,3.57-24.3,5.74h0Zm3.69-8.56c7.98-3.09,16.25-6.69,24.62-8.71,5.63-6.18-26.85,7.07-24.62,8.71Zm4.1-9.93c7.33-3.6,15.1-7.46,23-9.75,4.84-6.08-26.1,8.01-23,9.75Z"/>
  <path d="m32.12,790.17c6.37-4.67,13.82-8,21.4-10.1,3.7-4.88-10.71,1.54-12.02,2.44-1.45.8-11.06,7.03-9.37,7.66h-.01Zm1.37-11.76c1.23.6,2.63-.64,3.67-1.24,4.57-2.57,9.8-5.03,14.84-6.41,3.61-4.93-19.22,6.02-18.5,7.64h-.01Zm-.34,50.9c-1.03-1.24-18.6-15.93-16.01-9.15,0,0,8.28,4.83,8.28,4.83.97.46,7.97,6.22,7.73,4.33h0Zm3.35-8.14c-3.71-4.61-10.74-6.78-14.3-11.68-.77-1.08-2.57,0-1.78,1.04,1.9,2.53,4.54,4.2,7.15,5.92.87.35,9.33,6.13,8.94,4.71h0Zm3.3-11.75c-3.49-2.67-9.56-5.63-13.38-7.93-1.13-.63-2.14,1.12-1.01,1.73l6.9,3.65c1,.19,8.29,5.29,7.48,2.56h.01Zm3.74-10.72c-3.96-2.91-10.88-6.18-15.35-8.4-1.17-.52-2.18,1.2-1.01,1.73l8.02,3.73,3.99,1.93c.85.24,4.96,3.48,4.35,1.01h0Z"/>
  <path d="m45.61,786.91c-.68-.89-2.55-1.47-3.5-2.05-3.72-1.73-7.35-4.82-11.34-5.85-1.15-.26-1.64,1.5-.49,1.76,2.69.61,4.99,2.4,7.4,3.66,1.09.3,7.89,4.51,7.92,2.49h0Zm1.01-9.1c-1.33-1.97-4.75-3.95-6.53-5.56-.88-.25-7.72-7.07-8.68-5.61-1.92,1.26,6.94,6.16,7.29,6.9.73.25,8.2,5.91,7.93,4.25h0v.02Z"/>
  <path d="m30.63,767.66c2.38-1.25,29.04,6.1,22.77.3-6.9.66-17.77-3.63-22.77-.3Z"/>
  <path d="m41.67,766.62c-7.33-.06-13.13,8.68-14.58,15.29-.26,10.26,11.99,4.99,13.99-1.51,1.74-3.54,2.25-7.6,1.26-11.44-.37-1.44-2.6-.83-2.23.61,3.54,6.93-8.72,23.23-10.88,12.84,1.26-6.02,6.02-13.71,12.33-15.01.48.04.52-.66.11-.8h0v.02Z"/>
  <path d="m40.12,768.66c-2.99,15.11,15.74,28.09,13.85,10.07-.94-3.54-3.54-6.05-5.06-9.29-.61-1.3-2.54-.17-1.93,1.13,10.05,12.12,3.2,22.47-3.95,7.36-1.45-1.24-1.14-11.72-2.89-9.27h-.02Z"/>
  <path d="m14.72,797.34c4.77-11.79,11.87-24.44,24.76-28.57,1.24-.46.71-2.46-.55-2-12.61,3.91-24.01,19.3-24.2,30.58h-.01Zm47.64-6.65c3.9-2.37-19.03-29.52-17.52-21.06,6.99,5.55,13.66,14.29,17.51,21.08h0v-.02Zm-20.44-71.11c-1.44,13.1-5.8,25.62-11.2,37.59.99,6.66,8.33-16.5,9.07-18.12,1.04-2.37,5.39-20.81,2.12-19.46h.01Zm32.08-4.47c.14,12.2-.01,24.41-.87,36.59,2.61,3.7,2.22-7.48,2.52-8.88,0-3.05,1.71-30.37-1.65-27.71h0Zm59.82-15.23c-8.24,7.95-7.76,36.16-13.67,49.24,0,1.96-8.01,19.36-3.06,15.39,2.87-8.44,5.76-16.89,8.01-25.52,3.86-12.55,2.9-26.8,9.47-38.37.28-.45-.29-1.06-.75-.75h0Zm77.4,91.75c-6.77,21.82-29.54,22.33-45.84,10.45-8.75-8.07-16.97-17.08-27.77-22.78-7.01-4.04-14.87-6.65-20.59-12.61-1.07-1.12-2.7.55-1.69,1.69,8.26,8.65,20.77,11.25,29.94,18.78,7.45,4.32,12.08,11.73,18.78,16.8,9.92,5.85,22.44,11.55,33.73,6.18,7.23-3.16,13.58-10.33,14.49-18.35.07-.63-.83-.64-1.03-.14h0l-.02-.02Zm-1.93-8.21c1.61,11.46-13.28,16.98-22.62,17.37-18.41-1.63-29.16-19.18-43.17-29.06-1.71-1.76-27.87-16.28-23.08-9.18,24.5,7.04,35.6,27.98,56.86,38.32,10.89,6.07,38.16-2.67,32.98-17.86-.31-.56-1.1-.16-.99.42h.02Zm-89.94-18.01c1.95,2.78,7.73,4.56,10.5,6.5,15.46,6.61,26.43,19.35,38.81,30.18,1.14.93,2.77-.7,1.62-1.62-12.26-10.5-22.94-23.13-38.01-29.82-1.95-.54-12.26-7.58-12.92-5.25h0Zm43.04-50.73c-6.48,38.22,1.25,43.48,30.5,64.16,1.03.77,2.03-.97,1.01-1.73-17.3-12.97-33.75-20.38-31.79-45.36-.57-3.01,3.18-17.11.29-17.07h0Z"/>
  <path d="m180.39,799.74c4.04-10.28,10.19-21.37,21.9-24.01,1.25-.31.72-2.24-.53-1.93-10.88,2.48-22.56,15.7-21.37,25.94h0Zm-45.44-98.56c2.15,7.7,11.58,9.68,18.26,11.6,1.63.43,11.8,3.95,8.63-.16-7.89-2.28-17.97-2.74-23.89-9.13-.72-.25-2.96-3.78-3.01-2.31h0Zm26.96,10.36c.78-.92,1.51-1.9,2.79-2.24,1.14-.51,2.38-1.66,3.69-1.33,2.47.75,5.24,2.57,5.33,5.37,3.3,4.37,3.08-6.16-5.2-7.51-1.86-.82-10.84,4.73-6.61,5.71Z"/>
  <path d="m174.66,713.46c-3.08,30.14-2.38,39.32,23.53,56.87,4.51,3.15,10.59,7.21,10.87,13.58.07,1.52,2.44,1.53,2.38,0-.9-11.32-13.44-15.39-20.8-22.08-22.63-15.94-11.43-28.72-15.99-48.36h0Zm-36.43,13.15c-9.34-1.56-14.97,13.5-7.96,19.47,7.28,7.53,18.09-.98,16.87-9.91-.11-11.17-15.81-11.95-10.06-7.53,12.89.27,7.22,23.56-4.26,16.5-6.99-4.51-2.63-16.85,5.22-17.15.84.01.89-1.11.19-1.38h0Zm46.36,49.43c-4.81-1.63-2.64,6.89.74,2.77,1.22-2.21-2.53-3.82-.9-1.35,0,.01.04.09,0,0,.03.07.07.24.09.32-.02-.1,0,.25,0,.29.02-.16-.04.19-.07.21.08-.16-.18.32-.09.15-.07.08-.14.16-.22.22-.15.13-.69.19-.82.08-.09-.05-.18-.1-.26-.16.14.12-.26-.25-.12-.12-.03-.02-.17-.28-.12-.19-.1-.21-.08-.48-.08-.53.05-.3.09-.36.24-.61-.07.08.31-.31.26-.25.08-.05.24-.15.32-.19.19-.15,1.4-.1,1.05-.66h0l-.02.02Zm-6.81-4.77c-.75-.87-2.23.05-2.38,1.03-.45,2.27,2.98,3.05,3.62.84.89-2.65-3.36-2.35-1.27-1.05-.09,0,.03.01.04.01.06.01,0,.04-.02-.01,0,0,.05.03.07.03.02,0,.08.07.02,0,.05.02.07.07.11.11.08.08-.04-.08,0,.01,0,.03.03.06.05.08.03.06-.03-.12,0,0,0,.04.06.22.02.08.02.04.02.18,0,.22.05-.18-.04.16-.05.18.05-.07-.18.31-.12.22.05-.07-.02.03-.03.03-.17.17-.15.14-.39.28.09-.04-.19.05-.22.06.07-.04.09,0,0,0-.22,0-.13,0-.38-.08.21.11-.32-.21-.14-.08-.06-.03-.25-.27-.18-.16-.02-.04-.22-.32-.1-.15-.09-.24-.06-.16-.07-.4,0-.1,0,.03,0,.03.02-.06.02-.18.07-.23l-.02.06c.11-.22.09-.18.29-.36.03-.02.02,0-.03.03.03-.04.54-.29.4-.24.05-.02.29-.09.23-.07.26,0,.64-.18.48-.49h0v.02Zm-7.4-6.23v-.03l-.06.15c.49-1.05-1.33-.87-1.68-.2-2.18,2.45,2.48,4.61,2.99,1.41.02-2.76-3.7-1.38-1.36-.58,0,0,.04.03,0,0h-.03s.09.03.12.06c.09.06-.03-.02-.02-.02.22.22.16.15.26.41,0-.25-.02.32,0,.08-.02.05-.04.12-.04.18-.03.05-.02.05,0-.03-.02.05-.04.1-.08.15-.1.13-.16.22-.42.33.15-.06-.09.03-.13.03-.08.02-.16.02-.32.02.1.01.02,0,0,0-.14-.04-.02,0-.2-.08-.06-.08-.19-.15-.26-.37.06.18-.03-.13-.05-.16-.03-.11,0,.09,0,.01,0-.02,0-.34,0-.18,0-.05.09-.38.06-.26.05-.12.11-.23.2-.33,0-.01.09-.12.02-.03.08-.11.19-.22.3-.3-.08.04.05-.03.08-.04.08-.05-.07.01,0,0,.02-.01.29-.06.16-.04.03,0,.13,0,.02,0h.16c-.17,0,.09.03.14-.01l-.24-.1c.12.18.37.14.39-.08h0Zm-7.14-7.59c-2.87-2.19-3.25,4.56.44,2.38,1.25-.89-.14-3.68-1.44-2.64-.31.53.26.83.64,1.04l-.06-.05c.06.01.24.3.11.08.04.03.17.35.08.1.03.07.05.16.07.24-.05-.23.02-.02,0,.04.01.05-.03.26,0,.04-.1.36-.05.2-.23.45.14-.14-.05.05-.1.05-.09.05.12-.04.02,0-.05.02-.14.03-.19.05-.1.02.13,0,.03,0-.03.02-.38-.03-.15,0-.08.01-.17-.05-.25-.05l.07.03c-.06-.02-.14-.07-.19-.11l.06.04c-.17-.17-.12-.1-.24-.32l.03.06c-.03-.08-.07-.19-.06-.28.03.14,0,.05,0,.01,0-.25,0-.16.06-.41l-.03.06c.03-.07.09-.13.12-.19l-.02.03c.07-.08.15-.15.22-.22-.14.11.16-.12.2-.1l-.04.02c.13-.05.32-.08.45-.12-.02,0,.41-.05.37-.24h0l.03.02Zm-5.47-11.61c.13-1.14-1.31-.57-1.74.01-2.16,1.81,1.46,4.28,2.77,2.14.55-1.05-.19-2.78-1.4-2.93-1.37-.1-.86,2.04.17,1.01-.04.06-.08.08-.14.12h-.04c.06,0,.04,0-.05.01h.07s-.14-.03-.05,0c-.12-.04-.06-.02-.02,0,.11.06-.04-.06,0,0s.1.11.15.16c-.04-.05.24.35.3.51-.03-.12,0,0,0,.03.05.23.06.16.05.43.05-.18-.02.08-.03.12-.02.07.05-.09,0-.02-.02.04-.11.18-.04.07l-.06.06c-.08.1.06-.03,0,0-.03.01-.22.15-.07.05-.31.1-.29.07-.6.08-.13-.01,0,.01,0,0-.01.04-.51-.14-.29-.07-.28-.16-.26-.14-.4-.36.06.2-.06-.25-.02-.08v-.13c0,.06.02-.16.06-.2-.03.1,0,.01,0-.01.19-.38.59-.84.9-1.03.01-.01.26.01.09-.02-.15-.03.09.06-.02,0,.06.19.29.17.36,0h0l.05.06Z"/>
  <path d="m157.5,732.65c-1.01-1.39-3.05.51-2.24,1.85.6,1.28,2.71,1.12,3.06-.27.71-1.72-2.31-2.9-1.29-1.01,0,0,.08.08.09.08.11.16.1.04.19.44l-.02-.14c.01.11.01.23,0,.34l.02-.14c-.12.44-.13.42-.59.55l.14-.02c-.11.01-.23.01-.34,0l.14.02c-.09,0-.19-.03-.28-.07-.05-.01.13.06.05.02-.22-.13-.09-.04-.28-.21l.04.05s-.11-.21-.06-.1c.05.12-.02-.08-.02-.1-.02-.05-.02-.23-.02-.01-.01-.05.03-.47,0-.19.02-.09.04-.2.08-.28l-.03.07c.14-.34.25-.36.43-.47,0,0,.06-.02.07-.03.21-.08.9.09.85-.37h.01Zm-.04-12.09c-4.95-.71.07,5.92,1.42,1.45.23-2.3-3.3-1.88-1.41-.58.04.01.1.07.14.08,0,0-.1-.09-.04-.03.15.17.07.06.19.28-.1-.18.02.05,0,.11,0-.3-.02.3,0,.03,0,.03-.08.27-.03.16.05-.09,0,.01-.02.03-.02.08-.1.14-.03.06-.03.03-.13.14-.17.18.17-.14-.15.11-.18.1.18-.09-.14.05-.17.04,0,0,.14-.01.04,0-.04,0-.31,0-.14,0-.02,0-.18-.05-.2-.04,0,0-.04-.03,0,0h.03c-.25-.1-.23-.13-.43-.31l.04.05c-.04-.06-.1-.15-.13-.22.04.07,0-.04-.02-.04,0-.01-.08-.36-.05-.21,0-.14-.02-.04.02-.19.02-.09-.04.06,0,.01.01-.03.04-.08.06-.11-.05.07,0,0,.04-.04.07-.07,0-.02,0,0,.07-.07.2-.12.28-.18.08-.05.25-.09.33-.13.23-.05.85-.22.42-.49h0Zm26,56.57c-1.15,3.3,5.57-3.62,6.86-3.7.97-1.22,11.39-3.74,6.91-4.96-5.35,1.59-10.53,4.65-13.97,9.09l.76.21c.09-.35-.13-1.14-.55-.64h-.01Zm3.04-4.79c1.02-2.62,3.29-5.93,4.8-8.33-.12-5.92-7.1,9.74-4.79,8.34h-.01Zm-6.33-4.66c-.05-1.61,7.38-12.55,2.8-9.97-1.06,1.59-4.76,9.64-2.81,9.97h.01Zm-7.01-5.85c1.68-2.96,1.99-6.91,4.28-9.68-.77-5.23-4.91,5.21-4.58,6.87.1.69-.81,2.84.3,2.81Zm-6.84-7.92c-.34-.05-.48.43-.24.64.52.34.82-.47.98-.86,1.42-3.28,3.22-6.73,5.66-9.37.17-5.45-7.33,8.18-6.58,9.74l.37.05-.05-.05.08.3v-.07c-.09.08-.18.15-.28.22.42.04.46-.55.05-.6h0Zm-3.91-9.18c.98-.17,1.8-1.88,2.55-2.5,0,0,2.82-2.91,2.82-2.91.67-1.38,10.15-6.18,5.49-6.3-2.79,1.53-11.8,8.71-10.86,11.72h0Zm-.75-12.08c3.41-4.76,7.99-8.69,12.84-11.95,1.64-4.63-7.21,3.17-8.04,4.25-.75.82-6.68,7.96-4.82,7.69h.02Z"/>
  <path d="m171.83,744.45c.71-.07,1.63-1.18,1.77-1.43.31-.42.93-.94,1.1-1.05.86-.35.98-1.65-.06-1.84-1.06.06-1.81,1.24-2.29,2.09-.16.3-.39.98-.45,1.15-.18.36-.77,1.07-.07,1.08Zm22.86,23.15c-1.25-1.43-22.53,5.12-17.52,6.06,2.75-1.11,9.99-4.04,12.68-4.99,1.48-.52,3.13-.99,4.67-.5.37.11.52-.46.16-.57h0Zm-5.96-5.54c-1.61-.41-24.36,2.28-18.43,4.8,5.47-3.41,12.18-3.68,18.43-4.2.38-.03.38-.62,0-.59h0Zm-4.94-4.25c-6.6.09-14.34-1.34-21.16-.29-1.11.23-.62,2.04.47,1.7,3.17-.99,6.75-1.26,10.07-1.16-.15-.28,12.68,1.07,10.62-.25h0Zm-5.07-6.21c-2.41-2.07-7.13-3.3-10.06-4.48-1.61-.57-15.81-3.07-11.3.7,7.27-.16,14.33,1.77,20.99,4.44.37.09.7-.39.39-.67h-.02Z"/>
  <path d="m173.78,740.58c-.46-2.73-20.33-11.49-16.45-6.13,5.79,1.06,11.36,3.1,15.95,6.77.39.25.82-.31.49-.64h0Zm-.29-12.75c-.53-1.78-21.09-10.74-16.45-5.37,4.17.33,8.46,2.63,12.33,4.09.85.2,4.22,2.97,4.11,1.29h0Z"/>
  <path d="m157.39,722.18c1.65-1.11,19.8-.04,16.06-2.15-5.44.24-10.84.74-16.22,1.57-.38.06-.21.63.16.57h0Z"/>
  <path d="m168.77,720.38c-6.37,3.93-13.28,9.09-15.17,16.71-.75,3.83,3.21,6.23,6.34,3.92,6.93-3.67,10.55-12.11,8.78-19.69-.27-1.25-2.25-.72-1.93.53,1.98,7.28-2.16,15.88-9.52,18.09-6.75-3.31,8.39-16.49,12-18.73.49-.36.05-1.18-.49-.84h0Z"/>
  <path d="m166.96,720.76l1.3,10.36c1.02,12.27,15.88,13.49,10.34-.97-.23-1.56-8.07-14.04-7.51-7.88,2.19,2.67,4.5,5.43,5.72,8.72.55,1.49,2.18,8.85-1.16,7.81-3.4-.9-5.28-4.09-5.66-7.41-.79-1.29-1.29-13.27-3-10.64h-.03Z"/>
  <path d="m145.98,748.13c4.09-11.75,11.99-21.67,23.28-27.16.96-.58.08-2.09-.88-1.5-11.63,5.74-19.19,16.29-22.98,28.51-.13.36.44.51.57.16h0Z"/>
  <path d="m193.12,744.31c.16-4.7-11.25-19.67-15.78-21.31-1.59-.56-14.27-7.34-10.37-1.93,10.36,3.72,14.28,5.92,20.05,15.43,2.04,2.44,4.03,4.86,5,7.94.19.61,1.08.49,1.1-.15h0v.02Zm-21.12-44.21c-.25-.03.85-8.6-.5-6.89-1.12,4.01-2.71,11.48-.01,14.66,2.12-.86-.08-5.68.52-7.77h-.01Zm-33.76-9.3c-.87-1.27-1.63,4.5-1.94,5.01-.05,1.3-3.25,8.12.08,5.63,1.16-3.39,2.33-7.05,1.87-10.65h-.01Z"/>
  <g>
    <path class="cls-6" d="m158.31,38.28c-71.45-7.73-44.24,136.21-43.93,179.06,0,0,.35,4.46.35,4.46.15,1.91,3.15,1.93,3,0-1.99-50.55-13.37-109.06,3.24-157.92,13.71-33.57,44.7-18.11,37.33-25.6h0Zm1.43-4.47c-77.7-8.18-49.61,138.08-49.07,184.99,0,0,.35,4.76.35,4.76.14,1.91,3.14,1.93,3,0-1.47-49.74-16.69-128.44,9.13-171.99,15.61-22.38,43.76-11.18,36.58-17.75h.01Z"/>
    <path class="cls-6" d="m160.52,29.85c-81.86-9.44-56.31,132.23-53.43,181.33,0,0,.74,7.27.74,7.27.2,1.9,3.2,1.92,3,0-3.16-48.22-19.11-134.09,12.24-174.07,18.64-19.34,44.42-7.77,37.46-14.53h0Zm1.31-3.69c-30.98-5.51-56.47,18.37-59.39,48.48-8.29,47.51-5.2,95.87-.59,143.6,0,0,.86,8.33.86,8.33.2,1.9,3.2,1.92,3,0-4.97-55.43-11.2-113.16,3.86-167.51,6.75-20.92,30.06-33.92,51.46-30.03,1.89.32,2.7-2.56.8-2.89h0v.02Z"/>
    <path class="cls-6" d="m163.35,22.22c-41.29-6.51-64.18,24.88-66.19,62.96-7.51,41.32-2.4,91.79,2.25,133.51,0,0,.65,6.65.65,6.65.19,1.9,3.19,1.92,3,0-4.07-41.06-10.62-89.67-4.16-130.49,2.27-16.07,3.05-32.3,11.19-46.52,10.51-17.44,32.45-27.33,52.45-23.22,1.88.39,2.69-2.5.8-2.89h0Zm-.98,19.99c23.72,8.59,17.9,46.44,19.38,66.84,1.05,33.55-1.71,78.5-3.44,112.34,0,0-.49,7.79-.49,7.79-.12,1.93,2.88,1.92,3,0,1.85-33.82,4.88-84.97,3.96-118.56-1.37-21.43,3.81-54.4-15.71-68.6-1.85-1.13-3.84-2.01-5.88-2.72-1.83-.63-2.61,2.26-.8,2.89l-.02.02Zm1.14-3.56c37.04,5.88,18.69,149.26,20.13,181.67,0,0-.29,7.59-.29,7.59-.07,1.93,2.93,1.93,3,0-1.23-35.45,16.44-176.68-17.19-190.16-1.56-.79-3.18-1.45-4.84-2-1.84-.6-2.63,2.29-.8,2.89h0Zm1.57-4.19c27.31,11.93,22.35,51.56,24.6,76.24.41,31.94-.84,78.35-.12,110.58,0,0,.09,7.12.09,7.12.02,1.93,3.02,1.93,3,0-1.47-47.99,2.34-104.51-1.87-152.08-2.23-17.28-6.39-38.17-24.91-44.73-1.79-.73-2.56,2.17-.8,2.89v-.02Zm.45-4.61c28.66,12.88,25.19,49.35,27.86,75.5-.06,34.91.44,79.67,1.86,114.95,0,0,.25,7.13.25,7.13.07,1.92,3.07,1.93,3,0-3.04-50.9.55-109.65-5.31-160.02-2.09-16.5-10.19-33.26-26.14-40.18-1.74-.81-3.27,1.78-1.51,2.59v.03Zm1.17-4.08c30.7,14.73,29.93,54.36,30.87,83.72.43,34.3.58,75.67,3.1,109.77,0,0,.44,6.34.44,6.34.14,1.91,3.14,1.93,3,0-5.33-51.83.18-105.19-6.73-156.79-2.3-18.49-11.35-37.7-29.18-45.62-1.75-.79-3.27,1.79-1.51,2.59h0Z"/>
  </g>
  <path d="m150.45,85.32c-1.18.8-.33,12.14,1.31,8.98-1.02-2.55-1.37-5.36-1.04-8.09.02-.25.17-1.05-.27-.88h0Zm26.84-4.56c-2.55-5.82-9.53-9.39-15.77-9.75-1.48.19-5-.74-4.94,1.46.76,1.53,2.98.14,4.35.48,5.72.02,11.35,2.65,14.99,7.08.3.38.93,1.4,1.38.73h-.01Zm-52.65-15.47c8.44-2.11,17.8-.48,24.03,5.95.89.87,2.34-.52,1.41-1.41-5.32-5.77-20.24-9.93-25.45-4.53h0Zm17.13,29.64c-3.97-1.81-5.84,4.44-2.05,5.88.86.34,1.81.16,2.7.25,2.23.08,3.66,2.29,5.92,2.09,1.91-.45,3.88.29,5.75-.16,2.71-1.22,2-5.17-.72-5.88-.81-.29-1.15,1-.35,1.28s1.53.96,1.55,1.85c-.31,3.1-4.07.86-6.02,1.65-2.49.13-4.2-2.47-6.85-2.08-1.73.41-3.45-1.26-2.88-2.99.18-1.51,3.59-.96,2.94-1.89h.01Zm13.51-11.6c.65,3.77,20.85,6.29,17.72,3.33-6.12.86-12.93-.28-17.71-3.34h-.01Z"/>
  <path d="m155.28,83.18c7.56-7.9,12.2-1.51,18.34,3.73,2.99.04-3.69-3.89-3.96-5.07-3.26-4.99-13.34-4.42-14.36,1.34h-.02Zm-10.83-1.68c-6.81.01-13.63-2.08-18.54-7-3.97-.18,5.33,5.55,6.43,5.78,2.44,1.14,11.04,3.58,12.11,1.21h0Z"/>
  <path d="m145.32,81.31c.43-9.15-10.14-11.08-16.95-7.96-.87.36-5.63-.6-3.48,1.14,10.48-.25,15.24-5.59,20.41,6.81h.02Zm10.66,32.62c-3.5-.73-5.37-5.56-9.46-4.18-.63.16-.97-.07-1.42-.45-3.26-1.73-7.03.76-10.43.72,0,0-4.07-.23-4.07-.23-.54-.05-.54.8,0,.84,1.45.05,4.38.44,5.77.13,1.45-.2,6.03-1.45,7.44-1.08,1.17.33,1.74,1.41,3.07.9,1.07-.33,2.2,0,3.19.45,2.07.99,3.24,3.48,5.85,3.4.28.02.33-.41.07-.48h0v-.02Zm-1.96.72c-3.72.81-6.44-1.74-9.87-2.38-3.43.17-6.84.5-10.17-.67-.37-.11-.53.47-.16.58,4.19,1.91,8.87-.29,12.94,1.48,1.88,1.31,5.55,2.46,7.26,1.01h0v-.02Z"/>
  <path d="m155.57,114.99c-7.18,5.97-19.62,2.33-25-4.61-.29-.39-.96,0-.66.39,4.64,6.83,21.1,11.97,25.67,4.22h0Zm-7.74-27.28c-.85,1.7-1.45,3.89-3.46,4.79-.84,3.63,5.31-3.82,3.45-4.78h0Z"/>
</svg>