<?xml version="1.0" encoding="UTF-8"?>
<svg id="Ebene_1" data-name="Ebene 1" xmlns="http://www.w3.org/2000/svg" viewBox="0 0 259.95 947.42">
  <defs>
    <style>
      .cls-1 {
        fill: #f15a24;
      }

      .cls-2 {
        fill: #e6e6e6;
      }

      .cls-3 {
        fill: red;
      }

      .cls-4 {
        fill: #743f22;
      }

      .cls-5 {
        fill: #09f;
      }

      .cls-6 {
        fill: #42210b;
      }

      .cls-7 {
        fill: #603813;
      }

      .cls-8 {
        fill: #754c24;
      }

      .cls-9 {
        opacity: .5;
      }

      .cls-9, .cls-10 {
        fill: #1b1464;
        isolation: isolate;
      }

      .cls-10 {
        opacity: .49;
      }
    </style>
  </defs>
  <path class="cls-5" d="m244.42,486.26c-6.62-23.78-28.15-62.85-34.6-72.05-2.02-1-7.27-15.26-4.69-20.53-3.64-1.53-12.36-.62-13.79.22-9.5,1.05-46.49,9.31-63.1,12.64-4.59,6.99-11.25,13.87-21.25,10.17-2.61,3.44-9.53,7.51-12.99,8.21-46.25,68.52,4.59,135.88,42.67,211.44-15.84,19.33-31.19,45.73-39.91,67.45-.81-4.23-6.84,5.18-8.97,8.01h0c9.89,17.74,25.54,32.15,44.05,40.52l4.71-7.34c.15.24.41.47.89.61l2.63-5.61h.11c-2.25,15.42-7.18,37.21-6.18,52.82l-1.36-.23c-4.42,4.12-4.27,12.36-3.43,15.24,20.49,13.95,45.05,21.73,69.83,22.15.1-.74,2.62-5.9,1.98-6.5.24-1.82,2.32-6.36-.29-6.85-.4-.52-1.09-.47-1.53-.06-.06-.1-.17-.16-.26-.21,7.28-44.06,30.68-90.52,32.02-128.01-.95-17.04-3.63-27.54-7.49-42.1,8.97-42.1,29.28-125.52,20.97-159.99h-.02Z"/>
  <path class="cls-8" d="m104.42,734.23c-3.87-3.64-7.01-7.26-9.54-10.56l-11.13,11.08c4.88,6.71,21.97,22.76,23.84,19.72,1.53-4.93,8.26-7.2,11.18-2.15l1.84-2.43c.06.05.81-.75,2.28-2.4-5.35-2.88-11.91-7.11-18.48-13.28v.02Zm46.34,85.41c-4.63-1.92-9.15-4.08-13.56-6.46-1.45,9.49-5.37,20.95-9.48,28.72,1.81,5.11,15.13,13.42,20.07,12.92.24-5.26,10.54-13.2,15.29-4.8,1.01-7.99,4.3-17.01,8.42-23.53-7.07-1.78-14-4.07-20.73-6.86h-.01Z"/>
  <path class="cls-3" d="m134.81,812.5l-5.6-4.65c-1.33-2.7-.61-9.1.65-10.89-4.88-3.02-13.45-13.3-15.21-21.83,0,0,3.73-16.97,3.73-16.97,1.18-2.5.51-5.46-1.54-7.11-3.13-2.96-8.87-.07-9.34,3.08-11.42-2.77-17.4-11.72-25.26-21.6-1.02.06-1.6,2.4-2.05,3.82-.84,2.63-2.58,6.31-6.61,10.48-7.3,9.76-14.68,22.89-20.45,33.68,13.77,16.54,40.08,28.32,67.27,42.67.99-5.84,11.82-11.35,14.42-10.68h0Zm68.67,97.79c-15.09-9.65-40.96-28.46-39.88-46.98.06-5.62,1.23-7.89-.28-11.12-2.44-6.57-12.45-7.83-15.12,2.2-9.87,1.92-17.42-7.41-21.88-14.61-1.06,8.25-6.44,17.61-10.87,26.23-4.39,10.33-6.32,19.16-7.8,28.19,29.04,31.97,55.38,39.84,78.78,44.92.06-11.77,6.76-23.13,17.06-28.83h0Z"/>
  <path class="cls-2" d="m90.98,759.4c-6.09-11.17-26.03-4.94-21.72,8.84,5.97,16.13,27.34,5.06,21.73-8.84h-.01Zm45.76,53.87c-6.39-2.2-15.01,6.64-16.89,10.3-18.36-9.41-47.2-21.6-66.74-43.07l-3.51,8.37c9.33,9.71,16.7,14.87,32.12,23.36,32.25,18.33,23.83,14.79,49.1,24.39,2.55-5.81,8.2-24.11,5.93-23.34,0,0,0-.01,0-.01Zm-21.53,11.27c.73.27,1.47.53,2.22.77-.56.12-1.75-.49-2.24-.73,0-.01.01-.03.02-.04Zm106.27,101.44c-3.8-7.33-10.58-12.98-18.46-15.43-6.75,2.79-17.5,18.96-16.6,28.56-35.08-5.44-59-23.08-78.79-44.91l-4.51,8.63c5.96,8.02,58.24,51.99,90.16,42.34,10.79-1.16,29.48-5.1,28.19-19.18h.01Z"/>
  <path class="cls-1" d="m242.82,174.14c-1-4.6-2.36-9.12-4.05-13.52-4.23,4.86-9.9,9.45-15.36,12.52-5.39-7.48-11.39-24.85-11.75-34.08-.03-2.25-.21-4.75-.96-4.89-.95-.18-2.1,3.46-3.75,6.54-1.68,5.68-22.43,19.25-30.15,23.9-16.41,11.39-42.6,39.24-48.92,47.29-2.07-.97-4.42-1.35-6.69-1.08l-.06,5.25c5.75,2.11,7.19,10.67,10.51,15.38,11.63,28.5,8.34,17.4,12.32,35.91,10.12-.67,13.91-1.27,24.06.64,5.06,1.3,7.81,2.22,7.81,5.87-.92,3.44-11.67,3.42-13.55,3.41-9.37-1.55-14.49,2.04-19.85,7.62,7.62-3.34,19.36-6.99,26.84-4.07.56,0,3.85.07,6.02,2.63,2.85,3.56,3.17,13.62-3.44,9.52,4.59,4.2,4.23,13.06-2.07,14.54.22,1.48.34,3.85-.8,6.21-1.26,2.14-10.6,11.36-11.58,10.68-4.68.76-4.74-1.33-3.48-4.26-.24-.18-1.5.86-5.04,4.82-4.91,6.95-15.65,16.37-24.8,20.65-13.86,10.79-25.02,24.24-34.58,43.45.7,4.98.82,10.02.36,15.02-1.15,12.43-5.35,17.98-2.7,20.44,3.37,3.34,15.4-2.27,19.75-7.85,7.57,3.18,16.02-3.89,20.51-9.54,23.29-5.77,51.07-14.11,75.78-13.8,3.79,1,5.6,2.84,8.18.46,5.08-5.99-.32-22.16-.79-30.14-3.21-14.19-.49-16.26-2.84-35.54-3.69-24.17-11.99-59.01-22.26-87.12,23.67-8.66,29.87-22.95,55.29-34.4,5.07.88,4.05-4.52,4.23-7.77.08-5.03.17-13.94-2.17-24.7h-.02Z"/>
  <path class="cls-8" d="m257.14,138.15c4.28-7.78-3.12-29.34-10.75-38.72-7.67-10.73-23.29-40.78-29.98-55.3,8.02-9.11-3.06-41.71-20.55-39.66-.43-4.04-5.59-5.61-9.33-2.8-2.46-1.66-9.62-.29-10.84,1.26-2.99-1.02-8.04,2.83-7.52,6.36-1.47-6.89-9.48-6.68-8.98-.23-.73,18.62,2.62,40.06,24.14,44.24,7.72,17.9,12.16,33.06,17.71,49.52,1.94,8.31,6.46,18.83,12.94,25.81-5.6,14.78,4.43,37.8,13.77,51.18,8.8-11.29,23.93-28.25,29.4-41.65h0Zm-81.45,145.96c-10.79-7.47-24.14-2.3-32.86,1.31l-.09-.29c2.47-2.61,6.89-5.95,10.04-7.6,7.65.2,20.87,2.7,22.91-4.38-4.08-6.62-23.13-6.27-32.01-5.32-4.01-18.69-13.6-39.66-20.81-50.55l-1.78-.77-.66-8.28c9.18-3.46,13.18-12.28,14.89-23.15,3.24-14.3,4.18-13.05,5.41-20.28,1.92-11.29,5.2-29.64-5.66-42.39-9.24-11.97-32.58-18.65-43.12-4.51-27.06,39.76-10.85,77.02-19.8,110.86,1.56,12.38,6.2,13.85,23.73,27.41,15.31,11.63,20.26,15.83,33.1,21.89-3.57,2.23-6.81,5.28-8.61,9.1-.76.23-2.4,3.44-1.78,4.11-2.82,7.05-10.28,15.51-17.01,21.34-15.58,20.08-26.25,35.37-47.24,53.27-8.09,8.41-20.62,16.15-28.51,25.09-4.74,8.66-2.56,39.58,25.83,40.94,29.72-3.22,22.42-18.96,40.47-48.4,8.37-13.04,11.33-17.79,21.83-28.72,5.48-5.64,9.96-8.72,17.33-12.65,3.16-1.4,17.43-15.27,23.08-22.73-5.84,15.51,18.68-4.3,15.35-11.44,7.04-1.74,5.57-12.16,1.5-14.6,7.18,4.41,7.07-4.86,4.43-9.26h.04Z"/>
  <path class="cls-1" d="m126.58,276.65c-11.02-7.83-36.96-22.26-44.76-31.06-4.2-5.05-7.73-9.08-8.95-14.32-.82-1.44-.16-5.07-1.6-5.56-1.57-3.41-5.05,10.61-4.12,11.78-21.63,9.55-33.55,14.45-52.12,38.2C-.99,303.83-1.63,364.89,3.05,406.14c6.21,3.17,15.61,4.18,21.83,2.77-5.81-21.54,9.23-26.51,23.53-36.78,8.96-8.67,14.43-15.53,23.29-23.31,20.14-17.58,20.84-30.49,41.43-48.7,3.82-6.79,8.66-18.62,15.61-22.64l-2.18-.85.02.02Z"/>
  <path class="cls-7" d="m157.49,170.2c-10.17-43.97-3.95-55.42-27.34-80.24-17.35-13.67-42.22-12.27-63.32,8.61-33.3,40.14-30.5,98.83-27.8,152.3,7.04-.8,21.83-7.53,28.39-16.04-.35-1.34,2.03-8.13,6.02-8.93,5.57,8.75,3.47-9.21,3.78-24.84.44-1.6.73-46.72,6.61-62.36,4.04-14.48,9.61-26.65,30.59-26.7,16.38,2.99,25.8,22.55,28.48,37.84.78,7.36-1.19,8.23-5.81,28.2-3.66,17.54-5.05,24.11-16.98,30.5l.87,2.6,6.52.6c7.96-8.03,24.01-24.7,31.82-32.96l-1.85-8.57h.02Z"/>
  <path class="cls-2" d="m136.63,160.01c-1.64-1.13-7.85-5.43-7.97-5.13-3.71-1.68-9.18,1.85-9.43,5.59,4.38,3.55,14.85,2.14,17.41-.45h0Z"/>
  <path class="cls-6" d="m123.76,157.62c.15-3.51,6.17-3.17,8.06-1.38,3.95,7.33-9.28,9.67-8.05,1.38h0Z"/>
  <path d="m128.11,156.45c2.82-.04,2.82,4.38,0,4.34-2.82.04-2.82-4.38,0-4.34Z"/>
  <g>
    <path class="cls-2" d="m130.55,157.07c.35,0,.35.55,0,.54-.35,0-.35-.55,0-.54Z"/>
    <path class="cls-2" d="m86.36,155.9c9.1-3.78,18.55-7.22,22.53,3.12-7.52,4.77-17.22.61-22.53-3.13h0Z"/>
  </g>
  <path class="cls-6" d="m96.38,156.59c1,5.61,9.17,4.82,8.82-.99-.7-5.43-9.38-5.01-8.82,1h0Z"/>
  <path d="m100.81,154.02c2.82-.04,2.82,4.38,0,4.34-2.82.04-2.82-4.38,0-4.34Z"/>
  <path class="cls-2" d="m102.57,153.3c.35,0,.35.55,0,.54-.35,0-.35-.55,0-.54Z"/>
  <path class="cls-4" d="m104.63,197.14c4.56,3.31,18.09,5.07,18.85-7.03-5.99-.18-5.43,1.37-9.35,1.72-2.15-2.03-9.81-1.76-15.55-.63.92,1.48,2.79,4.06,6.06,5.94h-.01Z"/>
  <g>
    <path class="cls-10" d="m45.42,374.37c-9.45,6.61-20.86,16.14-29.2,24.47-4.86,4.75-15.75,5.77-4.92,9.64,3.71-.4,11.23,2.72,12.76-.97-4.17-9.44,10.81-19.74,19.12-28.14,0,0,2.25-5,2.25-5h-.01Zm116.84-59.04c2.62-6.33-9.42,1.83-8.74,6.82,1.06,5.55,4.24.28,8.74-6.83h0Zm9.14-9.19c-2.87-7.74-14.65-6.95-19.48-1.7,18.81-8.16,15.35,7.31,19.47,1.7h.01Zm2.46-14.04c-8.61-10.13-17.88-2.78-28.2,2.92,4.95-2.82,15.46-5.58,21.33-5.49,3.88,2.98,9.9,7.41,6.87,2.57Zm.9-17.17c-21.93,1.52-22.46-6.61-38.8,13.35,5.85-1.89,10.3-6.84,16.25-10.97,4.19,0,12.65-.21,16.84-.39,0,0,5.72-1.99,5.72-1.99h-.01Zm68.59-69.02c-26.77,1.94-31.84,20.98-58.74,34.09,24.8-7.55,32.93-23.66,58.74-34.09Zm-166.16,133.76c-1.5-11.68-4.91-23.07-9.14-34.03-.2-.52-1.03-.32-.86.24l4.99,15.95c.41,3.83,2.11,15.1,2.45,18.7.09,2.08,1.96,1.32,1.47-.46.32.62,1.36.32,1.09-.4Zm51.49,66.75c-2.55,5.61-16.36,12.41-20.9,11.57l-.88-1.3-4.66,4.51c-2.08-.54-10.24,3.81-11.02,7.99,7.09-1.88,11.33-3.63,15.65-8.72,3.31.37,10.34.62,15.95-3.79,4.09-3.31,9.22-10.81,5.87-10.25h0Zm-10.5,41.75c-7.37,12.25-19.81,21.24-33.75,24.4,2.12,5.91,14.41-2.59,17.74-4.49,7.46-4.28,14.53-10.67,16.01-19.91h0Zm-22.03-188.45c-.16.2-.29.42-.45.63-1.46-1.06-3.14,4.37-3.88,5.42-.44.08-.49.79-.58,1.14-.44.24-.63.81-.88,1.23-.36.14-.44.54-.45.89-.09.08-.17.18-.21.32-1.08-.36-.85,1.3-.88,1.91-2.67.09,1.83,8.19,3.06,5.66-.03-5.99,1.92-11.59,4.8-16.78.18-.32-.29-.73-.53-.41h0Z"/>
    <path class="cls-9" d="m231.7,608.44c-17.97-27.32-32.41-82.56-39.63-101.83,5.32,28.55,23.17,94.5,30.87,133.31,4.14-6.24,5.76-22.84,7.37-31.82.16.85,1.62,1.75,1.39.34Zm-34.19-82.18c-.08-.01-.16-.02-.24,0l-.61-2.56.85,2.56Zm32.61,157.65c.42-7.73-4.92-33.43-5.7-33.35-1.55.06-.03,18.09-2.92,36.88-4.37,31.06-27.78,91.87-38.06,125.88l-2.8-.79c-.7,4.37-2.94,10.82-5.01,14.62l23.71,3.28c3.44-7.67,5.78-14.67-1-13.73,5.36-19.42,20.07-73.27,22.35-83.55,4.24-15.45,9.51-32.03,9.43-49.24Zm-60.17,143l-.97-.29c.52-.82-7.54-2.23-7.79-2.49-2.83-1.28-6.01-2.23-8.93-3.23-3.6-1.66-8.76-3.71-12.26-5.72-.3-.16-.58-.09-.77.08l-1.64-.94c-.86-.49-1.44.85-.59,1.27-.14.31-.02.71.34.88-.34.02-.56.43-.46.76,6.57,6.91,21.3,13.2,30.94,13.65.57.24,1.63.35,1.46-.54.61-.03.81-.78.33-1.14.02-.03.03-.06.05-.09.41-.08.54-.56.38-.92.54-.24.6-1.08-.09-1.28Zm-47.99-78.82l-2.45-1.47c.2-.5-3.62-2.21-3.86-2.46-2.53-1.66-4.69-3.95-7.48-5.23-2.21-3.17-5.54-6.3-8.74-8.5l-.79-1.38c-.05-1.51-1.41-2.95-2.35-4.11-.26-.4-.87-.52-1.31-.3-.52-.35-1.21.03-1.09.62-.39,0-.79.4-.67.79-.51-.02-.84.7-.38,1.11,3.85,8.31,12.17,14.62,19.84,19.5,1.59.54,7.31,4.99,7.97,3.09.12-.11.19-.27.19-.43.27.14.59.1.73-.13.6.1,1.03-.74.42-1.11h-.03ZM255.77,117.18l-13.56-22.21c19.17,33.84,10.33,47.68-19.5,75.25,29.96,54.68,24.79,31.09,17.74-3.86,8.03-16.06,26.62-32.05,15.33-49.18h-.01ZM203.13,5.89c.35,4.75.73,8.75-1.5,12.31-1.35,2.79-5.48,3.29-6.47-.61-1.1,5.95-9.17,5.06-9.34-1.04-.35,6.12-7.09,7.73-9.44,3.63l-1.67,2.82-4.11,1.58c9.62,2.39,13.62,2.78,27.6-.65,7.59-1,6.71-13.77,4.93-18.04Zm6.44,342.45c-3.02-33.1-8.55-72.73-24.6-106.67l-2.61-.31c2.72,9.21,8.91,31.04,11.59,40.5,7.69,24.61,9.29,67.03,16.34,94.48,1.89,3.57,2.04,15.4-5,18.01,11.65,1,10.28-9.1,6.79-18.76-2.02-7.58-.27-5.68-2.51-27.25h0Zm-54.17-32.17c-11.62,9.6-21.23,22.33-34.8,29.23,9.65.53,21.44-13.92,28.91-21.74,5.95-6.22,13.79-12.09,5.88-7.49h.01Zm-34.86-101.87c.25-3.18.37-5.41-1.63-3.72-5.57,1.92-14.59,1.07-21.41,2.05l-19.09-11.2-.58,8.95c11.43,10.89,35.1,9.16,42.71,3.93h0Zm56.93,116.92c-17.61-8.79-16.84,1.71-37.34,11.99-12.53,6.04-16.78,7.11-24.63,9.76,9.64-6.57,9.9-6.6,2.95-7.98-6.37,6.45-12.23,10.14-20.86,20.18-20.61,21.73-22.09,65.72-59.56,61.2,9.71,10.4,27.99,3.53,34.01-4.64,9.89-10.69,10.48-20.5,16.04-31.39,7.53,10.49,20.36-4.84,44.43-15.02,13.63-6.18,20.53-9.07,28.01-10.74,9.52-2.12,16.02-2.09,19.81-7.48,4.79-8.51,3.02-19.96-2.86-25.89h0Zm-133.34,97.27c-.15,0-.31-.02-.46-.03.18,0,.35-.02.53-.03-.02.02-.04.03-.07.05h0ZM215.32,21.76c7.82,22.59-9.61,35.68-31.88,31.82l1.45,4.64c6.12,2.65,26.86-1.09,33.14-8.16l-1.87-5.48-.03.03c4.9-5.84,1.89-21.81-.81-22.84h0Zm-53.78,652.08c-13.81,19.74-24.94,41.34-33.03,64.03l-2.27-1.78c-1.7,3.05-3.36,7.15-4.27,10.75l9.86,5.5,6.44-7.6c3.22-10.43,14.24-52.24,24.74-67.17l-1.46-3.73h-.01Z"/>
  </g>
  <g>
    <path class="cls-6" d="m140.18,160.61c2.1,10.87,3.79,21.83,5.05,32.83l2.44-2.29c-1.3-10.4-3.65-23.76-5.59-34.18l-1.9,3.65h0Zm-2.21,11.54c1.77,8.08,3.13,17.1,3.85,25.02l2.57-2.16c-1.04-9.12-2.64-19.41-4.43-28.49l-1.99,5.64h0Zm-2.62,10.73c1.15,5.74,2.17,12.42,2.79,18.31l2.55-2.67c-.41-6.33-1.69-14.33-3.24-20.29l-2.1,4.66h0Zm-2.74,9.31c1.1,3.36,1.75,8.18,2.14,11.73l2.78-1.66c-.34-3.74-1.92-11.47-2.85-15.15,0,0-2.07,5.08-2.07,5.08Zm-2.75,7.89c.8,2,1.36,5.02,1.29,7.38l2.55-1.75c-.15-2.59-.91-6.29-1.77-8.71l-2.08,3.08h0Zm-3.56,4.22c.72,1.86,1.18,4.55,1.06,6.7l2.54-1.79c.09-2.27-.26-4.55-1-6.69l-2.59,1.78h-.01Zm-4.27,2.49c.05.64.29,3.51.34,4.09,4.52.51,2.73-.96,2.63-4.55l-2.97.46Zm-16.26-117.05c-62.07,11.71-53.38,105.72-53.2,153.55.06,1.93,3.06,1.93,3,0-.13-45.78-9.02-138.79,50.2-150.56,1.89-.24,1.91-3.25,0-3h0Zm-3.18-3.66c-60.35,13.94-57.65,105.54-55.09,154.71,0,0,.45,4.51.45,4.51.2,1.9,3.21,1.92,3,0-3.08-42.76-4.3-96.03,19.02-133.41,6.69-10.17,16.05-18,27.79-21.54,1.85-.56,3.73-1.01,5.63-1.38s1.09-3.26-.8-2.89h0Zm-1.76-3.46c-65.02,18.3-60.28,105.65-58.08,159.79,0,0,.49,6.12.49,6.12.16,1.91,3.17,1.93,3,0-2.63-53.68-9.54-144.49,55.41-163.01,1.88-.43,1.09-3.32-.8-2.89h-.02Z"/>
    <path class="cls-6" d="m101.37,80.55c-67.21,9.84-67.89,111.22-64.47,163.71,0,0,.61,6.61.61,6.61.19,1.9,3.19,1.92,3,0-3.52-46.69-4.48-106.02,23.94-145.46,9.19-11.17,21.98-21.05,36.91-21.85,1.92-.12,1.93-3.12,0-3h.01Z"/>
  </g>
  <path d="m118.89,281.82c-4.46-.09-9.36-2.07-13.78-2.59,0-.02,0-.04-.02-.05-2.34-5.77-4.23-11.76-6.07-17.71-.22-.63-.65-2.26-1.51-1.74-.17,6.76,3.43,13.59,5.52,20.02.7,1.26,2.49,1.11,3.7,1.6,1.71.79,17.79,5.7,12.15.49v-.02Zm-22.78-22.62c-5.34,2.02-8.04,8.87-8.48,14.27-12-10.72-22.95-26.04-18.56-42.98.37-1.51-1.95-2.16-2.34-.64-4.19,16.92,6.06,37.13,21.12,44.8,2.76,1.98,1.97-7.03,3.92-8.66,1.03-2.48,3.35-4.22,4.57-6.48,0-.12-.1-.26-.22-.29v-.02Zm31.39,17c-7.56-3.44-17.61-11.55-24.7-16.06-10.53-7.78-23.85-15.73-29.61-27.98-3.27,11.65,35.68,34.12,46.24,40.6,2.24,1.27,5.33,3.16,7.33,4.74.78.54,1.59-.85.74-1.27v-.03Zm-6.08-60.15c10.18,15,17.5,32.31,21.34,50.1,7.98,5.53-16.21-55.78-21.34-50.11h0Zm13.86,19.02c3.86-.46,8.05-1.27,11.7.78,5.32-.89-3.87-3.83-5.74-3.3-1.52.12-6.43.58-5.96,2.52h0Z"/>
  <path d="m122.88,211.75c11.26,1.25,21.13,9.46,22.23,21.16.2,1.65,2.51,1.37,2.27-.31-1.29-11.57-12.05-23.77-24.37-21.86-.41.14-.6.8-.13,1.01Zm14.55,25.42c.43,1.05,2.32,1.99,3.07,2.88,2.67,2.93,7.25,3.29,9.73,6.36.76,1.07,2.54.04,1.77-1.03-1.66-2.31-4.26-3.19-6.7-4.42-1.58-.31-7.31-6.49-7.87-3.79h0Z"/>
  <path d="m151.3,266.3c.87-1.72,3.59-25.38-.56-19.87,0,0-.02,9.89-.02,9.89,0,0-.36,6.59-.22,9.86.02.46.68.57.81.11h0ZM3.5,405.58c-1.84-40.63-3.78-83.38,9.54-122.38,10.84-27.1,33.82-31,54.27-46.6,1.05-.97-.5-2.49-1.56-1.56-19.4,14.29-41.61,19.67-52.89,43.78C.16,303.67-3.47,380.71,3.49,405.56h0v.02Z"/>
  <path d="m28.23,296.16c-5.11,35.6-12.35,71.22-25.77,104.71-.47,1.19,1.49,1.74,1.93.53,4.86-13.32,9.24-26.8,13.02-40.47,5.03-20.71,11.48-45.17,10.81-64.77h.01Zm31.56-7.97c7.54,17.08,11.35,35.48,13.43,53.99,5.9,5.6-5.26-41-7.21-43.6-1-2.04-4.32-11.35-6.24-10.39h.02Zm62.85-36.97c1.4-1.49,1.34-3.85,1.64-5.77.94-6.6,2.29-13.74,4.2-20.11-2.37-7.76-7.82,25.71-5.84,25.87h0Z"/>
  <path d="m122.1,249.84c-18.67-1.41-39.7-6.73-48.99-24.68-.79-1.22-2.76-.08-1.96,1.14,7.53,14.11,22.34,21.73,37.71,24.11,1.98.3,15.08,2.52,13.22-.57h.02Zm-44.26-19.93c13.29,9.94,35.48,4.01,46.08-7.69,1.06-1.23-.75-3.02-1.78-1.78-10.3,11.75-29.67,15.79-43.61,8.55-.6-.26-1.14.39-.7.91h0Z"/>
  <path d="m123.71,252.49c.64-.95-.69-1.99-1.19-1.34-2.65,2.5,2.63,9.11,3.57,3.77-.07-1.74-1.37-6.83-3.73-4.58-1.48,2.66,2.56,9.49,4.64,4.84.57-6.29-7.79-7.47-4.39-.06,5.16,7.51,6.57-5.79.38-4.32-5,5.19,7.04,9.15,2.33.78-3.35-3.53-3.84,3.22-1.3,4.64,1.63,1.21,2.82-1.18,1.17-2.14-.16-.18.11.18,0-.01-.08-.14-.3-.47-.34-.61.16.4-.13-.37-.13-.5-.05-.27,0,.11,0,0-.03-.04.01-1.11-.03-.58,0-.08.07-.3.08-.38l-1.7.69c.37.25.26.12.61.5.09.1.06,0-.03-.05.13.14.26.43.36.6-.16-.52.23.99.11.39.05.08-.01.81.04.38l-.03.13c-.04.22.1-.18.03-.06.06-.11.49-.37.76-.27l-.08-.02.12.05c-.36-.22-.24-.1-.6-.49.26.35-.34-.61-.13-.23-.07-.12-.17-.72-.11-.35,0-.11.01-.26,0-.37,0,.39,0-.15.09-.23l-.05.12c.06-.09.06-.1,0-.02-.09.14.12-.06-.03.03-.17.1.11-.11-.06.04-.09.04-.1.04,0,.02l-.17.03c.22,0-.2-.07-.07-.02.35.13.02-.06.07.02.07.04.38.25.12.07.33.28.42.48.69,1.04-.11-.33.13.39.15.44.05.13.18.91.13.46,0,.04,0,.62,0,.33.05-.22-.02.06-.03.1l.03-.08c-.05.08-.04.07.02,0,.17-.19-.13.07.07-.07l.07-.05c-.1.06-.07.05.08-.03.03,0,.27,0,.08-.02.04,0,.26.06.08,0,.35.19-.31-.22.01,0-.08-.02-.54-.58-.33-.34-.27-.32-.48-.73-.65-1.12.1.31-.2-.58-.22-.74,0,0-.03-.17-.03-.17-.03-.16.02.21,0,.05-.02-.1,0-1.13-.02-.67,0-.19.12-.38.14-.56-.56,1.28-1.79-.07-.62.73-.31-.31.68.69.54.56-.09-.13.21.3.25.39.04.06.32.61.15.28.14.32.22.67.29,1.01-.05-.06-.01-.22,0-.03.02.04-.05.47,0,.24.06-.31-.06.4-.02.12,0,0,.03-.07.03-.07-.13.19.18-.19.02-.02l.12-.09c-.16.08.27-.13.36-.03l-.07-.02c.26.11.1.03.05.02-.21-.15.17.15-.04-.02-.48-.49-.85-1.42-1.01-2.46.02.25-.06-.75-.03-.91l-.02.15c.08-.3-.08-.14-.5.47-.19,0-.64.04-.78-.13q-.09-.12-.02,0c.19.33.46.81.6,1.16-.08-.22.25.71.27.8.07.19.25,1.22.23,1.09.01.1.08.45.02.52.03-.24,0-.09-.02.01.05-.25.34-.4.58-.32-.09-.03-.1-.03-.03,0,.15.06-.21-.19-.02-.02l-.2-.21s.02.03.03.04c-.1-.11-.45-.78-.37-.63-.1-.15-.25-.95-.21-.77-.17-.7.23-1.25-.06-1.88.04.1.05.11.03,0l-.7.92c.22-.02-.19-.02-.2-.14.02.47.62.64.87.24l-.11-.02Zm85.83-118.22c-6.21,13.83-19.98,20.96-32.06,28.82-18.84,12.81-32.86,31.2-49.33,46.7-.94.89.49,2.31,1.41,1.41,15.94-15.31,29.51-33.32,47.92-45.88,11.82-8.28,28.88-15.28,33.08-30.62.13-.59-.71-1.01-1.01-.43h-.01Zm-33.34,107.4c27.2,3.09,42.49-27.71,66.92-34.11,1.24-.35.71-2.28-.53-1.93-26.51,9.05-37.32,32.16-66.39,36.06v-.02Zm34.54-106.93c.36,26.65,17.9,49.08,32.74,69.85.75,1.01,2.48.02,1.71-1-12.21-16.06-24.57-32.7-30.11-52.4-1.42-1.75-2.68-19.72-4.34-16.47h0v.02Z"/>
  <path d="m206.7,139.36c-1.23,26.31,17.31,48.57,34.41,66.65.89.93,2.3-.48,1.41-1.41-17.52-17.85-33.48-39.32-34.68-65.24-.1-.73-1.04-.73-1.14,0h0Zm33.62,27.38c.91,6.44,2.72,12.7,3.44,19.18,1.19,1.83-.9,22.71,2.51,16.97.64-5.89-1-35.75-5.94-36.15h0Zm-63.55,59.72c2.82.85,54.77-8.84,46.39-11.57-14.6,5.25-33.36,6.34-46.39,11.57Zm-56.19-16.88c-1.02,2.81-.16,7.82-.29,10.82.08,1.22,1.92,1.25,1.92,0-.23-1.8.17-10.79-1.62-10.82h0Z"/>
  <path d="m112.04,212.31c13.11-1.14,21.25-12.9,23.54-24.99,3.33-12.49,6.17-25.15,8.41-37.9.23-1.26-1.69-1.8-1.93-.53-3.28,15.45-6.1,36.09-12.84,50.32-3.44,6.79-11.15,9.12-17.35,12.55-.24.16-.16.55.15.55h.02Zm-2.54-.2c-13.1.54-26.78-4.41-33.05-16.67-.52-.94-1.97-.1-1.45.85,5.93,11.54,22.73,20.72,34.5,15.81h0ZM3.85,402.34c10.81-7.11,21.21-17.26,31.35-25.37,3.07-2.56,6.41-6.14,10.6-6.59,1.3-.14,1.07-2-.24-1.78-6.98,1.52-15.02,10.84-20.75,14.85-6.36,5.39-15.61,12.4-21.31,18.42-.22.24.07.65.36.47h0Zm.18,4.35c15.44-5.96,24.55-20.99,38.4-29.24,1.04-.54.12-2.1-.91-1.57-7.04,3.64-12.25,9.74-18.04,14.99-4.87,5.46-16.45,11.34-19.45,15.82Z"/>
  <path d="m3.88,406.92c3.16.99,6.13,2.77,9.52,3.21,1.6.55,14.42,1.66,9.92-1.64-5.05.53-10.22-.04-14.98-1.86-.88-.49-5.35-1.61-4.46.29Z"/>
  <path d="m24.44,390.97c-6.56,23.57,10.44,47.21,35.99,40.79,13-3.99,18.73-17.64,23.95-28.99,4.26-8.17,8.7-21.6,14.69-28.58.93-1.01-.55-2.51-1.51-1.51-5.02,5.32-9.09,16.54-12.52,23.02-6.77,13.81-13.52,35.24-32.32,34.56-13.59.79-26.41-10.49-27.13-24.16-1.17-2.39,1.75-16.45-1.14-15.12h-.01Zm13.89,14.89c-2.08-34.86,33.91-50.14,50.95-75.57,1.02-1.3-.86-2.77-1.8-1.39-15.53,24.87-57.21,44-49.14,76.95h0Z"/>
  <path d="m104.98,417.47c-3.83,3.37-20.9,14.39-16.62,1.76,1.21-2.28,5.59-34.01.24-27.7.34,8.49-.15,16.93-1.99,25.24-1.63,4.33-2.11,12.04,4.83,10.15,2.32.51,18-8.17,13.55-9.45h-.01Zm23.46-11.63c-4.85,5.55-11.58,13.18-19.75,10.99-3.84-5.9,3.24-16.81,3.01-23.88,2.32-21.5-1.51-21.83-1.98,0,.17,7.85-7.69,18.73-2.13,25.19,8.09,2.84,19.79-5.59,20.84-12.32h0v.02Zm56.12-164.48c12.49,35.83,21.58,73.03,23.87,111.01-1.63,7.5,13.56,50.36-4.13,39.74-1.04-.76-2.04.97-1.01,1.73,2.13,1.57,5.04,2.74,7.67,1.76,8.04-4.7,2.37-16.18,2.41-23.61-2.57-9.43-2.72-19.26-3.54-28.94-3.2-34.9-11.14-69.64-23.65-102.37-.41-.93-1.91-.27-1.63.69h.01Z"/>
  <path d="m199.44,348c1.03,13.06,10.71,22.95,13.15,35.64.29,1.25,2.22.72,1.93-.53-1.77-9.34-7.15-17.14-11.07-25.61-1.06-1.13-3.32-11.07-4.01-9.49h0Zm-69.73,58.69c22.6-5.21,46.08-9.52,69.06-13.19.99-.15.57-1.66-.42-1.51-18.03,2.79-36.04,6.13-53.79,10.34.53.19-17.51,3.66-14.84,4.35h-.01Z"/>
  <path d="m160.36,323.65c-.33,22.48,2.97,50.84,5.01,73.29.15,1.22,2.08,1.26,1.95,0-1.86-19.13-3.62-38.24-4.68-57.43-.38-1.3-.12-19-2.27-15.89h0v.03Z"/>
  <path d="m167.19,329.41l.54-.79-1.78-.48v.25s.02-.26.02-.26c-.02.11-.05.22-.09.32l.1-.23c-.04.1-.1.2-.17.29l.15-.2c-.05.07-.12.13-.18.19l1.21-.16-.07-.04.2.16-.07-.07.16.2s-.05-.07-.06-.11l.1.24-.04-.13.04.27v-.17l-.04.27c0-.06.02-.11.04-.16l-.1.24s.04-.08.07-.12l-.16.2s.05-.06.08-.08l-.2.16s.06-.04.09-.05l-.24.1s.02,0,.03-.01l-.97-.26.05.05-.16-.2.03.06-.1-.24s.01.05.02.07l-.04-.27v.09l.04-.27-.03.11.1-.24s-.04.08-.07.11l.16-.2s-.05.06-.08.08l.2-.16s-.06.04-.09.05l.24-.1s-.05.02-.07.02l.27-.04h-.07l.27.04c-1.84-.5-1.63,2.52.13,1.91,1.44-.35,1.29-2.9-.35-2.56-2.66,1.03.39,4.81,1.47,1.68.55-1.17-.77-2.55-1.68-1.31-1.17,1.23-.25,3.08,1.11,1.74h-.01Zm.15,16.15h.03l-.2-.03.08.02-.19-.08h.02l-.16-.12h0l-.21-.35s0,.03,0,.05l-.03-.23c0,.31.1.49.3.7l-.15-.19.03.05-.1-.23.1.25-.1-.23v.04l-.03-.25v.04l.03-.26s0,.03,0,.04l.1-.23s0,.03-.02.04l.15-.2,1.66.69c-.29-2.4-3.72-.39-1.72,1.03,2.62,1.04,1.87-3.41-.12-1.42,0,0,0,.01,0,.02l.16-.2s0,.02-.02.02l.2-.16s-.02.01-.03.02l.24-.1s-.03,0-.04.01l.27-.04h-.05l.27.04s-.04,0-.07-.02l.24.1-.05-.03.2.16s-.03-.02-.04-.04l.16.2s-.02-.02-.02-.04l.1.24v-.04l.04.27v-.04l-.04.27s0-.02,0-.04l-.1.24s0-.02.02-.03l-.16.2.02-.02-.2.16s.03-.02.04-.02l-.24.1s.04-.01.06-.02l-.27.04h.09l-.26-.04s.04,0,.06.01l-.24-.1s.02.01.03.02l-.2-.15.03.03-.15-.2s0,.02.02.03l-.1-.23c.66,1.7,2.73.1,1.59-1.08-.06-.05-.14-.11-.2-.15-.36-.22-.93-.2-1.23.14l.16-.12h0l.4-.11c-1.04-.09-1.21,1.49-.14,1.54l-.02.03Zm1.63,21.32s.04.01.05.02l-.16-.07s.06.04.09.06l-.15-.12.06.06-.13-.17s.04.06.05.09l-.09-.21s0,.05.02.07l-.03-.25c.01.1.03.22.04.32l-.03-.25v.07l.03-.26s0,.05-.02.07l.1-.23s-.02.05-.04.07l.16-.2c-.07.07-.14.16-.18.24,0,.02-.02.03-.03.05l.16-.2-.06.06.2-.16-.08.05.24-.1s-.06.02-.09.02l.27-.04h-.08l.27.04s-.05,0-.07-.02l.25.1s-.04-.02-.06-.04l.21.16s-.04-.03-.05-.05l.16.21s-.03-.04-.04-.07l.11.25-.03-.1.04.28v-.11l-.04.28.03-.11-.11.26s.03-.06.05-.08l-.17.22s.03-.04.06-.06l-.22.17s.04-.03.06-.04l-.26.11c2.16-.75-.16-3.46-1.31-1.52,0,0,0,.02,0,.02-1.15,2.33,2.82,2.95,2.47.43-.34-1.7-3.2-.38-1.6.62l-.04.06Zm1.36,16.69l.05-.03-.31.04c.15.05.31,0,.45-.06l-.4.05c.25.07.51.02.7-.16l-.54.07c.26.07.55.02.76-.15l-.43.12c.21,0,.49-.1.64-.26.1-.09.22-.3.26-.43l-.09.21s0-.02,0-.03c-.24.39-.78.55-1.18.31,0,0,0,0,.02.01l-.18-.14s.02.02.02.03l-.14-.18.03.06-.09-.22s0,.04.02.06l-.03-.25v.04c0-.4.3-.75.67-.87h-.02l.25-.03h-.02l.25.03s-.03,0-.04-.01l.23.1s0,0-.02-.01l.19.15-.02-.02.15.19s0-.02-.02-.03l.1.23v-.03l.03.26v-.05l-.03.26s0-.04.02-.06l-.1.23s.02-.04.04-.06l-.15.2s.02-.03.04-.04l-.2.15s.02-.01.03-.02l-.23.1h.03l-.26.03h.03l-.26-.03h.03l-.23-.1.04.02-.2-.15.03.03-.15-.2s0,.02.02.03l-.1-.24s0,.04.02.05l-.04-.26v.07l.04-.26-.02.08.1-.24s-.02.05-.04.07l.16-.2s-.04.05-.06.06l.2-.16-.05.03.24-.1s-.03.01-.05.01c-1.14.04-.95,2.99,1.12,1.6.35-.35.44-.96.25-1.38-.19-.57-1.03-.92-1.58-.55-.16.08-.3.26-.4.4-.31.49-.19,1.24.33,1.54.02,0,.23.09.24.1.85.23,1.65-.69,1.19-1.48-.23-.53-1.02-.72-1.47-.35,0-.02-.2.2-.23.25-.04.08-.11.34-.11.37,0,.04,0,.09-.02.13l.12-.45s0,.02-.02.03v.02c-.18.27-.16.63,0,.91l-.09-.66c-.08.26-.08.55.07.78l-.07-.54c-.11.27-.12.61.11.83l-.15-.37c0,.11.03.22.09.32l-.04-.31c-.12.33.22.66.54.48l-.08.03Zm-38.47,23.23c2.03,6.14,2.24,12.68,1.01,19.07-.09.62.86.89.96.26.68-5.98,2.32-14.85-1.97-19.32h0Zm6.67-1.31c2.05,6.47,3.08,13.4,1.16,20.06,1.94,3.1,2.33-8.9,2.02-10.23-.51-2.91-.83-8.72-3.17-9.85h0v.02Zm52.91-9.88c2.44,3.79,2.96,8.19,2.79,12.65,1.91,2.97.82-6.57.68-7.25-.18-1-2.5-7.09-3.45-5.41h-.02Zm5.64-1.78c1.54,3.95,2.74,8.24,1.94,12.53,2.85,4.13.62-13.85-1.94-12.55h0v.02Z"/>
  <path d="m175.32,401.39c-.18-1.78-2.74.13-2.34,1.33.57,3.1,4.53.62,2.39-1.51-2.03-1.95-3.67,2.91-1.37,3.46,1.63.42,2.72-1.64,1.99-2.97-3.95-4.54-4.85,6.68-.16,2.31.98-1.37-.07-3.61-1.85-3.25-2.16.5-2.31,4.54.17,4.59,2.72.03,2.7-4.41.17-4.72-3.28-.14-1.89,5.38.86,3.5,1.16-1.04.27-3.74-1.45-3.26-3.92,1.97,1.9,5.98,2.52,1.69-.02-3.31-4.84-2.19-3.41.79.77,1.69,3.73.93,3.22-1-.57-1.86-3.4-1.01-2.78.87.24.96,1.65,1.36,2.22.47.71-1.04-1.08-2.18-1.66-1.05-.49.85.82,1.62,1.31.77.15-.19-.29.24-.36.26h-.32c.1.02-.1-.05-.1-.04-.38-.12-.17-1.04.18-.93-.03,0-.13,0,0,0,.12.01.05,0,.02,0,.04.02.19.09.04.01,0,0,.15.13.07.05-.07-.07.04.05.05.07-.01-.04-.03-.07-.06-.09.06.15.05.09.02-.02,0,.08.02.19.02.04,0,.15,0,0,0-.03,0-.06-.04.09-.04.09,0-.01.03-.05.03-.07.04-.1-.11.11-.03.03l.04-.04c.05-.07-.15.1-.05.04.11-.07-.15.06-.03.02.03,0,.1-.02-.02,0-.17.03.03,0,.06,0-.04-.02-.21-.03-.04,0,.12.02-.12-.07-.05-.02.08.05.17.11.03,0,0,.01.05.05.06.05.09.07-.07-.13-.02-.03,0,.02.02.04.03.05.05.06-.07-.18-.03-.05s-.05-.16,0-.04c0,.01,0,.12,0,0,0-.1,0-.02,0,0-.07.14.03-.02,0-.03-.05.08-.08.12,0,.02l-.06.06c-.08.09.13-.09,0,0,0,0-.05.02-.05.03l.08-.03s-.28.07-.13.04c.13,0-.11-.01-.15,0,0,0,.16.03.09.01-.03.01-.26-.08-.13-.03.12.05-.03-.03-.06-.04-.11-.05.11.11,0,0-.02-.02-.12-.13-.05-.04.07.1-.07-.11-.07-.14-.04-.08.04.14.02.05,0-.05-.03-.1-.04-.15-.04-.13,0,.15,0,.01,0-.06,0-.41,0-.17.1-.38.04-.19.24-.45,0,0-.12.08-.05.04.02-.01.18-.11.06-.04-.14.06.02-.01.04,0h-.1.11s-.14-.03-.06,0c.08,0,.21.07.06,0,.23.11.2.12.28.19.12.12-.06-.1,0,0,.05.06.17.33.09.12,0,.1.08.22.09.32,0-.26-.01.07,0,.14.06-.3-.09.33-.01.03-.03.03-.06.11-.08.15-.06.11.1-.1.02-.02-.06.05-.17.17-.03.05-.06.03-.32.18-.11.08-.08.03-.4.11-.17.06-.07,0-.21,0-.28,0-.12,0,.15.04.03,0-.04-.01-.09-.02-.13-.04-.14-.04.1.06,0,0-.07-.04-.2-.12-.05-.02-.07-.07-.16-.17-.04-.02,0-.04-.05-.08-.07-.11-.08-.13.03.13,0,.02,0-.04-.02-.07-.03-.11-.03-.11,0,.19,0,.02,0-.04,0-.15,0-.19,0-.09-.03.16,0,.08.01-.07.06-.17.07-.24-.1.2.03-.04.07-.1-.13.15,0,.02.07-.05-.16.16-.03,0,.05-.03.05-.04-.08.04-.09.03.05,0,.27-.07.08-.04.04,0,.09.02,0,0-.13-.05.09.05-.03-.01s.08.07-.03-.02.09.12,0,.02c-.06-.07.11.18.12.22l-.02-.05c.04.08.12.51.1.27,0,.28,0,.25-.02.34-.04.11,0,.06.02-.02-.02.02-.07.11-.08.13,0,0,.1-.11.05-.07-.01.01-.13.13-.03.04.11-.08-.05.03-.07.03.08-.04.11-.05.01-.01-.12.04.11,0,.04,0-.02,0-.18-.01-.06,0s-.05-.02-.08-.03c-.12-.03.11.06,0,0-.04-.02-.11-.08-.16-.09.14.13-.05-.06-.09-.11.16.16-.04-.03-.04-.1.08.19-.06-.15-.05-.21,0,.21.01-.07,0-.11,0-.02.01-.1,0,0-.04.16.05-.18.05-.19-.08.18.02-.05.06-.09-.13.14.04-.01.07-.06,0,.01-.14.09-.03.03.01-.01.23-.13.12-.08-.11.03.13-.02.16-.04.08-.03-.14,0-.05,0h.16c.12,0-.13-.03,0,0,.03,0,.19.06.09.02-.12-.04.09.04.09.06-.18-.17.19.2.11.11-.04-.08.3.5.2.31.05.09.11.41.14.51,0,0,0-.13,0-.05,0,.45.03.49-.19.8.15-.17-.07.07-.12.1.18-.12-.11.06-.18.09.02-.05.13-.05.03-.01-.08.04-.34.07-.12.05-.07,0-.35-.02-.14.01-.04-.02-.19-.07-.23-.06.19.06-.02,0-.05-.04.02,0,.11.1.04.03-.02-.01-.16-.19-.07-.07-.11-.17-.16-.43-.14-.91,0,0-.02.14,0,.07.09-.36.1-.48.31-.76-.19.19.22-.21.12-.12-.1.04.11-.05.12-.07.03-.02.07-.06,0,0-.04.04-.05.01,0,0,.03,0,.06-.01.08-.02.11-.04-.12,0,0,0,.02,0,.13.01.14,0-.23-.04.32.09.08.02.04.02.16.09.2.12-.17-.16.22.26.06.07.03.02.14.25.07.1.04.05.09.38.07.26,0,.3.02.3-.09.6-.03.07,0-.02.01-.03-.11.23-.1.19-.28.39-.05.05.03-.03.04-.03-.05.03-.37.23-.2.13-.05.05-.36.07-.16.07-.06,0-.25,0-.08.01,0-.02-.15-.02-.16-.04,0-.02.11.07.05.02,0-.01-.04-.02-.06-.03-.09-.05.05.06-.02-.02-.02-.02-.04-.05-.06-.07.08.12-.01-.07-.05-.11.08.21-.13-.47-.07-.25-.03-.12,0-.39,0-.53,0,0-.02.13,0,.05.06-.28.09-.41.19-.58.11-.16.05-.1.22-.26.07-.07-.03.03-.03.02.03-.03.13-.07.16-.1-.23.08.22-.06.06-.02.07,0,.2.01.06,0,.17.07.09,0,.26.11-.18-.16.23.23.08.07.05.06.13.18.16.25-.04-.1.14.48.07.28.04.01-.01.41,0,.24,0,.12-.04.24-.09.35.07-.15-.18.31-.11.19-.04.05-.09.1-.14.15.12-.09-.22.14-.08.06-.04.02-.26.07-.14.05h-.2c.16.04-.14-.05-.06-.02.06.03-.07-.05-.1-.06.09.06.02,0-.02-.04-.06-.04.04.08,0,.02-.02-.05-.06-.1-.09-.16.06.15-.03-.16-.03-.18.01.15,0-.3,0-.35,0-.22.21-.8.29-.87,0-.01.04-.03.05-.05.02-.05-.06.05.06-.03-.02.01-.1.03,0,0s-.08,0,.02,0-.09-.03,0,0c.09.03,0,0-.02-.01.1.05.15.1.25.22-.05-.06.11.19.14.24.08.1.15.69.12.66-.02.04-.04.06-.06.1.05-.08.02-.02,0,0-.11.09-.15.1-.34.15.12-.01-.07,0-.09,0-.07,0,.07.03,0,0-.03-.02-.2-.04-.1-.03-.01,0-.18-.12-.09-.05-.04-.02-.13-.12-.16-.15.07.1-.12-.26-.07-.13-.03-.09-.06-.17-.07-.26-.1-.38.48-1.09.78-1.11-.11-.05-.23.06-.16-.3-.1.48.59.68.74.2h-.05Z"/>
  <path d="m170.82,404.74c2.21-.75,5.54-1.85,7.81-2.55,2.01-2.43-3.78.18-4.26.26-.46.33-5.87,1.64-3.55,2.29h0Z"/>
  <path d="m170.52,404.57c.81.09,5.63-1.55,3.03-1.99-.52.25-1.8.86-2.34,1.03-.57.04-1.59.67-.69.96Z"/>
  <path d="m170.49,404.68l3.61-1.26c.61-.17.37-1.16-.27-.97-.17.22-5.51,1.75-3.34,2.22h0Zm-4.48-5.54c.69,21.69,2.83,44.94,12.05,64.86.56,1.16,2.28.15,1.73-1.01-7.31-15.26-9.32-32.38-10.97-49.01-.57-2.75-.46-15.02-2.81-14.85h0Z"/>
  <path d="m178.96,408.08c.64,8.98,3.75,21.78,5.22,30.8,1.08,7.51,6.36,21.48-4.83,23.51-1.38.15-1.41,2.33,0,2.19,3.29-.32,6.32-2.11,7.84-5.11,3.62-11.81-2.54-24.6-3.87-36.52-.79-2.25-2.22-16.37-4.35-14.86h0Zm-85.66,19.12c13.6,1.69,26.46-5.46,39.88-6.61,5.28-5-18.22,2.11-20.12,2.33-5.94,2.27-15.2,1.8-19.76,4.29h0Z"/>
  <path d="m142.29,417.36c14.83-2.15,36.62-8.91,51.35-12.51,5.5-5.39-23.86,5.17-26.11,4.86-4.15,1.04-14.89,3.72-18.86,4.84-1,.41-7.79,1.95-6.39,2.81h0Zm58.15-15.76c1.11,0,3.34-.1,4.44-.2,1.09-.04.85-1.72-.2-1.46-.06.2-5.89.94-4.24,1.65h0Zm-79.96,20.86c-1.37,30.96-1.62,41.96-34.82,50.72-1.56.44-.88,2.92.67,2.43,17.54-4.27,36.02-15.31,35.21-35.66-.19-1.78,2.41-20.96-1.07-17.48h.01Zm-35.37,28.49c5.22-.35,10.33-3.28,15.65-3.6l-1.39-1.06,1.79,19.03c.11,1.27,2.11,1.28,2,0l-1.6-19.03c-1.31-2.64-6.78.44-9.21.64-1.14.71-10.31,2.5-7.25,4.01h0Zm94.17,244.42c-21.96-24.54-38.05-53.51-53.68-82.29-28.39-53.5-68.58-117.8-37.14-177.98,1.12-2.21,2.32-4.38,3.58-6.51.74-1.26-1.21-2.4-1.96-1.14-36.52,58.72.46,125.47,29.59,178.86,17.41,30.32,34.53,66.49,59.6,89.07h0Z"/>
  <path d="m83.99,442.33c-5.04,28.91,2.62,58.51,10.89,86.15,6.68,21,13.84,41.93,22.71,62.11,10.51,21.57,22.5,42.58,31.15,65.07.53,1.28,2.64.72,2.11-.58-7.72-19.74-18.3-40.87-28.54-59.57-21.8-47.68-39.76-101.81-38.31-153.19h0Zm14.17,260.32c10.56-22.69,22.28-45.03,38.48-64.32.8-.99-.6-2.42-1.41-1.41-15.48,19.76-29.85,41.48-38.07,65.31-.13.6.67.96,1,.42h0Zm90.55-206.5c11.97,59.3,29.63,127.13,41.05,186.52,1.76,18.19-8.16,43.01-12.21,60.6,0,0-16.55,61.45-16.55,61.45,0,0-2.09,7.59-2.09,7.59-.38,1.39,1.78,1.98,2.15.59,8.44-35.43,26.39-86.79,31.33-122.34-2.59-35.65-19.31-88.89-26.06-124.51-1.59-2.42-14.91-75.02-17.66-69.89h.04Zm-56.42,296.72c15.54,11.08,34.31,17.15,52.74,21.61,1.93.17,20.72,5.35,15.84.93-18.77-2.34-36.98-8.05-53.97-16.32-2.16-.52-14.98-9.16-14.61-6.22h0Zm-3.74,15.08c19.6,15.43,45.85,21.88,70.49,23.05,1.29.04,1.29-1.96,0-2-22.09-.6-43.86-6.99-63-17.96-1.72-.72-6.49-4.76-7.49-3.08h0Zm6.16-16.99c2.36-38.8,9.27-78.43,30.09-111.98.72-1.19-1.14-2.27-1.86-1.09-16.11,26.32-24.56,56.64-27.95,87.14,0,3.69-3.7,26.87-.28,25.93h0Zm6.3,2.96c-.1-37.76,8.66-75.8,29.26-107.82.58-.93-.88-1.78-1.47-.86-19.24,31.25-33.33,73.64-27.78,108.69h0Z"/>
  <path d="m138.82,796.18c-3.32-.32-5.71,20.3-1.58,14.92-.65-4.77.49-9.49,2.13-13.93.05-.33-.09-.99-.53-.99h-.02Zm3.32,2.2c-1.2,1.49-4.32,20.08-.04,15.03-1.4-2.1,3.04-17.83.05-15.04h0Zm-11.18-5.79c-2.14,1.25-5.09,20.26-.75,15.27-.7-5.03.38-10,2.04-14.73.24-.78-.87-1.2-1.29-.54h0Zm69.85,23.92c.68,3.6-.37,7.57-1.51,11,2.35,7,5.63-15.05,1.51-11.01h0Zm-105.38-113.56c9.21,15.71,25.7,33.29,40.8,40.05-12.01-8.66-22.9-19.07-32.13-30.65-1.52-1.21-7.54-12.58-8.66-9.41h0Zm-8.14,9.79c9.05,18.64,26.15,31.91,44.59,40.81,1.12.63,2.13-1.1,1.01-1.73-6.42-3.72-16.02-8.48-21.8-12.99-9.41-7.19-16.02-17.12-22.49-26.86-.55-.8-1.77-.11-1.31.76h0Z"/>
  <path d="m88.93,711.52c1.48-1.87,3.59-4.42,5.35-6,.93-4.16-3.53.45-4.14,1.88-.47.76-3.33,4.6-1.2,4.11h0Zm43.65,40.89l.09-.1-.47.13c1.32.02,2.2-2.35,3.04-3.15.26-.89,3.89-4.21,2.17-5.08-1.45-.97-3.05,3.46-3.77,4.07-.44,1.08-2.12,2.74-1.74,3.94v-.49c-.35.45.23,1.16.68.69h0Zm-24.55-31.44l-6.52,8.06c-1.03,1.14.82,2.55,1.66,1.27,0,0,6.26-8.26,6.26-8.26.6-.8-.76-1.86-1.4-1.08h0Zm4.23,4.45c-1.24.88-10.48,11.82-4.86,9.58.02-1.66,8.83-10.94,4.86-9.58h0Zm1.37-5.07c13.74-17.7,26.17-37.27,41.55-53.71,1.08-8.18-16.7,17.46-18.36,18.96-6.81,8.87-13.72,18.65-20.1,28.02-.57,1.21-5.42,6.86-3.09,6.73h0Zm90.84-325.83c-2.5,7.51,1.73,14.92,5.47,21.2,8.63,14.56,16.61,29.62,23.55,45.03,13.81,24.2,12.63,48.71,9.35,75.49-3.74,34.78-11.66,68.92-19.1,103.05,0,0-1.41,6.44-1.41,6.44-.34,1.54,2.02,2.2,2.37.65,10.35-49.27,25.04-104.17,22.38-154.59-2.72-16.77-11.57-31.64-18.68-46.92-3.82-7.61-7.82-14.95-12.04-22.25-3.36-5.99-9.72-14.81-10.65-21.78-.89-1.84,1.8-8.89-1.25-6.33h0Zm-144.07,24c12.57-7.12,16.75-21.19,21.47-33.85,3.81-8.69,9.65-16.36,16.54-22.84.46-.44-.24-1.13-.7-.7-21.58,18.56-16.35,40.6-37.33,57.4h.02Zm49.44-82.85c2.67,2.94,5.77,9,9.64,10.46,14.42,1.37,26.63-19.64,36.69-28.21,1.79-1.75,3.67-3.76,6.2-4.32,1.65-2.99-5.06,1.23-5.52,2.22-10.95,9.71-19.99,25.77-34.83,29.61-4.82,1.31-10.64-11.43-12.21-9.75h.03Zm43.29-13.04c.19-.18.42-.32.67-.41.78-.26.12-1.39-.49-.84-.9.83-.71,2.16,0,3.05,4.44,3.32,9.33-3.54,12.55-6.21,8.6-6.69,3.25-20.09-7.65-16.03-.97.42-9.12,2.24-6.02,3.32,4.26-1.21,9.75-4.95,13.8-1.63,4.26,2.71,4.06,8.04.87,11.51-1.49,2.22-13.07,13.93-12.83,6.7l-.85-.35c.05.27-.61,1.03-.04.89h-.01Zm17.35-15.29c9.94-3.43,3.29-16.13-4.29-18.44-7.33-.21-14.75,4.03-21.58,6.44-1.65,2.97,8.42-2.63,9.8-2.58,2.74-.84,6.6-2.34,9.36-2.91,5.09-.03,10.62,5.48,10.75,10.59.27,3.11-2.83,4.93-4.03,6.91h-.01Zm3.63-13.2c4.33,1.2,3.61-4.74,3.12-7.31.27-4.14-4.12-5.46-7.34-6.51-12.12-3.46-24.15,2.41-34.63,8.02-3.07,3.9,17.56-7.93,20.45-7.06,7.09-1.2,21.3-2.05,20.83,8.15,1.09,5.54-3.49,3.14-2.42,4.72h-.01Zm-29.58-10.95c9.67-8.48,14.98-3.58,26.1-6.04,2.51-.33,6.41-1.44,5.57-4.73-2.15-4.63-8.81-4.5-13.18-5.48-11.24-1.06-25.26-2.68-32.13,8.32-4.2,3.57-9.33,6.54-11.14,12.12-.24.65.8.93,1.04.29,2.05-6.42,8.78-8.84,12.73-13.76,3.37-12.27,57.69-4.5,37.06,2.16-10.01,2.5-19.67-2.74-26.05,7.13h0Zm-26.08,5.67c-3.4,7.19-7.74,13.85-13.91,18.98-1.78.98-19.25,21.22-12.27,18.7,6.5-14.33,23.62-21.55,27.1-37.3.1-.53-.63-.91-.91-.39h0Z"/>
  <path d="m122.4,346.71c-2.14-.87-29.97,26.9-21.54,23.67,5.48-7.76,12.13-14.61,19.7-20.36.76-.67,3.67-2.76,1.85-3.3h0Zm100.31-209.85c-20.79-20.14-26.42-54.99-37.37-80.72-.53-1.48-2.92-.8-2.35.65,9.55,21.68,14.53,45.38,25.96,66.15.98,2.16,13.32,17.72,13.75,13.93h0Zm26.94,13.32c27.91-21.14-8.66-56.57-18.54-78.86-4.74-8.61-8.98-17.42-12.79-26.48-.58-1.37-2.85-.79-2.28.63,9.77,26.49,27.94,48.62,39.56,74.11,4.32,11.4,2.24,21.19-6.78,29.52-.48.57.11,1.46.82,1.07h0Z"/>
  <path d="m214.17,128.43c-.82,1.25-1.2,2.76-1.68,4.16,0,.87-2.64,5.01-.85,5.37,1.61.83,5.11-11.16,2.52-9.53h0Zm13.11,51.36c4.53-2.69,9.63-9.36,13.09-13.29,1.31-1.76,17.67-22.78,9.72-19.26-4.76,9.24-10.81,17.85-17.74,25.59-.9,1.28-6.4,6.18-5.06,6.96h-.01Zm-40.06-125.6c7.32,1.29,15.17-.41,21.62-3.98.65-.36.07-1.36-.58-1-6.32,3.64-13.72,4.89-20.94,4.29-.39-.02-.49.63-.09.7h0Zm-19.2-46.35c-.78,2.88-.83,6.96-1.1,9.95-.64,5.97,6.2,9.78,9.46,3.89,1.43-5.25-.66-10.85.33-16.29-1.88-3.34-.94,8.11-1.17,8.21.03,1.55.36,3.79.44,5.31-.52,6.69-8.4,5.78-8.04-.84-.56-1.97,1.9-10.33.09-10.22h-.01Z"/>
  <path d="m176.64,18.47c-1.23,3.67,4.19,5.22,6.81,3.62,6.02-3.72,2.05-12.15,3.18-17.87.07-.73-1.08-.73-1.14,0-1.02,5.2,1.72,11.18-1.21,15.88-1.82,2.06-6.17,2.35-7.07-.73-.13-.3-.16-1.03-.6-.89h.03Zm26.4-11.35c-.91,3.59.21,16.37-6.56,11.74-2.7-1.16,1.79-14.64-1.42-11.99.89,4.22-2.42,9.1.67,12.75,7.19,5.81,9.2-8.94,7.32-12.51h-.01Z"/>
  <path d="m186.02,16.17c-1.74,6.95,9.12,8.28,9.22,1.09.11-.66-.9-.94-1.01-.28-.34,6.28-8.04,4.92-7.91-.77,0-.17-.24-.2-.29-.04h-.01Zm-1.62,36.91c-27.49-1.97-30.34-54.97-19.37-47.78,2.01,1.76,2.09,4.86,2.03,7.35,2.64,3.24,1.22-9.7-3.38-9.17-5.91-.69-5.16,6.93-5.69,10.86-.76,15.48,8.99,40.83,26.4,38.75h.01Zm-15.78-46.03c1.51-2.82,4.54-3.43,7.42-3.66,3.71-2.89,7.34-1.51,11.44-1.3,2.66-1.19,7.77-1.57,7.8,2.46-.07.47.27.93.8.8,10.89-2.23,16.21,10.07,19.69,18.24,3.71,6.6,4.09,14.67-.44,21.02,1.03,4.39,5.16-8.03,4.77-9.47-1.23-11.65-9.51-33.9-24.36-31.04l.8.8c.48-3.49-3.44-5.49-6.47-4.76-1.78.21-3.45,1.51-5.19.51-4.24-1.69-7.68,1.72-11.67,1.97-1.44-.49-7.34,4.82-4.61,4.44h.02Zm26.36,76.99c12.56,1.03,25.24-5.94,33.81-14.8.62-.66-.37-1.65-.99-.99-8.27,9.83-21.4,13.4-32.83,15.78h.01Zm24.96-32.31c-8.98,7.57-20.47,12.63-32.37,12.39-.83,0-.84,1.31,0,1.3,11.1-.28,27.07-4.45,32.36-13.68h0Zm-28.23,23.75c12.19-.14,24.09-6.11,32.93-14.32.61-.57-.31-1.49-.92-.92-8.38,8.93-21.58,12.49-32.01,15.24Z"/>
  <path d="m189.2,65.86c2.74,2.39,4.66,5.61,7.3,8.05.68.44,1.33-.67.63-1.09s-1.18-1.03-1.65-1.67c-.59-.88-5.82-7.12-6.28-5.29h0Z"/>
  <path d="m201.52,62.25c-.62.62-7.72,15.42-4.19,12.57,0,0,2.14-6.27,2.14-6.27-.21-.08,3.89-7.49,2.05-6.3h0Z"/>
  <path d="m200.5,63.91c2.44,2.26,5.55,4.48,8.02,6.73,3.73.49-2.66-3.73-3.33-4.27-.63-.24-4.71-4.07-4.69-2.45h0Z"/>
  <path d="m211.26,59.23v-.06l-.2.34.07-.04-.31.04.07.02-.29-.29c-.05,1.51-.48,3.88-.6,5.44,0,0-.68,5.53-.68,5.53,1.72,3.25,1.58-6.54,1.81-6.83-.17-.7,1.26-5.53-.56-4.49-.49.52.61,1.1.67.34h.02Z"/>
  <path d="m210.62,59.86c2.03,1.57,5.18,3.76,7.27,5.33,3.25-.23-2.19-2.84-2.97-3.53-.71-.22-4.83-4.08-4.3-1.8h0Z"/>
  <path d="m218.79,53.55c-.06,1.36-2.48,13.58.13,10.78-.61-1.49,1.6-12.35-.13-10.79h0ZM82.44,732.65c2.98,8.43,18.17,22.37,26.52,22.49.13-.4-.04-.82-.41-1.02-5.38-2.27-10.19-5.22-14.5-9.19-4.29-3.67-7.36-8.42-11.1-12.58-.19-.22-.6.01-.5.29h-.01Z"/>
  <path d="m81.66,732.52c-7.13,10.7-13.2,22.05-21,32.28-1.64,1.69-16.11,28.27-9.66,24.37,3.5-12.12,10.51-22.87,17.08-33.5,4.22-6.54,13.76-16.42,13.58-23.14h0Zm12.17-8.64c-1.47,1.59-3.31,3.1-4.73,4.8-1.03,2-5.99,4.06-5.05,6.19,2.78.59,4.93-3.83,7.01-5.43.8-1.31,4.49-4.06,3.19-5.74-.17-.1-.38,0-.44.18h.02Zm-43.26,66.63c-1.54,6.59,83.95,54.98,79.49,44.66-28.5-9.3-56.41-29.36-79.5-44.66h0Zm3.24-8.67c5.72,9.32,15.87,15.11,25.12,20.41,16.96,9.44,33.58,20.05,51.96,26.54,1.07.35,1.43-1.24.45-1.64-21.61-9.05-43.12-21.62-63.03-33.94-5.02-3.46-9.61-7.47-13.75-11.94-.37-.4-1.05.12-.76.59h0v-.02Zm-1.19,4.83c16.06,19.97,43.32,28.61,64.97,41.05,9.1.34-28.43-16.43-27.1-16.55-8.63-4.53-17.32-8.89-25.13-14.78-4.23-3.22-7.96-6.84-12.2-10.13-.27-.23-.79.08-.54.42h0Z"/>
  <path d="m120.69,822.72c4.07-4.39,9.09-7.95,14.99-9.42,3.32-4.75-8.44,1.02-9.62,2.13-1.84,1.17-6.98,5.37-5.37,7.3h0Zm-43.9-69.43c-10.83,1.6-12.23,21.7-.83,23.92,11.32,2.95,23.42-11.64,14.55-20.92-4.2-3.54-12.27-5.66-16.83-1.89-1.02,1.18.71,2.9,1.71,1.71,1.3-1.56,3.91-1.28,5.73-1.16,11.94-.07,13.28,13.52,4.13,18.7-10.62,5.79-19.57-4.51-13.29-14.49.2-1.98,6.73-5.39,4.84-5.88h-.01Zm30.61,2.78c-10.93,21.67,1.44,37.79,20.16,48.8,1.2.79,2.24-1.09,1.11-1.9-12.7-8.19-29.07-22.38-21.97-38.98.15-1.01,2.95-9.46.7-7.9h0v-.02Zm1.14-2.58c1.67-2.63,6.99-4.77,8.39-.83,2.48,8.1-5.26,15.51-3.08,23.74,2.48,7.94,8.12,14.88,14.05,20.59.96.84,2.3-.47,1.41-1.41-11.26-11.62-17.42-19.94-10.09-35.95,3.24-11.27-7.97-15.5-11.65-6.52-.17.59.65.91.97.41h0v-.03Zm-7.44,26.01c-1.24-1.2-2.96,1.55-1.59,2.5,2.17,1.96,4.39-1.98,1.72-2.93-1.04-.04-.67,1-.08,1.11.07.04-.1-.08-.02-.02.05.04.23.25.1.1.05.05.2.37.12.18.03.09.1.23.1.33,0-.22,0,.17,0,.23,0,.08.03-.14,0-.03,0,.02,0,.05-.02.07,0,.06-.08.21-.02.07-.13.21-.02.12-.21.28l.05-.04c-.06.05-.13.07-.18.11-.05.03.11-.04.05-.02-.07.02-.16.05-.24.06-.08.02.14-.01.03,0-.32-.01-.23.03-.55-.09.14.05.06.02.02,0-.22-.13-.13-.05-.32-.25.13.21-.13-.26-.06-.11.04.16-.07-.35-.04-.12v-.25c-.02.22.02-.15.06-.19l-.02.05c.12-.26.22-.32.43-.53,0-.07.73-.23.65-.51h.02Z"/>
  <path d="m99.73,767.57c-.43-.5-1.2.16-1.5.55-1.13,1.89,2.15,3.16,2.73,1.08.64-1.73-2.13-2.6-1.11-.88.05.07.1.14.13.22l-.03-.07c.03.07.04.18.06.25-.04-.23.02.13,0,.17.01-.21,0,.05-.04.08-.02.08.01-.03.02-.04-.03.03-.04.09-.07.12,0,.01-.03.03-.03.05.2-.21-.3.26-.05.05-.03.03-.34.18-.13.08-.03.03-.39.07-.16.06-.04.01-.37-.03-.14,0-.05.02-.28-.12-.12-.03-.02-.02-.07-.03-.09-.05-.01,0-.08-.06-.02,0,.08.08-.08-.09-.1-.11.13.16-.05-.07-.06-.13.09.2-.05-.11-.04-.16.02.24-.01-.11,0-.15-.02.14.05-.25,0-.06.1-.18.07-.17.24-.31.01,0,.03-.03.05-.04-.09.04-.01,0,.01,0,.21-.15.56-.39.39-.69h.06Zm3.23-11.45c-1.08-.33-2.29,1.14-1.46,2.08.71.81,2.49.47,2.43-.75-.14-2.06-2.95-.41-.91-.06l-.13.02h.1l-.13-.02c.08.02.12.03,0-.01,0,0,.03.01.03.02l.03.02c-.09-.08-.07-.04,0,.02.03.03-.06-.1-.04-.05.02.03.03.07.06.1.02.04-.04-.11-.03-.06,0,.01,0,.03.01.04,0,.03.01.06.02.09l-.02-.13v.16l.02-.13s-.05.19.01.04c-.01.02-.02.08-.05.1.1-.13-.01,0-.05.03,0,0,.11-.07.05-.04-.05.03-.18.1-.04.04-.05.04-.16.03-.23.05l.13-.02c-.1.01-.21.01-.31,0l.13.02c-.11-.02-.2-.05-.3-.08.25.1-.29-.15-.06-.03-.02-.03-.14-.15-.03-.02-.04-.03-.06-.18-.03,0,0-.04-.03-.08-.02-.12v.07-.17s.01.02.01.02c-.03-.03.18-.35.13-.26.06-.06.14-.15.21-.2.14-.11.87-.43.49-.71h0l-.02-.05Zm3.3,32.84c-.16-.1-.32-.14-.51-.16-3.8.69.68,5.55,1.62,1.58-.05-2.41-3.34-1.16-1.24-.3l-.15-.02c.06,0,.11.02.16.04l-.14-.06.16.09-.12-.09s.09.08.13.13l-.09-.12c.05.07.09.14.13.22l-.06-.14c.04.09.06.19.08.29l-.02-.15c.01.09.01.19,0,.28l.02-.15c-.01.08-.03.15-.06.23l.06-.14c-.03.06-.06.12-.1.17l.09-.11c-.05.06-.1.11-.16.16l.11-.09c-.06.05-.13.09-.21.12l.13-.06c-.09.03-.18.06-.27.07l.15-.02c-.11.01-.21.01-.32,0l.15.02c-.11-.02-.22-.05-.33-.09l.13.06c-.08-.03-.17-.08-.23-.13-.03,0,.14.11.02.02-.06-.07-.14-.14-.04-.04-.03-.05-.07-.11-.09-.16l.05.13c-.03-.07-.05-.14-.06-.22l.02.14c-.01-.09-.01-.17,0-.25l-.02.14c0-.09.03-.17.06-.24-.08.18.05-.07.09-.12,0-.01.02-.03.03-.04-.18.19.27-.25.08-.08,0-.04.35-.18.13-.09.09-.03.19-.05.28-.1.04-.03-.09.03-.05.02.02,0,.04-.01.05-.02.04-.01.1-.02.14-.03.11.07.61-.44.16-.67h0l.04-.02Zm7.33,8.32v-.16l-.18.24c1.18-1.23-1.35-1.09-1.62-.05-.7,1.16.51,2.66,1.79,2.3,1.31-.33,1.32-2.41.04-2.79-1-.17-.7,1.16-.3,1.07l.1.06c-.2-.13,0-.01.03.05-.15-.2.13.22,0-.01.02.06.06.16.05.22-.04-.26.02.08,0,.14.02.03.03-.21-.03.05,0,.02-.01.04-.02.05-.03.09.06-.12.02-.04-.02.03-.03.07-.06.1-.07.11.09-.09,0,0-.04.04-.14.09,0,0-.04.02-.09.05-.13.08.18-.09,0,.01-.07,0-.1.03.14,0,.04,0-.24-.02-.1.03-.34-.06.11.03.09.04.05.02-.3-.18-.21-.08-.38-.36l.02.05c-.02-.05-.03-.12-.05-.18v.04c.01-.2,0-.1.04-.28.01-.04.06-.11,0,0,.05-.09.11-.21.16-.29-.17.17.24-.25.13-.15.07-.03.17-.12.24-.14-.14.03.22-.07.28-.07l-.49-.28c.05.19.11.37.33.43l-.18-.24c-.06.36.42.59.5.16h0l.03.03Zm7.38,6.82c.06-1.22-1.82-.82-2.05.09-.75,1.62,1.72,2.84,2.61,1.34,1.15-1.64-1.9-3.07-.95-.96l-.09-.12.11.18-.06-.14c.04.08.06.17.07.26l-.02-.15c.01.1.01.19,0,.29l.02-.15c0,.08-.03.16-.07.24l.06-.13c-.03.07-.07.14-.11.2l.09-.11c-.04.06-.09.11-.15.15l.11-.09c-.06.05-.13.08-.19.11l.13-.06c-.08.03-.16.06-.25.07l.15-.02c-.09.01-.18,0-.27,0l.15.02c-.09,0-.18-.03-.26-.07l.13.05c-.08-.03-.15-.07-.21-.12l.11.08c-.05-.04-.11-.1-.15-.15l.08.11c-.05-.06-.08-.13-.11-.2l.05.13c-.03-.08-.06-.16-.07-.25l.02.14c-.01-.09,0-.18,0-.27l-.02.14c0-.09.03-.18.07-.26l-.05.12c.03-.08.07-.15.12-.21l-.08.1c.05-.06.1-.11.16-.16l-.1.08c.06-.04.12-.08.19-.11l-.12.05c.07-.03.14-.05.21-.06l-.13.02h.22l-.13-.02.28.03-.12-.02c.06.02.4.01.26,0,.11-.02.27,0,.35-.22h0v.05Zm7.34,5.45c-3.19-1.24-2.54,4.39.45,2.68,2.38-1.8-1.44-4.54-.53-1.81l-.1-.12c.06.08.11.16.15.25l-.06-.15c.04.1.07.21.09.32l-.02-.16c.02.13.02.25,0,.38l.02-.16c-.02.11-.05.22-.09.32l.06-.14c-.04.1-.09.18-.15.27l.09-.12c-.17.19-.09.1-.28.23l.14-.06c-.09.04-.18.06-.27.07l.16-.02c-.12.01-.23.01-.35,0l.16.02c-.45-.14-.36-.09-.57-.39.12.24-.05-.08-.02-.14l.02.14c0-.06,0-.32,0-.11-.01-.02.02-.11.03-.12.01-.06.03-.07.11-.21.03-.05-.08.1-.03.03.02-.03.09-.1.12-.13.01,0,.03-.03.04-.03-.21.12.25-.13.12-.07-.14.04.37-.1.13-.05.1,0,.22,0,.32-.02h-.02c.35,0,.56-.47.29-.72h0v.02Z"/>
  <path d="m127.89,810.8l.06-.03h-.51c.79.34,2.46-.94,2.83-1.62.13-1.87-1.79-1.21-2.38-.07-.31.38-.83.87-.68,1.41l.05-.39c-.35.4.19.99.64.72v-.02Zm-4.84-11.24c.76-.73.47-2.54.7-3.51-.23-1.51,1.51-3.98-.13-4.89-.47-.13-1.16.16-1.23.7.01,2.22-1.32,6.39.66,7.7h0Zm-7.77-5.84c.61-1.09.63-3.11,1.04-4.32,0-1.71,2.61-4.43.75-5.57-.56-.15-1.04.19-1.23.7-.5,1.2-2.58,9.69-.57,9.19h.01Zm-5.88-8.04c1.2-3.33,2.98-8.05,5.41-10.65.94-.95-.54-2.45-1.47-1.47-1.58,1.16-6.95,12.7-3.94,12.12h0Zm-4.67-8.79c1.27-1.63,3-4.44,4.77-6.23,1.36-2.58,6.76-4.77,6.65-7.31-1.69-3.08-15.12,12.7-11.42,13.54Zm1.38-11.16c3.6-2.72,6.99-6.24,11.25-8.03,3.24-6.6-15.41,7.15-11.25,8.03h0Zm22.35,34.08c-2.45,1.01-6.27,2.46-8.4,4.03-1.27.77.15,2.63,1.24,1.6.62-.89,9.03-5.62,7.15-5.63h.01Z"/>
  <path d="m126.34,793.85c-4.66-.19-9.74,1.7-14.05,3.48-1.66.52-.6,3.03.93,2.18,2.37-1.37,4.97-2.34,7.56-3.2.75-.52,6.6-1.1,5.56-2.47h0Zm-6.06-6.73c-.66-1.18-21.05,2.12-13.56,3.86,3.56-1.29,8.48-1.99,12.2-2.88.66-.11,2.29-.03,2.13-1.07-.07-.44-.79-.33-.77.1h0Zm-3.74-6.13c-4.9-1.39-10.51-1.51-15.59-1.72-1.29-.02-1.29,1.98,0,2l7.86.24c.78-.23,9.18,1.16,7.73-.51h0Zm-2.28-5.78c-.39-2.16-18.75-10.6-14.59-5.03,4.85,1.15,9.82,3.26,14.13,5.63.37.27.72-.29.46-.6h0Zm2.27-12c-2.91-3.21-9.2-4.95-13.09-6.59-1.18-.45-1.71,1.47-.52,1.9,3.85,1.5,9.68,3.19,13.25,5.17.29.17.6-.22.36-.47h0Z"/>
  <path d="m102.92,757.81c1.6-.68,19.58.68,14.86-2.3.08.31-16.94,1.21-14.86,2.3h0Z"/>
  <path d="m112.18,756.61c-22.71,11.68-13.03,35.88-.97,13.54,1.55-1.49,3.65-16.71-.37-11.67,2.34,15.74-16.52,26.69-8.52,10.2.69-3.13,11.79-11.41,9.85-12.07h.01Z"/>
  <path d="m111.85,756.75c-4.1,5.72-1.78,16.3,3.79,20.67,2.47,2.42,7.11,2.58,7.73-1.53,1.03-6.13-3.16-11.76-6.55-16.46-1.34-1.7-2.86-2.94-5.01-3.04-1.57-.07-1.58,2.42,0,2.45,4.85,1.57,11.38,12.87,8.92,17.8-3.83,1.48-7.16-4.51-8.08-7.68-.76-3.5-1.21-7.73.09-11.07.63-.61-.17-1.47-.88-1.14h0Z"/>
  <path d="m93.84,786.65c.73-11.8,6.89-23.57,18.06-28.5,1.26-.59.16-2.48-1.1-1.88-10.54,4.54-21.55,20.11-16.95,30.36h0v.02Z"/>
  <path d="m128.19,781.8c2.55-10.89-4.08-21.22-14.21-25.2-1.24-.65-2.34,1.2-1.1,1.89,10.92,4.6,13.96,12.13,14.37,23.32.18.46.75.46.93,0h.01Zm8.78,32.46c-1.37,1.05-1.45,3.83-1.79,5.44-1.5,6.62-3.74,13.74-6.78,19.78,1.17,8.39,12.13-24.85,8.58-25.23h0Zm32.95,13.91c-2.98.29-10.6,25.71-5.09,20.06.54-6.05,2.57-11.81,4.89-17.38.15-.63,1.32-2.61.2-2.68h0Zm-44.24,11.79c-2.68,7.77-6.16,15.72-9.85,23.08-6.31,12.47-6.76,26.99-13.65,39.23-.66,1.23,1.23,2.34,1.88,1.1,7.78-16.01,9.32-34.2,18.54-49.7.67-1.83,7.23-15.28,3.07-13.72h0Zm1.7,1.95c3.13,13.3,30.33,17.59,24.18,12.15-7.2.74-14.28-2.47-19.15-7.69-1.28-.95-3.78-5.52-5.04-4.45h.01Z"/>
  <path d="m151.13,856.49c-7.6,31.15,22.58,46.63,44.02,61.31,1.12.79,2.22-1.08,1.08-1.85-15.45-11.69-37.3-21.3-42.88-41.38-1.87-2.6.45-20.17-2.22-18.08h0Zm-42.97,39.91c19.84,21.53,46.75,38.77,75.81,43.85,12.97.84,27.69-2.85,37.27-11.86,3.12-7.47-6.37-12.77-11.8-15.73-7.35-4.51-14.33-9.67-21.01-15.12-10.31-8.69-22.58-18.18-23.53-32.73-.44-6.15,1.96-13.8-4-18.12-5.26-3.48-11.99,1.71-13.37,7.04-.46,1.56,2.05,2.31,2.52.69,2.56-8.12,11.97-8.7,12.69.85-.77,7.71-.3,15.69,3.54,22.64,8.96,14.16,23.56,23.99,36.97,33.68,5.44,4.45,14.84,6.45,16.17,14.29-31.8,29.28-78.25-2.3-104.62-25.52,0,0-5.5-5.07-5.5-5.07-.77-.69-1.74.33-1.12,1.12h-.02Z"/>
  <path d="m220.53,930.01c-3.52,10.83-16.71,12.86-26.49,14.73-34.09,5.02-62.78-18.96-86.63-40.28-1.15-1.08-2.87.63-1.73,1.73,23.9,21.53,53.12,45.14,87.36,40.68,10.22-1.87,27.02-4.02,28.41-16.73-.02-.52-.76-.63-.91-.12h0Zm-113.78-29.84c.83,2.27,3.81,4.68,5.44,6.46,10.71,9.47,22.33,18.37,34.79,25.43,5.21,2.61,11.1,4.66,16.68,6.89,5.37,1.79,13.41,6.3,19.26,5.16,1.48-.24.86-2.51-.62-2.26-5.07.71-12.1-3.31-16.88-4.71-10.82-3.84-21.6-8.75-30.57-15.8-8.39-5.82-16.47-11.89-23.84-18.92-.78-.7-4.29-4.39-4.26-2.25h0Zm80.2,37.72c1.85-10.41,7.37-20.39,16.53-26.02,1.08-.68.08-2.4-1-1.71-9.24,5.82-16.53,16.41-16.57,27.59,0,.58.92.74,1.04.14h0Zm1.62-21.14c-1.27-2.36-4.18,2.53-.53,2.63,1.86.27,2.29-3.63.38-3.02-.23.24-.2.61.06.82.03.04.06.1-.02-.03.05.03.18.39.1.15.04.04.09.45.07.2.01.04-.02.52,0,.23.02.05-.15.45-.05.21-.14.23-.06.11-.2.28-.04.04-.09.04.02-.01-.23.13-.11.08-.39.15.23-.04-.06.02-.1,0-.05.01-.25-.03-.05,0-.09-.01-.23-.05-.31-.08.2.06-.13-.06-.15-.11l.04.03c-.06-.03-.2-.23-.1-.09-.02-.05-.07-.12-.1-.17-.06-.1.03.1,0-.01,0-.04-.06-.24-.02-.07-.02,0,0-.12,0-.13,0,.15,0-.04.02-.09.03-.05.02-.04,0,.03.14-.27.2-.34.47-.6l-.05.04c.1-.04.2-.16.3-.19l-.05.02s.09-.05.13-.04h-.05.1c-.08,0-.06,0,.05,0-.07.02.42.06.42-.18h0v.03Zm-11.75-7.69c-2.95-1.22-2.68,4.17.18,2.65,2.31-1.71-1.7-4.66-.53-1.68l-.06-.14c.06.14.1.29.12.44l-.02-.15c.01.11.01.23,0,.34l.02-.15c0,.09-.04.18-.07.27l.06-.14c-.03.08-.08.15-.13.22l.09-.12c-.05.06-.1.11-.16.16l.12-.09c-.07.05-.13.09-.21.12l.14-.06c-.08.03-.17.06-.26.07l.15-.02c-.1.01-.2.01-.29,0l.15.02c-.09-.01-.18-.04-.26-.07l.13.06c-.17-.1-.07,0-.24-.18.17.2-.06-.08-.06-.14l.05.13c-.04-.09-.07-.19-.08-.29l.02.14c0-.1,0-.2,0-.3l-.02.14c0-.09.04-.18.07-.27l-.02.05.06-.1c.08-.08.17-.19.51-.26-.15,0,.07,0,.11-.01.15.11.99-.22.42-.67h0v.03Zm-11.28-9.63s-.08-.05-.1-.04c.08.12.03,0,0-.04-.53-.59-1.72.07-1.87.82-.42,2.02,2.69,2.57,3.04.56.5-2.24-3.17-2.51-1.19-.66-.14-.21.09.14.1.18-.1-.24.04.15.04.19v-.09s0,.16,0,.2c0,.07.03-.15,0-.04,0,.05-.02.1-.04.15,0,.04-.04.06.02-.04-.01.05-.2.3-.06.13-.03.06-.26.25-.11.13-.07.04-.15.09-.22.12.1-.07.07-.03,0,0-.04,0-.08.03-.12.03-.11.03.13,0,.02,0h-.14c-.07,0,.14.03.04,0-.03,0-.06-.01-.08-.02-.03,0-.1-.05-.17-.1-.01-.01-.14-.15-.06-.05-.03-.05-.16-.28-.09-.13-.06-.22-.04-.14-.05-.33v.07s0-.09,0-.11c0-.04.04-.1.04-.13-.06.14.05-.08.08-.11-.09.09.07-.06.1-.1.07-.06-.07.05,0,0,.02-.02.23-.13.13-.09.09-.03.23-.08.31-.1-.1.02.21-.05.22-.13-.05.05.06-.06.06-.07l-.07.07h.02s-.06,0-.08.01c.17.11.37-.1.2-.24h0l.02-.04Zm-9.38-9.13c-1.88-.78-2.68,2.83-.6,2.86,1.54.02,2.29-2.7.44-2.76-.81.02-.68,1.26.11,1.14l-.15-.02s.04.01.07.01c.06.01-.12-.07-.05-.02.02.01.09.06,0,0s0,0,0,.01c.06.06-.04-.04-.04-.05,0,0,.03.06.04.06.01-.03-.06-.13,0,.04l-.02-.15v.2l.02-.15c0,.06-.04.18-.06.23.07-.16-.03.05-.07.1-.07.1-.13.16-.26.24,0,0-.03.01-.04.02-.06.03.11-.04.04-.02-.03,0-.06.02-.09.03-.02,0-.09.02,0,0s.02,0,0,0h-.06c-.06,0,.08,0,.07,0-.02,0-.14-.05-.05,0,.08.04-.02-.02-.04-.03,0,0-.06-.04,0,0,.08.06-.03-.04-.04-.05-.05-.05.06.09.03.03-.02-.04-.13-.22-.06-.08-.03-.06-.07-.32-.06-.13,0-.06,0-.31,0-.12.05-.25.04-.21.18-.43.02-.04-.04.05-.04.05.17-.2.15-.15.34-.3.04-.04-.08.06-.03.02.28-.15.83-.42.4-.75h0v.02Zm-5.5-10.86c-1.26-2.98-3.84,2.71-.27,2.38,1.78-.44,1.25-2.73-.33-3.04-.78-.15-.87.98-.12,1.07-.13-.06.36.17.41.23-.13-.1.09.08.12.14-.12-.12,0-.02.02.04.01.02.05.12.02.04-.02-.11,0,.07.02.09.03.1,0-.1,0-.03,0,.03,0,.11,0,.14,0-.18,0,.04-.02.08-.03.05-.02.04,0-.03,0,0-.14.24-.06.11-.04.05-.09.11-.14.15-.05.05.1-.07,0-.01-.03.03-.18.09-.05.04-.05.03-.26.04-.11.04-.04.01-.33-.02-.12,0-.05,0-.29-.06-.16-.04-.27-.12-.35-.24-.41-.42-.04-.16-.03-.19-.03-.4-.03.09.07-.31.18-.41-.06.06.15-.17.24-.19-.07.04,0,0,.03,0,.08-.03,0,0,0,0h.07c-.07,0,.06,0,.07,0-.12-.03.08.03.12.05-.07-.03,0,.01.02.02.03.11.42.23.49-.05h.01Zm-3.07-10.21c.93.01,0-1.01-.57-.6-1.7.55-1,3.27.74,2.96,1.46-.15,1.16-3.12-.25-2.74-.59.29-.02,1.1.05,1.18.02.07.06.2.08.28-.03-.09.01-.07,0,.01,0,.03,0,.18,0,.07s0,.02,0,.04c-.02.08-.03.11,0,.01-.03.06-.1.19-.02.06-.01.02-.15.13-.05.05.07-.05.02-.01,0,0-.03.02-.06.01,0,0,.09,0-.06,0-.07.01.12-.03.01.02-.04,0-.12,0,.1.03,0,0-.18-.05-.06,0-.22-.09,0,0-.02-.02-.04-.02.16.11-.09-.09-.11-.12l.03.04-.06-.1s-.06-.14-.03-.03c-.02-.07-.04-.15-.07-.22v.04-.17c-.02.14.02-.11.05-.14,0,.01-.05.09,0,.02.01-.04.15-.22.08-.13.02-.03.23-.22.13-.14.04-.04.34-.2.24-.15.05,0,.31-.09.22-.09h.02c-.1,0,.31-.02-.04-.02l-.08-.08.04-.16c-.11.06-.09.19,0,.26h0v-.03Zm.24-10.71c0-.1-.02-.18-.09-.25-1.01-.77-2.19,1.06-1.52,2,.62,1.21,2.55.79,2.57-.58-.22-2.31-3.33-1.67-1.25-.22.05.05.08.14.12.19-.08-.16.02.04.02.11l-.02-.15v.19l.02-.15s-.07.24-.02.11c.04-.1,0,0-.02.03-.07.11-.03.02,0,0,0,0-.05.05-.05.06,0,.01-.1.09-.03.03s-.02.01-.04.02-.12.06-.03.02-.02,0-.04.01-.14.03-.04.01c.12-.02-.06,0-.08,0-.06,0,.11.02.05,0l-.17-.05.04.02s-.22-.15-.08-.04c-.02-.03-.07-.06-.1-.1-.06-.07-.04-.02,0,0-.02-.03-.07-.1-.08-.13.01-.06-.05-.11-.03-.3,0,.12.05-.25.15-.32,0-.01.05-.07,0-.01-.06.08.07-.08.09-.1,0-.02.04-.03.05-.05-.06.03.19-.11.09-.06.23-.1.36-.02.46-.32h0l.02.02Z"/>
  <path d="m188.34,917.65c3.45-3.07,6.27-7.55,10.48-9.91,2.49-6.93-13.4,8.31-10.47,9.92h0Zm1.39-5.47c.35-3.27.74-7.94,1.81-11.03-2.45-6.62-4.44,12.67-1.82,11.03h0Zm-11.03-7.7c.27-3.01,1.59-7.15,2.37-10.1-1.65-5.2-4.25,11.9-2.38,10.11h.01Zm-10.9-8.16c.6-4.03,1.9-8.18,3.49-11.93-1.47-6.91-6.12,13.54-3.5,11.94h0Zm-8.67-9.11c1.11-5.01,3.19-9.77,5.72-14.25-.9-6.77-8.29,15.28-5.71,14.25h-.01Zm-5.32-9.61c2.15-4.81,5.21-9.18,8.96-12.89.74-7.18-11.92,13.14-8.96,12.89h0Zm-1.7-10.98c2.81-4.4,7.02-7.76,11.58-10.22,1.78-4.54-6.56,2.24-7.32,3.44-.79.93-6.08,6.86-4.27,6.77h.01Z"/>
  <path d="m194.51,904.07c-1.79-.91-24.63,6.57-17.31,7.71,5.69-2.67,11.51-4.93,17.39-7.13.3-.11.28-.59-.08-.58h0Zm-8.23-5.97c-1.34-.29-26.28,1.06-20.25,3.37,6.72-.63,13.35-2.78,20.09-2.81.37.05.54-.52.16-.57h0Zm-8.04-7.49c-1.1.19-27.27-1.89-21.74,1.77,3.75-.25,13.06-1.71,16.69-1.27.79.16,6.51.8,5.04-.5h.01Zm-9.59-10.01c-4.46-3.14-12.85-1.4-17.95-1.55-1.09.07-1.12,1.72,0,1.72,5.12.16,12.88-1.19,17.72.37.33.11.51-.37.23-.54h0Zm-3.43-8.61c-1.17-1.09-23.23-5.4-17.19-1.22,2.83-.32,5.58.51,8.43.38.46-.17,10.63,2.3,8.77.84h-.01Zm-2.01-7.23c-2.38-1.08-4.41-3.37-7.04-4.19-1.31-.88-12.26-3.59-8.03.1,5.61-.02,10.19,3.49,15.07,5.32.77-.06.8-1.22,0-1.22h0Z"/>
  <path d="m147.19,859.88c4.72-1.64,12.14-1.98,17.07-3.2,1.09-.21.63-1.9-.46-1.67-1.77.67-18.42,3.34-16.61,4.87Z"/>
  <path d="m155.82,857.3c-24.36,23.97,6.42,37.23.93,1.03-.3-1.32-2.39-.76-2.03.56.98,3.7,1.12,7.59.43,11.36-2.07,13.45-10.2,9.52-5.14-1.91,1.82-3.56,3.07-7.79,6.1-10.52.3-.22.03-.72-.3-.51h0Z"/>
  <path d="m156.26,857.4v-.07l-.23.37.08-.03-.35-.14c3.7,34.68,32.53,15.01,1.15-2.69-1.22-.84-2.37,1.15-1.16,1.98,26.82,15.36,6.88,30.56.49.34-.22-.23-.68.03-.58.33.08.4.68.32.59-.1h.01Z"/>
  <path d="m139.92,891.95c.33-12.38,5.61-26.16,16.21-33.23,1.09-.68.08-2.42-1.01-1.73-10.61,6.83-17.74,24.3-15.2,34.97h0Z"/>
  <path d="m185.75,877.38c-.5-12.53-35.3-27.33-28.37-18.99,11.09,1.78,22.23,9.25,27.02,19.56.38.8,1.52.21,1.36-.57h-.01Zm-63.5-129.42c-1.45.46-4.41,3.06-2.93,4.56,1.4.79,2.17-2.1,2.64-2.38.49-.59,1.68-1.87.29-2.18h0Zm78.57-345.79c-3.43,13.62,21.86,37.12,19.07,28.44-12.44-7.29-15.1-16.6-19.05-28.44h-.02Z"/>
  <g>
    <path class="cls-6" d="m112.79,110.36c-60.22-.9-29.91,173.1-29.03,213.35,0,0,.16,1.63.16,1.63.18,1.9,3.19,1.92,3,0-3.9-51.98-12.04-111.32-6.24-163.24,1.76-19.28,8.04-48.55,32.1-48.73,1.93,0,1.93-3.01,0-3h.01Z"/>
    <path class="cls-6" d="m111.99,106.45c-32.92,1.28-37.99,40.74-39.4,66.6-5.07,50.57-.23,101.38,8.68,151.25,0,0,.46,2.58.46,2.58.34,1.9,3.23,1.09,2.89-.8-10.83-60.91-16.45-124.38-4.45-185.44,9.91-39.55,40.53-27.49,31.83-34.18h-.01Zm-1.33-4.28c-47.38,3.32-44.33,79.12-43.98,113.94,1.45,32.19-1.71,76.14,9.43,106.7,0,0,1.7,5,1.7,5,.64,1.81,3.54,1.03,2.89-.8-12.8-32.54-9.24-70.67-10.81-104.92-.46-33.31-5.09-105.84,35.64-116.47,1.7-.31,3.41-.45,5.13-.47,1.93-.03,1.93-3.03,0-3h0v.02Z"/>
    <path class="cls-6" d="m109.16,97.74c-72.92,9.65-43.33,173.45-36.99,224.74,0,0,1.31,8.74,1.31,8.74.29,1.9,3.18,1.09,2.89-.8-8.58-64.32-21.48-132.4-3.27-196.09,5.69-16.11,17.41-32.59,36.04-33.59,1.92-.13,1.93-3.13,0-3h.02Zm-2.16-4.2c-72.76,9.37-49.47,179.49-39.81,231.19,0,0,1.62,7.89,1.62,7.89.4,1.89,3.29,1.09,2.89-.8-12.25-64.15-20.13-135.7-2.74-199.44,5.92-15.57,16.69-30.93,33.77-34.95,1.67-.44,3.37-.77,5.08-1.02,1.9-.28,1.09-3.17-.8-2.89h0v.02Zm9.9,19.91c28.7,6.96,27.35,56.42,30.68,80.21,1.5,16.56,6.05,55.54,8.1,72.4.23,1.89,3.24,1.91,3,0l-7.93-70.59c-2.06-21.73-3.22-45.06-11.77-65.37-4.61-16.5-28.02-24-22.08-16.65Zm-.74-4.38c26.98,3.98,30.56,40.31,34.06,62.2,3.37,24.95,7.56,64,9.85,89.1,0,0,.73,6.79.73,6.79.21,1.9,3.21,1.92,3,0-2.48-25.69-6.69-66.99-10.11-92.4-2.37-20.24-5.69-41.25-17.85-58.28-3.64-4.59-8.74-7.74-14.35-9.35-1.92-.25-5.22-2.15-6.37.1-.2.7.25,1.73,1.05,1.85h0Zm-.22-4.58c37.4,6.48,36.14,54.81,42.05,84.22,2.27,18.45,6.68,56.58,8.48,74.93,0,0,.27,2.71.27,2.71.19,1.9,3.19,1.92,3,0-1.74-17.99-6.16-56.42-8.36-74.59-3.79-22.24-4.87-45.8-14.65-66.42-9.23-22.83-38.84-28.04-30.8-20.85h0Z"/>
    <path class="cls-6" d="m114.27,100.1c20.66,1.14,34.12,21.04,36.34,40.17.48,3.09.79,6.22.88,9.35.06,1.93,3.06,1.93,3,0,.11-23.64-14.06-51.26-40.21-52.52-1.95-.08-1.9,2.92,0,3Z"/>
    <path class="cls-6" d="m112.24,95.56c14.51-.05,28.38,10.45,33.59,23.8,1.02,2.63,1.76,5.37,2.25,8.14.33,1.9,3.22,1.09,2.89-.8-2.75-18.37-19.96-34.27-38.74-34.15-1.92.1-1.93,3.1,0,3h0Z"/>
    <path class="cls-6" d="m109.89,91.51c13.66-1.39,26.28,7.37,32.22,19.32.89,1.71,3.48.2,2.59-1.51-4.61-8.83-12.33-16.31-21.93-19.38-2.04-1.33-19.57-3.2-12.88,1.57Z"/>
    <path class="cls-6" d="m107.89,87.51c12.39-1.45,23.38,6.3,29.73,16.43,9.81,3.26-9.41-15.82-12.18-15.93-1.71-2.48-24.95-6.37-17.55-.5Z"/>
  </g>
  <path d="m122.25,191.79c-7.92,5.98-13.14,2.3-21.66.43,3.17,1.42,9.28,2.79,13.51,3.51,2.86-.37,6.17-2.19,8.15-3.94h0Zm-14.12-15.15c-5.53-1.64-6.43,6.57-.7,6.16,3.17-1.43,6.01,1.18,9.12.46,1.84-.98,4.97.01,4.95-3.03.59-1.92-3.79-4.28-2.36-1.95,2.06.56,1.74,4.12-.62,3.4-4.29,1.96-7.23-1.3-11.65.25-1.84.07-3.47-2.46-1.96-3.88.45-1.03,3.83-.67,3.23-1.42h0Zm15.27,14.39c-2.88,12.46-18.14,9.19-24.13.99-.32-.38-.86.17-.54.54,5.97,8.79,24.34,11.65,24.66-1.54h0Zm.15-1.14c-3.45-1.23-6.9,1.73-10.04,1.2-1.07-1.79-17.04-1.35-14.63.46,2.14-.36,4.3-.59,6.47-.69,2.54-.02,5.52-.38,7.75,1.02.68.49,1.49.52,2.24.19,1.17-.5,3.6-1.28,4.85-1.52.71-.49,3.86.35,3.37-.66h-.01Zm-14.51-30.84c-3.3-12.14-13.7-6.79-22-4.45-.71.11-.41,1.19.3,1.08,9.94-2.61,15.02-6.94,21.7,3.37h0Z"/>
  <path d="m108.19,159.42c-7.26,1.56-15.06.61-21.19-3.8-.65-.44-1.26.61-.62,1.05,5.55,3.84,17.04,7.03,21.8,2.75h0Zm11.14,1.15c5.37-8.93,10.37-4.24,17.23-.57,2.69-.69-3.82-2.7-4.35-3.78-4.18-4.15-13.22-1.26-12.89,4.36h0Z"/>
  <path d="m119.37,160.75c3.45,4.5,21.19.99,16.91-.64-5.67,3.04-11.56,2.42-16.91.64h0Zm-32.6-13.23c7.26-3.79,16.2-4.52,23.29.17,1.1.68,2.11-1.06,1.01-1.73-7.31-4.4-18-4.62-24.63,1.12-.17.24.14.49.33.44Zm51.82,3.71c-3.68-5.93-12.9-7.33-19.09-4.46-.51.21-.62.96-.36,1.39,1.19,1.29,3.16-.75,4.7-.7,4.6-.97,9.6.18,13.22,3.2.4.32,1.12,1.21,1.53.56h0Zm-24.68,10.07c-1.47,1.16,1.4,17.84,2.92,13.72-2.55-4.05-2.17-9.83-2.93-13.72h0Z"/>
  <path class="cls-6" d="m106.48,84.1c15.09-2.39,27.78,9.15,34.54,21.56,2.07,3.8,3.63,7.83,4.73,12.01.49,1.87,3.39,1.07,2.89-.8-4.92-18.58-21.04-38.63-42.15-35.76-1.89.24-1.91,3.25,0,3h-.01Z"/>
</svg>