<svg xmlns="http://www.w3.org/2000/svg" width="138" height="146" fill="none" ><style><![CDATA[.B{fill:#070d1c}.C{opacity:.33}]]></style><g clip-path="url(#D)"><mask id="A" maskUnits="userSpaceOnUse" x="0" y="0" width="138" height="146"><path d="M0 0H138V146H0V0Z" fill="#fff"/></mask><g mask="url(#A)"><path d="M44.267 84.815c.828 1.314 7.474 11.476 19.91 12.7 10.678 1.051 21.283-4.914 26.645-15.093l3.729-.234c-3.011 6.722-6.666 17.029-7.193 29.793-.576 13.943 2.425 20.898 6.314 35.962 7.547 29.224-1.147 29.965 4.779 57.468 5.16 23.951 6.798 38.372 18.182 46.321 3.68 2.57 8.679 4.769 12.097 10.812 4.1 7.252 3.362 15.512 2.03 21.494l-.188 13.08c-3.249-.706-8.211-1.524-14.252-1.425-14.133.233-19.041 5.231-31.699 5.542-10.843.267-8.537-3.369-20.834-3.549-12.555-.184-19.971 3.534-32.723 2.824-5.305-.295-7.957-.442-11.53-1.564-2.931-.92-4.783-1.954-8.128-2.292-3.067-.31-5.657.709-7.405 1.158a232.79 232.79 0 0 0 .046-10.723c-.135-6.83-.597-13.25-1.266-19.207l27.947-119.015 13.538-64.054.001.002z" fill="#aaa9a9"/><path d="M34.987 86.244l-4.161 1.461c-1.945.773-3.843 1.658-5.685 2.65 0 0-5.637 3.254-10.012 9.293C3.512 115.686.332 152.58.332 152.58c-.769 9.231-.852 15.88-.852 15.88-.111 4.952-.005 6.761-.241 11.401-.249 4.869-.558 6.632-1.161 12.907-1.54 16.027-.369 13.338-1.415 19.479-1.253 7.36-3.177 12.644-.178 15.971.616.683 1.278 1.105 1.745 1.357l.089 9.508 3.286.249-.731 11.875c-.497-.25-1.49-.662-2.545-.486-.468.079-.686.229-.816.354-.387.376-.401.941-.403 1.18-.032 3.213-.048 4.819.068 5.307 1.371 5.82-.009 7.196 1.392 9.147 1.882 2.621 5.354 2.184 17.236 2.149 13.624-.04 16.029.513 17.661-1.617 1.646-2.149.581-4.426-1.27-14.848-.336-1.891-1.969-11.088-2.396-17.468-.498-7.438.572-12.115 1.998-20.521 3.737-22.017 5.605-33.024 4.754-45.67-.875-13-3.553-14.34-1.955-22.829 2.187-11.619 8.281-14.829 10.767-23.65 2.054-7.291 1.724-18.703-10.378-36.011zm61.59 183.216l-3.715-21.546-5.552-33.611c-2.02-20.449-3.198-32.382 1.035-46.227 1.349-4.411 3.935-11.265 3.702-21.011-.118-4.915-.843-5.961-2.219-14.321-1.926-11.701-3.405-20.685-2.099-30.369.632-4.691 2.225-11.824 6.821-20.188 3.013-.294 8.196-.377 13.837 1.91 1.914.776 6.015 2.689 10.516 7.423 2.868 3.016 8.058 9.447 14.178 34.041 2.831 11.378 4.717 18.958 5.697 27.323.149 1.27.939 8.221 2.989 16.016.645 2.453 1.074 4.038 1.873 6.253 1.866 5.18 3.532 7.305 4.823 13.891 1.855 9.468-.738 8.838 1.329 19.315 1.394 7.061 3.722 13.064 1.122 15.188-.822.671-1.884.749-2.66.709a60.05 60.05 0 0 1 1.185 5.987c.604 4.142.266 4.827.075 5.131-1.047 1.667-3.612 1.305-9.001 1.332-9.758.05-13.118 1.295-14.52-.845-.895-1.365-.87-3.92-.857-5.267.018-1.779.341-3.072-.482-4.139-.549-.712-1.372-1.015-2.01-1.159l4.178 14.952 2.462 9.293c.615 1.424 1.107 2.898 1.472 4.405 1.076 4.444.835 8.34.41 11.021a103.83 103.83 0 0 1-18.45 3.876c-5.355.625-10.752.832-16.139.617z" fill="#93153c"/><path d="M45.831 84.874c5.083-.729 4.121-3.892 4.121-3.892l-.221-5.389s-.863-.201-6.878-8.665-5.633-19.207-5.633-19.207l.195-7.393 5.77-24.061L63.408 6.063l20.852 15.7 5.395 19.702s-1.202 13.883-3.208 17.913l-4.612 9.058 6.314 16.145s-3.525 4.519-6.827 7.57-9.132 4.293-14.198 5.25-13.309-3.402-17.14-5.531-4.031-6.231-4.031-6.231c-.155-.065-.124-.766-.124-.766l.002.001z" fill="#81634b"/><path d="M-2.555 256.704c-.134.224-.139 6.737.199 7.842s.26 3.253 3.497 3.477 21.491.604 21.625.884 8.771-.095 9.865-.87 2.083-1.724 1.811-3.101-1.297-7.785-1.745-9.351-2.192-9.395-2.416-11.318-.657-8.952-.574-11.142.465-9.24.974-12.22l2.479-14.566 1.954-10.882c.403-2.371 1.611-10.245 1.655-12.795s.313-9.063 0-11.712l-1.074-8.464-1.234-7.885c-.249-1.783-.063-6.756.071-8.339s.716-4.714 1.342-5.922l2.572-4.94 2.702-5.478c-.04-.096-1.963-24.516-2.008-24.586S35.249 86.62 35.249 86.62s-1.436-.001-1.44 0l-2.703.975-.771.308c-.092.038.664 2.553 1.022 3.582s2.852 12.752 2.791 15.032.249 8.272-.913 13.732-3.615 14.408-4.044 16.467-1.682 8.052-1.682 10.111-.492 8.007.537 12.616 1.074 9.618 1.253 12.124-.09 13.421-.403 16.374-1.566 11.364-2.058 13.958l-4.385 23.353c0 .179-1.297 11.095-1.521 13.154s-.537 13.93-.537 13.93l-16.777-1.277-4.522.045s-2.149-1.426-1.99 1.527.338 4.072.338 4.072l.001.001zm115.903-5.113c.274.069 11.509-2.857 12.948-2.696s2.612.047 3.617 2.697l1.11 3.013s-.873.571-1.37 2.604-.984 7.15-1.04 8.336c0 0-7.553 2.398-13.259 2.957s-11.115 1.677-14.269 1.34-4.508-.381-4.508-.381-1.297-9.31-1.726-10.883-3.599-18.36-3.599-18.36c-.374-3.083-3.114-17.949-3.32-20.278l-1.576-16.099c-.276-2.741-.464-15.968-.163-19.767s.782-9.179 1.637-13.408 2.736-9.196 3.131-11.885 1.899-8.855 1.284-10.98-1.528-8.68-1.94-11.673l-2.181-14.414c-.176-1.378-1.513-13.921-1.127-18.031s3.167-12.921 4.14-14.922 3.413-6.573 3.413-6.573 5.217-.6 7.006 0 1.939.511.357 2.919-4.749 9.269-5.461 11.798-2.682 10.974-2.108 17.405 3.246 18.078 3.794 19.996 2.124 10.824 1.713 15.345-1.644 10.687-2.466 13.702-2.985 11.715-3.342 15.038-1.169 12.227-.695 15.584 2.187 16.579 3.009 19.73 3.7 17.812 4.316 19.867 2.435 11.301 2.656 13.29.846 5.475.846 5.475 4.856-.123 6.568-.298l2.603-.449.002.001z" fill="#7a1c3e"/><path d="M49.314 48.941s2.037.903 3.52.328 3.714-1.796 4.011-2.371-2.338-2.51-3.457-2.8-4.508-.074-5.567.429-1.733 1.874-.761 2.841 2.547 1.46 2.254 1.573zm23.442.495s2.816-.536 3.731-1.211 2.545-2.145 1.212-3.229-5.246-1.056-5.246-1.056-1.894.428-2.694 1.129-2.017 2.205-2.017 2.205 1.336 1.074 2.017 1.294l2.997.868z" fill="#fff"/><path d="M53.955 45.58c-.179-.465-.472-.895-.926-1.133a2.09 2.09 0 0 0-1.149-.231c-.137-.06-.283-.1-.45-.117a1.8 1.8 0 0 0-.626.047c-.473.124-.911.481-1.149.906-.489.87-.287 2.094.504 2.724a2.83 2.83 0 0 0 .801.458c.217.084.454.112.684.134.238.023.483-.012.716-.058.226-.045.453-.14.653-.251.853-.472 1.295-1.555.939-2.48l.003.001z" fill="#7f4530"/><path d="M52.692 45.647a.79.79 0 0 0-.237-.329l-.223-.154c-.17-.087-.35-.126-.541-.116l-.293.055-.249.121a.81.81 0 0 0-.285.291c-.062.07-.105.151-.125.243a.53.53 0 0 0-.059.273.55.55 0 0 0 .015.284c.006.097.035.185.087.266.05.13.13.241.239.332l.225.156.261.094.286.023.282-.053.249-.121a.81.81 0 0 0 .285-.291.54.54 0 0 0 .125-.243.8.8 0 0 0 .07-.416c0-.145-.038-.29-.112-.415z" class="B"/><path d="M74.93 45.58c-.179-.465-.472-.895-.925-1.133a2.09 2.09 0 0 0-1.149-.231c-.137-.06-.283-.1-.45-.117a1.8 1.8 0 0 0-.626.047c-.473.124-.911.481-1.149.906-.489.87-.287 2.094.505 2.724a2.82 2.82 0 0 0 .801.458c.217.084.455.112.685.134.238.023.483-.012.716-.058a2.31 2.31 0 0 0 .653-.251c.853-.472 1.295-1.554.939-2.479z" fill="#7f4530"/><path d="M73.664 45.647a.79.79 0 0 0-.237-.329l-.223-.154c-.17-.087-.35-.126-.541-.116l-.293.055-.249.121a.81.81 0 0 0-.285.291c-.062.07-.105.151-.125.243a.53.53 0 0 0-.058.273.55.55 0 0 0 .015.284c.006.097.035.185.088.266.05.13.129.241.239.332l.225.156.261.094.286.023.282-.053.249-.121a.81.81 0 0 0 .285-.291.54.54 0 0 0 .125-.243.8.8 0 0 0 .07-.416.81.81 0 0 0-.113-.414l-.001-.001z" class="B"/><path d="M68.52 70.396c-.086-.265-.25-.522-.504-.655a1.2 1.2 0 0 0-.528-.14 2.06 2.06 0 0 0-1.399-.443c-.086.005-.168.016-.248.031-.182-.06-.389-.074-.615-.018l-2.146.534a.96.96 0 0 0-.207.08.88.88 0 0 0-.48-.08 7.79 7.79 0 0 1-2.456-.109c-.01-.005-.015-.013-.026-.018l-.77-.337c-.454-.199-.958-.181-1.301.196-.36-.341-.777-.323-1.091-.12-.01.003-.02.002-.031.006a.84.84 0 0 0-.378.199.84.84 0 0 0-.286.312l-.112.265a1.12 1.12 0 0 0 0 .591l.112.265a1.12 1.12 0 0 0 .341.354c.079.093.145.148.29.243a1.38 1.38 0 0 0 .335.147c.048.014.098.02.148.028.103.053.209.106.32.136.102.029.207.045.314.045l.063-.008c.14.197.341.331.588.406.108.057.222.104.344.131.144.032.286.028.424.001l.987.13c.631.457 1.474.315 2.185.019a1.54 1.54 0 0 0 .381.283l.064.029.255.107a.81.81 0 0 0 .426.019l.295-.044.317-.052c.324.035.655-.005.939-.171.098.004.196 0 .293-.012.594-.086 1.48-.404 2.088-.885l.304-.115a.83.83 0 0 0 .373-.196.83.83 0 0 0 .282-.308.82.82 0 0 0 .13-.408c.032-.146.026-.291-.019-.437l-.002.001.001-.002zm-3.186-3.018c0-.1-.026-.192-.075-.277a.55.55 0 0 0-.142-.243l-.087-.114c-.005-.006-.01-.011-.016-.016l-.231-.178-.002-.002-.279-.121-.298-.04-.245.033-.189-.154a1.22 1.22 0 0 0-.381-.169c-.016-.005-.034-.003-.05-.007-.007-.004-.014-.01-.021-.014-.048-.027-.105-.048-.154-.068-.134-.057-.249-.069-.398-.086-.129-.014-.262.013-.389.037-.025.005-.049.011-.073.019-.099.032-.209.074-.297.133a2.12 2.12 0 0 0-.371.314l-.045-.055-.036-.042c-.077-.069-.159-.133-.245-.19-.051-.031-.113-.051-.165-.073s-.11-.052-.168-.067c-.047-.012-.159-.022-.158-.022l-.165-.022-.045.002c-.104.01-.22.017-.321.047l-.077.03c-.113.007-.216.022-.314.04l-.024.005a2.22 2.22 0 0 0-.246.105l-.043.025a2.18 2.18 0 0 0-.276.213c-.038.034-.066.077-.098.117l-.218.03h-.002l-.02.006-.253.107c-.007.003-.01.01-.016.013a.73.73 0 0 0-.255.174c-.095.088-.162.193-.202.314-.061.116-.089.241-.084.375l.035.259c.002.007.006.013.009.02.015.08.04.156.078.23.026.094.074.175.143.245a.84.84 0 0 0 .311.286c.008.004.016.009.023.015l.266.114.21.028.024.031.041.047c.042.042.095.078.14.112l.139.106c.013.009.027.016.04.022l.29.122a.49.49 0 0 0 .09.021c.12.018.246.048.369.04s.244-.023.362-.049c.009-.002.017-.006.025-.008a1.19 1.19 0 0 0 .477.279c.163.046.344.07.515.062.131-.006.265-.027.394-.05.044-.008.088-.019.131-.034a3.63 3.63 0 0 0 .361.052c.045.005.089.005.134 0 .113-.013.235-.019.345-.052s.218-.083.318-.132c.172-.084.33-.215.449-.365.087-.109.167-.22.239-.337a.84.84 0 0 0 .382-.026l.031-.008-.109.015a.82.82 0 0 0 .386-.127l.223-.172.172-.223.111-.262a.47.47 0 0 0 .02-.147.56.56 0 0 0 0-.293z" fill="#72533e"/><path d="M32.019 86.977c-4.24.758-8.227 3.228-11.472 5.988-3.424 2.912-6.279 6.479-8.586 10.326-2.519 4.201-4.382 8.644-5.745 13.348-1.546 5.338-2.481 10.815-3.316 16.302L.305 149.804c-.465 2.789-.9 5.587-1.171 8.402-.286 2.957-.314 5.909-.224 8.876.089 2.92.236 5.842.081 8.762s-.569 5.847-.913 8.764c-.687 5.818-.545 11.636-.772 17.478-.114 2.929-.368 5.849-.946 8.727-.553 2.756-1.341 5.464-1.797 8.239-.407 2.474-.671 5.146.258 7.54.755 1.944 2.363 3.585 4.462 4.004.973.194 1.892.079 2.798-.318.601-.264.168-1.314-.452-1.071-1.992.782-4.181-.379-5.196-2.151-1.264-2.206-1.058-4.986-.699-7.405.393-2.653 1.082-5.247 1.637-7.866.572-2.696.898-5.428 1.052-8.179.314-5.589.046-11.196.594-16.773.278-2.832.699-5.648.971-8.48s.301-5.652.218-8.49c-.081-2.78-.216-5.56-.099-8.341.12-2.855.468-5.695.9-8.519l2.575-16.188c.793-5.322 1.649-10.632 2.911-15.866a75.53 75.53 0 0 1 4.883-14.015c1.805-3.908 4.42-7.569 7.394-10.671 2.966-3.093 6.474-5.693 10.418-7.397.994-.429 2.006-.833 3.012-1.231.407-.161.256-.737-.182-.659l.001.001zm-17.128 26.982c-2.577 4.174-.229 8.938 1.287 13.022.892 2.403 1.432 4.892 1.048 7.458-.348 2.326-1.322 4.528-2.258 6.668-.942 2.153-1.84 4.319-2.292 6.637-.461 2.365-.566 4.792-.446 7.194.25 4.998 1.425 9.89 2.405 14.779 1.04 5.183 1.704 10.368 1.454 15.665-.245 5.208-1.349 10.284-2.847 15.265-2.193 7.292-5.643 14.096-8.078 21.298-2.685 7.942-4.371 16.319-5.083 24.67-.111 1.3-.199 2.603-.269 3.906-.047.868 1.304.866 1.349 0 .459-8.826 1.782-17.538 4.4-25.99 2.174-7.019 5.473-13.602 7.836-20.551 1.572-4.624 2.849-9.398 3.468-14.248.654-5.132.545-10.319-.24-15.429-1.49-9.699-5.291-19.81-2.061-29.563 1.417-4.28 4.167-8.497 3.678-13.18-.502-4.805-3.543-8.926-3.707-13.814-.041-1.239.152-2.474.646-3.615.084-.194-.174-.36-.292-.17v-.002h.002z" class="B"/><path d="M30.669 89.561c.269 2.754.944 5.43 1.452 8.148l1.204 8.41c.443 5.435-.12 10.766-1.165 16.099-2.007 10.238-5.96 20.122-5.352 30.725.319 5.562 1.479 11.037 1.834 16.598.335 5.26.185 10.542-.273 15.79-.928 10.647-3.172 21.127-5.09 31.624-1.887 10.324-3.678 20.839-3.617 31.367.008 1.338.044 2.675.105 4.011l.6-.6c-7.093-.326-14.181-.931-21.27-1.341-.913-.053-.91 1.367 0 1.42l21.27 1.123c.319.022.607-.294.601-.601-.233-10.688 1.19-21.272 3.046-31.773s4.003-20.942 5.193-31.546c.587-5.236.915-10.509.795-15.779-.126-5.51-1-10.899-1.634-16.36a51.83 51.83 0 0 1 .606-16.107c1.001-5.131 2.517-10.137 3.764-15.208 1.252-5.09 2.26-10.262 2.043-15.531-.228-5.565-1.205-11.042-2.504-16.449-.336-1.399-.718-2.725-1.224-4.073-.071-.189-.407-.183-.384.053zm7.427 46.417c-3.757 4.01-4.501 10.157-4.333 15.431.206 6.468 1.832 12.788 2.301 19.232.895 12.304-1.509 24.583-3.698 36.63-2.174 11.965-4.269 24.212-2.729 36.39.811 6.413 2.734 12.607 3.779 18.978.223 1.363.612 3.088-.424 4.219-.745.812-1.955 1.091-3.009 1.218-1.373.166-2.773.111-4.153.104l-5.086-.074-10.165-.372-5.075-.329c-1.594-.119-3.228-.172-4.808-.417-1.377-.213-1.942-1.103-2.151-2.408-.183-1.139-.22-2.317-.279-3.468-.12-2.373-.152-4.75-.133-7.126l.026-1.894c.018-.971-1.491-.971-1.509 0-.032 1.805-.034 3.61-.004 5.415.039 2.496.022 5.09.453 7.557.19 1.089.677 2.18 1.623 2.813 1.229.823 2.975.741 4.39.862a247.46 247.46 0 0 0 10.292.671c3.481.158 6.966.23 10.451.216 2.685-.014 5.759.29 8.299-.775.94-.394 1.822-1.026 2.301-1.949.718-1.386.397-2.96.193-4.429-.453-3.264-1.194-6.462-1.887-9.681s-1.404-6.475-1.793-9.764c-.369-3.116-.504-6.255-.46-9.391.089-6.286.853-12.562 1.889-18.757 2.076-12.417 5.12-24.832 5.22-37.483.025-3.123-.112-6.248-.479-9.35-.388-3.29-.993-6.548-1.497-9.821-.923-5.993-1.269-12.375.993-18.13a36.81 36.81 0 0 1 1.784-3.871c.106-.198-.157-.422-.32-.247h-.002zm-27.63-13.631c-.895 3.406-.439 6.747.52 10.082.991 3.445 2.371 6.796 2.814 10.376.078.628.957.52.863-.117-.499-3.388-1.791-6.567-2.808-9.818-1.032-3.297-1.888-7.002-1.063-10.433.051-.211-.27-.3-.325-.09h-.001zM92.248 82.9c3.251-.154 6.529-.248 9.76.23 3.123.462 6.182 1.382 8.977 2.863 5.74 3.042 9.652 8.27 12.448 14.011 3.136 6.44 5.346 13.396 7.347 20.259 2.102 7.212 3.831 14.557 5.244 21.933.713 3.719 1.317 7.458 1.926 11.195.602 3.694 1.121 7.409 1.935 11.066 1.566 7.035 4.653 13.542 6.737 20.415 1.066 3.514 1.757 7.075 1.909 10.749.136 3.281-.172 6.656.275 9.915.35 2.555.899 5.085 1.349 7.624.316 1.789.689 3.575.913 5.379.14 1.13.32 2.392.005 3.507-.328 1.159-1.344 1.539-2.478 1.548-1.731.014-3.481-.228-5.207-.348-2.144-.149-4.298-.329-6.448-.341-2.541-.014-5.009.483-7.392 1.347-1.01.366-1.999.797-3.018 1.138-.752.251-1.585.503-2.381.328-1.105-.242-1.78-1.19-2.229-2.158-.396-.855-1.659-.112-1.264.739.976 2.106 2.99 3.179 5.243 2.76 2.291-.427 4.386-1.666 6.652-2.23 2.189-.546 4.387-.521 6.619-.422 3.064.136 6.134.472 9.199.514 1.309.019 2.632-.275 3.441-1.387.607-.835.742-1.905.736-2.912-.008-1.459-.271-2.917-.477-4.357-.274-1.901-.577-3.797-.908-5.689-.406-2.34-.933-4.667-1.016-7.045-.137-3.914.058-7.843-.46-11.736-.978-7.351-4.288-14.067-6.62-21.034-2.479-7.407-3.354-15.184-4.731-22.84-2.727-15.148-5.979-30.325-11.87-44.604-2.506-6.073-5.791-12.14-11.101-16.207-5.211-3.99-11.995-5.753-18.496-5.678-1.616.019-3.169.172-4.752.492-.548.111-.427 1.003.132.977l.001-.001z" class="B"/><path d="M112.814 109.282c1.727 4.377.084 8.892-.843 13.249-.97 4.555-.747 9.105.026 13.671.804 4.743 2.088 9.396 2.753 14.164.675 4.832.486 9.702-.081 14.535-1.116 9.513-3.498 18.947-2.733 28.59.694 8.744 3.573 17.03 6.676 25.167 3.151 8.264 6.604 16.486 8.429 25.174a66.4 66.4 0 0 1 .589 3.188c.124.776 1.305.448 1.181-.325-1.411-8.766-4.673-17.065-7.865-25.304-3.17-8.179-6.38-16.542-7.524-25.292-1.253-9.579.801-18.958 2.109-28.408.659-4.755 1.114-9.566.756-14.367-.356-4.775-1.542-9.426-2.514-14.099s-1.758-9.496-1.087-14.268c.607-4.311 2.497-8.664 1.625-13.066-.201-1.014-.546-1.903-1.1-2.778-.125-.197-.492-.071-.397.169zm-10.563-25.241c-3.24 3.846-5.201 8.651-6.538 13.461a53.81 53.81 0 0 0-1.97 15.092c.078 5.416.992 10.714 2.204 15.978 1.329 5.779 2.857 11.601 3.096 17.553.47 11.718-4.756 22.679-6.027 34.196-1.251 11.337.364 22.742 2.625 33.848 2.325 11.419 5.397 22.689 7.174 34.217.226 1.472.429 2.946.608 4.425.114.952 1.625.964 1.508 0-1.383-11.439-4.267-22.604-6.742-33.836-2.452-11.123-4.518-22.469-3.981-33.908.27-5.76 1.379-11.35 2.772-16.932s2.944-11.12 3.445-16.855c1.014-11.609-3.94-22.426-5.04-33.824-.986-10.217.406-20.629 5.497-29.656l1.892-3.356c.186-.316-.273-.7-.523-.403zm-8.867-.856c-5.937 9.221-7.218 20.689-6.61 31.42.316 5.579 1.061 11.135 2.051 16.633 1.121 6.226 2.719 12.458 2.49 18.831-.232 6.453-2.647 12.603-3.895 18.889-1.228 6.185-1.929 12.505-2.126 18.807-.399 12.809.912 25.625 2.93 38.262 2.069 12.961 4.776 25.811 6.879 38.766l.757 4.862c.141.946 1.578.544 1.438-.396-1.917-12.862-4.631-25.588-6.798-38.408-2.142-12.675-3.874-25.419-3.866-38.299.004-6.357.416-12.754 1.431-19.032.498-3.085 1.142-6.143 1.916-9.171.781-3.054 1.685-6.083 2.26-9.186 1.166-6.293.258-12.454-.952-18.665-1.091-5.598-2.183-11.226-2.755-16.905-1.09-10.818-.751-22.178 3.882-32.211a52.24 52.24 0 0 1 1.881-3.664c.334-.596-.546-1.103-.913-.533zm31.909 36.581c.909 1.833.833 4.141.71 6.133l-.603 6.571c-.556 4.428-1.387 8.815-2.203 13.201-1.531 8.233-2.979 16.58-2.512 24.989.256 4.619 1.108 9.205 2.807 13.519.187.476.967.269.776-.215-6.495-16.516-.329-34.24 1.869-50.948.32-2.437.589-4.894.666-7.353.068-2.174-.089-4.158-1.292-6.024-.088-.138-.291-.019-.218.127zm-17.402-26.398c-4.429 3.967-5.762 9.771-6.734 15.396-.09.521.712.742.796.219.881-5.425 2.04-11.405 6.176-15.377.157-.152-.078-.381-.238-.238zm-84.375 3.653c1.187 1.361 2.083 2.883 2.651 4.601.59 1.785.827 3.659 1.07 5.515l1.496 11.405c.082.602.997.345.916-.253l-1.701-12.044c-.286-1.816-.67-3.601-1.437-5.28-.694-1.518-1.644-2.94-2.756-4.182-.145-.162-.381.075-.239.238zM45.001 86.75c.939 1.269 1.801 2.593 2.918 3.718 1.59 1.588 3.387 2.953 5.343 4.059 2.532 1.442 5.265 2.546 8.119 3.154 7.915 1.687 15.987-.687 21.946-6.085 1.672-1.515 3.195-3.236 4.452-5.113.465-.695-.657-1.345-1.119-.654-2.732 4.082-6.707 7.423-11.216 9.37-6.741 2.91-14.464 2.134-20.87-1.245-1.937-1.022-3.779-2.254-5.442-3.681-1.352-1.16-2.764-2.318-3.865-3.726-.116-.149-.378.05-.264.205l-.002-.002zm4.686-9.767c-.284.377-.289.752-.274 1.217l.036 1.376.028 1.459c.003.428.049.895-.036 1.318-.146.721-.894 1.213-1.477 1.575-.547.338-1.124.623-1.725.852-.713.273-.402 1.433.319 1.155s1.419-.599 2.067-1.013c.751-.478 1.545-1.084 1.867-1.945.164-.439.154-.913.144-1.375l-.062-1.621-.135-1.7c-.054-.519-.091-.966-.487-1.332-.087-.081-.198-.054-.265.034z" class="B"/><path d="M94.157 21.997c-.206-1.369-1.726-10.619-8.652-15.2a19.24 19.24 0 0 0-2.987-1.592c-2.697-1.122-3.829-.811-7.671-1.57-3.486-.69-3.392-1.112-6.939-1.736-1.801-.317-3.009-.416-5.294-.604-5.26-.433-6.74-.082-7.958.558a7.85 7.85 0 0 0-1.934 1.444c-2.403.627-6.314 1.982-10.179 5.087-8.27 6.644-9.682 15.955-9.898 17.55-.958 7.071 1.158 12.644 2.275 15.1a21.65 21.65 0 0 0-.977 7.626 21.52 21.52 0 0 0 1.269 6.229c-.325 1.114-.547 2.335-.569 3.569-.048 2.574.757 4.624 1.364 5.837-.455.511-1.304 1.608-1.642 3.24-.508 2.452.493 4.391.794 4.927-.463.497-1.282 1.519-1.629 3.037-.625 2.739.784 4.924 1.069 5.348a8.26 8.26 0 0 0-1.37 5.165 8.24 8.24 0 0 0 1.909 4.656c-.199.236-1.835 2.241-1.251 4.922.498 2.29 2.257 3.428 2.586 3.632-.247.491-1.222 2.564-.51 5.1.591 2.102 1.995 3.288 2.492 3.672-.249.304-2.124 2.664-1.416 5.623.373 1.559 1.292 2.568 1.767 3.021-.302.515-1.052 1.956-.849 3.857.131 1.221.6 2.127.911 2.626-.065.831-.068 2.255.491 3.892a9.7 9.7 0 0 0 1.791 3.147c-1.982 1.651-2.372 3.017-2.397 3.917-.053 1.912 1.513 2.844 2.568 5.609.727 1.905.81 3.629.784 4.709.806-.625 2.7-2.275 3.568-5.102 1.381-4.501-.979-8.279-1.347-8.848a8.9 8.9 0 0 0 3.519-3.986c1.275-2.894.548-5.522.335-6.21a7.98 7.98 0 0 0 .735-4.727 7.92 7.92 0 0 0-1.657-3.73c.404-.583 1.237-1.961 1.288-3.873.081-3.04-1.882-5.033-2.247-5.392.386-.579 1.652-2.634 1.351-5.435-.239-2.223-1.336-3.725-1.819-4.314a8.28 8.28 0 0 0 .77-4.515c-.193-1.662-.855-2.873-1.264-3.505a7.98 7.98 0 0 0 .342-4.178 7.88 7.88 0 0 0-1.162-2.858c.377-.453 1.024-1.351 1.349-2.663a6.7 6.7 0 0 0 .031-3.093c-1.717-2.133-3.917-5.392-5.301-9.761-1.323-4.174-2.501-5.977-2.656-8.106.588-.63 2.305-2.865 2.777-3.471 2.724-3.489-.895-6.795 1.114-11.598 1.67-3.994 4.665-2.889 7.728-7.83 2.816-4.542.839-6.369 3.448-8.893 3.231-3.126 7.493-1.513 10.537-5.246 1.034-1.269 1.483-2.609 1.698-3.462a146.65 146.65 0 0 1 1.905 6.863c.392 1.557.079 3.673 1.418 5.765a8.41 8.41 0 0 0 1.132 1.397c3.944 4.037 6.314 4.191 8.108 6.774 2.07 2.978.388 4.888 3.238 9.879.484.847 1.027 1.66 1.625 2.431-.436-.895-.915-2.231-.775-3.799.129-1.453.732-2.44 1.061-3.072.782-1.501 1.528-3.894 1.204-7.718 1.211 3.019 2.239 6.108 3.08 9.251a81.35 81.35 0 0 1 1.484 6.657c-.16 4.654-1.188 13.352-7.132 21.383a34.83 34.83 0 0 1-4.776 5.235 8.91 8.91 0 0 0-.26 3.777c.406 2.725 1.988 4.464 2.605 5.079-.257.264-1.676 1.771-1.61 4.109.063 2.193 1.388 3.568 1.677 3.855-.419.414-2.07 2.139-2.168 4.823-.062 1.685.517 2.969.847 3.582-.496.731-1.599 2.573-1.608 5.131a9.11 9.11 0 0 0 .823 3.802c-.394.602-1.796 2.899-1.324 5.914.294 1.878 1.182 3.192 1.687 3.833-.312.595-1.851 3.666-.617 7.104.596 1.661 1.607 2.757 2.253 3.348a6.79 6.79 0 0 0-.252 3.046c.289 1.955 1.364 3.223 1.808 3.693-2.648 4.19-2.58 6.517-1.896 7.89.6 1.205 1.81 1.947 2.151 3.789.239 1.289-.073 2.443-.385 3.232 2.389-1.093 3.243-2.369 3.581-3.332.611-1.74-.361-2.749.444-5.134.488-1.445 1.057-1.703 1.137-2.851.101-1.44-.68-2.673-1.354-3.487.412-.281 2.906-2.047 3.4-5.427.469-3.209-1.209-5.522-1.529-5.947.621-.575 1.812-1.844 2.362-3.832.974-3.518-.849-6.424-1.167-6.913.392-.732.882-1.869 1.062-3.328.305-2.463-.449-4.402-.854-5.271a12.6 12.6 0 0 0 1.209-3.397 12.75 12.75 0 0 0-.161-5.642 7.32 7.32 0 0 0 1.151-2.08c.724-2.037.335-3.85.118-4.625.459-.632 1.389-2.1 1.535-4.178.21-2.997-1.366-5.113-1.782-5.639.313-.394 1.7-2.228 1.481-4.874-.227-2.746-2.017-4.357-2.378-4.669a9.14 9.14 0 0 0 1.074-3.829 9.17 9.17 0 0 0-.909-4.478c.642-1.012 1.608-2.839 1.91-5.308.318-2.6-.239-4.779-.802-6.231l.928-2.819 2.293-6.562c1.015-3.167 1.026-6.176 1.049-12.193.013-3.506.019-5.258-.184-6.608l-.002-.001z" fill="#472712"/><path d="M34.767 72.516c-.456.382-.769.67-1.057 1.216a6.52 6.52 0 0 0-.659 1.946c-.229 1.362-.019 2.631.404 3.925.896 2.741 3.309 4.552 5.927 5.505.61.221.843-.722.264-.958-2.275-.929-4.244-2.642-5.363-4.835-.535-1.048-.619-2.368-.379-3.501.131-.592.329-1.168.589-1.716.211-.454.36-.913.553-1.367.078-.184-.117-.35-.279-.215z" class="B"/><path d="M34.31 81.002c-.745-.144-1.252 1.635-1.382 2.121-.445 1.669-.392 3.443.2 5.07 1.094 3.004 3.799 5.086 6.922 5.614.785.133 1.128-1.062.333-1.207-2.764-.504-5.309-2.343-6.234-5.067-.508-1.498-.445-3.042-.066-4.557.061-.243.723-1.877.227-1.974z" class="B"/><path d="M34.686 90.71c-1.935 2.079-1.9 5.269-.17 7.466 1.686 2.142 4.329 3.37 7.028 3.507.804.04.789-1.18 0-1.243-2.308-.185-4.385-1.169-5.953-2.885-.942-1.032-1.408-2.386-1.246-3.782.107-.922.403-1.869.808-2.703.14-.288-.223-.622-.467-.36z" class="B"/><path d="M36.64 99.269c-2.09 1.819-1.63 5.514-.124 7.588 1.29 1.777 3.423 2.845 5.602 2.976.736.044.733-1.101 0-1.145-1.68-.101-3.504-.928-4.597-2.327-.586-.749-.969-1.688-1.18-2.609-.289-1.259-.441-3.232.537-4.245.152-.158-.076-.38-.239-.239l.001.001z" class="B"/><path d="M38.305 108.213c-.572.457-1.02.918-1.337 1.586a5.69 5.69 0 0 0-.523 1.903c-.148 1.495.237 3.04 1.109 4.268 1.187 1.671 3.139 2.714 5.184 2.826.849.046.85-1.284 0-1.323-.505-.023-.976-.123-1.552-.32-.975-.333-1.863-.944-2.487-1.768-1.513-1.994-1.354-4.87-.129-6.968.103-.176-.123-.318-.265-.204z" class="B"/><path d="M38.82 115.841c-.356.197-.545.667-.706 1.02-.252.552-.41 1.126-.498 1.726-.174 1.177-.088 2.435.344 3.551.865 2.235 2.708 3.898 4.977 4.625.781.251 1.11-.968.337-1.224-1.864-.616-3.456-2.029-4.145-3.887-.371-1.001-.535-1.873-.451-2.922.044-.547.172-1.093.326-1.619.095-.323.291-.667.269-1.01-.014-.228-.245-.377-.454-.261l.001.001zm5.732-37.935c-.142.293.012.744.097 1.04l.415 1.576c.294 1.696.16 3.501-.594 5.064a8.36 8.36 0 0 1-4.487 4.122c-.495.187-.289.986.222.804 2.197-.779 4.116-2.423 5.154-4.516.816-1.644 1.134-3.467.854-5.283a9.16 9.16 0 0 0-.528-1.938c-.12-.307-.406-.939-.781-1.014-.128-.025-.29.015-.352.143v.002z" class="B"/><path d="M45.545 85.147c.37 1.078.482 2.404.523 3.535.06 1.663-.348 3.317-1.222 4.734-.925 1.5-2.345 2.748-3.94 3.501-.652.308-.084 1.267.565.966a10.31 10.31 0 0 0 4.48-4.102c.89-1.536 1.328-3.326 1.213-5.099-.091-1.419-.582-2.485-1.311-3.665-.097-.157-.372-.057-.308.13z" class="B"/><path d="M45.968 93.369c1.111 2.096 1.627 4.774.831 7.043-.694 1.981-2.475 3.677-4.294 4.371-.677.258-.383 1.357.302 1.096 2.304-.879 4.188-2.758 5.007-5.09.9-2.561.432-5.706-1.546-7.651-.157-.155-.401.041-.3.231z" class="B"/><path d="M46.622 102.765c-.273.459.554 1.532.72 1.941a7.53 7.53 0 0 1 .512 3.716c-.319 2.669-2.288 4.81-4.761 5.722-.749.275-.452 1.457.335 1.215 3.046-.936 5.335-3.568 5.717-6.752.182-1.512-.165-3.026-.857-4.373-.124-.243-1.219-2.225-1.668-1.469h.002z" class="B"/><path d="M47.496 112.309c.174.671.479 1.296.64 1.974.156.654.309 1.299.342 1.973.068 1.364-.24 2.661-.924 3.841a7.6 7.6 0 0 1-3.979 3.293c-.681.241-.405 1.315.302 1.096 2.019-.627 3.895-1.999 4.837-3.926a8.31 8.31 0 0 0 .804-4.396c-.135-1.406-.614-3.074-1.741-4.019-.124-.105-.327-.009-.282.164h.001z" class="B"/><path d="M48.032 120.097c-.237.241-.067.652-.019.951a10.93 10.93 0 0 1 .151 1.722 7.7 7.7 0 0 1-1.223 4.161c-.563.864-1.315 1.597-2.176 2.163a9.55 9.55 0 0 1-.945.544l-.322.154-.126.056c.17-.075.038-.016-.001-.001-.736.296-.405 1.505.331 1.198 1.798-.748 3.38-2.1 4.357-3.791a8.06 8.06 0 0 0 1.046-4.79c-.026-.277-.497-2.952-1.072-2.367h-.001zm-5.476 24.302c1.588-1.173 2.73-2.702 3.448-4.557 1.021-2.638.717-5.729-.373-8.293-.274-.645-1.272-.091-.958.56 1.167 2.414 1.225 5.032.368 7.559-.545 1.609-1.544 3.21-2.69 4.467-.122.134.043.385.204.265l.001-.001z" class="B"/><path d="M40.253 130.038c.574.683 1.436.939 2.274 1.154a19.37 19.37 0 0 0 2.584.482c.377.043.74-.364.723-.723-.019-.429-.319-.677-.723-.723l-2.322-.329c-.824-.149-1.631-.349-2.462-.142-.132.033-.152.189-.074.281z" class="B"/><path d="M42.268 144.438c.1-.606.296-1.201.307-1.817.006-.635-.081-1.267-.26-1.877-.384-1.309-1.183-2.431-1.826-3.616-.491-.904-1.111-2.099-1.075-3.162.035-1.033.612-1.941 1.311-2.662.62-.642-.369-1.63-.979-.98-.698.744-1.291 1.632-1.528 2.636-.267 1.132-.019 2.136.482 3.155.632 1.287 1.433 2.463 2.109 3.723a8.89 8.89 0 0 1 .822 2.2c.176.765.39 1.576.308 2.355-.02.187.3.232.331.044l-.002.001zm3.46-72.472c.057.424.001.818-.078 1.237l-.359 1.957a7.14 7.14 0 0 1-2.176 3.539c-1.127.99-2.595 1.625-4.074 1.85-.344.052-.527.481-.447.786.097.366.447.498.786.447 3.513-.535 6.554-3.37 7.055-6.919.087-.616.089-1.211-.066-1.817l-.309-1.125c-.041-.181-.358-.146-.332.045zm30.83-50.738c-.566 2.201.1 4.501 1.498 6.257 1.537 1.931 3.908 2.973 5.375 4.975 1.414 1.93 2.041 4.294 2.439 6.618.192 1.118.477 2.195.872 3.258l.904 2.583c.671 2.596.974 5.305 1.067 7.981.026.764 1.217.766 1.19 0-.082-2.242-.336-4.48-.752-6.685-.202-1.069-.448-2.104-.825-3.125l-.948-2.799c-.603-2.314-.855-4.62-1.931-6.797a10.79 10.79 0 0 0-1.959-2.788c-.844-.858-1.841-1.54-2.783-2.283-1.057-.834-2.015-1.746-2.638-2.958-.655-1.276-.923-2.74-.96-4.162-.008-.309-.469-.387-.549-.075z" class="B"/><path d="M83.502 46.478c-.757-1.009-1.125-2.637-.937-3.87.199-1.307.902-2.472 1.331-3.707.832-2.393.667-4.957.185-7.405-.167-.845-1.458-.487-1.293.356.503 2.553.402 5.201-.496 7.655-.473 1.293-1.013 2.598-.866 4.005s.826 2.232 1.754 3.213c.155.164.463-.059.32-.247h.002zm-18.88-31.844c-1.106 1.617-2.529 3.308-4.418 4.012-.736.274-1.514.339-2.279.483-.936.177-1.81.526-2.628 1.013-2.402 1.431-4.444 3.994-5.218 6.706-.297 1.04-.374 2.138-.773 3.151-.296.752-.763 1.432-1.3 2.032-1.119 1.252-2.508 2.213-3.795 3.278-1.221 1.01-2.417 2.154-3.087 3.617-.918 2.007-.681 4.169-.487 6.298.237 2.605.046 5.147-1.891 7.109-.753.763-1.558 1.408-2.055 2.384-.528 1.037-.734 2.184-.717 3.341.013.885 1.383.887 1.376 0-.009-1.046.182-2.071.737-2.973.51-.828 1.345-1.379 1.962-2.12 1.383-1.661 2.059-3.734 2.055-5.883-.003-2.2-.644-4.495-.066-6.665.431-1.619 1.588-2.868 2.81-3.953l3.709-3.25c1.257-1.312 1.979-2.775 2.338-4.554.258-1.281.555-2.375 1.22-3.506.876-1.489 2.065-2.831 3.533-3.756.912-.574 1.887-.942 2.941-1.146.874-.17 1.718-.341 2.521-.746 1.896-.958 3.296-2.681 4.006-4.662.109-.304-.331-.448-.495-.208l.001-.002z" class="B"/><path d="M34.451 31.591c.656 2.481 1.11 4.876.611 7.434-.456 2.338-1.369 4.569-1.716 6.931-.64 4.357.391 8.93 2.88 12.567.415.607 1.407.043.996-.582a17.15 17.15 0 0 1-2.436-13.135c.952-4.364 3.078-9.371-.039-13.387-.114-.147-.339.015-.297.173l.001-.001z" class="B"/><path d="M34.816 18.412l-1.644 4.381c-.56 2.094-.908 4.259-.991 6.425-.166 4.346.681 8.571 2.286 12.598.247.62 1.122.265.852-.359-1.649-3.814-2.392-8.095-2.284-12.239.093-3.578.733-7.347 2.09-10.676.072-.176-.234-.306-.309-.13zM63.603 6.173C62 4.388 59.792 3.19 57.404 2.909c-.404-.048-.41.6 0 .639 2.268.214 4.397 1.198 5.96 2.863.149.159.383-.077.239-.238z" class="B"/><path d="M52.671 3.079l-3.745 1.283-3.731 1.757c-2.133 1.13-4.14 2.554-5.837 4.276-1.585 1.608-2.903 3.498-3.728 5.606-.999 2.552-1.186 5.34-1.045 8.053.035.677 1.093.68 1.056 0-.136-2.542.015-5.124.888-7.537.781-2.161 2.156-4.043 3.802-5.628 1.697-1.634 3.672-2.921 5.723-4.064l3.33-1.68 3.418-1.758c.173-.076.047-.378-.131-.308zm24.066 72.303c-.992.953-.777 2.822-.583 4.052a7.61 7.61 0 0 0 4.535 5.828c.944.405 1.944.635 2.97.694.919.053.916-1.376 0-1.429-2.439-.14-4.804-1.603-5.846-3.959-.469-1.061-.638-2.24-.611-3.394.014-.602-.014-1.145-.183-1.717a.17.17 0 0 0-.12-.117.17.17 0 0 0-.162.042z" class="B"/><path d="M78.302 84.128c-.544.402-.875 1.073-1.066 1.722-.374 1.273-.434 2.626-.136 3.921.548 2.376 2.274 4.349 4.494 5.319.577.252 1.181.472 1.804.574.412.067.822-.107.945-.536.104-.361-.127-.883-.536-.945-1.707-.254-3.397-1.228-4.414-2.624-.983-1.349-1.368-3.031-1.173-4.681.101-.854.393-1.682.456-2.534.013-.178-.226-.325-.374-.216zm11.75 5.457a.46.46 0 0 0-.22.328c-.023.168.078-.202-.038.053-.065.143-.079.268-.089.424l-.076 1.387c-.101 1.31-.569 2.581-1.324 3.652-.573.813-1.345 1.488-2.192 2.005-.56.342-.94.522-1.487.704-.835.278-.483 1.597.366 1.327a8.71 8.71 0 0 0 4.591-3.45c.85-1.275 1.313-2.775 1.376-4.302.021-.507-.005-1.141-.205-1.617-.06-.144-.145-.206-.247-.318.206.227-.008-.053-.04-.085-.101-.102-.272-.199-.416-.109l.001.001z" class="B"/><path d="M78.553 92.016l-.642.804c-.396.51-.646 1.035-.845 1.649-.55 1.703-.513 3.574.08 5.261.858 2.439 2.842 4.335 5.245 5.246.856.324 1.225-1.049.378-1.37a5.49 5.49 0 0 1-.681-.307c-.415-.213-.816-.458-1.191-.737-1.143-.848-2.068-2.051-2.555-3.391-.541-1.49-.505-3.104-.139-4.629.179-.745.246-1.687.642-2.355.113-.19-.166-.343-.291-.17l-.001-.001zm9.653 3.712c-.013.705.127 1.44.189 2.142.117 1.322.08 2.654-.256 3.943-.717 2.748-2.676 4.912-5.219 6.109-.79.371-.102 1.545.686 1.172 2.775-1.315 4.937-3.754 5.755-6.733a11.18 11.18 0 0 0 .299-4.43c-.106-.781-.295-1.734-.776-2.387-.206-.279-.671-.202-.678.184z" class="B"/><path d="M77.437 100.408c-1.162.508-1.692 2.36-1.821 3.482-.169 1.464.189 2.903.821 4.218 1.091 2.268 2.871 4.134 5.104 5.297.84.438 1.587-.835.744-1.272-1.941-1.007-3.441-2.56-4.488-4.474-.581-1.061-.939-2.242-.906-3.46.02-.731.175-1.449.407-2.142.161-.483.428-.942.473-1.457.016-.186-.196-.252-.334-.192zm10.286 5.794c.56 2.489.336 5.086-1.038 7.293a8.48 8.48 0 0 1-2.312 2.442 9.35 9.35 0 0 1-1.025.627l-.422.209-.152.068c-.152.067.068-.028-.021.009a.62.62 0 0 0-.271.783.62.62 0 0 0 .75.353c4.455-1.927 7.131-7.428 4.993-11.996-.137-.294-.568-.079-.502.212z" class="B"/><path d="M77.002 108.682c-.962.792-1.39 2.027-1.607 3.215-.35 1.919-.111 3.86.709 5.631.968 2.088 2.82 3.882 4.939 4.797.832.359 1.554-.871.717-1.227-1.811-.769-3.417-2.194-4.352-3.923-.843-1.556-1.135-3.403-.862-5.149.168-1.075.543-2.109.738-3.18.031-.171-.149-.273-.282-.164zm10.472 5.625c-.032.248.111.556.181.825l.408 1.623c.328 1.669.197 3.467-.569 5.002-.92 1.845-2.664 3.271-4.623 3.85-.836.247-.48 1.558.361 1.309 2.388-.706 4.479-2.481 5.492-4.761a8.07 8.07 0 0 0 .398-5.532c-.181-.628-.409-1.24-.779-1.782-.18-.263-.352-.587-.657-.697-.115-.041-.201.064-.214.163h.002z" class="B"/><path d="M77.508 118.881c-.407-.039-.644.562-.799.847-.295.543-.504 1.137-.656 1.735-.374 1.485-.296 3.071.221 4.513 1.004 2.801 3.294 4.78 6.037 5.805.915.342 1.316-1.129.403-1.463-2.371-.87-4.506-2.721-5.312-5.165-.432-1.309-.487-2.739-.183-4.082.064-.284.854-2.135.289-2.19zm8.93 5.752c.02.293.123.575.211.853l.386 1.433a7.55 7.55 0 0 1-.218 4.099 7.45 7.45 0 0 1-2.957 3.728c-.782.496-.045 1.754.726 1.242 1.638-1.086 2.913-2.742 3.508-4.618.463-1.459.457-3.058.042-4.527-.219-.777-.674-1.938-1.423-2.367-.113-.065-.285.016-.275.157z" class="B"/><path d="M78.754 129.498c-.481.33-.549 1.283-.561 1.804-.023 1.001.264 1.99.79 2.84.707 1.141 1.807 1.992 3.068 2.436.362.127.777-.145.874-.496.106-.384-.13-.755-.496-.874l-.171-.058-.119-.044a6.3 6.3 0 0 1-.652-.339c-.543-.326-1.007-.768-1.357-1.296-.443-.673-.691-1.458-.771-2.258-.03-.295-.045-.585-.041-.883.003-.237.028-.49-.087-.707-.084-.158-.326-.229-.477-.125z" class="B"/><path d="M80.445 151.349c1.266-.706 1.449-2.238 1.253-3.563-.202-1.362-1.108-2.146-1.797-3.247-1.51-2.416-.297-5.706 1.66-7.474.746-.675-.366-1.788-1.105-1.105-1.946 1.799-2.981 4.555-2.478 7.186.143.746.422 1.493.848 2.125.339.502.783.924 1.116 1.429.861 1.301.821 2.908.12 4.266-.127.245.131.523.382.382l.001.001z" class="B"/><path d="M80.657 151.14c1.47-.794 2.962-1.681 3.81-3.179.617-1.092.69-2.155.504-3.376-.147-.967-.008-1.885.483-2.739.365-.634.766-1.194.873-1.937.217-1.517-.648-2.86-1.608-3.95-.567-.643-1.51.302-.941.942.82.922 1.681 2.201 1.05 3.452-.288.571-.67 1.07-.895 1.676a5.12 5.12 0 0 0-.271 2.456c.138 1.055.282 1.895-.223 2.874-.696 1.347-1.848 2.535-2.989 3.509-.154.131.043.362.21.272h-.003z" class="B"/><path d="M85.051 135.507c-.119-.037-.362.017-.419.026-.191.028-.375.085-.565.121-.424.078-.858.094-1.287.049-.201-.019-.334-.037-.563-.083-.188-.039-.374-.089-.556-.15l-.237-.088c-.071-.027-.034-.017.014.006l-.108-.049-.328-.16c-.313-.156-.702-.084-.887.232s-.065.701.232.887a4.48 4.48 0 0 0 2.433.648c.291-.011.566-.067.859-.122.227-.043.45-.109.664-.196.341-.139.848-.329.982-.711.061-.174-.071-.36-.234-.41zM38.608 123.7c-.318 1.129-.095 2.271.254 3.367.387 1.214.95 2.402 1.665 3.457.219.324.637.466.99.26.32-.188.479-.665.26-.99-.668-.985-1.242-2.018-1.67-3.131-.389-1.011-.662-2.052-1.191-3.004-.071-.128-.269-.097-.308.041zm-3.153-59.375c-.261.251-.52.44-.706.762-.304.545-.533 1.128-.682 1.733-.39 1.526-.308 3.176.184 4.667.967 2.934 3.36 4.889 6.363 5.499.621.126.891-.806.264-.958-2.496-.606-4.959-2.453-5.85-4.927-.513-1.425-.443-2.918-.02-4.353.141-.48.356-.927.52-1.396.098-.279.124-.576.224-.853.063-.174-.177-.289-.297-.174zm8.053 3.485c-.046.241-.229.396-.346.604-.147.262-.218.549-.332.825-.215.521-.492 1.028-.834 1.477-.241.317-.568.65-.889.925l-.128.107-.06.049c.066-.052-.043.032-.056.042l-.114.082-.358.242c-.289.188-.41.566-.23.874.168.287.584.418.874.23a7.21 7.21 0 0 0 1.964-1.921 6.05 6.05 0 0 0 .848-1.736c.093-.312.185-.638.16-.966-.021-.274-.168-.517-.171-.789-.002-.183-.294-.237-.331-.045h.003z" class="B"/><path d="M34.729 55.781c-.179.389-.357.68-.421 1.118-.086.591-.123 1.185-.103 1.782.053 1.593.427 3.149.895 4.664.757 2.451 2.538 4.479 4.59 5.938.455.323 1.05-.435.602-.781-1.838-1.42-3.26-3.334-4.251-5.42-.66-1.389-.938-2.868-.954-4.402l.047-1.671c.025-.401-.053-.749-.074-1.14-.008-.16-.252-.262-.331-.09v.002zm55.335 24.67c.13.858.473 1.724.635 2.596.313 1.687.026 3.462-.861 4.935a7.33 7.33 0 0 1-4.451 3.238c-.96.23-.553 1.724.409 1.481 2.245-.569 4.298-2.185 5.368-4.232a8.14 8.14 0 0 0 .728-5.591c-.222-.978-.608-2.112-1.462-2.708-.199-.139-.395.09-.366.281zM78.816 72.57c-.045.023-.235.15-.197.188.026.025.169-.236-.056.045-.078.098-.111.203-.124.327a3.07 3.07 0 0 0 .066 1.018 5.64 5.64 0 0 0 1.102 2.294c.769.974 1.969 1.631 3.163 1.923.369.09.749.15 1.128.177.385.027.715-.348.715-.715 0-.409-.328-.688-.715-.715l-.269-.027c-.039-.003.199.031.068.008l-.12-.019-.253-.049-.628-.167-.338-.119-.104-.041c.078.034-.014-.007-.024-.012l-.138-.064a4.46 4.46 0 0 1-1.366-.979 4.3 4.3 0 0 1-1.061-1.738c-.114-.356-.157-.654-.299-.963a.66.66 0 0 0-.231-.264c-.044-.035.048.047.044.043-.04-.04-.064-.08-.112-.112-.074-.049-.165-.082-.249-.039h-.002z" class="B"/><path d="M89.056 70.248c.216.752.652 1.434.933 2.164.288.748.452 1.539.488 2.339a6.75 6.75 0 0 1-1.257 4.267c-.97 1.336-2.526 2.334-4.114 2.713-.959.229-.553 1.723.409 1.481 2.051-.517 3.947-1.9 5.071-3.682a8.02 8.02 0 0 0 1.177-4.967c-.149-1.588-.807-3.809-2.34-4.595-.187-.096-.428.063-.366.281l-.001-.001z" class="B"/><path d="M88.72 61.716c.037.726.221 1.442.361 2.159.28 1.437.238 2.969-.223 4.363-.759 2.297-2.704 4.07-4.946 4.831-.933.316-.524 1.811.408 1.481 2.652-.938 4.823-2.966 5.747-5.651.551-1.601.579-3.327.221-4.972-.183-.842-.482-1.806-1.145-2.386-.151-.132-.435-.053-.423.175zM53.404 3.084c.96-.852 2.117-1.51 3.372-1.811.648-.155 1.278-.082 1.932-.019l7.591.896c1.896.203 3.671.468 5.472 1.127 1.549.566 3.039 1.059 4.68 1.282 1.612.219 3.245.353 4.812.816 5.987 1.769 9.75 6.964 11.709 12.655.514 1.494.925 3.039 1.082 4.615.171 1.717.086 3.464-.013 5.183l-.669 9.794c-.208 2.322-.632 4.465-1.626 6.586-1.283 2.738-2.254 5.61-2.867 8.572-.117.565.756.803.865.239.55-2.876 1.424-5.678 2.65-8.339a19 19 0 0 0 1.621-5.7c.407-3.238.493-6.524.659-9.781.091-1.778.299-3.559.291-5.34-.008-1.652-.304-3.286-.738-4.875C92.648 13.207 89.114 7.797 83.55 5.2c-3.071-1.433-6.472-1.098-9.649-2.11-1.355-.432-2.658-1.02-4.052-1.324-.792-.173-1.599-.269-2.404-.36L62.861.905C61.5.745 60.138.501 58.771.399c-2.166-.162-4.129.928-5.604 2.447-.152.157.077.382.239.239l-.002-.001zM68.023 7.3c.977-.611 1.971-1.121 3.103-1.384a8.33 8.33 0 0 1 3.405-.059c.471.089.669-.639.198-.719-2.381-.408-5.123.198-6.859 1.963-.099.101.028.277.153.199z" class="B"/><path d="M89.166 50.32c.148.759.513 1.534.72 2.3.396 1.463.502 3.001.23 4.497-.473 2.601-2.037 4.954-4.268 6.372-.718.456-.044 1.611.668 1.142 2.499-1.646 4.394-4.166 4.886-7.16.273-1.665.127-3.379-.359-4.992-.257-.852-.601-1.884-1.275-2.509-.273-.253-.67.001-.602.35zM65.402 10.413c-.265.732-.675 1.271-.739 2.068-.067.835.011 1.671.143 2.496.261 1.628.88 3.175 1.387 4.736.903 2.784.905 5.976 2.912 8.275 1.713 1.963 4.242 2.91 6.159 4.628 2.121 1.901 3.076 4.778 3.765 7.461.678 2.641 1.238 5.932 3.926 7.296.686.348 1.294-.685.605-1.034-2.308-1.171-2.727-4.105-3.285-6.371-.633-2.573-1.323-5.134-3.019-7.236-1.583-1.963-3.889-3.007-5.839-4.531-.996-.779-1.867-1.707-2.335-2.899-.531-1.351-.665-2.819-1.036-4.215-.445-1.675-1.134-3.271-1.631-4.93-.271-.904-.507-1.828-.604-2.768-.044-.432-.038-.86-.059-1.292-.027-.55-.174-1.044-.026-1.593.057-.212-.252-.291-.325-.09l.001-.001zm-21.026 3.17c4.902-4.104 11.902-5.501 17.869-2.95l.182-.674c-3.081.081-6.092.95-8.76 2.491-1.318.761-2.579 1.686-3.649 2.771-.995 1.009-2.109 2.154-2.612 3.505-.048.128.134.22.223.13.999-1.017 1.77-2.222 2.834-3.189 1.094-.994 2.267-1.886 3.553-2.619 2.563-1.462 5.461-2.287 8.411-2.364.327-.008.533-.524.182-.674-6.053-2.587-13.732-1.38-18.315 3.493-.052.055.025.129.082.082v-.002zm2.397 7.277c-2.457 1.744-1.491 5.39-2.406 7.857-.892 2.41-3.91 3.806-4.268 6.432-.013.096.108.165.166.07.673-1.105 1.42-2.068 2.293-3.025.799-.875 1.631-1.765 2.136-2.851 1.251-2.692.129-5.945 2.184-8.348.059-.069-.019-.197-.105-.136v.001zM72.224 8.828c1.96.519 3.923.628 5.76 1.587 1.904.994 3.189 2.537 3.886 4.563.661 1.923.883 3.965 1.553 5.886.727 2.081 2.058 3.831 3.339 5.596.729 1.004 1.432 2.04 1.941 3.176.598 1.334.829 2.656.794 4.115-.003.15.209.169.253.034.725-2.197-.329-4.64-1.474-6.498-1.286-2.086-3.003-3.922-3.911-6.227-.813-2.065-1.009-4.312-1.767-6.395-.686-1.886-1.892-3.457-3.661-4.441-1.903-1.058-4.514-1.728-6.695-1.532-.073.007-.098.114-.018.135v.001zm-3.717 1.31c.933 1.119 1.292 2.208 1.309 3.676.015 1.296-.084 2.564.103 3.854a13.65 13.65 0 0 0 .98 3.467c.465 1.076 1.012 2.327 2.02 2.993.146.097.356-.064.3-.231-.411-1.233-1.302-2.277-1.793-3.493-.52-1.276-.861-2.618-1.011-3.988-.139-1.294-.003-2.614-.241-3.897-.174-.938-.643-2.088-1.567-2.51-.085-.039-.162.056-.1.129zm39.067 83.518c-.887 1.225-1.497 2.65-1.916 4.098-.394 1.362-.796 3.003-.382 4.402.052.174.299.172.351 0 .21-.691.26-1.41.367-2.121.105-.698.235-1.39.419-2.073.381-1.411.978-2.727 1.643-4.024.167-.325-.273-.571-.482-.282zM37.009 47.951c-.107 2.949.316 6.014.999 8.878.702 2.94 1.703 5.756 3.066 8.457 2.681 5.309 6.589 10.049 11.272 13.713 1.305 1.021 2.665 1.971 4.089 2.821.715.427 1.447.823 2.192 1.195.783.393 1.56.841 2.44.921.492.045.759-.659.405-.977-.518-.465-1.123-.698-1.741-1.01-.681-.344-1.352-.708-2.011-1.092a40.17 40.17 0 0 1-3.651-2.39c-2.292-1.692-4.386-3.657-6.259-5.802-3.805-4.359-6.621-9.545-8.431-15.029-1.043-3.161-1.522-6.381-1.793-9.687-.03-.366-.563-.376-.577 0v.002z" class="B"/><path d="M62.451 83.778c1.327 1.163 3.715.016 5.042-.689 1.553-.825 3.024-1.831 4.452-2.855 2.832-2.031 5.369-4.489 7.598-7.163 4.481-5.377 7.728-11.82 9.211-18.664.798-3.684 1.494-7.754.749-11.489-.026-.132-.254-.139-.274 0-.465 3.281-.549 6.572-1.296 9.816s-1.881 6.434-3.267 9.463c-2.745 6-6.781 11.435-11.799 15.726-1.437 1.228-2.91 2.384-4.502 3.406-.912.585-1.849 1.159-2.863 1.551-.984.381-2.042.337-2.999.696-.078.029-.127.136-.053.201l.001.001zM44.903 46.526c.569-.151 1.059-.514 1.578-.783.648-.338 1.32-.629 2.011-.87 1.22-.42 2.54-.584 3.826-.425 1.063.132 2.103.511 2.99 1.11.947.638 1.634 1.563 2.34 2.44.175.218.461-.027.423-.246-.415-2.407-3.148-3.913-5.395-4.179-1.381-.163-2.732.128-4.037.572-.704.239-1.385.544-2.041.894-.633.337-1.378.678-1.838 1.242-.089.108-.008.285.143.245z" class="B"/><path d="M56.997 46.378c-.383.097-.502.554-.737.838-.302.364-.675.659-1.083.894-.804.463-1.735.699-2.65.815-1.213.152-2.246-.001-3.284-.668l-1.407-.959c-.46-.3-.852-.657-1.357-.885-.066-.029-.168.003-.16.092.105 1.225 1.501 2.005 2.433 2.594 1.207.764 2.404.936 3.803.724 1.074-.163 2.159-.482 3.08-1.071a4.72 4.72 0 0 0 1.146-1.014c.265-.331.687-.825.462-1.258-.045-.086-.156-.123-.245-.1l-.001-.002zm-12.311-2.075c2.606-1.667 5.807-3.166 8.937-2.183 2.541.798 3.909 3.548 6.529 4.131.163.036.239-.166.11-.26-2.269-1.629-4.077-4.368-7.003-4.846-3.296-.538-6.116 1.096-8.733 2.882-.168.115-.014.388.161.276h-.001zm22.677 3.222c.752-.851 1.413-1.65 2.404-2.251.933-.566 2.004-.916 3.099-.948 1.227-.035 2.511.223 3.697.525.639.163 1.267.368 1.866.645.523.242.984.584 1.535.763.19.061.393-.181.27-.352-.709-.995-2.24-1.435-3.372-1.734-1.326-.351-2.805-.656-4.183-.575-2.233.131-4.776 1.492-5.771 3.578-.132.276.222.612.453.349h.002z" class="B"/><path d="M67.451 46.795c.832 2.008 3.323 3.274 5.431 3.121 1.109-.081 2.164-.477 3.081-1.1.949-.645 1.96-1.583 2.408-2.657.055-.131-.134-.276-.248-.19-.833.626-1.504 1.399-2.396 1.963-.835.528-1.78.952-2.774 1.04-.899.08-1.827-.103-2.633-.509-.958-.483-1.59-1.249-2.356-1.967-.203-.19-.637-.004-.512.298l-.001.001zm-2.496-.535c1.131-.133 2.13-1.146 2.962-1.861 1.086-.933 2.191-1.909 3.602-2.297 3.176-.873 6.134.746 8.898 2.069.107.052.197-.07.124-.16-.499-.619-.96-1.095-1.663-1.484-.688-.382-1.412-.695-2.161-.935-1.486-.47-3.116-.67-4.662-.423-1.456.233-2.657.983-3.774 1.908l-1.726 1.489c-.562.47-1.231.82-1.745 1.343-.112.115-.04.37.144.348l.001.003zm-6.447-5.75c-.164-.541-.769-.725-1.242-.958l-2.021-.881c-1.405-.526-2.884-.869-4.369-1.071-1.355-.185-2.75-.302-4.115-.164-.986.1-2.8.351-3.114 1.502-.026.096.032.221.136.24.52.098 1-.128 1.499-.26.644-.17 1.291-.291 1.956-.328 1.273-.071 2.57.04 3.827.237 1.272.204 2.529.493 3.763.865l1.963.649c.497.186 1.055.584 1.588.392.091-.032.157-.124.127-.224l.002.001zm7.522.296c1.292-.466 2.492-1.163 3.791-1.624 1.287-.456 2.609-.841 3.958-1.064 1.318-.217 2.7-.274 4.03-.135 1.279.134 2.533.506 3.81.607.186.015.267-.235.148-.356-1.922-1.957-5.474-1.848-7.953-1.383-1.427.268-2.817.727-4.136 1.329-1.337.61-2.756 1.249-3.914 2.166-.215.17.017.55.266.46zM56.222 71.51c.792.662 1.733 1.195 2.692 1.572.541.213 1.103.423 1.669.56.253.061.511.115.773.089s.462-.165.708-.228c.486-.126 1.128.2 1.65.222a4.51 4.51 0 0 0 1.582-.225c1.074-.356 1.884-.985 2.751-1.673.13-.103-.036-.263-.161-.209-.954.405-2.014.819-3.032 1.033-.493.104-.996.158-1.497.065-.426-.079-.811-.296-1.255-.23-.203.03-.364.126-.552.194-.358.131-.56.103-.924.028-.473-.098-.938-.23-1.398-.377l-2.894-1.013c-.106-.037-.2.119-.113.193l.001-.001zm-2.774-2.362c.626 1.236 2.757.625 3.767.456 1.103-.184 2.004-.043 3.035.347.798.301 1.553.397 2.39.208.912-.206 1.726-.647 2.685-.62.983.028 1.922.385 2.884.547 1.278.216 2.835.071 3.599-1.105.137-.211-.132-.465-.34-.34-1.37.822-2.868.423-4.321.073-.761-.183-1.551-.351-2.338-.293s-1.495.366-2.243.579c-.864.245-1.541.039-2.371-.212a4.32 4.32 0 0 0-2.129-.133c-.871.159-1.69.534-2.577.631-.717.078-1.302-.151-1.987-.231-.05-.006-.073.056-.053.094l-.001-.001zm5.17-2.555c.272-.01.513-.137.771-.214.3-.087.609-.135.921-.145.297-.013.596.025.869.15.254.116.431.235.719.145.266-.082.461-.218.751-.228s.579.057.86.134c.525.145 1.054.342 1.57.043.054-.032.049-.105 0-.138-.496-.336-1.066-.522-1.646-.659-.288-.068-.592-.115-.889-.095-.136.008-.272.028-.404.062-.148.039-.281.139-.424.177-.199.054-.505-.128-.728-.155-.285-.033-.574-.017-.853.047-.264.061-.527.194-.77.312-.271.132-.574.264-.773.497-.021.025-.009.069.028.068h.001l-.003-.001zM57.546 59.3c.203.374.452.639.778.91.34.283.632-.084.954-.222a2.24 2.24 0 0 1 1.066-.158c.38.033.699.206 1.03.381s.762.395 1.15.314c.135-.028.311-.099.341-.25.023-.118-.045-.2-.153-.243-.177-.07-.382-.053-.564-.118-.19-.067-.362-.178-.533-.284-.334-.205-.677-.386-1.067-.456-.417-.074-.838-.055-1.243.073-.355.113-.902.327-1.017.716l.355-.201c-.163-.063-.305-.19-.444-.291l-.443-.333c-.113-.097-.284.024-.209.161l-.001.001z" class="B"/><path d="M67.108 59.136c-.14.122-.292.224-.443.333-.139.1-.283.229-.444.291l.355.201c-.105-.353-.554-.542-.873-.665-.335-.13-.71-.194-1.069-.165a2.7 2.7 0 0 0-1.094.324c-.356.194-.672.453-1.082.52-.138.023-.339.016-.429.143-.069.097-.036.21.049.288.287.266.8.086 1.104-.047.353-.155.672-.385 1.049-.481.345-.088.725-.077 1.069.013.194.05.379.13.549.235s.345.266.558.176c.176-.074.382-.292.514-.429.162-.167.284-.372.394-.576.075-.136-.096-.259-.209-.161h.002zm-7.048.113c.007-.024.019-.051.022-.076l-.014.014.02-.024c.025-.03.047-.056.057-.095.007-.026.009-.052.013-.079l.01-.079c.013-.106.024-.21.016-.316-.007-.082-.05-.144-.13-.17-.015-.005-.031-.007-.047-.006-.082.007-.143.05-.17.13-.039.114-.052.232-.067.35l-.01.079c-.007.054.005.099.029.149l.014.028c.018.033-.006-.056-.008-.026s.002.058.003.086c.002.066.049.122.115.131s.128-.031.146-.095l.001-.001z" class="B"/><path d="M64.937 59.47a.63.63 0 0 0 .108-.314v-.228-.228a.6.6 0 0 0-.036-.165.42.42 0 0 0-.078-.141l-.034-.037a.24.24 0 0 0-.335 0l-.029.032c-.042.047-.062.087-.083.146-.021.053-.033.108-.036.165v.228.228a.64.64 0 0 0 .108.314c.05.071.117.119.207.119a.25.25 0 0 0 .208-.119z" class="B"/><g style="mix-blend-mode:darken" class="C B"><path d="M39.049 135.525l3.414 5.667a31.11 31.11 0 0 0-2.277 6.921c-1.347 6.661-.015 11.598.825 16.954.985 6.275.912 10.686.771 19.285-.141 8.561-1.228 9.794-3.547 26.13-2.207 15.542-3.31 23.313-2.665 27.304l4.308 25.144c.478 2.411 1.033 5.11-.423 7.445-.727 1.165-3.04 3.981-17.02 4.029-4.865.016-11.565-.3-19.535-1.756l-.072-4.399c4.494.036 11.021.17 18.956.632 7.248.422 8.821.719 10.347-.5 4.651-3.714-1.368-13.321-2.256-30.098-.541-10.224 1.057-18.694 3.935-33.942 1.592-8.433 2.797-12.306 3.163-20.214.366-7.931-.325-15.29-.69-18.562-1.235-11.078-3.264-16.057-.833-23.196 1.051-3.088 2.535-5.398 3.599-6.844z"/></g><g style="mix-blend-mode:darken" class="C B"><path d="M149.897 207.627c-1.484-8.646.047-8.679-1.083-16.59-1.401-9.803-4.222-13.046-7.392-22.634-3.315-10.028-2.574-13.58-4.76-26.345-4.192-24.485-12.446-43.734-13.175-43.529-.539.152 2.772 11.061 7.115 34.252l3.533 18.701 4.207 19.475c3.434 14.328 5.962 15.319 6.484 23.813.393 6.385-.739 7.217.283 12.851.345 1.903.843 3.858 1.104 6.026-.015.029-.034.055-.045.086-.117.316-.055.689-.068 1.022-.005.141-.011.281-.023.421l-.017.162-.019.117c-.052.283-.129.562-.228.832l-.049.113c-.027.055-.055.11-.086.163a2.78 2.78 0 0 1-.115.188c-.01.016-.068.095-.089.126-.406-.009-.819.12-1.077.434-.109.132-.201.284-.193.464 0 .011.005.02.006.03l-.06.024-.22.082a6.26 6.26 0 0 1-.448.137c-.295.079-.625.116-.906.229s-.482.345-.434.664a.61.61 0 0 0 .595.526c.38.009.721-.087 1.092-.158.329-.063.664-.13.982-.237.338-.113.582-.194.888-.368.117.156.218.324.301.501.047.13.09.264.136.396l-.103.637c-.216 1.16-.525 2.301-.925 3.412.812.352 1.683.548 2.567.578 1.428.045 2.767-.29 3.241-.682 2.65-2.19.352-7.922-1.021-15.918l.002-.001z"/></g><g style="mix-blend-mode:darken" class="C B"><path d="M126.191 128.914c.134.015-1.084 12.75-2.693 26.2l-.798 6.889c-.945 12.873 1.436 22.024 1.184 22.068-.21.036-2.463-6.132-2.853-14.896-.327-7.343.947-9.919 3.337-26.536l1.823-13.725z"/></g><g style="mix-blend-mode:darken" class="C B"><path d="M50.334 76.631l-.307 1.679c2.595 3.161 5.309 4.999 7.112 6.02 2.789 1.58 5.291 2.998 8.548 2.68 2.974-.291 5.233-1.899 7.553-3.55 1.405-1.001 2.709-2.138 3.89-3.395l-.572-4.243a24.59 24.59 0 0 1-4.446 4.376c-2.472 1.879-4.943 3.756-8.301 3.841-2.875.073-5.031-1.2-7.718-2.787-2.696-1.592-4.59-3.373-5.759-4.621z"/></g><g style="mix-blend-mode:darken" class="C B"><path d="M83.599 45.563c.006-.396-.176-.726-.235-1.111-.077-.503.046-.986.207-1.459.32-.941.823-1.811 1.153-2.751.682-1.946.865-4.06.604-6.101l-1.894.256c.439 3.242.906 6.501 2.19 9.536.612 1.446 1.353 2.819 1.745 4.349.203.794.314 1.588.378 2.404.053.675.082 1.591.623 2.074.127.114.332.163.484.063 1.255-.832.724-3.203.49-4.421-.316-1.64-.99-3.135-1.68-4.644-1.424-3.112-1.908-6.512-2.371-9.872-.147-1.065-2.034-.823-1.894.256.295 2.276.11 4.578-.607 6.763-.317.967-.676 1.893-.646 2.927.021.746.223 1.831 1.076 2.017.19.041.373-.085.377-.286z"/></g><g style="mix-blend-mode:darken" class="C B"><path d="M64.945 15.104c-.294.249-.384.58-.534.922a4.97 4.97 0 0 1-.624 1.028c-.533.679-1.217 1.214-1.964 1.637-1.639.928-3.532 1.245-5.285 1.889-1.833.674-3.447 1.669-4.49 3.365-1.019 1.658-1.43 3.597-1.935 5.45-.268.983-.53 1.973-.983 2.892-.461.937-1.118 1.724-1.774 2.526-.085.105-.006.247.13.223 1.766-.324 2.869-2.166 3.538-3.682.813-1.843 1.143-3.881 2.068-5.673.978-1.893 2.59-2.899 4.567-3.553 1.88-.622 3.832-1.041 5.493-2.177.852-.582 1.646-1.291 2.149-2.206.391-.711.806-1.977.132-2.639-.141-.139-.346-.122-.49 0l.002-.002z"/></g><g style="mix-blend-mode:darken" class="C B"><path d="M88.918 62.383l-.027.011.333.044a.57.57 0 0 0-.604.048c-.1.067-.195.135-.279.221l-.209.2-.082.072c-.024.02-.102.064-.112.092l.031-.024-.058.043-.089.063-.244.156-.215.135c-.073.043-.146.082-.208.144-.05.051-.098.127-.143.187l.185-.185-.088.064-.127.097-.059.075c.024-.031.022-.031-.007 0l-.034.036c-.054.061-.096.132-.123.209l.097-.166c.027-.014.03-.014.007 0-.029.019-.057.04-.083.063a.47.47 0 0 0-.085.128c-.057.118.021-.048-.016.036l-.035.091c-.019.054.001.131.044.168.023.02.049.044.074.06.063.038-.07-.039.03.016.045.025.085.052.136.066.027.007.199.036.073-.007-.083-.03-.068-.022.046.023l.107.014c.015.002.089.015.101.006l-.061-.009c.064.02.128.023.193.008l.135-.022c.096-.018-.077-.004-.018.007s.141-.004.199-.019c.097-.024.194-.08.285-.123.115-.055.224-.117.33-.188a5.1 5.1 0 0 0 .665-.534c.113-.108.246-.23.324-.366.121-.213.236-.507.069-.727l.059.218.003-.028a.42.42 0 0 0-.165-.326.42.42 0 0 0-.359-.073v-.002l.004-.002z"/></g><g style="mix-blend-mode:darken" class="C B"><path d="M89.027 70.485c-.161-.015-.294.054-.418.147s-.115.066-.27.211c-.148.137-.272.303-.413.448l-.9.882-.236.197-.012.01-.203.158-.235.195-.097.094a.6.6 0 0 1-.075.067l.003-.003-1.004.711c-.229.149-.909.593-.556.923.138.129.427.136.604.118a3.21 3.21 0 0 0 .65-.159c.852-.276 1.62-.732 2.273-1.342.362-.333.687-.706.968-1.11s.796-1.463-.079-1.545l.001-.001-.001-.001z"/></g><g style="mix-blend-mode:darken" class="C B"><path d="M89.414 80.454l-.041.015h.277c-.508-.195-.861.377-1.198.652.08-.065.03-.024-.023.014l-.101.072-.205.141a4.16 4.16 0 0 1-.493.27l-.057.027c.091-.039-.157.065-.133.055l-.361.165c.071-.032-.006.003-.034.015l-.141.056-.321.114-.604.223a1.23 1.23 0 0 0-.637.478c-.102.145-.014.328.11.419.436.319 1.057.224 1.561.153.51-.072.979-.185 1.443-.417.379-.19.745-.437 1.036-.746.347-.369.924-1.092.39-1.556l.134.23-.009-.043c-.05-.241-.359-.421-.592-.336l-.001-.001z"/></g><g style="mix-blend-mode:darken" class="C B"><path d="M89.45 90.521c.068-.021.073-.026.014-.015-.053.003-.054.007-.003.012.079.013.049.01-.089-.011l-.126.017c-.116.027-.196.089-.294.148-.153.092-.293.2-.438.305l-.9.577-.224.107c-.161.074.086-.03-.011.005l-.128.049-.525.165c-.209.063-.431.108-.619.224-.028.018-.201.15-.082.06a.88.88 0 0 0-.217.221.54.54 0 0 0-.105.296l.195-.34-.041.027c-.218.146-.255.494 0 .632l.041.022-.181-.236c.02.107.103.202.178.275.085.084.164.117.268.161-.152-.064.11.04.145.049.263.067.532.019.792-.034.422-.085.839-.278 1.213-.486s.725-.457 1.009-.77a2.46 2.46 0 0 0 .424-.637c.04-.085-.008.018.019-.038a.65.65 0 0 0 .081-.281c.002-.11-.035-.178-.065-.282.028.099 0 .046.018-.018.06-.218-.196-.326-.349-.204z"/></g><g style="mix-blend-mode:darken" class="C B"><path d="M88.39 96.771l-.031.036.133-.077c-.123.041-.22.077-.32.166l-.072.071c.061-.067-.145.189-.104.138.035-.043-.05.059-.058.068l-.091.098c-.082.088-.153.181-.23.274.083-.102-.003-.001-.02.019l-.093.104-.201.197-.192.167c-.049.041-.093.072-.016.015l-.114.082c-.332.231-.696.392-1.059.567l-.265.121-.147.067c-.042.018-.039.018.008-.002l-.061.025c-.126.053-.279.094-.395.162-.063.039-.122.084-.176.135a1 1 0 0 0-.084.102l-.025.035c-.234.287-.172.736.223.846.157.044.302.079.468.057.136-.019.267-.06.399-.097l.619-.194c.477-.177.925-.429 1.326-.739a3.78 3.78 0 0 0 .917-.987c.119-.191.186-.421.227-.642.056-.303.036-.543-.176-.779l.077.133-.012-.048c-.049-.187-.324-.283-.46-.121l.005.001z"/></g><g style="mix-blend-mode:darken" class="C B"><path d="M87.606 105.497c-.282-.032-.563.218-.725.421l-.458.527a9.93 9.93 0 0 1-1.036.994l-.194.152-.285.203-.577.4-.607.427c-.182.139-.406.304-.551.479-.22.266-.066.606.267.645.244.028.559-.032.797-.095a3.52 3.52 0 0 0 .733-.294c.479-.25.911-.565 1.323-.913.374-.315.728-.661 1.042-1.036.307-.368.931-1.031.732-1.559-.083-.22-.233-.324-.461-.351z"/></g><g style="mix-blend-mode:darken" class="C B"><path d="M87.028 114.415c-.18.284-.38.555-.598.81-.261.304-.562.572-.873.824l-.208.17-.007.005-.135.1-.502.333-1.045.595c-.187.103-.418.175-.571.328-.239.239-.26.646-.023.89.369.382 1.052.117 1.48-.05.803-.314 1.57-.83 2.189-1.428.645-.622 1.66-1.768.862-2.651-.164-.182-.451-.114-.572.074h.003z"/></g><g style="mix-blend-mode:darken" class="C B"><path d="M86.751 124.803c-.115.01-.198.037-.302.084h.492c-.104-.076-.256-.086-.38-.069-.135.018-.223.073-.33.158-.053.042-.028.02.011-.008l-.256.194c-.07.057.093-.066.02-.015l-.093.067-.175.132c-.101.078.076-.055.008-.006l-.172.122c-.117.078-.239.15-.364.215l-.168.086-.106.05-.022.011c.107-.047-.022.007-.045.016l-.089.032-.202.065c-.136.039-.274.07-.413.093-.046.008-.174.029.031-.002l-.241.033c-.117.026-.231.081-.338.132-.243.117-.36.433-.326.681a.69.69 0 0 0 .161.357c.087.101.201.175.329.212.379.117.812.007 1.182-.11.332-.104.669-.243.965-.428.281-.176.582-.384.799-.638.13-.145.245-.304.343-.473.058-.107.116-.215.132-.337.022-.162-.026-.385-.162-.495l.126.474c.015-.115.026-.205-.001-.319-.039-.168-.234-.331-.414-.314z"/></g><g style="mix-blend-mode:darken" class="C B"><path d="M77.823 73.81c-.085.382-.064.709.035 1.086a5.25 5.25 0 0 0 .38.982 6.21 6.21 0 0 0 1.197 1.648 6.79 6.79 0 0 0 1.613 1.194 7.04 7.04 0 0 0 .979.422c.172.059.34.102.52.126.19.026.338-.009.516-.084-.179.075.132-.062.177-.093.225-.153.357-.473.19-.723-.022-.033-.214-.273-.132-.173.048.079.018.041-.093-.114-.059-.058-.125-.105-.199-.14-.153-.082-.328-.126-.493-.178l-.444-.162c.118.049-.041-.021-.073-.035l-.182-.089a5.98 5.98 0 0 1-.75-.457l-.069-.048-.184-.15-.326-.296-.281-.293-.155-.18-.076-.092c-.177-.234-.346-.473-.494-.728l-.391-.781c-.054-.117.014.04-.039-.093l-.057-.139-.02-.05c-.075-.179-.164-.314-.272-.474-.216-.319-.782-.315-.876.115l-.001-.001z"/></g><g style="mix-blend-mode:darken" class="C B"><path d="M78.428 84.384c-.195.5.419.974.775 1.208a7.34 7.34 0 0 0 1.267.649c.816.333 1.797.499 2.677.428.388-.032.765-.32.745-.745-.018-.398-.328-.753-.745-.745l-.642.005-.542-.041c.063.008-.077-.013-.09-.015l-.186-.034-.296-.065-.619-.172a5.1 5.1 0 0 1-1.049-.457c-.334-.186-1.089-.545-1.295-.016z"/></g><g style="mix-blend-mode:darken" class="C B"><path d="M77.766 93.355c.198.52.688.92 1.066 1.315.4.417.844.794 1.349 1.079a5.55 5.55 0 0 0 1.562.599c.295.063.599.105.9.119l.411.002a1.16 1.16 0 0 0 .681-.278c.38-.302.217-.928-.148-1.148-.298-.18-.615-.131-.944-.147l-.328-.026c-.258-.026.07.014-.077-.01l-.162-.029a4.89 4.89 0 0 1-.713-.198l-.153-.059-.007-.003-.075-.035-.328-.171c-.416-.237-.702-.493-1.079-.824-.408-.358-.882-.832-1.464-.828-.303.002-.607.326-.488.64h-.002l-.001.002z"/></g><g style="mix-blend-mode:darken" class="C B"><path d="M77.225 101.093c-.012.146-.035.264-.013.412a1.7 1.7 0 0 0 .098.343c.102.271.194.528.368.764a8.45 8.45 0 0 0 1.078 1.21c.399.367.836.711 1.303.987l.658.347c.355.166.711.344 1.111.244.393-.098.648-.631.4-.984a1.12 1.12 0 0 0-.428-.381c-.087-.043-.179-.075-.268-.115.139.062-.062-.03-.072-.034l-.631-.326-.605-.371-.304-.213-.046-.033-.159-.128a8.09 8.09 0 0 1-1.008-.998c-.161-.189-.348-.34-.522-.515l-.244-.221c-.113-.088-.226-.129-.349-.198-.17-.096-.353.027-.367.21z"/></g><g style="mix-blend-mode:darken" class="C B"><path d="M76.705 109.948c-.034.557.322 1.137.647 1.564.345.454.72.892 1.162 1.255.433.361.902.678 1.399.946.265.139.57.318.861.383.102.022.218.033.323.036l.064.004c.122 0 .235-.031.34-.092-.087.016-.037.031.029.013.085-.022.157-.064.228-.113.136-.094.259-.289.189-.463a1.58 1.58 0 0 0-.238-.393c.096.126-.104-.126-.139-.156a2.58 2.58 0 0 0-.177-.135c-.099-.071-.166-.098-.29-.148-.209-.084.13.061-.076-.031l-.31-.146c-.224-.111-.444-.235-.656-.369l-.341-.228-.138-.101a.23.23 0 0 0 .011.01l-.081-.064c-.393-.315-.766-.647-1.1-1.026s-.642-.848-1.079-1.106c-.286-.169-.609.051-.628.36z"/></g><g style="mix-blend-mode:darken" class="C B"><path d="M77.284 120.562l.015.073v-.292c-.152.368.251.799.497 1.03.219.206.464.393.72.549a4.62 4.62 0 0 0 .808.382 1.64 1.64 0 0 0 .506.099.75.75 0 0 0 .227-.027c.034-.01.303-.109.085-.031a1.28 1.28 0 0 0 .165-.074c.03-.015.111-.043.002-.007a.47.47 0 0 0 .331-.39.47.47 0 0 0-.042-.263c-.039-.082-.101-.151-.178-.198.09.06.023.011-.001-.015-.051-.053-.111-.095-.169-.139l.215.215c-.079-.104-.157-.202-.272-.269-.088-.052-.189-.084-.284-.122-.106-.042-.217-.067-.325-.104l-.15-.055-.074-.03c.169.063.068.028.029.01l-.303-.157-.27-.173-.081-.058c-.068-.048.097.079.034.026l-.123-.103-.256-.227-.178-.152c-.158-.122-.335-.138-.527-.102l.424.056-.067-.033c-.089-.049-.19-.071-.291-.064a.52.52 0 0 0-.278.107c-.08.061-.141.145-.174.241a.52.52 0 0 0-.013.297h-.002z"/></g><g style="mix-blend-mode:darken" class="C B"><path d="M78.925 130.635l.018.042-.035-.131c.002.246.15.453.283.65.148.218.411.389.636.521.418.244.869.425 1.343.526.138.029.29.07.431.064a1.25 1.25 0 0 0 .258-.04l.147-.062-.064.03c.012-.032.137-.051.173-.074.2-.123.328-.386.253-.621-.045-.14-.132-.246-.253-.328-.024-.017-.069-.023-.01 0 .065.06.032.035-.099-.072l-.04-.019c-.231-.123-.503-.131-.755-.194l-.615-.185-.177-.066c-.065-.023.029.013.035.015-.037-.014-.073-.032-.109-.049l-.249-.107c.114.049-.044-.021-.08-.037l-.065-.031c-.108-.049-.186-.055-.294-.083.117.03-.041-.023-.074-.034l-.149-.04-.086-.016c-.045-.008-.114.001-.153-.011-.22-.068-.348.175-.27.352z"/></g><g style="mix-blend-mode:darken" class="C B"><path d="M43.716 69.624c-.062.12.041-.053-.01.022l-.134.184a2.35 2.35 0 0 0-.136.252l-.255.52c-.176.358-.376.702-.606 1.028l-.085.118-.053.07c.053-.068-.057.07-.055.068l-.091.113-.378.445-.402.398c-.052.045-.073.056-.004.01l-.104.063c-.064.044.101-.041-.001-.001l-.138.059c.078-.031.09-.036.036-.017-.309.106-.478.449-.305.748.187.322.558.405.901.323.287-.068.505-.234.722-.425.381-.336.715-.709 1.01-1.122.271-.38.505-.785.697-1.21.229-.507.459-1.107.223-1.646-.144-.329-.677-.299-.831.001l-.001-.001z"/></g><g style="mix-blend-mode:darken" class="C B"><path d="M35.301 65.079c-.276.55.028 1.236.265 1.755.233.509.56.975.916 1.405s.764.804 1.218 1.122a5.98 5.98 0 0 0 .656.396c.169.091.353.15.543.176l.042.008c.072.023.144.026.216.01.159-.022.259-.107.38-.203.293-.231.236-.732 0-.971-.027-.027-.269-.216-.139-.116-.075-.057-.147-.121-.229-.169l-.309-.167-.535-.349-.155-.112c-.111-.081.038.035-.027-.021l-.268-.228a6.25 6.25 0 0 1-.473-.476l-.206-.243c-.048-.058.047.066-.028-.036l-.113-.156c-.128-.184-.241-.376-.354-.57-.24-.411-.38-.941-.79-1.213-.193-.128-.51-.047-.614.161l.004-.003z"/></g><g style="mix-blend-mode:darken" class="C B"><path d="M34.41 73.002c-.466.433-.005 1.222.271 1.634.294.44.644.857 1.042 1.208.862.76 1.886 1.31 2.952 1.724.243.094.494.205.748.263.401.091.756.048 1.036-.159a.61.61 0 0 0 .202-.257.39.39 0 0 0 .004-.186c-.004-.025-.082-.25-.042-.142-.147-.39-.457-.586-.837-.728-.978-.368-1.903-.716-2.815-1.338-.461-.306-.878-.674-1.239-1.094-.236-.278-.835-1.374-1.321-.923l-.001-.002z"/></g><g style="mix-blend-mode:darken" class="C B"><path d="M44.407 78.637c-.002-.031-.007-.022-.015.026l.115-.198c-.066.066-.119.148-.172.225l-.041.061c.021-.024-.056.046-.065.054-.177.156-.218.189-.445.345l-1.2.778-1.186.724-.649.344c-.213.108-.462.192-.652.335-.491.368-.207 1.098.416.988.29-.052.586-.223.855-.343l.778-.366 1.508-.822.675-.463c.234-.168.494-.329.692-.54.378-.401.559-1.358-.187-1.474-.227-.035-.408.09-.427.326z"/></g><g style="mix-blend-mode:darken" class="C B"><path d="M34.014 82.316c.203.315.431.613.682.891a8.66 8.66 0 0 0 .794.75c.586.485 1.204.916 1.879 1.267.18.094.368.202.561.265.335.109.231.023.141.014.145.014.225.032.378 0a.87.87 0 0 0 .29-.112c.526-.336.201-1.025-.225-1.288-.308-.19-.655-.324-.969-.509l-.895-.565-.258-.185-.085-.063c-.057-.043.044.036-.05-.039l-.111-.089-.113-.087-.248-.201c-.332-.276-.636-.587-1.002-.82-.464-.294-1.088.302-.77.77l.001.001z"/></g><g style="mix-blend-mode:darken" class="C B"><path d="M45.111 85.889l.063.03-.067-.117-.006.144.12-.29c-.13.105-.295.343-.379.431-.071.074-.126.145-.191.227.058-.073-.012.014-.036.042l-.23.239c-.37.35-.786.656-1.183.974L41.895 88.7l-.685.595c-.121.111-.248.21-.328.356-.085.156-.092.295-.097.466-.003.137.105.293.244.321.165.033.302.063.472.019s.313-.16.458-.261l.767-.559 1.603-1.183c.418-.33.843-.646 1.182-1.061.354-.432.707-1.117.352-1.654-.114-.172-.372-.282-.561-.147l-.13.066c-.122-.015-.171.181-.062.232l.001-.001z"/></g><g style="mix-blend-mode:darken" class="C B"><path d="M34.964 91.546c-.179.209-.319.343-.27.648a1.16 1.16 0 0 0 .333.627c.38.386.889.553 1.386.731l1.648.507c.63.165 1.438.481 1.999.013.211-.177.21-.508.094-.732-.265-.514-1.017-.567-1.519-.682l-1.453-.361-.702-.186-.268-.08-.122-.044-.02-.008-.22-.087c-.031-.011-.087-.034-.025-.007l-.292-.139c.043.021-.051-.028-.06-.032l-.095-.048c-.075-.036-.244-.044-.285-.102-.029-.041-.094-.062-.132-.017l.002.001.001-.002z"/></g><g style="mix-blend-mode:darken" class="C B"><path d="M45.478 93.817c.015-.119-.027.048-.03.058-.005.016-.058.155-.025.086s-.052.087-.05.083l-.072.14-.085.138c-.107.166.079-.081-.049.067l-.222.234-1.097.996-.137.111-.049.04-.367.287-.501.39c-.22.166-.407.361-.617.539-.075.063-.153.117-.232.174-.065.048-.14.102-.195.162s-.067.128-.112.198c-.15.229.052.49.291.507l.063.005-.189-.051c.297.164.601-.01.891-.107.296-.099.585-.189.861-.336.522-.28.994-.633 1.446-1.014.773-.653 2.162-1.847 1.496-2.982a.56.56 0 0 0-.616-.251c-.252.069-.369.285-.401.527l-.002-.001z"/></g><g style="mix-blend-mode:darken" class="C B"><path d="M36.55 101.147c.183.131.431.176.645.239l.516.132 1.127.255 1.132.233c.441.086.97.272 1.382.01.267-.171.423-.568.224-.855-.291-.42-.752-.469-1.217-.566l-1.179-.232-1.141-.203c-.419-.074-.927-.199-1.348-.104-.227.052-.401.274-.428.497-.03.252.082.449.285.594h.002z"/></g><g style="mix-blend-mode:darken" class="C B"><path d="M46.33 103.021c.132-.071-.061.027-.086.041a.68.68 0 0 0-.214.214c-.045.075-.076.158-.117.235l-.124.236-.078.125c-.013.019-.111.133-.025.037l-.183.196-.091.081c-.102.091.072-.042-.034.024l-.247.146-.103.05-.063.029.038-.018-.999.322c-.191.067-.382.143-.56.239-.231.125-.383.292-.54.497-.145.189-.079.531.088.683.179.165.467.228.683.088.147-.094.306-.182.462-.258l.081-.038-.062.027c0-.006.121-.047.128-.049l.263-.088c.392-.121.786-.23 1.156-.413.407-.201.748-.542.991-.922.116-.183.221-.391.268-.602.072-.317.063-.576-.171-.821-.119-.125-.316-.14-.464-.06l.003-.001z"/></g><g style="mix-blend-mode:darken" class="C B"><path d="M38.193 108.5c-.257.046-.368.219-.373.472l.103-.248c-.388.401-.012.927.323 1.22.316.278.712.438 1.111.558.375.113.763.17 1.151.218.407.05.927.128 1.282-.121.167-.117.274-.256.301-.461.024-.18-.022-.41-.174-.53a1.24 1.24 0 0 0-.766-.287l-.456-.033-.479-.042c-.103-.01.134.021.032.005l-.131-.021-.233-.045a3.9 3.9 0 0 1-.427-.116l-.122-.043-.037-.013c.115.045-.122-.053-.094-.041l-.177-.071c-.073-.026-.027-.013.017.011-.072-.038-.151-.064-.228-.091l-.093-.033c-.083-.027.086.039.003.001l-.189-.087-.124-.052c.067.038.065.04-.007.006-.082-.016-.146-.043-.235-.035l.303.174c-.023-.034-.045-.096-.082-.17v.235l.007-.004c.164-.158-.009-.392-.206-.356z"/></g><g style="mix-blend-mode:darken" class="C B"><path d="M47.198 112.377l-.096.066c-.002.002-.105.11-.04.052-.063.057-.138.099-.199.16-.074.075-.132.162-.191.249l-.07.104c.048-.067.017-.021-.017.017a3.36 3.36 0 0 1-.335.314l-.1.084c-.021.018-.096.067.003-.002l-.222.152c-.139.088-.283.168-.43.242l-.2.097-.127.057-.076.033.027-.012-.333.138c.123-.052-.054.021-.096.038l-.776.333c-.199.1-.396.187-.578.316-.239.169-.42.502-.187.761.205.227.502.181.773.138.239-.038.493-.11.723-.184.7-.228 1.407-.492 2.016-.915.626-.436 1.542-1.412.898-2.192-.082-.099-.26-.112-.366-.047l-.001.001z"/></g><g style="mix-blend-mode:darken" class="C B"><path d="M38.598 117.723c-.014.409.441.682.747.872.353.22.719.378 1.115.507.348.113.705.214 1.067.275.468.079 1.062.245 1.431-.149.163-.174.226-.468.087-.679-.187-.283-.43-.379-.758-.418l-.026-.003-.17-.025-.272-.046-1.112-.243-1.063-.277c-.199-.049-.404-.109-.61-.098-.176.009-.428.062-.436.284z"/></g><g style="mix-blend-mode:darken" class="C B"><path d="M47.983 121.64l-.052.023h.193l-.018-.013c-.109-.081-.268-.057-.379 0l-.051.026.202-.055c-.235-.025-.478.17-.644.317l-.429.391-.231.2-.084.069c.031-.024-.086.065-.086.065l-.481.323-.503.288-.245.125-.138.065-.097.043a1.4 1.4 0 0 0-.099.039l-.114.043-.289.098c-.273.086-.499.188-.665.435-.141.21-.041.523.169.644.438.252.984.011 1.413-.159.418-.165.825-.354 1.201-.602.364-.24.712-.513 1.029-.812.167-.158.312-.328.453-.509.157-.203.32-.507.23-.767v.213l.013-.055c.028-.12.007-.282-.097-.365l-.02-.016.056.135.005-.049c.012-.134-.142-.181-.24-.138l-.002-.002z"/></g><g style="mix-blend-mode:darken" class="C B"><path d="M39.363 124.522a1.33 1.33 0 0 1-.019.135c0 .068.024.136.036.202v-.226c-.013.097-.032.181-.005.279.018.064.058.12.08.182.016.045-.004-.025.008.05.01.066.067.158.105.218.114.183.25.358.392.519.278.317.609.575.97.79.354.21.74.379 1.136.49a4.64 4.64 0 0 0 .572.118c.129.018.265.045.397.044.27-.001.497-.156.642-.373.126-.19.098-.435 0-.627-.09-.176-.273-.303-.458-.363.025.008-.378-.07-.396-.049l.053.006-.078-.013-.13-.025-.258-.063-.503-.168c-.077-.03-.091-.017-.008-.002-.043-.007-.106-.047-.145-.066l-.236-.122c-.156-.085-.301-.184-.449-.281l-.219-.146-.065-.046c.064.047-.052-.041-.064-.05l-.494-.405c-.076-.055.087.082-.044-.029-.06-.051-.115-.097-.186-.132s-.074-.03.007.015l-.078-.061c-.038-.022-.103-.024-.135-.047-.166-.115-.453.036-.428.246z"/></g><g style="mix-blend-mode:darken" class="C B"><path d="M91.431 89.422c-.383-.52-1.354-.411-1.323.358.05 1.229.379 2.339.149 3.586-.103.556-.263 1.109-.506 1.62-.291.613-.73 1.154-.849 1.837-.111.636.111 1.227.251 1.838.143.623.193 1.257.172 1.896-.038 1.165-.347 2.305-.902 3.331-.271.497-.695.959-.852 1.512-.197.693.076 1.246.335 1.872a6.68 6.68 0 0 1 .419 3.62c-.208 1.245-1.196 2.446-.735 3.717.193.532.536.996.733 1.529.184.496.323 1.019.395 1.543.32 2.319-.464 4.731-2.135 6.372-.41.402-.323.968 0 1.381a4.16 4.16 0 0 1 .565.978 9.06 9.06 0 0 1 .286 1.017c.05.289.079.581.086.874.002.141.033.28.091.409.026.472.014.954-.052 1.451-.237 1.809-1.063 3.21-2.175 4.606-.581.729-.881 1.567-.571 2.483.263.779 1.082 1.39 1.173 2.212.079.715-.402 1.414-.71 2.018-.37.728-.715 1.515-.877 2.318-.233 1.153.214 2.294.011 3.432-.181 1.016-.816 1.919-1.721 2.395-.61.32-.183 1.401.479 1.135 1.902-.761 3.026-2.427 2.862-4.491-.048-.605-.184-1.224-.111-1.832.055-.458.26-.862.482-1.26.45-.809.967-1.569 1.252-2.461.274-.856.239-1.743-.156-2.554-.209-.428-.526-.787-.767-1.196-.251-.425-.203-.648.107-1.048.615-.793 1.22-1.526 1.641-2.45a9.79 9.79 0 0 0 .793-2.743c.089-.645.11-1.323.073-2.004.06-.119.098-.259.105-.42.049-1.247-.315-2.415-.942-3.456 1.315-1.547 2.066-3.496 2.206-5.531a9.19 9.19 0 0 0-.379-3.319c-.164-.526-.375-1.036-.63-1.524-.144-.275-.327-.481-.263-.793.076-.367.338-.746.464-1.105.441-1.261.543-2.637.361-3.955a8.03 8.03 0 0 0-.435-1.761c-.088-.231-.343-.592-.355-.832-.013-.286.297-.601.454-.864 1.307-2.199 1.623-4.879.977-7.34-.127-.485-.156-.718.085-1.168l.476-.931c.294-.674.503-1.366.61-2.094.194-1.321.181-3.092-.644-4.21l-.003.002z"/></g><g style="mix-blend-mode:darken" class="C B"><path d="M50.083 121.548c-.082-.647.2-1.286.323-1.913.489-2.511.093-5.103-1.081-7.363 1.5-3.037 1.317-6.79-.556-9.626 1.523-3.136 1.209-6.903-.76-9.76.6-1.095.605-2.388.106-3.551-.385-.896-1.916-.256-1.586.669.271.761.266 1.61-.257 2.272a.94.94 0 0 0 0 1.28c1.923 2.441 2.139 6.004.61 8.684-.152.267-.194.679 0 .942 1.618 2.193 2.052 5.13 1.023 7.676-.265.658-.77 1.165-.469 1.895.289.702.676 1.316.894 2.057.407 1.39.509 2.89.229 4.315-.145.737-.423 1.459-.412 2.219.011.743.315 1.438.392 2.171.131 1.262-.192 2.545-.852 3.622a5.64 5.64 0 0 1-1.167 1.354c-.527.447-1.123.781-1.422 1.435-.34.744-.093 1.415.21 2.119.26.604.469 1.224.621 1.865.693 2.923.064 5.89-1.597 8.358-.473.703.554 1.419 1.136.877 3.279-3.059 3.131-8.133 1.542-11.974-.094-.228-.183-.342-.073-.547.09-.168.368-.301.519-.416a7.05 7.05 0 0 0 1.221-1.145c.672-.819 1.179-1.748 1.486-2.764a7.51 7.51 0 0 0 .26-3.115c-.072-.554-.27-1.085-.34-1.635v-.001z"/></g><g style="mix-blend-mode:darken" class="C B"><path d="M89.719 53.498c.069-.68-1.092-.845-1.203-.163-.048.293-.224.565-.311.847s-.136.587-.205.878l-.395 1.497c-.318 1.079-.707 2.134-1.125 3.177L83.693 66c-.947 1.91-2.071 3.737-3.4 5.407-.654.821-1.35 1.607-2.085 2.356l-.958.931c-.236-.14-.508-.227-.801-.222-1.04.02-1.583 1.195-1.048 2.046.621.986 1.681.786 2.434.124.879-.772 1.713-1.595 2.498-2.463 3.317-3.668 5.394-7.998 7.273-12.525.531-1.278 1.022-2.573 1.422-3.899.214-.7.397-1.409.547-2.126.068-.331.13-.664.17-1 .045-.383-.064-.754-.026-1.131z"/></g><path opacity=".2" d="M49.536 59.34c5.641-.055 10.188-2.859 10.155-6.263s-4.633-6.121-10.274-6.066-10.188 2.859-10.155 6.263 4.633 6.121 10.274 6.066z" fill="url(#B)"/><path opacity=".2" d="M76.274 59.34c5.641-.055 10.188-2.859 10.155-6.263s-4.633-6.121-10.274-6.066S65.967 49.87 66 53.274s4.633 6.121 10.274 6.066z" fill="url(#C)"/></g></g><defs><radialGradient id="B" cx="0" cy="0" r="1" gradientUnits="userSpaceOnUse" gradientTransform="translate(49.4002 53.2365) rotate(-0.553) scale(10.2124 6.16599)"><stop offset=".001" stop-color="#6a3636"/><stop offset=".185" stop-color="#6a3736" stop-opacity=".96"/><stop offset=".376" stop-color="#6d3d39" stop-opacity=".842"/><stop offset=".57" stop-color="#72453d" stop-opacity=".646"/><stop offset=".767" stop-color="#785243" stop-opacity=".371"/><stop offset=".964" stop-color="#80624a" stop-opacity=".02"/><stop offset=".974" stop-color="#81634b" stop-opacity="0"/></radialGradient><radialGradient id="C" cx="0" cy="0" r="1" gradientUnits="userSpaceOnUse" gradientTransform="translate(76.1385 53.2365) rotate(-0.553) scale(10.2124 6.16599)"><stop offset=".001" stop-color="#6a3636"/><stop offset=".185" stop-color="#6a3736" stop-opacity=".96"/><stop offset=".376" stop-color="#6d3d39" stop-opacity=".842"/><stop offset=".57" stop-color="#72453d" stop-opacity=".646"/><stop offset=".767" stop-color="#785243" stop-opacity=".371"/><stop offset=".964" stop-color="#80624a" stop-opacity=".02"/><stop offset=".974" stop-color="#81634b" stop-opacity="0"/></radialGradient><clipPath id="D"><path fill="#fff" d="M0 0h138v146H0z"/></clipPath></defs></svg>