<?xml version="1.0" encoding="UTF-8"?>
<svg id="Ebene_1" data-name="Ebene 1" xmlns="http://www.w3.org/2000/svg" xmlns:xlink="http://www.w3.org/1999/xlink" viewBox="0 0 138 146">
  <defs>
    <style>
      .cls-1 {
        fill: none;
      }

      .cls-2 {
        clip-path: url(#clippath);
      }

      .cls-3 {
        mask: url(#mask);
      }

      .cls-4 {
        fill: #fff;
      }

      .cls-5 {
        fill: #93153c;
      }

      .cls-6 {
        fill: #7f4530;
      }

      .cls-7 {
        fill: #81634b;
      }

      .cls-8 {
        fill: #aaa9a9;
      }

      .cls-9 {
        fill: #070d1c;
      }

      .cls-10 {
        fill: #72533e;
      }

      .cls-11 {
        fill: #472712;
      }

      .cls-12 {
        fill: #7a1c3e;
      }

      .cls-13 {
        opacity: .33;
      }

      .cls-14 {
        fill: url(#Unbenannter_Verlauf_2);
      }

      .cls-14, .cls-15 {
        isolation: isolate;
        opacity: .2;
      }

      .cls-15 {
        fill: url(#Unbenannter_Verlauf);
      }
    </style>
    <clipPath id="clippath">
      <rect class="cls-1" y="0" width="138" height="146"/>
    </clipPath>
    <mask id="mask" x="-5.8" y="0" width="158.35" height="301.25" maskUnits="userSpaceOnUse">
      <g id="A">
        <path class="cls-4" d="m0,0h138v146H0V0Z"/>
      </g>
    </mask>
    <radialGradient id="Unbenannter_Verlauf" data-name="Unbenannter Verlauf" cx="-206" cy="437.1" fx="-206" fy="437.1" r=".99" gradientTransform="translate(2179.11 2727.94) rotate(-.55) scale(10.21 -6.17)" gradientUnits="userSpaceOnUse">
      <stop offset="0" stop-color="#6a3636"/>
      <stop offset=".18" stop-color="#6a3736" stop-opacity=".96"/>
      <stop offset=".38" stop-color="#6d3d39" stop-opacity=".84"/>
      <stop offset=".57" stop-color="#72453d" stop-opacity=".65"/>
      <stop offset=".77" stop-color="#785243" stop-opacity=".37"/>
      <stop offset=".96" stop-color="#80624a" stop-opacity=".02"/>
      <stop offset=".97" stop-color="#81634b" stop-opacity="0"/>
    </radialGradient>
    <radialGradient id="Unbenannter_Verlauf_2" data-name="Unbenannter Verlauf 2" cx="-206" cy="437.1" fx="-206" fy="437.1" r=".99" gradientTransform="translate(2205.85 2727.94) rotate(-.55) scale(10.21 -6.17)" gradientUnits="userSpaceOnUse">
      <stop offset="0" stop-color="#6a3636"/>
      <stop offset=".18" stop-color="#6a3736" stop-opacity=".96"/>
      <stop offset=".38" stop-color="#6d3d39" stop-opacity=".84"/>
      <stop offset=".57" stop-color="#72453d" stop-opacity=".65"/>
      <stop offset=".77" stop-color="#785243" stop-opacity=".37"/>
      <stop offset=".96" stop-color="#80624a" stop-opacity=".02"/>
      <stop offset=".97" stop-color="#81634b" stop-opacity="0"/>
    </radialGradient>
  </defs>
  <g class="cls-2">
    <g class="cls-3">
      <g>
        <path class="cls-8" d="m44.27,84.82c8.11,15.15,35.58,19.06,46.56-2.39l3.73-.23c-9.44,18.2-8.78,43.87-.88,65.75,7.55,29.22-1.15,29.97,4.78,57.47,5.16,23.95,6.8,38.37,18.18,46.32,21.17,11.1,13.52,26.69,13.94,45.39-14.97-4.74-31.62,2.95-45.95,4.12-10.84.27-8.54-3.37-20.83-3.55-12.56-.18-19.97,3.53-32.72,2.82-10.34.7-17.75-6.43-27.06-2.7.3-9.77-.15-20.75-1.22-29.93,9.83-41.24,33.66-142.62,41.49-183.07h0s0,0,0,0Z"/>
        <path class="cls-5" d="m34.99,86.24C-2.79,96.4.65,160.25-.76,179.86c-.86,7.98-2.28,30.25-2.57,32.39-1.32,8.32-3.95,14.02,1.57,17.33l.09,9.51,3.29.25-.73,11.88c-5.57-2.86-3.46,5.3-3.7,6.36,1.37,5.82,0,7.2,1.39,9.15,1.88,2.62,5.35,2.18,17.24,2.15,13.62-.04,16.03.51,17.66-1.62,1.65-2.15.58-4.43-1.27-14.85-2.18-9.27-3.64-26.22-.4-37.99,3.74-22.02,5.6-33.02,4.75-45.67-.88-13-3.55-14.34-1.96-22.83,2.19-11.62,8.28-14.83,10.77-23.65,2.05-7.29,1.72-18.7-10.38-36.01h0Zm61.59,183.22c-4.14-29.77-16.49-74.33-8.23-101.38,1.35-4.41,3.94-11.27,3.7-21.01-2.68-22.43-10.33-42.88,2.5-64.88,31.37-4.2,38.97,40.4,44.23,70.7-.06,1.3,2.55,16.6,4.86,22.27,1.87,5.18,3.53,7.31,4.82,13.89,1.85,9.47-.74,8.84,1.33,19.32,1.36,8.08,5.3,15.57-1.54,15.9.7,2.17,2.09,10.62,1.26,11.12-1.05,1.67-3.61,1.31-9,1.33-9.76.05-13.12,1.29-14.52-.85-2.27-3.23,1.4-9.6-3.35-10.57,1.62,5.74,5.2,18.6,6.64,24.24,2.19,4.5,2.66,11.85,1.88,15.43-11.17,3.43-22.91,4.96-34.59,4.49h0Z"/>
        <path class="cls-7" d="m45.83,84.87c6.53-.92,3.45-5.81,3.9-9.28-19.21-18.73-11.71-38.34-6.55-59.33l20.22-10.2,20.85,15.7,5.39,19.7c-.5,7.92-1.9,17.5-7.82,26.97l6.31,16.14c-3.79,5.85-11.43,12.16-21.03,12.82-6.53.8-21.34-5.45-21.17-11.76-.15-.07-.12-.77-.12-.77,0,0,0,0,0,0Z"/>
        <path class="cls-12" d="m-2.56,256.7c.28,2.43-1.72,11.05,3.7,11.32,3.24.22,21.49.6,21.63.88,12.84.2,12.89-.64,9.93-13.32-7.61-23.46,1.89-49.17,4.07-72.92.43-5.76-.07-14.42-1.08-20.18-1.25-6.7-2.38-15.77.18-22.15,1.36-2.55,4.01-7.8,5.27-10.42-.46-10.91-2.98-32.91-5.9-43.3-1.4-.25-3.64.81-4.91,1.28-.09.04.66,2.55,1.02,3.58,4.97,15.14,2.25,30.56-2.17,45.23-1.63,7.89-2.61,13.33-1.14,22.73,1.87,10.34,1.38,18.61.85,28.5-2.44,19.77-9.04,44.39-8.5,64.39-3.36-.23-18.25-1.57-21.3-1.23-3.34-2.33-1.42,6.01-1.65,5.6,0,0,0,0,0,0Zm115.9-5.11c.27.07,11.51-2.86,12.95-2.7,2.73-.47,3.91,3.17,4.73,5.71-1.86,1.12-2.26,9.35-2.41,10.94-4.47,2-26.53,5.38-32.04,3.92-4.46-28.07-12.03-56.87-10.38-85.39-.18-11.81,6.32-25.13,6.05-36.27-2.35-14.04-5.27-28.54-5.25-44.12.84-7.43,4.71-16.88,7.55-21.5,19.07-2.05-2.05,5.04-.21,32.12,1.6,15.8,5.64,20.88,5.51,35.34-1.74,15.25-7.88,29.04-6.5,44.32,1.85,18.73,8.28,40.43,10.83,58.36.83.01,7.2-.18,9.17-.75,0,0,0,0,0,0Z"/>
        <path class="cls-4" d="m49.31,48.94c1.5,1.39,6.63-.6,7.53-2.04-1.32-5.09-16.27-2.92-7.53,2.04Zm23.44.49c.99.03,7.22-1.97,4.94-4.44-4.2-2.17-7.82-.93-9.96,2.28.53.81,3.85,1.94,5.01,2.16Z"/>
        <path class="cls-6" d="m53.96,45.58c-1.27-3.25-6.66-.55-3.8,2.2,1.56,1.48,4.6,0,3.79-2.2h0Z"/>
        <path class="cls-9" d="m52.69,45.65c-.73-1.49-2.9.14-1.67,1.27.83.77,2.22-.26,1.67-1.27Z"/>
        <path class="cls-6" d="m74.93,45.58c-1.27-3.25-6.66-.55-3.79,2.2,1.56,1.48,4.6,0,3.79-2.2Z"/>
        <path class="cls-9" d="m73.66,45.65c-.73-1.5-2.9.14-1.67,1.27.83.78,2.23-.26,1.67-1.27Z"/>
        <path class="cls-10" d="m68.52,70.4c-.13-.46-.55-.8-1.03-.79-1.22-.96-3.29-.18-4.62.18-.95-.19-2.01.13-2.96-.21-.62-.27-1.52-.8-2.07-.14-.83-.74-2.2.27-1.9,1.25.27.75,1.16,1.17,1.92,1.21.51.7,1.6.51,2.34.67.63.46,1.47.31,2.18.02.66.7,1.87.43,2.68.17,1.04-.14,3.75-.88,3.45-2.36h0s0,0,0,0h0Zm-3.19-3.02c-.05-.64-.77-1.11-1.37-.96-.65-.56-1.73-.73-2.32,0-.19-.24-.52-.43-.82-.45-.57-.03-1.25.08-1.61.56-1.42.03-1.31,2.14.03,2.22.36.43.99.6,1.52.44.4.39,1.01.4,1.52.26.73.2,1.5-.17,1.85-.83.14.02.28,0,.41-.03h-.11c.56-.03,1.02-.66.91-1.21h0Z"/>
        <path class="cls-9" d="m32.02,86.98c-19.76,5.21-26.8,27.85-29.12,45.96-2.31,13.51-4.79,29.28-3.91,42.9-1.76,11.6-.92,23.39-2.63,34.97-.91,5.15-3.29,10.57-1.54,15.78,1.4,5.42,10.07,4.31,6.81,2.61-1.99.78-4.18-.38-5.2-2.15-2.97-7.58,2.31-15.62,1.99-23.45.86-16.87,1.33-33.78,2.58-50.6,3.99-25.51,5.54-54.74,31.01-66.03,0,0,0,0,0,0Zm-17.13,26.98c-4.13,9.11,7,17.11.08,27.15-7.24,14.22,2.31,29.44,1.12,44.28C14.6,206.71.52,224.95.08,246.62c-.13,1.34-.85,6.28,1.08,3.91-.46-21.67,12.25-40.01,15.71-60.79,2.91-15.16-6.73-30.06-2.3-44.99,8.49-16.12-1.05-17.35.33-30.78h0s0,0,0,0Z"/>
        <path class="cls-9" d="m30.67,89.56c7.55,29.77-3.06,37.29-3.86,63.38,7.21,33.55-7.73,65.95-7.04,99.39l.6-.6c-2.07.6-25.52-3.18-21.27.08.61-.29,22.06,1.98,21.87.52-.51-21.44,5.89-42.16,8.24-63.32,3.07-16.14-3.19-32.23-.23-48.25,4.46-16.36,9.23-35.88,1.7-51.21h0Zm7.43,46.42c-8.08,9.8-2.71,23.35-2.03,34.66.95,31.7-13.44,60.12-2.65,92,2.22,7.66-8.3,5.17-12.67,5.47-5.74-.29-14.41-.4-20.05-1.12-4.23-1.19-1.96-11.25-2.54-14.9-2.23-3.02-1.42,4.24-1.51,5.41-1.26,14.5,6.03,10.68,16.76,11.9,6.37-.76,23.52,4.22,21.24-6.94-9.45-30.31,1.28-55.19,2.97-85.08.1-13.75-5.89-29.15.48-41.42h0,0Zm-27.63-13.63c-1.95,7.08,2.45,13.59,3.33,20.46.08.63.96.52.86-.12-1.39-6.58-4.85-14.3-4.2-20.34h0Zm81.78-39.45c39.6-5.13,41.28,54.28,47.64,81.56,1.56,7.04,4.65,13.54,6.74,20.42,3.06,11,1.41,22.57,4.45,33.67,2,8.64-9.39,3.59-14.13,4.37-4.89-1.31-12.11,6.23-15.02.66-.4-.86-1.66-.11-1.26.74,2.42,5.21,8.02,1.68,11.89.53,5.53-2.62,19.59,4.49,20-4.21-1.35-9.61-2.72-19.11-2.86-28.83-.98-7.35-4.29-14.07-6.62-21.03-8.44-27.57-9.31-98.96-50.82-87.86h0s0,0,0,0Z"/>
        <path class="cls-9" d="m112.81,109.28c1.73,4.38.08,8.89-.84,13.25-2.1,9.39,1.44,18.61,2.78,27.83,2.06,14.49-3.98,28.63-2.81,43.13,1.45,17.72,11.5,33.13,15.1,50.34.26,1.21.6,5.33,1.77,2.86-2.8-17.53-13.03-32.97-15.39-50.6-1.82-19.08,6.87-38.02.35-56.87-.97-4.67-1.76-9.5-1.09-14.27.52-4.61,3.99-12.85.13-15.67Zm-10.56-25.24c-14.63,18.26-5.96,41.54-3.21,62.08.47,11.72-4.76,22.68-6.03,34.2-2.44,23.19,6.36,45.44,9.8,68.07.3,1.68.43,7.05,2.12,4.43-7.35-44.46-16.75-54.95-4.5-101.53.15-21.23-12.13-43.38.46-63.48,0,0,1.89-3.36,1.89-3.36.19-.32-.27-.7-.52-.4Zm-8.87-.86c-13.1,20.49-3.28,44.79-2.07,66.88-11.12,41.09-3.98,74.03,3.79,114.72,0,0,.75,4.86.75,4.86.14.95,1.58.54,1.44-.4-6.12-37.64-17.23-76.48-5.06-114.1,1.99-22.5-10.69-45.92.18-67.78.3-1.39,3.39-4.98.97-4.2Zm31.91,36.58c2.99,21.18-10.58,43.39-1.8,64.41-3.88-15.09-.71-34.08,2.65-51.16.23-4.02,1.98-10.6-.85-13.25Zm-17.4-26.4c-2.61.48-8.87,17.05-5.94,15.62.39-5.53,3.2-11.96,5.94-15.62Zm-84.38,3.65c4.58,4.96,3.94,15.29,5.22,21.52,2.23,2.81-1.13-12.46-.79-12.3-.43-2.95-2.09-8.5-4.43-9.22Zm21.48-10.27c9.5,15.15,33.43,15,42.78-.27.47-.69-.66-1.34-1.12-.65-10.33,15.92-30.64,12.98-41.66.92,0,0,0,0,0,0Zm4.69-9.77c-.95,3.4,1.4,6.41-3.45,7.8-1.75,2.81,4.22-.42,4.25-1.8.22-.78.33-6.35-.8-5.99Z"/>
        <path class="cls-11" d="m94.16,22c-.52-6.82-6.8-18.46-19.31-18.36-6.15-1.5-17.92-4.87-22.12-.34-18.23,4.06-24.22,26.58-17.8,37.74-1.43,4.49-1.33,9.43.29,13.85-1.08,2.74-.4,7.56.79,9.41-1.98,1.23-2.09,7.21-.85,8.17-2.35,1.57-1.86,7.51-.56,8.39-2.02,2.94-1.8,7.12.54,9.82-2.08,1.75-1.59,7.28,1.33,8.55-1.52,1.59-.44,7.73,1.98,8.77-1.47.94-2.46,6.81.35,8.64-.92.71-1.2,5.33.06,6.48-.3,1.78.67,5.42,2.28,7.04-6.08,4.45,2.03,8.8.96,14.24,4.69-2.65,4.64-11.56,2.22-13.95,3.51-1.32,5.09-8.35,3.85-10.2,1.37-2.7,1-6.12-.92-8.46,2.32-2.17.82-8.39-.96-9.26,1.72-1.29,1.74-8.23-.47-9.75,1.32-2.22.85-6.35-.49-8.02.85-2.31.55-4.99-.82-7.04,4.52-5.59-2.41-8.75-3.92-15.52-1.32-4.17-2.5-5.98-2.66-8.11,6.74-6.58,1.84-7.36,3.89-15.07,1.67-3.99,4.67-2.89,7.73-7.83,2.82-4.54.84-6.37,3.45-8.89,3.88-3.2,11.32-2.3,12.24-8.71,3.98,15.11,1.04,11.32,12.56,20.8,1.85,2.85,1.13,8.36,4.86,12.31-2.67-5.62,2.63-7.71,1.49-14.59,6.5,13.98,6.37,29.77-7.34,42.53-1.26,2.71.85,7.95,2.35,8.86-1.96,1.25-2.03,6.64.07,7.96-1.49.55-3.09,6.61-1.32,8.4-1.3,1.27-2.33,6.51-.79,8.93-1.52,1-1.95,8.07.36,9.75-1.4,1.21-1.56,8.59,1.64,10.45-.98,2,.4,5.96,1.56,6.74-6.04,8.56,2.03,8.17-.13,14.91,5.09-2.42,3.1-4.14,4.02-8.47,1.41-2.31,1.5-4.56-.22-6.34,3.31-1.47,4.64-8.79,1.87-11.37,3.29-2,2.9-9.4,1.19-10.75,1.47-1.78,1.24-7.39.21-8.6,1.46-2.75,1.83-6.03,1.05-9.04,1.59-1.56,1.84-5.58,1.27-6.71,2.27-1.84,1.49-8.76-.25-9.82,2.26-1.81,1.56-8.27-.9-9.54,1.38-2.54,1.44-5.72.17-8.31,1.93-2.08,2.62-9.08,1.11-11.54.57-1.82,2.55-7.49,3.22-9.38,1.28-3.03,1.24-14.55.86-18.8,0,0,0,0,0,0Z"/>
        <path class="cls-9" d="m34.77,72.52c-4.3,4.07-.43,11.25,4.62,12.59.61.22.84-.72.26-.96-3.86-1.5-7.44-5.9-5.15-10.05.06-.39.99-1.68.27-1.58Z"/>
        <path class="cls-9" d="m34.31,81c-4.41,4.02.11,12.36,5.74,12.8.79.13,1.13-1.06.33-1.21-6.69-1.61-7.02-6.01-6.07-11.6Z"/>
        <path class="cls-9" d="m34.69,90.71c-6.76,7.96,10.11,13.66,6.86,9.73-4.67-.17-9.15-4.78-6.39-9.37.14-.29-.22-.62-.47-.36Z"/>
        <path class="cls-9" d="m36.64,99.27c-6.27,7.84,8.66,13.09,5.48,9.42-5.38-.34-6.76-5.74-5.48-9.42,0,0,0,0,0,0Z"/>
        <path class="cls-9" d="m38.31,108.21c-7.45,7.92,8.1,13.26,4.43,9.26-5.7-.56-5.43-5.72-4.43-9.26Z"/>
        <path class="cls-9" d="m38.82,115.84c-5.49,6.41,6.64,14,4.45,9.7-4.01-1.2-5.51-5.8-4-9.44-.01-.23-.25-.38-.45-.26,0,0,0,0,0,0Zm5.73-37.93c1.32,4.62.56,9.92-4.57,11.8-.49.19-.29.99.22.8,4.68-1.55,7.43-7.14,5.48-11.74-.13-.37-.66-1.42-1.13-.87Z"/>
        <path class="cls-9" d="m45.54,85.15c1.52,4.46-.14,9.82-4.64,11.77-.91,3.93,7.74-4.26,6.26-8.24,0-.83-.9-4.1-1.62-3.53Z"/>
        <path class="cls-9" d="m45.97,93.37c2.43,3.97,1.08,9.82-3.46,11.41-.68.26-.38,1.36.3,1.1,5.14-1.23,7.57-10.54,3.16-12.51Z"/>
        <path class="cls-9" d="m46.62,102.76c2.06,4.25,1.65,9.57-3.53,11.38-1.95,3.86,6.73-1.99,6.05-5.54.3-1.47-.76-6.2-2.52-5.84h0Z"/>
        <path class="cls-9" d="m47.5,112.31c2.03,4.12.75,9.55-3.92,11.08-.68.24-.4,1.32.3,1.1,5.18-.85,7.91-9.83,3.62-12.18,0,0,0,0,0,0Z"/>
        <path class="cls-9" d="m48.03,120.1c.54,3.83-.55,8.24-4.66,9.75-1.88,4.1,7.31-2.83,5.73-7.38-.03-.28-.5-2.95-1.07-2.37h0Zm-5.48,24.3c6.07-2.94,3.66-16.37,2.12-12.29,2.55,4.2-.43,9.3-2.12,12.29h0Z"/>
        <path class="cls-9" d="m40.25,130.04c.98.92,4.98,2.57,5.58.91.03-1.09-2.42-.81-3.05-1.05-.67-.04-2.38-.67-2.54.14Z"/>
        <path class="cls-9" d="m42.27,144.44c2.14-4.71-5.7-8.98-1.54-13.13.62-.64-.37-1.63-.98-.98-4.11,3.77.92,7.81,1.89,11.71.35.44.08,2.91.64,2.4h0s0,0,0,0Zm3.46-72.47c.18,4.05-2.45,8.12-6.69,8.58-2.24,3.67,7.87-1.27,7.39-5.69.19-.43-.14-3.62-.71-2.9Zm30.83-50.74c-1.49,5.33,3.89,7.96,6.87,11.23,3.02,6.22,4.76,13.52,5.28,20.44,3.06,3.1-.59-11.56-1.34-12.61-2.22-13.64-7.44-7.85-10.82-19.06h0Z"/>
        <path class="cls-9" d="m83.5,46.48c-2.89-4.75,2.81-9.78.58-14.98-2.2-2.8-.33,6.71-1.79,8.01-1.15,2.42-1.35,5.36.89,7.22.15.16.46-.06.32-.25h0Zm-18.88-31.84c-1.5,2.37-3.79,4.36-6.7,4.49-8.81,1.66-6.55,12.54-13.71,16.18-6.73,3.86-.97,12.15-5.46,17.02-1.73,1.42-2.92,3.42-2.77,5.72,1.58,2.51,1.3-2.22,2.11-2.97,7.39-5.17.4-13.6,6.76-18.62,5-3.55,5.43-5.96,7.27-11.31,2.54-5.93,11.21-3.83,13-10.31.11-.3-.33-.45-.5-.21,0,0,0,0,0,0Z"/>
        <path class="cls-9" d="m34.45,31.59c2.76,8.96-5.11,18.62,1.78,26.93.41.61,1.41.04.99-.58-7.36-8.6,3.1-20.82-2.77-26.35,0,0,0,0,0,0Z"/>
        <path class="cls-9" d="m34.82,18.41c-3.41,7.33-3.47,15.97-.35,23.4.25.62,1.12.26.85-.36-3.54-7.12-2.15-16.55-.5-23.05Zm28.79-12.24c-.37-1.18-7.24-4.69-6.2-2.62,2.27.21,4.4,1.2,5.96,2.86.15.16.38-.08.24-.24Z"/>
        <path class="cls-9" d="m52.67,3.08c-9.57,2.54-19.52,9.97-18.09,20.98,1.7,2.65.75-6.54,1.94-7.54,2.54-7.01,10.17-9.95,16.27-13.13.17-.08.05-.38-.13-.31Zm24.07,72.3c-4.45,9.05,10.88,12.93,6.92,9.14-6.07-.52-5.91-5.06-6.92-9.14Z"/>
        <path class="cls-9" d="m78.3,84.13c-4.03,3.73,1.18,13.14,6.04,11,.07-1.5-4.08-1.41-4.95-3.57-1.67-2.11-1.23-4.8-.72-7.21.01-.18-.23-.32-.37-.22Zm11.75,5.46c-.12.07-.2.19-.22.33-.02.17.08-.2-.04.05-.07.14-.08.27-.09.42.18,3.36-1.81,6.73-5.08,7.75-2.37,4.49,9.17-2.95,5.88-8.36.27.26-.27-.43-.46-.19h0s0,0,0,0Z"/>
        <path class="cls-9" d="m78.55,92.02c-6.97,7.38,6.6,16.53,4.22,11.59-5.99-2.49-4.75-7.37-4.22-11.59,0,0,0,0,0,0Zm9.65,3.71c.91,4.77-.45,10.15-5.29,12.19-1.24,4.3,6.96-3.51,6.44-5.56.55-1.19.72-7.86-1.15-6.63Z"/>
        <path class="cls-9" d="m77.44,100.41c-6.87,5.01,6.45,17.14,4.85,11.72-3.49-1.84-6.49-6.05-4.99-10.08.06-.43.94-1.66.14-1.65Zm10.29,5.79c1.18,4.18-1.07,9.17-4.97,10.65-.64.33-.21,1.36.48,1.14,4.45-1.93,7.13-7.43,4.99-12-.14-.29-.57-.08-.5.21Z"/>
        <path class="cls-9" d="m77,108.68c-6.65,6.87,6.23,17.43,4.76,12.42-5.96-2.46-5.38-7.82-4.76-12.42Zm10.47,5.62c1.71,4.35.39,9.97-4.6,11.3-2.08,3.82,6-1.55,5.85-3.45,1.06-2.15,1.1-7.15-1.25-7.85h0Z"/>
        <path class="cls-9" d="m77.51,118.88c-6.96,7.49,8.2,16.58,5.21,11.44-5.87-2.39-5.98-6.25-5.21-11.44Zm8.93,5.75c1.36,3.56.96,7.98-2.58,10.11-1.19,3.98,4.4-1.83,4.23-3.38.63-1.88.49-6.49-1.66-6.74Z"/>
        <path class="cls-9" d="m78.75,129.5c-3.18,4.61,6.15,9.55,3.68,5.71-4-1.13-2.29-5.34-3.68-5.71Z"/>
        <path class="cls-9" d="m80.44,151.35c4.8-4.32-5.6-8.31,1.12-14.28.75-.68-.37-1.79-1.11-1.11-1.95,1.8-2.98,4.55-2.48,7.19.55,2.75,4,4.77,2.08,7.82-.13.24.13.52.38.38h0s0,0,0,0Z"/>
        <path class="cls-9" d="m80.66,151.14c6.22-2.65,3.03-6.57,5.67-11.23.76-1.41-2.89-6.42-2.55-3.01,2.91,2.36-.62,4.81-.12,7.58.73,2.66-1.36,4.79-3.21,6.38-.15.13.04.36.21.27h0Z"/>
        <path class="cls-9" d="m85.05,135.51c-1.15.18-2.72.36-3.61-.12-.78-.69-2.02.1-1.09.91.85.93,5.61.86,4.7-.79Zm-46.44-11.81c-1.1,1.36,2.55,10.2,3.17,6.09-1.59-1.55-1.7-5.14-3.17-6.09Zm-3.15-59.38c-3.96,4.29-.4,11.91,5.16,12.66.62.13.89-.81.26-.96-4.74-.98-7.79-6.26-5.35-10.68.03-.28.51-1.23-.07-1.03Zm8.05,3.49c-.73,1.39-1.21,3.02-2.59,3.99,0,0-.43.31-.53.37-.71.42-.07,1.53.64,1.1,1.52-.85,4.12-4.44,2.47-5.46h0Z"/>
        <path class="cls-9" d="m34.73,55.78c-3.09,4.66,5.39,16.77,5.56,12.72-3.47-2.71-5.69-7.05-5.16-11.49-.05-.33.12-1.57-.41-1.23Zm55.33,24.67c1.76,4.25.23,9.68-4.68,10.77-.96.23-.55,1.72.41,1.48,2.25-.57,4.3-2.18,5.37-4.23,1.39-1.44,1.12-8.9-1.1-8.02Zm-11.25-7.88c-2.09,1.99,3.86,8.01,5.8,5.26,0-.54-.52-.74-.98-.74-.04,0,.2.03.07,0-.44-.07-1.03-.23-1.44-.4-1.47-.53-2.55-2.17-2.89-3.76-.19-.24-.21-.4-.55-.37Z"/>
        <path class="cls-9" d="m89.06,70.25c2.68,4.19,1.35,10.34-3.95,11.48-.96.23-.55,1.72.41,1.48,2.05-.52,3.95-1.9,5.07-3.68,1.86-2.07,1.53-9.69-1.53-9.28,0,0,0,0,0,0Z"/>
        <path class="cls-9" d="m88.72,61.72c1.32,4.46.12,9.87-4.81,11.35-.93.32-.52,1.81.41,1.48,2.65-.94,4.82-2.97,5.75-5.65.71-1.57.71-7.51-1.35-7.18ZM53.4,3.08c4.3-4.38,17.66.38,23.05,1.47,17.26.89,19.11,19.57,16.92,33.06-.26,5.39-3.67,9.87-4.49,15.16.99,2.7,2.39-7.3,3.52-8.1,5.37-16.97,4.14-40.78-18.49-41.59-3.26-1.47-7.49-1.85-11.04-2.19-3.41-.64-7.22-1.03-9.69,1.94-.15.16.08.38.24.24h0Zm14.62,4.22c1.9-1.27,4.24-1.91,6.51-1.44.47.09.67-.64.2-.72-2.03-.41-6.25.32-6.71,2.16Z"/>
        <path class="cls-9" d="m89.17,50.32c2.01,4.56,1.21,10.42-3.32,13.17-.93,4.42,6.27-4.17,5.55-6.02.57-1.26-.59-8.93-2.24-7.15Zm-23.76-39.91c-1.69,2.96-.16,6.35.79,9.3.76,6.45,3.61,9.73,9.07,12.9,4.65,3.72,2.64,11.56,7.69,14.76.69.35,1.29-.69.61-1.03-4.36-3.03-2.69-9.83-6.3-13.61-2.29-2.95-6.65-3.83-8.17-7.43-1.29-4.73-3.16-10.78-3.68-14.89h0s0,0,0,0Zm-21.03,3.17c4.9-4.1,11.9-5.5,17.87-2.95l.18-.67c-5.57.1-13.35,3.78-14.8,8.9,3.49-4.67,8.81-8.12,14.8-8.17.33,0,.53-.52.18-.67-5.88-2.59-14.31-1.32-18.23,3.57h0Zm2.4,7.28c-2.46,1.74-1.49,5.39-2.41,7.86-.89,2.41-3.91,3.81-4.27,6.43,7.03-7.13,3.76-6.96,6.67-14.29h0Zm25.45-12.03c7.15.24,10.35,5.55,11.2,12.04,1.87,4.37,6.16,8.45,6.33,12.92,1.32-5.01-3.73-8.5-5.38-12.73-1.05-6.56-4.61-13.58-12.14-12.23h0Zm-3.72,1.31c2.52,3.11.37,7.56,2.39,11,.38.78,1.45,3.52,2.32,2.76-3.79-4.5-1.8-13.04-4.71-13.76Zm39.07,83.52c-1.29,2.05-3.6,6.86-1.95,8.5-.36-1.58,3.26-9.73,1.95-8.5h0ZM37.01,47.95c-.27,14.53,8.75,28.54,21.62,35.06.73.46,3.54,1.78,2.85-.06-14.82-6.52-22.09-21.38-24.46-35.01Z"/>
        <path class="cls-9" d="m62.45,83.78c15.02.39,29.83-26.88,27.05-40.86-1.35,15.88-10.2,35.81-27.05,40.86Zm-17.55-37.25c4.08-2.62,9.93-3.3,12.74,1.47.18.22.46-.03.42-.25-.42-2.41-3.15-3.91-5.4-4.18-2.42-.15-6.98.97-7.77,2.95Z"/>
        <path class="cls-9" d="m57,46.38c-2.95,3.9-7.18,2.84-10.52.03-.16,2.19,3.95,3.89,6.08,3.41,1.53-.14,5.49-1.71,4.44-3.44h0Zm-12.31-2.08c7.36-4.96,9.27-1.62,15.47,1.95-1.14-1.7-4.3-4.55-6.89-5.11-2.82-.48-7.59,1.23-8.57,3.16,0,0,0,0,0,0Zm22.68,3.22c2.89-4.38,8.61-3.56,12.6-1.27.84-1.76-5.76-2.78-7.28-2.66-1.33-.57-7.43,3.44-5.32,3.93,0,0,0,0,0,0Z"/>
        <path class="cls-9" d="m67.45,46.79c2.09,4.62,9.03,3.67,10.92-.64-3.5,1.98-6.35,5.07-10.41.34-.2-.19-.64,0-.51.3h0s0,0,0,0Zm-2.5-.53c7.67-4.84,6.81-5.87,15.59-2.25-3.68-4.25-10.5-3.64-13.99.55-.36.48-2.23,1.12-1.6,1.69h0s0,0,0,0Zm-6.45-5.75c-2.75-2.5-12.23-4.94-14.86-1.57,3.29-.07,7.61-.78,11.18.76.75.02,3.36,1.68,3.68.82,0,0,0,0,0,0Zm7.52.3c5.16-3.15,10.81-2.77,15.74-2.57-4.65-3.66-11.65-.78-16,2.11-.22.17.02.55.27.46Zm-9.81,30.7c1.6,1.12,3.85,2.66,5.84,1.99,2.19.51,4.34-.08,5.98-1.68.13-.1-.04-.26-.16-.21-1.84.87-3.81,1.41-5.78.87-.95.49-1.91.16-2.87-.15-.04.1-3.34-1.44-3.01-.82,0,0,0,0,0,0Zm-2.77-2.36c.63,1.24,2.76.62,3.77.46,1.92-.5,3.53,1.02,5.42.56.91-.21,1.73-.65,2.69-.62,2.11.15,4.93,1.62,6.48-.56.14-.21-.13-.46-.34-.34-2.13,1.27-4.42-.38-6.66-.22-2.32,1-4.38.24-6.74.23-1.5.57-3.23.67-4.62.49,0,0,0,0,0,0Zm5.17-2.56c1.12-.46,2.17-.33,3.28-.06,1.03-.68,2.14.47,3.18-.05-.56-.78-2.4-1.15-3.36-.65-.96-.31-2.57-.1-3.1.77,0,0,0,0,0,0Zm-1.07-7.29c.8,1.71,1.51.47,2.8.53.81,0,1.84,1.27,2.52.45-1.05-.79-3.55-1.92-4.58-.31l.35-.2c-.28-.02-1.05-1.04-1.1-.46,0,0,0,0,0,0Z"/>
        <path class="cls-9" d="m67.11,59.14c-.29.22-.57.46-.89.62l.36.2c-.99-1.51-2.88-.59-4.12.01-.24-.01-.65.16-.38.43,1.07.52,2.06-1.03,3.22-.51.61.23,1.14.74,1.62-.02.16-.14.69-.87.19-.74h0Zm-7.05.11s.02-.05.02-.08h-.01c.23-.18.13-1.09-.23-.63-.11.25-.12,1.07.22.7Z"/>
        <path class="cls-9" d="m64.94,59.47c.16-.21.1-.52.11-.77-.53-1.52-1.08,1.44-.11.77Z"/>
        <g class="cls-13">
          <path class="cls-9" d="m39.05,135.52l3.41,5.67c-6.73,15.5,1.29,26.49-.68,43.16.26,7.14-7.93,47.99-6.21,53.43.14,5.36,6.66,27.83,3.89,32.59-1.47,4.8-26.17,4.84-36.56,2.27l-.07-4.4c35.59-1.13,33.14,12.21,27.05-29.97-1.47-14.06,5.86-37.25,7.1-54.16,2.14-19.52-8.19-34.54,2.08-48.6Z"/>
        </g>
        <g class="cls-13">
          <path class="cls-9" d="m149.9,207.63c-1.48-8.65.05-8.68-1.08-16.59-1.4-9.8-4.22-13.05-7.39-22.63-3.32-10.03-2.57-13.58-4.76-26.35-4.19-24.49-12.45-43.73-13.18-43.53.82,3.59,11.82,58.36,14.85,72.43,3.43,14.33,5.96,15.32,6.48,23.81-.08,7.9-.3,11.47,1.39,18.88-.28,1.05.05,2.31-.74,3.23-.55-.03-1.28.31-1.26.93-4.52,1.17-.77,2.37,1.49.9.99,1.45-.25,3.4-.59,4.95,10.27,2.82,6.73-5.62,4.79-16.02h0s0,0,0,0Z"/>
        </g>
        <g class="cls-13">
          <path class="cls-9" d="m126.19,128.91c.31-.69-2.28,23.24-3.49,33.09-.94,12.87,1.44,22.02,1.18,22.07-6.18-11.11.13-36.76,2.31-55.16h0Z"/>
        </g>
        <g class="cls-13">
          <path class="cls-9" d="m50.33,76.63l-.31,1.68c8.43,10.04,18.59,11.67,27.1,1.75l-.57-4.24c-8.03,10.59-17.68,10.15-26.22.81Z"/>
        </g>
        <g class="cls-13">
          <path class="cls-9" d="m83.6,45.56c-.71-3.83,2.9-7.32,1.73-11.42l-1.89.26c.49,6.43,3.65,12.24,4.94,18.36,1.86.32,1.22-3.29.97-4.36-1.52-4.81-3.79-9.36-4.05-14.52-.15-1.06-2.03-.82-1.89.26,1.32,2.37-3.39,12.37.2,11.42Z"/>
        </g>
        <g class="cls-13">
          <path class="cls-9" d="m64.94,15.1c-2.08,5.76-9.96,3.92-12.9,8.84-1.75,3.53-2.38,8.22-4.56,11.09,3.95-1.18,3.95-6.26,5.61-9.35,2.4-4.88,9.59-3.24,12.21-7.94.46-.61.94-2.99-.36-2.64,0,0,0,0,0,0Z"/>
        </g>
        <g class="cls-13">
          <path class="cls-9" d="m88.92,62.38h-.03s.33.06.33.06c-.53-.27-.92.36-1.29.63l.03-.02c-.3.25-.74.38-.96.73l.18-.19c-.08.06-.22.15-.27.24.02-.05-.16.17-.16.25l.1-.17c-.48.4-.04.69.4.66h-.06c.71.09,2.52-.92,2.18-1.97l.06.22c.03-.27-.26-.5-.52-.43h0s0,0,0,0Z"/>
        </g>
        <g class="cls-13">
          <path class="cls-9" d="m89.03,70.49c-.77.11-1.39,1.24-2,1.69-.27.23-.6.48-.86.72h0c-1.05.55-2.89,2.22-.31,1.59,1.21-.29,4.86-2.9,3.16-4h0s0,0,0,0Z"/>
        </g>
        <g class="cls-13">
          <path class="cls-9" d="m89.41,80.45h-.04s.28.01.28.01c-.51-.19-.86.38-1.2.65-.03.02-.63.44-.88.52.09-.04-.16.07-.13.06l-.36.17c-1.76.37-2.82,1.76-.07,1.46,1.19-.11,3.67-1.28,2.87-2.72l.13.23c-.03-.26-.35-.47-.6-.38,0,0,0,0,0,0Z"/>
        </g>
        <g class="cls-13">
          <path class="cls-9" d="m89.45,90.52c-.15-.19-1.5.9-2.06,1.14.03,0-.48.16-.66.22-.19.02-.74.26-.7.28-.17.12-.31.3-.32.52l.19-.34c-.27.14-.31.55,0,.68l-.18-.24c.06.21.25.36.45.44,1.14.34,3.83-.94,3.62-2.48.08.02,0-.43-.33-.22h0Z"/>
        </g>
        <g class="cls-13">
          <path class="cls-9" d="m88.39,96.77l-.03.04.13-.08c-.15.04-.28.11-.39.24-.08.14-.33.37-.48.58.12-.15-.1.11-.11.12-.06.07-.5.45-.41.38-.43.33-1.23.67-1.58.84-.96.12-1.25,1.49-.05,1.36,1.46-.28,4.16-1.63,3.31-3.44l.08.13c-.02-.21-.32-.35-.47-.17h0s0,0,0,0Z"/>
        </g>
        <g class="cls-13">
          <path class="cls-9" d="m87.61,105.5c-1.1.33-1.63,1.78-2.7,2.3-.89.46-3.19,2.3-.67,1.86,1.17-.35,5.08-3.04,3.37-4.15h0Z"/>
        </g>
        <g class="cls-13">
          <path class="cls-9" d="m87.03,114.42c-.76,1.27-2.08,2.16-3.37,2.84-1.6.57-.29,1.99.89,1.17,1.37-.64,4.12-2.31,3.05-4.08-.16-.18-.45-.11-.57.07h0Z"/>
        </g>
        <g class="cls-13">
          <path class="cls-9" d="m86.75,124.8c-.11.01-.2.04-.3.08h.49c-.18-.2-.74.05-.7.08-.43.31-.66.55-1.33.86-.01,0-.55.19-.75.21-.05,0-.17.03.03,0-.85-.07-1.31,1.11-.41,1.42,1.22.22,3.88-1.02,3.26-2.48l.13.47c.08-.28-.09-.65-.42-.63Z"/>
        </g>
        <g class="cls-13">
          <path class="cls-9" d="m77.82,73.81c-.23,2.59,2.67,5.56,5.24,5.37,1.08-.54-.03-1.4-.99-1.58-.61-.24-1.6-.96-2.1-1.64-.64-.46-1.22-3.51-2.15-2.15,0,0,0,0,0,0Z"/>
        </g>
        <g class="cls-13">
          <path class="cls-9" d="m78.43,84.38c-.07,1.65,4.94,3.4,5.46,1.54-.05-1.01-1.26-.67-1.93-.78-.06,0-.44-.08-.57-.11-.95.03-2.21-1.47-2.96-.64Z"/>
        </g>
        <g class="cls-13">
          <path class="cls-9" d="m77.77,93.36c.99,1.69,2.86,3.04,4.88,3.11.88.22,1.86-.76.94-1.42-.82-.3-1.45-.05-2.22-.41-1-.09-3.18-3.27-3.59-1.28h0s0,0,0,0Z"/>
        </g>
        <g class="cls-13">
          <path class="cls-9" d="m77.22,101.09c0,1.89,1.98,3.24,3.49,4.06,1.19.93,2.41-.74.82-1.24-.26-.11-1.23-.64-1.61-.94-.7-.27-2.11-2.76-2.7-1.88h0Z"/>
        </g>
        <g class="cls-13">
          <path class="cls-9" d="m76.71,109.95c.33,1.97,2.77,4.27,4.8,4.1.32.08.68-.61.21-.96-.41-.5-1.44-.72-2.13-1.31,0,0,0,0,.01.01-.91-.31-2.09-3.18-2.89-1.84Z"/>
        </g>
        <g class="cls-13">
          <path class="cls-9" d="m77.28,120.56v.07s.01-.29.01-.29c-.11,1.21,2.19,2.27,2.84,2,.05-.02.32-.14.17-.08.38-.1.45-.66.11-.85.13.09-.13-.13-.17-.15l.21.21c-.24-.38-.72-.41-1.1-.58.23.11-.54-.28-.62-.38-.07-.05.1.08.03.03-.32-.24-.62-.71-1.08-.58l.42.06c-.38-.28-.95.08-.82.55h0,0Z"/>
        </g>
        <g class="cls-13">
          <path class="cls-9" d="m78.93,130.63l.02.04-.04-.13c.25,1.18,2,1.94,3.1,1.66l-.06.03c1.52-.97-1-1.37-1.49-1.54-.08-.03-.28-.12-.36-.16.08.03-.34-.15-.44-.15-.03-.06-.95-.29-.73.25h0Z"/>
        </g>
        <g class="cls-13">
          <path class="cls-9" d="m43.72,69.62c-.36.49-.76,1.58-1.28,2.19.05-.07-.06.07-.06.07-.16.24-.83.92-.88.97-.15.08-.06.04-.24.12-1.06.65.58,1.64,1.35.63.92-.45,3.39-4.87,1.1-3.98,0,0,0,0,0,0Z"/>
        </g>
        <g class="cls-13">
          <path class="cls-9" d="m35.3,65.08c-.4,1.92,2.23,5.33,4.24,4.67.44-.27.03-1.06-.14-1.09-.75-.5-1.43-.84-2-1.52-.64-.35-1.13-3-2.11-2.06h0Z"/>
        </g>
        <g class="cls-13">
          <path class="cls-9" d="m34.41,73c-1.3,1.94,5.86,6.67,6.21,4.09-1.22-1.43-3.72-1.41-4.89-3.16-.24-.28-.84-1.37-1.32-.92,0,0,0,0,0,0Z"/>
        </g>
        <g class="cls-13">
          <path class="cls-9" d="m44.41,78.64s0-.02-.01.03l.12-.2c-.08.08-.15.19-.21.29-.72.61-2.07,1.38-2.9,1.9-.71.23-2.59,1.39-.88,1.67,1.24-.43,2.73-1.25,3.82-1.99.7-.3,1.64-1.67.5-2.01-.23-.03-.41.09-.43.33Z"/>
        </g>
        <g class="cls-13">
          <path class="cls-9" d="m34.01,82.32c.84,1.36,2.9,2.89,4.06,3.19,2.76-.41-1.03-2.16-1.76-2.72-.5-.44-2.55-2.38-2.29-.47Z"/>
        </g>
        <g class="cls-13">
          <path class="cls-9" d="m45.11,85.89l.06.03-.07-.12v.14s.11-.29.11-.29c-.22.22-.39.45-.57.66-.86.87-2.43,2.04-3.44,2.98-.6.36-.58,1.4.29,1.16.79-.39,2.08-1.5,2.83-2,.89-.34,2.83-3.13.84-2.8-.12-.01-.17.18-.06.23,0,0,0,0,0,0Z"/>
        </g>
        <g class="cls-13">
          <path class="cls-9" d="m34.96,91.55c-1.91,1.56,6.1,4.09,5.19,1.79-.27-.51-1.02-.57-1.52-.68-.77-.2-2.19-.51-2.81-.77l-.29-.14c-.12-.04-.44-.23-.57-.2h0s0,0,0,0Z"/>
        </g>
        <g class="cls-13">
          <path class="cls-9" d="m45.48,93.82c.01-.12-.03.05-.03.06-.06.14,0,.04-.08.17-.19.49-1.22,1.28-1.71,1.73-.39.48-3,1.81-1.67,2.26l-.19-.05c1.87-.03,5.37-2.27,4.69-4.44-.28-.47-1.01-.27-1.02.28,0,0,0,0,0,0Z"/>
        </g>
        <g class="cls-13">
          <path class="cls-9" d="m36.55,101.15c.6.32,1.62.45,2.29.63.75.07,1.8.61,2.51.24,1.2-1.27-1.38-1.49-2.17-1.65-.8-.18-3.83-.89-2.63.78h0Z"/>
        </g>
        <g class="cls-13">
          <path class="cls-9" d="m46.33,103.02c-.19-.04-.59.83-.64.89-.24.27-.38.37-.72.53l.04-.02c-.68.25-1.68.4-2.1,1.06-.38.96.79.96,1.31.47l-.06.03c.93-.32,2.02-.54,2.54-1.47.39-.44.51-1.74-.37-1.48,0,0,0,0,0,0Z"/>
        </g>
        <g class="cls-13">
          <path class="cls-9" d="m38.19,108.5c-.26.05-.37.22-.37.47l.1-.25c-.91,1.6,3.71,2.89,4.17,1.41-.08-1.32-2.04-.61-2.79-1.13.12.04-.12-.05-.09-.04-.02,0-.33-.14-.16-.06-.29-.12-.34-.13-.63-.26.15.07-.18-.06-.24-.03l.3.17s-.04-.1-.08-.17v.24c.18-.15,0-.4-.2-.36Z"/>
        </g>
        <g class="cls-13">
          <path class="cls-9" d="m47.2,112.38s-.21.17-.14.12c-.19.13-.34.31-.46.51,0,0-.33.33-.45.41-.02.02-.1.07,0,0-.32.23-.69.43-1.06.58h.03s-.33.13-.33.13c-.61.07-3.1,1.57-.86,1.59,1.32-.06,5.36-2.19,3.27-3.34Z"/>
        </g>
        <g class="cls-13">
          <path class="cls-9" d="m38.6,117.72c.55,1.3,3.12,2.12,4.36,1.51.59-.77-.51-1.17-1.14-1.17-.76.02-2.81-1.11-3.22-.33Z"/>
        </g>
        <g class="cls-13">
          <path class="cls-9" d="m47.98,121.64l-.05.02h.19c-.13-.11-.32-.06-.45.01l.2-.06c-.56.03-.95.69-1.39.98-.37.28-.99.66-1.45.87-.54.19-1.88.59-1.1,1.3,1.56.27,4.07-1.24,4.33-2.85v.21c.04-.14.03-.34-.1-.44l.06.14c.04-.15-.11-.24-.24-.19,0,0,0,0,0,0Z"/>
        </g>
        <g class="cls-13">
          <path class="cls-9" d="m39.36,124.52c-.02.11-.02.23.02.34v-.23c.1,1.48,1.9,2.43,3.26,2.65.94.37,1.63-.98.58-1.32.03,0-.38-.07-.4-.05h.05c-.2,0-1.01-.27-.98-.27-.39-.16-.76-.42-1.11-.66-.1-.08-.87-.72-.78-.6-.19-.18-.64-.22-.64.14Z"/>
        </g>
        <g class="cls-13">
          <path class="cls-9" d="m91.43,89.42c-2.36-1.38-.69,2.82-1.17,3.94-.12,1.29-1.04,2.25-1.36,3.46.59,3.02.59,5.98-1.33,8.58-.13,1.85,1.33,3.54.75,5.49-.21,1.24-1.2,2.45-.73,3.72,1.83,2.94,1.54,7-1.01,9.44-.75,1.33,1.3,2.94,1.03,4.66.77,3.42-3.16,5.47-2.8,8.54,2.22,2.37.26,4.05-.41,6.55-.14,2.07.63,4.7-1.71,5.83-1.17,3.28,4.34-1.02,3.34-3.36-.9-3.31,3.81-6.22.7-9.3-.5-1.29,1.46-2.23,1.75-3.5,1.05-2.66,1.55-6.06.03-8.62,2.77-3.12,2.68-7.63.93-11.17,1.03-2.1,1.23-4.61.39-6.82-.41-.6-.44-1.14.1-1.7,1.87-2.6.98-5.71,1.06-8.51,1.18-2.09,1.8-5.09.44-7.23h0s0,0,0,0Z"/>
        </g>
        <g class="cls-13">
          <path class="cls-9" d="m50.08,121.55c.59-3.09.91-6.39-.76-9.28,1.5-3.04,1.32-6.79-.56-9.63,1.52-3.14,1.21-6.9-.76-9.76.6-1.1.6-2.39.11-3.55-.38-.9-1.92-.26-1.59.67.27.76.27,1.61-.26,2.27-.34.36-.34.92,0,1.28,2.61,2.89,1.25,6.54.61,9.63,2.5,2.92,1.27,6.44.55,9.57,1.04,1.93,1.59,4.18,1.12,6.37-.14.74-.42,1.46-.41,2.22,2.35,6.89-4.49,6.7-2.84,10.7,3.24,5.11-3.27,12.44.16,11.1,3.59-3.27,2.82-8.5,1.47-12.52,2.95-1.94,4.25-5.71,3.15-9.08Z"/>
        </g>
        <g class="cls-13">
          <path class="cls-9" d="m89.72,53.5c-1.19-2.28-1.84,2.24-2.11,3.06-2.23,6.36-5.22,13.56-10.36,18.14-1.17-.8-2.63.63-1.85,1.82,5.69,2.63,14.54-17.99,14.32-23.02Z"/>
        </g>
        <path class="cls-15" d="m49.54,59.34c13.26-.01,13.14-12.57-.12-12.33-13.26.01-13.14,12.57.12,12.33Z"/>
        <path class="cls-14" d="m76.27,59.34c13.26-.01,13.14-12.57-.12-12.33-13.26.01-13.14,12.57.12,12.33Z"/>
      </g>
    </g>
  </g>
</svg>