<svg xmlns="http://www.w3.org/2000/svg" width="201" height="220" fill="none" ><style><![CDATA[.B{fill:#070d1c}.C{opacity:.33}]]></style><path d="M72.214 46.615l-.004.235.044.869c.085.875.327 2.082.995 2.904 1.159 1.425 7.06 5.415 7.06 5.415l-1.624 1.489-5.821.739-12.626-8.782s-4.513-5.311-2.132-10.134 3.602-6.549 7.143-7.396 5.899-.907 6.368-3.899-.87-4.726 1.967-6.973 4.636-2.49 4.195-5.177-1.569-5.638-1.569-5.638 1.41-2.054 2.672.693 1.905 4.043 2.173 5.117.982 3.984.917 5.125-.235 2.365.004 3.088.566 1.812 1.473 2.715 1.899 2 1.899 2l.625.661s.465.406-.104 1.353-1.161 1.531-1.161 1.531-.575.353-.498.357.441 1.714.45 1.775-.065.668-.065.668-.865.585-.827.649.407 1.237.407 1.237l-.173.644-.93.709s-.369.502-.099 1.285.554 1.494.542 1.829-.045 1.046-.442 1.252-1.033.902-2.645.798-4.901-.059-4.901-.059l-2.842-.358s-.475.529-.439 1.227-.035 2.052-.035 2.052l.001-.001z" fill="#81634b"/><path d="M111.828 139.832s1.848.673 2.85.562 14.067 0 14.067 0l9.152-.632-.781 3.629c-.341 1.627-.598 16.33-.521 17.401s.392 12.626.46 13.512.842 7.35.842 7.35-.041 1.473.428 2.424a34.86 34.86 0 0 0 1.066 1.963s-1.024.568-.929 1.493.191 2.148 1.378 2.883l5.65 3.504s2.581 1.535 3.129 1.519 2.983-.241 3.613-.441a57.83 57.83 0 0 0 3.221-1.233c.184-.1 1.704-.97 1.661-1.38s.036-1.35-.274-2.018-1.147-2.424-1.309-3.238-.294-2.781-.272-3.051.682.776.682.776l.596 1.244.407 1.472s-.156.377.267.879 1.014.792.819 1.417-.277 1.733-.119 2.05.587 1.447.587 1.447 1.102.8 1.113 1.044 1.99-.185 2.459-.209 4.382-.814 5.378-1.378 2.762-1.812 3.28-2.503 1.381-1.835 1.381-2.634.101-1.878.101-1.878-2.618-3.45-3.406-5.145-4.083-10.865-4.475-12.165-2.894-10.671-3.264-12.371-1.722-8.814-1.908-10.016l-.762-5.026c-.212-1.154-.864-3.894-1.198-4.685s-1.231-2.876-1.878-3.19-.726-2.672-1.347-3.642-4.205-6.948-4.762-7.737-2.033-2.814-3.033-3.152-11.711-2.527-12.569-2.701l-11.277-2.282c-.486-.099-4.125-.871-4.105-.759s.509 4.424.396 6.051-.847 6.666-1.424 8.451-3.097 8.082-3.569 8.975l-1.801 3.421v-.001z" fill="#484472"/><path d="M96.87 88.244c1.261-2.029 1.739-3.935 1.558-5.01s-.28-3.515-.761-4.62-2.432-4.482-2.997-5.172-5.27-5.728-6.046-6.575l-5.754-6.622-2.471-3.104c-.18-.233-.482-1.426-1.713-.874s-3.318.542-3.677.458-1.881-.638-2.144 1.541 4.11 4.361 5.684 7.412 3.756 5.723 3.799 8.356v9.738l1.659 4.424c.592 1.26 5.992 10.92 6.912 12.84s2.96 6.441 3.269 8.126 1.879 8.153 2.356 11.091 1.103 7.319 1.258 8.539l.573 4.676-5.146 3.269c-.847.499-6.39 3.413-6.441 3.433s7.347-.229 7.4-.23 9.27.043 9.412-.018 1.358-.247 1.358-.247c.03-.053 1.235.452 2.445.587s4.12.159 4.12.159 3.021-6.015 3.557-7.436 2.097-5.614 2.492-7.376 1.052-5.769 1.063-7.397-.524-5.869-.524-5.869l-5.099-1.477s-.632-1.799-2.152-2.375-3.738-1.084-4.479-1.532-1.924-1.494-2.353-2.636-1.076-3.283-1.54-3.996-1.264-1.675-2.139-2.187-3.431-1.732-4.16-2.405-2.445-2.123-2.002-4.773" fill="#aaa9a9"/><path d="M27.243 120.902c-.097.083 1.407 2.271 4.193 2.856s6.338-.832 6.276-.796.026-1.278.299-2.435l.728-3.09s2.464.106 3.93-1.409c0 0-.315.962.149 1.589s.985 1.267 1.977.996.981-.512.981-.512l-.453 4.701c.005.08.104 1.317 1.183 1.549s2.623.404 2.623.404-.714 4.775-.611 6.614.471 4.37.487 4.447a1454.13 1454.13 0 0 0 1.296 4.58s.415.623 1.529.27 1.596-1.164 2.629-.931 3.441 1.212 3.441 1.212 1.508 1.041 2.591.628 1.89-1.186 2.733-1.278 2.292-.104 2.903.328 4.256.693 5.209.378l4.46-1.464s.413.801 2.673 1.095 5.915.763 9.014-.77 10.793-6.363 10.793-6.363l-1.547-11.416c-.207-1.324-2.171-11.453-2.879-13.119s-3.02-8.494-4.37-10.834-5.236-8.692-5.573-9.692-1.672-4.181-1.659-5.932.716-6.519.077-9.323-4.055-8.902-6.413-11.356-9.353-8.44-12.094-9.547-9.715-1.194-9.715-1.194-2.992.647-4.375 1.948-.683 1.291-.683 1.291-1.342 1.038-1.852 1.828-1.675 3.658-1.675 3.658-1.961 1.537-3.187 3.709-3.073 10.194-3.073 10.194l-1.178 4.493s-.901.224-1.158 1.608.322 3.25-.289 4.537-1.957 4.323-3.858 6.633-3.877 6.002-4.349 7.316-1.691 5.201-1.649 7.639-.211 4.986.479 6.563 1.011 1.93 1.011 1.93l-1.027 6.465h.001z" fill="#93153c"/><path d="M28.34 114.041c-.006.019-.047.256-.11.626l-.889 5.417s-.345 1.305.8 2.014 3.742 2.123 5.482 1.926 4.416-1.175 4.187-1.095.743-4.318.743-4.318l.284-1.206s-6.815.949-9.697-1.967l-.801-1.397h0zm17.435 4.062l-.453 4.701s.205 1.406 1.183 1.549l2.623.404 1.633-6.654s-1.725-.223-2.405-.482-1.638-.481-2.109 0l-.471.482zm30.022 21.437s-.098.994 3.71 1.223 6.223.037 7.977-.898 8.815-5.135 8.815-5.135l1.978-1.228-1.245-11.903c-.22-1.555-2.888-12.46-3.389-13.819s-4.236-9.791-5.327-11.626-4.743-8.293-4.754-8.662-1.202-3.532-1.258-4.258.894-4.092.659-6.85-1.219-8.166-4.277-11.799-10.522-10.271-12.13-11.236-4.898-2.291-8.122-2.261-5.299-.254-7.784 1.284-1.603 1.956-1.603 1.956 17.291-11.156 24.84 13.842c0 0 .949 9.39 1.345 11.062s1.448 7.351 4.896 12.939 7.97 13.402 8.835 18.114 1.922 6.18 2.215 10.111l.645 9.448s-2.752 2.379-4.105 3.185-6.341 4.385-7.573 4.678-4.35 1.834-4.35 1.834l.001-.001z" fill="#7a1c3e"/><path d="M70.528 32.172s1.659-1.251 2.091-2.872l.968-4.377c.231-1.263.549-2.215 1.423-3.046s2.211-1.778 2.771-2.794.717-.888.894-2.005.242-1.98.134-2.558-.373-1.47-.495-1.724.611.154 1.094 1.495 1.146 3.854 1.225 4.923l.096 2.121c0 .023.779-1.838 1.004-2.676s.878-2.7.81-3.866-.402-3.643-1.124-4.79-1.799-2.66-3.121-3.124-2.068-.56-2.135-.58c-.345-.106-.899-.225-1.702-.967s-2.463-2.256-4.694-2.845-4.156-1.093-6.37-1.025-3.822.178-5.041.656-3.533 2.068-4.027 2.225-2.308.83-3.094 1.222-3.412 1.795-4.829 3.657-3.411 4.461-3.927 7.592-.779 6.084-.319 8.251 1.472 5.95 2.479 7.501 2.1 3.709 2.583 5.908l1.543 6.902c.266 1.098 1.501 4.382 4.406 5.565l.967 1.308c.268.378 2.052 3.329 6.718 2.94 0 0 .272 1.146 1.531 2.106s2.952 1.299 4.004 1.21c0 0 .229 1.443.663 1.969s1.372 1.507 2.562 1.863 2.482-.133 2.482-.133-.034.649.378 1.313 1.555 2.073 1.967 2.169 1.911.17 1.911.17-.185.493.062 1.25 1.127 1.762 2.231 2.472.103 1.488.103 1.488-.326 1.235.291 2.63 1.761 2.539 1.761 2.539l-.069 1.261-1.064 1.12s-.4.73-.239 1.874 1.673 4.781 1.673 4.781l.431 2.402s.229-1.327.64-1.944 1.079-1.114 1.271-1.609.559-1.89.559-1.89.182-1.405-.115-2.395.754-1.413.915-1.819.418-1.39.37-2.053-.217-1.564-.625-1.926c0 0-.225-.224-.202-.819s-.297-2.15-.503-2.722-.789-2.397-1.264-2.411.144-.248-.234-.977-1.478-2.253-1.831-2.806-.971-1.308-1.246-1.331-.823-.823-1.075-1.121-2.059-2.882-2.242-3.088-1.046-1.098-1.586-1.178-1.145-1.193-1.712-1.735-1.871-1.643-2.214-1.801-1.095-.135-1.095-.135-.369-1.03-1.101-1.487l-2.974-1.693c-.32-.183-.7-.347-.945-.31s-.775-.307-.775-.307-1.734-.773-2.238-1.576-1.464-3.891-1.464-4.898-.023-1.944.366-3.568 1.212-3.111 2.082-3.98 1.235-1.418 3.179-1.944 4.516-1.406 5.049-1.973zm1.757 15.545c.01.15 2.084 1.563 2.084 1.563s1.429.903 1.644 1.256.872.681.872.681 2.318 1.329 2.787 1.835l1.064 1.197c.114.083 2.822 2.219 3.251 2.736s.95 1.307.948 1.666 1.184 1.366 1.76 2.133 1.086 1.53 1.367 2.181.931 1.576 1.142 1.992 1.031 1.785.988 2.148l-.148 1.191-5.883-6.439c-.556-.687-2.722-4.258-7.053-6.858s-3.854-3.372-3.854-3.372l-.798-2.392-.171-1.519z" fill="#472712"/><path d="M27.697 121.711c.044.051-1.285 6.085-1.285 6.085s.359 1.702-1.792 2.497-2.448.442-4.541 1.519l-4.74 2.732-5.573.83-8.548.749s-.392.285-.12 1.163.688 2.226 1.604 2.219l45.164-.287s1.15.292 1.939-.572l-.762-3.167s-.566-4.958-.456-6.139.542-4.586.542-4.586l-2.935-.512-2.75 7.726s-.423 1.538-1.48 1.499-2.657.567-3.783 1.077-4.122 1.542-4.122 1.542l2.064-8.282 1.022-4.538c.007.182-3.983 1.347-5.708.492l-3.294-1.661-.445-.386h0z" fill="#81634b"/><g fill="#590f2a"><path d="M140.341 190.729s.454 1.721.09 2.634-1.182 2.001-1.455 2.745-.69 1.564 0 2.464 1.445 1.567 2.892 2.293l6.379 3.524c.92.608 8.614 5.173 9.426 5.606s7.993 4.086 8.729 4.448 4.098 2.001 4.785 2.214 2.274.94 3.261.289 1.062-1.981 1.025-2.741-.361-1.973-1.739-3.332-5.323-5.621-6.312-6.855-5.416-6.394-5.958-7.354-2.489-2.686-2.948-3.007-1.797-.91-1.797-.91-.621 1.209-3.622 1.931-4.027.912-5.09.494-4.521-2.494-4.521-2.494c-.798-.546-3.145-1.949-3.145-1.949z"/><path d="M182.969 200.759h2.117l5.318-.629 6.606-1.063c.836-.295 1.761-.487 2.078-1.231s1.232-2.419-.273-3.059-10.07-3.705-10.158-3.631-11.779-3.829-11.734-3.815-3.616-1.053-3.919-.937-.871.468-.871.468.485 2.609-2.101 4.284-4.215 2.9-6.719 2.95-3.704.312-3.704.312 5.039 5.513 4.962 5.722 5.28.315 5.28.315l13.118.314h0z"/></g><path d="M157.123 197.256c.028.264 4.486 7.196 5.118 7.97s3.214 3.097 3.977 3.476 2.876 1.671 3.639 1.641 2.385-.763 2.352-.704-6.284-7.571-6.841-8.393-4.235-5.374-4.82-5.807-2.697-2.254-2.692-2.204-1.398.848-1.345 1.803.171.927.229 1.455.383.763.383.763zm14.766-8.914c.084-.025.691 1.876 1.846 2.387s7.362 2.889 8.77 3.27 5.224.763 6.221.778 2.118-.102 2.717-.572 1.208-1.623 1.208-1.623l-15.868-5.361s-2.498-.887-2.905-.836-1.283.057-1.526.278-.463 1.679-.463 1.679z" fill="#b2305f"/><path d="M137.55 200.129c-.119.189-1.193 1.463-.664 2.913s1.143 3.117 3.473 4.354 15.391 6.411 15.391 6.411l10.925 4.281s3.614 1.183 4.794 1.027 2.286-.237 2.925-1.011.811-1.175.811-1.175.092.791-3.316-.056-16.814-8.277-17.562-8.775-9.878-6.08-9.878-6.08-3.877-1.611-4.444-2.254-1.094-1.793-2.455.365zm34.559 6.175c.024-.001 3.583-.535 4.861-1.077s2.759-1.215 4.046-1.077 6.187.145 7.72-.18l8.903-2.267c1.071-.47 2.32-.674 2.511-1.573s.229-2.018 0-2.348-.747-.516-.747-.516-.135 1.237-2.392 1.801-11.09 1.692-11.924 1.692-9.88.005-11.584-.132-8.931-.497-8.931-.497l2.851 3.888c.601.801 2.064 2.463 2.064 2.463l2.622-.177h0z" fill="#ccc"/><path d="M80.299 24.924s-.183 1.141-.448 1.345l-.774.574-2.866-.838 3.885-2.002c.068.158.203.921.203.921z" fill="#fff"/><path d="M80.308 25.009c-.036-.086-.078-.152-.145-.222a.63.63 0 0 0-.214-.142c-.044-.019-.056-.027-.09-.036a1.38 1.38 0 0 0-.169-.023c-.069 0-.139.006-.204.027-.05.016-.116.043-.162.068-.034.018-.053.037-.088.064-.181.143-.333.325-.458.521a1.39 1.39 0 0 0-.109.206c-.05.118-.103.236-.129.362a1.37 1.37 0 0 0-.029.212c-.002.04.007.079.012.118.013.1.013.101.051.193.001.003.022.061.036.086.024.041.076.111.11.145a1.75 1.75 0 0 0 .132.103c.048.032.103.053.159.069a.66.66 0 0 0 .19.024c.119-.002.241-.039.343-.102a.86.86 0 0 0 .138-.11l.025-.028c.088-.103.176-.215.233-.34a2.15 2.15 0 0 0 .107-.268c.016-.051.026-.104.034-.157.038-.023.073-.05.106-.083a.88.88 0 0 0 .09-.116.66.66 0 0 0 .087-.317c.001-.09-.021-.173-.055-.255h0z" fill="#7f4530"/><path d="M80.125 25.618c.016-.155-.094-.315-.252-.351-.023-.007-.034-.017-.05-.022-.099-.027-.199-.009-.288.036-.17.085-.285.252-.353.419-.056.139-.073.311-.019.455.04.173.188.287.362.296.073.004.145-.017.209-.048.074-.035.125-.093.173-.155s.087-.133.119-.204c.051-.109.087-.212.094-.332.001-.013-.004-.027-.004-.041s.009-.033.011-.053h0z" class="B"/><path d="M84.523 34.672c-.032-.084-.107-.121-.178-.117-.097-.035-.208-.041-.306-.043-.468-.006-.884.248-1.233.552a2.01 2.01 0 0 0-.227.137c-.167.116-.324.249-.46.4-.15.165-.338.371-.322.61.01.148.084.284.217.356a.39.39 0 0 0 .233.042c-.114.033-.226.071-.336.115-.014-.004-.026-.013-.04-.016-.139-.035-.275-.032-.415-.01a.87.87 0 0 0-.607.446c-.13.256-.135.547-.02.809a.79.79 0 0 0 .557.446c.125.025.259.025.384-.004a.86.86 0 0 0 .159.015c.18-.001.368-.047.528-.137.229.133.557-.005.79-.162.05 0 .101-.006.15-.023.198-.072.41-.226.493-.429.018-.015.038-.027.054-.045.199-.224.138-.503-.02-.717a.57.57 0 0 0 .004-.079c-.006-.155-.085-.291-.2-.374.114-.114.068-.33-.13-.34-.191-.01-.349.053-.509.152-.133.082-.261.171-.41.223l-.295.09a.48.48 0 0 0 .096-.056.42.42 0 0 0 .082-.082 1.02 1.02 0 0 0 .281-.096c.262-.124.518-.261.765-.411l.127-.081a.29.29 0 0 0 .081-.006l.076-.016c.04.011.084.016.132.004.022-.006.04-.019.06-.029l.001.003a.49.49 0 0 0 .085-.061c.322-.241.499-.68.353-1.064h-.001z" fill="#72533e"/><g class="B"><path d="M60.757 60.166c-.701-.923-1.854-1.528-2.892-1.999-1.095-.497-2.245-.862-3.436-1.038-2.343-.347-4.754.064-6.883 1.087-2.149 1.032-3.939 2.678-5.176 4.712s-1.918 4.323-2.453 6.613l-.868 3.998-.464 1.954c-.172.664-.396 1.314-.442 2.002-.015.217.285.269.389.105.593-.933.774-2.163 1.019-3.228l.724-3.347c.48-2.214 1.011-4.455 2.001-6.505.994-2.057 2.462-3.843 4.396-5.08s4.225-1.911 6.529-1.856c1.309.031 2.637.261 3.867.719.642.239 1.262.541 1.852.891l1.712 1.099c.073.04.184-.047.125-.125h0z"/><path d="M51.946 65.495c-2.035 3.344-5.072 5.85-8.188 8.136l-4.724 3.436c-.745.568-1.631 1.128-2.14 1.934-.574.911-.325 1.989-.359 3.001-.133 3.926-2.937 7.164-5.103 10.207-1.205 1.693-2.284 3.443-3.093 5.362-.835 1.981-1.394 4.057-1.673 6.188-.305 2.326-.274 4.72.156 7.028.38 2.038 1.188 4.409 2.927 5.68.258.189.495-.201.319-.414-.62-.75-1.198-1.514-1.611-2.4s-.67-1.851-.849-2.808c-.383-2.043-.396-4.163-.183-6.226.435-4.211 2.055-8.085 4.466-11.535 2.107-3.014 4.767-6.039 5.387-9.787.074-.449.123-.903.135-1.357.013-.51-.051-1.018-.032-1.527.04-1.101.927-1.687 1.723-2.307 1.508-1.172 3.07-2.272 4.603-3.411 3.331-2.476 6.664-5.24 8.353-9.134.033-.075-.068-.14-.113-.066z"/><path d="M27.986 114.872c-.349.606-.381 1.414-.494 2.093l-.371 2.236c-.106.637-.265 1.325-.064 1.96.182.576.637.984 1.098 1.348 1.788 1.414 4.136 2.066 6.401 1.848a8.78 8.78 0 0 0 3.652-1.172c.231-.137.28-.471.085-.662-.239-.234-.066-.699-.002-.98l.327-1.424c.194-.844.564-1.844.451-2.715-.029-.222-.292-.318-.428-.116-.312.462-.424 1.055-.557 1.59l-.404 1.655c-.19.787-.675 1.915.018 2.586l.085-.662c-2.255 1.351-5.148 1.478-7.542.404a7.67 7.67 0 0 1-1.676-1.019c-.27-.218-.582-.463-.728-.788-.167-.37-.117-.807-.062-1.196l.393-2.54c.116-.753.376-1.637.22-2.394-.039-.188-.311-.208-.4-.052h-.001zm2.913-13.922c2.36-.968 4.573-2.338 6.644-3.824 2.099-1.505 4.087-3.161 5.939-4.961 3.7-3.597 6.961-7.756 9.393-12.316.673-1.262 1.236-2.611 1.803-3.924.575-1.334 1.113-2.708 1.416-4.132.02-.093-.115-.163-.162-.068-1.133 2.278-1.993 4.672-3.308 6.86-1.307 2.175-2.566 4.349-4.051 6.412-2.971 4.125-6.557 7.818-10.573 10.934-2.289 1.776-4.74 3.291-7.167 4.861-.077.05-.028.196.066.157l-.001.001z"/><path d="M63.52 68.545c.143.974.375 1.948.386 2.938a16.14 16.14 0 0 1-.201 2.769c-.312 1.913-.953 3.757-1.808 5.493-1.693 3.439-4.205 6.387-6.583 9.361-2.345 2.934-4.651 5.961-6.052 9.478-1.533 3.847-1.637 8.108-3.355 11.894-.886 1.954-2.108 3.955-3.727 5.39-.733.649-1.644 1.163-2.648 1.132-.847-.027-1.628-.442-2.099-1.153-.198-.299-.74-.119-.61.258.542 1.574 2.547 2.011 3.991 1.525 1.852-.622 3.166-2.339 4.221-3.896 1.188-1.752 2.07-3.694 2.653-5.727.613-2.139.944-4.345 1.5-6.498 1.032-3.998 3.233-7.398 5.747-10.621 2.47-3.167 5.163-6.195 7.029-9.78 1.031-1.981 1.885-4.076 2.277-6.283.187-1.05.285-2.143.176-3.206-.111-1.085-.237-2.159-.734-3.142-.05-.097-.176-.023-.162.069v-.001zm-30.893 41.981c.591-2.028 1.569-3.906 3.052-5.426.724-.741 1.544-1.39 2.435-1.919.447-.265.913-.501 1.386-.716.448-.204 1-.349 1.393-.649.071-.054.088-.207-.029-.224-.483-.068-1.031.123-1.482.284-.516.183-1.01.424-1.484.696a11.82 11.82 0 0 0-2.615 2.046c-1.525 1.582-2.7 3.615-3.002 5.813-.031.222.28.325.347.096v-.001z"/><path d="M43.322 115.329c-.137.08-.254.096-.369.219s-.21.282-.279.44a2.22 2.22 0 0 0-.183.969c.029.677.376 1.318.967 1.663.583.339 1.33.379 1.952.125.332-.135.602-.346.828-.623.231-.283.44-.581.842-.567s.782.229 1.149.372c.303.118.896.357 1.102-.024l-.128.098.075-.031c.169-.071.175-.283 0-.352l-.075-.03.128.099c-.084-.191-.288-.222-.47-.265-.211-.049-.417-.126-.621-.198-.365-.129-.731-.283-1.123-.303-.383-.019-.741.127-1.014.394-.296.288-.471.649-.859.837-.678.329-1.601.142-1.992-.532-.182-.314-.24-.697-.192-1.054.024-.181.083-.359.16-.524.043-.093.096-.18.145-.27.038-.071.061-.186.108-.247.081-.105-.019-.275-.151-.196z"/><path d="M45.767 117.742c-.293.961-.374 1.995-.498 2.989l-.181 1.453c-.05.432-.073.88.082 1.295.236.634.775 1.022 1.396 1.237.48.166 1.517.439 1.93.015.079-.08.071-.199 0-.28-.173-.197-.513-.224-.757-.268l-.841-.174c-.553-.168-1.022-.514-1.093-1.123-.044-.379.024-.776.061-1.152l.125-1.27c.087-.883.204-1.787.139-2.673-.015-.205-.3-.257-.364-.049h0zm-18.166 4.517c-.032.086-.109.108-.171.178-.075.085-.107.208-.146.312-.114.305-.19.621-.275.935l-.48 1.962-.432 1.903c-.106.553-.292 1.269-.167 1.827.02.088.154.131.214.056.346-.431.491-1.1.639-1.622l.472-1.964.424-1.905.17-.908c.019-.151.061-.325.025-.475-.023-.097-.083-.17-.073-.272.012-.121-.162-.126-.2-.027h0zm9.256 1.644c-.277.559-.42 1.192-.58 1.793l-.455 1.764-.953 3.773-.91 3.7-.317 1.888c-.1.608-.281 1.209-.305 1.827-.003.078.116.114.151.041.268-.555.394-1.166.587-1.749l.582-1.729.956-3.773.911-3.699.446-1.852c.141-.607.316-1.238.335-1.863.007-.231-.341-.337-.447-.122v.001zm15.505-30.295c1.972 5.43 1.299 11.332.03 16.84-1.314 5.705-3.313 11.256-3.93 17.107-.171 1.623-.236 3.26-.136 4.89.097 1.578.326 3.205.948 4.67.059.139.311.072.292-.079-.19-1.428-.452-2.841-.542-4.283-.092-1.473-.063-2.949.069-4.419.269-2.991.934-5.936 1.685-8.838 1.437-5.552 3.257-11.06 3.543-16.831.155-3.131-.211-6.291-1.34-9.228-.146-.38-.761-.221-.619.171h0zm-.759 47.358a3.65 3.65 0 0 0 .771-.288c.332-.162.695-.269 1.055-.346.67-.143 1.357-.171 2.031-.028 1.315.278 2.408 1.145 3.688 1.527.573.17 1.176.225 1.763.091.641-.146 1.167-.54 1.721-.87 1.347-.803 2.729-.232 4.11.17 2.989.871 5.963-.048 8.791-1.071a48.08 48.08 0 0 0 7.7-3.581 43.72 43.72 0 0 0 4.015-2.625l1.903-1.472c.611-.497 1.251-.974 1.647-1.665.092-.161-.066-.428-.265-.345-.635.264-1.131.695-1.666 1.122l-1.734 1.316-3.584 2.366a46.87 46.87 0 0 1-7.667 3.735c-2.775 1.047-5.854 2.186-8.826 1.358-1.321-.367-2.757-.942-4.123-.436-.616.228-1.116.65-1.693.951s-1.187.319-1.806.154c-1.432-.379-2.635-1.345-4.131-1.532-.719-.09-1.497-.026-2.18.222-.316.114-.619.255-.907.426-.345.205-.516.35-.707.699-.035.064.023.141.094.122h0zm25.38-.484c.666.359 1.441.476 2.179.6l2.319.288c1.526.099 3.064-.002 4.531-.456 1.428-.442 2.753-1.159 4.057-1.878l4.084-2.356 2.305-1.437c.74-.475 1.487-.96 2.062-1.634.12-.141.01-.405-.195-.336-1.416.472-2.66 1.475-3.921 2.252l-3.928 2.306c-1.293.722-2.603 1.464-3.994 1.984-1.404.526-2.873.734-4.368.716-.872-.01-1.745-.085-2.611-.185-.819-.094-1.657-.277-2.481-.16-.141.02-.153.234-.039.296zm-3.924-74.483l.962 6.815.818 6.712c.387 2.206.96 4.363 1.81 6.438.825 2.013 1.841 3.938 2.918 5.826l3.3 5.695 2.893 5.843a67.49 67.49 0 0 1 4.048 12.483c1.069 4.845 1.546 9.793 1.739 14.745.018.474.714.473.736 0 .201-4.424-.246-8.841-1.089-13.186s-2.11-8.606-3.779-12.704a67.38 67.38 0 0 0-2.771-5.965c-1.023-1.943-2.157-3.822-3.277-5.709s-2.219-3.774-3.156-5.752c-.956-2.016-1.688-4.111-2.18-6.288-.556-2.459-.86-4.971-1.197-7.466-.342-2.534-.621-5.144-1.381-7.593-.079-.254-.436-.147-.392.108h0z"/><path d="M83.259 86.761c.891 3.125 2.647 5.913 4.272 8.698 1.637 2.803 3.084 5.697 4.243 8.732 2.325 6.086 3.669 12.459 4.71 18.875l.84 5.408.397 2.701c.061.437.109.878.184 1.313.083.48.242.941.343 1.417.044.208.375.161.369-.05-.012-.391.021-.78.01-1.17-.013-.441-.074-.881-.12-1.319l-.254-2.421a119.13 119.13 0 0 0-.58-4.833c-.453-3.248-1.01-6.481-1.728-9.681-1.421-6.331-3.542-12.555-6.867-18.152-1.895-3.189-3.994-6.249-5.523-9.642-.076-.169-.345-.048-.296.125h-.001zm.369 15.356c.728 3.697.638 7.631-.4 11.257-.966 3.373-2.858 6.41-4.325 9.574-.77 1.661-1.537 3.531-1.606 5.381-.005.142.185.146.231.031.331-.834.585-1.694.932-2.524a78.78 78.78 0 0 1 1.04-2.376c.731-1.598 1.556-3.151 2.322-4.733 1.586-3.273 2.67-6.744 2.768-10.403a19.78 19.78 0 0 0-.84-6.24c-.023-.078-.136-.046-.121.033zm-4.633 12.119c-3.366 5.665-8.245 10.389-10.884 16.491-.687 1.588-1.321 3.316-1.258 5.071.005.15.208.173.256.034.51-1.474.88-2.989 1.47-4.438.599-1.472 1.357-2.88 2.187-4.234 1.697-2.77 3.713-5.327 5.573-7.987 1.079-1.544 2.034-3.125 2.869-4.813.07-.14-.13-.261-.212-.124h0zm-21.2-19.994l.943 5.491a45.95 45.95 0 0 1 .272 5.451c-.024 3.692-.451 7.353-.936 11.007l-.462 3.236c-.149.988-.358 2.014-.388 3.012-.003.106.149.121.179.025.28-.888.412-1.856.574-2.773l.474-2.809c.294-1.823.532-3.652.712-5.489.363-3.692.476-7.424.071-11.118-.227-2.064-.585-4.116-1.294-6.073-.033-.091-.166-.056-.146.04h-.001zm21.813-38.009c.359.719.863 1.379 1.343 2.023l1.443 1.864 3.135 3.755 6.369 7.018c1.93 2.088 3.866 4.292 4.943 6.962 1.131 2.803 1.31 6.021.233 8.87-.543 1.438-1.471 2.769-2.774 3.611-1.384.894-2.895 1.021-4.488 1.184-.325.033-.386.445-.076.564 1.365.521 2.954.145 4.234-.459 1.296-.612 2.357-1.625 3.12-2.83 1.659-2.617 1.968-6 1.326-8.982-.646-3.004-2.427-5.57-4.431-7.838l-3.196-3.331-3.512-3.734-3.767-4.352-1.81-2.184c-.624-.76-1.241-1.577-1.973-2.233-.065-.058-.158.014-.119.092v.001z"/><path d="M94.183 91.35c-.561.761-.301 1.867.07 2.655.439.933 1.201 1.701 2.02 2.308 1.621 1.2 3.701 1.731 5.107 3.23 1.284 1.37 1.545 3.347 2.272 5.016.368.845.873 1.631 1.603 2.208.81.639 1.797.978 2.781 1.244 1.072.289 2.168.508 3.111 1.126.893.587 1.677 1.483 1.662 2.607-.003.19.266.217.323.044.615-1.899-1.237-3.386-2.805-3.997-1.841-.717-4.118-.785-5.324-2.577-1.027-1.525-1.225-3.439-2.092-5.046-.975-1.808-2.778-2.705-4.536-3.596-1.032-.523-2.022-1.086-2.798-1.963-.376-.425-.71-.921-.896-1.461-.197-.572-.156-1.123-.181-1.713-.008-.178-.218-.218-.316-.086zm18.388 21.22l-.235 2.82-.376 2.783-1.089 5.457c-.865 3.628-2.043 7.174-3.569 10.578a52.86 52.86 0 0 1-1.327 2.744c-.48.922-1.087 1.814-1.464 2.783-.131.339.385.632.615.358.589-.702.995-1.569 1.424-2.375a61.34 61.34 0 0 0 1.298-2.59 55.3 55.3 0 0 0 2.145-5.189c1.261-3.559 2.205-7.249 2.631-11.004a61.79 61.79 0 0 0 .268-3.1c.068-1.075.176-2.189.102-3.264-.019-.278-.388-.265-.423 0v-.001z"/><path d="M104.499 139.458c-2.493.348-5.031.051-7.535.025a86.29 86.29 0 0 0-3.773.054l-1.885.082c-.623.033-1.296.023-1.905.166-.127.029-.241.144-.272.271s-.008.187.039.299c.055.13.21.181.336.193.639.059 1.324-.044 1.965-.076l1.885-.076 3.856-.049c2.45-.004 5.051.332 7.429-.38.335-.1.187-.554-.14-.509h0zm8.192-28.513c.781.515 1.691.717 2.575.994l2.729.838-.313-.314c.379 1.871.58 3.711.541 5.624-.038 1.898-.264 3.788-.635 5.649-.741 3.705-2.051 7.269-3.599 10.707-.878 1.953-1.833 3.87-2.811 5.775l.348-.2c-.942.058-1.886.057-2.827-.013-.931-.07-1.866-.323-2.797-.299-.265.007-.409.4-.144.53 1.04.506 2.364.548 3.505.605.592.029 1.186.032 1.778.009.199-.008.508.025.689-.08.234-.137.348-.54.467-.771 1.083-2.114 2.128-4.25 3.061-6.435 1.831-4.29 3.243-8.78 3.645-13.446.224-2.603.156-5.324-.357-7.892-.03-.152-.17-.271-.313-.314l-2.74-.797c-.889-.254-1.759-.58-2.692-.578-.225.001-.287.292-.11.408h0zm-8.773-.078l-.782 7.379-.54 3.728-.508 3.585c-.007.104.144.115.174.024.388-1.177.59-2.431.795-3.65l.518-3.606.568-7.459c-.002-.149-.207-.14-.225 0v-.001zm-2.202 4.856l-.762 2.972-.392 1.456c-.123.475-.283.956-.314 1.448-.006.108.143.136.195.053.261-.42.397-.915.545-1.383l.406-1.511c.245-.994.43-1.987.537-3.005.013-.125-.184-.146-.216-.03h.001z"/><path d="M118.506 113.205c6.146 1.422 12.322 2.699 18.5 3.97l4.558.925 2.361.475c.641.13 1.293.252 1.902.494 1.296.514 2.043 1.721 2.812 2.813.797 1.132 1.58 2.274 2.315 3.447 1.456 2.324 2.73 4.786 3.447 7.445.792 2.935.649 5.998.658 9.01l.101 18.919.063 9.501.089 9.501c.024.748.093 1.465.215 2.202.02.124.231.125.251 0 .246-1.551.251-3.133.248-4.702l-.007-4.834-.002-9.668.007-19.252c-.008-3.115.178-6.31-.341-9.394-.458-2.722-1.571-5.286-2.93-7.673-.696-1.225-1.461-2.409-2.254-3.573-.77-1.131-1.519-2.335-2.438-3.353-.946-1.049-2.162-1.499-3.514-1.782l-4.667-.949-9.45-1.884-9.394-1.776-2.38-.406c-.351-.061-.508.461-.15.543v.001zm36.83 69.565c-.411.797-.417 1.803-.395 2.682.023.914.189 1.822.483 2.688.3.885.804 1.678 1.116 2.555s.178 1.666-.551 2.267c-.59.486-1.335.761-2.041 1.027-.924.348-1.862.677-2.832.875-.961.196-1.97.248-2.922-.024-.926-.265-1.725-.834-2.534-1.337l-3.093-1.925-1.549-.958c-.49-.298-.977-.692-1.546-.806-.346-.07-.527.297-.325.557.325.418.834.658 1.276.937l1.547.963 2.957 1.829c.863.533 1.724 1.111 2.688 1.446.945.328 1.962.365 2.946.235 1.042-.138 2.046-.453 3.029-.816.817-.301 1.668-.595 2.409-1.063.612-.387 1.149-.909 1.385-1.609.316-.934-.056-1.876-.471-2.711-.516-1.037-.944-2.063-1.17-3.206-.118-.595-.204-1.198-.217-1.806l-.015-1.753c-.01-.084-.128-.138-.175-.047h0zm-16.256 6.179c-.346-.598-.467-1.325-.094-1.946.186-.31.582-.451.725-.776.155-.352-.058-.646-.258-.924-.5-.692-.85-1.475-1.022-2.313-.086-.42-.119-.848-.107-1.276.011-.396.095-.801-.104-1.163-.073-.133-.235-.128-.339-.044-.628.505-.402 1.817-.281 2.506a6.14 6.14 0 0 0 1.095 2.581l.182.238c.081.095.104.086.076.167-.039.111-.31.287-.392.399a2.21 2.21 0 0 0-.402.977c-.105.684.088 1.414.654 1.842.164.123.359-.111.268-.268h-.001zm-1.194-9.232l-.351-3.703-.189-3.736-.146-7.279c-.106-4.95-.219-9.901-.011-14.851a89.16 89.16 0 0 1 .259-4.068c.121-1.387.377-2.822.254-4.212-.022-.26-.346-.296-.44-.06-.456 1.135-.564 2.413-.69 3.622-.129 1.244-.218 2.492-.288 3.74-.141 2.501-.172 5.007-.158 7.511.029 4.924.12 9.865.367 14.783.071 1.412.179 2.82.333 4.225.149 1.368.323 2.754.732 4.072.053.172.341.15.328-.045v.001zm-25.102-39.421c.739.267 1.575.327 2.354.383l2.475.141 4.951.085 9.9-.313 2.8-.206 1.317-.11c.479-.042.912-.184 1.384-.265.29-.05.218-.511-.069-.507-.387.005-.764-.065-1.15-.036l-1.317.103-2.47.157-4.865.21c-3.272.097-6.548.07-9.821-.02l-2.804-.074c-.884-.022-1.816-.08-2.684.115-.181.041-.151.283 0 .337h-.001z"/><path d="M137.701 139.833c-.014.017-.027.034-.045.048l.123-.05c-.091-.004-.145.055-.191.123l-.073.102c-.053.087-.094.183-.129.278l-.085.237c-.043.12-.103.259-.025.378.055.084.158.134.258.105.152-.045.196-.19.246-.323l.092-.245a1.45 1.45 0 0 0 .068-.242c.011-.055.012-.109.017-.164.007-.073.01-.147-.055-.199l.045.077c.006.034.003-.019.003-.022 0-.119-.165-.202-.249-.103zm2.443 51.017c-.014.772.134 1.501-.048 2.27-.165.696-.508 1.271-.893 1.863-.364.561-.746 1.15-.878 1.816-.127.643-.012 1.281.275 1.865.653 1.331 2.042 2.003 3.305 2.629l2.283 1.124 1.192.557c.362.16.738.374 1.132.432.177.025.332-.171.186-.319-.281-.282-.661-.453-1.006-.647l-1.008-.546-2.19-1.121c-1.228-.624-2.744-1.256-3.298-2.627-.557-1.381.561-2.421 1.138-3.565.537-1.064.852-2.77.058-3.798-.076-.099-.245-.076-.247.067h-.001z"/><path d="M139.043 198.556c-1.283.315-2.227 1.739-2.498 2.976-.321 1.469.232 2.906 1.136 4.056 2.007 2.557 5.338 3.677 8.25 4.836l10.608 4.186 10.367 4.065c1.794.652 3.754 1.162 5.668.771 1.412-.288 2.968-1.257 3.087-2.821.033-.444-.623-.495-.749-.101-.385 1.206-1.495 1.865-2.698 2.059-1.605.259-3.253-.188-4.759-.713-3.214-1.121-6.364-2.464-9.534-3.705l-9.579-3.747-4.637-1.807c-1.375-.566-2.731-1.219-3.928-2.11-1.222-.91-2.391-2.22-2.554-3.796-.079-.762.107-1.503.484-2.165.384-.675.973-1.17 1.47-1.753.088-.103.006-.266-.134-.232v.001z"/><path d="M156.677 193.062c.878.423 1.62.889 2.322 1.572.72.701 1.39 1.455 2.05 2.212l3.939 4.816 3.922 4.825 2.14 2.347 2.138 2.102c.777.799 1.45 1.697 1.672 2.813.141.703.233 2.774-.864 2.815-.335.012-.491.477-.177.651.975.539 1.674-.652 1.862-1.452.25-1.059.157-2.184-.265-3.185-.419-.994-1.138-1.811-1.899-2.56l-2.405-2.395c-3.143-3.351-5.784-7.124-8.769-10.61-.818-.956-1.653-1.908-2.549-2.792-.803-.792-1.801-1.617-2.955-1.762-.318-.039-.441.469-.163.603h.001zm-9.454 10.812c.716.627 1.534 1.141 2.324 1.669l2.355 1.544 4.987 2.929c3.389 1.854 6.85 3.566 10.318 5.264.958.469 1.911.953 2.893 1.369.904.382 1.911.786 2.906.775.371-.004.447-.543.088-.646-.864-.246-1.72-.436-2.554-.786-.878-.368-1.725-.809-2.578-1.229l-5.048-2.507c-3.376-1.705-6.713-3.479-10.009-5.337l-2.702-1.569c-.93-.568-1.829-1.209-2.793-1.717-.148-.078-.324.121-.187.242v-.001z"/><path d="M157.702 193.431c-.685.062-1.135.568-1.376 1.187-.295.761-.169 1.582.129 2.323.345.857.855 1.654 1.333 2.442l1.573 2.435c1.065 1.552 2.209 3.058 3.442 4.48.601.692 1.24 1.351 1.965 1.915.75.583 1.577 1.047 2.421 1.479.806.413 1.637.861 2.536 1.03.791.149 1.735.098 2.204-.65.118-.19-.083-.492-.31-.403-.625.247-1.184.367-1.854.213-.693-.16-1.326-.479-1.958-.794-1.506-.753-2.842-1.614-3.992-2.856-2.24-2.417-4.161-5.188-5.825-8.027-.773-1.318-1.915-3.273-.172-4.351.178-.11.121-.445-.115-.423h-.001zm4.814 14.099c.552.886 1.537 1.573 2.33 2.234.835.697 1.752 1.33 2.716 1.834.975.51 2.013.89 3.056 1.234l1.638.491c.496.11 1.164.267 1.622-.009.217-.131.158-.437-.067-.515s-.453-.054-.693-.069c-.305-.018-.604-.08-.9-.155l-1.556-.481c-1.008-.334-2.003-.708-2.939-1.214-.898-.486-1.729-1.059-2.556-1.655-.82-.59-1.579-1.423-2.506-1.842-.09-.041-.208.048-.146.146l.001.001zm-4.047-11.446c.198-.033.379-.079.564-.156a4.89 4.89 0 0 0 .584-.28 4.07 4.07 0 0 0 .522-.351c.076-.06.149-.126.21-.201.073-.09.149-.16.167-.28.015-.103-.04-.181-.146-.191s-.178.027-.274.068l-.276.134-.508.298-.501.277-.504.296c-.213.132-.068.424.163.386h-.001zm1.275 2.265c-.086.024-.193.038-.263.094-.172.136-.064.366.121.411.167.042.351-.117.483-.205l.413-.29.834-.565.424-.228.213-.101a.49.49 0 0 0 .273-.289l-.151.195.064-.04c.246-.154.163-.594-.156-.575l-.073.005.165.044c-.266-.16-.638.054-.878.186-.221.121-.431.26-.633.41a5.33 5.33 0 0 0-1.121 1.103l.142-.11c-.034.011-.03.013.014.005l.156.065-.003-.004.057.214c-.017.068-.078.088-.008.049l.067-.04c.176-.106.062-.391-.14-.334zm1.594 2.18c.306-.25.663-.442 1.016-.616l.269-.13.036-.016a1.69 1.69 0 0 0 .053-.021l.132-.049c.217-.076.518-.106.682-.276.191-.199.09-.49-.153-.579-.226-.083-.532.054-.745.138-.219.087-.441.181-.642.304a3.72 3.72 0 0 0-.984.909c-.187.24.095.532.336.336zm1.531 2.183l.605-.32.598-.337.583-.323c.222-.119.561-.225.601-.514.017-.124-.011-.251-.129-.318-.285-.161-.561.037-.807.175l-.606.368-.588.43-.525.491c-.182.178.049.47.268.348zm1.755 2.264c.223-.076.404-.208.604-.33l.596-.347.302-.147c.022-.01.049-.022.011-.006l.087-.035.215-.085c.104-.047.217-.089.312-.154.069-.048.124-.104.182-.164-.049.051-.009.027.022-.004.037-.037.053-.08.071-.127.027-.069-.004-.165-.056-.214-.03-.027-.059-.049-.096-.065-.029-.016-.062-.023-.096-.022l.045.015-.072-.031-.1-.013-.089-.009a1.36 1.36 0 0 0-.404.073c-.247.077-.492.207-.715.336-.216.126-.429.284-.61.456-.192.183-.367.382-.443.639-.04.133.096.281.234.234h0zm1.974 2.069c.296-.319.624-.601.959-.877.047-.039-.066.049.018-.014l.053-.039.134-.095.278-.177c.108-.068.214-.143.311-.225.016-.014.03-.029.045-.044-.028.027.052-.042.06-.05.079-.075.101-.152.114-.258l-.064.155c.035-.042.067-.079.076-.135.012-.084-.01-.149-.081-.198-.047-.032-.094-.038-.149-.04l.11.03c-.071-.048-.145-.063-.23-.057.021-.002-.157.034-.088.018-.039.009-.08.009-.118.019a1.51 1.51 0 0 0-.37.158c-.212.122-.41.274-.6.427-.364.293-.661.661-.891 1.066-.152.268.215.571.434.336h-.001zm2.182 1.571l.716-.458.351-.228c.071-.052.153-.101.218-.161.025-.025.049-.053.072-.08.037-.037.062-.081.076-.131-.015.031-.014.032.004.004.061-.085.039-.215-.02-.291s-.177-.128-.275-.094c-.033.01-.032.011.004.003-.053 0-.104.014-.15.041-.032.015-.067.029-.097.048-.075.045-.145.112-.214.166-.111.085-.213.178-.317.272l-.64.557c-.085.073-.081.212-.018.295s.196.119.29.057h0zm-13.853-75.522l1.309 2.108c.387.735.685 1.514.929 2.308.551 1.793.842 3.653 1.106 5.506.535 3.742 1.152 7.465 1.924 11.166 1.519 7.285 3.505 14.5 6.039 21.499 1.309 3.615 2.887 7.163 5.334 10.163.37.453 1.009-.193.642-.642-2.188-2.679-3.652-5.858-4.854-9.078-1.293-3.463-2.405-7-3.424-10.552-2.069-7.218-3.637-14.569-4.733-21.996-.308-2.086-.601-4.186-1.241-6.202-.278-.88-.622-1.746-1.063-2.558-.429-.788-.911-1.528-1.677-2.014-.184-.118-.396.112-.292.292h.001z"/><path d="M171.866 185.666c-.042.348-.005.699-.033 1.048a5.31 5.31 0 0 1-.211 1.072 6.06 6.06 0 0 1-.87 1.78c-.758 1.077-1.841 1.907-2.977 2.551a12.61 12.61 0 0 1-3.757 1.39c-.648.129-1.305.202-1.966.223-.639.021-1.397-.154-1.993.103-.257.111-.178.452 0 .581.442.322 1.12.264 1.642.263.581-.001 1.161-.045 1.737-.123 1.157-.156 2.288-.457 3.363-.913 2.074-.879 4.149-2.333 5.179-4.397.512-1.027.938-2.622.363-3.707-.131-.248-.449-.1-.477.129h0zm-13.282 7.03c-.377-.726-.688-1.355-.41-2.182.12-.358.307-.744.238-1.132-.07-.394-.371-.572-.628-.839-.638-.663-.256-1.558-.672-2.311-.202-.367-.498-.67-.699-1.039-.205-.375-.257-.839-.541-1.162-.088-.1-.248-.04-.284.075-.122.399.069.823.198 1.2.146.428.313.838.542 1.228.265.45.158.893.253 1.386.075.386.26.754.514 1.054.128.151.288.253.429.388.212.199.187.389.112.657-.106.378-.203.714-.18 1.112.04.683.35 1.439 1.017 1.711.086.035.147-.077.112-.146h-.001z"/><path d="M172.219 187.071c.958-.635 2.224-.103 3.201.24l4.19 1.402 8.306 2.767 8.333 2.776 1.826.63c.494.215.977.541 1.106 1.097.237 1.019-.592 2.108-1.474 2.513-1.294.594-2.855.652-4.245.842l-2.363.323c-.833.114-1.696.19-2.495.46-.233.08-.193.42.058.431.764.033 1.529-.11 2.284-.219l2.436-.363c1.381-.205 2.875-.283 4.197-.757 1.112-.399 2.094-1.066 2.417-2.262.314-1.164-.233-2.224-1.29-2.758-.603-.304-1.269-.487-1.908-.701l-2.248-.752-4.653-1.556-9.251-3.095-5.222-1.736c-1.143-.36-2.673-.716-3.502.422-.128.176.122.412.296.297l.001-.001zm14.627 13.478c-.563-.227-1.327-.139-1.928-.162l-2.145-.025-4.126-.032-8.329-.329-2.388-.165c-.735-.055-1.605-.26-2.328-.09-.423.099-.33.632 0 .769.61.254 1.428.192 2.081.236l2.058.128 4.203.189 8.416.078 2.31-.086 1.238-.114c.328-.032.665-.042.965-.187.099-.048.054-.177-.028-.21h.001z"/><path d="M199.299 197.278c.697.43.889 1.284.682 2.04-.24.875-1.039 1.415-1.828 1.762-.959.422-2.001.675-3.008.955l-3.417.865c-2.323.524-4.684.89-7.066.967-1.204.04-2.392-.033-3.592-.101-1.177-.066-2.175.152-3.249.621-2.386 1.042-4.831 1.554-7.438 1.514-.553-.008-.547.826 0 .855 2.462.132 4.962-.355 7.228-1.312.555-.234 1.098-.507 1.681-.667.635-.173 1.288-.156 1.939-.116l3.828.067c2.591-.124 5.16-.57 7.677-1.182l3.702-1.035c.985-.304 2.016-.599 2.865-1.205.805-.575 1.374-1.385 1.407-2.396.029-.866-.37-1.764-1.245-2.027-.239-.072-.373.269-.167.396l.001-.001zm-24.985 5.777c-.456-.067-.99.229-1.421.365-.531.167-1.074.283-1.623.371-.532.085-1.074.119-1.613.125a10.29 10.29 0 0 1-.805-.023c-.27-.019-.559-.099-.82-.008-.243.084-.259.365-.067.51.216.164.518.166.78.197l.858.062a9.43 9.43 0 0 0 1.76-.125c.566-.089 1.122-.241 1.661-.434.439-.157 1.15-.37 1.385-.806.044-.081.012-.218-.095-.234h0zm-32.02 1.585c-.196.601.452 1.039.85 1.369.512.425 1.095.78 1.672 1.109.568.324 1.153.618 1.752.881l.941.38c.317.117.67.296 1.013.204.279-.075.323-.397.158-.598-.188-.228-.524-.29-.792-.386l-.792-.306-1.632-.759-1.516-.875-.724-.439c-.136-.082-.598-.283-.568-.48.036-.235-.286-.335-.362-.1zm29.51-16.615c-.226 1.493 1.141 2.624 2.321 3.259 1.466.788 3.034 1.424 4.603 1.974 3.179 1.112 6.573 1.869 9.948 1.996 1.453.055 3.636-.322 3.821-2.125.024-.242-.3-.269-.414-.112-.88 1.223-2.201 1.485-3.637 1.402-1.511-.087-3.016-.301-4.502-.587a35.95 35.95 0 0 1-8.511-2.764c-.72-.34-1.473-.688-2.075-1.22-.575-.51-.94-1.208-1.344-1.851-.047-.075-.194-.076-.209.028h-.001zm14.08 8.367l3.289.727a14.12 14.12 0 0 0 3.419.044l1.577-.227c.5-.082 1.008-.144 1.476-.344.403-.172.733-.453 1.076-.719.329-.255.737-.43 1.039-.714.073-.068.065-.221-.035-.266-.736-.331-1.474.497-2.044.847-.432.265-.902.353-1.395.438l-1.694.263c-2.226.273-4.46-.045-6.672-.315-.154-.019-.18.228-.036.266zm-10.832-7.579a3.53 3.53 0 0 0 .31-.394l.267-.419.271-.399c.046-.069.088-.152.12-.229.035-.083.069-.151.077-.243.007-.084-.08-.125-.149-.114a.3.3 0 0 0-.119.04c-.01.007-.026.027-.03.03-.02.014-.049.018-.071.03-.075.045-.162.117-.222.182-.122.133-.232.286-.324.442a3.01 3.01 0 0 0-.238.475c-.064.17-.088.335-.092.516-.003.098.132.159.2.083h0zm2.266 1.318c.062-.371.21-.693.388-1.013l.141-.227.064-.087.086-.102a2.21 2.21 0 0 0 .197-.251c.059-.084.101-.177.097-.281-.003-.06-.04-.11-.098-.128-.21-.065-.447.101-.59.266s-.269.342-.37.533c-.203.385-.268.815-.238 1.246.006.081.058.151.143.161.074.009.166-.036.18-.118v.001zm2.327.715l.262-.376c.088-.132.165-.274.239-.415.143-.276.313-.533.47-.8.094-.159.216-.406.054-.568-.188-.188-.432.016-.55.163-.201.254-.351.553-.486.846-.076.165-.154.345-.187.525l-.043.272c-.013.095-.009.188-.011.284-.004.143.18.174.252.069h0zm2.181 1.213c.291-.373.535-.765.769-1.175l.332-.601c.123-.229.221-.439.231-.702.007-.151-.187-.274-.317-.182a1.24 1.24 0 0 0-.289.28c-.067.09-.118.186-.172.284l-.323.607c-.216.421-.418.842-.571 1.291-.063.184.214.359.34.198h0zm2.72.627l.61-1.253.297-.655c.083-.208.166-.45.147-.676-.009-.1-.112-.177-.208-.119-.197.119-.342.329-.457.526-.119.204-.208.429-.301.646-.192.446-.336.904-.465 1.372-.06.219.272.373.377.159zm2.527.295l.619-.865c.088-.151.187-.303.255-.465s.138-.369.076-.542c-.026-.071-.093-.116-.17-.096-.178.045-.306.208-.41.351-.098.135-.172.293-.257.439l-.47.903c-.051.1-.035.223.059.293.082.061.226.071.297-.018h.001zm2.822.771c.04-.052.083-.1.116-.156l.087-.148c.056-.095.103-.195.15-.295l.146-.351c.058-.141.116-.344-.017-.462l.066.159-.004-.069c-.017-.171-.197-.25-.331-.137-.018.015-.033.031-.05.047l.16-.066c-.197-.008-.291.205-.353.357l-.121.31a2.96 2.96 0 0 0-.165.68c-.017.152.22.255.316.131zm-49.259-7.346l1.515.162c.244.041.481.102.72.16.202.048.525.171.704.029.035-.027.04-.08.032-.119-.047-.222-.421-.317-.608-.373a5.58 5.58 0 0 0-.802-.16l-.797-.07c-.269.003-.539.045-.8.104-.159.036-.108.254.036.267z"/><path d="M140.518 186.171a3.36 3.36 0 0 0 .52-.267c.175-.114.335-.246.488-.388a2.83 2.83 0 0 0 .41-.471c.059-.085.095-.166.133-.242.027-.055.035-.108.048-.159.014-.057.016-.101.005-.159s-.079-.084-.131-.075-.104.026-.139.066l-.041.018c-.031.016-.056.039-.083.063l-.198.175-.401.406-.405.382-.415.381c-.064.054-.062.164-.013.226.057.072.141.08.222.044h0zm29.671-1.925c.106-.023.211-.053.319-.045l-.087-.211c-.285.239-.496.59-.709.891a10.61 10.61 0 0 1-.687.872l-.778.81c-.264.254-.616.502-.792.829-.085.16.056.355.237.307.379-.099.712-.44.986-.704.285-.274.547-.568.794-.876l.702-.968c.204-.32.413-.691.457-1.073.014-.119-.138-.145-.21-.088s-.178.093-.266.13c-.076.031-.05.143.034.126zm-.72-1.132c-.028.042-.072.062-.106.099s-.061.084-.09.126l-.161.247c-.103.163-.215.317-.339.462l-.394.437-.213.205c-.084.087-.197.192-.187.323l.028-.103c-.026.046-.041.088-.04.142.001.073.051.142.123.162.053.014.097.012.148-.003h-.109c.226.068.47-.197.612-.341a4.08 4.08 0 0 0 .434-.512 4.6 4.6 0 0 0 .318-.531c.052-.1.1-.199.133-.307.015-.051.033-.103.041-.156s-.007-.109.003-.165c.021-.123-.128-.189-.201-.085zm-24.252-26.988c-.024 1.037.164 2.109.274 3.141l.212 3.058.481 6.198c.325 4.107.817 8.226 1.366 12.309l.43 3.42c.153 1.138.276 2.336.573 3.452.021.078.136.06.138-.019.038-1.041-.096-2.099-.174-3.137-.077-1.02-.2-2.037-.289-3.056l-.598-6.195-1.473-12.394c-.15-1.129-.356-2.255-.466-3.389-.108-1.12-.137-2.302-.387-3.4-.012-.05-.086-.037-.087.011v.001z"/><path d="M144.858 169.311l1.883.056.907.048c.183.008.649.077.658-.208.01-.273-.474-.285-.658-.305l-.907-.058c-.634-.017-1.253.02-1.883.097-.23.028-.246.368 0 .37zm.228 2.695c.711.089 1.421.041 2.134-.009l1.044-.095c.334-.04.716-.082.994-.286.104-.076.084-.215-.034-.262-.31-.123-.677-.081-1-.05l-1.085.103-2.105.22c-.233.043-.145.355.052.38v-.001zm.646 3.399c.205.031.395.068.603.057l.637-.055.597-.107c.213-.043.44-.082.61-.228.148-.127.069-.397-.116-.439-.217-.049-.446.026-.658.073l-.551.109-.548.112c-.201.039-.38.104-.573.166-.138.045-.17.287 0 .312h-.001zm8.807-42.677l.218-.211c.141-.122-.01-.353-.178-.306-.318.091-.6.282-.872.462-.286.188-.555.398-.825.608l-.758.608c-.258.217-.518.465-.678.765-.075.14.052.362.226.294.318-.123.586-.329.85-.54l.773-.634.761-.601c.259-.215.529-.42.729-.694l-.334-.14c-.025.096-.06.19-.091.285-.035.104.106.176.179.104h0zm.349.362c-.46.431-.814.962-1.178 1.474l-.537.76c-.164.248-.322.536-.356.835-.011.099.108.14.181.104.268-.132.478-.391.654-.626l.531-.763c.352-.509.722-1.012.967-1.582.072-.167-.114-.341-.262-.203v.001zm-39.077-1.806c.672.144 1.366.054 2.048.049l1.987.008 4.135.077 4.132.09 1.984.064c.683.023 1.347.067 2.022-.061.142-.028.131-.243 0-.277-.666-.175-1.338-.173-2.022-.198l-1.984-.07-4.132-.194-4.135-.191-1.987-.011c-.68.018-1.406-.01-2.048.241-.204.08-.259.417 0 .473h0z"/><path d="M121.223 130.913c.152-.181.253-.405.354-.618l.313-.65.345-.636c.118-.213.229-.428.214-.677-.005-.069-.073-.141-.149-.113-.242.089-.394.279-.525.495l-.355.656-.303.683c-.093.229-.181.493-.179.743.001.134.188.233.285.118v-.001zm2.037.073l.285-.242c.097-.083.183-.179.273-.269l.259-.269c.053-.059.092-.124.137-.189.057-.082.081-.181.058-.278-.015-.061-.072-.124-.135-.135-.116-.021-.209.012-.301.083l-.025.019-.022.011c-.04.026-.075.059-.109.092l-.263.28-.278.316-.235.306c-.032.042-.038.127-.023.175s.041.088.081.118c.094.073.211.057.298-.017v-.001zM52.241 4.959c-3.299 1.121-6.048 3.558-7.884 6.49-1.997 3.188-2.919 6.933-2.845 10.681.041 2.113.388 4.226 1.034 6.238.677 2.109 1.775 3.984 2.765 5.951.984 1.956 1.523 4.041 1.963 6.175.437 2.121.801 4.288 1.602 6.311s2.097 3.739 4.195 4.512c1.978.73 4.282.655 6.34.38.443-.059.478-.738 0-.72-1.849.068-3.714.28-5.528-.217-1.862-.51-3.149-1.789-3.968-3.505-.886-1.855-1.273-3.936-1.677-5.938s-.799-4.025-1.575-5.924c-.793-1.941-1.969-3.694-2.77-5.631a21.2 21.2 0 0 1-1.507-6.001c-.363-3.688.248-7.399 1.889-10.729 1.697-3.446 4.441-6.319 8.065-7.721.215-.083.129-.429-.097-.352h0z"/><path d="M53.405 51.384c.048.584.515 1.112.877 1.547.388.466.831.882 1.315 1.248.974.737 2.136 1.273 3.352 1.438 1.33.18 2.587-.125 3.825-.598 1.35-.516 2.634-1.016 4.104-.966.1.003.147-.149.053-.194-1.137-.555-2.423-.197-3.555.189-1.233.421-2.447.945-3.775.897-1.202-.043-2.371-.457-3.37-1.119a7.38 7.38 0 0 1-1.345-1.15c-.206-.223-.397-.459-.574-.707s-.324-.531-.569-.725c-.119-.094-.354-.05-.339.14v-.001z"/><path d="M60.79 55.374c.086.996.949 1.855 1.709 2.421.824.614 1.823 1.006 2.85 1.083 1.239.093 2.456-.311 3.66-.537.61-.114 1.223-.187 1.845-.174.613.013 1.202.152 1.807.232.114.015.144-.136.085-.205-.712-.83-1.995-.825-2.995-.707-1.213.142-2.388.554-3.604.65a5.02 5.02 0 0 1-3.008-.72c-.425-.258-.809-.574-1.143-.943-.345-.38-.6-.831-.947-1.209-.084-.092-.27-.024-.258.107z"/><path d="M66.332 58.651c-.12.942.38 1.918.981 2.613.63.73 1.52 1.276 2.474 1.447 1.141.205 2.235-.168 3.342-.392.652-.132 1.295-.157 1.948-.012.539.12 1.057.47 1.604.51.064.005.129-.073.103-.135-.357-.876-1.764-1.149-2.595-1.159-1.18-.015-2.275.494-3.44.576-1.002.07-1.97-.306-2.7-.99-.746-.699-1.051-1.548-1.276-2.519-.062-.267-.411-.172-.441.06z"/><path d="M71.962 62.02c-.263.931.225 1.74.818 2.428.599.696 1.376 1.471 2.307 1.662.982.202 1.947-.165 2.93-.14.531.013.993.196 1.433.483.405.264.786.631 1.254.774.089.027.183-.064.154-.154-.249-.772-1.109-1.35-1.836-1.618-.889-.328-1.804-.111-2.712-.014-.452.048-.926.073-1.362-.083-.463-.166-.83-.515-1.182-.845-.692-.65-1.484-1.421-1.457-2.445.005-.202-.294-.238-.349-.047h.001z"/><path d="M76.262 65.632c-.896 1.605.549 3.263 1.876 4.055l2.447 1.302c.358.22.683.472.986.764l.436.419c.146.151.255.331.422.459.102.078.223-.031.232-.133.029-.336-.191-.757-.384-1.022-.22-.303-.509-.545-.807-.768-.685-.513-1.463-.853-2.228-1.223-.758-.367-1.55-.781-2.089-1.448-.499-.616-.777-1.487-.581-2.275.045-.183-.214-.303-.31-.131z"/><path d="M79.148 69.952c-1.726 1.192-.515 3.89.343 5.234.551.864 1.318 1.434 2.13 2.033.412.304.823.632 1.134 1.044.265.351.358.797.657 1.117.088.094.277.08.336-.043.34-.713-.354-1.532-.838-2.007-.669-.657-1.52-1.093-2.182-1.757-.67-.672-1.141-1.613-1.465-2.497-.363-.992-.318-1.887.203-2.806.108-.191-.119-.455-.318-.318z"/><path d="M79.723 77.042c-.181.408.525.784.788.978l1.381.927 1.396.814.699.358c.254.126.528.309.816.313.312.005.427-.368.241-.581-.165-.19-.451-.275-.675-.385l-.74-.379-1.411-.788-1.324-.842c-.172-.112-.997-.806-1.17-.415z"/><path d="M80.241 77.205l.312-.134-.292-.038a18.92 18.92 0 0 0 2.15 1.722l1.138.752.582.355c.218.129.4.277.663.215a.3.3 0 0 0 .208-.366c-.082-.245-.268-.315-.48-.434l-.59-.341-1.154-.724-2.225-1.558c-.067-.048-.175-.041-.243 0l-.287.176c-.244.15-.031.481.219.374h0z"/><path d="M80.648 77.649c-.791-.013-1.291.904-1.476 1.565-.261.932-.069 1.876.269 2.762.396 1.037.894 2.013 1.174 3.094.302 1.167.441 2.364.538 3.563.039.481.742.494.758 0 .022-.688.064-1.383.281-2.041.226-.687.696-1.095 1.148-1.631.407-.483.661-1.06.809-1.67.131-.54.356-1.335.048-1.838-.07-.114-.248-.153-.344-.044-.407.461-.321 1.235-.475 1.81-.198.74-.585 1.197-1.089 1.747-.928 1.011-1.096 2.348-1.135 3.667h.758c-.169-2.057-.524-4.022-1.368-5.916-.385-.864-.814-1.766-.783-2.734a2.58 2.58 0 0 1 .283-1.132c.188-.352.497-.575.738-.882.097-.123.043-.318-.133-.32h0zM64.299 53.058L66.94 54.4a31.48 31.48 0 0 1 2.532 1.547c1.662 1.117 3.222 2.388 4.653 3.788 2.843 2.78 5.2 6.075 6.89 9.675.481 1.024.905 2.074 1.271 3.144.174.507.33 1.02.48 1.535.164.56.39 1.09.574 1.639.038.112.236.103.22-.03-.057-.472-.094-.921-.194-1.39-.112-.523-.283-1.036-.449-1.544a32.27 32.27 0 0 0-1.084-2.836 32.56 32.56 0 0 0-2.93-5.298 32.63 32.63 0 0 0-8.518-8.536c-.952-.651-1.946-1.242-2.964-1.785-.982-.523-2.005-1.05-3.077-1.361-.065-.019-.106.077-.046.11h0zm-.328-2.047c.314-.79 1.084-.077 1.533.206l1.685 1.037c.506.315 1.008.662 1.417 1.098.415.443.582.986.909 1.479.057.086.189.073.219-.029.207-.685-.303-1.415-.731-1.913-.53-.617-1.226-1.047-1.919-1.456l-1.142-.638c-.354-.194-.717-.406-1.105-.528-.304-.096-.631-.092-.895.102-.212.156-.365.425-.225.674.063.113.211.072.253-.033v.001z"/><path d="M69.355 53.894l1.271.676c.427.272.81.59 1.185.928a15.44 15.44 0 0 1 1.057 1.065c.339.372.718.732.981 1.164.135.221.174.456.276.688.06.137.165.281.329.206.203-.093.208-.398.174-.584-.047-.256-.169-.508-.304-.728-.264-.432-.614-.819-.952-1.194l-1.049-1.074c-.762-.699-1.813-1.447-2.89-1.435-.148.002-.216.214-.078.287h0z"/><path d="M74.034 57.665c1.237.431 1.958 1.703 2.69 2.702l1.362 1.796c.192.251.581.595.497.932-.067.272-.201.459-.036.73.09.148.37.1.35-.095-.017-.167.118-.314.18-.464.059-.144.088-.285.064-.44-.054-.344-.325-.632-.519-.906L77.1 59.797c-.713-.964-1.619-2.567-3.028-2.413-.159.017-.198.226-.038.282z"/><path d="M78.618 62.804c.954.486 1.521 1.478 2.058 2.355l1.011 1.679a3.03 3.03 0 0 1 .315.858c.06.322.003.605-.046.922-.033.217.249.475.427.249.418-.529.319-1.304.084-1.891-.284-.707-.738-1.346-1.134-1.993-.329-.538-.665-1.077-1.088-1.548-.429-.478-.885-.778-1.521-.883-.143-.024-.257.176-.106.253z"/><path d="M82.268 67.844c-.038.153.013.28.122.394.065.068.153.104.223.164.122.106.174.273.233.416l.647 1.738c.186.59.339 1.191.457 1.799.061.314.138.642.148.962a.79.79 0 0 1-.318.715c-.233.206.018.554.287.493.638-.145.732-.913.663-1.45-.09-.7-.248-1.397-.438-2.077-.186-.665-.414-1.319-.683-1.955-.123-.291-.248-.616-.433-.873-.075-.103-.162-.198-.277-.257-.036-.018-.31-.081-.308-.07a.17.17 0 0 0-.322 0h0z"/><path d="M84.273 73.981c.105.305.344.549.452.855.129.367.104.772.11 1.155.005.348.001.701-.06 1.045a3.28 3.28 0 0 1-.13.507c-.029.082-.062.161-.101.239l-.067.123c-.047.072-.049.08-.007.024l.168-.045-.029.001.161.044.022.018.084.202.002-.018c.018-.143-.138-.27-.269-.269-.297.004-.417.357-.227.568.22.246.526.075.666-.151.298-.478.412-1.056.454-1.61.043-.563.041-1.177-.079-1.73-.106-.492-.43-1.112-.985-1.178-.108-.013-.199.12-.166.218h0zm-20.475-23.93c-2.976-1.405-3.757-4.954-3.577-7.972.103-1.729.617-3.421 1.661-4.816.955-1.276 2.246-2.243 3.786-2.679 1.648-.467 3.308-.663 4.738-1.689 1.23-.882 2.172-2.091 2.707-3.509.598-1.583.486-3.304.898-4.927.208-.82.552-1.525 1.112-2.163.533-.607 1.159-1.118 1.743-1.672 1.216-1.153 2.055-2.616 2.151-4.312.088-1.566-.225-3.322-1.198-4.586-.077-.1-.248-.011-.176.103.891 1.388 1.305 2.915.966 4.551-.159.764-.451 1.532-.859 2.199-.413.675-.983 1.207-1.567 1.732-1.211 1.09-2.431 2.115-2.953 3.721-.526 1.619-.434 3.377-1.023 4.978-.518 1.41-1.579 2.634-2.873 3.389-1.522.889-3.352.936-4.939 1.674-3.019 1.405-4.69 4.642-4.922 7.859-.223 3.086.88 7.392 4.137 8.562.256.092.436-.326.187-.443h.001z"/><path d="M79.029 13.635c.985 2.513 1.558 5.172 1.496 7.878-.006.247.321.255.401.054 1.024-2.535 1.961-5.313 1.787-8.088-.157-2.492-1.194-4.876-3.243-6.373-.536-.392-1.133-.701-1.76-.918-.59-.204-1.297-.384-1.895-.144-.174.07-.279.359-.06.458.478.217.995.26 1.497.408.51.15.99.372 1.441.653.941.587 1.711 1.419 2.253 2.384 1.232 2.194 1.353 4.827.916 7.257-.262 1.46-.785 2.88-1.33 4.254l.401.054c.045-2.748-.485-5.493-1.733-7.95-.047-.093-.211-.028-.172.072zm-3.917-7.821c-.773-1.251-2.038-2.194-3.321-2.879-1.359-.726-2.844-1.202-4.356-1.485-3.217-.6-6.827-.742-9.9.532-.874.362-1.696.813-2.46 1.372-.699.511-1.504 1.111-1.913 1.891-.062.119.065.254.186.186.658-.37 1.217-.914 1.849-1.332a14.13 14.13 0 0 1 2.09-1.131c1.52-.671 3.151-1.017 4.808-1.074 2.935-.102 6.013.27 8.736 1.414 1.534.644 2.793 1.604 4.019 2.708.136.123.366-.034.262-.202h.001zm-.392 8.043c-.408 1.078-.624 2.191-1.199 3.207a5.15 5.15 0 0 1-1.06 1.324c-.421.375-.892.696-1.259 1.129-1.424 1.68-.777 4.047-1.297 6.02-.609 2.314-2.835 3.607-4.84 4.581-1.144.555-2.316 1.07-3.376 1.78a11.01 11.01 0 0 0-2.315 2.078c-.746.891-1.384 1.896-1.817 2.977s-.798 2.33-.71 3.504c.006.081.127.107.149.02.274-1.076.468-2.142.919-3.167.436-.991.974-1.935 1.659-2.777a10.88 10.88 0 0 1 2.432-2.22c1.067-.706 2.244-1.217 3.39-1.778 1.903-.932 3.913-2.155 4.742-4.212.401-.994.428-2.082.474-3.139s.096-2.193.696-3.108c.373-.569.946-.947 1.444-1.394a5.48 5.48 0 0 0 1.085-1.356c.586-1.023.973-2.269 1.128-3.435.02-.149-.2-.155-.246-.033zM54.808 37.083c-.806 1.668-.746 3.592-.227 5.339.274.924.673 1.809 1.123 2.66.46.872.947 1.748 1.577 2.51.061.075.155-.021.123-.095-.363-.832-.869-1.59-1.297-2.389-.454-.847-.858-1.724-1.143-2.643-.536-1.731-.635-3.596.006-5.314.035-.093-.118-.159-.162-.068v.001zm1.784-26.905c-3.051 1.171-5.338 4.171-6.585 7.091-1.482 3.469-1.701 7.348-1.099 11.041.191 1.175.46 2.338.79 3.482.319 1.108.672 2.216 1.246 3.221.056.097.2.031.176-.075-.219-.986-.56-1.935-.85-2.901-.283-.943-.526-1.898-.719-2.864-.393-1.963-.596-3.997-.481-5.999.193-3.358 1.336-6.703 3.452-9.342 1.158-1.445 2.578-2.516 4.143-3.483.086-.053.031-.212-.073-.172zM46.126 124.294c-.315.143-.401.566-.533.865l-.397.956-.889 2.319-.796 2.267c-.223.661-.55 1.466-.446 2.174.012.081.129.101.179.047.469-.504.667-1.327.878-1.97l.774-2.273.818-2.257.39-1.049c.111-.309.344-.676.219-1-.033-.086-.112-.118-.195-.08v.001zm-2.855 9.567c-.291-.651-1.158-.847-1.801-.847-.856-.001-1.654.339-2.413.704l-2.605 1.194-1.395.552c-.316.123-.769.215-.864.586-.018.069.014.122.066.162.268.206.623.05.91-.047l1.257-.463 2.325-1.022c.729-.351 1.45-.745 2.254-.895.772-.145 1.367.103 2.087.31.145.042.233-.114.18-.234h0zm-16.425-3.395c-.29-.387-.939-.429-1.389-.455-.617-.036-1.241.043-1.842.177-1.215.272-2.41.759-3.545 1.267a29.42 29.42 0 0 0-3.364 1.778l-1.561 1.043c-.386.296-1.072.672-1.205 1.173-.02.076.037.151.116.152.49.003.972-.472 1.37-.719l1.509-.962 3.067-1.699c1.074-.535 2.162-1.063 3.318-1.395.6-.172 1.218-.295 1.845-.304.285-.004.56.025.842.059.259.032.522.117.776.046.062-.017.109-.103.065-.161h0z"/><path d="M15.135 134.46c-.263-.154-.574-.081-.869-.053l-.983.116-2.058.28-4.178.653-2.044.336c-.505.083-1.258.067-1.633.474-.542.589-.497 2.26.288 2.631.089.042.2-.007.2-.115-.001-.479-.273-.901-.247-1.396.013-.245.041-.581.253-.73.205-.144.573-.129.818-.165l3.612-.536 3.602-.575 1.71-.308c.454-.086 1.223-.097 1.549-.457.042-.047.037-.122-.02-.155z"/><path d="M4.275 135.455c-.326-.022-.635.021-.957.062l-.964.13-.96.141c-.33.049-.5.224-.558.552-.091.515-.061 1.052.107 1.549a3.27 3.27 0 0 0 .334.706c.13.203.348.445.612.393.043-.008.078-.048.089-.089.055-.201-.079-.412-.183-.577a2.78 2.78 0 0 1-.281-.565 2.71 2.71 0 0 1-.143-1.243c.006-.047.024-.1.026-.148.025-.056.018-.062-.019-.018l.048-.012c.129.008.303-.051.431-.072l.827-.138c.543-.09 1.118-.157 1.631-.362.163-.064.143-.296-.042-.309zm20.347-.675c-.516-.052-1.025.131-1.465.39-.244.145-.451.329-.673.504-.252.198-.514.28-.828.333-1.44.24-2.914.404-4.37.499l-2.125.134-1.064.045c-.307.011-.641-.017-.938.071-.8.236-.997 1.533-.471 2.117.118.131.382.073.414-.109.067-.385-.168-.792-.01-1.171.12-.286.408-.264.678-.275l.982-.044 3.757-.319c1.162-.123 2.414-.189 3.546-.493.451-.121.728-.394 1.067-.695.45-.399.978-.581 1.526-.798.102-.04.085-.178-.026-.189h0zm3.943 1.151c.258-.013.456.209.523.442.081.281.044.592.041.881l-.014.865c-.01.187-.055.419-.15.582-.067.115.043.234.162.211.337-.065.431-.384.455-.692.029-.376 0-.762-.005-1.138-.004-.354-.017-.754-.221-1.059-.185-.277-.495-.445-.828-.364-.15.037-.12.28.037.272h0zm-26.124 3.726l9.074.096 9.074-.027 18.013-.142 5.049-.032c1.66-.01 3.375.099 5.021-.134.248-.036.15-.374-.054-.4-1.468-.19-2.991-.078-4.47-.069l-4.47.028-9.023.05c-6.02-.004-12.039.055-18.059.112-3.383.032-6.778.028-10.156.221a.15.15 0 0 0 0 .297h0zm43.793-81.088c.346-.548.574-1.159.931-1.703.349-.533.754-1.035 1.209-1.48a7.78 7.78 0 0 1 1.513-1.157 8.21 8.21 0 0 1 .834-.429c.286-.126.691-.185.894-.437.126-.156.087-.38-.117-.445-.345-.109-.745.115-1.056.249s-.615.285-.906.46c-.594.357-1.148.791-1.637 1.283a7.59 7.59 0 0 0-1.258 1.649c-.329.589-.657 1.249-.674 1.937-.004.147.194.189.267.072h0z"/><path d="M48.976 54.131l.497-.575c.176-.189.371-.341.579-.49.198-.142.433-.275.645-.357l.38-.152c.122-.05.26-.116.319-.242.026-.055.021-.11-.02-.155-.197-.22-.616-.106-.852-.012-.277.11-.541.247-.782.424-.465.341-.877.858-.985 1.433-.021.115.127.237.218.127h0zm30.136 1.871c-.081.025-.226-.048-.317-.046-.103.002-.187.04-.279.078l-.557.212c-.376.124-.765.211-1.158.255a5.98 5.98 0 0 1-1.192.016 5.05 5.05 0 0 1-.586-.087c-.194-.04-.367-.095-.521.06-.054.055-.076.136-.056.211.061.219.26.261.457.303a6.54 6.54 0 0 0 .668.103 5.85 5.85 0 0 0 1.303-.009 6.18 6.18 0 0 0 1.242-.279 5.11 5.11 0 0 0 .623-.253.76.76 0 0 0 .241-.162c.081-.09.09-.261.17-.336a.04.04 0 0 0-.038-.065h0zm-5.988-7.467c.027.228.227.329.401.45l.619.431 1.147.777c.303.22.607.483.754.837a1.26 1.26 0 0 1 .082.615c-.02.179-.16.421-.049.586.026.039.073.077.124.071.445-.049.398-.88.331-1.19-.095-.442-.37-.813-.704-1.107-.366-.322-.796-.584-1.204-.847l-.726-.46c-.192-.122-.441-.355-.684-.283-.048.014-.098.066-.092.12z"/><path d="M75.956 50.923c.485.351 1.027.616 1.534.933l1.449.968c.45.319.889.688 1.156 1.18.126.232.213.493.23.757.016.248-.086.498.02.731.045.099.182.116.268.07.26-.138.277-.504.269-.766-.01-.304-.087-.599-.209-.877-.253-.575-.707-1.016-1.199-1.392-.522-.398-1.082-.752-1.647-1.086s-1.154-.665-1.814-.729c-.122-.012-.136.151-.057.209h0z"/><path d="M80.331 54.167l.705.661.763.608 1.504 1.302c.429.398.852.822 1.111 1.354.279.572.233 1.098.023 1.676-.122.337.352.468.534.225.375-.501.331-1.276.136-1.838-.214-.615-.631-1.129-1.091-1.58-.514-.504-1.068-.971-1.626-1.426l-.827-.652-.485-.345c-.171-.114-.354-.17-.536-.259-.172-.084-.359.127-.212.274h0z"/><path d="M84.626 58.589c.327.509.715.957 1.092 1.43l1.164 1.565c.318.457.673.938.838 1.476.075.245.113.505.082.762-.031.262-.181.502-.073.765.03.074.098.152.189.144.63-.059.641-.965.577-1.436-.089-.651-.419-1.232-.807-1.751l-1.311-1.627c-.478-.555-.953-1.097-1.543-1.534-.123-.092-.285.085-.207.207z"/><path d="M87.904 63.301c.124.382.401.686.612 1.025.223.359.428.733.613 1.114.18.37.335.751.466 1.142l.174.573c.058.214.092.437.228.618.108.143.367.154.415-.054.093-.405-.112-.876-.241-1.256a10.81 10.81 0 0 0-.51-1.245 8.76 8.76 0 0 0-.656-1.132c-.239-.35-.483-.758-.862-.965-.118-.065-.282.043-.238.183v-.001zm-9.994-7.797c-.493-.731-1.346-1.212-2.058-1.698-.822-.56-1.625-1.147-2.18-1.99-.542-.823-.821-1.795-.994-2.757-.108-.599-.151-1.204-.173-1.812-.019-.526.059-1.115-.139-1.611-.049-.122-.203-.124-.251 0-.202.515-.112 1.147-.09 1.69l.148 1.711c.141 1.03.452 2.029.971 2.933.503.874 1.193 1.529 2.025 2.088l1.236.774 1.302.877c.123.078.287-.08.203-.203h0zm-5.56-10.469l.012-.107.005-.032.007-.047.027-.232.01-.106.006-.049.002-.019a.56.56 0 0 0-.013-.259c-.029-.085-.152-.14-.22-.058-.058.07-.094.15-.106.241l-.027.242c-.012.155.011.308.036.461.011.065.087.103.146.095.07-.009.109-.064.115-.13zm-8.503-7.504c.341 1.193.787 2.253 1.556 3.237.752.963 2.113 1.355 3.217 1.751 2.701.968 5.563 1.444 8.429 1.507l2.457-.06c.737-.055 1.612-.05 2.295-.355.117-.052.093-.267-.037-.286-.61-.09-1.26.049-1.874.088l-2.072.067c-1.345.006-2.689-.082-4.022-.261a35.85 35.85 0 0 1-4.033-.794c-1.223-.309-2.585-.628-3.633-1.361-.623-.436-1.033-.956-1.366-1.633-.307-.624-.536-1.285-.773-1.938-.032-.087-.167-.053-.141.039zm16.157-23.519l.846 2.001c.212.655.358 1.337.472 2.015.245 1.451.28 2.938.303 4.407.011.691.02 1.383.178 2.06.164.704.517 1.31.962 1.874.986 1.251 2.076 2.461 3.296 3.487.068.057.149-.028.096-.096l-3.126-3.779a3.91 3.91 0 0 1-.794-2.117c-.055-.707-.036-1.42-.054-2.128-.034-1.377-.154-2.761-.452-4.109a10.95 10.95 0 0 0-.607-1.879c-.265-.63-.56-1.293-1.059-1.773-.025-.024-.075 0-.061.036zm6.061 16.368c-.223.082-.288.555-.382.745-.175.351-.414.624-.68.907a3.68 3.68 0 0 1-.398.367c-.123.096-.292.176-.387.305-.178.242-.041.557.034.81.122.413.271.866.304 1.297.041.535-.306.763-.75.948l-1.169.496c-.232.105-.467.234-.713.305-.169.048-.352.002-.5.101-.021.014-.033.039-.026.065.093.341.596.178.825.089l1.375-.605c.349-.16.749-.305.995-.614.236-.297.244-.657.173-1.015-.043-.219-.111-.434-.17-.65l-.111-.416c-.027-.115-.111-.321-.088-.436.03-.151.29-.268.395-.351.181-.142.349-.298.503-.469.265-.296.47-.684.631-1.045.09-.202.339-.63.16-.825-.005-.006-.015-.009-.023-.006h-.001z"/><path d="M83.612 35.97c.095.327.252.549.248.908v.48c-.006.227-.104.305-.278.429-.497.352-.826.709-.888 1.341-.068.698.243 1.328.45 1.975.133.415.231.889 0 1.291-.194.339-.566.503-.781.822-.077.115.05.259.174.226.744-.196 1.258-.988 1.221-1.736-.044-.882-.706-1.637-.632-2.528.041-.501.326-.651.744-.827.319-.134.567-.358.627-.714.084-.495-.15-1.698-.763-1.789-.071-.011-.145.042-.122.122v.001zm1.406-3.972c.131-.078.266-.106.368-.228.081-.097.127-.211.112-.338-.038-.319-.355-.412-.628-.441-.321-.034-.652-.015-.971.026a2.11 2.11 0 0 0-.489.118c-.136.052-.294.123-.39.236-.035.041-.028.118.034.131a1.08 1.08 0 0 0 .331 0l.372-.048.761-.075.373.006c.076.002.21-.013.272.042s.036.136.004.195c-.055.103-.125.218-.209.298-.041.039.012.107.06.078zm-4.775-9.98c.013-.197-.142-.371-.263-.512-.144-.168-.288-.344-.463-.482-.394-.311-.862-.394-1.351-.325a2.23 2.23 0 0 0-1.166.609c-.158.159-.307.329-.443.507-.119.155-.278.337-.314.534-.007.037.022.07.061.061.156-.037.294-.155.424-.245l.487-.311c.338-.177.67-.283 1.046-.336.327-.046.637.013.941.137.161.065.308.167.443.276s.267.235.449.237c.084.001.143-.069.148-.149z"/><path d="M83.749 37.847l-.061.027h.051c-.111-.081-.307.049-.411.092a2.97 2.97 0 0 1-.499.154c-.36.078-.718.057-1.081.076-.092.005-.362-.04-.358.113.003.144.29.175.39.199.177.043.374.026.554.009a3.74 3.74 0 0 0 .542-.091c.188-.047.371-.112.547-.192.117-.053.375-.163.34-.329l-.013.05.046-.045c.033-.033-.009-.079-.047-.062zm.922-3.315c-.027-.036-.056-.091-.096-.114s-.085-.015-.126-.014l-.269.021a2.66 2.66 0 0 0-.526.13c-.078.027-.155.056-.228.093s-.138.087-.208.13c-.126.076-.245.166-.346.273-.058.061.03.149.093.092.091-.083.194-.15.303-.207.126-.066.272-.104.408-.149a3.04 3.04 0 0 1 .437-.111l.224-.036.112-.012c.047-.004.058.001.104.022.069.031.175-.04.118-.118h0zm-8.579-8.493l.001.012c.005.056.035.096.088.115.352.125.732.187 1.09.297l.996.359c.319.125.625.288.97.33.213.026.74.08.816-.196.007-.026 0-.055-.019-.073-.107-.108-.256-.059-.392-.045a1.63 1.63 0 0 1-.492-.022c-.332-.07-.635-.262-.947-.391s-.649-.228-.981-.314c-.323-.083-.676-.177-1.011-.18-.039 0-.087.022-.103.059-.005.012-.018.033-.017.048h0z"/><path d="M79.194 26.894c.539-.147.856-.635 1.06-1.129.121-.291.212-.6.23-.916a1.15 1.15 0 0 0-.063-.461c-.042-.12-.089-.295-.233-.32-.038-.007-.091.004-.109.044-.054.123.013.215.034.338s.018.254.012.376c-.014.283-.109.557-.213.819-.178.446-.403.84-.768 1.161-.04.035.003.101.051.088z"/><path d="M80.392 23.746c-.725.28-1.418.67-2.111 1.023l-2.146 1.091.227.13c.013-.19.263-.321.394-.421l.413-.346.894-.793.851-.764c.122-.108.247-.209.401-.268.104-.04.362-.105.44.017.044.069.172.048.165-.045-.024-.333-.441-.4-.703-.326-.421.119-.767.537-1.082.818l-1.165 1.046-.589.575c-.131.136-.287.273-.315.468-.02.135.096.227.221.17l2.116-1.06 2.059-1.148c.079-.054.033-.206-.071-.167z"/></g><g style="mix-blend-mode:darken" class="C B"><path d="M49.366 137.203c-.05-.148.074-.249.188-.224l-.017-.038c-.068-.136-.211-.234-.366-.277l.104-.653c.025-.19-.136-.401-.313-.479.007-.224.001-.45-.024-.676a.67.67 0 0 0-.023-.111l-.052-1.582c-.014-.851.118-1.795-.083-2.624-.123-.505-.845-.468-.986 0-.114.38-.148.797-.152 1.22-.075.058-.135.137-.165.241-.344 1.169-.565 2.381-.818 3.572l-.333 1.567-.123.136-.835.973c-.093.112-.157.23-.157.38 0 .132.058.29.157.38s.237.164.38.158c.151-.007.263-.064.38-.158l.073-.059c.022.031.039.064.069.092.348.33.857.259 1.192-.048.024-.022.044-.045.066-.068.069.251.285.452.572.448a1.74 1.74 0 0 0 .452-.07.62.62 0 0 0 .598-.246l.031-.002.153-.021c.075-.018.14-.052.196-.103.092-.071.185-.18.206-.299.026-.14.038-.284.051-.427-.174-.318-.308-.662-.422-1.001v-.001z"/></g><g style="mix-blend-mode:darken" class="C B"><path d="M39.102 102.528c-.876.169-1.709.657-2.448 1.144a11.83 11.83 0 0 0-2.088 1.733c-.416.439-.802.917-1.145 1.419.016.035.022.078.012.122-.267 1.174-.771 2.283-1.043 3.453.093-.021.178-.068.229-.154.211-.358.329-.779.512-1.153.184-.379.399-.747.631-1.1.453-.691.962-1.334 1.541-1.924s1.206-1.116 1.897-1.566c.713-.462 1.495-.776 2.232-1.19.443-.249.13-.873-.33-.784z"/></g><g style="mix-blend-mode:darken" class="C B"><path d="M77.348 116.57l-1.952 3.161-2.187 3.037-4.14 6.168c-.656 1.201-1.274 2.535-1.552 3.879-.076.367.479.665.648.274l1.55-3.319 1.959-3.13 4.314-6.1c.742-1.166 1.492-2.411 1.993-3.702.145-.374-.439-.597-.634-.268h0z"/></g><g style="mix-blend-mode:darken" class="C B"><path d="M83.548 112.038c-.349 2.412-1.236 4.67-2.266 6.865l-1.6 3.256c-.534 1.082-1.118 2.191-1.466 3.35-.124.414.478.664.694.293.626-1.08 1.135-2.24 1.693-3.356l1.609-3.332c1.007-2.221 1.813-4.54 2.069-6.977.043-.414-.673-.516-.733-.099z"/></g><g style="mix-blend-mode:darken" class="C B"><path d="M104.026 139.657c.041-.081.016-.054 0 0z"/></g><g style="mix-blend-mode:darken" class="C B"><path d="M157.002 191.651c.094-.462.092-.987-.352-1.27-.08-.283-.211-.537-.39-.75-.214-.558-.627-.991-1.336-1.001-1.194-.018-1.51 1.407-2.559 1.646-1.06.242-2.07-.434-2.616-1.297-.7-1.103-.946-2.47-1.181-3.735-.32-1.714-.453-3.458-.581-5.196a.44.44 0 0 0-.406-.431l-.19-3.198a.54.54 0 0 0-.213-.431c.114-.33.197-.678.242-1.039.112-.911.082-1.844.016-2.758-.067-.937-.162-1.896-.414-2.804a.39.39 0 0 0-.161-.22l-.066-1.35c-.052-.402-.622-.548-.751-.101-.281.974-.188 2.138-.143 3.14l.079 3.109c-.034.818-.152 1.631-.397 2.413l-.049.095-.325.378c-.023.028-.039.056-.057.084l-.066.055c-1.218.914-2.739.834-4.007.187a3.92 3.92 0 0 1-.744-.628c-.664-.719-1.004-1.671-1.261-2.598l-.316-1.21-.164-1.844-.062-6.467.049-2.081c.268-5.305.511-10.622 1.162-15.895.177-1.432.375-2.879.727-4.281.273-1.085.68-2.15 1.587-2.862.379-.297.072-.858-.325-.924-.055-.194-.193-.36-.424-.417-.569-.139-1.07-.293-1.551-.643-.448-.327-.811-.771-1.049-1.272-.251-.529-.332-1.128-.288-1.708.022-.293.093-.581.188-.857.117-.338.293-.609.195-.938.002-.023.007-.047.006-.069.082-.291-.023-.613-.41-.687-.707-.135-1.432-.137-2.149-.171l-2.153-.098-4.307-.174-8.534-.238-2.31-.033c-.208-.181-.555-.205-.789-.012l-.27-.004c-.005-.018-.008-.036-.013-.054-.087-.283-.359-.473-.656-.428-.266.04-.496.258-.513.535-.104.012-.207.028-.31.047-.07.013-.128.043-.178.08-.05.03-.097.066-.139.107-.032.032-.056.066-.077.1a.46.46 0 0 0-.094-.238c.214-.377-.046-.989-.544-.954-1.078.075-2.161.089-3.241.033-.835-.044-1.924-.026-2.621-.568.174-.22.245-.537-.02-.745-.363-.285-.734-.307-1.18-.381l-1.274-.228c-.839-.164-1.675-.352-2.5-.575-1.427-.386-2.571-1.057-3.433-2.279-.664-.942-1.115-1.992-1.516-3.064l-.528-1.764-1.705-5.714-.578-1.916-.06-.219c-.245-.876-.464-1.779-.795-2.631a23.01 23.01 0 0 0-.228-.69c-.372-1.354-.787-2.728-1.398-3.979-.233-.476-.957-.136-.834.352.012.048.027.095.039.143-.186.246-.281.47-.238.803.055.421.221.832.354 1.233l.983 2.84.767 2.078c-.098.077-.157.207-.12.379.38 1.788.833 3.56 1.292 5.331-.096.083-.16.208-.134.366l1.171 7.907.444 3.873.184 1.942.059.708c-.398-.011-.728.261-1.069.466l-1.236.753c-.866.537-1.725 1.086-2.574 1.648l-2.372 1.609c-.362.239-.733.465-1.122.66-.413.209-.924.294-1.3.553-.303.209-.32.786.113.866.145.027.294.025.445.013.07.092.178.156.337.149.625-.026 1.253-.258 1.853-.517.021.01.04.024.062.031.412.132.874.077 1.302.065l1.328-.052 2.49-.084 3.561-.067c.042.036.091.064.15.073.293.044.595.147.877.236.297.094.599.198.906.251.357.062.734.079 1.081-.043a5.45 5.45 0 0 1 .35-.11c.019-.001.039-.001.056-.003.025-.001.049-.005.074-.009.183.011.355-.096.435-.271a.67.67 0 0 0 .048-.12l1.394.022c.028.036.061.07.099.099.371.286.988.338 1.437.437.457.102.92.219 1.39.239.43.018.863-.044 1.29-.085l1.118-.107c.198.084.405.093.598-.02.177-.103.263-.246.311-.417.03-.008.06-.014.089-.025.08-.028.148-.079.207-.138a.63.63 0 0 0 .136.269c.359.414.992.431 1.497.403.214-.012.427-.027.641-.016a2.92 2.92 0 0 0 .162.005c.029 0 .12.016.151.002.017.003.034.007.052.009.008.001.008.001.02.003l.14.019c.024 0 .047-.008.07-.011.094 0 .175-.035.262-.073s.157-.136.19-.237c.586.071 1.172.132 1.761.174 1.728.123 3.462.146 5.194.148l10.682-.125 2.987-.079c.625-.019 1.282.005 1.924-.037-.225.751-.33 1.538-.412 2.323-.144 1.382-.231 2.771-.304 4.158-.147 2.799-.205 5.602-.277 8.403l-.219 8.462c-.072 2.778-.178 5.559-.138 8.339l.008.346c.144-.042.287.167.15.293.003-.003-.029.037-.028.036-.011.022-.018.047-.024.072.112.447.148.907.157 1.368l.021.238c.024.028.041.061.042.107.004.912.147 1.819.17 2.73.023.015.044.036.055.066a5.37 5.37 0 0 1 .189.663 18.78 18.78 0 0 0 .184 1.5c-.011.014-.02.03-.035.04a8.07 8.07 0 0 1 .067.268c.008 0 .015.004.022.005.007.034.011.068.018.103.028.143.114.224.217.263.028.102.05.206.068.31l.07.209c.017.052.01.099-.011.138l.024.143c.03.16-.137.226-.247.165-.004.01-.014.015-.02.024.078.211.301.307.497.285.089.595.191 1.189.32 1.778.207.948.44 1.95.883 2.82.028.056.063.1.1.14-.747.771-.947 1.881-.619 2.854a.56.56 0 0 0 .026.194 1.91 1.91 0 0 0 .301.588l.043.069c.061.123.132.235.212.336a1.91 1.91 0 0 0 .037.059.59.59 0 0 0 .223.209 2.03 2.03 0 0 0 .58.342c.123.047.243.034.352-.011.013.019.027.034.04.052-.157.129-.247.326-.158.546.063.155.122.311.176.467a.57.57 0 0 0-.185.583l.234.905c-.175.616-.37 1.225-.578 1.83a4.58 4.58 0 0 0-.791 1.196c-.456.365-.467 1.112-.423 1.643a2.9 2.9 0 0 0 .136.674c-.003.128.002.256.011.384-.329.272-.582.672-.707 1.077-.889.273-1.219 1.273-1.147 2.236-.012.062-.031.121-.039.184-.142 1.039.198 2.149 1.054 2.773.493 1.202 1.394 2.196 2.597 2.722.252.11.493.067.663-.061.015.002.029.004.043.005.058.052.119.102.185.148a.97.97 0 0 0 .136.229c.36.433.898.546 1.406.722.601.207 1.173.473 1.728.782.211.117.416.103.578.015.169.16.41.156.615.055.074.098.158.191.254.275.408.353.997.423 1.373.801.229.23.535.219.758.074.067.363.206.701.623.807.615.157 1.079-.497.766-1.032a.71.71 0 0 0-.201-.219l-.028-.249a21.55 21.55 0 0 1-.08-.802c-.037-.498-.051-1-.009-1.498.031-.383.093-.827.259-1.16a1.18 1.18 0 0 1 .24-.34c.131-.101.202-.093.411-.123.264-.037.391-.306.37-.555.031-.162-.001-.344-.103-.472-.283-.357-.641-.633-.865-1.039-.228-.413-.345-.887-.381-1.356-.092-1.179.14-2.366.154-3.546.014-1.223-.084-2.443-.174-3.662l-.028-.341c.602.073 1.216-.096 1.778-.303l.561-.212c.138.209.386.342.66.255 1.086-.344 2.085-.901 3.089-1.43.448-.236 1.071-.443 1.431-.808a.79.79 0 0 0 .021-1.069l-.002.001zm-49.878-55.9c.107-.085.169-.201.193-.327.007-.002.014-.003.021-.005.001.038-.001.076.001.114a.66.66 0 0 0 .061.24l-.276-.022h0zm5.761 2.383c.002-.166-.086-.318-.214-.432l.312-.393.115-.146a.65.65 0 0 0 .421-.359c.039-.08.063-.17.072-.261l.418-.527-1.124 2.118zm2.068-3.788c-.025-.05-.055-.098-.098-.137a.82.82 0 0 0-.142-.103c.022-.125.014-.261-.04-.411-.016-.044-.04-.081-.062-.12-.048.011-.096.019-.144.029.145-.083.272-.21.368-.397.075-.149.101-.311.096-.475.17-.159.216-.438.145-.659.138.002.275.004.415 0a.5.5 0 0 0 .341-.146c-.024.054-.043.113-.063.168l-.816 2.252v-.001z"/></g><g style="mix-blend-mode:darken" class="C B"><path d="M104.022 139.666c-.006.018-.017.031-.025.047.012-.02.017-.031.025-.047h0z"/></g><g style="mix-blend-mode:darken" class="C B"><path d="M72.491 49.385c.002-.06-.003-.123-.021-.191l-.17-.785c.125-.144.167-.348.136-.553a13.27 13.27 0 0 1-.137-1.416c.059-.538.068-1.076.014-1.62-.01-.098-.037-.182-.076-.254.046-.144.1-.285.174-.422.179-.334.025-.763-.353-.868a8.62 8.62 0 0 0-2.032-.304c-.019-.001-.036.002-.055.003-1.025-.35-2.028-.759-2.997-1.251-.144-.073-.293-.077-.426-.036l-.053.008-.314-.586c-.566-.238-.993-.892-1.289-1.367-.441-.709-.829-1.504-1.043-2.316l-.013-.042c-.008-.03-.005-.055.001-.077-.19.088-.329.293-.275.554.135.646.482 1.304.749 1.906l.887 1.863c.631 1.25 1.324 2.466 2.078 3.646l2.378 3.365c.575.742 1.88 2.579 2.862 1.288.13-.171.092-.383-.025-.543z"/></g><g style="mix-blend-mode:darken" class="C B"><path d="M171.703 199.851c-.253-.254-.617-.327-.852-.622-.262-.331-.345-.79-.385-1.199-.1-1.026-.107-2.069-.084-3.1l.205-3.041.218-1.585c.056-.355.182-.766.189-1.149a7.4 7.4 0 0 0 .664-1.161c.309-.684.622-1.532.542-2.294-.024-.224-.145-.38-.298-.459-.092-.197-.251-.352-.505-.422-.158-.044-.306-.04-.445-.008a.44.44 0 0 0-.596-.19c-.299.175-.473.448-.68.718l-.686.858-.723.809-3.433 1.595a6.06 6.06 0 0 1-1.026-.005 5.35 5.35 0 0 1-1.303-.292.98.98 0 0 0-.514-.365 2.11 2.11 0 0 0-.443-.081c-.53-.308-1.015-.698-1.432-1.15l.041-.171c.064-.417-.086-.77-.363-1.079-.315-.353-.668-.677-1.001-1.013-.092-.206-.21-.391-.383-.522-.142-.449-.244-.914-.345-1.369l-.907-4.456-.39-2.24c-.132-.768-.217-1.556-.456-2.3-.164-.512-.918-.419-.937.127-.029.805.125 1.613.24 2.407l.366 2.246.168.908a.57.57 0 0 0-.808.619 21.61 21.61 0 0 0 .56 2.481c-.181-.048-.395.012-.482.191-.24.495-.09 1.103.063 1.608a8.21 8.21 0 0 0 .666 1.569 8.34 8.34 0 0 0 .445.714c.128.185.316.388.381.607.07.238-.042.494-.055.735-.016.294.034.583.18.842.112.199.277.354.452.496.131.106.38.245.456.403.095.199-.012.495-.057.693-.065.284-.12.569-.133.861-.053 1.23.519 2.398 1.276 3.326.131.161.341.151.499.053.09.058.191.08.293.076a.54.54 0 0 0 .19.314c1.339 1.138 2.728 2.311 3.543 3.9.17.33.336.645.617.868.009.076.035.15.084.213a9.37 9.37 0 0 1 .973 1.574c.036.075.092.134.158.18.251.435.567.825.939 1.168l.106.217c.081.177.175.297.304.41l.051.37.161.136c.064-.091.227-.117.294.014a4.04 4.04 0 0 0 .244.406c.062.322.144.642.234.959.015.005.029.005.044.015l.036.027c-.027-.15.171-.286.287-.141l1.346 1.549a.62.62 0 0 0 .051-.187c.359.361.91.191 1.078-.191a.57.57 0 0 0 .271-.07c.285.452 1.092.18 1.068-.36-.022-.479-.189-.959-.278-1.43-.081-.429-.139-.86-.155-1.297-.015-.418-.009-.844.079-1.255.091-.426.282-.823.377-1.245a.47.47 0 0 0-.145-.429.49.49 0 0 0-.14-.385l.001.001z"/></g><g style="mix-blend-mode:darken" class="C B"><path d="M104.372 110.688c-.029-.52-.769-.517-.806 0l-.591 7.042-.611 3.464-.767 3.435c-.078.485.54.648.726.201.461-1.102.703-2.304.956-3.466l.636-3.539c.331-2.346.593-4.766.457-7.137z"/></g><g style="mix-blend-mode:darken" class="C B"><path d="M93.585 91.769c-.112.047-.216.111-.325.163l-.053.024-.173.062-.296.082-.163.032c-.003 0-.019.004-.036.007l-.035.003c-.118.012-.236.017-.355.016-.103 0-.229.004-.335-.017l-.115-.02-.163-.03-.15-.022c.095.014-.129-.015-.146-.015a.73.73 0 0 0-.155.023c-.493-.083-.795.605-.33.873l.026.015c.079.099.191.174.327.232a.7.7 0 0 0 .017.008l.116.045a1.59 1.59 0 0 0 .183.047c.252.051.515.084.773.085.468.002.953-.079 1.389-.253.314-.125.683-.255.824-.589.222-.527-.322-.983-.824-.771v-.001z"/></g><g style="mix-blend-mode:darken" class="C B"><path d="M78.989 20.851z"/></g><g style="mix-blend-mode:darken" class="C B"><path d="M78.644 19.979z"/></g><g style="mix-blend-mode:darken" class="C B"><path d="M79.492 21.47c-.003-.014-.004-.029-.009-.043-.048-.148-.135-.24-.257-.335.039.03.085.067.02.013l-.052-.044-.111-.106-.095-.107-.017-.019c-.038-.046-.009-.016.01.009l-.036-.048a2.17 2.17 0 0 1-.153-.265c-.004-.008-.018-.052-.029-.069l-.047-.137c-.003-.011-.004-.022-.007-.033.002-.019.006-.037.005-.056a.48.48 0 0 0-.068-.246c.017.066.003.032-.002-.003l-.005-.026-.005-.134.002-.169.004-.067c.522-1.156.662-2.482.355-3.714-.033-.13-.123-.209-.23-.249l-.313 1.37c-.11.372-.25.765-.458 1.108-.056.199-.127.393-.204.585-.094.037-.176.102-.232.195a2.47 2.47 0 0 0-.271.649 1.66 1.66 0 0 0-.035.177l-.091.141c-.807 1.132-2.131 1.754-2.94 2.891-.844 1.187-.931 2.692-1.043 4.094-.047.587-.118 1.179-.234 1.761-.18.426-.331.882-.361 1.317l-.269.655c-.169.353-.37.681-.596.986-.356.353-.773.606-1.236.87a.42.42 0 0 0-.201.427c-.18.105-.366.203-.565.285-1.268.522-2.66.643-3.977.992-1.339.354-2.562.984-3.494 2.026-.946 1.059-1.548 2.376-1.857 3.755-.379 1.689-.372 3.472-.146 5.182.212 1.603.706 3.23 1.839 4.427.313.33.892-.102.637-.491-.777-1.19-1.174-2.532-1.339-3.936-.177-1.504-.223-3.084.067-4.576.266-1.368.844-2.687 1.827-3.693.954-.976 2.187-1.393 3.491-1.678 1.32-.288 2.67-.483 3.891-1.095 1.153-.578 2.052-1.56 2.629-2.703l.233-.51c.162-.345.294-.691.394-1.013.275-.884.418-1.799.659-2.691l.258-.817a1.95 1.95 0 0 1 .431-.334c.363-.198.77-.219 1.175-.241l.503-.488c.775-.753 1.483-1.564 2.482-2.015.393-.177.766-.497.758-.967-.006-.4-.289-.773-.688-.797h-.001zm-2.801.523a9.2 9.2 0 0 0 .995-.949 1.7 1.7 0 0 0 .172.34c-.419.129-.816.347-1.167.609z"/></g><g style="mix-blend-mode:darken" class="C B"><path d="M59.065 51.127c-.422.043-.834.247-1.237.376-.394.126-.796.225-1.209.259a5.6 5.6 0 0 1-1.236-.022l-.592-.109c-.279-.063-.518-.135-.77.048-.15.109-.236.272-.187.459.087.333.32.443.626.543a4.33 4.33 0 0 0 .696.167c.498.076.999.108 1.502.063.486-.044.975-.129 1.438-.285.483-.162 1.045-.417 1.344-.846.179-.257-.056-.686-.375-.653z"/></g><g style="mix-blend-mode:darken" class="C B"><path d="M65.666 53.904c-.344-.138-.78.029-1.113.14l-1.033.347-.996.341c-.373.129-.747.259-1.059.505-.135.106-.154.337-.091.48.072.163.222.264.402.27.363.012.728-.116 1.071-.224l1.037-.33 1-.325c.37-.122.812-.251 1.026-.602.151-.247-.008-.507-.245-.601z"/></g><g style="mix-blend-mode:darken" class="C B"><path d="M85.19 76.597c.074-.518.017-1.123-.227-1.591a.45.45 0 0 0 .05-.184.59.59 0 0 0-.027-.215.98.98 0 0 0-.063-.146c-.007-.013-.016-.025-.024-.037-.044-.081-.108-.151-.184-.208a.59.59 0 0 0-.105-.08c-.047-.024-.101-.045-.148-.063-.024-.01-.048-.015-.074-.019-.065-.01-.132-.022-.198-.022s-.136.012-.201.023a.42.42 0 0 0-.07.017c-.061.021-.124.045-.18.078a.61.61 0 0 0-.149.119c-.088.1-.16.224-.154.363.004.09.027.18.073.258l.013.022v.001a.42.42 0 0 0 .161.15c.24.277.41.538.428.929.021.465-.129.886-.345 1.291l-.824 1.53c-.251.59-.335 1.198-.316 1.837.017.59.124 1.216-.014 1.798-.109.461-.398.835-.684 1.201-.317.405-.727.933-.881 1.476-.394-1.374-1.118-2.666-1.262-4.112-.126-1.272.154-2.855 1.248-3.66.245-.18.435-.552.221-.841-1.095-1.478-2.536-3.424-2.203-5.371.094.108.231.178.367.244l.435.212a6.28 6.28 0 0 1 .811.492l.093.068.018.013.182.144.349.306.348.339.081.082.097.075c-.032-.021-.035-.021-.008-.002l.142.111c-.058-.048.075.063.103.075.133.056.262.077.394 0a.39.39 0 0 0 .193-.337c-.007-.143-.041-.207-.083-.31a1.47 1.47 0 0 0-.148-.29 4.79 4.79 0 0 0-.378-.485c-.204-.226-.433-.422-.673-.607.193-.028.382-.227.341-.453-.272-1.485-.983-2.858-1.759-4.142l-.139-.218a.36.36 0 0 0-.045-.125c-.025-.043-.054-.083-.088-.12l-.044-.032c-.715-1.118-1.513-2.182-2.347-3.214-.973-1.205-1.944-2.492-3.137-3.489-.577-.481-1.348-1.005-2.162-1.298a.43.43 0 0 0-.165-.239c-.358-.248-.88-.245-1.302-.237-.458.009-.897.113-1.338.224l-1.318.353c-.412.111-1.023.182-1.212.61-.073-.388-.51-.499-.782-.328a.32.32 0 0 0-.184-.092c-.097-.013-.191.021-.263.082-.018.004-.036.013-.054.019-.002-.004.008-.009.018-.013-.016.007-.033.008-.05.013h-.063a1.06 1.06 0 0 1-.117-.039c-.1-.045-.2-.09-.308-.109-.241-.043-.554-.035-.684.217-.09.174-.064.363.065.507.048.053.131.105.199.12.013.003.027.003.04.005a.89.89 0 0 1 .189.055l-.107-.045.322.131a.97.97 0 0 0 .212.065c.2.032.4.017.582-.071.113 1.174.806 2.175 1.769 2.869 1.008.726 2.237 1.015 3.459 1.152-.035.857.336 1.707.92 2.345.701.765 1.682 1.179 2.646 1.527.278 1.361 1.13 2.573 2.295 3.326-.098 1.99.592 4.019 1.876 5.544-.342.385-.578.937-.711 1.344-.325.993-.357 2.056-.211 3.084.144 1.016.479 1.994.943 2.908l.739 1.411c.231.527.298 1.067.322 1.637.011.265.201.455.424.536.032.314.101.61.374.814.115.086.321.077.437 0 .415-.275.38-.774.338-1.225l-.053-.375c.002-.007.003-.014.005-.021.242.3.679.1.781-.197.075-.218.068-.45.157-.668.085-.208.219-.406.348-.588l.87-1.184c.334-.556.463-1.175.463-1.819 0-.652-.14-1.322-.031-1.97.197-1.18 1.185-2.055 1.356-3.256v-.001zm-12.882-14.19c-.108-.053-.237-.062-.353-.027-.099-.066-.215-.109-.337-.117-1.158-.073-2.37-.242-3.374-.865-.726-.45-1.35-1.203-1.526-2.056.007.009.013.019.021.027.349.341.928.105 1.34.008l1.29-.31.968-.222c.595.123 1.185.206 1.747.475.668.319 1.256.769 1.792 1.274.522.492 1.011 1.022 1.482 1.568l-.124-.029c-.335-.07-.678-.113-1.019-.147-.594-.059-1.276-.061-1.782.3a.63.63 0 0 0-.126.121h.001zm3.638 3.22c-.118-.016-.239.007-.345.058-.687-.234-1.257-.617-1.774-1.093-.101-.148-.195-.328-.325-.444a.66.66 0 0 0-.245-.137l-.185-.21c-.078-.092-.184-.122-.29-.117-.072-.158-.135-.319-.178-.484.111.016.227.003.334-.05a2.06 2.06 0 0 1 .549-.147 4.47 4.47 0 0 1 .79.038l.134.016.128.017.085.012.464.072c.227.03.682.147.954.049a.46.46 0 0 0 .128-.073l.563.694 1.435 1.897a3.77 3.77 0 0 0-.738.02c-.151.019-.3.04-.447.082-.081.023-.168.05-.242.09-.047.024-.091.055-.13.092.031-.026.025-.024-.018.006a.4.4 0 0 0-.137.149c-.048-.275-.21-.496-.51-.536h-.001zm.544 1.161l-.006-.19c.067.093.173.16.311.165l.043.002c.045.007.091.014.136.015.06-.001.122-.011.181-.016l.32-.028c.223-.014.446-.016.669.002l.123.012c.003.002.115.017.131.02l.317.063.231.057.248.392c.722 1.196 1.278 2.47 1.843 3.743-.251-.166-.512-.313-.789-.434a3.28 3.28 0 0 0-.567-.196c-.131-.031-.279-.056-.411-.017.003-.007.005-.014.008-.021.168-.384.037-.758-.369-.906-1.165-.424-2.108-1.459-2.42-2.664h.001z"/></g><g style="mix-blend-mode:darken" class="C B"><path d="M82.802 68.352c.003-.041.002-.082-.002-.123l.002-.04a.43.43 0 0 0-.126-.304c-.071-.065-.151-.105-.247-.119s-.194-.001-.275.051a.47.47 0 0 0-.169.203.49.49 0 0 0-.053.094c-.015.036-.027.07-.038.106a1.63 1.63 0 0 0-.052.186c-.024.107-.038.215-.051.324l-.021.206c-.004.069.001.137.009.205.004.058.007.124.021.178.025.094.072.159.134.232.068.079.212.135.314.13.116-.005.233-.043.315-.13a.52.52 0 0 0 .132-.223c.016-.056.019-.116.027-.175l-.017.125.023-.145.048-.424.016-.185.008-.092a.53.53 0 0 0 0-.099l.002.017h0z"/></g><g style="mix-blend-mode:darken" class="C B"><path d="M82.738 69.072l-.01.063-.007.066.017-.129z"/></g><g style="mix-blend-mode:darken" class="C B"><path d="M79.47 63.797c.042-.073.063-.151.064-.235a.46.46 0 0 0-.064-.235c-.044-.061-.084-.12-.153-.159l-.125-.055c-.062-.019-.124-.022-.186-.008-.042 0-.081.011-.118.032-.058.019-.108.051-.15.096-.03.032-.056.066-.082.101l-.077.107a.23.23 0 0 0-.017.035l-.06.145c-.009.023-.016.047-.022.072-.015.062-.027.138-.03.196-.002.045.005.09.011.135 0 .044.011.085.033.122.008.022.017.043.027.064l.075.097.098.075c.02.01.04.018.06.026a.24.24 0 0 0 .12.032.36.36 0 0 0 .189-.008l.113-.048c.072-.038.095-.07.138-.125s.07-.088.089-.171c.009-.039.011-.08.015-.12a.82.82 0 0 1 .038-.144l.013-.026h0z"/></g><g style="mix-blend-mode:darken" class="C B"><path d="M75.044 58.47l.003-.076c.003-.035 0-.049-.006-.091.007-.108-.001-.207-.048-.28l-.064-.083a.31.31 0 0 0-.133-.085c-.082-.035-.181-.049-.268-.021l-.099.041c-.052.031-.094.074-.128.123-.055.043-.102.096-.135.158l-.034.068.003-.004a.46.46 0 0 0-.068.142l-.013.047c-.016.067-.022.137-.029.206l-.006.084c0 .016.002.032.004.048.01.102.018.149.052.225.027.068.063.131.113.183.024.029.05.055.079.078.049.038.098.063.158.083a.34.34 0 0 0 .176.009c.039 0 .075-.01.109-.029a.14.14 0 0 0 .053-.023.36.36 0 0 0 .096-.075.53.53 0 0 0 .083-.124c.026-.038.048-.078.059-.125.004-.015.006-.031.009-.046l.009-.048c.017-.076.016-.159.02-.235l.006-.078c.004-.06-.004-.119-.017-.178l.016.107z"/></g><g style="mix-blend-mode:darken" class="C B"><path d="M70.635 54.652a.43.43 0 0 0-.018-.07l-.101-.242-.06-.128a.7.7 0 0 0-.131-.19.38.38 0 0 0-.163-.105c-.06-.032-.125-.046-.195-.044a.38.38 0 0 0-.195.044.38.38 0 0 0-.163.105.51.51 0 0 0-.148.358l.018.134a.5.5 0 0 0 .062.134c.021.03.033.065.047.098l.051.12a1.06 1.06 0 0 0 .057.116c.028.049.078.114.109.147.018.019.04.032.06.047a.51.51 0 0 0 .112.089.46.46 0 0 0 .234.065c.087 0 .102-.009.166-.036a.39.39 0 0 0 .137-.089c.048-.049.103-.133.116-.201.009-.047.018-.095.018-.143a.59.59 0 0 0-.013-.209h.001z"/></g><g style="mix-blend-mode:darken" class="C B"><path d="M77.089 51.234c-.009-.008-.015-.012-.021-.017-.015-.015-.028-.03-.047-.045a.46.46 0 0 0-.192-.084c-.019-.007-.036-.019-.055-.024-.2-.052-.408.05-.488.239a.41.41 0 0 0-.009.294v.032c0 .042-.004.083-.008.125l-.017.194-.045.211c-.046.156-.096.328-.038.488.053.146.136.253.282.315.058.03.12.044.187.042a.48.48 0 0 0 .245-.067c.105-.047.2-.162.248-.263.037-.076.069-.153.091-.234.037-.136.056-.275.071-.414.029-.259-.007-.603-.204-.791h0z"/></g><g style="mix-blend-mode:darken" class="C B"><path d="M80.481 55.835l.011-.082.007-.055-.018.137z"/></g><g style="mix-blend-mode:darken" class="C B"><path d="M81.527 54.834a.46.46 0 0 0-.119-.203c-.014-.015-.022-.024-.029-.034-.039-.042-.086-.072-.139-.09-.086-.036-.191-.051-.282-.022-.072.023-.136.061-.191.111a.37.37 0 0 0-.102.178c-.024.059-.041.122-.043.183a2.52 2.52 0 0 1-.022.254l.018-.134-.029.237-.018.134.019-.138a1.8 1.8 0 0 1-.04.206l-.028.096a.89.89 0 0 0-.031.144l-.015.116.018.135.051.121a.5.5 0 0 0 .243.208c.087.036.17.047.263.035.1-.013.227-.056.291-.14.037-.048.079-.094.11-.147.028-.048.049-.106.066-.158l.035-.123c.029-.119.045-.241.059-.363a1.39 1.39 0 0 0-.086-.605h0z"/></g><g style="mix-blend-mode:darken" class="C B"><path d="M85.78 59.643c-.014-.08-.045-.154-.08-.227-.042-.086-.092-.167-.169-.222-.047-.045-.102-.082-.168-.097-.094-.021-.185-.016-.275.021-.081.034-.159.093-.201.172a.44.44 0 0 0-.043.135l-.006.037c-.007.03-.015.059-.014.091 0 .009.003.019.004.028.005.045.005.093.002.141-.012.069-.03.137-.055.202a1 1 0 0 1-.067.112c-.022.027-.043.054-.058.084a1.05 1.05 0 0 0-.06.141l-.018.137.004.03a.48.48 0 0 0 .016.134c.015.062.043.116.085.161.086.111.226.197.372.187-.002-.002-.014-.004-.026-.006a.26.26 0 0 0 .133 0 .47.47 0 0 0 .203-.068.58.58 0 0 0 .144-.119c.053-.066.108-.133.149-.208.064-.114.114-.238.134-.368.013-.084.029-.171.025-.257s-.016-.164-.03-.244h-.001z"/></g><g style="mix-blend-mode:darken" class="C B"><path d="M87.779 64.753l.053-.126-.053.126h0z"/></g><g style="mix-blend-mode:darken" class="C B"><path d="M90.323 68.388c-.071-.025-.109-.094-.107-.165l-.028.037a.17.17 0 0 1-.232.043c-.078-.054-.089-.155-.043-.232a5.94 5.94 0 0 0 .252-.475l-1.869-2.154c.039-.001.077-.006.116-.018a.57.57 0 0 0 .313-.241c.025-.038.042-.081.061-.123l.09-.235.036-.125c.021-.081.027-.167.036-.251l-.017.128.026-.2v-.04c0-.018-.002-.033-.004-.049l.004-.064-.015-.114a.32.32 0 0 0-.077-.145c-.054-.07-.132-.133-.222-.153a.51.51 0 0 0-.227 0c-.056.013-.104.039-.145.077-.046.03-.083.07-.11.119l-.038.079c-.011.016-.025.029-.035.046l-.037.072-.076.142-.076.145c-.045.081-.081.165-.117.25l-.015.035c-.006.018-.006.036-.01.054l-.745-.854-3.158-4.012c-.957-1.32-1.961-2.57-3.22-3.616-1.199-.996-2.516-1.834-3.834-2.661l-2.103-1.328c-.522-.374-.983-.846-1.246-1.426-.11-.132-.211-.273-.301-.422l-.201-.321c-.223.004-.462.197-.417.489.216 1.415 1.488 2.405 2.581 3.187l2.198 1.481c.046-.025.105-.027.166.012l.186.127c.067.041.12.082.176.12l.051.036c.536.24.993.587 1.421.975.055-.049.135-.067.199-.012.489.419 1.031.816 1.411 1.343.049.069.05.16-.01.222l.108.102c.052.029.103.062.158.086.082.034.109.108.1.178.447.468.871.959 1.27 1.481l3.157 4.047 4.013 4.425c.256.253.567.132.7-.1-.03.009-.064.01-.099-.003l.001.001z"/></g><g style="mix-blend-mode:darken" class="C B"><path d="M64.367 72.438c.15-1.249.068-2.519-.33-3.771-.149-.466-.734-.401-.884-.046-.253.011-.484.205-.368.51.684 1.791.325 3.805-.517 5.481-.593 1.181-1.4 2.198-2.307 3.131-.204.135-.397.293-.582.433l-1.263 1.014-2.405 2.058c-.515.406-1.603 1.073-2.174.367-.194-.239-.225-.543-.175-.865.993-1.946 1.782-3.987 2.422-6.074.16-.522-.607-.704-.8-.22l-1.73 3.797c-.146.056-.271.17-.336.356l-.447 1.15-.365.68c-1.071 1.941-2.245 3.82-3.565 5.603l-2.613 3.197c-.763.475-1.496 1.153-1.847 1.955-1.52 1.511-3.143 2.918-4.856 4.198-2.015 1.506-4.119 2.893-6.335 4.084-.44.236-.053.863.386.66 4.148-1.915 7.9-4.5 11.207-7.652a46.08 46.08 0 0 0 2.3-2.355c.076-.043.152-.088.229-.127.343-.177.862-.42 1.248-.242.361.167.354.65.333.987-.071 1.106-.509 2.206-.723 3.291-.092.466-.171.947-.212 1.429-.219 1.324-.329 2.663-.397 4.012-.105 2.078-.235 4.139-.922 6.119a14.49 14.49 0 0 1-2.538 4.474c-.526.633-1.103 1.22-1.722 1.759l-.109.048c-.504.236-.963.554-1.442.836-.471.277-1.05.546-1.607.555-.238-.067-.479-.128-.72-.169a1.4 1.4 0 0 1-.18-.113c-.09-.068-.2-.09-.309-.081a4.16 4.16 0 0 0-.74-.247c-.91-.204-1.932-.035-2.565.704-.563.658-.718 1.527-.568 2.365a2.86 2.86 0 0 0 .057.247c-.048.313-.072.63-.098.946-.528 2.061-.912 4.152-1.151 6.266-.049.428.363.628.716.561-.207 1.076-.299 2.177-.454 3.262l-.237 1.564-.526 2.219c-.469 2.054-.891 4.121-1.277 6.192-.043.133-.084.268-.122.405l-.097.11a5 5 0 0 1-.298.297 4.92 4.92 0 0 1-.166.144c-.025.021-.05.047-.078.064-.252.183-.507.33-.775.452-.258.117-.334.475-.234.714.104.247.404.424.675.33a4.14 4.14 0 0 0 .826-.396c.09.209.289.35.562.375.329.029.593-.109.798-.322l.032.08c.139.331.689.377.91.117.795-.94.957-2.272 1.223-3.435l.873-3.815.873-3.816.61-2.613.08-.193c.099-.248.195-.498.283-.749.094-.267.226-.583.21-.87-.011-.185-.106-.345-.282-.419a.49.49 0 0 0-.289-.022c.237-.098.495-.181.708-.323.57-.379.526-1.085.623-1.689a17.05 17.05 0 0 1 .964-3.505c.15-.382-.27-.805-.649-.765a.43.43 0 0 0 .02-.307c.022-.002.044-.005.066-.008l.181.037c.356.358.987.374 1.445.297.465-.078.914-.281 1.326-.505a6.11 6.11 0 0 0 1.149-.827c.266-.24.525-.509.684-.827 1.15-1.186 2.029-2.694 2.802-4.127.898-1.662 1.642-3.416 2.216-5.215l.182-.599c.011-.034.024-.067.035-.101a16.7 16.7 0 0 0 .424-1.634c.265-1.101.495-2.21.742-3.315.3-1.346.634-2.693 1.103-3.991a.47.47 0 0 0 .145-.087c.866-.745 1.524-1.771 2.153-2.755l.788 3.007c.028.109.08.191.143.254l.084 1.569c.005.1.032.185.071.257.033.579.056 1.159.07 1.739a.43.43 0 0 0-.237.079c-.001-.018 0-.036-.001-.054-.005-.113-.042-.211-.098-.295a39.08 39.08 0 0 0 .073-1.909c.01-.777-1.185-.775-1.205 0-.016.609-.067 1.212-.148 1.81-.014.023-.028.045-.039.072-.02.048-.038.097-.058.145-.351.847-.647 1.691-.894 2.55a.49.49 0 0 0-.373.288c-.234.5-.448 1.008-.65 1.519-1.407 2.749-1.926 5.999-1.9 9.059.004.5.025.998.052 1.497.032 1.124.132 2.249.307 3.368.072.46.642.537.974.322a.86.86 0 0 0 .1.188c.04.055.081.112.129.162.068.07.155.114.246.135.007.002.013.005.02.007.035.012.052.022.116.017.043-.002.086-.01.129-.016l.093-.04c.046-.024.082-.058.11-.1.054-.07.081-.148.084-.238.001-.029-.003-.057-.008-.085a.47.47 0 0 0-.015-.096.65.65 0 0 0-.133-.228l.071.092c-.037-.048-.063-.103-.091-.157.068-.031.131-.073.172-.134.288-.435.383-.977.508-1.476l.366-1.493.767-3.06 1.332-5.09c.002.081-.001.161.003.242a.42.42 0 0 0 .057.187l-.273 1.189a30.85 30.85 0 0 1-.418 1.508c-.159.52-.368 1.035-.451 1.575-.061.394.418.629.656.276.504-.748.76-1.713 1.033-2.565a26.73 26.73 0 0 0 .681-2.571 29.64 29.64 0 0 0 .636-5.427 49.23 49.23 0 0 0-.033-2.805.69.69 0 0 0 .01-.108c.074-.328.186-.906.504-1.047.803-.356 1.378 1.537 1.535 2.002.686 2.034.761 4.192.831 6.318.026.791 1.15.772 1.216 0 .006-.072.008-.143.014-.214-.069-.015-.129-.071-.129-.169a27.84 27.84 0 0 1 .02-.945.14.14 0 0 1-.019-.062l-.114-1.563c-.154-1.188-.419-2.364-.517-3.555l-.07-.355c-.211-.759-.393-1.524-.455-2.308l-.203-1.09c-.087-.127-.178-.254-.272-.379l-.24-.317-.256-1.59c-.144-1.089-.133-2.19.057-3.274.157-.894.409-1.768.709-2.624.354-.554.728-1.095 1.1-1.628.106-.152.073-.317-.021-.443l.241-.386c.373-.586.765-1.158 1.169-1.724.398-.557.892-1.111 1.112-1.769.093-.278-.241-.547-.494-.415.937-1.389 1.762-2.857 2.374-4.419a14.33 14.33 0 0 0 .696-2.339l.026-.49c-.059-.372-.088-.748-.103-1.124l-.002-.001zm-26.219 43.097c.108-.041.212-.089.318-.133.076.035.153.066.23.099a3.97 3.97 0 0 1-.548.034zm4.739-2.842l-1.031.94-.025.024-.214.045c.011-.022.012-.036.017-.049.453-.323.893-.666 1.31-1.036-.018.026-.038.05-.057.076h0zm10.856-20.371a.58.58 0 0 0-.046-.039c-.049-.086-.112-.149-.185-.188l.362-.533c-.06.247-.103.501-.131.759h0zm.218 9.805c-.085-.038-.179-.053-.27-.043l.03-.554c.081-.081.166-.159.25-.239l.002.222-.012.614z"/></g><g style="mix-blend-mode:darken" class="C B"><path d="M79.836 15.321l-.413-1.462-.055-.1a4.68 4.68 0 0 1-.423-.53l-.763-.801a.36.36 0 0 0-.024.274l.87 2.786.284 1.407c.091.479.128.992.285 1.454a.39.39 0 0 0 .758-.102c.032-.486-.09-1.003-.179-1.48l-.341-1.446h0z"/></g><path opacity=".22" d="M80.065 31.876c3.265-.577 5.63-2.642 5.282-4.612s-3.277-3.101-6.542-2.524-5.63 2.642-5.282 4.612 3.277 3.101 6.543 2.524z" fill="url(#A)"/><defs><radialGradient id="A" cx="0" cy="0" r="1" gradientUnits="userSpaceOnUse" gradientTransform="translate(79.4814 28.3315) rotate(-10.015) scale(6.0024 3.62409)"><stop offset=".001" stop-color="#6a3636"/><stop offset=".185" stop-color="#6a3736" stop-opacity=".96"/><stop offset=".376" stop-color="#6d3d39" stop-opacity=".842"/><stop offset=".57" stop-color="#72453d" stop-opacity=".646"/><stop offset=".767" stop-color="#785243" stop-opacity=".371"/><stop offset=".964" stop-color="#80624a" stop-opacity=".02"/><stop offset=".974" stop-color="#81634b" stop-opacity="0"/></radialGradient></defs></svg>