<svg xmlns="http://www.w3.org/2000/svg" width="198" height="172" fill="none" xmlns:v="https://vecta.io/nano"><style><![CDATA[.B{fill:#070d1c}.C{opacity:.33}.D{fill:#82644c}.E{fill:#482814}]]></style><g clip-path="url(#D)"><mask id="A" maskUnits="userSpaceOnUse" x="0" y="0" width="198" height="172"><path d="M0 0H198V172H0V0Z" fill="#fff"/></mask><g mask="url(#A)"><path d="M128.694 44.266l-.795 5.34c-.147.937-.395 2.702-.293 4.228s1.312 7.979 1.312 7.979l15.384.191c0 .063-2.543-9.886-2.48-9.791s-13.128-7.947-13.128-7.947z" class="D"/><path d="M147.52 87.193s-9.054 5.838-31.432 3.367 16.323 46.001 16.191 46.066 15.836-17.341 15.322-17.523-.082-31.911-.082-31.911l.001.001z" fill="#a9a9a9"/><path d="M145.477 86.624l1.077-10.659 10.649-9.741s1.999 1.373 2.362 2.831 1.18 3.43-.175 6.555-3.698 7.095-4.974 8.584-3.272 5.325-3.951 6.843-1.83 4.722-1.83 4.722l-3.158-9.135z" fill="#a9a9a9"/><path d="M155.793 159.887h40.163l-2.642-10.579c-.053-.292-1.041-10.881-1.041-10.881l1.106-10.402 2.327-7.411c.042-.168 1.062-5.958 1.062-5.958l.204-8.646-1.263-9.44-3.38-5.531c-.119-.13-6.419-6.657-8.139-7.929s-11.075-7.046-11.075-7.046l-6.15-3.784-4.769-2.102c-.147-.141-9.941-2.891-4.751 9.336 2.186 5.15-2.789 2.994-5.288 9.262s.235 11.504.653 16.041.962 5.515.962 5.515l-5.435 3.446s-6.946 5.165-9.661 8.485-5.762 7.867-5.762 7.867l-3.4-4.944s-1.449-1.957-1.36-3.606.677-4.728.606-6.199-.507-4.646-1.239-6.175-1.344-3.16-2.552-4.081-2.46-1.345-2.46-1.345l-1.008.768s-6.543 2.229-10.363 1.577-7.948-1.577-7.948-1.577l-3.709-1.805 5.74-30.664s-10.742 2.478-15.152 5.76-6.264 5.017-6.264 5.017-1.871 1.03-3.174 2.627-4.713 6.081-4.713 6.081-1.409 2.913-1.9 5.515c0 0 .129.393-1.652 1.605s-6.515 4.785-8.693 7.083-6.315 6.884-8.326 10.366-3.792 7.588-4.051 8.415-.556 1.668-1.686 2.42-8.138 5.02-9.5 5.755-2.852 1.856-2.852 1.856-1.043 1.388-1.043 2.14c0 0 3.464.018 5.539 1.622s5.014 3.902 5.469 7.456 2.066 3.431 1.535 6.387-1.455 4.128-1.455 4.128l6.763-2.124 11.045-3.589s1.829-.37 2.497-1.107 3.175-1.334 2.996-1.274 5.194-1.851 6.805-3.283 5.079-4.337 5.972-5.541l4.239-5.814s.174 6.495 1.251 7.83 2.366 4.662 5.153 5.586 4.28 2.388 5.593 2.282-.008 1.431-.233 2.642-.641 4.251-.377 5.193.577 2.774.577 2.774l5.288-.027 2.377 6.721c.086.167 1.856 3.014 1.856 3.014s.539 2.19 5.974 1.998 16.188.163 16.188.163l5.953.395s4.621-1.782 6.146-2.535 7.134-5.116 7.134-5.116l4-4.613h1.293z" fill="#94153d"/><path d="M27.734 142.307l7.468-5.377s3.249-.74 5.734 1.006 5.514 4.264 6.131 7.041 1.785 6.387 1.785 6.387l-.533 4.068-1.019.877-6.59 3.476s-2.324 1.406-1.022-.655l2.063-3.522c-.034.117-.825-5.004-.825-5.004l-2.303-4.249-2.41-2.814-2.998-1.912-2.496-.222-2.985.9zm75.872-46.851l-.495 5.556v4.111s3.97.816 6.13.928 8.465-.278 9.622-.665l4.115-1.42s.583-.18.339-1.998-1.617-7.524-1.617-7.524-10.18-1.439-16.186.217l-1.907.796-.001-.001zm49.205 15.482l-1.897 1.196c-.453.191-4.502 3.014-4.502 3.014l-2.167-6.641c-.28-.828-.819-4.231-1.051-5.469s.542-4.982.583-6.523 2.062-6.661 3.594-8.959 4.933-6.964 6.85-10.217 1.62-6.299 1.62-6.299-.215-2.212-.453-2.684-.816-.671-.732-1.184.421-.721 2.324.376 3.79 2.22 4.165 2.217 1.992 1.076 2.014 1.192c.125.65 1.406 3.494.683 6.166s-1.536 5.72-2.759 7.193-2.351 3.001-3.4 4.774-2.603 4.718-2.803 6.366-.541 3.113-.461 4.162-.05 1.627 0 2.051.724 7.413.948 7.838-2.556 1.431-2.556 1.431z" fill="#7b1c3e"/><path d="M105.511 94.66s-.875-2.341-.729-3.57.042-11.788.437-11.931 3.025-2.743 5.336-4.127 6.343-3.41 7.718-3.911 3.434-1.151 3.434-1.151-.254-1.574.486-2.836 1.896-2.845 3.275-3.645 3.259-2.26 4.647-1.912 2.001.962 2.001.962.162-.728 1.501-1.347 3.426-1.238 4.054-.707.417 1.318.417 1.318.723-.698 2.106-.723 3.244.39 3.244.39l-.297 2.817s1.651-.659 2.349-.237 1.229.986 1.013 1.969-1.1 4.717-1.499 5.449-3.121 5.01-4.699 6.218-4.351 2.856-6.468 3.668-6.84 2.317-7.676 2.709-2.697 1.051-3.655 2.051-1.693 1.614-2.064 2.976-.464 5.127-.464 5.127-11.578-.703-14.466.444l-.001-.001zm-74.197 46.58c-.141.133 3.63.316 5.294 2.767s3.877 4.102 4.735 7.569.231 6.077-.561 6.737l-1.783 1.475c-.231.098-8.7 2.19-8.7 2.19s-1.235.391-1.244.496 1.206-13.371 1.196-13.352.045-.606.045-.606.348-.043.547-1.86.471-5.416.471-5.416z" class="D"/><path d="M94.136 130.667s.382-2.286-.349-4.089-1.974-5.287-1.758-7.069 1.335-3.672 1.572-3.911c0 0 .084-3.193 1.511-4.178 0 0-.989-3.262-.875-4.918s.692-4.355 1.821-5.274c0 0-.329-2.944.157-4.565s1.07-4.45 1.953-4.777c0 0 .381-3.945.834-5.053s.837-3.306 1.982-4.232l.849-1.824c.215-.56.614-3.773 1.589-5.164l3.244-4.739s7.564-.463 9.332 1.2l-8.847 5.4c-.728.556-1.931 1.687-1.931 1.687v3.244c-.093.892-.7 8.424-.437 9.316l.729 2.942-1.814.217-.588 5.137v5.108s-1.427 1.193-1.883 1.844-1.532 2.246-1.612 3.939.44 5.34.667 6.251l1.172 3.939s-.759 1.924-1.6 2.915-2.664 2.559-3.348 3.176-2.138 2.303-2.372 3.478h.002z" class="E"/><path d="M138.916 89.724c-.163.078-2.516 1.237-5.07 1.407s-14.807.414-16.423-.18-.153-5.979 4.277-8.447 22.763-10.626 22.728-10.429-5.512 17.649-5.512 17.649z" class="D"/><path d="M136.896 70.862c.26-.185.287-.521.385-.815l.409-1.275.745-2.469c.384-1.58.589-3.208.248-4.817-.153-.72-.36-1.522-1.164-1.726-.641-.163-1.398-.071-2.035.05a6.35 6.35 0 0 0-2.031.78c-.597.354-1.283.82-1.554 1.479-.065.157.01.387.131.497.032.029.069.054.103.08.15.11.363.077.516 0 .511-.256.9-.74 1.404-1.03a5.53 5.53 0 0 1 1.62-.61 5 5 0 0 1 .912-.106c.166-.004.556-.066.688.035.158.12.229.675.273.864a7.01 7.01 0 0 1 .156.998c.11 1.382-.101 2.748-.314 4.11l-.381 2.111-.172.969c-.051.296-.177.573-.041.848.017.033.07.048.1.026l.002.001z" class="B"/><path d="M139.67 73.52c.831-.888 1.454-2.004 1.995-3.088.568-1.138 1.024-2.35 1.384-3.569a25.03 25.03 0 0 0 .796-3.702c.073-.527.289-1.276.039-1.781-.269-.542-.904-.677-1.447-.785-1.171-.232-2.573-.266-3.663.296-.353.182-.965.729-.63 1.177.284.379.847-.011 1.153-.156.528-.249 1.126-.301 1.704-.304.595-.004 1.362.022 1.906.292.092.046-.01-.032-.017-.057a.45.45 0 0 1 0 .137c-.025.166-.023.343-.038.511l-.104.979-.326 1.882a25.9 25.9 0 0 1-1.227 4.06l-1.765 3.967c-.056.136.147.24.241.14l-.001-.001v.002z" class="B"/><path d="M143.121 64.331c.284.199.649.18.984.195l1.1.031c.288.022.508.082.604.38.073.223.061.469.055.7-.037 1.285-.278 2.542-.64 3.772-.358 1.215-.788 2.412-1.432 3.508s-1.498 2.049-2.236 3.077c-.076.107.073.247.179.179.618-.399 1.118-.855 1.581-1.424s.87-1.164 1.269-1.773c.811-1.239 1.47-2.595 1.855-4.028a16.06 16.06 0 0 0 .42-2.196c.082-.675.194-1.437.002-2.104-.207-.721-.786-1.118-1.52-1.154-.411-.02-.828.036-1.236.075-.385.036-.732.042-1.045.284-.169.13-.079.38.062.478h-.002zm-2.388 12.475c-.828.549-1.542 1.262-2.38 1.809-.824.537-1.701.976-2.601 1.368l-5.669 2.142c-3.646 1.262-8.135 2.281-9.933 6.096a8.53 8.53 0 0 0-.793 2.988c-.071.92-.116 2.382.646 3.033.225.192.601.136.682-.18.112-.441.021-.811-.044-1.254s-.087-.897-.068-1.347a6.98 6.98 0 0 1 .58-2.508c.797-1.815 2.273-2.971 4.045-3.773 3.539-1.603 7.426-2.398 10.844-4.29.917-.507 1.805-1.07 2.659-1.676.828-.587 1.772-1.246 2.344-2.095.126-.188-.125-.437-.313-.313h.001zm-8.65-3.458c-.077.097-.125.191-.182.3a2.14 2.14 0 0 0-.089.203c-.018.047.031-.067-.002.002l-.039.082c-.092.187-.199.365-.321.534-.018.024-.043.084.003-.004-.011.022-.032.04-.048.059l-.1.114-.224.228-.115.1c-.005.004-.084.061-.027.022s-.018.012-.029.02c-.151.111-.303.24-.345.433l.089-.153c-.027.033-.057.065-.078.102-.006.012-.061.138-.026.059-.067.159-.027.364.167.412.042.01.085.017.128.022.031.002.036.001.015 0-.047-.005-.017-.001.092.013.118-.001.212-.043.319-.088.125-.054.236-.152.341-.237a2.93 2.93 0 0 0 .538-.586 2.72 2.72 0 0 0 .356-.69c.089-.252.161-.554.072-.816-.064-.187-.346-.32-.495-.131zm3.202 2.352c-.128.108-.222.242-.334.365l-.355.361c-.235.22-.494.413-.771.577l-.934.511a3.4 3.4 0 0 0-.441.253c-.178.122-.418.249-.452.486-.022.155.018.28.15.37.209.141.466.056.686-.008.203-.059.4-.143.588-.242a6.65 6.65 0 0 0 .962-.602c.326-.251.612-.517.861-.845.224-.295.449-.68.439-1.061-.005-.214-.247-.293-.399-.165z" class="B"/><path d="M121.49 86.765c-.043-.283-.532-.352-.754-.397a6.94 6.94 0 0 0-.895-.125c-.284-.02-.569-.041-.853-.006-.212.026-.723.125-.649.437.037.156.204.21.337.259.123.045.244.077.374.095.298.044.605.051.906.065l.85.018c.224 0 .739-.004.686-.347l-.002.001zm-.494.479c-.181.026-.366.021-.545.065s-.353.121-.521.195l-.947.441c-.629.321-1.264.628-1.822 1.063-.101.079.012.215.113.196.692-.132 1.342-.415 1.994-.676l.967-.428.45-.233c.154-.095.285-.216.449-.294.199-.096.046-.356-.138-.329zm-17.393 7.186c-.345.171-.455.654-.54 1.005-.11.461-.165.934-.227 1.404-.125.949-.222 1.91-.23 2.868-.008.936.111 1.862.171 2.793l.145 1.439c.041.416.05.848.22 1.234.036.083.162.053.184-.024.11-.391.066-.809.069-1.211l.062-1.438c.037-.936.193-1.862.283-2.793l.245-2.7.149-1.427c.023-.367.065-.829-.209-1.108-.088-.089-.216-.095-.322-.042z" class="B"/><path d="M104.415 95.281c1.544-.122 3.079-.441 4.622-.602l4.504-.261 4.509.158 2.343.252c.601.081 1.485.342 1.995-.091.092-.078.101-.234.044-.333-.336-.58-1.317-.601-1.906-.681l-2.309-.26-4.675-.18c-1.56.017-3.119.112-4.671.287-1.515.171-3.123.351-4.573.844-.442.151-.406.908.117.867z" class="B"/><path d="M121.454 94.422c-.196.331-.101.67-.003 1.021l.325 1.182.51 2.231.389 2.248.156 1.167c.052.39.212.694.373 1.046.052.114.202.061.239-.031.159-.404.278-.74.276-1.178l-.035-1.14c-.041-.813-.14-1.618-.288-2.417l-.555-2.388c-.187-.632-.322-1.628-.995-1.899-.141-.056-.32.038-.392.16v-.002zm-16.683 11.135c.7.301 1.459.355 2.195.525l2.275.428c1.536.156 3.099.218 4.64.114s3.086-.308 4.593-.646l2.278-.618 1.032-.403c.352-.136.739-.265 1.015-.528.234-.225.046-.599-.254-.613-.367-.018-.744.131-1.093.237l-1.069.266-2.216.545c-1.442.304-2.894.524-4.364.627s-2.933.147-4.405.066l-2.19-.103c-.781-.052-1.538-.297-2.32-.329-.217-.009-.332.339-.117.432z" class="B"/><path d="M120.458 104.288c1.452-.551 2.823-.254 3.942.819 1.041.998 1.769 2.331 2.368 3.627 1.233 2.669 1.698 5.734 1.306 8.649-.213 1.582-.645 3.16-.435 4.767.207 1.584 1.095 2.843 1.995 4.115l5.41 7.871c.876 1.538 1.662 3.159 2.176 4.855.518 1.719.791 3.502.81 5.297.001.114.162.109.174 0 .339-3.196-.643-6.415-2.016-9.275-1.444-3.009-3.358-5.748-5.203-8.518-.879-1.321-1.945-2.732-2.209-4.336-.279-1.686.281-3.408.453-5.078.316-3.077-.288-6.219-1.663-8.985-.726-1.461-1.711-2.962-3.097-3.87-1.158-.759-3.006-1.156-4.142-.166-.1.087.005.275.132.227l-.001.001zm-6.916 67.484c.224.002.46.083.688.098l.688.028 1.204.038 2.58.009 4.99.012c3.375.049 6.776.386 10.147.154.139-.01.179-.211.034-.251-3.287-.9-6.794-.964-10.181-1.013-1.718-.025-3.445-.001-5.162.087a35.38 35.38 0 0 0-2.58.221 34.57 34.57 0 0 0-1.112.157c-.222.036-.449.065-.669.113-.214.046-.434.153-.65.186-.092.014-.067.16.022.16l.001.001z" class="B"/><path d="M132.893 130.598c.354-.208.546-.504.78-.836l.807-1.166 1.564-2.189 3.389-4.166c2.393-2.674 5.019-5.167 7.921-7.283.8-.583 1.599-1.177 2.425-1.723s1.753-1.034 2.467-1.727c.094-.091-.002-.245-.124-.214-.875.223-1.683.737-2.449 1.201s-1.536.919-2.27 1.431c-1.498 1.043-2.949 2.167-4.353 3.334-2.796 2.325-5.284 4.997-7.472 7.896-.625.828-1.209 1.683-1.769 2.556-.279.437-.552.878-.801 1.332-.235.429-.486.834-.499 1.332-.005.195.221.318.385.221l-.001.001zm63.502-20.55c.37.984.332 2.009.215 3.037-.119 1.045-.321 2.068-.513 3.101l-1.387 5.879c-1.108 3.58-2.8 6.993-5.17 9.908s-5.327 5.21-8.677 6.923c-1.81.924-3.686 1.712-5.56 2.496-1.789.749-3.558 1.543-5.306 2.382-3.624 1.744-7.067 3.913-9.095 7.499-.078.137.118.244.206.121 1.06-1.469 2.488-2.69 3.966-3.723 1.544-1.079 3.168-2.033 4.864-2.852 1.798-.868 3.666-1.548 5.515-2.296 1.88-.76 3.756-1.53 5.574-2.432 3.42-1.697 6.491-3.958 8.97-6.877s4.321-6.307 5.518-9.933c.727-2.204 1.243-4.504 1.496-6.812.123-1.122.16-2.257.212-3.385.051-1.096.044-2.19-.454-3.194-.102-.204-.455-.06-.373.158h-.001zm-27.21 16.394c-1.494.984-2.66 2.317-3.782 3.695s-2.076 2.938-2.841 4.545c-1.734 3.643-2.647 7.643-3.349 11.596-.36 2.03-.69 4.067-1.449 5.996-.743 1.887-1.749 3.696-2.729 5.468-.952 1.721-2.045 3.318-3.426 4.724-1.327 1.348-2.823 2.513-4.394 3.562a44.61 44.61 0 0 1-5.693 3.221c-1.021.483-2.063.912-3.114 1.326-1.022.403-2.089.704-3.08 1.178-.284.135-.156.644.165.608.966-.107 1.884-.416 2.805-.72.93-.312 1.846-.662 2.748-1.05 1.823-.773 3.596-1.666 5.287-2.697 3.245-1.977 6.308-4.381 8.437-7.571 1.141-1.71 2.081-3.572 2.994-5.409.922-1.856 1.617-3.75 2.026-5.784l1.14-6.098c.436-2.023.97-4.023 1.684-5.963.724-1.97 1.598-3.949 2.73-5.722 1.123-1.759 2.514-3.236 4.029-4.66.127-.119-.039-.342-.188-.245zm14.281-1.327c-.59-.05-1.202.09-1.777.21l-1.884.461c-1.167.337-2.296.82-3.384 1.356-2.138 1.055-4.186 2.411-5.854 4.124-.915.94-1.779 1.973-2.347 3.165-.044.094.065.185.146.112l2.473-2.361c.837-.764 1.727-1.493 2.639-2.165 1.906-1.401 4.011-2.501 6.207-3.373l1.946-.738c.62-.21 1.288-.36 1.867-.669.062-.033.028-.116-.032-.122zm-86.537-23.527c-.664.872-1.196 1.817-1.744 2.763l-1.467 2.738c-.925 1.925-1.658 3.936-2.41 5.933-1.591 4.224-3.03 8.534-3.773 12.997-.715 4.291-.778 8.752.364 12.978.544 2.013 1.336 3.99 2.648 5.63 1.24 1.55 2.892 2.797 4.654 3.696 1.914.977 4.004 1.57 6.145 1.745 1.045.086 2.655-.069 2.655-.069v-.5-.5s-1.224.04-2.098 0c-1.836-.085-3.639-.507-5.322-1.244-1.714-.754-3.312-1.815-4.603-3.176-1.405-1.479-2.248-3.33-2.828-5.266-2.481-8.278-.011-16.891 2.684-24.777l2.33-6.586c.414-1.092.834-2.182 1.327-3.241.481-1.033 1.101-2.002 1.701-2.967.106-.172-.148-.305-.263-.154z" class="B"/><path d="M99.943 149.293c-.623.573-.833 1.528-1.031 2.334a15.89 15.89 0 0 0-.419 2.717 14.38 14.38 0 0 0 .071 2.682c.095.789.363 2.37.936 2.974.196.207.374-.327.437-.614.087-.395-.017-.75-.086-1.14l-.205-1.296c-.094-.84-.119-1.685-.075-2.529.041-.822.154-1.637.337-2.44.185-.812.589-1.64.556-2.472-.003-.059-.022-.116-.056-.165s-.081-.087-.135-.109-.115-.03-.173-.019a.31.31 0 0 0-.157.077zm54.162-82.101c1.073.961 1.279 2.392 1.25 3.764-.033 1.588-.384 3.121-.96 4.599-1.144 2.934-3.105 5.466-4.862 8.047-3.474 5.104-6.275 10.866-6.694 17.113a21.98 21.98 0 0 0 .28 5.212c.27 1.57.642 3.492 1.728 4.714.113.127.372.032.353-.146-.081-.75-.321-1.486-.531-2.213-.22-.762-.393-1.539-.52-2.322-.253-1.554-.296-3.134-.216-4.705.158-3.136.975-6.215 2.176-9.108 1.218-2.932 2.856-5.672 4.65-8.283s3.735-5.2 4.799-8.23c.571-1.626.909-3.412.727-5.137-.135-1.267-.452-3.363-1.982-3.646-.183-.034-.363.194-.198.341zm2.213.06c.246.42.717.706 1.109.978.429.296.905.533 1.367.772l1.391.695c.428.21.982.595 1.479.43.061-.02.111-.087.088-.154-.162-.464-.706-.657-1.11-.858l-1.443-.711-1.348-.709c-.434-.228-.879-.55-1.355-.674-.03-.007-.062-.005-.091.005a.16.16 0 0 0-.073.053c-.019.024-.03.054-.033.084s.004.061.019.089zm6.536 3.787c.365 1.095.728 2.161.801 3.322.071 1.116-.044 2.233-.291 3.322-.535 2.366-1.571 4.58-2.943 6.575-1.188 1.726-2.561 3.306-3.52 5.184-1.025 2.007-1.856 4.198-2.333 6.401-.261 1.208-.415 2.443-.455 3.678-.02.625-.018 1.256.042 1.88.064.657.237 1.271.437 1.899.034.107.208.093.203-.028-.097-2.332-.131-4.668.367-6.964.488-2.257 1.365-4.411 2.591-6.368l2.007-2.909 1.739-2.306c1.353-1.973 2.417-4.254 2.899-6.606s.548-5.394-1.016-7.388c-.197-.251-.623.022-.528.308zm-9.141 39.513l1.201-.54.607-.212c.205-.062.426-.097.607-.219.055-.036.06-.146-.021-.158-.221-.034-.429.036-.64.101l-.665.239c-.427.175-.82.38-1.18.669-.072.059.02.153.093.12h-.002zm14.341-37.287c1.325 1.081 2.915 1.866 4.368 2.764l4.421 2.758c2.775 1.703 5.549 3.449 8.037 5.559s4.729 4.501 6.907 6.906c1.031 1.139 1.959 2.342 2.655 3.716.655 1.292 1.105 2.687 1.422 4.097.36 1.602.522 3.235.611 4.872l.096 2.472.256 2.524c.01.093.163.136.181.024.246-1.486.405-2.928.395-4.438-.009-1.492-.105-2.981-.317-4.459-.433-3.021-1.5-5.851-3.398-8.26-1.019-1.292-2.19-2.466-3.326-3.654l-3.573-3.533c-2.491-2.265-5.28-4.114-8.174-5.818-1.689-.994-3.408-1.932-5.111-2.901l-2.631-1.516c-.864-.504-1.714-1.042-2.641-1.42-.167-.067-.315.193-.178.304v.003zM196 159.5c-.151-1.126.16-.728-.138-1.824l-.898-3.379-1.42-6.834c-.735-4.619-.975-9.286-.546-13.948a48.41 48.41 0 0 1 .514-3.869l.369-1.983c.128-.629.31-1.26.302-1.904-.004-.262-.363-.366-.497-.135-.296.511-.428 1.085-.569 1.655-.148.597-.287 1.196-.41 1.799-.227 1.138-.412 2.284-.554 3.436-.298 2.352-.421 4.722-.369 7.092.096 4.734.79 9.41 1.88 14.014.307 1.297.629 2.588 1.01 3.865.368 1.235.226 1.371.826 2.515.178.338.555-.091.5-.5zm-94.271-49.192c-.737 2.705.779 5.557 1.959 7.909l4.029 7.433c2.893 4.968 6.116 9.736 9.618 14.295 1.977 2.574 4.085 5.129 6.427 7.382.158.152.455-.052.316-.243-1.674-2.296-3.483-4.498-5.204-6.759s-3.413-4.507-5.033-6.827c-3.175-4.544-6.122-9.251-8.792-14.111-1.537-2.798-3.433-5.735-3.17-9.059.006-.087-.128-.102-.15-.02zm.916-5.014c-3.293 2.203-3.68 6.887-3.029 10.441.435 2.371 1.282 4.638 1.923 6.956a59.6 59.6 0 0 1 1.544 7.278c.725 4.982.626 9.979.493 14.997-.123 4.663-.158 9.357.716 13.958.843 4.439 2.57 9.042 5.895 12.234.148.142.339-.066.219-.22-1.258-1.597-2.318-3.34-3.157-5.191s-1.423-3.825-1.847-5.805c-.938-4.381-.953-8.883-.849-13.343.115-4.871.327-9.752-.211-14.606a55.67 55.67 0 0 0-1.245-7.043c-.566-2.318-1.358-4.543-2.068-6.81-.726-2.319-1.348-4.715-1.072-7.163.238-2.119 1.215-4.091 2.862-5.457.126-.104-.039-.318-.174-.226zm7.482-33.53c-1.938-.036-3.911-.031-5.833.233-1.937.266-3.847.714-5.712 1.304-3.695 1.169-7.198 2.833-10.366 5.074-1.811 1.281-3.505 2.716-5.042 4.315-.5.52.281 1.304.793.793 2.693-2.698 5.753-4.925 9.115-6.714s6.957-2.989 10.71-3.687c2.1-.39 4.196-.694 6.335-.693.403 0 .402-.618 0-.625zM81.66 84.198c-1.015.803-1.946 1.728-2.824 2.679s-1.712 1.93-2.433 2.999c-1.393 2.068-2.466 4.558-2.726 7.052-.153 1.476-.161 2.962-.231 4.443l-.369 3.976c-.361 2.569-.962 5.112-1.849 7.551-.507 1.401-1.12 2.762-1.833 4.071l-1.071 1.879-1.196 1.885c-.059.111.078.213.171.131.933-.816 1.643-1.984 2.292-3.03.666-1.069 1.21-2.226 1.699-3.385 1.005-2.381 1.71-4.876 2.167-7.418.48-2.667.606-5.337.739-8.037s.767-5.402 2.368-7.628l2.637-3.409 2.966-3.251c.302-.359-.147-.792-.507-.508z" class="B"/><path d="M74.18 97.241c-.575.08-1.033.374-1.526.667l-1.46.934-2.838 2.056c-1.889 1.48-3.68 3.08-5.362 4.792-3.561 3.613-6.748 7.746-9.259 12.156-1.499 2.631-2.694 5.443-3.259 8.427a.29.29 0 0 0 .209.326.29.29 0 0 0 .207-.02c.064-.032.114-.087.14-.153.902-2.514 1.867-5.019 3.143-7.37 1.244-2.293 2.716-4.467 4.293-6.542 2.899-3.814 6.247-7.323 9.975-10.334a56.72 56.72 0 0 1 3.041-2.291c.531-.372 1.072-.728 1.611-1.088.52-.348 1.023-.64 1.404-1.144.169-.224-.109-.444-.319-.416zm31.957-25.347c-.482-.063-.955.501-1.255.81-.42.432-.794.915-1.143 1.405-.681.955-1.214 2.008-1.631 3.104-.884 2.322-1.133 4.926-.681 7.373.257 1.391.728 2.815 1.636 3.92.147.179.408-.017.364-.212-.341-1.491-.82-2.932-1.011-4.458-.187-1.503-.119-3.035.204-4.514a13.68 13.68 0 0 1 1.519-3.921c.352-.614.746-1.204 1.178-1.765l.615-.775c.181-.226.406-.485.381-.79-.008-.105-.074-.164-.176-.177z" class="B"/><path d="M101.499 81.581c-1.043.746-1.695 1.893-2.228 3.038-.554 1.191-.944 2.451-1.15 3.749-.41 2.579-.1 5.253.886 7.672.549 1.348 1.261 2.622 2.427 3.522.215.166.417-.141.332-.331-.644-1.421-1.482-2.749-1.992-4.233-.492-1.432-.752-2.934-.748-4.448s.263-3.017.753-4.45a14.96 14.96 0 0 1 .933-2.159l1.079-2.07c.072-.17-.097-.43-.292-.29z" class="B"/><path d="M98.493 91.139c-.578.305-1.048 1.002-1.382 1.547-.382.623-.682 1.307-.931 1.992-.503 1.384-.721 2.887-.657 4.357.067 1.554.485 3.053 1.108 4.472s1.455 2.92 2.676 3.907c.171.138.508.017.414-.241-.51-1.385-1.398-2.607-2.017-3.948-.599-1.298-.991-2.691-1.076-4.121-.081-1.363.097-2.718.491-4.023a11.63 11.63 0 0 1 .791-1.927c.29-.572.719-1.161.894-1.775.053-.185-.151-.324-.311-.24z" class="B"/><path d="M96.124 100.76c-.982.495-1.562 1.694-1.905 2.689-.389 1.129-.527 2.344-.496 3.533.065 2.427.746 4.855 1.997 6.938.709 1.181 1.58 2.314 2.852 2.908.192.09.465-.108.32-.32-.789-1.157-1.742-2.193-2.431-3.42-.71-1.265-1.194-2.65-1.468-4.074-.261-1.354-.336-2.786-.107-4.151.112-.669.295-1.331.577-1.948.288-.629.726-1.155 1.056-1.756.145-.263-.141-.528-.398-.398l.001-.001h.002z" class="B"/><path d="M94.66 112.069c-.102.11-.281.141-.395.236-.157.129-.275.373-.379.543-.237.389-.455.801-.561 1.247-.201.852-.004 1.743.43 2.49.456.784 1.153 1.389 1.927 1.847.387.229.794.421 1.207.598.42.18.839.401 1.304.313.146-.027.244-.244.15-.367-.244-.316-.57-.428-.933-.575a11.18 11.18 0 0 1-1.13-.53c-.692-.378-1.337-.864-1.769-1.534-.411-.637-.649-1.409-.458-2.162.099-.388.288-.737.465-1.092.083-.166.196-.355.224-.539.022-.149-.059-.303-.038-.448.004-.025-.024-.05-.044-.027z" class="B"/><path d="M93.719 115.149c-.579.431-1.042.855-1.407 1.487-.341.589-.558 1.236-.656 1.908-.198 1.349-.011 2.732.334 4.042.763 2.892 2.514 5.884 1.552 8.94l.964.13c.022-2.245 1.973-3.825 3.534-5.16.811-.695 1.606-1.414 2.255-2.266.579-.761 1.138-1.767.935-2.752-.044-.217-.358-.24-.462-.06-.253.437-.409.918-.667 1.352-.268.451-.557.882-.904 1.278-.723.827-1.576 1.52-2.407 2.232-1.616 1.383-3.247 3.117-3.266 5.376-.005.564.801.653.964.13.926-2.956-.45-5.843-1.322-8.624-.4-1.276-.726-2.604-.671-3.95.058-1.429.692-2.625 1.55-3.738.144-.186-.141-.467-.327-.327l.001.002zm-6.074 17.976c-.319-.044-.432.161-.595.394l-.696 1.1-1.407 2.093a32.87 32.87 0 0 1-3.228 3.827c-2.259 2.293-4.861 4.266-7.699 5.786l-2.502 1.188c-.802.332-1.689.571-2.434 1.017-.122.073-.075.278.074.274.8-.023 1.602-.339 2.348-.608.759-.273 1.503-.594 2.235-.933 1.525-.705 2.984-1.557 4.363-2.516 2.782-1.933 5.234-4.373 7.24-7.1.583-.782 1.124-1.595 1.618-2.436.114-.196 1.265-2.008.683-2.087v.001zm54.943-6.324c-.771 1.521-1.018 3.107-.939 4.806.082 1.775.369 3.501.715 5.241.734 3.696 1.122 7.466 1.037 11.236-.025 1.091-.115 2.177-.263 3.257-.074.542-.12 1.087-.207 1.628-.08.488-.208.966-.272 1.456-.004.035.052.05.066.019.346-.817.546-1.727.766-2.585.229-.887.338-1.812.456-2.719.244-1.859.379-3.753.248-5.625-.129-1.859-.406-3.71-.804-5.53-.382-1.746-.847-3.48-1.14-5.243-.319-1.922-.257-4.052.496-5.873.038-.092-.115-.156-.159-.068zm-5.241 45.474c2.637-2.423 4.02-6.129 4.039-9.668 0-.091-.138-.112-.161-.021-.218.87-.391 1.743-.663 2.601a28.12 28.12 0 0 1-.975 2.605c-.664 1.539-1.55 2.91-2.522 4.266-.123.172.138.35.282.217zm-32.374-91.757c-.297.517-.281 1.215-.319 1.797l-.106 1.907-.097 3.903.023 3.717c.037.869.157 2.297.987 2.812.072.045.148-.015.155-.089.055-.488-.095-1.046-.133-1.539l-.054-1.481-.007-3.68.1-3.643.075-1.82c.027-.575.141-1.265-.077-1.811-.091-.226-.409-.314-.547-.073zM78.671 92.716c-1.929 6.727-1.384 14.028 1.477 20.422.803 1.793 1.836 3.506 3.168 4.955.075.081.189-.022.145-.112-1.495-3.053-3.028-6.086-3.95-9.375s-1.299-6.666-1.266-10.07c.024-1.938.227-3.869.608-5.769.024-.119-.148-.17-.182-.051zM26.87 143.218c1.272-1.178 3.099-1.596 4.787-1.339 1.829.28 3.386 1.179 4.68 2.489 1.352 1.368 2.386 3.033 3.276 4.728.946 1.8 1.736 3.827 1.558 5.897a5.92 5.92 0 0 1-.884 2.634c-.258.407-.572.759-.912 1.099-.321.321-.678.586-.951.951-.109.145.044.308.185.323.946.1 1.824-.719 2.353-1.416.574-.755.967-1.658 1.172-2.583.492-2.226-.131-4.474-1.078-6.49-1.718-3.657-4.532-7.833-8.857-8.453-2.045-.293-4.249.326-5.527 2.009-.089.117.097.243.196.151h.002z" class="B"/><path d="M26.496 143.405c2.588-1.563 4.967-3.456 7.429-5.206.53-.376 1.069-.721 1.707-.879.691-.172 1.423-.095 2.11.063 1.323.305 2.695.812 3.868 1.497 2.057 1.201 3.367 3.266 4.35 5.377a32.51 32.51 0 0 1 1.367 3.497c.442 1.336.794 2.712.858 4.123.061 1.354-.07 3.192-1.214 4.104-1.274 1.016-2.928 1.475-4.173 2.542-.151.13.011.371.188.323.75-.204 1.453-.578 2.144-.93l2.144-1.058c1.336-.67 1.783-2.112 1.965-3.506.382-2.916-.696-5.89-1.8-8.543-.981-2.358-2.265-4.666-4.334-6.24-1.168-.889-2.553-1.417-3.939-1.867s-2.965-.769-4.347-.145c-.738.334-1.368.846-2.008 1.332l-2.203 1.672-4.383 3.493c-.189.17.055.481.27.351h.001zm8.974-8.824a.41.41 0 0 0-.118-.036.55.55 0 0 0-.128-.001c-.045.003-.093.001-.135.02s-.079.044-.113.073c-.026.023-.024.07 0 .093s.067.025.093 0 .047-.036.081-.056.056-.041.089-.05c.067-.019.144-.011.209.012.031.011.053-.04.022-.055zm32.818 9.016c.374 1.227.732 2.665.318 3.923-.464 1.41-1.89 2.038-3.191 2.479l-9.941 3.223-2.786.913-1.474.489c-.462.153-.955.267-1.351.56-.219.162-.159.526.144.532.44.009.84-.14 1.255-.269l1.482-.456 2.714-.849 5.507-1.734 5.174-1.676c1.37-.523 2.681-1.3 3.19-2.757.531-1.519-.038-3.154-.694-4.525-.093-.196-.409-.058-.347.147zm-31.258-8.042c.543-1.298 2.124-1.784 3.276-2.383l4.173-2.3 4.043-2.52 2.028-1.405c.579-.432 1.304-.937 1.7-1.545.12-.184-.077-.405-.274-.356-.388.096-.747.329-1.093.525l-1.129.666-2.069 1.336-4.257 2.643-4.337 2.508c-1.068.608-2.335 1.386-2.624 2.675-.084.376.42.492.561.154l.002.002zm-16.451 29.04c1.407.086 2.712-.132 4.015-.675 1.249-.52 2.396-1.236 3.462-2.064 1.117-.868 2.14-1.851 3.123-2.866l1.544-1.656c.434-.489 1.035-1.026 1.225-1.67.055-.188-.152-.32-.312-.24-.579.292-.99.935-1.413 1.41l-1.419 1.562c-.915.974-1.866 1.919-2.903 2.763-2.068 1.684-4.633 2.979-7.323 3.217-.139.012-.141.209 0 .217l.001.002z" class="B"/><path d="M26.502 163.01c.632.158 1.402-.17 2.015-.325l2.21-.552 2.193-.61c.655-.208 1.423-.367 2.017-.716.076-.045.038-.151-.043-.158-.689-.053-1.462.154-2.141.268l-2.226.49-2.195.604c-.6.172-1.442.289-1.895.748-.077.079-.045.222.066.25l-.001.001zm113.32-73.942l-2.75.957c-.963.238-1.94.418-2.924.54-1.066.138-2.143.188-3.216.208-1.112.021-2.293-.123-3.391.055-.449.072-.423.788 0 .881.541.119 1.117.111 1.669.127l1.808.01c1.145-.012 2.287-.099 3.421-.261 1.003-.145 1.985-.407 2.924-.788.91-.369 1.873-.813 2.599-1.487.103-.095-.003-.29-.14-.242z" class="B"/><path d="M13.527 165.247c.226.15 4.289 1.41 6.07 1.406s6.491-.41 7.177-.698 2.037-.696 2.037-.696l1.492-16.774s.538-.19.673-1.949l.725-11.194.226-2.648s-.047-.838-.781-.683c0 0 .15-.405.205-.915l.766-5.948-1.752.133-.2-2.521s.543.058 1.117-.013.413-.608.361-.882l-.577-2.682s-.295-.43-.836-.442l-3.384-.055-.401 1.688-14.69-.076-.695 4.85-1.265.005.835 7.396-.993.144 1.58 14.607s-.086 1.419.767 1.629l.514 5.693 1.03 10.624-.001.001z" fill="#b33260"/><path d="M10.167 136.246c-.045.132 1.068 10.724 1.068 10.724s-.005 1.891.747 1.961l.269 2.634 3.192 3.336s1.821 2.087 1.902 2.713.419 1.399-.306 2.076c0 0 1.161 2.128 1.402 2.66s.919 2.482-1.644 2.523-6.631-4.408-6.631-4.408.465 2.22-2.86.821-5.234-2.905-5.673-3.428-1.081-1.104-.817-1.699.964-2.363 1.533-2.778c0 0-.659-.935-.671-1.713s-.106-1.206.315-1.597 1.005-.578 1.005-.578-1.35-1.215-1.364-1.555-.264-1.04.142-1.634.944-1.149 1.357-1.33 1.4-.571 1.4-.571-.963-3.888-.707-4.073 3.251-2.597 3.88-2.888 2.462-1.195 2.462-1.195l-.001-.001z" class="D"/><path d="M138.375 89.794c.14-1.812.259-3.102.881-4.314s1.69-2.689 1.69-2.689-.281-.659-.124-2.122l.53-4.215s2.498-2.874 3.077-3.931 1.585-3.151 1.729-4.384a30.61 30.61 0 0 0 .184-3.318c.002-.827-.853-.992-1.385-.909l-1.516.268v-2.712l16.129-5.522-.914 1.833s1.18.99 1.175 2.95-.122 4.34-.559 5.74-2.531 4.271-3.267 5.022c0 0 .306.981.024 2.042s-1.042 3.312-1.934 4.476-2.811 2.951-2.811 2.951.202 1.637-.573 3.442-2.157 4.16-2.157 4.16 1.299 1.856 1.214 3.09.486 2.403-.75 4.858.076 2.051 0 2.338.314 3.893.314 3.893l-.697 3.638c0 .122.706 1.476.706 1.476l.427 2.142c.039.088.116 2.368.116 2.368l-8.244 6.091s-1.38-2.246-1.648-3.607.544-5.055.544-5.055l-1.343-3.02.492-4.032s-1.22-1.424-1.387-3.173-.414-4.603.599-5.704" class="E"/><path d="M9.668 132.96l1.563 14.733s-.207 1.041 1.134 1.182l8.218 1.192 7.156-.687c.826-.292 2.861-1.202 2.861-1.202s.304-.762.355-1.389.633-10.69.633-10.69l.341-3.403s.284-.639-.781-.683-6.748 1.057-8.089.948-8.47-.004-9.388-.074-3.037-.335-3.037-.335-1.048-.047-.965.409l-.001-.001z" fill="#484572"/><path d="M125.009 57.178c-.612-1.528-2.484-5.54-2.292-7.755l.458-9.091c.038-2.177.535-5.157-.993-7.487s-4.431-4.661-5.004-7.716-1.397-4.431-.412-5.692-1.154-5.31-2.644-2.712-.573 4.088-2.597 4.737-5.348.573-6.265 2.521.038 3.667-1.528 4.813l-5.122 3.896c-1.104 1.108-2.666 3.317-2.477 5.134s-.052 3.121.718 3.826 1.895 2.958 1.895 2.958l-1.758 2.939-.872 1.254s-1.387 1.69.54 3.049 1.338 1.21 1.338 1.21-.752 1.018-.735 1.823l.175 3.514s.008.302.066.824c.316-.292.745.231.434.542-.139.139-.23.332-.285.53l.184.962.111.11c.059.05.1.124.122.201.097.12.094.271.021.409.01-.018-.038.077-.045.095l-.01.023a21.09 21.09 0 0 0 .948 2.86s.515 1.096.323 2.27-.602 3.22-.443 3.575 1.207 2.229 1.849 2.434 1.797.889 2.713.937c0 0 14.765 2.383 16.071.986.129-.138 10.136-13.214 10.136-13.214s-4.011-3.239-4.622-4.767v.003l.002-.001z" class="D"/><path d="M158.656 57.78l3.269-7.595c.564-1.895 1.886-8.568 1.894-10.977s-.441-8.394-.922-10.511-2.622-9.094-3.853-11.543-3.669-7.029-5.438-8.741-4.257-3.547-5.612-3.931-6.07-1.258-8.446-2.381-8.828-1.048-9.918-.961-7.017 1.072-8.745 1.639-6.927 2.673-8.254 3.355-7.491 4.197-7.491 4.197-2.165-.445-3.55.503-2.48 1.905-2.788 2.891-.178 2.459-1.007 3.29-2.498 1.88-3.169 2.644-2.174 2.71-2.384 4.407-.214 3.179.141 4.326 1.081 3.042 1.118 4.054-.758 4.072-.846 5.571-.091 4.402 1.228 6.157 3.104 3.377 3.104 3.377l2.038-2.931-.084-2.634c.016-.493-.483-.691-.481-1.445s.728-3.618.728-3.618l-1.346-1.045s-.077-.837.766-1.552 2.222-2.06 3.404-2.586 2.561-.985 2.89-1.872.797-2.331.989-3.317-.202-1.872 1.211-2.2 3.644-.657 4.121-1.051 2.085-1.116 2.381-2.003.886-2.003.886-2.003 1.346-1.116.886.689-.426 2.89-.164 3.973 1.346 4.072 2.249 4.959 3.208 3.675 3.517 5.006 1.753 4.221 1.359 6.651-.394 5.615-.525 6.436 0 5.024.394 6.305 1.018 3.284 1.708 3.974 2.069 3.12 2.364 3.185 1.642 1.271 2.003 1.473 1.1-.602 1.836-.368 1.941 1.194 1.941 1.194l.59-.826s-3.633-3.377-4.147-4.428-.814-4.037-.894-5.072.511-4.122.511-4.122.919-4.006.821-3.973.725 2.281 1.461 3.246 2.254 2.579 3.44 3.228 3.652 1.835 4.458 2.54 2.596 2.343 3.054 3.735 2.343 3.633 2.343 3.633l2.107 1.924 6.206 4.519c-.186-.068 4.56-5.545 4.59-5.598s2.058-3.795 2.058-3.795v-.002z" class="E"/><path d="M117.041 40.802c-.189-.025-.355-.096-.537-.138-.197-.045-.35-.057-.529-.159-.324-.186-.679-.216-1.046-.275-.033-.23-.179-.444-.42-.489-1.083-.196-2.123-.581-3.075-1.135a.58.58 0 0 0-.396-.063c-.08-.506-.85-.558-1.01-.04-.055.177-.066.377-.039.569a5.63 5.63 0 0 0 .043 1.03c.033.246.084.488.154.726.033.109.074.216.117.322l.029.07c-.14.346.131.832.552.837.055 0 .102-.015.152-.026.078.042.166.068.266.055l4.02-.496c.13-.018.228-.08.297-.167a1.53 1.53 0 0 0 .239-.033c.173-.04.309-.022.485-.006s.352-.01.531.019c.397.063.561-.55.167-.603v.002zm-15.123-1.197a.65.65 0 0 0-.172-.3.66.66 0 0 0-.301-.171c-.092-.024-.188-.033-.282-.045-.213-.03-.427-.054-.633-.117-.05-.015-.118-.029-.161-.057l-.058-.025c-.121-.051-.243-.108-.371-.139-.154-.038-.309-.05-.461-.034a.47.47 0 0 0-.109-.092c-.157-.091-.32-.073-.477 0-.254.118-.393.447-.323.713l-.029.189c-.019.17-.019.337.001.507.046.38.139.751.221 1.124.072.329.485.497.778.349a.5.5 0 0 0 .29.001l.162-.045.049-.009.175-.003.084.006-.024-.004c.168.022.311.047.48 0 .213-.059.351-.199.473-.375l.376-.583c.169-.267.397-.552.312-.89z" fill="#fff"/><path d="M112.594 39.649c-.038-.342-.074-.763-.411-.95a.57.57 0 0 0-.193-.058c-.037-.062-.074-.125-.129-.175a.58.58 0 0 0-.638-.112c-.007-.008-.01-.017-.017-.024-.239-.265-.624-.385-.953-.207-.434.236-.498.793-.526 1.235-.054.868-.049 1.762.381 2.546a.62.62 0 0 0 .838.219c.014-.009.022-.023.035-.033l.046-.005a.73.73 0 0 0 .435.024c.363.164.734-.028.87-.391.168-.453.272-.94.288-1.424.007-.215-.002-.431-.026-.645zm-11.892.168c-.03-.272-.075-.553-.201-.806a.98.98 0 0 0-.347-.386c-.209-.136-.471-.141-.69-.059-.15-.099-.329-.166-.524-.112-.137.038-.256.107-.33.214-.102.139-.085.265-.088.416-.001.042.001.095-.012.136l-.006.02c-.045.209-.1.414-.114.627s.02.421.065.625c.03.137.069.271.119.402a1.72 1.72 0 0 0 .221.446c.139.194.398.299.664.269.044-.005.086-.019.128-.031.053.011.104.029.159.027.218-.008.38-.077.549-.192.309-.209.32-.63.367-.933.034-.217.065-.444.041-.662l-.001-.003v.002z" fill="#804631"/><path d="M99.279 39.243a1.68 1.68 0 0 0-.043-.173c-.024-.082-.051-.183-.095-.252l.001.009a.48.48 0 0 0-.313-.246c-.14-.028-.295-.025-.416.053a.59.59 0 0 0-.246.317c-.045.13-.016.247.019.366-.003.013-.008.025-.011.038-.034.147-.048.303-.067.452a1.8 1.8 0 0 0-.017.319 1.37 1.37 0 0 0 .139.546l.084.107.108.083a.53.53 0 0 0 .34.063c.218-.029.371-.176.443-.379.093-.262.137-.551.13-.829-.005-.159-.023-.317-.055-.473l-.001-.001z" class="B"/><path d="M99.798 39.167c-.011-.058-.026-.116-.043-.173-.024-.082-.051-.183-.095-.252l.001.009a.48.48 0 0 0-.313-.246c-.14-.028-.295-.025-.416.053s-.198.181-.245.317c-.044.13-.016.247.019.366-.003.013-.008.025-.011.038-.033.147-.048.303-.067.452a1.82 1.82 0 0 0-.017.319 1.37 1.37 0 0 0 .139.546l.084.107.108.083a.53.53 0 0 0 .34.063c.218-.029.371-.176.443-.379.093-.263.136-.552.13-.829-.005-.159-.023-.317-.055-.472l-.001-.001-.001-.001zm11.581-.576c-.083-.445-.52-.711-.891-.586-.288.097-.519.375-.569.72-.033.236-.031.474-.036.712-.003.15-.006.287.017.437.002.015.011.026.014.04.009.295.032.587.071.882.053.398.573.639.852.398.127-.111.21-.192.3-.345a1.38 1.38 0 0 0 .132-.333c.053-.191.064-.401.076-.601l.033-.6c.013-.24.046-.487.001-.724z" class="B"/><path d="M105.927 62.643c-.068-.131-.162-.246-.277-.338s-.247-.16-.389-.2a1.3 1.3 0 0 0-.427-.04c-.012.001-.024.004-.036.005a1.04 1.04 0 0 0-.549-.251c-.224-.03-.443.017-.661.066-.265-.121-.554-.173-.856-.212-.133-.017-.328.077-.417.173l-.193-.017c-.25-.007-.453.099-.682.174-.094.031-.19.056-.286.077l-.13.024-.04.008c-.005 0-.014-.001-.044.001-.41.027-.811 0-1.219-.022-.011-.013-.013-.029-.028-.04l-.029-.022c.068.003.136.009.205.002.069.012.138.018.208.019.103-.002.192-.032.289-.056l.146.004c.176.008.346.011.52-.026.27-.056.519-.207.726-.391l.104.011c.062.001.122-.011.182-.02a.37.37 0 0 1-.062.011c.041-.005.081-.001.121 0 .131.027.262.057.395.052a1.21 1.21 0 0 0 .574-.163 1.18 1.18 0 0 0 .577-1.009 1.2 1.2 0 0 0-.124-.509c-.079-.159-.193-.297-.332-.407-.232-.185-.489-.346-.788-.391l-.305-.033c-.093-.001-.189.016-.281.03-.081.013-.153.046-.219.089a1.46 1.46 0 0 0-.747.043c-.236.077-.439.199-.591.396-.018.022-.024.049-.039.072l-.044.014-.204-.163c-.293-.212-.678-.306-1.015-.217-.367-.187-.685-.125-.928.056.02.106 0 .222-.095.317-.207.208-.317.537-.343.824-.03.336.1.566.353.779a.42.42 0 0 1 .123.202c.096.12.093.27.02.408.01-.018-.038.077-.045.095l-.051.123c-.031.081-.058.163-.081.246l-.019.073-.023.124-.031.251c-.004.043 0 .079-.002.12.053.352.19.68.442.947a2.09 2.09 0 0 0 .483.37c.318.198.682.312 1.052.381.662.123 1.374.088 2.01-.151.027.013.046.031.077.042.091.033.191.045.285.051.175.012.349-.013.519-.053.196-.046.382-.13.561-.226l.682-.093.724-.123c.195-.034.395-.056.582-.127.251-.097.494-.235.636-.474.171-.287.178-.611.036-.911l.001.001-.001.004z" fill="#73543f"/><path d="M9.449 132.549c.063 2.687.402 5.358.678 8.031l.379 3.991.226 1.99.143.912c.061.367.218.686.288 1.044.029.144.228.096.24-.033.032-.346.15-.668.172-1.021l.036-1.021-.061-2.041-.345-3.99c-.275-2.666-.633-5.336-1.388-7.911-.058-.2-.374-.168-.368.049z" class="B"/><path d="M9.995 132.793c.559.289 1.256.297 1.871.365l2.137.225c1.419.136 2.853.144 4.278.152 2.891.018 5.757-.28 8.631-.564 1.572-.155 3.228-.263 4.739-.733.258-.08.21-.462-.063-.47-.916-.025-1.806.085-2.717.178l-2.726.231-5.382.154-5.39.047c-.912-.004-1.824.035-2.736.032-.822-.004-1.815-.166-2.603.099-.118.04-.162.219-.037.284h-.001-.001z" class="B"/><path d="M31.686 132.256l-.838 7.728-.214 3.873-.147 1.894-.063 1.033c-.015.283-.046.441.151.649.076.08.187.061.265 0 .224-.174.205-.379.235-.649l.098-.947.161-1.894.414-3.874c.313-2.575.373-5.158.425-7.747.006-.271-.445-.348-.485-.066h-.002zm-20.045 16.588c.715.411 1.551.634 2.346.836l2.527.555c1.669.263 3.376.355 5.065.332s3.376-.227 5.037-.531c1.48-.271 2.973-.722 4.171-1.67.244-.193-.071-.589-.329-.428-1.283.799-2.754 1.064-4.232 1.288-1.615.243-3.257.328-4.889.337s-3.237-.129-4.85-.328l-2.444-.365c-.759-.15-1.526-.35-2.299-.401-.203-.014-.269.279-.102.375h-.001z" class="B"/><path d="M30.083 148.423c-.195.672-.198 1.434-.297 2.128l-.214 2.087-.397 4.238-.357 4.235-.16 2.074c-.049.691-.168 1.439-.052 2.129.038.229.343.172.41 0 .244-.627.269-1.379.355-2.042l.247-2.073.429-4.235.323-4.152.129-2.077c.023-.725.127-1.532.033-2.25-.031-.24-.371-.328-.449-.06l.001-.002h-.001zm-16.821 17.139c.445.412 1.159.594 1.73.764a17.99 17.99 0 0 0 1.874.449c1.283.238 2.588.372 3.894.371 1.276-.002 2.551-.116 3.808-.333l1.955-.438c.581-.16 1.324-.325 1.811-.689.222-.166.178-.579-.154-.567-.571.02-1.178.264-1.732.403l-1.814.372a20.81 20.81 0 0 1-3.797.261 21.96 21.96 0 0 1-3.698-.372l-1.804-.413c-.571-.152-1.227-.442-1.821-.419-.295.012-.489.392-.253.611h.001zm-3.648-40.461c-.157.585-.026 1.265.025 1.858l.19 1.809.21 1.808c.07.598.077 1.27.339 1.816.107.224.481.167.532-.069.131-.603-.027-1.277-.1-1.886l-.216-1.808-.232-1.768c-.087-.588-.118-1.274-.406-1.805-.077-.143-.302-.108-.343.045h.001zm21.968 6.572c.187-.518.207-1.11.283-1.653l.226-1.719.189-1.675c.048-.485.236-1.128.008-1.58-.057-.115-.227-.129-.312-.041-.36.373-.365 1.095-.453 1.583l-.253 1.648-.187 1.678c-.053.58-.15 1.18-.067 1.759.045.315.479.24.566 0z" class="B"/><path d="M9.768 125.475l8.886.611a82.09 82.09 0 0 0 8.79-.144l2.464-.241c.74-.091 1.65-.173 2.296-.571.134-.083.111-.294-.044-.337-.644-.181-1.423-.074-2.082-.028l-2.123.156-4.43.165c-2.902.031-5.818-.033-8.718-.149l-5.038-.191c-.48-.004-.455.676-.001.729z" class="B"/><path d="M11.322 124.929l.831-4.523-.399.303c6.047-.344 12.11-.279 18.148.194l-.405-.405.475 3.983c.065.487.834.509.783 0l-.447-3.983c-.026-.231-.165-.386-.405-.405-6.036-.472-12.102-.54-18.148-.211-.176.01-.356.121-.399.304-.35 1.512-.68 3.112-.568 4.671.021.289.462.388.534.072z" class="B"/><path d="M26.663 120.034c.194-.381.241-.842.316-1.259l-.327.25 2.041.053 1.021.014c.267.002.617-.044.863.082.206.107.264.362.311.569l.177.923.185.989.091.487c.01.068.008.135.016.203.008.062-.056.076.014.086-.403-.058-.594.533-.173.629.176.041.361.012.515-.081a.69.69 0 0 0 .312-.418c.111-.389-.052-.857-.123-1.242l-.237-1.286c-.063-.344-.109-.706-.279-1.018-.397-.729-1.267-.64-1.977-.653l-2.756-.016c-.134 0-.305.104-.327.249-.07.448-.18.927-.118 1.379.029.214.366.239.457.06h-.002zm-22.32 24.141c-1.081.302-2.218.842-2.785 1.865-.564 1.017-.257 2.028.453 2.871.845 1.003 1.831 1.908 2.741 2.852l2.988 3.104 2.907 2.995c.835.822 1.749 1.599 2.839 2.057s2.341.601 3.446.127c1.011-.434 1.068-1.518.762-2.456-.405-1.242-1.387-2.198-2.248-3.136l-1.63-1.777c-.52-.566-1.017-1.152-1.634-1.614-.191-.145-.438.132-.32.32.616.981 1.517 1.803 2.3 2.652l2.217 2.499c.274.379.524.788.668 1.236.148.461.298 1.193-.178 1.51-.848.564-2.172.325-3.048-.026-.998-.399-1.838-1.114-2.602-1.855l-2.377-2.415-5.073-5.162c-.718-.736-2.057-1.716-1.868-2.89.21-1.3 1.611-1.788 2.624-2.323.239-.126.075-.504-.182-.432v-.002z" class="B"/><path d="M2.62 149.382c-.752.14-1.164.845-1.265 1.56-.123.858.256 1.654.775 2.315.676.861 1.536 1.59 2.322 2.347l2.589 2.459 5.102 4.696c1.336 1.14 3.082 2.605 4.958 2.507.916-.048 1.763-.588 1.951-1.534.205-1.035-.375-2.103-1.034-2.856-.25-.286-.715.083-.521.402.402.661.966 1.491.785 2.307-.171.765-.961.955-1.642.87-.777-.097-1.481-.487-2.134-.896-.769-.483-1.478-1.051-2.164-1.646-2.936-2.544-5.752-5.239-8.58-7.902-.674-.635-1.46-1.306-1.74-2.223-.237-.78.038-1.641.74-2.073.182-.112.057-.369-.142-.333zm1.495-7.328l.036.007c.053.012.131-.006.155-.062.058-.137.044-.265-.095-.338-.056-.029-.131-.038-.186 0-.173.119-.198.253-.185.458.026.428.142.873.219 1.295l.464 2.49c.169.793.362 1.583.634 2.347.248.698.538 1.479 1.016 2.054.485.585 1.297.615 2.003.654s1.451-.066 2.026-.516c1.356-1.061.399-2.853-.009-4.14l-.762-2.88c-.217-.977-.336-2.027-.669-2.971-.05-.141-.235-.108-.251.034-.079.675.028 1.376.123 2.045.106.738.249 1.471.429 2.195l.588 2.07c.208.647.516 1.311.561 1.996.047.711-.389 1.204-1.055 1.378-.345.091-.709.085-1.063.06s-.838-.021-1.153-.19c-.52-.278-.818-1.175-1.025-1.686-.247-.61-.438-1.241-.602-1.877l-.52-2.248-.251-1.117-.15-.636c-.026-.108-.176-.466-.115-.563l-.159.091-.062-.037.095-.169-.036.015c-.103.042-.135.211-.001.241z" class="B"/><path d="M2.234 153.181c-.493.28-.862.89-1.113 1.383-.267.517-.461 1.069-.576 1.639-.049.253-.153.581-.044.827.122.272.423.566.608.802.39.497.842.935 1.339 1.324.948.743 2.022 1.29 3.137 1.734l1.745.618c.281.091.568.15.853.227.227.062.423.196.647.258.077.021.174-.026.191-.109.134-.672-.867-.979-1.339-1.137l-2.472-.904c-.762-.337-1.502-.735-2.173-1.232-.763-.566-1.38-1.282-1.962-2.026l.107.259c.056-.622.21-1.241.469-1.811.247-.542.66-1.004.894-1.54.087-.199-.097-.435-.313-.313l.002.001zm2.024-12.258c.866-.917 1.836-1.738 2.856-2.48l1.556-1.035.818-.452c.279-.144.547-.285.671-.588.057-.139-.063-.291-.189-.332-.308-.1-.63.068-.899.206l-.861.477c-.567.335-1.112.707-1.63 1.113-.499.392-1.006.802-1.413 1.291l-1.249 1.539c-.146.2.173.439.34.263v-.002zm7.356 7.921c-.039.127-.031.261-.018.392l.047.41c.02.132.024.279.084.4.067.137.185.294.357.27s.239-.202.266-.351-.019-.323-.042-.477l-.063-.34c-.025-.127-.056-.261-.129-.37-.028-.046-.069-.083-.118-.106a.28.28 0 0 0-.156-.025c-.053.006-.103.029-.144.064s-.07.081-.084.133zm1.593 15.429l-.013.067c-.001.006-.015.069-.004.034-.015.048-.036.091-.047.14l-.029.149c-.007.053-.004.105-.004.158l.009.264c.013.16.034.37.23.408l-.112-.065c.049.043.115.088.184.086.034-.002.066-.01.096-.025s.057-.036.079-.061l-.112.065.004-.001c.086-.029.173-.096.191-.191.038-.193-.004-.391-.029-.583-.005-.037-.008-.074-.019-.109s-.027-.076-.042-.113c-.018-.048-.04-.091-.065-.136.011.021-.005-.012-.008-.02l-.023-.066c-.022-.063-.075-.11-.144-.11-.062 0-.132.046-.144.11l.001-.001h.001zM127.706 23.608c-1.032 1.054-1.277 2.558-1.275 3.98.002 1.751.615 3.354 1.117 5.005.282.925.511 1.865.591 2.831.076.922.047 1.846.01 2.769-.074 1.859-.223 3.731.138 5.571.603 3.072 2.556 5.802 5.226 7.419 1.47.889 3.119 1.494 4.486 2.548 1.088.838 1.907 1.953 2.637 3.102l2.431 3.789c.445.586.925 1.142 1.493 1.615s1.183.765 1.89.979c.224.068.353-.254.158-.373-2.217-1.347-3.445-3.635-4.738-5.787-.672-1.118-1.383-2.232-2.287-3.179-1.064-1.115-2.408-1.841-3.768-2.532-1.442-.733-2.821-1.499-3.951-2.68-1.032-1.078-1.833-2.388-2.314-3.801-1.157-3.393-.046-6.977-.667-10.443-.612-3.412-3.63-7.394-1.026-10.665.083-.104-.053-.25-.151-.15v.002zm13.692-18.954c1.067-.373 2.211-.563 3.343-.517 1.113.045 2.295.386 3.323.803 2.11.855 3.888 2.304 5.368 4.016 1.491 1.726 2.676 3.703 3.751 5.707 1.119 2.085 2.115 4.235 2.949 6.45 3.262 8.668 4.204 18.243 1.783 27.244-1.482 5.508-4.199 10.517-6.735 15.588-.036.072.064.131.108.063 2.868-4.427 5.657-9.048 7.283-14.1 1.464-4.547 1.997-9.383 1.77-14.147-.229-4.81-1.222-9.577-2.847-14.106-1.598-4.452-3.739-8.919-6.715-12.622C153.145 7 151.131 5.257 148.68 4.3c-2.319-.905-5.13-1.033-7.413.042-.175.082-.052.377.132.313l-.001-.001z" class="B"/><path d="M158.742 57.468c.035.298-.05.581-.005.885l.214 1.12.317 2.039c.13 1.387.084 2.802-.287 4.15-.628 2.289-2.089 4.162-3.689 5.863l-1.396 1.476c-.452.477-.935.95-1.293 1.505-.076.119.07.23.179.179.553-.26 1.032-.649 1.52-1.013a16.77 16.77 0 0 0 1.483-1.259c.903-.856 1.726-1.794 2.439-2.815a11.37 11.37 0 0 0 2.059-7.525c-.063-.795-.186-1.586-.35-2.367l-.322-1.26-.192-.502c-.102-.206-.28-.352-.379-.559-.066-.139-.317-.077-.298.08v.003z" class="B"/><path d="M156.214 71.691c-.2.293-.31.517-.407.869l-.231.976c-.185.675-.401 1.343-.685 1.985-.536 1.235-1.26 2.379-2.146 3.392-.865.977-1.879 1.792-2.991 2.472-.55.336-1.126.641-1.715.904-.609.272-1.308.449-1.863.823-.122.082-.132.326.046.353.676.104 1.388-.111 2.027-.325.653-.218 1.285-.493 1.89-.823a12.62 12.62 0 0 0 3.383-2.726c.973-1.105 1.757-2.386 2.297-3.757.276-.689.485-1.404.624-2.134.067-.364.14-.736.146-1.106s-.064-.584-.215-.904c-.032-.068-.123-.052-.159 0l-.001-.001v.002z" class="B"/><path d="M151.351 80.698c-.301.444-.359 1.111-.484 1.626a15.87 15.87 0 0 1-.531 1.746c-.437 1.185-1.007 2.302-1.664 3.378-.664 1.086-1.441 2.085-2.2 3.104l-1.188 1.556c-.353.45-.777.932-.986 1.469-.047.12.104.202.2.154.56-.282 1.045-.822 1.475-1.27l1.357-1.446c.869-1.005 1.657-2.108 2.333-3.252.64-1.084 1.19-2.244 1.571-3.445a12.46 12.46 0 0 0 .452-1.925c.079-.528.176-1.201-.068-1.695-.055-.111-.207-.089-.267 0z" class="B"/><path d="M148.486 88.636c.1.612.362 1.184.514 1.785.154.614.233 1.241.253 1.873.039 1.243-.166 2.478-.56 3.655-.392 1.172-.987 2.259-1.665 3.289-.684 1.039-1.601 1.923-2.22 2.999-.115.2.114.424.313.313 1.134-.635 1.992-1.785 2.739-2.826.794-1.108 1.419-2.35 1.837-3.647.413-1.28.59-2.656.498-3.999-.084-1.21-.333-2.829-1.253-3.705-.21-.2-.497.006-.455.265l-.001-.002z" class="B"/><path d="M148.38 98.207c.002.517.176 1.064.276 1.571a12.22 12.22 0 0 1 .213 1.661c.064 1.11-.015 2.229-.263 3.313a11.72 11.72 0 0 1-1.185 3.109c-.269.481-.574.948-.89 1.4-.281.403-.7.827-.822 1.31-.032.127.08.231.204.204.514-.112.956-.617 1.287-.997.392-.448.725-.933 1.019-1.45a12 12 0 0 0 1.294-3.391c.251-1.166.348-2.372.237-3.562-.099-1.06-.276-2.489-1.027-3.31-.119-.13-.344-.027-.343.142zm-4.45-24.502c-.101.126-.229.219-.268.38-.029.115-.037.242-.046.36-.018.258-.004.524.014.782.045.541.146 1.077.301 1.597a9.27 9.27 0 0 0 .569 1.475c.198.408.473 1.083.992 1.125.115.01.223-.089.254-.194.128-.434-.32-.944-.508-1.31a7.95 7.95 0 0 1-.529-1.311c-.14-.457-.233-.923-.305-1.395l-.085-.724-.046-.362c-.038-.185-.128-.245-.235-.41-.022-.033-.078-.05-.107-.014l-.001.001zm-2.717 3.052c-1.003 2.049-1.073 4.587-.729 6.803a13.49 13.49 0 0 0 .953 3.274c.416.969 1.07 2.162 2.034 2.676.107.057.226-.037.2-.154-.113-.502-.369-.969-.588-1.434l-.647-1.437c-.424-.981-.722-2.021-.908-3.073-.182-1.031-.222-2.084-.165-3.129.059-1.104.319-2.157.548-3.234.085-.4-.497-.703-.697-.294h-.001v.002z" class="B"/><path d="M140.98 82.661c-.485-.07-.861.472-1.12.815-.39.517-.715 1.074-.989 1.66-.531 1.146-.861 2.374-.978 3.631-.233 2.443.435 5.088 1.866 7.094.392.55.865 1.042 1.372 1.487.543.476 1.226 1.04 1.919 1.259.087.028.16-.076.117-.152-.192-.336-.497-.614-.758-.896l-.845-.944c-.452-.544-.843-1.151-1.209-1.755-.74-1.223-1.234-2.61-1.398-4.033a10.16 10.16 0 0 1 .435-4.308c.225-.687.516-1.35.867-1.981l.59-.981c.14-.241.316-.516.226-.801-.014-.041-.049-.088-.095-.095z" class="B"/><path d="M139.267 93.094c-.318.19-.531.309-.761.618-.213.296-.385.619-.51.961-.273.712-.385 1.478-.397 2.239-.013.816.092 1.63.224 2.433.134.814.258 1.67.546 2.447.517 1.396 1.73 2.419 2.82 3.377.57.501 1.176.96 1.856 1.301.541.273 1.341.647 1.955.451.108-.035.155-.175.068-.259-.21-.203-.488-.301-.74-.444l-.838-.509c-.558-.376-1.074-.818-1.577-1.263-.933-.824-2.096-1.731-2.554-2.926-.248-.649-.347-1.36-.472-2.04-.136-.742-.266-1.483-.295-2.238-.027-.692.027-1.386.213-2.056.089-.322.209-.633.348-.936l.372-.9c.077-.161-.085-.359-.257-.257l-.001.001z" class="B"/><path d="M139.332 102.57c-.417.461-.499 1.234-.579 1.831-.083.614-.104 1.23-.04 1.846.129 1.243.512 2.456 1.179 3.518.62.988 1.453 1.827 2.421 2.475.472.316.981.591 1.521.772.492.165 1.195.348 1.702.165.14-.05.226-.245.094-.359-.355-.308-.876-.454-1.297-.657l-1.33-.711c-.868-.55-1.623-1.289-2.177-2.155-.585-.913-.955-1.968-1.069-3.048-.06-.568-.059-1.141.003-1.709.061-.542.341-1.124.308-1.663-.022-.348-.47-.6-.736-.305zm9.04 4.147c.259.677.571 1.314.743 2.023a6.32 6.32 0 0 1 .165 1.023c.028.383-.039.795.116 1.153.128.295.582.251.723 0 .197-.35.122-.841.085-1.226-.04-.402-.106-.801-.207-1.193-.194-.75-.509-1.543-1.034-2.124-.228-.252-.718.012-.591.344zm3.177-32.047c-.245.016-.479-.046-.72.038l-.716.29-.646.339c-.209.123-.473.275-.578.505-.051.112.006.304.163.283.249-.032.458-.184.666-.316l.635-.359.628-.276c.062-.024.116-.054.174-.086.034-.019.07-.031.1-.055.01-.008.07-.063.05-.05s.042-.018.05-.024l.068-.054c.05-.036.106-.077.162-.104.063-.031.032-.135-.036-.131z" class="B"/><path d="M140.288 109.175c-.03.076-.133.14-.192.202-.099.105-.164.181-.219.319-.15.375-.236.78-.303 1.178-.132.781-.136 1.586-.066 2.373.067.767.193 1.542.416 2.279.163.539.476 1.665 1.156 1.723.079.007.146-.047.188-.108.175-.252.074-.586.006-.861l-.3-1.043c-.197-.698-.35-1.402-.413-2.126s-.041-1.447-.008-2.173l.077-1.074c.007-.136-.014-.271-.062-.397-.025-.067-.076-.168-.065-.234.024-.142-.163-.193-.215-.058zm-30.932-98.666c-.393.166-.801.227-1.227.207-.506-.024-.925-.212-1.398-.365-.742-.238-1.531-.464-2.312-.52-1.41-.1-2.854.377-3.983 1.213-1.119.829-1.992 2.005-2.321 3.372-.196.813-.166 1.691-.704 2.381-.462.593-1.138.981-1.733 1.423-2.439 1.814-4.018 4.596-4.053 7.67-.02 1.7.579 3.242 1.066 4.843.263.864.465 1.745.433 2.654-.033.949-.283 1.872-.51 2.789-.453 1.83-.623 3.611-.162 5.461.417 1.672 1.265 3.377 2.656 4.444.146.111.348-.105.249-.249-.883-1.297-1.692-2.598-2.091-4.136-.41-1.579-.349-3.172.02-4.751.399-1.708.876-3.349.545-5.115-.313-1.672-1.136-3.214-1.342-4.911-.341-2.809.868-6.063 3.254-7.699 1.171-.803 2.509-1.509 2.916-2.983.209-.755.211-1.542.507-2.278.249-.618.636-1.18 1.1-1.655 1.078-1.102 2.597-1.771 4.15-1.682 1.658.096 3.459 1.112 5.04.127.122-.076.043-.304-.102-.244l.002.004zm5.4 6.948c-.332.974-.58 1.906-1.153 2.778-.544.828-1.245 1.543-2.063 2.103-.834.566-1.76.971-2.752 1.162-1.047.202-2.173.208-2.863 1.153-.608.832-.53 1.897-.678 2.866-.166 1.088-.826 1.933-1.649 2.63-.907.768-1.983 1.314-2.971 1.966-.944.623-1.84 1.341-2.539 2.238-1.373 1.762-2.091 4.349-1.182 6.481.078.182.402.093.38-.103-.123-1.065-.157-2.094.085-3.15.237-1.033.707-2.02 1.386-2.837 1.528-1.841 4.034-2.451 5.787-4.042.785-.712 1.446-1.616 1.669-2.669.183-.863.011-2.012.552-2.758.287-.395.763-.52 1.219-.605l1.694-.326c.967-.287 1.87-.753 2.663-1.375.873-.681 1.609-1.528 2.117-2.515.462-.897.829-1.982.655-2.996-.032-.194-.303-.157-.356-.001zm1.238.902c-1.877 2.039-1.485 5.182-.489 7.535 1.2 2.832 3.418 5.081 4.816 7.807 3.054 5.952.055 12.757 1.391 19.018.341 1.589.932 3.113 1.752 4.516.419.716.901 1.375 1.429 2.014.518.627 1.07 1.242 1.785 1.642.153.085.363-.094.253-.253-.397-.574-.884-1.069-1.327-1.608-.452-.552-.853-1.154-1.224-1.764-.747-1.229-1.317-2.557-1.693-3.946-.811-3.028-.507-6.186-.234-9.266.27-3.058.494-6.233-.55-9.182-1.011-2.855-3.137-5.051-4.729-7.57-1.637-2.591-2.657-5.977-1.003-8.804.064-.11-.09-.235-.18-.139h.003zm12.419 23.292c.023.433-.063.875-.078 1.31l-.053 1.148-.293 2.531-.727 4.728c-.125 1.353-.107 2.72.163 4.056.262 1.301.755 2.593 1.825 3.431.175.137.426-.029.317-.244-.587-1.154-1.135-2.325-1.367-3.609-.241-1.325-.214-2.705-.086-4.041l.656-4.632c.103-.792.18-1.584.183-2.383.001-.382-.015-.769-.065-1.148-.054-.407-.214-.773-.31-1.169-.022-.091-.17-.074-.165.022zm-22.3-31.752c1.14-.354 2.187-1.102 3.238-1.66l3.373-1.696c2.232-1.053 4.505-2.015 6.843-2.808 4.679-1.589 9.649-2.474 14.597-2.094 1.343.103 2.708.265 4.032.517 1.348.256 2.763.545 4.057 1.004.141.05.241-.181.102-.244-1.16-.526-2.275-1.038-3.505-1.386-1.188-.336-2.377-.602-3.605-.742-2.525-.289-5.09-.252-7.613.031-4.995.562-9.887 2.217-14.35 4.505-1.257.644-2.491 1.331-3.707 2.05l-1.877 1.146c-.585.368-1.192.726-1.674 1.226-.06.063 0 .178.087.15l.002.001zm10.721 5.429c.832-.385 1.603-.927 2.408-1.368l2.535-1.301 5.117-2.267c.078-.039.021-.15-.057-.134-1.844.371-3.601 1.2-5.286 2.015l-2.516 1.333c-.799.459-1.665.907-2.369 1.505-.129.109.035.279.167.218l.001-.001zm14.516 55.579c.22-.327.347-.719.492-1.083l.47-1.327c.223-.842.401-1.705.52-2.568.193-1.408.509-3.255-.747-4.286-1.314-1.079-3.039-.554-4.435.044-1.495.639-2.93 1.468-4.106 2.602-1.26 1.215-2.201 2.802-2.455 4.549-.045.31.077.615.403.709.271.078.664-.095.709-.403.408-2.774 2.543-4.738 4.934-5.96 1.088-.556 2.658-1.43 3.893-.877s.887 2.403.794 3.47l-.301 2.586-.142 1.246c-.057.415-.16.842-.155 1.262.001.07.09.089.127.034l-.001.002z" class="B"/><path d="M126.774 67.411c-1.283.973-2.74 1.434-4.289 1.813a38.53 38.53 0 0 0-4.889 1.541c-3.286 1.288-6.398 2.987-9.258 5.057-.683.495-1.365 1.001-2.007 1.55-.505.433-1.557 1.268-1.392 2.035.053.24.2.409.447.409.432 0 .659-.403.895-.698.522-.65 1.211-1.167 1.87-1.668 2.806-2.136 5.884-3.905 9.123-5.297 1.77-.76 3.588-1.334 5.416-1.931 1.572-.515 3.343-1.147 4.315-2.579.091-.134-.096-.333-.231-.23v-.002zm-18.228-25.219c.638.318 1.44.332 2.14.349a16.84 16.84 0 0 0 2.534-.125c.786-.108 1.567-.252 2.34-.431l1.219-.245c.392-.066.823-.037 1.176-.228.195-.105.121-.363-.056-.432-.327-.127-.684-.034-1.024.017l-1.22.234-2.389.467c-.797.11-1.601.171-2.406.183-.751.011-1.559-.108-2.295.057-.069.015-.084.122-.019.154z" class="B"/><path d="M111.055 36.357c-.944.421-1.438 1.526-1.588 2.496a5.39 5.39 0 0 0 .025 1.81c.097.53.219 1.327.679 1.664.135.099.384.001.409-.166.041-.273-.044-.49-.131-.746a7.06 7.06 0 0 1-.221-.794c-.111-.519-.168-1.061-.126-1.592.071-.915.503-1.76 1.19-2.365.18-.158-.049-.391-.237-.307z" class="B"/><path d="M110.34 35.623c.073.322.353.458.615.628l.964.664 1.986 1.362 1.882 1.478.886.794c.256.242.468.58.853.514.04-.01.077-.031.107-.06s.05-.066.06-.107c.077-.38-.268-.609-.518-.848l-.928-.84-1.895-1.45-2.01-1.32-1.068-.609c-.284-.167-.544-.377-.883-.293-.038.01-.058.05-.049.087h-.002z" class="B"/><path d="M117.058 40.587c-.248-.171-.565-.253-.847-.356l-.942-.359-1.8-.753-1.764-.769-.903-.4c-.294-.131-.576-.288-.902-.306-.161-.009-.235.203-.128.311.245.247.587.357.899.499l.897.409 1.803.824 1.753.713c.559.207 1.25.525 1.851.499.17-.007.218-.217.083-.31v-.002zM99.45 36.835c-.387.166-.59.537-.772.903a4.53 4.53 0 0 0-.405 1.231c-.159.891-.153 1.757.179 2.611.153.394.794.215.635-.175-.29-.71-.43-1.571-.307-2.332a4.69 4.69 0 0 1 .325-1.125c.074-.169.161-.332.258-.489.108-.174.174-.317.231-.515.026-.09-.07-.142-.144-.111v.002z" class="B"/><path d="M97.923 41.883c.226.107.492.074.735.077l.72-.021.719-.038c.254-.013.551.011.794-.069s.288-.485 0-.535c-.259-.045-.534.01-.794.032l-.719.063-.731.079c-.236.04-.517.036-.724.172-.079.052-.1.192 0 .24zm.535-5.25c.468.471 1.099.792 1.659 1.143l1.687 1.038c.164.101.424.347.626.234.277-.155.061-.55-.108-.693-.235-.2-.534-.342-.798-.502l-.858-.507-.955-.559c-.339-.196-.672-.393-1.047-.51-.206-.064-.352.209-.206.356zm.364 1.926c.186.163.46.21.69.287l.697.239.694.251c.228.086.485.23.734.162.026-.008.05-.021.07-.039s.036-.041.046-.065.014-.052.013-.079-.009-.053-.023-.077c-.137-.224-.424-.293-.657-.376l-.722-.246-.73-.216c-.237-.064-.492-.167-.739-.121-.122.023-.166.202-.075.282l.001-.001.001-.001zm-2.801 12.79c.564.896 1.361 1.612 2.313 2.075a5.65 5.65 0 0 0 1.493.485 6.12 6.12 0 0 0 .785.089c.246.012.582.04.788-.118.134-.104.17-.313 0-.41-.199-.113-.448-.088-.67-.093-.247-.005-.494-.028-.737-.07a6.19 6.19 0 0 1-1.393-.417c-.894-.386-1.694-.996-2.295-1.761-.127-.162-.391.047-.283.219l-.001.001z" class="B"/><path d="M98.402 53.039c-.011-.288.192-.507.446-.604.306-.116.648-.189.972-.222a4.83 4.83 0 0 1 1.049.017c.34.041.678.182 1.013.077.122-.038.206-.193.126-.31-.064-.094-.11-.164-.212-.224s-.207-.105-.318-.134c-.23-.062-.471-.098-.707-.12-.454-.04-.918 0-1.362.095-.403.085-.834.219-1.144.501-.148.134-.267.318-.306.516-.04.205.025.37.152.529.093.118.298.02.293-.12l-.002-.001zm3.777-14.736c-.046 1.213-.538 2.075-1.223 3.043l-1.892 2.698-1.88 2.705-1.003 1.442c-.255.373-.611.76-.599 1.23.001.062.063.119.127.097.431-.148.662-.582.916-.941l1.065-1.533 2.131-3.065 1.982-2.932c.48-.815 1.009-1.824.643-2.78-.054-.139-.261-.125-.267.036zm-3.776 23.289c.556.7 1.481 1.031 2.361.905.535-.077.954-.407 1.47-.533.636-.155 1.3.016 1.919.18 1.033.274 2.06.538 3.137.516.939-.019 2.105-.131 2.841-.772.092-.079.019-.247-.1-.242-.999.048-1.924.422-2.943.399-1.057-.024-2.056-.36-3.093-.519-.869-.133-1.814-.242-2.68-.035-.471.114-.869.268-1.364.253-.51-.015-.985-.139-1.469-.29-.085-.026-.126.078-.079.136l.001.001-.001.001zm-.622-1.484c.249-.304.564-.532.962-.58.499-.059.983.153 1.421.366.127.062.247.025.33-.086.372-.499 1.107-.465 1.641-.308.337.1.658.244.984.373.26.102.653.276.913.1.05-.033.073-.098.04-.152-.182-.297-.718-.394-1.024-.518-.39-.159-.78-.321-1.2-.377-.672-.089-1.359.072-1.772.639l.33-.086c-.555-.262-1.168-.464-1.787-.334-.459.096-.914.38-1.017.862-.02.094.105.191.178.103l.001-.002zm.6 4.22c.044.333.547.551.82.662.397.154.817.245 1.242.269.775.051 1.796-.123 2.312-.762.111-.136.011-.345-.175-.302-.349.082-.692.211-1.037.309s-.704.139-1.067.14c-.353.001-.7-.043-1.04-.141l-.519-.166c-.143-.051-.322-.134-.474-.089-.032.009-.067.044-.062.08zm.322-22.631a4.86 4.86 0 0 0-.003.987l.068.509c.024.149.102.311.234.394.037.024.086.006.108-.029.091-.14.083-.319.056-.476l-.061-.434-.081-.951c-.012-.21-.3-.203-.321 0z" class="B"/><path d="M98.375 52.36c-.345.031-.575.586-.712.857-.21.415-.372.852-.484 1.303-.251 1.008-.216 2.069-.111 3.095l.089.692c.031.196.039.52.171.679.058.07.152.113.24.084.164-.054.148-.27.146-.4-.01-.519-.109-1.037-.149-1.554-.041-.536-.053-1.077-.008-1.614.046-.573.164-1.138.352-1.682a8.33 8.33 0 0 1 .368-.848c.087-.18.225-.363.164-.564-.008-.026-.035-.051-.066-.048zm.4 12.084c-.145.434.115.951.198 1.382.122.632.095 1.249-.018 1.879-.182 1.013-.508 2.033-.336 3.072.145.873.659 1.591 1.334 2.142.619.505 1.522 1.164 2.351 1.175.185.003.265-.225.146-.353-.284-.306-.661-.447-1.026-.633-.397-.203-.79-.428-1.137-.709-.777-.628-1.157-1.479-1.107-2.478.05-.992.377-1.948.421-2.941.021-.491-.043-.981-.16-1.457-.096-.389-.195-.887-.533-1.134-.049-.036-.115.004-.132.054l-.001.001z" class="B"/><path opacity=".2" d="M112.361 57.463c6.306-.061 11.38-4.107 11.333-9.038s-5.199-8.878-11.505-8.817-11.381 4.107-11.333 9.038 5.198 8.878 11.505 8.817z" fill="url(#B)"/><path opacity=".2" d="M140.529 78.068c1.076-2.434-2.283-6.278-7.503-8.586s-10.324-2.207-11.4.226 2.282 6.278 7.502 8.586 10.324 2.207 11.401-.226z" fill="url(#C)"/><path d="M107.497 33.745c.38.224.859-.047 1.215-.193.476-.196.954-.354 1.463-.441 1.112-.192 2.213-.057 3.291.248 1.11.315 2.139.807 3.107 1.433.482.312.932.667 1.395 1.005.405.294.805.626 1.294.769.073.022.124-.047.113-.114-.095-.59-.526-1.084-.932-1.498-.431-.439-.952-.81-1.458-1.155-1.091-.744-2.343-1.447-3.613-1.827a7.18 7.18 0 0 0-3.879-.05c-.551.15-1.12.36-1.577.707-.219.166-.87.85-.418 1.117l-.001-.001zm-4.288.307c.046-.346-.316-.717-.552-.93-.259-.232-.535-.438-.846-.594-.569-.285-1.246-.461-1.884-.388-.366.042-.793.137-1.02.455-.136.191-.167.469.001.653.075.081.166.147.274.178a.76.76 0 0 0 .08.017l.155.021.125-.017c-.075.006.09-.006.115-.007l.196-.019.428-.016.205.011.078.008c-.136-.012-.044-.006-.014 0l.445.108.236.082.106.04c.104.038-.022-.012.04.017l.485.233.491.27.255.133c.132.063.24.056.38.035s.206-.17.222-.291l-.001.001z" class="B"/><g style="mix-blend-mode:darken" class="C B"><path d="M183.84 125.435c-.62.048-1.25.235-1.853.38l-1.813.516c-1.217.401-2.402.893-3.539 1.482-2.28 1.183-4.409 2.664-6.318 4.384l-1.503 1.464c-.264.278-.509.554-.716.878-.198.312-.315.612-.443.956-.102.275.251.512.483.372.517-.314.978-.647 1.391-1.096l1.322-1.348a28.09 28.09 0 0 1 2.757-2.342c1.969-1.462 4.119-2.64 6.35-3.65l1.961-.808 1.99-.675c.246-.102.253-.537-.069-.513z"/></g><g style="mix-blend-mode:darken" class="C B"><path d="M137.945 143.237c.102-.124.162-.29.127-.495-.314-1.855-.827-3.66-1.504-5.402l-.32-1.01c-.489-1.415-1.152-2.748-2.11-3.905-.058-.071-.127-.132-.188-.2l-.079-.124c.033-.172.007-.36-.12-.518l-.376-.448c.022-.158-.017-.318-.169-.437-.324-.255-.628-.53-.916-.817-.015-.05-.026-.099-.056-.15l-.103-.167c-.01-.023-.016-.048-.03-.071-.111-.208-.252-.404-.384-.598l-.891-1.238-.248-.31c-.206-.399-.459-.775-.763-1.116-.201-.226-.43-.411-.667-.589-.529-1.27-.988-2.568-1.374-3.892-.039-.134-.125-.228-.228-.295l.006-.02.549-1.583c.026-.07.034-.146.026-.22a.49.49 0 0 0-.076-.209c.421-2.144.524-4.35.286-6.527-.038-.348-.33-.526-.603-.525-.259-3.023-1.547-6.19-3.995-7.99-.12-.089-.267.04-.261.168-.277-.203-.525-.289-.617-.052-.014.036-.021.072-.024.107-.036.001-.072 0-.11.009-.187.037-.398.103-.597.082-.094-.01-.099.113-.042.157a3.5 3.5 0 0 1 .246.256c.068.34.283.496.596.699.299.195.576.418.832.667.535.518.953 1.131 1.275 1.8s.53 1.393.693 2.115c.133.584.236 1.206.488 1.758a26.35 26.35 0 0 1 .154 3.239l-.011.202c-.486 2.459-1.501 4.819-1.635 7.348-.081 1.546.27 3.118 1.181 4.388.266.369.57.699.889 1.014.847 1.055 1.955 1.862 3.022 2.69 1.202.933 2.284 1.975 3.165 3.222.874 1.236 1.576 2.587 2.181 3.973l.933 2.359c.392 1.59.675 3.365 1.691 4.674.126.162.399.022.395-.163-.018-.62-.116-1.239-.237-1.854l-.001-.002z"/></g><g style="mix-blend-mode:darken" class="C B"><path d="M192.951 128.762c-.025-.101-.161-.164-.252-.102-.623.427-.856 1.108-1.217 1.751l-1.157 1.907c-.686 1.032-1.463 2.001-2.296 2.918-.208-.231-.558-.319-.823-.019l-1.367 1.426c-.108-.029-.232-.012-.361.075l-4.879 3.255-2.619 1.12-3.543 1.579c-1.458.526-2.884 1.135-4.27 1.83-1.514.728-2.995 1.526-4.418 2.416-.038.023-.059.054-.089.081a.52.52 0 0 0-.643.091l-1.379 1.353c-.016-.003-.032-.01-.049-.011-.095-.003-.188.015-.279.046-.226.592-.762 1.012-1.242 1.396-.582.465-1.07.98-1.574 1.528l-.14.152 1.153-5.927c.791-4.138 1.759-8.252 3.599-12.064.481-.997 1.024-1.968 1.633-2.893.304-.461.633-.9.961-1.344.32-.433.709-.839.782-1.38.012-.086-.045-.147-.134-.133-.837.132-1.5 1.109-2.002 1.738-.596.748-1.144 1.534-1.636 2.355-.999 1.669-1.772 3.463-2.412 5.296-1.412 4.042-2.09 8.287-2.909 12.475l-.535 2.566c-.175.014-.332.106-.432.264-.128.201-.241.41-.362.616.372-.855.71-1.726.977-2.618.156-.522.273-1.055.367-1.591.078-.447.188-.975-.075-1.371-.019-.028-.059-.044-.09-.024-.312.214-.444.582-.563.934l-.463 1.369c-.309.863-.621 1.72-1.006 2.554-.782 1.688-1.733 3.301-2.848 4.789-2.198 2.932-5.013 5.401-8.231 7.154-1.741.948-3.589 1.655-5.508 2.143a.66.66 0 0 0-.317-.048c.053-.133.101-.27.145-.42.094-.314-.312-.534-.538-.313-.236.23-.452.443-.658.709-.199.258-.411.504-.63.745-.057.062-.119.119-.177.18-.642.335-1.293.648-1.967.911-2.06.805-4.224 1.279-6.43 1.417-2.456.154-4.938.12-7.398.092-2.478-.03-4.966-.114-7.429-.393-1.298-.147-2.594-.384-3.83-.816-.569-.199-1.118-.435-1.665-.686-.555-.256-1.05-.59-1.683-.541-.09.007-.148.08-.129.169.118.555.569.975 1.082 1.307.157.933.892 1.712 1.732 2.117.447.216.917.345 1.394.437.344.133.712.206 1.099.237.819.068 1.651.042 2.472.056l5.281.086 10.36.157c.704-.004 1.409-.028 2.112-.074.079.074.179.123.287.139.057.009.113.007.17.015.021.007.043.006.066.005 1.073.125 2.101-.028 3.089-.499.055-.026.093-.06.133-.094a.54.54 0 0 0 .254.042c.088-.007.172-.034.246-.08.408-.266.765-.588 1.073-.952-.034.343.359.59.673.527a2.64 2.64 0 0 0 1.035-.459 2.63 2.63 0 0 0 .749-.849c.276-.021.52-.18.763-.303.234-.117.472-.226.711-.335.229-.103.392-.17.656-.268.219-.081.445-.145.663-.227.135-.006.266-.056.369-.167.028-.03.05-.066.069-.103.874-.532 1.717-1.115 2.522-1.747.564-.27 1.074-.618 1.376-1.164.127-.116.259-.226.383-.344.194-.184.377-.376.563-.565.201.191.523.258.785.012l.641-.624c.032-.012.063-.015.095-.033.829-.458 1.493-1.168 1.87-2.039.431-.368.798-.788 1.07-1.277.053-.095.065-.192.06-.287a24.48 24.48 0 0 0 1.079-1.651 25.23 25.23 0 0 0 2.154-3.278c-.014.181.044.357.208.484.009.007.02.008.029.014-.011.023-.026.044-.037.067-.107.225-.357.247-.526.155-.149.26-.291.524-.418.797l-.313.588a11.09 11.09 0 0 0-1.058 2.015l-.009.012.003.001c-.018.045-.041.086-.059.131a.42.42 0 0 0 .153.54c.263-.092.551-.114.837-.11l1.574.033c1.255.017 2.511.05 3.764-.024.02-.004.037-.011.057-.011h.2c.048-.001.096.011.139.035.085-.003.169-.005.251-.005.031-.07.059-.141.093-.21.324-.668.688-1.317 1.083-1.946.8-1.273 1.736-2.45 2.759-3.55 2.112-2.269 4.559-4.199 7.09-5.977 5.069-3.563 10.565-6.59 14.974-11.01 1.2-1.203 2.307-2.503 3.252-3.916.462-.691.894-1.404 1.245-2.157.349-.747.812-1.545.608-2.381l.002.001zm-53.217 39.908c-.073.085-.13.184-.199.274-.044.023-.085.053-.128.079-.033-.116-.1-.219-.192-.295.006-.095-.017-.186-.056-.271.239-.127.475-.257.709-.392.052-.03.103-.064.156-.099a2.24 2.24 0 0 0-.29.704z"/></g><g style="mix-blend-mode:darken" class="C B"><path d="M102.208 123.214c.044-.282-.043-.544-.28-.693-.107-.552-.961-.867-1.229-.245-.015.034-.035.065-.05.099a.73.73 0 0 0-.13.256c-.744 1.574-1.791 2.903-3.12 4.043l-.133.085c-1.648.966-3.76 2.152-3.606 4.385.031.455.588.798.97.619.034.035.073.066.114.092.224.413.946.401 1.111-.129l.537-1.605c.753-.966 1.836-1.708 2.773-2.454.734-.583 1.43-1.234 1.964-1.984.289-.346.519-.73.682-1.148.192-.42.326-.864.397-1.321z"/></g><g style="mix-blend-mode:darken" class="C B"><path d="M152.94 81.466c-.014-.124-.035-.216-.111-.314-.023-.039-.055-.07-.094-.093-.066-.037-.071-.049-.016-.036-.039-.24-.35-.222-.46-.058-.012.014-.019.031-.026.047-.211.121-.312.271-.394.554l-.265 1.04c-.174.674-.394 1.335-.66 1.979a15.2 15.2 0 0 1-1.69 3.03c-.013.001-.024-.002-.038 0-.453.061-.527.601-.518.967.013.552.513.746.921.582l.053.283.244 1.315c.139.923.165 1.865.116 2.797-.048.908-.188 1.804-.422 2.683-.135.51-.3 1.068-.638 1.483-.201.134-.377.3-.563.482-.2.195-.232.441-.165.658-.238.176-.433.461-.587.666l-.771 1.039-.829 1.022-.442.601c-.128.179-.328.408-.301.64.021.186.134.321.332.332.249.013.469-.204.645-.359l.504-.476c.324-.357.618-.745.91-1.128l.786-1.1c.128-.203.289-.462.368-.725a.62.62 0 0 0 .387-.085c.011-.006.018-.015.028-.022l.27 1.639.167 2.138c.024.688.006 1.381-.177 2.049-.092.334-.223.639-.38.948-.154.302-.285.637-.152.974a.52.52 0 0 0 .234.273c.05.322.156.639.236.953l.263 1.198c.097.559.139 1.121.15 1.685-.077.054-.142.124-.19.205-.188.321-.073.745.245.934l.289.17c.454.269.995-.069 1.033-.568.108-.089.187-.195.231-.327.043-.082.063-.174.058-.267s-.035-.182-.087-.258c.094-.782.062-1.568-.111-2.344-.16-.713-.432-1.518-.891-2.133.162-.314.274-.661.356-.933.229-.748.288-1.547.276-2.325-.014-.802-.093-1.599-.202-2.394-.114-.826-.207-1.716-.546-2.483-.023-.052-.056-.088-.088-.125.236-.368.415-.778.552-1.205.324-1.006.497-2.071.582-3.123s.033-2.113-.113-3.16c-.075-.542-.172-1.09-.337-1.612-.107-.345-.24-.715-.493-.963a15.53 15.53 0 0 0 1.659-3.114c.262-.666.478-1.352.644-2.048a10.83 10.83 0 0 0 .191-1.088c.022-.165.046-.333.027-.5z"/></g><g style="mix-blend-mode:darken" class="C B"><path d="M133.108 60.281c-.165-.098-.315-.214-.468-.326-.868-.762-1.584-1.659-2.137-2.65a8.74 8.74 0 0 1-.777-2.798c-.142-1.359-.043-2.733.207-4.072.247-1.324.558-2.625.328-3.968-.004-.099-.02-.199-.027-.299l-.909-1.349c-.259.093-.484.307-.505.613l-.341 2.842-.763 3.4a.64.64 0 0 0 .203.646 11.5 11.5 0 0 0 .187 2.241l.026.111.003.25c.091 2.415 1.155 4.918 3.409 5.973-.054.431.283.927.831.779l.572-.153c.568-.152.662-.946.162-1.242l-.001.001v.001z"/></g><g style="mix-blend-mode:darken" class="C B"><path d="M92.233 111.648l-.264.327.719-1.216c.171-.318-.244-.662-.508-.392-1.588 1.614-2.803 3.644-3.964 5.577a67.78 67.78 0 0 0-3.246 6.082c-1.931 4.114-3.475 8.415-4.571 12.827-.627 2.523-1.099 5.081-1.441 7.658-.071.537.632.66.955.396.848-.695 1.515-1.595 1.948-2.598.048-.033.095-.067.145-.099a.54.54 0 0 0 .223-.077.53.53 0 0 0 .168-.166l.023-.037a7.97 7.97 0 0 0 1.173-.988c.252-.264.52-.551.709-.865a1.86 1.86 0 0 0 .182-.428c1.208-1.323 2.105-2.899 2.624-4.614s.65-3.523.38-5.294l1.178-4.608a9.94 9.94 0 0 1 1.066-1.295c.422-.429-.017-1.031-.481-.993l.618-2.416c.063-.244-.045-.49-.226-.64l.179-.332c.167.012.34-.07.4-.272a10.55 10.55 0 0 0 .221-.883l.258-.479-.031.2c-.006.037.049.054.058.016.034-.155.063-.315.109-.468l.329-.613c.547-.981 1.157-1.971 1.588-3.008.12-.288-.322-.524-.518-.301l-.003-.001z"/></g><g style="mix-blend-mode:darken" class="C B"><path d="M41.423 155.314c.021-.211-.086-.382-.246-.487l.051-.247c.022-.199-.03-.391-.116-.565a1.96 1.96 0 0 0-.024-.351l.224-.74c.155-.512-.578-.801-.85-.357-.034.055-.055.117-.084.174-.025.002-.049 0-.075.007-.17.047-.337.231-.317.417l.035.414c-.06.052-.11.116-.131.203-.226.928-.631 1.803-1.193 2.575l-.401.496c-.531.605-1.161 1.124-1.887 1.517a.48.48 0 0 0-.124.102l-.568.245-.527.269-1.779.516-2.96.857c-.361.105-.859.208-1.231.418l.043-3.801c.011-1.376.106-2.735.27-4.1a8.67 8.67 0 0 0 .157-1.314l.127-1.029c.064-.549.235-1.188-.078-1.658.118-.09.212-.214.247-.388.05-.06.089-.131.133-.197a.54.54 0 0 0 .306-.138 1.2 1.2 0 0 0 .285-.454c.017-.046.029-.093.036-.141.014-.093.029-.185.02-.279.003-.069-.012-.132-.043-.192-.02-.061-.055-.116-.103-.16l-.012-.01.014-.077c.187-1.497.202-3.033.296-4.538l.291-4.65.265-4.026c.006-.016.009-.033.015-.049a.47.47 0 0 0 .106-.116.85.85 0 0 0 .113-.228c.025-.077.03-.165.04-.248l-.02.145c.016-.118.041-.234.077-.347l.05-.165.041-.175a.48.48 0 0 0-.103-.441c-.052-.059-.118-.105-.192-.133s-.154-.036-.232-.026c-.109.015-.199.072-.274.149-.081.07-.163.161-.221.263-.008.013-.013.03-.02.044-.136.001-.271.03-.384.115-.104-.072-.226-.113-.353-.118a.6.6 0 0 0-.361.118c-.01.007-.021.005-.032.004-.549-.055-.555 1.914-.581 2.222l-.165 1.978-.283 4.043-.231 3.958-.145 2.064c-.047.663-.191 1.405-.113 2.065.008.072.04.132.079.185-.095.195-.327.254-.493.179l-.215.259-.104.114c-.003.005-.021.023-.036.04l-.116.872c-.551 2.533-.294 5.201-1.146 7.678-.725 2.107-2.395 3.829-4.418 4.736a7.6 7.6 0 0 1-1.492.475l.008-.181c-.018-1.195-.752-2.163-1.561-2.992.301-.401.423-.92.367-1.452l-.009-.102c-.004-.026-.002-.052-.007-.079l-.013-.051a2.52 2.52 0 0 0-.12-.484c-.339-.888-.859-1.702-1.423-2.462l-1.749-2.164-1.171-1.449c.315-.503.367-1.128.259-1.719l-.195-.692c-.053-.171-.017-.352.148-.444a.62.62 0 0 0-.359.03.64.64 0 0 0-.357.415l-.487-.614-.398-.15c-.216.151-.495.075-.747-.055l-.454.061.085.124.147.177c-.032.021-.059.048-.086.074.019.117.017.239-.024.351-.02.057-.052.11-.081.164-.005.009-.013.029-.015.034l-.012.032c-.006.015-.017.027-.025.041-.065.419-.018.862.016 1.3l.454.592.935 1.247 1.959 2.542 1.859 2.419c.217.297.481.647.517 1.027.017.177-.022.504-.222.578-.467.173-.709.771-.305 1.156.669.638 1.515 1.38 1.675 2.344.109.656-.196 1.373-.875 1.52-.245.053-.396.237-.456.452l-.56-.055-.912-.086-.462-.044c-.022-.038-.036-.081-.066-.111-.249-.251-.581-.228-.819-.062-.107.014-.226.01-.339-.035a1.15 1.15 0 0 1-.253-.16c-.069-.056-.226-.153-.285-.223l-.003.003c-.065-.071-.156-.117-.272-.117-.189 0-.417.179-.39.39.015.119 0 .229.038.348.043.134.117.247.209.353a1.5 1.5 0 0 0 .536.386c.253.113.51.163.767.156.292.186.726.186 1.052.221l1.489.157.768.077c.209.019.425.041.609-.038.065.028.132.052.209.051l.056-.001.044.01.6.057c.135.014.241-.02.329-.073.744.476 1.631.403 2.48.158l.253-.084.377-.013c.213-.014.423-.047.632-.079.615.142 1.259.102 1.852-.114a1.52 1.52 0 0 0 .694-.132c.079.017.16.022.24.015a1.06 1.06 0 0 0 .164.197c.375.336.968.155 1.073-.318.343.19.816.072.938-.361.292-1.04.457-2.094.549-3.157.019 0 .04-.004.059-.006.053-.006.083 0 .119-.012.072-.011.138-.03.201-.062l.704-.215.565-.079 1.753-.29c2.389-.459 4.729-1.121 7.012-1.96.076-.029.145-.074.202-.132s.103-.126.133-.202a.59.59 0 0 0-.018-.472c.077-.053.127-.124.164-.201.57-.65 1.004-1.401 1.267-2.228.024-.077.024-.151.011-.224.104-.259.158-.529.111-.794z"/></g><g style="mix-blend-mode:darken" class="C B"><path d="M141.963 74.788c-.509.228-.946.618-1.378.969l-1.343.992c-.935.63-1.919 1.185-2.929 1.685-2.046 1.012-4.198 1.789-6.351 2.539-4.012 1.398-9.129 2.643-11.23 6.764a7.45 7.45 0 0 0-.817 3.036c-.07.364-.1.735-.089 1.105-.023.326-.035.652-.024.978.014.407.046.838.125 1.244-.069.016-.129.065-.151.15-.041.153-.142.247-.131.424a3.2 3.2 0 0 0 .124.611c.128.468.296.926.434 1.391.271.911.497 1.835.676 2.768.175.909.318 1.82.408 2.742a27.43 27.43 0 0 1 .104 1.461c.02.451-.075.989.291 1.315.197.176.481.187.677 0 .366-.348.254-.853.231-1.315-.024-.488-.061-.975-.11-1.461-.067-.658-.161-1.313-.271-1.966.13.582.244 1.168.33 1.758l.181 1.8c.077.741 1.166.793 1.217.08.253.254.692.264.907.017.396.237.955-.204.677-.653s-.425-.945-.436-1.46c.033-.153.026-.311-.02-.459-.058-.189-.175-.305-.312-.369-.017-.078-.036-.155-.059-.231l-.247-2.505c-.026-.26-.184-.428-.375-.515a92.25 92.25 0 0 0-.624-2.746c-.075-.316-.374-.446-.655-.424a.8.8 0 0 0-.214-.274c-.391-.309-.723.005-.772.314-.183-.313-.575-.301-.842-.121-.003-.07-.003-.139-.009-.21-.002-.025-.006-.05-.008-.075.23.018.481-.125.511-.43.186-1.833.421-3.65.769-5.459.233-.382.525-.734.895-1.044.179-.15-.052-.44-.247-.32-.05.031-.094.066-.142.098.993-1.143 2.309-1.98 3.69-2.634 1.972-.933 4.089-1.549 6.146-2.264 2.076-.721 4.141-1.497 6.117-2.465 1.096-.537 2.164-1.137 3.175-1.824.938-.637 2.168-1.393 2.679-2.441.193-.395-.191-.751-.577-.577h-.001v.002z"/></g><g style="mix-blend-mode:darken" class="C B"><path d="M143.935 64.296c-.204-.125-.448-.105-.585.088-.036.05-.024.098.002.138a4.02 4.02 0 0 0-.221.455l-.51 1.334-.947 2.606c-.242.68-.454 1.385-.802 2.022-.155.283-.331.546-.569.767s-.386.471-.597.716c-.128.148-.087.391.117.446.422.112.871.081 1.212-.203s.604-.641.821-1.017c.495-.863.774-1.852 1.103-2.785l1.145-3.37c.122-.397.276-.926-.169-1.197z"/></g><g style="mix-blend-mode:darken" class="C B"><path d="M139.703 61.818c-.083-.441-.214-.634-.654-.758-.049-.014-.107 0-.142.038-.258.272-.299.428-.271.794a7.29 7.29 0 0 1 .009.923c-.033.627-.17 1.242-.32 1.849-.303 1.228-.761 2.399-1.106 3.612-.082.288-.415 1.075.053 1.23.486.161.86-.712 1.014-1.023.561-1.126.927-2.352 1.196-3.578.15-.686.278-1.387.299-2.09.01-.336-.016-.666-.078-.997z"/></g><g style="mix-blend-mode:darken" class="C B"><path d="M133.42 62.07c-.125-.235-.575-.212-.615.08-.133.982-.024 1.975-.133 2.962s-.418 1.931-.695 2.877c-.086.296-.415.911.006 1.102.432.197.743-.507.906-.781.525-.874.75-1.905.877-2.906.14-1.097.187-2.332-.346-3.334z"/></g><g style="mix-blend-mode:darken" class="C B"><path d="M115.292 19.036c-.04.05-.071.109-.109.162-.003-.05.006-.104 0-.153-.003-.203-.061-.406-.196-.549-.285-.3-.768-.134-.885.233-.116.361-.114.753-.208 1.122a4.98 4.98 0 0 1-.384 1.034 6.32 6.32 0 0 1-1.402 1.836c-.547.495-1.191.871-1.891 1.105-.81.264-1.608.165-2.431.308-.893.156-1.488.817-1.772 1.647-.315.918-.081 1.889-.281 2.819-.342 1.597-1.895 2.596-3.233 3.317l-2.858 1.668c-.751.354-1.304.915-1.65 1.672l-.038.052c-.012.054-.042.097-.063.148-.144.37.09.634.393.719.061.404.642.544.93.267.314-.302.493-.693.781-1.019a6.4 6.4 0 0 1 .943-.865c.714-.537 1.506-.962 2.276-1.409 1.459-.848 2.957-1.9 3.607-3.524.318-.795.302-1.643.468-2.471.171-.853.619-1.274 1.493-1.368.84-.091 1.668-.066 2.474-.364a6.19 6.19 0 0 0 2.029-1.255c.681-.621 1.229-1.38 1.671-2.185.425-.774.952-1.808.91-2.712-.012-.26-.377-.479-.572-.237l-.002.002z"/></g><g style="mix-blend-mode:darken" class="C B"><path d="M155.717 72.392c-.363-.119-.6.109-.856.339l-.673.568c-.535.38-1.119.695-1.718.962-.58.259-1.184.469-1.783.68l-1.048.365c-.417.145-.846.256-1.105.639-.167.248.011.564.264.647.426.141.873-.07 1.277-.205l1.174-.395a17.48 17.48 0 0 0 2.045-.841c.632-.312 1.223-.687 1.75-1.158.269-.241.535-.505.72-.818.107-.18.267-.681-.047-.783z"/></g><g style="mix-blend-mode:darken" class="C B"><path d="M151.343 81.919c.011-.065-.026-.109-.089-.117-.125-.016-.218-.032-.323-.016-.35-.038-.769.275-1.063.421-.357.176-.723.325-1.099.453a8.63 8.63 0 0 1-1.156.307l-.588.103c-.115.026-.234.047-.34.1-.122.062-.173.147-.259.246s-.103.251 0 .346c.096.089.168.18.298.224a1.16 1.16 0 0 0 .352.043c.244.004.485-.04.725-.084a8.56 8.56 0 0 0 1.271-.338c.414-.145.821-.329 1.209-.538.326-.175.807-.414.95-.783.073-.11.085-.208.112-.367z"/></g><g style="mix-blend-mode:darken" class="C B"><path d="M148.846 89.341c-.114-.155-.295-.241-.483-.158-.163.071-.294.274-.225.456.096.251-.078.566-.227.795-.231.356-.51.691-.784 1.014-.587.693-1.312 1.274-1.842 2.008-.1.139-.053.36.062.474.129.129.316.137.474.061.471-.225.863-.584 1.225-.957.354-.364.688-.748 1.001-1.148.499-.637 1.408-1.708.799-2.546v.001z"/></g><g style="mix-blend-mode:darken" class="C B"><path d="M148.745 107.768c-.004-.077.001-.143-.055-.22-.036-.048-.085-.11-.152-.11a.35.35 0 0 0-.245.085l.139-.037c-.056 0-.102.023-.149.046-.028.025-.057.042-.086.08l.078-.078c-.204.103-.333.378-.446.562l-.41.642-.209.291c-.004.007-.053.071-.033.045s-.029.037-.034.043l-.127.156c-.173.208-.389.405-.529.637-.217.358.226.837.592.592.233-.156.415-.393.585-.612l.495-.693c.136-.214.264-.434.372-.664.066-.138.126-.281.173-.426.039-.121.062-.232.041-.339z"/></g><g style="mix-blend-mode:darken" class="C B"><path d="M148.291 107.522l-.018.011c.012-.006.015-.009.019-.012l-.001.001z"/></g><g style="mix-blend-mode:darken" class="C B"><path d="M144.774 112.587c-.071-.263-.299-.381-.543-.445-.565-.148-1.049-.339-1.555-.6-.282-.146-.556-.309-.818-.488-.234-.159-.489-.392-.771-.479-.152-.1-.279-.18-.457-.154-.176-.033-.317.113-.269.291-.013.176.072.311.183.447.105.275.424.508.639.672.228.174.464.336.709.484a8 8 0 0 0 1.656.752c.332.109.747.282 1.051.034.159-.13.229-.311.175-.514z"/></g><g style="mix-blend-mode:darken" class="C B"><path d="M144.301 106.063c-.197-.084-.435-.114-.624-.002l-.203-.059-.306-.103-.151-.057c-.002-.002-.036-.016-.05-.021-.384-.162-.752-.368-1.096-.602-.329-.224-.605-.442-.896-.724l-.448-.418-.28-.224c-.076-.055-.174-.096-.241-.156-.179-.156-.504-.01-.423.246.036.116.043.238.082.357.045.135.104.264.175.387.139.24.323.457.514.657.367.385.78.722 1.228 1.009a7.19 7.19 0 0 0 1.435.699c.248.09.526.199.793.199.416 0 .742-.282.772-.698.013-.176-.113-.42-.281-.491v.001z"/></g><g style="mix-blend-mode:darken" class="C B"><path d="M143.06 98.249c.099.233-.013-.07-.025-.091a.28.28 0 0 0-.094-.102l-.137-.192c-.076-.076-.087-.072-.149-.116-.244-.169-.422-.191-.686-.325l-.596-.343-.519-.366c-.365-.295-.699-.627-.995-.991l-.408-.551-.234-.279c-.116-.114-.268-.138-.421-.144l-.02-.036c-.078-.138-.321-.045-.263.112l.02.055c-.097.144-.165.3-.121.481.034.139.103.283.163.41.103.226.262.428.413.624.327.428.691.822 1.106 1.167.408.339.843.636 1.318.875.253.127.536.288.816.331.192.03.355-.028.496-.064a.75.75 0 0 0 .136-.028c.045-.015.084-.04.118-.076.079-.098.076-.099-.009-.003.124-.088.15-.212.092-.35l-.001.002z"/></g><g style="mix-blend-mode:darken" class="C B"><path d="M142.585 88.497c-.529-.628-.978-1.27-1.28-2.041a6.82 6.82 0 0 1-.352-1.221l-.096-.626c-.015-.1-.02-.211-.049-.308-.056-.184-.196-.266-.346-.368-.055-.038-.148-.038-.203 0-.172.118-.314.215-.354.43-.021.112-.024.226-.026.34a4.73 4.73 0 0 0 .071.769c.069.459.184.91.344 1.346.326.884.84 1.79 1.525 2.447.211.203.557.21.766 0 .222-.222.189-.544 0-.768z"/></g><g style="mix-blend-mode:darken" class="C B"><path d="M144.849 78.893l-.54-1.191a8.44 8.44 0 0 1-.345-1.262c-.079-.414-.11-.834-.131-1.255l-.027-.61c-.008-.184 0-.351-.074-.505-.012-.313-.386-.344-.498-.095-.278.268-.306.864-.335 1.209-.041.482 0 .962.066 1.441.065.463.17.916.324 1.358.15.436.32.943.598 1.315.156.21.399.329.658.216.218-.096.404-.375.305-.622l-.001.001z"/></g><g style="mix-blend-mode:darken" class="C B"><path d="M159.004 58.564l-.342.263.23-.425c.059-.123.059-.264-.014-.377.007-.122-.13-.251-.246-.163-.115-.008-.244.024-.309.102-.578.692-1.016 1.499-1.437 2.293l-.602 1.207c-.158.347-.426.893-.231 1.266.016.03.048.047.077.066-.002.094.011.185.051.267.071.148.212.231.376.185.19-.053.314-.262.394-.428l.939-1.88c.42-.689.924-1.345 1.42-1.979.159-.203-.051-.582-.306-.397z"/></g><g style="mix-blend-mode:darken" class="C B"><path d="M97.825 115.696c-.668-.373-1.255-.818-1.696-1.398-.235-.313-.437-.65-.603-1.004-.172-.362-.32-.732-.649-.93-.074-.045-.154-.01-.201.053s-.075.134-.086.21c-.184.383-.004.864.15 1.234a5.2 5.2 0 0 0 .624 1.104c.501.675 1.151 1.296 1.922 1.652.261.121.575.074.73-.191a.54.54 0 0 0-.191-.73z"/></g><g style="mix-blend-mode:darken" class="C B"><path d="M98.562 106.875c-.178-.438-.513-.822-.767-1.22l-.747-1.234-.662-1.231-.477-.936c.001-.009.008-.013.008-.022-.004-.216-.161-.277-.335-.336-.148-.049-.372.03-.439.179-.109.244-.094.449-.005.698l.288.725.654 1.336.72 1.249.403.624c.15.224.294.489.499.667.174.151.416.201.623.08.18-.105.32-.373.236-.581l.001.002z"/></g><g style="mix-blend-mode:darken" class="C B"><path d="M99.742 97.741c-.343-.529-.646-1.087-.89-1.668-.237-.565-.421-1.155-.566-1.749-.068-.278-.118-.554-.108-.842.008-.214.016-.643-.294-.669l-.129-.011c-.148-.013-.304.091-.375.215-.32.563-.145 1.294-.01 1.889.143.631.362 1.244.616 1.838.242.57.531 1.119.863 1.642a6.17 6.17 0 0 0 .582.798c.242.27.455.428.82.441.17.006.275-.139.291-.291.062-.596-.492-1.118-.8-1.593z"/></g><g style="mix-blend-mode:darken" class="C B"><path d="M102.018 86.954a8 8 0 0 1-.412-1.233c-.105-.42-.176-.846-.242-1.273l-.072-.618c-.012-.121-.012-.246-.068-.356-.044-.087-.109-.157-.15-.249-.056-.121-.229-.097-.291 0-.073.114-.177.205-.223.335-.036.107-.035.244-.046.357a6.97 6.97 0 0 0-.025.693c.005.474.084.951.191 1.412.104.45.246.892.421 1.32.182.446.371.946.792 1.216.246.158.622-.046.602-.345-.031-.457-.3-.845-.478-1.258l.001-.001z"/></g><g style="mix-blend-mode:darken" class="C B"><path d="M123.255 146.286c-.72-1.085-1.694-1.995-2.843-2.61-.074-.039-.158-.05-.24-.046l-.031-.043-2.414-3.285-4.727-6.845a189.76 189.76 0 0 1-8.409-14.159c-1.443-2.681-2.824-5.565-2.67-8.687.028-.553-.794-.534-.848 0-.278 2.749.663 5.402 1.822 7.851l3.973 7.465c2.774 4.863 5.823 9.571 9.082 14.122.916 1.28 1.855 2.544 2.819 3.79.488.63.992 1.248 1.51 1.855.503.588.97 1.202 1.687 1.532.061.028.119.022.171.002.045.036.087.073.133.107.091.068.19.134.302.159.232.054.51-.033.628-.255.036-.069.058-.144.064-.222s-.002-.155-.026-.229c.097-.148.12-.349.017-.502z"/></g></g><g class="B"><path d="M156.001 158h39l.65 2H154.5l1.501-2zm-56.782 0h5.686l.095 2h-5.5l-.281-2z"/></g></g><defs><radialGradient id="B" cx="0" cy="0" r="1" gradientUnits="userSpaceOnUse" gradientTransform="translate(112.267 48.5312) rotate(-0.553) scale(11.4159 8.92799)"><stop offset=".001" stop-color="#6b3737"/><stop offset=".184" stop-color="#6b3837" stop-opacity=".961"/><stop offset=".374" stop-color="#6e3e3a" stop-opacity=".844"/><stop offset=".567" stop-color="#73463e" stop-opacity=".649"/><stop offset=".763" stop-color="#795344" stop-opacity=".376"/><stop offset=".96" stop-color="#81624b" stop-opacity=".029"/><stop offset=".974" stop-color="#82644c" stop-opacity="0"/></radialGradient><radialGradient id="C" cx="0" cy="0" r="1" gradientUnits="userSpaceOnUse" gradientTransform="translate(131.084 73.8997) rotate(23.858) scale(10.3373 4.81828)"><stop offset=".001" stop-color="#6b3737"/><stop offset=".184" stop-color="#6b3837" stop-opacity=".961"/><stop offset=".374" stop-color="#6e3e3a" stop-opacity=".844"/><stop offset=".567" stop-color="#73463e" stop-opacity=".649"/><stop offset=".763" stop-color="#795344" stop-opacity=".376"/><stop offset=".96" stop-color="#81624b" stop-opacity=".029"/><stop offset=".974" stop-color="#82644c" stop-opacity="0"/></radialGradient><clipPath id="D"><path fill="#fff" d="M0 0h198v172H0z"/></clipPath></defs></svg>