<svg xmlns="http://www.w3.org/2000/svg" width="262" height="349" fill="none" xmlns:v="https://vecta.io/nano"><g clip-path="url(#C)"><path d="M241.506 226.252l-.187.324-.151.343c-3.788 8.6-11.984 17.558-23.811 25.62-11.735 8.001-26.582 14.794-42.924 19.281-32.824 9.01-70.507 8.427-100.36-8.809C13.013 227.759-9.444 154.421 22.19 99.63c15.54-26.915 50.194-45.749 83.8-51.111 16.683-2.662 32.432-1.876 44.79 2.435 12.222 4.264 20.798 11.804 24.492 22.791l1.864 5.543 5.772-.936c29.818-4.836 52.421 16.146 63.915 48.407 11.461 32.168 10.363 72.336-5.317 99.493z" stroke="#fff" stroke-width="13.783"/><path d="M170.496 262.892c2.677 8.077-29.995 16.108-29.995 16.108s-37.308-.029-35.602-5.735c2.454-8.216 4.227-16.579 5.309-25.056-.007-.297.001-.602.038-.918l.782-7.252.085-1.046c.016-.24.044-.478.078-.714l.56-6.211.735.722c.786.802 1.524 1.595 2.195 2.493.489.652 1.198 1.752 2.135 1.693.431-.026.314-.688-.113-.661-.285.018-.611-.382-.779-.564-.296-.321-.56-.673-.821-1.024-.622-.837-1.322-1.569-2.051-2.314a54.6 54.6 0 0 0-1.232-1.222l.354-4.533c.249-5.749.275-11.506.122-17.265-.292-3.632-.775-7.243-1.506-10.834-1.191-5.849-3.228-11.483-3.978-17.419-.717-5.675-.319-11.487 1.283-16.996l.039-.128c-.331-5.147 2.943-10.396 4.143-15.334.677-2.789 1.23-5.616 1.7-8.456-.271-1.216-.282-2.52-.065-3.824.829-4.994.785-10.09.264-15.115-.308-.25-.539-.602-.623-1.078l-.573-3.258c-.024-.028-.051-.05-.073-.08a5.22 5.22 0 0 1-.827-1.719c-.08-.287.024-.583.227-.783l-.157-.175c-.478-.542-.609-1.217-.5-1.845-.075-.118-.145-.238-.226-.351-.151-.213-.303-.405-.415-.613l-.551-.367c-.318-.212-.498-.588-.393-.968.108-.396.444-.581.826-.629.192-.024.361.004.518.054.461-.392 1.121-.526 1.727-.186.464.26.728.701.802 1.165.269.047.548.157.827.351.152.105.306.201.459.301.278-.049.58-.05.904.018 2.352.497 4.897 1.209 7.163 2.331.24.038.477.084.71.143 1.065-.245 2.175-.325 3.254-.21.77.081 1.479.244 2.133.468a10.37 10.37 0 0 1 1.049-.193c.6-.077 1.192-.098 1.772-.068.537-.334 1.119-.599 1.76-.745a8.88 8.88 0 0 1 3.124-.142 10.21 10.21 0 0 1 1.034-.13c1.769-.706 3.471-1.522 5.173-2.497 6.302-3.61 12.669 2.824 11.119 8.625.082 5.208-.256 10.454-.55 15.695a.31.31 0 0 0-.006.123c-.189 3.362-.357 6.722-.381 10.069a138.48 138.48 0 0 0 .079 5.346c-.277.839-.38 1.684.113 2.514.807 1.359 2.678 1.369 3.586 2.605.117.159.328.135.472.042.602-.39.956-.934 1.153-1.555.863.898 1.553 2.013 2.03 3.259.239.625.461 1.253.674 1.883.711.813 1.214 1.849 1.399 3.126l.706 5.369.343 2.64c.016.126.018.245.027.368.291.786.486 1.622.563 2.488.119 1.347.151 2.683.122 4.014.014.28.013.562-.02.847l-.01.08-.016.313.035 2.387a8.51 8.51 0 0 1-.168 1.83c.049 2.779-.349 5.589-1.216 8.229-.027.083-.061.157-.09.238l-.018.098a5.29 5.29 0 0 1-.031.698c-.285 2.53-.635 4.867-1.565 7.233a9.69 9.69 0 0 1-.235.535l-.007.014c-.009.644-.106 1.291-.326 1.924l-.283.812c-.045.208-.096.41-.157.605l-.37 1.671c-.169.758-.469 1.455-.872 2.082l-.848 3.352c-.054.214-.119.417-.185.618.145.957.108 2.001-.171 3.125l-.97 3.91c-.074 1.779-.253 3.537-.479 5.295l-.082 4.248c-.005.154-.024.299-.035.448a92.16 92.16 0 0 1 1.475 10.237c1.217.279 2.357.88 3.299 1.808 1.805 1.175 3.205 2.92 3.823 5.265 1.622 6.152 3.264 12.246 5.269 18.298z" fill="#a9a9a9"/><g fill="#93153c"><path d="M106.437 227.99c.754.366 1.453.809 2.124 1.298a3.61 3.61 0 0 1 .493.731c2.094 4.129.326 10.205-.472 14.576-.815 4.46-1.766 8.902-2.8 13.317-2.046 8.733-2.042 8.718-5.282 17.088.212-.62-40.404-16.053-40-16.5 5.119-12.435 2.279-2.452 6.862-15.097.001-.644.139-1.322.445-2.016a4.5 4.5 0 0 1 .15-.613l.729-2.241a5.71 5.71 0 0 1 .113-1.19c.668-3.325.177-6.987.74-10.345-.655.116-1.366.104-2.131-.071-2.573-.586-3.988-3.437-3.449-5.89a12.5 12.5 0 0 1-.159-.845c-.187-.48-.311-1.014-.354-1.605-.401-5.58-2.523-10.949-6.109-15.251a6.86 6.86 0 0 1-.262-.337l-.068-.035-.246-.087c-.221-.068-.453-.149-.646-.277-.384-.256-.682-.605-.802-1.058a1.56 1.56 0 0 1 .007-.829c.056-.196.09-.252.163-.373l.001-.001c.094-.157.203-.265.327-.367l-.089.069.165-.14c-.058-.876.129-1.754.68-2.529 1.947-2.735 1.349-6.325 1.248-9.729-1.228-3.213-1.352-6.83-1.246-10.328.177-5.859.115-11.567-.574-17.402-.658-5.574-1.242-11.338-2.91-16.719-1.217-3.928-3.72-8.002-2.67-12.007a6.22 6.22 0 0 1 .081-.756l.169-.899a5.91 5.91 0 0 1 .066-1.593c1.436-8.235 5.057-17.737 12.467-22.36 7.372-4.6 17.539-4.731 26.011-4.368a4.41 4.41 0 0 1 3.003-.17c4.786 1.394 4.197 7.649 4.607 11.609l1.508 14.551 3.208 30.292c.248.499.42 1.052.493 1.652.494 4.066-.117 8.391-.086 12.5.029 3.732.163 7.464.374 11.192.264 4.666.656 9.322 1.091 13.974l.391 2.6c.294.187.564.4.792.642l1.014 1.059.514.523a10.17 10.17 0 0 1 .555.602c.826.927 1.246 2.128 1.28 3.378.028 1.06-.395 2.08-1.027 2.897a3.61 3.61 0 0 1-1.342 1.232l-1.142.482c-.347.067-.672.107-.993.132-.307.049-.614.061-.921.033-1.252.902-2.952 1.104-4.475.621-.392.759-.74 1.536-1.074 2.147a61.73 61.73 0 0 0-1.623 3.209 67.17 67.17 0 0 1-1.412 4.249 25.56 25.56 0 0 0-.455 2.87c-.005.05-.015.096-.021.145a4.6 4.6 0 0 1 .25 1.797c3.438.437 7.798.181 11.091 1.623.416.442 1.149.708 1.624.938zm112.017 1.342c1 3.393 1.866 6.837 3.413 10.035 1.691 3.492 4.358 6.839 3.632 10.975-.766 4.36-5.075 6.299-8.813 5.928-.606.629-1.389 1.114-2.347 1.366-2.583.679-5.744 3.591-7.878 5.557l-.129.119c-.658.605-1.273 1.274-1.871 1.966.119.364-25.596 7.332-25.504 7.722-4.319-6.677-7.446-6.994-10.224-14.42-2.796-7.472-4.696-15.171-5.461-23.12-.788-8.186-.172-16.397 1.079-24.504 1.247-8.087 3.966-15.948 4.543-24.12.042-.598.162-1.143.338-1.64.207-3.562.485-7.086.216-10.697-.302-4.056-1.227-8.039-2.408-11.924-2.174-7.155-5.529-13.474-9.298-19.818-.235-1.178-.544-2.335-1.006-3.448-.402-.969-.95-1.873-1.42-2.81a6.63 6.63 0 0 1-.263-1.487c-.575-8.818-.387-17.661-1.1-26.486-.325-4.03 3.092-5.783 6.253-5.283.606-.044 1.227-.006 1.844.126.875.188 1.658.545 2.345 1.019l.748.351c2.924.242 5.889 1.832 7.81 3.956.515.57 1.015 1.16 1.506 1.764 2.575 2.11 4.735 4.546 6.21 7.376 3.098 1.854 3.532 5.262 3.928 8.625.392 3.328 1.348 6.52 2.588 9.631 1.873 4.7 4.714 9.333 6.607 14.174l.192.221c.849.98 1.273 2.121 1.361 3.27a6.91 6.91 0 0 1 .395.849c1.999 5.299 1.775 11.077 1.409 16.691.428 4.658 1.061 9.282 1.911 13.895 1.729 3.263 3.635 6.436 5.788 9.436.891.426 1.674 1.131 2.23 2.163l2.777 5.152c.028.042.059.079.086.122l2.531 3.925c.494.767.735 1.632.765 2.506l.214.453a6.35 6.35 0 0 1 .388 1.061c1.072 1.989 1.923 4.079 2.535 6.263.163.583.218 1.175.184 1.756.222.397.395.824.489 1.286l1.482 7.263c.205 1.009.156 1.931-.075 2.755z"/></g><g fill="#7a1c3e"><path d="M115.453 236.26c.021.111.041.224.045.348l-.004-.003c.174 4.892.149 9.908-.499 14.789a1.57 1.57 0 0 1 .138.797c-.209 2.55-.566 5.087-.98 7.614l-.016.098-.083.505-.713 4.066a1.5 1.5 0 0 1-.361.72 112.08 112.08 0 0 1-1.467 4.932l-.722 2.645a33.42 33.42 0 0 1-1.963 7.435 3.13 3.13 0 0 1-.081.206l.081-.206c1.86-5.153-11.627-5.53-9.693-10.946a109.23 109.23 0 0 0 2.567-8.179 107.78 107.78 0 0 0 1.072-4.314c.167-.737.285-1.521.436-2.292.092-.776.256-1.554.387-2.301l.593-3.52c.339-2.185.644-4.37.868-6.57.171-1.684.293-3.373.393-5.062l-.001-.011-.055-1.527-.166-2.753c-.048-.621-.139-1.27-.104-1.897-.093.257-.233.5-.423.706-.564.615-1.602.71-2.302.297-.15-.089-.305-.165-.458-.248l-.06-.028-.085-.033c-.327-.12-.663-.218-1.001-.306-.681-.176-1.375-.306-2.064-.449l-1.066-.223-.567-.125c-.048-.011-.097-.02-.146-.03l-.086-.004c-.415.035-.847.046-1.254-.063a2.3 2.3 0 0 1-.985-.543c-.01-.009-.016-.019-.025-.028-.525-.258-.935-.762-.975-1.519-.206-3.859.506-7.789 1.937-11.375.724-1.813 1.594-3.56 2.665-5.194.565-.862 1.184-1.688 1.831-2.49.592-.735 1.175-1.523 2.055-1.89.006-.012.01-.025.016-.037a1.1 1.1 0 0 1 .057-.093c.102-.145.212-.291.328-.424.049-.057.105-.108.163-.155a6.5 6.5 0 0 1 .485-.358c.036-.097.066-.195.119-.286.117-.216.276-.389.478-.52a1.37 1.37 0 0 1 .328-.219c.061-.159.145-.306.247-.44-.077-.075-.151-.153-.233-.222-.059-.051-.122-.109-.187-.161-.013-.009-.018-.011-.038-.026a13.84 13.84 0 0 1-.414-.307l-.102-.081c-.61-.36-1.091-.857-1.304-1.545-.125-.402-.109-.877-.008-1.284.04-.164.115-.32.18-.475-.005.013.111-.226.172-.367a.92.92 0 0 1 .017-.057c.034-.112.071-.223.1-.336.023-.09.036-.185.061-.274.04-.477.028-.938-.006-1.399-.003-.03-.007-.059-.011-.089-.547-.493-1.071-1.009-1.56-1.563-.214-.148-.381-.32-.503-.51l-.758-.388c-1.317-.707-1.051-2.327-.094-3.048.206-.464.341-1.008.429-1.554a5.06 5.06 0 0 1 .029-1.029 81.98 81.98 0 0 0-.657-6.038 2.75 2.75 0 0 1-.023-.487l-.022-.073c-.368-.23-.654-.596-.82-1.046-.249-.676-.596-1.431-.632-2.163-.087-.141-.16-.291-.204-.456-1.304-4.934-1.2-10.048.246-14.828-.258-.714-.078-1.535.082-2.267l.003-.014.499-2.215c.321-1.379.678-2.752 1.031-4.124.337-1.309.721-2.61 1.343-3.816.305-.593.696-1.247 1.203-1.687.075-.065.157-.125.241-.183.061-.105.116-.214.18-.316.314-.588.669-1.152 1.084-1.696a2.43 2.43 0 0 1 .132-.261 7.65 7.65 0 0 1 .741-1.94l.143-.538c.163-1.269.348-2.535.567-3.796-.156-.519-.181-1.076-.274-1.623a18.83 18.83 0 0 0-.493-2.136c-.297-1.011-.689-1.969-1.163-2.896a2.04 2.04 0 0 1-.347-.145c-.438-.236-.815-.672-.926-1.164-.106-.471-.068-.956.181-1.382.178-.303.365-.46.654-.652a1.35 1.35 0 0 1 .401-.171 2.26 2.26 0 0 1 .597-.338 2.25 2.25 0 0 1 .233-.175 4.07 4.07 0 0 0 .342-.561c.3-.65.432-1.448.526-2.152.193-1.433.219-3.024-.351-4.382l-.27-.659c-.055-.047-.111-.093-.157-.15a1.33 1.33 0 0 1-.366-.569c-.11-.21-.161-.437-.152-.681.014-.313.095-.614.242-.892a1.33 1.33 0 0 1 .455-.495c.103-.103.226-.173.364-.216.171-.345.323-.694.401-1.106.149-.793.116-1.615.014-2.429-.174-.262-.289-.572-.31-.93l-.077-1.382c-.052-.072-.112-.141-.191-.195-1.326-.905-.941-2.598.1-3.205.2-.608.377-1.22.479-1.851l-.375-.96c.054-.148.12-.293.167-.44.324-1 .049-2.02-.316-2.976a14.03 14.03 0 0 0-.436-1.037c-.141-.3-.331-.602-.306-.946.048-.668.569-1.173.859-1.742a6.95 6.95 0 0 0 .301-.694c.007.012.018.02.025.032a75.68 75.68 0 0 1 1.588 2.82c.133.116.25.249.33.407.52 1.025 1 2.07 1.472 3.118.361.209.658.555.804 1.076.1.385.225.761.343 1.14a7.8 7.8 0 0 1 .529 1.171c.038.039.079.074.115.118 1.834 2.259 2.117 5.445 2.516 8.235.17 1.187.304 2.378.414 3.572a1.35 1.35 0 0 1 .294.583c.424 1.954.499 4 .584 5.993.08 1.903.08 3.815.002 5.717-.081 2.01-.285 4.016-.613 6-.297 1.801-.67 3.678-1.389 5.368-.019.047-.037.095-.059.141-.009.045-.01.091-.021.136l-.242.963c-.216 1.112-.509 2.209-.833 3.302-.011.035-.029.066-.041.101l-.166.619c-.004.126-.019.253-.048.377-.2.86-.446 1.707-.716 2.547l-.093.314c.251.37.348.853.173 1.421a.9.9 0 0 0-.014.049c-.013.102-.031.204-.064.309l-1.223 3.977c-.064.214-.157.394-.265.552a169.38 169.38 0 0 0-2.289 10.221c-.044.228-.127.425-.239.593-.19 2.059-.26 4.122-.26 6.189.167.279.275.604.307.947.26 2.789.597 5.568.991 8.338.197.202.351.457.423.781l1.315 6.243c.066.123.123.258.166.409.395 1.384.827 2.764 1.15 4.168.363.723.635 1.512.923 2.259.46.197.828.575.942 1.165l.784 4.259c.219 1.254.48 2.53.627 3.803.074.038.144.084.205.144a1.22 1.22 0 0 1 .341.346c.057.068.112.138.153.216.261.484.227 1.026-.047 1.465l-.001.002.019-.025c-.008.011-.015.023-.023.035-.207.383-.58.709-.993.794-.147.03-.296.049-.443.07l.179-.017c-.074.01-.148.027-.223.039a1.42 1.42 0 0 1-.251.079c-.073.016-.148.028-.223.043l-.041.008c-.13.025-.26.051-.388.081-.018.005-.035.013-.053.017-.024.425-.183.833-.52 1.102-.345.274-.678.563-1.011.851l-.004.003c-.049.078-.099.157-.156.228l-1.13 1.418-.574.775c-.009.128-.027.256-.069.382-.496 1.493-1.091 2.952-1.784 4.362-.206.652-.39 1.311-.538 1.979-.144.647-.26 1.344-.315 1.865-.08.757-.02 1.605-.23 2.341-.037.13-.09.258-.151.382.143.255.218.53.228.807a2.56 2.56 0 0 1 .269-.635c.063-.105.14-.198.224-.281.066-.413.179-.815.379-1.193.021-.039.053-.066.076-.102l.24.111c1.078.522 2.046 1.196 2.978 1.95 1.086.88 2.091 1.852 3.069 2.848.786.802 1.524 1.595 2.195 2.493.215.286.474.655.774.978zm106.781 23.632l2.593 4.817c.599.979.06 2.5-1.116 2.744-3.307.688-6.594 1.476-9.858 2.348-.206.055-.398.068-.582.062-.534.21-1.046.479-1.441.787-.034.027-.071.042-.106.066-.338.682-1.091 1.133-1.864 1.168-.214.01-.419-.017-.621-.056a1.88 1.88 0 0 1-.562.565c-.006.005-.01.011-.015.016-.072.063-.15.112-.226.164-.144.194-.311.364-.523.489l-.331.14-.095.04a1.35 1.35 0 0 1-.71.031c-.064 0-.717-.26-.777-.273-.076-.146-.701-.98-.72-1.141-.323-.146-.604-.37-.773-.687-.512-.964-1.093-1.915-1.537-2.913-.495-1.108-1.245-2.265-.47-3.259.208-.639 1.135-1.506 1.587-2.021.149-.236.301-.469.466-.697a2.34 2.34 0 0 1 .214-.256c.025-.043.045-.089.069-.133.18-.311.437-.536.732-.679a1.72 1.72 0 0 1 .513-.301c.264-.348.55-.678.862-.984 1.067-1.283 2.312-2.386 3.926-2.995 1.4-.529 2.941-.55 4.418-.636l2.209-.116.015-.001 1.112-.055.066-.003c.313-.327.742-.535 1.286-.535 1.068 0 1.82.87 1.887 1.886a15.01 15.01 0 0 0 .372 2.418zm-42.103 15.28a2.38 2.38 0 0 1 .21.774c-.197-.612-11.643.968-11.687.324h-.001c-.038-.081-.077-.162-.103-.247l-3.284-10.982c-1.857-6.508-3.581-13.053-5.169-19.633-.79-3.276-1.604-6.558-2.092-9.895-.216-1.473-.588-3.503-.244-5.192-.274-1.793-.4-3.615-.433-5.405-.046-2.49.153-4.984.557-7.443 0-.047-.008-.09-.004-.138.357-5.37 2.009-10.596 3.352-15.779l.678-2.614.138-.534c.102-.968.196-1.937.344-2.899.33-2.145 1.246-4.185 1.724-6.297-.054-.898.122-1.84.36-2.666.009-.028.023-.05.032-.076a4.26 4.26 0 0 1 .188-1.134c.695-5.461.724-11.03.212-16.506-.185-.296-.3-.641-.33-.991l-.159-1.896c-.039-.094-.072-.191-.091-.294l-.353-1.94c-.429-1.273-.861-2.546-1.383-3.786l-.211-.299-.779-1.073c-.004-.004-.062-.081-.108-.142l-.115-.147-.396-.496c-.875-1.088-1.791-2.174-2.523-3.367 1.106-1.536.481-4.061.191-5.752-.535-3.119-.688-6.385-1.914-9.341-.16-.383-.344-.756-.535-1.126a1.61 1.61 0 0 1 1.128-.007c.785-.195 1.63.152 2.078.856 2.157 3.396 4.315 6.801 6.19 10.363a63.89 63.89 0 0 1 2.148 4.537c.713.986 1.082 2.15 1.496 3.295a69.38 69.38 0 0 1 1.047 3.114c.68 2.191 1.259 4.415 1.715 6.664.821 4.049 1.303 8.167 1.458 12.295.119.165.221.354.288.586.464 1.61.435 3.406.448 5.073.013 1.585-.053 3.174-.205 4.753-.311 3.238-1.165 6.303-2.06 9.417l-3.997 13.784-.31 1.293-.86 3.774c.258.283.42.648.396 1.079-.128 2.228-.718 4.401-.836 6.643-.112 2.142-.046 4.291.15 6.426.193 2.107.523 4.197.934 6.272l1.31 5.638c.252.224.446.514.534.855l1.129 4.389a1.85 1.85 0 0 1 .052.55c.625 2.163 1.361 4.289 2.146 6.429.107.293.106.579.03.843 2.274 6.117 4.78 12.148 7.519 18.071z"/><path d="M158.957 146.439l-.086-.15c.043-.078.067-.167.052-.269l.183.227c.142.156.433.118.531-.069a.59.59 0 0 0-.129-.754c-.018-.016-.041-.013-.063-.016-.291-.677-.496-1.363-.491-2.122 0-.011-.005-.021-.006-.033.051-.207-.02-.43-.164-.565-.019-.032-.04-.059-.065-.085.229-.194.531-.288.847-.28.466.011.581-.6.226-.835-.67-.444-1.506-.131-2.006.433-.174.197-.295.425-.392.661-.801.548-1.035 1.64-.675 2.561.251.646.706 1.15 1.152 1.658.283.544.639 1.051 1.069 1.501.457.478 1.12-.128.867-.669-.212-.454-.524-.829-.851-1.193l.001-.001z"/></g><path d="M158.636 141.667c.163-.356-.039-.683-.313-.81-.129-.152-.319-.233-.515-.185l.034-.094c.131-.367-.256-.697-.592-.654-.219-.164-.581-.175-.739.11-.499.9-.866 1.86-1.11 2.85-.417 1.375-.493 2.864-.225 4.263.062.322.44.389.687.261.076.048.166.07.259.074.13.153.339.215.527.191.152.287.356.541.637.778.248.209.76.018.613-.357-.092-.234-.132-.465-.192-.703.039-.095.063-.2.043-.322a8.58 8.58 0 0 1 .308-4.01l.578-1.391v-.001z" fill="#472712"/><path d="M235.838 313.197c-.056-.041-.111-.039-.165-.024l-.135-2.307c.007-.04.022-.074.02-.12l-.061-1.155-.019-.332.03-2.115c.001-.021.01-.036.009-.058l-.049-.694-.02-.358c.049-.082.084-.176.079-.295a13.06 13.06 0 0 0-.427-2.779l-.211-2.323c-.223-1.619-.676-3.186-1.231-4.72l-1.818-4.508c-.636-1.469-1.353-2.901-2.294-4.201-.925-1.278-2.041-2.502-2.406-4.079-.047-.203-.163-.328-.303-.391l-2.722-9.563a4.7 4.7 0 0 0-.286-.612l-.786-4.651c-.181-1.521-1.163-2.797-2.813-2.814-1.091-.012-2.194.736-2.627 1.754-.714.616-1.104 1.574-.751 2.738-.878-.055-1.797.136-2.617.557-.755.085-1.492.318-2.128.707l-.148.101c-.326-.357-.773-.615-1.357-.702l-.446-.067c-1.881-.281-4.371 1.238-3.494 3.494l.376.957c.003.01.003.02.007.03l.693 2.015a3.24 3.24 0 0 0 .1.54l.045.169a2.56 2.56 0 0 0 .01.53c.298 2.41.242 5.423 1.574 7.544l.053.222c.002.01.007.016.009.026l.016.071c-.047.302-.004.573.043.893l.183 1.305.291 2.435.373 4.891.133 9.904.056 5.648a.48.48 0 0 0 .078.259c-.021.077-.028.161-.014.251l.089.649a.59.59 0 0 0-.216.293c-.226.672-.232 1.392-.038 2.068-.062.091-.089.206-.065.334l.116.506a.56.56 0 0 0 .01.184 7.36 7.36 0 0 0 .692 1.841c1.858 5.257 2.642 10.922 2.302 16.477-.006.11.018.2.055.279-.08.002-.159.017-.227.057-.204.119-.262.338-.213.546a.68.68 0 0 0-.161.24c-.13.325.146.652.377.852a2.3 2.3 0 0 0 .708.417c.481.186 1.009.191 1.511.1.48-.088.936-.322 1.322-.614.216-.164.419-.337.605-.534.11-.117.226-.241.316-.374a.95.95 0 0 0 .13-.263c.012-.039.044-.191.047-.216.379-.495.577-1.038.675-1.628.004-.014.01-.027.014-.04.002-.053.014-.104.021-.157.013-.099-.005-.181-.036-.255.125-.509.229-1.024.312-1.543.017-.106.004-.2-.022-.288.287-2.22.262-4.47-.088-6.691-.225-1.436-.643-2.821-.981-4.231-.201-.837-.355-1.688-.372-2.541.151-.058.301-.124.448-.198a24.2 24.2 0 0 0 1.221 2.611l1.629 2.937c.287.507.59 1.017.928 1.492.156.219.326.494.519.74l.171.374c-.002.043-.01.084 0 .131.069.356.167.701.281 1.042.117.374.254.741.408 1.105l.006.029c.007.007.01.016.014.024a39.43 39.43 0 0 1 .065 1.24c-.032.062-.055.13-.055.209-.011.921-.012 1.841.017 2.762a.43.43 0 0 0 .087.242 38.63 38.63 0 0 0-.535 1.382l-1.161 2.19c-.043.081-.066.16-.073.235a22.59 22.59 0 0 0-.49.802l-.214.342c-.069.037-.135.089-.19.161-.408.533-.785 1.086-1.144 1.65-.069.038-.134.089-.189.163a13.48 13.48 0 0 0-1.584 2.77.59.59 0 0 0-.036.332c-.012.021-.023.042-.035.064-.079.117-.149.239-.21.366-.118-.015-.252-.02-.283-.009-.043.015-.071.039-.109.063-.072.047-.146.1-.208.16a1.56 1.56 0 0 0-.325.447c-.163.339-.269.696-.337 1.065-.162.87-.213 1.784.054 2.642.232.746.693 1.44 1.366 1.856.441.272.934.265 1.28-.149.283-.337.547-.692.801-1.051.284-.403.547-.819.792-1.246l.204-.353c.033.161.114.305.255.444a1.65 1.65 0 0 0 .668.398c.521.157 1.098.014 1.503-.341.435-.381.66-.998.914-1.502l.893-1.77c.039-.077.058-.16.066-.242l.118-.226c.125-.033.238-.11.309-.246.458-.868.936-1.725 1.431-2.572l.245-.354c.038-.052.055-.106.07-.159l1.145-1.871c.053-.083.08-.164.09-.241.153-.258.283-.529.426-.793l.381-.617c.073-.019.142-.053.203-.101.148-.025.286-.115.377-.301l1.21-2.465a.56.56 0 0 0 .312-.264c.055-.097.094-.196.134-.295.004.013.001.027.006.04.063.194.272.285.451.242.01.011.019.004.031 0 .124.033.261.016.392-.081.04-.029.07-.064.107-.095.028-.013.043-.037.064-.057 1.27-1.071 1.478-2.794 1.598-4.374.11-1.449.144-2.912.018-4.361.222-.006.418-.14.485-.364.043-.141.071-.284.109-.426a.53.53 0 0 0 .11-.183c.142-.404.186-.856.223-1.299.144-.051.263-.157.295-.339.225-1.301.44-2.602.597-3.913.076-.63.133-1.262.171-1.895.031-.493.194-1.311-.254-1.64h.001zm-14.612 31.678c-.077-.029-.161-.035-.242-.022a2.07 2.07 0 0 0 .115-.385c.007-.01.016-.014.023-.024l.644-1.021-.541 1.452h.001zm11.255-14.664c-.027.019-.055.029-.081.053a7.57 7.57 0 0 0-.263.258l.253-1.161c.123.023.248.01.363-.037-.059.312-.151.609-.272.887z" fill="#81634b"/><path d="M221.057 262.49c-.389-.176-.843-.242-1.35-.157-.463-.142-.995-.169-1.599-.01l-2.855.872a3.16 3.16 0 0 0-.721.088c-.544.134-1.061.325-1.565.545l-1.736.712c-.168.044-.337.096-.509.174l-2.23 1.025c-.74-.138-1.55.025-2.27.673l-1.078.961c-.471.416-.725.873-.825 1.333-1.338 1.941.281 4.663 2.446 4.412.457 0 .948-.136 1.453-.455l1.596-1.01a2.98 2.98 0 0 0 .583-.486l.285-.176a3.32 3.32 0 0 0 .634-.202l1.695-.721a2.9 2.9 0 0 0 .613.043c1.797-.067 3.524-.662 5.225-1.289a2.72 2.72 0 0 0 .458-.062l1.724-.424c.809.158 1.681-.026 2.379-.723l.376-.376c2.06-2.06-.04-5.325-2.729-4.749v.002z" fill="#7a1c3e"/><g fill="#81634b"><path d="M169.225 236.529l-.585.079c-.574-.177-1.232-.132-1.806 0-.645.149-1.282.457-1.816.849l-.513.417c.801-1.534 1.608-3.109 1.996-4.804.004-.02.004-.038.008-.058l.215-.522c.162-.169.293-.369.367-.636.039-.141.052-.292.049-.444l.163-.391c.109-.075.213-.158.304-.253.171-.178.316-.415.381-.655.09-.323.054-.661-.075-.966a1.41 1.41 0 0 0-.457-.594c-.26-.201-.564-.317-.9-.319a4.13 4.13 0 0 0-2.282.664c-.137.093-.265.2-.395.305a1.91 1.91 0 0 0-.574.321c-1.951 1.597-3.276 3.933-4.272 6.213l-.364.887-.056.08-.394.612-.186.283-.055.076-.447.47-.042.029c-.117.073-.241.13-.361.197-.339.194-.601.451-.819.744l-.686.265a7.81 7.81 0 0 1-1.256.354l-.022.005-.091-.003c-.1-.002-.2.004-.3.001l-.199-.013-.183-.033c-.395-.085-.779-.22-1.151-.377l-.085-.04-.276-.131-.614-.314-1.283-.641c-1.108-1.103-2.515-1.784-3.531-2.968-.131-.123-.264-.23-.397-.329-.843-2.017-2.897-3.776-4.052-5.438-.365-.525-.806-.916-1.283-1.192-.856-1.054-1.498-2.056-2.523-2.998l-.239-.223-.001.002-.454-.354-.334-.28c-.28-.413-.672-.789-1.202-1.098l-1.667-1.051a3.8 3.8 0 0 0-1.093-.524l-.846-.427c-.559-.261-1.123-.498-1.722-.609l-1.295-.667-2.428-1.143-.406-.167-.193-.15a4.03 4.03 0 0 0-1.389-.595c-.479-.355-1.062-.613-1.744-.724l-.936-.424-.564-.265-.992-.466-1.556-.73c-.365-.171-.807-.476-1.229-.529-1.084-.835-2.222-1.589-3.425-2.243-.315-.171-.655.068-.71.356-.084-.078-.186-.134-.319-.127-.645.038-1.13.68-1.559 1.112l-1.294 1.428c-.811.98-1.546 2.024-2.183 3.125-1.279 2.212-2.195 4.651-2.668 7.161-.136.729-.23 1.465-.287 2.204l-.043.928c-.399.011-.703.634-.699.98a1.05 1.05 0 0 0 .235.655.64.64 0 0 0 .115.205.86.86 0 0 0 .474.282l3.685 2.066 1.868 1.24c.273.199.575.499.902.731 1.588 2.067 3.918 3.9 5.488 5.529 3.987 4.138 8.501 5.917 14.018 7.192a3.99 3.99 0 0 0 .64.091c1.636.73 3.581 1.162 4.846 1.512 1.761.487 3.589.75 5.422.856.267.204.566.322.887.445.363.139.731.262 1.105.369.839.239 1.71.434 2.586.398a1.54 1.54 0 0 0 .335-.054l1.31.15a54.59 54.59 0 0 0 2.772.338c.457.356 1.055.474 1.661.331.577-.137 1.127-.484 1.649-.757.841-.441 1.67-.905 2.489-1.385.295.133.616.134.937.068.026.003.051.01.077.01a.73.73 0 0 0 .383 0 1.08 1.08 0 0 0 .536-.171c.169-.125.344-.242.516-.362.292.027.587-.03.837-.211l.87-.628c.26-.187.466-.432.597-.705 1.03-.705 2.018-1.475 2.943-2.312a28.08 28.08 0 0 0 5.47-6.796c.542-.939-.13-2.429-1.33-2.318l.002-.001zm-5.249-183.541c-.998-3.554-2.914-6.52-5.373-9.234-3.222-3.556-5.372-7.234-2.739-11.929 1.299-2.317-.835-4.747-3.278-4.263-4.76.943-9.645 1.968-13.871 4.474a34.9 34.9 0 0 0-2.582 1.708c-3.075 1.601-5.782 3.656-9.135 4.819-6.522 2.262-14.858 4.56-19.813 9.649a11 11 0 0 0-.488.534c-.583.495-1.083 1.128-1.455 1.988-.072.167-.12.333-.161.498-2.386 5.019-.832 11.273-.063 16.643.565 3.949 1.02 8.084.364 12.053-.677 4.102-2.683 7.881-2.97 12.068-.134 1.959.204 3.576.885 4.93a5.41 5.41 0 0 0 .283 1.761c.554 1.603 1.867 3.154 2.889 4.492 1.15 1.504 2.088 2.804 3 4.486.547 1.007 1.583 1.435 2.6 1.378 1.35.803 3.011 1.259 4.382 1.762 3.242 1.187 6.54 2.127 9.979 2.514 4.153.468 9.674.463 13.459-1.913 3.456-.235 5.687-2.896 8.23-4.929 1.455-1.163.549-3.863-1.167-4.208-.021-2.505-1.066-5.439-1.109-7.523-.054-2.537.693-3.13 2.241-4.921 1.204-1.394 2.343-2.849 3.447-4.324 2.39-3.197 4.547-6.556 6.664-9.936 4.393-7.018 8.169-14.076 5.781-22.575v-.001z"/></g><path d="M179.361 32.48c-.29-4.004-1.286-7.981-3.168-11.522-1.783-3.356-5.359-7.175-9.455-7.258-1.394-2.99-3.645-5.502-6.73-7.121-3.76-1.972-8.066-3.984-12.251-3.711-11.244-2.902-26.486-.097-33.238 10.11-.06.09-.096.178-.144.268l-.071.066c-.357.336-.591.698-.727 1.065l-1.064 1.197c-.358.402-.571.832-.672 1.264-2.417 3.198-4.188 7.193-5.701 10.291-3.566 7.307-5.9 15.042-6.424 23.175-.036.554.107 1.046.366 1.456-.004.056-.018.108-.018.166-.006 3.535-.154 6.879-.902 10.349-.656 3.043-1.437 6.079-1.59 9.203-.049 1.003-.032 2.199.1 3.439-.424-.629-1.151-.995-1.95-.776-1.026.282-1.386 1.239-1.247 2.198.006.04.002.08.003.12l-.015.063-.027.095c-.773.734-1.313 1.901-1.656 2.767-.574 1.446-.781 3.09-.653 4.637.066.787.2 1.559.372 2.322-.043.064-.088.127-.119.201-.063.147-.122.294-.182.441-.006.006-.007.014-.009.021-1.233 3.062-1.713 6.301.018 9.317.302.526.65 1.035 1.016 1.533-.168.137-.311.3-.402.485-.054.108-.098.219-.136.331-1.499 2.515-2.034 5.745-.502 8.376.34.584.764 1.105 1.231 1.586-.338.659-.591 1.359-.777 1.872-.545 1.496-.594 3.059-.255 4.607.283 1.298.804 2.572 1.429 3.745-.054.134-.112.268-.161.403-.066.113-.122.226-.171.343-.227.54-.398 1.092-.527 1.65-.593 2.118-.692 4.317.188 6.453.664 1.613 1.99 3.224 2.584 4.9-.134.14-.26.294-.364.479a2.09 2.09 0 0 0-.283 1.162c-1.898 1.945-2.729 4.818-1.895 7.514.55 1.777 1.682 3.025 3.045 4.227 1.148 1.011 1.959 2.156 2.035 3.729.028.582.342 1.108.782 1.464-.098.271-.186.546-.254.827a.5.5 0 0 0-.007.174l-.015.042c-.116.175-.232.349-.337.53-.13.222-.051.521.17.65.209.123.417.055.572-.092.009-.006.02-.006.028-.012.601-.41 1.095-.921 1.535-1.496.079-.103.155-.208.231-.314a1.68 1.68 0 0 0 .551-.424c2.314-2.686 3.492-6.208 3.039-9.749-.237-1.853-.937-3.508-1.692-5.203-.463-1.04-1.051-2.251-1.172-3.447 1.396-.877 2.473-2.353 2.805-3.962.458-2.218-.24-4.297-1.139-6.301a8.55 8.55 0 0 0-.26-.526c.191-.238.367-.486.53-.743.407-.239.727-.628.887-1.119.177-.541.252-1.102.261-1.666a8.45 8.45 0 0 0 .195-1.752c.002-.497-.217-.984-.564-1.341-.162-.833-.426-1.621-.747-2.402l-.005-.012-.184-.444c-.014-.03-.036-.056-.051-.085.051-.053.105-.104.153-.158 1.035-1.163 1.573-2.564 1.612-4.122.03-1.225-.102-2.608-.505-3.77-.211-.61-.533-1.248-.958-1.784.463-.578.841-1.222 1.122-1.937.522-1.331.548-2.799.275-4.187-.141-.713-.436-1.394-.76-2.042-.008-.017-.249-.523-.115-.193a5.3 5.3 0 0 1-.054-.138c.392-.404.759-.832 1.064-1.32.795-1.272 1.035-2.76.862-4.234-.095-.812-.246-1.594-.488-2.374l-.143-.445a6.45 6.45 0 0 0 .627-.534c.537-.538.903-1.167 1.162-1.873.256-.191.508-.391.76-.594.162-.729.306-1.46.352-2.199.182-.717.307-1.457.393-2.252a2.86 2.86 0 0 0 .306-.855c.184-1.013.432-2.044.141-3.046-.09-2.165-1.005-3.89-1.824-5.937-.518-1.296-1.756-4.255-1.835-5.782.431-1.001.257-2.328-.465-3.16.003-.015.003-.031.005-.046.159-.155.312-.329.452-.538 1.053-1.566 1.924-3.225 2.69-4.948.351-.789.685-1.586 1.017-2.383.161-.387.345-.769.453-1.174.018-.058.019-.121.032-.18 1.854-.488 3.672-1.07 5.237-2.053 2.615-1.643 4.547-4.197 7.338-5.599 2.749-1.381 5.984-.876 8.641-2.527 1.565-.973 2.47-2.516 3.49-3.948 1.269-1.511 2.681-3.074 4.545-3.715 2.504-.861 5.455.026 8.035-.112 2.839-.152 5.149-1.29 7.355-2.705-1.703 5.636-2.106 12.103 1.824 15.908 1.331 1.289 3.204 2.057 4.276 3.601 1.159 1.669 1.438 3.849 1.62 5.82.148 1.595.283 3.193.801 4.545l-1.312 4.976c-.229.92-.371 1.873-.747 2.749-.35.814-.942 1.6-1.046 2.499-.009.075.023.154.071.219-.373.793-.733 1.594-1.075 2.403-.328.597-.581 1.232-.775 1.884l-.048.116c-.276-.015-.538.124-.676.37-.058.103-.103.213-.158.316-.114.213-.239.423-.368.627a5.4 5.4 0 0 1-.202.3c-.033.047-.068.092-.096.142-.013.023-.025.048-.037.072-.091.079-.157.164-.175.294a.45.45 0 0 0 .13.394.64.64 0 0 0 .105.076c-.211.312-.427.621-.626.938a14.62 14.62 0 0 0-.976 1.364l-.108.168-.332.455-.437.356c-.111.007-.223.04-.327.13-.25.217-.484.447-.711.685-.49.484-.956.99-1.37 1.537-.93.867-1.747 1.845-2.458 2.896-.112.034-.216.109-.289.244-.015.028-.029.057-.043.085a.47.47 0 0 0-.6.225c-.231.39-.443.79-.647 1.192-.127-.067-.27-.079-.399-.025-.208-.091-.467-.06-.632.194-.16.247-.305.502-.448.759-.208-.081-.458-.038-.605.21-.1.169-.187.344-.281.516a.51.51 0 0 0-.256.185 5.18 5.18 0 0 0-.363.592c-.159-.013-.318.057-.414.257-.018.04-.031.082-.049.121h-.002c-.459 1.016-.691 2.089-.646 3.201a.53.53 0 0 0 .042.183l-.025.14c-.001.046-.013.089-.018.135-.015.133.03.239.103.321a1.85 1.85 0 0 0-.15 1.048c.008.053.026.107.039.16-.206 1.191-.101 2.432.313 3.568a22.97 22.97 0 0 0 .636 1.566c-.178.34-.319.703-.447 1.049-.308.832-.459 1.725-.513 2.608-.106 1.717.386 3.408 1.11 4.946.333.707.746 1.375 1.201 2.015-.441.549-.779 1.217-1.025 1.89-1.78 3.136-1.301 6.849.621 9.847a26.08 26.08 0 0 0 .977 1.404c-.128.315-.234.641-.319.978-.106.158-.198.331-.264.525-1.013 2.993.054 6.367 1.843 8.845.265.367.548.716.841 1.052-.146.335-.272.677-.367 1.029-.166.193-.287.42-.325.686-.234 1.671-.422 3.294.291 4.883.502 1.118 1.48 1.976 2.086 2.93.261.41.275.635.267 1.211-.006.506.04.979.153 1.442-.037.058-.073.119-.111.174-.102.151-.203.303-.311.45l-.026.035c.007-.01-.003 0-.06.074-.225.289-.475.578-.656.9-.85 1.522-.22 3.056.471 4.496.505 1.053 1.117 2.05 1.646 3.091.122.241.243.484.35.733.012.031.028.07.041.107l.151.441c.082.266.148.535.2.809l.006.048a7.64 7.64 0 0 1 .016.566c-.003.61.3 1.125.739 1.466l-.256.802c-.088.145-.178.288-.256.438-.213.411.135.735.479.691.203.074.449.034.575-.195.102-.182.186-.372.268-.563.108.03.229.02.349-.053a7.65 7.65 0 0 0 1.061-.773c.284-.248.563-.502.685-.853 1.237-1.182 3.078-2.551 2.768-4.298a8.39 8.39 0 0 0 .612-4.244c-.167-1.411-.584-2.703-1.21-3.979-.009-.019-.02-.038-.03-.056 0-.027.006-.053.004-.08l-.228-2.933c-.033-.44-.065-.88-.064-1.322 0-.202.006-.405.023-.606.019-.231.024-.268.014-.11.026-.132.057-.263.095-.393s.044-.261.045-.394c.561-1.075.979-2.225 1.236-3.406a1.21 1.21 0 0 0 .076-.276l.048-.348c.007-.051.007-.102.011-.154.01-.035.007-.071.007-.107.005-.1.003-.197-.003-.294.011-3.184-.967-6.381-2.824-8.971.125-.254.243-.517.349-.793.438-1.137.644-2.392.68-3.607a11.1 11.1 0 0 0-.474-3.562c-.271-.878-.662-1.79-1.181-2.592a10.44 10.44 0 0 0 1.222-2.166c.004-.009.01-.017.014-.026l-.002-.001c.017-.041.037-.082.054-.123a.4.4 0 0 0-.029-.375c.041-.119.084-.238.118-.359.029-.1.014-.192-.02-.275l.093-.229c.027-.068.051-.136.075-.204a.47.47 0 0 0 .262-.353c.04-.237-.095-.449-.304-.547.067-.966-.091-1.936-.279-2.916l-.655-3.429a7.37 7.37 0 0 0 1.046-.859c.065-.033.128-.069.193-.102.542-.291.878-.899.922-1.517.288-.657.455-1.367.544-2.102a9.2 9.2 0 0 0-.254-3.428c-.192-.726-.49-1.543-.902-2.26.419-.391.768-.861 1.018-1.401.604-1.301.611-2.695.548-4.1-.022-.511-.037-1.023-.026-1.535.006-.275.017-.549.04-.824l.031-.319c.003-.015.007-.039.015-.083.04-.229.088-.457.149-.683.016-.058.182-.535.164-.521.025-.056.054-.111.082-.166l.903-1.192c.228-.302.299-.677.264-1.051.629-1.875.803-3.871.051-5.742-.346-.861-.804-1.682-1.045-2.582-.132-.494-.138-.981-.094-1.488.041-.488.194-.993.137-1.482l1.744-2.409c.811-.674 1.721-.989 2.68-1.398s1.792-1.04 2.591-1.708c.708-.592 1.496-1.215 1.752-2.138.314.099.632.182.961.229.48.068 1.185.201 1.606-.09.322-.222.407-.771 0-.973-.136-.067-.28-.096-.426-.113-.275-.152-.517-.358-.735-.592.716-.237 1.307-.818 1.504-1.84.629-2.568 2.585-4.913 3.656-7.353 1.078-2.46 1.954-4.996 2.567-7.612.767-3.273 1.163-6.596 1.182-9.931.008-.032.023-.058.029-.091.37-1.779.409-3.348.046-4.926l-.003-.004z" fill="#472712"/><path d="M141.429 80.274c-.202-.408-.616-.69-1.064-.765-.256-.317-.607-.548-.961-.763.214-.115.417-.247.6-.415.36-.331.594-.822.565-1.316-.033-.546-.306-.988-.731-1.317-.569-.439-1.27-.575-1.956-.717l-1.194-.193c-.163-.018-.325-.022-.488-.015l-.191.004a2.06 2.06 0 0 0-.389-.446c-.244-.205-.52-.366-.812-.468a.71.71 0 0 0-.165-.128c-.012-.008-.013-.011-.017-.013-.014-.006-.027-.015-.04-.023-.283-.208-.646-.295-1.003-.324-.299-.024-.652-.001-.941.063-.044.009-.085.03-.128.042-.186-.041-.372-.042-.558.007-.15.036-.281.105-.392.207a.86.86 0 0 0-.297.324c-.105.18-.157.374-.158.582l.011.088a2.24 2.24 0 0 0-.182.77c-.015-.003-.029-.01-.045-.013-.306-.068-.629-.121-.944-.1-.097.007-.191.026-.287.043l-.033-.006c-.297-.046-.504-.062-.8-.011-.257.044-.503.194-.688.374-.407.394-.457.989-.328 1.511.002.007.005.013.006.02a1.77 1.77 0 0 0 .043.654c.155.557.573.922 1.001 1.272 1.517 1.246 3.207 2.442 5.258 2.423.027 0 .051-.011.077-.013l.04.025c.474.286 1.002.514 1.523.696 1.004.352 2.174.596 3.232.402.032-.006.062-.016.094-.023l.093.011c.804.058 1.765-.092 2.21-.855.291-.5.292-1.08.038-1.594l.001-.001zm-4.706-2.714a2.83 2.83 0 0 0-.712.061c.007-.013.016-.023.023-.036.115-.225.196-.453.256-.688l.659.147.098.027a1.05 1.05 0 0 0-.324.49z" fill="#72533e"/><g fill="#fff"><path d="M134.61 48.913c-.156-.148-.333-.286-.52-.408a7.29 7.29 0 0 0-2.993-2.878c-.789-.406-1.617-.666-2.503-.739-.055-.005-.109 0-.164-.001l-.057-.022c-.22-.068-.456-.093-.684-.113-.146-.013-.292-.008-.437.009-.236.029-.472.054-.697.136l-.135.056c-.269-.058-.554-.028-.818.107-.5.258-.779.837-.729 1.387.041.463.221.851.494 1.221.44.597.932 1.146 1.512 1.61 1.253 1.002 2.715 1.575 4.301 1.765.084.01.172-.003.26-.025.962.364 2.011.228 2.924-.203.702-.331.776-1.403.245-1.904h.001zm22.941 6.322c-.503-.565-1.111-.961-1.812-1.232-.636-.245-1.319-.329-1.993-.412a4.31 4.31 0 0 0-.792-.324c-.556-.16-1.148-.168-1.681.013l-.26-.033c-.379-.048-.682.114-.892.37-.23-.011-.463.001-.696.018-.502.037-.954.327-1.094.832-.143.523.115.973.521 1.281l.526.394a1.04 1.04 0 0 0 .157.346 4.09 4.09 0 0 0 2.063 1.556 1.98 1.98 0 0 0 .291.185c.697.357 1.497.488 2.266.583.756.093 1.5.053 2.252-.054.844-.12 1.828-.339 2.089-1.284.244-.887-.4-1.625-.945-2.238z"/></g><g fill="#7f4530"><path d="M132.791 45.917c-.307-.284-.675-.478-1.071-.582-.197-.312-.487-.502-.839-.61-.564-.173-1.216-.042-1.733.212-.922.453-1.464 1.451-1.512 2.452-.025.514.124 1.012.347 1.468s.59.819.995 1.12c.718.534 1.715.678 2.57.441.919-.254 1.7-.979 1.928-1.918.217-.894.01-1.94-.686-2.581l.001-.001zm24.129 9.226c-.04-.386-.112-.746-.326-1.079a2.52 2.52 0 0 0-.835-.786c-.292-.175-.626-.294-.968-.366-.136-.101-.282-.191-.445-.237a1.98 1.98 0 0 0-.767-.171c-.46-.005-.874.17-1.243.423l-.222.103c-.998.588-1.349 1.743-1.122 2.835.137.659.515 1.219 1.02 1.635.115.115.239.224.373.324.406.304.915.445 1.417.478.472.075.965.038 1.388-.133.343-.138.591-.284.873-.527a2.82 2.82 0 0 0 .482-.574c.254-.374.399-.851.353-1.305a2.52 2.52 0 0 0 .022-.618z"/></g><g fill="#000"><path d="M131.861 47.423a.62.62 0 0 0-.087-.319.95.95 0 0 0-.261-.407l-.02-.017c-.112-.121-.245-.206-.398-.255a.93.93 0 0 0-.477-.107l-.329.044c-.21.059-.392.165-.546.318l-.02.017-.198.256-.127.303a.95.95 0 0 0-.023.504.62.62 0 0 0 .087.319c.03.107.084.2.163.279a.64.64 0 0 0 .226.227c.079.078.172.133.279.163a.96.96 0 0 0 .488.109l.337-.046.302-.127.256-.198.198-.256.128-.303a.96.96 0 0 0 .022-.504zm23.385 7.712a1.24 1.24 0 0 0-.321-.55l-.252-.195a1.24 1.24 0 0 0-.629-.17.94.94 0 0 0-.48.107.92.92 0 0 0-.401.258.93.93 0 0 0-.258.401c-.078.149-.114.309-.107.48l.044.331a1.24 1.24 0 0 0 .321.55l.252.195a1.24 1.24 0 0 0 .629.17.93.93 0 0 0 .48-.107c.154-.05.289-.136.401-.258a.93.93 0 0 0 .258-.401c.078-.149.114-.309.107-.48l-.044-.331zm15.33 10.674l-2.053-.856a10.51 10.51 0 0 1-1.968-1.125c-1.216-.876-2.227-2.07-2.903-3.406-1.526-3.013-.758-6.567-1.961-9.671-.605-1.562-1.677-2.721-2.968-3.753-1.256-1.004-2.648-1.932-3.495-3.338-.906-1.502-1.205-3.302-1.346-5.025a27.09 27.09 0 0 1 .118-5.394 27.03 27.03 0 0 1 1.351-5.813c.695-1.961 1.766-3.688 2.773-5.494.128-.231-.195-.507-.378-.292-1.216 1.419-2.047 3.149-2.805 4.843l-.956 2.426a9.15 9.15 0 0 1-4.44 2.54c-2.236.551-4.58.347-6.858.309-1.145-.019-2.314-.027-3.442.2-1.026.206-1.922.696-2.688 1.402-.737.681-1.322 1.504-1.954 2.278a26.14 26.14 0 0 1-1.978 2.191c-1.366 1.338-2.961 2.508-4.817 3.05-1.058.309-2.159.37-3.244.541-1.028.162-2.002.48-2.916.981-1.737.953-3.145 2.385-4.673 3.622a18.33 18.33 0 0 1-5.449 3.048c-1.094.384-2.218.659-3.361.842l-2.726.485c-.876.209-1.773.502-2.524 1.01-.36.244-.685.529-.948.875-.301.396-.411.766-.459 1.259-.041.428.516.457.718.195.432-.563.922-1.117 1.54-1.478.677-.396 1.443-.612 2.204-.781 1.824-.406 3.672-.557 5.458-1.14 2.006-.654 3.915-1.626 5.605-2.89 1.583-1.185 2.961-2.644 4.636-3.704.854-.541 1.758-.928 2.752-1.121l3.314-.518c1.875-.459 3.54-1.507 4.977-2.77 1.475-1.297 2.619-2.847 3.886-4.332.637-.745 1.358-1.446 2.309-1.759 1.075-.354 2.248-.337 3.367-.337 2.519.001 5.091.239 7.554-.43 1.343-.365 2.719-1.021 3.689-2.042l-.306 1.266c-.383 1.837-.566 3.707-.534 5.583.031 1.828.195 3.735.83 5.464.617 1.679 1.693 2.948 3.071 4.059 1.286 1.038 2.738 1.988 3.574 3.457.864 1.518 1.006 3.318 1.159 5.022.155 1.73.318 3.47 1.005 5.084.713 1.674 1.879 3.089 3.333 4.174.786.586 1.75 1.136 2.758 1.434l-.47.482-1.069 1.074-1.03 1.058c-.177.19-.336.392-.499.594-.153.189-.32.387-.437.6-.048.088.034.227.142.184.601-.233 1.146-.677 1.638-1.085.509-.422.971-.898 1.431-1.372l.666-.706c.174-.192.395-.4.531-.636a4.12 4.12 0 0 0 1.22-.02c.156-.027.187-.277.045-.345l.001.001zm9.15-36.967c-.741-3.724-2.061-7.52-4.34-10.594-2.173-2.929-5.658-5.737-9.537-4.846-.224.052-.167.386.053.391 7.425.192 11.113 8.361 12.504 14.57 1.716 7.661.669 15.677-1.961 23.002-.755 2.103-1.641 4.157-2.628 6.162-.489.993-1.019 1.961-1.528 2.943s-1.057 1.96-1.433 3a.24.24 0 0 0-.006.132c-.185-.233-.362-.471-.52-.726-.534-.861-.898-1.83-1.032-2.837-.293-2.192.379-4.366.737-6.507.364-2.179.446-4.423-.692-6.4-1.09-1.894-2.884-3.258-3.813-5.261-.511-1.101-.781-2.327-.826-3.538-.049-1.293.267-2.476.507-3.731.042-.223-.24-.353-.369-.156-.586.895-.792 2.034-.877 3.085-.09 1.124.015 2.266.301 3.356a9.91 9.91 0 0 0 1.363 3.018c.65.961 1.438 1.816 2.118 2.754.664.916 1.152 1.899 1.33 3.024.174 1.101.056 2.246-.125 3.338-.374 2.262-1.037 4.572-.773 6.883.137 1.205.524 2.366 1.156 3.403.605.995 1.497 2.03 2.66 2.355.184.051.393-.174.267-.346-.39-.53-.835-1.013-1.252-1.519.106.051.239.049.327-.048 1.365-1.485 2.302-3.401 3.205-5.189a64.72 64.72 0 0 0 2.522-5.628c1.504-3.844 2.583-7.852 3.08-11.953.489-4.035.375-8.149-.418-12.139zm-33.858-8.281c-2.539-1.209-5.78-.522-8.27.491-2.615 1.064-4.878 2.862-6.729 4.974-.92 1.05-1.753 2.179-2.508 3.353-.747 1.162-1.383 2.425-2.302 3.466-1.932 2.191-4.871 2.182-7.537 2.684a11.19 11.19 0 0 0-4.218 1.709c-1.244.83-2.419 1.889-3.167 3.194-.106.185.143.382.296.229.949-.954 1.913-1.858 3.078-2.544 1.137-.669 2.421-1.13 3.706-1.417 2.591-.578 5.446-.475 7.636-2.195 1.053-.827 1.802-1.967 2.476-3.108l2.168-3.398c1.629-2.223 3.649-4.232 6.065-5.588 1.398-.785 2.899-1.345 4.481-1.618 1.591-.275 3.187-.156 4.786-.084.075.003.111-.113.04-.146l-.001-.001zm7.97-4.323c-1.443-.757-3.151-1.054-4.716-1.466a26.24 26.24 0 0 0-4.916-.817c-2.937-.194-5.999.159-8.709 1.356-.748.33-1.468.73-2.134 1.204-.597.425-1.312.92-1.698 1.554-.095.155.086.294.229.229.606-.274 1.15-.734 1.735-1.06a17.8 17.8 0 0 1 1.855-.906 19.04 19.04 0 0 1 3.943-1.166c3.024-.539 6.102-.277 9.111.219a30.3 30.3 0 0 1 2.668.581c.843.219 1.679.486 2.546.59.17.021.228-.242.086-.317zm16.897 13.589a10.39 10.39 0 0 0-.831-2.867c-.402-.89-.929-1.721-1.557-2.468s-1.416-1.521-2.331-1.912c-.171-.073-.377.129-.216.28.678.635 1.4 1.197 2.003 1.913.608.722 1.107 1.539 1.49 2.401a10.36 10.36 0 0 1 .771 2.647c.069.461.096.924.101 1.39s-.072.95.099 1.396c.047.122.187.136.263.034.294-.393.299-.893.307-1.368.009-.483-.032-.966-.099-1.445zm1.817-5.414c-.118-.238-.277-.449-.44-.657-.347-.441-.762-.818-1.21-1.153-.441-.329-.913-.596-1.427-.791-.529-.201-1.045-.252-1.603-.268-.133-.003-.153.189-.031.227.466.143.927.369 1.366.584a7.88 7.88 0 0 1 1.299.784c.401.303.756.661 1.082 1.042l.481.605c.15.188.285.394.479.542.104.079.248-.03.248-.143.002-.268-.128-.535-.245-.771h.001z"/><path d="M166.48 12.67c-.933-3.77-4.71-5.838-7.971-7.329-4.064-1.858-8.374-3.216-12.793-3.905-8.163-1.274-16.667-.173-23.881 3.999-3.425 1.981-6.425 4.615-8.785 7.793-1.343 1.809-2.481 3.759-3.552 5.738a165.64 165.64 0 0 0-3.063 5.94c-3.907 7.966-7.136 16.527-7.204 25.511-.018 2.409.162 4.817.069 7.225-.091 2.35-.599 4.58-1.246 6.832-.6 2.089-1.234 4.188-1.406 6.364a14.08 14.08 0 0 0 .005 2.323c-.512.25-.96.657-1.37 1.039-.5.466-.942.989-1.352 1.533a12.4 12.4 0 0 0-1.855 3.542 12.01 12.01 0 0 0-.276 6.486c-.006.008-.013.011-.019.019-1.484 2.11-1.872 4.993-1.484 7.498.25 1.615.9 3.2 1.847 4.559a3.61 3.61 0 0 0-.155.233c-.296.487-.522 1.025-.712 1.561a8.69 8.69 0 0 0-.337 1.309c-1.956-.319-3.932-.382-5.913-.405-2.066-.024-4.132.02-6.193.168-3.985.288-7.999 1-11.711 2.516-3.535 1.443-6.715 3.602-9.281 6.437-2.48 2.741-4.349 5.967-5.716 9.391-1.386 3.469-2.229 7.137-2.656 10.844-.237 2.062-.477 4.24-.047 6.289.452 2.155 1.769 3.997 2.507 6.049.771 2.145 1.145 4.402 1.517 6.642l1.152 7.184c.714 4.77 1.275 9.573 1.382 14.399.053 2.381-.054 4.751-.162 7.129s-.145 4.761.248 7.114c.386 2.31 1.203 4.522 1.138 6.893-.062 2.274-.741 4.482-1.558 6.587-.401 1.032-.839 2.052-1.257 3.078-.158.387.247.692.598.666-.088.108-.106.267.026.39 1.15 1.075 2.292 2.11 3.224 3.389.926 1.271 1.686 2.669 2.277 4.124 1.366 3.362 1.924 6.98 2.366 10.561.222 1.801.359 3.741 1.496 5.241.427.563 1.23.098.945-.553-1.102-2.525.333-5.353 1.585-7.53 1.271-2.209 2.933-4.805 2.19-7.463-.071-.256-.431-.192-.448.06-.187 2.894-1.711 5.247-3.078 7.711-.62 1.117-1.176 2.338-1.469 3.592l-.131-1.058c-.231-1.857-.495-3.713-.883-5.545-.706-3.331-1.867-6.621-3.883-9.397-1.016-1.398-2.268-2.809-3.822-3.614a.3.3 0 0 0-.112-.033c.036-.036.072-.073.098-.127 1.878-3.998 3.535-8.331 2.76-12.814-.195-1.124-.498-2.225-.742-3.339a21.36 21.36 0 0 1-.463-3.47c-.122-2.363.063-4.727.158-7.087.191-4.74-.13-9.48-.698-14.185-.568-4.692-1.311-9.376-2.147-14.028-.389-2.162-.899-4.299-1.811-6.306-.452-.995-.993-1.951-1.403-2.965a9.3 9.3 0 0 1-.677-3.338c-.042-1.938.184-3.914.48-5.828.279-1.809.667-3.604 1.174-5.363 2.038-7.072 6.157-13.661 12.713-17.313 3.452-1.923 7.326-2.961 11.224-3.485 4.021-.541 8.056-.504 12.102-.579.948-.017 1.875-.051 2.816-.143-.07.532-.099 1.067-.081 1.595.066 1.889.725 3.704 1.849 5.205-.237.378-.41.815-.566 1.207a9.02 9.02 0 0 0-.496 1.85 11.04 11.04 0 0 0 .046 3.888 10.33 10.33 0 0 0 1.41 3.575c.015.024.033.049.048.073a5.89 5.89 0 0 0-.459.881c-.272.63-.496 1.276-.652 1.945a11.89 11.89 0 0 0-.236 4.096c.289 2.407 1.354 4.762 3.246 6.306-.141.566-.023 1.188.265 1.703.014.025.036.043.05.067a.63.63 0 0 0-.356.111 5.01 5.01 0 0 0-.894.796 7 7 0 0 0-1.262 1.961c-.675 1.59-.735 3.392-.246 5.045.468 1.579 1.441 2.862 2.51 4.084.969 1.108 2.071 2.219 2.578 3.633.357.997.386 2.062.248 3.105a14.94 14.94 0 0 1-.299 1.528c-.125.52-.333 1.081-.167 1.611.089.283.422.362.639.169.134-.12.227-.265.305-.419.603-.351 1.037-.991 1.537-1.46.596-.56 1.218-1.091 1.765-1.701a15.01 15.01 0 0 0 2.614-4.11 14.65 14.65 0 0 0 .649-9.719c-.252-.903-.605-1.783-1.024-2.621-.202-.401-.429-.786-.676-1.161-.005-.067-.021-.133-.061-.19-.067-.098-.147-.167-.232-.223-.05-.068-.095-.14-.148-.204-.133-.161-.293-.271-.448-.396.037-.085.084-.166.155-.237.058-.041.042-.143-.039-.142-.02 0-.043.005-.064.007.741-.384 1.382-.995 1.841-1.659.725-1.048 1.09-2.334 1.22-3.591a8.78 8.78 0 0 0-.399-3.655c-.192-.57-.435-1.133-.752-1.646-.086-.138-.193-.304-.316-.467 1.608-1.49 1.895-3.896 1.481-5.951-.14-.694-.347-1.384-.639-2.03-.154-.338-.328-.663-.534-.972-.106-.159-.224-.284-.351-.403.082-.086.17-.163.247-.257 1.463-1.79 1.853-4.142 1.389-6.373-.14-.674-.366-1.322-.641-1.953-.163-.375-.361-.854-.644-1.224.267-.334.498-.7.684-1.097.576-1.225.754-2.581.642-3.923a13.29 13.29 0 0 0-.409-2.325c-.11-.41-.218-.83-.379-1.225l-.035-.086a4.62 4.62 0 0 0 1.505-2.112c.365-1.055.382-2.234.261-3.334-.069-.623-.173-1.242-.29-1.857-.068-.359-.134-.728-.238-1.079-.011-.035-.026-.074-.037-.111.841-.714 1.576-1.616 2.046-2.611.243-.514.45-1.053.573-1.609.111-.507.3-1.264.098-1.759-.089-.219-.403-.311-.537-.07-.148.265-.17.592-.24.885a8.63 8.63 0 0 1-.236.818 8.53 8.53 0 0 1-.776 1.646 7.43 7.43 0 0 1-2.432 2.482c-1.138.708-2.5.871-3.647 1.545-.915.537-2.037 1.862-1.349 2.965.068.11.236.088.273-.036.193-.633.448-1.144.959-1.584.492-.423 1.12-.659 1.726-.868.988-.34 1.919-.691 2.779-1.242l.071.503c.072.552.16 1.101.211 1.656.095 1.046.14 2.127-.17 3.142-.23.757-.647 1.291-1.165 1.706-.108-.025-.23.027-.26.15-.004.017-.003.033-.007.05-1.069.732-2.477 1.07-3.63 1.741-.938.546-1.902 1.386-1.851 2.562.005.113.158.199.242.1a7.17 7.17 0 0 1 2.429-1.876c.959-.453 1.987-.769 2.915-1.285.073.353.169.702.246 1.053.171.785.316 1.575.346 2.38.047 1.292-.205 2.599-.908 3.701-.327.513-.757.953-1.277 1.272-.62.381-1.329.558-1.969.897-.967.512-2.291 1.754-1.465 2.927.07.101.229.067.234-.064.06-1.69 1.871-2.012 3.112-2.536a4.9 4.9 0 0 0 1.247-.764l.03.067c.162.368.332.73.471 1.107.271.735.483 1.508.56 2.289.133 1.344-.099 2.692-.77 3.873-.321.564-.733 1.075-1.239 1.486-.525.427-1.143.675-1.761.936-.993.417-2.871 1.415-2.299 2.798.072.176.294.225.407.053.282-.429.558-.865.972-1.181.461-.351 1.015-.539 1.545-.755.728-.296 1.393-.66 1.978-1.148.046.157.092.314.155.471a25.77 25.77 0 0 1 .415 1.105c.248.718.44 1.461.512 2.218.123 1.32-.026 2.746-.836 3.843-.171.231-.372.428-.584.61-.019-.004-.037-.012-.056-.014-.122-.014-.202.108-.212.212-.001.006.001.013.001.02-.821.608-1.822.994-2.652 1.583-1.052.746-2.016 1.856-1.708 3.221.041.181.329.184.369 0 .456-2.134 2.736-2.72 4.382-3.795l.171.333c.233.463.435.936.588 1.431a8.45 8.45 0 0 1 .367 3.115c-.077 1.043-.375 2.09-.899 2.998-.273.473-.62.911-1.058 1.243-.489.371-1.025.526-1.596.717-.528.178-.478 1.061.138 1.022.311-.019.614-.089.907-.191-.029.033-.059.066-.077.109-.069.174.009.411.108.627-.307.082-.611.172-.928.226-.85.143-1.738.16-2.59.025-.707-.112-1.466-.317-2.007-.811a1.85 1.85 0 0 1-.571-1.037c.528.322 1.099.58 1.69.756.615.181 1.602.444 2.189.083.25-.155.266-.537 0-.688-.463-.263-1.131-.211-1.65-.344-.565-.145-1.1-.372-1.602-.67-1.021-.607-1.837-1.492-2.429-2.516-1.2-2.075-1.516-4.646-1.059-6.981a12.13 12.13 0 0 1 .565-1.978c.074-.193.158-.382.24-.572.623.748 1.424 1.389 2.374 1.279.222-.025.381-.351.128-.473-1.061-.512-1.867-1.664-2.442-2.659a9.56 9.56 0 0 1-1.119-3.124c-.19-1.079-.205-2.214-.023-3.294a10.58 10.58 0 0 1 .415-1.625c.082-.246.193-.486.303-.727.781.815 1.697 1.492 2.805 1.755.239.057.463-.257.255-.438-.932-.809-1.935-1.57-2.697-2.557-.028-.036-.052-.077-.079-.114h.072c.07-.165-.095-.34-.248-.252-.62-.891-1.085-1.881-1.34-2.938-.313-1.303-.297-2.676.027-3.975a10.13 10.13 0 0 1 .669-1.858 9.93 9.93 0 0 0 .734.767c.978.908 2.099 1.597 3.399 1.894.23.053.331-.232.154-.364-1.69-1.245-3.323-2.619-4.406-4.449-1.158-1.956-1.598-4.271-1.298-6.522.133-.999.434-1.946.816-2.868.029.076.05.154.08.229.288.716.609 1.423 1.053 2.057.417.596.934 1.342 1.623 1.641.111.048.254-.032.215-.166-.162-.561-.546-1.083-.829-1.592-.307-.552-.594-1.132-.833-1.717-.475-1.159-.77-2.43-.855-3.679-.166-2.461.49-4.911 1.825-6.983a11.26 11.26 0 0 1 1.276-1.626c.316-.335.657-.707 1.022-1.025.137.7.347 1.381.65 2.016.193.404.451.789.727 1.141.248.317.542.573.823.852-.776.618-1.411 1.398-1.81 2.32-.258.594-.404 1.205-.447 1.851-.022.323-.017.663.05.981.058.272.15.627.311.858.076.109.248.099.287-.038.086-.296.103-.635.147-.941a9.3 9.3 0 0 1 .158-.857 6.98 6.98 0 0 1 .677-1.747c.664-1.195 1.703-1.922 2.91-2.511s2.464-1.049 3.513-1.906c.47-.384.917-.85 1.215-1.383a2.33 2.33 0 0 0 .291-.776c.04-.265-.059-.437-.147-.651l.013-.17c.001-.017-.017-.035-.035-.034s-.035.015-.034.034l.001.022c-.008-.024-.022-.026-.028-.017-.151.254-.397.347-.56.61-.169.274-.324.549-.53.8-.397.483-.9.861-1.432 1.184-1.198.727-2.565 1.112-3.767 1.831-.06.036-.117.076-.176.113-.581-.63-.924-1.578-1.215-2.363-.301-.814-.479-1.671-.551-2.535-.165-1.979.189-3.916.692-5.823.561-2.126 1.282-4.215 1.649-6.388.389-2.293.367-4.616.307-6.933-.059-2.273-.099-4.536.111-6.803.2-2.139.578-4.259 1.086-6.345 1.016-4.17 2.548-8.199 4.323-12.1 1.798-3.953 3.76-7.889 5.993-11.615 2.042-3.409 4.564-6.436 7.789-8.785 6.37-4.641 14.331-6.515 22.132-5.986 4.326.294 8.59 1.299 12.655 2.795 1.92.707 3.831 1.493 5.643 2.448 1.568.826 3.117 1.811 4.292 3.156.556.635 1.002 1.432 1.299 2.22.152.404.764.252.657-.181l-.002.003zM95.734 134.477c.014-.029.017-.056.026-.083.437.408.989.695 1.56.869.93.284 1.947.364 2.913.297.511-.035 1.019-.116 1.516-.24.129-.032.258-.068.385-.106.049-.015.157-.033.241-.058.317.581.625 1.166.873 1.783.648 1.61 1.018 3.336 1.048 5.071.058 3.304-1.082 6.603-3.217 9.135-.618.731-1.324 1.365-2.012 2.028l-.164.158c.162-.915.25-1.84.145-2.757-.182-1.599-.956-2.925-1.957-4.151-.934-1.143-2.028-2.17-2.79-3.444-.858-1.436-1.213-3.202-.846-4.847a6.29 6.29 0 0 1 1.018-2.274c.242-.341.53-.641.834-.927.147-.139.343-.267.428-.454zm127.688 133.79c.347-.189.706-.357 1.085-.486.17-.059.343-.1.514-.149.25-.205.454-.465.532-.785.122-.493-.079-.952-.237-1.411l-1.081-3.132-1.253-3.599-.611-1.718c-.102-.272-.2-.646-.365-.889-.009-.013-.021-.023-.031-.035 2.163-.889 3.702-2.71 4.135-5.094.549-3.025-.475-5.905-1.826-8.573l-2.31-4.496c-.742-1.637-1.275-3.362-1.688-5.108-.801-3.39-1.152-6.861-1.71-10.293-1.106-6.8-3.386-13.357-6.885-19.302-3.277-5.567-7.748-10.378-10.637-16.183-1.534-3.083-2.37-6.357-2.594-9.791-.236-3.622.043-7.25.047-10.875.003-3.446-.285-6.892-1.363-10.184-.998-3.049-2.505-5.898-4.058-8.694-1.617-2.914-3.319-5.805-4.553-8.909-1.294-3.252-2.011-6.687-2.804-10.086-.757-3.245-1.607-6.487-3.059-9.502-1.238-2.568-2.878-4.94-4.804-7.041-3.796-4.145-8.761-7.259-14.187-8.753a24.98 24.98 0 0 0-3.795-.723c.017-.607-.028-1.215-.124-1.804-.13-.801-.355-1.582-.616-2.348-.136-.397-.273-.797-.433-1.185-.011-.025-.024-.051-.035-.076a4.95 4.95 0 0 0 .707-.76c.721-.989.936-2.246.984-3.442.031-.783-.005-1.571-.078-2.351-.068-.725-.161-1.462-.37-2.162a7.03 7.03 0 0 0 .957-1.07c1.404-1.957 1.687-4.478 1.179-6.788-.154-.702-.382-1.379-.668-2.037-.138-.319-.281-.642-.465-.939-.091-.146-.181-.288-.315-.394s-.287-.104-.384-.238-.288-.022-.222.129-.023.298-.007.459c.019.183.103.354.171.523.149.371.308.735.438 1.113.263.755.476 1.531.569 2.327.162 1.378.002 2.8-.587 4.066-.549 1.178-1.396 2.163-2.549 2.777-.996.53-2.504 1.029-2.607 2.359-.014.185.224.314.374.215.844-.557 1.718-.983 2.616-1.446a6.74 6.74 0 0 0 .668-.395c.09 1.121.227 2.231.206 3.366-.022 1.156-.143 2.415-.88 3.361-1.063 1.366-2.909 1.862-4.251 2.889-.71.543-1.441 1.299-1.408 2.265.004.114.153.192.236.098.561-.623 1.11-1.201 1.84-1.634.797-.472 1.651-.838 2.454-1.3.178-.102.351-.211.523-.322.09.239.192.466.252.647.222.671.415 1.352.554 2.045.242 1.212.275 2.469-.079 3.663-.325 1.096-.96 2.03-1.932 2.648-.079.051-.165.094-.247.141-.012-.004-.023-.012-.035-.016-.042-.013-.095.008-.115.047-.012.022-.017.046-.027.07-.915.516-1.901.91-2.758 1.521-.913.65-1.901 1.707-1.647 2.923.023.111.204.141.254.033.497-1.082 1.243-1.85 2.294-2.412.634-.339 1.303-.596 1.949-.897l.093.307c.179.618.38 1.227.523 1.855.272 1.189.382 2.422.225 3.637-.15 1.165-.542 2.293-1.238 3.245-.713.974-1.65 1.759-2.371 2.728-.386.518-.686 1.112-.853 1.738-.142.533-.223 1.25.101 1.734.067.098.205.078.244-.032.202-.571.255-1.153.547-1.701.278-.522.653-1.002 1.051-1.437.506-.553 1.049-1.073 1.552-1.627.277 1.088.8 2.143 1.074 3.222.36 1.419.463 2.898.032 4.313-.414 1.355-1.218 2.53-1.974 3.711l-1.245 1.95c-.42.67-.922 1.324-1.142 2.092-.081.284.257.423.456.265.666-.53 1.114-1.323 1.604-2.012l1.404-2.002c.18-.259.358-.523.531-.791a3.37 3.37 0 0 0 .181.354l.474.849c.307.57.588 1.146.806 1.756.43 1.203.662 2.461.711 3.737a12.34 12.34 0 0 1-.44 3.775 11.04 11.04 0 0 1-.661 1.807 12.63 12.63 0 0 1-.452.863c-.16.281-.377.542-.36.881.013.256.257.491.527.402.501-.165.776-.79 1.013-1.227.264-.487.491-.993.688-1.509.395-1.036.625-2.121.733-3.223.216-2.183-.147-4.401-1.015-6.413a9.74 9.74 0 0 0-.857-1.606 5.93 5.93 0 0 0-.554-.717c-.098-.104-.224-.22-.346-.294-.024-.015-.05-.022-.076-.033.473-.799.874-1.642 1.104-2.535.381-1.487.259-3.042-.122-4.516-.19-.737-.438-1.465-.732-2.167-.23-.551-.478-1.097-.822-1.579.123-.158.249-.314.359-.483 1.337-2.061 1.456-4.64.951-6.982a14.03 14.03 0 0 0-.614-2.068c-.075-.197-.167-.45-.284-.697a5.89 5.89 0 0 0 .623-.418c1.2-.941 1.826-2.29 2.057-3.73 5.496.952 10.661 3.299 14.861 6.996 4.584 4.035 7.481 9.194 9.066 15.053.904 3.341 1.518 6.756 2.498 10.076.91 3.084 2.245 5.978 3.77 8.801s3.187 5.579 4.539 8.493c1.434 3.093 2.349 6.317 2.606 9.723.517 6.865-.908 13.911 1.102 20.627 1.803 6.03 5.902 10.931 9.469 15.984 3.916 5.549 6.937 11.63 8.678 18.211 1.744 6.595 1.663 13.663 4.291 20.021 1.257 3.038 3.298 5.755 4.199 8.939.77 2.72.574 6.208-1.931 7.986-2.37 1.681-5.598 1.328-8.344 1.529-2.759.202-5.365 1.046-7.508 2.848-1.062.893-1.939 2.037-2.62 3.24-.252.446.412.83.684.4 1.636-2.59 4.346-4.528 7.344-5.183 2.828-.617 5.794-.158 8.599-.922.015.22.108.462.168.67.153.53.336 1.051.509 1.574l.998 2.984 1.037 3.058.478 1.411c.111.331.211.501-.102.707-.256.169-.578.24-.875.299l-1.465.264c-.956.185-1.907.396-2.852.633a54.52 54.52 0 0 0-5.657 1.746c-1.034.382-2.056.795-3.066 1.237-.517.225-1.029.463-1.536.707l-.691.338c-.299.149-.44.284-.641.55-.209.276.076.668.382.666.528-.003.931-.262 1.399-.482.488-.229.98-.448 1.473-.665a52.8 52.8 0 0 1 2.924-1.179c1.925-.711 3.889-1.312 5.88-1.802 1.021-.251 2.049-.472 3.083-.663l.898-.158-.001.005zm12.809 37.277c-.253-3.08-.779-6.152-1.702-9.106-.462-1.479-1.025-2.929-1.686-4.332-.7-1.486-1.543-2.892-2.39-4.297l-2.355-4.339c-.685-1.522-1.238-3.101-1.752-4.687l-2.826-9.474-.891.293 2.284 8.202c.983 3.16 2.099 6.257 3.763 9.131l2.515 4.272c.729 1.352 1.353 2.758 1.872 4.204 1.046 2.914 1.7 5.961 2.036 9.035.189 1.734.284 3.476.302 5.22l-.03 2.652c-.027.864-.111 1.726.075 2.575.069.32.495.263.591 0 .267-.729.291-1.509.322-2.281l.052-2.356-.179-4.711-.001-.001zM149.908 94.327a8.3 8.3 0 0 1-.714-1.48 9.25 9.25 0 0 1-.412-1.58c-.09-.53-.075-1.13-.26-1.632-.09-.245-.483-.368-.618-.081-.247.527-.212 1.183-.149 1.752a8.45 8.45 0 0 0 .416 1.823 8.98 8.98 0 0 0 .759 1.655c.294.497.721 1.019 1.31 1.158.111.026.253-.055.242-.184-.044-.516-.309-.994-.574-1.431zm9.745 54.902c-.29-.807-.654-1.594-1.096-2.329l-.467-.71c.033-.091.056-.19.052-.306-.011-.372-.365-.78-.727-.791.041-.084-.057-.16-.127-.098.035-.032-.157.102-.071.107-.156-.01-.265.112-.318.241-.065.164-.054.339-.006.517-.008.001-.019.005-.028.005l-.423.016-2.064.163c-1.26.154-2.499.409-3.719.754-.111-.249-.047-.552.107-.796.09.008.178.019.278.005.224-.03.295-.259.267-.452.332-.156.721-.228 1.056-.264l2.126-.148c.759-.052 1.627-.004 2.359-.232.308-.096.354-.6 0-.672-.754-.153-1.595-.029-2.359-.004l-2.183.087c-.578.049-1.174.191-1.663.473l-.326-.227a6.81 6.81 0 0 1-.957-.91c-.559-.639-.999-1.401-1.266-2.208-.294-.889-.393-1.821-.303-2.752a6.59 6.59 0 0 1 .284-1.347c.108-.342.269-.664.402-.996.499.398 1.035.751 1.605 1.047.64.332 1.318.609 2.016.794.346.091.706.158 1.063.176.403.021.741-.058 1.133-.104.215-.026.295-.338.054-.402-.296-.079-.592-.224-.888-.321l-.966-.309c-.603-.194-1.189-.423-1.749-.72-1.143-.605-2.159-1.408-2.985-2.406-1.754-2.121-2.369-5.039-1.856-7.716.077-.403.186-.795.307-1.187l.045-.138c.313.307.639.601.989.866a9.75 9.75 0 0 0 1.951 1.159c.644.284 1.423.607 2.139.545.102-.009.194-.148.095-.228-.537-.43-1.217-.693-1.806-1.051-.629-.384-1.238-.804-1.795-1.288-1.142-.993-2.103-2.126-2.784-3.483-.717-1.429-1.093-3.032-1.113-4.629-.018-1.503.217-3.082 1.021-4.379.094-.153.301-.397.477-.663a13.37 13.37 0 0 0 1.144 1.152c.536.474 1.13.891 1.722 1.293.529.359 1.159.854 1.775 1.034.066.02.13-.059.092-.119-.326-.517-.91-.933-1.345-1.362l-1.449-1.442c-.955-.971-1.852-1.975-2.504-3.179-1.253-2.311-1.501-5.114-.73-7.623l.238-.68c.697.966 1.533 1.818 2.452 2.575l1.464 1.106c.489.34 1.027.721 1.645.601.134-.026.21-.186.176-.309-.15-.545-.649-.846-1.093-1.154l-1.397-1.039c-.848-.698-1.657-1.475-2.3-2.37-.628-.873-1.111-1.841-1.35-2.894-.149-.655-.179-1.325-.17-1.996l.014-2.254c-.004-.433-.707-.564-.784-.106-.257 1.507-.438 3.001-.145 4.524.156.806.456 1.576.849 2.297l-.065.109c-.071.117-.132.236-.189.36l-.351.882a10.32 10.32 0 0 0-.414 1.785c-.174 1.226-.14 2.459.097 3.675.315 1.625 1.038 3.11 2.024 4.409-.024.012-.041.022-.046.026-.123.089-.239.198-.342.31-.249.271-.47.59-.648.911-.334.602-.561 1.275-.711 1.944-.325 1.451-.338 2.947-.092 4.409a11.6 11.6 0 0 0 2.53 5.486l-.057.117c-.142.304-.274.604-.377.924-.217.675-.348 1.37-.415 2.075-.129 1.378.021 2.803.446 4.121.504 1.562 1.393 2.986 2.559 4.133-.622.78-.871 1.957-.985 2.906-.13 1.085-.025 2.215.33 3.25a7.87 7.87 0 0 0 1.539 2.642 7.65 7.65 0 0 0 1.071.996l.203.151c-.104.188-.19.392-.231.632-.067.398-.014.812.185 1.153-.199.173-.374.381-.536.589-.372.477-.667.999-.861 1.573-.406 1.206-.225 2.531.241 3.692.493 1.228 1.258 2.297 1.954 3.414s1.246 2.297 1.43 3.618c.097.696.098 1.416.008 2.113-.078.604-.521 1.475-.175 2.038.044.07.123.106.206.117.043.122.234.168.342.079.627-.52 1.144-1.143 1.745-1.69.632-.574 1.322-1.066 2.015-1.56 1.242-.886 2.24-1.962 2.949-3.32 1.416-2.709 1.563-5.948.533-8.816l.003.002zm-1.469 8.192c-.664 1.292-1.626 2.337-2.745 3.252-.826.674-1.725 1.372-2.428 2.208.093-.526.152-1.06.15-1.593-.003-1.267-.281-2.515-.807-3.667-1.021-2.238-3.235-4.225-3.158-6.849.02-.673.252-1.298.585-1.877.201-.35.472-.675.684-1.025.167 0 .341-.054.532-.107l1.207-.298c1.49-.329 2.992-.511 4.515-.585a2.77 2.77 0 0 0 .657-.111l.189.295c.373.65.698 1.327.951 2.033.502 1.398.773 2.875.709 4.362-.059 1.37-.413 2.743-1.04 3.963l-.001-.001zm-47.483 50.823a52.69 52.69 0 0 0 5.082 2.823c.375.183.381.819.001.999-1.44.683-2.737 1.603-3.873 2.719-2.114 2.079-3.617 4.708-4.588 7.495-.559 1.603-.966 3.259-1.266 4.929l-.379 2.538c-.096.792-.103 1.682-.497 2.389-.013.023-.034.03-.05.047l.586.602a.62.62 0 0 1-.523.114 138.39 138.39 0 0 0-11.398-2.028c-.357-.047-.547-.24-.594-.593l-.062-.602c-.12.458-.561.627-1.011.815-.499.208-1.018.351-1.552.435-1.057.168-2.126.147-3.188.043a25.37 25.37 0 0 1-6.12-1.368 25.98 25.98 0 0 1-2.883-1.239c-.93-.469-1.802-1.03-2.705-1.545-.828-.473-1.807-.98-2.792-.799-.929.172-1.669.912-2.568 1.201a5.18 5.18 0 0 1-.549.137c.026.097.054.191.063.296l.044.913-.022 1.821a43.21 43.21 0 0 1-.295 3.469c-.29 2.316-.749 4.6-1.356 6.854-2.205 8.183-1.085 5.334-5.013 12.791-.999 1.897.994-4.348 0-2.448 1.678-3.861 3.142-7.833 4.151-11.924.495-2.007.897-4.046 1.143-6.1.123-1.029.202-2.061.26-3.096.032-.557.044-1.114.061-1.671.007-.248-.005-.517.032-.762.003-.016.009-.032.012-.048a4.31 4.31 0 0 1-1.177-.134c-.719-.194-1.592-.568-1.886-1.305-.013-.035.022-.08.058-.077.448.046.891.212 1.327.334a5.04 5.04 0 0 0 1.383.175c1.009-.002 1.803-.361 2.648-.877.826-.504 1.666-.791 2.643-.657.959.131 1.842.585 2.669 1.067 1.73 1.007 3.447 1.937 5.35 2.583 1.875.637 3.832 1.061 5.808 1.215.897.069 1.819.091 2.709-.063a6.19 6.19 0 0 0 1.296-.355c.432-.177.739-.462 1.217-.269.077.031.148.078.199.139-.162-1.75-.156-3.513.038-5.262.415-3.759 1.588-7.411 3.432-10.714a27.31 27.31 0 0 1 3.202-4.561c1.253-1.446 2.671-2.652 4.237-3.743.318-.221.708.29.413.534-1.559 1.296-2.998 2.814-4.265 4.395-4.419 5.514-6.669 12.842-5.82 19.883 3.404.46 6.791 1.042 10.151 1.758.006.007.013.014.02.021-.11-.807.078-1.712.175-2.484.122-.972.268-1.94.452-2.901 1.1-5.731 3.9-11.602 9.115-14.58-1.432-.727-2.843-1.497-4.206-2.346-.844-.526-1.675-1.075-2.486-1.65l-1.175-.858c-.395-.298-.751-.55-.978-.999-.169-.336.108-.712.483-.628.514.116.868.423 1.283.732l1.18.849a57.75 57.75 0 0 0 2.357 1.571zm-7.656-4.785c-.689-.488-1.098-1.459-.816-2.279.162-.473.573-.806.76-1.269s.149-.972-.012-1.438c-.359-1.044-1.328-1.584-2.152-2.226-.712-.554-1.364-1.188-1.94-1.883.013-.011.027-.021.037-.035.678-.936.95-2.245 1.148-3.366.2-1.133.279-2.285.197-3.434-.17-2.356-1.054-4.53-1.84-6.731-.826-2.314-1.304-4.678-1.369-7.136-.064-2.415.206-4.826.647-7.197l1.914-8.207a.44.44 0 0 0-.839-.232c-.796 2.354-1.397 4.793-1.893 7.226-.48 2.358-.824 4.757-.871 7.165-.046 2.427.223 4.874.926 7.202.677 2.245 1.731 4.378 2.182 6.69.252 1.293.271 2.626.123 3.932-.078.688-.218 1.365-.382 2.037l-.396 1.548-.085-.108a.51.51 0 0 0-.551-.224 20.53 20.53 0 0 0-6.092 2.383c-.743-.769-1.33-1.572-1.708-2.597-.203-.552-.361-1.118-.493-1.691-.135-.587-.273-1.184-.807-1.541-.486-.324-1.123-.364-1.686-.435-.677-.085-1.362-.116-2.044-.11a17.75 17.75 0 0 0-3.962.477c-1.478.35-2.921.883-4.159 1.773-.133.095-.06.341.119.282l3.69-1.122c1.254-.274 2.515-.45 3.799-.469.635-.01 1.27.016 1.901.076l.961.112c.266.039.615.062.842.22.41.287.433 1.092.555 1.54a11.22 11.22 0 0 0 .531 1.546c.39.901.965 1.824 1.824 2.335-2.162 1.381-4.067 3.161-5.543 5.261-.813 1.156-1.463 2.37-1.904 3.711-.068.205.231.319.34.144 1.253-2.025 2.639-3.967 4.364-5.621 1.736-1.666 3.712-3.031 5.897-4.041 1.13-.522 2.313-.92 3.523-1.213.665.856 1.413 1.635 2.274 2.301.778.603 2.286 1.29 2.273 2.451-.006.562-.499.942-.72 1.425a2.44 2.44 0 0 0-.193 1.317c.106.865.62 1.597 1.443 1.901.279.103.403-.3.19-.45zm-17.223-25.27c-.737-1.051-1.647-1.98-2.531-2.907l-2.649-2.896-4.966-6.103c-3.136-4.188-5.922-8.641-8.398-13.25-1.392-2.591-2.639-5.262-3.876-7.93-.056-.121-.259-.035-.215.091 1.713 4.947 4.082 9.717 6.779 14.2 2.729 4.534 5.823 8.869 9.274 12.883.961 1.118 1.949 2.215 2.961 3.287s2.045 2.156 3.28 2.965c.203.133.484-.136.341-.341v.001zm-.847-51.64c-.506-1.233-1.389-2.288-2.17-3.357l-2.327-3.109c-1.542-1.889-3.473-3.15-5.716-4.066l-1.848-.675c-.606-.201-1.245-.427-1.888-.457-.185-.009-.224.236-.088.327.595.4 1.329.607 1.993.862l1.989.831c1.285.601 2.53 1.338 3.575 2.306 1.149 1.065 2.032 2.376 2.953 3.634l1.461 1.995c.517.687 1.02 1.38 1.681 1.934.154.129.482.011.386-.224v-.001zm56.416-16.39c-.504-.042-.915.132-1.376.319l-1.532.589-2.854.882c-1.975.508-3.999.804-6.037.881-4.239.158-8.348-.743-12.341-2.101-1.139-.388-2.266-.81-3.389-1.241s-2.225-.912-3.368-1.272c-.168-.053-.313-.001-.422.094a36.38 36.38 0 0 0-2.457-4.237c-.421-.621-.882-1.202-1.372-1.768-.273-.316-.795.093-.576.444 1.646 2.645 3.227 5.282 4.394 8.181 1.157 2.879 2.009 5.884 2.586 8.931 1.23 6.507 1.138 13.203.279 19.75-.92 7.006-2.733 13.852-4.705 20.623-.981 3.368-1.926 6.748-2.378 10.235-.447 3.448-.434 6.941-.095 10.398.687 7.007 2.644 13.829 4.806 20.504l.832 2.478c.235.67 1.282.4 1.076-.297-2.011-6.803-4.213-13.523-5.174-20.58-.469-3.443-.635-6.939-.366-10.405.275-3.549 1.117-6.993 2.093-10.406 1.955-6.846 3.904-13.683 4.948-20.74.982-6.636 1.226-13.377.173-20.02-.657-4.139-1.831-8.258-3.597-12.088 1.835.922 3.799 1.658 5.723 2.356 2.083.756 4.206 1.402 6.381 1.832 4.164.822 8.45.777 12.59-.173 1.166-.267 2.318-.602 3.437-1.023.561-.212 1.118-.438 1.662-.69.534-.247 1.007-.472 1.333-.977.14-.217-.049-.459-.273-.477l-.001-.002zm-26.009 130.936c.018-.22.369-.302.412-.055.436 2.512.37 5.109.297 7.65l-.54 7.569c-.517 4.505-1.448 8.967-2.653 13.335-1.219 4.418-1.926 4.568-3.398 8.906 1.452-4.281 1.426-6.112 2.598-10.481 1.178-4.388 2.016-8.852 2.547-13.364.265-2.25.444-4.509.537-6.772s.017-4.533.2-6.788zm-10.102-5.437c.015-.202.306-.204.314 0l.076 2.573c.02 3.396-.359 6.82-.886 10.172-.532 3.382-1.252 6.728-2.115 10.041-1.74 6.678-4.176 13.126-6.669 19.556 2.383-6.321 4.581-15.869 6.189-22.434 1.601-6.537 2.602-13.197 3.091-19.908zm-21.183 13.745c1.75-2.768 3.073-5.745 3.995-8.888v-.001c.055-.187.308-.104.283.078-.512 3.612-2.154 6.9-4.014 9.995-3.384 5.629-8.179 10.238-12.229 15.368 2.807-6.136 1.743-3.58 6.018-8.71 1.056-1.267 2.1-2.545 3.095-3.861.981-1.298 1.983-2.605 2.853-3.981zm4.646 10.744l4.509-5.757h.001c.111-.122.276.033.214.165-1.169 2.454-2.773 4.739-4.448 6.87-1.489 1.895-3.137 3.685-4.983 5.239 1.824-1.622 3.212-4.59 4.706-6.517zm67.121-60.311c-.681-.065-1.368.033-2.051.067l-2.06.052c-1.375.01-2.753-.039-4.122-.162-2.733-.246-5.349-.887-7.984-1.619-1.307-.363-2.636-.682-3.996-.748-1.311-.063-2.63.122-3.904.422-2.542.599-4.933 1.691-7.466 2.316-1.31.323-2.658.53-4.01.48-.657-.024-1.309-.12-1.948-.273-.63-.151-1.206-.373-1.856-.411-.065-.004-.108.076-.074.13.604.948 1.884 1.272 2.939 1.424 1.209.175 2.427.134 3.635-.04 2.572-.372 4.974-1.375 7.45-2.117 1.285-.385 2.602-.706 3.945-.789 1.385-.085 2.729.127 4.066.473l4.037 1.093c1.365.315 2.748.548 4.14.712 1.55.182 3.11.267 4.671.235l2.299-.143c.793-.078 1.634-.124 2.383-.407.379-.143.31-.656-.094-.695h0zm18.716-79.022c-.857 1.031-1.382 2.346-1.804 3.606-.219.657-.4 1.325-.518 2.008-.108.627-.203 1.309-.055 1.936.029.123.232.164.287.037.244-.559.341-1.185.474-1.778l.513-1.943c.399-1.259 1.022-2.405 1.523-3.621.095-.231-.264-.432-.42-.245zm9.857 59.905c-.398-2.493-.989-4.957-1.836-7.337-.801-2.247-1.783-4.426-2.816-6.575-2.08-4.326-4.397-8.568-5.895-13.146-.886-2.705-1.479-5.511-1.764-8.343-.284-2.821-.189-5.637.006-8.46.012-.189-.301-.235-.335-.045-.433 2.416-.491 4.882-.371 7.33a39.66 39.66 0 0 0 1.043 7.305c1.107 4.609 3.144 8.888 5.191 13.139 2.064 4.284 4.079 8.601 5.151 13.26.561 2.438.917 4.928 1.087 7.423.163 2.401.145 4.848-.348 7.212-.477 2.288-1.408 4.482-2.942 6.263-1.432 1.662-3.211 2.754-5.317 3.344-.682.192-.381 1.137.286 1.036 1.929-.292 3.708-1.421 5.089-2.761 1.429-1.386 2.51-3.111 3.223-4.965 1.783-4.637 1.313-9.88.547-14.68h.001z"/><path d="M204.6 271.024c7.9 3.476.517 1.867.4 1.976-.719-1.227-1.414-2.205-2-3.5l-2.842-5.704-3.369-7.696c-3.826-8.882-7.591-17.824-10.81-26.947-1.567-4.441-2.982-8.944-4.051-13.533a87.44 87.44 0 0 1-1.322-6.997c-.344-2.323-.681-4.669-.63-7.021.004-.206.333-.266.37-.051.448 2.614.714 5.251 1.211 7.858.489 2.559 1.096 5.095 1.764 7.613 2.431 9.176 5.949 18.017 9.556 26.781l5.77 13.672 2.989 6.784 1.487 3.305c.517 1.142 1.069 2.274 1.477 3.46zm-37.296-.018c1.314 4.506-1.88-2.427-1.88-2.427l-5.052-18.316-.044-.263-.095-.428c-.013-.045-.032-.094-.049-.141-.09-.551-.2-1.097-.398-1.615a4.39 4.39 0 0 0-.157-.723l-.735-3.345-.497-2.177.003-.003-.457-2.369-.122-.703-.025.029-.018-.098-.161-1.027c-.707-4.342-1.158-8.683-1.063-13.083.106-4.941.758-9.865 1.775-14.698 1.024-4.865 2.474-9.63 3.658-14.458 1.19-4.852 2.202-9.786 2.55-14.779.316-4.546-.178-9.094-.829-13.59-.238-1.649-.515-3.3-.97-4.905-.386-1.362-.917-2.981-2.001-3.959-.184-.166.058-.474.264-.341.484.312.903.729 1.219 1.211.865 1.321 1.307 2.956 1.674 4.474.372 1.547.627 3.117.873 4.688.75 4.789 1.157 9.58.66 14.417-.508 4.938-1.551 9.795-2.768 14.603-1.22 4.822-2.643 9.594-3.583 14.482-.956 4.974-1.494 10.036-1.426 15.104.042 3.062.36 6.102.824 9.122.057.855.19 1.708.427 2.53l.411 2.231c.003.025.006.037.009.05l.044.238.208.764-.049.039.059.299a183.24 183.24 0 0 0 1.162 5.239c.079.777.365 1.53.519 2.294l.001.003c.085.42.18.89.369 1.301 1.716 6.823 3.702 13.585 5.67 20.33z"/><path d="M181 276.127c-4.046-9.321-5.995-15.894-9.303-25.505-.788-2.288-1.51-4.602-2.146-6.935-.193-.371-.321-.778-.425-1.177-.153-.587-.246-1.187-.371-1.78-.013-.06-.005-.111.011-.158-.225-.976-.429-1.955-.614-2.937a6.32 6.32 0 0 1-.216-.762c-.069-.323-.112-.656-.095-.986-.113-.717-.203-1.436-.29-2.156-.198-.736-.257-1.497-.29-2.256-.035-.798-.124-1.593-.144-2.392-.01-.399 0-.848.051-1.298-.009-2.058.107-4.125.395-6.201 1.319-9.478 5.025-18.434 6.344-27.916 1.187-8.527.819-17.253-1.041-25.657-1.862-8.411-5.213-16.635-10.014-23.804a41.43 41.43 0 0 0-1.787-2.445c-.157-.202-.488.059-.354.273 2.302 3.665 4.483 7.401 6.262 11.352 1.79 3.976 3.191 8.134 4.247 12.362 2.104 8.423 2.729 17.21 1.769 25.842-1.056 9.496-4.645 18.419-6.268 27.799-.478 2.759-.718 5.53-.737 8.306.003.024.01.046.006.07s-.004.047-.008.07l-.008.804c-.011.002-.022.005-.033.007l-.001.278.032.581c.008-.001.016-.004.024-.005.039 1.274.131 2.549.271 3.825.008.022.018.041.021.067l.25 2.166c.006-.014.013-.027.018-.04l.139.883.083.569a6.66 6.66 0 0 1 .017.203c.009-.005.018-.01.027-.014a72.45 72.45 0 0 0 .967 4.49c.035.051.05.114.045.184l.231.957c.164.385.249.797.325 1.212l.001-.001c.368 1.335.763 2.664 1.185 3.983 1.518 4.752 3.3 9.421 5.107 14.07 1.836 4.722 3.742 9.418 5.745 14.072-.505-1.148.495 1.152 0 0 .293.677.299.682 0 0H181zm41.847 49.55c-.349-1.107-.821-2.178-1.335-3.217l-.872-1.624c-.272-.465-.506-1.013-1.01-1.241-.046-.02-.121-.009-.13.054-.073.466.125.795.324 1.219l.732 1.53 1.254 3.009c.676 1.996 1.053 4.156.64 6.25-.424 2.15-1.767 3.913-2.945 5.709l-1.925 2.935c-.57.868-1.152 1.732-1.55 2.695-.419 1.013-.585 2.15-.234 3.209.27.818.912 2.027 1.888 2.046.158.004.324-.176.258-.338-.163-.398-.418-.611-.687-.938-.301-.367-.516-.802-.632-1.262-.249-.988.054-2.003.503-2.887.477-.939 1.092-1.806 1.668-2.686l1.878-2.866c1.162-1.775 2.374-3.52 2.719-5.661.32-1.989.06-4.024-.542-5.936h-.002zm7.194 3.72l-.493-3.101-.259-3.42c-.057-1.085.015-2.226-.169-3.296-.02-.117-.2-.107-.227 0-.231.923-.19 1.942-.202 2.888l.096 2.934.287 3.001.128 1.341c.04.517-.053.888-.316 1.333l-6.309 10.379-1.711 2.864-.839 1.442c-.257.46-.604.933-.563 1.477.008.094.092.135.174.099.422-.181.614-.544.865-.912l.905-1.403 1.63-2.622 3.214-5.27 3.249-5.347c.471-.776.718-1.468.54-2.387zm2.543-3.374l-.208-3.614c-.037-1.163.041-2.372-.118-3.524-.037-.262-.467-.249-.516 0-.191.978-.15 2.038-.145 3.031l.077 2.959.219 3.115c.092.937.198 1.868-.163 2.765-.374.929-.981 1.787-1.488 2.646l-1.517 2.572-3.119 5.286-1.616 2.669c-.252.368-.529.718-.848 1.03-.334.327-.734.533-.977.937-.115.19.034.424.247.43.788.022 1.465-.814 1.914-1.385.552-.7.996-1.473 1.449-2.238l3.206-5.428 3.24-5.506c.456-.853.685-1.723.649-2.693-.038-1.02-.199-2.037-.285-3.053l-.001.001zm2.278-.063l-.213-4.046-.205-1.953-.141-.89c-.071-.385-.216-.715-.311-1.089-.031-.126-.228-.099-.226.031.005.326-.056.643-.043.973l.059.975.133 1.79.154 3.835c.013 1.02.006 2.053-.187 3.059-.196 1.015-.61 1.865-1.049 2.789-.08.166.089.379.269.269.869-.538 1.283-1.564 1.515-2.523.252-1.045.266-2.151.245-3.22h0z"/><path d="M236.478 316.534c-.033-.179-.284-.185-.369-.048-.37.596-.454 1.365-.598 2.042l-.417 2.04-.397 2.044c-.129.666-.311 1.39-.132 2.061.049.183.275.183.374.049.423-.577.507-1.348.633-2.034l.379-2.049.356-2.056c.11-.666.292-1.377.171-2.048v-.001zm-22.742 11.67a41.34 41.34 0 0 0-1.45-8.305l-.691-2.207c-.247-.721-.484-1.573-.947-2.188.11-.971.1-1.963.129-2.932l.069-3.235-.025-6.305c-.101-4.262-.333-8.52-.801-12.757-.263-2.378-.38-4.821-.92-7.153-.055-.237-.427-.185-.422.057.038 2.122.391 4.232.53 6.352l.352 6.288a204.92 204.92 0 0 1 .266 12.688l-.066 3.484c-.033 1.206-.173 2.445-.102 3.648.021.341.398.533.674.456.109.483.294.963.442 1.424.211.66.407 1.326.587 1.996a48.7 48.7 0 0 1 .901 4.064c.481 2.719.708 5.484.696 8.245-.003.77-.026 1.541-.071 2.31l-.082 1.153c-.032.375-.109.726.067 1.072.082.161.35.204.469.06.394-.478.322-1.306.369-1.9.055-.692.092-1.385.114-2.079a41.31 41.31 0 0 0-.087-4.237l-.001.001zm6.032-2.239c-.106-1.879-.516-3.676-.972-5.495-.252-1.004-.499-2.016-.598-3.048-.098-1.012.036-2.008.052-3.018.003-.167-.224-.221-.308-.084-.814 1.341-.518 3.152-.234 4.617l1.115 4.976c.279 1.762.297 3.563.185 5.34-.098 1.551-.171 3.284-.907 4.688-.692 1.32-2.285 2.218-3.74 1.528-.192-.09-.42.151-.242.313 1.016.921 2.524.609 3.536-.17 1.255-.967 1.677-2.584 1.877-4.081.244-1.838.339-3.714.235-5.566h.001zM109.421 75.461a11.58 11.58 0 0 0-.242-1.292c-.088-.372-.17-.828-.481-1.083-.054-.044-.153-.052-.189.024-.149.319-.089.669-.062 1.01l.047 1.255c.029.868.029 1.736-.054 2.601-.081.845-.243 1.682-.47 2.499l-.377 1.207-.207.557c-.064.237-.009.378.047.602.039.158.224.218.359.146.178-.095.31-.144.423-.319s.186-.391.265-.587a12.34 12.34 0 0 0 .433-1.268c.245-.879.406-1.78.498-2.688.088-.881.116-1.784.01-2.664v.001zm34.783 14.296c-.495.37-.711.893-.909 1.466a12.4 12.4 0 0 0-.454 1.694c-.111.578-.166 1.17-.18 1.757-.012.517-.038 1.179.211 1.649.122.231.536.135.511-.138-.022-.232.045-.487.071-.719l.078-.792c.06-.541.164-1.076.278-1.608a12.79 12.79 0 0 1 .429-1.526c.18-.513.399-.991.383-1.544-.005-.19-.24-.373-.418-.239h0zm23.633-23.095l-1.259 1.193c-.44.378-.934.698-1.426 1.001l-3.093 1.932c-.92.691-1.725 1.52-2.199 2.582-.229.515-.405 1.079-.413 1.648-.005.422.097 1.144.528 1.343.114.052.234.029.305-.08.124-.189.107-.407.123-.627l.071-.758c.068-.525.249-1.027.51-1.486.563-.989 1.471-1.725 2.4-2.354l2.768-1.904c.759-.606 1.636-1.415 1.833-2.404.018-.089-.08-.146-.148-.087v-.001z"/></g><g fill="#81634b"><path d="M162.349 245.455c.245-.401.312-.89.104-1.363-.073-.165-.173-.314-.293-.443-.019-.275-.102-.54-.238-.756l.071-.126c.27-.59.258-1.402-.249-1.858a1.68 1.68 0 0 0-.128-.212c.132-.198.247-.406.309-.646.182-.709-.126-1.388-.672-1.768a1.35 1.35 0 0 0-.028-.785c-.093-.319-.279-.613-.522-.794-.542-.405-1.444-.451-1.922.114l-.714.845c-.23.198-.452.402-.658.626-.312.337-.458.784-.405 1.215-.247.478-.222 1.066.096 1.51l-.632.646c-.331.349-.474.779-.41 1.253.057.426.299.898.712 1.09.048.023.096.04.144.059-.097.311-.087.616.006.888-.14.432-.088.954.122 1.311.05.087.112.165.18.24-.015.456.175.906.499 1.22-.197 1.033.753 2.25 1.916 1.841.659-.232 1.237-.56 1.72-1.072.02-.021.033-.043.051-.064.697-.3 1.117-1.07.91-1.825-.019-.068-.048-.131-.076-.194.138-.288.166-.629.107-.951v-.001zm7.146-6.363c.343-.399.503-.906.358-1.428-.126-.461-.551-.978-1.053-1.054-.624-.093-1.234-.116-1.845.085-.587.192-1.116.5-1.556.936-.335.333-.496.862-.415 1.339-.09.264-.12.545-.128.824-.362.465-.5 1.021-.258 1.591a1.5 1.5 0 0 0 .264.414c-.11.44-.026.919.269 1.3.194.252.472.473.791.546l.404.054c.275-.001.531-.071.769-.208a2.14 2.14 0 0 0 .781-.595 3.16 3.16 0 0 0 .302-.43 6.53 6.53 0 0 0 .593-.628c.209-.251.361-.512.418-.82a1.62 1.62 0 0 0 .17-.726c.191-.28.226-.657.183-.975a1.76 1.76 0 0 0-.046-.225h-.001zm-1.659-10.288c-.244-.418-.766-.772-1.269-.728-1.008.087-1.938.454-2.679 1.157-.307.292-.597.647-.779 1.031-.109.231-.222.471-.277.722-.062.279-.06.538-.071.817-.016.367.167.699.439.923l-.183.495c-.217.669.169 1.395.764 1.703a1.51 1.51 0 0 0 .426.277c.644.273 1.554.061 1.883-.617.179-.37.375-.74.406-1.154l.406-1.093.422-.911c.101-.225.169-.444.188-.672l.324-.467c.302-.412.244-1.066 0-1.483z"/></g><g fill="#000"><path d="M153.656 239.623c-.359-.342-.814-.5-1.248-.73-.482-.256-.948-.539-1.399-.845-.839-.57-1.617-1.221-2.352-1.919-1.547-1.469-2.885-3.137-4.179-4.827-2.585-3.375-5.16-6.999-8.965-9.097-.989-.546-2.033-1.002-3.126-1.296-.553-.148-1.125-.255-1.696-.303-.531-.045-1.082-.077-1.572.154-.13.061-.07.23.036.273.454.186.96.184 1.443.26.492.077.977.178 1.456.312.98.274 1.917.674 2.803 1.174 1.819 1.025 3.401 2.427 4.803 3.962 2.877 3.148 5.091 6.855 8.159 9.835.815.791 1.687 1.527 2.622 2.173.448.31.912.597 1.392.858.499.27 1.008.578 1.586.588.287.006.447-.372.237-.572h0zm4.593 3.902c-.445-.496-1.04-.853-1.669-1.064-1.648-.553-3.441.058-4.971.687-1.664.683-3.247 1.325-5.084 1.18-.841-.067-1.671-.253-2.486-.501l.071-.018 1.883-.576 1.778-.693.82-.369c.224-.108.477-.202.548-.46.013-.043-.007-.101-.049-.121-.242-.118-.47 0-.707.09l-.828.318-1.791.647-1.811.597-.87.268-1.791-.712-1.697-.782-.024-.49c-.204-1.815-1.302-3.339-3.066-4.159-1.105-.513-2.317-.756-3.481-1.119a11.31 11.31 0 0 1-2.985-1.433c-.943-.639-1.784-1.433-2.453-2.321-.585-.775-1.015-1.628-1.447-2.481-.8-1.581-1.936-3.94-4.129-4.011-.312-.01-.467.44-.165.569.774.33 1.469.724 2.009 1.347.567.657.969 1.433 1.357 2.189.873 1.703 1.771 3.296 3.289 4.592.768.656 1.631 1.225 2.559 1.67.98.468 2.022.761 3.072 1.057 1.027.29 2.177.605 2.973 1.311.586.52.99 1.2 1.201 1.923.075.258.119.519.149.781l-1.177-.635c-.461-.262-.914-.459-1.394-.677-.187-.085-.419.15-.238.308.294.256.553.521.883.731l1.193.716.75.408a4.17 4.17 0 0 1-1.295 2.734c-3.13-1.699-6.481-3.062-9.963-4.002-1.836-.497-3.703-.834-5.576-1.185-1.785-.335-3.597-.736-5.201-1.566-1.569-.812-2.895-2.022-3.649-3.55-.132-.267-.535-.127-.568.121a31.46 31.46 0 0 0-1.315-1.109c-1.252-.989-2.623-1.995-4.166-2.457-.186-.055-.278.201-.127.302 1.258.837 2.544 1.595 3.709 2.568 1.029.86 1.979 1.801 2.914 2.76.285.361.609.694.967.999 1.858 1.954 3.684 3.969 5.79 5.655 1.173.938 2.434 1.771 3.796 2.408 1.681.786 3.467 1.298 5.257 1.77l5.904 1.545c1.879.49 3.768 1.081 5.696 1.34 1.058.143 2.122.128 3.187.118l3.412-.037c2.302-.032 4.612.008 6.906-.209.318-.03.322-.471 0-.497-4.004-.332-8.039.006-12.05-.139-1.923-.069-3.765-.661-5.614-1.144l-5.955-1.555c-1.793-.469-3.602-.914-5.33-1.593-1.456-.573-2.811-1.363-4.066-2.296-1.491-1.109-2.836-2.386-4.142-3.704.907.388 1.853.691 2.761.921 1.901.481 3.85.778 5.756 1.245 1.883.46 3.737 1.035 5.541 1.716a44.89 44.89 0 0 1 5.913 2.751c.249.138.521.071.729-.087 1.062-.805 1.683-2.015 1.858-3.271l.434.214a38.08 38.08 0 0 0 2.243.979c.018.027.045.049.084.053.016.002.032 0 .047 0 .802.311 1.618.58 2.448.779 1.668.398 3.351.425 4.989-.119 1.63-.54 3.177-1.486 4.916-1.647.87-.081 1.738.056 2.473.549.3.201.571.463.762.77.2.317.292.651.523.943.12.151.329.038.386-.102.244-.605-.205-1.29-.605-1.737l-.001-.001zm-29.86-24.25c-.291-.505-.856-.781-1.36-1.03l-1.712-.846-3.35-1.652-3.357-1.641-1.645-.797-.871-.39c-.133-.055-.277-.138-.424-.134s-.236.099-.397.045c-.207-.069-.306.224-.142.336.144.098.073.14.158.285.067.114.19.179.298.247.257.162.53.298.8.438l1.704.859 3.343 1.666 3.349 1.655 1.638.807c.531.262 1.144.602 1.756.524.179-.023.314-.193.212-.37v-.002z"/><path d="M159.162 245.27c-.269 0-.481.144-.687.301l-.669.518-1.272 1.102-1.189 1.126-.588.601-.292.334c-.079.108-.054.226-.108.322-.054.118.062.281.206.205.106-.056.21-.021.325-.104.108-.077.209-.168.31-.254l.597-.529 1.257-1.121 1.227-1.085.585-.538c.2-.185.413-.373.47-.652.023-.112-.05-.226-.172-.226h0zm6.68-5.211c-.472-.797-1.504-1.209-2.38-1.315-2.488-.301-4.423 1.505-5.925 3.238-.207.238.112.562.348.348 1.38-1.246 2.879-2.764 4.852-2.85.833-.037 1.757.18 2.332.827.37.418-.297 1.128-.531 1.512l-.942 1.541-1.754 2.872c-.258.421-.493.909-.837 1.267-.388.403-.948.644-1.43.913l-3.025 1.673-1.434.807c-.469.263-.936.563-1.45.731-1.159.379-2.493.014-3.661-.154l-3.797-.513c-.289-.03-.355.454-.069.509l3.865.617 1.92.303c.571.101 1.109.239 1.695.152.557-.082 1.038-.349 1.521-.625l1.711-.986 3.408-1.995c.448-.261.93-.507 1.294-.884.45-.465.751-1.087 1.085-1.635l1.966-3.224 1.026-1.683c.278-.458.515-.935.213-1.446h-.001z"/><path d="M171.409 237.612c-.037-.115-.134-.194-.243-.221-.069-.32-.178-.558-.444-.782-.249-.208-.534-.35-.841-.453-.661-.222-1.401-.249-2.088-.158-.696.093-1.379.291-1.994.637-.57.32-1.186.82-1.312 1.493-.027.147.139.335.289.222.449-.338.827-.743 1.327-1.017.507-.277 1.082-.441 1.654-.508 1.049-.124 2.203-.023 2.983.766-.147.178-.213.405-.307.635l-.405.904c-.299.621-.632 1.225-.998 1.809-.753 1.201-1.637 2.296-2.627 3.307-1.097 1.121-2.349 2.08-3.606 3.013l-1.945 1.44-.993.687c-.326.224-.663.417-.913.729-.072.09-.008.241.12.206.384-.106.689-.334 1.019-.55l1.072-.709 2.149-1.409c1.299-.885 2.589-1.783 3.727-2.874a17.77 17.77 0 0 0 2.673-3.285 18.59 18.59 0 0 0 1.071-1.927l.438-.984c.131-.316.307-.628.194-.972v.001zm-2.934-9.065c-.025-.05-.063-.095-.126-.124-2.461-1.145-5.139.169-6.722 2.117-1.727 2.126-2.377 4.889-4.086 7.016-.441.548-.913 1.057-1.502 1.447-.288.19-.591.349-.908.486-.248.106-.477.156-.587.418-.017.042.013.083.044.107.367.282 1.013-.119 1.355-.303.489-.261.92-.605 1.345-.957.931-.77 1.622-1.824 2.216-2.862 1.26-2.205 2.189-4.882 4.449-6.291.536-.335 1.133-.577 1.76-.673.686-.104 1.361.017 2.042.061l-.013.039-1.093 3.343-.615 1.796-.305.898c-.04.121-.111.262-.12.388-.01.147.074.285.044.432-.011.055.061.088.091.039.079-.129.229-.167.322-.279.079-.096.12-.251.171-.365l.351-.819.725-1.837 1.312-3.647a.38.38 0 0 0-.15-.43zM136.041 50.754a7.83 7.83 0 0 0-.468-1.556c-.422-1.017-1.028-1.948-1.795-2.739s-1.682-1.415-2.697-1.835c-1.26-.522-2.548-.583-3.882-.346-.822.146-1.633.351-2.428.6-.384.12-.775.21-1.167.299-.331.076-.71.093-.975.317-.075.063-.027.179.055.206.328.107.706-.032 1.041-.087l1.361-.166c.856-.069 1.696-.275 2.55-.361 1.456-.148 2.884.263 4.105 1.058a7.57 7.57 0 0 1 2.494 2.704 7.35 7.35 0 0 1 .669 1.705l-.364.122a7.39 7.39 0 0 1-.718.263c-.441.136-.897.231-1.358.268-.992.082-1.984-.032-2.919-.378-1.948-.72-3.454-2.354-4.441-4.131-.263-.475-.966-.056-.723.423 1.018 2.02 2.791 3.785 4.917 4.603a7.11 7.11 0 0 0 3.235.43 7.64 7.64 0 0 0 1.604-.331 6.82 6.82 0 0 0 .751-.298c.061-.029.112-.058.162-.089.058.356.156.698.432.887.13.09.291.036.4-.052.419-.334.242-1.068.159-1.515v-.001zm23.75 7.422c-.067-.576-.285-1.146-.554-1.657-.534-1.01-1.333-1.878-2.259-2.54-2.043-1.461-4.801-1.785-7.198-1.151-.63.166-1.259.396-1.821.729-.444.263-1.208.746-1.077 1.352.022.101.125.167.223.17.197.006.357-.088.508-.199-.001.008-.005.016-.005.024-.006.117.045.237.083.346.089.255.225.498.364.728.262.431.574.842.913 1.215a7.91 7.91 0 0 0 2.492 1.828 7.38 7.38 0 0 0 3.309.693 9.3 9.3 0 0 0 1.684-.207c.514-.109 1.221-.252 1.618-.612.173-.157.037-.467-.191-.461-.487.013-.993.254-1.481.336a6.91 6.91 0 0 1-1.63.066 8.02 8.02 0 0 1-2.957-.792 7.6 7.6 0 0 1-2.162-1.622 7.95 7.95 0 0 1-.86-1.094l-.345-.531c-.062-.084-.135-.19-.227-.243-.032-.018-.064-.028-.096-.035.17-.109.344-.213.527-.3.607-.29 1.278-.451 1.938-.567 1.393-.244 2.868-.137 4.203.333 1.231.433 2.338 1.234 3.101 2.297a7.7 7.7 0 0 1 .904 1.657l.345.88c.114.312.152.641.264.95.05.139.232.138.283 0 .173-.468.161-1.103.104-1.594h0zm-21.352-8.158l-1.66-3.207c-.496-1.061-1.089-2.065-1.913-2.906-1.65-1.688-3.917-2.7-6.283-2.73-1.273-.015-2.85.207-3.886 1.008-.095.074.014.194.105.18l2.336-.449c.783-.072 1.579-.066 2.357.058 1.382.221 2.701.771 3.82 1.612s1.957 1.939 2.608 3.171c.639 1.209 1.161 2.646 2.328 3.45.117.08.252-.075.188-.187zm24.42-.56c-.805-.863-1.803-1.569-2.871-2.066-2.534-1.178-5.309-1.18-8.005-.642-.768.154-1.53.343-2.267.607-.585.209-1.443.436-1.673 1.083-.022.06.024.12.078.139.531.178 1.112-.135 1.616-.29a17.32 17.32 0 0 1 1.839-.455 14.49 14.49 0 0 1 3.784-.223c2.274.166 4.519.834 6.206 2.435.415.394.766.828 1.11 1.282.361.476.737.896 1.143 1.327.132.141.346.023.357-.148.085-1.217-.505-2.177-1.318-3.048l.001-.001zm-23.16-5.811a9.28 9.28 0 0 0-.991-1.874c-.825-1.207-1.894-2.197-3.136-2.966-1.325-.82-2.787-1.521-4.299-1.916-1.519-.397-3.026-.44-4.361.482-.169.117-.132.454.116.43 2.807-.278 5.519.687 7.884 2.134a10.34 10.34 0 0 1 2.83 2.553 12.07 12.07 0 0 1 .992 1.564c.278.512.452 1.267.887 1.666a.27.27 0 0 0 .447-.118c.2-.604-.152-1.395-.369-1.955v-.001zm19.18 7.91c-1.223-.854-2.668-1.413-4.138-1.65a10.57 10.57 0 0 0-4.496.239c-1.383.382-2.934 1.071-3.887 2.18-1.226 1.426-.842 3.302-1.316 4.988-.026.095.119.162.163.068.583-1.242.636-2.682 1.254-3.903.631-1.248 2.097-1.986 3.366-2.425 2.585-.894 5.601-.71 7.999.636.7.393 1.348.874 1.894 1.463.554.597.853 1.297 1.228 2.005.096.181.374.092.376-.102.019-1.454-1.347-2.735-2.443-3.5zm-14.578 15.916c-.154.027-.283.113-.425.159l-.211.068a1.16 1.16 0 0 1-.17.033c-.299.022-.549-.014-.794-.17a1.19 1.19 0 0 1-.459-.593 1.7 1.7 0 0 1-.081-.378c-.005-.045.005-.092.004-.139.399-.115.788-.287 1.149-.529.132-.089.051-.295-.11-.258-.61.139-1.22.173-1.843.186-.598.013-1.223-.061-1.775-.31a3.1 3.1 0 0 1-1.221-.958 4.01 4.01 0 0 1-.387-.661c-.055-.117-.091-.252-.156-.364-.06-.101-.158-.131-.225-.222-.007-.009-.02-.008-.024.003-.061.16-.144.217-.129.401.011.139.052.279.095.41a2.61 2.61 0 0 0 .17.398l-.22.065-.531.15c-.341.063-.702.074-1.045.019-.348-.056-.685-.17-.991-.343a2.6 2.6 0 0 1-.431-.297c-.147-.128-.259-.29-.403-.419-.272-.245-.658.06-.498.384.184.371.624.688.974.888a3.51 3.51 0 0 0 1.231.42c.443.064.894.06 1.329-.053.196-.051.413-.117.59-.218.083-.048.186-.117.257-.188.35.478.796.894 1.315 1.18.744.409 1.556.539 2.344.429a1.73 1.73 0 0 0 .377 1.148c.401.514 1.058.719 1.688.602.321-.059.756-.258.848-.605.042-.155-.097-.267-.241-.242h-.001zm-.187 13.33c-.549-.087-1.094-.164-1.609-.388-.542-.237-1.037-.588-1.503-.946-.946-.726-1.842-1.569-2.952-2.04a4.09 4.09 0 0 0-1.789-.324c-.464.018-.893.069-1.311-.174-.339-.198-.62-.484-.935-.716-1.19-.878-2.676-1.046-4.112-1.097l-2.527-.132c-.863-.09-1.644-.303-2.464-.576-.305-.101-.42.313-.202.479 1.181.895 2.893.925 4.307 1.002 1.457.079 3.059.18 4.309 1.018.657.441 1.162 1.076 1.999 1.167.761.083 1.464-.152 2.218.084 1.168.367 2.115 1.25 3.085 1.96s2.294 1.583 3.534 1.057a.21.21 0 0 0-.048-.374zm-3.272-4.94c-.226-.389-.544-.689-.862-1.002-.267-.263-.537-.515-.922-.573-.398-.06-.809.048-1.213.015a3.11 3.11 0 0 1-1.239-.372c-.697-.384-1.209-.939-2.07-.868-.418.034-.833.146-1.248.211-.361.056-.898.015-1.179.28-.039.038-.043.115 0 .152.244.204.558.162.863.151.42-.015.833-.063 1.25-.11a1.54 1.54 0 0 1 1.155.285c.32.214.609.468.951.649.63.334 1.354.504 2.067.453.183-.013.384-.066.565-.017.202.056.353.231.506.369.314.282.615.567.995.759.241.122.525-.129.38-.38h.001zm-2.253 6.889c-.393-.189-.895-.171-1.323-.24l-1.47-.299c-.943-.25-1.863-.592-2.777-.928-.788-.29-1.581-.597-2.319-.999-.382-.208-.761-.443-1.1-.716-.24-.193-.499-.541-.818-.565-.045-.003-.074.039-.078.079-.037.321.324.64.535.848.315.311.663.582 1.032.826.758.501 1.581.867 2.424 1.199l2.896 1c.515.136 1.043.254 1.576.286.444.026 1.038.056 1.422-.2.097-.064.121-.231 0-.29h0zm22.761-18.214l-1.528 4.008-1.762 3.835c-1.294 2.527-2.842 4.941-4.578 7.186-3.489 4.51-7.826 8.549-12.801 11.373-1.518.863-3.107 1.584-4.773 2.109-.821.258-1.657.464-2.506.605-.857.142-1.743.213-2.582.43-.252.065-.248.439 0 .505 1.468.396 3.161.041 4.603-.33 1.535-.395 3.017-.994 4.434-1.702 2.732-1.366 5.251-3.168 7.573-5.145 4.449-3.786 8.099-8.461 10.782-13.644a45.23 45.23 0 0 0 1.996-4.417c.588-1.517 1.102-3.141 1.405-4.741.033-.174-.2-.237-.263-.072v-.001zm-45.693-6.214l-.175-3.395.122-3.296.167-1.639.104-.815c.035-.292.03-.581.058-.872.011-.114-.127-.139-.156-.034l-.242.892-.12.754-.192 1.637-.142 3.471a32.17 32.17 0 0 0 .195 3.348c.122 1.094.279 2.252.616 3.273.034.104.145.03.138-.065l-.373-3.26zm13.175 35.506c-1.801-1.934-3.832-3.627-5.781-5.41l-5.683-5.62c-3.591-3.915-6.748-8.267-8.794-13.197a40.39 40.39 0 0 1-1.573-4.591c-.443-1.581-.721-3.197-1.138-4.782-.079-.301-.539-.237-.541.073-.008 1.457.275 2.952.599 4.368a33.26 33.26 0 0 0 1.264 4.202c.971 2.6 2.234 5.076 3.742 7.404 2.939 4.537 6.695 8.458 10.68 12.083 2.234 2.032 4.506 4.055 7.03 5.72.156.103.314-.122.194-.251l.001-.001z"/><path d="M109.703 50.025c-.091-.113-.231-.054-.297.044l-.006-.005c-.159.248-.168.548-.234.83-.076.323-.168.642-.285.953-.21.56-.481 1.1-.734 1.641l-1.5 3.012c-.535.977-1.124 1.934-1.824 2.801l-1.023 1.206c-.352.397-.774.774-1.047 1.233-.061.101.039.218.148.192 1.052-.249 1.994-1.289 2.638-2.101.742-.936 1.378-1.948 1.946-2.998.577-1.066 1.077-2.171 1.568-3.279l.702-1.787c.153-.53.324-1.275-.05-1.743l-.002.001z"/></g><path opacity=".2" d="M137.143 59.463c1.833-3.578-1.488-8.94-7.417-11.976s-12.22-2.597-14.053.981 1.489 8.94 7.417 11.976 12.221 2.597 14.053-.981z" fill="url(#A)"/><path opacity=".2" d="M162.24 67.519c1.318-3.559-2.393-8.214-8.289-10.397s-11.745-1.069-13.063 2.489 2.394 8.214 8.29 10.397 11.744 1.069 13.062-2.489z" fill="url(#B)"/><path d="M59 253s31.105 24.5 75.5 24.5c40 0 62.5-12.5 65.5-14" stroke="#fff" stroke-width="13.8"/></g><defs><radialGradient id="A" cx="0" cy="0" r="1" gradientUnits="userSpaceOnUse" gradientTransform="translate(126.314 53.9938) rotate(27.117) scale(12.0578 7.28015)"><stop offset=".001" stop-color="#6a3636"/><stop offset=".185" stop-color="#6a3736" stop-opacity=".96"/><stop offset=".376" stop-color="#6d3d39" stop-opacity=".842"/><stop offset=".57" stop-color="#72453d" stop-opacity=".646"/><stop offset=".767" stop-color="#785243" stop-opacity=".371"/><stop offset=".964" stop-color="#80624a" stop-opacity=".02"/><stop offset=".974" stop-color="#81634b" stop-opacity="0"/></radialGradient><radialGradient id="B" cx="0" cy="0" r="1" gradientUnits="userSpaceOnUse" gradientTransform="translate(151.469 63.6013) rotate(20.323) scale(11.3816 6.87191)"><stop offset=".001" stop-color="#6a3636"/><stop offset=".185" stop-color="#6a3736" stop-opacity=".96"/><stop offset=".376" stop-color="#6d3d39" stop-opacity=".842"/><stop offset=".57" stop-color="#72453d" stop-opacity=".646"/><stop offset=".767" stop-color="#785243" stop-opacity=".371"/><stop offset=".964" stop-color="#80624a" stop-opacity=".02"/><stop offset=".974" stop-color="#81634b" stop-opacity="0"/></radialGradient><clipPath id="C"><path fill="#fff" d="M0 0h262v349H0z"/></clipPath></defs></svg>