<?xml version="1.0" encoding="UTF-8"?>
<svg id="Ebene_1" data-name="Ebene 1" xmlns="http://www.w3.org/2000/svg" xmlns:xlink="http://www.w3.org/1999/xlink" viewBox="0 0 262 349">
  <defs>
    <style>
      .cls-1, .cls-2, .cls-3 {
        fill: none;
      }

      .cls-4 {
        clip-path: url(#clippath);
      }

      .cls-5 {
        fill: #fff;
      }

      .cls-6 {
        fill: #93153c;
      }

      .cls-7 {
        fill: #7f4530;
      }

      .cls-8 {
        fill: #81634b;
      }

      .cls-9 {
        fill: #a9a9a9;
      }

      .cls-10 {
        fill: #72533e;
      }

      .cls-11 {
        fill: #472712;
      }

      .cls-12 {
        fill: #7a1c3e;
      }

      .cls-13 {
        fill: url(#Unbenannter_Verlauf_2);
      }

      .cls-13, .cls-14 {
        isolation: isolate;
        opacity: .2;
      }

      .cls-14 {
        fill: url(#Unbenannter_Verlauf);
      }

      .cls-2 {
        stroke-width: 13.78px;
      }

      .cls-2, .cls-3 {
        stroke: #fff;
      }

      .cls-3 {
        stroke-width: 13.8px;
      }
    </style>
    <clipPath id="clippath">
      <rect class="cls-1" y="0" width="262" height="349"/>
    </clipPath>
    <radialGradient id="Unbenannter_Verlauf" data-name="Unbenannter Verlauf" cx="-144.45" cy="576.21" fx="-144.45" fy="576.21" r=".99" gradientTransform="translate(-235.49 4581.64) rotate(27.12) scale(12.06 -7.28)" gradientUnits="userSpaceOnUse">
      <stop offset="0" stop-color="#6a3636"/>
      <stop offset=".18" stop-color="#6a3736" stop-opacity=".96"/>
      <stop offset=".38" stop-color="#6d3d39" stop-opacity=".84"/>
      <stop offset=".57" stop-color="#72453d" stop-opacity=".65"/>
      <stop offset=".77" stop-color="#785243" stop-opacity=".37"/>
      <stop offset=".96" stop-color="#80624a" stop-opacity=".02"/>
      <stop offset=".97" stop-color="#81634b" stop-opacity="0"/>
    </radialGradient>
    <radialGradient id="Unbenannter_Verlauf_2" data-name="Unbenannter Verlauf 2" cx="-144.82" cy="570.71" fx="-144.82" fy="570.71" r=".99" gradientTransform="translate(334.99 4313.79) rotate(20.32) scale(11.38 -6.87)" gradientUnits="userSpaceOnUse">
      <stop offset="0" stop-color="#6a3636"/>
      <stop offset=".18" stop-color="#6a3736" stop-opacity=".96"/>
      <stop offset=".38" stop-color="#6d3d39" stop-opacity=".84"/>
      <stop offset=".57" stop-color="#72453d" stop-opacity=".65"/>
      <stop offset=".77" stop-color="#785243" stop-opacity=".37"/>
      <stop offset=".96" stop-color="#80624a" stop-opacity=".02"/>
      <stop offset=".97" stop-color="#81634b" stop-opacity="0"/>
    </radialGradient>
  </defs>
  <g class="cls-4">
    <g>
      <path class="cls-2" d="m241.51,226.25c-10.72,22.93-40.37,38.09-67.07,45.57C16.37,321.47-69.58,77.72,105.99,48.52c29.51-4.68,63.83,0,71.14,30.77,71.86-16.27,94.33,99.78,64.37,146.96Z"/>
      <path class="cls-9" d="m170.5,262.89c2.68,8.08-29.99,16.11-29.99,16.11,0,0-37.31-.03-35.6-5.73,4.17-13.28,5.75-27.38,6.85-41.2,1.92,1.31,2.83,4.29,5.06,4.91.43-.03.31-.69-.11-.66-1.86-1.32-3.01-3.67-4.88-5.12,2.24-17.03-.97-33.61-5.01-50.05-1.3-11.09,1.77-22.07,5.47-32.46,2.03-8.91,2.65-18.24,1.9-27.4-.85-.49-.94-3.51-1.2-4.34-.46-.68-1.33-1.81-.67-2.58-.56-.54-.79-1.32-.66-2.02-.32-.5-.65-1.07-1.19-1.33-1-.65-.03-1.96.95-1.54.83-.83,2.43-.18,2.53.98.44.05.9.4,1.29.65,2.98.01,5.9,1.63,8.78,2.49,1.75-.42,3.72-.33,5.39.26.92-.22,1.9-.31,2.82-.26,3.65-1.53,7.73-.75,11.09-3.52,15.58-5.5,10.51,15.8,10.57,24.32-.19,6-.81,12.21-.2,18.05.81,1.36,2.68,1.37,3.59,2.6.76.4,1.42-.95,1.62-1.51,2.98,3.58,4.51,8.94,4.81,13.64,2.13,10.43.87,21.32-2.04,31.46-.76,2.44-.97,5.37-2.25,7.64-.78,2.16-.92,4.81-1.2,7.09-2.48,7.87-1.19,16.17-.09,24.14,10.01,3.5,8.38,17.13,12.39,25.37h0Z"/>
      <path class="cls-6" d="m106.44,227.99c9.3,1.63-3.37,40.36-5.94,47.01-62.02-27.86-33.26-1.41-30.96-48-9.18,1.49-3.33-15.75-12.53-24.03-1.38-.19-2.44-1.98-1.2-2.99l-.09.07.17-.14c-.06-.88.13-1.75.68-2.53,1.95-2.74,1.35-6.32,1.25-9.73-2.89-14.47.16-30.08-4.73-44.45-6.12-12.48-.99-29.61,10.11-37.62,8.34-5.21,19.66-4.45,29.01-4.54,4.79,1.39,4.2,7.65,4.61,11.61l1.51,14.55,3.21,30.29c.25.5.42,1.05.49,1.65.13,13.39-.26,26.95,1.77,40.27.82.51,1.62,1.57,2.32,2.22,3.7,3.01,1.23,9.35-3.59,8.76-1.25.9-2.95,1.1-4.47.62-2.23,4.53-5.07,9.25-4.34,14.42,4.1.46,9.15.13,12.72,2.56Zm112.02,1.34c1.32,9.05,16.04,26.2-1.77,26.94-4.15,2.24-9.06,4.93-12.23,9.01.12.36-25.6,7.33-25.5,7.72-15.92-16.29-18.02-40.4-14.61-62.04,2.21-12.11,5.96-24.03,5.1-36.46-.59-14.59-10.06-26.28-14.4-39.49-.57-8.82-.39-17.66-1.1-26.49-.32-4.03,3.09-5.78,6.25-5.28,1.8-.22,3.44.68,4.94,1.5,6.92.96,11.89,7.75,15.53,13.1,3.1,1.85,3.53,5.26,3.93,8.62.91,8.65,5.94,15.85,9.2,23.8,6.19,10.47,1.86,23.47,5.27,34.93,2.2,4.32,4.66,8.18,8.02,11.6,1.2,2.37,3.87,7.04,5.39,9.2,1.12,4.06,3.79,7.76,4.09,12.04.81,2.48,2.48,8.74,1.9,11.3h0Z"/>
      <g>
        <path class="cls-12" d="m115.45,236.26c.02.11.04.22.04.35h0c.17,4.89.15,9.9-.5,14.79-.08,9.86-3.66,19.56-6.25,29.02,2.31-5.34-11.57-5.67-9.61-11.15,4.17-12.25,6.9-25.45,5.99-38.43-.47,1.49-2.24,1.49-3.33.69-1.31-.47-2.77-.67-4.13-.98-9.78.18-.3-20.64,4.45-23.26.24-.45.62-.8,1.05-1.07.13-.47.51-.8.93-1.02.06-.16.14-.31.25-.44-1.3-.99-3.11-2.23-2.11-4.1.41-.68.43-1.72.33-2.52-.7-.66-1.43-1.36-2.06-2.07-1.69-.47-2.24-2.41-.85-3.44,1.06-2.92-.08-6.18-.24-9.18-3.4-5.2-2.99-12.7-1.41-18.49-.02-4.13,1.5-8.56,2.96-12.44,4.12-4.69,5.6-11.41,2.36-17.07-1.5-.39-1.82-2.59-.44-3.34,1.54-.44,1.97-1.95,2.1-3.4.26-1.68.15-3.5-.62-5.04-1.02-.76-.83-2.55.39-3,1.1-1.85.04-3.89.03-5.85-1.39-.91-1.3-2.7-.09-3.4.2-.61.38-1.22.48-1.85l-.38-.96c1.27-3.17-2.35-4.7.27-7.83,1.22,2.09,2.49,4.13,3.42,6.38,3.1,4.34,4.42,9.9,4.72,15.31,2.72,10.69-.34,21.84-3.34,32.16.35.44.28,1.17.09,1.78-2.15,6.96-4.43,14.19-4.28,21.53.82,2.97.7,6.23,1.3,9.29,1.52,4.06,2.06,9.89,3.98,13.86.46.2.83.57.94,1.16.4,2.31,1.12,5.76,1.41,8.06.76.4,1.15,1.44.65,2.17l.02-.02c-.28.57-.85.87-1.46.9l.18-.02c-.39.09-.79.18-1.18.27.01,1.08-1.18,1.41-1.69,2.18-.39.49-1.36,1.7-1.7,2.19-1.41,3.7-2.77,7.37-3.09,11.31.14.26.22.53.23.81.1-.33.24-.67.49-.92.08-.44.18-.92.45-1.29,3.78,1.87,6.66,5.12,9.26,8.38Zm106.78,23.63c6.87,10.33-.93,6.94-8.38,9.91-1.96-.06-2.59,2.55-4.61,2.03-.79.98-1.97,1.95-3.24,1.17-.08-.15-.7-.98-.72-1.14-1.41-1.41-3.72-4.91-2.78-6.86.99-1.36,2.09-3.24,3.58-4.09,2.74-4.45,7.87-4.81,12.61-4.79,2.69-2.04,3.38,1.8,3.54,3.77h0Zm-42.1,15.28c.11.24.18.51.21.77-.2-.61-11.64.97-11.69.32h0c-5.22-19.05-13.29-38.77-10.77-58.8,1.91-16.56,9.99-32.74,6.69-49.63-.3-6.28-2.58-8.74-6.12-13.44,1.4-5.03-.51-11.35-2.26-16.22.36-.14.76-.14,1.13,0,.79-.2,1.63.15,2.08.86,8.2,11.92,13.86,25.63,14.05,40.27,3.26,12.46-4.59,26.52-6.7,38.68.86,4.42-1.35,9.45-.29,14.15.25,3.6,1.4,8.37,2.24,11.91.69.37,1.39,4.57,1.66,5.24.28,2.67,2.04,5.17,2.23,7.82,2.27,6.12,4.78,12.15,7.52,18.07Z"/>
        <path class="cls-12" d="m158.96,146.44l-.09-.15c.04-.08.07-.17.05-.27.44.86,1.22-.26.52-.61-.56-.85-.24-2-.73-2.81,3.31-.98-.78-2.27-1.32-.02-2.16,1.73.41,4.17,1.55,5.72,1.48.68.74-1.42.02-1.86h0s0,0,0,0Z"/>
      </g>
      <path class="cls-11" d="m158.64,141.67c.24-.54-.36-1.04-.83-.99.21-.38-.17-.8-.56-.75-1.65-.69-3.36,7.79-1.39,7.48.08.05.17.07.26.07.13.15.34.21.53.19.5,1.11,1.69,1.19,1.06-.28-.15-1.93-.02-3.96.93-5.72h0Z"/>
      <path class="cls-8" d="m235.84,313.2c-.06-.04-.11-.04-.16-.02-.2-2.23-.13-4.91-.22-7.14.09-8.5-4.29-16.37-8.61-23.3-.94-3.47-3.48-11.34-3.79-14.83-.46-4.88-7.21-2.42-6.19,1.68-1.63.03-3.44.6-4.89,1.37-1.8-1.85-6.43-.34-5.3,2.73.26.6.85,2.36,1.08,3,.5,2.81.18,6.25,1.73,8.78.1.7.17,1.79.3,2.52,1.04,6.84.58,16.27.93,23.14-.06.17.06.72.07.9-.54.61-.43,1.62-.25,2.36,1.75,6.3,3.68,12.89,3.11,19.62-.32,0-.52.32-.44.6-.56,2.66,4.56,1.76,4.85-.39.42-.6.77-1.36.67-2.08,1.4-5.14-.4-10.23-1.15-15.29.15-.06.3-.12.45-.2,1.33,3.62,4.18,6.75,5.16,10.46.21,1.46-.2,3.03.13,4.48-1.04,3.77-4.37,6.45-5.62,10.03-.08.14-.18.28-.25.43-3.58,2.01.22,10.75,3.24,3.42,1.95,2.9,3.75-1.62,4.42-3.24,1.53-2,2.74-4.67,4.1-6.85.68.02,1.48-2.45,1.79-2.87.25-.08.36-.34.45-.56.03.21.27.33.46.28,0,.01.02,0,.03,0,2.96-1.46,2.12-6.14,2.18-8.97.81-.24.8-1.53.93-2.27.79-2.13,1.45-5.55.81-7.79h0,0Zm-14.61,31.68c-.08-.03-.16-.04-.24-.02.04-.32.61-1.15.78-1.43l-.54,1.45h0Zm11.26-14.66c-.13.08-.23.2-.34.31l.25-1.16c.12.02.25.01.36-.04-.06.31-.15.61-.27.89h0Z"/>
      <path class="cls-12" d="m221.06,262.49c-3.96-.86-8.9,1.72-12.56,3.25-6.71.3-5.73,11.29,1.32,5.91.75-.74,2.25-1.13,3.2-1.58,2.18.26,4.21-.84,6.3-1.31,1.32-.58,2.98.01,4.1-1.15,2.53-1.91.65-5.75-2.35-5.13h0s0,0,0,0Z"/>
      <path class="cls-8" d="m169.23,236.53c-1.68-.08-3.45.03-4.72,1.35,1.22-2.18,1.98-4.56,2.8-6.86,2.33-2.06-1.33-3.74-3.03-2.12-2.81,1.65-4.41,4.79-5.61,7.73-.18.27-.5.79-.69,1.05-.44.59-1.28.82-1.67,1.44-1.27.6-2.69.89-3.97.16-2.32-.99-4.27-2.7-6.1-4.38-2.13-3.79-5.33-6.65-8.1-9.85h0c-2.28-2.47-5.6-3.69-8.61-5.01-3.72-1.82-7.65-3.51-11.44-5.19-1.12-.51-3.11-3.03-4.14-1.89-5.2,2.09-8.07,10.32-8.35,15.83-2.7,1.66,2.9,3.39,3.81,4.19,3.08,1.82,5.72,5.34,8.26,7.5,6.5,6.49,16.26,8.23,24.93,9.65,2.71,1.59,6,1.09,8.99,1.65,1.94,1.23,4.03-1.08,5.8-1.81.82.25,1.79.15,2.45-.46,2.26-.49,14.94-11.78,9.39-12.97h0s0,0,0,0Zm-5.25-183.54c-1.3-7.92-12.9-12.5-8.11-21.16,1.3-2.32-.83-4.75-3.28-4.26-9.74.85-17.02,7.13-25.59,11-6.52,2.26-14.86,4.56-19.81,9.65-7.79,8.67.51,21.45-1.8,31.72-2.23,7.73-5.37,16.7,1.09,23.25,1.96,1.81,2.51,5.9,5.6,5.86,8.46,3.67,19.05,6.9,27.82,2.36,3.31-.22,12.9-6.3,7.06-9.14-.18-4.58-2.9-9.13,1.13-12.44,7.68-10.73,19.25-22.6,15.89-36.84Z"/>
      <path class="cls-11" d="m179.36,32.48c-.59-7.48-4.01-17.79-12.62-18.78-9.61-16.08-41.7-16.03-52.22-.72-7.9,11.27-15.09,24.88-14.44,38.78.57,7.94-3.07,15.23-2.41,23.16-1.28-1.87-3.69-.29-3.24,1.7-2.39,2.64-2.76,6.41-1.94,9.73-1.86,3.7-2.09,8.18.72,11.51-2.38,3.06-2.84,7.95.19,10.78-1.88,3.3-1.42,7.04.4,10.22-2.69,4.73-.68,9.5,1.91,13.75-.42.42-.69,1.04-.65,1.64-3.42,3.29-2.63,9.02,1.15,11.74,2.02,1.22,1.5,3.65,2.82,5.19-2.63,7.46,7.71-5.45,5.51-9.86-.29-3.11-2.34-5.6-2.86-8.65,3.87-2.31,3.36-7.35,1.41-10.79,1.59-1.54,2.62-4.62,1.31-6.62-.21-1.02-.54-2.01-.99-2.94,2.47-2.56,2.26-7.03.3-9.83,2.04-2.2,1.89-6.36.52-8.36-.02-.05-.04-.09-.05-.14,2.36-2.14,2.32-5.58,1.3-8.37.84-.6,1.45-1.44,1.79-2.41.26-.19.51-.39.76-.59,1.11-4.89,2.09-9.66-.63-14.29-.52-1.3-1.76-4.26-1.83-5.78.43-1,.26-2.33-.46-3.16,0-.01,0-.03,0-.05,2.1-2.71,3.48-6.02,4.64-9.22,10.49-3.22,7.35-7.31,21.22-10.18,3.07-2.14,4.28-6.43,8.03-7.66,5.13-.86,11.04.98,15.39-2.82-5.23,20.77,7.52,10.97,8.52,29.87-.65,3.23-2.17,7.46-3.03,10.44-.64,1.46-1.4,2.89-1.9,4.4-.56-.1-2.16,2.28-1.48,2.59-.83,1.08-1.45,2.39-2.48,3.28-1.89,1.33-3.43,3.41-4.87,5.25-.14.03-.27.17-.33.33-.75-.18-.89.95-1.25,1.42-.13-.07-.27-.08-.4-.03-.57-.26-.83.57-1.08.95-.47-.21-.71.38-.89.73-.32.12-.44.5-.62.78-.2-.03-.4.15-.46.38h0c-.46,1.06-.77,2.23-.6,3.38-.04.19-.09.45.06.6-.5,2.11-.15,4.39.84,6.34-1.81,3.43-.88,7.61,1.35,10.62-3.01,3.98-2.67,9.37.57,13.14-1.95,3.78-.68,8.37,2.1,11.4-3.07,6.59,1.83,7.03,2.1,12.18-.14.23-.29.44-.45.66-2.86,2.93.63,6.48,1.79,9.4.56,1.06.04,2.58,1.11,3.33-.09.34-.31.96-.51,1.24-.28,1.09,1.28.83,1.32-.07,1.89-.98,4.98-3.73,4.86-5.98,2.04-4.28-1.65-9.29-.88-13.33,2.23-4.66,1.83-10.13-1.31-14.34,1.59-3.31,1.34-7.44-.63-10.55.5-.68.91-1.42,1.24-2.19h0c.08-.16.13-.34.02-.5.06-.2.19-.43.1-.63.05-.12.13-.31.17-.43.38-.17.33-.75-.04-.9.12-1.76-.65-4.58-.93-6.35,3.51-1.98,3.3-7.05,1.55-10.27,2.71-2.46.83-6.47,1.94-9.47,4.09-4.73-.3-8.82.3-13.7,1.7-3.89,7.07-3.83,8.77-7.65,2.05.74,4.32.06,1.41-1.54,6.31-8.59,9.85-20.87,8.98-31.76h0Z"/>
      <path class="cls-10" d="m141.43,80.27c-.2-.41-.62-.69-1.06-.76-.26-.32-.61-.55-.96-.76,3.36-2.22-1.09-4.26-3.39-3.97-.91-1.41-4.65-2.36-4.89-.09-.11.24-.17.5-.18.77-7.34-.88-.59,6.82,3.26,6.15,1.87,1.26,8.22,2.49,7.23-1.34h0s0,0,0,0Zm-4.71-2.71c-.24,0-.48.01-.71.06.13-.23.21-.48.28-.72.07.02.71.16.76.17-.15.13-.26.3-.32.49h0Z"/>
      <path class="cls-5" d="m134.61,48.91c-1.89-2.48-4.84-4.87-8.19-3.96-4.61,1.32,2.39,6.61,5.02,6.06,1.38.66,4.61-.21,3.17-2.11h0Zm22.94,6.32c-1.78-1.59-5.28-2.69-7.43-1.62-1.95-.29-2.47,1.68-.74,2.53,1.07,3.45,12.37,4.12,8.17-.91h0Z"/>
      <path class="cls-7" d="m132.79,45.92c-.31-.28-.68-.48-1.07-.58-2.01-2.23-5.22,1.3-3.74,3.52,1.82,3.78,7.79.32,4.81-2.94h0Zm24.13,9.22c-.4-3.59-6.85-3.28-5.93.72.7,3.51,6.49,3.12,5.93-.72Z"/>
      <g>
        <path d="m131.86,47.42c-.64-2.61-4.06.03-1.73,1.33.82.42,1.93-.42,1.73-1.33h0Zm23.38,7.71c-.42-1.56-2.85-.9-2.4.66.42,1.56,2.85.9,2.4-.66Zm15.33,10.67c-8-2.18-7.54-8.45-8.88-15.06-5.04-7.19-9.25-6.54-7.69-17.51.4-4.07,1.99-7.86,4.12-11.31-.69-1.24-2.74,3.73-3.18,4.55-1.8,7.07-10.3,4.75-15.7,5.48-8.86,5.07-3.93,7.76-17.6,10.44-8.76,7.21-8.69,5.94-18.73,9.01-.84.23-2.28,2.96-.69,2.33.86-1.28,2.25-1.99,3.74-2.26,7.61.03,12.1-6.21,18.45-8.86,7.34.08,9.49-5.86,14.49-9.38,4.79-1.1,10.71,1.12,14.61-2.81-2.43,9.24-.33,13.92,6.64,19.83,1.96,5.68.84,13.69,8.25,15.71-5.88,5.48-2.92,4.77.9.19.33.01,1.64.22,1.26-.36h0s0,0,0,0Zm9.15-36.97c-.87-6.38-6.98-17.93-13.82-15.05,7.43.19,11.11,8.36,12.5,14.57,2.97,12.35-1.97,24.47-7.56,35.24-4.16-4.84,1.5-11.29-1.51-16.47-4.8-5.9-4.63-6.16-4.5-12.69-4.34,7.13,5.83,11.72,4.11,18.58-1,4.24-1.85,10.53,3.04,12.64.87-.27-.77-1.39-.99-1.87,7.49-9.18,10.88-23.09,8.72-34.96h0Zm-33.86-8.28c-8.84-3.01-15.77,5.59-19.81,12.28-4.27,3.84-11.94,1.58-14.92,7.59.32.82,2.45-2.17,3.37-2.32,3.44-2.27,8.03-1.16,11.34-3.61,5.68-7.44,9.35-14.91,20.01-13.94h0Zm7.97-4.32c-6.88-2.72-16.59-4.14-22.17,1.83,8.41-4.62,13.66-3.03,22.17-1.83h0Zm16.9,13.59c-.29-2.43-2.68-7.31-4.93-6.97,3.17,2.28,4.52,5.98,4.46,9.75.93.07.49-2.07.47-2.78Zm1.82-5.41c-.73-1.41-3.55-3.53-4.71-2.64,1.41.49,2.79,1.24,3.75,2.41.41.69,1.71,2.01.96.23h0Z"/>
        <path d="m166.48,12.67c-9.7-16.19-43.03-15.23-53.43.56-7.1,11.13-13.46,23.75-13.82,37.19,1.24,7.87-2.37,15.07-2.58,22.74-4.05,2.59-5.98,7.97-4.85,12.6-2.42,3.54-2.09,8.62.34,12.08-.62.93-1,2.01-1.2,3.1-20.55-3.45-40.04,6.65-41.47,28.95-1.71,6.85,3.58,12.31,3.98,18.98,3.39,14.07,1.33,28.66,3.76,42.72.77,2.57-3.91,9.66-2.22,10.33,7.44,6.36,6.43,15.34,9.39,23.71.43.56,1.23.1.95-.55-2.13-5.46,5.12-9.57,3.78-14.99-.07-.26-.43-.19-.45.06-.22,4.25-3.57,7.29-4.55,11.3-.86-7.06-2.2-15.69-8.83-19.65,3.89-6.2,3.04-12.99,1.65-19.75.6-11.85-.35-23.65-2.69-35.3-2.49-8.57-5.79-14.62-2.23-23.8,4.18-18.46,22.4-22.35,38.85-21.52-.34,2.4.32,4.88,1.77,6.8-1.81,3.25-1.56,7.49.44,10.59-2.36,4.12-1.85,10.1,1.9,13.23-.14.59-.02,1.26.32,1.77-6.83,4.45-.82,11.08,2.33,15.63,1.16.99-1.48,8.33.73,5.99,6.74-4.74,9.94-15.24,3.98-21.79.03-.12.37-.4.05-.37,3.73-2.13,3.92-7.77,1.59-11.02,2.46-2.4,2-6.84-.04-9.36,2.51-2.64,2.22-6.88.35-9.81,1.93-2.45,1.52-5.9.5-8.66,2.58-2.02,1.89-5.72,1.2-8.49,3.02-1.66,3.95-11.1.93-2.7-1.16,3.64-8.33,2.72-7.43,6.99,1.12-2.19,3.52-2.53,5.74-3.73.28,2.27,1.01,5.38-1.05,7.01-.13-.03-.27.06-.27.2-1.53,1.09-6.29,2.07-5.24,4.4,1.32-1.73,3.5-2.21,5.34-3.16,3.26,10.46-6.02,7.39-5.03,12.23.74-2.15,2.8-2.05,4.59-3.36,4.43,10.35-5.09,8.22-5.01,12.56.07.18.29.23.41.05.86-1.81,3.13-1.84,4.49-3.08,1.02,2.56,2.06,6.12-.34,8.25-.14-.06-.27.08-.27.22-1.73,1.19-4.82,2.16-4.36,4.8.04.18.33.18.37,0,.46-2.13,2.74-2.72,4.38-3.79,1.85,3.11,1.71,8.77-2.43,9.84-1.05.73.31,1.32,1.04.83-.19.19-.08.47.03.74-1.94.51-5.38.8-6.1-1.6.76.57,4.48,1.95,3.88.15-6.27-.44-8.42-8.02-5.94-13.06.35.73,2.74,2.06,2.5.81-3.61-2.3-4.62-7.66-2.87-11.43.42.53,3.1,2.63,3.06,1.32-.96-.84-2.02-1.62-2.78-2.67h.07c.07-.17-.1-.34-.25-.25-1.84-2.53-2.04-5.99-.64-8.77.57.82,3.99,3.51,4.29,2.3-4.62-2.86-7.35-8.68-4.89-13.84.52,1.19,1.64,4.04,2.97,3.76-3.52-5.17-3.49-12.45,1.61-16.62.28,1.54,1,2.99,2.2,4.01-2.97,1.3-2.26,8.59-1.46,5.03-.36-5.65,9.18-5.16,8.56-9.98-1.43,2.33-4.07,3.32-6.49,4.52-3.85-5.2-.47-11.55.58-17.11-.6-15.62,3.29-30.57,11.82-43.8,10.52-19.66,41.85-18.19,54.47-4.33h0s0,0,0,0Zm-70.75,121.81s.02-.06.03-.08c1.8,1.52,4.47,1.36,6.61.76,3.59,5.93,1.93,13.92-3.47,18.18,1.94-7.02-10.91-12.31-3.17-18.85h0Zm127.69,133.79c3.67-.71,1.44-3.68.81-5.96-.62-1.63-1.52-4.7-2.26-6.24,10.02-5.24-.38-15.95-1.69-23.27-1.76-19.73-8.5-30-19.23-45.78-5.85-12.58,1.08-27.78-7.97-39.54-10.71-17.91-6.31-40.79-33.2-45.01.06-1.88-.52-3.69-1.21-5.41,2.36-2.15,1.81-5.89,1.24-8.72,4.64-3.19.88-13.7.07-10.88,1.7,3.53,2,8.67-1.96,10.81-1,.53-2.5,1.03-2.61,2.36.76.54,2.64-1.31,3.66-1.63,1.75,9.72-4.01,6.28-6.33,11.88,1.31-.78,3.27-2.4,5.05-3.16,1.24,2.94,1.8,7.32-1.45,9.14-.08-.06-.16.02-.18.1-1.52.76-5.5,2.67-4.15,4.48.74-1.82,2.55-2.6,4.24-3.31,2.71,6.08-.76,8.86-3.62,13.51-.14.4-.28,1.97.35,1.7.3-2,1.79-3.38,3.15-4.77,2.47,4.84,1.13,9.14-2.11,13.2-3.36,5.94,2.09-.81,2.85-2.45,2.87,4.25,2.74,9.67.26,14.02.01.26.26.49.53.4,3.58-3.79,3.3-11.36-.41-15.02,2.19-3.28,1.39-7.61-.57-10.8,2.29-2.91,1.81-7.02.41-10.23,1.54-.86,2.43-2.48,2.68-4.15,24.12,4.36,21.95,23.49,30.19,40.93,9.73,12.85,5.73,24.63,8.25,38.84,4.45,12.23,15.55,21.03,18.15,34.19,1.74,6.59,1.66,13.66,4.29,20.02,5.26,8.76,8.5,19.39-6.08,18.45-4.14.22-8.16,2.35-10.13,6.09-.25.45.41.83.68.4,3.29-5.95,10.22-5.23,15.94-6.11.67,2.52,1.91,5.79,2.71,8.29,1.14,2.6.31,2.23-1.96,2.68-4.93,1.12-10.22,2.4-14.44,5.21-.21.28.08.67.38.67,5.05-1.99,10.18-4.2,15.66-4.95h0s0,0,0,0Zm12.81,37.28c-.26-8.06-4.14-15.28-8.13-22.07-1.48-3.08-3.53-10.83-4.58-14.16l-.89.29c1.54,5.41,3.17,12.52,6.05,17.33,5.11,7.39,7.15,16.48,6.69,25.38-.44,3.05.96,4,.99.29.11-1.48-.06-5.54-.13-7.07h0s0,0,0,0Zm-86.32-211.22c-1.16-.81-.82-5.46-2-4.77-1.62,2.56,4.03,9.63,2,4.77h0Zm9.74,54.9c-.37-1.06-.91-2.11-1.56-3.04.2-.45-.2-1.08-.68-1.1.04-.08-.06-.16-.13-.1.04-.03-.16.1-.07.11-.37.01-.41.48-.32.76-2.04.09-4.28.35-6.23.94-.11-.25-.05-.55.11-.8.3.08.62-.1.54-.45.68-.36,2.43-.33,3.18-.41,7.16-.62-2.1-1.62-3.85-.35-2.73-1.76-3.66-5.58-2.17-8.44,1.02.96,5.49,3.1,5.87,1.51-5.87-1.08-10.31-6.88-8.09-12.8,1.2,1.07,3.8,3.15,5.17,2.34-5.71-2.44-10.02-9.85-6-15.49.86,1.4,6.97,5.32,3.39,2-3.77-3.11-6.51-8.06-4.45-12.92.99,1.44,2.5,2.66,3.92,3.68,1.56,1.3,2.69.29.73-.86-1.32-.95-2.76-2.07-3.7-3.41-1.63-1.98-1.6-4.72-1.51-7.14-1.72-1.74-1.09,5.97-.08,6.72-1.9,3.51-1.34,8.12,1.1,11.22-3.4,3.44-2.17,9.65.69,13.09-1.81,3.73-.8,8.52,2.16,11.37-2.08,3.18-.92,7.83,2.16,9.95-.31.52-.36,1.26-.05,1.79-5.06,4.88,3.38,9.64,2.24,15-.04.61-.71,1.81.03,2.16,5.02-2.79,10.35-8.83,7.58-15.31h0s0,0,0,0Zm-1.47,8.19c-1.11,2.37-3.49,3.57-5.17,5.46,1.86-5.55-6.82-9.94-2.55-15.01,2.25-.61,4.6-.86,6.91-1.1,1.98,3.12,2.56,7.3.81,10.65h0s0,0,0,0Zm-47.48,50.82c13.17,7.22-2.56-2.02-5.57,23.94l.59.6c-3.89-.24-7.93-1.58-11.92-1.91-.63-.03-.61-.73-.66-1.2-4,3.16-10.51.48-14.75-1.31-3.36-2.11-4.93-3.18-8.61-1.01.13,9.95-1.83,17.54-6.58,26.14-1,1.9.99-4.35,0-2.45,3.29-7.44,5.6-15.42,5.66-23.6-1.02,0-2.87-.41-3.01-1.52,1.8.54,3.74.85,5.36-.37,5.33-2.73,10.53,6.79,21.89,3.66-.83-9.19,3.24-18.98,10.91-24.28.32-.22.71.29.41.53-7.04,5.81-11.22,15.14-10.08,24.28,3.4.46,6.79,1.04,10.15,1.76,0,0,.01.01.02.02.27-7.49,2.93-15.99,9.74-19.96-3.05-1.68-6.46-3.3-8.85-5.85-.17-2.16,4.37,2.29,5.3,2.52h0Zm-7.66-4.79c-3.25-4.39,4.39-2.25-4.16-9.1,5.12-11.51-6.63-14.27.74-36.11-1.84-2.07-3.64,12.36-3.6,14.16-.6,7.42,5.48,14.02,2.45,21.41-1.99-.85-4.79,1.21-6.73,2.05-1.92-1.45-1.63-4.15-3.01-5.83-3.39-1.12-9.83-.57-11.73,1.99,0,0,3.69-1.12,3.69-1.12,11.52-1.59,5.33.52,10.41,5.36-3.3,2.14-6.16,5.21-7.45,8.97,3.25-3.72,7.88-9.81,14.12-10.73,1.03,1.98,4.01,2.61,4.55,4.75-.82,1.51-1.67,3.78.53,4.64.28.1.4-.3.19-.45h0Zm-17.22-25.27c-9.07-9.73-17.22-20.77-22.42-33.09,3.62,11.28,12.81,26.73,22.42,33.09h0s0,0,0,0Zm-.85-51.64c-2.43-4.13-5.5-8.8-10.21-10.53-.67-.11-3.89-1.8-3.82-.81,4.15,1.59,8.25,3.56,10.51,7.63.65.58,2.87,4.73,3.53,3.7h0Zm56.42-16.39c-12.2,4.87-19.77,2.15-31.32-1.85-.63-1.15-3.77-7.52-4.41-5.56,1.65,2.65,3.23,5.28,4.39,8.18,12.69,32.16-14.65,57.36.49,90.44,0,0,.83,2.48.83,2.48.24.67,1.28.4,1.08-.3-16.62-37.68,12.79-59.28-1.92-94.24,8.46,4.24,24.37,7.97,30.85.85h0s0,0,0,0Zm-26.01,130.94c1.93,2.65.09,11.17.17,15.16-.85,7.95-2.87,14.97-6.05,22.24,3.51-12.22,5.97-24.63,5.88-37.4Zm-10.1-5.44c1.65,13.38-4.35,29.21-9.28,42.34,4.43-13.45,8.21-28.2,9.28-42.34h0Zm-21.18,13.75c1.98-2.4,2.9-7,4.28-8.81-1.78,10.28-10.04,17.55-16.24,25.36,2.96-7.11,8.03-9.88,11.97-16.55h0Zm4.65,10.74l4.51-5.76h0c-1.13,4.18-5.7,8.99-9.22,12.27,1.82-1.62,3.21-4.59,4.71-6.52h0Zm67.12-60.31c-6.93.81-13.52-1.12-20.21-2.41-6.56.09-12.81,4.75-19.26,2.66,6.6,5.07,14.76-3.78,22.03-1.05,4.06,1.21,8.61,2.19,12.85,2.04.82-.19,5.93.11,4.59-1.24h0Zm18.72-79.02c-1.25,1.86-3.26,5.86-2.09,7.59.38-1.01.66-2.67.99-3.72-.03-.84,2.31-3.96,1.1-3.87Zm9.86,59.9c-2.6-15.13-15.01-27.67-12.3-43.86-4.87,16.24,11.41,31.78,11.76,48.41.71,6.6-1.35,14.96-8.61,16.82-.68.19-.38,1.14.29,1.04,9.69-2.27,10.52-14.3,8.86-22.41h0Z"/>
        <path d="m204.6,271.02c7.9,3.48.52,1.87.4,1.98-9.24-18.14-25.43-52.39-24.66-71.45,2.96,24.37,14.87,47.09,24.26,69.47Zm-37.3-.02c1.31,4.51-1.88-2.43-1.88-2.43-1.7-6.11-5.89-21-7.03-27.01h0c-.1-.52-.51-2.6-.58-3.08l-.02.03c-6.67-26.99,15-55.46,3.2-80.94,14.67,26.15-10.76,56.1-1.43,83.91l-.05.04c2.01,9.96,4.96,19.71,7.78,29.47h0Z"/>
        <path d="m181,276.13c-4.92-12.07-8.89-22.93-12.23-35.56-4.88-15.91,2.49-31.35,5.14-46.9,2.46-18.03-1.88-37.27-12.84-51.91,7.9,13.89,14.54,32.44,11.92,49.83-1.4,12.53-7.28,24.3-7.01,37.05-.01,0-.02,0-.03,0,0,.18.02.67.03.86,0,0,.02,0,.02,0,.03,1.93.31,4.13.54,6.06,0-.01.01-.03.02-.04.07.45.2,1.21.24,1.65,0,0,.02,0,.03-.01.4,2.31,1,4.58,1.57,6.84h0c3.18,10.99,7.63,21.58,12.04,32.12-.51-1.15.49,1.15,0,0,.29.68.3.68,0,0h.57Zm41.85,49.55c-2.47-6.69-5.32-9.17-1.04-.27,5.1,8.87-11.84,18.12-4.13,22.84.82-.6-1.15-1.62-1.06-2.54.45-7.16,9.81-11.44,6.23-20.04h0,0Zm7.19,3.72c-.65-3-.69-6.8-.92-9.82-.7.12-.29,2.15-.43,2.89,0,1.49.2,4.46.38,5.94,1.27,2.17-5.75,11.2-6.5,13.05-.46.63-5.07,8.34-2.07,4.97,1.55-2.36,4.24-6.84,5.75-9.3.7-1.62,4.33-5.84,3.79-7.73h0Zm2.54-3.37c-.36-.82.29-8.24-.84-7.14-.68,3.78.67,8.14-.01,11.87-.71,1.59-2.16,3.66-3.01,5.22-1.04,1.76-3.69,6.27-4.74,7.95-.2.85-2.48,1.71-1.58,2.4,2.95-.97,4.74-6.73,6.57-9.05,1.91-3.07,4.95-7.42,3.6-11.25h0s0,0,0,0Zm2.28-.06c.13-.55-.8-11.3-1.14-6.97.13,2.98.61,6.7.16,9.66.13.88-1.54,2.75-.78,3.06,1.77-1.26,1.77-3.78,1.76-5.74h0Z"/>
        <path d="m236.48,316.53c-.99-.42-1.03,3.29-1.38,4.03.02.76-1.32,4.31-.16,4.15.95-2.44,1.38-5.58,1.54-8.19h0Zm-22.74,11.67c-.39-4.29-1.16-8.83-3.09-12.7.1-10.21.85-23.54-1.97-32.33.67,8.29,1.28,17,1.15,25.33.36,1.38-1.06,7.56.51,7.59,2.36,6.5,2.82,13.47,2.54,20.26,1.71,0,.72-6.54.87-8.16h0s0,0,0,0Zm6.03-2.24c-.55-3.73-1.52-8.51-1.82-11.65-1.42,2.56.5,6.93.88,9.59.27,3.62,1.39,12.76-4.46,11.56-.19-.09-.42.15-.24.31,1.02.92,2.52.61,3.54-.17,2.56-2.37,2.05-6.45,2.11-9.65h0ZM109.42,75.46c-1.49-6.76-.54,3.41-1.45,5.01-.04.56-1.23,2.51-.18,2.51,1.7-1.84,1.71-5.09,1.63-7.53h0s0,0,0,0Zm34.78,14.3c-1.19.46-2.44,7.44-.82,6.43-.4-1.18,2.02-6.83.82-6.43h0Zm23.63-23.1c-2.15,2.6-6.51,3.51-7.98,6.71-.41.7-.84,3.17.42,2.91-.22-5.57,7.1-5.88,7.56-9.62h0s0,0,0,0Z"/>
      </g>
      <path class="cls-8" d="m162.35,245.46c.36-.53.28-1.33-.19-1.81-.02-.27-.1-.54-.24-.76.45-.72.24-1.6-.31-2.2.59-.75.42-1.92-.36-2.41.39-1.37-1.47-2.56-2.47-1.46-.55.87-1.93,1.52-1.78,2.69-.25.48-.22,1.07.1,1.51-1.03.7-1.62,2.44-.19,3.05-.1.31-.09.62,0,.89-.17.54-.07,1.16.3,1.55-.01.46.18.91.5,1.22-.33,3.6,5.42,1.13,4.52-1.31.14-.29.17-.63.11-.95h0Zm7.15-6.36c1.99-3.97-5.6-2.9-4.64.7-.48.57-.52,1.43,0,2.01-.07,3.82,4.56.85,4.5-1.51.23-.35.24-.81.14-1.2h0Zm-1.66-10.29c-1.84-2.37-6.57,1.68-4.64,3.92-1.28,2.6,3.25,3.7,3.3.7.22-.82.88-1.85,1.02-2.68.47-.52.73-1.32.32-1.95h0Z"/>
      <g>
        <path d="m153.66,239.62c-9.32-3.79-13.53-20.64-24.5-18.59,11.2-.2,16.88,19.47,24.5,18.59h0Zm4.59,3.9c-4.24-3.85-9.4,2.8-14.21.3.84-.34,5.11-1.35,5.05-2.24-1.83.24-4.12,1.5-6.01,1.92-.89-.33-2.64-1.08-3.49-1.49.05-5.3-6.27-4.93-9.56-7.2-3.87-1.88-3.59-7.98-8.03-8.81-.31,0-.47.44-.17.57,3.58,1.41,3.66,5.94,6.66,8.13,2.74,3.14,9.35,1.82,9.95,6.74-4.14-2.46-3.17-.68.02.85-.07,1.04-.54,2.02-1.29,2.73-6.29-3.98-13.96-4.24-20.74-6.75-1.62-.17-3.81-4.42-4.22-3.43-1.64-1.41-3.38-2.91-5.48-3.57,1.52,1.9,5.59,4.01,7.46,6.63,5.03,6.69,12.72,9.91,20.75,11.38,6.15,2.11,12.82,1.47,19.2,1.21.32-.03.32-.47,0-.5-4-.33-8.04,0-12.05-.14-8.73-1.78-18.96-3.16-25.11-10.29,6.68,2.19,13.87,2.82,19.97,6.63,1.53.15,2.37-2.13,2.59-3.36.87.44,1.77.83,2.68,1.19,5.84,4.12,13.06-4.71,16.24,1.33.96.17.22-1.51-.22-1.84h0Zm-29.86-24.25c-.55-.89-2.21-1.36-3.07-1.88-2.4-1.19-5.95-2.93-8.35-4.09-.49-.28-2.52-1.09-1.68.14.58.56,2.09,1.13,2.8,1.54,1.1.26,10.56,6.02,10.3,4.28Z"/>
        <path d="m159.16,245.27c-1.65.64-3.1,2.47-4.41,3.65-1.19,1.53.5.66,1.04-.03.39-.58,4.22-3.17,3.37-3.62h0Zm6.68-5.21c-2.4-2.99-6.51-.5-8.3,1.92-.21.24.11.56.35.35,1.38-1.25,2.88-2.76,4.85-2.85,1.46-.13,3.33.89,1.8,2.34-1.03,1.58-2.43,4.16-3.53,5.68-2.12,1.43-5.06,2.96-7.34,4.12-.91.84-8.5-1.56-7.53-.16,2.15.24,5.37,1.05,7.48,1.07,1-.15,2.34-1.16,3.23-1.61,4.41-2.2,5.44-3.47,7.75-7.74.33-.81,1.8-2.18,1.24-3.13h0Z"/>
        <path d="m171.41,237.61c-.04-.12-.13-.19-.24-.22-.53-2.71-7.47-1.13-6.39.96,1.48-1.51,4.24-2.3,5.96-.76-1.81,4.81-5.72,8.29-9.89,11.11-.32.37-2.28,1.19-1.79,1.62,5.02-2.93,10.98-6.68,12.34-12.71h0s0,0,0,0Zm-2.93-9.07c-7.85-3.14-8.5,9.1-13.89,11.47,6.29-.68,5.68-12.59,13.17-11.02-.27.83-3.68,10.53-1.17,5.47.3-1.25,2.24-4.73,1.89-5.91Zm-32.43-177.79c-.9-6.43-8.99-8.09-13.36-5.05,4.98-.9,10.63-1.26,12.22,4.85-3.74,1.86-8.05-.29-9.8-3.86-3.17-.53,4.88,8.34,9.95,4.74.34,1.84,1.51.49.99-.68h0Zm23.75,7.42c-.7-5.45-10.15-7.95-12.91-3.27.12.32.54.12.73-.03,1.23,4.08,6.8,6.11,10.46,4.02.17-.16.04-.47-.19-.46-3.85,1.35-7.7-.63-9.76-3.92,10.67-5.12,11.66,9.62,11.67,3.66h0Zm-21.35-8.16c-1.04-1.81-2.1-4.64-3.57-6.11-2.22-2.52-7.94-3.98-10.06-1.54,4.23-1.37,9.19.21,11.12,4.39.58.9,1.49,3.67,2.52,3.26h0Zm24.42-.56c-3.37-3.73-11.46-4.25-14.74-.88,4.4-.97,9.75-2.05,13.45,1.47,2.55,3.64,3.92,3.17,1.29-.59h0Zm-23.16-5.81c-1.16-4.07-10.14-9.58-12.67-5.84,10.32-1.36,14.33,13.11,12.67,5.84h0Zm19.18,7.91c-5.09-3.89-14.94-1.24-13.67,5.83.46-8.22,12.68-9.26,15.74-2.22,1.4-.29-1.24-3.22-2.07-3.6h0Zm-14.58,15.92c-.9.54-2.21.19-2.14-1.02,3.19-1.33-1.6-.16-2.58-.91-1.04-.07-2.73-4.04-1.88-.99-1.25.51-2.77.28-3.62-.83-1.17-.3-.07,1.16.48,1.27,1.01.56,2.45.7,3.41-.04.8,1.16,2.29,1.83,3.66,1.61-.18,1.49,2.14,2.53,2.91,1.14.04-.16-.1-.27-.24-.24h0Zm-.19,13.33c-2.5-.12-3.93-2.44-6.06-3.37-1.36-.61-2.99.11-4.03-1.21-1.82-1.35-4.5-1.03-6.64-1.23-.7.19-3-1.23-2.67-.1,2.53,1.74,6.07.29,8.62,2.02,1.16,1.33,2.64,1.11,4.22,1.25,1.9.38,5.26,4.77,6.57,2.64h0Zm-3.27-4.94c-.85-1.92-2.69-1.29-4.24-1.93-1-.8-2.08-1.07-3.32-.66-.32.07-1.24-.02-1.18.43.62.36,1.43.06,2.11.04,1.66.12,2.87,1.87,4.74,1.37.48.14,1.8,1.94,1.88.75h0,0Zm-2.25,6.89c-3.48-.44-7.12-1.92-9.88-3.67.32,1.92,9.13,5.48,9.88,3.67h0Zm22.76-18.21c-4.67,13.64-15.41,27.61-30.53,29.55,12.41,2.9,29.42-17.87,30.53-29.55h0s0,0,0,0Zm-45.69-6.21c-.22-2.74-.2-6.43.22-9.14-.03-.22.21-1.11-.1-.91-.13.41-.32,1.23-.36,1.65-.43,3.77-.57,8.06.48,11.73.4.3-.34-3.28-.23-3.33h0Zm13.17,35.51c-10.1-9.2-21.06-19.3-22.97-33.6-1.47,12.25,12.92,27.53,22.97,33.6h0s0,0,0,0Z"/>
        <path d="m109.7,50.03c-.09-.11-.23-.05-.3.04h0c-1.18,4.27-3.65,8.42-6.65,11.67,2.48.52,7.84-9.35,6.95-11.72,0,0,0,0,0,0Z"/>
      </g>
      <path class="cls-14" d="m137.14,59.46c4.56-8.25-17.44-19.51-21.47-10.99-4.56,8.25,17.44,19.51,21.47,10.99Z"/>
      <path class="cls-13" d="m162.24,67.52c3.35-8.24-18.53-16.34-21.35-7.91-3.35,8.24,18.53,16.34,21.35,7.91h0Z"/>
      <path class="cls-3" d="m59,253c26.44,25.32,105.16,33.05,141,10.5"/>
    </g>
  </g>
</svg>