<?xml version="1.0" encoding="UTF-8"?>
<svg id="Ebene_1" data-name="Ebene 1" xmlns="http://www.w3.org/2000/svg" xmlns:xlink="http://www.w3.org/1999/xlink" viewBox="0 0 280 917">
  <defs>
    <style>
      .cls-1 {
        fill: none;
      }

      .cls-2 {
        clip-path: url(#clippath);
      }

      .cls-3 {
        fill: #fff;
      }

      .cls-4 {
        fill: #93153c;
      }

      .cls-5 {
        fill: #7f4530;
      }

      .cls-6 {
        fill: #81634b;
      }

      .cls-7 {
        fill: #aaa9a9;
      }

      .cls-8 {
        fill: #b2305f;
      }

      .cls-9 {
        fill: #ccc;
      }

      .cls-10 {
        fill: #1c0903;
      }

      .cls-11 {
        fill: #72533e;
      }

      .cls-12 {
        fill: #484472;
      }

      .cls-13 {
        fill: #590f2a;
      }

      .cls-14 {
        fill: #472712;
      }

      .cls-15 {
        fill: #7a1c3e;
      }

      .cls-16 {
        opacity: .33;
      }

      .cls-17 {
        fill: url(#Unbenannter_Verlauf_2);
      }

      .cls-17, .cls-18 {
        isolation: isolate;
        opacity: .2;
      }

      .cls-18 {
        fill: url(#Unbenannter_Verlauf);
      }
    </style>
    <clipPath id="clippath">
      <rect class="cls-1" width="280" height="917"/>
    </clipPath>
    <radialGradient id="Unbenannter_Verlauf" data-name="Unbenannter Verlauf" cx="-148.25" cy="882.16" fx="-148.25" fy="882.16" r=".99" gradientTransform="translate(2854.59 9642.05) rotate(-.55) scale(17.98 -10.85)" gradientUnits="userSpaceOnUse">
      <stop offset="0" stop-color="#6a3636"/>
      <stop offset=".18" stop-color="#6a3736" stop-opacity=".96"/>
      <stop offset=".38" stop-color="#6d3d39" stop-opacity=".84"/>
      <stop offset=".57" stop-color="#72453d" stop-opacity=".65"/>
      <stop offset=".77" stop-color="#785243" stop-opacity=".37"/>
      <stop offset=".96" stop-color="#80624a" stop-opacity=".02"/>
      <stop offset=".97" stop-color="#81634b" stop-opacity="0"/>
    </radialGradient>
    <radialGradient id="Unbenannter_Verlauf_2" data-name="Unbenannter Verlauf 2" cx="-148.25" cy="882.16" fx="-148.25" fy="882.16" r=".99" gradientTransform="translate(2901.2 9642.05) rotate(-.55) scale(17.98 -10.85)" gradientUnits="userSpaceOnUse">
      <stop offset="0" stop-color="#6a3636"/>
      <stop offset=".18" stop-color="#6a3736" stop-opacity=".96"/>
      <stop offset=".38" stop-color="#6d3d39" stop-opacity=".84"/>
      <stop offset=".57" stop-color="#72453d" stop-opacity=".65"/>
      <stop offset=".77" stop-color="#785243" stop-opacity=".37"/>
      <stop offset=".96" stop-color="#80624a" stop-opacity=".02"/>
      <stop offset=".97" stop-color="#81634b" stop-opacity="0"/>
    </radialGradient>
  </defs>
  <g class="cls-2">
    <g>
      <path class="cls-7" d="m88.3,149.02c14.28,26.66,62.63,33.54,81.95-4.21l6.56-.41c-16.63,32.04-15.45,77.23-1.54,115.75,13.28,51.44-2.02,52.75,8.41,101.16,9.08,42.16,11.97,67.55,32.01,81.54,37.47,19.92,23.71,46.59,24.54,79.89-29-8.37-54.1,5.17-80.89,7.25-19.09.47-15.03-5.94-36.67-6.25-22.1-.32-35.15,6.22-57.6,4.97-9.34-.52-14.01-.78-20.3-2.75-7.8-3.67-19.92-5.57-27.34-2,.54-16.88-.28-36.72-2.15-52.68,26.04-103.89,51.4-215.64,73.02-322.25h0Z"/>
      <path class="cls-4" d="m71.97,151.54C6.28,168,11.1,282.91,9.04,316.32c-1.51,14.04-4.01,53.25-4.53,57.01-2.33,14.65-6.96,24.68,2.76,30.5.05,5.58.1,11.16.16,16.74,1.93.15,3.86.29,5.78.44-.43,6.97-.86,13.94-1.29,20.9-1.45-1.22-7.19-1.62-6.62,1.84-.06,5.66-.08,8.48.12,9.34,2.41,10.24-.02,12.67,2.45,16.1,3.31,4.61,9.43,3.84,30.34,3.78,23.98-.07,28.22.9,31.09-2.85,4.56-6.12-6.37-38.19-6.45-56.88-.07-36.46,16.17-91.05,11.88-116.51-1.54-22.88-6.25-25.24-3.44-40.18,3.85-20.45,14.58-26.1,18.95-41.63,3.62-12.83,3.04-32.92-18.27-63.39h0Z"/>
      <path class="cls-4" d="m180.38,474.04c-9.41-63.86-28.5-128.87-14.49-178.46,2.38-7.77,6.93-19.83,6.52-36.98-4.71-39.49-18.19-75.48,4.41-114.2,65.62-7.23,70.28,95.71,83.11,152.64,3.01,13.89,8.72,20.3,11.79,35.46,3.27,16.67-1.3,15.56,2.34,34,2.4,14.23,9.32,27.41-2.71,27.98.92,2.06,3.76,19.37,2.22,19.57-1.84,2.93-6.36,2.3-15.84,2.34-17.18.09-23.09,2.28-25.56-1.49-3.99-5.69,2.46-16.89-5.9-18.6,4.02,13.94,8.02,28.53,11.69,42.68,3.78,7.56,4.72,21.06,3.31,27.15-15.82,5.37-43.54,9.09-60.89,7.91h0Z"/>
      <path class="cls-12" d="m26.02,522.36c.9,33.66,10.91,56.76,20.87,79.59,2.97,9.27,2,13.39,3.23,24.5,11.94,56.26,20.72,74.07,29.21,166.58,9.18,8.62,31.68,10.62,43.29.45.46-54.82.86-79.81,2.09-126.69.69-5.88,1.01-46.18-8.09-55.72,5.89-25.29,9.9-60.52,9.9-86.12-26.47-3.96-61.72,9.4-74.25,3.01-2.33-1.94-19.83-6.84-26.24-5.58h0Z"/>
      <path class="cls-6" d="m9.93,421.09c.87.24,1.74.48,2.61.71-.39,6.62-.78,13.24-1.17,19.85-1.41-.09-2.83-.19-4.24-.28.93-6.76,1.87-13.52,2.8-20.29h0Z"/>
      <path class="cls-9" d="m42.03,858.63c13.79-2.85,6.35,13.71,24.1,9.35,13.38-2.43,22.95-10.84,23.69-11.51,11.86-10.63,11.18-19.2,20.66-25.19,1.1-.33,12.1-8.36,15.23-12.03,6.24,10.03-7.06,20.24-14.75,22.34-7.75,3.41-7.74,8.04-17.31,15.97-10.17,8.44-15.25,12.66-22.11,14.35-3.97,1.88-28.24,3.07-29.51-13.29h0Z"/>
      <path class="cls-8" d="m55.08,828.43c-2.12,18.81,29.61,18.77,34.46-.26,7.94-12.98,21.5-11.62,19.44-28.44-10.25,2.92-18.56-3.86-29.8-6.07-3.22,11.77-16.1,29.1-24.11,34.77Z"/>
      <path class="cls-13" d="m54.27,829.96c-5.76,2.75-18.53,18.37-12.15,27.96,1.98,1.57,4.38-.2,7.24,1.63,2.9,1.85,2.39,4.89,3.99,6.85,4.23,5.17,22.49,2.02,35.68-9.1,10-8.43,6.86-12.85,19.06-23.86,8.56-7.73,12.92-8.1,16.23-14.28,4.47-8.34,2.23-18.33-.53-25.73-4.57,6.71-3.39,11.07-13.13,8.6-3.15,15.1-14.68,16.17-21.56,27.19-2.5,8.19-9.02,12.88-15.28,13.19-3.61,1.15-19.53-.75-19.56-12.45h0Z"/>
      <path class="cls-8" d="m203.98,829.35c.31,3.49,7.06,14.74,9.78,16.55,10.53,10.85,8.82,22.02,18.75,27.69,2.56,2.55,31.66,5.52,30.34-3.92-10.03-13.43-20.69-31.91-27.03-46.22-6.57,8.29-25.2,10.11-31.84,5.9Z"/>
      <path class="cls-13" d="m193.82,828.54c-2.43,9.6-3.7,23.78,6.43,28.52,11.03,7.7,8.95,18.74,21.97,33.28,14.2,15.85,30.65,18.4,35.74,17.6,8.91-1.29,7.68-4.35,12.7-6.74,3.22-.74,5.05,2.32,6.65,1.47,6.28-6.16-6.36-29.67-13.95-33.02.25,3.83-5.23,6.49-8.12,5.76-15.79-.21-15.52,1.53-19.46-.17-10.18-4.7-13.48-16.51-19.65-26.01-4.84-5.8-10.4-13.11-12.14-19.88-3.39-.27-6.78-.54-10.17-.82h0Z"/>
      <path class="cls-9" d="m192.43,850.08c-7.95,12.57,4.95,22.31,13.43,27.74,9.32,10,4.86,9.75,19.49,23.04,12.8,11.32,41.59,25.14,51.09,1.92-4.57-4.26-10.51.54-13.21,3.72-7.78,6.03-32.6-2.96-44.83-20.88-6.14-11.39-13.04-27.19-25.96-35.55Z"/>
      <path class="cls-6" d="m5.75,464.48c-2.2,7.45.09,44.39.52,49.08,0,0-.91,8.74,4.87,7.99,1.63,3.38,5.69.69,6.55-1.09-.09-12.01-.98-37.42-2.41-49.19l-6.51-1.02-3.01-5.77h0Z"/>
      <path class="cls-6" d="m238.55,417.1l3.49,28.87c-7.7,4.89-4.81,50-5.86,52.47,1.31.86,9.32.11,9.08-3.99,1.4-5.05,2.39-28.38,8.31-17.67,1,2.47,3.65,11.72,3.65,11.72-3.44,4.14-12.41,15.03-14.75,19.73.59,7.95,13.08-6.63,14.75-7.66-.11,5.45-4.41,18.99-1.61,24.6,1.56,1.61,2.25,3.03,3.3,2.06,1.05-.97,3.58,1.69,3.58,1.69l3.12,1.63c1.82-11.71,5.87-35.99,8.1-47.45,2.29-9.41,5.25-14.34,4.04-27.64-1.21-5.94-5.03-15.89-5.03-15.89-.79-3.73-2.95-19.7-3.51-23.74,0,0-30.65,1.26-30.65,1.27Z"/>
      <path class="cls-6" d="m91.06,149.12c8.95-1.28,7.25-6.85,7.25-6.85l-.39-9.49c-33.97-33.47-20.56-67.1-11.52-104.43l35.6-17.96,36.71,27.64,9.5,34.68c-.79,14.95-4.15,32.37-13.76,47.48l11.12,28.42c-8.53,11.71-17.95,20.35-37.01,22.56-11.34,1.32-37.73-9.5-37.27-20.7-.27-.12-.22-1.35-.22-1.35h0Z"/>
      <path class="cls-12" d="m137.98,526.33c7.86,29.91,4.53,82.27,23.7,111.66,6.46,18.32,5.4,37.88,7.64,54.72.05.39,5.52,35.51,5.56,35.76,4.35,27.62,11.38,68.39,15.11,95.95,0,0-.39,2.4,3.44,3.51s12.22.42,12.26,1.02c.05.61,7.77,2.1,7.77,2.1,0,0,8.21,0,8.21,0,0,0,6.97-2.48,7.04-2.51s6.68-5.11,6.68-5.11c-4.24-25.72-5.26-71.1-3.31-99.22,2.78-20.75,5.76-50.73,5.89-70.71-.63-7.87-2.58-28.41-5.45-34.37,3.29-28.75,3.44-68.61.2-97.38,0,0-22.8-3.12-30.5.25-7.69,3.37-25.1,5.73-28.27,6.37-6.81,2.14-27.92,2.65-35.99-2.03h0Z"/>
      <path class="cls-15" d="m5.88,451.59c.35,3.99-2.77,19.83,6.51,19.92,5.7.39,37.83,1.06,38.07,1.56,2.85-.36,22.11,1.77,20.55-6.99-1.43-10.49-5.52-25.46-7.32-36.38-2.96-19.54,1.37-47.9,5.07-66.76,3.52-18.69,8.04-42.62,6.35-62.29-1.31-15.09-5.54-28.83-3.94-43.46.53-10.73,8.06-19.93,11.65-28.76-.79-18.93-5.26-58.12-10.39-76.22-2.51-.42-6.35,1.4-8.65,2.26-.16.07,1.17,4.49,1.8,6.3,8.85,28.94,4.12,51.79-3.81,79.62-2.87,13.9-4.59,23.46-2.01,40.01,3.29,18.21,2.43,32.75,1.5,50.16-4.66,36.77-15.86,77.79-14.96,113.35-5.91-.4-32.12-2.77-37.49-2.17-5.94-3.97-2.49,10.54-2.91,9.86h0Z"/>
      <path class="cls-15" d="m6.76,403.55c.87.99.33,16.4.66,17.03l5.78.44,3.66-18.14c-2.88,2.32-7.14,1.84-10.1.68h0Z"/>
      <path class="cls-15" d="m230.42,398.11c.97,3.19-2.01,16.5,4.05,18.52,4.27,1.28,26.76-.47,26.76-.47,2.93-.47,16.15.83,12.87-7.78-.6-2.89-2.78-14.24-2.78-14.24-6.32.09-24-2.34-31.32,1.12-2.47,1.17-9.58,2.85-9.58,2.85h0Z"/>
      <path class="cls-15" d="m209.9,442.59c.48.12,20.26-5.03,22.79-4.75,5.54-.98,7.48,7.9,8.32,10.05-3.28,1.96-3.98,16.46-4.24,19.26-7.86,3.51-46.7,9.48-56.39,6.89-8.96-57.41-25.76-115.52-15.4-173.91,3.36-14.49,8.54-27.12,7.77-40.25-4.32-25.97-9.24-49.95-9.24-77.66,1.47-13.09,8.29-29.72,13.3-37.84,33.69-3-2.97,6.37-.36,56.54,2.82,27.83,9.94,36.76,9.69,62.21-1.59,18.25-7.72,33.41-10.22,50.59-6.05,42.57,12.77,89.29,17.84,130.17,1.46.02,12.68-.32,16.14-1.31h0Z"/>
      <path class="cls-3" d="m97.19,85.87c3.26,2.42,11.17-.9,13.26-3.6.52-1.01-4.12-4.42-6.09-4.93-7.71-1.4-18.31,2.44-7.17,8.52h0Z"/>
      <path class="cls-3" d="m138.45,86.74c1.74.05,12.72-3.47,8.7-7.82-7.5-3.76-13.68-1.73-17.53,4.01,0,0,2.35,1.89,3.55,2.28,1.2.39,5.27,1.53,5.27,1.53Z"/>
      <path class="cls-5" d="m105.36,79.96c-2.37-5.66-11.68-1.13-6.68,3.87,2.75,2.6,8.1.01,6.68-3.87h0Z"/>
      <path class="cls-10" d="m103.13,80.07c-.98-2.22-4.51-.5-3.36,1.64.98,2.22,4.52.51,3.36-1.64Z"/>
      <path class="cls-5" d="m142.28,79.96c-2.37-5.66-11.68-1.13-6.68,3.87,2.75,2.6,8.1.01,6.68-3.87h0Z"/>
      <path class="cls-10" d="m140.05,80.07c-.98-2.22-4.51-.5-3.36,1.64.98,2.22,4.52.51,3.36-1.64Z"/>
      <path class="cls-11" d="m130.99,123.64c-.22-.81-.98-1.4-1.82-1.4-2.4-1.71-5.55-.34-8.12.32-1.67-.34-3.54.22-5.21-.36-1.14-.49-2.61-1.4-3.65-.25-1.06-.97-2.47-.23-3.14.7-1.1,1.99,1.42,3.62,3.19,3.64,1.55,1.25,6.06,2.07,7.97,1.21,1.2,1.24,3.26.75,4.71.3,1.91-.3,6.5-1.45,6.07-4.16h0Z"/>
      <path class="cls-11" d="m125.38,118.33c-.1-1.13-1.34-1.95-2.42-1.69-1.12-.99-3.07-1.28-4.09,0-.33-.43-.92-.75-1.44-.79-.98-.06-2.2.15-2.83.99-2.49.05-2.31,3.77.04,3.9.63.76,1.73,1.05,2.68.78.72.7,1.8.71,2.7.44,1.27.39,2.62-.31,3.22-1.46.24.04.49.02.73-.06-.06,0-.13.02-.19.03.99-.08,1.8-1.18,1.61-2.15h0Z"/>
      <path d="m66.75,152.82c-34.78,9.17-47.17,49.03-51.26,80.91-4.1,25.08-8.4,50.02-6.88,75.52-3.09,20.41-1.62,41.19-4.63,61.55-1.61,9.07-5.79,18.61-2.71,27.78,3.13,10.19,17.73,7.09,11.99,4.6-9.61,2.71-12.22-9.76-10.38-16.82,6.62-23.8,3.91-48.47,7.49-72.7,1.06-9.87-.14-19.75.21-29.63.81-14.64,4.12-28.99,6.12-43.49,4.38-31.82,12.72-70.02,45.08-84.4,1.66-1.37,7.65-1.88,4.98-3.33h0Z"/>
      <path d="m7.46,406.11c-1.02,4.66-2.81,10.54-.86,15.1,1.48,1.02,3.78.6,5.51,1.07,1.58.22,1.9-1.99.3-2.18-1.66-.2-3.31-.4-4.97-.6l.91.52c-2.03-2.67,1.95-13.38-.88-13.92h0Z"/>
      <path d="m36.59,200.32c-7.68,16.34,12.53,27.82.13,47.79-12.75,25.03,4.06,51.84,1.97,77.94-2.62,37.55-27.4,69.65-28.18,107.79-.32,2.87-1.29,11.29,1.9,6.88.81-15.54,3.14-30.87,7.75-45.75,6.67-20.4,17.43-39.64,19.9-61.25,5.12-26.69-11.84-52.91-4.05-79.2,15.43-31.97-2.19-28.61.58-54.18h0Z"/>
      <path d="m64.37,157.38c13.42,52.58-5.46,65.53-6.8,111.57,12.69,59.68-13.61,115.77-12.39,174.95l1.06-1.06c-12.49-.57-24.96-1.64-37.44-2.36-8.92,4.58,34.76,3.21,37.44,4.48,1.53-45.94,16.77-93.3,16.96-140.29-.57-19.11-6.21-38.09-1.81-57.15,3.45-18.01,10.89-35.5,10.22-54.11-1.14-11.52-2.02-27.16-7.24-36.03Z"/>
      <path d="m77.44,239.08c-14.23,17.25-4.77,41.1-3.58,61.02,3.14,43.31-16.65,85.2-11.31,128.53.2,10.87,9.66,32.28,5.91,40.83-3.33,3.06-8.44,2.19-12.61,2.33-11.94-.1-23.87-.47-35.78-1.36-4.27-.7-11.63.99-12.25-4.97-.75-6.17-.71-12.44-.73-18.65,0-1.11.03-2.22.05-3.33.03-1.71-2.62-1.71-2.66,0-.06,3.18-.06,6.35,0,9.53-1.28,26.63,8.78,18.14,29.5,20.95,11.02-1.27,41.74,7.26,37.4-12.21-17.05-61.3,2.28-91.63,5.23-149.76.33-26.22-10.73-48.6.84-72.91h0Z"/>
      <path d="m28.81,215.09c-3.44,12.46,4.31,23.91,5.87,36.01.14,1.11,1.68.92,1.52-.21-1.71-11.92-9.54-23.3-6.81-35.65.09-.37-.47-.53-.57-.16Z"/>
      <path d="m17.15,357.98c-.4-6.62,23.89-51.48,17.08-50.31-1.93,17.32-16.62,34.43-17.08,50.31h0Z"/>
      <path d="m172.76,145.65c43.68-5.3,58.24,30.22,67.82,65.77,7.8,25.39,11.24,51.76,16.03,77.79,2.76,12.38,8.19,23.84,11.86,35.94,5.48,16.15,1.68,33.43,6.22,49.79,6.69,26.49-4.65,16.53-23.26,17.15-8.48-1.98-22.71,10.77-26.44,1.15-.7-1.51-2.92-.2-2.23,1.3,4.26,9.18,14.12,2.96,20.94.93,9.23-4.27,35.73,7.33,35.2-7.4-2.38-16.92-4.78-33.62-5.03-50.75-1.72-12.94-7.55-24.76-11.66-37.02-15.63-47.72-12.42-158.18-81.32-157.24-1.93-.39-11.97.7-8.13,2.59Z"/>
      <path d="m208.96,192.09c3.04,7.7.15,15.65-1.48,23.32-1.71,8.02-1.32,16.03.05,24.07,3.46,16.64,7.51,33.42,4.7,50.52-14.27,65.22,5.93,80.9,21.78,138.94.39,1.86.73,3.73,1.03,5.61.22,1.37,2.3.79,2.08-.57-11.94-54.77-38.04-77.86-23.37-139.07,6.27-25.76-6.9-49.85-5.01-75.22,1.24-9.09,6.14-19.24.93-27.89-.22-.35-.87-.13-.7.3Z"/>
      <path d="m229.97,397.38c-1.2,6.5-1.25,22.48,8.65,21.08,9.28-.21,18.57-.62,27.81-1.53,8.32.32,10.94-3.93,8.37-11.63-.64-3.09-1.41-6.15-2.25-9.19-.44-1.6-2.93-.92-2.49.68.62,2.22,1.19,4.45,1.71,6.69.45,2.74,1.61,5.57,1.34,8.36-1.78,4.65-25.95,3-31.72,4.14-9.83,2.6-9.21-6.67-10.08-13.51-.3-1.14.12-5.52-1.35-5.09h0Z"/>
      <path d="m190.37,147.66c-11.12,13.97-14.9,32.74-14.98,50.26-.06,20.12,8.34,39.04,9.33,59.02.83,20.63-8.37,39.92-10.61,60.19-4.3,40.81,11.2,79.98,17.25,119.81.4,2.59.76,5.19,1.07,7.79.2,1.68,2.86,1.7,2.66,0-6.1-49.44-28.86-99.07-14-149.05,2.45-9.83,5.18-19.57,6.06-29.67.29-37.55-21.4-76.04.81-111.74.72-2.23,5.16-7.05,2.41-6.62h0Z"/>
      <path d="m193.97,444.65c8.96.91,18.1-1.04,26.89-2.84,10.44-2.52,17.04-6.75,19.15,7.41,5.41,4.31-.53-11.91-3.46-12.11-9.26-1.39-18.61,3.92-27.96,4.5-4.87.93-9.93,1.22-14.69,2.49-.25.12-.15.47.07.54h0Z"/>
      <path d="m174.76,146.15c-23.06,36.07-5.77,78.84-3.64,117.73-.41,11.36-4.66,22.18-6.86,33.25-11.21,56.41,4.45,113.13,13.52,168.69.46,2.85.91,5.7,1.33,8.56.25,1.66,2.78.96,2.53-.7-10.77-66.25-30.33-134.63-8.9-200.84,3.66-21.14-4.97-41.66-6.53-62.61-2.24-21.39-.96-44.17,10.14-63.15.59-1.05-.96-1.94-1.61-.94h0Z"/>
      <path d="m180.12,474.57c2.14,4.75,69.47-4.85,57.29-8.82-14.2,3.43-28.49,6.92-43.13,7.65-4.14.84-11.37-1.2-14.15,1.17Z"/>
      <path d="m83.67,310.47c15.4,1.78,28.42-11.3,43.6-8.96,9.25,1.74,18.02,6.94,27.68,5.72,1.36-.18,1.37-2.34,0-2.16-9.18,1.21-17.59-3.66-26.34-5.49-9.84-2.72-18.67,2.83-27.62,6.01-2.34,1.71-19.04,3.02-17.32,4.88h0Z"/>
      <path d="m14.83,472.71c-1.22,16.67,3.57,33.52,1.52,50.24,5.52,9.4,1.15-50.95-1.52-50.24Z"/>
      <path d="m18.9,524.73c13.67-6.13,27.02,5.57,40.93,5.38,27.82,1.56,55.93-11.4,83.25-1.13,32.05,9.16,63.28-15,95.45-4.63,1.66.42,2.37-2.14.71-2.56-30.89-10.38-60.51,11.55-91.32,5.78-27.73-10.55-55.96-.72-84.27.17-15.52,1.73-30.77-12.46-45.59-4.46-.92.58-.11,1.95.85,1.46h0Z"/>
      <path d="m8.81,422.22c-.33,1.61-4.18,21.77-.26,17.47-.05-2.02,3.93-20.34.26-17.47h0Z"/>
      <path d="m100.49,346.69c5.42,43.41,4.59,87.29,3.5,130.93-.03,1.26,1.92,1.26,1.95,0,.43-17.13.83-34.27.79-51.41-.42-25.87-.54-56.04-6.24-79.52h0Z"/>
      <path d="m89.11,403.89c2.14,27.24-2.56,54.31-6.87,81.12-.17,1.07,1.47,1.53,1.64.45,3.69-26.25,9.38-56.7,5.23-81.57h0Z"/>
      <path d="m198.35,476.86c.95,5.29,2.55,10.45,3.84,15.67,3.48,2.72-.56-6.88-.64-8.19-.55-1.07-1.96-9.73-3.2-7.48Z"/>
      <path d="m230.93,210.54c5.34,37.24-18.66,76.29-3.17,113.38.33.84,1.7.47,1.36-.38-11.43-29.07-.58-60.27,3.29-89.68.41-7.07,3.48-18.66-1.49-23.32h0Z"/>
      <path d="m235.18,271.83c-1.1,7.94-1.55,15.96-1.39,23.98,0,.48.77.48.75,0-.27-7.96.15-15.93,1.22-23.82.05-.37-.52-.54-.57-.16Z"/>
      <path d="m200.3,164.08c-7.8,6.98-10.14,17.2-11.85,27.1-.16.92,1.25,1.31,1.4.39,1.55-9.55,3.59-20.08,10.87-27.07.28-.27-.14-.67-.42-.42Z"/>
      <path d="m51.77,170.51c8.61,10.43,6.51,25.32,9.18,37.88,3.89,4.02-1.6-19.55-1.38-21.64-.79-6.14-3.14-12.08-7.38-16.66-.26-.29-.67.13-.42.42Z"/>
      <path d="m43.86,347.84c-1.8,21.77-17.08,45.67-15.42,65.92,1.22-9.02,3.22-17.95,5.78-26.68,3.14-12.3,11.86-27.87,9.64-39.24Z"/>
      <path d="m201.55,338.88c-3.08,22.69,7.53,41.73,13.64,62.69,1.16,1.71,3.87,23.12,5.7,17.97-3.05-16.03-7.66-31.66-14.48-46.49-4.65-10.46-4.02-24.39-4.86-34.16h0Z"/>
      <path d="m25.3,523.38c.27,25.44,7.53,50.62,17.89,73.7,7.64,14.18,4,30.78,8.82,45.82,13.53,46.6,20.78,94.85,25.58,143.09.15,1.88.29,3.76.43,5.65.11,1.51,2.47,1.52,2.36,0-3.05-37.1-8.85-73.98-15.94-110.5-4.24-20.51-12.45-40.26-13.84-61.31-.32-5.11-.53-10.15-2.12-15.05-10.41-23.48-18.92-47.94-20.84-73.77-.52-2.52-.02-10.67-2.33-7.64h0Z"/>
      <path d="m126.23,524.85c-1.29,28.82-3.07,57.89-10.76,85.89-.37,1.48,1.93,2.12,2.29.63,5.96-27.58,12.43-59.66,8.47-86.52Z"/>
      <path d="m116.14,611.39c11.01,19.4,6.38,42.65,6.77,63.94-.59,38.39-1.24,76.79-1.54,115.19,0,1.44,2.19,1.44,2.23,0,.79-37.39,1.14-74.8,1.81-112.19-1.07-22.31,5.7-48.39-8.19-67.76-.51-.61-1.47.17-1.08.83Z"/>
      <path d="m137.96,528.96c7.71,36.14,2.82,76.08,22.32,108.92.69,1.14,2.49.1,1.79-1.05-15.24-24.94-15.06-55.15-18.23-83.27-.64-3.05-2.68-27.47-5.88-24.6Z"/>
      <path d="m232.87,522.8c1.12,33.35,2.95,66.86-1.79,100.07,3.87,6.86,4.63-36.24,5.11-39.19-.1-19.59,2.2-43.37-3.33-60.88h0Z"/>
      <path d="m233.21,621.96c8.15,37.8-.63,75.95-2.74,113.92-1.44,27.94-.4,55.97,2.97,83.74.19,1.6,2.73,1.61,2.53,0-5.02-39.29-4.53-79.19.05-118.49,1.91-21.23,7.73-62.33-2.81-79.16h0Z"/>
      <path d="m161.02,637.55c3.58,11.24,4.54,23.03,5.2,34.74,4.97,51.61,15.59,102.55,23.17,153.83.26,1.59,2.69.92,2.43-.67-6.05-37.63-12.12-75.25-18.33-112.85-3.58-18.86-4.76-37.99-6.41-57.07-.1-2.48-3.76-22.19-6.06-17.99Z"/>
      <path d="m74.11,619.47c-10.61-3.4-20.1-10.24-27.06-18.9-6.52-1.02,8.52,11.63,10.23,12.35,5.14,3.41,10.73,5.59,16.67,7.12.37.1.52-.46.16-.57h0Z"/>
      <path d="m100.36,701.8c9.28-3.74,17.42-9.35,23.71-17.18.82-1.02-.64-2.48-1.45-1.45-5.95,7.56-13.71,14.09-22.5,18.09-.3.14-.08.67.23.54Z"/>
      <path d="m85.02,751.5c-3.52-2.97-7.32-5.8-9.83-9.8-5.82-1.93,9.08,12.49,9.83,9.8h0Z"/>
      <path d="m177.06,401.84c-3.88-1.76-6.38,5.63-3.49,7.99,3.01,3.14,8.2.08,7.63-4.02-.83-7.03-8.33-4.46-4.06-2.33.15.03.3.07.44.12,1.08.3,1.97,2.59,1.34,3.72-.03.11-.3.52-.24.44-.08.12-.51.5-.42.43-.11.12-.79.44-.69.4-.08.05-.72.19-.44.14-.23.03-.47.03-.71,0,.17.02-.4-.1-.48-.15.27.14-.52-.3-.41-.25-.2-.09-.59-.77-.57-.72-.11-.26-.17-.54-.21-.82-.14-.3.25-1.99.54-2.43.14-1.12,1.99-1.53,1.78-2.51h0Z"/>
      <path d="m174.35,288c-2.71-2.97-6.83,3.08-5.69,5.94,1.5,4.21,7.79,1.85,8.25-1.89.98-6.73-6.67-5.59-2.87-2.87-.19-.07-.04-.02,0,0,.44.25.66.64.79,1.39,0,.06,0,.83-.04.89-.05.22-.11.44-.2.65.06-.1-.42.73-.34.58-.07.12-.56.55-.47.48-.12.13-.77.45-.65.41-.26.11-.54.18-.82.24-.32.07.13.01-.06,0-.08.02-.73-.01-.46.01-.15-.02-.3-.08-.45-.11-.16-.03.14.09,0,0-.05-.03-.12-.07-.17-.1-.15-.06.11.12,0,0-.04-.04-.19-.21-.05-.02-.04-.06-.08-.13-.12-.19.09.19-.09-.23-.08-.3-.05-.17,0,.16,0-.02,0-.31-.01-.62.01-.93,0-.05.04-.23,0,0,.06-.39.17-.77.31-1.13.33-1.25,2.06-2.12,3.12-3.06h0Z"/>
      <path d="m169.09,349.2c-6.75-1.34-5.12,11.69,1.35,7.41,3.33-1.75,2.43-8.5-1.82-7.78-1.59.45-.7,2.87.81,2.23l-.13.02h.09c.23.07-.03-.05-.04-.01,0-.01.15.05.18.05-.17-.03-.1-.05-.02,0,.37.22.38.19.67.52-.12-.18.07.15.09.21-.03-.11.18.53.18.7-.02-.14.02.49-.01.61,0,.08-.18.77-.44,1.02.14-.17-.29.32-.42.4-.58.49-1.82.54-2.1.32-.04-.05-.09-.1-.14-.14.21.25-.06-.09-.07-.16.15.32-.1-.26-.09-.37-.02-.07-.09-.56-.06-.31-.08-.27-.03-1.17-.05-1.16.04-.25.11-.5.19-.74-.18.33.42-.73.22-.38.32-.38.7-.64.94-.9.58-.33,1.7-.94.68-1.52h0Z"/>
      <path d="m65.22,300.11c1.61.03,4.72,1.63,5.68.14.41-1.05-7.16-1.2-5.67-.14h0Z"/>
      <path d="m61.99,350.02c.16.04.32.08.47.12l-.29-.29c.47.82,5.17,1.41,5.07-.1.07-1.51-4.58-.94-5.07-.12l.29-.29c-.39,0-1.04.37-.47.69h0Z"/>
      <path d="m52.12,412.98c1.76-.4,5.69,1.09,6.12-1.24-.09-.66-.68-.97-1.3-.86-.92.42-6.81.66-4.82,2.1h0Z"/>
      <path d="m222.7,559.54c2.42.24,18.04-15.68,11.3-13.72-2.79,5.27-6.77,9.73-11.6,13.21-.31.22-.04.69.3.51Z"/>
      <path d="m109.4,550.62c1.76-.55,22.11-18.49,16.1-17.27-5.21,5.87-10.52,11.65-16.46,16.81-.24.23.07.65.36.47Z"/>
      <path d="m89.75,748.82c-6.02-4.56-12.68-9.67-15.76-16.76-.45-1.34-2.6-.75-2.12.59,1.36,3.85,4.42,7,7.41,9.68,1.38,1.21,10.07,8.29,10.47,6.49Z"/>
      <path d="m212.27,649.58c2.35-.16,30.68-20.41,21.61-19.26-5.74,7.64-14.11,13.31-21.91,18.74-.33.2-.03.7.3.51Z"/>
      <path d="m205.63,648.15c5.53-2.31,10.51-5.68,14.9-9.75,1.57-1.13,17.13-17.18,9.71-14.67-5.67,9.94-17.92,17.64-24.62,24.42Z"/>
      <path d="m89.6,152.43c16.72,26.67,58.85,26.4,75.3-.47.82-1.22-1.16-2.37-1.97-1.15-19.48,28.33-52.71,23.06-73.33,1.62Z"/>
      <path d="m97.84,135.24c-1.75,6.12,2.62,11.11-6.07,13.72-3.67,5.31,9.65-1.19,7.74-5.59-.47-2.13.69-7.59-1.67-8.13h0Z"/>
      <path d="m251.01,474.19c14.68,17.92-5.66,53.03,8.08,53.71,2.72-1.18,2-5.53,2.96-8,1.86-11.72,5.09-23.35,5.66-35.24.04-1.11-1.73-1.12-1.73,0-.19,3.59-4.64,45.47-8.45,41.49-6.17-9.54,3.42-24.29.88-35.39-.03-2.62-4.69-20.02-7.38-16.57Z"/>
      <path d="m255.84,489.21c-5.62,5.24-10.45,11.93-14.19,18.6.43,10.08,11.78-2.16,14.63-5.08.9-.92-.52-2.35-1.42-1.42-3.4,2.63-6.56,8.49-11.15,8.31-2.92-2.23,14.31-19.14,12.13-20.41h0Z"/>
      <path d="m4.35,466.97c2.75,13.32,3.59,26.93,4.67,40.47.66,4.42-1,21.4,7.32,15.16.5-.88-.88-1.68-1.36-.79-1.69,2.09-3.94-.8-3.83-2.7-2.07-16.82-.74-37.37-6.8-52.12h0Z"/>
      <path d="m4.35,475.74c.45,6.07-.92,46.2,4.23,46.08.88.24,1.26-1.13.38-1.37-3.05-1.67-1.7-6.39-2.17-9.31-.77-11.34.05-25.43-2.44-35.39h0Z"/>
      <path d="m240.41,499.45c-1.75,3.2-.69,7.68-1.23,11.31.11,3.91-.86,8.04.39,11.8.52,1.18,2.56.33,2.1-.89-1.48-5.47,1.7-18.21-1.26-22.23h0Z"/>
      <path d="m18.67,501.49c18.19-4.09,27.13-1.19,43.24,6.76,22.59,7.01,45.21-7.86,68-3.07,48.33,16.64,67.87-9.74,108.9-2.17,1.22.33,1.73-1.55.52-1.88-35.13-7.89-69.81,18.01-104.85,3.03-22.87-6.66-45.29,7.27-68.19,3.2-18.99-6.63-26.23-13.72-47.97-7.13-.83.21-.46,1.37.35,1.25Z"/>
      <path d="m79.05,793.3c6.52,4.18,15.03,6.51,22.72,7.86,7.96-.27,16.41-3.03,22.67-8.03.86-.76-.4-2.01-1.26-1.26-9.16,6.99-22.07,10.03-32.7,4.65-1.63-.11-12.14-5.01-11.42-3.21h0Z"/>
      <path d="m123.53,794.09c8.57,37.67-11.88,24.33-26.68,52.33-8.4,13.33-25.17,23.83-41.2,20.22-2.83-1.47-1.99-5.43-4.55-7.26-5.95-4.17-12.45,1.26-9.25-10.77,8.64-20.75,33.7-31.49,38-54.78.29-1.43-1.9-2.04-2.19-.6-4.41,22.6-28.27,33.31-37.41,53.22-5.45,17.48,6.31,10.41,10.34,15.58,3.19,12.75,20.17,6.46,28.72,2.97,13.42-5.64,19.39-19.3,28.18-29.83,7.03-7.94,20.83-10.92,19.75-23.82.84-2.01-.99-22.52-3.72-17.26h0Z"/>
      <path d="m39.7,856.35c7.62,28.63,42.57,17.84,56.54.06,3.03-3.17,5.91-6.51,9.19-9.43,6.61-6.21,17.04-7.74,21.57-16.15,1.98-3.77,2.17-8.55-.37-12.11-.79-1.11-2.64-.04-1.84,1.08,2.23,3.13,1.96,7.23.07,10.46-7.26,9.47-20.73,11.64-27.57,22.03-12.67,17.58-46.81,31.61-56.19,3.87-.24-.71-1.51-.65-1.4.19h0Z"/>
      <path d="m111.95,836.12c2.47,1.78,17.5-11.57,10.57-9.76-2.58,3.91-6.73,6.52-10.68,8.89-.38.18-.27.78.11.88h0Z"/>
      <path d="m43.3,842.58c-3.19,26.47,33.71,12.81,44.05,1.93,1.01-.82-.43-2.24-1.42-1.42-10,8.05-25.5,17.44-38.15,10.35-3.47-1.5-2.66-12.37-4.48-10.86h0Z"/>
      <path d="m124.35,793.93c-5.41-3.16-1.01,11.71-13.49,6.56-6.91,1.29,9.44,7.03,11.49-2,.34-1.36.03-3.47,1.73-3.9.27-.07.43-.42.27-.66Z"/>
      <path d="m55.57,828.38c-7.49,12.03,18.35,19.59,26.43,11.96,4-2.36,5.34-6.75,7.56-10.53,5.4-7.28,13.86-11.92,18.92-19.46,1.39-1.35,4.47-13.13.41-8.64-.24,5.55-3.46,10.09-7.62,13.52-4.31,4.28-9.15,8.08-12.94,12.84-2.77,4.59-4.5,10.36-10.26,12.02-7.62,4.06-24.4-.66-21.65-11.22.1-.46-.5-.91-.85-.5Z"/>
      <path d="m65.27,824.39c-2.25,1.92,8.34,5.4,9.3,8.56,6.19.32-7.07-8.82-9.29-8.25l.33.43c.03-.29.15-1.01-.34-.74Z"/>
      <path d="m77.91,828.53c7.74-9.37,15.24-19.08,25.21-26.3.69-.53-.24-1.75-.94-1.22-8.76,7.42-21.17,17.29-24.27,27.51h0Z"/>
      <path d="m68.93,813.45c3.6,6.55,9.54,12.13,12.36,19.37,6.85,3.61-10.05-21.49-12.35-19.37h0Z"/>
      <path d="m72.36,808.67c3.59,6.15,8.34,11.67,11.81,17.95,5.72,2.58-3.32-8.97-4.09-10.37-1.21-1.19-6.6-10.46-7.73-7.58h0Z"/>
      <path d="m74.88,804.67c4.26,6.21,9.51,11.88,13.08,18.63.68,1.18,2.52.11,1.83-1.07-1.94-3.11-11.97-19.55-14.92-17.56h0Z"/>
      <path d="m77.64,799.68c3.72,6.28,9.62,11.51,13.2,18.08,7.53,3.74-11.42-20.09-13.2-18.08Z"/>
      <path d="m82.75,795.77c5.11,5.24,11.22,9.68,14.92,16.21,8.73,3.21-14.39-20.12-14.92-16.21Z"/>
      <path d="m64.03,819.13c-4.64,1.72,16.22,2.75,17.87,4.38,6.57-2.71-16.76-5.51-18.43-4.17l.47.61c.15-.24.66-.82.08-.82Z"/>
      <path d="m67.44,816.63c5.77-.23,11.74-.35,17.03,2.34,5.71-1.12-5.43-4.26-7.02-4.2-2.33-.36-9.87-.56-10.01,1.86h0Z"/>
      <path d="m71.62,810.61c5.7,1.13,11.6,2.13,17.16,4.06,1.28.46,1.85-1.61.56-2.05-3.79-.85-15.4-5.03-17.72-2.01Z"/>
      <path d="m74.96,804.41c6.41.95,13.56,2.01,19.9,4.47,7.26-2-20-8.09-19.9-4.47Z"/>
      <path d="m77.56,798.77c6.85,3.33,15.68,2.68,23.08,5.19,7.83-2.77-22.48-5.81-23.08-5.19Z"/>
      <path d="m107.6,799.77s.03.06.03.1l-.03-.19c1.42,4.54,5.3,1.44.9-.71l.17.07c-.51-.37-1.25.12-1.07.73h0Z"/>
      <path d="m192.63,828.69c-4.84,25.57,1.99,21,15.12,38.81,7.12,13.41,13.56,27.81,27.59,35.53,10.46,7.45,25.82,9.97,35.14-.56,1.51-.88,3.03.16,4.51.57,6.9.71,4.79-10.13,3.69-14.22-2.19-9.78-10.14-15.83-16.82-22.58-10.86-12.88-17.65-28.62-25.42-43.44-7.42-4.38,9.94,23.14,10.55,25.33,4.5,8.13,9.07,16.06,15.75,22.63,7,5.75,13.41,12.85,14.5,22.24.26,3.39,1.2,10.14-4.17,7.03-3.23-.64-4.76,1.55-6.96,3.43-18.36,12.61-41.25-7.87-49.8-23.91-9.06-26.7-27.74-22.42-22.54-44.51.01-1.32,1-8.76-1.15-6.36h0Z"/>
      <path d="m192.3,849.29c-7.47,6.78-1.02,19.06,5.5,24.25,6.49,3.43,11.13,8.6,14.68,14.97,12.94,17.85,42.51,39.68,62.47,20.24,1.71-1.01,7.73-14.34,2.63-10.56-.61,2.82-1.71,5.52-3.34,7.91-20.5,21.94-52.36-5.28-63.91-24.72-2.82-4.84-8.05-7.03-12.22-10.37-5.15-4.87-10.32-14.25-4.97-20.64.51-.54-.17-1.55-.83-1.08Z"/>
      <path d="m275,883.64c.37,18.05-26.84,12.01-36.36,5.16-3.42-2-6.72-4.35-8.65-7.9-.66-1.22-2.53-.13-1.86,1.09,9.36,13.01,30,19.82,44.65,12.17,3.36-2.13,4.75-7.05,3.04-10.63-.18-.32-.75-.28-.83.11h0Z"/>
      <path d="m262.28,869.83c.05,6.17-10.1,3.64-14.17,4.92-12.72,2.81-19.41-4.83-24.55-15.34-3.63-7.63-8.7-14.14-14.1-20.55-1.61-1.39-5.34-12.89-6.28-7.56,2.11,5.57,5.34,10.23,9.3,14.63,8.07,8.7,10.51,22.15,20.55,29.04,3.82,3.41,35.22,3.3,30.32-5.59-.32-.57-1.26-.19-1.06.45Z"/>
      <path d="m238.28,868.84c5.13.18,10.28-2.42,15.35-2.18,1.27.46,1.85-1.59.56-2.03-1.22-.42-2.45-.09-3.67.17-1.73.85-14.26,1.85-12.24,4.04Z"/>
      <path d="m194.23,855.9c-1.63,4.57,10.72,17.06,8.65,10.23-4.22-1.92-6.08-7.98-8.65-10.23h0Z"/>
      <path d="m190.77,827.39c3.38,2.46,7.96,2.75,12.02,2.82,11.97,2.31,25.47,4.6,33.72-6.81.85-.86-.46-2.17-1.33-1.32-9.7,13.14-25.44,6.37-38.83,5.79-1.21.1-5.98-2.54-5.6-.47h0Z"/>
      <path d="m217.51,831.2c6.92,9.52,12.59,19.83,16.56,30.95,8.11,6.12-13.72-34.75-16.56-30.95Z"/>
      <path d="m249.71,850.57c-3.49-2.55-27.24,14.34-19.33,13.66,4.47-5.46,10.5-9.38,17.02-11.98.61-.37,2.79-.83,2.32-1.68Z"/>
      <path d="m245.23,842.39c-2.38-.91-23.74,15.31-16.88,14.73,4.37-5.09,9.78-9.02,15.34-12.68.53-.44,2.13-1.26,1.54-2.04Z"/>
      <path d="m241.23,835.57c-1.83-.11-23.06,17.19-15.96,15.07,3.21-4.27,8.01-7.44,12.04-10.98.81-.91,4.89-3.13,3.92-4.09h0Z"/>
      <path d="m239.03,831.36v-.06s-.17.28-.17.28h-.01c-.03-.11-.06-.21-.08-.31-3.93,1.26-7.78,3.22-11.18,5.67-1.3.52-12.29,10.82-7.35,9.35,4.1-7.36,12.66-10.14,18.95-14.84.08-.41-.67-.44-.6-.02,0,.34.47.27.44-.06h0Z"/>
      <path d="m235.41,825.33c-2.21-.15-25.81,13.82-18.86,13.65,4.34-6.19,14.71-9.13,18.86-13.65Z"/>
      <path d="m243.64,852.86h0s.1.12.1.12h0s.09.31.09.31h0c-.03.1-.06.21-.08.31h0s-.23.22-.23.22h0s-.15.06-.15.06c0,0,.01,0,.02,0l-.17.02h.02l-.17-.02s.01,0,.02,0l-.15-.06h0s-.13-.09-.13-.09h0s-.1-.12-.1-.12h0s-.09-.31-.09-.31h0s.02-.1.02-.16h0s.06-.14.06-.14v.02s.09-.13.09-.13h-.01s.13-.09.13-.09c0,0-.02.01-.03.02l.15-.07h-.02s.17-.02.17-.02c-.01,0-.03,0-.04,0l.17.02c-3.96-1.87-2.6,2.68.41.98.71-.95-1.13-1.62-1.2-.44.05,1.18,1.86.49,1.08-.42h0Z"/>
      <path d="m252.09,854.69c-1.77-.97-24.61-6.47-20.38-1.93,6.48-.84,15.05,3.4,20.38,1.93Z"/>
      <path d="m247.72,848.17c4.54-1.56-16.52-2.58-18.14-2.63-4.89,3.28,16.82,1.91,18.67,2.67l-.15-.55-.22.1c-.24-.05-.39.27-.17.41h0Z"/>
      <path d="m244.16,841.77c-1.77.27-23.04-3.32-18.38.28,5.65-.2,14.07,1.09,18.38-.28Z"/>
      <path d="m242.68,836.9c-1.97-.28-26.88-5.9-22.38-1.47,7.05-.61,16.7,2.86,22.38,1.47Z"/>
      <path d="m240.16,833.04c-1.53-.35-16.69-6.53-13.05-2.15,3.98.15,10.17,2.93,13.05,2.15Z"/>
      <path d="m188.97,732.96c-5.62-4.91-10.83-10.38-14.96-16.65-7.56-2.81,14.39,19.62,14.96,16.65h0Z"/>
      <path d="m179.82,733.78c-.93-.72-4.53-9.83-4.9-6.26.8.95,4.22,7.77,4.91,6.26h0Z"/>
      <path d="m162.89,593.59c-9.97-12.46-16.18-27.58-19.26-43.16-.2-.93-1.53-.51-1.4.39,2.34,15,10.58,33.73,20.66,42.77h0Z"/>
      <path d="m239.83,349.74c3.18,9.49,14.51,10.2,21.34,15.79,7.96,10.29,7.28,19.76-8.08,16.41-2.64,2.04,10.15,3.58,11.37,1.73,7-4.22,2.07-14.66-2.13-19.29-8.22-6.11-16.06-6.25-22.5-14.63h0Z"/>
      <path d="m269.06,416.05c-1.51,2.63,4.67,36.57,3.45,16.89-1.13-4.45-.55-14.06-3.45-16.89Z"/>
      <path d="m238.56,417.62c-2.44,2.66,4.16,37.38,2.94,17.13-.63-2.9-.34-16.93-2.95-17.13h0Z"/>
      <path d="m272.17,439.72c8.44,16.58,3.23,34.13-1.04,51-2.13,13.27-4.5,26.52-6.32,39.83-.11.89,1.39,1.09,1.57.21,2.57-12.79,4.16-25.77,6.41-38.61,2.88-14.63,9.44-29.36,4.07-44.31-.52-1.43-3.2-11-4.68-8.12Z"/>
      <path d="m266.14,529.51c-1.55-.19-2.75-.45-3.77-1.79.11.14-.07-.09-.06-.08-2.66-1.4-.75,2.34.87,2.59.73.7,4.54.53,2.96-.72h0Z"/>
      <path d="m242.39,444.93c-9.27,9.69-5.81,25.89-7.14,38.29.37,1.96-1.43,20.47,2.06,15.79.95-15.04-3.3-41.52,5.78-53.38.31-.43-.28-.96-.7-.71Z"/>
      <path d="m237.73,499.25c13.56,1.51,7.2-16.89,12.7-24.22,1.95-2.22,4.66-4.78,4.17-8.07-1.84-1.96-1.91,3.07-2.95,4-3.66,3.32-4.92,7.6-5.44,12.4-1.82,6.63.6,14.54-8.59,15.07-.44.13-.37.83.11.81Z"/>
      <path class="cls-14" d="m176.12,38.45c-1.51-12.96-11.29-31.91-33.99-32.32-10.72-2.65-31.72-8.54-38.95-.6-32.32,7.49-42.54,46.41-31.34,66.43-2.27,5.26-2.32,18.38.51,24.39-1.9,4.83-.7,13.31,1.4,16.56-3.59,2.61-3.7,12.26-1.49,14.38-4.24,3.22-3.31,12.77-.99,14.76-3.33,3.23-2.93,14.2.95,17.29-3.67,3.32-2.88,12.59,2.35,15.06-2.64,3.28-.95,13.15,3.49,15.44-2.66,2.11-4.42,11.51.62,15.22-1.62,1.26-2.11,9.38.11,11.41-.75,2.71,1.7,10.5,4.02,12.39-10.67,8.32,3.39,14.67,1.68,25.06,8.44-5.25,8.19-19.76,3.91-24.56,5.69-2.32,9.17-13.44,6.78-17.95,2.23-2.34,1.49-12.6-1.62-14.89,4.1-4.32,1.58-14.31-1.69-16.31,3.1-3,3.19-13.75-.82-17.16,1.93-1.93,1.69-11.87-.87-14.12,1.39-1.95.82-10.18-1.44-12.39,7.97-10.24-4.28-15.23-6.9-27.31-2.33-7.35-4.4-10.52-4.68-14.27,12.28-12.47,3-12.57,6.85-26.53,2.94-7.03,8.21-5.08,13.6-13.78,4.96-7.99,1.48-11.21,6.07-15.65,7.09-5.93,19.45-3.5,21.54-15.33,8.26,28.85-.41,17.4,22.12,36.61,3.1,4.72,2.23,15.21,8.56,21.67-4.7-9.89,4.63-13.58,2.62-25.68,11.44,24.12,11.09,52.85-12.93,74.86-2.24,3.77,1.53,14.45,4.13,15.59-3.53,2.63-3.64,11.26.12,14.02-2.85,1.64-5.43,10.91-2.33,14.79-2.34,1.74-3.94,12.56-1.38,15.72-2.76,2.51-3.56,13.44.64,17.16-2.47,2.88-2.96,14.37,2.88,18.4-1.71,2.59.72,10.89,2.74,11.86-10.77,15.9,3.77,14.14-.23,26.25,8.96-4.26,5.46-7.29,7.09-14.9,2.49-4.06,2.64-8.02-.38-11.16,6.01-3.11,8.18-14.91,3.29-20.02,6-4.31,5.15-15.78,2.1-18.91,2.59-3.14,2.19-13,.37-15.14,2.5-3.57,3.15-12.88,1.85-15.91,2.66-2.39,3.3-10.01,2.23-11.8,4.07-4,2.76-14.7-.43-17.28,4.02-3.71,2.89-14.06-1.58-16.8,2.29-2.48,2.27-12.45.29-14.62,3.39-3.66,4.61-15.99,1.95-20.31,1.35-4.42,5.36-15.56,5.67-16.51,2.25-5.33,2.18-25.61,1.52-33.09h0Z"/>
      <path d="m71.58,127.37c-7.57,7.16-.76,19.8,8.12,22.16,1.07.39,1.48-1.27.46-1.69-6.79-2.65-13.11-10.38-9.07-17.69.11-.68,1.75-2.97.48-2.78Z"/>
      <path d="m70.77,142.31c-7.76,7.08.19,21.75,10.1,22.54,1.38.23,1.99-1.87.59-2.12-7.84-1.16-13.57-9.19-11.09-16.94.11-.43,1.27-3.31.4-3.48h0Z"/>
      <path d="m71.43,159.4c-11.85,14.85,18.4,23.75,12.07,17.13-8.22-.3-16.1-8.41-11.25-16.49.25-.51-.39-1.09-.82-.63Z"/>
      <path d="m74.87,174.46c-3.68,3.2-2.87,9.71-.22,13.36,2.27,3.13,6.03,5.01,9.86,5.24,1.3.08,1.29-1.94,0-2.02-7.51.04-13.45-9.76-9.22-16.16.27-.28-.13-.67-.42-.42h0Z"/>
      <path d="m77.81,190.21c-4.2,3.11-4.19,9.64-1.32,13.65,2.09,2.94,5.53,4.78,9.13,4.97,1.5.08,1.5-2.26,0-2.33-7.9-.18-11.38-9.75-7.34-15.94.18-.31-.22-.56-.47-.36Z"/>
      <path d="m78.71,203.64c-9.66,12.52,12.29,24.26,7.84,17.07-7.05-2.11-9.71-10.18-7.04-16.61-.03-.4-.43-.66-.8-.46h0Z"/>
      <path d="m88.8,136.86c2.4,7.91.84,17.67-8.04,20.78-.87.33-.51,1.74.39,1.42,8.24-2.72,13.08-12.58,9.65-20.66-.23-.66-1.16-2.49-1.99-1.53h0Z"/>
      <path d="m90.55,149.61c2.68,7.85-.26,17.28-8.17,20.72-2.08,5.61,8.73-3.51,8.88-5.52,2.77-4.7,3.03-10.88-.17-15.43-.17-.28-.65-.1-.54.23Z"/>
      <path d="m91.29,164.08c4.27,6.99,1.9,17.28-6.1,20.09-1.19.45-.67,2.39.53,1.93,8.88-3.01,13.05-15.5,6.09-22.43-.28-.27-.7.07-.53.41Z"/>
      <path d="m92.45,180.62c3.56,8.04,3.22,16.29-6.21,20.03-3.76,6.16,11.11-1.91,10.65-9.75.67-2.25-1.63-11.34-4.44-10.28h0Z"/>
      <path d="m93.98,197.42c3.58,7.24,1.33,16.82-6.9,19.5-1.2.43-.71,2.32.53,1.93,6.33-1.74,10.71-8.1,9.93-14.65.05-1.53-1.9-7.98-3.56-6.79Z"/>
      <path d="m94.92,211.13c.95,6.75-.98,14.51-8.2,17.16-3.69,6.72,12.44-3.53,10.09-13-.04-.49-.87-5.19-1.89-4.17Z"/>
      <path d="m85.29,253.9c11.54-6.58,5.72-28.92,3.73-21.64,4.43,9.09-.49,15.22-3.73,21.64h0Z"/>
      <path d="m81.23,228.63c1.32,1.55,9.31,4.53,9.83,1.61-.03-.76-.56-1.19-1.27-1.27-2.27.22-7.37-2.19-8.55-.33h0Z"/>
      <path d="m84.78,253.98c3.76-8.29-10.04-15.82-2.72-23.12,1.09-1.13-.65-2.87-1.72-1.72-7.24,6.64,1.63,13.75,3.32,20.62.57.7.19,5.26,1.12,4.22h0Z"/>
      <path d="m90.88,126.4c.33,7.15-4.31,14.28-11.77,15.11-.6.09-.93.85-.79,1.38,5.26,2.9,13.48-5.91,13.8-11.39.29-.9-.16-6.17-1.24-5.1Z"/>
      <path d="m145.14,37.09c-2.62,9.39,6.85,14.01,12.1,19.77,3.89,5.04,3.73,11.64,5.83,17.39,2.47,5.85,3.22,12.29,3.47,18.59,6.65,6.96-4.46-32.19-5.75-34.16-3.86-8.09-15.6-10.93-14.68-21.46-.01-.54-.83-.68-.97-.13h0Z"/>
      <path d="m157.36,81.54c-5.19-8.19,4.89-16.42,1.02-26.37-.29-1.49-2.57-.86-2.27.63.88,4.49.71,9.16-.87,13.48-2.03,4.26-2.38,9.44,1.56,12.7.27.29.81-.1.56-.43h0Z"/>
      <path d="m124.13,25.49c-3.3,6.82-10.36,7.12-16.42,9.69-12.14,7.02-6.62,19.57-19.51,26.7-11.85,6.8-1.71,21.39-9.62,29.97-3.05,2.5-5.13,6.03-4.88,10.08.02,1.56,2.43,1.56,2.42,0-.02-1.84.32-3.64,1.3-5.23,16.33-15.53-4.49-22.74,18.43-38.5,4.19-3.77,3.66-9.59,6.26-14.19,4.47-10.43,19.74-6.75,22.88-18.15.19-.54-.58-.79-.87-.37Z"/>
      <path d="m71.02,55.33c5.17,16.76-9.43,30.66,3.13,47.41.73,1.07,2.48.08,1.75-1.02-4.5-6.86-6.04-15.11-4.29-23.12,1.5-6.84,5.89-19.18-.59-23.26Z"/>
      <path d="m71.66,32.14c-6.18,12.86-6.01,28.1-.61,41.2.43,1.09,1.97.47,1.5-.63-6.24-12.53-3.79-29.13-.89-40.57Z"/>
      <path d="m122.34,10.59c-.28-2-13.58-8.38-10.91-4.62,3.99.38,7.74,2.11,10.49,5.04.26.28.67-.14.42-.42Z"/>
      <path d="m103.1,5.15c-16.9,4.42-34.31,17.56-31.83,36.92.06,1.19,1.92,1.2,1.86,0-2.19-22.72,16.04-27.92,29.98-36.92Z"/>
      <path d="m145.46,132.42c-3.77,5.94.74,14.93,6.96,17.39,1.66.71,3.42,1.12,5.23,1.22,1.62.09,1.61-2.42,0-2.52-6.53-.19-11.92-6.34-11.37-12.94-.13-.87.3-3.22-.82-3.15Z"/>
      <path d="m148.21,147.81c-5.51,5.98-1.31,16.54,5.79,19.29,1.41.46,4.01,2.05,4.84.07.18-.64-.22-1.56-.94-1.66-8.45-1.07-11.54-10.02-9.03-17.32.02-.31-.4-.57-.66-.38Z"/>
      <path d="m168.89,157.42c-.21.13-.35.33-.39.58-.04.3.14-.35-.07.09.04,6.12-2.83,12.49-9.1,14.39-4.75,7.25,15.77-3.41,10.35-14.72.36.4-.01-.09-.07-.15-.18-.18-.48-.35-.73-.19h0Z"/>
      <path d="m148.65,161.7c-12.33,13.9,12.08,28.86,7.42,20.4-8.26-2.88-10.29-12.76-6.91-20.1.2-.33-.29-.6-.51-.3h0Z"/>
      <path d="m165.64,168.23c1.6,8.39-.79,17.87-9.31,21.46-1.39.65-.18,2.72,1.21,2.06,4.88-2.32,8.69-6.61,10.13-11.85,1.07-1.7,1-14.43-2.03-11.68Z"/>
      <path d="m146.68,176.47c-12.25,10.39,12.24,29.85,8.53,20.64-6.14-3.24-11.43-10.65-8.78-17.74.11-.75,1.66-2.93.25-2.9Z"/>
      <path d="m164.79,186.67c2.08,7.36-1.87,16.15-8.75,18.74-1.45.6-.62,2.63.84,2,7.84-3.39,12.55-13.07,8.79-21.12-.24-.52-1-.14-.88.37Z"/>
      <path d="m145.92,191.03c-11.84,13.79,11.87,30.26,8.38,21.85-8.76-3.42-11.08-13.41-7.88-21.57.05-.3-.27-.48-.5-.29Z"/>
      <path d="m164.35,200.94c3.02,7.66.67,17.54-8.1,19.89-1.47.44-.84,2.74.64,2.31,4.2-1.24,7.88-4.37,9.67-8.38,1.9-3.28,1.73-13.21-2.2-13.82Z"/>
      <path d="m146.82,208.99c-3.42,2.54-3.46,8.64-2.17,12.49,1.77,4.93,5.8,8.41,10.63,10.22,1.61.6,2.32-1.99.71-2.58-6.61-2.22-11.47-9.26-9.67-16.28.11-.5,1.5-3.76.51-3.85h0Z"/>
      <path d="m162.53,219.11c2.44,6.21,1.61,14.16-4.54,17.8-1.38.87-.08,3.09,1.28,2.19,2.88-1.91,5.13-4.83,6.18-8.13,1.21-2.79.58-12.06-2.91-11.86Z"/>
      <path d="m149.01,227.68c-3.07,4.5,1.05,11.01,5.8,12.46,2.4.22,1.65-2.6.15-2.59-6.56-2.27-3.64-9.9-5.96-9.87h0Z"/>
      <path d="m151.98,266.14c8.67-7.73-9.98-13.81,1.97-25.14,1.31-1.19-.64-3.15-1.95-1.95-3.43,3.17-5.25,8.02-4.36,12.65.97,4.84,7.04,8.39,3.67,13.77-.22.43.23.92.67.67h0Z"/>
      <path d="m152.36,265.77c11.72-5.65,4.82-10.68,9.98-19.77.38-2.67-1.14-5.03-2.83-6.95-1-1.13-2.66.53-1.66,1.66,5.19,4.36-1.13,8.32-.2,13.35,2.23,6.26-6.87,10.92-5.28,11.71h0Z"/>
      <path d="m160.09,238.26c-2.01.33-4.79.63-6.36-.21-1.31-1.24-3.56.24-1.92,1.6,1.3,1.72,10.24,1.29,8.28-1.39Z"/>
      <path d="m78.34,217.47c-1.98,2.32,4.64,18.12,5.58,10.73-2.46-3.23-3.3-7.22-5.04-10.8-.13-.23-.47-.17-.54.07Z"/>
      <path d="m72.79,112.95c-6.97,7.54-.71,20.96,9.08,22.29,1.09.22,1.57-1.42.46-1.69-8.34-1.72-13.71-11.02-9.42-18.79.05-.5.91-2.17-.13-1.81h0Z"/>
      <path d="m86.97,119.09c-1.37,2.86-2.7,6.2-5.48,7.66-.51.33-.72,1-.4,1.54,1.74,1.76,3.89-1.77,5-2.98,1.22-1.79,2.22-4.02,1.47-6.15,0-.32-.52-.42-.58-.08h0Z"/>
      <path d="m71.51,97.92c-5.41,10.44,10.45,29.3,9.79,22.39-6.1-4.77-10.04-12.4-9.08-20.23-.09-.57.21-2.76-.71-2.16Z"/>
      <path d="m168.91,141.34c3.11,7.47.37,17.09-8.23,18.96-1.69.4-.97,3.04.72,2.61,3.95-1,7.57-3.85,9.45-7.45,2.25-4.41,2.58-11.04-1.29-14.61-.35-.24-.69.16-.64.49h0Z"/>
      <path d="m149.11,127.47c-2.6,3.22,2.66,9.63,6.96,10.2,3.22,1.4,4.55-2.04,1.63-2.24-7.96-1.27-6.14-7.17-8.59-7.96Z"/>
      <path d="m167.14,123.38c4.71,7.38,2.38,18.2-6.95,20.21-1.69.4-.97,3.03.72,2.61,3.61-.91,6.95-3.35,8.93-6.48,3.12-4.91,3.15-13.34-2.05-16.83-.33-.17-.75.11-.64.49Z"/>
      <path d="m166.54,108.36c2.32,7.84.21,17.38-8.46,19.98-1.64.56-.92,3.19.72,2.61,4.67-1.65,8.49-5.22,10.12-9.95,1.39-2.25.92-13.94-2.37-12.64Z"/>
      <path d="m104.38,5.16c8.11-7.75,30.57.62,40.57,2.6,34.42,1.81,35.12,44.89,26.92,69.79-.84,1.83-7.84,18.39-3.53,15.51.97-5.06,2.51-10,4.67-14.68,4.91-11.47,3.4-24.47,4.53-36.65-1.39-22.18-15.32-35.06-37.08-36.56-8.42-3.55-17.7-3.43-26.63-4.74-1.92-1.15-11.79,4-9.44,4.73h0Z"/>
      <path d="m130.12,12.58c3.34-2.24,7.46-3.37,11.46-2.54.83.16,1.18-1.12.35-1.27-3.58-.73-11,.56-11.8,3.81Z"/>
      <path d="m167.34,88.3c3.54,8.03,2.14,18.35-5.84,23.18-1.26.8-.08,2.84,1.18,2.01,4.4-2.9,7.74-7.33,8.6-12.6,1.15-1.89-1.36-16.21-3.93-12.59Z"/>
      <path d="m125.5,18.06c-2.97,5.21-.28,11.17,1.39,16.37,2.12,12.88,5.28,15.91,15.97,22.71,8.19,6.55,4.64,20.35,13.54,25.98,1.21.61,2.28-1.21,1.07-1.82-7.68-5.33-4.73-17.31-11.1-23.95-4.04-5.2-11.71-6.75-14.39-13.08-1.46-7.87-5.42-15.23-5.86-23.24-.33-.61.35-3.99-.62-2.96h0Z"/>
      <path d="m88.49,23.64c8.63-7.22,20.95-9.68,31.45-5.19l.32-1.19c-9.8.18-23.49,6.64-26.05,15.66,6.15-8.23,15.51-14.29,26.05-14.38.58-.02.94-.92.32-1.19-10.35-4.56-25.18-2.33-32.1,6.29Z"/>
      <path d="m92.71,36.45c-4.33,3.07-2.62,9.49-4.24,13.83-1.57,4.24-6.88,6.7-7.51,11.32,2.27-2.54,5.95-6.72,8.09-10.22,1.83-4.8.97-10.95,3.66-14.93Z"/>
      <path d="m137.51,15.26c14.02,1.41,17.29,8.49,19.71,21.19,3.29,7.69,10.85,14.87,11.14,22.74,2.33-8.81-6.58-14.96-9.48-22.4-2.67-12.53-6.71-23.08-21.37-21.53h0Z"/>
      <path d="m130.96,17.57c4.44,5.48.66,13.31,4.21,19.36.47,1.15,2.91,6.48,4.08,4.86-2.01-4.23-4.7-8.3-4.94-13.17-.38-3.34.48-10.37-3.36-11.05Z"/>
      <path d="m199.73,164.59c-2.08,2.74-6.43,13.23-3.43,14.96.64-2.42.66-4.97,1.38-7.38-.25-1.31,4.59-8.83,2.04-7.58h0Z"/>
      <path d="m75.52,84.13c-.41,26.72,17.23,53.9,42.35,63.34,2.85-1.01-1.06-3.02-2.35-3.5-17.23-8.53-29.97-24.63-35.82-42.8-1.77-1.91-2.69-20.14-4.17-17.05h0Z"/>
      <path d="m120.31,147.2c5.66,2.97,12.03-3.5,16.71-6.24,19.97-14.79,33.63-40.6,30.91-65.69-.05-.23-.45-.25-.48,0-1.26,29.44-18.18,62.71-47.14,71.92h0Z"/>
      <path d="m89.42,81.62c7.19-4.61,17.46-5.82,22.44,2.59.31.38.81-.05.74-.43-2.31-10.13-19.22-8.61-23.18-2.16Z"/>
      <path d="m110.7,81.36c-5.2,6.87-12.64,5.01-18.51.06-.6,3.63,7.25,6.96,10.69,6,2.31.04,10.11-3.54,7.82-6.06Z"/>
      <path d="m89.03,77.71c14.17-8.89,15.61-2.91,27.22,3.43.29.06.42-.29.19-.46-3.99-2.87-7.18-7.69-12.33-8.53-5.8-.95-10.77,1.93-15.37,5.07-.3.2-.02.68.28.49h0Z"/>
      <path d="m128.95,83.38c5.1-7.72,15.17-6.26,22.18-2.23,2.01-2.76-10.54-5.07-12.82-4.68-3.93.23-8.41,2.63-10.16,6.3-.23.49.39,1.08.8.61Z"/>
      <path d="m129.11,82.1c2.42,5.55,10.27,7.12,14.98,3.56,1.03-.67,5.29-4.23,3.8-5.01-4.83,5.51-13.01,7.66-17.88.93-.36-.33-1.12,0-.9.53Z"/>
      <path d="m124.71,81.15c12.17-7.23,12.18-11.44,27.22-3.68-1.69-4.32-9.94-5.94-14.72-5.28-5.22.92-8.61,5.47-12.75,8.34-.2.2-.07.65.25.61h0Z"/>
      <path d="m113.37,71.03c-3.12-4.19-24.88-8.98-25.92-2.34,7.62-1.95,15.57-.77,22.9,2.05.81.27,2.63,1.49,3.02.3Z"/>
      <path d="m126.61,71.55c8.54-4.43,18-6.4,27.44-3.9-2.52-6.08-15.7-3.25-21.02-.72-1.04.62-8.86,3.63-6.42,4.62h0Z"/>
      <path d="m109.34,125.6c2.82,1.97,6.78,4.68,10.28,3.51,3.85.89,7.63-.14,10.53-2.95.23-.18-.06-.46-.28-.37-3.24,1.53-6.68,2.49-10.18,1.53-.9.26-1.64.72-2.6.39-2.44-.11-6.02-2.69-7.75-2.11h0Z"/>
      <path d="m104.46,121.44c1.1,2.18,4.85,1.1,6.63.8,6.88-.15,6.22,2.34,14.28-.12,3.71.27,8.67,2.85,11.41-.98.24-.37-.23-.82-.6-.6-3.75,2.24-7.77-.66-11.72-.39-5.77,2.07-6.65.31-11.87.41-2.63,1-5.67,1.17-8.13.87h0Z"/>
      <path d="m113.56,116.94c2.11-.83,3.7-.59,5.77-.11,1.81-1.19,3.77.83,5.6-.09-.99-1.37-4.23-2.02-5.92-1.15-1.73-.54-4.51-.17-5.45,1.35Z"/>
      <path d="m111.68,104.11c1.65,3.16,2.5.75,4.92.93,1.42-.01,3.25,2.23,4.44.78.04-.64-.86-.46-1.26-.64-1.93-1.32-5.27-2.29-6.79.09l.62-.35c-.53-.06-1.83-1.81-1.93-.81h0Z"/>
      <path d="m128.5,103.82c-.5.38-1,.81-1.56,1.1l.62.35c-1.74-2.65-5.06-1.05-7.25.02-.42-.02-1.15.28-.67.76,1.88.92,3.63-1.81,5.67-.91.72.06,1.23.9,1.95.72.5-.19,2.35-2.08,1.23-2.05h0Z"/>
      <path d="m116.1,104.02c.06-.13.57-1.33-.09-1.46-.67.07-.52,2.24.09,1.46h0Z"/>
      <path d="m124.68,104.41c.29-.55.33-1.45-.07-1.96-1.28-.79-1.11,3.04.07,1.96h0Z"/>
      <g class="cls-16">
        <path d="m79.12,238.29c2,3.32,4.01,6.65,6.01,9.97-6.54,11.78-5.36,30.4-2.55,42.03,1.73,11.04,1.6,18.81,1.36,33.95.46,12.56-13.96,84.47-10.93,94.06,5.41,42,11.13,44.3,6.84,57.37-2.59,8.46-46.06,8.52-64.35,4-.04-2.58-.08-5.16-.13-7.74,64.69-1.47,57.56,20.15,47.61-52.75-2.6-24.75,10.31-65.57,12.5-95.33,3.77-34.37-14.42-60.81,3.65-85.55Z"/>
      </g>
      <g class="cls-16">
        <path d="m274.24,365.2c-2.61-15.22.08-15.28-1.91-29.2-2.47-17.26-7.43-22.96-13.01-39.84-5.84-17.65-4.53-23.9-8.38-46.37-7.38-43.1-21.91-76.98-23.19-76.62,2.19,9.01,19.49,97.95,26.15,127.49,6.05,25.22,10.5,26.96,11.42,41.91-.15,13.91-.53,20.2,2.44,33.23-.49,1.85.09,4.08-1.31,5.7-.96-.07-2.23.54-2.21,1.62-1.38.37-5.82,1.45-2.59,2.93,1.78-.14,3.62-.53,5.21-1.34,1.82,2.33-.73,7-1.04,8.71,17.96,4.98,11.91-9.87,8.43-28.2h0Z"/>
      </g>
      <g class="cls-16">
        <path d="m125.21,819.1c1.95-6.02,1.21-20.38-1.56-26.47-.42.19-.85.38-1.27.57.14-39.8,2.1-97.61,3.04-130.94.12-5.46-.49-11.64.13-16.76v-.22c-1.34-3.41-.59-8.02-.64-11.82-1.54-7.31-5.8-17.99-8.18-22.42,6.72-22.17,11-56.1,10.26-78.09-.21,0-.42.02-.62.03.15-3.14.29-6.29.44-9.43-28.06-.2-64.14,9.68-76,3.92-2.31-1.67-20.08-5.79-24.78-5.12.2,2.96.4,5.91.6,8.87,29.63,11.83,48.76,7.35,89.68,3.35,8.03,6.04-3.56,60.09-5.14,69.01-4.44,9.84,1.38,18.67,3.89,28.06,3.54,33.12,1.71,109.42,3.69,163.86,2.59-2.57,3.16-.22,3.03,3.92-.95-.03-1.43.89-1.43,1.73-.69-.09-1.15.52-1.38,1.07-2.54-1.54-2.14,2.17-1.39,3.55.45,2.98.31,6.04.52,9.05.08,1.9.28,3.86.09,5.76-.38,1.73-2.01,5.05.93,5.32,1.53,6.56-5.72,14.41-8.16,15.69,6.79-1.37,23.3-13.61,14.24-22.49Z"/>
      </g>
      <g class="cls-16">
        <path d="m232.51,226.65c.84-3.86-4.48,44.57-6.15,58.25-1.66,22.66,2.53,38.77,2.08,38.84-11.3-20.96,1.11-68.51,4.06-97.09Z"/>
      </g>
      <g class="cls-16">
        <path d="m276.53,449.52c-3.89-8.8-7.89-25.07-5.6-34.38-1.59.16-3.18.33-4.78.49.07-.04.13-.08.19-.14l8.53-1.34c-1.52-6.58-3.04-13.16-4.55-19.74-2.55-.17-5.09-.34-7.64-.51.02.14.04.29.06.43-8.07-2.88-27.02-.06-32.94,4l.6,4.49c.18-.07.38-.14.57-.21,6.73,3.76,12.58-4.27,19.31-3.62,8.11,2.11,11.49,3.84,12.82,12.71.21,1.36-.56,3.75,1.14,4.24-.71,15.32,3.2,20.14,6.67,33.44,2.6,13.59,2.44,23.24-1.57,35.55-.5,15.22-5.65,30.07-6.67,45.11.15.04.3.08.46.12.12-.26.44-.33.69-.15h0c.47.25.95.54,1.5.59.07-.3.14-.6.21-.9.33-.04.66-.1.97-.18.55-1.92.28-4.33,1.1-6.04.82-7.02,1.88-14.05,3.28-20.97,1.22-7.16,1.36-16.52,5-22.86,2.29-13.13,3.22-20.91.65-30.13Z"/>
      </g>
      <g class="cls-16">
        <path d="m201.7,340.42c1.48,28.85,18.98,51.44,18.4,78.01-2.6-26.51-21.59-48.08-18.4-78.01h0Z"/>
      </g>
      <g class="cls-16">
        <path d="m34.9,307.86c1.52,11.62-11.63,34.6-18.04,50.04,1.51-9.94,9.07-23.2,13.46-33.01,3.79-9.83,4.3-17.08,4.58-17.03h0Z"/>
      </g>
      <g class="cls-16">
        <path d="m7.34,403.45c.06,1.94.11,3.88.17,5.82,5.36,3.85,10.87-.81,8.59-5.29-2.02,1.28-7.55.58-8.76-.54Z"/>
      </g>
      <g class="cls-16">
        <path d="m152.12,306.2c-7.62.42-27.49-6.8-29.28-6.24-3-.06-3.78.47-18.13,5.1-5.67,1.6-8.02,3.15-12.17,3.2-.7.03-1.05.53-1.07,1.05-1.17.44-1.01.65.13.58,7.21,3.77,15.8-2.16,23.13-3.42,3.87-3.43,45.15,7.3,37.39-.27Z"/>
      </g>
      <g class="cls-16">
        <path d="m98.98,134.62l-.54,2.96c16.05,18.08,31.71,20.65,47.71,3.09-.33-2.49-.67-4.98-1.01-7.47-14.96,18.69-29.93,18.27-46.16,1.43Z"/>
      </g>
      <g class="cls-16">
        <path d="m234.83,820.49c-.12-.33-.24-.66-.34-1,2.75.66-9.58-57.67.09-115.02,1.58-9.57,7.04-35.35,1.65-68.1-5.56-20.58-.7-34.56-.95-55.96.37-17.69-.12-34.26-1.15-49.55.02,0,.04,0,.05,0-.48-3.04-.96-6.09-1.44-9.13-28.98-7.38-61.6,15.91-94.4,5.74.71,2.77,1.42,5.53,2.12,8.3,26.3,11.26,66.22-9.83,83.17-6.04,10.69,41.4-8.8,69.61,2.44,110.39,6.24,28.78.96,60.9-.68,85.45-1.44,36.79.56,61.41,5.38,93.53.87,7.5,7.67,5.04,4.07,1.38h0Z"/>
      </g>
      <g class="cls-16">
        <path d="m236.79,436.72c-3.17-11.78-4.63-31.78-12.05-39.52-.81-1.74-.34-5.95-2.67-6.1-.59-1.4-.48-5.09-2.86-3.59-.96.82-.32,2.3-.06,3.31,2.05,8.72,4.94,17.26,6.47,26.09,3.12,14.52,5.08,38.91,5.23,51.74,1.95-.47,3.91-.95,5.86-1.42.78-6.66.8-14.17,4.7-19.88-1.37-2.49-3.14-6.11-4.63-10.64Z"/>
      </g>
      <g class="cls-16">
        <path d="m240.56,499.7c-4.18.46-5.48-1.5-4.07-5.77.22-2.31.15-11.11.02-15.68.25-.05.5-.1.76-.15.15-2.3.3-4.6.44-6.9-.66-.06-.48-.72-.36-1.17-.64-.36-.44-1.36-.59-2-18.16,4.3-37.44,6.31-53.58,6.35-1.1,7.44,3.87,11.99,13.45,10.44,18.61-1.49,17.68-2.34,30.27-4.68,2.15,13.28.24,26.69-.69,39.92,4.67.88,9.34,1.77,14.01,2.65.52-7.23.64-15.82.33-23.02Z"/>
      </g>
      <g class="cls-16">
        <path d="m157.54,79.93c-1.26-6.73,5.09-12.82,3.04-20.11l-3.33.45c.18,10.25,6.09,18.86,7.59,28.67.12,1.2.18,4.14,1.95,3.76,3.61-4.34-.33-11.41-2.09-15.96-2.51-5.48-3.36-11.46-4.17-17.38-.26-1.87-3.58-1.45-3.33.45,1.24,5.92-1.44,11.36-2.21,17.06-.24,1.23,1.3,4.88,2.56,3.05h0Z"/>
      </g>
      <g class="cls-16">
        <path d="m124.7,26.31c-3.69,10.16-17.52,6.89-22.7,15.56-3.07,6.21-4.19,14.47-8.03,19.52,6.96-2.07,6.95-11.01,9.87-16.47,4.23-8.58,16.88-5.7,21.49-13.97.81-1.08,1.65-5.26-.63-4.65h0Z"/>
      </g>
      <g class="cls-16">
        <path d="m166.9,109.53l-.05.02.59.08c-.95-.46-1.6.63-2.26,1.12.06.03-1.4.74-1.63,1.23l.32-.32c-.48.38-.53.36-.77.85l.17-.29c-.86.72-.08,1.2.71,1.17l-.11-.02c1.25.17,4.43-1.6,3.84-3.46l.1.38c.1-.46-.49-.92-.92-.75h0Z"/>
      </g>
      <g class="cls-16">
        <path d="m167.09,123.8c-1.57.31-2.88,2.78-3.96,3.33-.38.28-.73.58-1.07.9-1.49.81-5.34,3.91-.53,2.8,2.03-.38,8.65-5.32,5.56-7.04h0Z"/>
      </g>
      <g class="cls-16">
        <path d="m167.77,141.35l-.07.03h.49c-.89-.34-1.51.66-2.11,1.15-.14.14-1.5.97-1.78,1.02-.21.09-.42.2-.64.29-3.05.6-4.92,3.13-.12,2.57,2.09-.19,6.46-2.26,5.05-4.79l.24.4c-.05-.46-.62-.83-1.06-.67Z"/>
      </g>
      <g class="cls-16">
        <path d="m167.83,159.06c-.4-.31-2.52,1.59-3.63,2.01-.28.13.15-.05-.02,0-.37.15-.76.26-1.15.38-.33.04-1.31.46-1.23.5-.3.23-.55.52-.57.91l.34-.6c-.47.25-.54.97,0,1.2l-.32-.42c.1.37.44.64.79.77,2.01.6,6.75-1.66,6.37-4.36.05.17,0,.08.03-.03.11-.38-.34-.57-.61-.36h0Z"/>
      </g>
      <g class="cls-16">
        <path d="m165.97,170.07l-.05.06.23-.14c-.27.08-.5.2-.69.42-.13.23-.58.65-.85,1.02.15-.18,0,0-.04.03-.17.24-.94.89-.88.85-.76.6-2.17,1.17-2.78,1.47-.43.1-1.27.57-1.3.81-1.05,4.48,9.72-1.54,7.05-4.46l.14.23c-.04-.38-.56-.61-.83-.3h0Z"/>
      </g>
      <g class="cls-16">
        <path d="m164.59,185.43c-1.69.37-2.43,2.54-3.91,3.42-1.25,1.03-2.77,1.76-3.9,2.93-.64,4.49,12.04-4.98,7.8-6.34Z"/>
      </g>
      <g class="cls-16">
        <path d="m163.57,201.12c-.68,1.21-2.24,2.67-2.97,3.19-1.21.97-2.69,1.55-3.96,2.39-1.3,1.8,1.34,2.33,2.57,1.48,2.42-1.12,7.26-4.06,5.37-7.18-.29-.32-.79-.2-1.01.13Z"/>
      </g>
      <g class="cls-16">
        <path d="m163.08,219.41c-.2.02-.35.07-.53.15h.87c-.35-.34-1.27.07-1.23.14-.78.74-2.88,1.88-3.6,1.86-1.49-.13-2.31,1.95-.73,2.49,2.16.39,6.83-1.79,5.74-4.37l.22.84c.14-.5-.15-1.14-.73-1.12h0Z"/>
      </g>
      <g class="cls-16">
        <path d="m147.37,129.65c-.41,4.57,4.7,9.79,9.22,9.46,1.91-.96-.06-2.45-1.75-2.79-.18-.04-1.75-.95-1.89-1.11-.6-.43-1.54-1.43-1.8-1.78-.73-.89-1.46-2.35-1.76-3.15-.22-.9-1.56-1.91-2.02-.63h0Z"/>
      </g>
      <g class="cls-16">
        <path d="m148.44,148.26c.41,3.2,5.56,4.08,8.31,4.02,1.69-.02,1.7-2.62,0-2.62-.62.03-1.52.01-2.08-.06-1.74.28-5.13-2.84-6.22-1.33Z"/>
      </g>
      <g class="cls-16">
        <path d="m147.27,164.05c1.49,2.52,4.1,4.63,7,5.27,1.65.72,5.43-.17,3.25-2.3-1.49-.5-3-.15-4.2-.83-1.61-.29-5.39-5.59-6.05-2.14h0Z"/>
      </g>
      <g class="cls-16">
        <path d="m146.32,177.67c.18,3.69,4.59,7.25,8.1,7.58,1.51-.51.79-2.36-.52-2.61-.54-.2-2.4-1.29-2.92-1.72-1.26-.53-3.52-4.74-4.66-3.26h0Z"/>
      </g>
      <g class="cls-16">
        <path d="m145.4,193.26c.58,3.48,4.87,7.51,8.44,7.21.6.1,1.18-1.02.37-1.68-.61-.79-2.9-1.5-3.72-2.29-1.5-.49-3.87-5.7-5.08-3.23h0Z"/>
      </g>
      <g class="cls-16">
        <path d="m146.42,211.95s.02.09.03.13v-.51c-.19,2.13,3.86,3.99,5.01,3.53.07-.02.58-.25.3-.14.68-.23.79-1.1.2-1.5.23.16-.23-.23-.3-.27l.38.38c-.42-.68-1.28-.72-1.95-1.02.53.26-.97-.49-1.1-.67-.12-.08.17.14.06.05-.58-.43-1.08-1.25-1.91-1.03l.75.1c-.73-.46-1.62.1-1.45.96h0Z"/>
      </g>
      <g class="cls-16">
        <path d="m149.31,229.68l.03.07-.06-.23c.44,2.09,3.52,3.41,5.45,2.92l-.11.05c.96-.18.93-1.58.29-1.8-.29-.32-2.64-.72-2.91-.92-.21-.09-.42-.19-.63-.27.14.04-.61-.27-.77-.27-.06-.11-1.66-.5-1.29.44h0Z"/>
      </g>
      <g class="cls-16">
        <path d="m87.33,122.29c-.62.88-1.58,3.19-2.35,3.98-.37.52-1.34,1.53-1.54,1.7-.24.13-.11.07-.43.21-1.87,1.15,1.02,2.9,2.38,1.11,1.6-.69,5.98-8.77,1.93-7Z"/>
      </g>
      <g class="cls-16">
        <path d="m72.52,114.28c-.75,3.6,3.51,7.82,6.41,8.56,1.54.32,1.69-1.94.81-2.25-1.5-.93-2.98-1.86-3.92-3.17-1-.86-1.58-4.62-3.29-3.13h0Z"/>
      </g>
      <g class="cls-16">
        <path d="m70.96,128.23c-2.46,3.29,10.59,11.82,10.93,7.19-2.19-2.56-6.48-2.43-8.61-5.56-.42-.49-1.47-2.42-2.33-1.62h0Z"/>
      </g>
      <g class="cls-16">
        <path d="m88.55,138.14c0-.05-.01-.04-.03.05l.2-.35c-2.01,2.21-5.12,3.57-7.76,5.05-2.1,4.61,7.67-1.62,8.67-2.72,1.33-.99-.03-3.92-1.08-2.02h0Z"/>
      </g>
      <g class="cls-16">
        <path d="m70.25,144.62c1.48,2.39,5.1,5.1,7.14,5.61,1.71.39,2.2-1.69.78-2.47-1.47-.74-3.36-1.83-4.36-2.7-.91-.99-4.05-3.44-3.56-.44h0Z"/>
      </g>
      <g class="cls-16">
        <path d="m89.79,150.91l.11.05-.12-.21v.25s.2-.51.2-.51c-.39.38-.68.78-1,1.16-.93,1.75-8.15,5.06-6.38,7.26,2.95-.42,5.58-3.47,7.89-5.36,1.03-.79,1.39-4-.6-3.06-.21-.03-.3.32-.11.41h0Z"/>
      </g>
      <g class="cls-16">
        <path d="m71.93,160.87c-2.61,2.94,7.3,5.68,8.97,4.45,1.47-3.12-5.58-2.61-7.02-3.69-.1-.04-.53-.21-.43-.17-.15-.07-.45-.21-.51-.24-.2-.07-.77-.41-1.01-.35h0Z"/>
      </g>
      <g class="cls-16">
        <path d="m90.43,164.87c.03-.21-.05.08-.05.1-.1.25-.01.07-.13.3-.49,1.04-2.15,2.29-3.02,3.04-.7.86-5.28,3.18-2.94,3.98l-.33-.09c3,.18,9.72-4.34,8.26-7.81-.48-.83-1.77-.47-1.79.48h0Z"/>
      </g>
      <g class="cls-16">
        <path d="m74.72,177.77c1.53.41,9.99,3.61,8.85.02-1.51-1.49-4.26-1.18-6.22-1.76-1.32-.6-4.39-.07-2.62,1.74Z"/>
      </g>
      <g class="cls-16">
        <path d="m91.94,181.07c.2-.15-.51.28-.53.45-.12.28-.62,1.16-.61,1.11-.43.5-.65.64-1.27.93-.7.25-2.95.68-3.63,1.83-.66,1.69,1.39,1.69,2.31.84l-.11.05c2.01-.59,4.38-1.34,4.94-3.65.27-.73-.2-1.97-1.12-1.55h0Z"/>
      </g>
      <g class="cls-16">
        <path d="m77.61,190.71c-.45.08-.65.39-.66.83l.18-.44c-2.05,3.11,9.01,5.53,7.03,1.56-1.59-.98-3.65-.37-4.78-1.12-.1-.04-.53-.22-.28-.11-.52-.22-.6-.23-1.11-.46.26.13-.32-.11-.43-.05l.53.31c-.04-.06-.08-.17-.14-.3v.41c.31-.27,0-.7-.35-.64h0Z"/>
      </g>
      <g class="cls-16">
        <path d="m93.46,197.54c-.07.02-.35.28-.24.21-.35.23-.59.55-.81.9.03-.02-.58.58-.8.73-.04.03-.17.12,0,0-.57.42-1.21.75-1.86,1.02.19-.08-.4.16-.54.22-2.59.44-5.18,3.84-.25,2.47,1.94-.15,8.1-4.26,4.48-5.55h0Z"/>
      </g>
      <g class="cls-16">
        <path d="m78.32,206.95c.68,2.14,5.8,3.8,7.67,2.65.92-.95-.53-2.03-1.22-1.94-2,.15-4.92-2.12-6.45-.71Z"/>
      </g>
      <g class="cls-16">
        <path d="m94.84,213.84l-.09.04h.34c-.23-.19-.56-.11-.79.02l.36-.1c-1.01.05-1.7,1.24-2.44,1.72-.84.64-2,1.31-2.9,1.67-.94.21-2.85,1.08-1.58,2.15,2.75.48,7.17-2.18,7.61-5.01v.38c.08-.25.06-.6-.18-.77l.1.24c.08-.27-.2-.43-.42-.33h0Z"/>
      </g>
      <g class="cls-16">
        <path d="m79.67,218.92s-.03.26-.03.24c0,.12.04.24.06.35v-.4c.25,2.84,3.81,4.55,6.43,4.74,1.44,0,1.73-2.04.32-2.4.04.01-.67-.12-.7-.09.29.04.06,0-.04-.01-.41-.04-1.59-.45-1.58-.45-.66-.27-1.26-.69-1.85-1.08-.22-.14-1.52-1.28-1.49-1.14-.33-.32-1.13-.39-1.13.24Z"/>
      </g>
      <g class="cls-16">
        <path d="m171.32,157.13c-4.16-2.42-1.22,4.97-2.07,6.94-.22,2.27-1.83,3.96-2.39,6.09,1.04,5.34,1.04,10.51-2.34,15.1-.24,3.24,2.35,6.25,1.33,9.67-.37,2.19-2.11,4.3-1.29,6.54,3.22,5.18,2.72,12.32-1.77,16.62-1.39,1.42.56,2.8.99,4.15.57,1.29.51,2.73.82,4.05,1.36,6.02-5.56,9.63-4.93,15.03,4.07,4.82.45,6.63-.73,11.53-.26,3.64,1.11,8.27-3.01,10.26-2.32,5.3,7.35-.77,5.88-5.91-1.59-5.83,6.71-10.94,1.23-16.37-.88-2.27,2.58-3.93,3.08-6.16,1.84-4.68,2.73-10.68.05-15.18,4.88-5.49,4.73-13.43,1.64-19.66,1.8-3.69,2.16-8.11.69-12.01-1.78-2.88,4.66-7.52,1.89-15.91-.22-.85-.27-1.26.15-2.05,2.1-3.68,3.15-8.96.78-12.74h0Z"/>
      </g>
      <g class="cls-16">
        <path d="m98.54,213.68c1.04-5.48,1.6-11.25-1.33-16.33,2.64-5.35,2.32-11.95-.98-16.95,2.68-5.52,2.13-12.15-1.34-17.18,1.06-1.93,1.07-4.2.19-6.25-.68-1.58-3.37-.45-2.79,1.18.48,1.34.47,2.83-.45,4-1.04,4.06,6.34,8.05,1.07,17.54-.27.47-.34,1.19,0,1.66,2.85,3.86,3.61,9.03,1.8,13.51-1.95,2.44-.12,4.52.75,6.96,1.39,3.82.24,7.7-.32,11.5.68,3.43,1.35,7.09-.81,10.2-4.81,5.46-6.14,4.32-3.09,11.92,1.22,5.14.11,10.37-2.81,14.71.47,7.37,10.91-7.82,4.71-19.53-.16-.4-.32-.6-.13-.96,5.2-3.41,7.48-10.05,5.54-15.97h0Z"/>
      </g>
      <g class="cls-16">
        <path d="m256.96,492.78c-.02-.18-.14-.94-.09-.66,0-.09,0-.18,0-.27-.03.13-.02.13,0-.03.86-2.11-2.64-2.44-2.68.16,1.1,3.03-2.04,10.26.16,11.15,3.57-.57,2.59-7.54,2.61-10.35h0Z"/>
      </g>
      <g class="cls-16">
        <path d="m168.31,93.9c.12-1.2-1.92-1.49-2.12-.29-.08.51-.4.99-.55,1.49-3.49,13.18-9.18,26.63-19.28,36.11-5.82-2.25-3.64,7.63,1.03,3.43,11.12-10.42,19.17-25.65,20.92-40.74h0Z"/>
      </g>
      <g class="cls-16">
        <path d="m106.06,371.52c-.98-2.41-2.13-32.37-5.64-25.51,2.5,23.23,5.31,46.45,5.52,69.85.6,16.45-.18,32.91-1.5,49.31-.12,1.48,2.12,1.43,2.28,0,3.41-31.1,3.31-62.6-.66-93.64h0Z"/>
      </g>
      <path class="cls-18" d="m97.58,104.18c23.54-.32,23.33-21.84-.21-21.7-23.54.32-23.33,21.84.21,21.7Z"/>
      <path class="cls-17" d="m144.19,104.19c23.54-.32,23.33-21.84-.21-21.7-23.54.32-23.33,21.84.21,21.7Z"/>
    </g>
  </g>
</svg>