<svg width="225" height="194" viewBox="0 0 225 194" fill="none" xmlns="http://www.w3.org/2000/svg">
<path d="M10.9651 130.799C-14.4342 108.158 10.1779 88.0503 25.6589 80.8264C33.0059 76.7641 44.5508 67.3134 51.1106 48.4462C57.6703 29.579 89.157 42.8371 108.049 34.1684C126.941 25.4997 121.956 8.92715 139.798 3.31799C157.641 -2.29117 170.76 -2.29117 173.909 15.3012C177.057 32.8936 201.722 35.6981 217.99 48.4462C234.258 61.1943 216.416 96.634 201.722 115.756C187.028 134.878 204.871 153.745 189.39 181.281C173.909 208.817 100.702 181.281 80.2358 168.788C59.7694 156.295 42.7142 159.1 10.9651 130.799Z" fill="black"/>
</svg>
