<svg width="459" height="376" viewBox="0 0 459 376" fill="none" xmlns="http://www.w3.org/2000/svg">
<rect width="458" height="376" fill="white"/>
<line x1="4.37114e-08" y1="134.5" x2="459" y2="134.5" stroke="#B9E5EE"/>
<line x1="4.37114e-08" y1="111.5" x2="459" y2="111.5" stroke="#B9E5EE"/>
<line x1="4.37114e-08" y1="88.5" x2="459" y2="88.5" stroke="#B9E5EE"/>
<line x1="4.37114e-08" y1="65.5" x2="459" y2="65.5" stroke="#B9E5EE"/>
<line x1="68.5" y1="-2.18557e-08" x2="68.5" y2="376" stroke="#FDAAC6"/>
<line x1="4.37114e-08" y1="156.5" x2="459" y2="156.5" stroke="#B9E5EE"/>
<line x1="4.37114e-08" y1="178.5" x2="459" y2="178.5" stroke="#B9E5EE"/>
<line x1="4.37114e-08" y1="200.5" x2="459" y2="200.5" stroke="#B9E5EE"/>
<line x1="4.37114e-08" y1="222.5" x2="459" y2="222.5" stroke="#B9E5EE"/>
<line x1="4.37114e-08" y1="244.5" x2="459" y2="244.5" stroke="#B9E5EE"/>
<line x1="4.37114e-08" y1="266.5" x2="459" y2="266.5" stroke="#B9E5EE"/>
<line x1="4.37114e-08" y1="288.5" x2="459" y2="288.5" stroke="#B9E5EE"/>
<line x1="4.37114e-08" y1="310.5" x2="459" y2="310.5" stroke="#B9E5EE"/>
<line x1="4.37114e-08" y1="332.5" x2="459" y2="332.5" stroke="#B9E5EE"/>
<line x1="4.37114e-08" y1="354.5" x2="459" y2="354.5" stroke="#B9E5EE"/>
</svg>
