<svg xmlns="http://www.w3.org/2000/svg" xmlns:xlink="http://www.w3.org/1999/xlink" width="199" height="264" fill="none" xmlns:v="https://vecta.io/nano"><g clip-path="url(#F)"><path d="M174.795 234.915l-12.431 27.802s-19.896 4.794-41.107.129-43.741-18.785-43.741-18.785-14.044 10.753-23.756 14.384-15.541 5.261-15.541 5.261-12.812.695-16.193-5.514-11.032-23.188-11.032-23.188 3.845-10.707 11.032-17.9 19.003-12.021 19.003-12.021l-9.236-7.477s-8.049.395-10.216-2.682 10.868-3.348 10.868-3.348l11.428 6.513-21.579-21.904 2.134-3.738s5.794-1.542 11.939.891 12.643 8.841 12.643 8.841L36.5 168s5.187-3.006 11.7 1.816 14.39 17.992 14.39 17.992L77.5 213.5s22.245-4.416 36.335-3.752 20.407 7.333 20.407 7.333 7.493-7.644 23.624-.119 16.929 17.953 16.929 17.953z" fill="#deab8c"/><path d="M64.119 196.872l-5.061 10.245-16.238 2.509-11.512-11.769-9.73.144 1.712-24.303 20.932-6.196 17.076 17.978 2.822 11.392z" fill="url(#A)"/><path d="M100.328 155.512l11.464-26.917 11.166-4.288.112-26.379s5.033-.862 5.051-1.667.724-4.167 1.896-8.48 5.503-13.552 5.524-22.899-.14-23.406 4.103-27.67-22.505-10.323-22.505-10.323-24.657.003-33.57 7.316-12.724 12.121-18.187 17.511-3.668 4.05-3.668 4.05l.307 6.484 4.655 6.149 1.967 6.228 4.538 3.392s5.691 8.957 5.371 18.249.123 17.498.123 17.498l21.793 15.041-5.554 9.162.48 8.34 3.631 6.483" fill="#deab8c"/><path d="M37.549 263.926l4.232-2.431 12.114-8.427 13.543-8.428s9.264-14.093 2.486-12.762-16.183 16.193-29.595 18.087c-6.746.953-11.352 2.05-17.414-1.059-5.424-2.783-10.402-11.639-10.402-11.639l8.502 19.789L25.528 263l12.02.926z" fill="url(#B)"/><path d="M162.184 220.641l6.571 4.355-8.817 20.075-18.895 15.006s-22.926 1.25-25.064.598-9.333-5.416-9.333-5.416 12.52-.83 23.709-5.655 13.094-6.407 21.051-13.648 10.778-15.315 10.778-15.315z" fill="url(#C)"/><g fill="#a58371"><path d="M44.666 260.061l14.215-3.629 14.372-10.385 20.091-15.174-17.368 8.998-31.311 20.19z"/><path d="M90.634 249.965s-4.691-4.133-2.815-6.93c1.516-2.26 3.578-4.991 6.073-7.473 5.582-5.556 13.34-9.87 13.34-9.87l-3.509-.09-17.614 10.397-8.828 7.586 13.353 6.38zm75.705-27.418s-9.821 24.836-15.256 28.843-32.201 7.797-32.201 7.797l-7.706.473 15.451 3.7 35.777-.48 11.592-26.327 1.341-2.865-2.576-6.311-6.422-4.83zm-117.033 2.922s-4.968 2.616-9.458 2.767-8.502-2.164-8.502-2.164l3.248 4.801 6.273 1.005 8.44-6.409zm50.93-69.956s.935-12.775 3.544-21.204 10.259-17.204 10.603-22.691c.128-2.031 1.271-5.263-2.266-8.403s-11.881-4.157-11.881-4.157l22.842-.8-.328 26.291s-6.919 1.327-9.32 2.974-13.194 27.99-13.194 27.99zM83.568 34.166l14.708 1.862s7.99 4.614 11.085 5.786 4.861 0 7.794-.749 2.586 2.286 2.586 2.286c4.129-1.914 8.845 1.249 8.845 1.249l6.954 4.711.608-5.858 3.694-7.166s-11.74-11.313-28.183-9.398c-8.272.963-13.341 1.519-18.313 3.105-4.912 1.567-9.778 4.172-9.778 4.172z"/></g><path d="M79.175 54.055s-10.535-3.231-14.397-1.834-3.473 9.306-3.473 9.306 2.2 1.777 4.075 5.03c.144.25.799.678.939.943 1.677 3.178 2.486 7.038 2.486 7.038s5.821 4.786 7.243.088 3.128-20.571 3.128-20.571z" fill="url(#D)"/><path d="M132 77l-14-1.5-13.5 7 1.5 4.493L126 84l6-7z" fill="url(#E)" fill-opacity=".75"/><path d="M83.262 33.831l17.455-6.247 19.653-.916 14.947 5.57 5.114 4.026s7.593-9.307 8.557-14.947-4.703-7.611-4.703-7.611L131.319 9.16l-18.003 1.384-13.958 6.969-16.097 16.318z" fill="#885727"/><path d="M60.601 59.988c-1.116-.83-3.107-4.17-3.107-4.17s-2.962-6.58-2.373-12.414 4.727-10.922 4.727-10.922l7.612-18.127L83.568 3.939 99.338.898s20.916.255 26.448 1.766 7.996 7.157 7.996 7.157-11.762-3.984-24.252 1.844-25.705 21.47-25.705 21.47l-19.824 20.09s-1.131.585-1.981 2.276-.303 5.317-1.419 4.486z" fill="#f5e4db"/><path d="M10.607 235.208s.892-4.737 5.393-10.708c1.619-2.148 4.737-4.02 7-6.5 9-7.5 19.5-8.5 19.5-8.5s-.27-2.014-2-4.5c-1.5-1.5-5.776-6.405-9.598-7.461-3.36 0-9.326-.792-9.326-2.802s5.25-3.159 9.326-3.159 14.166 9.573 13.031 5.961S23 175.5 23 175.5l1.421-3.145s3.544-.928 10.558.986 13.814 8.288 13.814 8.288-11.823-11.271-11.742-13.222 10.262.987 10.262.987l14.39 17.065 15.034 27.271L105 210l12.155-.508L134 217.5s5.318-3.98 12-3 16.31 4.701 23.5 11 4.365 13.62 4.365 13.62 3.265-.173 8.083-15.476 11.302-41.777 14.512-54.04.047-28.428.047-28.428l-19.786-16.239s-28.754-6.365-37.078-9.343-16.318-13.451-16.318-13.451l-.574 20.088c-.159 4.783-9.435 3.645-11.786 8.157s-10.07 24.896-10.07 24.896.334-.574-3.529-5.063-1.983-14.066-1.983-14.066 4.683-3.198 4.856-8.322-20.915-13.484-20.915-13.484l-.728-18.087-8.567 8.86-1.515 7.16s-13.068 9.365-24.579 10.802S9 143 3.5 147l-.602 7.854 4.679 43.285-1.524 21.615 4.554 15.454z" fill="#5b8dbb"/><path d="M39.547 263.708l3.544-2.669s3.124 1.111 11.618-3.23 22.358-14.133 22.358-14.133l26.87 13.213 17.259 6.128-81.648.691z" fill="#4a6e92"/><path d="M14.164 200.073c.112.078.257.038.338-.074.375-.485 1.168-1.097 2-1.499.737-.356 2.5-1 2.5-1s4.823-.564 5.398-1.662c1.526-2.913-2.648-4.63-4.527-6.196l-.371-.142c-.5.002.037.432 0 .502 1.147 2.906 5.677 3.093 3.945 6.147-1.945 0-5.946.851-7.501 1.995-.945.356-1.316.827-1.829 1.588-.081.112-.066.263.047.341z" fill="#070d1c"/><g fill="#4a6e92"><path d="M193.032 180.482s-7.263 16.674-14.469 26.565S163 220.5 163 220.5s7.305 4.377 9.5 9c1.515 3.19 1.5 8 1.5 8l11.5-22.5 7.532-34.518zm-52.981-1.925s-5.85 10.876-11.759 17.402-5.644 8.437-11.876 8.702-8.349-2.41-13.052-7.643-5.385-13.002-5.385-13.002l-9.014 12.777s-2.874 6.721-8.769 6.248-14.813-8.14-14.813-8.14l11.406 18.462L93 211.5l20.5-2 6.404.508 12.974 6.647-.364-5.718 2.834-5.806-1.114-7.593 5.817-18.981zM3.439 156.045l1.267 12.61s5.094.039 12.358 6.863S31.5 191.5 31.5 191.5s13.346 9.827 11.5 5.5c-3-4-21-19.5-21-19.5L3.439 156.045zm3.053 55.326s.713 6.651 3.751 9.052S20.5 221 20.5 221s-8.335 7.524-9.507 12.725-3.65-5.351-3.65-5.351l-.85-17.003zM78.837 97.065l.036 17.207s-8.523-3.266-8.532-7.568 8.497-9.639 8.497-9.639zM97 134.5s-1.772 6.179-1.5 8.5c.34 2.894 4 9.5 4 9.5l-6.753-6.755-.001-5.743L97 134.5zm3.668 21.725s3.404-7.739 8.694-12.683 6.959-1.916 12.468-7.091 7.218-6.57 10.061-12.595 1.307-11.51 1.307-11.51l-9.927-10.803-.224 21.788c-.025 2.669-9.473 2.517-11.823 6.282s-10.556 26.612-10.556 26.612z"/></g><g fill="#a58371"><path d="M89.25 196.245s8.435-11.729 8.729-13.43-2.339-12.02-2.339-12.02l-4.382 10.698-2.293 12.706.285 2.046zM125.5 69.502s1.543-1 2.5-2.5c0 0 .292-.503 0-1.501-.365-1.251-2.5.501-4 1.501-.931.62-2 1-2 1-.371 0-1.924.574-.999 1.501 1.249 1.252 4.499 0 4.499 0z"/></g><g fill="#fff"><path d="M90.496 45.338l4.815 3.387s8.329 1.104 10.893-1.129.925-4.827.925-4.827l-6.956-1.821-9.677 4.391zm29.867-2.771l-.907 1.408-.247 2.22 3.543 1.399 3.555.367 3.247-6.612-6.207-.525-2.984 1.743z"/></g><path d="M120.389 42.777s2.173-.778 3.39-.482 2.589 1.109 2.589 1.109l2.253-2.315s-2.784-.891-4.842-.469-3.39 2.157-3.39 2.157z" fill="#948986"/><g fill="#070d1c"><path d="M71.833 76.564c-.193.181-.217.505-.035.699 1.211 1.333 2.095 2.925 2.864 4.541 1.173 2.463 1.936 4.972 2.446 7.651 1.514 7.962 1.1 16.157.942 24.211a1.12 1.12 0 0 0 1.118 1.118c.618.002 1.117-.5 1.118-1.118-.117-8.552.076-17.287-2.026-25.643-.673-2.679-1.698-5.201-3.04-7.617-.76-1.368-1.631-2.681-2.725-3.808-.182-.193-.471-.217-.664-.035z"/><path d="M78.015 96.023c-.285.015-.562.12-.768.349-1.783 2.017-3.959 3.659-5.764 5.66-.803.889-1.742 1.924-2.061 3.109-.346 1.28.335 2.719 1.013 3.773 1.561 2.429 4.107 4.046 6.533 5.486 4.606 2.733 9.604 4.71 14.394 7.092 2.562 1.274 5.62 2.735 7.371 5.101 1.714 2.313.078 4.01-1.362 5.939-1.573 2.106-3.31 4.147-4.577 6.464-.526.964-1.038 2.031-1.118 3.144-.211 2.925 1.692 5.557 3.703 7.441 1.992 1.865 4.539 3.329 3.844 6.428-.06.26.091.5.349.559s.534-.09.594-.349c.713-2.979-1.006-4.646-3.074-6.533-2.052-1.873-4.475-4.369-4.192-7.441.127-1.392.993-2.715 1.746-3.844 1.43-2.143 3.149-4.115 4.682-6.183 1.614-2.179 2.369-4.062.628-6.499-1.86-2.604-5.088-4.262-7.861-5.694-4.71-2.434-9.627-4.488-14.149-7.267-2.131-1.31-4.443-2.747-5.8-4.927-.247-.396-.864-1.548-.768-2.026.211-1.052 1.318-2.032 2.026-2.76 1.753-1.801 3.79-3.316 5.485-5.171.414-.458.39-1.159-.069-1.572-.229-.207-.518-.294-.804-.279z"/><path d="M126.332 120.619c-2.114 1.79-4.429 3.536-7.057 4.472-1.518.54-3.112.815-4.682 1.152-.888.192-1.814.401-2.515 1.014-1.139.994-1.882 2.391-2.585 3.703-1.127 2.103-2.071 4.291-2.971 6.498-2.466 6.051-4.503 12.287-7.127 18.272-.21.473-.018 1.013.454 1.223s1.048.018 1.259-.454c1.176-2.601 2.069-5.319 3.039-8 1.433-3.964 2.865-7.925 4.507-11.809 1.075-2.543 2.312-5.984 4.262-8.071.676-.724 1.768-.824 2.69-1.013 1.704-.35 3.459-.637 5.101-1.223 2.559-.912 4.23-3.505 5.73-5.659.029-.033.032-.076 0-.105s-.076-.033-.105 0z"/><path d="M125.563 102.592c-.333-.281-.837-.229-1.118.105a.8.8 0 0 0 .105 1.118c.319.777 1.002 1.242 1.538 1.886.702.843 1.281 1.959 1.607 3.005 1.741 5.591-1.024 13.913-6.499 16.49-.012.006-.005.023 0 .035s.024.006.036 0c6.408-2.628 9.32-10.423 7.895-16.909-.414-1.886-1.15-3.73-2.515-5.136-.14-.145-.244-.321-.419-.42-.185-.104-.424-.119-.63-.174z"/><path d="M128.15 117.545c-.075-.019-.156.03-.174.105-2.492 9.163-9.067 19.91-19.81 19.529-.418-.021-.781.281-.804.7a.78.78 0 0 0 .735.803c7.66.531 13.041-4.785 16.525-11.075 1.282-2.317 2.382-4.844 3.074-7.407.221-.82.372-1.651.559-2.48.018-.075-.03-.156-.105-.175zm-58.238-12.3c-.255-.071-.522.094-.594.349-.757 2.532-.736 5.234-1.642 7.722-.16.438-.36.907-.629 1.292-.466.669-1.05 1.124-.908 2.027.335 2.139 2.981 4.164 4.577 5.415 2.86 2.243 6.009 3.99 9.084 5.904 1.677 1.044 3.248 2.21 4.856 3.354.51.348 1.223.23 1.572-.28s.23-1.223-.279-1.572c-1.686-1.108-3.384-2.246-5.136-3.249-3.089-1.769-6.228-3.35-9.118-5.45-1.297-.942-3.831-2.692-4.192-4.367-.036-.167.045-.295.14-.419.163-.212.346-.402.49-.629.322-.508.513-1.038.698-1.607.831-2.552.724-5.306 1.398-7.896.072-.255-.058-.522-.314-.594zm53.101-6.254a1.12 1.12 0 0 0-1.153 1.083c.002 7.814-.135 15.699.734 23.478.022.264.259.476.524.453s.442-.259.419-.524c-.443-7.765.14-15.583.559-23.337a1.12 1.12 0 0 0-1.083-1.153zm-79.27 23.447c-1.996-.291-3.853.588-5.625 1.397l-3.948 1.922-16.246 8.734c-5.12 2.716-8.923 6.009-13.111 9.599-.664.326-.921 1.118-.594 1.781s1.118.955 1.782.629c4.001-3.5 7.944-7.087 13.041-9.913l17.259-9.677c2.083-1.114 5.233-3.107 7.686-2.551 3.813.865 7.396 5.116 9.747 7.931 2.092 2.505 4.016 5.121 5.939 7.756 2.622 3.591 5.128 7.393 8.245 10.586.22.229.573.22.804 0s.255-.575.035-.804c-3.464-3.681-6.171-8.088-9.084-12.193-1.893-2.667-3.815-5.335-5.939-7.825-2.467-2.894-6.005-6.792-9.992-7.372z"/><path d="M68.024 111.43c-3.915 3.076-8.442 5.317-13.032 7.198-3.767 1.543-7.682 2.873-11.739 3.354-.611.087-1.031.646-.943 1.257a1.11 1.11 0 0 0 1.258.944c4.21-.7 8.231-2.227 12.088-4.018 4.603-2.139 9.139-4.637 12.996-7.966a.51.51 0 0 0 .071-.698.51.51 0 0 0-.699-.071zM4.5 145c-.284.038-.546.21-.734.454-4.26 5.715.735 13.546.735 13.546l2.5 3.5 11.334 11.199c.19.185.979.991 1.164.801s-.31-1.314-.5-1.5c-6.532-6.495-10.439-12.693-10.439-12.693s-1.606-2.138-2.341-3.248c-2.368-3.579-3.804-6.254-.672-10.242.375-.491.281-1.197-.21-1.572A1.16 1.16 0 0 0 4.5 145z"/><path d="M3.215 155.033a.47.47 0 0 0-.419.524c1.502 14.129 4.006 28.267 3.843 42.518-.149 12.998-3.822 27.237 3.389 39.06.326.524 1.048.709 1.572.383a1.11 1.11 0 0 0 .349-1.536c-7.068-11.171-3.618-25.475-3.668-37.907-.058-14.313-2.778-28.457-4.507-42.623-.03-.264-.295-.45-.559-.419z"/><path d="M38.434 210.004c-2.784.331-6.659 1.208-8.986 2.536-3.749 2.14-7.139 4.786-10.235 7.609-1.017.928-1.974 1.831-2.919 2.815-1.332 1.387-2.154 2.52-3.291 4.036-2.081 2.773-3.186 6.677-2.987 10.1.041.545.576.933 1.196.898s1.097-.507 1.055-1.052c-.341-3.503.839-7.394 2.972-10.146 1.154-1.49 2.434-2.929 3.763-4.3 3.456-3.565 7.381-6.915 11.853-9.496 1.952-1.126 5.392-1.828 7.72-2.164.264-.035.461-.232.422-.464s-.298-.406-.563-.372z"/><path d="M11.74 234.549c-.257.067-.416.337-.349.594.896 3.664 2.248 7.227 3.633 10.725 1.382 3.489 2.907 6.962 4.682 10.272 1.037 1.935 2.162 3.859 3.564 5.555.617.747 1.363 1.447 2.236 1.886 1.774.894 3.75.943 5.695.909.931-.017 2.345-.093 3.284.07.538.092 1.047.272 1.572.419a1.12 1.12 0 0 0 1.363-.804 1.12 1.12 0 0 0-.804-1.362c-1.209-.29-2.46-.493-3.703-.489-2.195.005-4.489.497-6.568-.454-1.277-.585-2.266-2.025-3.039-3.111-1.079-1.511-2.014-3.12-2.9-4.751-2.016-3.711-3.762-7.579-5.345-11.494-1.012-2.501-2.005-5.013-2.725-7.616a.49.49 0 0 0-.594-.349z"/><path d="M110.229 222.844c-11.434 3.652-22.165 9.229-32.561 15.162-13.67 7.801-26.823 16.499-40.073 24.98-.518.336-.651 1.019-.314 1.537s1.02.651 1.537.314c13.095-8.668 26.094-17.543 39.618-25.539 10.233-6.049 20.774-11.745 32.072-15.547.252-.082.397-.342.315-.593a.47.47 0 0 0-.594-.314z"/><path d="M104.987 225.01c-11.78 3.887-21.54 12.195-31.129 19.739-6.658 5.239-13.642 10.38-21.73 13.171-2.889.999-5.809 1.581-8.839 1.922-.613.075-1.053.645-.978 1.258s.645 1.053 1.258.978c2.549-.333 5.019-.8 7.476-1.572 8.988-2.82 16.622-8.62 23.827-14.499 9.344-7.623 18.853-16.043 30.431-20.088.25-.086.399-.343.314-.594a.51.51 0 0 0-.63-.315z"/><path d="M77.911 243.701c-.239-.115-.549-.03-.664.209s.006.549.244.664c12.274 6.024 24.192 13.348 37.452 17.05 6.911 1.929 14.129 2.63 21.277 2.934 8.552.364 17.104.066 25.644-.454.616-.042 1.09-.572 1.048-1.188s-.572-1.055-1.188-1.013c-9.136.689-18.298 1.116-27.46.733-6.348-.265-12.743-.891-18.9-2.515-13.222-3.486-25.178-10.615-37.453-16.42zm57.994-28.3c-.59-.18-1.218.143-1.398.735-.535 1.882-1.219 3.716-2.27 5.38-.504.799-1.08 1.564-1.746 2.235-1.473 1.483-3.358 2.523-5.451 2.761-1.043.118-2.07-.033-3.11-.14l-4.262-.454c-4.168-.457-8.305-.995-12.507-.838-.265.004-.495.223-.489.488s.224.494.489.489c4.82-.009 9.601.891 14.359 1.573 2.362.337 4.755.852 7.127.314 3.352-.76 5.996-3.177 7.756-6.044.983-1.601 1.66-3.32 2.236-5.101.18-.591-.143-1.218-.734-1.398z"/><path d="M174.127 235.317c-.213-.074-.473-.024-.594.209-.107.195-.014.412.14.559-.086-.099-.151-.229-.21-.349-.023-.049.06-.223.036-.176-1.37 2.572-2.668 5.462-3.634 8.247-2.132 6.143-4.834 12.014-7.825 17.782-.273.555-.066 1.23.488 1.503s1.23.029 1.503-.525c2.767-5.972 5.249-12.028 7.127-18.342.617-2.075 1.475-4.082 2.305-6.079.296-.712.683-1.422.909-2.165.02-.037-.103.104-.105.104-.171.042-.365.179-.524.105.226.102.507.012.629-.209.01-.036.025-.071.035-.105.081-.291-.066-.487-.28-.559zm-38.956-41.643a1.08 1.08 0 0 0-.628.559c-.503 1.105-.784 2.165-.769 3.388.024 2.023.769 3.98.629 6.01-.078 1.126-.336 2.306-.769 3.353-.514 1.249-1.234 2.411-1.537 3.739-.491 2.157.007 4.403.559 6.498.061.258.335.41.595.35s.409-.301.348-.559c-.395-1.927-.764-4.043-.21-5.975.355-1.232 1.095-2.311 1.643-3.459.563-1.179.923-2.478 1.083-3.773.354-2.877-1.02-5.869.419-8.559.272-.555.066-1.231-.488-1.503-.279-.135-.604-.162-.875-.069zm6.326 44.787l-.594.489-.628.489c-.541.378-.756.448-1.363.699l-.733.279-.734.385.839.105.838-.14c.541-.137 1.056-.346 1.572-.559l.768-.35s.007-.004.699-.454a.58.58 0 0 0 .14-.804c-.181-.258-.804-.139-.804-.139zM53.7 224.278c-1.516.208-2.969.423-4.367 1.083-1.097.517-2.096 1.298-3.109 1.957l-2.096 1.292c-2.446 1.473-6.616 3.591-9.328 1.537-1.78-1.348-2.587-3.362-3.773-5.171-.024-.062-.112-.093-.175-.07s-.094.078-.07.14c.231 1.484.81 2.714 1.537 4.018.448.804.948 1.487 1.642 2.096 4.353 3.824 9.181-.155 13.066-2.515 1.342-.815 2.744-1.54 4.053-2.411.875-.582 1.821-1.064 2.76-1.537.114-.036.175-.167.14-.28s-.166-.175-.279-.139z"/><path d="M173.602 148.116c-3.235 1.736-6.509 3.341-9.886 4.786-5.316 2.271-10.91 4.46-15.128 8.559-3.806 3.698-5.789 8.68-7.616 13.555-2.27 6.054-4.007 12.278-6.534 18.238a1.25 1.25 0 0 0 .629 1.642c.626.276 1.366-.003 1.642-.629 2.334-5.084 4.065-10.396 5.765-15.722 1.895-5.938 3.904-12.041 8.315-16.629 3.372-3.509 7.83-5.545 12.158-7.582 3.759-1.769 7.469-3.483 10.865-5.904.088-.054.125-.158.07-.245s-.192-.124-.28-.069z"/><path d="M161.201 163.591c-5.476 2.579-10.168 6.58-14.325 10.935-4.183 4.382-7.948 9.267-10.446 14.813a1.12 1.12 0 0 0 .593 1.467 1.12 1.12 0 0 0 1.468-.594c2.412-5.914 6.292-11.138 10.621-15.791 3.64-3.912 7.736-7.5 12.507-9.957.239-.118.327-.426.21-.664a.46.46 0 0 0-.628-.209zm33.504-24.665c-.284.029-.539.145-.734.384-2.208 3.031-5.587 6.189-9.537 6.498-.266.007-.462.259-.455.524s.224.461.489.454c4.396.101 8.424-2.941 11.215-6.044.39-.478.34-1.182-.14-1.571-.239-.195-.553-.274-.838-.245z"/><path d="M195.156 138.4c-.284.028-.572.147-.768.385-.392.477-.302 1.18.175 1.572 1.681 1.327 1.963 3.859 2.166 5.834.312 3.042.251 6.198.209 9.258-.19 14.09-5.728 27.415-7.686 41.26-.04.263.122.52.385.559s.519-.156.559-.418c1.78-10.882 5.621-21.266 7.581-32.107.667-3.688.987-7.401 1.048-11.145.056-3.475.331-7.028-.419-10.447-.383-1.747-1.062-3.334-2.446-4.506-.238-.196-.519-.273-.804-.245zm-6.112 59.324a.47.47 0 0 0-.524.42c-.509 3.683-1.568 7.317-2.655 10.864a172.27 172.27 0 0 1-4.962 13.975c-1.241 3.079-2.55 6.123-4.052 9.085-1.093 2.154-2.267 4.286-3.774 6.183-.375.489-.279 1.195.21 1.572s1.195.279 1.572-.209c1.911-2.559 3.285-5.445 4.577-8.35a134.97 134.97 0 0 0 3.844-9.679c1.646-4.636 3.077-9.356 4.331-14.113.797-3.021 1.515-6.08 1.852-9.189.033-.264-.156-.526-.419-.559zm-14.986-71.968c-.066-.039-.136-.03-.175.034-1.45 2.329-3.101 4.373-5.135 6.22-1.52 1.376-3.201 2.522-4.822 3.772-1.939 1.496-3.806 3.108-5.52 4.856-2.588 2.64-4.471 6.088-6.219 9.294-1.773 3.252-3.465 6.569-4.612 10.097a.64.64 0 0 0 .315.838.64.64 0 0 0 .838-.314c1.59-2.616 2.744-5.415 4.123-8.14 1.914-3.783 4.048-7.409 6.743-10.691 4.534-5.524 10.951-9.486 14.533-15.792.04-.065-.004-.136-.069-.174z"/><path d="M128.744 107.415c-.027.019-.019.077 0 .104 2.393 4.611 7.995 7.657 12.648 9.537 10.492 4.243 21.958 4.628 32.735 7.862 3.588 1.077 6.632 3.632 9.434 6.009 3.616 3.07 7.089 6.378 10.829 9.293a.85.85 0 0 0 1.223-.104c.318-.376.305-.94-.07-1.259-4.33-4.007-8.572-8.304-13.416-11.703-2.312-1.623-4.759-3.143-7.476-3.983-3.783-1.171-7.734-1.707-11.634-2.34-5.778-.938-11.568-1.843-17.224-3.39-3.646-.997-7.318-2.186-10.55-4.192-2.512-1.56-4.429-3.666-6.429-5.799-.019-.027-.043-.055-.07-.035zm-26.727 44.926a.46.46 0 0 0-.593.279c-3.642 7.647-6.553 15.624-9.015 23.723-1.628 5.357-3.103 10.769-3.703 16.35-.385 3.577-.38 7.158.105 10.725.251 1.858.578 3.759 1.467 5.415.019.062.078.09.14.071s.089-.078.07-.14c-.199-1.828-.707-3.579-.909-5.415-.385-3.483-.121-7.06.385-10.516.854-5.85 2.394-11.655 4.367-17.224 2.671-7.541 6.006-14.9 7.966-22.674a.46.46 0 0 0-.28-.594zm32.036 110.296c-15.015-.42-30.014.36-45.033.455-8.994.056-18.013-.127-27.006-.141a600.73 600.73 0 0 0-25.714.489c-.265.009-.463.224-.454.49s.224.463.489.454c8.556-.241 17.121-.265 25.679-.14l27.006.489c14.992.102 29.981-.475 44.964.14a1.12 1.12 0 0 0 1.152-1.084 1.12 1.12 0 0 0-1.083-1.152z"/><path d="M88.112 249.499c-.264.019-.473.225-.454.49.118 4.443-2.054 9.188-4.262 12.926-.29.546-.057 1.249.489 1.537s1.213.057 1.502-.488c1.98-4.17 3.794-9.354 3.249-14.045-.019-.265-.259-.439-.524-.42zm-49.343-39.395c-.592.174-.943.805-.769 1.397.985 3.24 1.006 4.41 4.799 5.299 2.416.566 5.118-.117 7.511-.489 3.568-.556 7.154-1.019 10.761-1.188 4.527-.213 9.065-.89 13.592-1.123 3.627-.187 7.224-.688 10.831-1.083l9.363-.979c3.292-.354 6.607-.759 9.888-1.222 1.93-.273 4.255-.623 6.441-.623.256-.07.384-.337.314-.593s-.338-.386-.594-.314c-2.261 0-5.282.382-7.595.657-2.848.338-5.703.613-8.559.873l-11.111 1.013c-3.218.313-6.407.647-9.641.733-5.115.137-10.228.586-15.34.949-3.877.275-7.707.918-11.564 1.363-1.516.174-3.561.502-4.891-.49-1.809-1.348-1.437-1.309-2.039-3.411-.175-.593-.805-.944-1.398-.769zm76.665-1.165c-1.194-.019-2.409.134-3.528.594-.248.095-.339.381-.245.629s.346.374.594.28c2.37-.823 5.001-.195 7.303.559 4.474 1.464 8.647 3.853 12.611 6.358.532.315 1.222.147 1.538-.384s.146-1.223-.385-1.538c-4.511-2.499-9.299-4.903-14.359-6.044-1.153-.259-2.335-.435-3.529-.454z"/><path d="M62.294 187.07c-.581.209-.873.851-.664 1.432 1.195 3.1 2.546 6.089 4.192 8.979 3.227 5.662 7.185 10.857 10.935 16.176a.48.48 0 0 0 .664.139c.22-.148.288-.444.14-.664-3.486-5.431-7.18-10.774-10.132-16.525-1.472-2.869-2.676-5.82-3.703-8.874-.209-.58-.852-.873-1.432-.663z"/><path d="M47.901 170.053a.47.47 0 0 0-.105.663c4.023 5.869 8.736 11.182 13.416 16.526a1.11 1.11 0 1 0 1.642-1.502c-4.954-5.015-9.919-10.009-14.254-15.583-.157-.213-.484-.26-.699-.104zm-8.561-2.619c-.41-.026-.816.013-1.223.071l-.384.069c-.122.028-.474.085-.349.105l1.153.209s1.116-.015 1.642.071c1.459.237 2.973.828 4.332 1.397l.769.349.734.28s.012-.009.664.21c.323.103.666-.096.769-.42s-.419-.769-.419-.769l-.629-.174-.734-.245-1.747-.385c-1.514-.386-3.015-.666-4.577-.768zm-7.021-5.797c-.153.102-.172.301-.07.454.431.695.758 1.449 1.153 2.165.452.821.793 1.163 1.328 1.922l1.922 2.726 3.005 3.982c2.943 3.277 6.485 5.952 9.433 9.223.071.08.2.071.279 0s.071-.2 0-.279c-3.096-3.532-6.622-6.675-9.643-10.272-1.806-2.151-3.263-4.546-4.751-6.917-.652-1.039-1.488-1.903-2.201-2.9-.102-.153-.301-.207-.454-.104z"/><path d="M25.087 171.557c-.329.038-.561.335-.524.664s.335.597.664.559c1.822-.174 3.591-.285 5.415-.069 5.159.609 10.299 3.065 14.464 6.113 1.496 1.095 2.822 2.326 4.227 3.529.022.023.082.022.105 0s.022-.047 0-.07c-1.414-1.762-3.115-3.257-4.891-4.646-5.404-4.226-12.537-6.986-19.46-6.08z"/><path d="M24.074 171.976l-.279.069s-.193.107-.279.175c-.168.131-.31.345-.419.524-.236.384-.51.845-.594 1.292-.039.209-.029.494.035.699.034.111.175.315.175.315s-.006.004.175.244c.021.07.104.092.175.07s.07-.139.07-.139l.035-.245.244-.419c.264-.472.874-1.223.874-1.223l.279-.385s-.012-.002.105-.209a.51.51 0 0 0 .105-.699c-.162-.215-.699-.069-.699-.069zm.139 2.865a.68.68 0 0 0-.838.49c-.096.371.118.777.489.873l7.861 1.956c.474.136.944.226 1.397.419.432.185.812.47 1.223.699 1.867 1.039 3.607 2.236 5.31 3.529l3.633 2.829c.083.067.213.048.279-.035s.048-.213-.035-.279c-.986-.677-1.868-1.514-2.795-2.271l-4.856-3.598c-.849-.54-1.632-.86-2.55-1.293l-1.363-.699c-2.477-1.167-5.104-1.975-7.756-2.62zm5.275 16.316c-1.099.138-2.195.418-3.144.699l-4.402 1.292c-.168.038-.247.216-.21.385s.181.247.349.209l7.057-1.503c1.118-.206 2.437-.461 3.494.106 1.112.597 2.117 1.456 3.179 2.13l5.415 3.145c.424.215 2.108 1.315 2.655.944 1.302-.884-.774-2.953-1.432-3.704-.063-.085-.159-.098-.245-.035s-.133.195-.07.28c.418.663.906 1.249 1.258 1.956.113.227.237.472.21.734-.003.032-.029.044-.07.07-.262-.254-1.075-.582-1.362-.769l-2.69-1.712-4.647-2.934c-.698-.384-1.401-.834-2.166-1.084-.983-.319-2.08-.347-3.179-.209zm-7.056 3.877l-.978-.489c-.104-.04-.016.205 0 .315.218 1.472 1.919 2.113 3.11 2.515a6.53 6.53 0 0 0 1.118.28 7.99 7.99 0 0 0 .559.035s.017-.003.559-.035c.176.02.33-.103.349-.28s-.28-.349-.28-.349l-.524-.14-.489-.139-1.048-.21c-.782-.186-1.542-.676-2.131-1.224-.093-.086-.166-.185-.244-.279z"/><path d="M28.896 196.989l-.769.07s.026.007-.699.209c-.049.008-.077.056-.07.105s.07.071.07.071h.734l.734.056 1.432.118.699.14s-.009-.005.699.174c.225.038.451-.088.489-.314s-.349-.488-.349-.488l-.734-.071-.734-.07c-.511-.034-.991-.03-1.502 0z"/><path d="M32.319 197.865c-.068.061-.062.175 0 .243l2.725 2.516 2.76 2.236 1.362 1.363s.027-.013 1.188 1.293c.246.292.686.35.978.104s.316-.685.07-.978L37 201.253 34.5 199l-1-.5-.448-.216-.245-.21s-.016.018-.245-.175c-.062-.068-.176-.097-.245-.034z"/><path d="M40.878 204.92c-.093.005-.179.082-.175.174-.494.906-.026 2.128.175 3.075.451 2.126 1.436 4.419 3.039 5.905.978.906 1.565 1.251 2.9.944.038.013.09-.033.105-.071s.003-.056-.035-.07c-.969-1.514-2.361-2.635-3.319-4.193-.648-1.052-1.165-2.213-1.642-3.354-.32-.762-.377-1.595-.873-2.27-.004-.093-.082-.143-.175-.14z"/><path d="M37.502 210.5l4-1.5 1.449 1.7 3.905 5.254-6.405-1.022-2.949-4.432zm56.354-79.071c3.619-.401.143-9.173-3.538-6.308-4.965 3.861 2.84 9.861 4.631 4.488"/><path d="M91.954 124.285c-.695-.068-1.44.155-2.201.769-2.318 1.873-1.645 5.455.978 6.708 1.042.498 2.182.455 3.145-.139.134-.084.293-.065.419-.175l.035-.036c.068-.03.087-.023.174-.069.178-.093.354-.197.49-.35.389-.443.54-.951.559-1.537.072-2.192-1.514-4.966-3.599-5.171zm.279.559c1.581.242 2.79 2.63 2.969 4.158.022.192-.095.363-.105.559-.018-.06-.006-.116-.069-.14-.11-.04-.239-.004-.279.105-.463.852-.15.699-.454.873-.182.104.207-.396.279-.593.003-.009-.31.482-.315.488-.136.177-.313.353-.489.49-.661.515-1.432.668-2.236.385-1.767-.624-3.167-2.838-2.027-4.577.275-.42.67-.829 1.049-1.154.588-.502 1.15-.674 1.677-.594zm2.655 5.695c-.048.099-.004.224-.07.314s-.163.112-.244.175c.11-.162.236-.314.314-.489zm-.384.105c.114-.207-.149.284-.314.629-.046.02-.092.047-.105.034l.419-.663zm-.858 29.398c-.885-3.985-9.324 5.835-1.129 6.943 3 .404 5.833-6.64-.034-7.707"/><path d="M92.061 159.014c-1.127.394-2.006 1.484-2.586 2.48-1.454 2.501-.717 4.797 2.027 5.626.587.176 1.242.315 1.851.174 2.352-.544 3.604-3.997 2.726-6.08-.402-.95-1.23-1.482-2.201-1.746-.149-.04-.307-.09-.455-.105l-.209-.279c-.33-.283-.769-.204-1.153-.07zm.594.42c.083.13.151.339.314.279.144-.054.321.138.49.209-.027.005.008-.001 0 .175.028.102.142.168.244.14.075-.021.093-.104.105-.175.495.374.974.898 1.154 1.188a3.37 3.37 0 0 1 .523 1.921c-.064 1.444-1.235 3.607-2.935 3.459-1.617-.14-3.443-.917-3.354-2.83.026-.543.199-1.081.419-1.572.503-1.121 1.323-2.164 2.41-2.76.161-.088.405-.013.629-.034zm.489.174a5.73 5.73 0 0 0 .279.105c.018.032.029.048.036.069-.021-.019-.107-.101-.315-.174zm-9.333 36.164c-1.59.009-3.556.358-3.614 3.625s1.764 3.734 3.44 3.634 3.247-1.38 3.305-3.808-1.541-3.462-3.13-3.451zM77.42 77.159c-.481.143-.737.637-.594 1.118.685 2.712 1.716 5.318 2.795 7.896.491 1.175 1.141 2.892 1.957 3.877.786.95 2.111 1.635 3.144 2.236l4.856 2.69 7.546 3.495c1.317.527 2.709 1.064 4.122 1.257 1.301.179 2.71.019 4.018 0l6.918-.209c4.012-.22 8.075-.425 12.018-1.258 1.25-.264 3.139-.67 3.948-1.782.288-.397.235-.793.314-1.258a16.06 16.06 0 0 1 .524-2.096c.04-.098-.007-.205-.105-.244s-.205.006-.245.104c-.336.682-.642 1.376-.768 2.132-.077.463-.001.812-.35 1.153-1.102 1.08-3.652 1.3-5.1 1.501-3.872.54-7.802.594-11.704.595h-6.673c-.84-.007-1.75.096-2.585-.036-1.633-.257-3.217-1.019-4.717-1.677-2.538-1.111-4.997-2.399-7.441-3.703-1.517-.809-3.025-1.655-4.472-2.585-.548-.353-1.585-.819-1.956-1.433-.655-1.083-1.027-2.292-1.502-3.459-1.033-2.536-1.901-5.133-2.795-7.721-.143-.481-.672-.737-1.153-.594zm62.715-40.526c-.299-.273-.74-.228-1.013.07-4.206 3.104-4.372 8.783-4.543 13.52-.215 5.988 1.236 11.822.245 17.818-.334 2.019-.819 4.012-1.257 6.009-.355 1.616-.63 3.229-1.084 4.821-.391 1.375-.882 2.752-1.292 4.123-.89 2.968-2.285 5.954-2.516 9.084-.013.078.062.161.14.174s.126-.062.14-.14a76.51 76.51 0 0 1 2.515-7.477c.716-1.815 1.498-3.598 2.026-5.485.56-2.001.89-4.077 1.292-6.114.561-2.825 1.183-5.647 1.398-8.525.186-2.475-.053-4.967-.069-7.442-.018-2.638-.058-5.3.174-7.931.243-2.738.944-5.645 2.027-8.175.497-1.163 1.215-2.197 1.851-3.284a.75.75 0 0 0-.034-1.048z"/><path d="M112.986 25.976c-4.051.084-8.12.625-12.088 1.467-4.537.963-9.043 2.351-13.276 4.262-1.699.767-3.273 1.699-4.891 2.62-.092.054-.124.153-.069.245s.153.124.244.07c6.228-3.88 13.625-5.54 20.823-6.359 5.286-.601 10.605-.627 15.896-.035 4.113.46 8.134 1.288 11.913 3.04 2.746 1.272 5.109 3.055 7.407 4.996a1.01 1.01 0 1 0 1.397-1.467c-4.034-4.239-9.741-6.241-15.301-7.581-3.971-.957-8.003-1.342-12.054-1.258z"/><path d="M120.884 7.985c-1.609.019-3.231.166-4.751.524-4.178.983-8.431 3.064-12.089 5.275-5.028 3.041-9.568 6.94-13.695 11.11-1.594 1.612-3.095 3.343-4.646 4.996l-6.428 7.057c-2.964 3.395-2.729 3.605-5.93 6.779-1.285 1.274-2.683 2.39-3.844 3.774-.076.067-.102.203-.035.279s.203.067.279 0c1.911-1.218 3.464-2.878 5.135-4.402 3.03-2.76 2.507-2.597 5.337-5.556l6.498-6.952c7.43-7.653 15.567-14.89 25.644-18.796 1.521-.59 3.102-1.182 4.717-1.467 2.204-.39 4.482-.358 6.707-.245 2.406.123 4.781.36 7.162.734 3.063.481 6.09 1.092 9.049 2.026 2.453.774 5.095 1.791 6.987 3.598.7.669 1.349 1.475 1.398 2.48.095 1.942-1.098 3.936-2.027 5.555-1.36 2.373-3.07 4.513-4.646 6.743-.883 1.249-1.763 2.453-2.481 3.808-.454.685-.301 1.607.385 2.061a1.53 1.53 0 0 0 2.096-.419c2.13-2.582 4.007-5.401 5.764-8.245.671-1.085 1.324-2.172 1.887-3.319.965-1.965 1.911-4.188 1.641-6.428-.494-4.126-5.195-6.216-8.593-7.477-5.356-1.986-11.092-2.921-16.77-3.319-1.545-.108-3.142-.193-4.752-.175zM75.99 64.721c-.085-.004-.171.055-.176.14-.197.448-.23.914-.418 1.363-.412.981-.998 1.97-1.118 3.039-.182 1.618.712 2.963 1.187 4.437l1.712 5.834a1.07 1.07 0 0 0 1.432.559c.562-.246.841-.871.595-1.432-1.138-2.208-2.44-4.318-3.145-6.708l-.419-1.363c-.047-.125-.139-.251-.14-.384-.004-1.721 1.134-3.666.629-5.31.003-.084-.056-.171-.14-.175z"/><path d="M77.805 76.807c-.264 0-.454.226-.454.49l-.385.454c0 .476.362.874.838.874s.873-.398.873-.874l-.385-.454a.5.5 0 0 0-.489-.49zm-9.116-25.748c-2.552-.385-5.191.44-6.848 2.97-.665 1.015-.996 2.269-1.153 3.459-.283 2.144.203 4.014 1.432 5.8 1.441 2.093 3.612 3.619 4.681 5.974.901 1.983.382 4.436 2.026 6.079 1.518 1.516 6.262 3.314 7.198.174.016-.024.023-.054 0-.069s-.055.011-.069.035c-.567.454-1.086.891-1.818 1.048-1.762.38-4.09-.521-5.066-2.026-.92-1.42-.753-3.365-1.258-4.926-1.227-3.799-5.482-5.735-5.799-9.887-.249-3.256 1.718-7.462 5.485-7.232 2.651.162 4.715 1.831 6.358 3.773.24.339.71.414 1.049.175s.45-.709.21-1.048c-1.384-2.326-3.877-3.912-6.428-4.297zM100.69.471C91.319.7 81.921 2.287 73.999 7.563c-2.728 1.817-5.096 3.854-7.197 6.359-.469.558-1.04 1.041-1.398 1.677-.907 1.615-1.454 3.556-2.131 5.275l-3.633 9.258-1.398 3.564c-.143.345-.495 1.266-.594 1.398-1.404 1.854-2.667 3.937-3.109 6.254-.263 1.378.002 2.857.105 4.227.162 2.169.554 4.372 1.013 6.498.646 2.991 1.698 6.657 4.682 8.07.093.066.213.058.279-.035s.058-.213-.035-.28c-1.851-1.932-2.929-4.482-3.633-7.022-.593-2.14-.879-4.324-1.013-6.533-.097-1.6-.321-3.298.035-4.891.316-1.415.986-2.745 1.782-3.948.361-.546.862-1.009 1.188-1.572.489-.846.797-1.832 1.188-2.725l1.991-4.612 3.703-8.734c.567-1.293 1.011-2.672 1.957-3.738 2.966-3.346 6.546-6.317 10.446-8.49 5.346-2.978 11.395-4.604 17.468-5.136 4.739-.415 9.478-.193 14.218.035 3.444.166 6.897.133 10.341.28 3.603.153 7.523.719 10.203 3.389.974.972 1.746 2.125 2.41 3.319.163.288.55.408.839.245s.373-.551.209-.838c-1.071-1.846-2.14-3.682-3.843-5.031-2.44-1.932-5.518-2.382-8.524-2.655-3.836-.348-7.719-.386-11.565-.559-3.065-.137-6.169-.216-9.293-.14z"/><path d="M78.367 6.131c-.324-.098-.671.095-.769.419s.096.67.419.768c1.958.606 3.83 1.58 5.59 2.62 3.251 1.921 6.471 4.488 7.896 8.105.315.8.577 1.687.628 2.55.038.622.002 1.232.105 1.852-.007.043-.008.063.035.07s.098-.027.105-.07c1.091-2.157-.219-5.462-1.397-7.302C88.663 11.53 84.858 8.45 80.847 6.9c-.806-.312-1.651-.521-2.48-.768zm42.934 30.816c-.123-.044-.27.052-.314.175-1.585 3.469-3.908 8.089-2.236 11.914.742 1.7 1.777 3.209 2.934 4.646.78.969 1.619 1.901 2.445 2.83 1.344 1.51 2.708 3.029 3.668 4.821.221.41.395.738.49 1.188.142.672.086 1.358-.035 2.027-.276 1.524-1.303 4.147-2.97 4.646-.088.027-.131.121-.104.21s.121.132.209.105c2.234-.679 3.248-3.553 3.494-5.625.085-.712.109-1.416-.14-2.096-.794-2.173-2.499-4.089-3.913-5.869-.63-.793-1.706-2.043-2.305-2.865-.687-.94-1.356-1.917-1.852-2.97-.664-1.408-1.109-3.079-1.083-4.646.02-1.252.462-2.668.734-3.843.337-1.457.724-2.889 1.117-4.332.045-.123-.016-.27-.139-.315z"/><path d="M122.755 39.479c-3.796.443-1.922-4.746-.338-5.991s5.145.053 5.145.053l5.926.959s3.016.44 3.575 1.618-1.339 3.092-1.339 3.092-9.175-.172-12.969.27zm-15.435-6.788c3.056 1.389 2.242 5.313.427 5.271s-4.671.239-9.405.625l-7.112.352s-4.143-1.291-1.846-3.124 8.07-2.784 8.07-2.784 6.811-1.729 9.867-.34zm3.677 13.093c-.046-.02-.085.024-.104.07l-.42.594c.144-.182-.235.427-.349.629l-.699 1.153a29.08 29.08 0 0 1-2.027 2.62l-.454.489-.838 1.118c-.064.063-.063.181 0 .245s.21 0 .21 0l.628-.384.525-.489.943-1.013c.771-.879 1.386-1.828 1.922-2.865l.314-.629c.098-.219.245-.664.245-.664s.021-.009.175-.734c.019-.046-.025-.12-.071-.14zm-7.758-5.413c-2.991-.506-5.856.562-8.559 1.712l-4.403 1.991c-.456.198-.652.732-.454 1.188s.731.652 1.187.454c2.75-.965 5.221-2.548 8-3.459 1.058-.346 2.231-.651 3.354-.559 1.135.093 2.137.571 3.075 1.188.814.535 1.154 1.141 2.167 1.328.067.082.197.102.279.035s.103-.197.035-.28c-.003-.213.016-.422-.035-.629-.098-.398-.587-.881-.873-1.153-1.01-.959-2.412-1.586-3.773-1.817zm4.612 5.342c-.096-.045-.235.009-.279.105-.625 1.561-2.184 1.998-3.704 2.341a20.61 20.61 0 0 1-8.629.14c-.156-.066-.354.019-.42.175s.019.354.176.419c1.355.899 2.883.958 4.472.978 3.17.04 6.85-.911 8.455-3.913.044-.096.026-.2-.07-.245zm20.299-5.624c-3.049-.228-6.678.303-8.034 2.76-.04.051-.017.137.034.175s.137.016.175-.035c3.207-3.197 8.222-1.653 11.878-.244.384.179.834.034 1.013-.35s-.001-.869-.385-1.048c-.613-.336-1.244-.663-1.92-.838-.784-.203-1.744-.343-2.761-.419zm-6.323 6.849l-1.223-.035c-.268.016.517.187.768.279l1.502.594c1.239.446 2.553.816 3.878.664.521-.06 1.076-.283 1.538-.524.125-.065.348-.21.348-.21l-1.292-.105-1.362.175c-1.275.033-2.49-.347-3.703-.699l-.454-.14z"/><path d="M102.329 41.817s.02-.103-.708.522c-2.337 2.005-1.638 5.983 1.568 5.769 1.894-.126 3.436-1.545 3.776-2.552.505-1.495-1.536-3.462-3.776-3.739"/><path d="M103.31 41.136a.69.69 0 0 0-.802.559c-.061.328.191.577.488.699 1.231.529 3.116 1.153 3.389 2.62.096.519-.5 1.125-.839 1.432-.874.795-2.628 1.539-3.773.909-1.429-.787-1.18-2.722-.559-3.948.285-.562.476-.984 1.014-1.362.011-.008.021-.026.035-.035.1.035.21-.039.245-.14s-.005-.21-.105-.245c.46-.25.562-.24.453-.245-.226-.009-.425.178-.628.279-.271.136-.448.388-.7.559-.229.156-.526.234-.733.419-.475.428-.802 1.061-.944 1.677-.694 3.015 2.103 5.236 4.927 4.088 2.464-1.002 4.041-3.536 1.852-5.73a7.87 7.87 0 0 0-.944-.769c-.424-.265-.687-.315-1.153-.489-.203-.076-.377-.267-.593-.244-.531.057-.017.005-.63-.035zm-.314 1.258l-.314-.14c-.175-.081-.016-.005.385.245-.05-.009-.027-.087-.071-.105zm24.634-.825c-2.102 1.001-4.008 4.349-1.668 5.763 5.205 3.147 8.094-8.82 1.668-5.763z"/><path d="M127.519 41.313c-.105.047-.114.17-.104.279.003.028-.046.042-.034.07-2.72 4.02-3.146 2.373-2.831 4.367.343 2.172 3.486 2.828 5.067 1.677a5.32 5.32 0 0 0 2.095-4.856c-.064-.515-.347-.562-1.153-.699.961 1.63-.665 4.699-2.34 5.171-1.483.417-.008-.01-.489-5.52l1.152-.105c-.513-.142-.576-.102-1.363-.384zm1.363.384l1.677.454c-.05-.085-.039-.203-.104-.28-.186-.219-.469-.091-.7-.105-.204-.012-.416-.094-.628-.105-.083-.004-.205.036-.245.035zm-8.769 29.887c1.498.839 1.942 3.715.416 3.692s-13.503 2.932-16.888 2.484 4.118-3.642 4.118-3.642 10.856-3.373 12.354-2.534zm6.256.401c-.535.781-.827 1.759.158 2.846s4.794.439 7.708 1.755 1.445-1.578 0-3.294-5.567-1.588-5.567-1.588-1.763-.501-2.299.28zm.383 6.254c-.072-.036-.174-.002-.209.069-.225.234-.514.538-.803.699-1.342.749-3.004-.014-4.368-.245-.972-.163-1.406-.212-2.375.036-2.544.65-5.432 1.746-7.756 2.969l-1.783 1.049c-.603.315-1.229.558-1.851.838-.058.02-.09.082-.069.139s.081.092.138.07l5.975-1.642 5.695-2.165a4.28 4.28 0 0 1 .908-.176c1.959-.132 3.716.924 5.59-.069.64-.339.864-.662.979-1.363.035-.072.002-.174-.071-.209zM67.78 149.406c-.123.09-.159.262-.07.385.717 1.079.514.493.7 1.047.097.294-.4-.467-.664-.628-.113-.069.127.245.209.349.142.181.484.477.629.629l.314.349c-.379-.6-.001-.003.245.385.063.128.221.202.349.139s.168-.221.105-.349c-.726-1.126-.341-.698-.733-1.118-.199-.212.306.521.559.664.15.086-.142-.33-.21-.489-.099-.235-.23-.615-.385-.838-.074-.11-.331-.436-.279-.315.309.713-.003-.008-.418-.175-.089-.122-.227-.124-.35-.035z"/></g><path d="M23 193.5l2.5-.5-1 3.5-1-.5-.5-2.5z" fill="#dda98a"/></g><defs><radialGradient id="A" cx="0" cy="0" r="1" gradientTransform="translate(42.3624 188.564) scale(21.7567 21.7567)" xlink:href="#G"><stop offset=".542" stop-color="#d59a7a"/><stop offset="1" stop-color="#deab8c"/></radialGradient><radialGradient id="B" cx="0" cy="0" r="1" gradientTransform="translate(39.9746 250.171) scale(27.4628 27.4628)" xlink:href="#G"><stop offset=".542" stop-color="#d59a7a"/><stop offset="1" stop-color="#deab8c"/></radialGradient><radialGradient id="C" cx="0" cy="0" r="1" gradientTransform="translate(137.701 240.752) scale(31.054 31.0539)" xlink:href="#G"><stop offset=".542" stop-color="#d59a7a"/><stop offset="1" stop-color="#deab8c"/></radialGradient><radialGradient id="D" cx="0" cy="0" r="1" gradientTransform="translate(68.9441 64.1433) scale(7.62187 7.62187)" xlink:href="#G"><stop offset=".542" stop-color="#d59a7a"/><stop offset="1" stop-color="#deab8c"/></radialGradient><radialGradient id="E" cx="0" cy="0" r="1" gradientTransform="translate(119.038 80.3182) scale(8.91135 7.03982)" xlink:href="#G"><stop offset=".455" stop-color="#d59a7a"/><stop offset="1" stop-color="#deab8c"/></radialGradient><clipPath id="F"><path fill="#fff" transform="translate(0 .158)" d="M0 0h199v263.843H0z"/></clipPath><linearGradient id="G" gradientUnits="userSpaceOnUse"/></defs></svg>