<?xml version="1.0" encoding="UTF-8"?>
<svg id="Ebene_1" data-name="Ebene 1" xmlns="http://www.w3.org/2000/svg" xmlns:xlink="http://www.w3.org/1999/xlink" viewBox="0 0 199 264">
  <defs>
    <style>
      .cls-1 {
        fill: none;
      }

      .cls-2 {
        fill: url(#Unbenannter_Verlauf_5);
        fill-opacity: .75;
      }

      .cls-3 {
        clip-path: url(#clippath);
      }

      .cls-4 {
        fill: #f5e4db;
      }

      .cls-5 {
        fill: #fff;
      }

      .cls-6 {
        fill: #a58371;
      }

      .cls-7 {
        fill: #deab8c;
      }

      .cls-8 {
        fill: #dda98a;
      }

      .cls-9 {
        fill: #070d1c;
      }

      .cls-10 {
        fill: #948986;
      }

      .cls-11 {
        fill: #885727;
      }

      .cls-12 {
        fill: #4a6e92;
      }

      .cls-13 {
        fill: #5b8dbb;
      }

      .cls-14 {
        fill: url(#Unbenannter_Verlauf_2);
      }

      .cls-15 {
        fill: url(#Unbenannter_Verlauf_3);
      }

      .cls-16 {
        fill: url(#Unbenannter_Verlauf_4);
      }

      .cls-17 {
        fill: url(#Unbenannter_Verlauf);
      }
    </style>
    <clipPath id="clippath">
      <rect class="cls-1" y=".16" width="199" height="263.84"/>
    </clipPath>
    <radialGradient id="Unbenannter_Verlauf" data-name="Unbenannter Verlauf" cx="-188.9" cy="539.61" fx="-188.9" fy="539.61" r="1" gradientTransform="translate(4152.19 11928.62) scale(21.76 -21.76)" gradientUnits="userSpaceOnUse">
      <stop offset=".54" stop-color="#d59a7a"/>
      <stop offset="1" stop-color="#deab8c"/>
    </radialGradient>
    <radialGradient id="Unbenannter_Verlauf_2" data-name="Unbenannter Verlauf 2" cx="-190.79" cy="542.37" fx="-190.79" fy="542.37" r="1" gradientTransform="translate(5279.61 15145.07) scale(27.46 -27.46)" gradientUnits="userSpaceOnUse">
      <stop offset=".54" stop-color="#d59a7a"/>
      <stop offset="1" stop-color="#deab8c"/>
    </radialGradient>
    <radialGradient id="Unbenannter_Verlauf_3" data-name="Unbenannter Verlauf 3" cx="-191.62" cy="543.58" fx="-191.62" fy="543.58" r="1" gradientTransform="translate(6088.39 17121.14) scale(31.05 -31.05)" gradientUnits="userSpaceOnUse">
      <stop offset=".54" stop-color="#d59a7a"/>
      <stop offset="1" stop-color="#deab8c"/>
    </radialGradient>
    <radialGradient id="Unbenannter_Verlauf_4" data-name="Unbenannter Verlauf 4" cx="-172.03" cy="514.97" fx="-172.03" fy="514.97" r="1" gradientTransform="translate(1380.07 3989.2) scale(7.62 -7.62)" gradientUnits="userSpaceOnUse">
      <stop offset=".54" stop-color="#d59a7a"/>
      <stop offset="1" stop-color="#deab8c"/>
    </radialGradient>
    <radialGradient id="Unbenannter_Verlauf_5" data-name="Unbenannter Verlauf 5" cx="-175.78" cy="511.84" fx="-175.78" fy="511.84" r="1" gradientTransform="translate(1685.49 3683.56) scale(8.91 -7.04)" gradientUnits="userSpaceOnUse">
      <stop offset=".46" stop-color="#d59a7a"/>
      <stop offset="1" stop-color="#deab8c"/>
    </radialGradient>
  </defs>
  <g class="cls-3">
    <g>
      <path class="cls-7" d="m174.79,234.91l-12.43,27.8c-25.02,8.15-67.42-5.92-84.85-18.66-8.63,6.55-42.51,30.05-55.49,14.13-3.38-6.21-11.03-23.19-11.03-23.19,3.82-13.21,18.13-25.86,30.04-29.92l-9.24-7.48c-12.69.17-14.84-6.12.65-6.03l11.43,6.51-21.58-21.9,2.13-3.74c8.09-3.06,20.76,5.21,24.58,9.73l-12.51-14.18c17.19-7.24,33.79,36.16,41,45.5,6.25-1.72,47.84-8.62,56.74,3.58,10.16-10.69,40.53,5.6,40.55,17.83Z"/>
      <path class="cls-17" d="m64.12,196.87l-5.06,10.24-16.24,2.51-11.51-11.77-9.73.14,1.71-24.3,20.93-6.2,17.08,17.98,2.82,11.39h0Z"/>
      <path class="cls-7" d="m100.33,155.51l11.46-26.92,11.17-4.29.11-26.38c6.88-.84,4.47-2.2,6.95-10.15,1.17-4.31,5.5-13.55,5.52-22.9s-.14-23.41,4.1-27.67-22.5-10.32-22.5-10.32c0,0-24.66,0-33.57,7.32-8.82,7.44-18.05,16.99-21.85,21.56l.31,6.48,4.65,6.15,1.97,6.23c12.43,5.92,9.42,29.75,10.03,39.14l21.79,15.04-5.55,9.16c.4,8.07-.19,7.74,4.11,14.82"/>
      <path class="cls-14" d="m37.55,263.93c8.52-4.99,21.23-14.4,29.89-19.29,0,0,9.26-14.09,2.49-12.76s-16.18,16.19-29.6,18.09c-14.08,3.88-23.02-3.26-27.82-12.7l8.5,19.79,4.51,5.94s12.02.93,12.02.93Z"/>
      <path class="cls-15" d="m162.18,220.64l6.57,4.35c-10.34,24.7-7.29,18.67-27.71,35.08,0,0-22.93,1.25-25.06.6s-9.33-5.42-9.33-5.42c18.41-.29,48.66-14.75,55.54-34.62h0Z"/>
      <g>
        <path class="cls-6" d="m44.67,260.06l14.22-3.63c8.37-5.87,26.22-19.26,34.46-25.56-11.39,4.87-38.1,22.17-48.68,29.19h0Z"/>
        <path class="cls-6" d="m90.63,249.96c-11.62-7.27,14.83-23.33,16.6-24.27l-3.51-.09-17.61,10.4-8.83,7.59,13.35,6.38h0Zm75.71-27.42s-9.82,24.84-15.26,28.84c-11.99,5.89-32.41,7.83-39.91,8.27l15.45,3.7,35.78-.48c.69-1.54,12.54-28.61,12.93-29.19l-2.58-6.31-6.42-4.83h0Zm-117.03,2.92c-3.75,2.64-13.72,3.89-17.96.6l3.25,4.8,6.27,1.01,8.44-6.41h0Zm50.93-69.96s.93-12.77,3.54-21.2c6.78-16.79,22.34-31.73-3.54-35.25l22.84-.8-.33,26.29s-6.92,1.33-9.32,2.97-13.19,27.99-13.19,27.99Zm-16.67-121.35s14.71,1.86,14.71,1.86c0,0,7.99,4.61,11.08,5.79,3.04,2.25,10.67-3.87,10.38,1.54,7.58-2.27,10.98,3.49,15.8,5.96l.61-5.86,3.69-7.17c-10.48-12.04-39.16-11.93-56.27-2.12Z"/>
      </g>
      <path class="cls-16" d="m79.18,54.06c-6.63-1.55-18.92-6.75-17.87,7.47,2.48,1.51,7.59,10.16,7.5,13.01,0,0,5.82,4.79,7.24.09s3.13-20.57,3.13-20.57h0Z"/>
      <path class="cls-2" d="m132,77l-14-1.5-13.5,7,1.5,4.49,20-2.99,6-7Z"/>
      <path class="cls-11" d="m83.26,33.83l17.46-6.25,19.65-.92,14.95,5.57,5.11,4.03c1.85-2.22,15.46-18.95,3.85-22.56,0,0-12.97-4.55-12.97-4.55l-18,1.38-13.96,6.97s-16.1,16.32-16.1,16.32h0Z"/>
      <path class="cls-4" d="m60.6,59.99c-6.85-6.14-7.13-21-.75-27.51,0,0,7.61-18.13,7.61-18.13l16.11-10.42s15.77-3.04,15.77-3.04c4.4.73,31.57-2.27,34.44,8.92-19.23-7.61-42.13,13.2-49.96,23.32-.72,1.01-22.45,22.19-21.81,22.36-.85,1.69-.3,5.32-1.42,4.49h0Z"/>
      <path class="cls-13" d="m10.61,235.21c1.68-12.77,23.77-26.18,31.89-25.71-.35-3.57-6.37-10.12-11.6-11.96-3.36,0-9.33-.79-9.33-2.8s5.25-3.16,9.33-3.16,14.17,9.57,13.03,5.96-20.93-22.04-20.93-22.04l1.42-3.15c6.7-2.24,21.62,5.52,24.37,9.27,0,0-11.82-11.27-11.74-13.22s10.26.99,10.26.99l14.39,17.07,15.03,27.27c8.4-1.14,32.27-4.53,40.42-4.24,0,0,16.85,8.01,16.85,8.01,9.32-9.71,45.99,6.39,39.87,21.62,0,0,3.26-.17,8.08-15.48,6.44-22.93,20.35-64.55,14.56-82.47l-19.79-16.24c-11.95-3.46-43.43-6.01-53.4-22.79l-.57,20.09c-.16,4.78-9.43,3.64-11.79,8.16-2.35,4.51-10.07,24.9-10.07,24.9,0,0,.33-.57-3.53-5.06s-1.98-14.07-1.98-14.07c15.4-11.31-11.27-19.24-16.06-21.81l-.73-18.09-8.57,8.86-1.51,7.16s-13.07,9.36-24.58,10.8-34.93,19.92-40.43,23.92c-1.85,4.23,3.7,45.79,4.08,51.14,0,0-1.52,21.61-1.52,21.61l4.55,15.45h0Z"/>
      <path class="cls-12" d="m39.55,263.71l3.54-2.67c3.82,3.39,35.14-17.65,33.98-17.36,10.13,5.28,33.26,16.44,44.13,19.34,0,0-81.65.69-81.65.69Z"/>
      <path class="cls-9" d="m14.16,200.07c.71-.11,1.27-1.24,2.34-1.57.74-.36,2.5-1,2.5-1,0,0,4.82-.56,5.4-1.66,1.53-2.91-2.65-4.63-4.53-6.2-.63-.29-.69-.06-.37.36,1.15,2.91,5.68,3.09,3.94,6.15-2.75.22-8.48,1-9.28,3.92Z"/>
      <path class="cls-12" d="m193.03,180.48c-2.34,6.99-17.9,36.82-30.03,40.02,4.49,2.34,11.97,9.03,11,17l11.5-22.5,7.53-34.52Zm-52.98-1.93c-1.07,1.72-15.52,27.85-23.63,26.1-9.2,2.13-19.31-16.03-18.44-20.65-12.13,16.27-12.72,27.25-32.6,10.88l11.41,18.46c11.94-.99,31.13-4.56,43.11-3.36,0,0,12.97,6.65,12.97,6.65-.67-6.4-.3-5.95,2.47-11.52l-1.11-7.59,5.82-18.98h0ZM3.44,156.04l1.27,12.61c6.21-1.8,26.25,21.33,26.79,22.85,0,0,13.35,9.83,11.5,5.5-3-4-21-19.5-21-19.5l-18.56-21.46Zm3.05,55.33c.85,8.98,5.46,11.93,14.01,9.63,0,0-8.34,7.52-9.51,12.73s-3.65-5.35-3.65-5.35l-.85-17h0Zm72.34-114.31l.04,17.21c-13.01-4.96-8.82-11.71-.03-17.21h0Zm18.16,37.43c-2.78,7.52-.96,12.09,2.5,18l-6.75-6.76v-5.74s4.25-5.5,4.25-5.5Zm3.67,21.73s3.4-7.74,8.69-12.68,6.96-1.92,12.47-7.09c7.5-5.28,13.96-18.01,11.37-24.11,0,0-9.93-10.8-9.93-10.8l-.22,21.79c-.03,2.67-9.47,2.52-11.82,6.28-2.35,3.77-10.56,26.61-10.56,26.61h0Z"/>
      <path class="cls-6" d="m89.25,196.24s8.43-11.73,8.73-13.43-2.34-12.02-2.34-12.02l-4.38,10.7c-.15,1.41-2.89,13.68-2.01,14.75h0Zm36.25-126.74c2.77-1.29,4.76-7.35-1.5-2.5-.93.62-2,1-2,1-.37,0-1.92.57-1,1.5,1.25,1.25,4.5,0,4.5,0h0Z"/>
      <path class="cls-5" d="m90.5,45.34l4.82,3.39c1.67.53,15.44,1.16,11.82-5.96l-6.96-1.82-9.68,4.39h0Zm29.87-2.77l-.91,1.41-.25,2.22,3.54,1.4,3.56.37,3.25-6.61-6.21-.53s-2.98,1.74-2.98,1.74Z"/>
      <path class="cls-10" d="m120.39,42.78c1.39-.84,4.72-.48,5.98.63l2.25-2.31c-1.74-.94-7.01-.74-8.23,1.69Z"/>
      <g>
        <path class="cls-9" d="m71.83,76.56c7.05,10.59,6.7,24.51,6.22,37.1,0,.62.5,1.12,1.12,1.12.62,0,1.12-.5,1.12-1.12-.59-12.06,1.23-28.67-8.46-37.1h0Z"/>
        <path class="cls-9" d="m78.01,96.02c-24.36,16.46,11.56,20.51,20.72,30.57,2.85,5.23-6.96,9.89-7.06,15.55-.42,6.74,7.97,8.19,7.89,14.43,2.31-1.96-.61-5.3-2.48-6.88-12.68-9.91,7.57-15.19,2.86-23.97-7.37-9.02-23.6-8.86-28.58-19.91.06-2.87,11.01-8.12,6.64-9.78Z"/>
        <path class="cls-9" d="m126.33,120.62c-3.83,4.19-9.39,4.68-14.25,6.64-6.42,8.23-8.22,19.16-12.68,28.47-.21.47-.02,1.01.45,1.22,4.95-2.02,8.03-29.19,15.76-29.35,4.49-.34,9.2-2.93,10.73-6.99h0Z"/>
        <path class="cls-9" d="m125.56,102.59c-3.85-.55,2.35,4.49,2.13,6.11,1.77,5.63-1.09,13.9-6.5,16.53,8.23-3.04,11.72-17.32,4.37-22.64Z"/>
        <path class="cls-9" d="m128.15,117.54c-3.37,11.04-9.22,18.73-20.79,20.33,10.39,3.98,19.66-11.16,20.79-20.33Zm-58.24-12.3c-1.92,1.62-.97,5.72-2.24,8.07-.25,1.28-1.69,1.96-1.54,3.32,3.4,7.27,12.71,9.63,18.52,14.67,5.31.13-2.41-4.39-3.84-5.1-20.14-11.86-10.74-5.54-10.9-20.96Zm53.1-6.25c-2.34-.78-1.19,23.91.1,25.01.79-7.37.11-16.07.98-23.86.02-.62-.47-1.13-1.08-1.15Zm-79.27,23.45c-2.62-2.05-49.1,23.67-37.74,24.06,6.67-7.08,21.64-14.72,30.3-19.59,7.15-5.62,12.91-.53,17.43,5.38,5.38,5.44,8.87,14.51,14.99,18.34-6.36-8.35-14.4-24.79-24.98-28.2h0Z"/>
        <path class="cls-9" d="m68.02,111.43c-7.24,5.32-15.88,9.15-24.77,10.55-.61.09-1.03.65-.94,1.26,1.05,4.31,29.66-10.27,25.71-11.81ZM4.5,145c-8.98,10.94,8.33,22.36,13.83,28.7.19.19.98.99,1.16.8s-.31-1.31-.5-1.5c-6.53-6.49-10.44-12.69-10.44-12.69-2.54-3.57-7.39-8.75-3.01-13.49.62-.76-.09-1.94-1.05-1.82Z"/>
        <path class="cls-9" d="m3.21,155.03c.06,13.74,4.07,28.75,3.42,43.04.4,11.69-5.11,31.72,4.96,39.44.52-.33.68-1.02.35-1.54-7.07-11.17-3.62-25.48-3.67-37.91-.52-14.2-1.99-29.65-5.07-43.04Z"/>
        <path class="cls-9" d="m38.43,210c-9.6-.4-33.8,18.8-27.22,27.99.62-.04,1.1-.51,1.06-1.05-.48-11.05,10.35-18.31,18.59-23.94.52-1.14,10.32-2.02,7.58-3h0Z"/>
        <path class="cls-9" d="m11.74,234.55c1.12,8.41,6.99,23.16,13.76,29.03,2.79,1.44,6,.63,8.98.98.99.17,2.5,1.04,2.94-.38-1.37-3.86-8-.4-11.07-2.31-7.92-6.75-10.09-18.83-14.61-27.32Z"/>
        <path class="cls-9" d="m110.23,222.84c-11.43,3.65-22.17,9.23-32.56,15.16-13.67,7.8-26.82,16.5-40.07,24.98-.52.34-.65,1.02-.31,1.54s1.02.65,1.54.31c13.1-8.67,26.09-17.54,39.62-25.54,10.23-6.05,20.77-11.74,32.07-15.55.58-.17.32-1.11-.28-.91h0Z"/>
        <path class="cls-9" d="m104.99,225.01c-20.19,6.5-33.06,25.74-52.86,32.91-2.37,1.61-9.2.71-9.82,3.18,9.47,3.28,24.92-9.08,32.56-15.09,9.34-7.62,18.85-16.04,30.43-20.09.6-.19.29-1.12-.32-.91Z"/>
        <path class="cls-9" d="m77.91,243.7c-.56-.28-1.03.59-.42.87,12.27,6.02,24.19,13.35,37.45,17.05,15.27,4.01,31.3,3.29,46.92,2.48.62-.04,1.09-.57,1.05-1.19-41.88-.98-44.61,2.21-85-19.22h0Zm57.99-28.3c-2.34-.04-2.68,6.75-5.41,8.35-5.88,6.51-19.01-.89-25.82,1.82,6.68.95,14.84,2.64,21.97,2.38,4.25-.53,11.74-8.81,9.26-12.54Z"/>
        <path class="cls-9" d="m174.13,235.32c-.47-.2-.88.43-.45.77-4.2,5.51-6.88,18.09-11.63,25.5,1.27,7.64,8.54-15.6,9.12-17.36.83-2.84,2.14-5.51,3.21-8.24-.11.12-.44.28-.63.21.58.29.98-.71.38-.87h0Zm-38.96-41.64c-2.78,2.5-.54,6.77-.77,9.96-.54,4.41-4.72,10.07-1.15,13.94.26-.06.41-.3.35-.56-1.91-4.88,1.75-8.65,2.52-13.21.35-2.88-1.02-5.87.42-8.56.47-.87-.46-1.9-1.36-1.57h0Zm6.33,44.79c-1.13,1.15-2.64,1.66-4.05,2.34.99.71,7.36-2.03,4.05-2.34h0Zm-87.8-14.18c-9.21.91-16.24,14.16-22.85.63,1.59,10,9.71,8.96,16.17,3.74,2.3-1.27,4.46-2.78,6.81-3.95.26-.09.14-.51-.14-.42Z"/>
        <path class="cls-9" d="m173.6,148.12c-30.42,12.89-28.57,15.04-39.16,45.14-.66,1.45,1.63,2.5,2.27,1.01,13.48-34.88,5.33-28.1,36.89-46.15h0Z"/>
        <path class="cls-9" d="m161.2,163.59c-7.4,3.18-25.43,19.45-24.18,27.21.57.24,1.23-.02,1.47-.59,2.41-5.91,6.29-11.14,10.62-15.79,3.64-3.91,7.74-7.5,12.51-9.96.54-.26.15-1.17-.42-.87Zm33.5-24.67c-2.95,2.5-5.76,6.77-10.27,6.88-.27,0-.46.26-.45.52,1.72,2.68,15.8-5.93,10.73-7.41Z"/>
        <path class="cls-9" d="m195.16,138.4c-.98.04-1.38,1.35-.59,1.96,3.5,3.94,2.06,10.2,2.38,15.09.28,14.15-6.86,28.28-7.3,41.82,2.77-12.44,16.16-49.7,5.52-58.87h0Zm-6.11,59.32c-3.22,11.16-6.6,23.6-12.19,34.34-.52,2.56-4.75,5.46-3.56,7.75,5.71-.29,16.85-36.42,15.76-42.1h0Zm-14.99-71.97c-3.8,6.18-10.56,9.76-15.65,14.88-4.41,5.68-9.8,13.37-10.52,20.23,4.75-4.97,6.41-13.82,11.71-19.14,4.39-5.56,11.43-9.59,14.46-15.97h0Z"/>
        <path class="cls-9" d="m128.74,107.42c9.74,14.44,30.41,12.55,45.38,17.5,8.56,2.36,13.87,12.7,21.46,15.23-18.25-28.6-48.62-12.4-66.85-32.73h0Zm-26.73,44.93c-7.71,15.41-17.66,39.24-11.6,56.56-4.83-19.71,7.97-38.31,11.6-56.56h0Zm32.04,110.3c-32.52.72-66.25-.81-98.21,1.29,31.37,1.06,66.32.29,98.14.95,1.42.06,1.54-2.21.07-2.24Z"/>
        <path class="cls-9" d="m88.11,249.5c-.98,4.04-1.94,9.64-4.72,13.42,1.35,7.41,7.51-12.49,4.72-13.42Zm-49.34-39.4c-.59.17-.94.8-.77,1.4,2.16,10.48,15.87,2.77,23.07,3.62,14.43-1.1,29.3-2.52,43.67-4.41,11.54-.99,5.99-2.17-1.43-.87-18.55,2.39-37.71,2.42-56.21,4.93-8.37,1.43-5.31-4.83-8.33-4.67h0Zm76.67-1.17c-.9-.21-5.36.58-3.18,1.5,7.15-1.5,13.97,3.56,19.91,6.92,7.55-1.18-14.5-9.33-16.74-8.42Z"/>
        <path class="cls-9" d="m62.29,187.07c-2.52,3.66,11.74,23.79,15.13,26.73-2.04-5.7-7.44-11.2-9.99-17.19-1.91-2.13-2.53-9.45-5.14-9.54h0Z"/>
        <path class="cls-9" d="m47.9,170.05c-.85,1.02,17.04,23.82,14.95,15.69h0c-5.33-4.71-9.9-11.34-14.95-15.69h0Zm-8.56-2.62c-.57-.02-1.55.05-1.96.24,0,0,1.15.21,1.15.21,2.38-.2,5.25,1.19,7.48,2.1.66.44,2.19.11,1.01-.98-2.48-.72-5.1-1.38-7.69-1.57Zm-7.02-5.8c.28,2.44,3.02,5.07,4.33,7.27,3.39,4.93,8.41,9.43,12.72,13.21-2.55-3.75-6.76-6.83-9.64-10.55-2.82-2.92-4.31-7.63-7.41-9.92h0Z"/>
        <path class="cls-9" d="m25.09,171.56c-.77.08-.62,1.31.14,1.22,9.11-1.32,17.72,3.77,24.21,9.57-5.72-6.95-15.16-11.92-24.35-10.8h0Z"/>
        <path class="cls-9" d="m24.07,171.98c-1.06.28-2.01,2.1-1.36,3.07.11.22.44.61.45-.07.41-.79,1.09-1.59,1.4-2.03.52-.55.28-1.25-.49-.98Zm.14,2.87c-4.26,1.28,7.28,3.03,7.51,3.32,4.26,1.3,8.01,4.86,11.56,7.48-3.47-4.73-12.39-9.34-19.08-10.79h0Zm5.27,16.32c-2.14.25-5.48,1.44-7.55,1.99-1.31,1.85,9.71-2.38,10.69-.8,2,1.34,16.81,11.41,9.82,2.51-1.14.06,1.65,2.25,1.08,3.01-4.43-1.99-8.83-7.29-14.04-6.71Zm-7.06,3.88c-.15.03-1.35-.95-.98-.17-.47,1.8,6.68,4.02,5.42,2.17-1.55-.42-3.39-.6-4.44-1.99h0Z"/>
        <path class="cls-9" d="m28.9,196.99l-.77.07s.03,0-.7.21c-.11.01-.07.18,0,.18,1.1,0,2.52.09,3.6.31.03.02,1.96.59.84-.63-.96-.1-2-.22-2.97-.14h0Z"/>
        <path class="cls-9" d="m32.32,197.87c1.37,2.14,5.12,4.32,6.85,6.36,0,0,.03-.01,1.19,1.29.57.71,1.65-.18,1.05-.87-1.69-1.26-5.45-4.18-6.9-5.64-.43-.25-1.34-.58-1.69-.93.04.08-.37-.37-.49-.21h0Z"/>
        <path class="cls-9" d="m40.88,204.92c-.09,0-.18.08-.17.17-.52,3.46,1.79,10.38,6.11,9.92.06.02.17-.11.07-.14-2.59-2.9-4.64-6.1-5.83-9.82,0-.09-.08-.14-.17-.14h0Z"/>
        <path class="cls-9" d="m37.5,210.5l4-1.5c1.04,1.07,4.4,5.68,5.35,6.95l-6.4-1.02-2.95-4.43h0Zm56.35-79.07c3.62-.4.14-9.17-3.54-6.31-4.97,3.86,2.84,9.86,4.63,4.49"/>
        <path class="cls-9" d="m91.95,124.29c-4.02-.09-4.92,5.95-1.22,7.48,6.2,2.07,6.05-6.44,1.22-7.48h0Zm.28.56c1.66.31,3.23,3.06,2.86,4.72-.4-.65-.61.94-.8.84-.18.1.21-.4.28-.59-3.75,5.17-8.61-4.35-2.34-4.96Zm2.65,5.69c-.02.23-.08.4-.31.49.11-.16.24-.31.31-.49Zm-.38.1c.11-.21-.15.28-.31.63-.05.02-.09.05-.11.03,0,0,.42-.66.42-.66Zm-.86,29.4c-.89-3.99-9.32,5.84-1.13,6.94,3,.4,5.83-6.64-.03-7.71"/>
        <path class="cls-9" d="m92.06,159.01c-4.49,1.84-4.33,8.95,1.29,8.28,3.55-.9,4.36-7.53.07-7.93-.26-.53-.86-.55-1.36-.35h0Zm.59.42c.15.41.49.21.8.49-.11.17.3.55.35.14,2.72,1.56,1.88,6.41-1.26,6.57-4.92.16-3.63-6.66.11-7.2Zm.49.17c.09.04.19.07.28.1.02.03.03.05.04.07-.02-.02-.11-.1-.32-.17Zm-9.33,36.16c-1.59,0-3.56.36-3.61,3.62s1.76,3.73,3.44,3.63c3.99.26,4.48-7.68.17-7.26Zm-6.39-118.61c-1.79,2.01,2.91,10.43,4.16,12.89,1.63,1.82,5.93,3.62,8,4.93,2.79,1.15,8.69,4.44,11.67,4.75,7.43.02,15.63-.1,22.95-1.47,3.37-.35,4.36-1.99,4.79-5.14-.72-.99-1.04,2.76-1.47,3.15-4.96,2.62-11.33,1.79-16.8,2.1-9.85,1.27-17.78-2.95-25.89-8-4.68-1.8-3.82-11.49-7.41-13.21h0Zm62.71-40.52c-10.17,5.22-3.19,22.02-5.31,31.41-1.06,8.27-4.53,15.94-6.15,24.04,3.48-7.81,6.64-18.26,7.51-27.57-.4-9.55-.35-19.57,3.95-27.88h0Z"/>
        <path class="cls-9" d="m112.99,25.98c-10.39.5-21.75,2.78-30.32,8.59,14.5-7.44,33.37-9.32,48.88-3.28,1.94.06,10.22,8.67,8.8,3.53-7.08-6.91-17.8-8.82-27.36-8.84Z"/>
        <path class="cls-9" d="m120.88,7.99c-23.2,1.99-36.01,24.94-51.38,39.51-.17.16.03.47.24.28,1.91-1.22,3.46-2.88,5.13-4.4C93.05,24.01,110.55,2.21,139.99,13.12c20.2,5.93-2.69,16.82-.39,24.24,3.49.73,5.73-6.37,7.86-8.66,13.23-17.49-14.7-20.54-26.59-20.72h0Zm-44.89,56.74c-1.59,2.77-2.32,6-.52,8.98.62.77,1.11,7.5,3.14,6.39,2.15-.89-3.04-7.08-2.97-9.5-.59-1.79,1.36-4.23.35-5.87h0Z"/>
        <path class="cls-9" d="m77.81,76.81c-.26,0-.45.23-.45.49l-.39.45c-.03,1.15,1.72,1.12,1.71,0l-.39-.45c0-.27-.22-.48-.49-.49h0Zm-9.12-25.75c-6.44-1.39-10.45,7.33-6.57,12.23,1.44,2.09,3.61,3.62,4.68,5.97.9,1.98.38,4.44,2.03,6.08,1.52,1.52,6.26,3.31,7.2.17-1.77,1.72-5.49,1.28-6.95-1.01-1.56-9.27-5.34-8.11-7.06-14.81-.25-3.26,1.72-7.46,5.49-7.23,2.65.16,4.72,1.83,6.36,3.77,4.6.82-3.32-5.86-5.17-5.17h0ZM100.69.47c-13.18.08-27.17,4.12-35.29,15.13-1.66,3.35-4.22,11.01-5.76,14.53-1,4.01-4.21,7.25-5.1,11.22.22,6.2.11,14.99,5.8,18.8-2.83-4.59-5.4-12.32-4.37-18.76.6-3.15,3.3-5.21,4.16-8.24,2.31-4.72,4.86-12.65,7.65-17.08C78.02,3.73,94.75,1.01,109.91,2.46c9.56.34,17.78-1.17,23.79,7.23-3.06-12.78-22.85-7.98-33.02-9.22h0Z"/>
        <path class="cls-9" d="m78.37,6.13c-4.37,1.01,15.13,5.02,13.9,16.38,2.25-7.72-7.19-14.66-13.9-16.38h0Zm42.93,30.81c-12.29,16.46,16.03,21.68,3.88,32.46,2.28.02,3.48-3.59,3.7-5.52.3-4.4-4.15-7.45-6.36-10.83-4.56-4.67-2.23-10.83-1.22-16.11h0Z"/>
        <path class="cls-9" d="m122.75,39.48c-3.8.44-1.92-4.75-.34-5.99s5.14.05,5.14.05l5.93.96c2.8.29,5.24,1.89,2.24,4.71,0,0-9.18-.17-12.97.27h0Zm-15.43-6.79c3.06,1.39,2.24,5.31.43,5.27-2.44-.03-12.37.91-16.52.98,0,0-4.14-1.29-1.85-3.12,4.49-2.57,12.7-4.56,17.94-3.12h0Zm3.68,13.09c-.1-.05-.46.61-.52.66-.91,1.96-2.95,4.16-4.37,6.01.32,1.46,4.89-4.88,4.79-5.8,0,0,.02,0,.18-.73.02-.05-.03-.12-.07-.14h0Zm-7.76-5.41c-1.66-1.07-14.44,3-13.42,4.89.2.46.73.65,1.19.45,5.88-2.38,10.82-6.45,16.6-1.5.16.2.47-.04.31-.24-.09-2.13-2.87-3.21-4.68-3.6h0Zm4.61,5.34c-2.82,3.94-8.92,2.7-13.03,2.76,3.04,2.9,11.62,1.51,13.03-2.76Zm20.3-5.62c-2.73-.33-7.84.63-7.83,2.9,3.21-3.2,8.22-1.65,11.88-.24.38.18.83.03,1.01-.35-.03-2.07-3.36-2-5.07-2.31h0Zm-6.32,6.85l-1.22-.03c2.14.82,5.66,2.56,8.03.8-2.29-.05-4.63.19-6.81-.77h0Z"/>
        <path class="cls-9" d="m102.33,41.82c-2.79,1.36-2.93,6.58.86,6.29,4.93-.58,4.97-5.5,0-6.29"/>
        <path class="cls-9" d="m103.31,41.14c-.8-.15-1.14,1.01-.31,1.26,10.57,4-7.72,9.19-.73-.38.22.07.37-.31.14-.38,1.35-.74-.73.27-.87.59-3.9,1.98-.79,8.11,3.25,6.18,4.7-1.7,2.95-7.02-1.47-7.27h0Zm-.31,1.26c-.33-.14-.66-.34.07.1-.05,0-.03-.09-.07-.1Zm24.63-.83c-2.1,1-4.01,4.35-1.67,5.76,5.2,3.15,8.09-8.82,1.67-5.76Z"/>
        <path class="cls-9" d="m127.52,41.31c-.15.06-.08.26-.14.35-2.72,4.02-3.15,2.37-2.83,4.37.34,2.17,3.49,2.83,5.07,1.68,1.43-.97,3.66-5.08.94-5.56.96,1.63-.66,4.7-2.34,5.17-1.48.42,0,0-.49-5.52l1.15-.1c-.51-.14-.58-.1-1.36-.38Zm1.36.38l1.68.45c-.1-.64-1.18-.39-1.68-.45h0Zm-8.77,29.89c1.5.84,1.94,3.71.42,3.69s-13.5,2.93-16.89,2.48c-4.55-1.59,14.2-7.19,16.47-6.18Zm6.26.4c-2.2,4.6,4.03,2.92,7.87,4.6,2.91,1.32,1.45-1.58,0-3.29-1.48-1.7-7.34-2.15-7.87-1.31h0Zm.38,6.25c-2.13,2.4-5.14-.21-7.76.56-3.74.97-8.68,3.1-11.32,5.06,3-.69,8.84-2.59,11.67-3.81,2.23-.82,7.09,1.79,7.41-1.82Zm-58.97,71.17c-.12.09-.16.26-.07.38.72,1.08.51.49.7,1.05.1.29-.4-.47-.66-.63.06.36.89.96,1.15,1.33-.59-1,.74,1.52.7.18-.73-1.13-.34-.7-.73-1.12-.2-.21.31.52.56.66,0-.19-.62-1.53-.87-1.64.31.71,0,0-.42-.17-.09-.12-.23-.12-.35-.04h0Z"/>
      </g>
      <path class="cls-8" d="m23,193.5l2.5-.5-1,3.5-1-.5-.5-2.5Z"/>
    </g>
  </g>
</svg>