<svg width="262" height="381" viewBox="0 0 262 381" fill="none" xmlns="http://www.w3.org/2000/svg">
<g clip-path="url(#clip0_2404_1236)">
<path d="M126.296 0.0985217C122.641 0.797258 117.158 2.19472 114.74 3.05471C113.288 3.5922 109.687 4.39843 106.839 4.82842C103.345 5.31216 100.872 6.0109 99.4749 6.81713C97.11 8.26835 87.8652 18.3732 87.1127 20.3619C86.4139 22.2431 87.0589 35.6266 87.9189 37.884C88.9401 40.4102 88.9401 40.464 86.4677 41.7539C84.4252 42.7752 84.264 42.9902 84.5865 44.4414C84.7477 45.4626 84.5865 46.6988 84.1027 47.6126C82.5978 50.515 83.4578 56.7499 85.6077 58.4161C86.8439 59.4373 87.4889 62.8772 87.5427 69.1659C87.5964 73.627 88.3489 75.4007 92.0576 80.0231C94.2613 82.8181 95.2288 84.5918 96.1425 87.6555C97.54 92.4929 97.54 92.1704 96.035 92.7079C94.7988 93.1916 93.5088 96.1478 93.5088 98.459C93.5088 99.5877 94.8525 106.038 95.7125 108.886C96.465 111.251 101.894 120.55 103.506 122.162C104.474 123.076 105.119 123.291 106.355 123.076C107.752 122.754 108.129 122.969 109.096 124.527C109.687 125.549 110.655 127.86 111.246 129.741C112.482 133.718 112.16 134.847 109.472 135.707C107.215 136.46 104.742 139.04 103.184 142.372C102.216 144.468 101.195 145.489 97.5937 147.908C95.2288 149.521 91.1976 152.316 88.6714 154.089C83.4578 157.744 78.0829 160.915 74.9654 162.205C71.9555 163.442 62.7107 167.365 58.8408 169.031C47.3922 173.976 32.9338 181.824 26.3227 186.715C19.3891 191.875 11.1117 201.55 7.6718 208.591C6.97307 210.042 6.00559 211.977 5.5756 212.783C4.33937 214.987 2.78065 220.63 1.54443 227.403C-0.0680398 235.895 -0.55178 269.703 0.738194 281.743C1.22193 286.204 1.49068 291.149 1.27568 292.761C1.11444 294.374 1.32943 300.125 1.81317 305.607C2.24316 311.09 2.78065 319.636 2.9419 324.688C3.15689 329.687 3.47939 335.546 3.74813 337.642C4.07063 340.06 4.07063 344.844 3.69438 350.273C3.37189 355.218 3.31814 363.764 3.53314 369.676L3.90938 380.318H132.584H261.313L260.99 379.136C260.829 378.437 260.399 374.245 260.077 369.837C259.485 362.689 259.539 361.345 260.345 357.744C262.818 347.048 262.495 328.451 259.539 313.723C258.088 306.306 257.927 304.801 258.303 300.501C258.84 293.944 258.679 289.268 257.712 283.678C257.282 281.098 256.905 276.959 256.905 274.433C256.905 268.682 255.615 257.395 254.487 253.202C251.154 240.625 248.736 236.164 240.62 227.134C235.675 221.652 234.062 220.147 227.881 215.524C226.269 214.288 222.99 211.547 220.679 209.504C218.314 207.408 214.39 204.398 211.918 202.839C198.48 194.347 188.644 186.446 186.118 182.092C184.774 179.835 184.613 179.029 184.613 174.46C184.613 169.139 183.646 165.591 181.173 161.507C179.776 159.249 179.776 158.12 181.12 151.832C182.141 147.156 183.968 135.6 185.419 124.474C186.118 119.26 186.817 116.196 187.784 114.261C188.322 113.133 188.859 112.918 191.224 112.756C193.965 112.595 194.18 112.488 196.277 109.746C199.018 106.199 200.792 102.007 201.813 96.6316C203.425 88.408 202.512 80.7756 199.77 78.6794L198.588 77.8194L199.878 75.562C201.007 73.5195 201.114 72.8208 200.899 67.8221C200.792 64.006 200.469 61.9098 199.878 60.996C199.233 60.0286 198.91 57.5561 198.642 51.0525L198.265 42.3989L200.2 40.464C202.512 38.1527 202.673 35.8415 200.792 33.0466C200.093 32.0254 199.179 30.0904 198.857 28.7467C197.997 25.5755 196.545 23.3181 192.676 19.0719C190.902 17.1369 188.214 14.127 186.709 12.3533C182.786 7.78461 179.292 6.0109 174.025 5.9034C171.767 5.9034 169.134 5.52716 168.22 5.15091C166.876 4.55968 166.177 4.61342 164.35 5.20466C162.307 5.84965 162.039 5.7959 159.62 4.45218C157.362 3.21595 156.341 2.94721 152.525 2.94721C149.623 2.89346 147.15 2.51722 145.376 1.87223C143.872 1.33474 141.829 0.743509 140.808 0.582262C137.69 0.152271 127.747 -0.170222 126.296 0.0985217Z" fill="#070D1C"/>
</g>
<defs>
<clipPath id="clip0_2404_1236">
<rect width="262" height="381" fill="white"/>
</clipPath>
</defs>
</svg>
