<svg width="262" height="381" viewBox="0 0 262 381" fill="none" xmlns="http://www.w3.org/2000/svg">
<path d="M126.296 0.0986271C122.641 0.797363 117.158 2.19483 114.74 3.05482C113.288 3.59231 109.687 4.39854 106.839 4.82853C103.345 5.31227 100.872 6.01101 99.4749 6.81724C97.11 8.26846 87.8652 18.3733 87.1127 20.362C86.4139 22.2432 87.0589 35.6267 87.9189 37.8841C88.9401 40.4103 88.9401 40.4641 86.4677 41.754C84.4252 42.7753 84.264 42.9903 84.5865 44.4415C84.7477 45.4627 84.5865 46.6989 84.1027 47.6127C82.5978 50.5151 83.4578 56.75 85.6077 58.4162C86.8439 59.4374 87.4889 62.8773 87.5427 69.166C87.5964 73.6271 88.3489 75.4008 92.0576 80.0232C94.2613 82.8182 95.2288 84.5919 96.1425 87.6556C97.54 92.493 97.54 92.1705 96.035 92.708C94.7988 93.1917 93.5088 96.1479 93.5088 98.4591C93.5088 99.5878 94.8525 106.038 95.7125 108.886C96.465 111.251 101.894 120.55 103.506 122.162C104.474 123.076 105.119 123.291 106.355 123.076C107.752 122.754 108.129 122.969 109.096 124.527C109.687 125.549 110.655 127.86 111.246 129.741C112.482 133.718 112.16 134.847 109.472 135.707C107.215 136.46 104.742 139.04 103.184 142.372C102.216 144.468 101.195 145.489 97.5937 147.908C95.2288 149.521 91.1976 152.316 88.6714 154.089C83.4578 157.744 78.0829 160.915 74.9654 162.205C71.9555 163.442 62.7107 167.365 58.8408 169.031C47.3922 173.976 32.9338 181.824 26.3227 186.715C19.3891 191.875 11.1117 201.55 7.6718 208.591C6.97307 210.042 6.00559 211.977 5.5756 212.783C4.33937 214.987 2.78065 220.63 1.54443 227.403C-0.0680397 235.895 -0.55178 269.703 0.738194 281.743C1.22193 286.204 1.49068 291.149 1.27568 292.761C1.11444 294.374 1.32943 300.125 1.81317 305.607C2.24316 311.09 2.78065 319.636 2.9419 324.688C3.15689 329.687 3.47939 335.546 3.74813 337.642C4.07063 340.06 4.07063 344.844 3.69438 350.273C3.37189 355.218 3.31814 363.764 3.53314 369.676L3.90938 380.318H132.584H261.313L260.99 379.136C260.829 378.437 260.399 374.245 260.077 369.837C259.485 362.689 259.539 361.345 260.345 357.744C262.818 347.048 262.495 328.451 259.539 313.723C258.088 306.306 257.927 304.801 258.303 300.501C258.84 293.944 258.679 289.268 257.712 283.678C257.282 281.098 256.905 276.959 256.905 274.433C256.905 268.682 255.615 257.395 254.487 253.202C251.154 240.625 248.736 236.164 240.62 227.134C235.675 221.652 234.062 220.147 227.881 215.524C226.269 214.288 222.99 211.547 220.679 209.504C218.314 207.408 214.39 204.398 211.918 202.839C198.48 194.347 188.644 186.446 186.118 182.092C184.774 179.835 184.613 179.029 184.613 174.46C184.613 169.139 183.646 165.591 181.173 161.507C179.776 159.249 179.776 158.12 181.12 151.832C182.141 147.156 183.968 135.6 185.419 124.474C186.118 119.26 186.817 116.196 187.784 114.261C188.322 113.133 188.859 112.918 191.224 112.756C193.965 112.595 194.18 112.488 196.277 109.746C199.018 106.199 200.792 102.007 201.813 96.6317C203.425 88.4081 202.512 80.7757 199.77 78.6795L198.588 77.8195L199.878 75.5621C201.007 73.5196 201.114 72.8209 200.899 67.8222C200.792 64.0061 200.469 61.9099 199.878 60.9961C199.233 60.0287 198.91 57.5562 198.642 51.0526L198.265 42.399L200.2 40.4641C202.512 38.1528 202.673 35.8416 200.792 33.0467C200.093 32.0255 199.179 30.0905 198.857 28.7468C197.997 25.5756 196.545 23.3182 192.676 19.072C190.902 17.137 188.214 14.1271 186.709 12.3534C182.786 7.78472 179.292 6.01101 174.025 5.90351C171.767 5.90351 169.134 5.52727 168.22 5.15102C166.876 4.55979 166.177 4.61353 164.35 5.20477C162.307 5.84976 162.039 5.79601 159.62 4.45229C157.362 3.21606 156.341 2.94732 152.525 2.94732C149.623 2.89357 147.15 2.51733 145.376 1.87234C143.872 1.33485 141.829 0.743614 140.808 0.582367C137.69 0.152376 127.747 -0.170117 126.296 0.0986271Z" fill="black"/>
</svg>
