<svg width="198" height="198" viewBox="0 0 198 198" fill="none" xmlns="http://www.w3.org/2000/svg">
<path d="M20.5 175L20.5 75.5H30.4211C35.9875 75.5 40.5 70.9875 40.5 65.4211V62.0532V58.5789C40.5 53.0125 35.9875 48.5 30.4211 48.5H20.5V23C20.5 21.6193 21.6193 20.5 23 20.5H158.842C169.147 20.5 177.5 28.8534 177.5 39.1579V175C177.5 176.381 176.381 177.5 175 177.5H148H147.5V178V189C147.5 193.694 143.694 197.5 139 197.5H133C128.306 197.5 124.5 193.694 124.5 189V178V177.5H124H23C21.6193 177.5 20.5 176.381 20.5 175Z" fill="#E2F0CB" stroke="#070D1C"/>
</svg>
