<svg width="198" height="198" viewBox="0 0 198 198" fill="none" xmlns="http://www.w3.org/2000/svg">
<g clip-path="url(#clip0_504_568)">
<path d="M175 177.5L75.5 177.5V167.579C75.5 162.012 70.9875 157.5 65.4211 157.5H62.0532H58.5789C53.0125 157.5 48.5 162.012 48.5 167.579V177.5L23 177.5C21.6193 177.5 20.5 176.381 20.5 175L20.5 39.1579C20.5 28.8534 28.8534 20.5 39.1579 20.5L175 20.5C176.381 20.5 177.5 21.6193 177.5 23L177.5 50V50.5H178H189C193.694 50.5 197.5 54.3056 197.5 59V65C197.5 69.6944 193.694 73.5 189 73.5H178H177.5V74L177.5 175C177.5 176.381 176.381 177.5 175 177.5Z" fill="#E2F0CB" stroke="#070D1C"/>
</g>
<defs>
<clipPath id="clip0_504_568">
<rect width="198" height="198" fill="white"/>
</clipPath>
</defs>
</svg>
