<svg width="198" height="198" viewBox="0 0 198 198" fill="none" xmlns="http://www.w3.org/2000/svg">
<path d="M177.5 23L177.5 122.5H167.579C162.012 122.5 157.5 127.012 157.5 132.579V135.947V139.421C157.5 144.988 162.012 149.5 167.579 149.5H177.5L177.5 175C177.5 176.381 176.381 177.5 175 177.5L39.1579 177.5C28.8534 177.5 20.5 169.147 20.5 158.842L20.5 23C20.5 21.6193 21.6193 20.5 23 20.5L50 20.5L50.5 20.5V20V9C50.5 4.30558 54.3056 0.5 59 0.5L65 0.5C69.6944 0.5 73.5 4.30558 73.5 9V20V20.5H74L175 20.5C176.381 20.5 177.5 21.6193 177.5 23Z" fill="#E2F0CB" stroke="#070D1C"/>
</svg>
