<svg width="198" height="198" viewBox="0 0 198 198" fill="none" xmlns="http://www.w3.org/2000/svg">
<g clip-path="url(#clip0_504_703)">
<path d="M23 20.5H122.5V30.4211C122.5 35.9875 127.012 40.5 132.579 40.5H135.947H139.421C144.988 40.5 149.5 35.9875 149.5 30.4211V20.5H175C176.381 20.5 177.5 21.6193 177.5 23V158.842C177.5 169.147 169.147 177.5 158.842 177.5H23C21.6193 177.5 20.5 176.381 20.5 175L20.5 148V147.5H20H9C4.30558 147.5 0.5 143.694 0.5 139L0.5 133C0.5 128.306 4.30558 124.5 9 124.5H20H20.5V124V23C20.5 21.6193 21.6193 20.5 23 20.5Z" fill="#E2F0CB" stroke="#070D1C"/>
</g>
<defs>
<clipPath id="clip0_504_703">
<rect width="198" height="198" fill="white"/>
</clipPath>
</defs>
</svg>
