<svg xmlns="http://www.w3.org/2000/svg" xmlns:xlink="http://www.w3.org/1999/xlink" width="165" height="584" fill="none"><g clip-path="url(#K)"><g fill="#fff7f7"><path d="M30.544 473.361l-3.4 5.015.646 3.456 4.555 3.318 15.767 8.316 6.544 5.693 11.041 9.879 2.677-5.528-17.189-17.578-20.643-12.571zM138.777 568.6s.158 4.226-1.305 7.01-4.543 4.119-4.543 4.119-5.287 2.813-13.168 2.998-18.354-2.272-18.354-2.272l-5.572-1.74-12.733-5.152-13.424-8.263-4.937-4.931 1.161-5.262 8.324 6.616 11.941 6.53 16.733 6.007 15.382 2.6 9.347-.9s7.149-2.614 10.254-5.21"/></g><g fill="#070d1c"><path d="M68.605 532.781l-2.052.848.208 3.88s-.018 1.493.134 3.116c.204 2.175-.199 5.686-.199 5.686l-1.238 8.735s3.01 3.223 7.472 6.24 10.372 5.819 10.372 5.819 5.392 3.127 14.8 6.158c9.387 3.02 20.036 4.299 23.325 3.967 5.358-.545 9.749-1.921 12.559-3.565 2.177-1.276 3.788-2.176 4.37-4.13s.504-3.327-.57-5.063c-1.171-1.896-2.518-3.256-6.8-6.369s-9.792-5.649-9.792-5.649l-6.56-5.52-13.014-12.965s-14.283 3.215-18.203 4.41c-3.26.992-4.862.848-6.713.431-2.557-.579-3.793-1.346-5.926-2.791-2.104-1.423-2.642-2.157-2.642-2.157M40.312 456.41l-3.564 3.208-7.317 14.547s2.424 3.485 7.993 7.044 10.668 5.199 13.73 7.069c3.197 1.95 17.303 16.32 17.303 16.32l8.519-23.515-7.513-9.525-29.151-15.148z"/></g><g fill="#c2bac6"><path d="M99.254 573.585a51.72 51.72 0 0 0 4.822 1.475 55.72 55.72 0 0 0 5.409 1.007s-1.911-2.596-2.736-5.41-.612-5.955-.612-5.955 2.794-.107 3.328-2.065c.79-2.902-4.599-5.959-4.599-5.959l-18.447-14.005-2.394-4.491s-2.207.697-3.395.804c-1.839.165-3.647-.093-3.647-.093s.177 3.385 3.3 7.254 9.23 8.47 9.23 8.47l9.986 8.96s-.562 3.99-.508 5.285m27.038-13.715s-1.055 2.353-5.072-.35c-4.135-2.784-7.05-4.55-11.919-8.939s-10.087-10.24-10.087-10.24l1.295-.641 1.455-.756 10.619 10.469m-61.625-78.974s.573 6.258 3.087 11.21 6.971 8.592 6.971 8.592l10.741 11.195 2.929-6.567s-9.571-9.477-13.918-15.067c-2.077-2.674-2.606-7.947-2.606-7.947l-2.263-1.693"/></g><g stroke="#fff7f7" stroke-width="3.814" stroke-miterlimit="10" stroke-linecap="round" stroke-linejoin="round"><path d="M82.385 540.907c4.633-.597 13.635-4.52 17.86-3.691"/><path d="M101.18 535.662c-3.683 3.706-9.469 6.169-12.674 10.318m-1.871 1.222c5.113-2.666 10.414-4.521 15.817-6.014m3.059-1.458c-3.484 4.51-8.564 8.246-11.945 12.623m-.376.425c3.751-2.519 11.796-5.443 16.251-6.674m2.215-.36c-2.062 3.632-5.889 9.035-9.105 11.933m-.377.73c5.659-1.213 9.169-6.94 15.239-7.721M56.42 471.932c5.08.276 20.199 1.95 15.115 2.116m-.616.005c-1.973 2.105-6.358 4.937-7.701 7.474"/><path d="M63.254 481.324c3.365-.823 8.34-2.383 11.818-1.804m1.222-.442c-1.347 2.545-4.871 6.498-7.042 8.05m.891.326c.111-.154 3.242-.619 3.853-.295"/></g><path d="M5.299 163.738s1.853-7.801 5.178-13.065 4.181-5.693 8.585-8.338 8.475-2.138 8.475-2.138.458-4.101 3.506-7.868c1.205-1.489 7.316-6.606 9.178-7.195 2.849-.902 1.773 3.062 1.773 3.062s4.399.771 11.052 3.671 15.559 7.929 15.559 7.929 3.569-4.154 4.809-9.094c.889-3.541-.67-7.75-.67-7.75l5.82-8.273 4.962.994s.907-1.914 2.211-2.926 3.003-1.12 3.003-1.12 1.511-3.968 3.131-5.748 6.407-1.898 6.407-1.898 1.652-3.841 4.115-6.137 5.741-3.046 5.741-3.046.117-4.446 2.778-6.948 12.791-3.411 12.791-3.411l-.17-13.487s-3.71-4.398-5.29-8.858c-.921-2.602.112-14.757.112-14.757l-3.193-5.305s-.661-2.136.253-2.535c1.079-.471.027 1.1 1.729 1.605s2.026.556 5.194.162 5.82-.9 9.539-2.36 4.153-1.688 4.974-3.482c.599-1.31-.159-2.77-.159-2.77l2.832.364s5.701 5.398 5.596 6.247c-.469 3.79 5.192 5.81 7.717 9.363 8.081 11.374 10.265 40.944 10.265 40.944s-5.893 16.683-14.811 29.874-20.863 22.887-20.863 22.887l7.539 104.119 3.271 10.539s-13.889-.132-26.774 1.33-12.743 1.729-25.032 5.159-13.931 4.171-24.444 9.574-17.339 11.399-17.339 11.399l-1.405-4.944s-1.75.161-3.402-2.108c-.774-1.062-3.426-8.849-3.426-8.849s-6.689 1.86-12.158.082-7.598-3.878-11.842-8.914-8.179-29.643-8.179-29.643-2.298-19.58-2.772-33.044.875-20.809.875-20.809" fill="#c2bac6"/><g fill="#a09bab"><path d="M127.263 142.147s-2.999-.874-5.585-3.945-4.756-8.337-4.756-8.337 9.892-1.884 11.935-2.549c8.184-2.665 11.19-13.745 14.792-19.148s3.521-4.941 6.361-8.281 4.998-5.079 4.998-5.079-3.632 1.232-7.542.645c-8.136-1.22-11.235-3.986-13.732-6.624s-4.413-6.497-4.413-6.497 3.032 3.157 6.15 5.474 3.043 2.295 6.627 3.196 7.711.411 7.711.411l5.495-1.801s1.816-5.462.415-15.665c-1.023-7.461-1.611-9.61-3.262-15.741s-1.146-4.749-3.343-8.782-5.663-7.642-5.663-7.642-.23-2.263-1.248-3.95-2.825-2.8-2.825-2.8l-.058-1.48s2.653 1.246 4.005 3.071 1.404 4.225 1.404 4.225 3.892 2.134 7.009 6.191 5.455 10.038 5.455 10.038 2.744 9.982 4.278 18.06 1.858 14.249 1.858 14.249l-9.792 21.624s-4.669 8.083-11.238 15.868-15.036 15.268-15.036 15.268zm-53.333-13.82s1.851-3.306 4.207-4.251 5.218.471 5.218.471 1.752-3.73 3.276-5.645 2.822-2.016 2.822-2.016-.121-4.092.874-7.066 3.108-4.83 3.108-4.83l-2.355 1.492-2.207 4.835-3 1.133-2.167 3.73-2.136-1.398-3.471-.295-5.128 8.447m-40.314 86.845s1.562-4.83 1.935-10.611.151-6.791-.445-12.512.015-5.528-.715-10.967-2.205-10.787-2.205-10.787 4.217 6.437 6.973 13.291 2.816 8.254 4.053 14.124.894 9.357.894 9.357l-4.887 6.913m-14.182 58.894c6.837-5.699 14.258-15.683 14.258-15.683l11.006-13.845 11.47-19.085 1.214-.097 1.421-2.508 2.165-3.238.597-3.137 2.164.281 1.711-2.937 1.397 1.084 1.624 3.099-.122 1.672-2.656 4.521-.221 1.785s1.128 4.173-3.353 8.432c-4.463 4.241-10.933 11.75-10.933 11.75l-6.874 14.465-7.924 10.498-8.921 5.022"/><path d="M42.977 263.02l16.551-11.878 6.949-6.779 6.715-3.925 4.039-5.894 8.177-3.236 13.573-3.886 7.166-3.15 1.972-4.738 1.103-8.04-1.155-.283-7.452-.909-8.074.973 3.558-1.961 6.782-.651 1.973-1.115-1.408-1.45-3.618-.711-5.349.341-6.49 1.663-13.694 10.424-4.633 5.723-12.945 14.103m59.915.351c-2.181-.027-4.368.018-6.546.138-3.537.195-7.079.512-10.532 1.337-.691.165-1.372.369-2.051.576-1.206.368-2.416.74-3.595 1.187-2.193.83-4.331 1.788-6.488 2.708l-4.759 2.005c-.997.393-2.016.726-2.996 1.164a1 1 0 0 0-.622 1.279c.181.53.749.815 1.279.634 1.078-.263 2.089-.665 3.123-1.06 2.676-1.024 5.255-2.234 7.87-3.4 2.082-.928 4.196-1.853 6.361-2.57 1.806-.598 3.688-1.025 5.555-1.383 1.42-.271 2.839-.52 4.275-.691 2.412-.288 4.845-.42 7.272-.507l3.26-.092c.426-.016.995.015 1.406-.069.373-.076.618-.244.945-.426.067 0 .126-.061.127-.127s-.06-.115-.127-.116c-.322-.19-.562-.375-.933-.461-.414-.095-.989-.064-1.418-.08l-1.405-.046zM63.855 266.36c-.09-.083-.239-.078-.323.012-.549.115-1.169.181-1.648.495-.206.136-.486.417-.669.577l-.726.622c-.495.484-.942 1.039-1.417 1.544l-4.563 4.621c-2.01 1.877-4.259 3.672-6.81 4.748-.658.277-1.325.522-2.028.656-.296.057-.461.066-.761.093-.174.015-.373-.015-.541.046-.214.077-.406.209-.623.288a.2.2 0 0 0-.242.138c-.026.103.036.204.138.23.166.176.356.405.565.531.198.119.469.121.691.138a6.94 6.94 0 0 0 1.441-.035c1.429-.19 2.737-.753 3.998-1.429 1.986-1.063 3.78-2.409 5.543-3.802a56.35 56.35 0 0 0 4.598-4.056l1.556-1.556.369-.358c.212-.245.381-.536.576-.795.149-.196.41-.494.53-.714.276-.502.284-1.126.357-1.682a.22.22 0 0 0-.012-.312zm20.979-145.035c-.408-.032-.816.115-1.221.173-.076-.111-.224-.145-.335-.07s-.145.236-.069.346c-.213.339-.468.65-.634 1.014-.076.167-.079.358-.069.542.007.142.068.281.115.415s.106.254.162.38c.281.633.561 1.244.714 1.924a11.8 11.8 0 0 1 .184 3.93c-.203 1.576-.55 3.202-1.118 4.69-.355.928-.866 1.801-1.245 2.72-.191.462-.309.941-.496 1.405-.416 1.037-.909 2.042-1.406 3.042l-.772 1.637a.76.76 0 0 0 .138 1.06.76.76 0 0 0 1.06-.138l1.037-.957c.969-.96 1.789-2.091 2.57-3.203l.933-1.349c.552-.98.876-2.044 1.245-3.099.494-1.413.985-2.839 1.233-4.322.183-1.091.269-2.235.288-3.341.023-1.308-.195-2.623-.53-3.884-.146-.548-.312-1.11-.553-1.625-.083-.175-.171-.344-.277-.507s-.205-.348-.357-.472c-.174-.143-.374-.294-.599-.311z"/><path d="M32.972 138.564c-.51.022-1.04.118-1.544.196-1.051.163-2.204.393-2.973 1.198-.152.16-.27.355-.403.53a.48.48 0 0 0-.346.588c.068.261.338.425.6.357.518.241 1.014.446 1.59.508.595.062 1.212.002 1.809 0l1.302.057h.841c.562.024 1.124.103 1.682.173 1.238.155 2.503.421 3.688.818l2.985 1.003 2.074.899 8.885 4.228c1.725.756 3.486 1.437 5.289 1.982.745.226 1.522.321 2.282.485 1.054.226 2.125.457 3.203.518.939.053 1.866-.021 2.8-.115.802-.081 1.576-.224 2.351-.45.156-.045.311-.076.461-.138.246-.101.66-.36.888-.495a.27.27 0 0 0 .196-.334c-.038-.15-.184-.246-.334-.208l-.979-.046-2.65.092c-.987-.02-1.967-.187-2.938-.346l-2.466-.53c-.556-.166-1.066-.414-1.601-.634l-2.812-1.21-3.63-1.878-6.269-3.33-1.729-.795-1.763-.83-1.809-.657-1.798-.645c-.941-.306-1.919-.497-2.893-.668-.993-.176-1.965-.255-2.973-.288l-1.014-.035zm66.803-36.655a.44.44 0 0 0-.254.231c-.358.601-.706 1.229-.945 1.889-.648 1.795-.642 3.82-.496 5.693l.184 1.832c.152 1.009.456 2.008.703 2.996.206.826.34 1.65.473 2.489.308-1.684.474-3.355.392-5.07-.057-1.189-.329-2.359-.403-3.549-.124-1.998.171-4.013.91-5.877.112-.226.019-.499-.207-.611-.113-.056-.246-.061-.357-.023z"/></g><g fill="#eed1bf"><path d="M137.111 35.142s-2.497-3.302-3.549-6.976-.942-7.936-.942-7.936-.308-4.292-1.508-7.677-3.29-5.862-3.29-5.862-.976-1.289-2.297-1.542-2.988.529-2.988.529-1.687-1.335-2.839-1.6c-1.083-.249-4.107.175-4.107.175l-1.777-1.884s-2.884-.535-4.225-.037-1.506 2.051-1.506 2.051l-3.219-2.679s-2.194-.588-3.271.441-1.355 3.441-1.355 3.441-2.35-1.812-3.26-2.091c-.829-.254-4.157-.493-4.383.856s2.332 3.893 2.332 3.893l4.417 6.438 3.926 6.39s2.02 4.695 4.187 6.986 4.483 2.181 4.483 2.181l4.205 9.731s-.051 1.826 4.04 1.629c2.535-.122 8.665-.901 12.32-2.452s4.607-4.006 4.607-4.006zM68.375 140.333s3.366-4.747 4.661-8.002-.109-9.02-.109-9.02l3.881-6.877s1.501-2.314 2.65-5.165 3.01-6.119 4.719-13.696 2.116-16.614 2.116-16.614l-12.07 1.842-14.723-.322-16.092-1.898-16.52-.099s-1.152 5.267-.886 9.017 2 5 2 5-.002 4.288 1.252 6.136 3.712 2.239 3.712 2.239 5.711 11.854 7.84 18.166.678 7.084.678 7.084 10.243 3.259 13.463 4.811M42.076 453.912l-2.154 3.924s1.369 1.589 4.096 3.65 6.277 4.363 8.289 4.823 3.272-.538 3.272-.538-6.456-4.204-8.846-6.409m20.888 74.609l1.142-2.633 4.748 3.492 9.484 3.676s-2.894 1.085-5.791.686-3.485-.911-5.8-2.275c-2.975-1.751-3.784-2.946-3.784-2.946z"/><path d="M67.646 211.168l2.165-3.522 3.454-.619 4.577-2.675 5.616-5.413 3.65-4.09 2.467-.045 5.168-2.534 6.349-9.368-.494-9.393s-4.737-3.334-11.727-3.074c-1.45.055-6.405 2.847-6.405 2.847s2.921-3.307 6.326-4.469 7.297-.181 7.297-.181 3.146.188 3.457-.943c.532-1.934-2.7-3.686-2.7-3.686s-4.171-2.24-7.255-1.084c-4.168 1.562-12.397 3.93-18.237 8.064-6.292 4.454-10.162 14.71-10.162 14.71l-3.454 5.841-2.569 2.099-.149 3.691L62.506 207l5.14 4.168z"/></g><g fill="#c3ada5"><path d="M33.412 104.611s4.803 7.54 9.869 13.657 4.838 6.88 10.394 10.813 6.794 5.253 11.831 4.918 8.316-6.257 8.316-6.257l-.508-4.775-5.659 4.537-7.583-1.119-9.952-4.452-8.128-7.098-8.579-10.224zm31.834 104.013l3.162-3.68 4.744-1.186s2.62-.758 5.731-2.656 6.713-4.936 6.713-4.936-3.516 4.415-6.589 7.07-5.703 3.549-5.703 3.549l-3.134.675-2.439 3.394-2.485-2.23z"/></g><g opacity=".8"><path d="M37.668 91.172C38.496 78.896 24.985 79.61 26 90.501 30 104 39.54 105.08 38.287 88.141" fill="url(#A)"/><path opacity=".8" d="M52.624 103.714c3.984-.399 2.762-2.713 1.463-7.734-1.65-6.38-24.358 2.943-11.356 13.726 9.832 8.153 18.718-6.337 11.566-14.98" fill="url(#B)"/><path d="M84.814 193.909c11.294 3.012 28.56-25.253.426-21.033-7.115 1.067-8.786 8.914-5.685 14.496" fill="url(#C)"/><path d="M78.848 174.869c4.475-1.599 7.202-5.552 11.867-7.106 14.516-4.839-8.235-2.723-14.78 1.776-4.975 3.421-.473 6.971 3.908 4.05" fill="url(#D)"/><path d="M105.678 12.547l-3.964-5.266c-13.599-17.224-2.258 20.608 4.999 7.893" fill="url(#E)"/><path d="M103.978 10.362c-1.456-1.154-5.392-9.974-.409-8.619 7.539 2.05 7.478 15.039 1.794 10.463" fill="url(#F)"/><path d="M110.554 12.788c-8.816-16.827 21.33-10.584 21.038 3.708-.343 16.766-22.29 6.423-23.664-4.841" fill="url(#G)"/><path opacity=".8" d="M81.537 101.471c1.55.093 1.523-1.681 1.964-5.401.56-4.727-9.574-.209-6.734 8.751 2.148 6.776 8.106-2.758 7.042-9.629" fill="url(#H)"/></g><g fill="#598dac"><path d="M79.98 414.666c-.313 10.152-.175 12.973-2.34 27.015s-6.526 30.683-6.526 30.683-9.333-1.18-20.494-8.75c-7.126-4.834-12.528-15.119-12.528-15.119s17.022-20.451 26.288-34.865 12.399-22.734 12.399-22.734 3.514 13.622 3.201 23.77zm15.345 122.461c-4.053 1.478-10.823 2.168-15.919.365-4.935-1.748-16.087-9.212-16.83-12.674-.6-2.795.919-8.057.919-8.057s9.937-24.585 15.374-42.433.684-2.632 6.374-28.957c2.93-13.559 10.876-25.035 10.876-25.035l-19.474-37.734s-13.94-21.48-21.858-41.182-9.815-37.624-9.815-37.624l.481-12.884 7.323-5.971s4.964 8.652 12.044 13.526 8.683 5.547 16.277 5.975 24.964-12.093 24.964-12.093 8.32.522 14.688-1.107 6.559-4.853 13.537-6.696 14.373-.679 14.373-.679 5.581 7.597 4.713 22.23-6.909 37.513-6.909 37.513l-4.55 28.641-1.638 14.654 8.645 21.963s1.785 12.29.266 17.884c-4.241 15.628-10.355 26.547-17.387 45.397-1.637 4.388-10.877 24.076-16.974 39.043-3.723 9.145-5.728 14.315-7.341 19.607"/></g><g fill="#4d7796"><path d="M79.619 407.325l-2.801-16.394 2.246-3.636 17.032 33.294c-6.397 11.391-6.09 10.465-9.701 21.845s-4.959 23.689-4.959 23.689-4.769 7.832-10.425 6.136c-2.565-.771 5.347-25.982 6.008-30.264.838-5.431 2.244-11.007 2.743-19.713s-.144-14.957-.144-14.957zm50.01-69.022l3.481 13.437 8.531 21.915-1.324 13.356s-6.693-19.924-7.555-26.812m-80.174-75.174s1.649 3.461 4.271 6.495 9.093 7.831 9.093 7.831 2.911 2.424 5.669 3.593 6.819 2.631 11.527 1.524c5.472-1.283 12.816-5.441 12.816-5.441l10.379-6.251s8.472.391 14.833-1.508 6.239-4.194 11.624-5.364c7.056-1.534 15.991-1.858 15.991-1.858l-6.287-14.677s-7.469 1.866-14.324 5.034-10.607 8.524-12.313 8.844c-10.058 1.89-12.293-.184-12.908.709-4.286 6.221-7.543 9.22-15.919 12.3s-13.345 1.188-17.583.019m-24.883 8.166l.679-13.692 5.715-4.642s-5.577 18.016-6.394 18.334zm62.535 227.102s-2.861 1.236-6.577 3.326c-5.346 3.009-8.425 3.537-8.425 3.537s34.139-75.247 49.172-101.27c2.576-4.458 5.967-5.546 5.967-5.546"/></g><path d="M44.64 305.721s-4.172 1.287-6.292-.019c-3.831-2.355-1.753-5.848-1.753-5.848l8.766-16.056s8.958-6.267 16.46-10.528 13.732-6.408 21.091-8.971 25.979-5.774 25.979-5.774 20.329-3.726 29.202-1.241c3.711 1.04 3.365 2.283 8.071 2.25s8.981-1.865 8.981-1.865-4.647 6.275-11.654 10.519-9.363 3.226-16.153 6.919-5.433 6.427-11.615 8.453c-5.495 1.801-12.445.598-12.445.598s-6.853 10.381-15.811 13.027-8.931 2.43-17.692-.675-17.02-11.26-17.02-11.26l-7.31 5.553" fill="#fff7f7"/><g fill="#ec678a"><path d="M44.124 80.358s-.311 2.03-.048 4.201 1.116 4.495.822 4.732c-.176.142-3.407-3.274-3.407-3.274l-1.776.038s-1.305 2.209-1.548 3.613 1.075 1.789.576 2.003c-.713.305-1.926-1.18-2.704-2.584-.253-.457-1.383-2.11-1.383-2.11l-2.779-.496-1.38-.545 2.704-1.864-3.288-.156-2.96-1.117-.853-.939-2.51 1.866-.547-4.785-2.729-.207c-1.361-.164-3.332-1.499-2.84-1.58.194-.032 2.052.322 3.86.132 1.575-.165 2.387-1.164 2.387-1.164s-1.218.242-3.001-.552-4.132-2.622-4.132-2.622l5.109-.21 2.416-1.796 5.824 3.506 7.555 3.873m29.484 4.66l-.413 3.411-1.766 3.521 2.797-1.561 1.002 2.012s2.335 2.526 2.762 2.05-.947-2.036-1.04-3.144.668-1.287.668-1.287l1.535.52 3.243.149-1.386-2.178.223-3.936m11.322-2.182l5.108-2.502 2.552.346s1.869-.943 2.574-.716.496 1.326.243 1.622-2.459 2.387-2.459 2.387l3.607.689 3.251 1.507.764 1.984s-2.496-1.142-4.917-.834-4.766 2.066-4.766 2.066l-1.765 4.327-1.388 1.469-.392-5.401-2.653 2.59.407-5.221"/></g><path d="M27.256 56.584s-2.503.26-3.071 1.608c-1.369 3.253-1.368 11.795-1.368 11.795s5.761 5.242 14.411 8.305 9.503 2.998 20.188 3.947 14.268 1.04 22.553-.151 11.537-4.156 11.537-4.156l-.158-11.045-2.561-2.624s.447-2.695-.738-5.74c-.918-2.359-1.104-2.591-3.758-6.477s-3.398-5.671-5.951-7.633c-2.764-2.124-7.632-4.663-15.997-6.092s-12.238.184-16.297 1.181c-4.29 1.054-6.94 3.278-11.638 7.548s-7.153 9.534-7.153 9.534z" fill="#070d1c"/><path opacity=".8" d="M74.09 111.726l-5.165.838-.627.287-.866-.356-8.515-1.124 5.165 1.854 3.983.556 3.574-.815 2.45-1.24z" fill="url(#I)"/><path opacity=".8" d="M72.76 114.099c-.934 1.692-1.895 3.414-3.811 4.526-1.996 1.159-5.673-1.78-5.673-1.78l-1.793-2.495 6.869 2.051s5.343-3.993 4.409-2.302z" fill="url(#J)"/><g fill="#070d1c"><path d="M114.856 297.626c-.044.007-.065.048-.058.092.055.679.124 1.364.277 2.028.367 1.597.942 3.163 1.498 4.7l3.157 8.01 3.169 8.23 1.96 5.911 1.751 5.45c1.781 6.221 2.861 12.634 3.814 19.024l1.36 9.256c.437 2.456 1.105 4.878 1.648 7.316.795 3.573 1.502 7.15 2.477 10.682.895 3.242 1.976 6.428 3.089 9.599 1.227 3.5 2.597 6.947 4.079 10.347 1.238 2.84 2.602 5.631 3.584 8.574.453 1.36.814 2.743 1.14 4.137.586 2.504 1.001 5.041 1.187 7.607a55.04 55.04 0 0 1 .139 3.813c.002.494.013.992-.012 1.486-.09 1.789-.526 3.555-1.129 5.233-.303.844-.617 1.692-1.037 2.489-.05.07-.036.17.035.217s.168.037.218-.033c.332-.361.664-.745.922-1.165.438-.708.728-1.512.968-2.305.337-1.11.556-2.245.749-3.388.262-1.553.489-3.087.53-4.665.072-2.766-.206-5.524-.703-8.242-.352-1.921-.807-3.857-1.417-5.715-.708-2.154-1.641-4.23-2.558-6.302-1.218-2.751-2.459-5.498-3.561-8.297-1.781-4.525-3.373-9.134-4.725-13.806-.855-2.958-1.534-5.967-2.27-8.953l-1.291-5.358c-.321-1.298-.677-2.578-.921-3.894-.625-3.371-1.007-6.789-1.51-10.178-.809-5.446-1.775-10.878-3.203-16.199-.605-2.257-1.249-4.499-2.005-6.708-.727-2.12-1.586-4.196-2.409-6.279l-4.575-11.398-2.834-6.948c-.297-.79-.55-1.587-.819-2.386-.215-.639-.452-1.26-.622-1.913-.007-.044-.048-.076-.092-.069zm-.355-12.96c-.054.021-.079.085-.058.139l.703 2.408 1.199 3.734c.71 2.417 1.314 4.865 1.659 7.363.173 1.252.296 2.566.127 3.826-.067.489-.16.984-.277 1.463-.055.227-.158.451-.127.679.021.152.099.284.15.428.136-.077.292-.122.404-.232.09-.089.126-.214.172-.332.138-.352.208-.772.265-1.142.172-1.117.142-2.275.092-3.399-.083-1.915-.443-3.76-.875-5.624-.289-1.245-.667-2.471-1.06-3.687l-1.164-3.284-1.072-2.271c-.021-.054-.084-.09-.138-.069zm5.701-3.229c-.033.015-.049.048-.035.081l.83 2.593.657 2.028c.626 2.035 1.177 4.119 1.579 6.211.446 2.323.673 4.686.887 7.041.305 3.353.259 6.712-.081 10.06-.134 1.328-.3 2.644-.576 3.953-.237 1.121-.592 2.209-.922 3.308-.084.247.051.523.3.608s.526-.048.611-.298c.503-1.335.84-2.729 1.129-4.127a37.47 37.47 0 0 0 .749-6.427c.101-3.187-.046-6.41-.495-9.566-.224-1.574-.573-3.138-.911-4.69-.46-2.119-.976-4.213-1.671-6.269-.229-.679-.455-1.37-.737-2.028-.359-.837-.808-1.64-1.233-2.443-.015-.034-.047-.05-.081-.035z"/><path d="M120.424 284.674a.5.5 0 0 0-.391.023l-2.282 1.117-1.567.657-.761.426c-.041.011-.068.052-.058.093s.052.068.093.058l.899-.012c.574-.047 1.148-.262 1.694-.438.834-.269 1.632-.597 2.431-.956a.53.53 0 0 0 .242-.703c-.063-.13-.174-.221-.3-.265z"/><path d="M120.401 283.636c-.148-.054-.318-.049-.472.023l-1.567.841-1.614.726-1.625.807c-.083.027-.131.112-.103.196s.123.131.207.103l1.798-.322c1.173-.301 2.31-.76 3.422-1.234.308-.143.443-.51.3-.817-.072-.155-.198-.269-.346-.323z"/><path d="M120.492 282.516a.52.52 0 0 0-.392.069l-3.042 1.59-1.383.577c-.328.16-.569.353-.864.564-.015.004-.016.02-.012.035s.008.015.023.011c.391.036.655.087 1.049.035.499-.066 1.014-.244 1.498-.38 1.233-.348 2.285-.731 3.284-1.556a.52.52 0 0 0 .161-.715c-.077-.12-.193-.202-.322-.23zM99.726 418.264c-.746.048-1.53.726-1.89 1.279-.042.067-.069.137-.104.207s-.102.14-.104.221c-.007.476.002.008-.104.24-.016.022-.02.044 0 .059s.054.007.069-.011l.161 1.176c-.053-.442-.031-.9.035-1.338.012-.078.121-.093.184-.137.215-.166.386-.365.588-.542.559-.494 1.315-.933 1.81-.118.066.111.115.214.161.336.078.206.134.427.173.645.164.933.168 2.319-.438 3.112-.428.557-.769.129-1.198-.103l-.438-.221-.334-.207c-.062-.04-.158-.055-.184-.125-.16-.424 0 0-.196-.14l.046.243a3 3 0 0 0 .518 1.117c.128.163.338.284.519.38.701.376 1.462.188 1.913-.483.637-.951.704-2.338.53-3.437-.081-.508-.228-1.039-.518-1.475a1.78 1.78 0 0 0-.484-.483 1.13 1.13 0 0 0-.715-.195zm-1.809 4.333l-.208-1.188c-.056-.475-.005-.003.184 1.199.016-.015.02-.015.023-.011zm-45.181-137.74c-.223.029-.452.018-.668.081-.201.058-.377.174-.565.265l-1.106.564c-1.051.562-2.07 1.184-3.054 1.856a44.1 44.1 0 0 0-4.667 3.687l-2.074 2.028-.876 1.014c-.869 1.003-1.724 2.024-2.42 3.158-1.093 1.779-1.938 3.978-1.337 6.084.17.6.459 1.194.876 1.658 1.355 1.516 3.783 2.047 5.692 1.523.554-.151 1.082-.361 1.533-.726.489-.399.767-.963 1.037-1.523.01-.011.011-.022 0-.033s-.024-.012-.035 0l-.611.313c-.194.077-.393.118-.588.195-.638.244-1.263.576-1.947.668-.615.081-1.237.07-1.844-.059-.473-.1-.931-.258-1.36-.483-.406-.214-.818-.48-1.118-.83-.419-.49-.579-1.18-.633-1.809-.133-1.516.312-2.862 1.002-4.195.844-1.629 1.965-3.078 3.238-4.39 1.885-1.944 3.951-3.666 6.176-5.209l3.399-2.27 1.026-.668c.174-.112.362-.198.518-.335.169-.147.292-.337.438-.506.019-.01.033-.028.023-.047s-.039-.021-.058-.011zm72.28-8.096c-.033-.031-.084-.021-.116.012l-3.491 2.869c-1.155.864-2.34 1.678-3.619 2.351l-1.267.622-1.302.519c-1.292.552-2.673.907-4.068 1.083-1.598.202-3.239.195-4.84.023l-2.558-.334c-.214-.046-.426.086-.472.299s.085.427.299.473c.853.301 1.73.429 2.628.519 1.361.135 2.72.134 4.079-.024 1.638-.19 3.2-.61 4.771-1.094l.921-.311c2.264-.951 4.411-2.28 6.258-3.895.741-.649 1.58-1.357 2.189-2.132.215-.273.389-.568.588-.853.031-.033.033-.095 0-.127z"/><path d="M154.956 257.285a.49.49 0 0 0-.346.138c-1.108.921-2.058 2.015-3.065 3.043l-5.359 5.139c-1.151.987-2.344 1.931-3.664 2.685-3.01 1.719-6.388 2.673-9.599 3.93-2.208.864-4.398 1.884-6.361 3.226-.465.318-.904.669-1.348 1.014-.053.036-.06.109-.023.162s.097.07.15.034c.932-.575 1.882-1.138 2.857-1.636 1.61-.823 3.288-1.494 4.978-2.132l5.681-2.109c1.281-.498 2.574-1.019 3.792-1.659 1.057-.557 2.042-1.243 2.996-1.959 1.777-1.336 3.395-2.859 5.001-4.391l2.696-2.616c.671-.668 1.353-1.323 1.959-2.051.19-.189.19-.49 0-.68-.094-.094-.221-.138-.345-.138z"/><path d="M138.68 256.938c-.255-.028-.496.083-.749.127-.025-.016-.065-.002-.081.023s-.002.054.023.069c.076.249.072.534.219.749.112.163.337.209.507.311l.519.3c1.024.544 2.137.915 3.25 1.233 1.28.366 2.583.622 3.917.657 2.018.053 3.973-.382 5.866-1.049.911-.321 1.784-.682 2.627-1.153.089-.039.133-.152.092-.241s-.152-.121-.242-.081l-1.256.38c-1.434.444-2.849.97-4.344 1.176-1.601.219-3.235.129-4.817-.185-1.247-.247-2.439-.693-3.572-1.268l-1.464-.783c-.164-.089-.309-.245-.495-.265zm-62.949 12.516c-.049-.033-.117-.014-.15.035s-.014.117.035.149c.573.575 1.155 1.142 1.809 1.625.97.717 2.061 1.291 3.112 1.879l3.78 1.982 8.919 3.964 5.543 2.385 2.778 1.106c.041.021.083.007.103-.034s.007-.095-.034-.115l-2.604-1.464-4.356-2.097-8.228-3.93-5.382-2.731-3.123-1.763c-.714-.367-1.458-.687-2.201-.991zm7.144-1.692c-.458-.049-.913-.012-1.371.012-.09-.017-.179.048-.196.138s.048.179.139.196c.416.191.813.395 1.256.518 1.144.32 2.367.431 3.538.611l8.4 1.049c4.415.491 8.851.743 13.275 1.129 5.317.464 10.611 1.048 15.914 1.648.019.003.043-.016.046-.034s-.015-.032-.035-.035l-3.065-.634c-1.168-.214-2.35-.346-3.526-.507-3.378-.463-6.769-.798-10.163-1.118l-11.478-1.163c-2.939-.305-5.874-.677-8.792-1.141-1.312-.209-2.62-.528-3.941-.669zM127.47 142.06c-.047.01-.08.058-.07.104l.012 1.602c.02.56.127 1.125.184 1.682l.288 3.273.795 11.224.864 13.863 1.821 28.036.496 7.306 1.751 28.97.496 7.375.484 5.462c.055.506.508.861 1.014.806a.92.92 0 0 0 .818-1.014l-1.578-22.332-1.326-19.371-.438-7.317-1.717-25.144c-.534-7.458-1.196-14.906-1.947-22.344l-.772-6.788-.369-2.708c-.052-.357-.083-.732-.173-1.083-.133-.52-.334-1.032-.53-1.532-.01-.046-.058-.08-.103-.07z"/><path d="M135.871 250.948c-.056-.05-.134-.044-.184.012s-.056.145 0 .196c.028.21.03.424.104.622.069.189.264.427.357.623.17.361.288.738.368 1.129.233 1.135.182 2.319.438 3.445a.89.89 0 0 0 .91.876.9.9 0 0 0 .888-.91c.032-.181.08-.358.092-.542.025-.382-.034-.761-.081-1.141-.133-1.091-.599-2.167-1.221-3.065-.227-.328-.487-.642-.772-.922-.071-.069-.12-.148-.208-.196-.2-.109-.475-.11-.691-.127z"/><path d="M128.873 250.105c-.907-.026-1.812-.017-2.72.012l-4.194.184a31.79 31.79 0 0 0-3.273.357c-.395.065-.804.098-1.187.219-.313.099-.478.199-.772.346-.079.008-.135.081-.127.161s.082.135.162.127c.317.084.491.14.818.173.532.053 1.081-.012 1.613-.035l2.04-.173 6.188-.507c1.889-.014 3.811.053 5.681.335l1.579.264c.392.074.783.2 1.187.197.146-.002.292-.032.438-.047.013-.018.007-.02 0-.023-.219-.181-.442-.371-.704-.483-.368-.159-.789-.25-1.175-.358-.928-.259-1.891-.415-2.846-.541-.901-.12-1.801-.182-2.708-.208zm-18.802 1.519l-1.878.046-1.856.161-5.543.599-9.748 1.556c-2.425.516-4.839 1.137-7.191 1.924l-2.927 1.118a.47.47 0 0 0-.277.6c.087.243.357.363.599.276.805-.202 1.574-.482 2.363-.737l2.35-.715 7.11-1.774 7.824-1.464 5.508-.795 1.844-.265 1.844-.358c.048-.005.086-.043.081-.092s-.056-.086-.104-.08zm7.757-40.766a.49.49 0 0 0-.38.081.52.52 0 0 0-.127.726c3.73 5.202 6.657 11.58 6.488 18.103-.032 1.219-.152 2.452-.427 3.642a14.9 14.9 0 0 1-1.532 3.987c-.424.747-.947 1.431-1.372 2.178-.032.04-.028.094.012.126s.095.029.127-.011c.168-.149.353-.285.507-.45.299-.319.53-.694.772-1.06.356-.538.673-1.091.956-1.671.93-1.898 1.45-3.977 1.591-6.084.172-2.589-.216-5.204-.853-7.709-1.06-4.168-2.968-8.126-5.416-11.65-.083-.118-.215-.185-.346-.208z"/><path d="M116.754 239.316c-1.881-.043-3.781-.044-5.658.104l-3.076.311-3.976.507-5.727 1.129c-2.753.609-5.501 1.352-8.136 2.362l-3.249 1.383-3.157 1.452-3.722 2.074c-.176.102-.24.332-.138.508s.331.239.507.138c1.198-.74 2.464-1.331 3.733-1.936l3.134-1.406 4.494-1.625 7.179-2.166 5.647-1.153 3.929-.576 7.79-.53 2.546-.023.842.012c.282-.015.56-.062.841-.093.056.003.101-.036.104-.092s-.037-.101-.092-.103l-.83-.173c-.415-.056-.85-.054-1.268-.069l-1.717-.035zm-5.9-28.477a80.55 80.55 0 0 0-3.261.024c-3.299.084-6.602.407-9.875.818-4.598.577-9.188 1.406-13.632 2.731-2.613.779-5.214 1.736-7.559 3.146-.781.47-1.7 1.017-2.213 1.797-.122.187-.183.395-.265.6-.034.038-.038.093 0 .126s.104.027.138-.011c.982-.518 1.802-1.268 2.742-1.856 1.177-.734 2.437-1.3 3.722-1.82 4.394-1.778 9.108-2.818 13.771-3.595a104.03 104.03 0 0 1 11.638-1.268c1.809-.096 3.617-.163 5.428-.138 1.252.017 2.509.064 3.757.173.89.077 1.769.208 2.662.253.037.008.072-.009.08-.046s-.008-.084-.046-.092c-1.207-.487-2.536-.582-3.826-.691-1.082-.093-2.173-.134-3.261-.151z"/><path d="M74.666 219.853c-.035-.021-.083-.012-.104.023-.305.285-.622.554-.888.876-.273.331-.499.699-.749 1.048l-2.258 3.492-2.466 4.298c-.434.775-.911 1.561-1.222 2.397-.075.2-.131.401-.173.611s-.038.425-.081.634c-.039.193-.115.376-.173.564-.038.098.017.216.115.254s.205-.017.242-.115c.082-.177.15-.365.253-.53.111-.177.271-.315.392-.484a5.39 5.39 0 0 0 .323-.53l1.475-2.95 2.189-3.619 2.144-3.549.622-1.129c.15-.334.281-.848.38-1.199.021-.034.012-.071-.023-.092zm-7.598 15.177c-.174-.008-.45.034-.622.058l.806.392c.5.204.967.424 1.418.726 1.223.818 2.242 1.895 3.192 3.008 1.378 1.613 2.604 3.36 3.722 5.162l1.498 2.524c.339.589.626 1.254 1.072 1.774.131.153.292.288.438.427.064.118.216.156.334.092s.156-.216.092-.334c-.038-.2-.055-.395-.115-.588-.207-.659-.647-1.271-1.002-1.855l-1.118-1.763c-1.749-2.647-3.619-5.271-5.98-7.41-.84-.76-1.769-1.478-2.812-1.936-.291-.128-.599-.26-.922-.277zm-3.311 31.745c-.092-.088-.234-.081-.323.012l-5.024 4.517-2.662 2.235c-2.248 1.736-4.676 3.275-7.271 4.437-1.75.783-4.013 1.517-5.935.991-.806-.221-1.532-.69-2.12-1.279-1.392-1.395-2.129-3.279-2.489-5.186l-.346-2.374-.104-.749c-.063-.265-.167-.513-.254-.772.002-.096-.077-.171-.173-.173s-.183.077-.184.173c-.094.263-.211.521-.265.795-.072.366-.063.793-.058 1.164.015 1.06.227 2.118.519 3.135.85 2.958 2.687 6.152 6.073 6.476.935.089 1.896-.01 2.811-.208 2.904-.626 5.529-2.252 7.917-3.952l2.858-2.201c1.861-1.491 3.683-3.047 5.324-4.782l1.717-1.925a.24.24 0 0 0-.011-.334zm-20.024 13.928c-.002.147-.025.291-.011.438.013.133.066.261.092.392a9.5 9.5 0 0 1 .161 1.141 11.8 11.8 0 0 1-.253 3.503c-.267 1.164-.828 2.255-1.417 3.284-.822 1.432-1.785 2.762-2.731 4.114l-2.144 3.146c-.093.134-.065.322.069.414a.3.3 0 0 0 .415-.08l2.27-3.031c1.792-2.343 3.416-4.813 4.206-7.686.385-1.399.425-2.729.035-4.137-.101-.365-.204-.826-.403-1.152-.078-.128-.192-.232-.288-.346zm18.682-74.914c-.082.001-.169.04-.231.104-.123.127-.116.326.012.449.099.181.178.375.299.542.354.489.91.892 1.348 1.302l1.982 1.786 2.811 2.178c.607.409 1.254.774 1.924 1.072.401.178.827.333 1.256.426a2.38 2.38 0 0 0 .565.057c.304-.007.649-.077.864-.31.425-.461.347-1.524.265-2.086-.048-.332-.123-.662-.231-.98a6.12 6.12 0 0 0-.461-1.025c-.425-.763-1.038-1.473-1.786-1.936-.144-.09-.274-.21-.438-.254s-.444-.003-.599.012c-.013-.007-.028-.001-.035.011s-.001.028.012.035c.096.167.168.355.299.496.105.111.248.171.369.264l.507.404a5.39 5.39 0 0 1 .899 1.002c.552.797.864 1.828.795 2.8-.013.179-.042.37-.092.542-.023.078-.045.117-.081.184-.003.006-.017.015-.011.012.091-.052-.151.02-.184.023-.545.052-1.071-.208-1.533-.461-.518-.284-1.005-.626-1.486-.968-1.554-1.104-2.991-2.353-4.414-3.618l-1.406-1.303c-.144-.132-.276-.282-.438-.391-.171-.115-.369-.184-.553-.277-.063-.062-.148-.093-.23-.092z"/><path d="M72.922 213.278c-.018-.008-.039-.006-.046.012-.322.351-.533.756-.795 1.152a12.33 12.33 0 0 1-.83 1.094l-.899 1.061-.933 1.06-2.017 1.924c-.171.161-.173.429-.011.6s.428.184.599.023a23.44 23.44 0 0 0 1.994-2.017l.979-1.06c.482-.537.874-1.18 1.222-1.809s.705-1.268.76-1.994c.008-.018-.005-.038-.023-.046z"/><path d="M69.952 218.401c-.014.47.059.916.081 1.383a7.36 7.36 0 0 1-.035 1.06c-.2 2.031-1.042 4.003-2.282 5.612-.168.245-.095.581.15.749s.57.095.737-.15c1.12-1.837 1.964-4.015 1.982-6.188.005-.645-.042-1.619-.392-2.178-.066-.105-.152-.192-.231-.288zm-3.349 9.227c-.056-.046-.138-.044-.184.012l-2.201 2.328-3.261 3.192c-1.72 1.705-3.487 3.391-4.84 5.416-1.274 1.906-2.032 4.089-3.031 6.142-1.85 3.801-3.79 7.544-6.05 11.12-1.554 2.459-3.258 4.796-5.255 6.914-.567.601-1.185 1.194-1.844 1.694-.425.323-1.047.657-1.36 1.095-.1.139-.162.309-.242.461-.017.008-.02.029-.011.046s.029.019.046.011c.173.033.342.105.518.104.157-.001.312-.066.461-.115.281-.095.596-.277.841-.438.566-.374 1.117-.818 1.625-1.268 2.139-1.898 3.904-4.339 5.45-6.73 1.154-1.784 2.197-3.631 3.192-5.508 1.004-1.892 1.974-3.798 2.858-5.75l1.371-3.123c.614-1.462 1.183-2.899 2.063-4.229 1.449-2.19 3.269-4.159 5.128-6.004.901-.893 1.795-1.793 2.662-2.719.742-.792 1.467-1.572 2.086-2.466.046-.056.033-.138-.023-.185zm-53.972 15.146c-.064.003-.118.052-.115.115-.135.78-.33 1.576-.311 2.374.015.652.129 1.311.196 1.959l.576 3.872c.329 1.63.697 3.263 1.233 4.84.4 1.176.901 2.315 1.464 3.422l.703 1.279c1.827 2.949 4.461 5.51 7.64 6.96 1.467.669 2.996 1.079 4.587 1.314 1.029.152 2.072.268 3.111.184.018.001.034-.016.034-.034s-.004-.034-.023-.035c-1.014-.181-2.044-.252-3.054-.461a19.1 19.1 0 0 1-5.059-1.821 14.73 14.73 0 0 1-3.134-2.212c-2.468-2.299-4.06-5.436-5.116-8.596-.512-1.531-.949-3.082-1.256-4.667a48.86 48.86 0 0 1-.657-4.552c-.05-.512-.061-1.035-.127-1.545-.1-.781-.372-1.535-.576-2.292-.003-.064-.052-.107-.115-.104zm6.944-18.742c-.025-.018-.062-.012-.081.012-.971.981-1.657 2.081-2.281 3.307-.629 1.237-1.142 2.525-1.556 3.849-.86 2.752-1.216 5.618-1.302 8.493-.087 2.908.115 5.799.68 8.654a35.63 35.63 0 0 0 1.475 5.324l.484 1.221c.096.195.187.396.323.565.143.178.338.318.507.472a.19.19 0 0 0 .254.092c.095-.043.135-.157.092-.253-.004-.226.022-.457-.011-.68-.062-.415-.256-.805-.404-1.198l-.645-1.821a38.52 38.52 0 0 1-1.325-5.289c-.451-2.561-.703-5.188-.634-7.79.05-1.885.272-3.751.634-5.6.22-1.125.493-2.234.864-3.319.362-1.06.78-2.103 1.291-3.1l1.636-2.858c.019-.025.025-.062 0-.081z"/><path d="M1.73 214.983c-.022.005-.028.024-.023.046.007.635.092 1.227.173 1.856l.461 3.065.519 3.722.68 4.356c.855 5.785 1.788 11.557 3.422 17.181.398 1.369.813 2.729 1.302 4.068.415 1.136.917 2.247 1.429 3.342 1.371 2.934 3.082 5.7 5.197 8.158 1.824 2.122 3.881 4.007 6.223 5.543.761.5 1.553 1.03 2.385 1.406.219.099.455.17.68.254.011.006.028-.001.035-.012s0-.017-.012-.023c-.725-.583-1.508-1.08-2.27-1.613a39.55 39.55 0 0 1-2.12-1.59c-2.725-2.193-5.127-4.738-7.006-7.698-2.242-3.533-3.831-7.43-4.99-11.443-.624-2.162-1.07-4.361-1.498-6.568-.677-3.491-1.169-7.009-1.717-10.521-.549-3.523-1.021-7.067-1.924-10.521-.261-.999-.494-2.019-.888-2.973-.004-.023-.035-.039-.058-.035zm55.901-24.569c-.885-.084-1.831.406-2.581.795l-.888.472c-.602.373-1.153.831-1.717 1.256l-3.399 2.536-1.567 1.037c-.552.442-1.047.95-1.544 1.452-1.191 1.202-2.298 2.488-3.376 3.791l-3.077 3.872-3.422 4.482-4.402 5.728c-1.158 1.504-2.373 3.029-3.157 4.77a.36.36 0 1 0 .553.461c1.227-.865 2.142-2.024 3.065-3.192l1.256-1.625 3.872-5.254 3.411-4.46 2.593-3.284c1.473-1.829 2.935-3.718 4.655-5.324.834-.779 1.794-1.409 2.685-2.12l2.478-2.075 1.648-1.209.772-.565c.699-.451 1.433-.713 2.201-1.003.241-.091.473-.186.726-.242.023.002.044-.012.046-.034s-.024-.044-.046-.046c-.25-.097-.514-.194-.784-.219zm-21.32 18.267l-.738.081c-.679.139-1.329.485-1.947.784-.627.302-1.22.643-1.809 1.014-2.146 1.351-4.081 3.007-5.785 4.886l-1.325 1.59c-.279.378-.543.756-.738 1.187-.1.219-.16.453-.242.679a.17.17 0 0 0 .023.243c.076.06.193.052.254-.024l.599-.391c.546-.407.999-.938 1.463-1.429l.922-.98 2.835-2.823c.982-.894 2-1.742 3.1-2.489l1.683-1.095 1.164-.714.565-.461c.015-.006.018-.02.011-.035s-.02-.029-.035-.023z"/><path d="M56.879 191.373c-.111.028-.203.112-.3.173-.273.171-.524.367-.761.587-.854.796-1.284 1.893-1.267 3.054.025 1.718.912 3.41 1.913 4.759.333.448.697.943 1.118 1.314.401.353.889.576 1.36.818.069.067.175.069.242 0s.069-.176 0-.242l-.749-1.348-.957-1.279c-1.016-1.454-2.271-3.633-1.555-5.474.194-.499.542-.943.945-1.291.144-.124.338-.199.461-.345.165-.197.254-.44.392-.657.014-.008.019-.032.011-.046s-.031-.019-.046-.012c-.271-.015-.544-.08-.806-.011zm-8.912 4.827c-.035-.015-.077.01-.092.046-.27.367-.59.753-.772 1.175-.09.21-.139.436-.196.657a9.52 9.52 0 0 0-.277 1.671c-.164 2.198.395 4.334 1.267 6.338.679 1.558 1.634 2.997 2.662 4.344 2.26 2.962 5.166 5.485 8.378 7.364 1.001.585 2.034 1.109 3.1 1.567.597.256 1.208.511 1.855.61.604.093 1.235.044 1.844.081.081.014.147-.033.161-.115s-.034-.159-.115-.173c-.184-.053-.374-.093-.553-.161-.562-.215-1.077-.523-1.648-.726-.596-.213-1.2-.405-1.786-.645a19.78 19.78 0 0 1-1.809-.853c-3.931-2.097-7.66-5.39-10.014-9.196-.994-1.608-1.798-3.396-2.178-5.255-.23-1.124-.337-2.288-.242-3.434a12.41 12.41 0 0 1 .161-1.244c.039-.207.105-.403.139-.611.07-.444.076-.902.15-1.348.015-.036.001-.077-.035-.092zM29.85 163.333c-.045.038-.05.104-.011.149l2.674 4.206c1.314 2.586 2.047 5.436 2.524 8.286.382 2.284.525 4.604.795 6.902.145 1.23.255 2.495.715 3.653.03.158.176.261.334.231s.261-.188.23-.346c-.005-1.052-.234-2.111-.415-3.146l-.576-3.999-.956-6.257c-.57-2.487-1.547-4.85-2.95-6.983-.653-.992-1.331-1.886-2.212-2.685-.038-.045-.105-.05-.15-.011zm7.49 24.213c-.013-.011-.036-.001-.047.011s-.012.024 0 .035c.054.202.068.424.139.622.036.102.252.378.311.461l.334.507c.384.621.721 1.287.979 1.97.952 2.52 1.389 5.202 1.532 7.882.116 2.162-.026 4.296-.853 6.315-.045.063-.029.151.034.196s.151.028.196-.034c.222-.201.446-.396.6-.657.166-.281.28-.625.38-.934.281-.87.417-1.786.484-2.696.136-1.859-.026-3.673-.323-5.508-.244-1.51-.587-3.034-1.118-4.472-.36-.973-.757-1.956-1.337-2.823-.162-.242-.385-.601-.657-.737-.201-.101-.434-.106-.657-.138zm-6.721-47.328l-3.146.253c-1.212.153-2.417.393-3.607.668-3.936.912-7.799 2.487-10.832 5.221-.878.791-1.667 1.688-2.385 2.627-1.335 1.748-2.308 3.705-3.1 5.75a.85.85 0 1 0 1.591.599c.704-1.915 1.592-3.733 2.789-5.393.639-.887 1.372-1.681 2.166-2.431 2.953-2.787 6.75-4.353 10.636-5.347.969-.248 1.95-.444 2.927-.657l3.054-.668c.173-.023.288-.173.265-.346s-.185-.299-.357-.276z"/><path d="M8.044 155.699a.5.5 0 0 0-.634.3l-1.579 4.782-1.291 4.69-.922 3.434-1.106 5.681-.991 7.905-.369 3.953-.23 7.997.011 9.426.058 3.031.069 1.855c.052.419.158.829.231 1.245l.311 1.889c0 .062.053.104.115.104s.115-.042.115-.104l.415-2.512.115-.622c.095-.808.063-1.653.08-2.466l.058-4.218.115-5.865.138-5.151.265-4.506.092-2.235.288-3.907.991-7.824.599-3.388.634-3.457c.701-3.185 1.697-6.32 2.719-9.414.088-.257-.043-.535-.299-.623zm38.303 135.86c-.065-.003-.113.049-.116.115-.193.514-.459 1.043-.541 1.59-.175 1.157-.12 2.403-.138 3.572l.034 5.059.242 5.336a122.82 122.82 0 0 0 2.984 19.507c2.284 9.632 5.672 18.969 9.876 27.922a151.64 151.64 0 0 0 4.229 8.378c3.747 6.855 8.024 13.415 12.319 19.935 3.214 4.882 6.448 9.738 9.38 14.797a131.13 131.13 0 0 1 6.038 11.686c1.274 2.81 2.353 5.705 3.492 8.574l1.003 2.441c.024.077.106.129.184.103s.116-.103.092-.184c-.217-.985-.404-1.992-.691-2.961-1.272-4.289-3.06-8.401-5.047-12.398-2.289-4.609-4.857-9.056-7.536-13.448l-5.831-9.311-8.562-13.577a160.91 160.91 0 0 1-8.62-16.568c-4.393-9.809-7.834-20.027-9.898-30.585-.553-2.824-.97-5.693-1.325-8.551-.538-4.325-.856-8.71-.956-13.066l-.057-3.872c.005-.914.072-1.843-.011-2.755-.051-.549-.27-1.086-.426-1.613.002-.065-.05-.124-.115-.126zm99.86 144.01c-.342-.122-.719.048-.842.39l-2.408 6.708-2.155 5.635c-3.721 9.524-7.678 18.95-11.742 28.334l-11.167 26.045c-3.006 7.198-5.96 14.437-8.504 21.812-.69 2.006-1.321 4.026-1.948 6.051-.034.103.024.221.127.254s.219-.022.254-.125c2.72-7.53 5.564-15.001 8.608-22.405 4.522-10.996 9.389-21.849 14.162-32.738l11.708-27.815 1.798-4.62c.867-2.22 1.744-4.429 2.512-6.686a.66.66 0 0 0-.403-.84zm-51.083-12.611a.32.32 0 0 0-.184.159c-3.139 5.903-5.472 12.191-7.559 18.529l-2.362 7.456c-1.53 5.063-2.876 10.182-4.137 15.315l-3.192 13.182c-1.173 4.319-2.593 8.563-4.206 12.733-1.786 4.621-3.796 9.153-5.669 13.736-1.468 3.596-2.836 7.224-3.964 10.937-.697 2.298-1.353 4.617-1.567 7.018-.185 2.08-.062 4.808 1.924 6.051.37.229.767.383 1.187.494.127.063.274 0 .334-.125a.25.25 0 0 0-.115-.336c-1.889-1.427-1.951-4.336-1.683-6.453a21.19 21.19 0 0 1 .254-1.519c.44-2.187 1.127-4.318 1.821-6.431 1.282-3.909 2.812-7.74 4.356-11.546 2.946-7.268 5.991-14.481 8.147-22.033.936-3.278 1.654-6.6 2.408-9.923l2.858-12.065c1.291-5.074 2.61-10.144 4.183-15.141 2.105-6.685 4.659-13.22 7.571-19.592.079-.158.01-.346-.15-.424-.08-.04-.175-.051-.254-.022zm47-152.684c-.054.034-.08.107-.046.161l3.227 5.774c2.922 5.369 5.646 11.006 6.649 17.089.345 2.094.444 4.197.461 6.315.014 1.785-.01 3.563-.081 5.348-.272 6.829-.996 13.618-2.097 20.362-1.23 7.53-2.89 14.986-4.483 22.446l-2.42 11.951-1.44 6.822c-.699 3.757-1.363 7.537-1.867 11.328-.297 2.231-.509 4.477-.737 6.715-.046.431.263.822.691.866s.807-.276.853-.704c.673-6.154 1.73-12.246 2.857-18.334l1.164-6.394 2.593-11.881c1.605-7.648 3.086-15.322 4.275-23.047 1.116-7.246 1.921-14.566 1.913-21.906-.004-4.157-.152-8.341-1.129-12.399-1.287-5.342-3.73-10.273-6.592-14.934-1.158-1.888-2.307-3.765-3.629-5.543-.035-.055-.107-.069-.162-.035z"/><path d="M78.389 387.7c-.01-.007-.019 0-.023.011l-.737 1.059c-.305.508-.507 1.091-.761 1.626l-1.267 2.522c-1.642 3.168-3.321 6.32-5.151 9.381-2.458 4.112-5.137 8.079-7.824 12.043l-5.393 7.903c-2.129 2.994-4.417 5.892-6.695 8.769-3.198 4.045-6.59 7.968-9.472 12.249-.777 1.155-1.519 2.346-2.109 3.607-.45.966-.802 1.962-.841 3.031-.017.365.257.675.622.693s.674-.269.691-.634c.075-1.217.623-2.378 1.187-3.433.678-1.269 1.472-2.474 2.293-3.654 2.938-4.212 6.279-8.135 9.438-12.18l4.771-6.269c2.143-2.994 4.136-6.088 6.177-9.149 2.924-4.388 5.836-8.794 8.424-13.393 1.661-2.95 3.235-5.937 4.656-9.008l1.152-2.526c.201-.443.444-.904.588-1.372.125-.406.196-.837.288-1.254.004-.011-.001-.018-.011-.022zM67.32 205.201c-.154-.026-.306.041-.461.058-.011-.011-.024-.012-.035 0s-.011.024 0 .034c.001.159-.048.333 0 .484.033.103.143.154.219.231.148.15.295.284.461.415l1.06.783c.242.193.476.367.588.669.273.741-.411 1.333-.795 1.878-.104.148-.144.26-.219.426-.011.011-.01.024 0 .035s.035.01.046 0c.187-.065.275-.084.438-.196.663-.458 1.378-1.485 1.13-2.328-.198-.671-.753-1.157-1.256-1.602-.297-.261-.593-.494-.922-.714-.084-.056-.154-.156-.254-.173zm27.099-15.967l-.945.058c-.298.024-.358-.002-.645.092-.178.059-.423.202-.588.288-1.19.628-2.147 1.639-3.054 2.616l-3.492 4.01c-2.027 2.348-4.177 4.611-6.465 6.707-1.581 1.449-3.308 2.86-5.324 3.653-.809.318-1.667.534-2.535.599-.507.038-1.004-.011-1.51.058-.038-.005-.076.019-.081.057s.02.076.058.081c.761.309 1.664.251 2.466.127 1.897-.294 3.604-1.255 5.128-2.385l1.083-.865c1.217-1.023 2.343-2.129 3.469-3.249l2.109-2.098 3.365-3.768 2.87-3.111 1.463-1.348c.407-.316.846-.543 1.291-.796.177-.1.323-.238.496-.345.261-.162.565-.266.853-.369zm-.064-6.749c-.337-.021-.675.085-1.002.15l-2.12.53-1.752.518c-.582.179-1.136.332-1.648.669-.024.007-.031.034-.023.058s.022.03.046.023c.722-.016 1.402-.258 2.097-.438l2.685-.634c.477-.09.943-.181 1.429-.196l.311-.011.231.126c.639.36 1.408.981 1.844 1.579.287.394.499.799.715 1.233.166.334.37.642.369 1.026-.004 1.021-.806 2.137-1.406 2.904-.732.935-1.565 1.767-2.535 2.465-.467.337-.976.594-1.486.853-.775.394-1.609.739-2.489.761-.267-.012-.484.194-.496.461s.194.483.461.495c1.736.176 3.219-.88 4.517-1.89a18.73 18.73 0 0 0 1.89-1.694l.45-.426c.768-.815 1.531-1.967 1.798-3.065.173-.713.06-1.202-.173-1.878a5.86 5.86 0 0 0-2.408-2.996l-.726-.404c-.198-.107-.35-.205-.576-.219zm-.442-7.932c-2.207-.018-4.464 1.158-6.246 2.293l-2.063 1.441c-.275.21-.697.482-.922.737-.096.108-.153.236-.23.357-.011.009-.02.024-.011.035s.024.02.034.011c.135-.047.277-.083.403-.149.117-.063.216-.152.323-.231l.933-.668 2.063-1.291c1.798-.971 3.802-1.878 5.889-1.832.316.007.636.019.945.092.58.138 1.12.49 1.602.83.929.656 1.743 1.454 2.454 2.339.53.659.97 1.375 1.406 2.097.188.311.386.607.415.98.022.283-.054.57-.127.841-.204.761-.6 1.485-1.025 2.143-.238.369-.581.708-.703 1.141-.051.182-.038.377-.058.565-.041.054-.031.131.023.173s.131.031.173-.023c.178-.072.369-.102.53-.208.154-.101.277-.259.392-.403.292-.37.532-.841.76-1.256.578-1.054 1.073-2.344.761-3.561-.141-.549-.528-1.026-.853-1.475l-1.821-2.27c-.827-.889-1.761-1.744-2.881-2.247a5.32 5.32 0 0 0-2.166-.461zm-4.464-4.398c-.393.035-.778.214-1.141.357l-1.936.876-4.079 2.051-1.786.945-.945.611c-.044.021-.067.071-.046.115s.083.056.127.035l1.06-.404c.778-.352 1.527-.801 2.282-1.198l3.065-1.602 1.809-.887c.456-.206.943-.403 1.44-.484.233-.038.493.014.715.034l1.475.15 4.414.703c1.248.306 2.455.734 3.595 1.325l1.209.669c.053.032.088.096.116.149.333.653.225 1.524.196 2.225l-.093 2.339c0 .376.048.742.069 1.117.003.23.186.418.415.416s.418-.197.415-.427l-.023-4.287c-.04-.569-.044-1.225-.322-1.74-.252-.463-.788-.669-1.233-.899-1.314-.678-2.79-1.086-4.23-1.394-1.64-.351-3.305-.576-4.978-.691l-.991-.07c-.198-.012-.402-.052-.599-.034zm3.068-7.91a13.21 13.21 0 0 0-3.526.276c-.555.122-1.089.296-1.636.45-1.973.555-3.89 1.316-5.75 2.178l-3.676 1.855-3.319 1.648-.956.461c-.482.256-.906.579-1.337.91-.013.006-.017.022-.012.035s.01.017.023.011c.534-.099 1.067-.204 1.579-.391.501-.184.988-.429 1.475-.646l2.87-1.371 5.036-2.42c2.333-1.131 4.745-2.187 7.352-2.443 1.478-.145 2.901.156 4.333.507 1.334.328 2.665.747 3.814 1.521.809.545 1.319 1.441 1.06 2.42-.056.211-.125.412-.288.565-.574.539-1.811.335-2.489.253-1.562-.188-3.108-.515-4.69-.414-.671.042-1.335.213-1.982.391-2.657.733-4.994 2.42-6.879 4.391-.027.025-.025.065 0 .092s.065.037.092.012l2.201-1.81c1.334-.95 2.775-1.692 4.344-2.166.733-.222 1.479-.389 2.247-.415 1.927-.065 3.815.589 5.739.541.69-.016 1.516-.109 1.947-.726.148-.211.249-.465.311-.714.495-1.965-1.711-3.25-3.215-3.837l-.968-.346-1.682-.472c-.663-.153-1.335-.309-2.017-.346zm-21.283 8.525c-.149.004-.323.115-.45.184-.326.179-.631.412-.91.657-1.142 1-2.014 2.292-2.881 3.526-1.769 2.519-3.301 5.209-4.759 7.917l-2.109 3.917-1.637 3.147c-.247.508-.501.993-.668 1.532-.025.046-.011.102.035.127s.102.011.127-.035c.369-.431.629-.912.91-1.405l1.141-2.132 2.351-4.299 2.397-4.067c1.319-2.232 2.745-4.447 4.448-6.407.404-.466.86-.921 1.336-1.314.196-.161.403-.312.622-.438.09-.052.236-.088.311-.161.091-.09.147-.22.242-.312.087-.013.152-.085.138-.172s-.097-.152-.184-.138c-.137-.056-.31-.132-.461-.127zM30.38 473.372c-.031-.022-.071-.019-.092.011-.195.151-.413.276-.588.45-.106.107-.307.416-.392.542l-.68 1.036c-.765 1.172-1.446 2.493-1.636 3.894-.112.826-.11 1.737.311 2.478.323.568.874.984 1.36 1.408l2.835 2.224c3.535 2.574 7.284 4.871 11.235 6.752 1.786.848 3.715 1.637 5.704 1.785.324.04.628-.181.669-.506a.59.59 0 0 0-.518-.656c-2.917-.527-5.642-1.674-8.251-3.053a65.51 65.51 0 0 1-7.801-4.886 63.25 63.25 0 0 1-2.869-2.239c-.447-.365-1.008-.733-1.348-1.209-.189-.262-.287-.572-.357-.885-.18-.804.152-1.7.403-2.456.286-.859.654-1.718 1.072-2.522.237-.457.587-.893.772-1.372.088-.229.129-.468.196-.704.021-.03.008-.07-.023-.092zm21.214 22.321c-.042.014-.06.059-.046.103-.039.121-.114.228-.127.357-.023.222.065.458.138.668.159.461.434.826.726 1.209l1.509 1.811c1.767 1.785 3.791 3.341 5.819 4.816l2.466 1.785 2.109 1.685.519.439c.081.066.143.166.242.206.122.052.261.041.392.055.021.023.059.023.08 0 .022-.018.021-.059 0-.077-.013-.136.004-.269-.046-.395-.042-.103-.144-.169-.219-.254l-.749-.76c-.789-.737-1.646-1.401-2.489-2.072l-3.48-2.803-3.619-3.086c-.602-.605-1.266-1.209-1.752-1.914l-.875-1.301c-.061-.078-.11-.166-.184-.233-.093-.077-.208-.129-.311-.195-.015-.041-.061-.059-.104-.044zm14.052 59.057c-.04-.015-.08.015-.092.055-.511.974-.852 2.017-1.164 3.065-.226.767-.381 1.53-.369 2.33-.018.17.107.313.277.332s.327-.092.346-.266c.212-.881.306-1.803.507-2.695.205-.907.457-1.789.542-2.718.012-.04-.006-.092-.046-.103z"/><path d="M64.245 560.202c-.018.015-.025.041-.011.055.56 1.025 1.325 1.896 2.12 2.744 1.203 1.283 2.553 2.404 3.941 3.481 1.409 1.091 2.897 2.098 4.402 3.053 1.683 1.066 3.462 1.995 5.22 2.928l7.295 3.492c.135.066.3.018.369-.114a.29.29 0 0 0-.115-.384l-1.936-1.161-5.22-2.582-5.243-2.791-2.051-1.173c-2.141-1.346-4.142-2.883-5.969-4.631-.968-.929-1.794-1.977-2.743-2.917-.013-.019-.04-.015-.058 0zm31.512 18.67c-.018-.004-.04.007-.046.026s.005.037.023.044l1.417.623c.989.387 2.029.697 3.042 1.014l5.336 1.453 2.742.608c1.83.329 3.696.583 5.555.657 1.287.055 2.564.026 3.849-.056.893-.059 1.804-.125 2.673-.357.319-.085.714-.225 1.026-.336.02-.003.026-.026.022-.044s-.025-.041-.046-.037l-1.59.081-2.65.222c-2.18.062-4.383-.085-6.546-.347-2.939-.358-5.834-.999-8.688-1.774l-3.112-.911-1.51-.483-1.498-.383zm42.806-10.401c-.142-.007-.249.111-.253.251l-.15 2.179c-.163 2.065-.537 4.278-1.821 5.97-.369.483-.817.918-1.291 1.302-.644.52-1.351.922-2.097 1.279a21.68 21.68 0 0 1-2.408.967l-1.429.449c-.274.1-.755.34-1.014.461-.014.004-.027.011-.023.022s.02.03.034.026l1.107-.092c.796-.147 1.609-.428 2.373-.693 1.46-.505 2.885-1.191 4.068-2.202 2.077-1.773 2.815-4.414 3.054-7.039l.104-2.618a.26.26 0 0 0-.254-.262zM33.328 139.507c-1.646.087-3.263.45-4.747 1.21-.148.059-.221.233-.162.38s.232.221.38.162l2.961-.761a15.97 15.97 0 0 1 2.962-.23c2.744.037 5.351.839 7.894 1.809 4.969 1.896 9.448 4.797 14.266 7.018 1.759.81 3.557 1.655 5.439 2.143a26.25 26.25 0 0 0 2.132.45c.089.02.175-.038.196-.127s-.037-.176-.127-.196c-5.118-1.456-9.638-4.25-14.324-6.684-.757-.393-1.541-.748-2.305-1.129-2.123-1.06-4.262-2.086-6.522-2.823-1.026-.335-2.065-.581-3.123-.795-1.597-.323-3.274-.514-4.921-.427zm37.302 1.406c-.011.008-.019.024-.011.035l.38 1.394c.169.477.423.908.576 1.395.209.666.331 1.357.392 2.051.043.495.093 1.001.046 1.498-.099 1.054-.56 2.023-1.383 2.696-.555.455-1.242.715-1.902.98-.071.011-.115.079-.104.15s.079.126.15.115c.588.039 1.001-.003 1.555-.219 2.08-.808 2.767-3.263 2.558-5.312-.077-.756-.269-1.505-.507-2.224-.164-.496-.322-1.081-.611-1.521-.278-.426-.698-.751-1.106-1.038-.008-.011-.023-.007-.034 0zm4.14 6.922l-.496.346a.59.59 0 0 0 .172-.323c.007-.044-.088.011-.127.035s-.034.07-.058.103c-.075.107-.176.205-.265.3l-.069.069c-.025.026-.101.086-.069.069.143-.077.005.008-.081.093-.032.019-.042.06-.023.092s.06.042.092.023l.507-.357c-.156.062-.271.205-.392.322-.025.025.058-.025.092-.034.056-.016.116-.022.173-.035.131-.029.42-.031.518-.127.04-.039.123-.133.069-.15-.147-.046 0 .001.046-.322.027-.026.025-.065 0-.092s-.065-.037-.092-.012zm13.306-36.686c-.204-.017-.466.064-.657.126-.636.208-1.199.617-1.671 1.084-1.578 1.56-2.26 3.85-2.604 5.98-.399 2.472-.319 5.054.046 7.525l.369 2.132.277 1.44a7.94 7.94 0 0 1 .023 1.429c-.101 1.715-.62 3.371-1.256 4.955-1.26 3.137-3.169 5.983-5.186 8.677-.174.233-.129.563.104.738s.563.118.737-.116c1.899-2.541 3.604-5.251 4.886-8.158.843-1.91 1.511-3.947 1.59-6.05a10.39 10.39 0 0 0-.115-1.97c-.096-.615-.27-1.211-.392-1.821-.135-.674-.227-1.36-.323-2.04-.42-2.983-.545-6.199.392-9.103.407-1.261 1.009-2.51 2.005-3.411a4.06 4.06 0 0 1 .922-.634c.303-.15.621-.198.922-.322.127-.053.233-.139.357-.197.038-.001.07-.031.069-.069s-.031-.07-.069-.069c-.089-.032-.333-.119-.427-.126zm26.243 13.109c-.017.009-.02.03-.012.047l1.556 4.113c.868 2.01 1.883 3.963 2.984 5.854 1.013 1.74 2.12 3.448 3.515 4.909.966 1.012 2.069 1.929 3.319 2.57l.818.38c.141.055.288.117.438.139.157.022.313-.006.472-.012.023.008.05-.001.058-.023s-.012-.05-.035-.058c-.12-.099-.225-.216-.357-.299-.243-.153-.527-.228-.783-.358l-.75-.426c-1.152-.716-2.165-1.652-3.042-2.685-1.283-1.511-2.369-3.175-3.307-4.92l-2.639-5.393c-.651-1.318-1.392-2.592-2.189-3.826-.009-.017-.03-.02-.046-.012z"/><path d="M164.001 88.454c-.388-.149-.819.05-.969.438l-3.065 7.571-1.555 3.722c-1.452 3.3-3.038 6.537-4.828 9.668-1.389 2.427-2.877 4.809-4.483 7.098-.895 1.276-1.846 2.509-2.777 3.757l-4.079 5.335c-2.979 3.714-6.044 7.352-9.404 10.729-1.065 1.07-2.154 2.117-3.261 3.145-.602.559-1.296 1.072-1.809 1.717-.134.169-.248.353-.369.531-.006.004-.004.017 0 .022.214-.074.428-.126.622-.218.749-.355 1.404-.98 2.04-1.498.673-.549 1.318-1.122 1.959-1.706 3.013-2.743 5.76-5.787 8.389-8.896 2.621-3.099 5.131-6.301 7.56-9.553l2.454-3.307c1.516-2.105 2.926-4.299 4.241-6.534 1.964-3.339 3.724-6.797 5.346-10.313l1.407-3.089c1.073-2.524 2.03-5.095 3.018-7.652a.75.75 0 0 0-.437-.968z"/><path d="M144.827 40.887c-.044-.028-.099-.02-.127.023s-.02.099.023.127l3.284 2.731c1.676 1.571 3.142 3.366 4.413 5.278 1.006 1.511 1.818 3.139 2.582 4.782 1.595 3.431 2.749 7.048 3.653 10.717.463 1.88.928 3.746 1.302 5.646 1.234 6.265 1.987 12.629 2.616 18.979a.61.61 0 0 0 .668.542.6.6 0 0 0 .53-.669l-.933-8.32c-.91-7.473-2.011-14.997-4.633-22.09-.791-2.142-1.681-4.262-2.777-6.269-1.827-3.349-4.136-6.528-7.029-9.034-1.091-.945-2.256-1.84-3.572-2.443zm-8.545-8.644c-.183.009-.32.162-.311.346s.162.32.346.311c.253.025.508-.003.76.035.226.034.406.132.623.196.576.17 1.153.355 1.694.622 1.04.514 1.986 1.264 2.823 2.063s1.627 1.755 2.028 2.858c.255.7.208 1.319.253 2.04-.011.045.013.092.058.104s.093-.012.104-.058c.671-1.109-.046-2.767-.68-3.745-1.17-1.806-2.929-3.09-4.805-4.091-.399-.212-.82-.41-1.256-.53-.243-.067-.502-.065-.749-.104-.309-.048-.577-.103-.888-.046z"/><path d="M138.55 32.956c-.021-.012-.046-.009-.058.011s.002.046.023.058c.246.244.637.603.738.945.254.868-.856 1.747-1.429 2.201l-.542.403c-1.376.975-2.917 1.705-4.459 2.374-1.258.546-2.573 1.114-3.919 1.406-.303.08-.483.388-.403.692s.388.483.692.403c.59-.179 1.154-.418 1.717-.668l3.687-1.832c1.33-.742 2.713-1.509 3.849-2.535.774-.699 1.875-1.977.968-2.996-.085-.095-.182-.193-.288-.265-.169-.115-.38-.15-.576-.196zm-22.537 6.142c-.098-.056-.221-.018-.276.08-.175.177-.345.366-.461.588-.265.507-.052 1.193.334 1.567.518.502 1.37.762 2.063.876.699.115 1.413.131 2.12.15 1.661.044 3.33-.112 4.978-.3 1.027-.117 2.135-.23 3.054-.738.178-.046.288-.225.242-.404s-.237-.288-.415-.242c-1.251-.019-2.486.265-3.722.426-1.699.222-3.462.37-5.174.23a12.88 12.88 0 0 1-1.199-.161c-.31-.055-.613-.101-.898-.242-.234-.116-.516-.3-.6-.565-.085-.271-.026-.713.035-.979.056-.098.018-.232-.081-.288z"/><path d="M115.26 41.319c-.036.017-.051.056-.035.092.029.209.026.43.081.634.101.378.305.718.472 1.072a14.25 14.25 0 0 0 1.084 1.889c1.064 1.564 2.384 2.862 4.125 3.653 1.953.887 4.408.985 6.511.738.489-.058.968-.164 1.452-.254.871-.161 1.712-.396 2.558-.657.533-.164 1.077-.34 1.567-.611.526-.291.986-.71 1.452-1.083.039-.018.064-.065.046-.104s-.065-.052-.103-.035l-1.752.334c-.695.197-1.351.528-2.028.772l-1.913.611c-.451.128-.922.205-1.383.288-1.256.224-2.557.308-3.814.046-.898-.187-1.765-.556-2.57-.991-.847-.458-1.6-1.098-2.282-1.775a13.99 13.99 0 0 1-1.82-2.212l-.864-1.395c-.097-.167-.165-.349-.277-.507-.121-.171-.278-.315-.415-.473-.016-.036-.056-.051-.092-.035zm29.412-.768c-.062-.057-.162-.05-.219.011l-1.337 1.325-.795.83c-.554.502-1.257.88-1.878 1.291a.16.16 0 1 0 .161.276l1.187-.576c.255-.12.527-.227.749-.403.378-.3.669-.709.968-1.083l1.176-1.452c.057-.062.05-.161-.012-.219z"/><path d="M118.428 46.99c-.023 0-.035.023-.035.046-.047.153-.116.293-.149.45-.121.573-.076 1.204-.104 1.786l-.092 4.31.046 5.704c.027.936-.005 1.943.276 2.846.341 1.096.944 2.112 1.533 3.088.857 1.421 1.824 2.77 2.811 4.102l5.232 6.488 2.42 2.731 2.063 2.074c.18.183.485.181.668 0s.181-.474 0-.657l-1.567-1.683-2.455-2.639c-2.221-2.452-4.31-5.058-6.257-7.732l-2.581-3.837c-.449-.752-.911-1.542-1.164-2.385-.154-.514-.157-1.082-.196-1.613l-.103-2.224-.058-6.903-.046-2.097c-.011-.442.015-.911-.069-1.349-.031-.157-.082-.307-.127-.461a.05.05 0 0 0-.046-.046zm4.998 24.129c-.027.003-.049.03-.046.058l-.104.726c-.023.452.039.907.069 1.359l.127 1.867.265 4.909-.046 2.19c-.038.429-.064.862-.3 1.233-.639 1.008-2.23 1.374-3.307 1.602-.993.21-2.009.321-3.019.415l-1.383.127c-1.063.137-2.113.449-3.042.991-2.7 1.574-3.848 4.593-4.31 7.537-.479 3.054-.406 6.14-.276 9.219l.126 2.327.093.807.265 2.466c.018.227.211.398.437.38a.42.42 0 0 0 .381-.449c.018-.831-.079-1.638-.115-2.466l-.127-3.111c-.107-2.626-.059-5.272.253-7.883.26-2.172.845-4.688 2.19-6.465.847-1.12 2.058-1.846 3.411-2.19.866-.22 1.777-.271 2.662-.38l2.65-.45c1.313-.296 3.084-.815 3.803-2.074.284-.498.277-1.032.299-1.59l.035-1.072c.019-1.666-.071-3.33-.219-4.99l-.311-2.996c-.051-.451-.067-.907-.173-1.348-.057-.239-.162-.471-.242-.703-.003-.028-.019-.049-.046-.047zm-17.34 24.138c-.392.044-.776.298-1.106.496a9.8 9.8 0 0 0-1.855 1.452c-.81.797-1.529 1.668-2.202 2.581-.683.929-1.352 1.865-2.178 2.674l-.599.564c-.424.327-.969.512-1.464.703a19.19 19.19 0 0 1-2.028.646c-.742.195-1.499.367-2.19.714-.869.437-1.499 1.149-2.028 1.948-.654.987-1.145 2.051-1.613 3.134-.271.626-.486 1.234-.588 1.913-.141.949-.092 1.898.035 2.846.274 2.052 1.03 4.03 1.867 5.912l2.731 5.45 3.803 7.56c1.742 3.771 2.871 7.776 3.768 11.823l1.014 4.713c.053.29.332.49.623.438s.478-.332.426-.623c-.733-5.493-2.32-10.942-4.575-16.006-1.19-2.672-2.598-5.241-3.987-7.813-1.433-2.651-2.78-5.4-3.803-8.239-.639-1.774-1.177-3.673-1.003-5.577.103-1.122.52-2.169.968-3.192.255-.583.503-1.159.83-1.706.408-.682.927-1.3 1.613-1.717.758-.46 1.665-.64 2.512-.864 1.069-.283 2.195-.636 3.146-1.21a7.19 7.19 0 0 0 1.118-.806c.364-.332.677-.715 1.002-1.084 1.063-1.204 1.992-2.536 3.089-3.71.55-.59 1.161-1.144 1.82-1.614.357-.254.829-.444 1.141-.737.154-.145.29-.31.438-.461.049-.018.076-.077.058-.126s-.078-.076-.127-.058c-.221-.014-.437-.047-.657-.023z"/><path d="M92.137 124.776c-.021.009-.031.025-.023.046.171 1.109.638 2.124.956 3.192l1.302 4.725a52.84 52.84 0 0 1 1.118 6.43l.231 2.466.242 2.512c.001.037.033.059.069.058s.07-.021.069-.058l.035-2.535c-.023-.968-.125-1.942-.23-2.904-.3-2.725-.842-5.429-1.544-8.078l-.438-1.59-.553-1.555c-.32-.934-.639-1.858-1.187-2.686-.008-.021-.025-.031-.046-.023zm34.25-120.635c-.145-.001-.458.06-.6.081-.088-.011-.173.05-.184.138s.049.161.138.173l.519.253c.235.103.486.141.726.231.467.174.9.437 1.279.76.972.83 1.623 2.058 2.086 3.227.345.874.582 1.777.818 2.685.358 1.378.616 2.776.829 4.183l.922 8.159c.194 2.253.267 4.541 1.141 6.66.527 1.279 1.392 2.31 2.282 3.354l1.129 1.314c.017.025.056.039.081.023s.028-.055.011-.081l-.311-.668c-.176-.289-.421-.556-.634-.818l-1.048-1.302c-.626-.875-1.07-1.851-1.372-2.881-.443-1.514-.543-3.103-.656-4.667l-.185-2.374-.956-8.147-.807-3.929-.426-1.348-.461-1.187c-.661-1.499-1.656-2.865-3.204-3.526-.343-.147-.738-.308-1.117-.311zm1.817 3.607c-.055.022-.08.084-.058.138.248 1.071.198 2.201.104 3.284a18.69 18.69 0 0 1-.818 4.068c-.204.639-.436 1.307-.772 1.89-.237.41-.547.964-1.026 1.129-.131.045-.292.027-.426.035l-.703.069c-.432.042-.944.118-1.279-.219-.321-.322-.436-.818-.53-1.244-.143-.643-.186-1.304-.231-1.959-.022-.325.004-.708-.069-1.026-.03-.131-.102-.254-.15-.38 0-.018-.016-.023-.034-.023s-.023.005-.023.023c-.047.127-.122.248-.15.38-.068.32-.027.712-.023 1.037.012.91.058 1.881.346 2.754.135.411.343.818.725 1.049.581.349 1.288.205 1.925.162.412-.028.769.004 1.129-.231.608-.396.969-1.074 1.279-1.705.782-1.588 1.139-3.424 1.348-5.162.072-.593.088-1.156.07-1.752-.026-.858-.063-1.516-.496-2.259-.022-.055-.083-.079-.138-.058z"/><path d="M115.907 13.145c-.223.002-.394.192-.391.415.016 1.197.176 2.643 1.048 3.549.867.899 1.755.691 2.846.565.663-.077 1.336-.201 1.809-.715.737-.799.835-2.037.934-3.065.008-.062-.042-.119-.104-.127s-.107.031-.115.092c-.148.876-.38 2.149-1.026 2.812-.459.472-1.128.461-1.74.484-.501.019-1.04.099-1.521-.092-.469-.187-.777-.64-.956-1.095-.303-.765-.366-1.606-.369-2.42-.002-.223-.192-.405-.415-.403z"/><path d="M108.48 3.239c-.108.009-.194.099-.184.208-.044.393-.087.78-.069 1.175.023.545.136 1.078.23 1.614l.495 2.535 1.014 3.423c.24.786.441 1.596.899 2.293a2.34 2.34 0 0 0 .634.645c.693.456 2.094.576 2.835.173.452-.245.778-.695.968-1.164.221-.545.329-1.14.426-1.717.299-1.777.22-3.603.115-5.393l-.115-1.498c-.028-.368-.02-.783-.115-1.141-.034-.13-.1-.256-.15-.381-.034.13-.085.259-.104.392-.051.369.014.781.024 1.152l.022 1.486c-.004 2.027.028 4.171-.587 6.13-.244.779-.58 1.523-1.498 1.521-.251 0-.504-.042-.749-.092-.302-.062-.6-.152-.83-.369-.774-.729-1.038-2.071-1.348-3.042l-.888-2.57c-.213-.812-.376-1.627-.437-2.466l-.116-1.59c-.055-.39-.157-.774-.264-1.152-.01-.108-.1-.182-.208-.173z"/><path d="M102.913.858c-.258-.032-.508-.015-.749.104-.608.3-.911 1.086-1.233 1.636-.291.496-.583.899-.565 1.498.025.849.437 1.659.818 2.397.701 1.358 1.577 2.616 2.593 3.756 1.035 1.163 2.504 2.656 4.102 2.95.849.156 1.496-.128 1.913-.875.072-.128.18-.293.208-.438.012-.064-.01-.319-.012-.38.004-.014.003-.031-.011-.035s-.031.009-.035.023l-.219.288c-.217.357-.293.622-.668.864-.905.583-2.235-.279-2.95-.806l-.576-.461c-1.16-.955-2.145-2.148-2.985-3.388-.664-.979-1.262-2.028-1.521-3.192-.076-.341-.13-.726-.046-1.072.049-.206.2-.368.311-.542l.588-1.014c.221-.353.494-.773.968-.714.451.056.865.292 1.256.507.69.381 1.332.836 1.958 1.313.44.334.853.764 1.349 1.014.149.075.305.123.461.184.044.035.115.021.15-.023s.021-.104-.024-.138c-.096-.137-.179-.288-.288-.415-.282-.331-.665-.566-1.014-.818-.975-.704-1.932-1.495-3.03-2.005-.231-.107-.492-.188-.749-.219z"/><path d="M94.749 2.67a6.69 6.69 0 0 0-1.798.507c-.188.087-.272.307-.184.496s.307.272.496.184a4.66 4.66 0 0 1 1.337-.426c.317-.047.639-.015.956.011 1.726.146 3.306 1.135 4.459 2.397 1.03 1.126 1.761 2.522 2.593 3.791l1.406 1.959c.623.785 1.28 1.558 2.074 2.178 1.769 1.38 4.129 1.45 6.177 2.166.517.181.976.437 1.452.703.944.528 1.822 1.136 2.65 1.832l.911.83c.144.129.32.2.461.334.007.018.028.031.046.023s.019-.029.011-.046c-.024-.499-.296-.809-.622-1.164-.444-.483-.948-.913-1.475-1.302-1.233-.91-2.596-1.569-4.045-2.062l-3.388-1.083c-1.177-.461-2.107-1.329-2.95-2.247-.531-.578-.996-1.197-1.44-1.844-1.132-1.649-2.081-3.493-3.492-4.932-.804-.82-1.795-1.415-2.846-1.855-.907-.38-1.807-.594-2.789-.45zM112.387.969c-1.004-.152-2.02.24-2.857.761-.144.089-.394.247-.519.369-.072.07-.233.29-.3.38-.063.051-.073.144-.023.207s.144.074.208.023c1.226-.519 2.624-1.542 3.975-.737.917.546 1.535 1.686 2.628 1.947.691.166 1.473.047 2.143-.15.488-.143 1.031-.417 1.556-.369.181.017.345.112.506.196.17.088.328.203.485.311.678.47 1.797 1.534 2.731 1.337.472-.1 1.067-.516 1.463-.818.163-.124.278-.254.473-.334.032-.002.06-.037.057-.069s-.037-.049-.069-.046c-.659-.146-1.167.222-1.751.473a1.18 1.18 0 0 1-.565.104c-.092-.008-.214-.071-.3-.104-.424-.163-.78-.448-1.152-.703-.528-.362-1.033-.688-1.636-.91-.424-.156-.946.055-1.348.161-.755.199-1.529.326-2.305.208-.437-.067-.836-.436-1.153-.715-.692-.608-1.276-1.374-2.247-1.521z"/><path d="M122.556 5.517c-.027-.007-.051.007-.057.035-.127.242-.314.496-.415.749-.155.391-.089.951-.092 1.348v1.763c-.006.067.036.133.103.139s.134-.048.139-.115l.311-2.501c.017-.171.084-.35.092-.518.014-.273-.038-.567-.046-.841.007-.028-.007-.051-.035-.058zM92.78 3.726c-.031-.008-.061.015-.069.046-.102.164-.202.33-.254.518-.09.327-.005.726.069 1.049.17.739.513 1.426.899 2.074.835 1.402 1.89 2.67 2.892 3.953l2.443 3.342c1.656 2.493 3.045 5.149 4.31 7.859l1.694 3.699c.33.678.671 1.387 1.141 1.982.65.823 1.569 1.426 2.57 1.728s2.168.429 2.996 1.13c.438.371.747.884 1.037 1.371.409.688.77 1.411 1.117 2.132l2.755 6.43c.091.246.365.368.611.277s.368-.365.276-.611c-.906-2.392-1.9-4.757-3.077-7.029-.396-.766-.819-1.528-1.314-2.236-.218-.313-.455-.638-.737-.899-.234-.216-.523-.381-.795-.542a7.32 7.32 0 0 0-1.406-.645l-1.487-.484c-.468-.203-.869-.486-1.244-.83-.126-.115-.244-.224-.346-.357-.444-.585-.759-1.258-1.083-1.913l-1.464-3.065c-1.234-2.605-2.529-5.169-4.217-7.513l-2.385-3.042-2.558-3.365c-.802-1.097-1.645-2.3-2.063-3.607-.092-.287-.106-.573-.173-.864-.041-.177-.078-.336-.092-.519.008-.031-.015-.061-.046-.069zm-51.89 120.36c-.111-.041-.229-.041-.346.012-1.849.638-3.519 1.657-5.047 2.869-2.541 2.015-4.641 4.543-6.038 7.479-.512 1.076-.879 2.175-1.164 3.33-.185.75-.321 1.45-.276 2.224-.009.049.02.107.069.115s.096-.031.104-.08c.344-.814.517-1.672.818-2.501.433-1.193.954-2.363 1.579-3.468 1.518-2.687 3.711-4.993 6.245-6.742 1.301-.897 2.72-1.605 4.091-2.385a.46.46 0 0 0 .23-.611c-.053-.116-.154-.2-.265-.242zm37.892-9.748c-.206.014-.371.185-.357.392s.197.371.403.357c1.02-.109 2.035-.098 3.019.231.498.166.968.423 1.452.622.031.024.068.019.092-.012s.019-.068-.011-.092l-.265-.357c-.274-.289-.716-.501-1.072-.657-1.029-.451-2.153-.513-3.261-.484zm-45.339-10.807c-.017.005-.028.029-.023.046 0 .179-.019.352 0 .53.088.863.467 1.719.795 2.512l.887 1.97c1.513 3.139 3.416 6.075 4.782 9.288.823 1.935 1.491 3.946 1.763 6.038a16.11 16.11 0 0 1 .138 2.086c0 .177-.004.353-.011.53s-.049.365-.023.542c.03.202.13.383.196.576-.004.033.013.065.046.069s.065-.013.069-.046c.115-.174.272-.335.346-.53.066-.176.051-.366.069-.553a15.97 15.97 0 0 0 .058-1.118c.038-1.649-.258-3.273-.714-4.851-.616-2.128-1.617-4.123-2.65-6.073l-2.616-4.875c-.593-1.098-1.164-2.211-1.694-3.342-.44-.938-.787-1.916-1.371-2.777-.005-.017-.029-.028-.046-.022zm-6.16-20.856a.24.24 0 0 0-.323.081c-.194.261-.371.486-.53.772-.632 1.14-.889 2.503-.933 3.791-.08 2.319.522 4.615 1.567 6.672a.52.52 0 0 0 .703.207.52.52 0 0 0 .207-.703c-1.442-2.495-1.978-5.608-1.36-8.435.156-.715.424-1.403.737-2.063.066-.109.04-.257-.069-.323zm1.251 11.852c-.038-.013-.079.008-.092.046-.182.155-.433.328-.564.53-.166.254-.17.664-.196.956-.067.769-.026 1.579.162 2.328.586 2.339 2.299 4.724 4.967 4.563.383-.023.728-.126 1.083-.265a.5.5 0 0 0 .346-.622c-.08-.268-.366-.426-.634-.346-.394.079-.819.143-1.222.092-1.77-.224-2.895-2.212-3.319-3.745l-.207-.887a5.23 5.23 0 0 1-.104-1.279c.007-.191.063-.41.023-.599-.049-.227-.148-.448-.196-.68.013-.038-.008-.079-.046-.092zm4.256-6.48c.419.831.769 1.74.968 2.65.088.4.185.902.104 1.314-.07.357-.194.712-.38 1.025-.513.864-1.247 1.563-1.141 2.639.02.204.064.423.15.611.082.179.143.303.277.45.168.184.39.316.611.426.324.162.611.23.968.277.031.014.067.008.081-.023s.007-.067-.023-.081l-.415-.323c-.426-.263-.849-.424-1.049-.922-.388-.965.622-2.025 1.06-2.743.117-.191.239-.38.322-.587.447-1.108.042-2.687-.553-3.653-.258-.418-.606-.748-.979-1.06z"/><path d="M34.169 104.621c-.036.023-.047.066-.023.103 1.363 2.42 2.985 4.701 4.69 6.891 2.441 3.137 5.157 6.016 8.251 8.516 1.836 1.483 3.791 2.853 5.877 3.964a34.11 34.11 0 0 0 8.458 3.146c1.655.376 3.306.644 5.001.737.251.023.473-.163.496-.415s-.164-.473-.415-.495c-1.201-.148-2.401-.285-3.595-.484-1.969-.328-3.917-.825-5.785-1.533a36.97 36.97 0 0 1-9.299-5.174c-1.205-.918-2.33-1.948-3.423-2.996a58.39 58.39 0 0 1-3.768-3.952c-1.221-1.411-2.387-2.885-3.503-4.379l-2.858-3.907c-.024-.036-.067-.047-.104-.022zm52.149-15.123a.44.44 0 0 0-.53.322l-2.213 8.297-2.062 6.442c-1.144 3.349-2.42 6.668-3.918 9.875a59.27 59.27 0 0 1-2.443 4.679c-1.189 2.049-2.542 4.043-4.195 5.75-.883.913-1.907 1.673-2.938 2.409-.036.019-.043.067-.023.103s.056.055.092.035c.31-.125.633-.245.922-.415.935-.548 1.76-1.338 2.524-2.097 1.951-1.939 3.516-4.31 4.863-6.695 3.127-5.538 5.414-11.528 7.341-17.573l1.59-5.221c.516-1.776.99-3.571 1.314-5.393.055-.236-.087-.464-.323-.518zM23.312 78.323c-.165.019-.273.17-.253.334-.036.495.003.969 0 1.463l-.012.853c-.012.669-.076 1.374.012 2.04.037.285.137.591.438.691.581.193 1.406-.609 1.786-.945.373-.329.716-.691 1.06-1.049.099-.09.101-.246.011-.346s-.246-.101-.346-.012c-.078.071-.507.403-.507.403l-.645.496-.864.633a3.78 3.78 0 0 1-.207.104l-.012-.138c-.002-.153.012-.309.023-.461l.104-1.832-.057-.945c-.013-.17-.188-.957-.196-1.026-.02-.164-.17-.285-.334-.265z"/><path d="M17.35 76.994c-.084.029-.165.086-.207.173-.085.174-.012.388.161.472.899.449 1.838.839 2.789 1.164.692.236 1.484.468 2.224.426.277-.016.558-.085.83-.138.064-.003.118-.051.115-.115s-.062-.119-.127-.115l-.795-.115c-.706-.104-1.401-.164-2.074-.426-.923-.359-1.758-.891-2.65-1.314-.087-.042-.181-.041-.265-.012z"/><path d="M22.963 76.015c-.051.011-.076.082-.115.115a1.26 1.26 0 0 1-.138.104l-.369.231c-.228.121-.476.178-.726.242-.851.218-1.773.285-2.65.334l-.979.034-.507.069c-.038-.005-.076.019-.081.058s.02.076.058.081c.591.207 1.185.251 1.81.277 1.038.043 2.066-.063 3.065-.357.371-.109.701-.235 1.003-.484.069-.057.186-.097.207-.184.028-.114-.046-.23-.069-.346.04-.053.019-.133-.035-.173s-.122-.03-.162.023c-.104-.007-.209-.045-.311-.023z"/><path d="M16.805 72.948c-.095-.06-.227-.025-.288.069s-.026.216.069.276c.159.18.291.384.472.542.171.149.385.246.576.369l.853.53c1.249.756 2.531 1.442 3.999 1.636.237.031.475.072.714.058.255-.015.5-.092.749-.15.025 0 .046-.021.046-.046s-.01-.046-.034-.046l-.715-.219-.979-.207c-.704-.2-1.376-.489-2.017-.842-.759-.417-1.459-.901-2.178-1.383-.189-.127-.369-.284-.576-.38-.219-.102-.46-.137-.691-.208z"/><path d="M24.037 71.151l-1.21.737a6.7 6.7 0 0 1-1.728.565c-1.059.197-2.152.095-3.215.265-.451.072-.755.058-1.183.217-.057.013-.094.07-.081.126s.07.094.127.081c.657-.055 1.181.062 1.84.037 1.941-.073 4.464.044 5.601-1.867.042-.043.043-.119 0-.161s-.108-.043-.15 0zM88.61 86.983c-.189.126-.388.225-.564.369s-.315.325-.472.484l-.933.957c-.151.161-.332.302-.438.495-.117.212-.137.46-.207.692-.007.008-.008.016 0 .023s.016.008.023 0c.223-.098.472-.145.669-.288.179-.131.287-.346.426-.519l.415-.518.83-1.026c.132-.183.238-.385.357-.576.027-.028.028-.065 0-.092s-.077-.028-.104 0z"/><path d="M88.272 87c-.028 0-.046.029-.046.058-.047.141-.111.268-.139.415-.054.289-.032.594-.046.887l-.035.91c-.028.772-.059 1.547.035 2.316.03.247.118.632.173.876.028.186.206.316.392.288s.304-.206.277-.392l-.3-3.1-.092-1.348c-.008-.145.005-.295-.023-.438s-.09-.274-.138-.415c0-.028-.029-.058-.058-.058z"/><path d="M92.201 87.326c-.032-.011-.058.003-.069.035-.142.139-.312.252-.426.415-.103.145-.149.333-.219.496l-.207.484-.438.979c-.539 1.135-1.218 2.184-1.947 3.203-.036.044-.032.102.011.139s.102.032.138-.012c1.024-1.054 1.905-2.235 2.593-3.538l.473-1.002c.069-.171.162-.336.184-.519.024-.201-.029-.398-.046-.6.012-.031-.014-.069-.046-.08z"/><path d="M97.571 84.469a10.02 10.02 0 0 0-4.195 1.291c-.644.367-1.21.779-1.579 1.429-.075.096-.062.236.035.311s.236.062.311-.035c.472-.443.966-.897 1.521-1.233.521-.314 1.072-.515 1.648-.703 1.353-.44 2.721-.602 4.137-.461.484.049.971.139 1.429.311.322.121.585.288.933.323.02.014.043.008.057-.011s.009-.044-.011-.058c-.184-.369-.453-.484-.818-.645a6.13 6.13 0 0 0-1.994-.519 9.76 9.76 0 0 0-1.475 0z"/><path d="M94.583 81.203c-.153-.018-.293.089-.311.242s.1.293.254.311l2.086.38c1.075.253 2.086.664 3.042 1.21.545.312 1.072.662 1.487 1.141.312.361.355.795.576 1.198.001.019.015.036.034.035s.036-.016.035-.035c.296-.833-.553-1.791-1.153-2.247-1.157-.879-2.498-1.409-3.883-1.821-.712-.211-1.422-.395-2.166-.415z"/><path d="M96.168 77.621c-.032-.009-.072.014-.081.046s.014.072.046.081c.106.072.25.121.334.219.313.361-.265.97-.472 1.221-.372.45-.789.852-1.198 1.268-.215.219-.441.408-.587.68-.028.028-.028.076 0 .104s.076.028.104 0c.485-.244.893-.649 1.267-1.037.408-.422.81-.873 1.049-1.417.206-.47.242-1.175-.461-1.164z"/><path d="M95.304 77.397c-.278.06-.55.185-.806.288a5 5 0 0 1-.91.276c-.678.134-1.409-.14-2.074-.219a.14.14 0 0 0-.162.092.12.12 0 0 0 .081.15c.77.383 1.669.545 2.501.265.724-.244 1.367-.804 2.166-.68.022.008.05-.001.058-.023s-.002-.05-.023-.058c-.264-.152-.552-.152-.83-.092zM59.021 91.764c-.127-.001-.249.042-.346.138-1.626 1.689-4.258 2.185-6.43 1.337a3.97 3.97 0 0 1-.979-.542c-.199-.153-.371-.381-.588-.507-.132-.076-.28-.124-.415-.196-.016-.022-.048-.027-.069-.012s-.026.048-.011.069l.104.473c.103.26.37.481.576.657.559.477 1.22.817 1.925 1.025 1.832.543 3.971.211 5.589-.795.368-.229.679-.51.991-.807a.5.5 0 0 0 .011-.703.5.5 0 0 0-.357-.138zm22.816-1.832c-.098.028-.188.088-.242.184-.231.33-.463.649-.795.887-.979.701-2.381.854-3.526.553a3.48 3.48 0 0 1-.737-.288c-.254-.134-.423-.263-.703-.346-.022-.023-.058-.022-.081 0s-.022.058 0 .08c.028.101.029.208.081.3.07.125.337.316.449.392.434.293.939.471 1.452.565 1.556.284 3.852-.161 4.563-1.752a.4.4 0 0 0-.161-.542c-.097-.054-.201-.063-.3-.035zm-11.026 2.819c-.077.025-.117.108-.092.184.122 1.225.491 2.388.806 3.573l.934 4.045.449 2.005c.073.32.167.605.046.922-.154.404-.491.722-.795 1.014-.58.557-1.249 1-1.913 1.452-.159.108-.344.191-.484.323-.147.137-.244.314-.369.472-.034.021-.044.07-.023.104s.059.044.092.023c.196-.046.401-.064.588-.138.18-.072.341-.201.507-.3l.98-.599c.737-.5 1.603-1.069 1.97-1.925.279-.649.09-1.237-.046-1.901l-.645-3.204-.68-2.904c-.184-.733-.367-1.494-.668-2.19-.133-.307-.303-.577-.472-.864-.025-.076-.108-.117-.184-.092zm-6.419 12.263c-.031.006-.051.038-.046.07-.002.178-.007.36.057.53.361.949 1.645.548 2.339.345l.438-.126.426-.093c.346-.066.673.056 1.014 0 .036.026.079.013.104-.022s.024-.079-.011-.104c-.028-.082-.039-.185-.092-.254-.201-.26-.846-.166-1.118-.103l-.45.115-.461.15c-.429.145-1.368.63-1.798.184-.162-.169-.261-.429-.334-.645-.005-.032-.038-.051-.069-.047z"/><path d="M73.637 104.726c-.125-.036-.263.036-.3.162l-.726.31a2.33 2.33 0 0 1 .668-.161c.05-.004-.057.068-.092.104l-.219.23c-.16.173-.409.337-.657.277-.066-.016-.118-.051-.184-.069.218-.108.434-.228.668-.288.228-.059-.268.078-.737.207-.038.012-.114.038-.173.012-.019-.027-.054-.042-.081-.023s-.031.065-.011.092l.253-.069c.017-.004.029-.012-.046.046-.029.022.079.015.115.023-.099.049-.205.082-.299.138-.042.025.013.095.034.139s.049.072.081.103c.113.113.296.175.45.196a1.38 1.38 0 0 0 1.187-.496c.049-.064.084-.144.115-.218s.147-.206.069-.219c-.316-.053.003-.007.046-.208.036-.125-.036-.251-.161-.288zm-14.631 6.601a.26.26 0 0 0-.357.115c-.066.134-.008.302.127.368 1.846 1.069 3.874 1.705 5.969 2.063.734.126 1.478.222 2.224.231.761.009 1.526-.038 2.282-.127 1.461-.173 2.815-.671 4.079-1.418l.542-.345c.174-.136.313-.308.472-.461.019-.011.023-.027.011-.046s-.027-.023-.046-.012c-.787.273-1.512.665-2.293.957a14.58 14.58 0 0 1-2.846.749c-.958.147-1.909.083-2.869-.012-2.55-.253-4.939-1.099-7.294-2.062z"/><path d="M59.355 111.816c-.012.008-.02.023-.011.035.025.183.024.365.08.541.158.487.588.829.91 1.199l.323.403c.338.363.757.665 1.164.945l1.245.818c.33.192.538.244.887.392l1.313.553c.575.198 1.188.274 1.786.357.972.136 1.974.184 2.904-.196.803-.328 1.44-.941 2.028-1.555.825-.862 1.505-1.842 2.178-2.823.058-.08.033-.185-.046-.243a.17.17 0 0 0-.242.035l-1.855 2.27c-.19.194-.378.395-.599.553-.321.23-.711.477-1.083.611-.296.107-.625.151-.933.207-.728.134-1.497.201-2.236.139-.546-.046-1.082-.211-1.613-.334-.429-.1-.859-.196-1.268-.369-.277-.118-.534-.277-.807-.404l-.818-.403c-.531-.326-.988-.746-1.475-1.129-.123-.097-.264-.171-.381-.277-.35-.317-.575-.762-.956-1.048-.144-.108-.305-.187-.461-.277-.008-.012-.023-.008-.035 0zm7.191 34.28c-.064.017-.098.074-.08.139-.041.167-.102.336-.127.507-.045.31 0 .6.011.91v1.406l-.127 1.475-.219 2.109c-.124.733-.314 1.443-.484 2.166-.772 3.279-1.801 6.677-1.44 10.083.193 1.825.75 3.589 1.936 5.013.209.251.539.677.818.841.181.106.388.144.587.207.265.227.672.208.899-.057a.64.64 0 0 0-.069-.899c-.076-.168-.125-.348-.219-.507-.051-.088-.243-.272-.311-.346a5.08 5.08 0 0 1-.53-.714 7.91 7.91 0 0 1-.91-1.936c-.463-1.523-.395-3.192-.276-4.759.153-2.034.481-4.077.83-6.085.162-.936.275-1.872.415-2.812.108-.726.251-1.456.311-2.189.044-.531.029-1.071 0-1.602-.036-.667-.08-1.379-.299-2.016-.055-.159-.114-.322-.208-.461-.099-.149-.236-.261-.357-.392-.017-.064-.086-.098-.15-.081zm6.883-3.88c-.062.065-.053.168.012.23.371.513.664 1.044.979 1.59l.853 1.614c.45 1.022.776 2.105 1.072 3.18.893 3.239 1.37 6.674 3.076 9.622.794 1.371 1.851 2.522 3.204 3.353a7.58 7.58 0 0 0 .979.508c.177.071.351.161.542.172.211.013.426-.067.634-.103a.79.79 0 1 0 .541-1.487c-.114-.155-.196-.339-.334-.472-.204-.197-.493-.283-.737-.427a6.33 6.33 0 0 1-.968-.691c-1.024-.887-1.79-2.026-2.397-3.227-1.487-2.944-2.166-6.216-3.572-9.195-.431-.914-.919-1.809-1.498-2.639-.19-.272-.377-.549-.599-.795-.444-.491-1.011-.865-1.555-1.233-.065-.063-.168-.065-.231 0zm35.98-48.037c-.016.018-.017.052 0 .069.029.285.005.573.07.853.068.292.344.575.518.807l.911 1.291c.744 1.093 1.566 2.215 2.673 2.973 1.213.831 2.647 1.201 3.987 1.763 1.184.497 2.236 1.224 3.215 2.051 1.173.992 2.06 2.231 2.996 3.434l2.628 3.492 2.581 3.353 2.316 2.996 2.512 2.835 2.927 3.18.888.807 1.278 1.164c.133.135.239.301.369.438.498.523 1.033 1.017 1.625 1.429.45.374 1.112.312 1.487-.138s.311-1.124-.139-1.498c-.482-.481-1.016-.907-1.544-1.337l-.426-.323c-.274-.246-.51-.537-.761-.806l-2.258-2.651-1.971-2.316-1.89-2.489-2.374-2.893-4.805-5.888c-1.065-1.237-2.144-2.496-3.388-3.561-.675-.578-1.419-1.109-2.201-1.532-.414-.225-.852-.402-1.279-.599l-3.595-1.763c-.497-.279-.99-.565-1.418-.945-.314-.279-.584-.596-.864-.91l-1.636-1.832c-.367-.397-.732-.886-1.176-1.21-.096-.07-.196-.151-.311-.184-.284-.082-.592-.044-.887-.058-.018-.017-.041-.018-.058 0zM16.837 176.27c-.906.003-1.8.113-2.697.23l-1.026.162-1.003.288a11.97 11.97 0 0 0-2.12.818c-2.422 1.235-3.045 3.958-4.506 6.027-.298.422-.653.808-1.048 1.14a5.47 5.47 0 0 1-.599.438c-.074.048-.166.078-.23.139-.164.155-.265.365-.392.553-.043.016-.063.072-.046.115s.072.062.115.046c.189.042.501.132.703.103.1-.014.183-.075.277-.115a6.96 6.96 0 0 0 .784-.391c.835-.481 1.553-1.163 2.109-1.948.569-.803.99-1.68 1.429-2.558.351-.704.761-1.431 1.394-1.924.476-.371 1.077-.533 1.648-.692l.887-.242c.389-.089.516-.082.91-.138l1.406-.184a18.97 18.97 0 0 1 3.976.219c.71.115 1.409.295 2.108.461a17.17 17.17 0 0 1 3.849 1.405c.959.49 1.843 1.093 2.742 1.682l1.74 1.13 2.316 1.798 2.651 2.35.899.876.576.611a5 5 0 0 0 .714.542.92.92 0 0 0 1.291.057c.372-.337.395-.907.058-1.279-.478-.911-1.256-1.651-1.982-2.374l-3.031-2.823c-1.066-.899-2.219-1.73-3.388-2.489-1.177-.763-2.469-1.332-3.756-1.878-1.541-.655-3.123-1.297-4.759-1.671-1.294-.296-2.669-.489-3.999-.484zM55.99 83.383c-1.343-.171-2.79.064-4.09.426-.761.212-1.523.491-2.213.876l-.311.184c-.107.062-.242.101-.323.196-.106.124-.147.291-.219.438-.075.032-.101.11-.069.184s.109.113.184.081c.154.048.311.139.472.15.119.008.229-.063.346-.092l.991-.265c1.175-.32 2.392-.679 3.618-.703.769-.015 1.599.002 2.351.184.301.073.57.232.853.357l.876.392.887.507c.172.085.358.154.542.208.104.03.221.007.323.046.128.049.355.295.461.369.26.182.584.311.864.461.084.079.209.083.288 0s.072-.221-.012-.299c-.17-.277-.326-.605-.553-.841-.146-.152-.361-.232-.484-.403-.07-.097-.081-.225-.15-.322a2.75 2.75 0 0 0-.415-.473c-.296-.264-.656-.452-1.003-.645-.335-.186-.676-.369-1.037-.496-.353-.123-.722-.182-1.083-.277l-1.095-.242zm23.863-.702a5.84 5.84 0 0 0-3.285 1.602 4.58 4.58 0 0 0-.76 1.002c-.075.134-.173.266-.208.415-.041.178-.006.369-.011.553-.078.114-.056.268.058.345a.25.25 0 0 0 .346-.069c.165-.065.342-.107.495-.196.227-.132.393-.343.588-.519.494-.445 1.016-1 1.659-1.221.521-.179 1.049-.16 1.59-.173l1.325-.011.795.034c.142.01.291.078.426.035.201-.065.352-.231.53-.345.116.024.229-.046.254-.162s-.046-.229-.162-.254c-.119-.178-.193-.392-.357-.53-.115-.097-.293-.096-.438-.138l-.415-.115c-.403-.111-.806-.202-1.221-.254-.399-.05-.803-.052-1.21 0zM61.43 88.796c-.083-.061-.193-.038-.253.046s-.049.192.035.254c.49.548.93 1.098 1.083 1.832.119.569.009 1.246-.046 1.821-.013.065.027.125.092.138s.125-.027.138-.092c.192-.63.375-1.238.415-1.902.009-.152.023-.368-.011-.53a2.35 2.35 0 0 0-.668-1.118c-.221-.204-.514-.327-.784-.45z"/><path d="M73.74 112.174c-.034-.023-.081-.012-.104.023-.107.055-.226.1-.323.173-.081.06-.127.144-.196.219l-.761.852c-.545.619-1.097 1.191-1.844 1.567-2.264 1.14-5.076.786-7.191-.541-.621-.39-1.16-.874-1.717-1.348-.187-.16-.361-.336-.565-.473s-.432-.223-.645-.334a.4.4 0 0 0-.564.104c-.131.186-.094.446.092.576.523.484 1.086.898 1.648 1.336.525.411 1.065.812 1.659 1.118 1.984 1.022 4.413 1.479 6.545.669.692-.263 1.295-.681 1.879-1.129.669-.514 1.328-1.059 1.774-1.787.11-.179.245-.35.3-.553.032-.118.026-.247.035-.369.022-.034.011-.081-.023-.103zm46.1 438.25c.139.173.242.387.414.527.153.125.367.144.531.255.17.114.304.272.461.405l.483.402.945.874c.564.527 1.163.97 1.81 1.383.332.214.741.505 1.129.601.106.026.214.015.323.022.026.011.057-.007.069-.033s.003-.059-.023-.07c-.449-.409-1.01-.668-1.464-1.084-.955-.874-1.846-1.815-2.915-2.559l-.542-.354c-.18-.111-.35-.266-.553-.325-.214-.063-.445-.029-.668-.044z"/><path d="M117.832 548.201c-.17-.022-.344-.019-.426.066-.063.067-.183.174-.127.244.339.424 0 0-.115.151-.01.015-.005.022 0 .022l.219.173c.035.048.055.089.092.126.024.022.062.014.092.022l.796.612-.75-.612c.077.015.151.044.219.048.388.018.763.103 1.072.346a1.41 1.41 0 0 1 .45.598c.011.033.013.07.023.103l.553.288c.059.025.003-.129 0-.196-.014-.243-.076-.483-.185-.7-.275-.554-.886-1.015-1.475-1.188-.096-.029-.267-.085-.438-.103zm1.545 1.899c-.307-.151-.622-.288-.899-.483-.32-.225.349.262.944.69-.007-.026.004-.037 0-.056-.007-.048-.031-.099-.045-.151zm.045.207c.012.04.036.095.012.081-.379-.222.001-.004.115.162-.003.066.048.136.116.14a.12.12 0 0 0 .126-.118l-.369-.265z"/><path d="M113.654 545.38c-.084.004-.161.044-.22.114-.117.137-.102.343.035.461l.588.623c.11.093.24.155.357.24.569.413 1.153.767 1.752 1.132l.679.446c.109.082.204.192.323.255.138.074.291.099.438.151.008.007.026.007.035 0s.008-.026 0-.037c-.047-.151-.071-.321-.15-.457-.071-.129-.197-.21-.3-.314l-.634-.586c-.831-.723-1.768-1.309-2.662-1.947-.068-.059-.158-.088-.241-.081z"/><path d="M111.4 543.244c-.059.004-.208-.026-.173.022.322.431-.007 0-.138.092-.157.052-.237.225-.184.38s.224.236.38.184l1.037.808-.922-.797c-.02-.018.054-.014.081-.022.092-.022.087-.025.184-.022.165.008.31.037.461.103.382.166.733.413.957.771a1.39 1.39 0 0 1 .161.395l.392.287c.043.026.02-.099.023-.151s-.005-.099-.012-.151a1.49 1.49 0 0 0-.127-.446c-.208-.454-.578-.845-.99-1.118-.279-.188-.624-.313-.957-.335a1.25 1.25 0 0 0-.173 0zm1.844 1.914l-.934-.694c-.323-.291.243.229.98.9-.007-.026-.009-.04-.012-.059l-.011-.103c-.003-.015-.019-.03-.023-.044zm.046.206c.006.019.025.056.012.044-.34-.202-.007.004.057.13-.008.044.023.095.069.103s.084-.022.092-.07l-.23-.207z"/><path d="M107.32 539.723c-.055.052-.054.14 0 .196.062.147.1.309.184.449.225.373.63.661.922.978l.945.969c.419.413.858.897 1.36 1.21.134.085.272.147.414.218.025.025.069.025.093 0s.024-.067 0-.093l-.219-.424c-.238-.368-.575-.711-.865-1.04l-1.233-1.312c-.308-.306-.592-.723-.967-.955-.138-.085-.29-.133-.439-.196-.053-.055-.141-.055-.195 0z"/><path d="M105.81 537.699c-.098-.014-.346-.077-.299.011.229.432.006-.007-.311.115-.034-.008-.073.015-.081.048s.013.07.046.077l.392.325c.061.033.073.044.115.059.096.025.201.018.299.033.35.048.796.144 1.072.38.174.147.288.365.323.59.007.04.007.081.012.125.12.063.222.162.345.218.063.029.039-.137.046-.207.025-.229-.041-.487-.138-.689-.252-.535-.853-.79-1.383-.948-.147-.044-.286-.115-.438-.137zm1.568 1.763c-.335-.181-.676-.361-.957-.612-.275-.243.311.258.922.774.021.008-.023-.026.069.022.051.026-.026-.103-.034-.162-.002-.007 0-.015 0-.022zm-.035.162c-.069-.029.066.074.081.229-.009.063.042.118.103.125s.108-.04.116-.103l-.3-.251zm-1.786-1.349c-.083-.045-.205-.107-.162-.07.281.254.591.472.899.693.239.169-.34-.299-.737-.623z"/><path d="M102.848 535.324c-.079.078-.078.211 0 .288l1.245 1.165c-.286-.262-.605-.49-.957-.645-.172-.078.267.262.403.391l.83.759c.144.126.53.535.438.369-.182-.328-.001-.004.53.277.013.014.032.025.046.011s.013-.041 0-.056l-1.118-1.279c.248.287.53.557.864.737.169.089-.225-.302-.345-.449l-.738-.863c-.127-.14-.458-.594-.392-.417.137.365-.003.011-.518-.277-.078-.077-.209-.088-.288-.011z"/><path d="M102.007 533.876c-.08-.015-.159.044-.173.125s.036.159.116.174l.668.726-.507-.678c-.031-.045.081.084.115.125l.092.125c.215.258.463.428.634.727l.081.151.104.151c-.181-.195-.002 0 .138.137.01.044.049.066.092.059s.079-.052.069-.093l-.714-.866a3.11 3.11 0 0 0 .772.656c.058.037.001-.129-.012-.195-.015-.085-.105-.325-.138-.402-.134-.317-.34-.715-.68-.852-.072-.029-.153-.037-.23-.048s-.255-.085-.231-.011c.106.314.004-.004-.196-.011z"/></g><g fill="#fff7f7"><path d="M26.639 56.66c-.472-.079-.924.243-1.003.715-.035.084-.088.163-.104.253-.085.49.173 1.037.403 1.452.551.992 1.32 1.541 2.316 2.04.365.182.751.316 1.153.392.07.013.139.054.207.035.088-.025.155-.109.23-.161.02.004.042-.002.046-.023s-.014-.042-.035-.046c-.041-.076-.068-.167-.127-.23-.04-.043-.099-.053-.15-.08a3.27 3.27 0 0 1-.334-.208c-.301-.216-.594-.463-.841-.737-.211-.234-.363-.507-.53-.772-.175-.277-.377-.558-.472-.876-.078-.26.009-.51-.058-.76.078-.472-.232-.913-.703-.991zm5.744 6.495c-.015.019-.019.02-.011.023.128.125.237.274.38.38.133.099.293.151.438.23l.864.507c1.175.693 2.37 1.27 3.688 1.636a.331.331 0 1 0 .196-.633l-1.844-.645-1.336-.634-1.36-.634c-.155-.068-.308-.157-.472-.196-.176-.041-.361-.023-.542-.035zm56.884 2.383c-.236.048-.474.05-.709.097-.304.06-.595.243-.883.355-.409.16-1.301.696-1.725.81-.755.204-1.355.513-2.123.659l-3.195.465-1.217.106-1.711.15-1.04.01c-.16.005-.334-.017-.482.042-.179.071-.313.217-.469.33-.074-.003-.136.054-.139.128s.054.136.128.139c.149.126.271.296.449.377.153.07.335.053.503.06.177.008.354-.008.531-.012l2.331-.065c1.477-.139 3.101-.319 4.541-.675.407-.1 1.166-.334 1.556-.553.487-.126.945-.488 1.41-.678.511-.209 1.008-.437 1.488-.708.163-.092.285-.16.413-.302.164-.182.293-.429.418-.638.029-.021.037-.053.016-.082s-.065-.036-.094-.015zM61.5 113.279c.509.474 1.244 1.105 2.155 1.644 1.124.666 2.517 1.191 4.086 1.106 3.261-.177 5.258-3.134 5.258-3.134s-3.349 1.394-5.445 1.411"/></g><g opacity=".2"><path d="M91.431 78.171l-2.662 3.256-10.778 2.52-10.763.706-11.619-.589-10.743-1.417-10.305-3.58-5.454-3.197-4.994-4.767 8.293 4.715 11.147 3.144 10.797 1.042 9.147.768 12.494-1.071 9.056-1.69s3.224-1.809 4.899-1.582 1.484 1.743 1.484 1.743z" fill="#070d1c"/></g><path d="M91.674 125.998l2.349-1.374 2.674-.504 3.487 1.671-10.045 3.755 1.536-3.548z" fill="#fff433"/><path d="M95.575 136.437l2.674-.504 2.349-1.374 1.535-3.548-10.045 3.755 3.487 1.671z" fill="#2d2d2d"/><path d="M90.693 132.314l10.882-4.068.557 2.766-10.044 3.755-1.394-2.453z" fill="#9b59d0"/><path d="M90.693 132.314l10.882-4.068-1.394-2.453-10.045 3.756.557 2.765z" fill="#fff"/><path d="M101.527 128.263c1.167 3.121-.329 6.529-3.29 7.635s-6.325-.483-7.492-3.604.329-6.529 3.29-7.636 6.325.484 7.492 3.605z" stroke="#000"/></g><defs><radialGradient id="A" cx="0" cy="0" r="1" gradientTransform="translate(31.854 91.1867) scale(6.51836 6.51836)" xlink:href="#L"><stop stop-color="#dea88e"/><stop offset="1" stop-color="#eed1bf"/></radialGradient><radialGradient id="B" cx="0" cy="0" r="1" gradientTransform="translate(47.8102 103.003) scale(9.0797 9.0797)" xlink:href="#L"><stop stop-color="#dea88e"/><stop offset="1" stop-color="#eed1bf"/></radialGradient><radialGradient id="C" cx="0" cy="0" r="1" gradientTransform="translate(89.2817 183.29) scale(11.2152 11.2152)" xlink:href="#L"><stop stop-color="#dea88e"/><stop offset="1" stop-color="#eed1bf"/></radialGradient><radialGradient id="D" cx="0" cy="0" r="1" gradientTransform="translate(84.6108 169.935) scale(10.857 10.857)" xlink:href="#L"><stop stop-color="#dea88e"/><stop offset="1" stop-color="#eed1bf"/></radialGradient><radialGradient id="E" cx="0" cy="0" r="1" gradientTransform="translate(101.032 10.2706) scale(5.68049 5.68048)" xlink:href="#L"><stop stop-color="#dea88e"/><stop offset="1" stop-color="#eed1bf"/></radialGradient><radialGradient id="F" cx="0" cy="0" r="1" gradientTransform="translate(105.284 7.38821) scale(4.16139 4.16138)" xlink:href="#L"><stop stop-color="#dea88e"/><stop offset="1" stop-color="#eed1bf"/></radialGradient><radialGradient id="G" cx="0" cy="0" r="1" gradientTransform="translate(119.761 13.9923) scale(11.833 11.833)" xlink:href="#L"><stop stop-color="#dea88e"/><stop offset="1" stop-color="#eed1bf"/></radialGradient><radialGradient id="H" cx="0" cy="0" r="1" gradientTransform="translate(79.8533 100.166) rotate(14.3889) scale(3.59184 6.93785)" xlink:href="#L"><stop stop-color="#dea88e"/><stop offset="1" stop-color="#eed1bf"/></radialGradient><radialGradient id="I" cx="0" cy="0" r="1" gradientTransform="translate(66.5039 112.576) scale(7.586 7.586)" xlink:href="#L"><stop stop-color="#dea88e"/><stop offset="1" stop-color="#eed1bf"/></radialGradient><radialGradient id="J" cx="0" cy="0" r="1" gradientTransform="translate(67.5801 116.315) scale(5.17991 5.1799)" xlink:href="#L"><stop stop-color="#dea88e"/><stop offset="1" stop-color="#eed1bf"/></radialGradient><clipPath id="K"><path fill="#fff" d="M0 0h165v584H0z"/></clipPath><linearGradient id="L" gradientUnits="userSpaceOnUse"/></defs></svg>