<svg width="250" height="173" viewBox="0 0 250 173" fill="none" xmlns="http://www.w3.org/2000/svg">
<g clip-path="url(#clip0_2202_936)">
<path d="M160.925 144.378L160.232 134.014L96.8526 132.206C96.8526 132.206 84.333 130.443 77.7483 133.598C71.1635 136.753 70.5137 144.825 70.5137 144.825L83.693 144.593C83.693 144.593 83.4059 147.038 85.2146 150.58C87.0233 154.122 89.6893 156.194 89.6893 156.194L92.3019 165.516L96.8695 168.057L98.3172 170.263C98.3172 170.263 99.9624 171.054 101.216 171.256C102.469 171.457 102.185 170.972 103.331 171.068C104.011 171.125 104.854 171.913 105.544 172.037C106.489 172.206 107.224 171.711 107.584 171.688C108.71 171.615 110.697 164.864 110.697 164.864L110.759 162.245L112.507 163.993C112.507 163.993 111.952 169.373 111.65 171.221C111.415 172.659 112.765 171.986 113.895 171.436C115.026 170.886 116.46 167.704 116.46 167.704C116.46 167.704 117.324 163.975 116.811 160.172C116.297 156.37 116.5 156.262 114.405 152.494C112.311 148.726 107.557 144.841 107.557 144.841L160.925 144.378Z" fill="#EED1BF"/>
<path d="M142.715 84.5603L141.487 81.8267C141.487 81.8267 144.396 78.7325 146.828 74.4252C149.26 70.1179 151.218 64.5974 151.218 64.5974C151.218 64.5974 153.508 64.8646 154.527 62.9574C155.545 61.0499 155.291 56.9684 155.291 56.9684L147.093 42.5137L128.124 46.7439L100.539 42.6902L93.0117 53.4773L93.5988 57.6732C93.5988 57.6732 93.7081 60.1851 94.6362 61.4764C95.564 62.7676 97.3102 62.8379 97.3102 62.8379C97.3102 62.8379 98.2543 67.0682 100.47 71.1884C102.686 75.3087 107.145 80.2428 107.145 80.2428L106.196 86.0645L101.814 91.2071L121.264 111.702L140.898 91.2634L142.715 84.5603Z" fill="#EED1BF"/>
<path opacity="0.79779" d="M131.597 78.8105L127.95 80.6878C127.95 80.6878 127.119 81.2043 125.465 80.8365C123.811 80.4685 121.334 79.216 121.334 79.216L125.477 79.8631C125.477 79.8631 126.776 79.8886 128.297 79.7361C129.841 79.5813 131.597 78.8105 131.597 78.8105Z" fill="#DEA88E"/>
<path opacity="0.79975" d="M120.584 78.3475C120.584 78.3475 123.234 77.0746 124.776 76.6234C126.318 76.1721 126.752 76.5429 126.752 76.5429C126.752 76.5429 127.249 76.1294 128.619 76.5928C129.989 77.0559 132.232 78.3961 132.232 78.3961L128.695 77.3446L126.302 77.5136L123.821 77.4322L120.584 78.3475Z" fill="#DEA88E"/>
<path opacity="0.452392" d="M132.695 65.5333L139.547 61.3418C139.547 61.3418 145.219 59.3511 147.506 61.3418C149.792 63.3328 149.035 71.1547 149.035 71.1547C149.035 71.1547 146.501 75.8172 142.968 76.9893C139.434 78.1613 136.793 76.5954 134.559 73.9932C132.325 71.3913 132.695 65.5333 132.695 65.5333Z" fill="url(#paint0_radial_2202_936)"/>
<path opacity="0.428931" d="M117.886 66.7382C117.262 63.7775 112.471 63.6607 112.471 63.6607C112.471 63.6607 105.447 60.9868 102.543 62.6336C99.6392 64.2803 100.857 70.2473 100.857 70.2473C100.857 70.2473 101.825 75.2178 105.353 76.5321C108.881 77.8464 111.785 77.7405 114.969 75.5047C118.154 73.2688 118.51 69.6993 117.886 66.7382Z" fill="url(#paint1_radial_2202_936)"/>
<path opacity="0.648129" d="M85.3438 151.159L89.531 156.248L90.5874 160.963L92.0629 165.444L96.8694 168.057C96.8694 168.057 97.5987 169.897 99.1865 170.666C100.774 171.434 102.86 170.969 102.86 170.969C102.86 170.969 104.124 171.831 105.269 172.006C106.413 172.18 107.998 171.556 107.998 171.556L110.176 166.48L110.388 162.212L112.553 164.22C112.553 164.22 115.956 163.666 116.407 160.512C116.857 157.357 114.355 151.601 114.355 151.601L104.374 142.309L96.432 142.02L87.3313 148.1L86.4039 151.509L85.3438 151.159Z" fill="url(#paint2_radial_2202_936)"/>
<path opacity="0.600775" d="M107.798 144.961L104.006 141.388L115.075 139.178L125.748 138.695L129.98 137.17L133.141 137.885L139.521 141.939L135.138 144.82L114.953 144.653L107.798 144.961Z" fill="url(#paint3_radial_2202_936)"/>
<path opacity="0.600775" d="M132.232 95.7683C132.232 95.7683 127.081 98.8485 123.829 97.4938C117.399 94.8145 106.697 84.6129 106.697 84.6129L107.145 80.4746L114.901 86.6287L123.265 90.9802C123.265 90.9802 126.077 91.0114 129.58 89.5158C133.082 88.0198 137.275 84.9965 137.275 84.9965L141.386 81.5486L142.666 84.6129L137.287 90.9401L132.232 95.7683Z" fill="#C3ADA5"/>
<path d="M149.088 46.2192C149.088 46.2192 146.172 48.671 139.313 49.6604C132.454 50.6498 130.46 51.479 121.652 50.1769C112.844 48.8747 99.3262 44.4442 99.3262 44.4442L100.993 41.8223L117.624 45.2906L133.389 45.2115L146.63 42.3261L149.088 46.2192Z" fill="#C3ADA5"/>
<path opacity="0.806202" d="M89.5332 156.434C89.5332 156.434 91.8998 158.495 93.1877 160.335C94.4758 162.175 94.6855 163.794 94.6855 163.794C94.6855 163.794 96.3181 164.923 97.6464 165.228C98.9746 165.533 99.9984 165.014 99.9984 165.014C99.9984 165.014 100.723 166.71 101.873 167.19C103.023 167.671 104.599 166.936 104.599 166.936C104.599 166.936 105.635 168.198 106.924 168.446C108.214 168.693 109.756 167.925 109.756 167.925L107.759 171.892L105.225 172.084L103.332 170.863C103.332 170.863 101.363 171.665 99.8274 171.135C98.2921 170.604 97.191 168.741 97.191 168.741C97.191 168.741 96.27 167.804 95.0592 167.152C93.8487 166.5 91.9806 165.095 91.9806 165.095L89.5332 156.434Z" fill="#C3ADA5"/>
<path d="M159.665 144.455L249.378 144.686C249.378 144.686 249.556 138.61 247.513 134.418C245.469 130.225 245.409 129.92 240.983 126.95C236.556 123.979 230.411 124.15 230.411 124.15C230.411 124.15 218.752 119.951 211.132 115.126C206.282 112.055 194.49 102.408 184.577 96.9216C174.663 91.4354 170.872 93.2876 170.872 93.2876C170.872 93.2876 170.306 92.4628 168.733 91.6921C167.161 90.9214 165.05 90.5339 165.05 90.5339C165.05 90.5339 166.719 88.4081 164.17 85.7652C161.621 83.1226 159.307 81.2297 154.855 79.9629C150.404 78.6957 145.958 80.0766 145.958 80.0766L141.82 82.363C141.82 82.363 142.655 84.0515 142.288 84.4909C140.778 86.2982 139.24 88.2234 137.553 90.0321C134.055 93.7809 130.225 97.4509 126.831 101.49C121.799 107.477 122.161 108.441 122.161 108.441C122.161 108.441 111.515 97.7008 106.625 93.7599C101.784 89.8583 105.166 89.8834 105.682 88.1908C106.333 86.0551 106.303 85.4168 105.488 84.8444C102.138 82.489 99.8853 82.8649 95.3458 83.86C90.8067 84.8549 89.9142 86.2752 87.118 89.1439C85.1714 91.1407 83.7957 94.9673 83.7957 94.9673C83.7957 94.9673 82.6484 94.5503 81.1763 95.1054C79.7042 95.6609 77.9077 97.1885 77.9077 97.1885C77.9077 97.1885 70.3202 97.3776 62.452 102.439C52.8043 108.645 23.632 122.905 23.632 122.905C23.632 122.905 16.0009 123.862 11.4003 125.727C5.33815 128.185 4.57818 129.625 2.00164 134.227C-0.574905 138.829 1.09411 144.135 1.09411 144.135L71.9443 144.84C71.9443 144.84 71.5344 139.024 75.0663 137.016C78.3448 135.153 82.0094 134.304 82.0094 134.304L97.1243 134.594L103.213 141.183L106.198 140.401L116.354 138.775L126.484 138.738C126.484 138.738 128.136 137.395 130.506 137.23C132.876 137.065 135.198 138.346 135.198 138.346C152.538 137.087 145.978 137.681 151.82 137.686C157.581 137.691 157.229 135.506 159.19 137.198C161.151 138.89 159.665 144.455 159.665 144.455Z" fill="#C2BAC6"/>
<path d="M122.354 111.667C122.354 111.667 122.494 113.92 125.798 112.93C129.101 111.939 130.803 111.587 135.488 108.836C140.172 106.086 144.535 101.928 144.535 101.928L152.249 95.1328L142.489 105.559C142.489 105.559 139.264 109.378 134.89 112C130.515 114.622 128.202 115.302 124.991 116.048C121.779 116.794 122.044 114.986 122.044 114.986L122.354 111.667Z" fill="#A09BAB"/>
<path d="M121.937 112.753L118.704 116.671C118.704 116.671 114.674 117.338 110.879 115.599C107.084 113.86 103.526 109.715 103.526 109.715L94.3893 100.633L88.3906 96.6218C88.3906 96.6218 90.1848 95.9169 93.1198 97.495C96.0552 99.0732 100.132 102.934 100.132 102.934C100.132 102.934 108.302 111.435 113.381 113.794C118.459 116.152 121.937 112.753 121.937 112.753Z" fill="#A09BAB"/>
<path d="M65.5611 144.191L66.591 139.988L70.9632 134.985L75.765 132.806C75.765 132.806 72.2493 132.228 70.274 133.046C68.2986 133.864 67.8212 134.816 65.5682 136.962C64.8268 137.669 60.5978 141.34 57.3336 141.902C50.6803 143.047 50.0149 141.902 44.6206 142.229C41.6842 142.407 33.3457 144.398 33.3457 144.398L65.5611 144.191Z" fill="#A09BAB"/>
<path d="M130.457 97.3621C130.457 97.3621 133.036 95.5941 134.749 94.6964C136.462 93.7986 136.33 94.4047 138.067 93.2873C139.804 92.1699 144.005 87.8249 145.817 84.6129C147.63 81.4009 145.966 80.4746 145.966 80.4746L142.064 82.3974L141.941 85.0763L137.293 90.3951L130.457 97.3621Z" fill="#A09BAB"/>
<path d="M122.178 48.0642L122.443 52.7851L120.689 56.6161L123.529 54.801C123.529 54.801 125.138 59.3735 127.305 59.6264C127.935 59.6998 126.375 56.7866 126.621 55.4491C126.867 54.1114 128.288 54.2764 128.288 54.2764C128.288 54.2764 130.866 56.5098 130.523 55.5367C129.944 53.8978 130.103 47.5645 130.103 47.5645L122.178 48.0642Z" fill="#EC678A"/>
<path d="M101.215 43.6417C101.215 43.6417 100.419 47.2469 100.434 49.8162C100.449 52.3851 101.144 54.4614 101.144 54.4614L99.637 53.5952L100.322 56.743C100.322 56.743 95.3202 52.779 93.6601 53.5952C92.8209 54.0081 94.6998 59.7741 92.9359 57.1787C92.096 55.9428 90.2075 53.0717 90.2075 53.0717C90.2075 53.0717 87.9719 53.0448 87.2891 52.4058C86.885 52.0276 88.5189 49.7323 88.5189 49.7323L84.7443 49.5239L87.2766 45.1951C84.35 40.9537 84.0259 41.4117 84.9245 37.6958C85.0657 37.1135 87.3733 40.625 88.3448 40.6796C89.316 40.7347 88.353 38.6363 88.8932 37.3155C89.4338 35.9947 90.5062 35.3965 90.5062 35.3965L101.215 43.6417Z" fill="#EC678A"/>
<path d="M146.566 44.6267C146.566 44.6267 148.727 46.4575 149.769 48.531C150.81 50.6049 150.732 52.9219 150.732 52.9219L151.823 51.3003C151.823 51.3003 152.677 52.9722 153.26 54.3008C154.015 56.0249 154.864 57.6883 155.773 57.8476C156.282 57.9365 155.713 56.0657 155.713 56.0657L155.659 54.2801C155.659 54.2801 158.301 56.5278 159.442 56.3658C160.257 56.2504 159.514 52.2728 159.514 52.2728C159.514 52.2728 164.598 49.6101 165.022 48.6699C165.446 47.7298 161.481 48.3572 161.481 48.3572L163.117 46.1903L163.861 40.9445L158.58 40.1826C160.331 38.2751 162.515 36.2684 162.515 36.2684L157.562 35.3965L146.566 44.6267Z" fill="#EC678A"/>
<path d="M130.095 50.846L126.003 50.6114L122.299 50.2709L122.082 48.2007L130.095 47.7383L130.095 50.846Z" fill="#BE5574"/>
<path d="M148.433 46.6271L151.196 44.9132C151.196 44.9132 155.856 41.4336 156.719 39.8361C157.583 38.2386 158.251 35.4316 158.251 35.4316L145.828 43.8161L148.433 46.6271Z" fill="#BE5574"/>
<path d="M100.961 44.9132C100.961 44.9132 98.5534 43.8732 96.3992 42.5707C94.245 41.2686 92.5381 39.8198 92.344 39.7044C92.1499 39.5889 89.5176 36.9212 89.5176 36.9212L90.3945 35.1152L101.449 42.9405L100.961 44.9132Z" fill="#BE5574"/>
<path d="M145.433 53.9931C145.433 53.9931 143.825 55.6062 142.142 56.2995C140.459 56.9932 138.192 56.6309 138.192 56.6309C138.192 56.6309 135.109 55.7376 133.845 55.1193C132.581 54.501 132.817 54.3037 133.135 54.1581C134.623 53.4736 136.254 52.1351 139.312 52.1039C142.371 52.073 145.433 53.9931 145.433 53.9931Z" fill="#FFF7F7"/>
<path d="M117.413 54.1348C117.413 54.1348 115.921 55.7405 113.591 56.3421C111.261 56.9438 110.694 56.7991 108.328 56.3116C105.963 55.8243 104.437 54.6685 104.81 54.1457C105.378 53.3508 109.061 52.3998 112.382 52.3356C115.703 52.2714 117.413 54.1348 117.413 54.1348Z" fill="#FFF7F7"/>
<path d="M125.859 48.5244C135.505 48.7597 143.761 45.8889 143.761 45.8889C143.761 45.8889 154.743 41.9564 157.579 36.9785C160.235 32.3156 158.312 22.1401 157.593 19.5675C157.157 18.0105 154.334 16.6582 154.334 16.6582C154.334 16.6582 153.863 13.845 152.239 12.5563C148.007 9.20018 143.709 4.54733 138.11 2.3906C130.554 -0.520026 125.138 0.204338 118.75 0.226577C109.496 0.258765 101.215 9.86896 101.215 9.86896L96.3746 16.0035C96.3746 16.0035 93.9173 15.6573 92.3444 18.848C90.7716 22.0389 90.2856 24.3349 90.0824 28.7665C89.8794 33.1984 87.8362 34.0018 91.6678 37.5693C94.7586 40.4472 96.5707 42.2678 105.176 44.9477C113.78 47.6277 116.213 48.2891 125.859 48.5244Z" fill="#070D1C"/>
<path d="M155.374 57.6114C155.309 57.6134 155.266 57.6739 155.268 57.7387C155.268 58.2029 155.245 58.6653 155.215 59.1288C155.191 59.5169 155.149 59.9009 155.088 60.2852C154.88 61.5887 154.449 62.9638 153.338 63.7655C153.115 63.9271 152.876 64.0683 152.607 64.1369C152.155 64.2513 151.684 64.2089 151.228 64.1474C151.101 64.1288 150.992 64.2218 150.973 64.3491C150.955 64.4761 151.037 64.5956 151.164 64.6143C151.55 64.6747 151.932 64.6948 152.32 64.6357C152.77 64.5671 153.231 64.4201 153.614 64.1685C154.142 63.8218 154.525 63.2303 154.791 62.6725C155.366 61.4688 155.534 60.089 155.544 58.7678C155.546 58.4219 155.523 58.0731 155.502 57.7282C155.499 57.6633 155.439 57.6093 155.374 57.6114Z" fill="#070D1C"/>
<path d="M151.269 64.6669C151.114 64.616 150.949 64.7029 150.898 64.8581C150.693 65.5918 150.45 66.3279 150.134 67.0226C150.029 67.2545 149.883 67.482 149.774 67.7122C149.434 68.4307 149.148 69.1777 148.788 69.8873C148.233 70.9799 147.609 72.0382 146.985 73.0918C146.058 74.6543 145.083 76.1955 143.984 77.6436C143.035 78.8938 142.01 80.0319 140.93 81.1663C140.25 81.8793 139.581 82.6039 138.862 83.2779C137.649 84.4122 136.298 85.4084 134.938 86.3547C133.601 87.285 132.24 88.16 130.76 88.8483C129.565 89.4037 128.3 89.9141 127.016 90.2169C125.987 90.4597 124.939 90.62 123.909 90.8536C123.86 90.8593 123.829 90.8997 123.835 90.9493C123.84 90.9985 123.881 91.0291 123.93 91.0233C125.142 91.0142 126.323 90.7313 127.483 90.3972C127.869 90.2862 128.254 90.184 128.639 90.0686C130.067 89.6394 131.442 88.9997 132.774 88.339C133.643 87.9081 134.503 87.4433 135.32 86.917C136.75 85.9948 138.046 84.8995 139.328 83.7872C140.195 83.0358 141.047 82.2701 141.831 81.4315C142.711 80.4893 143.534 79.472 144.334 78.4605C146.094 76.2339 147.701 73.8979 148.968 71.3517C149.212 70.86 149.427 70.3538 149.657 69.8554C149.938 69.2486 150.239 68.6293 150.463 67.9988C150.552 67.7485 150.614 67.4871 150.696 67.2348C150.937 66.4997 151.185 65.7718 151.46 65.0489C151.511 64.8941 151.424 64.7179 151.269 64.6669Z" fill="#070D1C"/>
<path d="M141.366 81.4221C141.294 81.4584 141.266 81.5413 141.302 81.6133C141.325 81.7209 141.331 81.8377 141.366 81.9419C141.564 82.5354 142.028 83.007 142.055 83.661C142.076 84.1808 141.787 84.7315 141.514 85.157C140.947 86.0415 140.246 86.8451 139.563 87.64C139.539 87.6644 139.538 87.7011 139.563 87.7249C139.587 87.7483 139.624 87.749 139.648 87.7249C140.43 87.0037 141.25 86.2645 141.853 85.3797C142.12 84.9903 142.359 84.5648 142.405 84.0854C142.456 83.5578 142.308 82.9979 142.14 82.5042C142.009 82.1202 141.835 81.7885 141.567 81.4856C141.531 81.414 141.437 81.3858 141.366 81.4221Z" fill="#070D1C"/>
<path d="M131.989 95.7978C131.874 95.8521 131.747 95.8891 131.639 95.9571C131.429 96.0888 131.265 96.2827 131.077 96.445C130.884 96.6113 130.692 96.7709 130.505 96.9437C130.216 97.2093 129.908 97.4592 129.614 97.7182C128.798 98.437 128.094 99.239 127.387 100.063C125.938 101.753 124.709 103.624 123.633 105.57C123.095 106.543 122.619 107.57 122.328 108.647C122.201 109.119 122.092 109.567 122.137 110.058C122.136 110.074 122.143 110.088 122.159 110.09C122.174 110.092 122.189 110.074 122.191 110.058C122.31 109.704 122.373 109.348 122.466 108.986C122.593 108.493 122.77 108.013 122.965 107.543C123.868 105.369 125.268 103.449 126.772 101.655C127.547 100.73 128.377 99.8498 129.19 98.9596C129.633 98.4744 130.035 97.9532 130.473 97.4636C130.974 96.9033 131.612 96.4592 132.01 95.8189C132.017 95.8131 132.016 95.8043 132.01 95.7978C132.005 95.791 131.996 95.7917 131.989 95.7978Z" fill="#070D1C"/>
<path d="M149.064 79.3513C148.413 79.389 147.763 79.4606 147.124 79.5849C146.282 79.7482 145.419 79.9512 144.652 80.3488C144.279 80.542 143.968 80.813 143.624 81.049C143.455 81.1647 143.273 81.269 143.115 81.399C142.924 81.5566 142.856 81.6506 142.669 81.8129C142.513 81.9494 142.317 82.0506 142.192 82.2163C142.129 82.2998 142.102 82.4091 142.054 82.5025C141.976 82.5979 141.991 82.7314 142.086 82.8105C142.182 82.8892 142.315 82.8845 142.394 82.7891C142.474 82.7286 142.567 82.6797 142.638 82.6088C142.773 82.473 142.857 82.2822 142.988 82.1419C143.117 82.0031 143.275 81.8981 143.422 81.7813C143.655 81.597 143.857 81.4082 144.122 81.272C144.384 81.1379 144.659 81.0384 144.928 80.9216C145.482 80.6816 146.044 80.4456 146.625 80.2745C148.108 79.8372 149.71 79.8192 151.238 79.9349C154.071 80.1495 156.864 80.9403 159.382 82.2587C160.157 82.6645 160.945 83.0811 161.662 83.5849C162.678 84.299 163.566 85.1607 164.282 86.1739C164.693 86.7562 165.023 87.3973 165.162 88.1048C165.247 88.5357 165.262 89.0049 165.226 89.4419C165.192 89.8433 165.004 90.2212 164.939 90.6198C164.919 90.6636 164.938 90.7162 164.982 90.7362C165.026 90.7566 165.078 90.7379 165.098 90.6941C165.422 90.304 165.466 89.9699 165.586 89.4949C165.711 88.9999 165.721 88.5259 165.639 88.02C165.294 85.9009 163.666 84.3027 162.002 83.0967C159.838 81.5287 157.462 80.6025 154.886 79.956C153.002 79.4834 151.018 79.2389 149.064 79.3513Z" fill="#070D1C"/>
<path d="M161.461 89.709C160.645 89.708 159.831 89.7813 159.032 89.9426C158.836 89.982 158.641 90.0108 158.449 90.0699C158.07 90.1871 157.708 90.3684 157.335 90.5049C157.27 90.5232 157.233 90.5874 157.251 90.6532C157.269 90.7195 157.333 90.7565 157.399 90.7381C157.589 90.7021 157.78 90.6546 157.972 90.6322C158.166 90.6094 158.361 90.6312 158.555 90.6111C158.747 90.5908 158.937 90.5395 159.128 90.5154C160.087 90.3949 161.087 90.3093 162.055 90.3565C163.245 90.4142 164.404 90.6346 165.554 90.9398C166.126 91.0916 166.69 91.2267 167.24 91.4491C167.963 91.7418 168.633 92.1153 169.308 92.4996C169.474 92.5944 169.647 92.6606 169.807 92.7648C170.133 92.978 170.446 93.2093 170.804 93.3695C170.851 93.4103 170.922 93.4065 170.963 93.359C171.003 93.3115 170.989 93.2405 170.941 93.1998C170.715 92.8555 170.428 92.611 170.103 92.3618C169.943 92.2382 169.805 92.0827 169.637 91.9693C168.967 91.5163 168.229 91.1625 167.484 90.8549C166.919 90.6217 166.346 90.3711 165.756 90.2078C164.368 89.8238 162.894 89.711 161.461 89.709Z" fill="#070D1C"/>
<path d="M172.458 92.9009C171.004 92.9637 169.561 93.2883 168.333 94.0998C168.296 94.1178 168.283 94.1694 168.301 94.2057C168.319 94.242 168.36 94.2556 168.396 94.2376C168.809 94.0923 169.221 93.9168 169.637 93.7813C169.945 93.6811 170.263 93.6298 170.581 93.5691C171.439 93.4047 172.325 93.3022 173.2 93.3253C174.639 93.3626 176.063 93.7042 177.431 94.1313C178.196 94.37 178.957 94.6254 179.69 94.9486C180.076 95.1187 180.455 95.3197 180.835 95.5003C184.133 97.0653 187.211 99.0305 190.252 101.039C192.017 102.204 193.74 103.431 195.47 104.646C196.506 105.375 197.555 106.089 198.588 106.822C202.345 109.488 206.014 112.273 209.945 114.684C210.717 115.157 211.517 115.588 212.3 116.042C218.5 119.637 225.154 122.41 231.812 125.029C232.07 125.134 232.354 125.011 232.459 124.753C232.564 124.496 232.441 124.2 232.183 124.095C224.389 120.82 216.574 117.498 209.288 113.177C207.449 112.087 205.654 110.904 203.89 109.697C202.244 108.57 200.587 107.449 198.97 106.281C194.862 103.312 190.802 100.267 186.445 97.6649C184.724 96.6364 182.959 95.682 181.122 94.8742C180.6 94.6451 180.054 94.4593 179.52 94.259C177.714 93.5789 175.846 93.0367 173.911 92.9219C173.432 92.8934 172.942 92.8798 172.458 92.9009Z" fill="#070D1C"/>
<path d="M229.511 124.001C228.595 124.009 227.687 124.098 226.775 124.171C225.257 124.293 223.738 124.478 222.226 124.659C221.051 124.8 219.875 124.926 218.705 125.105C218.096 125.198 217.498 125.323 216.892 125.434C215.136 125.754 213.403 126.192 211.653 126.537C209.06 127.049 206.469 127.592 203.88 128.118C202.322 128.435 200.767 128.799 199.192 129.02C196.868 129.347 194.507 129.438 192.161 129.444C186.758 129.459 181.357 129.021 175.958 129.423C173.742 129.588 171.511 129.926 169.393 130.611C168.355 130.948 167.348 131.387 166.456 132.023C165.929 132.398 165.62 132.904 165.215 133.392C165.089 133.544 164.937 133.682 164.801 133.827C164.683 133.966 164.704 134.175 164.844 134.293C164.983 134.412 165.192 134.39 165.31 134.251C165.397 134.139 165.553 133.923 165.66 133.827C166.067 133.463 166.623 133.246 167.082 132.956C168.984 131.756 171.188 131.153 173.402 130.856C176.182 130.482 179 130.467 181.801 130.484C186.223 130.511 190.657 130.723 195.078 130.537C196.507 130.477 197.947 130.365 199.362 130.145C201.139 129.868 202.887 129.421 204.643 129.041C207.045 128.521 209.441 127.988 211.844 127.471C212.492 127.331 213.143 127.226 213.795 127.11C215.345 126.834 216.886 126.539 218.44 126.282C219.745 126.067 221.043 125.778 222.353 125.582C224.608 125.245 226.863 125.124 229.14 125.136C229.755 125.14 230.37 125.123 230.985 125.136C234.84 125.22 238.985 125.985 242.237 128.139C243.356 128.88 244.321 129.823 245.185 130.845C246.262 132.119 247.019 133.66 247.645 135.195C248.357 136.939 248.782 138.806 248.949 140.681C249.067 142 248.984 143.33 249.098 144.649C249.092 144.717 249.147 144.771 249.214 144.777C249.283 144.782 249.336 144.728 249.342 144.66C249.64 143.483 249.627 142.277 249.533 141.073C249.415 139.576 249.151 138.112 248.769 136.659C248.323 134.965 247.638 133.321 246.712 131.832C245.883 130.499 244.912 129.262 243.721 128.235C242.431 127.12 240.912 126.369 239.342 125.731C236.251 124.474 232.837 123.974 229.511 124.001Z" fill="#070D1C"/>
<path d="M166.87 131.959C166.578 131.999 166.292 132.098 166.043 132.245C165.912 132.323 165.686 132.427 165.619 132.574C165.547 132.732 165.555 132.912 165.534 133.084C165.473 133.13 165.466 133.224 165.513 133.285C165.559 133.347 165.642 133.353 165.704 133.307C165.863 133.338 166.02 133.411 166.181 133.423C166.301 133.433 166.431 133.332 166.542 133.296C166.897 133.182 167.313 133.093 167.666 133.275C167.871 133.38 168.032 133.6 168.175 133.773C168.779 134.503 169.052 135.601 169.172 136.521C169.455 138.704 169.142 141.02 168.228 143.026C167.965 143.602 167.537 144.091 167.178 144.607C167.149 144.631 167.143 144.673 167.167 144.702C167.191 144.731 167.234 144.726 167.263 144.702C167.94 144.385 168.295 143.89 168.694 143.28C168.975 142.851 169.179 142.416 169.352 141.933C170.104 139.83 170.199 137.522 169.829 135.333C169.694 134.535 169.425 133.553 168.917 132.903C168.633 132.54 168.184 132.167 167.74 132.023C167.459 131.932 167.163 131.919 166.87 131.959Z" fill="#070D1C"/>
<path d="M166.255 134.114C165.983 134.27 165.721 134.45 165.417 134.538C164.532 134.798 163.567 134.701 162.66 134.698C161.705 134.694 160.694 134.729 159.754 134.91C159.074 135.041 157.997 135.314 157.548 135.897C157.365 136.136 157.334 136.455 157.591 136.661C157.794 136.823 158.114 136.821 158.344 136.947C159.018 137.319 159.455 137.979 159.637 138.719C159.777 139.283 159.754 139.853 159.722 140.427C159.662 141.517 159.519 142.723 159.924 143.77C160.28 144.692 161.124 144.86 162.002 145.011C163.741 145.31 165.554 145.23 167.262 144.799C167.402 144.777 167.496 144.652 167.474 144.513C167.452 144.373 167.317 144.278 167.177 144.3C165.568 144.399 163.939 144.584 162.331 144.364C161.883 144.303 161.026 144.218 160.719 143.844C160.331 143.372 160.393 142.431 160.412 141.881C160.471 140.121 160.791 138.171 159.372 136.82C159.054 136.517 158.668 136.266 158.238 136.162C158.202 136.154 158.149 136.161 158.1 136.151C158.149 136.111 158.197 136.068 158.248 136.035C158.411 135.929 158.591 135.841 158.768 135.759C159.34 135.494 159.977 135.346 160.592 135.218C161.964 134.932 163.357 135.147 164.738 134.984C165.293 134.919 166.039 134.711 166.361 134.22C166.391 134.191 166.39 134.145 166.361 134.114C166.332 134.084 166.285 134.085 166.255 134.114Z" fill="#070D1C"/>
<path d="M177.675 144.31C174.193 144.345 170.7 144.371 167.218 144.32C167.032 144.319 166.88 144.463 166.879 144.649C166.878 144.836 167.032 144.988 167.218 144.989C168.747 144.986 170.271 145.028 171.799 145.042C173.755 145.06 175.708 145.072 177.664 145.106C181.04 145.162 184.425 145.142 187.802 145.148C199.79 145.169 211.774 145.044 223.762 145C229.08 144.98 234.405 144.943 239.722 144.957C241.59 144.962 243.454 144.97 245.321 144.978C246.616 144.984 247.902 145.017 249.192 144.915C249.234 144.915 249.277 144.882 249.277 144.84C249.277 144.798 249.234 144.766 249.192 144.766C247.903 144.649 246.616 144.669 245.321 144.66C243.454 144.647 241.59 144.638 239.722 144.628C234.405 144.601 229.08 144.544 223.762 144.512C211.774 144.437 199.79 144.329 187.802 144.32C184.426 144.318 181.051 144.276 177.675 144.31Z" fill="#070D1C"/>
<path d="M192.055 101.401C191.914 101.353 191.754 101.362 191.609 101.433C191.395 101.475 191.18 101.49 190.973 101.561C190.766 101.631 190.573 101.745 190.379 101.847C189.989 102.051 189.606 102.268 189.234 102.505C188.475 102.988 187.812 103.604 187.155 104.213C186.475 104.844 185.877 105.515 185.31 106.25C183.849 108.148 182.724 110.244 181.8 112.447C180.433 115.706 179.522 119.194 179.128 122.707C178.939 124.386 178.832 126.066 179.053 127.747C179.1 128.096 179.147 128.534 179.255 128.872C179.312 129.049 179.406 129.209 179.478 129.381C179.496 129.512 179.612 129.612 179.743 129.593C179.874 129.575 179.963 129.449 179.944 129.318C180.034 128.581 180.005 127.86 180.029 127.121C180.075 125.697 180.113 124.269 180.305 122.856C180.657 120.264 181.325 117.752 182.256 115.312C183.341 112.468 184.795 109.729 186.71 107.354C187.49 106.387 188.329 105.44 189.287 104.648C189.744 104.27 190.2 103.887 190.676 103.534C190.99 103.302 191.35 103.131 191.663 102.897C191.828 102.773 191.975 102.611 192.129 102.473C192.418 102.332 192.535 101.987 192.394 101.698C192.324 101.554 192.196 101.45 192.055 101.401Z" fill="#070D1C"/>
<path d="M152.458 95.2249C151.9 95.5709 151.483 96.0432 151.027 96.5087C150.67 96.8727 150.301 97.2275 149.945 97.5912C148.624 98.9381 147.321 100.299 146.021 101.666C142.357 105.52 138.695 109.401 134.112 112.181C133.292 112.678 132.412 113.085 131.546 113.496C130.207 114.132 128.8 114.674 127.368 115.056C126.991 115.156 126.601 115.233 126.222 115.321C125.833 115.412 125.452 115.491 125.056 115.544C124.719 115.589 124.378 115.652 124.037 115.661C123.854 115.666 123.679 115.628 123.497 115.618C123.261 115.605 122.999 115.622 122.818 115.438C122.619 115.236 122.542 114.914 122.521 114.642C122.512 114.526 122.532 114.406 122.51 114.292C122.481 114.133 122.415 113.992 122.373 113.836C122.392 113.763 122.35 113.686 122.277 113.666C122.205 113.646 122.127 113.689 122.108 113.762C121.986 113.886 121.844 113.992 121.758 114.143C121.662 114.312 121.633 114.591 121.609 114.78C121.484 115.796 122.05 116.43 123.009 116.658C123.233 116.711 123.447 116.746 123.677 116.722C124.471 116.637 125.247 116.374 126.021 116.191C128.49 115.607 130.95 114.688 133.147 113.411C138.698 110.185 143.009 105.492 147.325 100.827C148.438 99.6246 149.541 98.4234 150.687 97.2516C151.308 96.617 152.051 96.0551 152.554 95.3204C152.581 95.2946 152.579 95.2521 152.554 95.2249C152.528 95.1978 152.485 95.1991 152.458 95.2249Z" fill="#070D1C"/>
<path d="M126.762 111.152C126.477 111.267 126.34 111.588 126.455 111.873C127.317 113.89 128.244 115.88 129.074 117.911C130.88 122.329 132.239 127.058 132.011 131.874C131.977 132.606 131.921 133.344 131.821 134.071C131.742 134.637 131.588 135.183 131.502 135.747C131.473 135.942 131.483 136.149 131.439 136.341C131.394 136.535 131.306 136.716 131.237 136.903C131.203 137.024 131.276 137.145 131.397 137.179C131.517 137.214 131.638 137.141 131.672 137.02C131.712 136.823 131.74 136.629 131.799 136.437C131.859 136.244 131.959 136.065 132.022 135.874C132.084 135.687 132.128 135.494 132.171 135.301C132.537 133.638 132.742 131.954 132.722 130.251C132.67 125.864 131.291 121.7 129.795 117.624C129.039 115.563 128.259 113.514 127.483 111.46C127.368 111.174 127.047 111.037 126.762 111.152Z" fill="#070D1C"/>
<path d="M81.5234 94.5785C81.4609 94.5734 81.4117 94.6219 81.4066 94.6848C81.4015 94.7472 81.45 94.807 81.5128 94.8118C82.5275 94.9177 83.4695 95.3061 84.4502 95.5757C87.5767 96.4354 90.4896 98.0363 93.0188 100.053C95.9155 102.364 98.4348 105.078 101.036 107.704C102.524 109.206 104.034 110.683 105.607 112.096C108.583 114.771 112.467 117.295 116.625 117.126C117.195 117.103 117.796 117.073 118.353 116.945C118.711 116.864 118.874 116.779 119.212 116.638C119.264 116.625 119.299 116.572 119.286 116.521C119.274 116.47 119.221 116.445 119.17 116.457C118.452 116.513 117.736 116.656 117.017 116.701C115.834 116.776 114.621 116.603 113.475 116.309C111.461 115.79 109.713 114.641 108.088 113.38C105.322 111.233 103.002 108.558 100.601 106.027C98.2536 103.552 95.8605 101.134 93.1566 99.0454C91.0658 97.4309 88.6829 95.9146 86.1365 95.1408C85.3268 94.8949 84.4794 94.6637 83.6338 94.5999C82.9333 94.5466 82.2258 94.6179 81.5234 94.5785Z" fill="#070D1C"/>
<path d="M117.992 112.053C117.747 112.167 117.49 112.274 117.271 112.435C116.831 112.756 116.489 113.186 116.146 113.602C114.71 115.343 113.942 117.422 113.485 119.618C112.866 122.59 112.856 125.639 112.955 128.658C113.003 130.143 113.131 131.622 113.22 133.104C113.232 133.306 113.221 133.507 113.241 133.709C113.314 134.464 113.473 135.231 113.601 135.979C113.688 136.487 113.745 137.022 113.888 137.518C113.933 137.676 114.008 137.828 114.057 137.985C114.169 138.336 114.183 138.508 114.248 138.865C114.322 139.21 114.667 139.438 115.012 139.364C115.356 139.291 115.573 138.945 115.5 138.6C115.414 138.248 115.363 138.085 115.33 137.72C115.316 137.559 115.336 137.403 115.319 137.242C115.267 136.738 115.131 136.225 115.044 135.725C114.915 134.987 114.83 134.243 114.694 133.507C114.657 133.312 114.596 133.118 114.556 132.924C114.433 132.328 114.346 131.722 114.259 131.12C113.776 127.79 113.669 124.321 114.163 120.987C114.464 118.957 115 116.92 116.051 115.141C116.261 114.786 116.482 114.403 116.74 114.079C117.048 113.695 117.43 113.373 117.78 113.029C117.959 112.853 118.114 112.659 118.289 112.477C118.405 112.395 118.435 112.234 118.352 112.117C118.27 112 118.109 111.97 117.992 112.053Z" fill="#070D1C"/>
<path d="M105.266 88.0414C105.184 88.0459 105.103 88.0815 105.044 88.1477C104.6 88.6601 104.11 89.2342 103.962 89.9194C103.742 90.936 104.353 91.6218 104.99 92.3175C105.874 93.2815 106.864 94.1378 107.854 94.9914C108.493 95.5424 109.145 96.085 109.784 96.6361C110.153 96.9546 110.475 97.2911 110.897 97.5379C110.924 97.5647 110.966 97.5651 110.993 97.5379C111.02 97.5107 111.02 97.4693 110.993 97.4422C110.569 96.7261 109.843 96.1635 109.222 95.6175C108.145 94.6705 107.04 93.7721 106.008 92.7735C105.681 92.4568 105.393 92.1118 105.097 91.7658C104.905 91.5427 104.716 91.3207 104.587 91.0548C104.098 90.0481 104.877 89.2726 105.521 88.5827C105.639 88.4502 105.632 88.2452 105.499 88.1263C105.433 88.0669 105.348 88.037 105.266 88.0414Z" fill="#070D1C"/>
<path d="M99.5721 82.7051C98.8551 82.7054 98.1404 82.7557 97.4301 82.8538C95.2213 83.159 92.9748 84.0754 91.0992 85.273C90.4409 85.693 89.8457 86.2104 89.2539 86.716C88.4265 87.4226 87.6196 88.1818 86.9314 89.0289C86.1522 89.9888 85.4847 91.0593 84.8848 92.138C84.5888 92.6701 84.2997 93.2076 84.0048 93.74C83.9319 93.8717 83.8379 93.9868 83.7713 94.1219C83.7055 94.2561 83.6658 94.3963 83.6122 94.5358C83.526 94.7056 83.5912 94.9161 83.7608 95.0027C83.9305 95.0893 84.1409 95.0237 84.2274 94.8543C84.3085 94.7287 84.4015 94.6044 84.4711 94.472C84.54 94.3416 84.5753 94.201 84.6408 94.069C85.0371 93.2717 85.5312 92.499 86.0195 91.7557C86.515 91.0016 87.0742 90.2889 87.6314 89.5807C88.283 88.7525 88.9315 87.9207 89.6889 87.1829C90.2292 86.6559 90.8339 86.2193 91.4386 85.7718C92.1723 85.2285 92.9616 84.7341 93.7927 84.3498C95.1002 83.7451 96.5753 83.4066 98.003 83.2568C98.5245 83.2022 99.0478 83.1767 99.5721 83.1719C100.129 83.1672 100.693 83.1865 101.248 83.2358C102.588 83.3543 103.832 83.6711 104.928 84.4876C105.386 84.8292 105.804 85.2064 105.914 85.7928C105.963 86.0542 105.914 86.3072 105.882 86.5673C105.844 86.6868 105.901 86.8155 106.02 86.8539C106.139 86.8922 106.268 86.8246 106.306 86.7055C106.717 85.9093 106.236 84.982 105.67 84.3922C105.057 83.7539 104.194 83.4429 103.369 83.1933C102.68 82.9849 102.008 82.8596 101.29 82.79C100.721 82.735 100.144 82.7051 99.5721 82.7051Z" fill="#070D1C"/>
<path d="M82.0424 94.3773C80.9931 94.396 79.8539 95.1046 79.0839 95.6506C78.8752 95.7986 78.7015 95.9365 78.5006 96.1069C78.2695 96.3028 78.0438 96.5157 77.8219 96.7225C77.7099 96.8332 77.7109 97.0135 77.8219 97.1255C77.9329 97.2376 78.1127 97.2365 78.2247 97.1255C78.9893 96.3161 79.9594 95.4665 81.0457 95.1202C81.3929 95.0095 81.7655 94.9134 82.1272 94.8656C82.4221 94.8265 82.7231 94.8109 83.018 94.7702C83.0608 94.7786 83.0944 94.7596 83.1028 94.7169C83.1117 94.6744 83.0923 94.6299 83.0499 94.6214C82.7377 94.4418 82.3922 94.3712 82.0424 94.3773Z" fill="#070D1C"/>
<path d="M81.1103 96.6785C80.4683 96.6731 79.833 96.6955 79.191 96.7318C77.2044 96.8439 75.2437 97.1267 73.3162 97.6231C71.5807 98.07 69.8918 98.7232 68.247 99.4267C64.5997 100.987 61.1376 102.988 57.6847 104.934C57.0841 105.272 56.4736 105.596 55.8713 105.931C53.8257 107.07 51.8069 108.256 49.7525 109.38C48.4412 110.097 47.1391 110.834 45.8181 111.533C45.4485 111.729 45.0708 111.914 44.7046 112.117C44.3487 112.314 44.008 112.53 43.6547 112.732C42.0343 113.659 40.3589 114.504 38.7026 115.364C37.7955 115.835 36.9067 116.335 35.9878 116.785C32.9703 118.266 29.8585 119.525 26.7721 120.849C25.9929 121.184 25.1805 121.437 24.4072 121.783C24.2076 121.872 24.0016 121.968 23.8133 122.08C23.4254 122.311 23.0864 122.608 22.6789 122.802C22.477 122.897 22.2621 122.956 22.0531 123.035C22.0226 123.046 21.9995 123.09 22.0107 123.12C22.0219 123.15 22.0545 123.163 22.085 123.152C22.2957 123.078 22.5048 122.985 22.7213 122.929C23.382 122.759 24.0475 122.781 24.7044 122.579C25.1147 122.453 25.5124 122.277 25.9132 122.123C26.5047 121.895 27.1009 121.696 27.6948 121.475C30.6651 120.369 33.5323 118.965 36.3801 117.581C37.3031 117.133 38.2428 116.718 39.1583 116.255C40.7166 115.468 42.2471 114.645 43.782 113.815C44.2577 113.557 44.7491 113.321 45.2242 113.061C46.1014 112.583 46.9657 112.072 47.8331 111.576C48.3584 111.275 48.8915 110.992 49.4131 110.684C50.9517 109.779 52.4873 108.863 54.0262 107.958C54.7772 107.516 55.538 107.101 56.2849 106.653C58.4876 105.329 60.6788 103.993 62.9341 102.759C66.6239 100.739 70.45 98.8359 74.5674 97.8669C76.2902 97.4615 78.061 97.2038 79.8273 97.103C80.8932 97.0425 81.9628 97.0867 83.0297 97.0609C83.1057 97.0639 83.1644 96.9987 83.1678 96.9227C83.1709 96.847 83.1162 96.7879 83.0406 96.7848C82.4009 96.7155 81.7527 96.6843 81.1103 96.6785Z" fill="#070D1C"/>
<path d="M33.325 122.101C31.4338 122.255 29.545 122.364 27.6514 122.483C26.162 122.576 24.6733 122.668 23.1869 122.801C21.9089 122.916 20.6292 123.046 19.3587 123.225C16.2903 123.659 13.197 124.217 10.3234 125.422C9.15556 125.912 8.04185 126.521 6.98294 127.215C5.53162 128.166 4.21816 129.312 3.17585 130.706C2.68716 131.359 2.26301 132.053 1.9033 132.785C1.36234 133.887 0.96011 135.046 0.694366 136.245C0.294172 138.049 0.210793 139.88 0.32322 141.72C0.370355 142.491 0.355356 143.083 0.694366 143.788C0.713064 143.947 0.853995 144.062 1.01251 144.043C1.17102 144.024 1.28572 143.873 1.26702 143.714C1.42498 142.985 1.28046 142.401 1.24581 141.666C1.21649 141.044 1.23118 140.411 1.24581 139.788C1.29539 137.679 1.66416 135.548 2.52899 133.613C3.75288 130.875 5.97236 128.626 8.58423 127.183C10.6465 126.044 12.8946 125.299 15.1589 124.69C16.5672 124.311 18 124.003 19.4436 123.788C20.5481 123.623 21.6514 123.496 22.7627 123.385C24.1167 123.249 25.4775 123.141 26.8349 123.045C28.2816 122.943 29.7201 122.845 31.1616 122.684C31.9034 122.602 32.6388 122.511 33.3674 122.345C33.4332 122.335 33.4729 122.273 33.4627 122.207C33.4526 122.141 33.3908 122.091 33.325 122.101Z" fill="#070D1C"/>
<path d="M27.6723 124.787C26.2392 124.753 24.8194 124.759 23.3877 124.84C22.6838 124.88 21.9865 124.918 21.2881 125.02C21.1999 125.022 21.1269 125.091 21.1289 125.179C21.1313 125.268 21.1999 125.341 21.2881 125.339C23.2573 125.525 25.2619 125.392 27.2372 125.392C29.2309 125.392 31.2208 125.518 33.1972 125.784C34.86 126.008 36.5177 126.39 38.1073 126.93C39.1772 127.294 40.1919 127.774 41.2568 128.15C41.3043 128.176 41.3684 128.166 41.3945 128.118C41.4207 128.071 41.3996 128.007 41.3521 127.98C40.6558 127.431 39.9038 127.068 39.0934 126.718C38.0414 126.263 36.9399 125.927 35.8272 125.657C33.1558 125.009 30.4098 124.851 27.6723 124.787Z" fill="#070D1C"/>
<path d="M31.3103 127.938C31.2408 127.931 31.18 127.985 31.1726 128.055C31.1651 128.125 31.2194 128.185 31.2893 128.193C32.0352 128.359 32.779 128.42 33.5375 128.511C33.8507 128.549 34.1571 128.612 34.4707 128.649C34.9862 128.71 35.5027 128.726 36.0188 128.776C36.9649 128.87 37.9134 128.941 38.8609 129.02C39.6573 129.087 40.4538 129.161 41.2472 129.254C41.6483 129.301 42.0426 129.394 42.4454 129.424C43.0352 129.466 43.6358 129.474 44.227 129.509C45.4992 129.583 46.7707 129.658 48.0446 129.699C48.7807 129.723 49.5249 129.688 50.2609 129.71C50.7774 129.725 51.2926 129.752 51.809 129.763C51.9658 129.767 52.1196 129.777 52.276 129.784C52.3215 129.787 52.5298 129.797 52.4986 129.795C52.4854 129.794 52.5281 129.793 52.541 129.795C52.5621 129.798 52.5834 129.803 52.6045 129.806C52.6673 129.814 52.7331 129.819 52.7955 129.827C53.0124 129.853 53.2252 129.887 53.4423 129.912C54.0671 129.983 54.7027 130.048 55.3301 130.092C56.2104 130.153 57.0886 130.237 57.9706 130.272C58.5634 130.296 59.159 130.282 59.7522 130.294C60.7271 130.313 61.7034 130.36 62.6791 130.357C63.8994 130.354 65.1183 130.306 66.3376 130.262C67.2314 130.229 68.1216 130.213 69.01 130.103C69.8454 129.999 70.6667 129.82 71.5021 129.721C73.1768 129.521 74.8641 129.592 76.4862 130.071C78.0462 130.532 79.5162 131.296 80.8023 132.289C81.5923 132.898 82.2734 133.615 83.0292 134.262C83.2507 134.447 83.5864 134.42 83.7716 134.198C83.9569 133.977 83.9294 133.652 83.7079 133.466C83.056 132.934 82.4546 132.33 81.7993 131.8C80.673 130.891 79.4242 130.087 78.0665 129.572C76.2608 128.887 74.258 128.586 72.3291 128.66C71.3444 128.697 70.3779 128.865 69.4023 128.989C68.3618 129.12 67.318 129.278 66.2741 129.381C64.5916 129.547 62.8837 129.557 61.1944 129.551C60.1312 129.547 59.0833 129.474 58.0235 129.403C56.6757 129.312 55.3274 129.213 53.9833 129.074C53.5197 129.025 53.0572 128.96 52.594 128.914C51.8328 128.84 51.0659 128.829 50.3034 128.776C49.7302 128.737 49.1577 128.655 48.5852 128.607C47.1569 128.485 45.7225 128.433 44.2904 128.363C43.6993 128.334 43.1102 128.269 42.5197 128.246C42.1166 128.23 41.7036 128.287 41.3001 128.288C40.7011 128.29 40.0968 128.269 39.4971 128.256C38.7193 128.241 37.9514 128.184 37.175 128.15C35.975 128.098 34.769 128.065 33.569 128.023C32.8137 127.997 32.0667 127.933 31.3103 127.938Z" fill="#070D1C"/>
<path d="M49.4764 109.773C49.2447 109.812 49.0288 109.947 48.8826 110.155C48.5894 110.569 48.6912 111.135 49.1052 111.428C49.7852 112.113 50.5797 112.663 51.2896 113.316C51.6323 113.632 51.935 113.997 52.2547 114.335C52.8458 114.961 53.4482 115.574 54.0257 116.213C54.2697 116.484 54.4988 116.763 54.7469 117.03C55 117.303 55.2728 117.559 55.5209 117.837C56.5125 118.947 57.3629 120.196 58.1509 121.455C58.9514 122.733 59.6922 124.054 60.2613 125.455C60.5144 126.078 60.7482 126.737 60.8867 127.397C60.96 127.744 60.9732 128.083 60.9824 128.436C60.9861 128.578 60.9766 128.754 61.0034 128.893C61.037 129.064 61.1134 129.239 61.1521 129.413C61.1164 129.533 61.1908 129.653 61.3109 129.688C61.4314 129.724 61.5511 129.66 61.5868 129.54C61.7188 129.4 61.902 129.235 61.9896 129.063C62.014 129.014 62.0754 128.731 62.0853 128.68C62.1752 128.206 62.1457 127.705 62.1063 127.227C62.0008 125.935 61.5966 124.701 61.0672 123.524C60.059 121.283 58.6188 119.25 57.1752 117.274C56.8332 116.806 56.523 116.307 56.1786 115.842C55.8447 115.391 55.4714 114.963 55.1072 114.537C54.5371 113.868 53.9402 113.212 53.3046 112.606C53.0711 112.383 52.8333 112.175 52.6045 111.948C51.8532 111.201 51.1263 110.407 50.1656 109.932C49.9586 109.785 49.7079 109.733 49.4764 109.773Z" fill="#070D1C"/>
<path d="M83.3264 133.752C82.5153 133.886 81.6992 133.935 80.8977 134.134C79.1873 134.56 77.5927 135.305 76.1152 136.256C75.5831 136.599 75.0517 136.939 74.5668 137.349C73.7201 138.065 72.9905 138.935 72.4034 139.874C71.9602 140.584 71.5734 141.385 71.3643 142.198C71.2717 142.558 71.2483 142.934 71.2052 143.302C71.1902 143.427 71.1757 143.548 71.1628 143.673C71.1492 143.801 71.0993 143.928 71.1203 144.055C71.1421 144.186 71.2272 144.304 71.2795 144.427C71.2931 144.644 71.4865 144.801 71.7037 144.787C71.9205 144.774 72.0776 144.591 72.0641 144.373C72.1011 144.255 72.1676 144.146 72.1808 144.023C72.1923 143.913 72.1476 143.805 72.1384 143.694C72.115 143.416 72.1184 143.314 72.1489 143.037C72.2443 142.165 72.4635 141.31 72.8487 140.522C73.3614 139.473 74.1249 138.58 74.9591 137.774C75.3941 137.353 75.8437 136.936 76.3378 136.585C77.4346 135.805 78.6821 135.232 79.9539 134.803C80.9876 134.454 82.2534 134.139 83.3474 134.209C83.4726 134.202 83.566 134.09 83.5595 133.964C83.5531 133.839 83.4513 133.746 83.3264 133.752Z" fill="#070D1C"/>
<path d="M77.8124 132.595C75.7689 132.642 73.837 133.208 72.0326 134.155C71.584 134.39 71.1303 134.618 70.7071 134.898C69.7264 135.546 68.8787 136.367 68.0772 137.221C67.8492 137.464 67.6184 137.718 67.4195 137.985C67.2054 138.274 67.0608 138.51 66.8684 138.813C66.4327 139.498 65.9912 140.23 65.7442 141.009C65.5979 141.47 65.4981 141.958 65.3943 142.431C65.2925 142.893 65.1724 143.42 65.1822 143.895C65.1856 144.06 65.2246 144.22 65.2457 144.383C65.2402 144.559 65.3879 144.707 65.564 144.712C65.7398 144.718 65.8874 144.581 65.8925 144.405C66.0418 143.658 66.0455 142.893 66.2532 142.155C66.356 141.79 66.4276 141.656 66.5712 141.306C66.7452 140.883 66.8966 140.454 67.1016 140.044C68.027 138.19 69.4539 136.695 71.1208 135.492C71.5138 135.208 71.8962 134.913 72.3191 134.675C73.9754 133.738 75.9304 133.142 77.8335 133.041C78.8044 132.989 79.7705 133.061 80.7179 133.285C81.3678 133.438 81.9905 133.673 82.6373 133.836C82.6841 133.857 82.734 133.83 82.754 133.784C82.7741 133.737 82.7581 133.687 82.7116 133.667C82.5637 133.574 82.4215 133.47 82.2661 133.391C81.8178 133.162 81.2897 133.02 80.8028 132.903C79.8282 132.668 78.8145 132.572 77.8124 132.595Z" fill="#070D1C"/>
<path d="M59.8564 132.511C58.6314 132.864 57.6948 134.494 57.4175 135.652C57.2387 136.397 57.2054 137.176 56.9085 137.89C56.8199 138.103 56.6757 138.293 56.5478 138.485C55.9926 139.316 55.1262 139.961 54.3209 140.532C53.816 140.891 53.1682 141.203 52.8573 141.763C52.7827 141.892 52.8241 142.06 52.953 142.135C53.0816 142.209 53.2493 142.168 53.3239 142.039C53.457 141.823 53.6857 141.667 53.8862 141.519C54.194 141.291 54.51 141.077 54.8195 140.85C55.6067 140.275 56.3771 139.542 56.9085 138.718C57.182 138.294 57.3686 137.887 57.4915 137.392C57.6405 136.792 57.67 136.164 57.8308 135.567C58.1434 134.408 58.93 133.303 59.8988 132.596C59.9226 132.584 59.9317 132.556 59.9202 132.532C59.9087 132.508 59.8802 132.499 59.8564 132.511Z" fill="#070D1C"/>
<path d="M1.30995 143.111C0.956145 143.105 0.659283 143.384 0.652462 143.738C0.645641 144.092 0.934936 144.389 1.28874 144.396C3.14427 144.452 5.0001 144.477 6.8562 144.512C12.8671 144.627 18.8723 144.672 24.8842 144.693C35.3765 144.729 45.8766 144.745 56.3693 144.788C62.37 144.813 68.365 144.798 74.3653 144.883C76.3512 144.912 78.3401 144.988 80.3253 145.043C80.8357 145.057 81.3423 145.047 81.8524 145.064C82.1032 145.072 82.3543 145.127 82.6051 145.117C82.8613 145.107 83.1059 145.045 83.3581 145C83.4429 145.003 83.5142 144.936 83.5172 144.852C83.5203 144.767 83.4643 144.696 83.3795 144.693C83.1311 144.63 82.881 144.541 82.6264 144.512C82.3767 144.484 82.1245 144.511 81.8734 144.502C81.2331 144.478 80.5951 144.427 79.9541 144.406C78.0982 144.344 76.2426 144.32 74.3867 144.258C68.237 144.051 62.0768 143.887 55.9241 143.801C46.5947 143.671 37.2677 143.631 27.9383 143.536C23.5919 143.492 19.2513 143.425 14.9049 143.377C10.3743 143.327 5.84104 143.147 1.30995 143.111Z" fill="#070D1C"/>
<path d="M83.2733 133.911C83.1922 133.902 83.123 133.968 83.1141 134.049C83.1057 134.13 83.1603 134.199 83.2417 134.208C84.2577 134.289 85.27 134.392 86.285 134.484C88.3242 134.668 90.3793 134.728 92.4252 134.76C93.4619 134.776 94.4956 134.785 95.5323 134.802C95.7963 134.807 96.0637 134.821 96.3277 134.823C96.4394 134.824 96.5605 134.802 96.6671 134.845C96.926 134.947 97.1649 135.149 97.3777 135.322C97.7835 135.653 98.149 136.028 98.523 136.394C99.6289 137.476 100.704 138.602 101.768 139.725C103.336 141.381 104.897 143.035 106.508 144.649C107.696 145.837 108.946 146.965 110.177 148.108C111.024 148.893 111.881 149.664 112.733 150.442C113.118 150.794 113.568 151.131 113.9 151.535C114.17 151.864 114.367 152.254 114.547 152.638C115.545 154.781 116.034 157.156 116.37 159.482C116.586 160.971 116.644 162.467 116.636 163.97C116.632 164.581 116.66 165.246 116.54 165.848C116.371 166.696 115.967 167.54 115.596 168.31C115.405 168.708 115.189 169.094 114.971 169.477C114.759 169.85 114.574 170.227 114.313 170.57C114.088 170.866 113.825 171.147 113.571 171.419C113.35 171.656 113.13 171.763 112.839 171.886C112.623 171.977 112.455 172.079 112.213 172.002C111.704 171.84 111.76 170.922 111.768 170.517C111.77 170.412 111.772 170.303 111.779 170.199C111.786 170.088 111.8 169.98 111.811 169.87C111.822 169.753 111.841 169.636 111.853 169.52C111.885 169.217 111.895 169.08 111.938 168.777C112.103 167.616 112.382 166.487 112.616 165.339C112.725 164.806 112.918 164.207 112.627 163.695C112.364 163.233 111.856 162.999 111.461 162.676C111.308 162.551 111.176 162.401 111.047 162.252C111.01 162.196 110.933 162.182 110.877 162.22C110.821 162.257 110.808 162.333 110.845 162.389C111.027 162.752 111.227 163.094 111.524 163.376C111.794 163.632 112.203 163.83 112.235 164.246C112.258 164.557 112.137 164.969 112.086 165.233C112.04 165.475 111.992 165.722 111.948 165.965C111.7 167.353 111.408 168.766 111.354 170.177C111.333 170.754 111.272 171.834 111.895 172.172C112.103 172.285 112.394 172.325 112.627 172.353C113.173 172.418 113.879 171.969 114.271 171.62C114.595 171.333 114.842 170.961 115.109 170.623C115.767 169.787 116.26 168.835 116.668 167.854C116.914 167.259 117.149 166.632 117.272 165.997C117.374 165.465 117.369 164.892 117.378 164.352C117.398 163.207 117.288 162.06 117.145 160.925C116.941 159.315 116.734 157.698 116.307 156.129C115.885 154.581 115.573 152.969 114.727 151.577C114.257 150.804 113.496 150.271 112.839 149.667C112.001 148.897 111.175 148.104 110.347 147.323C109.229 146.267 108.157 145.173 107.049 144.108C105.286 142.413 103.536 140.705 101.8 138.983C100.745 137.936 99.7148 136.847 98.6394 135.821C98.3801 135.573 98.1164 135.343 97.8443 135.11C97.5385 134.848 97.2053 134.568 96.8157 134.441C96.6155 134.376 96.3973 134.394 96.1899 134.399C95.909 134.405 95.6331 134.416 95.3521 134.42C94.3805 134.435 93.4073 134.428 92.4357 134.41C90.3925 134.37 88.3472 134.284 86.3064 134.187C85.2887 134.138 84.2842 134.047 83.2733 133.911Z" fill="#070D1C"/>
<path d="M108.363 154.251C108.252 154.305 108.202 154.437 108.257 154.548C108.975 155.881 109.428 157.343 109.773 158.813C110.018 159.856 110.213 160.915 110.282 161.986C110.307 162.364 110.299 162.743 110.293 163.121C110.262 165.008 109.971 166.892 109.254 168.649C108.971 169.342 108.66 170.011 108.278 170.655C108.199 170.789 108.118 170.916 108.034 171.047C107.949 171.181 107.856 171.318 107.769 171.45C107.671 171.601 107.182 171.722 107.037 171.758C106.965 171.776 106.899 171.786 106.825 171.8C105.884 171.981 104.94 171.746 104.121 171.27C103.959 171.176 103.8 171.081 103.654 170.962C103.625 170.939 103.588 170.895 103.57 170.856C103.651 170.613 103.661 170.516 103.75 170.251C103.818 170.049 103.926 169.855 104.004 169.657C104.187 169.197 104.348 168.741 104.577 168.299C104.785 167.897 104.982 167.48 105.192 167.079C105.494 166.502 105.814 165.976 105.934 165.328C106.07 164.599 105.91 163.702 105.807 162.972C105.579 161.349 105.032 159.744 104.291 158.283C104.094 157.894 103.853 157.534 103.633 157.158C103.561 157.026 103.404 156.98 103.273 157.052C103.141 157.124 103.084 157.281 103.156 157.413C104.023 159.127 104.755 160.913 105.171 162.792C105.306 163.402 105.367 164.014 105.372 164.639C105.375 164.898 105.374 165.15 105.309 165.402C105.111 166.164 104.653 166.817 104.259 167.482C103.847 168.177 103.423 168.969 103.262 169.763C103.168 170.224 102.922 170.834 103.262 171.238C103.676 171.731 104.301 172.021 104.906 172.204C105.297 172.322 105.695 172.388 106.104 172.373C106.722 172.352 107.472 172.241 107.992 171.875C108.191 171.734 108.303 171.503 108.426 171.302C108.51 171.165 108.591 171.027 108.67 170.888C109.127 170.093 109.534 169.267 109.848 168.405C110.46 166.719 110.819 164.921 110.813 163.121C110.811 162.608 110.764 162.094 110.728 161.583C110.651 160.499 110.494 159.404 110.197 158.357C109.805 156.971 109.245 155.667 108.66 154.357C108.605 154.246 108.474 154.196 108.363 154.251Z" fill="#070D1C"/>
<path d="M97.0068 168.205C96.8089 168.286 96.7133 168.505 96.7947 168.703C96.9908 169.414 97.526 170.071 98.1416 170.475C98.503 170.712 98.9265 170.865 99.3293 171.016C100.137 171.319 100.976 171.495 101.843 171.451C102.366 171.425 102.813 171.196 103.327 171.144C103.444 171.097 103.501 170.963 103.454 170.847C103.408 170.73 103.284 170.673 103.168 170.719C103.092 170.78 103.022 170.855 102.935 170.899C102.799 170.969 102.528 170.99 102.383 171.006C102.099 171.035 101.81 171.064 101.524 171.059C100.757 171.044 99.9164 170.843 99.2655 170.422C98.8196 170.134 98.3825 169.708 98.0459 169.298C97.8256 169.028 97.679 168.704 97.5053 168.406C97.4238 168.208 97.2046 168.123 97.0068 168.205Z" fill="#070D1C"/>
<path d="M99.6043 160.151C99.4709 160.143 99.3576 160.24 99.3498 160.374C99.2521 161.111 99.5378 161.913 99.7105 162.612C100.061 164.031 100.332 165.561 99.2863 166.761C99.0257 167.06 98.7173 167.274 98.3847 167.483C97.9513 167.755 97.4138 167.974 96.8895 167.95C96.8498 167.942 96.802 167.973 96.7942 168.013C96.7864 168.053 96.8179 168.09 96.8576 168.098C97.386 168.279 97.8937 168.112 98.3955 167.918C98.7257 167.79 99.0169 167.593 99.2863 167.366C100.812 166.078 100.698 164.251 100.336 162.464C100.245 162.013 100.14 161.578 100.007 161.137C99.9362 160.902 99.8405 160.654 99.8269 160.405C99.8347 160.272 99.7377 160.158 99.6043 160.151Z" fill="#070D1C"/>
<path d="M89.2109 156.958C89.1227 157.038 89.1206 157.167 89.2004 157.255C89.4366 157.596 89.573 157.99 89.7094 158.38C89.9001 158.924 90.0505 159.486 90.1865 160.046C90.6087 161.784 90.9026 163.669 91.8833 165.202C92.2963 165.848 92.8803 166.352 93.5481 166.72C94.1892 167.073 94.892 167.301 95.5527 167.611C95.8113 167.732 96.062 167.869 96.2948 168.036C96.4838 168.171 96.6325 168.288 96.8463 168.386C96.8632 168.405 96.8907 168.403 96.9101 168.386C96.9291 168.369 96.927 168.341 96.9101 168.322C96.8836 168.243 96.8761 168.161 96.8357 168.089C96.7299 167.898 96.5008 167.743 96.3267 167.622C95.9412 167.353 95.494 167.16 95.0647 166.975C94.0802 166.548 93.0764 166.081 92.4242 165.192C91.9434 164.536 91.7095 163.79 91.491 163.017C91.1679 161.873 90.9877 160.682 90.7169 159.526C90.497 158.587 90.2656 157.631 89.5187 156.969C89.439 156.88 89.2991 156.878 89.2109 156.958Z" fill="#070D1C"/>
<path d="M83.9196 141.149C83.9091 141.148 83.8986 141.149 83.8983 141.159C83.7734 141.467 83.7395 141.736 83.6862 142.061C83.6522 142.268 83.5827 142.522 83.5589 142.73C83.489 143.336 83.4863 143.966 83.4846 144.576C83.4812 146.014 83.5104 147.512 83.9512 148.894C84.3024 149.995 84.9672 151.023 85.6269 151.961C86.706 153.494 87.9511 154.911 89.2749 156.237C89.7313 156.694 90.2197 157.115 90.6639 157.584C91.8241 158.81 92.9097 160.146 93.6759 161.659C93.9393 162.179 94.1388 162.701 94.3013 163.261C94.413 163.644 94.488 163.898 94.4924 164.301C94.5124 164.424 94.6336 164.512 94.7574 164.492C94.8813 164.471 94.9682 164.35 94.9485 164.226C94.7998 163.757 94.754 163.274 94.5983 162.804C94.2932 161.885 93.8727 161.018 93.3471 160.205C92.666 159.152 91.839 158.195 91.0141 157.255C90.2387 156.372 89.4965 155.47 88.7021 154.603C88.0818 153.925 87.4356 153.267 86.8676 152.544C86.2201 151.72 85.6344 150.82 85.1494 149.892C84.9465 149.502 84.7497 149.103 84.6194 148.682C84.2135 147.373 84.1653 145.936 84.1528 144.576C84.147 143.97 84.1803 143.355 84.1528 142.751C84.144 142.554 84.0944 142.279 84.0785 142.082C84.0523 141.754 84.0391 141.477 83.9407 141.159C83.941 141.149 83.9298 141.149 83.9196 141.149Z" fill="#070D1C"/>
<path d="M157.59 136.183C156.962 136.444 156.331 136.671 155.671 136.841C152.839 137.567 149.881 137.438 146.985 137.488C145.531 137.513 144.081 137.636 142.627 137.69C141.223 137.741 139.821 137.715 138.417 137.711C136.975 137.706 135.518 137.716 134.08 137.615C133.639 137.584 133.212 137.446 132.786 137.339C132.06 137.158 131.329 136.96 130.58 136.904C130.071 136.867 129.518 137.087 129.053 137.265C128.108 137.629 127.172 138.19 126.147 138.262C125.824 138.286 125.496 138.244 125.172 138.241C124.683 138.237 124.197 138.24 123.708 138.241C122.003 138.247 120.299 138.291 118.597 138.401C115.421 138.604 112.254 139.026 109.127 139.61C107.322 139.947 105.513 140.311 103.74 140.788C103.535 140.836 103.405 141.049 103.453 141.255C103.502 141.46 103.715 141.579 103.92 141.531C105.556 141.199 107.17 140.805 108.809 140.48C111.183 140.01 113.581 139.625 115.988 139.377C118.238 139.145 120.504 139.017 122.764 138.963C123.567 138.944 124.369 138.938 125.172 138.942C125.515 138.943 125.858 138.981 126.2 138.952C127.226 138.867 128.166 138.347 129.106 137.965C129.496 137.807 130.097 137.528 130.527 137.562C131.716 137.657 132.845 138.127 134.037 138.21C134.394 138.234 134.751 138.212 135.108 138.21C135.737 138.205 136.367 138.225 136.996 138.231C139.19 138.251 141.389 138.206 143.581 138.135C144.894 138.093 146.202 138.015 147.516 137.987C149.929 137.936 152.401 138.047 154.78 137.562C155.812 137.352 156.807 137.018 157.77 136.597C157.886 136.547 157.936 136.415 157.887 136.3C157.838 136.184 157.705 136.134 157.59 136.183Z" fill="#070D1C"/>
<path d="M110.282 144.395C109.373 144.394 108.467 144.425 107.557 144.416C107.321 144.416 107.133 144.604 107.133 144.84C107.133 145.076 107.321 145.264 107.557 145.264C108.467 145.256 109.373 145.286 110.282 145.286C113.692 145.284 117.106 145.289 120.516 145.275C128.002 145.244 135.49 145.188 142.977 145.211C147.161 145.225 151.348 145.205 155.532 145.127C156.801 145.103 158.071 145.045 159.34 145.042C159.983 145.04 160.638 145.09 161.28 145.021C161.5 144.997 161.72 144.942 161.938 144.904C161.995 144.904 162.044 144.855 162.044 144.798C162.044 144.741 161.995 144.691 161.938 144.692C161.719 144.654 161.5 144.608 161.28 144.585C160.428 144.496 159.548 144.565 158.692 144.553C157.43 144.537 156.169 144.502 154.907 144.49C150.737 144.451 146.573 144.426 142.404 144.448C135.109 144.484 127.811 144.433 120.516 144.405C117.106 144.392 113.692 144.397 110.282 144.395Z" fill="#070D1C"/>
<path d="M124.186 139.567C123.69 139.497 123.165 139.585 122.67 139.641C121.911 139.726 121.147 139.818 120.39 139.917C117.842 140.25 115.309 140.67 112.786 141.158C111.661 141.377 110.533 141.617 109.446 141.986C109.021 142.13 108.54 142.281 108.173 142.548C107.576 142.984 107.697 143.806 108.194 144.267C108.643 144.683 109.172 144.866 109.764 144.967C110.073 145.02 110.237 145.06 110.548 144.999C110.634 145.004 110.703 144.936 110.708 144.851C110.712 144.766 110.644 144.696 110.559 144.692C110.185 144.573 109.81 144.562 109.446 144.395C109.228 144.294 109.005 144.206 108.809 144.066C108.69 143.98 108.598 143.879 108.502 143.769C108.429 143.684 108.353 143.603 108.3 143.503C108.063 143.05 108.549 142.829 108.894 142.676C109.296 142.497 109.716 142.35 110.135 142.22C110.362 142.149 110.52 142.103 110.75 142.039C110.923 141.99 111.235 141.904 111.408 141.859C111.645 141.797 111.879 141.746 112.118 141.689C112.753 141.537 113.388 141.366 114.027 141.233C116.023 140.816 118.043 140.52 120.061 140.235C120.938 140.111 121.821 139.996 122.702 139.896C123.197 139.839 123.719 139.808 124.197 139.662C124.224 139.66 124.241 139.636 124.239 139.609C124.237 139.582 124.213 139.565 124.186 139.567Z" fill="#070D1C"/>
<path d="M97.1116 62.811C97.0461 62.8313 97.0067 62.8941 97.0267 62.9597C97.3023 64.0482 97.4594 65.1673 97.8435 66.2277C98.1578 67.0962 98.5663 67.9328 98.9675 68.7637C99.8745 70.6416 100.915 72.4629 102.075 74.1962C105.779 79.7337 110.69 84.531 116.402 87.9793C116.926 88.2958 117.486 88.548 118.024 88.8387C119.616 89.6984 121.238 90.4678 122.913 91.1516C123.028 91.1991 123.162 91.139 123.21 91.0243C123.257 90.9095 123.208 90.7747 123.093 90.7272C121.446 90.0393 119.818 89.2801 118.268 88.3929C117.745 88.0934 117.265 87.7332 116.752 87.4167C109.928 83.2122 104.156 77.3329 100.304 70.2807C99.6797 69.1385 99.1059 67.9617 98.5857 66.7689C98.4096 66.3649 98.2253 65.9639 98.0767 65.5486C97.7645 64.6743 97.5907 63.7586 97.2707 62.8853C97.2503 62.8198 97.1774 62.7909 97.1116 62.811Z" fill="#070D1C"/>
<path d="M93.7296 57.6641C93.6227 57.6658 93.5372 57.7483 93.5385 57.8552C93.4948 58.3044 93.5423 58.7048 93.6023 59.1495C93.8565 61.034 95.4732 62.1986 97.0593 62.9798C97.1495 63.0304 97.2636 62.9958 97.3138 62.9058C97.3643 62.8155 97.3297 62.7014 97.2398 62.6512C96.123 61.9453 94.7714 61.3521 94.2705 60.0303C94.0055 59.3315 94.0255 58.5842 93.9312 57.8552C93.9295 57.7483 93.8365 57.6627 93.7296 57.6641Z" fill="#070D1C"/>
<path d="M90.2183 35.1587C89.1728 35.682 88.6227 36.851 88.4687 37.9704C88.3628 38.7381 88.4961 39.5336 88.5006 40.3047C88.4931 40.3027 88.4863 40.2976 88.4792 40.2942C88.4551 40.2827 88.4381 40.2664 88.4157 40.2518C88.3523 40.2107 88.2807 40.1808 88.2141 40.1455C87.9311 39.9964 87.6641 39.8233 87.3977 39.647C87.1164 39.461 86.8819 39.1568 86.6552 38.915C86.3392 38.5772 86.026 38.2145 85.6796 37.9069C85.4505 37.7035 85.0677 37.4153 84.7782 37.6839C84.6072 37.8428 84.5322 38.132 84.4599 38.3419C84.3347 38.7069 84.2638 39.0831 84.2268 39.4664C84.0771 41.0161 84.651 42.4645 85.5523 43.7001C85.7807 44.0131 86.0335 44.3055 86.2948 44.5914C86.478 44.792 86.6783 44.9536 86.7295 45.228C86.8316 45.774 86.4872 46.3257 86.2205 46.7664C85.8777 47.3324 85.4726 47.839 85.0962 48.3792C84.9422 48.6006 84.4891 49.2158 84.6296 49.5041C84.7558 49.7625 85.1478 49.8657 85.4037 49.9071C85.5815 49.936 85.7647 49.9183 85.9446 49.918C86.4635 49.9166 86.9752 49.9064 87.493 49.865C87.7781 49.8419 88.0682 49.807 88.3519 49.7693C88.2399 49.9906 88.095 50.2022 87.9596 50.4059C87.7136 50.775 87.4686 51.1342 87.249 51.5199C87.1238 51.7399 86.9643 52.0204 87.0475 52.2839C87.1377 52.5697 87.5144 52.7212 87.7581 52.8251C88.2226 53.0237 88.7113 53.1402 89.2108 53.2071C89.4202 53.2352 89.6367 53.2566 89.8471 53.2709C89.9221 53.276 89.9947 53.2794 90.0697 53.2814C90.086 53.3086 90.1006 53.3432 90.1016 53.3452C90.1474 53.4159 90.1936 53.476 90.2394 53.5466C90.3263 53.68 90.4097 53.8152 90.4939 53.95C90.7192 54.3088 90.9493 54.6684 91.1835 55.0215C91.7105 55.8167 92.2287 56.6567 92.8693 57.3664C93.0607 57.5782 93.3869 57.9745 93.7177 57.9181C94.1171 57.8502 93.9359 57.1847 93.8982 56.9419C93.8484 56.6221 93.7856 56.2968 93.7391 55.9766C93.7136 55.8025 93.7089 55.631 93.6862 55.4565C93.6332 55.0507 93.5976 54.7081 93.6437 54.3C93.675 54.023 93.7079 53.7625 94.0041 53.6739C94.0489 53.681 94.0822 53.6549 94.089 53.6104C94.0961 53.5656 94.07 53.5218 94.0255 53.515C93.4883 53.2016 93.2243 53.8274 93.2087 54.2681C93.2019 54.4637 93.2362 54.5408 93.262 54.735C93.2728 54.8178 93.2752 54.8962 93.283 54.9791C93.2939 55.0901 93.318 55.4008 93.3363 55.5094C93.3651 55.6846 93.4106 55.8547 93.4422 56.0296C93.4727 56.1977 93.4886 56.3702 93.5165 56.5389C93.5603 56.8058 93.6217 57.0727 93.6329 57.3453C93.6353 57.3973 93.639 57.4774 93.6329 57.5361C93.5956 57.5144 93.5582 57.4964 93.527 57.4726C93.4228 57.3932 93.3197 57.292 93.2301 57.1966C92.8052 56.744 92.4238 56.2371 92.0637 55.7325C91.7261 55.2595 91.4122 54.7567 91.0986 54.2681C90.9079 53.9714 90.7145 53.6715 90.5367 53.3663C90.4667 53.2464 90.386 53.0077 90.2502 52.9314C90.1593 52.8804 89.9655 52.9042 89.8685 52.8994C89.6194 52.8876 89.372 52.8672 89.126 52.8251C88.4558 52.7107 87.9464 52.5297 87.3549 52.199C87.3403 52.1908 87.3858 52.0431 87.3868 52.0401C87.4401 51.8615 87.5158 51.691 87.6094 51.5308C87.9101 51.0171 88.3102 50.5607 88.6064 50.0453C88.7018 49.8796 88.8596 49.6168 88.6702 49.4511C88.5566 49.352 88.1011 49.4111 87.9596 49.4192C87.415 49.4508 86.8724 49.5122 86.3264 49.5146C85.9666 49.5163 85.5822 49.4708 85.234 49.3662C85.1868 49.352 85.1315 49.337 85.0857 49.3129C85.0877 49.298 85.0915 49.2909 85.0962 49.2814C85.1149 49.245 85.138 49.2087 85.16 49.1751C85.2279 49.0719 85.3127 48.9717 85.3931 48.878C85.6195 48.6155 85.819 48.3473 86.0294 48.0716C86.6362 47.2774 87.4465 46.3077 87.3444 45.2385C87.302 44.793 86.9799 44.5279 86.6976 44.2199C86.4516 43.952 86.2208 43.6661 86.0084 43.3711C84.899 41.8323 84.2618 39.9017 85.1071 38.1083C85.1298 38.1215 85.1488 38.1358 85.1705 38.1511C85.2333 38.1945 85.2832 38.2376 85.3402 38.2889C85.5805 38.5049 85.8031 38.751 86.0084 38.9999C86.2853 39.3357 86.5364 39.699 86.8568 39.9971C87.1245 40.2463 87.471 40.4371 87.79 40.6127C88.0336 40.7468 88.3696 40.9067 88.6594 40.8565C89.2756 40.7499 89.052 39.7476 89.0306 39.3286C89.0259 39.2332 89.0211 39.1377 89.0201 39.042C89.0191 38.9405 89.0113 38.8359 89.0201 38.7344C89.0873 37.9473 89.3886 37.2017 89.858 36.5698C90.1036 36.2388 90.3761 35.9305 90.6001 35.5832C90.7179 35.4793 90.725 35.2976 90.6215 35.1801C90.5176 35.0623 90.3361 35.0548 90.2183 35.1587Z" fill="#070D1C"/>
<path d="M157.611 34.8835C157.417 34.8404 157.23 34.9653 157.187 35.1596C157.144 35.3538 157.268 35.5409 157.463 35.584C158.184 35.8155 158.964 35.8458 159.711 35.9235C160.072 35.9612 160.435 36.0009 160.793 36.0614C160.951 36.0882 161.112 36.115 161.27 36.1463C161.34 36.1602 161.413 36.1717 161.482 36.1887C161.681 36.2376 161.872 36.3018 162.065 36.3693C162.094 36.3792 162.19 36.4016 162.192 36.4433C162.192 36.4478 162.08 36.5231 162.044 36.5707C161.9 36.7578 161.717 36.9217 161.535 37.0694C161.387 37.1896 161.24 37.3034 161.09 37.4195C160.922 37.5489 160.75 37.6752 160.58 37.8015C159.989 38.2425 159.389 38.6683 158.82 39.1386C158.536 39.3728 157.861 39.894 158.067 40.3375C158.255 40.7419 158.855 40.8712 159.244 40.9317C160.191 41.079 161.165 40.9588 162.118 40.9422C162.205 40.9408 162.286 40.9435 162.373 40.9422C162.453 40.9412 162.536 40.9415 162.617 40.9422C162.691 40.9429 162.765 40.9391 162.839 40.9422C162.944 40.9466 163.279 40.9765 163.369 41.0695C163.401 41.2498 163.441 41.425 163.454 41.6107C163.52 42.5407 163.128 43.4527 162.977 44.3589C162.913 44.7412 162.961 45.1966 162.818 45.5578C162.752 45.7245 162.638 45.8698 162.532 46.0142C162.141 46.5425 161.501 47.0599 161.28 47.701C161.253 47.7804 161.202 47.9556 161.206 48.0405C161.211 48.1546 161.199 48.2833 161.259 48.38C161.359 48.5406 161.502 48.691 161.673 48.7729C161.816 48.8411 161.981 48.7983 162.139 48.8045C162.724 48.8272 163.279 48.615 163.857 48.5926C164.101 48.5827 164.345 48.5634 164.589 48.5607C164.61 48.5603 164.632 48.5593 164.653 48.5607C164.577 48.691 164.509 48.8323 164.398 48.9321C164.262 49.0547 164.094 49.1365 163.942 49.2397C163.489 49.5477 163.029 49.7983 162.553 50.0672C161.823 50.4797 161.045 50.8359 160.358 51.3194C160.176 51.4474 160.032 51.6233 159.859 51.7543C159.763 51.827 159.65 51.8555 159.562 51.9451C159.325 52.1879 159.349 52.6718 159.318 52.9746C159.247 53.6907 159.263 54.4305 159.287 55.1497C159.295 55.3928 159.31 55.6393 159.329 55.8817C159.358 56.2505 159.314 56.3869 158.894 56.2742C158.842 56.2603 158.786 56.2505 158.735 56.2321C158.615 56.1887 158.499 56.1303 158.385 56.0729C158.186 55.9717 157.959 55.8393 157.781 55.7228C157.421 55.4862 157.276 55.3612 156.932 55.0967C156.504 54.766 156.125 54.5334 155.83 54.0672C155.737 53.9834 155.595 53.9851 155.511 54.0781C155.427 54.1711 155.44 54.3124 155.533 54.3963C156.154 54.71 156.624 55.2512 157.187 55.659C157.527 55.9055 157.874 56.1442 158.247 56.3381C158.428 56.4321 158.611 56.5214 158.809 56.5717C158.943 56.6053 159.014 56.6073 159.149 56.6032C159.996 56.5774 159.823 55.4223 159.817 54.874C159.816 54.7796 159.817 54.6815 159.817 54.5874C159.817 54.3684 159.811 54.2122 159.827 53.9932C159.851 53.6785 159.898 53.361 159.944 53.0486C159.96 52.9407 159.976 52.8378 159.997 52.7305C160.031 52.5546 160.085 52.1322 160.252 52.0195C161.535 51.151 162.99 50.5992 164.281 49.749C164.459 49.6322 164.653 49.5297 164.811 49.3881C164.924 49.288 164.998 49.1484 165.087 49.0275C165.167 48.9196 165.257 48.8269 165.321 48.709C165.373 48.6126 165.394 48.4877 165.374 48.38C165.29 47.9349 164.759 47.903 164.398 47.924C164.105 47.941 163.836 48.0262 163.55 48.0724C163.198 48.1295 162.824 48.16 162.468 48.1787C162.361 48.1841 162.257 48.1753 162.15 48.1787C162.077 48.1811 161.995 48.2279 161.927 48.1997C161.887 48.1828 161.876 48.1335 161.853 48.0938C161.883 48.084 161.867 48.0391 161.874 48.0089C161.899 47.9037 161.935 47.7991 161.98 47.701C162.122 47.3906 162.396 47.1621 162.617 46.9054C162.762 46.735 162.92 46.5774 163.051 46.3961C163.188 46.2077 163.324 46.0172 163.412 45.8019C163.495 45.5969 163.522 45.3724 163.56 45.1545C163.609 44.876 163.597 44.5867 163.656 44.3056C163.845 43.397 164.215 42.503 164.154 41.5578C164.136 41.2746 164.081 40.934 163.91 40.6984C163.645 40.331 162.761 40.366 162.373 40.3589C162.283 40.3568 162.197 40.3582 162.108 40.3589C161.437 40.3616 160.773 40.3792 160.103 40.3375C159.724 40.3137 159.324 40.2971 158.958 40.1782C158.899 40.1592 158.839 40.1242 158.778 40.0933C158.781 40.09 158.785 40.0862 158.788 40.0828C158.849 40.0173 158.912 39.9619 158.979 39.9025C159.283 39.6326 159.618 39.3905 159.944 39.1491C160.701 38.5889 161.487 38.0483 162.182 37.409C162.412 37.1971 162.718 36.951 162.744 36.6131C162.755 36.4583 162.689 36.3296 162.638 36.1887C162.393 35.5202 161.577 35.311 160.952 35.1915C160.805 35.1633 160.526 35.1147 160.379 35.0961C160.188 35.0713 159.997 35.0529 159.806 35.0322C159.618 35.0119 159.433 34.9949 159.244 34.9793C159.069 34.9643 158.89 34.946 158.714 34.9368C158.347 34.9175 157.977 34.9236 157.611 34.8835Z" fill="#070D1C"/>
<path d="M128.978 77.1871C128.815 77.1752 128.644 77.2366 128.479 77.2295C128.235 77.2193 127.995 77.1884 127.748 77.2085C127.488 77.2292 127.237 77.2954 126.973 77.2933C125.828 77.2842 124.667 77.1018 123.527 77.2933C122.965 77.3877 122.468 77.5799 121.936 77.7707C121.21 78.0315 120.454 78.241 119.72 78.4817C119.596 78.5201 119.523 78.6545 119.561 78.7788C119.599 78.9031 119.734 78.9764 119.858 78.9377C120.323 78.8029 120.789 78.6607 121.247 78.5028C121.525 78.407 121.792 78.2865 122.074 78.2057C122.339 78.1303 122.614 78.0858 122.88 78.0149C123.496 77.8505 124.118 77.6879 124.757 77.6539C125.123 77.6346 125.465 77.6696 125.828 77.7072C126.528 77.7792 127.329 77.8756 128.023 77.7178C128.251 77.6658 128.465 77.5646 128.692 77.5161C128.754 77.5025 128.819 77.4967 128.883 77.4842C128.901 77.4804 128.917 77.4668 128.936 77.4631C128.942 77.4648 128.95 77.4614 128.957 77.4631C129.073 77.493 129.19 77.5303 129.307 77.5585C129.615 77.6325 129.925 77.7011 130.229 77.7921C130.924 77.9999 131.608 78.2811 132.329 78.3863C132.355 78.3955 132.383 78.3805 132.392 78.3544C132.402 78.3279 132.387 78.3001 132.361 78.2906C131.735 77.912 130.979 77.7711 130.282 77.5796C129.939 77.4855 129.607 77.3687 129.264 77.272C129.175 77.2468 129.071 77.1942 128.978 77.1871Z" fill="#070D1C"/>
<path d="M132.361 78.3972C131.678 78.6101 131.026 78.9222 130.335 79.1079C129.692 79.2807 129.037 79.3962 128.384 79.5218C128.224 79.5527 128.062 79.5717 127.906 79.6172C127.746 79.6644 127.605 79.769 127.44 79.7978C127.28 79.826 127.115 79.7819 126.952 79.7764C126.63 79.7656 126.309 79.7601 125.987 79.7449C125.016 79.698 124.007 79.6294 123.06 79.3945C122.204 79.1819 121.368 78.8675 120.494 78.7368C120.38 78.7011 120.264 78.7606 120.229 78.8746C120.193 78.9887 120.253 79.115 120.367 79.1507C120.535 79.2332 120.7 79.3296 120.876 79.3945C121.048 79.458 121.228 79.4875 121.406 79.5323C121.933 79.6658 122.438 79.7673 122.975 79.8403C123.979 79.9761 124.97 80.1139 125.987 80.063C126.362 80.0443 126.593 80.0212 126.963 79.9567C127.125 79.9289 127.286 79.8678 127.451 79.8613C127.62 79.8549 127.78 79.9248 127.949 79.9252C128.282 79.9258 128.611 79.8413 128.935 79.7659C129.439 79.6491 129.915 79.4787 130.399 79.2991C130.895 79.1147 131.429 78.97 131.905 78.7368C132.072 78.6546 132.221 78.5545 132.382 78.4607C132.399 78.4533 132.411 78.4251 132.403 78.4078C132.395 78.3905 132.378 78.3894 132.361 78.3972Z" fill="#070D1C"/>
<path d="M130.495 70.5453C129.461 71.2162 129.883 70.8574 129.466 71.2135C129.206 71.4359 130.035 70.8489 130.314 70.6513C130.37 70.6119 130.192 70.7107 130.134 70.747C130.019 70.8183 129.92 70.8984 129.805 70.9697C129.571 71.1147 129.312 71.2366 129.073 71.3728C128.953 71.4417 128.603 71.6549 128.724 71.585C129.316 71.241 128.719 71.5887 128.427 71.8926C128.379 71.9262 128.372 71.9938 128.405 72.0413C128.439 72.0889 128.506 72.096 128.554 72.0624C129.554 71.3385 129.147 71.6009 129.551 71.3412C129.784 71.1904 129.11 71.6858 128.925 71.8926C128.834 71.9941 129.154 71.7381 129.264 71.6593C129.546 71.4587 129.82 71.2444 130.102 71.0438C130.159 71.0037 130.219 70.9728 130.272 70.9273C130.325 70.8811 130.479 70.7399 130.42 70.7786C129.789 71.1942 130.413 70.7698 130.548 70.6088C130.566 70.5939 130.573 70.5742 130.558 70.5559C130.543 70.5375 130.513 70.53 130.495 70.5453Z" fill="#070D1C"/>
<path d="M121.809 70.2588C121.772 70.2323 121.719 70.2432 121.692 70.2798C121.666 70.3168 121.677 70.3596 121.713 70.3861C122.098 70.7324 121.994 70.6594 122.096 70.7362C122.112 70.7335 122.301 70.8744 122.403 70.9484C122.703 71.166 122.979 71.4003 123.262 71.638C123.317 71.6845 123.379 71.7263 123.432 71.7762C123.483 71.8254 123.635 71.9802 123.58 71.9354C122.952 71.4285 123.58 71.932 123.665 72.1473C123.75 72.24 123.891 72.2427 123.983 72.1581C124.075 72.0733 124.078 71.932 123.993 71.8397C123.624 71.5725 123.725 71.66 123.623 71.5745C123.613 71.5653 123.6 71.5623 123.591 71.5531C123.487 71.4536 123.397 71.3619 123.283 71.2669C123.054 71.0757 122.803 70.8988 122.562 70.7256C122.441 70.6384 122.073 70.3797 122.191 70.471C122.787 70.9334 122.197 70.473 121.809 70.2588Z" fill="#070D1C"/>
<path d="M128.651 57.3575C128.513 57.3535 128.39 57.4641 128.386 57.6017C128.27 59.3774 128.517 61.1382 128.64 62.9069C128.681 63.4943 128.733 64.0803 128.767 64.6681C128.796 65.157 128.801 65.598 128.948 66.0686C128.949 66.0941 128.965 66.1124 128.99 66.1111C129.015 66.1097 129.034 66.0836 129.032 66.0581C129.153 65.4663 129.058 64.8942 129.011 64.2969C128.965 63.7102 128.929 63.1228 128.895 62.5354C128.84 61.598 128.803 60.652 128.82 59.7132C128.834 59.0131 128.887 58.3123 128.884 57.6122C128.888 57.4747 128.788 57.3616 128.651 57.3575Z" fill="#070D1C"/>
<path d="M139.391 51.5518C138.325 51.5223 137.193 51.7148 136.189 52.072C135.577 52.2893 134.978 52.6067 134.418 52.9313C134.115 53.1065 133.786 53.2912 133.516 53.515C133.319 53.6783 133.168 53.897 132.976 54.0664C132.877 54.1536 132.764 54.2229 132.657 54.3C132.563 54.3818 132.554 54.5234 132.636 54.6185C132.718 54.7132 132.859 54.7319 132.954 54.65C133.045 54.5577 133.129 54.4541 133.23 54.3743C133.423 54.2219 133.659 54.1357 133.866 54.0029C134.509 53.59 135.112 53.1527 135.839 52.8889C137.733 52.201 139.733 52.3691 141.65 52.8994C142.498 53.134 143.33 53.4973 144.142 53.8331C144.306 53.901 144.466 53.9672 144.63 54.0348C144.794 54.102 144.952 54.2446 145.128 54.2362C145.37 54.2253 145.581 54.0667 145.807 53.9815C145.823 53.9886 145.832 53.9873 145.839 53.971C145.846 53.955 145.845 53.9353 145.828 53.9285C145.731 53.7072 145.693 53.4406 145.531 53.2603C145.413 53.1272 145.208 53.117 145.043 53.0478C144.877 52.9778 144.713 52.9133 144.545 52.8464C143.857 52.5721 143.159 52.314 142.445 52.1141C141.437 51.8319 140.446 51.581 139.391 51.5518Z" fill="#070D1C"/>
<path d="M140.568 53.2377C139.671 53.7752 139.547 53.912 139.172 54.9523C138.797 55.993 139.005 56.7726 139.005 56.7726C139.005 56.7726 140.408 57.1298 141.958 56.4711C143.509 55.8124 145.256 54.1724 145.256 54.1724L142.759 52.8027C142.759 52.8027 141.464 52.7002 140.568 53.2377Z" fill="#070D1C"/>
<path d="M111.758 51.9549C110.872 51.9294 109.991 52.0378 109.117 52.1671C108.756 52.2204 108.396 52.2985 108.036 52.3579C107.665 52.4191 107.29 52.4425 106.922 52.5172C106.166 52.6707 105.423 52.9168 104.674 53.1008C104.401 53.1759 104.238 53.4536 104.313 53.7266C104.388 53.9999 104.677 54.1626 104.949 54.0875C105.686 53.8631 106.434 53.6872 107.166 53.4509C107.516 53.3378 107.853 53.1867 108.205 53.0795C109.762 52.6061 111.632 52.3396 113.253 52.5596C114.038 52.6662 114.771 52.9521 115.491 53.2706C116.112 53.5453 116.804 53.8427 117.283 54.3317C117.385 54.404 117.518 54.3809 117.59 54.2787C117.663 54.1762 117.639 54.0329 117.537 53.9602C117.233 53.8162 117.015 53.6183 116.731 53.4404C116.072 53.0265 115.369 52.6673 114.621 52.4428C113.699 52.1664 112.719 51.9824 111.758 51.9549Z" fill="#070D1C"/>
<path d="M111.27 56.6533C111.27 56.6533 110.864 55.5002 111.32 54.4572C111.775 53.4141 112.299 53.2097 113.021 52.7941C113.743 52.3782 113.737 52.7442 114.208 52.7941C114.69 52.8454 114.935 52.9992 115.474 53.2304C116.539 53.6874 117.35 54.3084 117.35 54.3084C117.35 54.3084 116.174 55.6 114.654 56.1861C113.134 56.7724 111.27 56.6533 111.27 56.6533Z" fill="#070D1C"/>
<path d="M105.215 47.1816C104.608 47.1849 104.12 47.6878 104.123 48.2956C104.126 48.9037 104.629 49.3919 105.236 49.3885C105.649 49.4167 106.034 49.3671 106.445 49.3461C106.748 49.3308 107.045 49.3369 107.347 49.3036C107.683 49.267 108.015 49.2126 108.354 49.1977C109.357 49.1536 110.373 49.1138 111.377 49.1128C111.769 49.1125 112.162 49.1471 112.554 49.1444C113.078 49.141 113.587 49.1322 114.112 49.1872C115.224 49.3033 116.436 49.6394 117.443 50.1314C117.918 50.3637 118.381 50.6465 118.747 51.0332C118.956 51.2539 119.109 51.5167 119.309 51.7442C119.438 51.8902 119.592 52.0148 119.744 52.1367C119.763 52.2189 119.842 52.2729 119.924 52.2535C120.006 52.2338 120.06 52.1445 120.041 52.0624C120.083 51.9507 120.146 51.8512 120.168 51.7337C120.269 51.1918 119.882 50.6726 119.542 50.3012C118.851 49.5454 117.884 49.048 116.923 48.7308C116.06 48.4463 115.18 48.2847 114.293 48.0942C113.895 48.0087 113.49 47.9435 113.094 47.8501C112.959 47.8182 112.828 47.7608 112.692 47.7333C112.295 47.6535 111.874 47.6236 111.472 47.5744C110.438 47.4471 109.405 47.3584 108.365 47.3089C108.019 47.2926 107.67 47.2437 107.326 47.2135C107.019 47.1863 106.721 47.1982 106.414 47.1921C106.011 47.1843 105.618 47.149 105.215 47.1816Z" fill="#070D1C"/>
<path d="M142.468 47.4047C141.772 47.4026 141.052 47.407 140.358 47.4682C139.518 47.5422 138.681 47.7602 137.855 47.914C136.784 48.1133 135.697 48.4453 134.737 48.9747C133.976 49.3947 132.947 50.0316 132.882 50.9908C132.84 51.0988 132.89 51.2258 132.998 51.2665C133.106 51.3076 133.233 51.2475 133.274 51.1396C133.432 50.9511 133.566 50.7277 133.74 50.5559C133.881 50.417 134.055 50.2758 134.218 50.163C135.139 49.5227 136.32 49.378 137.399 49.2188C138.074 49.1193 138.709 49.0538 139.393 49.0385C139.736 49.0307 140.078 49.0793 140.422 49.081C141.083 49.0843 141.732 49.0874 142.394 49.1444C143.113 49.2069 143.873 49.2449 144.579 49.41C144.779 49.4568 144.982 49.4911 145.183 49.5373C145.238 49.5498 145.298 49.5974 145.353 49.5797C145.441 49.5509 145.501 49.4663 145.575 49.41C145.658 49.3471 145.737 49.2816 145.819 49.2188C146.013 49.2993 146.237 49.2113 146.317 49.0175C146.398 48.8232 146.299 48.5991 146.106 48.5187C146.081 48.4114 146.067 48.3044 146.031 48.2002C145.996 48.098 145.979 47.9809 145.904 47.9031C145.848 47.8461 145.746 47.8539 145.671 47.8291C145.419 47.7466 145.179 47.6787 144.918 47.6379C144.095 47.5092 143.304 47.4067 142.468 47.4047Z" fill="#070D1C"/>
<path d="M107.164 80.2862C107.058 80.2756 106.963 80.3493 106.952 80.4559C106.698 81.37 106.736 82.3176 106.624 83.2571C106.512 84.1908 106.297 85.1106 106.146 86.0372C106.13 86.0919 106.166 86.1486 106.22 86.1645C106.275 86.1801 106.332 86.1452 106.348 86.0902C106.845 84.9123 107.013 83.6438 107.196 82.3872C107.264 81.9197 107.379 81.4508 107.376 80.9758C107.376 80.8155 107.346 80.6586 107.334 80.4984C107.345 80.3918 107.271 80.2967 107.164 80.2862Z" fill="#070D1C"/>
<path d="M167.144 95.0558C165.545 96.1905 163.828 97.146 162.266 98.3347C160.804 99.447 159.614 100.811 158.385 102.165C157.696 102.924 156.941 103.628 156.338 104.457C156.335 104.46 156.335 104.464 156.338 104.467C156.341 104.47 156.346 104.47 156.349 104.467C156.531 104.357 156.726 104.262 156.9 104.138C157.267 103.876 157.5 103.611 157.812 103.29C158.377 102.707 158.9 102.085 159.435 101.475C159.971 100.864 160.533 100.275 161.121 99.7139C162.413 98.4804 163.949 97.5972 165.384 96.5521C166.009 96.0968 166.612 95.6147 167.187 95.0983C167.2 95.0877 167.197 95.0691 167.187 95.0558C167.176 95.0426 167.158 95.0453 167.144 95.0558Z" fill="#070D1C"/>
<path d="M154.621 17.1126C154.543 17.1427 154.506 17.2364 154.536 17.3142C154.512 17.4197 154.46 17.5243 154.461 17.6325C154.463 17.7209 154.519 17.7924 154.546 17.8766C154.588 18.0072 154.679 18.2727 154.705 18.407C154.761 18.6885 154.769 18.9815 154.79 19.2663C154.83 19.7801 154.854 20.3002 154.822 20.8156C154.744 22.058 154.414 23.2861 154.006 24.4551C153.382 26.239 152.442 27.9795 151.057 29.2935C150.488 29.8337 149.865 30.2384 149.191 30.6302C149.152 30.6476 149.132 30.6978 149.149 30.7365C149.166 30.7752 149.216 30.7963 149.255 30.7789C150.534 30.362 151.546 29.3257 152.362 28.2959C153.96 26.2788 155.054 23.7709 155.363 21.2081C155.442 20.5505 155.523 19.8768 155.469 19.2134C155.443 18.8979 155.374 18.5988 155.31 18.2903C155.257 18.033 155.253 17.9389 155.183 17.6855C155.156 17.5893 155.147 17.4895 155.087 17.4097C155.019 17.3193 154.913 17.2756 154.822 17.2081C154.792 17.1303 154.698 17.0826 154.621 17.1126Z" fill="#FFF7F7"/>
<path d="M95.7653 17.0706C95.5488 17.0623 95.3598 17.2359 95.3517 17.4526C95.3147 17.6599 95.2702 17.8694 95.2454 18.0786C95.1328 19.0359 95.2492 20.066 95.4365 21.0072C95.7063 22.3627 96.1478 23.7133 96.8468 24.9119C97.813 26.5678 99.2036 28.0363 100.728 29.1877C101.385 29.6837 102.099 30.0966 102.807 30.5142C103.991 31.2126 105.219 31.8139 106.465 32.3922C107.427 32.8383 108.41 33.2505 109.403 33.623C109.915 33.8148 110.397 33.9948 110.93 34.1214C110.952 34.1299 110.975 34.1224 110.983 34.1004C110.991 34.0783 110.984 34.0559 110.962 34.0474C110.329 33.7035 109.656 33.4787 108.989 33.2091C108.337 32.9453 107.672 32.6849 107.027 32.4027C105.63 31.7912 104.234 31.121 102.945 30.3017C102.257 29.8654 101.621 29.3533 100.993 28.8376C99.149 27.3229 97.7539 25.5295 96.9741 23.2563C96.5862 22.1253 96.3802 20.9882 96.2849 19.7975C96.2231 19.026 96.217 18.2552 96.1366 17.4844C96.1447 17.2677 95.9818 17.0789 95.7653 17.0706Z" fill="#FFF7F7"/>
</g>
<defs>
<radialGradient id="paint0_radial_2202_936" cx="0" cy="0" r="1" gradientUnits="userSpaceOnUse" gradientTransform="translate(141.362 69.1654) scale(7.33065 7.33467)">
<stop stop-color="#DEA88E"/>
<stop offset="1" stop-color="#EED1BF"/>
</radialGradient>
<radialGradient id="paint1_radial_2202_936" cx="0" cy="0" r="1" gradientUnits="userSpaceOnUse" gradientTransform="translate(109.474 69.5827) scale(8.61716 8.33909)">
<stop stop-color="#DEA88E"/>
<stop offset="1" stop-color="#EED1BF"/>
</radialGradient>
<radialGradient id="paint2_radial_2202_936" cx="0" cy="0" r="1" gradientUnits="userSpaceOnUse" gradientTransform="translate(100.875 157.013) scale(15.5316 15.5401)">
<stop stop-color="#DEA88E"/>
<stop offset="1" stop-color="#EED1BF"/>
</radialGradient>
<radialGradient id="paint3_radial_2202_936" cx="0" cy="0" r="1" gradientUnits="userSpaceOnUse" gradientTransform="translate(121.764 141.066) scale(17.7578 17.7675)">
<stop stop-color="#DEA88E"/>
<stop offset="1" stop-color="#EED1BF"/>
</radialGradient>
<clipPath id="clip0_2202_936">
<rect width="250" height="173" fill="white"/>
</clipPath>
</defs>
</svg>
