<?xml version="1.0" encoding="UTF-8"?>
<svg id="Ebene_1" data-name="Ebene 1" xmlns="http://www.w3.org/2000/svg" xmlns:xlink="http://www.w3.org/1999/xlink" viewBox="0 0 250 173.1">
  <defs>
    <style>
      .cls-1 {
        stroke: #000;
        stroke-miterlimit: 4;
        stroke-width: 1px;
      }

      .cls-1, .cls-2 {
        fill: none;
      }

      .cls-3 {
        clip-path: url(#clippath);
      }

      .cls-4 {
        fill: #ec678a;
      }

      .cls-5 {
        fill: #eed1bf;
      }

      .cls-6 {
        fill: #fff;
      }

      .cls-7 {
        fill: #fff7f7;
      }

      .cls-8 {
        fill: #fff433;
      }

      .cls-9 {
        fill: #a09bab;
      }

      .cls-10 {
        fill: #c2bac6;
      }

      .cls-11 {
        fill: #be5574;
      }

      .cls-12, .cls-13, .cls-14 {
        fill: #c3ada5;
      }

      .cls-15 {
        fill: #070d1c;
      }

      .cls-16 {
        fill: #9b59d0;
      }

      .cls-17 {
        fill: #2d2d2d;
      }

      .cls-18 {
        opacity: .8;
      }

      .cls-18, .cls-19 {
        fill: #dea88e;
      }

      .cls-18, .cls-19, .cls-13, .cls-14, .cls-20, .cls-21, .cls-22, .cls-23 {
        isolation: isolate;
      }

      .cls-19 {
        opacity: .8;
      }

      .cls-13 {
        opacity: .81;
      }

      .cls-14, .cls-21 {
        opacity: .6;
      }

      .cls-20 {
        fill: url(#Unbenannter_Verlauf_3);
        opacity: .65;
      }

      .cls-21 {
        fill: url(#Unbenannter_Verlauf_4);
      }

      .cls-22 {
        fill: url(#Unbenannter_Verlauf_2);
        opacity: .43;
      }

      .cls-23 {
        fill: url(#Unbenannter_Verlauf);
        opacity: .45;
      }
    </style>
    <clipPath id="clippath">
      <rect class="cls-2" y=".1" width="250" height="173"/>
    </clipPath>
    <radialGradient id="Unbenannter_Verlauf" data-name="Unbenannter Verlauf" cx="-148.54" cy="462.47" fx="-148.54" fy="462.47" r="1" gradientTransform="translate(1230.23 3461.23) scale(7.33 -7.33)" gradientUnits="userSpaceOnUse">
      <stop offset="0" stop-color="#dea88e"/>
      <stop offset="1" stop-color="#eed1bf"/>
    </radialGradient>
    <radialGradient id="Unbenannter_Verlauf_2" data-name="Unbenannter Verlauf 2" cx="-152.04" cy="467.95" fx="-152.04" fy="467.95" r="1" gradientTransform="translate(1419.63 3971.88) scale(8.62 -8.34)" gradientUnits="userSpaceOnUse">
      <stop offset="0" stop-color="#dea88e"/>
      <stop offset="1" stop-color="#eed1bf"/>
    </radialGradient>
    <radialGradient id="Unbenannter_Verlauf_3" data-name="Unbenannter Verlauf 3" cx="-160.93" cy="486.5" fx="-160.93" fy="486.5" r="1" gradientTransform="translate(2600.31 7717.38) scale(15.53 -15.54)" gradientUnits="userSpaceOnUse">
      <stop offset="0" stop-color="#dea88e"/>
      <stop offset="1" stop-color="#eed1bf"/>
    </radialGradient>
    <radialGradient id="Unbenannter_Verlauf_4" data-name="Unbenannter Verlauf 4" cx="-162.31" cy="489.19" fx="-162.31" fy="489.19" r="1" gradientTransform="translate(3004.11 8832.93) scale(17.76 -17.77)" gradientUnits="userSpaceOnUse">
      <stop offset="0" stop-color="#dea88e"/>
      <stop offset="1" stop-color="#eed1bf"/>
    </radialGradient>
  </defs>
  <g class="cls-3">
    <g>
      <path class="cls-5" d="m160.93,144.48l-.69-10.36-63.38-1.81c-7.54-1.23-25.57-1.8-26.34,12.62l13.18-.23c-1.08,2.2,4.31,11.2,6,11.6l2.61,9.32,4.57,2.54,1.45,2.21s1.64.79,2.9.99.97-.28,2.11-.19c.68.06,1.52.85,2.21.97,3.33,1.01,4.64-5.94,5.15-7.17,0,0,.06-2.62.06-2.62l1.75,1.75s-.56,5.38-.86,7.23c-.24,1.44,1.11.76,2.25.21,4.45-3.89,3.9-12.96.51-18.94-2.1-3.77-6.85-7.65-6.85-7.65l53.37-.46h0Zm-18.21-59.82l-1.23-2.73c1.6-.21,10.22-16.39,9.73-17.23,4.09.88,4.34-6.13,4.07-7.63,0,0-8.2-14.45-8.2-14.45l-18.97,4.23-27.58-4.05-7.53,10.79c.55,2.52.11,9.4,4.3,9.36.33,4.96,8.03,16.12,9.84,17.4l-.95,5.82-4.38,5.14,19.45,20.5,19.63-20.44,1.82-6.7h0Z"/>
      <g>
        <path class="cls-19" d="m131.6,78.91c-4.35,2.68-6.01,2.66-10.26.4,2.42.65,8.06.98,10.26-.41h0Z"/>
        <path class="cls-18" d="m120.58,78.45c-.18.01,5.61-2.64,6.17-1.81.55-.94,5.63,1.82,5.48,1.85l-3.54-1.05-2.39.17-2.48-.08-3.24.92h0Z"/>
      </g>
      <path class="cls-23" d="m132.7,65.64c9.28-6.19,17.9-9.51,16.34,5.62-5.67,11.07-17.67,5.8-16.34-5.62Z"/>
      <path class="cls-22" d="m117.89,66.84c-.62-2.96-5.42-3.08-5.42-3.08-5.59-2.11-13.72-3.63-11.61,6.59,1.31,10.87,19.92,8.6,17.03-3.51Z"/>
      <path class="cls-20" d="m85.34,151.26l4.19,5.09c.42,2.35,1.68,6.96,2.53,9.2l4.81,2.61c.44,2.15,4.19,3.68,5.99,2.91.89.98,4.09,1.34,5.14.59l2.18-5.08.21-4.27,2.17,2.01c6.58-.76,2.79-10.61,1.8-12.62,0,0-9.98-9.29-9.98-9.29l-7.94-.29-9.1,6.08-.93,3.41-1.06-.35h0Z"/>
      <path class="cls-21" d="m107.8,145.06l-3.79-3.57,11.07-2.21,10.67-.48,4.23-1.52,3.16.71,6.38,4.05-4.38,2.88c-5.16-.04-22.5-.31-27.34.14h0Z"/>
      <g>
        <path class="cls-14" d="m132.23,95.87s-5.15,3.08-8.4,1.72c-6.43-2.68-17.13-12.88-17.13-12.88l.45-4.14,7.76,6.15,8.36,4.35c5.01.61,15.43-6.58,18.12-9.43l1.28,3.06c-2.36,3-7.55,8.69-10.43,11.16h0Z"/>
        <path class="cls-12" d="m149.09,46.32c-12.34,8.79-39.67,2.17-49.76-1.78l1.67-2.62,16.63,3.47,15.76-.08,13.24-2.88,2.46,3.89Z"/>
        <path class="cls-13" d="m89.53,156.54c.55-.02,5.73,6.18,5.15,7.36.36.57,4.42,2.21,5.31,1.22.57,1.85,2.81,3,4.6,1.92.83,1.51,3.88,1.95,5.16.99l-2,3.97-2.53.19-1.89-1.22c-2.06,1.15-5.23-.03-6.14-2.12-.12-.41-5.18-3.47-5.21-3.65l-2.45-8.66h0Z"/>
      </g>
      <path class="cls-10" d="m159.66,144.56l89.71.23c.81-11.34-7.39-21.03-18.97-20.54,0,0-11.66-4.2-19.28-9.02-4.13-2.74-33.11-25.77-40.26-21.84.24-.74-5.85-3.13-5.82-2.75,2.43-3.96-5.41-9.46-10.19-10.57-8.07-1.42-8.54.11-13.04,2.4,3.24,3.33-20.04,21.62-19.66,26.08,0,0-10.65-10.74-15.54-14.68-4.84-3.9-1.46-3.88-.94-5.57,3.2-8.26-18.11-6.85-21.89,6.78-1.1-.99-5.64,1.65-5.89,2.22-8.53-.91-51.82,26.06-54.28,25.71-11.09.78-26.17,6.8-22.54,21.23l70.85.71c-1.09-13.26,17.24-10.18,25.18-10.25l6.09,6.59c6.3-1.9,16.71-2.76,23.27-2.45,1.4-1.82,7.31-1.73,8.71-.39,17.34-1.26,10.78-.66,16.62-.66,5.76,0,5.41-2.18,7.37-.49s.48,7.26.48,7.26h0Z"/>
      <path class="cls-9" d="m122.35,111.77s.14,2.25,3.44,1.26c10.07-2.04,20.1-12.27,26.45-17.8-6.22,6-8.68,10.9-17.36,16.87-3.76,2.09-11.83,6.34-12.85,2.99,0,0,.31-3.32.31-3.32Zm-.42,1.09l-3.23,3.92c-4.89,1.53-13.07-3.71-15.18-6.96,0,0-9.14-9.08-9.14-9.08l-6-4.01c10.82-1.82,20.99,24.77,33.55,16.13h0Zm-56.38,31.44l1.03-4.2,4.37-5,4.8-2.18c-7.56-2.34-10.33,7.19-18.43,9.1-6.65,1.14-7.32,0-12.71.33-2.94.18-11.27,2.17-11.27,2.17,0,0,32.22-.21,32.22-.21Zm64.9-46.83l4.29-2.67c1.71-.9,1.58-.29,3.32-1.41,1.63-.91,11.06-10.12,7.9-12.81l-3.9,1.92-.12,2.68c-2.55,3.13-8.57,9.41-11.48,12.29h0Z"/>
      <path class="cls-4" d="m122.18,48.17l.26,4.72-1.75,3.83,2.84-1.81s1.61,4.57,3.78,4.83c.7-.22-2.43-5.73.98-5.35,0,0,2.58,2.23,2.24,1.26-.58-1.64-.42-7.97-.42-7.97,0,0-7.93.5-7.93.5Zm-20.96-4.42c-.55.29-1.07,10.19-.07,10.82l-1.51-.87.68,3.15c-13.64-10.7-1.33,9.62-10.11-3.67-2.79-.11-3.93-.44-1.69-3.34l-3.78-.21,2.53-4.33c-2.93-4.24-3.25-3.78-2.35-7.5.14-.58,2.45,2.93,3.42,2.98,1.16-.25-.66-3.96,2.16-5.28l10.71,8.24h0Zm45.35.98c1.62.79,4.79,6.24,4.17,8.29l1.09-1.62c.44,1.38,4.99,10.31,3.89,4.77,0,0-.05-1.79-.05-1.79,3.05,2.43,5.04,3.61,3.86-2.01,0,0,5.08-2.66,5.51-3.6s-3.54-.31-3.54-.31l1.64-2.17.74-5.25-5.28-.76,3.93-3.91-4.95-.87-11,9.23h0Z"/>
      <path class="cls-11" d="m130.1,50.95c-1.95-.08-5.87-.36-7.8-.58l-.22-2.07,8.01-.46v3.11h0Zm18.34-4.22c3.3-1.71,9.64-6.49,9.82-11.19l-12.42,8.38,2.6,2.81h0Zm-47.47-1.71c-2.68-.81-9.87-5.73-11.44-7.99l.88-1.81,11.06,7.83-.49,1.97h0Z"/>
      <path class="cls-7" d="m145.43,54.1c-2.86,3.39-7.47,3.26-11.59,1.12-3-.84,3.25-3.06,5.47-3.01,3.06-.03,6.12,1.89,6.12,1.89h0Zm-28.02.14c-.83,1.48-6.51,3.48-9.08,2.18-2.37-.49-3.89-1.64-3.52-2.17.87-1.74,11.73-2.59,12.6-.01h0Z"/>
      <g>
        <path class="cls-15" d="m125.86,48.63c14.66-.6,23.51-2.59,31.72-11.54,2.54-5.9,1.83-18.86-3.25-20.32,0,0-.47-2.81-2.1-4.1C143.35,3.17,131.07-1.31,118.75.33c-14.63,2.27-16.97,9.97-22.37,15.78-4.24-.29-6.39,7.98-6.29,12.76-5.25,14.03,24.24,19.77,35.78,19.76h0Zm29.51,9.08c-.41,3.24-.28,6.64-4.4,6.74,3.44,1.81,5.27-4.21,4.4-6.74h0Z"/>
        <path class="cls-15" d="m151.27,64.77c-4.66,10.46-12.3,22.18-24.25,25.55-4.79.78-3.12,1.21.47.18,11.21-3.11,21.53-14.69,23.79-25.73h0Z"/>
        <path class="cls-15" d="m141.37,81.53c1.28,3.53.25,3.48-1.8,6.3,1.96-1.22,4.18-4.46,1.8-6.3Zm-9.38,14.38c-4.47,3.41-9,8.59-9.83,14.29,1.22-5.79,6.27-10.02,9.83-14.29Z"/>
        <path class="cls-15" d="m149.06,79.45c-2.15.1-4.29.63-5.95,2.05-.33.42-1.3.8-1.03,1.41.98-.21,1.61-1.72,2.84-1.89,6.3-2.84,19.71.64,20.3,8.52.1.32-.59,1.31-.13,1.25,2.69-8-9.94-11.57-16.03-11.34h0Z"/>
        <path class="cls-15" d="m161.46,89.81c-.9,0-4.21.24-4.06,1.03,4-.75,8.37-.4,11.91,1.76,5.17,2.8-3.2-3.79-7.85-2.79h0Z"/>
        <path class="cls-15" d="m172.46,93c-1.26-.36-6.33,2.07-2.82.88,7.58-1.93,14.51,3.51,20.62,7.26,13.13,8.95,26.85,20.13,42.21,23.71-8.7-5.2-20.06-8.47-28.57-15.06-9.91-6.17-19.15-16.24-31.43-16.8h0Z"/>
        <path class="cls-15" d="m229.51,124.1c-9.97.36-20.53,3.26-30.32,5.02-10.29,2.36-27.51-3.99-34.35,5.27,11.49-7.67,26.95-1,39.8-5.25,16.85-3.92,45.41-10.86,44.45,15.61,3.08-10.89-8.03-22.01-19.59-20.65Z"/>
        <path class="cls-15" d="m166.87,132.06c-.6.11-1.41.38-1.34,1.12-.14.11.02.34.17.22,5.48-.84,3.74,8.73,1.46,11.39,3.52-1.76,4.55-12.25-.3-12.74h0Z"/>
        <path class="cls-15" d="m166.26,134.22c-2,1.64-8.58-.81-8.66,2.55,5.77,2.81-3.12,10.52,9.67,8.14,1.01-1.18-5.77.39-6.54-.95-1-2.44,1.03-6.78-2.62-7.69,2.12-2,6.81,0,8.15-2.04Z"/>
        <path class="cls-15" d="m177.68,144.41c.39.27-12.94-.67-10.46.68,20.68.33,51.76-.04,72.5-.03,2.23.02,7.26.02,9.47-.04-.68-.52-2.71-.11-3.87-.26-18.55-.11-48.99-.35-67.65-.35h0Zm14.38-42.91c-8.74,1.39-16.01,22.13-12.11,27.92-.05-9.8,3.08-20.84,11.72-26.42.49-.34,1.26-1.1.39-1.5Zm-39.6-6.18c-8.35,7.56-15.4,18.53-27.4,20.32-1.69.31-2.59.21-2.68-1.71.05-.17-.22-.25-.27-.07-2.55,6.07,8.87.93,11.04-.35,7.47-4.51,13.8-12.08,19.31-18.19h0Z"/>
        <path class="cls-15" d="m126.76,111.26c-.29.11-.42.44-.31.72,3.81,7.77,6.91,16.84,4.94,25.31,3.76-8.1-1.11-17.83-3.91-25.72-.11-.29-.44-.42-.72-.31Zm-45.24-16.57c15.28,1.77,22.74,25.14,37.69,22.06-15.88,1.9-21.48-22.59-37.69-22.06h0Z"/>
        <path class="cls-15" d="m117.99,112.16c-7.36,5.32-5.22,18.98-3.74,26.81.83,1.35,1.56-.12,1.08-1.14-1.77-10.46-3.04-17.39,2.66-25.67Zm-12.73-24.01c-4.25,3.34,3.53,7.36,5.73,9.5-1.37-2.25-5.03-4.12-6.41-6.48-.97-1.2,1.81-2.55.68-3.01h0Zm-5.69-5.34c-7.01-.12-14.29,5.82-15.81,12.3,3.82-4.88,6.68-11.18,14.24-11.74,2.89-.22,7.97-.15,8.02,3.6,1.93-3.08-4.19-4.3-6.45-4.15h0Zm-17.53,11.67c-1.05-.05-4.4,1.75-4.22,2.75,1.32-.36,2.52-2.34,4.31-2.26,1.39-.01,1.05-.43-.09-.49Z"/>
        <path class="cls-15" d="m81.11,96.78c-11.64-.21-21.47,7.54-31.36,12.7-8.86,5.24-18.37,9.48-27.7,13.65,19.45-4.45,45.36-26.44,59.06-26.36Z"/>
        <path class="cls-15" d="m33.33,122.2c-14.01.39-36.65,2.01-32.63,21.69.92.95.6-1.6.55-2.12-1.61-14.32,14.26-18.41,25.59-18.62.74-.18,6.91-.28,6.49-.94Zm-5.65,2.69c-.89.05-6.98-.23-6.39.55,6.73.12,13.73-.25,19.97,2.81-2.9-2.92-9.21-3.17-13.58-3.36h0Z"/>
        <path class="cls-15" d="m31.31,128.04c-.31.58,1.72.39,2.23.57,1.41.23,3.88.36,5.32.51,4.36.57,9.24.66,13.64.77,4.37.57,9.4.62,13.84.47,4.91-.45,10.38-1.6,14.46,2.03,1,.44,1.84,2.5,2.97,1.91.38-1.39-4.42-4.12-5.71-4.63-6.44-2.29-13.39.91-20.04-.17-8.78-.91-17.9-1.19-26.71-1.46h0Z"/>
        <path class="cls-15" d="m49.48,109.88c-2.86.87,3.94,4.98,4.55,6.44,3.64,3.7,6.56,8.42,7.29,13.47,4-3.54-7.82-18.8-11.83-19.92Zm33.85,23.98c-5.41.48-12.65,4.52-12.05,10.67.24.77.91.15.9-.4-.31-5.65,6.03-9.71,11.17-9.81.28-.01.28-.48-.02-.46h0Zm-5.51-1.16c-6.14.16-12.78,5.31-12.57,11.79.91,1.21.74-1.7,1.01-2.23.83-2.7,2.54-5.06,4.87-6.66,3.28-2.63,7.82-2.95,11.63-1.71-1.22-1.1-3.32-1.14-4.94-1.19h0Zm-17.96-.08c-3.4,1.49-1.9,6.55-5.54,8.02-.43.39-1.83.91-1.37,1.6,6.31-3.4,3.14-5.95,6.9-9.62h0Z"/>
        <path class="cls-15" d="m1.31,143.21c-3.17,1.88,5.1,1.25,5.55,1.4,21.8.36,51.71.05,73.47.53.84-.05,2.21.18,3.03-.04.59-.49-1.17-.52-1.48-.5-25.13-.99-55.43-.79-80.56-1.39h0Zm81.96-9.2c-.92.54,2.99.44,3.01.57,2.1.16,7.22.3,9.25.32,2.35-.3,4.58,3.67,6.24,4.92,1.99,2.14,6.26,6.46,8.41,8.38,1.2,1.3,3.7,2.86,4.37,4.53,1.94,5.2,3.51,11.82.42,16.84-.48,1.45-3.42,4.16-3.2,1.04-.11-2.3,1.23-4.6.86-6.82-.19-.23-1.81-1.85-1.78-1.31.43,1.05,1.89,1.54,1.24,2.84-.04,1.67-1.54,5.58-.19,6.94,7.94-.04,5.4-15.97,2.83-20.59-4.94-5.02-11.15-10.66-16.09-15.76-1.52-2.05-4.01-1.27-6.2-1.41-1.96,0-7.26-.28-9.16-.5h0Zm25.09,20.34c1.52,4.37,2.97,9.71.89,14.4-1.01,3.08-2.83,4.33-5.68,2.21.35-1.2,1.05-2.66,1.62-3.78,1.71-2.93.22-7.86-1.91-10.03,1.78,5.61,3.36,6.87-.02,12.72-.82,1.78,1.41,2.63,2.84,2.61,6.28-1.42,5.45-14.14,2.26-18.12h0Z"/>
        <path class="cls-15" d="m97.01,168.31c-.84,2.59,5,4.22,6.45,2.64-1.71.31-4.18.34-5.41-1.55-.37-.32-.42-1.26-1.04-1.09h0Zm2.6-8.05c-.89,2.72,2.77,6.7-2.81,7.86,4.31.83,4.33-5.35,2.81-7.86Z"/>
        <path class="cls-15" d="m89.21,157.06c1.61,5.19,1.65,9.69,7.7,11.36-.91-1.61-3.47-1.47-4.49-3.13-1.87-2.24-.73-6.78-3.21-8.23h0Zm-5.29-15.81c-3.56,10.54,8.37,14.88,10.84,23.34-.34-7.6-11.68-11.48-10.61-19.92,0-.95.06-2.54-.23-3.43Zm73.67-4.97c-5.94,2.12-12.95,1.14-19.17,1.53-3.18.56-6.36-1.3-9.36-.45-2.82,1.63-7.31.8-10.46,1.14-4.79.25-10.17,1.29-14.86,2.39-.2.05-.33.26-.29.47-.15.79,5.13-.88,5.36-.77,0,0,7.18-1.1,7.18-1.1,2.39-.15,7.89-.53,10.21-.42,1.53-.09,2.82-1.26,4.33-1.39,1.93,1.09,29.05.96,27.06-1.38Zm-47.31,8.21c-16.9,1.61,47.9.65,49.06.65.42.05,4.22-.06,1.94-.46-16.63-.23-34.37-.11-51-.19Z"/>
        <path class="cls-15" d="m124.19,139.67c-4.15.19-10.7,1.39-14.74,2.42-3.33.59-.82,3.79,1.26,2.87-4.76-1.59-1.51-2.48,1.41-3.16,3.3-.98,9.05-1.34,12.07-2.12h0Zm-27.07-76.76c2.66,12.58,14.1,24.24,26.1,28.21-11.67-5.49-22.29-15.53-26.1-28.21h0Z"/>
        <path class="cls-15" d="m93.73,57.77c-.98,2.03,1.58,5.06,3.58,5.24-.69-1.04-2.64-1.37-3.04-2.88-.41-.69,0-1.87-.54-2.37h0Z"/>
        <path class="cls-15" d="m90.22,35.26c-1.87.97-1.89,3.32-1.72,5.15-1.12-.48-2-1.54-2.82-2.4-2.46-1.3-1.35,4.91-.13,5.79,1.97,1.48.81,3.15-.46,4.68-1.74,2.15,2.11,1.48,3.26,1.39-2.03,2.76-1.58,3.2,1.72,3.51.46.67,4.05,6.94,3.83,3.66-.13-.83-.33-1.8-.26-2.64,0-.35.15-.55.44-.68-.38-.56-.93.17-.88.65.04,1.08.38,2.18.42,3.27-1.43-1.16-2.34-3.14-3.38-4.6-1.01-.06-2.01-.19-2.89-.73,2.56-4.44,1.11-2.05-2.27-2.89,5.72-5.95-2.18-5.22.02-11.21,1.17.9,1.89,2.69,3.55,2.75.71-.18.32-1.31.36-1.81-.03-.89.31-1.76.84-2.47.18-.26,1.5-1.72.36-1.41h0Zm67.39-.28c-1.89,1.03,3.3,1.04,3.87,1.3.98.19.64.36.05.88-.61.49-2.07,1.58-2.71,2.07-2.85,2.67,3.36,1.5,4.55,1.93.14,1.6-.24,3.49-.84,4.94-2.82,3.06-.71,2.93,2.12,2.55-1.07,1.38-3.54,1.97-4.79,3.19-1.87,1.48,1.46,6.89-2.93,3.34-3.49-2.92.68,1.65,2.22,1.51,1.14-.18.52-1.83.68-2.61-.25-2.93,3.24-3.05,4.98-4.61,2.03-2.48-2.05-.85-2.96-1.3.11-.67.8-1.16,1.2-1.7.75-1.42.9-3.24,1.1-4.84-.29-2.38-3.85-.52-5.38-1.46.97-1.08,3.35-2.14,3.97-3.48-.36-2-3.6-1.48-5.13-1.73h0Zm-28.63,42.3c-2.34.28-4.81-.41-7.04.58-.14.15-2.61.58-2.38,1.01.48.44,1.93-.49,2.51-.57,2.24-.95,4.63-.03,6.86-.74,4.38,1.33,4.28.88.04-.28h0Z"/>
        <path class="cls-15" d="m132.36,78.5c-5.14,2.17-7.33,1.17-12.13.48,2.72,1.99,9.44,1.35,12.13-.48h0Zm-1.87-7.86c-1.03.67-.61.31-1.03.67-.26.22.57-.36.85-.56-.43.27-1.1.65-1.59.93.93-.54-.86.49-.17.48,0,0,1-.72,1-.72.33-.25-1.3,1.07-.29.32.93-.68.88-.61,1.28-1.05.05-.03-.01-.09-.05-.06Zm-8.69-.29c-.4-.04.24.41.29.48.97.7,1.33.98,1.57,1.41,1.32.19-1.2-1.49-1.47-1.67.6.46,0,0-.38-.21h0Zm6.84-12.9c-.73,2.34.04,6.38.38,8.7.12-1.86-.27-4.45-.21-6.34-.09-.2.32-2.42-.17-2.36Zm10.74-5.81c-1.36-.49-7.73,2.13-6.44,3.1,3.24-3.08,7.96-2.5,11.68-.61.39.31.78.17,1.18-.05.03.02.05-.04.02-.05-.35-1.44-4.99-2.24-6.44-2.38h0Z"/>
        <path class="cls-15" d="m140.57,53.34c-1.24.26-1.85,3-1.56,3.53,1.31.91,5.9-1.84,6.25-2.6-1.57-.72-2.53-2.09-4.69-.93h0Zm-28.81-1.28c-.89-.1-9.79.87-6.81,2.13,4.67-1.66,8.37-2.46,12.64.19-1.03-1.62-3.88-2.19-5.83-2.33h0Z"/>
        <path class="cls-15" d="m111.27,56.76c-.59-.79.3-3.59,1.75-3.86,1.57-.45,2.99.74,4.33,1.51-.46,1.18-5.03,2.84-6.08,2.34Zm-6.06-9.47c-1.42,0-1.41,2.24.02,2.21.65.03,1.46-.07,2.11-.08,4.18-.23,9.59-.98,12.4,2.83.04.2.34.12.3-.07.42-4.67-11.51-4.69-14.83-4.88h0Zm37.25.22c-2.94.19-9.04.32-9.47,3.86,2.8-3,7.78-2.27,11.58-1.86.5.13.86.26,1.24-.19.46.2.75-.52.29-.7-.29-1.37-2.51-.9-3.64-1.11h0Zm-35.3,32.88c-.73,1.57-.62,4.12-.94,5.88.74-1.55,1.42-4.23.94-5.88h0Zm59.98,14.77c-3.94,2.33-8.05,5.79-10.81,9.4,1.77-1.01,3.27-3.39,4.78-4.74,1.73-1.68,4.49-3.02,6.02-4.66Z"/>
      </g>
      <path class="cls-7" d="m154.62,17.22c-.08.03-.12.12-.09.2,1.03,4.91-.97,10.77-5.39,13.42,4.48-1.76,7.72-9.12,5.67-13.53-.03-.08-.12-.13-.2-.1h0Zm-58.86-.04c-.49-.03-.44.69-.52,1.01-.69,8.33,7.33,13.08,14.16,15.54,0-.06,1.73.69,1.56.42-9.97-4.04-13.84-6.07-15.2-16.98h0Z"/>
      <path class="cls-8" d="m151.43,115.91l3.03-.29,2.96.71,2.78,3.2-11.97-.84s3.2-2.78,3.2-2.78Z"/>
      <path class="cls-17" d="m150.59,127.88l2.96.71,3.03-.29,3.2-2.78-11.97-.84,2.78,3.2h0Z"/>
      <path class="cls-16" d="m147.51,121.65l12.97.91-.71,2.96-11.97-.84-.29-3.03h0Z"/>
      <path class="cls-6" d="m147.51,121.65l12.97.91-.29-3.03-11.97-.84-.71,2.96h0Z"/>
      <path class="cls-1" d="m154.45,115.62c8.42.47,7.5,13.68-.91,12.97-8.42-.47-7.5-13.68.91-12.97Z"/>
    </g>
  </g>
</svg>