<?xml version="1.0" encoding="UTF-8"?>
<svg id="Ebene_1" data-name="Ebene 1" xmlns="http://www.w3.org/2000/svg" xmlns:xlink="http://www.w3.org/1999/xlink" viewBox="0 0 165 584">
  <defs>
    <style>
      .cls-1, .cls-2, .cls-3 {
        fill: none;
      }

      .cls-2 {
        stroke: #fff7f7;
        stroke-linecap: round;
        stroke-linejoin: round;
        stroke-width: 3.81px;
      }

      .cls-4 {
        clip-path: url(#clippath);
      }

      .cls-5 {
        fill: #ec678a;
      }

      .cls-6 {
        fill: #eed1bf;
      }

      .cls-7 {
        fill: #fff;
      }

      .cls-8 {
        fill: #fff7f7;
      }

      .cls-9 {
        fill: #fff433;
      }

      .cls-10 {
        fill: #a09bab;
      }

      .cls-11 {
        fill: #c2bac6;
      }

      .cls-12 {
        fill: #c3ada5;
      }

      .cls-13 {
        fill: #070d1c;
      }

      .cls-14 {
        fill: #9b59d0;
      }

      .cls-15 {
        fill: #2d2d2d;
      }

      .cls-16 {
        fill: #598dac;
      }

      .cls-17 {
        fill: #4d7796;
      }

      .cls-18 {
        opacity: .2;
      }

      .cls-19, .cls-20, .cls-21, .cls-22, .cls-23 {
        opacity: .8;
      }

      .cls-24 {
        fill: url(#Unbenannter_Verlauf_3);
      }

      .cls-25 {
        fill: url(#Unbenannter_Verlauf_4);
      }

      .cls-26 {
        fill: url(#Unbenannter_Verlauf_6);
      }

      .cls-27 {
        fill: url(#Unbenannter_Verlauf_5);
      }

      .cls-28 {
        fill: url(#Unbenannter_Verlauf_7);
      }

      .cls-29 {
        fill: url(#Unbenannter_Verlauf);
      }

      .cls-20 {
        fill: url(#Unbenannter_Verlauf_9);
      }

      .cls-20, .cls-21, .cls-22, .cls-23 {
        isolation: isolate;
      }

      .cls-21 {
        fill: url(#Unbenannter_Verlauf_8);
      }

      .cls-22 {
        fill: url(#Unbenannter_Verlauf_2);
      }

      .cls-3 {
        stroke: #000;
      }

      .cls-23 {
        fill: url(#Unbenannter_Verlauf_10);
      }
    </style>
    <clipPath id="clippath">
      <rect class="cls-1" width="165" height="584"/>
    </clipPath>
    <radialGradient id="Unbenannter_Verlauf" data-name="Unbenannter Verlauf" cx="-182.02" cy="693.1" fx="-182.02" fy="693.1" r="1" gradientTransform="translate(1218.3 4609.06) scale(6.52 -6.52)" gradientUnits="userSpaceOnUse">
      <stop offset="0" stop-color="#dea88e"/>
      <stop offset="1" stop-color="#eed1bf"/>
    </radialGradient>
    <radialGradient id="Unbenannter_Verlauf_2" data-name="Unbenannter Verlauf 2" cx="-191.32" cy="698.68" fx="-191.32" fy="698.68" r="1" gradientTransform="translate(1784.95 6446.83) scale(9.08 -9.08)" gradientUnits="userSpaceOnUse">
      <stop offset="0" stop-color="#dea88e"/>
      <stop offset="1" stop-color="#eed1bf"/>
    </radialGradient>
    <radialGradient id="Unbenannter_Verlauf_3" data-name="Unbenannter Verlauf 3" cx="-195.83" cy="701.39" fx="-195.83" fy="701.39" r="1" gradientTransform="translate(2285.55 8049.49) scale(11.22 -11.22)" gradientUnits="userSpaceOnUse">
      <stop offset="0" stop-color="#dea88e"/>
      <stop offset="1" stop-color="#eed1bf"/>
    </radialGradient>
    <radialGradient id="Unbenannter_Verlauf_4" data-name="Unbenannter Verlauf 4" cx="-195.2" cy="701.01" fx="-195.2" fy="701.01" r="1" gradientTransform="translate(2203.87 7780.78) scale(10.86 -10.86)" gradientUnits="userSpaceOnUse">
      <stop offset="0" stop-color="#dea88e"/>
      <stop offset="1" stop-color="#eed1bf"/>
    </radialGradient>
    <radialGradient id="Unbenannter_Verlauf_5" data-name="Unbenannter Verlauf 5" cx="-177.15" cy="690.18" fx="-177.15" fy="690.18" r="1" gradientTransform="translate(1107.34 3930.83) scale(5.68 -5.68)" gradientUnits="userSpaceOnUse">
      <stop offset="0" stop-color="#dea88e"/>
      <stop offset="1" stop-color="#eed1bf"/>
    </radialGradient>
    <radialGradient id="Unbenannter_Verlauf_6" data-name="Unbenannter Verlauf 6" cx="-163.33" cy="681.89" fx="-163.33" fy="681.89" r="1" gradientTransform="translate(784.98 2844.99) scale(4.16 -4.16)" gradientUnits="userSpaceOnUse">
      <stop offset="0" stop-color="#dea88e"/>
      <stop offset="1" stop-color="#eed1bf"/>
    </radialGradient>
    <radialGradient id="Unbenannter_Verlauf_7" data-name="Unbenannter Verlauf 7" cx="-196.83" cy="701.99" fx="-196.83" fy="701.99" r="1" gradientTransform="translate(2448.86 8320.62) scale(11.83 -11.83)" gradientUnits="userSpaceOnUse">
      <stop offset="0" stop-color="#dea88e"/>
      <stop offset="1" stop-color="#eed1bf"/>
    </radialGradient>
    <radialGradient id="Unbenannter_Verlauf_8" data-name="Unbenannter Verlauf 8" cx="-148.09" cy="702.58" fx="-148.09" fy="702.58" r="1" gradientTransform="translate(-616.2 4953.85) rotate(14.39) scale(3.59 -6.94)" gradientUnits="userSpaceOnUse">
      <stop offset="0" stop-color="#dea88e"/>
      <stop offset="1" stop-color="#eed1bf"/>
    </radialGradient>
    <radialGradient id="Unbenannter_Verlauf_9" data-name="Unbenannter Verlauf 9" cx="-186.66" cy="695.9" fx="-186.66" fy="695.9" r="1" gradientTransform="translate(1482.49 5391.56) scale(7.59 -7.59)" gradientUnits="userSpaceOnUse">
      <stop offset="0" stop-color="#dea88e"/>
      <stop offset="1" stop-color="#eed1bf"/>
    </radialGradient>
    <radialGradient id="Unbenannter_Verlauf_10" data-name="Unbenannter Verlauf 10" cx="-173.49" cy="688" fx="-173.49" fy="688" r=".99" gradientTransform="translate(966.26 3680.01) scale(5.18 -5.18)" gradientUnits="userSpaceOnUse">
      <stop offset="0" stop-color="#dea88e"/>
      <stop offset="1" stop-color="#eed1bf"/>
    </radialGradient>
  </defs>
  <g class="cls-4">
    <g>
      <path class="cls-8" d="m30.54,473.36l-3.4,5.02.65,3.46c2.7,2.7,16.77,9.73,20.32,11.63,4.05,3.45,13.54,11.93,17.58,15.57l2.68-5.53-17.19-17.58-20.64-12.57h0Zm108.23,95.24c2.08,17.98-29,14.39-37.37,11.85-3.78-.86-14.58-5.38-18.3-6.89,0,0-13.42-8.26-13.42-8.26,0,0-4.94-4.93-4.94-4.93l1.16-5.26,8.32,6.62,11.94,6.53,16.73,6.01c12.22,2.13,23.3,5.29,34.98-3.51"/>
      <path class="cls-13" d="m68.61,532.78l-2.05.85c.75,6.64.08,15.19-1.09,21.42,10.63,11.66,40.23,22.96,55.97,22.18,28.57-3.92,16.26-17.49-.23-24.78-4.49-3.32-15.54-14.37-19.57-18.49,0,0-14.28,3.22-18.2,4.41-6.08,2.28-11.76-1.13-15.28-4.52m-27.82-77.45l-3.56,3.21-7.32,14.55c.53,3.3,18.63,13.08,21.72,14.11,3.2,1.95,17.3,16.32,17.3,16.32l8.52-23.52-7.51-9.52s-29.15-15.15-29.15-15.15Z"/>
      <path class="cls-11" d="m99.25,573.59c3.31,1.21,6.74,2.02,10.23,2.48-1.63-1.16-4.11-9.52-3.35-11.36,7.3-.88.76-7.35-1.27-8.02,0,0-18.45-14.01-18.45-14.01l-2.39-4.49c-.43.55-6.88,1.13-7.04.71-.99,4.29,10.89,15.07,12.53,15.72,0,0,9.99,8.96,9.99,8.96,0,0-.56,3.99-.51,5.28m27.04-13.72c-4.89,4.73-25.2-17.53-27.08-19.53.69-.33,2.07-1.04,2.75-1.4l10.62,10.47m-61.62-78.97c.3,13.46,13.12,22.39,20.8,31l2.93-6.57c-.48-.6-18.06-16.63-16.52-23.01l-2.26-1.69"/>
      <g>
        <path class="cls-2" d="m82.39,540.91c4.63-.6,13.64-4.52,17.86-3.69"/>
        <path class="cls-2" d="m101.18,535.66c-3.68,3.71-9.47,6.17-12.67,10.32m-1.87,1.22c5.11-2.67,10.41-4.52,15.82-6.01m3.06-1.46c-3.48,4.51-8.56,8.25-11.94,12.62m-.38.42c3.75-2.52,11.8-5.44,16.25-6.67m2.21-.36c-2.06,3.63-5.89,9.03-9.1,11.93m-.38.73c5.66-1.21,9.17-6.94,15.24-7.72m-60.99-78.75c5.08.28,20.2,1.95,15.11,2.12m-.62,0c-1.97,2.11-6.36,4.94-7.7,7.47"/>
        <path class="cls-2" d="m63.25,481.32c3.37-.82,8.34-2.38,11.82-1.8m1.22-.44c-1.35,2.55-4.87,6.5-7.04,8.05m.89.33c.11-.15,3.24-.62,3.85-.3"/>
      </g>
      <path class="cls-11" d="m5.3,163.74c1.5-8.8,9.89-24.69,22.24-23.54,0,0,.46-4.1,3.51-7.87,1.61-1.63,12.62-12.48,10.95-4.13,1.48-1.1,27.32,11.3,26.61,11.6,2.62-2.35,7-11.78,4.14-16.84l5.82-8.27,4.96.99c.27-1.38,3.5-4.38,5.21-4.05,1.56-4.61,3.98-7.88,9.54-7.65.64-2.86,6.33-9.09,9.86-9.18-.33-9.27,10.68-9.8,15.57-10.36l-.17-13.49c-6.8-7.06-6.01-15.08-5.18-23.62-.57-1.74-4.86-5.84-2.94-7.84,1.08-.47.03,1.1,1.73,1.6,3.86,1.24,22.72-1.63,19.55-8.45l2.83.36s5.7,5.4,5.6,6.25c-.47,3.79,5.19,5.81,7.72,9.36,8.08,11.37,10.26,40.94,10.26,40.94-3.12,13.16-23.03,44.67-35.67,52.76.92,5.51,6.4,113.48,10.81,114.66-27.31-1.46-71.9,7.65-93.59,27.46l-1.4-4.94c-3.42.98-6.29-9.54-6.83-10.96-25.38,6.93-30.09-24.05-32.18-38.48,0,0-2.3-19.58-2.77-33.04s.88-20.81.88-20.81"/>
      <g>
        <path class="cls-10" d="m127.26,142.15c-3.86-.14-10.02-10.2-10.34-12.28,18.03-2.09,19.1-7.19,26.73-21.7,3.51-5.53,8.63-11.05,11.36-13.36-10.43,3.66-22.99-4.78-25.69-12.48,7.06,7.85,15.49,11.92,25.98,7.28,3.37-8.77-2.44-40.9-11.85-47.83.29-1.6-2.42-6.3-4.07-6.75l-.06-1.48c2.1.52,5.88,4.71,5.41,7.3,13.74,6.62,17.33,35.03,18.6,48.54-8.39,21.02-18.29,37.71-36.07,52.76h0Zm-53.33-13.82c1.49-3.21,5.63-6.02,9.43-3.78-.2-.17,4.4-8.34,6.1-7.66-.55-2.08,1.31-10.53,3.98-11.9l-2.36,1.49-2.21,4.83-3,1.13-2.17,3.73-2.14-1.4-3.47-.29-5.13,8.45m-40.31,86.84c3.76-9.66,1.4-35.31-1.43-44.88,4.57,5.01,13.43,29.05,11.92,36.77,0,0-4.89,6.91-4.89,6.91m-14.18,58.89c6.84-5.7,14.26-15.68,14.26-15.68l11.01-13.85,11.47-19.09,1.21-.1c.74-1.46,2.64-4.39,3.59-5.75,0,0,.6-3.14.6-3.14l2.16.28,1.71-2.94,1.4,1.08,1.62,3.1-.12,1.67c-.7,1.25-3.16,4.81-2.88,6.31,0,0,1.13,4.17-3.35,8.43-4.46,4.24-10.93,11.75-10.93,11.75l-6.87,14.46-7.92,10.5s-8.92,5.02-8.92,5.02"/>
        <path class="cls-10" d="m42.98,263.02c5.43-3.79,19.43-13.61,23.5-18.66,6.58-3.73,6.6-3.29,10.75-9.82,8.02-3.78,21.03-6.18,28.92-10.27l1.97-4.74,1.1-8.04c-.48-.29-7.86-1.08-8.61-1.19,0,0-8.07.97-8.07.97l3.56-1.96c1.78-.22,7.42-.31,8.75-1.77l-1.41-1.45c-4.51-1.49-11.06-.03-15.46,1.29,0,0-13.69,10.42-13.69,10.42-2.91,4.02-14.05,16.01-17.58,19.83m59.92.35c-10.1-.34-20.13,1.4-29.21,5.95-1.31,1.02-9.11,2.67-8.38,4.45,3.79,1.91,13.79-5.56,18.63-6.39,6.54-2.1,13.53-2.56,20.36-2.67,5.01-.32,1.04-1.6-1.41-1.33Zm-52.78,28.37c-.09-.08-.24-.08-.32.01-1.97.15-3.2,1.91-4.46,3.24-4.18,4.38-9.06,9.67-15.33,10.45-.24-.07-.35.31-.1.37,3.95,3.72,19.94-9.42,20.22-13.76.08-.09.08-.23-.01-.31h0Zm20.98-145.03c-.41-.03-.82.11-1.22.17-.18-.27-.58.02-.4.28-1.74,2.15,1.5,5.28.47,8.21-.61,4.8-3.1,9.12-5.04,13.49-.25.33-.19.8.14,1.06,6.19-1.42,11.66-18.86,6.05-23.21h0Z"/>
        <path class="cls-10" d="m32.97,138.56c-1.73.21-3.91.27-4.92,1.92-.62.15-.35,1.11.25.94,1.67.88,3.72.42,5.54.57,2.75.09,5.77,1.07,8.35,1.99,8.34,3.4,17.94,10.31,27.35,7.41.37-.14,1.72-.83.75-1.04-13.73,1.56-23.79-12.02-37.33-11.8Zm66.8-36.65c-3.37,4.33-1.18,10.28-.33,15.13,1.25-4.81-1.18-9.83.9-14.5.19-.35-.2-.77-.56-.63Z"/>
      </g>
      <g>
        <path class="cls-6" d="m137.11,35.14c-5.29-5.81-3.58-14.86-6-22.59-2.65-5.69-3.87-8.67-8.58-6.87-1.53-1.77-5.11-1.91-6.95-1.42l-1.78-1.88c-1.06-.31-5.77-.79-5.73,2.01l-3.22-2.68c-2.94-1.03-4.51,1.58-4.63,3.88,0,0-2.35-1.81-3.26-2.09-.83-.25-4.16-.49-4.38.86s2.33,3.89,2.33,3.89l4.42,6.44,3.93,6.39c.19,1.23,5.12,10.13,8.67,9.17l4.21,9.73s-.05,1.83,4.04,1.63c3.15.27,16.31-2.4,16.93-6.46h0Zm-68.74,105.19c3.45-4.39,6.73-10.8,4.55-17.02,7.8-11.5,13.46-29.14,13.37-42.35l-12.07,1.84-14.72-.32c-8.09-1.38-24.41-2.35-32.61-2-.53.71-1.95,12.9,1.11,14.02-.22,2.5.84,8.17,4.96,8.38-.36-.38,11.44,22.36,8.52,25.25,0,0,10.24,3.26,13.46,4.81m-12.87,320.98l-2.15,3.92c2,2.19,12.17,11.02,15.66,7.93,0,0-6.46-4.2-8.85-6.41m20.89,74.61l1.14-2.63,4.75,3.49,9.48,3.68c-4.49,2.37-12.71-1.07-15.38-4.54h0Z"/>
        <path class="cls-6" d="m67.65,211.17l2.17-3.52c7.12-.51,12.81-7.97,17.3-12.8l2.47-.04,5.17-2.53,6.35-9.37-.49-9.39c-2.5-1.98-11.82-5.34-18.13-.23,2.28-3.36,9.48-6.29,13.62-4.65,5.5.5,3.35-3.45.76-4.63-6.61-3.71-17.37,2.37-25.49,6.98-11.45,9.92-8.01,16.3-16.18,22.65l-.15,3.69,7.49,9.68,5.14,4.17Z"/>
      </g>
      <path class="cls-12" d="m33.41,104.61c5.18,8.05,28.6,43.78,40.41,23.13l-.51-4.78-5.66,4.54-7.58-1.12-9.95-4.45-8.13-7.1-8.58-10.22h0Zm31.83,104.01l3.16-3.68c4.95-.38,14.01-5.5,17.19-8.78-1.97,3.02-10.47,11.65-15.43,11.29l-2.44,3.39-2.49-2.23Z"/>
      <g class="cls-19">
        <path class="cls-29" d="m37.67,91.17c.83-12.28-12.68-11.56-11.67-.67,4,13.5,13.54,14.58,12.29-2.36"/>
        <path class="cls-22" d="m52.62,103.71c3.98-.4,2.76-2.71,1.46-7.73-1.65-6.38-24.36,2.94-11.36,13.73,9.83,8.15,18.72-6.34,11.57-14.98"/>
        <path class="cls-24" d="m84.81,193.91c11.29,3.01,28.56-25.25.43-21.03-7.11,1.07-8.79,8.91-5.68,14.5"/>
        <path class="cls-25" d="m78.85,174.87c4.47-1.6,7.2-5.55,11.87-7.11,14.52-4.84-8.24-2.72-14.78,1.78-4.97,3.42-.47,6.97,3.91,4.05"/>
        <path class="cls-27" d="m105.68,12.55l-3.96-5.27c-13.6-17.22-2.26,20.61,5,7.89"/>
        <path class="cls-26" d="m103.98,10.36c-1.46-1.15-5.39-9.97-.41-8.62,7.54,2.05,7.48,15.04,1.79,10.46"/>
        <path class="cls-28" d="m110.55,12.79c-8.82-16.83,21.33-10.58,21.04,3.71-.34,16.77-22.29,6.42-23.66-4.84"/>
        <path class="cls-21" d="m81.54,101.47c1.55.09,1.52-1.68,1.96-5.4.56-4.73-9.57-.21-6.73,8.75,2.15,6.78,8.11-2.76,7.04-9.63"/>
      </g>
      <path class="cls-16" d="m79.98,414.67c1.32,10.24-6.93,53.37-8.87,57.7-9.87-.93-27.77-11.19-33.02-23.87,1.64.03,39.08-51.48,38.69-57.6,0,0,3.51,13.62,3.2,23.77Zm15.35,122.46c-10.56,5.03-27.96-3.5-32.75-12.31-.07-12.46,8.65-23.38,16.29-50.49,4.04-12.18,6.63-41.26,17.25-53.99-14.55-30.85-22.56-38.62-41.33-78.92-10.98-31.85-9.8-32.93-9.33-50.51l7.32-5.97c15.95,24.82,32.44,23.48,53.29,7.41,22.41,2.15,21.08-11.59,42.6-8.48,10.32,10.06-.33,54.55-2.2,59.74-1.59,9.72-5.47,33.8-6.19,43.29,4.4,12.33,12.04,24.06,8.91,39.85-9.46,31.85-29.09,67.48-41.7,104.05"/>
      <path class="cls-17" d="m79.62,407.33l-2.8-16.39,2.25-3.64,17.03,33.29c-7.87,10.28-14.64,39.15-14.66,45.53,0,0-4.77,7.83-10.43,6.14-2.57-.77,5.35-25.98,6.01-30.26,1.66-4.84,3.91-31.41,2.6-34.67h0Zm50.01-69.02c1.44,8.42,8.68,27.33,12.01,35.35,0,0-1.32,13.36-1.32,13.36,0,0-6.69-19.92-7.55-26.81m-80.17-75.17c.59,3.53,11.38,13.49,13.36,14.33,13.1,12.33,29.4.07,40.39-6.57,0,0,8.47.39,14.83-1.51s6.24-4.19,11.62-5.36c7.06-1.53,15.99-1.86,15.99-1.86l-6.29-14.68c-28.51,6.93-16.93,15.99-39.54,14.59-5.25,10.52-24.09,17.14-33.5,12.32m-24.88,8.17l.68-13.69,5.72-4.64s-5.58,18.02-6.39,18.33Zm62.53,227.1s-2.86,1.24-6.58,3.33c-5.35,3.01-8.43,3.54-8.43,3.54,2.18-.26,34.96-86.41,55.14-106.82"/>
      <path class="cls-8" d="m44.64,305.72c-4.04,1.76-10.68-.6-8.04-5.87,0,0,8.77-16.06,8.77-16.06,0,0,8.96-6.27,16.46-10.53,20.73-11.02,52.69-18.78,76.27-15.99,5.71,3.34,13.25,2.21,17.05.39-5.89,8.74-16.2,12.94-27.81,17.44-6.79,3.69-5.43,6.43-11.61,8.45-5.5,1.8-12.44.6-12.44.6-14.31,21.24-34.76,16.57-50.52,1.09l-7.31,5.55"/>
      <path class="cls-5" d="m44.12,80.36c-.71.43.8,8.66.77,8.93-.18.14-3.41-3.27-3.41-3.27l-1.78.04s-1.31,2.21-1.55,3.61,1.08,1.79.58,2c-1.23.52-3.34-3.8-4.09-4.69-.97-.15-3.32-.55-4.16-1.04l2.7-1.86c-2.14,0-5.75-.3-7.1-2.21l-2.51,1.87-.55-4.78-2.73-.21c-1.36-.16-3.33-1.5-2.84-1.58.24.27,6.08.3,6.25-1.03-.83.92-7.25-2.87-7.13-3.17l5.11-.21,2.42-1.8c3.13,2.05,9.98,5.74,13.38,7.38m29.48,4.66l-.41,3.41-1.77,3.52,2.8-1.56c.51,1.24,2.11,3.98,3.76,4.06.44-.44-2.19-4.1-.37-4.43.95.57,3.69.65,4.78.67l-1.39-2.18.22-3.94m11.32-2.18l5.11-2.5,2.55.35c.57-.45,4.1-1.62,2.82.91-.25.3-2.46,2.39-2.46,2.39,1.88.17,5.24,1.23,6.86,2.2l.76,1.98c-2.2-1.57-8-.62-9.68,1.23-.53,1.36-1.83,5-3.15,5.8l-.39-5.4-2.65,2.59.41-5.22"/>
      <path class="cls-13" d="m27.26,56.58c-5.35-.74-4.19,13.26-4.44,13.4,11.91,12.43,54.04,17.88,68.69,7.94l-.16-11.04-2.56-2.62c1.29-5.04-6.38-16.25-10.45-19.85-17.33-12.13-42.06-7.08-51.09,12.17h0Z"/>
      <path class="cls-20" d="m74.09,111.73c-.4.09-5.67.8-5.79,1.12-.12-.43-8.9-1.37-9.38-1.48,5.2,2.1,10.02,3.61,15.17.36Z"/>
      <path class="cls-23" d="m72.76,114.1c-3.07,6.93-8.19,5.38-11.28.25l6.87,2.05s5.34-3.99,4.41-2.3h0Z"/>
      <g>
        <path class="cls-13" d="m114.86,297.63c1.45,9.42,7.57,19.65,10,28.97,3.83,10.61,5.3,22.6,6.93,33.73,2.05,9.28,3.87,18.67,7.21,27.6,4.99,13.88,14.54,29.06,7.99,43.9,11.51-20.38-9.66-42.06-11.84-62.87-3.87-13.91-4.01-28.68-8.93-42.34-3.25-8.99-8.24-20.04-11.35-28.99h0Zm-.36-12.96c1.66,6.42,4.58,13.3,3.38,20.04,2.91-4.57-.99-15.47-3.38-20.04h0Zm5.7-3.23c4.33,11.37,5.04,24.39,2.64,35.88,5.08-10.33,2.27-25.5-2.64-35.88h0Z"/>
        <path class="cls-13" d="m120.42,284.67c-.25-.21-2.42,1.08-2.67,1.14-.53.21-1.87.77-2.33,1.08.18.67,6.83-1.1,5-2.22h0Z"/>
        <path class="cls-13" d="m120.4,283.64c-.36-.23-1.72.76-2.04.86-.82.35-2.45,1.12-3.24,1.53-.64.95,7.7-1.24,5.28-2.4h0Z"/>
        <path class="cls-13" d="m120.49,282.52c-.16-.18-3.22,1.6-3.43,1.66-7.58,3.05,6.12.12,3.43-1.66h0Zm-20.77,135.75c-1.01.01-2.28,1.49-2.13,1.99l.16,1.18c-.48-1.26,1.56-3.47,2.62-2.14.71,1.06.72,5.42-1.3,3.99-.28-.15-.73-.36-.96-.55-.16-.42,0,0-.2-.14,2.16,6.07,5.97-3.55,1.81-4.33h0Zm-1.81,4.33c-.16-.85-.41-2.52-.02.01.02-.02.02-.02.02-.01h0Zm-45.18-137.74c-7.44,1.28-27.57,21.79-10.2,21.92,1.16-.23,2.31-1.22,2.53-2.28-.33.17-.84.42-1.2.51-9.37,3.47-7.73-7.02-2.66-11.1,3.09-3.65,8.22-6.07,11.52-9.05h0Zm72.28-8.1c-5.89,5.3-13.08,9.1-21.26,7.14-.49-.12-.68.67-.17.77,7.68,2.09,17-1.43,21.43-7.92h0Z"/>
        <path class="cls-13" d="m154.96,257.29c-2.37,1.68-6.44,6.35-8.77,8.32-5.82,5.63-15.2,5.61-20.99,11.02,8.25-4.73,18.95-6.14,25.45-13.85.53-.94,6.14-4.83,4.31-5.48h0Z"/>
        <path class="cls-13" d="m138.68,256.94c-.26-.03-.5.08-.75.13-.06-.03-.13.05-.06.09,1.31,2.57,5.7,2.86,8.41,3.25,2.43-.07,7.59-.8,8.34-2.52-5.23,2.18-11.15,2.34-15.95-.95Zm-62.95,12.52c1.13,2.4,6.06,4.12,8.59,5.67,4.77,2.03,12.55,5.79,17.34,7.42-3.72-2.47-11.13-5.5-15.22-7.61-3.11-1.42-7.6-4.17-10.71-5.48Zm7.14-1.69c-1.82-.18-2.07.3-.17.86,13.42,2.32,27.85,2.8,41.14,4.37-13.19-2.67-27.74-2.69-40.97-5.23Zm44.6-125.7c2.38,34.71,4.6,74.07,7.12,108.9.11,1.15,1.98,1,1.83-.21,0,0-1.58-22.33-1.58-22.33l-1.33-19.37c-1.79-21.09-1.93-46.43-6.05-66.99h0Z"/>
        <path class="cls-13" d="m135.87,250.95c-.13-.12-.31.1-.18.21.77,1.85,1.07,3.8,1.27,5.82,0,1.16,1.83,1.12,1.8-.03.31-2.07-.66-5.47-2.88-5.99h0Z"/>
        <path class="cls-13" d="m128.87,250.1c-3.83.23-8.84-.4-12.27,1.28,2.59.86,8-.45,10.82-.41,2.98-.2,5.97.56,8.89.75-2.04-1.45-4.98-1.4-7.43-1.61Zm-18.8,1.52c-6.32.36-25.24,2.2-29.42,6,1.27.77,3.8-1.04,5.31-1.17,0,0,7.11-1.77,7.11-1.77,3.21-.64,10.13-1.88,13.33-2.26.52-.16,3.9-.37,3.67-.8h0Zm7.76-40.77c-.44-.09-.78.45-.51.81,5.86,7.86,9.43,19.49,3.17,28.04,7.55-7.69,3.22-21.34-2.66-28.84Z"/>
        <path class="cls-13" d="m116.75,239.32c-8.86-.14-18.22,1.47-26.57,4.41-3.1,1.25-7.26,3.18-10.13,4.91-.73,1.88,3.31-1.21,4.1-1.29,10.81-5.02,23.64-7.68,35.56-7.47,2.87-.34-2.3-.65-2.96-.57h0Zm-5.9-28.48c-12.21.58-26.5.82-36.54,8.51-1.26,2.1,5.05-3.07,6.34-2.96,11.82-4.36,24.88-5.62,37.34-4.62-2.09-1-4.8-.77-7.13-.93Z"/>
        <path class="cls-13" d="m74.67,219.85c-2.54,2.19-4.66,6.87-6.47,9.74-1.07,1.32-2.77,6.94-.32,2.8,1.65-4.13,5.49-8.36,6.79-12.54h0Zm-7.6,15.18c-.17,0-.45.03-.62.06,6.33,2.27,8.38,9.84,12.48,14.11-1.2-4.66-7.04-12.5-11.86-14.16Zm-3.31,31.74c-6.25,4.73-22.15,21.56-25.82,5.73-.17-.75-.53-6.02-1.33-3.1.51,20.86,20.83,6.23,27.15-2.63h0Zm-20.02,13.93c1.94,6.47-3.94,11.38-6.23,16.43,3.63-3.73,9.39-10.81,6.24-16.43h0Zm18.68-74.91c-1.57.91,6.92,7.01,8.14,7.43,5.08,2.6,2.87-6.27-.56-6.1-.03-.02-.05.03-.02.05,1.24,1.44,3.17,2.72,2.87,4.97-.06.32-.01.76-.37.76-4.09-.84-6.59-5.18-10.06-7.11h0Z"/>
        <path class="cls-13" d="m72.92,213.28c-1.06,1.41-2.24,3.07-3.5,4.38-.16.36-2.68,1.99-2.03,2.52,1.75-.03,5.42-5.02,5.53-6.9h0Z"/>
        <path class="cls-13" d="m69.95,218.4c.36,2.86-.44,5.79-2.24,8.05-.17.25-.09.58.15.75,2.32-.72,3.52-6.68,2.1-8.8h-.01Zm-3.35,9.23c-1.41,1.03-4.19,4.31-5.65,5.53-9.65,9.33-11.56,24.52-22.62,32.84-.04.02,0,.08.03.06,8.32-2.8,12.48-15.4,16.32-22.83,1.98-6.52,8.36-10.32,11.92-15.6h0Zm-53.97,15.15c-1.78,11.5,5.64,27.17,19.08,26.32-14.37-.58-17.48-14.64-19.08-26.32Zm6.94-18.74c-6.7,7.58-7.08,23.93-1.5,31.99-2.95-10.45-5.14-22.15,1.5-31.99h0Z"/>
        <path class="cls-13" d="m1.73,214.98c2.87,18.58,3.19,43.45,22.45,53-19.17-10.72-17.28-34.57-22.45-53h0Zm55.9-24.57c-1.95.04-3.69,1.4-5.19,2.52-6.74,4.12-11.73,10.93-16.38,17.17-.7,1.41-9.45,10.88-7.01,10.97,6.96-6.78,11.86-16.33,18.86-23.15,2.11-1.69,4.62-3.8,6.81-5.4,1.07-.88,2.39-1.41,3.7-1.81.08-.19-.6-.25-.79-.3Zm-21.32,18.27c-4.09.74-7.45,3.87-10.28,6.76-.57.46-3.85,4.91-1.43,3.28,3.11-2.98,6.18-6.68,10-8.82.34-.25,1.63-.88,1.7-1.23h0Z"/>
        <path class="cls-13" d="m56.88,191.37c-4.76,2-1.03,10.46,2.3,10.46-1.52-2.78-5.79-7.07-1.85-9.74.55-.7.4-.85-.45-.73Zm-8.91,4.83c-5.59,9.62,8.54,23.57,17.93,23.74-9.77-3.27-20.75-12.16-17.93-23.74h0Zm-18.12-32.87c6.48,8.59,4.29,15.03,7.03,23.43.66-1.77-.75-5.46-.76-7.49-.67-5.41-1.79-12.39-6.27-15.94h0Zm7.49,24.21s-.08.02-.05.05c3.27,5.21,3.92,12.6,2.67,17.92,2.98-3.68,1.44-15.66-2.63-17.97h0Zm-6.72-47.33c-8.97.07-22.81,5.68-22.57,15.61.44.17.93-.06,1.1-.5,2.49-8.19,10.5-12.58,18.52-13.83.14-.14,4.7-.63,2.96-1.29Z"/>
        <path class="cls-13" d="m8.04,155.7c-.91-.58-1.89,4.81-2.21,5.08-.55,2.02-1.69,6.13-2.21,8.12-2.75,13.05-3.31,27.83-2.33,41.09,0,0,.31,1.89.31,1.89.34.73.56-2.55.65-2.51.53-9.4.26-19.56,1.15-28.97.45-4.06,1.4-10.72,2.22-14.67.29-3.31,2.8-7.06,2.42-10.04h0Zm38.3,135.86c-3.11,21.2,3.6,43.72,12.34,63.1,10.08,22.1,27.45,40.23,35.46,63.37,1.35,3.65,1.58,2.89.59-.6-5.48-17.27-17.68-33.31-26.98-48.73-14.65-23.38-20.77-50.04-21.41-77.14Zm99.86,144.01c-1.09-.87-2.87,6.8-3.25,7.1,0,0-2.15,5.64-2.15,5.64-9.95,26.77-25.19,55.27-33.23,82.5,10.82-30.99,29.16-64.27,38.64-95.23h0Zm-51.08-12.61c-8.84,16.66-12.87,36.4-17.43,54.64-.78,10.47-23.23,46.01-12.3,50.97-5.85-10.22,10.61-35.31,13.11-48.44,4.1-19.03,9.96-39.9,16.62-57.17Zm47-152.68c3.61,7.22,8.62,14.77,9.83,23.02,2.24,24.67-5.62,49.19-10.06,73.24-.11,2.19-4.79,21.97-1.06,18.21,2.47-36.34,26.86-82.69,1.29-114.47h0Z"/>
        <path class="cls-13" d="m78.39,387.7c-6.01,11.88-13.38,23.65-21.16,34.54-3.63,6.91-20.57,21.77-18.5,28.35,2.97-7.06,8.59-13.68,13.61-19.9,9.82-13.4,20.25-27.37,26.04-42.99Zm-11.07-182.5c-.15-.03-.31.04-.46.06-.02-.03-.06.01-.04.03-.16.55.31.81.68,1.13,2.15,1.36,2.04,1.8.63,3.76,2.9-.99,1.32-3.97-.82-4.98h0Zm27.1-15.97c-7.26.55-13.8,18.62-24.64,18.14,9.21,2.24,17.16-14.93,24.65-18.13h-.01Zm-.06-6.76c-1.98.38-4.98.9-6.5,1.95,2.03-.2,4.45-1.26,6.52-1.28,6.7,3.2.33,10.44-4.76,10.95-.62-.04-.66.95-.03.96,5.96-.34,13.1-9.51,4.77-12.57Zm-.44-7.93c-3.45.17-7.27,2.49-9.44,4.87,2.95-1.7,5.98-4.25,9.61-4.17,3.21.26,5.64,3.6,6.82,6.34.1,1.83-1.73,3.02-1.91,4.69-.1.13.1.28.2.15,2.13-1.13,3.49-4.97,1.59-6.9-1.69-2.17-3.81-5.06-6.87-4.98h0Zm-4.46-4.4c-2.28.28-16.05,8.19-6.46,3.39,6.05-3.39,6.12-3.36,12.92-2.09,5.03,1.65,5.52,1.24,5.02,6.71-.15.64.33,2.36.9,1.11-.14-1.29.26-4.88-.35-6.03-3.23-2.65-8.02-2.71-12.03-3.09h0Zm3.07-7.91c-7.22.07-14.04,4.42-20.2,7.78,7.36-1.56,14.53-9.23,22.66-6.72,3.39.03,8.21,5.3,2.1,4.76-5.01-1.3-10.15.52-13.55,4.37,9.05-8.27,14.8-.91,16.88-5.19.3-3.76-5.11-4.48-7.88-5Zm-21.28,8.52c-4.87,2.95-11.26,15.92-13.25,20.97,4.39-6.73,7.34-15.45,13.76-20.53.21-.02.15-.34-.05-.31-.14-.06-.31-.13-.46-.13h0ZM30.38,473.37c-2.16,1.78-4.26,5.55-3.08,8.41,4.28,4.4,9.97,7.62,15.43,10.38.94.66,7.96,3.2,5.86.62-7.63-1.68-14.46-6.33-20.27-11.39-1.44-2.76,1.56-5.49,2.06-8.03h0Zm21.21,22.32s-.06.06-.05.1c.29,4.27,7.4,8.01,10.53,10.65.78.45,2.4,2.27,3.26,2.38.05.05.13-.03.08-.08-.47-1.5-2.38-2.4-3.5-3.48-3.42-2.7-7.69-6.04-10.22-9.53-.01-.04-.06-.06-.1-.04h0Zm14.05,59.06c-.74,1.51-2.16,4.24-1.35,5.78.95-1.36,1.04-4.05,1.35-5.78Z"/>
        <path class="cls-13" d="m64.25,560.2c5.08,7.74,14.88,11.8,22.97,15.75.32.16.57-.33.25-.5-7.94-4.47-17.36-8.01-23.22-15.25h0Zm31.51,18.67c7.45,3.02,17.67,6.01,25.59,3.6-8.71,1.14-17.33-1.02-25.59-3.6h0Zm42.81-10.4c-1.22,8.89-1.67,9.76-10.49,12.88,6.82-.13,12.06-6.33,10.49-12.88h0ZM33.33,139.51c-.94,0-5.88.81-4.53,1.75,12.27-4.17,22.41,6.82,33.52,9.98.55.04,2.5.86,2.2.13-10.71-3.06-19.58-12.12-31.2-11.86h0Zm37.3,1.41c1.31,3.72,2.92,8.58-2.01,10.2,5.18.83,5.45-8,2.01-10.2h0Zm4.14,6.92l-.5.35c.09-.07.3-.46.05-.29-.09.18-.34.42-.46.54.21-.1-.18.09-.1.18.05.14.54-.33.6-.33-.21.13-.6.41-.13.25.16-.03.64-.04.59-.28-.15-.05,0,0,.05-.32.06-.05-.03-.16-.09-.1h0Zm13.31-36.69c-6.93,2.48-5.3,12.53-4.24,18.29.77,6.05-4.63,11.01-6.32,15.8,4.17-3.2,7.56-10.63,7.1-16.29-1.11-5.62-2.84-14.95,3.88-17.53.26-.15-.33-.23-.43-.26h0Zm26.24,13.11c2.63,6.48,5.7,16,13.15,17.98-7.14-3.28-9.15-11.92-13.15-17.98h0Z"/>
        <path class="cls-13" d="m164,88.45c-1.2-.95-3.58,7.64-4.03,8.01-6.77,17.68-19.22,32.66-32.56,45.72,14.24-10.06,33.71-37.05,36.6-53.73h0Z"/>
        <path class="cls-13" d="m144.83,40.89c8.77,6.6,13.2,18.33,15.13,29.3,1.17,1.78,1.92,22.92,3.81,18.86-2.1-16.79-2.99-38.31-18.94-48.16h0Zm-8.54-8.64c-.42.01-.39.69.04.66,3.94.35,8.24,3.79,8.24,7.92,1.52-4.07-4.51-8.5-8.27-8.57h0Z"/>
        <path class="cls-13" d="m138.55,32.96c3.09,3.29-7.17,6.59-9.65,7.4-3.22,3.98,16-5.59,9.65-7.4h0Zm-22.54,6.14c-4.55,4.33,10.99,3.85,12.05,1.82-2.5-1.13-12.23,2.99-12.05-1.82h0Z"/>
        <path class="cls-13" d="m115.26,41.32c1.37,8.7,13.35,10.5,19.31,5.37.03-.14-1.81.33-1.86.3-7.99,3.72-13.15,1.76-17.46-5.67h0Zm29.41-.76c-.17-.26-1.43,1.3-1.56,1.34-.64,1.01-2.13,1.51-2.74,2.34,1.07-.03,2.5-1.04,3.13-2,.02-.13,1.44-1.53,1.16-1.67h0Z"/>
        <path class="cls-13" d="m118.43,46.99c-.72,3.35-.22,8.81-.33,12.3.17,7.13,8.17,13.84,12.27,19.26,0,0,2.06,2.07,2.06,2.07,2.08.51-.54-1.97-.9-2.34-4.41-5.23-11.28-11.39-12.65-18.21-.36-3.63.22-9.56-.45-13.08h0Zm5,24.13c-.36,2.3.33,6.5.31,8.92.43,12.04-17.86-4.41-15.68,23.31.04,1.58.3,4.03.48,5.6,1.21,1.42.73-1.87.7-2.53-3.07-36.2,20.7-5.55,14.19-35.3h0Zm-17.34,24.14c-4.31,1.31-5.35,6.91-9.4,8.47-12.17,2.21-8.66,14.95-3.81,22.56,3.12,5.77,6.43,12.92,7.57,19.38.19.19,1.01,7.49,2.06,4.53-1.05-8.46-4.36-16.46-8.56-23.82-3.72-6.12-8.83-18.57,1.12-21.3,5.36-.79,6.92-6.81,11.32-9.16.62-.54.63-.75-.29-.67h0Z"/>
        <path class="cls-13" d="m92.14,124.78c1.93,6.16,3.46,13,3.89,19.43.3-6.43-1.01-13.62-3.89-19.43ZM126.39,4.14c-.92.04-1.05.29-.13.65,10.08,4.79,2.52,23.67,11.21,30.57.26-.26-.59-1.2-.85-1.54-1.05-1.2-2.03-2.63-2.42-4.18-1.83-6.24.09-23.78-7.81-25.49h0Zm1.82,3.61c.07,3.05.33,10.18-3.7,10.61-2.74.47-1.51-3.54-2.32-4.83-.69,2.94.12,6.76,3.95,5.15,2.4-2.57,3.58-7.82,2.06-10.94Z"/>
        <path class="cls-13" d="m115.91,13.15c-.99.74-.06,3.11.66,3.96,2.38,2.02,6.3-.36,5.49-3.34-.53,2.61-1.41,3.99-4.4,3.3-1.72-.61-.71-3.15-1.74-3.92Z"/>
        <path class="cls-13" d="m108.48,3.24c-.84,2.52.89,6.37,1.49,8.96.08,2.74,3.89,4.98,5.34,1.95.96-3.22.76-6.88.16-10.13-.63,2.67,1.51,12.6-3.72,10.22-1.21-1.37-1.49-3.97-2.24-5.61-.68-1.63-.09-4-1.02-5.38h0Z"/>
        <path class="cls-13" d="m102.91.86c-7.65,1.47,5.37,17.55,7.08,10.65-1.09,2.18-2.93,1.21-4.46-.13-2.25-2.22-6.2-6.03-3.65-9.21,1.71-2.18,4.16,1.85,5.99,2.3-.19-1.3-3.42-3.09-4.95-3.62h0Z"/>
        <path class="cls-13" d="m94.75,2.67c-.66-.07-3.08.88-1.49,1.19,2.34-1.19,5.13.18,6.75,1.98,7.73,13.15,8.69,6.04,17.72,13.79-1.09-3.37-6.3-4.54-9.47-5.63-5.57-2.44-6.36-11.81-13.52-11.33Zm17.64-1.7c-.81-.38-4.37,1.11-3.49,1.74,5.51-3.32,4.12,3.15,10.3.69,2.25,1.09,3.5,3.14,5.65.58-3.46.94-2.4.32-5.4-1.14-5.14.95-3.16.14-7.05-1.87h0Z"/>
        <path class="cls-13" d="m122.56,5.52c-.92.93-.47,2.7-.56,3.9.37.79.74-3.73.56-3.89h0Zm-29.78-1.79c-1.19,3.97,4.28,7.64,5.98,10.98,2.36,3.5,4.26,7.7,6,11.56,4.88,8.33,5.62-1.97,11.62,14.77,2.79,1.4-3.23-9.7-4.24-10.5-2.21-1.6-5.54-1.63-6.36-4.77-1.71-3.54-3.37-7.39-5.68-10.58-2.42-3.51-6.58-7.15-7.32-11.47Zm-51.89,120.36c-6.59,2.04-12.65,9.03-12.8,16.03,1.81-6.68,6.4-12.32,12.84-15.18.37-.15.35-.73-.04-.85Zm37.89-9.75c-.5.02-.44.78.05.75,1.6-.3,3.15.25,4.56.84-.83-1.5-3.05-1.6-4.61-1.59Zm-45.34-10.81c1.77,8.32,8.99,15.19,8.55,24.19,2.35-8.43-5.6-16.65-8.55-24.19Zm-6.16-20.86c-2.75,1.99-2.28,9.97.48,11.52.25-.14.34-.45.21-.7-2.07-3.27-1.84-7.45-.69-10.82h0Zm1.25,11.85s-.08,0-.09.05c-3.08,2.92,2.57,11.27,5.8,7.49-.31-.75-1.26-.06-1.86-.25-3.24-.67-3.49-4.59-3.8-7.19.01-.04,0-.08-.05-.09Zm4.26-6.48c.67,1.51,1.63,3.41.69,4.99-1.55,1.49-1.54,4.59.92,4.3-4.56-2.34,3.45-4.8-1.61-9.29h0Z"/>
        <path class="cls-13" d="m34.17,104.62c6.43,11.39,19.03,23.94,32.75,22.94-14.58-2.09-24.59-10.73-32.75-22.94Zm52.15-15.12c-.78-.64-2.5,8.47-2.74,8.62-3.46,10.31-6.61,22.42-15.58,29.26,9.92-5.41,17.03-27.35,18.32-37.88Zm-63.01-11.18c-.63.52-.08,1.87-.27,2.65-.24,2.07.14,3.92,2.24,1.79.3-.27,1.81-1.54.72-1.41-.7.54-1.47,1.2-2.22,1.64-.13-1.25.6-3.87-.47-4.67h0Z"/>
        <path class="cls-13" d="m17.35,76.99c-.93,1.14,5.09,2.81,5.91,1.98.02-.19-.82-.18-.92-.23-1.86.02-3.34-1.25-4.99-1.75Z"/>
        <path class="cls-13" d="m22.96,76.01c-1.46,1.26-3.69.85-5.48,1.13.7.77,5.95.67,5.99-.96.09-.12-.11-.28-.2-.15-.1,0-.21-.04-.31-.02h0Z"/>
        <path class="cls-13" d="m16.81,72.95c-1.53.69,6.45,4.58,7.16,3.24-2.73-.33-4.77-2.19-7.16-3.24h0Z"/>
        <path class="cls-13" d="m24.04,71.15c-2.08,1.88-5.15,1.02-7.42,1.91,2.08.18,7.05.49,7.42-1.91h0Zm64.57,15.83c-.89.53-1.72,1.55-2.41,2.3-.66,1.57,1.01-.02,1.33-.61.18-.33,1.44-1.49,1.08-1.69h0Z"/>
        <path class="cls-13" d="m88.27,87c-.43.49-.58,7.27.61,5.36-.26-1.4-.15-4.09-.61-5.36h0Z"/>
        <path class="cls-13" d="m92.2,87.33c-1.38,1.55-1.82,4-3.31,5.61,1.05-.26,3.65-4.09,3.31-5.61Z"/>
        <path class="cls-13" d="m97.57,84.47c-1.29-.15-6.83,1.95-5.43,3,2.47-2.56,6.55-3,9.73-1.77-.85-1.27-2.89-1.27-4.3-1.22h0Z"/>
        <path class="cls-13" d="m94.58,81.2c-1.93.79,6.71.97,7.13,4.48.3-2.94-4.7-4.13-7.13-4.48h0Z"/>
        <path class="cls-13" d="m96.17,77.62c1.16,1.14-1.31,2.39-1.96,3.52.64.27,3.85-3.14,1.96-3.51h0Z"/>
        <path class="cls-13" d="m95.3,77.4c-1.28.73-2.68.48-3.95.44,1.37,1.4,3.22-.22,4.75-.26.16-.22-.62-.24-.79-.17h0Zm-36.28,14.37c-2.56,2.44-6.32,2.27-8.84.29,1.13,3.02,5.84,2.88,8.19,1.36.54-.3,1.85-1.37.65-1.65h0Zm22.82-1.83c-1.39,2.2-4.25,1.94-6.08,1.07,1.15,2.13,5.53,1.65,6.54-.49.17-.3-.14-.68-.46-.58h0Zm-11.03,2.82c.11,2.91,1.64,6.81,2.1,9.81.72,2.2-3.15,2.86-3.45,4.31,4.97-1.91,4.45-3.52,3.35-8.07-.57-1.76-.69-4.75-2-6.05Zm-6.42,12.26c-.16,2.39,2.98.39,4.23.73.07.06.17-.07.09-.13-.91-1.57-3.72,1.71-4.32-.6h0Z"/>
        <path class="cls-13" d="m73.64,104.73c-.12-.04-.26.04-.3.16l-.73.31c1.33-.6.09.75-.48.38.87-.46.88-.25-.24-.07-.05-.08-.14,0-.09.07l.25-.07s.03-.01-.05.05c-.03.02.08.01.11.02-.22.08-.43.17-.18.38.6.52,1.76-.03,1.82-.74-.34,0,.38-.25-.12-.5h0Zm-14.63,6.6c-.31-.17-.55.34-.23.48,4.52,2.47,10.62,3.45,15.1.4,1.39-1.23-3.65,1.39-4.7,1.19-3.51.39-6.96-.77-10.16-2.07Z"/>
        <path class="cls-13" d="m59.35,111.82c.34,2.07,2.81,3.48,4.6,4.33,4.09,2.38,8.2.28,10.21-3.66.04-1.16-1.99,2.09-2.14,2.06-3.91,3.62-9.61.33-12.66-2.73h0Zm7.19,34.28c-.43.74-.11,2.1-.2,2.96-.06.85-.25,2.73-.35,3.58-1.1,4.93-4.86,17.07,2.32,18.25.51-.91-.74-1.71-1.13-2.47-4.22-6.78,2.97-15.8-.65-22.33Zm6.88-3.88c4.48,6,2.62,16.38,10.17,20.1.99.62,3.31-.37,1.72-1.42h0c-7.09-3.83-5.34-14.69-11.89-18.68h0Zm35.98-48.04s-.02.05,0,.07c-.17,1.1.98,2.09,1.5,2.95.74,1.09,1.57,2.21,2.67,2.97,3.88,1.76,7.91,3.34,10.2,7.25,5.11,6.84,10.58,14.16,17.12,19.69,1.04.89,2.42-.77,1.35-1.64-.61-.59-1.29-1.15-1.97-1.66-1.48-1.53-3.58-4.17-4.99-5.77-.99-1.36-3.17-4.08-4.26-5.38-3.3-3.71-6.87-9.7-11.67-11.58-1.64-.85-4.79-2.03-5.88-3.62-1.16-.97-2.26-3.5-4.01-3.28-.02-.02-.04-.02-.06,0h0ZM16.84,176.27c-9.94.15-8.01,4.51-13.62,9.79-.1.04-.04.2.07.16,4.62.32,4.31-6.8,8.34-7.53,7.22-2.09,14.51,1.52,19.93,6.13,0,0,2.65,2.35,2.65,2.35.98.68,2.11,2.96,3.48,2.09.97-1.32-1.17-2.7-1.92-3.65-4.95-5.09-11.69-9.14-18.93-9.34Zm39.15-92.89c-2.34-.1-5.63.24-7.16,2.12-.17.07-.05.34.11.26.48.33,1.3-.12,1.81-.21,3.79-1.57,7.55-.23,10.77,1.82.93.1-.44-1.34-.76-1.54-.86-1.69-3.09-2.08-4.78-2.46h0Zm23.86-.7c-1.8.28-4.19,1.56-4.26,3.57-.19.27.23.55.4.28,1.48-.69,2.41-2.48,4.33-2.11.94-.17,2.35.39,3.08-.29.27.06.36-.36.09-.42-.64-1.11-2.46-1.05-3.64-1.04h0Zm-18.42,6.12c-.18-.14-.41.17-.22.3,1.22.98,1.09,2.51,1.13,3.79.83-1.2.86-3.58-.91-4.09h0Z"/>
        <path class="cls-13" d="m73.74,112.17c-3.1,3.26-6.03,4.85-10.42,2.29-1.16-.47-2.2-2.54-3.48-2.06,2.33,4.87,12.2,5.87,13.9-.23h0Zm46.1,438.25c.44.71,1.32.95,1.89,1.59.8,1.3,6.72,4.64,2.79,1.69-1.43-1.15-2.75-3.13-4.68-3.28h0Z"/>
        <path class="cls-13" d="m117.83,548.2c-.26-.06-.59.07-.55.31.37.45-.06-.04-.11.17.25.23.91.7,1.2.93l-.75-.61c.72.07,1.58.28,1.76,1.1l.55.29c.1-1.09-1.02-2.06-2.1-2.19h0Zm1.54,1.9c-.93-.43-1.46-.9.04.21,0-.07-.02-.13-.04-.21Zm.04.21s.04.09.01.08c-.38-.22,0,0,.11.16-.01.16.24.19.24.02,0,0-.37-.27-.37-.27Z"/>
        <path class="cls-13" d="m113.65,545.38c-1.27.7,3.3,3.04,3.95,3.42-.46-1.48-2.64-2.56-3.95-3.42Z"/>
        <path class="cls-13" d="m111.4,543.24c-.06,0-.21-.03-.17.02.32.43,0,0-.14.09-.37.12-.17.69.2.56l1.04.81-.92-.8c.71-.2,1.66.48,1.84,1.23l.39.29c.12-1.09-1.14-2.24-2.24-2.2h0Zm1.84,1.91c-.86-.6-1.69-1.37.05.21-.02-.06,0-.15-.05-.21Zm.05.21s.03.06.01.04c-.34-.2,0,0,.06.13-.02.1.14.15.16.03l-.23-.21h0Z"/>
        <path class="cls-13" d="m107.32,539.72c-.24.61,3.53,4.33,3.92,3.93-.44-.97-1.62-1.98-2.32-2.78-.44-.43-.94-1.21-1.6-1.15Z"/>
        <path class="cls-13" d="m105.81,537.7c-.1-.01-.35-.08-.3.01.23.43,0,0-.31.11,0,.84,2.26.31,2.18,1.64.17.08.44.41.39.01.09-1.1-1.08-1.56-1.96-1.77h0Zm1.57,1.76c-.91-.45-1.58-1.18-.03.16.02,0-.02-.03.07.02.06.03-.04-.13-.03-.18Zm-.04.16s.18.62.3.25c0,0-.3-.25-.3-.25Zm-1.79-1.35c-.08-.04-.21-.11-.16-.07.61.53,1.53,1.16.16.07Z"/>
        <path class="cls-13" d="m102.85,535.32c-.34.26,1.18,1.28,1.25,1.45-2.4-1.86.48.75.71.87-.24-.39.11.11.58.29.07-.06-1.11-1.29-1.12-1.34.27.38,1.39,1.2.52.29-.19-.17-1.06-1.34-1.13-1.28.28.57-.46-.56-.81-.29Z"/>
        <path class="cls-13" d="m102.01,533.88c-.19-.04-.25.27-.06.3l.67.73-.51-.68c.31.37.78.8,1.03,1.28-.18-.2,0,0,.14.14.54.29-.56-.87-.55-.9,1.51,1.77.48-1.16-.52-.85.11.31,0,0-.2-.01h0Z"/>
      </g>
      <path class="cls-8" d="m26.64,56.66c-3.2.86,1.26,5.51,3.2,4.73.05.01.06-.06.01-.07-.92-.82-2.04-1.62-2.45-2.9-.1-.64.13-1.6-.76-1.75h0Zm5.74,6.49c1.43,1.28,3.49,2.17,5.36,2.78,1.58-.4-1.35-1.15-1.65-1.28-1.11-.42-2.51-1.46-3.71-1.5h0Zm56.88,2.38c-2.73.78-5.64,2.35-8.64,2.39-.7.06-2.22.19-2.93.26-.61.04-1.56-.16-1.99.38-.17-.01-.18.26-.01.27,2.33,1.45,12.75-.67,13.56-3.29h0Zm-27.77,47.74c3.41,4.05,9.75,2.96,11.5-.38,0,0-3.35,1.39-5.44,1.41"/>
      <g class="cls-18">
        <path class="cls-13" d="m91.43,78.17l-2.66,3.26-10.78,2.52c-5.57.68-16.78.67-22.38.12,0,0-10.74-1.42-10.74-1.42l-10.31-3.58-5.45-3.2s-4.99-4.77-4.99-4.77l8.29,4.71,11.15,3.14,10.8,1.04,9.15.77,12.49-1.07,9.06-1.69c.05-.3,6.88-3.36,6.38.16h0Z"/>
      </g>
      <path class="cls-9" d="m91.67,126l2.35-1.37,2.67-.5,3.49,1.67-10.04,3.76,1.54-3.55h0Z"/>
      <path class="cls-15" d="m95.57,136.44l2.67-.5,2.35-1.37,1.54-3.55-10.04,3.76,3.49,1.67h0Z"/>
      <path class="cls-14" d="m90.69,132.31l10.88-4.07.56,2.77-10.04,3.76-1.39-2.45h0Z"/>
      <path class="cls-7" d="m90.69,132.31l10.88-4.07-1.39-2.45-10.04,3.76.56,2.76Z"/>
      <path class="cls-3" d="m101.53,128.26c2.82,7.26-8.15,11.36-10.78,4.03-2.82-7.26,8.14-11.36,10.78-4.03Z"/>
    </g>
  </g>
</svg>