<svg width="447" height="287" viewBox="0 0 447 287" fill="none" xmlns="http://www.w3.org/2000/svg">
<path d="M171 102L156.5 90.5L158.5 80.5L154.5 68L165 62V48L172.5 29L180 26.5L194 10.5L220.5 0L248 3L272.5 16.5L279.5 30L285.5 40L288.5 53L287.5 59.5L292.5 62L296 69L299.5 77.5L302 82.5L294 92L281 106.5L272.5 124.5L262 140.5L276.5 137.5L291 143L300.5 158L324 164L352.5 184.5L403.5 209.5L429 213L444 225.5L447 248.5L436 261H231L244 276L224 287L191.5 278.5L167.5 261H12.5L0 250L7.5 224.5L26 212L44.5 209L110.5 184.5L134 170.5L154.5 164L167.5 148L181.5 144.5L194.5 146L191.5 137.5L180 120.5L171 102Z" fill="#070D1C"/>
</svg>
