<?xml version="1.0" encoding="UTF-8"?>
<svg id="Ebene_1" data-name="Ebene 1" xmlns="http://www.w3.org/2000/svg" xmlns:xlink="http://www.w3.org/1999/xlink" viewBox="0 0 169.35 552.45">
  <defs>
    <style>
      .cls-1 {
        stroke: #000;
        stroke-miterlimit: 4;
        stroke-width: 1px;
      }

      .cls-1, .cls-2 {
        fill: none;
      }

      .cls-3 {
        clip-path: url(#clippath);
      }

      .cls-4 {
        mask: url(#mask);
      }

      .cls-5 {
        fill: #ec678a;
      }

      .cls-6 {
        fill: #eed1bf;
      }

      .cls-7 {
        fill: #fff;
      }

      .cls-8 {
        fill: #fff7f7;
      }

      .cls-9 {
        fill: #fff433;
      }

      .cls-10 {
        fill: #a09bab;
      }

      .cls-11 {
        fill: #c2bac6;
      }

      .cls-12 {
        fill: #c3ada5;
      }

      .cls-13 {
        fill: #070d1c;
      }

      .cls-14 {
        fill: #9b59d0;
      }

      .cls-15 {
        fill: #2d2d2d;
      }

      .cls-16 {
        fill: #598dac;
      }

      .cls-17 {
        fill: #4d7796;
      }

      .cls-18 {
        opacity: .2;
      }

      .cls-19 {
        opacity: .5;
      }

      .cls-20 {
        fill: url(#Unbenannter_Verlauf_12);
      }

      .cls-21 {
        fill: url(#Unbenannter_Verlauf_11);
      }

      .cls-22 {
        fill: url(#Unbenannter_Verlauf_10);
      }

      .cls-23 {
        fill: url(#Unbenannter_Verlauf_2);
      }

      .cls-24 {
        fill: url(#Unbenannter_Verlauf_3);
      }

      .cls-25 {
        fill: url(#Unbenannter_Verlauf_4);
      }

      .cls-26 {
        fill: url(#Unbenannter_Verlauf_6);
      }

      .cls-27 {
        fill: url(#Unbenannter_Verlauf_9);
      }

      .cls-28 {
        fill: url(#Unbenannter_Verlauf_5);
      }

      .cls-29 {
        fill: url(#Unbenannter_Verlauf_7);
      }

      .cls-30 {
        fill: url(#Unbenannter_Verlauf_8);
      }

      .cls-31 {
        fill: url(#Unbenannter_Verlauf);
      }
    </style>
    <clipPath id="clippath">
      <rect class="cls-2" width="169" height="552"/>
    </clipPath>
    <radialGradient id="Unbenannter_Verlauf" data-name="Unbenannter Verlauf" cx="-183.76" cy="677.02" fx="-183.76" fy="677.02" r="1" gradientTransform="translate(1398.95 5004.36) scale(7.28 -7.3)" gradientUnits="userSpaceOnUse">
      <stop offset="0" stop-color="#dea88e"/>
      <stop offset="1" stop-color="#eed1bf"/>
    </radialGradient>
    <radialGradient id="Unbenannter_Verlauf_2" data-name="Unbenannter Verlauf 2" cx="-183.1" cy="676.57" fx="-183.1" fy="676.57" r="1" gradientTransform="translate(1397.86 4891.06) scale(7.12 -7.14)" gradientUnits="userSpaceOnUse">
      <stop offset="0" stop-color="#dea88e"/>
      <stop offset="1" stop-color="#eed1bf"/>
    </radialGradient>
    <radialGradient id="Unbenannter_Verlauf_3" data-name="Unbenannter Verlauf 3" cx="-157.59" cy="659.24" fx="-157.59" fy="659.24" r="1" gradientTransform="translate(656.59 2590.81) scale(3.84 -3.85)" gradientUnits="userSpaceOnUse">
      <stop offset="0" stop-color="#dea88e"/>
      <stop offset="1" stop-color="#eed1bf"/>
    </radialGradient>
    <radialGradient id="Unbenannter_Verlauf_4" data-name="Unbenannter Verlauf 4" cx="-156.15" cy="658.26" fx="-156.15" fy="658.26" r="1" gradientTransform="translate(685.53 2523.58) scale(3.75 -3.75)" gradientUnits="userSpaceOnUse">
      <stop offset="0" stop-color="#dea88e"/>
      <stop offset="1" stop-color="#eed1bf"/>
    </radialGradient>
    <radialGradient id="Unbenannter_Verlauf_5" data-name="Unbenannter Verlauf 5" cx="228.7" cy="396.74" fx="228.7" fy="396.74" r="1" gradientTransform="translate(-84.19 473.71) scale(.48 -.48)" gradientUnits="userSpaceOnUse">
      <stop offset="0" stop-color="#dea88e"/>
      <stop offset="1" stop-color="#eed1bf"/>
    </radialGradient>
    <radialGradient id="Unbenannter_Verlauf_6" data-name="Unbenannter Verlauf 6" cx="-149.45" cy="653.7" fx="-149.45" fy="653.7" r="1" gradientTransform="translate(523.05 2472.34) scale(3.35 -3.36)" gradientUnits="userSpaceOnUse">
      <stop offset="0" stop-color="#dea88e"/>
      <stop offset="1" stop-color="#eed1bf"/>
    </radialGradient>
    <radialGradient id="Unbenannter_Verlauf_7" data-name="Unbenannter Verlauf 7" cx="3683.6" cy="-1950.99" fx="3683.6" fy="-1950.99" r="1" gradientTransform="translate(-175.19 176.06) scale(.05 -.05)" gradientUnits="userSpaceOnUse">
      <stop offset="0" stop-color="#dea88e"/>
      <stop offset="1" stop-color="#eed1bf"/>
    </radialGradient>
    <radialGradient id="Unbenannter_Verlauf_8" data-name="Unbenannter Verlauf 8" cx="-115.14" cy="630.39" fx="-115.14" fy="630.39" r="1" gradientTransform="translate(266.72 1655.05) scale(2.18 -2.18)" gradientUnits="userSpaceOnUse">
      <stop offset="0" stop-color="#dea88e"/>
      <stop offset="1" stop-color="#eed1bf"/>
    </radialGradient>
    <radialGradient id="Unbenannter_Verlauf_9" data-name="Unbenannter Verlauf 9" cx="293.89" cy="352.45" fx="293.89" fy="352.45" r="1" gradientTransform="translate(-104.8 437.01) scale(.42 -.42)" gradientUnits="userSpaceOnUse">
      <stop offset="0" stop-color="#dea88e"/>
      <stop offset="1" stop-color="#eed1bf"/>
    </radialGradient>
    <radialGradient id="Unbenannter_Verlauf_10" data-name="Unbenannter Verlauf 10" cx="578.98" cy="158.71" fx="578.98" fy="158.71" r="1" gradientTransform="translate(-6.1 310.77) scale(.27 -.27)" gradientUnits="userSpaceOnUse">
      <stop offset="0" stop-color="#dea88e"/>
      <stop offset="1" stop-color="#eed1bf"/>
    </radialGradient>
    <radialGradient id="Unbenannter_Verlauf_11" data-name="Unbenannter Verlauf 11" cx="-196.3" cy="685.55" fx="-196.3" fy="685.55" r="1.01" gradientTransform="translate(2661.23 9029.65) scale(12.76 -12.78)" gradientUnits="userSpaceOnUse">
      <stop offset="0" stop-color="#dea88e"/>
      <stop offset="1" stop-color="#eed1bf"/>
    </radialGradient>
    <radialGradient id="Unbenannter_Verlauf_12" data-name="Unbenannter Verlauf 12" cx="-183.87" cy="677.1" fx="-183.87" fy="677.1" r="1" gradientTransform="translate(1421.09 5034) scale(7.31 -7.33)" gradientUnits="userSpaceOnUse">
      <stop offset="0" stop-color="#dea88e"/>
      <stop offset="1" stop-color="#eed1bf"/>
    </radialGradient>
    <mask id="mask" x="-2" y="-5" width="174" height="578.04" maskUnits="userSpaceOnUse">
      <g id="A">
        <path class="cls-7" d="m172-5H-2v578.04h174V-5Z"/>
      </g>
    </mask>
  </defs>
  <g class="cls-3">
    <g>
      <path class="cls-13" d="m133.89,537.05c-.47-1.91,2.15-9.35,3.6-10.36-3.93-2.16-12.79-18.48-12.74-22.69l-9.76-.51.04,8.92,10.38,8.72,3.39,9.25s5.09,6.67,5.09,6.67Zm2.63,2.4c1.69,1.94,15.67,12.44,20.99,8.79,4.9-1.3,11.39-6.31,11.39-12.21.44-1.88-2.69-10.12-6.12-11.28-1.31-.93-3.86-1.07-6.63-4.21s-13.89-21.68-13.89-21.68l-14.1,4.2c3.26,5.94,10.78,17.2,15.01,22.5-2.6,1.69-7.62,10.33-6.66,13.88h0Zm-79.06-29.67c-.09-2.09-2.69-5.83-4.77-6.49,3.04-2.78,16.83-24.29,16.95-29.51l8.97-2.9,2.62,12.08-13.16,14.07-7.93,7.53-2.69,5.21h0Zm-4.52,5.24c-6.29,6.06-20.24,7.53-27.62,5.16-1.92-6.53,1.54-15.28,4.71-19.71,2.57.82,6.4-1.55,7.2-3.86,0,0,9.38-20.08,9.38-20.08l17.85-1.58-11.56,19.4s-5.29,5.41-5.32,9.47c.44,4,5.07,3.99,5.35,11.2h0Z"/>
      <path class="cls-8" d="m115.03,512.14s-.42,5.18.11,5.58c3.75,2.77,12.04,8.6,12.04,8.6-2.91,14.53,20.65,30.06,35.28,24.7,2.2-.63,6.09-7.8,6.4-8.75.72-2.2.11-6.5.11-6.5-8.51,26.5-40.85,3.83-43.24-14.79l-10.71-8.85h0Zm-33.88-29.61s1.93,4.71,1.09,6.17c-1.31,2.26-4.56,5.42-9.96,10.36-5.78,3.9-4.78,5.95-4.78,5.95-4.26,13.24-27.77,28.01-42.71,19.98-1.33-.65.3-5.31.3-5.31,14.25,4.28,31.49-2.05,35.17-16.72.18.5,21.18-19.83,20.88-20.43h0Z"/>
      <path class="cls-11" d="m136.61,539.55s1.39-6.12,3.43-9.87c.58-1.06,1.41.99,2.91-.93,1.96-3.2-.28-3.23-3-7.69-3-3.75-8.69-12.88-11.15-17.09l-4.03.54c.44,4.79,7.74,17.33,11.3,21.5-.17-.23-4.01,9.07-3.65,9.3.93,2.08,4.18,4.23,4.18,4.23h0Zm21.36-15.48c1.03,1.11,3.75,2.51,4.75.57-4.84-6.41-14.08-19.72-18.44-26.49l-1.8,1.01c3.72,6.48,10.89,17.93,14.85,23.88m-104.48-8.12c.33.11,5.19-5.4,4.8-6.04.12-1.45-2.89-5.87-4.58-6.05l8.09-10.7c.71.17,9.33-18.02,8.6-18.49l-5.15.81s-8.38,13.81-8.38,13.81c-.55,2.21-12.83,15.96-9.88,18.83,1.45,1.05,2.27-.46,3.07.4,2.35,2.32,2.93,4.45,3.43,7.43h0Zm-23.02-13.77s-.02-.15.93.33c2.6,8.17,8.88-9.27,8.65-9.35,1.43-3.04,5.81-12.19,6.94-15.21l-3.83-1.42c.44.93-12.33,25.98-12.69,25.64h0Z"/>
      <g>
        <path class="cls-8" d="m155.47,518.63c-4.47.59-16.44.79-15.81,7.01-.08.32.45.52.53.16,4.44-4.5,11.06-3.5,16.87-3.22,3.87-.68,1.57-4.27-1.59-3.94h0Z"/>
        <path class="cls-8" d="m140.65,515.09c-1.75.18-6,.21-5.22,2.94.74,1.69,2.54.52,3.81.34,2.14-.11,4.34-.06,6.47.19,3.21.43,6.55,1.5,9.78,1.88.89.1,1.8.91,1.37-.6,1.12,1.29,2.35.52,1.75-.91-3.93-3.65-12.77-3.37-17.97-3.85h0Zm16.75,3.73c.51.18-.22.67-.56.72-.16-.38.25-.57.56-.72Z"/>
        <path class="cls-8" d="m148.06,510.93c-3.18-.5-14.35,3.92-12.41,7.83,1.59,1.18,4.55-3.19,6.69-3.47,2.95-.58,5.99-1.9,9.03-1.22.59.47,1.07-.16,1.56-.47.09.06.21-.14.09-.19.24-2.38-3.3-2.06-4.97-2.47h0Z"/>
        <path class="cls-8" d="m137.94,508.14c-2.38.34-9.16-.26-8.38,3.44.37.87,1.37,1.28,2.24.91,6.55-1.92,14.4-1.35,20.42,1.47.15.32.67.08.5-.25,1.85-4.61-11.72-5.71-14.78-5.57h0Z"/>
        <path class="cls-8" d="m144.88,502c-5.73.24-12.29,2.81-14.56,8.45-.23.66.08,2.1.91,1.19,2.46-2.71,5.98-4.37,9.47-5.29,1.15-.23,2.97-.21,4.16-.28,2.62.07,2.64-4.08.03-4.07h0Z"/>
        <path class="cls-8" d="m132.25,501.44c-2.36-.32-8.44,1.76-2.81,2.66,4.79-.04,11.31.2,16.03-.72.41-1.9-11.25-1.91-13.22-1.94h0Z"/>
      </g>
      <path class="cls-6" d="m149.1,249.94s0,4.28-.54,8.26c-.48,5.44,1.09,8.81.63,13.97-5.57-4.61-4.6,3.76-1.9,5.51-2.07,5.2,7.4,6.77,9.35,7.11,0,0,8.43-7.9,9.11-9.28.66-1.34.84-8.95,2.11-14.04-.36-6.48-2.73-14.42-3.56-20.17l-7.5,5.58-7.69,3.06h0Zm-129.59,10.68s.08,1.22,1.88,2.65c.92.73-.45,4.83.3,6.05,2.72,2.82,10.13,22.06-.99,12.23,0,0-2.63-3.54-2.63-3.54l2.32,18.09c-2.51-4.14-5.98-13.2-7.24-17.89,0,0-2.54-19.48-2.54-19.48,2.22.31,6.79,1.19,8.9,1.9ZM92.09,79.4c-5.18,4.81-14.56,15.58-18.82,21.25-4.07-3.87-12.31-11.81-16.28-15.72l2.29-3.32-.26-7.3c-.58.35-8.76-14.3-8.01-15.02-2.5,1.57-2.76-4.43-2.89-4.93-.97-1.22-.98-4.84-.98-4.84l7.78-8.62,13.17,4.22,17.33-.16,12.4-4.03,5.91,9.06c-.3.38,1.44,11.12-3.1,9.85.27,2.72-6.35,15.19-8.71,16.44,0,0,.15,3.12.15,3.12Z"/>
      <path class="cls-12" d="m58.9,74.37c4.36,4.44,9.14,13.95,16.1,15.97,1.16,0,10.03-4.26,10.03-4.26l4.08-4.12c2.04-.74,3.64-4.05,2.87-6.16-4.43,3.9-11.86,7.89-17.7,8.92l-7.67-3.99-7.7-6.35h0Z"/>
      <path class="cls-16" d="m139.33,257.71c8.65,42.76,5.04,152.71,12.45,197.77,0,0,3.83,20.04,3.3,23.7s-8.04,11.31-9.01,13.14c-1.27,2.42-.32,4.57-1.08,5.23-10.89,9.44-30.13,7.08-30.94,6.01-1.04-1.39-1.99-7.2-2.91-15.48-2.46-41.48-10.91-101.62-18.6-134.83,0,0-10.13-33.65-12.17-60.05-.23-3.01-3.38-.93-3.33-.36.94,12.77,1.44,50.16,1.44,50.16-1.68,2.19-1.16,86.41,1.27,88.36,0,0,4.56,31.76,3.69,36.42-1.08,5.86-22.16,7.68-29.85,9.37-12.31,2.93-20.75-10.8-20.75-10.8-.85-48.19,4.04-56.07-5.19-119.76-5.64-31.98-6.85-53.01-9.93-68.41-1.21-6.07,3.93,5.02,6.33,5.67,7.54,1.57-2.05-15.16-2.29-14.89l-.09-5.45-2.09-1.49.17-13.33,16.01,10.39,29.53,8.96,50.65,5.76,14.66-15.72"/>
      <g>
        <path class="cls-17" d="m88,274.15c7.49,4.08,16.48,15.39,28.07,12.45,9.01-.82,19.64-24.79,19.77-28.31-7.05,7.87-9.42,17.62-21.9,22.25-12.86,2.32-16.78-2.94-25.94-6.39Zm52.61,159.55s5.27-34.97,6.42-28.62c-.26,3.59,5.71,70.05,8.19,74.87l-5.75,6.89s-4.4,8.53-4.44,10.02c-1.93-1.64-.83-18.07-.89-21.29,0,0-.62-13.19-.62-13.19m-66.08-168.95l-4.96-3.59-7.27-2.93c4.23,1.78,9.03,30.63,8.55,31.31,0,0,1.54,7.08,2.18,13.23,1.1,9.59-.76,10.13,1.94,14.4.52-15.46-.05-37.03-.44-52.42h0Z"/>
        <path class="cls-17" d="m68.52,283.41c.77,1.59,0,3.72-2,3.91,2.38,1.05,8.13,3.71,10.1,5.35l-3.29-5.17-4.81-4.08Z"/>
      </g>
      <path class="cls-8" d="m127.36,270.18c-13.61,20.73-32.65,5.71-44.12,2.44-15.57-1.1-24.18-.72-37.69-8.63-8.68,1.85-23.21-13.15-25.52-15.88l54.41,11.35,63.07-4.14s-4.65,8.45-10.15,14.85Zm11.9-12.33c1.71,2.09,11.18,11.4,2.15,13.08l-2.15-13.08Z"/>
      <path class="cls-11" d="m139.57,250.05c-1.76,1.77,0,7.4,0,7.4-15.29,8.15-100.95,5.88-118.99-8.34-1.17-.91-.36,11.49-.36,11.49-13.92-1.15-12.97-3.08-10.81-15.57-11.55,3.09-8.95-8.48-5.73-12.58.52-13.24,2.17-42.51,2.99-55.97,1.83-27.13-3.41-22.95,3.14-54.36,4.73-17.78,16.25-33.29,29.3-33.02,1.91-13.1,21.25-12.95,20.46-7.25,0,0-2.66,2.64-2.34,2.9,5.52,4.57,15.79,15.61,15.79,15.61,0,0,13.19-16.93,18.3-20.45.72-.5.9-2.99.9-2.99,3.73-2.76,15.12-4.29,20.09,3.15,1.64,2.19,1.14,5.12,2.51,5.32,37.95,8.22,25.49,41.72,32.97,67.03,3.49,12.68,5.24,12.12,10.08,29.18,6.4,22.05,13.26,36.31,6.27,47.87,0,0,4.5,8.15,3.09,9.61-6.33,6.64-25.46,19.7-23.08,2.49,0,0-2.25.76-4.31-1.4"/>
      <path class="cls-10" d="m125.69,220.74s5.69-10.54,5.1-12.71c-1.06-2.83.83-19.78,3.32-20.29l2.6,1.73c-3.44-1.82-11.65-77.46-11.7-78.03.79,31.81,2.21,77.75.67,109.3h0Zm-.99-107.9l.29,20.08-24.42,61.8s24.12-81.89,24.12-81.89Zm-32.42-35.92s-.32,2.53-.72,2.7c-.78.32-6.55,6.4-6.55,6.4.36-.7,5.61-2.66,6.74-2.11,3.17-4.42,12.83-7.04,17.73-6.34l-6.29-2.73s-6.6.05-6.6.05c0,0-4.31,2.04-4.31,2.04Zm51.73,164.46l.22,3.46c4.5.7,20.72-1.38,23.27-6.92-1.05-2.45-2.89-7.5-3.69-10.05-3.17,3.26-10.32,9.11-14.05,11.75,0,0-5.75,1.76-5.75,1.76h0Zm-134.72,4.41l-.49,4.2c.9,1.51,9.6,5.78,11.29,5.1.34-3.67-.02-9.03-.59-12.64-2.46.81-7.72,2.53-10.21,3.35Zm130.2,3.45c-10.38,2.33-32.4,6.68-42.82,7.9l1.32,2.11c12.2-.58,29.31-.99,40.82-5.27l-.36-1.96,1.04-2.78h0ZM13.63,137.11c3.28,11.67,5.29,29.45,8.53,44.67,1.34,4.64.2-11.41.2-11.41-.95-11.55-1.53-35.52-.2-46.93,7.62,28.25,8.63,62.32,2.82,90.94-3.72-20.29-9.34-48.68-11.29-69.14m60.68-37.33c1.77,8.19,20.19-8.43,20.85-8.56,3.3-3.47,11.24-11.85,14.28-15.39-4.68,3.72-13.88,11.55-18.17,15.65-4.48,3.15-11.19,8.43-16.96,8.3Z"/>
      <g class="cls-19">
        <path class="cls-31" d="m65.57,65.71c4.51-6.38-10.06-14.31-11.47-3.65-1.38,10.4,14.76,9.48,13.36.41"/>
        <path class="cls-23" d="m96.51,69.36c6.93-9.12-5.29-21.74-9.46-7.22-2.05,7.14,1.61,13.87,7.25,8.57"/>
        <path class="cls-24" d="m53.48,54.66c.59-1.78-.93-10.04-4.57-6.91-7.3,6.27,8.89,15.25,5.23,4.98"/>
        <path class="cls-25" d="m101.08,47.94c-12.38-5.47,5.69,22.49,2.79,3.74l-2.79-3.74Z"/>
        <path class="cls-28" d="m25.61,283.3c1.25.45.96-1.83.87-2.56l-.87,2.56Z"/>
        <path class="cls-26" d="m25.53,277.19c-5.79-12.77-11.19.94-.91,5.9l.91-5.9Z"/>
        <path class="cls-29" d="m26.11,283.19l.11-.59-.11.59Z"/>
        <path class="cls-30" d="m18.27,283.36c-1.85-18.13-8.08-4.04-1.19,3.06l1.19-3.06Z"/>
        <path class="cls-27" d="m18.28,286.69c.66.9.6,2.79.84,3.9l-.84-3.9Z"/>
        <path class="cls-22" d="m149.35,264.2l.54,7.61-.54-7.61Z"/>
        <path class="cls-21" d="m150.15,274.31c-1.88,17.96,13.96,7.33,15.78-.15,1.72-10,3.97-36.8-16.45-15.68"/>
        <path class="cls-20" d="m69.21,73.27c4.09-.57,10.58-.71,14.68-.91-6.55,4.62-7.89,2.53-14.68.91h0Z"/>
      </g>
      <path class="cls-5" d="m81.07,45.42l.06,4.26,1.12,2.41c-7.18-2.69-2.31,1.41-3.6,4.32-.63.3-3.49-4.24-3.15-4.78l-3.01,1.65,1.62-4.46.03-3.56s6.93.16,6.93.16Zm-25.92-4.82s-1.13,3.17-1.67,6.17.77,5.96.14,6.24-2.65-5.11-2.65-5.11c-.93.44-4.25,1.51-4.59,2.65,1.13,2.96-.28,3.02-1.46-.05-.43-1.55-2.04-1.73-2.04-1.73l-1.71-1.02,2.8-.43-4.71-1.48,3.14-3c-1.13-1.62-3.87-3.67-2.95-6.19.8.08,1.39,2.64,3.38,1.65l1.5-6.04m52.15,9.3l4.5,5.34,2.99,8.09c1.71-.63,1.2-5.62.69-6.28,0,0,2.27,3.89,3.33,3.83s-.4-2.44.9-4.08,4.21-1.63,4.3-2.51-3.93-1.01-3.93-1.01l2.6-1.52.88-4.07-5.39-2.21,3.45-2.37-3.95-.51-1.6-1.19-8.75,8.49h0Z"/>
      <path class="cls-13" d="m107.05,34.36c-11.54,18.09-47.75,13.23-61.25,1.07-3.89-3.09-1.21-19.88,3.81-20.56C62.51.99,74.35-3.25,91.57,4.24c0,0,10.41,4.86,11.15,10.14.42,2.98,1.96,1.07,3.65,5.45.73,1.88,3.23,10.01.68,14.53Z"/>
      <path class="cls-8" d="m94.43,50.23c-2.06,2.71-6.86,4.52-10.16,2.32l-.26-1.52c2.4-2.87,7.79-2.63,10.42-.81Zm-25.31,1.72c-2.69,1.68-8.69,1.91-10.8-1.58,1.85-1.65,8.06-2.94,10.41-.84l.38,2.42h0Z"/>
      <g class="cls-4">
        <g>
          <path class="cls-13" d="m164.22,243.04c-.64,6.34,4.22,14.04,3.12,20.66,2.12-3.9-1-9.31-1.31-13.65-.84-2.09-.23-5.64-1.81-7.01h0ZM87.82,52.04c1.39-.28.97-2.92.64-3.29-1.11.22-3.1,1.05-3.99,1.75.32.62,2.09,2.6,3.35,1.54h0Zm-24.62-.25c1.39-.28.97-2.92.64-3.29-1.11.22-3.1,1.05-3.99,1.75.32.62,2.09,2.6,3.35,1.54h0Zm95.22,213.49s-.05,1.72,1.18,1.99c1.02.37-2.66,5.62-.19,7.19-1.16.06-3.74,3.84-3.58,4.52-.11-2.41-3.45,1.55.45-4.41-.02-2.78.43-7,2.15-9.3h0Zm-31.27-73.7c-.61,2.85,1.27,6.25,1.66,9.24,1.05,6.45,2.82,15.92,3.91,22.35,1.97,18.05,9.14,25.47,24.53,11.61,2.58-1.63,13.11-14.1,4.44-5.29-20.76,20.22-25.76,10.05-28.66-13.77-1.09-5.31-2.02-21.22-5.88-24.14h0Z"/>
          <path class="cls-13" d="m139.87,240.79c-1.46,1.23-.24,4.99-.34,6.7.21,1.66-.89,2.89-1.25,4.41-.17,2,.59,4.59,1.25,6.42.45-1.96-.72-4.03-.59-6.07,1.51-3.43,2.23-7.93.94-11.46h0Z"/>
          <path class="cls-13" d="m139.06,257.41c.41,1.99,2.94,4.51,4.13,6.26,2.99,4.19,1.95,5.7-2.34,7.54,5.93.8,5.83-5.36,2.87-8.89-1.29-1.69-2.77-4.16-4.66-4.92h0Z"/>
          <path class="cls-13" d="m139.09,258.1c1.02,21,6.64,42.75,5.31,64.34.01,7.93.06,30.83-.03,38.44.62,3.78-.85,13.5,1.62,15.56,2.06-1.62-.14-12.17.5-15.59,0,0-.13-25.67-.13-25.67.64-25.63-2.53-52.32-7.28-77.08h0Zm7.72,119.81c-2.78,23.7.82,50.17,3.38,73.98.74,6.29,3.29,22.09,4.41,28.05-.79,2.59-3.74,3.79-5.19,6.01-2.33,3.15-4.38,7.41-4.59,11.18,1.71-3.52,2.97-7.75,5.84-10.8,1.62-2.11,4.49-3.46,5.06-6.23-2.44-12.11-3.94-24.53-5-36.91-2.68-21.49-2.23-43.88-3.91-65.27h0Zm-9.41-126.89c-7.44,3.3-15.78,3.59-23.66,4.76,2.59.67,26.77-2.11,23.66-4.76h0Zm-35.84,6.14c-3.49.05-1.36.02-4.97.03-.88.09-.79,1.52.13,1.41.02,0,2.44-.57,2.47-.57.19-.05-.78.15-.59.09l1.5-.38c-1.11.29,0,.01,1.5-.31.18-.02.15-.3-.03-.28Zm-58.56-3.54c.61,2.6,11.3,3,14.12,3.79,11.54,1.47,23.83,1.68,35.41,1,.41-.02.41-.68-.03-.66-7.6.17-15.22.09-22.81-.38-9.01-.37-17.79-2.99-26.69-3.76Zm-22.31-15.12c-5.85,9.62,5.34,14.72,13.16,15.9-6.92-5.47-16.3-3.53-13.16-15.9h0Zm14.44,16.25c5.24,1.8,13.4,3.7,19.12,4.26-6.09-1.49-12.84-2.75-19.12-4.26h0ZM7.03,172.38c-1.05,14.09-3.09,40.82-3.56,55.07,1.06,6.07-3.7,9.93-3.13,15.03,2.01,6.17,10.29,3.46,14.78,1.97,11.78-5.59-11.49,4.31-13.22-1.31-2.09-4.34,3.42-8.29,2.41-13.02,0,0,.28-3.95.28-3.95.7-7.73,2.02-23.83,2.5-31.49.4-6.89,1.61-15.55-.06-22.29h0Zm15.31-53.63c-2.3,4.11-.17,13.56-.53,18.5,1.86,32.37,4.37,68.27-1.12,100.02,8.46-33.18,3.35-69.61,2.85-103.72-.52-3.7.8-11.84-1.19-14.81Zm108.81,146.45c-1.06-.97-2.94,3.09-3.53,3.47-.64.69-1.82,2.15-2.37,2.91-5.77,7.23-14.36,11.31-23.5,8.17,0,0-3.69-.97-3.69-.97,12.43,7.98,26.09-1.09,33.25-12.52.25-.34.18-.81-.16-1.06h0Zm5.53-7.95c-.39-.44-2.23,2.59-2.47,2.69-.31.4.3.85.59.44.03-.24,2.34-2.92,1.88-3.13Zm-73.16,13.43c-3.79,3.42,23.06-.58,26.78,4.76-6.79-6.48-18.19-2.74-26.78-4.76Zm-11.12-3.35c-.18-.1-.34.19-.16.28,2.72,1.42,6.58,3.29,9.63,3.69,2.45-1-8.46-2.87-9.47-3.97Z"/>
          <path class="cls-13" d="m125.06,107.23c-.57-.12-1.13.24-1.25.81-1.46,6.94-3.09,13.84-4.91,20.69-5.91,23.96-16.03,49.01-20.13,73.32,7.93-30.92,22.71-63.97,26.28-94.83h0Z"/>
          <path class="cls-13" d="m125.03,109.24c-1.76,37.01,3.01,75.43.56,112.39,4.17-31.8-.02-66.78.19-99.08-.26-4.08.24-9.49-.75-13.31Zm-26.09,97.58c1.56,6.48,5.61,15.92,11.66,18.47.25-.28.22-.7-.06-.94-5.96-4.22-8.86-11.14-11.59-17.53h0Zm11.16,19.13c-3.22,2.96-6.08,11.36-4.97,15.4,1.61-1.76.86-5.6,2.03-7.98.55-2.59,2.36-5.05,2.94-7.42Zm-55.63-19.66c-.68-.08-.83,1.03-.12,1.1,14.15,1.13,28.97,3.03,42.81-.56-14.05,1.7-28.55,1.23-42.69-.53Zm-3.78,34.56c9.89,4.18,43.1,5.88,53.75,1.97-17.21.82-36.18,2.42-53.75-1.97h0Zm-9.03-15.56c3,4.24,7.28,9.21,8.03,14.96,1.77-2.91-4.71-14.14-8.03-14.96Z"/>
          <path class="cls-13" d="m53.34,208.01c-3.15,6.15-6.36,13.16-11.5,17.69,6.13-2.36,9.31-11.77,11.5-17.69h0Zm57.87-124c-1.3.03-2.7.47-3.84.97-.63.55-.32,1.31.53,1.22,1.78-.85,4.27-1.95,6.12-.85,0,0,.88,0,.88,0-.74-1-2.4-1.42-3.69-1.35Zm-30.81,208.15c2.78,38.49,16.9,78.19,21.72,117.02,4.76,30.01,7.6,63.22,10.72,93.45.05,3.26,13.08,3.13,11.78,1.41-3.19-.73-6.91.62-9.78-1.25-3.23-24.3-4.68-52.83-8.44-77.26-5.15-43.72-19.44-90.26-26-133.36Zm-1.69-.78c-2.42.04-2.59,3.54-1.59,5.13,1.21-1.05-.05-3.93,2.09-4.13.34-.88.37-.95-.5-1Zm-1.72,6.73c2.15,42.04-2.7,85.13,1.41,127.42,1.19,13.38,3.04,26.69,4.72,40.01,1.27,6.26-7.27,5.87-11,8.27-.35.1-.12.7.22.56,3.77-1.02,8.42-.96,11.22-4.04,2.35-2.92-.14-7.69-.12-11.08-2.43-19-5.55-43.73-5.78-62.68-.85-32.32,3.4-66.68-.66-98.46Zm-44.09,160.63c-3.26,7.98,6.51,20.67,15.19,18.19-10.25-2.18-14.74-7.82-15.19-18.19h0Zm48.16,23.92c-.21,1.59,1.45,3.32,1.16,4.95-.41,2.83-3.96,4.25-4.69,6.86,2.13-.92,4.38-4.04,5.22-6.42.1-1.82-.79-3.92-1.69-5.39Zm-14.06,16.84c1.97,11.9-9.89,16.98-16.95,23.21,7.16-1.17,21.77-15.18,16.95-23.21h0Z"/>
          <path class="cls-13" d="m71.88,499.06c-1.06.89-3.26,2.65-4.38,3.44v.5c-.17.03,7.1-4.3,4.38-3.94h0Zm-46.78,20.79c-3.56,7.25,7.7,9.04,12.56,7.58-5.27-1-14.29.73-12.56-7.58h0Zm89.97-7.36c-2.42,5.61,2.58,7.49,6.31,10.24,1.84,1.1,3.93,3.04,6.03,3.57-3.62-3.05-9.1-5.51-12.37-9.02-.54-1.53.38-3.27.03-4.79h0Zm11.94,14.68c-1.65,6.09,2.91,12.45,7.69,16.03,3.43,2.79,7.2,6.74,11.81,7.07-9.24-3.61-20.22-12.29-19.5-23.1h0Zm41.78,9.49c1.64,10.24-6.12,15.45-15.62,15.12,8.82,3.35,18.7-6.44,15.62-15.12h0Zm-109.41-250.64c5.82.96,12.85,3.15,17.69,7.42-3.83-5.31-11.39-7.05-17.69-7.42h0Z"/>
          <path class="cls-13" d="m56.66,275.75c5.98,4.51,16.24,9.06,20.03,17.28-2.68-8.35-12.33-13.84-20.03-17.28Zm7-4.13c-.99,3.09,4.66,11.51,7.47,12.74-1.76-4.13-4.62-8.27-6.53-12.37-.15-.36-.58-.53-.94-.37Zm10.03,1.47c-.56,1.38,7.88,18.1,8.03,13.34-2-3.06-6.23-10.36-8.03-13.34h0Z"/>
          <path class="cls-13" d="m85.03,282.51c-3.16,1.99-6.43,6.63-4.47,10.27-.11-4,2.26-7.09,4.47-10.27h0Zm16.5-193.07c-2.64,3.58-27.97,26.84-27.91,14.72-3.71,14.95,26.66-9.91,27.91-14.71h0Zm-62.91-1.16c-2.36.42-.75,1.44.72,1.38,12.94,1.73,18.66,23.26,33.06,18.5-14.81,1.28-19.7-18.55-33.78-19.88Zm51.16.19c-5,4.45-9.2,11.64-16.34,12.24,7.11.52,12.08-7.44,16.38-12.24,0,0-.02,0-.03,0h0Z"/>
          <path class="cls-13" d="m74.56,98.81l-.16.53s.07-.09.06-.06c-.27,1.23,0,0,.25-.31.1-.1-.06-.26-.16-.16h0Zm-.16.53c-.29.23-.36,1.23-.41,1.57.07-.61.19-.9.41-1.57Zm-.25.41c.08-.47.22-.97-.16-.37-.77.74-1.08,1.77-.91,2.82.02.13,0,.53.06.41.62-1.48-.12.52.34.34l.62-1.97c.2-.51-.32,1.04-.56,1.53-.16-.76.14-1.99.59-2.75h0Zm-21.22-21.85c-5.91-.08-13.11,3.85-14,10.11-.05.41.63.53.69.09,1.71-8.17,12.64-12.06,19.47-7.79-1.18-1.84-4.08-2.33-6.16-2.41h0Zm46.03-3.7c-2.06.13-5.4.69-6.13,2.75,7.27-4.11,18.94-1.23,21.13,7.8.62-6.54-8.91-11.05-15-10.55h0Zm-21.75,29.02c5.89,7.97,6.8,20.68,3.19,30.62-.04.06.08.16.12.09,6.23-6.58,4.74-25.63-3.31-30.71Zm-6-.09c-5.92,8.04-5.99,28.05-1.84,37,.89-4.91-1.37-10.39-1.12-15.53-.81-7.31,1.63-14.73,2.97-21.48Zm-36.22-13.68c-30.68,11.11-29.99,53.78-28.16,80.86.22-27.95-2.33-68.41,28.16-80.86h0Zm79.53-4.13c31.86,11.38,26.78,22.08,30.41,52.09.02.31.51.26.47-.06.02-3.14-.47-6.3-.78-9.42-1.36-25.39-3.96-34.87-30.09-42.61h0Zm30.66,54.57c2.96,18.89,10.89,37.3,16.28,55.66,2.74,8.54,6.83,19.31,4.78,28.02,5.52-7.02-1.33-17.92-3.22-25.67-5.27-17.77-13.53-40.27-17.84-58.01h0Zm18.78,88.75c-.37,3.14,3.68,6.47,3.19,9.67-5.08,5.58-12.28,10.38-20,10.96-3.12.32-1.9-3.96-2.53-5.85-1.2-2.76-.79,1.61-.72,2.57-.03,11,21.61-2.46,23.66-7.48.43-3.42-2.66-6.73-3.59-9.86ZM9.34,246.3c-2.87,12.93-2.78,13.25,10.44,14.74,1.55-.62-2.6-.87-2.72-.97-12.64-.71-7.8-4.94-7.72-13.78Z"/>
          <path class="cls-13" d="m19.41,260.82c-.06-.03-.1.61-.13.63,3.56,3.48,1.52,2.67,2.03,7.01,1.36,2.86,4.05,7.33,5,10.42,1.06,3.91-.17,7.11-3.81,3.07-.69-.71-1.62-1.73-2.28-2.47-.04-.02-.88-1.43-.91-1.1,1.4,3.31,8.47,10.07,7.94,2.28-.51-3.09-2.67-6.61-4-9.42-3.41-4.66,1.15-6.13-3.85-10.43Z"/>
          <path class="cls-13" d="m14.15,270.18c-.4.17,2.54,3.8,2.5,3.98.59.83-1.16-1.75-1.94-2.41.23,1.04,2.39,3.84,3.31,5.13-1.29-2.32.08.22,1.22,1.07.07-.07-2.43-3.85-2.44-3.91-.53-.86,1.14,1.67,1.75,2.47-.44-.59-2.53-4.03-3.31-5.07,1.36,2.46-.1-.59-1.09-1.25h0Zm-3.47-10.27c-.38,2.38.67,5.52.88,7.95,0,0,1.47,10.92,1.47,10.92.04.44.73.39.69-.06-.6-6.27-1.2-12.87-3.03-18.81Zm2.69,19.38c1.6,6.15,4.2,12.49,7.66,17.94-3.12-5.72-4.55-12.33-7.66-17.94Z"/>
          <path class="cls-13" d="m17.78,278.16c2.86,28.95,9.14,62.88,13,91.73-2.32-27.84-9.19-63.41-13-91.73Zm13.44,94.17c-.25.03-.46.25-.44.5l1.59,22.85c1.79,20.72-1.02,41.96.53,62.42.21-28.16,3.29-58.21-1.69-85.78h0Zm95.9-191.78c5.53,7.92,19.3,19.38,20.41,1.97-3.3,17.26-13.49,4.78-20.41-1.97h0Zm29.19,29.74c-2.73,2.89-5.76,6.91-8.87,9.61-7.67,6.88-11.85,3.17-14.44-4.48,2.37,17.14,20.19,4.66,23.31-5.13h0ZM16.56,116.31c-9.62,29.99,3.99,62.13,6.03,92.42.09,0,.6,9.35.84,9.08,1.98-33.34-16.26-68.12-6.88-101.49Z"/>
          <path class="cls-13" d="m10.81,120.57c-3.03.8-1.32,3.99,1.41,3.16.61,1.47.2,3.2,1.81,4.04,2.26.89,5.15,1.48,7.38,2.41.09.21.47.1.38-.14-.03-2.94-3.56-4.3-5.85-5.25-.28-2.7-2.3-4.79-5.12-4.23h0Zm131.63,3.6c-3.95-1.48-23.57,17.09-14.81,14.65,4.18-5.78,9.68-10.59,15.72-13.9.08,0,.09-.17,0-.16-.3-.2-.56-.51-.91-.6h0Zm6.62,126.13c-2.1,6.73.19,14.12.13,21.07.19,1.8-.71,6.97.37,8.51,2.17,1.69,5.1-.98,6.13-2.91,1.57-3.99.3-8.44,3.22-12.02.47-.73.96-5.5-.13-4.67.02,1.47.02,3-.53,4.38-3.01,3.51-1.6,8.01-3.12,11.96-.87,2.22-5.96,5.01-5.19.69.12-5.25-.05-12.49-1.03-17.65-.35-3.07.77-6.46.16-9.36h0Zm18.22,13.62c-1.5,2.65-1.14,7.73-1.81,10.89,1.11,2.91,1.73-10.19,1.81-10.89Z"/>
          <path class="cls-13" d="m166,275.44c-12.97,11.34-10.01,12.48,0,0h0Zm-18.75,2.38c-1.53.23-.96,2.83-.06,3.6,2.4,1.82,5.92,3.43,8.87,3.29.06.02.09-.08.03-.1-1.86-1.46-5.14-1.15-7.22-2.69-.88-.51-1.54-1.49-1.59-2.5.06-.6.43-1.14-.03-1.6Z"/>
          <path class="cls-13" d="m147.56,277.63c-.23.06-.28.36-.34.53.33-.08,2.8.13,1.91-.5l-.13-.16-.28.16c-.38.04-.79-.14-1.16-.03h0Z"/>
          <path class="cls-13" d="m146.53,272.84c-1.9,1.02-.5,4.3.97,5.16-1.11-1.4-2.58-5.98.75-4.22,3.15.96-.73-1.65-1.72-.94Z"/>
          <path class="cls-13" d="m146.72,270.59c-2.23-.09-1.99,2.85-1.37,4.29.06.53.15.5.41.38-1.28-2.96.32-5.98,3.09-2.82h.93l-.16-.35h-.36c-.63-.75-1.52-1.43-2.53-1.5h0ZM58.66,73.14c-.28-.07.05,2.16,0,2.25.15,1.37.16,3.6.41,4.92.59-1.68.47-4.26.16-5.95-.07.09-.04-.7-.56-1.22Zm-11.53-23.39c-.42,2.18.66,4.48,1.19,6.61.25,1.46.35,3.25,2.28,3.13.39-.05,0-.37-.19-.41-1.45-.79-1.03-2.7-1.78-3.98-1.23-1.5-.87-3.75-1.5-5.35h0Zm53.75,6.48c-1.69,13.89-11.57,24.73-25.31,28.36,13.11-2.02,25.82-15.05,25.31-28.36h0Z"/>
          <path class="cls-13" d="m104,55v-.5c-.76,2.05-.3,5.5-3.5,5-.09.19.05.37,0,.5,2.66.54,3.73-2.55,3.5-5h0Zm-57-5s.51-.41.5-.5c-.12-.02-.88.44-1,.57-.62.75.11,1.91.13,2.78.57.59.21-.88.13-1.13-.24-.61-.56-1.42.25-1.73h0Z"/>
          <path class="cls-13" d="m43.19,48.81s0,.03,0,.03c.61.47,1.48,1.25,1.78,1.97.09.25.86,2.18,1.72,2.13.02,0,.11-.06.06-.09-1.04-1.2-1.16-1.48-1.25-1.63-.14-.55-.83-1.56-1.12-1.82.03.03-.09-.08-1.19-.59Zm-.91-5.88c-.57.23-1.61,1.21-2.09,1.72-.42.49-.49.3-.84,1.19.96-.21,1.77-1.28,2.44-1.97,0,0,.01.01.59-.85.06-.06-.03-.16-.09-.09h0Z"/>
          <path class="cls-13" d="m44.04,47.38c-3.04-2.17-7.73-2.71-1.06-.06,0,0,0,.02,1.02.18.08.03.13-.1.04-.12h0Zm66.81-12.36c-.84.24-1.97.74-2.73,1.17-.49.31-.61.16-1.1.81,1.08-.1,2.24-.81,3.18-1.34,0,0,0,0,.08-.05-.06.01,1.03-.66.57-.58Z"/>
          <path class="cls-13" d="m112.56,39.26c-3.7-2.64-9.43-3.33-1.29-.07,0,0,0,.02,1.24.22.1.04.15-.12.06-.15h0Zm-1.63-4.54c-4.28-1.52-9.98-.6-1.26.29,0,0,0,.02,1.25-.13.1,0,.12-.16.01-.16h0Z"/>
          <path class="cls-13" d="m112.73,39.06c-1.23,2.72-.9,6.56.12.87,0,0,.01,0-.02-.85.01-.07-.09-.09-.11-.02h0Z"/>
          <path class="cls-13" d="m111.92,43.34c-2.53.77-4.6,2.88-.44.5,0,0,0,0,.5-.44.05-.04-.02-.09-.06-.06Zm-71.48-3.67c-.43.37-.37-4.43-1.44-2.67-.18,1.83.84,3.43,2.03,4.74.16.32,1.72,1.76,1.22.72-.64-.81-1.35-1.78-1.81-2.79h0Z"/>
          <path class="cls-13" d="m43.84,33.35c-.69,3-.87,7.72-4.34,3.15.1.33.4.9.69,1.11,2.84,3.18,3.72-1.06,3.81-3.44.05-.31.78-2.31.5-2.16-.49.26-.61,1.34-.66,1.35h0Zm61.06,15.96c-.19.89-.17.85-.16.6.2,1.34.53,2.73-.19,4.01.01.23-.6.93-.56,1.08,1.6-.9,1.95-4.36.91-5.68Z"/>
          <path class="cls-13" d="m108.09,51.13c-.47,3.08-2.72-1.97-3.59-2.63.1,1.12,3.58,6.16,4.06,3.07l-.47-.44h0Z"/>
          <path class="cls-13" d="m109,45c-.05.63-.1,3.51-.5,4-.17.46-.71,1.76-.25,2.1.89-3.7,2.62-3.22,5.06-5.1-.62-1.32-3.11-1.15-4.31-1Zm-.88,5h0l-.06.47s.06-.47.06-.47Zm.88-5c1.26.06,3.12-.04,4.03.87-1.21,1.04-3.64,1.3-4.23,2.35,0,0,.2-3.22.2-3.22Zm33.59,405.01c.56,14.88,1.45,30.62,1,45.24,2.86-13.57.18-31.18-1-45.24h0Zm-6.25-68.69c-10.14,8.79-12.22,8.22-24.56,4.35,8.9,4.63,19.53,4.58,24.56-4.35h0ZM84.03,72.11c-4.62,2.92-10.68-.31-15.41,1.44,4.3-1.26,11.78,2.5,15.41-1.44h0Zm-21.53-27.2l-3.47.28c-1.2.06-1.1,1.95.11,1.85,4.51-.71,9.22-1.47,12.76,1.82-.95-3.83-5.84-4.18-9.41-3.94h0Zm26.03.09c-1.9.43-5.36,1.7-5.16,3.6,3.84-3.96,9-.8,12.72-1.75-.64-2.03-5.63-2-7.56-1.85h0Zm-22.44,3.04c-2.27-.36-7.71.19-8.03,2.94,3.23-1,8.75-4.32,11.13.19.01.07.13.02.13-.03.69-1.7-1.95-2.89-3.22-3.1h0Zm22.03.56c-1.47.27-4.74,1.52-4.63,2.94,3.47-3.5,7.2-3.08,11.25-.97,1.85-1.29-5.56-2.54-6.63-1.97h0Zm-37.34,8.45c.11,12.15,12.33,23.67,23.44,27.74-11.79-5.15-20.4-15.58-23.44-27.74h0Zm93.81,440.88c4.36,9.14,11.98,18.36,18.28,26.74-6-8.68-12.64-18.29-18.28-26.74h0Zm-102.41-21.88c-3.38,8.15-8.35,16.81-12.47,24.76.42,1.95,2.33-2.31,2.75-2.91,3.77-6.86,8.28-14.26,9.72-21.85ZM80.56,66.03l-1,.75c-.15.07-.71.24-.78.41-.87,1.17,1.55-.09,1.91-.31.04-.14.74-.98-.12-.85h0Zm-7.03-.47c-.13.22.16.42.25.58.1.25.52.68.72.86.07-.02,1.22.64,1,.25v-.25c-.16-.36-.68-.83-1.03-1,.11.16-.55-.56-.94-.44h0Zm5.78-9.86c-.2,2.25-.23,4.56.09,6.79.69,2.99-.15-6.5-.09-6.8h0Z"/>
        </g>
      </g>
      <g>
        <path class="cls-8" d="m102.78,16.38c.41,3.75.12,7.11-3,9.89-.25.29-.2.72.09.97,3.7-.47,5.2-8.15,2.91-10.86h0Zm-52.56-.63c-5.08,8.53,7.21,19.34,15.62,17.75-8.52-1.32-18.13-8.03-15.62-17.75Zm-14.34,478.61c-1.15-.25-2.28.48-2.53,1.63.13,4.52,8.06,2.56,11.03,4.73,1.87.41,3.24,2.68,5.1,2.29.1.12.25,0,.16-.12,1.06-3.95-10.57-7.7-13.75-8.52Z"/>
        <path class="cls-8" d="m44.56,492.99c-2.56.13-9.41-.89-9.41,2.66.53.25,1.06.73,1.59.22,5.46-1.79,11.66.82,16.94,2.28,2.68.52,3.49-3.76.77-4.22-3.32.06-6.55-1.06-9.89-.94Z"/>
        <path class="cls-8" d="m40.41,486.07c-.92-.23-1.86.33-2.09,1.25-.24,2.97,4.35,2.59,6.19,4.01,0,0,5.59,2.38,5.59,2.38,1.24.53,3.53,2.33,4.78,2.63.02.14.24.11.22-.03,2.17-4.78-10.94-9.51-14.69-10.24Z"/>
        <path class="cls-8" d="m59.19,483.85c-6.23,2.12-15.35-2.51-20.03,3.1,6.5,0,13.42,1.03,20.06.94,2.09-.18,4.3-3.96.84-3.76-.29-.09-.57-.25-.88-.28Z"/>
        <path class="cls-8" d="m44.38,477.8c-.24.02-.46.19-.69.28-1.8-.57-2.65,2.26-.84,2.79.65,1.29,3.18.96,4.41,1.31,4.15.68,8.69.55,12.41,2.79.37.54.96.38,1.53.31.01.03.08-.02.06-.03.57-5.18-13.12-6.23-16.88-7.45Z"/>
        <path class="cls-8" d="m63.75,475.36c-4.48.41-10.62,1.58-15.09,1.94,0,0-3.59.53-3.59.53-.84.05-1.53.19-1.84,1.06-.29.02-.28.47.03.44,1.28,1.88,12.09.29,14.84.19,1.19-.16,4.72-.78,5.88-.53,2.35-.12,2.16-3.81-.22-3.63h0Z"/>
      </g>
      <g class="cls-18">
        <path class="cls-13" d="m107.91,33.23c-3.99,12.85-19.84,14.01-32.4,14.55-5.9.23-18.14-3.33-21.06-4.26,0,0-7.25-4.84-7.25-4.84l-2.6-6.1,10.88,7.59,16.41,4.37,16.39-.57,9.81-2.44c2.59-1.74,7.93-5.83,9.82-8.31h0Zm-60.22,444.14c1.96,5.46,10.07,5.63,15.79,6.47,0,0-4.95,5.9-9.33,14.2-1.25,2.36,1.78,1.61.48,5.71-4.07,10.23-9.03,12.63-8.67,21.53,5.94-3.74,11.16-5,16.54-12.28,4.98-2.99,5-10.5,5-10.5,3.82-1.67,12.24-10.25,15.05-14.13.11-.83-2.23-7.67-2.23-7.67l-1.33-8.39c-7.7,1.61-23.55,4.31-31.31,5.05h0Zm82.82,26.61l7.13,2.14,9.93,1.28,4.67,2.47-7.41-11.73c-3.42,1.74-10.66,4.64-14.32,5.85Z"/>
      </g>
      <path class="cls-9" d="m101.9,107.28l3.03-.29,2.96.71,2.78,3.2-11.97-.84s3.2-2.78,3.2-2.78Z"/>
      <path class="cls-15" d="m101.06,119.25l2.96.71,3.03-.29,3.2-2.78-11.97-.84s2.78,3.2,2.78,3.2Z"/>
      <path class="cls-14" d="m97.99,113.02l12.97.91-.71,2.96-11.97-.84-.29-3.03Z"/>
      <path class="cls-7" d="m97.99,113.02l12.97.91-.29-3.03-11.97-.84-.71,2.96Z"/>
      <path class="cls-1" d="m104.92,106.99c8.42.47,7.5,13.68-.91,12.97-8.42-.47-7.5-13.68.91-12.97Z"/>
    </g>
  </g>
</svg>