<svg xmlns="http://www.w3.org/2000/svg" xmlns:xlink="http://www.w3.org/1999/xlink" width="169" height="552" fill="none"><style><![CDATA[.B{fill:#070d1c}.C{fill:#fff7f7}]]></style><g clip-path="url(#N)"><g class="B"><path d="M133.886 537.047s.095-2.599.758-5.02 2.846-5.34 2.846-5.34-2.437-1.927-4.94-5.697-3.054-4.528-5.015-8.687-2.786-8.308-2.786-8.308l-9.759-.507.038 8.925 10.377 8.715 3.393 9.25 5.088 6.669zm2.629 2.396s7.13 6.157 12.314 8.291 8.677.504 8.677.504 5.21-1.868 7.884-4.437c3.008-2.89 3.51-7.77 3.51-7.77s-.094-3.297-1.582-6.133-2.182-3.48-4.535-5.147c-1.313-.931-3.863-1.074-6.628-4.21s-13.888-21.684-13.888-21.684l-14.099 4.199 6.942 11.51 8.068 10.994s-2.954 2.767-4.9 6.313-1.763 7.57-1.763 7.57zM57.46 509.774s-.617-2.636-1.594-3.955-3.174-2.537-3.174-2.537 6.486-8.402 10.477-14.802 6.474-14.706 6.474-14.706l8.975-2.901 2.617 12.085-13.157 14.071-7.932 7.53-2.686 5.215zm-4.517 5.236s-6.081 4.791-12.778 5.908-14.838-.751-14.838-.751-.864-4.932-.246-8.772 4.956-10.936 4.956-10.936 2.392.401 4.192-.564 3.006-3.295 3.006-3.295l9.384-20.078 17.852-1.579-11.556 19.404s-5.294 5.407-5.32 9.466c-.019 3.108 2.956 3.204 4.086 6.175s1.263 5.022 1.263 5.022z"/></g><g class="C"><path d="M115.034 512.135s-.421 5.182.114 5.579c3.746 2.774 12.038 8.605 12.038 8.605s-.695 4.265.017 6.851c.5 1.819 3.44 6.144 8.246 10.536s8.492 6.157 14.017 7.546c4.208 1.058 7.933 1.219 13.002-.234 2.203-.633 6.091-7.8 6.4-8.749.717-2.197.107-6.496.107-6.496s-2.788 7.922-7.76 10.654-10.904 1.302-14.159-.156c-1.684-.753-8.169-4.288-13.117-9.282s-6.673-10.692-6.673-10.692l-1.527-5.311-10.705-8.851zm-33.885-29.614s1.933 4.713 1.092 6.169c-1.305 2.258-4.564 5.419-9.963 10.361C66.5 502.953 67.5 505 67.5 505s-4 8.768-7.5 11c-1.357 1.751-7.813 5.924-12.652 8.555-6.661 3.621-16.973 3.129-22.553.43-1.335-.646.3-5.311.3-5.311s3.494 1.106 7.816 1.147 5.863.298 8.697-.534c4.703-1.378 10.405-4.458 12.571-6.519 2.473-2.355 4.928-7.733 4.928-7.733l1.162-3.082s6.186-5.288 11.405-10.397 9.474-10.035 9.474-10.035z"/></g><g fill="#c2bac6"><path d="M136.607 539.555s1.387-6.118 3.431-9.871c.577-1.061 1.408.995 2.911-.927 1.51-1.933.32-3.087.32-3.087s-1.352-1.948-3.32-4.601l-4.715-6.54-6.43-10.547-4.034.541s1.597 5.965 3.792 10.094c2.098 3.947 3.051 5.169 5.267 8.18s2.242 3.228 2.242 3.228-1.285 2.257-2.182 4.82-1.597 4.182-1.466 4.479c.926 2.084 4.184 4.231 4.184 4.231zm21.363-15.479c.426.423 2.208 1.741 3.2 1.632.815-.091 1.551-1.064 1.551-1.064l-9.226-12.705-9.211-13.783-1.804 1.007 7.64 12.823 4.53 6.783c1.144 1.647 2.02 3.738 2.682 4.279M52.857 514.93s1.838-1.629 3.026-2.996 1.769-3.047 1.769-3.047-.497-2.237-1.633-3.748-2.947-2.303-2.947-2.303l8.088-10.7s2.793-4.358 4.989-8.901 3.61-9.594 3.61-9.594l-5.15.812-8.376 13.811s-2.704 4.51-5.34 7.911c-2.662 3.432-3.349 5.761-4.172 7.144-.682 1.147-1.816 2.732-.363 3.777s2.269-.462 3.066.401c1.484 1.608 1.977 2.232 2.585 3.942a19.91 19.91 0 0 1 .848 3.491zm-23.025-13.766s-.018-.149.927.325c.546.275-.597 1.778 1.819 2.036 3.176.339 6.829-11.381 6.829-11.381l5.05-10.713 1.893-4.493-3.826-1.418s-1.983 5.429-5.092 11.707-7.599 13.937-7.599 13.937z"/></g><g class="C"><path d="M155.469 518.629c-1.131 0-2.282.201-3.406.312-1.62.161-3.16.424-4.75.783-1.534.347-3.12.689-4.531 1.409-1.171.596-2.206 1.361-2.938 2.473-.175.265-.532.795-.531 1.127.001.255.238.69.344.908-.038.146.074.305.219.344s.274-.042.313-.187c.245-.14.548-.216.78-.376.243-.169.429-.601.657-.814.59-.552 1.414-.965 2.156-1.253 2.698-1.041 5.542-1.196 8.407-1.096 1.046.038 2.055.25 3.093.345.585.054 1.196-.029 1.781-.031.993.098 1.872-.633 1.969-1.628s-.632-1.874-1.625-1.972c-.642-.125-1.278-.345-1.938-.344z"/><path d="M140.655 515.091c-1.243.076-3.322.253-4.406.908-.786.329-1.141 1.247-.812 2.035s1.213 1.143 2 .814c.617-.122 1.179-.402 1.812-.469.864-.093 1.789-.037 2.656-.032 1.258.008 2.565.05 3.813.219 1.934.263 3.837.756 5.75 1.127l2.687.595 1.344.157c.172.03 1.349.379 1.469.281.151-.123-.046-.341-.063-.438-.024-.144-.003-.29-.031-.439.388.288 1.031.828 1.187.752.261-.125.595-.289.688-.563.117-.347-.036-.742-.125-1.096-.164-.654-.976-1.006-1.531-1.221-1.224-.473-2.42-1.039-3.719-1.284l-7.313-1.001c-1.79-.168-3.6-.455-5.406-.345zm16.75 3.726c.055-.029.143.033.156.094.079.353-.393.518-.718.626.001-.083-.058-.171-.032-.251.081-.242.369-.351.594-.469z"/><path d="M148.062 510.926c-1.757-.111-3.607.313-5.25.907-.561.204-1.039.557-1.562.846-.508.28-1.089.465-1.594.751-.49.278-.913.666-1.406.94-.245.135-.519.215-.75.375-.871.603-1.425 1.457-2 2.317-.421.51-.353 1.269.156 1.69a1.2 1.2 0 0 0 1.688-.157c.596-.571 1.341-.943 1.968-1.47.176-.148.262-.355.438-.501.429-.36.792-.437 1.281-.689.566-.293.693-.467 1.313-.658.489-.15 1.01-.195 1.5-.344 1.412-.432 2.851-.703 4.312-.94.893-.143 1.726-.231 2.625-.062l.594.125c.183.051.349.243.531.188.385-.115.692-.443 1.032-.658.055.03.096-.007.124-.062s.025-.097-.031-.125c-.058-.421.024-.917-.187-1.283-.134-.233-.469-.219-.719-.314a10.13 10.13 0 0 0-.781-.25c-1.059-.303-2.182-.557-3.282-.626z"/><path d="M137.938 508.139c-1.773.004-3.449.112-5.157.594-.779.22-1.583.196-2.312.564-.875.373-1.278 1.408-.907 2.285a1.71 1.71 0 0 0 2.25.908c.439-.14.797-.424 1.25-.532.641-.152 1.345-.115 2-.188 1.732-.19 3.416-.302 5.157-.282 2.169.026 4.359.065 6.5.47.984.186 1.959.427 2.875.845a8.02 8.02 0 0 1 1.312.783c.123.089.2.268.344.313.309.097.645.043.969.062.062.143.233.188.375.126s.187-.234.125-.376c.228-.368.498-.593.406-1.064-.068-.35-.577-.852-.813-1.096-.764-.791-1.921-1.305-2.937-1.69l-.969-.345-1.062-.313c-3.099-.833-6.216-1.072-9.406-1.064z"/><path d="M144.876 502.004c-.941.008-1.95.024-2.875.218-.753.159-1.483.464-2.219.69-.507.155-1.043.26-1.531.469-.44.189-.976.576-1.406.783-.746.356-1.537.474-2.25.907-1.175.716-1.988 1.738-2.75 2.85-.508.739-1.318 1.64-1.532 2.535-.057.241-.025.474-.031.72-.123.257-.006.565.25.69s.564.037.688-.22c.812-.624 1.298-1.581 2.187-2.129.921-.568 2.022-.853 2.969-1.377.604-.335 1.033-.879 1.687-1.127.464-.176.869-.159 1.344-.283l1.282-.374c.643-.144 1.255-.141 1.906-.189l2.25-.094c1.119.015 2.017-.881 2.031-2.003s-.881-2.052-2-2.066z"/><path d="M132.249 501.441c-1.008.008-2.021.066-2.969.313-.515.134-.999.38-1.5.563-.397.025-.68.354-.656.752s.353.713.75.689l1.563.344c1.888.256 3.912-.063 5.812-.063l7.125-.187c.502-.032 1.003.013 1.5-.063.537-.082 1.068-.269 1.594-.407a.24.24 0 0 0 .25-.219.24.24 0 0 0-.219-.251l-1.531-.595c-.488-.134-1.002-.133-1.5-.218-2.419-.414-4.766-.613-7.219-.627l-3-.031z"/></g><g fill="#eed1bf"><path d="M149.101 249.944s.007 4.283-.538 8.264c-.599 4.376.375 4.797.583 8.44l.045 5.528s-2.589-2.054-3.472-1.144-.783 2.052-.358 3.669 1.925 2.981 1.925 2.981-.931 3.068 1.621 4.685c2.231 1.413 7.729 2.423 7.729 2.423s8.431-7.904 9.107-9.283c.659-1.344.835-8.95 2.109-14.036.344-1.37-1.704-10.431-1.704-10.431l-1.86-9.741-7.497 5.582-7.69 3.063zM19.512 260.625s.076 1.221 1.877 2.646c.921.728-.449 4.826.304 6.047.772 1.253 2.646 4.116 3.824 7.5s1.66 5.447.58 7.092c-1.189 1.812-5.391-2.367-5.391-2.367l-2.627-3.535 2.317 18.094-3.962-7.872-3.279-10.017-2.54-19.483 5.156.874 3.74 1.021zM92.091 79.4l-9.327 9.53-9.489 11.725-8.916-8.542-7.36-7.183 2.294-3.323-.257-7.3s-3.053-3.986-5.056-7.74-2.957-7.276-2.957-7.276-1.244.683-1.967-.55-.767-4.181-.928-4.382c-.974-1.222-.976-4.838-.976-4.838l7.784-8.624 13.169 4.223 17.332-.159 12.404-4.035 5.911 9.061s.209 6.401-.419 8.646c-.388 1.384-2.685 1.202-2.685 1.202s-1.003 4.745-3.181 8.856-5.53 7.587-5.53 7.587l.153 3.12z"/></g><path d="M58.897 74.369l9.141 11.261s4.617 4.697 6.955 4.709c1.163.006 10.026-4.256 10.026-4.256l4.082-4.125s1.958-1.08 2.624-2.57.249-3.592.249-3.592l-5.63 4.268-7.488 3.483-4.583 1.164-7.672-3.994-7.703-6.348z" fill="#c3ada5"/><path d="M139.331 257.706s4.66 27.562 5.147 50.665c.463 21.967.796 43.291 2.641 71.861 1.822 28.228.035 29.094 1.1 43.678 1.373 18.795 3.559 31.563 3.559 31.563s3.829 20.038 3.3 23.697-8.042 11.308-9.006 13.14c-1.269 2.415-.32 4.567-1.081 5.227-10.889 9.443-30.134 7.078-30.938 6.008-1.045-1.388-1.991-7.201-2.914-15.482-2.659-23.85-5.126-68.173-9.207-86.22-2.445-10.809-9.395-48.609-9.395-48.609s-10.136-33.653-12.174-60.045c-.232-3.005-3.376-.934-3.334-.364.937 12.772 1.44 50.156 1.44 50.156s-1.385 23.703-1.397 43.958 2.662 44.403 2.662 44.403 4.564 31.762 3.697 36.422c-.813 4.373-12.905 6.545-21.865 7.984-3.35.538-6.262.973-7.983 1.384-12.312 2.933-20.753-10.796-20.753-10.796l.371-56.815s.105-30.829-5.56-62.942c-5.641-31.977-6.845-53.011-9.928-68.416-1.214-6.069 3.929 5.016 6.325 5.667s2.998-.311 2.703-3.971-4.992-10.92-4.992-10.92l-.086-5.448-2.087-1.49.169-13.329 16.013 10.393 29.527 8.965 50.654 5.762 14.656-15.724" fill="#598dac"/><g fill="#4d7796"><path d="M88.002 274.149l12.409 8.645s9.051 6.476 15.666 3.806 7.2-4.114 12.143-11.193 7.626-17.12 7.626-17.12l-11.286 15.192s-4.692 5.425-10.615 7.062-13.079-.513-13.079-.513l-12.864-5.879zm52.607 159.548s5.272-34.969 6.417-28.622c.259 1.435 1.328 21.883 3.147 39.935 1.608 15.947 4.005 29.834 4.005 29.834l1.042 5.104-5.752 6.885s-4.4 8.532-4.439 10.015-1.235-5.013-1.235-5.013l.347-16.281-.617-13.187M77.448 293.421l-4.961-3.59-7.272-2.933s2.849 2.895 4.986 10.722 3.564 20.585 3.564 20.585 1.535 7.084 2.176 13.235.389 11.367.389 11.367l1.554 3.036.311-21.487-.389-14.17-.358-16.765z"/><path d="M68.521 283.414s.58 1.635.082 2.612-2.077 1.296-2.077 1.296l6.79 3.163 3.306 2.182-3.291-5.173-4.81-4.08z"/></g><g class="C"><path d="M127.362 270.183c-5.503 6.402-8.474 9.568-12.191 10.148-17.24 2.689-22.703-6.124-31.924-7.708-7.827-1.343-13.623.086-22.901-2.285s-10.722-5.269-14.786-6.341c-2.44-.644-4.426.992-10.805-2.977s-14.712-12.901-14.712-12.901l54.406 11.349 63.065-4.138s-4.649 8.45-10.152 14.853zm11.9-12.333s5.734 6.377 6.126 8.89c.511 3.274-3.972 4.188-3.972 4.188l-2.154-13.078z"/></g><path d="M139.571 250.055c-1.759 1.768.004 7.399.004 7.399s-19.679 6.469-47.562 4.806c-23.049-1.374-32.736-1.414-44.794-4.119s-22.868-6.102-26.637-9.028c-1.169-.907-.364 11.493-.364 11.493s-9.635-.87-11.334-2.753.526-12.818.526-12.818-6.141 1.672-7.849-1.541c-2.412-4.539 2.115-11.041 2.115-11.041l1.081-23.043 1.905-32.925c.316-7.341.17-23.497.17-23.497s-1.316-17.174 2.976-30.859 9.101-21.863 15.293-27.424 14.009-5.599 14.009-5.599.638-3.784 3.363-6.731 4.465-3.542 8.115-3.888c10.346-.98 8.979 3.37 8.979 3.37s-2.655 2.642-2.341 2.902c5.524 4.575 15.787 15.614 15.787 15.614s13.19-16.929 18.301-20.452c.72-.496.9-2.99.9-2.99s4.437-2.838 8.787-2.409c3.097.306 7.812.889 11.304 5.563 1.635 2.187 1.138 5.119 2.506 5.325 10.41 1.565 24.171 12.065 25.625 17.266 4.222 15.103 3.846 37.085 7.34 49.767s5.242 12.121 10.079 29.184 11.02 33.05 9.271 39.067c-1.881 6.471-2.998 8.804-2.998 8.804s4.5 8.153 3.088 9.609c-4.771 4.923-16.02 13.321-21.789 10.452-1.528-.759-1.295-7.966-1.295-7.966s-2.249.764-4.313-1.396" fill="#c2bac6"/><g fill="#a09bab"><path d="M125.686 220.745s5.688-10.538 5.098-12.713.092-7.19.234-11.301c.201-5.785 3.088-8.989 3.088-8.989l2.604 1.727s-5.283-16.634-6.871-35.066-4.827-42.962-4.827-42.962l1.178 49.205.307 32.093-.811 28.006zm-.987-107.897l.294 20.085-24.415 61.804 24.121-81.889zM92.283 76.93s-.322 2.533-.722 2.698c-.776.319-6.552 6.402-6.552 6.402s2.469-1.685 4.066-1.933 2.669-.176 2.669-.176l1.593-1.551s3.647-3.136 7.76-4.029c4.618-1.003 8.378-.763 8.378-.763l-6.287-2.729-6.596.046-4.308 2.035zm51.733 164.464l.221 3.457s6.293.246 11.458-.779 9.199-3.321 9.199-3.321l2.611-2.823-1.906-4.775-1.782-5.272-6.216 5.77-7.832 5.979-5.753 1.764zM9.3 245.8l-.488 4.199s1.925 1.682 4.836 3.297 6.456 1.801 6.456 1.801l.192-5.865-.303-2.624-.478-4.153-4.359 1.436L9.3 245.8zm130.201 3.454l-24.795 5.163-18.03 2.737 1.316 2.108 18.427-.968 10.755-1.137 9.782-2.597 1.858-.567-.357-1.958 1.044-2.781zM13.627 137.107l3.37 14.694s3.822 25.336 5.164 29.978.204-11.407.204-11.407l-1.315-26.657 1.116-20.272 5.223 23.814 1.334 24.202-.321 14.508-.891 14.133-2.525 14.282-5.3-28.827-3.386-18.993-2.607-21.322m60.68-37.335s-.023 2.262 2.288 2.198 2.316.236 6.956-2.453 11.604-8.304 11.604-8.304l9.245-9.772 5.037-5.621-10.074 8.303-8.097 7.345-7.013 4.919-5.993 2.938-3.953.447z"/></g><g opacity=".5"><path d="M65.572 65.708c4.51-6.378-10.055-14.312-11.474-3.651-1.385 10.405 14.758 9.481 13.364.406" fill="url(#B)"/><path d="M96.508 69.355c6.929-9.122-5.294-21.738-9.464-7.217-2.052 7.144 1.607 13.874 7.254 8.567" fill="url(#C)"/><path d="M53.476 54.658c.591-1.775-.927-10.04-4.567-6.914-7.299 6.268 8.886 15.246 5.227 4.982" fill="url(#D)"/><path d="M101.081 47.94c-12.377-5.471 5.688 22.493 2.79 3.735l-2.79-3.735z" fill="url(#E)"/><path d="M25.611 283.3c1.25.452.961-1.826.871-2.564l-.871 2.564z" fill="url(#F)"/><path d="M25.529 277.191c-5.791-12.769-11.194.94-.912 5.898l.912-5.898z" fill="url(#G)"/><path d="M26.111 283.194l.109-.594-.109.594z" fill="url(#H)"/><path d="M18.275 283.365c-1.847-18.127-8.076-4.038-1.191 3.061l1.191-3.061z" fill="url(#I)"/><path d="M18.279 286.689c.655.9.599 2.785.84 3.904l-.84-3.904z" fill="url(#J)"/><path d="M149.346 264.205l.538 7.612-.538-7.612z" fill="url(#K)"/><path d="M150.152 274.308c-1.493 11.564 5.393 11.039 9.405 7.892 3.025-2.373 5.722-4.771 6.372-8.038.475-2.395 1.955-15.076-.055-20.77-1.7-4.817-9.426-3.057-16.395 5.087" fill="url(#L)"/><path d="M69.205 73.269l6.901-.691.948.14.977-.089 5.857-.273-4.502 2.615c-.911.461-3.166.173-3.166.173l-7.016-1.876z" fill="url(#M)"/></g><g fill="#ec678a"><path d="M81.067 45.421l.063 4.255 1.124 2.409s-3.841-1.578-4.024-.441c-.077.478.1 1.002.315 2.034s.824 2.508.104 2.729c-.32.099-1.388-1.192-2.206-2.373-.753-1.088-.942-2.402-.942-2.402l-3.015 1.651 1.621-4.463.025-3.56 6.934.161zm-25.916-4.816s-1.133 3.171-1.671 6.175.77 5.958.144 6.24-2.65-5.114-2.65-5.114l-3.762 1.601-.827 1.05s.797 2.65.205 2.268-1.237-.766-1.665-2.317-2.04-1.731-2.04-1.731l-1.71-1.023 2.802-.428-4.714-1.483 3.143-2.996-2.444-2.975s-1.218-2.532-.51-3.217c.352-.341.826 1.227 1.671 1.639s1.708.01 1.708.01l1.504-6.039m52.153 9.296l4.495 5.34 2.987 8.093s1.08-.828 1.252-2.398-.566-3.881-.566-3.881 2.271 3.891 3.329 3.826-.398-2.436.902-4.085 4.206-1.631 4.299-2.511-3.928-1.007-3.928-1.007l2.595-1.521.882-4.071-5.394-2.207 3.454-2.372-3.952-.514-1.6-1.185-8.755 8.492z"/></g><path d="M107.049 34.359c-2.556 4.528-5.187 6.043-8.211 7.601-4.215 2.172-8.133 3.636-16.764 3.855s-10.833.288-18.738-1.618c-7.261-1.751-15.385-6.053-17.538-8.765-1.514-1.907-2.72-5.945-1.561-10.812s2.795-9.602 5.372-9.749c2.516-.143 2.922-4.781 9.027-8.362S66.372 1.25 74.606.683 91.57 4.237 91.57 4.237s10.411 4.856 11.151 10.14c.417 2.979 1.956 1.072 3.652 5.447.73 1.884 3.233 10.006.676 14.535z" class="B"/><g class="C"><path d="M94.433 50.226s-2.562 2.76-5.002 3.256-5.162-.933-5.162-.933l-.256-1.516s2.373-2.193 4.877-2.31 5.543 1.503 5.543 1.503zM69.12 51.95s-3.494 1.645-6.192 1.25-4.603-2.832-4.603-2.832 2.919-1.82 5.523-2.031 4.892 1.189 4.892 1.189l.38 2.425z"/></g><mask id="A" maskUnits="userSpaceOnUse" x="-2" y="-5" width="174" height="579"><path d="M172-5H-2v578.038h174V-5z" fill="#fff"/></mask><g mask="url(#A)" class="B"><path d="M164.218 243.039c-.273.05-.456.322-.407.596.87 4.805 2.401 9.46 3.063 14.306.138 1.01.588 1.943.75 2.943.145.895-.079 1.789-.375 2.629-.029.066.028.16.094.189s.127.003.156-.064c.405-.744.733-1.483.719-2.348-.02-1.172-.591-2.282-.719-3.443-.291-2.638-.919-5.198-1.469-7.795-.464-2.196-.82-4.398-1.219-6.606-.049-.273-.32-.457-.593-.407zM87.825 52.036c.832-.533.964-.63.981-1.672s-.34-1.616-.34-1.616l-2.217.669-1.776 1.078s.501.78 1.119 1.285 1.401.789 2.234.256zm-24.623-.252c.832-.533.964-.63.981-1.672s-.34-1.616-.34-1.616l-2.217.669-1.776 1.078s.5.78 1.119 1.285 1.401.789 2.234.256zm95.219 213.491s-.05 1.723 1.18 1.992c.977.212-1.062 2.749-1.062 4.718s.867 2.475.867 2.475-.69.298-1.779 1.267-1.798 3.257-1.798 3.257.419-1.111-1.393-.827c-.565.089 1.839-3.579 1.839-3.579l.212-4.385 1.063-3.449.871-1.469zm-31.266-73.704c-.209.085-.303.323-.218.532.233 2.953 1.287 5.808 1.874 8.704l1.344 7.92 1.75 9.674.813 4.758.812 4.477c1.103 5.553 2.528 14.142 9.75 14.307 1.046.024 2.087-.14 3.094-.407 1.612-.428 3.119-1.143 4.563-1.972 2.311-1.328 4.296-3.062 6.312-4.79 1.761-1.51 3.359-3.125 4.938-4.822 1.024-1.1 2.046-2.168 2.937-3.381.083-.093.062-.23-.031-.312s-.23-.062-.313.031c-1.08 1.023-2.05 2.135-3.093 3.192-1.781 1.806-3.699 3.623-5.688 5.198-1.78 1.409-3.709 2.639-5.719 3.694-1.343.706-2.798 1.319-4.281 1.659a9.45 9.45 0 0 1-2.656.219c-4.63-.262-5.779-4.282-6.969-8.108-.39-1.253-.772-2.508-1.063-3.788l-.687-3.193c-.316-1.529-.621-3.061-.875-4.603-.265-1.605-.482-3.241-.719-4.852l-.843-6.104c-.366-2.712-.857-5.397-1.407-8.078l-1.093-5.071c-.415-1.711-.885-3.247-2-4.633-.085-.21-.323-.335-.532-.251z"/><path d="M139.874 240.786c-.128-.01-.241.09-.25.218-.125.264-.306.5-.375.784-.138.571-.053 1.165-.031 1.753l.312 3.944c.007.794-.08 1.647-.406 2.379-.317.712-.752 1.22-.844 2.036-.228 2.022.679 4.395 1.157 6.354.002.043.051.065.093.063s.065-.02.063-.063c.251-2.041-.732-3.963-.656-6.011.039-1.068.843-1.762 1.124-2.755.535-1.882.383-4.06.313-5.979-.033-.902-.003-1.61-.281-2.473.009-.128-.091-.241-.219-.25z"/><path d="M139.061 257.408c-.119.095-.126.256-.031.375l1.625 2.598 1.532 2.004 1 1.284c.934 1.299 2.519 3.933 1.218 5.51-.879 1.065-2.341 1.149-3.437 1.847-.087.017-.142.101-.125.188s.1.141.187.125c.895.163 1.676-.067 2.5-.439.482-.216.934-.507 1.313-.876 2.251-2.194.17-5.628-1.125-7.701-.211-.338-.755-1.097-1-1.409l-1.063-1.315c-.804-.909-1.34-1.352-2.218-2.16-.096-.12-.256-.127-.376-.031z"/><path d="M139.094 258.095a.34.34 0 0 0-.313.376c.055 5.37 1.165 10.605 1.907 15.903 1.279 9.141 2.837 18.35 3.312 27.581.351 6.826.32 13.643.406 20.475l.032 26.798-.063 11.646c.049 4.909.293 9.789.656 14.682.036.509.461.913.969.877s.911-.493.875-1.002c-.319-4.85-.32-9.73-.375-14.588l-.125-25.672-.063-15.935c-.339-9.906-.914-19.779-2.156-29.615-.728-5.772-1.926-11.444-2.812-17.187-.719-4.655-1.122-9.378-1.875-14.025-.017-.197-.18-.331-.375-.314zm7.718 119.811c-.088-.002-.154.099-.156.188-.742 3.902-.679 7.783-.718 11.74l-.094 4.132c-.045 3.547.148 7.1.281 10.644l.781 15.935c.277 4.071.672 8.12 1.094 12.179l2.188 19.158 2.75 19.223a72.8 72.8 0 0 0 1.124 5.604c.255 1.061.696 2.11.532 3.223-.183 1.235-1.296 2.1-2.156 2.882-1.083.981-2.115 1.988-3.032 3.129-2.511 3.13-3.841 7.041-4.75 10.896-.033.116.04.248.156.281s.218-.04.25-.157c1.274-3.847 2.938-7.549 5.594-10.643.807-.941 1.691-1.754 2.594-2.599 1.074-1.007 2.233-2.102 2.469-3.631.245-1.595-.524-3.031-.875-4.539-.559-2.398-.914-4.832-1.282-7.263-1.26-8.334-1.999-16.726-2.843-25.109-.563-5.587-.993-11.183-1.438-16.78-.544-6.849-1.045-13.699-1.281-20.568l-.25-11.896-.188-4.101c-.09-3.944-.021-7.828-.593-11.74.002-.089-.068-.186-.157-.188zm-9.406-126.887c-7.436 3.24-15.652 3.681-23.594 4.697-.033.002-.064.029-.062.062s.029.065.062.063c4.361.114 8.731-.371 13.032-1.065 3.725-.601 7.426-1.435 10.968-2.755.28-.112.394-.44.282-.719s-.409-.395-.688-.283zm-35.844 6.14l-2.5.031c-.213-.003-.751.004-.562 0 1.025-.022.006-.002-1.906 0-.391.049-.675.423-.625.814a.68.68 0 0 0 .781.595l2.438-.564c.188-.045-.781.147-.594.094l1.5-.376c-1.112.288 0 .011 1.5-.312.075-.009.134-.081.125-.158s-.081-.133-.157-.124zm-58.563-3.54c-.118-.029-.221.069-.25.189a.2.2 0 0 0 .156.25c1.813 1.203 3.863 1.609 5.969 2.035l8.25 1.315 8.313.908 4.156.156 6.281.313c5.56.124 11.103-.125 16.656-.375a.33.33 0 0 0 .313-.345.33.33 0 0 0-.344-.313 267.38 267.38 0 0 1-15.562-.062c-2.416-.082-4.842-.113-7.25-.314-3.434-.286-6.896-.711-10.312-1.158s-6.815-1.083-10.187-1.784c-2.069-.431-4.061-1.023-6.187-.815zm-22.313-15.121c-.087-.028-.159.007-.187.094-.571 1.013-.882 2.113-1.094 3.256a10.62 10.62 0 0 0-.156 2.755c.452 5.715 6.394 7.416 11.031 8.86 1.071.333 2.12.719 3.188 1.064.139.065.311.015.375-.125s.014-.311-.125-.376c-1.576-.969-3.26-1.824-4.969-2.536-3.316-1.381-8.113-2.736-8.594-6.981-.226-2.001.435-3.867.656-5.823.028-.087-.038-.159-.125-.188zm14.439 16.248c-.026-.006-.056.006-.062.031s.005.056.031.063c2.575.927 5.25 1.421 7.906 2.067l7.875 1.753 3.219.437c.079.014.142-.015.156-.094s-.014-.173-.094-.187c-4.214-.79-8.455-1.594-12.625-2.599-2.137-.515-4.233-1.13-6.406-1.471zM7.031 172.381c.019.696-.058 1.372-.094 2.067l-.281 3.099-.312 1.91L6 186.344l-2.219 32.589-.312 8.516c-.106 2.419.025 5.012-.875 7.294-.956 2.425-3.116 4.988-2.25 7.733.206.652.492 1.298.906 1.847 1.716 2.273 5.063 2.095 7.563 1.753 1.354-.185 2.754-.447 4.062-.845l2.25-.783c1.357-.491 2.347-.928 3.563-1.722.049-.017.08-.076.063-.125s-.076-.048-.125-.031c-3.682.394-7.152 2.012-10.844 2.441-1.621.19-3.463.181-4.844-.813a4.34 4.34 0 0 1-1.031-1.064c-1.256-1.849-.446-3.281.375-5.072.568-1.24 1.216-2.471 1.594-3.788.388-1.351.36-2.774.438-4.163l.281-3.946 1.531-17.813.969-13.681.656-9.485c.091-1.545.14-3.088.188-4.633.025-.82.088-1.224 0-2.035-.066-.61-.222-1.206-.281-1.816-.144-1.487-.252-2.872-.625-4.321zm15.313-53.629c-.306.002-.565.226-.563.532-.566 2.7-.376 5.551-.312 8.297l.344 9.673 1.688 32.339c.777 15.358.932 30.705-.125 46.052-.248 3.602-.671 7.232-1.219 10.8-.542 3.528-1.29 7-1.656 10.55-.025.122.066.257.188.283s.225-.067.25-.189c.241-.755.543-1.487.75-2.254.827-3.06 1.134-6.32 1.563-9.454a211.19 211.19 0 0 0 1.563-15.778c1.119-18.363.31-36.769-.469-55.13l-.813-20.913-.156-8.39c-.038-1.96-.073-3.972-.5-5.886-.002-.306-.226-.534-.531-.532zm108.811 146.451a.76.76 0 0 0-1.062.156l-2.469 3.319-1.25 1.44-1.125 1.471-1.219 1.253-1.093 1.252-1.782 1.534c-1.765 1.57-3.582 2.961-5.781 3.882-2.062.863-4.301 1.269-6.531 1.283-2.408.016-4.764-.463-7.094-1.033l-3.688-.971c-.061-.022-.133.002-.156.063s.001.135.063.157c1.895 1.01 4.057 1.661 6.157 2.097 2.263.47 4.565.74 6.875.532 9.077-.814 15.225-8.641 20.312-15.371a.76.76 0 0 0-.156-1.064zm5.533-7.952c-.122-.09-.316-.059-.407.063l-2.062 2.63c-.124.166-.105.408.062.532s.408.073.531-.094l1.907-2.755c.09-.121.09-.285-.031-.376zm-73.157 13.431c-.294-.058-.568.143-.625.438s.144.569.438.626c3.663.981 7.828.529 11.594.501 3.822-.028 7.837-.065 11.5 1.19 1.393.477 2.606 1.281 3.875 2.003.022.017.045-.009.063-.032s.022-.045 0-.062c-2.26-2.406-6.239-3.326-9.375-3.662-3.996-.43-8.055-.183-12.062-.377-1.822-.088-3.6-.404-5.406-.625zm-11.125-3.351c-.078-.039-.181-.016-.219.062s-.015.182.063.219l4.656 2.285c1.604.668 3.278 1.046 4.969 1.409.227.055.446-.086.5-.313s-.086-.447-.312-.501c-3.286-.876-6.543-1.781-9.656-3.161z"/><path d="M125.061 107.233a1.05 1.05 0 0 0-1.25.814c-1.464 6.939-3.088 13.838-4.906 20.693-3.513 13.245-7.605 26.321-11.531 39.446l-5.906 20.693c-1.135 4.302-2.351 8.616-2.75 13.055-.012.054.009.114.062.126s.113-.009.125-.063c1.482-4.186 2.49-8.537 3.719-12.804l5.625-18.565c6.434-20.55 13.09-41.065 17.625-62.143a1.05 1.05 0 0 0-.813-1.252z"/><path d="M125.03 109.236c-.104 0-.187.084-.187.189-.312 1.616-.307 3.122-.344 4.758l-.188 3.6c-.081 1.982.027 3.966.063 5.948.144 7.898.616 15.804.844 23.699.709 24.629 1.893 49.273.093 73.883-.013.171.111.299.282.313s.33-.111.344-.281c1.505-16.82 1.679-33.656 1.218-50.529l-1-25.796c-.251-7.502-.281-14.974-.375-22.479l-.062-4.758-.188-3.6c-.033-1.636-.004-3.142-.312-4.758 0-.105-.083-.189-.188-.189zm-26.092 97.581c-.034.01-.042.028-.032.062 1.294 6.182 4.526 11.865 8.75 16.53.622.686 1.337 1.327 2 1.972.281.244.694.187.938-.094a.66.66 0 0 0-.063-.938c-2.782-2.153-5.168-4.782-7-7.796-1.858-3.059-3.08-6.435-4.5-9.705-.01-.034-.06-.042-.093-.031zm11.156 19.129c-.12-.075-.269-.026-.344.094-.642.862-1.024 1.325-1.562 2.254-2.2 3.793-3.057 8.156-3.532 12.459a.54.54 0 0 0 .469.596.54.54 0 0 0 .594-.469c.335-2.536.704-5.057 1.437-7.514.739-2.476 1.802-4.793 3-7.076.076-.12.057-.268-.062-.344zm-55.626-19.66a.55.55 0 0 0-.594.501c-.031.302.167.564.469.595 11.29.985 22.637 2.147 33.969 1.033 2.943-.289 5.865-.838 8.75-1.472.06-.01.105-.065.094-.124s-.065-.105-.125-.094c-14.124 2.01-28.444 1.207-42.562-.439zm-3.782 34.562c-.111-.024-.226.047-.25.157a.21.21 0 0 0 .156.25l6.469 1.472c7.331 1.356 14.842 1.815 22.281 2.067 2.251.076 4.497.201 6.75.156 1.498-.03 3.003-.155 4.5-.22 4.461-.191 8.869-.476 13.281-1.189.35-.048.61-.369.563-.72s-.369-.58-.719-.532c-4.388.49-8.779 1.12-13.188 1.409-1.485.097-2.982.112-4.469.156-2.24.066-4.477.197-6.719.188-9.634-.038-19.208-1.399-28.656-3.194zm-9.031-15.56c-.036-.024-.101-.004-.125.031s-.005.07.031.094c.313.493.616.967 1 1.409l1.438 1.565a33.31 33.31 0 0 1 3.625 5.667c.576 1.143 1.091 2.366 1.438 3.6.134.478.23.946.281 1.44.023.224-.001.509.094.72.071.16.173.28.25.438.092-.088.347-.296.406-.407.233-.437-.032-1.329-.125-1.753-.214-.973-.549-1.934-.938-2.849-1.132-2.665-2.568-5.117-4.281-7.451-.911-1.24-1.519-2.17-3.094-2.504z"/><path d="M53.343 208.006c-.057-.024-.133.006-.156.064-.997 1.772-1.756 3.654-2.656 5.477-1.555 3.15-3.297 6.313-5.594 8.985-.877 1.021-1.919 1.775-2.969 2.599-.19.121-.246.373-.125.563s.372.248.562.125c2.502-1.293 4.564-4.404 5.938-6.73 1.163-1.969 2.203-4.027 3.156-6.105.727-1.586 1.43-3.142 1.906-4.821.024-.057-.006-.133-.062-.157zm57.871-124.002c-.645.02-1.266.126-1.874.282l-.688.188c-.221.071-.656.25-.656.25l-.625.251s-.489.538-.344.876.875.345.875.345l.562-.282.594-.251 1.219-.438c.954-.299 1.986-.478 2.969-.219.276.073.781.344.781.344h.875c.122-.007-.16-.199-.25-.282s-.186-.146-.281-.219c-.371-.284-.805-.492-1.25-.626-.611-.184-1.261-.239-1.907-.219zM80.407 292.157c-.249.011-.448.22-.437.47.19 4.38.864 8.767 1.594 13.085l2.188 12.085c1.402 7.352 3.05 14.629 4.625 21.945l5.063 23.198c3.319 15.332 6.29 30.734 8.687 46.24 2.099 13.572 3.747 27.184 5.344 40.823l1 7.764 2.719 28.644.687 7.263.469 5.104c.123 1.192.1 2.712.5 3.851.87 2.473 4.893 2.562 7.031 2.566.971.002 1.977-.034 2.937-.187.599-.096 1.177-.262 1.782-.314.184.012.332-.128.344-.312s-.129-.333-.313-.345c-2.181-.436-4.394-.092-6.594-.281-1.048-.092-2.349-.263-3.187-.971-.716-.604-.536-1.717-.594-2.536l-.125-1.628-.781-8.672-2.25-23.73-1.219-11.958c-.286-3.776-.77-7.513-1.219-11.271l-2.25-17.469c-1.506-10.944-3.205-21.883-5.218-32.747-2.341-12.629-5.088-25.175-7.969-37.691l-8.875-39.384c-.95-4.771-1.752-9.558-2.469-14.37-.431-2.895-.88-5.805-1-8.735-.01-.249-.22-.448-.469-.437zm-1.689-.782c-.59-.013-1.17.247-1.531.72-.608.795-.76 2.233-.531 3.193.051.214.105.454.188.658a7.5 7.5 0 0 0 .281.564l.406-.47.063-.188c.044-.205.066-.387.094-.595.094-.714.04-1.403.375-2.066.165-.326.386-.648.75-.752a7.61 7.61 0 0 1 .406-.062c.152-.46.201-.557.25-.845.022-.131-.245-.066-.375-.094-.122-.025-.251-.061-.375-.063zm-1.719 6.728a.3.3 0 0 0-.281.345c.615 6.928.598 13.871.781 20.819.572 21.661-.713 43.304-.906 64.96-.123 13.774.568 27.58 1.812 41.293.988 10.888 2.35 21.718 3.75 32.559.321 2.484.744 4.954.969 7.451.101 1.127.29 2.487-.437 3.474-.988 1.341-2.764 1.854-4.25 2.379-.651.232-1.282.5-1.937.721-1.518.51-2.964.91-4.375 1.691-.153.054-.211.221-.156.374a.3.3 0 0 0 .375.189c1.516-.27 2.994-.659 4.5-.971 2.364-.488 5.104-1.082 6.719-3.067 1.668-2.051.924-3.733.563-6.105l-.687-4.978-3.562-28.989c-1.127-11.196-1.933-22.436-2.219-33.686-.252-9.913.053-19.862.313-29.772l.594-20.851c.124-7.869.064-15.734 0-23.604-.046-5.659-.282-11.258-.625-16.905-.142-2.349-.293-4.707-.562-7.044-.019-.184-.192-.301-.375-.283zM32.906 458.737c-.065-.007-.118.06-.125.125-.179.364-.432.672-.531 1.065-.187.739-.043 1.557.031 2.316.108 1.104.277 2.247.563 3.319 1.267 4.761 4.734 8.724 9.187 10.769 1.379.634 3.073 1.257 4.625 1.095.426-.043.805-.203 1.219-.312.105.005.214-.082.219-.189s-.082-.182-.188-.187c-2.082-.793-4.349-.968-6.375-1.94-3.828-1.841-6.504-5.51-7.687-9.517-.228-.774-.368-1.264-.469-2.067-.089-.707-.099-1.417-.094-2.129.003-.358.074-.709.031-1.064-.047-.391-.211-.779-.312-1.159.007-.065-.029-.118-.094-.125zm48.156 23.919c-.049.015-.078.076-.062.126.063 1.619 1.44 3.221 1.219 4.821-.244 1.761-2.176 3.462-3.313 4.696-.374.405-.804.764-1.062 1.252-.148.278-.214.609-.313.908-.02.024-.024.043 0 .063s.074.024.094 0c.276-.147.562-.252.813-.438.604-.452 1.132-1.248 1.625-1.816 1.044-1.204 2.372-2.604 2.688-4.227.216-1.111-.309-2.181-.687-3.193-.278-.743-.453-1.452-.875-2.129-.015-.049-.076-.078-.125-.063zM67 499.5v1 .499s.319 1.512-.037 3.614c-.451 2.665-1.944 5.068-3.623 7.116-3.62 4.414-8.414 7.199-13.054 10.321-.244.131-.362.411-.232.659s.452.368.697.235c3.183-1.33 6.156-3.554 8.687-5.89 1.946-1.795 3.823-3.589 5.389-5.748 1.623-2.24 2.969-4.856 3.159-7.682.098-1.467-.485-3.625-.485-3.625l-.5-.499z"/><path d="M71.876 499.059L69.5 501l-2 1.5v.5s1.082-.638 2.344-1.561c1.504-1.101.878-.824 2.501-1.754.178-.126.22-.353.094-.532a.41.41 0 0 0-.562-.094zm-46.783 20.789c-.065-.018-.107.029-.125.094-.523.789-.548 1.645-.5 2.566.25 4.835 6.22 5.242 9.906 5.323 1.07.023 2.138-.106 3.188-.314.049 0 .094-.044.094-.093s-.045-.095-.094-.094c-1.048-.182-2.124-.262-3.187-.281-1.104-.02-2.131-.1-3.219-.22-2.213-.243-5.098-.686-5.969-3.068-.508-1.388.073-2.394 0-3.757.018-.065-.028-.138-.094-.156zm89.969-7.358c-.033-.005-.056-.002-.062.032-.395.742-.417 1.609-.406 2.442.01.8-.051 1.868.25 2.629.317.803 1.187 1.326 1.844 1.817l4.687 3.318 2.563 1.722c.776.504 1.509 1.072 2.343 1.471.354.17.753.253 1.125.376-1.313-1.276-2.93-2.084-4.468-3.069l-4.969-3.412c-.751-.547-1.472-1.124-2.157-1.753-.231-.213-.644-.487-.781-.782-.188-.409-.165-.911-.156-1.347.023-1.117.392-2.278.219-3.381.005-.033.002-.057-.032-.063zM127 527.173c-.088-.011-.177.068-.188.156-.451 1.704-.072 3.328.282 5.009.454 2.161 1.291 4.202 2.625 5.98 1.392 1.855 3.225 3.379 4.969 4.884l3.25 2.755c1.996 1.622 4.02 3.087 6.468 3.913.717.241 1.273.413 2.032.437.018.005.058-.012.062-.031s-.013-.058-.031-.062c-.643-.287-1.282-.409-1.938-.658-1.444-.545-2.906-1.344-4.187-2.191-2.35-1.553-4.355-3.539-6.438-5.416l-2.062-1.878c-2.015-2.139-3.754-4.93-4.5-7.796-.416-1.597-.147-3.292-.188-4.915.011-.087-.068-.177-.156-.187zm41.781 9.487a.15.15 0 0 0-.125.188c.186 1.083.354 2.215.313 3.318-.164 4.377-3.37 9-7.469 10.55-2.701 1.022-5.601.338-8.344 1.064 2.063.871 3.88.697 6.032.282 1.135-.219 2.305-.542 3.343-1.064 5.071-2.548 7.731-8.748 6.438-14.214-.019-.092-.095-.143-.188-.124zM59.374 286.022c-.059-.005-.088.035-.094.094s.035.088.094.094c3.401.546 6.972 1.017 10.125 2.505 1.651.778 3.363 1.686 4.844 2.755.878.633 1.655 1.38 2.562 1.971.04.04.117.04.156 0s.04-.116 0-.156c-.793-1.173-1.87-1.985-3-2.817-1.796-1.326-3.77-2.145-5.875-2.849-2.896-.97-5.742-1.531-8.812-1.597z"/><path d="M56.656 275.754c-.096-.044-.206-.003-.25.094s-.003.207.094.251c.498.341 1.058.598 1.594.876 1.595.829 3.147 1.826 4.687 2.755 2.8 1.687 5.492 3.588 7.938 5.76 1.423 1.264 2.723 2.652 3.844 4.195a15.59 15.59 0 0 1 1.094 1.691c.322.591.498 1.165 1 1.628.008.022.009.039.031.031s.039-.04.031-.062c.113-.864-.355-1.58-.781-2.317-.839-1.453-1.878-2.733-3.031-3.944-3.116-3.274-6.838-5.988-10.687-8.328-1.252-.761-2.53-1.341-3.844-1.973-.549-.263-1.13-.5-1.719-.657zm6.999-4.132c-.363.158-.533.576-.375.938.465 1.535 1.17 2.946 1.875 4.384 1.41 2.872 3.184 5.628 5.813 7.514.03.037.087.06.125.031s.061-.088.031-.125c-1.164-2.88-2.91-5.521-4.406-8.234l-2.125-4.133a.71.71 0 0 0-.938-.375zm10.033 1.471c.052.451.047.937.156 1.377.302 1.213 1.023 2.478 1.562 3.6 1.504 3.13 3.491 5.987 5.125 9.048.188.323.615.439.938.25s.438-.617.25-.939l-5.438-8.828c-.892-1.501-1.567-3.077-2.562-4.508-.003-.008-.024.003-.031 0z"/><path d="M85.031 282.514c-.785.594-1.617 1.11-2.281 1.847-1.985 2.2-3.501 5.356-2.375 8.296.012.075.113.137.188.125s.106-.081.094-.156c.08-1.457.14-2.875.656-4.258.478-1.282 1.305-2.338 2.125-3.412.59-.774 1.072-1.623 1.594-2.442zm16.5-193.065c-.541.46-.885.962-1.343 1.503a29.37 29.37 0 0 1-2.282 2.411c-4.879 4.582-10.268 8.962-16.156 12.179-1.641.897-3.464 1.897-5.344 2.16-.611.085-1.533.148-2.031-.313-.566-.524-.723-2.414-.719-3.162.006-.026-.005-.057-.031-.063s-.057.037-.062.063c-.255.545-.54 1.096-.656 1.691-.32 1.644.925 2.933 2.531 2.942 2.061.012 4.235-1.09 6-2.035 5.617-3.006 10.969-7.273 15.469-11.771 1.234-1.234 2.431-2.527 3.532-3.882.472-.581.835-1.017 1.093-1.722zM38.625 88.29c-.322.034-.63.212-.937.313-.183-.005-.339.13-.344.313s.13.339.312.344c.287.118.574.272.875.344.268.065.54.023.813.063l1.594.313c2.04.462 4.032 1.499 5.625 2.849 3.993 3.384 7.357 7.373 11.25 10.863 1.877 1.683 3.951 3.464 6.344 4.352 2.495.925 5.418.962 8 .469.169-.023.274-.176.25-.344s-.175-.274-.344-.25c-1.474.131-2.913.206-4.375-.095-1.303-.267-2.522-.815-3.719-1.377-4.739-2.227-7.758-6.36-11.344-10.018a46.28 46.28 0 0 0-3.906-3.569c-2.231-1.804-4.685-3.352-7.469-4.132-.568-.159-1.132-.249-1.719-.313-.302-.033-.604-.157-.906-.125zm51.156.19l-3.5 3.444c-2.831 3.006-5.614 6.601-9.625 8.077-1.011.372-2.029.484-3.094.564-.081-.001-.124.075-.125.156s.044.155.125.157c2.255.22 4.508-.924 6.313-2.161 2.549-1.748 4.829-4.051 6.813-6.418 1.054-1.258 2.03-2.596 3.125-3.819-.008-.007-.024-.008-.031 0z"/><path d="M74.561 98.811l-.156.532c.012-.01.069-.09.063-.062-.273 1.23.003.008.25-.314.041-.043.043-.115 0-.156s-.116-.043-.156 0zm-.156.532c-.04.036-.103.169-.156.251l-.094.156-.156 1.16c.073-.61.188-.902.406-1.566zm-.25.407c.054-.362.094-.437.094-.657 0-.134-.161.182-.25.282a8.15 8.15 0 0 0-.5.625c-.366.539-.473 1.141-.437 1.785l.031.407c.02.135.008.532.062.407.541-1.228.014-.001.25.375.007.029.033.038.063.031s.038-.033.031-.062l.625-1.972c.204-.514-.318 1.038-.562 1.533-.055.112-.027-.22-.031-.343a3.74 3.74 0 0 1 .031-.689 5.5 5.5 0 0 1 .5-1.565c.027-.054.064-.104.094-.157zM52.936 77.898c-4.289-.103-8.758 1.893-11.594 5.103-1.227 1.389-2.327 3.11-2.406 5.009-.024.184.129.352.313.376s.351-.098.375-.282c.251-1.107.562-2.152 1.156-3.131 2.439-4.015 7.955-6.854 12.656-6.48 1.219.097 2.407.4 3.531.877.675.286 1.289.665 1.969.939.048.034.122.048.156 0s.016-.122-.031-.156c-1.456-1.672-4.001-2.203-6.125-2.254zm46.033-3.695c-1.449.066-3.013.319-4.313 1.002-.648.34-1.217.822-1.75 1.315-.141.11-.172.297-.062.438s.328.172.469.063c1.55-.998 3.362-1.682 5.188-1.941 1.992-.283 4.088.024 6 .595 2.973.888 5.728 2.518 7.625 5.009.49.643.912 1.411 1.219 2.16.255.623.389 1.28.625 1.91.006.05.043.1.093.094s.069-.043.063-.094c.318-2.82-2.097-5.652-4.187-7.232-3.135-2.369-7.069-3.495-10.969-3.318zm-21.751 29.021c-.079-.062-.189-.047-.25.031s-.047.189.031.25c.404.635.941 1.134 1.406 1.722.614.777 1.115 1.639 1.531 2.536 1.476 3.181 2.078 6.726 2.469 10.175.278 2.454.299 4.896.031 7.356-.194 1.782-.554 3.5-1.125 5.198-.386 1.148-.962 2.109-.906 3.35-.021.034-.003.072.031.094s.072.034.094 0c.205-.091.439-.158.625-.283.669-.45 1.034-1.381 1.313-2.098.581-1.489.944-3.059 1.219-4.632a32.07 32.07 0 0 0 .219-1.44c.195-1.521.255-3.038.25-4.571-.005-1.564-.003-3.113-.219-4.665-.502-3.604-1.591-7.154-3.656-10.174-.778-1.138-1.724-2.391-3.062-2.849zm-6-.093c-.183-.083-.417.004-.5.188-2.431 4.019-3.251 8.593-3.688 13.21-.408 4.317-.392 8.64-.062 12.962.194 2.535.336 5.199.969 7.669.243.948.674 1.873 1.094 2.755.03.152.193.25.344.22s.249-.194.219-.345c.049-.966.088-1.948 0-2.911-.137-1.49-.461-2.963-.656-4.445-.343-2.603-.592-5.205-.687-7.827-.115-3.16-.084-6.38.344-9.517.537-3.943 1.622-7.708 2.812-11.49.083-.182-.005-.387-.187-.469zM34.999 89.449c-9.682 2.564-16.884 10.735-21.031 19.504-2.452 5.184-4.082 10.706-5.25 16.31-1.826 8.763-2.496 17.768-2.656 26.705-.062 3.451-.021 6.91.063 10.362.048 1.98.002 4.051.281 6.01.095.665.262 1.318.406 1.973 0 .005.028-.003.031 0 .082-.666.217-1.333.25-2.004.096-1.982-.133-4.024-.187-6.01a240.59 240.59 0 0 1-.031-12.398c.287-11.981 1.496-24.286 5.563-35.627 2.532-7.06 6.382-13.882 12.188-18.751 1.717-1.441 3.602-2.728 5.594-3.757 1.571-.811 3.208-1.406 4.844-2.066.068-.022.116-.088.094-.156s-.088-.117-.156-.094zm79.531-4.131c-.1-.027-.223.025-.25.125s.056.224.157.251l4.5 1.377c2.392.916 4.757 2.047 7.031 3.225 3.206 1.661 6.265 3.678 9 6.042 1.644 1.421 3.282 3.077 4.375 4.978.505.879.814 1.89 1.125 2.849.7 2.16 1.154 4.406 1.562 6.637 1.037 5.665 1.536 11.443 1.907 17.187.203 3.149.306 6.338 1 9.423.014.132.118.233.25.219s.232-.15.218-.281c.024-3.145-.474-6.296-.781-9.423l-1.187-12.773c-.459-3.799-1.04-7.565-2.25-11.208-.416-1.253-.878-2.546-1.594-3.663-.7-1.092-1.595-1.994-2.532-2.88a45.45 45.45 0 0 0-4.687-3.882c-5.381-3.886-11.418-6.592-17.844-8.202zm30.657 54.568c-.04.007-.07.054-.063.094.187 2.95.955 5.856 1.719 8.703l2.875 10.174c3.599 12.33 7.933 24.428 11.75 36.692l3.5 11.27c1.012 3.456 1.995 6.979 1.969 10.612-.015 1.93-.504 3.651-.938 5.51-.1.248.002.527.25.626a.52.52 0 0 0 .656-.281c1.566-2.693 1.532-5.98 1.063-8.986-.881-5.639-3.241-10.986-4.938-16.404l-8.031-25.577-3.344-10.049c-1.198-3.473-2.395-6.955-3.406-10.488-1.119-3.908-1.844-7.931-2.969-11.833-.007-.04-.054-.07-.093-.063zm18.781 88.751c-.072.016-.11.084-.094.156.025 1.056.487 2.092.937 3.037l1.75 3.631c.336.76.986 1.972.594 2.849-.24.537-.894 1.084-1.312 1.472l-2.188 1.94c-3.63 3.064-7.724 5.452-12.281 6.857-1.366.42-2.787.669-4.219.688-.372.005-.975.012-1.344-.187-.743-.402-.774-1.713-.843-2.411-.079-.791-.121-1.591-.219-2.379-.037-.297-.033-.593-.125-.877-.099-.304-.287-.594-.437-.876-.018-.092-.127-.142-.219-.125s-.142.095-.125.187c-.148 1.135.01 2.238.062 3.381.082 1.798.236 3.955 2.5 4.164.499.047 1.095.078 1.594.032.894-.084 1.791-.332 2.656-.564 2.87-.769 5.408-2.025 8-3.444 1.962-1.074 3.913-2.274 5.625-3.725 1.248-1.058 2.606-2.419 3.281-3.945.585-1.322-.399-2.978-.968-4.101-.546-1.077-1.1-2.14-1.563-3.256-.329-.792-.551-1.633-.906-2.411-.016-.072-.084-.11-.156-.093zM9.343 246.296c-.108-.012-.207.08-.219.187l-.906 5.699c-.252 1.641-.659 3.635-.031 5.259.934 2.415 4.753 2.643 6.906 2.942l1.875.251 2.812.406c.141.024.29-.078.313-.218a.28.28 0 0 0-.219-.313l-2.812-.438-1.906-.251c-2.092-.266-6.126-.504-6.719-3.099-.384-1.683.189-3.812.469-5.479l.594-4.728c.012-.107-.049-.206-.156-.218z"/><path d="M19.405 260.818c-.026.007-.038.036-.031.062l-.094.564c.106.873 1.913 1.468 2.125 2.38.119.513-.012 1.085-.062 1.597-.098.982-.267 2.059-.031 3.036.251 1.04 1.125 2.033 1.625 2.974l2.688 5.572.688 1.879c.21.783.309 1.601.344 2.41.02.47-.011.922-.125 1.378-.032.129-.15.529-.219.657-.749 1.398-2.518-.178-3.187-.783l-.625-.594-.687-.72-.75-.814-.844-.939-.813-1.159c-.014-.02-.042-.014-.062 0s-.046.042-.031.063c1.276 1.933 2.574 4.202 4.656 5.385.415.235.96.477 1.437.532 1.911.218 2.041-2.346 1.844-3.632-.284-1.853-1.152-3.651-1.937-5.322l-2.062-4.101c-.341-.631-.839-1.274-1.094-1.941-.427-1.114-.373-2.084-.281-3.256.06-.765.211-1.593 0-2.347-.212-.759-1.108-1.175-1.625-1.723-.214-.226-.206-.519-.375-.751-.106-.145-.284-.243-.406-.376-.007-.026-.036-.038-.063-.031z"/><path d="M14.155 270.182c-.067.039-.101.12-.062.187l2.562 3.788c.594.831-1.162-1.748-1.937-2.41-.387-.331.461.938.719 1.377.514.879 1.098 1.707 1.688 2.536l.906 1.221c-1.263-2.203.021.006 1.156 1.065.018.024.038.018.063 0s.018-.039 0-.063l-2.437-3.851c-.53-.856 1.141 1.673 1.75 2.473.305.401-.568-.831-.844-1.252l-1.594-2.567-.875-1.252c1.307 2.161.005.005-.906-1.221-.039-.067-.121-.071-.188-.031zm-3.469-10.268c-.045.007-.069.048-.062.093l-.031 1.597c.052.859.357 2.286.5 3.13l.469 3.131 1.469 10.925a.35.35 0 0 0 .375.314.35.35 0 0 0 .313-.376c-.233-4.25-.877-8.375-1.656-12.553-.286-1.535-.4-3.154-.781-4.666-.131-.517-.328-1.027-.5-1.533-.007-.045-.049-.07-.094-.062zm2.689 19.375c-.05.02-.083.075-.062.125 1.021 3.663 2.401 7.129 3.906 10.613 1.084 2.509 2.234 4.965 3.812 7.201-.418-1.014-.915-1.993-1.406-2.974-.718-1.434-1.299-2.92-1.875-4.415-1.366-3.538-2.455-7.127-4.25-10.487-.02-.05-.075-.083-.125-.063z"/><path d="M17.78 278.162c-.04.005-.068.054-.062.095.086 3.206.579 6.4 1 9.579l1.312 9.549 4.813 32.464 2.625 17.156 1.156 7.639 1.156 9.548 1 5.698c.008.063.062.102.125.093s.102-.062.094-.124c-.006-3.214-.584-6.402-1.031-9.58l-1.063-7.639-3.906-26.736-4.656-30.523-1.344-9.549-1.156-7.575c-.005-.041-.022-.1-.063-.095zm13.439 94.169c-.251.026-.464.249-.438.501l1.594 22.854c.52 10.972.641 21.95.563 32.934-.041 5.767-.33 11.518-.562 17.281-.162 4.006-.341 8.122.375 12.083.006.084.074.132.156.126s.131-.075.125-.157c.07-1.602-.005-3.187-.031-4.789a151.74 151.74 0 0 1 .094-8.453c.064-1.632.213-3.254.312-4.884.229-3.73.332-7.473.438-11.207.155-5.493.087-11.004.062-16.499-.034-7.836-.262-15.657-.719-23.479-.223-3.815-.462-7.66-.875-11.459-.162-1.488-.409-2.959-.594-4.446-.026-.251-.249-.432-.5-.406zm95.905-191.78c-.02.017-.018.043 0 .063.722 1.167 1.553 2.106 2.5 3.099l3 2.911 2.063 1.817c2.45 2.047 6.516 4.727 9.656 2.41.451-.334.85-.741 1.187-1.19a7.5 7.5 0 0 0 .969-1.753c.667-1.693.793-3.597 1.031-5.384-.302 1.544-.738 3.003-1.375 4.445-.422.956-.83 1.919-1.468 2.755-2.743 3.588-7.195.491-9.782-1.566l-1.031-.844c-.685-.612-1.298-1.284-1.937-1.942l-1.907-2.035c-.92-.997-1.746-1.943-2.812-2.786-.018-.02-.074-.018-.094 0zm29.188 29.74c-.051-.032-.124-.02-.156.032-1.044 1.503-2.393 2.75-3.562 4.164l-2.969 3.381-2.187 2.034c-2.957 2.578-7.47 5.486-10.969 2.129-.486-.466-.901-.958-1.25-1.534-.964-1.592-1.366-3.373-1.907-5.134-.02-.086-.101-.145-.187-.125s-.145.102-.125.187a16.17 16.17 0 0 0 1.469 4.603c.423.854.959 1.722 1.625 2.41 3.845 3.981 9.973.178 13.218-2.661.391-.341.752-.705 1.126-1.065.649-.622 1.589-1.549 2.187-2.222.625-.705 1.359-1.618 1.875-2.41.753-1.158 1.194-2.418 1.844-3.633.032-.051.02-.124-.032-.156zm-139.749-93.98c-.057-.016-.109.038-.125.095-1.788 4.389-2.403 9.32-2.781 14.025-.567 7.044-.471 14.099.219 21.131.731 7.453 1.927 14.864 3.281 22.228l3.563 19.127c.863 5.244 1.354 10.524 1.875 15.81l.75 9.079c-.001.028.003.03.031.032s.061-.004.063-.032c.43-3.055.67-6.084.563-9.173-.187-5.344-1.29-10.651-2.219-15.903l-4.812-25.702c-1.94-10.937-3.458-22.115-2.906-33.248a81.41 81.41 0 0 1 1.281-10.863c.403-2.161.987-4.274 1.312-6.449a.15.15 0 0 0-.094-.157z"/><path d="M10.812 120.568c-.894.031-1.593.795-1.562 1.69s.793 1.597 1.687 1.566c.242-.019 1.246-.179 1.281-.094.608 1.465.197 3.203 1.812 4.038.816.423 1.842.582 2.719.846l2.656.907c.663.229 1.413.277 2 .659.047.102.179.14.281.093a.18.18 0 0 0 .094-.251c.064-2.483-2.751-3.86-4.687-4.758l-.938-.407c-.071-.026-.143-.017-.219-.063-.182-.699-.309-1.425-.625-2.097-.539-1.147-1.482-1.959-2.75-2.129-.584-.078-1.166.017-1.75 0zm131.626 3.601c-.28-.069-.595.09-.876.157s-.562.162-.843.25c-1.209.377-2.309.909-3.407 1.534-3.446 1.963-6.612 4.819-9.156 7.858-.389.465-.824.901-1.156 1.409-.16.244-.264.527-.406.782-.254.458-.576.843-.938 1.221-.394.548-.297 1.327.25 1.722a1.24 1.24 0 0 0 1.719-.282c.23-.443.483-.876.844-1.22.2-.193.463-.333.656-.533.593-.615 1.13-1.381 1.687-2.035 2.256-2.646 4.729-5.178 7.594-7.169.91-.632 1.887-1.192 2.906-1.628a10.29 10.29 0 0 1 .719-.281c.23-.078.528-.069.719-.22.27-.212.388-.539.594-.813.041-.007.068-.053.062-.094s-.021-.069-.062-.063c-.301-.2-.556-.509-.906-.595zm6.623 126.132c-.095-.002-.185.06-.187.156l-.531 4.697c-.192 1.501-.382 3.019-.282 4.539.097 1.467.494 2.926.688 4.383.322 2.412.479 4.861.438 7.294l-.126 5.947c.015.829-.082 1.89.5 2.568.61.709 1.637.604 2.438.345 1.588-.515 2.908-1.8 3.688-3.256 1.234-2.306.673-4.699 1.093-7.17.114-.668.277-1.352.563-1.972.456-.989 1.155-1.863 1.562-2.88.614-1.533.587-3.092.344-4.696-.011-.128-.123-.23-.25-.22a.24.24 0 0 0-.219.251c.022 1.471.022 2.995-.531 4.384-.525 1.316-1.63 2.372-1.938 3.787-.25 1.156-.342 2.265-.374 3.444-.047 1.666.027 3.213-.813 4.727-.714 1.286-1.941 2.444-3.375 2.88-.469.143-1.222.269-1.594-.156-.399-.457-.222-1.488-.218-2.036l.031-5.947-.313-6.543-.75-5.165c-.21-3.064.463-6.106.313-9.174.002-.095-.061-.185-.157-.187zm18.22 13.619a.26.26 0 0 0-.312.187c-.502 1.864-.686 3.753-.907 5.666l-.593 5.041c-.024.225.15.445.375.469s.413-.15.437-.375c.402-3.584.367-7.144 1.188-10.675a.26.26 0 0 0-.188-.313z"/><path d="M166 275.439c-.057-.054-.165-.027-.219.031-2.943 2.851-5.666 5.947-8.812 8.578-.143.121-.152.326-.031.47s.325.152.468.031c.947-.809 1.938-1.587 2.844-2.442.783-.738 1.442-1.639 2.156-2.442 1.197-1.344 2.434-2.629 3.594-4.007.054-.057.057-.165 0-.219zm-18.751 2.381c-.181.036-.371.034-.531.127-.213.12-.307.696-.344.907-.167.945.122 1.889.813 2.567.406.399.903.661 1.374.971 1.516.996 3.437 1.61 5.188 2.066l1.469.344c.133.033.27.11.406.094.155-.018.296-.122.437-.187.029.008.055-.003.063-.032s-.003-.054-.031-.063c-.088-.132-.156-.311-.282-.406-.238-.182-.554-.143-.843-.22l-1.594-.438c-1.54-.328-3.126-.829-4.5-1.628-.876-.509-1.542-1.491-1.594-2.505-.015-.305.269-.931.219-1.127-.044-.173-.166-.311-.25-.47z"/><path d="M147.562 277.632c-.172.066-.234.176-.281.344-.017.062-.062.188-.062.188l.531-.032h.656c.111-.004.344-.031.344-.031l.406-.032s.193-.107.188-.218-.219-.188-.219-.188L149 277.5l-.281.163h-.313c-.079-.004-.139-.025-.218-.031-.195-.015-.435-.074-.626 0z"/><path d="M146.531 272.84c-.368.14-.681.441-.812.908-.278.988.117 2.107.593 2.974.104.19.275.456.407.626l.25.313.531.337-.469-.869-.5-.939c-.296-.698-.576-1.731-.187-2.442.317-.581 1.052-.377 1.531-.156.127.058.389.048.375.187.75.219 1.181.345 1.25.219.137-.361-.906-.782-.906-.782l-.438-.219-.406-.157c-.422-.126-.851-.14-1.219 0z"/><path d="M146.718 270.587c-.508-.034-1.01.119-1.375.595-.684.888-.448 2.195-.156 3.192l.156.501c.059.161.037.552.187.47.272-.149.219-.094.219-.094l-.125-.47c-.098-.337-.158-.594-.219-.939-.13-.742-.265-2.258.625-2.629.722-.303 1.647.103 2.188.563.109.093.212.211.312.313l.313.345h.93l-.163-.345h-.361l-.344-.375c-.196-.189-.488-.448-.718-.595-.432-.275-.961-.498-1.469-.532zM58.657 73.138c-.077.015-.14.079-.125.156l.125 2.098.094 1.377.093 1.127.156 2.348c-.002.037.026.061.063.063s.063-.062.063-.062l.25-1.158.063-1.19c.028-.704.037-1.645-.031-2.348-.038-.394-.187-1.19-.187-1.19s.004-.007-.406-1.127c-.015-.078-.079-.109-.156-.094zM47.124 49.753c-.06.007-.101.066-.094.125.045 1.058.059 2.086.281 3.131.245 1.15.803 2.188 1 3.35.248 1.464.348 3.249 2.281 3.131.078.017.139-.016.156-.094s-.016-.171-.094-.188l-.25-.125-.344-.25c-.116-.09-.263-.188-.344-.313-.356-.551-.418-1.188-.563-1.816-.122-.53-.284-1.109-.531-1.597-.224-.442-.515-.819-.687-1.284-.232-.623-.28-1.133-.375-1.784l-.156-1.252-.156-.939c-.007-.06-.065-.101-.125-.094zm53.75 6.48c-.227-.026-.443.149-.469.376-.213 2.284-.572 4.557-1.218 6.762-2.104 7.17-7.388 13.281-13.751 17.03-3.069 1.809-6.437 2.886-9.781 4.038-.06.016-.11.096-.094.157s.096.079.156.063c7.537-1.49 15.075-6.216 19.687-12.366.864-1.152 1.543-2.457 2.219-3.725 1.967-3.69 3.064-7.738 3.625-11.865.026-.227-.148-.444-.375-.47z"/><path d="M104 54.999V54.5l-.562 2.078-.063.563c-.091.584-.206 1.268-.625 1.722-.328.356-.843.567-1.312.626l-.25.031c-.033.005-.638-.04-.687-.021-.093.193.052.366-.002.5-.376.072.58-.016.689-.01.1.006.212-.019.312-.031.428-.053.881-.19 1.219-.47.661-.548 1.018-1.467 1.156-2.285a5.66 5.66 0 0 0 .063-.595l.062-1.61zm-57-5s.511-.406.5-.499c-.008-.07-.788.398-.844.442l-.156.125c-.12.116-.176.18-.219.344-.106.406.086.974.156 1.377l.063.376.063.344.063.344s.089.171.188.157.156-.219.156-.219l-.063-.344-.062-.376-.094-.344c-.078-.294-.393-.955-.281-1.252.05-.133.24-.261.344-.344.011-.009.187-.13.187-.13z"/><path d="M43.187 48.815c-.007.01 0 .031 0 .031l.969.814.594.751.219.407s.431 1.105.812 1.565a1.88 1.88 0 0 0 .469.407l.188.125.25.031s.052-.008.063-.031.024-.052 0-.063c-1.045-1.204-1.165-1.48-1.25-1.628-.14-.343-.271-.691-.469-1.002-.187-.294-.656-.814-.656-.814s.005.008-1.156-.595c-.01-.007-.025-.01-.031 0zm-.906-5.885s-.668.366-.875.564l-.75.689-.469.469-.469.47s-.012.013-.375.626c-.027.025-.025.066 0 .094s.066.025.094 0l.656-.313.5-.438.5-.47.687-.751s.014.012.594-.845c.026-.025.025-.068 0-.094s-.068-.025-.094 0z"/><path d="M44.045 47.375s-.614-.451-.88-.555l-1.608-.793-.624-.226-.624-.226s-.017-.005-.726-.075c-.035-.014-.071.005-.085.04s.005.071.04.085l.561.462.609.268.637.255 1.638.71s-.005.018 1.017.181c.034.013.072-.006.085-.04s-.005-.072-.04-.085zm66.808-12.362l-1.14.382-.977.467-.611.318-.611.318s-.015.009-.488.424c-.036.017-.033.045 0 .064s.086.017.122 0l.855-.212.651-.297.652-.318.895-.509s.018.008.774-.573c.034-.017.033-.046 0-.064s-.088-.017-.122 0z"/><path d="M112.558 39.255s-.747-.55-1.071-.677l-1.954-.968-.758-.277-.758-.277s-.021-.006-.882-.093c-.042-.017-.086.006-.104.048s.007.086.049.103l.682.564.74.327.774.311 1.991.867s-.006.022 1.236.222c.041.016.088-.007.103-.048s-.007-.088-.048-.104zm-1.627-4.543s-.869-.323-1.216-.356l-2.146-.392-.805-.057-.805-.057s-.021 0-.873.154c-.045-.005-.081.03-.086.075s.03.081.075.086l.811.354.802.111.83.086 2.153.285s0 .023 1.249-.127c.044.004.082-.031.086-.075s-.031-.083-.075-.086z"/><path d="M112.732 39.065s-.258.551-.298.78l-.371 1.4-.08.534-.08.534s-.001.014.056.601c-.006.03.015.057.044.065s.055-.012.061-.042l.276-.509.115-.526.1-.548.301-1.415s.014.002-.018-.85a.06.06 0 0 0-.045-.065.05.05 0 0 0-.061.042z"/><path d="M111.916 43.34s-.522.153-.689.25l-1.118.53-.381.232-.381.232s-.01.007-.323.332c-.022.012-.024.037-.007.055s.047.021.07.009l.509-.123.402-.211.404-.229 1.076-.572s.009.008.501-.441c.021-.013.023-.037.006-.055s-.048-.021-.069-.009zm-71.48-3.667c-.39-.005-.366-2.363-.936-3.174-.064-.09-.468.395-.502.501-.063.196-.013.798.002 1 .035.446.33 1.089.5 1.5.456 1.102.769 1.341 1.529 2.239.189.224.374.463.594.657l.188.157a2.43 2.43 0 0 0 .188.125l.156.125c.053.057.131.084.188.031s.053-.162 0-.219c-.076-.165-.028-.015-.094-.157.029.068-.085-.126-.125-.188-.045-.07-.109-.12-.156-.188-.163-.236-.356-.462-.531-.689-.402-.52-.672-1.135-1-1.722z"/><path d="M43.842 33.349c.019.175-.098.506-.156.751l-.25 1.064c-.18.78-.379 2.569-1.031 3.099-.706.575-1.604-.339-2.062-.814-.136-.141-.375-.438-.375-.438L39.5 36.5l.28.669.406.438c.121.125.246.228.375.344.613.552 1.604 1.256 2.313.47.732-.813.864-2.157 1-3.193l.125-1.064c.05-.315.783-2.313.501-2.163-.49.26-.606 1.336-.657 1.349zm61.063 15.965c-.191.889-.174.85-.156.595l.031.532c.046.346.194.689.25 1.033.1.606-.095 1.395-.281 1.972-.052.162-.102.322-.188.47.012.228-.595.932-.562 1.082.041.191.784-.752.875-.925.144-.274.351-.701.437-1.002.183-.636.224-2.088.063-2.724-.046-.182-.111-.361-.187-.532s-.241-.688-.282-.501z"/><path d="M108.094 51.13l-.063.376s-.216.71-.375.72c-.263.016-.536-.303-.687-.47-.51-.562-1.004-1.194-1.438-1.816-.17-.245-.294-.521-.437-.783-.011-.021-.594-.658-.594-.658l.031.438.25.407.531.783c.527.808 1.06 1.615 1.876 2.16.195.13.625.391.874.313.207-.065.5-1.033.5-1.033l-.468-.438z"/><path d="M109 44.998l-.2 3.219-.3.781-.376 1.003-.029.971c-.004.082.074.121.156.125s.152-.043.156-.125c.154-.96.288-1.151.438-1.534.216-.454.484-.878.844-1.221.836-.797 1.834-1.12 2.843-1.597.246-.116.728-.309.78-.626.058-.345-.387-.513-.623-.626-.573-.275-1.182-.411-1.813-.47l-.469-.031c-.168-.019-1.407.131-1.407.131zm-.876 5.003h.002l-.064.47.062-.47zm.876-5.003l1.407.026a4.29 4.29 0 0 1 .469.063c.573.103 1.176.22 1.719.438.074.03.494.196.437.344-.102.268-1.188.666-1.437.783-.961.45-2.095.847-2.095.847l-.7.719.2-3.219zm33.594 405.006c-.029.001-.065.033-.063.062.069 4.981.438 9.927.688 14.902.344 6.855.628 13.766.562 20.631-.029 3.092-.32 6.182-.5 9.267-.019.198.115.355.313.375s.387-.115.406-.313c.422-3.097.525-6.178.656-9.298.265-6.292.016-12.537-.468-18.815l-1.532-16.749c-.002-.029-.033-.065-.062-.062zm-6.251-68.686l-1.875 1.315c-2.712 2.107-5.165 4.749-8.594 5.667-1.559.416-3.376.147-4.937-.157-3.08-.6-6.046-1.695-9.063-2.536-.037-.012-.081.025-.094.063s.026.081.063.093c3.373 1.328 6.946 2.61 10.562 3.069 1.665.211 3.591.183 5.188-.376 1.483-.519 2.842-1.417 4.094-2.348 1.803-1.342 3.399-2.851 4.874-4.54.069-.061.061-.182 0-.25s-.15-.061-.218 0zM84.03 72.105l-1.906.814c-1.859.603-3.867.557-5.781.376l-4.625-.282c-1.15-.046-2.107-.13-3.094.532a.12.12 0 0 0-.062.125c.014.041.053.045.094.031 1.249-.076 2.441-.585 3.719-.501 3.768.249 8.681 2.125 11.688-1.033.013-.009.04-.018.031-.031s-.049-.04-.063-.031zM62.499 44.901l-3.469.282c-.514.037-.912.487-.875 1.002a.92.92 0 0 0 1 .845c2.563-.164 5.198-.908 7.781-.626.482.053.948.076 1.406.251 1.26.478 2.186 1.376 3.25 2.16.082.1.213.114.312.031s.114-.244.031-.344c-1.716-3.554-5.752-3.821-9.437-3.6zm26.032.094c-.703.138-1.424.408-2.094.657-1.581.59-2.578 1.259-3.219 2.818-.035.048-.048.121 0 .156s.121.016.156-.031c.982-.797 2.174-1.565 3.406-1.878 1.029-.261 2.136-.152 3.188-.156 1.338-.006 2.565.154 3.875.407.465.09.927.153 1.375.313.36.118.757-.077.875-.438s-.077-.759-.438-.877c-2.161-.659-4.871-1.411-7.125-.971zm-22.438 3.037c-2.448-.409-6.406.221-8 2.317-.17.163-.195.456-.031.626s.455.164.625 0a12.51 12.51 0 0 1 6.219-2.066c.976-.047 2.013.058 2.875.564.728.427.85 1.136 1.406 1.691.005.03.033.037.063.031s.068-.033.063-.063c.694-1.7-1.947-2.887-3.219-3.099zm22.031.564c-1.089.179-2.142.574-3.125 1.221-.739.486-1.262.785-1.656 1.596-.039.041-.041.086 0 .125s.117.041.156 0c.959-.525 1.579-1.406 2.594-1.941 1.529-.806 3.637-.917 5.281-.438.623.181 1.316.453 1.875.783.679.4.654.568 1.5.626.129.075.301.035.375-.094s.035-.301-.094-.376c-.12-.173-.214-.366-.375-.501-.207-.173-.852-.298-1.094-.376-.709-.228-1.356-.465-2.094-.595a9.91 9.91 0 0 0-3.344-.031zM50.78 57.05c-.216.035-.378.253-.344.47.264 1.946.655 3.912 1.344 5.76.533 1.43 1.282 2.776 2.031 4.101 2.901 5.134 7.015 9.554 11.875 12.867 2.192 1.495 4.428 3.168 6.938 4.101.498.185 1.021.291 1.531.438.017.007.055.017.063 0s-.014-.055-.031-.063c-2.752-1.596-5.74-2.81-8.281-4.759-7.404-5.678-12.975-13.28-14.687-22.572-.035-.216-.222-.379-.438-.344zm93.813 440.883c-.209.126-.282.417-.156.626 2.039 2.948 3.836 6.064 5.874 9.016 2.276 3.296 4.695 6.515 7.032 9.768 1.76 2.452 3.378 5.075 5.437 7.295.019.025.068.05.094.031s.019-.068 0-.094c-1.646-2.936-3.886-5.569-5.844-8.296-4.203-5.857-8.49-11.769-11.812-18.189-.126-.21-.416-.283-.625-.157zM42.186 476.052a.2.2 0 0 0-.25.124l-2.062 5.136c-1.487 3.392-3.258 6.644-5.031 9.891l-3.344 6.137c-.646 1.151-1.391 2.207-1.781 3.475-.103.179-.022.397.156.501s.397.054.5-.126c.903-.974 1.434-2.139 2.094-3.287l1.687-2.943a99.45 99.45 0 0 0 5.969-12.272c.847-2.097 1.704-4.17 2.188-6.385.032-.104-.023-.22-.125-.251zm38.376-410.02l-1 .751-.625.25-.156.157-.094.188s-.025.026-.125.188c-.033.021-.021.061 0 .094s.094 0 .094 0h.188l.219-.031c.144-.027.273-.101.406-.156l.844-.376.375-.219s-.022.002.188-.344c.136-.087.181-.27.094-.407s-.406-.094-.406-.094zm-7.03-.47c-.067.068 0 .25 0 .25l.25.331.219.358.5.498.907.378c.031.026.099 0 .125-.031s-.031-.094-.031-.094V67l-.375-.561-.656-.438s.013-.002-.688-.438a.18.18 0 0 0-.25 0zm5.779-9.861l-.031.595-.094 1.377c-.057 1.13-.066 2.259.063 3.381l.125 1.002.031.438s.014.004.063.501c.006.077.079.132.156.125s.131-.079.125-.157l-.031-.47-.125-1.503-.188-3.726-.094-1.565z"/></g><g class="C"><path d="M102.782 16.384c-.085.026-.151.102-.125.188-.032.734.171 1.373.25 2.098.092.835.105 1.705-.031 2.536-.337 2.064-1.864 3.508-3.094 5.072-.252.292-.198.718.094.97s.716.229.969-.063c.637-.671 1.327-1.447 1.781-2.254.972-1.727 1.382-3.889 1.156-5.854-.106-.928-.26-1.837-.812-2.598-.026-.086-.102-.12-.188-.094zm-52.564-.628c-.059-.022-.135.004-.156.063-.558.686-.741 1.392-.906 2.254-.399 2.082.03 4.225.906 6.136 1.749 3.816 5.22 6.642 9 8.296 2.169.95 4.3 1.486 6.656 1.127.06.002.123-.065.125-.125s-.034-.092-.094-.094c-1.748-.415-3.562-.781-5.25-1.409-4.451-1.655-9.085-5.313-10.312-10.143-.298-1.172-.382-2.461-.25-3.663.086-.785.332-1.492.344-2.285.022-.059-.004-.135-.062-.156zM35.875 494.365c-1.148-.249-2.283.477-2.531 1.628s.508 2.287 1.656 2.536c3.144.628 6.386.968 9.375 2.191 1.139.467 2.166 1.071 3.188 1.753l.469.314c.145.107.26.316.438.344.339.053.659-.089 1-.125.034.042.114.065.156.031s.034-.114 0-.156c.093-.346.31-.677.281-1.033-.018-.228-.265-.355-.406-.533-.442-.559-.911-1.06-1.469-1.503-1.725-1.368-3.743-2.408-5.75-3.287l-1.344-.595-2.656-.907-2.406-.658z"/><path d="M44.564 492.988c-1.828-.079-3.647-.143-5.469.094-1.104.143-2.218.44-3.219.939-.241.12-.578.161-.687.407-.169.378-.022.807-.031 1.221.358.155.676.416 1.063.47.189.025.355-.178.531-.251.368-.153.8-.29 1.188-.376 1.231-.271 2.496-.303 3.75-.219 2.059.138 4.004.697 6 1.189l4.719 1.19 1.281.501c1.165.21 2.26-.586 2.469-1.753a2.12 2.12 0 0 0-1.719-2.473c-.431-.008-.851.017-1.281 0-1.616-.064-3.274-.527-4.875-.721-1.233-.148-2.478-.165-3.719-.218z"/><path d="M40.407 486.07a1.73 1.73 0 0 0-2.094 1.252c-.23.921.331 1.866 1.25 2.097 1.699.499 3.324 1.197 4.938 1.91l5.594 2.378 3 1.691c.175.101.849.695 1.031.752.243.076.513.097.75.188.009.057.068.102.125.093s.103-.067.094-.125c.163-.165.46-.456.531-.688.109-.356-.281-.99-.437-1.284-.504-.948-1.108-1.752-1.937-2.442-.689-.574-1.498-1.018-2.25-1.503-1.59-1.024-3.257-1.961-5.031-2.629-.547-.207-1.133-.35-1.688-.532l-1.5-.564c-.775-.273-1.575-.423-2.375-.594z"/><path d="M59.189 483.846c-.934-.106-2.004.405-2.906.563-.803.142-1.624.112-2.437.064-3.639-.218-7.441-.805-11.031.156-.911.243-2.041.499-2.781 1.127-.283.239-.478.563-.719.845-.139.055-.211.206-.156.344s.205.212.344.157c.351.046.708.109 1.063.125.87.039 1.756-.187 2.625-.219.845-.031 1.686.003 2.531.031 2.063.069 4.075.447 6.125.626 1.198.105 2.393.118 3.594.189 1.27.073 2.516.311 3.781.031.316-.07.661-.112.937-.282.294-.181.476-.506.719-.751.754-.226 1.194-1.029.969-1.784s-1.027-1.165-1.781-.94c-.293-.086-.571-.248-.875-.282z"/><path d="M44.375 477.804c-.244.022-.46.19-.687.282-.766-.233-1.581.202-1.812.97a1.46 1.46 0 0 0 .969 1.816c.167.211.274.479.5.626.208.135.477.134.719.187l.75.157 2.438.344c3.075.476 6.267.597 9.281 1.441.879.246 1.788.601 2.594 1.032l.531.314c.162.108.278.338.469.376.347.068.709-.046 1.063-.063.013.017.015.013.031 0s.044-.014.031-.031c.075-.371.282-.755.219-1.127-.045-.264-.349-.431-.531-.627-.565-.605-1.224-1.115-1.937-1.533-2.371-1.392-5.072-2.095-7.719-2.724l-1.75-.376-1.687-.281-2.906-.595c-.192-.049-.365-.206-.562-.188z"/><path d="M63.751 475.361l-5.094.595-5.75.908-4.25.439-3.594.532-.594.093c-.211.034-.486-.005-.656.126-.275.211-.393.562-.594.845-.124.01-.229.126-.219.25s.126.198.25.188c.243.247.415.586.719.752.186.101.445-.002.656 0h.594l3.625.062c3.091-.036 6.178-.305 9.25-.626l4.219-.595c.557-.03 1.099.05 1.656.063a1.85 1.85 0 0 0 1.719-1.941c-.064-1-.94-1.755-1.937-1.691z"/></g><g opacity=".2" class="B"><path d="M107.91 33.23s-.779 3.759-3.758 6.632-8.16 4.858-8.16 4.858-2.303 1.006-7.422 1.771-6.96 1.388-13.057 1.289-6.064-.62-11.328-1.686-9.727-2.576-9.727-2.576l-7.253-4.836-2.597-6.097 10.881 7.587 16.412 4.374 16.387-.566 9.805-2.436 6.179-4.519 3.639-3.795zM47.688 477.366s2.378 4.701 6.511 5.101l9.276 1.373s-4.953 5.9-9.33 14.195c-1.246 2.36 1.778 1.607.483 5.714s-7.787 14.146-7.787 14.146l-.911 6.255.026 1.127 8.549-4.851s6.209-4.131 7.993-7.426c4.978-2.988 5-10.5 5-10.5l4.683-2.991S82.44 489.2 82.55 488.366s-2.228-7.667-2.228-7.667l-1.328-8.388-17.236 3.241-14.072 1.814zm82.816 26.612l7.126 2.137 9.927 1.277 4.674 2.466-7.407-11.733-6.541 3.004-7.779 2.849z"/></g><path d="M101.897 107.276l3.028-.289 2.958.708 2.783 3.202-11.971-.837 3.202-2.784z" fill="#fff433"/><path d="M101.061 119.248l2.958.708 3.027-.29 3.202-2.783-11.971-.837 2.784 3.202z" fill="#2d2d2d"/><path d="M97.986 113.018l12.969.906-.708 2.958-11.971-.837-.29-3.027z" fill="#9b59d0"/><path d="M97.986 113.018l12.969.906-.29-3.027-11.971-.837-.708 2.958z" fill="#fff"/><circle cx="104.471" cy="113.471" r="6.5" transform="rotate(4 104.471 113.471)" stroke="#000"/></g><defs><radialGradient id="B" cx="0" cy="0" r="1" gradientTransform="translate(60.2674 63.4749) scale(7.28488 7.29798)" xlink:href="#O"><stop stop-color="#dea88e"/><stop offset="1" stop-color="#eed1bf"/></radialGradient><radialGradient id="C" cx="0" cy="0" r="1" gradientTransform="translate(93.7321 63.4272) scale(7.12265 7.13546)" xlink:href="#O"><stop stop-color="#dea88e"/><stop offset="1" stop-color="#eed1bf"/></radialGradient><radialGradient id="D" cx="0" cy="0" r="1" gradientTransform="translate(50.8381 52.2174) scale(3.8439 3.85081)" xlink:href="#O"><stop stop-color="#dea88e"/><stop offset="1" stop-color="#eed1bf"/></radialGradient><radialGradient id="E" cx="0" cy="0" r="1" gradientTransform="translate(100.444 52.7286) scale(3.74687 3.75361)" xlink:href="#O"><stop stop-color="#dea88e"/><stop offset="1" stop-color="#eed1bf"/></radialGradient><radialGradient id="F" cx="0" cy="0" r="1" gradientTransform="translate(26.0935 282.048) scale(0.482225 0.483096)" xlink:href="#O"><stop stop-color="#dea88e"/><stop offset="1" stop-color="#eed1bf"/></radialGradient><radialGradient id="G" cx="0" cy="0" r="1" gradientTransform="translate(22.1777 277.493) scale(3.35153 3.35756)" xlink:href="#O"><stop stop-color="#dea88e"/><stop offset="1" stop-color="#eed1bf"/></radialGradient><radialGradient id="H" cx="0" cy="0" r="1" gradientTransform="translate(26.166 282.897) scale(0.054663 0.0547607)" xlink:href="#O"><stop stop-color="#dea88e"/><stop offset="1" stop-color="#eed1bf"/></radialGradient><radialGradient id="I" cx="0" cy="0" r="1" gradientTransform="translate(16.0985 280.455) scale(2.17662 2.18054)" xlink:href="#O"><stop stop-color="#dea88e"/><stop offset="1" stop-color="#eed1bf"/></radialGradient><radialGradient id="J" cx="0" cy="0" r="1" gradientTransform="translate(18.6995 288.642) scale(0.420209 0.420966)" xlink:href="#O"><stop stop-color="#dea88e"/><stop offset="1" stop-color="#eed1bf"/></radialGradient><radialGradient id="K" cx="0" cy="0" r="1" gradientTransform="translate(149.615 268.011) scale(0.268947 0.269425)" xlink:href="#O"><stop stop-color="#dea88e"/><stop offset="1" stop-color="#eed1bf"/></radialGradient><radialGradient id="L" cx="0" cy="0" r="1" gradientTransform="translate(156.835 267.981) scale(12.7577 12.7806)" xlink:href="#O"><stop stop-color="#dea88e"/><stop offset="1" stop-color="#eed1bf"/></radialGradient><radialGradient id="M" cx="0" cy="0" r="1" gradientTransform="translate(76.5176 73.7918) scale(7.31254 7.3257)" xlink:href="#O"><stop stop-color="#dea88e"/><stop offset="1" stop-color="#eed1bf"/></radialGradient><clipPath id="N"><path fill="#fff" d="M0 0h169v552H0z"/></clipPath><linearGradient id="O" gradientUnits="userSpaceOnUse"/></defs></svg>