<svg xmlns="http://www.w3.org/2000/svg" width="193" height="220" fill="none" xmlns:v="https://vecta.io/nano"><style><![CDATA[.B{fill:#070d1c}.C{fill:#fff7f7}]]></style><g clip-path="url(#E)"><g fill="#eed1bf"><path d="M51.16 37.747l1.727 4.344 18.665 7.321-1.344-1.999-.357-6.988 5.402-.352 1.184-.043c2.245-.485 2.083-1.496 2.083-1.496.262-3.207 1.447-4.196 1.447-4.196l-.766-.739s.892-.874.83-1.09c-.183-.637-.67-1.639-.67-1.639l.313-1.94s1.992-1.404 2.339-2.164c.452-.988-2.454-2.754-3.685-4.703s-1.474-2.817-1.474-2.817l-3.026-3.986-4.732-.117-17.603 8.305-.264 6.181-.069 8.118zm.176 92.616s-.867 1.756-1.142 3.598 1.502 3.634.043 3.769c-12.519 1.163-49.009.193-49.009.193s-.676-.369.231-2.053c.624-1.158 3.344-1.709 3.344-1.709 2.59-.162 4.807-.409 6.674-.688.8-.119 1.382-.131 1.999-.404.587-.26 1.215-.784 1.756-.784 2.475 0 4.22-.734 4.22-.734l4.744-2.354 10.519 1.932-1.104 2.427 4.618-2.228c2.4-2.112 3.426-4.914 3.426-4.914 5.242 2.883 9.679 3.949 9.679 3.949z"/></g><g fill="#c3ada5"><path d="M161.072 182.123l2.316 4.412-9.338 7.148-16.311-2.763-2.571-3.65.207-2.525 11.088.969 9.655-1.442 4.954-2.149zM60.166 31.229s.829 4.122 3.185 7.154 6.241 4.975 6.241 4.975l.792-2.608 2.337-.676h3.371s-4.855-.512-8.862-2.619-7.064-6.226-7.064-6.226zM40.1 129.734l-1.564 4.791-4.78 3.843 16.76-.92-.105-3.875.925-3.446-9.925-3.924-1.311 3.531zm-18.082.519s.112 1.761.974 2.773 1.611.384 2.473 1.274.974 2.286.974 2.286l.075 1.611 3.56-.749 4.609-6.633-6.483-.075-4.459-2.136-1.724 1.649zM73.655 15.976l.859 1.002-5.619.304.662-1.61"/></g><path d="M56.147 135.732c5.11 5.179 18.952 4.936 33.533 6.234s35.84-2.468 35.84-2.468-.009 8.789 2.283 19.343c2.689 12.384 1.698 23.674 1.698 23.674s5.827 4.507 11.992 5.102 10.657-.56 10.657-.56-.019 1.55 1.794 1.23 3.324-1.276 6.585-3.963 5.122-6.224 5.122-6.224-2.872-6.464-5.931-16.834-3.587-21.151-8.025-31.637-17.055-14.697-17.055-14.697-13.211-.122-22.108-1.906c-11.629-2.332-28.627.843-36.112.628-4.804-.138-7.167-1.38-10.498-1.272-4.868.159-9.893 3.264-9.893 3.264s-5.344 2.937-5.631 7.992.638 6.915 5.749 12.094z" fill="#598dac"/><g fill="#4d7796"><path d="M125.582 139.222l3.088-8.761s-9.254 3.315-20.667 3.555-14.619.956-26.174-.67-12.69-2.613-20.046-5.832-9.378-7.047-9.378-7.047-3.717 1.392-1.51 7.473c1.378 3.799 4.135 7.867 6.955 9.506 4.226 2.457 27.231 4.676 27.231 4.676l26.325-.311 14.175-2.589zm1.697-2.683l2.407-4.944 1.504-2.679v3.585l-4.766 6.6.855-2.562zm-.693 4.11l5.093-6.274s-.29 11.862 2.002 25.174 7.166 28.078 7.166 28.078-2.792-.671-5.682-1.968-5.42-3.51-5.42-3.51l-.804-17.833s-3.931-13.854-3.563-19.789c.213-3.438 1.208-3.878 1.208-3.878zm27.343 19.941l3.211 15.14 4.24 7.94s-3.721 3.955-7.131 4.66c-2.42.499-2.702-2.034-2.702-2.034l2.806-1.167.639-6.851-1.063-17.688z"/></g><g class="C"><path d="M163.722 204.717l13.171-1.134s7.849-1.059 11.507-2.986 3.154-2.667 3.487-3.64c.418-1.22-2.805-3.475-2.805-3.475l-17.512 6.791-9.816 1.272 1.968 3.172zm-31.888-5.758s-1.666 3.9.021 5.093c6.144 4.34 15.422 9.442 24.284 12.649 7.118 2.574 7.57 2.802 10.871 1.901s3.827-4.773 3.827-4.773l-28.35-9.624-10.653-5.246z"/></g><path d="M135.094 185.589s-4.212 11.425-3.413 13.62c1.215 3.339 13.69 8.948 13.69 8.948s5.633 2.832 11.073 4.973c1.806.712 3.591 1.346 5.142 1.777 6.222 1.726 6.497.773 8.358-.407s-.506-4.614-2.654-6.807c-2.215-2.263-4.274-5.372-4.274-5.372l17.616-1.79 6.758-2.167s3.053-1.546 2.912-3.107-1.832-2.669-4.283-3.312c-2.334-.612-5.163-.367-5.163-.367s-7.031-1.81-10.907-3.247c-2.156-.801-4.296-3.251-4.296-3.251h-4.71s-4.02 4.379-6.031 5.566-2.012-.815-2.012-.815l.446 1.857-4.452.442s-1.452.225-4.074-.901c-3.578-1.537-9.726-5.64-9.726-5.64z" class="B"/><g fill="#c2bac6"><path d="M156.016 212.97s-.061-1.61.359-2.762 1.352-2.088 1.352-2.088-3.771-3.494-6.902-7.656-5.622-8.995-5.622-8.995l3.803.897s.701 2.141 3.893 6.006 6.932 7.719 8.876 9.452c.55.488-1.42 1.387-1.894 3.057s-.465 3.367-.465 3.367l-3.4-1.278zm27.455-13.355s-.743-1.562-.922-3.001.934-2.459.21-2.757c-3.389-1.4-5.767-1.787-10.161-3.906s-6.944-4.871-6.944-4.871h-3.781s2.628 3.185 7.288 5.883 10.425 4.913 10.425 4.913-.163.938.104 2.101.961 2.55.961 2.55l2.82-.912zm-130.3-84.568c2.616-1.925 8.642-4.112 8.642-4.112l8.087.433 6.123 2.449 20.565-1.275s1.993-2.094 1.266-6.169-4.175-10.131-4.175-10.131l-.895-.725s-.854-11.762-7.094-25.864c-4.587-10.366-11.44-15.095-11.44-15.095s-.093-4.148-3.014-6.585c-1.17-.977-.071 1.325-.071 1.325l-4.189-3.483s-7.745-5.186-14.635-3.823c-8.756 1.732-9.625 2.295-13.515 7.917-3.723 5.382-4.643 9.327-3.949 13.126s6.337 3.07 6.337 3.07L35.02 92.047l-10.158 25.042s-2.714 3.103-3.419 5.043.598 2.716.598 2.716-1.554 2-.605 2.745c1.879 1.474 8.072 3.216 8.072 3.216s1.501.217 4.11.007c2.345-.189 3.975.67 5.42.134 1.44-.534 2.413-4.647 2.413-4.647s2.948 1.988 5.476 2.969 4.633.954 4.633.954-1.209-2.371-1.209-4.129c0-2.368.43-4.561.997-7.464s-.793-1.662 1.823-3.587z"/></g><g fill="#a09bab"><path d="M67.162 67.191l-5.088 35.245s-3.379 0-4.226 2.687c-.641 2.032.678 4.027.678 4.027l-1.184 3.017s-4.172 3.427-6.45 3.427c-1.401 0 .847-3.393.847-3.393s-1.789-.446-2.368-2.604.053-6.029.053-6.029l8.589-20.029 9.148-16.348z"/><path d="M49.012 104.896l-7.862 21.276s2.668 1.904 5.266 2.878 5.435 1.304 5.435 1.304l-1.767-5.14.581-3.512-1.138.157 1.642-6.233-.651-6.217-1.505-4.513zm-27.299 19.44l.575 3.619a15.54 15.54 0 0 0 5.034 2.399c3.692.942 6.431.374 6.431.374l-12.04-6.392zm29.611-75.613l-5.497 5.951-4.677 11.554s-3.063.356-5.005-1.114c-2.891-2.188-1.278-7.023-1.278-7.023s1.398 1.876 3.546 1.425 4.383-3.5 4.383-3.5 1.573-2.579 3.705-4.403 4.824-2.89 4.824-2.89z"/></g><path d="M75.948 113.723s-8.048-1.121-10.216-1.253c-4.957-.301-14.779 8.658-14.779 8.658s-1.996 2.234-1.723-1.091c.111-1.344.466-4.441 3.94-5.035 1.502-.257 1.642-2.053 3.532-2.833 5.199-2.145 13.324-.712 13.324-.712l5.921 2.266z" class="C"/><g fill="#ec678a"><path d="M73.424 15.971l4.325 4.401 1.955 1.548-.589-1.302 1.645-.782s-1.155.023-2.37-.984-2.441-2.751-2.441-2.751l-2.525-.13zm-18.941 8.773s1.029 3.137 0 6.451-3.02 8.87-4.131 6.944c-1.607-2.786-2.816-1.716-5-4.627s-3.586-6.758-3.586-6.758l5.858-4.69 6.317.779.542 1.903z"/><path d="M70.204 15.594l-1.519 3.524.931 2.855-2.349-2.005-4.212 4.233.284-1.823-2.025 1.985-2.41-1.357-2.309 1.701-2.106-.709-.412 3.58-2.295-3.634-2.218 2.853-1.87.525.388-2.268-2.328 3.07-1.326-1.594s-.463 3.673-1.136 3.915c-.23.083-1.676-3.385-1.676-3.385s-.466 1.106-1.152 1.72-1.462 1.249-1.668.848.685-1.182.845-2.452-.132-2.737-.132-2.737.841-3.277 6.624-5.495 16.508-3.375 16.508-3.375l7.564.026z"/></g><g fill="#be5574"><path d="M69.439 17.162s-7.441-.157-14.844 2.043-14.766 6.755-14.766 6.755l-.61-.911 7.136-5.783 13.116-3.92 11.072-.203-1.105 2.02zm4.075-1.089l.944.937 1.944-.135-.323-1.01-2.565.208zM43.498 30.5l.629 1.433s-.019-1.948.678-2.647 1.287.562 2.11-.148.674-2.269 1.181-2.69-.715 1.274.257 1.042 1.897-1.872 3.185-1.742 1.159 1.488 1.967 2.26a13.12 13.12 0 0 0 1.435 1.205l.049-2.605s-.484-2.332-.65-2.049.484 3.361-.012 3.184c-1.53-.544-2.258-2.647-1.981-3.869.252-1.111-.808.266-.808.266s-1.542 2.142-2.411 2.243-1.064-1.841-1.064-1.841-1.198 2.835-2.156 3.406-1.113-1.729-1.676-1.121c-.343.371-.735 3.672-.735 3.672z"/></g><path d="M59.587 29.958l1.945-4.231-3.041-2.153-3.656 1.022 1.322 3.839 3.43 1.522z" fill="url(#B)"/><path d="M70.058 23.938l5.034 1.215.475 3.898-4.606 3.227-4.464-4.191.57-3.521 2.992-.629z" fill="url(#C)"/><path d="M17.467 132.359l1.235 2.017-3.79.337-2.405 1.959-4.624-.286-2.017-1.614 6.658-1.21 4.943-1.203z" fill="url(#D)"/><path d="M77.185 16.076c1.352-1.526-.26-4.413-.768-5.352-.29-.536-2.153-1.263-2.153-1.263s-1.883-4.855-7.139-6.955-7.815-2.6-13.884-1.444-6.718 2.576-10.389 6.765-4.296 9.992-4.296 9.992-.993.466-.817 2.472-.508 5.464 1.439 4.963c.627-.161 1.492-2.342 6.591-4.476s7.645-2.84 13.804-4.061 10.832-.822 10.832-.822 6.49.507 6.781.18z" class="B"/><path d="M75.661 22.099s-.248.635-1.082.667-2.253-.539-2.253-.539l2.282-2.25 1.053 2.122z" class="C"/><mask id="A" maskUnits="userSpaceOnUse" x="-9" y="-6" width="205" height="228"><path d="M195.567-5.141H-8.225v226.169h203.792V-5.141z" fill="#fff"/></mask><g mask="url(#A)" class="B"><path d="M39.487 24.495c-.044.014-.072.059-.058.104.095.264.115.544.156.821.068.459.112.916.069 1.381-.049.54-.207 1.044-.422 1.537l-.566 1.15c-.062.118-.182.289-.069.416.151.172.538-.028.682-.104l.121-.064.122-.069.139-.081.139-.092.289-.22a5.99 5.99 0 0 0 .751-.722l.301-.353c.247-.335.437-.725.607-1.104.037-.086-.007-.188-.093-.225s-.183.006-.22.092l-.196.451a5.22 5.22 0 0 1-.792 1.075c-.219.232-.444.446-.705.63l-.393.26a4.19 4.19 0 0 1-.48.254c.005-.012.01-.031.012-.035.086-.182.213-.345.312-.52.241-.427.459-.894.566-1.375.139-.624.146-1.279.087-1.913l-.087-.647c-.043-.2-.113-.398-.168-.595-.014-.044-.06-.066-.104-.052z"/><path d="M41.226 25.679c-.038.007-.059.043-.052.081-.015.255.057.463.127.705.154.53.362 1.028.572 1.537.171.415.372.82.578 1.219l.422.78.26.399a1 1 0 0 0 .144.162c.158.133.375.09.497-.069.166-.217.208-.536.248-.798l.041-.295.046-.416.029-.439.046-.434.098-.607c.052-.246.106-.485.231-.705.063-.09.044-.214-.046-.277s-.22-.038-.283.052c-.287.348-.359.827-.416 1.26l-.139 1.318-.035.485-.041.318a1.07 1.07 0 0 1-.075.283l-.023-.029-.064-.081-.22-.312-.22-.335-.352-.624-.595-1.219-.486-1.243c-.076-.224-.111-.449-.214-.664-.007-.038-.043-.059-.081-.052zm6.975-1.637c-.028-.013-.062.001-.075.029-.237.301-.373.656-.538 1l-.948 1.826c-.181.286-.398.584-.665.797-.081.065-.156.114-.254.145-.021.007-.07.018-.092.023-.013.003-.053.009-.04.011.055.01-.019-.093-.029-.116l-.168-.376c-.081-.156-.184-.331-.301-.462-.045-.051-.083-.11-.145-.139s-.143-.025-.214-.035c-.062-.045-.146-.027-.191.035s-.033.145.029.191c.019.056.031.115.058.168.061.119.166.211.225.335.122.254.212.585.451.763.406.302.947-.198 1.19-.485l.121-.15.116-.162c.198-.308.357-.635.514-.965l.589-1.294c.145-.35.316-.691.393-1.063.013-.029 0-.062-.029-.075zm4.392-3.663c-.044.014-.066.059-.052.104.158.678-.145 1.388-.387 2.011-.035.101.02.213.121.248s.213-.02.248-.121c.202-.656.445-1.52.179-2.19-.014-.044-.066-.066-.11-.052zm-.474 2.7c-.054-.029-.121-.008-.15.046-.419.759-.951 1.485-1.583 2.08-.288.271-.578.557-.936.734-.144.071-.304.136-.462.168-.099.02-.195.018-.295.04a.24.24 0 0 0-.243.231c-.003.129.102.235.231.237.466.102 1.005-.228 1.364-.48.318-.223.578-.497.821-.798.521-.646.925-1.371 1.3-2.109.029-.054.008-.122-.046-.15z"/><path d="M49.704 23.442c-.02-.003-.043.009-.046.029-.15.468-.235.964-.433 1.416-.033.074-.081.146-.116.22l-.185.433c-.067.14-.18.251-.26.382l-.121.202c-.053.056-.05.144.006.197s.144.05.196-.006c.069-.055.145-.1.208-.162.123-.122.203-.297.289-.445s.179-.297.231-.462c.026-.083.038-.169.058-.254.117-.498.196-.996.202-1.509.003-.02-.009-.037-.029-.04zm2.582.173c-.045-.013-.091.013-.104.058-.033.173-.075.344-.081.52-.024.748.297 1.446.612 2.104.2.416.423.789.74 1.127.229.244.461.45.78.56.094.033.198-.016.231-.11s-.016-.198-.11-.231c-.4-.146-.685-.4-.971-.717-.498-.552-.851-1.231-1.005-1.959-.083-.389-.194-.864-.035-1.248.013-.045-.013-.091-.058-.104z"/><path d="M54.49 23.864c-.04-.024-.097-.011-.121.029-.018.051-.028.102-.052.15s-.061.091-.087.139c-.101.19-.163.413-.197.624-.094.585-.001 1.171.081 1.751l.168 1.248c.002.077.068.141.144.139s.135-.067.133-.145c.014-.1.038-.199.041-.3.009-.335-.097-.668-.156-.994l-.179-1.358c-.018-.313.003-.607.098-.907.015-.048.015-.102.04-.145s.073-.078.11-.116c.024-.04.017-.091-.023-.116z"/><path d="M58.957 22.951c-.141.047-.266.116-.404.168-.27.101-.557.154-.821.277-.393.185-.709.532-1.127.665-.109.035-.223.03-.335.04-.423.039-.82-.011-1.237-.092-.135-.026-.275-.089-.41-.104-.055-.006-.112.004-.168.006-.045-.013-.091.013-.104.058s.013.091.058.104c.046.032.082.074.133.098.089.043.194.048.289.075l.381.11c.345.083.742.161 1.098.11.135-.02.258-.08.387-.121.431-.139.88-.311 1.254-.572.23-.16.428-.37.665-.52.122-.077.257-.139.381-.214.023-.011.034-.041.023-.064a.05.05 0 0 0-.064-.023z"/><path d="M54.432 24.067c-.041.003-.073.04-.069.081-.032.333-.009.645.035.977.113.857.436 1.786 1.127 2.352.292.239.667.415 1.017.549.146.056.34.137.491.168.056.011.215.011.272.011.125.021.245-.065.266-.191s-.06-.239-.185-.26l-.243-.081c-.076-.017-.155-.013-.231-.029a2.36 2.36 0 0 1-.769-.318c-.742-.483-1.132-1.215-1.37-2.046-.108-.378-.16-.765-.26-1.144-.003-.041-.04-.072-.081-.069zm2.993 4.252c-.114-.008-.211.077-.22.191.01.155.024.335.087.48.075.174.2.264.318.405.039.046.06.103.104.145s.106.067.156.104c.101.074.178.181.283.248.053.034.116.042.173.069.167.079.32.162.497.22.47.154 1.172.149 1.196-.503.005-.019-.004-.041-.023-.046s-.035.01-.04.029c-.051.095-.105.192-.185.266-.353.322-.994.061-1.312-.179-.046-.035-.081-.087-.127-.121s-.103-.049-.15-.081a.7.7 0 0 1-.127-.11c-.038-.042-.061-.092-.098-.133s-.087-.064-.121-.104c-.082-.095-.077-.15-.121-.26-.059-.145-.141-.239-.098-.399.008-.114-.077-.211-.191-.22zm-13.887 2.289c-.042.02-.066.067-.046.11l.145.225c.08.155.124.324.202.48l.249.457a11.16 11.16 0 0 0 1.173 1.658c.365.433.783.817 1.196 1.202l.688.601 1.734 1.369.468.364c.089.077.196.205.277.289l.717.751c.098.109.176.243.295.33.068.05.15.077.225.115.014.018.04.02.058.006s.02-.04.006-.058c-.018-.084-.02-.169-.052-.248-.057-.14-.171-.252-.266-.37l-.433-.491a19.47 19.47 0 0 0-1.682-1.474l-1.815-1.427c-.67-.566-1.273-1.232-1.815-1.919a11.76 11.76 0 0 1-.867-1.243c-.088-.147-.202-.276-.272-.433-.035-.08-.051-.17-.075-.254-.02-.042-.067-.06-.11-.04z"/><path d="M51.188 38.272c-.052.013-.101.034-.139.075s-.059.101-.081.15c-.021.02-.02.054 0 .075s.054.02.075 0c.069-.025.189-.074.266-.064.084.011.153.095.202.156.142.176.231.392.312.601.239.615.363 1.265.503 1.907.048.221.062.454.127.67.042.134.184.204.318.162s.204-.184.162-.318l-.665-2.115c-.11-.3-.229-.595-.399-.867-.144-.23-.374-.513-.682-.433z"/><path d="M53.454 41.75l-2.369.197-.601.052-.584.104-1.161.202a20.59 20.59 0 0 0-2.202.59c-1.338.432-2.645 1.002-3.762 1.867-.145.112-.344.223-.474.347-.094.09-.158.207-.248.3l-.266.277c-.098.097-.186.15-.277.254-.042.048-.076.106-.116.156l-.474.578c-.11.151-.201.325-.306.48l-.428.613-.185.335-.219.312-.289.503-.225.318c-.066.112-.112.235-.191.341-.103.139-.152.174-.248.318-.038.056-.067.117-.104.173-.075.114-.182.202-.254.318-.037.059-.059.127-.087.191-.053.083-.025.195.058.248s.19.031.243-.052c.047-.051.1-.098.139-.156.076-.114.114-.252.185-.37.035-.058.081-.109.116-.167.102-.173.158-.365.272-.532.037-.055.091-.101.127-.156.071-.109.117-.23.185-.341.1-.164.225-.313.329-.474.069-.106.122-.223.191-.329s.157-.194.231-.295.127-.215.196-.318l.33-.439.254-.272.462-.56c.041-.045.092-.077.133-.121.083-.09.148-.199.231-.289a3.67 3.67 0 0 1 .266-.254c.093-.082.205-.135.3-.214s.167-.188.26-.272c.143-.129.3-.236.457-.347l.48-.347a8.78 8.78 0 0 1 .913-.514l.433-.231c.23-.114.477-.192.717-.283.862-.33 1.734-.588 2.635-.792l1.422-.306.584-.075.584-.11c.875-.121 1.76-.166 2.641-.196 1.109-.039 2.219-.017 3.323.098.171.018.344-.001.514.023.083.012.161.042.243.064.046.007.091-.023.098-.069s-.023-.085-.069-.092l-.254-.017c-.171-.026-.337-.082-.508-.104l-1.913-.162c-.578-.018-1.156-.023-1.734 0zM37.74 51.569c-.025-.012-.052-.002-.063.023-.057.068-.125.129-.173.202s-.075.16-.116.237l-.376.717-.497 1.029c-.083.177-.191.339-.277.514s-.153.37-.237.549l-.705 1.664-.434 1.133c-.307.935-.507 1.929-.56 2.913-.042.76-.017 1.559.202 2.294.2.671.517 1.299.896 1.884.087.132.261.168.393.081a.29.29 0 0 0 .081-.399c-.258-.386-.481-.778-.647-1.214-.063-.166-.106-.337-.15-.509a7.82 7.82 0 0 1-.26-1.572c-.033-.643.038-1.303.15-1.936.085-.477.22-.938.347-1.404l.237-.855c.216-.66.488-1.308.757-1.948l.254-.532c.039-.09.061-.186.098-.277.072-.179.17-.347.254-.52l.352-.769.335-.74c.035-.08.083-.154.11-.237s.035-.173.052-.26c.012-.025.002-.057-.023-.069z"/><path d="M36.071 64.976c-.077.039-.109.131-.069.208.002.233.074.298.237.445.268.241.581.367.919.485.854.299 1.776.301 2.67.249.482-.028.96-.055 1.393-.283.043-.018.065-.067.046-.11s-.067-.064-.11-.046c-.064.021-.142.055-.208.064l-.26.023c-.454.079-.922.106-1.381.058l-.52-.075c-.34-.045-.692-.102-1.023-.191-.079-.021-.148-.058-.225-.081-.183-.055-.352-.103-.526-.185-.108-.051-.236-.1-.329-.173-.142-.113-.238-.224-.399-.318a.16.16 0 0 0-.214-.069z"/><path d="M47.005 52.857c-.014-.008-.032-.008-.04.006-.441.522-.78 1.126-1.121 1.716l-.474.78-.324.601-.647 1.202-.283.624-1.225 2.693-.324.85-1.456 4.091-.977 3.3c-1.292 4.518-2.192 9.136-3.184 13.725l-1.26 5.6-.387 1.78-.387 1.543c-.091.366-.165.734-.266 1.098-.14.506-.294 1.01-.416 1.52-.052.219-.086.445-.139.665-.025.086.024.177.11.202s.177-.024.202-.11c.075-.213.162-.423.237-.636.175-.497.308-1.011.445-1.52.099-.365.221-.728.324-1.092.144-.513.267-1.027.399-1.543l.526-1.988c.43-1.79.802-3.598 1.19-5.398.988-4.581 1.956-9.163 3.15-13.696a73.73 73.73 0 0 1 .826-2.849c.466-1.519.961-3.031 1.52-4.519.106-.282.232-.557.341-.838.353-.912.726-1.813 1.115-2.71.209-.482.447-.956.676-1.428.264-.542.506-1.096.786-1.63.352-.669.777-1.304 1.075-1.999.008-.014.002-.032-.012-.041zM33.338 97.244c-.025-.01-.054-.002-.064.023l-.439 1.011-1.705 4.103-1.104 2.525-1.52 3.369-.433.954-2.456 5.028-2.092 3.698-.954 1.486-1.242 1.676-.289.364c-.136.166-.27.305-.318.52-.121.551.267 1.114.526 1.566.122.213.278.385.433.572a10.3 10.3 0 0 0 .676.734l1.271 1.167a14.25 14.25 0 0 0 1.069.757l.89.532c.118.056.23.13.358.156.208.042.435-.053.63-.11.052.019.108-.005.127-.058s-.006-.113-.058-.133c-.101-.158-.191-.377-.341-.496-.091-.073-.204-.106-.306-.162l-.329-.174a7.97 7.97 0 0 1-.849-.502l-.838-.613-.815-.63c-.292-.253-.553-.531-.826-.803-.162-.161-.291-.347-.439-.52-.249-.292-.528-.596-.584-.994-.011-.083-.005-.167.052-.231l.15-.168.156-.185c.33-.394.639-.813.93-1.237l.769-1.196 2.046-3.583 2.312-4.675.884-1.925.289-.63 1.93-4.582 1.26-3.144.965-2.549.306-.878c.01-.025-.003-.054-.029-.064zm7.309 31.277c-.045-.009-.089.018-.098.064-.047.279-.148.495-.289.74-.088.153-.172.305-.289.439-.457.525-1.195.808-1.872.873l-1.185.052c-.415-.018-.838-.101-1.248-.162l-.815-.133-.774-.191-1.491-.312a.4.4 0 0 0-.468.312c-.043.216.097.425.312.468l1.497.295.815.092.855.093c.648.048 1.307.024 1.953-.035.349-.031.671-.112 1.006-.214.248-.075.497-.149.728-.271a2.9 2.9 0 0 0 1.092-1.023c.182-.296.249-.655.335-.988.01-.046-.018-.089-.064-.099z"/><path d="M27.2 127.5c-.112.032-.216.109-.277.22a.46.46 0 0 0 .179.623l.387.191.826.324c.333.153.642.359.971.52.852.417 1.772.717 2.676 1 .121.044.256-.017.301-.139s-.017-.256-.139-.3l-1.185-.521-1.346-.676-.971-.468c-.25-.149-.471-.34-.711-.502l-.364-.232c-.11-.061-.234-.072-.347-.04zm41.417-64.755c-.307-.076-.617.115-.694.422l-.566 1.549-.306.919c-.087.235-.21.456-.306.688l-.867 2.161-.711 1.468-.468 1.011-.387.757-.52 1.034-2.971 5.265c-1.776 3.138-3.531 6.286-5.097 9.535-.193.401-.362.815-.549 1.219l-1.705 3.802-.925 2.121c-.093.213-.169.43-.266.641-.064.14-.146.275-.208.416-.094.212-.152.437-.237.653-.141.359-.302.708-.451 1.063-.296.71-.57 1.433-.849 2.15l-2.45 6.415-1.474 4.253c-.072.211-.155.413-.225.624l-.693 2.098-1.514 4.294c-.188.534-.348 1.077-.532 1.612l-1.844 5.456c-.248.75-.528 1.492-.792 2.236-.129.365-.234.74-.347 1.11-.022.061.008.128.069.15s.128-.014.15-.075c.146-.358.304-.716.434-1.081l.78-2.236 1.965-5.415.59-1.589 1.526-4.288.797-2.058c.081-.207.146-.416.225-.624l.988-2.502 1.479-3.797 1.503-3.832 1.063-2.548c.144-.355.265-.72.422-1.069.095-.212.215-.409.3-.624.057-.143.101-.295.156-.439.11-.286.241-.566.358-.85.324-.782.672-1.556 1.017-2.329.768-1.717 1.555-3.421 2.387-5.109a53.93 53.93 0 0 1 1.029-1.965l.601-1.121.468-.826c.916-1.651 1.879-3.272 2.843-4.895l2.889-4.999.74-1.271c.141-.252.267-.512.41-.763.188-.33.382-.656.555-.994.253-.496.478-1.008.722-1.508.354-.724.718-1.448.994-2.208.089-.245.145-.499.231-.745.113-.322.243-.642.335-.971a13.38 13.38 0 0 0 .341-1.699.57.57 0 0 0-.416-.694zm-46.728 61.669c-.047-.001-.086.034-.087.081-.007.216-.12.434-.214.624-.196.398-.464.755-.676 1.144-.138.253-.305.58-.202.873.112.318.405.498.665.688.28.205.595.337.902.497l1.173.647 1.485.746 1.589.601.803.283c.273.075.559.109.832.179l.537.156a16.87 16.87 0 0 0 1.659.237c.732.073 1.449.137 2.184.058l.543-.052c.089-.018.173-.054.26-.081.084-.014.141-.096.127-.179s-.09-.142-.173-.128l-.272.012-.514.075c-.698.053-1.424.079-2.121-.011-.538-.07-1.074-.196-1.595-.341-.176-.05-.356-.07-.532-.122-.264-.078-.518-.203-.774-.3l-.78-.278-1.508-.693-1.468-.705-1.156-.63c-.289-.181-.548-.389-.855-.537l-.445-.209c-.105-.045-.177-.058-.214-.179-.035-.113.021-.248.064-.352.086-.211.221-.403.341-.595.201-.322.416-.68.486-1.058.022-.121.016-.242.017-.364.001-.047-.034-.086-.081-.087zM39.59 83.543a.24.24 0 0 0-.133.127l-.925 1.867c-.502 1.171-.886 2.381-1.306 3.583l-.803 2.19-.85 2.167-.746 1.589-.231.543c-.086.178-.197.346-.289.52s-.168.363-.243.549c-.016.026-.009.059.017.075s.059.009.075-.017l.37-.48.3-.52.33-.497c.249-.423.461-.88.67-1.323l1.503-3.508 2.138-5.438.434-1.098c.056-.123.001-.268-.121-.324-.061-.028-.132-.028-.191-.006z"/><path d="M49.613 103.972c-.036-.007-.074.021-.081.058-.118.324-.167.656-.231.994l-.179 1.23-.093.937c-.024.326-.013.656-.017.982l-.023.734c.002.241.044.484.069.722a8.46 8.46 0 0 0 .185 1.133c.083.337.193.689.381.982a2.23 2.23 0 0 0 .405.457c.431.384.991.542 1.56.48a.451.451 0 1 0-.098-.896c-.189.02-.368.033-.549-.035-.305-.114-.447-.371-.618-.63-.234-.353-.379-.759-.485-1.167-.095-.362-.126-.723-.179-1.092l-.093-.705c-.062-.903-.014-1.808.023-2.711l.006-.387.069-1.005c.007-.037-.015-.074-.052-.081zm10.627 5.363c-.226.006-.451.043-.676.064l-1.341.138-.647.11c-.144.02-.29.003-.433.029-.071.013-.133.05-.202.07l-.208.051c-.903.212-1.797.47-2.647.85-.219.098-.42.225-.636.329-.205.1-.429.176-.612.313-.087.064-.157.147-.237.219-.163.11-.207.328-.098.491a.36.36 0 0 0 .497.099l.532-.278.266-.179c.163-.091.436-.19.607-.26l.659-.26c.296-.104.596-.171.896-.26l.959-.26c.133-.03.271-.027.405-.058s.263-.1.399-.133c.206-.049.416-.063.624-.104l1.289-.208.664-.064.445-.069c.372-.045.747-.053 1.121-.075 1.192-.071 2.372-.023 3.56.087l.641.057a11.65 11.65 0 0 1 1.034.168l1.728.376c.665.183 1.307.439 1.942.705.185.077.358.192.537.283.039.025.09.016.116-.023s.016-.09-.023-.116c-.166-.136-.343-.234-.52-.352-.486-.326-1.038-.539-1.589-.734-.822-.292-1.671-.497-2.531-.63l-1.508-.225a33.36 33.36 0 0 0-4.322-.145c-.23.006-.459-.012-.688-.006zm2.837 1.47l-.618.005c-.196.005-.389.032-.584.047l-1.086.051a18.57 18.57 0 0 0-2.029.365l-.751.173c-.707.211-1.392.507-2.023.89-.54.328-1.045.762-1.491 1.208l-1.011.93c-.506.397-1.09.676-1.728.775-.083.012-.166.011-.248.023-.137.018-.265.049-.405.052-.098.002-.196-.001-.294.006-.041.002-.02.004-.052.005.002-.044.007-.072.011-.098.011-.061.039-.141.064-.196l.248-.526c.145-.306.311-.614.399-.942.028-.106.033-.215.046-.324.005-.039.035-.124.046-.162.008-.026.032-.054.023-.081-.019-.058-.18-.167-.231-.202-.008-.046-.052-.077-.098-.069s-.072.052-.064.098c-.06.067-.055.067-.127.121-.023.017-.056.022-.069.047 0 0 .043.127.035.156-.023.086-.063.164-.092.248l-.156.434c-.155.392-.349.764-.462 1.173-.041.148-.089.302-.052.456.095.395.523.401.849.382l.445-.012c.379-.034.769-.135 1.127-.26 1.048-.365 1.75-1.137 2.543-1.867.687-.632 1.461-1.141 2.306-1.537.201-.094.41-.157.618-.231l.699-.249c.646-.174 1.313-.266 1.977-.34l1.058-.139.578-.017.607-.041 1.687-.069a.1.1 0 0 0 .104-.099c.001-.057-.047-.102-.104-.104-.562-.096-1.124-.096-1.693-.08zm-12.789 5.418c-.05.016-.095.054-.121.104-.121.241-.22.486-.324.734l-.127.307a12.65 12.65 0 0 0-.41 1.762c-.084.567-.136 1.151-.058 1.722.044.317.132.625.243.925.082.223.201.441.474.433.131-.003.255-.067.364-.132.243-.147.446-.345.647-.544.152-.15.285-.309.428-.468l1.427-1.549c.034-.031.038-.087.006-.121s-.087-.032-.121 0c-.647.546-1.236 1.157-1.844 1.745l-.63.561c-.094.069-.208.148-.329.156-.033.002-.051-.044-.064-.069l-.063-.127-.052-.139c-.126-.367-.181-.769-.196-1.156-.04-.986.194-1.95.584-2.849.043-.098.067-.206.104-.306.05-.135.124-.261.179-.393l.133-.301c.052-.101.009-.225-.092-.277-.051-.026-.106-.034-.156-.018zm11.036-13.909c-.53.025-1.115.136-1.526.497-.128.113-.273.299-.312.468-.022.097-.008.209 0 .307-.002.011.006.021.017.023s.021-.006.023-.018c.035-.09.083-.169.127-.254.057-.11.092-.214.179-.306.479-.51 1.428-.496 2.069-.457.71.044 1.416.181 2.104.359l.832.208.584.196.537.156.607.226.555.167a.23.23 0 0 0 .289-.144.23.23 0 0 0-.144-.289l-.555-.197-.63-.162-.543-.167-.613-.127c-1.172-.277-2.388-.542-3.6-.486zm9.335-.421c-.058-.013-.119-.006-.173.029-.109.069-.145.214-.075.323l.601.925a4.93 4.93 0 0 1 .272.566c.055.141.185.527.064.671s-.404.108-.566.098c-.534-.034-1.073-.218-1.583-.364l-.364-.104-.584-.174c-.217-.064-.417-.11-.642-.132a.09.09 0 0 0-.11.057c-.014.045.013.091.058.104.431.229.91.35 1.375.491.596.182 1.198.358 1.815.451.359.054.879.055 1.029-.358.106-.291-.018-.62-.127-.89-.225-.555-.545-1.072-.844-1.589a.23.23 0 0 0-.145-.104zm30.663 10.362c-.366.002-.737-.001-1.104.006l-1.641.046c-2.308.039-4.618.17-6.906.48l-1.757.237c-.326.054-.646.149-.965.231-.046.007-.077.052-.069.098s.046.076.092.069l.988-.063 1.497-.168 4.964-.272 5.16.024 3.005.156 5.594.416 1.786.219 1.491.151.728.115c.323.034.613-.203.648-.526a.59.59 0 0 0-.526-.647l-.734-.04-1.509-.145-2.069-.11-5.38-.26-3.294-.017z"/><path d="M114.303 112.96c-.249-.029-.473.15-.503.399a.45.45 0 0 0 .393.503l1.809.167c.216.033.435.116.653.133s.44-.029.659-.011c.213.017.423.072.635.098l.636.069 1.231.18 1.797.213 2.115.203 1.116.121 1.45.104 1.41.11 1.041.034 2.363.076c.956.003 1.933-.03 2.878.138.538.096 1.068.279 1.584.457l1.612.63c1.738.831 3.297 1.997 4.727 3.276.611.547 1.167 1.144 1.722 1.746 1.078 1.168 2.021 2.425 2.902 3.744 1.697 2.544 3.027 5.338 3.895 8.27l.375 1.243.168.716c.287 1.187.472 2.379.485 3.601.002.046.04.083.087.081s.083-.04.081-.087l-.226-2.549c-.125-.984-.296-1.969-.525-2.935-.307-1.292-.8-2.54-1.295-3.768-.619-1.536-1.4-2.994-2.265-4.404-1.253-2.041-2.757-3.947-4.473-5.617l-2.069-1.855a18.57 18.57 0 0 0-3.294-2.081l-1.393-.618-.849-.266c-.373-.093-.761-.149-1.139-.214l-1.115-.144c-.403-.028-.805-.007-1.208-.012l-1.641-.069-1.347-.075-.682-.069-1.745-.128-1.439-.162-1.11-.092-2.294-.277-1.601-.174-1.236-.109-.636-.087-.642-.052c-.217-.035-.419-.134-.635-.168s-.447-.004-.665-.023c-.602-.052-1.198-.188-1.797-.266z"/><path d="M141.809 118.918c-.041-.022-.094-.006-.115.035s-.007.094.034.115c.968.467 1.821 1.04 2.676 1.688.952.721 1.87 1.521 2.67 2.41l.768.93c1.248 1.535 2.285 3.211 3.173 4.976l1.295 2.78c.883 2.117 1.582 4.31 2.178 6.524l1.173 4.745.359 1.878.953 5.606.711 3.883 1.15 6.097.578 2.462c.068.259.33.414.59.347a.48.48 0 0 0 .346-.59l-1.878-8.46-.456-2.578-1.457-6.877-.451-1.866-1.751-6.577-1.531-4.248-1.508-3.282c-1.429-2.681-3.24-5.172-5.502-7.212-.6-.542-1.232-1.049-1.901-1.503l-2.104-1.283zm9.726 21.591c-.027.005-.045.03-.04.058l.243 1.571.341 2.231.312 2.289.312 2.329.659 7.495.456 9.206.035 3.959v2.878c0 .218.18.393.399.393s.393-.181.393-.399l-.047-2.884-.214-5.658c-.225-4.915-.592-9.827-1.277-14.701l-.352-2.665c-.065-.437-.146-.875-.22-1.311l-.26-1.619c-.093-.53-.217-1.055-.323-1.583a25.69 25.69 0 0 0-.353-1.549c-.005-.028-.035-.046-.064-.04z"/><path d="M154.202 172.235a.29.29 0 0 0-.237.335l.191 1.832.109.763.203 2.427.098 3.352-.058.982c-.037.608-.092 1.204-.208 1.803-.051.266-.131.52-.219.775l-.058.168c-.015.009-.031.022-.046.033l-.26.18-1.324.791c-.958.531-1.956 1.023-3.005 1.346-.354.111-.725.222-1.092.278-.173.028-.35.024-.52.065l-.336.092c-.039-.002-.068.03-.069.068s.03.076.069.076c.117.035.233.076.353.093.243.033.505-.039.746-.069.864-.112 1.71-.434 2.508-.775.912-.392 1.795-.854 2.646-1.364l.515-.305c.115-.069.229-.117.295-.245.084-.162.123-.347.173-.525l.15-.56c.243-.943.345-1.909.393-2.878a27.79 27.79 0 0 0-.023-3.427l-.237-2.456-.081-.775a15.36 15.36 0 0 0-.341-1.843.29.29 0 0 0-.335-.237zM60.159 31.213c-.007.005-.011.016-.006.023.043.101.074.21.127.306.108.194.259.36.393.537l.422.543.214.289c.153.187.325.356.491.532.573.604 1.183 1.153 1.826 1.682l1.456 1.11c1.003.68 2.084 1.247 3.184 1.751l2.294.919c.365.122.744.203 1.115.3a18.84 18.84 0 0 0 6.051.572c.146-.008.257-.132.249-.277s-.131-.257-.277-.248l-1.971.029c-1.022-.032-2.039-.147-3.046-.324-.674-.119-1.32-.314-1.977-.503-1.398-.402-2.723-.975-3.993-1.682-.541-.3-1.05-.661-1.566-1L63.7 34.726c-.582-.469-1.142-.985-1.67-1.514l-.486-.514-.254-.243c-.235-.24-.454-.501-.665-.763l-.202-.255c-.075-.079-.167-.147-.249-.22z"/><path d="M77.547 39.779a7.33 7.33 0 0 1-.711.04h-1.537l-1.554-.012-1.318.075c-.629.046-1.308.115-1.861.451-.16.097-.278.23-.41.358-.064.062-.105.082-.162.15-.143.173-.232.408-.3.618a3.84 3.84 0 0 0-.168.925c-.01.154-.002.309-.006.462l.006 1.393c.036.399.11.796.179 1.19l.225 1.075.277.902.162.462.208.457c.078.189.105.292.202.474.13.242.322.433.491.647.021.046.07.067.116.046s.067-.076.046-.122c-.047-.264-.056-.528-.133-.786-.048-.16-.117-.311-.173-.468s-.092-.318-.139-.474l-.3-.884-.451-1.647-.156-.936-.127-1.167c-.007-.237.032-.471.069-.705a3.61 3.61 0 0 1 .387-1.173c.021-.041.047-.106.075-.144.11-.149.318-.26.48-.341.298-.149.628-.223.954-.283.854-.159 1.719-.149 2.583-.208l2.115-.127.942-.052a.1.1 0 0 0 .092-.104.1.1 0 0 0-.104-.092zm-9.756 6.803c-.043.007-.083.031-.11.069a.17.17 0 0 0 .04.237c.044.091.105.223.173.3.075.085.175.145.266.214l.439.335c.154.123.286.269.439.393l.647.538c.595.561 1.15 1.142 1.67 1.774.735.895 1.388 1.888 1.699 3.017.092.333.105.692.115 1.035-.003.046.029.084.075.087s.09-.029.093-.075c.061-.376.021-.724-.04-1.098-.088-.538-.276-1.044-.52-1.532-.712-1.419-1.739-2.649-2.861-3.762l-.445-.468c-.191-.186-.416-.346-.618-.52-.165-.142-.386-.355-.584-.445-.11-.05-.236-.061-.352-.075-.038-.027-.084-.031-.127-.023z"/><path d="M70.856 47.939c-.029-.01-.06 0-.069.029s.006.065.035.075l.335.277.214.167c.589.548 1.051 1.315 1.416 2.023.289.561.546 1.132.74 1.733.135.42.257.843.254 1.289-.001.158.005.346-.081.485-.062.101-.154.136-.237.208-.046.04-.075.081-.127.116-.105.008-.187.098-.179.202s.104.181.208.173c.075.028.156.064.237.063.275 0 .544-.27.642-.503.169-.405.131-.851.046-1.271-.165-.819-.524-1.585-.925-2.312-.343-.621-.742-1.229-1.196-1.774-.191-.229-.385-.444-.607-.642-.229-.204-.39-.325-.705-.341zm-1.967 5.986c-.057.013-.105.051-.139.104-.067.107-.037.245.069.312l.601.347c.879.503 1.837.917 2.838.491.199-.085.341-.18.486-.341.019-.013.025-.039.011-.058s-.039-.025-.058-.011c-.326.125-.633.286-.988.312-.97.07-1.889-.61-2.647-1.121-.053-.034-.116-.048-.174-.035zm-13.13-6.448c-.913.015-1.828.143-2.699.422l-.815.277a9.56 9.56 0 0 0-.982.503c-.327.184-.677.379-.954.636-.058.054-.104.119-.162.173l-.537.48c-.025.021-.027.056-.006.081s.062.027.087.006c.189-.136.366-.303.566-.422.067-.04.146-.061.214-.098l1.133-.682c.865-.437 1.794-.745 2.751-.902.268-.044.533-.062.803-.081 1.237-.087 2.458.087 3.652.41 2.677.725 5.09 2.138 7.276 3.82.324.249.666.473 1.017.682.119.071.258.106.376.179.056.035.101.089.15.133l.295.254c.051.046.128.045.173-.006s.045-.128-.006-.174l-.289-.271c-.05-.044-.113-.076-.156-.127-.09-.108-.14-.246-.231-.352a6.05 6.05 0 0 0-.907-.867l-1.953-1.352c-1.751-1.05-3.621-1.953-5.623-2.41a13.26 13.26 0 0 0-3.173-.312z"/><path d="M70.96 52.967c-.044-.016-.088.002-.104.046s.002.094.046.11l.376.237.537.277a5.64 5.64 0 0 1 .919.665c.261.236.501.503.745.757 1.072 1.116 1.928 2.399 2.711 3.728l1.329 2.473.907 1.919c.686 1.629 1.195 3.336 1.757 5.01.039.163.206.264.37.225a.3.3 0 0 0 .225-.364c-.257-1.809-1.002-3.48-1.745-5.132l-.907-1.965a26 26 0 0 0-3.277-5.057c-.411-.494-.843-.982-1.329-1.404-.269-.234-.563-.446-.849-.659-.312-.231-.634-.447-.977-.63-.137-.073-.276-.152-.428-.191-.061-.016-.243-.037-.306-.046zm2.629 1.301c-.013-.01-.031-.007-.04.006a.03.03 0 0 0 .006.041l.589.566 1.04.832 2.641 2.52c1.765 1.788 3.302 3.794 4.675 5.894 3.555 5.44 5.828 11.631 7.328 17.927l1.04 4.623.74 3.629.156.665c.326 1.522.545 3.069.884 4.588a.42.42 0 0 0 .497.335c.232-.044.385-.265.341-.497-.245-1.539-.605-3.06-.878-4.594-.04-.225-.064-.451-.104-.676-.214-1.22-.488-2.433-.763-3.641l-.878-3.704c-.362-1.405-.774-2.798-1.202-4.184-1.599-5.181-3.666-10.257-6.686-14.783a39.05 39.05 0 0 0-2.918-3.808c-1.126-1.307-2.338-2.563-3.664-3.67-.409-.341-.831-.664-1.248-.994-.281-.222-.551-.458-.844-.664-.224-.158-.471-.279-.711-.41zm18.087 41.915l-2.901.162-2.508.197c-.113.016-.228.008-.341.023-.094.012-.234.063-.324.093-.047.001-.082.04-.081.087s.04.082.087.081c.099.029.226.074.33.081.115.008.231-.013.347-.006.509.03 1.006-.005 1.514-.035l3.531-.145a14.07 14.07 0 0 1 1.398.07c.236.023.474.042.699.121.276.096.532.309.74.508.52.498.907 1.172 1.237 1.803l.3.618.329.85c.302.859.555 1.738.74 2.629l.283 1.387.168 1.59.058.971-.023.751-.058 1.242c-.067.607-.167 1.218-.364 1.798-.079.23-.238.467-.277.71-.014.09-.006.182-.012.272a.4.4 0 0 0 .127.555c.19.118.443.063.561-.127.077-.051.19-.125.254-.191.215-.222.315-.574.41-.856a8.25 8.25 0 0 0 .324-1.334c.059-.365.081-.73.104-1.098l.029-.971-.064-.798-.087-1.023c-.076-.624-.204-1.238-.324-1.855-.407-2.102-1.135-4.183-2.265-6.01a6.47 6.47 0 0 0-1.277-1.491c-.216-.185-.453-.367-.722-.468-.617-.231-1.296-.202-1.942-.191zm-6.501.97c-.046.004-.079.046-.075.092.026.355.018.718-.04 1.069-.029.172-.076.339-.116.508-.163.704-.407 1.371-.705 2.028-.363.8-.772 1.586-1.26 2.318l-.445.606-.202.289c-.105.129-.225.24-.341.359l-.514.514c-.103.091-.108.244-.017.347s.244.114.347.023c.204-.168.395-.342.561-.549.109-.137.201-.288.306-.428l.231-.289c.156-.205.282-.433.416-.653a15.09 15.09 0 0 0 1.659-3.773c.218-.77.372-1.578.289-2.381-.004-.046-.046-.085-.092-.081zm-3.156 9.298a.2.2 0 0 0-.144.052c-.081.075-.086.203-.012.283.979 1.09 1.924 2.227 2.734 3.45.257.389.473.805.705 1.208l.485.763c.012.024.04.035.064.023s.029-.04.017-.063l-.341-.844-.688-1.237a15.84 15.84 0 0 0-1.167-1.82c-.466-.616-.983-1.191-1.514-1.751-.037-.041-.088-.062-.139-.064zm-35.64-47.762a4.28 4.28 0 0 0-.676.092c-.27.058-.523.158-.78.254-.263.098-.523.184-.769.324-.523.297-.925.721-1.179 1.266-.043.092-.088.186-.116.283-.052.188-.055.438-.064.63a.712.712 0 1 0 1.277.63l.422-.277c.053-.038.095-.09.145-.133l.387-.324c.21-.189.401-.449.659-.578.133-.066.296-.09.439-.121l.491-.092c.188-.018.378-.003.566-.023.143-.015.285-.07.428-.058.074.006.143.042.214.064l.445.127.734.156c.261.07.503.176.757.266l.272.092c.271.106.52.258.774.399l.803.451c.087.059.167.131.254.191l.826.503.549.37 1.115.774.52.457.532.445.509.474.532.457 2.364 2.473 1.462 1.693c.18.239.326.498.491.746.158.236.355.431.509.67.425.663.777 1.392 1.075 2.121.073.178.095.37.162.543.023.058.058.107.087.162a3.94 3.94 0 0 1 .15.329c.003.086.076.154.162.15s.153-.076.15-.162c.057-.185.142-.4.144-.595.003-.206-.077-.446-.116-.647a5.22 5.22 0 0 0-.266-.925c-.199-.508-.45-.988-.705-1.468-.141-.265-.238-.549-.399-.803-.167-.263-.368-.505-.543-.763l-1.138-1.641c-.284-.369-.608-.707-.913-1.058-.551-.634-1.137-1.226-1.745-1.803l-.508-.52c-.177-.165-.374-.308-.555-.468l-.821-.711-.295-.208c-.187-.149-.355-.32-.538-.474l-1.121-.855-.85-.595c-.098-.056-.201-.097-.3-.15l-.867-.497-2.254-1.069c-.27-.115-.542-.225-.832-.277-.186-.033-.376-.023-.561-.064-.092-.02-.181-.063-.272-.092-.177-.057-.358-.104-.543-.121-.221-.02-.451-.029-.682-.017zm-4.181 67.886c-.032.035-.028.09.006.122l.156.087c.147.1.26.248.393.364.279.241.589.454.896.658.821.548 1.709.995 2.618 1.376l.751.283a11.98 11.98 0 0 0 1.491.491l.555.151.37.063.358.069c.236.029.48.005.717-.023.048.005.087-.033.092-.081s-.027-.087-.075-.092c-.22-.076-.441-.155-.67-.197l-.358-.046-1.462-.312c-1.388-.334-2.753-.876-3.982-1.607-.426-.253-.829-.534-1.225-.832-.138-.103-.304-.188-.416-.323-.038-.046-.061-.1-.092-.151-.034-.031-.09-.034-.121 0zm.543-2.481c-.025-.011-.053-.001-.064.024s.004.052.029.063c1.548.671 3.015 1.543 4.641 2.029a9.89 9.89 0 0 0 1.191.277l.953.139c.089.008.165-.056.173-.145s-.056-.17-.145-.179c-1.294-.049-2.537-.462-3.739-.913l-1.358-.555-.821-.37-.861-.37zm7.997-2.096c-.057-.022-.123.006-.145.063a6.27 6.27 0 0 0-.52 2.086c-.077 1.126.12 2.281.393 3.37.338 1.348.919 2.644 1.606 3.848.82 1.435 1.8 2.784 2.947 3.976l.821.775c.773.703 1.616 1.338 2.543 1.826.441.232.9.432 1.375.584.638.202 1.3.345 1.953.491l2.323.508 7.362 1.231 9.258 1.023 3.589.272 3.976.202a228.95 228.95 0 0 0 11.512.197 140.83 140.83 0 0 0 11.922-.601c4.275-.395 8.565-1.003 12.685-2.243.237-.071.366-.323.295-.56s-.318-.366-.555-.295c-3.182.961-6.485 1.501-9.778 1.913-4.248.531-8.517.812-12.795.942l-6.53.11c-5.261-.014-10.521-.294-15.759-.769-4.819-.437-9.626-1.034-14.384-1.925l-3.641-.728c-.426-.091-.857-.16-1.277-.277-.39-.109-.77-.26-1.133-.439-1.217-.6-2.3-1.464-3.248-2.427-1.998-2.032-3.571-4.408-4.496-7.114a13.3 13.3 0 0 1-.422-1.451c-.319-1.459-.287-3.022.185-4.444.022-.057-.007-.123-.064-.144zm75.643 15.367c-.045-.014-.097.013-.11.058l-.202.462c-.088.238-.124.49-.191.734l-.22.74c-.104.417-.165.841-.231 1.265-.258 1.664-.344 3.341-.295 5.022l.208 3 .07.826.295 2.19 1.652 8.721.226.982.225 1.202c.06.272.33.442.601.382s.442-.33.381-.601l-.312-1.185-.225-.982-1.953-8.889-.283-1.895-.116-.809-.254-4.814.023-1.306c.049-.938.171-1.86.323-2.786l.162-.994.191-.722.087-.491c.013-.045-.008-.096-.052-.11zm2.455 26.194c-.181.02-.31.182-.289.364l.046 1.115.07.555.138 1.497.052.37.075.745.145 1.3.144 2.196.145 1.763.011.688.041.67-.012.653.029.948-.005 1.757-.012.543c-.015.172-.054.344-.081.514l-.087.729-.063.503c-.032.717.116 1.442.497 2.056.355.573.928.997 1.496 1.341 1.034.627 2.176 1.054 3.266 1.572l1.208.614.502.248.734.432c.088.045.181.078.272.117.039.026.09.015.115-.024s.016-.089-.023-.115l-.214-.209c-.294-.24-.654-.407-.976-.606-.471-.293-.974-.524-1.474-.762l-2.236-1.093-.382-.231c-.724-.422-1.351-.849-1.791-1.583-.398-.663-.364-1.406-.22-2.14l.15-.751.041-.537.104-.849.092-1.844.012-.647-.046-.67-.012-.683-.063-.693-.099-1.786-.242-2.201-.122-1.307-.086-.745-.029-.376-.197-1.491-.058-.56c-.044-.37-.139-.731-.202-1.098-.02-.182-.182-.31-.364-.289zm-93.979-32.738a.17.17 0 0 0-.116.057c-.402.379-.767.801-1.092 1.249-.12.165-.218.342-.33.514l-.63.965-.601.884c-.669 1.011-1.247 2.045-2.312 2.699-.385.237-.816.463-1.248.595-.561.172-1.172.263-1.757.301l-1.121.029c-.286.002-.564-.024-.849.006-.146-.01-.274.102-.283.248s.102.274.248.283c.29.069.571.076.867.093a9.31 9.31 0 0 0 .988.006l1.052-.081a8.89 8.89 0 0 0 1.318-.312c.212-.066.311-.091.514-.18.455-.199.874-.506 1.237-.843.765-.712 1.361-1.626 1.849-2.543l.624-1.185c.528-.882 1.176-1.674 1.774-2.508.061-.07.058-.176-.012-.237-.035-.03-.078-.043-.121-.04z"/><path d="M28.554 133.788a.23.23 0 0 0-.173.034c-.107.072-.135.217-.064.324.417.691.711 1.45.722 2.265.004.272-.012.569-.11.827-.056.147-.152.263-.237.393a2.12 2.12 0 0 1-.191.26c-.019.014-.02.039-.006.058s.039.025.058.011c.103-.051.215-.106.3-.185.221-.202.397-.693.457-.971.098-.455.063-.909-.012-1.363-.095-.579-.25-1.079-.601-1.555-.036-.053-.086-.087-.144-.098zm-6.579-.48c-.034-.02-.078-.006-.098.029-.143.166-.283.351-.457.485-.612.474-1.439.604-2.19.648l-2.11.069-.636.017c-.149.002-.297-.016-.445.006-.127.019-.25.06-.376.087l-.723.15c-.141.031-.293.033-.422.098-.119.061-.197.176-.295.266l-.48.451c-.084.08-.174.147-.248.237-.038.045-.056.109-.081.162a2.26 2.26 0 0 0-.191.774 1.48 1.48 0 0 0 .029.445c.256 1.111 1.722 1.347 2.676 1.341l.636-.035.306-.017c.221-.023.363-.063.578-.11l.607-.121c.094-.028.188-.071.277-.11.021-.005.034-.026.029-.046s-.026-.035-.046-.029l-.289.023-.607.063c-.594.01-1.185-.001-1.774-.075-.404-.05-.822-.109-1.196-.277-.434-.195-.777-.494-.717-1.011.012-.105.04-.202.075-.301s.087-.188.127-.283l.433-.474.22-.237c.057-.063.094-.154.168-.197.088-.051.196-.049.295-.075l.717-.185.341-.086c.129-.024.262-.021.393-.029l.63-.029c.983-.056 1.97-.018 2.941-.214.749-.15 1.642-.534 1.925-1.306.02-.034.011-.084-.023-.104zm1.503-4.306c-.217.083-.401.2-.601.317l-.826.463-3.132 1.45-1.491.619-.491.19-.185.07c-.017.006-.034.016-.052.023l-.324-.012-.364-.011-.358-.006c-.121-.005-.243-.031-.364-.023-.05.003-.092.034-.139.052s-.102.074-.144.104l-.243.162c-.51.301-1.092.447-1.658.601l-2.699.635-4.103.873-.977.266c-.103.028-.217.036-.318.069s-.205.103-.306.15a2.49 2.49 0 0 0-.763.538 3.35 3.35 0 0 0-.665 1.017c-.085.206-.151.426-.208.641-.043.163-.068.325-.087.492l-.012.092c-.003.027-.028.141-.012.174.038.078.067.163.121.231.027.034.099.04.144.046l.387.052.792.133.873.115.306.052c.209.023.42.018.63.029l.613.024c.146.002.424.015.572-.012.048-.009.086-.043.133-.058.08-.025.171-.006.254-.017.125-.017.207-.104.312-.162.15-.084.303-.13.428-.254.021-.021.026-.054.006-.076s-.054-.026-.075-.005a.56.56 0 0 1-.399.162c-.109-.005-.207-.059-.318-.047-.077.009-.155.044-.231.029-.044-.008-.083-.041-.127-.046-.18-.022-.362.006-.543 0l-.896-.069-.301-.046c-.102-.01-.205-.005-.306-.012-.447-.034-.902-.112-1.347-.173l-.48-.087.035-.197c.046-.22.1-.438.185-.647.246-.604.644-1.142 1.208-1.485.084-.052.172-.07.26-.11s.165-.094.26-.127c.119-.041.242-.063.364-.092l1.104-.272 2.681-.584 2.416-.549 1.554-.393c.46-.135.901-.286 1.323-.514a3.59 3.59 0 0 0 .347-.214c.039-.027.073-.057.11-.087.094.007.188.003.283.006l.723.035.364.011c.142 0 .313-.1.439-.15l.948-.381 1.497-.659 1.497-.717.919-.485.994-.607c.2-.134.376-.26.532-.445.026-.018.03-.055.012-.081s-.055-.03-.081-.011z"/><path d="M11.932 133.272c-.229.098-.452.19-.694.254-.597.16-1.22.19-1.832.237l-4.051.26c-.999.093-2.042.177-2.965.601-.146.068-.316.132-.451.22-.19.125-.353.338-.491.514-.285.363-.551.777-.728 1.202-.099.237-.2.54-.173.804.025.254.235.497.439.635.247.168.593.241.89.226.105-.006.204-.037.306-.058.166-.035.323-.058.491-.069.077-.018.127-.091.11-.168s-.09-.127-.168-.11c-.238.111-.481.051-.728.017-.259-.034-.75-.089-.832-.41a.99.99 0 0 1-.017-.277c.027-.315.197-.608.347-.878.105-.189.236-.365.364-.538.254-.345.53-.687.936-.855.222-.093.455-.151.688-.208.743-.184 1.498-.261 2.26-.324l3.566-.231c.648-.054 1.301-.15 1.93-.318.313-.084.627-.183.89-.376.04-.023.052-.075.029-.115s-.075-.058-.116-.035zm26.64-2.427c-.923.771-2.032 1.214-3.161 1.595-.821.277-1.655.521-2.433.907-.125.065-.174.216-.11.341s.215.174.341.11l1.347-.676 1.456-.555c.724-.275 1.446-.626 2.063-1.098.213-.163.384-.359.566-.555.02-.019.019-.049 0-.069s-.049-.019-.069 0zm12.37-.515c-.012-.005-.024 0-.029.012-.079.105-.16.202-.214.323s-.077.244-.116.365a6.54 6.54 0 0 0-.214.924c-.189 1.141-.054 2.294.035 3.439l.064.855c.016.275.031.583-.075.844s-.451.289-.694.329c-.403.067-.807.075-1.214.104l-.578.041-4.392.04-1.67-.023c-.282-.003-.568-.01-.85.006l-.849.075a.26.26 0 1 0-.012.52l.85.11c.375.035.756.028 1.133.034h1.676l2.832-.069 1.526-.133c.63-.054 1.27-.13 1.878-.312.292-.087.58-.177.734-.462.158-.293.157-.665.156-.988-.002-.674-.118-1.342-.185-2.012a16.45 16.45 0 0 1-.087-1.993l.029-.555.11-.722c.027-.119.08-.229.11-.347s.039-.252.058-.376c.005-.012.001-.024-.011-.029zm109.689 33.641a.44.44 0 0 0-.335.012c-.221.1-.32.357-.22.578.596 1.211 1.071 2.47 1.572 3.721l2.074 5.23.833 2.139.318.803.387.994.115.306.029.075-.029.064-.144.277-.445.838-.769 1.213-.254.411c-.11.157-.243.294-.358.445l-.318.411c-.035.031-.037.087-.006.12s.087.039.121.008c.147-.106.293-.211.422-.337.143-.137.256-.309.382-.462l.323-.381c.102-.133.191-.276.284-.416l.618-1.006.381-.641.174-.318c.033-.061.082-.131.086-.202s-.036-.15-.057-.214l-.122-.347-.352-1.011-.284-.821-.965-2.705-1.664-4.571-1.127-2.878-.422-1.103c-.05-.111-.143-.192-.248-.232zM79.843 34.047c-.047-.001-.091.017-.127.052a1.37 1.37 0 0 0-.341.399c-.044.071-.106.131-.15.202-.038.062-.084.178-.116.243l-.121.26c-.053.141-.076.29-.121.434l-.11.295c-.032.102-.048.209-.075.312l-.22.948-.069.468-.168.694c-.073.274-.149.557-.318.792-.049.068-.111.117-.185.156-.026.014-.059.015-.081.035-.045.04-.076.088-.121.127-.02-.003-.038.009-.04.029s.009.043.029.046c.049.058.091.126.173.144s.222-.047.289-.093c.206-.139.375-.373.491-.589.02-.037.034-.078.052-.116l.121-.237c.133-.267.22-.557.318-.838l.173-.457.324-1.242c.02-.099.017-.207.04-.306.032-.138.093-.267.127-.404.087-.352.118-.748.353-1.04.072-.07.076-.182.006-.254-.035-.036-.086-.057-.133-.058z"/><path d="M76.266 32.723c-.006 0-.135.008-.144.011-.071.028-.152.107-.202.162-.062.016-.097.083-.081.144s.077.097.139.081c.052.032.097.093.15.121.104.055.282.037.393.046l.578.058c.69.104 1.389.223 2.04.48.211.083.6.155.74.352.007.016.025.024.04.017s.019-.025.012-.04c-.055-.22-.267-.336-.445-.445-.297-.182-.632-.287-.959-.405l-.445-.15-.457-.145-.641-.162c-.237-.061-.47-.126-.717-.127z"/><path d="M81.627 25.486c-.049-.031-.114-.015-.144.035s-.015.114.035.145c.053.067.096.143.144.214.072.105.19.19.225.318.137.49-.231.818-.52 1.167l-.139.185c-.105.12-.237.22-.353.329l-.694.63c-.256.209-.553.451-.682.769-.093.229-.182.486-.202.734-.021.263.008.567.058.826.025.131.073.257.098.387l.029.191c.015.061.043.118.058.179.052.21.102.458.093.676-.012.279-.067.539-.249.757-.058.07-.119.146-.191.202-.027.021-.059.032-.081.058-.028.033-.042.078-.063.116-.039.025-.054.076-.029.115s.076.048.116.023c.046-.005.096.004.139-.012.074-.027.122-.092.185-.139.091-.067.166-.136.237-.225.149-.188.287-.463.306-.705.026-.315-.041-.635-.093-.942l-.023-.196c-.026-.126-.078-.249-.098-.376l-.081-.555c-.019-.256-.024-.546.041-.797.077-.297.302-.491.508-.699l.312-.289.358-.306.196-.145.37-.329.191-.15c.27-.245.522-.581.641-.93.044-.13.083-.284.081-.422-.004-.268-.258-.653-.503-.763-.088-.04-.183-.052-.277-.075z"/><path d="M77.195 19.789c-.035.012-.053.052-.04.087.257 1.122.927 2.085 1.63 2.976.457.581.939 1.142 1.456 1.67l.659.642c.139.142.255.308.404.439.075.066.162.12.243.179.058.063.157.064.22.006s.07-.157.012-.22l-.162-.254c-.18-.237-.422-.439-.618-.665l-1.711-1.809a12.12 12.12 0 0 1-1.607-2.213l-.399-.798c-.013-.035-.052-.053-.087-.04z"/><path d="M77.107 19.749c-.033.033-.033.088 0 .121.292.218.522.522.786.774l1.254 1.086c.064.049.13.108.202.145.063.032.133.051.197.081.136.063.355.182.445-.017.058-.129-.185-.421-.248-.526a1.77 1.77 0 0 1-.26-.878c.006-.095-.067-.179-.162-.185s-.173.067-.179.162c-.062.384.13.74.341 1.052l-.046-.035-.329-.22-.514-.376-.561-.445c-.277-.228-.59-.45-.803-.74-.033-.033-.088-.033-.121 0z"/><path d="M80.489 19.818a1.22 1.22 0 0 0-.289.012c-.181.034-.415.11-.572.208-.041.026-.075.065-.115.092s-.084.043-.121.069-.141.097-.098.087c.491-.118.001-.004-.075.092-.067.044-.085.135-.04.202s.135.085.202.04l.612-.306.075-.052c.111-.072.232-.131.347-.197.072-.041.139-.071.22-.086.018-.004.074-.02.058-.012-.435.222 0 0 .058-.029.019.001.033-.01.034-.029s-.016-.039-.034-.04c-.768.254-.484.132-.763.254-.234.102.474-.18.705-.289.02-.009-.041-.01-.064-.011l-.139-.006zm-.52.514c-.009.011-.101.062-.22.121.031-.011.063-.019.093-.035.046-.024.086-.056.127-.087zm-.22.121c-.012.004-.024.006-.035.012s-.023.015-.035.023l.069-.035zm-.069.035l-.185.104c-.036.021.079-.031.115-.052.026-.014.046-.035.069-.052z"/><path d="M76.027 16.218c-.026.006-.041.032-.035.058-.146.477.421.938.711 1.231a3.37 3.37 0 0 0 .312.277c.242.191.442.418.664.63.158.15.334.273.503.41l.381.283.405.225c.514.316 1.104.58 1.722.549.015.002.027-.008.029-.023s-.008-.027-.023-.029l-.59-.15c-.188-.053-.359-.13-.537-.208l-.526-.26c-.168-.103-.317-.249-.462-.381l-.231-.197-.451-.451-.826-.774-.318-.26a3.05 3.05 0 0 1-.364-.439c-.106-.156-.174-.326-.306-.456-.006-.026-.032-.041-.058-.035zm-1.913 1.075c-.19.008-.31.091-.474.174l-.306.144c-.213.108-.444.212-.642.347-.217.149-.408.332-.612.497-.196.158-.409.332-.52.561a.46.46 0 1 0 .774.497c.071-.078.105-.164.168-.248a2.06 2.06 0 0 1 .462-.451l.838-.659a3.52 3.52 0 0 1 .301-.202c.019-.011.039-.027.058-.041.036.01.075.015.11.029.213.085.421.194.624.301a1.62 1.62 0 0 1 .312.202c.054.047.121.147.197.162.046.009.098.001.144 0 .007.01.019.013.029.006s.013-.025.006-.035c.011-.047.032-.09.029-.139-.006-.099-.201-.246-.272-.306l-.399-.335c-.084-.059-.239-.14-.329-.191l-.266-.144c-.081-.053-.113-.173-.231-.168zm5.178 10.413a.49.49 0 0 0-.185.017c-.01.003-.15.063-.15.063l-.046.029s-.079.143-.029.208.208.029.208.029l.029-.029.093-.052c.067-.015.14.036.139.11 0 .017-.013.037-.017.052a1.5 1.5 0 0 0 .047.139c.071.06.108 0 .108 0l.092-.185a.29.29 0 0 0-.11-.318c-.056-.038-.118-.058-.179-.064z"/><path d="M77.412 27.598c-.041-.004-.006.081-.006.122l.006.225c.015.261.17.512.433.584.246.067.767-.285.975-.413L79 28l.093-.064-.179-.058s-.102.067-.168.093c-.177.067-.657.34-.813.216-.108-.085-.195-.246-.214-.381-.004-.03 0-.056 0-.087 0-.01.003-.015 0-.029-.111-.037-.234-.085-.306-.093zm-2.149-8.161c-.064.011-.128.015-.191.035s-.115.055-.173.081l-.179.069c-.343.163-.639.42-.93.659l-.439.353-.404.387-1.26.988a.251.251 0 1 0 .272.422c.24-.117.438-.203.659-.358.26-.183.485-.419.711-.641.133-.131.283-.239.416-.37l.387-.393c.258-.246.542-.46.815-.688l.133-.121c.047-.035.098-.057.144-.093s.093-.084.139-.127c.056-.027.079-.095.052-.15s-.095-.079-.15-.052z"/><path d="M75.109 19.962c-.037-.028-.088-.014-.115.023s-.02.088.017.116l.196.867c.036.274-.112-.541-.15-.815-.003-.023.026.035.04.052s.036.034.052.052c.071.08.119.177.168.271.13.253.213.563.208.85a1.01 1.01 0 0 1-.04.295c-.007.02-.014.039-.023.058s-.024.07-.029.052c-.154-.557.004-.003-.029.052a.19.19 0 1 0 .335.185c.246-.483.082-1.072-.15-1.526-.108-.211-.265-.423-.48-.532z"/><path d="M75.017 21.65c-.068.011-.13.049-.173.11-.088.121-.063.288.058.376.348-.045.222.004.347-.046.094-.038-.2.038-.295.075-.016.006.031.015.046.023l.104.052a.37.37 0 0 0 .208.035c.079-.01.143-.046.196-.104.017-.018.071-.057.046-.058-.218-.012.005-.004.046-.069.037-.029.04-.079.012-.116s-.079-.046-.115-.017c-.138-.107-.061-.086-.139-.104-.047-.011.061.074.069.121.003.019-.076-.003-.081-.006-.032-.019.018-.043.017-.064s-.046-.062-.058-.075l-.04-.041c.078.053.001-.001-.046-.046-.061-.044-.134-.057-.202-.046z"/><path d="M74.866 19.76c-.333-.039-.444.509-.468.728a1.03 1.03 0 0 0 0 .162c.003.053.013.103.017.156l.006.162c.015.106.038.215.069.318.009.03.029.057.04.087l.035.133c.007.04-.007.081 0 .121.004.028.048.154.058.185.028.091.054.216.145.272.052.032.107.069.168.069.068 0 .132-.034.191-.069.02-.012.089-.111.098-.145.018-.064-.006-.059-.011-.122-.011-.114.016-.25.017-.364v-.335c.039-.017.084-.024.121-.046.022-.013-.011-.05-.017-.075-.003-.012-.008-.046-.012-.035-.081.237-.033.077-.023-.006.002-.014.013-.034.012-.04-.006-.013-.021-.017-.029-.029.008-.065-.001-.132-.006-.196-.018-.253-.058-.497-.185-.717-.055-.096-.098-.199-.225-.214z"/><path d="M75.248 20.488l-.064.121c-.119.48.05.476-.115.48-.148.003-.258-.11-.364-.231.042.023.076.06.127.064.184.011.342-.128.352-.312-.074.106-.074-.106-.664-.041-.004.068.026.125.058.179-.041-.039-.073-.093-.121-.116-.057-.026.011.124.023.185.028.15.083.248.133.358-.02.075.04.201.11.335.003.019.012.023.017.029.026.052.058.109.069.15.02.075.123.083.179.046.031-.02.031-.068.058-.093.053-.049.105-.026.127-.104.006-.022-.015-.047-.012-.069.012-.083.067-.163.087-.243.007-.028 0-.058.006-.087s.032-.064.035-.098a2.17 2.17 0 0 0 0-.33c-.005-.076-.006-.294-.04-.225zm-.341 1.052c.015-.001.032.006.046.012-.02-.004-.046.008-.069.006.008-.003.007-.016.023-.017zm-.11.04c.011.007.021.02.029.011-.01.025-.034.051-.017.075-.01-.037-.006-.054-.012-.087z"/><path d="M75.281 20.367c-.027-.001-.055.004-.081.011s-.08.006-.069.029c.171.363.003.001-.04.046-.046.009-.078.052-.069.098s.053.078.098.069c-.003.066-.007.057-.012.098-.02.006-.012.019-.006.029-.019.131-.022.213-.012.248l-.017.22a.79.79 0 0 0-.012.098c-.001.028.003.109.006.081.023-.258-.002.002.012.069a.32.32 0 0 0 .318.318.32.32 0 0 0 .318-.318l-.191-.335c.078.107.124.186.202.266.021.022.008-.062.006-.092-.003-.044-.037-.18-.046-.22-.047-.208-.103-.411-.225-.589-.047-.068-.091-.123-.179-.127z"/><path d="M75.357 21.222c-.126.016-.218.134-.202.26.059.095.079.065.058.092-.017.021-.031-.047-.058-.052a.59.59 0 0 0 0 .081c0 .002.005.07.017.069.034-.001.067-.059.104-.069.023-.007.052-.02.069.006.011.017-.024.062-.035.052.026-.049.037-.065.092-.04.094.04-.143.15-.197.237-.013.021.086.093.098.098.073.033.167.004.225-.046.087-.074.117-.185.116-.295 0-.007-.01-.166-.023-.156-.153.107 0 .003-.011-.035a.23.23 0 0 0-.254-.202zm-.046.439c-.059-.055.002.003-.035.012-.04-.024-.092-.012-.116.029s-.011.092.029.116c.086-.08.103-.123.121-.156zm56.732 176.209c-.044-.015-.094.009-.11.051l-.185.313c-.109.214-.176.44-.26.664l-.248.671c-.031.115-.038.231-.064.346l-.086.348c-.186.872-.338 1.891-.087 2.774.099.349.239.71.445 1.011.583.854 1.569 1.239 2.433 1.733l2.612 1.509.919.514 4.346 2.532 1.837 1.063 1.815.93 1.745.792c.154.064.334-.002.399-.156s-.009-.334-.162-.399l-1.722-.775-1.797-.919-3.745-2.034-4.265-2.53-2.312-1.256-.861-.449c-.539-.339-.976-.816-1.213-1.411s-.24-1.252-.185-1.877c.038-.438.116-.88.248-1.3.035-.113.088-.213.122-.326l.173-.675.202-.677c.027-.116.04-.238.058-.356.016-.045-.008-.095-.052-.111zm16.938 15.413c-.055.023-.102.065-.127.122a.23.23 0 0 0 .115.302c.495.292 1.03.521 1.549.767l2.034.949 1.277.595 3.381 1.358 2.058.734c.679.22 1.372.398 2.068.555 1.111.251 2.252.425 3.393.433 1.635.011 3.317-.452 4.496-1.635.354-.355.647-.777.89-1.213a5.55 5.55 0 0 0 .508-1.324c.078-.304.159-.629.179-.942.008-.114-.004-.227-.005-.342.005-.033-.018-.065-.052-.068s-.065.016-.07.051l-.335 1.219c-.197.653-.468 1.335-.878 1.885-.226.303-.488.588-.78.826-1.577 1.282-3.927 1.254-5.831.971-1.174-.176-2.319-.488-3.45-.838l-1.757-.584-1.705-.699-2.93-1.311-2.462-1.197c-.455-.22-.911-.453-1.393-.606-.057-.026-.119-.028-.173-.008zm40.122-19.915c-.037-.027-.094-.014-.12.023s-.017.088.022.116c.574.357 1.11.803 1.572 1.295.337.355.658.741.884 1.178a2.76 2.76 0 0 1 .266.75c.27 1.36-.982 2.379-2.01 2.989l-.555.307-.608.305-.827.364-1.08.411-2.618.815-3.83.827-4.202.675-3.144.405-2.67.231-2.433.133c-.86.013-1.731.087-2.589-.005a.29.29 0 0 0-.323.259c-.017.162.097.312.26.329 1.104.109 2.221.004 3.323-.069l4.051-.358 8.043-1.213 2.064-.474 2.387-.642 1.618-.491 1.289-.496 1.156-.527c.296-.152.581-.316.86-.498 1.136-.732 2.327-1.829 2.081-3.315a2.63 2.63 0 0 0-.232-.707 3.86 3.86 0 0 0-.554-.843c-.601-.701-1.354-1.217-2.081-1.774z"/></g><g class="C"><path d="M163.846 205.315c-.115.004-.233.028-.347.041l-.688.098c-.342.068-.674.162-.999.288l-.318.128c-.112.037-.229.051-.341.087s-.223.079-.33.127c-.405.181-.78.431-1.167.647a1.32 1.32 0 0 0-.156 1.855c.469.555 1.3.625 1.855.156.099-.135.169-.246.289-.365.171-.166.373-.301.549-.462.065-.059.119-.128.191-.179.14-.1.306-.152.462-.224.315-.146.64-.303.977-.394.083-.022.171-.03.254-.052.171-.046.334-.118.509-.15.116-.022.251-.007.37-.018.328-.028.656-.039.982.018.119.021.237.05.353.087.038.011.074.039.115.041.056 0 .107-.024.162-.035a3.21 3.21 0 0 1 .352-.052c.068.046.161.031.208-.035a.15.15 0 0 0-.034-.209l-.122-.37c-.025-.059-.039-.128-.08-.179-.035-.043-.093-.061-.139-.093l-.139-.085a4.17 4.17 0 0 0-.445-.231c-.401-.181-.848-.338-1.289-.375-.116-.011-.236.001-.352-.008l-.682-.057z"/><path d="M162.825 202.264c-.114-.008-.231.005-.335.051-.09.041-.146.137-.22.204l-.219.19c-.076.06-.16.104-.237.161l-.445.359c-.657.518-1.145 1.176-1.624 1.855-.427.605-.782 1.263-1.127 1.919-.241.448-.073 1.006.376 1.249s1.007.072 1.248-.376l1-1.856c.34-.633.76-1.228 1.156-1.826.127-.192.297-.423.456-.59.059-.061.13-.114.197-.166s.157-.08.208-.152c.061-.085.097-.19.115-.294.027-.148.015-.301.023-.451.047-.033.057-.098.023-.144a.11.11 0 0 0-.15-.024c-.148-.035-.292-.098-.445-.109z"/><path d="M162.454 201.767c-.188-.029-.378.019-.567.041s-.386.013-.578.024c-.276.015-.573.061-.843.115-.198.04-.344.098-.538.149l-1.052.285-1.26.329-.959.272c-.582.161-.919.769-.757 1.352a1.09 1.09 0 0 0 1.347.756c.823-.148 1.563-.558 2.306-.924l.947-.463.474-.19.451-.231c.227-.108.445-.248.688-.318.255-.072.507-.08.716-.272.092-.083.157-.193.237-.289.081-.005.144-.074.139-.155s-.075-.144-.156-.139c-.098-.083-.183-.19-.295-.255-.09-.052-.198-.07-.3-.087z"/><path d="M160.039 199.506c-.093.009-.177.063-.265.093l-.555.179c-.481.155-.88.436-1.283.734-.641.474-1.219 1.043-1.728 1.653-.185.222-.357.455-.503.705-.096.165-.187.348-.202.538-.008.102.016.204.023.307-.188.339-.068.766.272.952a.7.7 0 0 0 .953-.277c.158-.076.327-.148.451-.272.16-.159.282-.386.41-.571l.584-.797a11.46 11.46 0 0 1 1.023-1.123l.555-.49.335-.37c.116-.109.273-.166.381-.283.139-.149.202-.353.289-.538.076-.029.116-.114.087-.19s-.115-.117-.191-.087c-.203-.08-.418-.181-.636-.163z"/><path d="M158.618 198.618c-.523-.011-1.034.06-1.549.15l-1.023.215-.971.283-.63.157c-.193.053-.378.131-.566.201a8.78 8.78 0 0 1-.774.243c-.518.166-.801.719-.636 1.237s.719.801 1.237.636l1.427-.555.561-.312c.374-.196.769-.361 1.155-.533l.856-.335c.441-.131.907-.24 1.369-.253.211-.006.435-.022.642.022.131.03.242.106.381.07.127-.031.244-.09.37-.127.073.037.166.004.202-.069s.004-.16-.069-.197c-.055-.132-.086-.28-.173-.393-.111-.144-.307-.168-.468-.214l-.497-.139c-.277-.063-.561-.079-.844-.087z"/><path d="M157.765 195.715c-.051-.013-.104.009-.156.018-.159.024-.306.074-.462.11-.168.038-.349.011-.514.051-.213.054-.408.217-.596.324-.624.359-1.183.79-1.728 1.261l-.543.479c-.247.239-.475.501-.705.756l-.422.487-.381.445a2.54 2.54 0 0 0-.249.444c-.323.481-.192 1.134.289 1.458a1.05 1.05 0 0 0 1.457-.291c.13-.14.196-.2.3-.364l.416-.71.699-1.017.763-1.017c.252-.289.529-.589.833-.827.132-.104.31-.157.433-.272.066-.059.108-.146.173-.207.11-.102.274-.135.416-.168.034-.008.071-.002.099-.023.095-.073.133-.203.202-.301l.121-.155c.015 0 .029-.008.029-.024s-.008-.028-.023-.028c-.08-.102-.184-.242-.283-.324-.05-.042-.105-.088-.168-.105z"/><path d="M153.345 194.299a9.97 9.97 0 0 0-1.936.161c-.522.092-1.15.253-1.589.562-.148.104-.277.237-.399.37-.462.409-.508 1.115-.098 1.577a1.12 1.12 0 0 0 1.577.093c.06-.035.113-.041.174-.07.069-.034.135-.086.202-.121.129-.07.262-.133.399-.185.523-.207 1.077-.299 1.63-.393l1.936-.254.988-.018.456-.017c.112.002.289.056.393.041.11-.017.192-.096.278-.157l.265-.174a.15.15 0 0 0 .18-.109c.02-.08-.025-.159-.104-.18-.097-.157-.239-.451-.405-.536-.106-.056-.32-.063-.439-.093l-.474-.133c-.353-.076-.718-.125-1.075-.174l-1.959-.19z"/><path d="M154.391 191.896c-.067-.017-.134.03-.202.046l-.202.052c-.211.059-.415.098-.63.139l-.67.122c-.289.079-.544.238-.804.381-.618.34-1.201.706-1.768 1.126a1.16 1.16 0 0 0-.069 1.637c.432.469 1.17.501 1.641.068.385-.444.774-.897 1.231-1.27.188-.156.402-.281.578-.452.136-.131.245-.277.393-.399.142-.118.278-.215.45-.283l.156-.057c.052-.019.118-.013.156-.052.061-.063.073-.161.116-.237l.139-.22c.08-.015.135-.087.121-.168a.15.15 0 0 0-.173-.12l-.22-.158c-.079-.053-.15-.133-.243-.155zm26.272-1.287c-.126.016-.25.059-.364.127-.461.274-.605.87-.329 1.33l.305.455c.055.091.092.226.168.301.115.113.244.133.3.3.053.159.035.333.075.492.034.131.119.249.139.386.019.128-.033.27-.011.394.009.052.037.1.057.15a3.36 3.36 0 0 1 .104.307c-.013.046.018.096.065.109s.09-.011.103-.057c.115-.107.292-.231.37-.37.072-.128.063-.318.104-.457.046-.157.144-.311.173-.473.039-.211-.009-.437-.011-.648-.001-.057-.005-.112.006-.168.022-.105.113-.268.128-.375.02-.163-.054-.365-.093-.52a3.53 3.53 0 0 0-.318-.821.98.98 0 0 0-.971-.462z"/><path d="M180.143 190.915c-.034-.028-.087-.024-.115.011l-.37.041c-.103.014-.211.02-.307.063-.076.035-.126.109-.19.162a2.68 2.68 0 0 1-.428.278l-.456.259-.492.236c-.241.137-.466.309-.694.47a.93.93 0 0 0-.109 1.306.92.92 0 0 0 1.3.109l.566-.561c.126-.138.228-.29.348-.432l.37-.435.168-.237c.059-.074.131-.142.196-.212s.152-.132.19-.22c.047-.108.047-.226.052-.343.006-.127-.011-.258-.016-.386.027-.033.022-.081-.013-.109z"/><path d="M177.265 189.508a.92.92 0 0 0-.809 1.023c.192.588.365 1.174.463 1.786.022.141.029.265.022.405-.002.034-.026.073-.011.104.024.054.079.087.115.133.072.093.127.192.184.294-.024.078.021.161.1.185s.159-.015.185-.092l.329-.191c.056-.035.124-.053.167-.103.031-.037.024-.093.035-.139l.122-.544c.085-.434.065-.871.074-1.311l.046-.745c-.059-.507-.516-.864-1.022-.805z"/><path d="M176.636 189.821c-.162-.029-.285.078-.428.128-.155.054-.311.061-.474.074-.234.02-.485-.009-.717.024-.363.052-.74.15-1.092.253-.139.043-.28.071-.41.134s-.236.162-.353.244l-.266.185a1.09 1.09 0 0 0-.288 1.518c.34.499 1.02.623 1.519.283l.896-.612c.206-.126.367-.172.578-.294.104-.061.196-.145.295-.215l.468-.318c.161-.107.326-.19.496-.283.115-.061.241-.129.296-.248.037-.079.046-.173.063-.26l.041-.243c.066-.046.081-.142.035-.209s-.137-.081-.204-.033l-.231-.052c-.076-.022-.148-.061-.224-.076z"/><path d="M172.782 188.186a.98.98 0 0 0-.884.623c-.197.501.047 1.063.549 1.259.421.794.157.583.422.799.226.183-.238-.536-.341-.81-.013-.033.142-.098.179-.087.082.025.145.185.185.25a1.41 1.41 0 0 1 .179.49c.014.095.011.237.006.342-.002.037-.019.078-.012.115.018.091.082.166.122.25.019.038.073.159.052.12-.267-.488.003.004.052.122a.15.15 0 0 0 .121.172c.08.015.153-.041.168-.12.106-.117.306-.285.37-.422.038-.083.036-.178.052-.266l.046-.272c.061-.303.138-.596.115-.906a2.31 2.31 0 0 0-.508-1.191c-.143-.161-.316-.279-.491-.4-.126-.048-.255-.072-.382-.068z"/><path d="M172.517 188.661c-.039-.015-.079.007-.093.046a1.42 1.42 0 0 1-.329.052c-.085.002-.2-.024-.284.022-.052.032-.074.096-.115.141-.047.05-.104.094-.162.131-.435.29-.933.514-1.312.878-.133.13-.241.281-.347.435a.84.84 0 0 0 .116 1.178.84.84 0 0 0 1.179-.115c.469-.458.89-.972 1.26-1.514.081-.121.176-.23.26-.346.028-.041.065-.076.081-.122.072-.209-.115-.509-.214-.688.014-.039-.002-.083-.04-.098z"/><path d="M169.226 186.592c-.265-.043-.546.014-.78.185-.469.342-.578.998-.237 1.468.194.126.371.246.514.433.097.127.157.277.266.393.15.16.348.263.491.433.095.113.13.254.168.394.015.056.023.126.064.172.029.035.07.057.103.087.097.089.091.092.162.203a.15.15 0 0 0 .122.172.15.15 0 0 0 .173-.12c.109-.102.255-.231.318-.37.089-.198-.024-.541-.052-.745-.03-.214-.03-.438-.046-.653-.009-.109.002-.218-.024-.325-.048-.196-.174-.366-.265-.548-.124-.247-.211-.495-.295-.758a1.04 1.04 0 0 0-.682-.421z"/><path d="M167.564 186.463a.95.95 0 0 0-.729 1.128.95.95 0 0 0 1.127.727c.419-.411.218-.257.416-.409.107-.081-.189.191-.26.305-.025.041.082-.053.122-.081l.115-.069c.118-.081.145-.212.226-.329.03-.044.136-.164.098-.127a16.62 16.62 0 0 1 .116-.11c.079.017.162-.036.179-.116s-.036-.157-.116-.174l-.647-.375c-.176-.1.365.198.566.225.059.01-.056-.105-.087-.155-.061-.104-.106-.227-.202-.301-.032-.024-.081-.026-.121-.034l-.133-.024-.22-.035c-.076-.009-.284-.072-.225-.022.33.275-.005-.002-.225-.024zM61.695 8.58a48.87 48.87 0 0 0-2.941.035c-.015-.001-.028.014-.029.029s.014.022.029.023l1.497.185c.855.069 1.714.061 2.572.069l4.664.081c1.787.08 3.57.264 5.323.63 1.11.232 2.19.55 3.265.907.027.01.059-.001.069-.029s-.007-.059-.035-.069c-1.394-.568-2.853-.976-4.334-1.243-2.355-.424-4.751-.509-7.137-.555l-2.942-.064zm-19.226 6.571c-.255.019-.51.046-.757.116-.402.113-.79.303-1.161.491-.458.231-.88.51-1.283.826l-.479.405c-.18.185-.327.41-.468.624-.033.038-.026.1.011.133s.094.026.127-.012l.584-.468.613-.532c.854-.644 1.791-1.166 2.837-1.416.046-.007.082-.052.075-.098s-.052-.077-.098-.069z"/></g></g><defs><radialGradient id="B" cx="0" cy="0" r="1" gradientUnits="userSpaceOnUse" gradientTransform="translate(58.1825 26.7659) scale(3.3486)"><stop stop-color="#dea88e"/><stop offset="1" stop-color="#eed1bf"/></radialGradient><radialGradient id="C" cx="0" cy="0" r="1" gradientUnits="userSpaceOnUse" gradientTransform="translate(71.0074 27.8772) scale(4.56623 4.0301)"><stop stop-color="#dea88e"/><stop offset="1" stop-color="#eed1bf"/></radialGradient><radialGradient id="D" cx="0" cy="0" r="1" gradientUnits="userSpaceOnUse" gradientTransform="translate(12.8525 134.697) scale(6.98527 6.98525)"><stop stop-color="#dea88e"/><stop offset="1" stop-color="#eed1bf"/></radialGradient><clipPath id="E"><path fill="#fff" d="M0 0h192.243v220H0z"/></clipPath></defs></svg>