<?xml version="1.0" encoding="UTF-8"?>
<svg id="Ebene_1" data-name="Ebene 1" xmlns="http://www.w3.org/2000/svg" xmlns:xlink="http://www.w3.org/1999/xlink" viewBox="0 0 192.24 220">
  <defs>
    <style>
      .cls-1 {
        fill: none;
      }

      .cls-2 {
        clip-path: url(#clippath);
      }

      .cls-3 {
        mask: url(#mask);
      }

      .cls-4 {
        fill: #ec678a;
      }

      .cls-5 {
        fill: #eed1bf;
      }

      .cls-6 {
        fill: #fff;
      }

      .cls-7 {
        fill: #fff7f7;
      }

      .cls-8 {
        fill: #a09bab;
      }

      .cls-9 {
        fill: #c2bac6;
      }

      .cls-10 {
        fill: #be5574;
      }

      .cls-11 {
        fill: #c3ada5;
      }

      .cls-12 {
        fill: #070d1c;
      }

      .cls-13 {
        fill: #598dac;
      }

      .cls-14 {
        fill: #4d7796;
      }

      .cls-15 {
        fill: url(#Unbenannter_Verlauf_2);
      }

      .cls-16 {
        fill: url(#Unbenannter_Verlauf_3);
      }

      .cls-17 {
        fill: url(#Unbenannter_Verlauf);
      }
    </style>
    <clipPath id="clippath">
      <rect class="cls-1" width="192.24" height="220"/>
    </clipPath>
    <radialGradient id="Unbenannter_Verlauf" data-name="Unbenannter Verlauf" cx="-140.97" cy="438.02" fx="-140.97" fy="438.02" r="1" gradientTransform="translate(530.25 1493.5) scale(3.35 -3.35)" gradientUnits="userSpaceOnUse">
      <stop offset="0" stop-color="#dea88e"/>
      <stop offset="1" stop-color="#eed1bf"/>
    </radialGradient>
    <radialGradient id="Unbenannter_Verlauf_2" data-name="Unbenannter Verlauf 2" cx="-156.98" cy="453.72" fx="-156.98" fy="453.72" r="1" gradientTransform="translate(787.82 1856.42) scale(4.57 -4.03)" gradientUnits="userSpaceOnUse">
      <stop offset="0" stop-color="#dea88e"/>
      <stop offset="1" stop-color="#eed1bf"/>
    </radialGradient>
    <radialGradient id="Unbenannter_Verlauf_3" data-name="Unbenannter Verlauf 3" cx="-172.23" cy="486.37" fx="-172.23" fy="486.37" r="1" gradientTransform="translate(1215.89 3532.1) scale(6.99 -6.99)" gradientUnits="userSpaceOnUse">
      <stop offset="0" stop-color="#dea88e"/>
      <stop offset="1" stop-color="#eed1bf"/>
    </radialGradient>
    <mask id="mask" x="-8.23" y="-5.14" width="203.79" height="226.17" maskUnits="userSpaceOnUse">
      <g id="A">
        <path class="cls-6" d="m195.57-5.14H-8.23v226.17h203.79V-5.14Z"/>
      </g>
    </mask>
  </defs>
  <g class="cls-2">
    <g>
      <path class="cls-5" d="m51.16,37.75l1.73,4.34,18.67,7.32-1.34-2-.36-6.99c11.87-.8,6.47.29,10.12-6.09l-.77-.74c1.31-.87.5-2,.16-2.73l.31-1.94c4.31-2.72,1.58-3.1-1.35-6.87-1.91-3.55-2.51-4.24-4.5-6.8l-4.73-.12-17.6,8.31c-.22,3.46-.34,10.8-.33,14.3Zm.18,92.62c-2.58,4.22.56,7.22-1.1,7.37-12.52,1.16-49.01.19-49.01.19,0,0-.68-.37.23-2.05,3.02-2.87,7.05-1.5,10.02-2.4,1.48.04,2.53-.86,3.76-1.19,2.48,0,4.22-.73,4.22-.73l4.74-2.35,10.52,1.93-1.1,2.43c4.36-1.61,7.1-4.15,8.04-7.14,5.25,2.88,9.68,3.95,9.68,3.95Z"/>
      <path class="cls-11" d="m161.07,182.12l2.32,4.41-9.34,7.15-16.31-2.76-2.57-3.65.21-2.52,11.09.97,9.65-1.44s4.95-2.15,4.95-2.15ZM60.17,31.23c.12,3.93,5.82,11.03,9.43,12.13l.79-2.61c1.33-.63,4.26-.78,5.71-.68-4.36.24-13.95-4.9-15.93-8.84Zm-20.07,98.5l-1.56,4.79-4.78,3.84,16.76-.92-.1-3.88.92-3.45-9.92-3.92-1.31,3.53Zm-18.08.52c.33,5.3,4.77,1.57,4.5,7.94l3.56-.75,4.61-6.63-6.48-.07-4.46-2.14-1.72,1.65h0ZM73.65,15.98l.86,1-5.62.3.66-1.61"/>
      <path class="cls-13" d="m56.15,135.73c7.36,8.88,63.81,6.19,69.37,3.77,0,0,0,8.79,2.28,19.34,2.69,12.38,1.7,23.67,1.7,23.67,3.98,4.24,17.05,6.66,22.65,4.54,1.73,5.4,13.63-7.71,13.5-8.96,0,0-2.87-6.46-5.93-16.83-4.54-18.58-5.56-40.86-25.08-46.33,0,0-13.21-.12-22.11-1.91-11.63-2.33-28.63.84-36.11.63-4.8-.14-7.17-1.38-10.5-1.27-13.8,1.06-21.63,12.76-9.77,23.35h0Z"/>
      <path class="cls-14" d="m125.58,139.22l3.09-8.76c-16.13,5.96-63.89,6.9-76.26-9.99-5.53,1.63.95,15.07,5.45,16.98,17.55,5.9,37.66,4.47,53.56,4.37,0,0,14.18-2.59,14.18-2.59Zm1.7-2.68c.85-1.78,2.9-5.99,3.91-7.62v3.59l-4.77,6.6.86-2.56h0Zm-.69,4.11l5.09-6.27c-1.86,7.32,6.2,48.3,9.17,53.25-.8.43-11.11-4.53-11.1-5.48l-.8-17.83c.15.04-6.09-19.8-2.35-23.67Zm27.34,19.94l3.21,15.14,4.24,7.94c.27.14-9.15,8.43-9.83,2.63l2.81-1.17c1.09-4.54-.12-19.74-.42-24.54h0Z"/>
      <path class="cls-7" d="m163.72,204.72c3.54-.28,37.74-1.88,25.36-11.24l-17.51,6.79-9.82,1.27,1.97,3.17h0Zm-31.89-5.76s-1.67,3.9.02,5.09c6.14,4.34,15.42,9.44,24.28,12.65,8.41,3.69,13.47,2.99,14.7-2.87-7.97-2.68-32.19-10.46-39-14.87h0Z"/>
      <path class="cls-12" d="m135.09,185.59c-6.51,17.01-3.47,15.22,10.28,22.57,1.61.71,21.49,11.14,24.57,6.34,3.32-2.1-6.96-10.97-6.93-12.18l17.62-1.79,6.76-2.17c3.64-1.49,4.15-5.18-1.37-6.42-2.33-.61-5.16-.37-5.16-.37-.26.05-14.26-3.47-15.2-6.5h-4.71c.16-.49-7.42,9.06-8.04,4.75l.45,1.86c-7.27,2.07-14.28-3.62-18.25-6.1h0Z"/>
      <path class="cls-9" d="m156.02,212.97c-.37-.64.87-4.58,1.71-4.85,0,0-3.77-3.49-6.9-7.66s-5.62-8.99-5.62-8.99l3.8.9c.22,2.39,10.89,14.15,12.77,15.46.55.49-1.42,1.39-1.89,3.06s-.46,3.37-.46,3.37c0,0-3.4-1.28-3.4-1.28Zm27.46-13.35s-.74-1.56-.92-3,.93-2.46.21-2.76c-3.39-.77-16.17-6.37-17.1-8.78h-3.78c.3,2.32,16.63,11.09,17.71,10.8-.46.22.81,4.72,1.07,4.65l2.82-.91h0ZM53.17,115.05c2.62-1.93,8.64-4.11,8.64-4.11l8.09.43,6.12,2.45,20.57-1.28c4.02-2.83-2.06-16.57-3.8-17.02.65-5.07-8.1-35.7-18.53-40.96,0,0-.09-4.15-3.01-6.58-1.17-.98-.07,1.33-.07,1.33-7.07-7.92-24.94-11.89-32.34.61-5.44,7.04-6.37,17.63,2.39,16.2l-6.19,25.94-10.16,25.04c-.17-.08-5.66,6.73-2.82,7.76,0,0-1.55,2-.6,2.75,5.93,2.88,6.42,3.41,12.18,3.22,5.79.61,6.64.42,7.83-4.51.09.63,9.11,4.73,10.11,3.92-1.79-2.55-1.12-7.88-.21-11.59.57-2.9-.79-1.66,1.82-3.59h0Z"/>
      <g>
        <path class="cls-8" d="m67.16,67.19l-5.09,35.25c-3.27-.27-5.8,3.61-3.55,6.71l-1.18,3.02s-4.17,3.43-6.45,3.43c-1.4,0,.85-3.39.85-3.39-3.2-.24-2.69-7.68-2.31-8.63,3.62-9.45,12.34-27.87,17.74-36.38h0Z"/>
        <path class="cls-8" d="m49.01,104.9l-7.86,21.28c.34.98,9.72,4.69,10.7,4.18l-1.77-5.14.58-3.51-1.14.16,1.64-6.23-.65-6.22-1.51-4.51h0Zm-27.3,19.44l.58,3.62c1.93,2.32,10.81,3.5,11.47,2.77,0,0-12.04-6.39-12.04-6.39Zm29.61-75.61l-5.5,5.95-4.68,11.55c-5.77.86-7.83-4.26-6.28-8.14,5.53,6.01,9.72-8.04,16.46-9.37h0Z"/>
      </g>
      <path class="cls-7" d="m75.95,113.72c-13.55-2.93-16.67.36-25,7.41,0,0-2,2.23-1.72-1.09.11-1.34.47-4.44,3.94-5.03,1.5-.26,1.64-2.05,3.53-2.83,10.14-2.7,13.12-.68,19.25,1.55Z"/>
      <g>
        <path class="cls-4" d="m73.42,15.97c1.23,1.26,4.84,5.05,6.28,5.95l-.59-1.3,1.64-.78c-.96.65-4.9-3.38-4.81-3.73,0,0-2.53-.13-2.52-.13Zm-18.94,8.77s1.03,3.14,0,6.45-3.02,8.87-4.13,6.94c-1.61-2.79-2.82-1.72-5-4.63s-3.59-6.76-3.59-6.76l5.86-4.69,6.32.78.54,1.9h0Z"/>
        <path class="cls-4" d="m70.2,15.59l-1.52,3.52.93,2.85-2.35-2.01-4.21,4.23.28-1.82-2.03,1.99-2.41-1.36-2.31,1.7-2.11-.71-.41,3.58-2.29-3.63-2.22,2.85-1.87.52.39-2.27-2.33,3.07-1.33-1.59c-.63,3.74-.85,5.78-2.81.53.15.24-2.3,3.37-2.82,2.57-.21-.4.69-1.18.85-2.45s-.13-2.74-.13-2.74c3.43-8.47,25.48-9.1,30.7-8.84h0Z"/>
      </g>
      <path class="cls-10" d="m69.44,17.16c-6.18-1.26-25.5,5.13-29.61,8.8l-.61-.91,7.14-5.78,13.12-3.92,11.07-.2-1.11,2.02h0Zm4.07-1.09l.94.94,1.94-.14-.32-1.01-2.57.21Zm-30.02,14.43l.63,1.43c.5-6.22,2.33.82,3.97-5.49-.55,2.98,1.98-1.03,3.44-.7,1.61.48,1.69,2.77,3.4,3.46.04-1.08.16-3.9-.6-4.65-.17.28.48,3.36-.01,3.18-1.53-.54-2.26-2.65-1.98-3.87-.06-1.99-3.63,6-4.28.67-3.58,8.66-3.38-3.14-4.57,5.96h0Z"/>
      <path class="cls-17" d="m59.59,29.96l1.94-4.23-3.04-2.15-3.66,1.02,1.32,3.84,3.43,1.52h0Z"/>
      <path class="cls-15" d="m70.06,23.94l5.03,1.22.47,3.9-4.61,3.23-4.46-4.19.57-3.52,2.99-.63h0Z"/>
      <path class="cls-16" d="m17.47,132.36l1.24,2.02-3.79.34-2.4,1.96-4.62-.29-2.02-1.61c2.88-.47,8.83-1.63,11.6-2.41Z"/>
      <path class="cls-12" d="m77.18,16.08c1.59-2.48-.8-6.23-2.92-6.61-1.08-5.43-13.69-11.07-21.02-8.4-7.81-.04-14.98,12.74-14.68,16.76-1.17.23-1.48,8.45.62,7.43.63-.16,1.49-2.34,6.59-4.48,9.16-4.61,23.3-5.27,31.42-4.7h0Z"/>
      <path class="cls-7" d="m75.66,22.1c-.1,1.16-3.21.32-3.33.13l2.28-2.25,1.05,2.12Z"/>
      <g class="cls-3">
        <g>
          <path class="cls-12" d="m39.49,24.5c.09,1.2.41,2.64-.26,3.84-.55,1.04-1.3,2.35.57,1.16.48-.17,2.72-2.76,1.63-2.53-.46,1.17-1.43,2.14-2.57,2.67.98-1.42,1.44-3.63.62-5.14Z"/>
          <path class="cls-12" d="m41.23,25.68c-.2.97,2.51,7.5,2.84,3.72.07-.59.1-1.31.22-1.9-.03-.33.41-.71.19-.98-1.12.27-.59,2.79-.99,3.72-1.05-1.26-1.62-3.15-2.26-4.56h0Zm6.97-1.64c-.75.62-1.59,4.02-2.64,3.72-.15-.33-.32-.75-.61-.98-.16-.08-.59-.08-.38.19,1.26,3.66,3.29-1.44,3.63-2.93h0Zm4.39-3.66c0,.66-.1,1.46-.44,2.11.41,1.08,1-1.99.44-2.11h0Zm-.47,2.7c-.94,1.29-2.11,2.79-3.67,3.3,1.46.98,3.39-2.08,3.67-3.3h0Z"/>
          <path class="cls-12" d="m49.7,23.44c-.33.87-.55,1.91-1.16,2.68.56.84,1.37-2.09,1.16-2.68h0Zm2.58.17c-.62,1.19.75,4.38,2.18,4.26-1.27-.93-2.43-2.54-2.18-4.26h0Z"/>
          <path class="cls-12" d="m54.49,23.86c-.86.81-.46,3.11-.06,4.08.53-1.09-.63-2.94.06-4.08h0Z"/>
          <path class="cls-12" d="m58.96,22.95c-.99.2-1.74.97-2.69,1.15-.64.16-1.36-.31-1.92-.13,1.32,1.18,3.78,0,4.61-1.02h0Z"/>
          <path class="cls-12" d="m54.43,24.07c-.55,1.66,1.28,4.75,3.14,3.95.05-.25-.26-.28-.43-.34-1.88-.15-2.29-2.2-2.71-3.61Zm2.99,4.25c-1.01.88,2.31,2.98,2.59,1.36-.06-.14-.16.21-.25.25-.68.47-1.49-.28-1.93-.73-.26-.24-.08-.76-.41-.88h0Zm-13.89,2.29c1.06,3.46,4.92,5.44,7.32,7.95,0-.98-1.62-1.9-2.37-2.64-1.96-1.35-3.86-3.31-4.95-5.32Z"/>
          <path class="cls-12" d="m51.19,38.27c-.13-.02-.35.35-.15.3,1.44-.11.75,3.09,1.73,3.43.45-.23-.84-4.08-1.58-3.73h0Z"/>
          <path class="cls-12" d="m53.45,41.75c-6.11.32-11.27,1.63-14.19,7.49-.15.54-1.07,1.04-.83,1.59.87-.45,1.42-2.35,2.21-3.19,3.73-5.36,11.17-6.05,17.18-5.44.1.02.14-.15.03-.16-1.34-.2-3.05-.36-4.41-.28h0Zm-15.71,9.82c-1.99,3.37-5.58,10.15-1.95,13.24-2.25-4.85.13-8.65,1.95-13.24h0Z"/>
          <path class="cls-12" d="m36.07,64.98c-.41,1.63,4.93,1.8,5.09.95-1.6.34-3.56.16-4.87-.88-.04-.08-.14-.11-.21-.07h0Z"/>
          <path class="cls-12" d="m47.01,52.86c-7.62,11.24-8.72,25.63-12.09,38.51.01.73-1.36,3.58-.51,3.38,4.38-13.89,5.23-29.06,12.6-41.89h0Zm-13.67,44.39c-2.37,5.34-5,11.76-7.72,17.01-.6,1.07-2.37,4.23-3.05,5.18-.76,1.21-2.74,2.66-1.32,4.13,1.25,1.45,3.3,4,5.33,3.81.12.05.19-.15.07-.19-1.57-1.65-4.45-2.52-5.33-4.89,1.22-1.71,3.09-4.65,4.1-6.6,2.89-5.72,5.92-12.41,7.92-18.45h0Zm7.31,31.28c-1.1,3.44-5.44,1.87-8.06,1.37-2.89,1.09,8.62,2.73,8.06-1.37Z"/>
          <path class="cls-12" d="m27.2,127.5c-1.06.63.59,1.18,1.12,1.36.64.28,4.17,2.31,3.81,1.08-1.06-.43-2.47-1.18-3.5-1.67-.46-.22-.88-.83-1.42-.77Zm41.42-64.75c-.82-.26-.99,1.54-1.26,1.97-.28.96-1.12,2.8-1.48,3.77-1.15,2.62-3.59,7.01-5.06,9.53-9.08,15.41-14.41,32.87-20.16,49.7.32.73,1.24-2.98,1.43-3.24,3.83-10.64,7.86-21.61,12.39-31.96,2.01-7,15.94-24.94,14.13-29.77h0Zm-46.73,61.67c-1.75,3.06-1.55,2.96,1.56,4.55,2.91,1.54,6.32,2.58,9.63,2.21.52-.06.5-.49-.06-.38-2.15.4-4.33-.18-6.32-.98-1.8-.75-3.75-1.83-5.43-2.77-.78-.63,1.2-1.82.61-2.63Zm17.7-40.87c-1.47,2.26-2.16,5.27-3.17,7.77-.46,1.65-1.96,4.05-2.27,5.43,1.28-1.53,2.37-4.5,3.17-6.33-.03-.5,3.35-7.17,2.26-6.87h0Z"/>
          <path class="cls-12" d="m49.61,103.97c-.72,2.34-1.01,5.43.01,7.77.37.7,2.12,1.56,2.38.46-.06-.6-.69-.32-1.07-.45-2.12-1.83-1.16-5.34-1.33-7.78Zm10.63,5.36c-2.08.16-4.23.45-6.15,1.31-.5.37-1.8.56-1.58,1.35.25.39.75-.07,1.03-.18,1.82-1.05,4.06-1.37,6.1-1.72,3.94-.56,8.21-.18,11.79,1.45-2.95-2.39-7.5-2.14-11.18-2.21Zm2.84,1.47c-8.52-.26-7.49,4.05-12.32,4.53.07-.78,1.25-1.89.61-2.53-.02-.11-.19-.08-.16.03-.06.08-.12.11-.2.17.09.87-1.75,2.94.12,2.85,3.2.02,4.65-3.64,7.74-4.16,1.13-.48,9.49-.68,4.21-.89Zm-12.79,5.42c-.86,1.52-1.86,4.72-.32,5.99,1.07-.33,2.05-1.97,2.87-2.69-.33-.62-2.81,3.32-3.1,2.01-.55-1.7.09-3.46.8-5.01.09-.16-.09-.35-.25-.29Zm11.04-13.91c-.74.02-1.95.34-1.84,1.27.06.06.12-.19.17-.25,1.64-1.95,5.4.08,7.47.55,1.66-.59-5.25-1.77-5.8-1.57h0Zm9.34-.42c-1.21.5,3.84,4.06-2.41,1.97-2.83-.68,6.85,3.71,2.41-1.97Zm30.66,10.36c-3.9.2-9.08-.13-12.35,1.17,8.15-.87,17.11-.51,25.21.58.75.09.89-1.11.12-1.17-.44-.01-1.78-.14-2.24-.19-2.98-.16-7.76-.44-10.74-.39h0Z"/>
          <path class="cls-12" d="m114.3,112.96c-.57-.07-.7.83-.11.9,0,0,1.81.17,1.81.17,1.76.22,3.82.44,5.61.68,2.27.21,4.86.51,7.13.57,11.38-1.19,19.35,9.66,22.06,19.58.55,1.25.36,3.54.82,4.31-.16-1.71-.3-3.84-.75-5.48-2.35-8.09-8.12-16.85-16.78-18.82-6.58-.37-13.28-.94-19.79-1.91h0Z"/>
          <path class="cls-12" d="m141.81,118.92c13.58,8.2,13.92,27.36,17.03,41.67,0,0,.58,2.46.58,2.46.14.6,1.11.37.94-.24-4.13-14.74-3.75-35.25-18.54-43.89h0Zm9.73,21.59c1.21,7.61,2.04,17.38,2.28,25.18,0,0,.04,3.96.04,3.96.14.26-.38,3.44.4,3.27.79.12.2-2.96.35-3.28-.37-9.66-.78-19.77-3.06-29.13Z"/>
          <path class="cls-12" d="m154.2,172.24c-.57.3.11,2.37.06,2.93.19,2.96.69,6.64-.24,9.51-1.88,1.22-3.99,2.44-6.25,2.69-.07.02-.61.11-.34.24,2.05.23,6.24-1.42,7.24-3.19.86-2.98.61-6.27.28-9.32-.23-.83.04-2.44-.76-2.85h0ZM60.16,31.21c3.55,5.73,10.91,8.97,17.57,8.56.34-.02.32-.55-.03-.53-6.8.55-13.3-2.87-17.54-8.04Z"/>
          <path class="cls-12" d="m77.55,39.78c-7.01,0-9.53-.54-7.34,7.63.24,1.08,1.85,3.58.92.71-2.15-6.88-1.98-8.11,5.49-8.09.05-.03,1.45.03.93-.25h0Zm-9.76,6.8c-.37.17.16.68.37.82,2.3,1.82,4.79,4.17,5.08,7.18.38-3.08-2.84-6.67-5.45-8h0Z"/>
          <path class="cls-12" d="m70.86,47.94c.43.63,1.6,1.57,1.93,2.57.53,1.23,1.7,3.07.37,4.03,3.16.88-.61-6.52-2.3-6.61h0Zm-1.97,5.99c-.56.28.33.63.53.76.96.59,2.52,1.12,3.34.09-1.38.78-2.69-.2-3.87-.86h0Zm-13.13-6.45c-2.26.03-4.57.84-6.15,2.49,2.4-1.56,6.03-2.85,9.2-1.69,3.43.54,6.76,4.01,9.28,4.89-3.05-3.36-7.71-5.74-12.33-5.69Z"/>
          <path class="cls-12" d="m70.96,52.97c-.36.05.25.34.32.39,3.02,1.56,4.67,5.03,6.24,7.9,1.39,2.09,1.64,5.36,3.03,7.15.04-4.52-4.96-13.76-9.59-15.45h0Zm2.63,1.3c12.6,9.75,16.49,26.21,19.06,41.29,2.08,1.79-.92-7.98-.91-9.07-2.73-12.07-7.36-25.13-18.15-32.22Zm18.09,41.92c-1.66.2-4.63.04-6.16.56,3.41.74,8.91-1.79,10.18,3.1,1.35,3.49,2.12,7.55,1.13,11.22-.53.71-.4,2.31.65,1.22.8-1.22.82-2.84.87-4.26-.5-4.13-1.27-11.89-6.68-11.84h0Zm-6.5.97c-.2,2.82-1.61,5.77-3.7,7.78.65,1.95,4.74-6.72,3.7-7.78Zm-3.16,9.3c-.22,1.07,2.1,2.5,2.58,3.79.42.59.76,1.49,1.25,1.99-.75-2.09-2.16-4.29-3.83-5.78Zm-35.64-47.76c-3.57-.26-4.9,5.21-2.31,3.48.61-.32,1.06-.94,1.61-1.31.6-.23,1.3-.21,1.92-.29,2.95.57,5.53,2.39,7.8,4.29,1.51,1.31,3.59,3.57,4.87,5.1,1,.64,3.26,7.4,2.81,3.32-2-6.26-10.03-13.97-16.71-14.58h0Zm-4.18,67.88c1.75,1.83,5.82,3.86,8.4,3.56-2.84-.76-6.18-1.49-8.4-3.56h0Zm.54-2.48c1.7.95,4.76,2.71,6.92,2.39-2.18-.52-4.78-1.29-6.92-2.39h0Zm8-2.1c-2.5,6.16,3.23,14.17,9.02,16.53,5.9,1.64,14.78,2.61,20.9,3.25,14.51.91,29.52,1.58,43.68-2.17,1.82-2.09-8.74,1.49-10.04,1.06-16.41,1.86-33.22,1.22-49.47-1.64-8.36-.28-15.81-8.74-14.1-17.02h0Zm75.64,15.37c-3.07,7.62.13,17.38,1.43,25.2.13.63,1.14.42.98-.22,0,0-.31-1.18-.31-1.18-1.76-7.41-3.94-16.3-2.1-23.8h0Zm2.46,26.19c-.69.06.05,3.3.02,3.9.26,2.33.45,5.02.56,7.36-.03,8.79-1.66,7.52,6.74,11.48.22.15,1.64.98.88.2-2.57-1.99-8.54-2.7-6.93-7.17.09-.83.22-2.38.24-3.23.01-2.57-.32-5.43-.57-7.99-.23-.79-.16-4.52-.94-4.56h0Zm-93.98-32.74c-3.36,3.51-3.93,8.07-10.06,7.3-1.18.93,2.39.59,2.87.55,2.84-.19,4.44-2.73,5.54-5.06.29-.91,1.97-2.03,1.64-2.78h0Z"/>
          <path class="cls-12" d="m28.55,133.79c-.2-.04-.35.19-.24.36.71,1.13,1.1,2.72.18,3.8,1.38-.63,1-3.25.06-4.16h0Zm-6.58-.48c-1.7,1.93-4.81.79-7.04,1.49-3.47,1.59-1.25,4.4,1.93,3.72.25,0,2.16-.43,1.16-.39-2.24.46-6.49-.6-2.98-2.87,2.1-.9,5.87.56,6.92-1.95h0Zm1.5-4.31c-1.62.91-4.31,2.16-6.05,2.85-.54.3-1.17.29-1.77.25-3.16,1.33-7.61,1.83-10.95,2.89-1,.43-2.26,2.37-1.48,3.23,1.39.16,2.93.59,4.31.34.19.05,1.22-.4.93-.51-1.5.37-3.35-.11-4.95-.29.15-1.82,1.77-2.73,3.42-2.93,2.63-.73,6.07-.93,8.43-2.34,1.46.3,2.95-.58,4.25-1.14,1.07-.64,3.45-1.39,3.87-2.35h0Z"/>
          <path class="cls-12" d="m11.93,133.27c-2.96,1.13-7.13.06-9.99,1.57-1.81,1.31-1.86,4.39.84,3.09-1.8-.06-2.3-.53-1.03-2.2,2.17-2.72,8.17-.43,10.18-2.46h0Zm26.64-2.43c-.59,1.19-6.71,2.13-5.36,2.95,0,0,1.35-.68,1.35-.68,1.24-.54,3.56-1.13,4.02-2.28h0Zm12.37-.52c-2.67,8.47,4.22,7.07-9.1,7.25-1.07-.18-3.38.41-.86.71,13.83-.16,8.66.51,9.96-7.96Zm109.69,33.64c-1.52.39.96,3.14,1.02,4.31,1.05,2.63,2.76,6.94,3.76,9.55-.61,1.23-1.44,2.6-2.32,3.66.47.44,1.79-1.96,2.14-2.47.17-.31.53-.83.64-1.16-.2-.7-.59-1.69-.81-2.39-1.35-3.44-2.71-8.29-4.43-11.49h0ZM79.84,34.05c-.99.62-1.08,2.1-1.38,3.14-.15.78-.2,1.82-.94,2.27-.05,0-.05.07-.01.08,1.1.62,1.81-2.95,1.98-3.73.19-.47.17-1.03.48-1.44.12-.11.03-.31-.13-.31h0Z"/>
          <path class="cls-12" d="m76.27,32.72c-.14-.02-.27.07-.35.17-.14.04-.09.27.06.23,1.2.44,2.85.26,3.94,1.07-.66-1.03-2.49-1.19-3.65-1.47h0Z"/>
          <path class="cls-12" d="m81.63,25.49c-.32-.05-.05.28.04.39.95,1.39-1.68,2.28-2.16,3.4-.71,1.21.64,2.61-.12,3.75-.16.17-.66.61-.11.5,1.49-.88.14-2.64.47-3.94.48-1.23,4.3-2.91,1.88-4.11h0Z"/>
          <path class="cls-12" d="m77.19,19.79c.34,2.11,2.25,3.86,3.7,5.38.15.22.96,1.08.88.4-1.51-1.8-3.57-3.66-4.58-5.78Z"/>
          <path class="cls-12" d="m77.11,19.75c.32.48,2.26,2.6,2.88,2.19-.23-.39-.54-1.56-.67-1.59-.46.18-.03.92.16,1.21-.83-.48-1.66-1.35-2.38-1.82Z"/>
          <path class="cls-12" d="m80.49,19.82c-.42-.04-.94.22-1.2.47.61-.14-.34.04-.11.29.45.17,1.07-.59,1.51-.61-.44.22,0,0,.06-.03.05,0,.04-.07,0-.07-.77.25-.48.13-.76.25-.37.12,1.14-.36.5-.31h0Zm-.52.52s-.1.06-.22.12c.08-.02.15-.07.22-.12h0Zm-.22.12s-.05.02-.07.03c0,0,.07-.04.07-.03Zm-.07.03c-.19.09-.26.18,0,0h0Z"/>
          <path class="cls-12" d="m76.03,16.22s-.04.03-.04.06c.29,1.48,3.28,3.73,4.7,3.55-1.1-.19-2.07-.82-2.8-1.65-.6-.57-1.41-1.21-1.81-1.93,0-.03-.03-.04-.06-.03Zm-1.91,1.08c-.96.3-1.95.9-2.55,1.72-.37.74.74.97.94.25.4-.48,1.15-1,1.66-1.35.53.08.92.59,1.39.69.02.03.05,0,.03-.03-.02-.61-1.04-.93-1.47-1.28h0Zm5.18,10.41c-.31-.09-.68.41-.2.35.08-.12.32-.1.24.08.2.51.44-.5-.04-.43h0Z"/>
          <path class="cls-12" d="m77.41,27.6c-.16,1.33,1.01.92,1.68.34l-.18-.06c-.4.26-1.24.61-1.19-.19-.11-.04-.23-.08-.31-.09h0Zm-2.15-8.16c-.92.2-1.63.98-2.32,1.58-.12.21-1.62.99-1.34,1.33.29.31.71-.15,1.01-.28.85-.7,1.6-1.53,2.46-2.21.15-.06.57-.43.18-.42h0Z"/>
          <path class="cls-12" d="m75.11,19.96c-.08-.06-.18.08-.1.14l.2.87c.09.41-.29-1.08-.06-.71.3.4.51,1.08.28,1.53-.15-.56,0,0-.03.05.6,1.16.56-1.75-.29-1.87Z"/>
          <path class="cls-12" d="m75.02,21.65c-.23.03-.31.36-.11.49.35-.05.22,0,.35-.05.14-.04-.42.07-.25.1,0,0,.1.05.1.05.15.09.4,0,.45-.13-.22-.01,0,0,.05-.07.08-.06-.02-.2-.1-.13-.14-.11-.06-.09-.14-.1-.06,0,.19.19-.01.11.01-.06,0-.12-.08-.18.1.05-.19-.15-.25-.09Z"/>
          <path class="cls-12" d="m74.87,19.76c-1.29.3.42,4.27.36,1.36.11-.02.15-.07.09-.16-.12.3.03-.04-.04-.07-.02-.38-.03-.96-.42-1.13Z"/>
          <path class="cls-12" d="m75.25,20.49c-.22.61-.02.84-.54.37.18.16.47-.02.48-.25-.07.11-.07-.11-.66-.04,0,.07.03.12.06.18-.28-.34-.03.31.04.43.28,1.37.88-.17.64-.69Zm-.34,1.05s.03,0,.05.01c-.02,0-.05,0-.07,0,0,0,0-.02.02-.02h0Zm-.11.04s.02.02.03.01c-.01.02-.03.05-.02.08-.01-.04,0-.05-.01-.09h0Z"/>
          <path class="cls-12" d="m75.28,20.37s-.15,0-.15.04c.17.36,0,0-.04.05-.11.02-.08.19.03.17,0,.07,0,.06-.01.1-.02,0-.01.02,0,.03-.03.48-.05.5-.02.72,0,.41.64.41.64,0l-.19-.33c.4.71.12-.71-.24-.76h0Z"/>
          <path class="cls-12" d="m75.36,21.22c-.37.07-.07.45-.2.3-.01.13.01.18.12.08.07-.04.09.05.03.06.23-.15.02.11-.11.2.22.34.55-.16.42-.4-.15.11,0,0-.01-.03-.01-.13-.13-.22-.25-.2h0Zm-.05.44c-.06-.06,0,0-.04.01-.09-.06-.18.09-.09.14.09-.08.1-.12.12-.16Zm56.73,176.21c-2.98,5.84-.26,6.85,4.45,9.42,2.58,1.42,6.28,3.76,8.92,5.04.24-.03,2,1.23,2.14.64.29-.49-1.69-.97-1.88-1.17-2.85-1.41-7.07-3.82-9.81-5.48-5.33-2.62-5.09-2.95-3.82-8.44Zm16.94,15.41c-.71.69,4.26,2.23,4.85,2.74,5.03,2.47,16.67,6.24,16.85-2.39-2.58,10.59-15.53,1.89-21.69-.34h0Zm40.12-19.91c7.74,5.94-3.93,8.35-8.9,9.38-2.92.49-7.07,1.13-10.02,1.31-1.52.3-4.1-.19-5.34.38.64.89,2.54.15,3.58.27,4.73-.42,32.34-2.86,20.68-11.34h0Z"/>
        </g>
      </g>
      <g>
        <path class="cls-7" d="m163.85,205.32c-1.59.24-5.72.93-4.35,3.27,1.94,1.81,2.42-2.51,7.42-1.63.16.11.33-.13.17-.24-.34-1.29-2.14-1.3-3.25-1.4h0Z"/>
        <path class="cls-7" d="m162.82,202.26c-1.93.81-3.23,2.91-4.21,4.74-.58,1.04,1.07,1.94,1.62.87.74-1.38,1.61-3.08,2.61-4.27.4-.24.61-.58.54-1.06.11-.08-.02-.25-.13-.17-.15-.04-.29-.1-.45-.11h0Z"/>
        <path class="cls-7" d="m162.45,201.77c-1.95-.02-3.92.74-5.8,1.21-1.37.36-.77,2.52.59,2.11,1.31-.25,2.48-1.12,3.73-1.58.65-.5,1.62-.44,2.09-1.11.19,0,.17-.31-.02-.29-.17-.17-.34-.33-.6-.34Z"/>
        <path class="cls-7" d="m160.04,199.51c-1.87.58-4.23,2.17-4.51,4.21-.46.79.8,1.48,1.23.68,1.05-.6,1.48-2.02,2.47-2.76.51-.54,1.3-.98,1.56-1.68.18-.07.07-.35-.1-.28-.2-.08-.42-.18-.64-.16Z"/>
        <path class="cls-7" d="m158.62,198.62c-1.88.01-3.74.71-5.51,1.25-1.22.37-.61,2.28.6,1.87,1.32-.44,2.69-1.28,4-1.73.9-.42,1.89-.06,2.76-.29.17.09.31-.18.13-.27-.19-.81-1.31-.75-1.98-.83h0Z"/>
        <path class="cls-7" d="m157.76,195.71c-2.44.28-4.41,2.43-5.76,4.37-.77,1.12,1.01,2.32,1.75,1.17.47-.52.96-1.53,1.42-2.09.55-.88,1.42-1.71,2.2-2.32.37-.17.65-.24.84-.65.03,0,.04-.05,0-.05-.13-.15-.26-.36-.45-.43Z"/>
        <path class="cls-7" d="m153.35,194.3c-1.33.05-2.96.05-3.92,1.09-1.1.95.41,2.65,1.48,1.67,1.51-.84,3.62-.98,5.33-1.04.51-.01,1.01.1,1.39-.31.18.05.26-.24.08-.29-.75-1.23-3.07-.84-4.35-1.13h0Z"/>
        <path class="cls-7" d="m154.39,191.9c-1.57.22-3.02.86-4.28,1.87-1.12,1,.48,2.74,1.57,1.7.86-1.23,2.34-1.92,3.22-2.97.19-.03.14-.32-.05-.29-.14-.09-.31-.26-.46-.31h0Zm26.27-1.29c-1.46.31-.61,1.89.08,2.51.14.59.17,1.16.36,1.73-.03.1.14.16.17.05.95-.94,1.28-4.22-.61-4.29Z"/>
        <path class="cls-7" d="m180.14,190.91s-.09-.02-.12.01c-.85-.01-1.45.78-2.24,1.04-1.57.41-1.06,2.81.49,1.89.44-.39.91-.98,1.29-1.43.34-.43.76-.78.59-1.4.03-.03.02-.08-.01-.11h0Z"/>
        <path class="cls-7" d="m177.26,189.51c-1.53.2-.31,2.9-.04,3.74-.06.18.23.27.29.09.89-.32.66-1.51.73-2.29.16-.7-.07-1.66-.98-1.55Z"/>
        <path class="cls-7" d="m176.64,189.82c-1.21.36-2.71.1-3.74,1.04-1.53,1.7.9,2.66,2.13,1.19.7-.5,2.2-.92,2.24-1.86.15-.11-.01-.36-.17-.24-.14-.02-.33-.09-.46-.13h0Z"/>
        <path class="cls-7" d="m172.78,188.19c-1.03,0-1.31,1.53-.34,1.88.42.79.16.58.42.8.34.23-.66-.91-.16-.9.58.68.27,1.41.58,1.69-.03.19.26.24.29.05.97-.91.74-3.34-.8-3.52Z"/>
        <path class="cls-7" d="m172.52,188.66s-.08,0-.09.05c-.94.16-1.92.88-2.55,1.66-.7.83.62,1.91,1.3,1.06.53-.75,2.04-1.69,1.39-2.67.01-.04,0-.08-.04-.1h0Z"/>
        <path class="cls-7" d="m169.23,186.59c-1.32-.15-1.6,1.53-.5,2.09.46.57.89,1.07,1.25,1.68-.03.19.26.24.29.05.77-.83.08-3.48-1.05-3.82h0Z"/>
        <path class="cls-7" d="m167.56,186.46c-1.21.24-.8,2.13.4,1.86.42-.41.22-.26.42-.41.11-.08-.19.19-.26.3.2-.04.47-.46.56-.61.04-.04.08-.07.12-.11.61-.13-.46-.56-.58-.66-.18-.1.36.2.57.22-.04-.1-.21-.49-.41-.49-.11,0-.56-.13-.58-.08.33.28,0,0-.22-.02h0ZM61.69,8.58c-.93.03-2.18-.1-2.94.09,5.66.63,11.88-.24,17.32,1.87-3.98-2.08-9.72-1.78-14.38-1.96h0Zm-19.23,6.57c-1.33.12-4.06,1.45-4.01,2.58.31-.24.91-.74,1.2-1,.65-.79,2.5-1.08,2.81-1.58Z"/>
      </g>
    </g>
  </g>
</svg>