<svg xmlns="http://www.w3.org/2000/svg" width="295" height="211" fill="none"><style><![CDATA[.B{fill:#070d1c}.C{opacity:.607}]]></style><g clip-path="url(#F)"><path d="M3.825 180.911c-.259 2.671 4.127-13.844 18.959-16.445s40.371 6.041 40.371 6.041l70.026 38.327 61.661.797 30.049-33.501s5.027-5.76 11.932-6.09 11.364 3.874 25.278 7.907c7.038 2.04 14.297.384 21.891 2.441s9.666 5.739 9.666 5.739l-2.093-15.98s-27.357-63.057-41.707-70.196c-13.227-6.579-70.18-16.822-70.18-16.822l-4.186 6.117s.53 4.687-.68 7.051c-3.621 7.072-13.057 21.605-13.057 21.605s-6.906 3.473-14.284 3.473-15.23-3.473-15.23-3.473l-11.806-19.64-.347-8.891-3.947-4.914s-68.468 11.84-74.184 21.657l-26.442 46.492S4.63 172.607 3.825 180.911z" fill="#fff"/><g fill="#d4a44e"><path d="M133.27 208.833h4.221l4.865-4.393-3.896-.609-2.147-6.906c-1.17-3.217-3.131-4.802-3.131-4.802s1.873 4.643 1.982 8.623-1.894 8.087-1.894 8.087zm13.304-24.013l-.019 8.372-4.496-7.294 4.515-1.078zm-6.307-5.299l-.639 1.735-1.426-1.937c-.147-.219 2.065.202 2.065.202zm28.781-10.816L149.973 183.1l.559 18.494 12.91 7.763 6.432.039 1.801-38.712-2.627-1.979z"/></g><path d="M153.227 180.112l13.352-10.055-.594-15.083-16.975-11.298-15.731 12.596-.433 6.487 9.569 1.676 8.109 4.487-1.892 9.298 4.595 1.892z" fill="#aeaba7"/><path d="M151.118 182.328l-1.189 1.514-2.972-.161.972-2.65 3.189 1.297z" fill="#bdb8bd"/><g fill="#e5bca6"><path d="M292.154 195.132s1.503-7.367-.441-9.851c-5.773-7.379-15.026-4.586-23.997-6.027-8.144-1.308-17.18-5.904-28.197-9.536-5.46-1.799-19.59 7.97-19.59 7.97s-24.969 2.375-26.068 2.055c-.447-.13-4.5-6.393-4.5-6.393l-8.853-2.719-5.177-1.59-10.515 7.551-8.357 4.627s-1.638 4.175 1.289 5.416 11.299.036 11.299.036-6.162 2.576-6.775 5.452 3.445 5.56 3.445 5.56-2.1 2.45-1.826 4.443 2.921 3.529 2.921 3.529l.383 3.178 12.046.523s81.483 2.026 102.602-.863c7.795-1.066 10.311-13.361 10.311-13.361zm-156.155-19.614l4.28 2.428s.777 5.265 2.265 6.874 3.686-.437 3.686-.437 5.93-12.97 4.305-15.625c-2.297-3.752-18.668-6.272-18.668-6.272l-21.666 19.95s-11.342-1.022-29.113-5.574-30.21-11.798-41.974-12.636c-18.297-1.303-23.068-.375-31.363 10.383-4.319 5.601-6.418 14.039-6.202 20.674.199 6.108 3.68 12.164 6.465 12.387 29.611 2.376 125.778.193 125.778.193s1.434-3.825 1.35-7.872-1.686-8.316-1.686-8.316l3.347 5.478 1.494 6.367 6.486.495 1.172-10.811L136 175.518zm39.582-86.1l-.223 6.129-6.069.467 6.292-6.596zm-54.981.408l-.198 8.742 11.527 18.663s7.549 4.025 14.704 4.131 14.431-2.943 14.431-2.943l2.466-17.68s-10.363 7.482-17.425 7.68c-8.57.24-16.843-8.967-16.843-8.967l-8.662-9.626zm41.257-1.737l-3.895 4.175-4.743 3.713-6.526-5.191-4.935 4.702s-7.996-7.852-8.029-8.266 7.229-.961 14.13-.792c8.982.22 13.998 1.659 13.998 1.659z"/><path d="M161.48 88.026l5.136 1.639 9.202-10.976 8.49-15.254s1.244-.264 1.873-1.87c1.723-4.398 5.182-17.072 1.301-18.638-3.523-1.421-8.128 10.49-8.128 10.49s-1.553-21.533-12.033-26.505c-9.871-4.684-15.122 2.181-19.334 2.181-1.461 0-4.29-4.05-9.898-4.361s-11.233 1.864-15.356 6.627c-4.424 5.11-5.637 21.35-5.637 21.35l-2.846-4.302s-2.771-4.885-5.994-3.575c-4.423 1.798 2.896 19.811 2.896 19.811s2.629 1.639 6.505 8.213c3.863 6.551 11.398 16.514 11.398 16.514l5.245-2.148s-2.503-6.253 3.893-7.815 14.975 0 20.952.777c1.929.251 2.335 7.842 2.335 7.842z"/></g><g fill="#fff"><path d="M155.498 59.063s2.498 3.651 5.502 2.828c3 0 6.293-2.021 7.136-3.867s-1.033-2.873-3.681-3.139-4.958-.305-6.103.374c-.942.559-2.854 3.804-2.854 3.804zm-16.463-.267s-1.611 3.172-5.078 2.853-6.923-1.384-8.411-2.915 2.459-3.209 2.459-3.209l8.257-.249 2.773 3.521z"/></g><g fill="#5b3c27"><path d="M183.694 64.891s3.096 5.133-.467 13.069c-4.192 9.339-20.062 22.361-20.062 22.361s-9.995 7.902-17.438 7.92c-10.372.025-23.226-16.144-23.226-16.144s-16.365-16.894-10.204-24.901c1.621-2.106 15.233 20.894 16.448 22.083 1.174 1.15 5.026-1.827 5.026-1.827l7.989 8.164 4.984-4.944 6.426 5.342 8.689-7.987 4.732 1.252s7.676-7.755 11.588-14.806c3.613-6.512 5.515-9.582 5.515-9.582zm-22.303 22.94l-1.568-7.511-17.468-1.63-8.316 2.514.209 5.879 14.101-.487 13.042 1.235zm-44.365-34.865s2.144-18.646 6.557-22.161 8.173-5.567 11.788-5.852c6.069-.478 12.523 4.454 12.523 4.454l8.526-3.634s9.772-1.479 15.255 5.538 7.345 22.296 7.345 22.296 2.339-5.751 4.702-8.419 4.749-2.25 4.749-2.25-.939-10.489-3.421-20.816c-3.661-15.235-15.713-17.859-15.713-17.859s-10.859-4.469-26.614-3.189c-11.952.971-15.132.201-23.538 5.26s-10.522 14.587-11.169 21.862c-.783 8.808-.564 16.992-.564 16.992s2.166-2.118 4.559 0 5.015 7.779 5.015 7.779z"/></g><g fill="#bdb8bd"><path d="M84.081 153.297l-4.927 22.223 16.673 5.512s-6.653-4.058-9.59-10.991-2.157-16.744-2.157-16.744zm128.94 3.307s2.797 7.969 3.185 13.478-1.633 8.556-1.633 8.556l10.808-3.434-6.707-6.498-5.653-12.102zM84.76 147.676s6.52-10.514 5.898-19.309-9.762-21.277-9.762-21.277 5.6 12.082 6.8 22.336-2.936 18.25-2.936 18.25zm83.715-21.632s8.706 4.091 15.246-.016 10.948-13.089 7.927-17.81c-4.501-7.032-9.728-6.585-9.728-6.585l-13.445 24.411zm-47.473 3.194s7.565 3.804 12.178 1.514c1.991-.988 2.627-2.629 3.622-4.723.652-1.371 5.477 4.836 12.234 4.723 6.843-.114 16.419-7.021 16.419-7.021l-3.598-6.497-31.142-.345-9.713 12.349z"/></g><g fill="#ab8f85"><path d="M139.774 120.358s4.462 1.125 9.514 1.008 13.302-3.216 13.302-3.216l12.881-24.217.173-4.267-11.765 10.084s-10.273 7.365-14.591 8.492c-2.56.669-6.175-1.218-9.741-1.854-6.048-1.08-18.805-15.637-18.805-15.637l-.34 6.084 12.581 21.012 6.791 2.511zm152.706 74.199s-5.02 7.388-21.923 9.799c-15.966 2.277-72.814 0-72.814 0l-1.161 4.815 78.786-.127c7.656-.3 8.151-.549 9.992-2.42.588-.597 3.71-3.555 4.154-4.231 2.472-3.761 2.966-7.836 2.966-7.836zm-290.724-.375s5.215 6.111 17.334 8.5 31.68 2.113 31.68 2.113l66.548-.06-.526-1.291s3.295.591 5.682 0 3.702-1.857 3.702-1.857 3.531.237 5.754-.608 3.141-2.774 3.141-2.774l-1.329 10.29-126.42-.326s-3.572-4.776-4.963-8.272-.603-5.715-.603-5.715z"/><path d="M197.548 205.144s-2.979.959-6.56.636-3.076-.726-8.41-.639-15.902 1.483-15.902 1.483l.848 2.154 27.259.266 2.55-1.763.215-2.137zm-17.517-19.583s-4.542 1.955-9.608 3.446l-8.151 2.669c-2.584.057 7.421-5.885 7.421-5.885l10.338-.23z"/><path d="M153.55 54.1l-1.003 7.44s.944-3.179 2.983-5.357 5.172-3.355 5.172-3.355L153.55 54.1z" class="C"/></g><g opacity=".4"><path d="M156.627 66.55c2.372-3.378 8.865-5.586 8.865-5.586s8.833-.586 11.717 2.283-.181 9.193-.181 9.193-3.875 8.412-8.892 9.012-12.131-6.978-12.131-6.978-1.75-4.546.622-7.924z" fill="url(#B)" class="C"/><path d="M138.09 68.283c-2.665-4.364-9.475-8.404-14.507-8.134s-5.921 6.822-5.921 6.822 1.374 9.06 5.52 11.719 11.064-1.084 11.064-1.084 6.51-4.959 3.844-9.324z" fill="url(#C)" class="C"/><path opacity=".696" d="M155.854 181.212l8.079-3.852 9.865-7.844 11.884 3.382 4.087 1.08 6.661 8.764 2.431 11.704-1.651 10.457-23.159.685-7.627.161-2.317-4.999 2.568-2.954-4.854-4.067 1.365-2.085 17.219-6.333-23.051 1.029-1.5-5.128z" fill="url(#D)"/><path opacity=".694" d="M101.764 192.484l3.658 9.084 11.461 1.768 5.974.183 12.071-4.39-2.012-7.803 3.272 5.198 2.544 7.212s4.685 2.026 6.551-.67.338-10.94.338-10.94l-9.84-15.37 5.182.305s-1.103 4.88.289 6.507 3.097 3.734 5.276 0 4.067-13.823 4.067-13.823-11.3-12.336-22.377-4.678c-6.696 4.629-26.454 27.417-26.454 27.417z" fill="url(#E)"/></g><mask id="A" maskUnits="userSpaceOnUse" x="-9" y="-20" width="316" height="248"><path d="M307-20H-9v248h316V-20z" fill="#fff"/></mask><g mask="url(#A)" class="B"><path d="M235.906 169.47c-1.227.431-2.183 1.158-3.312 1.781l-3.813 1.875c-6.57 2.785-13.353 4.509-20.437 5.25-4.375.457-8.911.316-13.032-1.313-.948-.263-1.923.271-2.187 1.219s.302 1.924 1.25 2.188c4.051.719 8.171.601 12.25.156 7.076-.772 14.503-2.704 21-5.625 1.872-.842 3.727-1.822 5.469-2.906 1.154-.719 2.175-1.31 2.968-2.438.058-.043.075-.13.032-.187s-.131-.044-.188 0z"/><path d="M241.094 169.062c-4.653-.373-9.026.925-13.063 3.157-1.46.807-2.837 1.587-3.781 3-.067.049-.08.12-.031.187s.152.081.219.032c1.309-.382 2.361-1.102 3.531-1.782.82-.476 1.688-.853 2.562-1.218 3.206-1.341 6.951-1.612 10.375-1.219 1.213.139 2.319.461 3.5.75a30.33 30.33 0 0 1 5.969 2.125c4.044 1.938 7.829 4.462 12.063 6 2.417.878 5.087 1.305 7.656 1.281.633-.006 1.273-.104 1.906-.094l3.375.094c.8 0 1.437-.669 1.437-1.469a1.43 1.43 0 0 0-1.437-1.437c-3.745.019-7.672.174-11.281-1-3.534-1.15-6.798-3.001-10.156-4.563-4.058-1.887-8.359-3.484-12.844-3.844zm39.344 9.25c-.456.114-.805.436-1.219.657-.52-.009-.96.418-.969.937s.418.96.938.969c.385.234.73.538 1.156.687.341.12.701.071 1.062.094l1.032.032c1.497.133 3.005.29 4.406.874 3 1.253 4.291 4.337 4.656 7.344.116.955.018 1.919.062 2.875.044.938-.007 1.787-.156 2.719-.064.325.175.623.5.688a.58.58 0 0 0 .688-.469l.875-3.407c.621-4.055-.254-8.591-3.813-11.062-1.404-.975-3.02-1.625-4.625-2.188-1.076-.377-2.209-.583-3.343-.687-.407-.037-.855-.161-1.25-.063z"/><path d="M250.845 100.22a.58.58 0 0 0-.813.187c-.176.281-.093.636.188.813 1.682.895 2.759 1.979 4.031 3.375l3.188 3.812c2.353 3.054 4.644 6.175 6.75 9.406 9.363 14.371 17.398 29.871 23.5 45.907 1.987 5.225 3.815 10.671 4.468 16.25.276 2.351.451 5.02-.75 7.156-.356.648-.117 1.456.532 1.813s1.455.116 1.812-.532c1.447-2.673 1.375-5.812 1-8.75-.736-5.769-2.755-11.415-4.844-16.812-3.958-10.225-9.109-19.965-14.594-29.438-3.001-5.183-6.005-10.346-9.406-15.281-2.951-4.283-5.909-8.494-9.344-12.406-.528-.603-1.034-1.237-1.593-1.813-.646-.665-1.364-1.233-2.031-1.875s-1.343-1.265-2.094-1.812zM212.875 156c-.208.076-.326.292-.25.5l2.531 7.062c1.015 2.52 2.184 4.96 3.844 7.126 1.365 1.78 3.064 3.317 4.781 4.75.393.316.965.267 1.281-.126s.237-.964-.156-1.281c-.976-.76-1.942-1.555-2.812-2.437-.609-.617-1.149-1.354-1.688-2.032a37.15 37.15 0 0 1-4.125-6.5c-1.102-2.209-1.936-4.573-2.906-6.843-.076-.208-.292-.295-.5-.219zm13.157-34.844c-.861.461-1.754.933-2.531 1.532-.934.718-1.729 1.683-2.469 2.593-2.397 2.948-3.799 6.621-4.562 10.313-.712 3.442-.692 7.051-1.657 10.437-.422 1.482-1.215 2.736-1.906 4.094-.062.071-.07.156 0 .219s.188.07.25 0c1.536-1.051 2.121-2.893 2.594-4.625.883-3.236 1.144-6.602 1.844-9.875.385-1.804.851-3.632 1.625-5.313 1.618-3.515 4.403-6.267 7.125-8.937.117-.086.148-.258.062-.375s-.258-.148-.375-.063zm-42.563-39.594c-.496-.14-.985.161-1.125.657s.129 1.016.625 1.156c2.048.792 4.17 1.231 6.312 1.687l9.281 2.094c11.122 2.363 22.283 4.382 33.313 7.156a181.98 181.98 0 0 1 9.406 2.626c.872.269 1.721.61 2.594.874 1.336.405 2.568.761 3.844 1.344.156.06.314-.031.375-.187s0-.315-.156-.375c-1.745-.555-3.337-1.428-5.063-2.032-3.529-1.233-7.091-2.348-10.687-3.374-3.666-1.047-7.387-1.902-11.094-2.782l-23.532-5.218c-2.626-.597-5.256-1.187-7.843-1.938-2.075-.602-4.123-1.292-6.25-1.688zm4.157 90.658c-1.132-.192-2.303-.075-3.437.031-1.756.165-3.492.492-5.219.844-5.339 1.087-10.598 2.476-15.75 4.25a92.78 92.78 0 0 0-3.688 1.344c-.789.309-1.556.718-2.343 1.031-.732.29-1.51.515-2 1.187-.606.83-.622 2.138-.469 3.094.065.409.24 1.04.437 1.406.288.536.534.724.969 1.125 1.479 1.365 3.522 1.052 5.375.938.941-.058 1.873-.02 2.812-.094.829-.065 1.669-.128 2.5-.156 1.308-.044 2.575-.172 3.876-.313l4.937-.5c1.965-.16 3.909-.324 5.844-.718.572-.08.986-.616.906-1.188s-.615-.986-1.187-.906c-2.347.173-4.642.672-6.969 1-1.665.234-3.329.417-5 .594l-5.594.656c-1.59.171-3.18.268-4.781.218-.515-.015-1.331-.072-1.688-.531-.384-.494-.615-1.202-.718-1.812-.074-.435-.144-1.33.218-1.719.161-.173.431-.325.625-.469.712-.527 1.491-.829 2.313-1.156 1.374-.546 2.729-1.103 4.125-1.594 5.511-1.939 11.246-3.706 17.031-4.593 1.393-.214 2.814-.417 4.219-.532.975-.079 1.981-.167 2.937.094 2.847.778 3.783 4.142 5.188 6.375.286.455.611.876 1 1.25.692.667 1.457 1.133 1.937 2 .751 1.355.674 2.929.969 4.406.516 2.579 1.636 5.133 1.562 7.813-.045 1.637-.408 3.137-.781 4.718-.222.942-.418 1.879-.5 2.844-.168 1.99-.144 4.484-2.343 5.375-.428.173-.858.184-1.313.219-.327.053-.553.36-.5.688a.6.6 0 0 0 .687.5c.681-.164 1.419-.339 2.032-.688 2.363-1.345 2.351-3.65 2.562-6 .082-.908.284-1.781.532-2.656.469-1.659.823-3.235.874-4.969.082-2.754-.971-5.41-1.406-8.094-.27-1.666-.216-3.344-1.031-4.875s-2.398-2.32-3.344-3.75c-1.805-2.729-2.696-6.06-6.406-6.687z"/><path d="M183.251 203.689c-2.442.072-4.783.574-7.188.937-1.473.222-2.922.295-4.406.406-1.341.101-3.789-.026-4.906.813-.76.571-1.004 2.485-.156 3.062.938.639 2.942.672 4.031.75 4.425.319 8.88.319 13.313.344l4.468-.031c1.866.004 3.663.038 5.5-.313.339-.016.579-.317.563-.656a.58.58 0 0 0-.625-.562c-2.325-.213-4.642.108-6.969.187-4.679.159-9.354.264-14.031.063-.876-.038-1.752-.082-2.625-.157-.54-.046-1.06-.066-1.594-.156-.37-.063-.945-.129-1.281-.344-.024-.701-.21-1.052.687-1.312 1.583-.46 3.314-.309 4.938-.531 1.336-.184 2.659-.459 3.969-.782 2.108-.519 4.251-.928 6.374-1.375.099-.011.168-.089.157-.187s-.121-.168-.219-.156z"/><path d="M182.468 193.531c-.811.155-1.575.474-2.375.688l-5.969 1.531-.969.25-1.375.312c-.144-.088-1.611.187-1.812.219-1.707.275-3.487.743-4.938 1.719-2.648 1.782-2.167 4.3-.437 6.562.372.487.825 1.208 1.406 1.469.274.124.581.125.875.188.116.108.298.116.406 0s.116-.298 0-.407c-.076-.282-.126-.578-.25-.843-.247-.529-.822-.959-1.187-1.407-.594-.726-1.304-1.796-1.219-2.781.16-1.867 2.573-2.55 4.063-2.937 1.086-.283 2.184-.406 3.281-.594 2.224-.381 4.504-1.136 6.656-1.812l2.75-1c.515-.218.939-.354 1.313-.782.101-.06.122-.211.062-.312s-.18-.123-.281-.063z"/><path d="M170.125 185.812c-3.009 1.109-7.574 2.722-8.781 6-.958 2.604 1.985 5.731 4.312 6.282 1.295.306 2.446.004 3.563-.656.082-.024.117-.137.093-.219s-.187-.094-.187-.094h-.687s-.395.006-.594 0c-.65-.021-1.222-.084-1.844-.281-1.466-.465-3.996-2.669-3.281-4.5.723-1.855 3.08-2.92 4.75-3.656.662-.293 1.346-.549 2.031-.782.194-.066.594-.187.594-.187l.625-.188s.721-.677.562-1.156-.677-.721-1.156-.563zm7.281-17.124c-1.402-.147-2.818-.074-4.125.374-2.129.731-3.666 2.46-5.281 3.938l-4.375 3.812c-.215.148-.272.441-.125.657a.47.47 0 0 0 .656.125c2.587-1.201 4.726-3.229 6.906-5.032 1.238-1.022 2.827-2.302 4.532-2.281.545.007 1.102.22 1.625.344l4.375 1.187c1.329.424 2.496 1.011 3.656 1.782.407.262.956.156 1.219-.25s.156-.957-.25-1.219c-1.495-.938-3.096-1.81-4.75-2.437-1.256-.477-2.66-.854-4.063-1zm114.313 28.843a.31.31 0 0 0-.375.219c-.578 1.314-1.119 2.738-1.969 3.906-.755 1.038-1.787 1.877-2.625 2.844-.78.9-1.352 1.926-2.406 2.531-.878.504-1.895.754-2.875.969-2.636.579-5.282.624-7.969.656l-10.688.188c-2.941.033-5.871-.028-8.812-.032-3.789-.004-7.588.053-11.375-.062l-9.687-.312-18.438-.282c-4.503-.083-9.001-.279-13.5-.5-1.487-.073-2.979-.153-4.469-.156-.314-.001-.658-.046-.969 0-.516.077-1.175.401-1.656.594a.56.56 0 0 0-.594.5.53.53 0 0 0 .5.562c.489.276 1.076.636 1.626.782.952.252 2.086.205 3.062.25l3.688.124 14 .219 16.718.188 15.5-.25 14.438-.25c3.572-.052 7.15-.041 10.718-.25 1.424-.084 2.832-.227 4.25-.375 2.509-.263 5.266-.582 7.376-2.094.667-.478 1.111-1.112 1.656-1.719.558-.622 1.191-1.19 1.781-1.781 1.243-1.245 2.592-2.665 3.094-4.406.154-.537.17-1.136.219-1.688a.31.31 0 0 0-.219-.375zm-52.876-33.187c-1.804.115-3.591.542-5.156 1.437-.242.094-.345.384-.25.625s.352.345.593.25c1.175-.262 2.297-.616 3.5-.75 2.081-.231 4.317-.06 6.375.282 1.495.247 2.96.687 4.406 1.124 4.592 1.389 8.977 3.402 13.594 4.719 2.474.706 4.955.916 7.5 1.094.145.003.248-.105.25-.25s-.105-.279-.25-.281c-2.971.097-5.947-.925-8.718-1.875-5.536-1.899-10.752-4.643-16.5-5.907-1.71-.375-3.54-.583-5.344-.468zm-103.624-2.405c-1.225-.11-2.447-.048-3.562.343-1.008.354-1.77 1.133-2.595 1.781l-4.218 3.438c-3.887 3.343-7.627 6.841-11.249 10.469-3.165 3.169-6.209 6.454-9.063 9.906-.705.854-1.334 1.729-1.937 2.656-.627.964-1.1 1.489-1.283 2.657v.031c1.247-.818 2.095-2.197 3.033-3.344a123.17 123.17 0 0 1 4.656-5.375c4.826-5.253 10.01-10.181 15.406-14.844 1.62-1.4 3.279-2.748 4.969-4.062 1.013-.788 2.075-1.746 3.375-2 1.526-.299 3.158.005 4.656.281 2.642.487 5.154 1.399 7.625 2.437.893.376 1.755.761 2.625 1.188 1.009.495 1.601.824 2.032 2.156.491 1.522-.351 3.114-.782 4.532-.763 2.51-1.148 5.139-2.188 7.562-.532 1.238-1.309 2.598-2.78 2.781-2.622.326-2.69-3.752-2.595-5.406.026-.453.107-1.252.157-1.719s.286-1.341.031-1.781c-.104-.18-.302-.252-.47-.375-.209-.154-.574-.214-.811-.312-.382-.159-.769-.354-1.157-.5-1.72-.648-3.433-1.268-5.187-1.813-.936-.291-1.662-.491-2.625-.25-.278-.057-.537.128-.593.406s.126.537.405.594c.994.805 2.032 1.009 3.25 1.406 1.066.348 2.131.72 3.188 1.094.703.249 1.417.46 2.125.687.005.002.108.034.187.063-.028.201-.074.388-.093.594-.089.983-.094 1.95-.062 2.937.099 3.098.963 5.976 4.562 6.094 2.902.095 4.225-3.724 4.875-5.938l.406-1.468.375-1.5.5-2.032c.417-1.493 1.324-3.027 1.062-4.624-.091-.555-.162-1.002-.343-1.532-.842-2.456-2.572-2.831-4.782-3.781a69.15 69.15 0 0 0-2.562-1.031c-1.649-.633-3.338-1.183-5.031-1.688-1.087-.324-2.308-.609-3.532-.718z"/><path d="M104.045 165.55c9.133 3.046 36.8 9.867 36.8 9.867l-.783 4.327-37.503-8.477c-1.703-.368-1.084-6.574 1.486-5.717zm43.814 16.283l7.284 1.733 1.256-2.125 2.078-1.522-9.478-2.71-1.14 4.624z"/><path d="M135.844 177.375c-.314.299-.33.811-.032 1.125l2.938 3.75c.967 1.393 1.72 2.926 2.594 4.375l2.25 3.469c1.089 2.084 1.427 4.427 1.5 6.75.031.979.024 1.961-.063 2.937a15.93 15.93 0 0 1-.25 1.781c-.088.434-.237.805-.375 1.219-.03.09-.047.217-.062.313-.005.029.086.075.062.094-.268.21-.677.249-1 .312l-.656.125-.719.063-.75.062c-.725.034-1.574-.048-2.219-.406-.679-.378-.651-1.024-.843-1.719l-.25-.844c-.438-1.566-.861-3.104-1.531-4.593-.871-1.936-1.987-3.766-3.376-5.376-1.672-1.938-3.615-3.645-5.406-5.468-.085-.076-.205-.086-.281 0s-.054.236.031.312c3.604 2.786 6.662 6.567 8.375 10.813.58 1.437 1.123 2.973 1.407 4.5.286 1.543.105 2.677 1.687 3.437.967.465 2.158.592 3.219.594.761.002 2.386-.046 3.125-.438.956-.507 1.199-1.627 1.406-2.593.361-1.688.48-3.498.406-5.219-.108-2.54-.594-5.248-1.75-7.531-.638-1.261-1.533-2.375-2.25-3.594-1.271-2.162-2.555-4.461-4.187-6.375-.686-.805-1.123-1.131-1.906-1.844-.299-.314-.78-.33-1.094-.031z"/><path d="M132.125 189.939c-.14.056-.212.203-.156.343.291 1.613 1.118 3.137 1.656 4.688.68 1.959 1.08 4.085.906 6.156-.131 1.56-.325 3.114-.75 4.625l-.375 1.25c-.002.01.003.022 0 .031-.083.002-.166-.001-.25 0h-1.25l-2.5-.187c-.601.01-1.153.234-1.75.312-.318.042-1.003.048-1.437.063.057-.706.256-1.406.406-2.094.209-.958.347-2.021.25-3-.223-2.251-1.737-4.224-2.875-6.094-.608-1-1.59-2.628-2.75-3.093-.103-.058-.224-.041-.281.062s-.041.255.062.312c1.974 1.512 3.261 3.763 4.313 5.969.394.828.741 1.579.812 2.5.12 1.543-.148 3.005-.5 4.5-.094.399-.41 1.254.063 1.563.361.236 1.464.059 1.906.125.593.088 1.182.317 1.781.343.291.013.584-.02.875-.031h2.844c.141.008.653.116.781.031.231-.151.463-.271.656-.468.029-.029.168-.881.188-.969l.719-2.937c.579-2.913.205-6.511-.781-9.344-.313-.896-.757-1.707-1.157-2.563-.322-.69-.64-1.301-1.062-1.937-.056-.14-.204-.212-.344-.156z"/><path d="M1.218 197.095c-.302.185-.404.573-.219.875.599 1.124.955 2.387 1.437 3.562.882 2.147 2.114 4.588 4.063 5.969 1.296.918 2.793.937 4.312 1.062l6.344.376c7.982.295 15.982.382 23.969.343l37.656-.031 54.5-.312c.635-.001 1.126-.491 1.125-1.126s-.49-1.156-1.125-1.156l-90.656 1.063c-8.48-.021-16.959.001-25.438-.157-2.288-.042-4.592-.052-6.875-.218-1.114-.081-2.207-.121-3.156-.782-1.202-.835-1.858-2.125-2.406-3.437-.818-1.958-1.437-4.051-2.656-5.813-.186-.302-.573-.404-.875-.218z"/><path d="M116.563 202.5c-.313.107-.374.75-.374.75l.156.469.094.469-.032.5-.656 2.843-.156.594s-.253.384-.125.594.593.156.593.156l.75.031s.559-.071.782-.218c.329-.218.585-.868.687-1.219.29-.994.075-2.123-.312-3.063-.075-.18-.203-.352-.281-.531-.074-.169-.188-.531-.188-.531l-.188-.469s-.436-.482-.75-.375zm-84.094-40.156c-6.43-.39-12.99.498-18.406 4.125-2.701 1.808-5.078 4.317-6.938 6.969-1.066 1.52-2.059 3.129-2.781 4.843-.811 1.924-1.368 4.004-1.969 6-.503 1.67-1.054 3.372-1.344 5.094-.212 1.264-.156 2.569-.281 3.844-.065.665-.214 1.308-.312 1.969-.048.33.2.639.531.687s.639-.169.687-.5c.094-.657.138-1.321.281-1.969.27-1.224.751-2.41 1.063-3.625.685-2.67 1.209-5.299 2.313-7.843.562-1.298 1.225-2.558 1.875-3.813 1.282-2.474 2.83-4.979 4.875-6.906 8.081-7.612 20.129-7.133 30.281-5.157 2.726.531 5.478 1.072 8.156 1.813 4.246 1.176 8.404 2.611 12.594 3.969l17.094 5.5a195 195 0 0 0 11.063 3.125c3.015.754 6.124 1.456 9.219 1.781 1.646.173 3.313.335 4.969.344 1.577.008 3.173-.117 4.75-.156.33-.023.585-.295.562-.626a.62.62 0 0 0-.656-.562c-3.579.405-7.18-.125-10.719-.656-4.94-.742-9.78-1.947-14.562-3.375-7.605-2.272-15.016-5.149-22.531-7.688-4.19-1.415-8.4-2.644-12.656-3.843-3.578-1.009-7.147-1.955-10.812-2.594a57.19 57.19 0 0 0-6.344-.75z"/><path d="M82.781 158.781c-.231-.08-.482.02-.562.25-1.342 2.461-1.996 5.341-2.625 8.063-.637 2.758-1.289 5.483-1.5 8.312a1.05 1.05 0 0 0 .937 1.156c.581.063 1.125-.356 1.188-.937l.969-8.219L82.406 162l.656-2.656c.08-.231-.05-.482-.281-.563zm1.845-6.249c-.136.071-.165.24-.094.375.261.743.602 1.445.938 2.156l1.469 3.438c.815 1.521 1.826 2.695 2.969 3.969l.813.937c.277.297.518.683.875.875.404.217.868.201 1.312.313.076.076.206.075.282 0s.075-.174 0-.25c-.101-.437-.092-.907-.282-1.313-.162-.346-.503-.613-.75-.906l-1.406-1.844c-.899-1.32-1.899-2.597-2.937-3.812l-1.531-1.844-1.281-1.969c-.071-.136-.239-.196-.375-.125zm-12.283-39.781c-.17-.168-.426-.138-.594.031a.41.41 0 0 0 0 .594c2.838 2.912 4.797 6.33 6.5 10 2.371 5.11 3.711 10.518 4.438 16.094a45.43 45.43 0 0 1 .375 4.687c.025.963-.108 1.915-.031 2.875.038.47.158.944.25 1.407-.005.082.074.15.156.156s.151-.074.156-.156c.153-.454.388-.873.469-1.344.082-.479.034-.983.031-1.469-.005-1.02-.068-2.044-.125-3.063a54.2 54.2 0 0 0-.469-4.843c-.498-3.393-1.382-6.741-2.437-10-1.862-5.751-4.294-10.751-8.719-14.969zm7.532-6.282a.69.69 0 0 0-.281.937c1.472 4.523 3.664 8.806 5.187 13.313 1.471 4.35 2.411 9.296 2.5 13.906.041 2.128-.205 4.201-.625 6.281-.299 1.483-.547 2.734-1.469 3.969-.157.292-.042.655.25.813s.655.042.813-.25c.614-1.678 1.507-3.242 1.875-5 .34-1.623.463-3.284.5-4.938.118-5.201-.899-10.249-2.125-15.281-1.16-4.761-2.586-9.571-5.687-13.469a.69.69 0 0 0-.937-.281zm35-23.187c-16.524 1.93-32.873 5.404-48.719 10.5a149.81 149.81 0 0 0-15.219 5.813c-2.645 1.181-5.384 2.453-7.781 4.094-3.475 2.378-5.569 6.136-7.406 9.812-2.311 4.624-4.336 9.379-6.656 14-2.409 4.798-5.302 9.352-8.031 13.969-4.363 7.381-8.655 14.801-12.188 22.625-2.796 6.192-5.15 12.635-5.812 19.437-.02.207.137.387.344.407s.386-.137.406-.344c.886-9.341 4.912-18.133 9.406-26.25 2.471-4.463 5.081-8.809 7.75-13.156 3.421-5.573 6.944-11.074 10.031-16.844 2.28-4.26 4.235-8.671 6.438-12.969 1.706-3.331 3.726-6.786 6.906-8.906 1.962-1.308 4.209-2.236 6.344-3.219 5.26-2.422 10.712-4.35 16.219-6.125 10.364-3.341 20.983-5.899 31.688-7.875 5.502-1.015 11.007-1.957 16.562-2.625.652-.077 1.109-.661 1.032-1.313s-.661-1.108-1.313-1.031zm34.094 59.125c-.596.029-1.022.675-1.5 1.032-1.02.759-1.957 1.627-2.938 2.437l-8.843 7.375-1.969 1.656c-.405.374-.964.653-1.188 1.156-.255.575-.121 1.247-.156 1.876l-.094 4.75c0 .543.676.81 1.219.811s.75-.268.75-.811l-.094-4.75c-.029-.431-.298-.874-.156-1.282.101-.29.533-.288.781-.468 1.031-.748 1.99-1.657 2.969-2.469l7.875-6.531 2.937-2.469c.19-.186.205-.61.469-.625s.381.4.594.562c.684.519 1.432.913 2.156 1.375l7.563 4.938 5.375 3.531c.272.163.723.144.843.438.214.521.017 1.124.032 1.687l.062 1.937.313 9.594.062 1.594c-.019.014-.043.017-.062.031l-.5.375-.907.656-2.468 1.938-5.219 3.875c-1.239.987-2.502 1.979-3.875 2.781-.181.086-.242.319-.156.5s.287.242.468.156c1.013-.379 1.923-.939 2.844-1.5 2.842-1.729 5.487-3.718 8.125-5.75l1.125-.906c.344-.273 1.863-1.272 1.906-1.875.047-.639-.044-1.296-.062-1.937l-.312-7.656-.094-3.844c-.03-.716.168-1.503-.125-2.156-.223-.497-.872-.681-1.313-1l-1.062-.719-6.406-4.313-6.344-4.375-1.063-.75c-.51-.311-.965-.904-1.562-.875z"/><path d="M168.782 167.969c-.591.076-1.135.421-1.593.781-.125.098-.268.196-.376.312-.113.123-.281.407-.281.407l-.469.281s-.32.544-.124.812.843.157.843.157l.407-.375s.347-.127.5-.219c.128-.077.225-.189.343-.281C168.838 169.215 171 171 171 171s.5-1 .97-1.312c.164-.043-.26-.251-.375-.376-.242-.261-.32-.429-.594-.656-.451-.372-1.623-.764-2.219-.687zm-15.781 12.25a17.89 17.89 0 0 0-2.625 2.156c-.321.318-.769.549-.937.969s-.012.896 0 1.344l.187 3.343.5 9.969c.044 1.082-.053 2.275.125 3.344.02.121.116.212.188.312.16.224.59.412.812.563l2.25 1.437c2.16 1.364 4.323 2.803 6.688 3.782.115.059.252-.01.312-.126s.022-.252-.094-.312l-7.375-4.5-1.562-1.094-.375-.281c-.02-.014-.034-.004-.063-.031.011-.303-.021-.602-.031-.906l-.094-3.344-.25-8.875-.062-3.313c-.015-.292-.2-.602-.094-.875s.445-.413.656-.625l.782-.812c.515-.554.979-1.157 1.406-1.782.099-.098.098-.244 0-.343s-.245-.099-.344 0zM146.656 185c-.052.004-.098.041-.094.094l-.093 5.218-.438 7.938c-.004.271.229.496.5.5a.48.48 0 0 0 .5-.469l-.093-7.969c0-1.737.16-3.506-.188-5.218-.004-.053-.041-.098-.094-.094zm-1.561 17.562c-3.319 1.977-2.668 1.184-3.469 2.032l-1.563.656c-.441.232-1.72 1.048-1.281.812 2.112-1.132.027.007-.937.844-.18.144-.238.383-.094.563s.414.206.594.062l3.718-1.969c.888-.478-1.818.897-2.75 1.282-.43.177.842-.432 1.25-.656l3.344-1.876 1.188-.656c.101-.044.407-.148.312-.094-2.341 1.353.024.005.375 0 .272-.189.315-.571.125-.843s-.54-.346-.812-.157zm-.125.313c.091-.044-.11.184-.188.25-.161.136-.378.211-.562.313a9.78 9.78 0 0 1-.907.437l1.657-1zm-2.095-50.094c-.811.276-1.681 1.611-2.281 2.219-.332.337-.302.266-.656.594l-.344.344s.004-.001-.5.218c-.252.216-.31.592-.094.844s.875.062.875.062l.281-.468.375-.344.657-.688c.382-.423 1.195-1.706 1.812-1.75.299-.021 2.518 2.456 2.812 2.782.603-.137.352-.913.688-1.094.158-.085-.937-1.404-1.062-1.531l-.344-.344c-.597-.565-1.341-1.143-2.219-.844z"/><path d="M149.188 149.001c-2.124.495-2.458 3.729-2.876 5.406-.174.701-.346 1.455-.624 2.125-.057.137-.142.281-.219.407s-.25.343-.25.343.147.182.281.218c.243.065.562-.311.562-.311l.407-.813c.26-.556.444-1.165.625-1.75.372-1.204.544-2.462 1.125-3.594.148-.288.451-.672.781-.75.28-.066.25.406.438.625.564.66.945 1.609 1.25 2.406l.25.75.218.719.188.688c.034.117.075.221.125.343.531.187 1.794 0 2.031-.468.175-.079-.12-.352-.188-.532l-.531-1.406-.625-1.562c-.483-1.179-1.352-3.221-2.968-2.844z"/><path d="M154.843 152c-1.048-.167-1.855.147-2.532.969l-.343.437-.312.532-.218.624s.043.836.436 1 1-.406 1-.406l.25-.531.187-.406c.159-.286.724-.973 1.095-1 1.008-.074 2.375 1.207 3 1.812l.655.688c.064.073.325.677.439.781.511.038.688.035 1 0 .319-.035-.713-.962-.907-1.219l-.594-.781c-.781-.997-1.807-2.286-3.156-2.5zM152.188.157c-4.836-.146-9.713.133-14.532.5-2.65.202-5.247.462-7.875.875-1.935.304-3.852.669-5.687 1.375-3.584 1.379-6.597 3.635-9.156 6.469-.869.961-1.621 1.989-2.344 3.062-.266.395-.512.807-.75 1.219-.065.113-.126.23-.188.344-.02.037-.089.157-.062.125a12.16 12.16 0 0 0-1.563 2.656c-.923 2.168-1.364 4.469-1.75 6.781-.481 2.886-.824 5.766-1 8.688-.258 4.299-.366 8.663-.187 12.969.009.237.201.415.437.406a.42.42 0 0 0 .407-.437c-.185-5.435.018-10.906.562-16.313.398-3.952.984-7.988 2.594-11.656.394-.897.884-1.687 1.468-2.469.639-.854 1.126-1.832 1.782-2.687 2.883-3.76 6.811-6.939 11.406-8.281 2.911-.85 6.01-.91 9-1.312 9.238-1.243 19.065-1.304 28.219.625 5.26 1.108 10.858 2.944 14.875 6.687 3.017 2.813 4.981 6.897 6.218 10.75 1.622 5.048 2.299 10.38 2.907 15.625.242 2.094.31 4.222.593 6.313.017.244.225.423.469.406s.455-.225.438-.469c-.007-2.118-.225-4.231-.344-6.344-.246-4.353-.683-8.674-1.625-12.938-1.043-4.719-2.678-9.405-5.938-13.062-3.606-4.047-8.904-6.435-14.031-7.875C161.827.867 157.023.303 152.188.157z"/><path d="M188.094 42.281c-.644-.094-1.369.068-2.032.344-2.533 1.056-4.437 3.643-5.656 6-.566 1.095-1.09 2.243-1.5 3.406l-.312.969-.063 1.063s.132.8.531.906.907-.531.907-.531l.437-.937.282-.906.25-.875c.566-1.685 1.377-3.347 2.437-4.781.871-1.18 1.993-2.298 3.313-2.969.509-.259 1.396-.65 1.687.062.593 1.451.23 3.405.031 4.875-.28 2.069-.865 4.082-1.281 6.125l-.687 4.031-.25 1.25c-.29 1.072-.568 3.27-2.126 2.281-.131-.084-.324-.242-.437-.344l-.469-.437-.281-.312s-.398-.176-.563-.031c-.136.121-.107.312-.031.469l.25.406c.146.279.513.579.75.781 1.005.855 2.16 1.196 3-.094 1.211-1.858 1.304-4.313 1.719-6.437l.281-1.313c.198-.812.523-1.602.75-2.406.558-1.97.94-4.05 1.063-6.094.063-1.051.016-2.34-.438-3.312-.349-.748-.918-1.093-1.562-1.188z"/><path d="M178.906 52.031a.69.69 0 0 0-.687.688l.469 1.187c0 .111.108.219.218.219s.188-.108.188-.219l.5-1.187a.69.69 0 0 0-.688-.688z"/><path d="M166.938 26.5c-.22-.14-.517-.063-.657.156s-.063.516.157.656c.682.966 1.643 1.547 2.562 2.281 1.34 1.07 2.613 2.244 3.594 3.656 2.75 3.959 3.575 8.745 4.5 13.375.363 1.819.842 3.597 1.094 5.438.063.326.393.532.718.469s.532-.393.469-.719c-.558-2.203-.706-4.446-1.063-6.687-.593-3.729-1.261-7.612-3.156-10.937-.757-1.328-1.732-2.582-2.75-3.719a19.79 19.79 0 0 0-3.437-3.031c-.246-.171-.968-.678-1.25-.781-.254-.093-.516-.105-.781-.156zm-27.562-2.374a4.5 4.5 0 0 0-1.906.469.204.204 0 1 0 .031.406c1.666.53 3.374.635 4.938 1.5 1.753.97 3.909 3.265 6.093 3.094 2.55-.2 4.367-2.213 6.625-3.156.742-.31 1.516-.436 2.313-.5.231-.009.415-.206.406-.437s-.206-.415-.437-.406c-2.119-.005-3.919.815-5.688 1.906-1.009.622-2.2 1.81-3.5 1.563-1.39-.264-2.494-1.352-3.562-2.187-1.529-1.195-3.402-2.29-5.313-2.25zm-30.439 20.031c-.763.105-1.494.378-1.938.844-.299.315-.414.805-.469 1.219-.353 2.676.318 5.425.813 8.031l1.625 7.5c.316 1.149.716 2.655 1.719 3.438 1.551 1.211 3.615-.035 4.624-1.344.189-.176.207-.468.032-.656s-.656-.031-.656-.031l-.344.219-.282.219-.75.531c-.341.22-.73.445-1.156.375-.493-.081-.906-.754-1.094-1.156l-.374-.906c-.127-.349-.214-.704-.313-1.062l-.937-3.844-1.626-7.031c-.228-1.384-.666-3.029-.374-4.437.124-.598.564-.736 1.124-.937.844-.302 1.734-.325 2.532.125 1.212.684 2.01 1.996 2.75 3.125l1.625 2.656.469.781.437.813.531.875s.201.156.313.094a.27.27 0 0 0 .093-.344L114.437 48c-.825-1.365-1.869-2.944-3.376-3.625-.566-.256-1.362-.323-2.124-.219z"/><path d="M118.782 41.375c-.08-.012-.175.045-.187.125-.779 3.847-2.203 7.801-1.594 11.781.004.142.139.254.281.25s.254-.139.25-.281c.099-1.021.059-2.042.188-3.062.261-2.06.718-4.095.969-6.156.099-.822.13-1.646.218-2.469.013-.08-.045-.175-.125-.187zm22.437 33.063c-.016.017-.017.047 0 .063.142.29.247.614.437.875.411.563 1.195 1.081 1.75 1.5.925.698 1.801 1.431 2.969 1.656 2.444.471 5.344-1.635 6.469-3.625.112-.099.129-.263.031-.375s-.294-.13-.406-.031a8.96 8.96 0 0 0-1.813.969c-.973.678-1.79 1.682-3.031 1.875-.748.117-1.467-.248-2.156-.469-.341-.109-.694-.221-1-.406-.582-.352-1.126-.765-1.657-1.188-.212-.169-.387-.37-.624-.5-.282-.153-.606-.235-.907-.344-.017-.015-.047-.017-.062 0zm42.626-10.719c-.739.062-1.334.897-1.688 1.531-.414.744-.702 1.554-1.094 2.313l-2.374 4.688c-2.023 4.218-4.63 8.097-7.657 11.656-1.019 1.199-2.106 2.357-3.187 3.5-.383.405-.79.799-1.188 1.188l-.125.125c-.196-.072-.373-.169-.562-.25-.974-.417-1.869-.749-2.907-.969a.534.534 0 0 0-.374 1c.919.529 1.81.847 2.812 1.188.327.111.625.308.969.343.688.07 1.181-.684 1.562-1.125.758-.875 1.585-1.687 2.344-2.562a69.37 69.37 0 0 0 6.063-8.125c1.132-1.778 2.134-3.631 3.218-5.438 1.122-1.869 1.939-4.003 3.25-5.75.201-.267.441-.497.656-.75.108.548.224 1.092.25 1.656.202 4.331-1.494 8.395-3.374 12.188-1.735 3.499-4.155 6.694-6.719 9.625-3.942 4.506-8.407 8.581-13.375 11.938-4.316 2.914-8.815 5.746-14.188 5.75a.73.73 0 0 0-.781.656c-.035.391.233.746.625.781 3.936.681 8.432-1.863 11.75-3.687 4.291-2.36 8.143-5.387 11.75-8.688 4.928-4.51 9.353-9.629 12.781-15.375 2.337-3.916 3.928-8.718 3.5-13.312-.091-.978-.249-3.249-1.156-3.875-.275-.19-.535-.239-.781-.219z"/><path d="M112.156 66.345c-.206-.08-.451.012-.531.219-.817 1.353-1.024 3.057-1.063 4.625-.107 4.357 2.09 8.694 4.313 12.313 2.787 4.536 6.373 8.503 10 12.375l3.656 3.906c1.101 1.217 2.121 2.466 3.407 3.5 3.587 2.887 8.678 4.839 13.218 5.625.386.065.748-.177.813-.562s-.177-.748-.563-.813c-4.474-.727-9.061-2.503-12.625-5.312-1.593-1.256-2.869-2.866-4.25-4.344a197.41 197.41 0 0 1-6.187-6.937c-1.629-1.918-3.172-3.906-4.656-5.938-2.957-4.048-5.701-8.68-5.938-13.812-.071-1.53.35-2.837.625-4.312.08-.206-.013-.452-.219-.531z"/><path d="M113.375 65.594c-.516-.116-1.086-.048-1.687.344-.426.172-.61.668-.438 1.094s.637.641 1.062.469c.453-.009.162.014.438.156.109.056.266.04.375.094.345.171.585.442.875.688.984.831 1.675 1.887 2.375 2.969l.813 1.344 2.624 4.469 2.876 4.375 4.562 6.218c.39.5 1.178 1.894 1.812 2.126.273.099.797-.056 1.063-.094 1.672-.238 2.712-.786 3.531-2.313.106-.107.107-.301 0-.406a.3.3 0 0 0-.406 0c-.88.46-1.804.83-2.719 1.219-.331.141-.649.285-1 .375-.043.011-.058.031-.125.031l-.281-.344-1.094-1.25-2.719-3.5c-1.327-1.723-2.586-3.544-3.656-5.437l-3.312-6.125-.782-1.406-.718-1.281c-.75-1.288-1.92-3.464-3.469-3.812z"/><path d="M133.905 86.939a.38.38 0 0 0-.531.031.38.38 0 0 0 .031.531c.4.722 1.127 1.059 1.656 1.656.134.151.18.349.313.5 1.365 1.558 2.949 2.96 4.375 4.469l.656.719.282.312.5.563c.017.021.125.216.156.219.259.018.557.131.781 0 .503-.295.843-.801 1.25-1.219l2.406-2.531c.357-.376.578-.944 1.063-1.126.23-.086.315.4.5.563.263.233.573.4.844.625l3.937 3.469c.273.227.529.522.844.687.432.228 1.162-.566 1.437-.781l.688-.563c1.61-1.148 3.097-2.316 4.5-3.718.717-.717 1.472-1.43 1.937-2.344.105-.146.084-.333-.062-.438s-.365-.083-.469.063l-1.969 2.094-3.593 3.093-2 1.688c-.123.095-.167.158-.25.219l-.594-.531-.782-.688-3.281-2.656c-.266-.231-.509-.526-.781-.75-.355-.293-.642-.902-1.094-.813-.635.125-.961.874-1.437 1.313l-2.594 2.344-.875.874-.094-.093-.5-.563-1.875-2-3.093-3.312c-.152-.137-.348-.177-.5-.313-.623-.551-.978-1.263-1.782-1.593z"/><path d="M147.594 86.064l-7.656.219c-1.803.038-3.56.182-5.344-.125-.441-.009-.804.341-.813.782s.341.803.781.812c2.161-.283 4.383-.087 6.563-.188 5.381-.248 10.81-.628 16.187-.093 1.383.137 2.668.585 4.032.812.108.035.215-.016.25-.125s-.017-.215-.125-.25c-.998-.479-1.921-.676-3-.906-1.091-.233-2.142-.485-3.25-.625-2.524-.319-5.071-.356-7.625-.313z"/><path d="M145.718 78.095c-.328-.062-.626.141-.688.469s.141.657.469.719l6.188.781 3.156.5c.996.174 1.962.205 2.968.25l1.094.063c.062.006.126-.006.188 0 .017.037.015.088.031.125l.219.438.781 2.062.5 1.656.406 1.938c.095.313.253.618.344.937-.002.059.035.092.094.094s.123-.035.125-.094c.106-.319.237-.692.25-1.031.036-.935-.438-2.036-.688-2.906l-.906-3c-.079-.25-.175-.882-.406-1.063-.411-.32-1.171-.262-1.656-.344l-3.969-.5c-2.816-.106-5.729-.536-8.5-1.094z"/><path d="M145.72 78.187c-.383-.015-.775.064-1.157.063-2.737-.008-5.302.356-7.937 1.156-1.126.342-2.471.903-3.031 2.032-.347.699-.515 1.724-.438 2.5.037.369.169.727.219 1.093.104.763.122 1.483.094 2.25a.59.59 0 0 0 .593.563c.312-.009.54-.283.532-.594l-.25-3.375c-.005-.595-.11-1.067.156-1.625.457-.958 1.518-1.463 2.469-1.781a26.57 26.57 0 0 1 6.343-1.282c.733-.057 1.528-.141 2.219.188a.601.601 0 1 0 .188-1.187zm16.164-23.744l-1.565.081c-.318.015-.63.063-.945.108-1.253.182-1.302.237-2.078 1.296l-.297.378-.675.891c-.426.644-.804 1.309-.918 2.079-.015.062.019.146.081.162s.119-.019.135-.081c.437-1.156 1.054-2.329 1.998-3.158.232-.204.491-.365.728-.567.067-.057.15-.105.216-.162.01-.008.018-.019.028-.027.191-.001.477-.061.62-.081l1.89-.27c1.734-.109 3.444.022 5.129.459.207.054.282.246.432.378.551.485 1.068 1.071 1.728 1.404a.55.55 0 0 0 .782-.108c.188-.253.144-.622-.108-.81-.471-.523-1.148-1.099-1.782-1.431-.471-.246-1.277-.385-1.754-.459-1.184-.184-2.451-.143-3.645-.081zm-29.754.19l-2.199.104c-.728.026-1.449-.05-2.174.026-.313.033-.675.434-.905.595-.663.465-1.265.985-1.76 1.63-.172.249-.093.578.156.75a.53.53 0 0 0 .75-.129c.37-.606.863-1.138 1.371-1.63a3.35 3.35 0 0 1 .44-.362c.031-.021.074-.032.104-.052.681.041 1.36-.045 2.043-.052l5.46-.207.931-.052.053.078.154.233.467.673c.635.949 1.246 2.054 2.147 2.768.107.114.274.108.388 0s.133-.274.026-.388c-.646-.934-1.427-1.768-2.096-2.691-.129-.178-.55-.954-.75-1.087-.374-.247-.898-.142-1.346-.155l-3.26-.052zm24.988-.815c4.271-.66 13.161-1.658 13.161-1.658s2.162-1.379.422-2.099c-1.668-.689-13.334.381-13.334.381s.738-1.604.039-1.428-2.836 2.132-2.836 2.132-1.801 3.526-1.317 4.01c.631.634 1.299-.941 3.865-1.338zm-15.635.726c.419.012-.96-2.713-.96-2.713s-2.949-2.591-2.949-1.922c0 .252.392.776.392.776s-10.853-.992-13.68-.517.363 2.751 2.988 2.803c3.376.067 3.366-.151 7.09.264s5.54 1.263 7.119 1.309zm15.91 5.127c0-1.811 1.277-3.28 2.853-3.28s2.854 1.468 2.854 3.28-1.272 2.428-2.848 2.428-2.859-.951-2.859-2.428zm-26.149-.08c0-1.747 1.263-3.163 2.821-3.163s2.82 1.416 2.82 3.163-1.029 2.295-2.588 2.295-3.053-.548-3.053-2.295zm44.225 29.566c-.411.073-.625.875-.625.875l.218.688.094.75c.032.632-.014 1.33-.031 1.969-.003.122-.013.253-.031.374-.017.115-.094.344-.094.344l-.094.313s.088.656.406.75.75-.407.75-.407l.063-.374.125-.407.188-.843c.108-.598.033-1.182 0-1.782l-.032-.875s-.001-.004-.062-.781c-.073-.411-.464-.666-.875-.594zm-55.313.053c-.643-.038-1.218 1.094-1.218 1.094l-.032 1.25.094 1.344c.099.886.202 1.816.5 2.656.15.422.594 1.188.594 1.188l.594 1.125s.221.23.374.187.231-.19.188-.344v-1.874l.031-.626c-.003-.135-.022-.271-.031-.406-.002-.031.002-.063 0-.094l-.156-1.937.031-1.156.125-1.188s-.451-1.18-1.094-1.219zm10.969 117.916c-.477-.007-.868.366-.875.844s.366.868.844.875c4.525.318 9.09.157 13.625.187l12.093.157c2.266.034 4.522.158 6.782.312 2.774.189 5.454.36 8.218-.031.196.009.335-.148.344-.344s-.117-.366-.312-.375c-4.852-1.159-10.005-.639-14.969-.875l-15.563-.625c-3.392-.116-6.794-.262-10.187-.125z"/></g><g fill="#a59fab"><path d="M172.898 95.406l-11.427 16.559 5.292 11.766 13.396-6.661s8.292-4.563 6.477-9.979-13.738-11.685-13.738-11.685zm-45.144 13.189c-1.1-6.476-6.982-7.872-11.918-6.95s-7.828 10.641-7.828 10.641l.788 4.25c1.842 3.508 7.989 11.829 12.181 11.045 4.937-.922 7.877-12.51 6.777-18.986z"/></g><g class="B"><path d="M109.701 106.733s2.133-6.046 4.215-7.69 5.077-3.346 7.828-2.54 5.079 1.841 8.271 6.877 3.545 7.986 3.232 14.776-2.091 9.594-6.887 12.016-11.319-3.517-11.72-4.028-3.794-5.477-3.794-5.477l3.794.855s4.161 4.006 7.104 3.337 4.259-3.73 4.489-7.55c.18-3.004-1.995-9.057-1.995-9.057s-2.593-5.133-5.173-5.844-5.149 2.999-5.149 2.999c-2.341 1.081-4.215 1.326-4.215 1.326z"/><path d="M113.687 104.689c-.317.044-.633.058-.938.156-.563.18-1.034.524-1.531.844-.675.433-1.319.952-1.875 1.531-3.181 3.308-3.387 8.607-.25 12 2.893 3.129 8.366 4.112 11.125.281.08-.066.066-.17 0-.25s-.17-.097-.25-.031c-1.683.754-3.341 1.639-5.25 1.469-3.968-.354-6.856-5.078-5.844-8.813.444-1.637 1.614-2.954 2.937-3.969.841-.644 1.75-1.062 2.532-1.781.391-.181.587-.64.406-1.031s-.671-.587-1.062-.406zm70.034-1.548l-3.11-1.954s-5.046-4.001-7.83-2.043c-4.844 3.405-6.238 10.6-6.238 10.6s-.984 6.069 1.928 9.389 10.381-1.9 10.381-1.9 2.997-1.573 2.465 0c-.687 2.034-5.128 7.378-7.22 7.88-3.709.892-7.287 2.409-11.663-2.792-3.309-3.932-4.682-9.518-1.75-17.16 2.938-7.659 7.787-10.802 15.139-11.219 5.974-.338 7.898 9.199 7.898 9.199z"/><path d="M187.062 109.719c-.384-.147-.822.021-.968.406-.392.929-.82 1.852-1.438 2.656-1.659 2.161-4.289 3.504-6.968 3.813-1.422.164-2.872-.046-4.282-.219-.128-.04-.273.028-.312.156s.027.273.156.313c5.424 2.763 12.317-.602 14.25-6.188.147-.384-.053-.791-.438-.937zm-2.366-5.587s2.859-6.516 1.634-12.855-3.754-11.869-3.754-11.869l-3.336 5.049 2.047 7.033c1.403 4.687-.943 8.387-.943 8.387l4.352 4.255zm-69.265-2.933s-.981-6.012.277-9.84 2.592-4.928 2.592-4.928l-2.465-3.406s-3.126.843-4.881 7.449.11 15.314.11 15.314"/><path d="M179.093 100.344c-.135.033-.228.142-.344.218-.052.005-.098.042-.094.094s.073.098.125.094c.572.31 1.239.346 1.844.656 2.118 1.088 3.951 2.875 4.937 5.063.217.481.437.977.532 1.5.124.687.025 1.271.281 1.937-.048.221.092.421.313.469s.452-.092.5-.313c.146-.171.343-.294.437-.5.374-.816-.222-2.413-.594-3.156-1.059-2.115-3.096-3.883-5.093-5.094-.752-.455-1.531-.817-2.407-.937-.139-.019-.301-.065-.437-.031z"/></g></g><defs><radialGradient id="B" cx="0" cy="0" r="1" gradientUnits="userSpaceOnUse" gradientTransform="translate(167.084 71.2079) scale(10.1244 10.1244)"><stop stop-color="#de8a75"/><stop offset="1" stop-color="#e5bca6"/></radialGradient><radialGradient id="C" cx="0" cy="0" r="1" gradientUnits="userSpaceOnUse" gradientTransform="translate(127.726 69.6454) scale(10.0643)"><stop stop-color="#de8a75"/><stop offset="1" stop-color="#e5bca6"/></radialGradient><radialGradient id="D" cx="0" cy="0" r="1" gradientUnits="userSpaceOnUse" gradientTransform="translate(177.358 187.632) scale(21.5036 21.5036)"><stop stop-color="#de8a75"/><stop offset="1" stop-color="#e5bca6"/></radialGradient><radialGradient id="E" cx="0" cy="0" r="1" gradientUnits="userSpaceOnUse" gradientTransform="translate(126.18 183.645) scale(24.4154 24.4154)"><stop stop-color="#de8a75"/><stop offset="1" stop-color="#e5bca6"/></radialGradient><clipPath id="F"><path fill="#fff" d="M0 0h295v211H0z"/></clipPath></defs></svg>