<svg width="208" height="578" viewBox="0 0 208 578" fill="none" xmlns="http://www.w3.org/2000/svg">
<g clip-path="url(#clip0_3819_2623)">
<path d="M186.99 186.68C198.15 194 194.41 230.84 193.58 243.59C193.58 250.4 193.58 259.3 198.77 270.24C204.61 281.55 214.01 313.86 200.33 301.74C200.41 301.33 195.91 318.34 191.91 315.97C190.89 320.29 185.28 320.84 184.39 315.11C184.39 315.11 180.72 315.76 179.89 311.76C179.6 310.37 176.68 310.92 175.82 308.34C173.52 301.61 174.93 297.55 174.96 291.78C174.85 292.73 169.32 266.34 174.39 265.37C174.39 265.37 172.1 257.64 159.7 232.08C151.19 214.53 158.32 189.23 158.32 189.23L186.98 186.66L186.99 186.68Z" fill="#E5BCA6"/>
<path d="M8.24143 202.35C2.03143 213.62 12.7014 250.59 18.3814 269.21C24.8614 289.62 14.6214 309.09 14.6214 309.09C14.6614 312.39 24.1114 323.76 24.1114 323.76C25.5514 324.51 34.4214 322.85 35.3814 321.54L36.1414 200.1L8.23143 202.35H8.24143Z" fill="#E5BCA6"/>
<path d="M114.681 84.2394L111.941 73.1994L117.031 67.0494L119.831 60.3394L118.921 50.8894C120.861 52.5294 121.871 49.5694 121.951 48.4694L123.131 34.8594C122.391 34.7894 122.971 23.1494 122.911 22.4994C115.241 3.79943 90.4407 5.47943 75.7907 9.75943L62.6507 35.8894C62.3307 36.9894 58.1307 55.0394 66.3607 53.8494L72.2707 70.8794V77.6094L69.3707 83.7494L71.9107 102.909C90.6107 110.309 109.431 108.309 114.681 84.2194V84.2394Z" fill="#E5BCA6"/>
<path d="M187.459 185.939C169.319 208.569 170.649 238.239 174.199 262.789C154.749 224.129 159.649 234.499 161.249 192.429L174.459 190.399L187.459 185.939Z" fill="#AB8F85"/>
<path d="M142.631 512.9L144.011 516.96C140.931 516.83 135.011 515.68 132.141 514.57L142.631 512.91V512.9Z" fill="#AB8F85"/>
<path d="M76.6514 509.41L76.4414 506.77L92.9914 503.5C92.3714 506.41 78.8814 509.58 76.6514 509.41Z" fill="#AB8F85"/>
<path d="M30.4989 203.43L25.8789 204.44L30.5189 237.95L30.4889 203.43H30.4989Z" fill="#AB8F85"/>
<path d="M30.8197 300.43C31.5597 300.57 29.5097 321.08 28.6897 321.12L23.4297 323.38C26.0097 324.88 33.5197 323.29 35.3697 321.41L30.8197 300.43Z" fill="#AB8F85"/>
<path d="M72.5312 76.7904C91.8113 97.2904 91.9713 96.7104 112.861 78.3404L112.261 72.6604C105.521 81.7504 94.0413 87.1904 82.6413 80.7604L72.5312 71.6504V76.8004V76.7904Z" fill="#AB8F85"/>
<path d="M84.5309 104.25C87.2909 96.1697 82.7909 86.0297 74.9609 82.1797L77.5309 104.4L84.5309 104.24V104.25Z" fill="#AB8F85"/>
<path d="M103.801 34.3203C103.801 34.3203 102.321 35.7803 101.151 37.5203C99.9813 39.2603 99.6913 41.7203 99.1313 41.2603C98.5713 40.8003 98.9013 35.6703 98.9013 35.6703L103.801 34.3203Z" fill="#AB8F85"/>
<path opacity="0.4" d="M68.7905 43.8508C71.4805 42.2508 81.8905 43.3408 84.1405 45.1508L87.0805 51.5008C87.0805 51.5008 80.4705 57.6308 76.4305 57.3908C70.1905 56.8208 65.9305 47.8608 68.8005 43.8508H68.7905Z" fill="url(#paint0_radial_3819_2623)"/>
<path opacity="0.41" d="M103.79 44.7802C105.07 43.5802 115.85 42.2802 117.45 43.3902C128.01 60.4602 94.74 61.1402 103.79 44.7802Z" fill="url(#paint1_radial_3819_2623)"/>
<path opacity="0.52" d="M172.27 268.64C173.91 278.28 175.78 298.02 175.14 307.72L179.6 311.12L180.33 313.6L184.19 315.23L186.39 319.09L189.59 319.61L191.39 316.28L194.72 315.17L199.99 301.51L204.85 305.3L207.32 299.68C206.37 293.86 203.77 281.56 201.59 276.15L187.66 267.59L177.53 267.07L172.27 268.64Z" fill="url(#paint2_radial_3819_2623)"/>
<path d="M97.4211 518.1C97.4211 518.1 98.6211 520.91 97.7911 521.34C94.3511 523.15 85.1911 527.62 85.1911 527.62C77.9911 542.35 48.2911 566.48 33.8711 545.39L95.0811 516.49L97.4211 518.09V518.1Z" fill="white"/>
<path d="M129.539 524.65L129.219 529.93L138.719 537.81C142.229 548.72 150.889 574.15 168.619 576.55C174.339 578.11 182.559 575.98 188.259 574.23C197.289 570.2 194.439 564.71 194.889 560.44L166.629 568.02L143.159 531.48L129.539 524.65Z" fill="white"/>
<path d="M130.311 514.25L129.461 523.97C129.541 524.83 139.241 533.67 141.241 533.07C146.731 543.85 152.881 569.14 166.771 573.1C176.691 577.11 196.151 572.14 194.591 557.93C187.701 540.03 165.401 523.52 164.011 504.08L153.671 509.22L142.531 512.9C142.531 512.9 145.551 517.1 142.811 517.1C141.001 517.1 130.311 514.25 130.311 514.25Z" fill="#636567"/>
<path d="M96.5981 502.691L97.4781 517.781C79.1581 523.821 86.6181 524.111 70.1381 540.651C59.8781 552.621 43.8781 552.801 34.4081 545.881C34.4081 545.881 29.5481 540.511 34.3881 532.771C41.7381 521.031 62.0481 497.891 62.0481 497.891L76.4081 506.291L76.4581 509.011C79.3881 511.181 95.4981 503.451 96.5881 502.691H96.5981Z" fill="#636567"/>
<path d="M76.6213 509.379C74.5113 519.239 64.6613 540.819 50.7812 544.399C51.2812 544.629 52.7113 549.869 51.8913 550.519C61.8513 552.579 82.9813 526.869 83.9113 523.389L97.4713 517.509L96.5912 502.439C92.4912 504.749 80.8713 510.049 76.6213 509.379Z" fill="#505359"/>
<path d="M52.1094 550.94L52.7094 553.94C64.7094 552.37 80.7394 536.37 85.1994 527.62C85.4794 527.12 98.0994 521.64 98.0994 521.64L97.4394 517.78C97.1294 517.34 84.0794 523.69 84.2894 524.14C77.2894 534.2 61.5294 550.73 52.1094 550.94Z" fill="#BDB8BD"/>
<path d="M118.541 51.8008L108.341 65.9508C108.341 65.9508 104.511 61.6008 104.061 62.6008C103.471 63.9308 101.411 70.1408 101.411 70.1408L94.241 67.0708L88.921 71.1108C87.741 69.5708 84.471 65.8408 83.141 64.3408L78.521 66.1608L72.451 61.1608L67.031 53.8308C61.581 60.5308 76.431 75.6608 81.641 79.7508C91.821 85.2008 100.661 86.2208 110.241 74.4808C118.331 67.5808 121.741 59.9008 118.541 51.8108V51.8008Z" fill="#5B3C27"/>
<path d="M61.7617 36.8192C63.8317 19.2992 60.0217 6.86925 81.7617 2.08925C108.322 -2.82075 125.872 2.90925 122.732 34.1792C121.622 33.7292 119.582 38.9692 119.792 39.0292C120.102 34.7692 118.262 5.38925 103.022 12.7292C98.4617 15.0392 96.2217 17.6592 94.9017 16.8192C89.1317 12.3492 77.2917 10.1392 73.3817 17.6592C70.5417 20.5992 71.5517 24.8392 71.5517 24.8392L68.4817 40.0992C67.7217 39.1892 64.4417 32.0692 61.7617 36.8192Z" fill="#5B3C27"/>
<path d="M83.3988 64.811L82.4688 59.941C86.8787 56.581 99.6487 54.141 105.179 56.941L104.239 61.801L93.8487 61.621L83.4088 64.811H83.3988Z" fill="#5B3C27"/>
<path d="M164.119 291.699L162.269 324.419L170.229 333.619L170.299 338.989L166.559 340.889L168.719 359.769L167.809 372.589L164.729 378.629L166.319 450.659C166.319 450.659 168.389 472.849 168.329 481.949C168.319 484.469 163.939 486.839 163.939 486.839C163.939 486.839 168.379 499.509 163.209 503.539C151.499 513.429 120.619 520.979 115.909 503.019C115.379 498.989 115.599 490.299 115.909 486.209C117.169 455.619 106.939 370.749 100.129 349.049L103.129 411.159C103.129 411.159 105.159 414.079 106.389 422.679C107.799 448.769 117.539 492.229 103.489 499.609C85.0386 507.729 70.6786 511.209 59.1986 493.749C55.7586 489.919 59.9686 483.649 57.7686 459.659C55.5686 435.679 47.8186 385.139 47.8186 385.139C42.4286 379.379 37.2786 360.119 38.8686 351.589C34.1286 350.009 30.3286 327.389 36.0986 325.219L29.8086 290.979C62.6286 283.069 129.989 276.009 164.119 291.689V291.699Z" fill="#D0B286"/>
<path d="M93.7203 313.03L99.5903 344.46L100.98 379.78L90.3203 339.94L93.7303 313.02L93.7203 313.03Z" fill="#9C886E"/>
<path d="M60.3692 348.99L61.3292 354.47C61.5192 354.93 40.2692 356.69 39.1492 354.07L38.9492 350.73L47.8792 351.93L60.3692 348.99Z" fill="#9C886E"/>
<path d="M136.479 345.299C139.039 356.639 163.179 348.129 167.239 346.169L166.599 340.609C161.399 344.119 143.619 348.629 136.469 345.299H136.479Z" fill="#9C886E"/>
<path d="M138.18 372.15C141.11 377.18 163.97 376.43 167.25 372.37C167.25 372.37 165.97 378.79 161.34 378.79C155.53 378.79 148.79 378.79 142.33 379.11C139.82 379.23 138.18 372.16 138.18 372.16V372.15Z" fill="#9C886E"/>
<path d="M44.9883 380.299C48.9483 382.519 65.1483 382.249 68.8983 380.109L69.5583 382.089C67.2183 387.579 48.7083 385.149 46.9683 384.519L44.9883 380.299Z" fill="#9C886E"/>
<path d="M93.6797 306.88C99.8597 308.65 114.71 306.82 119.88 301.26L106.04 303.66L93.7297 302.99L93.6797 306.88Z" fill="#9C886E"/>
<path d="M164.371 487.01L165.251 491.82L151.871 495.61C152.011 495.68 163.881 487.47 164.381 487L164.371 487.01Z" fill="#9C886E"/>
<path d="M164.401 292.031L163.561 298.461C162.011 296.511 123.291 282.851 124.411 283.451L164.401 292.031Z" fill="#9C886E"/>
<path d="M29.5117 291.171L30.9117 298.901C31.5617 295.341 67.4217 284.831 66.8117 285.601L29.5117 291.171Z" fill="#9C886E"/>
<path d="M160.859 191.63C165.559 191.61 194.149 185.26 198.459 177.44C200.249 173.78 174.839 103.11 169.959 101.82C165.549 97.85 161.499 98.69 153.439 94.83C145.379 90.98 144.849 90.41 137.729 86.4C133.729 84.15 114.299 79.75 114.299 79.75C114.299 79.75 111.669 93.18 105.269 99.36C98.8591 105.54 96.1791 104.67 88.6791 104.46C75.9491 106.43 69.6191 89.8 69.7691 83.68C10.5791 109.57 14.8191 95.31 8.96908 160.91C8.96908 160.91 3.94908 186.62 0.609083 196.5C-1.36092 203.81 28.4491 204.83 30.0291 202.96L30.3191 240.67C31.8591 295.89 1.11909 297.8 75.1791 283.14C75.1791 283.14 112.289 282.12 122.269 283.27C141.979 285.55 165.859 294.88 167.909 291.36C173.119 282.43 161.919 273.23 160.649 248.33C159.059 235.88 160.259 193.13 160.849 191.62L160.859 191.63Z" fill="white"/>
<path d="M84.5309 104.2C83.6509 107.93 75.5109 107.36 73.9609 106.62L79.8409 102.49C79.6109 102.9 84.3009 104.57 84.5209 104.2H84.5309Z" fill="#BDB8BD"/>
<path d="M108.102 101.72C120.522 112.49 137.312 89.0398 122.302 81.5898L108.102 101.72Z" fill="#BDB8BD"/>
<path d="M154.711 124.491C154.881 124.321 174.041 189.061 173.931 189.591L160.971 192.181C160.131 176.371 157.631 139.701 154.711 124.491Z" fill="#BDB8BD"/>
<path d="M143.52 257.49C124.05 270.82 78.7595 273.7 63.2695 265.03C85.3195 266.42 133.22 261.76 143.52 257.49Z" fill="#BDB8BD"/>
<path d="M31.8103 132.391L25.0703 204.681L30.3403 203.161L31.8103 132.401V132.391Z" fill="#BDB8BD"/>
<path d="M101.379 155.73L109.779 149.59L125.679 160.97C125.679 161.8 125.539 179.02 125.549 178.45L111.879 188.68L96.8288 180.49L95.4688 164.47L101.379 155.72V155.73Z" fill="#D4A44E"/>
<path d="M92.5 163.65L93.1 179.99C93.37 181.05 79.05 190.65 78.9 190.12L64.1 181.19L63 163.68L76.05 151.68L87.81 156.18L92.5 163.65Z" fill="#D4A44E"/>
<path d="M101.34 155.66L107.92 150.66L107.98 131.18C88.5495 117.66 94.9995 117.28 77.5195 132.66L78.9795 152.43L89.5495 157.47L101.33 155.66H101.34Z" fill="#AEABA7"/>
<path d="M113.818 79.7402L106.388 82.3602L104.148 92.8502L110.768 100.22L117.348 95.1302C124.768 92.8502 122.988 88.3302 120.078 83.2102L113.818 79.7402Z" fill="#A59FAB"/>
<path d="M64.2713 88.8991L69.9013 84.0391L76.9113 90.2591L77.2413 101.439L70.8913 104.409C65.1013 98.8091 58.4013 98.0291 64.2713 88.8991Z" fill="#A59FAB"/>
<path d="M111.511 36.8008C113.171 37.9208 111.481 40.7708 111.481 40.7708C109.821 42.4208 103.411 41.2108 102.211 40.1508L104.851 36.5108C104.851 36.5108 109.851 35.6808 111.511 36.8008Z" fill="white"/>
<path d="M86.9309 38.0293C89.0609 45.0593 77.1209 42.1393 75.4609 39.3793L78.8009 36.9893L83.2509 36.7793L86.9309 38.0393V38.0293Z" fill="white"/>
<path d="M165.098 377.85C164.568 377.85 164.148 378.26 164.148 378.78C164.208 385.31 163.968 391.83 164.258 398.35C164.498 416.05 164.988 433.74 166.018 451.41C166.368 478.98 177.088 480.28 150.578 496.38C157.268 493.55 165.828 488.21 168.908 481.3C169.108 469.48 167.028 457.7 166.878 445.88C166.178 430.04 166.118 414.19 166.078 398.34C166.258 391.82 165.988 385.3 166.048 378.78C166.048 378.26 165.628 377.85 165.098 377.85Z" fill="#070D1C"/>
<path d="M164.31 487.061C162.64 491.211 167.19 497.231 164.22 501.451C152.49 513.311 117.68 522.761 115.91 498.041C115.48 495.521 116.24 492.331 115.63 490.141C114.87 491.601 115.33 494.221 115.12 496.061C113.7 518.701 140.95 516.861 155.26 509.431C166.9 504.911 168.9 497.841 164.32 487.051L164.31 487.061Z" fill="#070D1C"/>
<path d="M166.002 339.779C165.942 351.299 172.672 367.789 163.112 377.509C157.452 379.349 151.032 376.789 145.122 378.569C135.612 378.779 137.912 361.419 137.942 354.939C137.892 351.579 138.492 346.909 136.362 344.309C136.312 347.769 137.132 351.899 136.742 355.629C136.602 362.889 134.472 380.409 145.302 379.879C151.352 377.989 157.922 380.529 163.722 378.539C172.972 372.029 169.362 348.699 165.992 339.779H166.002Z" fill="#070D1C"/>
<path d="M164.33 292.19C163.23 302.44 161.26 313.32 161.85 323.76C163.25 328.91 172.63 332.49 169.18 338.52C168.54 339.56 166.52 339.1 166.35 340.29C166.63 341.31 167.99 340.55 168.62 340.3C170.99 339.18 171.54 336.39 170.64 334.1C169.31 329.72 164.24 327.61 162.75 323.41C161.91 313.05 164.64 302.32 164.33 292.18V292.19Z" fill="#070D1C"/>
<path d="M93.6199 304.35C93.0099 328.93 103.26 354.96 106.08 380.03C112.17 415.96 114.32 452.61 115.91 488.8C116.86 426.84 103.77 364.62 93.6199 304.35Z" fill="#070D1C"/>
<path d="M99.4492 341.82C100.689 364.72 100.339 389.4 103.529 411.99C101.289 389.28 103.239 364.44 99.4492 341.82Z" fill="#070D1C"/>
<path d="M47.4787 384.109C52.3787 417.909 57.5788 454.579 57.0788 489.789C56.8488 498.429 70.5387 505.889 78.0887 507.269C88.7687 505.399 104.789 503.889 110.449 493.499C111.129 472.339 110.499 450.969 107.979 429.919C107.519 416.609 101.019 405.059 93.5287 394.669C95.7087 401.849 102.539 407.619 104.429 415.259C107.389 426.059 107.929 437.359 108.629 448.489C109.349 460.469 109.429 472.479 109.219 484.469C109.029 489.089 110.589 494.789 105.589 497.419C97.3987 502.689 87.2988 504.689 77.7588 505.859C70.5988 504.179 63.3187 499.359 59.4087 493.129C58.2587 483.189 58.9987 472.659 57.9587 462.529C56.6187 442.539 55.1387 422.529 52.2887 402.689C50.9387 398.219 51.0787 386.069 47.4688 384.109H47.4787Z" fill="#070D1C"/>
<path d="M69.4702 381.799C65.6802 386.379 57.9302 385.249 52.4502 384.559C50.5002 384.819 47.5202 382.449 46.1602 383.609C46.3602 387.899 70.5302 387.169 69.4702 381.789V381.799Z" fill="#070D1C"/>
<path d="M39.0982 350.65C37.8682 361.3 39.6882 376.6 47.2982 384.44C46.7582 380.43 42.2083 375.41 41.6083 370.51C39.5883 364.16 40.2882 356.8 39.0982 350.66V350.65Z" fill="#070D1C"/>
<path d="M35.8918 325.34C35.7218 334.94 50.5518 329.99 56.6018 329.28C59.5718 335.56 67.8518 347.4 56.3118 349.41C50.3818 350.44 42.0518 351.84 37.1818 347.82C34.8918 344.65 32.9518 350.84 41.1118 351.69C50.8818 353.32 70.1318 351.04 61.5518 337.05C60.2818 335.15 58.5318 327.96 56.3618 328.15C50.0818 328.53 38.9418 333.98 36.1318 325.71C36.1718 325.55 36.0618 325.38 35.8918 325.34Z" fill="#070D1C"/>
<path d="M35.3596 325.279C31.6596 327.239 32.7996 344.729 35.5196 347.129C36.2896 346.909 35.8696 345.989 35.8496 345.429C34.5296 338.989 32.1496 331.149 35.3496 325.279H35.3596Z" fill="#070D1C"/>
<path d="M60.2504 348.67C60.2004 359.27 65.4304 371.6 69.5804 381.73C65.2404 371.3 63.3504 358.91 60.2504 348.67Z" fill="#070D1C"/>
<path d="M29.7212 290.619C28.2412 292.979 30.6612 297.769 30.6812 300.789C32.7812 309.539 33.9312 318.939 36.7012 327.329C35.9212 318.539 33.3512 309.439 31.9212 300.569C30.9112 297.689 31.8012 292.519 29.7212 290.619Z" fill="#070D1C"/>
<path d="M30.5305 234.34C33.1705 283.41 7.73055 296.81 45.0205 289.28C39.1405 288.49 32.4405 291.7 26.7505 289.47C24.0705 285.19 27.5705 279.34 28.0305 274.68C31.4605 261.58 33.1205 247.6 30.5305 234.34Z" fill="#070D1C"/>
<path d="M97.4391 282.48C85.0891 282.95 71.5591 282.04 60.0391 286.32C64.4591 287.47 69.8091 284.69 74.4691 284.27C82.0491 283.06 89.8091 283.12 97.4691 283.12C97.8691 283.12 97.8491 282.46 97.4391 282.49V282.48Z" fill="#070D1C"/>
<path d="M93.6281 304.939C93.6281 304.939 93.5881 304.959 93.5781 304.979C90.7181 317.439 92.6681 332.319 88.3281 344.699C92.1381 338.409 91.8581 329.279 93.1281 321.869C93.2681 316.439 95.3981 310.009 93.6681 304.979C93.6681 304.959 93.6481 304.939 93.6181 304.939H93.6281Z" fill="#070D1C"/>
<path d="M61.2812 292.609C62.2513 295.389 62.7913 299.489 65.3913 301.479C66.2513 301.939 68.0013 302.389 68.1913 301.009C68.2513 300.429 67.8013 299.929 67.2113 299.869C63.1213 299.949 64.1012 293.949 61.2812 292.609Z" fill="#070D1C"/>
<path d="M83.4608 299.811C79.4208 300.551 73.8908 299.391 70.5508 301.141C71.7708 302.791 75.2508 301.351 77.2208 301.661C83.0008 301.261 88.8208 301.891 94.2908 303.451C94.6908 303.781 95.2208 303.151 94.8008 302.831C92.8508 299.281 87.0508 299.981 83.4708 299.821L83.4608 299.811Z" fill="#070D1C"/>
<path d="M126.36 298.09C117.24 303.24 105.51 303.24 95.5703 302.92C98.4803 307.4 126.44 302.12 126.36 298.09Z" fill="#070D1C"/>
<path d="M123.498 287.18C115.588 293.9 106.778 300.4 96.7383 302.97C106.958 303.28 116.818 294.09 123.498 287.18Z" fill="#070D1C"/>
<path d="M85.2415 282.67C82.9815 283.49 93.4215 308.27 94.2115 302.6C90.4015 296.6 88.4915 289.8 86.2315 283.15C86.0915 282.75 85.6415 282.54 85.2415 282.68V282.67Z" fill="#070D1C"/>
<path d="M94.5317 282.49C93.7817 286.94 99.2617 295.46 90.8717 296.04C90.4017 296.13 90.1017 296.58 90.1917 297.04C92.4917 299.19 96.9717 294.92 96.6917 292.1C96.7417 288.83 95.3917 285.35 94.5217 282.49H94.5317Z" fill="#070D1C"/>
<path d="M160.841 190.949C158.141 213.719 157.931 238.599 161.161 261.889C162.231 271.779 170.601 280.499 168.191 290.699C163.251 293.089 156.201 289.749 151.711 289.859C182.581 299.519 165.091 278.059 162.401 261.679C160.471 246.919 159.591 231.949 160.401 217.069C160.001 208.769 163.321 198.299 160.851 190.939L160.841 190.949Z" fill="#070D1C"/>
<path d="M198.658 177.4C189.778 185.22 177.728 188.97 165.828 190.03C164.298 190.44 162.148 189.76 161.268 191.35C160.858 191.37 160.918 191.97 161.318 191.94C169.818 194.39 195.828 186.93 198.658 177.4Z" fill="#070D1C"/>
<path d="M123.709 80.5803C120.269 81.8003 127.599 82.9303 128.499 83.6503C141.259 90.6303 155.219 95.1403 168.209 101.36C180.849 122 190.659 144.72 195.809 168.43C197.619 179.14 199.299 181.45 196.909 168.71C191.819 144.51 182.769 120.67 168.779 100.22C163.659 96.7803 157.359 95.4603 151.799 92.8103C142.439 88.7103 133.759 83.0003 123.709 80.5703V80.5803Z" fill="#070D1C"/>
<path d="M153.58 120.43C157.48 138.43 158.53 157.74 159.28 176.42C160.1 179.95 158.18 191.28 160.78 192.66C163.35 191.08 160.63 179.44 161.14 175.85C160.03 157.44 159.34 137.75 153.57 120.44L153.58 120.43Z" fill="#070D1C"/>
<path d="M145.16 119.43C148.79 125.44 152.6 131.89 154.85 138.77C155.59 139.88 155.76 142.29 157.14 142.55C157.02 135.42 150.45 124.45 145.16 119.43Z" fill="#070D1C"/>
<path d="M144.96 255.91C129.87 262.13 113.34 262.43 97.4297 263.94C100.58 265.65 152.9 260.04 144.96 255.91Z" fill="#070D1C"/>
<path d="M64.2915 264.411C51.9415 269.151 105.651 273.021 107.731 271.261C93.8515 270.041 78.4715 270.111 64.8115 265.711C96.8915 267.521 95.8315 264.101 64.3015 264.411H64.2915Z" fill="#070D1C"/>
<path d="M187.17 185.16C185.76 188.27 190.68 193.5 191.58 196.95C198.89 218.37 187.18 243.02 196.23 264.15C188.26 238.77 204.44 207.34 187.17 185.15V185.16Z" fill="#070D1C"/>
<path d="M159.591 231.359C158.471 231.909 159.351 233.529 159.661 234.389C164.081 244.799 171.011 254.149 174.031 265.129C174.141 265.569 174.881 265.399 174.751 264.939C172.661 256.789 168.341 249.459 164.851 241.849C162.891 239.419 162.061 232.019 159.581 231.359H159.591Z" fill="#070D1C"/>
<path d="M182.38 188.699C180.5 188.899 178.31 197.299 179.4 198.869C179.63 196.749 183.85 189.539 182.38 188.699Z" fill="#070D1C"/>
<path d="M161.258 194.789C160.218 197.159 162.748 200.249 163.698 202.539C166.418 206.369 161.778 194.539 161.258 194.789Z" fill="#070D1C"/>
<path d="M130.149 514.73C129.799 514.73 129.509 514.991 129.499 515.341C129.639 519.411 128.569 523.401 128.689 527.451C128.759 532.111 134.889 536.12 138.799 537.3C136.549 534.59 132.509 532.94 130.399 529.76C128.859 525.93 132.149 517.57 130.139 514.73H130.149Z" fill="#070D1C"/>
<path d="M138.441 536.6C141.221 550.04 148.631 566.85 161.101 574.8C171.361 579.48 187.841 579.17 194.441 568.84C196.011 565.06 195.451 560.15 194.261 556.51C194.091 558.44 194.971 560.82 194.821 562.93C194.761 578.27 172.061 578.98 161.651 573.79C148.261 566.07 145.071 548.58 138.441 536.59V536.6Z" fill="#070D1C"/>
<path d="M143.289 513.119C140.599 513.529 146.369 515.569 140.879 523.879C142.839 524.589 146.469 514.409 143.289 513.119Z" fill="#070D1C"/>
<path d="M140.82 532.26C144.14 545.76 150.79 561.88 161.98 571.37C170.95 576.24 184.82 575.96 191.71 567.74C192.97 566.05 194.12 563.97 194.34 561.9C193.56 563.84 192.82 565.85 191.4 567.51C184.78 575.08 172.11 575.21 163.5 571.19C150.49 562.47 148.36 544.16 140.82 532.27V532.26Z" fill="#070D1C"/>
<path d="M129.879 523.699C129.979 527.089 138.209 535.659 141.659 532.839C140.819 531.319 137.989 531.439 136.619 530.159C133.829 528.649 131.859 525.709 129.879 523.689V523.699Z" fill="#070D1C"/>
<path d="M130.419 513.711C130.299 513.711 130.159 513.741 130.039 513.751C132.199 515.381 141.739 518.961 144.129 516.781C144.539 516.651 144.329 516.021 143.919 516.161C139.339 516.081 134.759 515.371 130.419 513.711Z" fill="#070D1C"/>
<path d="M163.848 504.02C163.708 522.77 186.078 538.72 193.628 555.65C185.418 537.78 168.388 523.33 163.848 504.02Z" fill="#070D1C"/>
<path d="M141.441 524.34C140.311 524.41 139.861 534.58 141.651 531.98C141.371 529.49 141.541 526.58 141.441 524.34Z" fill="#070D1C"/>
<path d="M190.72 556.43C189.74 565.32 176.82 565.1 170 563.81C173.5 569.19 194.02 564.1 190.72 556.43Z" fill="#070D1C"/>
<path d="M96.9006 502.11C94.8706 504.55 96.8706 518.02 98.0906 521.32C97.7006 515.58 96.8306 509.4 97.5306 503.5C97.5106 502.98 97.6306 502.15 96.9006 502.1V502.11Z" fill="#070D1C"/>
<path d="M61.2694 497.321C51.5094 510.021 39.3694 521.951 32.1194 536.401C29.9494 547.131 39.5094 554.041 49.3694 554.291C63.8794 554.021 75.8994 542.191 83.5494 530.791C86.1294 525.341 93.2294 524.811 97.7394 521.471C93.4594 522.631 89.4694 525.271 85.3494 527.061C84.1894 527.951 83.7194 529.691 82.7494 530.841C75.2794 541.251 64.3194 551.801 51.0394 553.161C41.7294 553.161 31.3594 547.751 33.3594 537.021C39.4894 524.281 50.3194 514.481 58.6294 503.191C59.2494 501.621 64.1794 498.181 61.2794 497.311L61.2694 497.321Z" fill="#070D1C"/>
<path d="M36.0204 125.02C34.7304 126.35 32.5704 126.98 31.8404 128.89C30.3904 135.93 30.7204 143.38 30.2304 150.57C29.8704 178.13 29.0504 206.41 30.6104 233.64C32.0304 208.01 30.5504 181.43 31.9804 155.5C32.7704 145.21 32.0104 134.37 36.0304 125.02H36.0204Z" fill="#070D1C"/>
<path d="M0.161524 197.531C0.0615244 197.451 -0.0584756 197.601 0.0415244 197.681C5.35152 203.741 24.0115 208.871 30.2015 203.161C28.4715 201.751 25.3215 204.261 23.0215 203.751C14.7915 204.701 7.05152 201.111 0.161524 197.541V197.531Z" fill="#070D1C"/>
<path d="M47.3114 185.01C41.1014 190.23 37.6314 199.25 32.0514 205.39C32.0214 206.87 33.0714 204.77 33.4514 204.49C37.9914 198.09 43.2614 191.32 47.3114 185.01Z" fill="#070D1C"/>
<path d="M51.5406 177.84C50.2706 179.43 48.7406 181.77 48.1406 183.71C49.6706 182.35 50.9906 179.81 51.5406 177.84Z" fill="#070D1C"/>
<path d="M46.2684 181.57C42.9884 185.59 39.0784 190.27 36.3984 194.66C39.9684 190.95 43.9984 186.26 46.2684 181.57Z" fill="#070D1C"/>
<path d="M65.0603 85.1699C50.4903 93.3999 32.1603 94.5299 19.2303 105.72C11.9703 114.25 12.3003 126.42 10.8503 136.97C9.38031 152.04 7.06031 167.04 4.35031 181.93C3.49031 187.3 1.37031 192.51 0.0703125 197.68C3.52031 191.82 4.43031 184.42 5.94031 177.78C7.72031 167.61 9.22031 157.41 10.7103 147.2C13.5403 132.93 10.2303 113.53 23.3703 103.94C32.8103 98.1099 43.6803 95.1299 53.9803 91.1999C56.3803 89.9199 65.4503 87.4399 65.0603 85.1799V85.1699Z" fill="#070D1C"/>
<path d="M96.6888 517.651C81.7688 521.831 82.5788 526.881 73.5688 536.811C66.9288 542.511 60.0088 550.201 50.6288 550.211C44.5988 550.191 35.5188 549.081 33.7888 542.191C33.5788 540.051 32.7088 540.411 32.7188 542.321C33.6988 547.781 40.1288 549.791 44.9288 550.651C55.5888 553.021 64.8988 546.431 72.1288 539.341C80.1388 532.221 82.6488 522.251 94.0388 519.091C94.8288 518.731 99.0488 517.721 96.6888 517.641V517.651Z" fill="#070D1C"/>
<path d="M82.3504 516.471C81.9904 518.611 84.3304 521.191 83.6604 523.621C85.2804 525.191 83.5504 516.491 82.3504 516.471Z" fill="#070D1C"/>
<path d="M76.2481 507.07C74.7781 510.59 79.6181 515.37 82.5581 516.91C79.6781 514.15 77.3181 510.82 76.2481 507.07Z" fill="#070D1C"/>
<path d="M93.3183 503.811C88.2283 506.231 82.8083 508.691 77.0483 508.521C76.6483 508.521 76.3183 508.851 76.3283 509.241C77.0883 512.101 94.9283 505.021 93.3183 503.811Z" fill="#070D1C"/>
<path d="M61.6389 537.16C61.1389 536.94 61.1189 537.71 60.9489 537.99C59.3689 540.86 55.1189 541.62 53.3789 543.78C55.8789 543.75 61.1089 539.6 61.6389 537.17V537.16Z" fill="#070D1C"/>
<path d="M52.6917 543.75C50.5617 544.67 48.1017 544.83 46.0117 545.02C46.2317 546.64 54.5517 544.57 52.6917 543.75Z" fill="#070D1C"/>
<path d="M196.361 264.08C198.601 273.25 203.871 282.62 205.781 292.3C206.871 295.56 208.241 309.03 202.111 302.15C197.731 297.61 201.071 289.19 195.251 285.8C190.211 281.78 188.271 275.19 187.691 269.14C187.121 274.01 188.931 279.34 191.721 283.43C195.301 287.38 198.291 289.67 198.241 295.52C198.241 302.48 207.931 312.09 207.741 299.46C206.951 287.3 202.671 274.13 196.361 264.1V264.08Z" fill="#070D1C"/>
<path d="M200.36 300.141C198 303.451 197.88 316.461 191.52 315.701C195.63 319.451 201.78 302.511 200.36 300.141Z" fill="#070D1C"/>
<path d="M184.551 315.221C183.231 316.711 185.641 319.521 187.381 319.931C189.641 320.781 192.361 318.381 191.641 316.081C190.861 318.551 188.141 320.461 186.091 317.981C185.201 317.311 185.591 315.491 184.561 315.221H184.551Z" fill="#070D1C"/>
<path d="M179.681 309.061C177.021 310.981 181.811 316.571 184.541 315.131C182.061 314.521 179.871 312.591 180.251 309.731C180.281 309.391 180.031 309.091 179.681 309.071V309.061Z" fill="#070D1C"/>
<path d="M175.111 290C173.621 294.1 172.141 312.26 179.321 311C171.611 307.62 176.191 296.37 175.111 290Z" fill="#070D1C"/>
<path d="M174.969 265.099C168.679 264.679 172.749 289.129 175.249 291.479C176.839 287.889 168.439 268.019 174.749 265.689C175.679 265.579 176.519 266.199 177.349 266.339C176.899 265.609 175.809 265.239 174.959 265.099H174.969Z" fill="#070D1C"/>
<path d="M177.022 291.71C176.972 291.74 176.952 291.8 176.982 291.86C177.302 292.05 177.302 292.08 177.432 292.18C175.942 291.72 178.182 293.63 178.802 293.52C178.892 293.52 179.142 293.5 179.072 293.43C178.422 292.84 179.072 293.43 179.402 293.28C179.502 293.32 179.562 293.17 179.462 293.13C178.322 292.44 178.592 292.85 178.322 292.44C178.132 292.15 178.962 292.74 179.312 292.79C179.162 292.31 178.042 292.49 177.702 292.05C177.632 291.94 177.362 291.85 177.312 291.83C178.022 292.27 177.312 291.83 177.172 291.74C177.142 291.69 177.072 291.67 177.022 291.7V291.71Z" fill="#070D1C"/>
<path d="M179.971 294.271C179.821 294.131 179.571 294.371 179.731 294.521C179.851 296.461 187.631 296.811 185.241 295.151C183.371 295.411 181.561 295.401 179.971 294.261V294.271Z" fill="#070D1C"/>
<path d="M192.32 294.641C190.66 295.391 188.89 295.211 187.23 295.111C187.55 296.891 195.14 295.851 192.32 294.641Z" fill="#070D1C"/>
<path d="M197.192 293.439C195.512 293.969 195.802 294.359 194.502 294.499C195.382 294.119 194.502 294.499 194.212 294.509C193.942 294.489 193.942 294.919 194.202 294.919C194.912 294.679 195.112 294.639 195.272 294.609C193.232 295.319 197.142 294.849 197.332 294.119C196.272 294.319 197.332 294.119 197.472 293.789C197.732 293.609 197.452 293.239 197.202 293.419L197.192 293.439ZM195.992 293.929C196.172 293.849 196.292 293.739 196.492 293.609C195.752 293.859 195.282 294.079 195.992 293.929ZM196.492 293.609C196.622 293.559 196.772 293.499 196.852 293.459C196.922 293.409 196.532 293.529 196.492 293.609Z" fill="#070D1C"/>
<path d="M147.079 322.68C130.699 324.17 123.919 322.77 133.599 341.04C139.259 351.67 155.179 345.46 163.969 342.27C165.339 342.13 168.789 339.21 165.399 340.08C157.309 343.91 142.289 350.16 135.339 342.06C124.559 322.57 131.029 325.53 148.419 323.33C152.479 323.06 156.619 323.63 160.579 323.79C156.339 322.53 151.549 322.53 147.079 322.68Z" fill="#070D1C"/>
<path d="M103.41 163.95L86.2802 164.56L85.6602 155.52L90.8302 155.03L90.7102 150.69L94.5702 147.09L97.8102 149.9L98.2502 154.85L103.42 155.09V163.95H103.41Z" fill="#070D1C"/>
<path d="M92.8385 164.68C91.4785 167.18 92.9685 171.98 92.4885 175.17C92.6385 176.08 92.3085 180.68 93.3785 180.1C92.8685 175.28 94.9585 168.7 92.8385 164.68Z" fill="#070D1C"/>
<path d="M93.1612 179.92C88.8412 183.78 83.6612 186.41 78.7112 189.34C76.4612 194 94.0012 180.79 93.1612 179.92Z" fill="#070D1C"/>
<path d="M64.3601 180.51C61.7201 182.28 77.2301 189.9 79.3001 190.31C74.4401 187.24 68.8401 184.23 64.3601 180.51Z" fill="#070D1C"/>
<path d="M63.2719 163.08C61.3219 163.22 63.2919 179.23 64.1119 181.03C64.6719 176.75 63.5919 171.92 64.0519 167.45C63.7519 166.13 65.0319 163.48 63.2719 163.08Z" fill="#070D1C"/>
<path d="M76.3594 150.949C75.6194 152.269 57.8294 165.489 63.0994 164.249C66.8494 159.339 73.5394 156.229 76.3594 150.949Z" fill="#070D1C"/>
<path d="M75.7881 150.24C72.2281 151.8 84.7381 155.23 85.6781 155.21C83.3081 152.99 78.8881 151.47 75.7881 150.24Z" fill="#070D1C"/>
<path d="M77.9705 132.27C75.4805 135.82 79.3205 146.11 78.6905 151.16C80.4505 152.07 78.8405 142.23 78.9905 140.59C78.2005 138.4 79.9405 133.2 77.9705 132.26V132.27Z" fill="#070D1C"/>
<path d="M91.1416 120.48C86.4016 123.84 81.4116 128.04 77.8516 132.67C79.3516 133.49 84.0716 127.59 86.0116 126.47C86.8516 125 93.6916 121.74 91.1416 120.48Z" fill="#070D1C"/>
<path d="M92.4297 120.359C96.1297 124.059 103.56 127.439 107.86 131.889C112.82 132.059 93.6997 121.659 92.4297 120.359Z" fill="#070D1C"/>
<path d="M108.282 132.131C106.972 137.151 108.252 144.511 108.052 150.001C109.472 144.621 108.382 138.361 108.852 132.691C108.852 132.381 108.592 132.131 108.282 132.131Z" fill="#070D1C"/>
<path d="M110.041 148.48C107.471 150.45 104.101 152.74 102.121 155.2C103.201 154.36 112.701 149.56 110.041 148.48Z" fill="#070D1C"/>
<path d="M110.072 148.76C107.872 151.17 123.442 159.8 125.962 161.16C121.252 156.81 114.892 153.25 110.072 148.76Z" fill="#070D1C"/>
<path d="M125.741 161C125.991 162.26 123.651 182.16 126.391 177.99C125.261 172.5 127.311 166.17 125.741 161Z" fill="#070D1C"/>
<path d="M125.242 177.99C121.132 182.07 115.662 185.39 111.512 189.15C113.352 188.19 128.422 179.6 125.242 177.99Z" fill="#070D1C"/>
<path d="M96.7396 179.461C93.1796 180.841 110.46 188.581 112.2 189.171C108.18 186.521 101.58 182.271 96.7396 179.461Z" fill="#070D1C"/>
<path d="M95.7183 164.369C95.2783 165.029 94.7883 184.729 97.5283 179.189C96.3783 174.439 97.0983 168.759 95.7183 164.369Z" fill="#070D1C"/>
<path d="M122.901 162.09C121.631 162.52 122.671 164.44 122.521 165.44C122.941 168.79 122.291 172.67 123.451 175.74C123.601 173.28 124.741 163.19 122.891 162.09H122.901Z" fill="#070D1C"/>
<path d="M120.311 160.82C119.991 160.84 119.751 161.11 119.771 161.43C120.341 166.51 120.951 172 120.961 176.9C122.131 172.14 120.991 166.42 120.931 161.36C120.911 161.05 120.631 160.81 120.311 160.83V160.82Z" fill="#070D1C"/>
<path d="M117.589 162.359C116.329 163.119 117.379 165.639 117.049 167.009C117.129 170.369 116.759 174.129 117.909 177.269C118.369 172.619 117.909 167.639 118.119 162.879C118.119 162.589 117.889 162.359 117.589 162.359Z" fill="#070D1C"/>
<path d="M71.86 163.75C70.49 168.45 73.55 174.67 73.05 179.82C73.44 180.65 73.87 179.69 73.59 179.17C73.45 174.26 73.6 168 71.86 163.75Z" fill="#070D1C"/>
<path d="M69.4486 164.721C68.1386 169.571 70.3986 175.451 70.3086 180.621C71.3486 181.551 70.5786 176.791 70.7186 176.041C70.1286 172.401 70.6186 167.981 69.4586 164.721H69.4486Z" fill="#070D1C"/>
<path d="M66.5509 163.689C65.2709 168.809 68.0509 175.039 67.5909 180.549C69.0209 176.189 67.4109 168.499 66.5509 163.689Z" fill="#070D1C"/>
<path d="M87.3808 130.34C85.1908 130.92 84.1608 133.5 82.8008 135.14C83.0608 137.81 85.6908 132.38 86.3508 131.79C87.8908 129.83 88.0608 132 89.0108 132.65C89.4208 131.89 88.2908 130.28 87.3708 130.35L87.3808 130.34Z" fill="#070D1C"/>
<path d="M97.9119 130.211C97.2219 130.331 96.1619 132.441 96.9619 132.511C99.1319 133.081 98.3319 132.831 99.1319 133.071C99.8319 133.281 97.7419 132.631 97.0819 132.301C97.5619 129.941 99.4719 131.231 100.482 132.541C100.602 132.731 101.142 133.211 101.132 133.341C99.7219 133.141 101.132 133.341 101.312 133.641C103.912 134.201 99.0519 129.631 97.9119 130.221V130.211Z" fill="#070D1C"/>
<path d="M93.1417 127.489C91.7617 126.969 86.9318 136.41 89.4118 134.96C90.9718 133.48 92.6217 124.69 94.5117 130.25C95.2017 131.33 95.0717 133.36 96.0617 133.99C96.3517 132.45 95.1117 127.909 93.1417 127.489Z" fill="#070D1C"/>
<path d="M7.88953 203.18C-1.77047 230.13 20.4095 258.91 20.4595 286.63C21.4395 269.27 13.4195 252.5 10.1495 235.57C7.69953 225.26 6.57953 214.56 8.47953 204.07C8.56953 203.66 8.30953 203.26 7.88953 203.17V203.18Z" fill="#070D1C"/>
<path d="M20.2608 286.779C19.8008 293.029 17.8408 299.099 15.5908 304.979C15.3608 306.599 13.1608 309.069 14.4908 310.369C18.2708 306.349 21.2408 292.669 20.2608 286.779Z" fill="#070D1C"/>
<path d="M14.7904 309.689C11.7104 310.219 19.8604 318.299 20.5104 320.189C23.0304 326.509 30.7304 324.919 35.1104 321.639C20.8204 328.539 22.2604 317.769 14.7904 309.699V309.689Z" fill="#070D1C"/>
<path d="M23.7086 289.471C22.7986 294.081 21.8486 299.061 21.5586 303.881C22.5086 307.291 23.2486 310.671 23.5586 314.241C23.8986 318.331 27.1086 325.881 31.0286 319.611C32.0286 316.011 32.4286 312.221 32.6986 308.481C32.6886 307.341 33.1086 305.091 31.8686 304.601C31.3286 306.081 31.9586 308.271 31.5386 309.961C31.0386 312.231 30.0286 325.411 26.2686 319.471C24.3386 314.451 24.4286 308.981 22.5486 303.971C22.2786 299.201 24.1386 293.921 23.7086 289.481V289.471Z" fill="#070D1C"/>
<path d="M63.2695 89.0707C68.2595 73.2507 83.4695 84.1807 81.5795 97.7807C80.5995 111.891 68.2495 108.201 64.1595 99.6907L67.1095 100.341C81.7995 112.691 75.6095 76.8407 66.5495 88.0507C64.7295 88.8707 63.2695 89.0607 63.2695 89.0607V89.0707Z" fill="#070D1C"/>
<path d="M66.8486 87.4905C57.0786 88.6905 61.1286 104.35 70.2786 99.9305C71.6186 99.0905 72.0186 97.9605 70.0986 99.1005C65.8686 101.56 61.0086 96.4005 62.9086 92.2505C63.0886 90.3105 68.4686 88.8405 66.8486 87.4805V87.4905Z" fill="#070D1C"/>
<path d="M71.7506 70.3594C71.3206 70.4294 71.0306 70.8394 71.1006 71.2594C71.7206 74.3894 71.9606 77.8894 70.4706 80.8094C69.8906 81.6494 71.3006 81.3494 71.5806 80.9094C72.9806 79.1694 74.0106 71.1494 71.7506 70.3594Z" fill="#070D1C"/>
<path d="M120.349 84.65C118.129 83.81 115.739 80.18 111.839 81.6C103.129 88.8 106.349 103.2 116.559 95.39C121.809 92.97 114.299 101.43 112.859 101.4C105.089 104.74 98.2092 95.2 102.429 86.18C105.829 76.25 119.129 74.24 120.339 84.64L120.349 84.65Z" fill="#070D1C"/>
<path d="M116.561 82.8395C116.151 82.8295 116.151 83.4695 116.561 83.4695C119.621 83.8295 121.941 87.2595 122.101 90.1595C122.121 90.4995 122.431 90.7595 122.781 90.7395C124.811 88.2695 119.731 82.3295 116.561 82.8395Z" fill="#070D1C"/>
<path d="M122.938 89.6605C122.638 89.5505 122.298 89.6905 122.188 89.9805C120.778 94.3005 115.938 95.2805 112.078 94.8705C115.418 97.7805 123.868 93.9805 122.948 89.6605H122.938Z" fill="#070D1C"/>
<path d="M121.108 85.4103C124.418 79.5403 121.538 70.1003 117.298 66.0703L114.898 69.4903C117.058 71.1803 120.498 79.1603 117.728 82.1603L121.108 85.4003V85.4103Z" fill="#070D1C"/>
<path d="M67.7286 84.8407C66.4486 80.0107 68.5986 74.1007 72.4486 71.1207L70.5586 68.2207C63.8086 72.0707 62.5986 82.3607 64.3386 88.3407" fill="#070D1C"/>
<path d="M118.942 50.4297C116.712 53.4497 120.622 59.3197 118.322 63.0097C115.032 70.4497 102.942 84.7697 94.0917 83.3697C92.9717 82.8197 92.8917 84.2297 94.0717 83.7197C103.172 85.2697 113.992 72.2097 118.572 65.2397C121.132 61.4497 120.102 56.9397 119.792 52.6797C119.682 51.9497 119.842 50.5997 118.932 50.4397L118.942 50.4297Z" fill="#070D1C"/>
<path d="M66.6617 53.0996C58.2617 61.0196 83.0817 86.1996 92.3517 83.2696C80.3017 81.8096 72.3217 71.0796 66.8817 61.0696C65.8317 58.5396 68.0917 55.2596 66.6517 53.0996H66.6617Z" fill="#070D1C"/>
<path d="M112.178 72.9199C110.808 73.9299 111.728 77.2999 113.038 78.2299C113.088 78.3299 113.248 78.2599 113.208 78.1599C113.098 76.8899 113.348 73.4499 112.188 72.9199H112.178Z" fill="#070D1C"/>
<path d="M63.9088 34.6493C60.5788 34.1893 60.2388 48.7693 61.8288 49.8693C63.6688 47.2893 61.4888 41.9193 62.4488 38.4893C63.0088 31.8893 65.8288 37.6193 67.8088 39.3293C67.6688 37.7093 65.6188 35.2993 63.9088 34.6493Z" fill="#070D1C"/>
<path d="M61.8213 50.1897C60.0813 51.0897 63.9613 54.0397 63.7413 53.7797C64.1713 53.9897 67.3113 54.1597 65.5213 53.0597C64.1313 53.4197 62.2413 52.5397 62.3013 50.8997C62.3013 50.6297 62.2513 50.2997 61.8213 50.1797V50.1897Z" fill="#070D1C"/>
<path d="M122.491 33.8706C120.741 34.6706 119.501 37.4606 119.841 39.0406C120.371 37.3406 120.861 35.1607 122.751 34.4906C123.151 34.3307 122.901 33.7006 122.491 33.8706Z" fill="#070D1C"/>
<path d="M123.19 34.4805C122.6 34.9305 120.09 52.5105 122.66 48.6705C122.25 44.0205 123.4 38.7905 123.19 34.4805Z" fill="#070D1C"/>
<path d="M121.931 49.4395C121.171 49.4795 121.611 50.7895 120.641 50.7095C118.041 50.9795 121.101 52.8195 121.711 50.6795C121.861 50.2395 122.411 49.8495 121.941 49.4395H121.931Z" fill="#070D1C"/>
<path d="M98.7897 0.0706009C82.3797 -0.269399 61.6497 3.5006 62.0397 23.9406C61.9397 27.4606 59.8797 32.3706 61.7997 35.3006C63.9697 29.3006 63.0497 21.3206 64.8997 14.7506C71.3897 0.540601 90.6897 0.710601 104.14 1.4406C120.78 2.3806 123.6 21.4006 122.76 33.7706C126.27 17.2706 117.77 -1.2494 98.7897 0.0706009Z" fill="#070D1C"/>
<path d="M104.771 11.64C100.211 12.48 98.2814 16.81 93.4414 16.33C97.2514 20.26 101.581 10.99 106.231 12.05C106.591 11.66 105.071 11.61 104.771 11.64Z" fill="#070D1C"/>
<path d="M83.6893 12.1596C76.7893 11.6596 70.2193 17.7496 70.9093 24.7796C70.8893 25.3096 71.7393 25.3196 71.7493 24.7896C71.6093 13.4896 84.7993 10.1796 92.6893 15.8196C91.0393 13.3096 86.7293 12.3896 83.6893 12.1596Z" fill="#070D1C"/>
<path d="M99.1983 33.6297C99.1983 33.7197 102.738 28.8097 101.688 32.5397C111.518 29.6697 113.808 31.0097 113.808 31.0097L113.688 32.6397C113.688 32.6397 103.038 34.2597 99.6083 36.3897C98.4883 37.0797 99.2083 33.6297 99.2083 33.6297H99.1983Z" fill="#070D1C"/>
<path d="M88.6817 35.8391C89.5617 36.3891 88.3617 33.0091 88.3617 33.0091C88.4417 33.1591 83.6517 29.8291 85.6517 32.4091C85.6517 32.4091 78.3317 31.4991 75.0817 31.9391C71.8317 32.3791 71.4317 33.1891 74.8317 34.1691C78.2317 35.1391 85.8217 34.0591 88.6917 35.8391H88.6817Z" fill="#070D1C"/>
<path d="M98.8583 51.7702C98.6683 51.6402 98.4183 51.6902 98.2883 51.8702C97.1983 51.9402 96.6983 53.0402 95.7283 53.3802C93.8783 54.3702 92.0783 52.8602 90.4883 52.7202C91.3083 55.7402 98.8383 56.1302 98.9583 52.3402C99.0883 52.1602 99.0383 51.9002 98.8483 51.7802L98.8583 51.7702Z" fill="#070D1C"/>
<path d="M98.5198 60.9492C94.1798 61.4192 85.9898 60.2192 84.0898 64.7392C84.3198 65.1292 84.8298 65.2592 85.2198 65.0392C88.6198 63.5392 92.2598 62.7292 95.9698 62.4592C98.6398 61.9992 101.85 62.7792 104.25 61.6192C102.69 60.6192 100.37 61.1492 98.5298 60.9592L98.5198 60.9492Z" fill="#070D1C"/>
<path d="M103.47 63.5996C102.22 64.9996 102.46 68.0296 101.27 69.8396C101.96 72.5296 103.96 63.6596 103.47 63.5996Z" fill="#070D1C"/>
<path d="M94.3797 66.6099C93.7597 66.4499 93.5097 67.3999 94.1397 67.5499C96.7197 67.9999 98.9197 69.5299 101.3 70.3999C100.13 68.7499 96.6597 67.3599 94.3797 66.6099Z" fill="#070D1C"/>
<path d="M94.0314 66.8105C92.4614 67.8905 90.7514 69.7905 88.7314 70.6805C87.5014 73.7705 94.7114 67.6805 94.0314 66.8105Z" fill="#070D1C"/>
<path d="M84.0195 65.3203C85.4095 67.3603 87.2795 70.2503 89.1495 71.3403C89.5195 70.9103 88.8495 70.7903 88.6095 70.5903C87.1595 68.8203 86.2795 66.2403 84.0195 65.3203Z" fill="#070D1C"/>
<path d="M104.97 62.3104C102.79 61.7504 108.41 66.6404 108.74 66.2904C108.62 64.6504 106.35 63.2104 104.97 62.3104Z" fill="#070D1C"/>
<path d="M82.1295 64.3205C81.9795 64.5405 81.5895 64.8205 81.3495 64.9105C81.0095 64.9905 77.0095 65.8305 78.2795 66.3105C79.7095 66.1105 81.2895 65.5605 82.5495 64.7905C82.7795 64.4705 82.4595 64.1405 82.1295 64.3205Z" fill="#070D1C"/>
<path d="M73.25 62.0605C74.06 63.8605 76.61 65.5805 78.46 66.0605C77.04 64.7605 75 62.9405 73.25 62.0605Z" fill="#070D1C"/>
<path d="M113.87 58.1895C112.02 60.3895 110.14 63.2095 108.68 65.6295C110.9 63.8795 112.73 60.7795 113.87 58.1895Z" fill="#070D1C"/>
<path d="M104.979 57.2893C104.689 57.3993 104.759 57.9093 104.689 58.1293C104.639 58.7493 104.559 59.7093 104.409 60.3093C104.429 60.2493 103.879 61.8193 104.739 61.0693C104.919 59.9793 105.649 58.2493 104.979 57.2793V57.2893Z" fill="#070D1C"/>
<path d="M97.13 55.4199C90.45 55.9799 103.47 56.3099 105.24 57.2699C103.94 56.0199 99.56 55.6699 97.13 55.4199Z" fill="#070D1C"/>
<path d="M92.7293 55.8906C91.4093 56.1706 80.5693 59.0306 83.0193 60.1306C85.9793 58.6306 90.4993 57.5006 92.7293 55.8906Z" fill="#070D1C"/>
<path d="M82.1717 59.3498C81.6117 59.7198 81.9217 60.2598 82.0917 60.6598C82.4817 61.2498 82.7017 62.6298 82.9317 63.2798C82.9017 63.1698 83.3517 65.0898 83.6817 63.7498C83.4017 62.7898 82.7717 61.3498 82.8117 60.4698C82.8417 60.5698 82.7517 59.0498 82.1717 59.3498Z" fill="#070D1C"/>
<path d="M109.619 35.4095C105.359 35.3795 103.899 36.2695 101.879 39.9895C102.369 40.7395 104.329 37.3195 104.999 36.7295C107.069 36.9395 110.299 35.1795 111.529 37.4295C112.779 38.5095 112.469 35.0195 109.619 35.4095Z" fill="#070D1C"/>
<path d="M82.6989 36.2891C81.2389 36.4091 79.4689 36.0191 78.2189 36.8891C77.5089 37.1091 73.6689 40.3091 76.0689 39.0591C78.7289 36.7491 82.5789 37.1891 85.8289 37.8191C86.6689 37.8891 85.9789 38.6891 86.6889 38.9091C87.0089 39.0091 87.3489 38.8491 87.4589 38.5391C88.0189 36.0791 84.2089 36.5291 82.6989 36.2991V36.2891Z" fill="#070D1C"/>
<path d="M80.7204 39.0696C81.2604 35.7596 85.4704 36.4496 84.8604 39.7696C84.3204 43.0796 80.1104 42.3896 80.7204 39.0696Z" fill="#070D1C"/>
<path d="M105.909 38.5697C106.479 35.0597 111.029 35.7797 110.369 39.3097C109.799 42.8197 105.249 42.0997 105.909 38.5697Z" fill="#070D1C"/>
</g>
<defs>
<radialGradient id="paint0_radial_3819_2623" cx="0" cy="0" r="1" gradientUnits="userSpaceOnUse" gradientTransform="translate(78.1933 52.3268) scale(7.27 7.13)">
<stop stop-color="#DE8A75"/>
<stop offset="1" stop-color="#E5BCA6"/>
</radialGradient>
<radialGradient id="paint1_radial_3819_2623" cx="0" cy="0" r="1" gradientUnits="userSpaceOnUse" gradientTransform="translate(111.096 47.2362) scale(6.3756 6.2568)">
<stop stop-color="#DE8A75"/>
<stop offset="1" stop-color="#E5BCA6"/>
</radialGradient>
<radialGradient id="paint2_radial_3819_2623" cx="0" cy="0" r="1" gradientUnits="userSpaceOnUse" gradientTransform="translate(189.066 291.506) scale(17.53 17.19)">
<stop stop-color="#DE8A75"/>
<stop offset="1" stop-color="#E5BCA6"/>
</radialGradient>
<clipPath id="clip0_3819_2623">
<rect width="207.74" height="577.7" fill="white"/>
</clipPath>
</defs>
</svg>
