<?xml version="1.0" encoding="UTF-8"?>
<svg id="Ebene_1" data-name="Ebene 1" xmlns="http://www.w3.org/2000/svg" xmlns:xlink="http://www.w3.org/1999/xlink" viewBox="0 0 200 220">
  <defs>
    <style>
      .cls-1 {
        fill: none;
      }

      .cls-2 {
        clip-path: url(#clippath);
      }

      .cls-3 {
        fill: #fff;
      }

      .cls-4 {
        fill: #e5bca6;
      }

      .cls-5 {
        fill: #9c886e;
      }

      .cls-6 {
        fill: #a59fab;
      }

      .cls-7, .cls-8 {
        fill: #ab8f85;
      }

      .cls-9 {
        fill: #aeaba7;
      }

      .cls-10 {
        fill: #bdb8bd;
      }

      .cls-11 {
        fill: #d0b286;
      }

      .cls-12 {
        fill: #d4a44e;
      }

      .cls-13 {
        fill: #070d1c;
      }

      .cls-14 {
        fill: #636567;
      }

      .cls-15 {
        fill: #5b3c27;
      }

      .cls-16 {
        fill: #505359;
      }

      .cls-8, .cls-17, .cls-18 {
        isolation: isolate;
        opacity: .39;
      }

      .cls-17 {
        fill: url(#Unbenannter_Verlauf_2);
      }

      .cls-18 {
        fill: url(#Unbenannter_Verlauf);
      }
    </style>
    <clipPath id="clippath">
      <rect class="cls-1" y="0" width="200" height="220"/>
    </clipPath>
    <radialGradient id="Unbenannter_Verlauf" data-name="Unbenannter Verlauf" cx="-175.06" cy="496.22" fx="-175.06" fy="496.22" r="1" gradientTransform="translate(1657.43 4474.9) scale(8.98 -8.97)" gradientUnits="userSpaceOnUse">
      <stop offset="0" stop-color="#de8a75"/>
      <stop offset=".54" stop-color="#e5bca6"/>
    </radialGradient>
    <radialGradient id="Unbenannter_Verlauf_2" data-name="Unbenannter Verlauf 2" cx="-186.63" cy="514.5" fx="-186.63" fy="514.5" r="1" gradientTransform="translate(3563.56 9895.58) scale(18.99 -18.98)" gradientUnits="userSpaceOnUse">
      <stop offset="0" stop-color="#de8a75"/>
      <stop offset=".54" stop-color="#e5bca6"/>
    </radialGradient>
  </defs>
  <g class="cls-2">
    <g>
      <path class="cls-7" d="m153.53,190.49l-.49,2.61-11.35-.31.09-1.55,11.75-.76h0Zm9.65-7.29l-.52,2.61,4.36-1.89.15-2.22s-3.99,1.5-3.99,1.5Z"/>
      <path class="cls-4" d="m60.94,97.99l-17.17-6.23c-2.23.44-4.02,6.9-4.66,8.97-2.74,5.22-9.96,27.05-9.96,27.05l-15.2,3.56c-4.09.56-10.71-1.02-13.73,3.57-.26,1.38,3.65,2.01,3.65,2.01,9.89.03,47.9.48,58.46.61l-3.95-2.92-4.7-21.09c-1.53.56-3.36,14.9-5.77,16.86-1.07.46-9.02,3.71-7.23-1.07s14.39-18.04,14.39-18.04c0,0,5.86-13.28,5.86-13.28Zm-1.33-52.76c.44-.88,15.68,1.81,15.86,1.46l6.36-5c1.41-2.44,6.52-6.72,8.75-8.45.5-1.24,1.13-4.28,1.37-5.61l3.15-3.08-3.93-7.45.37-3.19-2.61-9.33-14.27-1.01-9.64,21.55-1.96,9.01c1.71,3.19-1.84,9.36-3.44,11.1Z"/>
      <path class="cls-18" d="m90.19,20.98l-7.93-4.1-3.29,6.96.41,4.63,6.21,1.84,6.08-3.96-1.49-5.36h0Z"/>
      <path class="cls-17" d="m37.84,137.04l-8.91-9.05c-6.09,1.49-18.43,3.72-24.65,4.35-2.01.65-7.06,2.66-1.38,4.29,0,0,34.93.41,34.93.41Z"/>
      <g>
        <path class="cls-7" d="m71.94,30.19c-4.13,3.66,8.77,12.51,9.23,12.58l3.12-4.23c-2.32-.05-11.59-5.37-12.36-8.36Z"/>
        <path class="cls-8" d="m90.92,18.49c.38-.39.56-3.96.56-3.96h-3.99s1.31.56,1.98,1.56c.67,1.01,1.07,2.79,1.45,2.4Z"/>
        <path class="cls-7" d="m42.06,93.26c-1,2.6,15.11,12.8,14.6,12.08l1.56-4.42,2.6-2.62-17.01-6.69s-1.75,1.66-1.75,1.66Zm11.18,25.2c-1.56,23.16-16.09,12.47-14.76,18.58.14.23,23.55.53,23.55.53l-3.79-2.65-5.01-16.45h0Z"/>
      </g>
      <path class="cls-15" d="m74,26.62s-2.12,3.69-1.89,4.53c4.36,5.12,9,6.98,17.58,8.2,4.45-.92,1.31-5.94,1.38-7.7l-.51,1.74c-.88-.41-2.03-1.63-2.48-2.48,2.63.53,6.1-.13,3.43-3.41-2.24-1.5-4.81.87-3.61,3.27-1.72,3.88-10.6-3.01-10.79-2.92,0,0-3.1-1.23-3.1-1.23h0Zm-5.08-4.32c-2.47,2.78-.34,11.7-5.62,11.82-8.49-6.94-14.03-25.39,3.27-31.43,5.7-2.11,6.9-2.79,12.49-2.3,2.81.25,11.43,3.3,9.87,4.18-10.51-.78-13.92,7.54-13.89,14.93-3.51-5.24-6.02-1.61-6.13,2.8h0Z"/>
      <path class="cls-3" d="m139.82,202.26l-.41,1.74c-.45.39,30,15.56,31.07,14.94,5.65,1.64,9.02.8,11.33-4.28l-7.46,2.82-16.88-5.89-17.64-9.33Zm28.43-3.24c2.53-.06,9.55,1.13,12.12,1.59.61.88,17.58-.59,18.82-6.49l-10.99,4.45c.55-.09-19.84-1.37-21.01-.62l1.07,1.07h0Z"/>
      <path class="cls-14" d="m141.27,191.63c1.08,1.35,10.46,1.59,12.02.6l.05-1.55c3.07-1.66,10.45-5.54,13.65-6.72l.21-2.25,2.98-2.01c3.38,3.76,9.36,3.92,19.31,5.87,11.69,2.81,13.66,9.96.2,12.69-11.12,2.25-13.98-1.7-22.54-.23,4.14,3.97,10.8,8.13,14.52,13.84.15.68-.38,5.87-6.6,5.68-7.11-.22-18.22-6.5-18.22-6.5l-17-9.01,1.42-10.41h0Z"/>
      <path class="cls-16" d="m144.43,192.75c-1.44,2.94-1.42,9.49.32,12.03l-4.75-2.3,1.21-10.76,3.21,1.03Zm20.78-8.06c3.09,12.9,25.12,9.96,31.45,11.01-10.68,5.75-19.83,1.71-29.28,2.25-2.22-.68-8.04-6.73-7.94-9.65,1.32-1.1,4.18-2.97,5.77-3.62h0Z"/>
      <path class="cls-10" d="m144.59,204.81l-.75,2.02-4.46-2.89.26-1.64,4.96,2.51Zm52.06-8.97c2.49,3.87-14.8,4.91-14.99,4.92-1.05-.28-14.39-1.59-14.64-2.88,11.78-1.13,15.88,4.39,29.63-2.04h0Z"/>
      <path class="cls-3" d="m56.86,134.87c-2.14-3.08-4.71-18.15-3.16-21.67,1.16-1.99,3.47-9.43,4.2-11.72,0,0,2.91-3.3,2.91-3.3-1.85,1.07-21.15-8.31-21.13-9.11l7.34-29.15,5.58-7.63,4.68-4.36,4.76-6.52c3.63.77,10.45,3.44,13.7,5.25,2.73,5.78,1.77,7.78,9.12,6.31l.69.56c10.05,3.1,21.85,46.33,20.55,55.69,0,0-49.22,25.64-49.22,25.64Z"/>
      <g>
        <path class="cls-10" d="m74.03,69.35l-3.68,31.7c-.13,1.51-4.16,2.81-4.64,3.3-.87.88,1.64.4,1.39,1.6-1.09,2.83-3.66,5.56-5.01,7.89l2.47.2,2.75-1.92c-3.3,2.6-5.12,16.42-4.31,19.16l-5.7,3.39c-6.35-11.34-4.68-25.83,3.08-36.5l7.17.11c1.44-7.13,4.76-21.8,6.47-28.93h0Zm1.58-21.45c.21,5.96,7.43,6.9,11,6.52.07-1.19-10.04-6.89-11-6.52h0Z"/>
        <path class="cls-10" d="m76.72,49.19c.3-.46-15.02-5.92-15.91-5.02l.71-2.28,15.2,4.65s.39,2.82,0,2.66h0Z"/>
      </g>
      <path class="cls-12" d="m91.67,70.48l-2.01,6.68,2.95,5.93,7.42,2.04.85-2.41-3.72-10.32-5.48-1.92h0Z"/>
      <path class="cls-9" d="m90.07,57.52c-3.14,5.84.64,9.93,3.15,13.31l3.77,1.2-3.79-10.16-2.95-4.05s-.18-.3-.18-.3Z"/>
      <path class="cls-6" d="m83.65,43.53l4.17,5.34-2.35,3.92c-2.47.08-4.94,2.32-7.18-1.1-3.85-6.82.13-9,5.37-8.15h0Z"/>
      <path class="cls-11" d="m58.24,134.52c4.87-3.04,27.21-23.11,41.04-23.32,0,0,12.26-3.92,12.26-3.92l1.53,2.07c2.84-.91,18.54-3.49,20.28,4.18,12,1.95,22.76,9.9,21.92,24.05,0,0,6.31,19.44,6.31,19.44l10.02,20.77-4.44,3.73-4.12,1.72-.39,2.05c-3.59,3.67-16.67,9.09-21.59,6.09-1.05-1.15-10.1-47.69-10.8-50.82l1.5-3.45c-16.89.62-51.81-.02-69.03.04-4.47-.02-4.47-2.62-4.47-2.62h0Z"/>
      <path class="cls-5" d="m102.51,123.69s7.59-1.07,14.57-1.45c6.05-.6,17.73,2.59,16.11-3.76-4.8.2-11.42,1.75-16.72.26-.96-.28-2.46-3.65-2.46-3.65l-.43,5.88-5.82.76s-5.25,1.96-5.25,1.96Zm-31.68,1.81c-7.69,10.7,31.22,5.72,29.13,6.45,0,0,30.44,2.21,33.97,1.85,2.11-.21,4.03,23.22,4.03,23.22l6.79,35.26-3.66-.54c-.18-2.25-12.32-45.71-10.04-55.14,0,0-.67,1.15-5.3.93-28.16-.79-44.61-.15-64.7.03l-3.39-2.65s13.17-9.41,13.17-9.41Zm87.31,35.11l8.55,21.19-3.94,1.58c-1.79-5.58-4.21-16.93-4.61-22.77Z"/>
      <path class="cls-3" d="m89.5,16.6l-1.26,2.39c-.18.3-3.53-1-3.45-1.36l1.99-1.51,2.57.43.15.05h0Z"/>
      <g>
        <path class="cls-13" d="m76.78,64.71c-4.01,3.38-4.02,10.35-5.56,15.09-.55,3.13-5.26,17.22-3.29,18.97.26-.02.47-.24.46-.51-.17-2.14.58-5.21.92-7.34.57-2.54,1.93-8.52,2.54-10.98,1.53-5,1.38-11.16,4.93-15.24h0Z"/>
        <path class="cls-13" d="m39.78,89.04c5.25,4.28,13.75,8.44,21.18,9.5,1.84-.04,6.13,1.65,7.2-.08-10.48-.92-19.13-3.51-28.38-9.42Zm19.91-44.33c-1.19.95-2.5,3.11-3.77,4.19-12.31,10.34-12.21,20.03-15.05,34.63-.42,1.45-2.24,8.68,0,3.26,2.14-4.67,2.57-10.36,3.53-15.38,1.78-14.59,8.64-16.38,15.29-26.7h0Zm-16.47,47.3c-1,.76-1.97,1.79-2.56,2.9-.46.71-1.83,5.85.06,3.91-.11-3.5.83-4.78,2.5-6.81h0Z"/>
        <path class="cls-13" d="m40.13,98.89c-3.43,3.21-4.44,9.31-6.13,13.61-1.19,4.31-3.71,11.25-4.89,15.39,2.46-4.28,4.04-11.12,5.91-15.81.63-1.54,3.56-9.14,4.38-10.4.23-.69,1.93-2.49.72-2.79Zm20.56-.75c-4.29,2.58-4.43,8.93-6.47,13.05-3.5,6.29-10.05,10.36-13.3,16.9-1.02,2.89-1.5,6.16-3.37,8.49,4.09-.51,2.93-7.36,5.58-9.91,3.41-5.95,9.77-9.84,12.31-16.29,1.42-3.8,1.78-8.55,4.94-11.36.26-.19,1.04-.99.3-.87h0Z"/>
        <path class="cls-13" d="m52.6,115.44c-2.06,4.13-2.01,11.28-5,15-1.73.79-4.17.86-6.06,1.02-1.99.89,5.8.12,6.39-.6,2.63-3.64,4.27-10.92,4.68-15.41h0Zm.92-1.4c-1.03,4.34.12,18.94,3.81,21.12-1.91-6.35-4.31-13.85-3.81-21.12Z"/>
        <path class="cls-13" d="m99.3,111.22c-16.94,1.2-29.86,15.27-42.68,23.92,4.27,1.4,11.52-8.07,15.38-10.47,7.78-6.5,17.43-12.07,27.3-13.45h0Z"/>
        <path class="cls-13" d="m99.26,110.67c-.52.16-.58.94-.08,1.17,3.94,2.6,2.61,8.52,3.1,12.43.69-3.77,1.47-11.97-3.01-13.6Z"/>
        <path class="cls-13" d="m111.8,107.09c-2.07,0-3.73,1.65-5.81,1.76-2.34.38-4.88.4-7.04,1.49-.85.43-.14,1.76.69,1.3,1.56-.95,3.43-1.3,5.18-1.73,2.44-.34,4.95-1.92,6.97-2.82Z"/>
        <path class="cls-13" d="m111.48,107.11c2.36,4.01,2.49,9.05,1.62,13.57-.04.37.23.71.61.75,2.07-2.13.28-12.22-2.23-14.33Z"/>
        <path class="cls-13" d="m113.04,120.5c-3.41.68-8.99.43-10.61,3.89,2.22-1.92,5.31-2.16,8.13-2.38.73-.06,1.91-.06,2.63-.16.88-.08.74-1.46-.14-1.35h0Zm-53.53,14.49c-2.22,2.09,4.83,3.13,6.27,3.08,4,.22,10.73-.68,14.73-.48,9.77.14,21.6.52,31.38.18,6.45-.85,13.45.8,19.75-.88-9.2.38-29.67.42-42.57-.05,0,0-10.57-.26-10.57-.26-6.31-.19-13.32,1.88-18.99-1.59h0Z"/>
        <path class="cls-13" d="m40.61,136.99c-.72.15-2.73-.35-2.77.23,6.46.12,19.28.51,25.87.69,1.67-1.5-9.01-.43-10.28-.78-3.19-.04-9.63-.11-12.82-.14Zm91.22-.81c-4.06,1.49-1.03,10.23-.51,13.42,2.78,12.01,5.23,26.91,8.52,38.71.28.84.88,2.43,1.26,3.05-.14-.52-.22-1.11-.29-1.62-3.82-12.55-6.92-33.01-9.58-45.92-.16-1.93-.53-4.16.37-5.95.59-.64,2.21-1.75.23-1.69Z"/>
        <path class="cls-13" d="m161.64,185.32c-5.81,3.98-13.19,8.39-20.56,5.95,1.03,3.79,24.88-3.02,20.56-5.95h0Z"/>
        <path class="cls-13" d="m141.23,191.6c-.48.47-3.13,13.72-.47,9.98-.66-3.3.59-6.81.47-9.98Zm14.19-56.01c.62,12.21,2.19,25.76,4.3,37.86.61,2.51,1.94,8.21,2.65,10.62.61,1.82-2.79,1.97-2.64,3.42,1.2.94,3.26-1.35,3.79-2.45.29-.94-.52-2.58-.68-3.52-.86-3.13-2.55-9.77-3.12-12.91-1.47-10.48-3.24-22.51-4.3-33.02Z"/>
        <path class="cls-13" d="m133.41,112.91c-.78-.1-.95,1.12-.16,1.23,13.32,1.3,23.75,12.81,21.83,26.39.03,10.13.02,22.74-.69,32.85.02,1.06-.55,4.31-.3,5.04,1.46-11.38,1.61-22.9,1.66-34.36,1.85-15.74-5.7-29.23-22.33-31.15h0Zm37.56,63.96c-.08.05-.1.16-.05.24-1.31,3.13-4.87,4.62-7.84,6.02.81,1.05,11.9-4.68,8.12-6.2-.05-.08-.15-.1-.23-.05h0Z"/>
        <path class="cls-13" d="m155.49,136.94c1.18,9.08,5.12,17.88,8.68,26.33,1.1,1.5,6.69,17.29,7.63,13.48-6.56-12.66-12.77-26.05-16.31-39.81h0Zm-23.01-17.09c-5.68,1.97-12.34,0-18.09.34,1.49.33,4.92.45,6.47.77,1.07.48,15.08.93,11.62-1.11h0Z"/>
        <path class="cls-13" d="m123.68,107.89c-1.75.06-4.36.3-6.12.47,0,0-2.88.25-2.88.25-.68.21-1.76-.53-2.11.28.26,1.75,4.2.37,5.48.53,10.31-.96,15.51-1.8,15.08,10.67,1.54-6.5-.46-13.02-9.45-12.2Zm-38.3-55.06c-.79.28-.16.96.27,1.26,5.72,3.5,8.25,10.04,10.38,16.08,4.65,12.48,10.52,25.28,9.93,38.88,1.83-10.97-9.84-51.34-20.58-56.22h0Zm-14.24,50.1c-2.18.34-5.91,1.46-7.75,2.47,2.5-.58,5.28-1.8,8-1.58-.47.47-1.47,1.88-.05,1.5,1.25-.72,1.82-2.53-.2-2.39Zm.4.92s.06.03.04.05c-.02.01-.03-.03-.04-.05Zm-1.75,1.83c-6.72,2.54-12.72,14.32-.8,5.67,2.47-2.13,14.93-1.75,6.12-2.04-3.99-.88-12.36,6.04-12.47,4.05.91-1.79,2.34-3.33,3.75-4.73.04-.24,4.5-2.6,3.4-2.94h0Zm69.98,95.96c-.06-.02-.13.02-.15.08-2.28,2.06,1.07,3.65,2.77,4.44,1.69.92,5.96,2.99,7.74,3.87,4.95,2.42,11.73,6.06,16.98,7.89.74.16,2.89,1.15,3.64,1.03-.42-.35-1.1-.46-1.62-.65-5.45-1.84-11.83-4.94-16.81-7.79-2.98-1.49-7.36-3.65-10.24-5.31-.76-.74-2.58-1.05-2.24-2.38.15-.32.21-.7.03-1.02.02-.06-.02-.13-.08-.15Zm41.52,10.42c1.03,5.8-5.1,8.86-10.12,6.97,3.35,1.32,7.64,1.19,9.76-2.17.84-1.21,1.79-3.83.36-4.8h0Z"/>
        <path class="cls-13" d="m139.96,201.85c-1.72.82,4.13,2.72,4.32,3.09,1.62.86,4.99,2.67,6.58,3.52,6.47,3.49,14.92,8.19,21.79,8.77-11.58-2.58-22.12-10.52-32.69-15.38h0Zm41.62,10.12c-.11,3.82-4.36,6.1-7.91,5.22,2.68,1.94,10.05-1.79,7.91-5.22h0Z"/>
        <path class="cls-13" d="m159.57,188.52c.84,6.71,9.94,11.2,14.42,15.68.82.66,4.17,4.03,4.98,4.82.68.41,2.82,4.99,3.02,3.03-3.04-5.21-9.57-9.89-14.14-13.74-3.44-2.54-7.3-5.49-8.27-9.79Zm-6.08,2.27c-.54,5.2-8.15,8.32-7.97,13.4.82-.02.54-1.42.97-1.96.52-1.28,1.54-2.57,2.37-3.68,1.71-2.21,4.98-4.77,4.62-7.77h0Z"/>
        <path class="cls-13" d="m152.97,191.91c-3.58,1.17-7.42.9-10.99.11,1.64,1.17,11.48,1.77,10.99-.11Zm14.22-10.07c-.22,2.12-.77,4.7-2.13,6.56-1.09,1.72-2.68,3.55-2.42,5.73,0,.48.77.49.77,0,.38-4.29,4.8-7.77,3.79-12.28Z"/>
        <path class="cls-13" d="m167.13,183.79c-1.06.35-2.9,1.14-3.98,1.51-1.08,1.59,3.95-1.2,3.98-1.51Zm3.48-4.11c-1.9,3.71,14.5,5.46,17.09,6.04,26.05,6.66-.29,16.2-12.65,12.03-2.54-.4-5.37-.19-7.9.16,1.69.34,4.33-.29,6.35.09,5.32.72,10.77,2.08,16.08.49,5.78-1.14,14.98-4.83,6.4-10.48-7.62-5.07-18.2-2.45-25.36-8.32h0Z"/>
        <path class="cls-13" d="m199.22,193c-.8,5.54-7.81,6.46-12.45,7.13-.39.05-.31.67.09.6,4.42-.91,12.34-2.03,12.36-7.74h0Z"/>
        <path class="cls-13" d="m168.9,198.93c-.53.34,1.96.23,1.97.31,1.61.25,4.19.76,5.81.99,1.67.2,10.26,1.72,10.1-.02-5.92,1.18-11.98-1.27-17.88-1.29h0ZM31.3,131.38c-3.07-.28-7.41,1.26-10.45,1.75-2.48.36-6.27-.97-7.7,1.76-.25,1.02,1.24,2.49,2.18,2-.32-.73-2.42-1.48-.85-2.3,1.55-.96,3.48-.74,5.22-.78,5.14-.28,10.34-3.88,15.4-1.16-.48-.8-2.64-1.09-3.8-1.26h0Zm-2.8-3.57c-6.66,1.39-13.63,3.61-20.5,3.49-8.08-.19-5.82,6.67.85,6,6.65.39,5.03-.78-.39-.59-2.05.34-7.24-2.1-4.07-4.16,3.1-1.07,6.65-.27,9.83-1.11,3.7-.74,8.15-1.94,11.82-2.82-.03-.1,3.36-.45,2.46-.81h0Z"/>
        <path class="cls-13" d="m3.11,132.53l-.09.03c-.69.14-.47.1-1.05.34-.48.41.24.81.55.36.12-.11.42-.34.6-.44-.42.3.54-.3-.02-.28h0Zm-2.41,1.18c-2.09,1.61,1.88,4.31,3.51,3.29.4-.17.12-.8-.27-.61-1.29.43-4.7-.89-3.08-2.46.14-.1-.02-.32-.16-.21Zm36.28,3.14c-2.99.3-6.89-.32-9.66.34-.12.45,4.8-.16,4.92-.04-.02-.06,5.08-.08,4.74-.29Zm-11.73.09c-.77.53,1.02.31,1.23.32-.61.01.65.06.1-.24-.31-.02-.64,0-.96-.04.32,0,0,0-.37-.04h0Zm-8.72-.29c-1.8.89,7.61.48,7.46.46.02-.21-7.38-.39-7.46-.46ZM88.67,63.27c-.42.94,3.52,7.06,4.37,6.96-2.1-1.8-2.71-5.11-4.37-6.96Z"/>
        <path class="cls-13" d="m90.06,57.77c-.37.15-2.45,7-.81,5.29-.08-.14,1.12-5.24.81-5.29h0Zm1.66,12.56c-.31.24-3.92,9.42-1.74,7.35.38-2.06,1.57-5.38,1.74-7.35h0Z"/>
        <path class="cls-13" d="m91.87,70.39c-.32.3,1.87.84,2.18,1.13.74.14,2.41,1.14,2.87,1.06.31.39.57-.19.25-.38-1.58-.88-3.54-1.36-5.3-1.8h0Zm5.15,1.92s.1,0-.04.08c.02-.03.02-.06.04-.08Zm-7.36,4.72c-1.97-.43,2.74,6.02,3.15,6.25.28-.39-.73-1.4-.9-1.98-.68-1.35-1.15-3.24-2.25-4.27h0Z"/>
        <path class="cls-13" d="m92.9,83.08c-.47.38,1.12.51,1.43.68.67.19,3.8,1.06,4.38,1.27,1.84.87,2.77.58.59-.64-2-.89-4.29-.89-6.41-1.31h0Z"/>
        <path class="cls-13" d="m100.71,82.8s0,.02,0,.03c-.03,0-.1.16-.12.2-.54.37-1,1.24-1,1.87-.13.54.96,1.42.91-.76,0,.21-.14,1.25.09.84.19-.55.39-1.31.2-1.87.04-.12.09-.3-.07-.31h0Zm-.16.28s.02.03.03.05c-.01.17,0-.11-.03-.05Zm-9.18-6.4c.19,1.46,1.74,4.35,2.36,5.67-.38-1.39-1.45-4.52-2.36-5.67Zm.97-.34c.11,1.36,1.41,3.97,1.92,5.31-.25-1.72-.98-3.93-1.92-5.31Zm-.85-15.89c-1.32-.36-.54,4.5-.28,3.31.08-.66-.13-1.94.29-2.68.05-.05.29.15.29.15-.17.9,0,0,.07.08,1.1.25.36-1.04-.38-.86Zm-.28,3.31c.13-.4.67-1.34.32-1.15s-.09.12-.32,1.15Zm5.39,8.23c-.41.03-.76.82-.18.99-.26.84,1.6,3.86,1.55,1.66-.44-.81-.11-2.67-1.37-2.66h0Zm.31,1s-.07.02-.1.03c.02-.02.06,0,.1-.03Zm-35.83-30.3c-.64.86-1.44,1.84-1.92,2.85,1.04-.37,1.95-1.8,1.92-2.85Zm1.78-9.3c.35,1.96.78,4.18.22,6.25.88-1.63,1.44-5.03-.22-6.25h0Z"/>
        <path class="cls-13" d="m68.92,22.12c-3.04,3.19.07,10.17-5.51,11.47-.46.13-.25.86.21.71,5.85-1.16,2.6-8.59,5.3-12.18Zm-9.4-15.31c-7.54,6.96-5.08,19.6,2.23,25.84,2.2.08-4.81-5.74-4.88-7.36-2.43-5.93-1.6-13.94,2.65-18.48h0ZM78.49.1c-6.51-.22-13.81,1.83-18.55,6.29,2.51-1.57,5.22-3.26,8.16-4.11,7.2-2.69,15.2-1.66,21.36,2.55-2.03-3.35-7.2-4.39-10.98-4.72Z"/>
        <path class="cls-13" d="m84.93,4.11c-2.87.49-7.03,3.32-7.57,5.76,1.96-3.47,6.3-5.75,10.21-4.42.62.33,2.45-.71,1.22-.91-1.3.08-2.59-.43-3.87-.43Zm-8.83,8.31c-.87.05-2.03,8.95-.63,7.24-.02-2.41.03-5,.63-7.24h0Z"/>
        <path class="cls-13" d="m71.76,16.33c-5.35.16-2.36,15.86,1.7,10.04-2.09,1.54-3.07.55-3.4-1.76-1.7-2.28,0-10.75,3.26-6.3,3.53,4.11.57-2.26-1.56-1.98Z"/>
        <path class="cls-13" d="m73.62,26.96c-.36,1.64-2.74,3.25-1.3,5.01.11.56,1.69,1.12,1.23.26-2.93-1.63.41-3.3.06-5.27h0Z"/>
        <path class="cls-13" d="m73.56,32.57c2.74,4.46,10.71,6.25,15.75,6.84-4.4-.99-10.07-2.29-13.88-5.65-.48-.36-1.24-1.27-1.88-1.19h0Z"/>
        <path class="cls-13" d="m90.72,33.32c-.45-.05.13.46.18.64,1.46,1.81,1.35,5.63-1.65,5.33,3.51,1.28,3.93-4.62,1.47-5.97h0Zm-16.42-6.91c-1.69.29,1.57.8,1.94,1.27,1.1.49,3.99,2.47,5.05,2.68-1.07-.87-5.59-3.72-6.99-3.95h0Z"/>
        <path class="cls-13" d="m91.2,31.21c-.39,1.19.02,2.9.61,3.99.03-1.29-.57-2.7-.61-3.99Zm.93-1.15c-1.08,1.03-2.66.52-3.92.52.66.53,4.46,1.25,3.92-.52h0Zm-1.19-3.05c-.43,0-2.23-.02-1.8.44,1.78-.28,2.6-.1,2.78,1.82.87,1.07,1.12-2.46-.99-2.26h0Z"/>
        <path class="cls-13" d="m94.57,24.87c-.87.77-1.72,1.8-2.6,2.6.04.67,4.02-2.13,2.6-2.6h0Z"/>
        <path class="cls-13" d="m91.59,14.4c-.24-.08-.25,1-.32,1.09-1.01,2.23,1.12,4.39,2.05,6.26,0,0,1,2.01,1,2.01.15.36.31,1.98.82,1.34.51-3.14-3.92-5.84-3.62-8.98-.1-.41.34-1.43.08-1.72h0Z"/>
        <path class="cls-13" d="m88.77,3.99c-.54-.08-.27.5-.07.72.26.54.68,1.95.88,2.53.73,1.98,1.29,5.51,2.04,7.33-.31-3.31-1.47-7.49-2.85-10.58h0Zm-.75,11.68c-1.87-.64-5.16,3.96-1.78.93,1.01-.29,2.18.04,3.21.04,1.42-.53-.81-1.14-1.43-.97h0Z"/>
        <path class="cls-13" d="m87.77,17.31c.49-1.88,2.36-1.37,1.83.5-.49,1.88-2.36,1.37-1.83-.5Zm3.52-2.4s-1.69-.28-3.4-.38-3.05.74-3.45.01c-.73-1.32,5.37-1.16,5.76-1.14.09,0,.13-.69.49-.46.59.06,2.34,1.58.6,1.97h0Zm-31.28,25.36c1.17-1.82,14.47,3.73,16.36,3.82,3.35-4.65,12.1-1.03,12.31,4.47-.12,3.54-3.33,5.45-5.57,4.63,5.93-.45,3.4-9.38-1.92-9.27-4.51-.2-4.07,5.28-3.57,6.66.02.3-2.59-3.64-2-3.88l-14.06-4.24c-.75-.61-2.58-.1-1.54-2.19h0Z"/>
        <path class="cls-13" d="m77.67,46.67s-.03,0-.03,0c-3.2,5.08,4.6,10.41,7.79,4.42.65-1.28-.23-.72-.59.05-2.32,4.31-8.43,1.34-7-3.17.05-.45.25-1.03-.17-1.31Zm6.75-8.29c-4.56,3.54-3.11,6.35,0,0h0Z"/>
      </g>
    </g>
  </g>
</svg>