<svg xmlns="http://www.w3.org/2000/svg" width="191" height="143" fill="none"><g clip-path="url(#C)"><path d="M109.436 84.954l-2.744-11.035 5.093-6.148 2.799-6.714-.912-9.449s1.159.856 1.917.253 1.116-2.669 1.116-2.669l1.178-13.607-.437-1.244.218-11.113S111.32 9.086 96.296 7.832c-12.176-1.016-25.755 2.654-25.755 2.654L57.399 36.615s-2.134 9.343-1.207 13.833 4.913 4.125 4.913 4.125l5.912 17.033v6.733l-2.896 6.144 2.543 19.158s17.71 6.855 28.403 2.183 14.369-20.869 14.369-20.869z" fill="#e5bca6"/><g fill="#ab8f85"><path d="M67.289 77.505s14.083 15.225 18.904 16 21.431-14.449 21.431-14.449l-.601-5.678s-6.836 8.65-14.201 10.495-15.418-2.398-15.418-2.398l-10.115-9.114v5.146zm11.998 27.46s2.25-8.479-1.294-14.067-8.28-8-8.28-8l2.574 22.225 6.999-.158z"/><path d="M99 35s-1.48 1.465-2.648 3.2-1.459 4.205-2.023 3.743-.233-5.59-.233-5.59L99 35z" fill-opacity=".7"/></g><path opacity=".395" d="M63.552 44.563s3.806-1.165 7.642-.839 7.704 2.142 7.704 2.142l2.938 6.345s-6.612 6.127-10.654 5.888-5.985-3.782-7.835-6.444.205-7.092.205-7.092z" fill="url(#A)"/><path opacity=".407" d="M98.551 45.49s3.558-1.415 6.972-1.761 6.686.375 6.686.375 3.3 5.053 1.593 8.404-4.291 4.997-8.421 4.997-6.391-1.994-8.099-4.997 1.269-7.017 1.269-7.017z" fill="url(#B)"/><g fill="#5b3c27"><path d="M113.302 52.518L103.1 66.67s-3.832-4.346-4.276-3.349c-.593 1.335-2.647 7.544-2.647 7.544l-7.166-3.069-5.322 4.041-1.965-2.418-3.812-4.356-4.621 1.819-6.074-5.004-5.422-7.333s-2.313 2.587-.637 7.069 7.344 10.862 7.344 10.862 5.156 6.545 7.905 7.985c4.503 2.36 9.613 4.498 16.024 3.798 3.506-.382 7.105-3.46 12.572-9.065s7.866-7.498 9.3-13.354c.798-3.253-1.004-9.322-1.004-9.322zM56.516 37.53l1.899-21.019s1.448-5.192 5.973-8.621 12.128-5.095 12.128-5.095 9.64-1.964 17.72-1.237 8.978-.204 14.599 4.143 5.722 5.95 7.885 13.247.769 15.94.769 15.94-.839.1-1.575 1.313-1.37 3.541-1.37 3.541-.196-15.725-4.327-22.212-9.828-5.416-12.439-4.093c-4.565 2.315-6.805 4.931-8.12 4.093-3.6-2.295-7.173-4.073-12.568-4.244s-7.179 3.241-8.956 5.083c-2.837 2.94-1.826 7.179-1.826 7.179l-3.074 15.264s-2.542-4.386-4.307-5.011c-.899-.319-2.412 1.73-2.412 1.73z"/><path d="M78.163 65.524l-.93-4.867s5.886-3.387 11.563-4.138 11.144 1.133 11.144 1.133l-.942 4.865-10.391-.181-10.444 3.188z"/></g><path d="M155.621 192.342s14.76-2.094 24.16-5.643 13.442-8.551 13.442-8.551-3.401-17.754-10.526-36.66-15.487-36.73-17.972-38.963c-4.417-3.971-8.462-3.134-16.52-6.988s-8.587-4.416-15.712-8.426c-4.003-2.254-23.432-6.655-23.432-6.655s-2.628 13.435-9.033 19.614-9.09 5.314-16.587 5.104-8.674-.749-13.401-5.945-5.508-14.838-5.508-14.838l-22.827 9.756s-25.317 9.116-29.445 14.598c-5.127 6.809-8.526 52.878-8.526 52.878s-5.021 25.712-8.356 35.594c-1.194 3.537 6.667 5.658 13.921 6.973s15.504-.518 15.504-.518l.287 37.712c2.836 24.704-9.337 45.428-4.269 48.513 7.788 4.742 49.13-6.046 49.13-6.046s37.116-1.02 47.091.136c19.708 2.285 43.591 11.606 45.639 8.092 5.208-8.934-5.992-18.126-7.26-43.033-.375-7.358-.945-13.948-.951-21.512-.013-18.038 1.15-35.194 1.15-35.194z" fill="#fff"/><g fill="#bdb8bd"><path d="M79.291 104.916s-.908 2.26-3.767 2.846-6.8-.424-6.8-.424l5.884-4.133s.874.818 2.257 1.277c1.132.375 2.425.434 2.425.434zm23.572-2.478s3.361 3.04 7.411 2.609 6.693-1.266 9.768-5.264 3.035-6.127 2.536-10.727-5.511-6.743-5.511-6.743l-14.204 20.126zm46.606 22.769l10.18 33.665 9.04 31.43-12.965 2.592-2.829-42.933-3.426-24.754zm-122.896 7.895l-6.741 72.29 5.272-1.525 1.469-70.765z"/></g><path d="M96.102 156.379l6.581-4.998.059-19.483s-15.13-11.355-16.575-10.62c-1.334.68-13.882 12.102-13.882 12.102l1.459 19.769 10.573 5.036 11.785-1.806z" fill="#aeaba7"/><g fill="#a59fab"><path d="M108.576 80.457l-7.432 2.619-2.238 10.485 6.617 7.373 6.583-5.092s5.511-1.823 5.437-4.876c-.053-2.202-2.704-7.043-2.704-7.043l-6.263-3.466zm-49.549 9.157l5.635-4.86 7.009 6.223.33 11.176-6.354 2.974-6.423-5.357s-2.485-1.252-2.534-3.79 2.337-6.365 2.337-6.365z"/></g><g fill="#fff"><path d="M106.267 37.51c1.664 1.121-.028 3.967-.028 3.967s-1.873 1.06-4.191.906-5.083-1.522-5.083-1.522l2.64-3.638s4.997-.833 6.662.288zM81.69 38.749s.851 2.438-.818 3.625-3.573 1.002-6.162.331-4.486-2.609-4.486-2.609l3.338-2.392 4.45-.21 3.678 1.255z"/></g><g fill="#070d1c"><path d="M118.473 81.295c-.382-.102-.77.112-.873.487s.114.769.497.87l2.904.842 2.258.871 2.799 1.166 3.778 1.963 5.554 2.79 7.465 3.483 4.455 1.771c3.458 1.357 7 2.498 10.46 3.852.792.31 1.57.65 2.348.989 1.007.438 2.062.914 2.845 1.697.301.301.498.661.723 1.019l.677 1.092c.354.556.719 1.121 1.038 1.697.442.799.831 1.624 1.279 2.421l2.454 4.383c.357.658.653 1.342.993 2.008l2.499 4.797 2.152 4.325c1.084 2.267 2.109 4.563 3.116 6.863l1.399 3.159c3.053 7.285 5.773 14.713 7.977 22.288 1.248 4.29 2.402 8.643 3.296 13.019l1.295 6.199c.143.635.181 1.306.346 1.933.124.477.356.955.526 1.417.004.026.02.049.046.045s.049-.019.045-.045c.025-.491.098-1.028.075-1.52-.031-.649-.217-1.3-.286-1.948-.208-1.957-.541-3.875-.948-5.801l-2.137-9.447c-1.606-6.194-3.474-12.329-5.629-18.361-1.101-3.081-2.351-6.1-3.567-9.137l-.979-2.42c-1.219-2.826-2.554-5.595-3.853-8.384-.676-1.453-1.409-2.867-2.137-4.296-.584-1.147-1.147-2.314-1.776-3.439-.367-.656-.78-1.29-1.144-1.948-.928-1.677-1.836-3.366-2.86-4.989-.367-.583-.784-1.134-1.158-1.712-.597-.922-1.123-1.887-1.701-2.82-.356-.574-.685-1.076-1.189-1.535-.589-.536-1.316-.924-2.017-1.299-1.565-.836-3.249-1.446-4.906-2.081-3.368-1.29-6.725-2.644-10.054-4.029-5.246-2.183-10.141-5.074-15.247-7.543-1.503-.727-3.056-1.288-4.605-1.904l-2.303-.945c-.968-.373-1.961-.663-2.95-.974s-1.967-.623-2.98-.871zm29.87 39.851a.31.31 0 0 0-.226.384c2.406 8.479 3.34 17.299 4.169 26.037l.737 8.93c.123 2.208.141 4.419.271 6.627l.753 14.008.406 15.217c.017.578.51 1.035 1.099 1.019s1.055-.5 1.038-1.077l-.677-15.735-.707-13.55c-.171-2.48-.485-4.95-.723-7.424l-.797-8.148c-.252-2.215-.583-4.424-.919-6.627l-.843-5.403c-.821-4.726-1.968-9.397-3.19-14.037-.046-.168-.22-.266-.391-.221z"/><path d="M139.916 120.149c-.078.06-.091.175-.03.251.361.653.836 1.215 1.234 1.845l3.763 6.347 1.821 3.675 2.905 7.218.647 1.476.437.989.511.989c.1.281.406.422.693.325s.446-.399.346-.679c-.105-.354-.154-.731-.226-1.093-.072-.356-.212-.684-.316-1.033l-.467-1.55c-.906-2.477-2.004-4.903-3.19-7.262-1.029-2.042-2.123-4.025-3.417-5.919l-1.866-2.642c-.448-.586-.97-1.118-1.445-1.682-.374-.445-.705-.838-1.144-1.225-.061-.077-.178-.09-.256-.03zM30.784 125.73c-.058-.025-.126.002-.15.059-.266.295-.524.588-.843.826-.676.506-1.467.82-2.092 1.403-.46.429-.833 1.018-1.099 1.579-.539 1.139-.557 2.428-.632 3.661l-.271 4.265c-.383 4.58-.537 9.165-.707 13.757-.074 1.983-.063 3.979-.12 5.963-.458 15.885-.331 31.773-.241 47.661l.166 19.129.135 6.332c.027 1.24.047 2.483.15 3.72 0 .151.132.266.286.266s.271-.115.271-.266c.115-1.396.119-2.793.15-4.192l.09-6.377.03-21.963.406-31.41.421-13.933.632-11.1.391-5.993.135-2.406c.115-1.396.298-2.783.436-4.177.051-.511.052-1.067.226-1.564.277-.796.934-1.392 1.355-2.111.534-.913.818-1.944.933-2.982.025-.056-.002-.123-.06-.147zm29.032-39.843a.44.44 0 0 0-.331.044c-3.41 1.895-6.98 3.483-10.626 4.886-2.586.995-5.234 1.847-7.856 2.745l-7.48 2.583c-.666.224-1.336.415-2.002.635s-1.314.487-1.972.723c-1.622.581-3.215 1.211-4.771 1.948-1.965.932-3.838 2.036-5.674 3.188-1.793 1.125-3.637 2.277-5.117 3.794-2.77 2.836-4.223 6.681-5.253 10.406-.944 3.417-1.511 6.913-1.972 10.421-.456 3.467-.815 6.94-1.159 10.42l-1.355 12.473c-.54 4.038-1.234 8.056-1.821 12.088-.994 6.817-1.939 13.646-3.326 20.399-.684 3.328-1.478 6.644-2.498 9.89a120.43 120.43 0 0 1-1.099 3.306c-.186.535-.412 1.062-.557 1.609-.073.275-.113.561-.166.841-.017.041.003.086.045.103a.08.08 0 0 0 .105-.044c.162-.238.356-.458.497-.709.414-.739.679-1.602.978-2.39.529-1.392.97-2.824 1.385-4.251 1.193-4.103 2.131-8.304 2.905-12.502 1.107-6.006 1.977-12.032 2.89-18.067l1.881-12.517c.573-4.548.969-9.113 1.475-13.668.603-5.427 1.191-10.888 2.559-16.192.824-3.195 1.933-6.42 3.883-9.137 1.269-1.767 2.938-3.052 4.741-4.265 3.108-2.092 6.623-3.569 10.069-5.033 2.547-1.083 5.078-2.22 7.691-3.144l8.955-3.099 3.898-1.461c3.882-1.434 7.668-3.076 11.198-5.225a.44.44 0 0 0 .151-.606.43.43 0 0 0-.271-.192zm12.915 47.097c-.484.005-.863.397-.858.871l.12 2.244.286 3.808.572 4.517.557 5.963.045 1.491a.32.32 0 0 0 .316.324c.178.003.329-.135.331-.31.269-3.527-.13-7.063-.346-10.583-.092-1.489-.23-2.995-.241-4.487-.007-.997.113-1.999.106-2.996-.005-.475-.404-.846-.888-.842z"/><path d="M85.899 121.196c-.2-.017-.406.042-.572.178a163.43 163.43 0 0 0-8.79 7.69l-1.099.974-.994 1.077c-.499.514-1.122.967-1.505 1.58-.137.219-.22.461-.331.694-.074.07-.071.192 0 .265s.182.07.256 0c.241-.1.494-.169.722-.295.641-.352 1.121-.938 1.671-1.402l1.144-.915 1.069-.989 1.114-.945 1.069-.989 1.113-.93 3.853-3.291 1.716-1.344a.77.77 0 0 0 .105-1.092.8.8 0 0 0-.541-.266zm1.295-.121c-.074-.048-.177-.014-.226.059s-.029.159.045.207l8.022 5.343 3.236 2.376 1.294.945 3.056 2.597a.69.69 0 0 0 .948-.132.64.64 0 0 0-.135-.915l-4.756-3.056-2.709-1.726c-2.899-1.931-5.786-3.9-8.775-5.698z"/><path d="M103.04 132.844c-.315 0-.571.251-.571.561l.241 11.439-.061 5.668c-.008.105.059.199.166.207s.203-.073.211-.178l.286-2.11c.115-1.189.116-2.394.165-3.587l.075-2.155-.045-2.155.106-7.129c0-.31-.257-.561-.573-.561zm-20.905-1.787c-.861.027-1.671.969-2.182 1.565l-.557.679-.527.708-.497.694-.812 1.152c-.167.196-.141.485.06.649s.495.137.662-.059l.497-.487c.899-1.063 1.412-2.408 2.333-3.454.261-.297.765-.914 1.234-.768.602.188.882.986 1.129 1.476.046.121.178.193.301.148s.181-.19.135-.31c-.098-.362-.223-.675-.406-1.004-.137-.245-.276-.482-.497-.664-.289-.238-.586-.333-.873-.325zm10.535-.135c-.562.153-1.199 1.256-1.219 1.786-.002.054.053.423.06.472-.01.054.035.108.09.118s.11-.019.12-.074l2.167.561c.701.211-1.391-.444-2.047-.767-.066-.033.088-.127.12-.192.028-.056.042-.117.06-.177.048-.155.079-.311.151-.458.078-.159.208-.422.391-.487.195-.069.741.015.903.074.694.255 1.3.946 1.776 1.476l.436.516c.07.091.325.297.211.281-1.405-.197.004 0 .18.295.171.202.471.226.678.059s.23-.462.06-.664c-1.072-.927-1.918-2.194-3.296-2.73-.248-.097-.576-.162-.843-.089zm-4.769-2.718c-.558.024-1.092.469-1.415.9-.397.533-.71 1.116-1.023 1.698l-1.49 2.952a11.97 11.97 0 0 0-.587 1.535.44.44 0 0 0 .195.59c.219.104.481.008.587-.206l.497-.694c.278-.463.472-.969.692-1.461l1.52-3.306c.202-.355.439-.656.692-.974.106-.135.204-.306.407-.281.225.028.391.247.511.413.351.479.567 1.048.783 1.594l.466 1.27.677 2.228c.045.169.235.281.406.237a.31.31 0 0 0 .226-.384c-.467-1.549-.741-3.186-1.505-4.635-.262-.498-.56-1.064-1.084-1.343a1.06 1.06 0 0 0-.557-.133zm-29.87-38.423s1.659-4.61 3.278-5.864 3.948-2.552 6.087-1.937 3.95 1.404 6.432 5.245 2.756 6.09 2.514 11.269-1.627 7.317-5.356 9.163-8.802-2.681-9.114-3.072-2.95-4.176-2.95-4.176l2.95.652s3.236 3.054 5.524 2.544 3.312-2.844 3.491-5.757c.14-2.291-1.552-6.907-1.552-6.907s-2.016-3.914-4.022-4.457-4.004 2.287-4.004 2.287c-1.821.825-3.278 1.011-3.278 1.011z"/><path d="M61.606 88.208c-.145-.054-.299-.052-.452.015-.131.002-.262-.004-.391.015-.359.052-.67.244-.978.413-.654.36-1.294.773-1.836 1.284-2.26 2.131-2.876 5.647-1.219 8.31.557.896 1.335 1.603 2.228 2.17 1.816 1.154 4.201 1.405 6.08.236.306-.19.558-.446.828-.679.069-.06.156-.103.211-.177.061-.082.078-.188.12-.281.062-.052.067-.131.015-.192s-.134-.081-.195-.03c-.412.103-.76.368-1.159.531-.938.384-1.888.695-2.92.605-3.356-.293-5.641-4.509-4.275-7.454.459-.99 1.325-1.845 2.228-2.465.59-.405 1.281-.663 1.761-1.196.306-.134.438-.482.301-.782a.64.64 0 0 0-.346-.325zM66.51 71.07a.78.78 0 0 0-.647.901c.48 2.278.652 4.679.241 6.981-.131.733-.303 1.371-.632 2.037-.088.178-.124.365-.241.531-.146.099-.191.299-.09.443s.305.172.451.074c.265-.084.562-.207.753-.413.553-.596.88-1.664 1.038-2.435.236-1.151.309-2.314.301-3.483-.009-1.349-.042-2.662-.241-4-.076-.424-.501-.709-.933-.635zm48.596 14.292l-2.418-1.491s-3.924-3.051-6.09-1.558c-3.767 2.596-4.851 8.084-4.851 8.084s-.765 4.628 1.5 7.16 8.072-1.449 8.072-1.449 2.331-1.199 1.918 0c-.535 1.552-3.988 5.627-5.615 6.01-2.885.68-5.666 1.837-9.07-2.129-2.573-2.998-3.64-7.259-1.361-13.087 2.285-5.84 6.056-8.238 11.773-8.555 4.645-.258 6.142 7.016 6.142 7.016z"/><path d="M111.32 83.556c-.178-.003-.313.136-.316.31a.32.32 0 0 0 .316.324c.758.042 1.504.404 2.137.797 1.849 1.149 3.332 3.743 3.402 5.889.022.344.326.597.677.576s.609-.32.587-.665c-.198-2.161-1.418-4.277-3.04-5.727-.699-.624-1.463-1.155-2.378-1.417-.426-.122-.944-.096-1.385-.088z"/><path d="M117.703 90.374c-.299-.112-.639.032-.753.325-.305.709-.633 1.409-1.114 2.022-1.29 1.648-3.349 2.657-5.433 2.893-1.106.125-2.23-.016-3.326-.147-.1-.031-.21.02-.241.118s.035.206.136.236c.555.277 1.114.51 1.73.634.575.116 1.192.122 1.776.103 3.349-.104 6.461-2.359 7.556-5.461.114-.293-.032-.612-.331-.724zm-1.836-4.254s2.223-4.97 1.27-9.804-5.081-9.533-5.081-9.533l-2.402 3.422s2.471 2.699 3.561 6.274-.733 6.397-.733 6.397l3.385 3.245zm-53.38-.564s-.763-4.585.215-7.504 4.506-6.218 4.506-6.218l-1.895-2.896s-4.943 3.401-6.308 8.44.086 11.678.086 11.678"/><path d="M113.7 51.143c-.315.005-.563.267-.557.575l-.15.59c-.02.255.031.512.044.768l.106 1.402.542 4.605.15 1.757c.006.194.034.429-.015.62-.198.774-.464 1.508-.737 2.258l-.482 1.343c-.459 1.017-1.049 1.972-1.655 2.908-1.289 1.988-2.792 3.684-4.426 5.402l-1.053 1.122-4.29 3.941c-1.642 1.518-3.28 3.06-5.192 4.251-1.047.652-2.161 1.196-3.386 1.432-.618.119-1.253.156-1.881.118-.423-.025-.843-.112-1.265-.147-.197-.017-.406.016-.602-.015s-.378-.104-.572-.147a.32.32 0 0 0-.316.325c.003.175.153.313.331.31l.542-.133c.273-.005.587.112.858.148l1.34.133c1.185.053 2.335-.215 3.417-.679 2.227-.956 4.106-2.514 5.93-4.059l3.281-2.79c3.694-3.307 7.406-6.797 9.677-11.233.7-1.366 1.425-2.784 1.686-4.31.12-.703.02-1.493-.015-2.199-.059-1.193-.156-2.382-.241-3.572l-.21-2.48c-.039-.375-.034-.782-.106-1.152-.036-.187-.124-.364-.18-.546-.006-.309-.257-.551-.572-.546zm-52.285 2.672c-.25-.053-.503.11-.557.354-.145.197-.324.374-.437.59-.234.449-.311.965-.406 1.461a16.84 16.84 0 0 0-.226 1.623c-.127 1.592-.14 3.276.526 4.768.198.442.48.825.753 1.225l1.596 2.273c2.428 3.452 5.028 6.813 7.992 9.845 2.409 2.464 5.034 4.694 8.143 6.273 1.693.86 3.492 1.484 5.373 1.801.474.08.95.14 1.429.177.241.018.483.058.722.029.252-.029.494-.137.738-.206.029.001.044-.016.045-.044s-.016-.058-.045-.059c-.235-.084-.464-.196-.708-.251-.227-.052-.461-.033-.692-.059a20.59 20.59 0 0 1-1.37-.207c-1.573-.301-3.092-.851-4.53-1.535-2.142-1.018-4.059-2.405-5.855-3.926a36.95 36.95 0 0 1-4.666-4.753c-.79-.964-1.526-1.956-2.273-2.952a44.04 44.04 0 0 1-2.077-3.026l-2.257-3.572c-.369-.596-.795-1.181-.994-1.86-.424-1.449-.191-3.074.015-4.532.099-.698.305-1.49.256-2.199-.017-.239-.101-.46-.151-.694.054-.245-.096-.493-.346-.546z"/><path d="M106.935 73.637a.5.5 0 0 0-.496.516l-.136.871c-.052.692.163 1.389.331 2.052.14.55.302 1.156.738 1.564.128.121.277.208.421.31.019.043.077.062.12.044s.064-.075.046-.118a3.77 3.77 0 0 0 .06-.93c-.043-.502-.227-.974-.271-1.476-.033-.373.002-.749-.03-1.122-.036-.415-.158-.818-.241-1.225-.008-.282-.254-.495-.542-.487zM58.668 35.363c-.314-.044-.629.017-.948.236a1.86 1.86 0 0 0-.422.413 3.78 3.78 0 0 0-.406.694c-.222.473-.37.987-.497 1.491-.319 1.273-.384 2.593-.467 3.897-.165 2.595-.024 5.209-.045 7.808.002.381.319.681.708.679a.69.69 0 0 0 .692-.693c-.067-3.555-.456-7.136-.075-10.687l.09-.841c.034-.267.078-.476.136-.738.152-.692.481-1.885 1.445-1.461.177.078.342.18.496.295.218.163.419.361.617.546a7.79 7.79 0 0 1 .918 1.034c.45.602.842 1.242 1.219 1.889.092.149.284.209.436.118s.198-.294.105-.443c-.535-.814-1.085-1.622-1.686-2.391-.506-.647-1.377-1.715-2.318-1.845z"/><path d="M56.579 50.906c-.248.005-.442.2-.436.443C56.105 52.942 58.5 54.5 58.5 54.5s.64.149 1.014.126c.269-.017.572.06.843.074.258-.022.459-.249.436-.502s-.511-.413-.511-.413l-.527.103c-.283.051-.433-.005-.692-.118-.459-.2-.986-.202-1.37-.561-.301-.282-.468-.687-.557-1.077l-.045-.236-.03-.266-.015-.295s-.219-.434-.467-.428zm60.668-16.323c-.988.429-1.597 1.288-2.047 2.229s-.703 1.888-.708 2.923c-.002.025.02.056.046.059s.057-.019.06-.044a18.46 18.46 0 0 1 .587-1.801c.421-1.137 1.075-2.345 2.318-2.745.173-.066.248-.273.181-.443s-.263-.243-.437-.177z"/><path d="M117.954 35.19c-.177-.021-.325.108-.347.281l-.511 4.679-.602 4.547c-.168 1.552-.247 3.119-.271 4.679-.003.325.27.588.602.59a.6.6 0 0 0 .602-.59l.226-9.181.587-4.65c.021-.173-.11-.333-.286-.354z"/><path d="M116.693 50.157c-.168-.055-.406.192-.406.192l-.075.295s-.04.181-.075.266c-.033.077-.068.156-.121.221-.135.166-.393.327-.617.296-.101-.014-.167-.086-.256-.074-.28.148-.587.299-.843.502-.052.042.065.11.106.163a1.44 1.44 0 0 0 .421.384c.301.167.741.012 1.009-.163.318-.208.468-.516.632-.841l.135-.266.166-.28.12-.295s-.027-.343-.196-.399zM93.545.781c-2.249-.048-4.492.06-6.727.236l-5.117.502-6.562 1.137c-1.64.338-3.251.701-4.816 1.299-2.404.918-4.635 2.258-6.562 3.941-1.679 1.466-3.138 3.189-4.274 5.092-.384.643-.797 1.316-1.054 2.022-.156.428-.207.914-.286 1.358l-.346 1.978-1.009 6.303-.798 6.17c-.097 1.054-.219 2.129-.166 3.188.025.491.104.976.181 1.461-.004.296.241.542.542.546s.553-.236.557-.531l.256-1.417c.157-1.21.17-2.445.271-3.661l.693-6.642.918-5.934.301-1.712.105-.65c-.008.028.019-.061.03-.089l.06-.162.166-.399a13.06 13.06 0 0 1 .512-.989 19.45 19.45 0 0 1 3.101-4.089c2.18-2.211 4.875-3.905 7.826-4.945 2.223-.783 4.576-1.218 6.893-1.638l5.072-.782c2.359-.346 4.72-.532 7.104-.605 2.838-.087 5.674.002 8.489.384 2.209.3 4.415.801 6.457 1.697 1.533.673 2.946 1.57 4.244 2.613.969.778 1.823 1.686 2.589 2.657 3.733 4.734 5.113 11.195 5.268 17.063.03 1.178.033 2.35-.015 3.528-.065 1.575-.238 3.146-.211 4.723-.009.078.056.154.135.162a.13.13 0 0 0 .151-.118c.437-1.849.519-3.761.571-5.653.049-1.741.002-3.489-.135-5.225-.243-3.07-.819-6.11-1.911-9.004a22.55 22.55 0 0 0-2.89-5.373c-1.013-1.382-2.21-2.668-3.552-3.749-2.67-2.152-5.986-3.372-9.347-4.015-2.21-.423-4.463-.631-6.713-.679zm5.989 11.574c-1.499.107-2.963 1.073-4.154 1.875l-1.038.709-1.46 1.033c-1.266.82-2.525 1.409-4.004.797-.27-.106-.569.016-.677.281a.52.52 0 0 0 .286.679c2.3.868 4.091-.455 5.855-1.816 1.378-1.062 2.716-2.389 4.44-2.908.72-.217 1.466-.23 2.212-.236.052.01.111-.023.12-.074s-.023-.108-.075-.118c-.499-.193-1.005-.257-1.505-.221zm-21.084.515c-2.13-.066-4.264.334-6.186 1.284a12.57 12.57 0 0 0-2.453 1.594c-.767.637-1.446 1.388-2.016 2.199-.73 1.037-1.284 2.174-1.656 3.38-.423 1.369-.599 2.737-.466 4.162-.005.227.175.409.406.413s.432-.172.437-.399l.496-3.291c.356-1.496 1.011-2.919 1.956-4.148 2.579-3.353 7.173-4.839 11.349-4.266 2.443.336 4.711 1.37 6.683 2.79.142.104.345.081.451-.059s.067-.339-.075-.443c-.875-.65-1.781-1.24-2.769-1.712-1.905-.91-4.026-1.44-6.156-1.505zm15.506 21.474s1.626-2.173 2.34-2.392.146 1.302.146 1.302c9.828-2.865 12.122-1.529 12.122-1.529l-.121 1.634s-10.649 1.619-14.082 3.745c-1.121.694-.404-2.76-.404-2.76zm-10.512 2.215c.876.545-.321-2.828-.321-2.828s-2.292-1.422-2.97-1.572.258.972.258.972-7.322-.91-10.575-.471-3.654 1.252-.251 2.227 10.991-.113 13.859 1.673zm10.171 15.928a.42.42 0 0 0-.572.103c-.314.079-.573.117-.858.266-.187.098-.331.266-.482.413-.331.323-.783.661-1.219.827-1.251.474-2.57.349-3.778-.192-.347-.155-.661-.374-1.008-.532-.138-.11-.339-.076-.451.06a.31.31 0 0 0 .045.443c1.023 1.316 3.211 2.047 4.861 1.919.553-.043 1.125-.216 1.641-.414.592-.226 1.503-.736 1.791-1.313.155-.309.151-.674.136-1.018a.4.4 0 0 0-.106-.561zm-.336 9.179c-2.95.012-5.926.1-8.835.62-1.357.243-2.766.592-4.003 1.21-.466.233-.882.555-1.295.871-.392.223-.529.708-.301 1.092a.84.84 0 0 0 1.129.295L83.33 64.5c2.399-.737 4.889-1.109 7.39-1.329l5.072-.251 1.58-.088c.249-.018.494-.001.737-.059.251-.06.484-.2.722-.295.088 0 .166-.061.166-.148s-.078-.162-.166-.162c-.238-.096-.457-.22-.707-.281-.243-.059-.503-.054-.752-.074l-1.58-.089-2.514-.059zm4.947 2.645c-.17-.051-.354.04-.406.206-.065.741-.308 1.386-.512 2.096l-.512 2.052c-.206.652-.515 1.255-.767 1.889-.086.163-.016.359.15.442a.34.34 0 0 0 .452-.148c.198-.299.416-.598.557-.93.353-.829.515-1.776.662-2.657.113-.68.072-1.446.331-2.096.066-.166.167-.317.256-.472a.3.3 0 0 0-.211-.383z"/><path d="M89.136 67.321a.5.5 0 0 0-.602.354.49.49 0 0 0 .361.59c1.254.291 2.449.678 3.612 1.225l2.348 1.121c.193.1.357.256.557.34.206.087.431.105.647.163.045.025.095.015.12-.03s.015-.093-.03-.118c-.161-.153-.301-.328-.482-.457-.176-.125-.402-.199-.587-.31l-1.656-1.033c-1.359-.782-2.763-1.448-4.289-1.845z"/><path d="M88.789 67.523c-.148-.096-.353-.057-.452.089-.529.914-1.338 1.499-2.197 2.096l-2.649 1.683c-.249.156-.325.479-.166.723a.54.54 0 0 0 .737.162l2.543-1.978c.445-.393.847-.836 1.264-1.255l1.008-1.077c.099-.145.058-.346-.09-.443z"/><path d="M78.781 66.033c.476.965 1.166 1.73 1.837 2.568l1.61 1.993c.296.308.678.545.933.886.129.173.201.385.301.576.122.127.323.12.451 0s.138-.317.016-.443c-.187-.106-.396-.168-.557-.31s-.261-.33-.377-.502l-.677-1.063-1.129-1.579c-.377-.516-.754-1.059-1.249-1.476-.335-.282-.756-.473-1.159-.65zm20.953-3.011a.38.38 0 0 0-.512.104.35.35 0 0 0 .12.487c.532.417.987.924 1.491 1.373l1.233 1.063c.144.125.268.272.422.384.208.152.663.857 1.012.568.356-.295-.286-.871-.44-1.1-.221-.328-.554-.643-.828-.93-.728-.763-1.544-1.467-2.498-1.948zm-22.845 2.01l-.331.354-.451.236-1.822.428-1.4.561s-.175.166-.135.281.286.133.286.133l.707-.133.737-.162c.251-.066.493-.15.737-.236.419-.148.857-.337 1.249-.546l.511-.251.181-.088.151-.103s.146-.31.03-.443-.451-.029-.451-.029z"/><path d="M68.005 62.774c-.067.066-.067.17 0 .236l1.4 1.579c.523.489 1.109.86 1.731 1.211l1.836 1.033c.086.051.189.025.241-.059s.026-.186-.06-.236l-1.671-1.211-1.565-1.313-1.656-1.24a.19.19 0 0 0-.256 0zm40.621-3.865c-.042-.025-.095-.011-.121.03-1.368 1.752-2.56 3.613-3.808 5.446l-1.279 1.771c-.049.058-.044.144.015.192s.147.043.196-.015c.547-.521.999-1.085 1.474-1.668 1.418-1.737 2.55-3.646 3.553-5.639.025-.041.011-.093-.03-.118zM99.739 58c-.115-.004-.202.265-.202.265l-.083.577-.047.561-.119 1.075-.118.546s0-.01-.154.53c-.048.173.023.374.154.436s.332-.203.332-.203l.142-.561.13-.577.19-1.169.036-.593-.047-.608s-.099-.277-.213-.281z"/><path d="M91.891 56.131c-.471-.002-.937.042-1.339.133-.272.061-.637.23-.888.339-.02.003-.033.025-.03.044s.01.033.03.029c1.456.138 2.919-.007 4.38.162 2.019.234 3.959.83 5.96 1.136.081.018.162-.024.181-.103s-.04-.159-.121-.177l-2.559-.679c-1.403-.354-2.813-.681-4.259-.812l-1.355-.074zm-4.398.472c-2.055.383-4.021 1.061-5.975 1.786l-4.079 1.682c-.219.094-.322.332-.226.546a.44.44 0 0 0 .572.221l4.862-2.052 4.906-1.963a.12.12 0 0 0 .075-.148c-.018-.059-.075-.092-.135-.074z"/><path d="M76.93 60.067c-.261.063-.343.655-.343.655l.263.656-.001.001.306.647c.158.426.214.862.336 1.302l.196.672s-.002-.014.189.646c.057.185.225.3.38.246s.184-.427.184-.427l-.217-.667-.212-.642-.401-1.287-.035-.68s-.011.013-.057-.675c-.072-.31-.327-.511-.588-.448zm27.445-23.938l-.559.026-.882.076-2.466.344a3.92 3.92 0 0 0-.818.217c-.044.017-.088.005-.13.025-.078.037-.16.068-.221.127-.402.399-.713.943-1.038 1.4l-1.623 2.367c-.057.075-.038.186.039.242s.177.037.233-.038c.66-.699 1.252-1.455 1.856-2.202l.727-.903.26-.357h.026l.26.026c.187-.002.374-.049.558-.076l1-.127 2.79-.204c.396-.002.887-.017 1.247.191.225.13.273.324.389.535.093.17.122.191.26.356a.31.31 0 0 0 .363.255c.176-.028.301-.184.273-.356.028-.098.069-.191.078-.293.058-.701-.774-1.282-1.363-1.476-.397-.131-.846-.153-1.259-.153zm-26.919.877c-.748-.021-1.506.018-2.254.053-.552.026-1.181.04-1.714.212-.18.058-.353.235-.513.331-.549.329-1.075.719-1.592 1.099-.485.356-.982.655-1.336 1.151-.074.085-.06.205.027.278s.209.072.283-.013c.146-.131.311-.233.472-.344.605-.418 1.192-.845 1.862-1.165l.823-.397c.099-.052.106-.053.203-.093h.121l.338.014h1.066 2.713c.892-.014 1.774.152 2.632.397.261.075.53.144.485.331-.105.31.063.651.378.755s.663-.061.769-.37c.611-1.562-1.54-2.012-2.645-2.104l-.513-.04c-.177-.006-.35.012-.526 0l-1.08-.092z"/><path d="M75.48 39.785c.248-1.408 1.374-2.393 2.517-2.2s1.868 1.491 1.621 2.899-1.374 2.393-2.517 2.2-1.869-1.491-1.621-2.899zm25.187-.496c.267-1.497 1.48-2.544 2.711-2.34s2.013 1.585 1.746 3.083-1.48 2.545-2.71 2.34-2.013-1.585-1.747-3.083z"/></g></g><defs><radialGradient id="A" cx="0" cy="0" r="1" gradientUnits="userSpaceOnUse" gradientTransform="translate(72.2422 50.4166) scale(7.27408 7.13367)"><stop stop-color="#de8a75"/><stop offset="1" stop-color="#e5bca6"/></radialGradient><radialGradient id="B" cx="0" cy="0" r="1" gradientUnits="userSpaceOnUse" gradientTransform="translate(105.474 49.7873) scale(6.44179 6.31744)"><stop stop-color="#de8a75"/><stop offset="1" stop-color="#e5bca6"/></radialGradient><clipPath id="C"><path fill="#fff" d="M0 0h191v143H0z"/></clipPath></defs></svg>