<?xml version="1.0" encoding="UTF-8"?>
<svg xmlns="http://www.w3.org/2000/svg" viewBox="0 0 291.1 407.48">
  <defs>
    <style>
      .cls-1 {
        mix-blend-mode: darken;
        opacity: .33;
      }

      .cls-1, .cls-2, .cls-3, .cls-4, .cls-5, .cls-6, .cls-7, .cls-8, .cls-9, .cls-10, .cls-11 {
        stroke-width: 0px;
      }

      .cls-2 {
        fill: #c1272d;
      }

      .cls-3 {
        fill: #ffd8be;
      }

      .cls-4, .cls-12 {
        fill: #754c33;
      }

      .cls-5 {
        fill: #ffc3be;
      }

      .cls-13 {
        isolation: isolate;
      }

      .cls-6 {
        fill: #a67c52;
      }

      .cls-12 {
        stroke: #000;
        stroke-miterlimit: 10;
        stroke-width: .5px;
      }

      .cls-8 {
        fill: #fff;
      }

      .cls-9 {
        fill: #ebebeb;
      }

      .cls-10 {
        fill: #603813;
      }

      .cls-11 {
        fill: #c69c6d;
      }
    </style>
  </defs>
  <g class="cls-13">
    <g id="Ebene_2" data-name="Ebene 2">
      <g id="Farbe">
        <path class="cls-3" d="m197.57,139.04c8.93-18.24,9.77-36.63,9.77-36.63.3-6.66-.17-12.32-.73-16.52-1.19-4.06-6.01-18.67-20.9-28.22-14.67-9.42-29.56-7.78-34.73-7.13-31.37,3.94-47.02,34.49-48.54,37.58-2.1,7.53-2.31,13.71-2.16,17.71.84,22.44,15.06,38.48,20.07,44.13,2.1,2.37,3.96,4.19,5.15,5.33.7,2.65,2.05,9.23-.51,16.89-2.04,6.12-5.61,10.06-7.58,11.95,5.62,3.67,20.28,12.15,40.7,12.02,17.47-.11,30.36-6.46,36.23-9.83-2.83-3.16-7.8-9.63-9.75-19.14-.96-4.67-.92-8.77-.63-11.89.88-.57,2.15-1.45,3.58-2.66,4.54-3.85,7.43-8.3,10.03-13.59Z"/>
        <path class="cls-4" d="m152.8,60.24c.42.57,3.72,4.88,9.13,4.91,2.57.01,4.54-.94,5.56-1.55.64,1.1,2.49,3.94,6.1,5.35,1.56.61,3,.78,4.05.8,1.11,1.35,3.15,3.48,6.33,5.16,3.26,1.72,6.25,2.18,8,2.32.79.71,10.51,9.32,14.64,8.66,1.24-.2,1.96-.87,1.96-.87,1.42-1.33,1.13-3.75,1.02-4.72-1.59-13.72.02-8.95-1.74-16.26-1.51-6.23-2.37-9.8-4.25-14.87-2.04-5.5-5.3-12.88-10.61-20.98-3.44.26-4.71-.48-5.19-1.28-.53-.87-.34-2.16-1.02-2.38-.5-.17-.77.48-1.45.43-1.02-.09-1.18-1.63-2.38-2.05-.41-.14-1.03-.19-1.96.26-2.86-.54-6.21-.95-9.95-1.01-6.91-.1-12.73,1.05-17.03,2.28-5.5-1.25-12.12-2.31-19.65-2.65-5.9-.27-11.26-.04-15.92.41-1.63-.43-2.85-.44-3.41.2-.45.52-.09,1.04-.57,1.86-.61,1.04-2,1.62-3.18,1.63-1.26,0-1.99-.68-2.45-.27-.37.32,0,.83-.37,1.31-.54.72-1.75.14-2.8.69-.53.28-1.13.91-1.43,2.47-3.25,7.67-4.99,14.48-5.98,19.63-.51,2.65-2.35,12.91-1.39,26.53.38,5.32,1.08,9.77,1.71,13.03,2.83-.56,7.41-1.85,12.13-5.11,3.43-2.36,5.79-4.98,7.3-6.96.86.07,1.62.02,2.29-.09,5.13-.81,8.05-5.55,8.81-6.87,1.42-.34,3.32-.98,5.32-2.21,3.45-2.12,5.37-4.89,6.3-6.47,1.71,1.1,3.19,1.31,3.98,1.35,1.71.08,3.1-.51,5.59-1.54,1.07-.44,1.93-.86,2.49-1.15Z"/>
        <path class="cls-4" d="m191.3,1.26c-4.85-.39-9.13,2.94-10.65,7.02-1.88,5.05,1.08,9.59,1.74,10.42.28.35.76.97,1.58,1.24.99.32,1.35-.22,2.33,0,1.2.27,1.1,1.18,2.7,2.04,1.22.66,1.49.24,2.37.87,1.28.92.91,1.96,1.97,2.51,1.1.57,1.94-.29,3.06.29.77.4,1.15,1.21,1.36,1.87,1.25.42,4.13,1.19,7.05-.03,4.88-2.05,7.57-8.73,5.43-14.12-1.66-4.17-5.98-6.98-10.88-7.05-.33-.52-3.05-4.65-8.05-5.06Z"/>
        <path class="cls-2" d="m181.53,18.18c-1.49,3.45-1.41,4.58-.97,4.91.63.47,1.81-.71,3.07-.09,1.07.53,1.24,1.9,2.11,1.9.51,0,.67-.47,1.04-.37.57.15.32,1.29,1.02,2.38.62.97,1.77,1.52,2.72,1.62,1.25.13,1.51-.57,2.47-.34,1.39.34,1.41,1.97,2.55,2.13.96.13,2.28-.82,2.44-2.13.14-1.21-.78-2.19-1.59-2.55-.97-.44-1.37.2-2.38-.17-1.32-.48-1.09-1.72-2.65-2.62-.93-.54-1.12-.16-2.19-.76-1.36-.77-1.22-1.47-2.31-1.93-1.11-.46-1.63.11-2.89-.22-1.07-.28-1.86-1.01-2.44-1.76Z"/>
        <path class="cls-4" d="m168.3,64.85c-.09.92-.32,2.27-.92,3.77-.78,1.95-1.46,2.34-1.48,3.62-.02,1.54.96,1.72,1.22,3.7.24,1.88-.48,3.03-.07,3.24.4.21,1.6-.66,2.05-1.89.62-1.69-.69-2.67-.02-4.16.45-1.01,1.2-.9,1.88-2.04.64-1.08.63-2.28.51-3.15-1.05-1.03-2.11-2.06-3.16-3.09Z"/>
        <path class="cls-4" d="m115.38,80.33c-.21,2.1,0,3.72.25,4.8.55,2.51,1.38,3.01,1.33,5.02-.05,1.77-.71,2.08-.48,3.75.23,1.67.96,1.86.81,3.06-.17,1.35-1.14,1.48-1.49,3.15-.29,1.36.14,2.28-.12,2.37-.29.1-1.18-.94-1.35-2.2-.2-1.48.8-1.84.79-3.32-.02-1.69-1.31-1.71-1.66-3.8-.27-1.67.48-2.13-.06-3.68-.19-.54-.33-.62-1.09-2.05-.49-.92-.86-1.69-1.11-2.21,1.39-1.63,2.78-3.26,4.18-4.89Z"/>
        <path class="cls-4" d="m97.79,6.28c-.74.02-5.86.25-8.72,4.26-3.45,4.83-.96,11.44,2.13,14.59.83.85,2.55,2.6,5.17,2.68,2.31.07,4.01-1.18,4.6-1.66.68.07,1.6.05,2.32-.51.99-.76.71-1.84,1.69-2.52.89-.62,1.36.09,2.74-.42,1.57-.59,1.54-1.74,3.14-2.17.88-.23,1.03.08,1.79-.25.84-.37,1.03-.91,2.01-1.66.62-.48,1.21-.78,1.63-.96.44-.63,2.73-4.02,1.85-8.43-.8-4-3.87-7.09-7.47-8.17-4.68-1.4-10.01.68-12.88,5.21Z"/>
        <path class="cls-2" d="m100.73,26.34c.11.53.42,1.72,1.48,2.59.32.26,1.33,1.1,2.12.79.79-.32.44-1.42,1.34-2.09.98-.73,2.09.07,2.8-.69.55-.59.16-1.37.65-1.64.57-.31,1.17.7,2.43.72,1.1.02,1.96-.74,2.31-1.04,1.04-.92.73-1.53,1.57-2.28,1.35-1.22,3-.36,3.45-1.21.5-.95-.86-3.23-2.52-3.38-.81-.07-1.51.39-1.7.51-1.04.68-.84,1.45-1.69,1.93-.92.52-1.42-.26-2.61.16-1.18.42-1.04,1.32-2.31,1.84-1.16.48-1.54-.17-2.47.28-1.29.63-1.03,2.13-2.34,3.02-.76.52-1.69.58-2.52.49Z"/>
        <path class="cls-9" d="m63.17,205.85c-5.01.89-12.6,2.91-19.64,8.17-10.83,8.09-13.59,18.82-21.81,46.52-2.27,7.65-6.26,20.96-11.6,38.18.18.79.68,2.44,2.16,4.03,1.54,1.64,3.31,2.32,4.12,2.57.4-1.76.79-3.51,1.19-5.27,10.06,2.21,21.2,5.31,33.03,9.7,6.61,2.46,12.76,5.06,18.43,7.71-.19,1.02-.37,2.03-.56,3.05,1.03.22,2.06.44,3.09.66-.03-.85-.06-1.7-.09-2.56-1.74-8.66-1.78-15.75-1.57-20.65.13-2.84.37-5.18.7-7.29,1.24-7.92,2.56-12.21,3.9-17.69,1.35-5.48,3.43-13.99,3.06-24.03-.27-7.2-1.71-12.49-3.06-17.36-1.79-6.44-5.06-15.62-11.35-25.77Z"/>
        <path class="cls-9" d="m260.39,201.62c-.55,1.7-8.3,26.02-9.74,41.2-.39,4.11-.53,8.08-.53,8.08-.23,6.59.06,12.17.42,16.3.65,5.58,1,12.17.6,19.54-.43,7.88-1.62,14.81-2.99,20.57,3.67-1.16,8.29-2.3,13.7-2.93,6.02-.7,11.28-.56,15.41-.18.23,1.63.47,3.26.7,4.9,1.36.03,3.74-.07,6.42-1.11,2.91-1.13,4.77-2.81,5.7-3.78-.86-6.38-1.91-16.12-2.11-28.05-.3-17.88,1.59-23.98-.13-39.56-1.49-13.52-3.11-24.78-11.93-30.92-5.31-3.7-11.37-4.2-15.52-4.05Z"/>
        <path class="cls-3" d="m17.59,300.06c-4.01,17.4-7.67,36.08-10.69,55.97-2.68,17.67-4.59,34.55-5.9,50.53,21.05-.1,42.1-.2,63.15-.3-4.18-2.53-8.37-5.07-12.55-7.6,4.24-16.08,8.19-33.16,11.66-51.19,1.95-10.14,3.65-20.04,5.12-29.68-7.27-3.66-15.87-7.44-25.73-10.83-9.07-3.11-17.53-5.32-25.06-6.9Z"/>
        <path class="cls-3" d="m277.27,303.32c.11,5.87.3,15.74.56,28.05.58,27.45.68,33.69.48,42.86-.16,7.62-.58,18.66-1.75,32.11-14.3,0-28.6,0-42.89,0,.07-13.83.55-25.89,1.13-35.81.43-7.34,1.54-23.56,5-38.02.11-.47.21-.86.29-1.18,2.57-10.2,5.69-18.41,8.07-24.03,4.9-1.31,10.62-2.5,17.08-3.23,4.32-.49,8.36-.71,12.04-.75Z"/>
        <path class="cls-11" d="m62.78,204.43c.82-.95,2.39-2.47,4.81-3.36,5.1-1.88,9.7.61,10.47,1.04,9.74-3.33,19.49-6.65,29.23-9.98.12-.69.72-3.68,3.66-5.82,2.59-1.89,5.36-1.94,6.19-1.93,4.85,3.31,18.68,11.82,38.63,12.25,20.56.44,35.12-7.98,40.03-11.11.54-.03,4.3-.17,7.19,2.65,2.9,2.83,2.59,6.38,2.54,6.88,5.26,1.15,11.1,2.17,17.46,2.88,7.69.86,14.77,1.11,21.06,1.02,4.94-2.89,10.19-3.26,13.28-.77.64.51,1.41,1.33,2.01,2.63-5.93,17.7-7.49,28.8-7.76,35.8-.06,1.46-.65,18.39-.97,23.16-.03.45-.19,2.81-.32,5.98-.03.79-.06,1.57-.08,2.34.65,4.77,1.28,11.86.7,20.38-1.02,15.07-4.94,21.93-9.02,36.78-2.27,8.28-2.17,10.19-4.16,25.28-.24,1.84-1.12,8.3-3.02,21.19-1.22,8.29-3.04,20.04-5.59,34.63-54.99-.03-109.99-.06-164.98-.09-2.67-1.7-5.33-3.4-8-5.11.88-4.4,2.26-11.09,4.09-19.23,1.92-8.57,2.92-13.03,4.49-19.1,4.24-16.4,6.65-22.49,7.13-33.96.08-1.79.04-3.54-.09-5.47-.62-9.69-2.76-13.67-2.4-24.48.37-10.82,2.94-19.56,5.04-25.21,1.94-6.93,4.41-19.27,2.16-34.42-2.5-16.79-9.59-28.77-13.79-34.85Z"/>
        <path class="cls-8" d="m118.01,103.73c1.8-1.71,4.95-4.2,9.51-5.49,3.08-.87,7.45-2.11,11.6.21,3.97,2.22,5.33,6.35,5.7,7.66-2.16,1.09-5.69,2.5-10.21,2.72-8.44.41-14.56-3.63-16.6-5.11Z"/>
        <path class="cls-8" d="m190.06,103.73c-3.82-3.25-7.51-4.61-9.67-5.22-3.51-.99-7.56-2.14-11.43-.05-3.92,2.11-5.3,6.25-5.7,7.66,2.16,1.09,5.69,2.5,10.21,2.72,8.44.41,14.56-3.63,16.6-5.11Z"/>
        <circle class="cls-12" cx="132.33" cy="103" r="5.93"/>
        <circle class="cls-12" cx="175.33" cy="102.99" r="5.56"/>
        <circle class="cls-7" cx="132.33" cy="103" r="2.75"/>
        <circle class="cls-7" cx="175.33" cy="102.93" r="2.75"/>
        <circle class="cls-6" cx="189.76" cy="114.67" r=".4"/>
        <circle class="cls-6" cx="169.16" cy="123.5" r=".4"/>
        <circle class="cls-6" cx="124.25" cy="125.9" r=".4"/>
        <circle class="cls-6" cx="188.39" cy="122.7" r=".4"/>
        <circle class="cls-6" cx="132.73" cy="117.51" r=".4"/>
        <circle class="cls-6" cx="181.09" cy="117.99" r=".4"/>
        <circle class="cls-6" cx="117.71" cy="119.63" r=".4"/>
        <circle class="cls-6" cx="133.48" cy="125.5" r=".4"/>
        <circle class="cls-6" cx="182.98" cy="126.29" r=".4"/>
        <circle class="cls-6" cx="171.77" cy="117.51" r=".4"/>
        <circle class="cls-6" cx="122.16" cy="115.47" r=".4"/>
        <circle class="cls-6" cx="176.66" cy="122.72" r=".4"/>
        <circle class="cls-6" cx="127.23" cy="121.52" r=".4"/>
        <circle class="cls-6" cx="138.44" cy="120.99" r=".4"/>
        <path class="cls-3" d="m97.68,88.44l-2.04,9.39"/>
        <path class="cls-3" d="m97.68,88.44c-1.93.16-3.83,10.78-.97,20.64,1.7,5.86,5.37,12.46,7.05,11.99,2.2-.61.67-13.31-1.91-22.72-1.25-4.56-2.76-10.03-4.16-9.91Z"/>
        <path class="cls-3" d="m210.43,85.59c2.87.88,2.82,9.23,2.81,12.13-.01,2.11-.04,4.85-.89,8.3-1.84,7.47-6.12,12.53-8.66,15.09-2.09-6.53-6.23-22.2,1.05-31.56.7-.9,3.58-4.6,5.7-3.95Z"/>
        <path class="cls-5" d="m137.67,144.7h0,0s3.56.63,6.89-.24c2.63-.69,2.54-1.64,4.69-1.8,1.86-.14,2.3.54,4.63.57,2.25.03,2.37-.6,4.47-.74,3.15-.2,4.02,1.14,7.7,1.55,1.2.13,3.01.2,5.3-.26-1.72.97-4.19,2.22-7.3,3.36-3.24,1.18-5.62,2.06-8.89,2.21-3.83.18-6.8-.71-9.32-1.47-3.87-1.17-8.17-3.18-8.17-3.18Z"/>
      </g>
      <g id="Outline">
        <path class="cls-7" d="m179.22,29.93c-2.51,1.11-4.97,2.53-6.95,4.45-1.38,1.34-2.51,2.9-3.6,4.48-1.67,2.4-3.08,5.04-4.91,7.33s-4.44,3.26-7.14,3.63c-.74.1-.42,1.22.31,1.12,2.6-.36,5.19-1.38,7.04-3.3s3.19-4.65,4.67-6.94c1.18-1.83,2.32-3.72,3.79-5.34,1.98-2.18,4.34-3.82,7.01-5.04.26-.12.03-.5-.22-.38h0Z"/>
        <path class="cls-7" d="m174.68,24.61c-6.32.4-12.53,2.25-17.94,5.57-.78.48-.06,1.73.72,1.23,5.22-3.33,11.06-5.58,17.21-6.35.28-.03.29-.46,0-.45h0Z"/>
        <path class="cls-7" d="m153.73,25.18c-2.85,10.78-3.66,21.88-2.16,32.93.1.71,1.19.41,1.08-.3-1.55-10.77-1.07-21.93,1.65-32.48.1-.37-.47-.53-.57-.16h0Z"/>
        <path class="cls-7" d="m180.72,22.9c-8.66-1.89-17.54-1.65-26,1.06-.9.29-.51,1.71.39,1.42,8.15-2.71,16.99-3.51,25.45-1.91.37.07.53-.49.16-.57h0Z"/>
        <path class="cls-7" d="m119.46,22.19c11.16-.68,22.34.29,33.18,3.08,1.09.28,1.56-1.43.47-1.69-11-2.6-22.41-3.34-33.64-1.98-.37.04-.39.62,0,.59h0Z"/>
        <path class="cls-7" d="m125.76,25.09c7.6,1,15.07,3.03,22.17,5.93.96.39,1.41-1.2.43-1.57-7.27-2.74-14.86-4.38-22.6-4.96-.39-.03-.37.55,0,.59h0Z"/>
        <path class="cls-7" d="m101.72,89.17c-2.76,6.59-3.1,14.06-1.72,21.03.72,3.64,1.94,7.17,3.11,10.69,1.32,3.93,2.59,7.88,4.09,11.74,2.59,6.67,6.47,12.54,11.56,17.59,2.19,2.17,4.58,4.08,6.96,6.02,2.93,2.38,5.91,4.66,9.25,6.45,12.48,6.68,28.37,6.76,40.79-.05,5.57-3.05,10.59-7.46,14.93-12.08s7.89-10.35,9.98-16.63c2.45-7.36,4.62-14.89,6.52-22.41,1.53-6.05,1.86-12.22,1.11-18.42-.28-2.28-.68-4.54-1.2-6.77-.38-1.64-2.92-.95-2.53.7,1.55,6.59,2.18,13.7.93,20.41s-3.61,13.6-5.62,20.3c-.88,2.92-1.75,5.86-2.87,8.71s-2.75,5.46-4.54,7.93c-3.55,4.87-8.16,9.3-12.96,12.93-10.86,8.22-25.53,10.14-38.34,5.7-6.59-2.28-12.31-6.56-17.57-11.04s-9.9-9.86-12.91-16.1c-1.45-3-2.55-6.17-3.64-9.31-1.36-3.93-2.74-7.86-3.96-11.83-.9-2.96-1.75-6-1.95-9.1-.25-3.9.07-7.86.79-11.69.28-1.48.55-2.96.88-4.43.17-.74-.82-.96-1.1-.3h0Z"/>
        <path class="cls-7" d="m125.22,155.22c-.31.91-.1,2.1-.07,3.06.04,1.21.19,2.41.23,3.63.06,2.41-.14,4.82-.62,7.18-.96,4.72-2.97,9.14-5.85,13-.77,1.03.96,2.03,1.73,1.01,3.06-4.09,5.17-8.86,6.13-13.87.46-2.4.68-4.86.61-7.31-.03-1.22-.1-2.48-.37-3.67-.22-1.01-.54-2.4-1.29-3.14-.17-.16-.42-.08-.5.13h0Z"/>
        <path class="cls-7" d="m183.89,155.01c-.82.15-.86,1.79-.95,2.42-.17,1.25-.17,2.54-.1,3.79.17,3.4.76,6.78,1.76,10.03,1.59,5.18,4.2,9.97,7.56,14.21.8,1.01,2.21-.42,1.41-1.41-3.33-4.2-5.85-9.04-7.3-14.2-.88-3.12-1.38-6.33-1.48-9.57-.02-.68.23-5.49-.9-5.27h0Z"/>
        <path class="cls-7" d="m117.06,184.35c.59,1.14,1.53,1.87,2.56,2.62,1.56,1.15,3.23,2.18,4.92,3.13,2.93,1.64,6.04,2.98,9.21,4.05,5.84,1.97,11.98,3.01,18.12,3.32,7.88.39,15.89-.41,23.54-2.35,7.25-1.84,14.19-4.78,20.61-8.6,1.1-.66.1-2.39-1.01-1.73-17.08,10.17-38.73,13.79-58,8.28-3.56-1.02-7.02-2.36-10.31-4.06-1.74-.9-3.45-1.88-5.09-2.95-1.32-.87-2.55-1.9-4.09-2.3-.36-.1-.63.29-.47.61h0Z"/>
        <path class="cls-7" d="m117.03,183.77c-.58-.23-1.32-.11-1.92,0-.55.1-1.08.23-1.6.44-1.17.46-2.24,1.08-3.23,1.86-1.84,1.45-3.21,3.5-3.73,5.8-.13.57.17,1.17.75,1.33.54.15,1.2-.18,1.33-.75.41-1.93,1.52-3.6,3.03-4.9.74-.63,1.6-1.15,2.49-1.53.47-.2.95-.38,1.44-.52.53-.16,1.13-.25,1.6-.54.51-.31.35-.99-.15-1.18h0Z"/>
        <path class="cls-7" d="m195.06,185.89c.32.53.91.43,1.44.52s1.09.21,1.62.37c1.05.32,2.01.92,2.82,1.64.86.76,1.53,1.67,2.13,2.64s1.08,2.12,1.18,3.31c.04.54.43,1,1,1,.52,0,1.02-.46,1-1-.13-2.99-1.81-5.74-4.1-7.61-1.1-.89-2.34-1.62-3.72-1.98-.71-.18-1.42-.21-2.15-.07-.46.09-1.66.44-1.22,1.16h0Z"/>
        <path class="cls-7" d="m107.99,194.18c2.37,2.04,4.81,3.69,7.55,5.21,3.39,1.87,6.94,3.44,10.56,4.81,4.66,1.76,9.45,3.11,14.34,4.05,15.46,2.97,31.65,2.19,46.71-2.43,6.39-1.96,12.48-4.68,18.33-7.91,1.13-.62.12-2.35-1.01-1.73-11.83,6.55-25.36,10.44-38.83,11.44-11.84.88-23.96-.35-35.28-4-7.72-2.48-14.78-6.31-21.99-9.92-.3-.15-.66.25-.38.49h0Z"/>
        <path class="cls-7" d="m194.38,189.72c.06.07.12.15.18.21.16.16-.06-.03,0-.07-.05.03.09.32.1.34l-.08-.3.02-.11c-.1.25.04.51.18.7.22.27.63.74.86,1.06.37.51.66,1.06.84,1.66.09.3.14.6.2.9.03.18,0-.03.01.08,0,.06.01.12.02.19.01.13.02.26.02.4,0,.21,0,.43-.02.64,0,.05-.01.1-.02.16-.01.15,0-.07.01-.1-.03.06-.02.16-.04.22-.09.51.14,1.1.7,1.23.49.11,1.13-.15,1.23-.7.21-1.19.18-2.44-.26-3.58-.5-1.3-1.38-2.67-2.69-3.28-.22-.1-.51-.16-.72,0l.09-.04h.32c-.13-.02-.23,0-.36-.01.13,0-.02-.02-.05-.03-.09-.03-.18-.05-.27-.07-.3-.07-.48.27-.29.5h0Z"/>
        <path class="cls-7" d="m185.12,193.72s.06.09.1.13l-.09-.34c.02.37.24.67.47.95.2.25.21.24.39.5.14.21.27.44.38.67.02.05.05.1.07.16.07.16-.01-.05.02.05.04.12.09.24.13.36.07.23.13.46.19.69.03.12.05.25.07.37-.04-.23.01.12.02.19.02.25.02.5,0,.76,0,.07-.01.14-.02.21,0-.09.02-.14,0-.02-.03.14-.05.28-.09.41-.13.53.17,1.15.73,1.28.52.12,1.16-.16,1.28-.73.28-1.29.18-2.63-.35-3.84-.24-.56-.56-1.06-.94-1.53s-1-1.23-1.66-1.15l.34.09c-.05-.02-.11-.05-.16-.07-.26-.11-.55-.12-.77.1-.18.18-.26.54-.1.77h0Z"/>
        <path class="cls-7" d="m174.42,197.87c.17.49.33.78.46,1.23.06.2.11.4.15.6.02.09.03.17.05.26.02.11.02.12,0,.03,0,.06.01.12.02.17.04.41.05.82.02,1.23,0,.04-.04.39-.01.19-.01.09-.03.17-.04.26-.04.23-.1.46-.17.68-.14.48.17,1.06.67,1.17s1.04-.15,1.17-.67c.26-1.02.31-2.07.12-3.11-.17-.98-.55-2.03-1.23-2.77-.48-.53-1.47.02-1.23.72h0Z"/>
        <path class="cls-7" d="m162.21,199.68c.04.3-.03.59-.04.89,0,.16-.01.32-.03.48,0,.07-.01.14-.02.21.01-.1-.02.11-.02.13-.04.3-.1.59-.17.88-.04.15-.08.29-.13.43-.02.07-.05.13-.07.2-.01.03-.12.31-.05.13-.09.22-.14.41-.08.64.06.25.25.44.48.54.44.19,1-.05,1.12-.54.17-.67.27-1.39.24-2.09-.02-.35-.07-.71-.14-1.05-.04-.18-.07-.36-.16-.52-.08-.14-.14-.27-.19-.42-.06-.18-.22-.3-.41-.27-.17.02-.35.18-.33.37h0Z"/>
        <path class="cls-7" d="m118.4,187.83c-.07.02-.14.05-.21.07.06,0,.04,0-.06.01-.05,0-.11.01-.15.03-.16.05-.32.13-.47.2-.26.12-.49.29-.72.45-.48.35-.95.73-1.35,1.17-.83.91-1.45,1.95-1.89,3.09-.19.49.21,1.12.7,1.23.54.12,1.07-.16,1.23-.7.02-.07.22-.75.26-.75-.01,0-.08.19,0,0,.02-.06.05-.11.08-.16.05-.11.11-.22.16-.32.12-.24.26-.47.41-.69.07-.1.13-.2.21-.3.04-.06.09-.12.13-.18-.07.1-.03.04.02-.02.32-.41.66-.79,1.04-1.15.19-.18.39-.33.58-.51.22-.21.37-.39.58-.55.43-.35-.03-1.11-.54-.93h0Z"/>
        <path class="cls-7" d="m137.54,196.83c-.42.22-.8.49-1.1.86-.33.41-.59.83-.79,1.31-.39.92-.53,2.01-.26,2.98.14.51.73.88,1.25.71s.86-.7.71-1.25c-.05-.18-.1-.37-.14-.55,0-.04,0-.09-.02-.12.07.22.02.13,0,.04,0-.09-.02-.19-.02-.28s0-.19,0-.28c0-.05-.01-.25.02-.28-.02.01-.03.2,0,.05,0-.05.02-.1.03-.16.02-.09.04-.19.07-.28.02-.08.05-.16.07-.24.02-.05.03-.1.05-.15,0-.02.06-.15.02-.05-.05.11.03-.05.04-.08.02-.04.04-.08.06-.12.04-.09.09-.17.14-.25.1-.17.22-.32.32-.48.05-.08.1-.16.16-.24.02-.03.05-.07.01-.02.04-.05.08-.1.13-.15.46-.53-.11-1.3-.75-.97h0Z"/>
        <path class="cls-7" d="m127.18,193.03c-.06.01-.12.03-.18.05h.35c-.61-.12-1.18.25-1.66.6-.43.31-.83.66-1.18,1.06-.7.82-1.21,1.75-1.4,2.82-.09.51.14,1.1.7,1.23.49.11,1.13-.15,1.23-.7.04-.22.09-.43.16-.65.03-.11.07-.21.11-.32.02-.05.05-.09.06-.14-.07.17-.07.17,0,0,.03-.06.05-.12.07-.18.06-.17-.07.15-.02.04.02-.05.04-.09.06-.14.05-.1.1-.2.15-.3.11-.2.23-.39.36-.57.03-.04.06-.08.09-.12.12-.17-.13.15,0-.01.07-.08.13-.16.2-.24.15-.17.31-.33.48-.49.08-.07.16-.14.24-.2.14-.12-.11.08.03-.02.09-.06.18-.13.27-.2.08-.07.15-.14.23-.21s.12-.16.19-.23c-.08.09.03,0,.06-.03.21-.17.23-.54.1-.76-.14-.24-.44-.35-.71-.29h0Z"/>
        <path class="cls-7" d="m149.21,199.3l-.03.07.15-.15c-.13.09-.24.17-.31.32-.05.09-.07.2-.1.3l-.13.47-.29,1.03c-.19.68-.41,1.36-.57,2.05-.11.45.14.98.62,1.09.42.09,1.02-.13,1.09-.62.11-.75.16-1.5.24-2.26.03-.35.07-.7.1-1.05l.05-.49c.03-.26.04-.46-.12-.7l.06.21v-.08c-.02-.36-.57-.59-.75-.2h0Z"/>
        <path class="cls-7" d="m106.59,191.96c-1.21.19-2.43.9-3.57,1.33s-2.3.87-3.44,1.35c-2.55,1.07-5.15,2.03-7.78,2.87-4.48,1.44-9.04,2.6-13.67,3.44-1.26.23-.73,2.16.53,1.93,4.78-.87,9.51-2.04,14.1-3.63,2.51-.87,4.97-1.84,7.4-2.9,1.25-.55,2.43-1.18,3.61-1.87,1.04-.6,2.28-1.15,3.11-2.03.22-.23,0-.54-.29-.5h0Z"/>
        <path class="cls-7" d="m207.07,196.22c2.53,1.24,5.11,1.68,7.88,2.14,2.25.37,4.5.68,6.78.88,6.4.56,12.82.69,19.24.79,1.33.02,1.33-2.08,0-2.06-6.32.08-12.67-.16-18.97-.7-2.26-.2-4.52-.45-6.77-.78-2.7-.4-5.28-.9-8.01-.81-.28,0-.43.42-.15.55h0Z"/>
        <path class="cls-7" d="m243.77,199.54c-.26.95-.72,1.81-.99,2.76-.22.76-.38,1.53-.54,2.31-.37,1.77-.71,3.55-1.02,5.33-.5,2.9-.87,5.83-1.23,8.75-.71,5.78-1.23,11.59-1.66,17.4-.78,10.42-.67,20.68,3.16,30.56,2.17,5.6,5.2,10.77,8.91,15.48.79,1.01,2.2-.41,1.41-1.41-6.37-8.08-10.74-17.89-11.7-28.18-.47-5-.26-10.04.09-15.04.4-5.66.91-11.33,1.57-16.97.37-3.22.84-6.42,1.31-9.62.26-1.79.5-3.58.77-5.36.14-.93.28-1.86.38-2.79.12-1.04,0-2.07.13-3.11.04-.34-.5-.39-.58-.08h0Z"/>
        <path class="cls-7" d="m245.14,198.93c3.26.03,6.5-1.04,9.76-.3,1.76.4,3.9,1.67,3.33,3.83-1.03,3.85-2.39,7.6-3.45,11.44-3.28,11.86-5.19,24.08-5.73,36.38-.36,8.09-.05,16.19.87,24.23.16,1.37,2.33,1.39,2.17,0-1.69-15.19-1.08-30.52,1.5-45.58.88-5.1,1.92-10.2,3.32-15.19.35-1.25.71-2.49,1.13-3.71.45-1.31.84-2.64,1.23-3.97.44-1.48,1.28-3.07,1.24-4.65-.06-2.5-2.57-4.3-4.81-4.82-1.66-.39-3.42-.36-5.1-.21-2.03.18-3.96.49-5.7,1.6-.42.27-.26.94.26.95h0Z"/>
        <path class="cls-7" d="m68.09,207.75c.57-.27,1.12-.57,1.72-.76s1.25-.32,1.88-.38c1.28-.12,2.54.06,3.73.55.44.18.97-.2,1.09-.62.13-.47-.16-.95-.62-1.09-1.44-.43-2.97-.48-4.44-.18-1.32.27-2.84.95-3.72,2-.22.26.05.61.36.47h0Z"/>
        <path class="cls-7" d="m76.16,223.03c.58,0,1.14-.1,1.72-.14.61-.04,1.22-.04,1.84,0,1.16.07,2.26.29,3.35.7.5.19,1.09-.21,1.22-.69s-.17-1.1-.69-1.22c-1.26-.28-2.59-.42-3.87-.41s-2.7.09-3.86.64c-.56.27-.27,1.14.31,1.14h0Z"/>
        <path class="cls-7" d="m81.52,246.27c.05.03.11.06.16.1l-.24-.31c.11.28.23.4.52.52,0,0,.18.08.09.04.07.03.14.06.2.1.23.11.46.23.68.36.12.07.24.15.35.23.05.04.1.07.16.11-.1-.07.03.03.06.05.2.16.38.34.55.52.09.09.17.19.25.29.13.16-.08-.12.04.05.04.05.07.1.11.15.14.21.27.42.38.65.03.06.05.11.08.17.08.16-.04-.11.02.05.04.12.08.23.12.35.04.13.07.26.1.39.01.06.02.12.03.18.04.21,0-.1,0,.06.05.47.39.85.9.78s.74-.52.66-.99c-.18-1.18-.81-2.29-1.65-3.13-.42-.43-.92-.8-1.44-1.09-.28-.15-.57-.29-.87-.38-.14-.05-.29-.08-.44-.12-.32-.07-.52-.03-.78.17l.36-.15c-.06,0-.13,0-.19.01-.43.03-.64.61-.23.84h0Z"/>
        <path class="cls-7" d="m79.79,262.14c.77.68,1.38,1.6,1.7,2.47.09.24.16.49.22.73.03.13.06.26.08.4,0,.02.03.18.02.11-.01-.08.01.13.02.15.02.25.03.51.02.76,0,.13-.02.27-.03.4-.01.16,0-.02,0,.07-.01.07-.03.15-.04.22-.09.48.13.97.63,1.11.42.12,1.03-.14,1.11-.63.2-1.3.07-2.6-.43-3.81s-1.38-2.27-2.46-3.06c-.62-.45-1.4.56-.82,1.07h0Z"/>
        <path class="cls-7" d="m74.01,255.33c1,5.44.87,11.4-.18,16.84-.46,2.38-1.21,4.69-1.77,7.05-.71,3.01-1.39,6.03-2,9.05-.94,4.63-1.63,9.3-1.34,14.04.26,4.17,1.14,8.28,1.52,12.45.9,10.05-.13,19.93-1.92,29.82-1.13,6.25-2.46,12.48-4.05,18.64-2.94,11.44-5.76,22.92-8.39,34.44-.29,1.25,1.64,1.79,1.93.53,2.51-10.98,5.14-21.94,7.96-32.84,1.48-5.71,2.78-11.47,3.91-17.26,1.87-9.65,3.27-19.38,2.83-29.24-.21-4.63-.96-9.14-1.53-13.73s-.33-8.96.44-13.42c1.06-6.21,2.89-12.27,3.94-18.48s.42-12.06-.78-18.04c-.07-.38-.64-.22-.57.16h0Z"/>
        <path class="cls-7" d="m61.29,205.61c-1.6.14-3.04.18-4.59.63-1.75.51-3.47,1.11-5.15,1.82-3.71,1.58-7.15,3.74-10.17,6.4-5.26,4.64-8.78,10.74-11.44,17.16-3.07,7.42-5.22,15.25-7.6,22.91s-4.74,15.37-7.07,23.08c-2.09,6.93-4.16,13.88-6.2,20.82-.4,1.35,1.72,1.93,2.11.58,3.83-13.14,7.82-26.24,11.89-39.31,2.4-7.71,4.73-15.47,7.38-23.1,2.23-6.43,5.05-12.77,9.66-17.88,2.9-3.21,6.37-5.79,10.2-7.79,1.93-1.01,3.95-1.85,6.03-2.51.91-.29,1.83-.51,2.74-.8.8-.25,1.54-.65,2.36-.89.6-.17.52-1.19-.15-1.14h0Z"/>
        <path class="cls-7" d="m9.1,299.05c1.34,1.1,3.65,1.12,5.3,1.41,2.11.38,4.22.77,6.32,1.22,4.03.87,8.03,1.93,11.98,3.11,8.05,2.41,15.9,5.43,23.61,8.75,4.35,1.87,8.65,3.84,12.93,5.86,1.29.61,2.41-1.32,1.12-1.92-15.38-7.13-31.1-13.95-47.76-17.47-2.33-.49-4.66-.94-7.02-1.27-1.07-.15-2.14-.28-3.22-.38s-2.21-.26-3.2.21c-.16.08-.2.35-.06.47h0Z"/>
        <path class="cls-7" d="m262.43,202.65c.88.22,1.69.62,2.57.83,1.05.25,2.09.54,3.11.89,2.31.8,4.51,1.94,6.49,3.39,3.52,2.58,6.13,6.21,7.88,10.18,1.64,3.72,2.55,7.76,3.24,11.76.58,3.37,1.06,6.76,1.34,10.16.52,6.35.13,12.64.11,18.99-.02,4.98.16,9.96.35,14.93.4,10.15.97,20.29,1.59,30.43.08,1.28,2.07,1.29,2,0-.86-14.88-1.87-29.83-1.79-44.75.03-6.27.47-12.49.06-18.76-.23-3.56-.69-7.09-1.24-10.61-.64-4.11-1.49-8.22-3.07-12.08-1.85-4.53-4.6-8.55-8.52-11.54-2.17-1.66-4.6-2.93-7.17-3.83-1.15-.4-2.33-.74-3.52-.98-1.09-.22-2.16-.16-3.26-.18-.68-.01-.82,1.01-.16,1.18h0Z"/>
        <path class="cls-7" d="m290.31,304.48c-.94-.84-2.77-.94-3.97-1.18-1.57-.31-3.13-.52-4.72-.67-3.93-.36-7.9-.45-11.84-.25-7.43.37-14.81,1.67-21.93,3.81-1.41.43-.81,2.65.61,2.21,6.93-2.12,14.08-3.42,21.32-3.82,3.81-.21,7.63-.22,11.44.01,1.63.1,3.27.22,4.9.31,1.18.07,2.94.52,4.06.07.19-.08.31-.33.13-.5h0Z"/>
        <path class="cls-7" d="m249.27,259.88c.78,10.05,1.12,20.24.44,30.31-.34,5.04-.88,10.1-2.08,15.01s-3.06,9.24-4.78,13.79c-6.74,17.79-7.54,36.83-9.34,55.56-1.03,10.7-2.5,21.38-5.65,31.69-.38,1.25,1.57,1.79,1.96.54,5.67-18.31,5.8-37.63,8.04-56.51,1.13-9.52,2.84-19.01,6.03-28.07,1.65-4.66,3.68-9.19,5.09-13.93s2.1-9.58,2.56-14.46c.53-5.64.71-11.31.57-16.98s-.81-11.39-1.92-17.07c-.1-.51-.95-.4-.91.12h0Z"/>
        <path class="cls-7" d="m289.89,304.48c-.28.22-.47.04-.8.11-.28.06-.52.24-.76.39-.46.29-.93.56-1.41.81-1.12.58-2.27,1.09-3.47,1.46-1.78.54-3.61.8-5.46.81-1.34,0-1.34,2.1,0,2.08,2.06-.04,4.14-.35,6.1-.98,1.25-.4,2.5-.91,3.61-1.61.53-.33,1.04-.69,1.53-1.07.58-.45.9-.78.8-1.55l-.08.31c.13-.11.25-.22.37-.34.29-.27-.13-.65-.42-.42h0Z"/>
        <path class="cls-7" d="m9.72,299.89c.07.16.15.32.22.48l.06-.46-.04.05c-.14.15-.24.4-.16.6.13.33.27.66.43.97.15.3.36.57.57.83.45.59.94,1.13,1.51,1.6.83.7,1.74,1.29,2.73,1.74.53.24,1.14.11,1.39-.47s-.09-1.09-.63-1.32c-.18-.07.17.07.06.02-.04-.02-.09-.04-.13-.06-.09-.04-.19-.09-.28-.13-.21-.1-.41-.2-.62-.31-.48-.26-.94-.55-1.37-.88-.03-.03-.11-.08-.03-.02-.07-.06-.14-.12-.22-.17-.12-.1-.24-.2-.37-.31-.24-.21-.47-.43-.7-.66-.45-.46-.89-.95-1.29-1.45-.14-.17-.4-.2-.6-.16h-.06c.14.07.29.13.43.19-.09-.15-.18-.3-.27-.46-.23-.42-.8-.05-.62.36h0Z"/>
        <path class="cls-7" d="m16.62,299.79c-6.31,27.26-11.16,54.81-14.3,82.61-.85,7.51-1.65,15.01-2.32,22.54-.11,1.28,1.89,1.27,2,0,2.44-27.63,6.49-55.17,11.84-82.38,1.46-7.43,3.03-14.85,4.71-22.24.28-1.25-1.64-1.79-1.93-.53h0Z"/>
        <path class="cls-7" d="m277.25,303.33c-.48,2.13-.47,4.4-.58,6.57s-.22,4.3-.3,6.45c-.16,3.82-.25,7.65-.27,11.48-.02,5.23.03,10.46.21,15.69.25,7.11.48,14.23.71,21.34.15,4.75.39,9.51.37,14.26-.03,8.64-.77,17.27-2.1,25.81-.2,1.26,1.73,1.8,1.93.53,1.22-7.83,1.98-15.74,2.14-23.67.09-4.57-.09-9.14-.24-13.71-.4-12.56-1.01-25.12-1.14-37.69-.04-4.05-.04-8.11-.05-12.16,0-2.4,0-4.79.01-7.19.02-2.55.25-5.2-.12-7.72-.04-.29-.51-.27-.57,0h0Z"/>
        <path class="cls-7" d="m68.45,319.07c-2.52,10.39-4.54,20.9-6.77,31.35s-4.55,21.03-7.01,31.51c-1.35,5.77-2.74,11.53-4.17,17.27-.31,1.25,1.62,1.78,1.93.53,5.16-20.8,9.95-41.73,13.81-62.81,1.08-5.91,2.07-11.82,2.82-17.78.04-.35-.53-.42-.61-.08h0Z"/>
        <path class="cls-7" d="m125.93,41.71c1.83,3.5,3.64,6.96,5.81,10.27,1.72,2.63,3.48,5.34,5.57,7.68,3.88,4.34,11.01,5.88,15.22,1.01.65-.76-.45-1.87-1.1-1.1-2.07,2.4-5.07,3.2-8.11,2.45-2.8-.7-4.69-2.67-6.36-4.92s-3.21-4.61-4.78-6.94c-1.94-2.88-3.92-5.77-5.73-8.73-.2-.33-.69-.04-.51.3h0Z"/>
        <path class="cls-7" d="m106.14,41.98c-.26,3.07-.36,6.16-.28,9.25.11,4.3.34,8.62,1.44,12.8.73,2.76,1.98,5.44,3.38,7.92,1.75,3.1,3.86,5.88,7.68,6.13s7.69-3.24,10.04-6.06c.61-.73-.44-1.79-1.05-1.05-1.91,2.31-4.86,5.38-8.05,5.69-4.17.41-6.31-3.1-8.09-6.28-3.25-5.83-4.5-12.31-4.72-18.96-.1-3.15-.02-6.3.23-9.44.03-.38-.56-.38-.59,0h0Z"/>
        <path class="cls-7" d="m113.54,35.51c.34,7.7,1.55,15.77,4.5,22.93,1.43,3.47,3.45,7.06,6.13,9.73,2.13,2.13,4.8,2.95,7.71,1.9,3.45-1.25,6.31-3.66,8.23-6.77.51-.82-.8-1.58-1.3-.76-1.59,2.62-3.83,4.59-6.62,5.87-2.98,1.37-5.42.61-7.54-1.7-4.75-5.17-7.31-12.36-8.88-19.09-.93-3.98-1.42-8.03-1.62-12.11-.02-.38-.61-.38-.59,0h0Z"/>
        <path class="cls-7" d="m180.32,39.39c-2.05,2.89-3.64,6-5.01,9.25-1.21,2.86-1.95,6.04-3.4,8.78-1.59,3.01-3.81,6.94-7.7,6.89-3.48-.04-7.17-1.98-9.74-4.23-.97-.85-2.4.6-1.41,1.41,2.72,2.24,6.3,3.91,9.87,4.02,3.78.12,6.43-2.36,8.45-5.25,1.05-1.5,2.14-3.08,2.91-4.74s1.2-3.35,1.8-5.02c1.33-3.72,3.07-7.27,4.75-10.83.16-.35-.29-.61-.51-.3h0Z"/>
        <path class="cls-7" d="m187.93,38.66c-.39,3.31-.8,6.62-1.23,9.92-.36,2.75-.64,5.53-1.23,8.25-.72,3.3-1.77,6.8-3.59,9.67-1.49,2.35-4.03,2.87-6.65,2.22s-4.92-2.44-6.33-4.84c-.63-1.08-2.35-.07-1.67.98,1.4,2.16,3.39,3.92,5.8,4.85,2.61,1,6.02,1.24,8.29-.65.88-.74,1.45-1.78,1.92-2.82.84-1.87,1.46-3.86,2-5.84.73-2.71,1.24-5.39,1.61-8.17.6-4.51,1.16-9.03,1.69-13.56.04-.38-.55-.38-.59,0h0Z"/>
        <path class="cls-7" d="m194.91,42.58c.46,3.87.67,7.77.98,11.66.21,2.71.52,5.43.61,8.15.1,3.07-.36,6.2-1.23,9.15-.75,2.52-2.33,5.68-5.48,4.79-3.54-1.01-6.98-3.2-9.68-5.68-.96-.88-2.41.56-1.44,1.44,2.74,2.48,5.86,4.14,9.35,5.32,1.38.47,2.88.86,4.32.38,1.28-.43,2.27-1.4,2.98-2.53,1.63-2.58,2.22-6.01,2.55-9,.35-3.2,0-6.41-.38-9.59-.56-4.74-1.36-9.43-1.99-14.16-.04-.33-.62-.25-.58.08h0Z"/>
        <path class="cls-7" d="m124.16,31.86c4.11,1.93,7.83,4.52,11.38,7.32,3.78,2.98,7.55,5.94,11.53,8.66.82.56,1.6-.78.78-1.34-4-2.72-7.84-5.63-11.7-8.53-3.62-2.72-7.57-4.79-11.69-6.63-.34-.15-.65.35-.3.51h0Z"/>
        <path class="cls-7" d="m194.69,19.86c2.36,2.35,6.16,4.27,9.41,2.5,2.38-1.29,3.73-4.12,2.38-6.63-.96-1.8-2.89-2.88-4.85-3.22-.73-.13-1.04.99-.31,1.12,1.51.26,3,.96,3.92,2.24.8,1.11.98,2.5.3,3.71-1.1,1.97-3.31,2.88-5.5,2.55-1.95-.29-3.63-1.22-5.03-2.58-.21-.2-.52.11-.31.31h0Z"/>
        <path class="cls-7" d="m166.69,79.92c.93-.66,1.28-1.88,1.14-2.99-.22-1.76-1.57-3.11-1.19-4.95.26-1.24,1.12-2.27,1.5-3.48.45-1.39.41-2.84.18-4.28-.17-1.06-1.79-.61-1.61.44.2,1.19.19,2.4-.16,3.56-.32,1.09-1.05,2.04-1.27,3.17-.25,1.26.3,2.55.85,3.66.63,1.26,1.76,3.25.25,4.36-.3.22-.01.73.3.51h0Z"/>
        <path class="cls-7" d="m166.62,79.95c1.09-.31,2.18-.9,2.74-1.93.59-1.1.25-2.09.02-3.22-.13-.64,0-1.28.47-1.76.4-.4.87-.69,1.22-1.16.94-1.25,1.07-2.69.81-4.19-.16-.94-1.65-.55-1.45.4.25,1.2.18,2.61-.74,3.52-.78.77-1.46,1.44-1.48,2.62-.01,1.04.71,2.04.32,3.07-.36.94-1.34,1.56-2.14,2.09-.27.18-.11.64.23.54h0Z"/>
        <path class="cls-7" d="m104.47,30.34c.46-.22.59-.65.71-1.12.3-1.18.91-1.67,2.14-1.76.5-.04,1.14,0,1.51-.41.15-.16.25-.4.27-.62.02-.32-.14-.38.11-.36.14.01.31.15.44.21.65.29,1.35.46,2.06.29.64-.15,1.12-.65,1.75-.83s1.41-.21,1.67-.96c.21-.62-.13-1.25-.75-1.42l.44,1.08c.43-.67.93-1.33,1.73-1.56.67-.19,1.37.03,2.04-.18,1.16-.37,1.37-1.78,1.18-2.82-.24-1.3-1.14-2.46-2.5-2.67s-3,.53-3.78,1.67c-.43.63-.61,1.2-1.51,1.21-.76,0-1.38-.15-2.12.17-.45.2-.78.51-1.07.9-.59.77-1.2,1.19-2.21,1.19-1.21,0-2.08.22-2.49,1.48-.3.93-.8,1.44-1.74,1.75-.55.18-1.06,0-1.6.1-1.38.26-.25,1.99.19,2.56.78,1.01,2.08,2.63,3.52,2.33.64-.13.37-1.12-.27-.98-.96.21-2.45-1.8-2.87-2.5-.07-.11-.16-.36-.23-.44-.11-.12.07-.22-.1-.09-.17.13.47.12.52.12.37,0,.73-.06,1.08-.18.94-.32,1.75-1.02,2.12-1.95.25-.62.35-1.25,1.17-1.26.47,0,.91.1,1.39.03,1.18-.18,1.7-.88,2.43-1.7,1.01-1.14,2.04,0,3.21-.33s1.34-1.56,2.27-2.21c1.13-.78,2.65-.69,3.06.78.08.31.22,1.09-.09,1.34-.15.12-.59,0-.76,0-.33,0-.65,0-.97.07-1.28.27-2.32,1.26-2.86,2.42-.25.54.06,1.03.63,1.1l.15.02-.51-.21c-.23-.2.04-.21-.28-.24-.15-.02-.41.11-.55.16-.26.1-.5.22-.73.38-.55.37-.93.72-1.67.6-.64-.11-1.88-.96-2.22.08-.08.23.05.38.03.6-.05.56-.5.61-.97.65-.54.05-1.09.07-1.58.33-.46.24-.8.61-1.01,1.08s-.17,1.34-.67,1.59c-.34.17-.04.68.3.51Z"/>
        <path class="cls-7" d="m197.33,27.16c2.39,1.64,5.33,1.88,7.89.46,1.55-.86,3.03-2.15,4.08-3.58,2.94-4,2.96-9.79.04-13.81-2.09-2.88-5.45-4.44-8.99-4.23-.99.06-.99,1.61,0,1.55,2.81-.18,5.64.81,7.49,2.98,1.33,1.56,2.23,3.65,2.41,5.7.3,3.36-1.28,7.64-3.94,9.88s-5.88,2.44-8.68.54c-.32-.22-.61.3-.3.51h0Z"/>
        <path class="cls-7" d="m106.23,27.28c-.82,1.32-1.09,2.92-.8,4.44.07.37.65.22.57-.16-.27-1.37,0-2.8.74-3.98.2-.33-.31-.62-.51-.3h0Z"/>
        <path class="cls-7" d="m200.21,16.97c1.28-3.14,1.57-6.76.2-9.93s-4.06-5.29-7.24-6.17c-3.4-.94-6.98-.11-9.61,2.22-1.54,1.37-2.79,3.21-3.57,5.11-1.44,3.51-.92,7.27,1.48,10.21.41.5,1.3-.17.91-.7-3.02-4.12-1.71-9.07,1.46-12.62,1.96-2.2,4.64-3.41,7.62-3.1s5.94,2.13,7.48,4.82c1.76,3.06,1.94,6.72.7,9.99-.14.36.43.5.57.16h0Z"/>
        <path class="cls-7" d="m196.55,11.33c-.48-1.81-1.58-3.59-3.35-4.37-1.56-.69-3.27-.28-4.59.73-1.44,1.11-2.04,2.74-2.41,4.46-.45,2.14-.11,4.33.67,6.35.59,1.55,1.4,3.02,2.38,4.36.47.64,1.37-.03.87-.67-2.32-2.99-3.94-6.92-3.09-10.74.45-2.03,2.01-4.03,4.22-4.22,2.47-.22,4.15,2.14,4.73,4.26.1.37.67.21.57-.16h0Z"/>
        <path class="cls-7" d="m180.49,23.45c.48.29.92.14,1.42-.03,1.05-.34,1.78-.12,2.45.75.3.39.56.9,1.02,1.11.17.08.34.11.53.09.08,0,.83-.31.7-.38.12.07.12.84.16,1.01.09.41.24.8.48,1.14.4.57.94.75,1.51,1.09.63.37,1.07,1.25,1.88,1.26s1.24-.72,1.08-1.42l-.71.93c.87,0,1.75.08,2.4.74.45.45.64,1.1,1.14,1.5.99.8,2.35.14,3.13-.64.94-.96,1.35-2.4.69-3.63-.6-1.11-1.9-1.95-3.14-2.07-.71-.06-1.32.19-1.86-.42-.48-.54-.64-1.26-1.22-1.74-.48-.4-1.02-.54-1.63-.6-1.05-.09-1.68-.48-2.21-1.39s-1.33-1.44-2.43-1.15c-.87.23-1.44.22-2.23-.32-.56-.39-.73-.89-1.14-1.41-.93-1.19-1.87.81-2.13,1.51-.42,1.15-1.08,3.16-.07,4.17.46.46,1.18-.26.72-.72-.71-.71.16-3,.53-3.76.06-.13.39-.6.27-.58-.15.02.1.35.19.49.21.33.47.61.77.85.78.61,1.81.91,2.79.71.51-.1,1.03-.35,1.47.07.34.32.48.9.77,1.28.76.99,1.7,1.13,2.84,1.29,1.54.21,1.14,1.84,2.15,2.61s2.05.21,3.07.69,1.85,1.62,1.07,2.72c-.2.28-.9,1.05-1.34.88-.29-.11-.58-.88-.77-1.12-.89-1.15-2.4-1.61-3.81-1.42-.42.06-.9.43-.71.93l.27-.42-.14-.13c-.07-.14-.31-.28-.43-.38-.24-.19-.5-.33-.78-.45-.7-.3-1.21-.53-1.45-1.35-.22-.76-.35-2-1.44-1.41-.31.16-.47.47-.85.27-.19-.1-.35-.42-.47-.59-.28-.38-.57-.76-.96-1.02-.46-.3-.98-.42-1.52-.35-.49.07-1.26.59-1.73.3-.33-.2-.63.31-.3.51Z"/>
        <path class="cls-7" d="m116.11,103.01c-.37-1.46-.25-2.78.72-3.97.47-.58.84-1.14.91-1.91s-.28-1.48-.5-2.23c-.33-1.15-.19-2,.18-3.08.67-1.98-.12-3.68-.76-5.51-.75-2.14-.28-4.25.73-6.22.49-.96-.96-1.81-1.44-.84-.95,1.89-1.56,3.94-1.19,6.06.17,1,.6,1.87.99,2.79.5,1.2.54,2.35.35,3.63-.14.92-.23,1.76-.04,2.69s.83,1.79.76,2.73c-.07,1-1.02,1.81-1.3,2.78-.32,1.09-.27,2.16.02,3.25.1.37.67.21.57-.16h0Z"/>
        <path class="cls-7" d="m115.84,102.94c-.59-.89-1.07-1.86-.99-2.96.07-.88.62-1.6.79-2.45.14-.7.01-1.45-.36-2.06-.49-.79-1.18-1.3-1.25-2.31-.11-1.44.79-2.67-.11-4-.43-.64-1-1.12-1.36-1.82-.51-.99-.56-2-.34-3.08.2-.95-1.27-1.34-1.45-.4-.36,1.97,0,3.65,1.37,5.13.53.58,1.13,1.04,1.03,1.9s-.37,1.67-.25,2.56.57,1.52,1.11,2.19c.72.9.61,1.67.2,2.69-.75,1.84-.29,3.59,1.14,4.96.24.23.66-.07.47-.36h0Z"/>
        <path class="cls-7" d="m103.13,19.06c-2.11,2.03-5.79,3.67-8.6,1.99-1.81-1.08-3.05-3.23-1.92-5.24.86-1.53,2.51-2.38,4.19-2.67.73-.13.42-1.25-.31-1.12-1.79.31-3.48,1.22-4.54,2.72-.93,1.33-1.15,3.02-.46,4.5,1.15,2.47,3.88,3.61,6.49,3.2,2.08-.33,3.98-1.61,5.45-3.07.2-.2-.11-.51-.31-.31h0Z"/>
        <path class="cls-7" d="m100.51,26.16c-2.45,1.66-5.37,1.73-7.84.09-1.25-.83-2.21-2.05-2.98-3.33-2.23-3.74-2.51-8.4-.02-12.07,1.82-2.68,4.92-4.01,8.12-3.8.99.06.99-1.49,0-1.55-5.86-.34-10.52,4.21-11.12,9.88-.49,4.62,1.71,8.56,5.36,11.18,2.69,1.93,6.03,1.98,8.77.1.31-.21.02-.73-.3-.51h0Z"/>
        <path class="cls-7" d="m98.5,16.32c-2.23-5.85.46-12.96,6.84-14.57,3.02-.76,6.13.04,8.36,2.22,1.2,1.17,2.23,2.58,2.93,4.11,1.39,3.04,1.1,6.44-.88,9.14-.38.53.49,1.21.91.7,2.12-2.59,2.85-5.9,1.87-9.13-.62-2.03-1.78-3.94-3.23-5.49-2.31-2.47-5.61-3.69-8.97-3.21s-6.37,2.46-8.05,5.36c-1.95,3.37-1.79,7.49-.35,11.02.14.35.71.2.57-.16h0Z"/>
        <path class="cls-7" d="m102.16,11c.57-2.11,2.26-4.49,4.73-4.26,2.21.2,3.77,2.18,4.22,4.22.85,3.82-.77,7.75-3.09,10.74-.49.63.39,1.32.87.67,2.03-2.77,3.63-6.36,3.19-9.86-.22-1.77-.76-3.68-2.1-4.93-1.19-1.12-2.89-1.79-4.52-1.3-2.06.61-3.35,2.59-3.87,4.57-.1.37.47.53.57.16h0Z"/>
        <path class="cls-7" d="m115.86,23c.94.18,1.82.58,2.55,1.2.12.1.3.12.42,0,.11-.11.12-.32,0-.42-.81-.69-1.77-1.15-2.81-1.35-.16-.03-.32.04-.37.21-.04.15.05.33.21.37h0Z"/>
        <path class="cls-7" d="m112.13,25.72c.83.89,1.46,1.95,1.85,3.11.12.36.69.21.57-.16-.42-1.25-1.1-2.4-2-3.37-.26-.28-.68.14-.42.42h0Z"/>
        <path class="cls-7" d="m108.86,26.03c-.34,1.21-.21,2.46.3,3.6.07.15.28.18.41.11.15-.09.17-.26.11-.41-.44-.99-.53-2.1-.24-3.14.1-.37-.47-.53-.57-.16h0Z"/>
        <path class="cls-7" d="m114.77,23.97c.25.19.48.41.68.65.03.03.06.07.08.1,0,0,.05.06.03.04-.01-.02.03.04.03.04.06.08.11.16.17.24.1.16.19.32.27.49.07.14.28.19.41.11.14-.09.18-.26.11-.41-.32-.66-.79-1.24-1.36-1.69-.12-.1-.3-.13-.42,0-.1.11-.13.32,0,.42h0Z"/>
        <path class="cls-7" d="m76.35,200.62c-2.76-1.13-6.02-1.34-8.91-.55-2.46.67-6.23,2.46-5.69,5.57.25,1.43,1.24,2.64,2.03,3.82,1.01,1.5,1.79,3.12,2.62,4.72,1.32,2.54,2.93,4.87,4.12,7.49,3.03,6.73,5.14,14.12,6.06,21.44.77,6.12.58,12.25-.01,18.37-.72,7.49-2.35,14.85-4.83,21.95-.44,1.26,1.55,1.79,1.99.55,3.91-11.15,5.95-23.36,5.37-35.19-.35-7.13-1.81-14.19-4.07-20.96-.98-2.93-2.1-5.83-3.46-8.61-1.24-2.54-2.84-4.87-4.12-7.39-.86-1.68-1.87-3.2-2.88-4.79-.38-.59-.92-1.32-.87-2.07.06-.93,1-1.45,1.71-1.86,3.22-1.86,7.02-1.74,10.6-1.26.82.11,1.11-.92.34-1.24h0Z"/>
        <path class="cls-7" d="m77.81,203.04c2.44,5.04,5.08,9.99,7.2,15.19,2.76,6.77,4.38,13.79,4.77,21.09.45,8.41-.38,16.92-2.93,24.97-1.1,3.48-2.63,7.12-4.89,10.01s-5.11,5.73-8.28,7.9c-1.21.83-.06,2.83,1.16,1.98,5.69-3.94,10.07-9.4,12.68-15.82,1.48-3.62,2.51-7.46,3.19-11.31,2.17-12.32,1.54-25.45-2.92-37.2-1.02-2.68-2.14-5.34-3.39-7.92-1.64-3.41-3.47-6.54-5.8-9.52-.38-.48-1.03.13-.8.62h0Z"/>
        <path class="cls-7" d="m44.47,398.65c1.41.13,2.75.5,4.13.83,1.73.42,3.44.89,5.1,1.54,3.46,1.36,6.76,3.22,9.67,5.54.94.75,2.29-.58,1.34-1.34-3.07-2.46-6.48-4.43-10.24-5.64-1.8-.58-3.66-1.06-5.53-1.31-1.47-.2-2.98-.17-4.46-.22-.39-.01-.37.56,0,.59h0Z"/>
        <path class="cls-7" d="m160.34,131.25c-.42-1.13-1.62-1.94-2.84-1.8-.62.07-1.15.4-1.44.95s-.66,1.16-1.23,1.5c-.74.44-1.48,0-2-.57-.46-.51-.59-1.21-1.22-1.57-1.18-.67-2.87.03-3.75.89-.53.53.29,1.35.82.82.39-.39.86-.62,1.4-.75.3-.07.67-.14.96,0,.25.12.35.38.48.6.58.99,1.75,1.97,2.97,1.75,1.15-.2,1.83-1.29,2.28-2.26.32-.67,1.13-.84,1.82-.67.61.14,1.08.64,1.31,1.21.11.26.53.15.43-.12h0Z"/>
        <path class="cls-7" d="m151.07,114.91c-.25,2.31-.92,4.55-2.12,6.56-1,1.66-2.54,2.94-3.26,4.78-.55,1.41-.85,3.25-.25,4.69.74,1.77,2.89,2.31,4.53,1.47.66-.34.08-1.35-.59-1-.83.43-1.93.32-2.57-.39-.55-.61-.61-1.51-.57-2.29.09-1.66.79-3.07,1.79-4.38.9-1.18,1.7-2.36,2.27-3.73.74-1.79,1.05-3.77,1.22-5.69.03-.29-.42-.28-.45,0h0Z"/>
        <path class="cls-7" d="m156.56,114.91c.18,1.99.51,4.04,1.31,5.88.68,1.58,1.73,2.83,2.71,4.23.88,1.25,1.29,2.69,1.23,4.21-.03.74-.17,1.62-.83,2.06-.75.5-1.75.36-2.47-.1-.63-.41-1.21.6-.59,1,1.43.92,3.64.76,4.52-.85.66-1.21.55-2.83.26-4.14-.49-2.22-2.19-3.59-3.36-5.42-1.33-2.07-2.06-4.44-2.32-6.87-.03-.28-.47-.29-.45,0h0Z"/>
        <path class="cls-7" d="m171.56,143.71c-2.88,1.39-5.83,2.47-8.88,3.42-2.84.89-5.62,1.7-8.62,1.73-5.97.06-12.24-2.39-17.34-5.33-.65-.37-1.23.63-.59,1,5.28,3.03,11.74,5.46,17.92,5.33,3.08-.06,5.94-.99,8.82-1.99,3.04-1.05,6.01-2.36,8.89-3.79.26-.13.03-.51-.22-.38h0Z"/>
        <path class="cls-7" d="m189.91,103.74c-3.92-3.65-9.23-6.38-14.62-6.89-3.07-.29-6.17.4-8.61,2.36-2.13,1.7-3.49,4.12-4.29,6.69-.22.71.9,1.02,1.12.31.74-2.38,2-4.63,3.96-6.21,2.45-1.98,5.6-2.44,8.65-2.05,4.88.63,9.84,2.8,13.47,6.11.21.19.53-.12.31-.31h0Z"/>
        <path class="cls-7" d="m189.64,103.71c-7.71,5.03-18.08,5.88-26.4,1.85-.67-.32-1.26.68-.59,1,8.87,4.27,19.12,2.97,27.21-2.47.24-.16.02-.54-.22-.38h0Z"/>
        <path class="cls-7" d="m118.17,103.97c3.46-3.32,8.22-5.48,12.98-6.11,3-.4,6.08-.04,8.63,1.72,2.31,1.59,3.8,4.06,4.63,6.69.23.71,1.35.41,1.12-.31-.86-2.68-2.32-5.17-4.58-6.9-2.56-1.97-5.82-2.63-8.99-2.29-5.27.56-10.35,3.2-14.1,6.88-.21.2.11.51.31.31h0Z"/>
        <path class="cls-7" d="m117.9,104c8.08,5.59,18.42,6.92,27.36,2.62.67-.32.08-1.33-.59-1-8.39,4.06-18.84,3.18-26.55-2-.24-.16-.46.22-.22.38h0Z"/>
        <path class="cls-10" d="m190.65,97.05c-2.93-2.83-6.66-5.01-10.59-6.09-6.28-1.74-12.76-.27-17.85,3.72-.96.75.4,2.12,1.35,1.35,4.75-3.83,10.92-5.28,16.85-3.73,3.58.93,7.03,2.74,9.82,5.17.29.25.7-.15.42-.42h0Z"/>
        <path class="cls-10" d="m117.92,97.2c2.8-2.43,6.24-4.24,9.82-5.17,5.92-1.55,12.1-.1,16.85,3.73.95.77,2.31-.6,1.35-1.35-5.09-3.99-11.57-5.46-17.85-3.72-3.93,1.09-7.65,3.27-10.59,6.09-.28.27.13.67.42.42h0Z"/>
        <path class="cls-7" d="m68.44,322.02c.29.08.58.06.88.04.27-.01.55-.03.82-.04.55-.03,1.1-.04,1.65-.04.45,0,.79-.41.73-.84s-.49-.72-.93-.62c-.54.12-1.07.22-1.61.3-.27.04-.54.09-.81.13-.12.02-.25.04-.37.06-.17.03-.31.09-.47.17-.36.18-.26.74.11.84h0Z"/>
        <path class="cls-7" d="m233.88,380.9c-.25,1.96-.6,3.85-.73,5.82-.15,2.19-.27,4.39-.26,6.58,0,4.41.4,8.81.99,13.18.14,1.07,1.77.62,1.63-.45-.6-4.38-.9-8.79-1.02-13.2-.06-2.04-.12-4.08-.08-6.11.04-1.93-.04-3.9.08-5.82.02-.39-.55-.37-.59,0h0Z"/>
        <path class="cls-7" d="m105.87,123.82c-6.32-5.85-9.42-13.95-9.67-22.45-.07-2.37-.07-4.76.18-7.12.14-1.37.35-2.82.88-4.11.2-.48.46-1.04.89-1.36,1.05-.78,2.34.36,3.1,1.04.55.5,1.38-.32.82-.82-1.07-.96-2.55-2.1-4.07-1.46-.8.34-1.32,1.09-1.67,1.86-1.02,2.21-1.15,4.86-1.22,7.25-.19,5.86.35,11.76,2.77,17.16,1.76,3.93,4.48,7.44,7.66,10.33.21.19.53-.12.31-.31h0Z"/>
        <path class="cls-7" d="m203.33,121.73c5.62-5.11,9.27-11.89,10.15-19.46.27-2.33.33-4.71.3-7.06-.03-2.46-.12-5.12-.94-7.47-.33-.93-.8-1.95-1.69-2.47-1.55-.92-3.22.3-4.35,1.32-.56.5.27,1.32.82.82.75-.68,2.05-1.82,3.1-1.04.43.32.69.88.89,1.36.54,1.28.74,2.73.88,4.11.25,2.36.25,4.75.18,7.12-.25,8.5-3.35,16.6-9.67,22.45-.21.2.1.51.31.31h0Z"/>
        <path class="cls-7" d="m72.14,215.13c.53-.1,1.03-.35,1.56-.47.68-.17,1.38-.28,2.08-.3,1.13-.04,2.21.09,3.29.42s1.53-1.39.46-1.66c-1.29-.33-2.63-.42-3.95-.24-.76.11-1.5.3-2.21.6-.57.24-1.21.49-1.66.93-.33.32.02.81.43.73h0Z"/>
        <path class="cls-7" d="m78.91,230.16c.38.39.92.28,1.43.32.64.05,1.27.18,1.89.36,1.04.29,1.98.77,2.87,1.42.42.31,1.08.07,1.33-.35.27-.45.1-1.06-.35-1.33-1.07-.63-2.26-1.08-3.49-1.27-.73-.12-1.46-.14-2.2-.08-.54.05-1.23.03-1.52.57-.06.12-.05.26.05.36h0Z"/>
        <path class="cls-7" d="m80.35,237.06c.42.24.94.32,1.39.5.6.24,1.18.55,1.67.97.45.38.84.82,1.23,1.26.08.09.16.19.24.28.02.03.17.23.03.03.03.04.06.09.1.13.11.16.22.31.32.48.31.49.96.63,1.42.27.5-.38.46-.99.1-1.45-.73-.92-1.62-1.65-2.69-2.14-.68-.31-1.4-.59-2.13-.75-.5-.11-1.11-.26-1.62-.12-.24.07-.29.42-.07.54h0Z"/>
        <path class="cls-7" d="m78.3,270.59c-.06.35.12.75.22,1.09.09.3.16.6.22.9,0,.04.01.09.02.13.01.08.01.09,0,.03,0-.05,0-.04,0,.03,0,.04.01.09.01.13.02.15.03.31.03.46.01.33.02.66,0,.99-.02.43.39.83.81.81s.81-.36.81-.81c0-.72-.11-1.44-.33-2.13-.11-.35-.25-.69-.4-1.02-.07-.15-.15-.29-.24-.43-.11-.18-.23-.4-.43-.49-.27-.12-.68-.05-.74.3h0Z"/>
        <path class="cls-7" d="m255.07,203.6c-.9-1.04-2.39-1.49-3.71-1.68-.7-.1-1.41-.13-2.11-.07-.75.07-1.43.27-2.16.45-.55.14-.82.76-.61,1.27s.84.74,1.33.45c.97-.59,2.31-.74,3.42-.71,1.24.04,2.37.48,3.55.78.3.08.48-.28.29-.5h0Z"/>
        <path class="cls-7" d="m247.41,241.9c-.6-.14-1.31.28-1.83.54-.58.29-1.14.64-1.66,1.03-1.16.88-2.12,2.01-2.91,3.23-.28.44-.1,1.12.36,1.37s1.12.14,1.37-.36c.61-1.21,1.27-2.1,2.15-3.05.4-.43.83-.83,1.3-1.19.23-.17.47-.33.71-.48.27-.17.55-.33.72-.59.12-.18,0-.45-.2-.49h0Z"/>
        <path class="cls-7" d="m251.79,217.97c-1.3-.27-2.64-.34-3.97-.17-.67.09-1.34.21-1.99.41-.28.08-.55.17-.82.28-.11.04-.21.08-.32.13-.11.05-.22.11-.34.14-.14.03.2-.06-.03-.02-.64.12-.9.94-.6,1.47s1.14.69,1.57.2c.07-.07.03-.05-.03,0,.04-.03.09-.06.14-.09.1-.06.19-.12.29-.18.22-.13.44-.26.67-.38.54-.28,1.1-.51,1.68-.69,1.18-.37,2.41-.54,3.65-.5.33,0,.41-.51.08-.58h0Z"/>
        <path class="cls-7" d="m247.37,250.17c-1.13.55-2.18,1.29-3.07,2.18-.49.49-.91,1.04-1.32,1.59-.19.26-.4.5-.59.76-.07.1-.15.21-.22.32-.04.05-.07.11-.1.16-.05.07-.16.16,0,0-.5.47-.29,1.31.31,1.56s1.37-.19,1.33-.88c.01.2-.03.14,0,.02.01-.05.03-.1.04-.15.03-.11.06-.22.09-.33.07-.25.15-.51.25-.76.24-.54.63-1.11,1-1.6.71-.93,1.58-1.72,2.56-2.36.32-.21.04-.68-.3-.51h0Z"/>
        <path class="cls-7" d="m247.94,266.46c-.31.04-.57.24-.78.47-.33.37-.59.8-.79,1.25-.38.87-.54,1.83-.52,2.77,0,.35.3.69.67.67.33-.01.72-.3.67-.67-.09-.8-.04-1.56.17-2.31.11-.41.27-.78.51-1.13.07-.11.13-.18.24-.33-.03.04-.04.04,0,0,.03-.04.06-.07.09-.11.03-.05.05-.12.07-.18.08-.2-.12-.47-.34-.45h0Z"/>
        <path class="cls-7" d="m124.52,202.56c-.38,2.51.22,4.83,2.26,6.43s4.54,2.94,6.63,4.65c1.16.95,1.97,2,2.21,3.5.37,2.35-.37,4.83-1.13,7.02-.48,1.37,1.66,1.93,2.15.59,1.33-3.64,2.41-8.3-.39-11.54-1.55-1.8-3.84-3.08-5.85-4.29-1.07-.64-2.25-1.23-3.1-2.16-1-1.09-1.47-2.59-1.56-4.04-.04-.65-1.12-.91-1.23-.17h0Z"/>
        <path class="cls-7" d="m124.53,208.7c-1.36,1.69-1.8,4.65-1.81,6.77-.01,2.31.99,4.28,2.46,6.01,1.55,1.84,3.49,3.29,5.18,5s3.74,4.31,2.58,6.89c-.52,1.17,1.2,2.18,1.73,1.01,2.16-4.83-2.21-8.68-5.48-11.6-1.7-1.52-3.73-3.16-4.52-5.38-.49-1.37-.43-2.91-.27-4.34s.66-2.77.64-4.15c0-.24-.34-.42-.51-.21h0Z"/>
        <path class="cls-7" d="m123.39,223.15c-.72.53-.95,1.63-1.19,2.46-.31,1.07-.5,2.17-.5,3.28.02,2.31.83,4.47,2.35,6.21,1.83,2.08,4.61,3.02,6.11,5.43,1.37,2.2,1.43,4.75.2,7.02-.71,1.31,1.32,2.49,2,1.17,2.45-4.76.49-9.52-3.67-12.49-2.28-1.63-4.27-3.06-4.97-5.92-.29-1.19-.33-2.44-.25-3.66.06-1.04.62-2.32.34-3.33-.05-.17-.28-.29-.44-.18h0Z"/>
        <path class="cls-7" d="m124.32,237.76l-.1-.02c-.21-.05-.47,0-.62.16-2.9,3.32-2.94,8.82-.34,12.28,1.61,2.15,4.13,3.07,5.9,5s2.07,4.64,1.39,7.13c-.4,1.48,1.9,2.11,2.29.63.65-2.44.62-5.09-.62-7.35-1.46-2.67-4.17-3.54-6.34-5.44-1.94-1.7-2.91-4.12-2.71-6.69.1-1.21.44-2.45.9-3.57.15-.36,1.12-1.92.24-2.13h0Z"/>
        <path class="cls-7" d="m124.68,253.9c-.97.21-1.5,1.47-1.93,2.27-.58,1.08-1,2.21-1.18,3.42-.34,2.33.31,4.62,1.97,6.33,1.84,1.89,4.6,2.79,6.11,5.01s1.14,4.82-.46,6.9c-.93,1.22,1.15,2.43,2.06,1.21,1.44-1.91,2.1-4.29,1.55-6.65-.58-2.48-2.46-4.16-4.5-5.51-2.21-1.47-4.74-2.85-4.99-5.79-.11-1.29.2-2.6.62-3.81.34-.99,1.3-2.11,1.1-3.18-.03-.16-.22-.24-.37-.21h0Z"/>
        <path class="cls-7" d="m124.71,268.78c-1,.02-1.63,1.09-2.16,1.84-.69.97-1.22,2.07-1.49,3.23-.52,2.22-.27,4.83,1.6,6.36,2.01,1.65,4.66,2.25,6.09,4.6,1.63,2.66.31,5.89-.67,8.53-.55,1.47,1.8,2.1,2.35.65.91-2.43,1.82-5.01,1.34-7.64-.44-2.45-2.23-4.2-4.22-5.53-1-.66-2.1-1.11-3.11-1.75-1.27-.8-1.71-1.95-1.75-3.41-.04-1.24.28-2.48.79-3.6.43-.94,1.58-1.95,1.53-2.99,0-.16-.13-.3-.3-.3h0Z"/>
        <path class="cls-7" d="m124.25,283.5c-1.5-1.76-2.83,2.43-2.95,3.28-.33,2.37.56,4.59,2.16,6.32,1.82,1.98,4.45,3.07,5.88,5.42,1.28,2.1,1.34,4.57.24,6.76-.63,1.24,1.24,2.35,1.88,1.1,2.05-4.05.99-8.57-2.45-11.49-1.81-1.54-4.1-2.65-5.28-4.81-.54-.98-.84-2.11-.8-3.23.02-.58.13-1.17.32-1.72.21-.61.56-.81,1.01-1.2.13-.11.1-.3,0-.42h0Z"/>
        <path class="cls-7" d="m81.44,254.17c.05.05.11.1.16.15l-.13-.51v.02c-.06.21,0,.43.15.58.19.2.4.31.6.48s.39.33.57.52c.34.35.56.66.81,1.12.05.1.1.2.15.31.1.21-.02-.06.03.07.02.06.05.12.07.18.09.23.15.47.21.72.01.06.02.12.03.18,0,.03.03.19,0,.05.01.12.02.24.03.37,0,.25,0,.49-.03.74-.05.42.4.81.8.8.46-.02.77-.35.8-.8.08-1.16-.24-2.34-.83-3.34-.3-.5-.67-.97-1.09-1.37s-.99-.88-1.57-1.01c-.2-.04-.44-.01-.58.15v.02c.15-.04.32-.09.49-.13-.08-.01-.15-.03-.23-.04-.2-.03-.4.02-.51.21-.1.17-.08.41.07.55h0Z"/>
        <path class="cls-7" d="m253.16,210.28c-1.1-.73-2.39-1.14-3.71-1.22-.84-.05-1.71.06-2.52.29-.34.1-.67.23-1,.37-.13.06-.26.11-.38.18-.05.02-.1.05-.15.08.09-.05.17-.06.02-.02-.62.19-.93.9-.6,1.47.3.51,1.17.72,1.57.2.03-.04.05-.07.08-.1.07-.08-.2.13-.02,0,.09-.06.18-.13.27-.19.22-.15.46-.29.69-.41.63-.33,1.33-.54,2.04-.63,1.15-.14,2.34.04,3.4.5.34.15.63-.3.3-.51h0Z"/>
        <path class="cls-7" d="m248.6,233.93c-.51-.14-1.12,0-1.62.12-.73.17-1.45.44-2.13.75-1.07.49-1.96,1.22-2.69,2.14-.36.45-.4,1.06.1,1.45.46.36,1.11.22,1.42-.27.1-.15.2-.3.3-.45.04-.05.08-.1.11-.15-.07.1-.07.08,0,0,.08-.1.16-.19.24-.28.4-.45.8-.9,1.26-1.29.48-.41,1.04-.72,1.63-.96.47-.19,1-.27,1.44-.51.22-.13.17-.48-.07-.54h0Z"/>
        <path class="cls-7" d="m249.79,226.26c-.47-.24-1.09-.24-1.61-.23-.77,0-1.56.12-2.31.29-1.21.28-2.24.85-3.19,1.64-.4.33-.35,1.02,0,1.37.37.37,1,.38,1.37,0,.13-.13.25-.25.39-.37.09-.08.18-.16.27-.23.04-.03.08-.06.12-.1-.1.08-.01,0,.04-.03.48-.35.96-.7,1.49-.98.58-.31,1.2-.5,1.85-.62.49-.09,1.03-.05,1.5-.19.23-.07.31-.42.07-.54h0Z"/>
        <path class="cls-7" d="m247.56,258.45c-.87.57-1.65,1.27-2.29,2.09-.35.44-.63.91-.94,1.38-.13.2-.27.38-.4.58-.05.08-.1.16-.15.24-.03.04-.05.08-.08.12-.05.09-.15.13.02-.02-.57.48-.23,1.43.42,1.61.72.2,1.35-.48,1.18-1.18l.03.15c0-.07,0-.07,0,0-.02.14,0,0,0-.03.01-.09.03-.19.04-.28.04-.22.07-.44.13-.65.13-.46.37-.9.6-1.31.47-.84,1.06-1.6,1.78-2.24.25-.22-.08-.65-.36-.47h0Z"/>
        <path class="cls-7" d="m155.07,213.1c-.38,2.51.22,4.83,2.26,6.43s4.54,2.94,6.63,4.65c1.16.95,1.97,2,2.21,3.5.37,2.35-.37,4.83-1.13,7.02-.48,1.37,1.66,1.93,2.15.59,1.33-3.64,2.41-8.3-.39-11.54-1.55-1.8-3.84-3.08-5.85-4.29-1.07-.64-2.25-1.23-3.1-2.16-1-1.09-1.47-2.59-1.56-4.04-.04-.65-1.12-.91-1.23-.17h0Z"/>
        <path class="cls-7" d="m155.08,219.24c-1.36,1.69-1.8,4.65-1.81,6.77-.01,2.31.99,4.28,2.46,6.01,1.55,1.84,3.49,3.29,5.18,5s3.74,4.31,2.58,6.89c-.52,1.17,1.2,2.18,1.73,1.01,2.16-4.83-2.21-8.68-5.48-11.6-1.7-1.52-3.73-3.16-4.52-5.38-.49-1.37-.43-2.91-.27-4.34s.66-2.77.64-4.15c0-.24-.34-.42-.51-.21h0Z"/>
        <path class="cls-7" d="m153.94,233.69c-.72.53-.95,1.63-1.19,2.46-.31,1.07-.5,2.17-.5,3.28.02,2.31.83,4.47,2.35,6.21,1.83,2.08,4.61,3.02,6.11,5.43,1.37,2.2,1.43,4.75.2,7.02-.71,1.31,1.32,2.49,2,1.17,2.45-4.76.49-9.52-3.67-12.49-2.28-1.63-4.27-3.06-4.97-5.92-.29-1.19-.33-2.44-.25-3.66.06-1.04.62-2.32.34-3.33-.05-.17-.28-.29-.44-.18h0Z"/>
        <path class="cls-7" d="m154.87,248.3l-.1-.02c-.21-.05-.47,0-.62.16-2.9,3.32-2.94,8.82-.34,12.28,1.61,2.15,4.13,3.07,5.9,5s2.07,4.64,1.39,7.13c-.4,1.48,1.9,2.11,2.29.63.65-2.44.62-5.09-.62-7.35-1.46-2.67-4.17-3.54-6.34-5.44-1.94-1.7-2.91-4.12-2.71-6.69.1-1.21.44-2.45.9-3.57.15-.36,1.12-1.92.24-2.13h0Z"/>
        <path class="cls-7" d="m155.23,264.44c-.97.21-1.5,1.47-1.93,2.27-.58,1.08-1,2.21-1.18,3.42-.34,2.33.31,4.62,1.97,6.33,1.84,1.89,4.6,2.79,6.11,5.01s1.14,4.82-.46,6.9c-.93,1.22,1.15,2.43,2.06,1.21,1.44-1.91,2.1-4.29,1.55-6.65-.58-2.48-2.46-4.16-4.5-5.51-2.21-1.47-4.74-2.85-4.99-5.79-.11-1.29.2-2.6.62-3.81.34-.99,1.3-2.11,1.1-3.18-.03-.16-.22-.24-.37-.21h0Z"/>
        <path class="cls-7" d="m155.26,279.32c-1,.02-1.63,1.09-2.16,1.84-.69.97-1.22,2.07-1.49,3.23-.52,2.22-.27,4.83,1.6,6.36,2.01,1.65,4.66,2.25,6.09,4.6,1.63,2.66.31,5.89-.67,8.53-.55,1.47,1.8,2.1,2.35.65.91-2.43,1.82-5.01,1.34-7.64-.44-2.45-2.23-4.2-4.22-5.53-1-.66-2.1-1.11-3.11-1.75-1.27-.8-1.71-1.95-1.75-3.41-.04-1.24.28-2.48.79-3.6.43-.94,1.58-1.95,1.53-2.99,0-.16-.13-.3-.3-.3h0Z"/>
        <path class="cls-7" d="m153.13,294.04c-1.5-1.76-2.83,2.43-2.95,3.28-.33,2.37.56,4.59,2.16,6.32,1.82,1.98,4.45,3.07,5.88,5.42,1.28,2.1,1.34,4.57.24,6.76-.63,1.24,1.24,2.35,1.88,1.1,2.05-4.05.99-8.57-2.45-11.49-1.81-1.54-4.1-2.65-5.28-4.81-.54-.98-.84-2.11-.8-3.23.02-.58.13-1.17.32-1.72.21-.61.56-.81,1.01-1.2.13-.11.1-.3,0-.42h0Z"/>
        <path class="cls-7" d="m186.12,207.09c-.38,2.51.22,4.83,2.26,6.43s4.54,2.94,6.63,4.65c1.16.95,1.97,2,2.21,3.5.37,2.35-.37,4.83-1.13,7.02-.48,1.37,1.66,1.93,2.15.59,1.33-3.64,2.41-8.3-.39-11.54-1.55-1.8-3.84-3.08-5.85-4.29-1.07-.64-2.25-1.23-3.1-2.16-1-1.09-1.47-2.59-1.56-4.04-.04-.65-1.12-.91-1.23-.17h0Z"/>
        <path class="cls-7" d="m186.13,213.23c-1.36,1.69-1.8,4.65-1.81,6.77-.01,2.31.99,4.28,2.46,6.01,1.55,1.84,3.49,3.29,5.18,5s3.74,4.31,2.58,6.89c-.52,1.17,1.2,2.18,1.73,1.01,2.16-4.83-2.21-8.68-5.48-11.6-1.7-1.52-3.73-3.16-4.52-5.38-.49-1.37-.43-2.91-.27-4.34s.66-2.77.64-4.15c0-.24-.34-.42-.51-.21h0Z"/>
        <path class="cls-7" d="m184.99,227.68c-.72.53-.95,1.63-1.19,2.46-.31,1.07-.5,2.17-.5,3.28.02,2.31.83,4.47,2.35,6.21,1.83,2.08,4.61,3.02,6.11,5.43,1.37,2.2,1.43,4.75.2,7.02-.71,1.31,1.32,2.49,2,1.17,2.45-4.76.49-9.52-3.67-12.49-2.28-1.63-4.27-3.06-4.97-5.92-.29-1.19-.33-2.44-.25-3.66.06-1.04.62-2.32.34-3.33-.05-.17-.28-.29-.44-.18h0Z"/>
        <path class="cls-7" d="m185.92,242.29l-.1-.02c-.21-.05-.47,0-.62.16-2.9,3.32-2.94,8.82-.34,12.28,1.61,2.15,4.13,3.07,5.9,5s2.07,4.64,1.39,7.13c-.4,1.48,1.9,2.11,2.29.63.65-2.44.62-5.09-.62-7.35-1.46-2.67-4.17-3.54-6.34-5.44-1.94-1.7-2.91-4.12-2.71-6.69.1-1.21.44-2.45.9-3.57.15-.36,1.12-1.92.24-2.13h0Z"/>
        <path class="cls-7" d="m186.28,258.44c-.97.21-1.5,1.47-1.93,2.27-.58,1.08-1,2.21-1.18,3.42-.34,2.33.31,4.62,1.97,6.33,1.84,1.89,4.6,2.79,6.11,5.01s1.14,4.82-.46,6.9c-.93,1.22,1.15,2.43,2.06,1.21,1.44-1.91,2.1-4.29,1.55-6.65-.58-2.48-2.46-4.16-4.5-5.51-2.21-1.47-4.74-2.85-4.99-5.79-.11-1.29.2-2.6.62-3.81.34-.99,1.3-2.11,1.1-3.18-.03-.16-.22-.24-.37-.21h0Z"/>
        <path class="cls-7" d="m186.31,273.31c-1,.02-1.63,1.09-2.16,1.84-.69.97-1.22,2.07-1.49,3.23-.52,2.22-.27,4.83,1.6,6.36,2.01,1.65,4.66,2.25,6.09,4.6,1.63,2.66.31,5.89-.67,8.53-.55,1.47,1.8,2.1,2.35.65.91-2.43,1.82-5.01,1.34-7.64-.44-2.45-2.23-4.2-4.22-5.53-1-.66-2.1-1.11-3.11-1.75-1.27-.8-1.71-1.95-1.75-3.41-.04-1.24.28-2.48.79-3.6.43-.94,1.58-1.95,1.53-2.99,0-.16-.13-.3-.3-.3h0Z"/>
        <path class="cls-7" d="m185.85,288.04c-1.5-1.76-2.83,2.43-2.95,3.28-.33,2.37.56,4.59,2.16,6.32,1.82,1.98,4.45,3.07,5.88,5.42,1.28,2.1,1.34,4.57.24,6.76-.63,1.24,1.24,2.35,1.88,1.1,2.05-4.05.99-8.57-2.45-11.49-1.81-1.54-4.1-2.65-5.28-4.81-.54-.98-.84-2.11-.8-3.23.02-.58.13-1.17.32-1.72.21-.61.56-.81,1.01-1.2.13-.11.1-.3,0-.42h0Z"/>
        <path class="cls-7" d="m94.02,200.4c-.08,2.52.83,4.72,3.02,6.06s4.75,2.37,7.01,3.76c1.24.76,2.19,1.62,2.63,3.02.75,2.32.32,4.93-.19,7.24-.31,1.4,1.82,2,2.15.59.92-3.83,1.52-8.83-1.87-11.68-1.92-1.62-4.39-2.65-6.66-3.65-1.04-.46-2.15-.93-2.99-1.73-1.04-.99-1.62-2.38-1.87-3.78-.12-.72-1.21-.51-1.23.17h0Z"/>
        <path class="cls-7" d="m95.86,205.74c-1.36,1.69-1.8,4.65-1.81,6.77-.01,2.31.99,4.28,2.46,6.01,1.55,1.84,3.49,3.29,5.18,5s3.74,4.31,2.58,6.89c-.52,1.17,1.2,2.18,1.73,1.01,2.16-4.83-2.21-8.68-5.48-11.6-1.7-1.52-3.73-3.16-4.52-5.38-.49-1.37-.43-2.91-.27-4.34s.66-2.77.64-4.15c0-.24-.34-.42-.51-.21h0Z"/>
        <path class="cls-7" d="m97.11,220.05c-.72.53-.95,1.63-1.19,2.46-.31,1.07-.5,2.17-.5,3.28.02,2.31.83,4.47,2.35,6.21,1.83,2.08,4.61,3.02,6.11,5.43,1.37,2.2,1.43,4.75.2,7.02-.71,1.31,1.32,2.49,2,1.17,2.45-4.76.49-9.52-3.67-12.49-2.28-1.63-4.27-3.06-4.97-5.92-.29-1.19-.33-2.44-.25-3.66.06-1.04.62-2.32.34-3.33-.05-.17-.28-.29-.44-.18h0Z"/>
        <path class="cls-7" d="m98.04,234.66l-.1-.02c-.21-.05-.47,0-.62.16-2.9,3.32-2.94,8.82-.34,12.28,1.61,2.15,4.13,3.07,5.9,5s2.07,4.64,1.39,7.13c-.4,1.48,1.9,2.11,2.29.63.65-2.44.62-5.09-.62-7.35-1.46-2.67-4.17-3.54-6.34-5.44-1.94-1.7-2.91-4.12-2.71-6.69.1-1.21.44-2.45.9-3.57.15-.36,1.12-1.92.24-2.13h0Z"/>
        <path class="cls-7" d="m98.4,250.81c-.97.21-1.5,1.47-1.93,2.27-.58,1.08-1,2.21-1.18,3.42-.34,2.33.31,4.62,1.97,6.33,1.84,1.89,4.6,2.79,6.11,5.01s1.14,4.82-.46,6.9c-.93,1.22,1.15,2.43,2.06,1.21,1.44-1.91,2.1-4.29,1.55-6.65-.58-2.48-2.46-4.16-4.5-5.51-2.21-1.47-4.74-2.85-4.99-5.79-.11-1.29.2-2.6.62-3.81.34-.99,1.3-2.11,1.1-3.18-.03-.16-.22-.24-.37-.21h0Z"/>
        <path class="cls-7" d="m95.43,265.68c-1,.02-1.63,1.09-2.16,1.84-.69.97-1.22,2.07-1.49,3.23-.52,2.22-.27,4.83,1.6,6.36,2.01,1.65,4.66,2.25,6.09,4.6,1.63,2.66.31,5.89-.67,8.53-.55,1.47,1.8,2.1,2.35.65.91-2.43,1.82-5.01,1.34-7.64-.44-2.45-2.23-4.2-4.22-5.53-1-.66-2.1-1.11-3.11-1.75-1.27-.8-1.71-1.95-1.75-3.41-.04-1.24.28-2.48.79-3.6.43-.94,1.58-1.95,1.53-2.99,0-.16-.13-.3-.3-.3h0Z"/>
        <path class="cls-7" d="m92.97,280.41c-1.5-1.76-2.83,2.43-2.95,3.28-.33,2.37.56,4.59,2.16,6.32,1.82,1.98,4.45,3.07,5.88,5.42,1.28,2.1,1.34,4.57.24,6.76-.63,1.24,1.24,2.35,1.88,1.1,2.05-4.05.99-8.57-2.45-11.49-1.81-1.54-4.1-2.65-5.28-4.81-.54-.98-.84-2.11-.8-3.23.02-.58.13-1.17.32-1.72.21-.61.56-.81,1.01-1.2.13-.11.1-.3,0-.42h0Z"/>
        <path class="cls-7" d="m217.68,201.43c-.43,2.49.13,4.85,2.15,6.48s4.4,2.99,6.43,4.71c1.14.96,1.98,2,2.2,3.51.36,2.39-.45,4.91-1.27,7.12-.51,1.36,1.64,1.92,2.15.59,1.43-3.66,2.58-8.31-.23-11.62-1.56-1.83-3.86-3.17-5.87-4.43-1-.63-2.09-1.22-2.87-2.12-.97-1.11-1.4-2.62-1.46-4.07-.03-.67-1.1-.9-1.23-.17h0Z"/>
        <path class="cls-7" d="m216.1,207.7c-1.36,1.69-1.8,4.65-1.81,6.77-.01,2.31.99,4.28,2.46,6.01,1.55,1.84,3.49,3.29,5.18,5s3.74,4.31,2.58,6.89c-.52,1.17,1.2,2.18,1.73,1.01,2.16-4.83-2.21-8.68-5.48-11.6-1.7-1.52-3.73-3.16-4.52-5.38-.49-1.37-.43-2.91-.27-4.34s.66-2.77.64-4.15c0-.24-.34-.42-.51-.21h0Z"/>
        <path class="cls-7" d="m214.96,222.15c-.72.53-.95,1.63-1.19,2.46-.31,1.07-.5,2.17-.5,3.28.02,2.31.83,4.47,2.35,6.21,1.83,2.08,4.61,3.02,6.11,5.43,1.37,2.2,1.43,4.75.2,7.02-.71,1.31,1.32,2.49,2,1.17,2.45-4.76.49-9.52-3.67-12.49-2.28-1.63-4.27-3.06-4.97-5.92-.29-1.19-.33-2.44-.25-3.66.06-1.04.62-2.32.34-3.33-.05-.17-.28-.29-.44-.18h0Z"/>
        <path class="cls-7" d="m215.13,236.95l-.08-.02c-.2-.04-.48-.02-.62.16-2.72,3.48-2.4,8.91.33,12.25,1.74,2.12,4.41,2.86,6.31,4.74s2.31,4.42,1.8,6.9c-.31,1.49,1.99,2.13,2.29.63.46-2.29.38-4.7-.73-6.81-1.25-2.39-3.46-3.48-5.7-4.76-2.12-1.21-3.73-3.04-4.24-5.47s.34-4.56.99-6.87c.06-.22,0-.46-.16-.62-.06-.05-.12-.13-.2-.15h0Z"/>
        <path class="cls-7" d="m213.81,252.02c-.93.28-1.18,1.79-1.41,2.61-.31,1.12-.49,2.29-.41,3.46.16,2.32,1.2,4.4,3.12,5.75,2.21,1.55,5.14,1.76,7.2,3.55s2.43,4.35,1.37,6.7c-.63,1.39,1.44,2.61,2.06,1.21,1.03-2.31,1.25-4.84.08-7.15s-3.55-3.52-5.92-4.38c-2.49-.91-5.1-1.79-5.91-4.6-.34-1.18-.33-2.47-.2-3.69.1-.92.86-2.49.35-3.31-.07-.11-.21-.18-.34-.14h0Z"/>
        <path class="cls-7" d="m213.02,266.62c-1.02.4-1.07,2.06-1.17,3.01-.13,1.23-.04,2.48.33,3.66.79,2.56,2.54,4.37,5.27,4.6s5.64-.1,7.66,2.13c1.58,1.74,1.85,4.41,2.12,6.65.19,1.53,2.62,1.56,2.44,0-.27-2.32-.55-4.71-1.75-6.77-1.27-2.19-3.43-3.32-5.87-3.71-1.37-.22-2.71-.2-4.09-.24-1.48-.05-2.49-.5-3.32-1.76-.71-1.08-1.09-2.3-1.22-3.58-.08-.74-.06-1.5.03-2.24.07-.58.28-1.11-.09-1.61-.07-.1-.21-.19-.34-.14h0Z"/>
        <path class="cls-7" d="m224.74,199.6c-.22,1.03.19,1.96.97,2.65.87.77,2,1.12,2.93,1.8,1.52,1.11,2.35,2.78,2.15,4.62-.06.57.53,1.06,1.06,1.06.61,0,1.02-.49,1.06-1.06.17-2.06-.75-4.21-2.33-5.54-.89-.74-1.96-1.03-3.06-1.33-.96-.27-2.3-.91-2.19-2.12.03-.33-.51-.4-.58-.08h0Z"/>
        <path class="cls-7" d="m193.58,203.39c.16.41.51.6.86.84.38.25.76.5,1.13.77.69.49,1.36.96,1.92,1.61,1.33,1.56,1.13,3.56.87,5.47-.07.54.51,1,1,1,.6,0,.93-.46,1-1,.3-2.34.37-4.79-1.38-6.61-.67-.7-1.52-1.3-2.39-1.71-.45-.21-.91-.4-1.39-.54-.44-.14-.98-.37-1.43-.19-.14.05-.27.2-.21.37h0Z"/>
        <path class="cls-7" d="m162.62,209.98c-.58,1.11.47,2.14,1.4,2.57,1.01.47,1.91.87,2.63,1.76,1.2,1.49,1.57,3.59.85,5.34-.2.5.22,1.1.7,1.23.56.15,1.04-.19,1.23-.7.76-2.04.36-4.43-.93-6.17-.64-.86-1.45-1.59-2.43-2.04s-2.81-.51-2.91-1.84c-.02-.27-.41-.43-.55-.15h0Z"/>
        <path class="cls-7" d="m101.56,195.36c-.27.34-.51.67-.48,1.12.03.48.24.94.52,1.31.65.86,1.75,1.15,2.62,1.72,1.43.93,1.3,3.1,1.22,4.66-.03.54.48,1,1,1,.56,0,.98-.46,1-1,.07-1.84.02-3.89-1.24-5.36-.69-.8-1.6-1.11-2.57-1.41-.43-.13-.84-.27-1.17-.59-.23-.22-.6-.77-.44-1.11.14-.28-.24-.64-.47-.36h0Z"/>
        <path class="cls-7" d="m150.98,306.58c-1.99,3.02-3.01,9.35,1.15,11.11.98.41,1.99.63,2.83,1.34.77.65,1.34,1.52,1.73,2.45,1,2.43.66,5.18.25,7.7-.21,1.28,1.75,1.83,1.96.54.67-4.18.96-9.21-2.64-12.21-1.55-1.29-4.15-1.24-4.81-3.37-.71-2.3-.24-4.92.56-7.12.23-.63-.69-.94-1.03-.43h0Z"/>
        <path class="cls-7" d="m149.2,319.89c-1.39,1.96-2.83,4.46-2.59,6.96.21,2.25,1.48,4.02,3.49,5.01s4.33,1.61,5.94,3.26c2.01,2.05,1.41,5.51.42,7.9-.56,1.33,1.62,1.92,2.17.6.98-2.38,1.37-5.34.42-7.8-.79-2.03-2.58-3.34-4.48-4.28s-4.79-1.45-5.7-3.7c-1.03-2.55.35-5.22,1.25-7.56.22-.56-.61-.81-.91-.39h0Z"/>
        <path class="cls-7" d="m149.13,333.78c-2.1.06-3.26,2.98-3.44,4.72-.25,2.46,1.42,4.11,3.36,5.31s3.87,2.33,5,4.51c1.04,2.02,1.18,4.31.38,6.43-.52,1.38,1.71,1.99,2.21.61,1.44-3.9.09-8.43-3.09-11.08-1.58-1.32-3.67-1.96-5.17-3.36-.95-.88-1.14-1.97-.84-3.21s.82-2.1,1.86-2.88c.41-.31.33-1.07-.28-1.05h0Z"/>
        <path class="cls-7" d="m148.19,345.73c-.57.02-.8-.03-1.35.24-.38.19-.74.44-1.06.73-.69.63-1.22,1.47-1.44,2.38-.52,2.14.55,4.19,2.3,5.4,2.04,1.41,4.41,2.24,6.28,3.93.89.8,1.49,1.7,1.41,2.96-.09,1.33-.74,2.57-1.36,3.71-.75,1.38,1.37,2.62,2.1,1.23,1.07-2.02,2.13-4.39,1.45-6.71-.63-2.18-2.62-3.49-4.47-4.58-1.01-.59-2.06-1.09-3.11-1.6-1-.48-2.07-1.01-2.64-2-.54-.93-.57-2.05-.07-2.99.23-.43.55-.8.92-1.12.24-.22.53-.36.78-.57.15-.13.25-.33.4-.44.21-.16.17-.56-.15-.55h0Z"/>
        <path class="cls-7" d="m144.87,356.65c-2.76,2.38-3.04,6.98-.43,9.6,1.68,1.69,4.14,2.24,5.88,3.85s2.61,3.88,1.19,5.91c-.79,1.13,1.07,2.21,1.85,1.08,1.23-1.78,1.26-4.05.33-5.97s-2.88-3.38-4.82-4.35-3.8-1.81-4.47-3.95c-.59-1.88.02-3.85,1.46-5.16.67-.61-.32-1.58-.99-.99h0Z"/>
        <path class="cls-7" d="m144.55,368.89c-1.52,1.5-3.04,3.79-1.93,5.96.94,1.85,3.09,2.36,4.86,3.06,3.43,1.34,5.34,5.47,3.1,8.69-.8,1.15,1.08,2.24,1.88,1.1,2.18-3.13,1.38-7.56-1.42-10.05-1.53-1.36-3.43-1.77-5.27-2.52-.93-.38-1.85-.91-1.93-2.02-.09-1.29.81-2.6,1.41-3.68.24-.44-.33-.9-.7-.54h0Z"/>
        <path class="cls-7" d="m143.35,379.28c-3.22,2.09-2.6,6.93.73,8.58,1.92.96,3.95,1.29,5.48,2.92,1.31,1.39,1.93,3.23,1.69,5.13-.08.64.6,1.18,1.19,1.19.7,0,1.11-.55,1.19-1.19.44-3.78-2.08-7.42-5.51-8.85-1.64-.68-3.89-.89-4.79-2.64-.71-1.38-.36-3.17.7-4.27.42-.44-.13-1.22-.67-.87h0Z"/>
        <path class="cls-7" d="m143.16,390.12c-.87-.12-1.62.59-2.1,1.25-.54.74-.81,1.64-.92,2.54-.25,2.1.48,3.94,2.56,4.66,1.77.61,3.85.29,5.45,1.38,1.75,1.2,2.08,3.48.63,5.06-.91.99.57,2.47,1.48,1.48,1.47-1.59,1.98-3.85,1.07-5.86-.83-1.84-2.65-3.01-4.59-3.36-1.39-.25-4.13,0-4.78-1.61-.32-.8-.27-1.88-.04-2.69.12-.43.31-.84.62-1.18s.7-.49.96-.86c.18-.27.02-.76-.33-.8h0Z"/>
        <path class="cls-7" d="m141.39,399.41c-.87,1.16-.5,2.8.16,3.97.73,1.3,1.9,2.27,3.03,3.2.42.34,1,.37,1.35-.09s.2-1.04-.25-1.33c-1.05-.67-2.12-1.35-2.93-2.31-.75-.9-1.02-2.04-.78-3.19.08-.37-.37-.53-.59-.25h0Z"/>
        <path class="cls-7" d="m185.43,300.13c-1.46.83-2.15,2.77-2.14,4.37,0,2.04,1.11,3.82,2.45,5.28.69.75,1.48,1.41,2.32,1.97.89.59,2,.95,2.66,1.83,1.38,1.84.66,4.35,0,6.32-.43,1.28,1.59,1.83,2.02.56.64-1.89,1.12-3.89.66-5.88s-1.83-3.19-3.61-4.15-3.31-2.36-4.34-4.15c-1.19-2.06-.64-3.78.38-5.75.13-.26-.14-.56-.41-.41h0Z"/>
        <path class="cls-7" d="m185.58,310.26c-.83.15-1.59,1.01-2.07,1.66-.56.74-.92,1.58-1.05,2.49-.29,2.09.63,3.68,2.37,4.78,1.58,1,2.86,2.09,3.64,3.84s.91,3.56.46,5.32c-.35,1.39,1.8,1.98,2.14.59.83-3.38-.2-7.03-2.61-9.54-.59-.62-1.28-1.14-2.01-1.59-.78-.48-1.69-.92-2.12-1.78-.45-.9-.35-1.92.12-2.79s1.32-1.31,1.82-2.1c.3-.48-.19-.97-.68-.88h0Z"/>
        <path class="cls-7" d="m183.86,321.1c-1.48.76-2.19,2.34-2.26,3.97-.07,1.85.82,3.32,2.19,4.49,1.45,1.23,2.76,2.32,3.38,4.19.57,1.75.47,3.55-.2,5.25-.51,1.29,1.54,1.82,2.06.57,1.33-3.18.55-7.05-1.73-9.6-1.15-1.28-3-2.08-3.68-3.74-.63-1.52-.04-3.22.88-4.48.3-.41-.26-.84-.64-.64h0Z"/>
        <path class="cls-7" d="m180.86,332.27c-1.44,1.28-1.94,3.44-1.59,5.29.18.96.68,1.82,1.5,2.35.75.48,1.65.65,2.44,1.06,3.05,1.56,4.71,5.32,3.77,8.61-.37,1.29,1.64,1.84,2,.55.94-3.3-.14-6.97-2.6-9.35-.58-.56-1.24-1.06-1.95-1.45-.8-.43-1.67-.58-2.48-.95-2.02-.91-.94-4.03-.17-5.41.32-.59-.42-1.14-.91-.7h0Z"/>
        <path class="cls-7" d="m180.73,343.47c-2.56,2.23-3,6.77-.11,8.89,1.48,1.08,3.14,1.8,4.44,3.13s2.1,3.14,1.48,4.95c-.44,1.3,1.61,1.85,2.05.56,1.22-3.57-1.31-6.76-4.12-8.63-1.29-.86-3.35-1.5-3.98-3.01-.74-1.75-.1-3.7,1.02-5.11.43-.55-.23-1.24-.77-.77h0Z"/>
        <path class="cls-7" d="m180.34,354.54c-2.58,2.01-4.48,7.26-.61,8.97,1.59.7,3.05,1.23,4.29,2.53s2.06,2.77,2.37,4.48c.2,1.11,1.83.62,1.67-.46-.47-3.17-2.43-5.97-5.34-7.37-.71-.34-1.45-.54-2.19-.78-.9-.29-1.4-.77-1.47-1.76-.15-1.84.67-3.65,1.96-4.93.45-.44-.2-1.04-.67-.67h0Z"/>
        <path class="cls-7" d="m179.02,364.8c-.91,0-1.63,1.21-1.99,1.94-.44.88-.7,1.89-.69,2.88.03,2.1,1.25,4.15,3.12,5.13s4.11.71,5.82,1.8c2,1.28,1.22,4.06.69,5.92-.35,1.21,1.53,1.72,1.88.52.57-1.93,1.08-4.14.24-6.07s-2.73-2.68-4.67-3.03c-2.05-.37-4.04-.75-5.14-2.74-.51-.93-.68-2.03-.43-3.07.13-.55.36-1.07.68-1.54.29-.43.77-.73.86-1.25.04-.25-.1-.49-.38-.49h0Z"/>
        <path class="cls-7" d="m178.13,375.15c-2.76,2.45-2.63,7.2.3,9.46,1.51,1.17,3.37,1.55,5.04,2.4.79.4,1.52.92,1.92,1.73.55,1.13.41,2.49.23,3.69-.15.99,1.34,1.44,1.54.42.39-2.05.53-4.26-.88-5.97-1.14-1.39-2.88-1.98-4.49-2.64s-3.14-1.46-3.83-3.25-.4-3.77.83-5.17c.4-.45-.21-1.07-.66-.66h0Z"/>
        <path class="cls-7" d="m178.52,386.32c-1.32.8-1.83,2.56-1.56,4.02.3,1.61,1.35,2.9,2.87,3.48s3.44.47,4.67,1.78c1.38,1.47.29,3.68-.46,5.18-.57,1.14,1.14,2.15,1.71,1,.82-1.65,1.64-3.48,1.29-5.36-.33-1.74-1.67-2.89-3.25-3.53s-3.48-.44-4.8-1.55c-1.5-1.27-.95-3.16-.03-4.57.18-.28-.17-.62-.45-.45h0Z"/>
        <path class="cls-7" d="m176.87,395.88c-.65,2.01-.33,4.94,1.91,5.77,1.08.4,2.47-.01,3.2.92.49.62.57,1.5.16,2.14-.69,1.07,1.03,2.07,1.7.99s.66-2.42.12-3.54c-.57-1.19-1.66-1.86-2.94-2-.66-.07-1.38.02-2.01-.23-.4-.16-.69-.5-.89-.87-.53-.97-.5-2.12-.68-3.18-.05-.31-.49-.25-.57,0h0Z"/>
        <path class="cls-7" d="m119.96,295.99c-.82,1.65-1.64,3.52-1.4,5.41s1.55,3.28,3.3,3.99c.86.35,1.76.54,2.67.72s1.99.34,2.62,1.11c1.06,1.27.71,3.33.45,4.81-.22,1.26,1.7,1.8,1.93.53.29-1.65.54-3.46,0-5.09-.67-1.96-2.29-2.82-4.23-3.17-1.67-.3-3.9-.55-4.79-2.23s-.16-3.98.37-5.69c.16-.53-.66-.9-.91-.39h0Z"/>
        <path class="cls-7" d="m121.35,306.85h-.14c-.19,0-.39.11-.48.28-.88,1.56-1.7,3.29-1.28,5.13.18.79.6,1.52,1.22,2.04.69.58,1.56.79,2.34,1.22,2.48,1.38,3.79,4.77,2.59,7.42-.53,1.16,1.2,2.18,1.73,1.01,1.4-3.1.56-6.88-2.06-9.09-.66-.56-1.38-.97-2.19-1.3-.97-.4-1.84-.73-2.18-1.82s-.03-2.13.37-3.1c.1-.26.98-1.77.08-1.78h0Z"/>
        <path class="cls-7" d="m119.75,318.24c-.45.37-.85.61-1.14,1.13-.24.43-.43.91-.58,1.38-.3,1.01-.4,2.17-.06,3.19.54,1.64,2.11,2.43,3.69,2.81,1.33.32,3.44.34,4.14,1.76.45.92.31,2.14.27,3.13-.05,1.35-.14,2.72-.36,4.06-.24,1.5,1.9,1.81,2.07.28.26-2.27.61-4.7.26-6.97-.28-1.82-1.46-3.01-3.17-3.58-1.4-.46-3.05-.4-4.37-1.09-.86-.45-1.13-1.31-1.14-2.24,0-.57.07-1.13.24-1.68s.37-1.29.62-1.82c.15-.31-.2-.58-.47-.36h0Z"/>
        <path class="cls-7" d="m119.47,327.46c-.74.54-1.29,1.49-1.7,2.31-.37.74-.59,1.51-.59,2.34,0,1.61.76,3.18,1.98,4.21.64.54,1.38.92,2.19,1.14s1.77.27,2.57.62c2.07.91,1.1,3.61.55,5.16-.48,1.36,1.68,1.95,2.15.59.65-1.88,1.18-3.9.24-5.78-.87-1.74-2.62-2.13-4.36-2.44-1.57-.28-2.81-1.07-3.36-2.63-.26-.74-.29-1.49-.05-2.24.29-.93,1.03-1.7,1.21-2.66.08-.42-.38-.94-.81-.63h0Z"/>
        <path class="cls-7" d="m117.76,338.89l.06.04c.09.07.26.07.35,0,.19-.13.26-.24.27-.47,0-.14-.08-.29-.21-.36-.67-.38-1.34.35-1.75.82-.63.73-1.05,1.63-1.21,2.58-.36,2.13.61,4.09,2.34,5.32.88.63,1.86.93,2.92,1.08.51.07,1.16.1,1.55.49.35.36.46,1.02.57,1.49.65,2.63.39,5.35-.58,7.87-.5,1.29,1.59,1.86,2.08.57.81-2.17,1.15-4.52.9-6.83-.19-1.77-.51-4.22-2.29-5.13-.85-.43-1.8-.37-2.7-.59-.96-.24-1.82-.81-2.38-1.62s-.82-1.76-.72-2.71c.08-.77.51-2.26,1.28-2.64l-.5-.07-.07-.22.34-.26h-.07c-.34.01-.43.43-.17.61h0Z"/>
        <path class="cls-7" d="m115.13,347.62c-1.31,1.43-2.21,3.37-2.08,5.34s1.08,3.71,2.81,4.65c1.59.87,3.73.92,5.11,2.14s1.26,3.29.59,4.8c-.57,1.28,1.34,2.39,1.89,1.1.71-1.65,1.01-3.55.37-5.28-.69-1.88-2.21-2.91-4.05-3.51s-3.79-.87-4.6-2.79.04-4.13.74-6c.17-.44-.48-.79-.78-.46h0Z"/>
        <path class="cls-7" d="m113.6,358.23c-.5.13-.43.1-.7.57-.13.23-.25.46-.36.69-.24.47-.46.96-.62,1.46-.31,1.03-.42,2.15-.27,3.21.25,1.85,1.22,3.58,2.72,4.69.8.59,1.71.93,2.67,1.15s2.14.33,2.97,1c1.3,1.05,1.71,2.88,1.08,4.39-.56,1.32,1.64,1.94,2.17.6.72-1.82.34-4.02-.9-5.53-.63-.77-1.45-1.37-2.37-1.74-1.16-.47-2.46-.49-3.61-.98-2.11-.91-3.12-3.16-3.02-5.36.03-.65.16-1.29.32-1.92.17-.66.59-1.22.78-1.86.21-.72-.25-1.6-1.1-1.28-.55.21-.34,1.06.25.9h0Z"/>
        <path class="cls-7" d="m111.52,370c.34.88-.31,2.13-.36,3.08-.04.9.13,1.77.46,2.6.65,1.66,1.86,3.06,3.4,3.96.76.44,1.6.76,2.47.9,1.2.2,2.04.4,2.63,1.58.93,1.87.29,4.23-.21,6.12-.33,1.25,1.6,1.78,1.93.53.54-2.06,1.04-4.31.49-6.42-.26-.99-.79-1.97-1.56-2.66-.91-.82-1.86-.89-3.01-1.1-1.93-.34-3.49-1.68-4.39-3.39-.41-.78-.69-1.73-.73-2.61-.05-1.07.42-2.01-.1-3.03-.29-.56-1.26-.17-1.03.43h0Z"/>
        <path class="cls-7" d="m111.94,379.97c-1.24,1.17-1.53,2.86-1.09,4.48.48,1.75,1.81,3.09,3.31,4.02.76.47,1.59.83,2.42,1.15.89.35,1.9.67,2.52,1.45,1.33,1.68.48,4.07-.11,5.86-.4,1.23,1.53,1.75,1.93.53.6-1.83,1.17-3.77.68-5.69s-1.85-2.98-3.58-3.68-3.41-1.3-4.64-2.71c-1.12-1.28-1.36-3.17-.41-4.62.42-.64-.5-1.3-1.03-.8h0Z"/>
        <path class="cls-7" d="m112.15,389.71c-.69.22-1.04,1.07-1.29,1.7-.31.77-.45,1.59-.43,2.42.02.76.18,1.57.74,2.14.62.64,1.46.72,2.28.92,3.27.8,5,4.43,3.29,7.4-.66,1.14,1.12,2.18,1.77,1.03,1.68-2.99,1-6.76-1.72-8.89-.61-.48-1.28-.85-2.01-1.13-.34-.13-.69-.23-1.04-.3s-.87-.07-1.17-.31c-.56-.43-.48-1.56-.44-2.18.03-.41.11-.81.22-1.2s.36-.81.3-1.23c-.03-.24-.23-.46-.49-.38h0Z"/>
        <path class="cls-7" d="m89.31,290.38c-3.06,3.07-3.91,9.12.07,11.83.97.66,2.15.91,3.16,1.51.95.57,1.78,1.37,2.36,2.31,1.4,2.25,1.3,5.03-.05,7.27-.73,1.21,1.16,2.31,1.89,1.1,2.44-4.05,1.5-9.35-2.37-12.15-1.9-1.38-4.33-1.47-5.39-3.84-1.18-2.62.07-5.23.83-7.75.09-.29-.29-.49-.5-.29h0Z"/>
        <path class="cls-7" d="m87.64,304.51c-3.53,2.14-2.13,7.27.53,9.43.76.62,1.6,1.09,2.5,1.47,1.02.43,2.09.76,2.52,1.89.89,2.4.41,5.47-.35,7.82-.4,1.23,1.53,1.75,1.93.53,1.17-3.63,1.91-9.79-2.33-11.67-1.85-.82-3.57-1.5-4.76-3.24-1.26-1.84-1.03-4.06.32-5.78.19-.25-.05-.65-.36-.47h0Z"/>
        <path class="cls-7" d="m86.72,317.31c-.85.29-1.34,1.45-1.77,2.18-.56.95-1.04,1.99-1.26,3.08-.39,1.99.06,4.14,1.63,5.52s3.88,1.62,4.91,3.45.61,4.05-.17,5.81c-.53,1.2,1.25,2.24,1.77,1.03,1.53-3.56,1.46-8.03-2.29-10.12-1.97-1.1-4.04-1.68-4.3-4.27-.11-1.11.12-2.2.52-3.24.24-.64.56-1.25.88-1.86.24-.46.51-.77.45-1.3-.02-.18-.17-.35-.38-.29h0Z"/>
        <path class="cls-7" d="m82.82,329.64c-2.71,2.19-2.59,6.83-.2,9.21.72.72,1.54.92,2.52,1.07s1.63.54,2.15,1.35c1.22,1.94.5,4.36-.06,6.4-.35,1.28,1.64,1.83,1.99.55.56-2.02,1.11-4.2.55-6.28-.43-1.61-1.54-3.11-3.13-3.71-.86-.32-1.9-.12-2.62-.75-.63-.56-1.05-1.39-1.27-2.19-.51-1.8-.23-3.59.54-5.27.14-.31-.2-.58-.47-.36h0Z"/>
        <path class="cls-7" d="m81.7,339.95c-1.66,1.25-3.02,3.37-2.91,5.51s1.63,3.24,3.38,3.97,3.88,1.16,4.06,3.44-1.07,4.95-1.8,7.15c-.4,1.21,1.51,1.72,1.9.52,1.16-3.55,3.71-9.05-.47-11.64-1.43-.89-3.48-.99-4.69-2.19-1.94-1.93.17-4.53.96-6.42.1-.23-.24-.49-.44-.34h0Z"/>
        <path class="cls-7" d="m79.5,349.92c-1.59.44-2.57,2.2-2.85,3.74-.33,1.87.18,3.77,1.24,5.33.55.81,1.21,1.54,1.96,2.17.79.66,1.72,1.19,2.42,1.95,1.47,1.6.39,3.87-.87,5.23-.86.93.52,2.32,1.39,1.39,1.25-1.33,2.25-3.12,2.18-5-.08-2.11-1.5-3.34-3.11-4.48s-3.11-2.76-3.56-4.79.38-3.57,1.53-5.11c.16-.22-.1-.5-.34-.44h0Z"/>
        <path class="cls-7" d="m76.85,359.86c-1.65.09-2.21,2.47-2.38,3.76-.28,2.12-.18,4.18,1.79,5.43.83.53,1.8.82,2.56,1.46.66.55,1.17,1.28,1.5,2.07.68,1.66.69,3.54-.23,5.11-.56.95.87,1.77,1.47.86,1.93-2.9,1.35-7.05-1.24-9.37-1.41-1.27-3.92-1.41-4.23-3.56-.13-.93-.11-1.93,0-2.85.05-.45.12-.93.31-1.35s.53-.66.77-1.02c.14-.22-.04-.54-.3-.53h0Z"/>
        <path class="cls-7" d="m75.34,369.95c-1.58.57-2.32,2.85-2.24,4.38.1,1.81,1.12,3.48,2.69,4.39.72.41,1.52.61,2.31.81.54.13,1.46.23,1.8.74.39.59.05,1.93-.03,2.57-.15,1.18-.41,2.33-.74,3.47-.42,1.43,1.78,2.03,2.23.61.6-1.91,1.1-4.04,1.05-6.05-.05-1.86-1.24-2.96-2.95-3.43-1.52-.41-2.96-.45-3.96-1.86-.48-.68-.69-1.51-.61-2.34.1-1,.71-1.6,1.09-2.46.17-.4-.12-1.01-.64-.83h0Z"/>
        <path class="cls-7" d="m74.21,379.14c-1.44.15-2.36,2.1-2.6,3.34-.33,1.74.11,3.54,1.14,4.98.55.78,1.2,1.49,1.94,2.1.78.65,1.74,1.12,2.46,1.82,1.7,1.65-.23,4.13-1.29,5.53-.84,1.1,1.02,2.16,1.85,1.08,1.22-1.58,2.41-3.35,2.2-5.45s-1.79-3.05-3.44-4.15c-1.51-1.02-3.1-2.43-3.58-4.27-.21-.8-.18-1.69.08-2.48.3-.92.96-1.32,1.5-2.05.13-.17-.04-.47-.26-.45h0Z"/>
        <path class="cls-7" d="m70.52,388.6c-1.1,1.25-2.24,2.93-2.22,4.66s1.02,3.2,2.26,4.27,2.78,1.89,3.67,3.28c.62.97.8,2.53-.43,3.08s-.17,2.4,1.09,1.86c1.41-.61,2.09-2.2,2.03-3.67-.08-1.74-1.11-3.12-2.42-4.2s-2.91-1.92-3.93-3.3c-1.35-1.82-.26-3.75.56-5.52.17-.37-.29-.81-.6-.46h0Z"/>
        <path class="cls-7" d="m214.77,279.09c-1.3,1.56-1.11,3.77-.47,5.59.68,1.95,2.07,3.67,3.77,4.83,1.8,1.24,4.29,1.65,5.52,3.61,1.16,1.84,1.02,4.21,1.08,6.3.04,1.54,2.28,1.52,2.38,0,.13-2.07.08-4.27-.68-6.22-.82-2.12-2.41-3.43-4.39-4.44-1.84-.94-3.64-1.82-4.83-3.58-.55-.82-1-1.72-1.22-2.68s-.17-2.02-.23-3.02c-.03-.42-.6-.77-.92-.38h0Z"/>
        <path class="cls-7" d="m216.08,291.1c-1.65,3.87.16,8.27,3.41,10.69,1.78,1.33,4.12,1.89,5.52,3.71s1.75,4.08,1.97,6.23c.16,1.58,2.66,1.59,2.48,0-.23-2.14-.59-4.28-1.57-6.22-1.04-2.06-2.75-3.26-4.78-4.22s-3.59-2.01-4.74-3.92-1.63-3.99-1.69-6.11c0-.29-.46-.47-.6-.16h0Z"/>
        <path class="cls-7" d="m217.04,302.39c-1.04,2.45-1.73,4.77-1.05,7.43.53,2.09,1.86,3.99,3.69,5.15,1.97,1.25,4.44.79,6.33,2.19,1.74,1.29,2.63,3.42,2.41,5.55-.17,1.61,2.35,1.6,2.52,0,.46-4.38-2.99-8.32-7.27-8.82-1.2-.14-2.25-.29-3.26-.99-.88-.61-1.57-1.48-2.06-2.43-.56-1.09-.81-2.32-.89-3.53-.1-1.48-.16-2.85.14-4.31.06-.31-.4-.56-.54-.23h0Z"/>
        <path class="cls-7" d="m217.72,316.08c-.34.93-.68,1.67-.73,2.67-.04.85.1,1.72.33,2.54.52,1.81,1.58,3.4,3.09,4.53,1.76,1.32,4.07,1.53,5.62,3.19,1.63,1.75,1.88,4.41.64,6.44-.76,1.24,1.27,2.41,1.94,1.14,2.27-4.3.53-9.35-4.08-11.04-1.05-.38-2.12-.67-3.05-1.31-.8-.56-1.48-1.32-2-2.14s-.89-1.76-1.07-2.74-.36-2.18-.11-3.11c.1-.37-.44-.51-.57-.16h0Z"/>
        <path class="cls-7" d="m217.99,326.3c-.19.25-.55.37-.75.66-.23.32-.37.72-.48,1.1-.26.89-.31,1.79-.19,2.71.23,1.84,1.16,3.6,2.59,4.79,1.61,1.33,4,1.55,5.12,3.45,1.35,2.29.78,5.11.31,7.56-.25,1.31,1.72,1.88,2.02.56.55-2.44,1.09-5,.42-7.47-.56-2.09-1.91-3.74-3.88-4.64-1.86-.84-3.42-1.49-4.23-3.51-.33-.82-.49-1.68-.51-2.56,0-.49.08-.95.12-1.43.03-.29-.08-.73,0-.97.12-.35-.36-.47-.54-.23h0Z"/>
        <path class="cls-7" d="m217.38,336.73c-1.56,3.3-3.25,8.66.19,11.45,1.59,1.29,3.87,1.37,5.36,2.76,2.03,1.88,1.65,5.04,1.33,7.51-.14,1.12,1.68,1.15,1.78,0,.21-2.36.4-4.76-.6-6.97-.87-1.92-2.43-2.88-4.37-3.51-.93-.3-1.95-.48-2.73-1.13-.82-.69-1.19-1.75-1.33-2.79-.31-2.28.15-4.94.91-7.08.11-.31-.4-.53-.54-.23h0Z"/>
        <path class="cls-7" d="m216.19,349.25c-1.82,2.27-1.59,5.91.3,8.08,1.1,1.26,2.83,1.58,3.97,2.75.95.99,1.33,2.45,1.02,3.77-.36,1.51,1.97,2.15,2.32.64s.16-3.15-.58-4.57-2.03-2.33-3.47-3.07c-1.29-.66-2.38-1.39-2.74-2.88-.33-1.38-.07-2.76.19-4.13.1-.53-.6-1.11-1.02-.59h0Z"/>
        <path class="cls-7" d="m214.81,359.53c-.81,1.49-1.67,3.13-1.53,4.88.12,1.52.82,2.84,1.99,3.81s2.47,1.54,3.87,1.94c.71.2,1.19.19,1.35.99.19.98.15,2.01.04,3-.15,1.34,1.98,1.35,2.11,0,.09-.93.07-1.86-.06-2.79-.1-.75-.25-1.56-.78-2.14-.94-1.02-2.67-1.01-3.88-1.59s-2.26-1.38-2.74-2.62c-.63-1.63-.17-3.61.17-5.25.06-.32-.37-.54-.54-.23h0Z"/>
        <path class="cls-7" d="m213.91,369.17c-.57,1.53-1.47,3.18-1.28,4.87.17,1.55,1.46,2.49,2.81,3.01,1.18.45,2.61.67,3.38,1.77.73,1.04.83,2.43.17,3.52s1.07,2.12,1.73,1.01c1.62-2.71.29-6.15-2.57-7.3-1.15-.46-2.83-.57-3.7-1.54-1.22-1.36-.37-3.65.02-5.18.1-.38-.44-.51-.57-.16h0Z"/>
        <path class="cls-7" d="m212.74,378.28c-.49.38-.73,1.11-.93,1.68-.25.71-.38,1.47-.42,2.22-.07,1.41.23,3.17,1.27,4.21,1.11,1.11,2.88,1.29,4.19,2.09.67.41.72,1.29.79,2.01.09.91.06,1.84-.09,2.75-.21,1.27,1.74,1.81,1.94.54.26-1.63.32-3.37-.12-4.99s-1.83-2.18-3.31-2.79c-.69-.28-1.62-.5-2.18-.99s-.79-1.37-.96-2.04c-.19-.75-.24-1.53-.15-2.29s.47-1.42.53-2.15c.03-.32-.36-.39-.56-.23h0Z"/>
        <path class="cls-7" d="m211.82,388.77c-.96,1.15-1.34,2.98-1.17,4.46s1,2.83,2.39,3.53c1.17.59,2.66.74,3.43,1.92.72,1.11.75,2.53.66,3.8-.1,1.45,2.17,1.45,2.27,0,.19-2.85-.63-5.77-3.48-6.92-1.25-.5-2.66-.67-3.33-1.98-.78-1.5-.06-2.97-.03-4.51,0-.36-.5-.61-.75-.31h0Z"/>
        <path class="cls-7" d="m210.69,397.37c-.36,1.03-.4,2.16-.15,3.22.27,1.15.88,1.98,2,2.4.81.31,1.55.45,2.17,1.1.54.57.87,1.33.89,2.06.05,1.28,2.05,1.29,2,0-.08-1.99-1.3-3.74-3.16-4.48-.74-.29-1.79-.27-2.26-1-.58-.87-.61-2.01-.34-2.99.21-.74-.89-1.03-1.15-.32h0Z"/>
        <path class="cls-7" d="m109.62,397.63c-.38.18-.61.69-.83,1.02-.26.39-.44.81-.48,1.28-.07.91.49,1.64,1.18,2.15.3.22.61.41.93.61.16.1.32.21.48.32.14.1-.02-.02.07.06.09.08.17.15.25.24.55.58.72,1.32.62,2.12-.07.53.51.99.99.99.58,0,.94-.46.99-.99.1-.96-.16-1.99-.7-2.79s-1.23-1.25-2.01-1.72c-.15-.09-.31-.18-.45-.28-.25-.16-.23-.15-.42-.3-.16-.13.04.05-.09-.08-.06-.06-.12-.12-.18-.18.1.11-.05-.08-.06-.09-.01-.02-.11-.22-.06-.1-.28-.73.74-1.52.13-2.22-.09-.11-.25-.1-.36-.05h0Z"/>
        <path class="cls-7" d="m67.64,397.62c-.29.2-.52.45-.78.69-.29.25-.59.51-.81.83-.53.79-.43,1.79.15,2.52.25.31.57.56.89.8.14.11.28.21.43.31.08.06.15.11.23.17-.13-.1.09.08.11.1.34.29.53.55.74.95.14.27.25.74.27,1.02.04.53.43.98.98.98.5,0,1.03-.45.98-.98-.09-1.02-.44-1.94-1.09-2.75-.29-.36-.64-.65-1.01-.92-.14-.1-.29-.2-.43-.3-.08-.05-.16-.11-.24-.17,0,0-.23-.17-.12-.08-.13-.1-.25-.22-.37-.34-.02-.02-.18-.2-.13-.13.06.08-.06-.09-.07-.11-.05-.09-.05-.1,0-.02l-.02-.08c-.02.16,0-.12,0-.12-.01.11.04-.13.04-.13-.03.1.07-.16.06-.15.29-.62.91-1.27.57-1.98-.07-.14-.28-.19-.41-.11h0Z"/>
        <path class="cls-7" d="m171.29,143.56c-3.24.53-6.3.36-9.41-.7-1.48-.51-2.94-.96-4.52-.77s-2.87.67-4.42.52c-1.41-.13-2.67-.4-4.09-.1-1.16.25-2.19.81-3.31,1.16-2.89.91-6.06.48-8.95-.19-.73-.17-1.04.95-.31,1.12,2.9.66,5.99,1.08,8.92.33,1.08-.28,2.05-.81,3.11-1.16,1.62-.54,3.01-.27,4.64-.14,1.45.11,2.71-.24,4.1-.55,1.94-.43,3.68.31,5.52.81,2.86.78,5.95.61,8.84.1.28-.05.16-.48-.12-.43h0Z"/>
        <path class="cls-7" d="m163.84,144.97c-5.75,1.48-11.96,1.57-17.79.54-.49-.09-.7.66-.21.75,6.1,1.07,12.13.63,18.08-1,.18-.05.11-.33-.08-.29h0Z"/>
        <path class="cls-7" d="m191.77,28.98c.73,1.18,1,2.62.74,3.98-.07.37.5.53.57.16.3-1.52.02-3.12-.8-4.44-.2-.32-.71-.03-.51.3h0Z"/>
        <path class="cls-7" d="m181.89,23.04c-.97.32-1.89.78-2.72,1.37-.13.09-.19.26-.11.41.08.13.27.2.41.11.79-.56,1.66-1,2.58-1.31.15-.05.25-.2.21-.37-.04-.15-.21-.26-.37-.21h0Z"/>
        <path class="cls-7" d="m186.59,25.97c-.9.97-1.58,2.11-2,3.37-.12.36.45.52.57.16.38-1.15,1.02-2.22,1.85-3.11.26-.28-.16-.7-.42-.42h0Z"/>
        <path class="cls-7" d="m189.09,28.21c.29,1.04.21,2.15-.24,3.14-.07.15-.04.32.11.41.13.07.34.04.41-.11.51-1.14.64-2.39.3-3.6-.1-.37-.68-.21-.57.16h0Z"/>
        <path class="cls-7" d="m183.99,23.65c-.57.45-1.04,1.03-1.36,1.69-.07.14-.04.33.11.41.13.07.33.04.41-.11.08-.16.17-.32.26-.47.06-.09.11-.17.18-.26.01-.02.02-.03.04-.05-.03.03.01-.02.02-.02.03-.04.06-.07.09-.11.2-.24.43-.46.68-.65.12-.1.11-.32,0-.42-.13-.12-.29-.1-.42,0h0Z"/>
      </g>
      <g id="Haare">
        <path class="cls-4" d="m103.12,87.49c1.53,3.91,1.4,6.79,1.02,8.68-.63,3.12-1.92,3.77-2.04,6.77-.13,3.25,1.52,3.93,1.02,6.77-.49,2.79-2.6,4.97-3.15,4.73-.43-.18.41-1.65.12-4.11-.35-3-1.93-3.76-1.92-6.04,0-1.85,1.32-1.97,1.95-4.4.27-1.03.36-2.17-.04-4.83-.32-2.18-.95-5.27-2.29-8.96,1.77.47,3.55.94,5.32,1.41Z"/>
        <path class="cls-7" d="m103.58,30.22c-1.96,4.72-3.88,9.37-5.2,14.32-1.1,4.09-1.94,8.26-2.39,12.47-.9,8.43-.46,17.06.34,25.48.39,4.1,1.47,8.06,2.5,12.04.32,1.24,2.25.72,1.93-.53-.53-2.02-1-4.04-1.54-6.06-.39-1.44-.63-2.91-.79-4.39-.53-4.65-.77-9.37-.89-14.04-.1-3.59-.05-7.18.2-10.76.3-4.19,1.07-8.33,1.94-12.44,1.13-5.35,2.5-10.83,4.48-15.93.14-.36-.43-.5-.57-.16h0Z"/>
        <path class="cls-7" d="m100.16,114.88c.5-1.93.68-4.12-.02-6.03-.62-1.69-1.57-2.98-1.23-4.88.28-1.53,1.24-2.83,1.69-4.3.6-1.98.44-4.13-.13-6.1-.3-1.03-1.92-.59-1.61.44.58,1.95.68,4.02,0,5.95-.47,1.32-1.3,2.58-1.37,4.02-.07,1.55.67,3.04,1.39,4.37,1.07,1.99,1.26,4.19.72,6.37-.09.37.48.53.57.16h0Z"/>
        <path class="cls-7" d="m100.03,115.06c1.58-1.19,3.12-2.96,3.25-5.02.15-2.35-1.36-4.46-.78-6.88.54-2.24,1.62-4.31,2.1-6.59.56-2.7.64-5.44.38-8.18-.1-1.06-1.78-1.07-1.67,0,.26,2.54.25,5.11-.19,7.63-.37,2.14-1.38,4.14-1.7,6.27-.3,2,.01,3.86.63,5.76.86,2.65-.16,4.84-2.31,6.5-.3.23,0,.74.3.51h0Z"/>
        <path class="cls-7" d="m100.17,73.83c.05,4.2-.38,8.74,1.33,12.71.57,1.31,1.58,2.55,3.16,2.11,2.34-.65,4.65-2.08,6.61-3.5,2.37-1.72,4.56-3.67,6.61-5.75.68-.69-.38-1.75-1.06-1.06-3.16,3.23-6.67,6.29-10.81,8.19-.53.24-1.66.98-2.28.72-.47-.2-.76-.84-.95-1.27-.74-1.61-1.02-3.48-1.3-5.21-.36-2.28-.76-4.63-.87-6.93-.01-.28-.45-.29-.45,0h0Z"/>
        <path class="cls-4" d="m209.67,84.56c-3.03-1.03-4.09-.66-4.51-.17-.72.83.24,2.17-.18,4.61-.28,1.65-.87,1.96-1.34,3.32-1.11,3.2.83,5.24,1.52,10.19.2,1.46.36,3.63,0,6.38.79-1.27,1.77-3.21,2.21-5.7.44-2.5-.62-3.62-.17-6.55.28-1.79.73-2.24,1.36-4.26.56-1.78,1.14-4.39,1.11-7.83Z"/>
        <path class="cls-7" d="m204.71,109.66c3.02-2.2,5.03-5.38,3.97-9.16-.28-.99-.64-1.95-.64-2.99,0-1.13.42-2.07.87-3.08.92-2.05,1.17-4.25.9-6.47-.13-1.07-1.63-.89-1.47.2.3,2.08.1,4.26-.73,6.2-.72,1.68-.88,3.38-.39,5.15.44,1.58.97,3.03.51,4.67-.54,1.97-2.01,3.58-3.38,5.02-.22.23.08.67.36.47h0Z"/>
        <path class="cls-7" d="m204.85,109.49c.69-1.98,1.18-4.16.9-6.27-.24-1.8-1.24-3.37-1.47-5.16-.16-1.21-.31-2.49-.22-3.71.1-1.3.64-2.33,1.21-3.46.97-1.94.45-3.96-.81-5.64-.64-.85-2.1,0-1.44.84.72.93,1.35,2.06,1.1,3.28-.16.79-.67,1.49-.97,2.23-.81,2.03-.75,4.46-.11,6.53.5,1.6,1.34,3.09,1.73,4.72.51,2.19.23,4.36-.48,6.47-.12.36.45.52.57.16h0Z"/>
        <path class="cls-7" d="m192.71,28.39c5.38,8.66,9.87,18.3,12.82,28.05,2.04,6.73,3.24,13.93,3.16,20.97-.04,3.51-.21,7.04-.4,10.55-.05.98,1.47.98,1.52,0,.17-3.08.24-6.16.2-9.25-.06-3.9-.51-7.74-1.02-11.6-1.08-8.16-3.69-16.04-7.19-23.47-2.53-5.37-5.53-10.46-8.71-15.47-.15-.24-.54-.02-.38.22h0Z"/>
        <path class="cls-7" d="m204.36,73.23c.76,2.05,1.23,4.24,1.53,6.41.19,1.35.37,2.92-.05,4.25s-1.59,1.15-2.76.76c-.89-.29-1.72-.72-2.54-1.17-.91-.49-1.84-.98-2.64-1.63-1.47-1.19-2.81-2.62-3.95-4.13-.88-1.16-2.5.06-1.6,1.23,1.2,1.54,2.62,2.82,4.24,3.91,1.86,1.24,3.87,2.48,5.99,3.22,1.53.53,3.39.63,4.33-.93.77-1.27.71-2.98.51-4.4-.39-2.72-1.48-5.17-2.49-7.69-.14-.35-.71-.21-.57.16h0Z"/>
      </g>
      <g id="Schatten">
        <path class="cls-1" d="m133.01,160.28c8.6,9.79,16.45,11.36,19.52,11.72,1.9.22,9.14.82,17.87-1.02,3.31-.7,4.32-1.22,6-.89,5.97,1.15,9.23,10.78,11.12,19.94,2.18-1.15,4.37-2.29,6.55-3.44-2.28-2.69-5.53-7.19-7.77-13.52-2.43-6.87-2.59-12.87-2.42-16.5-3.36,2.55-13.08,9.22-27.13,9.57-11.41.28-19.92-3.74-23.73-5.85Z"/>
        <path class="cls-1" d="m213.1,89.47c-.16-1.34-.38-2.67-1.4-3.26-.76-.44-1.66-.28-2.19-.13.27-4.21.31-9.89-.62-16.52-.2-1.44-1.09-6.73-3.33-14.38-3.74-12.79-8.93-21.65-9.39-21.46-.57.24,7.8,14.3,8.15,33.63.13,7.38-.94,13.53-1.96,17.79.87.55,1.93,1.43,2.34,2.77.51,1.65-.33,2.85-1.06,5.57-1.05,3.87.07,3.57-.94,6.38-1.13,3.17-3.5,6.23-4.04,6.93-.08.1-.13.17-.17.22-7.36,9.36-4.55,19.11-8.55,31.02-5.66,16.85-20.23,24.06-19.28,25.15,1.04,1.2,15.18-5.89,24.53-19.73,5.68-8.41,7.93-16.86,8.92-22.72,1.8-1.81,4.07-4.51,5.94-8.23,3.1-6.18,3.44-11.93,3.38-15.06.11-3.43-.09-6.12-.32-7.98Z"/>
        <path class="cls-1" d="m278.54,209.76c3.79,13.53,4.97,24.64,5.35,32.2.54,10.63-.39,16.3-.64,30.77-.23,13.36.3,24.19.77,31.15-2.25-.18-4.49-.37-6.74-.55l.7,5.78c4.04-1.47,8.08-2.94,12.12-4.41-2.7-25.12-2.54-42.12-1.61-53.83.4-5.02,1.46-15.64-3.03-27.91-2.13-5.82-4.87-10.27-6.93-13.19Z"/>
        <path class="cls-1" d="m10.23,299.15c10.15,1.6,22.07,4.27,35.05,8.78,10.18,3.54,19.1,7.54,26.68,11.46,0,.12-.07,1.26-1.06,1.94-1.07.74-2.26.28-2.34.25-9.64-4.38-20.52-8.68-32.6-12.47-6.57-2.06-12.9-3.79-18.96-5.23-.2.48-.41.96-.61,1.45-.81-.26-2.28-.84-3.67-2.18-1.58-1.51-2.23-3.17-2.49-4Z"/>
        <path class="cls-1" d="m259.41,201.99c1.06.03,2.12.05,3.17.08-7.68,18.6-9.34,33.71-9.34,44.36,0,10.28,1.55,19.58,1.02,38.3-.24,8.49-.81,15.47-1.28,20.17-1.43.75-2.85,1.49-4.28,2.24.59-6.05,1.33-15.04,1.73-25.98.65-18.1-.23-25.4.26-36,.48-10.47,2.36-25.25,8.72-43.16Z"/>
        <path class="cls-1" d="m277.27,303.32c-3.37-.21-7.25-.23-11.51.17-6.79.63-12.55,2.11-17.05,3.64-.24,1.33-.48,2.66-.72,3.99-.54.18-1.07.36-1.61.55-1.67,4.52-3.85,10.99-5.82,18.92-2.24,8.99-3.18,15.89-4.98,29.32-1.73,12.92-2.59,19.54-2.52,27.16.07,8.01.89,14.58,1.61,18.97,1.85-.1,3.71-.19,5.56-.29-1.32-17.84-1.21-39.6,2.68-63.96,1.74-10.9,4.03-20.93,6.56-30.05,2.9-1.13,6.35-2.23,10.29-3.01,7.01-1.39,13.11-1.32,17.6-.9-.03-1.5-.06-3-.09-4.51Z"/>
        <path class="cls-1" d="m60.39,207.28c4,5.93,9.09,14.88,12.26,26.55,4.9,18.1,2.59,33.28,3.3,33.31.63.02,3.19-11.98,1.34-26.06-2.1-15.96-9-27.98-14.12-35.23-.92.48-1.85.95-2.77,1.43Z"/>
      </g>
    </g>
  </g>
</svg>