<?xml version="1.0" encoding="UTF-8"?>
<svg id="Ebene_1" data-name="Ebene 1" xmlns="http://www.w3.org/2000/svg" viewBox="0 0 291.1 407.48">
  <defs>
    <style>
      .cls-1 {
        fill: #ebebeb;
      }

      .cls-2 {
        fill: #fff;
      }

      .cls-3 {
        fill: #ffd8be;
      }

      .cls-4 {
        fill: #ffc3be;
      }

      .cls-5 {
        fill: #a67c52;
      }

      .cls-6 {
        fill: #c1272d;
      }

      .cls-7 {
        fill: #c69c6d;
      }

      .cls-8 {
        fill: #603813;
      }

      .cls-9, .cls-10 {
        fill: #754c33;
      }

      .cls-10 {
        stroke: #000;
        stroke-miterlimit: 10;
        stroke-width: .5px;
      }

      .cls-11 {
        isolation: isolate;
        opacity: .33;
      }
    </style>
  </defs>
  <g id="Ebene_2" data-name="Ebene 2">
    <g id="Farbe">
      <path class="cls-3" d="m197.57,139.04c14.27-35.8,16.67-60.12-11.86-81.37-38.7-24.85-78.08,14.69-83.27,30.45-9.1,27.91,10.66,56.42,23.06,67.17,3.1,6.61-1.03,23.92-8.09,28.84,17.08,13.79,57.01,16.2,76.93,2.19-4.99-3.74-12.58-21.94-10.38-31.03,5.94-3.69,10.62-9.86,13.61-16.25h0Z"/>
      <path class="cls-9" d="m152.8,60.24c1.1,2.79,9.92,7.23,14.69,3.36.4,1.92,6.59,6.78,10.15,6.15,1.67,3.15,10.85,7.92,14.33,7.48,1.61,1.75,19.04,16.35,17.62,3.07-2.13-24.51-4.35-31.27-16.6-52.11-5.46.43-4.77-1.19-6.21-3.66-3.19,1.67-2.28-3.04-5.79-1.36-7.69-1.82-20.71-.89-26.98,1.27-9.47-2.41-25.36-3.48-35.57-2.24-2.84-.72-3.53-.3-3.98,2.06-1.14,2.26-4.22,1.28-5.63,1.36-.32,2.32-1.17,1.33-3.17,2-9.45,19.11-10.98,37.13-7.09,61.66,4.88-.19,16.56-7.01,19.43-12.07,5.17.93,10.53-5.27,11.1-6.96,3.92-.35,10.66-5.98,11.62-8.68,4.41,2.85,7.79.56,12.06-1.34h.02Z"/>
      <path class="cls-9" d="m191.3,1.26c-10.92-1.07-14.71,14.59-7.33,18.68,3.31-.07,2.24-.12,5.03,2.04,1.22.66,1.49.24,2.37.87,1.28.92.91,1.96,1.97,2.51,1.86.4,3.85-.43,4.42,2.16,15.49,5,18.4-21.4,1.6-21.2-.33-.52-3.06-4.66-8.06-5.06Z"/>
      <path class="cls-6" d="m181.53,18.18c-1.49,3.45-1.41,4.58-.97,4.91.63.47,1.81-.71,3.07-.09,1.07.53,1.24,1.9,2.11,1.9,1.79-.96,1.12.29,2.06,2.01,1.23,2.07,3.51,1.51,5.19,1.28,1.39.34,1.41,1.97,2.55,2.13,4.19-.68,2.65-5.55-1.53-4.85-1.32-.48-1.09-1.72-2.65-2.62-.93-.54-1.12-.16-2.19-.76-1.36-.77-1.22-1.47-2.31-1.93-1.85-.25-4.21,0-5.33-1.98h0Z"/>
      <path class="cls-9" d="m168.3,64.85c.21,1.92-2.17,5.76-2.4,7.39-.02,1.54.96,1.72,1.22,3.7.24,1.88-.48,3.03-.07,3.24.4.21,1.6-.66,2.05-1.89.62-1.69-.69-2.67-.02-4.16,1.27-1.33,3.03-3.11,2.39-5.19-1.05-1.03-2.11-2.06-3.16-3.09h0Z"/>
      <path class="cls-9" d="m115.38,80.33c-.57,6.44,2.53,7.28,1.1,13.57,2.14,5.35-1.17,3.43-.8,8.58-.29.1-1.18-.94-1.35-2.2-.2-1.48.8-1.84.79-3.32-.02-1.69-1.31-1.71-1.66-3.8-.27-1.67.48-2.13-.06-3.68-.2-.52-1.89-3.46-2.2-4.26,1.39-1.63,2.78-3.26,4.18-4.89Z"/>
      <path class="cls-9" d="m97.79,6.28c-17.64.16-9.68,27.99,3.18,19.87,2.37.56,2.86-1.65,4.01-3.03.89-.62,1.36.09,2.74-.42,1.57-.59,1.54-1.74,3.14-2.17,2.31.28,3.45-2.13,5.43-2.87,8.31-11.65-9.76-24.76-18.5-11.39h0Z"/>
      <path class="cls-6" d="m100.73,26.34c.08,1.04,1.68,3.77,3.6,3.38.79-.32.44-1.42,1.34-2.09,2.52-1.03,2.45.74,3.45-2.33.57-.31,1.17.7,2.43.72,2.46-.15,2.8-1.99,3.88-3.32,1.35-1.22,3-.36,3.45-1.21.82-1.67-2.56-4.56-4.22-2.87-2.3,2.53-.88,1.94-4.3,2.09-1.18.42-1.04,1.32-2.31,1.84-1.16.48-1.54-.17-2.47.28-1.56,1.26-1.98,4.21-4.86,3.51h0Z"/>
      <path class="cls-1" d="m63.17,205.85c-39.14,5.66-37.62,52.68-53.05,92.87-.2,1.97,4.42,6.66,6.28,6.6.4-1.76.79-3.51,1.19-5.27,15.41,3.22,36.19,10.09,51.46,17.41-.19,1.02-.37,2.03-.56,3.05l3.09.66c-8.58-49.85,23.13-62.43-8.41-115.35v.03Z"/>
      <path class="cls-1" d="m260.39,201.62c-.81,1.3-11.04,36.87-10.27,49.28-.07,19.15,3.25,38.26-1.97,56.41,7.34-2.69,21.61-4.15,29.11-3.11.23,1.63.47,3.26.7,4.9,2.77.69,10.76-2.56,12.12-4.89-7.69-26.83,13.19-104.48-29.69-102.58h0Z"/>
      <path class="cls-3" d="m17.59,300.06c-7.61,32.35-14,73.03-16.59,106.5,21.05-.1,42.1-.2,63.15-.3-4.18-2.53-8.37-5.07-12.55-7.6,6.62-24.89,12.82-54.51,16.78-80.87-13.5-7.1-35.54-14.81-50.79-17.73h0Z"/>
      <path class="cls-3" d="m277.27,303.32c.56,38.37,2.46,69.53-.71,103.02h-42.89c.59-33.55.58-67.1,14.49-99.04,7.96-2.26,20.27-4.01,29.12-3.98h-.01Z"/>
      <path class="cls-7" d="m62.78,204.43c3.15-5.05,13.18-4.42,15.28-2.32,9.74-3.33,19.49-6.65,29.23-9.98-.13-3.55,6.16-8.52,9.85-7.75,18.94,15.51,59.93,15.64,78.66,1.14,4.5-.78,10.77,4.57,9.73,9.53,11.28,2.62,27.27,4.21,38.52,3.9,6.2-3.39,12.41-3.75,15.29,1.86-9.73,29.96-7.11,33.43-8.73,58.96-1.09,8.8,1.26,16.75.3,28.7-1.02,15.07-4.94,21.93-9.02,36.78-5,22.78-6.85,50.66-12.77,81.1-54.99-.03-109.99-.06-164.98-.09-2.67-1.7-5.33-3.4-8-5.11,3.19-21.33,14.34-53.13,15.71-72.29.45-11.39-2.95-17.74-2.49-29.95.37-10.82,2.94-19.56,5.04-25.21,7.24-18.42.57-55.14-11.63-69.27h.01Z"/>
      <path class="cls-2" d="m118.01,103.73c6.33-7.07,24.15-10.61,26.81,2.38-7.05,5.09-23.26,1.72-26.81-2.39h0Z"/>
      <path class="cls-2" d="m190.06,103.73c-8.8-7.61-23.91-9.91-26.8,2.39,7.05,5.09,23.26,1.72,26.81-2.39h-.01Z"/>
      <path class="cls-10" d="m132.33,97.07c7.69-.11,7.69,11.97,0,11.86-7.69.11-7.69-11.97,0-11.86Z"/>
      <path class="cls-10" d="m175.33,97.43c7.21-.11,7.21,11.23,0,11.12-7.21.11-7.21-11.23,0-11.12Z"/>
      <path d="m132.33,100.25c3.57-.05,3.57,5.55,0,5.5-3.57.05-3.57-5.55,0-5.5Z"/>
      <path d="m175.33,100.18c3.57-.05,3.57,5.55,0,5.5-3.57.05-3.57-5.55,0-5.5Z"/>
      <path class="cls-5" d="m189.76,114.27c.52,0,.52.81,0,.8-.52,0-.52-.81,0-.8Z"/>
      <path class="cls-5" d="m169.16,123.1c.52,0,.52.81,0,.8-.52,0-.52-.81,0-.8Z"/>
      <path class="cls-5" d="m124.25,125.5c.52,0,.52.81,0,.8-.52,0-.52-.81,0-.8Z"/>
      <path class="cls-5" d="m188.39,122.3c.52,0,.52.81,0,.8-.52,0-.52-.81,0-.8Z"/>
      <path class="cls-5" d="m132.73,117.11c.52,0,.52.81,0,.8-.52,0-.52-.81,0-.8Z"/>
      <path class="cls-5" d="m181.09,117.59c.52,0,.52.81,0,.8-.52,0-.52-.81,0-.8Z"/>
      <path class="cls-5" d="m117.71,119.23c.52,0,.52.81,0,.8-.52,0-.52-.81,0-.8Z"/>
      <path class="cls-5" d="m133.48,125.1c.52,0,.52.81,0,.8-.52,0-.52-.81,0-.8Z"/>
      <path class="cls-5" d="m182.98,125.89c.52,0,.52.81,0,.8-.52,0-.52-.81,0-.8Z"/>
      <path class="cls-5" d="m171.77,117.11c.52,0,.52.81,0,.8-.52,0-.52-.81,0-.8Z"/>
      <path class="cls-5" d="m122.16,115.07c.52,0,.52.81,0,.8-.52,0-.52-.81,0-.8Z"/>
      <path class="cls-5" d="m176.66,122.32c.52,0,.52.81,0,.8-.52,0-.52-.81,0-.8Z"/>
      <path class="cls-5" d="m127.23,121.12c.52,0,.52.81,0,.8-.52,0-.52-.81,0-.8Z"/>
      <path class="cls-5" d="m138.44,120.59c.52,0,.52.81,0,.8-.52,0-.52-.81,0-.8Z"/>
      <path class="cls-3" d="m97.68,88.44l-2.04,9.39"/>
      <path class="cls-3" d="m97.68,88.44c-5,1.4-1.55,30.48,6.08,32.63,3.05-.11-1.42-29.19-6.08-32.63Z"/>
      <path class="cls-3" d="m210.43,85.59c2.87.88,2.82,9.23,2.81,12.13,1.15,7.24-5.53,20.62-9.55,23.39-2.72-7.13-7.43-31.37,6.75-35.51h0Z"/>
      <path class="cls-4" d="m137.67,144.7h0s3.56.63,6.89-.24c2.63-.69,2.54-1.64,4.69-1.8,1.86-.14,2.3.54,4.63.57,2.25.03,2.37-.6,4.47-.74,4.54.06,7.55,2.69,13,1.29-10.99,7.09-23.4,6.65-33.68.92h0Z"/>
    </g>
    <g id="Outline">
      <path d="m179.22,29.93c-10.86,2.83-11.6,18.36-22.6,19.89-.74.1-.42,1.22.31,1.12,11.16-1.62,11.19-15.37,22.29-21h0Z"/>
      <path d="m174.68,24.61c-1.84-.84-22.71,5.23-17.22,6.8,4.8-3.8,12.77-5.07,17.21-6.8h.01Z"/>
      <path d="m153.73,25.18c-1.89,2.33-4.83,36.62-1.08,32.63-2.33-10.42.44-23.91,1.08-32.64h0Z"/>
      <path d="m180.72,22.9c-1.97-1.97-31.24-1.03-25.61,2.48,8.15-2.71,16.99-3.51,25.45-1.91.37.07.53-.49.16-.57h0Z"/>
      <path d="m119.46,22.19c11.16-.68,22.34.29,33.18,3.08,7.52-3.54-34.14-5.93-33.18-3.08Z"/>
      <path d="m125.76,25.09c7.6,1,15.07,3.03,22.17,5.93,6.62-1.86-23.69-8.25-22.17-5.94h0Z"/>
      <path d="m101.72,89.17c-4.38,10.21-2.38,21.65,1.39,31.72,8.95,40.19,57.44,65.21,87.58,29.67,12.57-14.27,21.16-45.6,16.41-64.23-.38-1.64-2.92-.95-2.53.7,3.97,13.8-.37,27.48-4.69,40.71-2.68,12.13-10.45,22.31-20.37,29.57-23.39,18.24-56.7,2.79-68.82-21.44-5.11-13.28-12-27.4-8.76-41.93-.18-1.11,2.15-6.36-.22-4.73h0v-.04Z"/>
      <path d="m125.22,155.22c.46,9.36-.05,19.22-6.31,26.87,1.01,6.38,8.19-10.89,7.86-12.86.47-3.44,1.83-12.62-1.55-13.99h0v-.02Z"/>
      <path d="m183.89,155.01c-2.61,4.53-.39,11.28.71,16.24-.04,1.89,8.94,19.9,8.97,12.8-5.36-6.72-8.54-15.16-8.78-23.77-.02-.68.23-5.49-.9-5.27h0Z"/>
      <path d="m117.06,184.35c20.96,19.07,55.79,15.84,78.96,2.17,1.1-.66.1-2.39-1.01-1.73-27.38,15.8-52.48,13.21-77.96-.42h0v-.02Z"/>
      <path d="m117.03,183.77c-7.59-1.67-13.92,12.54-8.4,8.68.63-6.58,10.93-6.95,8.41-8.67h0Z"/>
      <path d="m195.06,185.89c4.25.96,8.66,3.54,9.19,8.48.04.54.43,1,1,1,2.93-1.6-1.23-7.15-3.1-8.61-1.5-1.38-6.39-3.69-7.09-.89h0v.02Z"/>
      <path d="m107.99,194.18c27.53,20.78,68.01,20.31,97.49,3.73,1.13-.62.12-2.35-1.01-1.73-32.01,17.85-66.36,13.56-96.48-1.99h0Z"/>
      <path d="m194.38,189.72c.06.07.12.15.18.21.16.16-.06-.03,0-.07-.05.03.09.32.1.34-.02-.08-.11-.33-.06-.41-.15.71.72,1.18,1.04,1.76.9.99,1.23,3.29,1.06,3.93-.54,1.3,1.47,2.14,1.89.75.54-2.46-.79-6.81-3.67-6.86.06-.06.34-.04.41-.04-.13-.02-.23,0-.36,0-.06-.16-1-.15-.61.4h.02Z"/>
      <path d="m185.12,193.72s.06.09.1.13l-.09-.34c.49,1.36,1.65,2.22,1.72,3.75,0,.03.07.83,0,1.16-.68,1.03,1.15,2.72,1.92.94.54-2.32-.48-5.85-2.95-6.52l.34.09c-.56-.41-1.4.13-1.03.8h-.01Z"/>
      <path d="m174.42,197.87c.27.66.64,1.67.66,2.12.08.43.05,1.41.03,1.59-.14.74-.57,1.83.46,2.11,3.24.45.27-9.75-1.17-5.83h.02Z"/>
      <path d="m162.21,199.68c.02.53-.05,1.05-.09,1.58-.02.38-.32,1.57-.44,1.77-.59,1.06,1.19,1.81,1.52.64.43-.78.31-5.45-.99-3.98h0Z"/>
      <path d="m118.4,187.83c-.07.02-.14.05-.21.07-1.68.37-6.25,4.61-3.94,6.18.97.27,1.28-.79,1.49-1.45.05-.16.65-1.25.99-1.65.13-.66,3.82-2.76,1.68-3.16h-.01Z"/>
      <path d="m137.54,196.83c-1.77.92-2.63,3.25-2.15,5.15.72,1.68,2.63.19,1.8-1.21.06.41-.09-.68,0-.8,0-.3.53-1.52.97-2.02.62-.48.15-1.49-.62-1.12h0Z"/>
      <path d="m127.18,193.03c-.06,0-.12.03-.18.05h.35c-2.15.11-3.82,2.5-4.24,4.48.1,2.27,2.18,1.15,2.26-.58.04-.59,1.37-2.04,2.35-2.87.47-.16.19-1.31-.55-1.08h.01Z"/>
      <path d="m149.21,199.3l-.03.07.15-.15c-.86,1.09-.91,2.85-1.4,4.17-.32,1.1,1.44,1.58,1.71.47.06-1.47.59-3.08.27-4.5l.06.21c.06-.4-.55-.7-.75-.28h0Z"/>
      <path d="m106.59,191.96c-9.27,3.5-18.56,7.44-28.46,8.99-5.64,6.28,30.83-6.4,28.46-9h0Z"/>
      <path d="m207.07,196.22c1.59,2.21,40.83,6.54,33.9,1.75-8.59.07-17.22-.29-25.74-1.48-1.69.01-7.96-1.85-8.16-.26h0Z"/>
      <path d="m243.77,199.54c-5.98,26.72-12.2,59.56,6.63,82.59.79,1.01,2.2-.41,1.41-1.41-20.29-22.64-8.28-56.09-8.03-81.15h0v-.03Z"/>
      <path d="m245.14,198.93c16.54-2.17,13.83,2.03,9.64,14.97-3.28,11.86-5.19,24.08-5.73,36.38,0,2.55-1.02,30.3,3.04,24.23-2.23-20.33-.46-41.03,4.82-60.77,1.05-5.64,7.72-15.02-1.21-17.15-1.85-.7-12.3-.22-10.56,2.34Z"/>
      <path d="m68.09,207.75c2.21-1.24,4.96-1.6,7.33-.59.44.18.97-.2,1.09-.62-.1-2.06-3.61-1.4-5.06-1.27-.8.01-4.94,1.87-3.36,2.47h0Z"/>
      <path d="m76.16,223.03c2.37-.95,7.62,1.46,8.13-.13.87-2.61-11.22-1.94-8.11.15l-.02-.02Z"/>
      <path d="m81.52,246.27c.05.03.11.06.16.1l-.24-.31c.07.3.44.51.61.56.49.23.96.48,1.39.8.55.39,1.29,1.35,1.49,1.93.12.27.27.94.25.98.05,1.16,1.82.93,1.56-.21-.36-2.2-2.79-5.21-5.18-4.55l.36-.15c-.49-.09-.92.54-.42.85h.02Z"/>
      <path d="m79.79,262.14c1.56,1.39,2.32,3.46,1.99,5.31-.09.48.13.97.63,1.11,2.05.07,1.08-3.24.68-4.44-.13-1.18-3.88-5.06-3.28-1.99h-.02Z"/>
      <path d="m74.01,255.33c3.34,15.98-6.25,31.04-5.29,46.98,6.31,32.47-6.1,63.97-12.84,95.35,2.03,8.42,8.44-30.36,9.89-32.31,5.04-19.63,9.04-40.03,5.21-60.23-2.52-16.11,9.69-35.83,3.03-49.78h0Z"/>
      <path d="m61.29,205.61c-24.95,1.88-33.4,28.43-38.95,48.92-4.53,14.57-8.97,29.25-13.27,43.9-.4,1.35,1.72,1.93,2.11.58,3.83-13.14,7.82-26.24,11.89-39.31,4.86-13.88,7.25-29.49,17.04-40.98,5.53-6.42,13.45-9.58,21.33-11.99.6-.17.52-1.19-.15-1.14h0v.02Z"/>
      <path d="m9.1,299.05c20.66,4.33,41.13,10.7,60.14,20.35,1.29.61,2.41-1.32,1.12-1.92-18.97-7.94-41.15-19.91-61.26-18.44h0Z"/>
      <path d="m262.43,202.65c25.99,4.43,25.22,35.56,24.74,56.2.08,15.14,1.07,30.25,1.94,45.36.08,1.28,2.07,1.29,2,0-2.65-24.65-.14-49.58-2.97-74.12-1.29-12.8-8.64-26.1-22.28-28.43-.95-.24-5.09-.66-3.42,1h0Z"/>
      <path d="m290.31,304.48c-6.31-2.56-13.77-2.16-20.53-2.1-2.27-.1-28.56,2.85-21.32,6.02,12.15-3.83,25.02-4.62,37.66-3.5,1.02-.08,4.15.99,4.19-.43h0Z"/>
      <path d="m249.27,259.88c1.43,19.78,2.01,40.73-6.42,59.11-10.65,27.98-6.3,58.82-14.99,87.25-.38,1.25,1.57,1.79,1.96.54,8.53-27.5,4.49-57.33,14.07-84.58,6.43-14.29,8.89-29.75,8.22-45.37-.2-2.32-.71-18.77-2.83-16.95h-.01Z"/>
      <path d="m289.89,304.48c-3.79,1.41-7.53,3.91-11.9,3.58-5.18,4.61,12.98.44,12.04-3.13l-.08.31c.47-.2.68-1.04-.05-.76h0Z"/>
      <path d="m9.72,299.89c.07.16.15.32.22.48l.06-.46c-.93,1.86,4.9,7.39,6.43,5.32.4-1.67-2.15-1.67-3-2.7-1.25-.63-1.9-2.56-3.24-2.75.14.07.29.13.43.19-.13-.58-1.01-.99-.89-.1h0v.02Z"/>
      <path d="m16.62,299.79C8.53,334.4,3.12,369.55,0,404.94c-.11,1.28,1.89,1.27,2,0,2.44-27.63,6.49-55.17,11.84-82.38-.3-2.31,7.7-27.86,2.78-22.77h0Z"/>
      <path d="m277.25,303.33c-3.92,33.75,3.34,67.96-1.96,101.6,4.22,7.64,4.29-34.15,3.83-36.85-1.65-21.04,0-45.22-1.87-64.76h0Z"/>
      <path d="m68.45,319.07c-6.07,26.68-11.15,53.58-17.95,80.13-.31,1.25,1.62,1.78,1.93.53,5.77-26.1,14.47-55.57,16.02-80.67h0Z"/>
      <path d="m125.93,41.71c5.01,8.96,14.11,29.79,26.6,18.96.65-.76-.45-1.87-1.1-1.1-12.3,10.99-19.22-13.43-25.49-17.84h0v-.02Z"/>
      <path d="m106.14,41.98c-2.55,13.17,4.04,50.45,22.26,30.04.61-.73-.44-1.79-1.05-1.05-12.76,16.8-21.19-8.23-20.86-19.55-.52-1.48.96-10.47-.36-9.44h.01Z"/>
      <path d="m113.54,35.51c-.5,13.87,9.85,50.24,26.57,27.79.51-.82-.8-1.58-1.3-.76-16.75,21.82-23.55-17.3-25.25-27.03h-.02Z"/>
      <path d="m180.32,39.39c-7.56,9.57-8.68,35.13-25.85,20.69-6.47-.05,6.48,6.38,8.46,5.43,7.55-.24,11.12-8.86,13.16-15.01.11-1.89,5.87-11.39,4.24-11.13h0v.02Z"/>
      <path d="m187.93,38.66c-1.03,10.23-3.28,43.22-19.03,25.22-.63-1.08-2.35-.07-1.67.98,3.04,5.48,13.22,8.64,16.01,1.38,3-8.05,5.52-20.7,4.71-27.57h-.02Z"/>
      <path d="m194.91,42.58c1.05,12.09,6.74,47.28-14.8,28.07-.96-.88-2.41.56-1.44,1.44,24.04,20.27,20.42-17.75,16.25-29.5h-.01Z"/>
      <path d="m124.16,31.86c8.51,4,15.13,10.84,22.91,15.98,6.89,1.29-23.76-19.18-22.91-15.99h0Z"/>
      <path d="m194.69,19.86c7.46,8.95,19.43-3.63,6.94-7.35-.73-.13-1.04.99-.31,1.12,9.52,2.53,3.05,12.91-6.62,6.23h-.01Z"/>
      <path d="m166.69,79.92c2.86-2.2-.48-5.27-.05-7.94.99-2.5,2.44-4.93,1.68-7.76-.17-1.06-1.79-.61-1.61.44.2,1.19.19,2.4-.16,3.56-1.11,2.2-1.96,4.57-.42,6.83,2.54,3.75-.96,4.85.55,4.87h.01Z"/>
      <path d="m166.62,79.95c4.9-1.35,1.8-4.22,3.23-6.91,3.18-1.49,2.24-8.53.58-4.95,1.02,2.69-1.97,3.81-2.22,6.14,1.86,4.83-3.21,4.9-1.59,5.7v.02Z"/>
      <path d="m104.47,30.34c.46-.22.59-.65.71-1.12.51-2.86,3.69-.64,4.03-3.15,1.43.94,2.9.49,4.25-.33,1.37.06,2.59-1.74.92-2.38l.44,1.08c.72-1.6,2.26-1.66,3.77-1.74,2.4-1.08,1.07-5.24-1.32-5.49-1.36-.21-3,.53-3.78,1.67-.43.63-.61,1.2-1.51,1.21-1.18-.12-2.48-.04-3.19,1.07-1.07,2.01-4.05.29-4.7,2.67-.39,1.57-1.93,1.94-3.34,1.85-2.22.89,2.16,5.47,3.71,4.89.64-.13.37-1.12-.27-.98-1.28.19-2.76-2.42-3.2-3.03,1.26.53,3.23-.65,3.72-2.01.25-.62.35-1.25,1.17-1.26,1.6.31,2.91-.39,3.82-1.67,1.01-1.14,2.04,0,3.21-.33s1.34-1.56,2.27-2.21c1.13-.78,2.65-.69,3.06.78.54,1.73-.66,1.27-1.82,1.41-1.3.09-4.4,2.96-2.08,3.54l-.51-.21c-.23-.2.04-.21-.28-.24-.45.05-.9.3-1.28.54-1.29,1.6-3.1-.75-3.89.68.38,2.18-3.03.59-3.53,2.66-.21.47-.17,1.34-.67,1.59-.34.17-.04.68.3.51h0Z"/>
      <path d="m197.33,27.16c15.49,7.62,20.1-22.19,3.02-21.16-.99.06-.99,1.61,0,1.55,16.22.14,10.39,25.15-3.02,19.61h0Z"/>
      <path d="m106.23,27.28c-.77.48-1.48,5.83-.23,4.28-.8-1.02,1.56-5.14.23-4.28h0Z"/>
      <path d="m200.21,16.97c5.34-10.25-7.68-21.87-16.65-13.88-4.33,3.77-6.1,10.69-2.09,15.32.41.5,1.3-.17.91-.7-4.78-6.32,1.39-16.54,9.08-15.72,6.92.56,10.81,8.66,8.18,14.81-.14.36.43.5.57.16h0Z"/>
      <path d="m196.55,11.33c-6-12.88-15.43,2.83-7.3,11.53.47.64,1.37-.03.87-.67-7.89-8.25.48-22.33,5.86-10.7.1.37.67.21.57-.16h0Z"/>
      <path d="m180.49,23.45c.48.29.92.14,1.42-.03,2.19-1.27,2.87,3.16,4.7,1.57.11,1.39.7,2.74,2.15,3.24.84,1.11,3.15,2.06,2.96-.16l-.71.93c1.73-.26,2.65,1.01,3.54,2.24,2.3,1.46,5.12-2.11,3.82-4.27-.94-2.18-3.37-1.67-5-2.49-.69-1.09-1.35-2.37-2.85-2.34-1.05-.09-1.68-.48-2.21-1.39-1.44-2.59-4.45.48-5.8-2.88-1.88-1.67-3.56,4.71-2.2,5.68.46.46,1.18-.26.72-.72-.83-.98.43-3.45.8-4.34-.15.02.1.35.19.49,1.16,2.16,3.32,1.21,5.03,1.63.73,1.49,1.84,2.56,3.61,2.57,1.54.21,1.14,1.84,2.15,2.61,1.66.79,5.54.4,4.14,3.41-.87,1.18-1.53,1.16-2.11-.24-.74-1.17-4.34-2.51-4.52-.49l.27-.42c-.37-.4-.84-.75-1.35-.96-1.92-.14-1.1-3.5-2.89-2.76-1.37,1.18-1.83-2.33-3.8-1.69-.49.07-1.26.59-1.73.3-.33-.2-.63.31-.3.51h-.03Z"/>
      <path d="m116.11,103.01c-.96-2.39,1.1-3.81,1.63-5.88-.11-1.8-1.23-3.52-.32-5.31.67-1.98-.12-3.68-.76-5.51-.75-2.14-.28-4.25.73-6.22.49-.96-.96-1.81-1.44-.84-3.12,5.21,1.08,9.55.11,15.17,1.12,2.17.71,3.55-.54,5.51-.38.59-.28,4.54.59,3.09h0Z"/>
      <path d="m115.84,102.94c-2.37-2.35.74-5.02-.56-7.47-2.22-1.78-.32-4.21-1.36-6.31-1.23-1.35-2.23-2.99-1.7-4.9.2-.95-1.27-1.34-1.45-.4-1.02,3.02,1.68,4.61,2.4,7.03-.4,1.65-.46,3.46.86,4.75,1.43,2.45-1.73,5.4,1.34,7.65.24.23.66-.07.47-.36h0Z"/>
      <path d="m103.13,19.06c-6.17,7.31-17.36-2.58-6.33-5.92.73-.13.42-1.25-.31-1.12-7.93,1.07-6.34,11.63,1.49,10.42,1.02.16,6.53-2.9,5.14-3.38h0Z"/>
      <path d="m100.51,26.16c-13.62,7.22-17.91-20.61-2.72-19.11.99.06.99-1.49,0-1.55-11.45-.71-15.06,15.49-5.76,21.06,2.69,1.93,6.03,1.98,8.77.1.31-.21.02-.73-.3-.51h.01Z"/>
      <path d="m98.5,16.32c-5.66-21.4,26.12-17.62,17.25.9,1.05,3.93,4.48-6.78,2.78-8.43-5.71-17.64-28.44-5.12-20.03,7.52h0Z"/>
      <path d="m102.16,11c5.32-11.59,13.79,2.36,5.86,10.7-.49.63.39,1.32.87.67,8.23-8.82-1.4-24.38-7.3-11.52-.1.37.47.53.57.16h0Z"/>
      <path d="m115.86,23c1.13-.01,2.03,1.2,2.97,1.2.6-.85-4.04-2.62-2.97-1.19h0Z"/>
      <path d="m112.13,25.72c.84.28,1.95,4.38,2.42,2.95-.1-.67-2.26-4.71-2.42-2.95h0Z"/>
      <path d="m108.86,26.03c-.51.63.12,5.01.82,3.3-.79-.6.24-4.35-.81-3.3h-.01Z"/>
      <path d="m114.77,23.97c.56.43.96.93,1.26,1.56,1.78.69-1.5-3.44-1.26-1.57h0Z"/>
      <path d="m76.35,200.62c-4.56-1.98-14.4-1.34-14.6,5.02.96,3.08,3.46,5.51,4.65,8.54,8.8,13.96,12.11,30.97,10.17,47.3-.72,7.49-2.35,14.85-4.83,21.95-.44,1.26,1.55,1.79,1.99.55,10.2-26.44,5.45-55.85-10.03-79.01,1.39-5.42,15.89-1.73,12.65-4.36h0Z"/>
      <path d="m77.81,203.04c13.62,23.3,20.42,60.7-4.13,79.16-1.21.83-.06,2.83,1.16,1.98,24.01-15.89,20.7-65.25,2.96-81.15h.01Z"/>
      <path d="m44.47,398.65c6.82.97,13.5,3.57,18.9,7.91,6.21.12-7.29-6.93-8.9-6.98-1.49-.58-10.55-2.67-9.99-.94h-.01Z"/>
      <path d="m160.34,131.25c-1.97-3.34-3.76-1.59-5.51.65-2.94.94-2.47-4.98-6.97-1.25-.53.53.29,1.35.82.82.39-.39.86-.62,1.4-.75,1.81-.47,2.18,2.98,4.41,2.35,2.21-.42,2.93-5.47,5.41-1.72.11.26.53.15.43-.12h0v.02Z"/>
      <path d="m151.07,114.91c-.11,4.53-3.25,7.69-5.38,11.34-1.67,3.07.28,8.09,4.28,6.16.66-.34.08-1.35-.59-1-7.12.83-.53-8.15.92-10.79.37-.84,1.96-6.34.77-5.69h0v-.02Z"/>
      <path d="m156.56,114.91c.16,3.78,1.61,7.24,4.02,10.11,1.84,2.03,1.95,8.24-2.07,6.17-.63-.41-1.21.6-.59,1,3.43,2.15,5.97-1.83,4.78-4.99-.49-2.22-2.19-3.59-3.36-5.42-1.33-2.07-2.06-4.44-2.32-6.87-.03-.28-.47-.29-.45,0h0Z"/>
      <path d="m171.56,143.71c-11,5.91-24.14,7.05-34.84-.18-.65-.37-1.23.63-.59,1,10.66,7.3,26.43,6.3,35.41-.83h.02Z"/>
      <path d="m189.91,103.74c-7.46-7.72-24.07-11.06-27.52,2.16-.22.71.9,1.02,1.12.31,3.75-13.62,19.42-7.36,26.39-2.46h0Z"/>
      <path d="m189.64,103.71c-7.71,5.03-18.08,5.88-26.4,1.85-.67-.32-1.26.68-.59,1,8.21,4.16,21.27,3.08,26.99-2.85h0Z"/>
      <path d="m118.17,103.97c7.08-7.18,22.97-9.98,26.24,2.3,3.41,1.85-2.08-6.94-3.46-7.21-6.58-5.27-19.49-.68-22.78,4.9h0Z"/>
      <path d="m117.9,104c8.08,5.59,18.42,6.92,27.36,2.62.67-.32.08-1.33-.59-1-8.44,4.8-19.88,1.81-26.77-1.62h0Z"/>
      <path class="cls-8" d="m190.65,97.05c-7.44-7.52-20.05-9.36-28.44-2.37-.96.75.4,2.12,1.35,1.35,10-7.95,18.85-3.42,27.09,1.02h0Z"/>
      <path class="cls-8" d="m117.92,97.2c7.29-6.57,18.92-8.03,26.67-1.44.95.77,2.31-.6,1.35-1.35-8.4-7-20.99-5.13-28.44,2.37-.28.27.13.67.42.42h0Z"/>
      <path d="m68.44,322.02c1.16-.17,3.86.66,4.08-.88-.06-.43-.49-.72-.93-.62-.78.39-4.42.1-3.15,1.5Z"/>
      <path d="m233.88,380.9c-.94,2-2.03,30.95,1.63,25.13-1.76-7.73-.06-19.13-1.61-25.13h-.02Z"/>
      <path d="m105.87,123.82c-11.06-6.9-13.04-41.74-4.62-34,.55.5,1.38-.32.82-.82-10.53-8.02-6.98,20.54-4.19,24.81,1.76,3.93,4.48,7.44,7.66,10.33.21.19.53-.12.31-.31h.02Z"/>
      <path d="m203.33,121.73c12.09-7.33,14.64-44.45,3.47-35.14-.56.5.27,1.32.82.82,5.9-5.13,4.97,8.38,5.05,11.55.42,8.67-4.97,17.3-9.36,22.76h.02Z"/>
      <path d="m72.14,215.13c2.21-.78,4.65-1.1,6.93-.35,1.08.33,1.53-1.39.46-1.66-1.15-.95-9.81.41-7.39,2.02h0Z"/>
      <path d="m78.91,230.16c.94.6,2.27.19,3.32.68,1.44,0,2.99,2.47,4.2,1.07,1.04-2.34-7.51-3.91-7.51-1.75h-.01Z"/>
      <path d="m80.35,237.06c1.75.42,3.8,1.85,4.56,3.04.5,1.68,3.02,1.09,1.94-.57-.58-1.33-6.43-4.43-6.51-2.47h.01Z"/>
      <path d="m78.3,270.59c-.04.67.5,1.76.46,2.18.18.8-.37,2.32.85,2.39,1.93-.02-.03-6.26-1.33-4.58h.02Z"/>
      <path d="m255.07,203.6c-1.47-1.85-8.36-3.03-8.59-.03,1.04,1.45,3.18-.82,4.75-.26.95-.33,3.94,1.58,3.84.28h0Z"/>
      <path d="m247.41,241.9c-2.03-.02-7.81,4.07-6.04,6.17,1.87.57,2.15-2.6,3.52-3.41.39-.97,3.36-1.82,2.53-2.75h0Z"/>
      <path d="m251.79,217.97c-2.41-.61-5.56-.06-7.47.77-1.79.6.14,2.82.94,1.67,1.03-1.59,7.76-1.65,6.51-2.42h0l.02-.02Z"/>
      <path d="m247.37,250.17c-2.19.91-4.34,3.47-5.3,5.01-1.21,1.33,1.57,2.47,1.64.68-.38-1.98,5.36-5.96,3.64-5.69h.02Z"/>
      <path d="m247.94,266.46c-2.02-.02-3,7.37-.75,4.49-.14-1.34.06-2.71.92-3.77.15-.05.32-.76-.18-.74h0v.02Z"/>
      <path d="m124.52,202.56c-1.3,10.57,16.42,8.3,9.97,21.6,2.07,6.08,5.45-8.85,1.76-10.95-3.06-3.96-10.39-4.58-10.51-10.49-.04-.65-1.12-.91-1.23-.17h.01Z"/>
      <path d="m124.53,208.7c-8,13.23,10.08,15.22,8.41,24.67-.52,1.17,1.2,2.18,1.73,1.01,3.67-9.49-12.47-12-10.27-21.32-.12-1.09,1.49-4.34.13-4.36h0Z"/>
      <path d="m123.39,223.15c-8.07,13.11,12.12,13.79,6.97,24.4-.71,1.31,1.32,2.49,2,1.17,5.76-10.73-10.35-12.4-8.89-22.07-.09-.93,1.15-3.3-.1-3.51h.02Z"/>
      <path d="m124.32,237.76c-3.97,1.93-3.57,9.23-1.06,12.42,1.61,2.15,4.13,3.07,5.9,5s2.07,4.64,1.39,7.13c-.4,1.48,1.9,2.11,2.29.63,3.89-11.51-14.28-11.27-8.77-23.05.15-.36,1.12-1.92.24-2.13h0Z"/>
      <path d="m124.68,253.9c-3.57,2.46-4.38,8.87-1.14,12.02,1.84,1.89,4.6,2.79,6.11,5.01s1.14,4.82-.46,6.9c-.93,1.22,1.15,2.43,2.06,1.21,8-11.57-11.71-11.57-7.32-21.76.2-.9,1.94-2.86.73-3.39h.02Z"/>
      <path d="m124.71,268.78c-3.81,1.62-5.44,8.56-2.05,11.43,2.01,1.65,4.66,2.25,6.09,4.6,1.63,2.66.31,5.89-.67,8.53-.55,1.47,1.8,2.1,2.35.65,7.07-15.22-11.62-11.11-6.95-21.93.31-.92,2.27-2.52,1.23-3.29h0Z"/>
      <path d="m124.25,283.5c-1.5-1.76-2.83,2.43-2.95,3.28-1.01,5.8,5.23,7.89,8.04,11.74,1.28,2.1,1.34,4.57.24,6.76-.63,1.24,1.24,2.35,1.88,1.1,6.22-11.88-13.62-13.11-7.2-22.87h-.01Z"/>
      <path d="m81.44,254.17c.05.05.11.1.16.15l-.13-.51c-.14.81.93,1.04,1.32,1.6.72.72,1.23,1.87,1.3,2.63-.31,1.41.88,2.96,1.6,1.11.17-2.16-1.62-5.99-4.07-5.57v.02c.15-.04.32-.09.49-.13-.48-.22-1.08.25-.67.72h0v-.02Z"/>
      <path d="m253.16,210.28c-2.27-1.53-5.37-1.63-7.76-.3-1.66.44.03,2.98,1.05,1.55,2.25-2.52,7.66.02,6.7-1.24h.01Z"/>
      <path d="m248.6,233.93c-2.4-.14-4.94,1.15-6.44,3.01-1.08,1.63,1.44,2.27,1.93.58.57-.72,1.89-2.14,3.13-2.53.41-.22,2.15-.39,1.37-1.05h0Z"/>
      <path d="m249.79,226.26c-2.39-.68-5.22.11-7.11,1.7-1.07,1.8,1.29,2.07,2.15.67.8-1.46,5.88-1.6,4.95-2.36h0Z"/>
      <path d="m247.56,258.45c-1.62.89-3.21,3.33-3.84,4.39-1.31,1.52,1.94,2.44,1.6.43l.03.15c.01-1.27,1.28-3.44,2.55-4.51.25-.22-.08-.65-.36-.47h.02Z"/>
      <path d="m155.07,213.1c-1.3,10.57,16.42,8.3,9.97,21.6,2.07,6.08,5.45-8.85,1.76-10.95-3.06-3.96-10.39-4.58-10.51-10.49-.04-.65-1.12-.91-1.23-.17h.01Z"/>
      <path d="m155.08,219.24c-8,13.23,10.08,15.22,8.41,24.67-.52,1.17,1.2,2.18,1.73,1.01,3.67-9.49-12.47-12-10.27-21.32-.12-1.09,1.49-4.34.13-4.36h0Z"/>
      <path d="m153.94,233.69c-8.07,13.11,12.12,13.79,6.97,24.4-.71,1.31,1.32,2.49,2,1.17,5.76-10.73-10.35-12.4-8.89-22.07-.09-.93,1.15-3.3-.1-3.51h.02Z"/>
      <path d="m154.87,248.3c-3.97,1.93-3.57,9.23-1.06,12.42,1.61,2.15,4.13,3.07,5.9,5s2.07,4.64,1.39,7.13c-.4,1.48,1.9,2.11,2.29.63,3.89-11.51-14.28-11.27-8.77-23.05.15-.36,1.12-1.92.24-2.13h.01Z"/>
      <path d="m155.23,264.44c-3.57,2.46-4.38,8.87-1.14,12.02,1.84,1.89,4.6,2.79,6.11,5.01s1.14,4.82-.46,6.9c-.93,1.22,1.15,2.43,2.06,1.21,8-11.57-11.71-11.57-7.32-21.76.2-.9,1.94-2.86.73-3.39h.02Z"/>
      <path d="m155.26,279.32c-3.81,1.62-5.44,8.56-2.05,11.43,2.01,1.65,4.66,2.25,6.09,4.6,1.63,2.66.31,5.89-.67,8.53-.55,1.47,1.8,2.1,2.35.65,7.07-15.22-11.62-11.11-6.95-21.93.31-.92,2.27-2.52,1.23-3.29h0Z"/>
      <path d="m153.13,294.04c-1.5-1.76-2.83,2.43-2.95,3.28-1.01,5.8,5.23,7.89,8.04,11.74,1.28,2.1,1.34,4.57.24,6.76-.63,1.24,1.24,2.35,1.88,1.1,6.22-11.88-13.62-13.11-7.2-22.87h-.01Z"/>
      <path d="m186.12,207.09c-1.3,10.57,16.42,8.3,9.97,21.6,2.07,6.08,5.45-8.85,1.76-10.95-3.06-3.96-10.39-4.58-10.51-10.49-.04-.65-1.12-.91-1.23-.17h.01Z"/>
      <path d="m186.13,213.23c-8,13.23,10.08,15.22,8.41,24.67-.52,1.17,1.2,2.18,1.73,1.01,3.67-9.49-12.47-12-10.27-21.32-.12-1.09,1.49-4.34.13-4.36h0Z"/>
      <path d="m184.99,227.68c-8.07,13.11,12.12,13.79,6.97,24.4-.71,1.31,1.32,2.49,2,1.17,5.76-10.73-10.35-12.4-8.89-22.07-.09-.93,1.15-3.3-.1-3.51h.02Z"/>
      <path d="m185.92,242.29c-3.97,1.93-3.57,9.23-1.06,12.42,1.61,2.15,4.13,3.07,5.9,5s2.07,4.64,1.39,7.13c-.4,1.48,1.9,2.11,2.29.63,3.89-11.51-14.28-11.27-8.77-23.05.15-.36,1.12-1.92.24-2.13h.01Z"/>
      <path d="m186.28,258.44c-3.57,2.46-4.38,8.87-1.14,12.02,1.84,1.89,4.6,2.79,6.11,5.01s1.14,4.82-.46,6.9c-.93,1.22,1.15,2.43,2.06,1.21,8-11.57-11.71-11.57-7.32-21.76.2-.9,1.94-2.86.73-3.39h.02Z"/>
      <path d="m186.31,273.31c-3.81,1.62-5.44,8.56-2.05,11.43,2.01,1.65,4.66,2.25,6.09,4.6,1.63,2.66.31,5.89-.67,8.53-.55,1.47,1.8,2.1,2.35.65,7.07-15.22-11.62-11.11-6.95-21.93.31-.92,2.27-2.52,1.23-3.29h0Z"/>
      <path d="m185.85,288.04c-1.5-1.76-2.83,2.43-2.95,3.28-1.01,5.8,5.23,7.89,8.04,11.74,1.28,2.1,1.34,4.57.24,6.76-.63,1.24,1.24,2.35,1.88,1.1,6.22-11.88-13.62-13.11-7.2-22.87h-.01Z"/>
      <path d="m94.02,200.4c.02,10.55,17.21,6.28,12.47,20.08,2.74,6.29,4.4-9.63.28-11.09-3.59-3.43-10.77-3.3-11.52-9.16-.12-.72-1.21-.51-1.23.17h0Z"/>
      <path d="m95.86,205.74c-8,13.23,10.08,15.22,8.41,24.67-.52,1.17,1.2,2.18,1.73,1.01,3.67-9.49-12.47-12-10.27-21.32-.12-1.09,1.49-4.34.13-4.36h0Z"/>
      <path d="m97.11,220.05c-8.07,13.11,12.12,13.79,6.97,24.4-.71,1.31,1.32,2.49,2,1.17,5.76-10.73-10.35-12.4-8.89-22.07-.09-.93,1.15-3.3-.1-3.51h.02Z"/>
      <path d="m98.04,234.66c-3.97,1.93-3.57,9.23-1.06,12.42,1.61,2.15,4.13,3.07,5.9,5s2.07,4.64,1.39,7.13c-.4,1.48,1.9,2.11,2.29.63,3.89-11.51-14.28-11.27-8.77-23.05.15-.36,1.12-1.92.24-2.13h0Z"/>
      <path d="m98.4,250.81c-3.57,2.46-4.38,8.87-1.14,12.02,1.84,1.89,4.6,2.79,6.11,5.01s1.14,4.82-.46,6.9c-.93,1.22,1.15,2.43,2.06,1.21,8-11.57-11.71-11.57-7.32-21.76.2-.9,1.94-2.86.73-3.39h.02Z"/>
      <path d="m95.43,265.68c-3.81,1.62-5.44,8.56-2.05,11.43,2.01,1.65,4.66,2.25,6.09,4.6,1.63,2.66.31,5.89-.67,8.53-.55,1.47,1.8,2.1,2.35.65,7.07-15.22-11.62-11.11-6.95-21.93.31-.92,2.27-2.52,1.23-3.29h0Z"/>
      <path d="m92.97,280.41c-1.5-1.76-2.83,2.43-2.95,3.28-1.01,5.8,5.23,7.89,8.04,11.74,1.28,2.1,1.34,4.57.24,6.76-.63,1.24,1.24,2.35,1.88,1.1,6.22-11.88-13.62-13.11-7.2-22.87h-.01Z"/>
      <path d="m217.68,201.43c-1.48,10.54,16.25,8.64,9.51,21.82,1.95,6.05,5.69-8.77,1.92-11.03-3.01-3.95-10.22-4.74-10.2-10.62-.03-.67-1.1-.9-1.23-.17h0Z"/>
      <path d="m216.1,207.7c-8,13.23,10.08,15.22,8.41,24.67-.52,1.17,1.2,2.18,1.73,1.01,3.67-9.49-12.47-12-10.27-21.32-.12-1.09,1.49-4.34.13-4.36h0Z"/>
      <path d="m214.96,222.15c-8.07,13.11,12.12,13.79,6.97,24.4-.71,1.31,1.32,2.49,2,1.17,5.76-10.73-10.35-12.4-8.89-22.07-.09-.93,1.15-3.3-.1-3.51h.02Z"/>
      <path d="m215.13,236.95c-3.86,2.07-2.98,9.35-.37,12.39,1.74,2.12,4.41,2.86,6.31,4.74s2.31,4.42,1.8,6.9c-.31,1.49,1.99,2.13,2.29.63,2.2-14.81-14.36-6.91-10.04-24.68h0v.02Z"/>
      <path d="m213.81,252.02c-1.71,1.18-1.75,4.14-1.82,6.07-.43,8.58,15.68,6.54,11.69,16-.63,1.39,1.44,2.61,2.06,1.21,5.55-13.31-13.93-8.79-11.95-19.82.03-.9,1.22-3.11.01-3.45h.01Z"/>
      <path d="m213.02,266.62c-1.77,1.38-1.29,4.69-.84,6.67,1.43,6.79,9.19,2.92,12.93,6.73,1.58,1.74,1.85,4.41,2.12,6.65.19,1.53,2.62,1.56,2.44,0-.51-17.69-17.31-3.86-16.22-18.3.07-.58.38-1.67-.43-1.75h0Z"/>
      <path d="m224.74,199.6c-.36,4.23,7.18,4.17,6.05,9.07-.06.57.53,1.06,1.06,1.06,3.35-1.95-1.19-7.89-4.33-7.93-.96-.27-2.3-.91-2.19-2.12.03-.33-.51-.4-.58-.08h0Z"/>
      <path d="m193.58,203.39c8.85,5.84,2.54,8.19,5.78,9.69,2.25-1.04,1.17-6.05-.38-7.61-1.06-1-4.33-3.41-5.42-2.07h.02Z"/>
      <path d="m162.62,209.98c-.9,3.56,7.28,2.91,4.88,9.67-.2.5.22,1.1.7,1.23,3.64-1.2.84-7.91-2.13-8.91-.98-.45-2.81-.51-2.91-1.84-.02-.27-.41-.43-.55-.15h0Z"/>
      <path d="m101.56,195.36c-2.25,3.96,5.32,2.68,3.88,8.81,2.52,3.92,2.52-4.26.76-5.36-.98-1.56-4.17-.96-4.18-3.11.14-.28-.24-.64-.47-.36h0v.02Z"/>
      <path d="m150.98,306.58c-7.3,14.99,9.63,7.28,5.96,22.6,3.12,6.01,3.26-10.57-.68-11.67-1.55-1.29-4.15-1.24-4.81-3.37-1.43-1.58,1.86-9.32-.47-7.55h0Z"/>
      <path d="m149.2,319.89c-6.49,9.24-.16,10.99,6.84,15.23,2.01,2.05,1.41,5.51.42,7.9-.56,1.33,1.62,1.92,2.17.6,6.14-16.09-16.14-8.65-8.51-23.34.22-.56-.61-.81-.91-.39h-.01Z"/>
      <path d="m149.13,333.78c-2.1.06-3.26,2.98-3.44,4.72-.35,5.29,6.48,5.6,8.36,9.82,1.04,2.02,1.18,4.31.38,6.43-.52,1.38,1.71,1.99,2.21.61,4.7-13.02-15.47-12.34-7.24-20.53.41-.31.33-1.07-.28-1.05h0Z"/>
      <path d="m148.19,345.73c-1.86-.11-3.41,1.65-3.85,3.35-1.14,5.44,5.5,6.49,8.58,9.33,2.28,1.69,1.3,4.65.05,6.67-.75,1.38,1.37,2.62,2.1,1.23,8.52-12.86-16.25-11.48-7.14-19.57.23-.26.92-.85.25-.99h0v-.02Z"/>
      <path d="m144.87,356.65c-5.71,5.9.09,10.66,5.45,13.45,1.74,1.61,2.61,3.88,1.19,5.91-.79,1.13,1.07,2.21,1.85,1.08,6.25-10.02-15.37-10.36-7.5-19.43.67-.61-.32-1.58-.99-.99h0v-.02Z"/>
      <path d="m144.55,368.89c-9.26,9.86,11.99,7.24,6.03,17.71.27,5.51,6.56-3.88.46-8.95-3.35-2.75-10.18-2.23-5.79-8.22.24-.44-.33-.9-.7-.54h0Z"/>
      <path d="m143.35,379.28c-3.22,2.09-2.6,6.93.73,8.58,3.64,1.24,7.88,3.5,7.17,8.05,3.39,5.02,3.72-6.74-3.13-8.85-10.06-2.4-1.78-7.83-4.76-7.78h-.01Z"/>
      <path d="m143.16,390.12c-3.8.43-4.25,7.45-.46,8.45,3.42.25,9.4,2.07,6.08,6.44-.91.99.57,2.47,1.48,1.48,1.47-1.59,1.98-3.85,1.07-5.86-1.68-4.58-7.12-2.2-9.37-4.97-.65-1.76.04-3.71,1.54-4.73.18-.27.02-.76-.33-.8h-.01Z"/>
      <path d="m141.39,399.41c-1.88,2.27,2.09,8.17,4.54,7.08.77-1.79-2.5-2.21-3.18-3.64-1.24-.65-.32-4.22-1.37-3.44h0Z"/>
      <path d="m185.43,300.13c-5.69,4.69.9,10.91,5.29,13.45,1.38,1.84.66,4.35,0,6.32-.43,1.28,1.59,1.83,2.02.56,4.56-12.86-10.72-7.71-7.32-20.34h0Z"/>
      <path d="m185.58,310.26c-1.69.54-2.84,2.47-3.12,4.15-.81,4.45,4.72,5.05,6.01,8.62.78,1.75.91,3.56.46,5.32-.35,1.39,1.8,1.98,2.14.59,3.06-11.2-12.44-10.86-4.8-17.8.3-.48-.19-.97-.68-.88h-.01Z"/>
      <path d="m183.86,321.1c-8,6.48,7.21,10.22,3.11,17.9-.51,1.29,1.54,1.82,2.06.57,1.33-3.18.55-7.05-1.73-9.6-8.04-5.39-.79-8.38-3.44-8.86h0Z"/>
      <path d="m180.86,332.27c-3.03,2.83-1.9,8.02,2.35,8.7,3.05,1.56,4.71,5.32,3.77,8.61-.37,1.29,1.64,1.84,2,.55,2.58-13.32-12.07-8.69-7.2-17.16.32-.59-.42-1.14-.91-.7h-.01Z"/>
      <path d="m180.73,343.47c-8.08,9.11,7.64,9.41,5.81,16.97-.44,1.3,1.61,1.85,2.05.56,3.07-8.94-13.1-8.67-7.08-16.75.43-.55-.23-1.24-.77-.77h-.01Z"/>
      <path d="m180.34,354.54c-2.58,2.01-4.48,7.26-.61,8.97,1.59.7,3.05,1.23,4.29,2.53s2.06,2.77,2.37,4.48c.2,1.11,1.83.62,1.67-.46-.69-9.62-14.11-5.86-7.04-14.84.45-.44-.2-1.04-.67-.67h0Z"/>
      <path d="m179.02,364.8c-3.92,1.61-3.27,8.28.44,9.95,1.87.98,4.11.71,5.82,1.8,2,1.28,1.22,4.06.69,5.92-.35,1.21,1.53,1.72,1.88.52,5.01-13.74-16.03-5.32-8.46-17.7.04-.25-.1-.49-.38-.49h0Z"/>
      <path d="m178.13,375.15c-2.76,2.45-2.63,7.2.3,9.46,2.09,1.75,5.5,1.64,6.96,4.13.55,1.13.41,2.49.23,3.69-.15.99,1.34,1.44,1.54.42,3.32-10.26-14.41-7.05-8.37-17.03.4-.45-.21-1.07-.66-.66h0Z"/>
      <path d="m178.52,386.32c-2.81,1.84-1.71,6.51,1.31,7.5,4.29.63,6.94,2.57,4.21,6.96-.57,1.14,1.14,2.15,1.71,1,.82-1.65,1.64-3.48,1.29-5.36-.58-5.42-12.47-2.77-8.08-9.65.18-.28-.17-.62-.45-.45h.01Z"/>
      <path d="m176.87,395.88c-.65,2.01-.33,4.94,1.91,5.77,1.08.4,2.47-.01,3.2.92.49.62.57,1.5.16,2.14-.69,1.07,1.03,2.07,1.7.99,1.4-2.21-.2-5.4-2.82-5.54-1.05-.06-2.39.06-2.9-1.1-.73-.58-.16-4-1.25-3.18h0Z"/>
      <path d="m119.96,295.99c-4.16,8.4,1.06,8.69,7.19,11.23,1.06,1.27.71,3.33.45,4.81-.22,1.26,1.7,1.8,1.93.53,3.25-12.83-13.26-3.97-8.65-16.18.16-.53-.66-.9-.91-.39h0Z"/>
      <path d="m121.35,306.85c-3.15,2.15-2.52,7.83,1.66,8.67,2.48,1.38,3.79,4.77,2.59,7.42-.53,1.16,1.2,2.18,1.73,1.01,1.82-3.9-.18-8.89-4.25-10.39-.97-.4-1.84-.73-2.18-1.82-.94-1.48,1.71-4.43.45-4.88h0Z"/>
      <path d="m119.75,318.24c-3.28,2.31-2.37,8.05,1.91,8.51,5.67-.05,4.57,4.95,4.05,8.95,2.31,6.01,4.58-10.09-.84-10.27-4.71-.58-6.91-1.87-4.65-6.83.15-.31-.2-.58-.47-.36h0Z"/>
      <path d="m119.47,327.46c-4.79,4.03-1.23,10.46,4.45,10.62,2.07.91,1.1,3.61.55,5.16-.48,1.36,1.68,1.95,2.15.59,4.76-11.78-12.43-4.66-6.32-15.75.08-.42-.38-.94-.81-.63h-.02Z"/>
      <path d="m117.76,338.89c1.58.18.19-2.09-1.28.03-3.68,4.72.89,8.84,5.6,9.47,1.44,2.86,1.07,6.42-.01,9.36-.5,1.29,1.59,1.86,2.08.57,1.49-4.19,2.19-12.57-4.09-12.55-3.07-.59-4.23-5.03-1.82-6.97l-.5-.07-.07-.22.34-.26c-.37-.05-.53.41-.24.61h0v.03Z"/>
      <path d="m115.13,347.62c-5.21,7.06-.38,9.72,5.84,12.13,1.38,1.22,1.26,3.29.59,4.8-.57,1.28,1.34,2.39,1.89,1.1,4.66-12.03-13.23-5.63-7.54-17.58.17-.44-.48-.79-.78-.46h0Z"/>
      <path d="m113.6,358.23c-3.06,2.47-2.49,8.38.77,10.62,1.63,1.37,3.93.97,5.64,2.15,1.3,1.05,1.71,2.88,1.08,4.39-.56,1.32,1.64,1.94,2.17.6,3.05-10.74-14.75-4.75-8.8-17.39.49-2.36-2.77-.92-.85-.38h-.01Z"/>
      <path d="m111.52,370c-.6,3.6-.25,7.71,3.5,9.64,1.61,1.21,4.12.45,5.1,2.48.93,1.87.29,4.23-.21,6.12-.33,1.25,1.6,1.78,1.93.53,4.09-15.27-10.11-5.01-9.3-19.21-.29-.56-1.26-.17-1.03.43h.01Z"/>
      <path d="m111.94,379.97c-3.52,3.66.74,8.59,4.64,9.65,3.67.69,3.69,4.53,2.41,7.31,1.65,5.26,5.64-7.5-.97-8.84-9.83-2.97-2.78-9.01-6.08-8.13h0Z"/>
      <path d="m112.15,389.71c-1.81,1.15-2.34,4.57-.98,6.26,3.82,1.38,8.01,3.46,5.57,8.32.66,5.41,5.56-4.16.05-7.86-2.38-2-5.89-.66-4.44-5.12.16-.46.7-1.65-.19-1.61h0Z"/>
      <path d="m89.31,290.38c-10.41,14.2,11.78,10.72,5.54,22.92-.73,1.21,1.16,2.31,1.89,1.1,2.44-4.05,1.5-9.35-2.37-12.15-1.9-1.38-4.33-1.47-5.39-3.84-1.81-2.06,1.8-8.38.33-8.04h0Z"/>
      <path d="m87.64,304.51c-4.47,2.96-1.16,9.59,3.03,10.9,4.22,1.05,3.09,6.62,2.17,9.71,2.25,5.83,5.04-10.18-.4-11.14-3.83-1.1-7.56-5.24-4.44-9.02.19-.25-.05-.65-.36-.47h0v.02Z"/>
      <path d="m86.72,317.31c-2.95,2.33-4.6,7.94-1.4,10.78,1.57,1.38,3.88,1.62,4.91,3.45s.61,4.05-.17,5.81c-.53,1.2,1.25,2.24,1.77,1.03,5.4-12.44-11.53-8.57-5.19-19.49.25-.43.9-1.51.07-1.59h.01Z"/>
      <path d="m82.82,329.64c-2.71,2.19-2.59,6.83-.2,9.21,5.34,2.23,6.31,2.58,4.61,8.82,1.66,4.73,3.5-4.15,2.54-5.73-1.66-6.28-9.99-1.66-6.48-11.92.14-.31-.2-.58-.47-.36h0v-.02Z"/>
      <path d="m81.7,339.95c-3.51,2.3-4.17,8.17.47,9.48,5.85.98,3.93,6.64,2.26,10.59,1.26,5.63,6.55-9.48,1.43-11.12-5.53-1.88-6.95-3.2-3.73-8.61.1-.23-.24-.49-.44-.34h.01Z"/>
      <path d="m79.5,349.92c-6.12,3.13-1.63,10.68,2.77,13.19,1.47,1.6.39,3.87-.87,5.23-.86.93.52,2.32,1.39,1.39,8.15-10.58-9-7.62-3.3-19.82h.01Z"/>
      <path d="m76.85,359.86c-3.2,1.08-3.45,7.46-.59,9.19,1.62.83,3.41,1.66,4.06,3.53.68,1.66.69,3.54-.23,5.11-.56.95.87,1.77,1.47.86,4.4-9.3-4.46-9.41-5.47-12.93-.15-1.78-.29-3.91,1.08-5.22.14-.22-.04-.54-.3-.53h-.02Z"/>
      <path d="m75.34,369.95c-4.32,2.4-1.85,9.27,2.76,9.58,3.56.18,1.34,4.63,1.03,6.78,1.63,6.12,6.25-8.5.33-8.87-8.89-1.59-1.55-7.21-4.12-7.49h0Z"/>
      <path d="m74.21,379.14c-5.79,2.83-1.3,10.16,2.94,12.24,1.7,1.65-.23,4.13-1.29,5.53-.84,1.1,1.02,2.16,1.85,1.08,8.4-10.7-9.86-8.25-3.5-18.85h0Z"/>
      <path d="m70.52,388.6c-8.07,8.4,7.78,10.37,3.28,15.29-1.23.55-.17,2.4,1.09,1.86,3.22-1.6,2.18-6.13-.39-7.87-3.46-2.13-6.12-4.82-3.37-8.82.17-.37-.29-.81-.6-.46h0Z"/>
      <path d="m214.77,279.09c-2.49,3.44.18,8.32,3.3,10.42,4.8,1.91,7.18,4.49,6.6,9.91,2.91,4.52,2.82-4.62,1.7-6.22-2.54-5.61-11.95-5.9-10.67-13.72-.03-.42-.6-.77-.92-.38h-.01Z"/>
      <path d="m216.08,291.1c-4.06,11.59,11.37,10.38,10.9,20.63.16,1.58,2.66,1.59,2.48,0-.23-2.14-.59-4.28-1.57-6.22-3.66-5.46-11.76-5.72-11.21-14.25,0-.29-.46-.47-.6-.16h0Z"/>
      <path d="m217.04,302.39c-3.87,8.7,1.02,12.76,8.97,14.77,1.74,1.29,2.63,3.42,2.41,5.55-.17,1.61,2.35,1.6,2.52,0,.65-11.7-13.3-5.43-13.48-15.77-.46-.85.71-5.2-.4-4.54h-.02Z"/>
      <path d="m217.72,316.08c-4.94,11.73,13.7,9.61,8.95,19.37.93,6.55,7.04-6.85-2.14-9.9-4.19-.83-6.98-5.13-6.23-9.3.1-.37-.44-.51-.57-.16h0Z"/>
      <path d="m217.99,326.3c-2.79,2.28-1.35,7.21,1.17,9.26,5.42,2.32,7.01,5.18,5.43,11.01,2.1,5.09,3.39-5.37,2.44-6.91-1.81-6.39-10.31-4.4-8.5-13.11.12-.35-.36-.47-.54-.23h0v-.02Z"/>
      <path d="m217.38,336.73c-3.57,7.77-2.21,11.05,5.55,14.21,2.03,1.88,1.65,5.04,1.33,7.51-.14,1.12,1.68,1.15,1.78,0,2.49-15.29-13.54-5.47-8.12-21.48.11-.31-.4-.53-.54-.23h0Z"/>
      <path d="m216.19,349.25c-3.3,4.32.19,8.9,4.27,10.83.95.99,1.33,2.45,1.02,3.77-.36,1.51,1.97,2.15,2.32.64s.16-3.15-.58-4.57c-2.64-3.9-8.15-3.75-6.02-10.08.1-.53-.6-1.11-1.02-.59h0Z"/>
      <path d="m214.81,359.53c-3.25,4.25-.79,9.7,4.33,10.63.71.2,1.19.19,1.35.99.19.98.15,2.01.04,3-.15,1.34,1.98,1.35,2.11,0,1.55-9.56-10.48-3.09-7.29-14.39.06-.32-.37-.54-.54-.23h0Z"/>
      <path d="m213.91,369.17c-3.36,7.18.11,6.47,4.91,9.65.73,1.04.83,2.43.17,3.52s1.07,2.12,1.73,1.01c2.69-5.71-2.39-6.93-6.27-8.84-1.71-.89.93-6.51-.55-5.34h.01Z"/>
      <path d="m212.74,378.28c-1.74,2.12-1.93,5.98-.08,8.11,1.5,1.63,5.19,1.17,4.98,4.1.09.91.06,1.84-.09,2.75-.21,1.27,1.74,1.81,1.94.54,2.39-10.88-9.54-4.71-6.19-15.25.03-.32-.36-.39-.56-.23h0v-.02Z"/>
      <path d="m211.82,388.77c-1.84,2.34-1.72,6.55,1.22,7.99,1.17.59,2.66.74,3.43,1.92.72,1.11.75,2.53.66,3.8-.1,1.45,2.17,1.45,2.27,0,.91-9.66-9.16-4.41-6.84-13.41,0-.36-.5-.61-.75-.31h0Z"/>
      <path d="m210.69,397.37c-1.31,3.86.99,5.29,4.02,6.72.54.57.87,1.33.89,2.06.05,1.28,2.05,1.29,2,0,.09-3.41-3.11-4.21-5.42-5.48-1.06-.74.48-5.09-1.49-3.31h0Z"/>
      <path d="m109.62,397.63c-2.45,1.84-.89,4.5,1.35,5.44,1.44.74.14,3.15,1.86,3.35,1.73-.26.94-2.8.29-3.78-.77-1.24-2.28-1.68-3.15-2.56.12.16-.21-.34-.12-.19-.3-.62,1.05-2.26-.23-2.27h0Z"/>
      <path d="m67.64,397.62c-2.43,1.37-2.47,4.09.11,5.32.46.3,1.12,1.3,1.12,2.07,0,1.27,1.99,1.26,1.96,0-.05-1.83-1.5-3.45-2.89-4.22-.15-.1-.42-.41-.5-.47.07.11-.21-.33-.07-.13l-.02-.08c-.02.16,0-.12,0-.12-.01.11.04-.13.04-.13-.03.1.07-.16.06-.15.29-.51,1.29-2.11.16-2.09h.03Z"/>
      <path d="m171.29,143.56c-4.87,1.32-9.2-1.34-13.93-1.47-4.02,1.08-8.05-.55-11.82,1.58-1.46,1.54-11.82-1.38-9.26.93,4.01,1.05,8.27,1.06,12.03-.83,2.93-.8,5.84.42,8.74-.69,4.8-.16,9.44,2.45,14.36.91.28-.05.16-.48-.12-.43h0Z"/>
      <path d="m163.84,144.97c-5.75,1.48-11.96,1.57-17.79.54-2.51,2.34,17.84,1.15,17.79-.54h0Z"/>
      <path d="m191.77,28.98c1.09.67.4,5.3,1.31,4.14.53-.73-.57-5.92-1.31-4.14h0Z"/>
      <path d="m181.89,23.04c-.62.21-3.87,1.46-2.42,1.89.35-.61,3.82-1.36,2.42-1.89h0Z"/>
      <path d="m186.59,25.97c-.54.41-3.05,4.24-1.43,3.53-.16-.87,2.92-3.81,1.43-3.53h0Z"/>
      <path d="m189.09,28.21c.57,1.18-.33,2.52-.13,3.55,1.22.32,1.11-5.21.14-3.55h0Z"/>
      <path d="m183.99,23.65c-1.24.57-2,3.63-.36,1.21-.03.03,0-.02.02-.02.31-.31,1.5-1.43.35-1.18h0Z"/>
    </g>
    <g id="Haare">
      <path class="cls-9" d="m103.12,87.49c2.98,7.22.04,9.67-1.02,15.45-.13,3.25,1.52,3.93,1.02,6.77-.49,2.79-2.6,4.97-3.15,4.73-.43-.18.41-1.65.12-4.11-5.42-13.05,4.7-3.63-2.3-24.23,1.77.47,3.55.94,5.32,1.41v-.02Z"/>
      <path d="m103.58,30.22c-9.26,19.95-10.4,43.19-4.75,64.31.32,1.24,2.25.72,1.93-.53-6.47-20.54-2.35-45.3,2.83-63.78h-.01Z"/>
      <path d="m100.16,114.88c1.66-3.9-1.33-7.16-1.25-10.91,1.25-3.36,2.98-6.74,1.56-10.4-.3-1.03-1.92-.59-1.61.44,1.45,3.52-.61,6.65-1.37,9.97.2,3.72,3.57,6.8,2.11,10.74-.09.37.48.53.57.16h-.01Z"/>
      <path d="m100.03,115.06c4.99-3,2.3-7.45,2.47-11.9,1.15-1.31,4.92-19.19.81-14.77,1.59,6.78-3.67,13.1-1.26,19.66,1.91,3.78-3.67,7.07-2.01,7.01h-.01Z"/>
      <path d="m100.17,73.83c-1.17,19.99,6.07,16.91,17.71,5.57.68-.69-.38-1.75-1.06-1.06-3.71,3.57-7.97,7.8-13.09,8.91-2.81-3.57-2.43-9.05-3.12-13.41,0-.28-.45-.29-.45,0h0Z"/>
      <path class="cls-9" d="m209.67,84.56c-6.09-1.68-4.39-.22-4.69,4.44-3.95,6.56,1.64,11.6.18,19.89,2.55-3.18,2.18-7.87,2.04-12.25,1.07-4.2,2.6-6.54,2.47-12.09h0Z"/>
      <path d="m204.71,109.66c4.55-2.86,4.74-7.51,3.33-12.15.48-3.23,2.54-6.12,1.77-9.55-.13-1.07-1.63-.89-1.47.2,1.02,3.97-2.3,7.46-1.12,11.35.44,1.58.97,3.03.51,4.67.26,1.49-4.52,5.49-3.02,5.49h0Z"/>
      <path d="m204.85,109.49c2.6-5.12-1.12-9.95-.79-15.14.65-3.15,3.13-6.14.4-9.1-.64-.85-2.1,0-1.44.84.72.93,1.35,2.06,1.1,3.28-4.56,6.61,3.07,13.13.17,19.95-.12.36.45.52.57.16h-.01Z"/>
      <path d="m192.71,28.39c11.13,17.71,18.04,38.51,15.58,59.57-.05.98,1.47.98,1.52,0,1.73-20.63-4.82-44.35-17.1-59.57h0Z"/>
      <path d="m204.36,73.23c5.33,15.05-2.03,14.21-10.41,4.49-.88-1.16-2.5.06-1.6,1.23,3.15,4.49,16.51,12.89,15.07,1.8-.14-1.11-2.18-8.99-3.06-7.53h0Z"/>
    </g>
    <g id="Schatten">
      <path class="cls-11" d="m133.01,160.28c28.12,31.11,46.53-12.44,54.51,29.75,2.18-1.15,4.37-2.29,6.55-3.44-5.59-4.7-11.73-23.26-10.19-30.02-10.74,9.93-36.85,13.13-50.87,3.71Z"/>
      <path class="cls-11" d="m213.1,89.47c.01-2.25-1.47-4.21-3.59-3.39,2.68-10.62-7.34-47.12-13.34-52.36,2.84,4.22,12.31,34.82,6.19,51.42,3.23,1.96,2.73,4.41,1.28,8.34-1.05,3.87.07,3.57-.94,6.38-1.26,3.42-3.47,6.17-4.21,7.15-7.36,9.36-4.55,19.11-8.55,31.02-5.66,16.85-20.23,24.06-19.28,25.15,10.32.12,32.83-25.46,33.45-42.45,8.36-7.14,10.61-22.69,9-31.27h0Z"/>
      <path class="cls-11" d="m278.54,209.76c9.9,32.29,2.42,63.74,5.48,94.12-2.25-.18-4.49-.37-6.74-.55l.7,5.78c4.04-1.47,8.08-2.94,12.12-4.41-7.32-42.42,7.94-65.16-11.57-94.93h0Z"/>
      <path class="cls-11" d="m10.23,299.15c17.65,2.32,45.3,11.23,61.73,20.24.21,1.46-2.27,2.96-3.4,2.19-14.59-6.76-34.82-13.84-51.56-17.7-.2.48-.41.96-.61,1.45-1.96-.08-6.13-4.41-6.16-6.18Z"/>
      <path class="cls-11" d="m259.41,201.99c1.06.03,2.12.05,3.17.08-16.72,39.55-4.49,62.67-9.6,102.83-1.43.75-2.85,1.49-4.28,2.24,4.82-38.59-3.54-66.33,10.71-105.15Z"/>
      <path class="cls-11" d="m277.27,303.32c-8.35-.81-21.57,1.14-28.56,3.81-.24,1.33-.48,2.66-.72,3.99-.54.18-1.07.36-1.61.55-9.16,25.55-16.18,67.55-11.71,94.37,1.85-.1,3.71-.19,5.56-.29-2.48-24.94.78-66.05,9.24-94.01,7.42-3.33,21.16-4.92,27.89-3.91-.03-1.5-.06-3-.09-4.51h0Z"/>
      <path class="cls-11" d="m60.39,207.28c13.13,16.17,16.71,48.32,15.56,59.86,6.25-13.84-1.87-49.43-12.78-61.29-.92.48-1.85.96-2.78,1.43Z"/>
    </g>
  </g>
</svg>