<svg width="202" height="229" viewBox="0 0 202 229" fill="none" xmlns="http://www.w3.org/2000/svg">
<path d="M54.546 0.871216C54.2051 1.02618 53.2753 1.15015 52.4695 1.15015C51.6327 1.18114 50.9819 1.30511 50.9819 1.49106C50.9819 1.64602 50.641 1.80098 50.2071 1.80098C49.7732 1.80098 48.5645 2.14189 47.5108 2.54478C46.4261 2.94768 45.0004 3.38157 44.3186 3.50554C41.8083 3.93943 40.7545 4.83821 37.7483 9.20808C36.6326 10.8507 35.5789 12.2143 35.4239 12.2763C35.2999 12.3383 35.176 12.5862 35.176 12.8342C35.176 13.0821 35.052 13.268 34.866 13.268C34.7111 13.268 34.5561 13.423 34.5561 13.578C34.5561 13.9499 34.4631 14.0738 32.5416 16.2433C28.9156 20.3342 29.0705 19.9313 28.0168 29.8488C27.7379 32.3591 27.7689 33.5678 28.2028 36.5121C28.8226 40.9129 29.3495 42.7415 30.8681 46.0886C31.5499 47.5142 32.0768 48.9089 32.0768 49.2188C32.0768 49.4977 31.6429 50.1176 31.147 50.6134C28.6676 52.9998 29.3495 55.8511 33.6264 60.8408C34.5251 61.8635 35.5789 63.2582 36.0127 63.94C37.0045 65.4896 39.2669 68.5268 39.6698 68.8367C39.8248 68.9607 40.5376 69.2396 41.2194 69.4256C42.3661 69.7665 43.5128 70.7273 43.5438 71.3161C43.5438 71.4401 43.8847 72.0909 44.3186 72.7727C44.7525 73.4546 45.0934 74.1984 45.0934 74.4773C45.0934 74.7252 45.2484 74.9422 45.4033 74.9422C45.5893 74.9422 45.7133 75.2211 45.7133 75.531C45.7133 75.8719 45.9302 76.3368 46.1781 76.6158C46.4261 76.8637 46.643 77.2356 46.643 77.4215C46.643 77.6075 46.86 78.4443 47.1389 79.3121C47.7277 81.1096 47.6657 87.0601 47.0149 87.7109C46.829 87.8968 46.643 88.3307 46.643 88.6407C46.643 89.7254 44.9385 92.7316 43.3579 94.4362C41.6843 96.2337 38.895 98.1242 37.4074 98.4651C34.928 99.054 28.6056 104.323 26.3122 107.701C25.5064 108.909 24.4527 109.839 22.2213 111.327C20.5787 112.443 18.3163 114.147 17.2006 115.139C16.1159 116.131 13.9464 118.052 12.3968 119.416C10.6613 120.996 9.01868 122.794 8.05793 124.251C7.22114 125.552 6.07444 127.133 5.54757 127.815C4.02896 129.705 1.45663 134.881 0.681825 137.484C0.030992 139.778 0 140.366 0 152.267C0 166.059 0 166.028 2.3244 173.342C4.12194 178.982 4.61781 182.361 4.52484 188.28C4.46285 191.937 4.58682 193.766 4.92773 195.098C5.85749 198.724 6.66329 202.195 6.94222 203.714C7.09718 204.551 7.50007 206.658 7.84098 208.363C8.9567 213.817 9.42158 216.638 9.76249 219.83C9.94844 221.504 10.2894 223.673 10.5063 224.634C10.7542 225.563 11.1261 227.144 11.3121 228.105L11.6363 229H84C156.366 229 164 229 164 229C164 229 159.829 218.638 158 216.5C157 216 155.666 213.763 155.5 212.5C155.252 210.609 157 209.5 155.403 205.5C153.737 201.329 155.403 200.756 155.403 194C155.403 194 157.877 209 160.438 214.5C163 220 164 229 164 229H202C200.873 221.75 197.148 214 196 204C194.852 194 191.74 186.398 190.5 180.5C188.205 169.583 186.5 165.5 186 153.5C186 145 182.311 141.675 180.5 132.5C180.5 132.5 174.764 112.443 172.068 109.994C170.735 108.816 169.217 107.515 168.721 107.112C168.225 106.709 167.45 105.81 166.985 105.066C165.993 103.486 159.826 99.3329 154.185 96.3577C150.404 94.3742 133.855 89.0745 129.857 88.5787C128.679 88.4237 127.129 88.1448 126.448 87.9898C125.766 87.8349 124.712 87.6179 124.123 87.494C123.534 87.37 122.295 86.9361 121.396 86.5332C120.497 86.1303 119.505 85.7894 119.226 85.7894C118.916 85.7894 118.39 85.5724 118.049 85.3245C117.615 84.9836 116.468 84.8906 113.431 84.8596C110.425 84.8596 109.03 84.7357 107.945 84.3328C107.108 84.0538 106.458 83.6819 106.458 83.558C106.458 83.434 106.241 83.31 105.962 83.31C105.125 83.31 102.336 82.2873 100.569 81.3575C97.0361 79.436 93.7819 76.4298 90.9616 72.4938C89.567 70.5103 89.2881 69.8595 89.0401 68.1549C88.6062 65.2107 88.3893 61.0577 88.6062 59.8801C88.7922 59.0123 88.9471 58.8883 90.0319 58.7023C90.7137 58.6094 91.5195 58.2375 91.7984 57.8966C92.4802 57.1218 93.441 53.9916 93.441 52.5349C93.441 51.2643 94.2468 47.6692 94.7736 46.5225C94.9286 46.1506 95.0836 44.7869 95.1146 43.4853L95.1455 41.1299L93.9059 40.0452C93.224 39.4563 92.4183 38.7745 92.0773 38.4955C91.6125 38.0926 91.5505 37.6898 91.6434 36.4501C91.7364 35.5823 91.9844 34.8075 92.1703 34.6835C92.4492 34.4976 92.4492 33.5988 92.2013 30.9025C91.5505 24.1462 91.4265 23.5264 90.2178 22.2867C89.629 21.6669 88.6992 20.3342 88.1723 19.3115C87.6455 18.2887 86.7157 16.8941 86.1579 16.1813C85.569 15.4995 84.5773 14.0118 83.9574 12.9271C81.4781 8.68122 79.0297 6.54275 74.7528 4.90018C71.0957 3.50554 64.6494 1.3051 63.0068 0.902206C61.3332 0.49931 55.4448 0.468319 54.546 0.871216ZM45.3413 208.611C45.8372 209.479 47.6038 212.392 49.2773 215.026C51.0439 217.846 51.1369 219.035 51.1369 219.5C51.1369 219.934 51.7877 222.278 51.1369 223.363C50.517 224.448 49.8662 225.78 49.6802 226.369C49.3393 227.702 48.9674 227.702 48.1926 226.4C47.5418 225.347 47.3558 223.549 47.8827 223.239C48.0686 223.115 48.0686 222.774 47.8827 222.278C47.6967 221.844 47.5728 221.039 47.5728 220.481C47.5728 219.923 47.0769 218.311 46.4571 216.886C45.8062 215.398 45.0314 212.764 44.5975 210.594C44.1946 208.549 43.8537 206.813 43.8537 206.751C43.8537 206.317 44.5665 207.216 45.3413 208.611Z" fill="black"/>
</svg>
