<?xml version="1.0" encoding="UTF-8"?>
<svg id="Ebene_1" data-name="Ebene 1" xmlns="http://www.w3.org/2000/svg" xmlns:xlink="http://www.w3.org/1999/xlink" viewBox="0 0 183 162">
  <defs>
    <style>
      .cls-1 {
        fill: none;
      }

      .cls-2 {
        clip-path: url(#clippath);
      }

      .cls-3 {
        mask: url(#mask);
      }

      .cls-4 {
        fill: #f4efea;
      }

      .cls-5 {
        fill: #e9c3bb;
      }

      .cls-6 {
        fill: #fae6e1;
      }

      .cls-7 {
        fill: #334f2b;
      }

      .cls-8 {
        fill: #b26a15;
      }

      .cls-9 {
        fill: #dcd7d2;
      }

      .cls-10 {
        fill: #d9d9d9;
      }

      .cls-11 {
        fill: #e09531;
      }

      .cls-12 {
        fill: #111119;
      }

      .cls-13 {
        fill: #1d1d1b;
      }

      .cls-14 {
        fill: #443e3d;
      }

      .cls-15 {
        fill: #6d5333;
      }

      .cls-16 {
        opacity: .25;
      }

      .cls-17 {
        fill: url(#Unbenannter_Verlauf_2);
      }

      .cls-17, .cls-18 {
        isolation: isolate;
        opacity: .5;
      }

      .cls-18 {
        fill: url(#Unbenannter_Verlauf);
      }
    </style>
    <clipPath id="clippath">
      <rect class="cls-1" y="0" width="183" height="162"/>
    </clipPath>
    <mask id="mask" x="-38" y="-48" width="249" height="356.74" maskUnits="userSpaceOnUse">
      <g id="A">
        <path class="cls-10" d="m211-48H-38v209.77h249V-48Z"/>
      </g>
    </mask>
    <radialGradient id="Unbenannter_Verlauf" data-name="Unbenannter Verlauf" cx="-194.18" cy="475.73" fx="-194.18" fy="475.73" r=".99" gradientTransform="translate(3458.34 6251.27) scale(17.43 -13)" gradientUnits="userSpaceOnUse">
      <stop offset="0" stop-color="#f6c7c0"/>
      <stop offset=".12" stop-color="#f6c7c1" stop-opacity=".98"/>
      <stop offset=".25" stop-color="#f6cac4" stop-opacity=".93"/>
      <stop offset=".38" stop-color="#f7cfc9" stop-opacity=".85"/>
      <stop offset=".51" stop-color="#f8d6d1" stop-opacity=".73"/>
      <stop offset=".64" stop-color="#f9deda" stop-opacity=".58"/>
      <stop offset=".78" stop-color="#fbe9e6" stop-opacity=".39"/>
      <stop offset=".91" stop-color="#fdf5f4" stop-opacity=".17"/>
      <stop offset="1" stop-color="#fff" stop-opacity="0"/>
    </radialGradient>
    <radialGradient id="Unbenannter_Verlauf_2" data-name="Unbenannter Verlauf 2" cx="-193.94" cy="475.73" fx="-193.94" fy="475.73" r=".99" gradientTransform="translate(3414.22 6251.65) scale(17.08 -13)" gradientUnits="userSpaceOnUse">
      <stop offset="0" stop-color="#f6c7c0"/>
      <stop offset=".12" stop-color="#f6c7c1" stop-opacity=".98"/>
      <stop offset=".25" stop-color="#f6cac4" stop-opacity=".93"/>
      <stop offset=".38" stop-color="#f7cfc9" stop-opacity=".85"/>
      <stop offset=".51" stop-color="#f8d6d1" stop-opacity=".73"/>
      <stop offset=".64" stop-color="#f9deda" stop-opacity=".58"/>
      <stop offset=".78" stop-color="#fbe9e6" stop-opacity=".39"/>
      <stop offset=".91" stop-color="#fdf5f4" stop-opacity=".17"/>
      <stop offset="1" stop-color="#fff" stop-opacity="0"/>
    </radialGradient>
  </defs>
  <g class="cls-2">
    <g class="cls-3">
      <g>
        <path class="cls-6" d="m115.44,61.84c-.37-.73-1.06-1.24-1.83-1.5-.14-.29-.37-.52-.6-.75.41-.81.08-1.72-.56-2.31,1.3-1.76,1.94-4.15.26-5.8-.11-2.21,1.62-7.59-2.39-6.96-2.42.67-4.36-.89-6.42-1.84-4.17-.95-7.17-1-10.01,2.45-.47-4.54-9.84-5.41-8.44-.07.54,1.04-.1,1.94-.14,3.02l-.43.23c-.85-2.34-3.58-2.78-5.74-2.37-1.01-2.09-3.64-2.36-5.15-.83-2.75-1.26-6,.07-7.09,2.94-5.43-2.3-8.38,6.19-4.23,9.23-.36.84-.64,1.49-.67,2.33-1.25.74-1.78,2.45-1.26,3.76-.31.7-.3,1.42-.1,2.13-.68,1.12-.92,2.29-.39,3.51-.14.7.54,1.13.46,1.84-.32.44-.2,1.09.14,1.49.57,4.55-.65,10.62,3.03,14.03,1.26,1.3,1.36,3.28,3,4.24-.11.2-.19.41-.27.63h0c-1.73,2.1.94,3.94,1.05,5.91.37.82-.41,2.16-.44,3.07.04.03.1.05.14.08.05-.15.43-.32.55-.4-.25-.46.4-.71.76-.79.2-.45.92-.29,1.31-.29.55-.21.96.43,1.22.8.86-.58,1.56,2.51.4,2.04-.01.05-.04,1.13-.07,1.17.34.21-.1.84-.17,1.1-.68,2.38-1.29,5.06-1.27,7.68.07.34.45,3.39.65,3.61.31.7.96,2.13,1.3,2.81.01,0,.02,0,.03,0,.73-1.06,1.37,1.35,1.68,1.67.08.3,1.22,1.67.89,2,.02.05.15.27.15.32.47.63,2.39,4.36,1.21,4.64.09.41.8,1.34.15,1.55-.04.28-.1.72-.04,1,.41.26-.03,1.36,0,1.73l.07-.02c.02-.36,1.14-.66,1.37-.82-.23.4-.14.88,0,1.3-2.52,3.17,7.05,3.55,8.66,3.63.35,1.06,1.62.91,2.43.29.97.8,1.98-.35,2.69-1.04.41-.11.9-.25,1.13-.64.63-.09,1.27-.24,1.87-.57.66-.31,3.41-.6,3.61-1.49.16-.08.31-.18.46-.27,1.41-.12,5.09-2.38,3.23-3.96-.13-.23-.48-7.52-.87-7.46.05-.17.64-3.88.78-3.87h0l.7-1.7c1.13-1.29,1.6-3.16,2.29-4.73.8-.21.96-2.26,1.2-2.89.68-1.79.91-3.82,1.22-5.7-.3-.46-.57-.94-.76-1.45.96-2.42,1.27-6.28-.84-8.1,4.84-3.32,8.81-7.52,7.2-13.9-.05-3.33-.34-8.14.21-11.39,1.21.25,2.61-.42,2.57-2-.05-.07-.03-.12.06-.14.43-.65.34-1.5,0-2.15h0s0,0,0,0Zm-35.94-4.93c-.07.03-.12.07-.17.13.08.54.17,1.29-.58,1.32l-.07.15c-.73.2-1.9,1-2.5.24-.55.24-1.12.64-1.72.75-.55-.04-1.53-.15-2.04.12-.19-.02-.4-.06-.59-.04-.62-.27-1.28-.53-1.98-.67-.45-.86-.72-1.86-.81-2.84,3.48.14,6.97-2.84,10.47-.35.01.21.11.42.25.59-.14.17-.19.4-.26.62,0,0,0,0,0,0Zm2.27,47.43c-.22-.32-.6-.54-1.02-.59-.03-.21-.13-.41-.27-.57l.12-.17c.57.34,1.17.59,1.77.66l-.61.67s0,0,0,0Zm7.89,1.13l-.17.68c-.08,0-.16,0-.24,0-.1-.14-.22-.25-.36-.35-.02-.23-.1-.46-.23-.65.02-.04.04-.09.06-.13.35.19.8.22,1.13.04-.08.12-.14.25-.18.41Zm13.26-49.22c-.15.62-.27,1.43-.35,2.08-.5.07-1.01.2-1.43.46-.41,0-.82.06-1.23.01.13.48-.44.56-.8.51-.13.14-.49.09-.66.1-.02.04-.05.07-.07.11-.2-.17-.52-.04-.71-.2-.11.03-.34-.08-.46-.11-.66-.06-1.49-.52-2.16-.52-.2.1-.45,0-.65-.06v-.05c-1.57,0-2.06-2.02-.46-2.52,0-.16-.04-.31-.13-.43.09-.15.37-.5.42-.66l1.21-.62c1.12.41,3.49.72,4.67.62.89.43,2.15.36,3,.9-.11.09-.18.23-.19.37h0Z"/>
        <path class="cls-4" d="m129.65,267.69l-21.65-20.82c.01-.29-1.72-8.79-1.75-9.07,0-.01-.04-.3-.04-.3-.73-3.27-.16-7.16-1.57-10.19-.33-1.28.14-7.57-1.33-8.26-.94-4.6,2.47-16.39-.64-18.92.54-3.8.51-7.64-.14-11.39,4.24,1.41,2.78-6.78,3.36-8.78,1.74-6.87-2.3-12.67-1.59-19.45.78-.67.76-1.83.53-2.79,1.49-1.11,3.56-3.9,1.65-5.42,1.89-1.2,2.89-3.68.35-4.69.17-1.09-.42-2.33-1.54-2.52-.03-.12-.06-.25-.11-.36.77-.56,1.07-1.41.98-2.15,1.66-.81,1.94-3.42.23-4.13-.07-.34-.24-.67-.47-.95.35-1.03-.23-2.18-1.19-2.63-.02-.04-.03-.09-.04-.13.35-.38.47-.93.42-1.46,2.57-2.69-.14-7.66-3.22-4.09-3.76,2.32-7.47,4.87-11.86,6.01h0c-.54.19-1.19.53-1.4,1.03-3.32.06-6.61-.88-9.54-2.43-4.66-2.97-4.05,2.95-3.91,5.72-1.39.53-1.64,2.74-.39,3.6,2.36,6.54-4.99,14.5.13,20.25.19,1-.44,3.99.17,4.88.2,3.82.49,7.65.7,11.47-.44.75-.16,1.87-.02,2.69.09,1.24-.29,2.95.66,3.88l.1,1.29c-2,2.83-.54,7.18-1.38,10.45.25,3.56-1.75,14.32,1.89,15.79l.3,1.88c-.56,7.06-1.01,14.32-.69,21.45-1.37,1.81-.82,4.55-.84,6.69-.1,1.7-.1,10.12-.36,11.6-1.74,4.22-2.8,9.4-2,13.91l-1.4,5.12c-.17.98-1.3,3.44-.6,4.34-.88,1.43-1.07,3.09-.99,4.74l-1.64-.27c-2.95-4.6-6.44,2.75-1.85,3.99,8.01,1.72,16.11,2.13,24.25,2.84,5.79.22,28.3,4.8,28.86-3.27,3.36-1.72,2.71-7.1-1.3-4.71-1.6,1.91-3.6,3.13-5.79,3.88-.19-4.99.85-9.89-.15-14.91.4-4.15-1.66-8.44-2.29-12.57.66-.97.11-2.24-.01-3.3l16.13,15.51c1.98,1.9,5-1.11,3.01-3.02h0s0,0,0,0Z"/>
        <path class="cls-9" d="m104.41,132.75c.95-1.07.73-2.79-.64-3.4-1.86-1.18-4.03,1.12-4.96,2.57-.38.22-1.3.73-1.69.95-2.17.45-5.26.75-6.61,2.64-1.54-.14-3.11-.24-4.6.3-.73-.48-1.74-.75-2.5-.25-.89-.6-2.03-.87-3.09-.97-1.84-3.43-7.96-.02-4.53,2.83-3.86,9.87,32.95,2.05,28.63-4.66h0Z"/>
        <path class="cls-11" d="m77.07,134.87c-.22-.58-.6-1.03-1.07-1.38,1.26-5.99-.35-11.69-4.19-16.56-.17-.73-.96-2.83-1.49-3.37-.1-1.35-.46-2.78-.23-4.11,1.12-.16,1.33-1.94.31-2.35,1.24-2.3,2.37-6.29.32-8.34-.8-1.54-3.01-.56-2.51,1.07-1.47,4.58-1.5,9.7-2.08,14.43-.14.05-.3.04-.45.01.03-3.95-3.07-7.53-1.36-11.44.29-2.4-2.9-1.78-3.67-.24-.33-.06-.78.14-1.11.31-.39.08-.86.17-1.09.53-1.58-.52-3.15.06-4.2,1.17-1.92-.19-4.63-.57-6.14.91-6.7.6-13.44.49-18.27,5.94-4.24.36-5.88,5.51-9.15,7.74-11.25,12.28-12.29,29.38-12.02,45.22-.34,13.22-5.5,25.09-9.51,37.45,1.06,3.26,3.93,6.15,3.64,9.77.03.05.04.09.06.14.13.07.27.11.4.17-.15,2.38,1.7,4.73,4.13,4.75,1.25-.63,2.47-1.32,3.77-1.86.74-2.62,3.79-2.6,5.53-4.32.02,0,.04,0,.06,0,2.26-2.3,5.2-6.34,8.81-4.25,2.84-.45,5.73,1.42,8.19,2.73,2.43-10.34,1-21.94,6.06-31.47.49-.06.91.17,1.29.51.96,3.38.44,7.1,1.06,10.41-.57,3.79-1.24,7.97-3.01,11.39-1.44,3.29,1.84,5.74,3.34,8.29-.18.93-.08,1.93.32,2.72l-1.29,3.61c-3.06,2.4-1.63,7.02,0,9.89-.27,3.33-1.99,6.51-2.33,9.74-.37,1.82-2.72,6.67-1.63,8.42-3.59,10.87-5.98,22.34-7.38,33.77-.29,5.09-4.82,16.82,2.21,19.46,1.11,1.85,3.16,2.88,5.23,3.28,2.37,2.81,6.09,4.61,9.51,5.85.7.61,1.6,1,2.63,1.07.36.59,1.17.71,1.79.5.7.35,1.4.94,2.23.68,2.4.21,4.62,1.39,7.01.81.6.46,1.31.76,2.05.84,1.13-1.26,2.74-.99,4.35-.7.15-.14.28-.3.41-.47-.03-.5-.4-1.31.09-1.66.01-.03.04-.06.06-.09,0-1.38-.14-2.89-.07-4.39-.09-.1-.17-.21-.27-.31-.24-14.41,4.37-28.13,6.66-42.26,2.83-22.81,1.37-49.57.52-72.63,1.57-16.87-.81-34.51,2.47-51.36h0s0,0,0,0Zm-14.17,15.56c-.09,2.5-.21,5.21-1.25,7.53-.43.12-.78.38-.94.8-.33.06-.67.09-1.01.06.62,6.48.48,13.03,1.56,19.46.84,5.02-4.09,6.04-7.95,4.82-3.88,1.62-10.3.03-8.39-5.38-.48-5.67-1.73-11.34-1.49-17.04-.5-.42-.89-1-1.14-1.63-.06-.03-.1-.08-.15-.12-.36-1.66.12-3.8-.67-5.31.3-.62.81-.94,1.28-1.38,2.05-.64,4.27.91,6.11-.6,4.57.11,9.74-3.3,14.04-1.22h0,0Zm125.77,48.37c-.1-.04-.2-.11-.29-.16-.18-1.49-1.04-2.89-2.38-3.62-.06-1.42.63-2.82,1.83-3.68-.25-2.57-3.18-2.84-5.01-3.9.1-.33.16-.68.18-1.03-2.64-2.3-.85-5.63-4.58-7.73-.26-3.14-.93-6.3-1.71-9.36.41-4.12,1.26-8.55.33-12.69-.33-2.28,1.31-11.75-1.08-13.22-1.97-9.14-6.16-17.72-10.27-25.97,0,0-.01.01-.02.02-4.3-4.7-6.81-11.91-14-12.97-5.68-1.79-13.16-6.72-19.03-3.95-5.96-.09-11.57-.89-17.39-1.72-.37-.91-1.6-.66-2.35-.61-1.25-.19-2.47-.56-3.75-.45.13,1.2.23,2.41.25,3.61.06-.1.11-.2.16-.31.13,0,.25.01.38.02.06.16.26.89.34,1.03-.17,1.49-.62,3.08-.32,4.58-.18,1.17-.93,2.26-.93,3.44-.12.16-.25.31-.38.47-.68-.67-.47-1.56-.24-2.43-.68-1.86.08-4.21-.85-6.15-.58-.15-.56-.97-.8-1.44-.22.46-.09,1.02.28,1.37-1.17.64-1.12,3.81-1.56,4.89-2.95,5.63-4.01,12.57-3.38,18.84-1.4,1.97.42,5.3,1.31,7.23.29,8.25,2.76,16.18,2.49,24.39,0,0-1.14,26.37-1.14,26.37-2.57,19.03.44,38.82,3.34,57.65,3.59,13.87,6.76,27.96,7.35,42.45-1.25,6.14-.05,12.25-.05,18.45.15.47.55,3.43.9,3.87.41-.26.92-.47,1.43-.6,5.35-3.8,12.37-5.78,18.52-8.1,1.36.08,2.8-.48,3.83-1.98,1.23-1.36,4.03-1.69,5.28-3.25,1.27-.33,2.44-1.02,3.15-1.88,1-.32,1.88-.98,2.48-1.86.31-2.18-.27-4.49-.33-6.66-.15-.12-.31-.25-.48-.35-1.03-8.02-3.46-28.7-8.79-33.67-1.97-5.29-2.93-10.9-3.59-16.48.14-1.89,1.88-7.82.97-9.53.97-5.26,2.26-10.87,2.05-16.25-.52-9.07-7.08-19.17-.15-27.33.65-.89.81-1.84.63-2.74.58-1.66,1.02-3.37,1.39-5.09,1.1,2.12,1.75,4.38,2.17,6.72-.33,1.77.21,4.09.85,5.75.63,9.36,2.1,18.69,6.36,27.22.78,3.21,1.1,8.16,5.13,8.68,7.36-6.4,18.36-7.56,25.49-13.92.23-.1.45-.23.66-.37,3.15,1.11,6.11-2.01,5.3-5.63h0Zm-50.19-43.14c-.04.12-.1.22-.16.33.21,1.46-.52,3.01-1.72,4-.12.45-.12.93-.15,1.41,0,0-.02,0-.02,0-1,4.37-1.33,8.87-1.34,13.38,1.53,2.73-.52,6.67-3.76,6.49-5.36-1.74-18.67,3.62-17.2-5.77-.22-.02-.44-.03-.67-.02l.54-9.39c.13.1.27.18.42.26.02-.6.14-1.12.32-1.58-1.16-2.52.08-5.42.12-8.07-4.83-3.9-1.37-10.49,4.4-8.02,1.79-.5,3.85.05,5.66.37,2.37-.62,5.87.03,8.08.67,3.72-1.95,7.24,2.61,5.49,5.95h0Z"/>
        <path class="cls-8" d="m62.39,150.83c-.14-1.3-1.65-1.65-2.32-.67-1.09-.06-2.35.43-3.38.82-.89-.35-2.34-.08-2.78.83-1.42-.27-3.08.6-4.62.65-1.39.1-2.87-.13-4.21.33-1.97-2.58-6.58,1.88-2.89,3.11.18.38.06,1.15.16,1.55-.15.51-.12,1.07.14,1.52-.02.52.31,1.02.77,1.25-.12,3.12.41,6.82.51,9.94.81,4.25-.95,14.93,6.23,13.12.63.35,1.44.45,2.13.21.87.62,2.46.3,3.13-.53.95.44,2.12.48,2.91-.14.93.25,2.49.06,2.45-1.21-.7-7.75-.95-15.65-1.21-23.43,1.99.05,2.19-2.16,2.13-3.69.67-1.1,1-2.35.85-3.67h0s0,0,0,0Zm75.39,3.79c.1-.44.11-1.33,0-1.77.04-.07.27-.38.04-.1,1.11-1.15-.44-2.72-1.71-2.07-.68-1.02-2.15-.52-3.18-.52-.68-.78-1.64-.79-2.49-.52-.32-.97-3.81-1.46-4.65-1.23-.5-.06-1.23-.24-1.61.2-1.01-.15-4-2.07-4.44-.26-.89-.49-2.13-.57-2.91.14-5-1.54-5.11,7.15-1.48,8.49,0,0-.01,0-.01.02-.52.15-.88.62-.9,1.16.05.53-.43,3.77-.01,4.16.03,1.16.15,3.6.28,4.74-.33,1.69-.59,3.35-.35,5.07-.42.3-.61.9-.5,1.39.5,1.76-1.22,4.01.6,5.32,2.59,2.53,8.3,1.5,11.85,1.91,1.42,1.21,7.76,1.19,8.1-.98-.1-2.21-.11-7.32.58-9.4,1.05-.36.68-4.22.91-5.03.5-2.29.86-4.6,1.13-6.93,1.01-.78,1.6-2.68.74-3.78h0s0,0,0,0Zm-31-53.64c.04.6.4,1.11.62,1.64.1,1.58.34,3.77.27,5.38.11.48.52,1.11.55,1.6.06.27.3.45.54.56l.13-.02c.33-.67.35-2.31.76-2.8.05-.5.1-1.02.28-1.49.05-.23-.09-1.3.17-1.43-.01-.22-.08-.84-.11-1.06.29-.49.03-1.09-.16-1.6-.06-.57.07-1.37-.41-1.79-.18-1.73-.26-3.52-.75-5.19.24-.37.21-.82.07-1.22.1-.4-.02-.82-.11-1.2-.27-.19-.66-1.25-.66-1.57l-.07-.22c-.74-.49-1.89.08-1.93.97-.03.04-.04.09-.06.13-1.39,1.01-.15,2.9.02,4.21-.09.11-.11.25-.19.36.17,1.12-.42,2.51.5,3.37-.05.53.19,1,.53,1.39h0s0,0,0,0h0Zm-38.95-4.25c0-.9-.08-1.74-.45-2.59.02-.07,0-.15.01-.23-.82-.94-1.04-2.29-.66-3.45-.11-.27-1.79-1.5-2.04-1.71-.02,2.89-2.33,8.93-.58,11.21-.02.11-.04.27-.04.38-.94.58-.88,2.02.03,2.57.02.03.18,7,.23,7.02.1.52.99,2.5,1.02,2.95l.44,1.35c.18,0,.35-.02.51-.08.11-3.44.67-7.09.35-10.57.62-1.36.67-3.05.9-4.61.46-.6.13-1.53.28-2.24,0,0,0,0,0,0Z"/>
        <path class="cls-15" d="m125.88,45.37c-.6-.74-2.04-.83-2.76-.22-.25-.19-.51-.37-.79-.54-.35-.7-.33-1.57-.99-2.1-1.39-4.26-1.36-14.15-4.52-16.55-.69-1.38-2.03-2.46-3.53-2.7.67-3.89.29-11.4-4.73-11.77-2.95-3.1-8.15-3.63-11.71-1.35-1.61-2.75-5.22-3.73-8.01-2.18-1.39-1.35-3.35-.99-5.07-.89-1.55-.59-3.68.67-5.1,1.45-4.58-2.35-13.4,2.25-14.61,6.95-2.25,2.85-3.97,6.58-3.69,10.26-5.88,3.26-7.87,10.27-6.33,16.63l-.09.54c-5.26.07-11.75,7.91-6.02,11.78.47.86,1.38,1.44,2.37,1.67-.84,3.03-1.16,6.43,1.78,8.42-1.68,2.12-.6,6.36,2.56,6.13.04.02.08.03.12.05.13,8.07,8.36,9.17,5.83,3.48-.86-.77-1.36-1.87-1.43-3.01.67-.92.26-2.13.27-3.19,1.17-.1,2.07-.99,2.81-1.81,2.44-1.87-.76-5.05.21-7.7,2.25-3.06,1.98-7.42.77-10.97,3.26,1.87,8.33,2.34,10.52-1.35.75.5,1.62.75,2.52.86,1.1.97,2.58,1.1,3.93.7,1.18.83,2.6,1.4,3.97,1.83.99.97,2.64.74,3.81.25-.01-.02-.02-.04-.04-.07.73-.52,1.02-1.55.71-2.38-.45-.15-1.12-.36-1.09-.93-.15-.21-.25-.45-.3-.7-.05,0-.1,0-.15,0,0-.05,0-.11,0-.16-.04-.02-.07-.06-.11-.08.04-.44-.08-1.07-.35-1.43.09-.13.2-.26.29-.39.77-.31,1.52-.64,2.27-.97,1.98,5.07,9.21,2.2,12.07-.61.65,3.99,5.25,6.07,8.79,4.25-.55,2.83-.58,6.57,2.1,8.4-2.43,2.2-1.47,6.79.71,8.79,0,2.18,0,5.16.28,7.32-.66,3.77,1.41,5.92,4.54,2.94.12-.69-.23-1.53-.21-2.23.19-.99.58-1.93.56-2.96,3.53-.46,4.62-4.15,2.94-6.98,2.64-2.23,2.82-5.23.76-7.95,3.5-.63,6.5-5.42,4.13-8.53,0,0,0,0,0,0Z"/>
        <path class="cls-6" d="m89.76,147.09c1.35-.67,1.41-2.85.1-3.6-.3-1.08-.2-2.98-1.44-3.5.16-1.85-2.36-2.89-3.6-1.53-2.65,3.23-.7,7.56.76,10.89,1.2,3.65,7.28.54,4.17-2.26h0Z"/>
        <path class="cls-14" d="m89.57,155.96c1.39.75,2.91-.45,4.06-1.16,1.25-.21,2.48-1.29,2.9-2.56,2.84-3.18,3.27-8.82.9-12.36-1.36-1.26-2.73-4.04-4.93-3.02-1.04-.19-1.8-1.1-2.85-1.11-.22.03-2.35.31-2.5.34-1.46-1.85-4.8-.46-4.21,1.93.17,2.97-.5,6.02.49,8.95.1.37.4,4.46.63,4.81-1.36,2.41-.36,5-.45,7.59-.3,1.76-1.26,3.54-.53,5.32-.9,3.02-.96,6.15-1.4,9.24-.06.38-.16.89,0,1.25.01.8-.63,3.34,0,4.01.04,1.73,2.68,1.15,3.5.28.26,0,1.55-.27,1.83-.32,1.87.76,4.73.14,6.5-.93,7.61-2.61,4.08-14.35-1.93-16.83-1.24-.6-3.13-.49-3.72-2.05.09-.82.05-1.63-.08-2.45.62-.27,1.17-.68,1.79-.94h0s0,0,0,0Z"/>
        <path class="cls-7" d="m76.47,56.54c-.8-2.4-4.11-.92-3.49,1.24.74,2.51,4.06.99,3.49-1.24h0s0,0,0,0Zm23.17.05c.04-1.52-1.85-2.62-3-1.43-.57.77-.99,1.99-.51,2.9,1.08,1.8,3.69.39,3.51-1.46,0,0,0,0,0,0Z"/>
        <path class="cls-5" d="m92.56,86.89c-1.52-.38-3.08.3-4.55.4-1.45-.15-2.89-.47-4.36-.27-.73-.29-1.53-.59-2.3-.33-.83-.34-1.91.37-2.1,1.19-.44,2.27,2.55,2.64,4.19,2.57,2.68.02,5.39.86,7.98-.17,2.23.33,3.46-2.51,1.14-3.39h0Z"/>
        <g class="cls-16">
          <path class="cls-12" d="m112.73,30.06s0,0,0,0c0,0,0,0,0,0Z"/>
          <path class="cls-12" d="m136.99,99.92c-3.8,0-7.89-.28-11.7-.46-.65.21-1.43-.03-2.12-.06-2.4.31-5.03-.62-7.43-1.08-1.77-.14-3.98-.58-5.76-.59-.02-.05-.02-.09-.02-.14-.46-.59-.32-1.74-.43-2.5l-.69-2.51c-.63-.15-.76-1.31-.69-1.86-.11-.16-.23-.3-.38-.43l2.62-2.5c.59-1.39,1.52-2.97,2.37-4.26.23-.39.38-.83.52-1.25-.16-.95.55-2.15-.34-2.95l.24-2.03c.05.05.1.1.15.14.02-.47-.09-1.23.4-1.44-.81-.16-.54-1.06.22-.92.89.98,2.67.45,2.88-.85.06,0,.11,0,.17,0,.08-.04.19-.11.28-.11.28-.59.55-1.2.95-1.71,0-.67-.41-1.55-.12-2.17,0-.25.05-.55.35-.57.11-.1.27-.13.42-.09.02-.04.07-.05.1-.07.24-.42.57-1.17,1.15-1,.65-.32,1.15-.81,1.76-1.2.25-1.17.47-2.57.39-3.77-.28-.35-.13-.87-.14-1.3-1.25-.54,1.3-2.21,1.5-3.06l-.32-1.72c-.05-.06-.17-.17-.23-.21-.01-.03-.02-.07-.03-.1.07-.06.12-.13.19-.19.01-.31-.24-.89-.17-1.17-.03-.05-.04-.1-.05-.16-.15-.08-.25-.24-.22-.42-.65-.44.27-.93.59-1.18,1.11-.77,2.22-1.67,3.38-2.42,1.1-1.52.51-3.92.28-5.63-.29-.65-1.39-.81-1.51-1.5-2.08-.24-3.98-1.81-4.15-4.01-.24-1.33-1.23-3.29-.6-4.48.06-1.53-.59-4-.51-5.3-.16-.68-.67-1.33-.62-2.1-.09-.17-1.63-3.23-1.68-3.24-.09-.16-3.32-2.45-3.13-2.69-.12-.11-.43-.3-.42-.48-.01,0-.01-.02-.02-.03-1.35-.27-3.01-.79-4.35-.32-.03.04-.07.08-.12.1-.98.82-2.69,1.09-3.61,2.21-2.18,3.48,1.94,5.8,4.92,4.99,2.18.53,2.38,3.38,2.6,4.8.47,3.51,1.55,7.65-.65,10.73-.54.93-1.21,2.04-2.27,2.42.03-.24.08-.48.15-.72-.45.21-1.07.35-1.55.13l-.43.11c-.67,1.2-3.44.74-3.99-.44-1.21-.07-1.9-1.19-2.62-2.02-.52-.41-1.22-.95-1.27-1.68-2.25,2.73-6.84,4.06-9.86,1.91-.95.43-1.98-1.03-2.41-1.77l-1.42.71-.17.55c.17.22,0,.46-.13.67.01.44-.1,1.26-.71.93.12.54.49.96.84,1.36,9.73,6.83,21.79-6.57,21.85,18.36,1.52,24.95-5.14,21.85-21.16,37.96-.1.75.21,1.48.49,2.16.04-.05.1-.09.17-.12.42-.61,1.45-.16,2.04-.01.54-.12,1.09-.18,1.64-.21.04-.07.09-.14.12-.22.13-.07.26-.14.38-.23.71.5,1.58.76,2.43.59,4.96-.39,5.01,6.95,7.32,10.05.08-.53.18-1.03.38-1.53.03,1.01,18.39-3.24,19.12-3.21,5.62-.77,17.7-2.19,14.91-10.48h0s0,0,0,0Z"/>
        </g>
        <path class="cls-18" d="m73.39,80.11c22.82-.11,22.82-25.89,0-26-22.82.11-22.82,25.89,0,26Z"/>
        <path class="cls-17" d="m101.65,80.48c22.37-.11,22.36-25.89,0-26-22.37.11-22.37,25.89,0,26Z"/>
        <path class="cls-13" d="m62.51,101.11c-7.83,3.39-16.69,2.68-24.77,5.18-15,4.65-25.22,18.78-28.59,33.69-3.33,15.42-.38,31.56-5.96,46.65,0,0-1.82,6.61-1.82,6.61l-.94,3.24c-.16.53.65.74.82.23,14.49-31.3-3.46-71.23,34.79-88.55,8.66-3.4,18.38-2.47,26.9-6.3.5-.22.07-.94-.43-.73Zm6.95-2.67c5.94,3.39-1.85,10.6.84,15.54,5.85,8.13,7.16,17.18,5.1,26.93-1.07,10.75-1.25,21.57-1.09,32.37.43,25.44,2.97,61.67-1.25,86.6-2.17,13.94-6.68,27.75-6.33,41.99.04,1.7.17,3.39.4,5.07.06.45.79.34.79-.11-.51-14.67,3.46-28.87,6.08-43.17,5.15-28.87,2.17-58.25,1.52-87.35-.43-14.51.21-29.01,1.8-43.42,1.76-8.29-4.61-14.16-6.67-21.41-.18-4.53,5.05-11.16-.96-13.86-.52-.17-.75.65-.23.82h0Zm35.65.67c3.23,5.43-3.26,10.83-3.64,16.36-2.14,12.78,3.36,25.24,3.26,38.02.12,7.01-.48,14-.95,20.99-2.11,27.19-1.07,54.78,6.74,81.06,4.87,15.04,1.71,30.9,4.36,46.16,1.79,2.64.08-10.8.4-10.56,1.02-17.39-2.35-34.21-6.97-50.87-4.44-20.42-4.54-41.49-3.33-62.27,1-13.7,2.05-27.53-.91-41.07-1.18-6.23-2.57-12.57-1.96-18.95-.48-6.63,7.79-13.23,3.42-19.28-.27-.27-.64.13-.41.41h0Zm51.56,7.7c31.44,33.47,11.64,59.93,24.69,77.07.64.66,1.64-.34,1-1-7.96-9.14-2.91-22.17-4.79-33.06-1.65-15.11-9.06-35.54-20.91-43h0Z"/>
        <path class="cls-13" d="m27.19,112.94c-5.23,2.49-.02,26.25,1.66,31.76.07,1.38,5.59,14.16,3.46,6.73-4.01-11.94-8.17-26.2-5.13-38.49h0Zm127.35-5.71c-1.42,5.5-2.73,14.25-4.14,19.88-2.27,10.45-5.76,20.57-8.83,30.8-.09.36.45.62.62.26,5.85-14.46,9.46-29.89,12.22-45.22-.07-.94,1.61-6.17.13-5.71h0s0,0,0,0Zm-70.91,28c-3.2,4.19-.63,13.26-.54,18.22,1.29,5.28-6.06,26.13-.41,27.36-2.05-4.95-.13-12.11.76-17.85,2.14-9.17-1.27-18.76.19-27.73h0Zm3.15.91c16.31-.64,15.83,18.73.4,20.48-.77.28-1.15,2.77-.05,1.82.19-.52.86-1.04,1.36-1.25,17.08-.86,13.72-26.21-1.71-21.05h0Z"/>
        <path class="cls-13" d="m87.87,159.22c.01,1.12,1.12,1.47,2.01,1.77,11.95,4.9,9.85,20.47-4.35,18.2-2.41-.27-4.56,4-1.02,1.63,7.31-.05,16.76-2.2,14.04-11.85-1.14-5.45-5.59-7.94-10.11-9.82-.11-.3-.58-.27-.57.08Zm-3.44-24.42c-.16-.14-.37-.14-.57-.14l.14.04c-.4-.29-.89.25-.46.57.79.58,1.97.57,2.86.22l-.6-.46c0,.12.03.25.07.37,0,.09.06.44.14.49.27.65.89-.14.72-.49.28-1.56-1.43-.34-2.19-.62-.09-.02-.55-.12-.72-.14v.67c.11-.04.18-.08.25-.16l-.12.07c.18-.07.57-.18.5-.41Zm5.97.32c2.97-.19,5.93-1.69,8.48-3.19.63-.55,2.11-1.08,2.31-1.97,0-1.03-1.25-.35-1.65.07-1.86,1.42-4.42,2.68-6.59,3.57-.49.39-3.45.61-2.54,1.52h0Zm7.24,4.67l.07-.02-.22-.03c.76.22,1.54-.49,2.23-.76.55-.41,1.63-.75,1.91-1.42l-.11.19c.56-.34-.04-1.08-.53-.68l.33-.04c-.71-.04-1.46.79-2.08,1.07-.52.41-1.61.69-1.89,1.31l.13-.17c-.31.14-.2.64.16.55h0Z"/>
        <path class="cls-13" d="m83.44,135.14c-1.46-.55-3.09-1.65-4.65-1.77h.24c-2.04.31,1.12,1.6,1.74,1.73.49.2,4.07,1.69,2.67.04h0Zm-.65,6.12c-.69-.04-1.42.06-2.11,0-.99.16-2.29-1.05-3.05-.24-.53,1.75,7,1.78,5.16.25Zm29.81,8.04c-2.38,10.56,8.36,11,16.06,10.39,5.91-.17,11.24,3.14,10.45-5.87-.09-5.89-1.85-1.1-1.32,1.64.52,3.17-1.73,4.12-4.45,3.19-4.24-.75-8.52.31-12.78-.28-7.7-.88-6.9-2.88-7.41-9.3-.17-.33-.6-.08-.55.23h0s0,0,0,0Z"/>
        <path class="cls-13" d="m114.32,149.07c2.29-1.52,9.05.13,11.86.06,3.66.32,9.1,1.72,12.66,2.01,4.22-2.4-28.16-5.17-24.52-2.07h0s0,0,0,0Zm.03,11.36c-.58,3.62-.81,8.99-1.1,12.69-.12,2.98-1.11,8.44,3.51,8.01,18.62.09,18.57,5.95,19.11-11.71.27-2.42.63-4.11,1.1-7.07-2.09-2.57-2.26,10-2.6,11.31-.24,2.79,1.05,8.14-3.54,7.14,0,0-11.85-.67-11.85-.67-1.2-.26-4.14.37-4.57-1.28-.54-3.75.09-7.83.18-11.61-.17-.02,1.33-8.84-.25-6.81h0Zm12.81-6.32s-.11-.05-.15-.07l.11.14c0-.19-.37-.3-.35-.27-1.35-.12-2.05,2.01-.97,2.81,2.34,1.79,4.55-2.05,2.24-3.53-1.29-.19-1.78,2.56.1.74h-.67c.07.09.22.2.27.3l-.04-.05c.09.12.18.26.24.41-.05-.15.12.33.1.4,0-.22-.01.53,0,.31-.02.11-.05.24-.1.35.08-.19-.09.2-.13.2l.04-.05s-.26.25-.14.15c-.24.14-.2.14-.42.2-.03.01-.34.07-.13.03-.12,0-.26.02-.38,0,.11,0,.06,0,0,0-.32-.09-.34-.09-.55-.32.05.08-.03-.06-.06-.11-.05-.09.03.1,0,0-.02-.04-.03-.13-.04-.17.02.21.01-.33,0-.14,0-.03.12-.4.06-.24.02-.1.11-.2.16-.28v.02s.24-.25.13-.15c.05-.04.2-.13.26-.16-.14.06.12-.04.15-.1-.02.02-.04.03-.07.04.14-.03.24-.14.28-.27l-.16.16c.2,0,.42-.2.2-.36h0s0,0,0,0Zm-86.24-.52c-.25,2.06.91,5.16,1.14,7.23,4.7,1.02,10.6-.97,15.59-1.54,3.62-.36,5.12-1.52,5.04-5.32-.07-1.47,1.66-5.54-1.18-5.01-6.04,1.57-12.24,2.39-18.46,2.83-2.7,3.02,17.35-1.15,18.9-1.78-.23,2.14-.38,4.73-.93,6.84-5.36,2.69-12.41,2.37-18.42,3.27l.55.42c-.55-1.14-.93-7.28-2.24-6.93h0Zm2.17,9.05c-.88,1.7.37,19.9,2.14,20.68,3.8,2.21,8.64.2,12.78.51,5.57,1.52,2.57-7.22,2.98-10.01-.16-3.61-.6-10.9-.89-14.5-2-1.83-.08,10.85-.36,12.07.08,1.96.38,6.99.46,8.89.38,2.54-.13,2.78-2.57,2.41-3.12-.17-7.75,1.03-10.82.19-2.79-.55-2.25-11.29-2.87-13.89-.26-.93.12-6.45-.84-6.36h0s0,0,0,0Zm28.63-23.22c-1.56-2.02-3.66,3.53-.87,3.66,2.68.44,1.8-4.1.87-2.21,0,.2.08.24.1.4-.01-.08.02.25,0,.3.03-.15-.04.19-.06.2-.04.09-.12.24-.26.35.09-.06-.12.08-.14.08.06-.03-.11.04-.16.04h.02s-.3,0-.18,0c-.09-.02-.18-.04-.27-.07.1.05-.19-.1-.2-.12.03.03-.2-.19-.14-.13-.03-.03-.1-.17-.12-.2-.19-.72.43-1.81,1.07-2.09-.08.05.09-.04,0,0,.09-.05.15-.09.22-.16l-.16.02c.1.11.35.14.27-.07h0,0Zm-7.89-48.03c-1.74,4.51,1.81,37.58,3.04,17.38-.49-5.1,3.4-10.52.68-15.21-.3-.46-1.04-.03-.74.43,2.06,2.91.12,6.2-.32,9.28-.45,3.92-.68,7.89-1.02,11.82l.84-.11c-2.39-7.65-2.4-15.67-1.63-23.58.05-.55-.8-.54-.85,0,0,0,0,0,0,0Zm41.3,2.75l.19,2.74c0,.55.86.55.85,0-.1-.39.05-4.58-1.05-2.74Zm.13,5.96c2.93.95,1.65,12.08,3.87,10.12.14-.51.14-2.48-.81-1.61-.3.56-.09,2.85.79,1.72,1.81-6.19,1.05-12.84-.61-18.98-.14-.53-.97-.3-.82.23,1.62,5.99,2.38,12.48.61,18.53l.84.11c-.05-.17.03-1.66-.07-1.18l-.58.15h0s-.2-.25-.2-.25c.08.24.02.92,0,1.28l.79-.21c-1.49-3.44.04-7.85-3.21-10.51-.42-.35-1.03.25-.6.6,0,0,0,0,0,0Zm7.22-1.93c4.25,1.74,11.88,1.72,16.48,2.36,7.59.18,17.49.18,23.49,5.36.2.39.78.11.69-.29-4.46-6.43-14.9-5.99-22.08-6.21-3.17-.14-10.69-.58-13.76-1.02-1.24.04-3.85-.95-4.81-.2,0,0,0,0,0,0Zm-82.33,48.71s.01,0,.02.01c-.02-.01,0,0,0,0,0,.03,0,.03,0,.07.02-.03-.02.03-.02.04.02-.03-.03.04-.02.02l.13.02c-.05-.06-.13-.08-.2-.07h.05s-.04,0-.05,0l.05.02s-.05-.02-.07-.04l.05.04s-.05-.05-.08-.08l.04.05v-.02s.01.06.01.06h0s0,.06,0,.06c0-.13-.1-.23-.14-.35l.03.07c-.46-.85-.99.37-.15.53h-.07s0,0,0,0l-.06-.02c.19.16.68.17.59-.18v.08c.3-.2-.23-.68-.13-.28h0s0,0,0,0Zm76.27-38.7c.06,0,.06-.09,0-.09s-.06.09,0,.09Zm-87.27,39.17s.01-.02,0-.02-.01.02,0,.02Zm129.03-7.21c2.23-.77,14.27-5.29,12.93-7.13-2.19,1.02-4.25,2.33-6.42,3.4.03.25-9.29,3.24-6.51,3.73h0Zm-.6,1.39c1.57,1.4,3.93,2.49,5.8,3.49,2.93.72-1.43-2-2.07-2.22-.55-.16-3.95-2.6-3.73-1.27h0s0,0,0,0Zm-127.1,19.49c3.85,1.39,8.46,1.34,12.54,1.36,5.92-.6-2.62,2.67-3.85,3.44-2.93,1.15-4.36,3.22-.09,1.11,1.35-1.05,9.24-3.05,6.42-5.43-2.75-.26-5.67.2-8.46-.15-.75.14-6.99-1.24-6.56-.32h0Zm38.34-96.17c.42,11.23.5,22.09,10.2,29.57,4.9,4.38,10.33,12.4,17.78,10.62.63-.23.38-1.1-.27-1-10.03.05-16.3-11-22.72-17.43-4.13-6.29-2.47-14.64-4.13-21.76-.07-.53-.89-.56-.85,0Zm53.85.36c-.9,2.5-.18,7.25-.41,9.96-.18,2.81.56,7.26-1.01,9.74-3.58,4.56-10.27,10.54-14.35,14.78-2.25,2.18-4.76,5.16-8.16,5.21-.84.01-.84,1.28,0,1.3,3.06.07,5.51-2.17,7.56-4.16,2.58-2.57,9.14-9.03,11.55-11.58,4.27-3.59,6.46-7.74,5.63-13.4-.05-2.04-.1-7.28-.22-9.26-.08-.78.19-2.27-.6-2.59,0,0,0,0,0,0Zm-15.68,40.27c.07,5.33-3.92,9.63-5.19,14.58.63.88,1.91-2.98,2.44-3.44,1.36-3.06,4.65-8.16,2.75-11.14Zm-19.41,1.37c-.48,2.06,4.61,16.66,6.47,13.34-3.38-3.53-4.83-8.77-6.01-13.4-.06-.25-.48-.21-.46.06Zm-2.86-20.17c1.99,1.71,6.49.69,8.93.83,2.49.31,4.79.96,7.17-.19,2.34-.36,5.45,1.03,7.22-1.15.22-.31-.2-.62-.48-.48-2.78,1.48-6.03-.61-8.86.93-3.82-.17-7.64-.33-11.52.1-.69.15-2.4-1.06-2.46-.02Zm6.87,3.51c.75,1.48,4.1.87,5.42,1.16,1.62.08,3.77.25,4.82-1.28.27-.4-.3-.74-.62-.48-1.91,1.42-4.91.56-7.13.71-.62.3-2.56-.78-2.48-.1Zm.47-21.21c-4.13.97-1.85,9.08-.96,5.71-1.13-1.79-.21-3.95,1.27-5.17.15.09.19-.67-.31-.54Zm8.91.03c-.68,1.13,2.66,2.28,1.62,4.84-.35,1.84,1.48.78,1.22-.5.15-1.71-1.07-4.2-2.84-4.34,0,0,0,0,0,0Z"/>
        <path class="cls-13" d="m81.34,75.7c1.46-1.99,3.24,1.32,4.97,1.13,1.89.24,4.02-3.93,5.44-1.37.1.32.63.37.7,0,.22-1.18-1.2-1.86-2.2-1.67-1.48.29-2.27,1.95-3.74,2.17-1.33.19-2.23-1.33-3.49-1.55-.84-.14-2.1.1-2.14,1.16,0,.24.35.35.46.12Zm4.25,2.77c-.33.93-.06,3.37-.17,4.56.6,1.2,3.25-.77,1.6-1.51-.11-.02-.24.1-.16.21.35.67-.56,1.02-1.1.96l.34.34c-.23-.7.45-4.69-.52-4.78-.44.16.18.58,0,.21Zm-1-20.26c0,1.21.05,2.94-.07,4.17.19,1.05-1.33,3.8-.24,4.09.96-.78,1.92-9.38.31-8.26Zm6.92.63c2.3-5.76,8.55-2.4,12.94-1.94,1.8-1.16-3.78-1.52-4.42-1.85-3.37-1.21-8.2-.51-9.03,3.58-.05.29.36.52.51.22Zm14.48-2.97c.06,0,.06-.09,0-.09s-.06.09,0,.09Z"/>
        <path class="cls-13" d="m96.97,54.88c-.13,0-.25,0-.38.03l.17.02c-.95-.32-1.45,1.14-1.51,1.88-.34,3.21,4.65,3.24,4.85.25.13-2.89-3.97-1.98-1.87-1.06-.1.01.04,0,.05,0,.13-.01-.09-.02.03,0l.24.06c-.11-.03.07.04.1.06.11.06-.06-.06.03.02.02.01.24.27.16.16.03.03.19.34.14.24.04.06.11.42.09.31,0,.07,0,.21,0,.27-.02.08-.09.38-.26.58.1-.13-.08.1-.1.1,0,.02-.31.26-.16.15-.23.21-.79.37-.88.37-.16.02-.34.02-.5,0,.19.03-.2-.04-.21-.05-.02,0-.23-.08-.1-.03-.06-.01-.35-.21-.27-.15-.09-.07-.18-.16-.25-.25-.05-.05-.23-.41-.25-.67-.02-.19,0-.63.14-.96.05-.3.65-.68.62-1.1l-.06.16c.08-.12.43-.31.16-.4,0,0,0,0,0,0Zm-15.89,4.04c.55-.36-.87-1.94-.95-2.3-.78-1.79-2.41-2.72-4.3-2-1.42.3-4.88.97-6.3,1.07-2.44-.16-2.85,1.39-.1.91,1.17-.09,4.34-.6,5.54-.81,1.79-.68,3.61-.6,4.39,1.4.31.24,1.11,2.25,1.72,1.73h0Z"/>
        <path class="cls-13" d="m77.71,58.51c-4.41,1.68-6.47,1.73-8.44-2.66-.66-.24-1.11,1.03-.27.82.11,4.32,6.14,4.51,8.99,2.49.34-.2.12-.76-.27-.65h0Zm16.08.48c2.84,2.01,8.86,1.85,8.99-2.49.84.2.39-1.07-.27-.82-1.08.65-.6,2.56-2.07,3.1-1.53,1.94-7.61-1.57-6.65.21,0,0,0,0,0,0Z"/>
        <path class="cls-13" d="m74.82,55.31c-2.1-.98-3.53,2.49-1.57,3.57,1.71,1.32,4.7-.31,4.03-2.51-.35-1-1.83-1.87-2.65-.94-.23.23.01.65.33.56,1.45-.38,2.05,1.45.8,2.2-1.4,1.1-3.71-.85-2.06-2.12.29-.41,1.65,0,1.11-.76Zm2.86-47.62c-8.44-1.55-18.47,7.19-17.75,15.77.09.49.82.35.84-.11.79-7.73,8.62-15.74,16.7-14.86.51.07.75-.69.22-.79h0Zm-12.59,15.71c-5.53-.02-10.46,5.5-11.85,10.63-1.17,5.95,1.05,8.34-1.99,13.71,7.73-5.78-4.13-16.69,13.85-24.34h0Zm-13.67,19.88c-10.68,1.78-6.38,18.75,3.88,12.64,1.48-.03,6.38-7.08,3.71-6.14-6.58,13.65-20.51,1.05-7.59-6.5h0Z"/>
        <path class="cls-13" d="m50.28,56.03c-3.76,3.39.75,12.34,5.66,11.35.43-.11.36-.85-.11-.8-4.1-.44-7.33-6.51-4.9-10.05.14-.37-.34-.68-.65-.5h0Z"/>
        <path class="cls-13" d="m51.88,64.43c-3.26,2.66.16,7.22,3.64,7.34.86.24,5.9.06,4.35-1.27-3.56.66-10.45-.73-7.56-5.65.19-.25-.17-.59-.42-.42h0Z"/>
        <path class="cls-13" d="m55.57,70.76c-.09.04-.19.08-.28.12h.23c-1.81-.09-1.25,3.19-.51,4.2.48,1.15,3.76,4.22,4.45,2.44-2.31-1.39-4.93-3.6-3.85-6.56l-.04.28c.22-.1.37-.54,0-.48h0Zm20.87-59.64c2.36-4.56,8.13-4.67,12.49-3.47.94-2.35-6.04-2.08-7.55-1.5-1.68.21-6.97,3.53-4.94,4.97h0Z"/>
        <path class="cls-13" d="m86.57,9.43c11.6-7.58,12.15,12.58,19.49,7.78.6-2.03-2.9,2.38-5.71-3.97-2.53-5.08-9.46-9.11-14.17-4.32-.22.26.06.71.39.51Z"/>
        <path class="cls-13" d="m97.48,9.8c8.15-3.37,17.17,4.56,16.15,13,.04.5.72.62.89.12,1.42-7.17-4.41-14.52-11.67-15.02-.93-.57-7.53.94-5.37,1.9Z"/>
        <path class="cls-13" d="m107.85,23.12c14.58-3.35,8.86,15.15,14.76,21.61.65,1.02,4.71.42,2.76-.55-7.9-.17-1.43-18.55-10.97-21.8-1.33-.88-6.96-1.14-6.55.73,0,0,0,0,0,0Zm18.26,22.56c3.12,6.24-6.9,11.79-10.84,6.4l.2.26c-1.65-3.11-1.86,4.53,5.81,2.97,4.49-.62,8.16-5.87,5.49-10.02-.28-.41-.88-.06-.66.39,0,0,0,0,0,0Z"/>
        <path class="cls-13" d="m121.55,55.09c1.7,2.03,1.09,4.6-.74,6.26-.43,1.31,1.08,2.41.6,3.79-.48,2.9-4.56,4.54-6.84,3.95.29-.4-.34-.85-.67-.52-1.49,3.98,6.73,1,7.63-.87,1.4-1.67,1.43-3.96.37-5.76,1.88-1.84,2.66-5.6.08-7.29-.28-.13-.59.14-.43.43h0Z"/>
        <path class="cls-13" d="m117.36,70.34c.12,1.58-.18,3.29-1.85,4.03-1.11.63.04,1.42.81.8,1.51-.81,2.85-3.7,1.41-4.98l.17.13c-.1-.23-.55-.31-.53.03h0Zm-57.24-35.12c-5.59,6.75,3.12,17.81,10.97,13.84,1-.94-.62-.84-1.22-.73-6.09,1.42-11.99-4.56-10.15-10.63-.02-.65,1.4-2.5.41-2.49h0s0,0,0,0Zm13.84-7.33c-8.7,3.95-6.66,21.96,4.39,20.18.71-.46-.42-.87-.82-1-10.32-.93-9.26-14.19-3.58-19.19Zm12.59-1.97c3.21,7.71-8.5,11.26-8.15,18.67,0,4.39,4.98,7.28,8.91,5.66.67-.16,3.01-1.86,1.3-1.85-1,.55-2.2.82-3.32.97-3.23.35-6.22-2.6-5.58-5.86.77-6.3,11.78-11.04,7.15-17.82-.17-.15-.41.04-.3.24h0s0,0,0,0Zm2.04,17.05h-.12s.19.1.19.1c-1.72-.82-3.07,2.38-2.01,3.69.29.49,1.35,1.58,1.79.77-.16-.78-1.41-1.23-1.2-2.29-.08-1.03,1.15-1.34,1.45-2.06l-.11.19c.24-.06.27-.37,0-.41h0s0,0,0,0Z"/>
        <path class="cls-13" d="m89.55,37.19c-6.13,10.63,10.83,12.6,14.73,2.35,1.23-1.02,1.28-10.54-.68-8.6.11,2.3.65,4.61-.03,6.88-2.02,8.79-17.81,10.55-13.62-.22.23-.29-.13-.67-.41-.41Z"/>
        <path class="cls-13" d="m101.59,41.36c-2.96,8.45,16.17,10.7,13.08-4.69-.58-2.94-2.99-4.15-1.16-.11,1.29,6.27-2.38,12.79-9.33,9.34-2.83-1.1-1.61-4.87-2.59-4.54h0Z"/>
        <path class="cls-13" d="m110.45,46.72c-2.48,2.13-1.02,6.9,1.66,8.36v-.96c-5.33,2.3-1.04,13.37,4.18,9.56.29-.35-.07-.83-.48-.62-4.38,1.94-7.07-6.06-3.14-7.97.36-.19.36-.76,0-.96-2.65-1.39-2.93-4.7-1.92-7.17-.02-.15-.14-.28-.3-.23h0Zm-56.73,8.63c-2.05,2.56.54,6.21,3.06,7.31.23.05.37-.17.29-.37-.24-.51-.95-1.06-1.33-1.48-3.14-2.38-.42-6.15-2.02-5.46h0Zm8.84-7.92c-.42.43.31,1.45.48,1.88,3.56,5.33-5,12.22.39,16.36l-.33-.82c-3.08,3.26-1.92,3.66.88.68-2.01-5.01-.62-4.78.92-9.79.58-2.36.03-7.5-2.34-8.31h0s0,0,0,0Zm18.41-31.02c-3.79,1.23-.93-3.58,1.23-3.77,4.44-2.1,8.55,3.22,4.39,6.47-2.75,2.17-6.16,4.22-9.77,3.1-.82.24-3.85-2.02-3.58-.94,1.9,1.98,5.14,2.37,7.77,2.26,11.47-2.42,10.67-16.04-.23-10.83-2.56.96-3.13,5.9.4,4.06.21-.15.03-.48-.21-.35h0Zm16.08,8.42c2.25,4.47,3.88,13.97-3.39,14.21-.38-.02-1.36-.24-1.14.44,5.41,3.1,8.95-5.27,7.16-9.67-.26-1.05-1.59-5.58-2.63-4.99h0Zm-5.84,25.91c4.27-.81,8.85-1.47,13.1.17l-.48-.85c-.04.09-.14.22-.08.21-1.11.82,1.1,1.31,1.34.33.85-2.89-14.86-2.3-13.88.15h0s0,0,0,0Zm-10.56-.41c-2.64-1.94-12.74-2.94-14.05.26.25.99,2.45.49,1.34-.33.06.02-.04-.12-.08-.21l-.48.85c3.7-1.26,7.76-1.37,11.54-.4.45.12,1.85.7,1.73-.18h0Z"/>
      </g>
    </g>
  </g>
</svg>