<?xml version="1.0" encoding="UTF-8"?>
<svg id="Ebene_1" data-name="Ebene 1" xmlns="http://www.w3.org/2000/svg" xmlns:xlink="http://www.w3.org/1999/xlink" viewBox="0 0 243 805">
  <defs>
    <style>
      .cls-1 {
        fill: none;
      }

      .cls-2 {
        clip-path: url(#clippath);
      }

      .cls-3 {
        fill: #f4efea;
      }

      .cls-4 {
        fill: #e9c3bb;
      }

      .cls-5 {
        fill: #fff;
      }

      .cls-6 {
        fill: #fae6e1;
      }

      .cls-7 {
        fill: #334f2b;
      }

      .cls-8 {
        fill: #b26a15;
      }

      .cls-9 {
        fill: #e09531;
      }

      .cls-10 {
        fill: #1d1d1b;
      }

      .cls-11 {
        fill: #443e3d;
      }

      .cls-12 {
        fill: #6d5333;
      }

      .cls-13 {
        fill: #557689;
      }

      .cls-14 {
        fill: #111119;
        opacity: .25;
      }

      .cls-14, .cls-15, .cls-16 {
        isolation: isolate;
      }

      .cls-17 {
        fill: url(#Unbenannter_Verlauf_2);
      }

      .cls-18 {
        fill: url(#Unbenannter_Verlauf);
      }

      .cls-15 {
        fill: url(#Unbenannter_Verlauf_4);
      }

      .cls-15, .cls-16 {
        opacity: .5;
      }

      .cls-16 {
        fill: url(#Unbenannter_Verlauf_3);
      }
    </style>
    <clipPath id="clippath">
      <rect class="cls-1" width="243" height="805"/>
    </clipPath>
    <radialGradient id="Unbenannter_Verlauf" data-name="Unbenannter Verlauf" cx="-162.49" cy="819.31" fx="-162.49" fy="819.31" r=".99" gradientTransform="translate(10892.02 15460.42) rotate(-30) scale(10.62 -22.64)" gradientUnits="userSpaceOnUse">
      <stop offset="0" stop-color="#f6c7c0"/>
      <stop offset=".12" stop-color="#f6c7c1" stop-opacity=".98"/>
      <stop offset=".25" stop-color="#f6cac4" stop-opacity=".93"/>
      <stop offset=".38" stop-color="#f7cfc9" stop-opacity=".85"/>
      <stop offset=".51" stop-color="#f8d6d1" stop-opacity=".73"/>
      <stop offset=".64" stop-color="#f9deda" stop-opacity=".58"/>
      <stop offset=".78" stop-color="#fbe9e6" stop-opacity=".39"/>
      <stop offset=".91" stop-color="#fdf5f4" stop-opacity=".17"/>
      <stop offset="1" stop-color="#fff" stop-opacity="0"/>
    </radialGradient>
    <radialGradient id="Unbenannter_Verlauf_2" data-name="Unbenannter Verlauf 2" cx="-169.46" cy="820.48" fx="-169.46" fy="820.48" r=".99" gradientTransform="translate(13547.97 18508.35) rotate(-26.07) scale(22.94 -27.39)" gradientUnits="userSpaceOnUse">
      <stop offset="0" stop-color="#f6c7c0"/>
      <stop offset=".12" stop-color="#f6c7c1" stop-opacity=".98"/>
      <stop offset=".25" stop-color="#f6cac4" stop-opacity=".93"/>
      <stop offset=".38" stop-color="#f7cfc9" stop-opacity=".85"/>
      <stop offset=".51" stop-color="#f8d6d1" stop-opacity=".73"/>
      <stop offset=".64" stop-color="#f9deda" stop-opacity=".58"/>
      <stop offset=".78" stop-color="#fbe9e6" stop-opacity=".39"/>
      <stop offset=".91" stop-color="#fdf5f4" stop-opacity=".17"/>
      <stop offset="1" stop-color="#fff" stop-opacity="0"/>
    </radialGradient>
    <radialGradient id="Unbenannter_Verlauf_3" data-name="Unbenannter Verlauf 3" cx="-169.4" cy="822.2" fx="-169.4" fy="822.2" r=".99" gradientTransform="translate(4700.08 9651.23) rotate(-.55) scale(26.65 -11.62)" gradientUnits="userSpaceOnUse">
      <stop offset="0" stop-color="#f6c7c0"/>
      <stop offset=".12" stop-color="#f6c7c1" stop-opacity=".98"/>
      <stop offset=".25" stop-color="#f6cac4" stop-opacity=".93"/>
      <stop offset=".38" stop-color="#f7cfc9" stop-opacity=".85"/>
      <stop offset=".51" stop-color="#f8d6d1" stop-opacity=".73"/>
      <stop offset=".64" stop-color="#f9deda" stop-opacity=".58"/>
      <stop offset=".78" stop-color="#fbe9e6" stop-opacity=".39"/>
      <stop offset=".91" stop-color="#fdf5f4" stop-opacity=".17"/>
      <stop offset="1" stop-color="#fff" stop-opacity="0"/>
    </radialGradient>
    <radialGradient id="Unbenannter_Verlauf_4" data-name="Unbenannter Verlauf 4" cx="-165.47" cy="822.2" fx="-165.47" fy="822.2" r=".99" gradientTransform="translate(2973.64 9668.14) rotate(-.55) scale(16.69 -11.62)" gradientUnits="userSpaceOnUse">
      <stop offset="0" stop-color="#f6c7c0"/>
      <stop offset=".12" stop-color="#f6c7c1" stop-opacity=".98"/>
      <stop offset=".25" stop-color="#f6cac4" stop-opacity=".93"/>
      <stop offset=".38" stop-color="#f7cfc9" stop-opacity=".85"/>
      <stop offset=".51" stop-color="#f8d6d1" stop-opacity=".73"/>
      <stop offset=".64" stop-color="#f9deda" stop-opacity=".58"/>
      <stop offset=".78" stop-color="#fbe9e6" stop-opacity=".39"/>
      <stop offset=".91" stop-color="#fdf5f4" stop-opacity=".17"/>
      <stop offset="1" stop-color="#fff" stop-opacity="0"/>
    </radialGradient>
  </defs>
  <g class="cls-2">
    <g>
      <path class="cls-6" d="m43.1,320.5c.46-.43,1.07-.68,1.7-.7.7-1.7,2.4-3.1,4.2-2.5,1.1-1.2,3.1-.8,4,.4.5-.4,1-.6,1.6-.6.3-.3.3-1,.8-1.1,6.84-9.33,11.89-20.02,20.1-27.9,8-2.3,7.2-3.1,11.5-9.9,1.25-8.66,5.68-17.71,12.3-23.3.9-1.9,2.8-3.9,4.5-5.2.1-.1.9-1.8.8-.6,1.2-1.4,2.4-1.7,3.8-2.9,1.8-1,3.7-3.9,5.8-2.9,1.6-1.3,4-.4,4.2,1.7.43.23.77.57,1,1,2-.2,3.7,2.5,2.1,4.2.52.1,1.55.12,2.1.1,1.1-1.4,3.3-1.7,4.7-1.5,2.1-2.1,5.4-1.2,7.6,0,4.2-2.2,13,6.4,6.1,8,.6,1.9.8,4.2.1,6,6.5,2,12.3,12.9,4.8,17.2-3.6,2.8-7.1,5.6-10.5,8.7-.7.8-1.7.5-2.6-.1-2.4-1.1-1.3-3.4-1.1-5.4-.6.2-2.3-.6-2.1-.9-.1,0-.2-.1-.2-.1-.6.6-1.4,1.1-2.1,1-4.9,7.5-15.9,16.5-24.2,19.7-4.2,12.4-15.8,20.6-22.9,31-3,.7-4,4.7-6,6.9-.9-.6-.6-.2-1,.6-1.75,3.2-8.58,18.46-12.2,11.4-1.1-.7-1.6-2.2-.9-3.4-1.34-.4-2.86-1.71-3.2-3.1-1.2-.3-2.2-1.3-2-2.7-1.2-.3-2.3-1.5-2.1-2.8-1.1-.7-1-2.3-.4-3.5-.2-.2-.4-.4-.5-.6-.9-.2-2.2-.9-2.3-2-2.64.24-5.48-2.23-3-4.7-1.2-.8-1.3-2.3-.6-3.4-.1-.4-.2-.8-.1-1.2-.18-.08-.32-.22-.4-.4-2.7.7-5.4-2.4-3.4-4.5h0Zm10.8-175.5c.54-.25.9.55.9,1l.1.1c-.2-1.28.97-1.35,1.2-.1.09-.19-.29-5.23,0-5.3-2.57-.43-2.58,2.64-2.6,4.4.2-.1.3-.1.4-.1Zm81.8,68.1c-1.47-2.34.27-6.47-2.3-8,.1-1.89-1.02-3.77-3.1-2.8.03-.65-.5-1.5-1.3-1.7-.17-.38-.51-.88-.9-1.1-.16-1.4-1.76-2.18-2.9-1.5l-.3-.3c.2-1.1-.7-2-1.7-2.1-.28-.71-.8-1.22-1.5-1.3-.1-.1-.2-.2-.2-.3-.1-.1-.2-.1-.2-.2,2.64-3.73-7.97-8.52-9.9-11.5v-1c-.86.08-.64-1.05-.3-1.5.1-.3,0,0,.3.1.1.1.2,0,.2.1,3.5.21,6.59-3.6,8.1-6.4,1.57-2.06,1.89-4.78,2.9-7-.22-.45.28-.41.4-.7-.5-.2.1-.6.1-.7.79-2.06,1.15-3.89,2.2-5.8.34-.89.26-1.84.9-2.6.78-5.31,11.95-36.99,1.2-34.2-.1-.1-.1-.2-.2-.3,0-.6-.3-1.2-.7-1.5.31-2.51,2.2-8.36-1.8-8.5-.7-.5-1.6-.7-2.3-.2l-.4-.4c-.08-.85,0-1.97-.6-2.6.04-2.57-1.17-5.43-3.9-2.9h-.5c0-1.47-.1-2.94-.3-4.4-.6-2.92-4.11-2.25-4.2.6-.6.1-1.2.5-1.5,1.2-1.4-.24-2.36.87-2.3,2.2-.39.45-.52,1.21-.5,1.9-1.66.6-1.5,2.73-1.6,4.2h-.4c-.3-.2-.6-.4-1-.5-.02-1.53-1.37-2.32-2.6-2-.4-.3-.9-.5-1.4-.4-1-1.02-3.19-.44-3.5,1.2-.7-.7-1.8-.9-2.6-.3-.4-.3-.9-.4-1.4-.3-.02-1.18-.92-2.18-2.1-2-.5-.8-1.5-1-2.3-.7-.1-1.6-2.1-2.2-3.2-1.4-.57-1.67-3.36-1.51-3.8.3,0,0-.7,3.4-.7,3.4-.1.1-.1.2-.2.3-1.1-.2-2.4.5-2.4,1.6-1.08.2-1.41,1.14-1.6,2.1-1.87-.12-3.4,1.02-4,2.7-3.19.98-2.77,6.08-3.5,8.8-2.57-.58-2.31,2.72-2.7,4.4-.74-.41-1.6-.26-2.2.3.31-2.58-3.28-3.11-4.2-.8-6.51-2.16-4.23,8.3-4.1,11.9,1.72,1.33,1.28,4.84,1.9,6.9h.1c.11-.11.25-.17.4-.2-.1-2.3-.3-4.6-.5-6.9,1.42-1.73,1.13,2.84,1.5,3.7.24.31,0,.57.2,1,.69,0,.54.85.7,1.3v-1.5c.33-1.2,1.34-.02,1.1.7-.1.1-.2.2-.2.3-1.56,3.42,1.79,7.92,3.8,10.7,0,.28.06.55.2.8-.05.71.36,1.58.1,2.2.15.97.77,1.89.7,2.8.12.93,1.6,2.73.5,3.3.06.72.99,1.84.4,2.4.44,1.73.69,3.68.5,5.5-1.53,2.54.12,7.72-1.7,10.5l-.7,7.8c-.03,2.55,3.78,2.58,4,.1,1.2,1.6,3,2.4,4.8,3.2-.47,3.22,3.51,2.42,5.3,1.1-.15,1.26-.05,2.79,1.6,3.1.2.3.5.6.8.7-.41,1.27.75,2.46,1.9,2.7-.3.9.2,1.7,1,2.2-1.06,2.46,1.36,5.26,3.9,4.4.1.2.3.5.5.6-1.6.59-1.32,2.44-.3,3.2-3.19,3.3-1.75,7.55,2.9,4.4,1.2,1.5,2.9,2.3,4.7,2.9.4.9,1.4,1.5,2.5,1.2.5.4,1.1.6,1.7.5.5.3,1,.6,1.4.9-2.54,3.9.96,7.87,3.8,3.1.2,0,.3.1.5.1.01,1.94,1.77,4.16,3.6,2.7.94,1.31,2.67,1,3.6-.2.8.3,1.8.1,2.4-.5.6,1.3,2.5,1.3,3.4.2,1.4.16,2.33-1.03,2.4-2.3,1,.1,2-.5,2.2-1.7,1.4,1.82,3.85.43,3.9-1.8h.1c3.14,5.13,5.37-3.06,5.4-5.8,1.3-.53,2.17-2.21,2-3.7Zm105.6-108.5c.69-26.17-19.29-28.64-27.7-48.5-2.8-6.6-5.5-20.5-12.3-22.9-.4-.5-1.1-.4-1.4-.9l-.1.3c-1.11-10.85-4.95-26.78-17.9-27.7-.3-.2-.3-1-.6-.9-1.35-.79-2.69-1.95-4.1-2.7-5.08.89-10.63-.58-15.6,1.1-.4-.4-1.1-.5-1.5.1-.3.5-.6,0-1,.5-.3-.2-.5.1-.9.3-.5.3-.6,0-1.2.2-.2-.1-.5.3-.7.3-.54-.12-.75.07-1.2.4-10.79,1.9-4.59,20.53,1.6,25.3-2.2,6.7,3.2,12.7,9.6,14,.1.2.4.4.7.4.5.2.4,1.2,1.1.5.9.8,2,1.3,2.5,2.5.8.9.9,3,2.2,3.1.3.8.6,1.5,1,2.3.2.5,0,1.4.4,1.2.5.6,1,1.1,1.2,1.9,2.6,1.6,3.7,6.2,6.7,7.4,1.65,2.68,3.57,5.51,5.4,8.2,1.53,4.3,2.01,9.74,4,12.7.1,5.1,1.3,10.5,3.4,15.2-1.6,2.2-5.2,4-5.6,6.9-1.8,1.6-1,4.7,1.6,4.6.2.7.7,1.3,1.4,1.6.4.7,1.1,1.2,1.9,1.2-.3,1-.2,2.1.5,2.8-.49,1.83-.81,4.54,1.7,4.9.7,2.9,4.7,2.3,5.2-.5.4.2,1,.2,1.4.1-.5,1.8-2.2,4.4-.1,5.6-.3,3.5,4.3,3.6,5.3.6.4.5.9.8,1.5,1,.3,2,2.8,2.2,4.1,1.1.1.1.2.1.3.2-1.5,2.5.9,5.1,3.4,3.8,0,1.17.77,2.19,1.9,2.5.4,1.1,1.6,1.9,2.7,1.7,2.7,1.1,4.4-1.3,3-3.6.4-.1,1.9.4,2-.7-.1-.3.1-.7.4-.7,4.86-5.82,7.4-12.6,11.2-19.2,2.34-2.32,2.54-4.88,2.6-8.2Zm-58.4-75.2c.1-.1.2-.2.2-.3.3.8.5,1.5.8,2.3-.3-.6-.7-1.3-1-2Z"/>
      <path class="cls-3" d="m154,737.7c-1.93.78-2.68,2.84-4.3,4.1-.14,0-1.41,2.81-1.5,2.9-2.21,1.07.41-3.05.8-3.7-4.23,3.14-.11-3.41,2.4-3.4,1.09-.61,2.25-1.66,3.5-1.6-.1-.1-.1-.2-.2-.2-.51.58-1.57-.82-2-1h-.1c-1.29-1.18-3.21-2.96-5.1-2.1-.3-.2-.7-.2-1-.2-1.1-1-2.5-.4-3,.7-.6-.8-1.7-1-2.6-.6-.7-.7-1.8-.7-2.6-.2-.5-.8-1.5-.9-2.4-.5-1.05-2.22-4.57-.57-3.6,1.8-.2-.1-.5-.2-.8-.2.6-2.83-3.48-4.59-4.1-1.5-1.26-.21-2.74.56-2.5,2-.38-2.3-4.14-1.72-3.9.6-.6.1-1.1.3-1.5.8-.19-.18-.44-.29-.7-.3-.4-2-3.1-2.1-3.8-.4-.3-.1-.6-.2-.9-.2-.6-.5-1.4-.7-2.1-.5-.7-1.1-2.4-1.4-3.2-.5-.5,0-1,.1-1.4.4-.7-1.2-2.5-1.2-3.4,0-.87-1.62-3.74-.82-3.6,1.1,0,0,1.3,9.4,1.3,9.4.2,1,1.2,1.5,2.1,1.4-.22,1.36.87,2.42,2.1,2.5-.21,1.32.68,2.33,2,2.3-.15,1.43,1.15,2.22,2.3,2,.3.9,1.3,1.4,2.2,1.3-.3,2.24,3.12,3.15,3.8,1.1.4.2.8.3,1.3.2-.4,2.85.66,6.21,3.7,3.5,1.01.98,2.85.46,3.2-.9.32.22.78.31,1.2.3-.29,2.79,1.88,5.86,4,2.8.4.1.8,0,1.2-.2l.7,3.7c1.32,2.92,4.38,1.11,4.2-1.7.3.5.7.8,1.2.9,1.49,6.51,6.44.44,5.1-3.5,1.93-.6.36-5.69.5-7,1.14-.37,2.11-1.72,2.2-3,.7-.2,1.3-.7,1.5-1.3,2.52.57,3.2-1.66,2-3.6,1.63.91,3.6-.85,2.8-2.7,1.2-.2,2.2-1.4,1.4-2.8.1-.2.1-.4.2-.6,1.4.4,2.6-.5,2.7-1.7-.45,0-.89.11-1.3.3h0Z"/>
      <g>
        <path class="cls-13" d="m214.1,425.7c.7-5.9,0-10.6-2.4-16.1-.21-5.05-4.63-23.09-11.9-19.6-1.9-.6-4.4,2.1-3,4.3-4-2.1-4.3,2.9-3.9,5.7l-.6-.3c.1-1.6-.3-3.8-2.1-3.9-.02-1.05.27-2.21-.7-3,0-.5-.1-1-.4-1.4,2.4-2.3,5.9-7.2.3-7.4,0-.1-.1-.2-.1-.3,1.9-1.8-.9-5.7-2.7-3.8-9.8,8.57-18.87,18.29-32,21.6-1.1-.7-2.5-.8-3.6.1-3,.8-7.1-1.7-10-.7-3.3-1.1-6.7,4.3-3.2,7.4-1.6.9-1.7,3.3-.2,4.2.1.9.8,1.8,1.7,2,.1.1.1.3.2.4-.8.5-1.2,1.5-1.1,2.4-5.9.3-3.4,6.9,1.6,4.8,0,.1.1.2.1.2,0,.8.3,1.6,1,2.1-2.2,1.6-.1,5.1,2.4,4.3-1.2.7-1.3,2-.8,3-1.9.9-1.7,4,.4,4.6-2.9.4-4.6,4-1.7,5.3-.2.6,0,1.5.4,2-.7.4-1.3,1.1-1.4,1.8-1.76-6.09-7.85-4.39-6.6,2,0,0-.1,0-.1.1-.7-2.5-4.8-5-6.5-2.1-.6-.3-1.3-.3-1.9-.1-.2-.2-.5-.4-.8-.5-1-2.6-2.1-9.6-6.1-6.1.5-6.1-5.8-5.7-5.4.2-1.2-1.8-3.4-1.1-4.7.3-.3-2.5-3.5-3.7-4.9-1.4-.4-.2-.8-.4-1.3-.4-.4-.8-.7-1.7-1.1-2.5-1-2.1-5-1.2-4.7,1.3.2,1.6.5,2.5.8,4.1-.5-.1-1.2-.4-1.6-.3l-1-5.6c-1-3.3-5.4-1.6-5.2,1.5-1,.1-2.2.1-2.7,1.1-.7-.1-1.2-1.2-1.6-.7-.5-2.1-.7-4.5-3.8-4.2-1.6.2-1.6.4-1.4,1.9.8-1.2,1.7,1.6,0,2.2-1.13,6.47-1.15,13.13.2,19.5-2.13,13.56,10.07,31.34,15.7,42.3,8.49,13.05,15.79,26.87,25.4,39.4-1.4,2.3,6.2,11.1,7.5,14.5-11.34,4.23-15.76,15.33-19.8,25-4.34,3.92-5.9,10-9.3,14.8-3.8,4.22-7.23,9.38-9.9,14.5-5.05,7.63-21.85,20.29-18.2,30.1-1.8,3.3-7.4,4.1-7.5,8.2-4.2,2.5,1.5,7,3.8,8.8,4,6.9,15.7,9.8,22.5,13.5,2.6,1.6,5.2-2.4,2.7-4.2-.46-2.6,3.33-2.49,3.5-4.8,2.46-1.2,5.29-.9,8-1.1,1.6,2,3.9,1.2,4.3-1.5,3.39-1.89,14.02-7.44,9.3-12.7,0-.1-.6-1.7-.6-1.7,3-3.6,4.3-7.6,8.7-9.9.4.4.4,2.2.8,2.6-3.25,13.84-3.19,28.16-7.8,41.8-.4,4.5-6.5,7.7-5.5,12.1-1.8,7.1-12.6,14.4-5.5,21.7-.1,1.1.1,2.2.3,3.3-1.1,2.7-3.5,4.9-4.6,7.6-1.2,1.1-2.7.5-2.8,2.3-6.11,7.5.08,17.64,9.2,15.6,8,3.54,12.58.17,19.6-3.2.63.29,1.2.64,1.8.2.3-.1.6.5.9.5,4.81,1.76,21.81.09,16.5-7.9-.2-1.5.1-.7-1-1.6-1.9-4.4-2.4-9.2.6-13.1,3.4-10.3,9.7-18.6,15.5-27.6,9.5-16.4,20.9-31.2,30.3-47.5,3.97-2.67,12.58-23.8,15.5-28,2.9-1.5.9-6-.1-8-1-3.3-.9-7-1.8-10.2,2.41-4.63-1.36-10.51-2.5-15.2-2-6.3-2.4-14.3-6.3-19.7-1.91-9.51-5.16-19.21-9-28.4,5.5-13.89,13.01-26.53,15.7-41.3,4.5-12.2,9.3-25.8,8.2-39.1.8-7.19,2.88-15.3,0-22.1h0Z"/>
        <path class="cls-13" d="m93.2,661.6q-.1,0,0,0c-.1,0-.1-.1,0,0Z"/>
      </g>
      <path class="cls-3" d="m185.4,367.1c-.4-5.7-2.1-11.3-4.1-16.6-.2-7.7-.1-16.8-2.4-24-1.7-9.5.6-20.2-2.4-29.3-1.12-13.49-2.14-27.6-6.7-40.1-.6-3.2,0-8.4-3.4-10.1-.7-1.8-1.5-5.2-3.9-4.6-4.7-7.1-3.6-7.8-10.6-3.8-2.7,1.5-10.6-2.6-10.2,2.9,2.45,5.32,17.31-4.62,18.5,14-.5.6-.9,1.5-.9,2.2-.9.1-1.4-.5-1.8.3-1.65-.3-1.33.18-1.8-1.5-.2-.8-2.8-1.3-3.4-1.8-1.6-.2,1,2.6,1.7,2.8.89,1.23,1.66,2.63,2.3,4.2-.2.7-.2,1.6,0,2.2-1.2,2-2.2,3.7-3.2,5.8-2.4-.3-4.1,2.9-2.9,4.6,0,.1-.1.4-.1.5-.9.7-1.5,2.2-1,3.2-2.4,2.4-4.2,2.4-6.3,5.1.7-.6-1.6.9-1.3.7-1.2.9-2.3,1.6-2.2,3.1-1,.9-.7,4,.2,5.2-.7,1.4.2,3.1,1.6,3.6-.5,1.7-.5,3.7,1.4,4.4,1,4.7,3.8,9,4.7,13.6-1-.3-1.9.1-2.5.8-5-2-5.1,4.3-.8,5.5-.4,1.3.3,2.6,1.6,3.1-.4,1.1.1,2.5,1.2,3-1.1.9-1.4,2.8-.3,3.9-.9.9-1.2,2.5-.3,3.4-.1.2-.2.3-.3.5-.4,0-.7.1-1.1.3-1.3-.5-2.8.4-3.2,1.7-.7,3.4,4,3.6,6.2,4.9,0,.1-.1.1-.1.2-2.5-1.7-5.4,1.6-3.6,3.7,0,.8.5,1.5,1.3,1.8-1.7.6-2.5,2.7-1.2,4-.8,1.7.6,3.5,2.6,3.8-.8.8-1.1,2.2-.5,3.1-5.8-2.9-8.5,3.3-2.1,4.9,0,.1.1.3.1.4-4.4-.6-6.4,4.6-1.5,5.8-.1.1-.1.3-.2.4-2.2,0-3.7,3.4-1.5,4.6-.09.48-.02.97.2,1.4-.7,1-.8,2.5.3,3.3-.1.7,0,1.4.5,2-.4.6-.5,1.4-.3,2.2-.5.5-.8,1.2-.7,1.9-.6.6-.9,1.5-.8,2.4-.8.7-1.2,2-.8,3-1.2.9-1.4,2.7-.4,3.7-1.9,2.3.7,4.1,2.7,5-1.4,1.7.3,4.6,2.5,3.9,3.6,1.5,7.3-.3,10.6-1.8,1.3.8,2.5-.1,3.7-.6.9.4,2.1-.1,2.9-1,2.9.8,5.4-2.4,6.9-4.4,1.7-1.2,4.2-2.4,5.1-4.3,4.57-4.08,17.38-8,13.2-15.6,1.3-2.3,3.1-7.8-1.2-7.5h0Zm-8.6,14.5c.3-.5.6-.9.9-1.4,0,.2.1.4.1.6-.3.3-.6.6-1,.8Z"/>
      <path class="cls-6" d="m105.4,251.4c8.33-12.44,22.05-19.41,36.7-20.8,3.66-.76,7.92-.35,11.4.8.3-.2.7-.3,1.1-.4,5-3.28,6.13,3.3,1.8,5.4-.2.2-.6.3-.9.4-5.63,4.77-13.93-.63-20.2,3.5-.23.61-1.47.52-2.1,1.1-.74.98-1.62,1.95-2.4,2.9.4.1.7.3.9.6.3.1.5-.4.7-.2.7-.2,1.2-.3,1.9-.5,3.79-2.32,9.83-.81,14.2-.6,1.47-1.17,3.21.06,4.6.7,2.13.15,4.39,1.18,5.3,3.2.84,2.23,1.87,4.51,2.2,6.9.1.23-.46.26-.5.4.8,2.6-2.4,4.7-4,2.7-3.39-1.3-6.33-3.56-9.1-5.7-.1-.1-.2-.1-.3-.2h-1.9c1.68.75,3.29,1.71,4.8,2.8,3.39.79,5.37,4.9,7,7.6.15,1.76-.48,4.36-2.1,5.4-.9,5.8-7.49,3.72-5.8-.7-.05-.76-.77-1.01-1.2-1.6-2.19.53-4.48-.48-6.4-1.3-3.43,2.67-6.01-3.42-2-4.6-.98-.44-1.99-1.33-1.9-2.5-1.99-1.84-.06-4.33,1.9-5.2-1.83-.12-11.57.31-13.1.2-2.53.59-6.82,4.05-8.6.8-.96,2.51-3.61,7.37-6.3,3.8-.93-.18-1.79-.89-1.8-1.8-1.85,1.41-5.38-.95-3.9-3.1h0Z"/>
      <path class="cls-3" d="m99.3,226.4c3.8-2.3,8.3-1.1,12.4-.4.03-.15.09-.29.2-.4,1.8-.45,6.14,2.89,6.2-.4.3-.2.4-.4.3-.8.2-.1.4-.3.6-.5.8-.2.6-1,1.3-1.5,3.9,1.9,4.5,7.7.8,10.2,2.3,4.2-4.3,5.6-6.5,8-2.2,1.4-5.3-1.7-3.8-3.8-1.4-.9-1.4-3-.2-4-1.9-.6-4.7,0-5.7-2.1-.7-.1-1.5-.1-2.1-.5-.1,0-.3.1-.4.1-2.6,2.5-6.3-1.8-3.1-3.9Zm26.4-6.1c.9-.3,1.8-.7,2.6-1.2,5.74-1.29,2.16-9.84,6.7-11.6,1.7-.2,3,1.2,2.9,2.9.83.63,1.93,1.13,2.1,2.3,1.31.05,2.7.66,2.9,2.2,1,.2,1.8,1.2,1.9,2.2.6.6,1,1.4.9,2.3,2.7-.8,4.3,3.2,1.8,4.5,3.1-.6,10.9.7,6.5,4.9-5.52,1.23-11.31,1.16-16.8,1.6-3,1.2-10,.2-6.5-4.2,0-.3.1-.6.2-.8-.3-.4-.5-.8-.5-1.2-.3,0-.6,0-.8-.1-3.7,2.9-8.5-1.2-3.9-3.8h0Z"/>
      <path class="cls-9" d="m117.4,184.3c1.47-2.37,1.68-6.25,4.8-7,3.61-5.15,9.57-8.03,13.6-13,14.31-11.88,27.63-24.51,39.6-38.9-2.5-1.9-1.2-4.9,1.1-5.9.4-3.6,5.7-6.2,7.7-9.1.9-1.4,2-3.2,3.2-4.3.1-1.2,1-2.8,2.2-2.5,3.2.8,2.9,4.8,4.8,6.2,6.7,4.9,11.7,12.5,19.1,16.9,9.7,7,18,2.8,9.5,17.1.5.7-.3,1.7-.8,2.5-6.1,11.8-2.7,16.3-15.1,7.3-.7,1.5-1.5,2.6-2.9,3.5-.1,1.4-1.2,2.4-2.5,2.6-1.17,6.93-2.23,13.73-8.7,18-1.7,1.4-2.5,5.1-5.1,4.9-7.3,6.34-11.15,16.16-10.8,25.8,17.1,21.2,21.3,47.1,18.2,73.6-3.76,20.78-5.54,33.74,5.8,52.8,3.06,3.54,6.01,7.79,7.7,12,.3.6.8,1.1,1.1,1.6v.4c7.63,8.11,4.53,17.66-.1,27.4-3.5,7-5.1,15.5-11.2,20.9-1.3,1.7-2.2,4.6-4.5,5-.6.6-1,1.5-1.8,1.9-1.21,2.62-6.65,3.43-5.9-.5.4-1.1.1-2.3.7-3.3,2.45-21.48-6.74-42.03-8.8-63.1l.4.2c-4.2-30.56-.17-63.81-15-91.8-1.05.07-1.55-1.13-2.2-1.8-1.49-2.69-3.9-5.15-5.7-7.8.9-.9,3.4-4,1.2-4.4-.1-.2-.3,0-.6,0-1.36-1.11-3.26-.82-4.9-.6-2.87-4.18-8.21-6.81-9.4-11.8-7.4-11.86-26.55-19.03-24.7-34.8Zm-43.9,215.8c-1.15-17.15,4.5-33.6,8.8-49.6.5-4.4.9-9-.2-13.4-1.5-1.3-1.5-4,.7-4.8,2.6-2,4-5.5,6.4-7.8,4.1-4.6,8.7-8.3,11.5-13.6.74-2.59,1.47-7.54,4.8-7.7,8.11-4.63,15.88-10.3,21.3-17.8,0,0,.7.5.4-.2,1.1.7,1.8-2.6,2.5-3.3.2,0,.5-.2.5-.5,2.49-.42,4.03,3.75,1.6,4.5,1.34,2.99,1.31,3.5,4.9,2.7,1.2-3.3,5.6-.7,4.2,2.5.1.3.4.6.4.9,1.9,1.4,2.4,3.8,1.9,6.1,10.78,28.16,1.31,60.8.4,90.1-.07,13.71,1.01,27.36,1.2,41.1,1.2,2-.3,4.8.5,7-.1,2.5.7,5.1-.5,7.6,1.19,3.53-.89,5.74-4.2,4.4-.2.5-.8.2-1.3.5-6.64-.54-14.73-1.79-21.4-3.5-3.9.6-8.6-.7-11.7-2.7-6.69-1.21-13.28-3.85-19.6-6.6-3.54-1.65-7.28-2.87-10.3-5.2-2.9-.3-2.9-3.5-2.6-5.8.2-8.2-1.3-16.8-.2-24.9Zm59.2-104.5c0-.3,0-.6-.1-.8-.45.07-.9-.32-1.3-.1.6.1,1.1.5,1.4.9h0Zm-16.8-56.8c-3.2-5.1-5.9-10.3-10.1-14.6-4.53-4.86-11.25-8.46-15.1-14.2-3.08-6.66-6.93-14.89-14.7-16.7-.5-1.8-2.6-2-3.9-1.1-.1,0-1.3-.5-1.4-.5-1.77-1.75-5.65-.55-8.1-1.5-11.1-7.2-3.3,8-4.3,13.1.3.1.4.6.1.8-.31.76-1.86,1.44-2.7,1.4-.2.1.1.5,0,.3-1.7.8-4.5,1.1-5.5,2.7-8.06,4.25-16.72,7.67-23.8,13.6-1.4.4-3.3.9-3.5,2.6-8.7,6.4-16,15.2-19.1,25.6-1.7.8-2,3.1-1.5,4.7-.4.9-.7,2,0,2.9,0,.4,0,.7.1,1-2.7,2.8-.2,8-.3,11.6.3,2.9-.2,6,.6,8.7,1.2,7-2.5,14.4.7,21.1-.77,6.12,1.81,11.93,1.4,18.2-2.2,11.7-.6,25.2,4,36,1.7,2.9,1.1,9.7,5.7,9.3,1.18,1.11,3.15,1.97,4.7,1.3,4.8,1.8,7,7.5,11.3,9.5,1,1.4,1.2,3.4,2.6,4.4,1.2,4.5,7.5,4.7,10.5,2.1,1.6-.3,3.1-1,4.4-1.9,2.1-.1,3.4-2.7,3.6-4.5,4.39-5.69,10.75-13.07,15.4-18.1,5-1.4,1.9-5.7-2-5.6-7.67-7.59-13.86-17.02-17.4-27.1,1.4-1.5,3.8-4,4.9-5.7v-.1c1.2-1.4.3-3.4-.8-4.5-.1-.5-.2-1.1-.3-1.7,1.1-2.2,1.6-4.7,2.2-7.1.4,1.5-1.1,2.8-.5,4.3,2.55-6.52,1.83-13.89,2.9-20.5-.5-1.3.9-1.7,1.1-.3,3.4,2.4,6.2,7.1,8.4,11,4.55-5.99,5.71-11.77,14.2-13.3,1.6.2,3.1-.6,3.9-1.9,3.5-7,4-15.1,7.9-22,2.7-5.4,8.5-8.1,11.6-13.3,3.2-2.5,7.7-3.7,10.1-6.9.4.1.9.1,1.3,0,.5-.7,1.2-1.3,1.8-1.8-.05-.46-.18-.9-.4-1.3h0Zm-22.8-17.4c-.69-.35-.6-1.27-.9-1.9.7.5,1.4.9,1.9,1.5-.3,0-.7.2-1,.4h0Z"/>
      <g>
        <path class="cls-8" d="m27.9,335.6c-1.2-2,.6-4.9,2.6-5.1.4-.9,1.1-1.3,2.2-1.4.4-.8,1.3-1,2.1-.9.4-1,1.4-1.5,2.3-1.3.5-1.1,2.1-2.4,3.4-1.7.3-.8,1.9-2.4,1.9-1.5,0-2.8,4.2-5.6,4.6-2,.5,4.9,5.7,8.7,5.2,13.9,4.5,6.03,8.46,15.21,16.3,16.9,2.1.5,1.2,3.8-.9,4.1-3.5,4.6-8,8.5-11.2,13.5,0,.9-.9,2.8-2,2.9-2,5.9-7-.5-9-3.2-5.1-4.8-9.5-10.3-12.6-16.7-3.78-3.76-4.27-9.58-5.3-14.3-.6-.7-.1-1.7.4-2.5v-.7h0Zm179.7-206.7c0-.1-.1-.1,0,0Z"/>
        <path class="cls-8" d="m225.3,133.2c-12-7.6-24.4-15.7-33.4-27.2.1-2.8-3.6-3.3-4.1-1-3.5,5.8-10,11.2-13.5,16.8-.6,6.9,7.7,11.3,12.1,15.8.3,1.5,2.1,2.4,3.4,1.2,2.5-3.4,7.6-4.1,9.7-7.5,2.5-1.4,4.4-4.3,7.4-3.8.1.6.42,1.13.9,1.5q-.1-.1-.2-.1c.2,7.4-.4,15.3-.4,22.8-.4,4.4,5.1,4.7,7.9,6.7,1.2.7,2.4,0,2.9-1.2,1.9-5.7,5.5-11.3,6.4-17,.5-2.3,4.1-5.5.9-7h0Zm-68.7,75.5c.2-1.4,1.6-.9,2.8-.7,1.3-1.2,3-1.6,4.7-1.3,3.6-3.9,10.9,2.4,8.6,6.5.8.9,2.4,1.5,2.4,2.8.1.1.3.5.3.6,4.5,4.3,6.7,10.4,9.4,16,2.5,3.8-1.9,6-5.3,5.2-5.2,3.7-1.5-8.9-19.5-23-1.3.4-2.3-1.2-2.3-2.5,0,.3,0,.1,0,0,0,0-.1-.1,0-.1-.83-.39-1.91-2.29-1.8-3.2l.7-.3h0Zm-24.2,86.6c-1-4-2.2-7.5-4.9-10.8-2.67,2.76-5.54,5.3-8.4,7.9q0,.1-.1.2h-.1c-4.61,4.33-10.05,8.3-15.6,10.9-.4,1.1-1.3,2.2-1.9,3.3,1.6,2.4,3.2,8,6.7,4.5,1.3.6,2.6-.7,3.1-1.7,1.2.1,2.1-.5,2.7-1.4,1.3.9,3.5.3,3.5-1.5.8-.2,1.4-.8,1.8-1.4,1.3.4,2.3-.9,2.9-1.8,1.4.2,2.5-1.1,3.1-2.2,1-.2,1.8-.7,2.3-1.3,1.3.1,2.7-.7,3.4-1.7,1.2-.1,1.8-1.6,1.5-3Zm-49.1-10.9c-.1.3-.3.7-.6.9-1.68-1.47-2.62-3.73-4.3-4.8-.2-.2-.3-.5-.5-.7-.3-1.6.5-2.7,1.5-3.9.2.4.1.4.3.8,3.2-.4,5.7-6.8,8.9-4.4-1.3,3.2-2.4,7.2-4.2,10.1.1.9-.3,1.7-1.1,2Zm-1.2-88.1c-2.8-1.7-5.8-3.7-9.1-4.2-.4-1-5.1-1.2-5.9-1.5-.1-1.1.1-2.5.2-3,1.1-2.2-.2-5.8-2.9-3.8-.5.5-1.4.3-2,.5-.9-.4-2.7-.2-3.1.7-2.3.2-2.7,2.6-1.8,4.7-.4.7-.8,1.7,0,2.4,1.1,19.3-1.8,7.6,14.8,16.3,2.42,2.26,5.6,6.74,9.3,5.8,0-1.2.1-2.4.2-3.6l-.9-.7c0-.5.3-.8.2-1.2,1.1-1.4.5-3.5.3-5.2,1.1-.5-.2-2.2,1.5-4.1.9-1.1.4-1.8-1-2.7l.2-.4h0Zm58.1,17.2c-1.99-2.08-1.01-5.06-2.5-7.2.21-1-.62-2.03-1.6-2.2-.53-1.43-.88-3.16-2.4-4-.1,0-.1-.1-.2-.1-4.1-4.45-7.31,0-9.4-8.2h.6c1.46-3.2,8.78.25,11.1,1.7l-.5-.5c.8-.3,1.1-.5,1-1.4-.1-.8.4-1.1-.3-1.5-.44-.65-2.7-1.29-3.4-1.7-3.41-1.12-7.7-4.52-11.3-4-1.77-2.05-5.24-1.29-7.7-2.3-.35-.49-1.04-.71-1.6-.8.5.1,0,0-.1-.1-.36.05-.81.09-1.1-.2-.23,3.52,1.42,7.25,4.4,9.2.14-.04.19.07.3.1,3.99,3.08,6.04,8.13,10.3,10.9,3.98,5.09,9.72,9.01,13.4,14.6.82.65,1.76-1.15,1-2.3Z"/>
      </g>
      <g>
        <path class="cls-12" d="m116.4,110.6l.1.2c-.1,0-.1-.1-.1-.2Z"/>
        <path class="cls-12" d="m145.4,115c-.5-4.5-7-7.1-8.5-1.2.24,3.04-1.65.55-1.7-.9-.64-1.07-.23-2.53-.5-3.7,0-.6,0-1.2.2-1.7l-.3-.3c.36-2.48.14-4.74-.1-7.1-1.5-3.1-3.6-5.8-6.6-7.9,0-8.8-10.4-15-18.7-13.8-4.1-.3-7.4-4.3-11.8-4.2-6.1-.3-13.6-2.9-17.3,4.2-8.18-3.39-17.95,2.15-16.6,11.6-7,1-11.3,7.7-10.4,14.5-2.3.5-4.5,2.9-4.2,5.1-7.1,1.1-8,10.1-2,13.9-1,1.8-1.9,3.9-1.9,5.9-.8,1.3-.5,3.7.7,4.8.4,1.4.1,2.8,1.2,3.9-2.6,2.9-.8,7.7,2.3,9.6-3.6,4.7,1.6,7.1,4,2.2.9,3.7,5.7,6.2,9.4,5.3,3-1.9-1.2-5.1-.5-7.8,3.3-.9,2.8-4.9,1.7-7,2.4-1.1,3.6-3.8,3.5-6.4,4-.9,4.3-6.3,1.8-9.1,2.3-.7,3.5-3.7,2.1-5.8,0-.5-.1-1-.2-1.4,4,0,7.4-3.5,7.7-7.4,1.6.9,2.4,3.1,4.5,2.8,2.5,1.9,6.2,1.9,7.5-1.3.2-.1.4-.2.5-.3,2.9,4.3,8.9,3.7,12.4.5l.2.2c-.2,1.7,1.5,2.6,2.3,3.7,0-.1-.1-.1-.1-.2.1.1.1.3.2.4-.1.5-.2,1.2-.8,1.4-2.3.6-2.4,4.1-.1,4.8,6-1,11.1-6.8,7.3-12.5,1.11-1.12,3.2.05,3.7,1.3v-.1c.7,1.4-.6,2.8-1.2,4-1,1.7.9,3.7,2.6,2.8,2.3-.1,3.2-3.2,4-5,1.3.9,2.7,1.3,3.8,2.2-2.36,2.61-.23,6.72,1.9,8.6.3,1.8,2.7,3.2,3.7,4.7-.1,1,0,1.6.5,2.6-.8,2.8-1.2,5.7-1.1,8.6-1.1,2.9-2.9,6.3-2.1,9.5-3.96,9.17,7.53,3.53,3.2-3.2,0-.1.5.7.5.6-1.14-2.21,8.18-7.59,3-12.9.1-.2.1-.4.2-.7.9-.2,1.8-.9,2.2-1.7,3.5-1.9,1.9-6.1.5-8.8,4.1.5,8.1-3.3,7.4-7.3h0Z"/>
      </g>
      <path class="cls-11" d="m136.9,231.5c-1.2.5-2.5.5-3.8.8-1-.6-2.5.5-3.7.7-1.5-.3-3.7.7-4.9,1.7-1.1.7-3.2,3.1-4,2-4.7-7-4.2-14.2,3.5-15.6,2.3-8.9,11.5,7.2,13,10.1-.1-.1-.2.2-.4.3h.3Zm-6.4,11.3c3.34-2.65,7.47-3.08,11.3-4.5.5,1.1,3.2,3.6,2.7,4.9-4.9-.3-9.6.6-14.2,2.3-.42-.42-.79-.89-1.1-1.4,0-.5.8-.8,1.3-1.3Z"/>
      <path class="cls-12" d="m98.4,745.4c.1-3,.5-4.9.9-7.8.9-.5,1.1-1.2,1.6-.4,1.4.7,1.8,2.6,2.3,3.9,3.74,4.41,7.67,8.32,12.5,11.7,2,1.4,5.7,1.6,6.5,4.1,3.6,2.1,7.7,2.9,11.5,4.4,1.91-.5,3.81-.37,5.8-.6-3.1-4.7.3-11.8,3.5-15.4,7.22-14.69,11.3-9.63,21.7-2.1,4.96,1.61,9.12,5.51,11.7,9.9,11.21,7.37,27.48,13.32,38.5,19.4.4.3-.3,1,.1,1.3,6.29,2.93,4.21,10.9,3.1,16.2.8.8-1.3,1.6-1.1,2.6-3.27,13.87-29.36,10.29-40.5,8.9-10.88-2.05-23.71-4.71-32.9-11.4-2.1-1.6-5.1-2.5-6.9-4.3-1.4-1-3.8-.4-4.5-2.1-9.88-4.53-20.29-.37-29.6-10.1-5.64-3.26-3.5-6.47-3.8-11.6-.78-3.73-.37-11.66-.1-15.6-.5-.1-.9-.5-1.1-.9l.8-.1h0Zm-48.5-74.9c.1-4.8,4.9-13.6,8.9-16,.9-2.4,3.4-8,6-3.6,2.82,4.03,7.84,5.22,10.8,9.1,3.9,1.6,8.4,2.4,11.7,5.3,2.1.4,4.1,1.3,6.2,1.5.3-.4.5-.9.8-1.3-3.27-6.87,5.06-10.49,10.6-8.8,4-1.2,6.1,3.2,7.1,6.3,2.7,1.9,6.4,3.4,7.5,6.7-.98,9.02-6.3,17.9-10.8,24.8-.6,1.9-2.1,3.4-3.3,5,.1.4.1.8.2,1.2,2.9,2.5-2.1,5.6-3.5,2.2-2-.2-3.7-1.8-5.7-2.5-3.13-.51-6.6-3.07-8.3-5.5-2.1-1.7-4.8-2.6-6.3-4.8-.3-.3-11.3-5.1-11.1-5.5-4.3-.7-25.9-8-20.8-14.1h0Zm97.8,43.4c2.1-2.3,2.2-6,4.7-7.9.3-2.6,3.4-9.7,6.1-5.2.9,2.7-1.4,4.8-1.4,7.4-1.1,3-.9,7.6-4.8,8.1-1.7,1.4-5.3-.2-4.6-2.4h0Z"/>
      <path class="cls-5" d="m99.5,130.4c2.99-.3,2.88-3.24,1.3-5.1-2.06-1.56-4.7-2.79-7.2-1.5-2.01-.35-6.86,2.98-3.6,4.9,2.07,2.28,5.56,3.45,8.5,2.4.2-.3.7-.5,1-.7Zm27.5-4.8c-3.07-3.53-12.39-1.2-8.6,4.1,3.22,3.28,11.66,1.03,8.6-4.1Z"/>
      <path class="cls-7" d="m98.4,124c-1.01-1.5-3.2-1.92-4.4-.4-.29.52-.41,1.24-.1,1.7-.22,1.96,2.53,3.49,4,2.2.8-.5,1-1.61,1-2.5-.2-.1-.3-.5-.5-1Zm26.6,2c.17-2.63-4-3.09-4.1-.3-.6,1.31.43,2.71,1.8,2.8.36,0,.71-.1,1-.3h.1c.2-.16.25-.25.4-.4.1-.1.2-.3.3-.4,0,0,0-.1.1-.1.1-.1.2-.4.2-.6.2-.2.2-.4.2-.7h0Z"/>
      <path class="cls-4" d="m115.5,163.4c-.66-1.11-2.21-1.31-3.2-.4-.64-.28-1.47.3-2.1.3-1.19.08-2.34-.2-3.5-.5-.1-.1-.3-.1-.4-.2-.1,0-.1-.1-.2-.1-1.84-2.58-6.36,1.27-3.4,3.2,3.11,1.88,13.84,3.55,12.8-2.3Z"/>
      <g>
        <path class="cls-14" d="m212.7,462.4c.4-1.6.5-3.2,0-4.8.4-.9.5-2-.2-2.5,1.2-11.2-9.7-9.9-13.7-1.9-4,5.4-23.1,31.6-19.1,36.5,3.5,11.6,6.1,25.1,11.2,36,1.1-1,2.1-3.8,2.7-5.2-.2-.5.2-.4,0-.9,1.6-.3,2-2,1.3-3.4,7.91-16.84,14.69-35.12,17.8-53.8h0Zm-72.1,120.1c-1.6-6.5-2.9-13.5-6.9-18.9-1.1-2.1-.5-6-2.9-7-.4-1.5-1.6-2.7-2.1-4.2-14.2,2.5-11.9,20.5-16,31.2-2.5,13.1-8.4,26.2-6,39.6-.1,3.6,10.1,24.6,12.5,15.1,3.68-3.55,10-8.68,9.1-13.5,1.7-19.45,19.57-24.21,12.3-42.3h0Zm6.9-261.9c-.2.1-.4.1-.6.2,1.1-3.1-.2-6.9-.6-10.2.2-.1.4-.3.5-.4-.2-1.5-.3-3-.3-4.5-.3,0-.7.2-1,.3-.6-1.5-.7-3.4-1.8-4.7-.5-2.8-.2-8.1-3.6-9-2.7-.1-11.1,1.6-7.5,5.4-9.12,4.71-18.09,9.24-27,14.5-2.4-1.9-5.9,1.1-8.4,1.9.52-1.62,2-2.64,2.5-4.2,5.3-4.1.2-14.1-5.9-9.2-3.2,2.6-1.9,7.3-4.5,10.3-3.5,6.3-11.1,8-16.2,12.6-5.2,5.9-9.6,12.4-14.7,18.3-.4.4-.9,0-.8-.5-.1,0-.1-.1-.1-.1-.3.4-.6.7-1,1.1l.4-2c-1.15-1.03-2.28-2.84-2.7-4.3-6.1,21.7-23.5,18.7-18.5,24.3-2.8,6.1-11.3,3.1-14.3,8.5.24-.25.6-.16.8.1.3-.1.5,0,.7.2.73.44,1.32,1.15,1.9,1.8l.3-.6c.78,1.1,2.09,1.51,3.3,1.6-.2,1.2.5,2.4,1.3,3.4.3,2.5,1.6,4.7,3.9,6,.4,1.6,2.6,2,3.9,1.3,1.2,1.8,3.9.3,5.3-.5,1.8,1.1,3-1.2,4.1-2.3,4.88-1.3,9.37-13.41,14.3-17.7,2.6-.6,6.9-4.5,7.3-7.1,1-.9.7-3-.9-3.5,4.02-6.19,8.33-12.36,12.7-18,0,1.3.6,2.6,1.4,3.6-.3.7-.1,1.4.3,2-.1.5,0,.9.2,1.4l-1.5-.6v.1c1.2.9.2,3.3.4,4.7.4.5.3.7.1,1.3-.1,1.2.2,2.9-.6,3.8,0,.2-.1.3-.1.5.5,0,1-.1,1.5-.2-.2.2-.3.5-.4.8-.5.3-.9.6-1.4.8.7,1.1-.4,2.8-.8,4,13.9-12,30.1-20.4,47.9-25,7.7-1.8,14.7-5.4,20.8-10.3,0,0-.3,0-.6.1h0Zm40.1,63.7c0-.6-.3-.6-.3-1.2-.1-.2.3-.7.1-.8-.3-1-.2-2.2-1.1-2.7.5-3.6-1.1-6.6-1.8-10,.2,0-.2.1,0,0-.2-1.5-.7-3-.9-4.4-10.2-1.8-8,10.8-13.6,15.4-7.5,5.6-14.7-2.3-14.4-10.2-.6-10,3.9-25.6-7.6-30.9-.2,2.4-.6,4.8-1.1,7.1l.3.6c-.8.3,0,1.2-.5,1.6,1.18,16.02-5.1,32.63-2.9,48.2.17,13.65.66,27.65,1.8,41.4,13.6-2,14.8-5.2,15.1-17.7,7.45-13.03,30.65-18.42,26.9-36.4h0Zm53.3-284.4c2.42-7.71-10.28-26.19-17.4-28.9-.7-.9-1.4-1.8-2.1-2.8.26-1.53-2-5.01-3.6-4.6-.41-1.17-.84-2.51-1.7-3.4.2-.8,0-1.8-.7-2.2-1.02-2.22-1.36-6.18-3.2-7.5-.5-4-1.6-6.8-3.6-10.3.1-.1-.6-.1-.6-.2-.9-1.7-3-2.7-3.2-4.4-1.12-1.03-2.43-2.15-3.3-3-2.8,1.9.4,5.3,2.1,7.1,5,6.8,4.7,16,8.4,23.5,7.8,11,13.1,23.1,18.3,35.5,4.6,11.9-2.8,22.8-9.3,32.1-.5-.2-1.1-.4-1.6-.2-2.28-1.77-4.76-4.07-7.7-4.7l-.1-.1c-1.1-4.4-6.6.2-3.4,2.7.2,2.6-.4,6.7-.5,9.4-2.46,6.96-11.7,10.19-15.2,17.2-7.7,11-12.3,31.7-30,25.6-5.4-1.6-12-6.9-17.1-2,.2.3.5.5,1,.6.6.6,1.5.7,2.3,1,.1.3.3.6.5.8.1.4.2.7.5,1v.1c11.01,6.4,20.13,15.39,27.6,25.4,1.49-3.35,1.91-6.71,2.4-10.2.5-.4.8-.9.9-1.6.2-.2-.4-.7-.2-.9,4.17-10.84,17.56-17.81,21-29,1.6-3.7,1.9-8.1,5.9-10.2,0-.5-.1-1.2.2-1.7.4.5,1,.7,1.6,1.1.3.9,1.2,1.2,2,1.1,1.9,1.3,6.8,4.6,7,.7.1-.1.4-1.3.5-1.4,5.1-4.8,4.6-13,8-18.9.2-1,.4-1.9-.2-2.9l.6-.3c1.1-2,2.3-4.4,4.2-5.6.09-.19.29-.31.5-.3.4-.8,1-1.7.6-2.6,3.54-6.29,7.68-12.37,9.9-19,0-2.07-.45-4.11-1.3-6Zm-41.6,525c-17.9-13.3-21.5,44.6-63.5,62.3-12.3,4.2-18.4,7.9-9.1,20.3-1,9.7-25.1,14.1-17.4,29.2,0-.3-.1.2,0,0-3.07,2.93-4.16.03-7.9-.1-5-.2-2.7,31.3-1.9,35.7.8.1,1.3,1,1.9,1.5.4,0,.8,0,1.1-.2.4-.2.4,0,.4.2.3.6.9.9,1.5.9.2.8,1,1,1.7,1.3,0,.6.7.6.7,1.2,1.8.7,3.44,1.64,5.1,2.6,0,.2,0-.2,0,0l3.3.6c3.2,3,8.2,1.3,12.1,2.3.9-.5,2.8.3,3.4,1,.6,0,1.3.1,1.9,0,2.1,1.8,3.9,3.9,6.4,5.3.7-6.6,2.2-13.3,3.1-19.7-.2-.3-.4-.6-.7-.8.4-.7.7-1.6.6-2.5.2-.1.5-.2.7-.4.1-1.4-.8-2.6-1.6-3.6-.3,0-.2-.3-.5-.3.2-.2-.1-.1,0-.4-.7-1-1.3-2.2-1.3-3.4-.3-.2-.6-.4-1-.5-1.08-7,6.08-12.21,9.2-18.1,1-.1,1.6-.6,1.6-1.7.3-.1.5-.5.8-.7.4.3.7.4,1.1.7,1-.4,1.9-1.3,2.9-1.6v-.5c-1-1.31-4.64-2.61-3.8-4.3-.5-.8,0-2,.3-1.3.1-1.1.2-1.2-.4-2.1,0-.7-.8-.9-.7-1.6-1.3-1.1-1-2.3-1.7-3.7-.6-.3,0-2.4-.1-3-.1.4-.3.8-.4,1.2-.1-.9.1-2-.5-2.7l2.1-5c.87-2.62,1.14-6.1,3.7-7.8,5.26-10.19,12.08-19.08,18.1-28.7,0,0,0-.1.1-.1.8-4,4.4-7.9,7.1-11.2,5-8.2,8.8-17.4,14.6-25.1,2.6.8,3.1-2.6,3.4-4.4.4.2.6-.7,1-.8,1.2-2.7,2.2-4.5,3.9-6.9-.2-1-.3-2.3-1.3-3.1h0Zm16.2-265.1c0-1.3-.4-2.9-1.7-3.4-2.38-10.49-10.11-17.77-14.9-27-.1.1-.2.1-.3.1.4-1-1.3-2-.4-2.8-2-4.2-4-8.1-4.9-12.6-2.3,11.3,1.2,22.6.2,34.1.41,12.4,11.09,17.84,21.5,11.8l.1-.5.4.3h0Zm-75.9-146.7c-3.44-8.73-2.12-15.71-13.6-17-.2-.8-.9-1.4-1.7-1.4,0-1.1-.1-2.2-.3-3.3.4-.2.8-.5,1.2-.8,1,.5,2.2.7,3-.3.83.37,1.47,1.31,2.4,1.3.2-1.1,1.3,0,1.9.2.8-.9,2.3.9,3.3,1,1.2-.9.7-3.2-.8-3.4-2.1-.3-3.7-1.9-5.6-2.9.2-.3.4-.6.6-1,3.9-2.2,5.2-8.3.3-10.1-1.1,0-3.2.5-3.9-.4-.4-.1-1.1-.5-1.3-.9-1.1.2-1.4.8-1.3,1.8-1.3,1.7-4.5,2.7-4.5,5.2-.6.6-.8,1.2-1.2,1.9-.8-.5-2.2-.5-3.1-.3-.9-.4-1.8-1.1-2.8-.9-.2-.3-.4-.5-.6-.9h-.6c-.1-.3-.2-.6-.4-.9.1-.1.1-.2.2-.2-2.3-4.02-9.77-2.26-13.5-4.9-6.9-3.3-13.2-7.5-19.4-12-2.39-1.66-4.75-3.89-7.6-3.7-3.5,3.4,2.4,8,4.3,10.8,9.6,12,28,27.5,44.2,24.2.3.6.6,1.2,1,1.7-.1.1.3.4.2.5,4.1,5,9.6,7.7,13.4,12.9.9-.9,1.7,2.1,2.3,2.5,1.6-.1,3.3,2.9,4.2,4.1.2-.3-.1-2.4-.3-2.8h0Zm-68.8,79.9c-2-2.2-13-12.5-15.4-11.2-.1-.6,0-1.3-.2-1.9-.4-.3-.3-1.1-.5-1.6.7-8.9-10.4-4.7-8.1,2.8,1,8.2,1,16.3-.7,24.5-.4,4.7-3.5,11-.9,15.1-.1.1-.1.2-.2.3h.1c2.2-3.5,1.3,2.4,2.2,3.6,1.8-2.5,4.5-4.5,6-7.1-.5-1.2-.5-2.5-.6-3.7-.3-.1-.5-.2-.8-.2v-2.1c3.8-5.6,2.6-14.1,3.2-20.7,1-.6,1-1.8,1.1-2.8,3.2,1.7,4.6,5.4,6.9,7.9.41,1.18,2.27,3.28,2.7,5.1l2.7-4s0-.1-.1-.1c.1-.1.2-.2.3-.4.1,0,.1.1.2.1.7-1.3,1.6-2.5,2.7-3.4-.1,0-.3-.1-.6-.2h0Z"/>
        <path class="cls-14" d="m144.3,111.7c-.73-1.06-2.22-1.67-3.4-.9-1.41-.44-2.76.08-3.5,1.4,0,.1-.1.2-.2.3-.24.65-.46,1.14-.5,1.9.02.35.1.66-.2.9-.89.21-1.14-1.17-1.4-1.8l-.2-.2c-.37-1.58.41-4.04-1.3-5,.89-3.85,1.19-8.38-1.5-11.6-2.56-3.8-9.31-8.05-13-3.6-1.8-1-4.2-.2-5.1,1.7-1.78,5.65,5.11,10.87,2.8,16.8-.28.56-.98,2.71-1.5,3.1-1.35,2.19,2.14,4.23,3.4,2,0-.1.1-.1.1-.2,1.2-1.1,2-2.7,2.4-4.4.22.38.61.8,1.1.9,2.58,1.73,6.07,4.51,9.2,2.9.1.4.3.7.5,1-.8-.82-2.07-.59-2.9.1-.58-.5-1.2-.62-1.8-1-2.12-1.38-4.32,2.19-2,3.4.1.1-.3.8-.2.9,1.19,4.02,5.82,5.5,6.8,9.5-1.32,3.32-1,7.11-1.5,10.6-.9,1.43-1.75,3.19-1.7,5,.1,1,.6,3.9-.5,4.5-4.21,4.19,6.72,7.15,4-5.3,1.07,0,2.16-.98,2.1-2.1.76-.43,1.51-1.13,1.4-2.1,1.98-2.59,2.14-5.12-.1-7.2,3.72-4.71,6.74-6.82.7-11.8,5.68,4.08,12.29-5.05,8-9.7h0Zm-10.8,7.9c-.2-.1-.5-.1-.7-.1,0-.1,0-.2-.1-.2,0-.2-.1-.3,0-.1-.05-.5.15-1,.1-1.5.95,1.15,2.15,2.05,3.1,3.2-.8-.5-1.6-.9-2.4-1.3Z"/>
      </g>
      <path class="cls-18" d="m112.7,241.3c11.88-7.06,34.66,32.52,22.6,39.2-11.87,7.04-34.73-32.53-22.6-39.2h0Z"/>
      <path class="cls-17" d="m165.8,2.3c27.01-13.16,50.84,35.98,24,49.2-27.39,12.81-50.69-35.46-24-49.2Z"/>
      <path class="cls-16" d="m94.1,125.8c34.98.04,35.42,22.56.3,23.3-34.98-.04-35.42-22.56-.3-23.3Z"/>
      <path class="cls-15" d="m119,127.1c21.88-.16,22.09,22.97.2,23.3-21.89.17-22.08-23.05-.2-23.3Z"/>
      <g>
        <path class="cls-10" d="m65.6,183.5c-.75-.88-3.07.39-4,.4-4.4.28-8.65,3.49-2.4,5.7,12.01,2.4,16.04,1.59,25.2,9.4-4.36-9.21-16.46-8.4-25-10.6-6.94-3.04,5.87-2.71,6.2-4.9Z"/>
        <path class="cls-10" d="m57,187.4c.1,0,.2-.1.3-.1.1-.1.2-.3.1-.4-3.02-3.24-.73,5.26-.8,6.1.37,3.25.35,7.55.7,10.8,2.76,1.94.23-15.35-.5-17.1l-.1.4c-.2.2.1.2.3.3h0Zm26.4,10.8c-3.4,2.26-2.72,7.55-3,11.1.27,1.42-.98,5.1.75,5.41,1.82-4.64-1.35-11.94,2.75-15.61.5-.3.1-1.2-.5-.9Z"/>
        <path class="cls-10" d="m57.3,203.5c5.58,3.43,13.13,4.34,18.3,8.8,4.65-1.5-16.54-9.97-18.4-8.9q.1,0,.1.1h0Zm24.1-7.3c4.18,3.26,7.49,10.61,10,15.2,3.83,6.35,10.91,9.37,15.4,15.2,1.79,1.04,7.01,11.77,7.7,9.7-3.59-11.06-14.77-16.45-21.6-25-2.14-2.8-8.2-17.08-11.5-15.1h0Zm28.9-14.9c3.41,1.49,7.62,1.64,11.1,3,5.1,2.08,11.67,3.55,15.1,8.2.2.4.7.2.8-.1.35-5.49-22.34-12.34-27-11.1h0Z"/>
        <path class="cls-10" d="m120.6,183.3c-.1.76.52,1.08.9,1.6,1.21,1.8,2.08,4.03,2.1,6.2.48,13.61,11.23-4.22,17.2,28.5,2.8,1.39-1.02-8.88-1.2-10.2-1.84-4.97-4.04-11.78-9.9-13-1.3-.2-3,0-3.8-1.2-1.53-4.01-.43-8.98-4.4-11.9-.12-.21-.81-.15-.9,0h0Z"/>
        <path class="cls-10" d="m124,190.7c.2.4.5.4.9.3,4-.42,7.61,1.25,11.2,2.6,1.37-2.24-11.4-5.26-12.1-2.9Zm-11.6-2.4c3.47,2.63,6.42,6.63,9,10.2,9.98,9.04,19.03,19.08,27.4,29.6,2.09.14-2.25-4.3-2.6-5.1-5.73-7.51-11.85-14.75-19.1-20.8-5.24-3.02-9.16-13.97-14.7-13.9h0Zm-55.9,16.9C31.35,215.55-.2,233.09.7,264.2c1.82,1.77,1.19-6.71,1.9-8,3.78-19.27,20.23-32.83,36.9-41.5,1.54-1.6,20.8-9,17-9.5h0ZM1.2,266.8c-.67,2.33.23,6.69.1,9.2,0,0-.1,9.7-.1,9.7-.71,10.81-3.7,17.8,10.2,18.6.6.3,1.1-.5.5-.9-2.12-1.62-4.72-.9-7.1-1.8-3.94-2.15-2.81-7.35-2.5-11,.53-6.14.61-12.85.1-19-.35-1.26.08-4.1-1.2-4.8Z"/>
        <path class="cls-10" d="m7.5,243.4l-.5.5c11.77-1.63,23.68,1.64,32.9,9.3.4.4,1.1-.2.6-.6-6.6-6.8-16.3-10.4-25.7-10.5-2.62-.01-5.33.17-7.8,1-.9.4.5,1.3.5.3h0Zm47.9,35.8c.83-.17-.13-1.62-.7-1-.88.63-.07,4.87-.2,5.8,0,0,0,4.6,0,4.6-.39,5.32-.28,13.02-1.9,18.1-1,2.96-2.27,6.43-1,9.5,2.02,1.3.94-2.89,1.2-4,3.49-10.71,3.37-22.63,2.9-33.7.2-.3-.1.2,0,.2-.4.3-.4.5-.3.5h0Z"/>
        <path class="cls-10" d="m55.2,287.8c2.63,1.4,4.2,4.42,6.4,6.1,2.51-.66-8-10.28-6.4-6.1Zm101.9-56.6c-.2,0-.2-.1-.3-.2.11-.46-3.17-.84-3.4-1-2.84-.34-6.18-1-9-.4-.84,2.16,4.51.81,5.8,1.4,0,0,2.9.3,2.9.3.66-.1,3.73.98,4-.1h0Z"/>
        <path class="cls-10" d="m144.9,229.7c-10.97-.37-22.85,3.59-30.8,11.3-.71.53-3.46,3.53-1.2,3.4,7.81-10,20.73-11.95,32.2-14.4-.1-.1-.1-.3-.2-.3h0Zm13.5,3c.35.47.72-.5,0-.5-1.73,2.11-3.12,5.23-6.4,5.7-7.28.03-15.75-.68-21.7,4.6-.4.3.1,1,.5.7,3.79-2.25,8.21-3.16,12.5-4,5.55.08,12.3.96,15-5.3.08-.34.85-1.17.1-1.2.1-.1,0-.1,0,0h0Zm1.6,24.3c.1,0,.1-.1,0-.1s-.1.1,0,.1Z"/>
        <path class="cls-10" d="m160.4,256.9c1.85-22.66-31.05-15.25-42.3-6.2-.7,3,4.15-1.46,5.3-1.8,11.59-6.48,36.32-11.3,37.1,7.8-.2.2-.2.3-.1.2Zm-.8.5c-.65,0-1.64,0-2.3,0-.65.19-2.3-1.16-2.3-.1.89,1.33,3.15,1.36,4.5.8.37-.11.72-.69.1-.7h0Zm-6.7,13c7.33-8.06,2.26-13.45-5.4-18.4-6.15-2.83-17.57,1.19-22.1,5.9-.52,2.42,3.37-1.24,4.1-1.5,4.77-2.36,10.7-4.62,16-3.9,4.12,2.18,9.09,5.73,9.9,10.6.28,2.01-3.59,5.93-2.5,7.3h0Zm-19.7-2.5c.66.14,1.57-.75,2.1-1.1,8.63-7.19,17.12,2.77,12.5,11.4-3.46,2.96-7.34,5.32-10.3,8.9-1.2.8-2.9,1.1-4.1.2-.5-.4-1.4.1-1,.7,1,1.3,2.6,1.5,4.1,1.1,3.43-.87,4.83-4.84,7.8-6.4,1.3-.9,2.8-1.6,3.9-2.8,4.18-4.55,2.36-14.17-3.7-16.3-3.99-1.11-9,1.19-11.6,4.2.1,0,.2.1.3.1h0Zm-.9,18.3c1.12-.78,1.16-3.22,1.7-4.4.29-1.37.43-3.15,2.3-3,2.03-.41,5.86-.59,6.4-3.1-.72-1.26-2.58,1.3-3.8,1.2,0,0-3.9.7-3.9.7-1.69.19-1.92,2.11-2.3,3.5-.06,1.11-2.11,4.87-.4,5.1h0Zm-4.1-3.5c-5.95,8.26-16.23,15.62-25.4,21.1-1.36,6.41,32.34-20.83,25.6-21.2-.2-.2-.3,0-.2.1h0Zm-18.9-37.3c-.2,0-.3,0-.4.1v.1c-1.6-1.07-15.63,11.36-10.3,10,2.67-4.11,7.16-6.6,10.6-9.7l-.2.3c.2-.1.3-.3.5-.5,0-.2-.1-.4-.2-.3Z"/>
        <path class="cls-10" d="m98.4,254.1c-7.16,5.41-10.75,14.93-12.5,23.6-.79,2.17-1.85,5.17-3.1,7.1-.1.2.1.4.3.2,7.38-8.35,4.72-18.38,13.6-27.3.48-.63,2.95-3.36,1.7-3.6h0Zm3,52.1c-6.4,15.52-21.42,24.82-30.1,38.8-.5.69-2.05,3.43-.2,3,8.9-14.87,25.21-24.58,31.3-41.2.3-.7-.7-1.2-1-.6Zm-20.2-20.1c-11.07-.48-17.76,17.7-23.8,24.6-.43,1.27-8.18,10.23-4.9,9.7,3.6-3.91,7.75-11.12,10.9-15.5,5.67-7.82,7.82-15.41,17.9-18.4.3,0,.1-.3-.1-.4h0Zm-31.3,33c-.23,1.3,1.5.23.3-.5-4.05-1.52-5.37,3.76-3.4,6.5,5.41,10.04,10.04,23.31,21.2,28.1,1.56.65,5.1,1.34,5-1.3-.89-3.19-4.23.29-1.4.5-.4.1-.3-.1-.4-.2-.2-.6.2-.1,0-.2-2.33-.13-4.62-1.36-6.5-2.7-3.28-1.3-23.68-31.66-14.9-30,.1,0,.2.1.3.1.1.3.1.1-.2-.3h0Z"/>
        <path class="cls-10" d="m71.2,352.1c-7.84,7.97-15.95,16.38-21.4,26.2-.2.4.4.7.7.4,7.32-8.44,14-17.49,21.8-25.6.6-.6-.4-1.6-1.1-1Zm-25-33.6c-2.71,1.93-6.58,5.22-9.4,7.1-1.65,1.13-16.74,9.42-6.8,6.1,1.68-.44,20.78-12.56,16.2-13.2h0Z"/>
        <path class="cls-10" d="m52.6,376.3c-12.06-12.73-23.6-22.53-24.8-41.5-3.06-1.36-.47,8.14-.1,9.7,3.63,12.49,14.37,25.97,24.9,31.8h0ZM2.6,304.4c1.59,8.25.18,17.1-.1,25.4.02,12.16,2.26,26.45,9.6,36,20.84-.42,14.33,28.01,36.8,15.1,1.86-3.34-4.74.14-6,.4-12.13,6.89-12.59-19.18-30.7-17.5l.8.4c-5.83-10.19-8.84-22-8.7-33.7,0-2.88,2.45-29.52-1.7-26.1Zm108.4-66.3c-2.02-4.72-19.35-21.87-23.1-20.5,8.71,5.54,16.24,12.7,22.9,20.5.1.3.3.1.2,0Zm28.1,48.8c12.49,28.96,7.47,61.22,4.7,91.6-2.58,21.9,1.28,43.81.9,65.7.21,1.35-.95,5.72.8,4.1,1.61-22-2.42-44-.4-66,2.19-30.6,9.24-67.2-5.3-95.7,0-.6-.8-.3-.7.3h0Zm-58.7,47.5c-.48,1.1.15,3.05.3,4.2,1.52,10.48-1.74,20.82-4.3,30.9-4.15,18.06-5.86,41.89-2.4,58.1-.49-18.82-.95-37.94,3.8-56.3,2.24-11.1,8.94-27.15,2.6-36.9h0Zm62.8,113.7c-19.32-.9-38.61-5.69-56.8-12.3-2.1-.05-14.83-9.1-13.6-6.5,9.94,10.58,57.95,22.79,70.4,18.8h0Zm-22.5-134.2c-9.4,55.14-26.64,44.62-43.6,83.8,5.77-10.46,13.72-22.53,23.4-31.1,13.13-13.52,19.28-35.56,20.2-52.7h0Zm-7.5,55.2c-4.87,6.98-9.65,16-15.8,22-5.05,4.21-11.49,6.2-16.7,10.2-.2.2,0,.6.3.5,8.25-3.45,17.58-7.16,22.4-15.2,1.78-2.81,6.09-9.58,7.7-12.4.44-1.13,3.12-4.71,2.1-5.1Zm-28.2-139c-10.32-1.29-21,.51-30.9,4.3-1.27.65-10.39,3.03-8.2,4.2,11.72-4.17,23.91-9.18,36.6-7.6.87.48,4.38.03,2.7-1-.2-.2-.3,0-.2.1h0Zm72.6,9c22.24,25.23,15.14,62.36,19.4,93.3,1.42,22.73,11.31,44.51,9.7,67.4-1.02,14.5,3.36-8.7,1.6-12.4-2.1-17.24-7.37-33.98-9.3-51.3-3.78-23-.02-46.85-6.6-69.4-2.7-10.18-6.01-21.09-14.2-28.1-.5-.4-1.1.1-.6.5h0Zm12.2-39.8c47.8,56.01,12.42,90.27,24.3,154.8,2.43,12.66-.51-10.21-.5-13.2-2.85-28.73,4.51-57.4,3.8-85.9-1.62-20.14-13.97-43.96-27.6-55.7h0Z"/>
        <path class="cls-10" d="m193.1,313.4c.27,17.8,16.82,30.3,21.4,46.8,2.98,1.7-1.14-8.29-1.8-9.3-4.79-9.07-11.85-16.7-15.4-26.4-1.94-3.42-1.76-8.35-4.2-11.1h0Z"/>
        <path class="cls-10" d="m215.1,357.1c-4.39,16.94-11.35,42.48-29.2,49.5-.93,3.1,8.8-2.64,9.6-3.9,8.72-8.14,21.54-34.6,19.6-45.6h0Zm-77.3-127.4c-.4-.6-1,.4-1,.7h.8c-2.7-4.2-6.53-8.7-9.7-12.6-3.22-.46,3.46,6.2,3.9,7.2.82.59,5.28,7.49,5.8,5.3,0,0-.2-.7,0-.5.1.2.3,0,.2-.1h0Zm-11.4-10.7c-.1-.3,0-.6.3-.8l-.1-.4c-2.66.25-3.45.51-2.4,3.4l.4-.9c-6.57,1.84-9.21,5.92-6.5,12.4.11.76.99,4.23,2,2.4-.08-3.03-2.5-5.98-1.6-9.1.9-2.7,3.9-3.8,6.4-4.6,1.1-.48-.23-1.84.1-2.8l-.6.6c.7,0,2.6-.3,2.3-1.3,0-.2-.2-.2-.4-.1-.55.18-.3,1.72.1,1.2h0Zm15.7,19.7c-.06.37.06.68.2,1l-.1-.3c1.89,6.04,4.64,4.57.7-.3l.2.2c-.2-.3-.4-.7-.8-.8l.2.1-.1-.1c0-.3-.5-.2-.3.2h0Z"/>
        <path class="cls-10" d="m129.1,219c.1,0,.2.1.3.1l-.2-.2c3.24,2,6.22-8.78,2.8-9.8-.3-.1-.5.2-.4.4,1.06,3.25.27,7.28-2.4,9.4l.2-.2c-.28-.07-.75.06-.3.3h0Zm4,4.1c2.06-.82,3.43-3.25,3.8-5.4.24-.8-.57-1.89-1-.7l.1-.2c-.86,2.05-1.92,3.79-3.4,5.4l.1-.3c-.42.32-.12,1.39.4,1.2h0Zm-16.5,3c-.75-.3-5.74-1.82-5,0,.56.5,6.29,1.91,5,0Zm1,5c-.25-.46-.77-.4-1.2-.4-.83.03-1.28-.17-2.1-.2-.8-.46-2.6-.03-1.5,1,1.43.41,3.79.87,4.9-.2-.1,0-.1-.1-.1-.2h0Zm-29.8,39.8c-1.37-.3-3.36,1.67-4.6,2.2-1.5.9-3.2,1.8-4.5,3.1-2.72,2.2-.21,4.63.8,6.9.1.2.4.4.6.2,1.83-1.47-.86-2.89-1.2-4.4.1-2.67,7.43-5.22,9-7.5.1-.1,0-.3.1-.4,0-.1-.1-.1-.2-.1h0Zm41.7,17.1c.69,3.24,4.83,8.36.1,10.6-7.56,4.93-15.75,9.17-23.7,13.3q.1.1,0,0c0-.1-.1-.1-.1-.2-2-2.89-3.48,1.83-1.3.4l-.3.1h.1c.13.42,1.13,1.61,2.3.9,4.13-2.04,8.55-4.3,12.6-6.5,5.22-3.93,17.41-6.49,12.9-15-.59-1.05-1.32-3.77-2.6-3.6h0Zm15-78.3c.01.09.45.25.5.3l-.2-.2c.2.46.89.25,1.3.4l-.3-.3c.36.24.68,1.29.6,1.4-.05.21.12.8-.1.9.03.04-.05.19-.1.3l-.3.3c-.15.05-.25.15-.4.2.09,0-.18,0-.2,0,.09,0-.18,0-.2,0,.15,0-.16,0-.2,0l-.1-.1c.1.1-.1,0,0,0l-.2-.2c.08.15.02-.2-.1-.2v-.3c0,.08,0-.5,0-.6l.3-.3c.1,0,.1-.1.1-.1l-.3.1h.1c-.1,0,.2,0,.2,0h-.1c.91.52.87-1.2,0-1q-.1,0,.1,0c-3.53-.27-1.07,5.64,1.9,3.3,2.24-1.32.85-6.28-1.8-4.6l.3-.2c-.24-.06-.43.08-.6.2-.2.4-.3.6-.2.7Zm26.3,34.7c.28.14.78.1,1.1.1-.1,0,.1,0,.1,0,0,0,.2.1.1,0q.1,0,.2.1c.2.1-.1-.1.1,0,.1,0,.1.1.2.1l.4.4s0,.1.1.1c.17.52.13.8,0,1.2l-.1.1s0,.1-.1.1l-.2.2c.1-.1-.1.1,0,0l-.1.1s-.1,0-.1.1c-.11.1-.37.06-.4.2.1,0-.2,0,0,0-.18-.04-.63.11-.7-.1-.14.04-.19-.07-.3-.1l-.3-.3c.1.1-.1-.1,0,0-.13-.1-.23-.26-.2-.4,0,.1-.1-.1,0,0q0-.1-.1-.2c0-.1,0-.2-.1-.3.03.12-.09-.76.1-.9,0-.1.1-.2.1-.3l-.6.5c.2,0-.1,0,0,0h.2c.08.09.23.19.2.3.8.66,1.08-.68.4-1.1,0-.1-.1-.1-.1-.2-3.7-2.3-1.29,8.15,3.5,3.1,1.81-3.3-3.73-5.19-3.4-2.8h0Zm9.4,51.9c-.1-.1.2.1.1,0,0,0,.1,0,.1.1h.1c-.1,0,.1,0,.1,0,.11-.07.23.23.3.1.1,0,.1.1.2.1.11.11.29.29.4.4.08.12.05.23.2.3q0,.1.1.2c0,.13,0,.25,0,.5-.03.06-.13.23-.1.3.1-.1-.1.1,0,0-.15.13-.24.33-.5.3,0,0-.2.1-.1,0h-.3c.1,0-.1,0,0,0h-.3c-.16.05-.31-.1-.5-.1.19.19-.05-.05-.1-.1.04-.14-.07-.19-.1-.3,0-.13.03-.19-.1-.3v-.1c0,.1,0-.1,0,0v-.3c0,.1,0-.1,0,0,0-.1,0-.2.1-.2v-.1c0-.1-.1.1,0,0,.06-.08.27-.65.2-.3q-.1.1,0,.1l-.2.1c.2-.1-.2,0-.1,0h-.1c.96.94,1.18-.8.3-.8-.1-.1-.2-.1-.3-.1l.3.1c-2.15-.35-1.66,3.47.1,3.8,3.56,1.16,4.08-5.02.4-4.2-.16-.13-.81.41-.2.5h0Zm2.6,38.1c.69.54,1.43,1.09,1.9,1.8,0,0,.1.1,0,.1.1.2.05.4.2.6v.1c0-.16,0,.37,0,.4,0-.15,0,.16,0,.2,0,0-.1.2,0,.1-.02-.07.06.2-.1.2l-.2.2c.1,0-.1.1,0,0-.26.12-.84.36-1.1.1-.15,0-.32-.06-.4-.2.1.1-.1,0,0,0l-.2-.2s0-.1-.1-.1c-.09-.15-.12-.31-.1-.5,0,.1,0-.1,0,0v-.4c0,.1,0-.1,0,0,0-.1,0-.2.1-.3-.04-.04.11-.29,0-.2.25-.51.27-.46.6-.8l-1.1-.3c.31,1.41,2.48,1.93,1.5.1q0-.1-.1-.2c-1.53-2.91-3.7,3.69-1,4.2,4.34,1.45,3.92-4.36.4-5-.2-.7-.5-.2-.3.1h0Zm8.2,37.6c.51.84,1.07,1.61.9,2.6,0-.09,0,.18,0,.2,0,0-.1.2,0,.1-.08.12-.05.23-.2.3-.07.07-.24.24-.3.3-.13.14-.45.03-.5.2h-.1c.1,0-.1,0,0,0-.23-.04-.51.1-.7-.1.1.1-.1,0,0,0-.08-.02-.17.05-.2-.1-.15-.16-.42-.36-.4-.6.03-.13-.08-.47.1-.5v-.1c-.05.21.12-.33.1-.4-.24.24.26-.26.3-.3.1-.1-.1.1,0,0l.1-.1s.1,0,.1-.1c.32-.16.61-.21.7-.6l-.4.4c.71,0,.6-1.11-.1-1l.4.3c-1.82-1.39-3.76,2.34-2.2,3.6,3.28,2.73,5.9-2.13,2.8-4.4-.1-.5-.6-.1-.4.3Z"/>
        <path class="cls-10" d="m167.9,205.4c2.85,1.39,5.28,4.03,5,7.4l.7-.7c-4.1-.4-8.3.1-12.1,1.5-.8.3-1.9,1.1-2.6.3-.99-1.39-1.61-3.14-2.4-4.6,2.89-1.87,7.39-1.77,10.5-3.5,1.12-2.54-9.54,1.59-10.9,1.8-2.44,1.3,1.24,6.71,2.8,7.7,2.28.35,4.27-1.47,6.6-1.7,2.6-1.24,7.1.5,8.9-1.1.19-3.57-2.32-7.81-6.1-8.1-.5.4-.7.8-.4,1h0Zm5.5,8.7c3.83,5.46,8.31,11.58,10.9,17.9,3.78,6.49-4.28,4.89-7.8,6.4l1.1.4c-2-7.1-5.7-13.7-10.8-19.1-.87-.7-5.96-6.78-5.5-3.1.96,1.37,1.94.6,1.2-.8l-1.1.9c7.09,5.7,12.52,13.76,14.9,22.6.1.5.7.7,1.1.4,3.45-1.2,11.18-.18,9.3-6.2-1.98-4.66-8.71-19.11-13.3-19.4h0ZM17.9,304.6c3.46,1.41,7.52,2.52,11,4.1,2.36-1.12-11.76-6.1-11-4.1h0Zm101.3,7.8c.1,0,.1-.1,0-.1s0,.1,0,.1Zm64.5,60c-6.98,8.27-15.54,15.42-25.7,19.5-1.17.97-10.39,2.64-8.6,4.1,13.88-2.29,26.93-11.56,35.2-22.8.3-.7-.4-1.2-.9-.8h0Zm1.9,8.6c-1.11-.41-2.5,1.37-3.3,1.9-2.16,1.75-8.09,6.74-10.3,8.6-6.32,5.84-14.2,8.92-22.4,10.7-.4.2-.3.9.1,1,13.42.05,23.4-10.57,33-18.6.77-.91,3.54-2.19,2.9-3.6h0Zm-7.8,11.9c2.06,9.63,6.48,20.83,3.2,30.6-1.12,1.71-3.14,3.87-4.4,5.5-.59.47-1.39,2.11-2.2,2.2-.31-1.48.01-4.77-.1-6.4-.05-1.85-1.55-28.14-4.3-23,2.5,9.91,2.21,20.51,3.1,30.4,3.28,1.79,5.19-4.23,7.4-5.9,5.96-6.35,1.26-26.43-2.4-33.5,0-.3-.3-.2-.3.1Zm49.2-259.4c-1.53-1.86-5.73-3.04-7.8-4.5,0,0-8-5.2-8-5.2-8.08-5.7-14.71-13.15-20.7-20.9-.4-.4-1.2,0-1,.6,5.88,10.55,25.83,29.02,37.5,30Zm-.3,2.2c-.69.27.42.05-.2,0l-.1-.3c-2.6,5.65-5.27,13.19-7.7,19-.27,1.8-3.57,4.44-2.68,5.85,4.67-2.28,8.64-18.05,11.08-23.05,1.66-3.09-2-2.57-.7-1.3.1.1.3,0,.3-.2h0Z"/>
        <path class="cls-10" d="m189.2,104.5c-.1-.15-.1-.35,0-.5l-.1-1c-2.73,2.57-6.01,7.31-8.5,10.2-2.23,2.87-6.02,6.74-7.9,9.8,1.91,1.57,15.33-16.56,17.1-19.2.4-.9-1.1-1-1-.3,0,.4,0,.7.1,1.1.1.1.3,0,.3-.1h0Zm27.4,54.5c-.15-.73-1.31-1.07-1.9-1.4-1.99-1-4.21-2.38-6-3.7-6.43-2.46,6.56,6.54,7.9,5.1.1.2.1.1,0,0Z"/>
        <path class="cls-10" d="m207.2,126.4c-.74,3.27-.1,8.79-.3,12.2-.47,3.92,1.01,14.74-1.3,18.1.71,2.52,2.68-2.93,2.4-3.9,0,0,.1-6.2.1-6.2v-13.1c-.3-1.17.47-7.34-.9-7.1h0Z"/>
        <path class="cls-10" d="m205.6,126.8c-1.86,1.34-23.1,14.02-19.5,14.8,3.04-1.65,7.06-5.02,10-7-.47-.04,13.3-8.27,9.5-7.8h0Zm-18.1,11.8c-3.81-3.7-8.36-7.06-10.9-12-1.47-1.48-1.72-6.63-4.5-5.2-1.14,1.2,1.31,2.55.7.7,0,.2.1.3.2.2,2.94,6.52,7.55,13.56,14.3,16.4.1.2.2.1.2-.1h0Zm17.7,17.1c-6.19,4.51-3.92,14.28-9.9,19.3-4.9,5.6-11.6,9.8-14.9,16.7-2.4,4.9-2.7,10.4-4,15.6-.1.4.5.7.7.3,6.55-28.39,14.81-19.84,24.2-39.7,1.1-3.9,1.3-8.5,4.6-11.3.4-.4-.2-1.1-.7-.9Zm-134.1-47.5c.1,0,.1-.1,0-.1s0,.1,0,.1Zm102.4,19.2c-7.56,6.64-14.49,14.78-21.9,21.6-3.79,5.12-37.18,30.3-32.5,32.6,12.84-14.69,30.2-26.37,43.2-41,2.91-3.69,10.18-9.26,11.2-13.2Z"/>
        <path class="cls-10" d="m125,173.3c-.86,1.59-1.16,1.98.9,2.2.86.24,3.38.58,4.3.7,7.54,1.09,15.14,3.25,21.6,7.4,1.82-.28-.77-2.07-1.5-2.5-7.46-4.83-16.74-6.35-25.5-6.7l.5.4c0-.5.1-1,.2-1.4-.1-.1-.4-.3-.5-.1h0Zm77.4-13.8c-1.97-5.01-7.76-7.41-12.3-9.6-1.08-.1-5.54-4.88-5-2.3,4.38,5.36,13.26,5.43,16.4,12.2.3.8,1.2.3.9-.3Zm2.8-3.6c-.27-.74-1.13-1.27-1.8-1.7-1.6-1.22-3.53-2.62-5-4-2.65-2.28-1.71.84.1,1.6,1,.86,3.11,2.47,4.2,3.2.75.33,1.49,1.25,2.4,1,.1.1.2,0,.1-.1h0Zm-74.2,13.3c7.85-2.46,16.09-2.57,24.2-2.1.32-2.15-10.23-1.55-12.3-1.5-1.35.19-14.32,1.89-11.9,3.6h0Zm72.6-60.2c-16.27-11.63-7.77-36.34-23.5-49-2.43-2.77-4.84-5.8-6.7-9-.65-.72-1.67-5.15-2.6-2.9,2.37,8.82,10.95,14.27,15.2,22.1,6.8,11.1,3.07,35.88,17.6,38.8Zm-2.5-75.9c10.95,8.4,10.35,24.32,19.1,34.4,13,10.73,23.6,24.57,20.5,42.5-.1.6.7.8.9.2,3.22-12.15-1.5-25.75-10.3-34.5-4.65-4.45-10.14-8.27-13.2-14.1-5.6-9.65-6.37-22.88-16.5-29.3-.6-.2-.9.5-.5.8h0Zm38.2,79.4c-3.48,4.84-5.83,11.01-9.1,16,.31,4.21,5.15-6,5.6-6.8.29-1.16,6.13-9.88,3.5-9.2h0Z"/>
        <path class="cls-10" d="m193.4,100c-.15.23-.08.48-.2.7l.1-.2c-.07.15-.18.29-.3.4l.1-.1c-.1.2-.3.3-.4.4l.1-.1c-.2.2-.4.2-.6.4l.1-.1s-.1,0-.1.1c-.1,0-.1.1-.1.1l.2-.2c-.27.09-.85.26-.7.6,0,.1.1.2.1.4.15.19.55.22.8.2h-.2c.2.1.4,0,.6,0h-.2c1.64.16,2.73-3.83.7-2.6h0Zm-99.7-25.5c7.18-1.63,19.84,4.27,17.9,13.2-3.01,5.17-13.68,6.55-15-.7-.36-1.45,1.49-3.1,2.8-2.3.5.3,1-.5.5-.9-3.92-1.88-5.96,3.86-3.4,6.4,6.42,8.42,23.75-.03,14-12-4.35-3.59-10.61-6.72-16.3-5.6-.6.3-1.6,1.1-.9,1.8.1.3.3.3.4.1h0Z"/>
        <path class="cls-10" d="m107.9,78.1c8.33-.49,19.33,3.91,19.1,13.9,0,.6.8.6,1,.1,2.31-9.95-12.16-17.84-20.4-14.6-.1.2,0,.6.3.6Z"/>
        <path class="cls-10" d="m121,91.3c20.14,2.77,8.34,18.17,14.9,24.2.55.77,4.02,1.6,3,0-6.06-.91-2.96-8.32-3.5-12.4-.39-6.77-7.2-14.49-14.4-12.2-.4,0-.3.3,0,.4Zm1.7,21.2l.2.2c.21,3.59,6.06,5.02,9.1,4l-1-1c-.44,4.77,6.07,7.78,10.2,7.2,6.33-.5,7.31-10.31,1.9-12.8-.58-.61-4.39.03-3,.8,1.7-.5,3.4.5,4.2,2,4.55,10.19-9.99,11.31-11.8,3.3-.12-2.37-4.85,1.37-9.1-3.6-.23.05-.83-.59-.7-.1h0Z"/>
        <path class="cls-10" d="m126.3,102.7c.3-.8-1.2-.9-.9.2,1.72,1.3,1.81,3.69,1.2,5.7-9.2,16.1,9.66,17.05,3.1,26.9-.3.3,0,.8.4.6,8.62-6.28-5.98-12.78-4.6-19.8.57-4.31,4.73-8.97,1.7-13.1-.31-.43-.8-.72-1.3-.8-.46.03.11.82.4.3Zm11.2,19.7c6.82,7.92-4.3,8.79-2.9,11.1,2.9,2.4,2,6.7-.8,8.8-1.2.9-3.6,1.5-2.7,3.4,2.18,2.27,1.17,6.02-1.7,7.2-1.72,3.5,7.43-1.6,3.5-7.1-.2-.3-.7-.7-.3-1,4.78-1.72,7.4-8.64,3-12.3l-.1,1.2c3.63-1.35,7.03-5.26,5-9.3-.15-.79-2.79-3.54-3-2Zm-20-27.5c-.4-.3-.5-.6-.5-1.1l-.2.1c6.26,4.79,7.09,17.39,1.5,23-.42.83-3.79,1.74-1.9,2.5,9.83-2.24,8.74-20.43,2-25.5-1.27-.73-2.38-.15-1,1.1,0,.1.1-.1.1-.1Zm-7.9,9.3c5.71,6.31,3.23,17.92-6.7,16-1.48.98.98,1.86,1.9,1.8,8.19.35,11.9-9.95,7.3-16.1-.49-.51-1.93-3.18-2.5-1.7Zm-5.8,8c-.5,1.46,1.98,3.11,1.6,4.7,0,.1-.1.1-.1.2.1-.1,0,.1-.1.1l-.1.1c-.1,0-.1.1-.2.1-.1.1.1,0-.1,0-.1,0-.2,0-.3.1h-.2c.1,0-.2-.1-.2,0-1.64-.41-.27,1.6.7,1.2,3.24-.75.98-5.63-.9-6.4,0-.1-.1-.1-.1-.1Zm.7-3.3c-4.36,6.4-14.53,5.21-16.4-2.5-.4-.7-1.5-.2-1.3.5.25,1.08,1.29,1.13,1.4,0l-1.4-.2c1.08,6.5,9.4,10,14.9,6.4.97-.26,4.83-4.27,2.8-4.2Z"/>
        <path class="cls-10" d="m92.2,102.4c3.29,6.26-3.39,13.05-9.7,10.1-8.81-4.9-10.11-19.5-.8-24.7.2-.1,1.5-1,1.6-.8,2.38,1.79,1.05-3.69-2.7-.3-9.73,5.57-8.35,20.29,0,26.4,4.99,3.25,12.68.72,13.6-5.5.47-1.23-.44-6.71-2-5.2Zm-5.9-11c-5.51,1.63-6.3,9.07-4.1,13.6,2.58,1.37-2.65-9.19,3.7-12.6.19-.31,1.37-.88.4-1h0Zm10.8-14c4.03-1.05-8.53-8-14.3-3.3-5.46,3.83-2.71,8.83-10.7,11.5-1.07,1.77,2.93.34,3.5,0,3.19-1.27,4.48-4.89,5.4-7.9,3.07-5.28,12.46-5.31,15.9-.5-.03.09.06.28.1.1.2-.2,0-.1.1.1h0Z"/>
        <path class="cls-10" d="m79.5,77.7l.2.2.1-.2c-.32-.21-.4-.61-.8-.7-9.04-2.97-17.21,3.39-16.4,12.9.54,1.28,1.11-1.06,1.3-1.4.61-8.19,6.77-11.99,14.6-10.3.51.21.81-.24,1.3-.2.4-.16-.07-.38-.3-.3h0Z"/>
        <path class="cls-10" d="m72.4,90.8c-6.86-5.91-18.57-.2-19.5,8.5-1.44,5.27,2.34,10.44,1.4,15.5-.6,1.2-2.4,1.9-3.1.4-2.2-.63.56,2.58,1.8,2.1,7.93-2.21-2.74-15.39,2.8-21.8,3.1-5.7,10.68-7.48,16.2-4.2.4.3.6-.2.4-.5Zm-19.5,19.1c-6.92-5.01-14.86,5.91-9.1,11.8,4.13,6.23,19.13,2.37,14.7-.3-12.98,3.99-1.6,29.49,8.8,17,.5-.8-.8-1.6-1.3-.8-8.9,9.84-17.33-11.79-7-14.9l-.7-1.3c-3.16,3.17-9.31,2.59-12.6-.1-5.57-5.32.42-13.44,7.3-11.1,0,.1,0-.2-.1-.3h0Z"/>
        <path class="cls-10" d="m58.4,140.7l-.3-.1c-.02.2.4.41.2.3v-.5c-4.38,6.47,5,9.52,5,6.4-3.22.61-6.4-2.24-4.2-5.3.13-.21.23-.77,0-1q-.1-.1,0,0c-.27-.37-.94-.6-1,.1-.1.1.1.3.3.1Zm-11.2-17.1c-6.45,4.23-2.14,14.3,2.7,18.4,3.77,2.48,4.96,11.34-1.5,8.9-.3-.2-.6.2-.5.5,3.82,4.26,8.59-2.65,6-6.5-3.6-5.79-12.02-11.89-7.2-19.5.32-.44,1.54-1.58.5-1.8h0Z"/>
        <path class="cls-10" d="m46.5,137.5c-5.93,6.25,5.25,13.84,3.2,9.4-7.12-3.12-.54-10.23-3.2-9.4Zm31.9-26.9c-4.68,12.71-19.7,3.81-13.4-7.1-1.14-2.65-3.48,3.96-3,5.1-.47,11.31,15.12,13.36,17.4,2.2.1-.5-.8-.8-1-.2Z"/>
        <path class="cls-10" d="m70.6,117.8c1.63,2.67-.08,6.43-3.5,6.1-.8-.1-1,1.3-.2,1.4,4.11.56,4.25,6.96-.1,7.2-.9.61-4.23-1.44-3.8,0,6.57,5.97,12.93-6.74,4.1-8.6v1.4c7.02.49,5.91-9.63,3.5-7.5Zm-21.2-9.2l-.2.1c.34.04.43-.32.6-.6l-.4.5c.43-.27.42-.52.6-.9.02.2-.06-.1.1-.1.12-.32.39-.7.6-1,0,0,0-.1.1-.1.1-.1-.1.1,0,0,0-.1.1-.1.1-.2l.6-.6-1.2-.3c.13,1.23,1.26,1.98,1.2.2,0,.1,0-.1,0,0-.37-2.73-2.79.98-2.8,2-.12.26-.08.57.1.8l-.2-.4c-.02.24.03.67.3.6l-.1-.2c-.03.35.5.55.6.2h0Zm11.4,38.2c1.6,2.08,4.92-.42,3.8-2.5.04-.14-.07-.19-.1-.3-.65-.73-.86.15-.5.7v-.2c0,.22,0,1.18,0,1.1,0,.11,0,.29,0,.4,0,0-.1.2,0,.1,0,.1-.1.2-.2.3v.1c-.18.2-.38.37-.6.5q-.1,0-.2.1c-.32.1-.78.21-1.1,0-.29-.09-.25-.24-.6-.2h.2c-.1,0-.1-.1-.1-.1-.5-.6-.8-.3-.6,0h0Zm144.6,245.6c18.44,40.97,5.3,88.56-12.6,127.5-.72,1.2-2.5,5.37.2,3.6,18.68-39.81,33.47-90.2,12.8-131.8,0-.2-.7.3-.4.7h0Zm-125.5,41.8c-13.05,57.26,55.12,99.79,61.4,156.6,3.01,13.82.74-9.46-.9-12.4-9.85-39.54-42.01-68.01-56.1-105.5-3.8-11-5.5-22.6-3.8-34.2-.05-1.39,1.8-6.28-.6-4.5Zm90.6,30c10.57,34.49,24.47,78.59,34.7,113.3,1.67,8.34,5.21,9.69,1.8,0-8.88-29.46-21.66-71.03-31.4-100.4-.08.69-4.73-16.17-5.1-12.9Zm38,123.1c-2.46,6.66,1.52,12.94,2,19.3-5.85,13.68-13.75,26.64-21.6,39.3-8.61,16.51-46,61.91-42.5,76.9.85,3.27,4.6,6.45,2.1,9.8-.4.4.1,1.1.6.8,1.8-1.2,2.1-3.5,1.4-5.5-5.39-7.22-2.19-15.52,2.3-22.3,9.35-16.47,24.68-39.26,35.1-55.4,5.9-9.2,11.6-18.6,16.7-28.3,2.3-5.94,8.11-11.83,7-18.4-2.39-4.85-3.36-10.38-2.3-15.7.3-.9-.6-1.2-.8-.5h0Z"/>
        <path class="cls-10" d="m144.1,592.6c-22.62,23.02-17.41,58.11-27.7,86.5-2.23,7.37-6.93,13.58-10.8,20.1-2.02,3.79,1.1,7.13,1.6,10.8.03,8.53-13.02,13.49-8.6,22.7.24,1.11,3.43,3.28,2.8,1.1-1.4-1.5-2-3.5-1.8-5.5.2-2.3,1.5-4.4,3-6.2,14.2-14.25-1.6-15.63,7.6-26.7,20.89-32.16,10.41-71.25,33.9-102.8h0Zm.3,142c-16.52,1.45-8.03-3.29-25.6,3.7-3.89.48-8.3-2.71-12.1-1.1-1.76,1.77,3.25.81,4.1,1.3,6.25,2.4,11.73.93,17.3-2.3,5.34-2.15,11.4,1.76,16.6-1.4-.1,0-.1-.2-.3-.2h0Zm-66.1-290.7c.08,4.6,15.61,8.36,12.9,4.9-4.93.21-9.11-2.01-12.8-5,.1-.2-.1-.1-.1.1Zm0,4.3c1.77,5.67,11.53,7.83,5.4,4.1-1.15-.63-2.46-1.89-3.4-2.8-.55-.44-1.46-2.63-2-1.3Zm29.9,17.3c13.47,30,32.17,66.91,44.6,97.5-1.8-10.44-11.19-27.49-15.5-38.4-7.33-14.07-21.26-46.93-29.1-59.1h0Z"/>
        <path class="cls-10" d="m113.7,468.8c-2.07-.05-4.46,1.23-6.5,1.7-3.14.65-2.51,2.13.3,1,1.92-.7,4.71-1.17,6.4-2.2.2-.2,0-.5-.2-.5h0Zm1.4,4.9c-1.85.63-4.89,1.21-6.5,2.3-.69,1.33,8.88-1.88,6.5-2.3h0Zm89.2,110.6c-6.85-6.31-18.58-9.61-26.8-4.2-1.27.93-4.55,3.22-5.8,4.1-.43.45-2.68,1.59-1.5,2,4.41-2.18,8.11-6.48,13.1-7.6,7.23-1.61,16.12,2.3,21,5.7h0Zm.8,19.3c-8.6,3.05-19.11,4.74-27.4,0-.91-.37-4.57-2.85-3.8-.7,5.81,3.61,12.42,5.45,19.3,4.4,3.45-.36,10.93-.62,11.9-3.7Zm-18.1,24.9c-13.31,26.33-30.84,53.61-60,63.9,28.22-5.72,50.4-38.64,60-63.9h0Zm-114.4-8.3c.1,0,.1-.1,0,0-.1,0-.1-.1,0,0Zm53,79.8c3.92,3.59,8.5,7.19,11.1,12,.59,1.21,2.31,4.11,2.6,5.4,1.15,1.87-.13,2.42-1.9,2.7-5.87,2.25-11.76-1.74-17.5-.2-2.11,1.86,4.49.51,5.5,1.4,3.38.98,18.67,2.49,14.9-4.3-3.37-6.72-8.13-13.76-14.9-17.3.2,0,.1.2.2.3h0Zm74.3-284.1c-3.17,16.47-14.58,28.94-25.2,41.2,11.39-7.41,24.22-26.03,25.2-41.2.2-.1.1-.1,0,0h0Z"/>
        <path class="cls-10" d="m179.8,452.5l-.8-.3-.4.6c.91.31,19.82-.47,16.7-2.4-4.68-.02-10.18,1.21-14.9,1.4-1.55-.14-3.43,1.3-.7,1,.2,0,.3-.2.1-.3h0Zm-3.4,3.4c4.95,2.17,10.06,5.26,14.9,7.6,3.42-.74-17.19-11.31-14.9-7.6h0Zm-6,10.2c-.1.11-.17.25-.2.4l.2-.1c-.6,0-.7.5-1,1-1.81,3.43-5.15,5.71-7.9,8.3.36,2.79,10.08-7.56,9.1-9.3v.2c.1-.1.1-.3.2-.4,0-.1-.3-.3-.4-.1h0Z"/>
        <path class="cls-10" d="m171.1,466.6c0-.1,0-.6.2-.6l-.4-.5c.24,2.75.41,5.57-.8,8.2-.12.65-1.89,3.09-.4,2.9,2.63-2.6,3.3-7.77,1.8-11.1-.65-.51-.93.51-.4,1.1,0,.1-.1.1,0,0h0Zm-44.7,85.8c-14.24,5.4-18.04,26.14-27,37.4-6.93,11.17-15.09,21.77-23.8,31.7-12.96,12.19.3,24.86,13.1,28.9,2.47-.76-4.22-3.34-5-4-19.63-10.86-11.07-19.47.5-32.4,10.73-13.3,20.15-27.74,27.8-43,3.3-6.71,7.22-14.3,14.6-17.3.9-.3.6-1.5-.2-1.3h0Z"/>
        <path class="cls-10" d="m70.9,636.7c-3.22,2.07-6.1,5.49-8.7,8.3-.51,9.75,20.02,20.33,28.7,21.9,1.09.44,4.98.81,3-1.1-2.94-.67-6.11-1.18-8.9-2.4-5.79-2.15-11.15-5.34-15.6-9.6-1.84-2.1-5.03-4.59-6-7.3-.13-1.64,2.66-3.25,3.5-4.5,1.18-1.46,3.55-3.1,4.2-4.9.4-.2.1-.5-.2-.4h0Zm16.4,12.5c-.1,0-.1-.1,0,0Zm-1.4.1c.15.03.29.09.4.2,1.28.04,2.66.85,3.1,2.1-.97,3.27-6.88.1-9.2-.6-.95-.48-6.74-2.22-5.2-.1,4.88.71,9.33,4.52,14.4,3,3.26-1.73-.64-5.95-3.3-5.1l-.3.3c-.2,0-.2.3.1.2h0Zm40.9-20.1c-1.11-.01-2,1.59-2.7,2.3,0,0-2.6,3-2.6,3-1.22,1.67-3.82,3.84-4.6,5.7-.3,1.1.4,2.2.8,3.2,2.57,6.35-6.02,8.65-9.8,11.6-1.68,4.47,11.48-4.93,11.4-6.5,2.46-3.59-2.36-7.15.3-9.1.57-1.15,9.69-10.13,7.2-10.2h0Z"/>
        <path class="cls-10" d="m118.1,641.5c-9.38-13.81-10.23-23.01-5.1-39.1,1.3-4.6,2.8-9.2,3.7-13.8.1-.3-.4-.4-.5-.1-5.58,16.54-14.97,40.3,1.9,53h0Zm46.8,102.6l-.5-.1c.3.1.4,0,.7,0,4.6,1.84,8.12,5.82,11.5,9.4l-.1-1c-3.02,3.77,2.27,2,1.3-.1-3.36-2.71-8.63-10.39-13.4-9.3-.62.33.42,1.85.5,1.1h0Z"/>
        <path class="cls-10" d="m165.6,743.4c-1.76-1.82-4.92-3.85-6.9-5.5-1.06-.63-5.71-5.64-5.4-1.7.35.56,1.15.3,1.2-.3,0-.2,0-.1-.2.1-.3.1-.3.2-.2.2.91.74,3.6,2.61,4.6,3.4.99.42,7.18,6.58,6.9,3.8h0Zm11.1,10c4.06,3.75,12.4,7.2,17.2,10.1,5.42,4.17,22.84,8.49,23.8,14.5,0,.6.8.6,1,.1.96-6.39-8.62-7.39-12.7-10.2-8.04-3.89-16.07-8.24-23.9-12.5-1.19-.38-4.73-3.31-5.4-2h0Z"/>
        <path class="cls-10" d="m154.1,735.9c.69.22.65-.78.1-.9-8.16.75-22.79,21.69-13,27.3.4.2.8-.5.5-.8-1.6-1.3-2.3-3.2-2.3-5.2.8-8.2,9.57-18.35,14.7-20.4h0Zm22,17.5c-4.8,4.21-9.64,11.31-14,16.1-2.4,2.82-5.72,8.2-10,5.5-.3-.2-.8.1-.6.4,5.6,7.58,16.19-11.81,20-14.9.37-.85,7.09-7.15,4.6-7.1h0Zm-11-9.7c-2.23.65-4.83,3.32-6.7,4.7-3.74,3.3-9.09,7.96-12.2,11.8-6.18,7.26-6.19,8.36,1.8,13.7,3.76-.69-5.4-4.49-4.8-6.5,4.8-9.81,15.19-15.64,22.2-23.5,0,0-.2-.3-.3-.2h0Zm5.4,3.6c-2.06.79-4.41,3.77-6.1,5.2-1.71,1.77-4.52,4.03-5.8,6.1.49,1.32,2.77-1.92,3.5-2.4,2.51-2.75,6.61-5.72,8.6-8.8-.1-.1-.2-.1-.2-.1h0Zm-70.3-10c-3.02-5.97-3.34,31.01-2,32.7,2.05,2.02.75-5.44,1-6.5-.48-8.71.42-17.54.8-26.2,0,0,.1.1.2,0h0Z"/>
        <path class="cls-10" d="m98.2,770.8c7.62,10.38,20.82,10.85,32.2,12.9,18.03,12.71,39.34,20.69,61.6,20.5,15.03.65,28.15-3.12,27.7-20.8.33-1.26.17-5.93-1.6-3.1.7,16.93-7.95,22.76-24,22.1-21.41.45-42.87-6.12-60.3-18.6-5.96-4.65-14.05-1.95-20.7-4.9-4.3-1.5-8.3-3.8-11.8-6.7-.98-.4-3.06-3.59-3.1-1.4h0Zm.1-6q0-.1,0,0l-.4-.1c.2.1.4,0,.4.1,8.06,9.73,21.84,9.54,32.9,13.7,11.49,5.41,22.05,12.94,34.6,16,15.24,3.84,32.72,6.13,47.7.7.6-.5,1-1.2,1.1-1.9.2-1-1.4-1.5-1.6-.4-3.41,4.54-15.77,3.22-21.4,3.7-20.94.31-40.09-8.23-57.7-18.7-10.96-4.99-24.75-3.79-33.6-12.9-2.3-3.21-3.82.2-2.1.2.2-.1.3-.3.1-.4h0Zm2.9-26.5c6.65,11.84,21.18,21.4,34.5,24.2.91.29,4.47.32,2.8-1.2-15.26-1.43-26.85-12.81-37.1-23-.1-.1-.1,0-.2,0h0Z"/>
        <path class="cls-10" d="m159.3,775.1c12.22,11.52,43.63,22.4,57.6,9.1,2.88-2.82,1.53-5.07-1.1-1.2-11.68,10.41-30.65,4.69-43.4-1-2.25-1.35-7.44-4.33-9.6-5.7-.98-.54-2.61-1.77-3.5-1.2h0Zm3.4-3.9c9.66,7.28,38.1,20.02,49.1,11.7.6-.4,0-1.4-.6-1-15.3,8.54-34.73-5.86-48.5-10.7h0Zm-42.8-101.6c-4.87-14.91-41.34-3.54-13.9,8.9,3.51.58,6.74-1.65,10.1-2.5,2.22-3.1-4.65.14-5.8.4-3.49,2.02-6.42-.61-9.1-2.7-6.2-3.68-4.38-6.5,1.6-8.6,6.03-2.48,13.12-.83,16.7,4.8.1,0,.4-.1.4-.3Z"/>
        <path class="cls-10" d="m111.3,662.3c-.2.9,1.03.36.8-.4-.09-8.58-13.88-8.46-18-3-1.5,2-1.9,5.2-.2,7.2.4.5,1.2,0,1-.6-3.38-8.15,8.71-10.85,14.1-7.6,1.43,1.13,1.36,3.26,2.4,4.6.2-.2,0-.3-.1-.2h0Zm-3.1,16.4l.1-.1-.1.3c.1,0,.1-.1.2,0l-.2-.2c.66.46,6.87,6.41,4.9,2.7-1.21-1.29-2.95-2.96-4.7-3.2-.53.17-.7.69,0,.8.38-.07-.14-.75-.2-.3Zm48.2,20.6c.61,1.08,1.58,1.76,2,3l.2-.7c-1.48,1.19-4.3-1.05-4.6.2.77,1.77,3.7,1.51,5.2.8.77-1.03-1.17-2.7-2.1-3.1-.2.1-.87-.63-.7-.2h0Z"/>
        <path class="cls-10" d="m159.3,702.7c.4-.3.2-.9-.2-1-.8-.3-1.1.7-1.3,1.3-.88,3.3-1.47,8.77-3.4,11.6-.8,1.1-2.6,1.9-3.8.8-.3-.3-.6-.3-1-.1-2.09,1.55,1.88,2.78.6,1,.2.2.1.4-.2.5l-.6-.2c7.39,5.32,9.37-10.31,9.5-14.1,0,0,.2.3.4.2Zm-54.2,1.9c-2.37-1.38-6.12-2.64-8.6-3.9-8.25-4.07-13.57-12.09-22.4-15.1-28.66-10.7-30.78-9.76-11.8-35.6.2-.4-.2-1-.7-.7-5.97,5.2-9.84,12.81-13.1,20-4.42,9.81,15.51,13.62,21.8,16.7,12.71,3.22,21.95,19.04,34.8,18.6h0Z"/>
        <path class="cls-10" d="m50.5,667.8c1.68,4.88,20.62,11.62,25.9,14.9,3.7,1.9,6.45,2.99,10.3,6.4,3.45,3.36,7.88,6.96,12.3,8.9,7.8,3,1.45-1.49-1.6-2.6-6.91-3.51-11.32-10.49-18.7-13.3-8.67-4.44-20.15-8.95-28.1-14.5.1-.1-.2,0-.1.2h0ZM150.8,6.3c3.58-2.22,9.02-2.69,13-3.9,4.4-.29,8.72.15,13.1-.5,1.4.2,2.3,1.3,3.4,2.1,1.64,1.31,4.47,2.09,6.4,2.8,1.17-.04,2.87,3.17,3.4,1.6-1.14-3.22-5.35-4.06-8.1-5.4-1.2-.7-2.1-1.9-3.4-2.5-2.8-1.2-5.8.6-8.7.2-3.35-.81-6.81.04-10,1-1.29.42-10.97,3.17-9.1,4.6h0Zm40.7,3c4.61,7.21,7.44,15.77,8.1,24.4,3.53-3-1.69-16.17-4.3-20.2-.81-.89-2.49-4.99-3.8-4.2Zm-2.3,5.5h.3v-.2h-.3c0,.1-.1.1,0,.2q-.1-.1,0,0h0Zm-20.6-8.1c-.78,4.21-2.17,9.46.9,13.1.56,1.03,1.62,3.14,2.1,4.2.4.7,1.4.2,1.3-.5-1.41-4.97-5.04-6.47-4.1-12.3-.1-1.26.24-3.29-.2-4.5.1-.1,0-.1,0,0Zm-10.2,1.5c-.36,3.63-1.48,7.75.3,11.1.65.91,3.47,8.91,4.4,5.5-2.09-5.34-4.86-7.89-4.3-14.2-.11-.62.43-2.98-.4-2.4Zm-8.2-1.5c-.85,1.77-1.07,4.67-1.5,6.6-1.11,4.76,1.47,8.64,3.8,12.5.94,1.62,1.7,3.74,3.6,4.4.7.2,1.3-.7.7-1.2-1.4-.85-2.4-3.05-3.2-4.4-1.87-3.11-4.65-7.5-3.7-11.3,0,0,.4-3.2.4-3.2-.09-.26,1.34-4.53-.1-3.4h0Zm25.5,18.5c1.75,8.54-10.54,4.94-9.7,10.8.46.4.9-.19,1-.6,1.32-2.32,4.79-1.76,6.8-3.1,2.78-1.17,4.06-4.41,2.7-7.1-.2-.5-.7-.3-.8,0Z"/>
        <path class="cls-10" d="m176.5,28.9l.1-.2c-1.08,1.77,3.2,2.95,4.4,2.2,1.07-1.08-2.2-1.36-2.8-1.7.1,0-.1,0,0,0-.18-.04-.59-.2-.7-.3l.1.1q-.1-.1,0,0c0,.1,0,0,0-.1-.1-.1-.2-.2-.3-.2l.3.4c.04-.59-1.11-.75-1.1-.2h0Zm3.4-21.8c-1.48,5.76-3.55,12.52.3,17.8,2.24,2.48,4.42,9.51,8.6,7.6.6-.4.1-1.3-.6-1-2.92-.05-6.84-7.64-8.1-10.2-1.94-4.51.4-9.36.2-14,.1-.3-.3-.5-.4-.2h0Zm9.7,24.6c6.34-2.06-.37-8.57-.9-12.4-.95-1.24,1.44-5.37.3-4.9-6.39,4.81,6.18,13.19.4,16.6-.4.1-.2.6.2.7h0Zm-15.4-10.3c-4.02.95-10.81-.22-12.9,4.3-.64,1.38-5.57,4.67-2.9,5.8,6.7-9.18,4.8-7.46,15.9-9.3.6.1.5-.9-.1-.8h0Zm-17.8,9.9c-3.21,6.61,4.99,13.26,11.2,14,.64.14,2.88.12,1.7-.9-5.67-1.88-12.43-4.8-12.8-11.7.2,0,.4-1.5-.1-1.4Zm21.3,15.1c6.04,2.54,14.41.74,19-4,.2-.3-.2-.7-.5-.5-5.23,4.3-12.55,4.83-18.5,4.5h0Zm-59.8,74.3c-4.94,1.68-1.55,14.41,1.1,16.4-.3-3.6-4.14-13.33-.8-15.9.1-.2,0-.6-.3-.5Zm2.4,20.9c1.12,3.38-2.01,7.04-5.6,5.8-1.55-.77-2.89-2.2-4.8-1.7-6.3,3.19-3.68-1.59-5.5,0-.3,5.33,5.8-.11,8,1.9,4.19,3.67,10.7-1.14,8.3-6.2-.1-.2-.5,0-.4.2Zm-34.4-22.8c4.07-4.08,12.3-6.37,16.5-1.4.5.3,1,.1,1.1-.5-1.99-5.32-11.04-4.93-14.8-1.5-.6.34-5,3.46-2.8,3.4Zm16.9,9.3c-12.34,7.04-12.36-3.27-16.2-1.8-.4.5.2,1.2.7.7s1.3,1.3,1.5,1.6c3.41,4.77,10.88,3.64,14.2-.6-.1.2-.2.1-.2.1h0Zm-11.9-3.7c4.1-1.56,6.41-2.03,10,1,.2.1.5-.1.4-.3-1.83-3.71-8.04-3.79-10.4-.7-.1,0-.1-.1,0,0Z"/>
        <path class="cls-10" d="m95,122.7c-1.4-.3-2.2,1.2-2.2,2.5-.15,5.17,6.48,5.48,6.6.2.25-1-1.07-4.3-2-2.7,1.66,1.45,1.18,5.9-1.6,5.2-1.69-.63-2.87-4.38-.7-5.1,0,.2,0-.1-.1-.1h0Zm22.9,3.7c1.63-2.12,5.17-3.49,7.5-1.7.42.59,1.03,1.63,1.9.9-1.48-4.27-7.74-3.25-9.9.2-.4.5.2,1,.5.6Zm.2,2.9c2.92,4.15,8.76,3.35,9.9-1.2-4.84,4.68-5.21,2.39-9.9,1.2Z"/>
        <path class="cls-10" d="m122,123.4c-2.11.66-2.78,3.88-1.1,5.3,2.76,2.35,5.74-2.04,4.4-4.6-.9-1.68-2.88-1.05-1,.5,1.3,6.05-6.3,3.49-2-.5.4-.3.1-.8-.3-.7h0Zm-4.4,34.8c-2.32-2.57-6.13-1.72-9.2-2.4-3.32.9-6.61,2.19-9.9.2-.8-.4-1.6.8-.7,1.3,3.93,2.85,8.09-.42,12.1.1,1.61.66,3.18-.05,4.8.2.7,0,3.06,2.25,2.9.6Z"/>
        <path class="cls-10" d="m116.6,160.3c-5.71,6.05-13.14-.41-18.3-3.6-.5-.1-.9.6-.4.9,3.17,1.89,5.29,5.26,9.2,5.8,3.09.97,9.5.35,9.5-3.1Zm-11.2,6.5c.77,1.18,9.09,1.66,6.2-.4-1.31,1.29-7.04-1.72-6.2.4Zm25.7-47.8c2.03,20.24-7.32,42.37-15.3,59.1,10.47-12.23,18.93-43.35,15.7-59.3,0,0-.4,0-.4.2h0Zm-63.3,37.5c-.6,1.3,1,2.7,1.8,3.5,11.36,10.63,25.61,23.49,42.3,21,1.77-1.95-8.52-.66-9.9-1.8-13.53-3.02-24.92-13.29-34.2-22.7h0Zm-1,33.9c1.33-1.56.82-5.15,1.2-7.1.67-9.97.89-20.92-3.6-30.1-2.12-2.16,3.33,12.47,2.5,14.4,1.02,7.45-1.03,15.31-.4,22.6,0,.2.1.3.3.2h0Zm45.1-7.2c-.34.71.26,8.63,1.4,7.5.2-2.48-.47-5.14-.9-7.6-.3,0-.5-.1-.5.1h0Z"/>
      </g>
    </g>
  </g>
</svg>