<?xml version="1.0" encoding="UTF-8"?>
<svg id="Ebene_1" data-name="Ebene 1" xmlns="http://www.w3.org/2000/svg" xmlns:xlink="http://www.w3.org/1999/xlink" viewBox="0 0 180 220">
  <defs>
    <style>
      .cls-1, .cls-2 {
        fill: none;
      }

      .cls-3 {
        clip-path: url(#clippath);
      }

      .cls-4 {
        fill: #f4efea;
      }

      .cls-5 {
        fill: #e9c3bb;
      }

      .cls-6 {
        fill: #fff;
      }

      .cls-7 {
        fill: #fae6e1;
      }

      .cls-8 {
        fill: #334f2b;
      }

      .cls-9 {
        fill: #b26a15;
      }

      .cls-10 {
        fill: #e09531;
      }

      .cls-11 {
        fill: #111119;
      }

      .cls-12 {
        fill: #1d1d1b;
      }

      .cls-13 {
        fill: #443e3d;
      }

      .cls-14 {
        fill: #6d5333;
      }

      .cls-2 {
        stroke: #111119;
        stroke-miterlimit: 10;
      }

      .cls-15 {
        opacity: .25;
      }

      .cls-16 {
        fill: url(#Unbenannter_Verlauf_3);
      }

      .cls-16, .cls-17, .cls-18 {
        isolation: isolate;
        opacity: .5;
      }

      .cls-17 {
        fill: url(#Unbenannter_Verlauf_2);
      }

      .cls-18 {
        fill: url(#Unbenannter_Verlauf);
      }
    </style>
    <clipPath id="clippath">
      <rect class="cls-1" width="180" height="220"/>
    </clipPath>
    <radialGradient id="Unbenannter_Verlauf" data-name="Unbenannter Verlauf" cx="-183.71" cy="477.94" fx="-183.71" fy="477.94" r=".99" gradientTransform="translate(1719.22 2864.14) rotate(-.55) scale(8.76 -5.91)" gradientUnits="userSpaceOnUse">
      <stop offset="0" stop-color="#f6c7c0"/>
      <stop offset=".12" stop-color="#f6c7c1" stop-opacity=".98"/>
      <stop offset=".25" stop-color="#f6cac4" stop-opacity=".93"/>
      <stop offset=".38" stop-color="#f7cfc9" stop-opacity=".85"/>
      <stop offset=".51" stop-color="#f8d6d1" stop-opacity=".73"/>
      <stop offset=".64" stop-color="#f9deda" stop-opacity=".58"/>
      <stop offset=".78" stop-color="#fbe9e6" stop-opacity=".39"/>
      <stop offset=".91" stop-color="#fdf5f4" stop-opacity=".17"/>
      <stop offset="1" stop-color="#fff" stop-opacity="0"/>
    </radialGradient>
    <radialGradient id="Unbenannter_Verlauf_2" data-name="Unbenannter Verlauf 2" cx="-191.1" cy="483.87" fx="-191.1" fy="483.87" r=".99" gradientTransform="translate(2584.86 3250.96) rotate(-.55) scale(12.83 -6.66)" gradientUnits="userSpaceOnUse">
      <stop offset="0" stop-color="#f6c7c0"/>
      <stop offset=".12" stop-color="#f6c7c1" stop-opacity=".98"/>
      <stop offset=".25" stop-color="#f6cac4" stop-opacity=".93"/>
      <stop offset=".38" stop-color="#f7cfc9" stop-opacity=".85"/>
      <stop offset=".51" stop-color="#f8d6d1" stop-opacity=".73"/>
      <stop offset=".64" stop-color="#f9deda" stop-opacity=".58"/>
      <stop offset=".78" stop-color="#fbe9e6" stop-opacity=".39"/>
      <stop offset=".91" stop-color="#fdf5f4" stop-opacity=".17"/>
      <stop offset="1" stop-color="#fff" stop-opacity="0"/>
    </radialGradient>
    <radialGradient id="Unbenannter_Verlauf_3" data-name="Unbenannter Verlauf 3" cx="-183.85" cy="559.49" fx="-183.85" fy="559.49" r=".99" gradientTransform="translate(-4581.02 2244.18) rotate(93.84) scale(12.81 -7.95)" gradientUnits="userSpaceOnUse">
      <stop offset="0" stop-color="#f6c7c0"/>
      <stop offset=".12" stop-color="#f6c7c1" stop-opacity=".98"/>
      <stop offset=".25" stop-color="#f6cac4" stop-opacity=".93"/>
      <stop offset=".38" stop-color="#f7cfc9" stop-opacity=".85"/>
      <stop offset=".51" stop-color="#f8d6d1" stop-opacity=".73"/>
      <stop offset=".64" stop-color="#f9deda" stop-opacity=".58"/>
      <stop offset=".78" stop-color="#fbe9e6" stop-opacity=".39"/>
      <stop offset=".91" stop-color="#fdf5f4" stop-opacity=".17"/>
      <stop offset="1" stop-color="#fff" stop-opacity="0"/>
    </radialGradient>
  </defs>
  <g class="cls-3">
    <g>
      <path class="cls-12" d="m167.41,40.73c-.38,0-.38.58,0,.58s.38-.58,0-.58Z"/>
      <path class="cls-13" d="m24.79,161.12c-.15-.43-.43-.71-.76-.85-1.41-3.26-5.33-6.04-8.92-5.29-2.83-.07-17.02,5.39-13.11,8.99.09.35.12.72.3,1.05-.44,5.18,2.02,11.3,2.57,16.74.01,4.52,4.21,5.36,2.28.09-.34-1.04-.9-2.04-1.02-3.11-.69-3.29-1.43-7.12-1.85-10.42,1.27,1.21,1.84,3.22,2.7,4.67,0,0,5.06,7.57,5.06,7.57.8,1.2,3.11.46,2.5-1.05l-2.26-5.2c.14-.12.25-.26.32-.42.6.12,1.24-.09,1.44-.74.63.82,1.77.63,2.26-.06,1.11,1.04,2.4,2.34,3.91,2.65.94,2.44,4.22.59,2.26-1.36.09-1.19.83-2.82,1.68-3.94,1.38-2.83,1.98-6.39.65-9.34h0Zm14.95,23.43c.02-3.36-1.3-7-4.68-8.24-8.78-6.05-14.05,3.69-8.76,2.88-.11.95.7,1.58,1.52,1.48-.4,1.27,1.16,2.33,2.17,1.5,1.09,1.69,2.47,3.6,4.2,4.56.26.4.71.64,1.19.62.15.4.47.65.85.75,0,.1,0,.21.01.3-.63,1.39,1.55,2.56,2.47,1.17.97-1.5,1.09-3.29,1.04-5.03h0Z"/>
      <path class="cls-4" d="m106.69,112.15c-2.34.12-4.22,3-6.07,4.22-2.79,2.1-7.52,2.62-10.01-.17-1.02-1.47-2.43-2.94-2.78-4.73-.81-2.51-4.94-2.21-4.79.65,1.07,2.42-1.11,4.89.64,7.03-1.21.94-.98,5.99-1.28,7.34-3.67,2.48-2.51,8.13-5.04,11.49-2.34,1.16-2.87,4.58-4.01,6.79-3.18,2.81-4.96,7.88-5.85,11.99-3.6.34-10.07,4.48-4.4,7.09,0,1.08.74,2.18,1.5,2.62-.97,1.56.15,3.75,1.96,3.99-2.51.58-3.09,3.81-.77,5.02-.61,1.13.13,2.55,1.15,3.15-.36,1.18.31,2.51,1.49,2.88v.11c-4.32-.19-5.21,5.39-.6,5.07,0,0,2.22-.43,2.22-.43,3-.53,12.26,1.17,9.97-4.29.94-.65,2.12-.5,3.04-1.34,2.73-.74,16.68,2,14.34-4.24.89-.97.86-2.82-.22-3.65,1.19-1.1,1.08-2.9-.17-3.81,1.62-.45,2.87-2.89,1.34-4.34,1.52-1.25,1.26-3.77-.82-4.32.76-1.12.48-3.1-.79-3.84.39-.73.32-1.68-.1-2.43.17-1.75,1.87-2.62,1.45-4.59,0,0,.57-1.53.57-1.53,1.42-.4,2.37-1.95,1.72-3.37,1.24-.77,1.37-2.28.71-3.33,1.67-.38,2.23-2.64,1.14-3.84,1.2-4.54,3.2-8.96,3.42-13.71.73-1.1.32-2.77-.82-3.4.14-.38.19-.78.16-1.18.5-.4,1.92-1.67,2.42-2.1,2.58-.81,1.98-4.78-.74-4.77Z"/>
      <path class="cls-7" d="m82.25,201.86l-1.04-.15c-.11-.88-.78-1.92-1.74-2.07,0-.34-.09-.67-.26-.98,1.35-.66,1.62-2.82.39-3.8.29-1.73-1.25-2.95-2.9-2.88v-.04c2.16-1.31,1.44-5.73-1.29-5.72-6.86.14-14.01,1-20.62,2.8-3.21-.39-6.64.2-9.61-1.01-.93-.14-2.48-.37-3.41-.42-1.21-1.06-2.95-1.45-4.53-1.15-3.58-.36-6.58-4.93-8.9-7.29-.28-1.24-1.29-2.17-2.52-2.59-2.54-2.94-7.24-.26-9.84-3.68-.51-2.26-4.27-2.36-4.7.01-.52,2.87.98,5.2,2.33,7.59-3.21-1.07-7.65-.92-5.72,3.6-1.48,2.69-2.98,5.76-.95,8.61-2.85,2.63-.42,6.33.69,9.19,1.1,5.22,6.48,6.28,10.85,4.44,11.48-4.77,11.36,2.51,18.44.84,4.19.3,10.78,1.69,15.01,1.92,6.73,1.55,20.22,3.83,27.14,5.24,2.47.64,4.4-2.97,3.05-4.86.68-.79.69-2.03.11-2.88,2.3-.52,2.41-4.23.04-4.72h0,0Zm47.46-123.65c-.11-.21-.27-.4-.45-.56-.08-5.15-1.4-10.76-.84-16.01,0,0,.64-4.24.64-4.24.14-2.02,1.56-4.71.08-6.45-.59-2.79-2.65-6.06-5.25-7.28-1.71-1.01-2.82-3.18-4.85-3.62-.38-2.57.18-6.55-3.16-7.2-.32-.35-.78-.6-1.25-.71-.98-2.13-5.02-2.63-5.64.09-.4.33-.71.78-.85,1.29-.14-.03-.27-.04-.41-.05-1.03-.69-2.16-.21-2.89.6-.37-.16-.79-.21-1.17-.15-.53-.66-1.33-.91-2.1-.83-1.86-1.31-5.4-1.51-5.19,1.73-.85.16-1.61.7-1.85,1.51-.45.11-.87.33-1.21.64-.16.01-.32.04-.47.08-.92-.4-2-.29-2.71.35-.6-.31-1.26-.4-1.94-.15-.12-.06-.25-.1-.38-.14-.71-1.4-2.65-1.71-3.82-.59-.48-.13-1-.11-1.46.07-.73-.53-1.66-.75-2.53-.39-5.7-4.89-6.78,8.14-4.07,11.25.4,1.52.39,3.44.9,4.88.32,2.24.82,4.55,1.59,6.67-.75.12,1.02,4.54,1.06,4.89.21,1.4.41,2.86,1.22,4.05-.51.22.66,2.2.67,2.51.51,1.44,1.58,4.06,2.36,5.33.49,1.25.86,2.88,1.78,3.82.57,1.57,1.08,3.57,2.82,4.22h-.07c1.18.76,2.22-.1,3.43.08.75.16,1.66.29,2.42.13.09.68.35,1.38.61,2.03-.48.71-.36,1.55-.41,2.32-1.62,2.96.75,6.03,1.47,8.87-2.34,2.63-5.82,5.02-7.36,8.05-.97.67-1.52,1.82-1.3,3.04.29,6.98,8.34,12.4,14.12,7.34.39-.29,2.88-1.89,3.22-2.14,1.71-.75,3.48-2.49,2.62-4.49.54-.55.84-1.26.74-2.02.74-.6.96-1.84.65-2.73.18-.79.46-1.82.1-2.58,4.19-7.25,14.29-9.08,18.74-16.11.64-.42,1.13-1,1.5-1.68,1.82-1.21,1.92-3.97.9-5.76h0s0,0,0,0Z"/>
      <path class="cls-14" d="m128.68,63.88c-.04.35-.07.71-.07,1.06.08.03.17.03.25.04.02-.59,0-1.2-.05-1.79-.06.23-.1.46-.13.69h0Zm9.75-26.2c-.34-.21-.79-.17-1.08-.45,2.18-2.84,3-8.13.6-10.95-.94-2.41-3.4-4.19-5.99-4.27.09-1.22.61-2.67-.35-3.76-.08-7.36-6.67-13.53-13.8-14.11-4.7-4.62-13.1-3.4-18.49-.62-8.72-2.01-22.42,2.86-22.16,13.19-4.95,2.67-6.17,8.92-5.05,14.04-3.76,3.34-2.73,9.78-.79,13.9.1.3.74.82.54,1.07.07.12.15.33.24.44.13-.8.34-.23.16.23.13.1.26.51-.03.3.07.24.53.61.32.81.02.04.02.09-.01.11.06.09-.03.2-.11.16.02.64-.1,1.33.13,1.94.02.1-.08.14-.14.11,0,.03-.03.06-.06.07.09.62.43,1.23.52,1.88.26.17.8,1.67,1.09,1.84.35-.09.55.59.79.81.02,0,.03,0,.05,0,.18-.15.36.19.49.29l.14.02s.07-.07.12-.07c.23.17.77.35.98.33.23.05.46.05.69.02-.15-.89-.27-1.78-.3-2.67-.53-.53-.3-1.47-.4-2.17-.1.01-.22.04-.31.09-.9-4.37-.73-9.01-.13-13.41,1.14.85,2.59,1.32,3.96,1.11,1.76,1.55,5.18,2.13,7.1.49,4.19,3.27,10.31-.11,12.44-4.32,3.02,5.09,9.89.97,12.4-2.63.43,2.14,2,4.01,4.23,4.32-.4,4.76,3.8,9.56,8.65,9.29.04,2.99,1.61,6.07,4.93,6.23-.71,4.46-1.35,8.97-1.4,13.5.01,0,.02,0,.03.01.09-2.99.81-2.53.63.14.75.14,1.58-.2,2.08-.76.02,0,.04.02.05.04.15-.1.31-.19.47-.27.24-.52.5-1.03.78-1.53-.22-.73-.42-2.46.05-2.84,0,0,.01,0,.02,0-.05-.15.08-.2.21-.15.07-.4.86-.32,1.2-.48.11-.17.2-.36.26-.56,2.35-1.4,2.59-4.49,3.14-6.95,5.62-1.92,5.96-10.99,1.11-13.83h0Zm-6.01,23.5c0,.25,0,.5.05.74,0-.11-.04-.62-.05-.74Z"/>
      <path class="cls-6" d="m101.54,47.67c1.57-.44,2.75-1.66,4.1-2.47-.87-3.27-5.23-2.35-7.77-2.28-1.32-.07-2.44,1.17-2.44,2.43.15,3.31,3.99,2.22,6.1,2.31h0Zm-18.27-1.65c-1.59-3.54-6.6-.04-3.96,2.75,1.81,1.92,5.12-.4,3.96-2.75h0Z"/>
      <path class="cls-8" d="m103.73,44.33c-.16-3.94-6.19-2.57-4.75.98.91,2.46,4.87,1.68,4.75-.98h0Zm-17.53,1.99c-.31-3.21-5.51-2.39-4.95.73.31,3.21,5.51,2.39,4.95-.73h0Z"/>
      <path class="cls-5" d="m94.68,70.94c-1.69-.32-3.5.58-5.22.65-4.42-.12-2.11,4.81,1.88,3.97,1.7-.09,3.91-.33,4.91-1.93.88-1.45-.26-2.77-1.58-2.7h0Z"/>
      <path class="cls-10" d="m178.99,132.07c-.18-.57-.45-1.09-.79-1.57-2.95-17.12-23.02-22.87-35.07-32.7-1.43-2.32-4-3.75-4.97-6.5-.19-.62-.67-1.25-1.52-1.16-.51,1.22-1.21,2.35-2.03,3.38.04.17.1.33.18.49-3.14,4.17-7.23,8.67-10.98,12.44-.54-1.1-1.53-1.92-2.11-3-1.23-3.51-4.9-5.68-8.47-6.14-11.3-.7-7.6,19.32-10.29,26.44-3.29,16.53-12.65,32.26-9,49.51-.44,2.07.58,4.08.69,6.13.36,1.63,6.29.4,7.58.69-9.41,10.03-1.05,25.99,2.67,36.92-.13,3.53,3.53,2.06,5.64,1.65,3.55-.72,7.3-.92,10.63-2.22l-.4.17c1.48-.27,2.92-.79,4.11-1.75,5.34.22,9.78-4.66,13.65-7.85h22.5s-.02-2.56-.27-2.85c-1.35-8.83.11-17.88,1.22-26.63l.23-.71c.68-.47.77-1.99.43-2.63,6.84-11.85,14.98-24.16,15.8-38.25.71-1.15.99-2.6.58-3.87h0Zm-32.55,19.67c-.07-.38-.02-.54.01-.5-.03.18-.04.35-.01.5Zm-62.53-36.93c.06-1.78.64-3.59-.49-5.27l.27-5.84c1.42-4.57-8.59,2.55-8.07,3.94-.53.66-1.14,1.24-1.64,1.98-.17-.02-.32-.02-.46.01-.11-.08-.16-.22-.17-.38.42-.34.39-.95.02-1.31.4-.96.47-2.07,1.03-2.96.59-.32,1-1.04.67-1.69.34-.56,1.63-1.63,1.38-2.39-.37.12-.97.41-1.29.62-.42.34-1,.99-1.57.79l-.67.29-.61.86c-1.5,1.07-3.41,1.59-4.91,2.65-1.66.1-2.62,1.61-4.07,2.13-3.73,1.19-8.54,3.32-9.35,7.6-8.97,2.89-7.4,14.28-8.24,21.79-.29-.29-2.96,12.14-3.09,12.49-1.26,3.21-2.92,8.97-4.34,12.07-.92,2.52-3.84,6.62.1,7.89.37.34.78.62,1.23.84-.23,1.97-1.91,5.6-1.43,7.47-.05.33.05.67.28.92.54,1.76,2.29.42,3.01-.48,1.26-.37,2.24-1.43,3.48-1.92,2.09,1.4,4.16,3.08,6.87,2.98-.04.25-.06.51-.06.77-.49.47-.65,1.45-.36,2.06-.05.29-.02.6.12.86-.16.89-.12,1.83-.14,2.72-1.13.94-.18,3.09,1.17,2.25l2.71-.37c4.46-.14,8.93-2.21,13.53-1.75.89,1.17,2.62-.35,1.61-1.42-.52-.43-.4-1.13-.49-1.7.53-1.1,0-3.43-.06-4.61-.03-1.72-.09-4.36-.14-6.03,1.34-1.5.57-6.17.72-8.01-.05-17.93,16.42-31.65,13.49-49.89,0,0,0,0,0,0Z"/>
      <g>
        <path class="cls-9" d="m95.96,97.27c-1.52-3.2-.71-6.6-1-10l.1-.06c-.33-3.06-2.1-1.83-3.79-.54-2.68,2.07-5.81,3.88-7.99,6.45-.79-.09-1.35,1.29-1.74,1.79-1.06,1.18-2.12,2.53-2.89,3.93-1.92,2.2-3.13,4.53-4.27,7.12-.25.13-.46.39-.56.65-.15.04-.43.55-.36.46-.15.31-.11.7.07.99-1,1.96.41,2.35,1.24.47.31-.09.55-.33.68-.62.23-.18.4-.47.48-.74,1.97-2.43,4.39-4.23,7.44-5,.38,1.19.57,2.35.64,3.59-.36.31-.23,1.11-.24,1.54,0,.52-.29,1.69.27,1.98.05.63-.22,1.28-.05,1.89,0,.45-.38,1.73-.06,2.12-.6,3.42.93,4.09,1.35.31.53-.2.69-.76.7-1.27.9-1.98,2.41-4.18,2.73-6.25,1.18-1.75,3.31-3.47,4.21-5.35.99-.9,3.59-1.85,3.03-3.46,0,0,0,0,0,0Zm43.07-11.25c-.14-.62-.77-1.61-.82-2.26-.04-.04-.12-.15-.17-.18-.53-1.18-1.09-2.27-1.86-3.23-1.09-1.52-1.01-4.75-2.93-5.18-.94-1.57-5.1.37-3.72,2.02-.37.86.26,2.09.93,2.64-.41.85-.85,1.69-1.32,2.5-.95.36-1.46,1.68-2.06,2.46-1.81,1-4.04,3.62-5.52,5.07-.58-.03-1.18.4-1.14,1.08-.71.43-2.77,1.5-3.42,2.02-1.04.08-1.93.83-2.77,1.37-1.05.41-2.15,1.03-3.09,1.66-.29.19-.7.56-1,.75-.53.55.27.99.69.49,1.69-.04,3.45-.55,5.11.22.26.34.73.58,1.2.53.25.19.54.33.84.39.84.93,1.77,1.67,2.85,2.41-.13.73.27,1.2.84,1.49.21,1.07,1.33,1.66,1.32,2.82,1.06,3.56,4.75-3.39,5.91-4.39.66-.94,1.67-1.72,2.46-2.57.28-.36,1.5-2.29,1.84-2.68,0,0,4.07-6.1,4.07-6.1.08-.13.13-.27.16-.42.57-.97,1.84-1.63,1.62-2.92h0Zm-65.36,40.72l-1.29-.04c-.44-.55-1.28-.59-1.84-.2-.46-.14-.95-.08-1.39.09-.43-.32-1.02-.41-1.52-.2-.44-.3-1.08-.25-1.42.25-.48-.3-1.23-.24-1.74.06-2.86-1.34-6.21,6.53-2.8,5.9-1,3.04-4.83,13.54-.04,14.24.56.4,1.44.27,2.01.12.43.6,1.65.65,2.48.32,3.99,1.45,4.99-3.96,4.8-6.85.3-2.75,1.65-5.47,1.7-8.18.15-.03.3-.08.44-.13.6.17,1.1-.41,1.53-.71,1.22-.43,1.16-2.29,1.42-3.37.1-1.34-1.46-1.27-2.36-1.29h0Zm-.54,18.69c-.51-1.44-2.26-.66-2.42.59-.42,1.51,2.04,1.86,2.22.37.21-.25.3-.64.2-.96h0Zm9.01-25.19c-.93-1.41-3.13.36-2.23,1.68.93,1.42,3.15-.37,2.23-1.68h0Zm-14.12,51.62c-.61-1.76-3.14-.38-3,1.1.29,2.39,3.51.73,3-1.1h0Zm56.24-34.84c.63-1.61-.15-3.54-1.93-3.86-.44-.46-1.03-.41-1.62-.47-.33-.32-.93-.43-1.41-.3-.43-.46-1.13-.74-1.72-.46-.36-.25-.89-.43-1.31-.35-.46-.37-1.1-.44-1.63-.26-.7-.28-1.5-.48-2.24-.37-.54-.23-1.11-.39-1.62-.31-.28-.14-.61-.18-.92-.13-2.66-1.66-3.7.83-3.8,3.15-.54,1.54-.23,3.46,1.77,3.42-1.23,3.04-1.72,6.38-2.04,9.62-1.31,1.98-1.7,7.14,1.81,6.77,1.79.38,4.05-.11,5.93.48.47.34,1.14.37,1.76.41,3.27,2.44,4.13-2.75,4.34-4.93,1.06-3.26,1.24-6.89,2.37-10.18,1.3-.04,2.47-.8,2.23-2.23h0Zm-24.29,46.06l.09-.15c-.07-.06.3-.61.32-.67-.26.35-.49.73-.68,1.13.08-.11.18-.21.27-.3h0Z"/>
        <path class="cls-9" d="m102.8,216.34c.38.07.75.09,1.13.14,1.55-.76-1.82-4.78-1.98-5.7.46-2.12-1.4-4.63-1.4-6.95-.09-.55-.62-.8-1.13-.76l-.52-1.96c-.12-.55-.03-1.9-.55-2.27-.43-1.01-.21-6.79-1.03-7.61l.41-3.11c1.05-2.64,1.64-5.92,4.14-7.75-5.29-.35-12.29.56-17.78.67-.42-.31-2.73.33-3.22.35-.63.11-1.52-.05-2.11.25-6.66-.06-2.29,24.99.62,28.64.81,4.86,1.45,4.2,5.88,4.24,1.71.65,4.53.34,6.35.53,2.48,1.27,6.05.91,8.89.9.74.21,1.52.37,2.29.38Zm-64.56-45.95c-1.41-.21-2.56-1.39-2.22-2.81.19-1.35-1.87-1.93-2.07-.57-.18.59-.26,1.58-.46,2.19-4.46,8.21-.69,3.6,2.73,7.94.43,1,2.03.46,2-.54-.65-1.98,1.91-4.98.02-6.2h0Zm12.29,9.34c-1.29-.02-2.42-1.01-3.69-.99-.82-.36-2.54-1.96-3.25-.63-.6.75-2.08,1.05-2.68,1.82-1.21.09-2.05,1.16-1.13,2.19.02.62-.08,1.29.09,1.89-.15,1.12-.89,3.3.99,2.96.23.17,1.88.45,2.17.52.45.5,1.23.61,1.86.24.42.37,1.06.48,1.58.26.34.4.95.59,1.44.45,2.34,1.23,3.24-1.1,2.76-3.08-.1-1.15.27-2.43.2-3.51,1.03-.26.92-2.04-.33-2.11h0Z"/>
      </g>
      <g>
        <path d="m86.69,46.29c-.15-3.74-8.36-2.85-8.36-.56.74-.7,1.75-.91,2.76-.99-1.11,1.41-.59,3.6.96,4.48-8.92-1.82,1.27,3.2,3.87-1.07.14,3.08-1.14,6.32-2.07,9.21,1.32.99,3.9-9.6,2.83-11.07h0Zm-1.05.97c-.51.79-1.3,1.39-2.19,1.7-1.83-.56-2.98-3.05-1.09-4.27,1.63-.19,3.4.38,3.44,2.28-.05.1-.1.21-.16.3h0Zm21.91-3.14c-.27-.14-.58-.06-.86,0-2.52-2.52-9.94-3.45-11.02.16.83-.65,1.83-1.22,2.87-1.43-1.29,1.48-.33,3.87,1.37,4.57-1.14.16-2.24-.2-3.29-.62-.3-.1-.43.27-.28.47,2.87,2.44,7.69.35,9.83-2.22.23-.14.51-.22.77-.28.39.06,1.08-.22.6-.63h0Zm-3.31,1.67c-.48.33-1,.6-1.53.83,1.89-1.94-.49-4.16-.12-2.24-1.93,7.78-8.78-6.41,3.14-.01-.43.51-.93,1.05-1.48,1.42h0Zm-10.48,14.15c-1.8,1.86-4.57.27-6.65,1.46-1.76,1.32-3.09.05-3.55-1.55-.94,2.59,2.62,3.64,4.36,2.15,2.01-.67,5.35.8,6.34-1.76.08-.28-.29-.49-.5-.29h0Zm-4.15,8.29c-1.44.34-.92-1.93-1.29-2.78-.71-.39-.14,2.13-.09,2.59,0,.88,1.99,1.05,1.39.19h0Zm12.16,1.59c-3.7,1.74-7.62-.42-11.31,1.38-1.15.04-4.49.03-4.07,1.52,1.11-.96,2.84-.73,4.2-.73,1.14-.01,2.07-.78,3.19-.84,2.24.07,4.51.94,6.69.01.47-.12,2.18-.84,1.29-1.33h0Zm-8.15,4.95c-1.17.46-2.4.59-3.63.43-.14,0-.18.18-.08.26.54.81,5.27.56,3.72-.7h0Zm47.34-35.34c-.68-.98-1.61-2.01-2.85-2.21,3.99-5.23,1.28-14.63-5.54-15.78.45-8.22-5.7-17.38-14.47-17.45-4.6-4.93-13.25-4.25-18.7-1.05-8.23-2.45-24.05,3.74-22.76,13.65-4.86,2.68-6.25,9.17-5.33,14.3-3.94,4.49-1.53,11.52,1.1,16.11-.92,2.45.74,7.73,3.3,7.68-1.51-1.9-2.82-4.2-2.58-6.72.65.72,1.5,1.52,2.45,1.73.04-.09.07-.18.1-.28l-.09-.22c-4.42-4.05-7.13-11.84-4.04-17.37.84,2.79,2.94,5.67,5.92,6.36.41.08.74-.52.31-.72-7.98-3.19-7.42-16.14-.83-20.46,4.19,3.34,11.86-.57,13.29-5.33.79-4.28-5.5-3.04-6.7-.36,11.53-6.65,4.81,7.09-3.78,6-9.74-3.18,10.35-17.14,18.85-13.86-.32.32-1.9,1.13-1.31,1.38,5.55-4.05,14.17-5.24,19.81-.79-3.33.58-1.16.64.56.52.24.49,1.19.92.76.03,9.77.44,18.04,15.69,10.16,22.87-2.31,1.62-5.45,1.7-7.89.32-2.09.56,2.57,2.07,3.37,1.85.08,2.92,1.9,4.18.58,0,4.11-.03,7.46-3.4,7.83-7.43,9.89,1.45,8.11,21.94-2.26,15.3-1.78-1.5-.65-5.57,1.91-3.94.15.12.37-.03.27-.21-1.86-2.3-4.66,1.02-3.56,3.17,1.31,3.78,6.64,4,8.96,1.07,4.85,2.53,4.46,11.2-.31,13.54-.6.24-1.24.19-1.86.22-1,.52.68.99,1.19.81-.02,3.37-2.74,8.56-6.52,5.65-1.29.36.7,1.59,1.34,1.61.65,1.85-.09,3.9-1.69,5-.27.26,0,.77.38.65,1.97-.89,2.82-3.56,2.1-5.54,3.53.05,5.28-4.47,4.95-7.47,4.77-1.5,5.91-8.71,3.59-12.63h0Zm-54.95-.83c-.41.01-.77.21-1.17.29-.53-1.19-2.34-.43-3.33-.36-9.05-6.37,2.01-11.41,2.27-17.71-1.94,5.75-11.36,11.19-3.66,18.02-.72.08-4.53,1.83-3.27,2.41,1.29-.96,2.88-1.51,4.47-1.75.89.72,6.17.73,4.69-.9h0Zm51.67,5.75c-.46-.4-.51.59-.59.87-.99,6.71-10.86,8.07-12,.67,1.22.08,5.01-2.23,4.08-3.22-1.31.94-2.56,2.1-4.22,2.28-.02-.62-.48-.52-.55.02-4.45-.23-7.47-4.71-7.81-8.85,2.2.15,2.15-1.04-.06-.86-.1-1.73.49-3.37,1.21-4.91-1.21-.02-1.72,3.52-1.87,4.8-1.62-.36-3.1-1.58-3.3-3.29,3.89-3.6.38-15.42-1.06-12.58,1.56,2.36,2.37,5.22,1.86,8.04-.44,8.83-17.71,12.66-13.16.99,2.11-2.9,6.24-1.35,4.31,1.87,1.19-.44,1.31-2.07.65-3.01-4.03-3.84-8.76,3.43-5.96,7.1-9.26,14.11-20.99-5.05-9.89-5.52,2.12.95-.19,2.67.62,2.61.82-.48.87-1.63.42-2.38-10.09-5.35-7.77,17.88,6.15,9.72.07-.08.16-.12.24-.19,1.13-.92,2.38-2.02,3.03-3.44,3.39,3.71,9.4.95,12.1-2.32.41,1.83,2.16,3.13,3.96,3.41.12,4.62,3.63,9.61,8.55,9.76.73,9.16,14.15,6.75,13.26-1.57h0Zm-44.57-25.9c-.18-1.04-2.73-3.43-1.26-1.08,1.85,2.91,1.43,7.09-1.71,8.91-2.08,2.87,6.25-2.03,2.98-7.82h0Z"/>
        <path d="m110.6,10.76c-4.19,2.33-12.36,2.7-13.82-2.34-.73,5.95,12.51,6.11,13.82,2.34h0Zm-8.3,9.29c-1.72-3.87-6.83-5.16-8.9-8.29,1.49,4.61,8.69,5.58,8.93,11.27,1.02.34.31-2.35-.02-2.98h0Zm25.11-2.68c-3.05-11.5-18.47-3.88-11.05,4.67-5.69-10.4,10.03-13.77,10.14-2.88.06,3.1-6.9,3.81-5.47.29.31-.3-.1-.85-.47-.6-3.42,5.81,8.79,4.86,6.84-1.48Zm3.01,61.31l-.13.23c-1.28-7.59-1.39-15.51-.94-23.17-2.01,2.92-1.3,20.13.38,24.17-3.3,6.38-9.32,10.74-15.52,14.05-1.37.82-.07.74.65.28,6.06-2.92,15.21-9.27,15.56-15.56h0,0Zm-12.81-2.51c-1.36,5.08-4.39,10.8-6.89,15.39,3.47-2.29,6.68-11.14,6.89-15.39h0Zm-19.96,24.36c-1.49-3.06-2.51-6.22-2.19-9.67-.11-1.01-.02-5.6-1.18-5.21.93,3.14.2,6.49.65,9.66,1.95,4.97,3.39,9.86,2.74,15.29,1.26-2.5.86-7.11-.03-10.08,0,0,0,0,0,0Zm40.92-16.33c-1.5-3.05-2.55-8.03-5.59-9.76-.55-.29-2.7,0-2.23.67,3.45-1.64,4.55,4.65,5.85,6.52.17.06,1.72,4.18,1.97,2.57h0Zm.46,2c-4.36,7.01-9.23,14.03-15.24,19.75-1.85-5.74-8.87-12.06-14.86-8.05-.16.16,0,.44.22.38,6.36-2.78,12.25,2.72,14.06,8.56.11.3.48.43.73.19,5.76-5.95,12.5-13.43,15.09-20.83h0Zm-46.93-.24c-9.08,4.86-16.65,13.45-19.42,23.46.45,1.89,4.19-8.76,5.54-9.66,6.4-4.99,4.7,5.76,5.2,9.29-.16,6.32.91,7.79.81.29-.59-3.56,1.57-13.85-4.93-11.15,3.07-4.97,9.1-8.97,12.78-12.22h0Zm-10.03,16.44c-3.31.29-6.26,3.68-7.79,6.5,1.52-.5,3.41-3.97,5.6-4.87.35-.47,2.86-1.02,2.19-1.63h0Zm19.15,13.13c-6.56,4.37-11.86.71-13.54-6.33,1.33-2.59,3.01-5.02,4.97-7.17.83-.97,2.28-2.11,3.02-3.13.02-1.27-1.65.4-2.02.78-4.26,4.21-7.77,9.6-8.79,15.58-.02.13.17.13.21.03.37-.92,1.57-3.98,1.98-4.81,1.26,5.45,7,10.62,12.45,6.85.47-.32,2.64-1.34,1.71-1.79h0Zm6.33-16.01c-3.85,6.33-3.11,14.28-4.66,21.33-1.62,11.82-7.61,22.51-9.39,34.26,1.15,1.75,2.73-9.46,3.69-10.71,2.14-6.4,5.32-15.2,6.36-21.81,1.15-7.47,2.05-16.75,4.01-23.07h0Zm-24.8,20.67c-.13-1.15-2.21.27-.82.36.01.7-.42,1.86-1.3,1.55-1.77-.86,1.68-3.26-.45-2.17-2.77,3.17,3.08,4.42,2.58.25h0Zm-9.44,24.88c-.77-.63-.64.45-.6.93-.05.29-.19.58-.43.77-.25.18-.62.3-.93.22-.2-.88-.09-2.02.98-2.18.11-.06.11-.21.04-.29-1.6-.81-2.41,2.1-1.55,3.09,1.47.95,3.39-1.05,2.49-2.53h0Zm-4.97,26.21c-.09-.4-.95-.93-1.02-.29.01.21.36.54.36.84.08.73-.17,1.82-1.02,1.96-.61.06-1.22-.41-1.15-1.03-.18-.64,1.21-1.15.77-1.47-4.91,2.03,3.18,6.18,2.06,0h0Z"/>
        <path d="m75.27,129.81c-.42.52-.61,1.44-1.04,1.92-.32.17-3.47.14-3.9.2-2.14.03-7.8.09-9.87,0-.13-1.62,1.56-3.8,1.34-4.87-.99,1.17-4.03,6.25-.77,5.78-1.46,3.99-2.96,8.83-1.96,13.04,1.35,2.39,4.95,1.6,7.23,1.99.47.1,2.13.19,1.47-.64-.61-.3-1.71-.22-2.39-.31-1.63-.3-4.21.23-5.37-1.21-1.24-4.13.82-8.75,1.58-12.85,2.99.05,7.71.07,10.67-.11-.9,2.86-1.72,6.97-2.19,9.95-.39,2.13,1.01,1.32.92-.33.45-2.86,1.33-6.89,1.99-9.66.79-.07,1.81-.05,2.13-.93.11-.39,1.1-2.37.15-1.95h0,0Zm1.14-2.7c.45-1.45-13.61-1.24-13.17-.23,3.55,0,8.78-.14,12.33.42-.69.78.74,1.9.68.71,0-.27.28-.59.16-.91h0Zm48.39,7.4c-2.02,6.49-.61,4.21-7.63,3.53-1.94-.31-6.9-1.1-8.78-1.39-2.75-.17-2.59-.85-1.9-3.22-.06-.02,1.15-4.08.39-3.37-.59,2.3-3.65,7.02.48,7.41-1.9,4.29-2.6,9.4-2.96,14.08-.09,3.27,4,2.49,6.13,2.58,2.17.14,4.3.64,6.4,1.19,1.53-.67-1.79-1.4-2.41-1.59-2.57-1.53-9.64,1.35-9.09-2.99.25-2.71,1.05-7.51,1.7-10.14.14-.84.75-2.23.62-3.07,4.46.7,10.4,1.69,14.86,2.34,1.97.33,2.07-2.1,2.41-3.43.07-.46.76-2.43-.2-1.93h0Zm-1.11-.52c.76-1.6-15.5-4.89-15.21-3.74,3.31,1.01,8.79,1.87,12.22,2.92.91-.14,2.72,2.07,3,.82Zm-6.93.86c.04-.74-1.08-.74-.77.02.06.13.03.28-.02.4-.16.48-1.11.46-1.39-.07-.18-.26-.22-.67.05-.88.2-.3.98.07.86-.38-.72-.87-2.01.27-1.67,1.2.33,1.68,3.15,1.57,2.93-.29h0s0,0,0,0Zm4.96,5.52c-.88-.09-.76,1.94-1.06,2.52-.58,2.58-1.55,7.45-2.06,10.06-1.34,2.71.66,1.08.84-.46.45-1.87,1.54-6.94,1.95-8.89.05-.87.75-2.42.34-3.22h0Zm-19.92-20.01c-4.97,3.1-12.2,5.77-15.82-.66-.2-.18-.34-.86-.63-.71.14,2.33,2.27,4.2,4.29,5.11,4.17,1.74,8.64-.49,11.98-3,.27-.17.87-.8.19-.74h0s0,0,0,0Zm-26.33-19.17c-3.31,2.05-8.7,4.49-12.27,6.13-3.68,1.78-8.76,3.39-9.64,7.99-10.95,4.12-6.82,18.55-9.86,27.53-1.08,5.22-2.85,10.85-4.5,15.93-.07,1.29-3.29,6.89-1.85,6.69,2.6-6.69,5.1-13.82,6.8-20.8,3.66-9.22-.84-23.15,9.22-28.66-.31,1.59-1.29,7.21.57,7.26.12-2.28-.3-4.6.35-6.86.56-4.67,5.24-6.34,8.96-8.04,4.03-1.84,8.03-3.82,11.69-6.34.23-.19,1.19-.78.53-.83h0Zm9.03,16.24c-.09-.08-.2-1.91-.6-1.07.41,6.29-1.62,12.44-3.69,18.3-2.01,4.88-5.55,11.69-7.63,16.63-3.43,11.02-3.38,23.25-2.52,34.68-6.41.17-12.61,2.6-19.02,2.27,4.11-18.02-3.82-60.33,9.07-71.18-13.87,7.4-6.44,54.55-9.86,71.11-19.33-3.5-20.92-2.84-.72.89,6.58.93,12.94-1.79,19.49-2.11,1.55-.16,2.3-.17,4.34-.49.86-1.06-1.97-.5-2.55-.55-.61-8.14-.42-16.34.45-24.46,1.44-15.41,14.46-28.02,13.24-44.02h0,0Zm92.08,7.12c-3.77-10.75-16.13-15.23-24.84-21.28-5.11-3.12-10.09-6.74-13.33-11.88-.07-.32-.77-.66-.71-.12.05.12.18.19.26.1,8.69,14.78,30.62,18.61,38.62,33.18h0Zm-5.96-5.17c-13.39-11.85-37.6.29-38.28,17.44-.07.5.16,2.33.74,1.3.12-18.11,23.74-28.45,37.55-18.74h0Zm-13.77,30.86c-6.83,4.56-15.18,6.25-23.29,5.13,6.13,2.58,15.31.32,21.42-3.03.46-.29,3.6-1.94,1.87-2.1h0Zm-8.42,7.65c-8.6-1.03-19.74,2.3-25.18,8.31,5.57-4.19,12.21-6.94,19.2-7.47,1.01-.45,7.04.57,5.98-.84h0Zm12.57,48.61h-22l-1,1.5h23v-1.5Zm-29.36-65.56c-8.13,4.84-.59,11.16-3,16.77-4.83,2.63-20.85,12.83-15.64,19.66,1.37,2.24,5.82,5.31,1.59.39-5.02-4.79,2.93-10.44,6.08-13.81,2.8-3.59,10.22-3.45,9.56-9.14-1.3-4.62-3.37-10.2,1.64-13.47.23-.17.04-.52-.23-.39h0Zm-18.04,38.03s-.01.02,0,.02.01-.02,0-.02Zm.63.65c-5.17-5.63-13.64-1.87-15.81,4.69-3.72,11.5,2.54,23.66,6.27,34.45,1.87,1-1.21-4.98-1.23-5.69-3.04-10.51-10.47-25.55.18-33.95,3.02-2.29,6.89-1.4,9.81.59.24.12,1.01.47.79-.08h0s0,0,0,0Z"/>
        <path d="m163.36,173.45c-3.56,1.73-6.21,9.06-8.5,12.57-10.62,19.09-26.29,31.32-48.41,33.28,28.48.74,43.5-21.85,56.25-44.85-2.38,9.86-4.24,24.72-1.49,33.26-.38-11.46-.14-23.06,2.16-34.27h0Zm14.12-46.86c3.19,15.14-3.97,27.07-12.86,43.72-.61,2.74,2.41-2.91,2.67-3.4,6.24-12.02,15.88-26.45,10.19-40.33h0Zm-78.08,53.15c-1.27-.15-3.16.16-4.46.18-1.29-7.2-1.18-16.29-1.24-23.54-1.28.78-.7,7.49-.96,9.32.05,4.73.46,9.61,1.37,14.27-4.6.6-12.56.17-16.89,1.83-.33-.29-.17.73,0,.29,4.65-1.03,12.3-.69,17.12-1.19.65-.24,6.63.23,5.05-1.16,0,0,0,0,0,0Zm3.35,36.5c-1.9-1.31-6.27-.72-8.54-1.15-3-.19-10.41-.8-13.32-.85-.67-.23-.77-1.97-1.1-2.55-2.63-9.14-6.18-19.2-3.27-28.67-4.33,6.6-.56,17.82,1.32,25.56.77,1.34,1.03,6.46,2.9,6.37,3.86.46,12.45.97,16.42,1.29.7-.23,6.35,1.11,5.59,0h0,0Zm-56.86-35.6c-.39-.94-1.79.04-.73.41v.04c.37,2.93-3.81,1.43-1.34-.22.15-.04.12-.27-.04-.27-4.4,1.79,2.93,5.5,2.11.04h0Z"/>
        <path d="m45.16,181.04s0,0,0,0h0Zm32.67,32.77c-11.46-2.38-24.83-4.67-36.46-6.25-2.75-.18-7.07-.25-9.74-.89.71,1.85,6.25,1.14,8.3,1.51,6.2.48,21.1,3.37,27.44,4.39.62-.13,12.59,3.02,10.45,1.24h0Zm-46.54-7.61c-6.39-4.64-15.27,2.97-21.66-.12,6.7,4.28,13.89-2.62,21.66.12h0Zm17.6-26.96c-.44-.58-1.36-.61-1.94-1.06-.83-.26-1.41-1.47-2.26-1.39-1.44,1.01-3.97,2.19-5.16,3.46-.39-.9-.92-1.74-1.58-2.46.88-1.37,1.17-3.45,1.52-5.02,1.47-4.59-5.06-1.3-3.3-8.91-.61-3.29-4.86,9.52-4.97,10.11-2.05-.48-4.44-.25-6.11,1.13-.64-.49-1.43-.83-2.25-.75-.1-2.69,2.88-4.57,3-7.36,1.94-16.39-18.2-15.16-25.04-4.73-.88.09.31,1.54.43,1.98-.34,1.19.53,3.28.63,4.53.55,2.85,2.14,10.58,2.74,13.52.34.95.12,2.66,1.19,3.15.57.25.97-.8.26-.76,0,0-.01-.02-.01-.02-1.3-5.62-2.7-13.31-3.99-18.98.06.11,1.7,2.85,1.76,2.97.3,2.75,1.38,7.18,1.94,9.93.32.79.21,2.61,1.15,2.9-.21.97.03,1.94.29,2.87-1.98,2.21-3.17,5.65-1.18,8.38-4.95,3.07,6.76,18.49,1.37,8.2-.9-2.21-3.16-5.95-.37-7.62.32-.14.29-.57.1-.79-1.88-2.17-1.27-5.6.89-7.33-.34-6.37.59-5.75,6.28-4.17.08-.04,4.33,1.41,3.22.3-.99-.3-3.37-1.19-4.32-1.51-.63-1.82-2.11-3.81-1.62-6.07.6-4.72,3.68-1.46,5.46.47,2.25,1.54,2.67.78.43-.79-5.83-7.49-8.98,1.16-5.03,6.14-.32-.1-.97-.3-1.29-.4-.57-2.11-2.87-4.83-3.89-6.81-1.38-2.19-4.58-7.71-6.04-9.74,1.58-1.81,4.97-3.87,6.98-5.2,7.09-5.09,18.43-.44,16.89,9.01.03,3.03-3.44,5.11-2.93,8.05-.44.11-1.02.26-1.48.29-.3.11-.88-.37-.97.01.94,1.51,2.96-.25,4.27.53,2.33,1.51,4.88,5.03,6.88,6.95.76,1.16,6.04,6.06,2.29,1.41-2.2-2.35-5.2-5.71-7.44-8.04,5.73-3.29,14.42,2.55,13.64,9.14.52,4.12,1.53-3.09.31-4.25,1.66-.42,3.68-2.06,5.21-2.86.73.58,3.67,3.1,4.04,1.58h0s0,0,0,0Zm-40.69-3.46c.55.85,1.5,2.41,2.11,3.2-1.29-.29-2.62.49-3.14,1.68-.59-2.79-1.6-7.18-2.16-10.02l3.19,5.14h0Zm26.18-.57c-.92-.48-1.88-.89-2.89-1.15,1.02-2.37,2.39-5.47,3.51-7.81-.06,2.82,1.75,3.98,3.75,5-.19,2-.87,4.25-1.11,6.23-.94-.94-2.1-1.66-3.26-2.27h0s0,0,0,0ZM127.66,52.33c-1.3,2.33-2.87,5.14-5.49,2.14-3.12-.58.93,3.89,3.08,2.43,1.1-.05,4.04-4.63,2.4-4.58h0Zm-39.79,31.17c-7.17-12.79-11.73-27.98-11.77-42.71-.18-.66.72-4.32-.11-3.64-1.89,9.38.67,19.74,3.25,28.78,1.5,3.48,5.38,17.47,8.63,17.57h0Zm28.9-13.72c-2.28,2.7-6.98,5.94-9.88,7.97-4.91,3.68-11.17,6.74-17.45,6.28-.25.07-1.04-.09-.95.19,6.42,1.66,13.07-1.27,18.07-5.2,1.41-1.2,12-8.03,10.21-9.24h0,0Zm-10.57-30.07c-1.99-.93-4.39-2-6.64-1.98-.61.04-3.18-.02-2.2.99,1.45-.13,2.97-.39,4.44,0,1.31.04,3.56,1.57,4.4.98h0,0Z"/>
      </g>
      <g class="cls-15">
        <path id="E" class="cls-11" d="m137.14,90.07c-3.49,6.25-8,11.62-13.15,16.6-2.23-2.08-2.81-5.8-5.78-7.29.41-1.1-2.15-2.4-2.94-1.57-2.03-.79-4.31-.95-6.03.35-.74.56-.32,1.69.64,1.51,1.67-.33,3.26-.42,4.84.33.01.04.03.08.05.12,5.27,1.17,4.37,9.56,9.49,9.81,6.33-3.58,10.78-10.34,14.47-16.5.34-.06.64-.29.83-.57-.84-.87-1.47-1.93-2.41-2.78h0Z"/>
        <path id="E-2" data-name="E" class="cls-2" d="m137.14,90.07c-3.49,6.25-8,11.62-13.15,16.6-2.23-2.08-2.81-5.8-5.78-7.29.41-1.1-2.15-2.4-2.94-1.57-2.03-.79-4.31-.95-6.03.35-.74.56-.32,1.69.64,1.51,1.67-.33,3.26-.42,4.84.33.01.04.03.08.05.12,5.27,1.17,4.37,9.56,9.49,9.81,6.33-3.58,10.78-10.34,14.47-16.5.34-.06.64-.29.83-.57-.84-.87-1.47-1.93-2.41-2.78h0Z"/>
      </g>
      <g class="cls-15">
        <path id="F" class="cls-11" d="m178.4,131.02c-.05-.53-.31-1.16-.57-1.58-.01-.34-.06-.82-.13-1.14-.14-.6-1.2-1.81-1.2-1.81l-.5-2.5c-2.38.69-2.39,2.68-1.93,4.87,2.32,13.57-4.05,27.93-15.92,35-6.82,4.81-3.9,16.45-10.52,24.59-8.8,14.68-27.64,28.82-45.27,22.74.39-2.61-4-1.98-5.58-2.48,0,0-6.17-.78-6.17-.78-1.23.18-15.33-2.78-12.3.53.15.33.52.48.83.61-.23.01-.46.03-.69.06-11.22-3.03-35.3-3.31-45.72-8.58-9.7-2.53-14.05,5.19-26.73-2.07,6.14,16.81,13.74,3.05,25.07,7.24,2.13,2.43,9.42,1.64,12.72,2.13,10.17,1.68,20.68,3.64,30.77,5.39,2.62.81,5.32,1.07,7.99,1.33.29.18.62.16.89.02.17.15,3.1.22,3.37.25,0,.41,6.69.2,7,.28,2.95.6,6.99.76,9.98,1.26,0,0,2.13,2.92,3.43,2.93,6.02-.59,12.08-1.87,17.55-4.58,4.43-.7,8.47-3.9,12.21-6.25.04-.44,2.52-2.01,2.52-2.01h21c-.14-5.27-.06-11.73,0-17-.01-.58.02-2.5,0-3,0,0,.77-2.9.51-2.98-.01-3.01,1.66-6.09,1.5-8.9.91-2.62,3.97-7.02,4.99-9.62,1.69-1.95,5.02-10.64,7.11-13.57.52-.85.37-1.57.89-2.43.31-.51.76-1.22.35-1.55.78-2.14,2.36-5.1,2.07-7.27,1.09-2.83.44-6.38.48-9.15h0Z"/>
        <path id="F-2" data-name="F" class="cls-2" d="m178.4,131.02c-.05-.53-.31-1.16-.57-1.58-.01-.34-.06-.82-.13-1.14-.14-.6-1.2-1.81-1.2-1.81l-.5-2.5c-2.38.69-2.39,2.68-1.93,4.87,2.32,13.57-4.05,27.93-15.92,35-6.82,4.81-3.9,16.45-10.52,24.59-8.8,14.68-27.64,28.82-45.27,22.74.39-2.61-4-1.98-5.58-2.48,0,0-6.17-.78-6.17-.78-1.23.18-15.33-2.78-12.3.53.15.33.52.48.83.61-.23.01-.46.03-.69.06-11.22-3.03-35.3-3.31-45.72-8.58-9.7-2.53-14.05,5.19-26.73-2.07,6.14,16.81,13.74,3.05,25.07,7.24,2.13,2.43,9.42,1.64,12.72,2.13,10.17,1.68,20.68,3.64,30.77,5.39,2.62.81,5.32,1.07,7.99,1.33.29.18.62.16.89.02.17.15,3.1.22,3.37.25,0,.41,6.69.2,7,.28,2.95.6,6.99.76,9.98,1.26,0,0,2.13,2.92,3.43,2.93,6.02-.59,12.08-1.87,17.55-4.58,4.43-.7,8.47-3.9,12.21-6.25.04-.44,2.52-2.01,2.52-2.01h21c-.14-5.27-.06-11.73,0-17-.01-.58.02-2.5,0-3,0,0,.77-2.9.51-2.98-.01-3.01,1.66-6.09,1.5-8.9.91-2.62,3.97-7.02,4.99-9.62,1.69-1.95,5.02-10.64,7.11-13.57.52-.85.37-1.57.89-2.43.31-.51.76-1.22.35-1.55.78-2.14,2.36-5.1,2.07-7.27,1.09-2.83.44-6.38.48-9.15h0Z"/>
      </g>
      <g class="cls-15">
        <path id="G" class="cls-11" d="m96.53,98.01c-2.22-2.7-1.11-6.58-1.25-9.91-3.62,1.72-11.22,7.19-12.47,10.96-.28-.12-.52-.33-.61-.61-.34-.05-.72.06-1.04-.14-.61.63-1.55.31-1.9-.32-2.24,2.86-3.56,6.36-5.85,9.16.07.82-.12,1.62-.39,2.4,2.25.7,4.15-5.14,6.4-5.91,1.5-.34,2.94-1.42,4.54-1.62-.14,2.92-.92,6.35.13,9.08-.17,6.13.14,12.59-1.37,18.64-.35.24-.57.69-.5,1.16-.39.26-.64.73-.51,1.2-.23.24-.43.51-.44.85-.29.26-.46.65-.38,1.04-.53.33-.61,1.05-.13,1.6-8.91,15.32-12.81,33.32-10.13,50.87.98-.21,2.05-.17,3.01-.13-1.34-16.75-.22-33.68,8.45-48.45,4.93-12.72,2.3-28.71,14.67-37.77.08-.21.06-.44-.04-.65.07-.48-.05-.97-.22-1.45h0Z"/>
        <path id="G-2" data-name="G" class="cls-2" d="m96.53,98.01c-2.22-2.7-1.11-6.58-1.25-9.91-3.62,1.72-11.22,7.19-12.47,10.96-.28-.12-.52-.33-.61-.61-.34-.05-.72.06-1.04-.14-.61.63-1.55.31-1.9-.32-2.24,2.86-3.56,6.36-5.85,9.16.07.82-.12,1.62-.39,2.4,2.25.7,4.15-5.14,6.4-5.91,1.5-.34,2.94-1.42,4.54-1.62-.14,2.92-.92,6.35.13,9.08-.17,6.13.14,12.59-1.37,18.64-.35.24-.57.69-.5,1.16-.39.26-.64.73-.51,1.2-.23.24-.43.51-.44.85-.29.26-.46.65-.38,1.04-.53.33-.61,1.05-.13,1.6-8.91,15.32-12.81,33.32-10.13,50.87.98-.21,2.05-.17,3.01-.13-1.34-16.75-.22-33.68,8.45-48.45,4.93-12.72,2.3-28.71,14.67-37.77.08-.21.06-.44-.04-.65.07-.48-.05-.97-.22-1.45h0Z"/>
      </g>
      <g class="cls-15">
        <path id="H" class="cls-11" d="m114.82,72.43c-1.61,1.44-3.84,3.01-5.38,4.51-2.21.22-4.78,2.89-6.84,3.84-2.26,1.65-5.33,2.11-7.55,3.54-.64.28-.74,1.07-.19,1.54.36,5.9,26.42-13.71,19.97-13.43h0Z"/>
        <path id="H-2" data-name="H" class="cls-2" d="m114.82,72.43c-1.61,1.44-3.84,3.01-5.38,4.51-2.21.22-4.78,2.89-6.84,3.84-2.26,1.65-5.33,2.11-7.55,3.54-.64.28-.74,1.07-.19,1.54.36,5.9,26.42-13.71,19.97-13.43h0Z"/>
      </g>
      <g class="cls-15">
        <path id="I" class="cls-11" d="m129.84,51.76c.05-.14.13-.26.23-.35-.1-.23-.27-.42-.45-.59-3.01.92-4.58-3.23-4.58-5.57-4.6-.54-9.18-3.71-8.51-8.94-.19-1.71-2.78-1.03-3.67-2.38.94-1.02-.4-2.33-1.45-1.54-.56-.01-1.19.44-1.21,1.01-2.7,2.5-6.79,3.44-10.12,1.57-.71-.21-1.24.59-.92,1.2,2.76,3.92,9.06,1.88,12.24-.62.76.79,1.71,1.37,2.76,1.68-.08,4.91,3.56,9.16,8.52,9.56.65,2.5,1.81,5.33,4.41,6.33-.49,1.71-1.5,14.62,2.09,10.03.11-3.42-.04-7.03,1.1-10.3.2-.48-.05-.88-.43-1.08h0Z"/>
        <path id="I-2" data-name="I" class="cls-2" d="m129.84,51.76c.05-.14.13-.26.23-.35-.1-.23-.27-.42-.45-.59-3.01.92-4.58-3.23-4.58-5.57-4.6-.54-9.18-3.71-8.51-8.94-.19-1.71-2.78-1.03-3.67-2.38.94-1.02-.4-2.33-1.45-1.54-.56-.01-1.19.44-1.21,1.01-2.7,2.5-6.79,3.44-10.12,1.57-.71-.21-1.24.59-.92,1.2,2.76,3.92,9.06,1.88,12.24-.62.76.79,1.71,1.37,2.76,1.68-.08,4.91,3.56,9.16,8.52,9.56.65,2.5,1.81,5.33,4.41,6.33-.49,1.71-1.5,14.62,2.09,10.03.11-3.42-.04-7.03,1.1-10.3.2-.48-.05-.88-.43-1.08h0Z"/>
      </g>
      <g class="cls-15">
        <path id="J" class="cls-11" d="m52.24,127.56c-3.1,16.78-2.34,34.58-5.35,51.4-.05.02-.1.04-.15.06-.03-.03-.05-.05-.08-.08-.15-.71-1.24-1.58-1.99-1.25-.01-.12,0-.24,0-.37-1.34-.09-2.27,1.35-3.39,1.82l-.33.75c-1.33-.01-2.66,1.39-1.15,2.35.13.63.49,1.22.51,1.87-2.43,2.98,1.4,3.24,3.6,3.33.27.3.72.35,1.09.12.74,1.1,3.81.74,4.96,1.03.54.05,1.17-.55,1.1-1.1-.35-1.32.52-2.91-.22-4.05-.46-3.81,1.91-8.87.37-12.06,1.24-14.51.55-29.14,2.78-43.57.13-1-1.54-1.21-1.75-.24h0Z"/>
        <path id="J-2" data-name="J" class="cls-2" d="m52.24,127.56c-3.1,16.78-2.34,34.58-5.35,51.4-.05.02-.1.04-.15.06-.03-.03-.05-.05-.08-.08-.15-.71-1.24-1.58-1.99-1.25-.01-.12,0-.24,0-.37-1.34-.09-2.27,1.35-3.39,1.82l-.33.75c-1.33-.01-2.66,1.39-1.15,2.35.13.63.49,1.22.51,1.87-2.43,2.98,1.4,3.24,3.6,3.33.27.3.72.35,1.09.12.74,1.1,3.81.74,4.96,1.03.54.05,1.17-.55,1.1-1.1-.35-1.32.52-2.91-.22-4.05-.46-3.81,1.91-8.87.37-12.06,1.24-14.51.55-29.14,2.78-43.57.13-1-1.54-1.21-1.75-.24h0Z"/>
      </g>
      <path class="cls-18" d="m83.02,60.44c11.38,0,11.26-12.05-.12-11.83-11.38,0-11.26,12.05.12,11.83Z"/>
      <path class="cls-17" d="m102.9,60.9c16.79-.21,16.66-13.43-.13-13.32-16.78.21-16.66,13.43.13,13.32h0Z"/>
      <path class="cls-16" d="m22.17,193.11c1.05-16.73-14.68-17.78-15.87-1.06-1.06,16.73,14.68,17.78,15.87,1.06Z"/>
    </g>
  </g>
</svg>