<?xml version="1.0" encoding="UTF-8"?>
<svg id="Ebene_1" data-name="Ebene 1" xmlns="http://www.w3.org/2000/svg" xmlns:xlink="http://www.w3.org/1999/xlink" viewBox="0 0 199.39 218.49">
  <defs>
    <style>
      .cls-1 {
        fill: none;
        stroke: #1d1d1b;
        stroke-miterlimit: 10;
        stroke-width: 1.5px;
      }

      .cls-2 {
        fill: #f4efea;
      }

      .cls-3 {
        fill: #e9c3bb;
      }

      .cls-4 {
        fill: #fff;
      }

      .cls-5 {
        fill: #fae6e1;
      }

      .cls-6 {
        fill: #334f2b;
      }

      .cls-7 {
        fill: #e09531;
      }

      .cls-8 {
        fill: #1d1d1b;
      }

      .cls-9 {
        fill: #6d5333;
      }

      .cls-10 {
        fill: #557689;
      }

      .cls-11 {
        fill: #111119;
        opacity: .25;
      }

      .cls-11, .cls-12 {
        isolation: isolate;
      }

      .cls-13 {
        fill: url(#Unbenannter_Verlauf_2);
      }

      .cls-14 {
        fill: url(#Unbenannter_Verlauf_3);
      }

      .cls-12 {
        fill: url(#Unbenannter_Verlauf);
        opacity: .5;
      }
    </style>
    <radialGradient id="Unbenannter_Verlauf" data-name="Unbenannter Verlauf" cx="-185.25" cy="443.19" fx="-185.25" fy="443.19" r=".99" gradientTransform="translate(2205.34 1326.54) rotate(-14.73) scale(9.28 -4.06)" gradientUnits="userSpaceOnUse">
      <stop offset="0" stop-color="#f6c7c0"/>
      <stop offset=".12" stop-color="#f6c7c1" stop-opacity=".98"/>
      <stop offset=".25" stop-color="#f6cac4" stop-opacity=".93"/>
      <stop offset=".38" stop-color="#f7cfc9" stop-opacity=".85"/>
      <stop offset=".51" stop-color="#f8d6d1" stop-opacity=".73"/>
      <stop offset=".64" stop-color="#f9deda" stop-opacity=".58"/>
      <stop offset=".78" stop-color="#fbe9e6" stop-opacity=".39"/>
      <stop offset=".91" stop-color="#fdf5f4" stop-opacity=".17"/>
      <stop offset="1" stop-color="#fff" stop-opacity="0"/>
    </radialGradient>
    <radialGradient id="Unbenannter_Verlauf_2" data-name="Unbenannter Verlauf 2" cx="-270.21" cy="512.97" fx="-270.21" fy="512.97" r=".98" gradientTransform="translate(6474 -749.56) rotate(-87.86) scale(4.16 -12.49)" gradientUnits="userSpaceOnUse">
      <stop offset="0" stop-color="#f6c7c0"/>
      <stop offset=".12" stop-color="#f6c7c1" stop-opacity=".98"/>
      <stop offset=".25" stop-color="#f6cac4" stop-opacity=".93"/>
      <stop offset=".38" stop-color="#f7cfc9" stop-opacity=".85"/>
      <stop offset=".51" stop-color="#f8d6d1" stop-opacity=".73"/>
      <stop offset=".64" stop-color="#f9deda" stop-opacity=".58"/>
      <stop offset=".78" stop-color="#fbe9e6" stop-opacity=".39"/>
      <stop offset=".91" stop-color="#fdf5f4" stop-opacity=".17"/>
      <stop offset="1" stop-color="#fff" stop-opacity="0"/>
    </radialGradient>
    <radialGradient id="Unbenannter_Verlauf_3" data-name="Unbenannter Verlauf 3" cx="-293.02" cy="509.62" fx="-293.02" fy="509.62" r=".98" gradientTransform="translate(5382.81 -594.69) rotate(-87.86) scale(3.17 -10.4)" gradientUnits="userSpaceOnUse">
      <stop offset="0" stop-color="#f6c7c0"/>
      <stop offset=".12" stop-color="#f6c7c1" stop-opacity=".98"/>
      <stop offset=".25" stop-color="#f6cac4" stop-opacity=".93"/>
      <stop offset=".38" stop-color="#f7cfc9" stop-opacity=".85"/>
      <stop offset=".51" stop-color="#f8d6d1" stop-opacity=".73"/>
      <stop offset=".64" stop-color="#f9deda" stop-opacity=".58"/>
      <stop offset=".78" stop-color="#fbe9e6" stop-opacity=".39"/>
      <stop offset=".91" stop-color="#fdf5f4" stop-opacity=".17"/>
      <stop offset="1" stop-color="#fff" stop-opacity="0"/>
    </radialGradient>
  </defs>
  <path class="cls-2" d="m175.72,191.09c-.39-.35-.34-1.09-.94-1.21.1-.91-.74-1.92-1.52-1.02-.16-.12-.39-.16-.59-.12-.16-.35-.57-.52-.94-.43-.08-.08-.17-.14-.27-.2-.03-.84-1.01-1.04-1.41-.47-.12,0-.24.04-.35.08-.34-.38-.8-.1-1.21-.12-.39-.27-1.01-.16-1.21.31-.1-.02-.2,0-.31,0-.12-.47-.62-.59-1.02-.43-.45-.04-.87-.24-1.29.08-.63-.52-1.37.17-1.29.98-.12.04-.23.08-.31.16-.31-.16-.74-.08-.98.16-.23,0-.51.16-.66.35-.41-.06-.8.24-.9.67-.45-.06-.93.28-.94.78-.77.2-.49,1.12-.47,1.68-.34-.37-.96-.27-1.21.19-.15-.06-.34-.04-.51,0-.23-.2-.55-.23-.78-.12-.12-.27-.35-.43-.59-.47-.49-.68-1.49-.17-1.44.63-.23-.16-.62-.16-.9,0-.06-.69-1.05-.8-1.41-.27-.2,0-.39.04-.55.2-.31-.08-.62,0-.82.27-.35-.08-.82.12-.98.51-.23.04-.47.2-.59.47-1.95-.51-.48,3.23-.59,4.03.08.55.66.66,1.05.47.22.29.6.4.94.27.2.24.55.27.86.16.24.23.62.26.9.08.13.18.38.25.62.23.15.24.5.39.78.27.12.08.23.12.35.16.08.2.24.31.43.39.06.44.46.76.9.7.36.18.49.66,1.02.59.1.12.34.13.51.12-.28,1.19,1.34,1.97,1.6.59,0-.08,0-.16.04-.2.08,0,.16-.04.23-.04.02.82.83,1.35,1.45.78.2.24.59.31.9.2,2.22.8.5-3.26.51-4.07.48-.35.82-.72.62-1.37.48-.03,1.1.03,1.21-.63.26-.09.39-.36.43-.63.28.1.6.01.82-.2.27.04.59-.08.74-.31.08.08.2.16.31.2.16,1.37,1.87.66,1.6-.51.27.04.55-.04.7-.24.2,0,.43-.04.55-.2.21.12.47.15.7.08.11.04.24.04.35,0,.35.2.82.08,1.05-.27.24.11.52.09.74-.04.12.04.27.08.43.04.4.83,1.71.34,1.45-.63.42.02.7-.35.86-.71.31,0,.59-.16.66-.43.51-.12,1.13-.94.62-1.57h0Z"/>
  <path class="cls-5" d="m90.88,33.65c1.72-1.37,1.37-5.01.08-6.62,1.99-1.53,2.85-4.54-.47-4.82-1.76-1.29-2.11-3.76-3.16-5.6.04-.24-.19-.59.08-.7.16-.59-1.84-2.74-.82-2.55.12-.12.31.04.43.08.04-.08.16-.08.27-.04.39-.12.86-.12,1.25-.23l-.78-2.78c-.27-.98-1.68-.55-1.52.43l.19,1.06c-.31-1.14-1.76-1.64-1.84-.2-.35-.63-1.37-.39-1.44.27-.39,0-.74.27-.74.7-.19,0-.39.08-.51.23-.47-1.02-1.99-.31-1.41.66-.19.08-.31.23-.39.43-1.13-.7-1.56.7-1.13,1.64-.35,0-.74.27-.82.67,0-1.29-1.88-1.6-1.68-.16l.47,1.49c-.35.35-.04.98.04,1.41-.78-.63-1.68.31-1.17,1.17-.74-.55-1.64.43-1.13,1.25-2.19-.12-.19,2.78,0,3.88-.04.04-.08.04-.12.08-.7-1.84-2.38-1.41-1.8.55-.9.04-.7.98-.59,1.6-.19.08-.35.2-.43.43-.51-1.06-1.88-1.53-1.88,0l.51,2.04c-1.8-2.98-2.85-1.17-1.8,1.33-.23.12-.43.35-.47.63-.29.07-.51.3-.59.59-.35-.04-.7.2-.86.55-1.29-.08-.82,1.8-.9,2.62-.27-.78-1.6-.63-1.6.24-.74-1.25-1.84-.35-1.68.86-.86.08-.78,1.06-.47,1.64-.78.43.43,3.13,1.13,3.25.83.62,1.57-.46,1.21-1.29.31-.2.27-.63.27-.94.35.74.9,1.76,1.88,1.29.86.43,1.37-.51,1.09-1.25.08,0,.27-.08.35-.08.3,1.23,1.85,2.47,2.03.55.23.04.47,0,.66-.16.19.9,1.37,1.06,1.6.2.19.63.94.59,1.29.2.27.9,1.68.39,1.48-.47,3.83.16,6.3,3.35,8.44,5.72-.35-.78.77-1.67.31-2.43.13.08.25.14.39.16.23-.43.43-.9.7-1.29-.04-.08-.08-.16-.08-.24.56-.15.85-.75,1.17-1.17v-.12c1.77-1.34,5.93.23,6.21-3.05-.04-1.45-1.48-2.43-1.29-3.72h0Z"/>
  <path class="cls-7" d="m104.16,112.61c.62-2.15-.74-4.02-.74-6.03.35-.63-.51-1.53-.78-2.11-.74-4.66-2.97-9.13-3.67-13.82-.47-6.39.54-12.77-1.64-18.91l-.19-.16c-.04-.12-.08-.24-.16-.35-.09-2.26-.95-6.1-2.5-7.75-1.02-1.76-1.76-4.85-3.98-5.17-1.29-3.52-4.49-3.92-5.78-7.99-.23-1.1-.42-2.35-1.02-3.29-.31-1.49-1.64-2.31-2.19-3.64-.86-.39-1.09-1.57-2.23-1.8-.08.04-.12.04-.19.08-1.64-.9-3.59-1.22-5.35-1.57-.43-.35-1.21-.27-1.76-.39-.19-.2-.55-.27-.82-.16-.27-.12-.62-.16-.9-.08-.35-.16-.66-.27-1.06.04-.43-.12-.82-.2-1.21-.04-1.2-.04-2.86-.65-3.79.31-4.2.06-4.79,1.87-3.94,5.76-7.73,4.5-5.39,7.79-8.28,14.41-.16,3.17-5.35,7.2-3.59,8.14.12.51.04,1.06.31,1.49v.24c-3.87,2.47-1.65,7.86-4.06,11.51-.67.28-2.22.23-1.41,1.33.45,1.28-1.6,11.16,1.21,8.89,1.73-1.92,4.34-1.64,6.6-2.08,2.54.74,5.04,1.88,7.15,3.48,1.17,3.56,2.8-3.56,3.71-4.46,1.3,4.38,1.36,8.77.9,13.23-.55,2.7-1.6,5.28-2.77,7.79-.84,1.62-3.2,4.25-2.81,6.15-.32,1.45-1.06,3.05-.63,4.46,7.59,4.8,17.7,6.25,26.56,4.78.39.47,1.02.47,1.25-.08,5.89-.87,11.55-4.07,17.66-2.58,1.68,1.17,1.56-1.21,1.64-2.27-.04-.78.74-1.8.08-2.47.51-1.19.59-2.68.47-3.95.27-.24-.12-.55-.08-.94h0Z"/>
  <path class="cls-10" d="m104.94,122.39l-.04-.04c.21-1.36-1.69-1.3-1.68-.04-.03.03-.13.13-.16.16-1,.37-1.88,2.11-.2,2.08-.34,1.09,1.48,1.43,1.52.24.38-.69,1.42-1.67.55-2.39Z"/>
  <path class="cls-7" d="m103.77,121.69c.05-.3-.18-.52-.31-.67-.08-.08-.18-.19-.31-.2-.1-.19-.31-.34-.47-.51.15-1.11-1.48-1.5-1.6-.27-.2,1.16,2.53,4.02,2.7,1.64Z"/>
  <g>
    <path class="cls-9" d="m80.72,17.01s0,.04,0,0Zm-.16-.12s-.12-.08,0,0Z"/>
    <path class="cls-9" d="m89.79,9.26c-.08.16-.16.35-.39.31-.43.47-.98.74-1.6.7-.18-.15-.4-.24-.62-.27-.19-.23-.43-.43-.66-.55-.47-1.57-1.6-2.78-3.2-2.82.04-1.76-1.48-2.78-3.09-2.86-.43-.55-.94-1.17-1.68-1.25-.94-1.13-2.77-2.74-4.34-2.04-2.19-.74-3.98.98-5.59,2.23-1.48-1.88-4.45-2.23-5.98-.2-1.44-.7-3.12.12-3.56,1.64-2.97-.07-5.95,2.63-6.68,5.44-3.63,2.9-6.21,8.06-4.38,12.68-1.25,2.7-.19,5.87,2.23,7.52-.7,2.43.78,5.64,3.63,5.17-1.48,1.84,1.91,2.82.9,4.58-.47.9.94,1.41,1.44.55.35-.67.98-1.1,1.6-1.53,1.48,1.1,3.94.39,4.96-1.06,1.6-.16,5.08-1.1,4.34-3.29,2.93.2,4.61-2.43,3.01-4.93,1.99.24,3.79-.86,4.26-2.74,1.09-.12,3.48-2.47,1.29-2.66-1.6-2.66,3.98-3.64,3.2-7.08.08.39.9.2,1.25-.12.16.08.32.17.47.27,0,0-.04,0-.04-.04l.19.2-.04-.04s0,.04.04.04c-.04.12-.04.2-.08.31.35-.08.19.59.23.78,1.8,1.64,2.15-2.82,1.29-3.72,1.19-2.12,2.02-2.14,4.1-1.06.08-.08.16-.04.23,0,.12-.16.31.04.43.08,1.56.3,5.63-3.88,2.81-4.27h0Z"/>
  </g>
  <path class="cls-5" d="m62.52,88.14c-.91,1.27-1.39,2.73-1.91,4.15-.59.35-.78,1.17-1.06,1.8-.23.04-.39.31-.51.51-.17-.93-.76-1.91-1.64-2-.16-.39-.59-.59-.9-.47-.23-.47-.62-1.17-1.21-.86-3.67-2.66-10.82-2.54-10.78,2.19,0,1.37-4.57,5.48-3.48,6.62-3.18,6.43-5.11,13.55-7.19,20.39-1.2,2.75-1.82,5.7-2.54,8.61-1.92-.33-4.34-.79-6.13-.24-1.49.31-3.23.76-4.38,1.72-.78.51-2.07.82-2.34,1.72-4.5,1.62-9.51.56-13.95,1.41-.43-.04-.98.16-1.05.63-2.38-.04-3.8-.3-3.01,2.58,2.39.52,4.95-.14,7.34.2.04-.04.08-.12.12-.2.51.12,1.17.51,1.56-.12l4.69-.08c4.7.9,10.22-.05,15.23.04,8.05,1.15,16.43-.34,24.61,0,.23.35.66.47,1.02.27.63-.25,4.77.62,4.26-.86,1.21-.78,2.42-2.58,1.8-4.11.31-.51-.04-1.1-.55-1.29-.78-1.76-1.56-3.48-1.99-5.36.35-.63-.08-1.41.12-2.11,1.25-.12,1.41-2.04,0-2-.27-.2-.7-.27-1.02-.12-.04-.04-.12-.08-.16-.12.62-.78-.04-2-1.02-2.04,1.68-9.06,8.7-16.96,6.29-26.85.23-.24.35-.59.23-.9l1.02-2.35c.27-.9-.9-1.64-1.48-.78h0Zm-21.41,45.72l-.59,1.06h-.12c.27-.39.51-.74.7-1.18v.12Zm11.88-27.17c-.7,5.48-.78,10.96-.74,16.44-1.06,2.58-2.93,4.89-2.23,7.83-2.73-.82-6.29.74-8.67,2.23.19-.43.31-.94.35-1.41,1.12-1.43,1.56-3.69,1.68-5.44,1.44-9.86,4.77-12.45,9.61-20.39.04.23.04.47,0,.74Z"/>
  <path class="cls-7" d="m65.64,90.14c-.14-.44-.36-.88-.74-1.13.05-.96-.49-3.49-1.76-2.03-.27,0-.51.12-.66.35-1.07.59.13,2.5.12,3.41.14.77.42,1.84.55,2.58.24.95,1.88.61,1.76-.35.24-.48.1-1.06.23-1.57.42-.18.58-.82.51-1.25h0Zm-5.66,25.52c-.88-.02-1.33.75-1.72,1.41-.04,0-.04.04-.08.08-.55.27-1.24.73-1.21,1.45-.99.93-.2,2.19.98,2.23.41.22.95.04,1.09-.39t.04-.08c.34-.48-.1-1.17-.66-1.13.06-.16.09-.34.08-.51.7-.23,1.13-.88,1.49-1.49.92-.03.96-1.58,0-1.57Z"/>
  <path class="cls-10" d="m172.36,184.83c-.3-.41-.42-.9-.27-1.33-.31-1.12-.99-2.1-1.6-3.05.08.04-.04-.08,0,0,.33-.51,1.11-.65,1.02-1.41.99-1.9-2.01-.9-2.62-3.52,2.74-3.37-2.97-7.01-3.83-10.45-2.52-7.98-2.9-16.78-6.37-24.39,1.02-4.97-1.05-10.37-4.02-14.33.04-.55-.66-.9-1.02-1.29-8.4-8.91-31.79-7.66-43.83-9.12-.23-.08-.51-.08-.74.12-1.03-.18-2.32-.39-3.36-.04-1.68-.86-1.64.71-1.64,1.92-.34,1.09-.52,2.61-.27,3.76-.31.75-.79,1.43-1.68.74-7.13-1.83-13.89,2.71-20.98,3.09-.55-.35-1.29.16-1.88.27-.55.04-1.29-.27-1.76.08-.79-.47-2.71-.24-3.67-.16-4.36-.5-8.76-1.31-12.77-3.29-.19.39-.7-.2-1.02-.27-.04-.47-.47-.55-.94-.43l-.04-.24c-.08,0-.19,0-.23-.08,0,0-.04,0-.04.04-.04-.04-.12-.04-.16-.08-.55,2.16.08,4.83,1.06,6.73,1.77,3.96,3.97,9.62,9.22,9.12.43.51,1.52.86,2.07.39,1.33.08,2.62-.04,3.91-.2,7.08.74,14.54-.16,21.8-.08,13.05.03,26.39,0,39.61.08,1.72,1.2,1.79,4.11,2.11,6.11-.07,2.24.29,4.77.2,7.12-1.41,7.93.22,16.07,1.72,23.84-.66.59.43,2.15.47,3.01.94,1.83.94,3.99,1.72,5.91h.08c.24.61.53,1.29,1.02,1.68.7,1.1.86,2.31,1.21,3.56-.12,0,0,0-.12-.08-.39.12-.98.12-1.17.51-1.95-.55-1.09,1.33-.31,2.07-.04.51.47,1.02.78,1.41-.04.47,0,.9-.04,1.37-.82.53-2.16,2.77-.55,2.82,1.05-.9,2.26-.98,3.59-.9,1.6.41,3.56-.54,5.16-.98.59.31,1.13-.39,1.68-.43.39.16,1.25.16,1.56-.16,2.55.51,7.07.39,6.05-3.41.74,0,1.29-.24,1.8-.59.62-.04,1.13-.39,1.45-.9l1.21-.47s.08.04.12.04c.04.12.27.24.16.04,2.14-.65,4.17.9,6.17,0,0-.16,0-.31.04-.47.31-.99.36-2.65-.04-3.72h0Zm-34.49-46.94c-.12-.08-.16-.24-.27-.27-.08-.12-.12-.2-.2-.31h.27c-.04.2.12.39.2.59h0Z"/>
  <path class="cls-9" d="m199,195.83c-.04-.43.08-.94-.24-1.29-.23-1.18-.04-3.48-1.91-2.78-3.72-.42-7.72.57-11.48-.16-.23-.39-.7-.24-1.09-.31-.59-.59-1.52-.71-2.3-.74.27-.78-.31-1.68-1.17-1.6-.47-.27-.94-.78-1.52-.74-1.45-.73-3.08-1.58-4.76-1.64-1.18-1.44-2.23.48-1.95,1.68-1.01,2.11,1.05,2.66,2.46,3.48-.43.12-.86.35-1.09.74-3.29,1.18-6.9,1.13-10.35,1.29-.74-.74-2.03.12-1.29.98-3.28,2-1.95,2.39-.74,5.21-3.62,3.12-8.92-4.81-13.16-4.07-1.83-.33-5.86-.68-3.95,2.35-.67,12.01.39,4.35,12.77,12.49,2.51,3.05,23.51,11.47,23.52,5.05.82-1.8,1.37-4.7-1.52-4.46-.04-.04-.12-.04-.16-.04-3.59-2.33-8.34-4.03-10.78-7.79.04-.12.08-.24.08-.35,8.79.08,18.52.84,26.52-3.29v-.08h.04c.16-.12.35-.24.47,0,.9-.78,2.3-1.25,2.81-2.43.74-.12,1.45-.78.82-1.49h0Z"/>
  <path class="cls-4" d="m84.98,21.63c.13-.51,0-1.07-.31-1.49,0-.04,0-.08-.04-.12,0-.04-.04-.04-.04-.08.28-.26-.39-.66-.58-.47-.13-.01-.27.16-.27.27-.4.38-1.01.73-1.29,1.21-.13.06-.15.24-.27.31.03.31-.56.85,0,.98.28.08.63.58.9.47.27-.11.66.06.94-.16.12-.04.31.12.39,0,.04,0,.19-.12.23-.12.04.08.04-.12.16-.16,0,0,.04-.16.08-.2.12.08-.08.12,0,0,.16-.08.16-.27.12-.47,0,.04,0,.03,0,0Z"/>
  <path class="cls-6" d="m85.02,20.42c-.03-.56-.64-.82-1.13-.63-.55.45-.32,1.58.04,2.11,0,0,0,.04.04.04.84,1.19,1.16-.91,1.06-1.53h0Z"/>
  <path class="cls-3" d="m91.62,30.83c-1-.33-2.12.61-2.89,1.09-.52,1.72,1.66,1.1,2.38.35.94.34,1.49-1.1.51-1.45h0Z"/>
  <path class="cls-10" d="m143.3,195.56c1.8-1.53,5.8-2.42,5.74-5.01-1.31,2.4-3.81,2.99-5.9,4.42-1.72,1.15-.04,2.49,1.25,1.18.76-.62,4.09.54,3.75-.67-1.41-.14-3.06-.43-4.34.31-.4.5-1.41.34-.51-.23h0Z"/>
  <g>
    <path class="cls-11" d="m85.69,39.56c-2.66-1.45-5.59-1.29-8.44-1.72-.04-.04-.08-.08-.08-.12-.62.16-1.33-.04-1.76-.55-.08,2.08,1.95,3.92,3.87,4.23,1.06.86,2.11,1.64,2.62,2.97.39.78,1.76.24,1.44-.59.55-.9,1.25-1.76,1.88-2.7.7-.12,1.29-1.1.47-1.53h0Zm4.22-30.34c-.23.39-.7.9-1.13.82-.23.31-.55.39-.86.2v-.43c-.04.16,0,.31-.04.43-1.8-.99-2.41-4.05-4.77-3.56v-.47c-1.88.22-2.77,1.8-3.79,3.17-.66,1.06-3.16.78-2.77,2.35-.78,1.11-.99,2.96-2.77,2.55-.23.31-.82.27-.47-.16-.43.2-.9-.08-1.29-.27.47-1.8-2.19-1.92-3.32-1.29-1.37.43-2.15,3.33-.19,3.33l.35.55c-.21.45.06,1.01-.27,1.37-.08-.08-.19-.12-.35-.12-.1.32-.13,1.22-.59,1.06-.04.04-.04.08-.08.16.03.54-1.06,1.09-1.52,1.21-.9,1.64-3.24.27-2.73,2.11-.19.35-.16.9.16,1.14.04,1.85,1.33,3.27,2.73,4.31-5.31,2.62.82,10.14,4.38,5.32h.12c.35-.63.62-1.45.23-2.11-.08-.12,0-.27.12-.27,3.11-.27,4.5-3.28,7.03-4.74,1.33-1.21-.66-3.13.7-4.23.59-.39,1.33-.67,1.8.04,0,.9,1.29,1.1,1.52.24.16-.63.31-1.37.9-1.68,3.91-2.15,2.07-2.62,4.1-5.01-.74-1.57-.66-1.49.94-1.33.04-.08.08-.16.08-.27l1.44-.51c.31-1.21,2.23-3.44.35-3.88h0Zm-16.56,19.41c-.19.12-.39.24-.59.31.12-.31.27-.59.43-.9.13.12.29.21.47.24-.12.12-.19.24-.31.35h0Zm5.39-9.9c.04-.16.08-.35.19-.47,0,.16,0,.35-.04.51-.04-.04-.12-.04-.16-.04Zm-36.09,92.23l.59-2.47c-.26.16-.53,2.19-.62,2.47,0,0,.04,0,.04,0Z"/>
    <path class="cls-11" d="m76.07,58.66c.27-7.01-5.55-11.35-9.77-4.03-5.31,8.03-5.51,18.01-8.4,26.97-.27-.24-.7-.24-1.02,0-3.81,4.16-2.77,12.45-8.4,15.85-5.39,5.72-8.48,24.23-8.94,32.37.43,1.41-3.16,7.55.04,6.42,3.71-5.36,3.94-12.02,5.78-18.12-.04-.16,5.62-8.03,5.04-8.03.23-.3.42-.59.43-.9.74.12,1.68-2.9,1.99-3.29,2.65-2.89,1.67-7.66,5.12-10.02-.66,6.07-2.42,12.41-.12,18.28.43-1.23,1.08-2.41,1.88-3.41,0-.04.04-.04.04-.08l-.04-.04c5.71-17.04,14.16-34.06,16.37-51.99h0Zm123.32,137.01c-.94-.9-3.95,1.25-4.73,2.04-6.58,3.18-16.51,4.32-18.63-4.7.43-.78-.66-1.64-1.29-.98h-.12c-.12-.31-.39-.55-.74-.55-.24-.71-.9-1.13-1.56-1.41-.21-1.18.16-2.49.35-3.76-.04-.04.08-.63.04-.63-.2-1.33-.82-2.82-1.13-3.88.04-.04.04-.08.08-.12-.16-.31-1.09-1.29-.43-1.37,0-.16.12-.2.27-.2.31-.43.59-.94.78-1.45-.31-.94-1.45-1.72-2.46-1.6-.2-.35-.35-.78-.78-.98.08-1.14-.98-2.27-2.19-2.35-.16-.24-.35-.47-.62-.55,0,.08,0-.08,0,0-.31.16-.55-.12-.74-.31-.08,0-.2-.39-.27-.35-3.71-3.05-6.49-7.24-7.77-11.9-3.21-3.36-1.19,12.42.74,13.27.35.9.47,1.88.7,2.82-.39.2-.35.74-.43,1.13-.74.35-1.13,1.21-.94,1.88-.08.08-.2.2-.27.31-.08.44,2.5,3.15,1.17,2.51-.16.43-.55-.12-.78-.2.04.04,0,.08,0,.16-.24-.08-.47-.12-.7-.12-.04-.04-.08-.04-.08-.08-.18.11-.51-.03-.74,0,.08-.04.16-.04.2-.08-.56-.12-1.33.36-1.68-.27-.08,0-.16-.27-.2-.31,0,0-.04,0-.04.04-9.41-7.71-10.51-21.37-12.3-32.61-1.11-14.17,2.39-16.52-14.41-15.97-2.65.09-5.52-.21-8.2-.47-5.75.33-13.38-.59-19.65-.71-.04.12-.19,0-.27-.04-.16.12-.39.27-.51,0-.35-.12-.9.27-1.17,0-.31.21-.66.11-.98,0-.27.08-.51-.2-.74-.2.31.12.08.63-.16.39-1.21-.82-3.01-.39-2.73-2.58,1.29-4.03,8.36-2.43,8.87-7.28.08-.04.16,0,.23.04.2.31.31.74.7.86v-.16s-.04-.04-.08-.08c-.16.12-.39-.08-.27-.23,2.47,1.37,1.57-14.71.82-16.21h-.04c-1.04-2.46-1.27-4.99-2.07-7.55-.24-.12-.24-.2-.43-.08.26-1.47-.53-2.64-.74-4.07-.43-1.37-.62-2.47-1.09-3.84.55-1-.88-2.27-.16-3.37,0-.16-.08-.82-.08-1.02-.78,4.78-1.17,17.3-6.6,18.75-1.37.24-2.31-1.14-2.58-2.31.04-5.48,1.29-10.33-3.44-14.6,0,.82-.04,1.64-.04,2.43l.04.04c.62,5.68-1.52,11.55-4.81,16.05-.94.94-1.06,2.11-1.02,3.4.1.07.19.15.27.24.39.08.78.27,1.06.51,1.44.16,2.93,1.18,4.38.39.58-.05,1.6.48,1.99-.12.9,0,1.8.12,2.42.67-.04.43.59,1.8.08,1.96,0,.12-.04.27-.19.31-.21,2.54-14.69,11.97-6.25,10.53,0,.04.04.08.08.08-.82.27-1.64.59-2.5.82-1.02-.39-2.23.08-3.28.12-1.02-.78-2.34-.11-3.51-.47-.43.14-1.27-.46-1.37.39-4.97-.95-10.3-1.4-14.77-4.27-.04.2-.23.24-.35.12v-.23c-.53-.31-1.13-.54-1.56-.9.47,5.28-3.59,10.3-2.03,15.42.9,1.84,3.91,1.25,4.38.04.47-1.18.16,1.06,1.56-1.96.04-.12.08.08.19.16.47-.81-.7-2.81.2-3.01.12.39.43.66.55,1.06h.04c.04.12.12.24.19.31,0,.04,0,.08-.04.16.23.04.16.31.12.47,0,0,.04,0,.04.04.04-.12.12-.16.23-.16.2.28.42.54.66.78-.04.16-.08.31-.12.43.16.2.74.43.47.71.12,0,.19.08.31.08v.04c.31.23,1.17.82.9,1.25,1.46,1.06,3.17,1.11,4.8,1.49.31-.08.59-.08.9-.08-.04-.04-.12-.08-.16-.12.47-.09.99.22,1.44.16-.08-.04-.16-.12-.19-.16,1.06-.15,2.36.41,3.28-.08h.23c-.04.08-.08.12-.08.2.59.08,1.17-.04,1.72-.08.04-.04.04-.12.08-.16h.31v.16c1.13-.12,2.23-.12,3.36-.04,0-.04.04-.08.04-.16,4.53.36,9.41-.15,13.91.04,13.94,1.17,29.52-1.47,42.81.9.08-.04.12-.04.2-.08.12.12.12.27.23.35,2.32,8.04-1.13,19.48,1.49,27.09.04,5.4.9,10.65,2.89,15.66-.43,2.65,2.77,4.56,2.81,7.2-.16.24-.43.39-.74.35-3.01-.55-.74,2.78.08,3.8-.74.89-2.86,5.38-.04,3.56.08,0,.23.12.31.08-.39.89.6,2.16.12,2.9.29,2.1.02,4.07,0,6.15h.23c12.52,2.61,17.95,12.11,31.56,12.49h-.04c1.25,0,3.09.9,4.1.04,1.99-2.94-8.71-1.8-9.73-3.88-3.01-1.68-4.69-5.52-3.05-8.73-.31-.27-.51-.67-.7-1.02-.08.2-.16.43-.27.63-.27-.35-.86-.35-1.17-.04,0-.67-.69-.81-1.17-.74-.04-.27-.08-.59-.35-.7-.16-.27-.31-.55-.59-.71-.04-.94-.55-1.68-1.09-2.43-.15,0-.29.03-.43.08-.08-.39-.16-.82-.59-.98-.08-.9-.39-1.68-.74-2.51.04,0,.08,0,.16-.04-.12-.24-.04-.9.35-.86.27-.55.98-.74,1.45-1.1.04-.12.04-.24,0-.39l.2-.2c1.48,1.74,2.86,3.68,4.22,5.44.31.43.59.86.9,1.25,0,.12,0,.24-.04.35.31.51.7.98.98,1.49.08,0,.12-.04.2-.08.08.08.17.14.27.2,0,.08,0,.2.04.27.2-.2.59-.04.82-.08.04-.04.12-.04.2,0,4.46-.2,9.03,0,13.48-.08,5.59-.59,11.84-2.21,15.78-6.34-.08-.27-.12-.67,0-1.06h0Z"/>
  </g>
  <path class="cls-12" d="m83.69,20.81c11.64-3.11,13.78,4.83,2.07,7.87-11.63,3.15-13.78-4.85-2.07-7.87Z"/>
  <path class="cls-13" d="m15.53,134.1c-.25-5.38,25.61-4.38,25,.94.25,5.38-25.64,4.38-25-.94Z"/>
  <path class="cls-14" d="m39.94,135.11c-.21-4.08,21.33-3.31,20.78.78.21,4.08-21.33,3.31-20.78-.78Z"/>
  <path class="cls-1" d="m70.49,137.54h71.6"/>
  <g>
    <path class="cls-8" d="m71.31,137.23c-7.37.97-11.12-6.81-12.38-13-.03-1.16-.52-1.95-.47-.2,1.06,5.79,4.49,14.36,11.56,13.7.37,0,2,.14,1.29-.51Zm9.22.31c.09-.54-.75-1.06-1.01-1.49-.43-.28-.72-1.45-1.25-1.17-.35.48,1.81,3.14,2.27,2.66h0Zm1.6-.12c.06-.12-.09-.32-.08-.47,0,.04,0-.04,0,0-.01-.36.04-.8-.23-1.06-.06-.12-.35-.15-.39.12,0,.08,0-.04,0-.04-.03.04-.05.11-.04.16,0-.01,0,.22,0,.27-.02.26.15,1.79.74,1.02h0Zm-19.61-46.47c2.84,15.23-6.87,20.3-5.88,28.99,1.8-9.34,10.23-19.41,5.88-28.99Zm-5.94,29.52c9.17,5.57,20.73,6.69,31.05,4.11,5.07-1.39,10.39-3.45,15.63-1.6.23.08.39-.27.16-.39-16.5-3.46-21.55,9.2-46.84-2.11Z"/>
    <path class="cls-8" d="m58.89,125.8c1.72.59,4.36-.11,5.9-1.1-.21-.86-2.15.67-2.93.55-.69.12-2.08.27-2.77.31-.1-.01-.22.1-.19.24h0Zm.78,1.68c2.31.39,4.67-.63,6.72-1.68.23-.14,1.11-.49.66-.78-1.79.62-3.51,1.64-5.47,1.84-.43.22-2.54-.17-1.91.63h0Zm13.28-.9c.17,2.49,1.9,5.88.35,8.14-.38.58-1.37,1.34-1.6,1.96.62.68,1.61-1.26,2.11-1.64,1.47-2.26.09-6.57-.86-8.46h0Z"/>
    <path class="cls-8" d="m73.84,129.79c-2.51-.48-5.13,1.33-5.82,3.72l.27-.12c-1.03-.57-3.59-1.41-4.18-.31,1.36-.13,2.77-.2,3.99.59.92-1.22,1.82-3.3,3.83-3.56.48-.32,1.99.15,1.91-.31Zm4.34-3.68c3.18,7.92,14.13,5.42,20.9,6.22,12.23.25,27.32,1.44,39.49.94-.03-.1,2.25.08,1.64-.35-11.93.39-26.8-.76-38.79-1.13-7.12-1.05-17.22,1.71-22.15-4.81-.27-.38-.75-1.84-1.09-.86h0Z"/>
    <path class="cls-8" d="m132.71,133.31c1.33-1.18,2.93-3.23,4.14-4.58-1.27.57-3.41,3.29-4.14,4.58h0Zm-.35-.39c-.99-1.13-.91-3.31-1.64-4.15-.27,1.07.69,4.29,1.64,4.15h0Zm11.72,63.38c-.7,1.4.13,4.04,0,5.6.19.97-.65,3.93.74,4.27.28.11.77-.34.35-.47-.82-.06-.4-1.37-.47-1.88,0,0,0-2.51,0-2.51-.05-.79-.17-2.92-.27-3.68-.14-.39.37-1.52-.35-1.33h0Zm18.24-1.8c-.94.43-2.95,1.47-2.46,2.78,1.05,2.98,3.11,5.78,5.27,8.06.16.35,2.62-1.35,2.81-1.37.86-.32.96-1.16.35-1.8-1.26-1.64-3.62-5.6-5.19-6.89-.46.12.33.89.47,1.13,1.37,1.87,3.11,4.25,4.38,6.19.97.92-2.46,1.88-2.81,2.35l.31.04c-2.23-2.28-4.28-5.29-5.16-8.34.22-.54,2.58-1.7,2.03-2.15h0Z"/>
    <path class="cls-8" d="m166.27,199.63c-.35-.02-2.97,1.15-1.76,1.49.35-.1,2.5-1.07,1.76-1.49h0Zm-1.13-1.49c-.53.06-3.14,1.54-2.38,2,.28-.18,3.28-1.78,2.38-2h0Zm-3.59,2.04c-2.55.47-5.06-1.15-7.31-2.19-.48-.09-2.61-1.7-2.62-.94,1.51,1.06,9.31,5.83,9.92,3.13h0Zm6.76,3.52c2.49,4.93,8.15,6.45,12.62,8.65.86,1.06-1.52,4.43-.35,4.58,4.68-8.6-7.06-4.93-11.91-13.51-.16-.23-.47.08-.35.27h0Zm-2.11.82c-.15.59,2.31,3.4,2.07,1.8-.64-.49-1.18-1.16-1.76-1.72-.06-.02-.1-.06-.16-.08-.08-.16-.2-.08-.16,0h0Zm2.66,2.74c.78,1.66,8.75,6.39,9.88,5.48-2.65-1.18-5.56-2.46-7.89-4.23-.6-.27-1.3-1.34-1.99-1.25.04-.04,0-.04,0,0h0Zm-24.41-4.31c11.63,1.51,21.52,13.98,32.93,12.8-4.31-.66-8.8-1.83-12.66-3.92-6.33-3.48-12.72-8.81-20.23-9-.04.04-.08.12-.04.12Zm54.81-6.93c.03-1.45.24-4.54-1.64-4.78-4.72-.23-9.61,1-14.18-.63-1.07.48,1.11,1.01,1.52,1.1,3.48.92,7.63.13,11.17.16.5.09,1.45-.1,1.87.19.54,1,.66,2.94.94,4.07.12,0,.31.04.31-.12h0Zm-2.97-3.01c-4.32.52-8.92.38-13.16-.63-.76,1.4,12.62,1.83,13.16.63h0Zm-23.67-6.54c-2.51,5.21,4.09,6.53,7.89,7.67.76-.2,2.52-4.44,1.76-5.05-.66-.31-9.2-4.42-8.4-2.86,2.46.96,5.46,2.11,7.85,3.25.18.05.22.15.12.31-.4,1.3-.92,2.61-1.6,3.8l.35-.16c-2.86-.7-5.79-1.79-8.16-3.52-.3-.39.36-3.06.35-3.52.12-.04-.12-.08-.16.08h0Z"/>
    <path class="cls-8" d="m177.05,187.26c-.56.54-.8,1.57-1.13,2.27-.6,1.16.4,1.48.55.16,0-.51,1.3-2.43.59-2.43Zm1.8.82h.08c-.61.39-.64,1.52-.98,2.15-.35.68.44.94.55.19.1-.68.74-1.67.51-2.31l.04.08c.02-.1-.1-.21-.2-.12Zm-4.49,3.45c-3.26,2.71-8.71,1.11-12.07,2.11,1.4.93,14.27,0,12.07-2.11h0Zm-28.63,4.19c3.42,1.41,7.02-1.55,10.51-1.29,4.6.26,6.31-.37,5.35-5.36-.3-1.96-2.53-3.48-2.46-5.28-.78,1.61.98,2.98,1.48,4.31.45,1.55,1.35,4.46-.27,5.52-1.95.82-4.16.17-6.17.59-2.78.54-5.53,2.13-8.44,1.49-.04-.12-.04,0,0,.04h0Z"/>
    <path class="cls-8" d="m159.08,185.14c-1.96,3.49-7.47,2.8-9.65,5.32,3.1-1.91,8.24-1.43,9.84-5.28,0,0-.12-.12-.2-.04h0Zm2.46,5.52c.82,1.04,2.44-.38,3.28-.82,2.02-1.34,4.51.33,6.6-.51.26-.68-3.61-.35-4.26-.67-2.13-.29-3.74,1.82-5.63,2Zm5.51-6.62c1.78-2.74,8.33-4.81,2.7-7.52-.8-1.45-1.79-2.78-3.48-3.25-1.19-.81-2.54-1.46-.59.16,2.14.66,2.89,2.55,4.26,4.03,4.64,1.56-3.19,4.48-2.89,6.58h0Z"/>
    <path class="cls-8" d="m170.88,180.56c.22-.04.1-.34-.08-.31-.48.15-.11.74.04,1.06.52,1.3.96,2.68,1.72,3.88.99.21-1.23-4.3-1.6-4.82l-.04.16-.16.04v-.16c-.08.08,0,.16.12.16Zm-11.6,2.86c-.8-2.34-6.09.13-5.12-3.52.54-.51,1.28-.89,1.29-1.76.04-.12-.16-.23-.23-.08-.2.84-1.05,1.1-1.49,1.76-.3,1,.1,2.61,1.37,2.62,1.23.3,3.17-.18,3.98,1.02.04.1.2.07.19-.04h0Z"/>
    <path class="cls-8" d="m158.96,183.42c.18-1.12-.57-2.02-1.21-2.86-1.48-2.13,2.97-3.59.78-5.99-4.47-7.72-2.02-17.22-1.29-25.6-1.04-1.42-1.31,7.17-1.56,7.87-.45,5.91-1.11,13.4,2.5,18.52,1.19,1.88-2.1,2.97-1.25,4.89.54,1.1,1.62,1.87,1.76,3.17.16.04.27.08.27,0Zm10.24-7.71c2.7-4.22-3.86-7.61-4.3-11.82-1.44-6.24-1.94-12.89-4.22-18.98-.13.06-1.56-5.84-1.95-3.92,2.45,6.8,4.24,14.77,5.19,21.96.47,4.22,4.55,6.99,5.39,10.84.17.5-.99,2.04-.12,1.92h0Zm-13.71,8.73c-1.48-1.53-5-1.31-6,.61,2.07-1.65,4.05-.95,6-.61h0Z"/>
    <path class="cls-8" d="m156.93,150.15c-.8-.11-6.03,4.21-2.62,2.04.73-.6,2.49-1.08,2.62-2.04h0Zm-4.84.16c2.77-2.05,9.05-.76,5.78-5.99,3.44-6.93.23-15.5-4.92-20.83-1.4-.41,1.64,2.75,1.6,2.9,2.86,4.09,4.6,9.06,4.06,14.09-.41,1.97-2.51,3.89-.55,5.72.35,3.17-4.69,1.95-6.13,4.07,0-.04.08.08.16.04h0Zm-.23-27.28c-7.26-5.2-17.64-5.4-26.21-6.3-2.01-.09-24.48-2.51-21.41-.55,15.57.55,34.09.77,47.62,6.85Z"/>
    <path class="cls-8" d="m97.48,72.44c2.32,7.79-.21,16.25,2.85,23.84,1.11,4.63,2.83,9.67,3.4,14.37.96,1.68-1.1,12.37.23,11.12,2.12-9.81-1.42-19.71-4.06-29.09-1.73-6.23.6-15.07-2.42-20.24h0Zm-.27,9.51c-2.08,1.69,1.31,3.43,1.02.59-.16-.52-.72-.4-.43.12.02.21-.09.63-.23.82-.02,0-.21,0-.12,0h-.08s-.04,0,0,0c-.06.01-.07-.03-.12-.04.06.06-.06-.06-.08-.08.04.04-.04-.04,0,0,.01-.06-.03-.07-.04-.12,0,.03,0-.1,0-.12,0,.04,0-.04,0,0-.19-.4.91-1.3.08-1.17h0Zm1.56,14.17c-.94.72-.15,3.27,1.01,1.88.4-.5.34-1.75-.43-1.8h.12c-.29-.06-.32.33-.12.47.08.16.15.24.16.47-.02.03.05.33-.04.35t-.04.08v.04s0,.04,0,.04c-.08.12-.08.16-.19.24-.07.07-.25.09-.19.08l-.04-.04s0-.04-.04-.04c-.15-.52-.09-1.06,0-1.6.04-.12-.08-.24-.2-.16h0Zm2.81,11.94c-1.37-.81-1.06,2.85.51,1.88.61-.39.68-1.3.39-1.92-.27-.3-.73.03-.51.35l-.04-.08c.03.18.36.23.35,0v.04l-.16.08s-.22-.05,0,0q.08.04.04,0s-.07-.12-.04-.04c0,.16.06.58.04.63,0,.07.02.14-.04.2v.04s-.04.08,0,0c-.04.04-.04.12-.08.16.06-.06-.06.06-.08.08-.06.04-.14.04-.23.04.03.01-.14-.01-.16-.04-.02-.02-.09-.09-.12-.12.04.04,0-.04-.04-.04-.18-.3-.18-.86.08-1.14h-.04c0,.08.16,0,.12-.12h0Zm-23.48,17.46c.86-6.13,2.34-15.32,1.21-20.9.34,4.6-.52,11.73-1.13,16.32.11.44-1.27,5.83-.08,4.58h0Zm8.2-37.03c.23,5.87-1.04,12.34-4.34,17.26-5.17,5.38,1.58,6.42,6.02,6.15,1.83-.55,3.38.9,2.42,2.7-1.56,2.39-5.18,5.23-7.15,7.32-.04.09-1.66,1.4-.74,1.21,0,0,3.98-3.72,3.98-3.72,13.8-12.61-5.74-5.22-5.82-10.61,4.12-5.59,7.24-13.82,5.63-20.32h0Zm-3.12-11.98c-1.16,10.29-5.96,20.22-10.47,29.4,4.99-7,10.21-19.92,10.47-29.4Zm2.19-15.97c2.33-1.44,6.47-3.39,7.66.27,1.32,2.68,2.97,5.97,3.67,8.89-.03.38.54,1.4.12,1.61-1.49.28-5.01,1.04-6.52,1.21-1.86-3.17-1.99-7.19-4.14-10.26-.16-.24-.51-.04-.35.2,1.85,3.08,2.33,6.79,3.79,10.02.4,1.18,1.81.39,2.7.35,1.44-.36,3.89-.45,5.2-1.14.25-4.29-2.59-8.64-4.57-12.37-1.52-2.57-6.68-.41-7.54,1.21Z"/>
    <path class="cls-8" d="m93.41,61.36c-1.39.47-3.23,1-4.65,1.41-.16.03-.93.3-1.05.27-.13-.13-.22-.35-.43-.23-.75,1.57,1.95.5,2.62.27.51-.26,4.7-1,3.51-1.72Zm-2.46-3.29c-.66-2.56-3.86-3.91-5.12-6.07-1.27-3.4-2.22-7.05-4.96-9.67-.12-.16-.39.04-.27.23,2.01,2.83,3.56,6.07,4.45,9.43,1.23,2.6,4.32,3.63,5.39,6.34.16.2.59,0,.51-.27h0Zm-30.39-13c-.44-4.77.37-4.58,4.84-5.32,4.48-.95,10.61,1.62,13.94,1.68-3.42-2.12-18.77-4.71-19.41.7.11.09-.11,4.3.63,2.94h0Zm19.14-2.47c-.61.83,0,9.02.12,4.27-.1-1.24.2-3.03-.12-4.19.04-.08,0-.12,0-.08h0Z"/>
    <path class="cls-8" d="m79.71,49.35c-6.38-6.84-19.12-8.04-24.57.51-2.16,3.72-2.08,8.31-4.06,12.13-.3,2.4-3.46,3.56-3.2,5.95,1.12,1.65.14,1.86-1.02,2.9-1.68,2.03,0,4.76-.86,7.01-.08.2.27.35.35.16,1.12-2.12-.42-4.81,1.09-6.77,2.49-1.62,1.45-1.76,1.09-4.03,1.45-1.89,3.01-3.66,3.63-6.07,2.03-8.28,4.92-17.47,15.39-16.64,4.44.24,8.49,2.41,11.8,5.28.23.16.59-.2.35-.43h0Zm-24.49,3.06c5.03-5.62,16.04-6.59,19.18,1.45,1.71.6-1.17-3.43-1.84-3.8-4.82-4.67-13.96-2.78-17.34,2.35h0Zm8.52,30.18c.61-2.05,2.48-3.79,2.27-6.07-.63-3.43-4.01-6.1-7.42-6.38-.2-.04-.27.31-.04.39,3,.71,6.02,2.76,6.91,5.83.68,2.13-2.09,4.65-1.72,6.22h0Z"/>
    <path class="cls-8" d="m65.84,77.61c2.82,1.07,2.11-3.93,3.67-5.28,2.78-3.18,4.19-6.78,5.27-10.77.12-.23-.19-.55-.39-.31-.8.9-.97,2.67-1.25,3.8-.81,3.58-4.1,5.82-5.27,9.24-.46,1.05-.16,3.3-1.84,3.05-.2,0-.31.2-.2.27h0Z"/>
    <path class="cls-8" d="m71.5,68.96c4.1-3.97-3.13-12.85-7.03-11.63,4.45,1.37,9.51,6.76,6.87,11.55.04.04.08.12.16.08h0Zm2.42-3.92c.85,1.02,4.78-1.76,2.34-.7-.41.21-1.03.5-1.48.55-.22.09-.89-.12-.86.16h0Zm-.16,1.49c-.12.76,2.27,3.12,2.85,2.82-.57-1.12-2.17-1.71-2.65-2.94-.04-.04-.19.04-.19.12h0Zm-30.62,15.15c-.5,2.67-.05,6.09-.2,8.85-.12.37.32,1.61.63.86.05-.6-.09-1.64-.04-2.27,0-1.28-.01-3.85-.04-5.13-.12-.48.19-2.32-.35-2.31h0Zm.86,10.49c4.22-4.14,11.75-2.22,14.92,2.31.23.35.82.04.59-.35-2.92-4.63-12.58-7.22-15.51-1.96Z"/>
    <path class="cls-8" d="m59.31,94.44c.08-.04.16-.04.19,0,.63-1.29,1.59-3.38,2.23-4.7,0,0,2.46-4.78,2.46-4.78.06-1.48-2.97,2.52-3.56,2.86.58.65,2.81-2.12,3.52-2.78l-.43-.35c-.36,1.11-5.65,9.88-4.34,10.02h.04c.1-.06.1-.25,0-.31-.03,0-.13-.03-.12.04h0Zm-15.27-12.72c4.69-1.31,12.88-2.23,16.02,1.96.2.7-.34,4.24.62,3.8.14-1.45.28-3.19-.04-4.62-4.16-3.63-11.78-3.4-16.68-1.25-.12-.04-.04.16.08.12h0Zm1.6-2.93c-.07.36-.82,1.24-.43,1.41.15-.16.83-1.52.43-1.41h0Zm-.98,13.43c-3.38,6.13-6.44,12.31-8.24,19.18-1.2,4.4-3.93,11.17-4.42,15.34,1.88-6.54,4.62-14.67,6.84-21.14,0,0,2.69-6.46,2.69-6.46.43-1.26,4.36-6.42,3.12-6.93Zm13.48,2.43c-3.87,3.88-3.47,9.54-6.76,13.86-1.44,2.27-5.1,7.43-6.02,9.9-1.83,4.24-1.29,9.14-3.56,13.23,3.24-3.47,1.8-11.29,5.16-15.66,3.62-5.54,8.04-10.63,8.91-17.42.21-.79,3.75-4.07,2.27-3.91h0Zm-7.03,1.21c-6.45,1.54-7.71,11.07-8.52,16.32,1.77-5.22,2.83-14.4,8.52-16.32h0Zm-19.81,32.96c-8.62-2.77-12.48,5.02-20.66,4.11,0,0-6.8.12-6.8.12-.65.42-.57,1.71-.51,2.43-.09.65,1.56,2.06,1.29.94-1.13-.59-.82-2.04-.55-3.01l-.27.2c4.48-.32,10.19.67,14.34-1.29,3.43-2.46,7.26-4.07,11.56-3.33.05-.06,2.08.3,1.6-.16Z"/>
    <path class="cls-8" d="m3.65,134.06c-.42-.14-1.15-.05-1.6-.04-.23.08-1.86-.09-1.91.27-.18.52-.29,3.1.43,2.58-.23-.78-.08-1.64.08-2.47l-.27.2c.78-.18,2.96.09,3.28-.55Zm13.44,2.7h-.08v.04h.04l.04-.04s.04,0,0,0Z"/>
    <path class="cls-8" d="m17.09,136.88c.6-3.54,7.44-.66,9.69-2.62.16-.64-.88.1-1.17.08-.72.21-2.66.15-3.44.16-1.65.21-4.49-.36-5.39,1.49-.2.25-.2,1.28.31.9t0,0h0Zm14.61-3.99c2.08.38,5.72.82,5.23,3.52,1.73-2.45-3.61-3.86-5.23-3.52h0Zm9.77-.35c-.53,1.36-1.06,2.72-2.15,3.72.8.99,3.11-3.64,2.15-3.72h0Zm11.21-25.8c-1.61,5.56.36,11.39-1.05,16.91-1.03,2.93-3.38,6.74-.78,9.51.16.16.35-.08.23-.24-3.04-4.55,2.94-9.27,1.72-14.21-.09-1.98-.21-6.8.04-8.73-.12-.08.79-4.22-.16-3.25Z"/>
    <path class="cls-8" d="m50.14,131.36c-.91-2.46-6.12-.33-7.5,1.06.16.77,1.4-.47,1.87-.55,1.89-.91,4.01-1.12,5.62-.51h0Zm11.02,1.88c-.49.66-.44,1.72-1.25,2.19-.54.32-2.05,1.11-1.17,1.8.35.1.33-.33.39-.55.34-.5,1.04-.63,1.45-1.14.39-.38,1.16-2.16.59-2.31h0Zm-.82-58.8c-1.75-3.2-8.16-1.61-9.1.86,2.44-2.03,6.44-2.97,9.06-.78.04-.04.08-.04.04-.08h0ZM5.49,136.92c3.04.33,6.87-.06,10,.2.27-.76-4.34-.24-5.16-.43-1.54.09-3.41-.24-4.84.24h0Zm12.54.08c5.35.12,12.06.19,17.42.31.73-.73-2.83-.38-3.28-.51-4.5-.07-9.82-.34-14.14.2Zm22.34.08c22.59.75,21.13-.99-.04-.12,0,0,0,.12.04.12h0Zm105.66,69.09c5.74,1.12,10.55,4.87,15.35,7.99,3.54,1.86,15.47,5.6,18.09,3.92-5.49-.16-12.34-1.95-17.34-4.19-4.59-2.53-10.98-8.32-16.09-7.71h0Zm23.48-2.78c9.92.31,21.8.8,29.73-6.22-9.47,5.83-18.19,5.85-29.73,5.95-.08.08-.08.24,0,.27h0Zm-1.13-2.39c9.85-.11,20.51.59,29.22-4.78-10.68,5.01-18.78,3.34-29.22,4.78h0ZM52.21,9.3c-5,3-7.93,13.9-.98,16.17-4.78-2.75-4.16-10.49-.16-14.52.16-.34,2.07-1.56,1.13-1.64h0Z"/>
    <path class="cls-8" d="m59.7,4.02c-3.24-1.38-7.59,2.72-7.58,6.03.1,2.11,2.78,2.99,2.66,5.13-.12.63-.59,1.1-1.21,1.14-.47.58,1.11.28,1.25-.2,1.85-2.53-2.28-4.05-2.15-6.46.49-3.29,3.85-5.49,6.95-5.6.12,0,.12-.04.08-.04h0Zm-11.68,18.16c-2.71,2.07.68,8.73,3.44,8.1-2.99-1.54-4.61-4.99-3.44-8.1h0Z"/>
    <path class="cls-8" d="m50.41,30.24c.25-.59-.61-.11-.55.35-.95,2.82,2.94,6.52,5.23,3.87.43-.71.74-2.27-.27-2.62-.19-.08-.31.24-.12.31,1.89,4.22-5.86,2.9-4.22-2.07l-.12.08h-.04l-.04-.12c-.03.11,0,.25.12.2h0Zm7.11-12.33c2.57,5.08,14.37,3.62,10.51-2.86-.87-1.12-3.43.08-2.77,1.1.12-.55.55-.9,1.06-1.02,5.6,1.33-1.56,9.48-8.79,2.78Zm-.9-.94c1.74,6.71-5.37,5.87-1.88,3.44-1-.63-2.01.99-1.33,1.8,3.05,2.33,4.81-3.13,3.36-5.32-.08-.04-.19,0-.16.08h0Z"/>
    <path class="cls-8" d="m63.14,20.93c-.9,4.87,4.64,10.12,9.41,8.34,2.71-1.14,3.08-5.56.31-6.85-1.82-1.01-4.18,1.29-2.58,2.94.12.12.27-.04.16-.16-.47-.55-.39-1.49.16-1.96,3.61-2.06,4.96,4.58,1.52,5.6-5.11,1.55-8.62-4.23-8.98-7.91Z"/>
    <path class="cls-8" d="m74.59,26.29c.96.95,3.61-2.51,2.26-2.39-.43,1.08-1.08,1.94-2.23,2.23l.08-.04c-.12-.01-.21.16-.12.2Zm3.59-11.27c2.16,4.09-1.94,4.73-2.89,7.67-.07.64.43,1.62,1.17,1.45-2.1-2.29,1.71-3.16,2.46-5.17.54-1.03.47-3.94-.74-3.95h0Z"/>
    <path class="cls-8" d="m79.08,17.05c1.1-.36,2.02.34,1.95,1.49,1.29-.58-1-3.02-1.95-1.61-.08.04-.04.12,0,.12Zm1.41-4.34c2.17,1.24,2.64,4.1,1.13,6.07,2.14-.85,1.63-5.85-1.13-6.22,0,0-.04.08,0,.16h0Zm2.19,1.33c.79-1.94,2.9-.54,4.34-.39,2.2.56,4.98-2.93,3.36-4.35.28,4.66-3.5,3.59-6.56,3.17-.67-.06-1.91,1.36-1.13,1.57h0Zm7.11-5.25c-1.51,3.42-3.38-1.12-4.76-2.15-1.17-.73-3.1-.77-3.95.43-.12.16.12.35.27.27,2.24-1.54,4.28.19,5.31,2.19.93,1.41,3.35,1.13,3.4-.71-.08-.12-.27-.16-.27-.04h0Z"/>
    <path class="cls-8" d="m83.14,6.13c.21-1.95-2.11-2.37-3.36-3.13-2.36-3.36-8.79-4.3-10.59-.7,4.09-3.28,7.76-1.27,11.09,1.72,1.13.31,2.18.96,2.5,2.19.12.08.31.08.35-.08h0Zm-23.28-2.78c.65-.76,1.64-.8,2.54-.43,2.12-1.95,5.35-1.83,6.8.98.37.23.19-.45.12-.63-1.11-2.75-5.24-3.14-7.03-.82l.31-.08c-.94-.26-2.8-.32-2.89.98h.16,0Zm10.78-1.02c3.85-1.72,5.18.94,1.8,3.33-1.97,3.1,3.26,2.34,3.63,4.78,1.06,2.49-2.51,5.46-4.14,2.74-.43-.8.48-1.67,1.29-1.41.12.04.19-.16.08-.24-2.16-1.02-2.91,2.18-.98,3.01,2.91,1.53,5.49-2.53,3.83-4.97-.58-1.86-4.13-.99-3.63-3.21.35-1.06,1.6-1.53,2.11-2.54,1.13-2.59-2.69-2.9-4.14-1.64,0,.04.04.2.16.16h0Zm-9.84,3.05c.52,2.84,4.6,3.96,7.03,3.02-2.08-.15-6.01-.06-6.91-3.09-.04,0-.12.04-.12.08Zm-.04,1.45c-1.58,1.58-1.05,4.98.81,6.05-1.54-2.58-1.6-3.6-.81-6.05h0Zm3.4,23.68c-.35,2.76,2.77,4.72,5.2,3.6,2.87-.91,2.35-5.82-.94-5.17-1.39.25-1.84,2.24-.74,3.09.12.08.27-.04.16-.16-.66-.74-.27-2,.62-2.27,6.58.88-2.65,8.66-4.22.94.04-.08-.08-.12-.08-.04h0Zm-1.25-1.45c-1.54,2.62-6.32,2.06-6.84-1.06-.66-2.5,3-3.43,3.24-.7.83-.39-.44-2.49-1.56-2.31-2.73-.04-2.93,3.92-1.05,5.24,1.76,1.47,5.47,1.23,6.29-1.17,0,0-.08-.04-.08,0Z"/>
    <path class="cls-8" d="m59.74,30.87c-4.11,4.79,5.12,9.9,7.66,4.46.14-.21.23-1.25-.2-.86-1.05,3.67-7.24,3.27-7.73-.59-.19-.97.17-1.94.47-2.82,0-.12-.08-.24-.2-.2h0Zm-5.9,4.27c-2.02.82.47,2.38.82,3.44.1.63-.43,1.18-.39,1.76.87.69,1.28-2.28.51-2.7-.51-.57-1.87-1.46-.86-2.23.08-.12.04-.31-.08-.27Z"/>
    <path class="cls-8" d="m54.47,40.3c.99,1.63,5.1-2.91,2.97-2.66-1,2.27,4.52,2.1,4.26.71-1.03.19-3.54,1.13-3.71-.43l-.55-.16c.03,1.68-1.99,2.07-2.97,2.54h0Zm6.91-.78s-.04,0,0,0c0-.08,0,.24,0,.27v-.08c0,.08-.04.2-.04.27v-.08c-.17.35-.03,1.1.43.67.12-.33.18-.76.08-1.1,0-.14-.43-.31-.47.04h0Zm80.23,141.94c-.89,1.87,5.22,7.57,1.41,7.09-2.91.75.3,3.03.43,4.5-.03.86-2.37,2.7-1.09,3.05.32-1,1.24-1.68,1.6-2.62.8-1.68-2.22-2.65-1.29-4.15,5.52-.07-.78-5.29-.86-7.91-.08-.08-.2-.04-.2.04h0Zm-5-43.33c2.45,4.31.95,11.89,1.06,16.64,0,8.46.99,17.02,3.32,25.17,2.02,5.87-2.91-14.35-2.38-15.89-1.82-8,2.37-19.74-1.99-25.91h0ZM85.02,12c1.77,1.45,2.18,4.9,2.89,6.97.73,3.91,8.5,4.57,2.27,8.26-.15,1.02,1.61-.17,1.91-.55,2.79-2.44-.17-4.37-2.27-5.68-2.27-2.35-1.66-8-4.8-9.01h0Z"/>
    <path class="cls-8" d="m90.84,27.15c.17.99,2.03,3.33.08,3.48-1.01.27-1.77,1.2-2.81,1.37-.33.15-1.08-.33-1.13.12,1.38,1.33,2.97-.82,4.41-.98,1.9-.32.6-3.55-.55-3.99h0Z"/>
    <path class="cls-8" d="m91.54,30.75c.89,1.4-.9,2.17-.74,3.48.23,1.06,1.09,1.89.98,3.05.05.31-.38,1.54.16,1.17.69-1.52-.14-2.98-.59-4.38-.01-1.01,1.3-1.59.94-2.7.02-.32-.56-1.32-.74-.63h0Zm-.78,8.18c-4.15,1.81-8.86-.68-13.2-1.21-1.07.31-3.38-2.14-3.2-1.29,1.94,2.84,6.8,2.2,9.84,3.17,1.82.54,5.85,1.18,6.56-.67h0Z"/>
    <path class="cls-8" d="m86.81,39.72c-3.65,1.44-5.22,7.63-3.75,10.61-.37-3.63.35-7.8,3.56-10.02.18-.11.56-.45.19-.59Zm-1.09-22.12c-.55,1.52-2.83,1.75-3.55,3.21-.18.31-.99,1.57-.35,1.49.62-2.14,3.68-2.54,3.91-4.66.08-.08,0-.08,0-.04Z"/>
    <path class="cls-8" d="m81.93,22.14c.45,1.26,4.65,1.15,4.1-.16-1.33.76-2.87.37-4.1.16h0Z"/>
    <path class="cls-8" d="m84.08,19.52c1.22,1.35.4,4.7-.19,1.21-.04-.2-.39-.24-.43,0-.26,3.04,2.72,2.68,1.76-.2-.04-.4-.93-1.85-1.13-1.02h0Zm.43-3.37c-1.43-.39-4.48,2.21-4.06,3.52.95-1.56,2.59-2.62,4.06-3.48,0,.04,0,0,0-.04Zm6.56,9.36c.05-1.39-2.71.15-1.99,1.06l-.08-.08c.03.08.19.23.23.12.04-.03.07-.14.04-.12,0-.04.04-.04.04-.08.09-.6.78-1.1,1.37-1.1.15-.01.24.36.39.19Z"/>
  </g>
</svg>