<svg xmlns="http://www.w3.org/2000/svg" viewBox="0 0 199.65 256" xmlns:v="https://vecta.io/nano"><defs><clipPath id="A"><path d="M45.32 0h149v256h-149z" fill="none"/></clipPath></defs><path d="m132.94,57.48l1.62,4.83,5.02-.81c22.36-3.63,39.46,12.06,48.22,36.65,8.73,24.52,7.87,55.09-4.02,75.69-24.03,41.62-80.88,54.79-127.41,27.93C9.85,174.9-7.17,119.08,16.86,77.46c11.77-20.39,38.12-34.75,63.75-38.84,12.71-2.03,24.66-1.42,34,1.84,9.22,3.21,15.59,8.86,18.34,17.03Z" fill="none" stroke="#fff" stroke-width="12"/><g clip-path="url(#A)"><g fill="#fae6e1"><path d="M116.49 28.13l.02.08c0-.03 0-.07-.02-.11v.03h0zm16.92 18.81l-.03-.03c0 .01.01.02.02.03zm.16-3s.02-.02.06-.16l-.05.16z"/><path d="M135.32 39.16a1.29 1.29 0 0 0 .44-.43c2.99-2.41-1.27-3.9-3.37-2.24-1.21-.37-.94-2.1-.11-2.75.64-.62 1.79-.38 2.22-1.27.85-1.49-.89-2.87-2.31-2.17-1.76-2.48-4.46 2.35-7.01-1.08.34-.45.39-1.11.11-1.6.63-1.62-1.79-2.82-2.74-1.39-2.55.11-5.05 1.93-4.39 4.73l-.11-.04c.23.13.06 0-.07-.01.01 0 .04 0 .07.01-.06-.03-.11-.07-.16-.1-.55-.54-1.14-1.38-1.38-2.6 0 .09-.01-.1-.04-.14 0 .01.01.03.01.04.39-1.6-1.54-2.93-2.71-1.64-1.04-1.16-2.91-3.71-4.32-1.57l-2.48.33c-.64-.37-1.2-.9-1.76-1.38-1.65-1.58-3.84 1.24-1.92 2.48.16 4.64-6.32 4.03-6.56 8.46-.42.18-.83.31-1.2.58-2.71-.09-2.13 4.75-2.36 6.61-.82 4.38-2.81 9.37.81 13.02-.84 1.75-2.39 3.37-2.85 5.2-1.36 1.65.81 3.96 2.33 2.26a1.64 1.64 0 0 1 .11.03c.26.36.73.59 1.17.61.67 1.03 2.16 1.47 3.45 1.72.45 1.25.53 3.66 2.25 3.69.51 2.08.4 4.76 2.83 5.75 1.25 1.54 2.29 3.25 3.72 4.66.92 3.49 1.45 7.05 2.46 10.5-2.8 3.18 2.63 4.06 4.92 4.15-.17-.73.33-1.4 1.1-1.2a.36.36 0 0 1 .21-.13c.17-.16.4-.13.51.06.08.03.2.05.25.14.68.02 1.28.53 1.5 1.17 1.96.53 3.89-.86 5.85-1.07 2.01-.27 6.53-2.03 3.1-3.99-.15-.19-.34-.33-.53-.47v-1.44c1.29-1 .17-3.64-1.3-3.87-.14-.41-.29-.83-.45-1.24-1.09-5.32-4.46-10.86-7.83-15.16 1.34-.95 4.32-1.44 4.61-3.09l.04-.04c.42.21.76-.34 1.04-.59 3.73-3.13 6.68-7.8 9.31-11.83.15-.32.28-.65.37-.99 1.84 1.05 3.28-2.07 1.29-2.81 0 0-.01-.02-.02-.02.1.03-.02-.01-.06-.06.01.01.02.03.03.04h-.02s0-.01-.01-.02c0 0-.01-.02-.01-.03-.01-.01-.03-.03-.04-.03.01 0 .02.01.03.03-.39-.98-.05-2.12.24-3.1 0-.03.02-.06.03-.08 0 .02-.01.04-.01.06.05-.1.1-.19.16-.28 1.71.56 3.46-1.82 1.74-2.96-.08-.23-.19-.45-.36-.64.07-.26.11-.52.17-.78zm2.01 126.15c-.66-1.07-1.98-.63-3.01-.91.02-1.36 1.31-2.77.53-4.06 1.15-5.45-5.87-1.15-5.72 1.99-2.23 4.4-4.95 8.01-10.33 8.61-1.6-1.09-2.91-2.82-4.75-3.46-2.92-4.99-6.26-11.2-12.6-11.89-2.8-4.34-7.26-9.84-12.69-9.6-.72-.26-1.62-.72-2.34-.31-3.01-3.35-4.03-8.83-8.3-10.8-3.5-5.64-16.98-4.63-20.59.61-2.58 2.87-4.82 5.89-5.1 9.88 2.96 8.96 11.96 16.35 21.5 16.74 2.01 1.65 5.12.5 7.36 1.7 2.54 1.85 4.39 4.53 6.91 6.36 2.06 1.42 5.14.36 6.78 2.49.87 1.46 1.07 3.28 2.61 4.32 1.04 1.77 3.68 2.1 5.5 2.8.11 1.98 3.04 3.05 4.29 1.3.21 0 .43-.05.64-.14 7.04 2.92 16.09 1.31 21.25-4.37 1.94-.74 3.39-2.85 4.36-4.61.96-.02 1.47-1.53 1.89-2.19.5-.78 1.14-1.49 1.39-2.39.61-.46.84-1.42.42-2.08h-.02zm55.72 58.71c.01-3.81-1.03-7.54-2.78-10.92.43-1.76-1.73-3.07-2.46-4.56-2.04-3.22-2.75-7-4.21-10.43-.46-2.38-1.12-4.72-2.64-6.72-1.14-2.32-1.18-5.77-3.1-7.48-.61-1.7-.88-3.62-1.7-5.22-1.45-3.2-1.46-26.77-6.97-22.01-.51.19-.88.62-.86 1.26-.58-.29-1.37-.19-1.87.25-.64 0-1.32.36-1.59 1.02-.06 0-.12.02-.18.03a1.84 1.84 0 0 0-1.57-.07c-.54-.48-1.47-.49-2.01 0-.57-.52-1.42-.53-2.01-.14-.71-.5-1.84-.16-2.29.58-.62-.96-1.39-2.43-2.76-1.85-.58-1.19-2.31-.83-2.83.13-1.75.89-.19 2.81.55 3.96-.03.56-.32 1.05-.16 1.65-.26.84.12 1.78.53 2.61-.13.39 0 .87.1 1.28-.43 1.95.37 5.04 1.72 6.56.55 1.11.6 2.78 1.79 3.38 1.91 3.81 4.58 7.16 6.75 10.85 3.32 7.03 4.17 14.78 6.88 21.99 1.25 4.11.73 4.92-1.54 8.31-1.59 4.81 1.86 11.81 2.72 16.94 2.02 3.63.57 10.9 5.47 11.9-.39 2.2-3.51 4.9-1.89 6.93.28 1.55 2.71 1.62 3.04.07.11-.68.3-1.35.58-1.97 1.43 1.98 3.2-.24 3.42-1.93.55-.27.72-.91 1.01-1.41 2.22-1.81 2.97-5.19 4.26-7.72 1.58.64 2.46-1.08 2.19-2.45 1.13.62 2.4-.36 2.32-1.6.67-3.91 2.66-7.65 2.47-11.7.2-.59-.01-1.13-.41-1.5l.03-.02zm-13.26 15.61c-.92.95-1.05 2.5-1.67 3.65-.37-2.9-1.57-5.79-.42-8.66a1.78 1.78 0 0 0 .29-.12c-.23.11.1-.03.15-.04.14-.07.53.17.52.17l.09.09c.81 1.43 1.33 3.23 1.03 4.91h0z"/></g><g fill="#f4efea"><path d="M141.45 146.42c-.48-.57-1.06-1.03-1.68-1.44l.49-14.79c.27-8.09.59-16.22-.17-24.3-.44-4.65-1.2-9.27-2.5-13.75-.36-1.24-1.36-1.76-2.36-1.75-4.22.56-7.61 1.23-9.91 1.74-7.14 1.58-10.63 3.06-13.24 1.12-1.52-1.13-2.26-3.06-3.13-2.81-.65.18-.87 1.43-.96 2.5-.11.28-.19.59-.2.95-.27 17.31-.53 34.67 1.17 51.92.25 2.52-.29 8.25 1.99 14.91 1.24 3.63 3.49 8.28 7.1 9.28 1.35.37 2.72.21 2.72.21 2.53-.31 4.21-1.94 4.91-2.65 3.09-3.11 1.87-5.55 4.8-7.98 1.16-.96 3.36-2.23 4.42-1.43.77.58.79 2.16.21 3.88.13-.08.33-.25.46-.34.42-.28.82-.63 1.22-.95.66-.52 1.26-1.08 1.65-1.84.22-.42.24-.84.39-1.27.01-.03.04-.07.05-.1.16-.2.28-.43.36-.69l.16-.28c.69-1.54 1.93-2.78 2.64-4.33.93-2.04.87-4.04-.61-5.8zm-6.54 30.59h0z"/><path d="m140.21,193.71c-1.1-2.33-1.45-2.18-.55-4.49.96-1.97.69-7.08-2.64-7.13,2.59-2.13-2.73-3.86-1.86-5.62,7.8-6.85,1.42-8.69-3.43-1.66-6.95,11.91-24.14,3.45-24.31,14.45-.58,2.75-1.86,5.36-.3,7.72-1.26,1-5.18,2.78-2.09,4.43,6.81,6.43,33.91,2.52,35.18-7.7Z"/></g><g fill="#e09531"><path d="M113.57 143.37c.61-18.71-.93-37.97-4.65-56.39-.84-3.05-1.57-6.25-3.4-8.94-1.04-1.97-3.76-2.64-4.27-5.14-2.78-5.87-.38-8.37-7.74-11.01-1.2-.27-1.96-1.44-2.9-2.09-.15-1.29.24-2.62.24-3.92-1.74.53-5.6 3.69-3.8 5.48-.54 1.19-.9 2.58-.41 3.87-7.62 4.21-16.69 2.92-25.05 5.27-22.32 6.82-15.06 30.89-12.48 48.06.3 11.63 1.61 4.06-3.47 12.08 2.6 3.83 2.65 13.06 6.52 14.87 1.52-5.93 4.88-11.83 10.84-14.16 2.43.7 5.31-1.27 8.09-.77 1.46 1.09 3.41 1.04 4.86 2.15.96.63 1.59 2.04 2.9 1.83 4.37 3.11 4.48 11.92 11.12 11.31 5.34.27 7.97 5.76 11.31 9.16 3.56.91 6.18 3.07 8.61 5.76.35 1.83 1.98 3.53 3 5.13.59-2.88.54-6.07.01-8.88.89-4.34.81-9.16.66-13.67h-.01zm23.74 21.43a.44.44 0 0 0 .05.09h0s-.02-.06-.04-.09h0z"/><path d="M172.39 154.65c-.3-.29-.56-.6-.79-.93-1.15-3.41-1.15-8.02-3.65-10.69-.68-1.89-1.44-3.69-1.89-5.65-.32-1.32-.69-2.96-1.99-3.63.97-2.38-1.04-4.06-1.95-6.14-2.22-2.97-1.03-7.34-3.47-10.12 0-3.58-2.23-6.85-2.69-10.42-.27-7.73.62-16.16-4.4-22.63-.96-1.2-1.26-3.15-2.5-4.02-.61-.94-1.16-1.93-1.76-2.87-.68-2.32-3.33-5.47-5.91-5.29a2.07 2.07 0 0 0-2.22-.58c-.41-.76-1.32-1.12-2.12-.9-3.03-1.22-6.36-1.19-9.5-1.99-.67-1.52-.88-3.65-2.26-4.68-.3-.43-.72-.81-1.18-1.05-.09-.35-.21-.72-.47-.98-1.91 1.95-4.21 3.52-6.6 4.83 2.67 2.78 4.85 5.88 6.89 9.2.86 1.65.77 4.44 2.49 5.37l.43 2.8c-.77 2.17.44 4.67.51 6.93-.46 1.77.82 3.82.58 5.67 2.53 4.65 1.39 10.58 2.44 15.73.51 6.71.58 13.48 1.34 20.16-.41 4.67.44 9.73.83 14.49-.36 1.13-.14 2.71.15 3.85-.03.36-.04.72.01 1.08-.18 1.79-.3 4.16.65 5.73.09-.06.32-.03.43-.04.35-.24.75.09 1.07.24 0 0 .02 0 .02.01.04 0 .07.04.1.06.06-.02.13-.04.18-.08.04.18.09.36.11.54l-.03-.26c.03.23.08.44.17.63-.07 1.32-.53 2.52-.9 3.79-.08.51-.15 1.02-.21 1.53.32-.02.93-.14 1.04.25.54.15 1.63.1 1.5.91.15-.24.22-.54.33-.81.06.04.13.07.19.11 0 .02.01.03.02.05 0 0 .01.03.02.03.08.25.15.52.24.77-.48 1.68-1.49 3.19-2.25 4.69-.85 1-.17 2.89-.06 3.77 1.7 5.06 1.52 10.88 3.2 15.8.38 1.58-.13 3.65.92 4.98.29 2.64.95 5.2 1.92 7.67-.19.9.56 1.59.79 2.38.11 4.21 2.4 5.88 4.39 1.33.57-1 2.29-1.35 2.21-2.73 3.45-3.4 6.91-9.44 3.78-14.01-.81-2.48-.13-6.51-2.23-8.12-2.22-6.58-4.73-13.25-7.66-19.58l-.04-5.15c2.31 2.71 4.06 6.08 6.38 8.72.77 1.53 1.23 5.45 3.65 4.42-.07-.16.02-.32.14-.43.03-.33-.28-.85.11-1.03-.58-1.13-1.08-2.52-.86-3.77-.29-.77-.35-1.6-.55-2.39.56-1.02.1-2.3.15-3.41.21-.06.42-.13.6-.25 3.67.88 7.15 3.33 10.73 4.1 1.17.37 2.45-.64 3.22-1.46.81-.59 1.99-.81 2.55-1.67 1.13-.75 2.76-1.01 3.34-2.38.93-.41 1.15-1.8.42-2.52h-.08zm-62.34 27.08c-.09-.04-.15-.1-.18-.17-.04-.02-.09-.04-.13-.05-.43.35-1.07-.31-1.64-.17l-.04.2c-6.6-2.21-8.91-2-13.36-8.15-1.05-3.72-4.01-1.41-6.94-3.19-3.89-2.52-6.61-7.3-11.79-7.08-.65-.65-1.54-.32-2.31-.12-.09-.43-.24-.83-.52-1.21-.73.05-1.56-.09-2.24-.27-.79.62-.5 1.65-.38 2.52-.12 1.13-.34 2.23-.28 3.37 0-.05-.01-.09-.02-.14-.16 1.63-1.47 3.15-1.08 4.84-5.23 9.95-2.62 20.96-3.9 31.52-.45.68-.81 1.5-.78 2.3-.98 1.07.06 2.69 1.37 2.75 2.83 1.45 5.84 3.12 8.94 3.83 1.38 1.55 7.37 2.44 9.26 3.12 1.82.48 3.73 1.11 5.62.62 1.16.7 2.41.78 3.74.62 1.04.63 2.38.48 3.59.27 1.92.64 4.07.02 6.07.09 2.66.22 6.95.22 5.15-3.63-1.46-10.53 1.23-21.08 3.06-31.44l-1.17-.41h-.01z"/></g><g fill="#b26a15"><path d="M75.63 132.36c5.49 5.92.51-8.02 1.55-11.93-2.28-3.08-7.83-1.61-11.14-1.54-8.02-1.65-3.83 13.74-12.87 7.68-2.09-1.4-2.65-.92-3.25-.84-2 .26-3.54 2.5-4.06 4.32-1.12 3.85 1.93 7.17 2.15 7.41.93 5.82 2.12 6.99 2.96 7.09 2.59.31 3.65-9.34 10.74-12.84 2.48-1.22 5.65-1.79 9.78-1.13 1.09.31 3.12.84 4.14 1.79zm96.4 22.1l-.61-1.55-1.12-2.85c-.07-.2-.18-.36-.31-.49l-.61-1.81a3.92 3.92 0 0 0-.23-.6l-.55-1.38-.01-.52c.01-1.19-1.33-1.51-2.14-.88l-3.06 2.36c-.1.05-.2.11-.29.19l-2.24 1.77c-.13.11-.23.24-.28.39l-.35.3a17.09 17.09 0 0 0-3.15 2.26c-.2.18-.31.39-.36.6l-3.58 2.16c-2.39 1.32-4.88 2.5-7.52 3.25-.26-.01-.52 0-.77.09-.6.18-.98.75-.9 1.37.06.48.43.92.9 1.05 1.1 1.22 2.04 2.53 2.83 3.97.08.15.2.26.33.36a1.06 1.06 0 0 0 .33.22c.19.52.45 1.03.83 1.37l.52 1.13.48 1.07.24.56.09.23c.02.04.03.08.05.12.16.38.34.65.73.81.4.16.74.11 1.12-.06.27-.12.48-.34.65-.59 0 0 0-.01-.01-.02-.11-.21-.21-.42-.28-.65-.02-.07-.01-.14.01-.2-.14-.38-.21-.78-.18-1.18-.05-.02-.09-.04-.14-.05h-.01l-.87-1.97c.01-.14.01-.28-.01-.43a23.98 23.98 0 0 1-.34-3.49l.01-1.65c0-.12-.01-.31.01-.46.03 0 .12-.05.21-.04.53.04 1.13-.09 1.66-.13l.76-.03c.54 1.03 1.9 1.22 3.06 1.53l3.39.91c.01.03.02.06.04.09.25.48.76.82 1.31.91a1.18 1.18 0 0 0 .65.19c.3 0 .6-.12.83-.32a.99.99 0 0 0 .3-.04c.73-.2 1.37-.54 1.97-.96.03-.02.06-.03.09-.05h0l.26-.19c.08-.06.15-.17.21-.29.01-.01.03-.02.04-.03.38.12.8.05 1.16-.35.55-.63 1.13-1.22 1.75-1.76l1.8-.93c.86-.44 1.76-.87 1.72-1.98-.02-.45-.25-.89-.41-1.3h-.02zm-69.37-34c-.09-.28-.26-.54-.51-.7-.2-5-1.05-9.96-.69-14.96.7-1.2.23-8.61-2.41-6.61-.59.04-1.18.16-1.71.38-1.22-.49-2.88-.3-3.89.51-2.19.29-4.56.17-6.66.84-2.04.29-8.58-1.09-6.18 2.76.31 1.39.17 2.99.92 4.24-.21.91-.35 2.27.11 3.1.84 16.24-1.29 14.35 14.85 12.25 1.71-.18 3.65.37 5.24-.28.66-.16 1.13-.89.92-1.55v.03zm45.26-17.18c-.02-.9-.95-1.53-1.8-1.12a1.83 1.83 0 0 0-1.95-.29c-.14-.94-1.05-1.58-1.92-1.12-.77-.09-2.25-1.15-2.68-.18l-.61-.19c-.63-1.74-3.3-.82-2.41.9.48 1.39-.15 3.14-.04 4.63.81 3.78-2.44 14.53 2.63 15.12a15.46 15.46 0 0 0 2.26 1.05c.29.45.96.5 1.44.53.14 1.3 2.12 1.14 2.42.02.09-.45.53-1.49.32-1.92 1.49-3.57.61-7.47 1.03-11.21 1.38-1.73 1.46-4.12 1.32-6.23zM97.5 65.84c.16-.24.4-.48.69-.58.43-.75-.19-1.9-1.1-1.82a1.24 1.24 0 0 0-1-.23c-.66-.67-1.71-.96-2.76-.89-.69-1.01-1.46-2.1-2.71-2.31.02-.13.21-.68.18-.56.08-.2.19-.39.29-.58-.26-.47-.1-1.1.03-1.6-1.22-1.46-2.84.57-3.06 1.79-1.23.37-.85 2.14-1.13 3.15-1.29 2.33-.45 5.44 2.29 6.09 2.58 1.64 3.77 4.58 4.57 7.39.61 1.26 2.81.36 2.29-.97-.22-.65-.47-1.3-.42-1.97.95-1.96.79-4.3 1.46-6.36.09-.06.17-.13.24-.21.03-.11.07-.23.13-.33h0zm31.45 7.13l-.54-1.61a1.55 1.55 0 0 0-.18-.6l-.46-1.71c-.02-.08-.04-.16-.08-.23-.02-.29-.05-.59-.11-.89-.18-.9-.53-1.79-1-2.58-.38-.63-1.03-1.08-1.78-.82l-.11-.47c-.02-.11-.07-.21-.11-.29a3.4 3.4 0 0 0-.32-.63c-.23-.36-.51-.66-.81-.97-.66.65-1.31 1.3-2.06 1.85l-4.2 2.76c.01.02.03.04.04.06a1.63 1.63 0 0 0 .52.46l.54.55.66 1.14c.03.12.07.24.14.34l.64.9a1.35 1.35 0 0 0 .6.48l1.74 2.62c.58.91 1.04 1.81 1.17 2.9.13 1.18.19 2.31.8 3.37.71 1.25 2.64.41 2.29-.97-.37-1.48-.56-2.98-.67-4.49a1.01 1.01 0 0 0 .15.07c.6.21 1.24.31 1.88.34h.11c.36-.01.65-.18.85-.41.28-.31.44-.77.29-1.17z"/></g><path d="M141.98 36.14c2.77-2.91 3.28-7.83 1.17-11.28.79-2.9.12-6.23-1.29-8.93-.21-2.06-2.08-3.83-4.09-4.04-.25-2.51-2.38-4.8-4.92-5.05-1.52-3.34-6.03-4.59-9.45-4.01-.25-.68-.96-1.23-1.71-1.08-2.5-3.32-14.2 1.02-14.44 5.07-.1.15-.18.3-.28.45-1.06.19-3.97.85-6.44 3.38-3.12 3.21-3.32 7.13-3.34 8.05l-.43.34c-.34-.32-.76-.66-1.27-.97-1.68-1-3.38-1.06-4.27-1.02-2.15.67-3.41 2.61-3.12 4.35.27 1.66 1.86 2.51 2.07 2.62-.25.2-1.58 1.33-1.73 3.27-.13 1.59.61 2.74.84 3.07-1.39 1.69-1.16 4.4.37 5.93-.98 1.11-1.59 2.63-1.17 4.11-.65 1.84 1.16 3.29 2.9 3.11 1.09-.02 1.92-1.16 1.45-2.21.01-1.41 1.22-2.83.7-4.23 1.8-.25 3.46-1.65 3.63-3.51.38-.41.61-.95.78-1.49a1.4 1.4 0 0 0 .51-.57c2.66-1.26 5.38-3.48 3.72-6.66.87-1.03 0-2.71-1-3.33.04-.2 0-.42-.08-.61.04-.15.18-.24.31-.23.16.02.29.18.26.36.08.36.63 2.79 3.02 4.13 2.53 1.41 5.03.44 5.34.32.81 1.66 2.82 3.04 4.71 2.43.52 1.86 1.13 4.23 3.2 4.91 1.46.44 2.6-1.44 1.57-2.56.23-.22.34-.51.39-.81.49-.32.94-.75.97-1.37 1.01-.64 2.13 0 3.17.23-.21 3.55 3.99 4.76 6.71 3.37-2.01 2.67-.37 5.89 2.54 6.89-.35 1.07-.25 2.36.51 3.25a3.01 3.01 0 0 0 .01 1.08c-1.38 1.19-2.33 3.19-1.47 4.98-.05.09-.09.18-.14.27.26-.07.51.12.44.39.38.06.32.63 0 .65.03.25.1.8-.27.8-1.22 2.76-3.01 5.22-5.07 7.41.51 1.12 2.16 1.08 2.76.06.02 0 .04-.02.06-.02.11-.26.32-.47.49-.7-.09-.48.38-.53.73-.42.95-1.23 1.56-2.68 2.28-4.07 3.79-.71 4.45-4.78 4.09-7.99.9.66 2.06.73 3.1.32.67 1.26 3.14-2.37 2.35-3.01.25-1.72-1.32-3.61-3.12-3.18l.97-1.11.98-1.11z" fill="#6d5333"/><path d="M126.99 112.8c-.41-1.25-1.5-3.37-3.15-2.84-.85-.43-1.82-.63-2.78-.53l-.26-2.61c3.64-.73 7.24-4.21 5.23-8.03a6.45 6.45 0 0 0-.38-1.67c-.36-.95-.88-1.63-1.25-2.03-.65-.39-1.58-.84-2.76-1.15-1.45-.37-2.71-.37-3.55-.3a.55.55 0 0 1-.09-.07c-.96-4.04-4.73-.23-3.06 2.51-.56 2.97.55 6.89 1.93 9.58.13.93.43 1.85.93 2.68.9 4.79-1.33 9.46-.43 14.27-.58 1.75 1.68 3.18 2.84 1.61.95-.1 1.65-.47 1.9-1.39l.18-.19c.07-.15.31-.26.32-.29.15-.35.89-.08 1-.06.63-.36 2.25-1.4 3.21-3.48 1.31-2.84.38-5.49.18-6.02z" fill="#443e3d"/><g fill="#fff"><path d="M112.89 36.34a1.51 1.51 0 0 0-.13-.29c-.09-.32-.28-.61-.56-.78-.08-.13-.17-.26-.28-.38-.38-.41-.88-.58-1.41-.63-.03 0-.05 0-.07.01-.38-.42-.95-.66-1.52-.67a2.25 2.25 0 0 0-.68.11c-.46-.16-1-.1-1.35.29-.47.51-.53 1.34 0 1.84l.44.43c.14.14.31.23.49.29.44.29.91.52 1.4.7.05.25.16.48.35.66.24.22.58.41.92.38.38-.04.72-.14 1.02-.32.14.02.29.01.45-.03.3-.08.63-.31.78-.6.16-.3.24-.67.13-1h0zm15.19 6.62c-.18-.28-.41-.45-.72-.57-.01-.03-.02-.06-.04-.09-.26-.46-.75-.76-1.27-.84l-1.12-.21a1.38 1.38 0 0 0-1.45-.53c-.5.11-.87.53-1.02.99-.16.49.03 1.05.38 1.41.19.19.42.31.66.4 0 0 .01 0 .02.01l1.94.87a1.42 1.42 0 0 0 .35.17l.81.29c.3.11.73.03 1-.13s.53-.47.6-.78c.08-.33.06-.71-.13-1h0z"/></g><g fill="#334f2b"><path d="M111.41 34.9a.84.84 0 0 0-.15-.46l-.19-.25a1.23 1.23 0 0 0-.55-.32l-.33-.04a1.24 1.24 0 0 0-.63.17c-.13.08-.25.18-.36.28-.04.03-.08.07-.11.1-.01.02-.03.04-.04.06l-.23.3a.54.54 0 0 0-.07.13l-.09.21-.09.21c-.02.04-.03.09-.04.14l-.06.39v.07.16a.97.97 0 0 0 .11.48.9.9 0 0 0 .26.4.87.87 0 0 0 .4.26c.15.08.31.11.48.11l.33-.04a1.33 1.33 0 0 0 .55-.32l.19-.25a1.3 1.3 0 0 0 .17-.61c.08-.06.15-.13.21-.22.11-.12.19-.26.23-.43.05-.17.06-.33.02-.5h0zm15.91 7a.97.97 0 0 0-.11-.48.9.9 0 0 0-.26-.4c-.24-.22-.55-.38-.88-.37l-.33.04a1.33 1.33 0 0 0-.55.32l-.61.86-.36.67c-.09.14-.14.3-.15.46-.04.17-.03.33.03.5.04.16.11.31.23.43.09.14.21.24.35.33l.3.13a1.27 1.27 0 0 0 .67 0l.3-.13c.19-.11.34-.26.45-.45a6.96 6.96 0 0 1 .68-1.15c.07-.09.12-.18.16-.28.08-.15.11-.31.11-.48h-.01z"/></g><path d="M111.5 59.61c-.23 0-.45-.02-.68-.04-.04 0-.09-.01-.13-.02l-.36-.08-.67-.19-.29-.11-.16-.08c-.41-.2-.76-.46-1.15-.7h-.01l-.12-.11-.27-.25c-.18-.17-.34-.36-.5-.55-.42-.51-1.34-.47-1.77 0-.5.54-.45 1.23 0 1.77 1.49 1.79 3.81 2.84 6.14 2.87.66 0 1.28-.58 1.25-1.25-.03-.68-.55-1.25-1.25-1.25h0z" fill="#e9c3bb"/><g opacity=".25"><path d="M81.18 133.19l-1.02-18.43-.33-5c-.1-1.41-.16-2.85-.46-4.24-.11-.49-.28-.98-.5-1.45l-.47-.63c-1.2-1.53-2.9-3.07-4.98-2.92a4.13 4.13 0 0 0-1.12.26c-1.08.95-1.76 2.38-2.24 3.72l-.08.9a1.05 1.05 0 0 0-.07.43l.07.86.06 2.04v1.87l-.02.68-.09 3.51c-.01.43-.09.95 0 1.4v.03a1.09 1.09 0 0 0 .03.26c-.02.47-.02.94.03 1.41l-.05.65a2.54 2.54 0 0 0-.53-.2 1.28 1.28 0 0 0-.96.14c-.26-.28-.63-.42-1.05-.36-.25.03-.46.14-.64.28-.17-.06-.34-.12-.53-.14-1.15-.12-1.52 1.35-.92 2.09.08.25.25.44.46.59 1.94 2.71 1.61 6.44 1.2 9.58a.92.92 0 0 0 .11.58c.04-.02.08-.04.14-.05.53-.05 1.05.01 1.57.08a5.61 5.61 0 0 1 .58 0c.09 0 .16.05.21.11h.2c1.8-.47 3.71.36 5.22 1.39.23.16.51.19.78.16.32.6.86 1.03 1.53 1.19.03.06.05.11.09.16.08.12.18.23.26.34a.9.9 0 0 0 .19.19l.36.27c.14.09.3.14.46.15h.01v.26c0 .06.01.11.03.18.02 0 .03.01.05.02.06.04.12.11.18.15.08-.03.16-.03.24.01.83.4 1.42 1.08 1.98 1.79l.02-4.32h0zm-6.51-17.27c-.13.02-.25.06-.36.11l-.1-2.14v-.24a.22.22 0 0 0 .01.08c.07.42.42.72.83.85l.06 1.37c-.14-.03-.29-.04-.44-.02h0z" fill="#111119"/></g><g opacity=".25"><path d="M152.7 185.71c-.07-.07-.14-.16-.2-.24l.2.8.7 2.87-.38-2.12-.31-1.3z" fill="#111119"/></g><g opacity=".25"><path d="M171.57 200.03c-2.28-13.53-19.97-32.92 1.74-40.06-.11-.81-1.08-1.96-.64-2.64a5.66 5.66 0 0 1-.08-.4c.68-.63.31-1.6-.29-2.13-.11-1.65-.92-3.22-1.99-4.46.72-1.68-.94-3.88-1.1-5.7a.33.33 0 0 1-.33-.06c-.02.02-.06.01-.09.01-.1-.69-.42-1.32-.91-1.77.26-.77-.67-1.35-.47-2.07-.11-.65-1.04-1.87-.31-2.3-.6-1.31-.94-2.93-1.91-4.01-.06-.11-.11-.23-.17-.34-.41.32-.65-.35-.54-.67-.04-.06-.04-.14-.03-.21l-.14-.11c-.52-1.36-.16-3-1.71-3.73-.51-1.17-.7-2.48-1.48-3.52-.07-.67-.13-1.52-.79-1.83 0-.06-.01-.11-.02-.16.41-.52.37-1.34-.19-1.73.08-2.2-1.51-5.88-3.12-2.23-.24.32-.67.51-1 .71-.23-.09-.48-.11-.72-.05-5.75 3.53-6.54-6.55-6.13-10.27-.47-1.87 1.84-7.36-.81-7.48-.08 1.19-.26 2.39-.63 3.54-.11.73.46 2.8-.88 2.7.18.98-1.48 6.36.18 6.69-.72.25-.71 1.26-.7 1.95-.44 1.69.04 3.6-.72 5.35a.96.96 0 0 0-.41-.07c-.01.43-.47 1.2-.75.49a.31.31 0 0 1-.18-.22c-.41-.04-.84.38-.92.81-.7 5.17-3.61 9.81-4.29 14.96-.18 3 2.07 5.34 2.48 8.22.66 3.3-1.69 6.5-1.13 9.73-.12.05-.22.13-.33.21 1.84 10.95 12.23 27.47-1.35 35.04-.03.02-.05.04-.08.06-.04-.12-.09-.23-.13-.34.01 0 .02-.02.03-.03-.01-.16.14-.26.27-.34-.32 0-.29-.38-.32-.62-.02-.03-.03-.06-.04-.09-.21-.3-.14-.74-.25-1.09-4.35.14-7.29 4.32-11.24 5.74-3.95 2.15-11.88 1.34-10.81-4.65 5.16-10.87 16.78-2.88 19.79-18.16-1.47-4.71-5.97 6.24-9.44 6.73-2.15.24-4.07 2.27-6.22 2.93-1.31-.15-2.63.75-4.06.41-.43.04-3.91-.18-4.22.11-.52-.13-1.05-.21-1.61-.24-.25-.39-.71-.64-1.18-.57-.52-.79-1.39-.96-2.14-1.42-.47.38-1.26-.38-1.67-.67-2.03.04-4.19-1.14-6.09-1.15-2.99-1.73-3.87-5.17-6.05-7.47-.44-.47-1.16-.4-1.72-.28-1.04.09-2.04-.64-3-.45-.57-.44-1.23-1.12-2.01-.78-1.01-1.5-2.4-2.69-3.84-3.79.17-1.61-5.58-3.52-6.83-3.07a1.19 1.19 0 0 0-.85.06c-.62-.22-1.18-.56-1.93-.47-.23-1.25-1.95-1.19-2.56-.27a62.43 62.43 0 0 0-.19 3.07c.02.02.03.06.06.07h-.06c0 .1-.01.21-.02.31a.88.88 0 0 0 .1.06c-.09.27-.13.57 0 .82 16.49-1.54 22.81 21.69 39.46 20.88.58-.61 1.09.64.24.65-.04.29-.01.58-.07.88l.4.06c-.47 1.38-.31 2.85-.57 4.27-1.55 2.31-1.35 5.58-.79 8.21h0c-1.21 1.17-.39 2.99-.64 4.45.33 1.95.11 3.95-.11 5.9 8.74.77 17.59-1.29 25.35-5.26 2.16-1.25 4.22-2.68 6.45-3.8v.03h0a1.88 1.88 0 0 1 .63-.36c1.02-.54.46 2.2.93 2.81.45.46.57 1.64.68 2.3.09.38.06.76.22 1.11.09-.05.2-.03.28.02.14-.08.27-.02.39.07.01-.01.03-.02.04-.03.94.9 2.11-.34 2.52-1.21.04-.18.04-.35 0-.53.6-.36 1.21-.72 1.82-1.05.34-.43.81-.77 1.17-1.21l-.09-.09c2.43-2.55 4.09-5.76 5.32-9.04-1.2-6.21-2.62-12.81-4.51-19-.08-.52-.41-1.02-.46-1.53-.41-.85-.69-1.76-1.2-2.56-.68-.83-.82-2.15-1.62-2.96-.16-.16-.09-.37.06-.47-.8-1.95-2.11-3.78-2.96-5.63-.77-1.25-.91-2.08-.63-3.15-.83-.93.55-2.09.33-3.15.21.5.59.95 1.03 1.27-.17.54-.05 1.06.33 1.47.44.38.84.84 1.37 1.1 1.07 2.04 2.2 4.06 3.35 6.05.98.48 1.83 1.94 2.61 2.84.11-.07.25-.08.35 0 .35.82.66 1.65 1.12 2.42-.02.02-.04.03-.06.04.07.23.17.54-.1.66 0 .07 0 .15-.04.2.72.87.67 2.32 1.55 3.07.19.57.41 1.12.64 1.66.18-.02.3.14.39.29 2.04 3.16 5.12 6.91 6.1 10.3.21.96 3.52 3.97 2.18 4.18.08 1.06 1.39 2.62.82 3.42l.18.73c.35.98.48 2.06.75 3.07 1.54 4.18 2.22 8.64 4.42 12.57 3.31-2.89 1.9-8.63 1.56-12.54h-.04zm-35.41-.33c-.34.14-.68.26-1.03.39l.1-.67c.31.23.73.32 1.12.18-.06.04-.13.07-.19.11h0z" fill="#111119"/></g><g opacity=".25"><path d="m145.11,28.28c-.01-.24-.15-.44-.36-.58.01.01.02.01.03.02-2.16-2.65-.19-5.54-1.49-7.65,1.55-2.57-5.57-11.36-5.45-5.51,7.48,10.86-3.41,5.36-2.14,12.19-1.56,3.33-5.75,6.76-9.09,4.26-2.35-.81-2.33-4.56-5.35-2.91.25,3.99,4.85,3.76,6.55,6.4,9.62,14.3-6.2,24.52-16.09,32.64-1.67,7.87,6.47-10.82,12.91,14.17,2.11-.24.32-3.02,1.13-3.68,1.38-2.62,20.85.88,15.06-5.48-4.06-2.08-10.25-2.92-13.07-3.42.09-1.52-2.47-6.13-3.22-5.25-2.78-2.05,1.74-3.75,2.91-6.03.44.06.87,1.23,1.53.53,1.17-.15.88-1.64,1.25-2.46,1.21.28,2.22-.95,2.59-1.95.98-1.8,4.41-2.72,5.06-5.16,1.36-1.82-.37-2.9,1.7-3.89,4.03,1.13,5.04-6.01,1.18-6.2.08-.1.22-.08.35-.11-.29-.12-.62-.17-.91-.04,2.54-2.85,5.75-5.5,4.92-9.88Z" fill="#111119"/></g><path d="M93.68 54.87v.09s.01-.03.02-.04l.03-.03-.24-.03s.02.01.02.03l-.07-.27s-.03.1-.03.15v.11l.06.1s-.02-.07-.01-.07V55c0-.05 0-.02 0 .01l-.03.11-.08.21-.32.79-.43.78c-.09.14-.13.29-.2.43-.09.19-.18.33-.14.55v-.18c-.04.12-.07.22 0 .34.05.08.13.13.21.13.21.03.43-.18.56-.32.14-.16.29-.31.41-.5l.28-.51c.18-.36.34-.73.46-1.12.12-.38.26-.83.04-1.18-.14-.21-.49-.31-.67-.09-.06.08-.11.15-.11.25l.06-.14c-.09.08-.16.21-.12.33.03.11.12.18.23.16.09-.01.18-.13.09-.21h0zm-1.44 1.03c-.19-.06-.36-.1-.55-.02a1.89 1.89 0 0 0-.54.36c-.33.29-.55.67-.68 1.09a3.52 3.52 0 0 0 .29 2.73c.58 1.03 1.65 1.71 2.7 2.21 1.13.55 2.31 1 3.37 1.7s1.88 1.65 2.26 2.88c.39 1.3.41 2.67.77 3.98.67 2.48 2.6 4.22 4.27 6.04 1.02 1.1 1.91 2.29 2.56 3.64.66 1.35 1.1 2.91 1.46 4.44.06.24.43.19.43-.06 0-2.59-1.1-5.2-2.64-7.26-1.43-1.92-3.41-3.45-4.54-5.6-1.2-2.26-.63-5.1-2.19-7.21-.72-.97-1.7-1.71-2.77-2.27l-3.29-1.54c-1-.55-1.96-1.34-2.07-2.54-.04-.5.03-1 .26-1.44.11-.19.23-.37.41-.5.1-.08.22-.11.31-.19.09-.07.15-.17.24-.24.08-.06.03-.19-.06-.22h0z"/><path d="M92.02 55.94h-.07c-.03-.15-.19-.24-.34-.25-2.21-.11-4.04 2.01-4.87 3.84-1.01 2.24-1.22 4.85-.73 7.25.05.24.48.26.51 0 .32-2.2.17-4.48 1.02-6.58.34-.85.83-1.65 1.47-2.3.76-.77 1.67-1.22 2.7-1.52.14-.04.26-.18.26-.34l.06.06c.11-.01.11-.15 0-.16zm5.04 9.36c-.21.97-.29 1.96-.44 2.94l-.53 2.86c-.4 1.92-.92 3.83-1.53 5.7l.81-.21c-.73-.61-1.2-1.43-1.62-2.27l-1.42-2.63a16.78 16.78 0 0 0-1.84-2.34l-1.07-1.04c-.37-.33-.76-.71-1.25-.88-.35-.12-.72.34-.5.65.29.4.71.67 1.08 1l1.07 1.04c.68.73 1.29 1.52 1.82 2.36 1 1.59 1.54 3.59 3.05 4.8.28.23.69.16.81-.21a52.82 52.82 0 0 0 1.44-5.8l.44-2.84c.13-1 .27-2.04.23-3.04-.01-.29-.46-.38-.53-.07h0zm25.58-3.73c.09.31.34.51.58.73l.68.66 1.37 1.51c.84 1.03 1.6 2.18 2.04 3.45s.57 2.53.78 3.82c.2 1.2.49 2.61 1.35 3.52.16.16.41 0 .36-.21l-.51-2.01-.34-1.95c-.21-1.31-.39-2.63-.9-3.85-.51-1.23-1.3-2.36-2.16-3.38-.44-.52-.91-1.02-1.41-1.48-.27-.25-.55-.48-.84-.7-.25-.19-.48-.38-.8-.38-.14 0-.25.14-.21.28v-.02z"/><path d="M124.86 63.77c-.25.34-.19.73-.19 1.14l.05 1.55.13 2.8.34 5.74.78 11.39c.09 1.02.23 2.05.44 3.05s.4 2.04.8 3c.09.23.41.14.38-.1l-.45-2.77-.2-2.73-.35-5.62-.78-11.33-.28-3.26-.16-1.55c-.05-.46-.03-.97-.36-1.32-.05-.05-.12-.03-.16.02zm4.83 10.76s-.04-.02-.07-.03c-.04-.02-.04-.03-.03 0-.03-.03-.06-.06-.1-.07-.02-.01-.04-.03-.07-.03a2.55 2.55 0 0 0-.29-.13 5.05 5.05 0 0 0-.55-.18c-.18-.05-.38-.08-.56-.11-.11-.01-.23-.04-.34-.04-.16 0-.31.07-.43.18-.14.13-.11.34 0 .48.18.2.41.2.66.23.05 0 .1.01.15.02-.09-.01.02 0 .04 0l.28.04.53.11c.04.01.09.03.13.03l.14.03c-.03 0-.03 0 0 0 .06.01.12.02.18.04-.03-.01-.02 0 .03 0 .02 0 .05.02.07.02.14.05.31-.04.37-.18s.01-.33-.12-.39h-.01z"/><path d="M116.84 66.66c-.1.26.03.51.17.73l.72 1.1 1.36 1.93 2.54 3.8c1.44 2.49 2.47 5.15 3.21 7.92l1.05 4.73c.06.25.41.18.43-.06.1-1.44-.09-2.93-.36-4.34s-.73-2.89-1.26-4.27c-1.08-2.81-2.59-5.4-4.41-7.8l-1.67-2.12-.9-1.06c-.23-.26-.46-.63-.85-.6-.02 0-.03.01-.04.03zm-31.91-1.2L82 66.58l-2.91.76c-1.99.41-4.02.62-6.05.8-4.11.36-8.29.59-12.25 1.83-2.12.66-4.35 1.66-5.69 3.51-.28.38.3.75.62.48 1.51-1.31 3.22-2.25 5.11-2.87 1.9-.62 3.94-1.02 5.95-1.3 4-.55 8.05-.7 12.02-1.53 1.11-.23 2.21-.51 3.28-.88 1.07-.38 2.14-.78 3.06-1.4.24-.16.1-.61-.21-.5h0zm-30.64 8.6c-1.38.15-2.62 1.05-3.54 2.05-1.02 1.11-1.8 2.43-2.45 3.79-1.44 3-2.29 6.23-2.68 9.54-.82 7.05.37 14.1 1.5 21.05l.98 6.14c.29 2.05.38 4.21.86 6.25.04.15.29.16.31 0 .26-1.77.04-3.56-.15-5.33s-.44-3.6-.7-5.39c-.54-3.61-1.19-7.2-1.6-10.82-.73-6.44-.75-13.2 1.5-19.37.58-1.6 1.33-3.18 2.33-4.57.48-.66 1.04-1.27 1.65-1.79.61-.53 1.35-.88 2.06-1.21.16-.07.08-.34-.09-.33h0zm3.12.83c.39.09.76.28 1.15.39l1.14.39c.75.29 1.45.69 2.12 1.13 1.37.89 2.56 2.05 3.57 3.33 2.33 2.95 3.55 6.57 4.46 10.18l.8 3.27c.25 1.09.49 2.24.88 3.31.07.19.41.19.39-.05-.08-1.02-.27-2.03-.45-3.04l-.59-3.1c-.42-2.04-.98-4.07-1.76-6-1.34-3.3-3.38-6.33-6.34-8.39-.79-.55-1.64-1-2.53-1.35-.43-.17-.86-.32-1.31-.42-.51-.12-.96-.09-1.47-.11-.27-.01-.33.41-.06.48h0zm15.81 28.08c-.04.25.08.4.19.62l.39.92c.21.56.32 1.15.4 1.74.19 1.36.16 2.73.14 4.1l-.03 4.17c0 1.39-.12 2.81.18 4.17.06.28.51.28.57 0 .31-1.38.19-2.84.18-4.25l-.03-4.39c-.02-1.35-.05-2.74-.33-4.07a11.28 11.28 0 0 0-.56-1.82c-.16-.39-.48-1.18-.95-1.27-.06-.01-.15.02-.16.09h0zm-27.36 27.07c.61-1.02 1.39-1.96 2.29-2.75.44-.38.91-.73 1.4-1.04.25-.16.51-.29.78-.44.26-.14.55-.3.69-.59.08-.16.01-.32-.16-.38-.59-.19-1.29.33-1.76.63a11.75 11.75 0 0 0-1.53 1.18 10.15 10.15 0 0 0-2.25 3.07c-.16.35.32.65.53.31h0z"/><path d="M50.69 125.29c.18.37.56.44.92.6l1.02.49c.7.36 1.36.78 2.01 1.24.58.41 1.17.85 1.82 1.13.55.25 1.39.5 1.95.15.14-.09.16-.33 0-.41-.28-.14-.6-.17-.89-.28-.32-.11-.63-.25-.92-.41-.64-.33-1.21-.77-1.81-1.17-.6-.39-1.27-.78-1.96-1.06-.35-.15-.7-.28-1.07-.38-.36-.1-.69-.25-1.03-.03-.05.03-.06.09-.04.14z"/><path d="M58.02 129.24c.44-.73.68-1.6.98-2.4l1.04-2.48 1.17-2.31 1.22-2.38c.11-.28-.29-.47-.48-.28-1.25 1.25-2.04 3.04-2.75 4.64l-.97 2.45c-.29.83-.61 1.75-.61 2.65 0 .21.28.28.39.11h0z"/><path d="M62.82 119.38c.26.16.55.09.85.05l1.02-.13 1.98-.26c1.25-.14 2.52-.21 3.78-.19s2.43.11 3.62.35c.58.11 1.15.26 1.72.45.61.2 1.18.44 1.82.56.32.06.64-.34.34-.6-.94-.82-2.27-1.14-3.47-1.39-1.28-.27-2.59-.39-3.89-.4a31.69 31.69 0 0 0-3.99.26l-2.07.34a9.01 9.01 0 0 0-1.02.27c-.29.09-.58.14-.74.41a.2.2 0 0 0 .08.28h-.02z"/><path d="M77.13 119.46c-.19.26-.19.6-.23.92-.03.29-.04.58-.04.88l.03 1.98.28 4.02.52 3.91.38 1.94c.07.31.15.66.29.95.11.22.19.46.36.64.11.12.31.05.36-.09s.03-.21.03-.36.03-.29.03-.45c0-.29-.04-.59-.09-.88l-.33-1.96-.52-3.86-.31-3.87-.09-1.98-.06-.88c-.03-.31-.03-.65-.21-.92-.1-.14-.29-.14-.39 0zM45.51 130.9c-.16.37-.06.61.05.99l.32 1.04.66 1.92 1.39 3.89 1.38 3.8c.43 1.14.92 2.13 1.83 2.96.22.21.63-.06.44-.34-.64-.93-1.05-2.08-1.44-3.13l-1.41-3.84-1.42-3.81-.73-1.89-.38-.88c-.16-.35-.24-.58-.59-.76-.04-.03-.08 0-.1.04h0zm6.73 15.37l.6-2.87a16.66 16.66 0 0 1 1.05-2.83c.85-1.79 1.99-3.41 3.41-4.79 3.01-2.95 7.13-4.49 11.33-4.43 1.21.02 2.41.17 3.59.46s2.28.82 3.45 1.07c.31.06.61-.33.33-.57-.84-.73-1.96-1.08-3.01-1.37-1.06-.29-2.21-.47-3.33-.55-2.26-.15-4.58.14-6.72.88-4.07 1.39-7.44 4.39-9.41 8.21-.53 1.03-.95 2.11-1.26 3.23s-.57 2.36-.45 3.52c.02.23.37.32.43.06h0zm12.67-24.12c-.11-.1-.21-.15-.35-.18l.1.06c-.24-.25-.68-.08-.95.05-.26.13-.5.38-.62.65-.29.64-.04 1.39.5 1.81.58.46 1.34.51 1.98.14.3-.18.56-.44.74-.74.09-.16.21-.38.21-.56s-.11-.37-.21-.51c-.22-.29-.54-.53-.91-.59-.22-.04-.42-.03-.61.09-.02.01-.04.03-.06.04.03-.01.03 0-.01 0-.04.01-.07.03-.11.04-.08.04-.14.11-.19.18-.06.07-.09.16-.05.26.03.08.13.16.21.15.04 0 .23.01.24-.02h0c-.03-.01-.03-.01 0 0 .01 0 .03.01.04.01q-.05-.02.01 0 .06.02 0 0s.09.04.13.05l.09.03.19.06c-.11-.03 0 0 .01 0 .03.01.06.03.09.04s.06.04.08.06c-.09-.06-.01 0 .01.01.03.03.04.05.07.07.07.06-.04-.06.01.01l.06.1c.06.1-.02-.06.01.03v-.24l-.04.12c-.02.05 0-.01 0-.02 0 .02-.02.04-.03.05-.02.04-.04.08-.07.12-.01.02-.02.03-.03.05l-.02.03c.03-.04 0 .01-.01.01-.02.02-.03.04-.05.06l-.08.08c-.01.01-.11.09-.08.06.04-.03-.01 0-.02.01-.02.01-.04.03-.06.04-.04.03-.08.04-.12.07-.02 0-.11.05-.07.03.05-.02-.01 0-.02 0-.03 0-.05.02-.08.03-.04.01-.09.03-.13.03-.02 0-.04 0-.06.01.02 0 .09-.01 0 0h-.17c-.06 0 .06.01 0 0-.04 0-.09-.02-.13-.03-.03 0-.05-.01-.07-.03 0 0-.06-.03-.02 0 .04.01-.06-.03-.07-.04-.04-.02-.08-.04-.11-.07-.02-.01-.03-.02-.04-.03-.05-.04.04.04 0 0-.06-.06-.12-.11-.17-.18.04.06-.03-.04-.03-.06-.03-.04-.04-.07-.06-.11 0-.01-.03-.07 0 0 0-.02-.01-.04-.02-.05l-.03-.11c0-.01-.01-.09 0-.04 0 .04 0-.02 0-.02v-.13s.01-.08 0-.04c0 .04 0-.01 0-.02l.03-.1c0-.01.03-.07 0 0 0-.02.01-.03.03-.04l.06-.11c.03-.06.02-.03 0-.01.01-.02.03-.04.04-.06.03-.04.06-.07.09-.1.02-.02.07-.06.07-.06s.07-.04.09-.06a.62.62 0 0 1 .19-.07c.11-.03.2-.06.28-.14l-.16.07c.1 0 .2-.01.3 0 .13 0 .21-.17.11-.26h.03zm9.67-14.92c-.03-.44-.49-.76-.78-1.05l-1.19-1.12-2.48-1.97-2.65-1.76c-.91-.54-1.82-.92-2.87-.85-.31.02-.41.5-.08.57.94.2 1.83.71 2.64 1.2l2.54 1.67 2.43 1.79 1.24.97c.3.25.65.66 1.07.66.06 0 .13-.06.12-.12h0zm-.05 2.23l-.17-.18c-.06-.06-.14-.11-.21-.16l-.43-.28-.86-.54c-.29-.17-.6-.32-.9-.46-.31-.14-.67-.31-1.02-.3-.26 0-.39.32-.21.51.23.25.58.38.88.52l.89.42.88.43.44.24.23.11c.08.03.16.04.24.07.21.09.37-.23.22-.38h0zm5.16-8.39l.96 5.53c.17.71.61 1.23 1.37 1.29.37.03.74-.04 1.1-.08l1.47-.17 11.26-1.35 6.37-.77a.5.5 0 0 0 .47-.62l-.46-3.08-.23-1.46-.13-.77c-.06-.28-.18-.53-.23-.81-.06-.34-.63-.26-.6.08.03.26-.01.51 0 .77s.06.51.09.77l.19 1.54.41 3.08.49-.49-10.71 1.3-5.28.65-2.64.33-1.17.14c-.34.03-.66.02-.81-.34-.18-.39-.22-.87-.31-1.29l-.3-1.37-.73-3.03c-.09-.38-.64-.21-.58.16h0zm1.45-.66c.25.23.58.16.89.14l1.07-.09 2.29-.24 4.68-.56 4.6-.6 2.31-.32c.71-.11 1.61-.18 2.21-.61.15-.11.12-.31-.05-.38-.67-.25-1.52-.07-2.21 0l-2.29.31-4.72.63-4.57.62-2.28.35-1.13.19c-.31.06-.64.07-.82.36-.04.06-.03.16.03.21zm-.07 8.32a1.42 1.42 0 0 0-.19.73v.77l.03 1.85.16 3.53.3 3.53.41 3.4c.21 1.04.98 1.47 1.98 1.56 1.14.09 2.3.09 3.44.09 2.29-.01 4.58-.15 6.85-.43l3.85-.58c1.17-.2 2.44-.34 3.6-.03.36.09.59-.42.26-.61-1.85-1.03-4.06-.28-6.02.02-2.22.34-4.46.54-6.71.62l-3.36.02-1.68-.06c-.39-.03-.89-.03-1.12-.4s-.23-1-.28-1.44l-.2-1.69-.33-3.37-.26-3.84-.08-1.85-.05-.92-.02-.46c-.03-.17-.11-.28-.19-.43s-.32-.15-.39 0h0zm20.02-1.9c-.29.5-.16 1.26-.15 1.81l.06 1.84.27 3.82.42 3.81.26 1.8c.07.42.17 1.1.75 1.05.11-.01.23-.08.25-.19.11-.45-.06-.98-.11-1.43l-.25-1.82-.4-3.58-.29-3.59-.13-1.84c-.04-.51.03-1.22-.26-1.66-.1-.16-.33-.17-.43 0h0zm4.68-14.25h-.12l.09.03c-.7-.33-1.13.66-1.18 1.23a1.78 1.78 0 0 0 .73 1.57c.49.35 1.15.41 1.69.21.58-.21 1.03-.68 1.15-1.28.06-.33.06-.68-.04-1a1.59 1.59 0 0 0-.26-.5c-.02-.03-.04-.05-.07-.08a.42.42 0 0 0-.14-.09l-.06-.03c.02.02.04.01.01 0-.03-.03-.07-.04-.11-.05-.01 0-.02 0-.04-.01-.04-.02.07.03-.01 0-.12-.05-.25-.06-.35.04-.09.09-.11.24-.04.35 0 .01.04.09.01.02.02.04.02.09.05.12.04.05-.02-.17-.02-.08s.03.15.07.23c0 .01.03.04.03.05l-.02-.05s.03.09.06.13c0 .02.02.03.03.05 0 .02.02.04.03.05-.03-.06-.03-.06-.01-.03.03.09.06.18.07.28 0-.1.02.09 0 0v.32s.01-.09 0-.03l-.04.16-.04.14c-.02.06.05-.09 0-.01-.02.03-.03.06-.04.09s-.06.12-.09.13c0 0 .07-.08.01-.02l-.06.06c-.03.03-.07.08-.11.09.08-.03.04-.03 0 0l-.09.06c-.03.02-.09.06-.13.06l.05-.02s-.04.01-.06.02c-.02 0-.04.01-.06.02l-.14.04h-.03c-.05.01-.04.01.03 0h-.09-.24c-.1 0 .1.02 0 0l-.14-.03c-.05-.01-.13-.03-.16-.06.04.04.06.03.03 0-.03-.01-.05-.03-.07-.04a.36.36 0 0 1-.12-.08l.04.03-.04-.04-.04-.04c-.03-.03-.11-.09-.12-.13l.03.04s-.03-.03-.03-.05c-.01-.02-.02-.03-.03-.05-.03-.04-.04-.09-.07-.14s.03.09 0 0c0-.03-.02-.04-.03-.07-.02-.06-.03-.11-.04-.17 0-.03-.03-.09 0 0v-.1-.25s.02-.13 0-.06c-.01.06 0-.03 0-.04 0-.03.01-.07.03-.1 0-.03.01-.04.02-.07 0-.01.04-.11.03-.06-.03.05.02-.04.02-.04.01-.03.03-.06.05-.09.01-.02.03-.04.04-.06 0-.01.06-.09.04-.06-.01.01-.04.04.02 0 .08-.06.11-.12.15-.21l-.07.12s.07-.06.09-.11c.02-.03.03-.08.04-.11l-.04.08.09-.09c.07-.08.02-.22-.09-.22l.02.02zm1.91 27.17h.03l.14-.01h-.02c-.1-.03-.23 0-.3.08-.49.55-.95 1.14-1.03 1.9-.06.61.2 1.29.75 1.61.62.37 1.42.15 1.91-.34.53-.53.64-1.33.55-2.04-.03-.23-.05-.44-.19-.63a.84.84 0 0 0-.45-.31c-.13-.04-.31-.03-.43.04-.18.11-.19.31-.07.46a.18.18 0 0 0 .18.05c.02 0 .11-.03.11-.04l-.08.01c-.03 0-.08-.06-.06-.03 0 0 .08.08.05.04.01.02.03.04.04.06l.03.06c.02.04.04.2.06.28l.03.34c0 .26-.02.49-.11.73-.08.2-.17.32-.33.46-.07.06-.03.02-.02.02l-.08.05-.13.07c-.06.03.04-.01-.02 0-.02 0-.04.01-.06.02-.03 0-.06.02-.08.03-.01 0-.11.02-.07.01-.07 0-.14 0-.21-.02-.02 0-.04-.01-.06-.02-.07-.02.04.03-.02 0-.02 0-.04-.02-.05-.03 0 0-.11-.07-.04-.03-.14-.11-.22-.24-.26-.38-.03-.08-.06-.22-.07-.26 0-.04-.01-.19 0-.28v-.08c0 .06.01-.04.01-.04l.06-.23a1.89 1.89 0 0 1 .16-.36c.14-.27.32-.52.5-.76.07-.09.04-.22 0-.31v-.02a1.23 1.23 0 0 0 .02.2v-.04c.13-.24-.15-.43-.34-.28h-.03zm1.64 25.85c-.3-.19-.67-.1-.96.06s-.52.4-.69.67c-.37.6-.35 1.38.11 1.93.42.5 1.14.63 1.75.49s1.2-.61 1.32-1.25a1.37 1.37 0 0 0-.39-1.21c-.18-.18-.45-.32-.7-.24-.2.06-.39.19-.44.4-.04.15.08.31.23.31h.14s-.04-.01 0 0c.01 0 .04.02 0 0-.03 0-.05-.02-.07-.04l.08.06s.06.02.07.03c0 0 .06.03.07.04-.06-.05.06.03 0 0 .03.02.05.04.07.07.01.01.07.08.03.03s.02.03.03.04c.02.02.03.05.04.08 0 .01.03.07.01.02-.02-.06 0 .01 0 .02 0 .03.02.06.03.09 0 0 .01.04 0 .04v-.04.13s.02-.09 0-.03c-.01.05-.02.1-.04.15-.02.07.04-.08 0 0a.3.3 0 0 1-.04.08c-.01.02-.03.04-.04.06-.04.06.05-.06 0 0l-.11.12c-.02.02-.04.03-.06.05-.03.03.03-.02.03-.02l-.04.03-.14.09c-.02.01-.04.03-.07.04 0 0-.04.01-.04.02 0 0 .07-.03.04-.02l-.16.05c-.06.01-.11.02-.17.04-.04.01.04 0 .04 0h-.04-.09-.16-.08c-.07 0 .08.02 0 0a.75.75 0 0 1-.16-.04c-.02 0-.05-.02-.07-.03-.06-.02.07.04-.01 0-.04-.02-.09-.05-.13-.08-.01 0-.02-.01-.03-.02-.02-.03-.02-.01 0 0 .01.01.03.03 0 0-.01-.01-.02-.03-.04-.04-.03-.02-.04-.04-.06-.06 0-.01-.02-.02-.03-.03 0 0 .04.06.02.02-.03-.05-.07-.1-.09-.16-.02-.04-.02-.07 0 0 0-.02-.02-.05-.03-.07 0-.03-.01-.05-.02-.08 0-.03-.01-.14 0-.03v-.16-.12c0-.05-.01.07 0 .02l.1-.35c.01-.03.04-.09.01-.03.01-.03.03-.06.04-.09.03-.06.06-.11.1-.17.01-.02.06-.08.03-.03.03-.03.05-.06.08-.08l.07-.07c.01-.01.07-.06.03-.03.05-.04.11-.07.16-.11l.09-.04c.03-.01 0 0 0 0 .02 0 .03-.01.05-.02.05-.02.1-.03.14-.05-.04.02.04-.01.05-.01l.21-.09c.12-.06.1-.24 0-.31l-.03-.03zm-4.74 50.14c-.15-.12-.29-.16-.49-.12a1.33 1.33 0 0 0-.48.23c-.31.23-.51.57-.63.94-.12.4-.13.82-.11 1.24 0 .19 0 .38.07.56.09.24.28.41.53.5.36.12.78.09 1.15.02.36-.06.72-.2 1.01-.42.63-.46.98-1.22.85-1.99-.07-.4-.31-.78-.67-.97a1.05 1.05 0 0 0-.67-.12c-.23.04-.38.17-.51.36-.1.14-.05.36.06.48.11.11.34.16.48.06.02-.01.04-.03.06-.04-.06.04-.03 0 0 0 .06 0-.07-.01-.02 0h.08s-.09-.03-.02 0c.02 0 .04.01.07.02-.07-.01-.04-.02 0 0l.09.06c.02.01.06.05 0 0 .02.02.04.03.06.05s.03.04.05.06c-.06-.06 0-.01 0 .01.01.02.03.04.04.06.03.06-.03-.09 0 .03.02.06.03.12.04.18.02.07 0-.1 0 .02v.08.16c0-.09-.02.08-.03.11-.01.06-.04.12-.06.17.03-.07 0 0-.01.03a.3.3 0 0 1-.04.08c-.03.06-.06.11-.1.16 0 .01-.05.06 0 0l-.06.06-.16.15c.04-.04-.01 0-.02.01-.02.02-.05.03-.08.05a1.04 1.04 0 0 1-.18.1 1.46 1.46 0 0 1-.34.12c-.06.01-.12.02-.18.04-.09.02-.04 0-.02 0-.03 0-.06 0-.09.01a2.06 2.06 0 0 1-.43 0h-.04c.06 0-.07-.01-.06-.01-.04 0-.05 0 0 0-.07.01.01-.05 0 0 0 .01.04.03.02.04l-.02-.08c.01.06 0 0 0-.02 0-.05 0-.1-.01-.14-.03-.31-.04-.63 0-.93.04-.26.12-.49.28-.68.07-.09.16-.17.26-.23.06-.04.12-.06.18-.09.07-.04.11-.1.16-.15.06-.06.07-.19 0-.25h-.02zM114.9 92.41c-.36.39-.5.83-.6 1.35l-.25 1.65c-.09 1.1.03 2.21.19 3.3.33 2.24 1.01 4.4 1.63 6.57s1.21 4.45 1.22 6.75c0 2.06-.36 4.11-.52 6.15-.09 1.13-.12 2.26.03 3.38.07.57.18 1.13.36 1.68a5.58 5.58 0 0 0 .34.75c.14.28.34.49.5.75.21.35.71.04.54-.31-.21-.42-.26-.93-.39-1.39a8.31 8.31 0 0 1-.29-1.47c-.12-.99-.09-1.99-.01-2.98l.59-6.02c.12-4.53-1.89-8.61-2.87-12.94-.27-1.2-.45-2.41-.5-3.64-.02-.62-.04-1.25.03-1.86.06-.58.18-1.11.09-1.7 0-.03-.04-.04-.06-.02h0zm1.07.02c.38.02.76-.01 1.08.25.28.23.38.62.67.85s.67.25 1.03.23l1.24-.03c1.52.06 3.1.53 4.13 1.7.61.7 1 1.58 1.33 2.44s.61 1.82.62 2.78c.02 1.42-.6 2.78-1.56 3.82a7.1 7.1 0 0 1-1.92 1.48c-.38.2-.76.36-1.17.49-.4.13-.83.16-1.15.48-.16.16-.14.46.08.57.73.37 1.79-.16 2.47-.48.75-.36 1.44-.83 2.04-1.4 1.22-1.13 2.04-2.65 2.19-4.32.09-1.02-.12-2.04-.46-3-.34-.95-.76-1.91-1.3-2.74-1.01-1.56-2.65-2.38-4.46-2.6a8.44 8.44 0 0 0-1.42-.06c-.48.01-1.07.22-1.37-.21-.27-.37-.56-.66-1.01-.8-.42-.13-.86-.11-1.2.18-.14.13-.02.35.15.36h0zm3.56 32.06c.46.11.91.1 1.39.06.39-.03.85-.02 1.07-.42.16-.3.03-.66.28-.92.32-.34.83-.37 1.27-.44.85-.12 1.52-.46 2.06-1.13.54-.68.9-1.52 1.24-2.32.71-1.65 1.27-3.44 1.09-5.26-.17-1.69-.92-3.25-2.34-4.23-.74-.51-1.61-.84-2.48-1.06s-1.84-.42-2.75-.43c-.53 0-.66.82-.12.94.72.17 1.47.21 2.2.36s1.38.34 2.01.66c1.37.69 2.19 1.9 2.47 3.39.3 1.63-.14 3.29-.73 4.8-.28.73-.59 1.48-.99 2.15s-.93 1.11-1.73 1.28c-.75.15-1.6.31-1.99 1.05-.08.16-.12.33-.14.5-.02.29-.04.3-.34.34-.52.08-1 .15-1.47.38-.12.06-.09.25.04.28h0zm7.65-30.09c.77 3.87 1.64 7.68 1.96 11.63.32 3.94.46 7.94.67 11.9l1.29 23.77.39 6.73c.13 2.24.19 4.47.6 6.66.08.43.7.29.72-.1.14-2.01-.01-4.01-.13-6.02l-.34-6.02-.68-11.88-.73-11.96-.76-11.92c-.18-2.18-.44-4.39-.94-6.52s-1.06-4.26-1.71-6.36c-.07-.22-.38-.13-.34.09h0zm-18.72-7.86c.19 1.24.53 2.44.79 3.67l.73 3.68 1.06 7.31c.6 5 1.1 10 1.49 15.02a315.17 315.17 0 0 1 .88 30.27l-.27 8.49c-.12 2.83-.33 5.75-.31 8.64 0 .33.55.44.61.08.39-2.53.53-5.08.66-7.64.14-2.56.23-5.15.29-7.72.13-5.1.13-10.2 0-15.3-.24-10.2-.98-20.38-2.23-30.5-.34-2.72-.71-5.44-1.24-8.14-.27-1.37-.56-2.74-.92-4.09-.35-1.35-.7-2.65-1.3-3.87-.08-.16-.28-.04-.26.11h0zm50.21 43.22s.04-.06 0-.06-.04.06 0 .06zm-11.01-26.72c-.14.67.04 1.41.03 2.1a10.14 10.14 0 0 1-.21 2.06c-.11.54-.23 1.22-.87 1.34-.51.1-1.07-.09-1.53-.27l-3.92-1.56-4.22-1.34.34.34c-.07-.2-.12-.33-.31-.44l.14.18-.03-.14c-.06-.26-.48-.26-.53 0l-.03.14.14-.18c-.19.11-.24.23-.31.44-.08.25.09.53.34.6 2.48.7 4.93 1.52 7.31 2.51.89.37 1.87.83 2.86.6 1.11-.26 1.38-1.37 1.53-2.34a9.69 9.69 0 0 0 .12-2.08c-.02-.65-.03-1.45-.4-2.01-.11-.16-.4-.16-.44.06h-.01z"/><path d="M147.62 102.65c0-.41-.43-.52-.75-.67l-1.38-.61-2.88-1.01c-1.96-.61-3.96-1.12-5.97-1.51-.26-.05-.57.07-.63.36-.23 1.09-.21 2.47.63 3.3.18.18.56.06.53-.22-.11-.96-.38-1.84-.17-2.81l-.63.36 6.12 1.52 2.97.94 1.49.45c.17.05.35.13.51.05.03-.01.16-.09.16-.14h.01zm-1.1 7.08c-.15.51-.14 1.04-.15 1.56l-.04 1.65-.23 3.3c-.22 2.15-.6 4.29-1.12 6.38-.04.18-.08.36-.16.52-.1.2-.19.18-.39.11-.54-.18-1.08-.43-1.61-.65l-3.08-1.25-1.48-.6c-.4-.17-.81-.36-1.05-.74-.46-.69-.36-1.64-.32-2.42l.18-3.69.08-1.85c.03-.62.09-1.31-.11-1.92-.07-.2-.4-.3-.51-.07-.24.53-.27 1.1-.31 1.68l-.13 2-.21 3.69c-.05.94-.12 1.94.28 2.82.45 1 1.43 1.35 2.38 1.73l3.43 1.4 1.72.7c.48.2 1.01.43 1.52.14.4-.22.6-.65.71-1.07.16-.56.26-1.15.38-1.72l.58-3.54.33-4.04.01-2.11c-.01-.66 0-1.39-.24-2.01-.08-.2-.37-.23-.44 0h-.01zm-4.11-6.31h-.02s.04.03.07.04l-.02-.03c-.06-.1-.19-.16-.31-.12a1.3 1.3 0 0 0-.83.89 1.12 1.12 0 0 0 .35 1.14c.31.27.74.41 1.15.29a1.08 1.08 0 0 0 .74-.84c.04-.23.05-.51-.07-.71-.13-.22-.4-.39-.65-.28-.07.03-.09.11-.1.18.01-.09 0 0 0 .03s.02.11 0 .06c-.02-.09.03.17 0 .07v.03c0 .03.01.04.02.07 0 .01 0 .03.01.04.01.06 0-.01 0-.03.01.09.03.16.06.25.01.06 0-.04 0-.04v.14c0 .08.02-.09 0 0 0 .03-.01.05-.02.07 0 .02-.04.11-.01.05 0-.01.03-.06 0 0-.01.02-.02.04-.02.05-.01.02-.04.05-.05.07 0 0 .06-.07.02-.03 0 0-.02.02-.02.03-.01.01-.09.08-.04.04.04-.04 0 0-.01 0s-.03.02-.04.03c-.05.02-.02-.01.02 0l-.04.01c-.02 0-.06.01-.08.02-.07.02.07 0 .02 0h-.09s-.08-.02.01 0c-.06-.02-.12-.02-.18-.04-.01 0-.06-.02 0 0 .06.01 0 0-.02-.01l-.09-.06s-.03-.03-.04-.03c.02 0 .06.05.02.01-.02-.02-.05-.04-.07-.07l-.04-.04c-.03-.04.02 0 .01.02l-.06-.09-.02-.04s.03.07.01.02l-.03-.09c0-.01-.02-.05-.01-.06v.02-.16.03-.03c0-.04.02-.07.03-.11.02-.06 0 0 0 .01 0-.03.02-.04.03-.06a.88.88 0 0 1 .06-.1l.02-.03c-.03.04.01-.02.02-.02l.09-.09c.01-.01.02-.02.04-.03s.01-.01-.01 0l.05-.04c-.03.02.01 0 .02-.01.02-.02.04-.03.07-.04.08-.04.15-.14.14-.24v-.05s-.02.05-.04.08h.01c.06-.06.02-.16-.04-.18h-.03zm1.82 22.48c-.04 1.09-.09 2.16-.33 3.23s-.58 2.15-.95 3.2c-.71 2.08-1.52 4.15-1.76 6.36-.26 2.39.46 4.6 1.17 6.84.36 1.14.7 2.3.81 3.5s0 2.46-.15 3.68c-.35 2.68-1.2 5.38-.54 8.07.02.11.19.08.19-.02-.02-2.48.55-4.9 1.03-7.32.24-1.18.43-2.37.42-3.57 0-1.2-.24-2.41-.58-3.59-.66-2.28-1.61-4.49-1.5-6.91.11-2.21.88-4.32 1.56-6.4l.98-3.52c.23-1.2.38-2.43.12-3.61-.06-.28-.47-.2-.48.06h0zm-6.58 23.76c.65 3.1 1.78 6.06 2.98 8.99l3.72 8.61c2.55 5.74 5.21 11.47 6.96 17.52.48 1.66.89 3.34 1.22 5.03s.56 3.46.84 5.18c.06.35.58.25.59-.08.1-3.1-.57-6.24-1.37-9.22s-1.86-5.97-3.05-8.87c-2.39-5.84-5.33-11.42-7.81-17.22-1.41-3.29-2.62-6.66-3.84-10.02-.06-.16-.29-.1-.26.07h0zm10.51-48.04c.07-.12.14-.21.19-.34.05-.15.07-.31.11-.46l.19-.8.33-1.81.26-1.71.11-.87c.04-.32-.01-.62-.02-.94 0-.14-.19-.16-.24-.03-.11.31-.26.57-.34.89l-.18.8-.35 1.81-.29 1.75-.09.83-.04.4c0 .16.04.29.07.44.02.14.24.16.3.04h-.02zm-18.49-32.38c.24.17.43.36.72.44l.91.23 1.82.46 3.65.9c2.16.53 4.47.92 6.36 2.16 1.74 1.14 2.98 2.88 4.13 4.58l3.59 5.47c2.24 3.67 4.21 7.67 4.7 12s-.58 9.02.25 13.48c.23 1.25.66 2.41 1.17 3.57.5 1.16 1.02 2.26 1.08 3.48.06 1.12-.39 2.06-1.17 2.85-.74.74-1.67 1.24-2.49 1.87-.25.19.02.65.31.54 1.73-.63 3.55-1.89 4.17-3.71.76-2.24-.59-4.44-1.38-6.46-1.73-4.46-.6-9.31-.78-13.94s-1.89-8.84-4.16-12.77c-1.11-1.94-2.36-3.81-3.61-5.66s-2.41-3.65-4.02-5.1c-.92-.83-1.96-1.46-3.11-1.92s-2.48-.76-3.74-1.04l-4.28-.97-2.14-.46-1.07-.23c-.31-.06-.58.02-.88.07-.09.01-.09.14-.02.19h0z"/><path d="M151.69 83.87l-.03.09.11-.15c-.35.24-.38.84-.48 1.22l-.29 1.28-.28 1.28-.09.66c-.03.24-.08.43.09.63.08.09.21.08.29.04.19-.1.23-.29.29-.48l.19-.63.27-1.34.25-1.29.11-.65a1.86 1.86 0 0 0 .04-.33c0-.09-.05-.19-.04-.28.02-.28-.38-.3-.46-.06h0zm6.74 34.29c1.53 2.39 1.73 5.29 2.63 7.92a11.69 11.69 0 0 0 .81 1.89l1.12 1.83c.36.61.68 1.21.81 1.9.16.78-.05 1.59-.23 2.36l-1.5 5.74c-.06.24.28.33.36.1l1.74-5.19c.26-.81.59-1.57.64-2.44.04-.74-.16-1.45-.45-2.12-.59-1.33-1.56-2.45-2.09-3.82s-.8-2.76-1.17-4.16c-.41-1.57-.91-3.15-1.88-4.47-.34-.46-1.1-.04-.78.46h0z"/><path d="M164.38 133.88c.08.16.06.31.17.45.11.13.25.22.36.34.24.26.41.58.56.91.33.72.46 1.52.6 2.29l.48 2.38c.21.68.56 1.55 1.17 1.97.2.15.45-.09.4-.31-.1-.39-.31-.75-.43-1.14l-.33-1.21-.48-2.51c-.16-.74-.36-1.52-.75-2.19-.19-.31-.42-.62-.7-.86-.13-.11-.28-.25-.44-.31-.22-.08-.35.02-.56.07-.05.01-.07.07-.04.11h0zm-20.03 24.31c.01.05-.16.04-.05.06.03 0 .19-.09.23-.09.17-.04.36-.06.53-.09l1.32-.29c.85-.21 1.68-.49 2.49-.82 1.59-.63 3.11-1.42 4.57-2.31 3.11-1.9 5.91-4.24 8.74-6.51l2.53-1.99c.85-.65 1.67-1.27 2.4-2.06.16-.18 0-.54-.26-.45-1.99.79-3.65 2.32-5.3 3.65l-5.09 4.03c-3.22 2.43-6.73 4.59-10.64 5.72-.49.14-1.02.21-1.49.4-.32.13-.68.4-.51.79.19.45.88.11.61-.12-.04-.03-.1 0-.09.05h0zm23.63-14.66c-.02.26.1.53.18.77.09.28.21.55.33.82l.6 1.58 1.14 3.27 1.12 3.32.6 1.75c.18.49.35 1.1.78 1.42.15.11.35 0 .4-.16.16-.52-.12-1.17-.29-1.67l-.6-1.75-1.17-3.38-1.22-3.25-.68-1.59c-.2-.44-.44-1.05-.85-1.33-.16-.11-.34.04-.35.2h0zm-16.5 15.64c.11.2.31.06.36-.11.1-.33-.28-.55-.55-.37-.43.29-.16 1.03-.12 1.43.08.68.09 1.37.08 2.06-.01 1.3-.1 2.59.07 3.89.08.59.21 1.17.42 1.73.18.46.48 1.12.96 1.34.16.07.44-.01.41-.24-.04-.37-.26-.7-.39-1.05l-.36-1.08c-.19-.8-.26-1.62-.28-2.45l-.01-2.73-.12-1.28c-.03-.24-.14-1.28-.41-1.3-.08 0-.12.09-.09.15h.01zm.5-.17c.69.43 1.47.72 2.21 1.04l2.32.93 2.31.87c.77.29 1.56.69 2.37.68.25 0 .43-.35.22-.52-.6-.51-1.4-.71-2.12-.97l-2.39-.87-2.32-.83c-.78-.26-1.59-.59-2.42-.75-.25-.05-.41.28-.18.42h0z"/><path d="M162.29 163.21c.97-.08 1.89-.5 2.77-.91s1.77-.93 2.62-1.47l2.49-1.7 1.32-.94c.44-.31.94-.6 1.28-1.03.21-.26.03-.77-.37-.63-.52.18-.94.54-1.38.85l-1.2.86-2.48 1.73-2.5 1.53-2.64 1.36c-.15.09-.09.35.09.34h-.01zm-17.99-3.96c-.04.23.04.37.14.58l.5.88 1.02 1.56 2.12 3.16 2.1 3.08c.47.69 1.19 2.18 2.25 1.86.23-.07.31-.36.14-.53-.31-.3-.65-.56-.9-.92l-.99-1.42-2.04-2.93-2.06-2.93-1.01-1.39-.55-.67c-.16-.19-.29-.38-.55-.43-.07-.01-.17.02-.18.1h0zm-.44-13.99c.39.18.86.16 1.28.18l1.46.02 3-.1 2.92-.19c.97-.08 2.06-.06 2.96-.42.15-.06.2-.33 0-.36-.93-.16-1.94.06-2.88.14l-2.99.21-2.92.12-1.54.06c-.42.02-.89 0-1.28.18-.06.03-.06.14 0 .17h0zm-.7 6.11c.14 0 .27.04.42.03.11 0 .21-.01.31-.02l.71-.11 1.45-.3c.93-.22 1.94-.42 2.78-.88.18-.1.11-.44-.11-.41-.96.11-1.9.45-2.85.68l-1.45.33-.72.16c-.21.06-.4.15-.6.22-.16.06-.14.29.04.3zm-56.13-7.27l-.38.36c-.19.2.13.46.3.23.88-1.17 1.54-2.49 2.25-3.76l2.19-3.89 2.05-3.64a17.24 17.24 0 0 1 1.02-1.55l1.17-1.47c.14-.21-.13-.41-.32-.32-1.08.53-1.81 1.79-2.39 2.8l-2.09 3.76-2.19 3.98c-.73 1.33-1.49 2.57-2.03 3.95l.37.1.08-.54h-.02zm8.27 2.92l.68-.75.63-.87a24.62 24.62 0 0 1 1.38-1.68l1.46-1.49c.5-.48 1.1-.93 1.51-1.49.07-.1-.05-.27-.17-.23-.64.26-1.22.78-1.72 1.25-.56.51-1.08 1.04-1.57 1.6-.5.56-.93 1.1-1.35 1.69l-.63.93c-.17.29-.26.6-.39.92-.04.1.11.18.18.11h0zm-16.28 17.59c-.42.26-.77.68-1.12 1.04l-1.14 1.19-2.28 2.48-4.15 5.05c-.03.05.04.11.08.06l4.38-4.9 2.22-2.43 1.08-1.15c.36-.38.8-.75 1.06-1.2.05-.09-.05-.19-.14-.14h0zm-3.64-.74c.11-.09.18-.21.21-.34l-.05.06c.1-.07.12-.21.11-.34-.01-.16-.18-.22-.3-.12-.41.32-.71.76-1 1.19s-.54.88-.66 1.39c-.04.15.16.22.24.1l.81-1.27.89-1.2h-.3c.03.07.03.15.07.21v-.08c-.03.11-.06.2-.14.28s.04.18.11.11h0zm77.36 7.79c-.16.7.03 1.32.27 1.99a17.89 17.89 0 0 0 .83 1.9l2.01 3.66 4.44 7.1c1.44 2.39 2.74 4.85 3.67 7.5s1.6 5.52 2.3 8.31c.77 3.1 1.54 6.27 3.09 9.08.14.26.6.09.5-.21l-2.44-8.16-2.19-8.27c-.88-2.71-2.03-5.18-3.44-7.6l-4.46-7.01-2.33-3.96-1.05-2.11c-.33-.72-.52-1.54-.91-2.25-.06-.12-.26-.09-.29.04h0zm20.01-12.99c1.05 3.09 1.53 6.26 1.81 9.5s.53 6.3 1.3 9.4c1.49 5.99 4.31 11.55 6.59 17.26.64 1.6 1.25 3.22 1.77 4.87.53 1.65.98 3.35 1.45 5.03.07.26.51.22.48-.06-.25-3.06-1.27-6.03-2.35-8.89s-2.37-5.74-3.58-8.61-2.36-5.75-3.2-8.74c-.85-2.99-1.28-6.23-1.62-9.41-.38-3.54-.68-7.28-2.27-10.5-.1-.21-.45-.06-.38.16h0zm13.95 47.96c.31.68.76 1.29 1.15 1.92l1.08 1.82c.71 1.29 1.31 2.63 1.83 4.01a33.96 33.96 0 0 1 2.04 8.55l.16 2.44v1.19c0 .4-.11.87.16 1.22.11.15.34.23.48.06.26-.28.25-.58.26-.95v-1.12l-.12-2.31c-.13-1.51-.37-3.01-.71-4.49-.68-2.92-1.8-5.7-3.25-8.32l-1.3-2.15c-.47-.7-.96-1.44-1.61-1.99-.09-.08-.21.02-.16.12zm4.97 22.21c-.16.12-.31.16-.45.3a5.34 5.34 0 0 0-.39.44l-.82.96c-.56.62-1.2 1.18-1.84 1.73l-1.98 1.67-1.02.91c-.33.31-.68.58-.95.93-.1.13.09.27.21.21.4-.2.75-.52 1.1-.79l1.01-.8 2.09-1.76c.64-.55 1.26-1.12 1.82-1.75l.76-.93.38-.54c.11-.18.11-.33.18-.51.02-.06-.06-.11-.1-.08h0zm-22.11-16.29c.41 1.35-.35 2.75-1 3.89-.7 1.23-1.5 2.47-1.66 3.9-.11.95.07 1.9.28 2.82l.68 2.86 1.4 5.91 2.78 11.64c.37 1.54.9 3.25 2.42 4.01 1.34.67 2.81.18 3.51-1.14.91-1.73.17-3.62-.15-5.4-.39-2.15-.23-4.34.28-6.46.07-.32-.39-.45-.49-.14-.57 1.68-.76 3.48-.63 5.25.06.85.21 1.69.4 2.52s.42 1.75.35 2.65c-.1 1.4-1.21 2.8-2.73 2.21-1.64-.64-2.03-2.6-2.38-4.11l-2.65-11.06-1.35-5.6-.66-2.73c-.22-.91-.46-1.84-.44-2.79.07-2.94 3.58-5.29 2.33-8.32-.08-.18-.37-.12-.31.08h0zm6.18 16.08c.31 1.38 1.06 2.73 1.79 3.92.36.6.76 1.18 1.18 1.74.43.56.88 1.14 1.48 1.55.14.1.31-.09.23-.23-.35-.59-.82-1.1-1.24-1.64a22.61 22.61 0 0 1-1.22-1.75 20.22 20.22 0 0 1-1.01-1.81l-.91-1.92c-.09-.18-.35-.05-.31.13h0z"/><path d="M179.39 236.44a8.46 8.46 0 0 0 .26-1.02h-.6c.14.97.18 1.94.12 2.92-.03.48-.09.95-.18 1.42-.08.43-.31.92-.11 1.34.05.11.21.14.31.08.41-.26.46-.9.54-1.33a12.88 12.88 0 0 0 .19-1.52c.06-1.03-.02-2.09-.25-3.09-.09-.39-.68-.23-.6.17.07.36.15.68.27 1.02.01.04.06.04.07 0h0zm-3.97 11.33l-1.36 2.44c-.46.75-.91 1.55-1.01 2.44s.19 1.75.8 2.4a3.02 3.02 0 0 0 1.03.71c.33.14.88.35 1.17.04.06-.07.1-.2.04-.28-.22-.28-.62-.26-.94-.39a2.37 2.37 0 0 1-.96-.72c-.52-.64-.6-1.46-.38-2.23.23-.77.68-1.45 1.09-2.12.41-.68.85-1.37.9-2.18.01-.2-.29-.28-.38-.11h0zm1.54 7.06c.49-.23.68-1.02.88-1.49l.88-1.84 1.91-3.52 2.12-3.32 1.19-1.65c.36-.48.76-.92.91-1.51.18-.72.23-1.48.41-2.21.19-.73.49-1.47.71-2.21.09-.32-.35-.48-.52-.22-.71 1.1-1.02 2.48-1.22 3.75-.05.32-.08.65-.22.95-.12.26-.31.49-.49.71l-1.2 1.65c-1.52 2.17-2.88 4.45-4.04 6.84l-.93 2.05-.41.99c-.12.31-.28.63-.15.96.03.08.09.1.16.07h0zm2.13-1.97c-.03.05-.04.09-.07.15-.03.08.01.16.06.22.24.31.76.5 1.1.22.21-.17.34-.56.46-.8l.53-.98 2.14-3.64 2.29-3.47c.69-1.06 1.34-2.18 1.63-3.42.36-1.51.1-3.1.53-4.6.11-.36-.43-.5-.56-.16-.43 1.17-.37 2.41-.52 3.63s-.67 2.39-1.32 3.47l-2.04 3.11-2.01 3.37-1.03 1.97-.46.94c-.16.31-.43.04-.66-.05-.03-.01-.07 0-.09.04h0z"/><path d="M186.76 241.91c.68.29 1.39-.06 1.83-.6.56-.69.66-1.57.79-2.41l.49-2.95.33-1.52c.12-.5.29-.96.34-1.46.03-.32-.44-.41-.58-.16-.4.7-.53 1.65-.69 2.43l-.42 2.57c-.19 1.33-.18 3.66-1.99 3.77-.16 0-.26.25-.09.33h0zm2.81-3.06c.43.39 1.07.24 1.4-.21.21-.29.28-.66.36-1l.32-1.4.61-2.66.3-1.33c.09-.42.22-.82.13-1.25-.04-.19-.27-.17-.36-.05-.39.5-.44 1.32-.58 1.93l-.48 2.14-.46 2.07c-.07.31-.28 1.8-.9 1.33-.25-.19-.56.23-.33.43zM52.72 147.04c1.04 2.91 2.83 5.56 4.95 7.81 2.11 2.25 4.61 4.16 7.36 5.52 1.39.68 2.83 1.25 4.31 1.67 1.6.46 3.25.7 4.9.92 1.74.24 3.47.51 5.12 1.1 1.49.53 2.72 1.42 3.87 2.48l3.54 3.22c1.14.88 2.6 1.63 4.08 1.49.11-.01.15-.18.03-.2-.67-.14-1.3-.31-1.92-.61-.62-.29-1.16-.68-1.69-1.09-1.08-.85-2.01-1.9-2.98-2.88-.97-.97-2.08-2-3.34-2.71-1.51-.85-3.18-1.25-4.88-1.53l-5.02-.79a24.06 24.06 0 0 1-4.34-1.37c-2.78-1.18-5.38-2.85-7.58-4.91-2.53-2.38-4.44-5.22-5.94-8.33-.13-.27-.58-.08-.48.21h0zm23.89-12.95c.15.43.76.64 1.12.86.48.28.95.58 1.39.92.9.68 1.62 1.52 2.24 2.46.61.94 1.14 1.94 1.69 2.92l.85 1.53c.29.5.63 1.09 1.07 1.48.19.17.45 0 .41-.24-.06-.31-.21-.6-.33-.88-.12-.29-.27-.59-.42-.87l-.9-1.59-1.8-2.99c-.67-.95-1.4-1.73-2.31-2.39-.44-.33-.92-.61-1.4-.89-.39-.22-1-.69-1.45-.57a.23.23 0 0 0-.16.27h0zm5.22 10.34c2.33 1.59 5.31 1.69 7.99 2.21 1.32.25 2.68.61 3.88 1.24 1.25.67 2.21 1.68 3.07 2.79.94 1.2 1.88 2.78 3.34 3.4.28.12.57-.19.34-.44L99 152.08l-1.34-1.7c-.87-1.13-1.79-2.21-3.02-2.96-2.41-1.46-5.32-1.57-8.02-2.02-1.57-.26-3.12-.65-4.58-1.33-.24-.12-.44.21-.21.37zm9 10.93c-.21.74-.7 1.34-1.08 1.99a3.63 3.63 0 0 0-.51 1.78c-.01.63.07 1.25.33 1.85s.66 1.19 1.14 1.69c2.21 2.3 5.63 2.31 8.52 3 .82.19 1.64.45 2.39.84.64.33 1.23.75 1.81 1.18 1.16.85 2.31 1.77 3.71 2.19.65.2 1.4.21 1.84-.39s.54-1.48.66-2.16c.29-1.57.02-3-.96-4.27s-2.35-2.25-3.49-3.4c-.64-.65-1.23-1.33-1.8-2.03l-1.68-2.1c-.13-.15-.43.01-.35.21 1.08 2.65 3.36 4.57 5.41 6.46.93.86 1.87 1.84 2.12 3.13.16.84 0 1.7-.21 2.52-.07.31-.14.65-.26.95-.15.37-.43.41-.8.33-1.29-.27-2.41-1.18-3.44-1.95-1.13-.84-2.28-1.58-3.62-2.02-2.77-.9-5.89-.74-8.45-2.26-1.25-.74-2.16-1.99-2.39-3.43-.13-.77.16-1.53.56-2.18.37-.6.8-1.16.8-1.89 0-.13-.19-.15-.22-.03h-.03z"/><path d="M100.01 154.33c-.09-.07-.14-.18-.23-.26-.11-.1-.26-.18-.38-.26a6.3 6.3 0 0 0-.72-.4c-.52-.24-1.07-.43-1.64-.56a9.58 9.58 0 0 0-1.67-.23c-.47-.02-1.22-.11-1.58.25-.09.09-.06.23.04.29.22.14.46.12.71.11h.83c.52.02 1.04.07 1.55.19.51.11 1 .25 1.49.43l.76.29c.15.06.28.14.43.18.1.03.21.03.31.08.07.04.17-.06.09-.12h0zm2.91 1.6c.49.34 1.13.41 1.67.68.58.3 1.11.69 1.61 1.12 1.03.88 1.98 1.91 2.88 2.91.48.54.94 1.1 1.34 1.7s.7 1.22 1.05 1.83c.69 1.23 1.6 2.21 2.64 3.16l1.87 1.7.97.88c.34.31.67.53 1.06.78.26.16.47-.19.3-.39-.26-.31-.46-.59-.78-.86l-.93-.82-1.79-1.58-1.56-1.46c-.49-.52-.91-1.15-1.27-1.8-.71-1.26-1.44-2.44-2.43-3.52-.99-1.07-1.97-1.97-3.03-2.86-.53-.44-1.09-.85-1.7-1.15-.54-.27-1.27-.62-1.87-.37-.02 0-.02.03 0 .04h-.01zM91.5 168.18c.19.68.7 1.32 1.07 1.91l1.19 1.9 2.36 3.68c1.45 1.99 3.45 3.44 5.79 4.21.65.21 1.31.36 1.99.46.63.09 1.36.19 1.95-.13.14-.07.15-.31 0-.38-.5-.23-1.06-.23-1.59-.29-.58-.06-1.15-.18-1.71-.33-1.1-.3-2.15-.78-3.11-1.4-2.23-1.45-3.58-3.68-5.02-5.85l-1.32-2-.65-.96c-.22-.31-.44-.69-.74-.94-.09-.08-.23 0-.2.12h-.01zm25.63 3.09c-.26.1-.46.3-.65.49l-.71.67c-.49.45-1.02.85-1.59 1.22-.56.36-1.09.65-1.67.91l-1.85.75c-.25.11-.05.43.17.4.67-.09 1.3-.37 1.91-.66s1.19-.61 1.74-.99a15.41 15.41 0 0 0 1.55-1.22l.72-.73c.19-.22.4-.46.46-.75 0-.04-.03-.1-.08-.08h0zm3.8-39.21s.04-.06 0-.06-.04.06 0 .06zm-15.37 48.8c.69.36 1.52.45 2.26.69l2.44.88c1.64.56 3.35.76 5.09.68s3.55-.41 5.3-.77l2.44-.58c.79-.26 1.4-.65 2.02-1.15l2.22-1.79 2.58-1.64c.39-.23.04-.85-.36-.61-1.45.87-2.9 1.76-4.19 2.87-.61.53-1.2 1.07-1.94 1.42-.73.35-1.55.5-2.34.66-3.38.71-6.94 1.4-10.33.38-.9-.27-1.76-.61-2.65-.91-.77-.25-1.74-.59-2.54-.29-.07.02-.1.13-.03.17h.02z"/><path d="M129.61 176.07c.09-.57-.69-1.07-1.11-1.35-.58-.38-1.22-.64-1.9-.77-1.47-.28-2.85.08-4.09.88-1.33.85-2.53 2.03-4.19 2.08-.92.03-1.91-.11-2.8-.34-.76-.2-1.4-.6-1.99-1.13l-1.74-1.7c-.49-.44-1.26-1.15-1.96-1.07-.17.02-.27.21-.14.35.22.25.51.38.79.56.29.19.56.42.81.66l1.54 1.52c.5.47 1.03.91 1.66 1.2.78.36 1.62.48 2.46.59s1.76.16 2.6-.11c.71-.23 1.36-.63 1.97-1.05 1.22-.85 2.38-1.81 3.93-1.87.8-.03 1.58.14 2.31.46.38.17.73.4 1.06.66.26.21.46.46.8.48.01 0 .03-.01.03-.03h-.01zm-13.79-1.74c.8.63 1.83 1.09 2.84 1.21.91.1 1.76-.16 2.52-.65s1.35-1.07 2.07-1.55c.34-.23.69-.42 1.09-.54.5-.15 1.03-.18 1.52-.37.87-.34 1.36-1.11 1.92-1.81s1.21-1.24 1.99-1.63c1.5-.75 3.52-.9 5.03-.08.22.12.45.27.51.53.07.31-.15.65-.32.88-.38.54-.85 1.05-1.27 1.57-.83 1.03-1.75 2.04-2.43 3.18-.16.27.2.53.42.33.95-.88 1.72-1.96 2.53-2.97l1.08-1.34c.32-.41.65-.85.7-1.39.1-1.01-.88-1.47-1.69-1.73-.88-.28-1.82-.36-2.73-.24-1.79.22-3.38 1.13-4.46 2.56-.29.39-.56.8-.93 1.13-.45.4-.98.51-1.55.63-.9.19-1.62.61-2.34 1.17-.78.6-1.54 1.34-2.51 1.61-1.37.38-2.59-.4-3.87-.78-.14-.04-.28.16-.15.26h0zm14.31-7.52c.18-.23.39-.36.62-.53.17-.12.32-.29.48-.42.34-.28.72-.51 1.12-.68.83-.37 1.79-.51 2.69-.4.44.06.88.18 1.28.37.33.16.8.34.65.77-.24.72-1.17 1.45-.73 2.28.13.25.52.18.6-.07.1-.36.19-.65.38-.97s.42-.65.53-1.01c.28-.9-.47-1.42-1.2-1.74-1.54-.66-3.35-.51-4.81.29a5.22 5.22 0 0 0-1.09.79c-.37.35-.5.78-.71 1.23-.06.13.11.23.19.11h0zm-11.2 4.04c.68.21 1.55 0 2.21-.19.74-.21 1.47-.5 2.16-.85 1.37-.72 2.57-1.77 3.5-3.01 1.07-1.42 1.58-3.1 2.26-4.72s1.59-3.09 3.23-3.73c.39-.15.8-.24 1.22-.23.38.01 1.11.07 1.11.56 0 .53-.18 1.11-.27 1.64l-.25 1.74c-.03.43.63.5.73.1.27-1.05.41-2.16.56-3.23.13-.98-.56-1.42-1.45-1.56-1.65-.25-3.26.75-4.26 2-1.2 1.5-1.66 3.4-2.45 5.12-.73 1.58-1.82 2.96-3.25 3.97-.77.55-1.6 1-2.49 1.33-.42.16-.85.28-1.28.39s-.92.15-1.33.35c-.14.07-.09.28.04.33h0zm-48.72-7.42l-.65 4.4c-.31 1.45-.76 2.88-1.22 4.31l-2.66 8.54c-.71 2.9-.96 5.77-.93 8.73l.26 8.9c-.01 1.62-.1 3.23-.33 4.83l-.44 2.36-.63 2.4c-.06.16.18.25.26.11.73-1.25 1.3-2.53 1.63-3.96.33-1.42.49-2.87.55-4.32.13-2.98-.1-5.97-.19-8.95s0-5.96.61-8.89 1.6-5.79 2.44-8.67l1.21-4.82c.34-1.62.62-3.31.53-4.98-.01-.29-.41-.28-.44 0h0zm40.83 20c-.28.43-.38.96-.49 1.47l-.35 1.64-.63 3.14-1 6.47c-.54 4.31-.88 8.66-.81 12.99.04 2.45.15 4.9.74 7.28.07.28.5.22.51-.07.02-2.18-.14-4.35-.18-6.52-.04-2.18-.01-4.26.09-6.39.21-4.34.79-8.63 1.38-12.93l.53-3.64.29-1.82c.08-.53.19-1.08.09-1.6-.01-.08-.13-.08-.16-.02h-.01zm-9.08-16.5s.04-.06 0-.06-.04.06 0 .06zm-37.21 41.41c2.34 1.45 4.87 2.6 7.4 3.7s5.09 1.99 7.7 2.75a74.39 74.39 0 0 0 16.23 2.83c3.1.19 6.24.24 9.33-.05.62-.06.64-1.01 0-.98l-8.15.04s-5.42-.39-8.1-.8c-5.37-.84-10.65-2.21-15.74-4.12-1.45-.55-2.9-1.1-4.3-1.74L64.95 208c-.23-.11-.42.21-.2.34h0zm70.4-35.36c-.33.48-.21 1-.16 1.55l.19 1.93.48 3.7 1.25 7.38c.93 4.85 2.06 9.67 3.44 14.42.39 1.34.81 2.68 1.27 4s.85 2.63 1.47 3.84c.1.2.37.05.34-.15-.2-1.23-.61-2.43-.92-3.62l-.97-3.62c-.65-2.36-1.27-4.73-1.84-7.1a181.24 181.24 0 0 1-2.87-14.39l-.63-4.14-.31-2.07c-.09-.62-.07-1.3-.55-1.76-.06-.06-.14-.04-.19.02zm18.95 22.25v-.03c-.11-.21-.38-.22-.55-.14-.55.23-.65.98-.82 1.49a18.22 18.22 0 0 1-.74 1.9 21.96 21.96 0 0 1-2.02 3.52c-.78 1.1-1.69 2.12-2.68 3.05-.57.54-2.42 1.88-1.64 2.83.07.08.21.07.28 0 .19-.19.27-.46.43-.68.19-.25.43-.46.67-.65l1.51-1.32c.95-.93 1.79-1.98 2.54-3.09a19.84 19.84 0 0 0 1.88-3.52c.26-.63.49-1.26.68-1.91.08-.28.11-.63.27-.88.13-.19.31-.29.19-.56h0zm-43.68 5.54l-.08-.09-.08-.08-.02-.02c-.01-.01-.03-.02-.05-.01-.01 0-.02.01-.03.02 0 .02 0 .04.02.06l.08.08s.03.03.05.04l.05.04s.04.02.06 0 .01-.04 0-.06h0z"/><path d="M110.43 200.64l.19-.19s.02-.04 0-.06-.04-.02-.06 0l-.19.2s-.02.04 0 .06.04.02.06 0z"/><path d="M110.39 200.61s.04-.01.06-.03.03-.04.03-.06a.21.21 0 0 0-.04-.11c-.01-.02-.03-.03-.05-.04l.02.05v-.04s-.02-.04-.04-.04h-.08s-.03.01-.05.02c-.01.01-.03.03-.03.04 0 .02 0 .04.02.06h.04-.01.03c.01 0 .02-.01.02-.02h-.01 0v.01h.01-.02.01-.02.02-.02 0 .07s.01 0 .02-.01h-.06l.01.01a.4.4 0 0 0 .04.03h0s.02.01.02.03h0v.01h0 0-.01.01-.02s-.04.03-.03.05c0 .01.01.02.02.03h.03l.02.02z"/><path d="M109.59 200.96c.9-.18 1.7-.09 2.6.05l2.87.3c1.92.12 3.86.04 5.77-.19a36.85 36.85 0 0 0 11.03-3.13l2.85-1.49 1.33-.85s.97-.6 1.21-1.08c.09-.18-.02-.49-.26-.46-.48.06-.81.31-1.22.56l-1.24.73-2.54 1.37a34.43 34.43 0 0 1-5.38 2.09c-3.71 1.1-7.55 1.55-11.41 1.47-1.09-.02-2.18-.11-3.27-.23-.81-.09-2.03-.22-2.49.65-.06.11.04.23.16.21h0zm.8 3.64h-.58s-.05.07 0 .07h.58s.04-.07 0-.07z"/><path d="M109.89 204.55l-.04-.16c.07.01.14.04.21.07l.31.1.73.2 1.8.35c1.1.18 2.2.3 3.31.33 2.18.06 4.38-.21 6.53-.61a48.01 48.01 0 0 0 11.63-3.74c2.05-.96 4.15-2.04 5.98-3.4.47-.35.06-1.11-.47-.8l-2.96 1.76-3.07 1.57c-2.04.95-4.15 1.75-6.31 2.41a49.97 49.97 0 0 1-6.72 1.51c-2.49.39-5 .5-7.51.19a53.67 53.67 0 0 1-2.16-.33c-.44-.07-1.08-.27-1.47.05-.51.42.23.83.3.52.01-.06-.07-.08-.09-.02h0zm4.57-110.72l-.09-.08.09.22c.02-.14-.08-.26-.19-.34l.09.16c-.05-.13-.09-.23-.21-.31-.03-.03-.07-.04-.11-.06l-.26-.13-.61-.27a5.61 5.61 0 0 0-1.14-.29c-.23-.04-.5.06-.55.31-.05.21.06.51.31.55.38.06.74.14 1.1.27l.25.09.15.06c.09.04-.04-.02.05.02l.26.13.11.06c.14.06.24.06.38.03h-.2c.12.05.28.08.39-.01h-.31l.11.05a.31.31 0 0 0 .38-.08c.08-.11.09-.29-.02-.38h0zm-.34 3.17s-.06-.06-.08-.09l.11.18c-.05-.13-.11-.2-.22-.28-.03-.03-.07-.05-.11-.08-.1-.06-.21-.11-.32-.14-.19-.06-.4-.09-.61-.09s-.41.03-.59.1c-.14.05-.25.14-.35.24a.67.67 0 0 0-.11.18c.01-.03.04-.07 0-.02s-.06.11-.08.16c-.04.17.09.39.28.37.06 0 .11-.01.16-.03.03 0 .06-.04-.01 0 .03-.01.09 0 .12-.01.02 0 .03 0 .05-.01.08-.02-.07 0-.02 0 .07 0 .14-.01.2-.03a.9.9 0 0 1 .22-.06h.05c.08-.01-.08 0-.03 0h.11.16s.08.01 0 0c-.07-.01 0 0 .02 0a.09.09 0 0 1 .05.01c.04 0 .07.02.11.03s.08.03.11.04c.02 0 .04.02.06.02.05.02-.08-.04-.03-.01.12.07.24.12.38.14l-.21-.06.11.06c.16.11.38.04.49-.1.12-.16.09-.36-.03-.51h.01zm7.67-3.34l1.04-.29 1-.33.99-.34.51-.18c.06-.02.16-.04.22-.08.08-.02.06-.03-.05-.01.13.02.15.02.06 0l-.17-.1h.01l-.09-.14v-.08.08a.21.21 0 0 0 .04.11c.06.1.17.15.28.16.31 0 .48-.31.39-.58-.22-.6-1.04-.14-1.43 0l-1.46.53-.76.29-.75.33c-.37.14-.22.73.16.6h0zm3.82 2.26l.09-.02-.24-.03c.13.06.22.06.37.04.06 0 .12-.02.18-.03.03 0 .06-.01.09-.02h.06s.04-.02 0-.01c-.09.01.12-.02.14-.03l.09-.03.38-.09c.06-.02.12-.03.18-.06a.46.46 0 0 0 .18-.1l-.03.03s.07-.04.09-.08l.03-.04c.16-.19.09-.45-.14-.54.12.04-.1-.03-.12-.04-.07 0-.06 0 0 0-.07-.02-.14-.02-.21 0-.06.01-.12.03-.18.04l-.38.11-.09.03-.15.06c.09-.02-.01 0-.03.01-.03.01-.07.03-.1.03-.18.06-.36.12-.46.28l.19-.14-.09.03c-.15.05-.27.21-.21.38.06.16.21.24.38.21v.02zM96.64 243.24s.01-.02 0-.02-.01.02 0 .02zm20.67-229.29c-2.83.2-5.58 1.81-7.03 4.27s-1.46 5.85.14 8.28c.8 1.2 2.58 2.88 4.12 1.89.25-.16.14-.52-.14-.53-1.34-.07-2.39-.74-3.13-1.85-.69-1.05-1.06-2.3-1.1-3.55-.09-2.57 1.22-4.91 3.23-6.45 1.15-.88 2.54-1.44 3.95-1.74.17-.04.13-.31-.04-.3h0z"/><path d="M117.16 25.14c-.95.09-1.72.73-2.19 1.55-.56.98-.58 2.21-.28 3.28s.86 1.99 1.73 2.61a3.08 3.08 0 0 0 1.45.56c.43.04 1.18 0 1.41-.45.07-.14.01-.3-.14-.35-.18-.06-.35 0-.54 0h-.61a2.4 2.4 0 0 1-1.15-.45c-.69-.5-1.13-1.32-1.4-2.12-.31-.9-.39-1.89-.03-2.78.32-.78 1-1.36 1.79-1.6.13-.04.11-.26-.03-.24h0zm6.18 2.73c-.44-.36-1.1-.31-1.61-.16-.56.17-1.07.49-1.49.9-.85.83-1.47 2.3-.68 3.37.34.47 1.07.97 1.65.57.12-.09.11-.28-.04-.32-.53-.16-1.02-.33-1.25-.88-.24-.6 0-1.27.33-1.77a3.25 3.25 0 0 1 1.3-1.17 2.47 2.47 0 0 1 .8-.24c.3-.04.59 0 .88-.03.12 0 .22-.17.11-.26z"/><path d="M125.11 25.18c-.43-.16-.73.21-.98.53a3.81 3.81 0 0 0-.68 1.42c-.22.97-.01 1.99.5 2.84 1.15 1.93 3.38 2.62 5.53 2.27 2.14-.35 4.12-1.77 5.43-3.53 1.3-1.75 1.92-4.09 1.68-6.33a9.78 9.78 0 0 0-1.16-3.68c-.31-.57-.68-1.11-1.02-1.67-.36-.59-.65-1.21-.96-1.82-.14-.29-.53-.07-.48.21.16 1 .83 1.93 1.34 2.78.54.9 1 1.82 1.25 2.84.49 1.97.19 4.1-.74 5.9-.86 1.65-2.19 3.01-3.88 3.81s-3.94.96-5.49-.35c-.74-.63-1.28-1.53-1.3-2.52-.01-.53.12-1.06.38-1.52.22-.39.65-.66.62-1.13 0-.02-.01-.03-.03-.04h0z"/><path d="M133.97 32.04c-.2-.7-.97-1.02-1.64-1.08-.79-.07-1.56.29-2.06.9-1.17 1.4-1.29 3.76-.13 5.2s3.3 1.47 4.99 1.18c1.94-.33 3.73-1.2 4.54-3.08.43-.98.58-2.04.68-3.1l.16-1.86c.06-.68.14-1.4.09-2.09-.03-.28-.41-.36-.51-.07-.29.93-.36 1.97-.49 2.94l-.38 2.41c-.16.74-.4 1.48-.84 2.11-.47.67-1.18 1.12-1.94 1.4-1.34.49-3.05.76-4.44.31-1.57-.51-2.09-2.25-1.77-3.75.17-.81.67-1.64 1.5-1.89.83-.24 1.45.03 2.01.6.09.1.27 0 .23-.14h0zm4.97-9.77c1.54.56 2.89 1.53 3.85 2.87.88 1.23 1.44 2.69 1.52 4.21.09 1.64-.33 3.29-1.18 4.68s-2.12 2.33-2.88 3.73c-.41.76-.71 1.77-.24 2.58.36.62 1.2.98 1.84.55.28-.19.12-.69-.24-.57a.81.81 0 0 1-.81-.2c-.31-.32-.28-.82-.16-1.22.23-.78.76-1.41 1.3-1.99l1.57-1.77c.48-.63.86-1.34 1.15-2.09 1.15-2.93.58-6.3-1.39-8.73a8.41 8.41 0 0 0-1.8-1.67c-.68-.46-1.66-1.05-2.54-.8-.21.06-.19.34 0 .41h0zm2.73 16.58c1.5.73 1.87 2.61 1.11 4.02-.34.63-.88 1.17-1.57 1.41-.68.24-1.42.18-2.1-.06a3.05 3.05 0 0 1-1.73-1.54c-.27-.56-1.1-.07-.83.49.82 1.67 2.92 2.54 4.69 1.97s2.8-2.53 2.51-4.33c-.16-1-.86-2.15-1.92-2.34-.22-.04-.39.28-.16.38z"/><path d="M136.57 41.44c.61 2.58 2.02 5.81.27 8.27-.65.91-1.65 1.55-2.71 1.9-.54.18-1.1.29-1.67.33-.25.01-.51.02-.74-.11-.19-.1-.21-.23-.31-.42-.08-.16-.3-.21-.45-.12-.48.28-.33.88.03 1.18.4.34.95.43 1.47.4 1.13-.06 2.26-.38 3.24-.95s1.76-1.34 2.25-2.31c.63-1.25.64-2.66.46-4.02a11.63 11.63 0 0 0-.51-2.25c-.12-.36-.26-.72-.43-1.07-.18-.38-.38-.65-.65-.97-.11-.13-.29.01-.26.15h0z"/><path d="M132.91 52.84c-.14.14-.16.24-.14.43a1.08 1.08 0 0 1-.02.31c-.06.22-.16.41-.29.59-.29.41-.68.76-1.08 1.06-.36.26-.83.6-1.29.52-.17-.03-.33-.11-.46-.23-.06-.06-.13-.11-.18-.18-.09-.13-.14-.22-.3-.28l.18.13-.06-.12c-.08-.16-.3-.14-.39 0a.35.35 0 0 0-.06.14c0-.01.08-.13.01-.03a.3.3 0 0 0-.06.11c-.04.13-.01.29.03.42.09.27.26.46.49.62.46.31 1.07.33 1.58.13s1-.56 1.41-.94.76-.8.97-1.3a1.87 1.87 0 0 0 .15-.84c-.01-.16-.03-.33-.12-.45-.06-.08-.29-.19-.38-.1h-.02z"/><path d="M129.96 53.96c.14.35.28.71.3 1.1.02.38-.04.79-.18 1.16-.12.34-.34.67-.6.93-.14.14-.29.24-.44.36-.16.13-.34.22-.45.41-.04.08-.02.21.06.25.47.21.98-.18 1.31-.5.35-.34.6-.76.77-1.22.31-.86.29-2.03-.38-2.72-.15-.16-.48 0-.39.23h0zm4.3-16.06c-.9.12-1.43 1.05-1.57 1.89a3.48 3.48 0 0 0 .04 1.4c.14.53.58 1 .65 1.55l.34-.44c-1.3.48-2.29 1.63-2.48 3.01a3.76 3.76 0 0 0 .31 2.04c.14.31.31.63.55.88.27.27.55.37.9.48.18.06.36-.17.26-.33-.14-.21-.24-.45-.38-.66-.15-.23-.31-.44-.42-.68-.23-.48-.33-1.02-.26-1.54.11-1.02.84-1.93 1.78-2.31.25-.1.36-.29.32-.56-.07-.49-.36-.87-.58-1.3a2.25 2.25 0 0 1-.23-1.2c.03-.39.16-.79.35-1.13.1-.18.26-.33.33-.53.06-.16.11-.23.23-.37.05-.07-.02-.19-.11-.18h-.01zm2.93-25.74c.45.31 1 .47 1.48.73a7.84 7.84 0 0 1 1.26.87c.83.71 1.53 1.57 2.02 2.56.54 1.08.82 2.29.99 3.49l.19 1.84c.05.47.03 1.3.39 1.65.08.08.22.09.29 0 .2-.22.2-.54.23-.83.03-.31.03-.64.02-.95a17.56 17.56 0 0 0-.18-2.04c-.18-1.32-.51-2.6-1.13-3.79-.54-1.04-1.3-1.97-2.22-2.7-.46-.37-.96-.71-1.49-.98s-1.08-.56-1.67-.55c-.4 0-.48.5-.19.7h0z"/><path d="M130.14 6.99c.49.13 1.01-.12 1.52-.16a5.5 5.5 0 0 1 1.67.13c1.12.27 2.14.9 2.82 1.83.73 1 1.05 2.21 1.2 3.42.08.63.11 1.25.12 1.88s-.04 1.33.05 1.98.41 1.21.96 1.59c.5.34 1.17.49 1.58.95.1.11.33 0 .27-.16a3.13 3.13 0 0 0-.35-.65c-.15-.21-.4-.38-.58-.56-.48-.46-.87-.78-.91-1.49-.07-1.37-.02-2.73-.26-4.09-.22-1.27-.69-2.53-1.53-3.52-.77-.92-1.87-1.52-3.03-1.79a5.67 5.67 0 0 0-1.97-.12c-.55.07-1.32.14-1.61.67-.02.04 0 .09.04.11h0z"/><path d="M133.28 6.21c-.05-.42-.43-.77-.73-1.06-.33-.32-.68-.61-1.05-.88a10.27 10.27 0 0 0-2.43-1.28c-1.75-.65-3.67-.82-5.51-.52-.51.08-1.02.2-1.49.41s-.82.46-1.18.79c-.17.16.01.39.21.36l1.5-.31 1.59-.34a9.79 9.79 0 0 1 3.15.12c1.03.21 2.04.57 2.97 1.09.48.27.93.58 1.35.92l.58.5c.21.19.38.42.66.5.18.05.41-.09.39-.29h0z"/><path d="M123.49 2.56c-.24-.53-.85-1-1.34-1.3-.53-.33-1.15-.55-1.76-.7-1.29-.32-2.65-.37-3.96-.23-2.54.28-5.11 1.1-7.13 2.71-1.08.87-2.09 1.99-2.41 3.36-.04.18.21.37.34.2.72-.89 1.41-1.81 2.29-2.54s1.91-1.32 2.96-1.76c2.15-.9 4.69-1.36 7.01-1 .65.1 1.29.28 1.89.54l.92.46c.3.17.55.4.85.56.21.11.41-.11.31-.31z"/><path d="M111.35 7.7c-.28-.32-.7-.49-1.1-.65a6.07 6.07 0 0 0-1.39-.37c-.89-.14-1.79-.12-2.68.03-1.81.29-3.47 1.14-4.83 2.35-1.37 1.21-2.44 2.77-3.22 4.43-.71 1.52-1.04 3.2-1.82 4.69-.38.73-.89 1.41-1.66 1.75-.34.14-.71.18-1.07.09-.29-.08-.66-.32-.71-.63s-.45-.18-.48.06c-.04.33-.03.64.19.9.24.28.6.46.96.56.76.19 1.56-.07 2.18-.53 1.31-.96 1.85-2.62 2.34-4.09 1.16-3.51 3.18-7.03 6.84-8.36 1-.36 2.06-.55 3.11-.51.54.02 1.07.08 1.59.21s1 .38 1.52.46c.22.03.37-.19.22-.37h-.01zm-16.32 9.98c-.71-.62-1.8-.85-2.71-.9-.92-.05-1.89.14-2.7.61-1.5.89-2.49 2.63-1.96 4.37s2.3 2.93 4.07 3.3c1.03.21 2.07.23 3.12.18 1.05-.06 2.13-.2 3.14-.55s1.97-.92 2.7-1.72c.34-.38.64-.8.86-1.26s.43-.93.18-1.42c-.11-.21-.38-.2-.53-.07-.3.26-.34.58-.5.93-.16.34-.36.68-.61.97-.51.6-1.14 1.05-1.85 1.39-1.58.73-3.46.84-5.17.75-1.6-.09-3.32-.6-4.23-2.02-.82-1.28-.55-2.89.56-3.91.7-.65 1.65-.96 2.58-.98.51-.01 1.02.05 1.5.17.49.12.92.31 1.4.42.13.03.26-.14.14-.24h0z"/><path d="M105.65 13.15c-.37-.1-.68.09-1 .28-.36.22-.71.46-1.03.75-.62.55-1.15 1.2-1.57 1.91-.88 1.47-1.42 3.15-1.26 4.87.09 1 .4 1.94.75 2.88.35.93.76 1.97.8 3.03.03.97-.25 1.85-1 2.49-.68.58-1.54.93-2.26 1.47-1.63 1.23-2.84 3.42-2.38 5.49.06.24.46.26.51 0 .28-1.77.88-3.52 2.38-4.63.73-.54 1.59-.89 2.31-1.45s1.21-1.3 1.39-2.19c.41-2.07-.67-3.9-1.26-5.82-.5-1.61-.41-3.33.16-4.91.31-.87.85-1.67 1.47-2.34.33-.35.69-.68 1.08-.97.33-.25.75-.42.93-.81 0-.01 0-.04-.02-.04h0z"/><path d="M101.31 21.06c.12 1.72 1.24 3.29 2.6 4.31.69.51 1.49.91 2.31 1.15a5.99 5.99 0 0 0 1.33.24c.48.04.88 0 1.34-.12s.35-.78-.11-.79c-.76-.02-1.52-.05-2.26-.24s-1.44-.52-2.08-.95c-1.33-.9-2.21-2.16-2.78-3.65-.06-.17-.36-.17-.35.04h-.01zm17.65-14.73c-1.03-.38-1.79.75-2.04 1.61-.35 1.15-.15 2.44.32 3.52 1.13 2.61 3.97 3.48 6.57 3.78 1.4.16 2.86.09 4.14-.59 1.09-.58 1.96-1.59 2.14-2.83.41-2.71-1.99-4.83-4.57-4.83-1.33 0-2.98.77-2.81 2.35.16 1.49 1.83 1.56 2.95 1.88.33.09.6-.34.34-.58-.33-.29-.68-.43-1.09-.56-.36-.11-.86-.19-1.1-.52s-.09-.79.16-1.07c.36-.39.95-.5 1.45-.51 1.97-.06 3.9 1.39 3.78 3.48-.14 2.36-2.84 3.09-4.78 2.99-2.08-.11-4.53-.61-5.92-2.29-.73-.88-1.13-2.02-1.15-3.17-.01-1 .39-2.39 1.6-2.44.12 0 .13-.16.03-.19h-.03zM90.5 23.97a3.79 3.79 0 0 0-2.25 1.96c-.53 1.06-.58 2.27-.33 3.42.24 1.08.78 2.18 1.65 2.89.42.34.92.6 1.45.67.51.06 1.13-.06 1.49-.45.15-.16.05-.44-.19-.44-.43 0-.81.01-1.23-.1a2.37 2.37 0 0 1-1.1-.62c-.62-.62-.99-1.5-1.18-2.34-.39-1.69.23-3.67 1.92-4.41.33-.14.09-.68-.24-.57h0zm4.15.62c-1.12.6-1.64 1.99-1.47 3.2.18 1.22 1.08 2.36 2.27 2.61.18.04.39-.03.48-.19.04-.08.05-.13.06-.21.01-.14-.09-.31-.21-.37-.83-.42-1.54-1.05-1.7-2.01s.32-1.84.99-2.48c.29-.28-.08-.74-.43-.55h0zm4.4-.97c-.21-.08-.32-.03-.48.09-.12.09-.22.19-.32.3-.19.22-.34.46-.45.73a2.57 2.57 0 0 0-.09 1.77c.18.6.58 1.1 1.1 1.46.24.17.53.31.82.38a1.68 1.68 0 0 0 .45.05.8.8 0 0 0 .48-.17c.19-.13.2-.39 0-.52-.11-.08-.2-.14-.33-.18l-.34-.1a2.39 2.39 0 0 1-.54-.25c-.35-.21-.64-.55-.77-.93s-.12-.81 0-1.22a2.15 2.15 0 0 1 .26-.58c.15-.23.38-.38.36-.67 0-.08-.05-.13-.12-.16h-.01z"/><path d="m88.76,30.3l-.14.09.18-.03c-.42-.11-.69.43-.85.75-.21.41-.36.87-.44,1.33-.16.93-.08,1.87.28,2.75.69,1.65,2.34,2.9,4.14,3,.49.03,1-.04,1.44-.24s.76-.53.98-.99c.15-.31-.23-.63-.5-.38-.58.55-1.59.71-2.35.55-.9-.19-1.69-.7-2.28-1.4s-.91-1.62-.91-2.55c0-.49.09-.97.26-1.43.12-.34.58-.92.35-1.27l.03.18.05-.16c.08-.17-.11-.31-.25-.19Z"/><path d="M88.74 36.73c-.48.45-.76 1.13-.93 1.75a4.79 4.79 0 0 0-.13 1.96c.09.65.26 1.33.76 1.81.23.21.51.39.84.41.33.01.66-.18.73-.51a.31.31 0 0 0-.3-.39c-.36-.03-.6-.13-.8-.46-.23-.38-.29-.88-.31-1.31a4.68 4.68 0 0 1 .16-1.39c.14-.49.39-.9.61-1.35.2-.41-.29-.82-.64-.5h0zm42.58-17.88c.5 1.77 1.03 3.72.64 5.57-.35 1.62-1.67 2.98-3.43 2.77-.33-.04-.35.45-.07.55 1.9.65 3.63-1.03 4.12-2.75.28-.99.25-2.02.1-3.03-.18-1.15-.54-2.21-1.18-3.18-.06-.09-.21-.04-.18.08h0zm-2.35-2.19c-.26.39-.4.81-.73 1.17a3.99 3.99 0 0 1-1.12.79c-1.01.49-2.08.57-3.19.49-2.24-.16-4.6-.79-6.64.5-.84.53-1.61 1.4-1.47 2.45.03.22.29.26.38.05.34-.88.88-1.6 1.72-2.06.98-.55 2.08-.64 3.18-.58 2.19.12 4.59.75 6.57-.53.68-.44 1.6-1.35 1.43-2.26-.01-.06-.09-.06-.12-.02h0zm-9.61 22.72c-.32.29-.63.51-.91.87-.25.31-.49.65-.71.98-.46.73-.86 1.49-1.19 2.29s-.6 1.59-.82 2.41l-.28 1.24-.11.65c-.01.21.08.34.18.53.07.14.29.17.4.05.12-.14.24-.21.29-.39.05-.19.07-.39.11-.59l.25-1.18a16.58 16.58 0 0 1 .75-2.36 22.2 22.2 0 0 1 1.01-2.22l.57-1.06.28-.53c.1-.2.14-.43.25-.63.02-.04-.03-.08-.06-.05h0zm-2.12 11.46c.09.49-.21 1.01-.65 1.24-.51.26-1.15.11-1.64-.12-1.05-.48-1.9-1.3-3.07-1.54-.86-.18-2.39-.06-2.83-1.05-.21-.46-.04-1.03.25-1.42.15-.2.34-.38.53-.53.23-.18.45-.41.69-.56.29-.18.11-.7-.24-.58-.25.09-.51.13-.75.25-.25.13-.49.32-.7.52-.39.38-.68.87-.78 1.4-.21 1.13.41 2.06 1.46 2.46.53.21 1.1.24 1.66.31a4.75 4.75 0 0 1 1.82.59c1.01.58 2.05 1.31 3.28 1.08.93-.18 1.86-1.25 1.26-2.19-.1-.16-.32-.05-.29.13h0zm-6.38 2.81l-.03.09c-.03.03-.07.06-.09.08-.04.04-.05.08-.07.13l-.12.33-.19.61c-.09.37-.12.8.16 1.1.24.26.67.33.93.07.12-.13.19-.3.24-.47l.17-.65.19-.73c.06-.21.16-.51 0-.7-.02-.03-.07-.04-.1-.03-.22.08-.28.38-.34.58l-.18.68-.18.68c-.03.11-.07.31-.19.34-.09.03-.22-.06-.29-.14-.11-.14-.09-.36-.06-.52l.15-.66.07-.37c0-.06.02-.11.01-.18-.02-.04-.04-.09-.05-.13l.02-.09s-.05-.06-.07-.02h.01zm-10.18 1.23c.15.21.35.37.5.57l.53.73c.36.41.88.65 1.39.79.54.15 1.12.19 1.68.14.41-.03.61-.12.98-.04 1.19.27 2.06 1.07 3.06 1.7.51.33 1.07.59 1.65.74.59.15 1.18.21 1.73.46 1.03.46 2.02 2.58 3.33 1.41.28-.25-.01-.81-.39-.66-.56.23-1-.34-1.32-.71-.4-.45-.85-.8-1.42-1.01s-1.12-.28-1.68-.42-1.01-.37-1.49-.66c-.95-.6-1.84-1.35-2.94-1.63-.38-.09-.74-.18-1.12-.11-.47.09-.93.16-1.42.16-.66 0-1.25-.19-1.75-.63-.36-.32-.72-.95-1.27-.93-.05 0-.1.06-.06.11h0zm4.65 4.94c.68.87 1.69 1.49 2.69 1.94.51.23 1.03.41 1.57.54l.82.15.43.04c.16 0 .28-.06.42-.13.21-.09.17-.39 0-.5-.43-.27-1-.25-1.49-.36s-1.01-.27-1.49-.46c-.98-.38-1.82-.98-2.68-1.56-.23-.15-.4.16-.26.34h0zM93.21 39.39c-.35.64-.49 1.43-.66 2.13l-.57 2.29c-.37 1.52-.76 3.11-.79 4.68-.06 3.01 1.59 5.63 2.98 8.18l1.28 2.35c.43.78.78 1.67 1.42 2.29.28.27.7 0 .63-.36-.15-.74-.6-1.38-.95-2.04l-1.1-2.02-2.08-3.87c-.64-1.32-1.12-2.6-1.18-4.01-.08-1.53.28-3.03.53-4.53l.41-2.58c.12-.8.33-1.68.25-2.49 0-.08-.11-.12-.16-.04h0zm27.85 2.43c.23-.07.41-.22.62-.33.24-.12.52-.21.79-.28a7.78 7.78 0 0 1 1.58-.26c1.11-.09 2.16.21 2.97.99.82.78 1.07 1.82 1.66 2.73.53.81 1.54 1.59 2.53 1.16.3-.13.23-.66-.09-.71-.56-.09-.99-.21-1.39-.64s-.63-1-.88-1.52c-.48-.97-1.15-1.79-2.11-2.29-1.02-.54-2.09-.57-3.2-.36-.53.1-1.08.22-1.58.43-.41.16-.94.45-1.11.88-.05.13.09.25.21.21z"/><path d="M126.26 41.04s-.01-.11-.04-.16c-.03-.04-.07-.09-.11-.12-.06-.04-.15-.08-.22-.11-.18-.06-.39-.04-.57.01-.41.12-.7.44-.94.77-.47.65-.9 1.49-.63 2.31.12.36.36.7.7.88.43.23.92.18 1.36-.02.73-.31 1.36-.94 1.61-1.7.13-.39.14-.84.02-1.24s-.45-1.01-.94-.98c-.24.01-.43.23-.36.48.04.17.14.29.26.41.05.06-.03-.04.01.01l.05.08c.02.02.03.05.04.08l.03.06q0 0 0 0c.03.06.04.11.06.18 0 .03.01.06.02.09 0 .02.01.11 0 .04v.18.14s0-.04 0 0c-.08.5-.43.91-.83 1.18-.23.15-.48.3-.73.29-.06 0-.09 0-.16-.03s.04.03-.02 0c-.03-.01-.05-.03-.08-.04-.06-.04.04.04-.01-.01-.02-.03-.05-.05-.07-.08 0 0-.05-.06-.02-.01-.03-.03-.04-.06-.06-.09s-.06-.13-.07-.13c.02.05-.03-.09-.03-.08 0-.03-.02-.06-.03-.09-.02-.1-.03-.23 0-.38.04-.29.16-.56.29-.81.14-.27.3-.58.56-.76a.8.8 0 0 1 .36-.14c.17-.02.32 0 .48-.07h-.09l.04.03c.08.03.14-.07.11-.14zm-12.37-3.72c.13-.29-.02-.64-.1-.93-.11-.38-.25-.74-.44-1.09a5.35 5.35 0 0 0-1.49-1.72c-.68-.51-1.47-.83-2.31-.97-.83-.13-1.63 0-2.45.21-.42.11-.84.22-1.28.2s-.79-.3-1.2-.33c-.27-.01-.51.2-.43.49.11.38.61.56.95.66.87.27 1.71.05 2.56-.16.86-.21 1.65-.19 2.46.06.88.28 1.67.8 2.27 1.49.3.33.53.69.76 1.07.19.31.28.81.57 1.03.04.03.11 0 .12-.03h0z"/><path d="M106.61 33.22c-.03.15-.11.25-.12.41-.03.19 0 .38.02.56.06.38.16.77.31 1.13.31.73.83 1.35 1.45 1.84.69.53 1.53.86 2.38 1.02a9.41 9.41 0 0 0 1.3.15c.44.02 1 .1 1.4-.11.27-.14.29-.61 0-.75-.36-.17-.78-.11-1.17-.12a10.71 10.71 0 0 1-1.15-.09c-.73-.11-1.43-.34-2.06-.75-.55-.36-1.01-.85-1.36-1.41-.18-.28-.35-.56-.47-.87l-.18-.51c-.06-.17-.19-.33-.24-.49-.01-.05-.09-.06-.11 0h0zm4.16.98c.4 0 .4-.62 0-.62s-.4.62 0 .62z"/><path d="M110.81 33.48c-.69-.4-1.57.14-2.01.68-.54.65-.86 1.6-.6 2.44.26.83 1.04 1.39 1.9 1.17.78-.19 1.39-.97 1.73-1.66.21-.43.35-.92.3-1.4-.05-.49-.23-1.03-.68-1.25-.36-.18-.75.19-.56.56.13.26.27.43.31.71v.34c0 .09.01-.06 0 .04 0 .04-.01.08-.02.12-.02.09-.04.18-.08.26-.17.48-.56 1.03-.98 1.29-.39.24-.79.12-1.02-.32-.11-.2-.13-.52-.09-.78.04-.29.14-.57.29-.82s.35-.48.6-.63.5-.18.78-.21c.26-.03.4-.38.14-.53h-.01zm18.1 10.6c-1.05.63-2.22.57-3.35.17-.5-.18-.98-.44-1.4-.75-.43-.31-.79-.8-1.25-1.07-.29-.18-.7.12-.59.46.2.61.8 1.08 1.3 1.45.54.39 1.15.7 1.79.9 1.34.44 2.86.4 3.92-.62.28-.26-.08-.73-.41-.53h-.01zm-11.52 30.01c.4.06.81.03 1.21.02l1.1.02 1.1.08.54.07c.25.04.47.1.7-.05.26-.17.29-.49.09-.71-.18-.21-.41-.21-.66-.24l-.59-.06-1.15-.07c-.38-.01-.76 0-1.15 0-.38 0-.83.02-1.21.14-.35.12-.43.72 0 .79h0zm14.96-24.95c-.64 1.03-1.09 2.19-1.69 3.26l-.92 1.55c-.32.51-.73 1.02-1.1 1.52-1.42 1.97-3 3.84-4.74 5.53a38.88 38.88 0 0 1-5.65 4.58c-2.03 1.34-4.31 2.61-6.64 3.48-1.47.55-2.98.85-4.55.66-1.57-.18-2.91-.76-4.11-1.65-.54-.4-1.05.5-.53.9 2.25 1.67 5.17 2.23 7.89 1.57 1.41-.34 2.75-.95 4.06-1.57a34.52 34.52 0 0 0 3.32-1.83c4.29-2.65 8.2-6.17 11.09-10.33.8-1.15 1.5-2.38 2.19-3.59a35.25 35.25 0 0 0 1.02-1.92c.32-.65.64-1.27.83-1.96.07-.28-.32-.44-.47-.2h0zm-9.89-11.63c.87.14 1.76.12 2.63.24.87.13 1.74.33 2.59.6.7.23 1.38.5 2.01.87.32.19.63.4.92.63s.57.5.9.62c.17.06.4-.1.38-.29-.09-.77-.91-1.38-1.52-1.76-.69-.44-1.46-.76-2.24-1.02-.9-.29-1.83-.49-2.76-.61s-1.98-.23-2.9-.02c-.35.08-.38.67 0 .73h0zm-6.06-4.24c-.38-.76-1.09-1.44-1.7-2.01-.61-.58-1.32-1.13-2.04-1.61-.71-.48-1.53-.92-2.37-1.22-.72-.26-1.85-.58-2.55-.14-.19.12-.21.41 0 .52.33.18.74.21 1.1.29.4.09.8.19 1.18.33.77.28 1.49.7 2.17 1.15a15.66 15.66 0 0 1 1.85 1.43l1.76 1.72c.33.27.79-.06.59-.46h0z"/><path d="m54.32,200.5s24.92,16.97,57.5,15c33-2,50-17,50-17" fill="none" stroke="#fff" stroke-width="12"/></g></svg>