<svg xmlns="http://www.w3.org/2000/svg" width="243" height="805" fill="none" xmlns:v="https://vecta.io/nano"><g clip-path="url(#E)"><path d="M43.099 320.5c.463-.432 1.067-.681 1.7-.7.7-1.7 2.4-3.1 4.2-2.5 1.1-1.2 3.1-.8 4 .4.5-.4 1-.6 1.6-.6.3-.3.3-1 .8-1.1 4.7-6.8 9-14.1 14-20.5.5-1.3 1.2-2.1 2.1-3.3 1.6-.9 1.9-3.4 4-4.1 8-2.3 7.2-3.1 11.5-9.9.5-5.2 3.2-11.4 5.8-15.7.2-.3.3-.5.5-.8 2-2 3.4-5.4 6-6.8.9-1.9 2.8-3.9 4.5-5.2.1-.1.9-1.8.8-.6 1.2-1.4 2.4-1.7 3.8-2.9 1.8-1 3.7-3.9 5.8-2.9 1.6-1.3 4-.4 4.2 1.7a2.41 2.41 0 0 1 1 1c2-.2 3.7 2.5 2.1 4.2.3 0 .5.1.8.1h1.3c1.1-1.4 3.3-1.7 4.7-1.5 2.1-2.1 5.4-1.2 7.6 0 4.2-2.2 13 6.4 6.1 8 .6 1.9.8 4.2.1 6 6.5 2 12.3 12.9 4.8 17.2-3.6 2.8-7.1 5.6-10.5 8.7-.7.8-1.7.5-2.6-.1-2.4-1.1-1.3-3.4-1.1-5.4-.6.2-2.3-.6-2.1-.9-.1 0-.2-.1-.2-.1-.6.6-1.4 1.1-2.1 1-4.9 7.5-15.9 16.5-24.2 19.7-4.2 12.4-15.8 20.6-22.9 31-3 .7-4 4.7-6 6.9-.9-.6-.6-.2-1 .6-1.1 2-2.1 4.7-3.1 6-2.1 2.4-6.1 11.2-9.1 5.4-1.1-.7-1.6-2.2-.9-3.4-.7-.1-1.4-.6-1.8-1.2-.7-.4-1.3-1.1-1.4-1.9-1.2-.3-2.2-1.3-2-2.7-1.2-.3-2.3-1.5-2.1-2.8-1.1-.7-1-2.3-.4-3.5-.2-.2-.4-.4-.5-.6-.9-.2-2.2-.9-2.3-2-.3 0-.5-.1-.8-.2-2.5.5-4.3-2.7-2.2-4.5-1.2-.8-1.3-2.3-.6-3.4-.1-.4-.2-.8-.1-1.2a.78.78 0 0 1-.4-.4c-2.7.7-5.4-2.4-3.4-4.5zm10.8-175.5c.2-.1.6 0 .7.3.1.2.2.5.2.7l.1.1v-.2-.2c-.1-.5.6-.9.9-.4.1.2.2.4.3.7l-.1-5.1c0-.1 0-.2.1-.2-1-.2-2.1.4-2.3 1.4s-.3 2-.3 3c.2-.1.3-.1.4-.1zm81.8 68.1l-.7-2.1c0-1.339-.101-2.676-.3-4-.1-.9-.5-1.6-1.3-1.9-.1-.5-.1-1.1-.2-1.6-.2-1.4-1.8-1.7-2.9-1.2 0-.6-.3-1.2-1-1.6-.1 0-.2-.1-.3-.1-.1-.3-.4-.6-.6-.9-.1-.1-.2-.1-.3-.2-.1-.7-.6-1.4-1.2-1.6s-1.2-.2-1.7.1l-.3-.3c.2-1.1-.7-2-1.7-2.1-.2-.5-.5-.9-.9-1.1-.2-.1-.4-.2-.6-.2-.1-.1-.2-.2-.2-.3-.1-.1-.2-.1-.2-.2.6-.6.8-1.7.3-2.4-2.1-2.7-5-4.5-7.5-6.6l-2.7-2.5v-.4-.6h-.1a.48.48 0 0 1-.196-.029c-.063-.024-.12-.06-.167-.108s-.084-.104-.108-.167a.48.48 0 0 1-.029-.196 1.69 1.69 0 0 1 .3-1c.1-.3 0 0 .3.1.1.1.2 0 .2.1h.4.5c.6-.3.2.1 1.9-.7 1.7-.7 1.6-1.2 2.6-1.9.2-.1.4-.3.5-.4l2.2-3.4.9-1.6.2-.2c.2-.7.5-1.3.8-2 .4-1.1.2-2.1.9-3 .1-.1 0-.1.1-.2 0-.1-.1-.3 0-.4s.4-.1.4-.3c-.5-.2.1-.6.1-.7.1-.4.3-.9.5-1.2.4-1.8.9-3 1.7-4.6l.2-.7c.2-.6.1-.4.2-1 0-.1.4-.8.5-.9 1-4.1 2.4-7.7 2.9-11.9 1.6-6.9 3.7-14.1 2.4-21.2-.2-1.1-2.8-1.5-3.7-1.3-.2 0-.3.1-.4.2-.1-.1-.1-.2-.2-.3 0-.6-.3-1.2-.7-1.5.5-2.1.7-4.3.6-6.5-.1-1.3-1.3-2.1-2.4-2-.7-.5-1.6-.7-2.3-.2l-.4-.4c0-.5-.1-.9-.1-1.4-.1-.5-.2-.9-.5-1.2l-.3-2.4c-.3-1.8-2.6-1.8-3.6-.5h-.5c0-1.472-.1-2.942-.3-4.4-.3-2.1-3.2-2.8-3.9-.5-.1.4-.2.7-.3 1.1-.6.1-1.2.5-1.5 1.2-1-.1-2 .3-2.2 1.4 0 .3-.1.6-.1.8-.2.2-.3.5-.4.9-.1.3-.1.6-.1 1-.8.3-1.3 1-1.4 1.9-.1.8-.2 1.5-.2 2.3h-.4c-.3-.2-.6-.4-1-.5v-.1c-.1-1.5-1.4-2.2-2.6-1.9-.4-.3-.9-.5-1.4-.4-.9-.9-2.9-.6-3.4.9 0 .1-.1.2-.1.3-.7-.7-1.8-.9-2.6-.3-.4-.3-.9-.4-1.4-.3 0-.2-.1-.4-.1-.6-.2-1-1.1-1.5-2-1.4-.5-.8-1.5-1-2.3-.7-.1-1.6-2.1-2.2-3.2-1.4 0-.1-.1-.1-.1-.2-.7-1.5-3.3-1.2-3.7.5l-.7 3.4c-.1.1-.1.2-.2.3-1.1-.2-2.4.5-2.4 1.6-.7.2-1.3.6-1.4 1.4-.1.2-.1.5-.2.7-1.4-.1-2.8.6-3.5 1.7-.2.3-.3.6-.5 1-.8.1-1.5.5-1.8 1.4-.9 2.4-1.4 4.9-1.7 7.4-1-.2-2 .2-2.2 1.4-.2 1-.3 2-.5 3-.4-.2-.8-.3-1.2-.2s-.7.2-1 .5c.3-1.8-2-3.1-3.4-1.8-.3.3-.6.6-.8 1-.7-.6-2-.6-2.8.1-.7.2-1.3.8-1.4 1.4-.5 3.5-.3 7 .1 10.4.2 0 .5.1.6.3.6 2.2 1 4.4 1.3 6.6h.1a.76.76 0 0 1 .4-.2c-.1-2.3-.3-4.6-.5-6.9 0-.6.9-.6 1 0 .1 1.2.3 2.5.5 3.7.1.1.1.1.1.2v.1c0 .2 0 .4.1.7a.55.55 0 0 1 .5.3c.1.3.1.7.2 1v-1.5c0-.6.9-.7 1-.1.1.3.1.6.1.8-.1.1-.2.2-.2.3-.3.4-.3.8-.4 1.3v1.7c.1 1.3.9 1.8 1.4 3.1s1.6 3.2 2.5 4.3l.3.3a.9.9 0 0 0 .1.5c0 .1 0 .2.1.3v.2c.1.6.1 1.1.2 1.7 0 .1 0 .3-.1.3.1.5.3 1 .4 1.4l.3.9c.1.2 0 .3 0 .4v.1c0 .1 0 .1.1.2.2.5.3 1 .5 1.5.1.3.2.6.3.8.2.4-.1.7-.4.8.2.6.4 1.3.6 1.9.1.2 0 .4-.2.5.3 1 .4 2 .5 3.1.1.8.1 1.6 0 2.4.2 0-.5.1-.5.5 0 3.2-.3 6.4-.8 9.6 0 .2-.2.3-.4.4l-.7 7.8c-.1 1.1 1 2 2 2 1.1 0 1.8-.9 2-1.9 1.2 1.6 3 2.4 4.8 3.2-.4 1.5 1.2 2.9 2.9 2.2.8-.3 1.6-.7 2.4-1.1 0 .1 0 .2.1.4 0 .1-.1.1-.1.2-.4 1.1.5 2.3 1.6 2.5.2.3.5.6.8.7-.2.7 0 1.4.5 1.9.4.4.9.7 1.4.8-.3.9.2 1.7 1 2.2-.4 1.2-.3 2.7.7 3.6.9.9 2.1 1.1 3.2.8.1.2.3.5.5.6h-.1c-1.5.8-1.2 2.4-.2 3.2-.6.8-1.2 1.6-1.6 2.6-.8 1.8.8 3.7 2.7 2.7l1.8-.9c1.2 1.5 2.9 2.3 4.7 2.9.4.9 1.4 1.5 2.5 1.2.5.4 1.1.6 1.7.5.5.3 1 .6 1.4.9-.5 1-.9 2.1-.9 3.3-.1 1.7 2.3 2.7 3.4 1.4.5-.5.9-1.1 1.3-1.6.2 0 .3.1.5.1.1.6.2 1.2.4 1.7.6 1.4 2.1 1.9 3.2 1 .7.9 2.1 1.3 3 .3l.1-.1c.2-.1.4-.2.5-.4.8.3 1.8.1 2.4-.5.6 1.3 2.5 1.3 3.4.2.9.1 2-.5 2.2-1.4.1-.3.1-.6.2-.9 1 .1 2-.5 2.2-1.7.9 1.2 3 1.2 3.6-.6l.3-1.2h.1c.4 1.6 2.9 2.4 3.7.6.9-2.1 1.5-4.2 1.7-6.4.6-.2 1.2-.7 1.4-1.4.4-.6.8-1.4.6-2.3zm105.6-108.5c-.2-6.6-1.1-13.5-4.8-19.1-1.7-4-5.2-8.8-9-11-5.6-5.1-11.1-10.9-13.9-18.4-2.8-6.6-5.5-20.5-12.3-22.9-.4-.5-1.1-.4-1.4-.9l-.1.3c-1.2-9.6-3.4-22.1-13.2-26.4-1.1-1.4-3.1-1.2-4.7-1.3-.3-.2-.3-1-.6-.9-.3-.5-.7-.4-1.2-.7-1-.6-1.8-1.6-2.9-2-4.1.5-8.2.2-12.4.4-1 0-2.3.2-3.2.7-.4-.4-1.1-.5-1.5.1-.3.5-.6 0-1 .5-.3-.2-.5.1-.9.3-.5.3-.6 0-1.2.2-.2-.1-.5.3-.7.3-.3.1-.3-.2-.6 0l-.6.4c-.2-.3-.7.4-1.1.6a3.94 3.94 0 0 0-3.028 1.217c-.389.407-.685.893-.87 1.425a3.94 3.94 0 0 0-.202 1.658c-1.7 7.7 1.3 15.2 6.8 20.4-2.2 6.7 3.2 12.7 9.6 14 .1.2.4.4.7.4.5.2.4 1.2 1.1.5.9.8 2 1.3 2.5 2.5.8.9.9 3 2.2 3.1.3.8.6 1.5 1 2.3.2.5 0 1.4.4 1.2.5.6 1 1.1 1.2 1.9 2.6 1.6 3.7 6.2 6.7 7.4.3.3.5.6.8.9.8 2.7 3.3 4.8 4.6 7.3 1.1 3.5 2.2 8.7 3.2 11.2l.2.8c-.1.4.5.3.6.7.1 5.1 1.3 10.5 3.4 15.2-1.6 2.2-5.2 4-5.6 6.9-1.8 1.6-1 4.7 1.6 4.6.2.7.7 1.3 1.4 1.6.4.7 1.1 1.2 1.9 1.2-.3 1-.2 2.1.5 2.8l-.3 1.8c-.5 1.4.6 2.9 2 3.1.7 2.9 4.7 2.3 5.2-.5.4.2 1 .2 1.4.1-.5 1.8-2.2 4.4-.1 5.6-.3 3.5 4.3 3.6 5.3.6.4.5.9.8 1.5 1 .3 2 2.8 2.2 4.1 1.1.1.1.2.1.3.2-1.5 2.5.9 5.1 3.4 3.8a2.58 2.58 0 0 0 1.9 2.5c.4 1.1 1.6 1.9 2.7 1.7 2.7 1.1 4.4-1.3 3-3.6.4-.1 1.9.4 2-.7-.1-.3.1-.7.4-.7 1-1.4 1.8-3.2 3.1-4.2.2-.2.3-.6.6-.8.2-.3.3-.6.5-1 3-3.8 4-9.2 7-13.2.8-1.1 2.4-3 2.5-4.6.1-.9-.3-2.3.1-3.6zm-58.4-75.2c.1-.1.2-.2.2-.3.3.8.5 1.5.8 2.3-.3-.6-.7-1.3-1-2z" fill="#fae6e1"/><path d="M154.001 737.7c-.4.2-.8.4-1.2.7l-.4.4c-.9 1-1.6 2.1-2.7 3 0 0-.1 0-.1.1l-1.4 2.8c-.3.6-1.1.1-.9-.5.5-1.1 1.1-2.2 1.7-3.2-.3.3-.6.6-1 .8-.3.3-1 0-.8-.5.7-2 2.3-3 4.2-3.7l1-.6c.8-.6 1.6-1 2.5-1-.1-.1-.1-.2-.2-.2-.2.2-.5.2-.7 0l-1.3-1h-.1c-.4-.3-.7-.6-1.1-1l-.1-.1-1-.7c-.518-.212-1.054-.379-1.6-.5-.5-.1-.9 0-1.3.2-.3-.2-.7-.2-1-.2-1.1-1-2.5-.4-3 .7-.6-.8-1.7-1-2.6-.6-.7-.7-1.8-.7-2.6-.2-.5-.8-1.5-.9-2.4-.5-.9-2-4.2-.9-3.7 1.4 0 .1.1.3.1.4-.2-.1-.5-.2-.8-.2 0-.4-.1-.8-.1-1.2-.2-2.4-3.8-2.6-4-.3-1.2-.2-2.7.5-2.5 1.9v.1c-.2-.9-.9-1.5-1.9-1.5s-2.1.9-2 2v.1c-.6.1-1.1.3-1.5.8-.189-.182-.438-.289-.7-.3-.4-2-3.1-2.1-3.8-.4-.3-.1-.6-.2-.9-.2-.6-.5-1.4-.7-2.1-.5-.7-1.1-2.4-1.4-3.2-.5-.5 0-1 .1-1.4.4-.7-1.2-2.5-1.2-3.4 0-.3-.5-.9-.9-1.6-.9-1 0-2.1.9-2 2l1.3 9.4c.2 1 1.2 1.5 2.1 1.4v.5c0 1.2 1.1 1.9 2.1 2v.4c-.1 1.2.9 1.9 2 1.9v.1c-.1 1.4 1.2 2.1 2.3 1.9.3.9 1.3 1.4 2.2 1.3v.3c0 2.1 3.2 2.7 3.8.8.4.2.8.3 1.3.2v2.5c0 2.2 2.7 2.5 3.7 1 .246.223.545.381.868.457a1.95 1.95 0 0 0 .981-.02c.32-.09.612-.26.848-.494a1.95 1.95 0 0 0 .503-.843c.3.2.7.3 1.1.3h.1l.2 2.1c.3 2.3 3 2.5 3.8.7.4.1.8 0 1.2-.2l.7 3.7c.4 1.9 3.5 1.9 3.9 0l.3-1.7c.3.5.7.8 1.2.9.1.5.3.9.4 1.4.4 1.4 2.3 2 3.3.9 1.5-1.7 1.7-3.7 1.4-5.8.6-.3 1-.9 1-1.7l-.5-5.3c.9-.3 1.6-1.1 2-2.1.1-.3.2-.6.2-.9.7-.2 1.3-.7 1.5-1.3 1.4.4 3.2-.6 2.5-2.3l-.5-1.3c1.4.8 3.4-.5 2.9-2.3 0-.1-.1-.2-.1-.4 1.2-.2 2.2-1.4 1.4-2.8.1-.2.1-.4.2-.6 1.4.4 2.6-.5 2.7-1.7a3.08 3.08 0 0 0-1.3.3z" fill="#f4efea"/><g fill="#557689"><path d="M214.101 425.7c.7-5.9 0-10.6-2.4-16.1l-.1-2.7c-1.2-4.3-5.2-20.7-11.8-16.9-1.9-.6-4.4 2.1-3 4.3-4-2.1-4.3 2.9-3.9 5.7l-.6-.3c.1-1.6-.3-3.8-2.1-3.9 0-.1-.1-.2-.1-.3.4-1 .1-2-.6-2.7 0-.5-.1-1-.4-1.4 2.4-2.3 5.9-7.2.3-7.4 0-.1-.1-.2-.1-.3 1.9-1.8-.9-5.7-2.7-3.8-2.1 2.8-5.9 4.9-8.3 7.4-7.7 5.9-13.7 12.1-23.7 14.2-1.1-.7-2.5-.8-3.6.1-3 .8-7.1-1.7-10-.7-3.3-1.1-6.7 4.3-3.2 7.4-1.6.9-1.7 3.3-.2 4.2.1.9.8 1.8 1.7 2 .1.1.1.3.2.4-.8.5-1.2 1.5-1.1 2.4-5.9.3-3.4 6.9 1.6 4.8 0 .1.1.2.1.2 0 .8.3 1.6 1 2.1-2.2 1.6-.1 5.1 2.4 4.3-1.2.7-1.3 2-.8 3-1.9.9-1.7 4 .4 4.6-2.9.4-4.6 4-1.7 5.3-.2.6 0 1.5.4 2-.7.4-1.3 1.1-1.4 1.8-.4-1.4-1-3.2-2.6-3.3-3.6-2-4.4 2.6-4 5.3 0 0-.1 0-.1.1-.7-2.5-4.8-5-6.5-2.1-.6-.3-1.3-.3-1.9-.1-.2-.2-.5-.4-.8-.5-1-2.6-2.1-9.6-6.1-6.1.5-6.1-5.8-5.7-5.4.2-1.2-1.8-3.4-1.1-4.7.3-.3-2.5-3.5-3.7-4.9-1.4-.4-.2-.8-.4-1.3-.4-.4-.8-.7-1.7-1.1-2.5-1-2.1-5-1.2-4.7 1.3.2 1.6.5 2.5.8 4.1-.5-.1-1.2-.4-1.6-.3l-1-5.6c-1-3.3-5.4-1.6-5.2 1.5-1 .1-2.2.1-2.7 1.1-.7-.1-1.2-1.2-1.6-.7-.5-2.1-.7-4.5-3.8-4.2-1.6.2-1.6.4-1.4 1.9.8-1.2 1.7 1.6 0 2.2v.2c-1.2 6.4-1.1 13 .2 19.3-2 11.8 6.4 24 11.4 34.5 3 6.3 3 5.7 4.3 7.8 3.3 5.9 7.3 10.2 10.2 16.5 3.9 8 10.2 15.4 15.2 22.9-1.4 2.3 6.2 11.1 7.5 14.5-2.8 1.7-6.1 2.7-8.4 5.2-4.2 4.5-6.9 7.8-7.7 12.6-1.6 2.3-2.9 4.6-3.7 7.2-4 3.6-5.6 9-8.5 13.6-.3.2-.5.9-.8 1.2l-.5.6c-.5.7-.7 1.2-1.2 1.8-3.7 2.8-5.7 8.3-8.2 12.1-4 5-8.5 9.3-12.5 14.9-3.3 4.7-8.4 9.5-5.7 15.2-1.8 3.3-7.4 4.1-7.5 8.2-4.2 2.5 1.5 7 3.8 8.8 4 6.9 15.7 9.8 22.5 13.5 2.6 1.6 5.2-2.4 2.7-4.2v-.1c-.1-.9.4-1.7 1.1-2.3 1.1-.3 2.3-1.2 2.4-2.4l.2-.2c2.6-.8 5.1-.8 7.8-.9 1.6 2 3.9 1.2 4.3-1.5 2-1.4 5-2.5 7.5-4.8 2.2-1.9 4.4-6 1.8-7.9 0-.1-.6-1.7-.6-1.7 3-3.6 4.3-7.6 8.7-9.9.4.4.4 2.2.8 2.6-.2 3.5-2.3 6.9-1.8 10.3-1.8 10.5-2.5 21.3-6 31.5-.4 4.5-6.5 7.7-5.5 12.1-1.8 7.1-12.6 14.4-5.5 21.7-.1 1.1.1 2.2.3 3.3-1.1 2.7-3.5 4.9-4.6 7.6-1.2 1.1-2.7.5-2.8 2.3-6 7.2-.1 17.8 9 15.5.1 0 .2.1.2.1 4.8 2 10.8 2.4 15-1.3 1.4-1.1 3.3-.4 4.6-1.9.5.2.9.5 1.4.4l.4-.2c.3-.1.6.5.9.5 4.1 1.1 8.8.7 12.9-.5 2.7-1.1 7-4.4 3.6-7.4-.2-1.5.1-.7-1-1.6-1.9-4.4-2.4-9.2.6-13.1 3.4-10.3 9.7-18.6 15.5-27.6 9.5-16.4 20.9-31.2 30.3-47.5 2.1-1 3.2-3.7 4-5.8l11.5-22.2c2.9-1.5.9-6-.1-8-1-3.3-.9-7-1.8-10.2 2.1-3.3-.1-7.4-1.2-10.7.3-1.5-.9-3-1.3-4.5-2-6.3-2.4-14.3-6.3-19.7-.1-.2.1-.4 0-.6-2.3-9.3-5.1-18.8-9-27.8.7-1.2.8-2.5 1.5-3.8 1.6-2.4.8-1.3 1-1.9 2.9-8.9 8.7-16.7 10.5-25.7 1-3.3 2.1-6.5 2.7-9.9 4.5-12.2 9.3-25.8 8.2-39.1.9-7 2.5-14.6.4-21.4l-.4-.7z"/><path d="M93.2 661.6c-.1 0-.1 0 0 0-.1 0-.1-.1 0 0z"/></g><path d="M185.401 367.1c-.4-5.7-2.1-11.3-4.1-16.6-.2-7.7-.1-16.8-2.4-24-1.7-9.5.6-20.2-2.4-29.3-1.1-10.2-1.1-21.2-4.3-30.8-.9-3-.6-6.8-2.4-9.3-.6-3.2 0-8.4-3.4-10.1-.7-1.8-1.5-5.2-3.9-4.6-4.7-7.1-3.6-7.8-10.6-3.8-2.7 1.5-10.6-2.6-10.2 2.9.3 1.3 1.8 2.2 3.1 1.7 2.5-.7 5 .7 7.5.3 5.5 1.2 7.8 6.8 7.9 12-.5.6-.9 1.5-.9 2.2-.9.1-1.4-.5-1.8.3-.5-.3-1 .1-1.5-.3-.1-.2-.1-1.1-.3-1.2-.2-.8-2.8-1.3-3.4-1.8-1.6-.2 1 2.6 1.7 2.8-.1.3.1.5.4.6 1 .9 1.2 2.5 1.9 3.6-.2.7-.2 1.6 0 2.2-1.2 2-2.2 3.7-3.2 5.8-2.4-.3-4.1 2.9-2.9 4.6 0 .1-.1.4-.1.5-.9.7-1.5 2.2-1 3.2-2.4 2.4-4.2 2.4-6.3 5.1.7-.6-1.6.9-1.3.7-1.2.9-2.3 1.6-2.2 3.1-1 .9-.7 4 .2 5.2-.7 1.4.2 3.1 1.6 3.6-.5 1.7-.5 3.7 1.4 4.4 1 4.7 3.8 9 4.7 13.6-1-.3-1.9.1-2.5.8-5-2-5.1 4.3-.8 5.5-.4 1.3.3 2.6 1.6 3.1-.4 1.1.1 2.5 1.2 3-1.1.9-1.4 2.8-.3 3.9-.9.9-1.2 2.5-.3 3.4-.1.2-.2.3-.3.5-.4 0-.7.1-1.1.3-1.3-.5-2.8.4-3.2 1.7-.7 3.4 4 3.6 6.2 4.9 0 .1-.1.1-.1.2-2.5-1.7-5.4 1.6-3.6 3.7 0 .8.5 1.5 1.3 1.8-1.7.6-2.5 2.7-1.2 4-.8 1.7.6 3.5 2.6 3.8-.8.8-1.1 2.2-.5 3.1-5.8-2.9-8.5 3.3-2.1 4.9 0 .1.1.3.1.4-4.4-.6-6.4 4.6-1.5 5.8-.1.1-.1.3-.2.4-2.2 0-3.7 3.4-1.5 4.6a2.2 2.2 0 0 0 .2 1.4c-.7 1-.8 2.5.3 3.3-.1.7 0 1.4.5 2-.4.6-.5 1.4-.3 2.2-.5.5-.8 1.2-.7 1.9-.6.6-.9 1.5-.8 2.4-.8.7-1.2 2-.8 3-1.2.9-1.4 2.7-.4 3.7-1.9 2.3.7 4.1 2.7 5-1.4 1.7.3 4.6 2.5 3.9 3.6 1.5 7.3-.3 10.6-1.8 1.3.8 2.5-.1 3.7-.6.9.4 2.1-.1 2.9-1 2.9.8 5.4-2.4 6.9-4.4 1.7-1.2 4.2-2.4 5.1-4.3 4.4-3.6 11.7-6 13.8-11.4.8-1.1.4-3.3-.6-4.2 1.3-2.3 3.1-7.8-1.2-7.5zm-8.6 14.5c.3-.5.6-.9.9-1.4 0 .2.1.4.1.6-.3.3-.6.6-1 .8z" fill="#f4efea"/><path d="M105.4 251.4c4.2-5.4 8.8-10.7 14.8-14.1 5.9-3.3 12.4-5.2 19.1-6.3.5-.1 1.1-.1 1.7-.1.4 0 .8-.4 1.1-.3 2.8-.8 5.8-.2 8.6.1 1 .1 2 .2 2.8.7.3-.2.7-.3 1.1-.4.3-.3.5-.5.9-.6 1.1-.5 2.4-.4 3.2.6.7.9.7 2.3-.1 3.1-.225.618-.647 1.145-1.2 1.5-.5.3-.5.8-1 .8-.2.2-.6.3-.9.4-.2.7-1 .9-1.5 1.1-3.7 1.7-6.8.9-10.7.5-2.8-.2-5.5 1-8 1.9-.1.6-.8.3-1.4.7-.2.1-.4.3-.7.4-.075.151-.177.286-.3.4-.7.8-1.4 1.7-2.1 2.5.4.1.7.3.9.6.3.1.5-.4.7-.2.7-.2 1.2-.3 1.9-.5.2-.7.9-.7 1.9-.8 2.5-.5 5-.5 7.5-.2h1.9c.4 0 .8.1 1.2.3.6 0 1.1 0 1.7.1.6-.4 1.4-.7 2.1-.4.9.3 1.7.7 2.5 1.1h.1c2.1.2 4.3 1.2 5.2 3.2a1.94 1.94 0 0 1 .3 1c.485.964.887 1.967 1.2 3 .2.5.4 1 .4 1.5l.3 1.4v.1c0 .1-.5.2-.5.3.8 2.6-2.4 4.7-4 2.7-1.9-.6-3.5-1.8-5.1-2.8-1.1-.6-2.1-1.4-3-2.1-.2-.2-.5-.4-.7-.6 0 0-.2-.2-.3-.2-.1-.1-.2-.1-.3-.2h-1.9c.5.2.9.4 1.4.7 1.2.6 2.3 1.3 3.4 2.1.4 0 .8.2 1.2.4 1.4.7 2.6 2.2 3.5 3.5.4.6.9 1.2 1.2 1.9.3.6 1.1 1.3 1.1 1.8.3 1.3-.4 2.6-.8 3.9a2.73 2.73 0 0 1-1.3 1.5l-.3.6c0 .8-.3 1.4-.8 2-.4.4-.9.7-1.4.9-.2 0-.4.1-.7.1s-.7-.1-1-.2l-.6-.3c-.3-.2-.5-.4-.6-.7-.1-.2-.3-.4-.4-.6-.4-.5-.4-1.4-.3-1.9.1-.2.1-.4.3-.6 0-.1-.1-.3-.1-.4s-.1-.2-.2-.3l-.3-.3c-.2-.2-.4-.3-.6-.6-1 .3-2.1.1-3.1-.1s-1.9-.6-2.8-1c-.1-.1-.2-.1-.2-.1h-.1s-.1 0-.2-.1c-.8.7-1.9.9-2.9.3-1.1-.7-1.7-2.3-.9-3.4.5-.7 1.1-1.2 1.8-1.5-.2-.1-.4-.3-.7-.4-.8-.4-1.2-1.3-1.2-2.1-.8-.8-1.2-2.1-.5-3.1a6.11 6.11 0 0 1 2.4-2.1l-10.7.1c-.4.1-.8.1-1.1.2-.5.1-.9 0-1.3-.1-1.9.8-3.8 1.5-5.8 2.1-.545.186-1.14.155-1.662-.087s-.93-.677-1.138-1.213c-.6 1.3-1.3 2.6-2 3.8-.7 1.1-2.3 1.6-3.4.9-.4-.2-.7-.6-.9-.9-.5-.1-.9-.3-1.2-.6-.4-.4-.6-.7-.6-1.2-.8.5-1.7.6-2.6.1-1.4-.4-2.1-2.1-1.3-3.2z" fill="#fae6e1"/><path d="M99.3 226.4c3.8-2.3 8.301-1.1 12.401-.4.025-.15.094-.29.2-.4 1.6-.3 4.3 1.6 5.7.9.3-.1.6-1 .5-1.3.3-.2.4-.4.3-.8.2-.1.4-.3.6-.5.8-.2.6-1 1.3-1.5 3.9 1.9 4.5 7.7.8 10.2 2.3 4.2-4.3 5.6-6.5 8-2.2 1.4-5.3-1.7-3.8-3.8-1.4-.9-1.4-3-.2-4-1.9-.6-4.7 0-5.7-2.1-.7-.1-1.5-.1-2.1-.5-.1 0-.3.1-.4.1-2.601 2.5-6.3-1.8-3.101-3.9zm26.401-6.1c.9-.3 1.8-.7 2.6-1.2.2.1.5 0 .6-.2.4-.5 1-.9 1.7-1.1 2.8-2.8.4-9 4.4-10.3 1.7-.2 3 1.2 2.9 2.9l.3.3c.9.3 1.6 1.1 1.8 2 .1 0 .1.1.2.1 1.3-.2 2.5.8 2.7 2.1 1 .2 1.8 1.2 1.9 2.2.6.6 1 1.4.9 2.3 2.7-.8 4.3 3.2 1.8 4.5 3.1-.6 10.9.7 6.5 4.9-3 1.1-5.8.8-8.8.9-2.6-.2-5.5 1.3-8 .7-3 1.2-10 .2-6.5-4.2 0-.3.1-.6.2-.8-.3-.4-.5-.8-.5-1.2-.3 0-.6 0-.8-.1-3.7 2.9-8.5-1.2-3.9-3.8z" fill="#f4efea"/><path d="M117.399 184.3c.3-1.1 1.3-1.9 1.4-3 .2-1.8 1.8-3.6 3.4-4 1-.9 1.2-1.8 2.4-2.5 2.7-4.2 8.3-6.2 11.2-10.5 3.4-4 8.6-5.9 11.8-10.1 9.8-9.4 19.2-18.2 27.8-28.8-2.5-1.9-1.2-4.9 1.1-5.9.4-3.6 5.7-6.2 7.7-9.1.9-1.4 2-3.2 3.2-4.3.1-1.2 1-2.8 2.2-2.5 3.2.8 2.9 4.8 4.8 6.2 6.7 4.9 11.7 12.5 19.1 16.9 9.7 7 18 2.8 9.5 17.1.5.7-.3 1.7-.8 2.5-6.1 11.8-2.7 16.3-15.1 7.3-.7 1.5-1.5 2.6-2.9 3.5-.1 1.4-1.2 2.4-2.5 2.6l-.1.2c-.1 2.9-1.4 5.7-1.9 8.6.1 3.8-4.1 6.7-6.7 9.2-1.7 1.4-2.5 5.1-5.1 4.9-.8 1.5-2.6 2.4-3.7 3.7-3.2 2.8-3.7 7.2-5.6 10.7-.5 4.2-2.2 7.1-1.5 11.4 17.1 21.2 21.3 47.1 18.2 73.6-1.4 11.7-4.5 22.4-2.4 34.2 3 5.8 4.7 12.9 8.2 18.6 2.7 3.2 5.3 6.5 6.9 10.5.3.6 1.1.8.8 1.5.3.6.8 1.1 1.1 1.6v.4c2.2 3.6 6 7.3 4.6 11.9-.3 4.4-2.1 10.4-4.7 15.5-3.5 7-5.1 15.5-11.2 20.9-1.3 1.7-2.2 4.6-4.5 5-.6.6-1 1.5-1.8 1.9-.3.5-.6.9-1.2 1.2-1.6 2-5.5 1.1-4.7-1.7.4-1.1.1-2.3.7-3.3 3-14.6-3.7-28.8-5.2-42.8-1.5-6.6-2.1-13.7-3.6-20.3l.4.2c-1.4-10.4-2.3-21.7-2.5-32.3-1.3-6.3-.1-13.6-1.2-20.1-.5-8.7-3.3-16.9-5.5-25.2-1-4.2-4.4-8.5-4.7-12.6 0-.6-.8-1.1-1.1-1.6-.7 0-1.1-.4-1.6-1-.1-.3-.4-.6-.6-.8.1-.3-.3-.5-.4-.7-1.6-2.4-3.6-4.7-5.3-7.1.9-.9 3.4-4 1.2-4.4-.1-.2-.3 0-.6 0-.7-.5-1.6-1-2.5-.7-.8-.1-1.6-.1-2.4.1-1.6-1.3-2.6-3.7-4.3-4.6-1.7-2.3-4.9-4.1-5.1-7.2-5.5-7.1-12.4-12.9-18.7-19.2-2-2.2-5.8-6-5.6-9.1-.4-2.2-1-4.4-.4-6.5zm-43.9 215.8c-.1-7.9-.2-17.2 2.3-24.5 1.5-6.4 2.9-12.9 5.1-19.1.5-2 0-4.4 1.4-6 .5-4.4.9-9-.2-13.4-1.5-1.3-1.5-4 .7-4.8 2.6-2 4-5.5 6.4-7.8 4.1-4.6 8.7-8.3 11.5-13.6.2-1.8 1.1-3.9 2-5.5.2-1.3 1.5-2.3 2.8-2.2 6.5-3.4 11.9-8.1 17.4-12.8.7-.9 1.5-1.7 2.2-2.6.2-.5 1.1-2.2 1.7-2.4 0 0 .7.5.4-.2 1.1.7 1.8-2.6 2.5-3.3.2 0 .5-.2.5-.5.5 0 1 .1 1.5.3 1.4.9 1.8 2.8.6 4.1-.1.2-.5-.1-.5.1.5.6.9 2.1 1.3 2.8.8.5 2.6 0 3.6-.1 1.2-3.3 5.6-.7 4.2 2.5.1.3.4.6.4.9 1.9 1.4 2.4 3.8 1.9 6.1 9.9 23.1 2.5 50.5 1.7 74.8.5 5-1.1 10.3-1.3 15.3-.3 5.9 1.3 11.7-.2 17.6 1 7.9 1.6 15.6 1.4 23.5 1.2 2-.3 4.8.5 7-.1 2.5.7 5.1-.5 7.6 1.2 2.6-.8 6.2-3.6 4.4-.1-.1-.5 0-.6 0-.2.5-.8.2-1.3.5-1.4-.2-1.5-.5-4.3-.5-5.9 0-11.4-2-17.1-3-3.9.6-8.6-.7-11.7-2.7-.3-.1-1.1-.3-1.4-.4-5.2-1-10.8-2.6-15.6-5.3l-2.6-.9c-2.4-1.7-6.2-1.6-8-4-.8-.4-1.7-.6-2.3-1.2-2.9-.3-2.9-3.5-2.6-5.8.2-8.2-1.3-16.8-.2-24.9zm59.2-104.5c0-.3 0-.6-.1-.8-.4 0-.7-.1-1.1-.2-.1 0-.1.1-.2.1.6.1 1.1.5 1.4.9zm-16.8-56.8c-3.2-5.1-5.9-10.3-10.1-14.6-1.6-2.6-5.6-4-7.6-6.5-2-2.9-5.9-4.3-7.5-7.7-2.3-4-3.6-9.5-7.7-12.2-1.1-1.5-3.5-4-5.5-3.9l-1.5-.6c-.5-1.8-2.6-2-3.9-1.1-.1 0-1.3-.5-1.4-.5-.6-1.2-2.3-.9-3.5-.8-1.5-.2-3.1-.5-4.6-.7-11.1-7.2-3.3 8-4.3 13.1.3.1.4.6.1.8-.2.8-1.5 1-2.2 1.4-.1.1-.3.1-.5 0-.2.1.1.5 0 .3-1.7.8-4.5 1.1-5.5 2.7-2 .9-3.9 2-5.8 3.2-6.6 2.3-12.5 6.2-18 10.4-1.4.4-3.3.9-3.5 2.6-8.7 6.4-16 15.2-19.1 25.6-1.7.8-2 3.1-1.5 4.7-.4.9-.7 2 0 2.9 0 .4 0 .7.1 1-2.7 2.8-.2 8-.3 11.6.3 2.9-.2 6 .6 8.7 1.2 7-2.5 14.4.7 21.1-.3 1.2-.3 2.5.1 3.7-.3 2-.1 4.1.8 6 .4 2.8.4 5.6.5 8.5-2.2 11.7-.6 25.2 4 36 1.7 2.9 1.1 9.7 5.7 9.3.8.9 2.1 1.3 3.2 1.5.5.1 1 .1 1.5-.2 4.8 1.8 7 7.5 11.3 9.5 1 1.4 1.2 3.4 2.6 4.4 1.2 4.5 7.5 4.7 10.5 2.1 1.6-.3 3.1-1 4.4-1.9 2.1-.1 3.4-2.7 3.6-4.5 3.4-4.4 9.5-11.5 12.9-15.6 1.1-.6 1.9-1.4 2.5-2.5 5-1.4 1.9-5.7-2-5.6-5.9-5.4-10.1-12.2-13.9-19.1-.8-2.8-3.4-4.8-3.5-8 1.4-1.5 3.8-4 4.9-5.7v-.1c1.2-1.4.3-3.4-.8-4.5-.1-.5-.2-1.1-.3-1.7 1.1-2.2 1.6-4.7 2.2-7.1.4 1.5-1.1 2.8-.5 4.3 2.1-5 1.6-10.4 2.6-15.6.3-1.5-.6-3.6.3-4.9-.5-1.3.9-1.7 1.1-.3 3.4 2.4 6.2 7.1 8.4 11a38.8 38.8 0 0 0 3-4.8c4.2-4.7 4-7.1 11.2-8.5 1.6.2 3.1-.6 3.9-1.9 3.5-7 4-15.1 7.9-22 2.7-5.4 8.5-8.1 11.6-13.3 3.2-2.5 7.7-3.7 10.1-6.9.4.1.9.1 1.3 0 .5-.7 1.2-1.3 1.8-1.8a3.43 3.43 0 0 0-.4-1.3zm-22.8-17.4c-.1-.1-.3-.2-.4-.3-.2-.5-.3-1.1-.5-1.6.7.5 1.4.9 1.9 1.5-.3 0-.7.2-1 .4z" fill="#e09531"/><g fill="#b26a15"><path d="M27.901 335.6c-1.2-2 .6-4.9 2.6-5.1.4-.9 1.1-1.3 2.2-1.4.4-.8 1.3-1 2.1-.9.4-1 1.4-1.5 2.3-1.3.5-1.1 2.1-2.4 3.4-1.7.3-.8 1.9-2.4 1.9-1.5 0-2.8 4.2-5.6 4.6-2 .5 4.9 5.7 8.7 5.2 13.9 3.5 5.9 7.8 11.2 12.7 16 .9.4 2.5.7 3.6.9 2.1.5 1.2 3.8-.9 4.1-3.5 4.6-8 8.5-11.2 13.5 0 .9-.9 2.8-2 2.9-2 5.9-7-.5-9-3.2-5.1-4.8-9.5-10.3-12.6-16.7-1.5-1.6-4.6-6.6-4-8.7-.4-1.8-1-3.7-1.3-5.6-.6-.7-.1-1.7.4-2.5v-.7zm179.7-206.7c0-.1-.1-.1 0 0z"/><path d="M225.301 133.2c-12-7.6-24.4-15.7-33.4-27.2.1-2.8-3.6-3.3-4.1-1-3.5 5.8-10 11.2-13.5 16.8-.6 6.9 7.7 11.3 12.1 15.8.3 1.5 2.1 2.4 3.4 1.2 2.5-3.4 7.6-4.1 9.7-7.5 2.5-1.4 4.4-4.3 7.4-3.8a2.37 2.37 0 0 0 .9 1.5c-.1-.1-.1-.1-.2-.1.2 7.4-.4 15.3-.4 22.8-.4 4.4 5.1 4.7 7.9 6.7 1.2.7 2.4 0 2.9-1.2 1.9-5.7 5.5-11.3 6.4-17 .5-2.3 4.1-5.5.9-7zm-68.7 75.5c.2-1.4 1.6-.9 2.8-.7 1.3-1.2 3-1.6 4.7-1.3 3.6-3.9 10.9 2.4 8.6 6.5.8.9 2.4 1.5 2.4 2.8.1.1.3.5.3.6 4.5 4.3 6.7 10.4 9.4 16 2.5 3.8-1.9 6-5.3 5.2-5.2 3.7-1.5-8.9-19.5-23-1.3.4-2.3-1.2-2.3-2.5 0 .3 0 .1 0 0 0 0-.1-.1 0-.1l-.1-.1c-.8-.3-1.8-2.3-1.7-3.1l.7-.3zm-24.2 86.6c-1-4-2.2-7.5-4.9-10.8-1.5 1.6-3.3 3.2-4.9 4.7-1 1.1-2.4 2.1-3.5 3.2 0 .1 0 .1-.1.2h-.1c-2.7 2.5-6.3 5.9-9.6 7.2-1.9 1.2-3.7 3.3-6 3.7-.4 1.1-1.3 2.2-1.9 3.3 1.6 2.4 3.2 8 6.7 4.5 1.3.6 2.6-.7 3.1-1.7 1.2.1 2.1-.5 2.7-1.4 1.3.9 3.5.3 3.5-1.5.8-.2 1.4-.8 1.8-1.4 1.3.4 2.3-.9 2.9-1.8 1.4.2 2.5-1.1 3.1-2.2 1-.2 1.8-.7 2.3-1.3 1.3.1 2.7-.7 3.4-1.7 1.2-.1 1.8-1.6 1.5-3zm-49.1-10.9c-.1.3-.3.7-.6.9-1.3-1.1-2.2-3-3.4-3.9-.2-.3-.4-.9-.9-.9-.2-.2-.3-.5-.5-.7-.3-1.6.5-2.7 1.5-3.9.2.4.1.4.3.8 3.2-.4 5.7-6.8 8.9-4.4-1.3 3.2-2.4 7.2-4.2 10.1.1.9-.3 1.7-1.1 2zm-1.2-88.1c-2.8-1.7-5.8-3.7-9.1-4.2-.4-1-5.1-1.2-5.9-1.5-.1-1.1.1-2.5.2-3 1.1-2.2-.2-5.8-2.9-3.8-.5.5-1.4.3-2 .5-.9-.4-2.7-.2-3.1.7-2.3.2-2.7 2.6-1.8 4.7-.4.7-.8 1.7 0 2.4 1.1 19.3-1.8 7.6 14.8 16.3.3.7 1 1.1 1.6 1.5 1.6 1.7 4 4.4 6.4 4.4.4.2.9.1 1.3-.1 0-1.2.1-2.4.2-3.6l-.9-.7c0-.5.3-.8.2-1.2 1.1-1.4.5-3.5.3-5.2 1.1-.5-.2-2.2 1.5-4.1.9-1.1.4-1.8-1-2.7l.2-.4zm58.1 17.2c-.2-.4-.4-.7-.7-1.1-.403-.792-.706-1.632-.9-2.5-.2-1.4.2-2.5-.9-3.6.1-.5 0-.9-.3-1.3-.1-.1-.2-.3-.3-.4-.2-.2-.6-.4-.9-.5h-.1c-.1-.1-.1-.2-.1-.2-.3-.8-.4-1.6-.9-2.4-.361-.561-.839-1.039-1.4-1.4-.1 0-.1-.1-.2-.1-.5-.6-1.1-1.2-1.8-1.6-1.2-.7-2.6-.6-3.9-1.1-.7-.3-1.4-.7-2-1.2l-1.7-4.3h.6c-.1-.2-.1-.5.2-.7.8-.5 1.7-.5 2.6-.5.1 0 .1-.1.2-.1s.2.1.3.1h.1c1.5.2 2.9.6 4.2 1.1 1.2.5 2.4 1.1 3.5 1.8l-.5-.5c.8-.3 1.1-.5 1-1.4-.1-.8.4-1.1-.3-1.5-.3-.2-.4-.6-.8-.6h-.1l-2.5-1.1-3.3-1.5-3.4-1.5c-1.2-.5-2.4-1.1-3.7-1.2-.3 0-.6.1-.9.2-.1-.1-.2-.3-.3-.4-.9-.9-2.7-1.1-4-1-1.1-.4-2.2-.7-3.4-.9 0-.1-.1-.1-.2-.2-.4-.4-.9-.5-1.4-.6.5.1 0 0-.1-.1-.2 0-.5.1-.7 0a.76.76 0 0 1-.4-.2l.1 2.6v.3c.2.7.5 1.4.8 2 .6 1.2 1.3 2.5 2.3 3.4l1.2.9h.1c.1 0 .1.1.2.1 1.8 1.4 3.1 3.3 4.7 5 .2.6.9.8 1.3 1.4.9 1.9 2.5 3.4 4.3 4.5 0 .4.2.8.6 1.1 2.4 2.2 4.7 4.1 6.7 6.6 2.4 1.9 4.2 4.5 6.1 6.9.1.1.2.2.3.2.7-.2 1.4-1.3.7-2.5z"/></g><g fill="#6d5333"><path d="M116.398 110.6l.1.2c-.1 0-.1-.1-.1-.2z"/><path d="M145.398 115c-.5-4.5-7-7.1-8.5-1.2v.5.1.1c.1.3 0 .5-.2.7-.2.1-.6 0-.7-.2s-.1-.4-.2-.5c-.4-.5-.5-1-.6-1.6l-.1-.1c-.1-.2-.1-.5-.2-.7-.1-.1 0-.3 0-.4-.1-.7-.2-1.4-.1-2.1 0-.1 0-.3-.1-.4 0-.6 0-1.2.2-1.7l-.3-.3c-.1-1.2.3-2.3.3-3.4s-.3-2.2-.5-3.3c0-.2 0-.3.1-.4-1.5-3.1-3.6-5.8-6.6-7.9 0-8.8-10.4-15-18.7-13.8-4.1-.3-7.4-4.3-11.8-4.2-6.1-.3-13.6-2.9-17.3 4.2-4.3-1.3-9.4-1.8-12.7 1.8-3.5 1.2-4 6.5-3.9 9.8-7 1-11.3 7.7-10.4 14.5-2.3.5-4.5 2.9-4.2 5.1-7.1 1.1-8 10.1-2 13.9-1 1.8-1.9 3.9-1.9 5.9-.8 1.3-.5 3.7.7 4.8.4 1.4.1 2.8 1.2 3.9-2.6 2.9-.8 7.7 2.3 9.6-3.6 4.7 1.6 7.1 4 2.2.9 3.7 5.7 6.2 9.4 5.3 3-1.9-1.2-5.1-.5-7.8 3.3-.9 2.8-4.9 1.7-7 2.4-1.1 3.6-3.8 3.5-6.4 4-.9 4.3-6.3 1.8-9.1 2.3-.7 3.5-3.7 2.1-5.8 0-.5-.1-1-.2-1.4 4 0 7.4-3.5 7.7-7.4 1.6.9 2.4 3.1 4.5 2.8 2.5 1.9 6.2 1.9 7.5-1.3.2-.1.4-.2.5-.3 2.9 4.3 8.9 3.7 12.4.5l.2.2c-.2 1.7 1.5 2.6 2.3 3.7 0-.1-.1-.1-.1-.2.1.1.1.3.2.4-.1.5-.2 1.2-.8 1.4-2.3.6-2.4 4.1-.1 4.8 6-1 11.1-6.8 7.3-12.5.3-.2.2-.3.5-.4 1.3-.2 2.7.5 3.2 1.7v-.1c.7 1.4-.6 2.8-1.2 4-1 1.7.9 3.7 2.6 2.8 2.3-.1 3.2-3.2 4-5 1.3.9 2.7 1.3 3.8 2.2-1.8 1.8-1 5.8.8 7.2.3.5.6 1.1 1.1 1.4.3 1.8 2.7 3.2 3.7 4.7-.1 1 0 1.6.5 2.6-.8 2.8-1.2 5.7-1.1 8.6-1.1 2.9-2.9 6.3-2.1 9.5-3.6 6.8 4.4 5.9 4-.1.3-.7-.3-2.5-.8-3.1 0-.1.5.7.5.6-.5-1.4.1-1.1.7-2.3 2.7-2.2 5.6-7.9 2.3-10.6.1-.2.1-.4.2-.7.9-.2 1.8-.9 2.2-1.7 3.5-1.9 1.9-6.1.5-8.8 4.1.5 8.1-3.3 7.4-7.3z"/></g><path d="M136.899 231.5c-1.2.5-2.5.5-3.8.8-1-.6-2.5.5-3.7.7-1.5-.3-3.7.7-4.9 1.7-1.1.7-3.2 3.1-4 2-4.7-7-4.2-14.2 3.5-15.6 2.3-8.9 11.5 7.2 13 10.1-.1-.1-.2.2-.4.3h.3zm-6.4 11.3c3.2-2.4 6.9-3.2 10.7-4.2.2 0 .4-.2.6-.3.5 1.1 3.2 3.6 2.7 4.9-4.9-.3-9.6.6-14.2 2.3a7.55 7.55 0 0 1-1.1-1.4c0-.5.8-.8 1.3-1.3z" fill="#443e3d"/><path d="M98.399 745.4c.1-3 .5-4.9.9-7.8.9-.5 1.1-1.2 1.6-.4 1.4.7 1.8 2.6 2.3 3.9 1.3 1 2.1 2.3 2.8 3.7 3.6 2.4 6 5.7 9.7 8 2 1.4 5.7 1.6 6.5 4.1 3.6 2.1 7.7 2.9 11.5 4.4.5-.2 1.1-.2 1.6-.2 1.3-.5 2.8-.1 4.2-.4-3.1-4.7.3-11.8 3.5-15.4 1.5-4 6.3-10.7 11.1-9.6 3.5 2.2 6.4 5 10.1 7.1.2.1.3.2.5.4.3 0 .7.2 1 .3 4.5 2 8.3 5.4 10.7 9.6 6.3 3.2 11.9 7.4 18.6 10.1 6.5 2.6 15.4 6.5 19.9 9.3.4.3-.3 1 .1 1.3 3 1.2 5.3 5.7 4.1 8.6-.1 2.4-.2 5.3-1 7.6.8.8-1.3 1.6-1.1 2.6-1.2 3-3.2 6.9-6.3 7.9-.4.4-1 .6-1.6.6-10.4 2.1-21.9 2.4-32.6.4-.8.6-4.8-1.3-5.7-1.4-1.6 0-3.2-.4-4.7-.9-7.7-1.3-16.3-4.7-22.5-9.1-2.1-1.6-5.1-2.5-6.9-4.3-1.4-1-3.8-.4-4.5-2.1-5.5-3.8-13.7-1-19.5-4.1-3.8-1.3-7.2-3.2-10.1-6-1-.2-2.1-1.5-2.6-2.5-2.9-2-.5-6.2-1.2-9.1-.8-.4-.1-9.1-.3-9.9-.2-1.9-.1-3.8.2-5.7-.5-.1-.9-.5-1.1-.9l.8-.1zm-48.5-74.9c.1-4.8 4.9-13.6 8.9-16 .9-2.4 3.4-8 6-3.6 1.4 1 2.2 2.6 3.5 3.8 2.8 1.2 5.5 2.8 7.3 5.3 3.9 1.6 8.4 2.4 11.7 5.3 2.1.4 4.1 1.3 6.2 1.5.3-.4.5-.9.8-1.3-2.4-3.7 1.6-9.8 5.9-8.8 1.5-.4 3.3-.5 4.7 0 4-1.2 6.1 3.2 7.1 6.3 2.7 1.9 6.4 3.4 7.5 6.7-.6 7.6-5.4 16-8.9 21.8-.7 1-.8 2.2-1.9 3-.6 1.9-2.1 3.4-3.3 5 .1.4.1.8.2 1.2 2.9 2.5-2.1 5.6-3.5 2.2-2-.2-3.7-1.8-5.7-2.5-2.2-.4-5.4-1.9-6.6-3.9-.7-.4-1.6-.8-1.7-1.6-2.1-1.7-4.8-2.6-6.3-4.8-.3-.3-11.3-5.1-11.1-5.5-4.3-.7-25.9-8-20.8-14.1zm97.8 43.4c2.1-2.3 2.2-6 4.7-7.9.3-2.6 3.4-9.7 6.1-5.2.9 2.7-1.4 4.8-1.4 7.4-1.1 3-.9 7.6-4.8 8.1-1.7 1.4-5.3-.2-4.6-2.4z" fill="#6d5333"/><path d="M99.498 130.4l1.1-.3c.3-.1.5-.2.7-.4.1-.1.1-.2.2-.3.4-.7.6-1.7.3-2.5-.3-.6-.8-1-1-1.6l-.6-.3c-1.2-1.2-3.2-1.9-4.8-1.7-.6.1-1.2.2-1.8.5-.9-.2-1.8.1-2.4.8l-.1.1c-.6.2-1.1.5-1.6.9-.3.4-.6.9-.6 1.4 0 .2 0 .4.1.5.1.3.2.5.4.7s.3.4.6.5c.3.4.6.6 1 .9.6.4 1.2.9 1.9 1.2 1.8.8 3.8.9 5.6.3.2-.3.7-.5 1-.7zm27.5-4.8c-.6-.6-1.4-.9-2.2-1.2-1-.5-2.1-.9-3.3-.5-.2 0-.3.1-.5.2-1.5.1-2.9 1.2-3.4 2.7-.3 1 0 2.2.8 2.9.6.5 1.3.8 2.1 1.1.6.2 1.2.4 1.9.5 1 .2 2 .1 2.9-.5.7-.4 1.3-1 1.8-1.7.9-1.1.8-2.6-.1-3.5z" fill="#fff"/><path d="M98.399 124c-.1-.2-.3-.3-.5-.5l-.3-.3c-.2-.2-.4-.3-.7-.4s-.6-.2-.9-.2c-.4 0-.8.1-1.1.3-.2.1-.3.2-.5.3-.1.1-.2.3-.4.4-.1.2-.2.3-.2.5s-.1.4-.1.5c0 .2.1.4.1.5s0 .1.1.2v.5c0 .3.1.5.3.7.1.2.2.4.3.5s.2.3.4.4.3.2.5.3.4.1.5.2c.3.1.6.1.9 0 .2 0 .4 0 .6-.1a.55.55 0 0 0 .5-.3c.179-.078.321-.221.4-.4.2-.2.3-.4.4-.7s.1-.6.2-.9v-.5c-.2-.1-.3-.5-.5-1zm26.6 2c0-.2 0-.4-.1-.6v-.1c0-.1-.1-.4-.3-.6-.1-.1-.2-.3-.3-.4-.2-.2-.4-.3-.6-.4s-.3-.1-.5-.1c-.3-.1-.5 0-.8 0-.2.1-.3.1-.5.2-.1.1-.3.2-.4.3-.2.2-.3.4-.4.6s-.2.5-.2.8c-.1.1-.1.2-.1.3-.1.257-.1.543 0 .8 0 .3.1.5.2.7.1.1.2.3.3.4.2.2.5.4.9.5.2 0 .4 0 .5.1a1.69 1.69 0 0 0 1-.3h.1c.1-.1.2-.1.2-.2s.2-.1.2-.2c.1-.1.2-.3.3-.4 0 0 0-.1.1-.1.1-.1.2-.4.2-.6.2-.2.2-.4.2-.7z" fill="#334f2b"/><path d="M115.498 163.4c-.5-.8-1.8-1.4-2.7-.7-.2.1-.3.2-.5.3-.3-.1-.6-.1-.9 0l-1 .3h-.2-.4-.4-.3c-.8-.1-1.6-.3-2.4-.5-.1-.1-.3-.1-.4-.2-.1 0-.1-.1-.2-.1-.3-.4-.7-.7-1.2-.8-.5-.2-1.1 0-1.6.3-.7.2-1.3.8-1.5 1.4-.2.9.1 1.8.9 2.3.9.5 1.9.8 2.8 1.1h.1c.5.2 1 .4 1.6.4.6.1 1.3.1 1.9.2 1.9.2 3.9-.1 5.5-1.2 1.1-.6 1.5-1.8.9-2.8z" fill="#e9c3bb"/><g fill="#111119"><path opacity=".25" d="M212.698 462.4c.4-1.6.5-3.2 0-4.8.4-.9.5-2-.2-2.5 1.2-11.2-9.7-9.9-13.7-1.9-4 5.4-23.1 31.6-19.1 36.5 3.5 11.6 6.1 25.1 11.2 36 1.1-1 2.1-3.8 2.7-5.2-.2-.5.2-.4 0-.9 1.6-.3 2-2 1.3-3.4.2-1 .9-2 1.4-2.9 7.2-16 13.5-33.3 16.4-50.9zm-72.1 120.1c-1.6-6.5-2.9-13.5-6.9-18.9-1.1-2.1-.5-6-2.9-7-.4-1.5-1.6-2.7-2.1-4.2-14.2 2.5-11.9 20.5-16 31.2-2.5 13.1-8.4 26.2-6 39.6-.1 3.6 10.1 24.6 12.5 15.1 3.3-2.7 7.5-7.3 8.8-10.6.5-.8 1-2.2.3-2.9 1-6 2.9-11.3 5.8-16.4 6.6-11.7 11.2-11.3 6.5-25.9zm6.9-261.9c-.2.1-.4.1-.6.2 1.1-3.1-.2-6.9-.6-10.2.2-.1.4-.3.5-.4-.2-1.5-.3-3-.3-4.5-.3 0-.7.2-1 .3-.6-1.5-.7-3.4-1.8-4.7-.5-2.8-.2-8.1-3.6-9-2.7-.1-11.1 1.6-7.5 5.4-.6.2-1.2.3-1.8.5-8.1 5.6-17 8.6-25.2 14-2.4-1.9-5.9 1.1-8.4 1.9.5-.9.9-1.8 1.5-2.7.5-.3 1-.8 1-1.5 5.3-4.1.2-14.1-5.9-9.2-3.2 2.6-1.9 7.3-4.5 10.3-3.5 6.3-11.1 8-16.2 12.6-5.2 5.9-9.6 12.4-14.7 18.3-.4.4-.9 0-.8-.5-.1 0-.1-.1-.1-.1-.3.4-.6.7-1 1.1l.4-2-.1-.1c-1.1-1-2.2-2.8-2.6-4.2-6.1 21.7-23.5 18.7-18.5 24.3-2.8 6.1-11.3 3.1-14.3 8.5.2-.2.5-.2.7 0l.1.1c.3-.1.5 0 .7.2.1 0 .2.1.3.2.6.5 1.1 1 1.6 1.6l.3-.6.8.8c.7.7 1.7.6 2.5.8-.2 1.2.5 2.4 1.3 3.4.3 2.5 1.6 4.7 3.9 6 .4 1.6 2.6 2 3.9 1.3 1.2 1.8 3.9.3 5.3-.5 1.8 1.1 3-1.2 4.1-2.3 1.9-.5 4.3-2.1 4.5-4.3 3.1-4.6 6.2-9.2 9.8-13.4 2.6-.6 6.9-4.5 7.3-7.1 1-.9.7-3-.9-3.5 1.7-2.7 4.1-5.2 5.1-8.2 1.7-2.9 5.3-5.1 6.2-8.2.5-.5.8-1.2 1.4-1.6 0 1.3.6 2.6 1.4 3.6-.3.7-.1 1.4.3 2-.1.5 0 .9.2 1.4l-1.5-.6v.1c1.2.9.2 3.3.4 4.7.4.5.3.7.1 1.3-.1 1.2.2 2.9-.6 3.8 0 .2-.1.3-.1.5.5 0 1-.1 1.5-.2-.2.2-.3.5-.4.8-.5.3-.9.6-1.4.8.7 1.1-.4 2.8-.8 4 13.9-12 30.1-20.4 47.9-25 7.7-1.8 14.7-5.4 20.8-10.3 0 0-.3 0-.6.1zm40.1 63.7c0-.6-.3-.6-.3-1.2-.1-.2.3-.7.1-.8-.3-1-.2-2.2-1.1-2.7.5-3.6-1.1-6.6-1.8-10 .2 0-.2.1 0 0-.2-1.5-.7-3-.9-4.4-10.2-1.8-8 10.8-13.6 15.4-7.5 5.6-14.7-2.3-14.4-10.2-.6-10 3.9-25.6-7.6-30.9-.2 2.4-.6 4.8-1.1 7.1l.3.6c-.8.3 0 1.2-.5 1.6 1.6 13.8-4.6 27.7-2.8 41.3.1 2.2-1.5 5.1-.1 6.9 0 3.4-.1 6.8.4 10.2-.3 10.1.7 21 1.4 31.2 13.6-2 14.8-5.2 15.1-17.7 7-11.3 22.1-15.9 27.5-28.8-.2-2.5-.7-4.5-.8-7l.2-.6zm53.3-284.4c2.8-4.3-7.9-23.1-12.5-24.9-1.4-1.3-2.7-4.1-4.9-4-.7-.9-1.4-1.8-2.1-2.8.1-.9-.2-1.9-.8-2.5-.8-.7-1.5-2.6-2.8-2.1-.5-.9-.5-2.4-1.5-3-.1-.1-.1-.3-.2-.4.2-.8 0-1.8-.7-2.2-.5-1.8-1.2-3.6-1.9-5.3-.2-.8-.5-2.3-1.3-2.2-.5-4-1.6-6.8-3.6-10.3.1-.1-.6-.1-.6-.2-.9-1.7-3-2.7-3.2-4.4-.9-.8-2-1.7-2.7-2.6-.1-.1-.7.1-.6-.4-2.8 1.9.4 5.3 2.1 7.1 5 6.8 4.7 16 8.4 23.5 7.8 11 13.1 23.1 18.3 35.5 4.6 11.9-2.8 22.8-9.3 32.1-.5-.2-1.1-.4-1.6-.2-.4-.1-.8-1-1.3-1.1-2.1-1.3-3.9-3.2-6.4-3.6l-.1-.1c-1.1-4.4-6.6.2-3.4 2.7.2 2.6-.4 6.7-.5 9.4-.1.1.2.4.1.6-3.8 6.5-11.5 9.8-15.3 16.6-7.7 11-12.3 31.7-30 25.6-5.4-1.6-12-6.9-17.1-2 .2.3.5.5 1 .6.6.6 1.5.7 2.3 1 .1.3.3.6.5.8.1.4.2.7.5 1v.1c9.5 5.5 17.7 13.1 24.5 21.4 1 1.4 2.1 2.6 3.1 4 1-2.3 1.5-4.8 2.1-7.1-.1-1 0-2.1.3-3.1.5-.4.8-.9.9-1.6.2-.2-.4-.7-.2-.9.9-4.6 5.3-8 8.5-11.6 5.3-6 9.9-10.5 12.5-17.4 1.6-3.7 1.9-8.1 5.9-10.2 0-.5-.1-1.2.2-1.7.4.5 1 .7 1.6 1.1.3.9 1.2 1.2 2 1.1 1.9 1.3 6.8 4.6 7 .7.1-.1.4-1.3.5-1.4 5.1-4.8 4.6-13 8-18.9.2-1 .4-1.9-.2-2.9l.6-.3c1.1-2 2.3-4.4 4.2-5.6.047-.092.119-.169.207-.222a.55.55 0 0 1 .293-.078c.4-.8 1-1.7.6-2.6 3.2-5.3 6-10.6 9-15.9.3-.9.1-2.5.9-3.1a14.76 14.76 0 0 0-1.3-6zm-41.6 525c-17.9-13.3-21.5 44.6-63.5 62.3-12.3 4.2-18.4 7.9-9.1 20.3-1 9.7-25.1 14.1-17.4 29.2 0-.3-.1.2 0 0-1.1.3-1.3 1.5-2.4 1.5-1.4-.5-3.7-1.5-5.5-1.6-5-.2-2.7 31.3-1.9 35.7.8.1 1.3 1 1.9 1.5.4 0 .8 0 1.1-.2.4-.2.4 0 .4.2.3.6.9.9 1.5.9.2.8 1 1 1.7 1.3 0 .6.7.6.7 1.2 1.391.545 2.73 1.215 4 2 .4.1.7.4 1.1.6 0 .2 0-.2 0 0l3.3.6c3.2 3 8.2 1.3 12.1 2.3.9-.5 2.8.3 3.4 1 .6 0 1.3.1 1.9 0 2.1 1.8 3.9 3.9 6.4 5.3.7-6.6 2.2-13.3 3.1-19.7-.2-.3-.4-.6-.7-.8.4-.7.7-1.6.6-2.5.2-.1.5-.2.7-.4.1-1.4-.8-2.6-1.6-3.6-.3 0-.2-.3-.5-.3.2-.2-.1-.1 0-.4-.7-1-1.3-2.2-1.3-3.4-.3-.2-.6-.4-1-.5-.2-.9-.1-1.8-.2-2.8 1.5-5.6 6.4-10.2 9.4-15.3 1-.1 1.6-.6 1.6-1.7.3-.1.5-.5.8-.7.4.3.7.4 1.1.7 1-.4 1.9-1.3 2.9-1.6v-.5c-1.2-1.2-3.1-2.1-3.9-3.5-.3-.2-.2-.7.1-.8-.5-.8 0-2 .3-1.3.1-1.1.2-1.2-.4-2.1 0-.7-.8-.9-.7-1.6-1.3-1.1-1-2.3-1.7-3.7-.6-.3 0-2.4-.1-3-.1.4-.3.8-.4 1.2-.1-.9.1-2-.5-2.7l2.1-5c0-.1 0-.3.1-.4.9-2.3.9-5.4 3.2-7 .1-.2.2-.4.4-.4 2.3-4.1 4.5-8.6 7.2-12.2 3.9-5.3 7.2-11.1 10.9-16.5 0 0 0-.1.1-.1.8-4 4.4-7.9 7.1-11.2 5-8.2 8.8-17.4 14.6-25.1 2.6.8 3.1-2.6 3.4-4.4.4.2.6-.7 1-.8 1.2-2.7 2.2-4.5 3.9-6.9-.2-1-.3-2.3-1.3-3.1zm16.2-265.1c0-1.3-.4-2.9-1.7-3.4-.5-4.5-3.6-8.1-5-11.9-.522-.625-.991-1.295-1.4-2-.9-.6-2.3-2.6-2.5-3.7-2.2-3-4.2-6.2-6-9.4-.1.1-.2.1-.3.1.4-1-1.3-2-.4-2.8-2-4.2-4-8.1-4.9-12.6-2.3 11.3 1.2 22.6.2 34.1 1.1 2.9.5 6.2 2.2 8.7 3.9 6.2 13.7 7 19.3 3.1l.1-.5.4.3zm-75.9-146.7l-1.6-4.5-1.5-5.3c-1.2-5.2-6-6.3-10.5-7.2-.2-.8-.9-1.4-1.7-1.4 0-1.1-.1-2.2-.3-3.3.4-.2.8-.5 1.2-.8 1 .5 2.2.7 3-.3.7.4 1.3.9 2 1.3h.4c.2-1.1 1.3 0 1.9.2.8-.9 2.3.9 3.3 1 1.2-.9.7-3.2-.8-3.4-2.1-.3-3.7-1.9-5.6-2.9.2-.3.4-.6.6-1 3.9-2.2 5.2-8.3.3-10.1-1.1 0-3.2.5-3.9-.4-.4-.1-1.1-.5-1.3-.9-1.1.2-1.4.8-1.3 1.8-1.3 1.7-4.5 2.7-4.5 5.2-.6.6-.8 1.2-1.2 1.9-.8-.5-2.2-.5-3.1-.3-.9-.4-1.8-1.1-2.8-.9-.2-.3-.4-.5-.6-.9h-.6c-.1-.3-.2-.6-.4-.9.1-.1.1-.2.2-.2l-.3-.3c-2.2-3.7-9.7-2-13.2-4.6-6.9-3.3-13.2-7.5-19.4-12-2.3-1.3-4.5-4.2-7.3-3.5-.1 0-.2-.1-.3-.2-3.5 3.4 2.4 8 4.3 10.8 9.6 12 28 27.5 44.2 24.2.3.6.6 1.2 1 1.7-.1.1.3.4.2.5 4.1 5 9.6 7.7 13.4 12.9.9-.9 1.7 2.1 2.3 2.5 1.6-.1 3.3 2.9 4.2 4.1.2-.3-.1-2.4-.3-2.8zm-68.8 79.9c-2-2.2-13-12.5-15.4-11.2-.1-.6 0-1.3-.2-1.9-.4-.3-.3-1.1-.5-1.6.7-8.9-10.4-4.7-8.1 2.8 1 8.2 1 16.3-.7 24.5-.4 4.7-3.5 11-.9 15.1-.1.1-.1.2-.2.3h.1c2.2-3.5 1.3 2.4 2.2 3.6 1.8-2.5 4.5-4.5 6-7.1-.5-1.2-.5-2.5-.6-3.7-.3-.1-.5-.2-.8-.2v-2.1c3.8-5.6 2.6-14.1 3.2-20.7 1-.6 1-1.8 1.1-2.8 3.2 1.7 4.6 5.4 6.9 7.9-.4-.3.2.5.3.6l.5.8c.8 1.3 1.4 2.2 1.9 3.7l2.7-4s0-.1-.1-.1c.1-.1.2-.2.3-.4.1 0 .1.1.2.1.7-1.3 1.6-2.5 2.7-3.4-.1 0-.3-.1-.6-.2z"/><path opacity=".25" d="M144.298 111.7c-.3-.4-.7-.8-1.2-1-.7-.4-1.5-.3-2.2.1-.3-.1-.6-.1-1-.1s-.4-.1-.8 0c-.8.2-1.2.9-1.7 1.5 0 .1-.1.2-.2.3 0 .1-.2.4-.2.5-.1.5-.3.8-.3 1.4v.1.1c.1.3 0 .5-.2.7-.2.1-.6 0-.7-.2s-.1-.3-.2-.5c-.3-.3-.4-.7-.5-1.1l-.2-.2v-.6c0-.1-.1-.3-.1-.4v-.4c-.1-.6-.2-1.2-.1-1.9-.1-.7-.4-1.4-1.1-1.7.6-2.4.7-4.9.5-7.4-.1-1.5-1.3-3-2-4.2s-1.7-2.1-2.8-2.9c-1.8-1.3-4.1-2.9-6.4-2.5-.3-.1-.7-.1-1.1 0-1.1.3-2.1 1-2.7 1.8-1.8-1-4.2-.2-5.1 1.7-1.3 2.6.3 5 1.4 7.3 1.4 3 2.2 6.4 1.4 9.5l-1 2.4a3.04 3.04 0 0 1-.5.7c-.6.9-.2 2.2.7 2.7 1 .6 2.1.2 2.7-.7 0-.1.1-.1.1-.2 1.2-1.1 2-2.7 2.4-4.4.2.3.4.6.8.8.1 0 .2.1.3.1 1.1.9 2.3 1.6 3.5 2.2 1.6.8 3.4 1.6 5.2 1 .2-.1.4-.2.5-.3.1.4.3.7.5 1-.3-.3-.7-.5-1.1-.5-.6-.1-1.3.2-1.8.6-.3-.2-.5-.4-.8-.5-.2-.1-.3-.2-.5-.2-.2-.1-.3-.2-.5-.3-.8-.6-2-.2-2.6.5-.5.7-.6 2 .2 2.6.1.1.3.2.4.3s-.3.8-.2.9c.8 2 2.3 3.6 3.7 5.3.7.8 1.9 1.1 2.4 2.2.3.5.5 1.2.7 2-.2.3-.4.7-.4 1.1 0 .3 0 .5-.1.8-.3 1.2-.5 2.4-.6 3.6-.1.2-.1.4-.1.7v.2c-.1.8-.1 1.6 0 2.4l-.3 1.8c-.6.5-.5 1.1-.9 1.8-.5 1-.9 2-.8 3.2.1 1 .6 3.9-.5 4.5-2.3 1.2-.3 4.6 2 3.5 2-1 2.6-3.3 2.4-5.4-.1-1-.5-2.1-.4-3.1v-.3c.2 0 .4 0 .6-.1.8-.3 1.5-1 1.5-1.9v-.1l.1-.1c.7-.3 1.3-1 1.3-1.8v-.1-.1c.1-.1.1-.2.2-.3.2-.4.5-.7.7-1.1.7-1.3.8-2.7.4-4.1-.1-.5-.9-.8-1.1-1.3-.1-.2-.6-.3-.3-.4 0 0 0-.3.1-.4.9-1.1 2.4-2.5 3.2-3.7.4-.5.8-1.1.9-1.8.2-1-.2-1.8-.7-2.7-.7-1.3-1.7-2.3-2.8-3.2.4.3.9.5 1.4.7 1.1.3 2.4.4 3.5 0 1.2-.4 2.2-1.2 2.8-2.3l.1-.1a6.07 6.07 0 0 0 1.4-2.9c.4-2 0-3.8-1.2-5.1zm-10.8 7.9c-.2-.1-.5-.1-.7-.1 0-.1 0-.2-.1-.2 0-.2-.1-.3 0-.1v-.4-.1c0-.2.1-.3.1-.5v-.5c.6.7 1.2 1.4 2 1.9.3.5.7.9 1.1 1.3-.8-.5-1.6-.9-2.4-1.3z"/></g><path d="M112.701 241.3c5.1-2.9 14.3 3.5 20.5 14.3s7.2 22 2.1 24.9-14.3-3.5-20.5-14.3c-6.3-10.8-7.2-22-2.1-24.9z" fill="url(#A)"/><path d="M165.799 2.3c11.4-5.6 26 .9 32.6 14.5s2.8 29.1-8.6 34.7-26-.9-32.6-14.5-2.7-29.1 8.6-34.7z" fill="url(#B)"/><path opacity=".5" d="M94.098 125.8c14.7-.1 26.7 5 26.8 11.4s-11.8 11.7-26.5 11.9c-14.7.1-26.7-5-26.8-11.4s11.8-11.7 26.5-11.9z" fill="url(#C)"/><path opacity=".5" d="M118.999 127.1c9.2-.1 16.8 5 16.8 11.5.1 6.4-7.4 11.7-16.6 11.8s-16.8-5-16.8-11.5c-.1-6.5 7.4-11.7 16.6-11.8z" fill="url(#D)"/><g fill="#1d1d1b"><path d="M65.602 183.5c-.3-.5-1-.3-1.4-.2l-2.6.6c-.7.2-1.4.3-2.2.5-.7.2-1.5.3-2.1.6-1 .5-1.5 1.6-1 2.7.6 1.1 1.8 1.6 2.9 1.9 5.9 1.6 12.2 1.4 17.8 4.1 1.3.6 2.6 1.4 3.7 2.4.5.4 1 .9 1.5 1.4.5.6 1.1 1.1 1.6 1.7.2.2.7.1.6-.2-.2-.6-.4-1-.7-1.5-.31-.508-.679-.978-1.1-1.4-.8-.9-1.8-1.6-2.8-2.3-2-1.3-4.3-2.2-6.7-2.8-3-.8-6.1-1.2-9.2-1.7-1.5-.3-3-.5-4.5-.9-.6-.2-2.6-1-1.9-1.9.4-.5 1.4-.6 2-.8l2.6-.6c.5-.2 3.9-.8 3.5-1.6z"/><path d="M57.001 187.4c.1 0 .2-.1.3-.1.1-.1.2-.3.1-.4-.1-.4-.6-.7-1-.7-.7.1-.7.7-.6 1.3l.8 5.5.4 5.3c.1 1.8 0 3.6.3 5.5.1.4.8.7.9.1.5-2.8.3-5.8 0-8.6l-.5-4.2c-.2-1.5-.4-3-.9-4.4l-.1.4c-.2.2.1.2.3.3zm26.4 10.8c-2.1 1.4-2.6 3.9-2.8 6.3l-.2 4.8c0 1.7-.3 3.5.1 5.2.027.085.081.159.152.211s.159.081.248.081.176-.028.248-.081.125-.126.152-.211c.4-1.4.3-3.1.4-4.5l.1-4.8c0-2.1.2-4.9 2.1-6.1.5-.3.1-1.2-.5-.9z"/><path d="M57.299 203.5c.3.3.6.6.9.8.4.2.8.4 1.3.5l2.7 1 4.7 1.7c1.5.6 3.1 1.3 4.5 2.1 1.5.8 2.8 1.8 4.2 2.7.5.4 1.1-.4.7-.9-2.4-2.4-5.7-3.9-8.8-5.1-1.6-.6-3.2-1.2-4.8-1.7l-2.8-.9c-.5-.2-1-.3-1.5-.4-.4-.1-.8 0-1.2.1.1 0 .1 0 .1.1zm24.1-7.3l3.1 3.1c.9 1.2 1.7 2.5 2.5 3.9l4.4 8.2c.786 1.281 1.69 2.487 2.7 3.6 1.4 1.5 2.9 2.7 4.5 3.9 3 2.3 5.7 4.8 8.2 7.7 1.3 1.6 2.6 3.2 3.7 4.9.6.9 1.2 1.8 1.7 2.7.6.9 1.1 1.8 1.7 2.5.3.3.7 0 .6-.4-.4-1.7-1.5-3.4-2.4-4.9a37.07 37.07 0 0 0-3.3-4.5c-2.4-2.9-5.1-5.6-8-8-1.6-1.2-3.2-2.4-4.7-3.8a19.52 19.52 0 0 1-3.2-3.8c-1.8-2.6-3.1-5.5-4.6-8.3-.8-1.5-1.7-2.9-2.9-4.2-1.1-1.2-2.3-2.7-3.8-3.2-.2 0-.4.4-.2.6zm28.9-14.9c.5.1.8.5 1.3.6l1.4.3 2.8.6c1.9.4 3.8.9 5.6 1.5 3.7 1.2 7.3 2.7 10.8 4.6 1.7.9 3.4 1.8 4.3 3.6.2.4.7.2.8-.1.1-.4.2-.7 0-1.2-.1-.4-.4-.7-.7-1-.6-.7-1.3-1.1-2.1-1.6-1.8-1-3.7-2-5.5-2.8-3.8-1.7-7.7-3-11.8-3.9-1.2-.3-2.3-.5-3.5-.7-.5-.1-1.1-.1-1.6-.2-.3 0-.6-.1-.8 0-.3 0-.5.2-1 .3z"/><path d="M120.602 183.3c0 .4 0 .5.2.8s.5.5.7.8l1.2 2.1c.6 1.3.8 2.7.9 4.1.1 2.2.2 5.1 2.7 6.1 1.4.6 2.9.3 4.3.8 1.2.5 2.2 1.4 3.1 2.4 1.9 2.3 3.1 5.2 4.1 8 .7 1.8 1.2 3.7 1.7 5.6l1.3 5.6c.2.5.9.4 1-.1 0-1.8-.4-3.5-.8-5.2l-1.4-4.9c-1-2.9-2.1-5.8-3.8-8.4-1.4-2.2-3.5-4.2-6.1-4.6-1.3-.2-3 0-3.8-1.2-.6-1-.7-2.2-.8-3.3-.1-1.6-.3-3.1-.8-4.6-.6-1.5-1.5-2.9-2.8-4-.1-.1-.3-.2-.5-.1h-.2c-.2 0-.2.1-.2.1z"/><path d="M124 190.7c.2.4.5.4.9.3h1.7c1.1 0 2.3.2 3.4.4s2.1.6 3.1 1 1.9 1.1 3 1.2c.2 0 .4-.3.3-.4-.6-1-1.9-1.5-2.9-1.9-1.2-.5-2.4-.8-3.6-1.1-1.2-.2-2.4-.3-3.6-.3-.6 0-1.3 0-1.9.2-.1.1-.5.4-.4.6zm-11.6-2.4c.2.3.3.5.6.6.3.2.6.4.9.7l1.8 1.6c1.1 1.1 2 2.3 2.9 3.6l2.8 3.7c1.2 1.4 2.5 2.7 3.9 3.9 2.8 2.5 5.5 4.9 8.1 7.6s5 5.5 7.4 8.4l3.9 4.8c1.3 1.7 2.5 3.5 4.1 4.9.3.3.8-.1.6-.5-.9-1.7-2.1-3.1-3.2-4.6l-3.5-4.5c-2.4-3-4.9-5.9-7.5-8.6-2.5-2.7-5.2-5.3-8.1-7.7-1.4-1.2-2.8-2.5-4.1-3.9-1.1-1.2-2-2.5-3-3.8-1-1.4-2.1-2.8-3.3-4-.6-.6-1.2-1.2-1.9-1.6-.7-.5-1.4-.9-2.2-.9-.2-.1-.4.1-.2.3zm-55.9 16.9c-10.9 4.8-21.8 9.6-31.4 16.6-8.9 6.4-16.7 14.8-21.1 25a41.16 41.16 0 0 0-2.7 8.4c-.6 2.9-1.1 6-.6 9 .1.6.9.4 1-.1.3-2.6.4-5.2.9-7.9.5-2.5 1.3-5 2.2-7.5 1.9-4.9 4.7-9.4 8.1-13.5 7.1-8.8 16.7-15.2 26.6-20.5 5.7-3.1 11.7-5.9 17.6-8.7.5-.2 0-1.1-.6-.8zM1.2 266.8c-.4.6-.3 1.3-.2 2l.1 2.4.2 4.8-.1 9.7-.4 4.8-.4 4.7c-.1 2.6.6 5.4 2.7 7.1 1.1.9 2.5 1.2 3.9 1.4.7.1 1.5.1 2.2.1s1.6.1 2.2.5c.6.3 1.1-.5.5-.9-.5-.3-1-.6-1.5-.8-.6-.2-1.3-.3-1.9-.4-1.2-.1-2.5-.1-3.7-.6-2.4-1.1-2.9-4.1-2.9-6.4 0-1.5.3-3.1.4-4.6l.3-4.6c.2-3.1.2-6.2.1-9.3l-.3-5.1-.3-2.6c-.1-.8-.1-1.6-.7-2.1-.1-.1-.2-.1-.2-.1z"/><path d="M7.501 243.4l-.5.5c.5.1 1-.1 1.6-.1s1.2 0 1.8-.1l3.4-.2c2.3 0 4.6.2 6.8.6 4.5.8 8.8 2.4 12.8 4.7 2.2 1.3 4.4 2.8 6.5 4.4.4.4 1.1-.2.6-.6-6.6-6.8-16.3-10.4-25.7-10.5-1.3 0-2.6 0-3.9.2-.7.1-1.4.1-2 .3s-1.3.2-1.9.5c-.9.4.5 1.3.5.3zm47.9 35.8c.5 0 .3-.7.1-.9a.54.54 0 0 0-.163-.159.53.53 0 0 0-.214-.075c-.076-.01-.153-.003-.226.02s-.14.062-.197.114c-.4.3-.4.8-.4 1.3l.2 4.5v4.6l-.5 9.2c-.2 3-.5 6-1.4 8.9-.5 1.5-1.1 3-1.3 4.6-.3 1.6-.4 3.4.3 4.9.3.6 1.1.3 1.2-.3.1-1.2-.1-2.4 0-3.7s.5-2.4.9-3.6c.8-2.4 1.3-4.7 1.6-7.2s.4-5 .5-7.5l.2-7.8-.2-4.4-.2-2c0-.3-.1-.6 0-.9 0-.1.1-.2.1-.3.2-.3-.1.2 0 .2-.4.3-.4.5-.3.5z"/><path d="M55.2 287.8c1.2.8 2.4 1.8 3.4 2.9.5.5 1 1.1 1.4 1.6l.7 1c.1.1.3.2.4.3.2.2.2.3.5.3.2 0 .3-.1.4-.3s0-.4-.1-.6-.1-.4-.2-.5l-.7-1-1.6-1.8c-1.1-1.1-2.3-2.1-3.7-3-.5-.3-1.1.7-.5 1.1zm101.9-56.6c-.2 0-.2-.1-.3-.2 0-.2-.2-.3-.3-.3l-3.1-.7c-1-.2-2-.3-3-.4l-3.1-.2c-.9 0-2-.2-2.9.2-.3.2-.3.7 0 .9.8.4 1.9.3 2.8.3 1 0 2 .1 3 .2l2.9.3 3.2.4c.2 0 .4 0 .6-.2l.2-.3z"/><path d="M144.9 229.7c-.3 0-.6-.2-.9-.2h-.9c-.7 0-1.4.1-2.1.2-1.3.1-2.5.3-3.7.5-2.6.4-5.1 1-7.6 1.7-4.6 1.4-8.9 3.6-12.6 6.5-1.1.8-2.1 1.7-3 2.6-.8.8-1.9 1.7-2.1 3 0 .4.6.6.9.4.4-.4.7-.8 1-1.2l1.2-1.2c.8-.8 1.7-1.5 2.6-2.2 1.8-1.4 3.7-2.6 5.7-3.7 4.3-2.3 8.9-3.5 13.6-4.4 1.4-.3 2.8-.5 4.1-.7l1.9-.3c.3-.1.7-.1 1-.2s.7-.4 1.1-.5c-.1-.1-.1-.3-.2-.3zm13.5 3c0 .1 0 .1.1.1.5.1.4-.6-.1-.6-.4 0-.6.4-.7.7-.2.5-.4.9-.7 1.4-1.2 1.8-2.9 3.1-5 3.6-1.1.3-2.1.3-3.2.2-1.3-.2-2.7-.5-4-.5s-2.7.3-4 .6l-3.5.8c-1.3.3-2.5.8-3.7 1.3-1.3.5-2.3 1.3-3.3 2.2-.4.3.1 1 .5.7.9-.6 1.9-1 2.9-1.4 1-.5 2-.8 3.1-1.1a68.21 68.21 0 0 1 6.5-1.5c1.3-.2 2.5-.2 3.7 0 1.1.1 2.3.3 3.4.2 1.8-.2 3.5-.9 5-2 .8-.6 1.5-1.3 2.1-2.1.3-.4.6-.9.8-1.4l.3-.6c0-.1.1-.2.1-.3 0-.3.1-.2-.3-.3.1-.1 0-.1 0 0zM160 257c.1 0 .1-.1 0-.1s-.1.1 0 .1z"/><path d="M160.401 256.9c.4-.7.2-1.3.2-2.1-.1-.8-.1-1.6-.3-2.4-.3-1.6-.6-3-1.3-4.5a10.04 10.04 0 0 0-3.3-3.5c-1.6-.9-3.4-1.4-5.2-1.7-7.2-1.3-14.7-.4-21.5 2.2-1.9.7-3.8 1.6-5.6 2.5s-3.7 2-5.3 3.3c-.6.5.2 1.4.8 1 1.5-.9 2.9-1.9 4.5-2.8s3.1-1.6 4.8-2.3c3.2-1.3 6.5-2.3 9.9-2.8s6.8-.6 10.2-.2c3.2.4 7 1 9.1 3.7 1 1.3 1.7 3 2.1 4.6.2.9.4 1.7.5 2.6.1.8.1 1.6.5 2.2-.2.2-.2.3-.1.2zm-.8.5h-.6-.6-1.1c-.3 0-.7-.1-1-.2-.2-.1-.4-.1-.5-.2-.2-.1-.4-.1-.6-.1s-.3.2-.2.4c.1.4.7.7 1 .8.4.2.8.2 1.3.3.4 0 .9.1 1.3 0 .2 0 .4-.1.6-.2.1 0 .2-.1.3-.1.1-.1.2-.1.3-.2.3-.1.1-.6-.2-.5zm-6.7 13c.7-.2 1-.9 1.3-1.6l1.3-2.5c.7-1.4 1.3-2.7 1.1-4.3-.3-1.5-1.2-2.9-2.2-4.1-.903-1.185-1.944-2.26-3.1-3.2-1.2-1-2.5-1.9-3.8-2.7-1.4-.8-2.8-1.3-4.5-1.1-3 .4-6.1 1.1-9 2-1.6.5-3.1 1.1-4.6 1.9-.8.4-1.5.8-2.2 1.3-.3.2-.6.5-.9.7-.4.3-.6.7-.9 1.1s.1 1.1.6.8c.3-.2.6-.3.9-.5s.5-.4.8-.6l1.8-1.2c1.1-.7 2.4-1.2 3.6-1.7 2.6-1 5.3-1.6 8-2.1 1.5-.3 3-.7 4.4-.1 1.3.5 2.5 1.4 3.6 2.2 2.2 1.6 4.4 3.8 5.7 6.2.4.7.6 1.4.6 2.2 0 .9-.4 1.7-.8 2.5l-1.2 2.4c-.3.7-1 1.4-.7 2.2.1.2.1.2.2.2zm-19.7-2.5c.4 0 .6 0 1-.3l1.1-.8 2.3-1.4c1.6-.8 3.3-1.2 5-1 3 .2 4.9 2.5 5.8 5.2.4 1.3.6 2.7.6 4.1 0 1.6-.2 3.2-1.2 4.5-1.8 2.2-4.7 3.1-6.7 5.1-1.2 1.2-2.2 2.8-3.6 3.8-1.2.8-2.9 1.1-4.1.2-.5-.4-1.4.1-1 .7 1 1.3 2.6 1.5 4.1 1.1 1.7-.4 2.9-1.6 4-2.9 1.2-1.4 2.3-2.6 3.8-3.5 1.3-.9 2.8-1.6 3.9-2.8 2.5-2.4 2.5-6.3 1.8-9.5-.7-3-2.4-5.8-5.5-6.8-2.1-.7-4.2-.2-6.3.6-1 .4-2 1-3 1.6-.5.3-.9.6-1.4 1-.2.1-.4.3-.6.4-.2.2-.2.3-.3.6.1 0 .2.1.3.1zm-.9 18.3c.7-.3.8-1.4 1-2l.7-2.4c.2-.7.3-1.6.6-2.3.3-.6 1.1-.6 1.7-.7 1.2-.2 2.5-.3 3.7-.8.9-.3 2.8-1.1 2.7-2.3 0-.2-.2-.4-.4-.4-.7 0-1 .5-1.6.9-.6.3-1.2.5-1.8.7l-3.9.7c-.7.1-1.3.5-1.6 1.2s-.5 1.5-.7 2.3l-.7 2.5c-.2.7-.6 1.8-.2 2.4.2.3.4.3.5.2zm-4.1-3.5c0-.1 0-.3 0 0-.1.3-.2.4-.3.6-.3.4-.7.9-1.1 1.3l-2.3 2.5-4.7 4.6c-3.3 3-6.9 5.7-10.6 8.1l-3.2 2c-1.1.6-2.2 1.2-3.2 2-.5.4-.2 1.3.5 1.1 2.2-.6 4.3-2 6.2-3.2 2-1.2 3.9-2.6 5.8-4 3.7-2.8 7.1-5.9 10.3-9.3.9-1 1.8-2 2.6-3 .6-.7 1.6-1.7 1-2.7-.1-.2-.3-.3-.6-.2-.1 0-.2 0-.2.1-.2-.2-.3 0-.2.1zm-18.9-37.3c-.2 0-.3 0-.4.1v.1c-.1 0-.1-.1-.2-.1-.3 0-.5.2-.8.3l-1.7.9c-1.1.7-2.2 1.5-3.3 2.4-2.1 1.7-3.9 3.7-5.5 5.8-.5.7.7 1.4 1.2.7 1.489-1.988 3.2-3.8 5.1-5.4.9-.8 1.9-1.5 2.9-2.2.5-.4 1-.7 1.6-1.1.4-.3 1-.5 1-1l-.2.3c.2-.1.3-.3.5-.5 0-.2-.1-.4-.2-.3z"/><path d="M98.401 254.1c-.2.2-.5.2-.7.3s-.4.3-.5.5l-1.2 1.3-2.1 2.6c-1.4 1.7-2.6 3.6-3.7 5.5-1.1 2-1.9 4.1-2.5 6.4l-1.8 7-1.3 3.5c-.5 1.3-1.1 2.4-1.8 3.6-.1.2.1.4.3.2l2-2.5c.6-.9 1.3-1.9 1.7-2.9 1-2.2 1.5-4.5 2-6.8s1.2-4.5 2.2-6.6c1-2 2.2-3.9 3.5-5.6l2.2-2.9 1.2-1.5a3.05 3.05 0 0 0 .5-.7c.1-.3.1-.6.3-.8.2-.6-.2-.8-.3-.6zm3 52.1c-1.4 3.1-2.9 6-4.8 8.8s-4.1 5.4-6.4 7.9c-4.6 5.1-9.5 9.8-13.8 15.1-1.2 1.5-2.4 3-3.5 4.6-.5.8-1.1 1.6-1.6 2.4s-1 1.6-1.1 2.6c0 .5.6.6.9.4.7-.5 1-1.3 1.5-2 .4-.7.9-1.4 1.4-2.1.9-1.4 2-2.7 3-4.1 2.2-2.7 4.5-5.2 6.8-7.7 4.7-4.9 9.5-9.7 13.4-15.3 2.1-3 4.1-6.4 5.2-10 .3-.7-.7-1.2-1-.6zm-20.2-20.1c-1.2-.4-2.7.2-3.8.6-1.2.4-2.3 1-3.4 1.7-2.4 1.6-4 3.9-5.6 6.2l-11 16.1-3.1 4.6c-1 1.5-2.2 2.9-2.7 4.6-.2.5.5.8.9.5 1.2-1 2-2.4 2.9-3.7l2.7-3.9 5.3-7.9 5.2-7.8c1.6-2.4 3-4.9 5.2-6.8 1.1-.9 2.3-1.6 3.6-2.2l2.1-.8s1.3-.4 1.8-.8c.3 0 .1-.3-.1-.4zm-31.3 33c-.2.2 0 .6.3.6.7 0 .4-.9 0-1.1-1.3-.6-2.7-.2-3.6.9-1.4 1.6-.6 3.9.2 5.6l2.9 6.1c2.1 4 4.5 7.8 6.9 11.6 2.2 3.5 4.8 6.8 8.4 9 .928.607 1.939 1.078 3 1.4.9.3 2.1.7 3.1.6 1 0 2.1-.8 1.9-1.9-.2-.9-1.2-1.8-2.1-1.1-.3.3-.5.6-.3 1.1.1.4.6.7 1 .5-.4.1-.3-.1-.4-.2-.2-.6.2-.1 0-.2s-.6 0-.9-.1c-.7-.1-1.4-.3-2-.6-1.3-.5-2.5-1.2-3.6-2-2.4-1.8-4.3-4.2-6-6.7-1.8-2.7-3.5-5.5-5.1-8.3-1.7-2.9-3.3-5.8-4.7-8.8-.7-1.5-1.7-3.2-1.4-5 .1-.7.5-1.2 1.2-1.4.3-.1.6-.1.9 0 .1 0 .2.1.2.2.1 0 .2.1.3.1.1.3.1.1-.2-.3z"/><path d="M71.199 352.1c-3.2 3-6.2 6.3-9.1 9.6-2.9 3.4-5.7 6.8-8.4 10.4-1.5 2-3 3.9-3.9 6.2-.2.4.4.7.7.4 1.6-1.4 2.9-3.2 4.2-4.9 1.3-1.8 2.7-3.5 4.1-5.2 2.7-3.4 5.6-6.7 8.5-10 1.7-1.8 3.4-3.6 5-5.5.6-.6-.4-1.6-1.1-1zm-25-33.6c-.9.5-1.6 1.2-2.4 1.8l-2.2 1.8-4.8 3.5-5 3.1-2.5 1.4c-.9.5-1.7 1.1-2.5 1.7-.4.3-.2 1 .3.8 1-.2 1.9-.5 2.9-.9.9-.4 1.8-.9 2.7-1.4l5.1-3.2 4.8-3.6c1.5-1.2 3.3-2.5 4.4-4.2.3-.5-.3-1.1-.8-.8z"/><path d="M52.598 376.3c-.2-.7-.8-1.1-1.3-1.7l-1.9-1.8-3.5-3.4-6.7-7.3c-4.1-5-7.6-10.6-9.5-16.9-.5-1.7-.9-3.4-1.2-5.1l-.3-2.6c-.1-.9 0-1.9-.4-2.7-.2-.4-.9-.4-1.1 0-.4.7-.3 1.5-.3 2.3.1.9.1 1.7.3 2.6.2 1.6.5 3.2 1 4.8.9 3.2 2.2 6.3 3.7 9.2 3.2 6 7.7 11.2 12.5 15.9l4.3 3.9c.7.6 1.4 1.2 2.2 1.8.7.5 1.3 1.2 2.1 1.3.1 0 .2-.2.1-.3zm-50-71.9c.4 2 .6 4.2.7 6.3v6.3c-.2 4.3-.7 8.5-.8 12.8-.2 7.9 1 15.9 3.4 23.4 1.406 4.23 3.214 8.315 5.4 12.2.1.3.5.5.8.4 5.9-.3 11.2 3.1 14.8 7.5 1.8 2.2 3 4.7 4.7 6.9 1.5 2 3.3 4 5.9 4.3 1.9.3 3.6-.5 5.4-1.2 2-.8 4.1-1.4 6-2.4.9-.4.2-1.8-.6-1.5-1.8.5-3.6 1.3-5.4 1.9-1.5.6-3.1 1.4-4.7 1.3-2.4-.1-4.2-2.4-5.5-4.2-1.6-2.3-2.9-4.7-4.7-6.9-1.9-2.2-4.1-4.1-6.6-5.5-2.8-1.6-6-2.4-9.2-2.2l.8.4c-3.9-6.8-6.5-14.3-7.8-22-.7-3.9-.9-7.8-.9-11.7.1-4.2.5-8.5.7-12.7.1-2.3.2-4.7 0-7-.1-2.4-.6-4.6-1.2-6.9-.2-.5-1.3-.2-1.2.5zm108.4-66.3c-.2-.9-1-1.8-1.6-2.5l-1.8-2.3c-1.3-1.6-2.8-3.1-4.2-4.6-2.9-2.9-6-5.6-9.3-8-.9-.7-1.9-1.3-2.9-2-.5-.3-1-.6-1.4-.9-.5-.3-1-.6-1.6-.8-.3-.1-.5.3-.3.6.6.7 1.6 1.2 2.4 1.7.8.6 1.7 1.1 2.5 1.7 1.7 1.2 3.3 2.4 4.8 3.7a86.28 86.28 0 0 1 8.7 8.4l2.3 2.6c.4.4.7.9 1.1 1.3.3.4.6.9 1.1 1.1.1.3.3.1.2 0zm28.1 48.8l2.6 7 2.1 7c1.2 4.8 2.1 9.7 2.6 14.7 1.1 10 1 20.2.3 30.3-.7 10.9-2 21.8-2.9 32.6-.4 5.5-.8 11-.9 16.5s.1 10.9.4 16.4c.7 10.9 1.8 21.9 1.4 32.8 0 1.4-.1 2.8-.2 4.1 0 .6.9.6 1 0 .9-11 .2-22.1-.4-33.1-.3-5.5-.6-10.9-.6-16.4s.3-11 .6-16.5l2.9-32.9c.8-10.2 1.1-20.4.2-30.6-.9-9.9-2.8-19.8-6.7-29-.5-1.1-1-2.2-1.7-3.2 0-.6-.8-.3-.7.3zm-58.7 47.5c-.1.3-.2.6-.2.9s.1.8.1 1.1l.4 2.2.4 4.2c.1 3-.2 5.9-.6 8.9-.9 6-2.6 11.9-4.1 17.8-1.5 6-2.6 12-3.2 18.2s-.8 12.5-.8 18.7c0 3.536.1 7.07.3 10.6.1 1.8.1 3.5.2 5.3s.1 3.5.3 5.3c.1.5.7.5.8 0 .1-1.6 0-3.2-.1-4.8 0-1.6-.1-3.1-.1-4.7-.1-3.2-.1-6.4-.1-9.5 0-6.3.2-12.6.9-18.9.7-6.2 1.7-12.4 3.2-18.4 1.5-5.9 3.2-11.8 4.2-17.8.6-3.3.9-6.6.8-9.9 0-1.6-.2-3.3-.4-4.9-.1-.8-.3-1.6-.5-2.4-.1-.4-.3-.8-.4-1.2-.2-.3-.5-.6-.8-.8-.1-.1-.3 0-.3.1zm62.8 113.7c-1.2-.3-2.5-.1-3.7-.2-1.3 0-2.6-.1-3.9-.2-2.6-.2-5.2-.6-7.8-1-5.1-.9-10.1-2-15.2-3.2-8.8-2.1-17.8-4.2-26.2-7.7-4.6-2-9-4.4-13.1-7.2-.4-.3-.9.4-.5.7 6.7 6.1 15.4 9.4 24 11.9 4.4 1.3 8.9 2.4 13.4 3.4 5.1 1.2 10.3 2.4 15.5 3.3 2.9.5 5.7.7 8.6.9 1.5.1 3 .1 4.5.2 1.4 0 3 .2 4.3-.3.3-.2.4-.5.1-.6zm-22.5-134.2c-1.5 5.9-2.6 12-4.2 17.9s-3.5 11.6-6.1 17.1-6 10.7-10.1 15.2c-2.3 2.5-4.8 4.9-7.1 7.5-2.1 2.3-4.2 4.8-6 7.4-2.1 2.9-4 5.9-5.7 9-.9 1.6-1.7 3.2-2.5 4.8s-1.3 3.3-1.9 4.9c-.1.2.2.3.3.1.7-1.5 1.6-2.8 2.3-4.3s1.5-2.9 2.3-4.3c1.6-2.8 3.3-5.5 5.3-8 1.9-2.5 4-5 6.1-7.3 2.3-2.5 4.8-4.9 7.1-7.3 4.4-4.6 8-9.6 10.7-15.3 2.6-5.4 4.5-11.2 6-17 1.7-6.6 3.1-13.4 4-20.2 0-.4-.4-.5-.5-.2zm-7.5 55.2c-1 1.2-1.7 2.5-2.5 3.9l-2.5 3.8-5.3 7.8c-1.7 2.3-3.4 4.6-5.5 6.5-2.2 2-4.9 3.3-7.5 4.7-1.6.8-3.1 1.7-4.6 2.6s-3.2 1.7-4.6 2.9c-.2.2 0 .6.3.5 1.5-.4 3-1.2 4.4-1.9l4.5-2.1c2.7-1.3 5.4-2.8 7.8-4.7 2.3-1.8 4.1-4.1 5.7-6.5l5-7.9 2.7-4.5c.9-1.6 1.8-3.1 2.4-4.8.2-.3-.2-.5-.3-.3zm-28.2-139c-.1.1-.2.2-.3.2-.3.1-.7-.1-1-.1l-2-.3c-1.3-.2-2.6-.3-3.9-.3-2.6 0-5.3.2-7.9.6-5.4.8-10.6 2.4-15.8 4.2-2.9 1-5.8 2-8.5 3.4-.5.2-.1 1 .3.8 2.8-.9 5.6-2 8.4-3s5.6-2 8.5-2.7c5.7-1.6 11.5-2.4 17.4-2.1.8 0 1.6.1 2.3.2s1.5.3 2.2.2c.3-.1.8-.3.9-.7.1-.3-.1-.5-.4-.5-.2-.2-.3 0-.2.1zm72.6 9c3.5 3.2 6.1 7 8 11.2 2 4.3 3.3 8.9 4.5 13.5 1.4 5.5 2.9 11 3.7 16.7s1 11.5 1.2 17.3c.2 11.6.7 23.1 2 34.6 1.3 11.4 3.3 22.8 5.8 34 2.5 10.9 5.2 22.1 3.9 33.4-.2 1.4-.3 2.8-.5 4.2-.1.6.8.6.9.1 1.7-5.3 1.7-11.2 1.2-16.7-.5-5.7-1.7-11.2-2.9-16.8-2.5-11.4-4.9-22.9-6.4-34.5s-2.2-23.2-2.4-34.9c-.1-5.8-.2-11.7-.8-17.5s-1.9-11.4-3.4-17c-2.4-9.1-5.3-18.7-11.7-25.7-.8-.9-1.6-1.6-2.5-2.4-.5-.4-1.1.1-.6.5zm12.2-39.8c3 4 6.1 7.8 8.9 11.8 2.8 4.1 5.3 8.4 7.6 12.7 4.6 8.8 8 18.3 9.1 28.1 1.3 11.3 0 22.7-1.4 34-1.4 11.4-2.5 22.7-2.4 34.2 0 11.4.9 22.7 2.5 34 .2 1.4.4 2.8.7 4.1.1.3.5.2.5-.1-.5-5.7-1.5-11.4-1.7-17.2l-.5-17.1c0-11.6.8-23.1 2.2-34.5s3-22.8 2.1-34.3c-.8-10-3.7-19.7-8.2-28.7-4.4-8.9-10.2-17-16.4-24.7-.8-1-1.6-1.9-2.5-2.9-.2-.2-.8.2-.5.6z"/><path d="M193.101 313.4c-.1.4-.3.7-.3 1.1s.1.9.2 1.3l.6 2.6 1.6 5.2c1.2 3.4 2.7 6.7 4.5 9.8 3.2 5.8 7.4 10.9 10.6 16.7.9 1.6 1.7 3.2 2.4 4.9l.9 2.5c.1.5.3.9.4 1.4s.4.9.5 1.3c.1.5 1 .4 1-.1v-1.2c0-.4-.1-.8-.2-1.2-.2-.8-.4-1.6-.7-2.3-.5-1.5-1.2-3-1.9-4.5-1.5-2.9-3.3-5.7-5.1-8.4-1.9-2.8-3.8-5.5-5.5-8.3-1.8-3.1-3.5-6.3-4.8-9.7-.8-1.9-1.4-3.8-2-5.7-.3-.9-.6-1.9-.8-2.8-.1-.5-.2-1-.4-1.5-.2-.4-.5-.7-.7-1-.2-.2-.3-.1-.3-.1z"/><path d="M215.1 357.1c-.5.8-.5 1.9-.7 2.8l-.6 2.9c-.4 2-1 3.9-1.6 5.9-1.3 3.9-2.9 7.7-4.6 11.5-3.2 7-6.3 14.5-11.8 20.1-2.8 2.8-6.2 4.8-9.9 6.3-.4.2-.4 1 .1.9 1.9-.2 3.5-.8 5.1-1.7s3.1-1.9 4.4-3.1c2.9-2.5 5.3-5.7 7.2-9 2.1-3.6 3.8-7.3 5.5-11.1 1.8-3.9 3.5-7.8 4.9-11.8.8-2.2 1.4-4.5 1.9-6.9.2-1.1.4-2.3.5-3.5.1-1.1.3-2.3-.1-3.3 0-.2-.2-.2-.3 0zm-77.3-127.4c-.4-.6-1 .4-1 .7h.8c-.1-.5-.4-1-.8-1.4l-1.3-1.6-2.5-3.2-2.5-3.2c-.8-1.1-1.6-2.3-2.6-3.2-.5-.4-1.1.1-.9.7.5 1.2 1.5 2.2 2.3 3.3l2.5 3.2 2.5 3c.5.5.9 1.1 1.4 1.6.4.4.8 1 1.4 1.2.3.1.6-.2.5-.5 0 0-.2-.7 0-.5.1.2.3 0 .2-.1zM126.4 219c-.1-.3 0-.6.3-.8l-.1-.4c-.3-.1-.5 0-.8.1-.4.2-.8.3-1.2.2-.3 0-.6.1-.7.4-.2.9-.1 1.8.3 2.7l.4-.9c-2.8 1-5.9 2.2-7.2 5.1-.7 1.6-.4 3.2 0 4.7l.7 2.6c.2.8.4 2 1 2.7.3.4.9.3 1-.3.1-.8-.2-1.6-.5-2.3l-.7-2.4c-.4-1.4-.9-2.9-.4-4.4.9-2.7 3.9-3.8 6.4-4.6.4-.1.6-.5.4-.9-.3-.6-.3-1.2-.3-1.9l-.6.6c.7 0 2.6-.3 2.3-1.3 0-.2-.2-.2-.4-.1-.4.3-.4.8-.2 1.2.1.2.3.2.3 0zm15.7 19.7v.3.2c0 .2.2.3.2.5l-.1-.3c0 .2.1.4.2.6s.1.3.2.5c.2.3.3.6.5 1 .3.6.6 1.4 1.1 1.8.1.1.3.2.5.1s.3-.2.3-.4c-.1-.8-.5-1.4-.9-2.1-.2-.3-.3-.6-.5-.9-.074-.15-.176-.286-.3-.4-.1-.2-.2-.4-.4-.5l.2.2c-.2-.3-.4-.7-.8-.8l.2.1-.1-.1c0-.3-.5-.2-.3.2z"/><path d="M129.098 219c.1 0 .2.1.3.1l-.2-.2c.1.2.3.4.5.4 2.1-.1 2.9-2.9 3.4-4.5.5-1.7 1-4.9-1.1-5.7-.3-.1-.5.2-.4.4.1.8.4 1.5.5 2.3.1.9-.1 1.7-.3 2.6-.2.8-.4 1.6-.8 2.4-.3.6-.7 1.4-1.4 1.6-.179.079-.321.222-.4.4v.1l.2-.2h-.2c-.3-.1-.4.2-.1.3zm4 4.1c.7-.1 1.2-.7 1.6-1.1s.8-1 1.2-1.6c.3-.5.6-1.1.8-1.7.1-.3.2-.7.2-1v-.5c0-.2 0-.3-.1-.5s-.5-.3-.7-.1a.76.76 0 0 0-.2.4l.1-.2c-.4.5-.5 1-.7 1.5s-.4.9-.7 1.4c-.3.4-.5.9-.9 1.2-.4.4-.9.8-1.1 1.3l.1-.3c-.1.1-.2.2-.2.4 0 .5.2.9.6.8zm-16.5 3c-.3-.2-.8-.3-1.2-.4l-1.1-.2c-.4-.1-.8-.1-1.2-.2-.5-.1-1-.2-1.4.1-.3.2-.3.5-.1.7.3.4.8.4 1.3.5.4.1.8.1 1.2.2s.8.1 1.2.2.9.1 1.3 0c.3-.1.3-.6 0-.9zm1 5c-.2-.3-.3-.3-.6-.4h-.6c-.4 0-.8 0-1.1-.1-.3 0-.6-.1-1-.1-.4-.1-.8-.2-1.2-.2-.6 0-.9.9-.3 1.2a3.08 3.08 0 0 0 1.3.3c.4.1.9.1 1.3.1s.9 0 1.3-.1c.2 0 .4-.1.6-.1s.3-.2.4-.4c-.1 0-.1-.1-.1-.2zm-29.8 39.8c-.3 0-.5-.1-.9 0-.4.2-.8.4-1.2.7l-2.5 1.5c-1.5.9-3.2 1.8-4.5 3.1-1.1 1-1.6 2.4-1 3.8.3.6.7 1.1 1.1 1.6.1.2.3.4.4.7l.3.8c.1.2.4.4.6.2 1.2-.8.4-2.1-.3-2.9-.3-.4-.8-.9-.9-1.5-.1-.7.4-1.3.9-1.7.625-.523 1.295-.991 2-1.4l2.4-1.6 2.3-1.6c.406-.208.777-.478 1.1-.8.1-.1.3-.3.3-.4.1-.1 0-.3.1-.4 0-.1-.1-.1-.2-.1zm41.7 17.1c0 .2-.1.4 0 .7s.3.6.5.8c.3.7.7 1.3.9 2 .5 1.3.9 2.8.9 4.2.1 1.5-1 2.1-2.2 2.9l-3.8 2.4c-5.2 3.1-10.5 6.1-15.9 8.8-.8.4-1.6.8-2.3 1.2l-1.2.6c-.1.1-.4.3-.5.3.1.1.1.1 0 0 0-.1-.1-.1-.1-.2-.3-.5-.7-.9-1.4-.9-.5 0-1 .4-1 1s.8.9 1.1.3l-.3.1h.1c0 .1-.3-.3.1.2.2.2.3.4.5.6.5.4 1.1.4 1.7.1l4.2-2.1c2.8-1.4 5.6-2.9 8.4-4.4s5.5-3.2 8.1-4.8c1.3-.8 2.6-1.6 3.9-2.5 1.1-.8 1.9-1.7 1.9-3.1.1-1.5-.4-3.2-1-4.6-.3-.7-.6-1.4-1-2.1-.4-.6-.7-1.4-1.4-1.6-.1-.1-.2 0-.2.1zm15-78.3s.2.2.3.2.2.1.2.1l-.2-.2c.1.3.4.3.7.3.2 0 .4.1.6.1l-.3-.3c.2.2.4.5.5.8 0 .1.1.3.1.4v.2c0 .1 0 .1 0 0v.1.5.1c0 .1 0 .2-.1.2 0-.1 0 .1 0 .1 0 .1-.1.1-.1.2l-.2.2-.1.1c-.1 0-.1.1-.2.1s-.1.1-.2.1c.1 0-.1 0-.1 0h-.1c.1 0-.1 0-.1 0h-.1c.1 0 0 0-.1 0h-.1l-.1-.1c.1.1-.1 0 0 0l-.1-.1-.1-.1c.1.1 0 0 0-.1 0 0 0-.1-.1-.1v-.1-.2c0 .1 0 0 0-.1v-.2-.1-.1-.1l.2-.2.1-.1c.1 0 .1-.1.1-.1l-.3.1h.1c-.1 0 .2 0 .2 0h-.1c.3.2.6.1.7-.3 0-.3-.1-.5-.3-.6-.1-.1-.2-.1-.3-.1h-.1c-.1 0-.1 0 .1 0-.1 0-.1-.1-.2-.1h-.2c-.6 0-1 .4-1.2 1-.3.8 0 1.9.7 2.4.8.7 2 .6 2.8 0 .9-.7 1.3-1.8 1.1-2.9-.1-.6-.4-1.1-.8-1.6-.1-.1-.3-.3-.5-.4s-.4 0-.6 0h-.4c-.3 0-.4.1-.6.3l.3-.2h-.3c-.1 0-.2.2-.3.2-.2.4-.3.6-.2.7zm26.3 34.7c.1 0 .2.1.3.1h.2.6c-.1 0 .1 0 .1 0s.2.1.1 0c.1 0 .1 0 .2.1.2.1-.1-.1.1 0 .1 0 .1.1.2.1l.1.1.2.2.1.1s0 .1.1.1c0 .1.1.2.1.3v.2.3c0 .2 0-.1 0 0v.1c0 .1-.1.2-.1.3l-.1.1s0 .1-.1.1l-.2.2c.1-.1-.1.1 0 0l-.1.1s-.1 0-.1.1c-.1 0-.1.1-.2.1s-.2 0-.2.1c.1 0-.2 0 0 0h-.1-.3-.1c-.1 0-.2 0-.2-.1h-.1c-.1 0-.1-.1-.2-.1l-.1-.1-.2-.2c.1.1-.1-.1 0 0l-.1-.1c-.1-.1-.1-.2-.1-.3 0 .1-.1-.1 0 0 0-.1 0-.1-.1-.2 0-.1 0-.2-.1-.3 0 .1 0 .1 0 0v-.2-.3-.1c0-.1 0-.2.1-.3 0-.1.1-.2.1-.3l-.6.5c.2 0-.1 0 0 0h.1.1l.1.1c.1.1.1.1.1.2.2.3.8.2.8-.2s-.1-.6-.4-.9c0-.1-.1-.1-.1-.2l-.2-.2c-.1-.1-.3-.1-.5-.2-.3-.1-.6 0-.7.3-.3.4-.4 1-.4 1.5s.1 1 .4 1.5c.5.9 1.4 1.5 2.4 1.5s2-.5 2.5-1.3c.5-1 .4-2.2-.4-3.1-.4-.4-1-.7-1.6-.7h-.8a.76.76 0 0 0-.4.2c-.1.1-.2.2-.3.4s0 .3.1.4zm9.4 51.9c-.1-.1.2.1.1 0 0 0 .1 0 .1.1h.1c-.1 0 .1 0 .1 0 .1 0 .1 0 .2.1 0 0 .1.1.1 0 .1 0 .1.1.2.1l.1.1.2.2.1.1c0 .1.1.1.1.2 0 0 0 .1.1.1 0 .1 0 .1.1.2v.1c0 .1 0-.1 0 0v.1.1.1.1l-.1.2v.1c.1-.1-.1.1 0 0l-.1.1-.1.1s-.1.1-.2.1h-.1s-.2.1-.1 0h-.1-.2c.1 0-.1 0 0 0h-.1-.1-.1c.1 0-.1 0-.1 0h-.1c-.1 0-.1-.1-.2-.1h-.1c.1.1.1.1 0 0l-.1-.1v-.1c0-.1-.1-.1-.1-.2v-.1c0-.1 0-.1-.1-.2v-.1c0 .1 0-.1 0 0v-.2-.1c0 .1 0-.1 0 0 0-.1 0-.2.1-.2v-.1c0-.1-.1.1 0 0 0-.1.1-.1.1-.2s.1-.1.1-.2 0 0 0 .1c-.1.1-.1.1 0 .1l-.2.1c.2-.1-.2 0-.1 0h-.1l.1.1c.1.2.4.2.6.1.3-.2.2-.6 0-.8-.1-.1-.2-.1-.3-.2 0 0-.2-.1-.1 0-.1-.1-.2-.1-.3-.1l.3.1c-.3-.1-.7-.1-.9.1s-.3.4-.4.7c-.1.4-.1.8-.1 1.2.1.8.7 1.5 1.5 1.8s1.8 0 2.4-.6c.7-.7.8-1.6.4-2.5a2.41 2.41 0 0 0-1-1c-.2-.1-.5-.2-.8-.2h-.4c-.1 0-.1.1-.2.1.1-.1 0 0-.1 0-.5.1-.4.5-.1.5zm2.6 38.1c.3.3.7.5 1 .8.1.1.3.2.4.4.2.2.3.3.4.5 0 0 0 .1.1.1 0 0 .1.1 0 .1 0 .1.1.2.1.3s0 .2.1.3v.1c0-.1 0 0 0 .1v.3c0-.1 0 0 0 .1v.1s-.1.2 0 .1c0-.1 0 .1 0 .1s0 .1-.1.1l-.1.1-.1.1c.1 0-.1.1 0 0-.1 0-.1.1-.2.1h-.1l-.2.1h-.1-.2-.1c-.1 0-.1 0-.2-.1h-.1c-.1 0-.1-.1-.2-.1 0 0-.1 0-.1-.1.1.1-.1 0 0 0l-.2-.2s0-.1-.1-.1c0-.1-.1-.1-.1-.2v-.1-.2c0 .1 0-.1 0 0v-.3-.1c0 .1 0-.1 0 0 0-.1 0-.2.1-.3v-.1s.1-.2 0-.1c.1-.2.2-.4.3-.5s-.1.1 0 0l.1-.1.2-.2-1.1-.3c.2.6.7 1.3 1.4 1.3.2 0 .4-.2.4-.5l-.3-.6s-.1-.2 0-.1c0-.1 0-.1-.1-.2 0-.1-.1-.2-.1-.3-.1-.5-.7-.6-1.1-.3-1.4 1.2-1.7 4 .2 4.8.8.3 1.7.4 2.4-.1.9-.7 1-1.9.6-2.8-.2-.5-.6-.9-1.1-1.3-.2-.2-.5-.3-.7-.5l-.8-.3c-.2-.7-.5-.2-.3.1zm8.2 37.6c.2.4.5.8.7 1.2.1.2.2.4.2.6v.1c0 .1 0-.1 0 .1v.4.2c0-.1 0 .1 0 .1v.1s-.1.2 0 .1c0 .1-.1.1-.1.2 0 0 0 .1-.1.1l-.2.2-.1.1c-.1 0-.1.1-.2.1h-.1c-.1 0-.2 0-.2.1h-.1c.1 0-.1 0 0 0h-.2-.2-.1c-.1 0-.1 0-.2-.1.1.1-.1 0 0 0h-.1s-.1 0-.1-.1l-.2-.2-.1-.1-.1-.2v-.1-.1-.2c0-.1 0-.2.1-.2v-.1c0 .1 0 .1 0 0s.1-.2.1-.3v-.1c-.1.1-.1.1 0 0l.1-.1.2-.2c.1-.1-.1.1 0 0l.1-.1s.1 0 .1-.1l.2-.1c.3-.1.4-.2.5-.5l-.4.4a.5.5 0 0 0 .354-.146c.093-.094.146-.221.146-.354a.5.5 0 0 0-.5-.5h-.1l.4.3c-.4-.6-1.2-.3-1.6 0s-.7.6-.9 1c-.4.9-.4 1.9.3 2.6 1.2 1.4 3.8.8 4.2-1 .2-.7 0-1.3-.3-1.9s-.7-1.1-1.1-1.5c-.1-.5-.6-.1-.4.3z"/><path d="M167.9 205.4c1.4.8 2.7 1.6 3.7 2.9.9 1.3 1.4 2.9 1.3 4.5l.7-.7c-4.1-.4-8.3.1-12.1 1.5-.8.3-1.9 1.1-2.6.3-.6-.7-1-1.8-1.4-2.6-.2-.5-.5-.9-.7-1.4-.1-.2-.3-.4-.3-.6 0-.3.1-.3.4-.4 1-.4 2.1-.6 3.1-.9 1.2-.3 2.4-.7 3.5-1 .6-.2 1.3-.4 1.9-.5.6-.2 1.1-.3 1.6-.7.3-.2.1-.8-.2-.9-.6-.1-1.1 0-1.7.2s-1.3.4-1.9.5c-1.2.3-2.4.7-3.7 1-1.1.3-2.4.5-3.4 1s-1.1 1.4-.7 2.4c.5 1.1 1.2 2.2 1.7 3.3.4.8.9 1.7 1.8 2 1.1.4 2.2-.3 3.2-.7 1.1-.4 2.2-.7 3.4-1 2.7-.6 5.4-.7 8.2-.4.4 0 .6-.3.7-.7.1-1.9-.5-3.8-1.6-5.3-1-1.4-2.7-2.8-4.5-2.8-.5.4-.7.8-.4 1zm5.5 8.7c.4 1 1.2 1.8 1.8 2.7l2.2 2.9c1.4 1.9 2.6 3.9 3.8 6l3.1 6.3c.4 1 1.2 2.3.9 3.4-.2.9-1 1.4-1.7 1.7-1.1.4-2.2.4-3.3.5-1.3.1-2.6.2-3.7.8l1.1.4c-2-7.1-5.7-13.7-10.8-19.1l-2.1-2.1c-.8-.7-1.6-1.5-2.5-2.1-.7-.5-1.4.5-.9 1.1.2.3.5.5.8.7.3.3.7-.2.7-.5a12.59 12.59 0 0 0-.3-1l-1.1.9c.62.619 1.289 1.188 2 1.7.7.6 1.3 1.2 2 1.9 1.2 1.3 2.4 2.6 3.5 4.1 2.1 2.8 4 5.9 5.4 9.2.8 1.9 1.5 3.8 2 5.7.1.5.7.7 1.1.4 2.1-1.1 4.6-.3 6.8-1.2.9-.4 1.8-.9 2.3-1.7.6-1 .6-2.2.2-3.3-.8-2.4-2-4.7-3.2-6.9s-2.5-4.3-3.9-6.4c-.8-1.1-1.6-2.3-2.5-3.4s-1.7-2.3-2.9-3c-.6-.1-.9.1-.8.3zM17.9 304.6c.2 0 .4.3.6.4s.5.1.7.2c.4.1.9.2 1.3.4l2.9.9c.9.3 1.9.7 2.8 1.1l1.4.6c.4.2.8.5 1.3.5.2 0 .4-.3.3-.5-.3-.4-.7-.6-1.1-.8l-1.4-.8-2.8-1.2-2.9-.9-1.6-.3c-.2 0-.5-.1-.7-.1s-.6.2-.8.2-.2.2 0 .3zm101.3 7.8c.1 0 .1-.1 0-.1s0 .1 0 .1zm64.5 60c-1 .9-1.9 2.1-2.8 3.1l-2.7 2.9c-1.9 1.9-4 3.7-6.2 5.4-4.3 3.3-9 6-14 8.1-1.4.6-2.8 1.1-4.3 1.6-.7.2-1.5.4-2.2.7-.4.1-.8.2-1.1.4-.4.2-.7.4-1.1.6s-.4.9.1.8c.7-.1 1.3 0 2-.1l2.1-.6c1.3-.4 2.6-.9 3.9-1.4 2.6-1 5.2-2.2 7.6-3.6 4.9-2.7 9.4-6 13.4-9.9 1.1-1.1 2.2-2.3 3.3-3.4 1-1.1 2.2-2.4 2.9-3.8.3-.7-.4-1.2-.9-.8zm1.898 8.6c-.6-.2-1 .1-1.5.4l-1.8 1.5-3.4 2.8-6.9 5.8c-2.2 1.8-4.4 3.5-6.8 5-2.3 1.4-4.7 2.5-7.1 3.4-1.4.5-2.8.9-4.2 1.2s-3 .4-4.3 1.1c-.4.2-.3.9.1 1 1.3.3 2.7 0 4-.3l3.9-1c2.5-.8 5-1.9 7.3-3.2 5.1-2.9 9.4-6.9 13.8-10.7 1.3-1.1 2.6-2.3 4-3.4l1.9-1.6c.6-.5 1.2-1 1.1-1.8 0-.1 0-.2-.1-.2zm-7.8 11.9c0 .6 0 .9.2 1.5l.6 1.8c.4 1.1.7 2.2 1 3.4l1.5 6.9c.4 2.3.7 4.7.8 7s.3 4.6.1 6.9c-.1 1.1-.4 2.1-1 3.1s-1.4 1.8-2.1 2.7l-2.3 2.8-1.2 1.4c-.1.2-.7.9-1 .8-.2 0-.1-.8-.1-1v-1.8-3.6l-.4-7.3c-.5-5.4-1.2-10.8-2.5-16.1-.2-.9-1.6-.5-1.4.4 1 5.2 1.9 10.3 2.3 15.6.2 2.6.4 5.2.4 7.7v4c0 1-.3 2.3.4 3.1s1.8.5 2.5-.1c.9-.8 1.7-1.9 2.4-2.8.8-1 1.7-2 2.5-3 .7-.9 1.5-1.8 1.9-2.8 1.1-2.2.9-4.8.8-7.1-.1-2.5-.3-5.1-.6-7.6-.4-2.8-.9-5.5-1.6-8.2l-1.2-4.1c-.2-.7-.5-1.3-.7-2-.1-.3-.2-.7-.4-1-.1-.3-.4-.5-.6-.7 0-.3-.3-.2-.3.1zm49.2-259.4c-.2-.7-.9-.9-1.5-1.2-.7-.4-1.4-.7-2.2-1.1l-4.1-2.2-8-5.2c-5.1-3.7-9.7-7.9-13.9-12.6-1.2-1.3-2.3-2.7-3.4-4-.5-.7-1.1-1.4-1.6-2.1-.6-.7-1.1-1.6-1.8-2.2-.4-.4-1.2 0-1 .6.5 1.5 1.7 2.8 2.6 4l3 3.8c2.1 2.5 4.3 4.8 6.7 7 4.7 4.4 9.8 8.2 15.4 11.4 1.6.9 3.2 1.8 4.8 2.6.8.4 1.6.8 2.4 1.1.7.3 1.5.8 2.3.4.3-.1.3-.2.3-.3zm-.3 2.2c-.3.1-.3.2-.1.1.2 0 .1-.1-.1-.1l-.1-.3c0 .1-.4.6-.4.7-.1.2-.2.5-.3.8-.2.6-.5 1.1-.7 1.7l-1.3 3.2-2.6 6.6-2.4 6c-.8 1.8-1.9 3.5-3 5.2-.047.084-.066.181-.053.277a.44.44 0 0 0 .377.377c.096.013.193-.006.276-.054 1.5-1 2.5-2.5 3.3-4.1l2.2-5.1 4.7-12.2.6-1.6s.5-1.1.4-1.7c0-.7-.8-.7-1.3-.4-.1.1-.1.3-.1.4 0 .2.1.3.3.4.1.1.3 0 .3-.2z"/><path d="M189.201 104.5c-.05-.074-.076-.161-.076-.25s.026-.176.076-.25l-.1-1c-.9.6-1.5 1.6-2.2 2.4l-2.2 2.7-4.1 5.1-4 4.8-2.1 2.4-.9 1.3c-.3.4-.7.8-.9 1.3-.024.042-.034.09-.027.138s.028.092.062.126.079.056.126.063.097-.003.139-.027c.5-.2.9-.6 1.3-.9l1.2-.9c.8-.7 1.5-1.5 2.2-2.3l4-4.8 4.1-5.2 2.1-2.7c.7-.9 1.5-1.7 1.9-2.7.4-.9-1.1-1-1-.3 0 .4 0 .7.1 1.1.1.1.3 0 .3-.1zm27.4 54.5c-.1-.1-.1-.3-.2-.4-.1-.2-.3-.3-.5-.4l-1.2-.6c-.9-.4-1.7-.9-2.5-1.4l-2.4-1.5c-.4-.2-.7-.5-1.1-.8-.4-.2-.9-.5-1.3-.6-.3 0-.6.2-.4.6s.6.7.9 1c.4.3.8.6 1.2.8l2.5 1.5c.8.5 1.7.9 2.5 1.3.4.2.9.4 1.3.5.2.1.4.2.6.2s.4-.2.6-.2c.1.2.1.1 0 0z"/><path d="M207.201 126.4c-.2.4-.2.7-.3 1.1v1.7 3.1 6.3l-.1 12.6c0 1.9 0 3.9-1.2 5.5-.3.4.4.9.7.6 1.2-1.2 1.6-2.9 1.7-4.5l.1-6.2v-13.1l-.1-3.6c0-.6 0-1.2-.1-1.9 0-.6 0-1.1-.3-1.6-.1-.2-.3-.2-.4 0z"/><path d="M205.599 126.8c-3.5 2.1-6.9 4.3-10.3 6.7-1.7 1.1-3.3 2.3-4.9 3.5-.8.6-1.7 1.2-2.5 1.8-.4.3-.7.6-1.1.8-.2.2-.4.3-.6.5s-.4.5-.6.6c-.5.4 0 1.2.5.9.2-.2.5-.2.8-.4.2-.1.4-.3.6-.4.4-.3.9-.6 1.3-.9.8-.6 1.6-1.1 2.3-1.7l5-3.6 10-7c.5-.3 0-1.2-.5-.8zm-18.1 11.8c-.2-.7-1.2-1.3-1.8-1.7l-2.1-1.8c-1.4-1.2-2.6-2.5-3.8-3.9s-2.2-3-3.2-4.6c-.5-.8-.9-1.6-1.3-2.4s-.6-1.7-1.1-2.4c-.5-.6-1.5-1.1-2.1-.4-.4.5-.4 1.4.3 1.6.5.2.7-.6.4-.9 0 .2.1.3.2.2 0 .1 0 .1.1.2l.3.6c.2.4.4.8.5 1.2.4.9.9 1.8 1.4 2.6 1 1.7 2.1 3.3 3.3 4.8s2.6 2.9 4.1 4.1l2.3 1.8c.6.4 1.5 1.2 2.3 1.1.1.2.2.1.2-.1zm17.7 17.1c-3.3 1.9-4.1 6.2-4.9 9.6-.4 1.8-1 3.6-1.9 5.3-.8 1.6-1.9 3.1-3.1 4.4-4.9 5.6-11.6 9.8-14.9 16.7-2.4 4.9-2.7 10.4-4 15.6-.1.4.5.7.7.3 2.2-4.2 2.4-9.1 4.1-13.5 1.3-3.6 3.8-6.5 6.4-9.1 5.2-5.2 11.5-9.8 13.7-17.1 1.1-3.9 1.3-8.5 4.6-11.3.4-.4-.2-1.1-.7-.9zm-134.1-47.5c.1 0 .1-.1 0-.1s0 .1 0 .1zm102.4 19.2c-1 .7-1.9 1.6-2.8 2.4l-2.7 2.8-5.4 5.5c-3.6 3.7-7.3 7.3-11 10.9-7.4 7.1-15.1 14-22.9 20.6-2 1.7-4 3.3-5.8 5.2-.9.9-1.8 1.9-2.6 2.9-.8 1.1-1.4 2.3-2 3.5-.3.5.5.9.8.4.7-1 1.5-1.8 2.2-2.7.8-.9 1.5-1.8 2.3-2.6 1.6-1.6 3.4-3.1 5.1-4.6l11.5-9.9c7.6-6.8 15-13.9 22.1-21.2l6-6.3c1-1 1.9-2.1 2.8-3.1.9-1.1 1.9-2.2 2.6-3.4.2-.3 0-.5-.2-.4z"/><path d="M124.999 173.3c-.2.5-.4.9-.7 1.3-.2.3 0 .5.3.6.4.2.9.2 1.3.3l1.4.3 2.9.4 5.5 1c3.6.8 7.2 1.8 10.6 3.4.9.4 1.8.9 2.7 1.4s1.8 1.2 2.8 1.6c.4.2.8-.4.6-.7-.5-.7-1.3-1.3-2.1-1.8l-2.4-1.5c-1.7-.9-3.5-1.6-5.3-2.2-3.7-1.2-7.5-2-11.4-2.5-1.1-.1-2.1-.3-3.2-.4-.5-.1-1.1-.1-1.6-.1h-1.6l.5.4c0-.5.1-1 .2-1.4-.1-.1-.4-.3-.5-.1zm77.4-13.8c-.8-1.7-1.8-3.2-3.3-4.5-1.3-1.1-2.8-2-4.3-2.8l-4.7-2.3c-.8-.4-1.5-.9-2.2-1.4s-1.5-1-2.1-1.6c-.5-.5-1.1.2-.7.7.3.3.5.7.8 1s.6.6 1 .8c.6.5 1.3.9 2 1.3 1.5.9 3.1 1.5 4.6 2.3 3.2 1.5 6.4 3.5 8 6.8.3.8 1.2.3.9-.3zm2.8-3.6c-.2-.1-.2-.4-.3-.6s-.3-.3-.5-.4l-1-.7-2.1-1.6c-.7-.5-1.3-1-2-1.6-.3-.3-.6-.5-.9-.8s-.7-.7-1.1-.8-.7.2-.6.6.5.7.8 1 .7.6 1 .8l2.1 1.7 2.1 1.5c.4.2.7.4 1.1.7l.6.3c.2.1.5 0 .7 0 .1.1.2 0 .1-.1zm-74.2 13.3c1-.2 2-.5 3-.8s2-.4 3-.6c2-.4 4-.7 6-.8 2-.2 4-.2 6-.1l3 .1c1.1 0 2.1.2 3.2.1.3 0 .4-.5.1-.6-1-.4-2.1-.5-3.1-.7-1.021-.199-2.059-.299-3.1-.3-2.1-.1-4.2 0-6.2.1l-6.1.9c-2 .5-4.2 1-6 1.9-.6.2-.3.9.2.8zm72.6-60.2c-1.6-1.4-3.3-2.6-4.7-4.2-1.4-1.7-2.5-3.5-3.4-5.5-1.9-4.3-2.7-9-3.5-13.6-.8-5.1-1.7-10.2-4-14.9-2-4-4.9-7.4-7.9-10.8-1.6-1.9-3.3-3.8-4.7-5.9-.7-1-1.4-2.1-2-3.1s-1-2.2-1.6-3.3c-.3-.6-1.1-.2-1 .4.3 2.2 1.6 4.2 2.8 6 1.2 1.9 2.7 3.6 4.1 5.4 2.9 3.4 6.1 6.8 8.3 10.7 5 8.9 3.9 19.6 7.8 28.8.9 2.3 2.1 4.4 3.7 6.3 1.5 1.8 3.4 3.7 5.7 4.3.4 0 .7-.4.4-.6zm-2.5-75.9c8.7 6.6 10.1 18.2 14.7 27.5 1.2 2.5 2.6 4.8 4.4 6.9 2.2 2.6 4.8 4.7 7.4 7 2.4 2.1 4.6 4.4 6.5 7 1.8 2.5 3.2 5.2 4.3 8.1 1.2 3.2 2.1 6.6 2.4 10 .2 1.7.2 3.4.2 5.1 0 1.8 0 3.6-.3 5.3-.1.6.7.8.9.2.4-1.5.7-3 .9-4.6s.1-3.1.1-4.7c-.2-3.1-.7-6.2-1.7-9.2-1.8-6-5.1-11.6-9.6-16-2.5-2.4-5.2-4.6-7.7-7-2.186-2.071-4.041-4.465-5.5-7.1-2.7-4.8-4.3-10.1-6.3-15.2-2.2-5.4-5-11-10.2-14.1-.6-.2-.9.5-.5.8zm38.2 79.4c-1.1 1.2-1.8 2.6-2.5 4.1s-1.5 2.8-2.3 4.2l-2.3 4.2-1.1 2.1c-.3.5-.5 1-.9 1.4-.4.5.1 1.1.7.9.3-.1.5-.2.8-.5.2-.2.4-.5.6-.7.4-.6.7-1.3 1.1-2l2.4-4.5 2.3-4.4c.8-1.5 1.6-2.9 2-4.5 0-.3-.5-.7-.8-.3z"/><path d="M193.402 100c-.1.1-.1.3-.1.4s-.1.2-.1.3l.1-.2c-.075.151-.177.286-.3.4l.1-.1c-.1.2-.3.3-.4.4l.1-.1c-.2.2-.4.2-.6.4l.1-.1s-.1 0-.1.1c-.1 0-.1.1-.1.1l.1-.1.1-.1c-.2.1-.5.1-.6.3-.1.1-.2.2-.1.3 0 .1.1.2.1.4.1.1.3.2.5.2h.3-.2c.2.1.4 0 .6 0h-.2c.3 0 .6-.2.8-.3.3-.2.5-.4.6-.6.2-.2.3-.4.3-.7 0-.1.1-.2.1-.3v-.3c0-.2 0-.3-.1-.4-.1-.2-.3-.3-.6-.3-.1 0-.2.2-.4.3zm-99.7-25.5c.1-.4.7-.3 1-.3.5 0 .9-.1 1.4-.1.9 0 1.8.1 2.7.3 1.8.4 3.5 1.1 5.2 1.9 1.5.7 3.1 1.4 4.5 2.4 1.3 1 2 2.4 2.5 3.9.5 1.6 1.3 3.5.6 5.1-.5 1.3-1.7 2.1-2.9 2.7-2.5 1.3-6.2 2.5-8.8 1-1.5-.8-3.1-2.6-3.3-4.4-.1-.8.1-1.5.8-2 .6-.5 1.4-.7 2-.3.5.3 1-.5.5-.9-1.4-.9-3.1-.1-4 1.1-1.1 1.7-.5 3.8.6 5.3 1.2 1.7 2.9 3 5 3.3 2 .3 4.1-.2 6-.9 1.7-.6 3.4-1.4 4.6-2.8 1.5-1.7 1.6-3.7 1-5.8-.5-2.1-1.2-4.2-2.6-5.8s-3.5-2.5-5.3-3.4c-2.3-1.1-4.7-2.1-7.2-2.4-.6-.1-1.3-.1-1.9-.1s-1.3 0-1.9.3-1.6 1.1-.9 1.8c.1.3.3.3.4.1z"/><path d="M107.9 78.1c.1 0 .3.2.4.2.2.1.4.1.6 0 .4 0 .9-.1 1.3-.1l2.5.1c1.7.2 3.4.6 5 1.2 3.2 1.3 6.1 3.6 7.9 6.6 1 1.8 1.4 3.8 1.4 5.9 0 .6.8.6 1 .1 1.5-3.8-1.4-8.1-4.1-10.5-2.9-2.6-6.5-4.2-10.3-4.7-1.1-.1-2.1-.2-3.2-.1-.5 0-1 .1-1.5.1-.3 0-.6.1-.8.2s-.3.3-.5.4c-.1.2 0 .6.3.6z"/><path d="M120.998 91.3c.5.2 1 .1 1.6.2s1.2.1 1.8.3c1.1.2 2.1.6 3.1 1.2a12.31 12.31 0 0 1 4.8 4.8c1.1 2.1 1.7 4.4 1.7 6.8 0 2.6-1 5.5-.1 8 .4 1.1 1.1 2.1 2 2.9.8.6 2 1.2 3 .8.3-.1.4-.7 0-.8-1.1-.2-2-.4-2.7-1.3s-1-2-1.1-3.1c-.2-2.7.6-5.3.3-8-.5-4.6-2.9-9.1-7.2-11.3-1.1-.6-2.4-1-3.6-1.2-1.1-.2-2.6-.4-3.6.3-.4 0-.3.3 0 .4zm1.7 21.2l.2.2-.1.2c-.1.2 0 .5.1.7.2.4.6.8.9 1.1.7.7 1.5 1.2 2.4 1.6 1.8.8 3.9 1 5.8.4l-1-1c-.5 2.4 1.5 4.3 3.4 5.5 2 1.3 4.4 2.1 6.8 1.7 2.2-.3 4.1-1.6 4.9-3.7.9-2.1.6-4.8-.5-6.8-.6-1-1.4-1.9-2.5-2.3s-2.2-.4-3.2.3c-.3.2-.1.6.2.5 1.7-.5 3.4.5 4.2 2 .8 1.6 1 3.6.5 5.3s-1.8 2.8-3.4 3.2c-1.8.4-3.6 0-5.2-.9-1.5-.8-4.1-2.3-3.7-4.3.1-.5-.4-1.1-1-1-1.6.5-3.2.4-4.7-.2-.7-.3-1.4-.7-2-1.2-.3-.3-.6-.5-.9-.8-.1-.2-.3-.3-.5-.4s-.3 0-.5-.2c-.1-.2-.3-.1-.2.1z"/><path d="M126.299 102.7c.3-.8-1.2-.9-.9.2 0 .2.2.3.3.3.3.1.7.8.8 1 .2.4.3.9.4 1.3.1 1 0 2.1-.3 3.1-.7 2.5-2.1 4.8-2.5 7.4s.3 5 1.9 7.1c1.5 2 3.4 3.7 4.5 5.9s1.1 4.7-.8 6.5c-.3.3 0 .8.4.6 2.1-.8 2.8-3.5 2.5-5.6-.4-2.7-2.4-4.8-4.1-6.7-1.9-2.2-3.5-4.5-3-7.5.4-2.8 2-5.3 2.6-8 .2-1.2.3-2.5-.1-3.6-.2-.5-.4-1.1-.8-1.5-.2-.2-.4-.5-.7-.6-.1-.1-.2-.1-.3-.1s-.2-.1-.3-.1c-.2 0-.2.1-.1.4.1.1.4.1.5-.1zm11.202 19.7c.6.8 1.3 1.4 1.7 2.4.4.9.5 2 .3 3-.5 2.3-2.8 3.6-4.8 4.5-.4.2-.5.9-.1 1.2 2.9 2.4 2 6.7-.8 8.8-1.2.9-3.6 1.5-2.7 3.4.3.7.9 1.1 1.1 1.9.2.6.2 1.3 0 1.9-.3 1.5-1.4 2.8-2.8 3.4-.5.2-.5 1.2.2 1.1 3.3-.4 5-4.4 3.8-7.3-.1-.3-.3-.6-.5-.9s-.7-.7-.3-1c.3-.3.8-.4 1.2-.6s.8-.5 1.2-.9c1.5-1.2 2.6-3 2.8-5 .3-2.1-.5-4.4-2.2-5.8l-.1 1.2c2.4-1.1 5-2.8 5.5-5.7.2-1.2 0-2.5-.5-3.6-.5-1-1.3-2.1-2.5-2.4-.4-.2-.7.1-.5.4zm-20-27.5c-.4-.3-.5-.6-.5-1.1l-.2.1c.3.1.5.5.7.7.4.2.7.5 1.1.8.6.6 1.1 1.3 1.5 2.1.9 1.8 1.2 3.8 1.4 5.8.5 3.9.7 8.1-1.4 11.5-.5.8-1.1 1.5-1.8 2.1s-1.4 1.2-2.3 1.6c-.5.2-.1.9.4.9.9-.2 1.8-.4 2.6-.9s1.4-1.2 2-2c1.2-1.6 1.9-3.5 2.2-5.5.4-2.4.2-4.8-.1-7.2-.3-2.2-.6-4.4-1.6-6.4-.5-.9-1.1-1.9-1.9-2.6l-1.2-.9-.6-.3c-.3 0-.5.1-.8 0-.1 0-.2 0-.2.1-.1.5.2 1 .6 1.3 0 .1.1-.1.1-.1zm-7.9 9.3c.1.4.3.6.6.9.3.4.5.7.7 1.1.4.7.8 1.5 1.1 2.3.6 1.6.9 3.2.7 4.9-.3 3-2.3 5.6-5.1 6.6-.7.3-1.5.4-2.3.4s-1.7-.4-2.4-.2c-.3.1-.6.5-.4.9.5.7 1.5.8 2.3.9s1.7 0 2.5-.3c1.6-.4 3.2-1.4 4.3-2.6 2.6-2.7 3.1-6.7 1.9-10.3-.3-1-.8-2-1.4-2.9l-.9-1.2c-.3-.4-.7-.8-1.2-1-.2 0-.4.3-.4.5zm-5.8 8c-.2.3-.3.5-.1.7.4.6.7 1.3 1.1 2 .3.5.7 1.2.6 1.8 0 0-.1.3 0 .2 0 .1-.1.1-.1.2.1-.1 0 .1-.1.1l-.1.1c-.1 0-.1.1-.2.1-.1.1.1 0-.1 0-.1 0-.2 0-.3.1h-.1-.1c.1 0-.2-.1-.2 0-.1-.1-.2-.1-.4-.1-.1 0-.3.1-.3.2-.3.8.9 1.2 1.4 1.1.7-.1 1.2-.6 1.5-1.2.4-.9.1-1.8-.3-2.6s-1-1.6-1.5-2.4c-.1-.2-.3-.3-.6-.2 0-.1-.1-.1-.1-.1zm.7-3.3c-1.3 1.4-2.4 2.6-4.1 3.4-1.6.7-3.4 1-5.1.8-1.7-.3-3.3-1.1-4.5-2.2-.6-.6-1.2-1.3-1.7-2.1s-.6-1.7-1-2.4-1.5-.2-1.3.5c.1.3.2.5.4.7.2.3.7.2.8-.1.1-.2.1-.4.2-.6l-1.4-.2c0 .7.4 1.5.7 2.2.4.7.8 1.4 1.3 2 1 1.2 2.3 2.2 3.7 2.8 3 1.3 6.4 1.1 9.2-.6 1.5-.9 2.9-2.2 3.4-3.9.1-.3-.4-.6-.6-.3z"/><path d="M92.201 102.4c.5 1.4.9 2.8.8 4.3s-.8 3-1.8 4.2c-2.2 2.3-5.9 2.8-8.7 1.6-3-1.3-4.9-4.4-6-7.3-1.2-3.4-2-7.5-.5-11 .8-1.7 2-3.2 3.4-4.5.7-.7 1.5-1.3 2.3-1.9.2-.1 1.5-1 1.6-.8.3.7 1.3.5 1.2-.3s-.9-1.1-1.6-1.1c-.9 0-1.6.6-2.3 1.1-1.6 1.2-3.2 2.5-4.4 4.2-1.3 1.7-2.2 3.6-2.4 5.7-.3 2.3.1 4.7.7 6.9 1 3.7 2.8 7.5 6.1 9.6 3.2 2 7.6 1.9 10.6-.4 1.6-1.2 2.6-3.1 3-5.1.3-1.9 0-4.1-1.3-5.5-.4-.2-.8 0-.7.3zm-5.9-11c-.3.1-.6.1-.8.2-.3.1-.5.3-.8.5l-1.4 1.2c-.8.9-1.4 2-1.8 3.1-.9 2.7-.4 6.1.7 8.6.2.4.9.2.9-.2-.2-2.6-1.1-5.2-.4-7.9.3-1 .8-2 1.5-2.9a5.73 5.73 0 0 1 1.1-1.1c.2-.2.4-.3.6-.5s.3-.4.6-.5.2-.6-.2-.5zm10.8-14c.4.5.9-.3.8-.7s-.5-.8-.8-1c-.4-.4-.8-.8-1.3-1.1-1.9-1.3-4.1-2-6.4-2.1s-4.6.4-6.6 1.6c-1.1.7-2.1 1.6-2.8 2.7s-1 2.4-1.5 3.7c-.5 1.4-1.4 2.4-2.7 3.1-.6.4-1.2.7-1.9 1s-1.2.7-1.8 1c-.5.2-.1 1 .4.9l1.5-.3c.6-.1 1.1-.4 1.6-.6.9-.5 1.8-1 2.5-1.8.8-.8 1.3-1.7 1.7-2.7l1.2-3.4c2-3.6 7-4.6 10.8-3.7 1.1.3 2.1.7 3.1 1.3a6.42 6.42 0 0 1 1.3 1c.2.2.5.4.6.6 0 .1 0 .2.1.3v.1c0 .1.1.1.1 0 .2-.2 0-.1.1.1z"/><path d="M79.5 77.7l.2.2.1-.2c-.2-.1-.3-.3-.4-.5-.1-.1-.3-.1-.4-.2l-1.3-.3c-.819-.198-1.658-.299-2.5-.3-1.6-.1-3.3.1-4.9.5-3.4 1-5.6 3.6-6.8 6.9l-.8 3c-.1.5-.2 1-.2 1.5s.1 1 .1 1.6c0 .4.6.5.7.1l.6-1.5c.2-.5.2-1 .3-1.5.2-1 .5-2 .8-3 .7-1.9 1.8-3.5 3.6-4.6 1.6-1 3.5-1.4 5.4-1.5l3 .1c.5 0 1 .1 1.5.2.2 0 .5.1.7 0s.3-.3.6-.2c.2 0 .2-.3 0-.3h-.3z"/><path d="M72.399 90.8c-.9-1-2.5-1.7-3.9-2a10.46 10.46 0 0 0-4.3-.3c-2.8.3-5.5 1.6-7.5 3.5s-3.4 4.5-3.8 7.3c-.6 3.5.1 7 1 10.4.4 1.6 1.2 3.5.4 5.1-.6 1.2-2.4 1.9-3.1.4-.2-.4-.9-.1-.8.3.3 1.1 1.5 1.8 2.6 1.8 1.4 0 2.4-1.2 2.9-2.4.6-1.6.2-3.3-.3-4.8-.5-1.7-.9-3.4-1.2-5.2-.5-3.2-.3-6.5 1.4-9.4 1.4-2.4 3.7-4.4 6.4-5.3 1.6-.5 3.3-.7 5-.5.8.1 1.7.3 2.5.6s1.5.7 2.3 1c.4.3.6-.2.4-.5zm-19.5 19.1c-.4-.5-.8-.7-1.4-.9s-1.1-.3-1.7-.3c-1.2-.1-2.4.2-3.4.7-2.2.9-3.9 2.9-4.4 5.3-.5 2.5.2 5 1.8 7 1.8 2.2 4.4 3 7.2 3.4 2.9.3 6.2-.1 8.2-2.4.5-.6 0-1.4-.7-1.3-2.2.5-3.9 2.2-4.8 4.2-1.1 2.4-1.1 5.2-.5 7.8.5 2.4 1.4 5 3.3 6.6 1.5 1.3 3.5 1.8 5.4 1.6 2.2-.2 4.2-1.3 5.4-3.2.5-.8-.8-1.6-1.3-.8-1.7 2.6-5.7 3.2-8.2 1.4-1.7-1.2-2.4-3.4-2.9-5.3-.6-2.2-.9-4.6-.1-6.8.6-2 2.2-3.7 4.2-4.2l-.7-1.3c-1.5 1.7-3.8 2.1-6 2.1-2.3-.1-4.9-.6-6.6-2.2-1.4-1.4-2.3-3.5-2.2-5.5.1-2.1 1.3-3.9 3.1-4.9.9-.5 2-.9 3.1-1s2.2.2 3.3.3c0 .1 0-.2-.1-.3z"/><path d="M58.398 140.7l-.3-.1c0 .1.1.2.1.2l.1.1c.1.1.1 0 0 0v-.5l-.3.6c-.1.2-.3.4-.4.7-.2.5-.3 1-.4 1.6-.1 1 .2 2.1.8 2.9s1.5 1.4 2.6 1.7c.5.1 1.1.2 1.6 0s1-.3 1.3-.7c.1-.1 0-.4-.2-.4h-.7-.6c-.4 0-.9-.1-1.3-.2-.8-.2-1.5-.8-1.9-1.5s-.5-1.6-.3-2.4c.1-.5.4-.8.6-1.2.1-.2.2-.5.1-.8 0-.1-.1-.2-.1-.2-.1-.1-.1-.1 0 0-.1 0-.2-.2-.3-.3-.3-.2-.6 0-.7.3v.1c-.1.1.1.3.3.1zm-11.2-17.1c-1 0-1.7 1.3-2.1 2.1-.5 1-.9 2.1-1 3.3-.3 2.4.2 4.7 1.2 6.9 1.1 2.3 2.8 4.3 4.6 6.1 1.7 1.8 3.5 3.9 3.2 6.5-.1 1.2-.7 2.1-1.8 2.6-.5.2-1 .4-1.5.3-.5 0-.9-.2-1.4-.5-.3-.2-.6.2-.5.5.4.9 1.5 1.2 2.4 1.3 1 0 2-.4 2.8-1.1 1.9-1.7 1.7-4.6.8-6.7-1.1-2.5-3.4-4.3-5.1-6.4-1.6-2-3-4.5-3.4-7.1-.2-1.4 0-2.8.4-4.1.2-.7.5-1.3.9-1.9.4-.5.9-.9.9-1.6 0-.1-.2-.2-.4-.2z"/><path d="M46.499 137.5c-.7.9-1.3 1.7-1.5 2.9-.2 1.1-.2 2.2.1 3.3.6 2.1 2.2 3.7 4.2 4.5.8.3 1.2-1 .4-1.3-1.6-.6-2.8-2-3.3-3.6-.5-1.7-.1-3.7.9-5.1.3-.5-.5-1.1-.8-.7zm31.9-26.9c-1.2 3.5-4.1 6.4-8 6.3-1.8-.1-3.6-.9-4.8-2.3s-1.8-3.4-2-5.3c-.1-1 0-2 .2-3 .3-1 .8-1.8 1.2-2.8.2-.4-.4-.8-.7-.6-1.8 1.1-2.3 3.8-2.3 5.7 0 2.2.7 4.6 2 6.4 2.6 3.7 7.8 4.4 11.5 1.8 2-1.4 3.4-3.5 3.9-6 .1-.5-.8-.8-1-.2z"/><path d="M70.602 117.8c0 .3.3.6.4 1 .1.3.2.7.2 1.1.1.7 0 1.5-.4 2.1-.7 1.3-2.2 2-3.7 1.9-.8-.1-1 1.3-.2 1.4 2.4.3 4 3.3 2.8 5.4-.6 1-1.7 1.7-2.9 1.8-.6.1-1.2.1-1.8-.1-.3-.1-.6-.1-.9-.2-.2-.1-.5-.2-.7-.3-.3-.1-.6.3-.4.6.4.7 1.2 1.1 1.9 1.3.8.2 1.6.2 2.3.1 1.6-.3 3.1-1.2 3.8-2.7 1.5-3-.6-6.9-3.9-7.3v1.4c2 .1 4-.9 4.9-2.7.4-.9.6-1.8.5-2.8-.1-.8-.5-2.1-1.3-2.4-.3-.2-.6.1-.6.4zm-21.2-9.2l-.2.1c.2 0 .4-.1.5-.4 0-.1 0-.1.1-.2l-.4.5c.2-.2.3-.2.4-.4.1-.1.1-.2.1-.3s0-.1.1-.2c0 .1 0 .1 0 0 0 0 0-.1.1-.1.1-.2.2-.5.4-.7.1-.1.1-.2.2-.3 0 0 0-.1.1-.1.1-.1-.1.1 0 0 0-.1.1-.1.1-.2l.6-.6-1.2-.3v.1l.1.2c0 .1 0 .2.1.3.1.2.1.3.2.5.2.3.6.2.7-.1.1-.2.1-.3.1-.5v-.3c0 .1 0-.1 0 0v-.3c0-.5-.6-.8-1-.6-.3.2-.5.4-.7.7s-.4.5-.6.8-.3.6-.4.9v.2.1c0 .1 0 .2-.1.2a.78.78 0 0 0 .1.8l-.2-.4v.2c0 .2.1.4.2.4h.1l-.1-.2v.1c.1.3.5.4.6.1zm11.4 38.2c.1.2.3.4.6.5.2.1.4.2.6.2.4.1.9.1 1.3-.1.5-.2.8-.5 1.1-.9.2-.4.4-.9.4-1.3 0-.3 0-.6-.2-.8 0 0-.1-.1 0-.1v-.1c0-.1-.1-.1-.1-.2l-.2-.2c-.1-.1-.2-.1-.4 0-.1.1-.2.2-.1.3.1.2.1.4.2.6v-.2.5.1.2.3c0 .1 0 .1 0 0v.1.2.1s-.1.2 0 .1c0 .1-.1.2-.2.3v.1l-.1.1-.1.1-.1.1c-.1.1-.2.1-.3.2-.1 0-.1 0-.2.1-.1 0-.2.1-.3.1h-.2-.2-.1c-.1 0-.2 0-.3-.1-.1 0-.2-.1-.2-.1-.1-.1-.2-.1-.4-.1h.2c-.1 0-.1-.1-.1-.1-.5-.6-.8-.3-.6 0zm144.6 245.6c1.2 1.7 2 3.7 2.7 5.7l1.9 6.2c1.2 4.2 2.1 8.5 2.7 12.9 1.3 8.7 1.7 17.5 1.3 26.3s-1.7 17.6-3.6 26.2c-1.9 8.7-4.5 17.2-7.5 25.6s-6.4 16.5-10.1 24.6c-.5 1-.9 2-1.3 3-.4.9 1.1 1.5 1.5.6 2.1-4 3.8-8.2 5.6-12.3 1.7-4.1 3.4-8.3 4.9-12.5 3.1-8.5 5.8-17.1 7.8-25.9 2-8.7 3.4-17.6 4-26.5s.3-17.8-.9-26.7c-.6-4.4-1.5-8.8-2.6-13.1-.6-2.1-1.2-4.3-1.9-6.4-.6-2-1.3-4-2.3-5.9-.5-.9-1.1-1.7-1.8-2.5 0-.2-.7.3-.4.7zm-125.5 41.8c-3.3 11-2.1 23.2 1 34.1 3.2 11.3 8.7 21.9 14.8 31.9 6.1 9.9 12.8 19.4 19.1 29.1 6.1 9.5 11.9 19.4 16.6 29.7 4.6 10.2 8.1 20.8 9.9 31.8.2 1.4.5 2.7.7 4.1.1.6 1 .4 1-.1-.2-5.5-1.2-11-2.6-16.4s-3.3-10.6-5.4-15.8c-4.3-10.4-9.8-20.2-15.7-29.7-6.1-9.8-12.7-19.2-18.9-28.8-6.3-9.8-12.3-20.1-16.1-31.2-3.8-11-5.5-22.6-3.8-34.2.2-1.4.5-2.9.7-4.3 0-.7-1.1-1-1.3-.2zm90.6 30l3.6 11.8 3.6 11.6 7.3 23.4 14.3 46.7 3.9 13.1 2 6.7c.7 2.2 1.2 4.5 2.1 6.5.4.8 1.4.2 1.3-.5-.3-2-1-4-1.6-6l-1.8-5.9-3.5-11.6-7.1-23.3-14.7-46.6-4.3-13-4.5-13.2c0-.4-.8-.2-.6.3zm38 123.1c-1.3 5.1-.7 10.5 1.4 15.4.6 1.3 1 2.5.6 3.9-.4 1.3-1.1 2.5-1.6 3.8l-3.7 7.4c-5 9.6-10.5 18.9-16.3 28.1s-11.8 18.2-17.8 27.3-11.9 18.3-17.4 27.7c-1.4 2.3-2.7 4.7-4 7s-2.4 4.7-3.1 7.3c-.7 2.5-.9 5.1-.2 7.6.4 1.3 1 2.4 1.6 3.5.6 1 1.2 2.2 1.3 3.4.1 1-.1 2.1-.8 2.9-.4.4.1 1.1.6.8 1.8-1.2 2.1-3.5 1.4-5.5-.4-1.2-1.1-2.3-1.8-3.5-.6-1.2-1.1-2.5-1.2-3.8-.5-5.4 2.8-10.5 5.3-15 5.4-9.5 11.3-18.7 17.2-27.9l17.9-27.5c5.9-9.2 11.6-18.6 16.7-28.3 1.3-2.4 2.5-4.8 3.7-7.2.6-1.2 1.2-2.5 1.8-3.8.6-1.2 1.2-2.4 1.6-3.7.4-1.2.4-2.5-.1-3.7-.5-1.3-1.1-2.4-1.5-3.7a21.91 21.91 0 0 1-1.2-8c0-1.4.2-2.7.4-4 .3-.9-.6-1.2-.8-.5z"/><path d="M144.098 592.6c-3.7 3.7-6.7 7.8-9.2 12.4-2.4 4.4-4.2 9.1-5.7 13.9-3 9.8-4.5 19.9-6 29.9-1.6 10.2-3.3 20.5-6.8 30.3-1.7 4.8-3.9 9.4-6.7 13.7-1.4 2.1-3.1 4.1-4.1 6.4-.5 1.2-.8 2.4-.6 3.7.1 1.3.6 2.4 1.1 3.5s1 2.3 1.1 3.6-.2 2.6-.8 3.8c-1.1 2.4-2.9 4.4-4.5 6.4-1.6 1.9-3.1 3.9-3.8 6.3-.5 2-.5 4.3.5 6.2.5.9 1.2 1.6 2.1 2 .6.3 1.2-.4.7-.9-1.4-1.5-2-3.5-1.8-5.5.2-2.3 1.5-4.4 3-6.2 3-3.8 7.2-7.8 6.3-13.2-.4-2.4-2.2-4.5-2-7.1.2-2.4 2-4.5 3.3-6.4 2.9-4.1 5.2-8.6 7.1-13.3 3.8-9.4 5.7-19.5 7.3-29.5 1.6-9.9 2.9-19.9 5.4-29.6 2.5-9.4 6.2-18.7 12.1-26.5.9-1.2 1.8-2.3 2.7-3.4.1-.3-.4-.8-.7-.5zm.3 142c-1.4 0-2.8.3-4.2.4-1.5.1-2.9.1-4.4-.1l-4.1-.7c-1.1-.1-2.3.1-3.3.5-2.2.6-4.2 1.8-6.3 2.7-1 .4-2.1.8-3.3.9s-2.4-.1-3.6-.3l-4.3-1.1-2-.2c-.8 0-1.4.2-2.2.5-.7.2-.4 1.2.3 1.1.6-.1 1.3 0 1.9 0s1.3.1 1.9.2l3.8.9c2.5.6 4.8.6 7.2-.3 2.2-.8 4.1-2 6.3-2.9 1.1-.4 2.2-.7 3.3-.8 1.4 0 2.7.3 4.1.5 1.6.2 3.2.3 4.8.1 1.5-.2 3.1-.3 4.4-1.2-.1 0-.1-.2-.3-.2zm-66.1-290.7c.1.3.1.5.2.8s.3.5.5.7c.425.541.931 1.013 1.5 1.4 1 .8 2.1 1.5 3.3 2s2.4.9 3.6 1.1c.7.1 1.3.2 2 .2h.9c.4 0 .6-.2 1-.3.6-.1.4-1-.1-1-.3 0-.6-.1-.9-.1h-.9c-.6 0-1.1-.1-1.7-.2-1.2-.2-2.3-.5-3.4-.9s-2.1-1-3-1.7c-.5-.3-.9-.7-1.4-1.1-.2-.2-.4-.4-.6-.5-.3-.2-.6-.3-.9-.5.1-.2-.1-.1-.1.1zm0 4.3c.1.2.1.4.2.6s.2.3.3.5l.7 1c.5.6 1 1.2 1.6 1.7s1.2 1 1.9 1.4 1.5.9 2.3.8c.3 0 .5-.4.3-.7-.5-.5-1.3-.8-1.9-1.2s-1.3-.8-1.8-1.3l-1.6-1.5c-.3-.3-.5-.6-.7-.9-.1-.1-.2-.3-.3-.4-.1-.2-.3-.3-.4-.4-.2-.1-.7.1-.6.4zm29.9 17.3c1.3 3.3 2.8 6.5 4.3 9.6l4.6 9.7 9.1 19.1 17.5 37.7 9.1 21.4c.1.2.5.1.4-.2-2.1-6.6-4.8-13-7.5-19.3l-8.4-18.9-18.1-37.8-5.2-10.8c-1.8-3.6-3.5-7.2-5.4-10.6-.1-.3-.4-.1-.4.1z"/><path d="M113.698 468.8c-.1 0-.3-.1-.4-.1s-.3.1-.4.1l-1.1.3c-.8.2-1.6.4-2.3.7l-2.3.7c-.7.2-1.6.4-2.1.9-.2.2 0 .5.2.5.7.1 1.6-.2 2.2-.4l2.3-.7 2.3-.7c.4-.1.7-.3 1.1-.4.2-.1.3-.1.5-.2.1-.1.1-.2.2-.2.2-.2 0-.5-.2-.5zm1.4 4.9l-3.4 1-1.7.6-.8.3c-.2.1-.4.2-.6.4-.1.1 0 .3.1.4.3.1.5 0 .8-.1s.6-.1.8-.2c.6-.2 1.1-.4 1.7-.5 1.1-.4 2.2-.7 3.2-1.2.5-.2.3-.8-.1-.7zm89.2 110.6c-1.6-1.8-3.7-3-5.8-4-2.3-1-4.6-1.9-7-2.4s-4.8-.7-7.2-.4c-2.5.3-4.7 1.3-6.8 2.6l-3.8 2.7-2 1.4c-.6.5-1.3.9-1.8 1.5-.2.2 0 .6.3.5 1.2-.4 2.3-1.3 3.3-2.1l3.3-2.3c2-1.4 4.1-2.6 6.5-3.2 4.7-1 9.6.2 13.9 1.9 2.5.9 5 2 6.8 3.9.2.4.5.1.3-.1zm.8 19.3l-5.4 1.8c-2 .4-4 .7-6 .8-4.2.3-8.6.7-12.6-1-1.1-.5-2.3-1-3.4-1.6s-2.3-1.2-3.4-1.6c-.6-.2-.8.6-.4.9 1 .7 2.1 1.1 3.2 1.6l3.1 1.5c2 .9 4.1 1.4 6.4 1.5 2.2.1 4.4-.1 6.6-.2 2-.1 4.1-.3 6.1-.7 2.2-.5 4.4-1.2 6.1-2.6.1-.1 0-.4-.3-.4zm-18.1 24.9c-1.7 2.6-2.9 5.4-4.3 8.2l-4.4 7.9c-3.1 5.2-6.5 10.3-10.1 15.2-3.6 4.8-7.3 9.6-11.6 13.8-3.9 3.9-8.3 7.3-12.9 10.3-5.3 3.4-10.9 6.2-16.7 8.5-.3.1-.2.5.1.4 10.8-2.9 20.7-8.9 28.9-16.5 4.4-4.1 8.3-8.8 11.9-13.7 3.609-5.005 6.98-10.177 10.1-15.5 1.8-3 3.5-6 5.1-9.1 1.6-3 3.3-6.1 4.3-9.3.1-.3-.2-.4-.4-.2zm-114.4-8.3c.1 0 .1-.1 0 0-.1 0-.1-.1 0 0zm53 79.8c.3.5.7.8 1.2 1.2l1.8 1.4 3 2.8c1.9 2 3.7 4.2 5.1 6.6l1.9 3.6c.3.6.5 1.2.7 1.8.2.5.8 1.6.2 2-.5.4-1.4.5-2.1.7l-2.5.5c-1.5.2-3 .2-4.5.1-1.8-.2-3.5-.6-5.2-1-.9-.2-1.8-.3-2.7-.3s-1.7.2-2.6.5c-.7.3-.4 1.3.3 1.1 1.7-.4 3.5-.1 5.2.3l4.9.9c1.7.1 3.4.1 5.1-.2.8-.1 1.6-.3 2.3-.5.8-.2 1.7-.4 2.4-.8 1.5-.9.8-2.5.2-3.7-.6-1.4-1.4-2.7-2.2-4.1-1.5-2.5-3.2-4.9-5.1-7-1.1-1.2-2.3-2.4-3.6-3.5l-2-1.6c-.6-.5-1.2-1-2-1.1.2 0 .1.2.2.3zm74.3-284.1c-.3.7-.4 1.5-.6 2.2l-.6 2.3c-.409 1.529-.91 3.032-1.5 4.5-1.1 2.9-2.5 5.7-4 8.4-3.2 5.6-7.1 10.7-11.4 15.5-2.4 2.7-4.9 5.4-7.1 8.3-.2.3.3.6.5.4 2.6-2.1 4.9-4.5 7.1-7s4.3-5 6.3-7.7c3.8-5 7.2-10.6 9.2-16.6.5-1.7 1.1-3.3 1.4-5 .2-.9.4-1.7.5-2.6s.3-1.8.2-2.7c.2-.1.1-.1 0 0z"/><path d="M179.798 452.5l-.8-.3-.4.6c.6.2 1.3.2 1.9.1l2.2-.1 4.3-.3 4.2-.4 2.2-.3c.7-.1 1.4-.2 2-.5.4-.2.3-.8-.1-.9-.7-.2-1.3-.1-2 0l-2.2.3-4.3.5-4.2.4c-.7.1-1.5.1-2.2.2s-1.3.1-1.9.4c-.4.2-.1.8.3.7.3-.1.6-.1.9-.1.2 0 .3-.2.1-.3zm-3.4 3.4c.6.4 1.2.6 1.8.9l2 .9 3.8 1.9 3.6 2c.6.4 1.2.8 1.9 1.1.3.2.6.3.9.4s.6.3.9.4.6-.2.4-.5c-.3-.5-.9-1-1.4-1.4l-1.8-1.2c-1.2-.8-2.5-1.5-3.8-2.1l-3.8-1.8c-1.3-.5-2.7-1.3-4.1-1.5-.6 0-.9.6-.4.9zm-6 10.2a.77.77 0 0 0-.2.4l.2-.1c-.6 0-.7.5-1 1l-.9 1.4c-.6.9-1.3 1.7-2.1 2.5-.7.8-1.5 1.5-2.4 2.2s-1.8 1.4-2.5 2.2c-.2.2 0 .7.3.6 1.1-.4 2-1.1 2.9-1.8s1.7-1.5 2.5-2.4c.8-.8 1.5-1.7 2.1-2.7l.9-1.5c.3-.5.7-.9.4-1.5v.2c.1-.1.1-.3.2-.4 0-.1-.3-.3-.4-.1z"/><path d="M171.101 466.6c0-.1 0-.6.2-.6l-.4-.5c-.1.4 0 .9.1 1.3.1.5.1.9.1 1.4 0 .9 0 1.9-.2 2.8s-.4 1.8-.8 2.7c-.3.8-.8 1.6-1 2.5-.1.4.4.6.6.4 1.5-1.2 2.1-3.5 2.4-5.4.2-1 .2-1.9.1-2.9 0-.5-.1-1-.2-1.5s-.2-1-.5-1.3c-.2-.3-.7-.1-.7.3.1.2 0 .4.3.8 0 .1-.1.1 0 0zm-44.7 85.8c-7 2.1-11.2 8.9-14.4 15l-5.8 11c-2.1 3.9-4.4 7.7-6.8 11.4-4.7 7.5-9.8 14.7-15.4 21.7-2.7 3.4-5.6 6.7-8.4 10-2.5 3-5.1 6.4-5.5 10.4-.4 4.1 2.1 7.6 5 10.3 3.1 2.8 6.8 5.4 10.6 7.2a10.63 10.63 0 0 0 3 1c.6.1.9-.6.4-.9-1.7-1.2-3.6-2.1-5.4-3.1s-3.5-2.2-5.2-3.5c-2.9-2.3-6.2-5.2-6.7-9s1.9-7.3 4.2-10.2c2.7-3.3 5.5-6.4 8.2-9.7 5.4-6.7 10.4-13.6 15.1-20.8 4.6-7.2 8.9-14.6 12.7-22.2 3-6 6.3-12.7 12.4-16.2.713-.406 1.447-.774 2.2-1.1.9-.3.6-1.5-.2-1.3z"/><path d="M70.901 636.7c-.4.2-.8.4-1.2.7l-1.2 1.1-2.2 2.2-2.2 2.2c-.6.6-1.4 1.3-1.9 2.1-.9 1.7.1 3.4 1.2 4.7 1 1.3 2.1 2.5 3.2 3.7 4.6 4.7 10.2 8.5 16.3 11 1.7.7 3.5 1.3 5.3 1.8.9.2 1.8.5 2.7.7s1.9.4 2.8.4 1-1.2.2-1.5c-.7-.2-1.5-.3-2.3-.5s-1.5-.3-2.3-.5c-1.5-.4-2.9-.8-4.3-1.4-2.9-1.1-5.7-2.4-8.3-4s-5.1-3.5-7.3-5.6l-3.3-3.4c-.5-.5-.9-1.1-1.4-1.7s-1.1-1.3-1.3-2.2.7-1.6 1.3-2.2l2.2-2.3 2.2-2.3 1.2-1.2c.4-.4.6-.8.8-1.4.4-.2.1-.5-.2-.4zm16.4 12.5c-.1 0-.1-.1 0 0zm-1.4.1a.76.76 0 0 1 .4.2c.173-.015.346.019.5.1a1.92 1.92 0 0 1 1.2.4c.6.4 1.2.9 1.4 1.6.2.6 0 .9-.6 1.1-.4.1-.8.2-1.3.2-.8.1-1.6 0-2.4-.2-1.7-.4-3.3-1.1-4.9-1.7-1.7-.7-3.3-1.1-5.1-1.1-.5 0-.7.9-.1 1 3.4.5 6.4 2.4 9.7 3.1 1.5.3 3.2.4 4.7-.1 1.7-.7 1.4-2.6.4-3.8-.5-.6-1.2-1-2-1.2-.4-.1-.8-.2-1.2-.2-.2 0-.4.1-.5.1l-.3.3c-.2 0-.2.3.1.2zm40.9-20.1c-.2.1-.5.1-.8.2-.2.1-.5.4-.6.6l-1.3 1.5-2.6 3-2.6 3c-.4.4-.8.9-1.1 1.3-.4.4-.8.8-.9 1.4-.3 1.1.4 2.2.8 3.2s.6 2.1.4 3.2c-.4 1.8-1.9 3.2-3.4 4.2-1 .7-2.1 1.3-3.1 1.9l-1.8 1.1c-.7.4-1.4.7-1.9 1.2s0 1.5.8 1.3c1.2-.4 2.3-1.2 3.4-1.9l3-1.8c1.6-1.1 3.3-2.3 4.2-4.1 1.1-2.1.7-4.2-.2-6.3-.2-.4-.6-1.1-.5-1.5.1-.5.7-1 1-1.3l2.6-3.1 2.9-3.4 1.4-1.7c.2-.2.5-.5.6-.8s.1-.6.1-.9-.2-.4-.4-.3z"/><path d="M118.099 641.5c0-.2.1-.5 0-.7-.2-.3-.6-.6-.8-.9l-1.5-2.1-2.5-4.2c-1.5-3-2.5-6.2-3-9.5-.3-1.6-.4-3.2-.4-4.9s-.1-3.4.2-5c.3-2 .8-3.9 1.3-5.8l1.6-6c1.3-4.6 2.8-9.2 3.7-13.8.1-.3-.4-.4-.5-.1-1.5 4.1-2.7 8.3-3.9 12.5-1.2 4-2.6 8-3.4 12.2-.2.8-.2 1.7-.4 2.5-.198.819-.299 1.658-.3 2.5a45.4 45.4 0 0 0 .3 5.2c.5 3.4 1.4 6.7 2.9 9.7.8 1.7 1.8 3.4 2.9 4.9.6.8 1.2 1.5 1.8 2.2.3.3.6.7.9 1 .5.3.7.4 1.1.3zm46.8 102.6l-.5-.1c.3.1.4 0 .7 0-.1 0 .2.1.2.1.2 0 .3.1.5.2l1.7.9c1.2.7 2.3 1.5 3.3 2.4 2.1 1.8 3.9 3.8 5.8 5.8l-.1-1c-.4.5-.7 1-.9 1.6-.2.5.4.9.8.6.5-.3 1-.8 1.4-1.2.3-.3.3-.8 0-1.1l-6.2-6.1c-1.1-.9-2.3-1.7-3.5-2.4-1-.6-2.7-1.7-3.7-.8-.2.2-.3.6-.1.8s.2.4.4.5c.1.1.3-.1.2-.2z"/><path d="M165.599 743.4c-1-1.1-2.2-1.9-3.4-2.8l-3.5-2.7-3.4-2.7c-.5-.4-1.1-.8-1.7-.3-.4.3-.5.9-.3 1.3.1.2.5.4.7.3s.3-.1.4-.3c0-.1.1-.2.1-.3 0-.2 0-.1-.2.1-.3.1-.3.2-.2.2.1.2.6.4.8.6a3.03 3.03 0 0 0 .7.5l3.1 2.3 3 2.3c1 .8 2 1.6 3.1 2.2.7.3 1.2-.3.8-.7zm11.1 10c.4.7 1 1 1.7 1.5l2.2 1.3 4.4 2.5 8.9 4.8c6 3.2 12.1 6.2 18.2 9.1 1.3.6 2.8 1.2 3.9 2.2.9.8 1.8 1.9 1.7 3.2 0 .6.8.6 1 .1.4-1.2.3-2.3-.5-3.3s-1.9-1.8-3-2.5c-1.4-.8-2.9-1.4-4.4-2.1-1.6-.8-3.2-1.5-4.8-2.3-6.3-3.1-12.6-6.3-18.7-9.7l-5.2-2.8c-.8-.5-1.7-.9-2.6-1.4-.9-.4-1.6-1-2.6-1-.1 0-.3.3-.2.4z"/><path d="M154.099 735.9c.2.1.4 0 .5-.2.2-.3-.2-.6-.4-.7-.5-.2-1.2.1-1.7.3-.6.2-1.1.5-1.7.8-2.2 1.3-4.1 3-5.7 5s-3 4.2-4.2 6.4c-1.3 2.5-2.7 5.2-3 8-.3 2.6.6 5.8 3.3 6.8.4.2.8-.5.5-.8-1.6-1.3-2.3-3.2-2.3-5.2.1-2.4 1.2-4.7 2.3-6.8 1.9-3.8 4.1-7.4 7.3-10.2.8-.7 1.7-1.4 2.7-2 .5-.3 1-.6 1.5-.8.2-.1 1.7-.8 1.2-1-.3 0-.4.3-.3.4zm22 17.5c-.5.1-.8.5-1.2.9l-1.2 1.4-2.3 2.7-4.7 5.6-4.6 5.5c-1.4 1.7-2.8 3.6-4.5 5-1.5 1.2-3.8 1.8-5.5.5-.3-.2-.8.1-.6.4.9 1.7 3.1 2 4.8 1.5 2.1-.7 3.6-2.5 5-4.2l10.2-12.2 2.8-3.3 1.4-1.7c.4-.5 1-1 1-1.7 0-.3-.4-.5-.6-.4zm-11.001-9.7c-.3.2-.6.1-.9.3-.3.1-.6.4-.8.5l-1.8 1.3-3.2 2.6-6.4 5.7c-2 1.9-4 4-5.8 6.1l-2.6 3.3c-.8 1.1-1.7 2.2-1.9 3.6-.2 1.6.8 2.7 2 3.6l4.3 3.2c.6.4 1.3-.5.8-1-1-1-2.2-1.9-3.4-2.8-.8-.7-2.3-1.5-2.2-2.7.2-1.2 1.3-2.4 2-3.4l2.5-3.1c3.4-4 7.3-7.6 11.3-11 1.1-1 2.2-1.9 3.4-2.8.6-.5 1.2-1 1.7-1.5.3-.2.5-.5.8-.8.2-.3.3-.6.5-.9 0 0-.2-.3-.3-.2zm5.4 3.6c-.5 0-1 .5-1.4.8-.5.5-1.1 1-1.6 1.4l-3.1 3-3 2.9c-1 1-2.1 2-2.8 3.2-.1.2.1.5.4.4 1.2-.8 2.1-1.8 3.1-2.8l3.1-3 3-2.9 1.5-1.5c.4-.4.9-.8 1-1.4-.1-.1-.2-.1-.2-.1zm-70.3-10c.3-.4-.1-.9-.6-.8-.9.1-1 1.7-1.1 2.4l-.7 7.4c-.3 5-.4 10.1-.3 15.1 0 1.4.1 2.8.1 4.2 0 .7.1 1.5.1 2.2 0 .3 0 .6.1.9.1.4.3.8.4 1.3.1.6 1 .6 1 0 0-.5.2-1.1.2-1.6s-.1-1.1-.1-1.6c-.1-1.1-.1-2.2-.1-3.3-.1-2.2-.1-4.3-.1-6.5 0-4.3.2-8.7.5-13l.3-3.6c.1-.6.1-1.2.1-1.8 0-.3.1-.6 0-.9v-.4s.1.1.2 0z"/><path d="M98.199 770.8c2.8 3.6 6.8 6.4 11 8.3 4.2 2 8.8 3.1 13.4 3.4 2.6.1 5.4 0 7.8 1.2 2.2 1.1 4.2 2.7 6.2 4 4.1 2.7 8.4 5 12.8 7.1 8.9 4.1 18.3 6.9 28 8.3 4.8.7 9.7 1.1 14.6 1.1 2.436 0 4.872-.1 7.3-.3 2.4-.2 4.8-.4 7.2-.9 2.3-.5 4.6-1.4 6.5-2.8 1.6-1.2 3-2.8 3.9-4.6 2-3.7 2.6-8 2.8-12.2.1-1 .1-2.1.1-3.1 0-1.1-1.6-1.1-1.7 0-.1 4.1-.4 8.2-1.7 12.1-.6 1.8-1.6 3.5-2.9 4.9-1.5 1.6-3.4 2.7-5.4 3.4-2.2.7-4.5 1-6.8 1.3-2.4.2-4.8.4-7.2.4-4.7.1-9.5-.2-14.2-.7a105.62 105.62 0 0 1-27.5-7.4c-4.4-1.9-8.6-4.1-12.7-6.6-2-1.2-3.9-2.6-5.9-3.9-2.1-1.5-4.3-2.5-6.9-2.8-2.4-.3-4.9-.2-7.3-.5-2.2-.3-4.4-.9-6.5-1.6-4.3-1.5-8.3-3.8-11.8-6.7-.879-.679-1.714-1.414-2.5-2.2-.4-.2-.9.4-.6.8zm.1-6c0-.1 0-.1 0 0l-.4-.1c.2.1.4 0 .4.1.3.1.4.3.5.5.3.4.7.8 1 1.1.7.7 1.4 1.3 2.2 1.9 1.5 1.2 3.1 2.1 4.9 3 3.6 1.7 7.5 2.8 11.5 3.7 4.3 1 8.7 1.9 12.8 3.5s7.9 4 11.7 6.2a100.66 100.66 0 0 0 22.9 9.8c8 2.3 16.2 3.5 24.5 3.7 4.1.1 8.2 0 12.3-.5 2.1-.2 4.1-.5 6.2-.8 1.6-.3 3.4-.6 4.7-1.7.6-.5 1-1.2 1.1-1.9.2-1-1.4-1.5-1.6-.4-.3 1.5-2 1.9-3.3 2.2-1.9.4-3.9.7-5.9.9-4 .5-8.1.7-12.2.6-8.1-.1-16.2-1.2-24-3.3s-15.3-5.1-22.3-9.1c-3.8-2.1-7.4-4.5-11.4-6.3s-8.2-2.8-12.4-3.7c-7.5-1.7-15.7-3.4-21.2-9.2-.6-.6-1.1-1.4-2.1-1.4-.3 0-.5.2-.6.5-.2.4-.1 1.4.6 1.1.2-.1.3-.3.1-.4zm2.9-26.5c0 .7.3 1.2.7 1.8l1.3 1.8c.914 1.114 1.881 2.182 2.9 3.2 2 2.1 4.2 4.1 6.5 6 4.6 3.7 9.7 6.8 15.2 9.1 1.7.7 3.4 1.4 5.2 1.8.9.2 1.8.4 2.7.5s1.9.3 2.8 0c.6-.2.6-1 0-1.2-.7-.3-1.5-.2-2.2-.3-.8-.1-1.7-.2-2.5-.4-1.6-.4-3.1-.9-4.6-1.5a56.77 56.77 0 0 1-7.8-3.9c-4.9-2.9-9.4-6.4-13.5-10.4-1.1-1.1-2.2-2.3-3.2-3.4-.5-.6-1.1-1.2-1.6-1.8-.5-.5-.9-1.1-1.7-1.3-.1-.1-.1 0-.2 0z"/><path d="M159.301 775.1c.2.4.3.8.7 1.1.4.4 1 .7 1.5 1l3 1.9 5.9 3.6c3.9 2.3 7.9 3.9 12.3 5s8.9 1.8 13.4 2.3c4.3.4 8.7.4 12.9-1 2-.6 3.9-1.6 5.6-2.8.8-.6 1.6-1.3 2.3-2 .7-.8 1.4-1.6 1.7-2.6.1-.6-.6-1-1-.6-.7.6-1.2 1.3-1.8 2-.6.6-1.2 1.2-1.9 1.7-1.4 1.1-3 1.9-4.6 2.5-3.9 1.4-8 1.6-12.1 1.3-4.3-.3-8.7-1.1-12.9-2.1-4.2-.9-8.2-2.3-11.9-4.4l-6.3-3.7c-1.1-.7-2.2-1.3-3.3-2-.6-.3-1.1-.7-1.7-1-.5-.3-1.1-.3-1.6-.3-.2-.1-.3 0-.2.1zm3.4-3.9c.1.8.9 1 1.5 1.4l2.4 1.4c1.514.899 3.084 1.7 4.7 2.4 3.2 1.5 6.4 2.9 9.7 4.2s6.7 2.5 10.1 3.5 6.9 1.7 10.5 1.7 7.2-.9 10.2-2.9c.6-.4 0-1.4-.6-1-5.7 3.8-12.9 3-19.2 1.2-6.6-1.9-13.2-4.4-19.4-7.3-1.7-.8-3.4-1.7-5-2.5-.8-.5-1.7-.9-2.5-1.4-.4-.2-.8-.5-1.2-.7s-.6-.3-1.1-.1c-.1 0-.2.1-.1.1zm-42.8-101.6c-.1-1.5-1.3-2.8-2.4-3.8-1.2-1.1-2.6-1.9-4.1-2.5-3.3-1.3-7.1-1.1-10.4 0a23.8 23.8 0 0 0-5.1 2.4c-1.4.9-2.6 2.2-2.3 3.9.2 1.6 1.6 2.9 2.8 3.9 1.6 1.2 3.3 2.4 5 3.6.8.6 1.6 1.1 2.6 1.4 1.1.3 2.2.2 3.2-.2 2.3-.7 4.6-1.5 6.9-2.3.9-.3.5-1.7-.4-1.4-1.8.5-3.6 1.2-5.4 1.8-1.6.6-3.2 1.2-4.8.3-1.5-.8-2.9-2-4.3-3-1.2-.9-2.6-1.7-3.5-3-.3-.5-.6-1.1-.5-1.7.1-.8.7-1.3 1.3-1.7 1.3-.9 2.8-1.6 4.3-2.2 3-1.1 6.2-1.5 9.3-.7 1.5.4 2.9 1.1 4.2 2 .6.5 1.2 1 1.7 1.7.5.6.9 1.2 1.5 1.8.1 0 .4-.1.4-.3z"/><path d="M111.3 662.3c-.3.4.5.7.7.2.1-.2.1-.5.1-.6 0-.2.1-.4 0-.6-.1-.5-.2-1-.4-1.5-.7-2.1-2-3.7-4.3-4.1-4.6-.8-10.3-.9-13.3 3.2-1.5 2-1.9 5.2-.2 7.2.4.5 1.2 0 1-.6-.6-1.6-.9-3.3-.1-4.9.7-1.4 2-2.4 3.4-3.1 1.7-.8 3.701-.9 5.501-.8 1 0 2 .1 3 .3.8.1 1.6.3 2.3.9.6.5 1 1.3 1.3 2 .2.4.3.8.4 1.3.1.2.1.4.2.6.1.1.5.7.5.7.2-.2 0-.3-.1-.2zm-3.1 16.4l.1-.1-.1.3c.1 0 .1-.1.2 0l-.2-.2c.1.1.2.3.4.4.2.2.4.3.7.5.4.3.8.6 1.2 1 .4.3.8.7 1.2 1.1.2.2.4.4.7.5.1.1.2.1.3.2s.3.1.4.2c.3.2.6-.2.4-.4-.1-.2-.1-.3-.2-.4s-.2-.2-.2-.4c-.2-.3-.4-.5-.6-.7l-1.5-1.2c-.5-.4-1-.7-1.5-1-.3-.1-.5-.3-.8-.3h-.3c-.1.1-.2.1-.4.2-.1.1-.1.5.1.5.1 0 .2.1.3.1s.2-.2.1-.3c-.1-.2-.3-.2-.3 0zm48.2 20.6a1.4 1.4 0 0 1 .3.4c.1.2.1.3.2.4.2.2.4.5.6.7.4.4.7.9.9 1.5l.2-.7c-.7.3-1.4.4-2.2.3-.355-.006-.701-.11-1-.3-.4-.1-.8-.4-1.2-.2-.1.1-.2.2-.2.4 0 .6.7.8 1.1 1s.9.3 1.4.3c.9.1 1.9-.1 2.7-.5.3-.1.3-.5.2-.7-.3-.6-.701-1.1-1.101-1.6-.2-.3-.499-.4-.799-.6-.111-.105-.25-.175-.4-.2-.2 0-.3-.1-.5-.2-.2-.3-.3-.1-.2 0z"/><path d="M159.298 702.7c.4-.3.2-.9-.2-1-.8-.3-1.1.7-1.3 1.3l-1.4 6.3c-.5 1.8-.9 3.8-2 5.3-.8 1.1-2.6 1.9-3.8.8-.3-.3-.6-.3-1-.1-.9.4-.7 1.9.4 1.9.5 0 .7-.7.2-.9.2.2.1.4-.2.5l-.6-.2c1 1.2 2.7 1.3 4 .8 1.6-.6 2.6-2.1 3.2-3.7.7-1.8 1.1-3.8 1.5-5.6l.6-3c.1-.5.2-1 .2-1.5 0-.2 0-.5.1-.7 0-.1 0-.2.1-.3.1-.2 0-.2-.2-.1 0 0 .2.3.4.2zm-54.2 1.9c-1.4-.9-2.9-1.4-4.4-2l-4.2-1.9c-2.9-1.5-5.5-3.2-7.9-5.3s-4.6-4.3-7.2-6c-2.3-1.5-4.8-2.7-7.3-3.8-5.1-2.1-10.4-3.6-15.5-6-2.5-1.1-4.8-2.5-7-4.2-1.1-.9-2.5-1.9-2.2-3.5.3-1.5 1.1-2.9 1.7-4.3a67.29 67.29 0 0 1 5-9.1c1-1.5 2-2.9 3.1-4.3s2.4-2.6 3.1-4.2c.2-.4-.2-1-.7-.7-1.4.8-2.4 2.2-3.4 3.5-1 1.2-1.9 2.5-2.8 3.8-1.8 2.6-3.4 5.4-4.9 8.3-.7 1.5-1.4 2.9-2 4.4s-1.3 3.1-.6 4.7c.6 1.3 1.9 2.2 3 3.1 1.2.9 2.4 1.7 3.6 2.4 5 2.8 10.5 4.5 15.8 6.5 2.6 1 5.2 2.1 7.7 3.4 2.8 1.5 5.2 3.5 7.5 5.6 2.8 2.5 5.7 4.7 9 6.4 1.6.8 3.3 1.6 5 2.2s3.3 1.3 5.1 1.5c.6 0 .7-.4.5-.5z"/><path d="M50.501 667.8c.1.2.2.3.3.5 0 .2 0 .4.1.5.2.4.6.7.9 1 .6.6 1.3 1.1 2.1 1.6 1.5 1 3.1 1.8 4.8 2.6l11.8 5.8 5.9 2.9 5.5 2.8s3.3 2.2 4.8 3.6l4.3 3.9c1.7 1.3 3.4 2.6 5.3 3.6l2.7 1.4c1 .5 2 .9 3.1 1.1.7.1.7-.8.3-1.1-.8-.5-1.6-.9-2.5-1.3s-1.7-.8-2.5-1.3c-1.6-.9-3.2-1.9-4.7-3-3.1-2.3-5.5-5.4-8.8-7.5-1.7-1.1-3.4-1.9-5.2-2.8l-5.8-2.8-11.6-5.6c-1.9-.9-3.9-1.8-5.8-2.9-.9-.5-1.7-1-2.5-1.6-.4-.3-.7-.6-1.1-.9-.4-.4-.9-.3-1.3-.7.1-.1-.2 0-.1.2zm100.3-661.5c1.2-.7 2.5-1.3 3.8-1.7l4.4-1 4.8-1.2c1.6-.3 3.1-.3 4.7-.1 1.5.3 2.9.3 4.4 0 1.3-.2 2.7-.6 4-.4 1.4.2 2.3 1.3 3.4 2.1.9.7 2 1.2 3 1.6l3.4 1.2c1.1.4 1.9 1.2 2.7 2 .3.3.7 0 .7-.4-.3-1.1-1.1-1.9-2-2.5-1-.6-1.9-1.2-3-1.6l-3.1-1.3c-1.2-.7-2.1-1.9-3.4-2.5-2.8-1.2-5.8.6-8.7.2-.8-.1-1.5-.3-2.3-.3-.9-.1-1.8 0-2.7.1-1.7.2-3.4.8-5 1.2l-5.3 1.7c-1.5.6-3 1.2-4.1 2.4-.3.3 0 .7.3.5zm40.7 3c0 .5.3.8.6 1.3l.9 1.4c.6.9 1.1 1.8 1.6 2.8 1 2 1.8 4 2.5 6.1s1.2 4.2 1.6 6.4l.9 6.4c.1.3.6.3.7 0 .5-1.7.4-3.5.2-5.2-.2-1.8-.5-3.5-1-5.2-.9-3.5-2.3-6.8-4.2-9.8l-1.6-2.5c-.5-.7-1-1.6-1.9-1.9-.1-.1-.3 0-.3.2zm-2.3 5.5h.2.1v-.1-.1h-.1-.1-.1c0 .1-.1.1 0 .2-.1-.1-.1-.1 0 0zm-20.6-8.1c-.4.5-.3 1.4-.4 2.1l-.3 2.5c-.1 1.5-.5 3.2-.3 4.7.2 1.4 1.3 2.6 1.9 3.8l1.1 2.1 1 2.1c.4.7 1.4.2 1.3-.5-.3-1.4-1.1-2.8-1.8-4-.4-.6-.7-1.3-1.2-1.9-.4-.6-.8-1.1-1-1.8s-.1-1.5-.1-2.2v-2.4-2.4c0-.6.1-1.5-.2-2.1.1-.1 0-.1 0 0zm-10.2 1.5c-.3 1.5-.4 3-.5 4.5-.1.8-.1 1.7-.1 2.5 0 .7-.1 1.5.1 2.2s.5 1.3.8 1.9l1 2.1c.3.7.7 1.4 1.1 2.1s.7 1.5 1.2 2 1.2 0 1.1-.7-.5-1.3-.8-2-.7-1.3-1-2c-.6-1.3-1.4-2.5-2-3.8-.3-.6-.2-1.4-.3-2-.1-.7-.1-1.5-.1-2.2l-.1-2.2c0-.8.1-1.6 0-2.3.1-.3-.3-.4-.4-.1zm-8.2-1.5c-.5 1-.7 2.2-.9 3.3l-.6 3.3c-.3 2.3-.4 4.4.5 6.5s2.2 4 3.3 6c.5.9.9 1.8 1.5 2.6.5.7 1.2 1.6 2.1 1.8.7.2 1.3-.7.7-1.2-.7-.6-1.3-1-1.7-1.8l-1.5-2.6-3-5.3c-.9-2-.9-3.9-.7-6l.4-3.2.6-3.2c0-.4-.6-.5-.7-.2zm25.5 18.5c-.3.7.1 1.4.1 2.1 0 .6-.2 1.3-.6 1.8-.8 1.2-2.1 1.9-3.4 2.4-1.4.5-2.9.7-4.2 1.4-.8.5-2.5 2.1-1.6 3.1.1.1.4.2.5.1.3-.2.4-.4.5-.7s.4-.6.6-.8c.5-.5 1.2-.7 1.9-.9 1.5-.4 3-.7 4.3-1.4a6.25 6.25 0 0 0 3-3c.5-1.4.2-2.8-.3-4.1-.2-.5-.7-.3-.8 0z"/><path d="M176.5 28.9l.1-.2c-.2.2-.3.4-.2.7 0 .1.1.2.1.3.1.2.3.3.5.5.4.3.8.4 1.3.6.4.2.8.3 1.2.3.3.1.6.1.9 0 .2 0 .4-.1.6-.2.3-.1.3-.6 0-.8-.2-.1-.4-.2-.6-.2-.2-.1-.3-.1-.5-.2l-1.1-.3c-.2-.1-.3-.1-.5-.2h-.1c.1 0-.1 0 0 0-.1 0-.2-.1-.3-.1s-.4-.2-.4-.2l.1.1c-.1-.1-.1-.1 0 0 0 .1 0 0 0-.1-.1-.1-.2-.2-.3-.2l.3.4c0-.2-.2-.5-.4-.5-.4-.1-.7 0-.7.3zm3.4-21.8c-.4.9-.6 2-.7 3l-.7 3.2c-.4 2-.8 4.1-.5 6.1s1.2 3.8 2.2 5.5c1.1 1.8 2.3 3.5 3.6 5.2.6.8 1.3 1.8 2.2 2.4.4.3.9.5 1.4.5.6 0 .9-.2 1.4-.5.6-.4.1-1.3-.6-1-.3.1-1-.1-1.3-.3-.4-.2-.8-.7-1.1-1l-2.1-2.8c-1.4-1.9-2.7-3.9-3.6-6.1-.4-1-.7-2.2-.8-3.3-.1-1.2.1-2.4.3-3.5.2-1.2.3-2.4.4-3.6.1-.6.2-1.1.2-1.7.1-.6.2-1.3.1-1.9.1-.3-.3-.5-.4-.2zm9.7 24.6c1.3.1 2.4-1.5 2.6-2.6.4-1.8-.5-3.4-1.4-4.9-.9-1.6-1.8-3.1-2.1-4.9-.2-.7-.2-1.5-.1-2.3s.5-1.5.8-2.2c.1-.3-.1-.6-.4-.4-1.2.7-1.6 2.2-1.7 3.5-.1 1.6.4 3.2 1.1 4.6.8 1.6 1.8 3 2.4 4.7.2.8.4 1.6.1 2.4-.1.3-.3.7-.6.9s-.6.3-.9.5c-.4.1-.2.6.2.7zm-15.4-10.3l-6.3.8c-1.7.2-3.7.3-5.1 1.5-.6.6-1 1.3-1.5 2-.4.7-1 1.3-1.6 1.8-.8.8-2.7 2.6-1.8 3.9.1.2.3.2.5.1.6-.3.8-1 1.1-1.6.4-.6.9-1.1 1.4-1.7.52-.521.989-1.09 1.4-1.7.4-.7.8-1.4 1.4-2 1.2-1.1 3.3-1.1 4.8-1.3l5.8-1c.6.1.5-.9-.1-.8zm-17.8 9.9c-.6 0-.6 1.4-.7 1.8 0 .9.1 1.8.2 2.6.4 1.9 1.4 3.6 2.7 5s3 2.6 4.8 3.3c.9.4 1.9.7 2.8 1 .5.1.9.3 1.4.3.5.1 1.1 0 1.6 0s.6-.7.1-.9-.9-.4-1.3-.6c-.4-.1-.9-.2-1.3-.4l-2.6-1c-1.6-.7-3.2-1.7-4.4-2.9s-2.1-2.7-2.7-4.3c-.3-.8-.4-1.6-.5-2.5.2 0 .4-1.5-.1-1.4zm21.3 15.1c.6.5 1.5.6 2.3.8s1.6.2 2.5.3c1.7.1 3.4-.1 5.1-.4s3.3-.9 4.9-1.7c1.5-.7 3.2-1.6 4.2-3 .2-.3-.2-.7-.5-.5-.7.3-1.4.9-2.1 1.3s-1.4.9-2.1 1.2c-1.5.7-3 1.3-4.6 1.6s-3.2.5-4.9.5c-.8 0-1.6-.1-2.4-.1-.8-.1-1.6-.3-2.3-.2-.2 0-.2.1-.1.2zm-59.8 74.3c-1.3.4-2 1.5-2.3 2.7-.5 1.5-.1 3.4.1 4.9.2 1.6.5 3.2 1.1 4.7.5 1.4.9 3.1 1.9 4.2.1.1.3 0 .3-.1 0-1.3-.6-2.6-.9-3.9l-.8-4.2-.4-4.2c-.1-1.4 0-2.7 1.3-3.6.1-.2 0-.6-.3-.5zm2.4 20.9c.4 1.6.2 3.4-1 4.7-1.1 1.2-3 1.6-4.6 1.1-.8-.3-1.4-.9-2.1-1.3-.8-.4-1.8-.6-2.7-.4s-1.6.7-2.5 1c-.8.3-2.2.2-2.1-.9 0-.6-.7-.6-.9-.1-.3.7 0 1.4.5 1.9.6.6 1.5.7 2.4.5s1.7-.7 2.5-.9c1-.3 1.8-.2 2.6.4 1.4 1 2.8 1.5 4.5 1.2 1.5-.3 2.9-1.2 3.6-2.6.8-1.4.9-3.3.2-4.8-.1-.2-.5 0-.4.2zm-34.4-22.8c1-1 2.2-1.9 3.5-2.5s2.7-1.3 4.2-1.6c1.5-.2 3-.1 4.5.2 1.1.2 2.3.6 3.2 1.3.4.3.7.9 1.1 1.2.5.3 1 .1 1.1-.5.2-1.1-1.4-2.2-2.2-2.7-1.1-.6-2.3-.9-3.5-1.1-1.5-.2-3.1-.3-4.6 0-1.7.3-3.1 1.3-4.5 2.3-1.2.9-2.6 1.6-3.4 3-.2.3.3.7.6.4zm16.9 9.3c-.8.2-1.5.9-2.2 1.2-.8.4-1.6.6-2.4.8-1.6.4-3.3.5-4.8.1s-2.9-1.2-3.8-2.4c-.4-.5-.7-1.2-1.3-1.6-.6-.3-1.3-.3-1.7.1-.4.5.2 1.2.7.7s1.3 1.3 1.5 1.6c.4.6.9 1.1 1.5 1.5 1.2.9 2.7 1.5 4.2 1.6 1.6.2 3.4-.1 4.8-.9l2.1-1.3c.6-.4 1.3-.9 1.6-1.5-.1.2-.2.1-.2.1zm-11.9-3.7c.4.1.8-.2 1.1-.3l1.5-.6c.9-.3 1.8-.5 2.7-.4s1.7.4 2.5.8 1.4 1.1 2.2 1.5c.2.1.5-.1.4-.3-.3-1-1.2-1.6-2-2-.9-.5-1.8-.8-2.8-.9s-2 0-2.9.4a11.95 11.95 0 0 0-1.6.8c-.4.2-1 .5-1.1 1-.1 0-.1-.1 0 0z"/><path d="M95.001 122.7c-1.4-.3-2.2 1.2-2.2 2.5 0 1.4.5 2.8 1.7 3.6 1.1.8 2.5.7 3.5-.2.9-.8 1.3-2 1.4-3.2 0-.7-.1-1.3-.3-1.9-.2-.5-.7-1.3-1.4-1.2-.2 0-.4.2-.3.4.2.4.5.7.7 1s.2.7.3 1.1c0 .8-.2 1.7-.6 2.4-.5.7-1.2 1-2 .7-.9-.3-1.4-1.3-1.7-2.2-.1-.6-.2-1.2-.1-1.8.1-.5.6-1 1.1-1.1 0 .2 0-.1-.1-.1zm22.9 3.7c.6-.7 1.3-1.4 2.2-1.8.9-.5 1.8-.7 2.8-.7.8 0 1.9.2 2.5.8.3.3.4.7.8 1 .4.2.7.2 1.1-.1.1-.1.1-.4-.1-.5-.3-.2-.5-.6-.8-.9-.3-.4-.6-.7-1.1-.9-.9-.4-1.9-.6-2.9-.6-2.1.2-3.7 1.6-5 3.1-.4.5.2 1 .5.6zm.2 2.9c1.3 1.6 3.4 3 5.5 2.8 1-.1 2-.5 2.7-1.3.3-.4.6-.9 1-1.3.3-.4.7-.8.9-1.2 0-.1-.1-.2-.2-.2-.4.2-.7.5-1 .8s-.7.6-1 .9c-.7.6-1.5 1.1-2.4 1.1-1.9.2-3.5-1-5.2-1.8-.3-.1-.4.1-.3.2z"/><path d="M122 123.4c-1 .3-1.7 1.3-2 2.3-.2 1.1.1 2.3.9 3s2.1.9 3 .3c.5-.3.8-.8 1.1-1.3.3-.6.5-1.2.6-1.8s0-1.2-.3-1.8-.8-1-1.4-1c-.4 0-.6.5-.3.8.3.2.6.4.7.7.2.3.2.6.2 1 0 .5-.2.9-.3 1.3-.2.4-.3.8-.6 1.1-.5.4-1.3.4-1.8 0-.6-.4-.8-1.2-.8-1.9.1-.9.7-1.5 1.3-2 .4-.3.1-.8-.3-.7zm-4.4 34.8c-1-1-2.6-2-4.1-1.9-.4 0-.8.1-1.3.1-.4 0-.8-.1-1.2-.2-.9-.2-1.7-.5-2.6-.4-1.7.2-3.2 1.1-4.9 1.3-1.7.1-3.4-.3-5-1.1-.8-.4-1.6.8-.7 1.3 1.4.8 3 1.2 4.6 1.2.842-.001 1.681-.102 2.5-.3.8-.2 1.6-.6 2.4-.8.9-.3 1.7-.3 2.6 0 .8.2 1.6.4 2.4.3s1.6-.3 2.4-.1 1.5.8 2.3 1.2c.5.1.9-.3.6-.6z"/><path d="M116.6 160.3c-1 1.5-3 2.2-4.7 2.3-1.8.1-3.6-.2-5.3-.7s-3.1-1.4-4.4-2.6c-1.2-1.1-2.3-2.2-3.9-2.6-.5-.1-.9.6-.4.9 1.7.8 2.8 2.3 4.2 3.4 1.4 1.2 3.2 2 5 2.4 1.9.4 3.9.6 5.8.2.9-.2 1.7-.6 2.4-1.1s1.1-1.2 1.5-2c.2-.2-.1-.4-.2-.2zm-11.2 6.5c.5.4 1.2.6 1.8.7.7.2 1.3.3 2 .3.6 0 1.3.1 1.9 0 .3 0 .5-.1.7-.2.3-.2.4-.4.4-.8 0-.3-.4-.5-.6-.4-.8.4-1.9.3-2.7.2-.5-.1-1.1-.1-1.6-.3-.5-.1-1.1-.4-1.6-.4-.4.2-.6.7-.3.9zm25.7-47.8c.4 4.1.4 8.2 0 12.3s-1.2 8.2-2.2 12.2c-1 4.1-2.3 8.1-3.7 12.1l-4 11.2c-.7 1.9-1.6 3.8-2.5 5.6-.5.9-1 1.8-1.6 2.7s-1.2 1.7-1.7 2.6c-.1.3.1.6.4.4 1.6-.9 2.6-2.7 3.5-4.2 1-1.6 1.8-3.3 2.5-5 1.6-3.7 2.8-7.5 4.2-11.3 2.8-8.1 5.3-16.3 6.1-24.8.4-4.7.4-9.5-.6-14 0 0-.4 0-.4.2zm-63.3 37.5c-.6 1.3 1 2.7 1.8 3.5l4 3.7c2.6 2.4 5.3 4.8 8.1 6.9 5.6 4.3 11.8 8 18.7 9.7 1.9.5 3.7.8 5.6 1s4.1.4 5.9-.3c.4-.1.5-.8 0-.9-1.6-.3-3.3-.1-5-.2s-3.3-.3-4.9-.7c-3.3-.7-6.5-1.9-9.6-3.4-6.1-3-11.5-7.2-16.6-11.7l-4.3-3.8c-.7-.6-1.4-1.2-2-1.9-.6-.6-.9-1.4-1.5-1.9-.1-.1-.2-.1-.2 0zm-1.002 33.9c.9-.8.7-2.2.9-3.3l.3-3.8.4-7.5c0-4.9-.2-10-1.3-14.8a36.02 36.02 0 0 0-2.7-7.8c-.2-.5-1-.1-.8.3 1.8 4.5 2.9 9.3 3.3 14.1.4 4.9.2 9.8-.2 14.7l-.3 4c-.1.7-.1 1.3-.2 2s-.1 1.3.3 1.9c0 .2.1.3.3.2zm45.1-7.2c-.1.2-.1.5-.1.8v1c0 .7.1 1.3.2 2l.3 2c.1.6.2 1.3.6 1.8.1.2.4.1.4-.1.2-.6.1-1.3 0-1.9l-.3-1.9c-.1-.6-.1-1.3-.2-1.9 0-.3-.1-.6-.2-1-.1-.3-.1-.6-.2-.9-.3 0-.5-.1-.5.1z"/></g></g><defs><radialGradient id="A" cx="0" cy="0" r="1" gradientUnits="userSpaceOnUse" gradientTransform="translate(124.034 260.869) rotate(-30.0008) scale(10.6178 22.6375)"><stop stop-color="#f6c7c0"/><stop offset=".123" stop-color="#f6c7c1" stop-opacity=".983"/><stop offset=".25" stop-color="#f6cac4" stop-opacity=".932"/><stop offset=".379" stop-color="#f7cfc9" stop-opacity=".848"/><stop offset=".51" stop-color="#f8d6d1" stop-opacity=".73"/><stop offset=".642" stop-color="#f9deda" stop-opacity=".577"/><stop offset=".775" stop-color="#fbe9e6" stop-opacity=".39"/><stop offset=".906" stop-color="#fdf5f4" stop-opacity=".174"/><stop offset="1" stop-color="#fff" stop-opacity="0"/></radialGradient><radialGradient id="B" cx="0" cy="0" r="1" gradientUnits="userSpaceOnUse" gradientTransform="translate(177.866 26.9522) rotate(-26.0696) scale(22.944 27.3948)"><stop stop-color="#f6c7c0"/><stop offset=".123" stop-color="#f6c7c1" stop-opacity=".983"/><stop offset=".25" stop-color="#f6cac4" stop-opacity=".932"/><stop offset=".379" stop-color="#f7cfc9" stop-opacity=".848"/><stop offset=".51" stop-color="#f8d6d1" stop-opacity=".73"/><stop offset=".642" stop-color="#f9deda" stop-opacity=".577"/><stop offset=".775" stop-color="#fbe9e6" stop-opacity=".39"/><stop offset=".906" stop-color="#fdf5f4" stop-opacity=".174"/><stop offset="1" stop-color="#fff" stop-opacity="0"/></radialGradient><radialGradient id="C" cx="0" cy="0" r="1" gradientUnits="userSpaceOnUse" gradientTransform="translate(94.2152 137.386) rotate(-0.553006) scale(26.6457 11.6248)"><stop stop-color="#f6c7c0"/><stop offset=".123" stop-color="#f6c7c1" stop-opacity=".983"/><stop offset=".25" stop-color="#f6cac4" stop-opacity=".932"/><stop offset=".379" stop-color="#f7cfc9" stop-opacity=".848"/><stop offset=".51" stop-color="#f8d6d1" stop-opacity=".73"/><stop offset=".642" stop-color="#f9deda" stop-opacity=".577"/><stop offset=".775" stop-color="#fbe9e6" stop-opacity=".39"/><stop offset=".906" stop-color="#fdf5f4" stop-opacity=".174"/><stop offset="1" stop-color="#fff" stop-opacity="0"/></radialGradient><radialGradient id="D" cx="0" cy="0" r="1" gradientUnits="userSpaceOnUse" gradientTransform="translate(119.101 138.625) rotate(-0.553024) scale(16.6946 11.6233)"><stop stop-color="#f6c7c0"/><stop offset=".123" stop-color="#f6c7c1" stop-opacity=".983"/><stop offset=".25" stop-color="#f6cac4" stop-opacity=".932"/><stop offset=".379" stop-color="#f7cfc9" stop-opacity=".848"/><stop offset=".51" stop-color="#f8d6d1" stop-opacity=".73"/><stop offset=".642" stop-color="#f9deda" stop-opacity=".577"/><stop offset=".775" stop-color="#fbe9e6" stop-opacity=".39"/><stop offset=".906" stop-color="#fdf5f4" stop-opacity=".174"/><stop offset="1" stop-color="#fff" stop-opacity="0"/></radialGradient><clipPath id="E"><path fill="#fff" d="M0 0h243v805H0z"/></clipPath></defs></svg>