<svg xmlns="http://www.w3.org/2000/svg" width="248" height="715" fill="none" xmlns:v="https://vecta.io/nano"><path d="M128.899 184.3c.9-9.4-4.4-18.3-3.3-27.6.5-2.2-1.9-4-3.8-2.7-.9-.3-1.9 0-2.7.7-1.7.1-2.9 1.9-4.5 2.4-3.9 1.5-10 3.8-13.7 1-1-2-4.6-1.6-4.7 1.1-9.5-3.8-13 12.8-2.8 13.2-.2 2.1-1.1 4.9 0 6.8 0 1.9-.2 3.9.3 5.7-.6 4.1.4 8.4 1.3 12.4-1.2 4.1-.2 8.9.4 13.1-.9 1.1-.3 2.9-.4 4.2-3.1 1.4-1.7 6.2-3.3 9-.6 2.5-1.1.5-.4 3.1 0 0 1.4-1 2.7-1.4s2.2 0 2.2 0c0 .3-.1-.3 0 0 .2-2.5 0-.1 0 0 0-.6 0 0 0 1.7v-1.7c0-.2.1 1 .1.9 1-.3 2-.3 3.1-.2 0-.4.3-.7.3-1.1.4.3 1 .5 1.5.5.9 1.1 2.8 1.5 3.8.4.9 1.2 2.8 1.3 3.8.3.5 2 3.1 2.1 4.3.8.5.4 1.2.5 1.9.4.9 1.5 2.8 1.6 3.9.5.8.6 1.9 1.2 2.9.7a2.2 2.2 0 0 0 1.4.2c.4 3.6 5.9 2.8 5-.7 1.4-14.6-1.2-29.3.7-43.7zm-35.5-17c-1.8 0-1.8-3.3-.2-3.7-.3 1.3.2 2.7 1.2 3.5-.3.2-.6.3-1 .2zm28.7 32.2c-.6.4-1 1.1-1 2-1.6.4-2 2-1.7 3.4-.6-.8-1.9-1.1-2.9-.6-1.3-1.3-3.8-1-4.2 1-.4-.3-1-.4-1.6-.3 0-1 0-2-.1-3.1 1.9-9.3-2.7-21.2-7.3-29.5 0-2.8-.5-5.6-.7-8.4 4.7.6 9.7-1 14.3-2.2-.5.5-.5 1.3-.3 2l.3 10.3c-.9.4-1.4 1.4-1.3 2.5-.4.1-.9.3-1.2.5-4.8-1.4-4.7 10.1-.3 9.8.8.7 1.7.6 2.7.7 1.3.9 3.3.3 3.8-1.3h.3c.9 3.2-1.7 9 2.2 10.5 0 .3 0 .5.1.8-.7.5-1.1 1.1-1.1 1.9z" fill="#f4efea"/><path d="M184.299 268.2c-.1-.2-.3-.3-.5-.5-.3-.3-.6-.6-.9-.7a3.01 3.01 0 0 0-.5-.7c-1.2-1.2-3-.8-3.9.5-.2.2-.3.5-.5.7-.1-.1-.2-.2-.4-.3-.1-.4-.3-.7-.5-.9.5-.1.8-.4 1.1-.7 1.2-.4 1.8-1.9 1.5-3-.4-1.4-1.7-2-3.1-1.7-.4-.4-1-.7-1.7-.8v-.1c1.3-.3 1.8-1.5 1.7-2.7h.2c1.3-.2 2.5-1 2.5-2.5 0-1.1-1-2.5-2.3-2.5.1-1.2-.5-2.4-1.6-2.8a2.37 2.37 0 0 0-.9-1.5c.1-.2.1-.4.1-.6 0-.7-.3-1.3-.8-1.8v-.2c1.5-.5 2-2.2 1.4-3.5 1.7-.7 1.6-3.2.3-4.3.151-.394.202-.819.15-1.238a2.57 2.57 0 0 0-.45-1.162l1.7-.6c2.2-.8 2.2-3.2.8-4.3.2-.1.3-.1.5-.2 2.6-1.2.7-5.3-1.9-4.6l-6.3 1.8c-.1 0-.2 0-.3.1-.4-.2-.8-.4-1.3-.4-2.5-.1-4.9.1-7.3.3-2.4 0-4.9.1-7.3.4h-.2l-2.6.1-4.7.1c-.3 0-.6.1-.9.2l-4.9.1c-.1 0-.3 0-.4.1h-4.2c-2.4-.1-4.8.1-7.2.4-.2 0-.4.1-.5.2h-.9l-6.8-.7-6.5-.8c-3.1-1-6.3-1.6-9.6-1.9-2.5-.7-5.1-.8-7.8-.3-.2 0-.4.1-.5.2-1.9.3-3.8 1-5.5 1.4-.6.2-1.2.3-1.8.5a41.78 41.78 0 0 0-5-.3c-.7-.2-1.3-.3-2-.4-.191-.455-.425-.89-.7-1.3-1.8-2.4-5-2-7.6-2.2h-.1c-.6-.1-1.1-.1-1.7-.1h-1c-.8-.3-1.6-.4-2.6-.4h-2c-.3 0-.3 0-.6-.1h-.2l-.2-.2c-.9-1-2.6-.9-3.5 0-1 1-.9 2.5 0 3.5l.1.1-2 .3c-2.6 0-5.2.3-7.7.9-2.2.2-4.7.5-6.6 1.5a59.46 59.46 0 0 0-14.1 5.1c-.2.1-.4.3-.6.4-.3.1-.6.3-.9.4-.2.1-.4.3-.6.4-2.3.5-4.4 1.5-6.2 3-.4.2-.8.3-1.1.5-.4.2-.7.4-1 .7l-5.7 2.3c-.3.1-.6.3-.8.5-1 .3-1.9.7-2.8 1.1-.2.1-.3.1-.5.2l-1.2.3h-.1-.7c-1.3 0-2.6 1.1-2.5 2.5 0 .9.5 1.6 1.1 2 .7.9 2.2 1.2 3.3.6l.6-.3c-.1.5 0 1 .3 1.5 1 1.5 2.4 2.7 3.8 3.8 0 .6.3 1.2.7 1.8.4.5.8.9 1.2 1.3v.1l-2.6 4.5c-.6.3-1.2.8-1.5 1.4-.4.8-.5 1.7 0 2.5a1.96 1.96 0 0 0 .9.9c.4.2.8.3 1.3.3.6.1 1.1 0 1.7-.1.2 0 .5-.1.7-.2h.3c.6 0 1.4-.3 1.8-.7.7-.8 1.2-1.6 1.5-2.6.1-.2.1-.5.1-.8l.2-.2c.5.8.9 1.5 1.5 2.2.3.4.5.8.8 1.2.3.5.8.8 1.3 1-.281.391-.484.832-.6 1.3-.4 1.2-.2 2.4.3 3.5.4.9 1.9 1.5 2.8 1.1 1-.4 1.8-1 2.4-1.8.1.1.1.2.2.2.9 1.1 2.3 1.6 3.7 2 .1.1.2.2.3.2 1.9.9 4 1.3 6.1 1 .2.3.4.5.7.7v.1c.4 2.4 2.8 3.3 4.8 4.2 1.2.5 2.5.6 3.6-.2 1.5-1.1 1.8-3.1.7-4.5.7.4 1.5.5 2.4.3.4-.1.7-.3 1.1-.4 0 0 .5-.1.6-.2.2 0 .4 0 .5-.1.3 0 .7-.1 1-.1l4.2-.4c.4 0 .8-.2 1.2-.4 7.9.2 15.9.2 23.8.1.5 0 1-.2 1.4-.4 1.8.1 3.6.1 5.4.2l15.1 1.7h.5l2.5.4c.9.3 1.7.5 2.6.7.3.2.6.4 1 .5l1.9.3c.3.1.7.2 1.1.2h.5c.5.1 1 .1 1.5.2.4.1.9.1 1.3.2.4.4 1 .7 1.8.6 1.5-.1 3.1-.2 4.6-.4h.1c.2 0 .3 0 .5-.1l2.4-.3c3 .7 5.9 1.9 8.7 3.1.4.2.7.3 1.1.5.3.7.9 1.2 1.6 1.5 7.2 2.8 14.8 4.3 22.6 4.7.3 0 .7-.1 1-.2.4 0 .7 0 1.1.1.4.3.9.5 1.5.4s1.2-.1 1.8-.2c.4.4 1 .7 1.7.7 2.2 0 3.8-1.3 5.2-2.8s3.1-2.9 3.9-4.8c.1-.2.2-.5.3-.7 0 0 .1-.3.1-.4.1-.2.2-.4.3-.5 0 0 .3-.5.2-.3.6-.8 1.2-1.6 1.7-2.4.1-.1.1-.3.2-.4.9-1 1.6-2 2.3-3.1.7-1.4.4-2.9-.6-3.6zm-136.4 3.9c-.1 0-.3-.1-.4-.1-.1-.1-.2-.1-.3-.2v-.5c.2 0 .4.1.6.1.1 0 .3.1.3.1.2.1.3.2.5.3.2.2.4.4.6.5l.3.3c-.6-.2-1.1-.4-1.6-.5zm82.3-181.4c-.6-1.8-2.1-3.6-3.9-4.4.1-.1.2-.1.4-.2.1-1.7 1.4-3.4 1.9-5 1.3-.9.8 1 .4 1.6.3-.5.8-1.3 1.5-1-.2-.4-.6-.7-1.1-.9 2.5-9.7-9.6-8.8-3.8-15 2.4-1.6.9-5.1-1.9-4.6-3.3.1-4.5-3.9-5.3-6.4-.8-2.7-4.8-2.2-4.9.7-1.1 5.9-9.1 6.4-12.7 2.6-.1-.8-.8-1.4-1.5-1.8-.2-2.2-3.6-2.8-4.6-.8-1.6 3.5-5.3 5.9-9.2 5.9-4.7-6.5-13.1 3.5-7.6 8.4-.3.4-.6.9-1 1.3-1.7 0-3.2-.8-4.5-1.8-1-2.2-3.7-2.2-5.6-1.5-3.8-1.2-3.9 2.6-6.7 3.8-1.1-.4-2.1-.8-3.1-1.2-.1.6-1.1-.3-1.3.3-2.7.4-3 5-1.8 6.6 6.2 13.5 23.2 48.2 38.9 50.1 3 6 0 10.8.9 17 1.4 2.4.2 6.4 2.4 8-1.6 4.3 3.1 6.1 6.7 4.1 2.6.1 5.4 0 8-.6 1.1 1.3 3.3.4 4.6 1.3 1.4-.7 3-2.2 4.6-2.2 1.6-1.3 3.5-3.9 1.6-5.7-1-10.1 1.4-20.3 4.7-29.9 2.6-5.7 4-12.4 2.2-18.5.4-1 .4-2.2-.4-3 1.1-2.2 2.9-4.6 2.1-7.2z" fill="#fae6e1"/><path d="M183.901 651.3c.2 0-.2-.1-.2-.2-.2-.2-.3-.4-.4-.6-.4-.8-.4-1.8-.5-2.7-.3-2.1-.8-4.1-1.5-6-.6-1.5-2.3-1.8-3.2-.9-.1 0-.2-.1-.3-.1h-.1c0-.6.1-1.2.1-1.8.1-1.4-1.2-2.1-2.4-1.9-.2-1.2-1.4-1.8-2.5-1.5-.3-.2-.5-.4-.8-.6-.6-.6-1.7-.8-2.4-.3-2.1 1.3-2.9 3.9-3.8 6-.9 2.4-1.7 4.8-2.3 7.3-.5 2 1.8 3.2 3.2 2.1.6.7 1.9.9 2.7.4.3.2.6.3 1 .4 0 .3-.1.7-.1 1-.1 1 .9 1.9 1.7 2h.5c.2.8 1.1 1.4 1.9 1.4.6 0 1.2-.1 1.6-.4.7 1.4 2.7 1.8 3.6.3.3-.5.5-1.1.7-1.7.8 1 1.9 1.7 3.4 1.8 1.1.1 2-1 2-2 .1-1.2-.8-1.9-1.9-2z" fill="#f4efea"/><g fill="#557689"><path d="M191.201 492.7c-4.8-16.7.4-35.1-3.4-51.7-.7-5.5 3.1-21-.3-24 .2-2.2 1.5-4.8.5-6.9.2-1 1.3-2.2.7-3.1.5-5.9 1.7-12.3.8-18.2-.2-4 1.6-8.8-.6-12.3-.2-2.6 2.1-6.6-.3-8.4-.1-3.9-.5-7.9-1-11.8-.1-.6-.1-1.2-.6-1.7.7-4.4-1.7-8.2-3.5-11.9-.5-3.3-1.3-6.8-3-9.7-.3-3.3-4-11.1-7.5-6.1-.9 0-1.9.5-2.4 1.3-.3.1-.6.2-.9.4-1-.2-2.2-.4-3 .4-1 0-2 .6-2.4 1.8-.3.2-.6.4-.8.7-.7-.2-1.4-.1-1.9.2-1.1-.3-2.3-.1-2.9 1.1-3.6 3.1-7.1 7.3-11.7 9.6-.4-.2-1-.2-1.4-.1 1.2-1 1-2.9-.1-3.9.1-1.4-.7-2.9-2.3-2.9 2.1-1.3.8-4.7-1.6-4.5.6-1.7-1.2-4.2-3.1-4.1-3.4.7-7.3.4-10.5 1.8-3.4.1-6.1-1.2-9.5-.6-1.2-.7-3.5.1-4.9.5-.6-.2-1.1-.2-1.7.1-7.6-1.3-18.8-1.2-25.1-5.2-.5-.1-1.1.1-1.5.3-1.8-.3-3 1.4-2.9 3.1-2.7-.3-4.9 2.7-2.6 4.6-1 .9-1 2.7 0 3.7-.1.4 0 .8.1 1.2-2.1 0-3.5 2.4-2.1 4.1-.4.2-.7.4-1 .8-.1 0-.1-.1-.2-.1-.7-3.4-5.6-2.5-5 1-.6-2.1-3.6-2.3-4.6-.6-.1 0-.2-.1-.3-.1-.2-1.1-1.1-1.8-2.1-1.9-.3-1-1.2-1.6-2.2-1.7-.3-2.6-3.4-2.9-4.6-1-.6-1.2-1.9-1.7-3.1-1.3-.8-2.1-3.9-2.1-4.7-.2h-.1c-.3-.2-.6-.3-.9-.3-.2-1.2 0-2.8-1-3.7-.2-2.5-2.1-6.5-4.9-4.4-.5-.6-1.2-1-2-1 .3-2.3-2.4-3.5-4-2.4-7.5-2.3-4.9 23.5-5.3 28.2-.9 6.5 2.8 14 3.2 20.6 1.1 9.4 1.7 19.3 3.8 28.6.2 1.8-.2 4.1.8 5.6.4 1.5.1 3.2 1 4.5 2.1 14.9 6.1 29.4 8 44.4-1.3 3.5 1.2 7.6.7 11.3.3 5.1.5 9.6-.2 14.6-1.6 3.6-4.5 9 .2 11.5.6 3.5-2.8 7-1.1 10.3-.8 2.8 1.3 5.9 2.7 8.2 1.4 3.1 1.9 6.4 4.2 9 .9 4.2 2.2 8.9 4.7 12.3.5 1.2.6 2.7 1.5 3.6 2.3 9 3.8 18.2 5.7 27.2-.6 4.1.8 8.6.6 12.8l-.1 14.7c-2 2.4-.5 6.5-1.3 9.5-.5 4.5-4.4 8.7-3.4 13.3 6.8 11.2 14.8-7.9 32.1-.9 1.6 2.1 4.1 3.5 6.7 3.9 2.7 5.3 15.8-.2 10.9-5.5l-.9-.9c.3-1-.5-1.8-1-2.6-.2-.6-.5-1.2-1-1.5.2-1.8 2.5-4 1.7-5.8 1-2.1-.1-4.3-1.9-6.1 0-1.1.1-2.2 0-3.4 3.1-3.8.7-10-1.4-13.7-.1-.4.1-11.5-.2-11.5-.5-6.7 2-14.5-.2-20.7.3-10.6 2.9-21.9 2.4-32.1 0-1.5.6-3.2.1-4.6.2-3 1.8-7-.1-9.7 0-2.4-1.6-4.3-3.3-6 .1-.7-.2-1.4-.5-2 .1-2.5 1.1-5.8-.2-8 .1-1.8 1.9-4.6-.3-5.7-.7-5.5 0-11-.6-16.4 1.4-.8 1.4-18.1.2-19.3-.1-1.1.1-2.2.1-3.3.5-.4.6-1.2.7-1.8l1.9-35.5c.2-3.3 1.6-7 .8-10.1-.6-3.1 1.1-6.8-.3-9.5.2-4 .2-8.2.9-12.1.6-.6 1.1-1.2 1.7-1.8.3.2.7.2 1 .3 0 0 .1.1.2.1 0 1.1.2 2.2 1.1 3 .5 2.9-.4 5.7.4 8.5.5 4.1-.3 9.3 1.4 13 0 .9.2 2.8.8 3.4.4 3.5-.7 8.2 2.3 10.5a.9.9 0 0 0 .1.5c-.8 3.6.1 8.6 1.9 11.8 1.6 6.7 2.1 13.5 4.2 20-.4 4.1 2.1 8.4 2.7 12.6.4 4.2.4 8.9 2.3 12.7-.1 4.3-.3 8.9.7 13.2.1 3.8-1.3 8.7 1.3 11.9.1 1.5.8 3.1 2.5 3.2.5.6 1.4 1 2.2.9-.5 2.4 1.5 4.4 3.6 3.3 1 1 2.5.9 3.5 0 .452.2.948.277 1.44.225a2.83 2.83 0 0 0 1.36-.525c2.1 3 5.4 0 4.9-3.2.4.1.8.1 1.2 0 .3.2.6.3 1 .4-.5 2.5.9 5.4 3.6 4.2 1.1 1.6 3.7 1.4 4.4-.5-.5 3.2 4 4.4 4.9 1.5.6.4 1.3.5 2 .4-.1 2.2 2.1 4.1 4.1 2.6.6 1 2.1 1.5 3.2.8 3.3.5 2.8-3.4 2.6-5.6.4.2.8.3 1.1.3.1.8.5 1.5 1.1 1.8.9 1.5 3.1 1.6 4.1.4-.4 3.7 4.9 5.3 5.3 1.2l-.3-3.5c2.1.2 3.8-2.2 1.9-3.9z"/><path d="M204.9 627.1c-.9-2-1.6-4.5-3.7-5.5-.2-.6-.8-1-1.3-1.3.8-1.9-1-3.9-2-5.4 0-1-.1-2 0-3 .7-2.4 2.8-14.8.3-15.7.5-7.1 1-14.4.6-21.5 1.9-9.2-.3-19.9-.1-29.5-.2-4.9 2.8-12-.1-16 0-1.6.7-3.8-.3-5.2 0-3.3-2-6.4-4-9.1.4-3.6-.7-7.5.9-10.8.7-1.5 1.5-1.9-.1-4.5-.5-5.7-3.4-11-5-16.3-.4-1-1.3-1.8-2.4-1.8-5 1.2-1.9 8.8-1.3 12.4-.3.5-.5 1.1-.5 1.8h-.1c-.5-.5-1.1-.9-1.9-.9.8-3.2-4.2-4.8-4.9-1.4-.3-.1-.5-.1-.8-.1-.6-2-3.6-2.5-4.5-.8-.7-1.2-2.7-1.5-3.6-.5-.4-.5-1-.7-1.6-.7-.2-1.3-1.6-2.3-2.9-2-2.1-3.2-5.3-.1-4.8 2.9h-.3c-.2-1.7-1.9-2.7-3.5-2 .1-1.8-1.4-3-2.8-2.8-1.5-1.8-4.5-.7-4.5 1.7-1.3-2.6-5.4-4.3-6.1-.5-.5-2.7-3.2-7.3-5.8-3.6-1.7-1.7-6.2-2.2-5.9.7-6.5 6.4 4.3 15.6 5.4 22.5-1.3 1.4 0 3.6-.1 5.4-.5 1.7-2.2 3.5-1.3 5.3-1.4 5.3 3.2 9.3 6.3 13-.2 2.8 2.8 5.2 3.9 7.7 1.2 4.3.7 9.3 2.3 13.4-.2 15.8 2.2 31.4 5.9 46.7 1.7 6.7.4 13.9 3.1 20.4.1 5.1-1.3 10.8 0 15.6-2.5 5.9 5.8 11.5 10.5 7.4l.5-.4c.1-.1.2-.2.4-.3h.7-.1c2.8.8 6.5 1 7.8-2.1 3.3-3.3 7.1-6.1 11.4-8.2 4.7-.6 9.3-2.5 14.1-1.9 1.4.3 2.8-1.7 2.2-3.1zm-65.8-130.9c-.4-.5-.6-1.2-.9-1.7 0-.1.1-.3.1-.4.2.7.5 1.4.8 2.1z"/></g><path d="M138.998 324c.1-5.6.2-11.9-.9-17.2.6-9-2.6-17.9-2.7-26.6 0-2.2-2.2-4.7-4.4-2.9-.5 0-1 .2-1.4.5-.8-.8-2.3-1-3.2-.3-.6-.1-1.4.1-1.9.5h-.2c-.9-1-2.7-1.1-3.7-.2h-.1c-.7-.8-1.8-1.1-2.8-.8-.6-.1-1.2-.1-1.7.1-.7-1.5-3-1.7-4.1-.4-.8-.6-1.9-.8-2.8-.4-.3-.4-.8-.6-1.3-.8-.9-1.6-3.4-1.4-4.3.1v-.1c.1-1.9-2.3-3.1-3.8-2.1-.8-.6-1.8-.6-2.7-.3h-.1c-5.6-3.9-2.8 6.2-2.6 8.8-.9 5.4-.4 11.2-.8 16.8-1 3.9-1.6 8.5-3.1 12.5-.1 3.3-6.2 11.8-2.1 13.2.8.8 2.1 1.4 3.1.7 4.8 1.5 51 6.5 47.6-1.1z" fill="#f4efea"/><g fill="#e09531"><path d="M94.499 216c.6-14.6-3.4-29.5-1.3-43.8 1.8-7.7 3.5-15.7 1.5-23.5-.9-3.4-2.5-6.8-1.7-10.3.6-2.5 2.2-6.4.6-8.6 0-.1.1-.4 0-.6.4-1.2.1-2-1.1-2.7-.7 0-1.4 0-2.1-.2-.3.1-.7-.7-1-.4-.8-.6-1.8-.4-2.6-1-.2.1-.2-.8-.3-.9-5.3-4.8-11.2-9.8-14.1-16.4-16.6 1.6-27.2 0-39.8 17.7-4.9 6.9-9.3 6.2-12.7 16.4-1.9 5.6-8.6 20.2-7.2 34.6 2 20.6-8.8 23.4-.3 33-1 .5-.7 1.7-.9 2.6-4.2 2.4 0 8.9-1.5 12.8-.4.5-1.8 1.1-2.1 2-1.4-.3-2.9.6-3.3 2-6.4 1.7.4 7 .9 10.7-1.5 2 1.2 4.8 3.3 3.5 1.1-.8 2.7-.7 3.4-1.9.3-.1.5-.2.8-.4 13.2-3.7 25.9-10 38.5-15.2.2 0 .5-.1.7-.1.1 0 .8-.1.9-.1.8-.1 1.6 0 2.3-.3.4.3 1.7.1 1.8.1 2 .9 4.2-1.1 3.4-3.2 6.8 1.5 14.3.4 20.7 3.7-.4 1.9 1.7 3.5 3.5 2.7 1.2.4 2.4 0 3.4-.7 1.1.2 1.8-.6 2.6-1.2h-.1c6.1 0 3.3-6.2 3.8-10.3z"/><path d="M90.801 226c-.1 0-.1 0 0 0 .2 0 .3-.1.2-.1h-.1c0 .1-.1.1-.1.1zm133.5.4c-.3-2.6-.3-5.6-1.7-7.8-.5-1.5-.4-3.9-2.2-4.5 1.1-3.3.1-7.2-3.1-8.8-.4-1.3-2.8-1.3-2.2-2.6 3.7-7.9-.8-13.5-3-19.1-.5-8.3 1.9-16.9-.9-24.9l-.6-4.2c-1.3-9.2-3.3-18.7-9.2-26.2-4.6-6.9-7.6-15.3-15.5-19-.5-.2-1.1-.5-1.6-.4-.7-1.2-1.9-2.2-3.3-2.1-9.7-3.3-20.7-4.8-30.9-5.5l-1.5-.3c-.3-.6-.7-1-1.3-1.2-3.7.7-7.5-.5-11.2-.7-.9-.9-.1-1.6.6-1.2 0-1.4-.5-1.7-1.8-2.2 0-.3-.1-.5-.2-.7.1-.5-.3-.8-.3-1.3-.2-.5-1.2-.7-1.1-1.3-.3-.6-.3-1.1-.6-1.7-1-.7-1.9-2.3-2.3-3.4 0-.1-.1-.1-.1-.2-1 1-.6 2.4-.3 3.5.4 2.2-.5 4.1-1.1 6.1-1.4.9-1.2 3-.1 4.1-.2 1.7.3 3.4.8 5.1-.2 1.6-1.4 3.1-.8 4.6-.9 6.4-3.6 12.6-5.3 18.6-1.6.7-2.9 17.5-1.4 18.3.6 9.4 3.2 18.5 4.3 27.9.8 6.2-.8 13.4 1.8 19 .8 2.9 1.9 6.7-1.5 8.5-1.1 6.6-.6 13.6-1 20.2-.1.8.5 2.2-.4 2.5.2 0 .4 0 .6.1-.1.9-.3 2 0 2.9h.1c2.6-1.2 5.3-.1 8 .1 10.1-.4 20.1-1.8 30.2-1.9.5.1 2.1 0 1.7.5 2.9-.1 4.8-.6 7.7-.2.2-.1.5-.1.6 0 1.6-1 2.7.3.6 1 .4-.1.7-.2 1.1-.2-1.6 2.3-4.7 4.9-4.6 7.9-5.3 5.8-2.1 12.2 1.2 18.1 2.8 3.9-.9 15.5 5 15.3.8.4 1.9.4 2.7-.2 1 .9 2.5 1 3.6.2 1.1.6 2.6.7 3.8.2 3.3.4 16.4.5 14.1-5.1 2.6-1.2 5.9-2.1 7.3-4.7 1.3-1.1 3.1-1.9 4.1-3.4 2.2-1.3 4.1-4 5.1-6.3 6.7-6.3 7.2-15.1 6.1-23.4zm-48-4.6l-8 1.5c-1-2.7.3-6.6-2-8.6 0-.8-.1-1.6-.1-2.3.9-2.8-.1-6 .2-8.9-.1-1.8 1-4.1-.1-5.6.5-3.9 1.2-7.7 2.4-11.3 2.2 11.8 4.7 23.6 8.7 35.1-.4 0-.7 0-1.1.1zm-83.1 58.6v-.3c1.6-2.3.6-9.4-3.9-7.8-.3.1-.7.1-1 .2-.8-.2-2.3-.6-2.8.1-8.7.2-17.2-.1-25.7 1.5-1.1.1-2.2-.4-3.3.1-.2-.5-.5-.9-1-1.2-1.1.2-2.3.9-3.3.5h-.1c-.2.1-.4.5-.7.5-.3.7-.3 1.5 0 2.1a2.25 2.25 0 0 0 .2 1.8c-.9.9-2.2 1.5-3.5 1.4.1-.3.1-.7.1-1h-.1c-.3 0-.5-.1-.8-.1s-.4-.2-.5-.4c-.9.3-2-.5-2.7-1.1-2.2 2.9-4.2 6.8-4 10.5-.4 11.6-2 23.7-7.8 34.1-1.9 1.7 8.5 12.3 10.3 12.4 3 3.7 7.3 6.9 12.3 7.1 1.7 1.9 4.3 1.9 6.7 2.5.3 3 3.9 2 5.9 2.5 1.4.9 3.1.8 4.6.3 1.1.2 2 .7 3.1.7 1.2.8 2.8 1 4.2.7 6.2 2.2 4.9-4.9 3.8-8.5-.4-5.5 1.6-10.8 3-16-.6-.3-.2-1.1.4-1 1-3.3 2.9-6.7 2.7-10.2 3.1-7.7 5-16.6 3.9-24.8.2-2.3.1-4.5 0-6.6zm87.4 41.3c-4-8.4-1.2-18.5-2.9-27.3-.6-3.6 1.5-8.4-.7-11.4-.9 1-1.7 2.3-2.9 2.9-.8.5-1.8.8-2.8.8-.1.3 0 .6 0 .9-.2-.1-.5-.2-.7-.2l-.3-.6h-.2c-2-.1-4.2.3-6.2-.3-2.4-.1-5.4.2-7.5-.9-.4-.1-.8-.1-1.1-.2-.1.1-.2.1-.3.2-2.2-1-6.1-.1-8.1-2.1-2.3-.3-4.1-1.5-6.1-2.5-.1 0-.1.1-.2.1l-.1-.2c-.6-.4-1.2.2-1.8-.3-.1-.1-.2-.2-.3-.2-1.1.3-2.2-2.4-3.1-2.9-.1 0-.2 0-.2-.1-.2 6.1 1.4 12.5 3.5 18.2.5 7.6 1 15.2.9 22.8 1.3 5.2-4.2 30.8 5.5 26 5.6-.4 10.5-6.4 15.7-8.9 5.2-1.8 10-6.2 14.9-8.8 1 0 1.8-.7 2.2-1.6 1.7-.3 3.3-1.5 2.8-3.4z"/></g><path d="M81.298 168c-1.1 0-2.3 0-3.4.5-1.4.1-2.9-.4-4.3 0-.3 0-.8-.2-1 .2l-11.4.4c-1.3-.9-3 .9-3.2 2.2-.1 1.7-.6 6.6 1.7 6.5.1.2.3.2.5.2-.2.8-.6 1.5-.8 2.2-.092.047-.169.119-.222.207s-.08.19-.078.293c-.1 1.1-.4 2.3-.2 3.4l-.4 3.1c-.4 2-.5 4.3-.4 6.3.1.5-.9 1.7-.3 2 0 .3-.3 1.1 0 1.2.2 1.2-.9 4.3.9 4.4.1.6 1 1.4 1.6.4.2 0 .3-.1.4-.3.1.2.3.4.5.4.2.9 1 1.2 1.5.3.1 0 .2-.2.3-.3.2.3.5.8.9.6.1 0 .2.1.4 0 .2.1.5.1.6-.1a.37.37 0 0 0 .6 0c.3.2.7 0 .8-.3.2.4.7.3.9 0 .1.2.5.1.6 0 .1.1.2.1.3.1.4.6 1.4.2 1.7-.3 0 .6.8.7 1 .2.2.5.9.5 1.2.2.4.4.9 0 1.4 0 .2.4 1 .3.9-.2.7-.3 1.9-.2 2.3-1h.6c.4.3.9-.2.8-.6-.3-7.9.4-16.1 1.5-23.7.1-.4.6-.8.2-.9.7.1 0-.1 0-.1.2-.1.5-.5.3-.8.5-1.6.3-3.2.9-4.7.3-.1.7-.4.7-.6.6-.3.9-1.1-.3-1.4zm84 5.5c-.5-1.3.7-4.5-1.1-4.7-2.5-.2-4.4-.8-6.9-.6.6-1.3-4.8-.3-5.4.1-.5.1-1-.2-1.5 0-1.3 0-2.7-.5-4-.3-1.3-.4-2.6-.6-4-.8-.2-.1-.5 0-.6.2-.2 0-.4-.1-.6-.1-.1-.8-.9-1.2-1.6-.9-.3-.1-.6.1-.8.1-4-.4-2.7 9.5.9 9.5.1 1-.6 2.4 0 3.3v.4c-.2 0-.3.3-.3.5-.2 2.1-.5 4.4-.3 6.5-.1 2.2 0 4.5.3 6.7a.54.54 0 0 0 .079.293c.053.089.129.16.221.207.5 1.6.1 6.6 2.8 5.4 2.3.2 4.7.8 7 .3 2.4.5 4.8.3 7.2.5.4.4 1.2.4 1.6-.1 5.7 0 2.5-7.1 3.2-10.6-.1-4.1 1.4-8.3 1.5-12.2 2.3.6 2.7-1.9 2.3-3.7zm36.6 91.6c-.1-.3-.2-.7-.4-1-.1-.2-.2-.3-.3-.5-.2-.2-.3-.4-.5-.6.1-1.2-.1-2.5-.2-3.5-.3-1.9-1-3.7-2-5.4-.2-.3-.4-.5-.6-.6-1-3.2-2.4-6.2-4-9.1-.191-.392-.508-.708-.9-.9l-2.6-5.1c-.2-.5-.6-.8-1-1l-4.9-8.2c-.4-.5-.8-.9-1.3-1l-1-2.6c-.7-1.4-1.5-2.6-2.5-3.8-.6-.8-1.9-.9-2.8-.5h-.1c-.7-.1-1.3-.2-2-.1-1.2.1-2.4.4-3.6.7-.4.1-.8.3-1.1.6-.2 0-.3 0-.5-.1-.2 0-.3 0-.5.1h-.1-.2c-.4 0-.8.1-1.2.2-.2.1-.3.2-.5.2l-.9.3c-.6.2-1.2.4-1.8.5-.3.1-.6.1-.9.2-.2 0-.3.1-.5.1l-2 .2c-1 .1-2.1.9-2 2a1.69 1.69 0 0 0 .3 1h.1c2.4-.5 5-.5 7.4.1l1.8-.6c.2.1.4.1.5.1h.2.4c.4 0 .8-.1 1.2-.2.1 0 .2.1.2.1.3 0 .5.1.8.1.8.1 1.7 0 2.3-.5.5-.1.9-.1 1.3-.1s.8.1 1.2.1c-.1.2-.3.5-.4.7-.2.6-.6 1.2-.9 1.8-1 .8-1.7 1.8-2.2 3-.1.3-.1.6-.1.8-1.3 1.6-2.4 3.3-3.1 5-.3.3-.5.6-.7 1-.4.3-.7.7-.7 1.2 0 .1 0 .1-.1.2l-.1.1-.3.6c-.1.4-.1.9 0 1.3l.3 1.8c.1.5.2 1.1.4 1.6s.5 1 .9 1.3c1.3 6.5 4.1 12.8 4.7 19.5.2 2 2 3 3.8 2.2.4-.2 1.2.2 1.6.3l2.5.6c1.8.3 3.7.5 5.5.5 3.6 0 7.1-.7 10.4-2.1.2 0 .4 0 .7-.1h.2.6c.6 0 1.2-.3 1.6-.8.7-.5.8-1.1.6-1.7zm-184-29.3c-1.6-.6-3.2-1.4-4.8-2.5-.681-.473-1.317-1.009-1.9-1.6l-2-2.1-.6-.8c-.5-.6-1-1.1-1.7-1.3-1.2-.4-2.4.5-3.4 1.2-1.1.9-2.3 1.9-1.9 3.5.2.6.6 1.2.9 1.8l.9 1.5 4 6.8c1 1.8 3.7.9 3.7-1 .8.1 1.7-.2 2.6-.4l4.2-1.2c.8-.2 1.5-1 1.5-1.9 0-1-.7-1.7-1.5-2zm15.3-2.8c.1-.1.1-.1.1-.2.1-.1.1-.2.2-.2.1.1.2.1.2.2l3.3-1.1c.1-.3.2-.7.2-1 .5.2 1.1.1 1.6-.1.1 0 .1-.1.2-.1s.2 0 .3-.1l1.2-.6.2-.1h.1l1.4-.8c.4.1.7.1 1.2.1.5-.1.9-.3 1.2-.5l.1.1.1.1 4.2-1.4a13.8 13.8 0 0 1 3.9-.9v-1l.2-3.4c0-1-.9-2-2-2-.2 0-.3 0-.4.1h-.4-.1c-.5-.1-1-.1-1.5.2-.1 0-.1.1-.2.1-.4-.4-.8-.6-1.3-.5-1.3.1-2.7.3-4 .6-.3 0-.7-.1-1-.1-1.4 0-2.8.2-4.2.4-.8-.1-1.5-.1-2.3.2-.5 0-1.1 0-1.6-.1-.6-.1-1.2 0-1.6.3s-.8.7-.9 1.2l-1 5.5c-.2.9-.3 1.7-.6 2.6l-.3 1.2c-.6.9-1.1 1.8-1.4 2.8-.1.4-.1.7 0 1 1.5-1 3.2-1.8 4.9-2.5zm103.7-137.1c-.1 0-.2-.1-.3-.1l-.1-.1v-.1s0-.1-.1-.1-.1-.1-.2-.1c-.6-.7-1.2-1.4-1.6-2.2a.47.47 0 0 1-.6-.1c-.2 0-.3-.1-.4-.2l-2.1-4.6v-.1c-.1-.1-.3-.2-.4-.4-.1 0-.1-.1-.1-.1-.5.4-.8 1.1-.5 2 .1.3.2.6.2.9v.4c-.1.6-.2 1.3-.4 1.9-.3 1.3-.7 2.6-1.2 3.8-.4 1 .4 2.2 1.4 2.5 0 .2 0 .5.1.7a21.7 21.7 0 0 0 1.5 3.5c.1.1.1.2.2.3v.4c.1.8.5 1.5 1.2 1.8.5.9 1.3 1.3 2.1 1.1.1-.5.2-.9.4-1.4-.1-.1-.1-.2-.1-.4.1-.3.2-.6.2-.8.1-.7.1-1.4.1-2 0-.1.1-.2.1-.3-.2-.6-.3-1.3-.4-1.9.1-1.2.4-2.4.6-3.5.2-.3.3-.6.4-.8z" fill="#b26a15"/><path d="M137.699 55.9c-.4-1.6-1.8-2.9-3.4-3.1.1-4.5-1.1-9-3.9-12.4-.2-.3-.4-.6-.6-.8-2.2-3.4-.8-7.9-3-11.3 0-5.4-3.7-10.5-8.9-11.8.8-1.8-4.5-2.3-4.9-.7-8.8-12.2-20.9-19.1-34.9-10.3-.3.2-.6.3-.9.5-.2-.1-.4 0-.5.1h-.1c-.1.1-.3.1-.4.2-.2 0-.6.4-.5.4.1-.1-.1 0 .1-.1-.3.1-.7.7-.4.7-10-.7-14.4 2.9-18.2 12.4-12.5 3.1-17.7 20.8-13 31.8-4.6 6 .1 13.3 1.6 19.7-1.1.4-2.3.9-2.9 1.9-.6.1-.7.9-.8 1.3-.3 1-.3 2.2.2 3.2.1 4.1 5.8 4.6 8.7 3.1-1.6 3.6 2.1 7.3 5.3 7.2.6 0 .5 1.7.5 2.4 0-.1-.1.4 0 .2-.9 2 .4 3.8 2.5 3.9-.2-.1-.1 0 .1.1-.1-.1-.1-.1 0 0 .3.2.2.5.2 1-2.1 4.3 3.9 9.2 6.2 3.9.3 0-1.1-.5.2-.4-.2 0-.2-.1-.3-.3-1.7-1.7-2.6-3.8-3.4-6.2-.9-1.6-1.6-3.6-1.8-5.5-.6-2.8-2.9-4.8-4-7.2-.1-.2-.6-.3-.7-.5-1.4-1.5-2.4-3.8-2-6-.2-1.6.7-2.6 1.5-.7h.1c-.1-.4-.2-.7-.3-1.1 1.8 1 4.3 2.2 6 .5 1.3-.6 2.6-1.3 3.6-2.3 2 .2 4-.2 5.2-1.7.8 3.1 4.1 5.7 7.4 4.6 2.9 1.1 7.1-3.2 3.7-5.3-1-.4-2.1-.9-2.8-1.6-.3-2.4 1.8-3.4 3.5-4.6 5 4.4 13.7 1.2 15-5.2-.1 3.4 4.4 4.2 6.8 5.5 8.2 3.6 13.3-5.3 13.3-12.6.2.2.3.4.5.5-1.7 5.3-2.2 13.6 5.8 14.3-3.2-.3-2 6.9 1.6 8.7.1 0 .7 1.2.8 1.2 2.4 2 0 6.7 2.3 7.7.9.4-.7 1.2-.6 2.2-.5 1.1-1.3 2.1-1.5 3.3 1.5-1.2 3.8.4 4.1 2.1.6-.4.6-.8 1.1-1.3 2.6.4 3.1-2.8 4-4.4 2.1-3.7 1.2-6.6-1.2-9.5 2.3-2.6 2.8-7.6.3-10.4 2.7-1.1 5.3-3.6 3.7-7.3zm-87.6 12c-.3-.9-.5-1.8-.8-2.6.1 0 .2-.1.3-.2.221.859.593 1.672 1.1 2.4-.2.1-.4.3-.6.4z" fill="#6d5333"/><path d="M126.998 191.3c-3.1-7.5-8.6-5-14.2-8l-.3-2.8c4.6-2 11.2-4.6 9.7-10.8.6-2-.4-5.3-2.1-6.7-1.8-5.7-8.8-8.7-14.2-5.9-7-4.2-6 6.4-3.9 10-.5 3.8 3.8 6.8 4.1 10.8-1 .7 1.1 2.3 1.5 3.1 1.8 8.5 1.9 17.2 3.4 25.7.7 5.6 6.5 1.4 9.3 0 6.2-1.3 10.1-9.7 6.7-15.4z" fill="#443e3d"/><path d="M104.699 630.5c.3-4 2.9-10.9-3.3-11.4-1.5-1.2-3.1-4.9-5.2-4.5-1.1-.5-2.1-1.6-3.7-1-3.1-1.6-8.2-2.7-11.3-.9-6.6.9-16.7 6.4-12.4 14.3-1.8.9-5 2.6-4.6 4.9-1 2.9-.6 6.2.2 9.2-.7 3.2-1.4 6.4-1.7 9.7-2.6 10.1-3.3 23.3.2 33.1 1.9 6.2 7.5 11.4 14.4 9.5 7.2.3 19-.6 22.1-8.3 1.2-.5 1.2-2.1 1.5-3.2 1.9-7.9.3-17.8 1.3-26.3-.4-7.1 3-14.2 2.3-21.2.1-1.3.2-2.6.2-3.9zm141.3 61.2c-.1-1.4-.6-2.4-2-2.9 1.6-9.1-7.2-15.3-12.8-20.9-1.3-2-3.3-3.4-4.4-5.6-1.9-1.6-3.6-4.1-3.9-6.5-.2-1.9-1.4-3-2.4-4.4-2.9-2.9-4.4-8.9-8.4-9.9-.7-1.3-1.3-3-2.5-3.9-1.6-1.9-2.1-7.8-5.4-6.4-.9-.5-2.1-.6-3.2-.4-.4-.5-1.2-.5-1.8-.3-1.9-.8-4.1 1-6.2.9-.4-.2-1.1-.1-1.6.2-1.7-.2-3.5.9-4.6 2-2.4 1-6.1 2-7.2 4.6-.9.5-1.9 1.1-2.3 2.1-1 .2-1.6 1.6-.2 1.6.1.9.7 1.7 1.2 2.4-1.2 2.8 1.3 5.2 1.8 7.8-.6 0-1.3.1-1.8.4-1.1-.4-2.1-.6-3.2-1-.1-.3-2.7-2.3-3-2.5 0-.6-.7-1.1-1.1-1.5-.1-2.3-1.9-7.1-4.5-3.1-.7 1.1-2.5-.1-3.8 0l-.1-.1c-.6-.1-1.2-.4-1.8-.6-1.7.2-2.2 2.4-1 3.6-.7 3.9-.9 7.8-.2 11.8-1.3.8-1.1 2.6.1 3.4.6 3.2 3.8 7.7 6.9 8.5 7.7 4 18.6 2.2 19 13.8.1.9.8 1.3 1.5 1.4 2 3.9 1.3 9.9 5.1 12.5 11 13.2 31.7 17.8 47.4 10.7 8.5-1 6.3-11.4 6.4-17.7z" fill="#6d5333"/><path d="M70.2 81.1c-.1-.1-.1-.3-.1-.4v-.1c0-.3 0-.5-.2-.8-.1-.2-.2-.5-.4-.6-.2-.2-.4-.3-.6-.4s-.5-.2-.8-.2c-.2 0-.4 0-.5.1-.2 0-.3.1-.5.2H67c-.3.2-.5.4-.7.7-.1.2-.2.4-.2.6v.1c0 .1-.1.4-.1.6s0 .4.1.6v.1c.1.2.1.4.3.6 0 .1.1.1.1.2.1.1.1.3.2.4.1.2.3.4.5.6s.4.3.7.4a1.1 1.1 0 0 0 .8 0c.3 0 .5-.1.7-.2.1-.1.3-.2.4-.3.2-.2.4-.5.5-.9 0-.2 0-.4.1-.5 0-.2-.1-.5-.2-.8zm25.7-4.2v-.1a1.1 1.1 0 0 0 0-.8c0-.3-.1-.5-.2-.7a.78.78 0 0 0-.4-.4c-.1-.2-.2-.3-.3-.5-.2-.2-.4-.3-.6-.4s-.5-.2-.8-.2c-.2 0-.4 0-.5.1-.3.1-.6.3-.9.5-.1.1-.2.3-.3.4a1.69 1.69 0 0 0-.3 1v.5c0 .3.1.6.1.9 0 .1.1.3.1.4.1.3.2.6.4.9.1.2.3.4.5.6s.4.3.7.4c.2 0 .4 0 .5.1.3 0 .5 0 .8-.2.2 0 .3-.1.4-.3.2-.1.4-.3.5-.6.1-.2.1-.3.2-.5.2-.3.2-.7.1-1.1z" fill="#334f2b"/><path d="M73.502 80.4c0-.2-.1-.3-.3-.4-.1-.2-.3-.3-.4-.4l-.4-.4c-.8-.5-1.8-.7-2.7-.7-.2-.1-.4-.1-.6-.1-.4 0-.8.1-1.1.3 0 0-.1 0-.1.1a3.79 3.79 0 0 0-1.3.6c-.3.2-.6.5-1 .8-.1.1-.1.1-.2.1l-.1.1c-1 .2-1.6 1.2-1.4 2.2.1.4.2.9.6 1.1.2.2.5.4.9.5.2.2.5.3.8.4.1 0 .3.1.4.1h.5c.2 0 .4 0 .6-.1.7-.1 1.3-.1 2-.3.352-.126.688-.294 1-.5.2-.1.4-.3.5-.4h.1c.1 0 .2 0 .3-.1.2-.1.5-.2.7-.3.1-.1.2-.1.3-.2.2-.1.4-.3.6-.5s.3-.4.4-.7c0-.2 0-.4.1-.5 0-.2-.1-.5-.2-.7zm24.3-6.7c-.4-.1-.9-.1-1.3.1-.4-.1-.8-.1-1.1 0-.8.1-1.5.3-2.2.7l-1.7.3c-.7.2-1.3.5-1.8.9-.7.4-1.2 1.2-1.1 2.1s1 1.8 2 1.7c.4.2.9.2 1.3.1.1 0 .2-.1.4-.1h.4l2.4-.4h.2c.8-.1 1.5-.3 2.2-.6.9-.4 1.5-1.3 1.8-2.2.2-1.1-.4-2.3-1.5-2.6z" fill="#fff"/><path d="M70.001 80.9c0-.1-.1-.3-.1-.4-.1-.3-.2-.5-.4-.7-.1-.2-.3-.4-.6-.5-.2-.1-.5-.2-.7-.2-.3-.1-.5 0-.8 0-.2.1-.3.1-.5.2-.3.2-.5.4-.7.7-.1.2-.1.3-.2.5-.1.4-.1.7 0 1.1 0 .1.1.3.1.4.1.3.2.5.4.7.1.2.3.4.6.5.2.1.5.2.7.2.3.1.5 0 .8 0 .2-.1.3-.1.5-.2.3-.2.5-.4.7-.7.1-.2.1-.3.2-.5.1-.4.1-.8 0-1.1zm26-4.1c0-.3-.1-.5-.2-.7-.1-.1-.1-.2-.1-.2 0-.1-.1-.3-.1-.4v-.1c0-.1-.1-.2-.1-.3-.1-.2-.2-.5-.4-.6-.2-.2-.4-.3-.6-.4s-.5-.2-.8-.2c-.2 0-.4 0-.5.1-.3.1-.6.3-.9.5-.1.1-.2.3-.3.4a1.69 1.69 0 0 0-.3 1c0 .3.1.6.2.9v.3a1.69 1.69 0 0 0 .3 1c.1.1.2.3.3.4.2.2.5.4.9.5l.4.1c.2 0 .4 0 .5.1.2 0 .4 0 .5-.1l.5-.2c.2-.1.4-.3.6-.5.1-.1.2-.3.3-.4.1-.2.1-.3.1-.5-.2-.4-.2-.5-.3-.7z" fill="#334f2b"/><path d="M98.801 110.3c0-1.1-1-2.1-2.1-2l-.3-.3c-1.2 1-4.6.9-4.9 2-.3.5-.7 0-.7.6-.7.4-1.2-.2-1.9-.2-5.6-1.7-3.4 7.1 4.3 3.6 1.5.5 3.4-.1 4.1-1.5.9-.2 1.6-1.2 1.5-2.2z" fill="#e9c3bb"/><path opacity=".25" d="M114.302 368.5c-1.7-9.6-10.2-1.8-11.4 3.8-4 16.2-6.8 32.6-9.3 49.1-.6 16.7-15 69.1 12.5 67.8-.1-.1 0-.2 0-.4 1.1-.9.6-2.3.2-3.4.1-.4.3-.9.6-1.2-.1-1.4-.1-2.9-.1-4.3-.2-.1-.5-.2-.8-.2.4-6.3.6-12.6.5-19 .4-.6 0-1.3 0-1.9-.1-28.7 3-58.1 3.3-86.7 0-.3.4-.4.7-.5-.6-3.2 2.5-5 2.1-.8 1.1.1 2.3-.8 1.7-2.3zm90.1 257.6c-.3-.3-.6-.4-1-.5 0-.5-.5-1.7.2-1.3 0-.5-.4-.9-.7-1.3-.9 0-3.4-4.3-2.4-4.9a.75.75 0 0 1-.2-.4c-.6.2-.8-.6-.9-1-1-.4-1.4-10 .2-9.7-.3-3.1-1.7-5.5-.5-8.5-.1-.1 0-1.8 0-1.9-1.2-.5.5-2.1.4-3.2 0-4.6.4-9.5.6-14.2-.2-1.1.3-2.4.2-3.5-.3-1.2 0-2.5-.1-3.7-.8-5.6.2-12.8.1-18.9-.8-2.9 0-6.7-.1-9.9-1-3.1-1.3-7.1-.9-10.4.2-3.8-.9-7.6-.5-11.4-.9-1.6-2.6-2.5-2.8-4.3-.2-.6-1.6-1.8-1.1-2.4-.3-.9-.6-2-.5-2.9-.9-.5-1.3-.5-2 .6-10.6 17.4-1.3 38-5.1 57-.9 15-7.5 34.5-26.3 29.3-3.7-1.2-4.9-5.8-9-6.6-.1 0-.2.1-.2.1.6 2.7 1.5 5.8 1.3 8.5.4 2.5.9 5 1.2 7.6 1.2 3.3 1.6 7.7 1.7 11.2.1 2.4.9 5 .3 7.4 0 4.2-.7 8.4-.1 12.6.7 1.2 1.9 1.8 2.6 3 .7-.4 2.2 1.8.8 2.3-.2 2.7-.4 5.5-.8 8.2.5 2-.4 4.5-.4 6.7.4.5 1.2 2.1.6 2.6.7 4.4 4.6 6.5 7.3 9.6a1.38 1.38 0 0 0 .4.3c1.4 0 2.5 1.2 3.9 1.3.3-.1.7.1 1 .2 1.1 0 2.2.5 3.3.6.2-7 1.5-14 1.9-21 .1 0 .1.1.2.1-.3-1.9 1.2-2 1.2 0 1.6-.5 1.7-2.8.3-3.6-1.3-2.6-.7-6-2.9-8.1l-.1-.3c4.2-2.1 6.8-7.5 11.7-8.5 4.8-1.6 10-3.3 15-2.4 2.1.2 3.6-3 2.2-4.4zm20.9-398.8l-.6-6.5c-.5-2.2-1.4-4.2-2.3-6.3-.4 0-.5-.5-.5-.8-.3-.3.1-.7.1-1-.3-.8-.2-1.7-.1-2.6-.6-1.7-1.5-3.4-2.9-4.5-1.1-.5-2-1.8-2.6-2.7-.5-.4-.2-1.2.5-1 0-.4.3-.9.5-1.3-1.1.5-1.7 1.6-1.6 2.8-4.5 2.4-7.6 6.3-11.7 9.2-12 6.3-21.6-7.5-24.5-17.8-2.6-5.8-5.5-17.7-13.7-16.1-2.1.5-4.5 2.9-3.9 5.2-.6 2.7-1.9 6.8-.1 9.2 0 .1 0 .2.1.3-.1.2-.2.5-.2.7 1.4 1.1.3 2.8-.8 3.7-.1.7-.1 1.4-.4 2.1-.4 0-.8 0-1.2.2-.3-.1-.7-.1-1 0 0 0-.1 0-.1-.1-.2.2-.4.2-.7.2-.5.3-1.3 0-1.8-.3-2.9 7.6-1.1 17.3-2.2 25.6v1.2c.2 0 .4-.1.6-.2.1.3-.7.7-.5 1 .9-.2 2.9-.6 3.7-.4.4 0 1.2-.3 1.4.1.2 0 .4 0 .6.1.1 0 .2 0 .3-.1.8.7 1.8.1 2.7 0 2.1-.3 4.5-.2 6.4-1.3h.6s0 .1.1.1c.2-.1.5 0 .6.2l.3-.3h1.3c-13.6 12.9-3.8 25.5-1.9 40.8-.4.2-.8-.2-.9-.5-.3.2-.7-.1-.8-.4-1.4 0-3-1-4.4-1.3-2.5-.4-4.9-.5-7.3-1.4-2.7 7.7-2.9 14.9-.4 22.7h1.2c.5.4 1.2.4 1.8.2 2.3 13.9.1 34.2-17.1 36.2-.8-.5-1.6 0-2.4-.1-1.4-5.5 1.5-11.8-.7-17.5-.2-.4.2-.9.2-1.4-6.8.5-11.4 8.1-18.6 7.2-8.3-1.3-14.2-8.9-15.7-16.9-3.8-13.8 10.8-13.7 20.2-13.6 3.5-.1 6.8-2 9.9-.2.1 0 .2-.1.4-.1 0-.6.8-1.2.3-1.6-.7-2.8-4.3-1.8-6.3-1.2-1.6-1.3-3.8.6-5.7.2-.7-.9-2.1-1.1-2.9-.3-.4-.1-2-.6-1.8-.6-.9-.4-2-.3-2.6.5-2.2-.4-4.4-1.2-6.6-1.2-3.3-2.5-8.6-1.4-12.6-2.6-10.2-1.5-21.1-.7-31.3-.1 0 1-1.4.3-2 .5-.2.4-1.5.4-1.8 0-.4-.1-.9.2-1.2 0-.3 0-.5 0-.8.1s-.5-.1-.6-.4c-.1 0-.3 0-.5-.1-.3 0-.7.1-.9 0-1 .1-2.2-.1-2.9.6-.3.4-.9.2-.9-.2-.5 0-1.1.2-1.5-.1-.4.4-.6 1.1-.5 1.7-.1.4-.2.9 0 1.3-.3.2-.6.3-.9.4-.2.4-.1 1.2-.7 1.3-.3.4-.9.4-1.3.2-1 .4-2.1.1-3.1-.5-.5-.1-1-.6-1.3-1l-.1-.1c-1.1.3-1.5 1.5-2 2.3 1.9.8 3.9 1.5 5.9 1.7 15.1.5 30.2-4 45.3-1-.1 14.8-2.7 29.3-7.4 43.2-1.9 5.5-1.4 2.8-.1 3.5-1.1 1.9-1.4 4-1.2 6.1a1.92 1.92 0 0 0 .4 1.2s-.3-1.2-.4-1.2c-.4 0-.4 1.1-.8 1.1.1 1.3 0 2.7-.1 4 18.3 1.6 36.6-.8 54.4-4.4-1.5 19.2 8.5 9.9 18.9 4.5.4-.2 1-.9 1.4-.3 7.5-4 14.6-8.4 21.8-12.7.4-1.5.1-2.9.1-4.4-1-3.7-1.3-7.7-1.1-11.5l-.3-5.8c-.6-3.2-.5-6.8-.7-10.2-.2 0-.4-.2-.4-.5-.4-2.9-.2-5.8-.1-8.7-.2-.5.3-.9.7-.7v-.8c.2-.1.4-.1.6 0-.1-.4.1-.9.6-.7l.2-.2c0-.4 0-.9.5-.9.2-.5.6-.9.9-1.4-.1-.1-.1-.1-.1-.2l-.1.1c0-.1 0-.1.1-.2 0-.9.5-1.8 1-2.6-.1-.1-.1-.1-.1-.2.3-.3.5-.6.8-.9.4-1.1 1.1-2 1.8-2.9.2-.6.7-1.8 1.3-1.9l.6-1.2c.2 0 .4 0 .5.2.3-.1.6.1.6.4.2-.2.5-.2.7 0 .3 0 .5-.1.8-.1 1.3-.6 3.2 0 4.6.1.1 0 .1-.1.2-.1 1.8-1 4.2-1.1 6.2-1.8-.1-.3.1-.6.3-.9.6-.2 1.2-.3 1.7-.7 0-.8-.1-1.7.6-2.3 0-.1 0-.1-.1-.3 1.1-.7 3.3-.9 3.4-2.4l.6-.3.1.1c12.6-5.1 18.9-19.6 18-33.2zm-47.7-6.6c-2.8.5-5.7 1-8.4 1.8-.3-.2-.8.5-1.2.5 0-.5-.2-4.3-.4-4.8-.4-.3-.6-.4-.4-.8 0-.2 0-1 .2-1.2.1-1.6-.7-3.3-.2-4.7-.1-.9-1.1-3.7-.4-3 .7.5.8-.2.7-.3-.7-3.9.5-7.9.1-11.9.1-1 .6-2.2-.2-3.1.1-.7.3-1.4.5-2.1.1.7.2-2.5.4-1.8 0-.8-.7-2.1.9-.1.1.8.1 1.6.2 2.4.2 0 .3.3.3.5a23.16 23.16 0 0 1 .3 3.7c2.8 8.1 3.9 16.2 6.8 24.1.1.2.8.8.8.8zm-115.3-2.5c0-2.1-.2-4.1-.4-6.2-.4-3.5-.9-6.9-.9-10.4-.9-.6-2.1-.2-2.7.6 0 0 0-.1-.1-.1-.2-.5-.7-.8-1.2-.9 0-.2.1-.5 0-.8-.7-4.8.6-9.6.6-14.4v-.1c.1-.2.1-.5.2-.7-.2-.9-.5-1.8-.7-2.7-.6-2.2-1.3-4.3-2.1-6.4-.5-1.4-1-2.9-2-4-1.1-1.2-2.7-1.4-4.2-1.1-.5.1-.9.2-1.3.4-.7.6-1.3 1.3-1.8 2-.2.3-.3.5-.5.8-1.1 2.4-1.7 5-2 7.5l-1.7 14.1-.5 7.1-.4 7c-.2 1.927-.3 3.863-.3 5.8 0 .7-.1 1.5 0 2.2 0 .4-.1 1.1.1 1.5.3.6-.6 1.1-.9.5-.1-.2-.2-.4-.2-.6 0 .4-.1.8-.1 1.2h-2.5-.1c-.2-.3-.5-.5-.8-.7-1.1-.6-2.3-.2-3 .6-.6.2-1.1.7-1.2 1.3v.3c-.2.2-.3.5-.4.7-.2.6-.2 1.3-.1 1.9 0 .2.1.3.1.4.1.2.1.3.2.5 0 0 0 .1-.1.1l-2.3 6.4c-.3.3-.4.8-.4 1.2 0 .5.2 1.1.6 1.4.1.1.3.2.4.3l.6-.3c1.1-.6 2.4-1.1 3.6-1.5.2 0 .3 0 .4.1.2-.1.4-.2.7-.2.5-.1.9-.5 1.2-.9.1-.2.2-.4.2-.6.1 0 .1-.1.2-.1.3-.2.6-.4.9-.7.1-.1.2-.3.3-.4.1-.2.2-.4.2-.6.3-.1.5-.1.8-.2 2.3-.4 4.6-1.1 6.6-2.2.4.3 1 .4 1.5.2 1.9-.7 3.8-1.5 5.8-2 .9-.2 1.9-.4 2.6-.5.5 0 1-.1 1.5 0h.7.4.2c.8.1 1.6 0 2.1-.7.3-.4.5-.9.4-1.4.3.1.7.1 1.1 0l-.1-.1-.1-.1c-.1-.2-.2-.4-.1-.6s.4-.3.6-.2c.1 0 .2.1.2.1 0-1.2.2-2.5.2-3.8zm-17.5 1.6c-.5 0-.9.1-1.4.1h-.1v-.7c.6 0 1.1-.1 1.7-.2 0 .2.1.5.1.7-.1.1-.2.1-.3.1zm6.2-15.2l-.4-16.3c.1.5.5.9 1 1.1-.3 2.7-.6 5.3-.6 8s.3 5.3 1.2 7.9c-.3-.4-.7-.6-1.2-.7zm118.7-100.9c-.4-.2-.9-.1-1.3.1-9.4-1.7-19.1-3.8-28.7-4.2 0-.1-.1 0-.2 0-.2 0-1.7-.1-1.9-.2-1 0-1.5-.7-.5-1.7 0-.2-.2-.6-.2-.8-1-1-1.1-1.8-2.4-2.5-1-2.2-2.3-4.3-3.5-6.4 5.1-.9 7.7-9.8 2.8-13.1-.1 0 0-.2 0-.2 1.4-2.5 4.3-6.7 1.2-9-.2-.7-.5-1.5-.9-2.1 4.8-1.7 5.9-9.1.5-10.5.6-5.3-1.4-10.9-5.6-14.3-.7-5.2-2.1-23.3-9.8-21.3-1.3-1.3-3.8-2.8-5.5-1.5-1.8-.1-3.8-.7-5 1.1-5.6-2.1-10.1 10.7.4 9.7 12-3.9 11.5 5.2 13 14 11.8 21.8-5.5 1.7-6.6 16.3-1.2.5-1.3 1.2-1.8 2.3-2.3 2.4-6.3 4.6-9.4 3-.1 0-.6-.5-.8-.5-1.2.2-1.9.2-2.9-.4-.2.3-1.1-.8-1-.4-1.7-1.2-4.5-3.6-5.6-.5-3.2 3.4-8.6 4.1-12.5 1.2-1.4.3-2.1 1.8-2.7 2.9 3.5 2.9 8.6 3.2 13 3.6 5.1 1.7 10.8-1.6 15.9-2 8.4 3 7.3 37.7 5.2 45.7 1.1-1.1 1.7-2.8 2.7-3.8.1-.2.4-.2.6-.1.2-.5.5-1 .8-1.5-.6-1.1-.4-1.6.3-1-.8-.8.9.7.9.6 4.4 2 6 7.6 7 12l.2.5c.2 1.3.1 2.2.4 3.5h.1c.6-.6 1.8-.1 2.6 0 7.9-.4 54.5-4.2 41.2-18.5z" fill="#111119"/><path opacity=".5" d="M94.401 74.1c10.7-2.5 20.7.9 22.3 7.7s-5.8 14.4-16.5 16.9-20.7-.9-22.3-7.7 5.8-14.4 16.5-16.9z" fill="url(#A)"/><path opacity=".5" d="M69.1 82.2c5.8-1.7 11.9 1.5 13.5 7 1.6 5.6-1.8 11.5-7.7 13.2-5.8 1.7-11.9-1.5-13.5-7s1.9-11.5 7.7-13.2z" fill="url(#B)"/><path d="M40.201 216.7c6.7-1.1 14.6 13.2 17.8 32.1 3.2 18.8.3 35-6.3 36.1-6.7 1.1-14.6-13.2-17.8-32.1s-.4-35 6.3-36.1z" fill="url(#C)"/><g fill="#1d1d1b"><path d="M72.402 106.8c-2.9 0-5.8.3-8.7.5l-7.9.8c-5 .7-9.8 2.1-13.8 5.2-2 1.6-3.8 3.4-5.5 5.3-1.7 1.8-3.5 3.6-4.4 5.9-1 2.5-.5 5.3 0 7.9s1.1 5.2 1.9 7.7c.8 2.8 1.9 5.6 3 8.3 1.2 2.7 2.5 5.5 4.2 7.9.3.4.8.1.6-.4l-3.2-6.9c-1-2.3-1.9-4.8-2.7-7.2s-1.4-4.8-1.9-7.3c-.3-1.2-.5-2.5-.7-3.8s-.4-2.7-.2-4.1c.3-2.4 2-4.2 3.5-5.9 1.6-1.8 3.3-3.6 5.2-5.2s3.9-2.9 6.2-3.9c2.2-.9 4.6-1.5 7-1.9 5.8-1 11.8-1.2 17.5-2.4.3 0 .2-.5-.1-.5zm-42.9 21.7c-5.9 2.5-8.9 8.4-11.2 14-2.9 7.3-4.8 15-5.8 22.8-.5 3.9-.7 7.8-.7 11.8 0 3.9.4 7.7.2 11.6-.1 1.9-.4 3.8-1.1 5.5-.6 1.6-1.5 3.2-2.1 4.8-.6 1.5-1 3.2-.7 4.8s1.5 2.7 2.4 3.9c.3.5.8 1.1.6 1.7-.2.7-1 1.2-1.4 1.7-1.1 1.2-1.4 2.8-1.3 4.4.3 2.6 2 5.9.6 8.4-.3.5-.7.9-1.2 1.1-.7.3-.2 1.4.5 1.2 2.8-.8 3-4.3 2.5-6.8-.3-1.6-.9-3.1-.9-4.7 0-.8.1-1.5.5-2.2s1.1-1.1 1.6-1.7c2.4-2.9-2.2-5-2.5-7.8-.2-1.7.6-3.3 1.2-4.8.7-1.6 1.6-3.2 2-5 1-3.6.8-7.5.6-11.2-.2-3.9-.2-7.9.1-11.8.6-7.9 2-15.7 4.4-23.2 1-3.3 2.2-6.6 3.8-9.6 1.5-2.7 3.4-5.4 6.1-7.1.633-.425 1.302-.793 2-1.1.5-.1.2-.8-.2-.7zm20.2 45.6c.2 0 .2 1.7.2 1.9.1.7.1 1.5.2 2.2l.3 4.3.4 8.7v8.7c-.1 2.4-.5 5 .5 7.3.5 1.1 1.2 2 2.1 2.8.7.7 1.7 1.5 1.8 2.5l.6-.7c-1.3.5-2.5 1.2-3.6 2.1-1 .9-2.1 2-2.3 3.4-.1.6.7.7 1 .4.5-.4.7-.8 1.1-1.3s.8-.9 1.2-1.3c.9-.8 1.9-1.4 3-1.8.4-.2.6-.5.5-1-.4-2.4-3-3.4-4-5.5-.6-1.3-.7-2.7-.7-4.1v-4.8c-.1-6.6-.3-13.2-1-19.8l-.3-2.8c-.1-.5-.1-1.4-.6-1.6-.6-.3-.7.7-.3.6 0 0 0-.1-.1-.2zm76.5-87.3c1 .3 1.9.6 2.6 1.4.8.9 1 2.1 1 3.3-.1 1.2-.5 2.4-1.1 3.6-.5 1.2-1.3 2.2-1.5 3.5-.1.3.3.6.6.3.9-1.2 1.6-2.6 2.2-4.1.6-1.3 1-2.8.8-4.3-.1-1.3-.6-2.5-1.6-3.4-.8-.7-2-1.3-3.1-.7-.1.1-.1.3.1.4z"/><path d="M127.403 87c.2.2.4.2.6.3.3.1.5.1.8.2.6.2 1.1.5 1.5.9.9.8 1.6 1.8 2.2 2.9l1.7 3.3c.6.9 1.3 2.1 2.5 2.4.3.1.5-.2.3-.5-.3-.6-.8-1-1.2-1.5s-.7-1.1-1-1.6l-1.9-3.5c-.7-1-1.5-2-2.5-2.7-.5-.3-1.1-.6-1.7-.8-.5-.1-1.2-.2-1.5.2.1.3.2.4.2.4z"/><path d="M136.102 96.3c.5.8.1 1.9-.1 2.8-.2 1.1-.5 2.3-.8 3.4-.5 2.1-1 4.6-.4 6.6.1.4.7.3.7-.1l.3-3.9.8-3.9a22.05 22.05 0 0 0 .6-3.7c.1-.7 0-1.9-.9-1.9-.1.2-.3.5-.2.7z"/><path d="M128.802 98.3c.3 1.1 1.1 2 1.6 3l1.7 2.8 1.7 2.8c.6.9 1.1 2 1.9 2.6.2.1.4-.1.4-.3-.1-1-.9-1.9-1.4-2.8l-1.8-2.9-1.7-2.8c-.6-.9-1.1-2-1.8-2.7-.3-.3-.7 0-.6.3zm-.8 1.4c1.4 5.2.7 10.5-.8 15.7s-3.8 10.1-5.1 15.3c-1.3 5.4-1.3 11-.8 16.5.5 5.6 1.4 11.2 2.2 16.8l1.3 9.6c.4 3.2.8 6.4 1.4 9.6.1.7 1.3.6 1.3-.2-.2-2.9-.7-5.7-1.1-8.6l-1.2-8.5-2.2-16.9c-.6-5.6-.8-11.3.3-16.8 1.1-5.3 3.2-10.3 4.7-15.4.8-2.8 1.4-5.7 1.6-8.7.1-1.4.1-2.9-.1-4.3-.2-1.5-.5-2.9-1.1-4.3.1-.4-.5-.2-.4.2zm-35.3 27.2c1 2.7.8 5.6.5 8.4-.3 2.9-.6 5.7 0 8.7l2 8.8c.5 3 .5 6.1 0 9.2-.4 3-1.4 5.8-2.1 8.8-.8 3-1.2 6-1.2 9.1 0 3.2.5 6.3.9 9.5l.9 9.4c.2 3.6.4 7.1.4 10.7s-.2 7.2-.2 10.8c0 .7.9.6 1 0 .4-3.2.5-6.4.6-9.6s0-6.5-.2-9.7-.4-6.4-.8-9.5c-.4-3.2-.9-6.4-1-9.6-.2-3.2 0-6.3.7-9.3s1.7-5.8 2.2-8.8.7-6.1.4-9.1-1.2-5.9-1.9-8.8c-.4-1.6-.8-3.3-.8-5a40.25 40.25 0 0 1 .3-4.9c.3-3.1.6-6.3-.9-9.2-.3-.6-.9-.3-.8.1zm-33.6 52.8c-1.5 5.8-2 11.9-2 17.8v2.2c0 .6.1 1.2.5 1.8.7.9 2.2 1.2 3.3 1.4 2.7.6 5.6.7 8.4.5 3.2-.2 6.4-.8 9.6-1.4.3-.1.5-.4.5-.7l-.3-12.8c0-2 .1-4.1.5-6.1s1-3.8 1.6-5.7c.2-.5-.6-.9-.9-.4-1 1.7-1.6 3.8-1.9 5.8-.4 2-.5 4-.6 6.1-.1 4.4.1 8.8.2 13.1l.5-.7c-5.1 1-10.4 2-15.6 1.2-1.2-.2-2.6-.4-3.7-.9-.6-.3-.7-.7-.7-1.3 0-.7 0-1.4-.1-2.1-.1-2.8 0-5.6.2-8.4.2-3.1.6-6.2 1-9.3.1-.4-.4-.4-.5-.1z"/><path d="M58.602 169.5c-.9 1.1-1.2 2.6-1.4 4-.2 1.2-.4 2.4.1 3.5s1.6 1.5 2.7 1.7c1.4.1 2.8 0 4.2-.2l9-1.2c1.4-.1 2.8 0 4.2.2 1.1.1 2.3.1 3-.9.4-.6.4-1.3.5-1.9.1-.7.1-1.4.3-2.1.3-1.4 1-2.5 1.8-3.7.3-.4-.3-.9-.7-.7-1.8 1.1-2.4 3.7-2.6 5.7-.1.5 0 1.1-.2 1.6-.2.6-.6.8-1.2.8-1.2 0-2.4-.3-3.5-.3-2.6 0-5.3.4-7.9.8l-4.1.5c-1.1.1-2.5.3-3.6-.1-1.3-.5-1.3-2-1.2-3.1.1-1.5.7-3.1.6-4.6h0z"/><path d="M60.201 169.3c3.8.1 7.6-.2 11.4-.4l5.7-.3c.9 0 1.8-.1 2.7-.1s1.8.1 2.8 0c.3 0 .4-.5.1-.7-1.6-.8-3.7-.6-5.4-.5-1.9.1-3.9.3-5.8.4-3.8.3-7.7.4-11.5 1-.4.1-.3.6 0 .6zm75.5-2.2c.5 2.2-.2 4.5.5 6.7.7 2 2.4 2.8 4.4 2.9l7.7.4 7.9.4 8.9.4c.4 0 .6-.3.7-.7l.2-3.7c.1-1.2.3-2.4.1-3.6-.1-.9-.5-1.7-1.4-2-1-.3-2.2-.1-3.2-.2l-14.7-.8-4.1-.4-4.2-.5c-.6 0-.8.9-.1 1.1 2.2.6 4.5.7 6.7.9l7 .5 6.8.3 3.5.1c.7 0 2.3-.1 2.6.8.2.5.1 1.1 0 1.6l-.1 1.9-.2 4.1.7-.7-14.9-.7-7.5-.3c-1.9-.1-4.6.2-5.5-1.9-1-2.2 0-4.7-1-6.9-.3-.4-.9-.1-.8.3zm17.4 4.3c-.2-.5-.8-.8-1.3-.8-.4 0-.6.1-.9.4-.2.2-.4.5-.5.8-.2.7.2 1.5.8 1.9s1.4.4 2 0c.4-.3.6-.6.8-1 .1-.4.2-.8.1-1.2-.1-.2-.3-.4-.5-.4-.3 0-.7.1-.9.4-.2.2-.5.6-.3 1 .1.1.2.2.4.2.1 0 .2-.1.3-.2l.1-.1h.1s.1 0 .1-.1h.1c-.1 0-.1 0 0 0h.1c-.1 0-.1 0 0 0h.1l-.5-.5v.1.2.1.2s-.1.1-.1.2v.1l-.1.1c.1-.1-.1.1 0 0 0 0 0 .1-.1.1l-.1.1c.1 0-.1.1 0 0h-.1l-.1.1c.1 0-.1 0 0 0h-.1-.1c.1 0-.1 0 0 0h-.2-.1-.1-.1l-.1-.1h-.1c.1.1-.1-.1 0 0l-.1-.1v-.1c.1.1-.1-.1 0 0l-.1-.1v-.1-.2c0 .1 0-.1 0 0v-.1-.1s.1-.1 0-.2c0 .1 0 .1 0 0v-.1l.1-.1c-.1.1-.1 0 0 0h.1s.1 0 .1-.1h-.1s.1 0 .1-.1h.1c-.1 0-.1 0 0 0h.1.1.1c-.1 0-.1 0 0 0h.2c.1 0-.1 0 0 0h.1.1c.1 0 .1.1.2.2s.2.1.3 0c0-.2.1-.3 0-.4zm-14.2 6.3c-.6 2.2-.7 4.5-.7 6.7-.1 2.3 0 4.6.1 6.9l.2 3.3c.1.9.1 1.8.4 2.6.7 1.8 2.2 2.6 4 2.9 2.2.3 4.4.4 6.6.5l6.8.5c1.7.1 3.6.1 4.9-1.2s1.2-3.2 1-4.9a32.2 32.2 0 0 1 0-7.6c.2-2.6.9-5.1 1.1-7.7 0-.6-.8-.7-1-.1-.6 2-.9 4.1-1.2 6.2s-.5 4.2-.5 6.2c0 1 .1 2 .2 3 .1.8.2 1.6.1 2.4-.3 1.8-1.8 2.3-3.4 2.4-2 0-4-.2-6-.4l-6.4-.4c-1.6-.1-3.7-.1-4.6-1.6-.4-.7-.6-1.6-.7-2.4l-.3-3-.4-7.2.3-7.1c.2-.2-.4-.3-.5 0zm-48.8-15.7c-.4-.5-1 0-1.3.3-.3.4-.6.8-.8 1.2-.5.8-.7 1.9-.1 2.7.6.9 1.7 1 2.6.5.9-.6 1.2-1.6 1.2-2.6 0-.6-.1-1.1-.4-1.6-.4-.5-1.1-.4-1.3.2-.1.3.3.6.6.4h-.2l.1.1s.1.2.1.1c0 0 0 .1.1.1v.1.3.6c0 .3-.1.6-.2.9 0 .1-.1.1-.1.2 0 0 0 .1-.1.1l-.1.1s-.1.1-.1 0c0 0-.1 0-.1.1 0 0-.1 0-.1.1-.1 0-.1 0-.2.1h-.1-.1-.1c.1 0 0 0-.1 0h-.1s-.1 0-.1-.1c.1 0-.1 0-.1-.1 0 0-.1-.1 0-.1 0 0 0-.1-.1-.1 0 .1 0-.1 0-.1v-.1-.1-.3c0-.2 0-.2.1-.4 0-.2.1-.3.2-.5.2-.4.4-.7.6-1l.3-.3c.1-.1.2-.1.2-.2l.1-.1v-.1c-.2-.2-.2-.3-.3-.4zm-.8 35.9c0-.1.1-.2 0-.3v-.1-.1c0-.1 0-.1-.1-.1l-.1-.1c-.1-.2-.2-.3-.5-.4-.6-.2-1.3.2-1.7.6-.9.8-1.2 2.3-.6 3.4.6 1 1.9 1.6 3.1 1.3s1.9-1.5 1.7-2.7c-.1-.7-.4-1.3-1-1.7-.5-.3-1 .1-1.3.5-.2.3-.4.8-.2 1.1.1.3.5.2.7 0 .1-.2.1-.3.3-.4.1-.1-.1.1 0 0h.1c-.1 0 0 0 .1 0l-.4-.2c.1 0 .1.1.2.2l.1.1c0 .1.1.1.1.2v.1c0 .1 0 .1.1.2 0 .2 0-.1 0 0v.1.2c0 .1 0 .1 0 0v.1c0 .1 0 .1-.1.2 0 0-.1.1 0 .1 0 .1-.1.1-.1.2.1-.1-.1.1 0 0l-.1.1-.1.1c.1-.1-.1.1 0 0-.1 0-.1.1-.2.1h-.1-.1-.1-.2-.1c-.2 0-.3-.1-.5-.1.1.1-.1 0 0 0h-.1c-.1 0-.1-.1-.2-.1 0 0-.1 0-.1-.1l-.2-.2c.1.1-.1-.1 0 0 0 0 0-.1-.1-.1 0 0-.1-.3-.1-.1 0-.1-.1-.2-.1-.2v-.1-.3-.1c0 .1 0-.1 0 0 0-.1 0-.2.1-.2v-.1-.1c0-.1.1-.2.1-.3 0 0 0-.1.1-.1 0 0 .1-.2.1-.1s.1-.1.1-.1l.1-.1.1-.1s.1-.1.1 0c.1-.1.2-.1.3-.2 0 0 .1 0 .1-.1h.2.1a.76.76 0 0 0 .4-.2l-.1.1c-.1 0 0 0 .1 0v.1.1c-.3.2 0 .2.1 0zm-2 77.2c0-.2-.1-.4-.3-.6-.2-.1-.5-.2-.7-.2-.1 0-.3 0-.4.1-.1 0-.2.1-.3.2-.2.1-.4.3-.6.5-.7.7-1.1 1.7-.9 2.7s1.1 1.6 2.1 1.7 1.9-.6 2.2-1.5c.1-.5.1-1-.1-1.5-.2-.6-.8-1.3-1.5-1a.76.76 0 0 0-.2.4c0 .1 0 .2.1.3l.1.1c0-.1 0-.1 0 0 .1.1.1.2.2.3 0 0 .1.1.1.2l.1.1s0 .1.1.1c0 .1.1.2.1.2v.1.2c0 .1 0 .1 0 0v.1c0 .1 0 .1-.1.2.1-.1 0 .1 0 0 0 0 0 .1-.1.1 0 0 0 .1-.1.1l-.1.1c-.1 0-.1.1-.2.1s-.2 0-.3.1c.2 0-.1 0-.1 0h-.2-.1c-.1 0-.2 0-.2-.1 0 0-.1 0-.1-.1s-.1 0-.1-.1l-.2-.2-.1-.1v-.1c0-.1 0-.2-.1-.2 0 .1 0-.1 0-.1v-.1-.1c0-.2.1-.3.1-.5 0 .1 0-.1 0 0 0 0 0-.1.1-.1 0-.1.1-.2.1-.2l.1-.1c-.1.1.1-.1.1-.1l.2-.2.1-.1s.2-.1.1-.1l.2-.2s.1 0 .1-.1c.1 0 .1 0 .2-.1s-.1 0 0 0h.1c.1 0-.1 0 0 0h.1c.2.2.4 0 .4-.2zm-4.7 39.2c-.4-.3-.8-.5-1.3-.5s-1 .3-1.4.6c-.8.7-1 1.9-.4 2.8s1.7 1.5 2.8 1.2c1-.2 1.8-1.2 1.9-2.2.1-.6 0-1.3-.3-1.8-.2-.3-.5-.6-.8-.7-.4-.2-.9 0-1.1.4s.1.7.5.6c-.1 0-.1 0 .1 0h.1c.1.1 0-.1 0 0 0 0 0 .1.1.1 0 .1.1.1.1.2v.1.2.1.1.1c0-.1 0 .1 0 .1v.1c0 .1-.1.2-.1.3.1-.1 0 .1 0 0 0 0 0 .1-.1.1 0 .1-.1.2-.2.3.1-.1-.1.1 0 0l-.1.1-.2.2c.1-.1-.1.1 0 0l-.1.1s-.1 0-.1.1c-.1 0-.1 0 0 0h-.1c-.1 0-.2 0-.2.1.1 0-.1 0 0 0h-.1-.1c-.1 0-.2 0-.3-.1h-.1c.1.1-.1-.1 0 0-.1 0-.1-.1-.2-.1l-.1-.1c.1.1-.1-.1 0 0l-.2-.2c0 .1-.1-.1 0 0 0 0 0-.1-.1-.1-.1-.1-.1-.2-.1-.2v-.1-.1c0 .1 0-.1 0-.1v-.1c0 .1 0-.1 0 0 0-.1 0-.2.1-.2 0 0 0-.1.1-.1s0-.1.1-.1l.1-.1.2-.2.1-.1c-.1.1.1 0 .1-.1.2-.1.2-.1.5-.2.1 0 .2-.1.3-.1h.2.2c.1 0 .2 0 .3.1-.1.1.2-.2-.1-.5zm-17.7-12.3l2.5-5.6 2.7-5.4 2.9-5.4 1.5-2.6 1.6-2.5c.3-.4 1.4-1.2 1.6-.3.1.4 0 1 0 1.4 0 .5-.1 1-.1 1.6-.2 2.1-.7 4.2-1.1 6.3l-3 12.7c-1.1 4.8-2.3 9.7-3.1 14.6-.1.4.5.5.6.2 1.4-4.5 2.6-9.2 3.7-13.8l3.4-13.8c.5-2.2.9-4.4 1.1-6.7.1-.9.3-2.1-.1-3-.3-.8-1.1-1.2-2-1.2-1.9.1-2.9 2.5-3.7 3.9-1.1 1.9-2.2 3.8-3.2 5.8-1.1 2.2-2.2 4.5-3.2 6.7s-2 4.5-2.7 6.9c0 .2.5.5.6.2zm35.4-145.1c-.5 1.8-.5 3.6-.2 5.4.2 1.8.6 3.5 1.2 5.2 1.1 3.6 2.7 7.1 3.8 10.7s2 7.3 2.5 11c.6 3.6.7 7.3.9 10.9.1 1.8.3 3.7.7 5.5.5 1.8 1.3 3.4 2.5 4.9.3.4.9-.1.7-.5-1.6-2.8-2.1-6.2-2.3-9.4-.2-3.5-.3-6.9-.8-10.4-.5-3.7-1.3-7.4-2.4-11-1.1-3.5-2.5-6.8-3.9-10.2-.7-1.9-1.4-3.9-1.9-5.9-.4-2-.4-4-.4-6.1.2-.4-.3-.5-.4-.1zm2.5 0c.6.5 1.3.3 2 .3.9 0 1.8-.1 2.7-.2 1.6-.1 3.1-.3 4.7-.2 1.5.1 2.9.5 4.1 1.5 1.1.9 1.9 2 2.6 3.2 1.6 2.6 3.2 5.7 2.9 8.9-.2 2.6-1.8 4.9-3.8 6.6-1.1 1-2.4 1.6-3.8 2.3-1.2.6-2.7 1.4-2.9 2.9-.1.4.4.7.7.4.4-.5.8-.9 1.4-1.3s1.3-.7 1.9-1c1.3-.6 2.5-1.3 3.6-2.2 2.2-1.8 3.9-4.2 4.2-7.1.4-3.4-1.1-6.7-2.7-9.6-1.5-2.6-3.5-5-6.5-5.7-1.9-.4-3.8-.2-5.7 0l-3.1.3c-.8.1-2 .1-2.6.7.2.1.2.2.3.2z"/><path d="M112.502 182.6c-.3 1.1 1.2 2.1 2 2.5 1.2.7 2.7.8 4 .9 1.4.1 2.9 0 4.2.6 1.3.5 2.2 1.7 3 2.9 1.6 2.5 2.7 5.6 2.3 8.6-.2 1.4-.7 2.8-1.5 3.9-.8 1.2-2 2.1-3.3 2.8-1.5.9-3 1.6-4.6 2.3l-2.6 1c-.8.3-1.7.5-2.5.9-.5.3-.3 1.2.3 1.1 1.7-.1 3.4-.9 5-1.5 1.5-.6 3-1.3 4.5-2.2 2.7-1.5 4.9-3.6 5.8-6.6s.3-6.2-1-9-3.2-5.4-6.4-6c-1.7-.3-3.3-.2-5-.4-.8-.1-1.6-.4-2.3-.8-.6-.4-1-1.1-1.7-1.3-.1.1-.2.2-.2.3zm-15.5-25.3c.4.2.7.4 1.1.5l.6.3c.1.1.3.1.4.2h.1s.3.1.2 0c.2.1.5-.1.6-.3s0-.5-.2-.6a58.91 58.91 0 0 1-.1-.1c-.1 0-.1-.1-.2-.1-.1-.1-.2-.1-.3-.1l-.6-.2c-.4-.2-.8-.4-1.2-.5-.1 0-.3 0-.4.1s-.2.2-.2.3c-.1 0 0 .4.2.5zm-1.1 7c0 .1.1.2.2.3l.1.1c-.1-.1.1.1.1.2.1.2.3.4.4.5.3.3.8.5 1.2.6s.9.2 1.4.1c.4-.1.9-.3 1.1-.8.1-.2-.1-.3-.2-.4-.2-.1-.3 0-.5 0h-.5-.5-.1c-.1 0-.2 0-.2-.1-.1 0-.1 0-.2-.1h-.1a.76.76 0 0 0-.4-.2c-.1 0-.1-.1-.2-.1.1.1-.1 0 0 0l-.1-.1-.1-.1c.1.1-.2-.1 0 0 0-.1-.1-.2-.2-.2-.1-.2-.4-.3-.6-.2-.5 0-.6.2-.6.5zm26.1-11.9l-1.7 1.1-.8.6c-.3.2-.7.4-.9.7l.8-.1s.3.4.2.2c0 0-.2-.3-.1-.1l.1.3v.2c.1-.1.1-.2 0-.1 0 .1 0 .1-.1.1.2-.1.3-.3.2-.5l-.3-.3h-.2c-.1 0-.2 0-.2.1-.1 0-.1 0-.2.1a1.4 1.4 0 0 0-.3.4c-.1.2 0 .4.1.6.2.3.5.4.9.2.3-.1.6-.4.9-.6l.8-.6c.6-.4 1.1-.8 1.7-1.3.2-.2.2-.5 0-.7-.3-.4-.6-.4-.9-.3zm1.4 7.8c-.6.4-1.2.9-1.7 1.3l.9.9c.1-.1.2-.2.2-.3v-.1l-.1.1c.1-.1.1-.2.2-.3v-.1c0 .1 0 .1 0 0v-.1c.057-.096.079-.208.06-.318a.47.47 0 0 0-.16-.282l-.1-.1c-.1-.1-.2-.1-.3-.1s-.2.1-.3.1h-.1-.1c-.1.1-.2.1-.3.2l.1-.1.1-.1c-.15.025-.289.095-.4.2-.1.1-.2.3-.2.5s.1.3.2.5c.3.2.6.2.9 0l1.5-1.4c.2-.2.2-.5 0-.7.2.1-.1 0-.4.2zm2.3 46.9c-.2 1.4.1 3 .1 4.4v4.7l-.2 4.6c-.1 1.6-.3 3.1-.1 4.7 0 .4.6.5.7.1.4-1.5.5-3 .5-4.5l.1-4.7-.1-4.6-.1-2.3c0-.8 0-1.6-.2-2.3 0-.5-.6-.5-.7-.1zm13.4-107.5c.4.2.8.4 1.2.5s.8.1 1.2.2l2.8.5 5.4.9 11 1.7c3.6.6 7.2 1.1 10.9 1.6 1.7.3 3.4.5 5.2.8 1.5.2 3 .6 4.3 1.2 5.2 2.6 4.6 9.4 3.8 14.2-1.1 6.7-2.7 13.4-4.7 19.9-1.1 3.6-2.3 7.2-3.7 10.6-1.4 3.6-3.1 7-4.5 10.6-.2.4.5.7.8.3 1.8-3 3.2-6.3 4.5-9.5s2.5-6.4 3.6-9.7c2.2-6.6 3.9-13.4 5.2-20.3.9-5.1 2.2-11.8-1.9-15.9-2.2-2.2-5.4-2.7-8.4-3.2l-11.4-1.7-12.6-1.8-6.2-.9c-1-.1-2.1-.3-3.1-.4-.5-.1-1.1-.1-1.6-.2-.6-.1-1 0-1.6 0-.2.2-.4.5-.2.6zm48.3 10.7c3.1 1.7 5.4 4.8 7.4 7.7 2.2 3.1 4.1 6.3 6 9.6 3.7 6.6 6.7 13.5 8.6 20.8s2.8 14.7 2.3 22.2c-.1 2.1-.3 4.2-.4 6.3 0 2 .2 4 .6 6 .8 3.8 2.2 7.5 3.1 11.3.4 1.9.9 3.9.7 5.9-.2 1.4-.9 2.6-1.9 3.6-2 1.9-4.7 3-6.6 5.1-.4.5-.9 1-1.2 1.6-.3.4.4.9.7.5 1.8-2.2 4.6-3.4 6.9-5.1 1.1-.8 2.1-1.8 2.8-3 .9-1.6 1-3.4.9-5.1-.4-4-1.8-7.8-2.9-11.7-.5-1.9-1-3.9-1.3-5.8-.3-2.1-.2-4.2 0-6.4.3-4 .5-8 .2-12-.3-3.8-.9-7.5-1.7-11.2-1.7-7.5-4.6-14.7-8.2-21.5a100.15 100.15 0 0 0-6-9.9c-2-3-4.2-6.1-7.1-8.3-.729-.525-1.498-.993-2.3-1.4-.6-.3-1.1.5-.6.8z"/><path d="M215.602 202.4c-.3 1.6 1 3 2.2 3.9 1.4 1.1 2.9 2.1 3 4s-.5 3.7-1.3 5.4l-1.3 2.5-1.2 2.4c-.1.3.3.5.6.3.7-.6 1.3-1.5 1.8-2.3l1.4-2.4c.8-1.7 1.4-3.6 1.4-5.4 0-2-.9-3.4-2.4-4.5l-2-1.5c-.7-.7-1.1-1.4-1.4-2.3-.3-.4-.8-.5-.8-.1z"/><path d="M220.901 214.1l1.9 5.4c.5 1.8.9 3.7 1.1 5.5.5 3.8.4 7.7-.3 11.4-1.3 6.8-4.6 13.2-9.4 18.2-1.3 1.4-2.7 2.6-4.2 3.8s-3.2 2.1-4.7 3.3c-.4.3 0 1 .5.8 1.6-.5 3.1-1.6 4.5-2.6 1.422-1.024 2.76-2.161 4-3.4 2.5-2.4 4.7-5.2 6.4-8.3 3.8-6.6 5.4-14.3 4.7-21.8-.2-2.2-.6-4.4-1.2-6.6-.6-2.1-1.3-4.3-2.5-6.1-.1-.5-1-.2-.8.4zm-52.6-30.3c-.5 2.1-.3 4.3 0 6.4.3 2.2.8 4.3 1.2 6.4l3 13.2c.2 1 .5 2.1.9 3s.9 2 1.7 2.7c.3.2.9 0 .7-.4-.3-.8-.8-1.6-1-2.4l-.8-2.7-1.4-6.2c-1-4.2-2.1-8.4-2.8-12.7-.2-1.2-.4-2.3-.5-3.5s-.1-2.5-.2-3.7c-.2-.3-.7-.5-.8-.1z"/><path d="M168.001 183.5c-.7 2.2-.9 4.6-1.1 6.9l-.6 7c-.3 4.7-.3 9.4-.2 14.1.1 2.6 0 5.4.8 8 .1.4.7.3.7-.1.3-2.3 0-4.7 0-7-.1-2.3-.1-4.7-.1-7 0-4.6.2-9.3.5-13.9.2-2.6.6-5.3.5-7.9 0-.3-.4-.3-.5-.1zm-8.6 42.1c3.4-.4 6.8-1.1 10.2-1.9 1.7-.4 3.4-.9 5-1.3.9-.2 1.7-.5 2.5-.8.7-.2 1.5-.4 2.2-.3.6.1.9-.6.4-1-1.3-1-3.2 0-4.5.4l-5.2 1.5c-1.7.5-3.4.9-5.2 1.3l-2.6.6c-.9.2-1.9.5-2.9.6-.5-.1-.5.9.1.9z"/><path d="M179.402 220c.1.4 0 .8.1 1.2a4.63 4.63 0 0 0 .5 1l1.2 2.3 2.5 4.2 5.4 8.3c3.7 5.5 7.2 11.1 9.4 17.3.6 1.8 1.2 3.6 1.7 5.5l.6 2.9c.2 1 .2 2 .6 2.9.2.6 1.1.5 1.2-.2.1-.8-.1-1.7-.2-2.5-.2-.9-.3-1.8-.5-2.7-.4-1.7-.9-3.4-1.4-5.1a65.28 65.28 0 0 0-4.1-9.4c-3.1-5.8-7.1-11.1-10.7-16.6-1-1.6-2.1-3.2-3-4.8-.5-.8-1-1.6-1.4-2.4-.2-.4-.4-.8-.6-1.1-.3-.4-.7-.6-1-1-.2 0-.3.1-.3.2zm-4.2 49l6.6 1.2c2.2.3 4.4.5 6.6.5a34.84 34.84 0 0 0 6.5-.6c1.1-.2 2.1-.5 3.2-.8s2.1-.7 3.1-1.1c.6-.2.3-1-.3-.9l-3.2.6c-1 .3-2 .5-2.9.7-2.1.4-4.2.6-6.4.6s-4.3-.2-6.4-.4l-6.6-.9c-.6.1-.8 1-.2 1.1zm-15.3-41.3c1.3.3 2.8 0 4.1-.1l4.4-.3 8.7-.7-.7-.5c0 .2 0 .3-.1.5-.3.4.3.9.7.7.5-.3.8-.8.7-1.3 0-.3-.3-.7-.7-.7l-8.9.9-4.3.4c-1.3.1-3 .1-4.2.7.1 0 .1.4.3.4z"/><path d="M176.802 227c.1 0 .2 0 .3-.1.1-.3 0-.4-.2-.6-.2-.1-.5-.1-.6.1-1.8 2.3-3.5 4.6-5 7.1-.8 1.2-1.5 2.5-2.1 3.8-.3.6-.7 1.2-.9 1.9-.3.7-.6 1.4-.7 2.1 0 .3.3.5.5.3.5-.6.8-1.2 1.2-1.8a12.87 12.87 0 0 0 1.1-2l2.2-3.9 2.4-3.8 1.3-1.9c.3-.5 1-1.1.9-1.7l-.4.2v-.1l.2-.2h-.1c-.4.2-.3.6-.1.6zm-7.6 17.6c-.3.1-.4.3-.5.5-.2 2.1.7 4 1.4 6l1.9 6 1.3 6.2c.2 1 .3 2 .4 3.1s.4 2.1.5 3.1c.1.5.9.4.9-.1.1-1.1.1-2.2 0-3.3l-.4-3c-.3-2-.7-4.1-1.3-6.1l-1.9-5.9c-.7-1.9-2-4-1.9-6 0-.2-.1-.4-.2-.4 0-.1-.1-.1-.2-.1zm11.8-25.9c.3.3.6.2.9.1.3 0 .6-.1.9-.1.7-.1 1.4-.1 2.1 0 .7 0 1.3.2 2 .3.3.1.7.1 1 .2s.7.3 1 .2c.4 0 .5-.4.3-.7s-.6-.4-.9-.5c-.4-.1-.7-.3-1.1-.4-.7-.2-1.5-.3-2.2-.4l-2.2.1c-.4.1-.7.1-1.1.2s-.7.2-.8.6c0 .1 0 .3.1.4z"/><path d="M180.401 219c.1-.1.2-.1.2-.2.1-.1.2-.2.2-.3a1.38 1.38 0 0 1 .3-.4c.3-.3.6-.7.9-1s.6-.6 1-.9c.2-.1.3-.3.5-.4.2-.2.4-.3.5-.6a.55.55 0 0 0-.078-.293c-.053-.088-.13-.16-.222-.207-.3-.1-.5.1-.8.2-.2.1-.4.3-.6.4a4.74 4.74 0 0 0-1 1l-.9 1.1c-.1.2-.2.4-.4.6-.1.1-.1.2-.2.3s-.1.3-.1.4c0 .3.5.6.7.3zm-138.2 60.6c-.4.6-.9 1-1.2 1.7l-.8 1.8c-.5 1.3-.8 2.6-1 4-.5 2.8-.6 5.6-.8 8.4-.4 5.9-1.5 11.7-3.5 17.3-.5 1.6-1.1 3.1-1.8 4.6-.7 1.6-1.5 3.1-2 4.7-.1.5.5.9.8.5 1-1.1 1.6-2.5 2.2-3.8.6-1.4 1.2-2.8 1.7-4.2 1-2.8 1.9-5.7 2.5-8.7.6-2.9 1-5.8 1.2-8.7.2-2.8.2-5.6.5-8.4.1-1.5.4-3.1.8-4.6.2-.7.4-1.4.7-2.1.3-.8.5-1.7.9-2.4.1-.1-.1-.3-.2-.1zm-10.1 44.1c.8 1.7 2.1 3.3 3.3 4.8 1.3 1.5 2.6 2.9 4.1 4.2 3 2.6 6.4 4.9 9.9 6.8 7.5 4.1 15.7 6.8 24.1 7.9 2.4.3 4.7.5 7.1.6 2.3.1 4.9.2 7.1-.4.4-.1.5-.8 0-.9-2-.3-4.1-.2-6.1-.2s-4.1-.2-6.1-.5c-4.1-.5-8.2-1.3-12.1-2.5-7.7-2.3-15.2-5.8-21.6-10.7a40.58 40.58 0 0 1-4.9-4.4c-1.5-1.6-2.8-3.4-4-5.2-.4-.3-1 .1-.8.5zm61-48.3c-.1 2.4.2 4.7.2 7.1l-.1 7.1c-.2 4.7-.9 9.4-1.8 14-1 4.6-2.3 9-3.7 13.4s-2.8 8.8-3.7 13.3c-1 5-1.2 10 0 14.9.2.6 1.1.4 1-.3-2-9 1.2-18.1 3.9-26.6 1.4-4.4 2.8-8.8 3.7-13.4.901-4.589 1.502-9.232 1.8-13.9.1-2.6.2-5.2.1-7.8s-.1-5.4-.8-7.9c-.1-.3-.6-.2-.6.1zm41.7 6l1.1 6.2 1 6.3c.6 4.2 1.1 8.4 1.3 12.7.3 4.2.4 8.5.3 12.7-.1 4.1-.4 8.2-.6 12.3-.2 4.4 0 8.9 1.8 12.9.2.5 1.1.1.9-.4-2.4-7.7-.9-15.9-.8-23.9.2-8.4-.4-16.8-1.7-25.1-.3-2.3-.7-4.6-1.2-6.9-.5-2.4-1-4.7-1.7-7 .1-.4-.5-.2-.4.2zm7.6 63.4c1 .7 2.3.5 3.3.1 1.3-.6 2.6-1.3 3.8-2l8-4.3 15.3-8.6c2.9-1.7 5.8-3.4 8.5-5.4.6-.5.1-1.5-.6-1.1-2.5 1.4-4.8 3-7.3 4.5l-7.3 4.4-15 8.5-4.3 2.4c-1.3.8-2.7 1.5-4.3 1.2-.1-.1-.3.2-.1.3zm35.6-55.1c-.4.8-.3 1.9-.3 2.9v3.2l.1 6.5c.1 4.3.1 8.6.5 12.8.2 2.1.6 4.3 1.7 6.2.2.3.7.1.6-.3-1-3.8-1-7.8-1.2-11.8l-.6-12.7c0-1.2-.1-2.3-.1-3.5 0-1 .1-2.4-.4-3.4 0 0-.2 0-.3.1zm-87.1 26.9c.2.6.7.7 1.3.9l2.2.7a32.84 32.84 0 0 0 4.3.9l9 1.1c6.1.6 12.2 1.1 18.3.7 3.4-.2 6.8-.8 10-2 .6-.2.4-1.1-.3-.9-5.9 1.2-11.8 1.6-17.7 1.4-3-.1-6-.3-8.9-.6l-8.9-.8c-1.6-.2-3.3-.4-4.9-.8-.8-.2-1.7-.3-2.5-.5-.7-.2-1.3-.6-2-.2.1 0 0 .1.1.1zm-2.2 7.5c-.1 0-.3.1-.4.1s-.1 0-.2.1c-.1 0-.2.1-.2.1v.1h.1.1c.1 0 .1 0 .2-.1a.76.76 0 0 0 .4-.2c.1 0 .1-.1.1-.1 0 .1 0 0-.1 0zm-.2.2c.1 0 .1-.1 0-.1s-.1.1 0 .1z"/><path d="M88.501 324.3c.1 0 .1-.1 0-.1s-.1.1 0 .1zm-.4.2c.5.5 1.1.7 1.8.9l2.6.6 4.7.9 9.8 1.3c6.5.6 13.1.7 19.7.4 1.8-.1 3.7-.2 5.5-.4 1.9-.2 3.7-.3 5.5-.9.6-.2.4-1-.1-1-1.7-.1-3.3.1-5 .3-1.6.1-3.2.3-4.8.4-3.3.2-6.6.3-9.8.2-6.5-.1-13-.5-19.5-1.4-1.8-.3-3.7-.5-5.5-.9-.9-.2-1.7-.3-2.6-.5-.8-.1-1.5-.3-2.3.1zm20.9 7.3c.1-.3.1-.6.2-.9l-.7-.4c-.4.8-.3 1.9-.3 2.8l-.2 3.1-.3 6.1-.3 6v2.7c.1.8.2 1.9.8 2.4.3.3.6 0 .7-.3.1-.4-.1-.9-.1-1.3s-.1-.9-.1-1.3V348l.2-6 .2-6 .1-2.9c0-.9.2-2-.1-2.8-.2-.4-.8-.1-.7.3.1.3 0 .6 0 .9 0 .5.5.6.6.3zm.1 23.3c1.1.2 2.3.1 3.4.1 1.2 0 2.3-.1 3.5-.2 1.6-.2 4-.2 4.8-1.9.4-.9.3-2 .3-2.9v-3.6l.2-7 .3-4.1c.1-1.3.3-2.7.2-4.1 0-.5-.8-.7-1-.1-.3 1-.4 2.1-.5 3.2l-.2 3.2-.3 6.7v6.5c0 .9.1 1.9-.8 2.3-.8.4-1.7.4-2.6.6-1.2.2-2.4.3-3.7.4-1.2.1-2.4 0-3.6.2-.4 0-.3.6 0 .7zm-75.6-30.3c-3.2 10.4-2.9 21.6-1.8 32.3 1.2 11.3 3 22.5 4.5 33.7 1.6 11.3 3.2 22.6 5.5 33.8 1.2 5.6 2.5 11.1 3.5 16.8s1.7 11.4 2.4 17.1c.7 5.2 1.3 10.5 1.2 15.8a51.79 51.79 0 0 1-.9 7.8c-.3 1.3-.7 2.6-1.2 3.8-.4 1-.8 2-.9 3.1-.1.9.2 1.8.8 2.5.5.6 1.4-.3.9-.9-.8-.9-.3-2.2 0-3.1.4-1.2.9-2.3 1.2-3.5.7-2.4 1.1-4.8 1.3-7.3.4-5.2 0-10.5-.6-15.7-.6-5.5-1.3-10.9-2.1-16.3-.8-5.6-2-11.1-3.2-16.7-2.4-11-4.2-22.1-5.8-33.3l-4.6-33.5c-1.3-10.7-2.2-21.7 0-32.3l.9-3.9c.2-.6-.9-.9-1.1-.2zm78.9 43c-1.1-.9-2.2.3-2.6 1.3-.3.8-.4 1.7-.5 2.6l-.4 2.8c-.4 3.9-.4 7.9-.3 11.9s.1 7.9-.2 11.9-.7 8-1.1 12c-1.5 16.1-2.2 32.3-2.3 48.5 0 9.1.1 18.2.5 27.3 0 1 1.5 1 1.5 0-.7-15.7-.7-31.4-.1-47.1.3-7.8.7-15.5 1.3-23.3s1.7-15.5 1.7-23.3c0-4.3-.2-8.6-.2-12.9 0-2.1.1-4.2.3-6.3.1-.5.4-5.6 1.7-4.8.6.2 1-.3.7-.6zm0 1.9c.4 8.7 1.6 17.4 2.8 26.1s2.7 17.4 4.3 26 3.6 17.2 5.7 25.7c1.1 4.3 2.1 8.6 2.6 13 .6 4.4.8 8.7.9 13.1l.4 13.1c.1 2.1.2 4.3.4 6.4.2 1.4.5 3.1 1.5 4.2.5.5 1.1.7 1.8.8.5.1.6-.7.3-.9-1.2-.7-1.7-2.2-2-3.5-.3-1.9-.4-4-.5-5.9l-.4-12.8c-.1-4.3-.3-8.6-.8-12.9s-1.3-8.4-2.3-12.6l-5.7-25.3c-1.7-8.4-3.2-16.9-4.5-25.4s-2.3-17.1-3.3-25.7c-.1-1.1-.3-2.2-.4-3.2 0-.7-.8-.7-.8-.2zm4.4 9c.4 1.6 2.2 2.2 3.6 2.5 2.2.5 4.4.8 6.5 1.1 2.3.3 4.7.4 7.1.4 2.2 0 4.4-.3 6.6-.5 1.2-.1 2.4-.1 3.6-.1s2.5.2 3.7.5c.3.1.5-.3.2-.5-1.7-1-3.8-1.3-5.8-1.3-2.1 0-4.3.3-6.4.4-4.5.3-9 0-13.5-.6a16.93 16.93 0 0 1-3.1-.6c-.9-.3-1.6-.8-2.3-1.5.1-.3-.3-.1-.2.2zm6.6 9.4c.1.7.7 1.2 1.2 1.7.521.52 1.09.989 1.7 1.4 1.2.9 2.6 1.5 4 2.1l8.5 3.5c1.5.8 3 1.7 4.3 2.9.4.4 1-.2.6-.6-1.9-2.4-4.7-3.7-7.5-4.8s-5.8-2-8.5-3.5c-.7-.4-1.5-.9-2.1-1.4s-1.1-1.2-1.8-1.5c-.3-.1-.5.1-.4.2zm54.7-61.6c.1.5.1 1.1.3 1.6.2.7.6 1.4.8 2.1l1.4 3.7 2.5 7.4c1.5 5 2.8 10.1 3.7 15.2 2 10.7 2.4 21.6 2 32.5l-1.5 33.7c-.1 11.3.3 22.7.7 34l.5 16.6c.2 5.1.5 10.5 2.1 15.4.4 1.2.9 2.4 1.4 3.5.2.5 1.1.2.9-.4-.8-2.5-1.3-5.1-1.7-7.7-.5-2.6-.7-5.2-.9-7.8-.3-5.4-.4-10.9-.6-16.3l-.8-34.1c0-11.3.9-22.5 1.4-33.8.5-10.9.3-21.8-1.4-32.7-1.6-10.3-4.4-20.5-8.6-30-.3-.6-.5-1.2-.8-1.8-.3-.5-.7-.9-1.1-1.4 0-.1-.3.1-.3.3z"/><path d="M182.101 335.6c-.3.1-.5.1-.7.3l-.6.6-1.3 1.2-2.7 2.5-2.7 2.3c-.4.4-.9.7-1.3 1.1-.5.4-1 .8-1.4 1.3-.2.2 0 .7.3.6 1.1-.4 2.1-1.2 3-1.9 1.01-.711 1.978-1.479 2.9-2.3l2.7-2.5 1.3-1.3c.2-.2.5-.5.6-.7.2-.2.2-.5.3-.8 0-.3-.2-.5-.4-.4zm2.1 6.6c-.3 0-.4-.1-.7.1s-.5.5-.7.8l-1.2 1.6-2.6 3.6-2.4 3.6-1.1 1.8c-.4.6-.8 1.2-1.1 2-.1.4.4.7.7.4.5-.5.8-1.1 1.2-1.6l1.3-1.8 2.5-3.6 2.5-3.5 1.3-1.8.6-.9c.1-.3 0-.4-.1-.7h-.2zm-97.2 40.5c1.1.4 2.5.2 3.6.2l3.8.1c2.6.2 5.1.6 7.7 1.2.6.1 2.3.3 1.5 1.3-.7.8-1.8 1.2-2.7 1.6-2.1 1.1-4.1 2.4-6 3.8-2.1 1.5-4.2 3.3-5.8 5.3-.3.4.1 1 .5.7l6.3-4.8c2.1-1.6 4.4-3 6.7-4.2.9-.5 2-1 2.5-2.1.4-1 0-2-.9-2.4-1.1-.5-2.5-.6-3.7-.8l-4.3-.5c-1.6-.2-3.2-.2-4.8-.2h-2.4c-.7 0-1.5.1-2.1.4-.1.2 0 .4.1.4zm15.2 11.7c0-.2 0-.4.1-.6.1-.1-.1-.3-.2-.3-.4-.2-.6.1-.9.4s-.7.6-1 .9l-2.1 2-4.1 4.2-3.7 4.4c-1.2 1.5-2.5 3-3.5 4.7-.2.3.3.7.5.4 1.4-1.3 2.5-2.9 3.7-4.3l3.9-4.4 3.9-4.2 2-2.1c.3-.3.7-.6 1-1 .3-.3.5-.5.4-.9l-.4.3c.1.2.2.4.2.5s.2.1.2 0zm-54 98.6c1.3 1.3.2 3.5-.4 5-.7 2-.9 4.1-.6 6.2.6 4.4 3 8.5 4.8 12.5 3.8 8.2 6.9 16.7 9.3 25.4s4 17.6 4.8 26.7c.8 8.9.7 18-.3 26.9-.3 2.3-.5 4.6-1 6.8s-1.4 4.1-2.3 6.2c-.8 1.8-1.5 3.9-.9 5.8.5 1.6 1.7 3.1 3.3 3.6.768.188 1.576.118 2.3-.2.6-.3.2-1.3-.5-1.1-1.6.5-3-.8-3.6-2.3-.7-1.9.1-4 .9-5.7.9-2 1.8-3.9 2.2-6.1.5-2.2.7-4.5 1-6.7 1-8.8 1.1-17.7.4-26.5-.7-8.9-2.3-17.7-4.6-26.3s-5.3-17-9-25c-1.8-4-4.2-7.9-5.3-12.3-.6-2.1-.7-4.3-.1-6.5.5-1.7 1.4-3.3 1.2-5.1-.1-.8-.5-1.3-1.1-1.8-.4-.4-.7.2-.5.5zm56.9-5c-.8 1.7 0 3.4 1 4.9.6.8 1.3 1.6 1.8 2.5.6.9 1 1.9 1.3 2.9.6 2.1.6 4.3.6 6.5l-.1 7.6c-.3 10.1-1.4 20.2-2 30.3-.6 10.2-.4 20.4-.1 30.6.1 4.5.2 9.1 2.3 13.2.5.9.8 1.6.4 2.6-.3.8-.8 1.5-1.2 2.2-.9 1.6-.9 3.2 0 4.8.7 1.3 2.1 2.6 2.1 4.1 0 .9-.6 1.7-1.1 2.5-.5.9-.8 1.9-.8 3 .2 2.2 1.5 4 2.7 5.8 1 1.5 1.9 3.4.9 5.1-.4.6-1 1.1-1.7 1.1-.9 0-.9 1.4 0 1.5 1.8.1 3.1-1.3 3.5-2.9.6-2-.3-3.9-1.3-5.5-1.1-1.7-2.9-3.7-2.5-5.9.2-1 .9-1.8 1.4-2.8.4-.8.6-1.7.4-2.6-.3-1.7-1.6-2.9-2.3-4.4-.3-.7-.5-1.4-.3-2.2.3-.8.8-1.5 1.2-2.3s.8-1.5.8-2.4c0-1.1-.6-1.9-1.1-2.9-1-2-1.5-4.3-1.7-6.6-.2-2.4-.2-4.8-.3-7.2l-.2-7.8c-.1-5.2-.1-10.4.1-15.5.4-10.3 1.5-20.5 2-30.8.3-5 .5-10.1.2-15.1-.1-2.1-.4-4.3-1.3-6.2s-2.5-3.2-3.5-5c-.5-.8-.7-1.7-.3-2.6.2-.7-.7-1.1-.9-.5zm28.8 11.5c.9 2.4 1.9 4.9 2.2 7.5.3 2.5-.1 4.9-.7 7.3-.5 2.3-1.1 4.7-1 7.2.1 2.3.9 4.3 2.2 6.2 1.3 1.8 2.8 3.3 4.2 5 1.5 1.8 2.6 3.9 3.5 6.1 1.8 4.6 2.4 9.5 2.6 14.3.2 5.4.1 10.9.5 16.3.4 5.2 1.3 10.4 2.3 15.6 2.1 10.4 4.7 20.8 5.7 31.4.5 5.4.7 10.9.5 16.4-.1 2.4-.5 5 .2 7.4.6 1.9 2.1 3.5 4.1 3.8.9.1 1.7-.2 2.4-.8.4-.3 0-1.2-.6-.9-1.8.8-3.8-.6-4.3-2.3-.8-2.3-.2-5-.2-7.3.2-5.3 0-10.7-.5-16-1-10.4-3.4-20.4-5.5-30.6-1-5.1-2-10.2-2.5-15.4-.5-5.3-.4-10.6-.6-15.8-.1-4.8-.6-9.7-2-14.3-.7-2.2-1.6-4.3-2.7-6.2s-2.6-3.5-4-5.2c-1.4-1.6-2.8-3.3-3.4-5.4-.7-2.3-.3-4.7.1-7 .5-2.3 1.1-4.6 1.1-7 0-2.5-.6-5-1.5-7.2-.5-1.1-.9-2.2-1.5-3.3 0-.5-.7-.2-.6.2zm59.5-4.8c2.4 3 1.8 7.2 1.1 10.7-.8 4.1-1.6 8.2.5 12 1 1.8 2.2 3.4 2.7 5.5.5 2 .5 4.2.5 6.2l.3 14.1.1 28-.5 28-.2 7.1-.2 6.5c.1 2 .3 4.1 1.2 5.9.8 1.7 2 3 3 4.5.5.7 1 1.6 1.2 2.4.2.6 1.1.5 1.1-.1-.1-1.9-1.2-3.3-2.3-4.8-1.2-1.6-2.1-3.2-2.5-5.2s-.3-4.2-.2-6.2c.1-2.3.2-4.7.2-7.1l.5-28.2-.1-28.3-.2-14.1c-.1-4.2.2-8.7-2-12.4-1-1.8-2.2-3.4-2.6-5.5s0-4.3.3-6.4c.3-1.9.7-3.8.7-5.7 0-1.7-.1-3.6-.8-5.2-.4-.8-.8-1.5-1.4-2.1-.1-.5-.7 0-.4.4zm-12.9 158.1c0-.6-.2-1.2-.4-1.8-.1-.6-.3-1.2-.5-1.8l-.9-3.7c-.1-.6-.3-1.2-.4-1.7-.1-.3-.2-.6-.2-.9 0-.2 0-.5-.1-.7-.4-.9-1.8-.3-1.3.5.1.2.3.2.5.2.2-.1.4-.4.2-.6v.4l-.4.2h.2l-.5-.3v.5c0 .2.1.4.2.6.1.5.2.9.4 1.4l.7 2.6c.2.8.5 1.8.8 2.6.1.5.3.9.5 1.4.1.4.3.9.5 1.3.1.4.7.2.7-.2zm-3.8-11.2c5.7-7 14.7-11 23.7-10.6 1.2 0 2.5.2 3.7.4 1 .2 2.7.3 3.2 1.3.2.4.8.2.8-.2.1-1.1-1-1.9-1.9-2.2-1.2-.4-2.4-.5-3.6-.6-2.4-.3-4.8-.2-7.2.2a30.9 30.9 0 0 0-13.4 5.4c-1.1.8-2.1 1.7-3.1 2.6-1 1-1.9 2.1-2.7 3.2-.7.3.1.9.5.5z"/><path d="M207.003 632c-.2-.2-.2-.3-.1-.5l-.1.2c.1 0 .2-.1.2-.2l-.2.2c.2-.1.3-.1.4-.2l-.8-.2c.3 1.3.8 2.6 1.4 3.8l.9 1.8c.3.6.7 1.2 1.3 1.6.3.2.7 0 .7-.4-.1-.7-.4-1.3-.8-1.9l-.9-1.7-1.7-3.6c-.2-.4-.8-.2-.9.1-.1.2 0 .6.2.8l-.1-.2c.1.3.2.5.5.7 0 0 .1-.2 0-.3zm-29.8 9.4c-.5-.1-.9 0-1.4.2-.6.2-1.1.3-1.7.4-1.2.2-2.3 0-3.5-.1-1.1-.2-2 .1-2.9.7-.5.3-.9.7-1.4.9-.3.1-.6.2-.8.2-.3 0-.5.1-.8.2-.5.1-.5.8 0 1 .3.1.4.2.8.2.3 0 .5-.1.8-.1.6-.1 1.1-.4 1.6-.7.4-.3.9-.7 1.3-.9.6-.3 1.3-.1 1.9 0 1.1.2 2.3.1 3.4-.1.6-.1 1.2-.3 1.8-.5.5-.2.9-.4 1.1-.9-.1-.3-.1-.4-.2-.5zm2.1 17c1.2-.6 1.9-2.2 2.7-3.3l2.7-4 2.5-3.3c1-1 2.1-1.8 3.4-2.4 2.7-1.3 5.7-2 8.6-2.5 2.7-.5 5.5-.9 8.3-.9 1.2 0 2.5.2 3.6.6.6.2 1.1.5 1.6.8a3.04 3.04 0 0 1 .7.5l.9.6c.4.3.9-.1.6-.5-.3-.5-.5-1-.9-1.4-.5-.4-1-.8-1.5-1-1.1-.5-2.2-.7-3.4-.9-2.8-.3-5.8.1-8.6.6-3.1.5-6.3 1.3-9.3 2.5-1.4.5-2.7 1.2-3.8 2.1s-2 2-2.8 3.2l-3 4.5-1.5 2.4c-.4.7-.9 1.5-1 2.3.1.1.2.1.2.1z"/><path d="M212.5 642.9c3.1 3.4 6 7 8.4 10.9.5.8 1.3 1.9.8 2.9-.3.6-1.1.7-1.7.7-1.7 0-3.4-.6-5.1-.9-7.1-.9-14.5 1.2-20.2 5.4-3.3 2.4-6 5.5-7.8 9.1h1.3c-1.2-1.5-2.3-3.1-3.3-4.8-.5-.8-1-1.6-1.5-2.5s-1-1.7-1.5-2.6c-.3-.6-1.1-.1-.9.5.4.9.7 1.8 1.2 2.7.4.8.9 1.7 1.4 2.5 1 1.7 2.1 3.3 3.2 4.8.3.4 1 .6 1.3 0 3.4-6.5 9.8-11.2 16.9-13.1 3.5-.9 7.3-1.1 10.8-.4 1.7.3 3.4 1 5.2.6 2.1-.5 2.7-2.6 1.9-4.4-.5-1.2-1.3-2.2-2-3.3s-1.5-2.1-2.3-3.2c-1.7-2.2-3.5-4.2-5.4-6-.4-.4-1.2.5-.7 1.1z"/><path d="M217.202 648.1c.2.4.2.6.5.9l.5-.5c-.3-.3-.6-.5-1-.7s-.8-.4-1.2-.5c-.9-.3-1.8-.4-2.6-.5-1.9-.2-3.7-.2-5.6-.1-2 .1-4 .2-5.8.8-1.7.6-3.3 1.5-4.7 2.5-1.6 1.2-3.3 2.5-4.5 4.1-.2.2 0 .6.3.4 1.8-1.1 3.3-2.7 5.1-3.8 1.9-1.2 4-2.1 6.2-2.4 2.3-.3 4.7-.4 6.9-.4 1.1 0 2.2.1 3.3.3l1.6.4.8.3c.3.1.5.1.8.2.4.1.7-.5.3-.7-.2-.1-.7-.3-.8-.4 0-.2-.2-.1-.1.1zm-149-27.6c.3-.2.7-.2 1-.4s.5-.4.8-.6l1.7-1.4c1.2-.9 2.4-1.7 3.7-2.5 2.6-1.5 5.5-2.6 8.5-3 2.872-.418 5.804-.073 8.5 1 2.7 1 5.1 2.6 7.4 4.3l3.6 2.7c1.1.9 2.2 2 2.3 3.5 0 .6 1 .6 1 0 0-2.9-2.3-4.8-4.4-6.4-2.5-1.9-5-3.7-7.8-5-2.9-1.3-5.9-1.9-9.1-1.7-3.2.3-6.2 1.3-9 2.8-1.5.8-3 1.8-4.4 2.9-.7.5-1.3 1-2 1.6l-1.1.9c-.3.3-.4.7-.6 1.1-.2.1-.2.2-.1.2z"/><path d="M105.601 623.1c-.1 0-.1.1-.2.1 0 .1-.1.1-.1.2-.1.1-.1.2-.1.3-.1.2-.1.5-.2.7l-.3 1.5c-.1.5-.1 1-.2 1.6 0 .5-.1 1.1.2 1.5.2.2.4.1.6 0 .4-.4.3-1 .4-1.5 0-.5.1-1 .1-1.5s.1-1 .2-1.5c0-.2.1-.5.1-.7.1-.3 0-.5-.2-.8l.1.2v-.1c.1-.1-.3-.2-.4 0zm-38.3-1.8v2.4c0 .8.1 1.6.3 2.3.1.1.2.2.3.2h.1c.1 0 .2-.1.2-.2.2-.8.1-1.6 0-2.4l-.3-2.4c0-.3-.5-.2-.6.1zm-2.399 8.8c1.1-.8 2.2-1.6 3.4-2.2s2.5-1.1 3.8-1.4c2.7-.8 5.4-1.2 8.2-1.7 1.6-.2 3.2-.5 4.8-.4s3.1.4 4.7.9l7.7 2.4c2.7 1.1 5.3 2.7 7.5 4.7.4.4 1.2-.1.8-.6-.8-1.2-1.7-2.1-2.9-3-1.1-.8-2.3-1.4-3.5-2-2.6-1.2-5.2-2-7.9-2.7-1.6-.5-3.2-.9-4.9-1.1s-3.3-.1-5 .1c-3 .4-6 1-8.9 1.9-1.5.5-3 1.1-4.4 1.8s-2.8 1.5-3.8 2.7c-.4.2 0 .9.4.6z"/><path d="M104.503 631.7c-.3.4-.1.9 0 1.3.1.6.1 1.2.1 1.8 0 1.2-.2 2.4-.4 3.5-.2 1.2-.5 2.4-.8 3.5-.2 1.1-.5 2.2-.3 3.4.1.3.6.4.8.1.5-1.1.6-2.3.9-3.5l.7-3.8c.2-1.2.3-2.4.2-3.6 0-.6-.1-1.1-.2-1.7-.1-.5-.2-1.1-.7-1.3-.1.2-.2.2-.3.3zm-40.7-.4l-.2-.1c0 .1 0 .2.1.3 0 .2 0 .4-.1.5l-.3 1.4c-.2.9-.3 1.8-.3 2.7-.1 1.6-.2 3.4.2 5 .2 1.2 1 2.5 2.3 2.6.8.1 1.6-.3 2.4-.5l2.7-.9c6.6-2 13.7-3.2 20.5-1.5 1.7.4 3.3 1 4.9 1.8a17.54 17.54 0 0 1 2.3 1.4c.4.2.7.5 1.1.8s.9.4 1.2.8c.5.4 1.2-.3.7-.7-.3-.3-.5-.6-.8-.9s-.7-.6-1.1-.9c-.7-.5-1.4-1-2.2-1.4-1.5-.8-3.1-1.5-4.7-1.9-3.5-1-7.1-1.3-10.7-1-4 .3-8 1.2-11.8 2.4-1 .3-2 .6-2.9 1-.7.2-1.7.7-2.3 0-.4-.6-.5-1.4-.6-2-.1-1-.1-2-.1-3.1.001-1.173.101-2.344.3-3.5.1-.6.6-1.9.1-2.5-.3-.4-1-.3-1.1.2-.1.3.1.7.5.5.2-.3 0-.5-.1-.5zm8.3.1l6.1-2c2.1-.5 4.2-.8 6.3-.6 2.1.1 4.1.7 6.1 1.4l3 1.3c.8.4 1.8 1.1 2.7 1.1.2 0 .4-.3.3-.4-.6-.8-1.8-1.2-2.6-1.6-1-.5-2-.9-3-1.3-2-.8-4.1-1.3-6.2-1.4-4.3-.3-9 1-12.6 3.3-.4-.1-.3.2-.1.2zm-9 13.4c-.5 1.7-.8 3.4-1.1 5.1l-.5 4.8c-.2 3.3-.1 6.7.4 10 .2 1.7.5 3.3.9 5 .3 1.4.7 2.9 1.4 4.2 1.3 2.4 3.6 3.9 6.2 4.8 2.7.9 5.6 1.3 8.4 1.7 3.3.5 6.7.7 10 .2 2.7-.5 5.4-1.6 7.5-3.4 2.2-1.8 3.5-4.4 4.2-7.1.8-3.3.9-6.7 1.4-10 .3-1.9.6-3.7 1.1-5.5s1.1-3.6 1.5-5.4c.1-.3-.4-.6-.6-.2-.8 1.3-1.3 2.9-1.7 4.3-.5 1.5-.9 3.1-1.3 4.6-.6 2.8-.9 5.7-1.3 8.6-.4 2.6-1 5.3-2.5 7.5s-3.9 3.7-6.4 4.5c-2.8.9-5.8 1-8.8.7s-6-.7-8.9-1.4c-2.4-.5-4.8-1.3-6.5-3.2-1.9-2.1-2.5-5.4-3-8.1-.7-3.5-.9-7.1-.9-10.7 0-1.8.2-3.6.4-5.4s.6-3.6.9-5.5c.1-.4-.7-.6-.8-.1z"/><path d="M68.4 642.3c-.1.2-.3.4-.4.6s-.2.5-.2.7c-.2.5-.3 1.1-.4 1.6-.3 1.1-.5 2.2-.7 3.2-.4 2.1-.6 4.2-.7 6.4l-.1 6.6c.1 1.9.1 3.9.6 5.8.4 1.6 1.2 3.1 2.9 3.5.3.1.5-.4.2-.5-1.3-.6-1.9-2.1-2.2-3.4-.4-1.8-.5-3.8-.5-5.6-.2-4.1.1-8.1.7-12.1l.6-3.4c.1-.6.2-1.2.4-1.7.1-.3.1-.5.2-.8 0-.3-.1-.5-.1-.8-.1-.1-.3-.2-.3-.1zm30.7 2.1c-.3.2-.4.5-.4.8l-.2 1.7-.4 3.4-.7 6.6c-.5 4.2-1.3 8.4-3.3 12.1a21.08 21.08 0 0 1-1.8 2.7c-.7.9-1.3 1.7-2 2.5-.2.2 0 .4.2.3.8-.5 1.5-1 2.2-1.7.6-.7 1.2-1.5 1.7-2.3 1-1.6 1.8-3.4 2.4-5.3 1.4-4.3 1.7-8.9 2.2-13.4.1-1.3.3-2.6.4-3.9l.2-2.1c0-.5.2-1.1-.2-1.4h-.3zm-38.8 21.3c-.5 3.2-.5 6.5-.3 9.7.2 3 .8 5.9 1.9 8.6 1 2.4 2.4 4.6 4.3 6.3 2.1 1.9 4.6 3.1 7.3 3.6 3.3.6 6.6.4 10 .2 3-.2 6.2-.4 9.1-1.4 2.5-.8 4.6-2.3 6.2-4.4 1.5-2 2.5-4.4 3.1-6.9.8-3.2.9-6.5.9-9.8 0-1.8 0-3.6.1-5.4.1-1.9.4-3.7.5-5.6 0-.3-.5-.5-.6-.2-.6 1.4-.8 2.9-.9 4.4a36.94 36.94 0 0 0-.3 4.7c-.1 2.9-.1 5.9-.5 8.8-.7 4.6-2.5 9.6-6.8 12-2.5 1.4-5.4 1.8-8.3 2-3.1.3-6.3.6-9.4.4-2.9-.1-5.7-.7-8.1-2.3-2-1.3-3.6-3.3-4.8-5.4-1.5-2.7-2.3-5.7-2.7-8.8-.4-3.5-.1-7.1-.4-10.6.1-.1-.3-.2-.3.1z"/><path d="M61.603 682.7c.2.6.3 1.1.6 1.6s.6 1 1 1.4c.8.9 1.8 1.6 2.8 2.1 2.4 1.2 5 1.6 7.6 1.6 3.4 0 6.7-.7 10.1-.6 3.2.1 6.4.9 9.5-.3 1.4-.5 2.7-1.2 3.8-2.2 1.1-.9 2.2-2.2 2.4-3.6.1-.4-.4-.7-.7-.4-.9.8-1.5 1.8-2.4 2.7s-1.9 1.5-3.1 2c-2.7 1.1-5.5.7-8.4.5-5.6-.4-11.5 1.7-17-.2-1.2-.4-2.4-1-3.4-1.8-.5-.4-.9-.8-1.3-1.3s-.8-1.1-1.1-1.7c0-.3-.5-.2-.4.2zm98.2-38.5c.2-.3.3-.7.6-1l-.9-.4c-.1.5-.2.9-.2 1.3s0 .9-.1 1.3l-.1 2.4-.4 5.2-.6 5.1c-.1.6-.2 1.3.2 1.8.3.4.9.5 1.4.3.3-.2.3-.7-.1-.8.1 0 .2.5.1.1 0-.1 0-.2-.1-.3v-.8l.3-2.3.4-4.5.3-4.4v-2.3-1.1c0-.4-.1-.8-.2-1.2-.1-.5-.7-.7-1-.3-.3.5-.6 1-.4 1.5.2.6.6.7.8.4zm-1.3 17.2c.8 3.1 2.6 6 5 8.1 2.6 2.3 5.6 3.7 9 4.4 1.9.4 3.9.6 5.6 1.4 1.5.7 2.7 1.7 3.8 2.9 2.1 2.4 3.3 5.6 4.1 8.7.5 2 .9 3.9 1.5 5.9.5 1.8 1.3 3.4 2.3 5 1.9 2.9 4.4 5.4 7.2 7.4 5.9 4.3 13.1 6.9 20.3 7.8 7.3 1 14.8.2 21.8-2.3.9-.3 1.7-.7 2.5-1.1.4-.2.1-.9-.3-.7-3.5 1.1-6.9 2.1-10.5 2.7-3.611.5-7.267.6-10.9.3-7.2-.6-14.3-2.8-20.3-6.7-2.8-1.8-5.5-4-7.5-6.8-1-1.3-1.8-2.8-2.4-4.4-.7-1.9-1.1-3.9-1.6-5.9-.7-3.2-1.7-6.4-3.6-9.2s-4.4-4.8-7.6-5.6c-1.8-.5-3.8-.6-5.6-1.1-1.6-.4-3.1-1-4.6-1.8-2.7-1.6-5-4.1-6.4-6.9-.4-.7-.6-1.5-.9-2.3-.2-.6-1.1-.4-.9.2zm2.1-3.8c1.6 3 4.4 5.5 7.2 7.4 3.1 2.1 6.7 3.3 10.1 4.8 3.2 1.5 6 3.4 8.2 6.1 2.1 2.5 3.6 5.5 4.6 8.6 1 3.4.9 7.2 2.9 10.3 1.9 2.9 5 4.9 7.9 6.6 6 3.5 12.7 5.8 19.6 6.6 6.7.8 13.8.1 19.9-2.9.8-.4 1.5-.8 2.3-1.2.5-.3.1-1-.5-.8-6 2.7-12.9 3.8-19.5 3.3-6.7-.4-13.3-2.4-19.2-5.6-2.9-1.6-6-3.4-8.2-5.9-2.4-2.8-2.3-6.5-3.2-9.9-1.6-6.3-5.6-12.1-11.3-15.3-3.3-1.9-6.9-2.8-10.3-4.5-3.1-1.5-6.1-3.6-8.4-6.2-.6-.6-1.2-1.2-1.7-1.9-.2-.1-.6.2-.4.5zm63.6 2c1.3 2.7 3.4 5 5.4 7.1l6.4 6.3c2.2 2.2 4.3 4.4 6 7 1.6 2.5 2.6 5.4 1.6 8.3-.8 2.5-2.9 4.6-5.1 5.9-2.8 1.6-6.1 2-9.3 1.8-3.5-.2-7-1.2-10.3-2.2s-6.6-2.2-9.5-4.1c-3.2-2.1-5.8-4.9-8.6-7.4l-4.5-4.2a97.68 97.68 0 0 0-4.7-4.4c-.083-.059-.184-.087-.286-.079a.43.43 0 0 0-.268.125c-.073.072-.117.167-.125.269s.02.202.079.285c2.6 3 5.6 5.6 8.2 8.6 2.4 2.6 5.1 5.2 7.9 7.3s6 3.6 9.4 4.7c3.5 1.2 7.2 2.2 10.8 2.7 3.4.4 7 .4 10.2-1 2.7-1.1 5.1-3 6.5-5.5 1.5-2.5 1.9-5.5.9-8.3-1.1-3.1-3.3-5.7-5.5-8.1-2.4-2.6-5.1-4.9-7.7-7.2-1.3-1.2-2.6-2.5-3.7-3.8-1.2-1.4-2.2-2.8-3.3-4.2-.2-.6-.7-.3-.5.1zm-29.8 8c1.7 3.2 4.2 6 6.5 8.7s4.9 5.3 7.5 7.8c2.5 2.3 5.1 4.7 8.5 5.6 1.7.5 3.4.6 5.1.8a35.38 35.38 0 0 0 4.6.3c3.3 0 6.8-.6 9.2-3.1.3-.3-.1-.7-.4-.4-2.3 1.8-5.3 2.5-8.2 2.6-1.5 0-3-.1-4.5-.2-1.7-.2-3.3-.3-5-.7-3.5-.8-6-3-8.6-5.3-2.5-2.3-4.9-4.7-7.1-7.2l-3.8-4.5-3.6-4.6c-.1-.2-.3 0-.2.2z"/><path d="M244.6 688.6c1 3.2 1.4 6.7 1.2 10.1-.1 1.7-.4 3.4-.8 5-.2.8-.4 1.6-.7 2.3-.3.8-.6 1.6-.8 2.5-.1.2.3.5.5.3 1.1-1.3 1.7-3.1 2.2-4.6.5-1.7.8-3.5 1-5.3.2-3.6-.3-7.2-1.6-10.6-.3-.5-1.2-.3-1 .3zM169 643.4c.6 2.3 1.9 4.5 3.6 6.2.8.9 1.8 1.6 2.7 2.3.5.3 1 .6 1.6.8.3.1.5.1.8.2s.6.2.9.1c.3 0 .4-.3.2-.5s-.4-.3-.6-.5c-.2-.1-.4-.3-.7-.4l-1.4-.9c-.9-.6-1.8-1.3-2.5-2.1-1.5-1.6-2.7-3.5-3.4-5.6-.3-.7-1.4-.4-1.2.4zm-61.4-40.5c.2-.4 0-.7-.2-1.1-.2-.5-.5-.9-.7-1.4l-1.4-2.8-2.5-6.2c-.7-2-1.3-4.1-1.8-6.2l-1.5-6.4c-.1-.3-.5-.2-.5.1-.1 2.2.4 4.4 1 6.5.5 2.2 1.2 4.3 1.9 6.4s1.6 4.1 2.5 6.1l1.5 3c.2.5.5.9.8 1.3.2.3.4.7.8.7h.1zm47.7-376.1c-1.1-.2-2.3-.1-3.5 0l-3.7.2-7.5.3c-4.9.1-9.8 0-14.8-.2-5-.3-9.9-.6-14.8-1.2-4.8-.6-9.7-1.5-14.6-1.1-2.3.2-4.6.6-6.7 1.5-1 .4-2.1.8-2.9 1.5-.9.7-1.7 1.5-2.5 2.4a.43.43 0 0 0 .045.555.43.43 0 0 0 .269.124c.102.009.203-.019.286-.079.8-.7 1.7-1.1 2.6-1.6s1.7-.9 2.6-1.3c1.8-.7 3.8-1.2 5.8-1.4 4.8-.5 9.5.3 14.2.9 9.7 1.2 19.4 1.6 29.1 1.3l8.1-.4 4.1-.3c1.3-.1 2.7-.3 3.9-.7.1-.4.1-.5 0-.5zm15.9 40.2c-2.5-1-5.1-1.7-7.6-2.5l-8-2.2c-5.2-1.4-10.6-2.5-15.9-3.3-5.3-.7-10.7-1-16.1-.6-5.1.3-10.2 1.1-15.3 1.3-2.8.1-5.6.2-8.4-.1-1.4-.1-2.8-.4-4.2-.7s-2.8-.6-4.1-1.1c-.5-.2-.9.6-.4.9 1.1.5 2.2 1 3.4 1.4s2.4.6 3.6.8c2.5.4 5 .5 7.5.4 5.1-.1 10.2-.8 15.3-1.3a85.52 85.52 0 0 1 16 0c5.4.5 10.8 1.5 16.1 2.8 3 .7 5.9 1.5 8.9 2.3s6 1.9 9 2.4c.3.1.6-.4.2-.5zm-86.8-39.4c-1.3-.1-2.5 0-3.8-.1l-3.9-.4-7.6-1.6-7.5-1.2c-2.6-.2-5.2-.1-7.8.4-5.3.9-10.2 3.1-15.2 5L23.1 236l-8.6 3.7c-1.4.6-2.8 1.2-4.2 1.9-1.4.6-3 1.2-4.2 2.2-.4.4.1 1 .5.9 1.3-.3 2.6-.9 3.8-1.5l3.8-1.7 7.7-3.3 15.4-6.3c4.9-2 9.9-4.2 15-5.4 2.5-.6 5.1-.9 7.7-.9 2.5.1 5.1.5 7.6 1 2.8.6 5.6 1.2 8.5 1.6 1.4.2 2.7.4 4.1.4s2.9 0 4.2-.3c.5-.1.4-.7 0-.7zM7 246.6c.2.8 1 1.4 1.7 1.8.8.4 1.7.8 2.6.9 2.2.3 4.4-.2 6.5-.8l14.1-4 3.9-1 4-.7c.5-.1.5-1 0-1-2.2-.4-4.5.4-6.6.9l-6.7 1.8-6.8 2c-2.1.7-4.2 1.6-6.4 1.8-1.1.1-2.2 0-3.2-.3-.5-.2-1-.4-1.4-.7s-.8-.6-1.3-.9c-.2-.2-.4 0-.4.2zm25.3-1.6c-3.5 1-6.7 2.5-9.5 4.8-1.5 1.2-2.8 2.6-4 4.1-1.2 1.4-2.4 2.8-3.5 4.4-1.2 1.7-2.1 3.6-2.6 5.6-.2.9 1.1 1.3 1.4.4.6-2.1 1.6-4.1 2.9-5.9 1.4-1.9 2.9-3.7 4.4-5.4 3-3.3 6.9-5.8 11.2-7 .6-.2.3-1.2-.3-1zm-17.5 21.3c.5-.2.9.1 1.4.3s.9.5 1.5.5c1 .1 2-.3 2.8-.9 1.9-1.4 2.4-3.8 3.7-5.6 2.4-3.5 6.5-5.3 10.3-6.8 1.2-.5 2.5-.9 3.8-1.4.7-.3 1.4-.5 2.1-.8s1.6-.5 2.2-.9c.5-.3.4-1.2-.3-1.2-.7.1-1.3.4-1.9.6-.7.2-1.3.5-2 .7-1.2.4-2.3.9-3.5 1.3-2 .8-4 1.6-5.9 2.6-1.8 1-3.5 2.3-4.9 3.8-.7.8-1.4 1.7-1.9 2.7-.6 1.1-1 2.2-1.8 3.2-.7.9-2 1.6-3.2 1.3-.8-.2-2.2-1.1-2.7 0-.2.4 0 .7.3.6zm12.4-8.1c-.6.7-.8 1.8-1 2.7l-.9 3.2-1.8 6.3c-.1.3.1.6.3.8 1.6 1.2 3.9 2.5 5.9 1.2 1.7-1.1 2.1-3.5 2.7-5.3.3-1.1.6-2.2 1.1-3.3s1.5-1.4 2.5-1.8c2.4-.9 4.8-1.5 7.3-2.2.7-.2.4-1.2-.3-1.1-2.4.4-4.6 1-6.9 1.8-.9.3-2 .6-2.8 1.3-.8.6-1.2 1.5-1.5 2.5l-1.1 3.4c-.3.9-.5 1.9-1 2.7-1.3 2.2-3.6.8-5.1-.3l.3.8 1.6-6.3.8-3.1c.2-.9.7-2 .5-3-.2-.4-.5-.5-.6-.3zm18.1 1.8c0 .2.1.2.2.3.5.2.8-.4.6-.8-.3-.6-1.2-.5-1.7-.2-1.4.7-1.9 2.7-2.5 4.1l-2.5 5.9c-.3.8-.8 1.7-.7 2.6.1.8.8 1.6 1.2 2.3 2 2.8 4.7 5.4 8.4 5.5.8 0 1.8-.1 2.5-.5.8-.4 1.1-1.1 1.2-2 .2-1.5.2-3.2-1.1-4.2-.6-.4-1.3-.6-1.9-1.1-.7-.5-.2-1.2.3-1.7.8-.7 1.8-1.1 2.6-1.6 1-.6 2-1.1 3-1.8.7-.5.1-1.5-.7-1.1-1.6.7-3.1 1.6-4.6 2.4-1.1.6-2.3 1.4-2.5 2.7-.3 1.3.6 2.2 1.7 2.7.4.2 1 .4 1.3.8.5.5.5 1.2.5 1.8 0 .5 0 1.5-.5 1.8-.6.4-1.5.3-2.2.3-1.4-.1-2.8-.7-4-1.6s-2.2-2.1-3-3.3c-.3-.5-1-1.2-1-1.8 0-.3.2-.7.3-1 .2-.5.4-.9.6-1.4.8-1.8 1.5-3.7 2.3-5.5.3-.7 1.1-3.7 2.4-3.2l-.2-.4v-.2l.3-.1h-.1c-.2 0-.3.2-.2.3zm12.8 6c.4.7 1.1.9 1.9 1l3.1.2c2.1 0 4.2-.1 6.3-.5 4.3-.7 8.5-2 12.5-3.5 1.2-.4 2.3-.9 3.5-1.4 1.1-.5 2.3-.9 3.4-1.5.6-.3.2-1.3-.5-1.1-1.9.5-3.8 1.5-5.7 2.2l-5.7 2.1c-3.9 1.2-7.9 2.2-11.9 2.4-1.1.1-2.2.1-3.3 0-.9 0-2.2.1-2.9-.7-.4-.2-1 .3-.7.8z"/><path d="M62.4 224.5c-.2-.5-.6-.9-.9-1.4s-.4-1.1-.4-1.6l-.9.7c3.91.603 7.849 1.003 11.8 1.2 1.8.1 3.7.2 5.5.8.7.2 1.3.6 1.9 1.1.3.2.6.5.8.8.2.2.7.7.6 1-.1.5.6 1.1 1 .6 1.2-1.4-1-3.5-2.1-4.2-1.7-1.1-3.7-1.4-5.6-1.5-4.5-.4-9.1-.6-13.6-1.2-.4 0-.7.4-.7.7 0 1.4.8 3.6 2.5 3.6.1-.1.2-.4.1-.6zm-40 38.9v-.2a.45.45 0 0 0 0 .5v-.3c-.1.1-.1.3 0 .5s.3.5.4.7.3.4.5.7c.4.5.7 1 1.3 1.3.4.2.9-.1.8-.6-.1-.6-.6-1.1-1-1.6-.2-.2-.3-.4-.5-.6l-.6-.6c-.1-.1-.3-.2-.5-.1h.3c-.1-.1-.3-.1-.4-.1l.2.1c-.3-.1-.6.1-.5.3zm9.3 7.4c-.2-.1-.5-.1-.8-.2-.5-.2-1.1.4-.6.8 1 .8 2.2 1.3 3.3 1.8.6.2 1.2.4 1.8.5s1.3.4 1.9.1c.5-.2.5-.7.1-1-.5-.3-1.1-.4-1.7-.5s-1.2-.3-1.7-.5l-3.2-1.3.1.9c.2-.1.5-.1.8-.2.2 0 .2-.4 0-.4zm20.4 3.1l.8.3c.3.1.7 0 1 0H56l4.1-.2 8-.4c5.4-.3 10.7-.5 16.1-.4s10.7.4 15.9 1.2c5.1.8 10.1 2 15.2 2.8 5.6.8 11.5 1.3 17-.2.9-.3.5-1.6-.4-1.4-5 1-10.1 1-15.1.3-5.1-.7-10.2-1.9-15.2-2.8-10.5-1.8-21.2-1.6-31.8-1l-9 .5-4.4.3c-.8 0-1.6.1-2.3.2-.4 0-.7.1-1.1.2-.3.1-.6.2-.8.4-.3 0-.2.2-.1.2zm82.2 4.2c1.4 1.2 2.7 2.3 4.2 3.2s3.1 1.7 4.8 2.4c3.4 1.4 7 2.4 10.7 3 4 .7 8 1 12.1 1.1 2 .1 4 .2 6 .2 1.9 0 3.3-.7 4.5-2.2 1.4-1.8 2.6-3.7 3.9-5.5.7-1 1.4-2 2.1-2.9.7-1 1.5-1.9 1.8-3 .2-.7-.6-1-1.1-.6-.8.6-1.3 1.5-1.8 2.3-.6.8-1.2 1.7-1.8 2.5-1.1 1.6-2.3 3.2-3.4 4.9-1 1.4-1.9 2.8-3.7 2.9s-3.8-.1-5.6-.1c-7.4-.3-14.8-.9-21.8-3.5-1.8-.6-3.6-1.4-5.2-2.4-1.7-.9-3.4-1.9-4.9-3.1-.6-.3-1.3.4-.8.8zm-1-50.7l.1-.3c.1-.1.1-.1.2-.1l.4.7c.2-.8.2-1.7.4-2.5l.7-2.8c.6-1.8 1.4-3.5 2.3-5.1.3-.6-.6-1.4-1-.8-1.3 1.6-2.1 3.5-2.8 5.4-.3.9-.5 1.9-.7 2.9-.1.9-.5 2.1-.1 3 .1.2.4.4.6.4.4 0 .8-.2.7-.7 0-.3-.3-.5-.6-.4-.1 0-.2.1-.2.3zm7-.4c-.2.2-.3.4-.5.6l.8.5.3-.8c.1-.2.2-.5.4-.7.3-.5.5-1 .9-1.5.6-1 1.4-1.8 2.1-2.8.3-.4-.3-1-.7-.7-1 .7-1.7 1.8-2.4 2.8-.3.5-.6 1-.8 1.6-.1.3-.3.6-.3.9-.1.3-.2.6-.2.9-.1.6.7.9.9.3.1-.3.1-.5.2-.8 0-.4-.5-.6-.7-.3zm-51-2c-.7-.2-.9-1.4-1.1-2l-.8-3.1-1.5-6.3c-.2-.6-1.2-.5-1.2.2.1 1.3.3 2.7.6 4l1 4.1.6 1.9c.2.6.3 1.1.7 1.6.3.3.6.7 1.1.6.093.003.185-.013.271-.048a.67.67 0 0 0 .23-.151c.066-.065.117-.144.151-.23s.05-.178.048-.271c.1-.2 0-.3-.1-.3zm11.9 51.1l-1.3 9.2-1 9.3c0 .6.9.7 1 .1.6-3 .9-6.1 1.3-9.2l1-9.3c0-.5-.9-.6-1-.1z"/><path d="M106.902 277.9c.1-.6.2-1.1.4-1.6l-1-.4c-.3 1.2-.2 2.6-.2 3.8l.1 4.1a51.75 51.75 0 0 0 .9 7.8c.1.5 1 .4 1-.1l-.6-7.8c-.1-1.3-.1-2.6-.1-3.9s.1-2.6-.1-3.8c-.1-.7-1.2-.4-1 .3.2.6.1 1.1.1 1.7 0 .2.4.2.5-.1zm-93.6-27.1h-.1l.2.2c-.1-.2-.2-.2-.3-.4-.1-.1-.1-.2-.1-.4l-.5.5c.3 0 .5-.2.7-.4l-1.1.1 2 2.5c.3.4.7.8 1 1.2.4.5.7.9 1.3 1.1.3.1.7-.2.7-.5s-.1-.6-.3-.9c-.2-.2-.4-.4-.5-.7l-1.1-1.2-2.1-2.4c-.3-.3-.9-.3-1.1.1-.1.2-.1.3-.1.4 0 .3.2.6.5.6l-.3-.3c0 .3.2.6.5.8s.6.3.9 0l-.2.1h.2c.1 0 0-.4-.2-.4zm-5.9-7.6v.1l.1-.4.4.2c-.2-.2-.3-.5-.4-.8s-.3-.6-.4-.9c-.3-.5-.5-1-.8-1.5l-1.6-3.2-3.1-6.5-.3 1.1 4.6-3.5c.1-.1.4-.4.5-.4 0-.1 0-.1 0 0 .1 0 .1.1.2.2.3.3.5.6.7.9.5.6 1.1 1.2 1.7 1.8 2.3 2.3 5 4.4 8.1 5.5.7.2 1-.7.4-1.1l-4.4-3a33.25 33.25 0 0 1-3.9-3.6c-.6-.6-1-1.4-1.7-1.9-.8-.6-1.6-.5-2.3.1l-4.9 3.8c-.3.2-.3.7-.1 1l4.3 8.5 1.1 2c.4.7.7 1.4 1.2 2 .3.4.9.6 1.3.2.065-.069.114-.152.144-.242a.67.67 0 0 0 .032-.28c-.009-.095-.039-.186-.086-.269a.68.68 0 0 0-.189-.209c-.4-.2-.6.1-.6.4zm21.1-10.2c.5-.2.7-.7 1-1.2s.5-1 .7-1.6c.4-1 .8-2.1 1-3.2.3-1.1.4-2.2.6-3.3.1-.6.1-1.2.1-1.8s.2-1.2.2-1.7-.8-1-1.2-.5c-.7.9-.5 2-.6 3.1l-.4 3.5c-.2 1.1-.5 2.2-.9 3.2l-.6 1.6c-.2.5-.5 1-.5 1.6.1.3.3.5.6.3z"/><path d="M31.901 220.5c0-1.1-1.5-.9-1.6.1 0 .2.2.5.4.5.9.2 1.8.1 2.7 0l2.8-.1 5.5-.3 5.5-.2h2.7 1.5c.2 0 .5.1.7 0h.1c.1.1.1 0 0-.1-.2.5.5 1.1 1 .8.8-.5.7-1.6 0-2.1s-1.9-.4-2.8-.4l-6.7.1-6.6.4-3.2.2c-1.1.1-2.3.1-3.3.4l.5.1.2.3c.2.5.6.5.6.3zm4.8 4.2l.1.2c-.1-.3-.3-.3-.6-.4-.2 0-.4 0-.5.1-.3.1-.6.3-.9.6-.5.6-.7 1.3-.4 2s.9 1.2 1.6 1.4 1.5-.1 2-.6c.3-.3.5-.6.6-1s.1-.9-.1-1.3c-.1-.2-.5-.4-.7-.3-.3.1-.5.3-.5.6v.3.2c0 .1 0-.1 0-.1v.1.1.1c0 .1 0 0 0-.1-.1.1-.1.2-.2.3.1-.1-.1.1 0 0l-.1.1s-.1 0-.1.1l-.1.1h-.1c-.1 0 .1 0 .1 0h-.1-.1c-.1 0 .1 0 .1 0h-.2-.2-.1c-.1 0-.1-.1-.2-.1h-.1l-.1-.1-.1-.1s0-.1-.1-.1l-.1-.1c0 .1 0-.1 0 0v-.1-.2c0-.1 0 .1 0 .1v-.1-.1-.2-.1c0-.1-.1.1 0 0 0-.1.1-.1.1-.2s.1-.1.1-.2c0 0 0-.1.1-.1l.1-.1c.1-.1.2-.1.1-.1.1-.1.2-.1.3-.2h.1c.2-.1.3-.2.3-.3l-.1.2h.1c.1 0 .2-.2.2-.3 0 .2-.1.1-.2 0zm20.5 270.5l2.4-.1 2.3-.3a28.27 28.27 0 0 1 4.1-.3c1.3 0 2.6.2 3.8.7 1.1.4 2.4 1.2 2.7 2.5.2 1.2-.5 2.4-1.1 3.4-.8 1.2-1.8 2.3-2.7 3.4-1.7 2.1-2.8 4.5-3.2 7.1-.5 3 0 6 1.3 8.8.3.6 1.1.1.9-.5-1.2-2.6-1.5-5.6-.9-8.4.3-1.4.7-2.8 1.4-4 .7-1.3 1.6-2.3 2.5-3.4 1.5-1.8 3.6-4.3 2.8-6.9-.8-2.5-4.1-3.3-6.4-3.5-1.6-.1-3.2 0-4.7.2l-2.3.4c-1 .2-2 .5-2.9.8-.2-.1-.1.1 0 .1zm76.1 4.7l1.6 2.1c.6.7 1.3 1.4 1.9 2 1.3 1.3 2.7 2.5 4.1 3.7 2.8 2.3 5.9 4.4 9.1 6.2 1.8 1 3.7 2 5.6 2.6.4.1.7-.5.3-.8-3.1-1.8-6.3-3.3-9.3-5.3s-5.8-4.2-8.4-6.6c-.7-.7-1.4-1.4-2.2-2.1-.7-.7-1.6-1.4-2.3-2.2-.2-.1-.6.1-.4.4zm59 11.9c-3.1 5.9-5.8 12.1-7.3 18.6-.1.4.5.6.6.2 2.3-6.2 4.5-12.4 7.6-18.3.2-.6-.7-1.1-.9-.5zm-52.4 1.4l1.2 2 1.2 2 2.2 4c1.4 2.8 2.4 5.7 3.6 8.6.1.4.7.2.6-.2-.6-3.1-1.9-6.1-3.3-8.9l-2.3-4.1c-.4-.7-.9-1.4-1.3-2l-1.5-1.8c-.2-.1-.5.2-.4.4zm-30.3-144.7c0-.2-.1-.4-.2-.6s-.3-.4-.5-.5l-1.2-1.1-2.5-2.2-2.4-2.2c-.4-.3-.8-.7-1.2-1s-.8-.8-1.3-.9a.49.49 0 0 0-.197.029c-.062.024-.119.06-.167.108s-.084.104-.108.167-.033.129-.029.196c.1.5.6.8 1 1.1l1.2 1.1 2.5 2.2 2.5 2.1c.4.4.9.7 1.3 1.1.2.2.4.4.6.5s.4.1.6.1c.1-.1.1-.2.1-.2zm4.3 3c.1 0 .1-.1 0-.1s0 .1 0 .1z"/><path d="M113.803 371.7c-.1-.4-.4-.5-.7-.5-.2 0-.4 0-.5.1-.1 0-.4.3-.3.3-.2 0-.3.2-.3.4-.1 1 1.4 1.3 2.1.7.2-.2.3-.4.5-.6.3-.3.7-.6 1-.9l2.3-1.9 4.3-3.7c.8-.6 1.5-1.3 2.2-1.9s1.5-1.1 2-1.9c.1-.2-.1-.6-.4-.5-.7.3-1.3.9-2 1.4l-2.1 1.7-4.2 3.6-4.1 3.5c-.1.1-.2.4-.4.4-.2.1-.3-.1-.4-.2l-.2-.2c-.1-.1-.1-.1 0 0s.2.1.2-.1c.3-.1.6-.2.9.1 0 .3.1.3.1.2zM57.103 19c-.9-.6-2.3.2-3.2.6-1.1.5-2.1 1.2-3.1 1.9-2 1.5-3.6 3.5-4.9 5.7-2.6 4.5-4.1 10-4.2 15.2 0 1.5.1 3.1.4 4.6.1.7.4 1.4.6 2.1.2.8.5 1.4.9 2.1.2.3.7.1.6-.3-.1-.6-.3-1.2-.5-1.8s-.3-1.2-.3-1.8c-.2-1.3-.3-2.6-.3-3.9 0-2.6.4-5.1 1-7.6 1.2-4.7 3.2-9.2 6.8-12.5.9-.8 1.9-1.6 3-2.2l1.8-.9c.6-.2 1.1-.3 1.4-.9.2 0 .1-.2 0-.3z"/><path d="M47.403 47.4c-1.6.2-2.9 1.9-3.7 3.1-.9 1.5-1.5 3.3-1.7 5-.5 4.4 1.2 8.8 2.7 12.9.4 1.2.9 2.5 1.4 3.7.5 1.3.9 2.6 1.6 3.7.2.4.8.1.7-.3-.4-2.2-1.3-4.3-2-6.3s-1.5-4-2.1-6.1c-1.1-3.5-1.6-7.5-.1-10.9.4-.8.8-1.6 1.4-2.3s1.4-1.2 2-1.9c.3-.2.2-.7-.2-.6zm-3.7 25.2c-2-.2-2.2 3.4-2.1 4.7.2 2.2 1.3 4 3.4 4.8 4.1 1.6 9.9-.3 10.4-5.1.1-1.1-.1-2.3-.8-3.2-.4-.5-1.2-.8-1.6-.1-.2.4 0 1 .5 1.1.2 0 .4 0 .6-.2.3-.4-.2-.8-.6-.7h-.1l.5.1.1.3-.4.4h.1l-.5-.1c.5.2.7 1.2.7 1.7.1.7-.1 1.4-.4 2.1-.6 1.4-1.9 2.3-3.3 2.7a7.87 7.87 0 0 1-4.8 0c-1.5-.5-2.5-1.6-2.9-3.2-.2-.8-.2-1.7-.1-2.6.1-.8.3-1.9 1.2-2.2.3-.2.3-.5.1-.5zm12-46.7c.7-1.4 1.1-3 1.5-4.5.5-1.6 1.1-3.1 1.8-4.6 1.4-2.9 3.4-5.5 6.3-7s6.3-1.8 9.5-1.1c1.6.4 3.1 1 4.5 1.9 1.5 1 2.8 2.2 4.2 3.4 1.6 1.3 3.3 2.4 5.3 2.9 2.1.5 4 .2 6-.5.6-.2.3-1.1-.3-.9-1.8.5-3.9.4-5.7-.2-1.8-.5-3.3-1.6-4.7-2.8s-2.7-2.5-4.3-3.5c-1.4-.9-3-1.5-4.6-1.9-3.3-.8-6.9-.5-10 1-3 1.4-5.2 4-6.7 6.9-.9 1.7-1.5 3.4-2.1 5.2s-1.2 3.6-1.2 5.5c.1.3.4.4.5.2zm20-18.8c1.3-.1 2.5-1.1 3.6-1.7 1.2-.6 2.4-1.2 3.7-1.6 2.6-1 5.3-1.5 8.1-1.6 2.7 0 5.4.5 7.8 1.6 2.4 1.2 4.501 2.9 6.501 4.8l3.3 3.2c1.1 1.1 2.3 2.1 3.6 2.9.5.3 1-.4.6-.8l-6.1-6.1c-2-2-4.2-3.9-6.7-5.2-5.1-2.7-11.1-2.6-16.4-.8-1.5.5-3 1.2-4.4 1.9-.7.4-1.4.8-2.1 1.3-.6.4-1.3.9-1.6 1.6-.2.3-.1.5.1.5z"/><path d="M103.003 20.8c1.3-1.2 2.6-2.4 4.1-3.2s3.2-1.4 5-1.6c3.4-.4 6.9.6 9.6 2.7 2.8 2.2 4.5 5.3 5 8.8.6 3.9.4 8 2.5 11.6 1.2 2 2.7 3.8 3.5 5.9s.9 4.5 1.4 6.7c.1.4.6.3.7 0 .7-2 .3-4.3-.3-6.3-.7-2.1-1.8-3.9-3.1-5.7-.6-.9-1.2-1.8-1.6-2.9-.4-1-.6-2-.8-3-.4-2.1-.4-4.3-.7-6.4-.6-3.8-2.3-7.1-5.2-9.6-2.8-2.4-6.5-3.6-10.2-3.4-2.1.1-4.1.7-6 1.7-1.8 1-3.6 2.3-4.6 4.1-.2.5.3.9.7.6z"/><path d="M131.401 54.9c.3.1.5.3.5.6l.2-.2c-.3 0-.6-.1-.9-.2l.3.4c.2-.8.3-1.4.9-2 .6-.5 1.4-.8 2.2-.6 1.6.3 2.8 1.8 3.1 3.3s0 3.2-.9 4.4c-.9 1.1-2.1 1.7-3.5 2-.8.2-1.5.3-2.3.3h-1.2c-.5 0-.8 0-1.3.1s-.7.6-.3.9c1.6 1 3.8.9 5.6.4s3.5-1.5 4.5-3c1.2-1.7 1.4-4 .6-5.9-.7-1.9-2.4-3.5-4.4-3.6-1.1-.1-2.1.3-2.8 1.1-.7.7-1.2 1.8-.8 2.7a.76.76 0 0 0 .4.2c.3-.1.6-.1.9-.2.1 0 .2-.1.1-.2-.2-.4-.5-.6-.9-.5-.1-.1-.1-.1 0 0z"/><path d="M134.001 63.9c-.1.6.6 1.2.8 1.7.3.7.5 1.5.5 2.3 0 .7-.1 1.5-.5 2.1-.4.8-1 1.5-1.3 2.3s-.4 1.6-.1 2.4 1 1.4 1.5 2c1.2 1.3 1 3.1.4 4.7-.4 1-.9 1.8-1.4 2.7-.3.5-.5 1-.7 1.4-.1.2-.2.5-.3.8s-.1.6-.2.8c-.2.6.8.9 1 .3.1-.2.3-.5.4-.7s.2-.4.4-.7l.8-1.4c.5-.9 1.1-1.7 1.5-2.7.7-1.7 1-3.7 0-5.4-.4-.8-1.2-1.3-1.8-2.1s-.2-1.6.2-2.3c.5-.8 1-1.6 1.2-2.5.2-.8.2-1.6.1-2.5s-.5-1.9-1.1-2.6c-.3-.3-.6-.7-1-.9.1 0-.4 0-.4.3zm-37.4-6.4c-.2 1.5 1.2 2.7 2.3 3.4 1.3.8 2.9 1.3 4.4 1.8 1.8.5 3.7 1 5.6.7 1.8-.2 3.3-1 4.5-2.3 1.1-1.2 1.9-2.7 2.6-4.2.8-1.8 1.6-3.6 2-5.6.3-1.9.2-3.7-.6-5.4-.7-1.5-1.9-2.8-3.1-4-1.3-1.4-2.7-2.6-3.7-4.3-.4-.8-.8-1.7-.9-2.6-.1-1 .2-1.8.6-2.6.2-.4-.3-.8-.6-.5-2.3 2.3-.9 6.1.8 8.3 1.9 2.4 4.9 4.3 5.8 7.4.5 1.8.2 3.7-.3 5.4s-1.3 3.3-2.1 4.9c-.7 1.3-1.6 2.6-2.9 3.4-1.5.9-3.4.9-5.1.6-1.8-.3-3.6-.8-5.3-1.5-.7-.3-1.5-.8-2.1-1.3s-1-1.1-1.6-1.5c-.1-.3-.3-.3-.3-.1z"/><path d="M115.804 55.7c-.1.6-.2 1-.1 1.6.1.5.2 1.1.4 1.6.4 1.1 1 2 1.8 2.9 1.6 1.7 3.7 2.7 6 2.9l-.4-1.4c-1.4.6-2.3 2-2.5 3.5-.3 1.6.1 3.2 1 4.7 1 1.6 2.4 2.8 3.7 4.1.8.7.9 1.5.7 2.5-.2.9-.4 1.8-.2 2.7s.7 1.6 1.6 1.8c.8.2 1.6-.1 2-.8.3-.5-.4-1-.8-.6-.5.6-1.2-.4-1.3-.9-.1-1 .3-1.9.4-2.9.2-2.2-1.6-3.3-2.9-4.6-1.2-1.2-2.5-2.7-2.7-4.5-.1-1.5.4-3.1 1.8-3.7.7-.3.3-1.4-.4-1.4-1.9-.1-3.7-1-5-2.4-.6-.7-1.2-1.5-1.5-2.3-.2-.4-.4-.9-.5-1.4s-.3-.9-.4-1.4c-.1-.3-.6-.3-.7 0zm-37.2-34.9c.2-.6-.7-.4-.9-.1-.5.7.1 1.8.6 2.4 1.3 1.7 3.5 2.4 5.5 2.6 2.7.3 5.6-.1 7.9 1.5 1.9 1.3 3.1 3.6 3.9 5.7 2.2 5.2 4 10.9 3.3 16.6-.5 4.6-3 9.1-7.1 11.5-2.1 1.2-4.6 1.8-6.9 1.2-1.2-.3-2.4-.9-3.2-1.7-.9-.8-1.4-1.9-1.7-3.1-.1-.5-1.1-.6-1.2 0-.3 2.3 1.3 4.3 3.2 5.4 2 1.2 4.4 1.5 6.7 1.1 4.5-.8 8.3-4.3 10.3-8.4 2.4-5 2-10.8.5-16-.7-2.7-1.7-5.3-2.9-7.8-1-2.1-2.3-4.1-4.3-5.4-2.7-1.7-5.8-1.3-8.8-1.6-1.2-.1-2.4-.5-3.4-1.1-.5-.3-1-.7-1.4-1.2-.2-.2-.3-.4-.4-.7-.1-.2-.1-.3-.1-.5 0-.1.2-.3.2-.3s.1 0 .2-.1z"/><path d="M82.3 61.8c-1.8-.7-3.8 1.1-4.1 2.8-.1.9.1 1.9.7 2.6.3.4.7.7 1.1.9s.9.4 1.3.2c.2-.1.3-.3.1-.5s-.6-.4-.8-.6-.4-.4-.6-.7c-.3-.5-.6-1.1-.5-1.7s.5-1.2 1-1.6 1.2-.6 1.9-.7c.2 0 .3-.2.3-.4-.1 0-.2-.2-.4-.3zm-8.4-17c1.4 2.2 1 5.1.1 7.4-1 2.5-2.8 4.7-4 7.1-1.2 2.3-1.8 4.8-1.3 7.5.5 2.5 2.1 4.8 4.4 6 1.3.7 2.7 1.1 4.1 1.1 1.7 0 3.3-.7 4.9-1.1.6-.2.4-.9-.1-1-1.5-.1-2.8.5-4.2.6-1.2.1-2.5-.1-3.6-.7-2.2-1.1-3.7-3.2-4.1-5.6-.5-2.6.6-5.1 1.8-7.4 1.2-2.2 2.6-4.3 3.4-6.7.8-2.5.9-5.2-.8-7.4-.3-.3-.8-.1-.6.2z"/><path d="M61 43.7c-.4.4-.4 1.1-.5 1.6l-.4 2.3c-.3 1.4-.9 2.7-1.5 4-1.1 2.4-2.1 4.7-2.3 7.3-.4 4.7 1.8 9.3 6.3 11.1 2.2.9 4.8.9 6.7-.6.4-.3.2-1.1-.4-.9-3.6 1.5-7.9.1-10-3.3-1.2-1.9-1.5-4.2-1.4-6.5.1-2.5 1.1-4.7 2.1-6.9.6-1.3 1.1-2.7 1.4-4.1.2-.7.3-1.4.3-2.1.1-.6.2-1.4-.2-1.9.1-.1 0-.1-.1 0z"/><path d="M49.603 63.5c-.7 1.6-.2 3.6.7 5 1 1.7 2.5 2.9 4.2 3.9.9.5 1.8.8 2.7 1.2.9.3 2 .8 3 .6 1.5-.3 2-1.9 3.2-2.6.4-.2.3-.9-.1-1-.7-.1-1.2.1-1.8.6l-1.2 1.3c-.7.5-1.5.1-2.2-.1l-2.5-.9c-1.6-.7-3.1-1.6-4.2-3-.5-.7-.9-1.5-1.1-2.3-.2-.9-.2-1.6-.2-2.5.1-.3-.4-.5-.5-.2zm3.2-32.8c-1.6 1-2.3 3-2.1 4.8.3 2.2 1.9 3.6 3.9 4.1 4.9 1.3 10.3-.2 14.1-3.6 3.7-3.3 5.5-8.8 4.6-13.6-.5-2.3-2.4-3.7-4.7-3.8-2.4-.1-4.5 1.4-6 3.2-.9 1.1-1.8 2.3-2.5 3.6-.6 1.1-1.1 2.5-.6 3.8.5 1.2 1.6 1.8 2.9 1.8s2.5-.6 3.6-1.2c.6-.3.1-1.2-.5-.9-1.2.5-4.2 1.6-4.7-.4-.2-1 .3-2 .8-2.8.6-.9 1.2-1.8 1.9-2.6 1.2-1.5 2.7-2.8 4.7-2.9.8 0 1.6.1 2.3.6.8.5 1.1 1.4 1.3 2.3.7 4-.7 8.4-3.4 11.4-2.8 3.2-7.1 4.9-11.3 4.6-2.1-.1-4.6-.7-5.3-2.9-.6-1.7-.1-3.7 1.4-4.8.3-.4-.1-.9-.4-.7zm30.2.3c0 .3.1.4.3.5l1.2.9c.8.6 1.5 1.1 2.2 1.8 1.3 1.3 2.4 2.7 3.3 4.4 1.8 3.4 2.4 7.6 1.3 11.3-.3 1.1-.8 2.3-1.5 3.2-.5.7-1.8 1.7-2.4.5-.1-.3-.6-.2-.6.2.1 1 .9 1.5 1.8 1.6 1.1 0 2-.9 2.6-1.8 1.4-2.1 2-4.7 2-7.3 0-4.5-2-9-5.1-12.2-.8-.9-1.8-1.6-2.8-2.3-.1-.1-2.3-1.3-2.3-.8zm32.9-7.7c3.1.9 6.2 3.5 7.1 6.6.5 1.9.2 3.9.4 5.8.2 1.7.8 3.4 1.7 5 .5.9 1.1 1.7 1.7 2.4.6.6 1.5 1.5 2.4 1.7.3.1.5-.2.3-.4-.2-.4-.5-.6-.8-.9s-.6-.7-.9-1c-.6-.7-1.1-1.4-1.6-2.2-.9-1.6-1.6-3.4-1.7-5.3-.2-2 .1-3.9-.6-5.8-.6-1.6-1.6-2.9-2.8-4-1.5-1.3-3.1-2-5-2.5-.4-.2-.6.4-.2.6zm-65.3 58.4c-.9 2.1.1 4.6 1.9 6 .4.3.9.6 1.5.7.5.2 1.1.3 1.6.5 1 .6.5 2 .4 2.9-.1 1.1.1 2.1 1.1 2.7.8.5 2.4.3 2.3 1.6l-.4 1.9c-.1.7-.1 1.3.1 1.9.2 1.1.9 2.1 1.8 2.7 1 .7 2.4.6 3.4 0 .5-.3.9-.7 1.1-1.2.3-.6.2-1.1.1-1.7s-1.1-.4-1 .3c.1.3-.3.8-.5 1-.3.3-.7.5-1.1.6-.9.2-1.7-.3-2.1-1.1-.5-.9-.5-1.9-.3-2.8.2-1 .6-2.3-.2-3.2-.6-.8-1.6-.8-2.5-1.2s-.5-1.5-.4-2.3c.1-.9.2-1.9-.4-2.7s-1.7-1-2.6-1.3c-2.2-.6-3.5-3-2.9-5.3.2-.4-.7-.6-.9 0zm-1.4 92.5c-.7 1-1.1 2.2-1.6 3.3l-1.4 3.2-1.3 3.1c-.5 1.1-1 2.3-1.2 3.5-.1.3.3.5.5.2.7-1 1.2-2.2 1.6-3.3l1.4-3.2 1.4-3.2c.5-1.1 1.1-2.2 1.3-3.3 0-.5-.5-.6-.7-.3zm120.5 9.3c-.1.6.2 1.1.5 1.6l.8 1.8 1.9 3.5 2 3.3c.7 1.1 1.4 2.2 2.3 3.2.3.4.9-.1.7-.5-.6-1.1-1.5-2.1-2.2-3.2l-2-3.3-1.8-3.3-.8-1.7c-.3-.5-.4-1.1-.9-1.5-.3-.3-.5-.1-.5.1zm-44.1-76.7c-.7 1.2-1.1 2.6-1.8 3.8-.7 1.3-1.6 2.4-2.7 3.4s-2.3 1.8-3.6 2.4c-.7.3-1.4.7-2.1 1.1-.6.3-1.4.8-1.6 1.4-.1.2.1.5.4.5.4 0 .6-.2.9-.4l1.2-.6c.8-.3 1.5-.7 2.2-1 1.333-.716 2.575-1.589 3.7-2.6 1-1 1.9-2.2 2.7-3.5.7-1.2 1.4-2.8 1.3-4.2.1-.4-.4-.6-.6-.3zM75.002 81.2c-.2-1.1-1.7-1.9-2.5-2.3-1.3-.6-2.6-.8-4-.7s-2.6.7-3.7 1.4c-.6.4-1.1.8-1.8 1-.3.1-.6.1-.9.1-.2 0-.7.1-.8 0-.5-.2-.9.6-.4.9.2.1.3.3.6.4s.6.1.8.1c.6 0 1.2-.2 1.8-.4 1.2-.5 2.1-1.5 3.4-2 1.3-.4 2.7-.5 4-.2.6.2 1.2.4 1.8.8.5.3.9.9 1.4 1.1.1.3.4.1.3-.2z"/><path d="M67.202 79.6c-1.1 0-1.7 1-1.8 1.9-.1 1 .5 2 1.4 2.5 1.1.6 2.5.5 3.3-.4.4-.4.7-1 .7-1.6s-.3-1.2-.6-1.7a5.09 5.09 0 0 0-1.6-1.3c-.3-.1-.6-.2-1-.1s-.7.5-.7.9a.54.54 0 0 0 .321.491.54.54 0 0 0 .579-.091c-.1.1-.1.1-.2.1h-.1c.1.1.3.1.4 0 .1 0-.2 0 0 0h.1.1c-.1 0-.1 0 0 0s.2.1.2.2c0 0 .2.1.1 0l.1.1c.2.1.3.3.5.5.1.1-.1-.1 0 0 0 0 0 .1.1.1.1.1.1.2.2.3v.1.1.3c0 .2 0-.2 0 0v.1s0 .1-.1.1c0 0 0 .1-.1.1 0 .1-.1.1 0 0l-.2.2-.1.1c-.1.1-.2.1-.2.1.1 0-.1.1 0 0-.1 0-.1 0-.2.1h-.2c.1 0-.2 0 0 0h-.3c.1 0-.1 0 0 0h-.1-.1s-.2-.1-.1 0c-.1 0-.2-.1-.3-.2l-.1-.1-.2-.2-.1-.1c0-.1 0-.1 0 0v-.1c0-.1-.1-.1-.1-.2 0 0 0-.1-.1-.1 0 .1-.1-.1 0 0 0-.1-.1-.1-.1-.2v-.1c0-.1 0 .1 0-.1v-.2-.1c0-.1 0-.2.1-.3 0-.1-.1.1 0 0 0 0 0-.1.1-.1 0 0 0-.1.1-.1l.1-.1.2-.2c.1-.1.3-.2.4-.3.1 0 0-.4-.4-.4zm11.2 17.8c.3.8 1.2 1.6 1.9 2.1.8.6 1.7 1.3 2.8 1.5.9.2 1.8 0 2.5-.7.8-.6 1.2-1.3 2.2-1.6 1.8-.5 3.7-.2 5.1-1.6.7-.6 1-1.5.9-2.4-.1-1-.6-2.1-1.4-2.6-.4-.3-.8.2-.7.6.1.8.8 1.5.8 2.4 0 .7-.5 1.2-1.1 1.5-1.4.7-3 .4-4.4 1-.7.3-1.2.7-1.7 1.3s-1 1.1-1.9 1c-.8-.2-1.7-.7-2.4-1.2-.4-.3-.7-.5-1.1-.7-.4-.3-.7-.6-1.1-.8-.2-.1-.4 0-.4.2zm.3-16.9c0 1.1.4 2.3.6 3.4l.5 3.4.3 3.3c0 1-.2 2.3.3 3.2.1.2.4.2.5 0 .5-.9.3-2.2.2-3.2l-.3-3.6c-.103-1.148-.303-2.286-.6-3.4-.2-1.1-.5-2.3-1-3.2-.3-.1-.5-.1-.5.1z"/><path d="M73.701 82.2c-.6.4-1.1.9-1.8 1.3s-1.5.7-2.3.8c-1.7.3-3.3 0-5-.4-.6-.2-1.1.8-.4 1.1 1.7.9 3.9.8 5.7.4.9-.2 1.7-.5 2.4-1 .7-.4 1.5-.9 1.9-1.7.2-.3-.2-.8-.5-.5zm13.1-2.8c.6-.6 1-1.3 1.5-1.9.5-.5 1.1-.9 1.8-1.3 1.4-.7 2.9-1 4.4-1.2l5-.4 2.4-.3c.7-.1 1.8-.2 2.1-1 .1-.2-.1-.5-.2-.6-.4-.3-.7-.2-1.1-.1l-1.3.3c-.9.2-1.8.3-2.7.3-1.7.2-3.5.3-5.1.7-2.9.7-6.2 2-7.2 5.1-.2.4.2.7.4.4zm3.1.4c.4.4 1 .5 1.6.6l1.8.3c1.1.1 2.2 0 3.2-.4.9-.3 1.8-.8 2.5-1.5.4-.3.7-.7.9-1.1.3-.4.6-.8.6-1.3 0-.3-.4-.7-.8-.4-.3.2-.5.6-.7.9s-.5.6-.8.9c-.6.6-1.4 1-2.2 1.3-.9.3-1.8.4-2.8.4-.6 0-1.2-.1-1.7-.1-.5-.1-1-.2-1.5-.1-.2.1-.3.3-.1.5z"/><path d="M92.601 74.1c-1.3.1-2.1 1.4-2 2.6s.8 2.2 1.7 2.8c1.2.7 2.8.8 3.8-.3.9-1.1 1.1-2.5.5-3.8-.3-.7-.9-1.3-1.7-1.6-.4-.2-.9-.2-1.3-.1-.2.1-.4.2-.6.4s-.2.4-.2.7v-.3.2c-.1.6.6.8.9.4l-.1.1-.3.1c.2 0 .5-.1.7-.1.1 0-.2 0 0 0h.1c-.1 0 .3.1.1 0 .4.2.6.5.8.8 0 .1.1.1.1.2s.1.2.1.3v.2.4.2c0 .1 0 .2-.1.3 0 .1 0 .1-.1.2s-.1.2-.2.3l-.1.1-.1.1c-.1.1-.2.1-.2.1.1-.1 0 0-.1 0h-.2c-.2 0-.5 0-.7-.1-.1 0-.2 0-.3-.1-.1 0-.1 0-.2-.1 0 0-.1 0-.1-.1-.1 0-.2-.1-.2-.1l-.1-.1c-.2-.1-.3-.3-.5-.4 0 0 0-.1-.1-.1-.1-.1-.1-.2-.2-.3 0 0 0-.1-.1-.1 0 .1-.1-.2 0 0 0-.1-.1-.2-.1-.3v-.1-.1-.3c0-.2 0-.3.1-.5 0 0 .1-.1.1-.2.1-.1.1-.2.2-.2.2-.2.3-.3.6-.3.2-.1.4-.3.4-.5.1-.1-.1-.3-.3-.3zm-11.8 38c.3.1.5-.2.8-.3.4-.3.8-.5 1.2-.6 1-.3 1.9-.3 2.9-.3 2.2.1 4.2.2 6.4-.2 2-.4 3.9-1.3 5.8-2 .9-.3 1.9-.6 2.8-.7.9 0 1.8.2 2.7.1.2 0 .3-.4.2-.5-1.1-1.8-4.3-1-5.8-.4l-3.1 1.3c-1.1.4-2.2.7-3.3 1-1.1.2-2.3.4-3.5.4l-3.7.1c-.9.1-1.9.3-2.7.8-.1 0-1.4 1-.7 1.3zm6.9 2.5c.3.7 1.7.5 2.4.5 1 0 1.9-.2 2.9-.3l2.6-.4c.7-.2 1.4-.5 1.7-1.1.3-.5-.4-1.2-.9-.7-.4.5-.9.6-1.5.7-.8.2-1.6.3-2.4.4l-2.5.4h-1.2c-.4 0-.8-.1-1 .2-.2.1-.2.2-.1.3zM54.101 70c-.8 1.9-1 4-.6 6.1.4 2.3 1.6 4 3.1 5.8.7.9 1.5 1.8 2 2.8s.9 2.1 1.2 3.2c.7 2.3 1.4 4.5 2.4 6.6 2 4.3 4.6 8.2 7.4 11.9 2.8 3.9 5.7 7.7 8.8 11.4 1.7 2.1 3.5 4 5.5 5.9.9.9 1.9 1.8 3 2.5.5.3 1 .5 1.6.5s1-.3 1.3-.7-.2-.9-.6-.7c-.9.3-1.8-.6-2.5-1.1-.9-.8-1.7-1.5-2.5-2.4-1.6-1.6-3.1-3.2-4.5-4.9-2.9-3.4-5.6-7.1-8.3-10.7-2.6-3.6-5.2-7.2-7.2-11.2-1-2-1.8-4-2.5-6.1-.6-2.1-1.2-4.2-2.5-6-1.3-2-3.2-3.5-4.1-5.7s-.9-4.6-.3-6.8c.2-.6-.5-.9-.7-.4zm38.1 55.8c.1 0 0-.1 0 0zm-3.4-24.5c-.1.3 0 .6 0 .9.1.3.1.6.2 1l.4 1.9v.1.1c.1-.1 0 0 0-.1-.1 0-.2-.1-.4-.2-.1-.1-.2-.2-.2-.4v-.1-.2c0-.1 0-.2-.1-.3 0 .1 0-.1 0-.1-.1-.3-.4-.3-.6-.2-.6.4-.2 1.3.2 1.8s1.3.8 1.9.3c.3-.3.2-.8.1-1.2l-.3-1.2c-.1-.4-.2-.8-.4-1.2-.1-.4-.2-.9-.5-1.1-.1 0-.2.1-.3.2zm33.001-14.2c2 2.8 1.2 6.5-.3 9.3-.8 1.5-1.8 3-2.8 4.4l-3.2 4.9-6.2 9.4c-1.9 2.8-3.9 5.6-6.7 7.7-1.4 1.1-3 1.9-4.7 2.5-1.8.6-3.5.6-5.4.6-.7 0-.7.9-.2 1.1 1.6.6 3.4.5 5.1.1s3.3-1.1 4.8-2c3.1-2 5.4-4.8 7.5-7.8 2.3-3.2 4.4-6.6 6.5-9.9 1.1-1.8 2.3-3.5 3.4-5.3 1.1-1.6 2.2-3.3 3-5 1.7-3.4 2.5-7.6-.2-10.7-.2-.2-.9.3-.6.7zm-37.1-19.6c.4.5 1.3.7 1.9.8.8.2 1.6.3 2.5.4 1.6.2 3.2.3 4.8.3s3.2-.1 4.7-.3l2.5-.4c.8-.1 1.7-.2 2.3-.8.4-.4.2-1.2-.4-1.4-.7-.2-1.6.2-2.3.3-.8.2-1.6.3-2.3.4l-4.6.4c-1.5 0-3.1 0-4.6-.1l-2.4-.2c-.7-.1-1.4-.3-2 0-.2.3-.2.5-.1.6zm-24.4 9.7c-.1 0-.1-.1 0 0z"/><path d="M59.301 76.6c.3 1.3 2.4.6 3.1.3l3.3-1.6 3-1.9c.9-.6 2.2-1.6 2.4-2.7a.5.5 0 0 0-.134-.466.5.5 0 0 0-.466-.134c-.5.2-.9.5-1.3.8s-.8.7-1.3 1c-.9.7-1.8 1.2-2.7 1.7l-2.8 1.5c-.5.2-.9.5-1.5.6-.5.1-1-.1-1.4.3-.2.1-.3.4-.2.6z"/></g><defs><radialGradient id="A" cx="0" cy="0" r="1" gradientUnits="userSpaceOnUse" gradientTransform="translate(97.2952 86.3733) rotate(-13.3377) scale(19.9219 12.6827)"><stop stop-color="#f6c7c0"/><stop offset=".123" stop-color="#f6c7c1" stop-opacity=".983"/><stop offset=".25" stop-color="#f6cac4" stop-opacity=".932"/><stop offset=".379" stop-color="#f7cfc9" stop-opacity=".848"/><stop offset=".51" stop-color="#f8d6d1" stop-opacity=".73"/><stop offset=".642" stop-color="#f9deda" stop-opacity=".577"/><stop offset=".775" stop-color="#fbe9e6" stop-opacity=".39"/><stop offset=".906" stop-color="#fdf5f4" stop-opacity=".174"/><stop offset="1" stop-color="#fff" stop-opacity="0"/></radialGradient><radialGradient id="B" cx="0" cy="0" r="1" gradientUnits="userSpaceOnUse" gradientTransform="translate(72.0396 92.3582) rotate(-16.1085) scale(11.0082 10.5137)"><stop stop-color="#f6c7c0"/><stop offset=".123" stop-color="#f6c7c1" stop-opacity=".983"/><stop offset=".25" stop-color="#f6cac4" stop-opacity=".932"/><stop offset=".379" stop-color="#f7cfc9" stop-opacity=".848"/><stop offset=".51" stop-color="#f8d6d1" stop-opacity=".73"/><stop offset=".642" stop-color="#f9deda" stop-opacity=".577"/><stop offset=".775" stop-color="#fbe9e6" stop-opacity=".39"/><stop offset=".906" stop-color="#fdf5f4" stop-opacity=".174"/><stop offset="1" stop-color="#fff" stop-opacity="0"/></radialGradient><radialGradient id="C" cx="0" cy="0" r="1" gradientUnits="userSpaceOnUse" gradientTransform="translate(45.8357 250.674) rotate(-9.52935) scale(12.2113 34.5779)"><stop stop-color="#f6c7c0"/><stop offset=".088" stop-color="#f6c7c1" stop-opacity=".983"/><stop offset=".179" stop-color="#f6cac4" stop-opacity=".932"/><stop offset=".272" stop-color="#f7cfc9" stop-opacity=".848"/><stop offset=".366" stop-color="#f8d6d1" stop-opacity=".729"/><stop offset=".461" stop-color="#f9dfda" stop-opacity=".576"/><stop offset=".556" stop-color="#fbe9e6" stop-opacity=".389"/><stop offset=".651" stop-color="#fdf5f4" stop-opacity=".171"/><stop offset=".679" stop-color="#fefaf9" stop-opacity=".101"/><stop offset="1" stop-color="#fff" stop-opacity="0"/></radialGradient></defs></svg>