<svg xmlns="http://www.w3.org/2000/svg" width="183" height="162" fill="none" ><style><![CDATA[.B{fill:#1d1d1b}]]></style><g clip-path="url(#D)"><mask id="A" maskUnits="userSpaceOnUse" x="-38" y="-48" width="249" height="210" mask-type="alpha"><path d="M211-48H-38v209.774h249V-48z" fill="#d9d9d9"/></mask><g mask="url(#A)"><path d="M115.437 61.843c-.253-.485-.64-.885-1.111-1.164-.22-.131-.475-.245-.722-.333a1.18 1.18 0 0 0-.234-.344c-.109-.143-.231-.278-.364-.403.413-.805.076-1.72-.562-2.313.907-1.343 1.616-2.818 1.136-4.35-.159-.507-.487-1.067-.879-1.452a2.42 2.42 0 0 0-.012-.208c.058-.241.036-.535.054-.783l.27-3.912c.102-1.465-1.437-2.32-2.698-2.056-1.085.227-2.178.143-3.227-.205-1.151-.381-2.025-1.271-3.189-1.63-1.297-.401-2.789-.375-4.136-.487-1.51-.125-2.927.015-4.059 1.134-.352.348-.596.794-.926 1.16-.284.317-.578.455-.892.643-.093-.451-.358-.971-.538-1.281-1.456-2.497-4.705-3.266-7.135-1.709-1.012.648-1.307 1.853-.765 2.916.497.976 0 1.789-.123 2.791-.009.075-.008.15-.013.225l-.43.232c-.12-.282-.278-.563-.362-.705-.551-.92-1.521-1.468-2.551-1.664-.788-.15-1.851-.206-2.643-.023a.63.63 0 0 1-.184.018c-.289-.385-.496-.817-.893-1.138-1.452-1.175-3.061-.728-4.256.313-1.438-.575-3.033-.68-4.508.02-1.22.579-1.975 1.701-2.578 2.92a4.26 4.26 0 0 0-2.255-.341c-1.704.211-3.17 1.532-3.524 3.221l-.275.684c-.357 1.219-.172 2.539.337 3.681a5.85 5.85 0 0 0 1.037 1.575c.14.153.291.28.448.41-.191.492-.481 1.075-.554 1.459a7.99 7.99 0 0 0-.114.872c-.451.294-.843.689-1.105 1.187-.449.85-.437 1.742-.156 2.568-.309.698-.298 1.425-.096 2.134-.264.494-.507 1.008-.632 1.506-.166.663.024 1.349.245 2.008-.099.412.081.824.397 1.113l.026.062c-.009.094-.027.185-.022.283.007.13.029.259.06.386l-.011.016c-.308.439-.18 1.08.147 1.474l.269 4.892c.168 2.591.009 5.698 1.658 7.861.096.14.207.277.343.407.08.078.163.139.247.191l.163.254a1.2 1.2 0 0 0 .267.29c.026.046.049.092.082.137.292.395.563.855.899 1.212.348.37.275.475.46 1.026.077.23.18.443.298.644a1.02 1.02 0 0 0 .356.541l.214.172a4.11 4.11 0 0 0 .575.473l.2.168c-.109.197-.191.413-.266.634l.003.002c-.052.058-.101.12-.141.186-.48.795-.499 1.783-.183 2.642.277.752.738 1.341 1.177 1.998l.176.288c.026.265.035.529.024.793a.39.39 0 0 1 .131.416c-.104.372-.123.76-.227 1.133-.015.051-.039.094-.066.131l-.273 1.391c.042.034.096.049.141.078.032-.059.075-.115.138-.156l.414-.242c-.093-.181-.07-.418.153-.552.194-.115.397-.184.604-.242.039-.117.119-.217.268-.25.365-.077.695-.083 1.041-.043.052-.031.114-.033.175-.043l.21.024c.05.016.101.02.145.054.284.222.514.479.692.767.233-.168.586-.085.665.214.128.487.332.966.356 1.474.017.372-.365.484-.623.353l-.057 1.121c0 .021-.013.033-.015.052.11.097.176.236.113.4l-.278.695c.063.095.093.207.051.325-.189.537-.45 1.033-.73 1.522 0 .415-.074.835-.167 1.227.007.889-.108 1.783-.333 2.654l-.102.811.007 1.143.473 3.12.178.495.695 1.552.606 1.257c.011-.001.02-.007.031-.008.131-.269.609-.373.773-.048l.902 1.721.911 1.566a.41.41 0 0 1-.019.431l.132.25c.011.024.013.048.019.072a.43.43 0 0 1 .251.256c.088.252.194.494.3.737l.12.28.444.921c.034.075.04.148.035.218.225.58.409 1.173.476 1.811.028.258-.194.407-.418.413l.1.251c.054.066.092.145.092.243l.212.567c.098.262-.054.433-.256.487l-.067.509.001.263.031.226a.45.45 0 0 1 .177.442l-.171 1.203-.009.084.07-.024c.033-.131.113-.252.266-.315l1.107-.505a1.28 1.28 0 0 0-.11.903l.102.393c-.675.576-.538 1.813.474 2.207 1.23.48 2.501.787 3.787.965.021.011.035.027.057.037.894.399 1.713.445 2.672.27l.325-.072.228.024c.18.112.398.188.664.198l.451-.003c.258.653.988 1.065 1.778.643l.654-.349c.441.324 1.094.395 1.668-.05a11.54 11.54 0 0 1 1.018-.987l.459-.137a1.29 1.29 0 0 0 .674-.506l.137-.042c.579-.015 1.178-.252 1.738-.531l2.823-.804c.398-.106.656-.371.791-.689.16-.08.312-.176.463-.271.27.034.553-.006.816-.141.457-.233.887-.533 1.279-.876l.699-.392a1.45 1.45 0 0 0 .502-.579c.19-.166.35-.353.421-.613.085-.306.046-.713-.128-.985a1.42 1.42 0 0 0-.359-.371l-.661-6.994c-.027-.185-.106-.332-.206-.461l.64-3.547c.003-.007.007-.012.01-.018l.127-.306h.002l.702-1.703c.161-.102.305-.249.412-.457a37.81 37.81 0 0 0 1.875-4.274c.292-.131.541-.389.669-.805l.534-2.084c.376-1.132.685-2.283.912-3.463.039-.199.038-.383.006-.55l.307-1.691c-.304-.457-.569-.937-.759-1.451.112-.245.204-.499.285-.744.245-.743.374-1.53.425-2.31.099-1.558-.244-3.091-.891-4.501-.117-.255-.371-.443-.656-.546l.1-.128c1.111-1.24 2.682-2.051 3.971-3.08 1.704-1.361 2.826-3.155 3.17-5.324.285-1.792.142-3.579-.039-5.367l-.131-5.859c.066-.149.101-.318.093-.503-.007-.161-.048-.328-.115-.484l-.031-1.389a1.79 1.79 0 0 0 .087-.376l.092-.844.021-.115.193-1.816c1.207.246 2.61-.416 2.57-2.003-.051-.071-.03-.119.064-.143.433-.645.34-1.5 0-2.152l.001-.005zM79.5 56.912c-.069.027-.125.073-.171.128l.063.795c0 .141-.08.303-.212.368-.143.071-.287.12-.435.158l-.065.153-.292.107c-.627.254-1.243.536-1.936.393-.124-.025-.231-.139-.275-.259a7.92 7.92 0 0 0-1.043.548l-.674.203c-.028 0-.055-.002-.083-.001-.084-.018-.163-.042-.258-.041l-1.109.005c-.213 0-.413.062-.593.159l-.197-.025a1.71 1.71 0 0 0-.39-.018c-.116-.08-.24-.145-.369-.168-.033-.006-.062-.004-.094-.008-.447-.168-.996-.427-1.514-.499-.267-.536-.489-1.092-.629-1.701-.064-.28-.116-.564-.145-.849l-.04-.295c.548.22 1.25.152 1.766 0 .792-.232 1.5-.675 2.28-.939 1.433-.487 3.014-.53 4.482-.171.679.166 1.33.419 1.943.755.018.165.06.326.162.468l.086.119c-.14.167-.195.404-.256.619l-.002-.004zm2.269 47.432c-.217-.321-.602-.541-1.019-.59a1.12 1.12 0 0 0-.269-.574l.121-.167c.573.338 1.174.593 1.773.658l-.607.674.001-.001zm7.89 1.127l-.17.681a1.49 1.49 0 0 0-.241-.002 1.34 1.34 0 0 0-.358-.347c-.018-.234-.104-.455-.234-.646a1.35 1.35 0 0 0 .056-.133c.293.158.671.206.964.11.064-.021.114-.048.167-.074-.082.116-.145.253-.184.411zm13.257-49.221a.55.55 0 0 0-.083.267c-.003.106.012.211.014.316a2.46 2.46 0 0 0-.171.609l-.111.892-.287.049c-.406.067-.796.204-1.142.409-.023 0-.046-.011-.069-.007a6.29 6.29 0 0 1-1.164.02c.053.239-.081.513-.394.513h-.41c-.069.059-.157.096-.262.096h-.402c-.022.037-.051.07-.069.108l-.223-.108h-.233a.39.39 0 0 1-.255-.092c-.057.008-.116.006-.18-.019l-.275-.091c-.064.015-.131.02-.205-.004l-.864-.289-.616-.185c-.019-.001-.036-.006-.055-.007l-.004-.001-.043-.006a.43.43 0 0 1-.241.007l-.136-.038c-.073.033-.153.053-.249.038a3 3 0 0 1-.403-.099l-.015-.046c-.141.026-.291.004-.419-.081-.035-.023-.061-.057-.093-.085l-.039-.019a1.35 1.35 0 0 1-.362-.106c-.311-.148-.533-.49-.514-.837.002-.04.013-.081.02-.121-.048-.325.065-.67.301-.898.089-.085.197-.149.311-.201.023-.016.043-.017.063-.025l.045-.019c.071-.054.155-.088.238-.125l-.002-.054c.003-.139-.048-.265-.125-.372l.312-.448a.98.98 0 0 0 .112-.215l1.21-.618c.069.07.15.127.249.145l1.776.314c.091.016.183.002.272-.025l1.918.271a.71.71 0 0 0 .459-.081c.516.239 1.064.321 1.626.421l1.116.312a1.54 1.54 0 0 1 .261.165.51.51 0 0 0-.19.37h.002z" fill="#fae6e1"/><path d="M129.648 267.689l-21.653-20.824c-.011-.077-.005-.149-.023-.23l-1.725-8.836-.039-.281-.004-.023-.375-2.699a52.49 52.49 0 0 0-.743-6.581 1.74 1.74 0 0 0-.455-.908l-.463-6.648c-.044-.739-.393-1.273-.869-1.613l-.022-.174c.019-5.602.355-11.201.703-16.793.054-.862-.554-1.623-1.324-1.953.542-3.803.511-7.636-.136-11.392a2.04 2.04 0 0 0 .75.154c1.222 0 2.051-.979 2.132-2.132l.48-6.804c.155-2.207.447-4.452.432-6.665-.015-2.061-.79-3.8-1.782-5.546a47.75 47.75 0 0 1-.222-6.943c.004-.103-.005-.202-.017-.3.564-.523.784-1.338.637-2.147-.04-.215-.071-.431-.108-.646a7.11 7.11 0 0 0 .422-.344c.891-.811 1.581-1.755 1.92-2.922.269-.922-.08-1.688-.69-2.152l1.277-1.171c1.295-1.179.466-3.055-.925-3.516.17-1.09-.424-2.332-1.543-2.516a2.13 2.13 0 0 0-.108-.364c.012-.01.026-.019.039-.029.753-.578 1.028-1.388.941-2.125l.424-.302c1.365-.973 1.274-3.23-.199-3.824-.072-.342-.238-.669-.472-.954.35-1.028-.226-2.183-1.194-2.63-.017-.041-.025-.087-.045-.128.348-.383.47-.93.423-1.459.677-.96 1.124-2.016 1.052-3.196-.107-1.772-2.292-2.904-3.639-1.507-.205.212-.422.407-.634.611a1.76 1.76 0 0 0-.953.45 2.27 2.27 0 0 0-.613.392c-.474.464-.953.826-1.522 1.163l-1.848 1.05c-.441.24-.878.489-1.31.745l-.155.088c-.027.015-.046.035-.073.051l-.119.073c-.366.19-.72.401-1.059.636-1.438.314-2.819.775-4.18 1.35-.008.003-.018.005-.026.008l.001.003-.511.212c-.431.192-.716.479-.885.812a19.48 19.48 0 0 1-7.318-1.386c-.042-.02-.084-.038-.126-.057l-1.663-.784-.434-.205c-.284-.158-.571-.313-.849-.486-1.653-1.023-3.181.498-3.133 1.997-.212.947-.066 2.05.136 2.954.004.021.012.04.017.06l-.082 1.196c-.455.199-.834.55-1.048 1.081-.34.844-.13 1.977.656 2.524.052.328.153.648.294.953.115 1.616.316 3.233.03 4.84-.373 2.091-1.453 3.971-1.835 6.046-.43 2.34.156 4.728.501 7.048.1.669.561 1.127 1.139 1.359.014.122.021.244.037.365l-.137 3.485c-.015.371.093.719.273 1.027a27.81 27.81 0 0 0 .347 4.304 56.65 56.65 0 0 0 .232 5.335c.009.087.03.164.046.246l.071 1.582c-.235.467-.305 1.028-.209 1.585l.193 1.108c-.005.815.003 1.63.042 2.445.029.622.269 1.097.615 1.438l.099 1.29c-.429.342-.749.861-.816 1.576a81.23 81.23 0 0 0-.348 7.946 2.37 2.37 0 0 0-.213.931l-.037 1.855c-.04.144-.07.293-.082.451-.292 3.767-.136 7.505.342 11.242l.009.174c.035.188.05.377.076.566.128.914.805 1.389 1.578 1.497l.297 1.879a2.11 2.11 0 0 0-.198.943l.029 3.184a2.8 2.8 0 0 0-.119.576c-.509 5.571-.629 11.163-.404 16.75-.4.394-.644.955-.723 1.567-.22 1.711-.249 3.424-.12 5.127l-.217 9.322c-.002.205.027.39.069.564l-.208 1.717a2.42 2.42 0 0 0-.386.72c-1.342 3.909-1.976 8.048-1.894 12.18.007.387.115.721.28 1.006l-1.405 5.117-.772 2.81c-.152.596-.063 1.115.171 1.531-.764 1.327-1.129 2.863-.962 4.392-.01.115-.016.231-.023.346l-1.644-.265c-.215-.633-.679-1.16-1.391-1.355-1.056-.29-2.388.356-2.622 1.489-.351 1.695.281 2.756 1.367 3.442.222.204.487.354.794.415 1.84.763 4.409.842 6.168.972a220.72 220.72 0 0 0 18.083 1.866l8.083.839c1.53.154 3.065.285 4.6.347.109.043.219.081.34.099a27.83 27.83 0 0 0 14.92-1.961c.917-.388 1.254-1.692.918-2.597.612-.521 1.193-1.079 1.712-1.699.738-.882.865-2.151 0-3.015-.76-.76-2.272-.887-3.015 0-1.603 1.912-3.6 3.128-5.791 3.878.094-.865.009-1.704-.154-2.558-.002-.007-.005-.014-.007-.021l.002-1.45c.086-.163.15-.345.183-.549.337-2.064.485-4.137.288-6.223-.051-.529-.138-1.096-.277-1.647-.031-.822-.095-1.643-.189-2.463.201-.447.263-.967.166-1.485-.601-3.18-1.312-6.335-2.096-9.472l-.357-1.617c.227-.327.356-.713.314-1.13a22.71 22.71 0 0 0-.326-2.173l16.127 15.509c1.979 1.903 4.997-1.108 3.015-3.015l.001-.001z" fill="#f4efea"/><path d="M104.412 132.748c.662-.834.845-1.887.153-2.781-.198-.258-.481-.47-.796-.622-.657-.416-1.552-.533-2.203-.06a26.22 26.22 0 0 0-2.257 1.826c-.244.224-.403.504-.501.804l-.637.357-1.058.59c-.198-.007-.4.002-.604.043-1.585.313-3.092.81-4.58 1.414l-.053.011-.509.215c-.418.178-.698.537-.861.954l-.25.023a8.84 8.84 0 0 0-4.349.274c-.307-.183-.628-.342-.974-.448-.549-.167-1.081-.062-1.53.197-.213-.167-.457-.307-.72-.417-.36-.15-.738-.228-1.121-.275-.372-.207-.806-.304-1.249-.277-.098-.178-.221-.352-.388-.513-.527-.507-1.2-.823-1.882-.855-.047-.016-.086-.043-.134-.056-.745-.211-1.464.053-1.98.538-.522.286-.942.803-1.089 1.34-.258.938.18 1.838.941 2.378-.501.736-.507 1.746.21 2.64.737.917 1.875 1.579 3.042 1.741a3.08 3.08 0 0 0 1.052-.028l.587.089c1.459.395 3.25.166 4.626.117 1.925-.07 3.852-.295 5.741-.678 1.996-.404 3.951-1.014 5.837-1.79.392.019.801-.055 1.197-.247a20.32 20.32 0 0 0 2.924-1.727l2.808-1.659c.946-.588 1.4-1.931.765-2.916-.047-.073-.104-.136-.158-.202z" fill="#dcd7d2"/><path d="M77.066 134.867c-.225-.578-.601-1.033-1.067-1.376 1.259-5.99-.353-11.688-4.191-16.56 0-.116-.015-.232-.062-.346l-.995-2.407a1.71 1.71 0 0 0-.43-.621c-.064-.361-.117-.724-.162-1.088l.016-.953c.004-.225-.063-.437-.173-.624a8.59 8.59 0 0 1-.004-1.002c.01-.046.033-.232.043-.273.013-.058.03-.115.048-.171.022-.013.029-.014.051-.018.685-.097 1.06-.969.893-1.573-.104-.378-.338-.622-.631-.763.622-1.055 1.063-2.232 1.245-3.444.011-.074.014-.149.024-.223.045-.266.075-.532.087-.798.002-.02.001-.04.003-.06a6.49 6.49 0 0 0 .002-.369c.004-.212.015-.421.002-.634-.04-.657-.096-1.38-.334-2-.14-.365-.363-.655-.708-.815a1.2 1.2 0 0 0-.225-.26c-.009-.013-.011-.026-.021-.038-.163-.212-.396-.398-.664-.459-.531-.121-1.183.071-1.444.588-.199.391-.27.812-.157 1.238-.065.216-.12.435-.179.652-.06.098-.107.205-.133.322l-.324 1.455c-.002.012 0 .023-.003.035-.038.188-.066.381-.095.573-.008.044-.02.087-.028.131-.009.114-.032.224-.046.34-.002.014.001.025 0 .037s-.006.029-.008.045c-.064.224-.121.447-.164.668-.322 1.673-.471 3.377-.614 5.074l-.304 3.449a24.92 24.92 0 0 0-.063 1.302c-.036.117-.079.23-.119.345-.037.011-.074.021-.112.029-.09.003-.18.001-.27-.006-.022-.004-.044-.009-.066-.013a.89.89 0 0 0 .017-.301c-.267-2.291-.855-4.477-1.744-6.585-.026-.555-.114-1.097-.241-1.633a15.22 15.22 0 0 1 .605-2.925c.24-.769-.419-1.658-1.233-1.62-.823.039-1.457.089-1.901.878-.198.121-.374.259-.494.432l-.044.066c-.238-.026-.501.016-.779.151l-.327.158-.446.107a1.12 1.12 0 0 0-.648.422l-.052-.016c-1.569-.49-3.107.091-4.153 1.186a4.8 4.8 0 0 0-.99-.13l-2.438-.009a3.89 3.89 0 0 0-2.716 1.048 4.79 4.79 0 0 0-1.573.235c-2.146.143-4.255.306-6.293.666-.702-.208-1.526-.208-2.453.08-2.724.845-4.892 2.115-6.893 4.157a5.18 5.18 0 0 0-.356.404c-.234.125-.464.265-.697.394a1.22 1.22 0 0 0-.72-.021c-2.152.596-3.283 2.215-4.507 3.842-1.015.895-1.944 1.892-2.818 2.949a19.89 19.89 0 0 0-1.101.969c-.978.949-1.775 2.079-2.531 3.208-2.323 3.469-4.618 7.055-5.783 11.049-1.44 3.486-2.371 7.152-2.885 10.996-.886 6.635-.612 13.298-.827 19.97-.234 7.249-1.856 13.938-3.767 20.899-.078.281-.125.552-.154.814-.004.011-.007.022-.011.033-.576.5-1.014 1.23-1.207 2.223-.17.872-.376 1.722-.601 2.564-.594 1.381-1.077 2.782-1.421 4.276-.429.946-.822 1.905-1.185 2.893a3.83 3.83 0 0 0-.21.868c-.224.648-.437 1.303-.634 1.966-.019.062-.029.122-.045.183l-.272.73.798 2.074a4.88 4.88 0 0 1 .403.552c1.011 1.679 1.837 3.451 2.336 5.35a4.42 4.42 0 0 1 .107 1.791c.025.046.037.091.061.137.13.065.268.113.404.167.01.111.014.221.033.331-.111 1.723 1.127 3.503 2.659 4.119.438.177.931.278 1.439.304.014-.01.024-.026.041-.033.953-.406 1.823-1.018 2.788-1.387a11.6 11.6 0 0 1 .94-.436c.036-.067.085-.122.116-.193.174-.397.367-.786.546-1.181l.608-.545.226-.199c1.488-.484 2.83-1.223 4.035-2.203.02.002.039.008.06.01.107-.107.209-.219.314-.327.149-.13.307-.245.451-.384.223-.211.409-.448.57-.698.71-.772 1.423-1.538 2.256-2.195 1.527-1.205 3.569-1.653 5.217-.647 1.162-.152 2.425.001 3.733.497 1.214.46 2.343 1.058 3.444 1.721a10.72 10.72 0 0 1 1.011.517l.013-.116.445-2.624a54.38 54.38 0 0 1 .542-2.044c.202-.706.231-1.354.133-1.938l.117-.687c.136-.8.067-1.532-.146-2.182.417-2.07.99-4.103.867-6.144.156-.444.249-.942.254-1.504.036-3.995 1.959-7.665 2.331-11.659.388-.871.761-2.011 1.499-2.573.486-.061.913.168 1.292.512a39.55 39.55 0 0 1 .786 9.582c-.014.355.095.628.269.829l-.096 1.108a5.07 5.07 0 0 0-.026.514 3.92 3.92 0 0 0-.248.736l-.803 3.521c-.095.414-.105.831-.063 1.242a19.21 19.21 0 0 0-.38 1.154c-.026.057-.057.113-.082.171-.199.461-.373.929-.541 1.399-.361.454-.617.981-.767 1.542-.646 1.598-.457 3.577.886 4.699.654.547.535.771 1.037 1.684.403.735 1.08 1.28 1.418 1.902-.182.934-.079 1.927.321 2.724l-1.29 3.61c-.83.649-1.452 1.572-1.69 2.699-.175.826-.136 1.589.059 2.264-.06.562.014 1.179.276 1.846l.8 2.032a5.1 5.1 0 0 0 .563 1.052c-.046.186-.102.365-.127.565-.332 2.539-1.058 4.971-1.941 7.363-.24.655-.316 1.262-.264 1.814l-1.726 5.569c-.341 1.1-.258 2.061.097 2.849-.087.422-.163.846-.24 1.27-.304.413-.555.91-.728 1.506-2.36 8.164-4.253 16.447-5.576 24.844a180.35 180.35 0 0 0-.837 6.148l-1.868 12.388c-.149 1.04.041 1.964.447 2.741a7.12 7.12 0 0 0 .393 1.092c.66 1.432 1.841 2.573 3.24 3.236a6.71 6.71 0 0 0 1.566 1.724c.699.537 1.538.953 2.379 1.232l1.05.249c.09.03.154.047.234.071a4.56 4.56 0 0 0 1.215 1.348 37.95 37.95 0 0 0 7.143 4.149 5.22 5.22 0 0 0 1.15.356c.698.607 1.604 1.003 2.635 1.069.234.349.616.584 1.057.582h.31c.142 0 .285-.031.423-.082a.86.86 0 0 1 .055.023c.369.191.709.424 1.092.586a1.66 1.66 0 0 0 1.082.072c.129.037.254.066.372.079 1.299.148 2.014.272 3.27.657s2.169.253 3.364.073c.601.46 1.308.76 2.052.839.975-.908 2.299-1.327 3.755-.719l.081.035.172-.014c.118-.009.227-.005.339-.007.146-.142.283-.302.413-.472a.41.41 0 0 1-.051-.182c-.009-.369-.094-.732-.101-1.103-.002-.162.099-.304.238-.375.015-.034.039-.059.062-.086v-.04c0-.017.009-.029.011-.046-.043-1.345-.136-2.835-.077-4.306-.089-.104-.17-.214-.27-.306.112-1.905.012-3.852.062-5.675.107-3.981.674-7.777 1.701-11.587.389-.581.651-1.291.724-2.126l.269-3.066c.806-6.643 2.965-13.188 3.902-19.807a129.24 129.24 0 0 0 1.219-21.986 105.42 105.42 0 0 0 .309-9.27l.139-1.314a5.03 5.03 0 0 0 .141-.723c.405-3.924.252-7.769-.347-11.62l-.939-27.719c.354-.6.556-1.341.532-2.229a326.47 326.47 0 0 1 .211-24.221c-.586-5.202.144-10.811.902-16.17a19.48 19.48 0 0 1 .825-8.744l.002.008zm-14.169 15.556c-.038.801-.04 1.631-.051 2.467a5.75 5.75 0 0 0-.275 1.238c-.125 1.241-.264 2.536-.849 3.647-.031.058-.044.115-.072.173l-.099.033c-.386.126-.67.365-.829.74-.003.008-.005.019-.008.028-.333.062-.672.087-1.01.064.621 6.483.484 13.032 1.555 19.46.555 3.336-1.865 5.861-5.245 5.245-.901-.164-1.804-.272-2.704-.423-1.86.382-3.45.862-5.614.423-2.574-.521-3.625-3.565-2.776-5.8-.458-2.976-.511-5.982-1.068-8.96a4.69 4.69 0 0 1-.049-1.459c-.227-1.51-.421-3.018-.438-4.574-.002-.043-.013-.082-.013-.125v-.693a3.63 3.63 0 0 1 .083-1.234c-.501-.416-.89-1.001-1.139-1.632-.01-.007-.028-.017-.036-.024-.041-.027-.071-.065-.11-.093l-.17-1.55c-.01-.091-.035-.178-.05-.269.026-.508.041-1.018.026-1.538-.022-.759-.201-1.402-.477-1.95.2-.368.447-.69.742-.915a6.48 6.48 0 0 0 .534-.461 3.93 3.93 0 0 0 .148-.033c.335-.077 1.011-.211 1.178-.243.017.005.028.007.049.011l1.218.279c1.242.286 2.518.051 3.515-.614l1.902-.288c1.043-.144 2.181-.314 3.316-.363 2.083-.674 4.12-1.203 6.36-1.318.969-.049 1.796.248 2.458.751h.002zm125.767 48.374c-.103-.045-.196-.112-.295-.165-.175-1.489-1.043-2.893-2.378-3.621-.058-1.422.635-2.816 1.833-3.677-.306-1.417-1.272-2.652-2.924-3.001-.807-.17-1.493-.483-2.085-.895.097-.334.157-.68.18-1.028-1.033-.793-1.713-2.004-1.713-3.363a3.81 3.81 0 0 1 .07-.691c-.135-.78-.567-1.557-1.396-2.248-.551-.46-1.064-.938-1.544-1.432l-.118-.465c.034-.389.039-.794-.027-1.226-.394-2.599-.915-5.144-1.569-7.673a4.61 4.61 0 0 0 .286-1.404l.022-2.6c.447-2.485.583-4.915.304-7.489-.048-.437-.153-.827-.282-1.196l.193-10.14c.027-1.37-.488-2.394-1.272-3.08-1.304-6.257-3.524-12.219-6.603-17.803-.01-.027-.015-.053-.025-.079a66.73 66.73 0 0 0-1.251-3.126c-.033-.291-.093-.586-.212-.884-.588-1.488-1.245-2.7-2.1-3.924-.028-.052-.054-.106-.082-.158-.007.005-.014.011-.021.016a22.52 22.52 0 0 0-.646-.879c-.378-.485-.799-.833-1.243-1.064-1.065-1.608-2.061-3.26-3-4.961a3.88 3.88 0 0 0-1.78-1.679c-.569-.72-1.237-1.398-1.975-1.965a8 8 0 0 0-2.083-1.371c-.993-.452-2.127-.863-3.273-1.049-2.383-1.389-5.188-2.159-8-2.649-2.016-1.155-4.948-2.285-7.288-2.314-1.452-.018-2.614.424-3.74 1.009-3.051-.26-6.151-.402-9.187-.284-1.112-.448-2.255-.73-3.454-.84-.568-.094-1.143-.152-1.726-.159-.609-.315-1.326-.436-2.113-.321a3.68 3.68 0 0 0-.611-.094c-.1-.018-.202-.017-.303-.027-.214-.409-.638-.721-1.119-.689l-1.235.083a8.92 8.92 0 0 0-.586-.071 9.7 9.7 0 0 0-3.169-.382c.127 1.202.234 2.406.253 3.615a3.97 3.97 0 0 0 .157-.305c.026.001.052 0 .078.001.101.005.2.014.301.022l.255.823c.023.075.054.143.086.208-.118.334-.147.689-.097 1.049-.253 1.021-.362 2.079-.307 3.128.008.153.047.282.089.408-.062.247-.139.49-.209.735v.077a.39.39 0 0 1-.096.259c-.175.583-.365 1.161-.581 1.73a1.04 1.04 0 0 0-.04.635c-.113.14-.22.285-.342.418-.014.016-.024.034-.037.051a17.44 17.44 0 0 0-.311-.395l-.18-.619c.031-.475.119-.894.251-1.418-.103-.067-.191-.163-.209-.315-.105-.824-.071-1.648-.036-2.473a23.18 23.18 0 0 0-.242-2.083c-.112-.428-.235-.852-.364-1.275a.45.45 0 0 1-.383-.294 14.59 14.59 0 0 1-.415-1.142c-.114.258-.149.547-.06.823a1.39 1.39 0 0 0 .337.548c-.324.161-.596.435-.672.786l-.71 3.274-.177.833c-.16.157-.292.345-.369.566l-2.291 6.594c-.013.035-.017.07-.027.105-.208.335-.359.696-.418 1.074-.393 2.497-.567 4.777-.268 7.293.002.012.005.021.007.032-.052 1.07-.055 2.127-.01 3.177-.556.883-.751 1.977-.316 3.18l1.055 2.916c.155.429.352.805.576 1.136.001.044-.005.083-.002.127a105 105 0 0 0 2.589 17.85c-.347 2.2-.379 4.251-.094 6.415l-1.144 26.367a1.05 1.05 0 0 0-.301.61 48.26 48.26 0 0 0-.37 11.488c-.245 5.791-.253 11.542.609 17.262-.001.016-.006.03-.007.047-.226 4.131.143 8.188 1.063 12.19.282 2.721.638 5.431 1.148 8.103.146 1.952.487 3.772 1.05 5.54l.123.648c-.097.54-.099 1.129.026 1.764l1.114 5.635c.139.703.444 1.275.857 1.727 2.873 11.511 4.688 23.215 5.383 35.089-.717 3.599-.663 7.19-.414 10.876a4.87 4.87 0 0 0 .285 1.318c-.183 1.107-.121 2.075.068 3.293-.053.359-.062.75-.009 1.178-.101.55-.105 1.144.02 1.785l.577 2.951a3.64 3.64 0 0 0 .319.916c.317-.193.66-.366 1.063-.492.122-.038.243-.069.364-.106a3.93 3.93 0 0 1 1.17-1.063c.36-.298.767-.554 1.237-.737 1.418-.549 2.816-1.079 4.277-1.491a4.77 4.77 0 0 1 1.095-.588 52.12 52.12 0 0 0 1.604-.647c.295-.218.623-.41.995-.566.06-.026.118-.047.178-.072 2.121-1.055 4.338-1.765 6.58-2.527.362-.109.703-.156 1.034-.18.13-.071.239-.152.355-.23 1.363.084 2.798-.483 3.834-1.975.716-1.032 2.99-1.445 4.051-2.234a20.53 20.53 0 0 0 1.231-1.017l.391-.118c1.192-.374 2.096-.991 2.761-1.762.746-.244 1.389-.634 1.949-1.216a4.5 4.5 0 0 0 .528-.645l.136-2.123c-.229-1.503-.39-3.017-.467-4.536-.155-.122-.309-.246-.477-.346-.158-1.413-.111-2.929-.264-4.204-.236-1.958-.555-3.908-1.003-5.83-.455-1.947-1.06-3.836-1.75-5.696-.519-5.834-1.386-11.981-4.487-16.642-.369-.555-.808-.975-1.282-1.293l-1.262-4.119c-.147-.484-.345-.903-.58-1.264-.665-3.505-1.224-7.029-1.643-10.579-.021-.183-.071-.346-.109-.516l1.204-6.997c.164-.951.056-1.801-.234-2.532l.093-.655a3.63 3.63 0 0 0 .271-.939c.705-4.768 1.956-9.823 1.69-14.656-.277-5.023-2.009-10.016-3.282-14.872l-.155-4.301c.056-.392.137-.775.208-1.161a81.56 81.56 0 0 0 .751-2.639 20.38 20.38 0 0 0 .842-2.233c.063-.117.123-.237.193-.353l1.297-1.77c.652-.89.807-1.843.629-2.736.447-1.28.815-2.579 1.12-3.903.099-.392.194-.785.275-1.184.529 1.084.985 2.194 1.396 3.32.281 1.126.541 2.258.772 3.395-.164.292-.216.639-.163.995.204 1.39.437 2.774.698 4.153.049.261.163.46.313.607.585 8.802 1.914 17.415 5.594 25.588.139.55.389 1.1.767 1.631a3.86 3.86 0 0 0 .22 1.299 11.34 11.34 0 0 1 .823 3.141c.252 2.202 2.129 3.939 4.09 4.238 1.336-.883 2.686-1.736 4.105-2.481 1.658-2.366 6.24-3.381 8.678-4.474a314.12 314.12 0 0 0 11.07-5.245c.721-.357 1.276-.98 1.635-1.721a4.43 4.43 0 0 0 .665-.368c2.374.684 5.22-.569 5.359-3.917.023-.556.004-1.135-.062-1.709l.001-.005zm-50.193-43.145c-.041.115-.105.222-.158.332.012.126.034.253.034.378v.174c0 1.248-.704 2.6-1.752 3.445-.017.058-.03.115-.048.173-.052.404-.092.812-.106 1.234-.009-.001-.016-.003-.025-.004-.039.378-.072.755-.128 1.137-.077.541-.254.993-.493 1.38l-.215 1.889c-.325 2.994-.467 5.97-.508 8.97a10.1 10.1 0 0 0 .349 1.089c.954 2.463-1.519 5.624-4.111 5.397-.594-.052-1.156-.148-1.691-.281-1.625.151-3.394.02-5.067.107-.826.043-1.511-.12-2.085-.405-1.069.06-2.133.175-3.193.426-3.397.804-5.76-2.048-5.245-5.245.021-.128.053-.249.083-.371a4.61 4.61 0 0 0-.665-.018l.541-9.387c.132.097.274.177.416.257.023-.597.139-1.119.322-1.579-.329-.608-.516-1.288-.502-1.977.024-1.153.199-2.29.358-3.43.018-.128.051-.421.071-.592a19.56 19.56 0 0 0 .075-1.108c-.007-.251.018-.498.07-.737.011-.078.034-.15.049-.226-.662-.716-1.276-1.458-1.773-2.326-2.318-4.044 2.146-7.392 5.834-5.833l.341.143c.448-.154.942-.237 1.492-.206 1.314.075 2.611.262 3.906.499.093.017.169.053.259.074.636-.223 1.369-.289 2.184-.139.727-.258 1.545-.275 2.409.065a39.03 39.03 0 0 1 .936.387 6.38 6.38 0 0 1 .529-.019c.633 0 1.962.051 2.018.376 3.718-1.952 7.238 2.612 5.489 5.949v.002z" fill="#e09531"/><path d="M62.392 150.831c-.144-1.302-1.65-1.653-2.323-.674-.718-.015-1.411.12-2.122.364l-1.253.458a1.29 1.29 0 0 0-.455-.138c-.655-.062-1.209.099-1.796.376-.269.126-.437.341-.532.587a1.29 1.29 0 0 0-.343-.049c-.939.004-2.044.202-3.106.581l-1.171.12c-1.289.089-2.658-.095-3.919.236-.1.026-.197.059-.294.093-.041-.042-.072-.092-.117-.131-.452-.395-1.022-.717-1.644-.679-.611.036-1.128.333-1.462.811l-.49.261a1.32 1.32 0 0 0-.588 1.445c.166.697.738 1.229 1.408 1.407.025.114.055.227.103.33l.016.94a1.27 1.27 0 0 0 .04.28c-.152.51-.121 1.069.143 1.523-.023.525.31 1.023.772 1.25-.003.04-.013.074-.012.115l.01.309a1.34 1.34 0 0 0-.03.317l.066 1.671.117 2.958a1.42 1.42 0 0 0 .085.354l.234 2.965.043 1.254.422 4.813c-.026 1.991.146 4.071.82 5.858a5.11 5.11 0 0 0 .377.785c.095.177.2.35.328.513a3.19 3.19 0 0 0 .333.358c1.003 1.03 2.441 1.464 3.947.797.181.098.375.183.597.245.504.14 1.042.133 1.53-.032.523.314 1.145.438 1.854.242.552-.152.966-.425 1.274-.777.948.438 2.119.48 2.906-.138a3.44 3.44 0 0 0 1.17.074c.636-.07 1.35-.53 1.279-1.279l-.408-4.03a1.26 1.26 0 0 0 .075-.533 469.81 469.81 0 0 1-.877-18.871 1.92 1.92 0 0 0 1.809-1.115c.38-.774.267-1.718.326-2.572.666-1.099.999-2.348.854-3.671l.001-.001zm75.395 3.792c.03-.108.063-.216.063-.334l.002-1.048a1.23 1.23 0 0 0-.07-.389v-.002c.038-.07.267-.381.041-.098.294-.368.461-.765.33-1.244a1.29 1.29 0 0 0-.894-.894c-.431-.113-.807-.075-1.141.064-.236-.312-.584-.549-1.118-.638-.592-.099-1.155.09-1.742.121-.108.006-.214 0-.322-.004-.627-.704-1.563-.84-2.359-.54l-.134.015c-.121-.34-.393-.619-.841-.713l-2.917-.608c-.351-.073-.647-.027-.889.091l-.777-.095a1.06 1.06 0 0 0-.837.299l-2.962-1.005c-.736-.25-1.278.171-1.477.743a4.08 4.08 0 0 0-1.111-.376c-.327-.058-.646-.02-.916.111a1.25 1.25 0 0 0-.88.406l-.099-.019c-.064-.009-.128-.007-.192-.012a1.39 1.39 0 0 0-.652-.209c-.349-.019-.686.07-.989.227-1.073.325-1.9 1.399-1.88 2.535 0 .02.009.041.011.062-.091.274-.164.554-.203.843-.1.741-.03 1.523.247 2.221.142.357.299.702.522 1.015l.285.391c.021.032.032.066.04.09.038.523.431.97.922 1.123l.275.092c.029.012.041.019.066.032.059.031.113.068.171.101-.005.006-.01.01-.013.016a1.25 1.25 0 0 0-.901 1.162l-.202 3.467c-.016.276.058.509.188.698l.112 2.766.166 1.974-.01.291c-.005.013-.013.022-.017.035-.422 1.575-.498 3.137-.325 4.739-.421.303-.611.899-.495 1.394.222.946.016 1.694-.166 2.613-.175.879-.161 1.814.5 2.499.082.085.179.138.27.206.158.765.905 1.097 1.549.986 1.093.38 2.445.48 3.272.573a57.79 57.79 0 0 0 7.033.353c.199.16.412.303.644.406 1.846.822 4.26.121 6.177-.109.66-.079 1.316-.522 1.279-1.279l-.055-6.023c.002-.009.006-.016.008-.026l.631-3.352c.347-.193.606-.545.623-1.055l.285-3.975c.497-2.289.862-4.605 1.134-6.932a1.06 1.06 0 0 0 .5-.477c.312-.62.671-1.366.669-2.079-.001-.42-.158-.877-.43-1.222l.001-.003zm-30.999-53.636l.013.093.041.248a2.08 2.08 0 0 0 .234.609c.04.067.09.116.133.174.008.045.012.09.025.135.042.143.102.265.17.378-.014.118-.016.242-.004.375l.036.273.025.198.055.471.149 2.029.014 2.034.221.655c.038.043.07.097.093.163l.222.592c.023.068.024.129.014.188l.078.208a1.39 1.39 0 0 0 .46.353l.134-.024.401-1.471.147-.99c.015-.162.104-.27.216-.336.043-.475.1-.946.243-1.405.007-.022.02-.036.029-.056l.005-.031.024-1.132c0-.14.066-.231.15-.298l-.015-.208-.082-.741-.014-.109c.175-.363.178-.785-.011-1.202l-.123-.275c-.004-.008-.011-.014-.016-.023-.007-.032-.002-.066-.014-.098l-.026-.082c.005-.046.014-.091.012-.135l-.027-.7c-.014-.343-.153-.647-.373-.876-.003-.017.001-.032 0-.05l-.064-.405c-.007-.048-.031-.088-.046-.133-.001-1.301-.151-2.602-.446-3.868-.029-.126-.093-.233-.159-.337l-.031-.398a1.22 1.22 0 0 0 .138-.981l-.068-.239a1.01 1.01 0 0 0 .037-.33c-.021-.305-.071-.591-.144-.87-.074-.032-.14-.078-.173-.155l-.038-.104-.448-1.108c-.024-.071-.019-.14-.002-.206l-.068-.223c-.2-.118-.434-.196-.65-.186-.597.026-1.261.507-1.276 1.158-.025.041-.037.087-.057.131-.363.224-.615.619-.607 1.071 0 .039.007.078.008.117-.06.211-.07.439-.006.67l.131.463.083.462c.011.043.03.082.046.124l.007.051c.015.102.067.205.13.305l.228.811v.136c-.062.088-.108.186-.141.291-.018.019-.03.043-.046.064a.35.35 0 0 1 .022.123l-.023.724c.029.524.015 1.048-.032 1.57l.033.171c.054.261.216.484.43.65.022.043.038.087.065.128a1.72 1.72 0 0 0 .042.539c.081.316.244.549.442.798.004.006.025.029.042.049v.001l.002.002zm-38.952-4.25c.004-.243-.023-.483-.071-.716.099-.324.073-.684-.103-1.02l-.085-.174a.98.98 0 0 0-.053-.291l-.141-.391c.019-.074.009-.154.014-.232-.244-.23-.417-.607-.53-.868-.201-.465-.322-.963-.321-1.472 0-.364.071-.711.197-1.034l-.002-.076-.285-.345-1.754-1.36-.083.386.023.254c-.018.516-.103 1.037-.198 1.544l-.475 2.049-.137 1.294a.42.42 0 0 1-.071.192c-.053.502-.09 1.006-.075 1.513.002.072.014.143.027.214-.133.83-.233 1.666-.257 2.506-.011.375.14.673.371.885a1.37 1.37 0 0 0 .29.374l-.029.207c-.006.056-.005.113-.007.17a1.54 1.54 0 0 0-.463.474c-.45.724-.187 1.659.49 2.095l.208 6.987c.005.012.014.019.018.033l.793 2.289.2.347a.41.41 0 0 1 .028.316l.445 1.35c.176.003.35-.018.511-.076l.024-.529c-.011-.034-.024-.067-.026-.106-.131-1.747.501-3.437.444-5.18 0-.06.014-.11.032-.157l-.063-1.611-.062-2.99a1.44 1.44 0 0 0 .357-.855c.088-1.068.252-2.033.543-3.175.05-.198.038-.393 0-.583.165-.211.267-.47.251-.751l-.03-.507.013-.29.044-.688-.002-.002z" fill="#b26a15"/><path d="M125.877 45.373c-.534-.676-1.885-.835-2.583-.334-.055.043-.115.079-.174.115a8.75 8.75 0 0 0-.786-.54l-.135-.298-.069-.228c-.151-.557-.276-1.065-.702-1.508-.027-.027-.059-.043-.087-.069-.146-1.317-.376-2.616-.758-3.883-.143-1.561-.497-3.084-1.212-4.522-.051-2.258-.421-4.514-1.088-6.667-.21-.677-.771-1.273-1.459-1.483-.694-1.378-2.031-2.458-3.532-2.696.671-3.976.302-8.233-2.7-11.235-.542-.542-1.323-.717-2.029-.536a2.31 2.31 0 0 0-.4-.287 6.82 6.82 0 0 0-.614-.579c-2.106-1.696-5.005-2.373-7.61-1.537-1.124-.025-2.25.332-3.09 1.054-.083-.128-.163-.257-.254-.381-1.24-1.676-3.074-2.687-5.196-2.529a6.58 6.58 0 0 0-2.559.728 4.09 4.09 0 0 0-1.827-.936c-.669-.15-1.318-.118-1.949.017-.43-.033-.863-.018-1.298.033-.543-.284-1.225-.316-1.95.102l-.069.04c-1.114.209-2.138.685-3.079 1.303-4.361-2.399-11.353 1.925-14.023 5.252-.403.501-.619 1.109-.588 1.702-1.035 1.259-1.883 2.67-2.513 4.178a3.01 3.01 0 0 0-.21.42c-.127.316-.219.635-.295.956-.413 1.297-.678 2.647-.765 4.021-.016.255.029.478.097.688-.124.113-.245.23-.355.362-.089.107-.168.218-.24.333l-.16.093a9.99 9.99 0 0 0-.642.374c-1.159.629-2.125 1.48-2.974 2.597-.11.145-.187.299-.241.459-1.39 1.877-2.097 4.223-1.965 6.576-.152 1.568-.142 3.162-.068 4.745.02.431.136.79.313 1.088l-.086.545c-.426.041-.849.114-1.26.238-.801.125-1.554.363-2.278.784a2.04 2.04 0 0 0-.649.61c-.072.046-.142.098-.214.146-.251.09-.49.228-.712.413-1.068.66-1.839 1.829-2.334 2.939l-.014.035a5.56 5.56 0 0 0-.362.669c-.042.083-.091.16-.131.245a2.68 2.68 0 0 0-.254 1.035c-.142.973.035 1.981.455 2.867.367.772.998 1.378 1.734 1.799.472.862 1.383 1.438 2.366 1.665a5.25 5.25 0 0 0-.134 1.337c-.555 1.233-.74 2.675-.348 3.969.377 1.241 1.145 2.194 2.117 2.897l.148.216a5.4 5.4 0 0 0-.085.343c-1.057 1.238-.981 3.154.02 4.496.641.859 1.551 1.452 2.628 1.287.037.019.079.034.117.052a6.36 6.36 0 0 0 .118.814 36.91 36.91 0 0 1 .341 1.781c.119.739.398 1.462.844 2.066.471.638.998 1.23 1.512 1.833.338.396 1.005.624 1.508.624.523 0 1.148-.232 1.508-.624.373-.406.65-.94.624-1.508-.026-.59-.241-1.057-.624-1.507l-.926-1.096c-.061-.087-.118-.177-.17-.269-.127-.414-.188-.841-.252-1.271-.019-.127-.05-.251-.078-.375a1.78 1.78 0 0 0 .316-.655c.087-.382.107-.838-.016-1.233.047-.425.016-.867-.035-1.307.094-.016.189-.029.279-.056.268-.039.526-.111.767-.25l.619-.409a1.61 1.61 0 0 0 .598-.549c.014-.016.023-.037.038-.053.18-.137.337-.287.457-.456.018-.012.031-.025.05-.036a2.18 2.18 0 0 0 .765-2.916 5.93 5.93 0 0 1-.65-2.217 2.23 2.23 0 0 0-.022-.863c.016-.284.042-.569.101-.854.063-.301.062-.588.013-.855.144-.344.36-.664.647-.95.531-.527.667-1.2.544-1.827.844-2.579.497-5.434-.339-8.025-.02-.061-.051-.115-.077-.172a9.7 9.7 0 0 0 1.362.641c.403.152.819.264 1.241.343.047.035.089.076.139.107.57.351 1.114.347 1.736.281l.268-.028c.164.029.329.059.506.067.623.031 1.227-.084 1.808-.281.349-.02.684-.098 1.005-.234a4.33 4.33 0 0 0 1.482-1.033c.353-.374.679-.78.972-1.208a4.9 4.9 0 0 0 .777.419c.551.229 1.14.368 1.743.445 1.097.973 2.576 1.096 3.933.7.293.305.68.497 1.073.633.046.016.095.016.141.026l.183.135c.051.037.103.071.16.1.18.092.378.165.566.242.034.014.068.027.103.039.066.021.131.035.2.045l.08.013c.211.137.433.262.662.371a2.56 2.56 0 0 0 .803.229l.03.01a1.73 1.73 0 0 0 .451.362l.509.215a2.13 2.13 0 0 0 1.023.015c.157.019.315.03.472.021a1.61 1.61 0 0 0 .822-.183c.078-.026.147-.067.22-.104.096-.026.193-.049.284-.086-.015-.021-.024-.045-.036-.067.075-.057.151-.112.217-.183.208-.193.355-.422.441-.686a1.59 1.59 0 0 0 .183-.821l-.075-.567c-.013-.044-.036-.082-.052-.124-.302-.099-.618-.202-.857-.411a.67.67 0 0 1-.238-.486c0-.014.009-.025.009-.037a1.88 1.88 0 0 1-.297-.698c-.039-.002-.078-.007-.117-.004h-.036a.44.44 0 0 1 .008-.158c-.038-.023-.07-.057-.109-.078.003-.085.004-.171.012-.257l-.076-.567-.215-.509-.074-.096c.094-.132.196-.258.286-.393.766-.306 1.519-.636 2.274-.966.03.074.046.152.084.223.469.864 1.079 1.712 1.951 2.207 1.156.656 2.39.445 3.589.054a33.12 33.12 0 0 0 1.192-.414c2.044-.087 3.88-1.181 5.25-2.684.114.317.254.623.428.91.106 1.995 2.235 3.382 4.002 3.813 1.5.366 3.033.156 4.359-.472-.205.821-.326 1.684-.313 2.518a6.21 6.21 0 0 0 .213 1.459c-.064 1.319.355 2.619 1.314 3.687.251.279.557.521.882.739-1.217 1.101-1.745 2.952-1.336 4.56.097.377.258.747.447 1.105.066 1.071.435 2.146 1.246 2.864.11.098.233.179.354.263l.031 3.069c-.048.243-.074.492-.052.748l.217 2.524.084.978-.091 1.803c-.005.096.002.194.015.293-.002.043-.005.087-.008.129-.035.523.263 1.146.624 1.508.37.37.977.648 1.508.624.552-.025 1.123-.205 1.507-.624l.237-.307c.238-.178.481-.347.744-.488.067-.407.033-.833-.124-1.195l-.087-1.03.053-.517c.228-.349.377-.782.359-1.175-.003-.074-.017-.147-.026-.22.138-.334.205-.687.176-1.046l.289-.085c.927-.275 1.833-.576 2.5-1.319 1.483-1.653.99-3.766.155-5.575.296-.309.546-.667.751-1.049.451-.306.838-.713 1.073-1.171.477-.927.598-2.01.291-3.015-.201-.655-.528-1.215-.917-1.755-.101-.3-.221-.596-.383-.88-.017-.03-.041-.054-.059-.083.248-.081.492-.172.729-.283 1.501-.294 2.749-1.506 3.379-2.876.312-.679.663-1.42.803-2.163.232-1.234-.006-2.227-.784-3.21l-.003.003z" fill="#6d5333"/><path d="M95.389 18.301c.028.034.025.031 0 0z" fill="#6d5333"/><path d="M89.762 147.092c1.015-.485 1.359-2.008.771-2.919a2.27 2.27 0 0 0-.668-.677l-.076-.394-.353-1.835c-.11-.57-.514-1.007-1.013-1.269-.011-.75-.29-1.485-1.012-1.866-.335-.178-.697-.274-1.076-.291-.469-.021-1.207.241-1.508.624a5.86 5.86 0 0 0-1.293 3.185c-.097.931.053 1.897.263 2.802.355 1.53.931 3.028 1.611 4.454l.183.448c.054.118.131.217.199.324l.13.262c.334.638 1.012.985 1.703 1.024.811.167 1.686-.025 2.357-.69.793-.786.846-2.238 0-3.015-.069-.063-.144-.114-.218-.167z" fill="#fae6e1"/><path d="M89.569 155.956c.462.249 1.003.34 1.519.166.949-.322 1.75-.763 2.536-1.329.471-.041.937-.233 1.332-.587l.109-.109c.51-.327.955-.756 1.274-1.382.08-.157.135-.32.18-.483.193-.155.371-.337.529-.549 1.119-1.511 1.654-3.325 1.7-5.168.125-.733.175-1.48.15-2.233.001-.237-.006-.475-.037-.716l-.076-.566c-.04-.259-.146-.491-.297-.692-.128-.88-.441-1.692-1.065-2.435-.768-.914-1.641-1.756-2.459-2.625-.593-.63-1.699-.807-2.47-.39-.432-.177-.874-.329-1.321-.451-.01-.01-.016-.022-.026-.031-.384-.353-.963-.697-1.507-.624l-2.171.289-.333.048c-.536-.648-1.456-1.02-2.279-.809l-.444.114c-1.196.308-1.678 1.501-1.489 2.623.225 1.33-.071 2.741-.122 4.077-.053 1.397.147 2.792.445 4.155l.17.716.042.342.48 4.17c.006.122.052.215.111.293l-.024.318c-.474.739-.709 1.626-.773 2.502-.045.622.06 1.254.156 1.866l.135.78.045.261.027.257c.042.54.003 1.063-.015 1.602v.022l-.076.401-.198.773c-.381 1.276-.729 2.508-.364 3.84.027.1.07.192.112.286l-.435 2.072-.14.514a4.65 4.65 0 0 0-.29 2.849l-.01.194c-.175.866-.332 1.737-.366 2.613l-.156.995-.002.014-.079.566a1.51 1.51 0 0 0 .084.675l-.293 2.925c-.039.39.076.765.286 1.088-.002.067-.008.133.003.203.063.388.346.763.736.868.272.075.527.02.773-.076.017.002.034.009.051.011.676.08 1.465-.191 1.939-.725.125-.008.248-.023.372-.049l1.457-.268c.19.264.555.321.865.343.63.046 1.295-.086 1.944-.255.512.04 1.028.043 1.571-.07.774-.162 1.475-.507 2.123-.943.337-.007.675-.092.979-.286 3.243-2.065 4.34-6.237 2.686-9.669a1.53 1.53 0 0 0-.15-.237c-.767-2.362-2.139-4.489-4.152-6.049-.397-.307-.839-.522-1.297-.588-.248-.203-.579-.306-.898-.3-.044.001-.083.007-.125.011-.405-.132-.807-.26-1.185-.416l-.229-.098a3.98 3.98 0 0 1-.388-.203c-.165-.099-.253-.161-.375-.269a2.46 2.46 0 0 1-.179-.175 11.16 11.16 0 0 1-.338-.603c.036-.398.058-.795.045-1.189-.015-.421-.066-.84-.125-1.257.425-.173.821-.451 1.218-.66.188-.099.381-.189.573-.281l.001.003z" fill="#443e3d"/><path d="M76.474 56.539l-.172-.407a1.71 1.71 0 0 0-.612-.612l-.407-.172c-.302-.081-.605-.081-.907 0a2.01 2.01 0 0 0-.854.497c-.009.008-.016.015-.024.024a5.07 5.07 0 0 0-.285.367c-.013.018-.024.036-.033.056l-.091.216-.092.218c-.004.009-.007.02-.01.03l-.007.03-.062.464-.002.051c.007.152.07.52.064.48a.26.26 0 0 0 .017.065 1.27 1.27 0 0 0 .305.579c.12.186.28.332.478.44.196.124.407.191.635.202.226.051.453.041.679-.031l.408-.172c.257-.152.46-.356.612-.612l.14-.331c.015-.023.034-.042.048-.067.124-.196.192-.407.202-.634a1.28 1.28 0 0 0-.031-.68l.001-.001zm23.166.049c-.01-.093-.032-.352-.072-.512l-.018-.057-.197-.461a.55.55 0 0 0-.038-.06 1.28 1.28 0 0 0-.439-.478 1.28 1.28 0 0 0-.58-.306 1.3 1.3 0 0 0-.68-.03c-.227.01-.439.077-.635.202l-.345.267a1.71 1.71 0 0 0-.438.753l-.055.404c-.004.008-.01.013-.014.02-.125.196-.192.407-.202.635a1.28 1.28 0 0 0 .03.68l.172.408c.152.257.356.46.612.612l.407.172c.302.081.605.081.907 0 .164-.064.364-.123.517-.232.133-.093.267-.191.387-.301.017-.015.033-.032.048-.05.11-.132.247-.283.333-.444l.014-.027.18-.426.023-.066.016-.064a5.41 5.41 0 0 0 .068-.509c.004-.043.003-.086-.003-.129l.002-.001z" fill="#334f2b"/><path d="M92.563 86.893c-.464-.099-.886-.102-1.295-.051-.388-.065-.81-.036-1.216.054l-1.563.407c-.014.003-.018.006-.027.008l-.106-.004-.346-.012-.163-.016-.699-.096c-.148-.017-.294-.02-.442-.028-.893-.164-1.767-.255-2.684-.162l-.368.032-.186-.054-.433-.183c-.559-.215-1.129-.247-1.676-.091-.827-.34-1.91.368-2.098 1.191-.226.993.305 1.734 1.191 2.098.943.387 1.98.532 2.996.467l.468.064c.778.082 1.557.013 2.337.021.018 0 .037.002.056.003 1.08.224 2.141.416 3.244.249.441-.068.842-.197 1.261-.347l.442-.145c.056-.006.11-.005.167-.018.09-.02.17-.057.253-.09h.038c.857.158 1.835-.284 2.043-1.198.195-.859-.259-1.897-1.192-2.098l-.002-.001z" fill="#e9c3bb"/><g style="mix-blend-mode:darken" opacity=".25"><path d="M112.727 30.061l.001.003.001.001-.001-.003-.001-.001z" fill="#111119"/><path d="M136.986 99.915l-.781-.059c-1.762.033-3.536.108-5.271-.14l-2.802-.122-2.85-.141c-.065.048-.144.081-.248.081-.628-.006-1.25-.063-1.868-.143-.072.086-.172.146-.306.143-.47-.013-.924-.109-1.378-.219l-.15-.019c-.034.007-.064.02-.103.019-1.665-.016-3.287-.406-4.858-.936l-.637-.071-.579-.079-2.065-.176-.223-.01a1.99 1.99 0 0 0-.793-.229l-2.102-.091a.46.46 0 0 1-.024-.142.37.37 0 0 1-.24-.361c0-.369-.034-.732-.081-1.094a4.1 4.1 0 0 1-.136-.935c0-.042.012-.077.024-.114l-.688-2.512c-.147 0-.298-.067-.365-.204-.016-.033-.022-.071-.037-.104s-.027-.07-.038-.106c-.064-.156-.133-.31-.169-.475l-.035-.172c-.035-.11-.051-.222-.069-.335l-.021-.106c-.002-.048-.015-.08-.015-.113-.001-.073.022-.137.055-.197 0-.015.003-.031.004-.046a2.65 2.65 0 0 0-.375-.432l2.618-2.496c-.031-.099-.028-.205.04-.307l.685-1.073c.446-.937.969-1.84 1.49-2.734a.39.39 0 0 1 .152-.146l.115-.2c.154-.345.295-.694.405-1.053-.064-.088-.095-.205-.061-.347.151-.631.235-1.282.154-1.92-.117-.243-.262-.475-.434-.686l.236-2.026c.046.051.098.095.146.143-.038-.393.033-.812.116-1.167.034-.145.152-.235.286-.277l-.206-.068c-.502-.195-.318-.942.22-.823.069-.013.137-.016.204-.026.165.179.348.297.56.366a1.28 1.28 0 0 0 .657.147c.441-.02.899-.165 1.206-.5l.267-.345a1.7 1.7 0 0 0 .187-.517.38.38 0 0 1 .168.008l.127-.069a.49.49 0 0 1 .151-.04c.262-.571.546-1.13.893-1.656.017-.025.039-.039.058-.059l-.099-.79a6.11 6.11 0 0 1-.126-1.111c-.001-.11.038-.2.101-.27l.023-.278c.025-.171.17-.269.331-.296.109-.1.269-.134.417-.091.006-.006.008-.012.013-.019.025-.026.06-.034.091-.051.164-.356.386-.678.671-.928.129-.115.323-.134.479-.074.231-.16.478-.294.738-.395.299-.317.644-.58 1.018-.802l.275-1.48c.109-.757.141-1.522.112-2.286a.36.36 0 0 1-.122-.204c-.008-.039-.009-.075-.015-.114v-.003c-.047-.33-.02-.643-.005-.975-.323.017-.532-.452-.305-.736a5.05 5.05 0 0 1 .75-.734c.262-.519.583-1.009.982-1.431l.069-.159-.322-1.717-.109-.111-.124-.102c-.011-.032-.017-.068-.028-.101.066-.06.123-.129.187-.191l-.11-.764c-.087-.114-.118-.266-.064-.411a.36.36 0 0 1-.049-.156c-.152-.085-.254-.242-.219-.418-.22-.137-.317-.481-.093-.666l.686-.513c.032-.08.084-.153.161-.207a6.06 6.06 0 0 1 1.136-.602l.034-.026c.639-.574 1.27-1.215 2.045-1.587l.603-1.23.04-1.133-.019-.83-.344-2.44c-.337-.46-.806-.797-1.318-1.094-.165-.101-.214-.257-.196-.403-.534-.014-1.041-.171-1.47-.513l-.194-.044c-.009-.003-.016-.006-.024-.009a2.71 2.71 0 0 1-.478-.212l-.031-.014c-.012-.007-.017-.016-.028-.023a2.89 2.89 0 0 1-.413-.302c-.887-.537-1.292-1.775-1.496-2.758a.39.39 0 0 1-.014-.134c-.044-.049-.079-.108-.094-.193l-.093-.513c-.354-1.066-.473-2.19-.668-3.293-.041-.233.088-.403.254-.482l-.106-1.527-.093-1.204-.382-2.225a.46.46 0 0 1 .075-.347l-.029-.239c-.318-.504-.507-1.093-.591-1.698-.008-.058-.003-.109.004-.158l-1.483-2.894c-.012-.021-.013-.042-.022-.063l-.179-.281-2.996-2.397c-.104-.084-.14-.188-.134-.293l-.301-.251c-.079-.067-.112-.149-.122-.234-.01-.008-.012-.019-.021-.028l-1.488-.344c-.58-.023-1.154-.107-1.731-.175l-.411-.017-.722.216c-.032.041-.073.076-.124.104-.026.09-.088.17-.194.218-.929.413-1.995.876-2.907 1.501l-.51.487-.236.402c-.903 1.698-.062 3.303 1.23 4.055.786.629 1.996.863 2.975.523.16.021.323.038.496.031l.455-.019c.053.029.095.069.151.094l.697.283.294.208.018.014.277.244.066.068.034.053c.112.344.267.669.492.948.338 1.144.489 2.435.567 2.884l.475 2.219c-.057 1.725-.069 3.45.303 5.139-.052.416-.144.805-.306 1.208-.298.749-.723 1.468-1.12 2.168l-.589.963-.185.264-.285.333-.358.354-.085.089-.093.054-.362.211-.238.113c-.027.011-.052.027-.079.039.031-.242.084-.483.148-.725-.398.208-.866.264-1.323.217a.53.53 0 0 1-.231-.084l-.429.106c.011.137-.044.275-.212.356-1.183.562-2.551.361-3.574-.432l-.007-.005-.089-.064c-.087-.072-.11-.18-.109-.29-.478-.02-.922-.245-1.294-.546-.475-.386-.876-.876-1.23-1.403l-.1-.073-.081-.06-.056-.045c-.458-.334-.846-.762-1.106-1.314-.045-.095-.046-.182-.031-.264-.283.361-.592.701-.939 1.007-.839.739-1.811 1.177-2.843 1.403-.575.24-1.167.423-1.781.524-1.15.19-2.313.062-3.353-.481-.271-.142-.522-.31-.76-.495l-.179-.049c-.105.118-.259.193-.413.127-.886-.372-1.578-1.056-1.998-1.897l-1.421.708-.168.552c.091.15.108.347-.041.514a.44.44 0 0 0-.087.16l-.048.582c-.004.382-.411.492-.661.343.132.507.424.951.816 1.306l.026.058a.41.41 0 0 1 .213.049c.632.344 1.165.865 1.773 1.249.83.524 1.827.782 2.797.889 3.5.388 7.1-1.037 10.493.355.805.33 1.569.797 2.315 1.241l.958.58c1.835 1.999 2.664 4.691 2.972 7.372.235 2.049.265 4.107.336 6.162l-.008.465.044 5.088c.02 2.952.008 5.946-.432 8.871l-.02.775c0 .036-.012.065-.02.096.013.058.018.12.005.184a23.97 23.97 0 0 1-.319 1.391v.002c-.196 1.536-.638 2.985-1.776 4.233-1.942 2.131-4.053 4.119-6.274 5.962-3.639 3.545-7.406 6.955-11.265 10.26-.372.36-.732.732-1.098 1.099l-.015.597c.019.108.036.214.066.325a10.85 10.85 0 0 0 .441 1.234.39.39 0 0 1 .167-.117c.066-.155.205-.284.385-.284.585.001 1.115.058 1.652.273.537-.117 1.087-.178 1.641-.215.042-.073.086-.145.123-.22a2.49 2.49 0 0 0 .382-.231c.709.498 1.583.762 2.428.59 2.716-.551 4.221 2.545 5.152 4.906.334 1.216.75 2.415 1.285 3.589.124.275.285.498.46.691.132.291.281.572.418.86.037-.202.068-.404.116-.604a.36.36 0 0 1 .007-.202c.049-.145.108-.287.161-.431.029-.099.066-.196.097-.294.52.225 1.128.31 1.811.177l17.308-3.387c4.354-.853 10.846-1.037 13.946-4.718 1.437-1.706 1.835-3.969.963-5.76l-.003.001z" fill="#111119"/></g><path opacity=".5" d="M73.387 80.106c9.628 0 17.433-5.82 17.433-12.999s-7.805-13-17.433-13-17.434 5.82-17.434 13 7.805 12.999 17.434 12.999z" fill="url(#B)"/><path opacity=".5" d="M101.655 80.48c9.436 0 17.086-5.82 17.086-12.999s-7.65-13-17.086-13-17.087 5.82-17.087 13 7.65 12.999 17.087 12.999z" fill="url(#C)"/><path d="M62.513 101.11c-7.831 3.385-16.693 2.678-24.767 5.178-7.053 2.184-13.287 6.647-18.054 12.24-5.236 6.143-8.681 13.618-10.534 21.445-.976 4.126-1.535 8.353-1.739 12.587-.224 4.656.039 9.322-.299 13.975-.33 4.545-1.128 9.037-2.183 13.466-.529 2.221-1.119 4.428-1.734 6.625l-1.826 6.607-.945 3.235c-.157.529.648.743.822.227 1.45-4.307 2.976-8.569 4.159-12.961 1.173-4.359 2.145-8.773 2.731-13.251.604-4.606.576-9.206.599-13.841.02-4.288.3-8.563 1.047-12.79 1.411-7.984 4.335-15.771 9.187-22.315 4.349-5.865 10.243-10.702 17.063-13.39 7.727-3.046 16.242-2.598 24.075-5.215a33.61 33.61 0 0 0 2.826-1.09c.499-.218.067-.945-.428-.732zm6.95-2.672c3.099 1.007 2.336 5.102 1.529 7.391-.974 2.764-1.762 5.284-.693 8.153.992 2.663 2.868 4.852 4.176 7.349 1.57 3.002 1.931 6.387 1.832 9.728-.098 3.301-.576 6.574-.903 9.856-.358 3.602-.619 7.214-.798 10.829-.355 7.173-.403 14.358-.298 21.537l1.158 43.365c.186 14.431-.177 28.952-2.406 43.234-2.175 13.942-6.676 27.746-6.332 41.985a46.01 46.01 0 0 0 .4 5.071c.061.45.795.336.786-.106-.16-7.338.539-14.526 1.837-21.744 1.291-7.167 2.978-14.256 4.245-21.427 2.528-14.317 3.132-28.877 2.95-43.39-.183-14.664-1.126-29.304-1.428-43.964-.153-7.383-.165-14.771.128-22.151.145-3.615.36-7.23.666-10.836.295-3.481.787-6.949 1.01-10.437.201-3.135.104-6.37-.886-9.378-.941-2.856-2.813-5.175-4.279-7.759-.749-1.32-1.384-2.741-1.506-4.271-.131-1.652.414-3.207.958-4.739.835-2.355 1.594-4.953.284-7.303a3.8 3.8 0 0 0-2.203-1.814c-.523-.17-.747.652-.227.821zm35.652.669c1.991 2.482.499 5.866-.693 8.358-1.251 2.613-2.404 5.133-2.952 8.003-1.135 5.943-.279 12.118.757 18.012 1.173 6.663 2.386 13.218 2.503 20.007.121 7.008-.482 14.004-.951 20.989-.918 13.666-1.336 27.399-.405 41.076.459 6.749 1.243 13.484 2.461 20.139 1.227 6.695 3.044 13.242 4.682 19.842 1.68 6.769 2.921 13.545 3.147 20.53.225 6.927-.236 13.889.375 20.8a30.07 30.07 0 0 0 .835 4.832c.119.464.863.375.845-.114l-.445-10.447c-.062-3.504-.001-7.008-.014-10.512-.026-6.904-.618-13.656-2.08-20.409-1.448-6.693-3.418-13.26-4.872-19.95-1.491-6.863-2.502-13.825-3.127-20.818-1.233-13.781-1.008-27.651-.203-41.45.411-7.034 1.054-14.062 1.1-21.113.043-6.759-.746-13.328-2.005-19.956-1.183-6.227-2.567-12.574-1.965-18.947.303-3.202 1.231-6.148 2.592-9.049 1.083-2.304 2.467-4.915 2.16-7.546-.122-1.053-.598-1.932-1.335-2.687-.267-.273-.638.125-.41.41zm51.557 7.697l2.748 3.012 2.496 3.049a68.59 68.59 0 0 1 4.332 6.447c2.681 4.523 4.851 9.356 6.484 14.353 1.622 4.964 2.734 10.105 3.331 15.293a79.58 79.58 0 0 1 .515 7.912c.047 3.02-.144 6.031-.227 9.048-.173 6.284.423 13.189 5.017 17.953.635.659 1.634-.344 1.003-1.004-4.032-4.214-4.692-10.343-4.609-15.904.046-3.053.268-6.101.256-9.156-.01-2.672-.155-5.344-.433-8.002-1.093-10.424-4.225-20.72-9.541-29.78-1.478-2.52-3.122-4.936-4.936-7.226-.909-1.149-1.853-2.27-2.836-3.356s-1.969-2.206-3.115-3.123c-.343-.276-.771.141-.485.484z" class="B"/><path d="M27.193 112.938l-.072-.052a.44.44 0 0 0-.603 0c-.822.656-1.063 1.705-1.175 2.704-.151 1.35-.141 2.736-.153 4.093-.025 2.802.085 5.608.356 8.398a84.52 84.52 0 0 0 3.307 16.615l1.538 4.437a51.9 51.9 0 0 0 .883 2.1c.34.763.627 1.587 1.078 2.29.211.33.739.123.64-.27-.161-.63-.452-1.215-.676-1.824l-.715-2.023-1.311-3.889-2.14-7.928a84.91 84.91 0 0 1-1.913-16.146 82.36 82.36 0 0 1 .02-4.498c.036-1.137-.029-2.602.863-3.457.099-.094.166-.281.11-.414-.016-.038-.007-.111-.039-.136zm127.35-5.71c-.385.72-.464 1.525-.605 2.323l-.448 2.502-.96 5.098-2.122 9.953c-1.54 6.642-3.331 13.227-5.367 19.735-1.151 3.682-2.489 7.33-3.466 11.061-.093.356.449.616.615.259 1.424-3.07 2.475-6.335 3.502-9.558a272.99 272.99 0 0 0 2.961-9.95c1.827-6.601 3.44-13.275 4.728-20.003l1.03-5.712.466-2.917c.136-.901.356-1.821.188-2.724-.045-.243-.412-.276-.523-.068l.001.001zM83.63 135.227c-.639.191-.708.813-.873 1.397-.222.788-.383 1.587-.491 2.398-.209 1.559-.216 3.129-.126 4.699l.946 9.726c.29 6.518-1.725 12.815-2.291 19.261-.103 1.173-.842 9.209 1.883 8.095.29-.118.372-.589 0-.674-.485-.111-.672-.794-.74-1.221-.121-.759-.142-1.549-.16-2.316-.037-1.492.047-2.984.203-4.467.324-3.08.951-6.117 1.459-9.169.497-2.981.897-5.997.808-9.026s-.623-6.031-.918-9.049c-.163-1.655-.271-3.318-.184-4.981.044-.838.143-1.672.314-2.495.143-.687.636-1.507.239-2.151-.014-.022-.043-.035-.069-.027zm3.148.907c.491.226.972.114 1.496.065.588-.054 1.197-.018 1.784.032 1.14.099 2.286.414 3.323.898 2.105.981 3.871 2.676 4.769 4.836.927 2.229.942 4.778.188 7.058-.813 2.455-2.595 4.461-4.897 5.627-.655.332-1.345.585-2.056.763-.761.19-1.54.242-2.308.389-.69.131-1.345.37-1.897.813-.569.458-.769 1.009-.744 1.727.014.41.558.464.693.094.19-.519.865-1.037 1.363-1.247.746-.315 1.596-.333 2.385-.464 1.373-.229 2.706-.74 3.892-1.465a10.97 10.97 0 0 0 4.748-6.075c.765-2.431.718-5.16-.243-7.53-.935-2.309-2.708-4.171-4.931-5.286-1.25-.627-2.595-1.01-3.989-1.124-.692-.057-1.364-.008-2.048.093-.587.086-1.212.175-1.555.701-.019.03-.008.08.025.095h.002z" class="B"/><path d="M87.87 159.22c.011 1.115 1.12 1.473 2.014 1.769 1.079.356 2.099.854 3.015 1.532 1.855 1.374 3.253 3.356 4.057 5.509.836 2.244 1.264 5.061-.017 7.226-.657 1.109-1.733 1.852-2.838 2.469-1.251.7-2.603 1.496-4.067 1.564-1.507.071-2.994-.311-4.5-.104-1.063.146-2.872.687-2.88 2.002-.001.266.276.497.54.411.518-.169.835-.551 1.318-.786.529-.257 1.135-.364 1.72-.393 1.469-.073 2.924.296 4.393.103 1.421-.186 2.728-.929 3.966-1.612 1.15-.636 2.255-1.394 3.053-2.454 1.599-2.125 1.566-5.025.906-7.49a13.79 13.79 0 0 0-3.428-6.053c-.928-.946-2.033-1.743-3.241-2.29-.604-.274-1.224-.466-1.869-.611-.539-.121-1.353-.28-1.567-.87-.108-.297-.579-.27-.575.078zm-3.444-24.423c-.082-.058-.143-.106-.245-.119a2.36 2.36 0 0 0-.325-.019l.14.038c-.098-.049-.177-.082-.289-.079-.355.009-.458.457-.175.647.082.056.18.146.292.199a2.33 2.33 0 0 0 .4.137c.239.063.488.103.735.118.486.03.985-.047 1.435-.234l-.603-.46c.007.093.016.186.038.277l.027.096c-.011-.044.009.046.01.062.006.098.007.2.046.292.01.036.028.068.054.094.04.04.049.053.025.038a.88.88 0 0 0 .032.078c.136.28.527.171.614-.08.048-.137.111-.271.083-.448.007-.054.003-.066-.011-.036l.014-.096c.014-.096.024-.181.02-.277-.01-.281-.301-.577-.604-.46-.194.075-.394.132-.598.176l-.175.033c-.112.021.052-.001-.051.007l-.335.018a4.02 4.02 0 0 1-.311-.01l-.154-.016c.08.011-.065-.013-.081-.016-.102-.019-.202-.05-.304-.073-.112-.026-.257-.033-.33-.052v.669c.108-.036.176-.081.254-.164l-.124.072c.112-.039.225-.08.33-.138.087-.049.13-.119.186-.2.017-.026.002-.058-.02-.074zm5.965.324c.416.149.917-.053 1.33-.16l1.562-.433a23.22 23.22 0 0 0 2.896-1.131 24.7 24.7 0 0 0 2.69-1.463l1.345-.904c.385-.278.896-.555.965-1.066.04-.294-.108-.508-.411-.539-.5-.052-.863.335-1.239.61l-1.186.82a27.91 27.91 0 0 1-2.652 1.529l-2.756 1.222-1.36.485c-.433.137-.994.187-1.317.528-.164.172-.08.425.132.502h.001zm7.239 4.668l.066-.018-.224-.029c.256.128.423.082.673-.028l.542-.227a12.84 12.84 0 0 0 1.019-.503l.947-.558.489-.321c.198-.134.423-.286.472-.538l-.112.191c.031-.033.064-.064.101-.09.37-.305-.106-.89-.505-.654-.038.025-.078.047-.121.064l.334-.044c-.43-.072-.773.254-1.117.472l-.966.594-.948.555-.475.274c-.229.126-.399.211-.467.485l.133-.174-.057.038c-.257.169-.1.6.216.511z" class="B"/><path d="M83.444 135.136l-1.136-.525-1.131-.481-1.099-.458-.594-.24c-.238-.095-.432-.102-.689-.067h.236c-.139-.018-.248-.034-.384.011-.227.074-.333.319-.217.533.229.42.684.554 1.102.718l1.238.468 1.198.442 1.251.421c.216.081.468-.091.525-.298.067-.245-.085-.436-.298-.524h-.002zm-.655 6.123c-.166.01-.332-.024-.501-.016l-.547.026a8.72 8.72 0 0 1-1.06-.018c-.684-.05-1.358-.203-2-.441-.327-.121-.874-.203-1.051.2-.198.451.353.799.699.918a8.32 8.32 0 0 0 2.14.426 6.92 6.92 0 0 0 1.187-.023 4.78 4.78 0 0 0 .64-.099l.285-.079c.112-.039.203-.112.308-.153.174-.069.3-.216.27-.413-.027-.175-.18-.339-.37-.328zm29.808 8.035c.217 1.428-.139 2.802-.155 4.226-.013 1.148.317 2.201 1.054 3.089 1.413 1.705 3.777 2.404 5.875 2.767 1.556.269 3.137.44 4.717.467 1.526.025 3.046-.097 4.569-.163 1.597-.068 3.152-.018 4.721.302 1.315.268 2.687.502 3.948-.105 1.369-.659 1.7-2.031 1.736-3.432l.043-2.631c.015-.877.051-1.722-.216-2.567-.125-.391-.646-.372-.778 0-.465 1.314-.305 2.831-.328 4.208-.019 1.069.174 2.572-.913 3.194-1.079.618-2.4.218-3.532-.004-1.409-.277-2.836-.324-4.267-.27-2.856.109-5.66.32-8.513-.012-2.046-.237-4.414-.61-6.006-2.042-.93-.836-1.31-1.922-1.245-3.163.071-1.368.498-2.808-.155-4.097-.168-.332-.602-.08-.554.234l-.001-.001z" class="B"/><path d="M114.322 149.073c.543-.674 1.486-.591 2.269-.585l3.097.094 6.49.553 6.375.943 3.142.601 1.614.348c.499.113 1.03.276 1.532.117.365-.115.53-.598.232-.88-.6-.565-1.631-.612-2.411-.767l-2.641-.491-5.278-.741c-3.594-.403-7.195-.563-10.809-.609-1.322-.017-3.177-.204-3.93 1.171-.106.193.169.433.319.247l-.001-.001zm.031 11.36c-.331 2.074-.476 4.195-.655 6.288l-.441 6.407-.139 3.155c-.025.821-.051 1.648.117 2.456.141.677.454 1.332 1.005 1.767.723.569 1.652.579 2.53.631l12.805.757c1.572.092 3.577.448 4.869-.707s1.028-3.156 1.038-4.711a69.41 69.41 0 0 1 .402-7.046l.484-3.548s.461-2.34.612-3.521c.078-.615-.879-.693-1.048-.142-.557 1.818-.782 3.783-1.031 5.665l-.517 5.79-.074 2.906c-.003.808.072 1.648-.05 2.45-.114.755-.467 1.397-1.225 1.648-.7.232-1.465.177-2.19.136l-11.853-.675-2.911-.167c-.795-.059-1.384-.334-1.658-1.115-.229-.652-.22-1.365-.205-2.046l.071-2.945a200.21 200.21 0 0 1 .31-6.619l.533-6.708c.024-.438-.708-.55-.779-.106zm12.812-6.316c-.048-.027-.107-.051-.148-.071l.107.139c-.052-.135-.131-.227-.276-.261-.034-.008-.071-.006-.104-.013-.043-.011.028 0 .028 0-.076-.035-.177-.024-.256-.012a1.1 1.1 0 0 0-.441.169c-.275.19-.505.445-.642.752-.292.65-.214 1.435.366 1.905.522.424 1.268.551 1.904.324.318-.114.621-.292.838-.555a2.07 2.07 0 0 0 .458-1.057c.11-.821-.239-1.785-.959-2.239-.232-.146-.494-.029-.643.169-.2.266-.465.554-.533.885-.039.191.116.358.312.312.188-.045.326-.147.481-.257l.478-.37h-.665l.138.147c.035.038.123.101.136.151l-.035-.046.041.054.056.085a2.18 2.18 0 0 1 .1.177c.013.027.035.062.042.092-.027-.122-.01-.021.001.009a1.9 1.9 0 0 1 .059.195c.012.048.053.15.039.198.021-.077-.009-.074-.004-.011l.007.116-.006.2-.004.033c-.006.054-.005.045.005-.03.006.005-.017.089-.019.098-.015.064-.033.127-.055.19-.006.016-.013.05-.024.061.028-.065.031-.072.009-.025-.009.02-.02.04-.031.059s-.08.169-.107.17l.039-.05-.038.045-.062.064-.065.059c-.058.056.018-.017.029-.019-.051.009-.127.086-.174.112l-.079.04c-.093.049.106-.037.006-.002l-.17.055-.145.034-.029.005c-.052.007-.039.006.039-.005-.029-.01-.088.007-.119.008-.059.003-.118.002-.177-.002-.027-.002-.061-.012-.088-.009.112-.01.06.009.009-.002a1.45 1.45 0 0 1-.141-.035l-.082-.029c-.077-.025.096.048-.021-.01-.052-.025-.099-.057-.149-.087-.085-.052.077.07.002.003l-.064-.058c-.012-.012-.103-.1-.097-.108 0 0 .06.087.002-.004l-.058-.104c-.047-.089.028.096.002 0l-.025-.084c-.003-.012-.008-.078-.017-.085.026.02.008.096.006.033v-.175c.008-.108.01 0-.002.001.002 0 .021-.105.024-.116l.024-.085.02-.056c.017-.044.014-.038-.011.022 0-.045.06-.123.082-.159l.048-.075.034-.049-.013.018.143-.147.022-.019c.036-.029.03-.024-.018.014 0-.008.065-.042.072-.047l.166-.106.025-.012c-.075.031-.058.024.05-.022a.61.61 0 0 0 .098-.078c-.019.02-.041.033-.068.04l.027-.009c.056-.017.105-.045.146-.086.053-.051.079-.108.103-.175l-.162.163c.038-.013.072-.018.112-.021.17-.012.255-.242.091-.335v.006zm-86.237-.521c-.232 1.128.2 2.38.416 3.496l.729 3.736a.57.57 0 0 0 .547.416c3.347-.181 6.692-.581 10.005-1.084a122.66 122.66 0 0 0 5.036-.873l2.249-.461c.675-.148 1.357-.353 1.821-.898.877-1.027.818-2.694.973-3.959l.282-2.314c.082-.672.367-1.594.017-2.233-.308-.56-.915-.587-1.476-.468-.868.185-1.726.425-2.591.62a94.38 94.38 0 0 1-4.827.952 94.37 94.37 0 0 1-5.527.776c-1.835.203-3.684.273-5.517.481-.681.078-.721 1.086 0 1.093 1.497.015 3.008-.151 4.497-.295a95.31 95.31 0 0 0 4.43-.534 95.03 95.03 0 0 0 8.754-1.683c.338-.082.784-.116 1.094-.271.152-.075.218.01.126-.094.055.062-.002.32-.009.394-.07.772-.188 1.543-.282 2.313l-.282 2.313c-.073.598-.095 1.262-.354 1.817-.277.594-.854.718-1.443.847a90.17 90.17 0 0 1-2.249.46 121.58 121.58 0 0 1-4.52.793c-3.389.529-6.79.877-10.206 1.173l.547.416-.825-3.6c-.252-1.101-.367-2.45-1.03-3.381-.096-.134-.344-.141-.384.052zm2.173 9.051c-.276.446-.318.686-.314 1.21l.004 1.681.114 3.254.497 6.388.776 6.103c.152.763.449 1.535 1.061 2.047.679.567 1.577.754 2.43.877 1.956.281 3.917.073 5.87-.135l3.025-.243 1.458.014c.492.028.991.135 1.485.123 2.042-.048 1.902-2.208 1.826-3.678L61 173.833l-.369-7.195-.525-7.309c-.082-.498-.81-.34-.837.113-.12 1.973.064 3.955.165 5.926l.311 6.031.305 5.926.153 2.963c.032.633.274 1.742-.142 2.305-.229.311-.66.253-.999.219l-1.428-.114c-.911-.027-1.822.027-2.728.108l-5.451.415c-.883-.013-1.788-.085-2.639-.334-.83-.242-1.27-.766-1.483-1.589-.228-.883-.31-1.816-.432-2.718l-.369-2.983-.589-6.596-.202-3.359-.089-1.576c-.013-.253.02-.543-.03-.792-.046-.233-.208-.433-.338-.628-.044-.067-.141-.071-.184 0v.001zm28.63-23.216c-.053-.082-.08-.102-.097-.203-.02-.117-.132-.2-.236-.236-.145-.049-.305-.079-.455-.035-.17.051-.324.166-.46.276-.23.185-.426.427-.566.685-.334.619-.658 1.412-.385 2.112a1.73 1.73 0 0 0 1.333 1.066 1.56 1.56 0 0 0 1.592-.731 1.81 1.81 0 0 0 .263-.931c0-.167-.028-.332-.086-.488-.08-.213-.171-.347-.363-.475-.289-.192-.593.123-.538.413.003.017.014.08 0 0 .008.052.002.087.019.148.011.041.037.079.051.119.023.062-.015-.059-.002.005l.029.129c-.016-.097.003.058.005.091.003.044.003.088 0 .133l-.006.076c.009-.09.003-.024-.002-.004l-.037.148-.019.055c-.014.048.031-.054-.008.019l-.073.134-.031.047c-.035.057.042-.047 0 .002l-.091.097-.056.051c.047-.04.012-.009-.019.01l-.117.066c.071-.035-.052.016-.081.023a1.87 1.87 0 0 1-.076.017l.017-.002c-.059.005-.117.002-.176.003-.016 0-.086-.008-.003.004l-.077-.015c-.045-.009-.09-.024-.134-.036l-.056-.02c.069.025.007.003-.007-.003l-.156-.088-.038-.024c.036.026-.015-.014-.019-.016l-.113-.11c-.009-.009-.054-.063-.009-.005l-.034-.048-.087-.154c.033.07-.012-.042-.018-.065a.78.78 0 0 1-.023-.135c-.009-.138.006-.248.036-.374.066-.267.179-.516.302-.759a1.53 1.53 0 0 1 .411-.527l.014-.012a.79.79 0 0 1 .085-.057l.068-.038c.023-.011.023-.012 0-.003-.051.02-.022.008.086-.036.04-.024.075-.06.111-.088-.031.024-.036.016-.002.003.059-.021.015-.012 0-.004.088-.046.147-.086.221-.159l-.163.021a.45.45 0 0 1 .095.066c.092.08.252-.023.178-.138h.003zm-7.888-48.032c-.78 7.982-.75 16.09 1.662 23.811.148.475.797.359.837-.113l.543-6.322.255-2.951c.081-.955.106-1.938.271-2.883.268-1.542.886-3.001 1.125-4.551.266-1.721.004-3.361-.969-4.826-.303-.456-1.041-.029-.736.43 1.022 1.539 1.126 3.214.728 4.979-.325 1.44-.881 2.829-1.051 4.302-.453 3.924-.678 7.887-1.017 11.823l.838-.114c-2.391-7.653-2.405-15.674-1.632-23.584.054-.546-.8-.542-.852 0l-.002-.001zm41.302 2.747l.195 2.742c.018.222.182.437.426.426.215-.009.447-.188.426-.426l-.194-2.742c-.013-.223-.187-.438-.426-.427-.221.01-.441.188-.427.427zm.127 5.961c1.529 1.252 1.943 3.02 2.103 4.908.158 1.852.223 3.7.973 5.431.183.421.771.162.795-.215s.228-1.524-.224-1.76c-.191-.099-.481-.063-.583.153-.211.443-.066 1.144-.046 1.606.021.475.699.586.837.114 1.808-6.193 1.046-12.843-.613-18.98-.143-.529-.966-.304-.822.227 1.62 5.993 2.379 12.477.613 18.527l.838.113-.032-.954c0-.087.012-.181.002-.266-.013-.103.075-.2-.041.044l-.583.152.004.003-.196-.255c.083.236.016.917-.007 1.275l.794-.214c-1.491-3.443.04-7.85-3.21-10.512-.421-.346-1.027.255-.603.603h.001zm7.218-1.932c.472.39.998.505 1.596.614l2.267.378 4.065.565 8.55.799 8.502.283c2.774.112 5.405.653 8.021 1.573l4.197 1.615c.951.393 2.278.925 2.767 1.891.198.392.782.112.688-.29-.249-1.067-.918-1.872-1.882-2.381-1.099-.58-2.301-.997-3.456-1.446-2.615-1.018-5.292-1.853-8.094-2.14-2.869-.294-5.774-.16-8.652-.243l-8.769-.488-4.989-.528-2.581-.325c-.743-.103-1.479-.272-2.197-.004-.049.018-.083.088-.035.128l.002-.001zm-82.332 48.707c.007.004.013.008.02.011-.021-.011-.004 0 .002.004.01.032.005-.004.005.014 0 .036.006-.004 0 .017-.003.012-.004.029-.012.039.013-.016.005-.012 0-.003s-.007.014-.011.02-.011.013-.013.019c.003-.01.013-.016.001-.002-.005.006-.01.011-.016.017-.02.019.013-.006-.002.001l.129.016c-.031-.028-.061-.056-.103-.066a.33.33 0 0 0-.062-.006c-.014 0-.026 0-.039-.001l.054.007a.32.32 0 0 1-.052-.016l.05.022c-.026-.012-.05-.025-.072-.042l.045.035a.45.45 0 0 1-.075-.076l.038.049-.014-.019.025.059v-.006l.008.066c.002-.063-.014-.12-.048-.173l-.033-.056c-.021-.04-.039-.08-.056-.121l.03.071-.024-.059c-.015-.051-.04-.096-.078-.134l-.061-.048c-.081-.052-.184-.051-.27-.015a.29.29 0 0 0-.161.16c-.035.084-.039.192.015.27l.143.19.055.059c.025.024.052.051.081.067a.35.35 0 0 0 .155.039l-.067-.009h.007l-.059-.024c.087.062.187.096.293.107a.41.41 0 0 0 .14-.012c.026-.008.055-.017.078-.033a.2.2 0 0 0 .089-.116c.012-.043.006-.083-.005-.125l-.011.082.031-.041a.45.45 0 0 0 .027-.048.34.34 0 0 0 .033-.136c.002-.098-.055-.176-.146-.209-.038-.014-.084.013-.098.049s-.003.084.034.104l-.001.002zm76.274-38.704c.055 0 .055-.086 0-.086s-.055.086 0 .086zm-87.269 39.171c.013 0 .013-.021 0-.021s-.014.021 0 .021zm129.034-7.213a54.72 54.72 0 0 0 6.941-2.796c2.211-1.072 4.503-2.225 6.382-3.827.298-.254-.082-.652-.392-.508-2.192 1.018-4.251 2.333-6.423 3.403l-6.735 2.906c-.504.19-.302.994.227.822zm-.6 1.391c.127.099.189.242.309.347.132.116.268.2.42.287l.868.523 1.635.965 1.656.93.917.439c.275.117.522.247.826.178a.24.24 0 0 0 .165-.291c-.096-.291-.329-.436-.568-.61l-.847-.557-1.651-.938-1.671-.903-.896-.474c-.145-.081-.281-.155-.44-.205s-.327-.037-.484-.096c-.221-.083-.425.259-.236.407l-.003-.002zM20.501 161.018c.359.291.803.347 1.244.451l1.615.313 3.185.39c2.157.196 4.328.265 6.493.206l1.546-.065c.137-.004.576-.078.623.125.034.143-.181.351-.263.438-.321.338-.766.507-1.176.706l-1.53.74-3.05 1.495-1.502.788c-.46.243-.93.467-1.287.857-.129.141-.05.426.17.409.88-.067 1.74-.583 2.529-.949l2.777-1.333 2.67-1.307c.615-.303 1.256-.711 1.519-1.379a1.07 1.07 0 0 0-.57-1.421c-.354-.156-.739-.12-1.115-.098l-1.443.069a54.86 54.86 0 0 1-5.876-.113l-3.282-.334-1.631-.211c-.506-.052-1.071-.218-1.568-.067-.113.035-.183.203-.078.29zm38.342-96.172a314.21 314.21 0 0 0 .862 11.492c.334 3.501.36 7.171 2.445 10.163.976 1.402 2.129 2.686 3.257 3.965 1.183 1.342 2.396 2.657 3.637 3.946 2.467 2.558 5.022 5.102 7.78 7.348 2.656 2.164 6.442 4.6 9.998 3.275.628-.233.381-1.103-.275-.996-3.236.532-6.077-.973-8.541-2.938-2.642-2.109-5.075-4.536-7.434-6.953-2.347-2.404-4.69-4.883-6.748-7.541-1.022-1.319-1.728-2.737-2.083-4.37-.36-1.657-.449-3.371-.612-5.056a342.07 342.07 0 0 0-1.433-12.335c-.071-.526-.886-.563-.853 0zm53.851.356c-.48.597-.355 1.329-.373 2.068l-.032 2.631-.004 5.262-.008 5.196c-.019 1.581-.143 3.175-1.001 4.547-.852 1.362-2.125 2.496-3.235 3.643l-3.715 3.8-7.403 7.334c-2.25 2.183-4.763 5.156-8.159 5.214-.836.015-.836 1.281 0 1.299 3.055.066 5.511-2.167 7.564-4.161l7.767-7.706 3.788-3.875 3.662-3.845a7.85 7.85 0 0 0 1.866-4.267c.213-1.742.115-3.534.099-5.285l-.106-6.104-.112-3.157c-.045-.848.116-1.923-.46-2.594-.032-.037-.106-.038-.137 0h-.001zm-15.685 40.273c-.212.552-.154 1.189-.205 1.77a12.55 12.55 0 0 1-.364 1.999c-.337 1.333-.879 2.587-1.51 3.805l-1.833 3.456-.782 1.8c-.253.579-.441 1.112-.496 1.747-.021.245.299.268.417.112.417-.556.687-1.154 1.001-1.771l1.019-1.778 1.829-3.683c.517-1.203.984-2.462 1.237-3.75.125-.638.204-1.288.218-1.938.011-.596.01-1.288-.347-1.794-.052-.074-.151-.058-.182.023l-.002.002zm-19.411 1.37c.189 2.694.961 5.282 1.95 7.786.487 1.234 1.043 2.433 1.689 3.592.57 1.021 1.23 2.098 2.346 2.59.381.168.866-.308.488-.633-.89-.764-1.512-1.714-2.078-2.733l-1.663-3.354c-1.014-2.344-1.646-4.839-2.267-7.311-.064-.253-.483-.207-.465.063zm-2.862-20.174c.33.554 1.254.694 1.839.79a14.89 14.89 0 0 0 2.27.193l4.819-.158c.79.014 1.546.122 2.311.315.825.207 1.624.357 2.473.198.819-.154 1.565-.565 2.386-.707.874-.151 1.801-.026 2.677.051 1.497.133 3.55.16 4.543-1.204.224-.309-.197-.616-.478-.478-.654.319-1.231.552-1.971.581-.733.028-1.468-.057-2.193-.149-.819-.104-1.635-.211-2.46-.119-.785.088-1.485.377-2.232.612-.809.255-1.495.184-2.309-.008-.761-.179-1.522-.306-2.304-.335-1.499-.055-2.982.172-4.466.345-.805.093-1.635.169-2.444.093-.415-.038-.826-.124-1.227-.234-.362-.099-.695-.258-1.072-.184-.173.033-.246.256-.162.398zm6.87 3.508c.321.726 1.229.902 1.941.937l3.481.222c1.622.084 3.766.253 4.816-1.282.274-.401-.298-.741-.622-.48-1.211.971-2.825.815-4.289.764l-2.844-.059c-.752-.008-1.538.004-2.205-.38-.191-.109-.356.102-.278.278zm.47-21.21c-.161.048.122.002-.101.002a.54.54 0 0 0-.277.096c-.134.076-.262.17-.387.261-.246.179-.47.379-.663.615-.399.484-.69 1.059-.867 1.661-.351 1.196-.24 2.54.427 3.607.357.573 1.263.049.909-.532-.515-.843-.62-1.859-.361-2.807.131-.476.349-.908.64-1.308.144-.199.31-.384.487-.555.08-.076.16-.14.249-.203s.15-.104.214-.193l.043-.102c-.058.074-.054.078.014.014.258-.219-.018-.649-.324-.557l-.003.001zm8.91.03l-.069.062c-.148.132-.158.368-.069.535.215.397.626.608.929.928.28.297.509.654.668 1.03a3.48 3.48 0 0 1 .163 2.286c-.064.227-.133.539-.005.758.169.288.556.335.797.102.346-.332.395-.911.429-1.362.063-.878-.157-1.786-.583-2.553-.235-.423-.547-.814-.917-1.127-.209-.176-.436-.316-.655-.475-.187-.135-.451-.397-.689-.185l.001.001z" class="B"/><path d="M81.337 75.702c.424-.887 1.511-.701 2.206-.235.853.571 1.67 1.37 2.767 1.361 1.133-.009 1.966-.826 2.795-1.488.803-.64 2.214-1.238 2.644.121.099.316.631.373.7 0 .218-1.185-1.196-1.859-2.203-1.667-1.483.285-2.273 1.954-3.743 2.169-1.326.194-2.229-1.335-3.487-1.548-.843-.142-2.101.104-2.139 1.162-.008.236.353.347.46.125zm4.253 2.766c-.042-.063-.067-.058-.076.013a.38.38 0 0 0-.017.088c-.017.09-.014.187-.02.278l-.014.558-.019 1.208-.022 2.417c-.002.178.156.344.338.338.579-.019 1.327-.087 1.642-.659.229-.417.147-1.066-.376-1.188-.112-.025-.238.103-.162.211.127.18.079.464-.079.66-.226.28-.699.281-1.025.299l.339.339-.055-3.765c-.006-.237.043-.604-.081-.817-.066-.113-.244-.227-.383-.194-.19.045-.224.388.01.354.072-.011.067-.126 0-.14zm-1.004-20.264c-.04.704.038 1.418.036 2.123l-.107 2.048c-.072.696-.189 1.383-.33 2.068-.123.604-.382 1.314-.261 1.931.031.161.25.203.356.094.467-.474.602-1.33.725-1.957.134-.68.23-1.37.296-2.061.066-.705.097-1.415.089-2.123-.006-.724-.021-1.5-.214-2.203-.093-.335-.57-.252-.59.08zm6.918.627c.463-.953 1.008-1.794 1.866-2.439.824-.618 1.828-1.001 2.862-1.014 1.356-.016 2.732.426 4.046.717l2.068.447c.69.147 1.387.346 2.099.344.373-.001.583-.58.204-.751-.711-.32-1.486-.434-2.244-.598l-2.382-.501c-1.399-.289-2.864-.719-4.304-.538-2.119.267-4.362 1.911-4.727 4.117-.048.287.362.525.512.216zm14.481-2.972c.055 0 .055-.087 0-.087s-.055.087 0 .087z" class="B"/><path d="M96.973 54.882a1.65 1.65 0 0 0-.377.032l.172.022c-.195-.094-.344-.116-.531.002-.093.059-.182.125-.261.202-.145.14-.27.303-.369.478-.209.369-.317.775-.352 1.195-.071.835.286 1.681.989 2.153 1.457.976 3.773-.143 3.86-1.903.027-.558-.22-1.137-.604-1.535a1.71 1.71 0 0 0-.716-.447c-.313-.097-.61-.033-.901.092-.204.089-.267.381-.185.565.098.223.304.296.535.263-.098.015.04.004.049.003.127-.011-.087-.023.034.001l.238.059c-.107-.034.068.043.103.062.111.061-.06-.065.034.024l.124.123c.009.01.094.125.033.038l.075.113.044.079c.005.011.067.147.025.046.035.086.062.174.082.264.003.016.02.163.01.046l.007.158-.004.113c.005-.111-.002.012-.007.033-.016.077-.041.15-.063.225-.036.122.05-.09-.008.023l-.044.087c-.039.073-.085.142-.133.21.069-.1-.003.003-.018.02l-.078.085-.141.132c-.015.014-.119.089-.022.02l-.096.067c-.077.051-.156.097-.238.138l-.071.034c-.116.058.095-.031-.028.012l-.225.073-.23.05c-.024.005-.093.008.013-.001l-.155.013c-.078.004-.155.003-.233-.002l-.115-.011c.108.012.037.005.014 0l-.224-.054-.109-.037c-.049-.019-.048-.018.006.004l-.07-.033a1.66 1.66 0 0 1-.168-.097c-.012-.008-.113-.086-.033-.021l-.089-.078a1.69 1.69 0 0 1-.157-.17c.054.067.011.015.002 0l-.081-.128-.054-.101c-.058-.105.024.079-.015-.035l-.063-.2-.043-.207c.016.102-.002-.025-.002-.038l-.008-.155.008-.233c.006-.125-.018.082.005-.041l.031-.154a2.43 2.43 0 0 1 .077-.261l.027-.073c-.032.084.029-.06.036-.075a2.18 2.18 0 0 1 .135-.234l.065-.093.026-.037.175-.2c.134-.146.198-.25.187-.459l-.064.157a2.16 2.16 0 0 1 .232-.227c.074-.06.01-.174-.073-.177l.005.001zm-15.886 4.044l.031-.034c.124-.134.155-.33.063-.492l-1.045-1.772c-.306-.514-.613-1.049-1.024-1.488-.917-.983-2.085-.801-3.271-.513l-4.054.799-2.242.271c-.637.062-1.33.029-1.918.302-.273.127-.17.524.078.603.554.177 1.169.053 1.737 0l1.85-.209 3.693-.596c1.057-.204 2.56-.871 3.43.04.38.398.646.906.956 1.358l1.108 1.616c.102.144.277.244.458.187.051-.016.111-.031.149-.071l.001-.001z" class="B"/><path d="M77.711 58.508c-1.157.344-2.254.871-3.467 1.011-1.018.117-2.029-.027-2.908-.573-.782-.486-1.298-1.211-1.42-2.127-.053-.408-.175-.882-.649-.974-.378-.073-.724.167-.743.553-.013.252.271.369.471.27-.123.061-.026-.029-.033.151-.002.078.014.163.023.24.027.228.071.449.151.664.15.406.366.769.643 1.101.549.657 1.323 1.122 2.133 1.381 1.963.629 4.349-.046 6.073-1.051.342-.2.117-.761-.272-.646h-.002zm16.08.484c1.724 1.004 4.109 1.68 6.073 1.051.812-.26 1.582-.725 2.133-1.381a3.66 3.66 0 0 0 .621-1.044 2.86 2.86 0 0 0 .163-.657c.013-.097.035-.206.032-.304-.005-.138.082-.094-.033-.151.199.099.483-.018.471-.27-.019-.385-.366-.626-.743-.553-.475.093-.597.565-.649.974-.118.916-.64 1.642-1.42 2.127-.88.547-1.89.689-2.908.573-1.213-.139-2.31-.667-3.467-1.011-.386-.114-.618.444-.272.646h-.001z" class="B"/><path d="M74.816 55.307c-.39-.285-.97-.204-1.376-.001-.42.21-.775.591-.974 1.014-.446.951-.045 1.974.783 2.554.808.567 1.933.625 2.798.159.909-.491 1.6-1.635 1.236-2.674-.35-1.001-1.827-1.869-2.653-.938a.34.34 0 0 0 .328.562c.271-.063.579-.043.834.05a1.17 1.17 0 0 1 .568.494c.307.547-.073 1.298-.597 1.658-.546.377-1.241.398-1.812.11-.538-.271-.943-.806-.794-1.397.082-.326.267-.631.544-.835.13-.097.283-.171.439-.217.179-.052.354-.033.538-.03.292.004.344-.358.138-.509zm6.759 40.105zM77.676 7.683c-3.422-.616-6.933.137-9.733 2.221-1.441 1.072-2.798 2.309-4.029 3.616-1.193 1.266-2.288 2.661-3.063 4.225-.889 1.794-1.308 3.717-.927 5.707.094.49.817.347.837-.113.146-3.229 1.671-6.153 3.805-8.516 2.077-2.302 4.508-4.734 7.498-5.764 1.735-.598 3.57-.832 5.393-.584.509.069.746-.695.219-.791zM65.09 23.392c-.717-.414-1.835.097-2.539.368-.879.338-1.723.762-2.527 1.253a15.39 15.39 0 0 0-4.274 3.866 14.85 14.85 0 0 0-2.514 5.139c-.593 2.238-.423 4.467-.283 6.75.079 1.283.112 2.557-.255 3.803a5.81 5.81 0 0 1-.716 1.555c-.298.454-.715.804-.993 1.27-.111.185.072.362.256.333.882-.137 1.533-1.048 1.939-1.781.473-.856.75-1.809.884-2.775.329-2.352-.2-4.705.047-7.058.402-3.814 2.549-7.28 5.475-9.69.825-.679 1.749-1.237 2.719-1.683a13.61 13.61 0 0 1 1.523-.582c.456-.148.969-.269 1.271-.652.029-.036.031-.09-.013-.115zM51.415 43.275c-1.031-.03-2.007.528-2.831 1.102s-1.54 1.266-2.129 2.076c-1.206 1.654-1.734 3.725-1.266 5.732.442 1.897 1.707 3.669 3.51 4.477 2.176.975 4.613.439 6.593-.745 2.191-1.31 4.145-3.425 4.444-6.04.049-.43-.617-.488-.733-.099-.567 1.903-2.087 3.492-3.684 4.61s-3.653 1.911-5.604 1.327c-3.401-1.018-4.469-5.444-2.829-8.304.491-.856 1.162-1.607 1.937-2.218.83-.653 1.818-1.018 2.671-1.626.124-.088.084-.287-.08-.292z" class="B"/><path d="M50.282 56.032c-1.06.62-1.395 2.292-1.407 3.416-.014 1.356.443 2.67 1.091 3.846.639 1.162 1.466 2.331 2.486 3.189.498.418 1.043.793 1.675.972s1.195.094 1.817-.071c.428-.113.358-.854-.108-.798-.961.113-2.007-.525-2.7-1.146-.842-.757-1.513-1.706-2.079-2.68-.557-.959-.985-2.026-1.024-3.146-.02-.558.049-1.107.215-1.64.161-.518.498-.94.686-1.441.141-.374-.339-.683-.651-.501z" class="B"/><path d="M51.878 64.435c-.915.6-1.294 1.741-1.288 2.804.007 1.174.647 2.3 1.52 3.053.958.826 2.159 1.309 3.404 1.484.725.102 1.453.116 2.183.062a8.77 8.77 0 0 0 1.093-.154c.418-.085.779-.256 1.18-.389.418-.138.366-.801-.107-.791-.622.012-1.23-.021-1.856.024l-1.862.047c-1.056-.064-2.091-.351-2.97-.951-.785-.536-1.318-1.316-1.491-2.25-.175-.94.055-1.749.617-2.516.185-.253-.175-.587-.424-.423z" class="B"/><path d="M55.567 70.762a2.2 2.2 0 0 0-.276.125h.229c-.794-.48-1.212 1.222-1.227 1.716-.027.858.301 1.747.713 2.485.442.79 1.049 1.497 1.769 2.044.351.267.731.513 1.145.67.373.143.95.352 1.337.203.175-.067.333-.295.195-.479-.22-.295-.585-.426-.892-.62l-.947-.625c-.578-.428-1.092-.959-1.48-1.566-.367-.574-.697-1.248-.773-1.933-.034-.303-.042-.618.028-.916.08-.341.374-.522.214-.898l-.036.275c.045-.048.096-.09.149-.128.161-.118.073-.437-.149-.353zm20.869-59.641c.373-.42.52-.976.909-1.399a7.14 7.14 0 0 1 1.247-1.083c1.013-.686 2.146-1.166 3.337-1.444a10.71 10.71 0 0 1 3.547-.219 9.92 9.92 0 0 1 1.745.351c.578.169 1.089.403 1.703.321.256-.035.379-.403.244-.602-.39-.578-1.055-.767-1.699-.938-.652-.174-1.322-.284-1.994-.344-1.368-.12-2.776.013-4.098.387-1.284.364-2.522.952-3.584 1.763-.499.381-.962.817-1.296 1.353-.304.487-.678 1.155-.485 1.741.056.17.291.262.424.112z" class="B"/><path d="M86.575 9.43c1.322-.822 2.643-1.437 4.226-1.525 1.512-.084 3.034.285 4.292 1.143 1.474 1.006 2.658 2.551 3.642 4.017.936 1.395 1.632 3.076 2.964 4.156s3.116 1.242 4.364-.015c.383-.386-.194-.954-.593-.593-.512.462-1.381.361-1.986.17-.741-.234-1.307-.751-1.771-1.362-.519-.684-.914-1.455-1.363-2.183-.485-.785-1.028-1.532-1.603-2.252-1.05-1.311-2.251-2.637-3.787-3.378-1.356-.652-2.892-.915-4.389-.751-1.586.173-3.336.814-4.388 2.065-.223.265.061.715.392.508z" class="B"/><path d="M97.478 9.798c3.032-1.297 6.486-.872 9.379.607 2.834 1.45 5.071 4.016 6.111 7.033.292.846.503 1.723.599 2.613.098.917-.022 1.833.057 2.743.044.505.721.62.89.12.28-.829.228-1.83.169-2.692-.06-.877-.199-1.755-.417-2.607-.454-1.769-1.222-3.389-2.353-4.825-2.184-2.776-5.561-4.564-9.066-4.897-1.967-.187-4.248-.007-5.774 1.381-.303.276.083.66.403.524h.002z" class="B"/><path d="M107.845 23.118c1.061-.13 2.048-.419 3.131-.382 1.095.037 2.17.28 3.15.779 1.836.936 3.103 2.642 3.902 4.503.892 2.081 1.217 4.352 1.453 6.586.257 2.433.373 4.998 1.174 7.328.377 1.098.971 2.14 1.954 2.798.938.629 2.086.813 3.085.231.42-.246.14-.897-.328-.779-.957.241-1.993-.127-2.653-.839-.777-.838-1.075-2.023-1.3-3.111-.528-2.544-.597-5.156-.959-7.724-.555-3.937-2.147-8.385-6.056-10.125-1.061-.473-2.256-.731-3.42-.698-1.127.032-2.431.258-3.308 1.006-.155.133-.036.453.177.426l-.002.001zm18.259 22.555c1.39 2.859.012 6.126-2.693 7.596-1.311.713-2.824 1.005-4.308.934-.825-.039-1.67-.228-2.367-.689-.589-.39-.913-1.031-1.47-1.438l.2.261-.285-.645c-.147-.334-.624-.135-.639.173-.168 3.374 4.258 3.919 6.734 3.444 2.846-.545 5.469-2.506 6.177-5.409.375-1.54.218-3.282-.686-4.615-.278-.409-.877-.057-.661.386l-.002.002z" class="B"/><path d="M121.552 55.086c.277.509.638.931.825 1.492.19.571.241 1.173.177 1.77a3.74 3.74 0 0 1-.548 1.593c-.33.523-.947.837-1.195 1.402-.298.676.088 1.289.372 1.887.282.591.347 1.267.223 1.907-.263 1.363-1.184 2.431-2.377 3.092-.744.412-1.564.662-2.394.827a11.53 11.53 0 0 1-1.226.178c-.187.018-.407.057-.593.018-.082-.018-.136-.036-.201-.079-.026-.023-.047-.049-.065-.078-.044-.056-.039-.058.015-.004.289-.397-.336-.853-.669-.517-.542.548-.39 1.396.294 1.746.76.389 1.891.092 2.684-.062 1.756-.342 3.531-1.111 4.653-2.555.999-1.287 1.494-3.091.883-4.656-.127-.326-.493-.752-.509-1.102-.013-.312.578-.709.777-.967a4.56 4.56 0 0 0 .881-2.005c.139-.796.096-1.621-.161-2.391-.242-.729-.685-1.593-1.413-1.928-.28-.128-.594.138-.433.434v-.002z" class="B"/><path d="M117.358 70.344c.01.089-.033.052-.064.166-.028.102-.006.186.016.284l.061.289a2.97 2.97 0 0 1 .007.646c-.033.387-.164.802-.341 1.144-.208.4-.431.698-.763.995l-.19.154-.272.174-.307.174c-.108.061-.194.154-.279.217-.325.241-.238.787.215.795.158.003.324.009.474-.038a2.26 2.26 0 0 0 .396-.177 3.39 3.39 0 0 0 .674-.505c.385-.359.7-.803.916-1.283a4.31 4.31 0 0 0 .385-1.59 3.97 3.97 0 0 0-.06-.821c-.019-.116-.047-.23-.078-.343-.066-.242-.174-.37-.426-.438l.167.128-.072-.094c-.128-.166-.49-.151-.46.124l.001-.001zM60.123 35.228c-1.105.959-1.474 2.758-1.608 4.145-.15 1.555.023 3.156.599 4.613 1.153 2.919 3.824 4.995 6.873 5.626.849.176 1.739.265 2.605.205.408-.029.832-.078 1.231-.173a3.96 3.96 0 0 0 .649-.222c.21-.09.412-.282.616-.354.514-.182.292-1.005-.227-.822-.277.098-.696.056-.994.095l-.971.119c-.68.054-1.366.057-2.044-.032a8.9 8.9 0 0 1-3.733-1.401c-2.301-1.52-3.711-4.27-3.705-7.026a8.84 8.84 0 0 1 .303-2.285c.21-.775.581-1.496.779-2.271.057-.225-.208-.36-.373-.217l.001-.001zm13.841-7.333c-.806.081-1.532.719-2.091 1.264-.631.615-1.166 1.343-1.581 2.118-.989 1.844-1.437 3.927-1.592 5.999-.154 2.05-.134 4.201.766 6.095.714 1.502 1.972 2.709 3.404 3.53.837.48 1.749.849 2.679 1.105.448.123.908.234 1.37.286.544.062.934-.026 1.439-.212.237-.087.342-.451.077-.584-.303-.152-.562-.33-.895-.415l-1.193-.244c-.71-.163-1.413-.386-2.074-.694-1.302-.605-2.521-1.492-3.317-2.705-1.018-1.548-1.142-3.372-1.146-5.174-.004-1.926.113-3.958.83-5.769.347-.877.829-1.718 1.43-2.446.278-.337.584-.65.914-.935.361-.313.789-.571 1.099-.935.084-.097.039-.3-.117-.284h-.002zm12.589-1.974c1.175 2.273.484 4.742-.867 6.772-1.328 1.997-3.178 3.565-4.646 5.45-1.429 1.834-2.69 4.055-2.642 6.451.044 2.216 1.314 4.216 3.25 5.277a6.71 6.71 0 0 0 3.638.802c.691-.044 1.377-.171 2.023-.423.676-.264 1.143-.714 1.734-1.113.452-.306.025-1.045-.431-.736-.482.326-1.088.452-1.642.617s-1.109.311-1.683.351c-1.035.072-2.073-.11-2.99-.605-1.924-1.038-2.952-3.094-2.589-5.257.776-4.616 5.313-7.289 7.313-11.285.945-1.89 1.663-4.911-.163-6.534-.165-.146-.406.036-.304.235l-.001-.001zm2.037 17.052l-.12-.008.194.112-.013-.027c-.048-.106-.187-.176-.3-.172-.164.005-.292.008-.448.074a2.77 2.77 0 0 0-.351.176 2.54 2.54 0 0 0-.624.531c-.373.441-.594.96-.646 1.536-.048.541.104 1.105.373 1.572.138.239.334.483.561.644.21.148.468.37.725.416.18.032.366-.021.462-.188.017-.03.031-.065.041-.098.043-.134-.002-.303-.105-.398-.136-.127-.323-.187-.447-.325a3.33 3.33 0 0 1-.36-.493c-.206-.331-.309-.686-.29-1.07.016-.34.171-.699.384-.985.109-.148.25-.283.393-.397a1.76 1.76 0 0 1 .236-.154c.103-.058.178-.129.273-.195s.186-.175.172-.3l-.004-.034-.112.194.102-.058c.178-.096.08-.339-.095-.354l-.001.002z" class="B"/><path d="M89.554 37.192c-1.474 1.341-1.745 3.564-1.066 5.386.763 2.05 2.62 3.397 4.747 3.769 4.758.831 9.039-2.757 11.053-6.806 1.332-2.678 1.098-5.946.197-8.721-.15-.459-.903-.406-.877.119.111 2.302.652 4.612-.027 6.883-.582 1.942-2.032 3.763-3.525 5.099-1.449 1.297-3.261 2.201-5.229 2.269-1.788.062-3.763-.572-4.836-2.086-1.134-1.6-1.279-3.922-.026-5.503.228-.287-.127-.667-.41-.41l-.001.001z" class="B"/><path d="M101.592 41.36c-.592.571-.554 1.651-.389 2.398.191.864.687 1.668 1.315 2.284 1.439 1.414 3.571 1.838 5.52 1.854 2.027.017 4.048-.519 5.232-2.281 1.054-1.567 1.399-3.721 1.563-5.567.101-1.125.091-2.272-.16-3.378-.218-.953-.629-2.134-1.457-2.721-.246-.175-.568.113-.494.38.215.764.617 1.442.785 2.232.17.801.201 1.636.167 2.452-.068 1.603-.339 3.308-.891 4.819-.266.73-.67 1.44-1.284 1.932-.656.527-1.508.761-2.331.856-1.642.188-3.512.083-4.987-.722-.77-.42-1.382-1.035-1.77-1.824-.192-.391-.334-.825-.383-1.259-.049-.427.063-.841.024-1.265-.02-.228-.282-.363-.46-.191z" class="B"/><path d="M110.449 46.725c-.703.2-.948 1.287-1.087 1.911-.183.814-.181 1.646-.021 2.464.322 1.643 1.319 3.129 2.766 3.982v-.957c-2.682 1.304-2.928 4.71-1.856 7.156.514 1.174 1.343 2.304 2.529 2.863 1.124.529 2.64.55 3.503-.464.294-.345-.067-.825-.48-.623-2.108 1.033-3.893-.544-4.646-2.463-.774-1.973-.535-4.442 1.509-5.512.364-.19.357-.764 0-.957-1.241-.667-2.05-1.858-2.368-3.218a5.48 5.48 0 0 1-.095-2.03 4.67 4.67 0 0 1 .275-.976c.122-.32.316-.598.269-.947-.019-.147-.135-.275-.299-.228h.001zm-56.733 8.626c-1.046 1.091-.825 2.907-.212 4.161.331.677.829 1.314 1.381 1.825.279.258.577.489.873.726.287.231.648.518 1.017.596.233.049.372-.17.286-.372-.116-.274-.397-.552-.611-.755l-.715-.725c-.453-.493-.895-.995-1.219-1.584-.285-.516-.482-1.097-.514-1.689-.034-.628.138-1.221.378-1.798.157-.377-.406-.653-.663-.385zm8.838-7.923c-.417.43.312 1.448.484 1.88a11.91 11.91 0 0 1 .694 2.521c.276 1.741.02 3.479-.624 5.11-.637 1.614-1.512 3.173-1.559 4.95-.038 1.423.444 3.208 1.88 3.775l-.334-.822c-.465.823-1.22 1.446-1.862 2.126-.28.297.078.794.444.576.897-.535 1.54-1.32 2.296-2.024.24-.222.183-.561 0-.791-.459-.579-.849-1.08-1-1.825-.135-.663-.087-1.367.067-2.022.42-1.784 1.451-3.356 1.853-5.148.366-1.627.31-3.394-.148-4.998-.109-.382-1.481-4.04-2.191-3.308l-.001-.001zM80.96 16.412c-.545.298-1.199.555-1.628-.068-.361-.523-.237-1.157.087-1.663.607-.943 1.732-1.662 2.768-2.04 1.908-.697 4.172-.591 5.524 1.114 1.396 1.761.326 4.033-1.135 5.36-.811.735-1.772 1.281-2.717 1.821-1.008.575-2.034 1.199-3.177 1.463-1.215.281-2.67.056-3.879-.188-1.127-.228-2.358-.627-3.291-1.317-.236-.175-.446.182-.29.377.865 1.075 2.039 1.483 3.354 1.764 1.471.314 2.897.765 4.418.499 1.453-.254 2.796-1.093 4.052-1.823 1.171-.68 2.32-1.488 3.163-2.562 1.605-2.049 1.703-4.985-.462-6.678-2.115-1.654-4.892-1.238-6.978.236-1 .707-2.393 1.78-2.15 3.187.087.506.397 1.006.871 1.229.604.284 1.174-.013 1.676-.356.214-.147.027-.478-.206-.351v-.003zm16.077 8.429c.131.385.213.739.383 1.114l.551 1.266c.287.75.533 1.518.693 2.306.324 1.596.452 3.35.137 4.959-.287 1.461-.964 2.902-2.229 3.756-.574.387-1.209.648-1.894.755a5.27 5.27 0 0 1-1.03.053c-.322-.014-.632-.096-.95-.017-.19.047-.297.292-.187.46.393.602 1.365.725 2.027.692.811-.04 1.605-.31 2.306-.714 1.525-.877 2.521-2.398 2.942-4.085.457-1.833.319-3.738-.115-5.56-.228-.96-.527-1.912-.913-2.821l-.599-1.266c-.239-.433-.511-.709-.844-1.059-.111-.118-.332.003-.278.161zm-5.844 25.915c.446.18 1.027-.096 1.467-.211l1.574-.351a20.87 20.87 0 0 1 3.432-.316 20.12 20.12 0 0 1 6.631 1.046l-.484-.851c-.037.09-.14.224-.078.206-.388.115-.425.726 0 .822.534.12 1.094.063 1.344-.495.185-.415.046-.87-.414-1.017-2.287-.729-4.695-1.062-7.094-.948-1.158.054-2.309.208-3.439.467l-1.736.477c-.463.154-1.129.293-1.371.757-.092.176-.004.344.169.414l-.001-.001zm-10.557-.414c-.231-.443-.838-.575-1.281-.727-.568-.194-1.149-.35-1.734-.486a19.49 19.49 0 0 0-3.532-.489c-2.398-.113-4.807.219-7.094.948-.46.147-.599.601-.413 1.017.249.556.811.616 1.344.495.424-.096.387-.707 0-.822.06.018-.043-.117-.079-.206l-.483.851a20.14 20.14 0 0 1 6.631-1.046c1.115.012 2.237.109 3.337.3l1.576.344c.464.119 1.093.423 1.559.234.172-.07.26-.238.169-.414z" class="B"/></g></g><defs><radialGradient id="B" cx="0" cy="0" r="1" gradientUnits="userSpaceOnUse" gradientTransform="translate(73.364 67.1074) scale(17.4319 12.9992)"><stop stop-color="#f6c7c0"/><stop offset=".123" stop-color="#f6c7c1" stop-opacity=".983"/><stop offset=".25" stop-color="#f6cac4" stop-opacity=".932"/><stop offset=".379" stop-color="#f7cfc9" stop-opacity=".848"/><stop offset=".51" stop-color="#f8d6d1" stop-opacity=".73"/><stop offset=".642" stop-color="#f9deda" stop-opacity=".577"/><stop offset=".775" stop-color="#fbe9e6" stop-opacity=".39"/><stop offset=".906" stop-color="#fdf5f4" stop-opacity=".174"/><stop offset="1" stop-color="#fff" stop-opacity="0"/></radialGradient><radialGradient id="C" cx="0" cy="0" r="1" gradientUnits="userSpaceOnUse" gradientTransform="translate(101.55 67.4805) scale(17.0809 12.9992)"><stop stop-color="#f6c7c0"/><stop offset=".123" stop-color="#f6c7c1" stop-opacity=".983"/><stop offset=".25" stop-color="#f6cac4" stop-opacity=".932"/><stop offset=".379" stop-color="#f7cfc9" stop-opacity=".848"/><stop offset=".51" stop-color="#f8d6d1" stop-opacity=".73"/><stop offset=".642" stop-color="#f9deda" stop-opacity=".577"/><stop offset=".775" stop-color="#fbe9e6" stop-opacity=".39"/><stop offset=".906" stop-color="#fdf5f4" stop-opacity=".174"/><stop offset="1" stop-color="#fff" stop-opacity="0"/></radialGradient><clipPath id="D"><path fill="#fff" d="M0 0h183v162H0z"/></clipPath></defs></svg>