<svg xmlns="http://www.w3.org/2000/svg" width="200" height="220" fill="none" xmlns:v="https://vecta.io/nano"><path d="M175.976 192.324c-.196-.196-.313-.431-.391-.705s-.312-.43-.547-.509l-.117-.782c-.078-.666-1.094-.744-1.406-.235-.156-.118-.391-.157-.586-.118 0-.039-.039-.078-.039-.078a.84.84 0 0 0-.899-.352c-.081-.078-.173-.144-.273-.196v-.039c-.078-.822-1.016-.979-1.406-.431-.118 0-.235.039-.352.078a.71.71 0 0 0-.859-.117c-.078 0-.196-.039-.274 0h-.078c-.39-.274-1.015-.157-1.211.313-.078 0-.156-.039-.234 0h-.078c-.117-.47-.625-.587-1.016-.43-.156-.04-.273-.04-.43-.04-.273-.117-.586-.078-.859.118-.43-.352-1.172-.157-1.25.587 0 .117-.039.274-.039.392-.117.039-.234.078-.313.156-.312-.156-.742-.078-.976.157-.234 0-.508.156-.664.352-.352-.039-.742.157-.86.548 0 .039 0 .078-.039.117h-.156c-.39 0-.781.353-.781.783-.313.118-.586.392-.547.744l.078.861v.04.039c-.117-.118-.312-.235-.508-.235-.273 0-.547.156-.703.43-.039 0-.078-.039-.117-.039-.117 0-.273 0-.391.039-.234-.195-.546-.234-.781-.117-.117-.274-.351-.431-.586-.47-.117-.156-.273-.274-.508-.313-.351-.039-.781.157-.859.548-.039.118-.039.274-.078.392-.234-.157-.625-.157-.899 0v-.04c-.117-.665-1.054-.743-1.406-.234-.195 0-.39.039-.547.195-.312-.078-.625 0-.82.274-.352-.078-.82.118-.977.509-.234.039-.468.196-.585.47-.157-.039-.352-.078-.469-.039-.469.117-.586.548-.547.978l.43 3.093c.078.548.664.665 1.054.47a.82.82 0 0 0 .938.274c.195.235.547.274.859.156a.74.74 0 0 0 .508.196c.138-.002.274-.043.391-.117.117.156.312.234.546.234h.079c.117.196.351.314.586.314.078 0 .117 0 .195-.039.117.078.234.117.351.156.079.196.235.313.43.392a.81.81 0 0 0 .899.704c.078.039.156.039.195.078.117.353.469.509.82.509.078.079.195.118.352.118h.156l.039.548c.039.391.273.704.664.783.352.039.781-.157.859-.548 0-.079 0-.157.04-.196 0-.078 0-.157.039-.196.078 0 .156-.039.234-.039l.117.47c.195.665.938.665 1.328.313.196.235.586.313.899.196.508.313 1.328-.118 1.172-.861l-.664-3.21c.039-.04.078-.118.117-.157.312-.117.586-.391.547-.744l-.039-.47c.117 0 .195 0 .312-.039.391.079.82-.117.898-.587.196-.078.352-.235.391-.47 0-.039.039-.117.039-.156.078.039.156.039.235.039.195 0 .429-.078.585-.235.274.039.586-.078.743-.313.078.078.195.156.312.196 0 1.017 1.485.978 1.563 0 0-.157.039-.353.039-.509.273.039.547-.039.703-.235.195 0 .43-.039.547-.196a.87.87 0 0 0 .343.113.86.86 0 0 0 .36-.035.53.53 0 0 0 .351 0c.352.196.821.079 1.055-.274a.82.82 0 0 0 .742-.039c.117.039.274.079.43.039.352.783 1.68.392 1.445-.548v-.078c.352 0 .664-.235.782-.587.039-.039.078-.078.078-.118.312 0 .586-.156.664-.43.508-.118 1.133-.94.625-1.566z" fill="#f4efea"/><path d="M91.132 34.879c1.719-1.37 1.367-5.011.078-6.616 1.992-1.527 2.851-4.541-.469-4.815-1.758-1.292-2.109-3.758-3.164-5.598.039-.235-.195-.587.078-.705.156-.587-1.836-2.74-.82-2.545.117-.117.313.039.43.078.039-.078.156-.078.273-.039.391-.117.859-.117 1.25-.235l-.781-2.779c-.273-.979-1.68-.548-1.523.431l.195 1.057c-.312-1.135-1.758-1.644-1.836-.196-.352-.626-1.367-.392-1.445.274-.391 0-.742.274-.742.705-.195 0-.391.078-.508.235-.469-1.018-1.992-.313-1.406.665-.195.078-.312.235-.391.431-1.133-.705-1.562.705-1.133 1.644-.352 0-.742.274-.82.666 0-1.292-1.875-1.605-1.68-.157l.469 1.488c-.351.352-.039.979.039 1.409-.781-.626-1.68.313-1.172 1.174-.742-.548-1.641.431-1.133 1.253-2.187-.117-.195 2.779 0 3.875-.039.039-.078.039-.117.078-.703-1.84-2.383-1.409-1.797.548-.898.039-.703.979-.586 1.605-.195.078-.352.196-.43.431-.508-1.057-1.875-1.527-1.875 0l.508 2.036c-1.797-2.975-2.851-1.174-1.797 1.331-.234.117-.43.352-.469.626a.81.81 0 0 0-.586.587c-.352-.039-.703.196-.859.548-1.289-.078-.82 1.801-.898 2.623-.273-.783-1.602-.626-1.602.235-.742-1.253-1.836-.352-1.68.861-.859.078-.781 1.057-.469 1.644-.781.431.43 3.132 1.133 3.249.508.431 1.445 0 1.25-.783.039-.157.039-.352-.039-.509.313-.196.273-.626.273-.939.352.744.898 1.762 1.875 1.292.859.431 1.367-.509 1.094-1.253.078 0 .273-.078.352-.078.117.431.469.744.586 1.135.391.822 1.68.235 1.445-.587.234.039.469 0 .664-.157.195.9 1.367 1.057 1.601.196.195.626.938.587 1.289.196.273.9 1.68.392 1.484-.47 3.281.431 6.328 2.388 7.851 5.402.195.352.274.392.586.313-.234-.626.313-1.37.469-1.996-.039-.157-.117-.313-.156-.431.117.078.234.117.351.157h.039c.234-.431.43-.9.703-1.292-.039-.078-.078-.157-.078-.235.195-.039.313-.196.508-.274.273-.274.43-.626.664-.9v-.117c.391-.274.82-.548 1.289-.666 1.758.313 4.805-.157 4.922-2.388-.039-1.448-1.484-2.427-1.289-3.719z" fill="#fae6e1"/><path d="M104.414 113.836c.351-1.605 0-3.327-.703-4.736-.039-.509.078-.783-.039-1.292.351-.626-.508-1.527-.782-2.114.118-1.292-.781-2.505-1.015-3.758-.508-3.484-2.305-6.576-2.656-10.06-.625-3.327.391-6.89-.234-10.1-.039-3.053-.469-5.911-1.406-8.808l-.195-.157c-.039-.117-.078-.235-.156-.352.313-1.527-.82-3.327-.977-4.815-.234-.431-.82-2.858-1.523-2.936-1.016-1.762-1.758-4.854-3.984-5.167-1.289-3.523-4.492-3.915-5.781-7.986-.234-.744-.156-1.566-.586-2.231-.039-.235-.273-.939-.43-1.057-.312-1.488-1.641-2.31-2.187-3.641-.859-.391-1.094-1.566-2.227-1.801-.078.039-.117.039-.195.078-1.445-.705-3.125-1.292-4.727-1.37-.195-.117-.43-.196-.625-.196-.43-.352-1.211-.274-1.758-.391-.195-.196-.547-.274-.82-.157-.273-.117-.625-.157-.898-.078-.352-.157-.664-.274-1.055.039-.43-.117-.82-.196-1.211-.039-.391-.157-.898-.196-1.289-.078-.859.039-1.875-.509-2.5.392-.781.039-1.562.117-2.305.47-.508-.039-1.133 0-1.328.548-1.133 1.018-.43 3.327-.312 4.737-7.734 4.502-5.391 7.79-8.281 14.406-.156 3.171-5.352 7.203-3.594 8.142.117.509.039 1.057.313 1.487v.235c-1.836 1.096-2.852 3.093-2.266 5.246-.078 2.192-1.172 4.189-1.797 6.263-.156.039-.312.039-.43.078-.586.391-1.719.196-.977 1.253.039.744 0 1.722.078 2.466-.703 1.918-.039 4.032-.312 6.028-.039.783 1.094 1.096 1.445.391.391-.509 1.094-.626 1.484-1.096 1.523-.979 3.516-.47 5.117-.979 2.539.744 5.039 1.879 7.148 3.484-.039 1.096 1.523 1.37 1.641.196.313-1.683 1.406-3.132 2.07-4.658.898 3.601 1.523 7.32 1.094 11.039.039.352-.547 1.605-.195 2.192-.547 2.701-1.602 5.285-2.773 7.79-.234 0-1.484 2.662-1.641 2.818-.703 1.018-1.523 2.075-1.172 3.328-.43.979-.391 2.075-.703 3.053-.273.431-.078.979.078 1.409.703.94 2.031 1.018 3.008 1.645 6.289 2.975 13.945 4.306 20.898 3.444.859.118 1.797-.274 2.656-.313.391.47 1.016.47 1.25-.078 1.875-.235 3.789-.783 5.664-1.331 1.25-.274 2.539-.861 3.867-1.018 2.695-.939 5.352-.626 8.126-.235 1.679 1.175 1.562-1.213 1.64-2.27-.039-.783.742-1.801.078-2.466 0-.039.039-.039.039-.079.469-1.213.547-2.622.43-3.875.273-.235-.117-.548-.078-.94z" fill="#e09531"/><path d="M105.194 123.623l-.039-.039v-.274c-.039-.314-.156-.588-.469-.705a.85.85 0 0 0-.859.157c-.234.195-.313.508-.352.782l-.039.04-.117.117h-.039c-.078.039-.156.118-.234.196l-.078.078c-.039.039-.079.039-.157.078a1.48 1.48 0 0 0-.625.744.8.8 0 0 0 .547.979.67.67 0 0 0 .391 0c0 .078-.039.156-.039.235 0 .391.351.783.781.783.391 0 .781-.353.781-.783.039-.039.039-.079.078-.157.079-.117.157-.235.235-.313.195-.274.429-.626.508-.94.156-.352.039-.743-.274-.978z" fill="#557689"/><path d="M104.023 122.918c.039-.235-.117-.469-.234-.587-.039-.039-.078-.039-.078-.078-.078-.079-.156-.157-.274-.196h-.039c-.039-.078-.078-.117-.156-.196-.039-.039-.078-.117-.156-.156l-.078-.079-.078-.078c0-.078-.039-.117-.039-.196v-.078c0-.196-.079-.391-.235-.548-.117-.117-.351-.235-.547-.235s-.429.079-.546.235-.235.352-.235.548a2.05 2.05 0 0 0 .156.822c.078.196.157.353.313.509.078.078.156.118.234.196.117.117.196.235.313.391l.195.196c.039.078.078.157.156.235.039.039.117.078.157.117.078.039.195.079.273.079.156.039.352 0 .508-.079a.71.71 0 0 0 .39-.822z" fill="#e09531"/><g fill="#6d5333"><path d="M80.98 18.242c0 .039 0 .039 0 0zm-.157-.117c-.039-.039-.117-.078 0 0z"/><path d="M90.041 10.491c-.078.157-.156.352-.391.313-.43.47-.977.744-1.602.705a1.28 1.28 0 0 0-.625-.274c-.195-.235-.43-.431-.664-.548-.469-1.566-1.602-2.779-3.203-2.819.039-1.762-1.484-2.779-3.086-2.858-.43-.548-.937-1.174-1.68-1.253-.937-1.135-2.773-2.74-4.336-2.036-2.187-.744-3.984.979-5.586 2.231-1.484-1.879-4.453-2.231-5.976-.196-1.445-.705-3.125.117-3.555 1.644-2.812-.078-5.586 2.349-6.523 4.932-.117.157-.156.352-.156.509-3.633 2.897-6.211 8.064-4.375 12.683-1.25 2.701-.195 5.872 2.227 7.516-.703 2.427.781 5.637 3.633 5.167-1.484 1.84 1.914 2.819.898 4.58-.469.9.938 1.409 1.445.548.352-.665.977-1.096 1.602-1.527 1.484 1.096 3.945.392 4.961-1.057 1.602-.157 5.078-1.096 4.336-3.288 2.93.196 4.609-2.427 3.008-4.932 1.992.235 3.789-.861 4.258-2.74 1.094-.117 3.477-2.466 1.289-2.662-1.602-2.662 3.984-3.641 3.203-7.085.078.391.898.196 1.25-.117a2.9 2.9 0 0 1 .469.274s-.039 0-.039-.039l.195.196-.039-.039s0 .039.039.039c-.039.117-.039.196-.078.313.352-.078.195.587.234.783 1.797 1.644 2.149-2.818 1.289-3.719.469-.587.898-1.214 1.367-1.801.977-.392 1.758.587 2.734.744.078-.078.156-.039.234 0 .117-.157.313.039.43.078.039-.078.156-.078.273-.039 1.523.157 5.273-3.954 2.539-4.228z"/></g><path d="M62.773 89.37c-.586 1.096-1.484 2.153-1.562 3.445l-.352.705c-.586.352-.781 1.174-1.055 1.801-.234.039-.391.313-.508.509-.156-.783-.664-1.879-1.445-1.918-.078-.039-.117-.078-.195-.078-.156-.392-.586-.587-.898-.47-.234-.47-.625-1.174-1.211-.861-3.672-2.662-10.82-2.544-10.781 2.192 0 1.37-4.57 5.48-3.476 6.616-2.227 4.384-3.867 9.238-5.117 14.014-.859 2.035-1.602 4.228-2.07 6.381-.078.078-.117.195-.156.313-1.055 2.701-1.719 5.48-2.383 8.299-1.797-.548-3.672-.274-5.508-.509-.273-.039-.469.117-.625.274-1.367.156-2.578.783-3.828 1.292-.234.078-.469.195-.547.43-.781.509-2.07.822-2.344 1.723-2.578.704-5.352 1.018-7.969 1.174-1.953.118-4.219-.587-5.977.235-.43-.039-.977.157-1.055.626-1.211.235-3.398-.665-3.125 1.175-.117.313-.078 1.096.117 1.409 1.875.509 4.023-.078 5.898.157a5.88 5.88 0 0 1 1.445.039c.039-.039.078-.118.117-.196.508.117 1.172.509 1.563-.117l4.688-.079c.234.274.586.392.976.431 4.688-.352 9.492-.078 14.258-.392.859.509 2.07.353 3.047.353 1.055.235 2.305-.039 3.359-.118 2.734.079 5.703.274 8.359-.039 3.281-.313 6.523-.156 9.844-.196.234.353.664.47 1.016.274l3.476-.039c.547 0 1.016-.313.781-.822 1.211-.783 2.422-2.583 1.797-4.11.313-.509-.039-1.096-.547-1.292-.781-1.762-1.562-3.484-1.992-5.363.351-.626-.078-1.409.117-2.114 1.25-.117 1.406-2.035 0-1.996-.273-.196-.703-.274-1.016-.118-.039-.039-.117-.078-.156-.117.625-.783-.039-1.997-1.016-2.036-.078-2.583 1.406-4.736 1.953-7.163 2.109-2.584 3.32-6.381 4.023-9.591.391-2.153.859-4.424.547-6.616 0-1.057-.117-2.114-.195-3.171 0-.117 0-.235-.039-.313.234-.235.352-.587.234-.9l1.016-2.349c.273-.9-.898-1.644-1.484-.783zm-21.406 45.723l-.586 1.057h-.117c.273-.392.508-.744.703-1.175v.118zm11.875-27.168c-.703 5.481-.781 10.961-.742 16.442-1.055 2.583-2.93 4.893-2.226 7.829-2.734-.822-6.289.744-8.672 2.231.195-.431.313-.939.351-1.409.938-1.096 1.328-2.897 1.524-4.306.078-.353.313-.783.156-1.135 1.445-9.865 4.766-12.449 9.609-20.395.039.234.039.469 0 .743z" fill="#fae6e1"/><path d="M65.898 91.367c-.117-.392-.312-.744-.586-1.018a.54.54 0 0 0-.156-.117c-.039-.626-.117-1.253-.312-1.879-.117-.313-.391-.587-.742-.587-.274 0-.547.157-.703.431-.273 0-.508.117-.664.352-.352.156-.547.548-.43.939l.391 1.722.156.744.273 1.331c0 .078.039.157.078.235.039.157.039.274.078.431 0 .078.039.117.039.157.039.157.039.274.078.431.078.391.508.626.859.548.078 0 .117-.039.195-.039h.039c.391-.078.664-.352.664-.783v-.078c.074-.117.115-.253.117-.392.039-.274.039-.587.078-.861 0-.117 0-.196.039-.313.195-.078.352-.274.43-.509 0-.078.039-.117.039-.196.078-.196.078-.352.039-.548zm-5.664 25.523c-.43 0-.781.195-1.094.469-.234.235-.352.548-.547.823-.039.039-.039.078-.078.117-.039 0-.039.039-.078.078-.039 0-.039.039-.078.039-.078.04-.117.079-.195.118-.312.156-.625.391-.781.704a1.11 1.11 0 0 0-.156.588c-.312.274-.469.626-.391 1.017 0 .04-.039.118-.039.196 0 .196.078.431.234.548.117.118.273.196.469.235.078.039.117.078.195.118.156.039.313.078.469.078 0 0 .039 0 .039.039.078.039.195.078.273.078.117.039.195 0 .313 0a.63.63 0 0 0 .273-.156c.078-.039.156-.118.195-.235 0-.039.039-.039.039-.079.039-.039.039-.039.039-.078.117-.156.156-.43.078-.587a.75.75 0 0 0-.742-.548c.039-.117.078-.235.078-.352v-.157c.039-.039.117-.039.156-.078.117-.039.195-.118.313-.157.273-.196.469-.391.664-.665.117-.196.195-.392.313-.548l.039-.039c.391-.04.742-.353.703-.783.039-.431-.273-.783-.703-.783z" fill="#e09531"/><path d="M172.618 186.061c-.156-.314-.391-.588-.352-.979-.039-.157.196-.235.079-.352-.235-.431-.235-1.018-.586-1.371-.157-.548-.782-1.174-1.016-1.683.078.039-.039-.078 0 0 .156-.156.273-.391.469-.47.351-.117.586-.548.547-.939.82-1.37-.821-1.409-1.641-1.84-.547-.431-.547-1.135-.977-1.683 2.735-3.367-2.968-7.007-3.828-10.452-2.656-6.851-2.07-15.15-5.547-21.609l-.82-2.779c1.016-4.972-1.055-10.374-4.023-14.327.039-.549-.664-.901-1.016-1.292.078-1.253-1.758-1.644-2.617-2.232-.43-.352-.977-.704-1.485-.822-1.015-.939-2.265-1.448-3.71-1.487-5.352-1.957-11.368-2.74-16.954-2.897-3.671-.783-7.461-.783-11.171-1.135-2.344-.509-4.844-.039-7.149-.744-.273-.078-.547 0-.742.196-.234-.079-.508-.079-.742.117-.274-.274-1.133-.078-1.446-.078-.625-.235-1.289-.235-1.914.039-1.679-.861-1.64.705-1.64 1.918-.235.196-.196.626-.196.94-.078.939-.39 1.918-.078 2.818-.156.352-.351.822-.898 1.096-.235.118-.508-.391-.781-.352-2.5-.861-5.704-.666-8.086.274-.937.274-2.031.196-2.852.744-.781.117-1.523.391-2.227.704-.703 0-2.734.627-3.437.666-1.445-.118-2.93.548-4.375.704-.547-.352-1.289.157-1.875.274-.547.04-1.289-.274-1.758.079-.469-.548-1.445-.079-2.07-.196-.547-.078-1.094-.157-1.602.039-.859-.352-1.875-.391-2.773-.274-.469-.039-1.016-.274-1.484-.196a58.82 58.82 0 0 1-7.734-2.427c-.234-.156-.469-.391-.781-.391-.195.391-.703-.196-1.016-.274-.039-.47-.469-.548-.937-.431l-.039-.235c-.078 0-.195 0-.234-.078 0 0-.039 0-.039.039-.039-.039-.117-.039-.156-.078 0 .235-.195.431-.156.705-.352 1.918.508 3.718.859 5.558.039.196.156.353.352.47.469 1.096.977 2.192 1.563 3.249 1.25 3.171 3.984 6.264 7.656 5.872.43.509 1.523.861 2.07.392 1.328.078 2.617-.04 3.906-.196.508.43 1.172.274 1.758.196 3.008.195 6.172.156 9.18-.274 3.477.43 7.305.039 10.859 0 .625.352 1.484.156 2.148-.079 4.961.196 10.196.196 15.196-.039 3.047.157 6.445.118 9.531.118 4.375.117 8.281.117 12.734.078.078.196.664.313.742.509.508 1.213.86 2.623 1.251 3.953.039.588-.04 1.097.117 1.645-.118.117.117.391.117.548-.469 1.644.273 3.366.078 5.049v1.527c-.391 1.253-1.016 5.011-.352 6.068.274 2.309-.429 4.776.352 6.929.195 1.213 0 2.622.43 3.718.429 2.349.625 4.855 1.289 7.125-.664.587.429 2.153.468 3.014v.039s.001.04.04.079c.937 1.8.898 3.914 1.679 5.793h.078c.196.587.508 1.096.86 1.566.039.039.078.118.156.118.703 1.096.859 2.309 1.211 3.562-.117 0 0 0-.117-.078-.391.117-.977.117-1.172.508-1.953-.548-1.094 1.331-.313 2.075-.039.509.469 1.018.782 1.409-.039.47 0 .901-.039 1.371-.586.626-1.758 1.605-1.133 2.505.039.274.351.509.586.313 1.054-.9 2.265-.979 3.593-.9.352.235.821.274 1.211.039 1.328-.235 2.696-.509 3.946-1.018.586.313 1.132-.391 1.679-.431.391.157 1.25.157 1.563-.156 1.797.391 3.594.235 5.43-.47.976-.391.585-2.114.625-2.936.742 0 1.289-.235 1.796-.587.625-.039 1.133-.392 1.446-.9l1.211-.47c.039.039.078.039.117.039.039.117.273.235.156.039 1.25-.235 2.5-.078 3.711.078.703.47 1.719.274 2.461-.078 0-.156 0-.313.039-.47.117 0 .195-.117.195-.234-.234-1.214.352-2.388-.234-3.484zm-34.492-46.936c-.117-.079-.156-.235-.274-.274-.078-.118-.117-.196-.195-.314h.273c-.039.196.118.392.196.588z" fill="#557689"/><path d="M199.258 197.06c-.039-.43.078-.939-.235-1.291-.234-1.175-.039-3.484-1.914-2.78-.859-.352-1.836.196-2.812 0-1.172-.313-2.695-.117-3.867.196-1.641-.196-3.203.039-4.805-.352-.234-.392-.703-.235-1.094-.313-.586-.588-1.523-.705-2.304-.744.273-.783-.313-1.684-1.172-1.605-.469-.274-.938-.783-1.524-.744-.078-.039-.195-.078-.273-.117-1.328-.744-2.93-1.449-4.492-1.527-.039-.039-.078-.039-.118-.078-1.132-1.371-2.109.704-1.836 1.761-1.015 2.114 1.055 2.662 2.461 3.484-.429.118-.859.352-1.093.744-.118.039-.196.117-.313.156-1.64.079-3.32.94-5 1.057-1.64 0-3.437-.234-5.039.079-.742-.744-2.031.117-1.289.978-3.281 1.997-1.953 2.388-.742 5.207-.156.039.078.509-.039.587-5.117 1.096-8.438-4.932-13.125-4.658-.169-.086-.361-.114-.547-.079-1.172.235-2.461-.743-3.438.235-.664.666-.507 1.605.039 2.192-.234 1.684.079 3.406-.039 5.089-.234 1.488.157 2.897 1.993 2.584 4.023.431 7.226 3.249 10.82 4.815 5.82 4.737 13.398 6.733 20.742 7.281 1.875.94 2.461-.744 2.774-2.231.82-1.801 1.367-4.698-1.524-4.463-.039-.039-.117-.039-.156-.039-.391-.626-1.328-.705-1.953-1.018-1.953-1.566-4.492-2.114-6.133-4.11-.938-.901-2.305-1.331-2.695-2.662.039-.118.078-.235.078-.352 4.726.391 9.765.078 14.453-.314 4.219-.156 8.398-.822 12.07-2.975v-.078h.039c.156-.117.352-.235.469 0 .898-.783 2.305-1.253 2.812-2.427.743-.117 1.446-.783.821-1.488z" fill="#6d5333"/><path d="M85.233 22.861c.039-.196.078-.392.039-.587a1.82 1.82 0 0 0-.352-.9c0-.039 0-.078-.039-.117 0-.039-.039-.039-.039-.078.078-.078.117-.274-.039-.352-.117-.039-.234-.117-.312-.157-.037-.022-.081-.031-.124-.023s-.082.029-.11.063c-.039 0-.078 0-.117.039-.078.039-.156.157-.156.235-.156.117-.312.274-.508.431-.156.157-.352.274-.508.431-.117.157-.195.157-.273.352l-.078.039c-.039.039-.039.078-.039.117s-.156.117-.156.157c-.078.078.039.235-.039.274a.65.65 0 0 0-.195.47c-.039.117.117.235.234.235 0 .078.078.078.156.078.313.078.469.548.742.392.039.039.195-.078.273-.078.156.039.273.078.43.039.039 0 .195-.117.234-.117.117-.039.313.117.391 0 .039 0 .195-.117.234-.117.039.078.039-.117.156-.157 0 0 .039-.157.078-.196.117.078-.078.117 0 0 .156-.078.156-.274.117-.47 0 .039 0 .039 0 0z" fill="#fff"/><path d="M85.272 21.647c-.039-.196-.117-.47-.352-.587-.156-.117-.312-.117-.469-.078-.117 0-.195 0-.312.039-.156.078-.234.235-.273.391-.039.274-.039.587 0 .9 0 .039.039.117.039.157 0 .117.039.196.078.313s.078.235.156.313l.039.039s0 .039.039.039c.078.117.156.196.273.313s.352.078.43-.039c.234-.352.313-.744.313-1.135.078-.235.078-.431.039-.665z" fill="#334f2b"/><path d="M91.877 32.061c-.312-.157-.742-.117-1.055.039a4.06 4.06 0 0 0-.703.391 2.9 2.9 0 0 1-.469.274c-.078.039-.156.039-.195.039a.73.73 0 0 0-.469.352c-.117.157-.156.431-.078.587.078.196.195.392.352.47.078.039.117.039.195.078a.8.8 0 0 0 .43 0c.586-.078.977-.509 1.484-.783.234.078.469.078.664-.078.234-.157.391-.391.391-.705-.039-.274-.273-.548-.547-.666z" fill="#e9c3bb"/><path d="M143.555 196.787l.586-.431c.402-.284.819-.545 1.25-.783s.937-.391 1.367-.587c.39-.196.781-.431 1.094-.744.351-.313.625-.705.898-1.057.273-.391.586-.822.703-1.292.039-.117-.078-.156-.156-.117-.352.313-.586.744-.86 1.096-.273.391-.625.744-.976 1.057-.82.705-1.875.9-2.774 1.409a10.66 10.66 0 0 0-1.289.861c-.351.235-.742.588-.742 1.057 0 .431.43.744.821.705.468-.039.781-.391 1.171-.587.547-.274 1.211-.157 1.797-.157.625 0 1.328.078 1.953-.078.196-.039.196-.352 0-.431-.507-.156-1.054-.117-1.562-.117s-1.016-.039-1.524 0c-.468.039-.859.156-1.25.43-.156.118-.351.274-.546.314-.157.039-.391 0-.352-.196.039-.078.234-.235.391-.352z" fill="#557689"/><g fill="#111119"><path opacity=".25" d="M85.941 40.79c-2.656-1.448-5.586-1.292-8.437-1.722-.039-.039-.078-.078-.078-.117-.625.156-1.328-.039-1.758-.548-.078 2.075 1.953 3.915 3.867 4.228 1.055.861 2.109 1.644 2.617 2.975.391.783 1.758.235 1.445-.587.547-.9 1.25-1.762 1.875-2.701.703-.117 1.289-1.096.469-1.527zm4.219-30.338c-.234.391-.703.9-1.133.822-.234.313-.547.392-.859.196v-.431c-.039.157 0 .313-.039.431-1.68-.783-2.266-3.836-4.297-3.523-.156-.039-.273-.078-.43-.039h-.039v-.47c-.234.039-.43.117-.664.157-1.562.47-2.187 1.84-3.125 3.014-.664 1.057-3.164.783-2.773 2.349-.586.548-.547 1.644-1.172 2.036l-.078.078c-.195.431-1.055.548-1.523.431-.234.313-.82.274-.469-.157-.43.196-.898-.078-1.289-.274.469-1.801-2.187-1.918-3.32-1.292-1.367.431-2.148 3.327-.195 3.327l.352.548c-.117.391-.117.783-.117 1.174-.039.078-.078.117-.156.196-.078-.078-.195-.117-.351-.117-.039.235-.078.509-.195.705-.039.196-.156.509-.391.352-.039.039-.039.078-.078.157.156.157-.117.352-.234.431-.234.352-.742.47-1.055.744-.028.033-.067.055-.11.063s-.087-.001-.124-.024c-.899 1.644-3.242.274-2.734 2.114-.195.352-.156.9.156 1.135.078 1.488.859 2.858 2.07 3.758.273.117.43.392.664.548-5.313 2.623.82 10.139 4.375 5.324h.117c.352-.626.625-1.448.234-2.114-.078-.117 0-.274.117-.274 1.523-.235 3.086-.744 3.828-2.192.781-1.174 2.305-1.487 3.203-2.544 1.328-1.213-.664-3.132.703-4.228.586-.392 1.328-.666 1.797.039 0 .9 1.289 1.096 1.523.235.156-.626.313-1.37.898-1.683 3.906-2.153 2.07-2.623 4.102-5.011-.742-1.566-.664-1.488.938-1.331.039-.078.078-.157.078-.274l1.445-.509c.313-1.213 2.227-3.445.352-3.875zM73.598 29.868c-.195.117-.391.235-.586.313.117-.313.273-.587.43-.9a.89.89 0 0 0 .469.235c-.117.117-.195.235-.312.352zm5.391-9.904c.039-.157.078-.352.195-.47 0 .157 0 .352-.039.509-.039-.039-.117-.039-.156-.039zm-36.094 92.228l.586-2.466a.75.75 0 0 0-.195.352l-.43 2.114h.039z"/><path opacity=".25" d="M76.33 59.893c.273-7.007-5.547-11.352-9.766-4.032-5.312 8.025-5.508 18.007-8.398 26.972-.273-.235-.703-.235-1.016 0-.391-.039-.703.196-.82.548-2.383 5.167-2.578 11.783-7.578 15.306-5.391 5.715-8.477 24.231-8.945 32.373.43 1.409-3.164 7.555.039 6.42 3.711-5.363 3.945-12.018 5.781-18.124-.039-.157 5.625-8.025 5.039-8.025.156-.274.469-.509.391-.822 0-.04.039-.039.039-.079.742.118 1.68-2.896 1.992-3.288 1.133-1.253 1.914-3.249 2.148-4.893.273-2.075 1.406-3.797 2.969-5.128-.664 6.067-2.422 12.409-.117 18.281.195-.587.469-1.292.82-1.762.117-.235.273-.469.391-.704.156-.353.43-.666.664-.94 0-.039.039-.039.039-.078l-.039-.039v-.118c4.961-12.526 9.336-25.366 13.437-38.245 1.445-4.463 3.164-8.847 2.93-13.623zm123.32 137.011c-.937-.901-3.945 1.252-4.726 2.035-2.813.979-5.508 2.114-8.555 2.427-1.172-.117-2.383.118-3.594.118-2.851-1.566-5.859-3.837-6.484-7.242.43-.783-.664-1.644-1.289-.979h-.117c-.117-.313-.391-.548-.742-.548-.235-.705-.899-1.135-1.563-1.409-.234-.235.039-.627 0-.94-.117-.939.235-1.84.352-2.818-.039-.039.078-.627.039-.627-.196-1.331-.821-2.818-1.133-3.875.039-.039.039-.078.078-.117-.156-.314-1.094-1.292-.43-1.371 0-.156.118-.195.274-.195.312-.431.586-.94.781-1.449-.312-.939-1.445-1.722-2.461-1.605-.195-.352-.351-.783-.781-.978.078-1.136-.977-2.271-2.188-2.349-.156-.235-.351-.47-.625-.548 0 .078 0-.078 0 0-.312.156-.546-.118-.742-.313-.078 0-.195-.392-.273-.353-3.711-3.053-6.485-7.242-7.774-11.9-.312-1.018-1.875-.509-1.484.509-.117 4.189-.391 9.16 2.227 12.762.351.9.468 1.879.703 2.818-.391.196-.352.744-.43 1.135-.742.353-1.133 1.214-.938 1.879-.078.079-.195.196-.273.313.078.196.078.392.195.548.274.235.469.549.625.823.313.195.43.743.743 1.017.156.274-.313.392-.391.118-.156.43-.547-.118-.781-.196.039.039 0 .078 0 .157-.235-.079-.469-.118-.703-.118-.04-.039-.079-.039-.079-.078 0 .039-.039.039-.039.039-.234 0-.468-.039-.703-.039.078-.039.156-.039.196-.078h-.235c-.078.039-.234-.04-.312-.04-.43.157-.899.196-1.133-.234-.078 0-.156-.274-.195-.314 0 0-.04 0-.04.04-9.414-7.712-10.507-21.374-12.304-32.609-1.758-7.399 3.398-16.206-7.852-15.854-1.211-.039-2.695-.157-3.906-.117-.82.234-1.758 0-2.656 0-.039.039-.157 0-.196 0-1.054.156-2.304-.079-3.398-.157-1.094.196-2.578-.078-3.672-.274-.312 0-.625 0-.937-.039.312.704-1.875.156-2.266.078-3.242-.235-6.641-.235-9.805-.47-2.539-.078-5.078-.039-7.578-.313-.039.118-.195 0-.273-.039-.156.117-.391.274-.508 0-.352-.117-.898.274-1.172 0-.039 0-.117.078-.156.078-.312.118-.547 0-.82-.078-.273.078-.508-.196-.742-.196.313.118.078.627-.156.392-1.211-.822-3.008-.392-2.734-2.584 1.289-4.032 8.359-2.427 8.867-7.281.078-.039.156 0 .234.039.196.313.313.744.703.861v-.156c-.039 0-.039-.039-.078-.079-.156.118-.39-.078-.273-.234 2.07.548 1.133-4.189 1.328-5.403.625-3.523.312-7.359-.508-10.804h-.039c0-.274-.508-.626-.43-.861-.351-2.271-1.093-3.915-1.445-6.146 0-.039-.195-.509-.195-.548-.235-.117-.235-.196-.43-.078.195-1.253-.234-2.036-.547-3.249-.039-.078-.234-.744-.195-.822-.43-1.37-.625-2.466-1.094-3.836-.117 0 .195-.196.195-.313-.078-.979-.664-1.448-.508-2.349.039-.196 0-.587.156-.705 0-.157-.078-.822-.078-1.018-.781 4.776-1.172 17.302-6.602 18.751-1.367.235-2.305-1.135-2.578-2.31.039-5.48 1.289-10.334-3.437-14.601 0 .822-.039 1.644-.039 2.427l.039.039c.625 5.676-1.523 11.548-4.805 16.05-.937.939-1.055 2.114-1.016 3.405a1.75 1.75 0 0 1 .273.235c.391.079.781.274 1.055.509 1.445.157 2.93 1.175 4.375.392.195.117.43.039.664 0 .43.156 1.094.352 1.328-.118.898 0 1.797.118 2.422.666-.039.43.586 1.8.078 1.957 0 .117-.039.274-.195.313-.039.235-.156.431-.273.627-.273.587-.781 1.056-1.211 1.526-2.5 2.31-4.922 4.776-7.344 7.203-1.055 1.644 1.602 1.605 2.578 1.174 0 .04.039.079.078.079-.82.274-1.641.587-2.5.822-1.016-.392-2.227.078-3.281.117-.234-.156-.469-.274-.703-.391-.937 0-1.875.117-2.812-.079-.273.157-.664-.156-1.016-.117-.195.117-.312.313-.352.509-3.555-1.057-7.734-.626-11.172-2.545-1.016-.782-2.539-.9-3.594-1.722-.039.196-.234.235-.352.117v-.234c-.43-.314-1.094-.431-1.406-.822-.039-.04-.078-.04-.156-.079.469 5.285-3.594 10.296-2.031 15.424.898 1.84 3.906 1.252 4.375.039.469-1.175.156 1.057 1.563-1.957.039-.118.078.078.195.156.273-.9-.195-2.035-.117-2.897-.039-.156.117-.156.313-.117.117.391.43.665.547 1.057h.039c.039.117.117.235.195.313 0 .039 0 .078-.039.157.234.039.156.313.117.469 0 0 .039 0 .039.04.039-.118.117-.157.234-.157.2.278.422.54.664.783-.039.156-.078.313-.117.43.156.196.742.431.469.705.117 0 .195.078.313.078v.04c.313.234 1.172.822.898 1.252.859.47 1.758.901 2.695 1.214.703.078 1.484-.118 2.109.274.313-.079.586-.079.898-.079-.039-.039-.117-.078-.156-.117h.664c.078.039.156.117.234.157h.547c-.078-.04-.156-.118-.195-.157 1.055-.039 2.07.157 3.125.078.078-.039.117-.117.156-.156h.234c-.039.078-.078.117-.078.195.586.079 1.172-.039 1.719-.078.039-.039.039-.117.078-.156h.313v.156c1.133-.117 2.227-.117 3.359-.039 0-.039.039-.078.039-.157h.078c3.789.235 7.852.157 11.68-.117.352 0 1.836.391 2.148.157 5.586.626 11.289-.235 16.875.195 8.36-.117 17.149-.235 25.469.079.273.117.352.391.469.626.078-.039.117-.039.195-.078.117.117.117.274.234.352.899 3.68.743 7.399.938 11.157-.547 1.252-.508 2.622-.273 3.992.195 1.057-.665 11.666.82 11.94.039 5.402.898 10.648 2.89 15.658-.468 2.506 2.54 4.345 2.735 6.773a1.41 1.41 0 0 0 .078.43c-.156.235-.43.392-.742.352-3.008-.548-.742 2.78.078 3.798-.547 1.017-1.133 1.879-1.524 3.053-.312.939 1.094 1.331 1.485.509.078 0 .234.117.312.078-.039.235-.039.352-.117.548v.078c.195.627.274 1.371.391 2.036.039.118-.039.235-.156.235.078 1.018.273 2.153.078 3.092.039 1.018-.078 2.036-.078 3.054h.234c.898.978 2.266.548 3.437.861 3.164.979 6.133 2.623 9.063 4.15 4.805 4.462 11.25 6.733 17.656 7.242l1.406.234h-.039c1.25 0 3.086.901 4.102.04 1.992-2.936-8.711-1.801-9.727-3.876-3.007-1.683-4.687-5.519-3.047-8.729-.312-.274-.507-.666-.703-1.018-.078.195-.156.43-.273.626-.274-.352-.859-.352-1.172-.039a.79.79 0 0 0-1.094-.705c-.039 0-.039-.039-.078-.039-.039-.274-.078-.587-.351-.704-.157-.274-.313-.548-.586-.705-.039-.94-.547-1.683-1.094-2.427a1.41 1.41 0 0 0-.43.078c-.078-.391-.156-.822-.586-.978-.078-.901-.39-1.684-.742-2.506.039 0 .078 0 .156-.039-.117-.235-.039-.9.352-.861.273-.548.976-.744 1.445-1.096.039-.118.039-.235 0-.392l.196-.195a141.24 141.24 0 0 1 3.71 4.736c.157.235.196.627.508.705.313.43.586.861.899 1.252 0 .118 0 .235-.039.353.312.509.703.978.976 1.487.078 0 .117-.039.196-.078.081.078.173.144.273.196 0 .078 0 .196.039.274.195-.196.586-.039.82-.078.039-.04.118-.04.196 0 .156-.04.312 0 .429-.04 1.328-.078 3.047-.43 4.297.118 2.578 0 5.156-.235 7.696-.235.312.157.742-.078 1.054.078 5.157-.548 10.899-1.957 14.805-5.441.391-.235.742-.509.976-.9-.078-.274-.117-.666 0-1.057z"/></g><path opacity=".5" d="M83.945 22.039c4.961-1.292 9.453-.587 10.039 1.566s-3.008 4.971-7.969 6.302-9.453.587-10.039-1.566 3.008-4.971 7.969-6.302z" fill="url(#A)"/><path d="M15.782 135.327c.078-2.309 5.742-3.954 12.656-3.679 6.875.274 12.422 2.309 12.344 4.619s-5.742 3.953-12.656 3.679-12.422-2.309-12.344-4.619z" fill="url(#B)"/><path d="M40.196 136.345c.078-1.762 4.766-2.975 10.508-2.779s10.352 1.8 10.273 3.562-4.766 2.975-10.508 2.779-10.352-1.8-10.273-3.562z" fill="url(#C)"/><path d="M70.742 138.772h71.602" stroke="#1d1d1b" stroke-width="1.5" stroke-miterlimit="10"/><g fill="#1d1d1b"><path d="M71.561 138.459c-.351-.117-.742-.117-1.133-.117s-.781-.039-1.172-.039c-.703 0-1.406.039-2.07-.157-1.172-.313-2.109-1.214-2.891-2.114-1.875-2.114-3.203-4.541-4.219-7.164-.274-.743-.547-1.487-.703-2.27l-.195-1.135c-.039-.196-.039-.431-.078-.627l-.117-.587c0-.078-.195-.078-.195 0-.078.353-.117.666-.078 1.018l.156 1.135c.156.744.352 1.449.586 2.153.469 1.409 1.055 2.819 1.758 4.111a20.82 20.82 0 0 0 2.383 3.444c.82.979 1.797 1.997 3.008 2.467.742.313 1.523.352 2.305.352l1.367.039c.43 0 .898.039 1.328-.078.234.039.195-.353-.039-.431zm9.219.313c.078-.156 0-.313-.117-.43-.117-.157-.195-.274-.312-.392l-.586-.665c-.195-.196-.352-.431-.508-.627-.078-.117-.156-.274-.273-.391-.078-.078-.195-.235-.312-.235-.078 0-.156 0-.156.078-.078.118-.039.314 0 .431.039.157.117.313.234.431.156.274.391.509.586.743l.625.705c.117.117.234.235.391.352.078.039.313.196.43 0zm1.602-.117c.039-.078 0-.157-.039-.274 0-.039-.039-.118-.039-.157v-.039c0 .039 0-.039 0 0v-.078-.196c0-.156-.039-.274-.039-.43 0-.079-.039-.157-.078-.196s-.039-.079-.078-.118l-.039-.039c.039.039-.039-.039-.039-.039-.117-.117-.312-.039-.352.157 0 .078 0-.04 0-.04l-.039.079v.078c0-.039 0 0 0 .039v.039.079.117c0-.039 0-.039 0 0a1.34 1.34 0 0 0 .039.392c0 .156.039.274.078.43s.117.392.313.431c.156-.039.234-.118.313-.235zM62.772 92.189c.039.47.117.94.195 1.409l.117 1.448.117 2.897c-.039 1.918-.274 3.836-.664 5.715a27.53 27.53 0 0 1-1.875 5.481l-2.656 5.48c-.43 1.018-.82 2.075-1.055 3.171-.234 1.018-.469 2.192-.195 3.249 0 .037.014.071.04.097s.06.04.097.04.071-.014.097-.04.04-.06.04-.097c.117-.47.156-.939.234-1.448l.273-1.449c.234-.978.586-1.918.938-2.818.781-1.879 1.758-3.641 2.656-5.481 1.68-3.523 2.617-7.32 2.695-11.234.039-1.057-.039-2.153-.156-3.21-.039-.509-.156-1.057-.273-1.566-.117-.548-.195-1.096-.391-1.605-.078-.157-.273-.157-.234-.039zm-5.937 29.516c1.25.861 2.656 1.526 4.023 2.114 1.406.587 2.852 1.135 4.336 1.565 2.93.862 5.938 1.449 8.984 1.645s6.133.117 9.18-.314c1.523-.234 3.047-.509 4.531-.9 1.641-.431 3.242-.939 4.883-1.37 3.125-.861 6.406-1.409 9.609-.548.391.117.742.235 1.133.313.234.078.39-.274.156-.391-1.328-.783-3.047-.979-4.531-.979-1.641-.039-3.242.235-4.844.548-1.641.313-3.281.822-4.883 1.292-1.523.43-3.086.822-4.648 1.096-3.008.548-6.055.744-9.141.626a43.99 43.99 0 0 1-9.023-1.292c-2.969-.743-5.859-1.839-8.633-3.17-.312-.157-.664-.274-.977-.431-.195 0-.234.157-.156.196z"/><path d="M59.141 127.029c.039.078.078.156.156.156.781.118 1.641.039 2.422-.078s1.602-.352 2.344-.626l.547-.235c.156-.079.391-.157.43-.313.039-.118.039-.235-.078-.274-.156-.118-.352 0-.508.078-.781.313-1.523.587-2.344.744l-1.367.195-1.406.118c-.078 0-.156.039-.195.156v.079zm.781 1.683c.625.196 1.328.078 1.953 0 .664-.078 1.328-.235 1.992-.47.625-.196 1.25-.47 1.875-.744l.898-.469c.273-.157.586-.274.781-.548.078-.079-.039-.235-.117-.235-.312 0-.547.195-.82.313-.312.117-.586.274-.898.391-.625.274-1.211.509-1.875.705-.625.196-1.211.352-1.875.431l-.937.117c-.312.039-.664 0-.977.039-.195.118-.195.431 0 .47zm13.281-.9c.117.9.352 1.839.547 2.74l.391 2.857c.039.47.117.94 0 1.41-.078.43-.352.783-.586 1.135l-.859 1.018c-.234.274-.703.587-.742.939 0 .079.078.196.195.196.234 0 .352-.157.508-.274.156-.157.352-.313.508-.509l.898-1.057c.273-.352.508-.744.625-1.174.117-.47.078-.94 0-1.41-.117-.978-.312-1.957-.508-2.896-.195-.979-.391-1.997-.781-2.936 0-.157-.195-.157-.195-.039z"/><path d="M74.1 131.021c-1.25-.274-2.695.157-3.711.862s-1.758 1.683-2.109 2.857l.273-.117c-.664-.392-1.367-.626-2.109-.744-.391-.039-.742-.039-1.133-.039-.352.039-.703.039-.977.274-.039.039-.039.157.039.196.313.039.664-.039.977-.079a4.42 4.42 0 0 1 1.016 0c.703.079 1.367.314 1.992.666.117.078.234 0 .273-.118.313-1.057 1.016-2.074 1.914-2.701a5.17 5.17 0 0 1 1.641-.743c.625-.157 1.211-.157 1.836-.118.195.039.195-.196.078-.196zm4.336-3.679c1.016 3.445 4.766 5.128 8.047 5.598 2.031.313 4.141.313 6.211.391l6.641.235 13.164.47 13.164.469c4.375.157 8.789.274 13.164 0l1.641-.117a.12.12 0 0 0 0-.235c-4.297.157-8.594.118-12.891-.039l-12.968-.548-12.93-.548-6.445-.274c-2.109-.078-4.219-.118-6.289-.274-3.516-.235-7.422-1.057-9.414-4.267a13.6 13.6 0 0 1-.547-1.057c-.156-.235-.625-.117-.547.196z"/><path d="M132.968 134.545c.782-.666 1.446-1.488 2.149-2.271l1.992-2.309c.078-.079-.078-.157-.156-.118-.781.666-1.445 1.527-2.109 2.271s-1.407 1.487-1.954 2.349c-.039.078.039.117.078.078zm-.351-.392c-.352-.665-.703-1.291-.938-1.996-.117-.352-.195-.705-.273-1.057s-.078-.744-.234-1.096c-.039-.078-.157-.078-.196 0-.117.352-.078.744 0 1.135s.157.783.313 1.135c.234.705.586 1.449 1.133 1.997.117.117.273 0 .195-.118zm11.719 63.378c-.313.274-.274.9-.274 1.291 0 .47.078.94.117 1.371l.157 2.935-.039 2.936c0 .392.039.783.312 1.057.117.118.274.235.469.274s.312-.039.469-.156c.117-.118 0-.313-.118-.313s-.312-.118-.39-.196c-.117-.118-.117-.313-.117-.47l.039-1.213v-2.506l-.157-2.505-.117-1.174c0-.196-.039-.431 0-.627 0-.195.078-.391.039-.587-.117-.157-.273-.196-.39-.117zm18.242-1.801c-.469.078-.82.391-1.211.705l-1.055.861c-.351.352-.351.743-.195 1.213l.508 1.253c.742 1.605 1.679 3.132 2.773 4.541l1.992 2.27c.078.079.196.079.313.039l2.5-1.409c.312-.196.703-.352.742-.744.078-.391-.156-.743-.391-1.057l-3.203-4.58-.937-1.213c-.313-.392-.625-.822-1.055-1.096-.078-.039-.195.039-.156.117.117.392.39.705.625 1.018l.742 1.018 1.484 2.035 1.446 2.075.703 1.057c.078.157.234.313.195.509s-.234.274-.39.352l-2.618 1.488.313.039c-1.172-1.174-2.188-2.427-3.047-3.836l-1.211-2.192c-.195-.353-.352-.744-.508-1.097l-.234-.548c-.078-.195-.235-.469-.156-.665s.312-.313.429-.431l.586-.469.586-.47c.195-.157.352-.313.508-.548.156-.157.039-.274-.078-.235z"/><path d="M166.521 200.858c-.195-.078-.429.117-.586.196l-.468.234-.469.235c-.196.118-.391.196-.508.353-.117.195.039.469.273.469.196 0 .391-.156.586-.235.157-.078.313-.156.43-.274l.43-.274c.156-.078.429-.195.468-.391.04-.157 0-.274-.156-.313zm-1.133-1.488c-.273.039-.507.157-.742.274a3.88 3.88 0 0 0-.664.431l-.664.47c-.117.078-.195.156-.273.274s-.196.235-.235.352.078.196.196.196c.078 0 .117-.039.156-.079s.117-.039.195-.078c.117-.078.235-.117.352-.235l.586-.43a3.35 3.35 0 0 1 .625-.392c.234-.156.468-.274.625-.47.078-.117.039-.352-.157-.313zm-3.593 2.036c-.196-.078-.43 0-.625.039s-.391.039-.586.039c-.43 0-.86-.078-1.25-.156-.821-.196-1.602-.548-2.383-.94l-2.461-1.174-1.25-.627c-.391-.195-.781-.469-1.25-.548-.117-.039-.234.118-.117.235.351.353.781.548 1.211.783l1.211.705 2.617 1.37c.82.391 1.64.744 2.539.939.43.079.859.118 1.289.079.352-.039.977-.079 1.172-.392.078-.156 0-.274-.117-.352zm6.757 3.523c.274.587.704 1.135 1.094 1.644s.86.979 1.289 1.409a18.42 18.42 0 0 0 3.164 2.349c1.133.666 2.344 1.253 3.555 1.723l1.875.704c.547.196 1.328.274 1.641.822s.117 1.292-.039 1.84c-.235.861-.586 1.762-.664 2.662-.04.196.273.235.351.078.391-.743.586-1.605.859-2.388.196-.587.352-1.213.274-1.8-.078-.627-.391-1.175-1.016-1.449s-1.289-.43-1.953-.665c-2.539-.901-5-2.153-7.07-3.876-.586-.469-1.133-1.017-1.602-1.565-.508-.548-.898-1.214-1.406-1.762-.156-.235-.469.078-.352.274zm-2.109.822v.157c0 .078.039.117.078.195.039.118.117.196.156.314.118.195.274.391.43.587a11.56 11.56 0 0 0 .977.978c.117.118.312.118.429 0s.118-.313 0-.43c-.351-.274-.664-.587-.976-.901l-.43-.469-.234-.235-.117-.118c-.039 0-.039-.039-.079-.039s-.039-.039-.078-.039c-.078-.157-.195-.078-.156 0zm2.659 2.74c0 .313.352.548.547.744l.898.744c.586.469 1.211.9 1.875 1.291 1.289.823 2.657 1.566 4.063 2.154l1.172.469c.39.157.82.313 1.25.353.156 0 .195-.196.078-.274-.274-.196-.664-.314-1.016-.47l-1.015-.431-2.071-.978c-1.328-.705-2.578-1.488-3.789-2.349l-1.015-.744c-.235-.235-.586-.626-.977-.509.039-.039 0-.039 0 0zm-24.414-4.306c.547.274 1.172.392 1.797.509l1.758.352a17.45 17.45 0 0 1 3.398 1.175l3.242 1.683 3.282 1.722c2.07 1.136 3.945 2.584 6.015 3.719 1.953 1.057 3.985 1.958 6.094 2.623 1.172.391 2.383.705 3.594.939l1.836.275c.625.078 1.25.156 1.875.117.156 0 .195-.274.039-.313-.547-.118-1.133-.196-1.68-.274l-1.602-.313-3.242-.822c-2.109-.627-4.179-1.488-6.133-2.506a26.35 26.35 0 0 1-2.851-1.722l-3.086-1.918-3.242-1.723-3.242-1.683c-1.172-.587-2.422-1.135-3.711-1.409-.664-.157-1.368-.235-2.032-.353s-1.367-.274-2.07-.195c-.039.039-.078.117-.039.117zm54.805-6.929c.117-.665.078-1.331-.039-1.996a11.28 11.28 0 0 0-.43-1.918c-.078-.235-.195-.47-.391-.627-.234-.195-.507-.235-.781-.235l-2.07-.039c-2.656.039-5.313.431-7.969.235-.703-.039-1.406-.156-2.109-.274l-.977-.235c-.351-.117-.703-.274-1.055-.313-.273-.039-.429.274-.195.47.469.352 1.172.47 1.719.626s1.133.235 1.719.313c1.211.157 2.421.157 3.632.118l3.907-.235 1.914-.039.976.039c.274 0 .703-.039.899.156s.234.588.312.862l.235 1.096.39 2.114c.117 0 .313.039.313-.118zm-2.969-3.014c-.43 0-.859.078-1.289.117l-1.25.118-2.617.078a31.83 31.83 0 0 1-5.117-.391l-2.891-.548c-.273-.039-.391.352-.117.391 1.679.47 3.437.705 5.156.822 1.758.157 3.516.157 5.234.039l1.446-.156c.468-.079.976-.118 1.445-.274.156-.039.117-.196 0-.196zm-23.672-6.537c-.234.939-.391 1.839-.547 2.779-.078.391-.117.744.117 1.096.196.313.586.509.899.705 1.445.939 2.969 1.683 4.609 2.27.938.352 1.875.626 2.813.822.117.039.273 0 .351-.156.43-.783.821-1.605 1.133-2.467l.43-1.331c.117-.391.234-.782-.156-1.096-.352-.274-.821-.391-1.211-.587l-1.329-.587-2.578-1.057-1.523-.587c-.508-.196-1.016-.392-1.563-.47-.273-.039-.468.313-.195.431.391.196.781.313 1.211.47l1.211.469 2.422.979 2.422 1.057c.195.078.39.196.586.274.039.039.156.039.156.078.039.078 0 .157-.039.235l-.391 1.174c-.312.901-.742 1.762-1.211 2.623l.352-.156a24.17 24.17 0 0 1-4.57-1.527 21.83 21.83 0 0 1-2.149-1.057l-1.055-.626c-.156-.079-.312-.157-.39-.314-.156-.195-.078-.43-.078-.626l.429-2.897c.118-.039-.117-.078-.156.079z"/><path d="M177.303 188.488c-.235.156-.352.469-.469.704l-.352.783-.312.783c-.078.274-.234.548-.195.861.039.196.312.274.429.118.196-.196.235-.548.313-.822.078-.235.156-.509.273-.744s.196-.509.274-.744c.039-.117.117-.235.156-.352s.117-.274.117-.431c.039-.156-.117-.274-.234-.156zm1.797.822h.078c-.274.039-.352.391-.43.626l-.273.744c-.079.274-.196.509-.274.783a1.41 1.41 0 0 0-.078.43.3.3 0 0 0 .078.196c.039.039.039.039.078.039.274.078.43-.274.469-.47l.234-.783.235-.782c.039-.196.234-.588.039-.744l.039.078v-.039c0-.078-.117-.157-.195-.078zm-4.493 3.445c-.234.234-.468.43-.742.587-.312.156-.703.274-1.054.391-.782.235-1.602.431-2.461.548-1.68.274-3.36.313-5.039.313-.469 0-.977-.039-1.446-.039-.429 0-.898-.039-1.328.157-.078.039-.078.156 0 .156.391.196.82.235 1.211.274.43.04.859.04 1.328.04h2.695c1.758-.079 3.555-.314 5.274-.823.742-.234 1.758-.548 1.992-1.33.078-.275-.234-.47-.43-.274zm-28.632 4.188c.742.392 1.718.431 2.578.352.898-.078 1.797-.313 2.656-.587l2.617-.783c.899-.195 1.758-.274 2.656-.274h2.539c.782-.078 1.68-.195 2.344-.665.352-.235.508-.587.547-1.018l.117-1.213a10.37 10.37 0 0 0-.195-2.467c-.195-.939-.625-1.722-1.211-2.505s-1.406-1.644-1.133-2.74c0-.079-.078-.118-.117-.039-.781 1.605.977 2.975 1.484 4.306.586 1.448.704 3.131.469 4.697-.078.47-.351.627-.742.822-.391.159-.796.277-1.211.353-.82.117-1.641.078-2.461.078-.859 0-1.68 0-2.5.156-.859.157-1.719.431-2.578.705-.938.313-1.875.587-2.852.783-.507.078-1.015.157-1.523.157s-.977-.079-1.484-.157c-.039-.117-.039 0 0 .039z"/><path d="M159.336 186.374c-.235.235-.391.548-.625.783-.235.274-.469.509-.743.704-.546.431-1.171.744-1.796 1.018-1.407.626-2.93.861-4.336 1.448-.782.314-1.68.666-2.227 1.292-.039.039 0 .118.078.079.391-.157.742-.392 1.094-.548s.742-.314 1.133-.431l2.344-.666c1.367-.391 2.773-.861 3.906-1.8.547-.431 1.211-1.096 1.367-1.84 0 0-.117-.118-.195-.039zm2.461 5.519c.039.274.39.353.625.353.312 0 .625-.079.937-.196.625-.235 1.172-.666 1.719-.979.625-.352 1.25-.548 1.953-.548.742 0 1.484.118 2.227.196.781.078 1.718.235 2.421-.157.157-.078.079-.274-.078-.313-.703-.078-1.406-.039-2.07-.117l-2.109-.235c-.664-.039-1.368.039-1.993.313-.586.235-1.093.626-1.64.979-.274.195-.586.352-.899.469l-.547.118c-.156 0-.312-.039-.468 0-.039 0-.117.039-.078.117zm5.507-6.615c.43-.509.86-1.018 1.368-1.449l1.484-1.292c.859-.704 2.305-1.448 2.109-2.779-.078-.548-.468-.939-.976-1.174-.469-.235-.938-.392-1.289-.822-.313-.392-.547-.901-.821-1.331s-.625-.822-1.054-1.136c-.508-.313-1.055-.548-1.602-.782-.273-.118-.508-.274-.742-.431s-.508-.313-.703-.509c-.078-.078-.156 0-.117.117.097.204.23.39.39.549s.352.313.586.43c.43.274.86.47 1.328.705.43.235.86.509 1.172.9s.508.861.781 1.292.547.861.977 1.135c.391.274.938.352 1.289.666.43.391.234 1.017-.078 1.409-.391.47-.938.783-1.406 1.174-1.094.901-2.032 2.036-2.813 3.171-.078.118.039.235.117.157z"/><path d="M171.131 181.794c.078 0 .117-.079.117-.118.002-.026-.002-.052-.011-.077s-.024-.046-.042-.065-.041-.033-.066-.042-.05-.013-.076-.011c-.157 0-.235.195-.235.313 0 .235.157.509.274.743l.312.823c.43 1.017.782 2.113 1.407 3.053.117.157.351.039.312-.118-.156-.861-.508-1.644-.82-2.466l-.508-1.174c-.078-.196-.195-.392-.274-.587-.039-.079-.078-.196-.156-.274-.039-.039-.117-.157-.156-.196l-.039.157-.156.039v-.157c-.078.078 0 .157.117.157zm-11.602 2.857c-.117-.783-1.015-1.017-1.679-1.096l-1.446-.156c-.429-.039-.898-.039-1.328-.196s-.586-.548-.664-.94c-.078-.352-.156-.782 0-1.135.195-.313.625-.43.859-.704a2.1 2.1 0 0 0 .43-1.057c.039-.118-.156-.235-.234-.079-.196.353-.313.744-.664 1.018-.313.235-.664.352-.821.744-.156.352-.117.744-.039 1.096s.157.744.391 1.057.625.431 1.016.47l1.484.156c.82.079 2.031 0 2.5.861a.1.1 0 0 0 .046.051c.021.011.045.015.068.01s.043-.017.058-.035.023-.041.023-.065z"/><path d="M159.218 184.651a2.43 2.43 0 0 0-.312-1.566c-.235-.469-.586-.861-.899-1.291-.273-.392-.468-.783-.351-1.253.078-.391.351-.705.586-.979.547-.626 1.172-1.331 1.133-2.231-.04-.548-.313-1.057-.586-1.527l-.86-1.644c-1.054-2.27-1.562-4.736-1.679-7.242-.118-2.623.078-5.206.273-7.829l.43-4.463.273-2.192.274-2.231c0-.274-.43-.352-.508-.078-.157.665-.274 1.331-.352 1.996l-.273 1.957-.43 3.993-.43 7.829c.039 2.545.391 5.089 1.328 7.477.196.548.469 1.096.704 1.605l.898 1.605c.234.431.352.901.195 1.37a3.31 3.31 0 0 1-.664.979c-.586.744-1.172 1.566-.781 2.544.195.548.625.94.977 1.371.429.508.625 1.174.781 1.8.156.039.273.079.273 0zm10.235-7.711c.742-.744.859-1.997.625-2.976-.274-1.096-1.055-1.957-1.719-2.818-1.406-1.801-2.5-3.876-3.203-6.029-.781-2.387-.938-4.932-1.328-7.398-.391-2.505-.977-5.011-1.641-7.477l-1.25-4.11-1.406-4.071c-.156-.353-.664-.235-.547.156l1.172 3.641 1.094 3.562c.703 2.427 1.289 4.854 1.718 7.359l1.211 7.399c.547 2.192 1.485 4.267 2.774 6.146.351.548.742 1.057 1.132 1.527s.782.939 1.055 1.448c.313.548.469 1.135.43 1.722s-.274 1.136-.469 1.723c-.039.196.234.352.352.196zm-13.711 8.729c-.742-.822-2.032-1.057-3.125-.979a4.66 4.66 0 0 0-1.602.431c-.469.235-1.015.587-1.289 1.057-.009.016-.013.035-.01.054s.011.036.024.049.031.022.049.025.038-.001.054-.011c.43-.274.821-.587 1.289-.783a4.86 4.86 0 0 1 1.485-.352c1.054-.078 1.992.235 2.929.666.157.039.274-.079.196-.157z"/><path d="M157.187 151.377c-.117-.078-.313.039-.43.118l-.508.352-1.015.626c-.352.196-.664.431-.977.666s-.664.509-.82.822c-.01.016-.013.035-.011.054s.011.036.025.049.03.022.049.025.038-.001.054-.011c.195-.078.352-.235.508-.352a3.57 3.57 0 0 1 .508-.313l1.054-.626a9.12 9.12 0 0 0 1.016-.666c.078-.039.82-.587.547-.744zm-4.844.157c.938-.587 1.953-1.096 3.047-1.253 1.016-.156 2.148-.196 2.969-.939.664-.627.976-1.605.468-2.427-.273-.431-.703-.783-.703-1.37 0-.549.235-1.057.469-1.488.273-.47.586-.979.742-1.488a6.26 6.26 0 0 0 .235-1.683l-.157-3.64c-.078-1.175-.195-2.31-.664-3.445l-1.406-3.054c-.547-1.096-1.133-2.153-1.797-3.17s-1.406-2.075-2.344-2.858c-.234-.196-.507.117-.351.352l1.953 2.545c.586.861 1.094 1.8 1.602 2.701.507.939.937 1.918 1.367 2.897l.625 1.526c.156.548.234 1.135.312 1.723l.196 3.601c.039.548.039 1.096-.04 1.644s-.273 1.057-.546 1.566c-.469.861-1.133 1.879-.782 2.897.157.47.547.822.782 1.253.195.391.078.822-.118 1.174-.625.979-1.914 1.057-2.929 1.331-1.133.274-2.227.744-3.086 1.566 0-.039.078.078.156.039zm-.234-27.285c-1.172-.861-2.5-1.566-3.789-2.153s-2.696-1.096-4.102-1.527c-2.852-.861-5.82-1.331-8.75-1.683l-9.57-.939-10.352-.901c-3.437-.235-6.914-.391-10.351-.352-.43 0-.86.039-1.289.117-.235.04-.274.47 0 .509.195.039.39.079.585.079h.665 1.25c.859 0 1.718 0 2.578.039a116.91 116.91 0 0 1 5.195.235c3.437.195 6.836.509 10.234.822l9.727.939c2.93.313 5.859.744 8.75 1.449 2.812.704 5.586 1.683 8.125 3.17.312.196.625.353.937.548.157.04.313-.234.157-.352z"/><path d="M97.733 73.673l.938 4.737c.195 1.605.274 3.171.274 4.776 0 3.21-.274 6.459.313 9.63.313 1.605.899 3.132 1.328 4.698l1.25 4.775c.821 3.171 1.797 6.342 2.149 9.591.39 3.249.234 6.498-.196 9.748-.039.391-.117.822-.195 1.213s.547.587.625.157a39.17 39.17 0 0 0 .547-9.787c-.234-3.288-1.133-6.459-1.953-9.669l-1.25-4.854-1.406-4.776c-.86-3.171-.704-6.42-.664-9.669l-.234-4.854c-.192-1.588-.505-3.158-.937-4.697l-.391-1.174c0-.039-.234 0-.195.157zm-.273 9.513c-.273.235-.508.548-.625.9a.92.92 0 0 0 .234.979c.234.235.586.352.898.196s.43-.548.508-.9c.039-.196.078-.391 0-.587s-.195-.352-.391-.352c-.078 0-.156.078-.117.157 0 .117.039.196.078.313 0-.039 0 .039 0 .039v.078.039.078l-.117.352c0 .039-.039.078-.039.117-.039.078-.039.078-.078.117h-.039-.039-.039c-.039 0-.039 0 0 0h-.078c.039.039-.039 0 0 0h-.039c-.039 0-.039-.039-.078-.039.039.039 0 0-.039-.039l-.039-.039c.039.039-.039-.039 0 0v-.039c0-.039-.039-.039-.039-.078 0 .039 0-.039 0-.039v-.078c0 .039 0-.039 0 0v-.039-.117-.078c.078-.313.273-.548.43-.822 0-.078-.195-.235-.352-.117zm1.563 14.171c-.352.235-.391.744-.391 1.096 0 .196.039.391.078.587s.117.352.234.47c.351.313.859.039 1.093-.274a1.26 1.26 0 0 0 .235-.9c0-.196-.078-.391-.156-.548-.079-.196-.274-.391-.508-.352h.117-.078c-.117 0-.195.117-.156.235v.078c0 .039.039.078.078.117l.039.039c0 .039.039.039.039.078s.039.039.039.078c0 0 .039.078.039.039s0 0 0 .039v.039c0 .039.039.078.039.117v.078c0-.039 0 .039 0 .039v.196.039c0 .039 0 .078-.039.078 0 .039 0 .039-.039.078v.039c0-.039 0 .039 0 .039-.078.117-.078.156-.195.235-.039 0-.078.078-.117.078h-.078c-.039 0-.039 0 0 0l-.039-.039c.039.039 0-.039-.039-.039 0-.039-.039-.078-.039-.157-.039-.117-.039-.274-.039-.391 0-.196-.039-.352 0-.548 0-.157.078-.313.078-.509.039-.117-.078-.235-.195-.157zm2.812 11.94c-.039-.196-.234-.235-.39-.157-.196.078-.313.235-.391.431-.156.43-.195.939.117 1.331.274.352.742.548 1.172.274.391-.235.547-.705.547-1.136 0-.117 0-.235-.039-.391.003-.14-.038-.277-.117-.392-.117-.117-.313-.156-.43-.078s-.195.313-.078.431l-.039-.079c0 .04.039.079.078.118.117.078.273.039.273-.118v.04l-.156.078c.039 0-.039 0-.039 0-.039 0-.117-.039.039 0 .078.039.078.039.039 0-.039 0-.039-.039-.039-.039 0-.039-.039-.039 0 0v.039c0 .156.039.313.039.47v.117c0 .039 0 .039 0 0v.078c0 .04 0 .079-.039.118v.039c0-.039-.039.078 0 0-.039.039-.039.117-.078.157.039-.04 0 0-.039.039l-.039.039c-.039 0-.039.039-.078.039h-.039-.039-.078c.039 0 0 0-.04 0h-.039c-.039 0-.039-.039-.078-.039l-.039-.039-.078-.079c.039.04 0-.039-.039-.039 0-.039-.039-.039-.039-.078s0-.039-.039-.078c-.039-.079-.039-.118-.039-.157V110c0-.078 0-.156.039-.235 0-.078.039-.156.039-.195s.039-.079.078-.118l.039-.039h-.039c0 .078.156 0 .117-.117zm-23.476 17.459c.156-.666.234-1.41.352-2.114l.273-1.997.508-4.071.469-8.22-.039-2.31c0-.744-.039-1.488-.156-2.231 0-.118-.195-.079-.195.039l.078 4.11-.234 4.11-.977 8.104-.312 2.309-.312 2.271c0 .235.469.274.547 0zm8.203-37.032l-.039 4.541-.781 4.463c-.703 2.936-1.875 5.715-3.516 8.26l-1.328 1.879c-.469.587-.82 1.292-.547 2.036s.898 1.213 1.602 1.487c.742.313 1.602.47 2.383.587.859.118 1.719.196 2.578.196l1.328-.039 1.211-.078c.664.039 1.172.352 1.367.978.195.587.117 1.253-.156 1.801-.352.665-.859 1.213-1.367 1.722l-1.914 1.879-3.867 3.719-.977.979c-.156.156.078.352.234.235l3.984-3.719 1.992-1.879c.586-.548 1.211-1.057 1.719-1.683.859-.979 1.406-2.388.703-3.641-.351-.587-.898-.939-1.601-1.018-.391-.039-.82 0-1.211.039-.43.04-.859.04-1.328.04-.859 0-1.758-.079-2.617-.196-.781-.118-1.68-.274-2.422-.627-.625-.274-1.25-.9-1.055-1.644.117-.352.352-.665.586-.978l.664-.94c1.719-2.505 3.047-5.324 3.867-8.299.82-2.936 1.016-6.028.781-9.043l-.156-1.096c.039-.117-.156-.078-.117.039zm-3.125-11.979l-.43 3.014-.625 2.975-1.68 5.833c-1.328 3.876-2.969 7.633-4.727 11.313l-3.008 6.264c-.117.234.195.43.352.195 1.016-1.8 1.914-3.679 2.813-5.519s1.758-3.719 2.578-5.637c1.602-3.758 3.008-7.634 3.906-11.626.234-1.135.469-2.271.625-3.406s.352-2.27.352-3.367c-.039-.078-.156-.117-.156-.039zm2.188-15.972a12.55 12.55 0 0 1 3.281-1.527c.586-.157 1.172-.274 1.758-.313.313-.039.625-.078.938.039.313.078.547.352.742.587.391.47.664.979.938 1.488l.859 1.722 1.602 3.523c.469 1.174.898 2.388 1.211 3.641l.195.94c.039.157.078.274.078.431s0 .196-.156.235l-1.953.391-4.141.783c-.117 0-.352.118-.43.039-.078-.039-.156-.196-.195-.274l-.391-.822c-.234-.548-.43-1.135-.625-1.722-.43-1.253-.781-2.544-1.211-3.797s-.937-2.544-1.719-3.641c-.156-.235-.508-.039-.352.196.625 1.135 1.172 2.31 1.602 3.562s.781 2.505 1.172 3.758c.195.626.391 1.213.625 1.801.117.313.234.626.391.9.117.274.273.548.586.626s.664-.039.977-.078c.391-.078.742-.118 1.133-.196l2.266-.392 2.148-.431c.273-.039.586-.078.781-.313.234-.235.195-.587.156-.9-.234-1.37-.625-2.74-1.094-4.032-.469-1.331-1.055-2.584-1.68-3.836l-.937-1.84c-.312-.587-.586-1.214-1.016-1.762-.43-.587-.898-1.135-1.641-1.174-.703-.039-1.445.078-2.148.235-1.406.313-2.695.979-3.789 1.918-.195.157-.078.313.039.235z"/><path d="M93.67 62.595c-.234.039-.469.157-.703.235l-.742.235-1.602.47-1.602.47-.82.235c-.078 0-.195.078-.234.039-.078-.039-.117-.157-.156-.196-.078-.078-.195-.078-.273-.039-.234.117-.234.47-.078.626.195.235.469.274.742.235.313-.039.625-.157.938-.274l1.016-.313 1.992-.587c.547-.156 1.289-.352 1.719-.744.195-.196.039-.431-.195-.392zm-2.461-3.288c-.273-1.057-.977-1.879-1.719-2.623l-2.383-2.153c-.391-.392-.742-.822-1.016-1.292-.352-.587-.547-1.253-.742-1.918l-.586-1.996c-.234-.665-.508-1.292-.859-1.879a13.16 13.16 0 0 0-1.25-1.996c-.469-.666-.977-1.253-1.523-1.879-.117-.157-.391.039-.273.235l1.133 1.801 1.094 1.762c.352.626.664 1.253.938 1.918.234.626.43 1.331.625 1.996l.664 1.957c.234.509.586.979.938 1.409.703.822 1.563 1.487 2.344 2.192.898.783 1.641 1.605 2.109 2.74.156.196.586 0 .508-.274zM60.818 46.31c.078-.822 0-1.683-.039-2.505 0-.352-.078-.783-.039-1.174.039-.313.469-.431.703-.548 1.328-.626 2.773-.94 4.219-1.096 2.93-.313 5.938.078 8.828.626.859.157 1.68.352 2.5.587s1.641.587 2.461.861c.234.078.352-.274.156-.392-.664-.47-1.445-.744-2.187-.979-.781-.274-1.562-.47-2.344-.626l-4.687-.744c-3.086-.313-6.25-.157-9.101 1.135-.352.157-.781.313-.977.665-.234.352-.156.861-.117 1.253l.156 2.936c0 .392.469.274.469 0zm19.141-2.466c-.156.117-.117.274-.156.431 0 .274-.039.509-.039.783l-.039 1.527v1.527c0 .47 0 1.018.117 1.488.039.078.195.117.195 0 .117-.47.039-1.018.039-1.488v-1.448-1.448-.783c0-.196.039-.392-.117-.509.039-.078 0-.117 0-.078z"/><path d="M79.961 50.577c-1.367-1.448-3.086-2.623-4.844-3.523s-3.672-1.566-5.625-1.879c-3.633-.587-7.422.157-10.469 2.231a13.02 13.02 0 0 0-3.633 3.68c-.469.744-.859 1.527-1.133 2.349-.352 1.057-.547 2.153-.781 3.249-.469 2.27-1.289 4.423-2.148 6.537-.391.94-.742 1.957-1.445 2.74-.547.665-1.328 1.174-1.68 1.996-.156.391-.195.822-.078 1.213.117.431.469.783.547 1.253.039.391-.273.626-.547.822-.351.235-.742.47-1.016.822-.586.705-.781 1.605-.781 2.505-.039 1.018.195 1.996.195 3.014 0 .509-.078 1.018-.274 1.488-.078.196.274.352.352.157.469-.94.469-1.957.43-2.975-.039-.9-.117-1.84.117-2.74.117-.392.273-.744.547-1.057s.625-.47.938-.705.625-.509.703-.94c.117-.47-.078-.9-.312-1.292-.195-.352-.352-.705-.234-1.096s.391-.705.664-.979c.313-.313.625-.587.898-.9.313-.391.625-.783.82-1.253.508-.939.859-1.957 1.25-2.936.43-1.057.82-2.114 1.133-3.21s.547-2.192.781-3.288c.195-.979.43-1.957.82-2.858.664-1.566 1.719-2.936 3.008-4.032 2.656-2.31 6.172-3.445 9.648-3.249 1.953.117 3.828.587 5.625 1.331 1.836.744 3.438 1.84 5.039 3.014.391.313.781.626 1.133.94.234.157.586-.196.352-.431zM55.468 53.63c.586-.548 1.172-1.135 1.875-1.605l2.031-1.292a14.03 14.03 0 0 1 4.531-1.488c2.852-.391 5.859.313 8.086 2.153 1.211.979 2.07 2.231 2.656 3.68.156.352.664.235.547-.157-.391-1.409-1.328-2.662-2.383-3.641-1.092-.973-2.367-1.718-3.75-2.192-3.125-1.057-6.484-.431-9.336 1.018-.859.431-1.641.939-2.422 1.488-.352.274-.703.587-1.055.861-.351.313-.664.626-.82 1.096-.039.078 0 .117.039.078zm8.516 30.182c.195-.548.391-1.057.664-1.566l.82-1.448c.469-.939.898-1.957.781-3.053-.117-1.174-.781-2.231-1.484-3.132a9.47 9.47 0 0 0-2.5-2.153c-.508-.313-1.055-.548-1.641-.744s-1.172-.313-1.797-.352c-.195-.039-.273.313-.039.391 1.992.47 3.906 1.488 5.273 3.014.703.783 1.406 1.762 1.641 2.819.234 1.018-.117 2.036-.547 2.975-.469 1.018-1.133 2.075-1.328 3.21-.039.118.117.157.156.039z"/><path d="M66.094 78.84c.43.431 1.055.235 1.484-.117.547-.431.664-1.135.781-1.801.234-1.213.742-2.31 1.406-3.367 1.328-2.075 3.125-3.875 3.945-6.224.273-.744.391-1.527.547-2.31.078-.391.156-.744.313-1.135.117-.392.313-.744.469-1.096.117-.235-.195-.548-.391-.313-.43.509-.664 1.174-.82 1.801l-.43 1.996c-.273 1.174-.82 2.27-1.484 3.249-1.289 1.957-3.008 3.719-3.789 5.989-.234.666-.312 1.37-.469 2.036-.156.626-.664 1.213-1.367 1.018-.195 0-.312.196-.195.274z"/><path d="M71.758 70.189c.43-.235.664-.744.859-1.174.195-.47.313-.979.352-1.488.078-1.135-.195-2.231-.703-3.249-.469-1.018-1.133-1.918-1.875-2.779-.703-.783-1.445-1.527-2.344-2.114-.469-.313-1.016-.587-1.523-.822-.273-.117-.547-.196-.859-.274a2.32 2.32 0 0 0-.898-.039c-.195 0-.195.235-.039.313.234.078.43.196.664.274l.664.235c.469.196.898.392 1.289.666.82.509 1.563 1.174 2.227 1.879 1.367 1.448 2.656 3.366 2.773 5.402a5.47 5.47 0 0 1-.117 1.605c-.078.274-.156.548-.273.783s-.273.431-.352.705c.039.039.078.117.156.078zm2.422-3.915c.43.352 1.172.157 1.641 0 .273-.078.547-.235.82-.352.234-.117.547-.313.703-.509.078-.078-.039-.196-.117-.156-.234.039-.508.196-.703.313l-.742.352c-.234.078-.508.157-.742.196-.273.039-.508 0-.781.039-.117-.039-.117.078-.078.117zm-.156 1.487c0 .078 0 .157.039.235 0 .078.039.157.078.235.078.156.117.313.234.431.195.274.43.548.664.744l.82.705.469.352c.117.078.313.235.469.196.039 0 .078-.039.078-.078 0-.157-.117-.274-.234-.391s-.234-.274-.391-.391l-.82-.705c-.234-.196-.508-.431-.703-.665-.078-.118-.195-.235-.273-.392-.039-.078-.078-.157-.117-.196-.039-.078-.117-.117-.117-.196-.039-.039-.195.039-.195.117zm-30.625 15.15c-.039.078-.078.117-.117.196 0 .078 0 .196-.039.274-.039.235-.039.47-.039.665v1.253 2.623 2.623 1.213c0 .196 0 .391.039.587 0 .078.039.157.078.235s.117.117.156.196c.078.196.391.039.352-.156 0-.078.039-.157.039-.235s-.039-.196-.039-.274c0-.157 0-.352-.039-.509v-1.253-2.584l-.039-2.544-.039-1.253c0-.196-.039-.431-.039-.626 0-.078 0-.196-.039-.274s-.078-.117-.117-.196c0-.039-.117-.039-.117.039zm.859 10.491l1.25-.979c.43-.274.898-.548 1.367-.744 1.016-.431 2.148-.587 3.242-.587 2.305.039 4.648.9 6.563 2.153.977.626 1.875 1.448 2.5 2.466.234.352.82.039.586-.352-1.25-1.957-3.281-3.21-5.43-4.032-2.305-.861-4.961-1.174-7.305-.274-.586.235-1.133.509-1.602.861-.508.352-1.016.783-1.25 1.331-.078.117 0 .196.078.157z"/><path d="M59.569 95.673c.078-.039.156-.039.195 0 .041-.043.068-.098.078-.157.039-.078.078-.196.156-.313.078-.196.195-.392.273-.587l.586-1.253 1.133-2.388 2.461-4.776c.156-.274-.234-.626-.43-.352-.469.587-.977 1.135-1.523 1.644s-1.133.979-1.602 1.566c-.117.117.039.313.156.235.625-.352 1.211-.9 1.758-1.37.586-.509 1.094-1.057 1.602-1.644l-.43-.352-2.617 5.089-1.211 2.544-.547 1.292c-.117.313-.43.744-.195 1.057.028.033.067.055.11.063s.087-.001.124-.024h.039c.039-.039.078-.078.078-.156s-.039-.118-.078-.157h-.078c-.039 0-.039 0-.039.039zM44.295 82.95c.664-.157 1.289-.392 1.953-.587.664-.157 1.328-.274 1.992-.352 1.367-.157 2.734-.157 4.102-.039s2.695.313 4.023.587c.625.118 1.25.274 1.875.509.586.235 1.25.509 1.719.939.273.235.352.548.352.9l.039 1.213c0 .861 0 1.722.195 2.584.039.196.352.196.391 0 .156-.783.117-1.566.117-2.388v-1.214c0-.352 0-.705-.156-1.018-.273-.587-.937-.979-1.484-1.253-.625-.313-1.289-.548-1.992-.705-1.406-.352-2.852-.548-4.297-.665s-2.891-.157-4.336.039c-.781.078-1.562.235-2.344.431-.742.196-1.562.47-2.227.9-.117-.039-.039.157.078.117zm1.602-2.936c-.078.117-.117.235-.156.352s-.117.196-.156.313-.078.235-.156.313c-.039.117-.117.235-.078.392 0 .039.078.078.117.039.117-.078.156-.196.195-.313s.078-.235.156-.352.078-.235.117-.352.117-.235.117-.352c0-.039-.117-.117-.156-.039zm-.977 13.427c-.312 1.096-.898 2.075-1.523 3.014l-1.758 2.936c-1.094 2.074-1.953 4.227-2.734 6.459l-1.094 3.288-1.133 3.484-2.266 7.164-1.211 4.071-.586 2.035c-.195.666-.391 1.331-.469 2.036 0 .078.117.117.117.039.234-.587.391-1.174.547-1.761l.508-1.84 1.094-3.563 2.383-7.163 2.305-6.812 2.695-6.459 1.914-3.405c.664-1.057 1.328-2.114 1.523-3.367.039-.274-.273-.352-.312-.157zm13.477 2.427c-.508 1.174-1.562 1.957-2.305 2.936-.898 1.174-.937 2.623-1.25 4.032-.586 2.505-1.836 4.736-3.203 6.889l-4.258 6.498c-.663 1.094-1.25 2.232-1.758 3.406-.547 1.253-.898 2.584-1.133 3.915-.547 2.818-.781 5.715-1.953 8.377l-.469.939c-.078.157.117.274.195.118 1.641-2.427 1.875-5.363 2.344-8.182.234-1.37.508-2.779.977-4.11.43-1.213 1.016-2.388 1.641-3.484 1.328-2.27 2.93-4.306 4.414-6.459 1.445-2.114 2.773-4.345 3.516-6.811.195-.627.352-1.292.43-1.958.117-.743.234-1.487.547-2.192.547-1.174 1.68-1.918 2.305-3.014a3.72 3.72 0 0 0 .352-.822c.078-.235-.312-.313-.391-.078zm-7.031 1.214c-1.094.078-2.187.666-3.008 1.409-.898.783-1.602 1.84-2.148 2.897-.586 1.175-1.055 2.427-1.484 3.641l-1.172 3.914c-.352 1.488-.664 2.975-.781 4.463 0 .039.078.078.078 0l2.148-7.516 1.406-3.641c.469-1.096 1.016-2.153 1.797-3.053.43-.47.898-.9 1.406-1.253.547-.352 1.133-.548 1.719-.705.156.039.156-.157.039-.157zm-19.805 32.961c-.82-.235-1.758-.313-2.617-.392s-1.758-.117-2.617-.039c-1.758.079-3.437.509-4.961 1.41l-2.266 1.487c-.781.47-1.601.822-2.461 1.096-1.875.587-3.828.509-5.742.548l-6.797.118c-.117 0-.234.078-.273.195-.195.744-.391 1.488-.234 2.232.156.626.508 1.135 1.094 1.37.234.078.43-.313.195-.431-1.133-.587-.82-2.035-.547-3.014l-.273.196 5.977-.079c1.953-.039 3.945.079 5.859-.352.859-.196 1.719-.47 2.5-.861.82-.392 1.563-.9 2.305-1.409s1.523-.979 2.383-1.331a9.29 9.29 0 0 1 2.5-.587c.977-.118 1.953-.118 2.891-.079l1.484.079 1.524.078c.156 0 .195-.196.078-.235z"/><path d="M3.905 135.288c-.234-.078-.508-.078-.781-.078l-.82.039-1.641.078c-.117 0-.234.079-.273.196-.156.9-.312 1.879.195 2.701.078.118.273.039.234-.117-.234-.783-.078-1.644.078-2.466l-.273.195 1.641-.117.82-.078c.273-.04.547-.079.781-.196.117-.039.117-.157.039-.157zm13.438 2.701h-.039-.039v.039h.039l.039-.039c.039.039.039 0 0 0z"/><path d="M17.342 138.107c.039-.078 0-.157 0-.274 0-.157.078-.352.156-.47.156-.274.391-.509.664-.626.664-.353 1.445-.392 2.148-.431l2.422-.078 2.148-.039c.742-.079 1.563-.235 2.148-.705.117-.117 0-.313-.156-.274-.352.118-.664.274-1.016.352s-.742.118-1.133.157h-2.305l-2.578.117c-.703.04-1.484.118-2.109.549-.312.195-.547.508-.703.822-.117.274-.234.665 0 .939.117.078.234.078.313-.039 0 .039 0 .039 0 0zm14.609-3.993c.547.157 1.133.196 1.719.313s1.172.274 1.719.509 1.055.548 1.445.979c.195.235.391.509.391.822 0 .156 0 .274-.039.43-.039.118-.117.196-.117.353 0 .039.039.117.117.117.273-.039.352-.352.391-.587.039-.313-.039-.626-.195-.9-.312-.548-.898-.979-1.445-1.253-.586-.313-1.25-.509-1.875-.626-.664-.157-1.406-.235-2.07-.196-.078-.039-.078.039-.039.039zm9.766-.352a1.21 1.21 0 0 0-.234.509l-.195.548c-.156.391-.273.743-.469 1.096a3.14 3.14 0 0 1-.586.822c-.195.235-.547.47-.664.744-.039.078.039.156.117.156.156 0 .352-.078.469-.156l.43-.353c.234-.274.469-.587.625-.9a5.79 5.79 0 0 0 .469-1.135c.078-.196.117-.392.195-.627.039-.195.117-.391.078-.626 0-.117-.156-.157-.234-.078zm11.211-25.797c-.234.9-.352 1.839-.469 2.779s-.156 1.918-.195 2.858c-.078 1.918-.039 3.797.078 5.715.078.939.156 1.879.078 2.858-.078.9-.234 1.8-.547 2.701-.547 1.683-1.445 3.21-1.797 4.971-.312 1.527-.195 3.406 1.016 4.541.156.157.352-.078.234-.235-.937-1.135-1.094-2.701-.781-4.11.156-.822.508-1.605.859-2.349l1.016-2.427c.625-1.722.742-3.523.625-5.324l-.156-5.637.195-3.092.313-3.171c-.078-.235-.43-.313-.469-.078z"/><path d="M50.391 132.588c.078-.783-.859-1.057-1.445-1.057-.703 0-1.445.078-2.148.235s-1.406.391-2.07.665c-.625.274-1.406.626-1.836 1.214-.078.117.078.313.195.274.586-.157 1.133-.588 1.68-.822.586-.275 1.211-.47 1.836-.627s1.25-.235 1.914-.274c.313 0 .625-.039.898.039.352.079.508.274.742.509.078.039.234-.078.234-.156zm11.016 1.879l-.078.078c-.039.039-.039.078-.078.117a2.73 2.73 0 0 0-.117.314c-.078.234-.117.469-.234.704-.156.392-.391.744-.742.979-.352.274-.781.391-1.094.704-.234.235-.586.94-.078 1.097.078.039.156 0 .234-.04.156-.117.078-.352.156-.509s.234-.274.43-.391c.352-.235.703-.391 1.016-.744a2.81 2.81 0 0 0 .586-1.057c.078-.235.117-.43.156-.665 0-.118.039-.235.039-.313v-.157c0-.039-.039-.039-.039-.078-.039-.079-.117-.118-.156-.039zm-.82-58.798c-.078-.117-.117-.274-.195-.391-.117-.157-.234-.274-.352-.352-.234-.196-.508-.392-.781-.509-.586-.313-1.25-.47-1.914-.509-1.406-.117-2.852.235-4.063.939-.742.431-1.406.9-1.953 1.527-.078.078.039.235.156.157.547-.431 1.094-.822 1.719-1.135.586-.274 1.25-.509 1.914-.665 1.211-.313 2.461-.352 3.672.039.313.117.625.235.898.392.156.078.273.157.391.274.156.117.352.196.469.313.039-.039.078-.039.039-.078zM5.742 138.146c.078.118.156.118.313.118h.664 1.25l2.578-.039 2.578.039 2.617.078c.156 0 .195-.235.039-.274-.859-.117-1.719-.078-2.578-.117l-2.617-.04c-.859 0-1.758-.039-2.617 0l-1.25.04c-.234 0-.469 0-.664.039-.117.039-.234.039-.312.156zm12.539.079l3.398.078 3.398.039 6.758.118 1.914.039 1.953.039c.195 0 .234-.313.039-.353-.547-.078-1.133-.078-1.68-.117l-1.641-.039-3.399-.078c-2.266-.04-4.531-.079-6.797 0l-3.906.195c-.078.039-.078.079-.039.079zm22.344.078c.508.117 1.055.117 1.563.117h1.641 3.32 6.563 1.836c.586 0 1.25.039 1.797-.117a.06.06 0 0 0 0-.118c-.508-.117-1.055-.117-1.562-.156-.547 0-1.094-.039-1.641-.039l-3.32-.039-6.562.039-1.836.039s-1.25 0-1.836.156c0 0 0 .118.039.118zm105.664 69.092c.547.079 1.094.274 1.641.431l1.64.509c1.055.391 2.11.861 3.125 1.37 2.11 1.096 4.063 2.427 6.016 3.758l2.93 1.918a13.6 13.6 0 0 0 3.164 1.449l6.914 1.957c1.289.313 2.617.548 3.906.705 1.328.156 2.734.313 4.102.195.273-.039.273-.391 0-.391l-3.633-.235c-1.172-.157-2.344-.392-3.516-.666l-6.953-1.957c-1.133-.352-2.227-.744-3.242-1.331l-2.93-1.879-5.976-3.758c-1.106-.595-2.255-1.106-3.438-1.527l-1.836-.548a15.34 15.34 0 0 0-1.875-.234c-.117.039-.117.234-.039.234zm23.477-2.779c1.015.196 2.109.118 3.164.118h3.242l6.328-.118c4.023-.313 8.008-1.253 11.758-2.858 1.914-.822 3.789-1.839 5.234-3.366.156-.196-.078-.431-.273-.274-1.407 1.174-3.008 2.114-4.688 2.858-1.797.782-3.672 1.448-5.586 1.918a38.05 38.05 0 0 1-5.898 1.057c-2.07.195-4.141.195-6.172.195l-3.594.039-1.758.04c-.586 0-1.171 0-1.757.117-.079.078-.079.235 0 .274zm-1.133-2.388c2.031.118 4.062-.039 6.055-.078l6.015-.157c1.953-.078 3.867-.156 5.781-.43a25.48 25.48 0 0 0 5.586-1.449c.977-.391 1.953-.783 2.891-1.252a23.83 23.83 0 0 1 1.445-.666c.508-.235 1.016-.43 1.446-.744.117-.078.039-.313-.118-.274-.859.314-1.679.783-2.539 1.175s-1.757.744-2.656 1.096c-1.797.665-3.633 1.135-5.508 1.448-1.914.313-3.828.431-5.781.509l-5.898.196-3.399.156c-1.133.04-2.266.079-3.398.196-.078 0-.117.274.078.274zM52.461 10.531c-.547.235-1.055.744-1.484 1.174l-1.211 1.448c-.742 1.018-1.289 2.153-1.68 3.327-.82 2.466-1.055 5.52.273 7.829.664 1.174 1.758 2.192 3.125 2.388.195.039.234-.196.078-.274-1.055-.431-1.992-1.213-2.578-2.192-.703-1.135-.937-2.466-.937-3.758 0-2.388.742-4.737 2.07-6.733.352-.548.781-1.096 1.211-1.566l.703-.705c.234-.235.508-.431.703-.705.078-.117-.078-.313-.273-.235z"/><path d="M59.959 5.246c-.117-.235-.43-.274-.664-.313-.312-.039-.625-.039-.898 0-.625.078-1.211.274-1.758.548-1.133.548-2.109 1.37-2.891 2.349-.781.94-1.484 2.153-1.367 3.445.117 1.331 1.133 2.192 1.914 3.171.43.509.859 1.214.742 1.957-.117.626-.586 1.096-1.211 1.135-.156 0-.195.196-.039.274.469.157.977-.078 1.289-.47.352-.431.508-.979.43-1.527-.156-1.331-1.25-2.153-1.992-3.171-.391-.509-.625-1.096-.586-1.761.039-.626.273-1.214.547-1.722.625-1.096 1.602-2.075 2.656-2.779.586-.391 1.172-.665 1.836-.822.313-.078.664-.117.977-.157.313 0 .703.078.938-.117.117 0 .117-.039.078-.039zM48.279 23.41c-.273-.039-.469.274-.586.509-.156.313-.234.626-.273.979-.117.744-.078 1.488.078 2.231.313 1.409 1.055 2.701 2.148 3.601.586.47 1.211.9 1.992 1.018.156 0 .156-.157.078-.235-.625-.47-1.328-.861-1.914-1.409s-1.016-1.213-1.367-1.918c-.352-.783-.547-1.644-.547-2.466 0-.392 0-.822.117-1.214.039-.196.117-.391.195-.587.039-.117.156-.274.117-.431 0-.039 0-.078-.039-.078z"/><path d="M50.664 31.474c.234-.157-.078-.391-.312-.196-.117.117-.195.392-.234.548-.078.196-.078.431-.117.626-.039.9.234 1.801.742 2.544.508.783 1.211 1.37 2.148 1.527.859.117 1.992 0 2.461-.822.43-.705.742-2.271-.273-2.623-.195-.078-.312.235-.117.313.703.431.391 1.331.039 1.879-.352.587-1.094.705-1.719.666-.703-.039-1.25-.313-1.719-.861-.43-.509-.742-1.096-.898-1.723-.078-.352-.117-.705-.117-1.018 0-.196.039-.391.078-.548.039-.117.039-.352.117-.47l-.117.078h-.039l-.039-.117v.039c-.039.117.039.196.117.157zm7.109-12.331c.82 1.135 2.07 2.036 3.359 2.623 1.289.548 2.695.783 4.102.47 1.328-.274 2.578-1.057 3.359-2.192.742-1.174.82-2.818-.312-3.758-.547-.47-1.25-.587-1.914-.313-.547.235-1.016.783-1.016 1.37 0 .078.117.117.156.039.117-.548.547-.9 1.055-1.018s1.016.078 1.367.431c.898.9.625 2.27-.078 3.21-1.484 1.918-4.258 2.192-6.406 1.37-1.328-.509-2.422-1.409-3.516-2.31-.078-.078-.234 0-.156.078zm-.898-.94c.195.783.313 1.527.234 2.349-.078.783-.391 1.566-.82 2.231-.234.313-.508.587-.898.626-.352.039-.82.039-1.094-.117-.312-.196-.312-.587-.195-.9.117-.352.43-.587.781-.548.078 0 .195-.117.117-.196-.547-.431-1.328.157-1.484.705-.117.352-.078.783.156 1.096s.586.47.977.509c.43.039.859.039 1.25-.117.352-.157.625-.431.82-.744.469-.665.664-1.488.781-2.27.078-.9 0-1.879-.469-2.701-.078-.039-.195 0-.156.078z"/><path d="M63.399 22.157c-.234.939-.039 1.996.195 2.936a7.5 7.5 0 0 0 1.367 2.662 8.45 8.45 0 0 0 4.766 2.975c1.055.235 2.109.235 3.086-.235.82-.392 1.484-1.057 1.875-1.879.781-1.723.273-4.149-1.562-4.972-.898-.391-2.07-.274-2.695.548-.547.705-.547 1.762.117 2.388.117.117.273-.039.156-.157-.469-.548-.391-1.488.156-1.957.547-.509 1.445-.548 2.07-.196 1.523.783 1.914 2.897 1.094 4.306-.352.666-.977 1.174-1.641 1.488-.859.352-1.797.313-2.695.078-1.602-.391-3.008-1.253-4.102-2.466-.625-.705-1.094-1.566-1.445-2.466-.154-.46-.271-.931-.352-1.409-.078-.47-.078-.979-.117-1.488.039-.274-.234-.352-.273-.157z"/><path d="M74.841 27.52c.039.039.078.078.156.078s.156.039.234.039c.156 0 .313-.039.469-.078.313-.117.586-.274.82-.509a3.72 3.72 0 0 0 .586-.783l.234-.47c.078-.157.156-.352.156-.509-.039-.196-.234-.313-.391-.157-.117.117-.156.274-.195.391a1.83 1.83 0 0 1-.195.391 3.68 3.68 0 0 1-.469.705c-.195.196-.391.352-.664.47l-.352.117c-.117.039-.273.039-.352.157l.078-.039h-.039c-.117.039-.156.157-.078.196zm3.594-11.274c.273.666.508 1.292.547 2.036 0 .705-.156 1.409-.508 2.036-.781 1.331-2.812 1.879-2.93 3.601-.039.352.078.744.273 1.018.195.235.547.587.898.431.078-.039.117-.117.039-.196-.078-.117-.234-.157-.312-.235-.117-.117-.234-.274-.273-.392-.156-.313-.117-.665 0-.979.313-.744 1.055-1.213 1.641-1.683s1.094-.979 1.367-1.683c.273-.626.391-1.331.313-1.996-.078-.744-.274-1.566-.859-2.075-.078-.039-.234 0-.195.117z"/><path d="M79.334 18.281c.273-.039.508-.078.781-.078a1.06 1.06 0 0 1 .664.235c.195.157.313.352.391.587.039.117.078.235.078.352s0 .274.039.392c.039.078.117.078.156.039.234-.196.195-.626.156-.9-.078-.313-.273-.587-.508-.822-.273-.196-.586-.313-.898-.313s-.664.078-.859.391c-.078.039-.039.117 0 .117zm1.406-4.345c.195.196.43.352.664.509a3.63 3.63 0 0 1 .547.548c.351.431.625.979.742 1.527.117.587.078 1.213-.039 1.801-.078.313-.156.587-.312.861-.117.274-.312.548-.469.822-.039.078.078.157.117.117.508-.431.859-1.096 1.055-1.722s.234-1.331.078-1.996c-.117-.626-.43-1.174-.859-1.683-.352-.431-.937-.939-1.524-.939 0 0-.039.078 0 .156zm2.188 1.331c.156-.313.313-.587.586-.783.352-.235.742-.274 1.133-.235.898.078 1.719.548 2.617.626 1.445.157 2.969-.705 3.516-2.075.156-.352.234-.744.273-1.174 0-.352 0-.861-.234-1.135-.078-.078-.195-.039-.195.039-.039.157 0 .313 0 .47v.548c-.039.352-.117.705-.273 1.018-.307.667-.85 1.197-1.523 1.488-.742.313-1.524.274-2.305.039-.82-.235-1.602-.548-2.461-.391-.625.117-1.484.665-1.328 1.409-.039.235.117.274.195.157zm7.109-5.245c-.117.705-.82 1.331-1.562 1.213-.781-.157-1.289-.9-1.68-1.566-.43-.665-.82-1.37-1.523-1.801-.586-.352-1.25-.548-1.914-.509-.742.039-1.641.274-2.031.94-.117.157.117.352.273.274l.938-.431c.313-.117.664-.157 1.016-.157.664 0 1.367.274 1.875.744.625.587.938 1.409 1.484 2.036.508.587 1.211 1.057 1.992.9.781-.117 1.406-.822 1.406-1.605-.078-.117-.273-.157-.273-.039z"/><path d="M83.4 7.36c.117-.509-.156-1.057-.469-1.448a3.06 3.06 0 0 0-1.289-.94c-.586-.235-1.133-.391-1.602-.744-.43-.313-.781-.705-1.172-1.057-.82-.783-1.68-1.448-2.812-1.762a6.67 6.67 0 0 0-3.398-.039c-1.289.313-2.461 1.018-3.359 1.957-.078.078.039.274.156.196 1.758-1.214 3.906-2.075 6.055-1.605 1.055.235 1.914.744 2.695 1.488.742.705 1.406 1.448 2.344 1.84.547.235 1.172.352 1.641.783.195.196.352.391.508.626s.234.509.352.783c.117.078.313.078.352-.078zM60.118 4.58c.156-.039.273-.235.391-.352.156-.157.391-.235.586-.274.547-.117 1.055.039 1.563.196.117.039.234 0 .313-.078.898-.979 2.227-1.527 3.555-1.253.625.117 1.211.391 1.68.822.234.196.469.431.664.705.117.117.195.274.313.391l.273.391c.078.117.234.039.234-.078-.039-.196-.039-.352-.117-.548l-.234-.509c-.195-.313-.43-.548-.703-.783-.547-.47-1.211-.861-1.953-.979-1.484-.313-3.164.235-4.141 1.448l.313-.078c-.625-.117-1.367-.274-1.992-.039-.234.078-.469.235-.664.431-.117.157-.352.391-.234.587h.156zM70.9 3.562c.82-.352 1.758-.665 2.656-.509.352.078.703.196.938.47.313.352.313.861.117 1.292-.391.9-1.367 1.331-1.914 2.075-.469.665-.625 1.644.039 2.231.586.509 1.406.548 2.07.822.742.313 1.289.979 1.523 1.722.234.783.195 1.644-.195 2.388s-1.055 1.331-1.875 1.409-1.719-.274-2.07-1.057c-.195-.392-.117-.822.195-1.135a1.14 1.14 0 0 1 1.094-.274c.117.039.195-.157.078-.235-.703-.431-1.68-.117-2.031.626-.43.9.273 1.918 1.055 2.388.82.431 1.836.431 2.656-.039.82-.509 1.406-1.37 1.602-2.31a3.62 3.62 0 0 0-.43-2.623c-.469-.822-1.172-1.253-2.07-1.488-.43-.117-.859-.196-1.211-.431-.43-.313-.508-.783-.352-1.292.352-1.057 1.602-1.527 2.109-2.544.234-.47.313-1.018.039-1.488-.195-.391-.586-.665-1.016-.783-1.055-.313-2.266.039-3.164.626 0 .039.039.196.156.157zm-9.844 3.053c0 .313.195.705.313.979.156.352.391.626.703.861a5.76 5.76 0 0 0 1.836 1.057c.664.274 1.367.391 2.109.431.664.039 1.484.039 2.07-.313.078-.039.039-.196-.039-.196-.352 0-.664.078-1.016.117-.312.039-.625.039-.937.039-.664-.039-1.328-.157-1.953-.391-.664-.235-1.289-.548-1.836-.979-.273-.235-.508-.47-.703-.783-.156-.274-.234-.665-.43-.9-.039 0-.117.039-.117.078zm-.039 1.448c-.391.313-.625.9-.781 1.37a4.1 4.1 0 0 0-.117 1.683c.156 1.135.664 2.31 1.602 3.014.016.009.035.013.054.011s.036-.011.049-.024.022-.031.024-.049-.001-.038-.01-.054c-.547-.94-1.133-1.801-1.328-2.858-.078-.509-.078-1.018.039-1.527.039-.274.156-.509.273-.783.117-.235.273-.431.352-.665.039-.078-.078-.196-.156-.117zm3.398 23.683c-.156 1.253.469 2.505 1.445 3.21 1.055.783 2.539.9 3.75.391 1.289-.548 2.188-1.879 1.875-3.327-.273-1.292-1.523-2.153-2.812-1.84-.664.157-1.211.666-1.328 1.37-.117.626.078 1.331.586 1.722.117.078.273-.039.156-.157-.664-.744-.273-1.996.625-2.27 1.016-.313 1.953.391 2.188 1.37.234 1.135-.508 2.153-1.523 2.623-.977.431-2.109.431-3.047-.117-.508-.274-.937-.705-1.25-1.214a4.51 4.51 0 0 1-.586-1.722c.039-.078-.078-.117-.078-.039zm-1.25-1.448c-1.055 1.762-3.594 2.114-5.273 1.135-.82-.47-1.406-1.253-1.562-2.192-.156-.9.156-2.036 1.094-2.349 1.094-.352 2.07.548 2.148 1.644 0 .117.156.117.156.039.156-.509.039-1.135-.273-1.566-.312-.47-.898-.744-1.445-.783-1.289-.078-2.148 1.018-2.305 2.231-.117 1.135.391 2.31 1.25 3.014.938.783 2.188 1.018 3.398.861 1.172-.157 2.578-.783 2.891-2.036 0 0-.078-.039-.078 0z"/><path d="M60 32.1c-.43.157-.625.783-.742 1.174-.156.47-.195.979-.195 1.488.034 1.009.437 1.971 1.133 2.701.625.705 1.484 1.174 2.422 1.37 1.094.196 2.226-.039 3.242-.47.547-.235 1.055-.587 1.406-1.057.156-.235.313-.47.391-.744l.117-.392c.039-.157 0-.274-.039-.431 0-.156-.234-.196-.273-.039-.039.196-.156.391-.195.587-.078.196-.234.391-.391.587-.312.352-.664.626-1.055.822-.859.431-1.875.666-2.812.548-1.641-.196-3.008-1.527-3.281-3.132-.078-.47-.039-.979.039-1.448.039-.235.117-.47.195-.705s.234-.431.234-.666c0-.117-.078-.235-.195-.196zm-5.898 4.267c-.43.039-.664.391-.742.822-.078.509.234.979.586 1.331s.898.744.977 1.292c.039.313-.078.626-.156.9s-.312.587-.234.861c.039.157.234.235.352.157.234-.157.273-.431.351-.666.078-.274.195-.509.234-.783a1.67 1.67 0 0 0-.43-1.409c-.312-.392-.781-.666-1.055-1.096-.234-.352-.234-.9.195-1.135.078-.117.039-.313-.078-.274z"/><path d="M54.727 41.534c.117.392.703.313 1.016.235.469-.117.859-.352 1.25-.626.664-.509 1.289-1.214 1.25-2.114 0-.274-.391-.392-.547-.157-.234.352-.156.822.156 1.135.313.352.82.47 1.289.548.508.078.977.039 1.484-.078s1.055-.235 1.445-.587c.117-.117.039-.313-.117-.313-.391.039-.703.157-1.055.274-.391.117-.781.157-1.172.157-.352 0-.742-.039-1.094-.196-.234-.117-.586-.352-.391-.666l-.547-.157c.039.705-.469 1.253-.977 1.644a3.08 3.08 0 0 1-.898.548c-.195.078-.352.117-.547.117-.156 0-.312-.039-.43.039s-.117.157-.117.196zm6.914-.783c-.039 0-.039 0 0 0 0-.039 0-.039 0 .039v.117.117-.078c0 .078-.039.196-.039.274v-.078c0 .078-.039.157-.039.235-.039.078-.039.196-.039.274 0 .117.078.235.195.274h.156c.078 0 .117-.078.156-.117.039-.078.078-.196.078-.274s.039-.196.039-.274v-.235-.117-.117c0-.039 0-.039-.039-.078 0 .039 0 .039 0 0-.039-.078-.117-.196-.234-.196-.117.039-.234.117-.234.235zm80.234 141.943c-.156 1.214.508 2.349 1.133 3.367l.976 1.644c.274.509.586 1.135.586 1.762 0 .313-.195.391-.468.352-.274 0-.547-.078-.821-.039-.625.039-1.054.43-1.172 1.018-.117.704.235 1.252.664 1.761.391.47 1.016 1.018.938 1.723-.078.548-.547 1.017-.859 1.448-.352.431-.743 1.057-.508 1.605.039.117.234.117.273 0l.313-.666c.117-.234.273-.43.429-.626.313-.43.704-.822.86-1.331.234-.626 0-1.292-.352-1.801-.39-.508-1.055-1.017-1.133-1.683-.039-.235 0-.509.196-.665.195-.196.507-.157.742-.157.547.039 1.211.118 1.445-.509.235-.548-.078-1.331-.312-1.84-.235-.587-.586-1.096-.899-1.644l-1.133-1.8c-.312-.588-.585-1.292-.703-1.958-.078-.078-.195-.039-.195.039zm-5-43.334c.312.548.586 1.096.781 1.722s.274 1.253.391 1.879c.195 1.449.234 2.936.195 4.385l-.312 8.651c-.039 5.676.468 11.352 1.445 16.95a99.02 99.02 0 0 0 .938 4.698l.585 2.348.352 1.175c.117.391.273.743.43 1.135.039.157.273.078.234-.078-.078-.353-.117-.666-.195-1.018s-.196-.744-.274-1.096c-.156-.705-.351-1.41-.508-2.075l-.898-4.228a104.29 104.29 0 0 1-1.172-8.534c-.273-2.857-.39-5.715-.39-8.612s.234-5.793.273-8.729c.039-1.605 0-3.249-.234-4.854-.196-1.331-.469-2.897-1.446-3.915-.039-.156-.273 0-.195.196zM85.273 13.232c.195.235.469.431.664.705.195.235.352.509.508.783.273.548.469 1.174.664 1.801l1.055 3.68c.43 1.174 1.055 2.31 2.07 3.053.469.352.977.587 1.484.9.391.235.859.548 1.055 1.018.273.705-.195 1.488-.625 1.997-.234.274-.469.509-.781.705l-.937.587c-.156.117-.039.392.156.392.664 0 1.289-.509 1.758-.939.508-.47.938-1.135 1.094-1.801a1.91 1.91 0 0 0-.469-1.801c-.391-.431-.898-.744-1.406-1.018-.547-.313-1.055-.626-1.484-1.057-.43-.47-.781-1.057-1.016-1.644-.547-1.253-.781-2.584-1.211-3.876-.234-.705-.508-1.409-.937-2.036-.391-.587-.859-1.253-1.484-1.605-.117-.039-.195.078-.156.156z"/><path d="M91.092 28.381c.039.392.234.626.391.979.156.313.312.665.43 1.018.078.313.156.705.078 1.057-.039.196-.117.313-.312.352-.156.039-.352.039-.508.078-.703.196-1.25.666-1.875 1.018-.312.157-.625.313-.937.352-.352.039-.664-.039-1.016-.078-.078 0-.156.117-.117.196.43.665 1.523.391 2.109.117.781-.352 1.406-.979 2.305-1.096.43-.039.742-.235.859-.626s.117-.822 0-1.253c-.078-.431-.273-.822-.508-1.213-.234-.352-.43-.744-.82-.9-.039-.039-.078-.039-.078 0z"/><path d="M91.797 31.982c.039.157.117.313.156.47s.078.274.078.431a1.68 1.68 0 0 1-.234.861c-.195.274-.43.47-.586.744-.156.313-.195.626-.156.979.117.705.586 1.253.82 1.918.117.352.156.744.156 1.135s-.117.783-.117 1.135c0 .157.234.196.273.039.156-.352.195-.783.234-1.174.039-.352 0-.744-.039-1.096-.156-.744-.703-1.37-.781-2.114-.039-.391.117-.665.352-.94s.43-.509.547-.861c.078-.313.078-.626.039-.9s-.195-.665-.43-.822c-.156-.117-.312 0-.312.196zm-.781 8.182l-.625.352c-.234.117-.508.196-.742.235-.486.117-.987.156-1.484.117-1.094-.078-2.227-.157-3.282-.509-1.133-.392-2.227-.47-3.437-.626s-2.344-.391-3.633-.783c-1.133-.157-2.187-.587-2.891-1.487-.156-.196-.391-.039-.312.196.43.94 1.445 1.488 2.422 1.722 1.211.313 2.265.548 3.633.744l3.789.705c1.094.391 2.266.47 3.438.548.586.039 1.172-.039 1.758-.196.508-.157 1.133-.431 1.445-.861.117-.117.039-.235-.078-.157z"/><path d="M87.07 40.947c-.312-.117-.703.313-.937.47l-.82.744c-.508.548-.977 1.135-1.328 1.801-.781 1.448-1.133 3.093-1.172 4.697-.039.979.117 1.996.352 2.936.039.078.156.078.156-.039-.273-3.093.078-6.42 2.227-8.847l.859-.822.469-.352c.156-.117.313-.196.352-.431 0-.078-.078-.117-.156-.157zm-1.094-22.117c-.117.274-.195.509-.43.744-.195.196-.43.313-.664.47l-1.445.9c-.391.313-.742.665-1.016 1.096-.156.235-.273.47-.391.705s-.195.47-.195.705c0 .117.156.196.234.078.195-.196.273-.431.391-.626a3.88 3.88 0 0 1 .43-.666c.352-.431.703-.783 1.172-1.096s1.016-.587 1.406-1.018c.313-.313.625-.822.508-1.253.078-.078 0-.078 0-.039z"/><path d="M82.187 23.37c.078.157.156.274.313.391s.352.196.547.274c.391.157.781.196 1.172.235.391 0 .82-.039 1.211-.157.352-.117.859-.274 1.016-.626.078-.117 0-.313-.156-.274-.352.039-.664.274-.977.352-.352.117-.703.157-1.055.157s-.703-.039-1.016-.157c-.195-.039-.352-.117-.508-.157s-.312-.078-.469-.078c-.078-.039-.117 0-.078.039z"/><path d="M84.336 20.748c.156.391.43.744.547 1.174.117.392.156.822.117 1.214-.039.157-.078.313-.234.391s-.234-.039-.273-.157c-.117-.196-.156-.431-.234-.665l-.117-.744c-.039-.196-.391-.235-.43 0-.078.47.078 1.018.234 1.487.156.431.469.822.977.666.938-.274.781-1.644.547-2.349-.156-.47-.391-.979-.82-1.253-.234-.078-.391.078-.312.235zm.43-3.367c-.039-.078-.117-.117-.156-.117-.937.078-1.836.666-2.539 1.253-.352.313-.703.665-.977 1.057l-.352.626c-.078.196-.195.431-.195.626 0 .078.117.117.156.078.156-.157.234-.352.391-.509.117-.196.273-.352.43-.509l.898-.979c.333-.292.7-.542 1.094-.744.391-.235.781-.391 1.172-.587.039-.039.078-.078.078-.156 0 .039 0 0 0-.039zm6.563 9.356c.117-.274-.117-.548-.391-.548-.273-.039-.586.117-.859.235s-.508.313-.664.548-.312.626-.078.822l-.078-.078c.031.07.087.126.156.157.039 0 .078 0 .078-.039.039-.039.039-.039.039-.078 0 0 .039-.078 0-.039 0-.039.039-.039.039-.078.039-.039.039-.078.039-.117 0-.078.039-.157.078-.235.078-.157.234-.313.391-.431.195-.117.391-.235.586-.274.078-.039.195-.078.273-.039s.156.039.195.157c.039.078.156.117.195.039z"/></g><defs><radialGradient id="A" cx="0" cy="0" r="1" gradientUnits="userSpaceOnUse" gradientTransform="translate(84.9612 25.9864) rotate(-14.7329) scale(9.2838 4.05763)"><stop stop-color="#f6c7c0"/><stop offset=".123" stop-color="#f6c7c1" stop-opacity=".983"/><stop offset=".25" stop-color="#f6cac4" stop-opacity=".932"/><stop offset=".379" stop-color="#f7cfc9" stop-opacity=".848"/><stop offset=".51" stop-color="#f8d6d1" stop-opacity=".73"/><stop offset=".642" stop-color="#f9deda" stop-opacity=".577"/><stop offset=".775" stop-color="#fbe9e6" stop-opacity=".39"/><stop offset=".906" stop-color="#fdf5f4" stop-opacity=".174"/><stop offset="1" stop-color="#fff" stop-opacity="0"/></radialGradient><radialGradient id="B" cx="0" cy="0" r="1" gradientUnits="userSpaceOnUse" gradientTransform="translate(28.3406 135.839) rotate(-87.8635) scale(4.15919 12.4928)"><stop stop-color="#f6c7c0"/><stop offset=".123" stop-color="#f6c7c1" stop-opacity=".983"/><stop offset=".25" stop-color="#f6cac4" stop-opacity=".932"/><stop offset=".379" stop-color="#f7cfc9" stop-opacity=".848"/><stop offset=".51" stop-color="#f8d6d1" stop-opacity=".73"/><stop offset=".642" stop-color="#f9deda" stop-opacity=".577"/><stop offset=".775" stop-color="#fbe9e6" stop-opacity=".39"/><stop offset=".906" stop-color="#fdf5f4" stop-opacity=".174"/><stop offset="1" stop-color="#fff" stop-opacity="0"/></radialGradient><radialGradient id="C" cx="0" cy="0" r="1" gradientUnits="userSpaceOnUse" gradientTransform="translate(50.5466 136.681) rotate(-87.8634) scale(3.1685 10.403)"><stop stop-color="#f6c7c0"/><stop offset=".123" stop-color="#f6c7c1" stop-opacity=".983"/><stop offset=".25" stop-color="#f6cac4" stop-opacity=".932"/><stop offset=".379" stop-color="#f7cfc9" stop-opacity=".848"/><stop offset=".51" stop-color="#f8d6d1" stop-opacity=".73"/><stop offset=".642" stop-color="#f9deda" stop-opacity=".577"/><stop offset=".775" stop-color="#fbe9e6" stop-opacity=".39"/><stop offset=".906" stop-color="#fdf5f4" stop-opacity=".174"/><stop offset="1" stop-color="#fff" stop-opacity="0"/></radialGradient></defs></svg>