<?xml version="1.0" encoding="UTF-8"?>
<svg id="Ebene_1" data-name="Ebene 1" xmlns="http://www.w3.org/2000/svg" xmlns:xlink="http://www.w3.org/1999/xlink" viewBox="0 0 247.19 712.84">
  <defs>
    <style>
      .cls-1 {
        fill: #f4efea;
      }

      .cls-2 {
        fill: #e9c3bb;
      }

      .cls-3 {
        fill: #fff;
      }

      .cls-4 {
        fill: #fae6e1;
      }

      .cls-5 {
        fill: #334f2b;
      }

      .cls-6 {
        fill: #b26a15;
      }

      .cls-7 {
        fill: #e09531;
      }

      .cls-8 {
        fill: #1d1d1b;
      }

      .cls-9 {
        fill: #443e3d;
      }

      .cls-10 {
        fill: #6d5333;
      }

      .cls-11 {
        fill: #557689;
      }

      .cls-12 {
        fill: #111119;
        opacity: .25;
      }

      .cls-12, .cls-13, .cls-14 {
        isolation: isolate;
      }

      .cls-15 {
        fill: url(#Unbenannter_Verlauf_3);
      }

      .cls-13 {
        fill: url(#Unbenannter_Verlauf_2);
      }

      .cls-13, .cls-14 {
        opacity: .5;
      }

      .cls-14 {
        fill: url(#Unbenannter_Verlauf);
      }
    </style>
    <radialGradient id="Unbenannter_Verlauf" data-name="Unbenannter Verlauf" cx="-165.35" cy="770.36" fx="-165.35" fy="770.36" r=".99" gradientTransform="translate(5556.43 8832.6) rotate(-13.34) scale(19.92 -12.68)" gradientUnits="userSpaceOnUse">
      <stop offset="0" stop-color="#f6c7c0"/>
      <stop offset=".12" stop-color="#f6c7c1" stop-opacity=".98"/>
      <stop offset=".25" stop-color="#f6cac4" stop-opacity=".93"/>
      <stop offset=".38" stop-color="#f7cfc9" stop-opacity=".85"/>
      <stop offset=".51" stop-color="#f8d6d1" stop-opacity=".73"/>
      <stop offset=".64" stop-color="#f9deda" stop-opacity=".58"/>
      <stop offset=".78" stop-color="#fbe9e6" stop-opacity=".39"/>
      <stop offset=".91" stop-color="#fdf5f4" stop-opacity=".17"/>
      <stop offset="1" stop-color="#fff" stop-opacity="0"/>
    </radialGradient>
    <radialGradient id="Unbenannter_Verlauf_2" data-name="Unbenannter Verlauf 2" cx="-159.57" cy="768.02" fx="-159.57" fy="768.02" r=".99" gradientTransform="translate(3999.89 7362.12) rotate(-16.11) scale(11.01 -10.51)" gradientUnits="userSpaceOnUse">
      <stop offset="0" stop-color="#f6c7c0"/>
      <stop offset=".12" stop-color="#f6c7c1" stop-opacity=".98"/>
      <stop offset=".25" stop-color="#f6cac4" stop-opacity=".93"/>
      <stop offset=".38" stop-color="#f7cfc9" stop-opacity=".85"/>
      <stop offset=".51" stop-color="#f8d6d1" stop-opacity=".73"/>
      <stop offset=".64" stop-color="#f9deda" stop-opacity=".58"/>
      <stop offset=".78" stop-color="#fbe9e6" stop-opacity=".39"/>
      <stop offset=".91" stop-color="#fdf5f4" stop-opacity=".17"/>
      <stop offset="1" stop-color="#fff" stop-opacity="0"/>
    </radialGradient>
    <radialGradient id="Unbenannter_Verlauf_3" data-name="Unbenannter Verlauf 3" cx="-159.96" cy="775.71" fx="-159.96" fy="775.71" r=".99" gradientTransform="translate(6412.64 26379.19) rotate(-9.53) scale(12.21 -34.58)" gradientUnits="userSpaceOnUse">
      <stop offset="0" stop-color="#f6c7c0"/>
      <stop offset=".09" stop-color="#f6c7c1" stop-opacity=".98"/>
      <stop offset=".18" stop-color="#f6cac4" stop-opacity=".93"/>
      <stop offset=".27" stop-color="#f7cfc9" stop-opacity=".85"/>
      <stop offset=".37" stop-color="#f8d6d1" stop-opacity=".73"/>
      <stop offset=".46" stop-color="#f9dfda" stop-opacity=".58"/>
      <stop offset=".56" stop-color="#fbe9e6" stop-opacity=".39"/>
      <stop offset=".65" stop-color="#fdf5f4" stop-opacity=".17"/>
      <stop offset=".68" stop-color="#fefaf9" stop-opacity=".1"/>
      <stop offset="1" stop-color="#fff" stop-opacity="0"/>
    </radialGradient>
  </defs>
  <path class="cls-1" d="m128.82,183.75c.9-9.4-4.4-18.3-3.3-27.6.5-2.2-1.9-4-3.8-2.7-.9-.3-1.9,0-2.7.7-5.11,2.38-12.6,7.08-18.2,3.4-1-2-4.6-1.6-4.7,1.1-9.5-3.8-13,12.8-2.8,13.2-.2,2.1-1.1,4.9,0,6.8.31,10.51.92,20.72,2,31.2-.9,1.1-.3,2.9-.4,4.2-3.1,1.4-1.7,6.2-3.3,9-.6,2.5-1.1.5-.4,3.1.05-.38,4.34-2.23,4.9-1.4,0,.3-.1-.3,0,0,.2-2.5,0-.1,0,0,0-.6,0,0,0,1.7v-1.7c0-.2.1,1,.1.9,1-.3,2-.3,3.1-.2,0-.4.3-.7.3-1.1.4.3,1,.5,1.5.5.9,1.1,2.8,1.5,3.8.4.9,1.2,2.8,1.3,3.8.3.5,2,3.1,2.1,4.3.8.5.4,1.2.5,1.9.4.9,1.5,2.8,1.6,3.9.5.8.6,1.9,1.2,2.9.7.43.22.92.29,1.4.2.4,3.6,5.9,2.8,5-.7,1.4-14.6-1.2-29.3.7-43.7h0Zm-35.5-17c-1.8,0-1.8-3.3-.2-3.7-.3,1.3.2,2.7,1.2,3.5-.3.2-.6.3-1,.2Zm28.7,32.2c-.6.4-1,1.1-1,2-1.6.4-2,2-1.7,3.4-.6-.8-1.9-1.1-2.9-.6-1.3-1.3-3.8-1-4.2,1-.4-.3-1-.4-1.6-.3,2.84-17.75-7.19-25.53-8.1-41,4.7.6,9.7-1,14.3-2.2-.9.94.22,10.9,0,12.3-.9.4-1.4,1.4-1.3,2.5-.4.1-.9.3-1.2.5-4.8-1.4-4.7,10.1-.3,9.8,1.91.86,5.5,2.17,6.5-.6h.3c.9,3.2-1.7,9,2.2,10.5,0,.3,0,.5.1.8-.7.5-1.1,1.1-1.1,1.9Z"/>
  <path class="cls-4" d="m184.22,267.65c-.33-.39-.96-1.01-1.4-1.2-1.14-2.29-3.97-1.49-4.9.5-.1-.1-.2-.2-.4-.3-.1-.4-.3-.7-.5-.9,3.44-.78,3.56-6.15-.5-5.4-.4-.4-1-.7-1.7-.8v-.1c1.3-.3,1.8-1.5,1.7-2.7,3.16.15,3.67-4.68.4-5,.1-1.2-.5-2.4-1.6-2.8-.1-.6-.42-1.13-.9-1.5.3-.86-.07-1.77-.7-2.4v-.2c1.5-.5,2-2.2,1.4-3.5,1.7-.7,1.6-3.2.3-4.3.31-.79.19-1.71-.3-2.4,2.66-.42,4.83-2.9,2.5-4.9,3.15-.76,1.53-5.53-1.4-4.8,0,0-6.3,1.8-6.3,1.8-.1,0-.2,0-.3.1-6.06-1.16-12.52.45-18.7.4-3.03.07-7.92.28-10.9.5-3.8.11-8.24-.37-11.9.6-3.77-.13-10.46-1.07-14.2-1.5-5.74-1.36-11.97-3.35-17.9-2-4.86,1.34-9.34,2.48-14.3,1.2-1.53-4.17-6.6-3.26-10.1-3.6-1.25.09-2.23-.49-3.6-.4-.58,0-2.26.03-2.8-.1-2.2-2.69-6.16,1.05-3.6,3.4-11.28.82-22.67,3.3-32.5,9-4.77,1.2-9.17,5.21-14,6.5-1.93.89-3.93,2.08-6.1,2.1-5.07.52-1.21,7.63,2.5,4.8-.11,2.33,2.57,3.88,4.1,5.3,0,1.16,1.1,2.33,1.9,3.1v.1l-2.6,4.5c-2.57.99-2.36,5.2.7,5.1,2.87.3,6.03-1.17,6.1-4.4l.2-.2c1.13,1.49,1.87,3.57,3.6,4.4-2.73,3.98,1.69,8.62,4.9,4.1.1.1.1.2.2.2,2.63,2.23,6.6,3.57,10.1,3.2.2.3.4.5.7.7.7,5.27,12.57,6.73,9.1-.4,1.25.8,2.8.21,4.1-.3.2,0,.4,0,.5-.1,9.92-1.45,20.14-.47,30.2-.8,4.52-1.17,17.12,1.21,21.9,1.5,2.17.11,4.66.72,6.6,1.6,2.02.4,4.27.57,6.3.9,7.96,2.09,6.41-3.07,19.2,3.4,7.99,5.78,20.03,5.93,29.6,6.3,4.78,2.94,10.09-5.37,11.7-8.8,1.39-2.73,6.68-6.55,3.6-9.5h0Zm-136.4,3.9c-.1,0-.3-.1-.4-.1-.1-.1-.2-.1-.3-.2v-.5c.95.02,1.66.7,2.3,1.3-.6-.2-1.1-.4-1.6-.5h0Zm82.3-181.4c-.6-1.8-2.1-3.6-3.9-4.4.1-.1.2-.1.4-.2.1-1.7,1.4-3.4,1.9-5,1.3-.9.8,1,.4,1.6.3-.5.8-1.3,1.5-1-.2-.4-.6-.7-1.1-.9,2.5-9.7-9.6-8.8-3.8-15,2.4-1.6.9-5.1-1.9-4.6-3.3.1-4.5-3.9-5.3-6.4-.8-2.7-4.8-2.2-4.9.7-1.1,5.9-9.1,6.4-12.7,2.6-.1-.8-.8-1.4-1.5-1.8-.2-2.2-3.6-2.8-4.6-.8-1.6,3.5-5.3,5.9-9.2,5.9-4.7-6.5-13.1,3.5-7.6,8.4-.3.4-.6.9-1,1.3-4.08.23-5.83-5.49-10.1-3.3-3.8-1.2-3.9,2.6-6.7,3.8-1.1-.4-2.1-.8-3.1-1.2-.1.6-1.1-.3-1.3.3-2.7.4-3,5-1.8,6.6,6.2,13.5,23.2,48.2,38.9,50.1,3,6,0,10.8.9,17,1.4,2.4.2,6.4,2.4,8-1.6,4.3,3.1,6.1,6.7,4.1,2.6.1,5.4,0,8-.6,1.1,1.3,3.3.4,4.6,1.3,1.4-.7,3-2.2,4.6-2.2,1.6-1.3,3.5-3.9,1.6-5.7-1-10.1,1.4-20.3,4.7-29.9,2.6-5.7,4-12.4,2.2-18.5.4-1,.4-2.2-.4-3,1.1-2.2,2.9-4.6,2.1-7.2Z"/>
  <path class="cls-1" d="m183.83,650.75c.2,0-.2-.1-.2-.2-1.96-2.56-.36-12.52-5.6-10.2-.13-.02-.25-.13-.4-.1.33-1.77.04-4.13-2.3-3.7-.2-1.2-1.4-1.8-2.5-1.5-3.49-3.6-5.99,2.34-7,5.1-.87,2.61-5.02,11.4.9,9.4.6.7,1.9.9,2.7.4.3.2.6.3,1,.4-.46,1.47.51,3.22,2.1,3,.37,1.45,2.44,1.75,3.5,1,1.32,2.41,4.01.94,4.3-1.4,3.17,4.4,8.41-.62,3.5-2.2Z"/>
  <g>
    <path class="cls-11" d="m191.13,492.15c-4.8-16.7.4-35.1-3.4-51.7-.7-5.5,3.1-21-.3-24,.2-2.2,1.5-4.8.5-6.9.2-1,1.3-2.2.7-3.1.5-5.9,1.7-12.3.8-18.2-.2-4,1.6-8.8-.6-12.3-.2-2.6,2.1-6.6-.3-8.4-.39-4.4-.06-9.35-1.6-13.5.7-4.4-1.7-8.2-3.5-11.9-.71-3.61-4.88-22.92-10.5-15.8-.9,0-1.9.5-2.4,1.3-.3.1-.6.2-.9.4-1-.2-2.2-.4-3,.4-1,0-2,.6-2.4,1.8-.3.2-.6.4-.8.7-.7-.2-1.4-.1-1.9.2-4.31-.18-9.27,8.95-14.6,10.7-.4-.2-1-.2-1.4-.1,1.2-1,1-2.9-.1-3.9.1-1.4-.7-2.9-2.3-2.9,2.1-1.3.8-4.7-1.6-4.5.72-6.82-9.89-3.14-13.6-2.3-3.4.1-6.1-1.2-9.5-.6-1.2-.7-3.5.1-4.9.5-.6-.2-1.1-.2-1.7.1-7.6-1.3-18.8-1.2-25.1-5.2-.5-.1-1.1.1-1.5.3-1.8-.3-3,1.4-2.9,3.1-2.7-.3-4.9,2.7-2.6,4.6-1,.9-1,2.7,0,3.7-.1.4,0,.8.1,1.2-2.1,0-3.5,2.4-2.1,4.1-.4.2-.7.4-1,.8-.1,0-.1-.1-.2-.1-.7-3.4-5.6-2.5-5,1-.6-2.1-3.6-2.3-4.6-.6-.1,0-.2-.1-.3-.1-.2-1.1-1.1-1.8-2.1-1.9-.3-1-1.2-1.6-2.2-1.7-.3-2.6-3.4-2.9-4.6-1-.6-1.2-1.9-1.7-3.1-1.3-.8-2.1-3.9-2.1-4.7-.2h-.1c-.3-.2-.6-.3-.9-.3-.2-1.2,0-2.8-1-3.7-.2-2.5-2.1-6.5-4.9-4.4-.5-.6-1.2-1-2-1,.3-2.3-2.4-3.5-4-2.4-7.5-2.3-4.9,23.5-5.3,28.2-.9,6.5,2.8,14,3.2,20.6,1.1,9.4,1.7,19.3,3.8,28.6,2.86,21.93,9.63,43.55,10.5,65.8.3,5.1.5,9.6-.2,14.6-1.6,3.6-4.5,9,.2,11.5.6,3.5-2.8,7-1.1,10.3-.8,2.8,1.3,5.9,2.7,8.2,1.4,3.1,1.9,6.4,4.2,9,.95,5.7,3.76,10.98,6.2,15.9,4.7,17.67,7.14,36.38,6.2,54.7-2,2.4-.5,6.5-1.3,9.5-.5,4.5-4.4,8.7-3.4,13.3,6.8,11.2,14.8-7.9,32.1-.9,1.6,2.1,4.1,3.5,6.7,3.9,3.27,5.79,17.05-1.23,10-6.4.17-1.43-1.13-3.08-2-4.1.2-1.8,2.5-4,1.7-5.8,1-2.1-.1-4.3-1.9-6.1,0-1.1.1-2.2,0-3.4,3.1-3.8.7-10-1.4-13.7-.1-.4.1-11.5-.2-11.5-.5-6.7,2-14.5-.2-20.7.56-12.27,3.14-24.84,2.5-36.7.2-3,1.8-7-.1-9.7,0-2.4-1.6-4.3-3.3-6-1.08-3.11.87-7.06-.7-10,.1-1.8,1.9-4.6-.3-5.7-.7-5.5,0-11-.6-16.4,1.4-.8,1.4-18.1.2-19.3-.1-1.1.1-2.2.1-3.3.5-.4.6-1.2.7-1.8l1.9-35.5c.2-3.3,1.6-7,.8-10.1-.6-3.1,1.1-6.8-.3-9.5.2-4,.2-8.2.9-12.1.6-.6,1.1-1.2,1.7-1.8.41.24.81.19,1.2.4,0,1.1.2,2.2,1.1,3,.59,8.19-.2,17.25,2.6,24.9.4,3.5-.7,8.2,2.3,10.5-.02.17.02.35.1.5-.8,3.6.1,8.6,1.9,11.8,3.25,15.14,5.58,30.35,9.2,45.3-.1,4.3-.3,8.9.7,13.2.1,3.8-1.3,8.7,1.3,11.9.1,1.5.8,3.1,2.5,3.2.5.6,1.4,1,2.2.9-.5,2.4,1.5,4.4,3.6,3.3,1,1,2.5.9,3.5,0,.9.41,2,.29,2.8-.3,2.1,3,5.4,0,4.9-3.2.4.1.8.1,1.2,0,.3.2.6.3,1,.4-.5,2.5.9,5.4,3.6,4.2,1.1,1.6,3.7,1.4,4.4-.5-.5,3.2,4,4.4,4.9,1.5.6.4,1.3.5,2,.4-.1,2.2,2.1,4.1,4.1,2.6.6,1,2.1,1.5,3.2.8,3.3.5,2.8-3.4,2.6-5.6.4.2.8.3,1.1.3.1.8.5,1.5,1.1,1.8.9,1.5,3.1,1.6,4.1.4.07,5.01,6.9,5.48,5-2.3,2.1.2,3.8-2.2,1.9-3.9h0Z"/>
    <path class="cls-11" d="m204.83,626.55c-.9-2-1.6-4.5-3.7-5.5-.2-.6-.8-1-1.3-1.3.8-1.9-1-3.9-2-5.4-.51-3.77,3.51-16.24.3-18.7,1.18-17,1.48-33.79.5-51-.2-4.9,2.8-12-.1-16,0-1.6.7-3.8-.3-5.2,0-3.3-2-6.4-4-9.1.4-3.6-.7-7.5.9-10.8.7-1.5,1.5-1.9-.1-4.5-.73-3.83-3.68-17.45-7.4-18.1-5,1.2-1.9,8.8-1.3,12.4-.3.5-.5,1.1-.5,1.8h-.1c-.5-.5-1.1-.9-1.9-.9.8-3.2-4.2-4.8-4.9-1.4-.3-.1-.5-.1-.8-.1-.6-2-3.6-2.5-4.5-.8-.7-1.2-2.7-1.5-3.6-.5-.4-.5-1-.7-1.6-.7-.2-1.3-1.6-2.3-2.9-2-2.1-3.2-5.3-.1-4.8,2.9h-.3c-.2-1.7-1.9-2.7-3.5-2,.1-1.8-1.4-3-2.8-2.8-1.5-1.8-4.5-.7-4.5,1.7-1.3-2.6-5.4-4.3-6.1-.5-.5-2.7-3.2-7.3-5.8-3.6-1.7-1.7-6.2-2.2-5.9.7-6.5,6.4,4.3,15.6,5.4,22.5-1.3,1.4,0,3.6-.1,5.4-.5,1.7-2.2,3.5-1.3,5.3-1.4,5.3,3.2,9.3,6.3,13-.2,2.8,2.8,5.2,3.9,7.7,1.2,4.3.7,9.3,2.3,13.4-.5,28,9.66,54.98,9,82.7-2.5,5.9,5.8,11.5,10.5,7.4.43-.39.94-.85,1.6-.7h-.1c2.8.8,6.5,1,7.8-2.1,3.3-3.3,7.1-6.1,11.4-8.2,4.7-.6,9.3-2.5,14.1-1.9,1.4.3,2.8-1.7,2.2-3.1h0Zm-65.8-130.9c-.4-.5-.6-1.2-.9-1.7,0-.1.1-.3.1-.4.2.7.5,1.4.8,2.1h0Z"/>
  </g>
  <path class="cls-1" d="m138.92,323.45c.64-14.76-2.3-29.42-3.6-43.8,0-2.2-2.2-4.7-4.4-2.9-.5,0-1,.2-1.4.5-.8-.8-2.3-1-3.2-.3-.6-.1-1.4.1-1.9.5h-.2c-.9-1-2.7-1.1-3.7-.2h-.1c-1.09-1.27-3.08-.93-4.5-.7-.7-1.5-3-1.7-4.1-.4-.8-.6-1.9-.8-2.8-.4-.3-.4-.8-.6-1.3-.8-.9-1.6-3.4-1.4-4.3.1.17-1.94-2.26-3.22-3.8-2.2-.84-.65-1.86-.54-2.8-.3-5.6-3.9-2.8,6.2-2.6,8.8-.9,5.4-.4,11.2-.8,16.8-1,3.9-1.6,8.5-3.1,12.5-.7,4.69-7.91,14.71,1,13.9,4.8,1.5,51,6.5,47.6-1.1Z"/>
  <g>
    <path class="cls-7" d="m94.42,215.45c.6-14.6-3.4-29.5-1.3-43.8,1.8-7.7,3.5-15.7,1.5-23.5-4.47-9.83,1.13-12.51-1.1-18.9,0-.1.1-.4,0-.6.4-1.2.1-2-1.1-2.7-.7,0-1.4,0-2.1-.2-.3.1-.7-.7-1-.4-.8-.6-1.8-.4-2.6-1-4.33-5.62-11.7-10.19-14.4-17.3-16.6,1.6-27.2,0-39.8,17.7-4.9,6.9-9.3,6.2-12.7,16.4-1.9,5.6-8.6,20.2-7.2,34.6,2,20.6-8.8,23.4-.3,33-1,.5-.7,1.7-.9,2.6-4.98,3.18,2.08,11.52-3.6,14.8-1.4-.3-2.9.6-3.3,2-6.4,1.7.4,7,.9,10.7-1.5,2,1.2,4.8,3.3,3.5,1.1-.8,2.7-.7,3.4-1.9,14.8-3.82,28.5-12.76,43.2-16.1,2.47.66,6.15.34,5.2-3.1,6.8,1.5,14.3.4,20.7,3.7-.4,1.9,1.7,3.5,3.5,2.7,1.2.4,2.4,0,3.4-.7,1.1.2,1.8-.6,2.6-1.2h-.1c6.1,0,3.3-6.2,3.8-10.3h0Z"/>
    <path class="cls-7" d="m90.73,225.45c-.24.04.43-.07.2-.1,0,0-.1,0-.1,0,0,.1-.1.1-.1.1Zm133.5.4c-.24-2.91-1.41-10.95-3.9-12.3,1.1-3.3.1-7.2-3.1-8.8-6.18-4.67,4.7-3.07-5.2-21.7-.5-8.3,1.9-16.9-.9-24.9l-.6-4.2c-1.3-9.2-3.3-18.7-9.2-26.2-4.86-7.06-8.1-17-17.1-19.4-.7-1.2-1.9-2.2-3.3-2.1-10.2-3.63-21.73-4.6-32.4-5.8-1.12-2-9.49-.89-12.5-1.9-.9-.9-.1-1.6.6-1.2,0-1.4-.5-1.7-1.8-2.2,0-.3-.1-.5-.2-.7.1-.5-.3-.8-.3-1.3-.2-.5-1.2-.7-1.1-1.3-.43-1.96-2.46-3.33-3-5.3-1,1-.6,2.4-.3,3.5.4,2.2-.5,4.1-1.1,6.1-1.4.9-1.2,3-.1,4.1,1.65,9.59-2.52,19.2-5.3,28.3-1.6.7-2.9,17.5-1.4,18.3.6,9.4,3.2,18.5,4.3,27.9.8,6.2-.8,13.4,1.8,19,.8,2.9,1.9,6.7-1.5,8.5-1.52,7.29.05,15.86-1.4,22.7.2,0,.4,0,.6.1-.1.9-.3,2,0,2.9,2.65-1.14,5.35-.14,8.1.1,10.38.05,22.16-2.92,31.9-1.4,2.9-.1,4.8-.6,7.7-.2.2-.1.5-.1.6,0,1.6-1,2.7.3.6,1,.4-.1.7-.2,1.1-.2-1.6,2.3-4.7,4.9-4.6,7.9-5.3,5.8-2.1,12.2,1.2,18.1,2.81,4.98-1.16,18.4,7.7,15.1,1,.9,2.5,1,3.6.2,3.51.74,20.08,1.54,17.9-4.9,5.72-2.17,13.82-8.86,16.5-14.4,6.7-6.3,7.2-15.1,6.1-23.4h0Zm-48-4.6l-8,1.5c-1-2.7.3-6.6-2-8.6.14-3.73.22-7.42.1-11.2-.1-1.8,1-4.1-.1-5.6.5-3.9,1.2-7.7,2.4-11.3,2.2,11.8,4.7,23.6,8.7,35.1-.4,0-.7,0-1.1.1h0Zm-83.1,58.6v-.3c1.91-2.98.06-9.94-4.9-7.6-.8-.2-2.3-.6-2.8.1-9.83-.08-19.4.54-29,1.6-.2-.5-.5-.9-1-1.2-1.1.2-2.3.9-3.3.5-.3-.02-.45.51-.8.5-.3.7-.3,1.5,0,2.1-.19.6-.12,1.25.2,1.8-.9.9-2.2,1.5-3.5,1.4.1-.3.1-.7.1-1-.47-.07-1.22.04-1.4-.5-.9.3-2-.5-2.7-1.1-2.2,2.9-4.2,6.8-4,10.5-.4,11.6-2,23.7-7.8,34.1-1.9,1.7,8.5,12.3,10.3,12.4,3,3.7,7.3,6.9,12.3,7.1,1.7,1.9,4.3,1.9,6.7,2.5.3,3,3.9,2,5.9,2.5,2.45,1.33,5.13-.03,7.7,1,1.2.8,2.8,1,4.2.7,6.2,2.2,4.9-4.9,3.8-8.5-.4-5.5,1.6-10.8,3-16-.6-.3-.2-1.1.4-1,4.7-13.32,8.1-27.43,6.6-41.6Zm87.4,41.3c-4-8.4-1.2-18.5-2.9-27.3-.6-3.6,1.5-8.4-.7-11.4-1.44,1.88-3.14,3.75-5.7,3.7-.1.3,0,.6,0,.9-.2-.1-.5-.2-.7-.2l-.3-.6c-4.9-.07-10.35.03-15-1.4-.1.1-.2.1-.3.2-2.2-1-6.1-.1-8.1-2.1-2.37-.13-4.25-1.95-6.3-2.4-.39-.78-1.31.07-1.9-.5-1.38-.05-2.45-2.51-3.6-3.2-.2,6.1,1.4,12.5,3.5,18.2.5,7.6,1,15.2.9,22.8,1.3,5.2-4.2,30.8,5.5,26,5.6-.4,10.5-6.4,15.7-8.9,5.76-2.56,12.12-6.82,17.1-10.4,1.7-.3,3.3-1.5,2.8-3.4h0Z"/>
  </g>
  <path class="cls-6" d="m81.22,167.45c-1.1,0-2.3,0-3.4.5-1.69.11-3.78-.54-5.3.2l-11.4.4c-4.03-1.78-4.5,8.58-1.5,8.7.1.2.3.2.5.2-.2.8-.6,1.5-.8,2.2-.96,1.83-.32,4.93-.9,7-.4,2-.5,4.3-.4,6.3.1.5-.9,1.7-.3,2,0,.3-.3,1.1,0,1.2.2,1.2-.9,4.3.9,4.4.1.6,1,1.4,1.6.4.2,0,.3-.1.4-.3.1.2.3.4.5.4.2.9,1,1.2,1.5.3.1,0,.2-.2.3-.3.29.56.7.75,1.3.6.2.1.5.1.6-.1.14.2.46.2.6,0,.3.2.7,0,.8-.3.2.4.7.3.9,0,.1.2.5.1.6,0,.1.1.2.1.3.1.4.6,1.4.2,1.7-.3,0,.6.8.7,1,.2.2.5.9.5,1.2.2.4.4.9,0,1.4,0,.2.4,1,.3.9-.2.7-.3,1.9-.2,2.3-1h.6c.4.3.9-.2.8-.6-.3-8.13.42-17.08,1.7-24.6.7.1,0-.1,0-.1.2-.1.5-.5.3-.8.5-1.6.3-3.2.9-4.7.3-.1.7-.4.7-.6.6-.3.9-1.1-.3-1.4h0Zm84,5.5c-.5-1.3.7-4.5-1.1-4.7-2.5-.2-4.4-.8-6.9-.6.6-1.3-4.8-.3-5.4.1-3.35.31-6.93-1.2-10.1-.9-.2,0-.4-.1-.6-.1-.1-.8-.9-1.2-1.6-.9-4.86-1.04-3.83,9.3.1,9.6.1,1-.6,2.4,0,3.3v.4c-1.01,4.23-1.03,9.92,0,14.2.5,1.6.1,6.6,2.8,5.4,4.72.66,9.47.45,14.2.8.4.4,1.2.4,1.6-.1,5.7,0,2.5-7.1,3.2-10.6-.1-4.1,1.4-8.3,1.5-12.2,2.3.6,2.7-1.9,2.3-3.7h0Zm36.6,91.6c-.19-.77-.66-1.51-1.2-2.1.04-3.37-.5-6.98-2.8-9.5-1.32-3.41-2.38-7.38-4.9-10-.61-.86-2.5-5.81-3.6-6.1-.78-.9-4.85-9.19-6.2-9.2-1.16-2.54-2.59-8.12-6.3-6.9-2.24-.25-4.85-.02-6.8,1.2-2.25-.32-4.37,1.13-6.6,1.4-1.83.14-5.71.49-4.2,3.3,2.44-.46,5.06-.53,7.5.1l1.8-.6c.83.37,1.75-.19,2.5,0,1.98.54,3.65-.93,5.6-.4-.72,2.37-3.38,3.78-3.6,6.3-2.08,2.69-3.47,5.33-5,8.1-.03,1.91.18,4.59,1.6,6,1.3,6.5,4.1,12.8,4.7,19.5.2,2,2,3,3.8,2.2,6.82,1.88,14.06,1.87,20.7-.8,1.38.28,3.53-.99,3-2.5h0Zm-184-29.3c-3.22-1.07-6.46-3.51-8.7-6.2-.6-.81-1.32-1.84-2.3-2.1-2.24-.34-5.75,2.19-5.3,4.7.37,1.01,1.24,2.34,1.8,3.3,0,0,4,6.8,4,6.8,1,1.8,3.7.9,3.7-1,1.62.13,5.16-1.22,6.8-1.6,1.98-.45,1.88-3.41,0-3.9Zm15.3-2.8q.1-.1.1-.2c.1-.1.1-.2.2-.2.1.1.2.1.2.2l3.3-1.1c.1-.3.2-.7.2-1,1.72.41,3.5-1.11,5-1.8.71.23,1.84.06,2.4-.4l.2.2c2.33-.7,5.68-2.17,8.1-2.3-.17-1.92,1.31-6.92-2.2-6.3-.69.03-1.34-.23-2,.2-.1,0-.1.1-.2.1-1.44-1.17-3.6-.04-5.3.1-3.5-.02-7.33.22-10.7.7-1.32.47-1.52,5.66-1.9,6.7-.22,1.25-.58,2.55-.9,3.8-.67,1.14-1.68,2.46-1.4,3.8,1.5-1,3.2-1.8,4.9-2.5Zm103.7-137.1c-.1,0-.2-.1-.3-.1l-.1-.1c.05-.18-.16-.23-.3-.3-.6-.7-1.2-1.4-1.6-2.2-.2.12-.45.08-.6-.1-.46.3-2.4-4.71-2.5-4.9-.1-.1-.3-.2-.4-.4-.1,0-.1-.1-.1-.1-1.09.66-.29,2.22-.3,3.3.19,2.65-3.58,6.66-.2,8.2.19,1.57,1.03,3.14,1.8,4.5-.06.9.39,1.86,1.2,2.2.5.9,1.3,1.3,2.1,1.1.1-.5.2-.9.4-1.4.49-3.18-.66-6.69.9-9.7Z"/>
  <path class="cls-10" d="m137.62,55.35c-.4-1.6-1.8-2.9-3.4-3.1.15-4.88-1.38-9.61-4.5-13.2-2.2-3.4-.8-7.9-3-11.3,0-5.4-3.7-10.5-8.9-11.8.8-1.8-4.5-2.3-4.9-.7-8.96-12.65-21.74-19.15-35.8-9.8-.2-.1-.4,0-.5.1h-.1c-.1.1-.3.1-.4.2-.2,0-.6.4-.5.4.1-.1-.1,0,.1-.1-.3.1-.7.7-.4.7-10-.7-14.4,2.9-18.2,12.4-12.5,3.1-17.7,20.8-13,31.8-4.6,6,.1,13.3,1.6,19.7-1.1.4-2.3.9-2.9,1.9-1.31.86-1.17,3.15-.6,4.5.1,4.1,5.8,4.6,8.7,3.1-1.6,3.6,2.1,7.3,5.3,7.2.6,0,.5,1.7.5,2.4,0-.1-.1.4,0,.2-.9,2,.4,3.8,2.5,3.9-.2-.1-.1,0,.1.1q-.1-.1,0,0c.3.2.2.5.2,1-2.1,4.3,3.9,9.2,6.2,3.9.3,0-1.1-.5.2-.4-4.95-5.15-4.85-13.7-9.5-19.2-2.97-.68-3.83-11.44-1.2-7.2h.1c-.1-.4-.2-.7-.3-1.1,3.33,2.58,6.89.62,9.6-1.8,2,.2,4-.2,5.2-1.7.8,3.1,4.1,5.7,7.4,4.6,2.9,1.1,7.1-3.2,3.7-5.3-1-.4-2.1-.9-2.8-1.6-.3-2.4,1.8-3.4,3.5-4.6,5,4.4,13.7,1.2,15-5.2-.1,3.4,4.4,4.2,6.8,5.5,8.2,3.6,13.3-5.3,13.3-12.6.2.2.3.4.5.5-1.7,5.3-2.2,13.6,5.8,14.3-3.2-.3-2,6.9,1.6,8.7.1,0,.7,1.2.8,1.2,2.4,2,0,6.7,2.3,7.7.9.4-.7,1.2-.6,2.2-.5,1.1-1.3,2.1-1.5,3.3,1.5-1.2,3.8.4,4.1,2.1.6-.4.6-.8,1.1-1.3,2.6.4,3.1-2.8,4-4.4,2.1-3.7,1.2-6.6-1.2-9.5,2.3-2.6,2.8-7.6.3-10.4,2.7-1.1,5.3-3.6,3.7-7.3h0Zm-87.6,12c-.3-.9-.5-1.8-.8-2.6.1,0,.2-.1.3-.2.22.86.59,1.67,1.1,2.4-.2.1-.4.3-.6.4Z"/>
  <path class="cls-9" d="m126.92,190.75c-3.1-7.5-8.6-5-14.2-8l-.3-2.8c4.6-2,11.2-4.6,9.7-10.8.6-2-.4-5.3-2.1-6.7-1.8-5.7-8.8-8.7-14.2-5.9-7-4.2-6,6.4-3.9,10-.5,3.8,3.8,6.8,4.1,10.8,3.64,8.29,3.14,19.39,4.9,28.8.7,5.6,6.5,1.4,9.3,0,6.2-1.3,10.1-9.7,6.7-15.4h0Z"/>
  <path class="cls-10" d="m104.62,629.95c.3-4,2.9-10.9-3.3-11.4-1.5-1.2-3.1-4.9-5.2-4.5-1.1-.5-2.1-1.6-3.7-1-8.01-4.81-29.14,1.76-23.7,13.4-6.03,2.04-5.77,8.92-4.4,14.1-2.71,13.5-6.34,29.43-1.5,42.8,1.9,6.2,7.5,11.4,14.4,9.5,7.2.3,19-.6,22.1-8.3,4.75-8.05,1.23-19.99,2.8-29.5.07-8.44,3.09-16.68,2.5-25.1h0Zm141.3,61.2c-.1-1.4-.6-2.4-2-2.9,1.73-12.02-12.01-17.55-17.2-26.5-3.88-2.66-3.29-7.81-6.3-10.9-2.9-2.9-4.4-8.9-8.4-9.9-.7-1.3-1.3-3-2.5-3.9-1.6-1.9-2.1-7.8-5.4-6.4-.9-.5-2.1-.6-3.2-.4-.4-.5-1.2-.5-1.8-.3-1.9-.8-4.1,1-6.2.9-.4-.2-1.1-.1-1.6.2-1.7-.2-3.5.9-4.6,2-2.4,1-6.1,2-7.2,4.6-.9.5-1.9,1.1-2.3,2.1-1,.2-1.6,1.6-.2,1.6.1.9.7,1.7,1.2,2.4-1.2,2.8,1.3,5.2,1.8,7.8-.6,0-1.3.1-1.8.4-1.1-.4-2.1-.6-3.2-1-.1-.3-2.7-2.3-3-2.5,0-.6-.7-1.1-1.1-1.5-.1-2.3-1.9-7.1-4.5-3.1-.7,1.1-2.5-.1-3.8,0l-.1-.1c-2.25-1.47-4.7.74-2.8,3-.7,3.9-.9,7.8-.2,11.8-1.3.8-1.1,2.6.1,3.4,2.67,14.89,25.39,6.4,25.9,22.3.1.9.8,1.3,1.5,1.4,3.48,22.79,33.08,31.99,52.5,23.2,8.5-1,6.3-11.4,6.4-17.7h0Z"/>
  <path class="cls-5" d="m70.13,80.55c-.02-1.33-1.07-2.93-2.6-2.4-.23-.03-.36.2-.6.2-1.08.66-1.3,2.3-.6,3.3,0,.1.1.1.1.2.67,2.13,3.79,1.78,3.9-.5,0-.2-.1-.5-.2-.8h0Zm25.7-4.2c.13-.67.05-1.64-.6-2-.62-1.44-2.64-1.38-3.4-.1-.81,1.66-.06,4.56,2,4.8.3,0,.5,0,.8-.2.2,0,.3-.1.4-.3.6-.43.99-1.42.8-2.2h0Z"/>
  <path class="cls-3" d="m73.43,79.85c0-.2-.1-.3-.3-.4-1.13-1.43-3.57-1.98-5.2-1.3,0,0-.1,0-.1.1-1.03.19-1.61.97-2.5,1.5l-.1.1c-1.96.39-1.86,3.41.1,3.8,1.64,1,4.36.4,5.8-.8,1.15-.2,2.37-1.05,2.5-2.3,0-.2-.1-.5-.2-.7Zm24.3-6.7c-.4-.1-.9-.1-1.3.1-1.19-.19-2.27.18-3.3.7-1.1.16-2.69.44-3.5,1.2-1.78.85-1.26,3.93.9,3.8,1.21.43,3.22-.3,4.5-.4,2.93.34,6.25-3.84,2.7-5.4Z"/>
  <path class="cls-5" d="m69.93,80.35c-.31-2.81-4.77-2.12-4,.7.31,2.83,4.78,2.08,4-.7Zm26-4.1c0-.57-.42-.88-.4-1.4-.46-2.21-3.91-1.74-3.9.5.18,1.83.51,3.1,2.6,3.3,1.16-.02,2.54-1.32,1.7-2.4Z"/>
  <path class="cls-2" d="m98.73,109.75c0-1.1-1-2.1-2.1-2l-.3-.3c-1.2,1-4.6.9-4.9,2-.3.5-.7,0-.7.6-.7.4-1.2-.2-1.9-.2-5.6-1.7-3.4,7.1,4.3,3.6,1.5.5,3.4-.1,4.1-1.5.9-.2,1.6-1.2,1.5-2.2Z"/>
  <path class="cls-12" d="m114.23,367.95c-1.7-9.6-10.2-1.8-11.4,3.8-4,16.2-6.8,32.6-9.3,49.1-.6,16.7-15,69.1,12.5,67.8-.1-.1,0-.2,0-.4,1.1-.9.6-2.3.2-3.4.1-.4.3-.9.6-1.2-.1-1.4-.1-2.9-.1-4.3-.2-.1-.5-.2-.8-.2.4-6.3.6-12.6.5-19,.48-29.1,1.72-60.81,4-89.1-.6-3.2,2.5-5,2.1-.8,1.1.1,2.3-.8,1.7-2.3h0Zm90.1,257.6c-.3-.3-.6-.4-1-.5,0-.5-.5-1.7.2-1.3,0-.5-.4-.9-.7-1.3-.9,0-3.4-4.3-2.4-4.9-.11-.11-.18-.25-.2-.4-.6.2-.8-.6-.9-1-1-.4-1.4-10,.2-9.7-.3-3.1-1.7-5.5-.5-8.5-.1-.1,0-1.8,0-1.9,1.99-24.13.81-50.33-.3-75.2-.9-1.6-2.6-2.5-2.8-4.3-.2-.6-1.6-1.8-1.1-2.4-.3-.9-.6-2-.5-2.9-14.47,12.04-2.57,40.18-7.1,57.6-.88,21.61-14.84,41.37-35.3,22.7-.1,0-.2.1-.2.1,1.47,9.07,3.45,18.12,4.2,27.3,2.12,7.49-3.3,17.15,2.8,23,.7-.4,2.2,1.8.8,2.3-.47,5.02-.68,9.81-1.2,14.9.4.5,1.2,2.1.6,2.6.79,4.49,4.79,6.83,7.7,9.9,2.68.84,5.33,1.74,8.2,2.1.2-7,1.5-14,1.9-21,.1,0,.1.1.2.1-.3-1.9,1.2-2,1.2,0,1.6-.5,1.7-2.8.3-3.6-1.22-2.78-.9-6.08-3-8.4,4.2-2.1,6.8-7.5,11.7-8.5,4.8-1.6,10-3.3,15-2.4,2.1.2,3.6-3,2.2-4.4h0Zm20.9-398.8c-.16-4.01-.92-9.27-2.9-12.8-.4,0-.5-.5-.5-.8,0-1.14-.16-2.31,0-3.6.28-2.51-8.04-7.9-5-8.2,0-.4.3-.9.5-1.3-1.1.5-1.7,1.6-1.6,2.8-4.5,2.4-7.6,6.3-11.7,9.2-12,6.3-21.6-7.5-24.5-17.8-2.6-5.8-5.5-17.7-13.7-16.1-2.1.5-4.5,2.9-3.9,5.2-.6,2.7-1.9,6.8-.1,9.2,0,.1,0,.2.1.3-.1.2-.2.5-.2.7,1.4,1.1.3,2.8-.8,3.7-.1.7-.1,1.4-.4,2.1-.4,0-.8,0-1.2.2-.32-.21-.89.12-1.1-.1-.2.2-.4.2-.7.2-.5.3-1.3,0-1.8-.3-2.89,7.99-1.22,18.12-2.2,26.8.2,0,.4-.1.6-.2.1.3-.7.7-.5,1,1.5-.27,3.84-.8,5.1-.3.31-.07.62.24.9,0,.8.7,1.8.1,2.7,0,2.1-.3,4.5-.2,6.4-1.3h.6c.08.19.61-.05.7.3l.3-.3h1.3c-13.6,12.9-3.8,25.5-1.9,40.8-.4.2-.8-.2-.9-.5-.3.2-.7-.1-.8-.4-3.78-1.23-7.84-1.61-11.7-2.7-2.7,7.7-2.9,14.9-.4,22.7h1.2c.5.4,1.2.4,1.8.2,2.3,13.9.1,34.2-17.1,36.2-.8-.5-1.6,0-2.4-.1-1.4-5.5,1.5-11.8-.7-17.5-.2-.4.2-.9.2-1.4-6.8.5-11.4,8.1-18.6,7.2-8.3-1.3-14.2-8.9-15.7-16.9-3.8-13.8,10.8-13.7,20.2-13.6,3.5-.1,6.8-2,9.9-.2.1,0,.2-.1.4-.1,0-.6.8-1.2.3-1.6-.7-2.8-4.3-1.8-6.3-1.2-1.6-1.3-3.8.6-5.7.2-.7-.9-2.1-1.1-2.9-.3-.4-.1-2-.6-1.8-.6-.9-.4-2-.3-2.6.5-2.2-.4-4.4-1.2-6.6-1.2-13.49-4.75-29.66-3.4-43.9-2.7,0,1-1.4.3-2,.5-.2.4-1.5.4-1.8,0-.4-.1-.9.2-1.2,0-.51-.08-1.2.45-1.4-.3-.34-.1-1.08-.03-1.4-.1-1,.1-2.2-.1-2.9.6-.3.4-.9.2-.9-.2-.5,0-1.1.2-1.5-.1-.63.74-.69,2.07-.5,3-.3.2-.6.3-.9.4-.2.4-.1,1.2-.7,1.3-.3.4-.9.4-1.3.2-1.5.56-3.49-.36-4.5-1.6-1.1.3-1.5,1.5-2,2.3,16.48,5.24,34.24-3.47,51.2.7-.1,14.8-2.7,29.3-7.4,43.2-1.9,5.5-1.4,2.8-.1,3.5-1.15,2.19-1.83,5.03-.8,7.3-.55-2.05-.35-.99-1.2-.1.1,1.3,0,2.7-.1,4,18.3,1.6,36.6-.8,54.4-4.4-1.63,20.87,10,7.75,20.3,4.2,7.5-4,14.6-8.4,21.8-12.7-.34-10.54-1.76-21.2-2-31.9-.88-.38-1.15-10.55.2-9.9v-.8c.2-.1.4-.1.6,0-.1-.4.1-.9.6-.7l.2-.2c0-.4,0-.9.5-.9.2-.5.6-.9.9-1.4q-.1-.1-.1-.2l-.1.1q0-.1.1-.2c0-.9.5-1.8,1-2.6q-.1-.1-.1-.2c1.58-1.57,2.25-4.35,3.9-5.7l.6-1.2c.2,0,.4,0,.5.2.3-.1.6.1.6.4.2-.2.5-.2.7,0,1.67-.5,3.64-.31,5.4,0,1.84-1.07,4.32-1.19,6.4-1.9-.1-.3.1-.6.3-.9.6-.2,1.2-.3,1.7-.7,0-.8-.1-1.7.6-2.3q0-.1-.1-.3c1.1-.7,3.3-.9,3.4-2.4l.6-.3.1.1c12.6-5.1,18.9-19.6,18-33.2h0Zm-47.7-6.6c-2.8.5-5.7,1-8.4,1.8-.3-.2-.8.5-1.2.5,0-.5-.2-4.3-.4-4.8-.78-.4-.39-1.33-.2-2,.1-1.6-.7-3.3-.2-4.7-.1-.9-1.1-3.7-.4-3,.7.5.8-.2.7-.3-.92-4.85,1.12-10.29-.1-15,.1-.7.3-1.4.5-2.1.1.7.2-2.5.4-1.8,0-.8-.7-2.1.9-.1.1.8.1,1.6.2,2.4,2.51,9.42,3.8,20.4,8.2,29.1h0Zm-115.3-2.5c0-5.56-1.3-11.05-1.3-16.6-.9-.6-2.1-.2-2.7.6,0,0,0-.1-.1-.1-.2-.5-.7-.8-1.2-.9-.48-5.27.28-10.76.8-16-1.24-5.97-5.52-21.42-12.6-11-2.42,4.75-2.84,16.37-3.7,21.6-.38,6.06-1.04,13.87-1.2,19.9.01,1.21-.17,2.51.1,3.7.3,1.1-1.2.87-1.1-.1,0,.4-.1.8-.1,1.2h-2.6c-.9-1.31-2.91-1.24-3.8-.1-.69.23-1.27.87-1.2,1.6-.97,1.03-.37,2.61-.3,3.6l-2.3,6.4c-.76.89-.4,2.38.6,2.9,1.4-.58,3.09-1.84,4.6-1.7.84-.24,2.01-.62,2.1-1.7.1,0,.1-.1.2-.1.57-.36,1.34-.95,1.4-1.7,2.53-.54,5.17-1.12,7.4-2.4,3.08.67,6.61-2.38,9.9-2.3,1.85-.2,5.46.88,5.3-2.1.3.1.7.1,1.1,0-.68-.43-.16-1.41.5-.9,0-1.2.2-2.5.2-3.8Zm-17.5,1.6c-.53,0-.97.11-1.5.1v-.7c.6,0,1.1-.1,1.7-.2,0,.2.1.5.1.7-.1.1-.2.1-.3.1h0Zm6.2-15.2l-.4-16.3c.1.5.5.9,1,1.1-.6,5.32-1.2,10.73.6,15.9-.3-.4-.7-.6-1.2-.7Zm118.7-100.9c-.4-.2-.9-.1-1.3.1-9.4-1.7-19.1-3.8-28.7-4.2-1.01-.11-4.49.14-2.6-1.9,0-.2-.2-.6-.2-.8-1-1-1.1-1.8-2.4-2.5-1-2.2-2.3-4.3-3.5-6.4,5.1-.9,7.7-9.8,2.8-13.1,1.07-2.57,4.48-6.79,1.2-9.2-.2-.7-.5-1.5-.9-2.1,4.8-1.7,5.9-9.1.5-10.5.6-5.3-1.4-10.9-5.6-14.3-.7-5.2-2.1-23.3-9.8-21.3-1.3-1.3-3.8-2.8-5.5-1.5-1.8-.1-3.8-.7-5,1.1-5.6-2.1-10.1,10.7.4,9.7,12-3.9,11.5,5.2,13,14,11.8,21.8-5.5,1.7-6.6,16.3-1.2.5-1.3,1.2-1.8,2.3-2.3,2.4-6.3,4.6-9.4,3-1.06-.96-2.57.08-3.7-.9-.2.3-1.1-.8-1-.4-1.7-1.2-4.5-3.6-5.6-.5-3.2,3.4-8.6,4.1-12.5,1.2-1.4.3-2.1,1.8-2.7,2.9,8.49,5.71,19.55,3.92,28.9,1.6,8.4,3,7.3,37.7,5.2,45.7,1.32-1.01,1.7-3.81,3.3-3.9.2-.5.5-1,.8-1.5-.6-1.1-.4-1.6.3-1-.8-.8.9.7.9.6,5.6,2.82,6.83,10.36,7.6,16h.1c8.01-.23,56.93-3.33,43.8-18.5Z"/>
  <path class="cls-14" d="m94.33,73.55c25.65-5.7,31.23,18.27,5.8,24.6-25.65,5.7-31.23-18.27-5.8-24.6Z"/>
  <path class="cls-13" d="m69.03,81.65c13.89-3.92,19.66,16.14,5.8,20.2-13.91,3.89-19.59-16.04-5.8-20.2Z"/>
  <path class="cls-15" d="m40.13,216.15c15.52-3.27,27.2,66.17,11.5,68.2-15.48,3.29-27.28-66.28-11.5-68.2h0Z"/>
  <g>
    <path class="cls-8" d="m72.33,106.25c-16.12.22-31.96,1.96-40.3,17.7-1.62,10.85,3.83,22.5,9.1,31.8,2.15,1.35-2.82-7.19-2.6-7.3-7.15-17.48-9.54-27.49,9.4-37.4,7.14-3.49,18.65-1.83,24.4-4.8Zm-42.9,21.7c-15.05,9.09-16.83,32.54-17.7,48.6-.1,5.66,1.15,11.68-.9,17.1-1.15,3.08-3.39,6.16-2.8,9.6.4,2.77,5.18,4.92,1.6,7.3-3.48,3.66,1.33,8.82-.7,12.8-4.66,4.11,3.73,2.83,1.8-4.5-.79-3.02-1.89-6.55,1.2-8.6,2.77-4.44-5.6-5.71-1.3-12.6,4.86-8.55,1.57-18.7,2.7-28,1.23-14.7,4.93-33.44,16.1-41.7h0Zm20.2,45.6c.65,4.64.83,12.28,1.1,17.1.4,4.49-.91,11.74.5,16,.7,2.16,3.35,3.16,3.9,5.3l.6-.7c-1.56-.09-8.57,6.12-4.9,5.9,1.52-1.75,2.99-3.7,5.3-4.4,2.26-2.64-5.47-5.62-4.2-10.6.04-9.1-.23-18.34-1.3-27.4-.1-.5-.1-1.4-.6-1.6-.6-.3-.7.7-.3.6,0,0,0-.1-.1-.2h0Zm76.5-87.3c6.27,1.47,2.55,7.99,1,11.8,1.2,1.6,4.21-6.64,3.6-8.1-.08-2.21-2.22-5.15-4.7-4.1-.1.1-.1.3.1.4Z"/>
    <path class="cls-8" d="m127.33,86.45c5.39.85,5.13,7.82,9.3,10,1.28-.33-1.83-2.69-1.9-3.6-1.45-2.62-3.89-8.09-7.6-6.8.1.3.2.4.2.4h0Z"/>
    <path class="cls-8" d="m136.03,95.75c.72,4.05-2.64,8.66-1.3,12.8,1.1,1.52.81-3.8,1-4,.02-2.16,2.9-8.46.5-9.5-.1.2-.3.5-.2.7h0Z"/>
    <path class="cls-8" d="m128.73,97.75c1.92,3.68,4.31,7.99,6.9,11.2,1.5-.37-2.48-5.01-2.8-6-.65-.6-3.49-7.04-4.1-5.2h0Zm-.8,1.4c3.68,16.3-10.29,30.9-6.7,47.5.79,8.38,2.46,17.96,3.5,26.4.52,1.47.59,12.45,2.7,9.4-1.1-9.65-3.35-24.2-4.5-34-4.37-17.23,10.37-32.79,5.4-49.5.1-.4-.5-.2-.4.2h0Zm-35.3,27.2c1.98,5.62-.79,11.32.5,17.1,2.76,8.66,3.08,18.2-.1,26.8-2.65,8.87.07,18.96.6,28,.56,7.17.35,14.32.2,21.5,0,.7.9.6,1,0,1.63-12.82-.19-25.68-1.4-38.4-.25-12.25,6.61-23.86,1.4-36-2.28-6.22,1.47-13.04-1.4-19.1-.3-.6-.9-.3-.8.1Zm-33.6,52.8c-1.7,6.53-2.07,13.35-2,20,1.63,6.64,16.61,2.98,21.8,2.3,1.08.52-.02-13.27.2-13.5-1.07-2.05,3.47-14.12,1.2-12.2-3.8,7.6-2.24,16.83-2.3,25l.5-.7c-5.25.71-16.69,3.79-20-1-.4-6.62.2-13.23,1.1-19.8.1-.4-.4-.4-.5-.1h0Z"/>
    <path class="cls-8" d="m58.53,168.95c-6.66,13.1,7.28,8.54,14.6,7.8,10.91,1.19,5.38-1.79,9.8-8.4-.8-2.97-3.68,3.77-3.3,5-.08.94-.03,2.51-1.4,2.4-3.86-.53-7.57-.16-11.4.5-8.28,1.05-9.96,1.98-8.3-7.3h0Z"/>
    <path class="cls-8" d="m60.13,168.75c7.43.11,15.16-.86,22.6-.8,3.25-2.51-24.62-.45-22.6.8Zm75.5-2.2c.36,3.75-.62,9.68,4.9,9.6,3.89.2,11.71.61,15.6.8.53-.28,9.91,1.21,9.6-.3-.02-2.15.55-5.2.3-7.3-.1-2.49-2.83-2.16-4.6-2.2,0,0-14.7-.8-14.7-.8-2.07-.18-6.24-.64-8.3-.9-3.58,2.49,18.82,2.47,20.4,2.8,8.97-.05,5.6.41,5.8,8.5l.7-.7s-14.9-.7-14.9-.7c-2.98-.62-11.6.95-13-2.2-.89-.86.05-8.82-1.8-6.6h0Zm17.4,4.3c-.61-1.27-2.37-.9-2.7.4-.49,2.24,2.89,3.04,3.6.9.52-1.03-.35-2.26-1.3-1.2-.67.38-.25,1.8.5.9.08-.02.17.05.2-.1h.1c-.19,0,.05,0,.1,0-.19,0,.05,0,.1,0l-.5-.5v.6s-.13.21-.1.3l-.1.1c.1-.1-.1.1,0,0,0,0,0,.1-.1.1l-.1.1c.1,0-.1.1,0,0h-.1l-.1.1c.1,0-.1,0,0,0h-.2c.1,0-.1,0,0,0h-.5l-.1-.1h-.1c.1.1-.1-.1,0,0l-.1-.1v-.1c.1.1-.1-.1,0,0l-.1-.1v-.3c0,.1,0-.1,0,0v-.2s.1-.1,0-.2c0,.19,0-.05,0-.1l.1-.1c-.1.1-.1,0,0,0,.08-.02.17.05.2-.1h-.1s.1,0,.1-.1h.1c-.23,0,.26,0,.3,0-.23,0,.17,0,.2,0,.1,0-.1,0,0,0h.1c.24-.08.33.48.6.2,0-.2.1-.3,0-.4h0Zm-14.2,6.3c-1.24,6.35-.89,13.16,0,19.5,1.75,4.05,7.04,2.93,10.6,3.4,15.31,1.66,12.25-.09,12.7-13.2,1.63-7.01.68-13.22-1.1-1.6-1.84,8.88,4.08,16.22-9.6,13.6-3.59-.74-11.69,1.24-11.7-4.4-.62-4.9-.79-12.37-.4-17.3.2-.2-.4-.3-.5,0h0Zm-48.8-15.7c-2.76-.81-3.91,6.63.4,4.7,1.33-.91,1.52-2.88.8-4.2-.69-1.1-2.1.81-.7.6h-.2c.06.01.17.28.2.2,0,0,0,.1.1.1-.02.71.11,1.66-.4,2.2-.04.02-.17.23-.2.1,0,0-.1,0-.1.1,0,0-.1,0-.1.1q-.1,0-.2.1h-.3c.13-.03-.32.08-.3-.1.1,0-.1,0-.1-.1,0,0-.1-.1,0-.1,0,0,0-.1-.1-.1-.16-1.02.63-2.3,1.4-3l.1-.1v-.1c-.2-.2-.2-.3-.3-.4h0Zm-.8,35.9c0-.1.1-.2,0-.3-.02-.1.07-.33-.1-.3-1.75-1.92-4.12,1.8-2.9,3.5,1.24,2.31,5.32,1.48,4.8-1.4-1.4-4.96-4.07,1.97-1.5-.5h.1c-.1,0,0,0,.1,0l-.4-.2c.11,0,.18.23.3.3.14.17.03.33.2.5,0,.08,0,.08,0,.05,0-.31,0,.55,0,.25.09.18-.23.35-.1.4,0,.1-.1.1-.1.2.1-.1-.1.1,0,0l-.2.2c.1-.1-.1.1,0,0-.39.22-.89.07-1.3,0,.1.1-.1,0,0,0-.15,0-.32-.06-.4-.2l-.2-.2c.1.1-.1-.1,0,0,0,0,0-.1-.1-.1,0,0-.1-.3-.1-.1,0-.1-.1-.2-.1-.2v-.5c0,.1,0-.1,0,0,0-.1,0-.2.1-.2,0-.21.01-.48.2-.6.1-.25.1.05.2-.2.08-.04.24-.33.3-.2.1-.1.2-.1.3-.2,0,0,.1,0,.1-.1.25.02.52,0,.7-.2l-.1.1c-.1,0,0,0,.1,0v.2c-.3.2,0,.2.1,0h0Zm-2,77.2c.03-.6-.91-1.01-1.4-.7-4.25,1.99.02,7.97,2.5,3.6.27-.98-.29-2.9-1.6-2.5-.22.23-.3.59,0,.8q0-.1,0,0c.12.2.21.25.3.5l.1.1s0,.1.1.1c0,.1.1.2.1.2,0,.03,0,.54,0,.3,0,.13.03.19-.1.3.1-.1,0,.1,0,0,0,0,0,.1-.1.1,0,0,0,.1-.1.1l-.1.1c-.17.13-.32.06-.5.2.19-.03-.63.09-.6-.1-.12-.01-.04-.07-.2-.2l-.3-.3c0-.1.03-.3-.1-.3-.04-.14.05-.57.1-.8,0,.1,0-.1,0,0,0,0,0-.1.1-.1.03-.19.12-.2.2-.3-.08.08.26-.26.3-.3.01-.06.28-.17.2-.2l.2-.2s.1,0,.1-.1q.1,0,.2-.1c.1-.1-.1,0,0,0h.1c.1,0-.1,0,0,0h.1c.2.2.4,0,.4-.2h0Zm-4.7,39.2c-4.01-2.36-4.7,4.98-.3,4.1,2.04-.37,2.74-3.78.8-4.7-.76-.52-1.81,1.1-.6,1-.18,0,.1,0,.2,0,.1.1,0-.1,0,0,0,0,0,.1.1.1.16.23.09.53.1.8.03.03-.05.38-.1.5.1-.1,0,.1,0,0,0,0,0,.1-.1.1,0,.1-.1.2-.2.3.1-.1-.1.1,0,0l-.3.3c.1-.1-.1.1,0,0l-.1.1s-.1,0-.1.1q-.1,0,0,0c-.1,0-.3-.03-.3.1.1,0-.1,0,0,0-.18-.01-.34.05-.5-.1h-.1c.1.1-.1-.1,0,0-.1,0-.1-.1-.2-.1l-.1-.1c.1.1-.1-.1,0,0l-.2-.2c0,.1-.1-.1,0,0,0,0,0-.1-.1-.1-.16-.2-.08-.22-.1-.4,0,.09,0-.18,0-.2,0,.1,0-.1,0,0,0-.1,0-.2.1-.2.01-.12.07-.04.2-.2l.4-.4c-.1.1.1,0,.1-.1.41-.18,1.05-.48,1.5-.2-.1.1.2-.2-.1-.5h0Zm-17.7-12.3c.68-1.57,14.4-32.05,12.7-18.8-.39,4.28-3.15,14.66-4.1,19-1.1,4.8-2.3,9.7-3.1,14.6-.1.4.5.5.6.2,2.76-11.57,8.06-25.36,8.1-37.3-4.01-4.63-6.98,6.01-8.9,8.5-.86,2.51-7.06,12.79-5.3,13.8h0Zm35.4-145.1c-1.7,11.21,6.73,21.16,7.3,32.3,1.53,7.07-.66,15.25,4.1,21.3.3.4.9-.1.7-.5-3.27-6.05-1.96-13.22-3.1-19.8-1.03-11.24-8.49-23.38-9-33.3h0Zm2.5,0c4.27,1.26,9.61-1.87,13.5,1.4,6.91,5.93,7.75,17.63-2.1,21-.99.08-4.47,3.41-2.2,3.3,9-5.38,15.01-10.37,8.4-21.2-3.44-7.3-11.37-6.64-17.9-4.7.2.1.2.2.3.2h0Z"/>
    <path class="cls-8" d="m112.43,182.05c.81,4.5,7.09,2.68,10.2,4,8.76,6.13,6.26,17.85-4.1,20.5-.7.57-7.41,1.87-4.8,3,5.83-1.33,13.21-4.1,15.3-10.3,1.45-5.58-1.4-13.5-7.4-15-3.24-.34-6.54-.03-9-2.5-.1.1-.2.2-.2.3Zm-15.5-25.3c.7.39,1.44.63,2.1,1,.04-.04.37.11.3,0,.61.15.87-.73.3-1-.1,0-.1-.1-.2-.1-.81-.07-2.19-1.42-2.7-.4-.1,0,0,.4.2.5h0Zm-1.1,7c0,.13.19.29.3.4.4,1.02,1.89,1.59,3.1,1.4.41-.04,1.57-.71.9-1.2-.43-.14-1.48.2-1.8-.1q-.1,0-.2-.1h-.1c-.17-.17-.41-.19-.6-.3.1.1-.1,0,0,0l-.2-.2c.1.1-.2-.1,0,0,0-.1-.1-.2-.2-.2-.26-.46-1.33-.2-1.2.3h0Zm26.1-11.9c-1,.68-2.55,1.58-3.4,2.4l.8-.1s.3.4.2.2c0,0-.2-.3-.1-.1.05.12.13.37.1.5.1-.1.1-.2,0-.1q0,.1-.1.1c.44-.2.17-.6-.1-.8-.11.02-.4-.06-.4.1-.91.25-.49,1.83.5,1.3.78-.57,5.56-3.28,2.5-3.5h0Zm1.4,7.8c-.6.4-1.2.9-1.7,1.3l.9.9c.14-.13.22-.24.2-.4l-.1.1c.1-.1.1-.2.2-.3v-.1c0,.19,0-.05,0-.1.22-.33-.15-.83-.5-.8-.16.04-.32.13-.5.1-.1.1-.2.1-.3.2l.2-.2c-1.1.18-.45,1.9.5,1.2.23-.4,2.19-1.5,1.5-2.1.2.1-.1,0-.4.2h0Zm2.3,46.9c.26,5.91-.17,12.49-.2,18.4,1.75,1.52,1.06-7.96,1.3-9.1-.24-.77.39-11.22-1.1-9.3Zm13.4-107.5c47.26,10.46,56.07-4.11,37.4,52.1-.16,1.67-6.21,11.84-3.7,10.9,3.48-6.07,5.8-12.62,8.1-19.2,2.31-10.56,10.34-26.51,3.3-36.2-4.2-3.98-14.44-3.62-19.8-4.9-7.22-.81-17.96-3-25.1-3.3-.2.2-.4.5-.2.6Zm48.3,10.7c11.39,9.23,17.7,24.37,22,38.1,3.84,11.34,1.2,22.99,2.5,34.5.75,6.6,6.88,14.82,1.9,20.8-.86.99-10.39,6.86-7.1,7.2,1.8-2.2,4.6-3.4,6.9-5.1,8.42-6.38.08-17.39-.5-25.6,1.1-17.6-.57-35.52-9.7-51.1-1.31-3.26-13.82-22.99-16-18.8Z"/>
    <path class="cls-8" d="m215.53,201.85c1.45,7.44,9.45,3.37,2.6,15.8.02.28-2.19,3.32-.6,2.7,4.31-4.71,7.42-12.51.2-16.1-.91-.4-1.3-3.35-2.2-2.4Z"/>
    <path class="cls-8" d="m220.83,213.55c6.92,15.2,2.63,34.25-10.9,44.3-.65.95-6.6,3.47-4.2,4.1,15.37-7.23,23.11-26.61,18.4-42.7-.29-1.09-2.4-8.17-3.3-5.7Zm-52.6-30.3c-1.64,1.7,4.89,35.37,7.5,31.3-2.94-7.53-4.28-16.1-6-24-.78-1.29.1-8.24-1.5-7.3h0Z"/>
    <path class="cls-8" d="m167.93,182.95c-1.36,5.51-3.87,33.9-.4,35.9-.7-11.56,1.05-25.5.4-35.9h0Zm-8.6,42.1c6.72-.56,13.38-3.13,19.9-4.3.6.1.9-.6.4-1-1.3-1-3.2,0-4.5.4-3.08.89-7.27,2.16-10.4,2.8-.66.43-7.7,1-5.4,2.1Z"/>
    <path class="cls-8" d="m179.33,219.45c1.12,5.32,6.98,12.23,9.7,17,6.15,8.62,10.67,18.17,12.3,28.6,1.54,1.52,1.27-1.83,1-2.7-2.6-16.42-14.27-29.46-22.7-43.1-.2,0-.3.1-.3.2Zm-4.2,49c8.46,1.85,17.88,2.82,26-.8.6-.2.3-1-.3-.9-6.18,1.48-12.57,2.5-18.9,1.5-.24.18-9.13-2-6.8.2h0Zm-15.3-41.3c4.83.23,12.3-.87,17.2-1.1l-.7-.5c-.13.56-.35,1.41.6,1.2.84-.42,1.08-1.83,0-2,0,0-8.9.9-8.9.9-2.44.39-6.21.17-8.5,1.1.1,0,.1.4.3.4h0Z"/>
    <path class="cls-8" d="m176.73,226.45c1.19-4.47-11.57,14.71-8.7,14.6,1.58-2.07,3.14-5.45,4.5-7.7,0,0,2.4-3.8,2.4-3.8.5-1,2.11-2.5,2.2-3.6l-.4.2v-.1l.2-.2c-.44,0-.46.63-.2.6h0Zm-7.6,17.6c-1.52,1.67.42,4.52.9,6.5,1.09,2.97,2.69,9.08,3.2,12.2.66,8.92,2.79,8.12,1.4-.2-.58-6.1-4.01-12.65-5.3-18.4,0-.1-.1-.1-.2-.1h0Zm11.8-25.9c.55.46,1.18-.06,1.8,0,2.07-.33,4.12.43,6.1.7,2.41-1.7-8.98-3.1-7.9-.7h0Z"/>
    <path class="cls-8" d="m180.33,218.45c.1-.1.2-.1.2-.2.3-1.23,4.27-3.34,3.1-4.1-1-.54-5.67,4.88-3.3,4.3Zm-138.2,60.6c-3.55,4.36-3.33,10.56-3.8,15.9-.41,9.3-3.5,18.21-7.3,26.6.68,2.3,2.62-2.6,3-3.3,6.46-12.01,4.14-27.36,8.1-39.2Zm-10.1,44.1c9.89,16.17,30.34,23.4,48.5,24.3,1.38-.06,8.37.66,7.1-1.3-22.81.46-41.69-7.91-55.6-23Zm61-48.3c.34,9.27.35,19.09-1.7,28.2-2.64,13.81-10.75,27.3-7.4,41.6.2.6,1.1.4,1-.3-2-9,1.2-18.1,3.9-26.6,3.97-12.92,8.34-31.1,4.2-42.9h0Zm41.7,6c1.45,8.15,3.02,16.92,3.4,25.2,1.83,12.52-2.79,25.85,1.5,37.9.2.5,1.1.1.9-.4-2.4-7.7-.9-15.9-.8-23.9.22-13.1-1.15-26.35-4.6-39,.1-.4-.5-.2-.4.2h0Zm7.6,63.4c3.24,1.97,11.69-5.04,15.1-6.2,1.47-1.36,28.09-14.27,23.2-15.1-8.21,5.15-20.98,12.65-29.6,17.4-2.43,1.06-5.76,4.11-8.6,3.6-.1-.1-.3.2-.1.3Zm35.6-55.1c-.64,2.96-.71,33.55,2.6,31.3-2.1-9.49-.9-21.82-2.3-31.4,0,0-.2,0-.3.1h0Zm-87.1,26.9c1.8,1.79,5.35,1.92,7.8,2.5,12.17,1.29,25.45,3.87,37.3-.2.6-.2.4-1.1-.3-.9-5.9,1.2-11.8,1.6-17.7,1.4-8.84-.24-18.67-1.55-27.2-2.9.1,0,0,.1.1.1h0Zm-2.2,7.5c-.2.07-.43.04-.6.2-.1,0-.2.1-.2.1v.1c.16-.02.27.06.4-.1.15-.03.29-.09.4-.2.1,0,.1-.1.1-.1,0,.1,0,0-.1,0Zm-.2.2c.1,0,.1-.1,0-.1s-.1.1,0,.1Z"/>
    <path class="cls-8" d="m88.43,323.75c.1,0,.1-.1,0-.1s-.1.1,0,.1Zm-.4.2c13.96,4.82,34.98,5.4,49.6,2.8,2.3-2.58-17.35.92-19.7-.1-10.01.36-20.1-2.07-29.9-2.7Zm20.9,7.3c.1-.3.1-.6.2-.9l-.7-.4c-.67,3.24-.48,8.62-.8,12,.15,2.97-1.23,8.53.5,11.1,1.36,1.09.19-4.88.5-5.6.01-5.4.75-12.37.4-17.7-.99-1.06-.93,2.44-.1,1.5Zm.1,23.3c4.06-.08,12.97,1.53,12-4.9-.03-4.17.13-10.54.5-14.7.1-1.3.3-2.7.2-4.1-1.74-2.2-1.5,5.39-1.7,6.3-1.74,16.03,4.62,15.93-11,16.7-.4,0-.3.6,0,.7h0Zm-75.6-30.3c-3.2,10.4-2.9,21.6-1.8,32.3,2.85,22.62,5.7,45.13,10,67.5,3.73,20.92,11.08,43.56,4.1,64.4-.1.9.2,1.8.8,2.5.5.6,1.4-.3.9-.9-.8-.9-.3-2.2,0-3.1,8.21-30.59-6.65-62.1-9.2-92.8-2.04-18.95-8.65-46.99-4.6-65.8,0,0,.9-3.9.9-3.9.2-.6-.9-.9-1.1-.2Zm78.9,43c-3.42-1.39-2.97,4.7-3.5,6.7-.61,37.18-5.76,74.3-3.4,111.6,0,1,1.5,1,1.5,0-.7-15.7-.7-31.4-.1-47.1.24-15.57,2.49-31.07,3-46.6.51-5.22-1.87-21.24,1.8-24,.6.2,1-.3.7-.6Zm0,1.9c1.03,17.42,3.99,34.92,7.1,52.1,2.9,17.29,9.39,34.1,9.2,51.8.78,6.45-.93,17.95,2.3,23.7.48.69,2.89,1.35,2.1-.1-1.2-.7-1.7-2.2-2-3.5-1.15-9.82-.47-21.81-1.7-31.6-.92-8.61-6.2-29.16-8-37.9-3.46-16.88-5.91-33.93-7.8-51.1-.29-1.34-.08-4.6-1.2-3.4h0Zm4.4,9c4.27,5.31,17.35,3.85,23.8,3.5,1.22-.65,8.4.92,7.5-.1-9.6-3.82-22.04,2.54-31.1-3.6.1-.3-.3-.1-.2.2h0Zm6.6,9.4c3.82,6.46,14.58,6.45,19.7,11.6,4.11-1.49-13.89-8.02-15.4-8.9-1.29-.24-3.52-3.51-4.3-2.7h0Zm54.7-61.6c13.74,34.14,11.08,60.56,9.2,96.2-.14,16.28.79,34.24,1.2,50.6-.27,2.79,1.86,21.3,4.4,18.5-4.85-18.18-2.84-46.97-4-65.9.63-33.21,6.39-69.33-10.5-99.7,0-.1-.3.1-.3.3h0Z"/>
    <path class="cls-8" d="m182.03,335.05c-.95.19-1.83,1.55-2.6,2.1-1.3,1.25-4.01,3.66-5.4,4.8-8.32,7.51,4.65-1.36,6.2-3.7.53-.67,3.18-2.57,1.8-3.2h0Zm2.1,6.6c-1.26-.39-4.21,5.14-5.2,6.1-.26.74-6.46,8.6-3.9,7.8,2.43-3.12,5.14-7.3,7.5-10.5.4-.85,2.32-2.42,1.8-3.4h-.2Zm-97.2,40.5c29.31,2.16,13.62.74,2.1,13.5-.95,2.82,6.6-4.32,6.8-4.1,3.48-2.82,16.29-7.96,4.6-9.5-4.31-.41-9.38-1.35-13.6-.3-.1.2,0,.4.1.4Zm15.2,11.7c1.91-5.48-18.33,17.25-14.9,16.1,3.58-3.95,7.74-9.07,11.5-12.9.78-1.17,3.21-2.61,3.4-4l-.4.3c.17.22.17.77.4.5Zm-54,98.6c1.82,3.3-2.37,7.4-1,11.2,3.69,12.89,11.22,24.62,14.1,37.9,6.89,23.73,7.02,49.07.3,72.4,1.07,5.09,8.28,3.75,5.1,2.3-1.6.5-3-.8-3.6-2.3,9.22-31.37,4.82-66.46-9.1-96.3-2.51-5.85-7.1-12.03-5.4-18.8.63-2.21,2.39-5.13.1-6.9-.4-.4-.7.2-.5.5h0Zm56.9-5c-1.54,3.97,3.48,6.61,4.1,10.3,1.85,14.62-.89,29.73-1.5,44.4-.38,15.45-1.69,31.71,2.6,46.4-3.73,5.16-.75,6.44.9,11.1-5.53,9.31,3.52,9.55,1.7,16.4-.4.6-1,1.1-1.7,1.1-2.66,2.01,3.02,2.21,3.5-1.4,1.38-4.49-4.26-7.14-3.8-11.4,2.41-4.22,2.38-5.8-.5-9.8-1.42-2.5,1.68-4.44,1.7-6.9-3.63-7.34-3.07-16.41-3.3-24.5-.85-20.58,2.98-40.87,2.3-61.4.88-6.33-5.74-9.49-5.1-13.8.2-.7-.7-1.1-.9-.5Zm28.8,11.5c4.05,7.19,1.09,14.45.5,22,2.97,12.36,12.85,12.69,12.5,31.6-1.03,21.54,6.01,42.1,8.5,63.3,2.24,6.98-3.43,25.97,4.8,27.6,1.02.45,3.93-1.45,1.8-1.7-8.17,2.79-2.98-20.5-5-25.6-2.24-20.71-9.45-40.79-8.6-61.8.46-14.41-4.91-20.16-12.1-31.1-1.42-7.02,3.42-14.36-.3-21.2-.57-1.05-1.51-4.57-2.1-3.1h0Zm59.5-4.8c4.89,6.84-2.64,15.6,1.6,22.7,2.44,3.38,3.5,7.55,3.2,11.7.59,20.13.4,49.89-.1,70.1.24,5.89-1.54,13.93.8,19.5,1.14,2.52,3.42,4.27,4.2,6.9.2.6,1.1.5,1.1-.1-5.9-12.02-5.39-9.17-4.8-23.3.38-14.08.58-42.41.4-56.5-.69-7.45,1.31-19.73-2.2-26.5-1-1.8-2.2-3.4-2.6-5.5-.99-6.35,3.61-13.89-1.2-19.4-.1-.5-.7,0-.4.4h0Zm-12.9,158.1c-.56-3.09-1.84-6.8-2.4-9.9.35-1.35-1.94-1.55-1.4-.2.23.47,1.04.03.7-.4v.4l-.4.2h.2l-.5-.3c.07.71,2.93,12.76,3.8,10.2Zm-3.8-11.2c7.17-9.37,21.52-12.86,31.4-9.1-.15-2.58-3.61-2.57-5.5-2.8-9.87-.99-20.54,3.29-26.4,11.4-.7.3.1.9.5.5h0Z"/>
    <path class="cls-8" d="m206.93,631.45c-.2-.2-.2-.3-.1-.5l-.1.2c.1,0,.2-.1.2-.2l-.2.2c.2-.1.3-.1.4-.2l-.8-.2c.19,1.09,3.04,8.99,4.3,6.8-.64-2.14-2.59-5.06-3.4-7.2-.58-.7-1.33.37-.7.9l-.1-.2c.1.3.2.5.5.7,0,0,.1-.2,0-.3h0Zm-29.8,9.4c-1.05-.17-2.05.55-3.1.6-2.15.43-4.5-.89-6.4.6-.91.8-1.9,1.06-3,1.3-1.53,1.63,2.53,1.27,3.2.4,2.52-2.39,7.18.68,9.5-2.4-.1-.3-.1-.4-.2-.5h0Zm2.1,17c2.95-2.59,5.19-7.65,7.9-10.6,6.48-4.94,18.81-8.04,26.2-3.9,2.02,1.63,1.78-.07.6-1.3-7.83-4.46-19.19-.86-26.6,3.3-3.24,3.27-6.52,8.19-8.3,12.4.1.1.2.1.2.1h0Z"/>
    <path class="cls-8" d="m212.43,642.35c25.94,30.18-9.14-2.18-25.6,28.1h1.3c-15.08-24.5-2.27,3.52-.1.6,13.81-24.38,38.06-5.86,34.8-17.3-.46-1.55-10.63-16.02-10.4-11.4h0Z"/>
    <path class="cls-8" d="m217.13,647.55c.2.4.2.6.5.9l.5-.5c-6.1-3.37-15.26-2.44-20.9,1.5-.84.74-5.47,3.89-4.2,4.5,6.35-6,15.55-8.33,23.9-5.6,1.51.57,1.73-.42.3-.9,0-.2-.2-.1-.1.1Zm-149-27.6c13.25-10.17,22.01-11.18,35.2.1,1.1.9,2.2,2,2.3,3.5,0,.6,1,.6,1,0-.78-5.84-7.74-8.63-12.2-11.4-9-4.34-20.33.25-26.2,7.6-.2.1-.2.2-.1.2h0Z"/>
    <path class="cls-8" d="m105.53,622.55c-.1,0-.1.1-.2.1,0,.1-.1.1-.1.2-.46,1.26-.63,2.71-.8,4.1-.3,2.19,1.26,2.03,1.2,0-.16-1.5.74-3.12.2-4.5l.1.2v-.1c.1-.1-.3-.2-.4,0Zm-38.3-1.8c.12.76-.42,5.6.9,4.7.2-.44.04-6.24-.9-4.7Zm-2.4,8.8c11.73-8.25,29.24-6.89,40.1,2.3.4.4,1.2-.1.8-.6-3.19-4.62-9.19-6.26-14.3-7.7-8.81-2.63-19.92-.44-27,5.4-.4.2,0,.9.4.6Z"/>
    <path class="cls-8" d="m104.43,631.15c-.39.97.3,2.06.1,3.1.63,2.08-3.25,10.8-.7,10.5.91-4.14,3.2-10.03.9-13.9-.1.2-.2.2-.3.3Zm-40.7-.4l-.2-.1c0,.1,0,.2.1.3,0,.2,0,.4-.1.5-1.04,6.45-2.47,14.86,7,10.3,9.35-2.92,20.66-3.98,28.8,2.5,3.26,2.26,1.95-.57,0-1.7-15.69-11.74-35.91,4.27-35.2-2.9-.83-1.27,1.78-11.59-.8-8.9-.22.95,1.08.43.4,0h0Zm8.3.1c9.52-4,15.19-3.06,24.2,1.2-4.58-5.86-17.48-6.05-24.1-1.4-.4-.1-.3.2-.1.2Zm-9,13.4c-2.39,9.42-2.5,19.97,1.1,29.1,5.1,7.34,16.52,7.01,24.6,6.7,10.41-1.18,12.75-11.76,13.1-20.5.45-3.77,1.7-7.27,2.6-10.9-1.35-1.49-3.1,7.43-3.6,8.7-1.46,7.55-.92,18.21-10.2,20.6-7.68,1.58-17.82,1.04-24.2-3.9-5.27-8.65-4.25-20.03-2.6-29.7.1-.4-.7-.6-.8-.1Z"/>
    <path class="cls-8" d="m68.33,641.75c-2.25,4.33-5.09,26.95,1,28.4.3.1.5-.4.2-.5-1.3-.6-1.9-2.1-2.2-3.4-1.51-8.13.1-16.49,1.3-24.4-.1-.1-.3-.2-.3-.1Zm30.7,2.1c-.88,1.17-.63,4.44-1,5.9-.48,9.38-2.27,17.37-7.6,24.2,8.54-6.06,8.49-20.66,8.9-30.1h-.3,0Zm-38.8,21.3c-1.66,10.68.61,25.9,13.2,28.2,17.25,2.26,30.74-2.32,29.3-22.3-.63-2.06,1.48-11.33,0-11.2-1.09,2.88-1.07,6.06-1.2,9.1.84,18.67-7,24.37-25,23.2-14.27.15-16.5-16.01-16-27.1.1-.1-.3-.2-.3.1Z"/>
    <path class="cls-8" d="m61.53,682.15c3.18,9.17,14.69,6.16,22.1,6.1,5.68.84,13.7.43,15.7-6.1.1-.4-.4-.7-.7-.4-3.14,4.76-8.38,6.21-13.9,5.2-9.06.07-17.52,2.72-23.2-4.8Zm98.2-38.5c.2-.3.3-.7.6-1l-.9-.4c-.55,4.67-.66,10.61-1.4,15.3-.96,2.52,2.77,2.76,1.5,1.3.1,0,.2.5.1.1,0-.1,0-.2-.1-.3.31-4.42,1.1-9.84,1-14.3.27-6.08-3.27-.36-.8-.7Zm-1.3,17.2c3.6,13.9,15.64,9.76,23.4,16.8,4.88,5.46,3.93,13.63,7.9,19.6,10.71,15.05,32.53,18.87,49.3,12.9.83-.18,3.79-1.41,2.2-1.8-16.42,6.04-37.72,3.69-49.2-10.5-4.4-5.67-3.39-13.64-7.6-19.5-6.46-9.57-21.6-3.83-25.1-17.7-.2-.6-1.1-.4-.9.2h0Zm2.1-3.8c5.16,10.22,18.71,9.99,25.5,18.3,5.12,5.21,4.48,12.76,7.5,18.9,11.21,12.44,32.02,17.23,47.4,10.3.77-.31,3.84-1.72,1.8-2-15.8,7.33-48.21,2.8-50.1-18.1-5.02-18.63-20.27-15.65-32.1-27.4h0Zm63.6,2c2.31,4.78,8.14,9.65,11.8,13.4,6.55,5.32,12.36,15.99,2.5,21.2-13,5.39-28.61-2.39-37.7-11.9-10.29-10.23-14.37-12.25-1.6.6,8.8,13.17,48.09,25.68,45.7-.1-4.05-9.76-14.63-14.62-20.2-23.3-.2-.6-.7-.3-.5.1Zm-29.8,8c6.85,9.34,14.99,22.04,27.6,22.9,4.69.51,10.21.83,13.8-2.8.3-.3-.1-.7-.4-.4-19.27,10.02-30.7-8.19-41-19.7Z"/>
    <path class="cls-8" d="m244.53,688.05c2.16,6.5,1.3,13.59-1.1,19.9-.1.2.3.5.5.3,2.17-2.89,2.76-6.42,3.2-9.9.36-1.38-.73-13.04-2.6-10.3h0Zm-75.6-45.2c1.26,4.28,4.94,9.11,9.6,9.6.3,0,.4-.3.2-.5-.65-.63-1.93-1.25-2.7-1.8-2.76-1.82-4.82-4.58-5.9-7.7-.3-.7-1.4-.4-1.2.4h0Zm-61.4-40.5c.09-1.52-1.79-3.82-2.3-5.3-2.57-5.58-4.57-12.79-5.8-18.8-2.31,1.86,5.02,22.27,8.1,24.1h0Zm47.7-376.1c-4-.25-10.59.5-14.7.5-14.01,2.53-50.11-8.95-56.26,3.45,7.51-4.87,16.94-5.14,25.76-3.35,9.7,1.2,19.4,1.6,29.1,1.3,4.55-.37,11.72-.17,16.1-1.4.1-.4.1-.5,0-.5h0Zm15.9,40.2c-15.26-5.09-31.37-9.65-47.6-8.6-10.62.72-21.66,3.05-32-.6-.5-.2-.9.6-.4.9,14.51,6.42,30.61-1.09,45.8,1.3,11.25.24,24.57,6.35,34.2,7h0Zm-86.8-39.4c-4.39.17-10.99-1.06-15.3-2.1-10.39-2.89-20.95-.13-30.5,4.2-7.7,3.15-20.88,8.38-28.3,11.9-.99.5-5.91,2.11-3.7,3.1,2.24-.55,5.42-2.32,7.6-3.2,4.79-2.14,18.06-7.54,23.1-9.6,9.58-4.17,19.79-8.16,30.3-5.3,2.81.52,16.77,3.8,16.8,1h0ZM6.93,246.05c3.15,7.59,25.67-3.83,32.8-3.8,1.78-3.28-11.79,1.54-13.3,1.7-5.07.95-11.21,4.8-16.4,3.5-.97,0-2.57-2.19-3.1-1.4Zm25.3-1.6c-9.01.17-24.47,21.76-18.2,19.3,3.02-8.23,9.97-15.79,18.5-18.3.6-.2.3-1.2-.3-1h0Zm-17.5,21.3c5.78,2.28,6.91-1.25,9.4-5.7,4.3-5.93,12.16-7,18.4-9.9,1.22-1.65-1.44-1.09-2.2-.6-8.09,2.61-16.61,5.83-20,14.3-.7.9-2,1.6-3.2,1.3-.8-.2-2.2-1.1-2.7,0-.2.4,0,.7.3.6h0Zm12.4-8.1c-1.56,3.14-2.51,8.82-3.7,12.2.63,2.01,4.28,3.26,6.2,2,2.6-2,2.4-5.82,3.8-8.6,2.25-2.83,6.56-2.74,9.8-4,2.21-2.82-9.22,1.1-10,2-3.05,2.85-2.3,13.67-8.7,8.3l.3.8c-.03-1.18,4.37-13.71,2.3-12.7h0Zm18.1,1.8c1.09,1.36,1.37-1.91-.9-.7-1.4.7-1.9,2.7-2.5,4.1-.58,1.85-3.24,6.58-3.2,8.5,1.21,4.58,10.59,11.9,13.3,5.3,1.48-5.13-5.19-4.42-2.7-7,1.84-1.38,3.74-2.08,5.6-3.4,1.28-3.02-4.36.95-5.3,1.3-2.43.89-3.77,4.28-.8,5.4,1.15.33,1.99,1.4,1.8,2.6.31,1.77-1.18,2.35-2.7,2.1-3.57-.3-6.67-3.58-8-6.7,1.01-1.93,3.61-11.53,5.6-11.1-.07-.13-.25-.45-.2-.6l.3-.1c-.2-.05-.44.15-.3.3h0Zm12.8,6c2.42,2.18,8.16.99,11.3.7,2.1-.12,22.78-5.75,18.9-7.5-9.13,3.08-19.81,8.93-29.5,6-.4-.2-1,.3-.7.8Z"/>
    <path class="cls-8" d="m62.33,223.95c-.47-.91-1.43-1.88-1.3-3l-.9.7c6.37,2.08,16.53-1.24,20.6,4.9-.1.5.6,1.1,1,.6.98-8.14-16.04-5.3-21.3-6.9-1.8.7.12,4.46,1.8,4.3.1-.1.2-.4.1-.6Zm-40,38.9v-.2c-.1.15-.1.35,0,.5v-.3c-.04,1.14,1.26,2.49,2.2,3.2,1.57.27.42-1.66-.2-2.2-.45-.39-.89-1.44-1.6-1.3h.3c-.1-.1-.3-.1-.4-.1l.2.1c-.3-.1-.6.1-.5.3Zm9.3,7.4c-5.22-.74,4.23,4.1,5.6,3,1.49-1.54-2.53-1.42-3.3-2,0,0-3.2-1.3-3.2-1.3l.1.9c.18-.11,1.39-.16.8-.6h0Zm20.4,3.1c4.31.89,11.49-.35,16-.3,10.62-.59,21.53-.76,32,.8,10.58,1.62,21.51,5.33,32.2,2.6.9-.3.5-1.6-.4-1.4-5,1-10.1,1-15.1.3-15.53-3.2-31.13-5.3-47-3.8-4.93.6-13,0-17.6,1.6-.3,0-.2.2-.1.2Zm82.2,4.2c10.2,9.12,24.77,9.62,37.8,9.9,5.63-.38,9.2-9.45,12.3-13.6-.32-2.23-2.53.87-2.9,1.7-4.6,5.78-5.62,12.05-14.5,10.2-9.21-.4-18.85-1.22-27-5.9-1.26-.15-6.14-4.92-5.7-2.3h0Zm-1-50.7c.04-.12.11-.45.3-.4l.4.7c.2-1.5.67-3.81,1.1-5.3-.03-1.29,4.07-6.72,1.3-5.9-1.73.68-5.96,14.58-2.3,11,.04-.43-.79-.67-.8-.1Zm7-.4c-.2.2-.3.4-.5.6l.8.5c-.2-1.34,5.6-7.04,3-6.5-1.24.27-5.6,7.81-2.8,6.5.26-.47.23-1.67-.5-1.1Zm-51-2c-1.28-.73-1.38-3.84-1.9-5.1,0,0-1.5-6.3-1.5-6.3-2.99-2.26.74,9.13,1,10.2.28.89.67,2.22,1.8,2.2.47.11,1-.8.6-1Zm11.9,51.1c-.72,4.59-1.87,13.87-2.3,18.5,1.83,2.22,1.79-7.74,2.3-9.1-.32-.05,2.18-11.91,0-9.4Z"/>
    <path class="cls-8" d="m106.83,277.35c.1-.6.2-1.1.4-1.6l-1-.4c-.33,1.64-.5,17.86,1.8,15.6-.5-4.52-.66-11.06-.8-15.5-.1-.7-1.2-.4-1,.3.32.43-.28,2.48.6,1.6Zm-93.6-27.1h-.1l.2.2c-.17-.29-.44-.38-.4-.8l-.5.5c.3,0,.5-.2.7-.4l-1.1.1c.58.8,5.8,7.77,4.7,3.4-.88-1.17-2.72-3.15-3.7-4.3-.84-.85-1.82.87-.7,1.1l-.3-.3c0,.56.87,1.35,1.4.8l-.2.1c.33.11.3-.3,0-.4h0Zm-5.9-7.6v.1l.1-.4.4.2c-1.82-3.6-4.55-9.17-6.3-12.9l-.3,1.1,4.6-3.5c.1-.1.4-.4.5-.4q0-.1,0,0c.43,1.47,12.27,11.66,11.1,7.3-3.58-2.17-7.37-5.29-10-8.5-.8-.6-1.6-.5-2.3.1-.33.6-6.05,3.79-5,4.8.64.65,7.52,17.13,7.99,11.91-.24-.47-.84-.26-.79.19h0Zm21.1-10.2c3.03-3.24,3.1-8.6,3.6-12.8-1.27-2.23-2,1.45-1.8,2.6-.2,1.97-.48,4.92-1.3,6.7-.06.73-2.05,3.69-.5,3.5h0Z"/>
    <path class="cls-8" d="m31.83,219.95c-.75-2.34-3.81,1.64,1.5.6,5.9-.23,12.93-.71,18.8-.6.1.1.1,0,0-.1.84,2.98,3.75-2.45-1.8-1.7-6.07.1-13.84.24-19.8,1.1l.5.1c.15.32.71,1.05.8.6Zm4.8,4.2l.1.2c-.46-.8-1.47-.24-2,.3-1.84,1.99,1.48,4.72,3.2,2.8,1.77-1.41-.48-4.17-.7-1.6,0,.09,0,.55,0,.2-.1.1-.1.2-.2.3.1-.1-.1.1,0,0l-.1.1s-.1,0-.1.1l-.1.1h-.1c-.1,0,.1,0,.1,0-.1,0-.35,0-.1,0-.44.03-.45-.02-.8-.1l-.2-.2s0-.1-.1-.1l-.1-.1c0,.1,0-.1,0,0,0-.08,0-.51,0-.2,0-.15,0-.35,0-.5,0-.1-.1.1,0,0,.12-.18.12-.38.3-.5.02-.07.34-.24.2-.2.1-.1.2-.1.3-.2.2.02.42-.21.4-.3l-.1.2c.17.05.29-.14.3-.3,0,.2-.1.1-.2,0h0Zm20.5,270.5c7.99-1.02,22.02-1.92,11.5,9.3-5.14,3.93-2.91,19.25-1,15.4-1.2-2.6-1.5-5.6-.9-8.4.28-5.7,7.61-8.53,6.7-14.3-3-5.5-11.4-3.44-16.3-2.1-.2-.1-.1.1,0,.1h0Zm76.1,4.7c4.37,5.9,10.38,10.34,16.7,14,1.01.41,6.6,4.03,5.9,1.8-7.25-3.74-14.19-8.13-19.9-14-.55-.25-2.62-3.14-2.7-1.8h0Zm59,11.9c-3.1,5.9-5.8,12.1-7.3,18.6-.1.4.5.6.6.2-.03-2.14,9.66-20.98,6.7-18.8h0Zm-52.4,1.4c3.3,5.14,6.13,10.86,8.2,16.6,3.01,1.44-7.23-19.32-8.2-16.6Zm-30.3-144.7c-.49-1.57-3.3-3.16-4.4-4.4-1.41-1.18-3.29-3.28-4.9-4.1-2.18.2,3.83,4.27,4.2,4.9,1.48.96,3.33,3.41,5,3.8.1-.1.1-.2.1-.2h0Zm4.3,3c.1,0,.1-.1,0-.1s0,.1,0,.1Z"/>
    <path class="cls-8" d="m113.73,371.15c-.13-.58-.84-.6-1.2-.4-.1,0-.4.3-.3.3-1.14.84.99,1.98,1.8,1.1.8-1.06,2.77-2.51,3.8-3.4.71-1.08,10.13-7.55,8.1-8-4.04,2.65-8.61,7.13-12.4,10.2-.28.58-.66.47-1,0-.23-.23.25.32.2-.1.3-.1.6-.2.9.1,0,.3.1.3.1.2ZM57.03,18.45c-11.78,1.27-16.69,17.65-15,28,.14.71,1.39,5.66,2.1,3.9-3.4-11.79,1.28-26.54,12.9-31.6.2,0,.1-.2,0-.3Z"/>
    <path class="cls-8" d="m47.33,46.85c-10.71,5.61-3.07,20.18.3,28.4,1.98.73-1.17-5.68-1.3-6.6-2.67-6.72-5.84-16.08,1.2-21.2.3-.2.2-.7-.2-.6h0Zm-3.7,25.2c-2-.2-2.2,3.4-2.1,4.7.41,7.58,13.2,6.76,13.8-.3.55-4.65-4.05-4.21-1.9-2.2.93.12.83-1.13-.1-.9l.5.1.1.3-.4.4h.1l-.5-.1c3.95,6.27-9.28,10.08-10.7,3.3-.22-1.45-.51-3.99,1.1-4.8.3-.2.3-.5.1-.5h0Zm12-46.7c2.3-11.35,11.3-22.86,23.6-15.3,3.12,2.1,5.67,5.41,9.5,6.3,1.03.66,8.29-.16,5.7-1.4-8.1,2.46-12.12-7.08-19.3-8.4-10.98-3.56-20.88,9.79-19.5,18.8Zm20-18.8C88.36-.48,98.75-.43,108.63,11.25c.75.65,4.56,4.58,4.2,2.1-3.65-3.45-8.3-9.05-12.8-11.3-7.3-3.88-20.2-2.18-24.4,4.5h0Z"/>
    <path class="cls-8" d="m102.93,20.25c7.2-8.72,22.5-4.83,23.7,6.7-.03,6.49,2.54,12.16,6,17.5.8,2.1.9,4.5,1.4,6.7,1.88.86.85-5.22.4-6.3-8.86-12.54-2.92-19.45-11.4-27.6-5.88-5.25-16.43-4.36-20.8,2.4-.2.5.3.9.7.6Z"/>
    <path class="cls-8" d="m131.33,54.35c.3.1.5.3.5.6l.2-.2c-.3,0-.6-.1-.9-.2l.3.4c3.9-9.37,12.67,8.31-1.7,7.4-5.21.58,2.34,2.63,4,1.4,8.83-1.24,5.89-16.45-2.1-11.4-3.3,4.14,2.8,2.72-.3,2q-.1-.1,0,0h0Z"/>
    <path class="cls-8" d="m133.93,63.35c4.27,6.51-4.04,8.01.9,12.8,3.53,2.35-5,12.58-1.2,10.7,2.37-3.95,6.19-9.26,1.3-13-1.12-2.85,4.7-6.45-.6-10.8.1,0-.4,0-.4.3h0Zm-37.4-6.4c.94,5.58,13.25,8.08,16.8,3.6,7.51-10.22,5.47-15.11-2.8-23.5-.91-1.57-1.3-3.62-.3-5.2.2-.4-.3-.8-.6-.5-2.3,2.3-.9,6.1.8,8.3,6.15,5.13,7.88,10.63,3.4,17.7-3.01,6.98-12.89,4.03-17-.3-.1-.3-.3-.3-.3-.1h0Z"/>
    <path class="cls-8" d="m115.73,55.15c-.79,4.58,3.73,8.73,8.1,9l-.4-1.4c-8.01,5.98,3.83,11.27,2.9,14.8-1.72,7.77,6.13,3.1,2.6,3.1-1.99.62-1.11-2.71-.9-3.8.14-4.26-9.92-8.05-3.8-12.8,2.18-2.02-6.25-.84-7.4-7.5-.2-.51-.34-2.23-1.1-1.4h0Zm-37.2-34.9c.2-.6-.7-.4-.9-.1,0,7.04,10.07,3.69,14,6.5,9.77,9.08,11.48,36.21-6.8,35-2.47-.6-4.38-2.3-4.9-4.8-.1-.5-1.1-.6-1.2,0-.3,2.3,1.3,4.3,3.2,5.4,6.4,3.69,14.17-1.16,17-7.3,3.87-9.39.61-22.36-6.7-29.2-3.82-2.98-13.14.65-13.9-5.4,0,0,.1,0,.2-.1Z"/>
    <path class="cls-8" d="m82.23,61.25c-3.64-1.11-5.8,4.75-2.3,6.3.39.31,1.83.51,1.4-.3-2.76-1.35-2.26-5.15,1-5.3.2,0,.3-.2.3-.4-.1,0-.2-.2-.4-.3Zm-8.4-17c4.15,8.01-7.19,13.85-5.2,22,1.09,6.19,8.12,8.55,13.4,6,.6-.2.4-.9-.1-1-9.25,2.87-15.22-4.88-10.1-13.1,2.33-4.15,5.98-9.51,2.6-14.1-.3-.3-.8-.1-.6.2Z"/>
    <path class="cls-8" d="m60.93,43.15c-.4.4-.4,1.1-.5,1.6-.38,4.82-3.88,8.81-4.2,13.6-1.12,6.8,6.44,14.83,13,10.5.4-.3.2-1.1-.4-.9-6.21,2.66-12.32-3.44-11.4-9.8.11-5.21,4.93-9.77,3.6-15,.1-.1,0-.1-.1,0Z"/>
    <path class="cls-8" d="m49.53,62.95c-2.32,6.11,9.83,14.71,13.8,8.1.4-.2.3-.9-.1-1-2.23-.35-2.7,3.3-5.2,1.8-4.06-1.09-8.58-3.9-8-8.7.1-.3-.4-.5-.5-.2Zm3.2-32.8c-8.66,10.37,10.9,11.77,15.9,5.3,4.63-3.79,8.35-16.3-.1-17.4-7.4-.64-14.82,16.88-2.6,11.2.6-.3.1-1.2-.5-.9-6.34,2.77-5.27-2.59-2-5.8,9.27-9.57,10.78,6.18,4.9,11.4-3.58,6.23-22.39,6.76-15.2-3.1.3-.4-.1-.9-.4-.7Zm30.2.3c5.7,4.23,10.71,11.31,8.3,18.9-.38,1.46-2.08,5.65-3.9,3.7-1.52-.61.1,2.11,1.2,1.8,9.37-4.74,3.32-22.51-5.6-24.4Zm32.9-7.7c11.42,2.56,3.87,17.14,13.3,21.5.3.1.5-.2.3-.4-2.45-2.61-4.83-5.61-5-9.4.57-5.7-2.55-11.17-8.4-12.3-.4-.2-.6.4-.2.6Zm-65.3,58.4c-1.39,3.41,1.61,6.76,5,7.2,1.64,1.42-.87,4.41,1.5,5.6,4.12.8,1.15,2.76,2,5.4.33,4.06,7.25,4.23,6.4-.2-.1-.6-1.1-.4-1,.3.1.3-.3.8-.5,1-2.19,2.06-4.28-1.21-3.5-3.3.2-1,.6-2.3-.2-3.2-.6-.8-1.6-.8-2.5-1.2-1.5-1.11.55-3.56-.8-5-.6-.8-1.7-1-2.6-1.3-4.53-1.04-1.98-7.31-3.8-5.3Zm-1.4,92.5c-2.04,4.08-4.21,8.72-5.5,13.1.79,1.55,2.94-5.6,3.5-6.3.12-.89,4.16-7.63,2-6.8Zm120.5,9.3c.73,3.35,3.52,7.19,5.2,10.2,2.64,4.73,4.52,4,.8-.5-1.02-1.61-2.93-4.91-3.8-6.6-.41-.52-1.44-4.12-2.2-3.1h0Zm-44.1-76.7c-2.18,9.04-13.41,10.75-11.4,12.6,5.35-2.1,11.59-5.91,12-12.3.1-.4-.4-.6-.6-.3Zm-50.6-25.6c-1.01-2.4-4.17-3.12-6.5-3-2.77,0-4.48,2.93-7.2,2.5-.5-.2-.9.6-.4.9,4.52,2.18,7.53-6.13,13.8-.2.1.3.4.1.3-.2Z"/>
    <path class="cls-8" d="m67.13,79.05c-5.51,1.97,2.64,8.17,3.6,2.4-.1-1.54-1.56-3.28-3.2-3.1-.98.15-.84,1.94.2,1.3-.11.13-.17.09-.3.1.1.1.3.1.4,0,.1,0-.2,0,0,0h.2c-.21-.03.27.02.2.2,0,0,.2.1.1,0,.2.14.58.57.6.6,0,0,0,.1.1.1.1.1.1.2.2.3,0,.12,0,.37,0,.5,0,.2,0-.2,0,0-.02.08.05.17-.1.2,0,0,0,.1-.1.1,0,.1-.1.1,0,0-.1.1-.38.43-.5.4.1,0-.1.1,0,0q-.1,0-.2.1h-.2c.1,0-.2,0,0,0h-.3c.1,0-.1,0,0,0-.06.04-.41-.09-.3,0-.25-.06-.49-.43-.7-.6q0-.1,0,0c0-.15-.06-.32-.2-.4,0,.1-.1-.1,0,0-.12-.23-.19-.72,0-1,0-.1-.1.1,0,0,0,0,0-.1.1-.1,0,0,0-.1.1-.1.19-.22.47-.43.7-.6.1,0,0-.4-.4-.4Zm11.2,17.8c.93,1.71,2.79,3.04,4.7,3.6,2.05.61,3-1.72,4.7-2.3,9.95-.3,4.65-8.83,3.9-6,3.21,5.72-4.3,3.2-6.4,6.2-2.01,3.12-5.09-1.91-6.9-1.5Zm.3-16.9c.17,1.94.93,4.8,1.1,6.8.41.84-.23,7.44,1.1,6.5.7-4.19-.21-9.43-1.7-13.4-.3-.1-.5-.1-.5.1Z"/>
    <path class="cls-8" d="m73.63,81.65c-2.44,2.36-5.92,2.65-9.1,1.7-3.05,1.53,4.33,2.2,5.3,1.5.99.08,5.91-2.79,3.8-3.2Zm13.1-2.8c4.14-6.96,12.44-2.83,17.2-6.1.04-1.83-4.05.33-5.3-.1-4.48.48-10.47.95-12.3,5.8-.2.4.2.7.4.4h0Zm3.1.4c3.12,1.68,8.04,1.15,10-2.1.54-.46,1.04-2.14-.2-1.7-3.42,5.84-9.31,2.03-9.8,3.8Z"/>
    <path class="cls-8" d="m92.53,73.55c-4.89,1.24.27,8.51,3.5,5.1,2.73-2.38-1.76-8.16-3.3-4.4v-.3c-.16.64.47,1.11.9.6-.05.1-.31.17-.4.2.35-.03.68-.13.8-.1-.1,0,.3.1.1,0,.4.2.6.5.8.8.23.44.32,1.12.1,1.6-.08.26-.43.74-.7.8-.13-.03-.99.06-1.3-.2q-.1,0-.2-.1s-.1,0-.1-.1c-.36-.12-.49-.42-.8-.6,0,0,0-.1-.1-.1-.1-.1-.1-.2-.2-.3,0,0,0-.1-.1-.1,0,.1-.1-.2,0,0-.18-.49-.16-1.02.1-1.5.1-.1.1-.2.2-.2.26-.37.97-.24,1-.8.1-.1-.1-.3-.3-.3Zm-11.8,38c3.46-2.1,7.47-.59,11.3-1.4,2.94-.56,5.63-2.32,8.6-2.7,6.82.68.27-2.91-2.9-.8-3.09,1.36-6.48,2.7-9.9,2.7-1.76.1-4.86-.16-6.4.9-.1,0-1.4,1-.7,1.3Zm6.9,2.5c2,1.38,5.55-.11,7.9-.2,1.37-.02,2.74-2.37.8-1.8-1.63,1.3-4.44.96-6.4,1.5-.56.11-2.43-.36-2.3.5Zm-33.6-44.6c-3.53,7.11,3.97,11.74,5.7,17.9.42,6.47,23.96,42.19,30,38.1.3-.4-.2-.9-.6-.7-4-.84-6.64-5.67-9.5-8.4-8.87-10.11-15.98-21.39-20.5-34-3.06-3.51-6.09-7.65-4.4-12.5.2-.6-.5-.9-.7-.4h0Zm38.1,55.8c.1,0,0-.1,0,0Zm-3.4-24.5c-.17,1.15.53,2.81.6,4,.1-.1,0,0,0-.1-.19-.05-.62-.26-.6-.6-.02-.21.07-.42-.1-.6-.68-1.21-1.33.75-.4,1.5,3.32,2.41,1.72-3.14.8-4.4-.1,0-.2.1-.3.2h0Zm33-14.2c4.05,6.58-3.3,13.16-6.3,18.6-4.79,6.59-9.22,16.91-17.6,19.6-1.06.99-7.25-.28-5.6,1.7,12.03,2.53,18.3-11.4,23.9-19.6,3.4-6.16,11.51-13.85,6.2-21-.2-.2-.9.3-.6.7h0Zm-37.1-19.6c4.87,2.3,11.18,1.56,16.4.8,1.16.08,3.7-1.06,1.9-2.2-1.46-.15-3.17.65-4.6.7-2.7.29-6.52.55-9.2.3-.91.2-4.81-1.18-4.5.4Zm-24.4,9.7c-.1,0-.1-.1,0,0Z"/>
    <path class="cls-8" d="m59.23,76.05c1.33,2.56,7.71-2.33,9.4-3.2.9-.6,2.2-1.6,2.4-2.7-.49-2.01-4.52,2.76-5.9,2.9-1.03.5-3.19,1.86-4.3,2.1-.6.04-1.8-.01-1.6.9h0Z"/>
  </g>
</svg>