<?xml version="1.0" encoding="UTF-8"?>
<svg id="Ebene_1" data-name="Ebene 1" xmlns="http://www.w3.org/2000/svg" xmlns:xlink="http://www.w3.org/1999/xlink" viewBox="0 0 408 722">
  <defs>
    <style>
      .cls-1, .cls-2 {
        fill: none;
      }

      .cls-3 {
        clip-path: url(#clippath);
      }

      .cls-4 {
        fill: #f4efea;
      }

      .cls-5 {
        fill: #e9c3bb;
      }

      .cls-6 {
        fill: #fff;
      }

      .cls-7 {
        fill: #fae6e1;
      }

      .cls-8 {
        fill: #334f2b;
      }

      .cls-9 {
        fill: #b26a15;
      }

      .cls-10 {
        fill: #e09531;
      }

      .cls-11 {
        fill: #1d1d1b;
      }

      .cls-12 {
        fill: #443e3d;
      }

      .cls-13 {
        fill: #6d5333;
      }

      .cls-14 {
        fill: #557689;
      }

      .cls-15 {
        fill: #111119;
        opacity: .25;
      }

      .cls-15, .cls-16, .cls-17 {
        isolation: isolate;
      }

      .cls-2 {
        stroke: #1d1d1b;
        stroke-miterlimit: 10;
      }

      .cls-18 {
        fill: url(#Unbenannter_Verlauf_2);
      }

      .cls-19 {
        fill: url(#Unbenannter_Verlauf);
      }

      .cls-16 {
        fill: url(#Unbenannter_Verlauf_4);
      }

      .cls-16, .cls-17 {
        opacity: .5;
      }

      .cls-17 {
        fill: url(#Unbenannter_Verlauf_3);
      }
    </style>
    <clipPath id="clippath">
      <rect class="cls-1" y="0" width="408" height="722"/>
    </clipPath>
    <radialGradient id="Unbenannter_Verlauf" data-name="Unbenannter Verlauf" cx="-89.07" cy="777.7" fx="-89.07" fy="777.7" r=".99" gradientTransform="translate(1577.85 10275.65) rotate(3.81) scale(24.63 -12.82)" gradientUnits="userSpaceOnUse">
      <stop offset="0" stop-color="#f6c7c0"/>
      <stop offset=".12" stop-color="#f6c7c1" stop-opacity=".98"/>
      <stop offset=".25" stop-color="#f6cac4" stop-opacity=".93"/>
      <stop offset=".38" stop-color="#f7cfc9" stop-opacity=".85"/>
      <stop offset=".51" stop-color="#f8d6d1" stop-opacity=".73"/>
      <stop offset=".64" stop-color="#f9deda" stop-opacity=".58"/>
      <stop offset=".78" stop-color="#fbe9e6" stop-opacity=".39"/>
      <stop offset=".91" stop-color="#fdf5f4" stop-opacity=".17"/>
      <stop offset="1" stop-color="#fff" stop-opacity="0"/>
    </radialGradient>
    <radialGradient id="Unbenannter_Verlauf_2" data-name="Unbenannter Verlauf 2" cx="-89.6" cy="778.92" fx="-89.6" fy="778.92" r=".99" gradientTransform="translate(2804.81 16012.73) scale(27.31 -20.19)" gradientUnits="userSpaceOnUse">
      <stop offset="0" stop-color="#f6c7c0"/>
      <stop offset=".12" stop-color="#f6c7c1" stop-opacity=".98"/>
      <stop offset=".25" stop-color="#f6cac4" stop-opacity=".93"/>
      <stop offset=".38" stop-color="#f7cfc9" stop-opacity=".85"/>
      <stop offset=".51" stop-color="#f8d6d1" stop-opacity=".73"/>
      <stop offset=".64" stop-color="#f9deda" stop-opacity=".58"/>
      <stop offset=".78" stop-color="#fbe9e6" stop-opacity=".39"/>
      <stop offset=".91" stop-color="#fdf5f4" stop-opacity=".17"/>
      <stop offset="1" stop-color="#fff" stop-opacity="0"/>
    </radialGradient>
    <radialGradient id="Unbenannter_Verlauf_3" data-name="Unbenannter Verlauf 3" cx="-88.41" cy="780.26" fx="-88.41" fy="780.26" r=".99" gradientTransform="translate(-1398.25 9252.16) rotate(22.96) scale(23.74 -11.64)" gradientUnits="userSpaceOnUse">
      <stop offset="0" stop-color="#f6c7c0"/>
      <stop offset=".12" stop-color="#f6c7c1" stop-opacity=".98"/>
      <stop offset=".25" stop-color="#f6cac4" stop-opacity=".93"/>
      <stop offset=".38" stop-color="#f7cfc9" stop-opacity=".85"/>
      <stop offset=".51" stop-color="#f8d6d1" stop-opacity=".73"/>
      <stop offset=".64" stop-color="#f9deda" stop-opacity=".58"/>
      <stop offset=".78" stop-color="#fbe9e6" stop-opacity=".39"/>
      <stop offset=".91" stop-color="#fdf5f4" stop-opacity=".17"/>
      <stop offset="1" stop-color="#fff" stop-opacity="0"/>
    </radialGradient>
    <radialGradient id="Unbenannter_Verlauf_4" data-name="Unbenannter Verlauf 4" cx="-87.83" cy="780.26" fx="-87.83" fy="780.26" r=".99" gradientTransform="translate(-1604.39 9157.83) rotate(22.96) scale(21.08 -11.63)" gradientUnits="userSpaceOnUse">
      <stop offset="0" stop-color="#f6c7c0"/>
      <stop offset=".12" stop-color="#f6c7c1" stop-opacity=".98"/>
      <stop offset=".25" stop-color="#f6cac4" stop-opacity=".93"/>
      <stop offset=".38" stop-color="#f7cfc9" stop-opacity=".85"/>
      <stop offset=".51" stop-color="#f8d6d1" stop-opacity=".73"/>
      <stop offset=".64" stop-color="#f9deda" stop-opacity=".58"/>
      <stop offset=".78" stop-color="#fbe9e6" stop-opacity=".39"/>
      <stop offset=".91" stop-color="#fdf5f4" stop-opacity=".17"/>
      <stop offset="1" stop-color="#fff" stop-opacity="0"/>
    </radialGradient>
  </defs>
  <g class="cls-3">
    <g>
      <path class="cls-2" d="m-1573-123.1H981.5v905.3H-1573V-123.1Z"/>
      <path class="cls-7" d="m262.2,65.4c-.63-.67-.21-1.57-.1-2.5,3.6-1.2,1.8-5.6-1.6-5h.1c-.4-.2-.7-.4-1-.6-1.48-.65-2.58-3.87-1.6-5.8,3.6-3.7-.3-6.6-4.2-4.3-.6-.1-1.1,0-1.7.3.95-.41-.61.22-.8.2h.1c-.1,0-.4.1-.2,0-2,.3-4.5,0-4.7-2.5,0,.3,0-.1-.1-.2v.1c.3-1.9-.2-4.5-2.7-4.1-4.7-2.3-10.7.9-8.6,5.5-.5.3-.8.2-1,.7-4.1-2.3,1.1-7-5.5-5.7h.3c-3.7,1-5.7-7.5-9-2.7-1.49.74-5.22.26-7.3-1l.1.1c-.1-.1-.4-.3-.1-.1-1.31-3.62-6.59-1.15-6.1,2.1.1.4,0,1.1-.2,1.7-1.9,4.9-8,7.5-9,13.1-2.1,3.7-6,.6-7.2,4.2.7-.3.8.5.7,1,.4-.3.7-.9,1.2-.8.1-.3.4-.4.6-.3.2-.6-1.8,1.8-1.8,1.8l-1.8,5.4-2.5,7-.5,6,1,6.5,2,5.5-7,5c-9.5,7-3.1,5.1-3.5,14.5-1.4,3.9-4.4,6.7-2.5,11,3.53,12.11,2.44,20.69,2,27.5,6.27,4.73,15.08,5.61,22,3.5,0,0,3.7-.1,4.9-1.5,3.8-.3,6.3-2.8,9.1-4.9l.6.3c1.12-1.59,2.94-2.62,3.7-4.4-.2-1,.5-1.9-.1-2.9,0-1.3.5-2.7.1-4-.2-2.7,2.5-4.9,2.3-7.5,3.4-5.6,9.4-10.2,9.2-17.3,7.22-3.54,12.67-9.01,16.7-15.8,5.4-4.79,7.32-11.29,10.6-17.3-.33-1.77.86-6.29,3.1-6.5l.3-.3c3.1-.1,4.9-3.2,1.7-5Zm144,247c-2.2-6-11.4-5.9-12.9-12.1-.1-.9-1-1.5-1.7-1.7-8.1-4.8-9-18.2-16.5-24.8,8.3-4,18.1-6.5,25.3-12.1,3.2-6.7-8.1-4.6-11.7-3.9-10.46,1.22-20.57,5.38-31.4,5.4-4.2-4.9-8.6-9.6-14.2-12.7-4-3.1-9.5-22-14.5-18.6-1.1-1.1-2.9-.8-3.8.4-.7-.6-1.6-.7-2.4-.5-2.2-2.5-4.3-10.7-8.6-7.9-2.1-2.6-6,.3-4.1,3.1-3.2,1-.7,4.8.1,6.8-1.2,1.7.4,3.5,1.1,5-2.1,1.4-.6,3.9.5,5.5-.1.3-.1.6-.1.9-1.2.3-2.1,1.3-2,2.7-.8-.4-1.5-.4-2.2-.1-2.1-.6-3.9,1.8-2.8,3.6-.36.18-.67.46-.9.8-2.2-3-6.4.9-3.7,3.4-.2,3.3,3.9,5,6.6,5.6l4.4,2.9c2.8,1.6,4.4,5.5,7.6,6.3,4.4,3.8,7.3,9.7,11.3,13.9,1.2,7.1,6.7,14,13.9,15.9,1.31,1.58,1.02,4.35,3,5.5.5,5,8.6,5.1,9-.5.6-.6.7-1.6.4-2.4.7-1.8-1.5-2.7-1.3-4.4,6.12,2.91,14.42,24.52,21.2,14.7,1.5,1.5,1.7,1.3,5.9,4.1,5.9,4,9.1-.4,5.6-5.8-4.05-6.38-6.62-1.03-11.1-11.2,8.84,5.95,17.41,12.26,25.7,18.7,3.6,2.4,6.2-3.6,4.3-6.5h0ZM102.7,233.5c-.1-.4-.3-.7-.5-1,.7-1.4-.3-3-1.6-3.4-.1-.3-.2-.5-.4-.7,0-.6-.2-1.2-.6-1.6,1.6-2.6-1.9-4.7-4.1-3.5-.2-.3-.5-.6-.8-.8.4-1.1-.1-2.4-1.2-2.9-.4-2.1-3-3.4-5-3.5-2.2-5.5-.6-12-3.9-17.2,0-.6-.2-1.2-.7-1.6.2-2.2-2.8-5.2-5-4.1l.5-.1c-1-22.11-12.1-13.1-25.3-31.8-.8-3.3,1.1-7.5-1.4-10.3-2.1-1-4.2-3.8-6.4-1.6-1-1.4-1.5-3.7-3.7-3-1-1.1-1.3-2.5-2.4-3.5,1.2-4.9-2.6-9.2-7.5-10.3-3.4-.8-4.1,3.9-1.2,5.1.3.4.6.9.8,1.4-.73,2.09,1.23,4.13,1.8,6.1-2.7-2.3-6.2,1.9-3.2,3.9,1,2.6,1.8,5.3,2.6,8.1-.9-.5-1.9-.9-2.9-.6-3.91-1.98-2.92-9.1-7.1-10.9-2.2-1.2-4.8-.8-7.2-1.7-3.1-.9-4.4,3.8-1.3,4.8,2.6,1.6,3.7,5.3,6.2,7,0,.6.3,1.1.6,1.6-.5-.1-1.1-.3-1.6-.3-5.4-3.4-9.4-10.7-16.2-10.7-4.8,1.2-1.5,5.1,1,6.9.3,3.6,5.3,5.2,7.8,7.5,9.77,10.65,23.16,17.97,30,31.4,1.2,4,3.6,7.9,7.3,9.9-.4,3.7-.1,10,3.4,12.3.2.4.5,1.1.7,1.5-.6,1.1-.2,3.6,0,4.9-5.5,8.5,2.4,13.9,9.4,19.3,6.58,5.26,21.58,7.89,29.5,2.2,2.9,1.3,4.8-2.7,6.5-4.4,1.6-1,3.6-2.4,3.1-4.4h0Zm-61.3-74.8v-.2c0,.3-.1-1.4-.1-1.8.2.3.3.7.5,1-.2.3-.3.6-.4,1Z"/>
      <path class="cls-4" d="m120.1,640.4c-.03-1.49-1.67-2.55-3-1.7-.2-.5-.7-.8-1.3-.9-.22-2.29-3.21-3.11-4.4-1.1-.62-.9-1.83-.74-2.7-.2-1.1-.6-2.7-.3-2.9,1.1-.72-.25-1.49.05-2,.6-.2-.9-1-1.3-1.9-1.3-.2-1.9-3.5-2.2-3.9-.2-.3,1.4-.4,2.8-.3,4.2.57,1.88-1.82,12.62,2.6,11.3.18,1.82,2.36,3.59,3.9,1.9.88.68,2.38.3,3.1-.6.75.53,2.09.32,2.6-.4.7,1.2,2.5,1.2,3.3.1,1.75.57,2.75-.97,2.8-2.5,1.89-.1,1.93-2.11,2.1-3.6,2.42-1,2.05-4.26,2-6.7h0Zm80.5,2.1c.05-1.17,1.49-4.88.4-5.8.4-1.9-2.4-3-3.6-1.5-.58-1.71-3.09-1.63-4-.1-4.44-4.57-5.51,8.1-6.7,10-.41,1.57,1.07,2.81,2.6,2.5-.47,1.68.46,3.98,2.5,3.4.38,1.43,2.28,1.89,3.3.9.4.7,1.1,1.1,1.9,1l-.3,2.5c-.53,2.49,3.15,3.67,3.9,1.1-.29-2.03,3.52-13.41,0-14Z"/>
      <path class="cls-14" d="m276,367.7c0-1.9-.7-3.8-.9-5.8,1.4-1.6-1.6-17.1-3.2-17.9-1.12-3.49-6.55-16.27-9-6.9-.6.2-1,.6-1.2,1.1q-.1,0-.2.1c-1.7-1.1-4.1.3-3.9,2.7-1,.2-1.9.9-2.1,2.2-2.6-2.9-5.2,1-5.8,3.5-1.2-.2-2.6.5-2.8,2-.3.2-.6.6-.8,1-1.4-.7-3.2.3-3.4,1.8-.45.24-.81.63-1,1.1-1.1-.2-2.3.2-2.7,1.5-.41-1.28-.75-3.14-2.4-3.2.11-.55,0-1.12-.3-1.6,2.4-1.4.3-5.3-2.3-4.4-.1-.3-.2-.6-.4-.8.6-1.9-1.2-3.8-3.1-3.1,0-.1-.1-.1-.1-.2,2.5-1.5,8.5-5.2,3.3-7.5,0-.8-.3-1.6-1-2.1.1-2.1-2.4-3.4-4.4-2-2.2.9-6.2.6-7.4,2.9-15.06,5.29-31.04,4.72-46.5,1.9-.7-.5-2.2.1-1.2.8,0,0-.1,0-.1.1-1.7-.2-3.7.8-3.4,2.8-2.3.5-2.5,3.3-.8,4.5-.2.7-.1,1.4.3,2-.8.1-1.3.5-1.7,1-2.5-.2-6.3,2.2-3.8,4.8-.5,1-.3,2.4.6,3-.2.3-.4.7-.7,1-2.1.2-5.1.7-4.4,3.5-.5-.1-1-.1-1.5.1-.1-.1-.2-.2-.3-.2.4-1.8-1.3-3.1-2.9-2.9.3-.7.7-1.3,1-2,1.5-2.9-3-5.4-4.4-2.4-.2-.1-.3-.1-.5-.1-.9-1.4-3.2-1.8-4.3.1.1-1.1-.7-2-1.7-2.3.4-2.4-3.4-3.7-4.7-1.5l-2.1,3.8c-.6-.7-1.5-1.1-2.4-1,1-2.9,1.5-8.4-3.1-6.5,1.81-5.29-4.57-6.37-5.5.3-1.1-1.4-3.4-2.5-4.9-.9-7.48,4.51-8.76,15.27-11.5,23.3-1.3,5.75-4.25,11.88-4.1,17.6-3.03,15.58-6.49,31.34-6.9,47.3-.1,0-.2.6.3.3-1,.8-2.1,4.8-.7,5.1-1.17,12.42-1.98,24.78-4.7,36.9-3.31,5.09-4.55,11.64-6.9,17.3-2.6,1.2-3.4,14.1-3.2,17.2.4,5.1-2.3,14.9.3,18.7-.39,7.25.35,15.11.4,22.6-1.34,14.26.12,28.02-.8,42.2-1.7,1.8-1.1,4.7-.6,6.7-.14,8.95-1.83,18-1.7,26.8-.1.2-.2.5-.2.8-.5.7-.6,2.1-.1,2.8-1.2,2.3-.7,5.4-1,7.9,3.7-1.1,7.5.2,11,.7.3.4,1,1.3,1.4,1.4-.1.2-.1.5-.2.7,2.26,1.12,4.59,2.39,5.8,4.9,6.18.81,9.76-4.47,16.6-3.8,2,1.3,4.4,2.5,6.8,1.8,9,4.2,6.7-8.7,3.4-12.8,0-1.5-.3-2.7-.1-4.1,2.58-1.97,5.99-6.4,3.5-9.5-.64-6.35-.61-12.34.2-18.7,0-3.1,2.3-6.8,1.1-9.7,2.37-9.05,6.29-17.56,7.7-27.2,1.29-4.17,3.55-8.2,3.7-12.4,1.7-5.5,3.9-11.6,1.7-17.3,1.9-3.4,1.7-8.9-3-9.4-1.61-6.06,6.84-19.39,8.7-26.6,1.1-3.1,6-6.8,3.8-10.1.5-1.5,2-3.2,1.4-4.8,4-6.9,5.5-15.4,8.1-23,.4-.3.1-1,.2-1.5,1.4-.9,2.3-2.5,1.2-4.1,8.96-23.36,14.01-48,25.9-70,12.1,3.4,6,20.3,7.4,29.5-1.9,7.1-.1,15.2.4,22.5-.61,13.32.82,27.07.7,40.6.5,3.9-1.4,8.3.5,11.9,1,3.2-1.2,6.6-.3,9.8-.35,3.03-6.08,10.22-4.3,12.3-.3,2.7-.5,5.7-.3,8.5-1,.9-1.4,2.4-1.1,3.7-3.52,10.6-2.2,24.05.2,34.9-2.1,3.3-.2,8.1-.4,11.9.79,8.21-2.33,17.96.2,16.7-1.2,9.4-.3,18.9-.9,28.4-1.2,1.8-1.7,5.2-1.4,7.3-3.1,4.7-7.7,13.8-3.9,18.9.5-.5,1.3.1.8.7.1.1.2.2.2.4,2.4,2.1,5.9,1.6,8.7.8,2.2.7,5.7.8,5.2-2.5,1.7-2,5.1-1.9,6.4-4.2,5.65-2.58,11.61-2.76,17.3,0,.8,1.5,1.2,2.5,1.3,4.2l.1.1c1-1.1,2.7,4,2.6,4.7,3.3.2,2.8-3.4,2.4-5.6.8-.9.7-2.5-.1-3.4.5-.7.7-1.7.3-2.5.2-.6,0-1.4-.4-2,.81-6.28,1.1-12.46,1.3-18.9-.1-4.1,4.3-9.2,2-12.6.3-1.3.7-3,.9-4.3,3.16-12,5.77-24.73,9.9-36.7,5.1-6.5,7.5-15.8,7.5-24,2.2-4.2,7.2-9,1.8-13.3,4-4.6,4.5-10.5,2-16.1-.9-2.1.8-4.9-.7-6.6,1.1-7.3,4.9-14.5,3.5-22.1,1.7-3.2,1.4-7,2.2-10.5,1.7-5.95,3.21-12.67,3.7-18.6,6.44-24.76,11.14-50.5,10.9-76.2Z"/>
      <path class="cls-4" d="m234,305.3c-.3-.4-.6-.7-.9-1,.2-1-.2-2.2-1.1-2.8.7-.9.5-2.3-.2-3.2,1.9-1.5.6-5.2-2.2-4.4l-2.9.9,3.6-1.3c3-1.1,1.8-5.8-1.4-4.8-.2-.3-.5-.5-.9-.6-.4-1.5-.9-3.4-2.8-3.4-.2-.5-.5-1-1-1.2,1-.8,1.2-2.4.4-3.5,1.35-2.2-1.15-4.56-3.4-3.6-.2-1.2-1.1-1.9-2.2-2,4.4-.3,3.2-6.7-1-4.9-.1-.1-.3-.2-.4-.3,1.6-.5,1.9-2.1,1.4-3.3,1.8-1.5.3-4.6-2-4.3,0-.7-.4-1.4-1-1.9.2-.5.2-1.1.1-1.6,1.9-1.1,1.5-4-.3-4.6,0-1.6-1.6-2.8-3.1-2.4,3.02-.83,1.63-4.34.2-5.8l1.8-.7c2.7-.6,2.2-4.8-.4-4.8-.4-.9-1.2-1.5-2.2-1.6l-.1-.1c.3-.5.5-1.1.4-1.7,2.1-.4,2.1-3.5.6-4.6,1.1-.5,1.5-2.1,1-3.1,1.7-1.2,1.2-4.2-.9-4.5,0-.9-.6-1.7-1.3-2,1.4-.8,1.9-2.5.9-3.8,1.8-.8,3.5-3.5,1.6-5,.2-.5.2-1.1,0-1.7.4-1,.1-2.1-.7-2.8l5.1-1.4c3.7-1.2,1.1-6.2-2.3-4.6-.4-.5-1.1-.9-2-.9.5-.9.5-1.9-.1-2.7.1-.5,0-1-.2-1.5,2.4-.4,3.9-3.3,1.6-4.9.3-.4.5-.9.6-1.4l2.8-1.1c2.7-1,2-4.8-.5-4.9-.2-.4-.4-.9-.8-1.2v-.3c.5-.6.7-1.7.2-2.5.3-.3.5-.6.6-.9,2.8-.4,6.3-3.3,3.1-5.6.4-1.2-.3-2.6-1.5-3.1-.1-.7-.5-1.3-1.1-1.7.5-1,.2-2.2-.5-3v-.2c1-.8,1.1-2.1.5-3.1,1.5-.4,2.7-1.8,2.1-3.4,1-.6,1.2-2.1.8-3,.8-1.3-.1-3.3-1.7-3.7-.3-.5-.9-.9-1.4-1.1,2.7-.8,2.1-4.3-.3-4.8,3.3-1.5,1.1-7.7-2.3-5.9-2.8,1.8-4.3,5.4-7.1,7.3l-8.1,2.6c-2.6.8-2.1,4.3.1,4.8.2.3.5.6.8.7.1.5.5,1.1.9,1.4-.7.7-.9,1.7-.5,2.7-.6.5-.8,1.3-.7,2-1.8.4-2.6,2.2-1.6,3.7-.2.5-.3,1-.2,1.5-1.17.7-2.76.66-3.5,1.9-1,.4-2.2.7-2.9,1.4-.5-.9-1.4-1.6-2.5-1.3,0-.6-.3-1.2-.7-1.7,1.5-.2,2.6-1.8,2.2-3.2,2.3,0,3.4-3.2,1.5-4.5,1-1.8-.5-7.9-2.3-8.3,1.1-2.9-2.4,0-3.4,0-6.19.45-12.98-9.91-12.8-.2-2.5-.7-3.9,2.8-2.2,4.4-1.4.4-2,2-1.7,3.3-2.1,1.1-1.2,4.5,1.1,4.8-1.4.9-1.6,3-.4,4-.7.5-1.4,1.4-1.6,2.4-1.5.4-2.4,2-1.7,3.5-1.4.9-1.4,3.4.1,4.1-.5.9-.5,1.9.1,2.7-.6.7-.7,1.5-.5,2.3-2.8.4-4.3,4.1-1.2,5.3-.9,1.4.1,3.9,2,3.9-2.8.7-3.5,5.2-.1,5.4,0,.1.1.1.1.2-1.9.8-1.8,3.8.1,4.5-.2.6-.2,1.1,0,1.6-2.9.7-2.7,4.9.3,5.1,0,.2.1.5.2.7-.2.5-.2,1.1,0,1.7-2.4,3,1.3,6,4.3,4.2.1,1.2.9,2.4,2.3,2.5.1.2.1.4.2.6-3.8.4-5.6,4.8-1.1,5.8-5.7,2.3-2,6.6,2.8,5.7.1.1.1.3.2.4v.2c-1.6.6-3.8,1.3-3.4,3.4-2.5,1-1.5,4.9,1.1,4.8.4.6,1,1.2,1.7,1.3-.1.2-.1.4-.1.7-2.2.9-2,4.2.2,4.7-3.5.8-2.2,5.9,1.3,4.9-.3.4-.4.9-.4,1.4-1.8,1.1-.7,4,1.1,4.4-2.1,2,.2,5.6,3,4.1-1,.4-1.5,1.3-1.5,2.1-.8.8-.8,2.2-.2,3.1-3.8.5-3.3,6.1.6,5.1-.4,1,.1,2.3,1,3-.39.54-.51,1.27-.3,1.9-1.4,1.1-1.1,3.1.2,4-2.1.5-5.1,2.2-3.3,4.7-1.6,2,.5,4.8,3.1,4.2l.3.6c-2.8,0-4.7,3.4-2.2,5.1-4.8.3-5.2,5.5-.3,5.8-.1.6.2,1.3.6,1.7-.4.9-.19,2.01.5,2.7-6.89.5-6.12,6.57-1,5.6,0,.1,0,.2-.1.3-2.6.3-6.4,2.2-4,5-2.1.3-2.7,2.7-1.6,4.1-1,.5-1.7,1.5-1.6,2.7-2.6.5-4,5.5-1.4,6.5-2.6,7.6,25.8,5.2,30.5,5.4,3.8.5,38.5-9.1,28.4-14.5,0-.2-.1-.5-.2-.7.7-1.1,1.4-2.3,1.2-3.7.6-1.3,0-3-1.3-3.5,0-.1.1-.2.1-.3,2.3-.4,4.5-2.7,2.8-4.7.8-.4,1-1.9.4-2.7h0Zm-36.5-115.4c.1.3.3.6.5.9,0,.2,0,.4.1.5-.3.6-.3,1.3,0,1.9-1.2,1.1-1,2.9,0,3.8-.4.6-.5,1.2-.4,1.9-1.3.9-1.4,2.5-.7,3.6-.3.5-.3,1.2-.1,1.7l-4.4,1.2c-.2-1.2-1.2-2.2-2.6-2.1.2-1.2-.7-2.3-1.8-2.7,0-.5-.3-1-.6-1.4.8-.6,1.2-1.8.7-2.9,2.5-.8,2.2-4.2.2-4.9,3.8-.2,6.2-4.2,1.8-5.5.8-.7,1-1.7.7-2.6.7-1,.5-2.4-.3-3.2.1-.1.2-.1.3-.2.8.1,1.6-.1,2.4-.1.2.4-.3.7.1.9,0,.1,0,.8.5.6-3.8,3.4,1.2,5.4,4.7,3.9.1.3.3.7.6.9,0,.2.1.4.2.6-1.4.7-2.3,1.8-1.9,3.2Z"/>
      <path class="cls-10" d="m335,231.1c-5.7-4.9-7.6-12.8-13.1-17.9-2.2-2.5-1.9-6.5-4.1-8.9-1.2-6.4-6.7-10.7-10.4-15.8-2.2-3-2.6-7.9-5.6-10.2-.2-.8-.7-1.6-1.4-2-2.9-9.4-1.2-21.8-7-29.9-1.62-6.5-3.6-16.04-8.2-20.9-1.3-3.5-3.3-7.2-7-8.7-11.45-14.84-32.3-5.03-47.9-4.7,0-.9-.1-1.8-.7-2.6-.8.2-2.9,1.7-3.1.4-.16.82,1.06,2.59.2,3.1,0,.2.1.4,0,.5-.1.4.1,1.1-.3,1.2,0,.1.6.5-.2.4.1,1.2-.4,2-1.1,2.9,0,.4-1,.8-.8,1.3-4.9,6.6-10.6,14.2-8.6,23,1.06.34-.3.73.6,1.4.1.1-.5.3-.5.5.7.1,0,.8.7,1.2-.4-.2-.1.7-.3,1,4.91,15.66-1.83,31.28-3.9,46.8-.7,5.4-1,5.1-1.7,7.4-2.61,14.01-1.64,28.89.1,42.8,1.74,26.67,15.22,51.59,17.4,78.7-1,10.5,1,21.3.1,31.9-.1,1.1.1,2.4-.2,3.5-1.5,3.1,2.5,5.2,4.6,2.5,10.2-2.5,20.8-7.8,28.4-15.6,3.2-.1,5.2-4.2,7-6.5,3.2-3.6,2-9.7.8-14,.06-7.72-5.86-33.34-11.1-38.2-.9-1.5-.4-3.8-1.9-4.8-.1-.3-.3-.5-.5-.8.9-1.5-1.4-2.7-2.1-4-6.99-11.11-5.46-23.79-2.2-37.1-.2-5.6-3-8.7-3.4-14.5,1.59-13.76,11.32-25.06,9.2-39.1,14.86,8.91,8.02,31.02,20.2,40.6.2,1.7,1.8,2.6,2,4.4-.3,3,.8,7,4.6,6.9-3.4,5.56,10,13.27,12.3,19,.5,3.7,5.4,2.9,5.4-.6,2.3-3.4,5.7-5.7,8.6-8.5,2.5-1.1,8.2-3,4.4-6.3-1-6.1-1.1-13.4-.9-19.7,2.2,4.4,4.7,8.7,7.2,13,.4,2.9,1.9,5.5,5.8,2.1,1.2-1.1,3.3-1.2,4.5-2.4.5.5,1.2.8,2,.7-.4-.4.1-.9.6-.8.2-.2.2-.3.5-.4.21-.16.22-.33.2-.6,1.08.22,1.46-.81.8-1.7Zm-85.6-30.3l.3-1.8.3.3-.6,1.5Zm-64.2,78.2c.04-34.78-16.61-68.95-11.8-104,3.15-16.16,6.71-33.28,2.4-49.5.7-4-2.5-8.5,1.8-11.7.8-.9.8-1.9.5-2.7,1-2.4,0-4.1-.6-6.5-.6-.5-.5-2,.1-2.5-.07-5.69,5.1-9.35,10.2-10.5-.3-.3-1.1-.2-1.4-.6-.4.2-.8.1-.8-.4h-.3c-.2,1-1.8.2-2.5.6-.9,0-2.3,1.6-2.9.6-.3,0-.6.2-.9,0-7.4,2.3-12.7,7.7-15,15.2-12.1,3.6-24.5-1.5-36.8-.4-19.1,3.68-34.25,18.89-37,38.2-3.71,10.88-4.47,22.89-7,34.1-1.6,3.7-2.3,8.2-3,12.2-1,2.6,2.2,3.7,3.7,5,.3,1.3,1,2.8,2.3,3.4,2.6,5.1,1.1,10.9,2.8,16-.8,2.6,2.9,4.1,4.8,4.9,3.5,3.3,8.2,7.9,7.3,13.1,0,3.3,4.5,3.1,4.5-.2,1.07-.73,1.46-1.95,1.1-3.1,1.8-2.8,8-9.8,6.7-12.9,1.9-.9,1.6-3.7-.1-4.7-.1-.7,0-1.4.3-2.1,3.9-1.5-.2-7.7.3-11,1.1-4.8,5-6.8,7.9-10.4,2.7,7,.9,15.1,5.1,21.5,4.3,10.1-1.8,22.3,5.2,31.2-5.1,4.6.9,12.6,1,18.2.8,2.4.5,5,1.9,7.2-5.7,15-10.3,30.8-12.5,46.6-.5,4.3-5.9,24.8-3.1,26.2,10.68,13.16,27.46,21.96,44.3,24,2.3,2.2,5.8.2,4.5-2.8-1.4-3.2,1-6.9,0-10.2,5.8-23.7,20.5-47,17-72Z"/>
      <path class="cls-9" d="m188.1,91.9c-.4-.4-1.2-.6-1.6-1-.4.2-.9.2-.9-.4h-.3c-.2,1-1.8.2-2.5.6-.9,0-2.3,1.6-2.9.6-.3,0-.6.2-.9,0-4.4,1.9-9,3.9-12,7.9.1.2.2.4.4.5-1.9,3.81-6.5,8.79-3.9,13.2,0,.3-.1.6-.1.9,1.22,1.8,1.48,4.07,2.3,6.1q.4.1.7-.1c-.3-.2.2-.2.6-.4.42-.21.4-.85.6-1.1.3-.6.2-2.5.2-1.7-.06-3.89,2.37-11.12,6.1-12.8.2.3.5.5.8.7.6-.1,1.7-.1,2,.5.5-.1.7-.2,1-.6,0-.1-.3-.2-.3-.3-.6-.5-.4-1.7.2-2.2,0-.2.1-.4.1-.6-1.1-1.3,1.2-2.3,1-3.6,2.4-4.1,8.8-2.7,9.5-6q-.1-.1-.1-.2Zm43,18.5c-.3-.5-.7-.8-1.2-.9-.7.4-1.4.7-2.2.9-.41,1.33-1.5,3.64-.2,4.8-.17,1.94,1.83,5.81.6,6.8.18,1.06,1.36.91,2.2.5,0,0,.7-2.5.7-2.5.38-.96.45-2.36.4-3.4.44-2.11-.03-4.08-.3-6.2h0Zm-72.5,97.1c-1.2-4.7-1.9-9.6-2.5-14.5.6-1-.9-2-1-3.1.8-2.3-.4-4.9-.2-7.3,1.8-.76,2.18-8.05,1.1-9.5-1.5-2-4.8,0-6.8-.1-.5-.1-2.2.1-2.7.4-.1,0-.2,0-.3.1-2.3-.5-4.5.4-6.8.7-1.3-1.1-3.1-.9-4.2.4-1.9.1-5.4,0-5.7,2.3-.4,2.8-.6,6.9,1.1,9.2,1.81,9.66,2.32,20.59,6,30.3.4.7,1.5,1.2,2.3.9,2.1-1.2,5.1-.5,6.7-2.3.35,0,.7-.11,1-.3,1.6.9,3.1-.6,4.7-.8,1,.5,2-.1,2.9-.6,3.2,2.7,5.4-3.2,4.4-5.8h0Zm94.9-31.4c-2.07-3.96,5.58-7.36-7.5-6.2-1-.5-2.2-.4-3.2,0-1.5-.9-3.8-1.4-5.3-.3-2.9-1.3-6.3-.4-9-1.8-2.1-1.3-4.9,1.8-3.4,3.6.1,2.6-1.4,9.5,3.1,8.5l.3-.3c-.5.5-1.2,1.2-1.1,1.9-1.25,8.11-.96,16.99-2.4,25.3-.77,3.87,15.51,2.12,18.4,2.2,2.3,1.9,6.7.5,4.4-2.8,2.2-8.4,4-16.8,3-25.5,2.7.4,4.3-2.1,2.7-4.6h0Zm80.8,55c-.4-.5-.9-1.1-1.5-1.2-1.3-3.4-2.9-7.2-6-9.5-3.2-2.4-4.3-9.7-9.3-8.3-3.3-1.5-7.3-.6-9.9,2.1-9.53.15-33.3,22.03-21.3,29.4,1.4,1.7,1.5,5.7,4.4,5.8,2.03,1.56,3.31,6.08,5.5,6.5-.2,3.4,5,4.7,4.9.6.6-2,3.2-2.6,3.7-4.6,2.6-.2,4.1-3.8,6.4-5,1.6-1.1,5.6-1.6,4-4.2-.68-7.45-1.58-15.48-1.3-22.9.1.2.3.9.4,1.1-1.8,2.1.8,3.8,1.8,5.3,1.4,3.3,3.7,6.2,5.4,9.4-.7,2.9,3.8,3.5,4.3.7,1.3-.3,3-.7,4-1.7.7.19,1.45.12,2.1-.2,2.1.9,3.9-1.7,2.4-3.3h0Zm-221-13.2c-2.6-4.8-10.8-17.6-14.8-12-.6.8-1.8.9-2.5,1.6-1.7.3-4.5.3-4.9,2.3-.2.1-.7.3-1,.5-2.1-.1-1.8,1.5-1.8,3.7,0,3.8,2.6,5.4,4.8,6.4,6.7,2.9,6.7,19.8,12,14.4-.1-1.8,2-3,1.9-4.7,1.3-1.5,3.6-3.4,3.3-5.6,1.3-1.2,1.6-3.1,2.6-4.2.7-.6.7-1.6.4-2.4Zm-25.1-22.7c-.34-1.84-2.72-2.67-4.4-3-.3-.3-.6-.6-.9-.8,0-.1-.1-.2-.1-.3-.66-1.07-2.22-1.3-3.1-.4.2.9.2,1.8.2,2.6.4.02.69.46,1,.7.54-.29,1.34.18.8.7.28.27,1.17.46,1,1,.29.2.75.47.6.8.15.25.81.75.6,1.1.94.65,2.22.62,3-.3.61-.24,1.2-.82,1.4-1.5-.1-.1,0-.3-.1-.6h0Z"/>
      <path class="cls-13" d="m270.7,57c1.6-4.4,3.3-9.4,2.3-14.1.6-1.6-.8-3.8-1.9-4.9.8-6.8.4-18.2-8.5-18.8.5-4.8-3.4-9.8-8.6-9.1-1.4-5.9-9.2-4.2-13.7-4-.6-1.9-2.6-2.5-4.2-3.1-1.1-.9-2.6-1.9-4-1.8-5.2-2.4-19.3,6-21.5,11.1-9.01.47-13.27,10.55-16.3,17.9-8.3-11.4-23,3-10.5,10.2-2.5,2.9-2.9,7.3-1.1,10.7-1.5.9-3.2,3-1.7,4.6.3,1.3,1.1,2.3,1.9,3.3-.3.6-.6,1.3-.9,2,.5,0,.4.6.4.9-3.63,5.19,7.16,11.93,6.2,4.4.57-1.52,1.45-2.95,1.9-4.5,1.3,1.5,3.9,3.4,5.6,1.2,1.5-2.6-2-5-.1-8,3.5-5.1,10.3-7.4,9.4-14.7,3.1,4.3,10.2,5.2,13.8,3.4-2.9,1.4,4.1,3.6,7.2,3.3-.1.4.3,1,.4,1.4-2.4,4.9,7.9,10.1,8.9,3.7-.4-.8-1.2-1.4-1.1-2.3l-.6-.3c.3-.6.4-1.3.5-2,.5,0,.9-.1,1.4-.1.9-.9,2.3-1.6,3.5-.9.2-.1.4-.2.5-.3h.6c-.2,7.3,8.7,8.4,13.2,4.2-.8,1.7-2.6,2.8-2.6,4.9.5,3.5,2.1,8.5,6.3,8.9-1.1,2.3-2.5,5.6.1,7.5-2.2,1.3-4.3,3.6-4.1,6.3-1.5,5.8-4.8,10.8-7.2,16.3-.2.5-.7.6-.9.3-.7.9-.75,1.96.1,2.8,1.84.43,3.43-1.14,3.9-2.8.1-.1.2-.3.3-.4,2.3-.4,5.7-4.4,5.9-6.7,5.9.4,9.6-7.6,8-12.5.3-.4,0-1.1,0-1.5,9.8,5,11.6-9.5,4.1-10.3,1.2-2.1,2.5-3.9,3.1-6.2h0Z"/>
      <path class="cls-12" d="m198,176.4c12.7,2.5,15-27.8-3.7-23.5-.4-.4-.8-.5-1.3-.5-7.1-5.2-5.4,18-4.3,21.4-1.2,4.5-1,9.6-1.7,14.3-2.3,5.1-4.2,11.9-2.5,17.6-.1,2.8,4.3,3.7,5,1.1,2.3-.7,4.1-1.6,6.5-1,5.1-.3,7.5-6.6,7.7-11,.51-.87.49-2.72.2-3.7.4-2.5-1.3-5.3-3.9-5.8-1.9-1.9-4.6-3.1-7.1-3.8,0-.4.1-.7.1-1.1-.6-.3-1.1-1.2-.8-1.7-.2-.6.7-1.1,1.2-1.3v-1.1c1.49-.09,3.16-.26,4.6.1h0Z"/>
      <path class="cls-13" d="m121.3,657.6c1.34-5.05.92-10.06-.8-14.8.6-1-.5-1.8-1.2-.8-1.8-.3-2.6,1.5-2.8,2.9-3,2.2-6.3,4.5-9.8,6.2-1.2-.1-2.3.2-3.4.8-2-8.7-10.3-17.1-19.7-16.8-4.7-.6-8.3,5.6-12.1,8.1-4.9,2.9-11.8,7.6-10.5,14-6.87,5.09-31.72,21.67-25.4,31-.1.1-.3.3-.4.5-1.4-.3-2.8,1.1-2.3,2.5.9,3.2.1,7.1,3,9.4-.4,1,.3,2,1.1,2.8,1.22,2.13,3.84,4.09,6.4,4.7,1.41,1.34,4.43,1.76,6.3,1.5,10.7,1.8,22.7-1.9,30.8-8.9,1.7.2,4.8-2.2,4.3-4.1,5.96-5.71,9.89-12.81,15.2-18.8,10.9-1.4,23.8-7.3,21.3-20.2h0Zm131.3,43.7c-2.75-2.97,1.02-8.15-3.3-10.6-1.5-3.2-1.6-8.8-4.9-10.5-1.92-6.38-6.5-11.58-7.8-18.1,2.31-3.18-2.68-18.54-7.3-18.6-.8-6.1-4.8-16.1-12.6-13.5-10.57.75-22.65,9.37-17.6,21.1-3.7.4-5.9-4.7-8.3-7-.4-1.3-.2-2.8-1-3.9,0-1.3-1.5-2.2-2.7-1.6-6.3,10.9-3,28,6.7,35.7.7,1.9,2.6,3.6,3.8,5.2.66,12.85,6.76,31.76,19.1,37.1.1.1.4.6.5.7.2,2.3,3.6,1.7,5.3,2.3.13.26.3.49.5.7.9-.5,2.1.8,3.1,1,.3-.6,1,0,1.5.2.5-.2.9-.5,1.2-.8,1.2,1.3,5,2.6,6,.1,13.5-.5,18.9-4.8,17.3-18.4l.5-1.1h0Z"/>
      <path class="cls-6" d="m219.5,59.7c-.14-.49-.32-1.1-.9-1.2-.57-.89-1.73-2.26-2.8-2.5-.33-.51-.94-1.44-1.6-1-.87-1.41-3.83-.29-5.1-.3-3.47,4.38,5.23,9.66,9,7.2.35.06.6-.26.7-.5.1,0,.1-.1.2-.1.1-.1.1-.2.2-.2.1-.1.1-.2.1-.3.3-.5.3-.8.2-1.1Zm24.8,12.2c-1.87-7.96-12.56-8.77-8.8-1.8.21,1.5,1.92,3.04,3.4,2.1h.2c.78,1.95,2.96.86,4.5.8.7.5,1.2-.6.7-1.1h0Z"/>
      <path class="cls-8" d="m217.2,57.4c-.72-3.55-5.35-2-4.1,1.2.1.1.3.3.3.4.38.48,1.03.4,1.5.6.87.06,1.84.04,2.01-1,.4,0,.4-.8.29-1.2h0Zm26,11.2c-.66-4.42-6.69-.41-4.4,2.4,0,0,.1.2.2.2.1.1.2.1.2.2,0,0,.2.1.2.2,1.3.81,3.46-.13,3.4-1.8.25-.35.36-.73.4-1.2h0Z"/>
      <path class="cls-5" d="m219.4,100.1c-.6-1.61-2.49-1.09-3.8-1.5-.55-.14-2.65-.78-3.1-1-1.09-.57-2.27-1.1-2.8-2.2-.9-.89-2.85-.63-3.5.5,0,0,0,.1-.1.1-.7,1.14.05,3.08,1.5,3.1,2.43,1.61,12.8,7.28,11.8,1h0Z"/>
      <path class="cls-15" d="m194.4,376.6c-7.1-3-10.3,9.5-14.2,13.6-6.8,10.6-13.9,20.9-20.1,31.9-9.9,20.1-32.6,50.6-29.6,72.8,1.1,7.1,7.9,14.4,15.4,10.3,1.1-2.5,1.3-4.8,2.3-7.3-.7-.2-.4.1-1,.6,11.05-28.93,20.7-58.67,30.1-87.5,1-2.1.6-5.8,2.5-6.8.2-.6.6-2.4.8-3-.3-.1.3.9.4.7,1.66-6.45,3.63-13.79,7.3-19.4-.3-1,.7-1.4,1.7-1.8.1.1.3,0,.4.1.2,0,.8.3,1,.4,0,0-.1,0,.2.1.1.2.1-.1.1.1.9.3,2.2,1.5,2.8,2.2,2.47-.97,1.73-5.67-.1-7h0Zm17,254.9c.1,0,.2-.1.2-.1-1.3.4-2.6.8-3.8,1.5.2,0,.4-.1.6-.1.9-.6,1.9-1.1,3-1.3h0Zm41.8-93.5c-.1-.1-.3-.2-.5-.3,1.24-1.69-.31-4.39.8-6.2-20.43,13.31-24.32,74.56-49.2,71.1-6.2-1.6-6.4-11.5-12.3-12.2-.51,10.81,1.18,22.61-4,32.2-1.54,3.87-4.82,8.4-3,13,.5.1.7.8,1.1,1.1.19-.12.46-.07.6.1.5-.4,1.2.2.7.7.04,1.86-3.05,4.14-2.6,6.1-.2.7.7,3.8-.7,3.2-1.48,7.06.11,13.58,3.4,19.8h.1c1.81,5.12,7.84,8.07,8.9,13.5-.5-8.2.5-16.5,1.6-24.7,1.4-.7,1.9-2.7.5-3.6.1-.7-.3-1.3-.9-1.7-.1-1.3.7-2.9-.2-4,.7-1.6.9-3.4,1-5.1.6-.5.9-1.3.7-2,.3.2.7.2,1.1.2,4.48-7.59,16.51-13.25,24.1-6.4,1.53.41,2.08,2.8,3.2,3.4.1.7.1,1.4.2,2-.1.1-.1.2-.2.4.2.9.2,1.2.6,2,3.4,1.8,4-2.2,3.4-4.5.4-.3.1-1.2.5-1.5-.86-12.77-.17-25.36,3.1-37.6.4-2.2-.1-9.1,1.7-9.9.3-.7-.1-2.3.6-2.7,2.28-8.56,4.04-18.85,8.1-26.2,1.71-5.49,4.47-11.05,6.5-16.2.2-.8.1-1.1.2-2-.2-.8,1-1.5.9-2Zm18.6-473.1c-.3-.6-.7-.5-1.3-.6-.53-.52-2.14-.89-2.1-1.7-.5-.2-.1-.3-.5-.2.5-.7-.3-.7.6-1,3.4-1.2,5.4-12.2,5.2-15.5,2-5.5-4.4-14-9.6-8.5-3.5,3.5-.3,8.1,1.5,11.6.7,1.5.2,3-.1,4.4.2,1,.5,2.3-.1,3.2.1.1.2.2.3.2-1,4.1-4.3,6.5-8.4,7.2.3-.4.1-.1,0-.6-1-.2-1.9-.8-2.6-1.7-.1,0-.2,0-.3.1-.7-.6-1.6-.9-2.3-1.3.9-1.6-.8-3.2-1.9-4.4.1-.1.2-.3.3-.5.6-.1.6-.5.8-.9-.2-.7,0-1.4-.3-2.1h-.7c-.6,2.5-9.6-1.1-9.2-3.3-.9-1.1.1-2.6-.6-3.6-1.1,0-2.2-.1-3.3-.2-8.17,4.38,2.19,11.75,8.5,12.3,1.94,2.44,4.84,4.1,4.8,7.3.2.2.4.3.2.5,2.1,11.9-10.5,30.2-18.4,38.9-6,4.6-13.6,7.1-21,8.1-1.2-.1-2.5.8-2.2,2.1-.7,2,1.4,3.5,3.2,3.1,12.84-3.41-.79,8.1,4.6,14,15.9-.7,39.1-.7,50.5-13.1,5.5-17.53-27.57-7-36.4-6.9,0-.6-.2-1.3-.6-1.6.4-.1.2-.4.6-.5-.3-.2.3-.7.7-.8,2.3,0,3.8-3.7,5.8-3.5,3.1-2.7,5.1-5.5,7.2-9h.2c1.1,1.1,2.9.5,3.3-.9,1.1-.7,1.9-1.7,2.6-2.8,2.5-1.1,4.4-2.5,5.2-5.2,6-.5,9.9-9.4,7.4-14.4,6.6,3.2,10.8-1.6,8.4-8.2h0Zm-15.9,7.4c0-.3.3-.1.3-.4.2.2.2-.1.4.1-.3.1-.5.2-.7.3h0Zm-115.2,169.2c-1.9-7.4-3-14.9-3.2-22.5,0-1-.7-1.6-1.4-1.8-.16-1.99.21-5.54-1.9-7-.9-5.7-2.6-13.5-3.6-19.1.4-.4.4-1,.8-1.4-.14-.97-.27-2.3-.2-3.2-.2-.1-.4-.2-.6-.2v-.5c-1.6-1.9-1.9-4.6-1-6.9-4.8-16.7-11.5-6.8-12.9,4.6-1.4,5.7-5.3,10.4-6.8,16-1,1.1-.2,14.2-1.7,9.7-.8.6-1.2-.4-1.2-1-.3-.1-.4-.3-.5-.5-.1,0-.1-.4-.2-.4-.29-.2-.64-.31-1-.3v-.4c-1.5-.2-2.5-2.1-4.2-2.4-.4.6-.5,1.5-.1,2.1-.6,5.1-2.9,10.6-7.5,13.5-.8.6-1.2,1.6-.8,2.6-.2,2.6-1.9,4.8-3.7,6.7-8.9,9.7-35.5,6.5-33.8-9.6-.2-.5-.4-1.6-.9-1.7-.24,3.11-1.73,6.55-2.3,9.5,3.38,6.29,8.33,13.8,15.4,15.4,4.43,2.41,9.47,3.49,14.5,3.1v-.2h.4s0,.1-.1.2c5.72.56,10.67-1.72,15.6-4.4.4-.8,1.1-1.4,1.7-2,.5,0,.7-.6,1-1-.3-1,1-1.3,1.3-2,.1,0-.1-.3,0-.3.46-1.17,1.08,1.03,2.9-.8,3.37-5.15,6.15-11.11,9.5-16.1-.03-.63-.36-1.32-.5-2,.9-.8,1.2-2.2.4-3.3,0-.7-.1-1.3.1-2,0,0-.1-.2-.1-.3-.6-.7,1.2-1.2,1.6-1.6-.2-.5-.4-.9-.7-1.3.3-1-.2-2.1-1.1-2.5.6-3.7.1-6.9,2.3-10.2.1,0,.2-1.5.3-.8,1.52-1.69,3.15-3.29,4.5-4.8.1-.1.1-.3.2-.3,0-.1.3-.2.3-.3v.5c.8.4-.1,1.5.1,2.2l-.2.1c.1.1.3,2.8.3,2.9.2.1.1.4.3.5,1.6,9.6,6.5,18.5,6.5,28.2-.78,6.23-1.57,12.7,3.1,17.7-4.4,6,.2,17.3,2.2,24.1.63-2.83,3.87-7.9,3.5-10.2,1.47-3.22,2.98-6.79,2.6-10.5,1.4-1,1.6-3,.8-3.8h0Zm187.5-20.6c-.8-1.4-1.8-2.2-2.7-3.6-1.7.6-3.9-4-4.4-5.5-.1,0,0-.6,0-.6-.6.3-1-1.9-1-2.6-.1-.1.3.2.2.1-2.75-12.23-8.46-11.74-19.4-10.9-14.6-.7-31.5-4.8-38.9-18.6-1.4-2.9-5-4.7-7.8-2.6v.2c-.6.3-.1.9-.1,1.4-.1.6-.5,1.5-1,1.8-.1.2-.2.2-.3.2,0,.2-.2.3-.2.5-.1,0-.1.1-.2.2-.9-.2-.8.8-.6,1.4.3,7.8,0,16.4-4,23.2,1.69.28.86,3.3-.3,3.8-.2.2-.5.2-.7.3-3.18,6.13.62,13.83-1.5,20.2-9.39,10.11-5.18-18.98-14-9.7-8.1,19.2,28.06,67.47,17.3,93.9-3.5,8.2-10.3,16.2-19.1,18.7-.9,0-1.1-1.2-.3-1.1,0-.1-.1-.2,0-.3-.2,0,.1-.1,0-.2-.1,0-.2,0-.3.1-1.3-2.4.3-5.3-1.1-7.8.4-3.5-.6-6.9-1-10.3.2,0,.3-.1.5-.1-.1-.7-.1-1.4-.1-2.1-5.9.9-10.7,5.2-16.4,6.9-32.1,5.06-6.82-53.98-27.6-72.8-.6,0-1.1,0-1.7.1.1,1.3.4,2.6.6,3.9h.1l2.7,10.9c-1.9,1.3-.7,4.3.7,5.3.1.7.2.2.2.8-.7-.1-.6.1-1.2.6,0,.2.5.3.5.4,1.3.4-.5,3-.2,4.2.5.4,1.1.8,1.5,1.3,2.11,21.97-4.08,42.75-12.4,62.7-2.3,1.2-2.6,4-3,6.3-.2-.2-.2.2-.4.1-.5,2.2-1.5,3.8-1.9,6,20.3-.2,41.9-1.7,60.5-10.6.1.2-.2.3-.3.5.6.2.5,1,.2,1,.2,0,.1.5-.2.6-.6.4-.6,1.3-.5,1.9.4.3,0,1.2.6,1,.33,4.52-.33,9.67.1,14.4-2.7,3-.3,7.6,2.9,4.1.6-.2,1.1.1,1.7-.2,6,.4,12.8-5.7,17.7-8.7,1.7-1,6.3-.7,5.4-3.6,3.3-1.1,5.1-4.1,7.5-6.3,0,0,0-.1-.1-.1,1.2-1,3.9-1.5,3.2-3.4.11-.12.25-.23.4-.3.45.14.56-.79,1.1-.7.5-.7.8-1.7,1.3-2.3-1.62-9.12.85-18.66-3-27.1-3.4-12.51-9.02-24.03-15.5-35.2-.3-.1-.6-1.4-.9-1.3-.7-1.4-1.5-2.7-2.2-4.1.4,0,.5.1.8-.2-3.29-8.71.75-18.66,1.4-27.7-4.93-19.96-2.1-17.01,3.8-35.1,1-.7.5-1,.7-2.6.3-2.3.7-4.8,1.9-6.8-.1-2.3-.1-5.5.5-7.6,0,.1.9.6,1,.6.4-.5.7.5.5,1.1.76.24,1.53.19,2.3.2.5.7,1.2,1.4,1.8,2v.1c-.7-.2-1.5-.1-2,.4,6.73,10.28,8.56,23.01,14.1,34.5,1.41.73,5.58,5,3.2,6.2,0,.4.3.9-.1,1.1,1.09,1,2.05,2.59,2.9,4,1.3.5,1.7,2.1,1.2,3.4,5,7,10,13.6,17.1,18.7-.3-2.2,3.2.4,3.9.9h.8c.5.5.6.1.8.8.92-.16,1.03.62,1.8,1,.4,0,.3.6.6.8,3.73,1.46,6.43,4.65,9.5,7.5,1.1-.1,4.9,3.6,4.8,4.7.3.3,1,.6.8,1.1,2.3,2.64,3.47,5.54,6.3,7.6v-.5c-1.3-.3-1-.7.4-.3.1-.5.1-2,.1-2.5.2,0,.2.4.4.4.3-2.2,1.2-4.6,2.6-6.1-15.4-8.7-16.1-32.8,2.5-38.6,0-.28-1.34-2.17-1.2-1.8.1.3.1-.7.4-.6,0-.1.1-.2.2-.2.3-.14.27-.82.5-1-2.6-4-4.5-7.5-6.7-11.8h0Zm-44.3,14c-.56-.22.69-2.59.7-2.9-.3,1-.5,1.9-.7,2.9h0Z"/>
      <path class="cls-19" d="m27.1,176.5c.97-16.72,50.35-13.37,49.1,3.2-1.01,16.72-50.22,13.38-49.1-3.2Z"/>
      <path class="cls-18" d="m357.5,304.8c35.93-.52,35.92-39.88,0-40.4-35.92.52-35.92,39.88,0,40.4Z"/>
      <path class="cls-17" d="m190.1,60.9c5.7-14,49.84,4.54,43.7,18.5-5.7,14-49.84-4.54-43.7-18.5Z"/>
      <path class="cls-16" d="m210.7,70.5c5.79-13.95,44.8,2.53,38.8,16.4-5.79,13.95-44.8-2.53-38.8-16.4Z"/>
      <g>
        <path class="cls-11" d="m68.9,699.4c.1,0,.1-.1,0,0-.1,0-.1-.1,0,0ZM186.9,91.8c-.18-.2-.02-.75-.3-.8-11.95-1.67-23.63,8.79-25.2,20.5-.16.75-.26,3.83.9,2.2,1.26-12.11,12.19-22.29,24.5-21.6,0-.2.2-.3.1-.3h0Zm-23.9,20.9c1.06,3.19,1.87,7.31,3.78,9.93,1.77-.27-1.01-4.38-1.07-5.53-.48-.8-1.7-6.32-2.7-4.4Zm4.7,6.1c.65-15.89,16.55-20.25,7.4-2.7-1.92,5.52,1.56,11.04,2,16.6,1.28,9.15.04,18.35-1.4,27.4.1,1.13-2.77,12.02-1,10,2.9-12.1,5.5-24.7,3.9-37.2-2.76-14.56-3.98-10.4.8-24.5-.14-7.6-8.67-4.7-10.1.8-.76.96-3.87,11.28-1.6,9.6h0Z"/>
        <path class="cls-11" d="m177.8,106.9c-1.36-4.99,1.82-10.31,6.7-11.9.37-3.03-6.59,2.3-6.7,3.9-1.23.88-2.16,9.73,0,8h0Zm48.7,2.4c1.07,12.86-14.95,16.93-11,33.7,4.35,17.2-1.11,35.42-4,52.4-2.35,11.82-2.31,17.82.8,1.3,1.82-9.82,4.52-21.89,5.9-31.7,1.66-9.89-2.08-19.44-1.7-29.3-.17-10.41,13.66-15.95,10.9-26.7-.1-.6-1-.3-.9.3Z"/>
        <path class="cls-11" d="m227.3,115.2c.07,4.37.97,9.24-1.4,13.4,1.64,5.42,7.09-14.88,5.4-16.9-.29-5.39-3.87-.62-1.3-1.5-.53-.13-.58.08-.3.3,1.02,6.24-.48,12.83-3.9,18.2l1.1.7c1.61-4.1,2.95-10.34.3-14.1.2-.2.1-.2.1-.1h0Zm-37.3,35.8c-4.6,7.21-3.32,15.88-2.3,23.9,1.31,11.63-10.04,23.9-2.5,34.8.3.3.8,0,.7-.4-5.1-11.04,3.88-21.7,3.6-32.8-1.25-8.65-2-17.09,1.1-25.4-.2-.2-.5-.3-.6-.1Z"/>
        <path class="cls-11" d="m184.3,207.1c.1.2.1.3.3.5l-.1-.2v.1l.1-.2c.16,1.79,3.79,2.29,5,1.1.56-1.27-1.26-.57-1.9-.6-.51.06-1.03-.1-1.5-.2-.47-.04-1.05-.76-1.5-.3l.3-.1c-.1,0-.2-.1-.3-.1-.3-.4-.5-.2-.4,0h0Zm5,.4c2.6-1.6,5.8-.4,8.7-1.3,5.47-1.97,6.85-8.69,7.1-13.9.14-5.81-5.24-8.76-10-10.6-.4-.2-1.9-.8-1.7-1.3-.59-2.06-2.69,1.14.7,2.3,3.44,1.81,8.29,3.2,9.3,7.5.73,4.96-.52,12.26-5.4,14.7-3,1.1-6.5-.1-9.2,2-.4.2.1.8.5.6h0Zm1.6-56.1s0,.1.1.1c-.07-.11-.03.25.1.2.1.1.1.2.2.2,1.09,1.75,4.75,1.21,1.6-.1-.15.03-.27-.08-.4-.1-.13-.11-.29-.15-.4-.3h-.1c-.21-.13-.43-.3-.6-.5-.2-.3-.7.1-.5.5h0Z"/>
        <path class="cls-11" d="m195.8,153.2c11.37-.93,14.15,10.34,9.6,18.9-2.59,4.92-7.73,3.24-12,4.2-1.3.7-2.3,2.1-1.7,3.6.2.5,1,.3.9-.2-.1-.7.4-1.4,1-1.8,2.23-1.37,4.72.07,7.2-.6,6.56-1.54,8.74-9.15,8.1-15.1.18-6.99-6.26-11.21-12.8-10-.9.1-.9,1-.3,1h0Z"/>
        <path class="cls-11" d="m200.3,152.7c2.56,1.28,15.74-6.08,12.6-8.1-2.92,2.26-5.57,5.21-9.3,6.3-.54.28-4.32,1.15-3.3,1.8h0Zm7.1,5.6c2.09-.83,9.51-3.92,8.5-6.4-1.42,0-2.93,2.11-4.2,2.7-.85.93-7.27,2.67-4.3,3.7h0Zm-18.9-5c-.29-.13-.56-.34-.9-.3l.5.4c-.9-.95-2.75-.53-3.9-1.3-1.21-.39-1.99-1.34-3.1-1.8-3.64,1.07,6.37,5.23,7,3.5l-.4.2c.3.01.76-.12.9-.4.1,0,0-.3-.1-.3h0Zm-1.5,8.4l-4.7-1.1c-1.37-.44-3.06-1.74-4.4-2.1-3.94,1.42,11.63,6.64,9.1,3.2h0Zm-25.3-55.2c-8.8,2.6-18-.2-26.9-.6-37.93-1.44-47.58,34.93-50.7,65.7-.63,3.43-1.56,6.86-2.2,10.3-.1.3.4.4.5.1,1.6-4.4,2.4-8.9,3.3-13.5,3.74-28.16,12.3-60.72,46.7-61.2,2.32.02,34.29,3.74,29.3-.8h0Z"/>
        <path class="cls-11" d="m113.5,111.7c-.83,1.45.33,4.55.3,6.2,0,0,.9,6.7.9,6.7,1.4,6.38,1.41,16.09,4.4,20.7-1.05-9.23-3.23-21.09-4.4-30.4-.31-.79.01-3.25-1.2-3.2h0Zm120.4.4c8.88.25,18.45-2.76,27.4-2.4,32.28.8,36.68,57.3,40.5,81.7,0,0,.3,3.4.3,3.4.1.7,1.1.7,1.1,0-2.02-25.27-6.84-65.84-27.6-82.5-10.97-7.61-26.44-2.64-38.6-1.4-.93.18-2.47.35-3.3.9.1.2.1.3.2.3Z"/>
        <path class="cls-11" d="m300.4,170c-.18,12.87,10.33,22.14,16.9,32,.77,2.49.5,6.07,3.1,7.5,1.4,0-.27-1.36-.5-1.9-.89-4.78-2.24-9.19-6.1-12.5-5-5.93-9.67-12.41-11.8-20-.57-1.18-.28-5.17-1.6-5.1h0Zm-21.9-54.2c-.92.54-.76,2.42-1,3.3-1.98,12.27-5.83,24.55-10.9,35.9,6.36-7.94,12.71-28.49,12.2-39.3-.2.1-.3.1-.3.1Zm-154.6,59.5c2.66,16.96-15.62,16.82-8.8,33.2-4.41,4.21-.05,8.22-.1,5.1-1.86-2.93,2.65-3.51,1.3-6.2-6.39-14.28,13.35-16.86,7.9-32.2-.1,0-.3,0-.3.1h0Z"/>
        <path class="cls-11" d="m122.2,189.2c-2.17,10.67,5.17,21.02,5.9,31.6.97,7.28-2.92,16.63,3.9,22v-1.2c-5.94,3.87.78,17.69,1.1,23.1,2.41,1.62-1.65-11.88-1.6-13.5-.5-2.5-1.6-6.7,1.2-8.3.5-.3.4-.9,0-1.2-5.89-4.95-2.16-13.65-3-20.2-1.41-10.93-6.59-20.96-7.2-32,.1-.4-.2-.5-.3-.3h0Zm19.6,42.5c-.12,14.41-5.53,27.97-10.1,41.4-6.81,21.4-12.2,43.98-14,66.4,1.05,1.8,1.4-1.75,1.5-2.5,1.8-13.53,4.26-27.27,7.5-40.5,4.45-21.85,15.7-42.4,15.5-65-.1-.1-.4-.1-.4.2h0Zm103-54.9c.1,0,.1-.1,0-.1s0,.1,0,.1Zm-71.1-4.4c-7.61,44.92,20.11,89.03,8.9,133.8-4.55,18.04-15.36,34.93-15.6,53.9-.14,1.77.15,7.89,2,4.6-1.56-19.2,8.78-36.27,14.2-54.1,14.05-46.16-15.1-91.72-9-138.2.2-.2-.4-.3-.5,0h0Z"/>
        <path class="cls-11" d="m117.4,338.4c10.61,15.56,29.75,26.05,48.5,27.2,2.01-1.61-4.31-1.65-5.3-2.1-16.89-2.85-31.87-12.66-43.1-25.3.1-.3-.2,0-.1.2h0Zm92.3-128.5c-3.48,34.53,3.58,56.24,13.5,88.3,4.47,19.45,5.09,39.45,4,59.3-.14,1.34-.65,6.5,1.4,3.7,2.86-29.7-.78-59.96-11.2-87.9-7.74-19.91-7.27-43.77-7.7-63.4h0Z"/>
        <path class="cls-11" d="m227.7,362.2c15.88-2.13,31.84-11.84,41.2-24.8.2-.4-.4-.8-.7-.6-4.58,4.35-8.62,9.11-14,12.6-7.31,5.22-15.48,8.86-24.1,11.1-.81.22-3.52.66-2.4,1.7h0Zm28.8-182.2c3.46,18.75-6.75,27.42-8.9,43.4-.5,4.5,1.57,8.45,2.6,12.7.21,11.44-5.62,23.21-.1,34.5.2.4.7.2.6-.2-1.64-6.06-2.31-12.34-1.4-18.6,3.07-10.69,1.89-16.4-.5-26.8,1.2-12.15,9.7-22.4,9.3-34.9.06-1.75,0-11.01-1.6-10.1h0Z"/>
        <path class="cls-11" d="m242.6,257.8c10.85,18.99,23,38.49,25.7,60.6,1,2.85-.35,18.91,2.5,17.7.6-22.12-5.91-43.67-17.8-62.3-2.33-4.1-7.35-12.19-10-16.1-.2-.4-.5-.2-.4.1h0Zm-1.2-3.3c-3.06-10.25-8.47-20.74-8.2-31.6-3.83,1.72,5.75,28.84,8.2,31.6h0Zm-74.8,15.7c-1.34,10.1-3.72,20.14-8.7,29.2-1.75,4.25-10.43,15.78-8.2,18.8,6.45-15.53,17.45-30.34,16.9-47.9.2-.2.1-.2,0-.1Zm1.8-114c-2.42,1.18-3.28,5.46.1,5.9,3.37.47,6.21-7.04,1.6-6.6-.3.1-.64.29-.7.6-.61.7.48,1.92.9.9.08-.29.02-.01-.2,0h.3c-.1,0,.1,0,.1,0,.1,0-.1-.1,0,0,.05,0,.15,0,.2,0,.1,0-.2-.1,0,0h.1c.1,0-.1-.1,0,0s.1,0,0,0c0,0,.1.1.1.2.1.1,0-.1,0,0v.1c0-.2,0,0,0,.1.02.32-.09.61-.2.9.08-.09.02.2-.1.2-.24.49-.81,1.53-1.1,1.5-.11.15-.27.19-.4.3q-.1,0-.2.1c-.27-.05-.51.12-.8-.1-.1,0-.1-.1-.2-.1l-.1-.1c-.1-.1,0,.1,0-.1,0,0,0-.1-.1-.1,0,0,0-.1-.1-.1,0,.1,0-.1,0,0-.12-.25-.11-.61-.1-.9.09-.7.96-1.76,1.4-2.5.2,0-.2-.5-.5-.2h0Z"/>
        <path class="cls-11" d="m167.8,203.2c-6.91,5.81,5.12,9.79,2,.7-.28-.9-1.71-.44-1.7.4-.29.65.59,1.55.9.7,0-.02,0-.57,0-.3.1-.1,0-.1-.1,0,0,0,.3-.1.1-.1h.2l-.9-.5c.38.96.69,1.94.4,3,0-.1,0,0,0,.1l-.4.4c.1-.1-.1,0-.1.1-.15.09-.31.12-.5.1.1,0-.1,0,0,0h-.2c.1,0-.1,0,0,0h-.2c.1,0,0,0-.1-.1-.91-1.06-.17-3.21.8-4.3.5.2.1-.3-.2-.2h0Zm4.8,46.6c.73-.22.28-1.06-.2-1.2-.6-.2-1.2.4-1.6.8-1.62,2.04.47,5.16,2.9,4.2,3.9-1.1,1.15-7.13-.9-3.9,0,.1.1-.2,0-.1-.47.39.08,1.83.6.9,0,.1,0-.1,0-.1,0,0,.1-.1,0-.1l.1-.1c-.11.09-.36.12-.5.1.14,0,.56,0,.7,0,.2,0-.1-.1,0,0,0,0,.1,0,.1.1q-.1-.1,0,0s0,.1.1.1l.1.1s0,.54,0,.3v.5c.1-.2,0,.2,0,0-.03.19-.12.2-.2.3.1-.1-.1.1,0,0-.18.28-.54.38-.6.5-.05,0-.29,0-.1,0-.2.1-.4.05-.6.2.1,0,.1-.1,0,0h-.2c.1,0-.2,0,0,0q-.1,0-.2-.1t0,0c-.05-.08-.22-.17-.3-.2.1.1.1,0,0,0l-.2-.2c.1.1.1,0,0,0-.08-.12-.05-.23-.2-.3-.02-.13-.13-.25-.1-.4,0,.1,0-.1,0,0v-.6c0,.1,0-.1,0,0,0-.21.01-.49.2-.6,0-.1.1-.2.2-.2l.2-.2h.1c.1-.1-.1.1,0,0-.22,0,.16,0,.2,0-.19,0,.05,0,.1,0q-.1,0,0,0s0-.54,0-.3c-.2.2,0,.6.3.5Zm4.4,37.8c-4.37-1.1-4.82,6.03-.4,5.8,2.58-.04,3.29-4.12,1.1-4.7-.57-.12-.59.46-.5.8,0-.1.1.2,0,.1q0,.1.1.2c.05.1.15.36.2.4v.1c0-.1,0-.2,0,0-.04.26.11.59-.1.8v.1c.1-.2,0,.1,0,0-.08.12-.05.23-.2.3l-.2.2s-.1,0-.1.1c.1,0-.1.1,0,0-.15.1-.25.06-.4.2h-.1c.2,0-.1,0,0,0h-.2c.1,0-.2,0,0,0-.18-.02-.4-.03-.5-.2-.1,0-.1-.1-.2-.1-.06-.06-.23-.23-.3-.3.1.1-.1-.1-.1-.1,0-.1-.1-.2-.1-.2.1.1,0-.1,0-.1,0-.1,0-.33,0-.5,0,.1,0-.2,0,0,.02-.11-.06-.4.1-.4.1-.2,0,.1,0,0s.1-.1.1-.2c.47-.72,1.22-1.11,2-1.3.1-.3.2-.9-.2-1h0Zm-10.6,41.9c.02-.24,0-.57-.2-.7,0-.1-.1-.2-.2-.2-1.81-1.23-3.42,1.42-2.8,3.1.64,3.36,6.02,2.7,5.4-.8-.48-2.01-2.5-1.69-1.5.5,0,.1,0-.2,0,0,0,.06,0,.24,0,.3,0,.2,0-.1,0,0s0,.2-.1.3c.04.14-.07.19-.1.3.1-.1,0,.1,0,0l-.2.2h.1s-.1,0-.1.1c-.1,0-.1.1-.2.1.2-.1-.1.1,0,0-.12.01-.22-.03-.4.1h-.4c-.15.02-.66-.08-.8-.3-.07-.07-.24-.24-.3-.3.1.1-.1-.1,0,0-.1-.1-.1-.2-.1-.2l-.1-.1c-.1-.2-.05-.4-.2-.6.05-.21-.12-.7.1-.8v-.1c0,.1,0,0,0-.1.11-.13.15-.29.3-.4.11-.03.16-.14.3-.1-.1,0,0,0,.1,0-.11,0,.25-.04.3.1h.1q-.1,0,0,0l.2.2c.5-.4.8-.4.8-.6Zm-36.8-152.6c-1.82,2.46-.52,6.76.5,9.5.64.98,1.52.46,1.3-.6-1.78-2.9-1.06-6.18-1.6-9.1-.1.2-.2.2-.2.2h0Z"/>
        <path class="cls-11" d="m133.2,186.8c-.8-1.24-3.89-.38-1.3.4,5.96.93,12.59.36,18.3-1.5,1.88-1.08,4.76-1.45,6.5-2.2,1.63-1.52.63-9.74,0-11.9-2.52-2.27-.37,6.48-.7,7.5.22,4.07-.09,2.52-3.2,3.7-4.21,1.92-8.98,2.81-13.6,3-2.22.24-5.84-.3-7.9.5l.2.4c.2-.5,1.1-.3,1.7.1.1,0,0,.1,0,0Z"/>
        <path class="cls-11" d="m130.9,175.3c1.35.62,4.11-.42,5.6-.5,0,0,6.2-.9,6.2-.9,3.56-.42,8.94-.51,12.4-1,4.41-3.35-24.05.56-24.1,2.1-.3.2-.2.3-.1.3h0Zm.5,13.1c-2.45,4.42,2.28,18.7,2.9,24.2.68,1.6.56,6.17,3.1,6.1,2.3-.25,5.79-1.45,8.1-1.9,24.21-4.71,11.76-8.27,10.2-30.5-3.82-4.02.87,13.56,1.1,15.2.66,3.61,4.13,9.75-1.3,11-5.72,1.56-11.6,2.92-17.4,4.5-.5.1-.9.3-1.2-.3-2.01-8.87-5.14-18.93-4.9-28.1.2-.5-.4-.5-.6-.2h0Zm93.2-19.8c-.65.81-.16,2.7-.3,3.7.24,1.97-.29,5.38.5,7.2,6.35,3.16,18.2,1.49,25.6,1.7.86.12,3.01-.31,2-1.4-2.27-.65-4.8.21-7.2,0-5.43.04-13.25-.08-18.6-.7-2.03-1.36.17-9.53-2-10.5h0Zm2.9-1.1c-1.48,2.26,17.59,2.18,19.5,2.7,2.84.57,7.96-.92,5.9,3.9-.3,1-.6,2.6.4,3.3,1.14.43.96-1.21.9-1.9,1.63-4.47.27-6.99-4.7-6.6-4.33-.33-17.18-1-21.3-1.5-.2-.2-.6-.2-.7.1h0Zm11,5.2h.5-.1l.1.1.2-.6c-4.37,1.95,1.49,7.75,3.3,3,.34-1.03-.57-3.02-1.8-2.3-.31.28-.27.84.1,1-.21-.12.15.12.2.2.1.1-.1-.1,0,0-.03.07.07.24.1.3,0-.1-.1,0,0,0-.04.48.16,1.08-.3,1.4-.08.02-.17-.05-.2.1,0,0-.2.1-.1,0h-.2c-.1.1-.1,0,0,0-.1.1-.3,0-.4,0,.1,0-.1,0,0,0-.13,0-.19.03-.3-.1-.17.06-.44-.24-.4-.1-.11,0-.18-.23-.3-.3.08.15.02-.2-.1-.2,0,0-.1-.2,0-.1,0-.1-.1-.2-.1-.2v-.1c0,.1,0-.1,0,0,.03-.23-.08-.5.1-.7.19-.14-.01-.33.2-.4.1-.34.44-.38.5-.7.1-.2-.1.1,0,0,.3-.4-.2-.8-.5-.4-.15.08-.33.12-.5.1-.1,0-.1-.2,0,0h0Z"/>
        <path class="cls-11" d="m228.4,180.9c.03-1.37-1.57-.42-1.7.4-.29,1.46-.39,3.89-.6,5.4-.44,4.98-1.51,14.11-1.9,19-.83,2.87.61,4.75,3.7,4.3,2.89.17,8.79.47,11.7.6,0,0,3,.2,3,.2,6.97.34,1.97-2.32-1.7-1.7-3.07-.19-11.22-.65-14.4-.8-.51-.01-1.16.07-.9-.7.32-4.31,1.07-12.23,1.5-16.6,0,0,.5-5.5.5-5.5.21-1.19-.09-3.7.8-4.6q0-.1-.2.2c.1-.1.2-.1.2-.2h0Zm23.1.6c.39-.77-.71-1.96-1.1-.8.3,4.57.33,9.35-.6,13.9-.42,2.24-1.53,8.04-2,10.2-.09,1.03-1.48,5.06.8,3.8,1.82-8.69,4.75-19.1,2.8-28l-.1.5.1-.1h-.3c0,.15.31.7.4.5h0Zm6.9,4.2c-4.87,2.04,18.14,9.86,20,12.8-2.81-6.31-14.13-8.03-19.9-12.4l.4.3c-.1-.2-.2-.8-.5-.7h0Z"/>
        <path class="cls-11" d="m258.7,188c4.39,3.86,9.15,8.24,13.1,12.6,4.76,1.24-13.5-15.83-13.1-12.6h0Z"/>
        <path class="cls-11" d="m258.2,187.6c1.83,2.36,4.52,5.37,5.7,8.1,3.57,5.49,7.15,41.29,18.1,29.1.33-2.75-6.03,1.7-5.3,2.9,0,0,1.8,3.5,1.8,3.5.41.81,1.98.08,2.6,0l-.6-1.4c-6.45,3.59,3.79,11.72,3.2,8.3-1.95-1.42-5.6-4.55-2.7-6.8.9-.4.6-1.7-.4-1.5l-1.7.4.9.4-1.8-3.5-.1.9c1.1-1.1,2.4-2,3.8-2.7l-1.1-.9c-8.88,7.8-11.64-24.89-15.4-29.4-.76-1.62-5.71-8.96-7-7.4h0Z"/>
        <path class="cls-11" d="m282.9,241.2c2.2-5.85,3.82-12.47,8.7-17,7.01-7.21,18.13-13.38,28.3-11.4.5.3,1.1-.4.7-.9-6.24-3.54-14.4,1.11-20.4,3.7-8.96,4.93-18.03,14.92-17.4,25.5,0,.1.1.1.1.1h0Z"/>
        <path class="cls-11" d="m320.6,210.7c-3.06,1.2,6.81,10.22,7.7,12.8,2.81,3.23,4.04,8.34,7.6,10.7.4.2.7-.4.6-.7-4.7-7.69-9.79-15.37-15.7-22.2l.2.7c.1-.5-.1-.8-.2-1.2.1-.2-.1-.2-.2-.1h0Zm-37.1,31.1c3.2,5.46,9.2,11.4,13.1,16.5.9,1.1,2.9,3.4,4.4,1.9.2-.2.1-.5-.1-.6-1.68-.69-2.93-1.86-4-3.3-2.09-2.52-6.35-7.53-8.5-10-.75-.59-4.39-5.83-4.9-4.5Zm16.6,16.9c1.61-.27,2.3-2.55,3.5-3.5,3.58-3.75,7.9-7.73,12.7-9.7,2.06-2.49-4.58.13-5.1,1.2-4.2,3.1-9.65,6.93-11.3,11.9.1,0,.1.1.2.1h0Z"/>
        <path class="cls-11" d="m314.3,221c.1-.5.2-.9.4-1.4l-1-.3c-.31,1.82-.62,29.4,3.1,24.6.1-.3-.1-.5-.4-.5-1.42-6.8-1.41-16.58-1.8-24.1-.1-.7-1.1-.4-1,.3.1.36.08,2.16.7,1.4Z"/>
        <path class="cls-11" d="m316.8,224.9c-5.82-3.18,3.89,11.5,4.6,12.7,1.06,2.38,3.17,1.98,1.4-.5-2.07-4.02-5.47-8.24-6.8-12.6l-.1.6c.3-.07,1.11.68.9-.2h0Z"/>
        <path class="cls-11" d="m323.6,239.1c3.06-2.28,6.64-3.53,10.3-4.3,1.71-3.96-13.51,3.05-10.3,4.3Zm-40.7-88.1c-3.71,4.18-7.61,9.94-11,14.4-1.47,1.46-.58,3.93,1.6,3.6,1.05.02,1.89-.86,3-.7.3.1.6-.3.3-.5-2.25-1.53-6.61,1.87-2.8-3.1,1.24-1.63,4.39-6.16,5.6-7.9.56-1.1,4.51-5.4,3.3-5.8ZM.6,149.1c7.79,10.58,18.16,20.3,29.1,27.6,2.05-.2-1.85-2.78-2.4-3.4-9.68-7.22-17.8-16.33-26.2-24.9-.2.1-.6.3-.5.7Zm11.9-2.8c1.86,3.72,6.35,7.91,9,11.1,3.37,3.37,7.93,17.39,12.1,16.5-6.37-8.16-9.93-17.94-17.9-24.9-.73-.43-2.96-4.74-3.2-2.7Zm16.9-1.1c1.46,9.21,4.43,19.62,7,28.6.8,1.8,1.9,3.4,4,3.8.6.1.9-.8.3-1-5.7-1.21-7.91-31.72-11.3-31.4Zm16.8,3.6c.66,9.1.39,18.68,1.2,27.8.1.79.82,5.61,1.8,3.2-.12-1.75-.45-4.31-.6-6.1-1-4.92,1.24-23.36-2.4-24.9Zm1.6-.3c9.72,3.58,4.11,7.4,6.4,14.5,1.09,1.88,1.88,4.46,1.5,6.6.05,3.19,2.9,6.3,2.5,9.6,0,.5.6.5.8.1,1.2-3.25-1.6-6.12-2-9.2.02-2.29.21-4.74-1.2-6.8-2.5-4.32,2.04-11.08-3.5-13.9-.87-.35-4.39-2.34-4.5-.9Z"/>
        <path class="cls-11" d="m31.2,144.6c3.02,2.24,8.28.92,9.2,5.9-.03,5.54,2.76,10.08,3.6,15.4,1.24,3.51,3.19,3.41,1.2-.5-.23-3.2-1.46-6.19-2.8-9-.18-8.4-2.22-11.56-10.9-12.3-.3.2-.4.4-.3.5h0Zm-17,.5l.2-.4h-.2c1.39.67,4.2,0,5.8.3,6.8,0,5.49,9.57,10.9,11.3,1.2-.39-.68-1.58-1-2-2.21-2.52-2.69-6.17-5.1-8.5-.91-2.14-11.78-3.09-10.6-.7Zm-11.7,2.9c6.5-5.02,12.29,8.47,13.9,5.3-3.2-3.24-10.16-11.61-14.2-5.5.1.1.2.2.3.2h0Zm26.1-14.2c.51,1.33,1.58,3.13,2.3,4.4.72.85,2.64,7.43,3.4,4-.53-.95-4.72-10.78-5.7-8.4Z"/>
        <path class="cls-11" d="m29.3,134c14.78-2.43,6.15,10.07,15.4,13.9,1.26-.14-.16-1.35-.6-1.8-3.17-2.21-3.17-6.12-4-9.5-.61-5.03-13.56-4.8-10.8-2.6h0Zm29.7,32.4c3.89,8.36,14.7,8.79,18.1,15.2,3.5,9.07,2.68,24.39-9.5,25.5-4.07-.05-7.05-3.37-11.1-3.8-1.6-.1-3.2.2-4.8-.5-2.6-1.1-4.5-3.5-6.1-5.7-3.15-.5,5.84,8.36,8.1,7.4,4.64-.45,7.93,2.62,12.2,3.7,12.91,1.33,16.55-14.43,13.4-24.3-1.52-9.51-13.71-9.28-19.8-18-.3,0-.7.2-.5.5Zm-27.1,11.7c3.61,5.87,9.42,11.41,12.2,17.8,1.85-2.72-9.1-15.5-11.8-18.1-.3,0-.5.1-.4.3h0Z"/>
        <path class="cls-11" d="m49.9,202.6c-2.87,4.57,2.84,10.91,4.6,15.2.59.65,3.07,6.13,3.8,4.7-2.28-6.61-7.93-12.66-8.2-19.8,0-.1-.1-.1-.2-.1h0Z"/>
        <path class="cls-11" d="m53.1,215.7c1.61,3.91-.91,7.35-1.2,11.1,6.56,18.56,35.76,27.5,49,11,.3-2.6-2.86.94-3.4,1.3-14.13,11.86-36.94,3.52-44.2-12.2.1-3.85,3.08-7.99.6-11.8-.3-.1-.9.2-.8.6h0Zm39,4.5c4.82,4.25,7.67,9.95,9.7,15.9,3.93-.41-8.22-20.1-9.7-15.9Zm-10.6-25.8c1.47,2.79,4.4,5.47,4.8,9,.85,2.68.59,18.06,4.2,16.3-3.98-7.67-.06-21.02-9-25.3h0Z"/>
        <path class="cls-11" d="m87.7,210.5c-3.05,4.31,12.54-5.24,13.2-5.8.84-3.21-11.72,5.71-13.2,5.9l.3.2-.1.2c.4-.1.1-.6-.2-.5h0Z"/>
        <path class="cls-11" d="m100.8,204.8c4.84,3.2,9.41,7.46,11.8,12.8.33.66.6,1.64,1.3,2,2.29.83-.53-4.27-1-5-.5-2.18-11.79-13.72-12.1-9.8Z"/>
        <path class="cls-11" d="m114.4,218.4c-1.37.18-2.1,2.65-2.9,3.6-1.38,2.21-4.14,6.68-5.5,8.9-4.18,6.22-1.93,6.99,1.3.6,1.99-3.89,5.77-8.92,7.3-12.9,0,.1-.1-.2-.2-.2h0Zm-17.5-7.6c-4.67.64-1.21,7.45,2.15,4.32,1.02-1.09.68-3.46-.85-3.92-.77.04-.75.92-.2,1.2,0,0,0,.1.1.1.1.1-.1-.1,0,0,.08.12.05.23.2.3,0-.1-.1,0,0,0q0,.1.1.2c0,.08,0,.14,0,.4-.02.18.08.36-.1.5.1-.1,0,.1,0,0,0,0,0,.1-.1.1,0,0,0,.1-.1.1,0,0-.1.2-.2.2l-.1.1s-.42,0-.2,0c-.12.16-.96.09-.8.1l-.4-.1c.1.1-.1,0,0,0,0,0-.1,0-.1-.1-.19-.03-.2-.12-.3-.2-.1,0-.1-.1-.2-.2.1.1-.1-.1,0,0-.01-.12-.07-.04-.2-.2v-.1c0,.2.04-.14-.1-.2v-.1c0,.14,0-.35,0-.4,0,.21-.04-.34.1-.4v-.1c-.12.3.06-.34.1-.3,0,0,0-.1.1-.1.07-.07.24-.24.3-.3-.1.1.2-.1.1-.1.1-.1-.1.1,0,0s.3-.1.4-.2c1,0,.7-.6.3-.6h0Zm-10.8-10.7c.94-1.55,1.61-3.57,2.6-5.1-.57-2.66-4.61-4.03-7-5.1-3.72.64,5.33,3.77,5.9,5.3l-.1-.8c-.31.38-2.62,6.81-1.4,5.7h0Zm118,61.5c-2.61,5.29,2.45,12.09,4.5,17,1.68,1.73,3.65,14.41,5,12.9-.35-10.8-9.55-19.37-9.5-29.9Z"/>
        <path class="cls-11" d="m203.8,262.9c-1.82,6.38-.62,14.37,2.3,20.4.1.2.5.1.4-.2-1-3.3-1.9-6.8-2.3-10.2-.65-3.28.28-6.81-.2-10,0-.1-.2-.1-.2,0h0Zm-23.5,64.9c16.49,4.6,36.17-.02,50.4-9.3.75-2.9-8.08,3.52-9.6,3.6-12.87,5.91-27.09,6.35-40.9,5.7.1-.2.1,0,.1,0Zm-.8,7.5c-.7-.2-1.5-.3-2.1-.7l-.4.6c16.1,2.58,34.25,2.94,49-5,1.08-.59,6.14-3.33,3.9-4.1-15.73,10.41-34.87,9.18-52.8,8.4-.99,1.03,1.75.56,2.3,1,.2.1.3-.1.1-.2h0Z"/>
        <path class="cls-11" d="m187.8,338.1c-.1-.5.2-.9.5-1.3l-.9-.4c-.72,6.99-.8,15.75-1.3,22.8.1,1.05-.54,2.28.4,3.1.7.4,1.7-.4,1.2-1-.45-.57-1.34.15-.8.6l-.1-.4v.1l.2-.3-.1.1.4-.1c.39.58.16.08.2-.2.14-5.47.58-12.59.7-18.1-.25-.12.87-8.78-.8-6.6-.2.34,0,2.26.4,1.7Zm1.6,24.4c0-.5-.7-.5-.9-.1-.16,2.34,5.8-.15,7.3,0,3.87.14,2.63-4.3,2.6-6.7-.09-3.93-.21-10.66.5-14.5.82-2.59-1.06-3.57-1.3-.5-.27,1.17-.52,4.55-.6,5.8-.77,18.34,4.2,12.64-8,16.3-.1,0,.4,0,.4-.3Zm-96.3-200.8c-.68,11.03,6.61,20.9,11.2,30.5,1.03,1.17,3.66,9.95,4.8,8.2-3.87-13.34-14.35-25.07-16-38.7h0Zm2.2,26.1c2.36,4.09,5.75,8.28,9.9,10.6,1.59-.44-1.73-2.38-2.1-3-1.49-1.43-3.68-3.45-4.9-5.1-.21-.07-2.88-4.17-2.9-2.5h0Zm207.6,71.8c.39.89,1.79,1.43,2.5,2,9.28,5.84,17.26,13.97,23.2,23.1,3.2.59-2.52-5.62-3.1-6.7-6.12-7.44-13.52-15.25-22.6-18.6v.2Zm31.5-22.8c4.31,9.99,8.44,15.26,17.4,21.4,1.52.43,5.52,6.61,6.2,4.6-3.3-5.8-10.51-8.57-14.9-13.5-3.86-3.52-4.47-9.47-8.6-12.5,0-.1-.1-.1-.1,0h0Zm26.1,26.6c11.25-2.04,25.58-4.91,37-6.2,1.6-.1,3.9.4,3.5,2.5-1.11,4.26-6.37,5.5-9.9,7.2-2.18,1.33-17.28,5.89-15.7,7.5,8.6-4.03,20.47-5.21,26.5-13.1,2.27-4.95-3.76-6.27-7.4-5.1-8.01,1-17.12,2.73-25.1,4.4-1.64.65-9.4,1.38-8.9,2.8h0Z"/>
        <path class="cls-11" d="m372.4,271.8c.33,1.25,2.55,2.42,3.3,3.5,4.16,3.53,5.38,9.19,8.9,13,2.53-.5-10.03-18.91-12.2-16.5Zm-43.2,7.6c-1.09,6.22,2.59,12.75,6.9,17.1.7.6,1.7-.4,1-1-2.2-2.1-4-4.7-5.3-7.5-1.4-2.7-1.52-5.92-2.5-8.7.1-.1-.1-.1-.1.1Zm15.2,16.3q0-.1,0,0v-.1h-.1s0,.1-.1.1v.2h.2q.1-.1,0-.2c.1.1.1,0,0,0Z"/>
        <path class="cls-11" d="m344.2,296.1c3.75-.34,9.24-2.26,13-2.9,4.49-.73,9.34-.82,13.8-1.8,2.17-.56,5.44-1.1,7.4-2.2.24-1.04-2.69.12-3.4.2-9.75,2.82-21.69,1.88-30.8,6.7h0Zm5.3-27.6c-2,3.66,9.41,11.93,12.8,13.3l.2-.7c-2.88.21-8.71.43-9.8,2.9,3.2-1.17,6.37-2.16,9.8-2.1.4,0,.5-.5.2-.7-5.3-2.62-11.5-7.16-13.2-12.7Zm-.1,33.5c-3.51.82-2.41,6.9.9,7.6,5.6,1.84,7.06-5.88,2.6-8.2-.73-.37-1.75-.99-2.6-.7-.88.51.45.77.8.9,3.71.7,4.76,7.52,0,6.9-3.41-.5-3.56-4.18-1.8-6.4.1,0,.1-.1.1-.1h0Zm17.3,2.9c4.08-1.64,8.03,4.93,8.6,8.2-.66,2.08-3.57,1.51-5.2,1.1-2.81-.45-6.08-7.03-7.9-8.9-8.93-10.97-8.37-7.73-.3,1.2,3.05,3.19,4.6,9.03,9.8,8.9,2.76.73,5.86-1.56,4.1-4.4-1.56-3.02-5.59-10.06-9.5-6.6-.1.4.2.6.4.5Z"/>
        <path class="cls-11" d="m366.3,296.5v.1c-.61.99,2.44,8.34,3.6,6.9-.61-1.9-2.1-3.36-2.5-5.4-.15-.51-.42-1.29-.7-1.7-.1-.1-.4-.1-.4.1h0Zm11.5,17.9c.45,1.23,2.6,1.98,3.5,2.8,8.47,7.08,10.91-5.1,3.9-9.2-3.08-.72-5.04-2.79-6.8-5.3-1.96-2.47-4.67-5.97-5.9-8.9-2.64-.52,2.59,6.44,3.3,7.3,1.61,1.84,3.57,5.14,5.5,6.6,2.42.82,4.83,1.8,5.9,4.3,1.35,2,1.68,5.56-1.1,6.3-3.11.22-5.37-3.76-8.3-3.9,0-.1,0-.2,0,0h0Zm3.4-10.6v-.3h-.1v.3c-.1,0,0,0,.1,0Zm.1-.3c2.92,3.63,9.76,7.51,13.4,10.6,3.12,1.87,6.25,6.09,10.2,5.8,3.76-.94,3.53-5.82,1.7-8.4-2.01-4.37-6.63-5.62-10.4-7.9-2.69-3.33-1.5-4.76-6.3-6.6-2.08-2.05-2.38-5.56-5.2-7-.6-.3-1.1.5-.5.9,3.61,3.54,2.75,7.1,8.4,9.2,1.22,5.67,7.32,5.82,10.8,9.5,2.01,2.06,4.56,6.2,1.9,8.7-3.4,1.59-6.61-3.22-9.4-4.6-2.38-1.75-8.59-6.23-10.9-7.9-1.1-1.1-2.3-2.2-3.7-2.3h0Zm-39.1-4.4c.1,0,.1.1.1.1l-.1-.3c-.07,1.1,1.29,2.57,1.7,3.6.59.63,1.6,4.12,2.6,3.2.13-.88-.9-1.9-1.2-2.7-.54-.94-1.66-3.27-2.3-4.1-.59-.74-1.54.43-.6.4,0,0-.1-.2-.2-.2h0Zm11.9-3.4c-.34,1.03,1.29,9.65,2.8,7.9-.18-1.29-1.13-2.48-1.3-3.8-.42-.64-.23-5.48-1.5-4.1h0Zm-22.3-19.1c2.98-4.49,7.33-7.98,12.4-9.9-4.46-.33-10.75,5.14-12.8,9.7.1.2.3.3.4.2h0Zm-211.5,65.1c-18.93,27.53-19.81,75.86-23.8,108.8-.89,10.29-1.74,20.83-6.6,30.2-2,4.1-4.7,8.7-4,13.4-.14,1.11,1.61,5.03,2.3,2.6-2.53-7.25,3.02-13.44,5.4-19.9,2.79-7.18,3.65-14.88,4.3-22.5,3.23-37.12,6.51-81.44,22.4-112.6h0Zm149.7-.7c17.25,48.47-11.72,111.8-15.1,162.1-.24,11.44,2.01-.56,1.9-3.9,2.74-39.78,34.3-127.76,13.2-158.2h0Zm-185.4,155.4c-2.45,15.04-.98,37.5-.9,52.9.28,25.07-.8,50.65-3.2,75.6-.96,7.08.03,12.89,1.4,1.2,4.59-42.19,3.87-89.68,2.7-129.7Zm-12.9,147.1c4.25-2.35,6.87-8.02,12.3-8,9.61.59,20.85,11.24,19,21-.98.68-5.59,6.79-2.4,5.9.97-1.79,2.24-3.55,3.8-4.9,4.3-13.18-18.23-32.1-28.8-19,.09.24-6.37,5.61-3.9,5h0Zm-.6.7c-5.34,1.3-13.78,8.04-10.1,14,4.96,3.48,12.07,3.35,16,8.7,4.02,5.08,7.39,16.36,14.9,8,2.2-2.1,4.3-4.3,6.3-6.6.59-4.6-5.23,3.6-6.4,4.3-9.86,11.83-9.34-9.49-22.5-12.4-11.73-1.49-9.03-8.43-1.2-13.6.65-.7,4.15-1.31,3-2.4Z"/>
        <path class="cls-11" d="m97.4,667.3c6.1-5.47-17.18-23.29-23-22.8-2.92,1.69,4.72,2.34,5.6,3.4,6.75,3.65,12.26,9.4,16.9,15.4,1.27,1.21-1.09,4.22.5,4h0Zm-28.3-18.4c8.29,2.86,15.96,7.81,20.6,15.6,2.17.47-1.71-4.08-2.2-4.8-3.6-4.37-13.13-11.93-18.4-10.8Zm35,3.3c2.25,1.32,16.35-8.23,13-9.6-3.27,3-6.8,6.21-10.9,8.1-.4.2-1.3.8-1.8.7-.5-.3-.9.5-.3.8h0Zm17.5-10.2c-2.94-.18-.35,8.21-.6,9.9.87,1.6-1.34,17.41,1.6,13.2.97-7.64-.77-15.28-.9-22.8-.1-.1-.1-.2,0-.1.2,0,.1-.2-.1-.2h0Z"/>
        <path class="cls-11" d="m121.6,664c-8.22,13.01-18.45,8.9-26.3,18.7-6.62,9.3-13.26,19.54-24.6,23.5-12.9,4.6-33.92,6.4-36.4-11.4-.17-1.16-1.34-4.93-2.2-2.1,2.18,19.23,20.09,20.39,35.4,16.2,12-2.91,20.37-12.42,26.9-22.4,3.75-7.75,11.88-8.98,18.8-12.4,3.25-2.29,8.85-6.29,8.4-10.1h0Zm-.5-7.5c-9.21,15.39-14.44,11.57-26.8,19.1-11.49,19.59-31.89,37.37-55.3,24.5-.8-.4-1.5.7-.7,1.2,11.89,7.48,27.85,5.03,38.9-3,9.11-5.3,12.48-16.26,20-22.9,9.6-3.67,21.48-7.36,24.5-18.6-.1-.3-.5-.5-.6-.3h0Zm-37.4,20c-4.69,3.81-8.55,8.75-13.9,11.9-9.77,6.83-27.19,9.15-34.7-1.8.92-8.52,9.42-14.03,14.9-19.9,10.2-8.14,11.73-12.1-.3-1.7-14.59,12.25-27.23,27.58,1.2,30.8,13.17.43,24.65-8.17,32.7-17.9.34-.35.93-1.69.1-1.4h0Zm-2.8-3.2c-9.76,7.47-21.78,18.04-35.1,14.7,6.8,6.93,30.05-7,35.5-14.2,0-.4-.2-.6-.4-.5h0Zm117.5-16.3c4.55-9.1,14.21-15.7,24.6-14.7,5.14.23,11,2.23,11.5,8.2.44,2,1.77,6.77,2.2,8.7.07.51.71,1.7.1,1.9-9.89-5.05-21.26-2.27-29,5.4-1.86,1.18-3.06,4.11-5.2,4.5-2.15-2.7-2.83-6.64-2.9-10,0-.8-1.1-.8-1.2,0-.48,4.07,2.13,15.93,7.4,9.5,7.46-8.59,19.46-13.83,30.2-8,.8.3,1.7.2,2.3-.4,1.03-3.24-2.84-16.98-6.1-18.7-12.18-6.68-30.17.11-34.4,13.4-.3.3.3.5.5.2h0Z"/>
        <path class="cls-11" d="m235.4,652.4c-4.89-7.1-17.67-3.81-22.7,1.7,5.1-2.82,13.74-6.43,20.1-2.9.74.25,2.26,2.44,2.6,1.2h0Zm-6.3-11.3c.11-17.55-24.21-13.35-30.7-1.9-1.53,2.09-2.37,13.86.8,13.9,1.41-.12.2-1.37-.6-1.6l.4.6c.1-3.7-1.2-7.4.1-11,3.81-7.77,16.67-13.92,24.5-8.7,3.41,1.86,3.36,8.21,5.5,8.7h0Zm7.4,21.2c.08,2.85,2.84,6.95,3.8,9.7,2.19,4.87,6.66,14.65,8.9,19.5,6.55,8.76-6.34,14.74-13.9,12.9-5.9-1-10.9-4.6-15.3-8.5-4.94-4.39-9.25-9.77-11.2-16.2-3.72-2.31,1.5,8.12,2.5,8.9,5.57,7.45,12.87,14.4,22,17,9.89,3.27,25.1-4.84,16.9-16-4.22-8.41-8.25-19.91-13.4-27.7-.1.1-.3.2-.3.4h0Zm-27.4,5.4h-.7v.1c.3-.1.5-.1.7-.1Z"/>
        <path class="cls-11" d="m209.1,667.8c.1,0,.1-.2,0-.2s-.1.2,0,.2Z"/>
        <path class="cls-11" d="m209.1,667.7c.78,14.3,15.4,37.63,32,31.1.5-.3,0-1.2-.5-.9-16.83,5.96-28.32-16.91-31.5-30.2.1-.2,0-.1,0,0h0Zm-4.2,3.3c-.18,1.2,1,6.75,2.5,5.2-.57-.71-1.56-7.83-2.5-5.2h0Zm46.6,25.4c-.41,6.88,1.68,15.7-4.2,20.9-9.81,5.71-23.15,3.59-32.3-2.4-21.1-14.07-8.58-30.58-24.4-46-5.87-7.92-7.4-18.53-4.3-27.8-2.11-3.02-3.7,11.3-3,12.7.36,9.79,6.93,16.89,12.4,24.3,4.79,14.33,2.25,26.24,16.7,36.8,17.73,12.94,48.19,9.52,39.4-18.6-.1,0-.3,0-.3.1Z"/>
        <path class="cls-11" d="m251.2,709.4c-11.57,7.79-28.13,7.62-38.1-2.8-14.5-15.68-2.05-24.76-21.2-43-2.02-2.77-3.8-6.09-3.8-9.6-2.46-1.97.32,7.35,1.3,8.2,21.87,24.51,6.7,25.45,21.4,44.5,9.44,11.02,26.87,13.18,38.9,5.2.72-.31,3.13-2.36,1.5-2.5h0Zm-52.3-57.7c-3.57-3.61-7.2-8.11-9.1-12.9-4.85-1.3,5.8,13.47,8.2,13.5.99.69,1.98-.78.7-.8,0,0,0,.3.2.2Zm-6.2-273.6c-10.07,4.8-17.52,38.95-22.3,50.4-8.45,26.38-18.01,59.39-29.5,84.5,0,0-1.5,3.4-1.5,3.4-.5,1,1.1,1.9,1.5.9,18.7-39.58,27.92-84.53,44.1-125.1,1.37-3.12,3.05-8.95,5.7-11.3.59-.96,4.12-1.96,2-2.8h0Zm1.1,3.8c3.84,7.75,1.91,16.78,2.1,25.1-.12,20.53.19,49.9,1.1,70.3.15,6.45,1.19,13.14-.8,19.4-3.41,6.66-5.89,14.09-1,20.8.3.4.9.2.8-.3-4.78-9.97.82-15.01,2.7-24.3.91-7.59-.36-19.42-.4-27.2-.43-16.63-1.11-39.94-.8-56.4-.35-8.27,1.72-20.72-2.9-28.1-.3-.3-1.1.2-.8.7h0Zm-33.2,64.6c-5.98,15.23-18.69,27.8-22.7,43.8,2.76-4.06,5.21-12.37,8.9-17.4,4.41-8.12,13.25-18.23,13.8-26.4h0Z"/>
        <path class="cls-11" d="m193.8,514.3c-5.3,5.74-2.8,15.11-3,22.3.89,15.72.83,38.59.7,54.6-.29,7.36.1,18.59-1.7,25.7-1.02,6.61-9.19,13.65-3.8,20.1.39.62,2.74,1.82,2,.4-6.76-5.16,1.28-13.01,2.7-18.9,2.25-8.04,1.99-16.45,2.3-24.7.32-18.92.11-46.98-1-65.8-.13-4.05.07-8.32,2.1-11.9.24-.56.55-1.9-.3-1.8h0Zm63.8-7.1c-.46,4.03-1.33,7.86-3.8,11.2-.3.5.1,1.1.6,1.1,1.3,0,1.9,1.2,2,2.3-.66,5.67-6.24,7.37-4.7,14.7-.43,7.3-6.31,16.58-8.4,23.6-2.8,8-5.2,16.1-7.1,24.3-3.77,16.41-5.67,33.46-5.3,50.3-.09,1.15.11,5.04,1.3,3.1-.47-25.91,3.09-52.09,12.1-76.5,3.35-10.17,9.74-19.42,9-30.5,1.02-3.14,4.66-5.22,4.4-8.8-.09-1.9-1.3-4.28-3.5-4.1l.6,1.1c2.3-3.3,4-7.9,3.2-12,.3-.1-.3-.1-.4.2h0Zm-10.6,14.3c-8.63,5.76-18.88,7.8-29.1,6.6-1.25,1.61,5.21,1.31,6.2,1.5,7.23-.22,19.17-2.28,22.9-8.1h0Zm-2.4,10.4c-5.15,4.58-11.58,9.28-17.5,12.9-.3.2,0,.5.2.4,6.28-2.98,12.99-7.69,17.5-13,.3-.1.1-.4-.2-.3h0Zm-104.1-11.3c3.98.9,2.71,4.47,2.1,7.3,2.13,6.24,1.31,12.67-1,18.8-6.5,19.98-13.8,40.18-13.4,61.4-.22,4.34,1.49,9.24-.4,13.3-1,1.7-3.5,2.4-3.1,4.8,9.46,26.62-4.08,8.5-17.3,14.5-.99.42-5.78,1.89-3,2.7,3.64-1.27,7.49-2.99,11.4-2.6,14.96,5.54,15.78-1.43,10.7-13.8-1.57-2.86,3.78-4.1,3.6-8.1-.65-13.08-.31-26.05,3-38.8,2.7-15.97,11.96-30.68,12.4-46.9-.14-2.49-2.07-5.06-.9-7.5,2.31-4.85-6.12-8.62-4.1-5.1h0Zm37.2-122.6c-6.53-3.79-13.77-8.24-19.9-12.7-4.71-.25,22.24,17.27,19.9,12.7h0Zm-19.6,1c4.9,1.68,11.19,3.74,14.2,7.7-3.03.03-9.96-.02-13.1,0,.12.27-12.48-.55-9.4,1.2,0,0,9.4.2,9.4.2,1.63-.02,10.16.01,11.6,0,11.03-.66-11.45-11.56-12.7-9.1Zm42.2-16.2c6.95-2.91,14.55-7.35,21-11.3.15-1.94-9.63,4.65-11,5-2.8,1.8-7.69,3.79-10.1,6-.3,0-.1.3.1.3Zm24.1,4.6c-1.19-.3-3.11.42-4.3.6-5.86,1.52-12.13.06-17.9.9-4.82,4.61,10.72,8.13,13.5,9.3.82.18,4.16.97,2.9-.5,0,0-4-1.3-4-1.3-2.98-1.21-10.44-2.68-11.9-5.5.09-1.94,3.36-.52,4.6-.8,5.47-.04,11.97-.27,17-2.5.3,0,.2-.2.1-.2h0Zm-21.1,23.1c7.66,6.07,15.35,12.42,22.5,19.1,2.51-.74-22.27-22.25-22.5-19.1Zm70-59.5c.72-.08-2.07,2.01-2.3,2.3-2.41,1.98-6.07,4.7-8.6,6.5-6.3,5.31,6.89-2.76,7.8-4.2.98-1.2,5.43-3.21,3.8-5-.42-.48-1.38.4-.7.4Zm1.6,11.9c-4.34,7.09-9.3,15.12-14.4,21.8.26,2.88,7.73-9.32,8.5-10.1.32-.87,8.53-12.78,5.9-11.7Zm-140.4,153.9c-9.34-10.08-11.15-7.61-.3.4.2.1.5-.2.3-.4Zm-.2,5.4c-.78,1.8-9.06,4.38-7.4,5.3,1.32.21,9.93-4.72,7.4-5.3h0ZM219.8,13.5c-23.67-11.29-22.83,23.06-32.1,18.8-2.25.33,2.11,2.27,3,1.5,4.02-1.25,5.22-6.5,7.1-9.8,3.27-9.03,12.66-13.99,21.7-9.9.3.2.7-.3.3-.6h0Zm-20,22.8c-5.19,5.15-17.09,6.82-20.3-1.3-1.46-6.57,6.58-9.87,11.8-7.2-.94-2.26-6.5-2.17-8.8-.8-10.65,7.02.79,18.11,10.4,14.5,2-.27,8.46-2.73,6.9-5.2Z"/>
        <path class="cls-11" d="m183.9,40.1c-5.15,2.32-2.94,16.77,3.6,14.1.2-.2,0-.6-.2-.6-4.59.14-5.24-6.37-4.8-9.8-.28-1.34,3.57-3.88,1.4-3.7Zm6.6.9c-3.2,3.05-1.81,11.42,3.5,9.6.2-.2.1-.5-.1-.5-8.17-1.15-.6-10.2-3.4-9.1h0Zm6.9-2h.2c-2.49,1.01-1.27,5.49.8,6.6.59.39,2.87,1.2,2.5-.1-3.72-1.24-3.94-2.78-3-6.3v.2c.05-.31-.26-.64-.5-.4h0Z"/>
        <path class="cls-11" d="m183.3,50.7c-8.4.43-.68,15.07,6.6,11.2,1.83-.71,1.43-1.98-.4-1-5.47,2.08-12.21-6.93-6-10,0,0-.1-.2-.2-.2h0Z"/>
        <path class="cls-11" d="m183.6,60c-1.81.11-2.86,2.49-2.9,4.1-.75,1.56,3.63,6.59,3.2,3.7-2.79-2.12-2.21-5.44.2-7.5-.1,0-.3-.3-.5-.3Zm25.2-37.9c-11.05,8.02-1.89,17.26-4.7,23.9-2.85,4.7-12.67,8.68-8.3,15.3,2.11,1.18-1.94-4.39,3.1-8.3,16.69-11.55-2.99-16.49,9.9-30.9Zm21.6,1.1c-13.21-4.19-20.28,22.16-6.3,24,.5,0,.6-.7.1-.8-11.67-4.53-5.69-23.6,6.1-23,.1.1.2-.1.1-.2Zm-.8,16.9c-7.28,3.56-3.32,18.73,5.6,14.8.5-.2.4-.9-.1-.9-7.87,2.48-10.67-9.39-4.8-13.1,0-.4-.3-.8-.7-.8h0Zm10.1,5.9c-.1,0-.1-.1-.2-.1l.2.2c-2.35-1.91-6.67,1.21-6.4,4.1-.38,1.13,2.32,2.9,1.8,1.2-1.93-2.07,1.01-4.87,3.3-4.9.4,0,1,.2,1.2-.2l-.3.2c.39.07.76-.37.4-.5h0Zm2.1-4.2q-.1,0,0,0Z"/>
        <path class="cls-11" d="m241.8,41.9c.1,0,.1-.1,0-.1s-.1.1,0,.1Z"/>
        <path class="cls-11" d="m241.9,41.6c-2.77,2.09-2.71,6.9-.7,9.5,11.01,10.47,27.98-10.51,16.1-21.2-1.63-1.43-2.72-3.72-1.8-5.9-.8-2.98-2.45,3.33-1.3,4.3,19.59,19.31-19.72,35.83-12.3,13.4.2,0,.1-.1,0-.1Zm-10.3-30.4c-1.6-.3-2.8,1.2-3.3,2.6-1.77,6.52,5.47,11.14,11.2,11,9.55,1.55,15.33-10.04,4.7-13.1-2.59-.59-8.19,1.28-6.1,4.7.41,1.17,5.24,1.91,3.4.1-1.82-.07-3.87-1.38-1.5-2.7,10.79-3.95,11.42,11.49.1,10-7,1.1-15.95-8.01-8.5-12.6Zm-26.2,30.4c1.87,1.99,4.79,3.29,7.5,3.3,1.04.23,4.99-.38,2.7-1.7-5.8,1.59-10.99-4.56-10.2-1.6h0ZM239.9,5.4c-5.34-10.36-23.14-2.4-28.1,4.9-.02,1.11,1.3-.18,1.6-.5,7.2-6.01,18.55-11.8,26.4-4.1,0-.1.1-.1.1-.3Zm-3.4,2.6c5.92-2.41,12.92-2.42,17.5,2.5,2.25-.81-1.65-3.36-2.7-3.8-4.75-2.5-10.48-1.68-15.1.8-.2.1,0,.6.3.5Z"/>
        <path class="cls-11" d="m250.2,11.3c20.91-3.26,5.75,15.45,15.1,18.5.4.1.6-.4.4-.7-4.21-2.7-1.41-7.59-2.1-11.6-.03-6.76-8.38-9.43-13.7-6.6-.2,0,0,.4.3.4Z"/>
        <path class="cls-11" d="m262.7,18.9c7.84,3.09,8.46,12.19,7.6,19.5,0,.4.6.5.7.1,2.83-6.11-.21-21.24-8.3-19.6h0Z"/>
        <path class="cls-11" d="m265.4,36.9c9.16-1.7,7.99,11.56,6.2,17.2-.6,4.92-7.39,9.79-3.9,14.6.4.4,1.1-.1.7-.6-2.57-4.46,4.68-9.94,4.9-15.1.99-4.97,1.9-11.19-1.6-15.4-1.6-1.7-4.7-2.8-6.7-1.1-.1.2.1.5.4.4h0Zm5,27.7c2.1,1.42,1.76,4.83,1.2,7-1.62,4.74-10.09,2.62-9.4-2.2.1-.5-.6-.8-.8-.4-.9,1.6.2,3.5,1.4,4.5,4.73,4.5,11.85.05,10.2-6.2-.04-1.22-.89-3.77-2.5-3.1-.2.1-.3.3-.1.4h0Zm-5.1-16.7c-.27,2.77.5,5.72-.2,8.5-.49,4.8-6.46,9.19-10.5,5.3-4.77-4.47-3.4-13.08,3.9-8,3.24.16-4.06-5.54-7.2-1.4-3.54,4.63,2.25,13.5,8,12.2,6.12-1.35,7.52-8.27,6.9-13.6-.14-.86-.06-2.99-.9-3h0Z"/>
        <path class="cls-11" d="m258.3,63.5c-4.04.57-4.16,7.02-.9,8.8l.2-1.2c-6.12,1.8-5.71,9.88-.6,12.7.3.2.6-.2.5-.5-3.28-3.12-5-9.04.5-10.9.6-.2.6-.9.2-1.2-2.76-1.92-2.02-5.5.4-7.3-.1-.3-.2-.4-.3-.4Zm5.3,10c-.53,8.58-1.24,14.27-11.8,13.5-.6-.16-3.01-.11-1.8.9,6.21,1.95,13.65-.92,14.4-8,.18-1.93,1-5.07-.6-6.4q-.1-.1-.2,0h0Z"/>
        <path class="cls-11" d="m255.1,87.2c-.32,4.18-4.36,6.82-8.3,5.5-2.57,2.26,5.53,1.87,6.4.3,1.36-.34,4.35-6.65,1.9-5.8Z"/>
        <path class="cls-11" d="m249.5,90.5c.64,2.66-.79,5.12-3.1,6.3-.21,2.25,3.49-1.23,3.6-2.2.8-.68.76-6.33-.5-4.1h0Zm-5.7-60.2c-3.99,1.75-8.36-.35-12.5.7-3.06.72-7.49,4.83-5.6,7.95,2.57-8.51,8.56-7.03,15.9-7.05.6-.03,3.45-.95,2.2-1.6h0Zm11.3,4.5c1.55,6.84-2.04,9.16-6.8,12.1,5.09.36,8.76-5.76,7.9-10.4-.05-.58-.4-1.96-1.1-1.7h0Zm-2,44.2c-3.54,8.01-7.22,16.36-13.3,22.9-9.65,8.1-24.71,16.9-37.1,10-.8-.5-1.6.8-.8,1.3,7.96,4.93,17.9,2.34,25.7-1.6,13.83-5.3,22.31-18.58,25.5-32.5.1-.1,0-.1,0-.1h0Zm-43.8,40.6c-3.58,5.55-7.54,10.92-10.4,16.9.9,1.71,4.92-6.64,5.9-7.8.36-1.15,6.8-9.44,4.5-9.1Zm-16.4-8c-.86,2.97-.39,8.07-.7,11.2.25,1.89-.73,12.45,1,11.6.28-5.64.18-11.69.2-17.3-.33-1.35.91-5.32-.5-5.5h0Zm35-44.5c-3,3.9-5.23,8.74-5.8,13.6.85,1.85,1.68-.52,1.6-1.5.81-4.13,2.34-8.36,4.4-12,.1,0-.1-.2-.2-.1Zm-12.4,8.7c-5.22-1.32-6.23,7.37-1.1,8.1,3.2-.12,5.15,2.69,8.1,3.4,1.4.2,4.2-.3,3.7-2.4-.57-1.27-2.12,1.98-4.5.5-2.58-2.17-5.3-2.42-8.2-3.5-2.51-1.94-.8-5.4,2.1-5.7,0,0,.1-.3-.1-.4h0Zm.1,10.8c-.22,1.6-1.66,4.16-.6,5.7.8,1.06,2.36.55,2.3-.8.94-3.84-.83-.7-.9.5-2.69.72.87-6.39-.8-5.4Zm-15.8,6.4c1.63,2.03,6.17,1.89,8.5,2.6,1.73.34,3.04,1.59,4.5,2.4,1.7.8,3.6.3,5.2,1.3,1.95,1.04,3.04,3.67,5.25,4.23,2.08-1.55-6.51-7.45-8.55-6.63-1.8-.2-3-1.6-4.7-2.2-3.21-1.06-6.77-.83-9.9-2.2-.1.2-.3.4-.3.5Zm6.5,5.7c1.64,2.81,5.21,4.26,8.3,4.6,3.1-.03.82-1.73-1-1.4-2.07.36-7.47-4.69-7.3-3.2h0Zm25.3-31.9c14.89-4.3,8.43,6.67,16.4,7.7.8-.1.5-1.3-.2-1.3-4.94-1.44-2.93-9.65-11.2-8.4-1.67.29-3.89.5-5,2Z"/>
        <path class="cls-11" d="m245.2,73.1c-3.37.42-8.7-.07-9.6-4.2,0-.9-1.4-.9-1.4,0-.07,3.97,9.04,8.11,11,4.2h0Zm-24.7-10.6c.12-9.79-9.25-7.78-15.4-10.1-.5-.1-.9.5-.5.9,4.73,3.29,12.64-.04,14.9,7.2.29.47.25,2.65,1,2Z"/>
        <path class="cls-11" d="m208,54.6c-.76,2.56,1.07,5.59,3.1,7.1,2.2,1.7,5.4,2.3,8,1.2.8-.3.5-1.6-.4-1.3-4.63,1.68-9.47-1.86-10-6.6-.19-.36-.4-.96-.7-.4h0Zm7.7.8c-5.05-2.51-4.86,6.82.4,5.3,2.03-.04,3.66-5.56,1-3.4.01.45-.06.95-.3,1.2-.1.1-.1.2-.2.3.08-.08-.26.26-.3.3-.1.1.1-.1-.1,0l-.1.1s-.1,0-.1.1c0,0-.2.1-.1,0-.49.17-1.11.18-1.6-.1.02-.11-.31-.19-.4-.3.1.1,0,0-.1,0l-.2-.2s0-.1-.1-.1c-.58-.77-.47-2.23.6-2.5.45-.3,2.14.29,1.6-.7h0Zm26.4,11.4c-.52-.98-2.03-.65-2.9-.2-3.49,1.69-.99,7.36,2.6,5.9,4.45-1.82.36-5.88.7-3.1v-.1.3c0-.23,0,.17,0,.2,0,.2,0-.1,0,.1,0,.1-.1.2-.1.3-.1.2.1-.1,0,.1-.04.06-.14.36-.2.3-.03.08-.37.27-.3.3-.1.1-.2.1-.3.2-.44.21-.88.21-1.5.2.2,0-.1,0,0,0-.1,0-.3-.1-.4-.1-.2-.1.1.1-.1,0,0,0-.1,0-.1-.1-.06,0-.36-.23-.3-.1-.1-.1-.2-.2-.3-.2l-.1-.1c0-.1-.1-.1,0,0,0,0,0-.1-.1-.1-.48-.76-.43-1.8.1-2.5.58-1.24,2.97-.18,3.3-1.3h0Zm-51.6-5.8c-8.44,14.78-4.28,27.54,1.9,42.1,1.74,5.85,5.31,7.2,1.5.1-7.32-17.32-9.93-24.05-3-42.1-.1-.1-.3-.2-.4-.1Zm32,41.8c.1,0,.1-.2,0-.2s-.1.2,0,.2Zm1.3.4c.1,0,.1-.2,0-.2s-.1.2,0,.2Zm-19.6-8.4c5.21.48,10.78-.07,14.5,4.4.3.1.5-.1.5-.4-2.32-5.4-10.01-4.91-14.9-4.7-.4-.1-.5.5-.1.7Zm32.1-37c6.74-1.41,13.34,1.72,14.8,8.8.2.4.7.3.9-.1.76-6.48-6.71-11.46-12.7-10.3-.73.19-3.92.49-3,1.6Zm-10.5-5.1c-.91-7.23-11-12.49-16.7-7.3-.63,1.87,6.81-1.86,9.8.6,3.54.61,6.16,8.64,6.9,6.7h0Z"/>
      </g>
    </g>
  </g>
</svg>