<?xml version="1.0" encoding="UTF-8"?>
<svg id="Ebene_1" data-name="Ebene 1" xmlns="http://www.w3.org/2000/svg" xmlns:xlink="http://www.w3.org/1999/xlink" viewBox="0 0 199.65 256">
  <defs>
    <style>
      .cls-1, .cls-2 {
        fill: none;
      }

      .cls-3 {
        clip-path: url(#clippath);
      }

      .cls-4 {
        mask: url(#mask);
      }

      .cls-5 {
        fill: #f4efea;
      }

      .cls-6 {
        fill: #e9c3bb;
      }

      .cls-7 {
        fill: #fff;
      }

      .cls-8 {
        fill: #fae6e1;
      }

      .cls-9 {
        fill: #334f2b;
      }

      .cls-10 {
        fill: #b26a15;
      }

      .cls-11 {
        fill: #e09531;
      }

      .cls-12 {
        fill: #111119;
      }

      .cls-13 {
        fill: #443e3d;
      }

      .cls-14 {
        fill: #6d5333;
      }

      .cls-15 {
        opacity: .25;
      }

      .cls-2 {
        stroke: #fff;
        stroke-width: 12px;
      }

      .cls-16 {
        fill: url(#Unbenannter_Verlauf_2);
      }

      .cls-16, .cls-17 {
        isolation: isolate;
        opacity: .5;
      }

      .cls-17 {
        fill: url(#Unbenannter_Verlauf);
      }
    </style>
    <clipPath id="clippath">
      <rect class="cls-1" width="199.65" height="256"/>
    </clipPath>
    <mask id="mask" x="45.23" y="0" width="149.09" height="256" maskUnits="userSpaceOnUse">
      <g id="A">
        <path class="cls-7" d="m45.32,0h149v256H45.32s0-256,0-256Z"/>
      </g>
    </mask>
    <radialGradient id="Unbenannter_Verlauf" data-name="Unbenannter Verlauf" cx="-171.68" cy="521.51" fx="-171.68" fy="521.51" r=".98" gradientTransform="translate(498.35 4068.42) rotate(24.8) scale(11.92 -6.7)" gradientUnits="userSpaceOnUse">
      <stop offset="0" stop-color="#f6c7c0"/>
      <stop offset=".12" stop-color="#f6c7c1" stop-opacity=".98"/>
      <stop offset=".25" stop-color="#f6cac4" stop-opacity=".93"/>
      <stop offset=".38" stop-color="#f7cfc9" stop-opacity=".85"/>
      <stop offset=".51" stop-color="#f8d6d1" stop-opacity=".73"/>
      <stop offset=".64" stop-color="#f9deda" stop-opacity=".58"/>
      <stop offset=".78" stop-color="#fbe9e6" stop-opacity=".39"/>
      <stop offset=".91" stop-color="#fdf5f4" stop-opacity=".17"/>
      <stop offset="1" stop-color="#fff" stop-opacity="0"/>
    </radialGradient>
    <radialGradient id="Unbenannter_Verlauf_2" data-name="Unbenannter Verlauf 2" cx="-162.52" cy="520.43" fx="-162.52" fy="520.43" r=".99" gradientTransform="translate(-5.39 3500.03) rotate(27.07) scale(8.96 -6.02)" gradientUnits="userSpaceOnUse">
      <stop offset="0" stop-color="#f6c7c0"/>
      <stop offset=".12" stop-color="#f6c7c1" stop-opacity=".98"/>
      <stop offset=".25" stop-color="#f6cac4" stop-opacity=".93"/>
      <stop offset=".38" stop-color="#f7cfc9" stop-opacity=".85"/>
      <stop offset=".51" stop-color="#f8d6d1" stop-opacity=".73"/>
      <stop offset=".64" stop-color="#f9deda" stop-opacity=".58"/>
      <stop offset=".78" stop-color="#fbe9e6" stop-opacity=".39"/>
      <stop offset=".91" stop-color="#fdf5f4" stop-opacity=".17"/>
      <stop offset="1" stop-color="#fff" stop-opacity="0"/>
    </radialGradient>
  </defs>
  <g class="cls-3">
    <g>
      <path class="cls-2" d="m132.94,57.48l1.62,4.83c54.71-13.11,72.07,75.71,49.22,111.53-24.03,41.62-80.88,54.79-127.41,27.93C-19.42,159.88-6.38,48.52,80.61,38.62c20.71-3.01,44.75-1.1,52.34,18.87h0Z"/>
      <g class="cls-4">
        <g>
          <path class="cls-8" d="m116.49,28.13l.02.08s0-.07-.02-.11v.03Zm16.92,18.81l-.03-.03s0,.02.02.03h0Zm.16-3s.02-.02.06-.16l-.05.16h0Z"/>
          <path class="cls-8" d="m135.32,39.16c3.48-2.34-.25-4.59-2.93-2.67-1.21-.37-.94-2.1-.11-2.75.64-.62,1.79-.38,2.22-1.27.85-1.49-.89-2.87-2.31-2.17-1.76-2.48-4.46,2.35-7.01-1.08.34-.45.39-1.11.11-1.6.63-1.62-1.79-2.82-2.74-1.39-2.55.11-5.05,1.93-4.39,4.73l-.11-.04c.23.13.06,0-.07-.01.01,0,.04,0,.07.01-.72-.53-1.25-1.41-1.54-2.7,0,.09-.01-.1-.04-.14,0,.01.01.03.01.04.39-1.6-1.54-2.93-2.71-1.64-1.04-1.16-2.91-3.71-4.32-1.57l-2.48.33c-.64-.37-1.2-.9-1.76-1.38-1.65-1.58-3.84,1.24-1.92,2.48.16,4.64-6.32,4.03-6.56,8.46-.42.18-.83.31-1.2.58-2.71-.09-2.13,4.75-2.36,6.61-.82,4.38-2.81,9.37.81,13.02-.84,1.75-2.39,3.37-2.85,5.2-1.36,1.65.81,3.96,2.33,2.26.04,0,.07.02.11.03.26.36.73.59,1.17.61.67,1.03,2.16,1.47,3.45,1.72.45,1.25.53,3.66,2.25,3.69.13,4.52,4.02,6.99,6.55,10.41.92,3.49,1.45,7.05,2.46,10.5-2.8,3.18,2.63,4.06,4.92,4.15-.17-.73.33-1.4,1.1-1.2.05-.07.13-.11.21-.13.17-.16.4-.13.51.06.08.03.2.05.25.14.68.02,1.28.53,1.5,1.17,2.34.15,14.56-2.05,8.42-5.53v-1.44c1.29-1,.17-3.64-1.3-3.87-1.41-5.75-4.45-11.74-8.28-16.4,1.34-.95,4.32-1.44,4.61-3.09l.04-.04c4.49-2.83,8.16-8.71,10.72-13.41,1.84,1.05,3.28-2.07,1.29-2.81,0,0,0-.02-.02-.02.1.03-.02,0-.06-.06,0,0,.02.03.03.04h-.02s-.02-.03-.02-.05c0,0-.03-.03-.04-.03,0,0,.02,0,.03.03-.39-1-.04-2.18.27-3.18,0,.02,0,.04,0,.06.05-.1.1-.19.16-.28,1.71.56,3.46-1.82,1.74-2.96-.08-.23-.19-.45-.36-.64.07-.26.11-.52.17-.78h0,0Zm2.01,126.15c-.66-1.07-1.98-.63-3.01-.91.02-1.36,1.31-2.77.53-4.06,1.15-5.45-5.87-1.15-5.72,1.99-2.23,4.4-4.95,8.01-10.33,8.61-1.6-1.09-2.91-2.82-4.75-3.46-2.92-4.99-6.26-11.2-12.6-11.89-3.18-5.39-8.71-10.53-15.03-9.91-3.01-3.35-4.03-8.83-8.3-10.8-7.79-9.11-25.27-1.06-25.69,10.49,2.96,8.96,11.96,16.35,21.5,16.74.96.79,2.17.94,3.42,1.01,5.08-.53,7.26,4.59,10.85,7.05,2.06,1.42,5.14.36,6.78,2.49,1.22,3.82,4.08,6.38,8.11,7.12.11,1.98,3.04,3.05,4.29,1.3.21,0,.43-.05.64-.14,9.27,3.99,20.53-.74,25.61-8.98,1.62-.67,2.41-3.13,3.28-4.58.61-.46.84-1.42.42-2.08h-.02.02s0,0,0,0Zm55.72,58.71c0-3.81-1.03-7.54-2.78-10.92.43-1.76-1.73-3.07-2.46-4.56-4.36-9.79-7.52-20.11-11.65-29.85-1.32-3.31-1.92-30.02-7.83-20.75-.58-.29-1.37-.19-1.87.25-.64,0-1.32.36-1.59,1.02-.06,0-.12.02-.18.03-.49-.26-1.06-.28-1.57-.07-.54-.48-1.47-.49-2.01,0-.57-.52-1.42-.53-2.01-.14-.71-.5-1.84-.16-2.29.58-.62-.96-1.39-2.43-2.76-1.85-.58-1.19-2.31-.83-2.83.13-1.75.89-.19,2.81.55,3.96-.03.56-.32,1.05-.16,1.65-.26.84.12,1.78.53,2.61-.11,2.42,0,5.86,1.82,7.84.55,1.11.6,2.78,1.79,3.38,7.35,9.82,10.43,21.2,13.63,32.84,1.25,4.11.73,4.92-1.54,8.31-1.59,4.81,1.86,11.81,2.72,16.94,2.02,3.63.57,10.9,5.47,11.9-.39,2.2-3.51,4.9-1.89,6.93.28,1.55,2.71,1.62,3.04.07.11-.68.3-1.35.58-1.97,1.43,1.98,3.2-.24,3.42-1.93,2.46-2.41,3.91-5.87,5.27-9.13,1.58.64,2.46-1.08,2.19-2.45,1.13.62,2.4-.36,2.32-1.6.52-4.24,3.68-9.06,2.06-13.2l.03-.02h0Zm-13.26,15.61c-.92.95-1.05,2.5-1.67,3.65-.37-2.9-1.57-5.79-.42-8.66.1-.03.2-.07.29-.12-.23.11.1-.03.15-.04.14-.07.53.17.52.17.92,1.4,1.4,3.3,1.12,5h.01Z"/>
          <path class="cls-5" d="m141.45,146.42c-.48-.57-1.06-1.03-1.68-1.44.26-17.29,2.63-36.01-2.18-52.84-1.94-4.04-10.31.31-12.27-.01-7.14,1.58-10.63,3.06-13.24,1.12-2.37-2.37-3.65-4.65-4.09-.31.31,10.55-5.8,93.02,17.69,74.62,3.09-3.11,1.87-5.55,4.8-7.98,2.77-2.62,6.38-2.14,4.63,2.45,2.2-1.27,3.48-3.14,4.29-5.47,1.76-3.05,5.07-6.73,2.03-10.13h.02s0-.01,0-.01Zm-1.24,47.29c-1.1-2.33-1.45-2.18-.55-4.49.96-1.97.69-7.08-2.64-7.13,2.59-2.13-2.73-3.86-1.86-5.62,7.8-6.85,1.42-8.69-3.43-1.66-9.87,14.35-28.12-.17-24.61,22.17-14.71,9.43,31.91,11.07,33.09-3.27h0Z"/>
          <path class="cls-11" d="m113.57,143.37c.61-18.71-.93-37.97-4.65-56.39-.84-3.05-1.57-6.25-3.4-8.94-1.04-1.97-3.76-2.64-4.27-5.14-3.86-11.4-1.05-6.55-10.64-13.1-.15-1.29.24-2.62.24-3.92-1.74.53-5.6,3.69-3.8,5.48-.54,1.19-.9,2.58-.41,3.87-7.62,4.21-16.69,2.92-25.05,5.27-22.32,6.82-15.06,30.89-12.48,48.06.3,11.63,1.61,4.06-3.47,12.08,2.6,3.83,2.65,13.06,6.52,14.87,1.52-5.93,4.88-11.83,10.84-14.16,2.43.7,5.31-1.27,8.09-.77,1.46,1.09,3.41,1.04,4.86,2.15.96.63,1.59,2.04,2.9,1.83,4.37,3.11,4.48,11.92,11.12,11.31,5.34.27,7.97,5.76,11.31,9.16,3.56.91,6.18,3.07,8.61,5.76.35,1.83,1.98,3.53,3,5.13.5-7.53.71-14.92.67-22.55h-.01.02Zm23.74,21.43s.03.06.05.09c0,0-.02-.06-.04-.09h-.01Z"/>
          <path class="cls-11" d="m172.39,154.65c-2.5-3.14-1.42-8.74-4.44-11.62-1.63-2.89-1.26-7.13-3.88-9.28.97-2.38-1.04-4.06-1.95-6.14-2.22-2.97-1.03-7.34-3.47-10.12,0-3.58-2.23-6.85-2.69-10.42-.27-7.73.62-16.16-4.4-22.63-3-3.79-4.74-11.66-10.17-12.18-.56-.62-1.43-.85-2.22-.58-.41-.76-1.32-1.12-2.12-.9-3.03-1.22-6.36-1.19-9.5-1.99-.73-2.13-1.35-4.58-3.44-5.73-.09-.35-.21-.72-.47-.98-1.91,1.95-4.21,3.52-6.6,4.83,2.67,2.78,4.85,5.88,6.89,9.2.86,1.65.77,4.44,2.49,5.37l.43,2.8c-.64,4.08,1,8.44,1.09,12.6,5.07,19.57,2.21,41.22,5.42,61.04.52-.15,1.06-.14,1.52.21.04,0,.07.04.1.06.06-.02.13-.04.18-.08.04.18.09.36.11.54l-.03-.26c.52,2.01-.92,3.91-.94,5.95.32-.02.93-.14,1.04.25.54.15,1.63.1,1.5.91.15-.24.22-.54.33-.81.06.04.13.07.19.11,0,.03.02.06.04.08.08.25.15.52.24.77-.82,2.82-3.64,5.44-2.31,8.46,2,6.78,2.12,14.24,4.12,20.78.29,2.64.95,5.2,1.92,7.67.74,3.42,2,10.29,5.18,3.71.57-1,2.29-1.35,2.21-2.73,3.45-3.4,6.91-9.44,3.78-14.01-.81-2.48-.13-6.51-2.23-8.12-1.96-8.33-8.09-16.05-7.7-24.73,2.31,2.71,4.06,6.08,6.38,8.72.77,1.53,1.23,5.45,3.65,4.42-.07-.16.02-.32.14-.43.03-.33-.28-.85.11-1.03-.58-1.13-1.08-2.52-.86-3.77-.29-.77-.35-1.6-.55-2.39.56-1.02.1-2.3.15-3.41.21-.06.42-.13.6-.25,4.56.5,9.98,6.74,13.95,2.64,1.92-1.38,4.5-2.13,5.89-4.05.93-.41,1.15-1.8.42-2.52h-.08l-.02.04h0Zm-62.34,27.08c-.09-.04-.15-.1-.18-.17-.04-.02-.09-.04-.13-.05-.43.35-1.07-.31-1.64-.17l-.04.2c-6.6-2.21-8.91-2-13.36-8.15-1.05-3.72-4.01-1.41-6.94-3.19-3.89-2.52-6.61-7.3-11.79-7.08-.65-.65-1.54-.32-2.31-.12-.09-.43-.24-.83-.52-1.21-.73.05-1.56-.09-2.24-.27-1.02,1.58-.29,4-.66,5.89,0-.05-.01-.09-.02-.14-.16,1.63-1.47,3.15-1.08,4.84-5.87,10.65-1.63,22.84-4.68,33.82-2.23,2.94,8.22,5.74,10.31,6.58,3.79,2.14,10.49,4,14.88,3.74,1.16.7,2.41.78,3.74.62,2.99.94,6.47.35,9.66.36,2.66.22,6.95.22,5.15-3.63-1.46-10.53,1.23-21.08,3.06-31.44-.02,0-1.16-.42-1.18-.41l-.03-.02h0Z"/>
          <path class="cls-10" d="m75.63,132.36c5.49,5.92.51-8.02,1.55-11.93-2.28-3.08-7.83-1.61-11.14-1.54-8.02-1.65-3.83,13.74-12.87,7.68-3.93-2.58-6.13.45-7.31,3.48-1.12,3.85,1.93,7.17,2.15,7.41,4.69,22.64,4.94-16.98,27.62-5.09h0Zm96.4,22.09c-1.08-2.77-2.39-5.91-3.43-8.68.06-3.93-4.01.09-5.21.96-.46.35-2.57,1.81-2.81,2.35-1.23,1.04-3.11,1.67-3.86,3.16-3.4,2.11-7.23,4.35-11.1,5.41-1.59-.3-2.4,1.99-.77,2.51,1.44,1.3,2.06,3.33,3.49,4.55.55,1.18,1.4,2.32,1.83,3.57.32,1.49,1.77,2.64,2.88,1.07-.11-.27-.35-.57-.28-.87-.14-.38-.21-.78-.18-1.18-.05-.02-.1-.05-.15-.05-1.31-2.38-1.24-5.34-1.2-8,.82-.06,1.79-.18,2.63-.2,1.08,1.66,4.68,1.72,6.45,2.44.44.9,1.98,1.59,2.83.87,1.07-.19,2.18-.74,2.87-1.56,1.25.3,1.95-1.54,2.91-2.11,1.66-.86,4.64-1.84,3.11-4.21h-.02v-.03Zm-69.36-34c-.09-.28-.26-.54-.51-.7-.2-5-1.05-9.96-.69-14.96.7-1.2.23-8.61-2.41-6.61-.59.04-1.18.16-1.71.38-1.22-.49-2.88-.3-3.89.51-2.19.29-4.56.17-6.66.84-7.84-.1-7.31-.33-5.26,7,1.02,15.79-2.96,18.9,14.96,15.35,1.88-.33,6.21,1.08,6.16-1.83v.03s.01-.01.01,0Zm45.26-17.18c-.02-.9-.95-1.53-1.8-1.12-.52-.46-1.31-.58-1.95-.29-.14-.94-1.05-1.58-1.92-1.12-.77-.09-2.25-1.15-2.68-.18l-.61-.19c-.63-1.74-3.3-.82-2.41.9.48,1.39-.15,3.14-.04,4.63.61,5.8-2.84,15.16,4.89,16.17.29.45.96.5,1.44.53.93,2.45,3.24-.29,2.74-1.9,1.49-3.57.61-7.47,1.03-11.21,1.38-1.73,1.46-4.12,1.32-6.23h0s0,.01,0,.01Zm-50.42-37.44c.16-.24.4-.48.69-.58.43-.75-.19-1.9-1.1-1.82-.28-.22-.65-.3-1-.23-.66-.67-1.71-.96-2.76-.89-.69-1.01-1.46-2.1-2.71-2.31.02-.13.21-.68.18-.56.08-.2.19-.39.29-.58-.26-.47-.1-1.1.03-1.6-1.22-1.46-2.84.57-3.06,1.79-1.23.37-.85,2.14-1.13,3.15-2.95,6.21,6.11,5.91,6.86,13.48.61,1.26,2.81.36,2.29-.97-.87-2.64.75-5.57,1.04-8.33.24-.11.26-.35.38-.55Zm31.45,7.13c-1.26-2.09-.97-8.81-4.15-8.44-.15-.93-.68-1.71-1.35-2.36-1.19,1.45-4.69,3.56-6.26,4.61,1.42.95,1.75,3.01,3.14,3.93l1.74,2.62c1.51,1.83.91,4.27,1.97,6.27,3.63,2.6,1.61-3.78,1.62-5.46,1.15.57,3.68.76,3.28-1.17h0,0Z"/>
          <path class="cls-14" d="m141.98,36.14c2.77-2.91,3.28-7.83,1.17-11.28.83-4.27-.37-11.9-5.38-12.97-.25-2.51-2.38-4.8-4.92-5.05-1.52-3.34-6.03-4.59-9.45-4.01-.25-.68-.96-1.23-1.71-1.08-2.5-3.32-14.2,1.02-14.44,5.07-.1.15-.18.3-.28.45-4.86,0-10.52,7.62-9.78,11.43l-.43.34c-4.72-5.23-12.51,1.24-6.59,4.98-1.51.61-2.39,5.03-.89,6.34-1.39,1.69-1.16,4.4.37,5.93-.98,1.11-1.59,2.63-1.17,4.11-.65,1.84,1.16,3.29,2.9,3.11,1.09-.02,1.92-1.16,1.45-2.21.01-1.41,1.22-2.83.7-4.23,1.8-.25,3.46-1.65,3.63-3.51.38-.41.61-.95.78-1.49.22-.14.4-.34.51-.57,2.66-1.26,5.38-3.48,3.72-6.66.87-1.03,0-2.71-1-3.33.04-.2,0-.42-.08-.61.1-.37.63-.24.57.13.2,3.36,5.65,6.08,8.36,4.45.81,1.66,2.82,3.04,4.71,2.43.52,1.86,1.13,4.23,3.2,4.91,1.46.44,2.6-1.44,1.57-2.56.23-.22.34-.51.39-.81.49-.32.94-.75.97-1.37,1.01-.64,2.13,0,3.17.23-.21,3.55,3.99,4.76,6.71,3.37-2.01,2.67-.37,5.89,2.54,6.89-.35,1.07-.25,2.36.51,3.25-.06.36-.06.72,0,1.08-1.38,1.19-2.33,3.19-1.47,4.98-.05.09-.09.18-.14.27.26-.07.51.12.44.39.38.06.32.63,0,.65.03.25.1.8-.27.8-1.22,2.76-3.01,5.22-5.07,7.41.51,1.12,2.16,1.08,2.76.06.02,0,.04-.02.06-.02.11-.26.32-.47.49-.7-.09-.48.38-.53.73-.42.95-1.23,1.56-2.68,2.28-4.07,3.79-.71,4.45-4.78,4.09-7.99.9.66,2.06.73,3.1.32.67,1.26,3.14-2.37,2.35-3.01.25-1.72-1.32-3.61-3.12-3.18.48-.56,1.46-1.67,1.95-2.22v-.03Z"/>
          <path class="cls-13" d="m126.99,112.8c-.41-1.25-1.5-3.37-3.15-2.84-.85-.43-1.82-.63-2.78-.53l-.26-2.61c9.46-1.85,6.2-14.67-2.71-13.18-.03-.02-.06-.04-.09-.07-.96-4.04-4.73-.23-3.06,2.51-.71,4.07,1.4,8.55,2.86,12.26,1.43,2.89-3.81,19.3,2.41,15.88,1.78.23,1.77-2.58,3.4-1.93,3.16-1.06,4.81-7.51,3.39-9.5h-.01s0,0,0,0Z"/>
          <path class="cls-7" d="m112.89,36.34c-.38-1.01-1.29-2.09-2.45-2.07-.54-.59-1.44-.82-2.2-.56-1.24-.53-2.33,1.22-1.35,2.13.61.68,1.5,1.08,2.33,1.42.18,1.08,1.51,1.27,2.29.72.85.13,1.63-.81,1.36-1.63,0,0,.02,0,.02-.01Zm15.19,6.62c-.18-.28-.41-.45-.72-.57-.36-.92-1.61-.98-2.43-1.14-1.18-1.61-3.51.51-2.09,1.87,1.33.85,6.21,3.45,5.25-.17h0Z"/>
          <path class="cls-9" d="m111.41,34.9c-.48-2.09-2.97-.72-2.94.92-.26,1.72,2.44,2.02,2.49.26.34-.27.58-.74.45-1.18Zm15.91,7c-.19-1.8-2.19-1.44-2.74-.03-.52.73-.85,1.84.1,2.39,1.43.78,2.34-1.29,2.67-2.36h-.03Z"/>
          <path class="cls-6" d="m111.5,59.61c-1.25.02-2.44-.5-3.44-1.22h-.01c-.31-.28-.63-.58-.89-.91-1.11-1.17-2.91.62-1.77,1.77,1.35,1.68,6.35,4.65,7.39,1.62-.03-.7-.57-1.25-1.28-1.26Z"/>
          <g class="cls-15">
            <path class="cls-12" d="m81.18,133.19l-1.02-18.43c-.53-3.44.27-8.35-1.76-11.32-3.09-4.71-8.3-3.18-8.49,2.39.31,4.11-.06,8.61.03,12.71-.46-.24-1.03-.35-1.49-.06-.4-.47-1.23-.49-1.69-.08-1.77-.79-2.26,1.71-.99,2.54,2.23,2.91,1.23,6.86,1.31,10.16.78-.12,1.77-.07,2.5.14,2.28-.73,4.19.99,6.2,1.55.32.6.86,1.03,1.53,1.19.28.5.77,1.05,1.37,1.11,0,.13-.01.32.03.44.09.02.15.12.23.17.96.12,1.61,1.11,2.22,1.8l.02-4.32s0,0,0,.01Zm-6.51-17.27c-.13.02-.25.06-.36.11,0-.15-.11-2.3-.1-2.38.03.46.4.79.84.93l.06,1.37c-.14-.03-.29-.04-.44-.02h0Z"/>
          </g>
          <g class="cls-15">
            <path class="cls-12" d="m152.7,185.71c-.07-.07-.14-.16-.2-.24.13.52.76,3.09.9,3.67-.14-.81-.47-2.64-.69-3.42h0Z"/>
          </g>
          <g class="cls-15">
            <path class="cls-12" d="m171.57,200.03c-2.28-13.53-19.97-32.92,1.74-40.06-.11-.81-1.08-1.96-.64-2.64-.03-.13-.06-.27-.08-.4.68-.63.31-1.6-.29-2.13-.11-1.65-.92-3.22-1.99-4.46.72-1.68-.94-3.88-1.1-5.7-.11.04-.24.02-.33-.06-.02.02-.06,0-.09,0-.1-.69-.42-1.32-.91-1.77.26-.77-.67-1.35-.47-2.07-.11-.65-1.04-1.87-.31-2.3-.59-1.48-1.13-3.08-2.08-4.35-.41.32-.65-.35-.54-.67-.04-.06-.04-.14-.03-.21l-.14-.11c-.52-1.36-.16-3-1.71-3.73-.51-1.17-.7-2.48-1.48-3.52-.07-.67-.13-1.52-.79-1.83,0-.06,0-.11-.02-.16.41-.52.37-1.34-.19-1.73.08-2.2-1.51-5.88-3.12-2.23-.24.32-.67.51-1,.71-6.4,3.17-7.27-5.68-6.85-10.32-.47-1.87,1.84-7.36-.81-7.48-.08,1.19-.26,2.39-.63,3.54-.11.73.46,2.8-.88,2.7.18.98-1.48,6.36.18,6.69-1.69,1.77-.29,5.02-1.42,7.3-.13-.05-.27-.08-.41-.07,0,.43-.47,1.2-.75.49-.09-.04-.16-.12-.18-.22-.41-.04-.84.38-.92.81-.7,5.17-3.61,9.81-4.29,14.96-.18,3,2.07,5.34,2.48,8.22.66,3.3-1.69,6.5-1.13,9.73-.12.05-.22.13-.33.21,1.86,10.99,12.24,27.55-1.43,35.1-.04-.12-.09-.23-.13-.34,0,0,.02-.02.03-.03,0-.16.14-.26.27-.34-.53-.26-.42-1.25-.61-1.8-4.35.14-7.29,4.32-11.24,5.74-3.95,2.15-11.88,1.34-10.81-4.65,5.16-10.87,16.78-2.88,19.79-18.16-1.47-4.71-5.97,6.24-9.44,6.73-2.15.24-4.07,2.27-6.22,2.93-2.34.53-5.88.25-8.28.52-.52-.13-1.05-.21-1.61-.24-.25-.39-.71-.64-1.18-.57-.52-.79-1.39-.96-2.14-1.42-.47.38-1.26-.38-1.67-.67-13.49-.89-6.43-9.29-16.86-9.35-.57-.44-1.23-1.12-2.01-.78-1.01-1.5-2.4-2.69-3.84-3.79.17-1.61-5.58-3.52-6.83-3.07-.28-.09-.58-.06-.85.06-.62-.22-1.18-.56-1.93-.47-1.98-2.87-3.04.79-2.75,2.8.02.02.03.06.06.07h-.06c0,.1-.01.21-.02.31.03.02.07.04.1.06-.09.27-.13.57,0,.82,16.49-1.54,22.81,21.69,39.46,20.88.58-.61,1.09.64.24.65-.04.29-.01.58-.07.88l.4.06c-.4,4.19-2.66,8.16-1.36,12.48-1.66,3,.2,7-.75,10.35,11.4,1.14,22.39-2.96,31.8-9.06v.03c1.73-1.53,1.05,1.4,1.56,2.45.7.84.56,2.41.9,3.41.09-.05.2-.03.28.02.14-.08.27-.02.39.07,0,0,.03-.02.04-.03.98.98,2.7-.64,2.52-1.74,1.13-.63,2.18-1.24,2.99-2.26l-.09-.09c2.43-2.55,4.09-5.76,5.32-9.04-1.67-8.85-3.75-18.67-7.73-26.52-.93-2.88-4.18-5.75-3.59-8.78-.83-.93.55-2.09.33-3.15.21.5.59.95,1.03,1.27-.4,1.19.84,2.02,1.7,2.57,1.07,2.04,2.2,4.06,3.35,6.05.98.48,1.83,1.94,2.61,2.84.85.02.85,1.81,1.47,2.42-.02.02-.04.03-.06.04.07.23.17.54-.1.66,0,.07,0,.15-.04.2.72.87.67,2.32,1.55,3.07.19.57.41,1.12.64,1.66,2.4,2.9,5.35,7.18,6.49,10.59.21.96,3.52,3.97,2.18,4.18.08,1.06,1.39,2.62.82,3.42,1.55,5.51,2.75,11.22,5.35,16.37,3.31-2.89,1.9-8.63,1.56-12.54h-.04l.02-.02Zm-35.41-.33c-.34.14-.68.26-1.03.39l.1-.67c.31.23.73.32,1.12.18-.06.04-.13.07-.19.11h0Z"/>
          </g>
          <g class="cls-15">
            <path class="cls-12" d="m145.11,28.28c0-.24-.15-.44-.36-.58,0,.01.02.01.03.02-2.16-2.65-.19-5.54-1.49-7.65,1.55-2.57-5.57-11.36-5.45-5.51,7.48,10.86-3.41,5.36-2.14,12.19-1.56,3.33-5.75,6.76-9.09,4.26-2.35-.81-2.33-4.56-5.35-2.91.25,3.99,4.85,3.76,6.55,6.4,9.62,14.3-6.2,24.52-16.09,32.64-1.67,7.87,6.47-10.82,12.91,14.17,2.11-.24.32-3.02,1.13-3.68,1.38-2.62,20.85.88,15.06-5.48-4.06-2.08-10.25-2.92-13.07-3.42.09-1.52-2.47-6.13-3.22-5.25-2.78-2.05,1.74-3.75,2.91-6.03.44.06.87,1.23,1.53.53,1.17-.15.88-1.64,1.25-2.46,1.21.28,2.22-.95,2.59-1.95.98-1.8,4.41-2.72,5.06-5.16,1.36-1.82-.37-2.9,1.7-3.89,4.03,1.13,5.04-6.01,1.18-6.2.08-.1.22-.08.35-.11-.29-.12-.62-.17-.91-.04,2.54-2.85,5.75-5.51,4.92-9.89Z"/>
          </g>
          <path d="m93.68,54.87v.09s.03-.06.05-.07l-.24-.03s.02,0,.02.03l-.07-.27s-.04.2-.03.26l.06.1s-.02-.07-.01-.07v.09c-.15.86-1.1,1.94-1.2,2.88v-.18c.21,1.61,1.87-1.37,1.92-1.98.48-.63-.24-2.1-.74-1.02l.06-.14c-.43.27.29.79.2.28,0,0-.02.03-.02.03Zm-1.44,1.03c-1.96-.2-2.33,2.85-1.48,4.16,1.31,2.18,4.1,2.55,6.07,3.91,2.52,1.41,2.49,4.38,3.03,6.86,1.12,3.96,5.21,5.99,6.83,9.68.75.68,1.1,5.05,1.89,4.38.2-5.45-4.51-8.74-7.18-12.86-1.34-3.39-.86-7.89-4.96-9.48-3.12-1.36-7.52-3.09-4.2-6.67,0,0,0,.02,0,.02Z"/>
          <path d="m92.02,55.94h-.07c-4.98-.95-6.96,6.94-5.94,10.84.05.24.48.26.51,0,.12-4.39.92-9.15,5.45-10.74l.06.06c.12-.01.1-.16,0-.16Zm5.04,9.36c-.57,3.83-1.23,7.83-2.5,11.5l.81-.21c-1.28-1.08-2.17-3.48-3.04-4.9-.45-.77-4.52-5.99-4.66-3.61,5.39,3.16,7.14,16.9,9.27,3.19-.03-.86,1.52-6.69.14-5.95,0,0-.02-.02-.02-.02Zm25.58-3.73c.54.9,1.98,2.02,2.63,2.9,2.98,1.97,2.31,10.78,4.53,10.58-1.06-3.81-.92-8.21-3.91-11.19-.78-.66-2.37-3.14-3.26-2.28v-.02h.01s0,.01,0,.01Z"/>
          <path d="m124.86,63.77c-.54,3.02.32,8.09.33,11.23.67,3.69,0,15.35,2.4,17.34-1.02-6.25-1.19-16.06-1.78-22.45-.09-1.01-.32-3.83-.44-4.81-.06-.4-.02-1.37-.52-1.3,0,0,.01,0,.01-.01Zm4.83,10.76s-.14-.08-.1-.03c-.65-.32-1.66-.81-2.34-.38-.37.52.41.73.81.73.16,0,.84.15,1.12.21-.04,0,.14.02.18.04.27.19.75-.32.34-.55,0,0,0-.02,0-.02Z"/>
          <path d="m116.84,66.66c.01,1.16,1.71,2.75,2.25,3.76,3.65,4.65,5.84,10.66,6.8,16.45,2.17-4.62-4.63-17.06-9.06-20.22h.01s0,0,0,0Zm-31.91-1.2c-9.25,4.77-22.07.32-29.83,8.02-.28.38.3.75.62.48,3.05-2.72,7.11-3.61,11.06-4.17,5.38-1.14,15.25-.32,18.15-4.31,0,0,0-.02,0-.02Zm-30.64,8.6c-15.72,9.01-6.45,34.26-5.33,48.82,1.4-14.63-9.49-37.75,5.31-48.81,0,0,.02-.01.02,0Zm3.12.83c10.04,2.32,11.97,13.48,14.12,22,.96.28-.11-2.39-.06-3.09-.55-2.99-1.18-6.3-2.35-9.1-1.3-4.1-7.92-11.93-11.71-9.79v-.02Zm15.81,28.08c2.17,4.82.49,10.64,1.27,15.72,1.56,2.01.99-17.11-1.28-15.71,0,0,.01-.01,0,0Zm-27.36,27.07c1.12-2.21,3.32-3.4,5.16-4.82.08-.16,0-.32-.16-.38-1.33-.75-7.18,5.39-5.01,5.19h0Z"/>
          <path d="m50.69,125.29c1.83,1.14,3.92,2.25,5.77,3.46.96.72,3.38,0,1.06-.54-2.2-.64-4.58-3.73-6.83-2.91,0,0,0-.01,0,0Z"/>
          <path d="m58.02,129.24c1.01-2.18,1.96-5.08,3.19-7.19,3.29-6.34-1.57-.12-2.01,1.98-.22.97-2.47,5.05-1.19,5.21h.01Z"/>
          <path d="m62.82,119.38c2.44.13,5.13-.74,7.63-.53,1.51-.67,8.08,2.32,7.5.76-2.35-2.21-13.52-2.54-15.1-.23h-.03Z"/>
          <path d="m77.13,119.46c-.77,3.45.2,8.19.56,11.71.68,4.81,2.13,4.53,1.03-.21-.31-1.92-.72-5.79-.83-7.73-.17-.56.23-4.36-.76-3.77h0Zm-31.62,11.44c.35,3.5,2.77,8.17,3.8,11.64,2.01,4.35,3.07,3.86.83-.51-.7-1.91-2.12-5.75-2.83-7.65-.45-.76-.92-3.39-1.8-3.48Zm6.73,15.37c.97-11.3,13.25-18.17,23.43-13.39.31.06.61-.33.33-.57-9.55-6.56-25.92,3.64-23.75,13.98v-.02s0,0,0,0Zm12.67-24.12c-.11-.1-.21-.15-.35-.18l.1.06c-1.42-.63-2.34,1.73-1.07,2.51,2.26,1.83,4.44-2.8,1.14-2.13-.42.02-.53.82.09.61-.06-.02.02,0,.04.01-.09-.03.12.04.01,0,.09.04.31.11.41.14-.15-.05.17.05.18.1-.12-.08.07.06.08.08.07.06-.04-.06.01,0l.06.1c.06.1-.02-.06.01.03v-.24s-.07.22-.04.1c-.04.08-.1.17-.15.25.03-.04,0,.01-.01.01-.15.18-.23.21-.41.32-.1.03-.19.08-.36.1.15,0-.16,0-.17,0,.06.01-.06,0,0,0-.2-.04-.27-.08-.44-.2.04.04-.05-.04,0,0-.06-.06-.12-.11-.17-.18.04.06-.03-.04-.03-.06-.03-.02-.1-.21-.06-.11-.09-.16-.04-.49-.02-.51,0-.02,0-.03.03-.04,0-.01.12-.21.06-.12.15-.31.52-.3.76-.49l-.16.07c.18.01.6.02.41-.26h.03l.02.02h0Zm9.67-14.92c-.11-1.35-10.51-9.04-10.05-6.18,2.66.75,5.37,3.1,7.61,4.66.64.28,1.77,1.92,2.43,1.51h.01Zm-.05,2.24c-.4-.44-4.14-2.97-3.8-1.41.71.58,1.85.91,2.65,1.37.28.17,1.39.82,1.13.04,0,0,.02,0,.02,0Zm5.16-8.39c.71,1.64.02,8.03,3.43,6.74,4.81-.56,14.36-1.72,19.1-2.29,1.09.02-.12-3.2.01-3.7-.15-.9-.3-2.19-.59-3.04-1.44-1.32.18,5.6.09,6.24l.49-.49c-5.48.66-14.41,1.76-19.8,2.42-1.55.97-1.7-8.21-2.73-5.87h0Zm1.45-.67c4.01.29,9.44-1.01,13.53-1.35,5.85-.45,6.11-2.15-.03-1-2.32.31-6.98.93-9.29,1.25-.65.27-4.44.25-4.2,1.11,0,0-.01-.01,0-.01Zm-.07,8.32c-.55,3.08.15,7.26.3,10.41.32,1.53-.08,5.11,2.39,4.96,4.64.32,9.55-.13,14.14-.92.73-.56,4.71.52,3.86-.64-1.85-1.03-4.06-.28-6.02.02-3.2.52-6.81.67-10.07.64-1.51-.04-3.31.23-3.08-1.9-.15-1.07-.42-3.95-.53-5.06-.07-1.22-.32-4.5-.34-5.69-.09-.44.15-2.26-.65-1.81h0s0,0,0,0Zm20.02-1.9c-.49,4.04.41,9.02.86,13.08-.02.48.5,1.51,1,.86.11-.85-.3-2.37-.36-3.25-.22-1.78-.57-5.38-.69-7.17-.23-.62.24-4.02-.82-3.5,0,0,.01-.02.01-.02Zm4.68-14.25h-.12l.09.03c-1.42-.31-1.51,2.26-.45,2.8,1.75,1.34,4.05-1.45,2.27-2.77-.06-.14-.78-.15-.54.33,0,.01.04.09.01.02.02.04.02.09.05.12-.01-.24-.03.12.08.2l-.02-.05s.03.09.06.13c.01.03.04.07.06.1-.05-.13.07.18.06.25.02.09,0-.1,0,0v.32c0-.1-.1.43-.21.48.08-.11-.11.12-.16.13.13-.08-.18.13-.22.12l.05-.02s-.46.12-.26.08h-.33c.1.02-.1,0,0,0-.08-.02-.24-.04-.3-.09.13.06-.13-.08-.16-.12l.04.03c-.06-.07-.16-.13-.2-.21l.03.04c-.05-.07-.09-.16-.13-.24.03.09-.03-.05,0,0-.02-.03-.11-.38-.07-.24.01-.24-.03-.39.03-.55.05-.27.23-.32.37-.59l-.07.12s.13-.16.13-.22l-.04.08c.12-.07.19-.29,0-.31l.02.02s-.07.01-.07,0Zm1.91,27.17s.15,0,.17-.01c-4.46,3.28,3.07,6.11,1.67.58-.49-.85-1.66.2-.66.2-.03.03-.16-.03-.14-.02,0,0,.08.08.05.04.3.58.18,1.61-.3,1.95-.15.1-.31.16-.44.18-.15.02-.38-.07-.38-.1-.32-.26-.35-.62-.33-1-.02-.57.83-1.14.73-1.72,0,.07,0,.13.02.2.11-.25-.11-.48-.34-.32h-.03l-.02.02h0Zm1.64,25.85c-1.39-.54-2.51,1.65-1.54,2.66.86,1,2.8.55,3.07-.76.27-.85-.99-2.15-1.53-1.05-.06.23.18.35.37.31.06.02-.07-.01-.07-.04.3.19.38.21.43.52v-.04.13c.02-.11-.02.07-.04.12.04-.08-.02.07,0,0-.01.05-.05.09-.08.14.05-.06-.04.06,0,0-.02.03-.24.24-.14.15-.08.06-.2.14-.29.18.17-.06-.43.1-.25.07h-.37c.08.02-.07,0,0,0-.2-.04-.22-.05-.37-.15-.05-.02-.04-.03-.13-.12,0,0-.02-.02-.03-.03.07.13-.15-.29-.07-.14-.02-.02-.07-.32-.05-.18-.03-.2.07-.52.11-.64.03-.07.15-.31.17-.29.04-.05.19-.18.18-.18.13-.1.29-.17.44-.22.17,0,.53-.24.23-.44h-.04Zm-4.74,50.14c-2.7-.42-2.29,5.29,1.05,2.95,1.22-.71,1.22-3.19-.49-3.08-.75.04-.68,1.3.09.86-.03,0-.06.04,0,0,.06,0-.07,0-.02,0h.08c-.09-.03,0,0,.05.02-.15-.07.22.14.09.06.04.03.08.07.11.11.04.05.1.29.08.54,0-.07-.05.24-.09.28.03-.05-.1.23-.15.27,0,0-.05.06,0,0-.04.04-.18.17-.22.21-.1.1-.73.34-.82.32-.19.02-.37.03-.56,0,.06,0-.07,0-.06,0-.04,0-.05,0,0,0,.01-.05-.07,0,0,0,0,0,.04.03.02.04l-.02-.08c-.05-.57-.15-1.61.53-2,.18-.09.51-.26.34-.49h-.02.01s0-.01,0-.01Zm10.32-103.33c-2.09,3.98-.05,8.82.97,12.87,3.01,6.23-1.35,13.57,1.93,19.46,1.26,1.12-.85-5.14-.15-6.15,2.4-8.99-3.46-17.44-2.72-26.18,0,0-.03,0-.03,0Zm1.07.02c2.09.03.82,1.81,4.02,1.3,6.96-.03,8.28,11.08,1.43,12.71-2.96.89.15,1.68,1.4.57,7.21-2.87,4.24-14.85-3.41-14.12-1.18.41-1.47-.64-2.38-1.01-.37-.25-1.75.12-1.05.54,0,0-.01.01-.01,0Zm3.56,32.06c1.24.23,2.59.21,2.74-1.28,6.46-1.02,8.23-13.17.84-14.44-3.01-1.13-5.06.5-.67.87,6.24.53,5.51,10.08,1.03,12.28-.89.15-2.04.48-2.13,1.55-.02.29-.04.3-.34.34-.37.13-1.81.13-1.43.66l-.04.02h0Zm7.65-30.09c3.19,13.39,2.8,33.45,3.92,47.3.42,1.42,0,15.15,1.71,13.29-.08-10.99-1.35-24.84-1.88-35.88-.66-7.07-.41-19.27-3.75-24.71h0Zm-18.72-7.86c5.42,25.23,5.48,51.4,4.37,77.08,2.86-7.6,1.14-21.05,1.56-30.58-1.03-15.14-.5-33-5.95-46.49h.02Zm50.21,43.21s.04-.06,0-.06-.04.06,0,.06Zm-11.01-26.72c-.16,1.85.77,6.76-2.58,5.23-1.97-.87-6.06-2.31-8.14-2.9l.34.34c-.07-.2-.12-.33-.31-.44l.14.18c0-.44-.6-.44-.59,0l.14-.18c-.4.21-.46.9.03,1.04,3.49.62,6.68,2.96,10.17,3.11,1.91.02,2.33-6.82.81-6.37h0s0-.01,0,0Z"/>
          <path d="m147.62,102.65c-.72-1.22-3.75-1.67-5.01-2.29-2.95-.81-9.13-3.47-5.97,2.15,1.21.31-.13-2.3.36-3.03l-.63.36,6.12,1.52,2.97.94c.45.02,1.84.84,2.16.36h0,0s0-.01,0-.01Zm-1.1,7.08c-.35,4.22-.36,8.77-1.54,12.89-.08.29-.13.84-.55.63-8.83-3.6-7.75-1.61-7.28-11.2.36-2.16-.87-3.09-.93-.31-.1,1.24-.26,4.41-.34,5.69-1.01,3.92,3.39,4.82,6.09,5.95.89.22,2.3,1.32,3.24.84,1.42-.45,3.02-15.25,1.33-14.49h-.02Zm-4.11-6.31h-.02s.04.03.07.04c-1.65-.6-1.47,2.78.34,2.17,1.11-.09.87-2.53-.08-1.65,0-.15.01.17,0,.09-.02-.09.03.17,0,.07,0,.05.01.09.03.14,0,.06,0-.01,0-.03,0,.07.07.34.06.21v.14c.02-.09,0,.08,0,0-.05.16,0,.09-.1.24,0,0,.06-.07.02-.03,0,0-.02.02-.02.03-.1.09.02,0-.05.04-.03.03-.11.04-.02.03-.04.01-.08.01-.12.03-.07.02.07,0,.02,0h-.09s-.08-.02,0,0c-.21-.05-.15-.01-.33-.14.11.1-.16-.19-.08-.08-.02-.03-.07-.1-.08-.13.04.1-.04-.1-.03-.13v.02c-.02-.05.04-.35.03-.26.02-.07.07-.13.11-.19-.03.04,0-.02.02-.02,0-.02.18-.15.12-.12l.05-.04c.08-.03.28-.17.23-.34,0,0-.02.05-.04.08h0c.07-.07.01-.19-.07-.18h0s0,0,0,0Zm1.82,22.48c-.23,6.69-5.25,12.92-1.87,19.63,2.41,4.77-1.25,10.95.31,15.23-.09-3.69,1.39-7.22,1.45-10.89.03-3.61-2.25-6.86-2.08-10.5-.32-2.84,4.62-12.59,2.18-13.47h0Zm-6.58,23.76c4.02,15.4,14.2,29.2,15.72,45.33,1.69-13.66-11.48-32-15.74-45.34h.02s0,0,0,0Zm10.51-48.04c.75-2.08,1.14-4.71,1.17-6.93-.67-.27-.89,2.87-1.11,3.47.02.49-.92,3.8-.05,3.46h-.02,0,0Zm-18.49-32.38c6.01,2.53,14.29,1.89,17.59,8.77,12.8,16.91,5.49,18.95,9.71,34.52,2.1,3.29.79,6.59-2.58,8.2-.04,1.9,4.55-2.06,4.48-3.17.76-2.24-.59-4.44-1.38-6.46-1.73-4.46-.6-9.31-.78-13.94-1.27-9.86-8.03-24.47-18.64-26.49-1.15-.07-8.25-2.35-8.39-1.4v-.03s0,0,0,0Z"/>
          <path d="m151.69,83.87l-.03.09.11-.15c-.54.52-.52,1.81-.77,2.5-.08.71-.61,1.9-.28,2.57.84.29.81-1.89,1.04-2.41.01-.44.94-3.34-.1-2.61h.03Zm6.74,34.3c1.9,2.98,1.76,6.73,3.44,9.81.61,1.06,1.72,2.52,1.93,3.73.31,1.67-1.43,6.42-1.73,8.1.36,1.37,1.96-5.18,2.1-5.09,1.71-3.08-.55-5.71-1.9-8.38-.49-1.07-2.59-11.17-3.83-8.17,0,0,0,0-.01,0Z"/>
          <path d="m164.38,133.88c2.18,2.2,1.19,6.15,3.34,8.34,1.03.2-.44-2.12-.36-2.66-.43-1.62-.66-6.35-2.97-5.69h0s0,0,0,0Zm-20.03,24.31c8.54-1.34,16-8.61,22.76-14.1-.73-1.79-9.04,6.4-10.65,7.23-3.61,2.77-7.66,5.08-12.13,6.12-1.29.44.1,1.63.1.67-.05-.04-.12.03-.08.08h0Zm23.63-14.66c1.15,3.62,2.81,7.85,3.97,11.51.16.43.62,1.95,1.18,1.26.2-.98-.66-2.47-.89-3.42-.52-.98-3.19-10.64-4.27-9.35h.01Zm-16.5,15.64c.11.2.31.06.36-.11-1.39-3.26-.8,12.31,1.27,9.84-1.03-2.17-1.13-4.92-1.04-7.31-.1-.43-.07-2.89-.62-2.43,0,0,.02,0,.03,0h0Zm.5-.17c2.83,1.33,6.16,2.86,9.21,3.52,1.38-.91-3.71-1.95-4.29-2.36-.76-.06-5.21-2.4-4.92-1.16h0Z"/>
          <path d="m162.29,163.21c3.88-.79,7.39-3.69,10.48-6.05.22-1.76-2.34.79-2.95,1.08-1.2.88-3.69,2.52-4.98,3.26,0,.15-3.49,1.41-2.55,1.7h0,0s0,.01,0,.01Zm-17.99-3.96c1.18,3.04,4.17,6.43,5.88,9.26.19.71,2.42,3.07,2.39,1.33-.65-.48-1.43-1.67-1.89-2.34-1.02-1.46-3.07-4.4-4.1-5.86-.5-.46-1.59-2.77-2.29-2.39h0,0Zm-.44-13.99c2.57.5,6.04,0,8.66-.09,3.65,0,4.09-1.31.08-.64-1.47.12-4.44.29-5.91.33-.67.17-2.6-.24-2.82.41h0s0,0,0,0Zm-.7,6.11c1.87-.02,3.96-.53,5.67-1.28.16-1.04-2.26.27-2.96.27-.33.17-3.47.5-2.71,1.01h0Zm-56.13-7.27c-.39.23-.67.89-.08.59,3.05-4.42,5.23-10.15,8.68-14.31-1.04-2.25-8.2,12.68-9.02,14.17l.37.1.08-.54h-.03s0,0,0,0Zm8.27,2.92c1.27-1.45,2.7-3.48,4.15-4.79,4.15-4.18-2.65,1.05-3.3,2.82-.21.41-1.38,1.74-.84,1.96h-.01s0,0,0,0Zm-16.28,17.59c-2.64,2.39-6.73,7.08-8.61,9.82,1.46-1.64,5.16-5.78,6.6-7.33.32-.58,2.42-2.04,2-2.49h.01Zm-3.64-.74c.11-.09.18-.21.21-.34l-.05.06c.5-1.85-2.68,2.35-1.61,2.22.38-.64,1.23-1.88,1.7-2.47h-.3c.03.07.03.15.07.21v-.08c0,.13-.33.47-.03.39h.01s0,0,0,0Zm77.36,7.79c.24,4.68,5.4,10.58,7.55,14.65,5.5,6.71,4.8,19.31,9.56,24.68-2.6-7.4-3.93-17.31-8.07-24.03-1.6-2.47-5.4-8.47-6.79-10.97,0,0-1.05-2.11-1.05-2.11-.42-.53-.48-2.42-1.2-2.21h0s0,0,0,0Zm20.01-12.99c2.17,6.08,1.57,12.72,3.11,18.9,2.83,8.83,7.28,19.54,10.29,27.1-1.12-9.28-6.72-17.29-9.13-26.24-2.26-5.82-.68-15.6-4.27-19.75h0s0,0,0,0Zm13.95,47.96c4.34,6.23,6.31,13.68,6.42,21.15,1,.64.7-1.5.74-2.01-.2-6.58-2.49-14.96-7.15-19.14h0,0Zm4.97,22.21c-1.28.95-2.16,2.49-3.5,3.43-.84.55-6.19,5.37-2.64,2.93,1.9-1.55,4.2-3.28,5.68-5.24.15-.24.77-.97.46-1.13h0s0,0,0,0Zm-22.11-16.29c-.05,5.92-4.65,5.11-1.7,13.47.87,3.74,3.26,13.69,4.18,17.55.15,2.93,3.86,6.3,5.93,2.87,1.22-3.82-1.46-7.9.13-11.86-1.46-.93-1.26,6.43-.72,7.63,1.93,5.98-4.16,6.76-4.76.75-1.22-5.13-3.44-14.35-4.66-19.39-2.09-4.1,3.11-7.22,1.89-11.11-.08-.18-.37-.12-.31.08,0,0,.02.01.02,0Zm6.18,16.08c.7,2.11,2.78,6.84,4.68,6.98-1.7-2.17-3.33-4.54-4.38-7.12-.09-.18-.35-.05-.31.13h0s0,0,0,0Z"/>
          <path d="m179.39,236.44c.11-.33.19-.68.26-1.02h-.6c.44,1.9-.17,3.84-.17,5.68,1.61-.32,1-4.42.79-5.86-.75-.9-.65,1.04-.26,1.19h-.02s0,.01,0,.01Zm-3.97,11.33c-.68,1.43-2.16,3.3-2.37,4.88-.28,1.55,1.38,3.78,3,3.15.29-.51-.58-.53-.9-.67-1.16-.45-1.72-1.79-1.34-2.95.06-1.03,2.96-4.17,1.61-4.41h0Zm1.54,7.06c2.17-3.64,4.15-8.34,6.98-11.82,1.45-1.63,1.1-4,2.03-5.93-.83-1.33-1.65,2.85-1.74,3.53-1.39,3.55-4.54,6.47-5.95,10.15-.17.73-2.1,3.69-1.32,4.07h0Zm2.13-1.97c-.16,1.1,1.43.84,1.55-.21.31-.64,2.27-3.94,2.67-4.62,2.66-3.33,4.44-7.22,4.45-11.49.11-.36-.43-.5-.56-.16-.33,5.86-3.02,8.77-5.89,13.58-.32.61-1.21,2.3-1.49,2.91-.18.4-.52-.15-.75,0h.02Z"/>
          <path d="m186.76,241.91c3,.61,2.57-4.13,3.11-5.96-.07-.59,1.42-3.82.09-3.14-1.5,2.19-.12,8.19-3.1,8.77-.16,0-.26.25-.09.33h0Zm2.81-3.06c1.6,1.02,1.84-1.62,2.08-2.61-.03-.62,1.81-5.82.68-5.29-.83.79-1.21,8.21-2.42,7.47-.25-.19-.56.23-.33.43h-.01ZM52.72,147.04c7.75,18.05,19.17,12.19,30.51,19.5,1.94,1.64,4.73,5.09,7.62,4.71-5.15-1.63-8.41-8.81-14.78-9.02-12.32-.94-17.5-6.95-23.36-15.19h0,0Zm23.89-12.95c2.74,1.79,5.11,4.02,6.44,7.16.43.51,1.69,3.87,2.33,2.77-1.22-3.05-5.25-10.59-8.77-9.91v-.02h0Zm5.22,10.34c4.64,2.93,11.63,1,14.94,6.24.46.66,3.41,4.67,3.68,2.96-2.03-1.89-3.43-4.72-5.81-6.21-3.85-2.25-8.63-1.37-12.6-3.35-.24-.12-.44.21-.21.37,0,0,0,0,0,0Zm9,10.93c-5.72,8.42,5.19,9.41,10.79,11.15,2.24.91,4.84,4.74,7.36,2.98,1.03-2,1.14-4.61-.3-6.43-2.28-2.43-5.04-4.73-6.97-7.53-.13-.15-.43.01-.35.21,1.35,4.04,6.18,5.68,7.53,9.59.58,7.87-4.92.74-8.33-.17-4.01-.96-13.06-1.66-10.28-7.87.22-.41,1.28-1.92.58-1.92h-.03s0-.01,0-.01Z"/>
          <path d="m100.01,154.33c-1.17-1.19-3.01-1.59-4.64-1.71-.81-.3-2.68.57-.83.65,1.58-.09,3.18.29,4.63.91.19.06.87.45.83.14h.01Zm2.91,1.61c6.31,2.05,8.01,9.4,13.06,13.1.45.3,2.34,2.51,2.33,1.27-.82-1.06-2.51-2.32-3.5-3.26-3.94-3.3-6.14-10.79-11.86-11.12,0,0-.02,0-.03,0h0Zm-11.42,12.25c2.96,5.3,7.1,13.28,14.35,12.03-5.43-1.97-7.81-1.89-11.43-8.25-.46-.45-2.5-4.39-2.91-3.78h-.01Zm25.63,3.09c-1.89,1.67-3.99,3.3-6.47,4.04.07,1.59,6.81-2.84,6.47-4.03,0,0,0,0,0,0Zm3.8-39.21s.04-.06,0-.06-.04.06,0,.06Zm-15.37,48.8c5.6,2.49,11.65,2.83,17.53.9,2.34-.94,4.54-3.46,6.82-4.58.32-2.26-5.46,3.36-6.49,3.68-4.02,1.23-8.52,2.17-12.67,1.04-1.54-.26-4.01-2.01-5.2-1.03h.01Z"/>
          <path d="m129.61,176.07c-.97-2.58-5.07-2.74-7.1-1.24-2.46,2.26-6.33,2.97-8.98.61-.97-.8-2.32-2.77-3.7-2.77-.66.57,1.21,1.03,1.46,1.57,1.5,1.63,3.31,3.3,5.66,3.31,5.16.73,7.34-5.94,12.7-1.46h0l-.03-.02Zm-13.79-1.74c3.66,3.39,6.5-1.32,10.04-1.9,2.48-2.18,5.2-5.56,8.94-3.52,2.38.97-5.12,6.06-3.09,6.49,2.87-3.07,7.77-8-.11-7.67-3.28-.07-4.19,3.65-6.94,4.32-3.28,1.19-4.86,4.33-8.72,2-.16-.04-.29.2-.12.28h0Zm14.31-7.52c1.43-1.75,5.59-3.27,6.84-.89-.24.72-1.17,1.45-.73,2.28.13.25.52.18.6-.07,3.97-5.51-6.84-5.01-6.71-1.3v-.02h0Zm-11.2,4.04c5.09.36,8.81-4.29,10.13-8.77.65-2.06,3.58-5.36,5.56-3.4-.07.95-.44,2.4-.52,3.38,1.1,1.34,1.06-2.41,1.29-3.13-.22-2.99-4.68-1.26-5.71.44-3.65,7.11-3.29,8.68-10.76,11.49h.01s0-.01,0-.01Zm-48.72-7.42c-.69,8.52-6.01,17.3-5.46,25.98.19,5.53.73,13.21-1.14,18.49,5.09-6.58.63-17.84,2.86-26.01.53-4.24,5.68-15.88,3.74-18.46Zm40.83,20c-2.66,10.51-4.36,22.21-2.54,32.99,1.12-6.99-.17-17.74,1.8-25.91,0,0,.53-3.64.53-3.64-.02-.83.83-2.99.22-3.44h-.01,0Zm-9.08-16.5s.04-.06,0-.06-.04.06,0,.06Zm-37.21,41.41c12.19,7.07,26.63,10.22,40.66,9.23.62-.06.64-1.01,0-.98-9.85.49-22.14-.95-31.99-4.88-1.13-.03-9.38-4.62-8.67-3.37h0Zm70.4-35.36c-.59,1.86.43,5.21.51,7.18,1.85,9.4,3.33,21.99,7.77,29.49-2.85-10.82-5.82-21.73-7.23-32.87-.35-.92,0-3.53-1.05-3.81h0Zm18.95,22.26c-1.41-1-2.58,5.72-4.13,6.74-.8,2.03-4.92,3.71-4.32,5.88,3.8-2.97,7.36-7.68,8.45-12.62h0Zm-43.68,5.54c-.07-.05-.16-.26-.26-.18-.01.08.3.34.26.16v.02Z"/>
          <path d="m110.43,200.64l.19-.19c.06-.26-.43.28-.19.2h0Z"/>
          <path d="m110.39,200.61c.13-.02.1-.2,0-.24l.02.05c.04-.14-.28-.08-.18.04h.04-.01s.05,0,.05-.02h-.01s.01,0,.01,0h-.02.01-.02s.07,0,.09,0h-.06s.07.03.07.08h-.02s-.05.06-.01.08h.03l.02.02h-.01s0-.01,0-.01Z"/>
          <path d="m109.59,200.96c9.5.86,20.07.13,27.66-6.39.45-1.62-4.65,2.14-5.26,2.2-6.18,3.03-13.24,4.1-20.06,3.33-.64-.18-2.89-.03-2.33.86h-.01Zm.8,3.64h-.58c-.15.14.56.04.58.07,0,0,.04-.07,0-.07Z"/>
          <path d="m109.89,204.55l-.04-.16c10.37,2.95,21.75-1.03,30.5-6.7.47-.35.06-1.11-.47-.8-8.43,5.21-18.74,8.92-28.73,7.11-.44-.07-1.08-.27-1.47.05-.51.42.23.83.3.52.01-.06-.07-.08-.09-.02h0Zm4.57-110.72l-.09-.08.09.22c.02-.14-.08-.26-.19-.34l.09.16c-.43-.71-1.56-.88-2.33-1.06-1.48.33.16,1.09.86,1.13.42.08.74.47,1.2.39h-.2c.12.05.28.08.39-.01h-.31c.29.24.75-.11.47-.41h.02Zm-.34,3.17s-.06-.06-.08-.09l.11.18c-.4-.74-1.9-.85-2.31-.07-.26.17.11.68.35.48.32,0,.51-.14.86-.11.21,0,.39.18.7.23l-.21-.06c.38.34.91-.17.57-.55h.01s0-.01,0-.01Zm7.67-3.34c1.05-.3,3.08-.91,3.71-1.23.29.06-.07-.05-.11-.1h.01l-.09-.14c.96,1.01,1.17-1.46-.72-.31-.38.21-4.44,1.29-2.81,1.75,0,0,.01.03,0,.03Zm3.82,2.26l.09-.02-.24-.03c.51.12,1.16-.1,1.67-.33l-.03.03c.25-.14.3-.55-.02-.66.16.04-.31-.07-.12-.04-.32-.04-.71.14-1.01.24-.03.01-.52.13-.59.32l.19-.14c-.45.05-.38.7.08.62v.02h-.02Zm-28.97,147.31s.01-.02,0-.02-.01.02,0,.02ZM117.31,13.95c-9.38.02-10.91,15.27-2.77,14.44.72-.67-2.85-.8-3.27-2.38-3.62-5.31,1.84-10.74,6.04-12.04,0,0,0-.02,0-.02Z"/>
          <path d="m117.16,25.14c-4.13.69-3.05,7.58.71,8,.42.12,1.91-.21,1.27-.8-4.38.4-5.14-5.59-1.97-7.19h-.01Zm6.18,2.72c-2.99-1.88-6.32,5.08-2.13,4.68.12-.09.11-.28-.04-.32-1.35-.18-1.7-1.66-.92-2.65.62-1.04,1.81-1.54,2.98-1.44.12,0,.22-.17.11-.26,0,0,0-.01,0-.01Z"/>
          <path d="m125.11,25.18c-1.93.23-2.13,3.42-1.16,4.79,6.22,7.53,16.42-4.38,11.48-11.27-.67-1.15-1.43-2.27-1.98-3.49-1.35-.41.57,2.52.86,2.99,7.41,12.1-13.87,18.75-9.2,6.98h0Z"/>
          <path d="m133.97,32.04c-2.69-3.67-6.36,2.54-3.83,5.02,3.69,3.41,10.63.15,10.21-5-.11-.62.89-4.8-.26-4.02-.29.93-.36,1.97-.49,2.94.09,4.41-3.19,7.43-7.6,6.23-3.59-1.59-1.6-7.45,1.97-5.18h0s0,0,0,0Zm4.97-9.77c12.76,7.05-.78,14.55,1.07,18.07.36.62,1.2.98,1.84.55.28-.19.12-.69-.24-.57-.28.09-.6,0-.81-.2-.98-2.77,3.38-4.45,3.86-7.07,1.81-4.22-.78-10.96-5.73-11.2-.22.07-.18.34,0,.42Zm2.73,16.58c4.46,2.71-1.9,8.5-4.29,3.83-.27-.56-1.1-.07-.83.49,1.88,3.89,8.02,1.93,7.2-2.36.24-.81-2.19-3.34-2.08-1.96Z"/>
          <path d="m136.57,41.44c1.2,3.5,2.29,8.86-2.44,10.17-.76.2-1.64.51-2.41.22-.3-.13-.3-.78-.76-.54-1.23,3.89,9.46.45,7.45-5.7-.19-1.07-.77-4.42-1.85-4.14h0s0-.01,0-.01Z"/>
          <path d="m132.91,52.84c-.19,1.54-2.36,4.05-3.76,2.22l.18.13c-.07-.31-.46-.29-.51.02-.11,2.61,3.91.9,4.43-.99.19-.4.34-1.53-.35-1.39h-.02s.03,0,.03,0Z"/>
          <path d="m129.96,53.96c.82,1.53-.09,3.07-1.37,3.96.47,1.05,1.99-.76,2.14-1.47.48-.54-.05-3.62-.77-2.49Zm4.3-16.06c-2.2.58-1.7,3.32-.88,4.84l.34-.44c-2.72.76-3.6,5.37-.72,6.41.18.06.36-.17.26-.33-2.08-2.82-.87-3.81,1.04-5.75-.62-1.38-1.31-2.82-.13-4.16.01-.19.45-.47.11-.55l-.02-.02h0Zm2.93-25.74c5.24,1.79,5.49,6.58,6.33,11.14,1.83-3.2-.75-9.59-4.48-11.29-.48-.38-2.57-1.05-1.86.15,0,0,0,0,.01,0Z"/>
          <path d="m130.14,6.99c11.23-1.16,3.96,9.18,9.92,11.62,1.01-.51-1.83-1.83-1.57-2.86.75-4.97-3.06-12.21-8.36-8.74,0,0,0-.02,0-.02Z"/>
          <path d="m133.28,6.21c-1.56-3.6-10.87-5.65-12.18-2.18,3.8-1.16,8.18-.96,11.14,1.98.24.28.92.86,1.05.21h0s0-.01,0-.01Z"/>
          <path d="m123.49,2.56c-3.74-4.94-16.21-1.4-16.26,4.04,3.13-4.6,10-7.01,15.07-4.3.32.15,1.21,1.06,1.16.25,0,0,.03,0,.03.01Z"/>
          <path d="m111.35,7.7c-4.89-3.28-11.25.95-13.22,5.79-.97,1.95-2.16,8.6-5.26,5.9-.05-.31-.45-.18-.48.06,1.12,4.13,5.53-.68,5.67-3.16,2.28-7.3,6.76-9.57,13.28-8.57h-.01l.02-.02h0Zm-16.32,9.98c-2.89-2.35-8.48.06-7.37,4.08,1.92,4.79,9.78,4.4,13.03,1.21,1.96-2.09,1.09-4.55-.6-.85-2.91,4.04-15.21,2.41-10.69-3.79,1.52-1.43,3.72-1.02,5.48-.39.13.03.26-.14.14-.24,0,0,.01-.02,0-.02Z"/>
          <path d="m105.65,13.15c-9.95,4.44-.67,13.02-4.31,16.21-2.48,1.42-5.35,3.7-4.64,6.96.67.96,1.19-4.21,2.89-4.63,9.54-4.45-3.74-12,6.06-18.53,0,0,0-.01,0,0Z"/>
          <path d="m101.31,21.06c-.3,4.83,9.36,7.26,7.47,4.79-4.29.3-5.61-2.68-7.47-4.8h-.01s.01.01.01.01Zm17.65-14.73c-1.03-.38-1.79.75-2.04,1.61-1.15,4.25,3.08,7.17,6.89,7.3,6.73,1.53,8.99-7.76,1.71-8.25-1.33,0-2.98.77-2.81,2.35-.32,1.19,3.79,2.69,3.29,1.3-.71-.72-3.16-.65-2.03-2.15,6-2.62,7.41,6.77.45,5.96-4.5.57-9.99-5.17-5.47-8.09,0,0,.01-.03.01-.03Zm-28.46,17.64c-4.72,1.09-2.68,10.84,2.01,8.49.32-.76-1.03-.3-1.42-.54-2.92-.99-3.31-6.11-.36-7.37.33-.14.09-.68-.24-.57,0,0,.01-.01.01-.01Zm4.15.62c-4.34,2.77,1.85,7.84,1.13,5.04-4.14-2.01.69-5.11-1.14-5.04,0,0,.01,0,.01,0Zm4.4-.97c-1.92.28-1.83,3.52-.24,4.35.53.73,2.85.36,1.42-.44-1.46-.21-2.25-1.84-1.39-3.08.15-.22.61-.67.21-.83Z"/>
          <path d="m88.76,30.3l-.14.09.18-.03c-4.37,2.7,2.11,11.14,5.55,6.6.15-.31-.23-.63-.5-.38-2.3,1.82-5.68-.73-5.54-3.4-.18-.95.76-1.85.61-2.7l.03.18c.11-.18.07-.52-.2-.35,0,0,.01-.01,0,0Z"/>
          <path d="m88.74,36.73c-1.39,1.46-1.81,5.25.54,5.93.4.04.92-.37.68-.78-.35-.25-.83-.09-1.05-.58-1.28-1.22,1.54-5.28-.18-4.55,0,0,.01-.02,0-.02Zm42.58-17.88c1.05,2.85,1.61,8.48-2.79,8.34-.33-.04-.35.45-.07.55,4.84,1.15,5.36-6.98,2.86-8.88h0s0,0,0,0Zm-2.35-2.19c-2.25,5.64-12.08-1.32-13.15,5.4.03.22.29.26.38.05.67-2.04,2.91-2.84,4.9-2.64,2.56.38,8.09.72,7.88-2.81h0Zm-9.61,22.72c-1.41.47-5.45,8.95-3.44,9.02.9-2.1,1.1-4.7,2.41-6.74.26-.62,1.09-1.71,1.04-2.27h-.01Zm-2.12,11.45c-.44,3.2-3.74-.13-5.36-.42-2.86.04-4.11-1.8-1.36-3.56.45-1.67-2.68.61-2.47,1.59-.38,1.88,1.54,2.76,3.12,2.77,1.86.1,3.17,2.02,5.1,1.67.93-.18,1.86-1.25,1.26-2.19-.11-.17-.32-.04-.29.14Zm-6.38,2.81c-1.56,2.47.75,4.05,1.19.56.26-1.62-.61-.14-.62.53-.07.83-.69,1.65-.72.36.1-.43.27-1.01.2-1.43,0,0-.05-.06-.07-.02,0,0,.02,0,.02,0Zm-10.18,1.23c1.17,1.98,2.91,2.48,5.08,2.19,2.24.84,3.97,2.59,6.44,2.9,1.03.46,2.02,2.58,3.33,1.41.28-.25-.01-.81-.39-.66-1.18.21-1.59-1.53-2.74-1.72-2.37-.25-3.99-1.91-6.11-2.71-1.42-.4-3.07.63-4.29-.58-.3-.25-.98-1.26-1.33-.82h.01s0-.01,0-.01Zm4.65,4.94c.29,1.07,6.46,3.98,5.93,2.04-.93-.41-2.03-.35-2.98-.82-.76.01-2.92-2.28-2.94-1.22h-.01Zm-12.12-20.43c-2.23,5.74-2.98,12.08.96,17.28.54.58,2.65,6.23,3.33,4.28-6.69-13.34-5.48-7.7-4.29-21.56Zm27.85,2.43c7.46-3.81,5.81,4.39,10.15,4.01.79-.93-1.17-.68-1.48-1.35-.4-.43-.63-1-.88-1.52-1.14-2.75-4.37-3.34-6.89-2.22-.34.08-1.59.87-.9,1.09,0,0,0,0,0-.01Z"/>
          <path d="m126.26,41.04c-.31-.9-1.57-.21-1.88.39-2.41,3.02,1.85,4.79,3.04,1.47.26-.75.02-2.12-.92-2.22-.51.03-.42.65-.1.89,0,0,.07.1.1.17.06.07.13.38.11.37.17.99-1.37,2.22-1.92,1.62-.05-.05-.1-.18-.13-.22.02.05-.03-.09-.03-.08-.17-.99.57-2.28,1.66-2.25h-.09c.08.09.19-.01.15-.11,0,0,.01-.03.01-.03Zm-12.37-3.72c-.08-4.13-4.7-5.46-8.07-4.3-.53-.01-1.64-.82-1.63.16,3.48,2.6,5.57-2.8,9.69,4.12,0,0,.01.02,0,.02Z"/>
          <path d="m106.61,33.22c-1.6,4.08,7.7,6.78,6.74,4.25-3.68-.09-5.31-.95-6.74-4.24,0,0,0,0,0-.01Zm4.16.98c.4,0,.4-.62,0-.62s-.4.62,0,.62Z"/>
          <path d="m110.81,33.48c-4.84-.52-2.11,7.96,1.02,2.63,1.35-1.89-1.77-4.26-.63-1.38.08.73-.43,1.62-1.08,2.05-1.98.59-1.04-3.03.56-2.76.26-.03.4-.4.13-.53,0,0,0,0,0,0Zm18.1,10.6c-2.12,1.26-4.46-.17-6-1.65-2.01.28,1.65,2.74,2.5,2.81.81.84,5.56-.51,3.51-1.15h0s0-.01,0-.01Zm-11.52,30.01c1.06.07,2.35-.01,3.41.12,1.23.48,2.28-.63.67-.93-.66-.04-5.56-.65-4.08.81Zm14.96-24.95c-4.32,9.09-18.37,25.37-29.4,18.93-.54-.4-1.05.5-.53.9,10.58,7.18,28.86-10.94,29.93-19.83Zm-9.89-11.63c3.25.14,6.51.84,9.05,2.96,2.63-2.01-10.61-5.57-9.04-2.97h-.01s0,.01,0,.01Zm-6.06-4.24c-.8-1.89-7.75-7.21-8.66-4.46,2.35.48,4.54,1.52,6.3,3.2.3.16,2.51,3,2.35,1.26,0,0,.01,0,.01,0Z"/>
          <path class="cls-2" d="m54.32,200.5c23.56,18.97,83.7,20.16,107.5-2"/>
        </g>
      </g>
      <path class="cls-17" d="m116.45,45.08c3.92-7.74-18.29-18-21.64-10-3.91,7.74,18.29,18,21.64,10h0Z"/>
      <path class="cls-16" d="m131.69,53.51c3.73-6.84-12.59-15.18-15.95-8.15-3.73,6.84,12.6,15.18,15.95,8.15h0Z"/>
    </g>
  </g>
</svg>