<svg xmlns="http://www.w3.org/2000/svg" width="408" height="722" fill="none"><g clip-path="url(#E)"><path d="M-1573-123.1H981.5v905.3H-1573v-905.3z" stroke="#1d1d1b" stroke-miterlimit="10"/><g fill="#fae6e1"><path d="M257.898 58.5c.3 0 .2.1 0 0z"/><path d="M262.199 65.4c-.2-.1-.3-.4-.3-.6v-.6c0-.3.1-.8.2-1.3 3.6-1.2 1.8-5.6-1.6-5h.1c-.4-.2-.7-.4-1-.6.2.1.1.1-.1 0l-.9-.9c-1.1-1.4-1.2-3.3-.6-4.9 3.6-3.7-.3-6.6-4.2-4.3-.6-.1-1.1 0-1.7.3.6-.3.2-.1 0 0-.3.1-.5.1-.8.2h.1c-.1 0-.4.1-.2 0-2 .3-4.5 0-4.7-2.5 0 .3 0-.1-.1-.2v.1c.3-1.9-.2-4.5-2.7-4.1-4.7-2.3-10.7.9-8.6 5.5-.5.3-.8.2-1 .7-4.1-2.3 1.1-7-5.5-5.7h.3c-3.7 1-5.7-7.5-9-2.7h-.1c-1.4.8-5.2.2-7.2-1l.1.1c-.1-.1-.4-.3-.1-.1l-.2-.2c-1.2-3.5-6.5-.7-5.9 2.3.1.4 0 1.1-.2 1.7-1.9 4.9-8 7.5-9 13.1-2.1 3.7-6 .6-7.2 4.2.7-.3.8.5.7 1 .4-.3.7-.9 1.2-.8.1-.3.4-.4.6-.3.2-.6-1.8 1.802-1.8 1.802L189 66l-2.5 7-.5 6 1 6.5 2 5.5-7 5c-9.5 7-3.1 5.1-3.5 14.5-1.4 3.9-4.401 6.7-2.501 11 2.7 6.6 2.503 21.5 2.503 21.5l-.5 6s6.5 4 8.5 4c2.9.9 8.5.5 8.5.5l5-1s3.697-.1 4.897-1.5c3.8-.3 6.3-2.8 9.1-4.9l.6.3c.9-1.1 1.9-2.2 3-3.1.3-.4.4-.9.7-1.3-.2-1 .5-1.9-.1-2.9 0-1.3.5-2.7.1-4-.2-2.7 2.5-4.9 2.3-7.5 3.4-5.6 9.4-10.2 9.2-17.3 3.6-1.9 6.703-4.1 9.703-6.8 3.4-1.7 4.403-6.5 7-9 2-2.8 5.897-5.5 6.497-8.9 1-2.3 2-4.6 3.2-6.8.3-.5.5-1.2.9-1.6 0-.1.1-.2.1-.3-.7-1.4 1-5.6 2.4-6 .2-.1.4-.2.6-.2l.3-.3c3.1-.1 4.9-3.2 1.7-5zm144 247c-2.2-6-11.4-5.9-12.9-12.1-.1-.9-1-1.5-1.7-1.7-8.1-4.8-9-18.2-16.5-24.8 8.3-4 18.1-6.5 25.3-12.1 3.2-6.7-8.1-4.6-11.7-3.9-.2-.1-.4-.1-.6-.2-2.5 0-5 1-7.2 1.6-7.7 2.6-15.6 3.2-23.6 4-4.2-4.9-8.6-9.6-14.2-12.7-4-3.1-9.5-22-14.5-18.6-1.1-1.1-2.9-.8-3.8.4-.7-.6-1.6-.7-2.4-.5-2.2-2.5-4.3-10.7-8.6-7.9-2.1-2.6-6 .3-4.1 3.1-3.2 1-.7 4.8.1 6.8-1.2 1.7.4 3.5 1.1 5-2.1 1.4-.6 3.9.5 5.5-.1.3-.1.6-.1.9-1.2.3-2.1 1.3-2 2.7-.8-.4-1.5-.4-2.2-.1-2.1-.6-3.9 1.8-2.8 3.6a2.37 2.37 0 0 0-.9.8c-2.2-3-6.4.9-3.7 3.4-.2 3.3 3.9 5 6.6 5.6l4.4 2.9c2.8 1.6 4.4 5.5 7.6 6.3 4.4 3.8 7.3 9.7 11.3 13.9 1.2 7.1 6.7 14 13.9 15.9 1.1 1.4 1.1 3.4 2.2 4.9l.8.6c.5 5 8.6 5.1 9-.5.6-.6.7-1.6.4-2.4.7-1.8-1.5-2.7-1.3-4.4 1.2 1.1 2.4 2.4 3.8 3.2 3.4 4.1 6 8.7 9.7 12.4 1.6 2.1 6.9 2.3 7.7-.9 1.5 1.5 1.7 1.3 5.9 4.1 5.9 4 9.1-.4 5.6-5.8-2.9-5.5-6.3-1.9-9.5-8.2 0-1.1-1.2-2-1.6-3 4.3 2.7 8.2 5.7 12.3 8.6 3.2 2 5.9 5.6 9.5 6.8 1.5.7 2.6 2.2 3.9 3.3 3.6 2.4 6.2-3.6 4.3-6.5zm-303.5-78.9c-.1-.4-.3-.7-.5-1 .7-1.4-.3-3-1.6-3.4-.1-.3-.2-.5-.4-.7 0-.6-.2-1.2-.6-1.6 1.6-2.6-1.9-4.7-4.1-3.5-.2-.3-.5-.6-.8-.8.4-1.1-.1-2.4-1.2-2.9-.4-2.1-3-3.4-5-3.5-2.2-5.5-.6-12-3.9-17.2 0-.6-.2-1.2-.7-1.6.2-2.2-2.8-5.2-5-4.1l.5-.1c-1.6-15.6-2.8-14.1-15.8-21.2-2.6-4-6.7-6.7-9.5-10.6-.8-3.3 1.1-7.5-1.4-10.3-2.1-1-4.2-3.8-6.4-1.6-1-1.4-1.5-3.7-3.7-3-1-1.1-1.3-2.5-2.4-3.5 1.2-4.9-2.6-9.2-7.5-10.3-3.4-.8-4.1 3.9-1.2 5.1.3.4.6.9.8 1.4-.4.7-.2 1.5.1 2.2.6 1.3 1.1 2.6 1.7 3.9-2.7-2.3-6.2 1.9-3.2 3.9 1 2.6 1.8 5.3 2.6 8.1-.9-.5-1.9-.9-2.9-.6-.4-.2-.7-.5-1.2-.7-2.3-2.9-2.3-8.5-5.9-10.2-2.2-1.2-4.8-.8-7.2-1.7-3.1-.9-4.4 3.8-1.3 4.8 2.6 1.6 3.7 5.3 6.2 7 0 .6.3 1.1.6 1.6-.5-.1-1.1-.3-1.6-.3-5.4-3.4-9.4-10.7-16.2-10.7-4.8 1.2-1.5 5.1 1 6.9.3 3.6 5.3 5.2 7.8 7.5 1.6 1.5 2.8 3.9 4.8 4.8 9.2 8 19.3 15.5 25.2 26.6 1.2 4 3.6 7.9 7.3 9.9-.4 3.7-.1 10 3.4 12.3.2.4.5 1.1.7 1.5-.6 1.1-.2 3.6 0 4.9-5.5 8.5 2.4 13.9 9.4 19.3 2.6 2 5.2 3.4 11.1 4.7 3.5.8 6.6.6 9.6.5 3.1.8 6-1.9 8.8-3 2.9 1.3 4.8-2.7 6.5-4.4 1.6-1 3.6-2.4 3.1-4.4zm-61.3-74.8v-.2c0 .3-.1-1.4-.1-1.8.2.3.3.7.5 1-.2.3-.3.6-.4 1z"/></g><path d="M120.102 640.4c-.1-1.1-.8-2-2-2-.355.006-.701.11-1 .3-.2-.5-.7-.8-1.3-.9-.3-1.4-1.3-2.6-2.9-2.2-.7.2-1.2.6-1.5 1.1-.4-.5-1-.8-1.7-.6-.3.1-.7.2-1 .4-1.1-.6-2.7-.3-2.9 1.1-.2 0-.3-.1-.5-.1-.6 0-1.1.3-1.5.7-.2-.9-1-1.3-1.9-1.3-.2-1.9-3.5-2.2-3.9-.2-.3 1.4-.4 2.8-.3 4.2v9.4c.1 1 .7 1.8 1.7 2 .3 0 .6 0 .9-.1.1.6.3 1.1.7 1.6.6.9 1.7 1.3 2.7.7.2-.1.3-.2.5-.4.6.4 1.4.5 2.2.1.4-.2.6-.4.9-.7.3.2.7.3 1.1.3.6 0 1.2-.3 1.5-.7.7 1.2 2.5 1.2 3.3.1.2.1.5.1.7.1 1.2 0 1.9-.9 2-2 0-.2 0-.4.1-.6.9-.1 1.9-.8 1.9-1.9 0-.6.1-1.1.2-1.7.7-.2 1.2-.7 1.5-1.4.5-1.5.7-3.4.5-5.3zm80.5 2.1l.8-4.1c.1-.7 0-1.3-.4-1.7.4-1.9-2.4-3-3.6-1.5-.4-1.2-2.2-1.8-3.3-.8-.3.2-.5.5-.7.7-.2-.3-.5-.6-.9-.7-1.2-.5-2.5-.1-2.9 1.2l-2.9 9.5c-.4 1.5 1 2.8 2.5 2.5h.1c-.1.7-.1 1.3 0 2 .1.6.8 1.3 1.4 1.4.4.1.8.1 1.1 0 .2.6.6 1.1 1.2 1.3.8.3 1.5.1 2.1-.4.4.7 1.1 1.1 1.9 1l-.3 2.5c-.1 1.1.3 2.1 1.4 2.5.9.3 2.3-.3 2.5-1.4l1.6-11.4c0-1.2-.4-2.3-1.6-2.6z" fill="#f4efea"/><path d="M276 367.7c0-1.9-.7-3.8-.9-5.8 1.4-1.6-1.6-17.1-3.2-17.9-1.1-3.2-2.6-6-4.3-8.9-1.4-2.7-5-.6-4.7 2-.6.2-1 .6-1.2 1.1-.1 0-.1 0-.2.1-1.7-1.1-4.1.3-3.9 2.7-1 .2-1.9.9-2.1 2.2-2.6-2.9-5.2 1-5.8 3.5-1.2-.2-2.6.5-2.8 2-.3.2-.6.6-.8 1-1.4-.7-3.2.3-3.4 1.8a2.17 2.17 0 0 0-1 1.1c-1.1-.2-2.3.2-2.7 1.5 0 0-.1 0-.1-.1-.2-1.4-.8-3-2.3-3.1a2.22 2.22 0 0 0-.3-1.6c2.4-1.4.3-5.3-2.3-4.4-.1-.3-.2-.6-.4-.8.6-1.9-1.2-3.8-3.1-3.1 0-.1-.1-.1-.1-.2 2.5-1.5 8.5-5.2 3.3-7.5 0-.8-.3-1.6-1-2.1.1-2.1-2.4-3.4-4.4-2-2.2.9-6.2.6-7.4 2.9-5.4 2-10.8 2.7-16.3 4-2.7-.1-5.5-.9-8.2 0-3.7-.4-7.3-.2-11-.1-3.4-1.4-7.4-1-11-2-.7-.5-2.2.1-1.2.8 0 0-.1 0-.1.1-1.7-.2-3.7.8-3.4 2.8-2.3.5-2.5 3.3-.8 4.5-.2.7-.1 1.4.3 2-.8.1-1.3.5-1.7 1-2.5-.2-6.3 2.2-3.8 4.8-.5 1-.3 2.4.6 3-.2.3-.4.7-.7 1-2.1.2-5.1.7-4.4 3.5-.5-.1-1-.1-1.5.1-.1-.1-.2-.2-.3-.2.4-1.8-1.3-3.1-2.9-2.9.3-.7.7-1.3 1-2 1.5-2.9-3-5.4-4.4-2.4-.2-.1-.3-.1-.5-.1-.9-1.4-3.2-1.8-4.3.1.1-1.1-.7-2-1.7-2.3.4-2.4-3.4-3.7-4.7-1.5l-2.1 3.8c-.6-.7-1.5-1.1-2.4-1 1-2.9 1.5-8.4-3.1-6.5 1.9-3.4-2.8-6.4-4.5-2.6-.3 1-.7 1.9-1 2.9-1.1-1.4-3.4-2.5-4.9-.9-2.4.3-3.3 3.3-4.6 5-3.9 4.8-4.8 12.3-6.9 18.3-1.1 4.6-3.2 9.5-3.7 14.1-.2 1.1-1 2.5-.4 3.5-.1.5-.9 3.6-.9 4-2.4 14.3-5.8 28.7-6 43.3-.1 0-.2.6.3.3-1 .8-2.1 4.8-.7 5.1-.3 1.6-.1 3.4-.4 4.9-.6 6.6-1.8 13.4-1.7 20-1.4 3.9-1.8 8-2.6 12-2.2 2.4-2.6 6.1-3.8 9.1-1.5 2.5-2 5.5-3.1 8.2-2.6 1.2-3.4 14.1-3.2 17.2.4 5.1-2.3 14.9.3 18.7-1.1 2.9.4 6.8.4 9.9-.5 4.1-.3 8.5 0 12.7.4 6.6-1.9 13.9-.5 20.1-.1 6.9.4 15.1-.3 22.1-1.7 1.8-1.1 4.7-.6 6.7-.1 7.2-1.4 14.6-1.4 21.7-.5 1.7-.6 3.4-.3 5.1-.1.2-.2.5-.2.8-.5.7-.6 2.1-.1 2.8-1.2 2.3-.7 5.4-1 7.9 3.7-1.1 7.5.2 11 .7.3.4 1 1.3 1.4 1.4-.1.2-.1.5-.2.7l.9.6c2.1.5 3.8 2.4 4.9 4.3 4.5 1.1 7.8-2.6 11.9-3.6 1.5.2 3.1.2 4.7-.2 2 1.3 4.4 2.5 6.8 1.8 9 4.2 6.7-8.7 3.4-12.8 0-1.5-.3-2.7-.1-4.1 1.2-.7 2.2-1.9 2.7-3.2 1.8-1.5 2.3-4.6.8-6.3-.1-3.7-.6-7.2-.7-10.9.9-2.3.5-5.3.9-7.8 0-3.1 2.3-6.8 1.1-9.7.6-3.1 1.8-6.1 2.5-9.2 3.5-4.7 3.4-12.3 5.2-18 .8-3.2 2.9-6.1 3-9.3.3-1 1.1-2.1.7-3.1 1.7-5.5 3.9-11.6 1.7-17.3 1.9-3.4 1.7-8.9-3-9.4-.7-1.7-.2-3.6-.1-5.3 3.7-6.7 5.8-14.3 8.8-21.3 1.1-3.1 6-6.8 3.8-10.1.5-1.5 2-3.2 1.4-4.8 4-6.9 5.5-15.4 8.1-23 .4-.3.1-1 .2-1.5 1.4-.9 2.3-2.5 1.2-4.1 4.1-13.9 10.3-27.1 13.7-41.1 3.1-5.1 3.3-11.9 6.1-17.4 2.2-3.7 4-7.8 6.1-11.5 12.1 3.4 6 20.3 7.4 29.5-1.9 7.1-.1 15.2.4 22.5-.2.1-.1.5-.1.7-.8 6.2.6 12.5.5 18.8-.6 6.9.5 14.1.3 21.1.5 3.9-1.4 8.3.5 11.9 1 3.2-1.2 6.6-.3 9.8-.5 2.1-1.9 3.8-2.4 6-.7 1.6-3.4 4.5-1.9 6.3-.3 2.7-.5 5.7-.3 8.5-1 .9-1.4 2.4-1.1 3.7-1.6 2-1 4.6-1.5 7-1.5 8.5.2 18.2 1.1 26.9-.1.3.6.7.6 1-2.1 3.3-.2 8.1-.4 11.9-.4.5.2 1.4.2 2.2-.1 10.8-2.5 14.5 0 14.5-1.2 9.4-.3 18.9-.9 28.4-1.2 1.8-1.7 5.2-1.4 7.3-3.1 4.7-7.7 13.8-3.9 18.9.5-.5 1.3.1.8.7.1.1.2.2.2.4 2.4 2.1 5.9 1.6 8.7.8 2.2.7 5.7.8 5.2-2.5 1.7-2 5.1-1.9 6.4-4.2 2.4-.5 4.3-1.8 6.7-2.2 3.7.2 7.2.6 10.6 2.2.8 1.5 1.2 2.5 1.3 4.2l.1.1c1-1.1 2.7 4 2.6 4.7 3.3.2 2.8-3.4 2.4-5.6.8-.9.7-2.5-.1-3.4.5-.7.7-1.7.3-2.5.2-.6 0-1.4-.4-2 0-1.8.4-3.6.5-5.4 1.1-4.3.2-9 .8-13.5-.1-4.1 4.3-9.2 2-12.6.3-1.3.7-3 .9-4.3.8-.9.2-2.2.5-3.3 2.4-4.4 2.7-10.1 3.7-14.9 2.1-6.2 3.7-12.3 5.7-18.5 5.1-6.5 7.5-15.8 7.5-24 2.2-4.2 7.2-9 1.8-13.3 4-4.6 4.5-10.5 2-16.1-.9-2.1.8-4.9-.7-6.6 1.1-7.3 4.9-14.5 3.5-22.1 1.7-3.2 1.4-7 2.2-10.5 1-4.9 3.3-9.9 3-15-.1-1.2 1.3-2.7.7-3.6 1.3-6.3 3.5-12.3 4.4-18.7 2-3.1 1.2-7.7 2.4-11.2 1.3-3.8.2-7.8 1.2-11.5 1.8-11.5 3.7-23.2 2.9-34.8z" fill="#557689"/><path d="M234.001 305.3c-.3-.4-.6-.7-.9-1 .2-1-.2-2.2-1.1-2.8.7-.9.5-2.3-.2-3.2 1.9-1.5.6-5.2-2.2-4.4l-2.9.9 3.6-1.3c3-1.1 1.8-5.8-1.4-4.8-.2-.3-.5-.5-.9-.6-.4-1.5-.9-3.4-2.8-3.4-.2-.5-.5-1-1-1.2 1-.8 1.2-2.4.4-3.5 1.2-1.8-.7-4.4-2.8-3.7-.2 0-.4.1-.6.1-.2-1.2-1.1-1.9-2.2-2 4.4-.3 3.2-6.7-1-4.9-.1-.1-.3-.2-.4-.3 1.6-.5 1.9-2.1 1.4-3.3 1.8-1.5.3-4.6-2-4.3 0-.7-.4-1.4-1-1.9.2-.5.2-1.1.1-1.6 1.9-1.1 1.5-4-.3-4.6 0-1.6-1.6-2.8-3.1-2.4 2.1-.5 2.2-2.8 1.2-4.1-.1-.7-.5-1.3-1-1.7l1.8-.7c2.7-.6 2.2-4.8-.4-4.8-.4-.9-1.2-1.5-2.2-1.6l-.1-.1c.3-.5.5-1.1.4-1.7 2.1-.4 2.1-3.5.6-4.6 1.1-.5 1.5-2.1 1-3.1 1.7-1.2 1.2-4.2-.9-4.5 0-.9-.6-1.7-1.3-2 1.4-.8 1.9-2.5.9-3.8 1.8-.8 3.5-3.5 1.6-5 .2-.5.2-1.1 0-1.7.4-1 .1-2.1-.7-2.8l5.1-1.4c3.7-1.2 1.1-6.2-2.3-4.6-.4-.5-1.1-.9-2-.9.5-.9.5-1.9-.1-2.7.1-.5 0-1-.2-1.5 2.4-.4 3.9-3.3 1.6-4.9.3-.4.5-.9.6-1.4l2.8-1.1c2.7-1 2-4.8-.5-4.9-.2-.4-.4-.9-.8-1.2v-.3c.5-.6.7-1.7.2-2.5.3-.3.5-.6.6-.9 2.8-.4 6.3-3.3 3.1-5.6.4-1.2-.3-2.6-1.5-3.1-.1-.7-.5-1.3-1.1-1.7.5-1 .2-2.2-.5-3v-.2c1-.8 1.1-2.1.5-3.1 1.5-.4 2.7-1.8 2.1-3.4 1-.6 1.2-2.1.8-3 .8-1.3-.1-3.3-1.7-3.7-.3-.5-.9-.9-1.4-1.1 2.7-.8 2.1-4.3-.3-4.8 3.3-1.5 1.1-7.7-2.3-5.9-2.8 1.8-4.3 5.4-7.1 7.3l-8.1 2.6c-2.6.8-2.1 4.3.1 4.8.2.3.5.6.8.7.1.5.5 1.1.9 1.4-.7.7-.9 1.7-.5 2.7-.6.5-.8 1.3-.7 2-1.8.4-2.6 2.2-1.6 3.7-.2.5-.3 1-.2 1.5-.7.3-1.3.6-2 .8-.6.2-1.2.5-1.5 1.1-1 .4-2.2.7-2.9 1.4-.5-.9-1.4-1.6-2.5-1.3 0-.6-.3-1.2-.7-1.7 1.5-.2 2.6-1.8 2.2-3.2 2.3 0 3.4-3.2 1.5-4.5 1-1.8-.5-7.9-2.3-8.3 1.1-2.9-2.4 0-3.4 0-4.4-.4-5.4-1.7-7.9-2.8-3.9-4-5.2-.1-4.9 2.6-2.5-.7-3.9 2.8-2.2 4.4-1.4.4-2 2-1.7 3.3-2.1 1.1-1.2 4.5 1.1 4.8-1.4.9-1.6 3-.4 4-.7.5-1.4 1.4-1.6 2.4-1.5.4-2.4 2-1.7 3.5-1.4.9-1.4 3.4.1 4.1-.5.9-.5 1.9.1 2.7-.6.7-.7 1.5-.5 2.3-2.8.4-4.3 4.1-1.2 5.3-.9 1.4.1 3.9 2 3.9-2.8.7-3.5 5.2-.1 5.4 0 .1.1.1.1.2-1.9.8-1.8 3.8.1 4.5-.2.6-.2 1.1 0 1.6-2.9.7-2.7 4.9.3 5.1 0 .2.1.5.2.7-.2.5-.2 1.1 0 1.7-2.4 3 1.3 6 4.3 4.2.1 1.2.9 2.4 2.3 2.5.1.2.1.4.2.6-3.8.4-5.6 4.8-1.1 5.8-5.7 2.3-2 6.6 2.8 5.7.1.1.1.3.2.4v.2c-1.6.6-3.8 1.3-3.4 3.4-2.5 1-1.5 4.9 1.1 4.8.4.6 1 1.2 1.7 1.3-.1.2-.1.4-.1.7-2.2.9-2 4.2.2 4.7-3.5.8-2.2 5.9 1.3 4.9-.3.4-.4.9-.4 1.4-1.8 1.1-.7 4 1.1 4.4-2.1 2 .2 5.6 3 4.1-1 .4-1.5 1.3-1.5 2.1-.8.8-.8 2.2-.2 3.1-3.8.5-3.3 6.1.6 5.1-.4 1 .1 2.3 1 3-.195.271-.323.585-.375.914a2.14 2.14 0 0 0 .075.986c-1.4 1.1-1.1 3.1.2 4-2.1.5-5.1 2.2-3.3 4.7-1.6 2 .5 4.8 3.1 4.2l.3.6c-2.8 0-4.7 3.4-2.2 5.1-4.8.3-5.2 5.5-.3 5.8-.1.6.2 1.3.6 1.7-.194.449-.251.945-.162 1.426a2.46 2.46 0 0 0 .662 1.274c-1.1.3-2.1.6-3.2.8-3.6 1.4-1.2 6.1 2.2 4.8 0 .1 0 .2-.1.3-2.6.3-6.4 2.2-4 5-2.1.3-2.7 2.7-1.6 4.1-1 .5-1.7 1.5-1.6 2.7-2.6.5-4 5.5-1.4 6.5-2.6 7.6 25.8 5.2 30.5 5.4 3.8.5 38.5-9.1 28.4-14.5 0-.2-.1-.5-.2-.7.7-1.1 1.4-2.3 1.2-3.7.6-1.3 0-3-1.3-3.5 0-.1.1-.2.1-.3 2.3-.4 4.5-2.7 2.8-4.7.8-.4 1-1.9.4-2.7zm-36.5-115.4c.1.3.3.6.5.9 0 .2 0 .4.1.5a2.12 2.12 0 0 0 0 1.9c-1.2 1.1-1 2.9 0 3.8-.4.6-.5 1.2-.4 1.9-1.3.9-1.4 2.5-.7 3.6-.3.5-.3 1.2-.1 1.7l-4.4 1.2c-.2-1.2-1.2-2.2-2.6-2.1.2-1.2-.7-2.3-1.8-2.7 0-.5-.3-1-.6-1.4.8-.6 1.2-1.8.7-2.9 2.5-.8 2.2-4.2.2-4.9 3.8-.2 6.2-4.2 1.8-5.5.8-.7 1-1.7.7-2.6.7-1 .5-2.4-.3-3.2.1-.1.2-.1.3-.2.8.1 1.6-.1 2.4-.1.2.4-.3.7.1.9 0 .1 0 .8.5.6-3.8 3.4 1.2 5.4 4.7 3.9.1.3.3.7.6.9 0 .2.1.4.2.6-1.4.7-2.3 1.8-1.9 3.2z" fill="#f4efea"/><path d="M335.002 231.1c-5.7-4.9-7.6-12.8-13.1-17.9-2.2-2.5-1.9-6.5-4.1-8.9-1.2-6.4-6.7-10.7-10.4-15.8-2.2-3-2.6-7.9-5.6-10.2-.2-.8-.7-1.6-1.4-2-2.9-9.4-1.2-21.8-7-29.9a32.2 32.2 0 0 0-3.2-10.4c-1.2-3.6-1.7-8-5-10.5-1.3-3.5-3.3-7.2-7-8.7-6.4-9.3-19.5-9.4-29.4-6.6-6.2.2-12.3 1.1-18.5 1.9 0-.9-.1-1.8-.7-2.6-.8.2-2.9 1.7-3.1.4v.3c0 .7 1 2.4.2 2.8 0 .2.1.4 0 .5-.1.4.1 1.1-.3 1.2 0 .1.6.5-.2.4.1 1.2-.4 2-1.1 2.9 0 .4-1 .8-.8 1.3-4.9 6.6-10.6 14.2-8.6 23 .2 0 .2.2.3.2.5 0-.5.8.3 1.2.1.1-.5.3-.5.5.7.1 0 .8.7 1.2-.4-.2-.1.7-.3 1 3.3 9.2 1.2 18.5-.1 27.7-1.1 6.4-3 12.6-3.8 19.1-.7 5.4-1 5.1-1.7 7.4-2.1 9.1-1.5 18.3-1.2 27.6-.7 2.5.6 5.6.6 8.2.6 2.2-.6 5 .7 7 .2 2.5-.1 5 .6 7.5 4.1 23.7 14.5 46.7 16.8 71.2-1 10.5 1 21.3.1 31.9-.1 1.1.1 2.4-.2 3.5-1.5 3.1 2.5 5.2 4.6 2.5 10.2-2.5 20.8-7.8 28.4-15.6 3.2-.1 5.2-4.2 7-6.5 3.2-3.6 2-9.7.8-14-.2-9.2-2.7-18.2-6.1-26.7.2-2.3-2.8-10.6-5-11.5-.9-1.5-.4-3.8-1.9-4.8-.1-.3-.3-.5-.5-.8.9-1.5-1.4-2.7-2.1-4-4.6-9.3-5.502-11.2-4.702-23.1.3-3.7 1.5-10 2.5-14-.2-5.6-2.998-8.7-3.398-14.5.8-7.4 4.4-14.1 6.2-21 .6-1.8 1.6-3.3 2.2-5.1 1.7-3.3.9-8.6.7-12.3 0-.2.1-.4.1-.7 6.2 4 9.4 11.7 11.2 18.6 1.3 7.2 2.3 17.8 9 22 .2 1.7 1.8 2.6 2 4.4-.3 3 .8 7 4.6 6.9-.6 1.3-1.3 3.4 0 4.6 4 4.8 8.9 9.1 12.3 14.4.5 3.7 5.4 2.9 5.4-.6 2.3-3.4 5.7-5.7 8.6-8.5 2.5-1.1 8.2-3 4.4-6.3-1-6.1-1.1-13.4-.9-19.7 2.2 4.4 4.7 8.7 7.2 13 .4 2.9 1.9 5.5 5.8 2.1 1.2-1.1 3.3-1.2 4.5-2.4.5.5 1.2.8 2 .7-.4-.4.1-.9.6-.8.2-.2.2-.3.5-.4 0-.1.2-.1.2-.2v-.4c.3-.1.6.1.9-.1.3-.4.3-1.1-.1-1.6zm-85.6-30.3l.3-1.8.3.3-.6 1.5zm-64.2 78.2c.2-3.9.7-8.5-.6-12.2-.5-1.9.3-4.2-.7-5.9-3.9-19.4-7.2-39.2-10.7-58.5 0-9.2-1.8-18.3.2-27.4 1.8-10.1 4.5-21.1 4.2-31.4 1-6.2-.7-12.1-1.8-18.1.7-4-2.5-8.5 1.8-11.7.8-.9.8-1.9.5-2.7 1-2.4 0-4.1-.6-6.5-.6-.5-.5-2 .1-2.5 0-4.3 3.1-8.1 7.2-9.4.7-.7 2.1-.7 3-1.1-.3-.3-1.1-.2-1.4-.6-.4.2-.8.1-.8-.4h-.3c-.2 1-1.8.2-2.5.6-.9 0-2.3 1.6-2.9.6-.3 0-.6.2-.9 0-7.4 2.3-12.7 7.7-15 15.2-12.1 3.6-24.5-1.5-36.8-.4-10.3 2.5-21.9 7.8-27.7 16.8-4.9 5.8-8 13.8-9.3 21.4-1.6 2.4-1.3 5.5-2 8.3-1.3 4-2.4 8.5-2.3 12.6-1.1 4.4-1.9 8.8-2.7 13.2-1.6 3.7-2.3 8.2-3 12.2-1 2.6 2.2 3.7 3.7 5 .3 1.3 1 2.8 2.3 3.4 2.6 5.1 1.1 10.9 2.8 16-.8 2.6 2.9 4.1 4.8 4.9 3.5 3.3 8.2 7.9 7.3 13.1 0 3.3 4.5 3.1 4.5-.2 1-.7 1.5-1.9 1.1-3v-.1c1.8-2.8 8-9.8 6.7-12.9 1.9-.9 1.6-3.7-.1-4.7-.1-.7 0-1.4.3-2.1 3.9-1.5-.2-7.7.3-11 1.1-4.8 5-6.8 7.9-10.4 2.7 7 .9 15.1 5.1 21.5 4.3 10.1-1.8 22.3 5.2 31.2-5.1 4.6.9 12.6 1 18.2.8 2.4.5 5 1.9 7.2-5.7 15-10.3 30.8-12.5 46.6-.5 4.3-5.9 24.8-3.1 26.2 4.7 5.3 9.9 11.1 16.6 14 7.7 5.3 18.4 9 27.7 10 2.3 2.2 5.8.2 4.5-2.8-1.4-3.2 1-6.9 0-10.2 5.8-23.7 20.5-47 17-72z" fill="#e09531"/><g fill="#b26a15"><path d="M188.1 91.9c-.4-.4-1.2-.6-1.6-1-.4.2-.9.2-.9-.4h-.3c-.2 1-1.8.2-2.5.6-.9 0-2.3 1.6-2.9.6-.3 0-.6.2-.9 0-4.4 1.9-9 3.9-12 7.9.1.2.2.4.4.5-.8 1-1.4 2.3-1.9 3.5-1.7 2.6-4.1 6.7-2 9.7 0 .3-.1.6-.1.9.3.4.5.9.7 1.4.8 1.4.9 3.2 1.6 4.7.4.1.4.1.7-.1-.3-.2.2-.2.6-.4l.3-.3c.2-.2.1-.7.3-.8.3-.6.2-2.5.2-1.7-.2-2.6.4-4.4 1.7-6.7 1.1-2.4 1.6-5.2 4.4-6.1.2.3.5.5.8.7.6-.1 1.7-.1 2 .5.5-.1.7-.2 1-.6 0-.1-.3-.2-.3-.3-.6-.5-.4-1.7.2-2.2 0-.2.1-.4.1-.6-1.1-1.3 1.2-2.3 1-3.6 2.4-4.1 8.8-2.7 9.5-6-.1-.1-.1-.1-.1-.2zm43 18.5c-.3-.5-.7-.8-1.2-.9-.7.4-1.4.7-2.2.9-.1.2-.2.3-.2.5l-.6 2.3c-.2.7.1 1.5.6 2 0 .1.1.3.1.4-.3 1.9 1.8 5.5.5 6.4.2 1 1.1.9 2 .6.1 0 .1 0 .2-.1l.7-2.5c0-.1.1-.2.1-.3l.3-1.3v-.6-1.2-.1c0-.2.1-.4.1-.6.3-1.9-.2-3.6-.4-5.5zm-72.5 97.1c-1.2-4.7-1.9-9.6-2.5-14.5.6-1-.9-2-1-3.1.8-2.3-.4-4.9-.2-7.3.9-.4 1.4-1.3 1.1-2.3.4-2 1.2-5.5 0-7.2-1.5-2-4.8 0-6.8-.1-.5-.1-2.2.1-2.7.4-.1 0-.2 0-.3.1-2.3-.5-4.5.4-6.8.7-1.3-1.1-3.1-.9-4.2.4-1.9.1-5.4 0-5.7 2.3-.4 2.8-.6 6.9 1.1 9.2-.2.3.5.6.5.9.7 9.8 2.3 19.9 5.5 29.4.4.7 1.5 1.2 2.3.9 2.1-1.2 5.1-.5 6.7-2.3.355-.006.701-.11 1-.3 1.6.9 3.1-.6 4.7-.8 1 .5 2-.1 2.9-.6 3.2 2.7 5.4-3.2 4.4-5.8zm94.9-31.4c-2.1-2.3 4.3-7.2-4.1-6.2-1.2-.5-2.4-.5-3.4 0-1-.5-2.2-.4-3.2 0-1.5-.9-3.8-1.4-5.3-.3-2.9-1.3-6.3-.4-9-1.8-2.1-1.3-4.9 1.8-3.4 3.6.1 2.6-1.4 9.5 3.1 8.5l.3-.3c-.5.5-1.2 1.2-1.1 1.9-1.2 2.2-.3 5.2-.6 7.7-.2.3-.1.9-.1 1.3-.4 5.4-1.1 10.9-1.7 16.3.1 2.7 3.5 2.4 5.2 2 3.6.9 7.9.3 11.6.3.5.1 1.1.1 1.6-.1 2.3 1.9 6.7.5 4.4-2.8 2.2-8.4 4-16.8 3-25.5 2.7.4 4.3-2.1 2.7-4.6zm80.8 55c-.4-.5-.9-1.1-1.5-1.2-1.3-3.4-2.9-7.2-6-9.5-3.2-2.4-4.3-9.7-9.3-8.3-3.3-1.5-7.3-.6-9.9 2.1-11.3 1.8-25.1 15.2-24.7 26.7.6 1.1 2.4 2.1 3.4 2.7 1.4 1.7 1.5 5.7 4.4 5.8a87.6 87.6 0 0 1 3.7 4.8c.2 1 .9 1.9 1.8 1.7-.2 3.4 5 4.7 4.9.6.6-2 3.2-2.6 3.7-4.6 2.6-.2 4.1-3.8 6.4-5 1.6-1.1 5.6-1.6 4-4.2-.9-5.5-.5-11.7-1.5-17.1l.2-5.8c.1.2.3.9.4 1.1-1.8 2.1.8 3.8 1.8 5.3 1.4 3.3 3.7 6.2 5.4 9.4-.7 2.9 3.8 3.5 4.3.7 1.3-.3 3-.7 4-1.7a3.02 3.02 0 0 0 2.1-.2c2.1.9 3.9-1.7 2.4-3.3zm-221-13.2c-2.6-4.8-10.8-17.6-14.8-12-.6.8-1.8.9-2.5 1.6-1.7.3-4.5.3-4.9 2.3-.2.1-.7.3-1 .5-2.1-.1-1.8 1.5-1.8 3.7 0 3.8 2.6 5.4 4.8 6.4 6.7 2.9 6.7 19.8 12 14.4-.1-1.8 2-3 1.9-4.7 1.3-1.5 3.6-3.4 3.3-5.6 1.3-1.2 1.6-3.1 2.6-4.2.7-.6.7-1.6.4-2.4zm-25.101-22.7c0-.2 0-.3-.1-.5s-.2-.5-.4-.6c-1.1-1-2.4-1.7-3.9-1.9-.3-.3-.6-.6-.9-.8 0-.1-.1-.2-.1-.3-.3-.4-.7-.8-1.2-.9s-1.1-.1-1.5.2l-.4.3c.2.9.2 1.8.2 2.6.1 0 .2 0 .3.1.2.1.3.3.5.4l.2.2c.2 0 .3-.1.5-.1.5 0 .6.6.3.8.1.1.2.1.3.2.2.1.4.2.6.4.1.1.2.3.1.4.2.1.4.3.5.4s.2.3.1.4c.2.2.4.5.6.8.1.1.1.2 0 .3.3.2.6.3.9.4.7.2 1.6-.1 2.1-.7.1 0 .1 0 .2-.1.4-.2.7-.5 1-.9.1-.2.1-.3.2-.5-.1-.1 0-.3-.1-.6z"/></g><path d="M270.701 57c1.6-4.4 3.3-9.4 2.3-14.1.6-1.6-.8-3.8-1.9-4.9.8-6.8.4-18.2-8.5-18.8.5-4.8-3.4-9.8-8.6-9.1-1.4-5.9-9.2-4.2-13.7-4-.6-1.9-2.6-2.5-4.2-3.1-1.1-.9-2.6-1.9-4-1.8-5.2-2.4-19.3 6-21.5 11.1-5 .3-9.8 3.6-11.3 8.7-2.3 2.7-4.1 5.7-5 9.2-8.3-11.4-23 3-10.5 10.2-2.5 2.9-2.9 7.3-1.1 10.7-1.5.9-3.2 3-1.7 4.6.3 1.3 1.1 2.3 1.9 3.3-.3.6-.6 1.3-.9 2 .5 0 .4.6.4.9-1.8 2.4.3 6.4 2.7 7.5 2.2.8 4.5-.7 3.5-3.1.3-1.4 1.6-2.5 1.6-4 .1-.2.2-.3.3-.5 1.3 1.5 3.9 3.4 5.6 1.2 1.5-2.6-2-5-.1-8 3.5-5.1 10.3-7.4 9.4-14.7 3.1 4.3 10.2 5.2 13.8 3.4-2.9 1.4 4.1 3.6 7.2 3.3-.1.4.3 1 .4 1.4-2.4 4.9 7.9 10.1 8.9 3.7-.4-.8-1.2-1.4-1.1-2.3l-.6-.3c.3-.6.4-1.3.5-2 .5 0 .9-.1 1.4-.1.9-.9 2.3-1.6 3.5-.9.2-.1.4-.2.5-.3h.6c-.2 7.3 8.7 8.4 13.2 4.2-.8 1.7-2.6 2.8-2.6 4.9.5 3.5 2.1 8.5 6.3 8.9-1.1 2.3-2.5 5.6.1 7.5-2.2 1.3-4.3 3.6-4.1 6.3-1.5 5.8-4.8 10.8-7.2 16.3-.2.5-.7.6-.9.3-.2.4-.4.7-.6 1.1.02.633.269 1.237.7 1.7 1.6.2 2.3-.2 3.3-1.6.1-.4.8-.8.6-1.2.1-.1.2-.3.3-.4 2.3-.4 5.699-4.4 5.899-6.7 5.9.4 9.6-7.6 8-12.5.3-.4 0-1.1 0-1.5 9.8 5 11.601-9.5 4.101-10.3 1.2-2.1 2.5-3.9 3.1-6.2z" fill="#6d5333"/><path d="M198 176.4c12.7 2.5 15-27.8-3.7-23.5-.4-.4-.8-.5-1.3-.5-7.1-5.2-5.4 18-4.3 21.4-1.2 4.5-1 9.6-1.7 14.3-2.3 5.1-4.2 11.9-2.5 17.6-.1 2.8 4.3 3.7 5 1.1 2.3-.7 4.1-1.6 6.5-1 5.1-.3 7.5-6.6 7.7-11 .092-.047.169-.119.222-.207a.55.55 0 0 0 .078-.293c-.2-1 .4-2.3-.1-3.2.4-2.5-1.3-5.3-3.9-5.8-1.9-1.9-4.6-3.1-7.1-3.8 0-.4.1-.7.1-1.1-.6-.3-1.1-1.2-.8-1.7-.2-.6.7-1.1 1.2-1.3v-1.1c1.3-.2 2.7 0 4-.1l.6.2z" fill="#443e3d"/><path d="M121.3 657.6c.6-3.1 1.6-6.9.2-9.7 0-1.7-.1-3.5-1-5.1.6-1-.5-1.8-1.2-.8-1.8-.3-2.6 1.5-2.8 2.9-3 2.2-6.3 4.5-9.8 6.2-1.2-.1-2.3.2-3.4.8-2-8.7-10.3-17.1-19.7-16.8-4.7-.6-8.3 5.6-12.1 8.1-4.9 2.9-11.8 7.6-10.5 14-2.9 1.9-6 3.8-8.3 6.4-7.2 5.3-15.5 11.6-18.1 20.3-1.1 1.1.1 3.4 1 4.3-.1.1-.3.3-.4.5-1.4-.3-2.8 1.1-2.3 2.5.9 3.2.1 7.1 3 9.4-.4 1 .3 2 1.1 2.8 0 .6.5 1 1 1.3.3.2.5.6.9.8 1.2 1.2 2.7 2.3 4.5 2.6 1.1 1.4 3.3 1.1 4.9 1.6.5.1 1 .2 1.4-.1 10.7 1.8 22.7-1.9 30.8-8.9 1.7.2 4.8-2.2 4.3-4.1 5.3-5.1 9.1-11.3 13.5-16.9.6-.6 1.3-1.1 1.7-1.9 10.9-1.4 23.8-7.3 21.3-20.2zm131.3 43.7c0-.8-1-1.1-1.3-1.9.4-2.8 1-7.1-2-8.7-1.5-3.2-1.6-8.8-4.9-10.5-1.6-5.1-4.7-9.6-6.8-14.4-.3-1.2-.7-2.5-1-3.7 1.9-3.1-.5-8.9-2.1-12-.3-2.9-2.1-6-5.2-6.6-.8-6.1-4.8-16.1-12.6-13.5-6.1.8-12.8 3.2-16.5 8.4-2.9 2.8-2.4 9.2-1.1 12.7-3.7.4-5.9-4.7-8.3-7-.4-1.3-.2-2.8-1-3.9 0-1.3-1.5-2.2-2.7-1.6-6.3 10.9-3 28 6.7 35.7.7 1.9 2.6 3.6 3.8 5.2.7 11.7 6 30.5 17.2 35.8.7.5 1 1.3 1.9 1.3.1.1.4.6.5.7.2 2.3 3.6 1.7 5.3 2.3a3.06 3.06 0 0 0 .5.7c.9-.5 2.1.8 3.1 1 .3-.6 1 0 1.5.2.5-.2.9-.5 1.2-.8 1.2 1.3 5 2.6 6 .1 13.5-.5 18.9-4.8 17.3-18.4l.5-1.1z" fill="#6d5333"/><path d="M219.501 59.7c-.1-.4-.2-.7-.5-1-.1-.1-.2-.2-.4-.2a.76.76 0 0 0-.2-.4l-1.1-1.1c-.4-.4-.9-1-1.5-1-.2-.2-.3-.5-.5-.7-.3-.4-.8-.5-1.1-.3-.4-.6-1.2-.8-1.9-.7l-3.2.4c-.3 0-.5.3-.6.6-.8 2.8 1.3 5.4 3.8 6.4 1.3.5 2.8.7 4.2.8.6 0 1.2-.1 1.6-.6h.2c.3-.1.4-.3.5-.5.1 0 .1-.1.2-.1.1-.1.1-.2.2-.2.1-.1.1-.2.1-.3.3-.5.3-.8.2-1.1zm24.8 12.2c-1-2.3-2.1-4.9-4.5-6-1.1-.6-2.5-.8-3.7-.3s-1.9 1.9-1.3 3.1c.1.5.3 1 .6 1.3l.1.1c.2.9.7 1.8 1.6 2.2.6.3 1.3.2 1.8-.1h.2c.3.8 1.1 1.2 2 1.2.4 0 .8-.1 1.2-.2s.8-.3 1.3-.2c.7.5 1.2-.6.7-1.1z" fill="#fff"/><path d="M217.198 57.4c0-.1-.1-.3-.1-.4-.1-.3-.2-.5-.4-.7a1.39 1.39 0 0 1-.3-.4c-.1-.1-.3-.2-.4-.3a1.69 1.69 0 0 0-1-.3c-.2 0-.4 0-.5.1-.3.1-.6.3-.9.5-.1.1-.3.3-.4.5 0 .1-.2.4-.2.5s-.1.5-.1.5v.3.3.1c0 .1.2.4.2.5.1.1.3.3.3.4.1.1.3.3.4.3s.2.1.3.1.2.1.3.1c.2 0 .4 0 .5.1.357.008.809.103 1.102-.1.2-.1.3.1.5-.1s.303-.5.403-.8c.4 0 .395-.8.295-1.2zm26 11.2c0-.3 0-.5-.2-.8-.1-.2-.2-.5-.4-.6-.1-.1-.3-.2-.4-.3a1.69 1.69 0 0 0-1-.3c-.2 0-.4 0-.5.1-.2.1-.4.1-.6.3-.2.1-.3.2-.5.3s-.4.3-.5.4l-.1.1c-.1.2-.3.3-.4.5v.1c-.1.2-.1.3-.2.5v.1c-.1.6-.1.6 0 1.2v.1c.1.2.1.3.2.5 0 .1.2.3.2.2 0 0 .1.2.2.2.1.1.2.1.2.2 0 0 .2.1.2.2.1 0 .4.2.5.2.2.1.4.1.6.1h.1s.4 0 .6-.1.3-.1.5-.2.3-.2.5-.4c.1-.1.3-.3.4-.5 0-.1.2-.4.2-.5v-.4c.106-.11.175-.25.2-.4.1-.2.2-.5.2-.8z" fill="#334f2b"/><path d="M219.4 100.1c-.3-.8-1-1.2-1.8-1.2-.2 0-.4 0-.6-.1h-.1-.2c-.4-.1-.7-.1-1.1-.2l-2.4-.7-.2-.1c-.2-.1-.4-.2-.5-.2l-1.1-.6c-.4-.2-.7-.4-1-.6-.1-.1-.2-.1-.2-.2a.77.77 0 0 0-.2-.4c-.1-.1-.2-.3-.3-.4-.2-.2-.5-.4-.9-.5h-.3-.3-.1c-.2 0-.4 0-.6.1h-.1c-.1 0-.4.1-.5.2s-.3.2-.4.3-.2.3-.3.4c0 0 0 .1-.1.1-.1.2-.2.3-.2.5v.1c-.101.257-.101.543 0 .8 0 .3.1.5.2.7s.3.4.5.6.4.3.7.4h.3c2.5 1.8 5.4 3 8.4 3.5.9.7 1.9.6 2.8 0 .1-.1.3-.2.4-.3.4-.5.5-1.6.2-2.2z" fill="#e9c3bb"/><path opacity=".25" d="M194.4 376.6c-7.1-3-10.3 9.5-14.2 13.6-6.8 10.6-13.9 20.9-20.1 31.9-9.9 20.1-32.6 50.6-29.6 72.8 1.1 7.1 7.9 14.4 15.4 10.3 1.1-2.5 1.3-4.8 2.3-7.3-.7-.2-.4.1-1 .6 6.9-17.8 12.7-35.6 19.1-53.4-.2-2 1.5-4.9 2-6.9 1.3-3 1.5-7.1 3.6-9.3 1-3.5 1.8-7.2 3.2-10.6 1.1-1.9.5-6.3 2.2-7.3 1-2.1.6-5.8 2.5-6.8.2-.6.6-2.4.8-3-.3-.1.3.9.4.7.7-2.9 1.7-6.9 2.9-9.8 1.2-3.1 2.1-5.9 3.7-8.7l.7-.9c-.3-1 .7-1.4 1.7-1.8.1.1.3 0 .4.1.2 0 .8.3 1 .4 0 0-.1 0 .2.1.1.2.1-.1.1.1.9.3 2.2 1.5 2.8 2.2.2.2.6-.3.9-.5 1.1-2.2.8-5-1-6.5zm17 254.9c.1 0 .2-.1.2-.1-1.3.4-2.6.8-3.8 1.5.2 0 .4-.1.6-.1.9-.6 1.9-1.1 3-1.3zm41.8-93.5c-.1-.1-.3-.2-.5-.3.2-.2.3-.4.5-.7.1-1.5-.5-3.4.1-4.7 0-.3.1-.5.2-.8-16.9 15.5-21.1 41.7-32.4 61.4-3.4 5.6-9.7 12-16.8 9.7-6.2-1.6-6.4-11.5-12.3-12.2-.5 9.2.8 19.7-2.2 28.2-.6 1.2-1.4 2.7-1.8 4 .1.3-.3.4-.4.7.1 1.3-1.4 2.5-1.9 3.7-.3 2.9-2.2 5.6-.7 8.6.5.1.7.8 1.1 1.1.096-.057.208-.079.318-.06a.47.47 0 0 1 .282.16c.5-.4 1.2.2.7.7 0 1.6-2.1 3.5-2.7 5.2 0 .3.4.9.1.9-.2.7.7 3.8-.7 3.2-.9 4.9-.6 8.6.5 13.4 1.2 2.1 1.8 4.3 2.9 6.4h.1c.1.7.7 1.3.8 2 2 3 5.9 5.8 7.1 9 .4.8.7 1.6 1 2.5-.5-8.2.5-16.5 1.6-24.7 1.4-.7 1.9-2.7.5-3.6.1-.7-.3-1.3-.9-1.7-.1-1.3.7-2.9-.2-4 .7-1.6.9-3.4 1-5.1.6-.5.9-1.3.7-2 .3.2.7.2 1.1.2.209-.406.478-.777.8-1.1 4.6-7 16.2-11.8 23.3-5.3.1-.1.3 0 .4.2 1.1.9 1.9 1.9 2.4 3.1.1.1.3.1.4.1.1.7.1 1.4.2 2-.1.1-.1.2-.2.4.2.9.2 1.2.6 2 3.4 1.8 4-2.2 3.4-4.5.4-.3.1-1.2.5-1.5-.2-6.3-1-12 .3-18.2-.9-3.4.4-8.6 1.7-12.1.1-.4-.4-.9-.3-1.2-.1-2.1.9-4.1 1.4-6.1.4-2.2-.1-9.1 1.7-9.9.3-.7-.1-2.3.6-2.7.5-2 1-4.2 1.4-6.2 2.1-5.8 2.9-13.3 5.9-18.2.3-.6.1-1.6.8-1.8 1-2.3 1.5-5.2 2.8-7.4 1-1.7 1.3-4.5 2.7-5.8.6-1 .3-2.2 1-3 .2-.8.1-1.1.2-2-.2-.8 1-1.5.9-2zm18.6-473.1c-.3-.6-.7-.5-1.3-.6-.2-.2-.9-.5-1.1-.7-.5-.2-1.1-.6-1-1-.5-.2-.1-.3-.5-.2.5-.7-.3-.7.6-1 3.4-1.2 5.4-12.2 5.2-15.5 2-5.5-4.4-14-9.6-8.5-3.5 3.5-.3 8.1 1.5 11.6.7 1.5.2 3-.1 4.4.2 1 .5 2.3-.1 3.2.1.1.2.2.3.2-1 4.1-4.3 6.5-8.4 7.2.3-.4.1-.1 0-.6-1-.2-1.9-.8-2.6-1.7-.1 0-.2 0-.3.1-.7-.6-1.6-.9-2.3-1.3.9-1.6-.8-3.2-1.9-4.4.1-.1.2-.3.3-.5.6-.1.6-.5.8-.9-.2-.7 0-1.4-.3-2.1h-.7c-.6 2.5-9.6-1.1-9.2-3.3-.9-1.1.1-2.6-.6-3.6-1.1 0-2.2-.1-3.3-.2l-.1.1c-.6.2-.9.8-1.5 1.2-5.2 4.1 4.4 10.5 9.5 10.8l.4.1c.1 0 .1.1.2.1 1.9 2.4 4.7 4 4.8 7.1v.2c.2.2.4.3.2.5 2.1 11.9-10.5 30.2-18.4 38.9-6 4.6-13.6 7.1-21 8.1-1.2-.1-2.5.8-2.2 2.1-.7 2 1.4 3.5 3.2 3.1 4-1 7.7-1.4 4.9 3.9-1.9 2.9-2.2 7.1-.3 10.1 15.9-.7 39.1-.7 50.5-13.1 2.1-3.7.1-9.1-4.5-9.3-10.3-2.1-21.4 1.4-31.9 2.4 0-.6-.2-1.3-.6-1.6.4-.1.2-.4.6-.5-.3-.2.3-.7.7-.8 2.3 0 3.8-3.7 5.8-3.5 3.1-2.7 5.1-5.5 7.2-9h.2c1.1 1.1 2.9.5 3.3-.9 1.1-.7 1.9-1.7 2.6-2.8 2.5-1.1 4.4-2.5 5.2-5.2 6-.5 9.9-9.4 7.4-14.4 6.6 3.2 10.8-1.6 8.4-8.2zm-15.9 7.4c0-.3.3-.1.3-.4.2.2.2-.1.4.1-.3.1-.5.2-.7.3zM140.7 241.5c-1.9-7.4-3-14.9-3.2-22.5 0-1-.7-1.6-1.4-1.8-.1-1.9.1-3.9-1-6-.3-.5-.3-.9-.9-1-.9-5.7-2.6-13.5-3.6-19.1.4-.4.4-1 .8-1.4-.1-.9-.3-2.1-.2-3 0-.2.1 0 0-.2-.2-.1-.4-.2-.6-.2v-.5c-1.6-1.9-1.9-4.6-1-6.9-4.8-16.7-11.5-6.8-12.9 4.6-1.4 5.7-5.3 10.4-6.8 16-1 1.1-.2 14.2-1.7 9.7-.8.6-1.2-.4-1.2-1-.3-.1-.4-.3-.5-.5-.1 0-.1-.4-.2-.4a1.69 1.69 0 0 0-1-.3v-.4c-1.5-.2-2.5-2.1-4.2-2.4-.4.6-.5 1.5-.1 2.1-.6 5.1-2.9 10.6-7.5 13.5-.8.6-1.2 1.6-.8 2.6-.2 2.6-1.9 4.8-3.7 6.7-8.9 9.7-35.5 6.5-33.8-9.6-.2-.5-.4-1.6-.9-1.7-.4 2.8-1.2 6.2-2.3 8.8v.7c2.9 5 6.1 11.2 11.6 13.5 1.1.8 2.3 2.4 3.8 1.9a26.13 26.13 0 0 0 14.5 3.1v-.2h.4s0 .1-.1.2c2.4-.4 5 .5 7.3-.6.1-.1.2-.2.3-.2 2.9-.8 5.3-2.4 8-3.6.4-.8 1.1-1.4 1.7-2 .5 0 .7-.6 1-1-.3-1 1-1.3 1.3-2 .1 0-.1-.3 0-.3.3-.9.9 0 1.1 0 .9 0 1.1-.3 1.8-.8 3.4-4.3 4.9-10.4 8.7-14.3.4-.7.5-1.1.8-1.8-.1-.3.1-.4-.1-.7-.3-.2-.2-1-.4-1.3.9-.8 1.2-2.2.4-3.3 0-.7-.1-1.3.1-2 0 0-.1-.2-.1-.3-.6-.7 1.2-1.2 1.6-1.6-.2-.5-.4-.9-.7-1.3.3-1-.2-2.1-1.1-2.5.6-3.7.1-6.9 2.3-10.2.1 0 .2-1.5.3-.8 1.2-1.6 2.5-2.4 3.8-3.9.1-.4.2-1 .7-.9.1-.1.1-.3.2-.3 0-.1.3-.2.3-.3v.5c.8.4-.1 1.5.1 2.2l-.2.1c.1.1.3 2.8.3 2.9.2.1.1.4.3.5 1.6 9.6 6.5 18.5 6.5 28.2 0 1.9-.3 4.3-.7 6.1-.5 4.3 1.2 8.3 3.8 11.6-4.4 6 .2 17.3 2.2 24.1.8-2.3 1.8-4.7 2.7-6.9.9-2.3 1.2-2.6.8-3.3.4-1 .9-2 1.2-3.1 1.4-1.9 1.4-5.1 1.4-7.4 1.4-1 1.6-3 .8-3.8zm187.5-20.6c-.8-1.4-1.8-2.2-2.7-3.6-1.7.6-3.9-4-4.4-5.5-.1 0 0-.6 0-.6-.6.3-1-1.9-1-2.6-.1-.1.3.2.2.1-.2 0-.3-.1-.4-.3-2-12.6-8.7-11.1-19-10.6-14.6-.7-31.5-4.8-38.9-18.6-1.4-2.9-5-4.7-7.8-2.6v.2c-.6.3-.1.9-.1 1.4-.1.6-.5 1.5-1 1.8-.1.2-.2.2-.3.2 0 .2-.2.3-.2.5-.1 0-.1.1-.2.2-.9-.2-.8.8-.6 1.4.3 7.8 0 16.4-4 23.2l.5.3c1.1.3.1 3.3-.8 3.5-.2.2-.5.2-.7.3l-.1.2c-3 6.1.7 13.7-1.4 20-6.7 7.3-7.2-6.7-8.9-10.5-1.5-1.6-4.2-1.1-5.1.8-5.5 11.3 3.9 23.8 6.9 34.7 4.2 19.3 17.2 39.1 10.4 59.2-3.5 8.2-10.3 16.2-19.1 18.7-.9 0-1.1-1.2-.3-1.1 0-.1-.1-.2 0-.3-.2 0 .1-.1 0-.2-.1 0-.2 0-.3.1-1.3-2.4.3-5.3-1.1-7.8.4-3.5-.6-6.9-1-10.3.2 0 .3-.1.5-.1-.1-.7-.1-1.4-.1-2.1-5.9.9-10.7 5.2-16.4 6.9-10.2 3.2-17.9-7.3-17.9-16.6-.2-18.3 3.1-41.2-9.7-56.2-.6 0-1.1 0-1.7.1.1 1.3.4 2.6.6 3.9h.1l2.7 10.9c-1.9 1.3-.7 4.3.7 5.3.1.7.2.2.2.8-.7-.1-.6.1-1.2.6 0 .2.5.3.5.4 1.3.4-.5 3-.2 4.2.5.4 1.1.8 1.5 1.3.7 12.8-.3 25.7-3.2 38.2-.7 1.3-1.8 3.3-1.8 4.6-2 6.9-5.5 13-7.4 19.9-2.3 1.2-2.6 4-3 6.3-.2-.2-.2.2-.4.1-.5 2.2-1.5 3.8-1.9 6 20.3-.2 41.9-1.7 60.5-10.6.1.2-.2.3-.3.5.6.2.5 1 .2 1 .2 0 .1.5-.2.6-.6.4-.6 1.3-.5 1.9.4.3 0 1.2.6 1-.1 1 .5 1.2.4 2.3-1.2 3.8-.1 8.2-.3 12.1-2.7 3-.3 7.6 2.9 4.1.6-.2 1.1.1 1.7-.2 6 .4 12.8-5.7 17.7-8.7 1.7-1 6.3-.7 5.4-3.6 3.3-1.1 5.1-4.1 7.5-6.3 0 0 0-.1-.1-.1 1.2-1 3.9-1.5 3.2-3.4a1.37 1.37 0 0 1 .4-.3c.4.1.5-.5.9-.7h.2c.5-.7.8-1.7 1.3-2.3-.8-3.8-1-7.8-.5-11.6.5-4.1-.6-7.8-1.1-11.7-.1-1.2-2.1-2.8-1.4-3.8-.9-4.5-3.3-8.6-4.2-13.1-.3-1.6-1.9-3-2.2-4.5-.8-2.5-2.3-4.2-3.1-6.6-2.2-3.9-3.6-7.2-6-11-.3-.1-.6-1.4-.9-1.3-.7-1.4-1.5-2.7-2.2-4.1.4 0 .5.1.8-.2-1.2-2.2-1.6-5.3-.9-7.8-.7-4.4 1.1-9.7 1.3-14.3.9-1.7.8-3.7 1-5.6 0-4.8-2.6-9-2.7-13.8-.6-7.5 5.4-14.1 6.5-21.3 1-.7.5-1 .7-2.6.3-2.3.7-4.8 1.9-6.8-.1-2.3-.1-5.5.5-7.6 0 .1.9.6 1 .6.4-.5.7.5.5 1.1.4.2.8.2 1.2.1.4.1.7.2 1.1.1.5.7 1.2 1.4 1.8 2v.1c-.7-.2-1.5-.1-2 .4 1.5 2.5 3 4.9 4.2 7.6 3 8.2 6 18.3 9.9 26.9.9.2 5.2 4.9 3.7 5.5-.2.2-.3.5-.5.7 0 .4.3.9-.1 1.1.1.1.1.3.2.4 1.3.6 1.8 2.5 2.7 3.6 1.3.5 1.7 2.1 1.2 3.4 5 7 10 13.6 17.1 18.7-.3-2.2 3.2.4 3.9.9h.8c.5.5.6.1.8.8h.4c.7.1.7.7 1.4 1 .4 0 .3.6.6.8.2-.1.4 0 .5.1 1.1.8 2.2 1.4 3.3 2.3 2.2.6 3.6 3.8 5.7 5.1 1.1-.1 4.9 3.6 4.8 4.7.3.3 1 .6.8 1.1.9 1.3 2.5 2.5 2.7 4 1 1.4 2.4 2.4 3.6 3.6v-.5c-1.3-.3-1-.7.4-.3.1-.5.1-2 .1-2.5.2 0 .2.4.4.4.3-2.2 1.2-4.6 2.6-6.1-15.4-8.7-16.1-32.8 2.5-38.6 0-.3-.4-.7-.6-1-.2-.4-.8-1.2-.6-.8.1.3.1-.7.4-.6 0-.1.1-.2.2-.2l.1-.1c.2-.1.2-.8.4-.9-2.6-4-4.5-7.5-6.7-11.8zm-44.3 14a.76.76 0 0 1-.2-.4l.9-2.5c-.3 1-.5 1.9-.7 2.9z" fill="#111119"/><path d="M27.101 176.5c.5-7.1 11.9-12.1 25.4-11.2s24.2 7.4 23.7 14.4c-.5 7.1-11.9 12.1-25.4 11.2s-24.1-7.4-23.7-14.4z" fill="url(#A)"/><path d="M357.499 304.8c15.078 0 27.3-9.044 27.3-20.2s-12.222-20.2-27.3-20.2-27.3 9.044-27.3 20.2 12.223 20.2 27.3 20.2z" fill="url(#B)"/><path opacity=".5" d="M190.1 60.9c2.5-5.9 14.3-6.6 26.4-1.5s19.8 14 17.3 20c-2.5 5.9-14.3 6.6-26.4 1.5s-19.8-14-17.3-20z" fill="url(#C)"/><path opacity=".5" d="M210.699 70.5c2.5-5.9 13.2-7 23.9-2.5s17.4 13 14.9 18.9-13.2 7-23.9 2.5-17.4-13-14.9-18.9z" fill="url(#D)"/><g fill="#1d1d1b"><path d="M68.903 699.4c.1 0 .1-.1 0 0-.1 0-.1-.1 0 0zm118-607.6c-.1-.1-.1-.3-.1-.4 0-.2-.1-.4-.2-.4-.5-.3-1-.3-1.5-.3l-2 .1c-1.3.1-2.5.3-3.7.7-2.4.6-4.7 1.6-6.9 3-4.2 2.6-7.5 6.5-9.4 11.1-.5 1.3-1 2.6-1.3 3.9-.2.6-.3 1.3-.4 2s0 1.5-.1 2.2c0 .6 1 .6 1 0s.3-1.1.4-1.7.2-1.2.4-1.8c.3-1.1.6-2.2 1-3.3.8-2.2 2-4.2 3.5-6 3-3.7 7.1-6.4 11.6-7.8 1.2-.4 2.5-.6 3.8-.8.7-.1 1.4-.2 2.1-.2.2 0 1.7-.2 1.7 0 0-.2.2-.3.1-.3zm-23.9 20.9c.3 1.7 1.1 3.4 1.6 5l.9 2.5c.3.8.5 1.7 1 2.3a.54.54 0 0 0 .276.131c.103.016.208.002.303-.04s.176-.111.233-.198.088-.189.088-.293c0-.8-.5-1.7-.8-2.5l-.9-2.5c-.6-1.6-1.1-3.3-2-4.8-.3-.3-.8 0-.7.4zm4.7 6.1c.3-2.9 1-5.7 2.2-8.4.9-2.1 2.3-5 4.9-5.5 1.1-.2 2.3.1 2.8 1.1.6 1 .6 2.3.3 3.5-.5 2.3-1.9 4.4-2.8 6.6-1 2.7-.6 5.3.1 8.1.8 2.8 1.5 5.6 1.9 8.5.8 5.8.6 11.7 0 17.5-.4 3.3-.9 6.6-1.4 9.9-.3 1.6-.5 3.2-.8 4.8l-.9 5c-.1.5.6.7.7.2 2.9-12.1 5.5-24.7 3.9-37.2-.4-3.1-1.1-6.1-1.9-9.1-.4-1.5-.8-3-.7-4.6 0-1.3.5-2.6 1-3.8 1-2.3 2.4-4.5 2.4-7 0-1.2-.2-2.6-1.1-3.5-.8-.8-1.9-1.2-3-1.2-3.1.1-4.8 3-6 5.5-1.4 3-2.3 6.3-2.4 9.6a.4.4 0 0 0 .4.4.4.4 0 0 0 .4-.4z"/><path d="M177.801 106.9c-.1-.6-.3-1.2-.3-1.9 0-.6 0-1.2.1-1.8.2-1.2.6-2.5 1.2-3.6s1.4-2 2.4-2.8c.5-.4 1-.7 1.6-1l1.7-.8c.3-.2.3-.7-.1-.8-1.4-.2-2.8.7-3.9 1.5-1.1.9-2.1 2-2.7 3.2s-1.2 2.6-1.3 4c-.1.7-.1 1.4 0 2.1s.2 1.5.6 2.1c.1.3.7.2.7-.2zm48.7 2.4c.8 3.1-.4 6.2-2 8.8s-3.7 4.8-5.5 7.3-3 5.3-3.5 8.4-.3 6.2 0 9.2l1.4 9.4c.4 3.4.6 6.7.3 10.1-.3 3.5-1 7-1.6 10.4l-1.9 10.5-2.2 12c-.7 3.9-1.4 7.9-1.9 11.9 0 .2.3.3.4.1.9-3.5 1.6-7.1 2.3-10.7l2.1-10.7 2-10.5c.7-3.5 1.4-7 1.8-10.5s.6-6.9.2-10.4c-.3-3.2-.9-6.3-1.3-9.4s-.8-6.3-.6-9.5c.3-3.2 1.2-6.1 3-8.8 3.5-5.3 10.1-10.7 7.9-17.9-.1-.6-1-.3-.9.3z"/><path d="M227.303 115.2c-.3.4-.2.8-.1 1.3l.3 1.8c.1 1.2.2 2.3.1 3.5-.102 2.358-.68 4.671-1.7 6.8-.4.8.7 1.4 1.1.7 2.3-3.5 3.7-7.4 4.2-11.5.3-2 .3-4.1.1-6.1-.1-.8 0-1.9-.8-2.4-.6-.4-1.3-.2-1.4.6 0 .5.7.7.9.3-.4-.1-.6 0-.4.2l.1.1c.1.1.1.4.1.5.1.4.1.8.1 1.3.1.8.1 1.6.1 2.3 0 1.7-.2 3.3-.5 5-.7 3.2-1.9 6.3-3.7 9.1l1.1.7c1-2.3 1.6-4.8 1.7-7.4 0-1.3 0-2.5-.2-3.7-.1-.6-.3-1.2-.4-1.8-.1-.5-.2-1-.8-1.2.2-.2.1-.2.1-.1zm-37.3 35.8c-.7.7-1 1.7-1.3 2.6l-1 2.9c-.6 2-1 4-1.1 6-.1 4.2.8 8.2 1.1 12.4.1 2.1.1 4.1-.3 6.1s-.9 3.9-1.5 5.9c-1.2 3.7-2.5 7.4-3 11.3-.5 3.8-.4 8.4 2.3 11.5.3.3.8 0 .7-.4-.6-1.6-1.2-3.2-1.4-5s-.2-3.5 0-5.2c.4-3.8 1.7-7.4 2.9-11 1.2-3.8 2.2-7.6 2.1-11.6s-1.1-8-1.3-12c-.1-2.3.1-4.6.6-6.8.3-1.1.6-2.2 1-3.3s.9-2.1.8-3.3c-.2-.2-.5-.3-.6-.1z"/><path d="M184.303 207.1c.1.2.1.3.3.5l-.1-.2v.1l.1-.2c-.1.2-.1.5.1.6.7.6 1.5 1 2.4 1.1.4.1.8 0 1.3 0 .5-.1.9-.3 1.2-.6s0-.9-.5-.8c-.1 0-.3 0-.5.1-.2 0-.3.1-.5.1h-.1-.3-.6c-.2 0-.2 0-.4-.1-.2 0-.3-.1-.5-.1-.3-.1-.6-.2-.9-.4a.47.47 0 0 0-.6.1l.3-.1c-.1 0-.2-.1-.3-.1-.3-.4-.5-.2-.4 0zm5 .4c2.6-1.6 5.8-.4 8.7-1.3 2.6-.8 4.3-3 5.3-5.4 1.1-2.6 1.8-5.6 1.8-8.5-.1-3-1.3-5.6-3.8-7.4-1.2-.9-2.6-1.6-4-2.2l-2.2-1c-.4-.2-1.9-.8-1.7-1.3.1-.5-.5-.9-.9-.5-1.1 1.3.6 2.3 1.6 2.8l3.7 1.8c2.5 1.2 4.9 2.8 5.6 5.7s0 6-.9 8.8c-.8 2.4-2 5-4.5 5.9-3 1.1-6.5-.1-9.2 2-.4.2.1.8.5.6zm1.6-56.1s0 .1.1.1c0 0-.1-.1 0 .1 0 .1 0 .1.1.1.1.1.1.2.2.2.2.2.4.3.5.5.4.3.8.5 1.2.6.3.1.6.1.9 0 .2-.1.3-.3.2-.5-.078-.179-.221-.321-.4-.4-.2-.1-.5-.1-.7-.2-.1 0-.1 0-.1-.1h-.1c-.1 0-.2-.1-.3-.1-.1-.1-.2-.1-.3-.2l-.1-.1h-.1c-.1-.1-.2-.1-.3-.2l-.2-.2-.1-.1c-.2-.3-.7.1-.5.5z"/><path d="M195.802 153.2c2.7.3 5.7.3 8.1 1.9 2.6 1.7 3.2 4.9 3.4 7.8.2 3.1-.2 6.5-1.9 9.2-1.5 2.3-4 4-6.7 3.9-1.8 0-3.6-.5-5.3.3-1.3.7-2.3 2.1-1.7 3.6.2.5 1 .3.9-.2-.1-.7.4-1.4 1-1.8.7-.5 1.5-.6 2.3-.6 1.6 0 3.2.4 4.9 0 2.8-.6 5.2-2.8 6.5-5.3 1.6-3 1.8-6.5 1.6-9.8-.2-3-1.1-6.1-3.5-8-2.5-1.9-6.2-2.4-9.3-2-.9.1-.9 1-.3 1z"/><path d="M200.3 152.7c.6 0 1.2.1 1.8 0 .7-.1 1.3-.3 2-.5 1.3-.4 2.5-1 3.7-1.7s2.3-1.5 3.3-2.3c.5-.4 1-.9 1.4-1.4.5-.5 1-1 1.1-1.7 0-.4-.4-.6-.7-.5-.6.1-1 .7-1.4 1.1-.4.5-.9.9-1.4 1.3-1 .9-2 1.6-3.1 2.3-1.1.6-2.2 1.2-3.4 1.6l-1.8.6c-.6.2-1.1.6-1.6.7-.2.1-.2.5.1.5zm7.1 5.6c1.8-.6 3.4-1.4 5-2.4.8-.5 1.5-1 2.2-1.6.6-.5 1.7-1.2 1.6-2.1 0-.1-.2-.3-.3-.3-.8-.2-1.6.8-2.1 1.2l-2.1 1.5c-1.5.9-3 1.7-4.6 2.3-.8.4-.5 1.7.3 1.4zm-18.9-5c-.1 0-.1-.1-.2-.1s-.1-.1-.2-.1c-.2-.1-.3-.1-.5-.1l.5.4c-.1-.2-.2-.4-.4-.4-1.2-.2-2.4-.4-3.5-.9-.5-.2-1.1-.5-1.5-.8-.3-.2-.5-.3-.7-.5-.3-.2-.5-.4-.9-.5s-.9.3-.8.8c.2.7 1 1.1 1.6 1.4l1.8.9c1.2.5 2.6.8 3.9.8a.55.55 0 0 0 .293-.078c.088-.053.16-.13.207-.222v-.1l-.4.2c.2 0 .3 0 .5-.1.1 0 .1 0 .2-.1s.2-.1.2-.2c.1 0 0-.3-.1-.3zm-1.5 8.4l-4.7-1.1-2.2-1c-.7-.4-1.4-1-2.2-1.1-.4-.1-.8.3-.6.8.4.7 1.3 1.2 2 1.5l2.4 1.1c1.6.6 3.4 1 5.1.9.6-.1.8-1 .2-1.1zm-25.3-55.2c-8.8 2.6-18-.2-26.9-.6-7.8-.4-15.6 1.3-22.6 5.1s-12.7 9.4-16.6 16.3c-4.2 7.2-6.5 15.3-8.1 23.4-.9 4.6-1.6 9.3-2.3 14-.3 2.3-.7 4.6-1.1 6.9s-1 4.6-1.5 6.9c-.2 1.1-.5 2.3-.7 3.4-.1.3.4.4.5.1 1.6-4.4 2.4-8.9 3.3-13.5.9-4.5 1.7-9.1 2.5-13.7 1.5-8.2 3.4-16.4 7.1-23.9 3.5-7.1 8.6-13.1 15.4-17.3 6.5-4 14-6.3 21.7-6.3 8.8 0 17.6 2.8 26.5 1.2 1.1-.2 2.2-.5 3.2-.8.7-.2.4-1.4-.4-1.2z"/><path d="M113.503 111.7c-.6.7-.2 2-.1 2.9l.4 3.3.9 6.7c.6 4.5 1.3 9 2.2 13.4.5 2.5.9 5.1 1.7 7.4.1.2.5.2.5-.1-.1-2.2-.6-4.4-.9-6.6s-.6-4.5-1-6.7l-2-13.4c-.2-1.2-.3-2.4-.5-3.7l-.3-1.9c-.1-.5-.1-1-.6-1.3-.1-.1-.2 0-.3 0zm120.4.4c.5.1 1 .3 1.5.2.6 0 1.2-.1 1.8-.2l3.5-.4 7.1-.9c4.5-.6 9-1.2 13.5-1.1 4.1.1 8.1.9 11.6 2.8 3 1.6 5.5 3.9 7.7 6.5 4.5 5.4 7.5 12.1 9.8 18.7 3 8.6 5.5 17.5 7.3 26.4 1.9 9 3.1 18.2 4.1 27.3l.3 3.4c.1.7 1.1.7 1.1 0-.3-9.4-1.5-18.8-3.3-28.1-1.8-9.2-4.2-18.3-7.2-27.2-2.3-7-5.1-14-9.6-19.9-2.1-2.8-4.6-5.3-7.5-7.3-3.2-2.2-6.9-3.4-10.7-3.9-4.5-.6-9.1-.1-13.6.5l-14.3 2-1.8.3c-.5.1-1 .4-1.5.6.1.2.1.3.2.3z"/><path d="M300.401 170c-.3 1.5.1 3 .4 4.5s.8 2.9 1.3 4.3c1.1 2.9 2.5 5.7 4.1 8.3 1.7 2.7 3.6 5.2 5.6 7.7l3 3.5c1 1.1 2 2.2 2.5 3.7.4 1.4.5 2.8.9 4.2.3 1.2 1 2.8 2.2 3.3.3.1.8-.2.5-.5-.3-.5-.7-.9-1-1.4s-.4-1.1-.5-1.7c-.3-1.2-.4-2.5-.7-3.7-.7-2.9-3.1-4.9-4.9-7.1-3.9-4.7-7.7-9.6-10.1-15.3-.7-1.5-1.2-3.1-1.7-4.7-.4-1.6-.5-3.4-1.1-5-.1-.3-.4-.4-.5-.1zm-21.9-54.2c-.5.3-.6.8-.7 1.3l-.3 2-.7 4-1.8 8c-1.3 5.2-3 10.4-4.9 15.5-1.1 2.8-2.4 5.6-3.5 8.4-.1.2.2.3.4.1 1.5-2.3 2.7-4.8 3.8-7.3s2.2-4.9 3.1-7.5c1.9-5.2 3.2-10.5 4.2-15.9.3-1.5.5-3 .7-4.5l.3-2.4c.1-.6.2-1.4-.3-1.8-.2.1-.3.1-.3.1zm-154.6 59.5v1.1 1.1c.1.7.1 1.5.1 2.2-.1 1.4-.3 2.8-.7 4.2-.8 2.8-2.4 5.1-4.3 7.2-1.9 2-3.9 4-4.9 6.6-1.1 3.1-.4 6.5.6 9.5.1.4.4.9.4 1.3.1.4-.2.4-.5.7-.5.4-.9 1-1.2 1.6-.5 1.2-.4 2.8.5 3.7.6.6 1.4-.2 1.1-.9-.5-1-.6-2.1.1-3 .4-.4.9-.6 1.2-1.1.5-.7.2-1.4 0-2.1-1-3-1.9-6.3-.8-9.4.9-2.6 3.2-4.5 4.9-6.5 1.9-2.1 3.2-4.5 4-7.2a17.4 17.4 0 0 0 .6-4.5l-.1-2.4c0-.4-.1-.7-.2-1.1-.2-.4-.4-.7-.5-1.1-.1 0-.3 0-.3.1z"/><path d="M122.203 189.2c-.2.3-.3.6-.4 1-.1.5-.1 1-.1 1.5l.1 2.7c.194 1.783.495 3.553.9 5.3.8 3.5 1.9 7 3 10.5s2.1 7 2.4 10.6c.2 1.9.2 3.8.1 5.7-.1 2.1-.4 4.2-.4 6.4.1 3.7 1.1 7.6 4.2 9.9v-1.2c-3 1.7-2.7 5.8-2.1 8.7l3.2 14.4c.2.6 1 .3.9-.2-.7-4.5-1.6-8.9-2.5-13.3-.5-2.5-1.6-6.7 1.2-8.3.5-.3.4-.9 0-1.2-2.6-1.9-3.4-5.5-3.4-8.6 0-2 .3-4.1.4-6.1.1-1.9.1-3.7 0-5.5-.7-7.1-3.5-13.7-5.3-20.5-.5-1.9-.9-3.8-1.2-5.7l-.3-2.9c0-.5 0-1-.1-1.5 0-.5-.1-.9-.3-1.4.1-.4-.2-.5-.3-.3zm19.6 42.5c-.2 3.6-.4 7.2-1 10.8-.6 3.4-1.3 6.9-2.3 10.2-2 6.9-4.6 13.6-6.8 20.4-4.5 13.8-8.1 27.9-10.7 42.2l-2 12c-.3 2-.6 4-.8 6-.1 1-.3 2.1-.4 3.1s0 2.1-.1 3.1c0 .6.9.7 1 .1.2-.9.4-1.7.5-2.6.2-.9.3-1.9.4-2.8.2-1.8.5-3.6.8-5.5.5-3.6 1.1-7.3 1.8-10.9 1.3-7.2 2.8-14.3 4.5-21.3 1.7-7.1 3.7-14.1 5.8-21 2.1-6.8 4.5-13.6 6.3-20.5 1-3.8 2-7.7 2.6-11.6.3-1.9.5-3.9.7-5.9s.3-4 .1-6c-.1-.1-.4-.1-.4.2zm103-54.9c.1 0 .1-.1 0-.1s0 .1 0 .1zm-71.1-4.4c-2.3 12.6-1.4 25.6.4 38.2 1.9 12.9 4.9 25.5 7.3 38.3 2.4 12.6 4.3 25.4 3.8 38.2-.2 6.5-1 12.9-2.6 19.1s-3.8 12.2-6.2 18.2c-4.4 11.5-9.3 23.3-9.4 35.7 0 1.5.1 3.1.2 4.6.1 1.1 1.9 1.2 1.8 0-1.1-12.5 3.2-24.5 7.6-36 2.3-6 4.7-11.9 6.6-18.1 1.8-6.1 3-12.3 3.5-18.6 1.1-12.7-.4-25.5-2.6-38-2.2-12.8-5.3-25.4-7.7-38.2-2.3-12.7-3.8-25.7-2.7-38.6.1-1.6.3-3.2.5-4.8.2-.2-.4-.3-.5 0z"/><path d="M117.404 338.4c.3.8.9 1.5 1.4 2.2l1.8 2.2 3.8 4.1c2.7 2.6 5.6 4.9 8.7 7 6.2 4.2 13.2 7.5 20.4 9.6 2.009.594 4.044 1.095 6.1 1.5 2.1.4 4.2.8 6.3.6.6-.1.7-.8.1-1-1.7-.6-3.6-.7-5.4-1.1-1.82-.304-3.623-.705-5.4-1.2-3.6-.9-7.1-2.2-10.5-3.7-6.7-3-12.9-7-18.5-11.8-1.6-1.3-3.1-2.7-4.5-4.2-.7-.7-1.4-1.5-2.1-2.3s-1.3-1.6-2.1-2.1c.1-.3-.2 0-.1.2zm92.3-128.5c-.5 10.1-.9 20.3-.4 30.4.5 10 2.4 19.8 5.3 29.3s6.3 18.9 8.6 28.6c2.2 9.7 3.5 19.5 4.1 29.4.6 10 .4 19.9-.1 29.9-.1 1.2-.1 2.5-.2 3.7 0 1.1 1.5 1 1.6 0 .6-4.9.7-10 .8-14.9.1-5 .1-10-.2-15-.4-9.9-1.5-19.7-3.5-29.4-2-9.8-5.2-19.2-8.3-28.6-1.5-4.7-3-9.5-4.1-14.3-1.1-4.9-1.9-9.9-2.4-14.9-1-10.1-1.1-20.2-.9-30.4 0-1.3 0-2.5.1-3.8.1-.3-.4-.3-.4 0z"/><path d="M227.701 362.2c.8.2 1.5 0 2.3-.1l2.5-.6 4.6-1.4c3-1 6-2.3 8.8-3.7 5.8-2.9 11.1-6.6 15.9-10.9 1.3-1.2 2.6-2.5 3.8-3.8s2.7-2.7 3.3-4.3c.2-.4-.4-.8-.7-.6-1.3.9-2.3 2.2-3.3 3.3-1.083 1.183-2.218 2.317-3.4 3.4-2.3 2.1-4.7 4.1-7.3 5.9-5.2 3.7-10.8 6.6-16.7 8.8-1.6.6-3.3 1.1-4.9 1.6-.8.2-1.7.5-2.5.7-.9.2-1.8.4-2.5.9-.3.2-.3.7.1.8zm28.8-182.2c.3 1.6.4 3.1.4 4.7l.1 4.7c-.1 3.1-.6 6.2-1.3 9.3-1.5 5.8-4.4 11-6.4 16.5-1 2.7-1.6 5.4-1.7 8.2-.2 2.9.3 5.7 1.3 8.4.5 1.4 1 2.8 1.3 4.3s.3 3.1.1 4.7c-.4 3.2-1.5 6.2-2 9.4-.6 3.4-.8 6.9-.5 10.3.4 3.4.9 6.9 2.3 10.1.2.4.7.2.6-.2-.7-3.1-1.5-6.1-1.7-9.3-.2-3.1-.1-6.2.3-9.3s1.3-6.2 1.8-9.3c.3-1.5.4-3 .4-4.5-.1-1.5-.4-2.9-.8-4.4-.8-2.9-1.9-5.6-1.9-8.6 0-2.9.9-5.6 1.8-8.2 1.9-5.6 4.7-10.9 6.1-16.6.8-3.3 1.3-6.7 1.4-10.1.1-1.7 0-3.4-.1-5.2-.2-1.7-.5-3.4-.9-5.1-.2-.3-.7-.1-.6.2z"/><path d="M242.601 257.8c2.7 4.9 5.6 9.7 8.4 14.6 1.4 2.4 2.6 4.9 3.9 7.3 1.3 2.5 2.6 5.1 3.8 7.6 4.6 9.9 8.3 20.3 9.6 31.1a69.89 69.89 0 0 1 .6 9.2c0 1.5 0 3.1.1 4.6s.6 2.9 1.2 4.2c.2.4.7.1.6-.3-.3-1.4-.2-2.8-.3-4.1-.1-1.4 0-2.7 0-4.1 0-2.7-.1-5.4-.4-8-.6-5.4-1.7-10.8-3.3-16-3.2-10.6-8.1-20.7-13.8-30.1l-4.8-8.1-5.2-8c-.2-.4-.5-.2-.4.1zm-1.2-3.3l-2.1-6.1-2-6c-1.3-4-2.7-8.1-3.6-12.2-.2-1.2-.4-2.4-.5-3.7-.1-1.2.1-2.4 0-3.6 0-.3-.4-.4-.5-.1-.4.9-.4 2-.4 3 .001 1.041.101 2.079.3 3.1.3 2.1.9 4.2 1.5 6.3 1.3 4.2 2.7 8.4 4.2 12.5.8 2.3 1.7 4.6 2.7 6.9.1.2.5.1.4-.1zm-74.8 15.7c-.3.7-.3 1.5-.4 2.3l-.4 2.8c-.2 1.6-.5 3.3-.9 4.9-.7 3.3-1.6 6.6-2.8 9.8s-2.6 6.3-4.2 9.4c-1.5 2.9-3.2 5.6-4.7 8.4-1.8 3.1-3.6 6.5-4.1 10.2-.1.4.5.6.6.2 1.2-3.1 2.5-6.2 4-9.1l4.8-8.7c3.1-6 5.4-12.4 6.8-19 .4-1.8.7-3.7 1-5.6l.3-2.8c.1-.9.3-1.8 0-2.7.2-.2.1-.2 0-.1zm1.8-114c-.2.2-.5.4-.8.6s-.5.5-.7.8c-.4.5-.6 1.2-.7 1.8 0 .6.1 1.2.5 1.7.4.6 1.1.9 1.8 1 1.5.1 2.6-1 3.3-2.2.3-.6.6-1.2.7-1.9s0-1.6-.6-2.1c-.5-.4-1.2-.6-1.8-.4-.2.1-.4.1-.5.3l-.1.1c-.1.1-.1.1-.1.2-.2.3-.2.6-.1.9.1.2.3.4.5.4s.5-.2.5-.4c0-.1.1-.2 0-.1 0 0-.1.1-.2.1h.1.1.1c-.1 0 .1 0 .1 0 .1 0-.1-.1 0 0h.1.1c.1 0-.2-.1 0 0h.1c.1 0-.1-.1 0 0s.1 0 0 0c0 0 .1.1.1.2.1.1 0-.1 0 0v.1c0-.2 0 0 0 .1v.1.1.1c-.1.2-.1.4-.2.6.1-.1 0 .1 0 .1s0 .1-.1.1c-.1.1-.1.3-.2.4-.3.5-.4.7-.8 1.1-.2.2.1 0-.1 0l-.1.1c-.1.1-.2.1-.3.2-.1 0-.1 0-.2.1h-.2c-.2 0 .1 0-.1 0h-.3c-.1 0-.1 0-.2-.1-.1 0-.1-.1-.2-.1l-.1-.1c-.1-.1 0 .1 0-.1 0 0 0-.1-.1-.1 0 0 0-.1-.1-.1 0 .1 0-.1 0 0 0-.1-.1-.2-.1-.3v-.2-.4c0 .1 0 0 0-.1s0-.1.1-.2c.1-.2.2-.5.3-.7a3.06 3.06 0 0 1 .5-.7l.5-.8c.2 0-.2-.5-.5-.2z"/><path d="M167.803 203.2c-.5.2-.8.5-1.1.9s-.5.8-.7 1.2a4.47 4.47 0 0 0 0 2.8c.4 1 1.3 1.4 2.3 1.2.9-.2 1.6-.9 1.9-1.7.5-1.2 0-2.5-.4-3.7-.1-.4-.5-.5-.9-.5-.4.1-.8.5-.8.9-.1.4 0 .8.3 1 .2.1.6 0 .6-.3v-.3c0-.1 0-.1 0 0 .1-.1 0-.1-.1 0 0 0 .3-.1.1-.1h.2l-.9-.5c.3.8.6 1.6.5 2.5 0 .1-.1.3-.1.5 0-.1 0 0 0 .1l-.1.1-.3.3c.1-.1-.1 0-.1.1-.1 0-.1.1-.2.1h-.1-.2c.1 0-.1 0 0 0h-.1-.1c.1 0-.1 0 0 0h-.2c.1 0 0 0-.1-.1.1.1 0 0-.1-.1 0 0-.1-.1-.1-.2-.124-.284-.192-.59-.2-.9 0-.4 0-.6.1-1s.2-.7.4-1.1.5-.6.7-1c.5.2.1-.3-.2-.2zm4.8 46.6c.3-.1.4-.3.4-.6-.1-.3-.4-.5-.6-.6-.6-.2-1.2.4-1.6.8-.7.9-.7 2.2-.2 3.1.6 1.1 2 1.5 3.1 1.1 1.2-.4 2.2-1.6 2-2.9-.1-.9-.7-1.9-1.7-1.9-.3 0-.5.1-.7.2-.1.1-.2.1-.3.2s-.3.4-.2.5c0 .1.1-.2 0-.1 0 0-.1.1-.1.2s-.1.2-.1.3c0 .2.1.4.2.6.2.2.5.1.6-.2 0 .1 0-.1 0-.1s.1-.1 0-.1l.1-.1-.2.1h-.3.5.1.1c.2 0-.1-.1 0 0 0 0 .1 0 .1.1-.1-.1-.1-.1 0 0 0 0 0 .1.1.1l.1.1v.2.1c0 .1 0 .1 0 0v.3.1.1c.1-.2 0 .2 0 0 0 .1-.1.2-.1.2l-.1.1c.1-.1-.1.1 0 0l-.2.2-.1.1c-.1.1-.2.1-.2.1s-.1 0-.1.1h-.1c-.1 0-.1 0 0 0-.1 0-.2.1-.3.1s-.2 0-.3.1c.1 0 .1-.1 0 0h-.1-.1c.1 0-.2 0 0 0-.1 0-.1 0-.2-.1-.1 0-.1 0 0 0l-.1-.1-.2-.1c.1.1.1 0 0 0l-.1-.1-.1-.1c.1.1.1 0 0 0 0-.1-.1-.1-.1-.2 0 0 0-.1-.1-.1 0-.1-.1-.2-.1-.3v-.1c0 .1 0-.1 0 0v-.3-.3c0 .1 0-.1 0 0v-.2c0-.1.1-.2.1-.3 0 0 0-.1.1-.1 0-.1.1-.2.2-.2l.1-.1.1-.1h.1c.1-.1-.1.1 0 0-.1 0-.1 0 0 0h.1.1c-.1 0-.1 0 0 0h.1c-.1 0-.1 0 0 0v-.1-.2c0-.1 0-.1 0 0-.2.2 0 .6.3.5zm4.4 37.8c-.3-.1-.5-.1-.8-.1s-.5 0-.8.1c-.6.2-1 .6-1.4 1-.7.9-.9 2.2-.2 3.3.6.9 1.7 1.6 2.8 1.5s2-.8 2.3-1.9a2.21 2.21 0 0 0 0-1.6c-.1-.2-.2-.5-.4-.7-.1-.1-.2-.3-.4-.3-.4-.2.2 0-.2-.1-.1 0-.1 0-.2-.1-.4-.1-.7.3-.5.7 0 0 .1.1 0 .1 0-.1.1.2 0 .1 0 .1 0 .1.1.2 0 .1.1.1.1.2s.1.2.1.2v.1c0-.1 0-.2 0 0v.2.2.2c0 .1 0 .1-.1.2v.1c.1-.2 0 .1 0 0 0 .1-.1.1-.1.2 0 0 0 .1-.1.1l-.2.2s-.1 0-.1.1c.1 0-.1.1 0 0-.1 0-.1.1-.2.1s-.1 0-.2.1h-.1c.2 0-.1 0 0 0h-.2c.1 0-.2 0 0 0h-.1c-.1 0-.2-.1-.3-.1 0 0-.1 0-.1-.1-.1 0-.1-.1-.2-.1l-.1-.1-.2-.2c.1.1-.1-.1-.1-.1 0-.1-.1-.2-.1-.2.1.1 0-.1 0-.1v-.1c0-.1 0 .1 0-.1v-.3c0 .1 0-.2 0 0v-.2c0-.1 0-.2.1-.2.1-.2 0 .1 0 0s.1-.1.1-.2c.2-.3.5-.6.8-.8.2-.1.4-.3.6-.3.1 0 .2 0 .3-.1s.1-.1.3-.1c.1-.3.2-.9-.2-1zm-10.6 41.9v-.3c0-.2-.1-.3-.2-.4 0-.1-.1-.2-.2-.2-.1-.1-.2-.2-.4-.2-.5-.2-1-.1-1.5.2-.9.7-1.2 2-.9 3.1s1.1 2 2.2 2.2 2.3-.2 2.9-1.2c.3-.5.4-1.2.3-1.8s-.6-1.5-1.4-1.3c-.3.1-.4.3-.4.6 0 .2.1.5.2.7v.1c0 .1.1.2.1.3v.1c0 .1 0-.2 0 0v.2.1c0 .2 0-.1 0 0s0 .2-.1.3v.1c0 .1-.1.1-.1.2.1-.1 0 .1 0 0l-.1.1-.1.1h.1s-.1 0-.1.1c-.1 0-.1.1-.2.1.2-.1-.1.1 0 0h-.1s-.2 0-.3.1h-.2-.1-.1c.1 0-.1 0-.1 0h-.1c-.1 0-.2-.1-.3-.1s-.1-.1-.2-.1c0 0-.1 0-.1-.1l-.2-.2-.1-.1c.1.1-.1-.1 0 0-.1-.1-.1-.2-.1-.2l-.1-.1c0-.1-.1-.2-.1-.3s0-.2-.1-.3v-.2-.3-.1c0-.1 0-.2.1-.2v-.1c0 .1 0 0 0-.1.1-.1.1-.2.2-.3l.1-.1c.1 0 .1-.1.2-.1h.1c-.1 0 0 0 .1 0-.1 0 0 0 .1 0s.1 0 .2.1h.1c-.1 0-.1 0 0 0l.2.2c.5-.4.8-.4.8-.6zm-36.8-152.6c-.2.1-.4.2-.5.4s-.1.4-.1.6c-.1.4-.1.9-.2 1.3-.1.9 0 1.8.1 2.7s.3 1.8.5 2.6c.1.4.3.8.4 1.3l.3.6c.1.2.3.3.4.4a.54.54 0 0 0 .276.131c.103.016.208.002.303-.04s.176-.111.233-.198.088-.189.088-.293v-.6l-.3-.6c-.1-.4-.3-.7-.4-1.1-.3-.8-.4-1.6-.6-2.4s-.1-1.7-.1-2.5V178c0-.2.1-.5.1-.7s-.2-.4-.3-.6c-.1.2-.2.2-.2.2z"/><path d="M133.202 186.8c-.6-.7-1.5-.8-2.3-.4-.2.1-.1.3.1.4.3.1.5.3.9.4.3.1.6.1.9.2l2 .2h4c2.6-.1 5.2-.4 7.7-.9 1.3-.2 2.5-.5 3.7-1l3.2-1.3c.5-.2 1.1-.3 1.7-.4.6 0 1.2-.1 1.6-.5.9-.7.8-2 .8-3l-.1-4.4-.2-2.3c-.1-.7-.2-1.5-.5-2.2s-1.2-.3-1.3.3c-.1 1.2.3 2.4.4 3.6l.2 3.6v1.7c0 .3.1 1-.2 1.3-.2.1-.5.1-.7.1s-.5.1-.7.1c-.6.1-1.1.3-1.6.5l-3 1.2c-1.1.4-2.2.6-3.4.9-2.371.496-4.779.797-7.2.9l-4.1.1h-1.9c-.3 0-.7 0-1 .1-.3 0-.6.2-.9.3l.2.4c.2-.5 1.1-.3 1.7.1.1 0 0 .1 0 0z"/><path d="M130.903 175.3c.3.3.6.2 1.1.2.5-.1 1-.1 1.5-.2l3-.5 6.2-.9 6.1-.5 3.2-.2c1.1-.1 2.1 0 3.1-.3.6-.1.6-1.1 0-1.2-1-.2-2-.2-3.1-.1l-3.2.2-6.3.6-6.2 1-3.1.6c-.5.1-.9.2-1.4.4-.4.1-.7.2-.8.6-.3.2-.2.3-.1.3zm.5 13.1c-1.4 2.1-.7 5.1-.3 7.4l1.5 8.5 1.7 8.3 1 4.1c.3 1.1.9 2 2.1 2 .6 0 1.2-.2 1.8-.3l2.2-.6 4.1-1 8.5-2.2c2.2-.6 4.8-1.1 5.8-3.4.9-2.1.2-4.4-.4-6.4-1.7-6.1-2.9-12.2-3.7-18.5-.1-1-1.7-1-1.6 0 .5 5.1 1.5 10.2 2.7 15.2.3 1.3.7 2.6 1 3.8.3 1 .6 2 .7 3 .1.9 0 1.9-.5 2.7-.6.9-1.6 1.2-2.5 1.5-2.5.7-5.1 1.3-7.7 2s-5.2 1.3-7.9 2c-.6.2-1.2.3-1.8.5-.5.1-.9.3-1.2-.3-.2-.4-.3-1-.4-1.4-.2-.7-.3-1.4-.5-2-.6-2.5-1.2-5.1-1.7-7.7l-1.7-8.8c-.3-1.4-.5-2.8-.7-4.2-.1-1.4 0-2.6.1-4 .2-.5-.4-.5-.6-.2zm93.2-19.8c-.1.2-.3.4-.3.7-.1.3 0 .6 0 .9v2.1l.1 4c0 1-.1 2.3.4 3.2.6 1.1 1.7 1.1 2.8 1.2 5.4.5 10.8.7 16.2.7 1.5 0 3 0 4.4-.1.7 0 1.5-.1 2.2-.1.8 0 1.5 0 2.1-.5.3-.3.2-.7-.1-.9-.5-.4-1.1-.3-1.6-.2-.6 0-1.2.1-1.8.1-1.3 0-2.5.1-3.8.1h-7.5l-7.4-.4c-.6 0-1.2-.1-1.8-.1s-1.3 0-1.9-.2c-.9-.2-.7-1.8-.8-2.5-.1-1.4-.1-2.8-.2-4.1 0-.7-.1-1.4-.2-2.1 0-.3 0-.7-.1-1s-.2-.5-.4-.8c-.1-.1-.3-.1-.3 0zm2.9-1.1c-.3.9 1 1.2 1.6 1.3 1.1.2 2.3.2 3.4.3l7.3.6 7.2.5 3.7.3c.8.1 2.1-.1 2.5.8s-.1 1.9-.3 2.8c-.3 1-.6 2.6.4 3.3.3.2.8 0 .9-.4.1-.5 0-1 0-1.5.1-.6.3-1.1.4-1.7.2-.9.4-1.8.2-2.7-.6-2.3-3.4-2.1-5.3-2.2l-15.3-1-4.2-.3c-.6 0-1.2-.1-1.8-.2-.2-.2-.6-.2-.7.1zm11 5.2h.5-.1l.1.1.2-.6h-.3c-.1 0-.2.1-.3.2-.2.2-.3.3-.4.5-.2.3-.4.7-.5 1.1-.1.9.1 1.8.8 2.3.6.5 1.5.8 2.4.6.8-.2 1.4-.9 1.6-1.7.2-.9-.1-2-1-2.4-.3-.1-.6-.1-.8.1-.1.1-.1.2-.2.3-.1.3.1.6.3.7-.2-.1 0 0 .1.1s-.1-.1 0 0l.1.1c.1.1-.1-.1 0 0v.1l.1.2c0-.1-.1 0 0 0v.1.2.1.2.1.2.1l-.1.2-.1.1-.1.1h-.1s-.1 0-.1.1c0 0-.2.1-.1 0h-.1-.1c-.1.1-.1 0 0 0-.1.1-.3 0-.4 0 .1 0-.1 0 0 0h-.1c-.1 0-.1 0-.2-.1h-.1c-.1 0-.2-.1-.2-.1s-.2-.1-.1 0c-.1 0-.1-.1-.2-.2l-.1-.1c.1.1 0 0 0-.1 0 0 0-.1-.1-.1 0 0-.1-.2 0-.1 0-.1-.1-.2-.1-.2v-.1c0 .1 0-.1 0 0v-.3-.1c0-.1 0-.2.1-.3s.1-.2.1-.3c0 0 0-.1.1-.1 0-.1.1-.2.1-.2l.1-.1c.1-.1.2-.1.2-.2s.1-.1.1-.2c.1-.2-.1.1 0 0 .3-.4-.2-.8-.5-.4a.9.9 0 0 1-.5.1c-.1 0-.1-.2 0 0z"/><path d="M228.401 180.9c.1-.4-.2-.7-.5-.7-.6 0-1 .6-1.2 1.1-.2.8-.2 1.7-.3 2.5l-.3 2.9-1.1 11-.6 5.5-.2 2.5c-.1.8-.3 1.8-.1 2.7.4 1.7 2.4 1.6 3.8 1.6l5.5.3 6.2.3 3 .2c1.1.1 2.1.2 3.1-.1.6-.2.5-.9 0-1.1-1.5-.6-3.2-.4-4.8-.5l-4.9-.3-9.5-.5c-.2 0-.7 0-.9-.1-.1-.1 0-.4 0-.6l.2-2.4.4-4.8.9-9.4.5-5.5.2-2.7c0-.3 0-.8.1-1.1.1-.1.1-.2.2-.3.2-.3.2-.4.3-.5 0-.1 0-.1-.2.2.1-.1.2-.1.2-.2zm23.1.6c.2-.2 0-.4 0-.6s0-.4-.2-.5l-.1-.1c-.4-.2-.8.1-.8.4-.1 1.2.2 2.4.2 3.6v3.4c-.1 2.3-.4 4.6-.8 6.9l-1.3 6.8-.7 3.4-.3 1.7c-.1.6-.3 1.2-.2 1.9.2.6 1 .6 1.3.2.4-.5.4-1.2.5-1.8l.3-1.7.7-3.4 1.3-7.1.7-7-.1-3.5c-.1-1.1-.1-2.4-.6-3.5l-.1.5.1-.1h-.3l.1.3c.1.2.3.3.3.2zm6.9 4.2c-.6 0-.8.8-.6 1.3.2.7 1.1 1.2 1.7 1.5l4.7 2.3c3.2 1.5 6.3 3 9.4 4.6.8.4 1.7.9 2.4 1.4.8.6 1.6 1.2 2.4 1.7.2.1.5-.1.3-.3-1.1-1.6-2.8-2.8-4.4-3.9-1.6-1.2-3.4-2.1-5.2-2.9-1.8-.9-3.7-1.7-5.5-2.5-.9-.4-1.9-.9-2.8-1.3-.4-.2-.8-.4-1.2-.7-.4-.2-.6-.7-1.1-.8l.4.3c-.1-.2-.2-.8-.5-.7z"/><path d="M258.701 188c.4.6 1 1 1.5 1.4l1.8 1.5 3.4 3.1c1.1 1 2.1 2.1 3.1 3.2l3.3 3.4c.4.4 1.1-.1.8-.6-.8-1.4-1.8-2.5-2.9-3.6l-3.3-3.3-3.5-3-1.8-1.4c-.6-.4-1.2-1-2-1.2-.3-.1-.6.2-.4.5z"/><path d="M258.203 187.6l3.1 3.9c1 1.3 1.9 2.7 2.6 4.2 1.7 3.2 2.5 6.7 3.2 10.2.8 3.8 1.6 7.5 3.1 11.1.7 1.7 1.4 3.4 2.2 5.1.6 1.4 1.4 2.8 2.5 3.8 1.1 1.1 2.6 1.6 4.1 1.4 1.4-.2 2.7-1.1 3-2.5.2-.7-.5-1.2-1.1-.9-1.5.8-2.9 1.7-4.1 2.9-.2.2-.3.6-.1.9l1.8 3.5c.2.3.5.4.9.4l1.7-.4-.6-1.4c-1.8.7-2.3 2.9-1.9 4.7.3 1 .9 1.9 1.6 2.6.389.388.826.724 1.3 1 .5.3 1 .5 1.6.8.5.2 1.1-.4.6-.8l-1.9-1.6c-.6-.5-1.3-1.2-1.6-1.9-.4-1-.3-2.8.8-3.3.9-.4.6-1.7-.4-1.5l-1.7.4.9.4-1.8-3.5-.1.9c1.1-1.1 2.4-2 3.8-2.7l-1.1-.9c-.3 1-1.4 1.5-2.4 1.4-1.3 0-2.4-.9-3.1-2-.9-1.2-1.4-2.6-2-4-.7-1.6-1.4-3.3-2-5-2.4-6.5-2.5-13.7-5.9-19.8-1.6-2.9-3.7-6-6.6-7.8-.2-.2-.6.1-.4.4z"/><path d="M282.901 241.2c.6-.4.6-1 .8-1.7l.6-2.5c.5-1.6 1.1-3.2 1.8-4.7 1.4-3 3.2-5.7 5.5-8.1 4.6-5.1 10.7-8.6 17.2-10.5 1.9-.6 3.8-1 5.7-1.3 1.8-.3 3.7-.4 5.4.4.5.3 1.1-.4.7-.9-1.2-1.2-3.1-1.4-4.7-1.3-1.8.2-3.6.5-5.4 1-3.6.9-7 2.2-10.3 4-6.3 3.4-11.6 8.5-14.8 14.9-.9 1.7-1.6 3.5-2.1 5.3-.3 1-.5 1.9-.7 2.9-.1.8-.4 1.8.2 2.4 0 .1.1.1.1.1z"/><path d="M320.6 210.7c-.1.2-.5.3-.7.5s-.3.6-.1.9c2.8 3.8 5.8 7.5 8.5 11.4 1.3 1.9 2.6 3.9 3.8 5.9.5.9 1.1 1.9 1.6 2.7.3.4.6.9.9 1.3.4.4.8.6 1.3.8.4.2.7-.4.6-.7-.4-1-1.1-1.7-1.7-2.6s-1.1-1.9-1.7-2.8c-1.2-2-2.5-3.9-3.8-5.8-2.7-3.8-5.5-7.5-8.5-11l.2.7c.1-.5-.1-.8-.2-1.2.1-.2-.1-.2-.2-.1zm-37.1 31.1c.2 1.1 1.2 2 1.9 2.9l2.2 2.7 4.5 5.5 4.5 5.4c.9 1.1 2.9 3.4 4.4 1.9.2-.2.1-.5-.1-.6-.7-.4-1.5-.7-2.1-1.2-.7-.6-1.3-1.4-1.9-2.1l-4.2-5-4.3-5-2.1-2.4c-.7-.8-1.4-1.8-2.4-2.3-.2-.3-.5-.1-.4.2zm16.604 16.9c.9 0 1.4-.9 1.9-1.6s1.1-1.3 1.6-1.9l3.8-3.8c1.3-1.2 2.7-2.2 4.1-3.2.7-.5 1.5-1 2.2-1.4l1.1-.6c.4-.2 1-.6 1.5-.7.6 0 .6-1.1 0-1-.5 0-.9 0-1.4.1s-.9.3-1.4.6c-.8.4-1.6.9-2.3 1.5-1.6 1-3.1 2.2-4.5 3.4s-2.8 2.6-4 4l-1.7 2.1c-.5.7-1.4 1.5-1.1 2.4.1 0 .1.1.2.1z"/><path d="M314.3 221c.1-.5.2-.9.4-1.4l-1-.3c-.2 1.2-.2 2.4-.2 3.6v3.7l.3 7.2c.1 2.4.4 4.8.7 7.2.1 1 .1 2.3.7 3.1.4.5 1.5.7 1.6-.2.1-.3-.1-.5-.4-.5.2.1.2.1.1 0s-.1-.1-.1-.2c-.1-.2-.1-.3-.2-.5-.1-.5-.1-1-.2-1.5l-.4-3.2-.5-6.2-.3-6.2c-.1-2.1.1-4.2-.2-6.3-.1-.7-1.1-.4-1 .3.1.5.1.9.2 1.4.1.2.5.3.5 0z"/><path d="M316.8 224.9c-.3-.3-.7-.4-1.1-.6-.4-.1-.6.2-.7.5-.2 1.2.5 2.6 1 3.6l2 3.6 2.2 3.7 1.2 1.9c.4.6.7 1.3 1.4 1.6.3.2.7 0 .7-.4 0-.7-.4-1.2-.7-1.7-.3-.7-.7-1.3-1.1-1.9l-2.2-3.7-2-3.4-.9-1.8-.6-1.8-.1.6c.2 0 .4 0 .5.2.3.2.6-.2.4-.4z"/><path d="M323.602 239.1c.8-.4 1.6-1 2.4-1.5s1.6-1 2.5-1.3c.9-.4 1.7-.6 2.6-.8l1.4-.3c.5-.1 1-.1 1.4-.4.3-.2.4-.7 0-.9-.9-.5-2.1-.1-3 .1-1 .2-2 .6-3 1-.9.4-1.8.9-2.6 1.5s-1.7 1.3-2.2 2.1c-.2.3.2.6.5.5zm-40.7-88.1c-1.7 1.7-3.1 3.8-4.5 5.7l-4.4 5.8-2.1 2.9c-.6.8-1.1 1.8-.5 2.7.4.7 1.3 1 2.1.9.4 0 .8-.1 1.2-.3.6-.2 1.1-.5 1.8-.4.3.1.6-.3.3-.5-.6-.5-1.6-.6-2.4-.4-.4.1-1.8.6-1.9-.2-.1-.4.3-.8.5-1.1.3-.5.7-.9 1-1.4l1.9-2.6 3.7-5.3c1.3-1.8 2.7-3.6 3.7-5.6.1-.1-.2-.4-.4-.2zm-282.3-1.9c.4 1.2 1.4 2.2 2.2 3.1l2.5 2.9 5.4 5.7c3.7 3.7 7.6 7.3 11.7 10.6 1.2 1 2.3 1.9 3.5 2.8.6.5 1.2.9 1.8 1.4.6.4 1.3.7 2 1.1.4.2.9-.3.5-.7-.5-.4-.8-1-1.3-1.4s-1.1-.8-1.6-1.3c-1-.8-2.1-1.6-3.1-2.5-2-1.6-4-3.3-5.9-5.1-3.9-3.5-7.6-7.2-11.2-11-1-1-1.9-2.1-2.9-3.2-.9-1-1.9-2.4-3.1-3.1-.2.1-.6.3-.5.7zm11.9-2.8c1 2.1 2.7 4 4.2 5.7l4.8 5.4c2.8 3.6 4.5 7.8 6.8 11.6.6 1 1.3 2 2.1 3s1.7 1.7 2.8 2.4c.3.2.6-.2.4-.5l-2-2.6c-.7-.9-1.3-1.8-1.9-2.7-1.2-1.9-2.1-3.8-3.2-5.7-1-1.9-2.1-3.9-3.4-5.6-1.4-1.9-3.1-3.6-4.7-5.4-.9-.9-1.8-1.9-2.7-2.9s-1.7-2.1-2.6-3.2c-.3-.4-.8.1-.6.5zm16.9-1.1c0 1.2.4 2.5.6 3.6l.8 3.7 1.8 7.4 1.9 7.4 1.9 6.5c.8 1.8 1.9 3.4 4 3.8.6.1.9-.8.3-1-1.5-.5-2.5-2.2-3-3.6-.8-2-1.3-4.2-1.8-6.3-1.3-4.6-2.4-9.3-3.6-14-.3-1.3-.7-2.6-1-3.9s-.6-2.7-1.2-3.9c-.1-.3-.7-.1-.7.3zm16.8 3.6c-.1.4-.1.9-.1 1.3 0 .6.1 1.1.2 1.7l.3 3 .2 6.2c0 4.1 0 8.1.3 12.2l.3 3.4.3 1.8c.1.6.4 1.1.5 1.7s1.1.4 1-.3c-.1-.5 0-1-.1-1.5s-.2-1.1-.2-1.6l-.3-3c-.2-2.1-.2-4.1-.2-6.2-.1-4.1 0-8.1-.3-12.2-.1-1.1-.2-2.3-.4-3.4-.1-.6-.1-1.2-.3-1.8-.1-.5-.2-1-.5-1.4-.3-.3-.7-.2-.7.1zm1.6-.3c1.8 1.4 4.8 1.6 5.7 4 .9 2.3 0 4.8 0 7.1 0 1.2.2 2.3.7 3.4l1.4 3.1c.4 1.2 0 2.3.1 3.5 0 1 .3 2 .7 3l1.3 3.2c.4 1.1.6 2.2.5 3.4 0 .5.6.5.8.1.8-2-.2-4.3-1-6.1-.4-1-.9-2-1-3.1-.2-1.2.2-2.4 0-3.7-.2-1.1-.7-2.1-1.2-3.1-.6-1.2-.9-2.4-.9-3.8.1-2.5.9-5-.1-7.4-.5-1.2-1.4-2.1-2.5-2.7-1.2-.6-2.7-1.3-4.1-1.4-.4-.1-.6.3-.4.5z"/><path d="M31.202 144.6c.6.8 1.5.9 2.4 1.1l3 .7c2.1.6 3.2 2.1 3.8 4.1.5 2.1.3 4.2.7 6.3.2 1.1.8 2.1 1.4 3.1.5.9.8 1.8.9 2.8.2 1.1.3 2.2.6 3.2.3.9.7 2.1 1.7 2.5.3.1.6-.1.5-.4-.3-.9-.8-1.7-1-2.6l-.5-3c-.2-1-.4-1.9-.8-2.8-.5-1.1-1.2-2-1.5-3.2-.4-2.1-.2-4.3-.8-6.4-.5-1.9-1.6-3.6-3.5-4.4-1-.5-2.1-.6-3.2-.8-.6-.1-1.2-.2-1.8-.4-.511-.196-1.053-.297-1.6-.3-.3.2-.4.4-.3.5zm-16.999.5l.2-.4h-.2c.4.3.5.3 1 .3.6 0 1.1-.1 1.7-.1l3.1.1c1.6.2 3.1.7 4.2 1.9 1.7 1.9 2.3 4.6 3.6 6.8.7 1.1 1.7 2.5 3.1 2.6.4 0 .5-.4.3-.7-.4-.5-.9-.9-1.3-1.3l-1.1-1.5c-.7-1.2-1.2-2.5-1.8-3.7s-1.2-2.4-2.2-3.3c-1.2-1.2-2.7-1.7-4.4-1.9-1.2-.2-2.4-.2-3.7-.1-.6 0-1.1.1-1.7.2-.7.1-.8.3-1.1.9 0 .2.2.4.3.2zm-11.7 2.9c.6-.1 1-.6 1.6-.8s1.2-.3 1.8-.3c1.4.1 2.6.7 3.7 1.5 1.1.9 2 1.9 3 2.9l1.6 1.6c.6.5 1.1.8 1.8 1 .4.1.6-.4.4-.6l-3.5-3.5c-1.1-1.2-2.3-2.3-3.7-3.1-1.2-.7-2.6-1.1-4-.9-1 .1-3 .7-3 2 .1.1.2.2.3.2zm26.1-14.2c.3.8.7 1.5 1.1 2.3l1.2 2.1a45.44 45.44 0 0 1 2.1 4.5c.4.9 1.6.4 1.3-.5l-2.2-4.6-1.3-2.2c-.5-.7-.9-1.5-1.6-2-.3-.2-.8 0-.6.4z"/><path d="M29.301 134c2.2-.1 4.7-.5 6.8.4.8.3 1.6.8 2.1 1.5.7.8.9 1.9 1 2.9.2 1.9.5 3.7 1.5 5.5.5.8 1 1.6 1.7 2.2.3.3.6.6 1 .9s.8.4 1.3.5c.4.1.7-.4.4-.7-.3-.4-.6-.7-1-1.1-.4-.3-.8-.7-1.1-1-.6-.7-1.1-1.5-1.5-2.4s-.6-1.9-.8-2.8c-.1-1.1-.2-2.2-.6-3.3-.7-1.8-2.2-3.1-4.1-3.7-2.2-.7-4.7-.4-6.9.1-.5.2-.4 1 .2 1zm29.7 32.4c.5 1.2 1.5 2.2 2.4 3.2s1.9 1.9 3 2.8c2.1 1.7 4.3 3.1 6.8 4.2 1.2.6 2.6 1 3.7 1.9 1 .8 1.7 1.9 2.2 3.1 1 2.5 1.4 5.5 1.7 8.2.5 5.4-.5 11.1-4.8 14.7-1.8 1.5-4 2.5-6.4 2.6-2.6 0-4.7-1.4-7-2.5-1.3-.6-2.6-1.1-4.1-1.3-1.6-.1-3.2.2-4.8-.5-2.6-1.1-4.5-3.5-6.1-5.7-.3-.4-1 0-.7.4 1.4 2.1 2.9 4.3 5.2 5.7 1.1.7 2.3 1.1 3.6 1.3 1.6.2 3.1 0 4.6.5 2.6.9 4.8 2.7 7.6 3.2 2.5.4 5-.2 7.1-1.4a13.94 13.94 0 0 0 5.2-5.3c1.4-2.6 2-5.6 2.1-8.5.1-3.1-.3-6.1-1-9.1-.6-2.7-1.6-5.3-4-6.9-1.3-.9-2.9-1.4-4.3-2.1-1.5-.7-2.9-1.6-4.3-2.5-1.3-.9-2.5-1.9-3.7-3s-2.2-2.5-3.5-3.5c-.3 0-.7.2-.5.5zm-27.1 11.7c.8 1.7 2.1 3.1 3.3 4.6l3.5 4.6 3 4.1c.5.7.9 1.5 1.2 2.3l.6 1c.2.4.3.9.6 1.2.1.2.4.1.4-.1 0-.4-.1-.7-.2-1.1-.1-.5-.2-.9-.4-1.3-.3-.8-.7-1.5-1.1-2.2-.9-1.5-1.9-3-3-4.4l-3.5-4.5c-1.3-1.6-2.4-3.3-4-4.5-.3 0-.5.1-.4.3z"/><path d="M49.902 202.6c-.7.3-.8 1.2-.8 1.9 0 .9.1 1.7.3 2.6.4 1.9 1.3 3.6 2.2 5.3l2.9 5.4 1.6 2.7c.3.4.5.8.8 1.1.3.4.5.9.9 1.2.2.1.5 0 .5-.3 0-.4-.2-.7-.4-1.1l-.6-1.4-1.3-2.6-2.8-5.1c-.9-1.6-1.8-3.2-2.3-4.9-.3-.9-.5-1.7-.5-2.6 0-.7.2-1.5-.3-2.1 0-.1-.1-.1-.2-.1z"/><path d="M53.102 215.7c.3 1.3.6 2.6.5 3.9a11.8 11.8 0 0 1-.9 3.7c-.5 1.1-.9 2.3-.8 3.5s.7 2.4 1.3 3.4c2.5 3.9 5.8 7.3 9.5 10s7.9 4.7 12.4 5.7c4.4.9 8.9.8 13.3-.3 2.4-.6 4.8-1.6 6.9-2.9 2.1-1.2 4.4-2.8 5.6-4.9.4-.7-.5-1.2-1-.8l-2.4 2.1c-.8.7-1.7 1.3-2.5 1.8-1.8 1.1-3.7 2-5.7 2.6-4 1.3-8.4 1.6-12.5.9-8.7-1.5-16.5-6.9-21.6-14-.8-1.1-1.6-2.2-1.9-3.5-.2-1.3.4-2.6.8-3.9.9-2.5 1.2-5.5-.2-7.9-.3-.1-.9.2-.8.6zm38.999 4.5c.4.6 1.1 1.1 1.6 1.7l1.6 1.7c1.1 1.2 2 2.5 2.8 3.9s1.5 2.8 2.1 4.3c.3.7.5 1.4.7 2.2s.4 1.5.9 2.1c.2.2.5.1.6-.2.3-.8 0-1.6-.2-2.4s-.5-1.5-.7-2.3c-.6-1.6-1.3-3.1-2.2-4.5s-1.8-2.7-2.9-4c-.5-.6-1.1-1.2-1.7-1.8-.6-.5-1.2-1.1-2-1.4-.4-.1-.8.3-.6.7zm-10.6-25.8c-.3.5.7 1.3 1 1.6.7.7 1.2 1.5 1.7 2.3 1 1.6 1.7 3.3 2.1 5.1.8 3.7.6 7.5 1.2 11.2.3 1.9.9 4.1 2.3 5.5.3.3.9 0 .7-.4-.6-1.7-1.4-3.4-1.7-5.2-.3-1.9-.4-3.8-.6-5.7-.3-3.8-.7-7.7-2.9-10.9-.2-.5-3.3-4.4-3.8-3.5z"/><path d="M87.702 210.5c-.4.1-.5.5-.4.8.2.5.8.5 1.2.3 1.5-.6 2.9-1.4 4.2-2.2l4.1-2.2c1.4-.8 2.9-1.5 4.1-2.5.4-.3 0-1-.5-.8-2.3.7-4.4 2.1-6.5 3.3l-3.2 1.8c-.5.3-1 .6-1.5.8-.3.2-.6.3-.9.5-.1.1-.5.4-.6.3l.3.2-.1.2c.4-.1.1-.6-.2-.5z"/><path d="M100.802 204.8l4.1 3c1.3 1.1 2.5 2.3 3.6 3.5a20.22 20.22 0 0 1 2.9 4.1l1.2 2.2.5 1.1c.1.2.2.3.3.5s.3.2.5.4c.2.3.8.3.8-.2 0-.4.1-.7 0-1.1s-.4-.8-.5-1.3l-1.3-2.4c-.919-1.513-1.955-2.951-3.1-4.3-2.3-2.6-5.2-5.1-8.4-6.4-.8-.2-1 .6-.6.9z"/><path d="M114.4 218.4c-.8 0-1.2.9-1.6 1.5l-1.3 2.1-2.8 4.5-2.7 4.4-1.3 2.2c-.5.8-.8 1.5-1.1 2.3-.2.5.5.9.8.5 1.2-1.3 2-2.9 2.9-4.4l2.8-4.8 2.8-4.7 1.4-2.4c.2-.3.4-.7.3-1 0 .1-.1-.2-.2-.2zm-17.5-7.6c-1 0-1.8.8-2.2 1.7-.3.9-.1 2 .6 2.6s1.7.9 2.6.7a2.24 2.24 0 0 0 1.147-.684c.304-.34.497-.764.553-1.216.1-.5 0-1-.2-1.5-.1-.2-.2-.5-.4-.7s-.5-.5-.8-.5c-.4 0-.7.4-.6.7.1.2.2.4.4.5 0 0 0 .1.1.1.1.1-.1-.1 0 0 0 .1.1.1.1.2 0 0 0 .1.1.1 0-.1-.1 0 0 0 0 .1 0 .1.1.2v.1c0 .1 0-.2 0 0v.3.2.1c0 .1 0 .1-.1.2.1-.1 0 .1 0 0 0 0 0 .1-.1.1 0 0 0 .1-.1.1 0 0-.1.2-.2.2l-.1.1h-.1-.1c-.1 0-.1 0 0 0l-.2.1h-.1-.3-.1-.1c-.1 0-.1 0 0 0l-.4-.1c.1.1-.1 0 0 0 0 0-.1 0-.1-.1-.1 0-.2-.1-.2-.1l-.1-.1c-.1 0-.1-.1-.2-.2.1.1-.1-.1 0 0 0 0 0-.1-.1-.1s0-.1-.1-.1v-.1c0 .1 0 .1 0 0s0-.1-.1-.2v-.1c0 .1 0 0 0-.1v-.2-.1c0 .1 0 .1 0 0v-.1c0-.1 0-.2.1-.3v-.1c-.1.2 0 0 0-.1s.1-.2.1-.2 0-.1.1-.1l.2-.2.1-.1c-.1.1.2-.1.1-.1.1-.1-.1.1 0 0s.3-.1.4-.2c1 0 .7-.6.3-.6zm-10.8-10.7c.2-.4.5-.8.7-1.3l.6-1.3c.4-.9.8-1.7 1.3-2.5.2-.3.1-.6-.1-.8-1.9-2-4.3-3.4-6.9-4.3-.9-.3-1.3 1.1-.4 1.4 2.4.9 4.4 2.2 6.3 3.9l-.1-.8-1.1 2.7c-.2.4-.3.9-.4 1.3-.2.5-.1 1-.2 1.6-.2.3.2.5.3.1zm118 61.5c-.7.4-.7 1.6-.7 2.4.001 1.041.101 2.079.3 3.1.4 2 1.2 3.9 2.1 5.8l2.8 5.7c.9 2 1.7 4 2.3 6.1.4 1.1.7 2.3 1 3.4.3 1.2.5 2.4 1 3.5.2.4.7.3.7-.1 0-1-.2-2-.4-3-.2-1.1-.5-2.1-.8-3.1-.6-2-1.3-3.9-2.1-5.9s-1.7-3.8-2.7-5.6-2-3.7-2.6-5.6c-.4-1.1-.6-2.3-.7-3.4v-1.8c0-.5.1-1-.1-1.4 0-.1 0-.1-.1-.1z"/><path d="M203.802 262.9c-.5.4-.5 1.5-.6 2.1l-.2 2.7.2 5.4c.4 3.5 1.2 7 2.9 10.2.1.2.5.1.4-.2-1-3.3-1.9-6.8-2.3-10.2-.2-1.7-.3-3.5-.2-5.2 0-.8.1-1.7.1-2.5 0-.6.3-1.8-.1-2.3 0-.1-.2-.1-.2 0zm-23.5 64.9l1 .6c.4.2.8.2 1.2.3.9.2 1.8.3 2.7.4l5.1.4c3.4.1 6.8 0 10.2-.4a76.37 76.37 0 0 0 20-5.1c1.8-.7 3.5-1.5 5.2-2.4s3.6-1.8 5-3.1c.4-.4 0-1.1-.5-.9-1.6.6-3 1.5-4.5 2.3s-3.1 1.5-4.6 2.2c-3.1 1.3-6.2 2.4-9.5 3.3-6.5 1.8-13.3 2.7-20 2.7-1.9 0-3.8-.1-5.8-.2-.9-.1-1.8-.2-2.8-.2-.5 0-1-.1-1.5-.1-.4 0-.9.2-1.3.2.1-.2.1 0 .1 0zm-.8 7.5c-.7-.2-1.5-.3-2.1-.7l-.4.6c.8.4 1.7.5 2.6.6l3 .3 5.9.4c3.9.2 7.7.3 11.6.2 7-.3 14.1-1.4 20.6-4 1.8-.7 3.6-1.5 5.3-2.5 1.6-.9 3.5-1.9 4.5-3.4.2-.4-.2-.9-.6-.7-.8.2-1.5.7-2.2 1.1l-2.2 1.3c-1.4.8-2.9 1.5-4.4 2.1-3.1 1.3-6.2 2.2-9.5 2.9-7.2 1.5-14.5 1.8-21.8 1.5-2.1-.1-4.3-.2-6.4-.4-1-.1-2.1-.1-3.1-.2s-2.2-.2-3.2.1c-.4.1-.3.7.2.7.7-.1 1.4.1 2.1.3.2.1.3-.1.1-.2z"/><path d="M187.802 338.1c-.1-.5.2-.9.5-1.3l-.9-.4c-.4 2.5-.4 5.1-.5 7.6l-.4 7.6-.4 7.6c0 .7-.1 1.3-.1 2 0 .4.1.8.5 1.1.7.4 1.7-.4 1.2-1-.4-.5-1.2 0-.9.5l.1.1-.1-.4v.1l.2-.3-.1.1.4-.1c.2.3.3.4.2.1v-.3-.9c0-.5 0-1 .1-1.5l.1-3.1.3-6.4.2-6.2.1-6.5c0-.5-.8-.6-.9-.1-.2.6 0 1.1.1 1.7.1.2.4.2.3 0zm1.6 24.4c0-.5-.7-.5-.9-.1-.2.3 0 .6.2.8.4.3.9.2 1.4.1 1.3-.1 2.5-.3 3.8-.6l1.9-.3c.6-.1 1.2-.2 1.7-.4 1-.5 1.2-1.5 1.1-2.5l-.2-3.8-.1-7.9.3-4.4.3-2.2c.1-.7.3-1.5.1-2.1-.1-.4-.7-.5-.9-.1-.4.5-.4 1.1-.5 1.7l-.3 1.9-.3 3.9v7.8l.2 3.9c0 .6.1 1.2.1 1.8s-.2.9-.8 1.1c-.7.2-7.6 1.2-7.5 1.7-.1 0 .4 0 .4-.3zm-96.3-200.8c-.5 1.1-.1 2.7 0 3.9.2 1.4.5 2.7.9 4.1.7 2.6 1.6 5.2 2.7 7.7 2.3 5.1 5.1 9.8 7.6 14.8 1.4 2.8 2.6 5.7 4.1 8.5.2.4.7.1.7-.3-.4-2.7-1.6-5.3-2.8-7.7-1.2-2.5-2.5-4.9-3.9-7.2-2.7-4.8-5.3-9.7-7.1-14.9-.5-1.4-.8-2.9-1.1-4.3-.1-.8-.3-1.6-.4-2.4-.1-.7-.1-1.4-.4-2-.1-.4-.3-.3-.3-.2zm2.2 26.1c.5 1.1 1.2 2.1 2 3.1.7 1 1.5 1.9 2.3 2.8a31.96 31.96 0 0 0 2.6 2.6c.421.421.891.79 1.4 1.1.5.4 1 .9 1.6 1 .3.1.6-.3.4-.6-.3-.5-.8-.8-1.2-1.2l-1.3-1.2-2.6-2.5c-.819-.819-1.587-1.687-2.3-2.6l-2.3-2.8c-.3-.2-.8 0-.6.3zm207.6 71.8c.3.5.5.8 1 1l1.5 1 3 2 5.7 4.4c3.6 3.1 6.9 6.5 9.8 10.2.8 1 1.6 2.1 2.4 3.2s1.4 2.3 2.3 3.3c.4.4 1.3 0 1-.6-.4-1.1-1.2-2.1-1.9-3.1s-1.4-2-2.2-3c-1.5-1.9-3-3.8-4.7-5.5-3.3-3.5-7-6.7-10.9-9.4-1.1-.8-2.3-1.5-3.4-2.2-.6-.3-1.2-.6-1.8-1-.6-.3-1-.6-1.8-.5v.2zm31.5-22.8c.2.5.3 1 .6 1.5l1 1.6 1.7 3.4c1.1 2.2 2.2 4.3 3.8 6.1 3 3.5 6.8 6 10.3 8.8 1 .8 2 1.6 2.9 2.5.5.4.9.9 1.3 1.4s.8 1 1.4 1.2c.3.1.7-.2.6-.5-.1-1.1-1.2-1.9-1.9-2.6-.8-.8-1.7-1.6-2.5-2.3-1.7-1.5-3.6-2.8-5.4-4.2s-3.6-2.8-5.1-4.4c-1.7-1.8-2.9-3.8-4-5.9-.7-1.2-1.3-2.5-2-3.7-.7-1.1-1.3-2.4-2.6-2.9 0-.1-.1-.1-.1 0zm26.1 26.6c2.5-.3 5-.9 7.4-1.4l7.5-1.4 15.1-2.5 7-.9c1.6-.1 3.9.4 3.5 2.5-.3 2-2.3 3.5-4 4.5-1.9 1.1-3.9 1.8-5.9 2.7-5.4 2.2-10.8 4.2-16 6.8-.4.2-.1.8.3.7 5.2-1.7 10.3-3.9 15.5-5.9 2.1-.9 4.3-1.7 6.4-2.8 1.8-1 3.7-2.4 4.6-4.4.9-1.9.5-4.1-1.5-5-1.8-.8-4-.4-5.9-.1-5.4.7-10.8 1.6-16.2 2.6l-8.9 1.8c-3 .7-6.1 1.2-9 2.3-.3 0-.2.5.1.5z"/><path d="M372.402 271.8c0 .7 1 1.3 1.5 1.7l1.8 1.8c1.2 1.3 2.4 2.7 3.4 4.1s1.9 2.9 2.6 4.5c.8 1.6 1.4 3.4 2.9 4.4.4.3.7-.2.5-.5-.7-1.7-1.6-3.4-2.4-5s-1.7-3.1-2.8-4.5c-1.024-1.422-2.161-2.76-3.4-4-.6-.6-1.3-1.2-2-1.8-.5-.4-1.2-1.2-1.9-1-.1 0-.2.2-.2.3zm-43.2 7.6l-.3.8v1.3l.3 2.3c.3 1.6.8 3.2 1.4 4.7 1.3 3 3.1 5.7 5.5 8 .7.6 1.7-.4 1-1-2.2-2.1-4-4.7-5.3-7.5-.6-1.4-1.1-2.9-1.5-4.4-.2-.7-.3-1.4-.4-2.2-.1-.4-.1-.8-.2-1.2s-.3-.6-.4-.9c.1-.1-.1-.1-.1.1zm15.2 16.3c0-.1 0-.1 0 0v-.1h-.1s0 .1-.1.1v.2h.1.1c.1-.1.1-.1 0-.2.1.1.1 0 0 0z"/><path d="M344.203 296.1c1.1 0 2.2-.3 3.2-.5l3.2-.9 6.6-1.5c2.3-.4 4.7-.6 7.1-.8 2.3-.2 4.5-.6 6.7-1l3.8-.9c1.2-.3 2.5-.7 3.6-1.3.2-.1.1-.4-.1-.4-1.1 0-2.2.3-3.3.6l-3.3.8-6.9 1.2-6.9.7-6.6 1.4-3.7 1.1c-1.2.3-2.4.7-3.4 1.5zm5.3-27.6c-1.4.6.3 2.6.7 3.2 1 1.4 2.2 2.7 3.4 4 2.528 2.518 5.471 4.581 8.7 6.1l.2-.7c-1.8 0-3.5.2-5.3.6-1.6.4-3.4.9-4.7 2-.1.1 0 .3.2.3.8-.2 1.6-.6 2.3-.8.8-.3 1.6-.5 2.4-.7a22.18 22.18 0 0 1 5.1-.6c.4 0 .5-.5.2-.7-2.8-1.3-5.4-3-7.7-5.1-1.1-1-2.2-2.1-3.1-3.3-.5-.6-1-1.2-1.4-1.9-.3-.5-1.3-1.5-.8-2.1.1-.1-.1-.3-.2-.3zm-.1 33.5c-.1-.1-.3-.1-.4 0-.3.2-.6.4-.9.7s-.4.7-.6 1.1c-.3.8-.3 1.6-.2 2.4.3 1.6 1.5 2.9 3 3.4 1.6.5 3.7.2 4.7-1.3s.7-3.6-.2-5c-.5-.8-1.2-1.4-1.9-1.9l-1.2-.6c-.5-.2-.9-.2-1.4-.1-.3.1-.4.5-.1.6l.9.3c.3.1.6.2.9.4.6.3 1.1.7 1.4 1.2.8 1 1.2 2.4.8 3.7s-1.9 1.8-3.1 1.6-2.4-1-2.8-2.1c-.2-.7-.2-1.4-.1-2.1.1-.3.2-.6.4-.9s.3-.7.6-1c.1-.1.1-.2.1-.3.1 0 .1-.1.1-.1zm17.3 2.9c2.5-1.3 4.8 1.3 6.1 3.1.8 1 1.4 2.1 2 3.2.3.6.7 1.3.5 1.9-.1.6-.7 1.1-1.3 1.3-1.2.4-2.7.1-3.9-.2-1.4-.3-2.2-1.1-3-2.3l-4.9-6.6c-2-2.5-4-4.9-6.3-7.1-.4-.3-.8.2-.5.5 2.1 2.6 4.4 5.1 6.5 7.8 1 1.3 2.1 2.7 3 4 .9 1.2 1.6 2.6 2.8 3.6 1.1 1 2.6 1.2 4 1.3 1.3.2 2.8.1 3.8-.8 1.1-1 .9-2.4.3-3.6-.6-1.4-1.4-2.7-2.4-3.9s-2.1-2.6-3.5-3.3c-1.2-.6-2.7-.6-3.6.6-.1.4.2.6.4.5z"/><path d="M366.301 296.5v.1s-.099.1-.099.2v.5c.1.3.099.7.199 1 .2.7.501 1.4.801 2s.6 1.3 1 1.9c.2.3.3.6.5.9s.399.6.799.7c.2 0 .4-.1.4-.3 0-.3-.199-.6-.299-.9-.2-.3-.4-.5-.5-.8-.4-.6-.7-1.2-1-1.8s-.501-1.2-.701-1.9l-.299-.9c-.1-.2-.101-.3-.201-.5-.1-.1-.199-.2-.199-.3-.1-.1-.401-.1-.401.1zm11.5 17.9c.2.7.801 1 1.301 1.3l2.199 1.5c1.2.8 2.5 1.9 4 2.2 2.5.4 4.3-2.2 4.2-4.5-.1-1.5-.8-2.9-1.6-4.1-.7-1.1-1.599-2.1-2.699-2.8-1.2-.7-2.701-.7-3.701-1.6-.5-.5-.899-1.1-1.399-1.6l-1.701-2.1-3.299-4.3c-1-1.4-1.801-3-2.601-4.6-.2-.4-.899-.1-.799.3.7 2.6 2.499 4.9 4.099 7l2.801 3.6c.8 1 1.599 2.3 2.699 3 1.1.6 2.401.7 3.401 1.4 1.1.7 1.9 1.8 2.5 2.9.7 1.2 1.2 2.6 1 3.9-.2 1.1-1 2.2-2.1 2.4-1.5.3-3.001-1.1-4.101-1.8l-2.299-1.4c-.6-.4-1.201-.9-1.901-.7 0-.1 0-.2 0 0zm3.401-10.6v-.2-.1h-.1v.1.2c-.1 0 0 0 .1 0zm.099-.3c.5 1.2 1.9 2 3 2.8l3.401 2.6 7 5.2 3.599 2.7c1 .8 2.1 1.6 3.2 2.3 1 .6 2.2 1 3.4.8 1-.2 1.8-.9 2.4-1.8 1.3-2.1.401-4.7-.699-6.6a13.53 13.53 0 0 0-4.601-4.9c-1.8-1.2-4.099-1.6-5.799-3-1.7-1.3-1.501-3.7-3.201-5-.9-.7-2.2-.8-3.1-1.6-.7-.6-1.1-1.5-1.6-2.3-.9-1.8-1.699-3.7-3.599-4.7-.6-.3-1.1.5-.5.9 2.7 1.9 2.699 6.1 5.699 7.8.9.5 2.001.6 2.701 1.4.5.7.7 1.7 1.1 2.5.9 1.9 2.7 2.8 4.5 3.6 2 .8 3.699 1.8 5.199 3.4 1.5 1.5 2.9 3.7 3 5.9.1 1-.2 2.1-1.1 2.8s-2.199.4-3.099-.1c-1.1-.6-2-1.4-3-2.1l-3.301-2.4-7.299-5.3-3.601-2.6c-1.1-1.1-2.3-2.2-3.7-2.3zm-39.099-4.4c.1 0 .099.1.099.1l-.099-.3c-.1.3-.001.6.199.9s.3.6.5.9l1 1.8 1 1.8c.3.6.601 1.3 1.201 1.6.2.1.399 0 .399-.2.1-.5-.2-1-.5-1.4l-.7-1.3-1.5-2.8c-.229-.455-.497-.89-.8-1.3-.2-.2-.599-.3-.799-.2-.3.2-.201.8.199.6 0 0-.099-.2-.199-.2zm11.9-3.4c-.1.7 0 1.5.1 2.2l.4 2.1.699 2.1c.2.6.5 1.5 1.1 1.8.2.1.5 0 .5-.3a1.68 1.68 0 0 0-.299-1c-.1-.3-.3-.6-.4-.9-.2-.6-.5-1.3-.6-1.9l-.4-2c-.1-.7-.101-1.4-.301-2.1-.1-.3-.699-.4-.799 0zm-22.301-19.1l2.401-3.1c.9-1 1.8-1.9 2.9-2.8 2.1-1.7 4.6-2.9 7.1-4 .2-.1.1-.4-.1-.3-2.8.5-5.3 1.9-7.5 3.6-1.1.9-2.1 1.9-3 2.9-.9 1.1-1.701 2.2-2.201 3.5.1.2.3.3.4.2zm-211.499 65.1c-3.2 3.6-5.5 7.9-7.2 12.4-1.9 4.9-3.3 9.9-4.7 14.9-2.8 10.6-4.9 21.4-6.5 32.2-1.6 10.9-2.8 21.9-3.901 32.8l-1.5 16.5c-.5 5.2-.9 10.4-1.8 15.6-.9 5.1-2.5 9.9-4.8 14.6-2 4.1-4.7 8.7-4 13.4.1 1.1.5 2.1 1.1 3.1.4.6 1.4.2 1.2-.5-1.7-4.7.2-9.1 2.3-13.3 1.1-2.2 2.2-4.3 3.1-6.6.9-2.4 1.7-4.8 2.2-7.3 1.1-5 1.7-10.1 2.1-15.2l1.4-16.1c1.001-10.8 2.1-21.7 3.6-32.5 1.5-10.7 3.3-21.4 5.9-31.9 1.2-5.1 2.6-10.3 4.2-15.3 1.5-4.6 3.3-9.3 6-13.3.7-1 1.4-2 2.2-2.9.4-.3-.4-1.1-.9-.6zm149.7-.7c4.6 9.7 5.4 20.4 5.4 31-.1 11.1-1.1 22.1-2.7 33.1s-3.8 21.8-6.1 32.7l-6.801 32.7c-2.1 10.8-3.799 21.7-4.899 32.6-.1 1.4-.201 2.8-.101 4.2 0 .5.9.7 1 .1.6-2.7.7-5.4 1-8.2s.701-5.6 1.101-8.4c.8-5.5 1.7-11.1 2.7-16.6 2-11 4.5-22 6.8-33s4.6-21.9 6.3-33c1.7-10.9 2.899-21.9 3.099-33 .2-10.5-.099-21.5-4.199-31.4-.5-1.2-1.1-2.3-1.7-3.4-.3-.7-1.2-.1-.9.6zM84.602 496.4c-.8 4.3-1 8.8-1.2 13.2s-.2 8.7-.2 13.1l.5 26.6c.2 17.8-.3 35.6-1.4 53.3l-1.1 14.8-.7 7.5-.3 3.8c-.1 1.3-.1 2.5-.1 3.8 0 .5.7.6.8.1.4-2.2.7-4.3 1-6.5l.7-6.7 1.1-13.2c.6-8.9 1.1-17.8 1.4-26.6.3-8.9.4-17.8.4-26.7s-.3-17.7-.6-26.6l-.1-14.7c.1-5 .6-10 .8-14.9-.1-.7-.9-.8-1-.3zm-12.9 147.1c2.9-1.5 4.7-4.5 7.4-6.3 1.5-1 3.1-1.7 4.9-1.7 1.9 0 3.9.6 5.7 1.4 6.1 2.5 10.901 7.9 13.001 14.1.3.9.5 1.8.7 2.7.1.5.2 1 .2 1.5 0 .6-.2.9-.6 1.3-1.6 1.6-2.9 3.2-3.501 5.4-.2.6.701 1 1.101.5.5-.9 1.1-1.8 1.7-2.7.6-.8 1.4-1.5 2.1-2.2 1.5-1.5.8-3.8.4-5.6-.9-3.5-2.6-6.7-4.8-9.4s-5.1-5-8.3-6.6c-3.6-1.7-7.9-2.9-11.6-1-1.7.9-3.2 2.2-4.5 3.6l-4.2 4.3c-.6.4-.2 1 .3.7zm-.6.7c-1.1.1-2.1.6-3 1.1s-1.9 1.1-2.7 1.7c-1.7 1.4-3.3 3.1-4.4 5s-1.6 4.4 0 6.2c1.3 1.4 3.3 1.9 5.1 2.4 4.2 1 8 3.1 10.9 6.3 1.5 1.7 2.7 3.6 3.6 5.6 1 2.1 2.3 4.2 4.6 5.1 2.7 1 4.9-1 6.7-2.7a98.26 98.26 0 0 0 6.3-6.6c.7-.8-.5-2-1.2-1.2-1.7 1.9-3.4 3.7-5.2 5.5-.8.8-1.6 1.6-2.5 2.4-.8.7-1.7 1.3-2.7 1.3-2.2 0-3.5-2.2-4.4-3.9-1-1.9-1.9-3.7-3.3-5.4-2.5-3.1-5.9-5.4-9.6-6.8-1.8-.6-3.7-.9-5.4-1.5-1.8-.7-3.1-2-2.6-4.1.5-2.3 2.3-4.3 4-5.9.9-.8 1.8-1.5 2.8-2.1s2.1-1 3.1-1.6c.3-.4.2-.9-.1-.8z"/><path d="M97.403 667.3c.9-.5 1.3-1.6 1.2-2.6 0-1.2-.6-2.3-1.3-3.2-1.4-1.9-3.1-3.7-4.8-5.4-3.2-3.4-6.7-6.7-10.8-9-1.1-.6-2.3-1.2-3.5-1.6s-2.6-1-3.8-1c-.6 0-1 1-.4 1.3 1 .4 2.1.6 3.1.9s2 .8 2.9 1.2a36.76 36.76 0 0 1 5.3 3.4c3.4 2.7 6.4 5.9 9.3 9.1.8.9 1.7 1.8 2.3 2.9.6 1.2.5 2.2-.1 3.3-.2.5.2.9.6.7zm-28.3-18.4c.1.3.4.4.7.5.4.1.8.3 1.3.4l2.5.9c1.6.7 3.2 1.4 4.6 2.3a31.95 31.95 0 0 1 7.9 6.7c1.3 1.5 2.4 3.2 3.6 4.8.2.3.9.2.7-.3-.7-1.7-1.8-3.1-2.9-4.5s-2.4-2.7-3.8-3.9c-2.7-2.4-5.9-4.3-9.2-5.8-.9-.4-1.9-.8-2.9-1.1-.5-.2-1-.3-1.5-.4-.4-.1-.7-.2-1 .1-.1.2 0 .3 0 .3zm35 3.3c.6.3 1.1.1 1.7-.1.7-.2 1.4-.5 2-.8 1.3-.6 2.6-1.3 3.8-2.1s2.4-1.7 3.4-2.7c1.1-1 2.3-2 2.8-3.3.2-.4-.4-.8-.7-.6-1.1.7-1.9 1.7-2.8 2.6-1 .9-2 1.8-3.1 2.5l-3.3 2.1-1.7.9c-.4.2-1.3.8-1.8.7-.5-.3-.9.5-.3.8zm17.5-10.2c-.2 0-.4-.1-.7.1s-.5.5-.6.9c-.2.7-.1 1.5 0 2.3l.7 6.6a96.91 96.91 0 0 1 0 13.2c-.1 1 1.5 1 1.6 0 .3-4.128.3-8.272 0-12.4-.1-2-.4-4-.7-6l-.4-2.7c0-.3 0-.6.1-1 0-.1.1-.3.1-.4v-.3c-.1-.1-.1-.2 0-.1.2 0 .1-.2-.1-.2z"/><path d="M121.602 664c-.3.3-.601.5-.901.8s-.5.8-.8 1.2c-.5.7-1.099 1.4-1.599 2-1.203 1.302-2.507 2.506-3.901 3.6-1.4 1-2.899 1.9-4.599 2.7-1.8.8-3.701 1.3-5.601 1.9s-3.599 1.4-5.099 2.6c-1.5 1.1-2.7 2.5-3.8 3.9-2.4 3-4.4 6.2-6.7 9.3s-4.9 6-7.9 8.4-6.4 4.4-10 5.8-7.5 2.2-11.3 2.6-7.7.6-11.5.1c-3.6-.5-7-1.8-9.4-4.7-2.2-2.7-3.3-6.1-4.2-9.4-.2-.8-.5-1.7-.7-2.5-.3-1-1.7-.5-1.5.4.8 3.5 1.8 7.1 3.6 10.2 1.9 3.2 4.7 5.6 8.2 6.7 3.7 1.2 7.8 1.2 11.6 1.1 4-.2 8.1-.7 12-1.8 3.8-1.1 7.5-2.6 10.8-4.8s6.3-4.9 8.9-8c2.6-3 4.9-6.3 7.2-9.6 2.1-3.1 4.5-6.3 7.901-8 1.9-1 4-1.4 6-2.1a27.45 27.45 0 0 0 4.899-2.3c3.1-1.9 5.901-4.5 7.801-7.5.2-.4.5-.7.6-1.1.2-.4.199-.9.299-1.3 0-.2-.199-.3-.299-.2zm-.5-7.5c-.2.3-.501.5-.701.8l-.599 1-1.3 2.1c-.9 1.3-1.9 2.5-3 3.7-2.211 2.312-4.819 4.209-7.7 5.6-3 1.5-6.401 2.1-9.401 3.4-1.5.6-2.9 1.4-4.1 2.5-1.3 1.2-2.3 2.6-3.2 4.1-1.8 2.9-3.4 5.7-5.5 8.4-2 2.6-4.3 4.9-6.9 7.1-5.1 4.2-11.1 7.3-17.6 8.5-3.8.7-7.7.8-11.4.2-1.9-.3-3.7-.8-5.5-1.4s-3.5-1.5-5.2-2.4c-.8-.4-1.5.7-.7 1.2 2.8 1.9 6.3 3.1 9.6 3.8 3.4.7 6.9.9 10.4.5 6.8-.7 13.3-3.3 18.9-7.3 5.4-3.9 10-9 13.5-14.8 1.8-3 3.4-6.3 6.5-8.1 2.999-1.8 6.499-2.3 9.7-3.6 5.9-2.4 11.201-7 14.101-12.8.2-.4.4-.7.5-1.1.1-.3.099-.7.199-1.1-.1-.3-.499-.5-.599-.3zm-37.401 20c-.7.4-1.2.8-1.7 1.3l-1.7 1.8-3.3 3.2c-2.2 2-4.6 3.9-7.2 5.6-4.9 3.2-10.4 5.4-16.3 5.7-5.5.3-11.1-.9-15.5-4.2-1.1-.8-2.6-1.9-2.9-3.3-.2-1.5.5-3.2 1.2-4.5 1.4-2.8 3.5-5.1 5.6-7.4 2.6-2.8 5.3-5.4 8.1-8 1.4-1.3 2.8-2.5 4.3-3.8 1.4-1.2 2.9-2.4 4.2-3.8.3-.3-.1-.7-.4-.5-1.6.8-3.1 1.9-4.4 3-1.378 1.079-2.713 2.213-4 3.4-2.7 2.3-5.3 4.8-7.8 7.4-2.3 2.4-4.7 4.9-6.4 7.8-.8 1.4-1.5 3-1.9 4.6-.4 1.8 0 3.3 1.3 4.6 4.1 4.2 10.2 6.2 16 6.4 6.1.2 12.1-1.6 17.4-4.6 3.1-1.8 6-4 8.7-6.4 1.3-1.2 2.6-2.5 3.9-3.8.6-.6 1.2-1.3 1.8-2 .3-.4.7-.7.9-1.1.3-.3.4-.8.5-1.1.2-.2-.2-.5-.4-.3zm-2.8-3.2c-.2.2-.5.2-.7.3s-.4.3-.6.5l-1.5 1.4-2.9 2.4-6.2 4.3c-2.1 1.3-4.4 2.5-6.7 3.5-2.4 1.1-4.9 2.2-7.5 2.7-1.514.299-3.06.399-4.6.3l-2.3-.3c-.7-.1-1.4-.4-2.1-.4-.4 0-.5.5-.2.7 1.1.7 2.6.8 3.9.9 1.4.2 2.8.2 4.2 0 2.7-.3 5.3-1.3 7.8-2.3 4.8-2.1 9.4-4.7 13.6-7.8 1.2-.9 2.3-1.8 3.4-2.7.5-.5 1.1-.9 1.6-1.4.3-.2.6-.5.8-.8s.2-.5.4-.8c0-.4-.2-.6-.4-.5zm117.5-16.3c1.6-2.8 3.401-5.5 5.701-7.8a25.66 25.66 0 0 1 8.199-5.3c3.4-1.3 7.1-1.9 10.7-1.6 1.8.1 3.6.5 5.4 1 1.6.5 3.201 1.2 4.301 2.6 1 1.3 1.399 3 1.799 4.6l1.5 5.9c.2.9.501 1.9.701 2.8.1.4.299.9.299 1.3.1.3.1.6-.2.6s-.7-.2-1-.3c-.4-.2-.9-.3-1.3-.5-.9-.4-1.899-.7-2.799-1-3.4-1-6.901-1.2-10.401-.4-3.2.7-6.3 2.2-9 4.1-1.6 1.1-3.1 2.3-4.5 3.5s-2.7 2.7-4 4c-.3.3-.699.7-1.199.5-.4-.2-.601-.8-.801-1.2a13.93 13.93 0 0 1-1.199-2.8c-.6-2-.901-4-.901-6 0-.8-1.1-.8-1.2 0-.2 1.9.101 3.9.601 5.8.3 1 .6 1.9 1 2.8.4.8.799 1.8 1.399 2.4 1.6 1.5 3.3-.4 4.4-1.5 1.3-1.3 2.6-2.6 4-3.8 2.8-2.3 5.9-4.4 9.4-5.6a18.78 18.78 0 0 1 11-.6c1 .2 2 .6 3 .9.9.3 1.801.8 2.801 1.1.8.3 1.699.2 2.299-.4.6-.7.501-1.6.301-2.4a151.27 151.27 0 0 0-1.701-6.4c-.5-1.9-.9-3.9-1.6-5.7-.6-1.7-1.6-3.2-3.1-4.2-1.6-1.1-3.5-1.6-5.3-2-3.9-.8-7.9-.7-11.8.2-6.9 1.7-13.3 6.5-16.4 12.8-.4.8-.7 1.5-.9 2.4-.3.3.3.5.5.2z"/><path d="M235.404 652.4c-.3-.9-1.1-1.6-1.8-2.1-.8-.6-1.8-1-2.7-1.3-2.2-.7-4.6-.7-6.8-.3s-4.5 1-6.6 1.9c-1.9.7-3.6 1.8-4.8 3.5-.1.2.1.3.3.2 3-2.6 7.1-3.7 11-4.3 2.1-.3 4.3-.4 6.3.2.9.2 1.7.6 2.5 1 .8.5 1.4 1.2 2.2 1.6.2.1.5-.1.4-.4zm-6.3-11.3c.5-.6.2-1.4 0-2.1-.221-.847-.489-1.682-.8-2.5-.6-1.6-1.5-3.1-2.7-4.4-2.4-2.4-6-3.4-9.4-3.1-3.8.3-7.4 1.8-10.7 3.7-2.8 1.6-5.5 3.6-7.1 6.5-2.2 4-1 8.6-.8 12.9 0 .3.2.6.5.7.4.1.7.2 1.1.3.6.1.9-.6.4-1-.3-.2-.6-.4-1-.6l.4.6c.1-3.7-1.2-7.4.1-11 1-2.8 3.4-4.9 5.9-6.5 5.2-3.2 13.1-6.4 18.6-2.2 1.4 1.1 2.4 2.6 3.1 4.2.4.8.6 1.6.9 2.5.2.7.4 1.7 1.1 2h.4zm7.4 21.2c0 .4-.1.8 0 1.1.1.4.4.8.5 1.2l1.1 2.5 2.2 4.9 4.4 9.7 4.5 9.8c.7 1.4 1.6 3 1.9 4.5s-.5 3-1.5 4.1c-3.5 3.9-9.2 5.2-14.3 4.3-5.9-1-10.9-4.6-15.3-8.5-2.4-2.2-4.8-4.6-6.7-7.3-1-1.3-1.8-2.7-2.6-4.2s-1.3-3.1-1.9-4.7c-.3-.9-1.5-.5-1.3.4.4 3.1 2.1 6 3.8 8.5 1.8 2.6 3.8 4.9 6.1 7 4.5 4.4 9.7 8.4 15.9 10 5.4 1.4 11.5.6 15.9-3 2.4-1.9 4.3-4.8 3.2-8-.6-1.7-1.5-3.3-2.2-5-.8-1.7-1.6-3.4-2.3-5.1l-5.3-11.5-2.7-5.7c-.5-1-.9-2-1.4-2.9-.2-.4-.4-.9-.7-1.3-.3-.5-.6-.8-1-1.2-.1.1-.3.2-.3.4zm-27.4 5.4h-.7v.1c.3-.1.5-.1.7-.1z"/><path d="M209.102 667.8c.1 0 .1-.2 0-.2s-.1.2 0 .2z"/><path d="M209.103 667.7c-.3.7-.1 1.4.1 2.2l.5 2.5c.4 1.6.9 3.2 1.5 4.8 1.1 3.1 2.6 6.1 4.3 8.8 3.5 5.5 8.4 10.4 14.5 12.9 3.6 1.5 7.7 2 11.1-.1.5-.3 0-1.2-.5-.9-2.9 1.9-6.6 1.4-9.7.2-3-1.1-5.7-3-8.1-5-4.8-4.2-8.2-9.7-10.5-15.5-.6-1.7-1.2-3.3-1.7-5-.2-.9-.5-1.7-.7-2.6-.2-.8-.2-1.6-.8-2.3.1-.2 0-.1 0 0zm-4.2 3.3c0 1 .1 2 .4 2.9.1.5.3 1 .5 1.4.1.2.2.4.4.6s.3.4.5.6.7.1.7-.3c-.1-.4-.2-.9-.4-1.3s-.3-.9-.5-1.3c-.3-.9-.5-1.8-.6-2.7a.45.45 0 0 0-.029-.196.46.46 0 0 0-.107-.167.48.48 0 0 0-.167-.108c-.063-.024-.13-.033-.197-.029-.3.1-.5.3-.5.6zm46.6 25.4c-.1.6-.2 1.1-.2 1.7l.2 2.1c.1 1.3.1 2.6.1 4 0 2.5-.2 5-.9 7.4-.6 2.2-1.6 4.3-3.4 5.7-1.8 1.3-4 2-6.2 2.5-8.9 2-18.6.1-26.1-4.9-7.1-4.7-12.2-12.2-14.2-20.4-1.1-4.7-.7-9.6-2.3-14.2-1.6-4.5-5.1-7.6-7.9-11.4-5.1-7-7.2-16.3-5.1-24.7.3-1 .5-2.1.8-3.1.2-.5-.7-.9-.9-.4-2 4-2.5 8.8-2.1 13.1a32.42 32.42 0 0 0 4 12.9c1.2 2.1 2.6 3.9 4.1 5.7s3.1 3.6 4.3 5.7c2.6 4.5 2.2 9.8 3.1 14.7a36.1 36.1 0 0 0 13.6 22.1c7.6 5.8 17.5 8.1 26.9 6.6 4.5-.7 9.5-2.2 11.7-6.5 1.1-2.1 1.5-4.5 1.8-6.8.3-2.8.3-5.5 0-8.3-.1-.6-.1-1.2-.2-1.8-.1-.7-.4-1.2-.8-1.8-.1 0-.3 0-.3.1z"/><path d="M251.2 709.4c-1.6.7-3 1.7-4.6 2.5s-3.3 1.4-5 1.9c-3.4 1-6.9 1.3-10.4 1.1a28.48 28.48 0 0 1-18.1-8.3 29.55 29.55 0 0 1-8.5-17.8c-.2-2.1-.3-4.2-.6-6.3-.3-1.7-.8-3.3-1.5-4.8-1.3-2.7-3.1-5-5-7.3s-3.9-4.5-5.6-6.8c-1.6-2.2-3.1-4.8-3.6-7.5-.1-.7-.2-1.4-.2-2.1 0-.6-.8-.6-.9 0-.2 2.8.8 5.7 2.2 8.2 1.5 2.6 3.4 5 5.4 7.3s3.9 4.7 5.5 7.4c.7 1.3 1.3 2.6 1.7 4 .6 2.1.8 4.3.9 6.4.3 3.7.9 7.2 2.4 10.7 1.3 3.2 3.2 6.1 5.5 8.7 4.7 5.2 11 8.8 18 9.7 7.2 1 14.8-.5 20.9-4.5.4-.3.7-.5 1.1-.8s.6-.6.9-1c.2-.5-.1-.9-.5-.7zm-52.3-57.7c-.2 0-1-1.2-1.2-1.4-.5-.5-1-.9-1.4-1.4l-2.6-3.1c-.8-1.1-1.5-2.2-2.1-3.3l-1.8-3.7c-.4-.7-1.4-.2-1.3.5.3 1.7 1.3 3.5 2.2 5 .9 1.6 2 3.1 3.2 4.5 1.2 1.3 2.4 2.7 4.1 3.5.4.2 1.2.3 1.3-.3 0-.3-.3-.7-.6-.5 0 0 0 .3.2.2zm-6.2-273.6c-3.8 1.2-5.6 5.1-7.1 8.4-2 4.5-3.8 9.1-5.5 13.8-3.5 9.3-6.7 18.7-9.7 28.2l-9 28.6-9.4 28.3c-3.4 9.3-7 18.6-11.1 27.6l-1.5 3.4c-.5 1 1.1 1.9 1.5.9 4.2-8.9 7.9-18 11.3-27.2s6.5-18.6 9.5-28l8.8-28.2c2.9-9.4 6-18.7 9.3-27.9l5.2-13.8 2.6-6.5c.8-1.7 1.7-3.5 3.1-4.8.7-.7 1.5-1.2 2.4-1.6.5-.4.2-1.4-.4-1.2zm1.1 3.8c2 3.5 2.3 7.8 2.3 11.7.1 4.5-.1 8.9-.2 13.4v28.1l.6 28.1c.1 4.7.3 9.4.5 14.1.2 4.4.5 8.8.3 13.2-.1 2.1-.4 4.2-1.1 6.2-.6 2-1.6 3.8-2.5 5.6-.9 1.9-1.4 3.9-1.4 6 0 2.2.6 4.3 1.4 6.3.4 1 .9 1.9 1.5 2.9.3.4.9.2.8-.3-.5-2.2-1.3-4.2-1.8-6.4-.4-2.1-.4-4.3.4-6.3.7-1.9 1.8-3.7 2.5-5.5.8-1.9 1.3-4 1.6-6.1.6-4.3.3-8.7.1-13.1l-.5-14.1-.7-28.1c-.2-9.3-.2-18.9-.1-28.3l.1-13.8c0-4-.2-8-1.7-11.7-.4-.9-.8-1.7-1.3-2.6-.3-.3-1.1.2-.8.7zm-33.2 64.6l-4.2 8.8-4.9 8.3c-3.4 5.4-7 10.8-9.9 16.5-1.6 3.2-2.9 6.6-3.7 10.2-.1.3.4.4.5.1 2-6.2 5.1-11.9 8.4-17.5 3.4-5.5 7-10.8 10.1-16.5 1.7-3.1 3.3-6.4 4.2-9.8.1-.2-.4-.4-.5-.1z"/><path d="M193.804 514.3c-.3.2-.6.5-.9.7-.3.3-.5.8-.7 1.3a10.58 10.58 0 0 0-.9 2.5c-.5 1.8-.7 3.6-.8 5.5-.2 4.1.2 8.2.3 12.3.4 9.1.7 18.2.8 27.4l-.1 27.2-.3 13.5c-.2 4.1-.4 8.2-1.4 12.2-.5 2-1.2 3.9-2.1 5.8-.9 1.8-1.9 3.4-2.6 5.3-1.2 2.9-1.5 6.6.9 9 .5.5 1.1.8 1.7 1.1.4.2.7-.5.3-.7-2.9-1.6-3-5.5-2.1-8.3.6-1.9 1.7-3.6 2.6-5.3s1.6-3.5 2.2-5.3c1.1-3.8 1.6-7.8 1.8-11.7.3-4.3.4-8.7.5-13l.2-26.6-.6-26.6-.6-12.6c-.1-3.6 0-7.4 1.5-10.7l.6-1.2c.2-.4.2-.9.3-1.3-.1-.4-.4-.6-.6-.5zm63.8-7.1c-.3 2-.5 3.9-1.1 5.8s-1.5 3.7-2.7 5.4c-.3.5.1 1.1.6 1.1 1.3 0 1.9 1.2 2 2.3.2 1.6-.6 2.9-1.5 4.1-1 1.4-2.2 2.7-2.8 4.4-.7 2-.4 4.2-.4 6.2.1 4.3-2.2 8.1-3.8 11.9l-4.6 11.7c-2.8 8-5.2 16.1-7.1 24.3s-3.3 16.6-4.2 25-1.3 16.9-1.1 25.3c0 1 .1 2.1.2 3.1.1.7 1.1.8 1.1 0 .1-2.2 0-4.3 0-6.5s0-4.3.1-6.5c.1-4.3.4-8.6.8-12.9.8-8.6 2.1-17.2 4-25.7 1.789-8.464 4.196-16.787 7.2-24.9 1.4-4 3-8 4.7-12 1.6-3.8 4-7.7 4.1-12 .1-2.1-.5-4.4.2-6.5.5-1.7 1.9-3.1 2.9-4.5.9-1.3 1.6-2.7 1.5-4.3-.1-1.3-.6-2.8-1.7-3.6-.5-.4-1.2-.5-1.8-.5l.6 1.1c2.3-3.3 4-7.9 3.2-12 .3-.1-.3-.1-.4.2zm-10.6 14.3c-.9.2-1.7.9-2.5 1.4l-2.5 1.4c-1.8.9-3.6 1.7-5.5 2.3-3.7 1.2-7.6 1.8-11.5 1.8-1.1 0-2.2 0-3.3-.1-.7-.1-1.3-.1-2-.2-.6-.1-1.2-.2-1.8 0-.3.1-.4.5-.1.7.4.3 1 .3 1.5.4.6.1 1.2.2 1.7.2 1 .1 2.1.2 3.1.2 2 0 4-.2 5.9-.4 3.983-.601 7.857-1.78 11.5-3.5 1-.5 2.1-1 3.1-1.7.8-.5 2-1.1 2.5-2 .3-.3.1-.6-.1-.5zm-2.4 10.4c-.8.4-1.4 1.1-2 1.7l-2.1 1.8-4.3 3.4-4.5 3-4.6 3c-.3.2 0 .5.2.4l4.9-2.5 4.6-3.2 4.2-3.4c.7-.6 1.4-1.2 2-1.9.6-.6 1.3-1.3 1.8-2 .3-.1.1-.4-.2-.3zm-104.1-11.3c1.8.3 3.2 2.1 2.9 4-.2 1.2-.9 2.1-.8 3.3.1 1.3.6 2.5.9 3.7 1.3 5-.4 10.3-1.9 15.1-3.3 10.1-6.7 20.1-9.3 30.3s-4.3 20.6-4.1 31.1c0 2.5.3 4.9.4 7.4.1 2 .2 4.2-.8 5.9s-3.5 2.4-3.1 4.8c.2 1.3.8 2.6 1.2 3.9s.9 2.6 1.3 3.9c.6 1.8 1.5 4.4.2 6.1-1.2 1.6-3.7 1.4-5.4.9-2.4-.7-4.6-1.7-7.1-1.8-2.6-.1-5.1.6-7.5 1.5-1.2.4-2.3.9-3.5 1.5-.7.3-.2 1.5.5 1.2 2.5-.8 5-2 7.6-2.4 1.3-.2 2.6-.3 3.8-.2 1.3.1 2.5.6 3.7 1 2.1.8 4.4 1.5 6.6.8 2.1-.6 3.4-2.4 3.4-4.6.1-2.4-1-4.8-1.7-7-.4-1.3-.9-2.7-1.3-4-.2-.5-.5-1.2-.3-1.8.2-.5.6-.8 1-1.1.8-.7 1.5-1.3 2-2.3.5-.9.7-1.9.9-2.9.3-2.3-.1-4.6-.2-6.8-.7-10.8.8-21.5 3.2-32 2.5-10.6 5.9-20.9 9.4-31.2 1.7-5 3.6-10.3 3-15.7-.2-1.3-.5-2.5-.9-3.8-.2-.6-.4-1.2-.4-1.8-.1-.7.2-1.3.4-1.9.7-1.9.2-3.9-1.3-5.3-.7-.6-1.5-1.1-2.4-1.2-.9.1-1.2 1.2-.4 1.4zm37.2-122.6c-.7-.6-1.6-1-2.4-1.5l-2.6-1.4-5.1-3.1-4.9-3.3-2.4-1.7-2.5-1.7c-.4-.3-.8.3-.5.7l2.3 2.1 2.4 1.9c1.6 1.2 3.2 2.3 4.9 3.3l5.1 3 2.6 1.4c.9.5 1.9 1 2.8 1.2.2.1.7-.5.3-.9zm-19.6 1c2.3.9 4.6 1.4 6.8 2.5 2.2 1 4.2 2.3 6.1 3.8.4.3 1 .7 1.3 1.1.2.2.2.2 0 .3s-.6 0-.8 0h-4.1-8.2l-9.4.2c-.6.1-.6 1 0 1l9.4.2h9.4 2.2c.6 0 1.3.1 1.9-.1 1.2-.4 1.4-1.7.6-2.6s-2-1.7-3-2.3c-1.1-.7-2.3-1.4-3.6-1.9-2.7-1.2-5.6-2.5-8.5-2.6-.3 0-.4.4-.1.4zm42.2-16.2c.8 0 1.7-.7 2.5-1l2.7-1.4 5.4-2.9 5.3-2.9 2.6-1.5c.8-.5 1.8-1 2.5-1.6.2-.2 0-.6-.3-.5-.9.2-1.8.7-2.6 1.2-.9.4-1.8.9-2.7 1.4l-5.4 2.9-5.2 2.9-2.6 1.5c-.8.4-1.8.8-2.3 1.6-.3 0-.1.3.1.3zm24.1 4.6c-.7-.2-1.3 0-2 .1l-2.3.5a33.92 33.92 0 0 1-4.6.6c-3.1.2-6.2.3-9.3.1-1.2-.1-2.9-.5-4 .2-1 .6-1.1 1.9-.6 2.9.5 1.1 1.8 1.7 2.9 2.2l4.1 1.8 4.8 1.7 2.3.7c.9.2 1.8.3 2.6.4.6.1.9-.7.3-.9l-4-1.3-3.8-1.2-3.9-1.5c-1.1-.5-2.3-.9-3.3-1.6-.4-.3-.8-.6-.9-1.2s.3-.9.8-1c.6 0 1.1.1 1.7.1l2.1.1c2.7.1 5.5-.1 8.2-.4l4.7-.8 2.3-.5c.7-.2 1.3-.3 1.8-.8.3 0 .2-.2.1-.2zm-21.1 23.1c.6.7 1.4 1.2 2.1 1.8l2.4 1.8 4.5 3.6c3 2.4 5.8 5 8.7 7.5.8.7 1.6 1.5 2.4 2.3.7.7 1.5 1.5 2.4 2.1.2.2.5-.1.4-.4-.5-.8-1.2-1.4-1.8-2.2-.6-.7-1.3-1.4-2-2l-4.2-4.1c-2.8-2.6-5.8-5-8.9-7.3-.9-.7-1.8-1.3-2.7-1.9s-1.8-1.3-2.8-1.7c-.5-.2-.7.3-.5.5zm70-59.5c.3-.3.1.2 0 .3-.2.2-.5.4-.7.6l-1.6 1.4-3.4 2.7-3.4 2.5-1.8 1.3c-.6.4-1.3.8-1.7 1.3-.2.2 0 .6.3.6.8-.2 1.7-.8 2.4-1.3l2.4-1.5c1.5-1 3-2.1 4.4-3.3l2.2-1.8c.6-.5 1.4-1.1 1.8-1.8.3-.5.4-1-.2-1.4-.3-.2-.8-.2-.9.2-.1.2.1.3.2.2zm1.6 11.9c-.1.2-.4.3-.5.5-.2.2-.3.5-.4.7-.3.5-.6 1-.8 1.5l-1.6 2.8-3.5 5.5-3.7 5.4-1.9 2.6-2 2.8c-.2.4.3.8.6.5.8-.8 1.5-1.7 2.2-2.6l1.9-2.5 3.8-5.5 3.5-5.7 1.6-2.8.8-1.4c.1-.3.3-.6.4-.8.1-.3.1-.5.2-.8s-.4-.5-.6-.2zm-140.4 153.9l-3.6-3.6c-.6-.6-1.2-1.1-1.9-1.7-.3-.3-.6-.6-.9-.8-.3-.3-.7-.5-1.1-.7-.2-.1-.5.1-.4.4.2.3.4.7.7 1s.7.6 1 .9c.6.6 1.3 1.2 1.9 1.7l4 3.2c.2.1.5-.2.3-.4zm-.2 5.4c-1.1 1-2.3 1.9-3.6 2.6-.6.4-1.3.7-2 1s-1.4.6-2 1c-.3.2-.2.7.2.7.8-.1 1.5-.4 2.2-.7s1.4-.7 2.1-1.1c1.3-.8 2.6-1.8 3.7-3 .2-.3-.3-.8-.6-.5zm85.5-508.7c-1.2-.9-2.7-1.4-4.1-1.7-1.5-.3-3-.5-4.5-.4-2.9.1-5.8 1.1-8.1 2.9-4.3 3.3-6.5 8.7-8.8 13.4-.7 1.4-1.4 3-2.5 4.1-1.1 1-2.9 1.4-4.1.5-.4-.3-.8.3-.5.6.9 1 2.3 1.2 3.5.9 1.3-.3 2.4-1.3 3.2-2.4.9-1.1 1.5-2.4 2.1-3.7l1.8-3.7c1.2-2.4 2.5-4.9 4.4-6.9 1.9-2.1 4.4-3.6 7.2-4.2 1.7-.3 3.4-.3 5.1-.1 1.7.3 3.3.9 5 1.3.3.2.7-.3.3-.6zm-20 22.8c-.6.1-.8.6-1.2.9-.5.5-1 .9-1.5 1.2-1.1.7-2.2 1.1-3.4 1.5-2.8.8-6 1-8.8.1-2.4-.7-4.7-2.6-5.4-5s.6-5.2 2.6-6.7c2.7-2 6.2-1.6 9.2-.5.2.1.3-.2.1-.3-2.5-1.9-6.2-1.9-8.9-.5-2.5 1.3-4.3 4.1-4.2 7 .1 3 2 5.5 4.6 6.8 3.1 1.5 6.7 1.4 10 .7 1.6-.3 3.2-.8 4.6-1.7.6-.4 1.3-.9 1.8-1.4s1.1-1.1.8-1.9c-.1-.2-.2-.2-.3-.2z"/><path d="M183.902 40.1c-1.4.6-2.2 2.1-2.6 3.5-.4 1.9-.1 3.8.2 5.6.3 1.6.8 3.3 2.1 4.4 1 .9 2.8 1.5 3.9.6.2-.2 0-.6-.2-.6-.6 0-1.2 0-1.8-.3s-1-.6-1.4-1.1c-.8-1.1-1.1-2.5-1.4-3.8-.3-1.5-.6-3.1-.2-4.6.3-1.3 1-2.3 2-3.1.5-.2-.1-.8-.6-.6zm6.6.9c-.8.9-1.3 2.3-1.6 3.4-.3 1.2-.3 2.5.2 3.6.4 1 1.1 1.9 2 2.4.8.5 2.1.9 2.9.2.2-.2.1-.5-.1-.5-.4-.1-.8-.1-1.2-.2s-.8-.3-1.1-.6c-.7-.5-1.2-1.2-1.5-2-.3-.9-.2-2 0-2.9.3-1.1.8-2 1.2-3 .2-.4-.5-.8-.8-.4zm6.9-2h.2c-.9-.2-1.2 1.5-1.3 2-.1.9 0 1.8.4 2.7.4.8 1 1.4 1.7 1.9.4.2.8.4 1.2.5s.9.2 1.3-.1c.2-.1.1-.4 0-.5-.2-.3-.6-.3-1-.4-.3-.1-.6-.2-.9-.4-.6-.3-1-.8-1.3-1.4s-.4-1.3-.3-2a1.93 1.93 0 0 1 .3-1c.1-.3.4-.7.2-1.1v.2-.1c0-.3-.3-.5-.5-.3z"/><path d="M183.303 50.7c-1.1-.7-2.5.6-3 1.5-.8 1.4-.7 3.1-.2 4.5.9 2.7 3.2 5.1 6.1 5.6.8.1 1.7.2 2.5 0 .4-.1.8-.2 1.2-.4s.8-.4 1.1-.7 0-.8-.4-.7-.7.3-1.1.4-.8.2-1.1.2c-.8.1-1.6 0-2.3-.2-1.4-.4-2.7-1.3-3.6-2.5s-1.6-2.9-1.5-4.4c.1-.8.4-1.5.9-2 .3-.3.5-.4.9-.6.3-.1.5-.3.7-.5 0 0-.1-.2-.2-.2z"/><path d="M183.603 60h-.4c-.1 0-.2.1-.3.1-.2.1-.4.3-.5.4-.4.3-.6.6-.9 1-.5.8-.8 1.7-.8 2.6 0 1.9 1 3.7 2.7 4.5.6.2.9-.4.5-.8-1.1-.9-2-2.3-1.9-3.7 0-.7.2-1.4.6-2 .2-.3.4-.6.7-.9l.4-.4.2-.2c.1-.1.1-.3.2-.3-.1 0-.3-.3-.5-.3zm25.2-37.9c-.6.1-1 .5-1.5 1s-.9 1.1-1.4 1.6c-.8 1.1-1.4 2.4-1.9 3.7-.9 2.6-1.2 5.4-.6 8.1.6 3.2 2.5 6.3.7 9.5-1.6 2.8-4.5 4.3-6.7 6.6-2.1 2.2-3.9 6.1-1.6 8.7.4.5 1-.1.8-.6-1.4-2.9.2-5.7 2.3-7.7 2.2-2 4.8-3.6 6.3-6.2.7-1.2 1.1-2.6 1-4-.1-1.6-.6-3.2-1.2-4.7-.5-1.4-.9-2.8-1-4.2-.1-1.3.1-2.7.4-4 .4-1.5.9-2.9 1.7-4.1.4-.7.9-1.3 1.4-1.8s1.1-1 1.3-1.6c.2-.2.1-.3 0-.3zm21.6 1.1c-2-1-4.6-.3-6.5.6-2.2 1-3.9 2.8-5.2 4.8-2.5 4.2-3 10-.8 14.4 1.1 2.3 3.5 4.5 6.2 4.2.5 0 .6-.7.1-.8-1.9-.7-3.6-1.8-4.7-3.6-1.2-2-1.6-4.4-1.5-6.6.1-4.3 2-8.6 5.7-10.9 1-.6 2.1-1.1 3.2-1.3 1.1-.3 2.3-.3 3.4-.6.1.1.2-.1.1-.2zm-.8 16.9c-.6.1-1.2.6-1.6 1.1-.5.5-.9 1-1.2 1.7-.6 1.2-.9 2.6-.9 4-.1 2.8.8 6.2 3.4 7.8 1.8 1.1 4 .8 5.9.2.5-.2.4-.9-.1-.9-1.9.1-4 .6-5.5-.7-1.3-1-1.9-2.8-2.2-4.3s-.2-3.1.2-4.6c.2-.7.5-1.4 1-2 .2-.3.5-.6.8-.8s.6-.4.9-.7c0-.4-.3-.8-.7-.8zm10.1 5.9c-.1 0-.1-.1-.2-.1l.2.2c-.1-.5-.7-.5-1.1-.5h-1.1c-.8.1-1.5.4-2.1.8-1.2.9-2.2 2.3-2.1 3.8a1.92 1.92 0 0 0 .4 1.2c.3.4.6.6 1 .7s.8-.5.4-.7a3.05 3.05 0 0 1-.5-.7c-.1-.3-.1-.6-.1-1 0-.6.4-1.3.9-1.8s1.2-.9 1.9-1.2c.3-.1.7-.2 1.1-.2s1 .2 1.2-.2l-.3.2h.1c.4 0 .6-.4.3-.5zm2.1-4.2c-.1 0-.1 0 0 0z"/><path d="M241.802 41.9c.1 0 .1-.1 0-.1s-.1.1 0 .1z"/><path d="M241.902 41.6c-.8.4-1.2 1.2-1.5 2-.4.8-.6 1.7-.6 2.6-.1 1.8.3 3.5 1.4 4.9 1 1.3 2.4 2.4 4 2.7 2.1.5 4.2-.1 6.1-.8 3.6-1.4 6.8-3.6 8.5-7.2 1.7-3.3 2-7.1.8-10.6-.7-2-1.8-3.8-3.3-5.3-.7-.8-1.5-1.5-1.9-2.6-.3-1-.3-2.3.1-3.3.3-.6-.6-1.1-.9-.5-.4.7-.7 1.4-.8 2.3s.1 1.7.4 2.5c.7 1.6 2.2 2.6 3.2 4.1 1.9 2.8 2.7 6.3 2 9.7-.7 3.2-2.7 6.1-5.4 7.8-1.6 1-3.5 1.8-5.4 2.3-1.7.5-3.5.5-5.1-.5-1.5-.9-2.6-2.5-2.8-4.3-.2-1 0-2 .2-3 .3-.9.8-1.7 1-2.7.2 0 .1-.1 0-.1zm-10.3-30.4c-1.6-.3-2.8 1.2-3.3 2.6-.6 1.8-.2 3.7.6 5.3 2 3.9 6.5 5.6 10.6 5.7 3.8.1 8.9-.7 10.1-5 .5-1.8.2-3.7-.8-5.2-1-1.6-2.7-2.6-4.6-2.9-2-.3-4.6.2-6 1.8-.7.9-.8 2-.1 2.9.8 1 2.1 1.2 3.3 1.2.6 0 .8-.9.1-1.1-.8-.2-1.9-.2-2.4-.9-.6-.8.3-1.4.9-1.8 1.3-.7 2.8-.9 4.3-.6.701.143 1.365.428 1.951.838s1.082.936 1.457 1.545.621 1.289.723 1.997.057 1.429-.131 2.12c-.9 3.5-5.2 4.1-8.2 4.1-3.5.1-7.1-.9-9.4-3.7-1.1-1.4-1.9-3.1-1.9-4.9 0-1.7 1.1-3.3 2.8-3.6.2-.1.2-.3 0-.4zm-26.2 30.4c1.2 1.4 3.1 2.3 4.8 2.9.9.3 1.8.4 2.7.4s2 0 2.9-.3c.7-.2.6-1.4-.2-1.4l-2.6.2c-.9 0-1.7-.2-2.5-.4-1.7-.4-3.1-1.4-4.6-2.3-.4-.3-.8.5-.5.9zm34.5-36.2c.3-.8-1-1.8-1.5-2.2-.8-.7-1.7-1.2-2.6-1.7-2-.9-4.1-1.3-6.3-1.1-2.4.2-4.7 1.1-6.8 2.1a67.99 67.99 0 0 0-6 3.1c-1 .6-1.9 1.3-2.8 2-.4.4-.9.8-1.2 1.2a3.02 3.02 0 0 0-.5.7c-.2.3-.2.5-.4.8-.1.3.2.6.5.4.2-.2.4-.3.6-.4l.5-.5c.4-.3.7-.7 1.1-1 .7-.6 1.6-1.2 2.4-1.7 1.7-1.1 3.6-2 5.4-2.8 3.8-1.9 8-3.4 12.2-1.9 1 .4 1.9.9 2.8 1.5.5.3.9.7 1.3 1.1.3.3.7.8 1.2.7 0-.1.1-.1.1-.3zm-3.4 2.6c3.2-1.1 6.7-2 10.1-1.5 1.41.209 2.767.684 4 1.4.626.307 1.2.712 1.7 1.2.6.5 1 1.1 1.7 1.4.4.2.7-.3.7-.7-.1-.8-.9-1.4-1.4-1.8-.6-.5-1.3-1-2-1.3-1.4-.7-2.9-1.2-4.5-1.4-3.7-.5-7.3.5-10.6 2.2-.2.1 0 .6.3.5z"/><path d="M250.201 11.3c2.1-.4 4.3-.8 6.4-.3 1.7.4 3.3 1.3 4.4 2.7 1.2 1.6 1.3 3.6 1.3 5.5 0 1.1-.1 2.2-.2 3.4-.1 1-.4 2.1-.3 3.1.1 2.1 1.7 3.5 3.5 4.1.4.1.6-.4.4-.7l-1.9-1.9c-.6-.9-.6-1.8-.5-2.8.3-2.3.5-4.6.3-6.9-.1-1.9-.7-3.7-2.1-5.1-1.2-1.3-2.9-2.1-4.6-2.4-2.4-.4-4.8-.2-7 .9-.2 0 0 .4.3.4z"/><path d="M262.702 18.9c.8.5 1.7.8 2.5 1.4.7.5 1.3 1 1.8 1.6 1.1 1.2 2 2.7 2.6 4.3 1.4 3.9.9 8.1.7 12.2 0 .4.6.5.7.1 1.4-4.2 1.5-9.1-.2-13.3-.7-1.7-1.7-3.3-3.1-4.6-.7-.6-1.4-1.2-2.2-1.6s-1.9-.9-2.7-.4c-.2.1-.2.2-.1.3z"/><path d="M265.402 36.9c2.2-.7 4.5.1 5.8 2 1.4 2.1 1.6 4.8 1.6 7.3 0 2.7-.4 5.3-1.2 7.9-.79 2.562-1.899 5.014-3.3 7.3-1.3 2.1-2.7 5.2-.6 7.3.4.4 1.1-.1.7-.6-1.9-2.5.4-5.2 1.7-7.3 1.4-2.4 2.5-5.1 3.2-7.8s.9-5.5.8-8.3c-.1-2.5-.6-5.2-2.4-7.1-1.6-1.7-4.7-2.8-6.7-1.1-.1.2.1.5.4.4zm5 27.7c.2.2.3.3.5.4s.4.3.5.6c.3.5.4 1.1.5 1.7.1 1.4.2 3-.3 4.3-.5 1.4-1.7 2.3-3.1 2.6-1.5.3-3-.1-4.3-.9-1.4-.9-2.3-2.3-2-3.9.1-.5-.6-.8-.8-.4-.9 1.6.2 3.5 1.4 4.5 1.4 1.2 3.3 2 5.2 1.8 1.7-.1 3.3-1 4.2-2.5 1-1.6 1-3.7.8-5.5-.1-.8-.2-1.6-.7-2.3-.3-.5-1.2-1.3-1.8-.8-.2.1-.3.3-.1.4zm-5.1-16.7c-.2.7-.1 1.5 0 2.2l.1 2.2c0 1.4 0 2.7-.3 4.1-.5 2.6-1.8 4.9-4.2 6.1-2.1 1.1-4.6.9-6.3-.8-.9-.9-1.5-2-2-3.1-.6-1.2-1.2-2.7-.9-4.1.8-3.1 5-2.7 6.8-.8.4.5 1.1-.2.7-.7-1.1-1.2-2.2-2.1-3.9-2.2-1.5-.1-3 .4-4 1.5-2.3 2.5-.7 6.2.9 8.7s4.1 4.1 7.1 3.5c2.9-.6 5.1-2.9 6.1-5.5.7-1.7.9-3.5.9-5.3l-.1-2.8c-.1-1-.1-2.1-.6-2.9-.1-.3-.3-.2-.3-.1z"/><path d="M258.301 63.5c-1.8-.1-3 2.3-3.2 3.8-.3 2 .7 3.9 2.3 5l.2-1.2c-2.6.8-4.5 3.1-4.6 5.8-.2 2.9 1.7 5.3 4 6.9.3.2.6-.2.5-.5-.5-1-1.4-1.8-2.1-2.7-.7-1-1.1-2.1-1.1-3.3 0-2.3 1.6-4.2 3.7-4.9.6-.2.6-.9.2-1.2-1.2-.9-2-2.4-1.8-3.9.1-.7.4-1.4.8-1.9s1-1 1.4-1.5c-.1-.3-.2-.4-.3-.4zm5.3 10a.55.55 0 0 0-.3.5c0 .9.2 1.8.1 2.7 0 .9-.1 1.8-.3 2.7-.4 1.7-1 3.5-2.1 5-.5.7-1.1 1.3-1.9 1.7s-1.7.5-2.6.7l-3.2.2h-1.5c-.2 0-.5 0-.7-.1-.3 0-.6.1-1 .1-.5 0-.6.8-.1.9.3.1.5.2.9.3.3.1.6.1 1 .1.6 0 1.1.1 1.7.1 1.1 0 2.2-.1 3.3-.3 2.1-.3 3.8-1 5.1-2.7 1.2-1.6 2-3.6 2.4-5.5.2-1 .3-1.9.3-2.9s0-2.2-.4-3.1c-.1-.2-.2-.4-.5-.4-.1-.1-.1-.1-.2 0z"/><path d="M255.102 87.2c-.2.4-.2.9-.3 1.4s-.3.9-.5 1.3c-.5.8-1.1 1.6-1.8 2.1-.8.5-1.8.9-2.7 1h-1.5c-.5-.1-1-.3-1.5-.3-.6-.1-.7.8-.3 1.1.5.4 1.2.4 1.7.5s1.1.1 1.7 0c1.2-.1 2.3-.6 3.3-1.3.9-.7 1.6-1.5 2.1-2.5.2-.5.4-1 .5-1.6.1-.5.3-1.1.1-1.7-.2-.3-.7-.3-.8 0z"/><path d="M249.502 90.5c.2 1.3.2 2.5-.4 3.7-.3.6-.7 1.1-1.1 1.5a3.07 3.07 0 0 1-.7.5c-.3.2-.7.3-.9.6-.3.3-.1.7.3.7.4.1.8-.2 1.1-.4s.6-.4.9-.7c.6-.5 1-1.2 1.3-1.8.6-1.4.9-3.1.2-4.5-.2-.4-.8 0-.7.4zm-5.7-60.2c-.5.1-1 .4-1.5.5s-1.1.2-1.6.2c-1.1.1-2.2 0-3.3-.1-2-.2-4.1-.4-6.1.1-1.7.5-3.4 1.5-4.5 2.9-.6.7-1 1.5-1.3 2.4-.2.7-.5 1.8-.1 2.5.035.046.081.083.133.108a.38.38 0 0 0 .167.039c.057 0 .115-.013.167-.039s.097-.062.133-.108c.2-.4.2-.8.3-1.2s.2-.8.4-1.2c.4-.8.9-1.5 1.5-2.1 1.2-1.2 2.8-2.1 4.5-2.4 2-.3 4 0 6 .1l2.9-.1c.8-.1 1.9-.5 2.5-1.1.2-.2 0-.5-.3-.5zm11.3 4.5c-.1.5.1 1.1.2 1.6.1.7.2 1.4.1 2.1-.1 1.4-.5 2.7-1.2 3.8a10.72 10.72 0 0 1-2.6 2.6c-.5.3-1.1.6-1.7.9-.5.2-1.1.4-1.6.7-.1.1-.1.3 0 .4 1.2.4 2.8-.4 3.8-1.1 1.2-.8 2.2-1.8 2.9-3 .8-1.3 1.2-2.7 1.3-4.2l-.1-2.1c-.1-.6-.2-1.4-.8-1.7-.2-.1-.3-.1-.3 0zm-2 44.2c-.6.9-.9 1.9-1.3 3-.406 1.092-.874 2.161-1.4 3.2l-1.5 2.9-1.6 3c-2.1 3.8-4.4 7.6-7.5 10.8s-7 5.4-10.9 7.4c-4 2.1-8.2 4-12.7 4.8-4.6.8-9.5.3-13.5-2.2-.8-.5-1.6.8-.8 1.3 3.7 2.3 8.1 3 12.4 2.6 4.7-.4 9.1-2.2 13.3-4.2 4.1-2 8.4-4.2 11.8-7.2s6-7 8.1-10.9c1.2-2.2 2.5-4.6 3.3-7 .4-1.3.8-2.5 1.3-3.7.4-1.2 1-2.4 1-3.7.1-.1 0-.1 0-.1zm-43.8 40.6c-1 1.3-1.9 2.7-2.7 4.1s-1.8 2.8-2.7 4.2c-1.8 2.8-3.7 5.5-5 8.6-.1.3.2.7.5.4 2.1-2.5 3.7-5.4 5.4-8.2l2.6-4.2c.9-1.4 1.8-2.9 2.5-4.4.2-.5-.3-.8-.6-.5zm-16.4-8c-.4.7-.4 1.8-.4 2.6l-.1 2.8-.2 5.8c-.1 3.9 0 7.8.3 11.6 0 .4.7.4.7 0 .2-3.9.2-7.8.2-11.6v-5.7c0-1 0-2 .1-3 0-.8.1-1.8-.2-2.6-.1-.1-.3 0-.4.1zm35-44.5c-1.6 1.9-2.7 4.2-3.8 6.4-.5 1.1-.9 2.3-1.2 3.4-.3 1.2-.8 2.6-.8 3.8 0 .7 1.1.9 1.3.2.2-.5.2-1.2.3-1.7.1-.6.3-1.2.4-1.8l1-3.5c.7-2.4 1.9-4.5 3-6.7.1 0-.1-.2-.2-.1zm-12.4 8.7c-1.5-.7-3.3.5-4 1.8-1 1.6-.7 3.5.5 4.9.6.7 1.5 1.2 2.4 1.4 1 .2 2.1.2 3.1.7 1.7.8 3 2.4 5 2.7 1.4.2 4.2-.3 3.7-2.4-.1-.4-.6-.5-.8-.2-.5.4-.9.9-1.6 1a3.86 3.86 0 0 1-2.1-.3c-.9-.4-1.7-1.1-2.5-1.6-.9-.6-1.8-.9-2.8-1.1-1-.1-2.1-.1-2.9-.8-.7-.5-1.1-1.3-1.2-2.2s.2-1.8.9-2.4 1.5-.8 2.4-1.1c0 0 .1-.3-.1-.4zm.1 10.8l-.8 3.1c-.2.8-.4 1.8.2 2.6.4.5 1.2.8 1.8.4.4-.3.4-.8.5-1.2.1-.5.3-1 .3-1.6 0-.2-.3-.3-.4-.1-.3.4-.4.7-.5 1.2-.1.2-.1.4-.2.6 0 .1-.1.2-.1.3 0 0-.1.2 0 .1-.1.1-.4.1-.5 0-.2-.1-.4-.3-.5-.5-.2-.7.1-1.5.2-2.2l.5-2.5c.1-.4-.4-.5-.5-.2zm-15.8 6.4c.2.6 1.1.9 1.6 1.1.7.3 1.5.5 2.2.6l4.7.9c.8.2 1.5.5 2.2.9.8.5 1.5 1.1 2.3 1.5 1.7.8 3.6.3 5.2 1.3.8.5 1.5 1.2 2.2 1.9.8.8 1.6 1.8 2.7 2.3.111.043.233.052.35.027a.62.62 0 0 0 .476-.476c.025-.117.016-.239-.026-.351-.5-.9-1.3-1.6-2.1-2.3-.6-.6-1.3-1.3-2-1.8s-1.4-1-2.2-1.3c-.9-.3-1.8-.3-2.7-.4-1.8-.2-3-1.6-4.7-2.2-1.5-.6-3.1-.7-4.7-.9-.9-.1-1.8-.2-2.7-.5-.4-.1-.9-.3-1.3-.4s-.8-.4-1.2-.4c-.1.2-.3.4-.3.5zm6.5 5.7c.3.9 1.1 1.5 1.8 2 .8.6 1.6 1.1 2.4 1.5.9.4 1.7.7 2.7.9.5.1 1 .2 1.4.2.5 0 1 .1 1.4-.3.2-.1.2-.4 0-.6-.3-.3-.7-.3-1.1-.4s-.8-.1-1.3-.1c-.9-.2-1.7-.4-2.5-.8-.8-.3-1.5-.8-2.3-1.2-.7-.5-1.3-1.2-2.1-1.6-.2-.1-.5.1-.4.4zm25.3-31.9c.9.1 1.8-.4 2.7-.6 1-.3 2-.4 3-.4 1.6.1 3.3.6 4.5 1.8 1.3 1.3 1.5 3.2 2.4 4.7.8 1.3 2.2 2.5 3.8 2.2.8-.1.5-1.3-.2-1.3-1.9-.1-2.7-1.9-3.3-3.5-.7-1.6-1.5-3.1-3-4s-3.2-1.1-4.9-.9c-.9.1-1.9.3-2.8.6-.7.3-1.8.6-2.2 1.4z"/><path d="M245.201 73.1c-.6-.2-.9 0-1.5.1-.5.1-.9.1-1.4.1-1 0-2-.3-3-.7-1.5-.6-3.6-1.8-3.7-3.7 0-.9-1.4-.9-1.4 0 .1 2.5 2.4 4 4.6 4.9 1.2.5 2.4.8 3.7.8.6 0 1.2-.1 1.7-.3s1-.4 1-1.2zm-24.7-10.6c.4-1.4-.4-3.3-1.1-4.5-.8-1.3-2-2.4-3.4-3.2-1.6-.9-3.2-1.1-5-1.1-1.1 0-2.1-.1-3.1-.3s-1.9-.7-2.8-1c-.5-.1-.9.5-.5.9 1.3 1.2 3.4 1.6 5.1 1.7 1.8.1 3.5-.1 5.2.7 1.4.6 2.6 1.6 3.5 2.8.4.6.9 1.3 1.1 2s.3 1.4.6 2.1c0 .2.3.1.4-.1z"/><path d="M208 54.6c0 .2-.2.3-.2.5v.5c0 .3.1.7.1 1 .1.6.3 1.3.6 1.9.6 1.3 1.5 2.4 2.6 3.2 2.2 1.7 5.4 2.3 8 1.2.8-.3.5-1.6-.4-1.3-2.3.7-4.8.5-6.8-1-.9-.7-1.7-1.6-2.2-2.6-.3-.5-.5-1.1-.7-1.7-.1-.3-.1-.5-.2-.8 0-.1 0-.3-.1-.5s-.2-.3-.2-.4c-.1-.3-.4-.3-.5 0zm7.7.8c-.2-.2-.3-.3-.6-.4-.2-.1-.4-.1-.6-.1-.5 0-.9.1-1.3.4-.9.5-1.3 1.5-1.3 2.5.1 1 .6 1.9 1.5 2.5.8.5 1.8.7 2.7.4s1.7-1 2.1-1.9c.2-.5.5-1.2.2-1.7-.1-.3-.5-.4-.8-.3-.2.1-.4.3-.5.5v.3.1c0 .2-.1.4-.2.6 0 .1.1-.1 0 .1 0 0 0 .1-.1.1-.1.1-.1.2-.2.3.1-.1-.1.1-.1.1l-.2.2c-.1.1.1-.1-.1 0l-.1.1s-.1 0-.1.1c0 0-.2.1-.1 0-.1 0-.2.1-.3.1h-.1-.1-.3-.1-.1c-.2 0-.4-.1-.6-.2.1 0-.1-.1-.1-.1-.1-.1-.2-.1-.3-.2.1.1 0 0-.1 0l-.1-.1-.1-.1s0-.1-.1-.1l-.3-.6c-.1-.4-.1-.8.1-1.2s.4-.6.8-.7c.2-.1.4-.1.6-.1h.3.3c.4.1.7-.3.4-.6zm26.4 11.4c0-.1-.1-.2-.2-.3s-.2-.2-.3-.2c-.3-.1-.6-.1-.9-.1-.5 0-1 .1-1.5.4-1 .5-1.6 1.5-1.7 2.6-.1 1 .4 2.1 1.2 2.8.9.7 2.1.9 3.1.5 1.1-.4 2-1.3 2.1-2.5 0-.3 0-.7-.2-.9-.1-.3-.5-.6-.8-.6-.4 0-.6.3-.5.7 0 .1.1.2.1.2v-.1.2.1c0-.1 0-.1 0 0v.2c0 .2 0-.1 0 .1 0 .1-.1.2-.1.3-.1.2.1-.1 0 .1 0 .1-.1.1-.1.2 0 0-.1.2-.1.1l-.1.1-.1.1s-.2.1-.1.1c-.1.1-.2.1-.3.2-.1 0-.1.1-.2.1-.2.1.1 0-.1 0-.1 0-.3.1-.4.1h-.1c-.2 0 .1 0-.1 0h-.4-.2c.2 0-.1 0 0 0-.1 0-.3-.1-.4-.1-.2-.1.1.1-.1 0 0 0-.1 0-.1-.1-.1 0-.1-.1-.2-.1 0 0-.2-.1-.1 0-.1-.1-.2-.2-.3-.2l-.1-.1c0-.1-.1-.1 0 0 0 0 0-.1-.1-.1-.2-.3-.2-.4-.3-.6v-.2-.1-.4c0-.4.1-.9.4-1.2.3-.4.7-.6 1.2-.7.2-.1.5-.1.7 0h.4c.2 0 .3 0 .5-.1.5-.3.6-.4.5-.5zM190.5 61c-.5.5-.7 1.1-1 1.8l-.9 2.4c-.6 1.5-1.2 3.1-1.6 4.7-.9 3-1.5 6.2-1.5 9.3 0 3.4.8 6.6 1.8 9.8l3.1 9.1 2 5c.7 1.7 1.3 3.6 2.5 4.9.4.4.9 0 .8-.5-.3-1.5-1.2-2.9-1.8-4.3l-1.9-4.4-3.2-9c-1-3-1.9-6.2-2.1-9.4s.3-6.3 1.1-9.4c.4-1.7 1-3.3 1.5-5l.9-2.4c.3-.8.8-1.7.7-2.5-.1-.1-.3-.2-.4-.1zm32 41.8c.1 0 .1-.2 0-.2s-.1.2 0 .2zm1.3.4c.1 0 .1-.2 0-.2s-.1.2 0 .2zm-19.6-8.4c1 .4 2.2.4 3.2.3s2.1-.1 3.1 0c1.6.2 3.2.6 4.6 1.3.7.4 1.3.8 1.9 1.3s1 1.3 1.7 1.5c.3.1.5-.1.5-.4.1-.8-.8-1.5-1.3-2-.6-.5-1.3-1-2-1.3-1.5-.8-3.1-1.2-4.7-1.4-1.3-.2-2.5-.3-3.8-.1-1.1.2-2.1 0-3.1.1-.4-.1-.5.5-.1.7zm32.1-37c.9.1 1.8-.1 2.7-.2s1.7-.1 2.6 0c1.6.1 3.1.7 4.5 1.5 1.3.8 2.5 1.9 3.3 3.3.4.7.7 1.4.9 2.1s.4 1.5.8 2.1c.2.4.7.3.9-.1.3-.7.1-1.7-.1-2.5s-.6-1.7-1-2.4c-.9-1.6-2.2-2.9-3.7-3.8-1.5-1-3.2-1.5-5-1.7-1-.1-1.9 0-2.9.1l-1.5.3c-.5.1-1 .3-1.4.5-.4.3-.4.8-.1.8zm-10.5-5.1c0-.9-.5-1.9-.9-2.7s-.9-1.7-1.4-2.4c-1.1-1.4-2.6-2.5-4.1-3.2-1.7-.7-3.5-1.1-5.3-1-.9.1-1.9.2-2.7.5s-1.8.7-2.3 1.5c-.2.3.1.7.4.7.8 0 1.6-.4 2.3-.6.8-.2 1.6-.4 2.4-.4 1.6-.1 3.2.2 4.7.9 1.4.7 2.6 1.6 3.6 2.7.6.7 1 1.4 1.4 2.2.4.7.7 1.6 1.2 2.1.3.2.7 0 .7-.3z"/></g></g><defs><radialGradient id="A" cx="0" cy="0" r="1" gradientUnits="userSpaceOnUse" gradientTransform="translate(51.7147 178.203) rotate(3.80959) scale(24.6283 12.8246)"><stop stop-color="#f6c7c0"/><stop offset=".123" stop-color="#f6c7c1" stop-opacity=".983"/><stop offset=".25" stop-color="#f6cac4" stop-opacity=".932"/><stop offset=".379" stop-color="#f7cfc9" stop-opacity=".848"/><stop offset=".51" stop-color="#f8d6d1" stop-opacity=".73"/><stop offset=".642" stop-color="#f9deda" stop-opacity=".577"/><stop offset=".775" stop-color="#fbe9e6" stop-opacity=".39"/><stop offset=".906" stop-color="#fdf5f4" stop-opacity=".174"/><stop offset="1" stop-color="#fff" stop-opacity="0"/></radialGradient><radialGradient id="B" cx="0" cy="0" r="1" gradientUnits="userSpaceOnUse" gradientTransform="translate(357.559 284.575) scale(27.3145 20.1923)"><stop stop-color="#f6c7c0"/><stop offset=".123" stop-color="#f6c7c1" stop-opacity=".983"/><stop offset=".25" stop-color="#f6cac4" stop-opacity=".932"/><stop offset=".379" stop-color="#f7cfc9" stop-opacity=".848"/><stop offset=".51" stop-color="#f8d6d1" stop-opacity=".73"/><stop offset=".642" stop-color="#f9deda" stop-opacity=".577"/><stop offset=".775" stop-color="#fbe9e6" stop-opacity=".39"/><stop offset=".906" stop-color="#fdf5f4" stop-opacity=".174"/><stop offset="1" stop-color="#fff" stop-opacity="0"/></radialGradient><radialGradient id="C" cx="0" cy="0" r="1" gradientUnits="userSpaceOnUse" gradientTransform="translate(211.873 70.1076) rotate(22.9564) scale(23.7389 11.6408)"><stop stop-color="#f6c7c0"/><stop offset=".123" stop-color="#f6c7c1" stop-opacity=".983"/><stop offset=".25" stop-color="#f6cac4" stop-opacity=".932"/><stop offset=".379" stop-color="#f7cfc9" stop-opacity=".848"/><stop offset=".51" stop-color="#f8d6d1" stop-opacity=".73"/><stop offset=".642" stop-color="#f9deda" stop-opacity=".577"/><stop offset=".775" stop-color="#fbe9e6" stop-opacity=".39"/><stop offset=".906" stop-color="#fdf5f4" stop-opacity=".174"/><stop offset="1" stop-color="#fff" stop-opacity="0"/></radialGradient><radialGradient id="D" cx="0" cy="0" r="1" gradientUnits="userSpaceOnUse" gradientTransform="translate(230.22 78.7146) rotate(22.9554) scale(21.0828 11.6316)"><stop stop-color="#f6c7c0"/><stop offset=".123" stop-color="#f6c7c1" stop-opacity=".983"/><stop offset=".25" stop-color="#f6cac4" stop-opacity=".932"/><stop offset=".379" stop-color="#f7cfc9" stop-opacity=".848"/><stop offset=".51" stop-color="#f8d6d1" stop-opacity=".73"/><stop offset=".642" stop-color="#f9deda" stop-opacity=".577"/><stop offset=".775" stop-color="#fbe9e6" stop-opacity=".39"/><stop offset=".906" stop-color="#fdf5f4" stop-opacity=".174"/><stop offset="1" stop-color="#fff" stop-opacity="0"/></radialGradient><clipPath id="E"><path fill="#fff" d="M0 0h408v722H0z"/></clipPath></defs></svg>