<?xml version="1.0" encoding="UTF-8"?>
<svg id="Ebene_1" data-name="Ebene 1" xmlns="http://www.w3.org/2000/svg" xmlns:xlink="http://www.w3.org/1999/xlink" viewBox="0 0 136.55 400.12">
  <defs>
    <style>
      .cls-1 {
        fill: #f4efea;
      }

      .cls-2 {
        fill: #e9c3bb;
      }

      .cls-3 {
        fill: #fff;
      }

      .cls-4 {
        fill: #fae6e1;
      }

      .cls-5 {
        fill: #334f2b;
      }

      .cls-6 {
        fill: #b26a15;
      }

      .cls-7 {
        fill: #dcd7d2;
      }

      .cls-8 {
        fill: #e09531;
      }

      .cls-9 {
        fill: #111119;
      }

      .cls-10 {
        fill: #1d1d1b;
      }

      .cls-11 {
        fill: #443e3d;
      }

      .cls-12 {
        fill: #6d5333;
      }

      .cls-13 {
        fill: #557689;
      }

      .cls-14 {
        opacity: .25;
      }

      .cls-15 {
        fill: url(#Unbenannter_Verlauf_3);
      }

      .cls-16 {
        fill: url(#Unbenannter_Verlauf_4);
      }

      .cls-17 {
        fill: url(#Unbenannter_Verlauf_2);
      }

      .cls-17, .cls-18 {
        isolation: isolate;
        opacity: .5;
      }

      .cls-18 {
        fill: url(#Unbenannter_Verlauf);
      }
    </style>
    <radialGradient id="Unbenannter_Verlauf" data-name="Unbenannter Verlauf" cx="-210" cy="594.53" fx="-210" fy="594.53" r=".99" gradientTransform="translate(2410.62 5029.22) scale(11.23 -8.39)" gradientUnits="userSpaceOnUse">
      <stop offset="0" stop-color="#f6c7c0"/>
      <stop offset=".12" stop-color="#f6c7c1" stop-opacity=".98"/>
      <stop offset=".25" stop-color="#f6cac4" stop-opacity=".93"/>
      <stop offset=".38" stop-color="#f7cfc9" stop-opacity=".85"/>
      <stop offset=".51" stop-color="#f8d6d1" stop-opacity=".73"/>
      <stop offset=".64" stop-color="#f9deda" stop-opacity=".58"/>
      <stop offset=".78" stop-color="#fbe9e6" stop-opacity=".39"/>
      <stop offset=".91" stop-color="#fdf5f4" stop-opacity=".17"/>
      <stop offset="1" stop-color="#fff" stop-opacity="0"/>
    </radialGradient>
    <radialGradient id="Unbenannter_Verlauf_2" data-name="Unbenannter Verlauf 2" cx="-209.59" cy="594.53" fx="-209.59" fy="594.53" r=".99" gradientTransform="translate(2376.74 5029.46) scale(11 -8.39)" gradientUnits="userSpaceOnUse">
      <stop offset="0" stop-color="#f6c7c0"/>
      <stop offset=".12" stop-color="#f6c7c1" stop-opacity=".98"/>
      <stop offset=".25" stop-color="#f6cac4" stop-opacity=".93"/>
      <stop offset=".38" stop-color="#f7cfc9" stop-opacity=".85"/>
      <stop offset=".51" stop-color="#f8d6d1" stop-opacity=".73"/>
      <stop offset=".64" stop-color="#f9deda" stop-opacity=".58"/>
      <stop offset=".78" stop-color="#fbe9e6" stop-opacity=".39"/>
      <stop offset=".91" stop-color="#fdf5f4" stop-opacity=".17"/>
      <stop offset="1" stop-color="#fff" stop-opacity="0"/>
    </radialGradient>
    <radialGradient id="Unbenannter_Verlauf_3" data-name="Unbenannter Verlauf 3" cx="-178.63" cy="622.86" fx="-178.63" fy="622.86" r=".99" gradientTransform="translate(-4503.94 5697.58) rotate(48.3) scale(6.12 -11.27)" gradientUnits="userSpaceOnUse">
      <stop offset="0" stop-color="#f6c7c0"/>
      <stop offset=".12" stop-color="#f6c7c1" stop-opacity=".98"/>
      <stop offset=".25" stop-color="#f6cac4" stop-opacity=".93"/>
      <stop offset=".38" stop-color="#f7cfc9" stop-opacity=".85"/>
      <stop offset=".51" stop-color="#f8d6d1" stop-opacity=".73"/>
      <stop offset=".64" stop-color="#f9deda" stop-opacity=".58"/>
      <stop offset=".78" stop-color="#fbe9e6" stop-opacity=".39"/>
      <stop offset=".91" stop-color="#fdf5f4" stop-opacity=".17"/>
      <stop offset="1" stop-color="#fff" stop-opacity="0"/>
    </radialGradient>
    <radialGradient id="Unbenannter_Verlauf_4" data-name="Unbenannter Verlauf 4" cx="-204.14" cy="586.39" fx="-204.14" fy="586.39" r=".99" gradientTransform="translate(1904.73 3974.29) scale(8.7 -6.41)" gradientUnits="userSpaceOnUse">
      <stop offset="0" stop-color="#f6c7c0"/>
      <stop offset=".12" stop-color="#f6c7c1" stop-opacity=".98"/>
      <stop offset=".25" stop-color="#f6cac4" stop-opacity=".93"/>
      <stop offset=".38" stop-color="#f7cfc9" stop-opacity=".85"/>
      <stop offset=".51" stop-color="#f8d6d1" stop-opacity=".73"/>
      <stop offset=".64" stop-color="#f9deda" stop-opacity=".58"/>
      <stop offset=".78" stop-color="#fbe9e6" stop-opacity=".39"/>
      <stop offset=".91" stop-color="#fdf5f4" stop-opacity=".17"/>
      <stop offset="1" stop-color="#fff" stop-opacity="0"/>
    </radialGradient>
  </defs>
  <path class="cls-3" d="m57.17,32.04c-.42-.58-1.18-.46-1.76-.22-.91-.18-1.95.37-2.82.55-.33-.14-.72-.29-1.09-.19-1.77-.47-1.83,2.06-.3,2.39,2.05.67,6.93.73,5.97-2.52Z"/>
  <g>
    <path class="cls-4" d="m80.21,36.21c-.24-.47-.69-.8-1.18-.97-.09-.19-.24-.33-.39-.48.27-.52.05-1.11-.36-1.49.84-1.14,1.25-2.68.17-3.75-.07-1.42,1.05-4.9-1.54-4.49-1.56.44-2.81-.58-4.13-1.19-2.45-.66-4.85-.52-6.45,1.58-.3-2.93-6.34-3.49-5.43-.05.35.67-.06,1.25-.09,1.95l-.28.15c-.54-1.51-2.3-1.8-3.7-1.53-.65-1.35-2.34-1.53-3.32-.53-1.77-.82-3.86.04-4.56,1.9-3.5-1.48-5.39,4-2.73,5.96-.23.54-.41.96-.43,1.51-.82.49-1.14,1.58-.81,2.42-.2.45-.19.92-.06,1.38-.44.72-.59,1.48-.25,2.27-.09.45.35.73.3,1.19-.21.28-.13.7.09.96.39,2.88-.45,6.81,1.9,8.97.82.87.92,2.17,1.99,2.82-.07.13-.13.27-.17.41h0c-1.12,1.35.61,2.54.68,3.82.24.53-.26,1.39-.28,1.98.03.02.06.03.09.05.03-.1.28-.2.36-.26-.16-.3.25-.46.49-.51.13-.28.58-.19.84-.19.35-.13.61.27.79.52.55-.37,1.01,1.62.26,1.32,0,.03-.02.73-.05.76.22.13-.07.54-.11.71-.92,2.87-1.28,6.34.44,9.11,0,0,.01,0,.02,0,.47-.68.88.87,1.08,1.08.05.19.79,1.09.57,1.29.02.03.1.17.1.21.3.4,1.54,2.82.78,2.99.06.26.51.87.09,1-.03.18-.07.47-.02.65.26.17-.02.88,0,1.12h.04c.01-.25.73-.44.88-.54-.15.25-.09.57,0,.84-1.44,2.19,4.41,2.22,5.58,2.34.23.68,1.05.59,1.57.19.85.59,1.74-.75,2.46-1.08.95-.35,2.87-.53,3.54-1.33.1-.05.2-.11.3-.18.95-.11,3.24-1.49,2.08-2.56-.04-.11-.38-4.91-.56-4.81.02-.09.43-2.53.5-2.5h0l.45-1.1c.73-.83,1.03-2.04,1.47-3.05,1.12-1.43,1.16-3.77,1.56-5.55-.2-.29-.37-.6-.49-.94.62-1.56.82-4.06-.54-5.23,7.4-4.41,3.68-9.41,4.77-16.33.78.16,1.68-.27,1.65-1.29-.03-.05-.02-.08.04-.09.28-.42.22-.97,0-1.39h0s0,0,0,0Zm-21.68,27.44c-.14-.21-.39-.35-.66-.38-.02-.14-.08-.27-.17-.37l.08-.11c.37.22.76.38,1.14.42l-.39.44h0s0,0,0,0Zm5.08.73l-.11.44c-.05,0-.1,0-.15,0-.06-.09-.14-.16-.23-.22-.01-.15-.07-.29-.15-.42.01-.03.03-.06.04-.09.22.12.5.14.73.02-.05.07-.09.16-.12.26h0,0Zm-38.39,80.74c.41-1.11-1.22-2.42-1.74-.98-.08-.06-.17-.11-.27-.14-.03-.1-.07-.19-.14-.26.38-1-1.18-1.73-1.54-.63-.34-.31-.89-.23-1.2.14-.08-.05-.16-.08-.25-.1.69-1.36-.63-3.06-1.46-1.25-.16-.27-.51-.36-.84-.3-.17-.85-1.45-.97-1.62.02-.16-.07-.35-.1-.52-.07-.17-.57-.9-.87-1.36-.48.02-.51-.37-.86-.78-.91-.23-.52-1.09-.62-1.43-.15-.44-.3-1.13-.19-1.24.48-.18-.03-.37,0-.54.09.21-.99-.9-1.62-1.5-.85-.07-.11-.17-.2-.28-.26.05-.68.02-1.93-.94-1.72-.76-1.32-2.18.15-2.52,1.08-.76.66-1.01,2.4-.59,3.27-.39,1.88-.41,4.72-.44,6.67-.45,1.73-.75,4.25.68,5.67l.03.44-.45.17c-.03.33.05.66.14.97l.4-.25.11.76-.33.16c.06.25.08.5.07.75l.38-.18c.19.3.36,1.83.5,2.15-.63,1.01.54,3.8.4,4.94.21.61-.2,4.77.79,4.89.07.37.07,1.45.08,1.83-.25,3.66-1.24,7.83-.62,11.43,0,2.29.56,4.54,1.22,6.73-.21.21-.15.74-.15,1.03-.21.38-.33,1.62-.31,2.05-1.33,2.31-3.92,4.18-4.22,6.98-.23.6-.23,1.29-.37,1.92-.63,3.27.47,8.72.56,12.12-1.69.47-.44,6.92-.59,8.45.53,2.1-1.19,14.82,2.02,13.37.07.01.14.02.22.02.01-.04.05-.18.04-.22.4-.26.57-.87.5-1.33.56.1.1.87.15,1.24.26-.26.37-.59.41-.95.02.02.03.05.04.07-.43,3.14,2.23,3.92,2.57.49.73-.26.21-3.06.33-3.6-.03-.1-.18-4.23-.2-4.35.27-.29.05-2.14.09-2.5,0,.69.27,1.69.31,2.35-.71.25.18,3.72.1,4.22.03.39.33.71.72.78-.07.84.91,1.48,1.57.85,2.57-2.83-1.14-7.84-1.3-11.32-.35-2.4-.32-4.93-.02-7.33.37-.27.31-.81.13-1.17.68-1.72,1.69-3.26,2.7-4.81-.11,2.14-.19,4.35.21,6.46l-.19,7.56c-.1,1.24-.37,3.47,1.39,3.57.49,1.13,2.51.57,2.31-.68,1.23-3.65-.29-8.14.46-11.91.38-.89.34-1.97.64-2.91,1.95-4.46,4.5-10.96,2.03-15.64-.1-1.35.07-3.78.15-5.12.97,0,1.58-4.45.91-4.92-.2-1.29.15-2.64.04-3.96-.1-.63.9-3.42-.26-3.54-.02-.04-.05-.08-.08-.11l.04-.48c.95-2.48.76-5.84.28-8.48.55-2.78.97-5.73,1.78-8.47,1.31-2.71,2.23-6.08,2.37-9.04v-.41c.81-1.17.13-2.99.39-4.37,0,0,0,0,.01,0ZM4.25,223.51s-.08.1-.12.14l-.04-1.77s.26,1.45.27,1.54c-.04.02-.08.05-.11.08h0Z"/>
    <path class="cls-4" d="m133.36,209.22c.28-.68.46-1.54.15-2.24.29-2.24,0-4.72-.26-6.95-.1-3.78-1.82-7.64-2.16-11.43.82-1.92,0-4.37-.03-6.41.38-3.04-.75-6.38-.99-9.52.27-1.2-1.02-5.48-.9-6.69-.09-.47.69-4.61.06-4.84v-.44c.74-1.49-.06-3.54.25-5.17-.04-.58.68-2.47-.28-2.65.08-4.38.17-9.12-1.01-13.3-.1-.39-.14-1.2-.62-1.32-.44-.88-1.89-.25-1.49.75-.33-.14-.71-.07-.96.19-.14-.5-.65-.71-1.07-.61l-.1-.04c-.46-.64-1.65-.37-1.49.56-.25-.04-.53.02-.73.17-.33-.03-.68.15-.86.47-.76-.73-1.71.27-1.32,1.21-.08.12-.12.26-.14.39-.19-.1-.4-.14-.62-.12-.24-.43-.82-.41-1.18-.11.05-1.07-1.54-1.54-1.75-.42-.11-.94-1.26-1.19-1.64-.42-.26-.84-1.06-2.89-2.1-1.67l-.82-2.24c-.63-1.23-1.94-.34-1.64.84-.05.02-.09.05-.14.09-.85,0-.93,1.03-.7,1.71-1.06.1-.43,1.83-.45,2.45-.37.62.49,2.24.38,2.91-1.25.11-.47,1.87-.35,2.59-.6.34,0,1.48.1,1.97-.05.06.72,2.54.74,2.66.16.41.19,2.33.73,2.5.25.5.34,2.25,1.11,2.32.55.99.28,2.69,1.21,3.34.39.93,1.12,4.22,1.47,5.25.08.27.26,2.37.46,2.55.4,1.01-.07,3.67.5,4.58-.05,3.19-.07,7.02.27,10.15-.43,2.86.05,5.84.61,8.63.42,1.31,1.14,2.71.25,3.97-2.46,1.89-.99,6.13-.99,8.77-.17,1.61-.89,4.15.2,5.46-.39.8-.13,2.83-.29,3.71-.86,2.37-.69,6.06-1.05,8.61-.36,3.22,3.38,3.71,4.09.63.5-.19.47-4.5.6-4.93.55-2.37.92-5.27,1.31-7.68.19-.08.35-.24.43-.44.15.04.31.03.46,0,.04-.23.1-.46.2-.67-.44-.39-.18-1.26.31-.57.1.02.17.13.2.24.52.51,1.61,2.33.83,2.77-.68.24-.72-1.07-1.04-1.47.08.71.25,1.47.52,2.14.07.46.18,1.17.75,1.21.33.4.72.74,1.13,1.07.07.94.17,1.88.35,2.83-1.05,1.55-1.14,3.68-1.79,5.4-1.48,1.78-1.85,5.22-2.64,7.51,0,.02-.02.08-.05.1-2.27,1.52.24,7.11,1.95,2.88.54-1.73,1.87-5.11,2.67-6.73-.17,2.05-.65,5.05-.77,7.07-.85,1.65,1.02,7.18,2.86,4.11,0,0,1.57-14.16,1.57-14.16h.12c-.01.45-.3,1.3.28,1.54.01-.06.05-.12.1-.16.04-.11.14-1.51.29-1.53.02-.36.17-.74.19-1.1h0c.02-1.93,1.75-2.73.62-.27-.02.14.06.8-.07.9-.01.13.04.44-.09.53-.17.75-.11,1.82-.42,2.46.02.05.03.1.05.14-.08.31,0,.61.19.8-.66,1.06-.8,2.97-.56,4.19l-.73,6.1c-.09,1.06,1.56,1.05,1.65,0l.79-6.42c.48-1.3.8-3.13.57-4.48.25-1.22.43-2.46.52-3.7.21-.21.33-1.44.41-1.71.84-1.99,1.43-8.53,1.7-10.63.04-.05.08-.11.11-.18h0s0,0,0,0Zm-9.6,14.48l.23-1.02c.06-.05.11-.1.16-.16l.07,1.42c-.13-.12-.29-.2-.46-.23h0Z"/>
  </g>
  <path class="cls-1" d="m59.88,343.62c.09-1.01-.38-2.53-1.68-1.91-.14-.06-.29-.08-.44-.06-.56-.74-1.69-.39-1.95.43-1.24-.41-5.4,6.66-2.96,6.79-.15,1.18,1.64,1.59,2.08.49.35,0,.69-.17.87-.47.77.98,2.07.23,2.09-.88.95.08,1.2-.9,1.27-1.65.97-.24,1.34-2.02.72-2.74h0s0,0,0,0Zm38.71,11.78c-.16-.83-1.27-1.02-1.82-.49-.89-1.09-2.01.02-2.18,1.06-2.94-3.2-4.93,4.94-3.2,6.3.07.4.27.8.62,1.03-.26.79-.18,1.93.87,1.99.42.82,1.7.72,2-.15.36.28.92.28,1.26.02,2.48.49,2.71-7.9,2.46-9.75h0Z"/>
  <path class="cls-13" d="m108.76,350.87c-.28-.52-.54-1.11-.93-1.58-1.01-9.19.11-18.83-.89-28.05-.03-7.49,2.59-15.22,1.62-22.58.89-2.73,1.26-5.82-.04-8.51.36-3.41.19-7.34-1-10.56-.28-1.52.02-3.48-.88-4.76-.33-1.98.78-4.53-.45-6.22-1.54-17.4.51-35.04-.12-52.33.68-7.09-.2-15.25-1.92-22.26.18-.5,0-1.04-.37-1.4-.38-1.94-1.48-13.94-4.78-8.95-.41.09-.78.34-.94.75-.39-.03-.78.08-1.06.33-.6-.13-1.27.1-1.56.63-.12.02-.24.07-.35.12-.82-.22-1.79.25-1.71,1.3-.15.15-.27.34-.33.55-.18.11-.33.25-.45.43-2.11-1.06-4.68-.9-6.71.27-1.47-3.94-6.45-4.9-9.93-3.14-1-.09-2.02-.31-3,.1-4.14-.39-10.75-1.48-15.07-1.53-.73-.5-1.69-.59-2.54-.46-.88-.66-2.07-.29-3.11-.52,0,0-.02.01-.03.02-.4-.31-.94-.39-1.46-.25-.02-.02-.04-.05-.05-.07-1.45-.12-2.2,1.41-1.76,2.61-.07.1-.12.21-.17.32-1.77.03-2.05,2.71-.18,2.83-1.09.3-1.13,1.94-.19,2.44-.02.24.02.49.12.72-.47.18-1.11.48-1.17.99-.59.06-1.15.48-1.27,1.26-.06,0-.12,0-.17,0-.5-.79-1.77-.78-2.3,0-.19-.03-.38-.02-.57.03-.48-.66-1.57-.72-2.07-.09-.35-.31-.86-.39-1.31-.25-.23-.17-.51-.26-.8-.26-.34-.51-1.09-.74-1.67-.46-.3-.91-1.44-1.09-2.13-.57-.24-.62-.86-.91-1.44-.87-.19-.18-.44-.27-.71-.29-.09-.87-.91-1.18-1.63-.99-.18-.17-.41-.29-.66-.32.15-1.46-1.33-2.45-2.46-1.38-.11-.66-.65-1.02-1.22-1.06-9.71-7.32,4.02,64.02,4.01,69.85.15,2.16.55,4.63.8,6.82-.51,1.1-.64,2.39-.46,3.57-.56,2.35-.72,4.89-.1,7.24.11.37.64,2.56.57,1.37-1.21,6.86,1.25,13.78,3.69,20.2,3.21,10.33,5.73,21.25,6.43,32-.66,1.62-.34,4.51-.58,6.22-.04,1.61-1.46,5.83,1.54,5.03.5.35,1.19.33,1.73.07,1.52.82,3.37.95,4.81,1.93.75.65,1.34,1.7,2.49,1.58.24.42.57.89,1.07,1.01.74,1.48,2.32.6,2.88-.46,1.59-.9,3.57-.26,5.25-.94,4.77-1.19,4.25-7.86,1.88-10.88.34-1.32.36-2.64.01-3.98,2.61-3.61,2.7-8.7.98-12.79-.82-4.69.65-9.69-.24-14.24.63-4.37-.02-8.89-.37-13.27-.23-2.06,1.11-4.81-.02-6.66-.33-2.02-1.34-3.37-1.43-5.37-.26-.53-.76-1.24-.78-1.82-.06-.44-.25-.79-.59-1.08,1.03-8.91,1.89-18.29,1.2-27.23.56-1.69.12-3.49.07-5.23.34-1.28.08-2.68.06-4,.35-1.25.26-4.06.4-5.34,1.22-2.48.11-6.78.74-9.56.34-3.55.46-7.92.89-11.51.15.02.31,0,.45-.04.03.04.06.06.08.09,0-.04.01-.09.02-.13.08.06.17.1.26.13.04.19.12.37.24.53.03.46,0,.99.26,1.4-.05.88.1,1.77.38,2.47.39,11.53,4.02,23.1,6.47,34.28,1.04,7.75,2.47,15.43,3.57,23.27-1.56,5.4-2.55,10.51,1.95,14.77-2.01,2.43-1.46,6.64,1.09,8.52.57,2.18,1.67,4.35,2.5,6.45.11,1.09.14,2.56.54,3.58,2.41,17.17,4.53,34.68,4.17,51.88-.99,1.52,1.24,2.88,2.42,1.72.92.32,1.88,1.04,2.89.62,1.36.18,2.24-1.31,3.12-2.14,1.33-.28,2.95,1.4,3.6-.49,2.8-2.65,5.51-2.23,9.02-2.02.17.08.35.11.54.11,2.63,1.56,2.73-2.17,1.3-3.55h0Z"/>
  <path class="cls-1" d="m89.36,169.11l-13.94-13.44c-1.21-4.09-1.03-8.61-2.17-12.63-.22-.85.1-4.85-.86-5.33-.68-3.83,1.69-9.1-.41-12.22.35-2.46.33-4.93-.09-7.36,2.73.91,1.79-4.38,2.17-5.67,1.12-4.44-1.48-8.18-1.02-12.56.5-.44.49-1.18.34-1.8.95-.74,2.31-2.46,1.07-3.5,1.2-.72,1.84-2.44.23-3.03.11-.7-.27-1.5-.99-1.62-.02-.08-.04-.16-.07-.24.5-.36.69-.91.63-1.39,1.07-.53,1.25-2.21.15-2.66-.05-.22-.15-.43-.3-.62.23-.66-.14-1.41-.77-1.7-.01-.03-.02-.06-.03-.08.22-.25.3-.6.27-.94,1.69-1.67-.18-4.95-2.07-2.64-1.43.7-2.77,1.89-4.25,2.59-1.26.9-3.28.71-4.29,1.95-2.02.02-4.07-.49-5.87-1.44-3.21-2.12-2.93,1.47-2.8,3.56-.91.36-1.05,1.77-.25,2.33,1.52,4.22-3.21,9.36.08,13.07.13.65-.28,2.57.11,3.15.13,2.46.31,4.94.45,7.4-.18,1.23-.24,3.16.41,4.25l.06.83c-1.01,1.24-1.99,17.24.33,16.94l.19,1.21c-.36,4.56-.65,9.25-.44,13.85-1.35,3.05-.16,8.51-.77,11.81-1.12,2.72-1.8,6.07-1.29,8.98-.23,1.62-1.73,4.53-1.29,6.11-.57.93-.69,2-.63,3.06l-1.06-.17c-1.88-2.98-4.14,1.85-1.19,2.58,4.4.59,35.39,5.88,34.2-.28,2.14-1.04,1.72-4.61-.84-3.04-1.03,1.24-2.32,2.02-3.73,2.5-.12-3.22.54-6.39-.1-9.63.25-2.68-1.06-5.45-1.47-8.12.42-.63.07-1.44,0-2.13l10.39,10.01c1.27,1.23,3.22-.71,1.94-1.95h0s0,0,0,0Z"/>
  <path class="cls-7" d="m73.11,81.99c1.6-3.06-2.77-2.83-3.61-.54-.25.14-.84.47-1.09.61-1.4.29-3.39.49-4.25,1.7-.99-.09-2-.16-2.96.19-.47-.31-1.12-.49-1.61-.16-.58-.39-1.3-.56-1.99-.63-1.19-2.22-5.13,0-2.92,1.83-2.2,6.35,20.89,1.47,18.44-3.01Zm8.38,99.74c.55-3.53-4.55-2.3-6.5-1.7-1.72.15-3.79-.32-5.27.81-3.41-.1-7.47-1.34-10.79-1.45-1.73-.56-3.7-.51-5.48-.86-1.18-.3-3.59-.64-3.56,1.09l-.04.08c-1.16.61-1.21,2.96.47,2.84,1.75-.3,3.66.15,5.35.07,4.46.49,10.18,1.69,14.61,1.43.41.64,1.28.49,1.91.41.84.37,1.74.23,2.64.12.58.36,1.83-.12,2.45-.18,1.46-.29,5.28-.24,4.22-2.65,0,0,0,0,0,0Z"/>
  <path class="cls-1" d="m55.66,170.99c-.03-.05-.08-.1-.12-.15.38-1.84-2.17-3.41-2.98-1.32-.22.93-1.12,2.11-.43,3.01-.27,1.7-2.16,5.43.49,5.88,1.06-.02,1.43-1,1.43-1.91.06-1.23.79-2.33.96-3.53.73-.31,1.1-1.29.66-1.98h0s0,0,0,0Zm23.92,6.37c1.12-2.08-3.02-31.52-6.33-22.54,1.9,6.33,3.66,12.82,3.72,19.47-1.77-.17-1.82,2.16-1.08,3.25-1.43,3.06,5.31,2.68,3.69-.18h0Z"/>
  <path class="cls-8" d="m55.5,83.36c-.14-.36-.38-.66-.69-.89.81-3.87-.23-7.55-2.7-10.69-.11-.47-.62-1.83-.96-2.18-.07-.87-.29-1.79-.15-2.65.71-.11.87-1.23.2-1.52.8-1.49,1.53-4.06.21-5.38-.52-1-1.94-.36-1.62.69-.95,2.96-.96,6.26-1.34,9.32-.09.03-.19.02-.29,0,.02-2.55-1.98-4.86-.88-7.39.19-1.55-1.86-1.15-2.37-.16-.44.04-1.08.22-1.42.54-1.01-.34-2.03.04-2.71.75-1.23-.12-2.99-.37-3.96.59-4.31.39-8.66.32-11.76,3.83-11.71,6.38-14.18,21.79-13.63,34.19-.22,8.53-3.54,16.2-6.12,24.18.68,2.1,2.53,3.97,2.35,6.31.02.03.02.06.04.09.08.04.17.07.26.11-.1,1.54,1.09,3.05,2.66,3.07.8-.4,1.59-.85,2.43-1.2.47-1.69,2.44-1.68,3.56-2.79.01,0,.02,0,.04,0,1.45-1.48,3.35-4.1,5.67-2.75,1.83-.29,3.69.92,5.27,1.77,1.57-6.67.64-14.16,3.9-20.32.31-.04.59.11.83.33.62,2.18.29,4.58.68,6.72-.37,2.45-.8,5.15-1.94,7.35-.93,2.12,1.19,3.7,2.15,5.35-.12.6-.05,1.24.21,1.76l-.83,2.33c-1.98,1.58-1.04,4.52,0,6.39-.17,2.15-1.28,4.2-1.5,6.29-.24,1.17-1.75,4.31-1.05,5.43-2.31,7.03-3.85,14.42-4.75,21.8-.18,3.29-3.11,10.85,1.42,12.56.73,1.2,2.03,1.85,3.37,2.12,1.52,1.81,3.92,2.97,6.12,3.78.45.39,1.03.65,1.7.69.23.38.75.46,1.15.32.45.22.91.61,1.43.44,1.54.14,2.98.9,4.51.52.39.3.84.49,1.32.54.73-.81,1.76-.64,2.8-.46.1-.1.18-.2.27-.3-.02-.32-.25-.85.06-1.07,0-.02.03-.04.04-.05,0-.89-.09-1.86-.04-2.84-.06-.07-.11-.14-.17-.2-.16-9.3,2.82-18.16,4.29-27.28,1.82-14.73.89-32,.34-46.89,1.01-10.89-.52-22.28,1.59-33.16h0s0,0,0,0Zm-9.12,10.04c-.06,1.61-.14,3.36-.8,4.86-.27.08-.49.23-.6.5-.22.06-.44.07-.66.06-.82,4.79,4.93,18.22-4.12,15.68-2.5,1.05-6.63.02-5.4-3.47-.31-3.65-1.11-7.33-.96-11-.32-.27-.57-.65-.73-1.05-.04-.02-.06-.05-.09-.08-.24-1.11.09-2.38-.43-3.43.19-.4.52-.61.82-.89,1.28-.41,2.77.58,3.93-.39,2.97.07,6.24-2.13,9.04-.79h0,0Zm80.99,31.23c-.07-.03-.13-.07-.19-.11-.11-.96-.67-1.87-1.53-2.34-.04-.92.41-1.82,1.18-2.37-.16-1.66-2.04-1.84-3.22-2.52.06-.22.1-.44.11-.66-1.61-1.41-.72-3.83-2.95-4.99-.17-2.03-.6-4.07-1.1-6.05.26-2.65.82-5.53.21-8.19-.21-1.47.85-7.59-.69-8.54-2.48-8.89-6-18.85-13.54-24.46-4.52-1.06-9.71-5.11-14.36-3.23-3.84-.06-7.45-.58-11.2-1.11-.24-.59-1.03-.42-1.52-.39-.8-.12-1.6-.37-2.42-.29.08.78.15,1.55.16,2.33.04-.06.07-.13.1-.2.08,0,.16,0,.24.01.04.11.16.57.22.67-.11.96-.4,1.99-.2,2.96-.12.75-.6,1.46-.6,2.22-.08.1-.16.2-.25.3-.44-.43-.3-1.01-.15-1.57-.44-1.2.05-2.72-.55-3.97-.36-.08-.37-.63-.51-.93-.15.3-.05.66.18.88-.75.41-.72,2.46-1,3.16-1.9,3.64-2.58,8.12-2.18,12.17-.91,1.39.27,3.36.85,4.67,1.64,9.34,1.72,23.17.87,32.77-1.65,12.29.28,25.06,2.15,37.22,2.31,8.95,4.36,18.05,4.74,27.41-.62,4.73-.46,9.75.54,14.41.26-.16.6-.31.92-.39,3.44-2.45,7.97-3.73,11.93-5.23.88.05,1.8-.31,2.47-1.27.9-.96,2.42-.97,3.4-2.1.82-.21,1.57-.66,2.03-1.21,2.6-.67,1.37-3.59,1.38-5.5-.1-.08-.2-.16-.31-.22-1.21-7.09-1.38-15.95-5.66-21.73-1.27-3.41-1.88-7.04-2.31-10.64.09-1.22,1.21-5.05.62-6.15.62-3.39,1.46-7.02,1.32-10.49-.33-5.86-4.56-12.37-.09-17.64.38-.5.53-1.15.4-1.77.38-1.07.65-2.17.9-3.28.7,1.36,1.13,2.83,1.4,4.34-.21,1.16.13,2.63.55,3.71.41,6.05,1.35,12.06,4.1,17.57.5,2.07.71,5.26,3.31,5.6,4.74-4.13,11.83-4.88,16.41-8.99.14-.07.29-.14.43-.24,2.03.72,3.93-1.3,3.41-3.63h0Zm-32.32-27.85c-.03.07-.07.14-.1.21.13.95-.33,1.95-1.11,2.58-.57,3.14-1.03,6.32-.98,9.54.99,1.76-.33,4.31-2.42,4.19-3.53-1.15-11.83,2.39-11.08-3.73-.14-.01-.29-.02-.43-.01l.35-6.06c.08.06.18.11.27.17.01-.39.09-.72.21-1.02-.74-1.62.05-3.5.08-5.21-3.11-2.4-.81-6.85,2.84-5.17,1.16-.32,2.48.03,3.64.24,1.53-.4,3.78.02,5.2.43,2.4-1.26,4.66,1.69,3.54,3.84Z"/>
  <path class="cls-6" d="m28.74,132.25c-.08-.79-.83-1.48-1.62-1.44-.22-.14-.49-.4-.77-.38-.33-.31-.83-.62-1.24-.32-.17-.06-.35-.08-.52-.03-.88-.51-2.13-.38-3.08-.65-1.86-.82-2.92,1-3.95,2.18-2.5,1.86-5.05,3.92-7.94,5.19-1.54-1.73-3.24-6.28-3.96-8.52.24-.53-.3-.99-.36-1.5.57-1.55-2.56-1.95-2.59-.4-.09,2.02-.39,5.77-.26,7.74-.41.96-.58,2.01-.2,3.04-.2.66.42,1.15,1.05,1.11.28.25.68.26.95.07l.15.02c.61.42,1.49.65,2.21.76,1.91.95,4.12,1.27,6.24,1.41.86.82,2.14.6,3.22.86.8,1.48,3.49,1.16,5,1.57,0,.84,1.7.66,2.21.81.76.09,1.46.55,2.19.69,1.76.51,2.1-5.04,2.25-6.31.46-1.91,1.12-3.92,1.02-5.88,0,0,0,0,0,0Zm99.98,5.2l-.74-1.89c-.04-2.09-.53-4.21-1.14-6.2.62-2.09-1.35-2.03-2.43-.82-.32-.28-4.05,1.73-4.41,1.82-.2.13-3.69,1.4-3.67,1.67-1.22.64-2.78,1.1-3.67,2.17-1,.43-2.46.77-3.08,1.7-.97.17-1.68.89-2.39,1.51-1.98-.41-1.67,2.18-.84,3.21.12.77.55,2.64.52,3.4.67,1.35.68,3.2,1.36,4.63.18-.01.34-.1.46-.22l-.02-.38s-.06-.09-.06-.16c-.34-1.88.03-3.9.16-5.82-.06-.07-.13-.14-.22-.18,0-.88.4-1.88.78-2.66.85-.5,1.89-.48,2.74-.04.85,1.27,2.55,1.81,3.75,2.8.43,2.94,1.98,1.44,3.56.37.27-.21,2.22-1.15,2.3-1.5.15-.09.43-.23.53-.36,0,.04,2.25-1.15,2.32-1.18,1.13-.93,4.19-.07,4.19-1.86h0s0,0,0,0Zm-82.67-43.79c-.09-.84-1.06-1.07-1.5-.44-.7-.04-1.51.28-2.17.53-.58-.22-1.5-.06-1.79.53-1-.16-1.98.39-2.97.42-.89.06-1.85-.09-2.71.21-1.27-1.66-4.24,1.22-1.86,2.01.11.25.04.74.1,1-.1.33-.08.69.09.98-.01.34.2.66.5.81-.08,2.02.26,4.4.33,6.42.53,2.74-.62,9.63,4.01,8.47.41.23.92.29,1.37.14.56.4,1.59.2,2.01-.35.61.28,1.37.31,1.87-.09.6.16,1.6.04,1.58-.78-.45-5-.61-10.1-.78-15.13,1.66.01,1.71-3.44,1.92-4.75h0s0,0,0,0Zm48.55,2.45c.07-.29.07-.86,0-1.15.02-.05.17-.25.03-.06.7-.74-.26-1.76-1.1-1.34-.44-.66-1.39-.34-2.05-.34-.44-.5-1.05-.51-1.61-.34-.35-.68-2.32-.9-2.99-.79-.32-.04-.79-.16-1.04.13-.65-.1-2.58-1.33-2.86-.17-.57-.32-1.37-.37-1.87.09-3.2-.97-3.32,4.61-.95,5.48-.92.29-.74,2.74-.6,3.45.02.75.1,2.33.18,3.06-.21,1.09-.38,2.16-.23,3.27-.69.68-.02,1.75-.43,2.59-.13.62-.09,1.37.5,1.75,1.84,1.67,5.22.95,7.63,1.23,1.11.78,4.77.82,5.22-.63-.06-1.42-.07-4.73.38-6.07.68-.23.44-2.72.59-3.25.32-1.48.55-2.97.73-4.47.65-.5,1.03-1.74.48-2.44h0s0,0,0,0Zm-19.96-34.63c.02.39.25.71.4,1.06,0,.53.15,1.61.17,2.16.01.4-.07,1.51.21,1.84.14.3.13.75.5.87h.09c.22-.47.21-1.44.49-1.82.13-.5.13-1.62.29-1.89,0-.14-.05-.54-.07-.68.2-.34,0-.74-.12-1.08,0-.36.03-.84-.25-1.1-.11-1.12-.17-2.27-.48-3.35.16-.24.14-.53.04-.79.06-.26-.01-.52-.07-.78-.17-.12-.42-.81-.43-1.02l-.04-.14c-.47-.32-1.21.05-1.24.63-.02.03-.02.06-.04.08-.9.66-.1,1.87.01,2.72-.06.07-.07.16-.12.23.11.72-.27,1.62.32,2.17-.04.34.12.65.34.89h0s0,0,0,0Zm-25.08-2.74c0-.58-.05-1.12-.29-1.67.01-.05,0-.1,0-.15-.53-.61-.67-1.47-.42-2.23-.07-.18-1.15-.97-1.31-1.1-.03,2.29-1.5,5.16-.38,7.24-.01.06-.02.18-.02.24-.59.37-.58,1.29.02,1.66.01.02.11,4.52.14,4.53.06.33.64,1.62.66,1.91l.29.87c.11,0,.22-.01.33-.05.07-2.22.43-4.58.22-6.83.4-.87.44-2.03.58-2.98.3-.39.08-.99.18-1.44,0,0,0,0,0,0Z"/>
  <g>
    <path class="cls-12" d="m86.94,25.58c-.39-.48-1.31-.54-1.78-.14-.16-.13-.33-.24-.51-.35-.22-.46-.21-1.01-.64-1.36-1.1-3.36-.56-8.11-2.91-10.69-.45-.89-1.31-1.59-2.28-1.74.43-2.51.19-7.36-3.04-7.6-1.91-2-5.25-2.35-7.54-.87-1.03-1.77-3.38-2.41-5.16-1.41-.88-.87-2.16-.64-3.27-.57-1-.38-2.37.44-3.28.93-2.95-1.52-8.63,1.46-9.41,4.49-1.45,1.84-2.56,4.25-2.37,6.63-3.97,2.4-4.97,6.32-4.07,10.73l-.06.35c-3.4.05-7.56,5.11-3.88,7.61.3.56.89.93,1.52,1.08-.54,1.95-.74,4.15,1.15,5.43-1.08,1.37-.39,4.11,1.65,3.95.02.01.05.02.08.03.12,1.58.62,3.1,1.81,4.19,1.24,1.27,3.21-.68,1.94-1.95-.55-.5-.88-1.21-.92-1.94.43-.6.17-1.37.17-2.06.75-.07,1.33-.64,1.81-1.17,1.57-1.24-.49-3.28.13-4.97,1.45-1.98,1.27-4.79.5-7.08,2.09,1.2,5.37,1.51,6.77-.87.48.32,1.05.49,1.62.56.71.63,1.66.71,2.53.45.75.54,1.68.91,2.56,1.18.64.63,1.7.48,2.46.16-.01-.01-.02-.03-.02-.04.47-.33.66-1,.46-1.54-.29-.1-.72-.23-.7-.6-.1-.14-.16-.29-.19-.45-.03,0-.07,0-.1,0,0-.03,0-.07,0-.1-.03-.01-.04-.04-.07-.05.03-.28-.05-.69-.23-.92l.18-.25,1.46-.62c.67,1.93,2.75,2.19,4.39,1.34,1.32-.06,2.5-.76,3.38-1.73.42,2.57,3.38,3.92,5.66,2.74-.35,1.83-.37,4.25,1.35,5.42-1.57,1.42-.95,4.38.46,5.68,0,1.41,0,3.33.18,4.73-.45,2.4.95,3.83,2.92,1.9.08-.45-.15-.99-.14-1.44.13-.64.37-1.25.36-1.91,2.28-.3,2.98-2.68,1.9-4.51,1.7-1.44,1.82-3.38.49-5.13,2.25-.4,4.19-3.51,2.66-5.51,0,0,0,0,0,0Z"/>
    <path class="cls-12" d="m67.3,8.1s.01.02,0,0Zm-18.87-2.9c-3.37-.4-3.49,4.77-3.58,7.14,0-.08-.02.03-.03.07-1.02.65-2.39,2.76-.71,3.41,1.03.3,1.27-.77,1.72-1.4,1.2-.74,1.28-2.03,1.2-3.32.08-1.26.56-2.57.96-3.76,1.31.21,1.73-1.82.44-2.14h0ZM61.91.9c-.92-.85-3.64-1.32-3.8.4-.02,1.1,1.23,1.17,2.04,1.11,1.1.97,2.82-.29,1.76-1.51h0Zm25.02,25.46c-.68-1.02-2.05-1.55-2.91-2.14-.97-3.16.29-6.87-2.09-9.57.56-.92-.82-2.51-1.75-2.36.11-.9-.88-1.36-1.62-1.53,3.81-1.88-4.66-4.28-2.66-.68.54.49,1.36.29,2,.6-1.93-.44-2.76,2.53-.52,2.3.7-.39,1.22.42,1.91.27-.08,1.65,1.18,2.88,1.77,4.27.69,2.62-.19,5.61,1.19,8.07.53,1.22,4.19,1.52,2.83,3.2-3.21.96-5.59,1.05-7.53,4.47-2.24,3.2,2.76,5.31,1.63,1.71-.26-.3,1.25-1.77,1.44-1.97,1.14-1.77,3.16-1.29,4.88-1.86,1.79-.76,3.04-3.24,1.41-4.78h0,0Zm-42.3,16.69c.03-1.23-1.32-2.52-2.24-1.21-.37.94.16,2.91,1.48,2.56.57-.16.93-.79.77-1.36Z"/>
  </g>
  <path class="cls-4" d="m63.68,91.25c.87-.43.91-1.84.07-2.32-.19-.7-.13-1.92-.93-2.26.1-1.19-1.52-1.87-2.32-.99-1.7,2.09-.45,4.87.49,7.03.79,2.36,4.69.34,2.68-1.46h0Z"/>
  <path class="cls-11" d="m63.55,96.97c.9.48,1.88-.29,2.61-.75.81-.13,1.62-.86,1.86-1.65,2.74-2.67,1.78-10.06-2.59-9.93-.67-.12-1.16-.71-1.84-.71-.14.02-1.51.2-1.61.22-.94-1.2-3.09-.3-2.71,1.24-.16,2.89.2,6.01.72,8.88-.88,1.55-.23,3.23-.29,4.9-.2,1.14-.81,2.28-.34,3.44-.59,1.96-.62,3.97-.9,5.96.08.91-.42,2.55,0,3.4-.05.51.53.88.97.64.44.07.97-.11,1.28-.46.17,0,1-.18,1.18-.2,1.2.49,3.05.09,4.19-.6,4.9-1.68,2.62-9.26-1.25-10.86-.78-.38-2.03-.33-2.39-1.32.06-.53.03-1.05-.05-1.58.39-.17.76-.44,1.15-.61h0s0,0,0,0Z"/>
  <path class="cls-12" d="m63.76,346.36c-.06-.74.27-1.51-.08-2.22-.32-.36-.28-1.31-.55-1.75-.78-.44-1.86-.05-2.4.58-1.4.2-1.37,1.99-2.08,2.97l-.63.62c-1.4-.16-2.61,1.27-3.69,2.02,1.01-4.86-4.51-7.5-8.42-8.4-4.18-1.4-4.91-.65-7,2.9-1.12,1.18-1.78,2.74-2.79,3.98-.16.2-.99.87-1.08,1.12-.41.56-2.05,1.72-1.57,2.56-.37.71-.58,1.49-.53,2.34-.33.55-5.05,4.91-4.71,5.61-.36.6-2.1,2.18-2.05,2.91-.17.26-.62.73-.6,1.06-.52.8-1.68,1.85-1.84,2.79-.28.53-1.29,1.46-.9,2.13-.24.59-1.25,1.74-.85,2.43-.3.44-.46,1.04-.14,1.49-.1.61.21,1.32.68,1.72-.38.7-.25,1.9.57,2.2.73,1.99,1.78,3.89,3.77,4.75.46.65,1.12,1.13,1.93,1.23.48.8,1.65,1.24,2.46.61.52.29,1.14.37,1.72.17.52.2,1.1.23,1.65.02.63.57,1.93.64,2.21-.25.41.09.88-.08,1.16-.44.73.48,1.89.33,2.03-.65,1.15-.35,2.11-1.23,3.09-1.9,1.07.87,4.24-3.71,4.96-4.1,3.77-4.37,3.29-11.11,7.87-14.92,2.1-1.61,5.14-2.35,6.66-4.66.43-.16.71-.61.71-1.06,1.57-2.16,1.64-5.5.46-7.88h0s0,0,0,0Zm63.3,43.27c.3-.45-.3-1.93-.37-2.41.46-.56-.6-2.32-.71-2.88-.36-.93-1.04-3.21-1.54-4.09-.24-.92-1.12-2.02-1.62-2.84.25-.66-.72-1.39-1.14-1.81-.79-1.32-1.67-2.63-2.09-4.13-.75.22-1.08-1.29-1.55-1.76-.06-.09-.13-.2-.09-.31-.15-.16-.35-.23-.56-.26-.3-1.72-1.41-3.12-2.11-4.65-.33-1.32-.76-3.42-2.52-3.31-.42-2.23-1.37-5.64-4.07-5.74-.98-.35-2.37-1.06-3.38-.49-.64-.11-1.8-.66-2.35-.07-.01,0-.38.06-.38.07-4.88-.33-7.5,5.96-6.41,10.12-.44.05-.88.08-1.32-.07-.49-.6-2.18-3.44-2.58-3.98-.24-1.44-1.96-2.53-3.38-2.2-2.6-.35-3.07,3.62-2.72,5.5-2.3,6.2,4.12,7.8,8.02,10.3,1.57,1.42,1.21,3.77,2.13,5.42.07.49-.06,1.86.29,2.25.33,3.79,2.19,7.36,4.78,10.09,1,2.34,3.58,3.99,6,4.62,3.95,1.65,8.83,2.3,13.24,2.39,4.75.39,8.18-5.56,6.43-9.77h0s0,0,0,0Zm-34.45-18.55c-.29-.11-.58-.21-.87-.31.12-.09.24-.18.33-.29.31.2.93.82,1.32.77,0,0,.02.01.02.02.02.07.04.14.07.21-.29-.15-.59-.28-.89-.39h0Z"/>
  <path class="cls-3" d="m55.54,31.71c-.36-.05-.75.13-1.07.28-.6.03-1.25,0-1.74.38-1.55-.74-3.5,1.33-1.47,2.11.23.46.76.6,1.24.51.34.16,2.39-.25,3.21-.59,1.62-.24,1.47-2.64-.16-2.7,0,0,0,0,0,0Zm15.27.46c-1.21-.16-2.93-.42-4.11-.04-2.44.99.52,3.05,2.04,2.91,1.51.31,4.24-1.81,2.07-2.87Z"/>
  <path class="cls-5" d="m55.12,32.78c-.48-1.55-2.67-.57-2.25.8.44,1.61,2.65.62,2.25-.8h0s0,0,0,0Zm14.92.03c.02-.99-1.19-1.68-1.94-.93-.48.62-.76,1.8.07,2.27.89.52,1.93-.4,1.87-1.34h0,0Z"/>
  <path class="cls-2" d="m65.48,52.38c-.95-.25-2,.19-2.93.26-.93-.1-1.86-.31-2.81-.18-.47-.19-.99-.38-1.48-.21-2.93.17-.7,2.98,1.35,2.42,1.73.01,3.48.56,5.14-.11,1.4.26,2.23-1.67.73-2.19h0Z"/>
  <g class="cls-14">
    <path class="cls-9" d="m78.47,15.69h0s0,0,0,0h0Z"/>
    <path class="cls-9" d="m94.09,60.79c-2.45,0-5.08-.18-7.54-.3-.42.14-.92-.02-1.36-.04-1.55.2-3.24-.4-4.79-.7-1.14-.09-2.56-.38-3.71-.38-.01-.03-.02-.06-.02-.09-.29-.37-.21-1.13-.28-1.62l-.44-1.62c-.4-.09-.49-.83-.45-1.17,0,0,0-.02,0-.03-.07-.1-.15-.19-.24-.28l1.69-1.61c.38-.89.98-1.92,1.53-2.75.15-.25.24-.53.33-.81-.1-.61.36-1.39-.22-1.91l.15-1.31s.06.06.09.09c.01-.31-.06-.79.26-.93-.52-.1-.35-.69.14-.59.57.63,1.72.29,1.85-.55.04,0,.07,0,.11,0,.05-.03.12-.07.18-.07.18-.38.36-.77.61-1.11,0-.43-.26-1-.08-1.4,0-.16.04-.35.23-.37.07-.06.17-.09.27-.06.03-.03.05-.03.07-.05.15-.27.37-.76.74-.65.42-.2.74-.52,1.13-.77.16-.76.3-1.66.25-2.43-.18-.22-.08-.57-.09-.84-.77-.43.82-1.38.96-1.98l-.21-1.11s-.11-.11-.15-.14c0-.02-.01-.04-.02-.06.04-.04.08-.08.12-.12,0-.2-.15-.58-.11-.76-.02-.03-.03-.06-.03-.1-.1-.06-.16-.16-.14-.27-.42-.28.18-.6.38-.76.72-.5,1.43-1.08,2.17-1.56.71-.98.32-2.53.18-3.64-.19-.42-.9-.53-.97-.97-1.34-.15-2.56-1.17-2.67-2.59-.15-.86-.79-2.12-.39-2.89.03-1.02-.36-2.44-.33-3.42-.1-.44-.43-.86-.4-1.35-.06-.11-1.05-2.09-1.09-2.09-.06-.1-2.14-1.58-2.02-1.74-.08-.07-.28-.19-.27-.31,0,0,0-.01-.01-.02-.87-.17-1.94-.51-2.8-.21-.02.03-.05.05-.08.07-.63.53-1.73.7-2.32,1.42-1.41,2.24,1.25,3.74,3.17,3.22,1.33.26,1.58,2.27,1.67,3.1.3,2.26,1,4.94-.42,6.93-.35.6-.78,1.32-1.46,1.56.02-.16.05-.31.1-.47-.29.14-.69.23-1,.08l-.28.07c-.43.78-2.22.48-2.57-.28-.78-.04-1.22-.76-1.69-1.31-.33-.26-.78-.62-.82-1.09-1.44,1.75-4.41,2.63-6.35,1.23-.61.28-1.28-.66-1.55-1.14l-.92.46-.11.36c.11.14,0,.29-.08.43,0,.28-.06.81-.46.6.08.35.31.62.54.88,2.8,2.66,6.58.49,9.84,1.64,5.37,1.97,3.97,8.95,4.26,13.5-.18,3.33.37,7.18-1.65,10.04-2.85,3.12-8.99,8.12-12,11.18-.06.48.14.96.32,1.39.03-.03.06-.06.11-.07.27-.39.93-.1,1.31,0,.35-.08.7-.11,1.06-.14l.08-.14c.09-.04.17-.09.25-.15,5.13.52,4.12,2.98,6.28,6.87.05-.31.12-.69.25-.99.02.65,11.84-2.09,12.31-2.07,3.63-.5,11.4-1.42,9.6-6.77h0Z"/>
  </g>
  <g class="cls-14">
    <path class="cls-9" d="m115.09,190.97c4.97,3.06,3.38-4.86,2.9-7.4-.14-2.33.42-4.55.92-6.81,1.48-4.55.26-9.3-.63-13.83-1.34-9.25-1.4-21.46,10.42-22.82-.02-.23-.3-1.13-.18-1.34-.14-.32.17-.72.46-.4.07-.01.14,0,.2.03.02-.03.04-.05.07-.07-.28.2-.77-3.99-.84-4.05-.36-1.57-.84-3.12-.82-4.77-.32-.07,0-.84,0-1.03-.68-.04-.1-3.79-.19-4.62-.3-1.16-1.99-2.22-.42-3.15.06-.2-.16-1.38.17-1.42l-.54-.72c-.48-.1-1.94-.58-1.72-1.18l-.26-.13c-.33.02-2.08-1.17-1.46-1.47-.07-.06-.11-.11-.13-.18-.36-.15-.64-1.15.01-.94,0-.08.03-.16.05-.24-.63.1-1.25,1.68-1.58,2.12-.91,0-1.61.41-1.88,1.27-.32.09-.99.37-1.29.49-3.66,5.65-11.31,2.68-13.22-2.89-1.42-3.77-2.82-8.14-5.41-10.84l-.1-.13c-.06-.89-.56-1.8-1.46-2.07,0-.01,0-.02.01-.03-4.82-.86-3.71,5.25-5.74,7.97.05.54.48,1.61-.09,1.92-.07.07-.17.1-.26.08-.13.21-.24.59-.54.58-1.58,3.18.64,7.8-1.93,10.3-.02,0-.87-.3-.86-.3-1-1.79-3.19-2.99-5.17-1.89-6.17,4.32,4.85,18.61,4.64,25.3,1.38,10.85,4.87,24.8-3.02,33.85-1,.76-5.13,2.91-5.28.9-.05-.33-.17-.62-.33-.86.26-2.64.23-5.25-.08-7.89,1.07-3.41-3.8-2.76-4.76-.42-7.71,10.45-18.62-2.55-16.47-11.79.95-5.42-4.92-6.07-4.04-.4-.31.5-.12,1.09-.27,1.64-.09.79-1.31,3.03-.16,3.51-1.07,3.02-1.29,6.94-2.12,10.05-.79,2.48-2.37,5.8-1.29,8.23-.54.67-.51,1.66-.38,2.43-.26.28-.52.64-.39,1.04-6.08,5.62,27.23,2.53,29.69,1.48-.01.06-.04.12-.1.17.11.09.14.27.04.39.11.1.1.26.14.39.33-.06.47.42.16.54.72.7.34,2.39.58,3.43.02,0,.03,0,.05,0-.01.22.01.44.06.65.15.07.3.13.46.19.6-.16,1.13-.53,1.67-.81.04-.15.09-.29.13-.42,2.72-1.05,5.4-2.41,8.24-3.02,2.17-.94,4.45-1.63,6.61-2.57,1.93-1.54,4.45-2.78,6.11-4.82,0-.12-.02-.31-.06-.43-.54-1.67-.38-3.59-.7-5.33.09-.55-.82-1.83-.06-1.96l-.02-.14c-.12-.25-.11-.57-.16-.85-.15-1.15-.58-2.37-.51-3.54,0-.15-.27-.93-.16-1.05,0-.15-.27-1.02-.16-1.14-.65-3.55-2.52-7.16-3.34-10.44-.56-1.38-1.52-3-1.75-4.42-.11-.43-.59-1.34-.61-1.77-.19-.55-.28-1.12-.37-1.69-.22-1.15-.74-2.78-.34-3.94,0-1.16.01-2.38.29-3.47.17-1.03.2-2.27.66-3.21.51-2.71.53-5.52.95-8.23-.16-.76-.09-1.55-.15-2.32-.09-.59-.78-1.47-.32-1.96-.47-2.37-1.55-4.91-1.54-7.29-.05-.51-.28-1.12-.12-1.61-.1-2.32.8-4.49,1.45-6.68.05.06.1.11.15.16.09-.17.2-1.39.49-1.39.04-.18-.03-.62.19-.7,0-.12.03-.26.13-.31-.02-.39-.14-.82.07-1.19.23-.07.36.14.39.32.96,1.04.39,3.19.96,4.57.11-.01.23-.04.34-.07.88,5.54.95,11.66,2.96,16.84,1.01,2.56,1.98,5.06,2.74,7.7.01.01.03.02.04.03.15-.12.34-.03.42.12,0,0-.01-.01-.02-.02.13.17.35.27.53.38.19-.18.42,0,.42.22-1.34,1.1.34,3.24.18,4.64.65,1.21,1.85,3.83,1.13,5l.13.61c.35.24.28.86.43,1.24.03.02.05.04.07.06,1.07,2.75,1.53,6.24,2.6,9.16.12.1.13.27.19.4.89,2.69,1.82,5.74,2.24,8.6.6,1.79.79,3.65.84,5.53.33,1.03.02,2.63.27,3.67.22.14.13.43-.05.5.34,4.18.31,10.01.78,14.14h0s0,0,0,0Z"/>
  </g>
  <g class="cls-14">
    <path class="cls-9" d="m37.25,120.9c.31-2.08-.12-4.23-.65-6.25-2.76-.53-1.84-4.56-2.29-6.63-4.63-6.98-5.67-3.12-6.66,2.87-1.13,5.45-3.82,12.74-4.37,18.18.37.58-.68.58-.58-.07.03.34-.32.56-.53.25-.11.22-.5.19-.52-.1-.29.08-.84.13-.74-.32-.13.12-.26.26-.37.4h.02c-1.08,1.2-.51,3.26-.59,4.69.65,3.54-2.9,5.12-4.52,7.56,0,.19.09.41.16.58l.48.06c.17-.2,1.09.25,1.45.2,0-.26.27-.35.49-.23v.03c1.79,1.24.47,5.4.68,7.45-.12,5.22-2.58,10.11-3.95,15.02-.6,5.31,1.33,10.57.8,15.91.16,3.6-2.69,7.53-.87,10.88,1.7,2.42,5.9.65,5.54-2.27.1-.04.2-.07.3-.09,1.41-8.24-.46-16.83,1.7-25.01.08-1.11.25-2.69.76-3.67.1-.9.22-1.78.64-2.62.13-2.48,1.92-5.17,1.95-7.88-.08-.28.07-.59.08-.88-.18-1.29-.09-3.48.29-4.75v-.06c.77-.11,1.05-.96.82-1.63,1.49-3.61,2.31-7.43,1.64-11.39-.13-.06-.13-.2-.14-.32-.04.04-.09.07-.15.08-.19.18-.49.02-.45-.24.07-.06.13-.14.18-.22-.12-.46.08-1.08.33-1.47.11-.47-.49-1.18.1-1.48.1-.32,0-.82.3-1.02.17-1.64.22-3.3.53-4.91.13-1.38.16-3.38.95-4.54,0-.01,0-.03,0-.04-.17-.74.37-1.64.65-2.33.05-.11.15-.68.25-.74.21-.41-.04-1.22.4-1.43.05-.14.09-.68.26-.73.62-2.68,1,3.44.88,4-.04.22.27,1.13-.13,1.16-.05.19.14,1.63-.14,1.69-.03.3.01.66-.14.92-.09.66-.29,1.72-.41,2.39.17.17-.03.35-.1.52-.07.17-.01,1.08-.31,1.07,0,.01,0,.03,0,.04.22.17.09.44-.11.59-.13.33-.08,1.03-.52,1.07-.12.33-.21.69-.38,1,.01.14.04.29.09.42.44.54.84,1.25,1.17,1.83.28.32.47.76.64,1.16.63.1.3,1.17.4,1.65.14.17.04.43.03.63.42.33-.1.97-.17,1.39.04.2-.14.42-.2.6.06.94-1.26,1.83-1.13,2.93.22.25.12.68.19,1,.11.84,1,2.1.71,2.79.06.27.25.86-.21.85-.08.21-.05.54-.26.66-.07.2-.12.43-.16.63,1.15-.23,1.35-2.44,1.66-3.36-.5-.78.53-2.04.64-2.95,1.44-5.02,3.3-10.26,3.55-15.54h0Z"/>
  </g>
  <g class="cls-14">
    <path class="cls-9" d="m65.26,207.54c-3.26-3.12-4.83,2.46-4.97,4.98-1.28,7.5-2.29,15.14-3.25,22.66-.29,5.77-8.93,46.19,4.11,38.02-.17-2.75.31-5.55.68-8.29-.02-1.81.02-3.79.46-5.57-.21-1.79-.25-3.95.4-5.57.12-1.02-.06-2.02-.15-3.03-.29-.45-.06-1.15-.16-1.69-.28-1.42-.44-3.76.1-5.03v-.12c-.16-1.59.04-3.34.18-4.95-.12-1.01,0-2.09.02-3.13-.45-1,.27-2.44-.06-3.57-.03-.18.09-.34.25-.34.26-1.12-.18-2.62.2-3.57.14-.5-.29-1.53.29-1.72-.1-1.7.13-3.48.24-5.18-.13-.5.02-1.08.01-1.6-.36,0,.11-2.5.05-2.67-.25-1.46.28-3.17.26-4.71.1-.01.19-.04.28-.08.09-.53-.37-1.4.11-1.74.35-.59.66.16.59.55.47-1.14,1.18-2.47.34-3.66h0s0,0,0,0Z"/>
  </g>
  <g class="cls-14">
    <path class="cls-9" d="m109.81,353.06c0-.34-.01-.8,0-1.14-.35.11-.55-1.12-.68-1.29-.14-.25-.62-1.99-.74-2.31-1.3-2.66-.56-5.92-.66-8.77,0-6.81-.35-13.88.3-20.57-.02-.39.02-1.03.02-1.43.25-3.92-1-8.82.67-12.5l.12-1.18c-.63-1.96.62-4.03.59-6.04.13-.86.23-2.72.43-3.54-.17.08-.35-.04-.34-.24h0c-.1-1.05-.16-2.42-.4-3.46-.26-.17-.26-.56-.34-.83-.47-.41-.07-1.4-.07-1.98-.01,0-.02,0-.04,0-.72,1.31-3.8,5.14-3.71,6.68-1.16,10.13-.71,20.51-2.27,30.6-.93,5.78-4.34,13.6-11.46,12.93-2.25-.21-4.08-2.53-6.39-1.87.09.92.03,1.88.08,2.82.86,2.6.05,5.6.14,8.32.52,1.6.82,4.25.25,5.81.12,1.2.29,2.41.12,3.62h0c0,.07-.02.15-.07.19l.15,1.25c.53.47,1.32.7,1.79,1.15-.68.59-.77,1.75-1.34,2.31-.03.04-.05.09-.08.12-.03.2.15.93-.16.99-.03.16.07,1-.11,1.08-.75,1.31-.3,2.98-.38,4.45.54,1.18,1.4,2.14,2.14,3.21.68.37,1.3.85,1.92,1.32.81.14,1.46.57,2.25.76.27-.25.71,0,1.01.08.23,0,.41.25.61.36.72-1.98-.76-9.49,2.05-9.07.25-.43.77-.58.92-1.1-.09-.77-.32-1.49-.5-2.24.36-.24.53-.74.43-1.15.18-.42.1-.91-.22-1.23.29-.07.61-.11.92-.16.74-.97,1.1-2.17,2.09-2.96.46-.63,5.1-2.9,4.12-1.3,1.47-.35,3.01-.39,4.46.17.32-.45.98.18,1.41.24.06-.02.14,0,.19,0-.15-.13-.14-.38.06-.48-.11-.02-.25-.01-.35-.09.81.07,1.35-.84,1.03-1.57h0s0,0,0,0Z"/>
  </g>
  <path class="cls-18" d="m53.13,48c14.7-.07,14.7-16.72,0-16.78-14.7.07-14.7,16.72,0,16.78Z"/>
  <path class="cls-17" d="m71.34,48.24c14.4-.07,14.4-16.72,0-16.78-14.4.07-14.4,16.72,0,16.78Z"/>
  <path class="cls-15" d="m13.32,216.23c10.97-9.65,2.68-19-8.15-9.15-10.97,9.65-2.68,19,8.15,9.15h0Z"/>
  <path class="cls-16" d="m128.07,222.17c11.3.12,11.3-12.93,0-12.81-11.3-.12-11.3,12.93,0,12.81Z"/>
  <g>
    <path class="cls-10" d="m46.13,61.56c-17.29,3.48-29.51,5.25-34.36,25.09-2.14,9.95-.24,20.37-3.84,30.12.06.48-2.74,8.01-1.26,6.5,8.68-18.75-1.25-47.57,22.4-57.17,5.58-2.2,11.83-1.6,17.32-4.07.32-.14.04-.61-.27-.47h0ZM5.43,125.41c-2.54-2.05,4.91,15.74,6.02,12.73-3.16-3.54-4.62-8.77-6.23-13.08l-.09.22c.1,0,.27.27.3.14h0Z"/>
    <path class="cls-10" d="m9.87,136.76c1.58-.19,10.8-6.46,9.28-7.58-2.22,1.96-4.34,4.19-6.99,5.62-.39.42-3.73,1.46-2.29,1.97h0Zm10.6-7.24c2.66.15,5.63.64,7.77,2.31.81.98-.15,2.99-.21,4.11-.42,1.97-1.16,5.71-1.65,7.63-.75,1.19-3.81-.75-5.05-.76-4.68-1.27-14.23-3.86-18.94-5.13l.32.43c-.52-4.18-.18-8.8.64-12.93l-.5.29c.37.2,1.65.66,1.13-.19-3.1-2.8-2.31,11.04-2.16,12.84,3.17,1.73,20.81,5.72,24.15,6.69,1.82.11,2.11-6.84,2.71-8.25.11-1.3.98-3.34.52-4.61-.24-1.89-9.39-4.1-8.74-2.41,0,0,0,0,0,0Zm7.54.06c.91-6.54,1.69-13.35,4.24-19.5.1-.29-.34-.46-.48-.2-2.53,4.62-3.29,10.03-3.85,15.2.09.54-.78,5.2.1,4.5h0,0Zm4.07-18.52c1.08,5.27-.14,10.81-1.79,15.7,5.58,4.87-.92,8.49,1.36,13.38.13.25.53.08.45-.19-1.05-5.27,4.05-8.66-1.42-13.58l.04.33c2.38-4.87,3.05-10.49,1.89-15.79-.07-.35-.6-.2-.53.15h0Zm4.48,15.53c-6.63,17.96-10,37.36-12.89,56.25,1.58-1.85,1.74-8.18,2.61-11.11,0,0,2.19-11.2,2.19-11.2,2.13-10.59,5-23.94,8.1-33.94h0Zm-12.49,57.13c2.54,6.87,12.27,10.99,19.32,12,.87-.16,8.46.24,7.25-.48-3.69-1.46-8,.45-11.79-1.33-5.58-2.01-11.45-5.46-14.79-10.19h0Zm26.54-123.89c3.82,2.19-1.19,6.84.54,10.03,3.77,5.25,4.61,11.1,3.29,17.39-.6,6.76-.85,14.15-.7,20.89.28,16.34,1.9,39.64-.76,55.65-1.52,10.12-5.09,20.22-3.87,30.57,1.06-7.54,2.17-19.07,4.43-27.87,3.32-18.64,1.39-37.61.98-56.4-1.1-11.37,2.07-22.9.59-34.09-.85-2.78-3.38-4.82-3.73-7.77-.12-2.92,3.26-7.2-.62-8.95-.34-.11-.48.42-.15.53h0Zm22.96.43c2.08,3.51-2.09,6.99-2.35,10.56-.8,12.7,3.91,25.24,1.48,38.1-1.36,17.55-.69,35.37,4.34,52.33,3.13,9.71,1.1,19.95,2.8,29.8,1.16,1.6.03-6.92.25-6.82.66-11.23-1.51-22.09-4.49-32.84-2.86-13.18-2.92-26.79-2.14-40.2,2.19-13.1-1.24-25.8-1.85-38.75-.4-3.48,5.61-10.81,1.94-12.18h0Zm6.85,133.8c6.6-4.79,19.63-5,23.17-12.6-.45-1.23-2.55,2.81-3.6,3-5.59,4.1-15.62,4.8-19.57,9.6h0s0,0,0,0Zm16.66-86.44c-3.52,7.9-3.16,12.19-.98,20.47-3.53,32.73.42,17.83,5.73,46.41.18,1.18.65,4.4.9,5.56.71-9.01-3.24-19.75-6.8-28.61-2.04-7.16,1.46-14.27,1.15-21.48-.89-7.04-3.94-13.98.12-20.67.1-.47.64-2.18-.13-1.68h0Zm-9.96,18.46c-.22,1.19,7.46,26.03,5.64,17.72-1.9-5.13-3.62-13-5.64-17.73h0s0,0,0,0Zm10.02-20.28c3.1,7.98,1.66,17.47,5.44,25.36.54,1.03,2.96,8.07,3.76,6.47-3.09-5.92-5.35-12.3-6.15-18.96-.76-3.87-.1-10.75-3.05-12.87h0s0,0,0,0Zm9.64-40.57c20.22,21.54,7.48,38.51,15.9,49.75.41.42,1.05-.22.64-.64-4.04-4.38-2.77-10.75-2.8-16.18-.03-11.51-4.79-26.92-13.74-32.93h0Z"/>
    <path class="cls-10" d="m123.16,114.29c-1.95,1.45-3.57,3.73-6.27,4.16-.15,1.75,5.35-1.64,5.71-2.84.08-.39,1.28-1.19.55-1.33h0Z"/>
    <path class="cls-10" d="m122.5,116.03c.04-.09.07-.18.1-.27l-.15-.19c2.4,4.65,7.51,2.88.15,8.03,0,0-3.15,1.79-3.15,1.79,1.21.88,7.88-3.39,7.75-5.72-.2-1.65-2.19-1.8-3.21-2.78-.35-.18-1.63-2.36-1.44-1.14,0,.01-.17.39-.05.29,0,0,0,0,0,0Z"/>
    <path class="cls-10" d="m125.89,122.32c1.26,1.12,1.04,3.29,1.19,4.86,1.45-.3.21-4.1-.58-5.06-.23-.22-.87-.36-.84.13,0,.12.17.18.24.06h0,0Z"/>
    <path class="cls-10" d="m106.54,137.25c-.45-1.41-1.97,2.23,2.7-1,5.68-2.88,11.48-6.59,17.6-8.22l-.33-.43c2.13,17.26,4.48,5.72-9.11,15.5-1.53-.84-2.78-2.56-4.46-3.39-3.52-2.35-4.89-1.37-.51.64,8.08,6.69,3.46,1.84,16.54-1.84.7-3.34-2.02-7.21-1.57-10.91-.23-2.69-19.15,8.55-21.02,9.51.04.19,0,.21-.11.07,0,.14.19.18.26.07h0Z"/>
    <path class="cls-10" d="m105.9,140.07c.69,1.66,1.65,10.23,2.98,9.72,0-3.24-1.05-7.56.98-10.25.35-.04.35-.59,0-.55-2.91,2.22-1.4,7.49-1.53,10.8l.54-.07c-.77-1.25-2.03-10.97-2.97-9.65h0ZM23.38,69.2c-3.43,3.02-.05,15.9,1.07,20.5.09,1.2,3.44,8.67,2.23,4.35-2.66-7.75-5.23-16.85-3.3-24.85Zm82.01-3.69c-2.1,10.93-4.76,22.14-8.35,32.71,4.44-7.28,6.23-19.72,8.27-29.03-.06-.66,1.05-3.89.09-3.68Zm-53.54,112.78c2.56.81,7.07.97,9.77,1.58,1.68.58,16.92,1.99,15.21-.64-8.29,2.18-16.82-1.7-24.98-.94h0Zm-.17,4.22c2.66.58,7.3.97,10.1,1.49,5.11.48,10.86,2.21,15.77.41.39-.73-.76-.7-1.2-.54-5.37.94-13.86-.78-19.29-1.26-1.35.04-4.41-1.11-5.38-.1h0Zm8.04-98.93c-2.06,2.71-.4,8.56-.35,11.76.87,3.8-3.97,16.26-.27,17.66-1.33-3.19-.09-7.82.49-11.52,1.38-5.92-.82-12.11.12-17.9h0Zm2.03.59c10.46-.53,10.12,12.23.26,13.22-.5.18-.74,1.79-.03,1.18.12-.34.55-.67.88-.81,10.76-.26,8.92-17.01-1.1-13.59h0s0,0,0,0Z"/>
    <path class="cls-10" d="m62.46,99.08c0,.72.72.95,1.3,1.14,7.72,3.05,6.21,13.33-2.8,11.75-1.5-.22-2.9,2.55-.66,1.05,12.19.83,11.96-11.34,2.16-13.94h0,0Zm-2.22-15.77c-.1-.09-.23-.09-.37-.09l.09.03c-1.36.19,1.06,1.03,1.54.5l-.39-.29c.03.18.03.43.13.56.17.42.58-.08.46-.32.18-.99-.92-.22-1.41-.4-.05-.02-.36-.08-.46-.09v.43c.07-.02.11-.05.16-.11l-.08.05c.11-.04.36-.12.32-.26h0s0,0,0,0Zm3.84.21c2.24-.17,4.47-1.38,6.32-2.64,1.12-.57.48-1.58-.44-.64-1.2.92-2.85,1.73-4.25,2.3-.36.28-2.17.34-1.64.98Zm4.66,3.01h.04s-.14-.03-.14-.03c.44.17,1.03-.35,1.44-.49.36-.27,1.06-.48,1.23-.91l-.07.12c.36-.22-.02-.7-.34-.44l.14-.04c-.42.05-.9.53-1.28.71-.33.26-1.04.43-1.2.83l.09-.11c-.2.09-.13.42.1.35h0Z"/>
    <path class="cls-10" d="m59.61,83.53c-.67-.32-1.6-.71-2.28-.99-1.02-.57-1.37.39-.24.66.37.09,3.48,1.58,2.52.33h0Zm-.42,3.96c-.44-.02-.91.04-1.36,0-.64.1-1.47-.68-1.97-.16-.25,1.14,4.38,1.17,3.32.16h0Zm19.2,5.19c-1.62,6.57,5.49,7.24,10.34,6.7,3.74-.06,7.31,1.91,6.73-3.78-.06-3.81-1.18-.7-.85,1.06.39,1.95-1.2,2.71-2.87,2.06-2.73-.49-5.49.2-8.23-.18-7.52-.39-3.14-6.24-5.13-5.86h0,0Z"/>
    <path class="cls-10" d="m79.49,92.53c.69-.74,2.55-.22,3.46-.32,3.44.23,8.01.8,11.35,1.58,6.75-.49-16.79-3.8-14.8-1.26h0Zm.02,7.34c-.37,2.34-.52,5.8-.7,8.2-.07,1.92-.72,5.45,2.26,5.17,13.29.21,11.4,4.02,12.62-9.85-.05-.29.99-3.57-.28-2.36-.75,2.77-.96,6.4-1.05,9.27.26,1.6-.34,3.18-2.23,2.74,0,0-7.63-.44-7.63-.44-.78-.16-2.67.24-2.94-.83-.38-1.92.12-5.51.11-7.5-.11,0,.85-5.71-.16-4.4h0s0,0,0,0Zm8.25-4.08s-.07-.03-.1-.05l.07.09c0-.12-.24-.19-.23-.18-1.64.1-.93,2.67.6,2.02,1.24-.17,1-2.92-.2-2.37-.7.74-.14,1.03.47.37h-.43c.05.06.14.13.18.19l-.02-.03c.06.07.12.18.15.26-.03-.09.08.21.06.26,0-.18-.01.39,0,.2,0,.07-.03.16-.06.23.05-.12-.06.13-.08.13l.03-.03s-.17.16-.09.1c-.17.1-.17.12-.38.16,0,0,.02,0,.02,0-.08,0-.17,0-.25,0-.05,0-.26-.07-.35-.21l.02.03c-.07-.12-.05-.08-.08-.21.01.13,0-.21,0-.09,0-.03.08-.26.04-.15.01-.06.07-.13.11-.18-.06.07.08-.08.1-.09,0,0,0,0-.01,0,.03-.03.13-.08.17-.11-.09.04.08-.03.1-.07-.01.01-.03.02-.04.03.09-.02.15-.09.18-.17l-.11.11c.13,0,.27-.13.13-.23h0s0,0,0,0Zm-55.53-.33c-.16,1.33.59,3.33.74,4.67,1.93.69,4.64-.34,6.79-.43,1.58-.44,4.56-.4,5.86-1.44.78-1.07.53-2.8.81-4.05.7-2.29-1.18-1.77-2.61-1.34-2.99.67-7.16,1.23-10.22,1.43-1.91,1.97,11.33-.86,12.18-1.15-.03.85-.29,2.38-.37,3.24-.03.78-.22,1.68-1.16,1.72-2.69.67-8.13,1.26-10.93,1.57l.35.27c-.3-.61-.71-4.85-1.44-4.47h0Z"/>
    <path class="cls-10" d="m33.63,101.29c-.53,1.46.18,12.48,1.38,13.35,2.45,1.43,5.57.13,8.23.33,3.59.96,1.65-4.67,1.92-6.46-.1-2.33-.39-7.03-.57-9.36-1.34-.85-.02,6.8-.23,7.79.05,1.27.25,4.51.3,5.74.27,1.59-.13,1.82-1.66,1.56-2.01-.11-4.99.66-6.97.12-1.9-.66-1.39-7.1-1.85-8.97-.02-.67-.16-2.54-.18-3.19,0-.29,0-.95-.36-.92h0,0Zm18.44-14.99c-.65-1.07-1.78.97-1.42,1.68.4,1.09,2.1.8,2.05-.39.1-.5-.64-.95-.63-.35,0,.12.05.16.06.26,0-.06.01.17,0,.19,0,.03-.09.28-.21.35.06-.04-.08.05-.09.05.05-.02-.09.03-.1.03.08,0-.21,0-.1,0-.05,0-.12-.03-.17-.05.07.03-.12-.06-.13-.07.02.03-.14-.14-.09-.08-.03-.04-.06-.08-.08-.13-.1-.39.17-1.04.56-1.27-.06.02.11-.05.13-.08-.05.03.05-.02,0,0,.06-.03.1-.06.14-.1h-.1c.06.09.23.1.18-.03h0,0Zm-.64,25.7c-1.56-1.65-2.13,2.95-.09,2.35,2.14-.34-.09-3.85-.12-2.12.02.03.23.24.24.26,0-.01.14.22.17.29-.03-.08.03.09.03.1,0,0,.05.25.04.14.02.04,0,.31,0,.24-.01.07-.03.15-.06.21.05-.1-.12.18-.04.07-.11.17-.36.24-.44.25-.06,0-.13,0-.2,0,.12.03-.2-.05-.1-.03-.14-.08-.12-.06-.21-.23-.11-.33-.12-1.17.07-1.3.05-.04.11-.07.17-.09-.06.03.11-.04.14-.05-.08.03.05,0,0,0-.03,0,.03,0,.03,0,.07.04.4.15.35-.11h0s0,0,0,0Zm.9,22.5c-1.3-.59-2.17,1.38-1.78,2.42,1.48,2.92,4.42-3.05,1.41-2.47-.46.5.4.39.59.64.39.69-.54,2.51-1.34,1.84-.47-.69.09-2.37,1.04-2.21.13.05.21-.15.09-.22h0Zm-.87,19.98c-.98-.35-1.48,1.23-1.07,1.93,1.24,1.45,2.46-.91,1.57-2.02-.78-.58-1.41,1.79-.04.33l-.46-.12c.13.41.33.94.17,1.32-.08.18-.19.28-.35.36.07-.02-.08.02-.09.03-.04,0,.04,0,0,0,0,0-.12,0-.07,0-.03,0-.12-.03-.08-.02-.03-.02-.06-.03-.09-.06.04.04-.06-.06-.06-.07-.27-.39.05-.93.31-1.3l-.16.13c.25.01.84-.28.43-.51Zm-2.99,22.6c-1.83-1.55-2.3,2.55-.12,2.11,1.47-.09,1.05-3.19-.04-2.17-.55.51.1.71.51.33l-.38-.05s.12.1.15.14c-.03-.03.07.11.07.13v-.03s.06.28.04.17c.02.09,0,.2,0,.29,0,0,.01-.07,0-.03-.04.21-.07.27-.19.45.07-.08-.09.09-.11.1-.03.03-.21.13-.39.09,0,0,.06.01.03,0-.16-.04-.16-.04-.31-.14.09.08-.22-.22-.13-.13-.05-.06-.11-.17-.15-.24-.1-.19-.07-.48.03-.62.04-.07.23-.19.21-.17.11-.05.36-.07.33-.08h.05s.03,0,.03,0c.15.14.44.11.35-.14,0,0,0,0,0,0Zm-1.48-121.79c-1.13,3,1.15,24.01,1.96,11.22-.32-3.29,2.19-6.79.44-9.82-.2-.29-.67-.02-.47.28,1.39,4.22-1.25,9.08-.86,13.62l.54-.07c-1.54-4.94-1.55-10.12-1.05-15.23.03-.35-.51-.35-.55,0h0Zm26.6,1.77c.11.24-.1,2.1.4,2.05.57.05.07-1.8.15-2.05,0-.36-.55-.36-.55,0Zm.08,3.85c1.99.74.9,7.45,2.49,6.54.09-.33.09-1.6-.52-1.04.95,5.69,1.6-9.8.11-11.14-.09-.34-.62-.2-.53.15,1.04,3.87,1.53,8.06.39,11.96l.54.07c-.03-.08.02-1.11-.04-.76l-.38.1h0s-.13-.16-.13-.16c.05.15.01.59,0,.82l.51-.14c-.96-2.22.03-5.07-2.07-6.79-.27-.22-.66.17-.39.39h0,0Zm4.65-1.24c2.74,1.12,7.65,1.11,10.61,1.52,4.88.11,11.27.12,15.13,3.46,2.03-2.79-11.41-4.74-13.78-4.19-2.04-.09-6.88-.37-8.86-.66-.8.02-2.49-.61-3.1-.13h0Zm-53.89,126.78c-3,3.58-.53,12.21-.86,16.55.66,10.85,2.86,26.47,4.34,37.4.39,3.45,3.11,20.18,2.96,23.37-1.25,5.16-.34,9.94.28,15.01-.08.49.61.71.76.21.54-4.21-2.07-8.26-.35-12.53.83-7.19-1.59-15.87-2.3-23.07-1.96-18.01-7.03-39.67-4.83-56.95h0s0,0,0,0Zm39.03-.71c-1.64-.88-1.02,4.05-1.32,4.8.11,1.08-.9,7.76-.32,8.59.61.68,3.88.19,4.7.34,1.41.19,3.18-.21,2.83-2.02.04-1.19.15-4.6.21-5.83.15-.89-.12-2.74.37-3.5.14-.13.08-.43-.12-.46-1.67-.52-.94,7-1.25,8.15-.11,1.16.47,3.28-1.43,2.85-1.41-.01-3.23.1-4.62.01-.35-1.37.24-4.45.19-6.01.07-1.16.23-4.18.29-5.3.01-.22-.08-1.38.35-1.35.14,0,.18-.16.11-.26h0s0,0,0,0Zm.65,22.3c-1.46,14.57-2.89,30.64-2.35,45.31.13,6.21-1.71,13.77-1.32,19.83.83.95,1.33,1.01.57-.33.05-.35.23-1.92.25-2.33,1.65-11.65,1.08-23.55,1.48-35.24.28-4.58.96-15.63,1.24-20.1.07-1.09.29-4.26.36-5.33-.01-.53.26-1.76-.23-1.8h0Zm.7,2.14c1.05,17.57,6.63,36.16,8.86,53.64,3.36,15.92-4.47,9.43,3.24,23.52.26.52.99.06.77-.45-6.85-11.8-.18-9.51-2.86-21.52-2.51-17.77-7.37-38.41-10.01-55.19,0,0,0,0,0,0Zm37.52-24.23c8.13,33.25-.85,68.75,6.06,102.25,1.64-3.08-1.08-10.42-1.29-14.86-.4-3.21-.69-21.57-.84-25.19-.45-20.24,3.38-44.02-3.92-62.2h0s0,0,0,0Zm-71.36,94.05c2.83,18.5,12.66,36.12,9.79,55.5,5.14-16.48-6.17-39.74-9.79-55.5h0Zm30.31-5.4c2.44,6.05,1.99,13.42,1.97,19.85,0,8.34.31,17.23,1,25.52,1,3.4-1.55,6-1.92,9.19-.06,3.92,4.31,8.21.99,11.78-.22.22.06.58.33.43,4.66-3.47-1.34-8.94-.32-13.27,3.89-7.47.36-16.25.88-24.35-.95-9.01,1.88-22.47-2.94-29.14h0Zm15.32,13.4c-2.23,2.59.82,5.38,1.96,7.7,1.39,3.02,1.83,6.37,2.38,9.61,1.99,12,3.52,24.32,4.04,36.46.74,2.6-.93,17.15,1.19,16.36-.54-20.83-.69-43.4-7.21-63.29-1.1-1.84-3.76-4.26-1.97-6.46.25-.25-.14-.64-.39-.39h0,0Zm31.57,1.55c1.81,3.2.28,8.72.08,12.2-1.44,12.93-1.46,25.96-1.19,38.95.19,3.16-.19,11.37,3.11,12.37.4-.17.11-.79-.29-.68-1.8-3.54-2.03-8-1.99-11.96-.09-7.54-.28-18.06.13-25.47-.6-4.52,4-24.75.14-25.41h0Zm-76.32,64.26c-3.69,3.29-6.8,9-9.15,13.33-4.91,10.59,11.67,9.49,16.44,4.28,1.47-1.12,9.15-8.54,7.44-9.33-4.83,6.21-11.21,13.76-20.01,12.28-3.25-.32-5.15-3.48-3.4-6.38,1.93-5.11,6.4-9.86,8.67-14.18h0Z"/>
    <path class="cls-10" d="m21.99,372.59c1.72,9.66,14.95,7.75,21.05,3.37,3.72-2.34,5-6.68,6.79-10.43,2.83-6.25,9.57-9.02,13.43-14.38,1.28-2.08,1.98-5.14.39-7.23-.18-.22-.59.02-.48.28.83,1.83.8,3.95-.1,5.75-3.18,5.53-9.83,8.01-13.07,13.59-2.14,3.33-2.9,7.57-5.8,10.4-6.33,5.73-18.43,7.3-22.21-1.34h0s0,0,0,0Z"/>
    <path class="cls-10" d="m22.49,374.63c3.19,14.1,23.23,7.66,27.8-2.5,2.36-5.85,4.23-11.87,10.69-14.35,1.98-1.33,3.89-3.44,3.77-5.98-.02-.55-.87-.55-.85,0,.07,1.95-1.23,3.57-2.67,4.73-10.35,3.74-9.15,16.39-17.78,21.92-6.78,5.31-17.64,4.77-20.94-3.81h0,0Zm95.77-3.95c3.16,5.22,7.98,10.92,8.07,17.18-7.82,6.07-19.48-1.01-23.37-8.82,0,0-1.3-2.57-1.3-2.57-.17-.2-1.34-4.23-1.78-2.36,2.89,10,13.09,19.28,24,16.16,1.6-.4,3.51-1.35,3.43-3.26-.83-4.32-5.8-15.14-9.05-16.34h0Z"/>
    <path class="cls-10" d="m126.23,385.4c5.59,13.14-11.16,11.92-18.76,8.11-12.59-7.08-4.59-18.26-18.5-25.58-1.91-1.78-3.28-4.74-1.92-7.24.22-.4-.36-.73-.61-.36-1.28,1.91-.83,4.47.33,6.33,1.29,2.06,3.39,3.43,5.33,4.8,8.55,5.22,3.76,17.15,14.09,22.33,8.43,5.35,28.25,4.59,20.03-8.39h0Z"/>
    <path class="cls-10" d="m126.43,388.45c5.12,13.15-12.36,11.73-19.81,8.05-11.86-6.02-7.52-16.91-13.49-23.17-2-1.05-4.6-1.14-5.92-3.23-1.49-2.02-1.72-4.79-.63-7.04-1.1-1.85-2.03,4.97-1.01,5.82,1.06,4.03,5.54,3.82,8.14,6.09,2.96,7.63,3.17,17.44,11.58,21.81,6.31,2.7,17.84,6.43,22-1.13.97-1.96,1.23-6.41-.86-7.2h0,0Zm-90.01-42.22c-3.73,2.5-6.94,9.25.39,8.28,4.58.13,7.64,3.48,10.57,6.45,1.88.84,3.04-1.59,3.82-2.84,4.83-6.4-6.54-10.99-11.36-12.72-.79-.22-1.99-.63-2.51.28-.21.37.33.83.62.48,2.92-.21,6.05,1.83,8.58,3.28,2.14,1.75,6.93,4.17,4.46,7.38-1.12,1.79-2.74,5.4-4.62,1.97-4.7-8.36-20.46-.77-9.72-12.25.13-.16-.04-.44-.24-.31,0,0,0,0,0,0Zm2.18-2.12c.58-1.06,1.47-2.48,2.08-3.57,3.56-3.08,15.83,3.5,12.92,8.88-1.19,1.86-.42,5.24.49,1.25,1.77-3.44.37-6.91-2.97-8.64-3.32-2.47-10.33-5.63-12.09-.06-.13.49-1.7,2.28-.57,2.48.36.07.35-.64.13-.34h0Zm57.14,23.08c3.23-6.24,16-10.68,19.44-2.86,0,0,1.22,2.78,1.22,2.78.1.6,1.16,1.8.76,2.35-6.59.06-13.76-2.52-18.25,4.07-.67,1.02-2.06-4.55-2.42-5.02-1.44-.38.58,3.85.78,4.6.44,1.75,1.75,1.96,2.83.55,3.89-5.47,9.68-3.42,15.31-3.28,4.14.82,2.48-2.59,1.32-4.78-1.29-5.79-6.91-6.84-12.04-5.74-3.91.87-7.5,3.51-9.38,7.07-.15.29.26.53.44.26h0Z"/>
    <path class="cls-10" d="m96,364.11c0,.14.05.5-.1.59l.38.22c-2.1-8.91,8.64-13.49,14.49-7.89,1.54,3.93,3.02,3.81.86-.24-1.09-2.67-4.58-2.52-6.98-2.83-3.52-.41-7.15,1.38-8.46,4.78-.98.65-.72,8.31-.05,5.96-.19-.05,0-.68-.16-.59h0Z"/>
    <path class="cls-10" d="m91.48,359.78c-.12.61.66,1.51.88,2.07.64.92,1.34,2.89,2.51,3.26.3.09.7,0,.97.16.15.2.24.71.57.33.55-1.54-1.88-.88-2.2-2.11-.48-.44-2.16-4.33-2.73-3.71h0Zm-37.3-9.44c.86-2.52,3.75-2.74,5.17-4.71.36-.42,1.15-2.3.15-2.15-.53,2.61-3.07,3.12-4.7,4.8-.34.36-1.54,2.24-.62,2.07h0,0Zm-28.42,20.45c7.35,3.67,13.08-3.33,17.15-8.52.85-.69,1.51-1.95-.15-.61-5.89,6.71-7.63,10.69-17,9.13h0Zm77.25,3.37c1.44,8.52,13.64,17.68,21.59,12.02-8.75,3.72-18.25-3.18-21.59-12.02h0Zm-.28-7.65c3.22-2.52,9.58-3.26,12.61-.63,2.01-3.4-13.38-2.08-12.61.63h0s0,0,0,0Zm-68.58-17.21c-.98-.23-1.12,1.06.1.52,4.67-1,9.02,1.9,12.18,5.06.22.2.63-.07.43-.33-3.06-3.69-8.72-6.78-13.47-4.94h.26c.01-.34.56-.12.5-.31h0s0,0,0,0Z"/>
    <path class="cls-10" d="m64.1,340.54c-.07.07-.15.13-.24.18h.14c-.77-.12-1.39.94-2.15,1.13-1.65,1.66-7.29-.57-6.59,2.66.53.25.37-.85.96-.91,2.56-.23,6.63-.12,7.83-2.83v.14c.09-.1.38-.45.06-.37h0s0,0,0,0Zm23.22,18.55l.02-.02c2.16-.11,4.75,1.09,6.48-.97.13-.11,1.34-1.1,1.48-.79.07.16.34.16.41,0-.07-1.95-2.46.27-3.14.82-1.45,1.43-4.17-.64-5.3.81-.04.06-.05.17.05.14h0ZM25.29,91.11s.01.06-.02.09h.08s-.08-.04-.13-.04h.03s-.02,0-.03,0h.03s-.03,0-.05-.01l.03.02s-.03-.03-.05-.05c.01.01.03.04.03.06h0s0,.04,0,.04c0-.09-.06-.15-.09-.23l.02.05c-.3-.56-.62.27-.09.34h-.04s0,0,0,0c-.01,0-.03,0-.04-.01.12.1.44.1.38-.12v.05c.19-.13-.15-.44-.08-.18h0s0,0,0,0Zm49.12-24.99s.04-.06,0-.06-.04.06,0,.06Zm-12.87,264.06c-2.34-4.65-3.38-10-3.4-15.19-1.82.71,1.59,15.86,3.4,15.19h0ZM25.28,145.98c-.13,4.94-2.27,11.9-3.74,16.69-2.06,8.34-.09,16.99-1.63,25.39-.02.71-1.19,3.34.12,2.75,2.87-8.67.12-18.1,2.11-26.95.98-5.78,4.55-12.18,3.13-17.88Zm-20.99-5.97c-2.18,9.85,1.16,19.76,1.65,29.61.45,6.68-1.72,13.81,1.22,20.14-.74-4.4-.85-13.67-.3-19.12-.68-10.01-3.48-21.38-2.57-30.63h0s0,0,0,0Zm14.81,52.78c3.76,6.32-.94,13.13-1.99,19.53-.56,4.48.55,9.84-1.03,13.74,2.85-3.69.77-8.68,1.49-12.91.89-6.09,6.83-15.96,1.53-20.36h0s0,0,0,0Zm-7.78,8.49c.66,4.79,1.19,11.36,1.11,16.2.17,2.6-1.43,7.98,2.39,8.41.2-.02.26-.3.05-.36-3.39-1.12-1.63-5.68-1.89-8.32-.22-4.97.23-12.03-1.66-15.93h0,0Zm-.35,8.91c-5.55,7.56-.29,19.3-3.38,26.6,4.66-6.71-1.54-16.85,2.6-24.05.23-.59,1.35-2.07.77-2.55h0Zm-4.04-19.44c-.24,2.65-3.13,3.95-3.94,6.4-3.39,11.58,1.03,24.09,2.09,35.81.21.69.13,3.81,1.09,2.74-.07-1.4-.47-3.49-.65-4.91-.84-11.09-5.61-24.14-1.22-34.82.68-1.27,4.15-4.44,2.63-5.23h0Zm-5.23,23.69c.08,6.25-.03,13.34.68,19.54.9,3.78,3.43.12,1.81.85-2.52,2.47-1.13-20.65-2.49-20.39,0,0,0,0,0,0Zm8.02,1.74c-1.53,3.36,4.37,14.5,1.15,15.98l-.09.33.03-.03-.31.08h.05s-.22-.21-.22-.21c.35.83,1.05-.58.12-.41-.98,1.16,1.68,1.2,1.83.05.64-4.57-1.92-9.1-2.18-13.67-.07-.57-.03-1.69-.39-2.12Zm99.28-64.67c1.14,4.3,3.21,10.84,4.2,15.27,2.18,8.07-.07,16.58,2.03,24.61.46-11.43-.09-28.84-6.24-39.89h0Zm19.34-11.44c2.27,10.02-.07,20.36.94,30.48.62,6.62,3.31,13.4.91,19.95-.07.28.3.42.46.19,3.12-5.86.25-12.71-.36-18.85-1.73-9.85,1.97-23.99-1.94-31.77Zm-12.34,52.48c-.05,2.02-1.96,3.54-1.9,5.66-.2,1.85.07,4.67.09,6.56,1.17,4.91-3.55,17.84,1.27,19.79.23.03.43-.29.17-.41-3.69-2.61-.21-8.27-.79-12.07.83-5.52-1.55-11.49.71-16.71.46-.45,1.51-3.31.45-2.82Zm5.99,8.98c-3.17,6.66-2.15,15-4.84,21.6-.38.36-1.17,1.09-.59,1.6.14.12.34,0,.3-.18-.06-.34.27-.58.52-.73,2.12-1.52,1.62-4.82,2.12-7.1.12-4.96,2.05-11.04,2.48-15.2h0Zm-.53,8.31c-.43,1.46,1.14,3.49,1.66,4.78,1.36,4.61-.03,10.89-.34,15.61-.33,2.44-1.35,7.04,2,7.79.26.01.3-.32.12-.45-2.7-1.45-1.69-5.05-1.4-7.47.83-6.64,1.85-14.73-2.05-20.25h0s0,0,0,0Zm4.61,27.72c1.31-7.2,2.35-16.54,3.67-23.8-.79-2.2-1.86,8.79-2.11,9.24-.18,3.41-2.19,11.64-1.56,14.56Zm1.7-.52c.35-6.48,1.97-14.48,2.61-20.92-.81-1.21-1.33,7.48-1.64,8.15-.05,2.86-2.32,10.93-.97,12.77h0s0,0,0,0Zm1.45-.1c1.59-14.04,9.07-32.87,2.04-44.82,5.83,14.11-1.86,31.6-2.04,44.82h0Zm-6.37-18.81c-1.68,3.43-3.01,8.26-4.42,11.85-1.16,1.61.38,6.28,2.33,3.79-4.94.87.75-9.33,1.06-11.61.1-.72,1.7-3.76,1.03-4.03h0Zm-14.92,70.13c-1.09,1.13-1.96,3.63-2.88,4.97.18.05-4.03,5.86-2.64,5.25,1.04-1.18,6.46-9.41,5.53-10.22h0Zm-33.96-8.88c3.33,2.64,6.98,6.1,10.85,7.91,1.62.03-4.8-3.61-5.09-4.2-.68-.27-5.8-4.93-5.76-3.71h0Zm1.45,4.58c2.31,3.62,5.43,7.14,8.53,10.12,1.38-.24-3.48-4.42-4-5.38-.71-.82-2.52-2.95-3.2-3.75-.31-.25-1.02-1.47-1.32-.99h0Zm-39.26-5.69c-.49-.36-.52.64.07.5,3.21-.73,6.56-2.18,9.9-1.24l-.08-.58c-3.75,2.03-7.33,7.68-6.07,11.48-.49-9.39,13.38-12.89,1.14-11.49-1.44.25-4.26,1.17-4.96,1.34h0Zm29.92-66.98c-2.06,1.55,12.29-.97,10.31-1.91-3.31.83-7.15,1.43-10.49,2.04l.24.18c0-.06.1-.37-.06-.31h0Zm4.1,2.29c4.55,1.08,10.07,1.02,14.73.58.79-.95-6.47-.1-7.44-.41-1.22-.06-4.31-.21-5.5-.34-.45.02-1.79-.41-1.79.16h0Zm4.95,10.81c2.95,3.83,8.52,6.32,12.01,9.6,1.46-.35-3.73-3.66-4.23-4.12-.97-.69-5.45-3.73-6.19-4.53-.16-.06-1.71-2.04-1.59-.95h0,0Zm-11.4-13.16c-2.3-1.15-5.88-1.62-8.39-2.41-3.81-1.15-4.42-.29-.24.63,1.46.38,4.41,1.12,5.87,1.47.59.02,2.55.92,2.76.31h0Zm-13.14,3.46c3.03.19,6.29.18,9.22,1.16l-.06-.5c-1.83.42-14.76,8.01-7.03,4.18,1.49-.9,5.69-2.93,7.31-3.7.56-1.28-8.97-2.05-9.43-1.13h0Zm7.41,7.43c-1.04.02-10.23,9.25-8.38,9.12,1.76-2.13,4.31-4.92,6.34-6.8.23-.36,2.82-2.15,2.04-2.33h0s0,0,0,0Zm45.55-32.26c-1.57.41-3.31,1.76-4.82,2.48-2.5,1.12-1.78,1.7.36.5,1.27-.58,2.76-1.47,3.96-2.19.21-.09.24-.27.32-.46.07-.05.51-.35.19-.33h0Zm1.07,4.83c-.75-.08-1.77,1.36-2.43,1.72-2.29,1.71-5.38,3.58-7.98,4.73-.27,1.73,11.49-5.32,10.41-6.45h0s0,0,0,0Zm-3.32-107.93c1.9-.82,8.57-2.95,8.33-4.6-.77.85-10.1,4.35-8.33,4.6Zm-.39.9c.46.54,1.49.96,2.08,1.37.61.28,1.51,1.01,2.19,1,.44-.55-1.52-1.23-1.87-1.55-.36-.1-2.54-1.68-2.4-.82h0Zm-1.65,16.57c1.9.41,4.05.5,5.9,1.34.92-.97-5.55-2.3-5.9-1.34Z"/>
    <path class="cls-10" d="m99.16,104.91s.03.02.01.03l-.17-.04c.65.2,3.51,4.27,3.84,3.22-.27-.66-1.21-1.42-1.68-1.96-.46-.27-1.78-2.37-2.21-1.41-.32.29.54.69.21.17Zm-80.08-4.67c2.92,1.12,6.47.72,9.47.92-.24.65-1.37.86-1.91,1.22-.65.31-2.32,1.14-2.93,1.47-1.96,1.1.06.84.91.2,7.39-3.36,5.14-3.67-1.31-3.6-.69-.07-2.5-.26-3.16-.35-.27,0-1.13-.29-1.06.15Zm17.23,43.45c-1.16,2.55-2,6.76-2.72,9.49-.32,3.48-2.98,12.44-1.97,15.19.85-6.63,2.41-15.45,4.25-21.94.05-.42,1.06-3,.43-2.75h0Zm-23.51-24.22c1.9,1.53,9.72,2.72,9.96,5.05-.35,2.04-3.89.73-5.31.98-.32,0-1.56-.19-1.17.4.53.22,1.54.15,2.11.24,1.45-.05,3.94.7,4.83-.87.58-1.15-.41-2.27-1.38-2.75-1.1-.51-2.91-1.11-4.06-1.57-.69-.09-4.99-2.31-4.98-1.46,0,0,0,0,0,0Zm30.97-81.32c.68,8.29-.33,13.11,6.57,19.09,2.93,2.39,7.02,8.3,11.45,6.86.4-.15.24-.71-.18-.64-6.36.22-10.51-7.35-14.64-11.26-2.38-1.28-1.74-15.24-3.21-14.05h0s0,0,0,0Zm34.68.23c-.58,1.61-.11,4.68-.26,6.43-.11,1.81.36,4.69-.65,6.29-2.31,2.94-6.62,6.8-9.24,9.54-1.45,1.41-3.07,3.33-5.26,3.37-.54,0-.54.82,0,.83,1.97.04,3.55-1.4,4.87-2.69,1.66-1.66,5.89-5.83,7.44-7.48,2.65-2.15,4.22-5.19,3.62-8.65-.03-1.32-.07-4.7-.14-5.98-.05-.51.13-1.47-.38-1.68h0Zm-10.1,26c.05,3.44-2.52,6.22-3.34,9.41,1.07-.11,4.89-8.48,3.34-9.41h0Zm-12.5.88c-.19,1.51,2.75,10.49,4.17,8.61-2.18-2.28-3.11-5.67-3.87-8.65-.04-.16-.31-.13-.3.04Zm-1.84-13.03c1.28,1.11,4.18.44,5.75.53,1.6.2,3.09.62,4.62-.12,1.51-.23,3.51.66,4.65-.74.14-.2-.13-.4-.31-.31-1.79.96-3.88-.39-5.7.6-2.46-.11-4.92-.21-7.42.06-.45.09-1.55-.68-1.58-.01h0Zm4.42,2.26c.54,1,6.1,1.19,6.59-.08.18-.26-.19-.48-.4-.31-1.23.92-3.16.36-4.59.46-.44.2-1.55-.5-1.6-.07Zm.3-13.69c-2.47.38-1.36,5.86-.62,3.69-.73-1.15-.14-2.55.82-3.34.08.07.11-.46-.2-.35,0,0,0,0,0,0Zm5.74.02c-.42.43.37.77.59,1.07.46.54.65,1.32.47,2.01-.24,1.35,1.01.45.77-.42.03-1.05-.75-2.59-1.84-2.66h0,0Z"/>
    <path class="cls-10" d="m58.25,45.16c.94-1.29,2.09.85,3.2.73,1.22.16,2.59-2.54,3.5-.88.06.2.41.24.45,0-.39-2.46-2.71-.08-3.83.32-.85.13-1.44-.86-2.25-1-.54-.09-1.35.07-1.38.75,0,.15.23.22.3.08h0Zm2.74,1.79c-.21.6-.04,2.18-.11,2.95.39.78,2.09-.5,1.03-.97-.07-.02-.15.07-.1.14.23.43-.36.66-.71.62l.22.22c-.16-.48.31-2.99-.33-3.08-.28.08.11.38,0,.14h0Zm-.65-13.08c.43,1.65-.78,4.19-.2,5.33.62-.63,1.27-5.88.2-5.34h0Zm4.45.41c1.67-4.81,8.52.16,8.47-1.74-1.83-.48-3.86-1.1-5.75-1.06-1.02-.28-4.05,2.57-2.72,2.8h0,0Zm9.33-1.92s.04-.06,0-.06-.04.06,0,.06Z"/>
    <path class="cls-10" d="m68.32,31.72c-.08,0-.16,0-.24.02h.11c-2.96,1.12,1.18,4.96,2.15,1.39.2-1.68-2.54-1.42-1.2-.69-.06,0,.03,0,.03,0,.08,0-.06-.01.02,0l.15.04c-.07-.02.04.03.07.04.07.04-.04-.04.02.02.01,0,.16.17.1.1.02.02.12.22.09.15.03.05.07.26.06.2,0,.04,0,.13,0,.18,0,.05-.06.24-.16.37.06-.09-.05.06-.06.07,0,.01-.19.16-.1.1-.15.14-.5.23-.56.24-.1.01-.22.01-.32,0,.1.02-.12-.03-.14-.04-.01,0-.15-.05-.07-.02-.32-.14-.45-.39-.5-.69-.02-.13,0-.41.09-.62.03-.19.41-.44.4-.71l-.04.1c.06-.08.28-.2.1-.26,0,0,0,0,0,0Zm-10.23,2.61c.36-.23-.56-1.25-.61-1.48-.82-2.4-3.64-.99-5.37-.77-.47.22-3.26-.06-2.63.76,1.3.17,3.37-.36,4.69-.52.68-.13,1.65-.56,2.21.03.57.43.95,2.08,1.72,2h0,0Z"/>
    <path class="cls-10" d="m55.92,34.06c-2.69,1.1-4.29,1.03-5.44-1.72-.43-.16-.72.66-.17.53.08,2.78,3.95,2.91,5.79,1.6.22-.13.07-.49-.18-.42h0Zm10.36.31c1.83,1.3,5.7,1.19,5.79-1.6.54.13.25-.69-.17-.53-.7.42-.39,1.65-1.33,2-.97,1.26-4.79-1.01-4.28.13h0Zm-12.22-2.38c-1.36-.63-2.27,1.61-1.01,2.3,1.11.85,3.02-.2,2.59-1.62-.23-.64-1.18-1.21-1.71-.61-.47.65,2.32.04.73,1.79-1.38.99-2.55-1.53-.7-1.53.19,0,.22-.23.09-.33h0Zm1.84-30.75c-5.45-1-11.88,4.65-11.43,10.18.06.32.53.23.54-.07.48-4.98,5.56-10.17,10.75-9.6.33.05.48-.45.14-.51h0s0,0,0,0Zm-8.1,10.14c-3.56-.01-6.74,3.56-7.63,6.86-.62,3.3.45,6.11-1.28,8.85,4.95-4.14-2.47-10.98,8.92-15.71h0Zm-8.81,12.83c-6.87,1.15-4.11,12.1,2.5,8.16.98-.11,4.06-4.33,2.39-3.96-4.24,8.82-13.22.67-4.89-4.2h0s0,0,0,0Z"/>
    <path class="cls-10" d="m38.25,32.46c-2.41,2.18.48,7.96,3.64,7.33.28-.07.23-.55-.07-.52-2.64-.28-4.72-4.21-3.16-6.49.09-.24-.21-.44-.41-.32h0Z"/>
    <path class="cls-10" d="m39.28,37.88c-2.95,3.06,2.48,5.97,5.21,4.43.27-.09.24-.52-.07-.51-2.3.43-6.74-.48-4.87-3.64.12-.16-.11-.38-.27-.27h0Z"/>
    <path class="cls-10" d="m41.66,41.97c-.06.02-.12.05-.18.08h.15c-1.16-.05-.81,2.06-.33,2.71.37.79,2.32,2.69,2.86,1.58-1.49-.89-3.18-2.33-2.48-4.23l-.02.18c.14-.07.24-.35,0-.31h0s0,0,0,0ZM55.1,3.46c1.48-2.89,5.22-3.07,7.97-2.23.95-1.43-3.9-1.4-4.79-.97-1.19.24-4.36,2.08-3.18,3.21h0s0,0,0,0Z"/>
    <path class="cls-10" d="m61.63,2.37c7.32-4.95,7.77,8.01,12.55,5.02.37-1.26-1.97,1.45-3.68-2.56-1.63-3.27-6.09-5.88-9.12-2.79-.14.17.04.46.25.33h0Z"/>
    <path class="cls-10" d="m68.65,2.61c5.26-2.18,11.06,2.95,10.4,8.39,1.83.88-.03-5.77-1.11-6.46-2.1-2.64-6.59-4.43-9.55-2.27-.2.18.06.43.26.34h0Z"/>
    <path class="cls-10" d="m75.32,11.21c11.11-2.76,4.27,15.14,11.49,14.1.27-.16.09-.58-.21-.5-3.55.09-2.54-5.18-3.17-7.54-.34-3.26-2.35-7.11-6.1-6.99-.52-.02-2.51.29-2.02.92h0s0,0,0,0Zm11.76,14.56c2.02,4.04-4.46,7.61-6.98,4.14l.13.17c-1.15-1.97-1.01,2.98,3.74,1.92,2.89-.4,5.25-3.79,3.54-6.47-.18-.26-.56-.04-.43.25h0Z"/>
    <path class="cls-10" d="m84.15,31.85c1.1,1.31.71,2.97-.48,4.04-.27.85.69,1.56.38,2.45-.33,1.85-2.83,2.92-4.41,2.55.19-.25-.22-.56-.43-.33-.77,2.55,4.24.69,4.91-.56.9-1.08.92-2.56.24-3.72,1.21-1.19,1.71-3.62.06-4.71-.18-.08-.38.09-.28.28h0,0Z"/>
    <path class="cls-10" d="m81.45,41.7c.09,1-.13,2.15-1.19,2.6-.72.4.02.91.52.51.97-.53,1.83-2.38.91-3.21l.11.08c-.06-.15-.35-.2-.34.02h0s0,0,0,0Zm-36.86-22.67c-3.44,4.25,1.55,11,6.66,9.16.39-.09.95-.75.25-.76-6.12,1.14-8.21-3.74-6.91-8.4,0,0,0,0,0,0Zm8.91-4.73c-4.17,1.87-4.93,9.99-.7,12.27.79.43,3.47,1.65,3.58.39-1.7-.64-3.78-.88-4.82-2.62-1.79-3.33-.44-7.82,1.94-10.03h0Zm8.11-1.28c2.07,4.98-5.47,7.27-5.25,12.06-.02,3.36,4.44,5.19,6.85,2.93.84-1.24-3.23,1-4.34-.24-6.53-4.29,7.45-10.82,2.74-14.75h0s0,0,0,0Zm1.31,11.01h-.08s.12.07.12.07c-.68-.48-1.52.71-1.53,1.37-.14.65.75,2.17,1.39,1.52-.11-.5-.91-.79-.78-1.48-.05-.66.74-.87.94-1.33l-.07.12c.15-.04.17-.24,0-.27h0s0,0,0,0Z"/>
    <path class="cls-10" d="m63.54,20.29c-4,7.23,7.46,7.72,9.48,1.52.76-.85.93-6.48-.43-5.55,2.42,8.85-10.76,13.5-9.05,4.04h0s0,0,0,0Z"/>
    <path class="cls-10" d="m71.3,22.99c-1.71,5.81,10.51,6.51,8.42-3.03.07-.97-1.83-2.91-.97-.83,1.46,3.94-1.13,9.28-5.79,6.8-1.04-.53-1.53-1.7-1.37-2.81-.01-.15-.18-.23-.3-.12h0s0,0,0,0Z"/>
    <path class="cls-10" d="m77,26.45c-1.6,1.37-.65,4.45,1.07,5.39v-.61c-3.43,1.48-.68,8.62,2.69,6.17.19-.22-.05-.54-.31-.4-2.82,1.27-4.56-3.92-2.02-5.15.55-.77-1.65-1.48-1.53-2.69-.51-.84.61-2.27.1-2.7h0s0,0,0,0Zm-36.53,5.57c-1.17,1.42.02,3.44,1.32,4.33.18.16.9.69.84.15-.16-.33-.61-.68-.86-.95-1.93-1.33-.34-3.97-1.3-3.52h0s0,0,0,0Zm5.69-5.12c2.72,5.73-2.98,9.1.56,11.77l-.21-.53c-1.96,2.06-1.21,2.35.56.44-1.24-2.71-.35-3.56.59-6.32.37-1.53.02-4.83-1.51-5.36h0Zm11.85-20.02c-2.42.79-.58-2.35.79-2.43,8.45-1.17,1.5,8.09-3.47,6.18-.57.15-2.4-1.29-2.31-.61,1.22,1.28,3.31,1.53,5.01,1.46,6.81-1.17,7.39-10.36-.15-6.99-1.64.57-2,3.82.26,2.62.14-.1.02-.31-.13-.23h0s0,0,0,0Zm10.35,5.44c1.8,4.19,2.34,8.79-2.92,9.46,3.49,2,5.76-3.41,4.61-6.24-.25-.81-.87-3.41-1.69-3.22h0Zm-3.76,16.73c2.75-.53,5.7-.95,8.44.1l-.31-.55s-.1.23-.05.13c-.71.52.71.85.86.21.3-1.88-9.32-1.52-8.94.1h0s0,0,0,0Zm-6.8-.27c-2.02-1.26-7.82-1.95-9.05.17.16.64,1.58.32.86-.21.05.09-.05-.12-.05-.13l-.31.55c2.38-.81,5-.88,7.44-.26.29.08,1.19.46,1.11-.11h0Z"/>
  </g>
</svg>