<svg width="473" height="103" viewBox="0 0 473 103" fill="none" xmlns="http://www.w3.org/2000/svg">
<path d="M66 0C60.1318 0 55.375 4.58893 55.375 10.25C55.375 15.9111 60.1318 20.5 66 20.5C71.8682 20.5 76.625 15.9111 76.625 10.25C76.625 4.58893 71.8682 0 66 0ZM58.0312 10.25C58.0312 8.21115 58.8708 6.2558 60.3652 4.81412C61.8597 3.37243 63.8866 2.5625 66 2.5625C68.1134 2.5625 70.1403 3.37243 71.6348 4.81412C73.1292 6.2558 73.9688 8.21115 73.9688 10.25C73.9688 12.2889 73.1292 14.2442 71.6348 15.6859C70.1403 17.1276 68.1134 17.9375 66 17.9375C63.8866 17.9375 61.8597 17.1276 60.3652 15.6859C58.8708 14.2442 58.0312 12.2889 58.0312 10.25ZM53.5156 24.6C52.3182 24.6 51.1698 25.0588 50.323 25.8756C49.4762 26.6923 49.0003 27.8001 49 28.9552V29.725C49 33.5739 51.0634 36.4562 54.2275 38.3145C57.3406 40.1421 61.5226 41 66 41C70.4774 41 74.6594 40.1421 77.7725 38.3145C80.9366 36.4562 83 33.5739 83 29.725V28.9552C83 28.3832 82.8832 27.8168 82.6562 27.2883C82.4293 26.7598 82.0967 26.2797 81.6773 25.8753C81.258 25.4708 80.7602 25.15 80.2123 24.9312C79.6645 24.7124 79.0773 24.5999 78.4844 24.6H53.5156ZM51.6562 28.9552C51.6565 28.4797 51.8526 28.0237 52.2012 27.6875C52.5499 27.3513 53.0227 27.1625 53.5156 27.1625H78.4844C79.5118 27.1625 80.3438 27.9651 80.3438 28.9552V29.725C80.3438 32.5376 78.8987 34.6532 76.3912 36.1261C73.8306 37.6298 70.1777 38.4375 66 38.4375C61.8223 38.4375 58.1694 37.6298 55.6088 36.1261C53.1013 34.6532 51.6562 32.5386 51.6562 29.725V28.9552Z" fill="#373232"/>
<path d="M310 1C304.132 1 299.375 5.58893 299.375 11.25C299.375 16.9111 304.132 21.5 310 21.5C315.868 21.5 320.625 16.9111 320.625 11.25C320.625 5.58893 315.868 1 310 1ZM302.031 11.25C302.031 9.21115 302.871 7.2558 304.365 5.81412C305.86 4.37243 307.887 3.5625 310 3.5625C312.113 3.5625 314.14 4.37243 315.635 5.81412C317.129 7.2558 317.969 9.21115 317.969 11.25C317.969 13.2889 317.129 15.2442 315.635 16.6859C314.14 18.1276 312.113 18.9375 310 18.9375C307.887 18.9375 305.86 18.1276 304.365 16.6859C302.871 15.2442 302.031 13.2889 302.031 11.25ZM297.516 25.6C296.318 25.6 295.17 26.0588 294.323 26.8756C293.476 27.6923 293 28.8001 293 29.9552V30.725C293 34.5739 295.063 37.4562 298.228 39.3145C301.341 41.1421 305.523 42 310 42C314.477 42 318.659 41.1421 321.773 39.3145C324.937 37.4562 327 34.5739 327 30.725V29.9552C327 29.3832 326.883 28.8168 326.656 28.2883C326.429 27.7598 326.097 27.2797 325.677 26.8753C325.258 26.4708 324.76 26.15 324.212 25.9312C323.664 25.7124 323.077 25.5999 322.484 25.6H297.516ZM295.656 29.9552C295.657 29.4797 295.853 29.0237 296.201 28.6875C296.55 28.3513 297.023 28.1625 297.516 28.1625H322.484C323.512 28.1625 324.344 28.9651 324.344 29.9552V30.725C324.344 33.5376 322.899 35.6532 320.391 37.1261C317.831 38.6298 314.178 39.4375 310 39.4375C305.822 39.4375 302.169 38.6298 299.609 37.1261C297.101 35.6532 295.656 33.5386 295.656 30.725V29.9552Z" fill="#373232"/>
<path d="M66 60C60.1318 60 55.375 64.5889 55.375 70.25C55.375 75.9111 60.1318 80.5 66 80.5C71.8682 80.5 76.625 75.9111 76.625 70.25C76.625 64.5889 71.8682 60 66 60ZM58.0312 70.25C58.0312 68.2111 58.8708 66.2558 60.3652 64.8141C61.8597 63.3724 63.8866 62.5625 66 62.5625C68.1134 62.5625 70.1403 63.3724 71.6348 64.8141C73.1292 66.2558 73.9688 68.2111 73.9688 70.25C73.9688 72.2889 73.1292 74.2442 71.6348 75.6859C70.1403 77.1276 68.1134 77.9375 66 77.9375C63.8866 77.9375 61.8597 77.1276 60.3652 75.6859C58.8708 74.2442 58.0312 72.2889 58.0312 70.25ZM53.5156 84.6C52.3182 84.6 51.1698 85.0588 50.323 85.8756C49.4762 86.6923 49.0003 87.8001 49 88.9552V89.725C49 93.5739 51.0634 96.4562 54.2275 98.3145C57.3406 100.142 61.5226 101 66 101C70.4774 101 74.6594 100.142 77.7725 98.3145C80.9366 96.4562 83 93.5739 83 89.725V88.9552C83 88.3832 82.8832 87.8168 82.6562 87.2883C82.4293 86.7598 82.0967 86.2797 81.6773 85.8753C81.258 85.4708 80.7602 85.15 80.2123 84.9312C79.6645 84.7124 79.0773 84.5999 78.4844 84.6H53.5156ZM51.6562 88.9552C51.6565 88.4797 51.8526 88.0237 52.2012 87.6875C52.5499 87.3513 53.0227 87.1625 53.5156 87.1625H78.4844C79.5118 87.1625 80.3438 87.9651 80.3438 88.9552V89.725C80.3438 92.5376 78.8987 94.6532 76.3912 96.1261C73.8306 97.6298 70.1777 98.4375 66 98.4375C61.8223 98.4375 58.1694 97.6298 55.6088 96.1261C53.1013 94.6532 51.6562 92.5386 51.6562 89.725V88.9552Z" fill="#373232"/>
<path d="M17 60C11.1318 60 6.375 64.5889 6.375 70.25C6.375 75.9111 11.1318 80.5 17 80.5C22.8682 80.5 27.625 75.9111 27.625 70.25C27.625 64.5889 22.8682 60 17 60ZM9.03125 70.25C9.03125 68.2111 9.87081 66.2558 11.3652 64.8141C12.8597 63.3724 14.8866 62.5625 17 62.5625C19.1134 62.5625 21.1403 63.3724 22.6348 64.8141C24.1292 66.2558 24.9687 68.2111 24.9688 70.25C24.9688 72.2889 24.1292 74.2442 22.6348 75.6859C21.1403 77.1276 19.1134 77.9375 17 77.9375C14.8866 77.9375 12.8597 77.1276 11.3652 75.6859C9.87081 74.2442 9.03125 72.2889 9.03125 70.25ZM4.51562 84.6C3.31819 84.6 2.16978 85.0588 1.32297 85.8756C0.476158 86.6923 0.000281749 87.8001 0 88.9552V89.725C0 93.5739 2.06338 96.4562 5.2275 98.3145C8.34063 100.142 12.5226 101 17 101C21.4774 101 25.6594 100.142 28.7725 98.3145C31.9366 96.4562 34 93.5739 34 89.725V88.9552C34 88.3832 33.8832 87.8168 33.6562 87.2883C33.4293 86.7598 33.0967 86.2797 32.6773 85.8753C32.258 85.4708 31.7602 85.15 31.2123 84.9312C30.6645 84.7124 30.0773 84.5999 29.4844 84.6H4.51562ZM2.65625 88.9552C2.65653 88.4797 2.85255 88.0237 3.20122 87.6875C3.54989 87.3513 4.02267 87.1625 4.51562 87.1625H29.4844C30.5118 87.1625 31.3438 87.9651 31.3438 88.9552V89.725C31.3438 92.5376 29.8987 94.6532 27.3912 96.1261C24.8306 97.6298 21.1777 98.4375 17 98.4375C12.8223 98.4375 9.16938 97.6298 6.60875 96.1261C4.10125 94.6532 2.65625 92.5386 2.65625 89.725V88.9552Z" fill="#373232"/>
<path d="M310 61C304.132 61 299.375 65.5889 299.375 71.25C299.375 76.9111 304.132 81.5 310 81.5C315.868 81.5 320.625 76.9111 320.625 71.25C320.625 65.5889 315.868 61 310 61ZM302.031 71.25C302.031 69.2111 302.871 67.2558 304.365 65.8141C305.86 64.3724 307.887 63.5625 310 63.5625C312.113 63.5625 314.14 64.3724 315.635 65.8141C317.129 67.2558 317.969 69.2111 317.969 71.25C317.969 73.2889 317.129 75.2442 315.635 76.6859C314.14 78.1276 312.113 78.9375 310 78.9375C307.887 78.9375 305.86 78.1276 304.365 76.6859C302.871 75.2442 302.031 73.2889 302.031 71.25ZM297.516 85.6C296.318 85.6 295.17 86.0588 294.323 86.8756C293.476 87.6923 293 88.8001 293 89.9552V90.725C293 94.5739 295.063 97.4562 298.228 99.3145C301.341 101.142 305.523 102 310 102C314.477 102 318.659 101.142 321.773 99.3145C324.937 97.4562 327 94.5739 327 90.725V89.9552C327 89.3832 326.883 88.8168 326.656 88.2883C326.429 87.7598 326.097 87.2797 325.677 86.8753C325.258 86.4708 324.76 86.15 324.212 85.9312C323.664 85.7124 323.077 85.5999 322.484 85.6H297.516ZM295.656 89.9552C295.657 89.4797 295.853 89.0237 296.201 88.6875C296.55 88.3513 297.023 88.1625 297.516 88.1625H322.484C323.512 88.1625 324.344 88.9651 324.344 89.9552V90.725C324.344 93.5376 322.899 95.6532 320.391 97.1261C317.831 98.6298 314.178 99.4375 310 99.4375C305.822 99.4375 302.169 98.6298 299.609 97.1261C297.101 95.6532 295.656 93.5386 295.656 90.725V89.9552Z" fill="#373232"/>
<path d="M114.5 0C108.804 0 104.188 4.70085 104.188 10.5C104.188 16.2991 108.804 21 114.5 21C120.196 21 124.812 16.2991 124.812 10.5C124.812 4.70085 120.196 0 114.5 0ZM106.766 10.5C106.766 8.41142 107.58 6.40838 109.031 4.93153C110.481 3.45468 112.449 2.625 114.5 2.625C116.551 2.625 118.519 3.45468 119.969 4.93153C121.42 6.40838 122.234 8.41142 122.234 10.5C122.234 12.5886 121.42 14.5916 119.969 16.0685C118.519 17.5453 116.551 18.375 114.5 18.375C112.449 18.375 110.481 17.5453 109.031 16.0685C107.58 14.5916 106.766 12.5886 106.766 10.5ZM102.383 25.2C101.221 25.2 100.106 25.67 99.2841 26.5067C98.4622 27.3433 98.0003 28.4781 98 29.6614V30.45C98 34.3927 100.003 37.3453 103.074 39.249C106.095 41.1211 110.154 42 114.5 42C118.846 42 122.905 41.1211 125.926 39.249C128.997 37.3453 131 34.3927 131 30.45V29.6614C131 29.0755 130.887 28.4952 130.666 27.9539C130.446 27.4125 130.123 26.9207 129.716 26.5064C129.309 26.0921 128.826 25.7635 128.294 25.5393C127.763 25.3152 127.193 25.1999 126.617 25.2H102.383ZM100.578 29.6614C100.578 29.1743 100.769 28.7072 101.107 28.3628C101.445 28.0184 101.904 27.825 102.383 27.825H126.617C127.614 27.825 128.422 28.6471 128.422 29.6614V30.45C128.422 33.3312 127.019 35.4984 124.586 37.0072C122.1 38.5476 118.555 39.375 114.5 39.375C110.445 39.375 106.9 38.5476 104.414 37.0072C101.981 35.4984 100.578 33.3322 100.578 30.45V29.6614Z" fill="#373232"/>
<path d="M358.5 1C352.804 1 348.188 5.70085 348.188 11.5C348.188 17.2991 352.804 22 358.5 22C364.196 22 368.812 17.2991 368.812 11.5C368.812 5.70085 364.196 1 358.5 1ZM350.766 11.5C350.766 9.41142 351.58 7.40838 353.031 5.93153C354.481 4.45468 356.449 3.625 358.5 3.625C360.551 3.625 362.519 4.45468 363.969 5.93153C365.42 7.40838 366.234 9.41142 366.234 11.5C366.234 13.5886 365.42 15.5916 363.969 17.0685C362.519 18.5453 360.551 19.375 358.5 19.375C356.449 19.375 354.481 18.5453 353.031 17.0685C351.58 15.5916 350.766 13.5886 350.766 11.5ZM346.383 26.2C345.221 26.2 344.106 26.67 343.284 27.5067C342.462 28.3433 342 29.4781 342 30.6614V31.45C342 35.3927 344.003 38.3453 347.074 40.249C350.095 42.1211 354.154 43 358.5 43C362.846 43 366.905 42.1211 369.926 40.249C372.997 38.3453 375 35.3927 375 31.45V30.6614C375 30.0755 374.887 29.4952 374.666 28.9539C374.446 28.4125 374.123 27.9207 373.716 27.5064C373.309 27.0921 372.826 26.7635 372.294 26.5393C371.763 26.3152 371.193 26.1999 370.617 26.2H346.383ZM344.578 30.6614C344.578 30.1743 344.769 29.7072 345.107 29.3628C345.445 29.0184 345.904 28.825 346.383 28.825H370.617C371.614 28.825 372.422 29.6471 372.422 30.6614V31.45C372.422 34.3312 371.019 36.4984 368.586 38.0072C366.1 39.5476 362.555 40.375 358.5 40.375C354.445 40.375 350.9 39.5476 348.414 38.0072C345.981 36.4984 344.578 34.3322 344.578 31.45V30.6614Z" fill="#373232"/>
<path d="M114.5 60C108.804 60 104.188 64.7009 104.188 70.5C104.188 76.2991 108.804 81 114.5 81C120.196 81 124.812 76.2991 124.812 70.5C124.812 64.7009 120.196 60 114.5 60ZM106.766 70.5C106.766 68.4114 107.58 66.4084 109.031 64.9315C110.481 63.4547 112.449 62.625 114.5 62.625C116.551 62.625 118.519 63.4547 119.969 64.9315C121.42 66.4084 122.234 68.4114 122.234 70.5C122.234 72.5886 121.42 74.5916 119.969 76.0685C118.519 77.5453 116.551 78.375 114.5 78.375C112.449 78.375 110.481 77.5453 109.031 76.0685C107.58 74.5916 106.766 72.5886 106.766 70.5ZM102.383 85.2C101.221 85.2 100.106 85.67 99.2841 86.5067C98.4622 87.3433 98.0003 88.4781 98 89.6614V90.45C98 94.3927 100.003 97.3453 103.074 99.249C106.095 101.121 110.154 102 114.5 102C118.846 102 122.905 101.121 125.926 99.249C128.997 97.3453 131 94.3927 131 90.45V89.6614C131 89.0755 130.887 88.4952 130.666 87.9539C130.446 87.4125 130.123 86.9207 129.716 86.5064C129.309 86.0921 128.826 85.7635 128.294 85.5393C127.763 85.3152 127.193 85.1999 126.617 85.2H102.383ZM100.578 89.6614C100.578 89.1743 100.769 88.7072 101.107 88.3628C101.445 88.0184 101.904 87.825 102.383 87.825H126.617C127.614 87.825 128.422 88.6471 128.422 89.6614V90.45C128.422 93.3312 127.019 95.4984 124.586 97.0072C122.1 98.5476 118.555 99.375 114.5 99.375C110.445 99.375 106.9 98.5476 104.414 97.0072C101.981 95.4984 100.578 93.3322 100.578 90.45V89.6614Z" fill="#373232"/>
<path d="M358.5 61C352.804 61 348.188 65.7009 348.188 71.5C348.188 77.2991 352.804 82 358.5 82C364.196 82 368.812 77.2991 368.812 71.5C368.812 65.7009 364.196 61 358.5 61ZM350.766 71.5C350.766 69.4114 351.58 67.4084 353.031 65.9315C354.481 64.4547 356.449 63.625 358.5 63.625C360.551 63.625 362.519 64.4547 363.969 65.9315C365.42 67.4084 366.234 69.4114 366.234 71.5C366.234 73.5886 365.42 75.5916 363.969 77.0685C362.519 78.5453 360.551 79.375 358.5 79.375C356.449 79.375 354.481 78.5453 353.031 77.0685C351.58 75.5916 350.766 73.5886 350.766 71.5ZM346.383 86.2C345.221 86.2 344.106 86.67 343.284 87.5067C342.462 88.3433 342 89.4781 342 90.6614V91.45C342 95.3927 344.003 98.3453 347.074 100.249C350.095 102.121 354.154 103 358.5 103C362.846 103 366.905 102.121 369.926 100.249C372.997 98.3453 375 95.3927 375 91.45V90.6614C375 90.0755 374.887 89.4952 374.666 88.9539C374.446 88.4125 374.123 87.9207 373.716 87.5064C373.309 87.0921 372.826 86.7635 372.294 86.5393C371.763 86.3152 371.193 86.1999 370.617 86.2H346.383ZM344.578 90.6614C344.578 90.1743 344.769 89.7072 345.107 89.3628C345.445 89.0184 345.904 88.825 346.383 88.825H370.617C371.614 88.825 372.422 89.6471 372.422 90.6614V91.45C372.422 94.3312 371.019 96.4984 368.586 98.0072C366.1 99.5476 362.555 100.375 358.5 100.375C354.445 100.375 350.9 99.5476 348.414 98.0072C345.981 96.4984 344.578 94.3322 344.578 91.45V90.6614Z" fill="#373232"/>
<path d="M163 0C157.132 0 152.375 4.70085 152.375 10.5C152.375 16.2991 157.132 21 163 21C168.868 21 173.625 16.2991 173.625 10.5C173.625 4.70085 168.868 0 163 0ZM155.031 10.5C155.031 8.41142 155.871 6.40838 157.365 4.93153C158.86 3.45468 160.887 2.625 163 2.625C165.113 2.625 167.14 3.45468 168.635 4.93153C170.129 6.40838 170.969 8.41142 170.969 10.5C170.969 12.5886 170.129 14.5916 168.635 16.0685C167.14 17.5453 165.113 18.375 163 18.375C160.887 18.375 158.86 17.5453 157.365 16.0685C155.871 14.5916 155.031 12.5886 155.031 10.5ZM150.516 25.2C149.318 25.2 148.17 25.67 147.323 26.5067C146.476 27.3433 146 28.4781 146 29.6614V30.45C146 34.3927 148.063 37.3453 151.228 39.249C154.341 41.1211 158.523 42 163 42C167.477 42 171.659 41.1211 174.773 39.249C177.937 37.3453 180 34.3927 180 30.45V29.6614C180 29.0755 179.883 28.4952 179.656 27.9539C179.429 27.4125 179.097 26.9207 178.677 26.5064C178.258 26.0921 177.76 25.7635 177.212 25.5393C176.664 25.3152 176.077 25.1999 175.484 25.2H150.516ZM148.656 29.6614C148.657 29.1743 148.853 28.7072 149.201 28.3628C149.55 28.0184 150.023 27.825 150.516 27.825H175.484C176.512 27.825 177.344 28.6471 177.344 29.6614V30.45C177.344 33.3312 175.899 35.4984 173.391 37.0072C170.831 38.5476 167.178 39.375 163 39.375C158.822 39.375 155.169 38.5476 152.609 37.0072C150.101 35.4984 148.656 33.3322 148.656 30.45V29.6614Z" fill="#373232"/>
<path d="M407 1C401.132 1 396.375 5.70085 396.375 11.5C396.375 17.2991 401.132 22 407 22C412.868 22 417.625 17.2991 417.625 11.5C417.625 5.70085 412.868 1 407 1ZM399.031 11.5C399.031 9.41142 399.871 7.40838 401.365 5.93153C402.86 4.45468 404.887 3.625 407 3.625C409.113 3.625 411.14 4.45468 412.635 5.93153C414.129 7.40838 414.969 9.41142 414.969 11.5C414.969 13.5886 414.129 15.5916 412.635 17.0685C411.14 18.5453 409.113 19.375 407 19.375C404.887 19.375 402.86 18.5453 401.365 17.0685C399.871 15.5916 399.031 13.5886 399.031 11.5ZM394.516 26.2C393.318 26.2 392.17 26.67 391.323 27.5067C390.476 28.3433 390 29.4781 390 30.6614V31.45C390 35.3927 392.063 38.3453 395.228 40.249C398.341 42.1211 402.523 43 407 43C411.477 43 415.659 42.1211 418.773 40.249C421.937 38.3453 424 35.3927 424 31.45V30.6614C424 30.0755 423.883 29.4952 423.656 28.9539C423.429 28.4125 423.097 27.9207 422.677 27.5064C422.258 27.0921 421.76 26.7635 421.212 26.5393C420.664 26.3152 420.077 26.1999 419.484 26.2H394.516ZM392.656 30.6614C392.657 30.1743 392.853 29.7072 393.201 29.3628C393.55 29.0184 394.023 28.825 394.516 28.825H419.484C420.512 28.825 421.344 29.6471 421.344 30.6614V31.45C421.344 34.3312 419.899 36.4984 417.391 38.0072C414.831 39.5476 411.178 40.375 407 40.375C402.822 40.375 399.169 39.5476 396.609 38.0072C394.101 36.4984 392.656 34.3322 392.656 31.45V30.6614Z" fill="#373232"/>
<path d="M163 60C157.132 60 152.375 64.7009 152.375 70.5C152.375 76.2991 157.132 81 163 81C168.868 81 173.625 76.2991 173.625 70.5C173.625 64.7009 168.868 60 163 60ZM155.031 70.5C155.031 68.4114 155.871 66.4084 157.365 64.9315C158.86 63.4547 160.887 62.625 163 62.625C165.113 62.625 167.14 63.4547 168.635 64.9315C170.129 66.4084 170.969 68.4114 170.969 70.5C170.969 72.5886 170.129 74.5916 168.635 76.0685C167.14 77.5453 165.113 78.375 163 78.375C160.887 78.375 158.86 77.5453 157.365 76.0685C155.871 74.5916 155.031 72.5886 155.031 70.5ZM150.516 85.2C149.318 85.2 148.17 85.67 147.323 86.5067C146.476 87.3433 146 88.4781 146 89.6614V90.45C146 94.3927 148.063 97.3453 151.228 99.249C154.341 101.121 158.523 102 163 102C167.477 102 171.659 101.121 174.773 99.249C177.937 97.3453 180 94.3927 180 90.45V89.6614C180 89.0755 179.883 88.4952 179.656 87.9539C179.429 87.4125 179.097 86.9207 178.677 86.5064C178.258 86.0921 177.76 85.7635 177.212 85.5393C176.664 85.3152 176.077 85.1999 175.484 85.2H150.516ZM148.656 89.6614C148.657 89.1743 148.853 88.7072 149.201 88.3628C149.55 88.0184 150.023 87.825 150.516 87.825H175.484C176.512 87.825 177.344 88.6471 177.344 89.6614V90.45C177.344 93.3312 175.899 95.4984 173.391 97.0072C170.831 98.5476 167.178 99.375 163 99.375C158.822 99.375 155.169 98.5476 152.609 97.0072C150.101 95.4984 148.656 93.3322 148.656 90.45V89.6614Z" fill="#373232"/>
<path d="M407 61C401.132 61 396.375 65.7009 396.375 71.5C396.375 77.2991 401.132 82 407 82C412.868 82 417.625 77.2991 417.625 71.5C417.625 65.7009 412.868 61 407 61ZM399.031 71.5C399.031 69.4114 399.871 67.4084 401.365 65.9315C402.86 64.4547 404.887 63.625 407 63.625C409.113 63.625 411.14 64.4547 412.635 65.9315C414.129 67.4084 414.969 69.4114 414.969 71.5C414.969 73.5886 414.129 75.5916 412.635 77.0685C411.14 78.5453 409.113 79.375 407 79.375C404.887 79.375 402.86 78.5453 401.365 77.0685C399.871 75.5916 399.031 73.5886 399.031 71.5ZM394.516 86.2C393.318 86.2 392.17 86.67 391.323 87.5067C390.476 88.3433 390 89.4781 390 90.6614V91.45C390 95.3927 392.063 98.3453 395.228 100.249C398.341 102.121 402.523 103 407 103C411.477 103 415.659 102.121 418.773 100.249C421.937 98.3453 424 95.3927 424 91.45V90.6614C424 90.0755 423.883 89.4952 423.656 88.9539C423.429 88.4125 423.097 87.9207 422.677 87.5064C422.258 87.0921 421.76 86.7635 421.212 86.5393C420.664 86.3152 420.077 86.1999 419.484 86.2H394.516ZM392.656 90.6614C392.657 90.1743 392.853 89.7072 393.201 89.3628C393.55 89.0184 394.023 88.825 394.516 88.825H419.484C420.512 88.825 421.344 89.6471 421.344 90.6614V91.45C421.344 94.3312 419.899 96.4984 417.391 98.0072C414.831 99.5476 411.178 100.375 407 100.375C402.822 100.375 399.169 99.5476 396.609 98.0072C394.101 96.4984 392.656 94.3322 392.656 91.45V90.6614Z" fill="#373232"/>
<path d="M212 0C206.132 0 201.375 4.70085 201.375 10.5C201.375 16.2991 206.132 21 212 21C217.868 21 222.625 16.2991 222.625 10.5C222.625 4.70085 217.868 0 212 0ZM204.031 10.5C204.031 8.41142 204.871 6.40838 206.365 4.93153C207.86 3.45468 209.887 2.625 212 2.625C214.113 2.625 216.14 3.45468 217.635 4.93153C219.129 6.40838 219.969 8.41142 219.969 10.5C219.969 12.5886 219.129 14.5916 217.635 16.0685C216.14 17.5453 214.113 18.375 212 18.375C209.887 18.375 207.86 17.5453 206.365 16.0685C204.871 14.5916 204.031 12.5886 204.031 10.5ZM199.516 25.2C198.318 25.2 197.17 25.67 196.323 26.5067C195.476 27.3433 195 28.4781 195 29.6614V30.45C195 34.3927 197.063 37.3453 200.228 39.249C203.341 41.1211 207.523 42 212 42C216.477 42 220.659 41.1211 223.773 39.249C226.937 37.3453 229 34.3927 229 30.45V29.6614C229 29.0755 228.883 28.4952 228.656 27.9539C228.429 27.4125 228.097 26.9207 227.677 26.5064C227.258 26.0921 226.76 25.7635 226.212 25.5393C225.664 25.3152 225.077 25.1999 224.484 25.2H199.516ZM197.656 29.6614C197.657 29.1743 197.853 28.7072 198.201 28.3628C198.55 28.0184 199.023 27.825 199.516 27.825H224.484C225.512 27.825 226.344 28.6471 226.344 29.6614V30.45C226.344 33.3312 224.899 35.4984 222.391 37.0072C219.831 38.5476 216.178 39.375 212 39.375C207.822 39.375 204.169 38.5476 201.609 37.0072C199.101 35.4984 197.656 33.3322 197.656 30.45V29.6614Z" fill="#373232"/>
<path d="M456 1C450.132 1 445.375 5.70085 445.375 11.5C445.375 17.2991 450.132 22 456 22C461.868 22 466.625 17.2991 466.625 11.5C466.625 5.70085 461.868 1 456 1ZM448.031 11.5C448.031 9.41142 448.871 7.40838 450.365 5.93153C451.86 4.45468 453.887 3.625 456 3.625C458.113 3.625 460.14 4.45468 461.635 5.93153C463.129 7.40838 463.969 9.41142 463.969 11.5C463.969 13.5886 463.129 15.5916 461.635 17.0685C460.14 18.5453 458.113 19.375 456 19.375C453.887 19.375 451.86 18.5453 450.365 17.0685C448.871 15.5916 448.031 13.5886 448.031 11.5ZM443.516 26.2C442.318 26.2 441.17 26.67 440.323 27.5067C439.476 28.3433 439 29.4781 439 30.6614V31.45C439 35.3927 441.063 38.3453 444.228 40.249C447.341 42.1211 451.523 43 456 43C460.477 43 464.659 42.1211 467.773 40.249C470.937 38.3453 473 35.3927 473 31.45V30.6614C473 30.0755 472.883 29.4952 472.656 28.9539C472.429 28.4125 472.097 27.9207 471.677 27.5064C471.258 27.0921 470.76 26.7635 470.212 26.5393C469.664 26.3152 469.077 26.1999 468.484 26.2H443.516ZM441.656 30.6614C441.657 30.1743 441.853 29.7072 442.201 29.3628C442.55 29.0184 443.023 28.825 443.516 28.825H468.484C469.512 28.825 470.344 29.6471 470.344 30.6614V31.45C470.344 34.3312 468.899 36.4984 466.391 38.0072C463.831 39.5476 460.178 40.375 456 40.375C451.822 40.375 448.169 39.5476 445.609 38.0072C443.101 36.4984 441.656 34.3322 441.656 31.45V30.6614Z" fill="#373232"/>
<path d="M212 60C206.132 60 201.375 64.7009 201.375 70.5C201.375 76.2991 206.132 81 212 81C217.868 81 222.625 76.2991 222.625 70.5C222.625 64.7009 217.868 60 212 60ZM204.031 70.5C204.031 68.4114 204.871 66.4084 206.365 64.9315C207.86 63.4547 209.887 62.625 212 62.625C214.113 62.625 216.14 63.4547 217.635 64.9315C219.129 66.4084 219.969 68.4114 219.969 70.5C219.969 72.5886 219.129 74.5916 217.635 76.0685C216.14 77.5453 214.113 78.375 212 78.375C209.887 78.375 207.86 77.5453 206.365 76.0685C204.871 74.5916 204.031 72.5886 204.031 70.5ZM199.516 85.2C198.318 85.2 197.17 85.67 196.323 86.5067C195.476 87.3433 195 88.4781 195 89.6614V90.45C195 94.3927 197.063 97.3453 200.228 99.249C203.341 101.121 207.523 102 212 102C216.477 102 220.659 101.121 223.773 99.249C226.937 97.3453 229 94.3927 229 90.45V89.6614C229 89.0755 228.883 88.4952 228.656 87.9539C228.429 87.4125 228.097 86.9207 227.677 86.5064C227.258 86.0921 226.76 85.7635 226.212 85.5393C225.664 85.3152 225.077 85.1999 224.484 85.2H199.516ZM197.656 89.6614C197.657 89.1743 197.853 88.7072 198.201 88.3628C198.55 88.0184 199.023 87.825 199.516 87.825H224.484C225.512 87.825 226.344 88.6471 226.344 89.6614V90.45C226.344 93.3312 224.899 95.4984 222.391 97.0072C219.831 98.5476 216.178 99.375 212 99.375C207.822 99.375 204.169 98.5476 201.609 97.0072C199.101 95.4984 197.656 93.3322 197.656 90.45V89.6614Z" fill="#373232"/>
<path d="M261 60C255.132 60 250.375 64.7009 250.375 70.5C250.375 76.2991 255.132 81 261 81C266.868 81 271.625 76.2991 271.625 70.5C271.625 64.7009 266.868 60 261 60ZM253.031 70.5C253.031 68.4114 253.871 66.4084 255.365 64.9315C256.86 63.4547 258.887 62.625 261 62.625C263.113 62.625 265.14 63.4547 266.635 64.9315C268.129 66.4084 268.969 68.4114 268.969 70.5C268.969 72.5886 268.129 74.5916 266.635 76.0685C265.14 77.5453 263.113 78.375 261 78.375C258.887 78.375 256.86 77.5453 255.365 76.0685C253.871 74.5916 253.031 72.5886 253.031 70.5ZM248.516 85.2C247.318 85.2 246.17 85.67 245.323 86.5067C244.476 87.3433 244 88.4781 244 89.6614V90.45C244 94.3927 246.063 97.3453 249.228 99.249C252.341 101.121 256.523 102 261 102C265.477 102 269.659 101.121 272.773 99.249C275.937 97.3453 278 94.3927 278 90.45V89.6614C278 89.0755 277.883 88.4952 277.656 87.9539C277.429 87.4125 277.097 86.9207 276.677 86.5064C276.258 86.0921 275.76 85.7635 275.212 85.5393C274.664 85.3152 274.077 85.1999 273.484 85.2H248.516ZM246.656 89.6614C246.657 89.1743 246.853 88.7072 247.201 88.3628C247.55 88.0184 248.023 87.825 248.516 87.825H273.484C274.512 87.825 275.344 88.6471 275.344 89.6614V90.45C275.344 93.3312 273.899 95.4984 271.391 97.0072C268.831 98.5476 265.178 99.375 261 99.375C256.822 99.375 253.169 98.5476 250.609 97.0072C248.101 95.4984 246.656 93.3322 246.656 90.45V89.6614Z" fill="#373232"/>
<path d="M261 0C255.132 0 250.375 4.70085 250.375 10.5C250.375 16.2991 255.132 21 261 21C266.868 21 271.625 16.2991 271.625 10.5C271.625 4.70085 266.868 0 261 0ZM253.031 10.5C253.031 8.41142 253.871 6.40838 255.365 4.93153C256.86 3.45468 258.887 2.625 261 2.625C263.113 2.625 265.14 3.45468 266.635 4.93153C268.129 6.40838 268.969 8.41142 268.969 10.5C268.969 12.5886 268.129 14.5916 266.635 16.0685C265.14 17.5453 263.113 18.375 261 18.375C258.887 18.375 256.86 17.5453 255.365 16.0685C253.871 14.5916 253.031 12.5886 253.031 10.5ZM248.516 25.2C247.318 25.2 246.17 25.67 245.323 26.5067C244.476 27.3433 244 28.4781 244 29.6614V30.45C244 34.3927 246.063 37.3454 249.227 39.249C252.341 41.1212 256.523 42 261 42C265.477 42 269.659 41.1212 272.773 39.249C275.937 37.3454 278 34.3927 278 30.45V29.6614C278 29.0755 277.883 28.4952 277.656 27.9539C277.429 27.4125 277.097 26.9207 276.677 26.5064C276.258 26.0921 275.76 25.7635 275.212 25.5393C274.664 25.3152 274.077 25.1999 273.484 25.2H248.516ZM246.656 29.6614C246.657 29.1743 246.853 28.7072 247.201 28.3628C247.55 28.0184 248.023 27.825 248.516 27.825H273.484C274.512 27.825 275.344 28.6471 275.344 29.6614V30.45C275.344 33.3312 273.899 35.4984 271.391 37.0072C268.831 38.5476 265.178 39.375 261 39.375C256.822 39.375 253.169 38.5476 250.609 37.0072C248.101 35.4984 246.656 33.3322 246.656 30.45V29.6614Z" fill="#373232"/>
<path d="M456 61C450.132 61 445.375 65.7009 445.375 71.5C445.375 77.2991 450.132 82 456 82C461.868 82 466.625 77.2991 466.625 71.5C466.625 65.7009 461.868 61 456 61ZM448.031 71.5C448.031 69.4114 448.871 67.4084 450.365 65.9315C451.86 64.4547 453.887 63.625 456 63.625C458.113 63.625 460.14 64.4547 461.635 65.9315C463.129 67.4084 463.969 69.4114 463.969 71.5C463.969 73.5886 463.129 75.5916 461.635 77.0685C460.14 78.5453 458.113 79.375 456 79.375C453.887 79.375 451.86 78.5453 450.365 77.0685C448.871 75.5916 448.031 73.5886 448.031 71.5ZM443.516 86.2C442.318 86.2 441.17 86.67 440.323 87.5067C439.476 88.3433 439 89.4781 439 90.6614V91.45C439 95.3927 441.063 98.3453 444.228 100.249C447.341 102.121 451.523 103 456 103C460.477 103 464.659 102.121 467.773 100.249C470.937 98.3453 473 95.3927 473 91.45V90.6614C473 90.0755 472.883 89.4952 472.656 88.9539C472.429 88.4125 472.097 87.9207 471.677 87.5064C471.258 87.0921 470.76 86.7635 470.212 86.5393C469.664 86.3152 469.077 86.1999 468.484 86.2H443.516ZM441.656 90.6614C441.657 90.1743 441.853 89.7072 442.201 89.3628C442.55 89.0184 443.023 88.825 443.516 88.825H468.484C469.512 88.825 470.344 89.6471 470.344 90.6614V91.45C470.344 94.3312 468.899 96.4984 466.391 98.0072C463.831 99.5476 460.178 100.375 456 100.375C451.822 100.375 448.169 99.5476 445.609 98.0072C443.101 96.4984 441.656 94.3322 441.656 91.45V90.6614Z" fill="#373232"/>
<path d="M17 0C11.1318 0 6.375 4.81278 6.375 10.75C6.375 16.6872 11.1318 21.5 17 21.5C22.8682 21.5 27.625 16.6872 27.625 10.75C27.625 4.81278 22.8682 0 17 0ZM4.51562 25.8C3.31819 25.8 2.16978 26.2812 1.32297 27.1378C0.476158 27.9944 0.000281749 29.1562 0 30.3677V31.175C0 35.2116 2.06338 38.2345 5.2275 40.1835C8.34063 42.1002 12.5226 43 17 43C21.4774 43 25.6594 42.1002 28.7725 40.1835C31.9366 38.2345 34 35.2116 34 31.175V30.3677C34 29.7678 33.8832 29.1737 33.6562 28.6195C33.4293 28.0652 33.0967 27.5616 32.6773 27.1375C32.258 26.7133 31.7602 26.3769 31.2123 26.1474C30.6645 25.9179 30.0773 25.7999 29.4844 25.8H4.51562Z" fill="#373232"/>
</svg>
