<?xml version="1.0" encoding="UTF-8"?>
<svg id="Ebene_1" data-name="Ebene 1" xmlns="http://www.w3.org/2000/svg" viewBox="0 0 300.45 369.12">
  <defs>
    <style>
      .cls-1 {
        fill: #f7931e;
      }

      .cls-2 {
        fill: #fff;
      }

      .cls-3 {
        fill: #ffd8be;
      }

      .cls-4 {
        fill: #fbce4f;
      }

      .cls-5 {
        fill: #d8bee0;
      }

      .cls-6 {
        fill: #603813;
      }

      .cls-7 {
        fill: #6794a6;
        stroke: #000;
        stroke-miterlimit: 10;
        stroke-width: .5px;
      }

      .cls-8 {
        isolation: isolate;
        opacity: .33;
      }
    </style>
  </defs>
  <g id="Ebene_2" data-name="Ebene 2">
    <g id="Farbe">
      <path class="cls-5" d="m134.55,197.32c-5.57,40.45-5.9,63.34-12.49,102.62-2.4,24.56-5.51,41.84-16.08,59.49,38.84-.13,83.2-19.65,118.22-25.18-1.36-19.8-5.05-27.34-3.93-45.34,5.02-14.8,2.77-36.47-1.96-49.41,3.17,6.03,6.17,15.96,6.89,22.3,15.58-.86,44.8-13.14,55.75-22.92-17.57-27.91-24.84-82.89-63.49-79.17-24.24-1-28.59-1.97-52.33.4.41,16.5-16.21,34.87-30.57,37.22h-.01Z"/>
      <path class="cls-5" d="m37.11,171.87c-9.91,5.19-23.15,12.13-30.96,26.2-11.14,15.9-1.31,73.83,3.06,95.17,15.7-2.29,44.9-15.08,59.24-27.96,1.2,13.71-3.18,18.61,4.79,32.17,7.15-18.98,13.41-29.71,19.94-45.82,6.62-16.82,14.4-43.55,17.4-56.2-41.85-5.03-31.4-48.55-73.47-23.56Z"/>
      <path class="cls-4" d="m132.4.72C90.75-4.57,58.39,28.82,50.98,67.76c-2.89,13.02-6.3,14.16-7.74,25.39-.73,9.44,2.41,9.68,1.8,22.89-.52,25-12.9,28.54-3.4,52.68,2.72-.41,5.44-.82,8.17-1.24.72,6.37,1.75,18.83,1,23.46-1.03,8.27-3.77,7.93-4.56,15.58-.96,11.9,3.76,21.93,8.9,28.9-3.16-5.02-1.46-23.55,3.57-28.65,3.33,4.81,3.24,22.04-.13,26.8,6.35-3,13.5-18.4,10.85-26.32.08,3.3,3.52,10.83,6.64,13.42-8.14-26.56,15.53-27.02,7.4-56.17,2.22,2.54,6.13.41,5.79-2.02-10.59-17.24-5.36-51.12-3.19-67.68,12.19-11.9,8.82-22.8,13.66-36.89,4.81-15.27,20.92-18.55,31.15-13.96,13.94-6.98,32.96.59,36.77,17.02,2.27,11.08-3.75,25.1,3.57,38.46-2.74,6.41-4.2,14.48-1.05,22.56-.73,9.44-6.91,27.05-13.52,35.95,2.57,8.67,4.5,10.87,5.37,1.73l8-1.45c-7.28,17.43-3.17,40.16,5.23,51.34-.3-5.53-.6-11.06-.89-16.6,3.97,19.19,12.61,20.99,3.57,41.11,24.68-23,2.04-29.8,9.44-46.72,1.64-.32,6.54,7.88,6.51,16.98-1.39,12.81-7.88,19.85,2.68,29.72-3.55-15.1,5.03-21.76,7.16-34.7.3-4.1-1.47-16.84-.51-22.47.08-6.01,3.33-11.56,3.8-17.61,3.86.26,7.73.53,11.59.79-5.65-8.3-4.33-19.09-3.13-29.64,0-9.32-2.86-9.56-4.12-22.1-.88-8.82.56-8.48-.29-16.63C199.26,40.98,194.27,1.61,132.38.71h.02Z"/>
      <path class="cls-3" d="m297.72,318.68c-4.78-34.42-9.66-46.09-20.02-68.67-8.66,8.9-34.77,18.61-45.91,17.88,7.14,15.2,13.55,44.68,13.1,62.59-34.49,4.01-70.01,17.57-105.63,25.31-19.67,3.66-34.12,3.62-34.24,2.77.95-1.19,2.45-2.46,3.57-4.37,0,0,2.31-3.54,3.64-7.53,11.98-45.04,6.3-36.78,12-71.34,3.89-30.53,4.57-34.61,7.22-49.86,1.37-13.46,1.7-25.04,4.64-35.31,14.43-2.39,25.78-21.06,25.82-29.58-.96.65-4.99-1-5.24-2.62,5.63-6.85,12.8-24.38,13.21-35.12-.76-9.46-.93-15.48,1.36-23.39-1.31-3.38-2.95-8.54-3.57-14.98-1.16-11.93,2.42-15.57,0-23.49-6.68-20.05-28.5-20.77-36.77-17.02-10.95-4.46-27.65-.78-31.83,15.83-3.85,14.86-.1,22.5-13.53,35.27-.25,3.82-.5,7.63-.75,11.45-1.53-2.38-5.16-.31-3.84,2.2-2.11-.03-4.02,3.34-2.3,5.49-2.56,1.87-1.58,5.12-.89,8.29,1.4,11.51,2.2,13.71,4.46,32,2.5,2.67,5,5.34,7.5,8,.29,2.17-3.11,4.51-5.46,2.76-1.86,15.18,13.88,25.4,26.56,25.38-9.44,41.43-22.11,70.49-37.42,107.19-3.26-6.86-6.52-13.73-9.79-20.59-9.7,8.01-31.25,18.3-45.3,20.7,9.64,33.44,27.75,69.07,68.03,69.66,61.82,1.36,123.77-.02,185.66.41,6.22,0,17.34-2,23.65-10.24,5.67-7.41,4.55-18.07,2.07-39.1v.03Z"/>
      <path class="cls-2" d="m91.46,95.46c6.33-7.07,24.15-10.61,26.81,2.38-7.05,5.09-23.26,1.72-26.81-2.39h0Z"/>
      <path class="cls-2" d="m163.51,95.46c-8.8-7.61-23.91-9.91-26.8,2.39,7.05,5.09,23.26,1.72,26.81-2.39h-.01Z"/>
      <path class="cls-7" d="m105.77,88.93c7.69-.11,7.69,11.97,0,11.86-7.69.11-7.69-11.97,0-11.86Z"/>
      <path class="cls-7" d="m148.77,89.29c7.21-.11,7.21,11.23,0,11.12-7.21.11-7.21-11.23,0-11.12Z"/>
      <path d="m105.77,91.99c3.57-.05,3.57,5.55,0,5.5-3.57.05-3.57-5.55,0-5.5Z"/>
      <path d="m148.78,91.91c3.57-.05,3.57,5.55,0,5.5-3.57.05-3.57-5.55,0-5.5Z"/>
      <path class="cls-1" d="m85.29,176.87c-.43,2.24-.85,4.48-1.28,6.72,5.05,4.96,19.35,11.36,26.54,11.82.23-1.59.46-3.17.69-4.76-7.31,1.02-23.61-8.47-25.95-13.78h0Z"/>
      <path class="cls-1" d="m137.93,190.18l-.43,3.42"/>
      <path class="cls-1" d="m165.3,159.31c.8,13.22-12.4,34.55-30.62,37.32.41-1.89.82-3.78,1.23-5.67,11.42-2.91,25.86-20.64,26.74-31.32.88-.11,1.77-.22,2.65-.33Z"/>
      <path class="cls-1" d="m9.28,292.77c17.11-1.91,48.06-16.87,59.54-28.07-.27,5.68,2.57,12.48-3.1,16.99-.62-1.47-1.23-2.93-1.85-4.4-10.56,7.97-32,17.67-45.57,20.3.33,1.87.66,3.73.98,5.6-6.88.74-9.75-4.59-10.01-10.42h0Z"/>
      <path class="cls-1" d="m224.41,261.91c15.73-1.47,44.51-13.27,56.54-23.04,2.76,2.17,4.87,12.01-.74,15.92-.84-1.59-1.68-3.18-2.51-4.78-8.27,8.08-33.75,18-45.54,17.62.64,1.97,1.27,3.94,1.91,5.91-4.95.66-11.75-5.05-9.67-11.64h0Z"/>
    </g>
    <g id="Outline_2" data-name="Outline 2">
      <path d="m85.02,106.65c.76-3.82.45-7.89,1.83-11.64-1.84-5.14-4.29,12.33-1.82,11.64h0Z"/>
      <path d="m196.73,234.33c-3.14-12.59,4.61-22.91,7.26-34.57.19-10.17-2.6-20.56,1-30.54,5.98-12.43-.6-25.47.35-38.37,4.47-21.71-5.06-42.88-10.77-63.49-.35-1.08-2.07-.61-1.71.47,7.51,22.29,14.84,44.88,11.34,68.57.28,8.37,3.63,16.53,2.13,24.94-2.05,7.61-4.58,15.28-3.89,23.3.66,7.06,2.54,14.28-.43,21.1-4.14,8.25-8.58,20.65-5.28,28.56h0v.03Z"/>
      <path d="m129.97.24C92.68-2.81,59.85,25.67,51.78,61.18c-2.03,13.56-11.63,25.79-8.82,39.87,4.09,14.88-1.38,30.03-4.92,44.44-.99,2.45,2.56,30.17,4.9,24.26-1.59-7.19-3.34-14.47-3.46-21.86,3.6-16.84,9.29-33.81,4.47-51.06-.76-11.21,6.61-20.7,8.37-31.52C59.73,26.9,91.63-1.03,129.99.24h-.02Z"/>
      <path d="m134.06,1.2c45.28-.32,65.56,31.15,71.47,72.29,3.02,8.92,6.07,18,5.06,27.58-1.72,12.42,6.08,23.8,3.71,36.09-1.34,5.84-1.13,11.96,1.04,17.58.59,1.83,3.41,8.63,3.96,4.83-3.49-6.04-5.13-13.04-3.88-19.95,3.34-12.53-4.16-24.1-3.39-36.6,1.99-13.3-4.5-25.23-6.57-38-3.36-14.74-7.54-30.03-17.21-41.98-12.53-15.11-35.74-25.78-54.19-21.84Z"/>
      <path d="m89.63,368.4c48.51,1.05,97.03.57,145.55.21,61.12,3.08,74.04-1.67,60.88-65.67-3.96-17.9-9.89-35.34-16.87-52.28-.44-1.07-2.21-.6-1.76.49,5.63,13.73,10.46,27.81,14.24,42.15,4.55,20.15,10.77,42.64,3.84,62.83-13.6,16.49-38.34,9.56-57.08,10.54-48.98.78-101.58,0-148.8,1.73Z"/>
      <path d="m49.74,167.18c-18.55,3.43-36.82,15.63-45.58,32.56-10.33,25.14,1.79,72.05,5.45,99.67.22,1.14,1.97.66,1.75-.48-2.26-11.62-4.35-23.29-5.86-35.03-6.7-53.58-9.3-74.6,44.24-96.71h0Z"/>
      <path d="m102.08,145.55c7.28,7.03,14.73,14.32,23.61,19.3,3.5,1.77,7.18,3.99,7.8,8.22,1.29,34.39-6.48,68.72-9.87,102.9-4.29,26.64-3.77,55.82-17.56,79.76-6.43,8.37-18.19,12.82-28.51,10.3-14.69-3.99-10.44-33.09-8.94-44.77,5.4-32.24,23.36-60.34,33.06-91.24,4.02-13.65,7.26-27.54,10.32-41.42,1.36-9.48-8.94-13.41-14.63-19.15-1.73-1.01-17.37-20.16-15.63-14.38,4.79,5.65,10.08,10.87,15.24,16.15,4.57,4.6,12.14,7.47,13.43,14.45-1.6,13.02-5.95,25.94-8.96,38.77-11.27,40.09-38.42,76.62-36.32,119.76.62,7.68,1.28,17.79,8.21,22.53,11.84,5.15,26.97.08,34.5-10.09,16.58-30.9,14.33-68.19,20.55-102.01,2.24-27.56,9.27-55.29,6.89-82.96-3.02-8.73-14.41-10.08-20.14-16.79-1.78-.74-14.42-14.13-13.03-9.3h0l-.02-.03Z"/>
      <path d="m104.19,359.49c32.4,1,62.55-11.15,93.49-18.76,21.23-5.06,42.82-8.46,64.3-12.23,1.27-.21.73-2.14-.53-1.93-30.63,5.14-61.24,10.77-90.98,19.86-15.36,4.58-30.71,9.68-46.78,11.02-6.59.72-12.98,1.23-19.51,1.45-.38.01-.38.6,0,.59h0Z"/>
      <path d="m206.97,159.56c10.89,2.12,23.58-.9,32.71,6.97,14.34,12.4,20.23,30.94,27.94,47.63,5,11.09,10.05,22.16,15.08,33.23.6,1.32,2.51.17,1.94-1.14-13.66-26.57-20.73-57.81-41.55-79.94-6.92-7.49-17.6-8.2-27.18-8.35-2.25.2-8.47-.45-8.95,1.59h.01Z"/>
      <path d="m205.72,208.33c7.8,19.55,15.54,39.27,18.77,60.22.22,1.27,2.15.73,1.93-.53-3.94-20.67-9.5-41.6-19.91-60.02-.26-.4-.97-.15-.8.34h.01Z"/>
      <path d="m216.75,233.38c1.69,15.29,8.43,30.77,4.23,46.14-4.91,17.16-1.1,35.38,2.16,52.52.25,1.14,1.98.66,1.75-.48-2.2-10.78-3.96-21.77-4.22-32.78-.99-10.08,3.37-19.39,3.73-29.31-.92-11.46-3.32-27.08-7.65-36.08h0Z"/>
      <path d="m10.04,300.06c2.48,2.24,5.54,4.16,8.99,4.11,1.13.02,1.13-1.79,0-1.76-1.75.06-3.5-.3-5.16-.75-.93.04-4.3-3.85-3.83-1.6h0Z"/>
      <path d="m169.92,121.92c-3.43,20.82-13.87,42.92-36.21,47.97-1.25.23-.72,2.16.53,1.91,16.01-4.33,28.7-17.13,32.47-33.35,1.66-5.35,2.83-10.87,3.78-16.39.06-.37-.51-.53-.57-.16h0v.02Z"/>
      <path d="m196.82,233.85c-12.04-9.91.19-24-3.32-36.19-.01-1.48-5.58-13.9-6.25-10.09,11.61,14.22,1.85,23.56,3.72,37.9.02,1.56,5.16,10.36,5.85,8.38h0Z"/>
      <path d="m55.42,235.83c-3.75-12.38,1.04-19.2,3.63-30.35.07-1.01-1.55-1.02-1.58,0,.14,5.3-3.69,9.52-3.9,14.75-.27,2.55-.12,15.94,1.84,15.6h.01Z"/>
      <path d="m58.64,234.21c8.93-6.19,13.46-17.44,11.45-28.08-.14-.86-1.5-.51-1.33.37,2.62,11.87-3.74,20.63-10.12,27.71h0Z"/>
      <path d="m175.51,209.48c-7.44-13.19-11.18-29.33-6.88-44.15,2.6-7.09,5.47-14.19,5.68-21.87,1.36-14.92-9.9-29.04-2.52-43.71.34-.9-1.1-1.29-1.45-.4-6.99,14.05,2.51,27.51,2.56,41.67.06,7.71-2.29,15.04-5.05,22.14-4.55,14.8-1.85,35.34,7.66,46.32h0Z"/>
      <path d="m175.62,209.59c-1.64-15.33-1.36-31.87,4.9-46.19,3.47-6.41,7.52-12.9,7.73-20.45-1.28-10.94-4.94-21.67-1.51-32.78,1-4.97,2.07-9.69,2.34-14.67.29-2.2-.09-22.59-2.98-17.44,5.26,21.38-6.83,41.74.88,62.98.49,12.63-10.18,21.92-11.5,34.25-1.66,10.66-2.97,25.4.13,34.3h.01Z"/>
      <path d="m178,234.47c6.28-10.28,5.05-21.67-.65-31.82-1.29-1.27-2.03-15.13-3.65-11.67,2.65,21.72,13.49,20.51,4.31,43.49h-.01Z"/>
      <path d="m177.95,234.53c23.84-19.61,3.79-29.06,10.69-50.16,6.97-11.5,4.29-24.09,3.59-36.63,1.76-16.63,5.57-33.43.62-50.02-.21-.87-1.55-.5-1.34.37,4.21,15.07,2.09,30.43-.49,45.52-1.33,9.09,1.93,17.4.79,26.35-.9,7.97-6.53,14.7-6.57,22.78-.64,6.86,2.81,12.87,3.53,19.51.19,8.6-4.94,16.4-11.25,21.85-.29.25.13.66.42.42h.01Z"/>
      <path d="m55.26,235.84c-18.25-28.95-.38-33.48-4.03-58.58-1.52-7.91.32-15.72,1.5-23.52.67-11.2-2.64-22.27-.69-33.49,3.42-18.44,13.03-35.08,12.58-54.46-.44-1.71,4.51-12.17,1.54-9.91-4.78,12.12-2.44,25.69-7.34,37.84-2.52,7.23-5.7,14.09-7.21,21.65-3.66,14.28,1.58,28.11-.56,42.3-1.21,5.38-1.79,10.92-1.22,16.43,5.52,26.71-15.02,32.92,5.44,61.74h0Z"/>
      <path d="m58.7,234.02c9.24-18.32-4.8-28.5-.49-45.05,7.98-15.64,6.04-25.7,2.87-42.07-.96-11.38.69-22.77,3.39-33.82.2-.81-1.02-1.15-1.25-.35-2.79,9.46-4.14,19.61-3.89,29.47-.26,12.06,6.69,23.77,2.05,35.67-13.34,26.59,5.37,30.28-2.68,56.16h0Z"/>
      <path d="m77.03,221.11c-9.71-24.07,15.73-28.04,7-56.37-.58-2.67-.58-5.45-.02-8.12.24-1.16-1.56-1.65-1.78-.49-1.56,8.14,3.06,15.98,1.69,24.22.31,10.13-9.26,16.45-9.78,26.21-.43,2.68.7,14.85,2.9,14.56h-.01Z"/>
      <path d="m76.9,221.03c-18.24-19.92,5.74-34.27-2.8-55.01-5.52-12.48.34-25.67,1.24-38.33.31-15.63-8.71-32.19,2.3-46.31.43-.63-.59-1.22-1.02-.6-10.48,14.01-3.86,27.92-2.38,43.07.37,15.01-7.91,30.18-.5,44.8,5.91,20.38-16.22,33.78,3.15,52.4h0v-.02Z"/>
      <path d="m11.47,299.47c20.95-1.35,40.69-11.69,56.96-24.49,1.18-.95-.5-2.64-1.67-1.67-15.2,14.04-37.61,20.28-55.28,26.15h-.01Z"/>
      <path d="m61.61,233.23c3.8,12.95,6.15,26.15,6.68,39.65,4.71,4.9-3.91-41.18-6.67-39.64h-.01Z"/>
      <path d="m64.24,278.82c1.4,6.08,4.32,11.72,6.74,17.45,4.6,2.57-1.81-7.99-2.11-9.45-.78-1.27-3.54-9.22-4.63-7.99h0Z"/>
      <path d="m18.03,298.03c7.69,28.57,23.89,62.6,55.74,68.94.98.21,1.4-1.29.42-1.51-32.99-5.37-45.79-42.12-56.15-67.42h0Z"/>
      <path d="m228.1,268.82c19.53.41,38.71-8.24,53.47-20.68.98-.84-.44-2.25-1.41-1.41-12.01,10.39-26.68,16.82-42.43,19.44-1.44.7-12.38.46-9.62,2.67v-.02Z"/>
      <path d="m232.23,269.55c4.27,15.46,9.66,30.95,10.86,47.2.79,1.62-.38,16.11,2.33,11.97-.3-16.27-2.72-32.52-7.83-48-1.27-2.51-2.72-11.28-5.38-11.17h.02Z"/>
      <path d="m162.06,159.98c2.65.41,5.34-.09,8-.32.45-.04.83-.35.83-.83-.58-1.78-3.52-.21-4.96-.36-.76.22-4.91.42-3.86,1.48v.03Z"/>
      <path d="m161.6,159.56c-2.47,13.9-12.33,26.17-25.95,30.43-1.22.4-.69,2.34.53,1.93,13.95-4.56,25.33-17.33,26.35-32.24.03-.53-.81-.65-.94-.13h.01Z"/>
      <path d="m111.33,190.37c-9.75-1.33-19.35-5.74-25.12-14.04-7.29-1.85,7.97,11.18,10.03,11.28,2.84,1.5,13.6,5.3,15.1,2.76h-.01Z"/>
      <path d="m164.83,160.11c-1.65,17.02-14.02,32.2-30.78,36.29-1.26.33-.73,2.3.54,1.96,16.51-3.75,33.33-22.3,30.25-38.25h-.01Z"/>
      <path d="m109.67,195.02c-8.75-2.53-17.62-5.5-24.31-12.01-6.83-.44,8.16,8.67,9.85,9.12,3.66,1.53,11.76,5.16,14.46,2.89h0Z"/>
      <path d="m10.74,293.17c16.58-2.04,32.2-9.34,46.14-18.32,1.38-1.13,14.86-9.26,8.45-8.76-15.25,13.65-37.17,20.63-54.58,27.07h0Z"/>
      <path d="m226.66,261.84c18.6-.78,36.6-9.29,51.53-20.09,1.13-.84.03-2.77-1.12-1.92-14.33,11.92-34.34,16.81-50.42,22.01h0Z"/>
      <path d="m98.08,153.21c-7.59-11.24-6.26-26.14-9.86-38.91-1.06-3.76,2.18-2.34,3.79-.68,4.68,9.94,6.34,21.26,9.77,31.73.25.87,1.6.5,1.35-.37-3.46-10.58-5.11-21.98-9.73-32.08-9.08-7.61-6.51,3.84-5.03,9.25,2.87,9.51,1.69,25.99,9.73,31.08h0l-.02-.02Z"/>
      <path d="m92.11,152.91c-7.45-9.69-7.03-22.41-8.96-33.97.21-2.26-3.3-13.44.33-12.53,2.31.65,2.88,3.36,3.44,5.4,3.99,3.28-.53-10.22-5.78-6.61-2.38,6.28,1.55,14.37,1.56,21.15,1.29,8.52,1.93,22.62,9.4,26.56h0Z"/>
      <path d="m88.41,153.68c-6.91-11.51-5.24-25.95-8.74-38.61-.52-1.87-.92-4.26,1.41-5,.89-.28.51-1.7-.39-1.41-6.19,2.74-.16,12.59-.46,17.8,2.08,8.66,1.3,21.85,8.18,27.23h0Z"/>
      <path d="m77.89,114.1c-1.86,2.71-.54,6.06-.36,9.08.86,6.38,1.34,12.79,1.93,19.19.33,1.47,1.52,16.03,3.42,11.95-2.73-11.21-3.27-22.73-5.15-34.08-.25-2.08-.73-4.06.53-5.93.16-.24-.22-.45-.38-.22h.01Z"/>
      <path d="m113.65,146.17c8.62,3.09,18.88,3.91,27.25-.34,1.23-.64.14-2.52-1.09-1.86-7.74,5.12-19.06,1.5-26.16,2.2h0Z"/>
      <path d="m131.45,37.07c1.79-11.33,2.5-22.83,1.87-34.29-.04-.8-1.31-.8-1.25,0,1.55,10.98-.82,24.87-.62,34.29h0Z"/>
      <path d="m134.56,129.23c-1.32-3.26-4.79-1.88-6.46.28-2.46,1.05-3.53-4.77-7.88-.91-.53.53.29,1.35.82.82,2.75-2.96,4.33,1.93,6.97,1.32,1.89-1.33,4.14-4.92,6.11-1.4.11.26.53.15.43-.12h.01Z"/>
      <path d="m124.9,108.7c.44,5.27-1.48,10.31-5.82,13.43-3.73,2.93-1.95,10.75,3.46,8.33.66-.34.08-1.34-.59-1-1.41.73-3.12.09-3.61-1.43-1.09-3.41,2-5.57,4.1-7.65,2.8-3.19,3.08-7.63,2.89-11.68-.01-.28-.45-.29-.45,0h.02Z"/>
      <path d="m129.16,108.53c-2.17,12.93,10.28,13.19,6.57,20.5-.84.92-2.33.81-3.31.19-.63-.41-1.21.6-.59,1,5.55,3.1,7.55-5.35,3.71-8.33-6.65-4.65-4.94-8.37-6.38-13.36h0Z"/>
      <path d="m163.82,95.65c-7.46-7.72-24.07-11.06-27.52,2.16-.22.71.9,1.02,1.12.31,3.75-13.62,19.42-7.36,26.39-2.46h0Z"/>
      <path d="m163.55,95.62c-7.71,5.03-18.08,5.88-26.4,1.85-.67-.32-1.26.68-.59,1,8.21,4.16,21.27,3.08,26.99-2.85h0Z"/>
      <path d="m92.07,95.88c7.08-7.18,22.97-9.98,26.24,2.3,3.41,1.85-2.08-6.94-3.46-7.21-6.58-5.27-19.49-.68-22.78,4.9h0Z"/>
      <path d="m91.8,95.92c8.08,5.59,18.42,6.92,27.36,2.62.67-.32.08-1.33-.59-1-8.44,4.8-19.88,1.81-26.77-1.62h0Z"/>
      <path class="cls-6" d="m164.55,88.96c-7.44-7.52-20.05-9.36-28.44-2.37-.96.75.4,2.12,1.35,1.35,10-7.95,18.85-3.42,27.09,1.02h0Z"/>
      <path class="cls-6" d="m91.82,89.12c7.29-6.57,18.92-8.03,26.67-1.44.95.77,2.31-.6,1.35-1.35-8.4-7-20.99-5.13-28.44,2.37-.28.27.13.67.42.42h0Z"/>
      <path d="m66.47,282.48c1.07-2.09,4.91-7.24,2.35-8.9-1.67.56-.81,3.82-1.48,5.28.1.87-3.07,4.42-.88,3.61h0Z"/>
      <path d="m224.83,269.55c-.34,3.87,13.12,6.33,9.23,2.99-4.14,1.33-8.47-4.71-9.22-3h0Z"/>
      <path d="m279.74,255.38c3.06,1.31,6.85-10.89,3.28-7.18-.12,1.46-.67,2.97-1.6,4.19-.41.91-2.51,1.95-1.68,3h0Z"/>
      <path d="m156.45,156.97c-1.11,3.17,2.96,5.49,5.7,4.38,1.58-1.11-.17-1.94-1.44-1.29-.07,0-.91.01-.99-.02-1.09-.13-2.07-.88-2.54-1.91-.2-.32-.16-1.44-.73-1.16h0Z"/>
      <path d="m84.06,165.34c-.07-.12.13.25.11.17,4.31,2.74,7.85-4.87,4.22-2.65-.25.62-.66,1.06-1.07,1.42-.86.75-2.18.7-3.14.8-.08.05-.13.15-.1.25h-.02Z"/>
      <path d="m69.31,274.33c-2.2-10.16-5.61-20.06-10.14-29.43-.28-.58-1.14-.07-.86.5,4.49,9.29,7.85,19.11,10.03,29.19.14.63,1.1.36.96-.27h.01Z"/>
      <path d="m185.98,110.34c-27.58-8.21-11.94-37.59-20.17-56.38-6.3-12.33-22.74-16.6-35-10.83-1.01.46-.13,1.95.87,1.49,11.69-5.36,27.49-1.26,33.11,10.89,3.02,6.52,2.6,14.03,1.83,21-1.89,13.35,4.16,33.72,19.34,33.84h.02Z"/>
      <path d="m186.03,110.42c-16.88-15.42-5.71-38.83-8.43-58.4-3.67-16.41-21.79-25.95-37.67-25.75-.84,0-.85,1.32,0,1.31,8.42-.05,17.01,2.39,23.93,7.24,28.41,16.44-3,58.4,22.16,75.59h0Z"/>
      <path d="m71.51,100.66c20.99-.45,26.51-23.8,28.21-40.72,3.42-13.36,17.59-22.16,30.46-15.16.87.42,1.64-.88.76-1.31-14.62-8.21-30.28,3.24-33.11,18.44-.33,17.26-8.49,35.91-26.35,38.74h.03Z"/>
      <path d="m71.6,100.63c12.6-8.17,18.89-21.9,16.93-36.75.39-17.41,10.92-35.17,29.78-36.26.86-.1.88-1.46,0-1.37-24.5,1.31-33.17,27.58-30.9,48.59-.34,10.64-9.43,19.56-15.81,25.79h0Z"/>
      <path d="m88.59,116.94c1.84-.12.99-7.11.07-5.41.24,1.32.65,2.72.38,4.05-.07.47-1.65,1.35-.46,1.36h.01Z"/>
      <path d="m217.6,217.48c6.36,16.08,8.4,33.6,6.99,50.79,3.67,4.69,1.59-19.04,1.37-21.1-1.64-9.45-3.67-22.9-8.37-29.69h.01Z"/>
      <path d="m82.38,111.57c1.84-.12.99-7.11.07-5.41.24,1.32.65,2.72.38,4.05-.07.47-1.65,1.35-.46,1.36h.01Z"/>
      <path d="m79.32,116.04c1.84-.12.99-7.11.07-5.41.24,1.32.65,2.72.38,4.05-.07.47-1.65,1.35-.46,1.36h.01Z"/>
      <path d="m77.52,118.5c1.07-.11.77-4.73-.05-3.4-.06.79.22,1.6.15,2.36-.15.36-1.06,1.13-.1,1.04h0Z"/>
      <path d="m182.24,298.97c17.71,7.35,39.57-3.96,41.51-23.57.17-1.24-1.54-1.49-1.7-.23-2.55,20.58-23.23,28.62-39.81,23.79h0Z"/>
      <path d="m66.93,279.17c.13,1.04.79,12.57,2.4,8.73-.68-1.32-.54-10.69-2.4-8.73h0Z"/>
      <path d="m123.66,151.27c1.19.79,12.48,1.05,10.08-.8-3.14,1.27-6.73,1.24-9.96.37-.28-.07-.39.35-.12.43h0Z"/>
      <path d="m146.62,304.34c-6.87,7.61-17.02,11.54-27.25,10.3-4.75,4.45,16.83.35,18.05-2,1.6-.84,10.9-7.43,9.2-8.31h0Z"/>
      <path d="m123.08,360.84c-34.76-.52-24.51,3.41,0-.01h0Z"/>
    </g>
    <g id="Schatten">
      <path class="cls-8" d="m19.29,303.19c.07-.74.14-1.49.21-2.23,12.6-2.22,33.9-11.07,45.62-19.92.32.4.64.81.96,1.21,1.34-1.94,2.6-5.73,2.74-7.8-11.75,10.24-41.56,23.22-58.33,24.71.28,1.69,6.45,5.12,8.81,4.02h-.01Z"/>
      <path class="cls-8" d="m127.51,165.15c7.8,23.2-.22,45.84-2.39,68.15-4.27,21.57-10.98,87.46-19.66,103.4-8.07,15.21-19.9,24.76-28.54,30.38,32.75-1.26,33.46-7.16,43.41-59.42.42-2.43,6.18-36.27,9.25-66.44.78-7.67.88-16.79,2.85-30.06.35-12.94,10.08-36.94-4.94-46.02h.02Z"/>
      <path class="cls-8" d="m298.74,337.75c-11.01,22.37-31.93,29.45-60.43,26.38,9.23-.27-77.38-.57-120.85,1.53-12.47,1.14-19.52-1.26-26.81,2.44,53.74,1.17,103.67-.74,157.96.29,25.32,1.81,55.35-1.28,50.14-30.64h0Z"/>
      <path class="cls-8" d="m252.61,267.85c12.5-3.88,21.36-10.32,26.55-14.81.27.64.54,1.29.81,1.93,2.53-.98,4.36-7.91,3.33-9.27-11.99,11.85-44.06,23.22-57.84,22.57.05,1.57,5.8,5.51,8.3,4.44.04-.55.08-1.09.13-1.64,5.09-.21,11.55-1.01,18.72-3.23h0Z"/>
      <path class="cls-8" d="m211.76,223.94c16.05,43.57-6.74,71.2-.44,112.74,4.29-.81,8.59-1.62,12.88-2.44-10.37-36.72,9-74.08-12.44-110.3Z"/>
      <path class="cls-8" d="m168.83,117.5c-3.43,19.56-8.33,42.38-34.59,52.7,5.82-1.5,14.86-5.84,19.67-9.47.08,4.29,6.91,11.06,13.11,9.02,5.06-17.65,11.45-29.58,1.83-52.25h-.02Z"/>
      <path class="cls-8" d="m83.11,156.38l11.21,11.07c-13.06,12.25-10.53-1.54-11.21-11.07Z"/>
      <path class="cls-8" d="m209.55,159.07c-8.46,16.89-1.91,26.67-3.75,41.95-4.26,11.15-9.48,22.26-7.79,33.83-5.65-9.15,2.64-24.44,5.52-33.75,1.72-15.38-4.44-24.58,4.15-41.86.62-.06,1.24-.12,1.86-.19v.02Z"/>
      <path class="cls-8" d="m187.42,187.36c1.24,9.8,4.15,14.6,4.85,22.85.7,5.84-3.61,19.75-11.69,21.5,18.62-18.67,1.12-26.98,6.85-44.35h0Z"/>
      <path class="cls-8" d="m174.78,206c-.65-2.99-.86-7.9-.43-10.98,1.17,4.42,3.11,11.58,4.26,15.95-1.54-.4-3.89-3.77-3.83-4.98h0Z"/>
      <path class="cls-8" d="m68.32,289.66c-1.6-9.64.27-15.02.38-27.24,3.37,13.08-1.24,21.02,7.49,30.56-.84,1.41-1.68,2.82-2.51,4.24-1.59-1.26-4.16-3.72-5.36-7.56h0Z"/>
    </g>
  </g>
</svg>