<?xml version="1.0" encoding="UTF-8"?>
<svg xmlns="http://www.w3.org/2000/svg" viewBox="0 0 300.45 369.12">
  <defs>
    <style>
      .cls-1 {
        mix-blend-mode: darken;
        opacity: .33;
      }

      .cls-1, .cls-2, .cls-3, .cls-4, .cls-5, .cls-6, .cls-7, .cls-8 {
        stroke-width: 0px;
      }

      .cls-2 {
        fill: #fbce4f;
      }

      .cls-3 {
        fill: #ffd8be;
      }

      .cls-9 {
        isolation: isolate;
      }

      .cls-5 {
        fill: #f7931e;
      }

      .cls-6 {
        fill: #fff;
      }

      .cls-10 {
        fill: #6794a6;
        stroke: #000;
        stroke-miterlimit: 10;
        stroke-width: .5px;
      }

      .cls-7 {
        fill: #d8bee0;
      }

      .cls-8 {
        fill: #603813;
      }
    </style>
  </defs>
  <g class="cls-9">
    <g id="Ebene_2" data-name="Ebene 2">
      <g id="Farbe">
        <path class="cls-7" d="m134.55,197.32c-.43,2.84-1.07,7.18-1.76,12.49-2.91,22.07-2.93,32.13-4.84,48.95-2.45,21.51-2.81,15.88-5.89,41.18-2.32,19.08-2.9,28.55-7.91,42.13-2.83,7.66-5.99,13.6-8.17,17.36,16.27-.33,28.97-2.56,37.49-4.49,4.41-1,3-.86,26.42-7.31,20.28-5.59,26.93-7.23,30.28-8.05,10.24-2.49,18.63-4.25,24.03-5.33-1.32-12.25-2.46-21.95-3.59-30.21-.52-3.77-1.23-8.69-.34-15.13.66-4.76,1.56-5.78,2.4-10.47,1.18-6.57.59-11.56,0-18.09-.8-8.94-2.78-16.12-4.36-20.85,1.32,2.67,2.66,5.78,3.84,9.3,1.61,4.82,2.52,9.24,3.05,13,7.41-.96,16.93-2.91,27.44-7.01,12.33-4.81,21.77-10.92,28.31-15.91-6.45-12.33-11.14-22.63-14.24-29.77-5.84-13.46-9.9-24.66-19.71-36.74-3.63-4.47-7.73-8.67-13.94-11.02-4.32-1.63-7.29-1.48-15.6-1.64-16.67-.32-13.41-1.13-25.17-1.09-7.3.02-16.51.36-27.16,1.49-.2,3.69-1.21,13.2-8.16,22.38-8.12,10.72-19.05,13.97-22.41,14.84Z"/>
        <path class="cls-7" d="m37.11,171.87c-9.91,5.19-23.15,12.13-30.96,26.2-6.93,12.48-5.84,26.36-3.32,53.62,1.6,17.34,4.23,31.6,6.38,41.55,10.71-2.18,24.8-6.35,39.77-14.73,7.67-4.29,14.14-8.89,19.47-13.23.32,1.73.58,3.97.48,6.59-.11,2.66-.57,4.91-1.05,6.62.28,3.2.55,6.4.83,9.6.81,1.34,1.63,2.83,2.43,4.47.84,1.72,1.53,3.37,2.1,4.89,3.28-8.44,6.18-15.18,8.18-19.66,5.37-12.07,7.65-15.67,11.76-26.16,1.36-3.48,2.79-7.66,5.67-16.03,5.03-14.64,6.68-20.59,7.4-23.47.07-.3.08-.34.24-.99,1.69-6.93,3.11-12.2,4.09-15.71-5.59-.9-14.07-3-22.45-8.69-13.43-9.11-14.53-19.28-25.03-22.12-8-2.16-15.15,1.58-25.97,7.25Z"/>
        <path class="cls-2" d="m132.4.72c-7.05-.46-10.58-.71-13.69-.47-10.34.81-18.17,4.29-22.82,6.41-2.24,1.02-6.05,2.77-10.6,5.81-1.88,1.26-10.6,7.21-18.68,18.37-6.72,9.28-9.82,17.77-10.62,20.04-1.45,4.15-3.14,10.18-5.01,16.88-2.02,7.22-2.21,7.98-3.23,10.71-2.35,6.31-4,8.12-4.51,14.68-.73,9.44,2.41,9.68,1.8,22.89-.37,7.98-1.82,14.49-2.23,16.24-1.84,7.92-3.41,9.4-4.26,14.21-.86,4.91-.98,12.31,3.09,22.23,2.72-.41,5.44-.82,8.17-1.24.23,1.95.52,4.7.74,8.01.52,7.49.78,11.24.26,15.45-1.03,8.27-3.77,7.93-4.56,15.58-.65,6.35.75,11.41,1.62,14.42,1.9,6.59,4.98,11.45,7.28,14.48-.99-2.93-2.57-8.93-1.28-16.33.99-5.69,3.27-9.89,4.85-12.32,1.12,2.66,2.71,7.36,2.68,13.4-.03,6.06-1.66,10.76-2.81,13.4,2.01-1.45,7.1-5.53,9.7-12.89,2.07-5.85,1.56-10.95,1.15-13.43.29,2.08,1.01,5.23,2.94,8.57,1.21,2.1,2.56,3.7,3.7,4.85-.68-2.3-1.39-5.48-1.53-9.32-.13-3.35-.24-6.19.85-9.55,1.68-5.19,4.51-6.34,7.87-14.87.21-.53.32-.8.44-1.17,2.14-6.1,1.4-11.53.66-16.54-.17-1.14-.44-2.77-.89-4.72,1.39,1.33,3.35,1.5,4.58.58,1.16-.87,1.21-2.38,1.21-2.6-1.19-1.72-2.38-3.43-3.57-5.15-.92-5.39-1.65-11.18-2.09-17.34-1.24-17.33.21-32.66,2.47-45.19,4.71-5.03,7.35-9.96,8.89-14.25,3.29-9.2.75-13.47,4.77-22.64,1.69-3.86,4.14-9.46,9.87-12.94,8.89-5.4,19.24-1.78,21.28-1.02,1.69-.75,12.87-5.47,23.66.17,9.78,5.11,12.7,15.32,13.11,16.85,2.58,9.6-2.16,14.43.17,27.4.88,4.89,2.37,8.72,3.4,11.06-.71,1.63-1.55,3.89-2.12,6.66-.37,1.81-.97,4.82-.61,8.75.17,1.79.58,4.29,1.68,7.15-.81,6.17-2.54,14.21-6.39,22.98-2.24,5.1-4.75,9.42-7.13,12.97,1.52,5.17,2.75,7.71,3.67,7.6.78-.09,1.35-2.04,1.7-5.87l8-1.45c-.94,2.52-2.04,5.95-2.81,10.11-1.77,9.51-.79,16.98-.51,18.89,1.49,10.22,5.62,17.87,8.55,22.34-.3-5.53-.6-11.06-.89-16.6.42,2.17,1.17,5.56,2.55,9.57,2.92,8.48,5.29,10.08,5.23,15.32-.03,3.05-.88,5.97-2.04,9.96-.76,2.62-1.56,4.75-2.17,6.26,3.55-2.99,7.47-7.33,9.98-13.29,1.08-2.54,2.12-5.09,2.1-8.52-.03-4.71-2.03-6.19-3.28-11.38-1.5-6.25-.78-13.26.64-13.53,1.64-.32,6.54,7.88,6.51,16.98-.03,8.79-4.64,12.16-3.19,19.53.91,4.62,3.65,8.02,5.87,10.19-1.56-7.67-.55-13.01.77-16.57.8-2.16,1.61-3.41,3.45-8.3,1.71-4.55,2.57-6.88,2.94-9.83.35-2.77-.12-2.75-.51-9.83-.27-4.98-.44-8.27,0-12.64.28-2.82.49-4.84,1.28-7.53.57-1.95,1.31-3.38,1.91-6.13.36-1.65.52-3.04.61-3.95,3.86.26,7.73.53,11.59.79-1.43-2.54-3.33-6.57-4.15-11.77-1.18-7.43,1.02-9.68,1.02-17.87,0-9.32-2.86-9.56-4.12-22.1-.88-8.82.56-8.48-.29-16.63-.63-6.07-4.22-17.69-5.84-23.36-3.15-11.05-2.52-12.53-5.91-22.4-1.3-3.8-2.16-6.28-3.64-9.46-1.63-3.49-5.63-11.83-13.44-19.2-11.23-10.59-24.28-13.42-29.59-14.53-4.95-1.03-10.06-1.36-20.27-2.03Z"/>
        <path class="cls-3" d="m297.72,318.68c-2.17-18.42-5.89-31.53-6.89-34.96-4.07-13.97-8.99-25.34-13.13-33.71-4.4,3.63-10.84,8.14-19.36,11.75-10.62,4.5-20.18,5.79-26.55,6.13,3.8,8.98,7.72,20.45,10.28,34.09,2,10.67,2.72,20.32,2.82,28.5-14.65,1.99-26.43,4.49-34.49,6.41-12.95,3.08-17.48,4.93-45.1,12.43-17.64,4.79-21.99,5.71-26.04,6.47-19.67,3.66-34.12,3.62-34.24,2.77,0-.06.02-.11.95-1.04.32-.31.71-.73,1.17-1.31.27-.34.81-1.04,1.45-2.02,0,0,2.31-3.54,3.64-7.53,6.92-20.8,9.06-48,9.06-48,0-2.22,1.14-9.25,2.94-23.34,3.31-25.93,4.7-35.76,6.33-44.63.22-1.22.54-2.87.89-5.23,1.33-8.94.8-13.68,1.67-19.75.96-6.69,2.14-12.1,2.97-15.56,3.3-.89,8.14-2.69,12.89-6.53,10.15-8.19,12.39-19.66,12.93-23.05-.4.07-1.93.3-3.44-.63-1.07-.66-1.59-1.57-1.8-1.99,3.44-4.83,7.63-11.92,10.44-21.18,1.57-5.17,2.37-9.92,2.77-13.94-.6-5.46-.54-9.98-.34-13.28.1-1.6.16-3.18.48-5.09.35-2.1.84-3.82,1.22-5.02-1.31-3.38-2.95-8.54-3.57-14.98-1.16-11.93,2.42-15.57,0-23.49-3.23-10.58-13.14-15.62-14.13-16.11-10.65-5.23-20.82-1.6-22.64-.91-1.92-.65-13.38-4.38-22.47,1.87-5.75,3.96-7.99,10.16-9.36,13.96-2.91,8.05-.9,11.27-3.06,18.72-1.24,4.29-3.93,10.23-10.47,16.55-.25,3.82-.5,7.63-.75,11.45-.71-1.09-2.17-1.37-3.16-.69-.89.61-1.21,1.86-.68,2.89-.3.04-1.51.24-2.3,1.28-.87,1.14-.88,2.83,0,4.21-.25.18-.59.47-.89.89-1.42,1.96-.58,4.63,0,7.4.52,2.47.48,5.04.94,7.53.78,4.2,1.88,11.46,3.52,24.47,2.5,2.67,5,5.34,7.5,8,0,.28-.08,1.61-1.12,2.53-1.11.98-2.87,1.09-4.34.23.34,3.57.68,7.15,1.02,10.72,1.5,2.4,4.5,6.48,9.68,9.79,6.55,4.18,12.93,4.78,15.86,4.87-1.15,4.96-2.78,11.62-4.94,19.43-5.28,19.1-10.54,33.55-12.77,39.49-1.73,4.63-4.73,11.94-10.72,26.55-3.73,9.1-6.85,16.6-8.99,21.72-3.26-6.86-6.52-13.73-9.79-20.59-6.37,4.78-15.06,10.29-26.07,14.77-7.02,2.85-13.56,4.71-19.23,5.93,1.89,7.04,5.2,17.17,11.1,28.53,6.02,11.58,10.16,19.72,19.38,27.34,9.29,7.68,18.33,10.42,24.31,12.24.79.24,6.09.53,13.24,1.55,1.43.2,2.58.38,3.29.49,60.79-.03,121.58-.05,182.37-.08,6.22,0,17.34-2,23.65-10.24,5.67-7.41,4.55-18.07,2.07-39.1Z"/>
        <path class="cls-6" d="m91.46,95.46c1.8-1.71,4.95-4.2,9.51-5.49,3.08-.87,7.45-2.11,11.6.21,3.97,2.22,5.33,6.35,5.7,7.66-2.16,1.09-5.69,2.5-10.21,2.72-8.44.41-14.56-3.63-16.6-5.11Z"/>
        <path class="cls-6" d="m163.51,95.46c-3.82-3.25-7.51-4.61-9.67-5.22-3.51-.99-7.56-2.14-11.43-.05-3.92,2.11-5.3,6.25-5.7,7.66,2.16,1.09,5.69,2.5,10.21,2.72,8.44.41,14.56-3.63,16.6-5.11Z"/>
        <circle class="cls-10" cx="105.77" cy="94.86" r="5.93"/>
        <circle class="cls-10" cx="148.77" cy="94.85" r="5.56"/>
        <circle class="cls-4" cx="105.77" cy="94.74" r="2.75"/>
        <circle class="cls-4" cx="148.78" cy="94.66" r="2.75"/>
        <path class="cls-5" d="m85.29,176.87c-.43,2.24-.85,4.48-1.28,6.72,2.9,2.39,7.12,5.37,12.71,7.83,5.36,2.35,10.21,3.45,13.83,3.99.23-1.59.46-3.17.69-4.76-2.98-.16-7.54-.79-12.55-3.06-7.11-3.23-11.39-8.08-13.4-10.72Z"/>
        <path class="cls-5" d="m137.93,190.18l-.43,3.42"/>
        <path class="cls-5" d="m165.3,159.31c-.12,3.21-1.01,16.67-11.87,27.23-7.07,6.88-14.98,9.24-18.75,10.09.41-1.89.82-3.78,1.23-5.67,3.66-1.43,10.43-4.64,16.53-11.41,6.99-7.76,9.36-16.01,10.21-19.91.88-.11,1.76-.22,2.64-.33Z"/>
        <path class="cls-5" d="m9.28,292.77c7.99-1.47,18.11-4.12,29.16-9.05,13.32-5.95,23.41-13.17,30.38-19.02.13,2.89.26,5.79.38,8.68.1.95.24,3.52-1.34,6-.69,1.08-1.5,1.83-2.14,2.31-.62-1.47-1.23-2.93-1.85-4.4-6.08,4.24-13.93,8.95-23.52,13.07-8.12,3.48-15.64,5.74-22.05,7.23.33,1.87.66,3.73.98,5.6-.88.09-2.59.14-4.52-.63-2.42-.97-3.77-2.66-4.29-3.39-.4-2.13-.8-4.26-1.2-6.4Z"/>
        <path class="cls-5" d="m224.41,261.91c7.9-1.22,17.92-3.51,28.95-7.93,11.65-4.67,20.86-10.3,27.59-15.11.41.49,4.11,5.03,2.63,10.56-.75,2.79-2.47,4.56-3.37,5.36-.84-1.59-1.68-3.18-2.51-4.78-4.8,3.78-12.09,8.67-21.87,12.39-9.36,3.56-17.71,4.8-23.67,5.23.64,1.97,1.27,3.94,1.91,5.91-.23.01-5.71.19-8.55-4.25-2.1-3.28-1.28-6.77-1.12-7.39Z"/>
      </g>
      <g id="Outline_2" data-name="Outline 2">
        <path class="cls-4" d="m85.02,106.65c.38-.85.32-1.89.38-2.81.07-1.11.15-2.23.28-3.33.22-1.86.63-3.7,1.17-5.5.28-.94-1.19-1.34-1.47-.4-.56,1.86-.95,3.76-1.18,5.69-.13,1.11-.21,2.21-.17,3.32.03.97.01,2.19.55,3.03.09.15.36.19.45,0h0Z"/>
        <path class="cls-4" d="m196.73,234.33c-.95-6.53-.66-13.58,1.82-19.76.96-2.39,2.26-4.62,3.25-7s1.83-5.12,2.19-7.81c.55-4.1-.41-8.08-.78-12.15-.57-6.1.08-12.51,1.78-18.39.55-1.9,1.32-3.74,1.83-5.66.65-2.45.84-5,.84-7.53.02-5.19-1.43-10.14-2.01-15.26-.37-3.28-.57-6.63-.31-9.92.17-2.13.63-4.22.92-6.34.66-4.88.45-9.87-.29-14.72-.99-6.44-2.77-12.75-4.49-19.02-2.15-7.85-4.4-15.67-6.91-23.41-.35-1.08-2.07-.61-1.71.47,2.31,6.84,4.41,13.75,6.37,20.7,1.71,6.03,3.47,12.07,4.72,18.22,1,4.89,1.54,9.87,1.31,14.86-.11,2.26-.5,4.48-.8,6.72-.37,2.68-.4,5.37-.26,8.07.17,3.1.55,6.18,1.13,9.23.46,2.43,1,4.84,1.21,7.31.24,2.78.22,5.64-.21,8.4-.31,1.95-.95,3.78-1.56,5.65-1.85,5.64-2.6,11.73-2.33,17.65.19,4.2,1.34,8.34,1.28,12.55-.04,2.92-.73,5.8-1.71,8.55s-2.5,5.37-3.66,8.1c-2.72,6.4-3.04,13.76-2.05,20.58.04.28.47.16.43-.12h0Z"/>
        <path class="cls-4" d="m129.97.24c-15.64-.76-31.97,3.08-45.01,11.88-3.37,2.27-6.48,4.98-9.41,7.77-5.97,5.71-11.28,12.24-15.27,19.49-3.74,6.8-6.33,14.36-8.5,21.8-.9,3.1-1.46,6.28-2.38,9.38-1.18,3.98-2.65,7.84-4.24,11.68-2.47,6-3.44,12.38-2.2,18.81.62,3.23,1.45,6.34,1.54,9.65.12,4.72-.65,9.44-1.47,14.07-.78,4.38-1.7,8.73-2.9,13.01-.71,2.53-1.71,5.1-2.09,7.71-.3,2.01-.19,4.07-.02,6.08.31,3.64.94,7.25,1.65,10.83.51,2.61,1.08,5.2,1.68,7.79.24,1.04,1.83.6,1.59-.44-1.07-4.61-2.06-9.25-2.76-13.93-.39-2.62-.72-5.28-.7-7.93.01-1.5.26-2.85.67-4.28,1.14-4.06,2.31-8.12,3.18-12.25.93-4.39,1.71-8.82,2.25-13.27.49-4.03.64-8.09-.04-12.11-.52-3.07-1.44-6.03-1.59-9.15-.16-3.37.17-6.85,1.15-10.09.86-2.86,2.18-5.57,3.25-8.36,1.63-4.26,2.96-8.62,3.97-13.07,1.44-6.37,3.64-12.66,6.08-18.71,5.22-12.95,14.77-24.55,25.95-32.87,5.89-4.39,12.75-7.45,19.7-9.74s14.97-3.43,22.61-3.39c1.11,0,2.22.04,3.33.09.29.01.29-.43,0-.45h0Z"/>
        <path class="cls-4" d="m134.06,1.2c2.31-.12,4.57.08,6.87.24,3.34.23,6.67.67,9.94,1.37,7.19,1.54,14.01,4.11,20.34,7.88,4.78,2.86,9.22,6.32,13.09,10.34,5.93,6.15,10.08,13.47,13.01,21.47,2.31,6.31,4.35,12.75,5.86,19.3.89,3.87,1.37,7.84,2.36,11.69.72,2.82,1.78,5.51,2.72,8.26,2.1,6.18,2.75,12.82,2.34,19.32s.4,13.03,2.21,19.25c.65,2.23,1.42,4.44,1.73,6.75.45,3.32.29,6.79-.23,10.09-.42,2.65-1,5.22-.89,7.92.13,3.28.81,6.58,1.93,9.66.7,1.95,1.59,3.81,2.62,5.61.49.86,1.83.08,1.34-.78-3.49-6.04-5.13-13.04-3.88-19.95,1.04-5.75,1.3-11.52-.37-17.17-1.87-6.31-3.29-12.8-3.02-19.43.11-2.73.34-5.41.18-8.14-.22-3.74-.7-7.51-1.7-11.12-.71-2.56-1.73-5.02-2.56-7.55-1.19-3.67-1.75-7.43-2.49-11.19-1.33-6.77-3.31-13.37-5.55-19.89-2.74-7.99-6.23-15.56-11.66-22.09-4.01-4.82-8.8-8.98-14.07-12.37-10.84-6.96-24.11-11.22-37.07-10.11-1,.09-2.01.14-3.01.21-.28.02-.29.46,0,.45h0Z"/>
        <path class="cls-4" d="m89.63,368.4c12.99-.11,25.94.52,38.92.64,14.12.13,28.25.05,42.37,0,13.03-.05,26.07-.18,39.1-.29,8.39-.07,16.77-.16,25.16-.14,6.89.02,13.76.35,20.64.42,6.42.07,12.89.04,19.29-.55,3.02-.28,5.93-.75,8.77-1.84,4.26-1.64,8.88-4.14,12-7.57,1.27-1.4,2.03-3.23,2.6-5.01,1.99-6.19,2.09-13.05,1.89-19.48-.33-10.65-2.02-21.26-4.31-31.64-3.25-14.75-7.88-29.18-13.28-43.28-1.16-3.02-2.36-6.02-3.59-9-.44-1.07-2.21-.6-1.76.49,5.63,13.73,10.46,27.81,14.24,42.15,2.98,11.29,5.32,22.8,6.31,34.45.63,7.34.9,14.97-.52,22.24-.41,2.12-.97,4.3-1.95,6.14-1.16,2.18-3.42,3.78-5.63,5.23-3.38,2.22-7.16,3.99-11.16,4.7-5.21.92-10.62.93-15.89,1-8.14.11-16.27-.32-24.4-.39-7.31-.06-14.62.02-21.92.09-12.81.14-25.62.29-38.43.42s-25.73.28-38.59.38c-6.68.05-13.38.3-20.06.2-7.08-.1-14.15-.09-21.23-.05-2.85.02-5.7.05-8.55.09-.38,0-.38.6,0,.59h0Z"/>
        <path class="cls-4" d="m49.74,167.18c-2.02.31-3.97.51-5.93,1.14-2.32.76-4.61,1.63-6.85,2.6-4.88,2.11-9.42,4.77-13.78,7.8-7.87,5.47-14.9,12.24-19.02,21.02C-.7,210.11-.32,221.36.49,232.51c.67,9.16,1.77,18.31,2.94,27.42,1.7,13.22,3.68,26.39,6.18,39.48.22,1.14,1.97.66,1.75-.48-2.26-11.62-4.35-23.29-5.86-35.03-1.19-9.19-1.99-18.39-2.73-27.62-.81-10.14-1.87-20.66,1.21-30.54s9.97-17.74,18.14-23.78c4.27-3.16,8.77-6.03,13.54-8.38,2.59-1.27,5.25-2.39,7.97-3.35,2.13-.75,4.16-1.7,6.28-2.44.39-.14.23-.66-.17-.6h0Z"/>
        <path class="cls-4" d="m102.08,145.55c3.72,3.85,7.73,7.38,11.82,10.83,3.68,3.1,7.47,6.29,11.79,8.47,3.5,1.77,7.18,3.99,7.8,8.22.74,4.98.56,10.01.35,15.02-.33,7.88-1.48,15.7-2.38,23.53-1.35,11.72-2.68,23.45-4.08,35.17-1.17,9.74-2.48,19.46-3.76,29.18-2.07,15.75-3.6,31.64-6.54,47.27-1.49,7.91-3.32,15.85-6.28,23.35-1.26,3.19-2.76,6.33-4.74,9.14-2.32,3.3-5.55,5.64-9.1,7.5-4.43,2.31-9.09,3.65-14.11,3.53-1.81-.04-3.54-.3-5.3-.73-1.37-.33-3.01-.69-4.11-1.53-1.44-1.1-2.43-2.95-3.17-4.6-1.23-2.74-1.96-5.73-2.46-8.68-1.68-9.87-.81-20.15.8-29.96,1.77-10.77,5.01-21.23,8.93-31.4,7.74-20.09,17.58-39.28,24.13-59.84,1.82-5.71,3.25-11.5,4.65-17.32,1.23-5.13,2.48-10.26,3.73-15.38.7-2.88,1.49-5.78,1.94-8.72.63-4.21-1.22-7.96-4.4-10.73s-6.99-5.39-10.23-8.42c-1.36-1.27-2.53-2.65-3.74-4.05s-2.54-2.54-3.86-3.78c-2.49-2.35-4.71-5.06-6.97-7.61-.64-.72-1.7.34-1.06,1.06,2.3,2.6,4.53,5.39,7.08,7.76,2.88,2.67,5.27,5.75,8.16,8.39,3.2,2.93,6.88,5.3,10.03,8.27,1.75,1.65,3.03,3.78,3.4,6.18.2,1.26-.17,3.07-.47,4.49-.84,3.91-1.88,7.79-2.84,11.67-1.86,7.53-3.52,15.14-5.65,22.61-5.56,19.5-14.41,37.71-22.21,56.36-8.34,19.92-15.25,41.52-14.11,63.4.33,6.33,1.22,13.42,4.63,18.93.89,1.43,2.03,2.86,3.58,3.6,3.82,1.83,8.58,2.26,12.75,1.92,4.71-.38,9.32-2.16,13.38-4.53,3.34-1.95,6.17-4.31,8.37-7.48,4.24-6.09,6.55-13.55,8.41-20.65,4.13-15.77,5.72-32.08,7.8-48.2,1.42-11.06,2.96-22.1,4.34-33.16,1.08-8.63,2.08-17.27,3.07-25.91,1.3-11.25,2.73-22.5,3.89-33.77.29-2.86.42-5.74.51-8.62.16-4.84.44-9.88-.58-14.66-.83-3.9-4.6-6.65-7.98-8.26-4.46-2.13-8.38-5.39-12.16-8.53-4.06-3.37-8.1-6.76-11.97-10.36-.71-.66-1.73.36-1.06,1.06h0Z"/>
        <path class="cls-4" d="m104.19,359.49c11.87-.31,23.92-.93,35.61-3.16,9.4-1.79,18.63-4.73,27.78-7.47,9.95-2.98,20.02-5.62,30.1-8.13,8.7-2.16,17.49-3.86,26.3-5.5,12.65-2.36,25.32-4.59,38-6.73,1.27-.21.73-2.14-.53-1.93-11.58,1.96-23.14,4.04-34.69,6.22-8.77,1.65-17.52,3.32-26.18,5.49-10.08,2.53-20.14,5.24-30.11,8.15-9.03,2.63-18.01,5.55-27.15,7.79-6.45,1.58-13.04,2.51-19.63,3.23s-12.98,1.23-19.51,1.45c-.38.01-.38.6,0,.59h0Z"/>
        <path class="cls-4" d="m206.97,159.56c2.56.73,5.16.6,7.8.75,2.26.13,4.51.22,6.76.42,3.74.32,7.54.69,11.15,1.8,2.46.76,4.85,2.17,7,4,3.77,3.22,7,7.13,9.86,11.16,3.19,4.49,6.07,9.31,8.29,14.36,3.24,7.38,6.48,14.76,9.79,22.11,5,11.09,10.05,22.16,15.08,33.23.6,1.32,2.51.17,1.94-1.14-7.91-18.11-16.29-36.01-24.1-54.16-2.18-5.06-4.89-9.88-8.01-14.43-2.78-4.06-5.89-7.93-9.44-11.35-2.47-2.38-5.27-4.5-8.48-5.76-3.38-1.32-7.1-1.79-10.68-2.16-2.66-.28-5.35-.43-8.02-.43-3,0-6.13-.07-8.95,1.02-.26.1-.3.49,0,.57h0Z"/>
        <path class="cls-4" d="m205.72,208.33c2.58,7.63,6.11,14.91,8.81,22.5,2.93,8.22,5.41,16.59,7.39,25.09.98,4.18,1.83,8.4,2.57,12.63.22,1.27,2.15.73,1.93-.53-2.89-16.52-7.55-32.72-14-48.21-1.7-4.08-3.5-8.09-5.91-11.81-.26-.4-.97-.15-.8.34h0Z"/>
        <path class="cls-4" d="m216.75,233.38c.59,3.14,1.05,6.3,1.59,9.45.7,4.02,1.53,8.01,2.27,12.03s1.69,8.17,1.82,12.33-.37,8.33-1.45,12.33c-.69,2.55-1.39,5.03-1.74,7.65-.43,3.21-.58,6.45-.56,9.68.04,6.53.7,13.04,1.63,19.5.76,5.26,1.71,10.49,2.83,15.69.25,1.14,1.98.66,1.75-.48-2.2-10.78-3.96-21.77-4.22-32.78-.14-6.07.26-12.04,1.98-17.88,1.09-3.7,1.67-7.58,1.75-11.43s-.59-7.77-1.32-11.64c-.88-4.65-1.79-9.3-2.86-13.91-.84-3.6-1.93-7.12-2.9-10.69-.1-.37-.64-.21-.57.16h0Z"/>
        <path class="cls-4" d="m10.04,300.06c1.03,1.03,2.2,1.78,3.47,2.49.2.11.4.24.6.35.22.12.39.28.61.4.44.24.99.37,1.47.49.93.24,1.88.36,2.84.38,1.13.02,1.13-1.79,0-1.76-.81.02-1.63-.01-2.42-.14-.48-.08-.95-.24-1.43-.31s-.88-.11-1.31-.3c-1.19-.5-2.28-1.34-3.2-2.23-.41-.4-1.04.22-.63.63h0Z"/>
        <path class="cls-4" d="m169.92,121.92c-1.49,8.37-4.17,16.54-7.7,24.27-1.45,3.18-3.03,6.4-5.21,9.15-2.9,3.66-6.63,6.48-10.65,8.81s-8.11,4.9-12.65,5.74c-1.25.23-.72,2.16.53,1.91,4.22-.82,7.86-3.09,11.55-5.19,4.08-2.32,7.96-5.02,11.08-8.55,4.82-5.43,7.72-12.74,9.84-19.61,1.66-5.35,2.83-10.87,3.78-16.39.06-.37-.51-.53-.57-.16h0Z"/>
        <path class="cls-4" d="m196.82,233.85c-2.41-2.38-4.35-5.26-5.23-8.55s-.46-6.62.41-9.88c.82-3.08,1.8-6.11,2.13-9.3.29-2.83.07-5.7-.63-8.46-.99-3.88-2.91-7.44-5.24-10.68-.44-.61-1.46-.02-1.01.59,4.07,5.53,6.63,11.98,5.87,18.93-.7,6.44-4.02,12.41-2.15,18.97.97,3.39,2.92,6.35,5.43,8.8.27.27.69-.15.42-.42h0Z"/>
        <path class="cls-4" d="m55.42,235.83c-1.23-5.35-1.66-10.83-.83-16.27.4-2.64,1.59-4.72,2.69-7.08,1.03-2.21,1.59-4.58,1.77-7,.07-1.01-1.55-1.02-1.58,0-.08,2.68-.72,5.24-1.91,7.65-1.12,2.28-1.79,4.57-1.99,7.1-.42,5.29.05,10.6,1.27,15.76.09.37.66.21.57-.16h0Z"/>
        <path class="cls-4" d="m58.64,234.21c3.71-2.71,7-6.34,9.04-10.46,2.72-5.49,3.4-11.62,2.41-17.62-.14-.86-1.5-.51-1.33.37,2.06,10.09-2.2,21.06-10.42,27.2-.3.23-.01.74.3.51h0Z"/>
        <path class="cls-4" d="m175.51,209.48c-2.32-3.91-4.1-8.28-5.58-12.58-1.04-3.01-1.83-6.1-2.31-9.25-1.15-7.55-1.24-14.95,1.01-22.32.98-3.2,2.41-6.24,3.42-9.43,1.27-4.03,2-8.22,2.26-12.44.21-3.38.1-6.77-.46-10.12s-1.62-6.44-2.66-9.61c-1.14-3.49-1.95-7.02-1.99-10.71-.05-4.56.96-9.02,2.59-13.27.34-.9-1.1-1.29-1.45-.4-2.65,6.94-3.46,14.37-1.55,21.61.83,3.16,2.07,6.2,2.89,9.36.9,3.5,1.28,7.09,1.22,10.7-.07,4.3-.64,8.6-1.78,12.74-.89,3.21-2.2,6.25-3.27,9.4-2.54,7.45-2.56,15.5-1.5,23.22.45,3.31,1.1,6.59,2.09,9.79,1.51,4.93,3.89,9.23,6.69,13.53.16.24.53.02.38-.22h0Z"/>
        <path class="cls-4" d="m175.62,209.59c-1.31-10.24-1.11-20.97.53-31.17.83-5.16,2.09-10.3,4.37-15.02,1.5-3.11,3.45-5.99,4.87-9.15,1.59-3.53,2.65-7.42,2.86-11.3.15-2.76-.39-5.38-1.16-8.02-.93-3.17-1.65-6.31-1.79-9.62-.22-5.08.44-10.17,1.44-15.14s2.07-9.69,2.34-14.67c.33-5.98-.2-12.02-1.35-17.89-.21-1.06-1.84-.61-1.63.45,1.08,5.34,1.64,10.79,1.51,16.24-.11,4.65-.93,9.17-1.83,13.72-1.64,8.32-2.79,16.97-.51,25.27.71,2.56,1.59,5.07,1.71,7.75.16,3.82-.78,7.76-2.17,11.3-1.28,3.25-3.22,6.17-4.81,9.27-2.21,4.31-3.6,8.93-4.52,13.68-2.18,11.34-1.98,22.98-.45,34.38.04.33.63.25.58-.08h0Z"/>
        <path class="cls-4" d="m178,234.47c2.67-5.4,4.92-11.49,4.44-17.62-.41-5.13-3.5-9.41-5.09-14.2-1.26-3.78-2.05-7.7-2.4-11.67-.07-.8-1.33-.8-1.25,0,.67,6.56,2.53,12.86,5.59,18.7.96,1.82,1.79,3.64,2.19,5.67.48,2.43.41,4.95-.01,7.38-.69,4-2.2,7.81-3.97,11.44-.17.34.34.64.51.3h0Z"/>
        <path class="cls-4" d="m177.95,234.53c7.19-6.01,13.71-14.66,12.18-24.59-.62-4.01-2.46-7.71-2.98-11.76-.61-4.66-.21-9.42,1.49-13.81,1.33-3.45,3.09-6.68,3.98-10.3,1.08-4.39,1.36-9.12.71-13.6-.23-1.63-.58-3.23-.79-4.87-.33-2.6-.37-5.24-.31-7.86.12-5.09,1.08-10,1.9-15.01s1.38-10.26,1.29-15.47c-.11-6.59-1.05-13.13-2.57-19.54-.21-.87-1.55-.5-1.34.37,2.39,10.07,3.24,20.48,1.79,30.75-.69,4.93-1.84,9.81-2.28,14.77s-.39,9.57.39,14.27c.67,4.06.93,7.97.4,12.08s-2.02,7.8-3.71,11.55-2.69,7.25-2.86,11.23c-.19,4.7.76,9.01,2.23,13.43.66,1.98,1.23,3.98,1.3,6.08.1,2.88-.52,5.8-1.52,8.49-1.95,5.25-5.55,9.71-9.73,13.36-.29.25.13.66.42.42h0Z"/>
        <path class="cls-4" d="m55.26,235.84c-5.39-8.84-9.91-19.95-8.03-30.51.82-4.61,3.09-8.78,4.02-13.37.57-2.83.88-5.78.76-8.67-.09-2.03-.47-4.02-.78-6.03-.86-5.62-.72-11.37.42-16.94.45-2.18.89-4.35,1.08-6.58.29-3.49.09-7.01-.25-10.49-.37-3.79-.88-7.57-1.01-11.38s.06-7.77.57-11.62c1.01-7.65,3.53-14.7,6.33-21.85s4.82-15.17,5.49-23.13c.27-3.16.27-6.34.76-9.48s1.46-6.51,2.69-9.59c.28-.71-.86-1.02-1.15-.32-2.2,5.47-3,11-3.34,16.83-.41,7.08-1.67,14.3-4,21.01-2.52,7.23-5.7,14.09-7.21,21.65s-1.68,14.76-.91,22.16c.69,6.72,1.63,13.43.35,20.14-.42,2.22-.92,4.42-1.16,6.67-.35,3.23-.35,6.52-.06,9.76.19,2.16.61,4.28.92,6.43.38,2.64.35,5.28.05,7.93-.34,2.98-1.05,5.87-2.07,8.69-.78,2.16-1.64,4.29-2.16,6.54-2.67,11.51,2.52,22.72,8.44,32.3.1.16.36.01.26-.15h0Z"/>
        <path class="cls-4" d="m58.7,234.02c3.09-7.68,4.53-16.24,1.73-24.22-1.12-3.21-2.46-6.27-2.96-9.66-.55-3.74-.35-7.55.74-11.17.9-2.97,2.33-5.73,3.45-8.61,1.35-3.45,2.16-7.04,2.4-10.73.23-3.5.06-6.95-.8-10.36-1.03-4.1-1.83-8.15-2.18-12.37-.96-11.38.69-22.77,3.39-33.82.2-.81-1.02-1.15-1.25-.35-2.79,9.46-4.14,19.61-3.89,29.47.12,4.73.65,9.48,1.76,14.08.74,3.06,1.72,5.98,1.9,9.14.24,4.2-.32,8.45-1.61,12.45-.95,2.97-2.33,5.76-3.42,8.67-2.51,6.68-2.25,13.65.22,20.31,1.43,3.86,2.66,7.54,2.74,11.71.11,5.25-.75,10.46-2.65,15.35-.1.27.32.38.43.12h0Z"/>
        <path class="cls-4" d="m77.03,221.11c-1.71-4.16-2.54-8.64-2.16-13.14.23-2.68.88-5.39,2.01-7.84.89-1.92,2.19-3.53,3.41-5.23,4.79-6.66,5.91-15.13,5.07-23.13-.25-2.4-.83-4.69-1.33-7.03-.58-2.67-.58-5.45-.02-8.12.24-1.16-1.56-1.65-1.78-.49-.44,2.33-.51,4.68-.19,7.03.27,1.95.89,3.82,1.27,5.75.74,3.76.93,7.63.61,11.44-.41,4.94-1.81,9.65-4.64,13.75-1.23,1.77-2.55,3.44-3.43,5.43-.99,2.22-1.53,4.61-1.71,7.03-.37,4.98.41,10.1,2.33,14.72.14.35.72.2.57-.16h0Z"/>
        <path class="cls-4" d="m76.9,221.03c-2.79-3.28-4.96-7.09-6.23-11.21-1.65-5.35-1.24-11.39,1.04-16.5,1.17-2.62,2.43-5.1,3.17-7.9.78-2.97,1.12-6.06,1.09-9.13-.04-3.46-.41-7.1-1.87-10.27s-1.99-7.3-2.18-10.91c-.29-5.43.04-11.14,1.76-16.32,1.19-3.59,1.57-7.33,1.66-11.1.13-5.53-.27-11.42-1.88-16.74-.61-2.02-1.18-3.89-1.39-6.01-.34-3.47-.25-7.01.33-10.45.8-4.73,2.54-9.13,5.24-13.11.43-.63-.59-1.22-1.02-.6-2.35,3.41-4.05,7.18-4.99,11.21-1.23,5.25-1.56,11.16-.2,16.41.45,1.73,1.14,3.36,1.53,5.11.76,3.39,1.14,6.87,1.28,10.34.17,4.22.1,8.75-1.05,12.85-.48,1.7-1.13,3.33-1.5,5.06-.66,3.12-.95,6.36-1.03,9.54-.1,4.01.2,8.08,1.18,11.97.47,1.87,1.41,3.53,1.9,5.38.44,1.64.7,3.34.85,5.02.27,2.93.21,5.91-.26,8.82-.54,3.33-1.69,6.37-3.11,9.41-2.45,5.27-3.26,11.39-1.69,17.04,1.28,4.59,3.94,8.83,7.05,12.42.19.22.5-.1.31-.31h0Z"/>
        <path class="cls-4" d="m11.47,299.47c7.79-.12,15.51-2.41,22.79-5.05,8.56-3.11,16.73-7.21,24.33-12.24,3.39-2.24,6.67-4.65,9.84-7.2,1.18-.95-.5-2.64-1.67-1.67-12.76,10.58-27.93,18.16-43.91,22.47-3.82,1.03-7.66,1.96-11.45,3.1-.31.09-.26.59.08.58h0Z"/>
        <path class="cls-4" d="m61.61,233.23c3.8,12.95,6.15,26.15,6.68,39.65.03.85,1.35.86,1.33,0-.27-13.51-2.69-27.14-7.43-39.8-.13-.35-.68-.22-.57.16h0Z"/>
        <path class="cls-4" d="m64.24,278.82c.24.71.31,1.47.53,2.2s.44,1.45.71,2.17c.57,1.51,1.16,3,1.78,4.49,1.21,2.88,2.44,5.74,3.72,8.59.52,1.16,2.25.15,1.71-1-1.29-2.81-2.58-5.62-3.82-8.45-.63-1.42-1.27-2.84-1.91-4.25-.32-.69-.67-1.36-1.03-2.03s-.84-1.26-1.15-1.94c-.14-.3-.65-.09-.54.23h0Z"/>
        <path class="cls-4" d="m18.03,298.03c.69,4.02,2.04,7.97,3.4,11.81,1.18,3.32,2.47,6.58,3.91,9.8,2.41,5.39,5.21,10.49,8.28,15.53,5.14,8.45,11.05,17.03,19.25,22.8,6.27,4.41,13.42,7.39,20.9,9,.98.21,1.4-1.29.42-1.51-10.17-2.19-19.84-6.94-27.21-14.33-8.4-8.43-14.3-19.11-19.31-29.81-1.66-3.55-3.19-7.16-4.59-10.82-1.6-4.17-2.85-8.46-4.47-12.62-.14-.36-.64-.22-.57.16h0Z"/>
        <path class="cls-4" d="m228.1,268.82c2.93.34,5.96-.05,8.86-.41,3.66-.45,7.28-1.2,10.83-2.19,8.42-2.35,16.52-5.98,23.88-10.71,3.46-2.23,6.77-4.7,9.9-7.37.98-.84-.44-2.25-1.41-1.41-5.91,5.04-12.48,9.28-19.53,12.55s-15.02,5.49-22.9,6.89c-3.24.57-6.57.75-9.79,1.44-.75.16-.48,1.15.17,1.23h0Z"/>
        <path class="cls-4" d="m232.23,269.55c-.16,1.66.65,3.33,1.18,4.87.64,1.86,1.29,3.71,1.89,5.58,1.27,3.91,2.41,7.87,3.4,11.87,2.03,8.15,3.5,16.52,4.39,24.88.42,3.98.66,7.97.69,11.97,0,1.06,1.68,1.06,1.64,0-.26-7.47-.65-14.99-1.78-22.39-1.32-8.68-3.35-17.26-6.05-25.61-.68-2.09-1.38-4.18-2.17-6.22-.67-1.73-1.25-3.92-2.7-5.16-.2-.18-.48-.05-.51.21h0Z"/>
        <path class="cls-4" d="m162.06,159.98c.34.04.68.13,1.02.14s.68-.03,1.02,0c.63.07,1.32-.04,1.96-.08,1.33-.08,2.67-.25,4-.38.45-.04.83-.35.83-.83,0-.41-.38-.88-.83-.83-1.38.15-2.76.27-4.13.47-.67.1-1.35.17-2,.34-.3.08-.61.13-.91.2-.35.08-.69.24-1.03.36s-.25.54.08.58h0Z"/>
        <path class="cls-4" d="m161.6,159.56c-.8,3.42-1.71,6.8-3.16,10.01-1.89,4.19-4.54,8.03-7.8,11.26-4.19,4.15-9.39,7.31-14.99,9.16-1.22.4-.69,2.34.53,1.93,11.11-3.7,20.33-12.16,24.4-23.22,1.06-2.89,1.81-5.94,1.95-9.02.03-.53-.81-.65-.94-.13h0Z"/>
        <path class="cls-4" d="m111.33,190.37c-1.85-.59-3.91-.65-5.81-1.14-2.89-.74-5.71-1.83-8.33-3.26-4.31-2.35-8.1-5.66-10.98-9.64-.8-1.1-2.65-.03-1.83,1.07,3.14,4.25,7.15,7.78,11.86,10.21,2.76,1.42,5.68,2.42,8.73,2.97,1.98.36,4.38.83,6.37.36.3-.07.27-.49,0-.57h0Z"/>
        <path class="cls-4" d="m164.83,160.11c-.99,8.02-3.94,15.93-9,22.28-4.22,5.3-9.82,9.39-16.04,12.04-1.86.79-3.79,1.45-5.74,1.97-1.26.33-.73,2.3.54,1.96,13.11-3.53,24.59-13.13,28.99-26.16,1.31-3.89,1.9-7.99,1.85-12.09,0-.39-.55-.37-.59,0h0Z"/>
        <path class="cls-4" d="m109.67,195.02c-4.57-1.58-9.26-2.6-13.64-4.74-3.89-1.9-7.47-4.36-10.67-7.27-1.01-.92-2.52.58-1.5,1.5,3.38,3.08,7.21,5.67,11.35,7.62,4.39,2.07,9.45,3.86,14.38,3.47.33-.03.4-.47.08-.58h0Z"/>
        <path class="cls-4" d="m10.74,293.17c3.52-.26,6.95-1.08,10.35-1.96,4.07-1.05,8.05-2.4,11.96-3.95,8.35-3.29,16.34-7.45,23.83-12.41,3.42-2.27,6.73-4.7,9.92-7.29,1.04-.84-.44-2.3-1.47-1.47-5.91,4.75-12.22,9.01-18.87,12.66-7.75,4.26-15.9,7.54-24.29,10.33-3.81,1.26-7.7,2.21-11.5,3.5-.3.1-.27.61.08.58h0Z"/>
        <path class="cls-4" d="m226.66,261.84c1.46.22,2.98-.05,4.44-.2,1.76-.19,3.49-.46,5.22-.82,3.89-.81,7.72-1.89,11.49-3.17,7.53-2.54,14.79-5.84,21.59-9.96,3.03-1.83,5.96-3.82,8.79-5.94,1.13-.84.03-2.77-1.12-1.92-11.9,8.81-25.32,15.09-39.66,18.74-1.92.49-3.86.91-5.79,1.4-1.66.42-3.47.63-5.04,1.33-.22.1-.18.51.07.54h0Z"/>
        <path class="cls-4" d="m98.08,153.21c-1.77-2.28-3.23-4.99-4.05-7.77s-1.12-5.68-1.61-8.51c-.62-3.57-1.25-7.13-1.91-10.69-.41-2.2-.8-4.4-1.25-6.59-.37-1.79-.85-3.52-1.04-5.35-.05-.51-.33-1.82,0-2.22.69-.87,3.23.89,3.79,1.54.93,1.08,1.33,2.48,1.76,3.81s.86,2.71,1.25,4.07c2.32,7.93,4.5,15.9,6.76,23.85.25.87,1.6.5,1.35-.37-2.24-7.88-4.39-15.79-6.63-23.66-.44-1.55-.9-3.09-1.38-4.62-.41-1.33-.84-2.7-1.72-3.8-1.1-1.38-4.62-3.55-6.22-1.73-.41.47-.43,1.15-.43,1.74,0,1.46.23,3.02.56,4.45.36,1.6.75,3.18,1.06,4.79.83,4.27,1.61,8.56,2.37,12.84.6,3.43,1.07,6.97,2.06,10.31s2.66,5.91,4.91,8.32c.25.26.6-.12.39-.39h0Z"/>
        <path class="cls-4" d="m92.11,152.91c-2.13-3.12-4.05-6.36-5.15-10s-1.59-7.66-2.12-11.53c-.57-4.14-1.13-8.29-1.69-12.44-.43-3.25-.99-6.47-1.17-9.74-.08-1.4-.56-3.37,1.5-2.79,2.31.65,2.88,3.36,3.44,5.4.28,1.01,1.86.58,1.57-.43-.51-1.81-1.09-4.2-2.6-5.46-1.19-1-3.36-1.79-4.75-.72-.94.73-.87,2.14-.83,3.21.1,2.37.52,4.73.91,7.06.59,3.61.98,7.26,1.48,10.88.67,4.95,1.14,9.99,2.33,14.85,1.09,4.48,3.33,8.79,6.6,12.07.23.24.67-.08.47-.36h0Z"/>
        <path class="cls-4" d="m88.41,153.68c-1.85-2.78-3.2-6.02-3.92-9.28-.78-3.52-1.1-7.14-1.65-10.7-.65-4.18-1.42-8.35-1.99-12.53-.28-2.07-.62-4.09-1.18-6.1-.52-1.87-.92-4.26,1.41-5,.89-.28.51-1.7-.39-1.41-3.36,1.09-3.07,4.39-2.35,7.22.88,3.47,1.26,7.06,1.89,10.58,1,5.58,1.65,11.21,2.75,16.78.81,4.09,2.44,7.5,5.1,10.7.15.18.46-.06.33-.25h0Z"/>
        <path class="cls-4" d="m77.89,114.1c-1.09,1.52-1.05,3-.87,4.78.15,1.44.32,2.87.51,4.3.46,3.42.8,6.86,1.14,10.29.3,2.96.48,5.94.79,8.9.43,4.14,1.2,8.25,2.1,12.31.19.86,1.53.5,1.32-.36-1.6-6.77-2.54-13.58-3.32-20.48-.38-3.4-.8-6.79-1.29-10.18-.16-1.15-.4-2.27-.54-3.42-.25-2.08-.73-4.06.53-5.93.16-.24-.22-.45-.38-.22h0Z"/>
        <path class="cls-4" d="m113.65,146.17c2.46,1.12,5.37,1.59,8.03,2.03,2.09.34,4.21.49,6.33.51,4.56.05,8.82-.78,12.89-2.88,1.23-.64.14-2.52-1.09-1.86-3.85,2.08-7.94,2.85-12.28,2.9-1.94.02-3.89-.08-5.83-.22-2.66-.19-5.26-.82-7.9-1.03-.29-.02-.42.43-.15.55h0Z"/>
        <path class="cls-4" d="m131.45,37.07c1.79-11.33,2.5-22.83,1.87-34.29-.04-.8-1.31-.8-1.25,0,.85,11.39.54,22.84-1.19,34.13-.06.37.51.54.57.16h0Z"/>
        <path class="cls-4" d="m134.56,129.23c-.53-1.41-2.02-2.29-3.52-1.93-1.27.31-1.94,1.46-2.94,2.21-.66.5-.96.28-1.65-.24-.58-.44-1.02-1.11-1.65-1.48-1.47-.88-3.43-.34-4.58.81-.53.53.29,1.35.82.82.94-.95,2.61-1.33,3.62-.3.77.79,2.13,2.12,3.35,1.62,1.09-.44,1.64-1.62,2.49-2.35,1.2-1.01,3.05-.46,3.62.95.11.26.53.15.43-.12h0Z"/>
        <path class="cls-4" d="m124.9,108.7c.09,2.96-.21,6.07-1.57,8.75-1.02,2.01-2.7,3.13-4.25,4.68s-2.3,3.56-1.94,5.69c.44,2.55,3.11,3.81,5.4,2.64.66-.34.08-1.34-.59-1-1.41.73-3.12.09-3.61-1.43-.24-.75-.23-1.63-.08-2.4.47-2.42,2.68-3.54,4.18-5.25,2.8-3.19,3.08-7.63,2.89-11.68-.01-.28-.45-.29-.45,0h0Z"/>
        <path class="cls-4" d="m129.16,108.53c-.21,4.01,0,8.48,2.83,11.62,1.58,1.75,3.83,2.68,4.33,5.21.22,1.15.25,2.75-.59,3.67s-2.33.81-3.31.19c-.63-.41-1.21.6-.59,1,1.88,1.2,4.55.69,5.38-1.51.89-2.33.09-5.14-1.67-6.82-1.61-1.54-3.36-2.54-4.4-4.58-1.38-2.68-1.64-5.82-1.53-8.78.01-.29-.43-.29-.45,0h0Z"/>
        <path class="cls-4" d="m163.82,95.65c-3.92-3.65-9.23-6.38-14.62-6.89-3.07-.29-6.17.4-8.61,2.36-2.13,1.7-3.49,4.12-4.29,6.69-.22.71.9,1.02,1.12.31.74-2.38,2-4.63,3.96-6.21,2.45-1.98,5.6-2.44,8.65-2.05,4.88.63,9.84,2.8,13.47,6.11.21.19.53-.12.31-.31h0Z"/>
        <path class="cls-4" d="m163.55,95.62c-7.71,5.03-18.08,5.88-26.4,1.85-.67-.32-1.26.68-.59,1,8.87,4.27,19.12,2.97,27.21-2.47.24-.16.02-.54-.22-.38h0Z"/>
        <path class="cls-4" d="m92.07,95.88c3.46-3.32,8.22-5.48,12.98-6.11,3-.4,6.08-.04,8.63,1.72,2.31,1.59,3.8,4.06,4.63,6.69.23.71,1.35.41,1.12-.31-.86-2.68-2.32-5.17-4.58-6.9-2.56-1.97-5.82-2.63-8.99-2.29-5.27.56-10.35,3.2-14.1,6.88-.21.2.11.51.31.31h0Z"/>
        <path class="cls-4" d="m91.8,95.92c8.08,5.59,18.42,6.92,27.36,2.62.67-.32.08-1.33-.59-1-8.39,4.06-18.84,3.18-26.55-2-.24-.16-.46.22-.22.38h0Z"/>
        <path class="cls-8" d="m164.55,88.96c-2.93-2.83-6.66-5.01-10.59-6.09-6.28-1.74-12.76-.27-17.85,3.72-.96.75.4,2.12,1.35,1.35,4.75-3.83,10.92-5.28,16.85-3.73,3.58.93,7.03,2.74,9.82,5.17.29.25.7-.15.42-.42h0Z"/>
        <path class="cls-8" d="m91.82,89.12c2.8-2.43,6.24-4.24,9.82-5.17,5.92-1.55,12.1-.1,16.85,3.73.95.77,2.31-.6,1.35-1.35-5.09-3.99-11.57-5.46-17.85-3.72-3.93,1.09-7.65,3.27-10.59,6.09-.28.27.13.67.42.42h0Z"/>
        <path class="cls-4" d="m66.47,282.48c.33-.46.63-.94.91-1.44.35-.62.6-1.28.93-1.91.08-.15.16-.31.24-.47.11-.2.27-.35.35-.56.15-.38.27-.79.37-1.18.22-.81.35-1.63.43-2.46.05-.47-.44-.88-.88-.88-.49,0-.86.4-.88.88-.03.71-.09,1.42-.21,2.12-.07.38-.17.76-.24,1.14-.04.19,0,.37-.02.56s-.08.39-.13.58c-.31,1.12-1,2.21-1.65,3.16-.32.48.44.91.77.45h0Z"/>
        <path class="cls-4" d="m224.83,269.55c-.08.65.59,1.3.97,1.73.61.69,1.44,1.23,2.25,1.64,1.84.93,3.95,1.34,6.01,1.12.4-.04.75-.31.75-.75,0-.37-.34-.79-.75-.75-1.83.19-3.65-.14-5.25-1.05-.7-.4-1.33-.9-1.96-1.4-.41-.33-.87-.92-1.42-1-.33-.04-.55.12-.59.45h0Z"/>
        <path class="cls-4" d="m279.74,255.38c.59.27,1.17-.2,1.62-.54.64-.49,1.15-1.13,1.58-1.81.92-1.45,1.44-3.13,1.58-4.83.03-.4-.37-.75-.75-.75-.43,0-.72.34-.75.75-.12,1.46-.67,2.97-1.6,4.19-.37.49-.81.97-1.23,1.45-.18.21-.39.39-.53.63-.15.26-.29.75.08.92h0Z"/>
        <path class="cls-4" d="m156.45,156.97c-.32.4-.18,1.13-.09,1.59.15.77.53,1.48,1.14,1.98,1.3,1.09,3.06,1.31,4.65.81.42-.13.68-.56.56-.99-.11-.4-.58-.72-.99-.56-.32.12-.66.22-1.01.26.12-.02-.1,0-.13,0-.08,0-.17,0-.25.01-.16,0-.33,0-.49-.02,0,0-.24-.03-.12-.01-.08-.01-.16-.03-.24-.04-.15-.03-.31-.07-.45-.13-.22-.07-.48-.21-.73-.38-.44-.3-.88-.83-1.12-1.36-.16-.36-.17-.85-.42-1.16-.07-.09-.25-.09-.31,0h0Z"/>
        <path class="cls-4" d="m84.06,165.34c-.03-.1.01.06.03.09.01.02.13.13.08.08.07.06.13.1.21.14.21.11.46.19.69.25.69.19,1.39.21,2.08,0,1.17-.36,2.15-1.21,2.68-2.32.21-.44.09-.95-.39-1.15s-.91.07-1.09.52c-.05.12.02-.06.04-.09-.02.03-.03.07-.04.1-.04.08-.07.15-.12.23-.05.09-.1.18-.16.27-.03.04-.05.08-.08.12-.01.02-.13.17-.07.09s-.07.08-.08.1c-.05.05-.09.1-.14.15-.09.09-.19.19-.29.28,0,0-.18.14-.09.08-.07.05-.13.09-.2.14-.15.1-.31.19-.48.26-.46.19-1,.33-1.5.35-.2.01-.39,0-.59-.01-.06,0-.12,0-.18,0-.04,0-.08,0-.13.02-.05.02-.11.07-.06.04-.08.05-.13.15-.1.25h0Z"/>
        <path class="cls-4" d="m69.31,274.33c-1.74-8.05-4.24-15.93-7.46-23.52-.84-1.99-1.74-3.96-2.68-5.91-.28-.58-1.14-.07-.86.5,3.52,7.3,6.37,14.93,8.47,22.76.57,2.13,1.09,4.27,1.56,6.43.14.63,1.1.36.96-.27h0Z"/>
        <path class="cls-4" d="m185.98,110.34c-2.89-.81-5.53-2.11-7.99-3.83-3.55-2.49-5.92-5.87-7.36-9.95-1.12-3.19-1.93-6.47-2.35-9.82-.49-3.92-.31-7.72.09-11.63.72-7.02.67-14.71-2.56-21.15-3.04-6.05-8.77-10.23-15.15-12.19s-13.64-1.49-19.85,1.36c-1.01.46-.13,1.95.87,1.49,11.69-5.36,27.49-1.26,33.11,10.89,3.02,6.52,2.6,14.03,1.83,21s.16,14.32,2.75,21.01c1.54,3.98,3.94,7.42,7.56,9.77,2.69,1.75,5.82,2.73,8.93,3.43.24.05.34-.31.1-.37h0Z"/>
        <path class="cls-4" d="m186.03,110.42c-4.28-4.89-8.48-10.37-9.37-17.01-.27-2.01-.24-4.06-.18-6.09.1-3.64.35-7.28.58-10.91.32-5.03.69-10.05.89-15.09.12-3.09.18-6.24-.35-9.3-1.18-6.8-5.99-12.7-11.25-16.92-7.37-5.91-17.03-8.88-26.42-8.83-.84,0-.85,1.32,0,1.31,8.42-.05,17.01,2.39,23.93,7.24,5.78,4.05,11.19,10.19,12.51,17.31.56,3.01.46,6.13.36,9.18-.16,4.97-.49,9.93-.77,14.89-.31,5.57-1.04,11.42-.33,17,.85,6.64,4.97,13.32,10.18,17.42.15.12.34-.06.21-.21h0Z"/>
        <path class="cls-4" d="m71.51,100.66c3.28-.19,6.3-.72,9.31-2.1,3.23-1.49,6.11-3.74,8.4-6.46,3.83-4.55,6.21-10.38,7.87-16.04.83-2.83,1.26-5.71,1.46-8.64.18-2.54.39-5.04,1.17-7.48.84-2.62,2.15-5.18,3.56-7.54,1.58-2.64,3.56-5.07,6.11-6.83,6.15-4.25,14.24-3.92,20.79-.79.87.42,1.64-.88.76-1.31-5.33-2.57-11.76-3.59-17.45-1.63s-9.89,6.77-12.66,12.2c-1.28,2.51-2.45,5.09-3,7.87-.48,2.41-.5,4.87-.73,7.31-.58,6.12-2.83,12.45-5.85,17.8-4.13,7.32-11.38,12.2-19.77,13.24-.24.03-.25.4,0,.39h0Z"/>
        <path class="cls-4" d="m71.6,100.63c9.56-6.79,17.3-16.7,17.08-28.92-.05-2.62-.27-5.22-.15-7.83.16-3.4.8-6.73,1.56-10.04,1.54-6.7,4.21-13.12,9.28-17.93s11.97-7.5,18.94-8.29c.86-.1.88-1.46,0-1.37-5.73.57-11.35,2.39-16.11,5.68-5.9,4.07-9.87,10.06-12.04,16.82-1.91,5.95-3.07,12.33-2.88,18.58.08,2.5.32,5.01.13,7.51s-.86,5.19-1.79,7.63c-2.77,7.21-8.29,13.12-14.24,17.87-.16.13.05.41.22.29h0Z"/>
        <path class="cls-4" d="m88.59,116.94c.81-.49,1.17-1.25,1.14-2.17-.04-1.14-.25-2.29-.5-3.4-.08-.37-.66-.22-.57.16.22.99.4,2,.46,3.01.02.34.04.71-.08,1.04-.13.37-.43.65-.76.85s-.03.71.3.51h0Z"/>
        <path class="cls-4" d="m217.6,217.48c4.82,12.12,7.07,24.93,7.39,37.95.11,4.29-.04,8.57-.4,12.84-.09,1.11,1.65,1.11,1.73,0,.53-7.03.45-14.1-.36-21.1-.73-6.29-2.17-12.4-3.91-18.48-1.1-3.86-2.39-7.65-3.89-11.37-.14-.35-.71-.2-.57.16h0Z"/>
        <path class="cls-4" d="m82.38,111.57c.81-.49,1.17-1.25,1.14-2.17-.04-1.14-.25-2.29-.5-3.4-.08-.37-.66-.22-.57.16.22.99.4,2,.46,3.01.02.34.04.71-.08,1.04-.13.37-.43.65-.76.85s-.03.71.3.51h0Z"/>
        <path class="cls-4" d="m79.32,116.04c.81-.49,1.17-1.25,1.14-2.17-.04-1.14-.25-2.29-.5-3.4-.08-.37-.66-.22-.57.16.22.99.4,2,.46,3.01.02.34.04.71-.08,1.04-.13.37-.43.65-.76.85s-.03.71.3.51h0Z"/>
        <path class="cls-4" d="m77.52,118.5c.5-.34.77-.85.71-1.46-.04-.31-.1-.62-.13-.93-.03-.34-.04-.67-.04-1.01,0-.38-.59-.38-.59,0-.01.62.06,1.22.15,1.82.03.18.05.4,0,.54-.06.22-.22.4-.4.52-.13.09-.19.26-.11.41.08.13.27.2.41.11h0Z"/>
        <path class="cls-4" d="m182.24,298.97c6.51,2.34,13.92,2.91,20.62,1.05,7.79-2.16,14.32-7.65,17.9-14.88,1.51-3.06,2.53-6.35,2.99-9.74.17-1.24-1.54-1.49-1.7-.23-1.92,15.13-15.54,26.48-30.85,25.15-3-.26-5.96-.92-8.8-1.93-.36-.13-.52.44-.16.57h0Z"/>
        <path class="cls-4" d="m66.93,279.17c-.03,1.48.29,2.98.51,4.44s.43,2.97.59,4.47c.1.95,1.48.78,1.3-.18-.27-1.48-.5-2.95-.7-4.44s-.32-3-.77-4.42c-.16-.51-.92-.42-.93.13h0Z"/>
        <path class="cls-4" d="m123.66,151.27c3.41.94,6.88.78,10.31.04.55-.12.28-1.04-.23-.84-3.14,1.27-6.73,1.24-9.96.37-.28-.07-.39.35-.12.43h0Z"/>
        <path class="cls-4" d="m146.62,304.34c-6.87,7.61-17.02,11.54-27.25,10.3-1.1-.13-1.11,1.62,0,1.73,6.28.65,12.58-.54,18.05-3.73,3.57-2.08,6.88-4.8,9.62-7.89.25-.28-.16-.7-.42-.42h0Z"/>
        <path class="cls-4" d="m123.08,360.84c-7.27.18-14.55.08-21.82.27-.84.02-.84,1.34,0,1.3,7.28-.32,14.54-.89,21.82-1.13.29,0,.29-.45,0-.45h0Z"/>
      </g>
      <g id="Schatten">
        <path class="cls-1" d="m19.29,303.19c.07-.74.14-1.49.21-2.23,8.26-1.78,18.48-4.85,29.45-10.3,6.23-3.09,11.61-6.42,16.17-9.62.32.4.64.81.96,1.21.51-.81,1.04-1.8,1.51-2.97.74-1.84,1.08-3.52,1.23-4.83-7.15,5.42-17.29,11.93-30.42,17.14-10.56,4.18-20.18,6.38-27.91,7.57.46.7,1.92,2.73,4.68,3.66,1.75.59,3.28.49,4.13.36Z"/>
        <path class="cls-1" d="m127.51,165.15c1,2.89,2.27,7.18,2.98,12.49,1.29,9.67-.12,17.1-.77,21.7-1.58,11.31-2.61,22.71-4.6,33.96-5.12,28.99-3.42,26.32-9.7,62.55-5.22,30.14-6.94,35.17-9.96,40.85-8.07,15.21-19.9,24.76-28.54,30.38,6.57.51,16.29.17,24.64-5.55,8.24-5.64,11.98-14.34,18.77-53.87.42-2.43,6.18-36.27,9.25-66.44.78-7.67.88-16.79,2.85-30.06.68-4.58,1.21-9.19,1.87-13.78.74-5.1,2.02-13.6.68-21.68-.28-1.7-.8-4.1-2.55-6.47-1.65-2.23-3.67-3.45-4.94-4.09Z"/>
        <path class="cls-1" d="m298.74,337.75c-3.3,6.21-9.12,14.83-19.07,20.76-11.82,7.05-22.62,6.21-41.36,5.62,0,0-25.01-.79-90.89.51-3.37.07-14.11.52-29.96,1.02-10.14.32-18.33.55-23.32.68-1.16.59-2.32,1.17-3.49,1.76,26.3.18,52.59.36,78.89.54,17.82-.28,35.63-.57,53.45-.85,6.38.09,15.15.26,25.62.6,13.43.43,17.15.74,23.39-.35,8.61-1.51,18.31-3.17,23.68-11.16,4.24-6.31,3.93-13.93,3.07-19.13Z"/>
        <path class="cls-1" d="m252.61,267.85c12.5-3.88,21.36-10.32,26.55-14.81.27.64.54,1.29.81,1.93.69-.53,1.82-1.53,2.63-3.16,1.35-2.71.89-5.28.7-6.11-5.25,4.3-12.39,9.26-21.5,13.46-14.42,6.66-27.59,8.57-36.34,9.11.36.67,1.69,2.96,4.51,4,1.58.58,2.98.54,3.79.44.04-.55.08-1.09.13-1.64,5.09-.21,11.55-1.01,18.72-3.23Z"/>
        <path class="cls-1" d="m211.76,223.94c6.88,20.05,6.76,35.52,5.28,46.13-1.82,12.96-5.17,21.48-6.3,39.83-.69,11.27-.07,20.59.58,26.78,4.29-.81,8.59-1.62,12.88-2.44-1.48-6.91-3.38-18.03-3.54-31.81-.24-20.32,3.29-28.75,1.71-45.02-.78-8.03-3.13-19.66-10.6-33.46Z"/>
        <path class="cls-1" d="m168.83,117.5c-.54,4.28-1.6,10.41-3.87,17.53-.42,1.32-2.02,6.21-3.91,10.21-2.13,4.5-7.46,13.8-20.47,22.77-2.11.73-4.23,1.46-6.34,2.19,3-.87,6.51-2.11,10.28-3.93,3.73-1.8,6.86-3.75,9.39-5.54.11.61,1.13,5.78,5.96,8.17,3.14,1.56,6.13,1.07,7.15.85,1.28-3.61,2.96-8.83,4.46-15.26.5-2.11,1.64-6.99,2.09-10.79.57-4.86.72-13.95-4.72-26.2Z"/>
        <path class="cls-1" d="m83.11,156.38l11.21,11.07c-.8.75-6.67,6.2-9.28,4.59-.84-.52-1.12-1.64-1.47-5.63-.36-4.14-.45-7.58-.46-10.03Z"/>
        <path class="cls-1" d="m209.55,159.07c-3.61,8.03-4.5,14.66-4.64,19.23-.32,10.05,2.85,13.66.89,22.72-1.34,6.22-3.36,6.93-5.62,14.17-2.5,8.01-2.51,15.09-2.17,19.66-.63-1.32-1.25-2.63-1.88-3.95-.03-3.66.28-9.05,2-15.26,2.05-7.37,4.07-8.59,5.4-14.54,1.81-8.11-.74-11.26-.78-20.13-.02-5.23.83-12.66,4.93-21.73.62-.06,1.24-.12,1.86-.19Z"/>
        <path class="cls-1" d="m187.42,187.36c.88,5.54,1.96,9.95,2.81,13.02,1.11,4,1.94,6.14,2.04,9.83.03,1.01.06,4.38-1.15,8.55-.86,2.96-1.84,6.35-4.85,9.32-2.07,2.05-4.29,3.09-5.69,3.63,1.22-.99,2.84-2.55,4.29-4.8,1.17-1.81,1.87-3.52,2.3-4.85,1.71-3.21,2.22-5.91,2.38-7.73.65-7.43-3.57-11.17-3.47-19.31.04-3.31.77-5.99,1.35-7.66Z"/>
        <path class="cls-1" d="m174.78,206c-.31-1.6-.56-3.5-.64-5.64-.07-2,.03-3.8.21-5.34.41,1.55,2.31,8.67,2.73,10.21.14.51,1.4,5.23,1.53,5.74-.56-.28-1.39-.78-2.17-1.66-1.13-1.28-1.52-2.64-1.66-3.32Z"/>
        <path class="cls-1" d="m68.32,289.66c-.77-2.48-.69-4.52-.64-5.64.26-5.45.56-12.74,1.02-21.6,1.28,7.33,1.77,12.82,1.96,16.77.11,2.32.2,5.85,2.3,9.62,1.06,1.91,2.31,3.29,3.23,4.17-.84,1.41-1.68,2.82-2.51,4.24-1.59-1.26-4.16-3.72-5.36-7.56Z"/>
      </g>
    </g>
  </g>
</svg>