<?xml version="1.0" encoding="UTF-8"?>
<svg id="Ebene_1" data-name="Ebene 1" xmlns="http://www.w3.org/2000/svg" viewBox="0 0 409.64 465.87">
  <defs>
    <style>
      .cls-1 {
        fill: #e6e6e6;
      }

      .cls-2 {
        fill: #a8865d;
      }

      .cls-3 {
        fill: #350002;
      }

      .cls-4 {
        fill: #2e3192;
      }

      .cls-5 {
        fill: #52330e;
      }

      .cls-6 {
        fill: #603813;
        stroke: #42210b;
        stroke-miterlimit: 10;
      }

      .cls-7 {
        isolation: isolate;
        opacity: .33;
      }
    </style>
  </defs>
  <g id="Ebene_2" data-name="Ebene 2">
    <g id="Farbe">
      <path class="cls-2" d="m164.8,87.58c-.68,8.9-1.45,16.23-2.02,21.19-14.62-14.67-23.81,22.65,1.37,37.76-.11,10.36,9.35,29.01,15.57,34.07-.71,11.19-9.05,23.11-5.34,33.81,3.74,10.88,13.41,15.91,21.09,21.26,7.34,5.11,18.04,12.84,31.4,23.49,16.53-15.58,19.1-18.32,29.62-30.05,10.35-11.55,12.82-13.24,15.07-23.06-3.76-7.78-7.27-21.82-7.66-30.38,4.46-7.88,8.61-22.86,8.94-31.4,11.45-3.76,14.58-20.46,12.56-27.33-.67-5.32-2.86-14.65-7-15.2-3.44-.78-6.56,4.62-5.96,6.31,9.77-62.21-66.12-97.25-105.31-50.34-1.8,4.24-.52,6.44-2.32,29.87h-.01Z"/>
      <path class="cls-5" d="m206.57,58.99c-9.13-13.04-35.4-2.7-22.72,15.44-2.45-1.01-4.9-2.02-7.35-3.02-1.1,2.8,3.39,11.51,6.33,12.21-5.29-.36-15.24-7.62-16.98-11.49.25,3.66,1.76,9.45,3.32,12.77-1.32-.3-2.64-.6-3.96-.89-.82,8.47-1.64,16.94-2.46,25.41-11.33-15.18-11.49,13.02-30.98,8.41,20.79-15.79,2.23-38.34,14.68-62.58-2.71,1.38-8.34,2.61-11.56,2.45,6.5-4.75,11.95-17.68,13.88-24.83,12.07-18.51,31.78-19.57,47.76-18.17,8.36-10.45,31.93-17.36,45.21-12.44-2.49-.23-8.89,2.35-10.8,4.76,28.01,2.19,42.53,29.12,68.19,22.3-2.21,4.23-11.54,11.67-16.86,12.92,6.35,1.58,25.85,16.25,15.95,29.49-1.76-3.11-7.85-8.35-11.62-9.7,8.75,20.67-3.73,41.17,14.15,54.17-4.56-.16-12.24-2.37-16.07-4.52.83-5.52-10.59-16.73-12.66-4.35-.18-2.41-.36-4.83-.53-7.24-1.73,1.31-3.46,2.62-5.18,3.93,3.08-2.18,5.84-15.14,3.32-19.15-2.17,1.53-4.34,3.06-6.51,4.6,3.49-5.54,1.27-20.26-7.18-24.57-.99,2.35-3.52,5.96-5.45,7.73,2.77-27.43-27.24-23.34-43.92-13.65h0Z"/>
      <path class="cls-5" d="m149.38,128.31c.91,3.18-3.08,12.28-5.85,13.7,2.28,1.47,10.91-1.26,11.87-3.6-2.01-3.36-4.01-6.73-6.02-10.09h0Z"/>
      <path class="cls-5" d="m285.21,126.27c-.01,3.39,3.6,11.55,7.12,14.31-3.37,2.08-10.32-1.67-10.82-3.58,1.23-3.57,2.48-7.16,3.7-10.73Z"/>
      <path class="cls-1" d="m205.66,107.06c-6.42-4.56-25.13-4.13-25.35,8.13,5.16,2.81,20.64,3.05,26.06.24-.24-2.79-.48-5.58-.72-8.37h0Z"/>
      <path class="cls-1" d="m232.87,107.35c4.92-5.34,21.8-8.4,23.74,4.49-4.5,2.87-18.3,4.21-23.43,2.14-.1-2.21-.2-4.42-.3-6.63h0Z"/>
      <path class="cls-6" d="m194.57,105.2c7.58-.11,7.58,11.79,0,11.68-7.58.11-7.58-11.79,0-11.68Z"/>
      <path class="cls-6" d="m243.76,103.15c7.36-.11,7.36,11.45,0,11.34-7.36.11-7.36-11.45,0-11.34Z"/>
      <path d="m194.57,108.18c3.58-.05,3.58,5.57,0,5.52-3.58.05-3.58-5.57,0-5.52Z"/>
      <path d="m244.01,106.15c3.48-.05,3.48,5.41,0,5.36-3.48.05-3.48-5.41,0-5.36Z"/>
      <path class="cls-4" d="m141.25,218.46c-33.04,12.2-57.06,18.66-82.13,41.74-5.1,11.9-20.27,48.76-23.73,62.03-4.49,17.24-1.79,19.25-6.92,42.24-2.72,12.17-4.04,11.04-7.89,25.67-.93,3.55-2.21,8.69-5.61,14.83-6.43,8.51-11.82,19.81-12.9,28.94-9.88,34.34,20.75,29.47,39.02,30.93,36.56-.1,47.84.19,70.72-1.17,1-18.54,1.99-37.08,2.99-55.62-3.67-.94-7.34-1.88-11.01-2.81,3.32-21.74,6.33-29.26,13.24-55.67,4.25,20.73-3.45,39.25-.95,58.7h-3.32c-2.52,18.69-5.04,37.38-7.57,56.07,110.19.09,176.57,1.11,300.91.73,7.53-29.78-.07-27.43-3.12-55.02-.92-9.2.18-12.49.41-21.85.44-17.72-3.13-21.82-4.59-41.13-1.01-39.29,5.55-51.66-15.91-96.39-20.71-13.48-56.03-29.16-82.17-35.57-.25-5.76-9.91-11.67-12.42-11.23-1.14-9.79-9.76-14.77-22.26-13.75,2,5.57,4.01,11.85,5.61,17.53-8.4,20.45-27.96,32.3-44.76,51.49-22.19-19.45-44.02-26.56-55.15-51.49,3.27-4.61,7.06-15.56,7.15-22.13-8.56-3.22-20.39,4.42-20.25,14.3-6.25,5.39-22.36,9.6-17.37,18.62h-.02Z"/>
      <path class="cls-1" d="m196.49,164.31c12.01,3.71,38.49,3.23,50.97-1.26-7.93,11.8-41.69,11.16-50.98,1.25h.01Z"/>
      <path class="cls-3" d="m204.13,169.43c6.73,6.67,27.23,10.6,38.12-.85-10.35,3.6-29.42,3.51-38.12.85h0Z"/>
      <path class="cls-2" d="m224.92,428.19c24.05-10.23,21.4-21.33,53.41-20.58,1.46,1.98,2.93,3.95,4.39,5.93,4.15.92,6.25,8.19,1.81,11.58,3.96,1.97,5.37,11.28-1.24,13.95,3.75,2.88,2.8,10.54-1.58,12.41,8.35,9.9-10.75,13.95-17.65,13.42-21.79-.45-19.25-1.82-40.83-3.37,2.06-9.11,2.84-23.89,1.7-33.35h-.01Z"/>
    </g>
    <g id="Outline_3" data-name="Outline 3">
      <path d="m270.58,100.75c1.82,20.35,3.18,41.34-2.09,61.3-3.6,12.16-11.07,22.65-18.02,33.1-9.81,18.18-31.7,16.4-45.96,4.56-10.01-8.42-21.78-15.33-29.87-25.73-14.6-26.34-11.89-59.28-8.56-88.25.19-1.25-1.72-1.79-1.91-.53-3.56,28.54-5.92,60.14,6.52,86.88,4,7.49,10.88,12.62,17.48,17.68,7.24,5.84,14.35,11.98,22.65,16.31,30.76,16.9,46.35-14.22,57.65-37.91,6.56-18.75,6.47-38.82,4.73-58.32-.34-1.6-.61-12.14-2.61-9.09h0Z"/>
      <path d="m272.77,108.15c2.73-9.92,7.83-4.95,10.34,1.82,2.87,10.74,1.45,27.95-9.89,33.09-1.06.46-.14,2,.91,1.55,12.24-5.28,14.25-25.61,10.08-36.76-3.1-8.6-11.17-10.62-12.15.2,0,.43.57.45.71.1h0Z"/>
      <path d="m275.39,111.77c1.88-6.93,4.68-.65,4.75,3.02,1.09,1.83-4.54,15.37-.73,11.91,6.01-12.41-1.67-27.77-4.74-15.03-.04.43.59.47.72.1h0Z"/>
      <path d="m162.07,114.14c2.06.18-.14-6.66-1.26-7.52-2.65-3.78-7.61-2.37-9.76,1.15-9.42,13.22.75,30.71,12.01,39.25.88.67,1.75-.83.87-1.48-28.93-20.64-7.48-55.43-1.54-31.9-.33-.2-.62.31-.3.51h-.02Z"/>
      <path d="m158.6,114.24c-10.65-11.65-9.28,16.29,1.21,21.13.99.7,1.95-.94.95-1.63-8.29-3.22-11.5-28.18-2.82-18.85.41.44,1.03-.2.65-.65h.01Z"/>
      <path d="m184.49,74.24c-13.5-13.74,12.35-28.97,21.52-14.52,5.31,1.54-2.99-6.42-4.89-6.35-8.55-3.18-20.93,1.15-21.65,11.29-.26,4.04,1.48,7.53,4.6,10,.29.23.71-.17.42-.42h0Z"/>
      <path d="m184.36,74.16c-21.34-4.67-7.69-34.98,10.47-30.36,1.17.23,1.67-1.57.49-1.79-23.08-5.04-33.91,32.52-10.96,32.16h0Z"/>
      <path d="m183.74,83.82c-4.61-2.15-7.35-7.51-6.52-12.52-2.77-4-1.19,7.74.6,8.57.38,1.05,6.05,5.87,5.92,3.95h0Z"/>
      <path d="m183.67,83.79c-19.61-3.12-25.53-28.15-11.81-41.42.81-.88-.5-2.2-1.31-1.31-15.07,15.04-7.66,42.47,13.12,42.73h0Z"/>
      <path d="m169.59,85.31c-2.16-4.14-3.01-8.65-2.92-13.3-4.12-4.7,1.51,15.98,2.92,13.3h0Z"/>
      <path d="m169.48,84.95c-25.37-6.23-20.77-44.92,1.04-53.09,1.17-.53.16-2.25-1.01-1.73-17.6,7.35-25.25,31.89-14.25,47.61.23,2.57,16.26,11.21,14.22,7.21h0Z"/>
      <path d="m250.6,73.46c6.05-27.61-28.69-27.35-44.25-15.03-1,.67-.06,2.29.95,1.62,17.6-12.13,44.6-12.9,43.29,13.4h0Z"/>
      <path d="m250.49,73.56c21.26-21.29-8.69-46.74-30.66-31.68-.85.53-.07,1.88.79,1.35,23.25-13.83,46.81,8.76,29.87,30.33h0Z"/>
      <path d="m262.3,89.74c10.15-7.19-5.9-31.12-5.62-23.41,5.62,5.23,11.39,16.38,5.21,22.99-.3.24.12.65.42.42h-.01Z"/>
      <path d="m262.16,89.81c10.76-1.64,15.45-17.88,9.89-26.36-.73-1.02-2.44-.03-1.7.99,5.07,8.02.79,21.54-8.26,24.78-.29.11-.28.6.08.58h0Z"/>
      <path d="m266.69,105.33c5.53-4.33,5.51-25.14,2.34-19.84,1.95,6.6.59,13.66-3.36,19.25-.44.63.56,1.17,1.01.59h0Z"/>
      <path d="m266.34,105.29c11.92-6.91,17.11-22.01,15.98-35.26-.09-1.11-1.85-1.1-1.73,0,1.79,17.03-4.86,24.68-14.24,35.25h0Z"/>
      <path d="m131.97,118.05c18.61-13.73,9.25-27.54,10.63-45.93.67-5.69,2.3-11.23,4.46-16.52.4-.99-1.2-1.42-1.6-.44-13.57,30.77,8.88,38.06-13.5,62.9h0Z"/>
      <path d="m131.68,118.13c7.73,4.07,23.3-7.81,16.63-7.32-3.79,5.02-10.33,7.32-16.47,6.74-.37-.06-.54.49-.16.57h0Z"/>
      <path d="m143.16,142.85c4.58-1.73,10.15-19.48,5.63-15.17.1,5.52-2.14,10.85-6.15,14.65-.35.33.16.82.52.52h0Z"/>
      <path d="m142.82,142.65c4.84,2.76,17.46-5.04,11.66-4.86-2.74,3.36-7.18,4.87-11.45,4.13-.48-.07-.69.59-.2.74h-.01Z"/>
      <path d="m299.23,29.65c-4.85,5.22-10.55,9.42-17.52,11.28-1.01.27-.58,1.83.43,1.57,5.9-1.46,16.59-7.4,17.08-12.84h.01Z"/>
      <path d="m299.53,28.9c-17.26,5.82-31.34-7.32-45.33-15.23-17.88-12.13-51.97-11.53-54.13,15.46-.03,1.36,2.08,1.36,2.11,0,2.47-25.91,35.73-24.64,52.5-13.15,12.87,7.83,30.92,21.18,44.86,12.92h0Z"/>
      <path d="m243.56,2.43c-1.76-1.28-19.02,3.86-13.01,5.24,3.93-2.58,8.49-3.7,13.01-4.66.26-.09.31-.51,0-.57h0Z"/>
      <path d="m243.56,2.43c-18.84-6.41-42.4,0-51.35,18.79-.54,1.08,1.08,2.03,1.62.95C203.81,1.8,225.29.02,243.56,2.43h0Z"/>
      <path d="m135.1,57.92c7.74-5.61,10.14-14.65,13.3-23.09,9.57-15.59,30.24-23.57,47.9-19.27,1.09.26,1.55-1.43.46-1.67-19.38-4.27-44.48,5.14-51.31,24.84-1.53,7.25-4.84,14.09-10.77,18.79-.29.25.13.66.42.42h0v-.02Z"/>
      <path d="m300.97,116.02c-18.84-18.5-3.87-33.32-14.25-54.5-.49-1.17-2.43-.66-1.93.53,3,7.16,4.82,14.83,4.42,22.63-1.14,7.48-1.43,15.3,2.88,21.92.78,1.68,8.17,11.13,8.87,9.42h0Z"/>
      <path d="m298.49,71.6c-1.51-8.03-23.51-15.62-18.35-10.07,6.52.5,12.7,3.93,16.65,9.13.38.31,1.68,2.13,1.7.93h0Z"/>
      <path d="m298.5,72.02c9.71-11.69-4.18-29.21-16.93-30.79-1.25-.07-1.24,1.88,0,1.94,11.32,1.68,24.87,17.43,16.39,28.3-.33.37.21.91.54.54h0Z"/>
      <path d="m300.76,115.93c-6.94-.4-16.7-1.98-18.08-10.21-.14-.75-1.34-.44-1.16.32,1.71,8.63,11.84,10.25,19.24,10.47.38,0,.38-.58,0-.59h0Z"/>
      <path d="m292.25,140.66c-3.94.95-8.13-1.11-9.63-4.84-.41-1.03-1.9-.42-1.41.6,1.12,2.32,3.16,4.12,5.65,4.82.76.44,6.86.62,5.39-.58h0Z"/>
      <path d="m292.68,140.23c-4.68-4.35-7.1-10.39-6.87-16.76.04-1.17-1.84-1.18-1.83,0,.05,6.61,3.04,13.09,8,17.46.47.42,1.16-.26.7-.7h0Z"/>
      <path d="m179.04,181.27c-1.41,8.73-3.74,17.24-7.41,25.3,1.33,9.51,12.31-29.82,7.4-25.3h0Z"/>
      <path d="m263.84,175.05c-.65,10.8,2.61,21.64,6.9,31.47.49,1.09,2.1.15,1.61-.94-3.96-8.57-6.1-17.8-7.42-27.11-.28-.8.12-4.06-1.09-3.42h0Z"/>
      <path d="m271.04,44.16c-14.55-20.34-43.78-28.06-61.25-6.84-.57.65.38,1.6.95.95,20.38-22.82,43.06-10.98,60.29,5.88h.01Z"/>
      <path d="m177.7,39c6.27-4.32,14.9-4.58,21.38-.56.72.45,1.39-.71.66-1.13-6.9-4.04-15.92-3.61-22.34,1.18-.3.22-.02.73.3.51h0Z"/>
      <path d="m144.67,106.44c7.56-4.43,11.64-13.84,11.44-22.36-.03-1.11-1.76-1.11-1.72,0,.37,8.45-3.81,16.42-10.08,21.89-.25.23.07.64.36.47h0Z"/>
      <path d="m134.81,58c11.72,3.4,25.71-15.54,19.96-13.51-4.75,10.08-11.03,12.38-19.97,13.5h0Z"/>
      <path d="m227.08,259.37c13.82-15.24,44.37-36.87,46.36-57.52.34-1.91-6.52-7.31-4.99-3.38,9.28,5.04-2.57,17.18-5.74,23.17-9.55,13.96-28.23,24.15-35.62,37.73h0Z"/>
      <path d="m224.7,257.07c-10.53-8.71-22.13-16.14-32.54-25.05-6.05-4.76-30.96-30.76-15.33-34.58,1.39-.33.8-2.46-.59-2.14-14.66,3.82-1.8,20.37,3.55,27.38,6.3,7.86,14.32,13.74,22.31,19.77,6.95,4.55,15.79,13.19,22.6,14.61h0Z"/>
      <path d="m221.91,268.86c-28.44-13.85-56.79-28.93-79.78-51-3.55-7.43,8.48-12.81,13.75-15.62,5.36-2.06,4.96-8.46,8.18-12.25,3.74-3.68,10.21-3.6,15.03-3.36,5.64-4.43-13.96-1.84-15.13.58-4.65,2.7-3.78,8.8-7.59,12.14-6.01,3.36-13.01,6.43-16.54,12.74-3.66,9.5,12.05,15.26,17.47,21.07,19.11,14.65,43.24,28.48,64.61,35.7h0Z"/>
      <path d="m226.63,269.76c21.59-11.52,42.97-23.84,61.78-39.6,12.55-10.85,21.83-18.95,1.03-27.4-7.91.98,15.05,7,9.83,12.86-18.22,23.79-50.08,38.2-72.65,54.12v.02Z"/>
      <path d="m292.65,214.34c-4.64,5.79-10.43,11.18-17.23,14.21.15-.26.24.33.2.35,5.11-7.19,11.21-14.41,12.9-23.39,1.25-11.67-12.53-18.11-22.61-16.3-.98.15-.57,1.65.41,1.49,5.22-.84,10.53.26,14.91,3.23,14.83,9.7-1.94,25.25-6.65,35.36,2.22,3.04,20.15-13.98,18.06-14.94h.01Z"/>
      <path d="m212.37,254.57c-3.46-3.76-7.02,4.85-3.56,6.84,3.65,2.22,8.43-1.95,7.62-5.89-.39-2.18-3.33-4.02-5.37-2.53-1.56,1.23.63,2.68,1.35,1.71.11-.04.47-.13.18-.07.17,0,.33,0,.49,0-.28-.03,0,0,.04.02.35.12.34.09.74.38-.17-.13-.04-.03,0,0,.07.03.4.49.23.23.05.04.27.5.19.3.07.2.13.41.16.62-.03-.13.03.54-.02.68.03-.2-.03.15-.04.15-.07.51-.58,1.44-.79,1.67-.09.16-.7.7-.58.58-.21.19-.97.57-.87.53-.63.28-1.57.4-1.77.33-.19-.03-.39-.08-.57-.16.24.12-.5-.32-.24-.15-.07-.04-.4-.38-.28-.28-1.1-1.53.32-6.37,2.63-4.62.22.28.61-.08.47-.36h0v.02Z"/>
      <path d="m238.78,252.41c-7.43-1.71-7.07,10.11.38,8.23,5.77-1.35,1.66-11.52-1.46-8-.3,1.11,1.02,1.45,1.32,1.65.22.11.77.91.79,1.06.11.16.23,1.01.21.71.01.22.01.75,0,.98,0,0,.04-.22,0-.11-.13.61-.14.65-.48,1.16-.6.81-2.48,1.12-3.77.09.12.11-.41-.35-.47-.48,0,0,.09.12.03.04-.28-.4-.36-.6-.45-1.07,0,.02,0,.13,0,.03-.01-.12,0-.65,0-.54.1-.56.24-.9.57-1.36,0,0,.09-.12.02-.04.75-.95,1.81-1.58,3.04-1.41.66.11.89-.74.27-.99h0v.05Z"/>
      <path d="m211.52,256.1c-5.83,33.2-7.43,67.13-5.86,100.78.05,1.06,1.7,1.07,1.66,0-1.14-26.29-.26-52.63,2.39-78.8.74-7.31,1.83-14.57,2.62-21.86.05-.46-.72-.57-.81-.11h0Z"/>
      <path d="m237.66,256.34c-2.65,29.56-3.1,59.28-1.7,88.92.05,1.11,1.79,1.12,1.73,0-1.92-29.03.28-61.68-.03-88.92h0Z"/>
      <path d="m141.9,218.3c-30.03,7.92-58.56,21.73-83.19,40.66-.82.63,0,2.04.82,1.4,23.88-19.39,55.46-32.04,82.37-42.06h0Z"/>
      <path d="m301.4,215.96c28.71,7.11,56.07,19.21,80.99,35.08.82.53,1.59-.79.76-1.31-24.55-15.2-54.8-29.21-81.77-33.78h.02Z"/>
      <path d="m213.68,140.08c-5.24,6.88,2.92,11.53,1.1,7.07-3.31-1.54.91-8.12-1.1-7.07h0Z"/>
      <path d="m213.77,144.16c.21.18.4.22.67.22l-.31-.08c.51.26,1.35-.02,1.76.09.35.03,1.22.37,1.29.38.31.1,1.18.65,1.15.65.34.28.67.59.95.93.27,1.42,3.04,1.64,2.31-.54-1.33-2.53-5.28-4.12-7.69-2.35l.22-.22c-.23.15-.71.61-.36.91h.01Z"/>
      <path d="m223.18,100.18c-6.87,15.09,13.21,40.45-.03,45.27-.83.49-.08,1.78.76,1.3,5.46-2.27,7.13-7.64,4.5-12.81-1.74-6.64-4.36-13.13-5.45-19.93-.72-4.47-.45-9.25.79-13.67.1-.37-.46-.52-.57-.16h0Z"/>
      <path d="m231.3,140.09c1.35,1.29,1.42,3.08.36,4.38-.35.52-1.45,1.33-2.34,1.54-1.25.34-.71,2.3.53,1.93,8.39-2.67,1.77-10.84,1.45-7.85h0Z"/>
      <path d="m230.33,144.9c-.13-1.04-2.5-2.7-2.96-1.24.07.72.71.54,1.06.57-.17,0,0,0,.04,0,.09.01.46.14.35.1.16.08.33.16.47.27.13.11.96,1.19,1.03.26h0v.03Z"/>
      <path d="m232.29,108.31c6.45-5.34,19.62-8.14,23.34,1.93.5,1.29,2.32.56,1.77-.75-2.62-9.88-23.47-10.09-25.12-1.18h0Z"/>
      <path d="m232.43,107.62c-1.43.92.2,11.19,1.84,6.33-.85-1.73-.16-5.54-1.83-6.33h-.01Z"/>
      <path d="m234.33,114.85c2.76,2.78,29.7-1.42,22.61-4.41-7.05,2.86-14.91,4.45-22.52,3.7-.41-.05-.5.64-.1.72h.01Z"/>
      <path d="m205,107.59c1.13,2-.11,7.92,1.92,8.12,2.99.19-.36-12.46-1.91-8.12h-.01Z"/>
      <path d="m204.96,106.75c-8.28-6.34-25.17-3.02-25.77,9.04-.11,1.13,1.65,1.12,1.77,0,.81-9.87,13.21-12.29,21.03-9.35.78.15,2.81,1.49,2.98.31h0Z"/>
      <path d="m205.58,115.38c-7.7,2.2-16.11,2.06-23.8-.08-5.41,2.54,9.18,3.58,10.86,3.44,2.21.29,13.64-1.49,12.94-3.36h0Z"/>
      <path d="m248.4,160.88c-11.44,19.86-37.04,16.92-51.64,2.34-.95-.87-2.37.54-1.41,1.41,11.7,11.1,30.9,17.12,44.98,6.85,2.09-.99,10.01-9.56,8.07-10.61h0Z"/>
      <path d="m198.99,164.89c7.34,1.74,14.74,2.94,22.3,2.88,2.24.43,30.64-2.65,23.91-5.78-14.5,5.17-32.8,4.08-46.21,2.9h0Z"/>
      <path d="m201.99,168.98c13.25,4.38,27.58,4.29,40.75-.36.97-.34.55-1.9-.43-1.55-12.59,5.43-28.92,3.63-40.32,1.91Z"/>
      <path d="m220.62,186.01c1.38,1.04,16.16,1.42,11.31-1.37-3.61.94-7.52,1.21-11.23.79-.34-.04-.4.5-.08.58Z"/>
      <path d="m130.33,301.72c-1.61,10.25-5.62,19.83-9.51,29.36-4.71,16.36-8.44,33-13.19,49.38-.26,2.44-8.64,32.84-2.85,26.1,2.52-24.72,11.25-48.1,16.62-72.22,3.45-10.06,9.78-23.18,8.95-32.61h-.02Z"/>
      <path d="m10.26,410.61c-13.88,21.64-18.94,58.2,17.53,54.75,54.62,1.22,109.19-.66,163.85-.77,2.74-.07,11,.52,6.99-2.3-18.05.04-36.09.37-54.14.55-35.81.18-71.74,1.04-107.44,1.03-19.21-.69-38.6,1.58-34.88-24.67,1.01-9.89,4.61-19.17,9.2-27.93.41-.74-.66-1.34-1.12-.65h0Z"/>
      <path d="m74.13,407.22c26.17-2.41,51.78,4.73,77.85,5.31,16.51.28,35.8-.71,48.24,12.07.99.97,2.52-.56,1.52-1.52-15.54-15.48-39.04-11.81-59.02-12.89-22.2-1.63-48.03-8.3-68.61-2.96h.02Z"/>
      <path d="m201.22,425.46c1.2,11.98,1.09,24.34-2.78,35.92,2.65,6.38,5.28-15.76,5.17-17.56-.08-4.25.48-16.26-2.38-18.36h0Z"/>
      <path d="m207.63,437.9c3.22-.76,6.63-.61,9.82.25.86.23,1.22-1.13.36-1.32-1.28-.65-11.95-.66-10.18,1.07Z"/>
      <path d="m383.99,253.05c17.83,34.66,13.21,67.67,14.47,104.56.8,6.31,2.42,12.5,3.15,18.81,1.83,13.65-2.1,27.86,1.28,41.22,3.78,12.79,5.6,26.21,3.36,39.47-.35,2.26-.79,4.51-1.29,6.74-.33,1.49,1.96,2.12,2.29.63,6.83-23.36-2.74-40.63-3.46-62.91,1.42-12.97.61-25.92-2.33-38.61-3.88-27.03,2.32-54.97-5.45-81.72-2.42-9.96-5.66-19.98-11.13-28.73-.35-.58-1.15-.07-.89.52h0v.02Z"/>
      <path d="m118.36,340.97c-3.89,7.64-2.59,16.69-1.64,24.89.97,13.81-3.92,27.39-2.44,41.31.07,1.64,2.63,1.65,2.56,0-1.22-13.17,2.77-25.95,2.61-39.02-.81-6.88-2.41-13.87-1.21-20.86-.09-1.42,1.69-6.24.13-6.31h0Z"/>
      <path d="m328.63,302.21c-17.08,51.99-3.73,108.18-2.61,161.72.1,1.57,2.56,1.58,2.45,0-1.94-40.34-6.83-80.7-5.95-121.1.79-13.68,3.6-27.11,6.83-40.4.11-.49-.57-.66-.74-.2h0l.02-.02Z"/>
      <path d="m210.22,85.98c-3.5-.78-8.82.27-20.96.04-.19,0-4.71-.23-6.98.35-3.96.55-11.39,16.38-10.84,16.65.69.51,6.04-4.12,10.23-7.75.21-.29,1.35-.73,1.76-.65,2.08.04,14.04-.44,20-.02,0,0,2.58.3,3.62-.57,1.45-2.2,3.03-5.46,3.17-8.05Z"/>
      <path d="m225.93,85.97c3.73-1.37,6.48.23,12.59-.07,8.35.64,11.34-.5,16.84,1.34,7.76,7.86,17.33,21.05-.4,7.67-6.75-4.39-18.86.95-26.88-.85-.94-1.07-2.47-5.97-2.15-8.07v-.02Z"/>
      <path d="m362.61,331.05c8.95-20.23,15.28-41.64,18.96-63.45-.02-1.88,3.97-20.98.53-16.92-1.52,27.38-10.64,56.34-19.5,80.37h0Z"/>
      <path d="m66.47,317.89c-5.06-18.97-6.94-38.62-6.55-58.22.02-1.03-1.58-1.03-1.59,0,.19,18.9,1.96,42.02,8.14,58.22h0Z"/>
      <path d="m201.26,425.01c7.41-2.38,15.79-3.19,22.35,1.97,6.93-1.16-10.32-7.32-12.5-5.94-2.38.17-10.22,1.27-9.85,3.99v-.02Z"/>
      <path d="m199.71,463.49c1.69,1.27,28.37,3.12,22.39-1.04-7.42.78-14.86-.03-22.3.37-.38.05-.48.54-.09.68h0Z"/>
      <path d="m223.75,426.16c1.71,11.99,1.34,24.27-2.24,35.89,2.72,6.18,5.3-16.43,5.09-18.32.26-2.33-.56-19.28-2.84-17.56h0Z"/>
      <path d="m206.62,430.75c3.71-1.84,8.12-1.42,11.85.07,1,.4,1.47-1.25.45-1.63-1.52-1.66-14.23-.14-12.3,1.55h0Z"/>
      <path d="m207.25,445.34c1.53-1.07,15.81,1.28,11.11-1.88-1.39-.2-13.61.02-11.11,1.88Z"/>
      <path d="m207.33,452.07c2.19.36,10.71,1.35,11.19-1.11-1.27-1.48-4.13.33-5.97-.02-1.03.38-6.91-.89-5.23,1.13h0Z"/>
      <path d="m205.87,459.24c1.44,1.68,16.63,1.24,11.52-1.52-3.59,1.38-7.53,1.42-11.16.17-.85-.29-1.2,1.03-.37,1.34h0Z"/>
      <path d="m187.9,242.41c-14.17-13.36-38.35-20.4-27.52-44.15.5-1.36-1.68-1.95-2.17-.6-4.67,10.59-3.5,23.55,7.45,29.6,6.88,4.77,15.42,13.1,22.24,15.14h0Z"/>
      <path d="m148.35,353.25c36.03,19.84,72.37,39.18,109.47,56.94.87.41,1.63-.88.76-1.3-14.32-6.9-28.64-13.82-42.86-20.92-22.4-10.42-46.4-25.24-67.36-34.73h-.01Z"/>
      <path d="m154.92,374.32c21.58,12.6,43.73,24.22,66.22,35.08,2.19.5,22.82,12.01,20.25,7.5-29.3-11.93-59.87-29.09-86.46-42.59h0Z"/>
      <path d="m9.11,415.55c18.62-27.21,22.62-61.14,27.56-92.94,5.49-20.73,15.15-39.98,22.37-60.26.59-1.5-1.83-2.15-2.41-.66-6.85,18.8-15.45,37.04-21,56.28-4.19,20.1-5.45,40.83-11.95,60.46-2.79,9.25-6.33,18.26-10.55,26.95-.67,2.19-5.49,9.36-4.03,10.19h0v-.02Z"/>
      <path d="m356.49,423.79c69,17.31,54.8,8.7,0-.01h0Z"/>
      <path d="m372.11,452.21c2.61-.29,36.17-12.02,29.68-13.74-8.67,6.03-21.85,9.86-29.67,13.73h-.01Z"/>
      <path d="m259.9,416.1c7.56-1.47,34.13-7.34,23.3,8.22-.34.35-.38.98,0,1.32,5.43,3.6,4.85,9.48-.46,12.84-.44.33-.67,1-.19,1.44,6.03,7.38-1.58,8.35-1.62,12.48,6.29,8.55-7.02,11.59-13.42,11.37-3.1,1.5-53.78-6.12-44.12-.65,10.29.38,69.19,10.04,59.63-10.81-.45-.6-.07-.97.4-1.41,3.97-2.99,4.52-9.45.24-12.41l.19,1.44c5.86-4.3,7.52-11.24.67-15.6v1.32c9.85-11.81-5.37-15.87-14.89-12.54-1.31.62-11.16,2.05-9.73,3h0Z"/>
      <path d="m283.1,412.7c-1.57-2.5-2.88-7.06-6.61-6.31-6.95.99-14.03,1.5-20.93,2.79-12.06,2.66-18.73,15.74-31.43,17.22-1.44.29-.79,2.69.61,2.2,16.49-4.49,23.06-20.02,41.95-19.43,8.51-.63,10.31-4.22,15.94,3.9.25.25.61-.07.47-.36h0Z"/>
      <path d="m278.13,439.96c.85-.32,6.56.42,4.52-1.17-.73.36-5.71.16-4.51,1.16h-.01Z"/>
      <path d="m277.4,452.44c.88-.07,6.11.8,3.76-.99-.67.23-4.9.03-3.76.98h0Z"/>
      <path d="m277.37,426.12c.95-.32,9.49-.03,6.34-1.7-1.02.44-7.42.64-6.35,1.71h.01Z"/>
      <path d="m20.64,430.02c-8.09,6.45-14.67,14.74-18.58,24.34-.38.94,1.17,1.37,1.54.42,3.69-9.47,9.51-17.96,17.46-24.35.3-.24-.12-.66-.42-.42h0Z"/>
      <path d="m56.06,450.31c-15.51,5.86-31.88,8.82-48.44,9.34-1.02.03-1.03,1.64,0,1.59,15.84-1.03,35.7-4.03,48.43-10.93h0Z"/>
    </g>
    <g id="Schatten">
      <path class="cls-7" d="m288.47,203.17c1.55.87,3.1,1.73,4.65,2.6-1.2,9.23-12.82,21.33-18,23.25,4.9-4.69,12.02-17.21,13.34-25.86h.01Z"/>
      <path class="cls-7" d="m258.91,184.1c3.54,8.62,5.91,26.37,4.47,36.38,5.87-8.66,14.86-17.52,5.02-22.77-1.6-7.21-3.19-14.42-4.79-21.64-1.57,2.67-3.13,5.35-4.7,8.02h0Z"/>
      <path class="cls-7" d="m249.97,255.93c14.96-3.84,44.36-24.42,54-39.64-.95-.36-1.91-.71-2.86-1.07-12.55,14.81-35.55,32.67-51.14,40.71Z"/>
      <path class="cls-7" d="m271.26,100.75c2.26-2.72,4.94-6.72,6.66-10.14,1.11,8.92,15.53,24.05,22.84,25.63-4.31.27-12.68-2.14-15.98-4.44,2.14,11.62-3.46,19.52,7.53,28.79-2.98,1.9-10.25-1.44-10.82-3.59-1.37,2.72-6.24,6.59-8.69,7.27.6-13.3-.01-30.17-1.56-43.51h.02Z"/>
      <path class="cls-7" d="m177.33,194.73c-.78,6.87-.28,17.59,1.19,24.44-8.18-8.6-12.12-20.93-1.19-24.44Z"/>
      <path class="cls-7" d="m126.55,318.46c-7.09,28.35-.92,56.28-5.39,90.4-2.12-.27-4.25-.54-6.37-.81-.14-6.83,1.92-24.26,2.92-31.87-.03-29.33-4.03-27.3,8.85-57.72h0Z"/>
      <path class="cls-7" d="m1.03,445.59c2.17,2.77,5.77,6.64,11.18,9.57,9.45,6.24,44.43,4.74,50.63,5.11,31.43-1.41,70.94,2.45,133.61-1.97,2.01-.33,3.6-.67,4.42-.85-.64,1.96-1.28,3.93-1.92,5.89-51.18.97-89.53-.69-138.59,1.43-8.37.46-16.77-.18-25.15-.16-23.09.96-31.96-1.31-34.19-19.01h.01Z"/>
      <path class="cls-7" d="m116.73,350.44c-6.95,15.5-14.11,38.05-17.38,55.93,1.42.06,2.84.13,4.25.19,3.8-18.43,8.4-38.13,13.13-56.12Z"/>
      <path class="cls-7" d="m321.23,347.93c-.13,38.97-.27,77.93-.4,116.9,2.15-.01,4.31-.03,6.46-.04-2.02-38.95-4.04-77.91-6.06-116.86Z"/>
      <path class="cls-7" d="m399.76,359.12c.62,11.19-1.91,39.33-2.34,50.42,1.58,22.87,6.67,30.95-.28,55.49,2.98.01,5.95.03,8.93.04,7.71-25.83-.15-32.75-2.7-56.56.14-18.01,2.45-27.82-3.62-49.4h.01Z"/>
      <path class="cls-7" d="m223.45,458.76c-4.1,2.83-18.64,2.53-22.52-.37l-2.22,4.45c6.12,1.47,16.82,1.82,23.4.66.45-1.58.9-3.16,1.35-4.74h-.01Z"/>
      <path class="cls-7" d="m223.92,457.8c16.8,2.02,42.75,7.91,52.02-.19,3.99-3.08,5.95-14.46,7.29-18.33,4.22,2.11,2.31,11.29-1.35,13.04,11.63,18.39-48.52,12.01-58.51,8.85.18-1.13.38-2.24.55-3.37Z"/>
    </g>
  </g>
</svg>