<?xml version="1.0" encoding="UTF-8"?>
<svg xmlns="http://www.w3.org/2000/svg" viewBox="0 0 409.64 465.87">
  <defs>
    <style>
      .cls-1 {
        mix-blend-mode: darken;
        opacity: .33;
      }

      .cls-1, .cls-2, .cls-3, .cls-4, .cls-5, .cls-6, .cls-7 {
        stroke-width: 0px;
      }

      .cls-2 {
        fill: #350002;
      }

      .cls-3 {
        fill: #e6e6e6;
      }

      .cls-8 {
        isolation: isolate;
      }

      .cls-5 {
        fill: #2e3192;
      }

      .cls-6 {
        fill: #52330e;
      }

      .cls-9 {
        fill: #603813;
        stroke: #42210b;
        stroke-miterlimit: 10;
      }

      .cls-7 {
        fill: #a8865d;
      }
    </style>
  </defs>
  <g class="cls-8">
    <g id="Ebene_2" data-name="Ebene 2">
      <g id="Farbe">
        <path class="cls-7" d="m164.8,87.58c-.68,8.9-1.45,16.23-2.02,21.19-1.44-1.46-4.39-4.01-7.4-3.45-5.15.97-7.08,10.42-7.15,15.53-.18,13.96,13.13,23.71,15.92,25.68.36,3.89,1.21,8.81,3.18,14.21,3.45,9.47,8.74,16.04,12.39,19.86-.78,4.15-1.73,8.53-2.89,13.11-1.22,4.78-2.54,9.27-3.91,13.45.13,1.77.47,4.34,1.46,7.25,3.74,10.88,13.41,15.91,21.09,21.26,7.34,5.11,18.04,12.84,31.4,23.49,11.82-10.94,19.69-19.11,24.35-24.15,2.05-2.22.66-.78,5.27-5.9,8.36-9.28,11.41-12.19,13.45-17.53.86-2.25,1.34-4.19,1.62-5.53-1.79-4.02-3.63-8.93-5.08-14.65-1.5-5.9-2.24-11.24-2.58-15.73,1.93-3.75,3.94-8.36,5.6-13.78,2.04-6.7,2.95-12.75,3.34-17.62,1.99-.89,5.01-2.56,7.66-5.62,6.66-7.67,5.41-17.61,4.9-21.71-.67-5.32-2.86-14.65-7-15.2-1.25-.17-2.75.45-3.78,1.29-2.14,1.77-2.19,4.54-2.18,5.02.36-3,4.04-38.64-21.05-58.77-28.92-23.2-76.43-10-84.26,8.43-1.8,4.24-.52,6.44-2.32,29.87Z"/>
        <path class="cls-6" d="m206.57,58.99c-1.01-1.24-3.65-4.14-8.04-5.36-.72-.2-8.73-2.28-14.19,3.18-.59.59-4.28,4.4-3.81,10.09.33,4,2.52,6.65,3.32,7.53-2.45-1.01-4.9-2.02-7.35-3.02-.07,1.19-.08,3.97,1.48,6.98,1.56,3.01,3.83,4.61,4.85,5.23-2.12-.46-5.05-1.35-8.17-3.19-4.6-2.72-7.37-6.18-8.81-8.3.18,1.88.52,4.09,1.15,6.51.63,2.42,1.41,4.52,2.17,6.26-1.32-.3-2.64-.6-3.96-.89-.82,8.47-1.64,16.94-2.46,25.41-2.83-3.99-5.05-4.65-6.47-4.61-4.45.14-5.67,7.33-12.13,11.11-4.13,2.42-8.76,2.43-12.38,1.91,2.89-2.3,6.79-6.09,9.06-11.74,3.9-9.67-.17-16.77.66-30.14.31-4.99,1.38-12.14,4.96-20.7-1.57.71-3.64,1.46-6.13,1.94-2.06.4-3.91.52-5.43.51,2.41-2.27,5.7-5.83,8.55-10.82,3.8-6.68,3.01-9.28,5.33-14.01,6.66-13.55,25.45-17.12,29.72-17.94,4.03-.77,10.3-1.45,18.04-.23,2.98-3.03,10.25-9.59,21.78-12.54,10.56-2.69,19.33-.98,23.43.1-1.52.09-4.01.44-6.71,1.82-1.83.93-3.17,2.05-4.09,2.94,9.47,1.5,16.58,4.19,21.32,6.38,14.79,6.83,20.46,15.12,33.7,16.72,5.51.67,10.17-.09,13.17-.8-1.59,2.33-4.28,5.65-8.46,8.6-3.13,2.21-6.12,3.52-8.4,4.32,1.47.61,13.18,5.62,16.97,14.69.78,1.86,2.16,5.11,1.4,9.19-.48,2.58-1.62,4.49-2.42,5.61-1.2-1.75-3.08-4.08-5.88-6.25-2.09-1.63-4.11-2.72-5.74-3.45,2.76,8.07,3.57,14.66,3.83,19.02.62,10.46-1.53,15.5,1.15,22.85,2.2,6.03,6.33,10.02,9.17,12.3-2.2-.17-4.85-.54-7.77-1.33-3.35-.9-6.13-2.09-8.3-3.19-.12-1.29-.68-5.67-4.21-8.3-.97-.72-2.83-2.1-4.85-1.53-1.95.55-3.4,2.73-3.6,5.48-.18-2.41-.36-4.83-.53-7.24-1.73,1.31-3.46,2.62-5.18,3.93,1.2-1.57,3.62-5.15,4.21-10.34.45-3.88-.31-7.02-.89-8.81-2.17,1.53-4.34,3.06-6.51,4.6.58-1.36,3.33-8.28.13-15.83-2.1-4.94-5.69-7.66-7.31-8.74-.58,1.26-1.39,2.73-2.5,4.29-1.01,1.4-2.03,2.54-2.95,3.44.15-1.06,1.39-11.18-5.62-17.36-5.45-4.8-12.83-3.87-18.94-3.14-6.97.83-12.24,3.33-15.27,5.06-1.36.6-2.72,1.19-4.09,1.79Z"/>
        <path class="cls-6" d="m149.38,128.31c.06,1.51-.02,4.22-1.28,7.28-1.36,3.31-3.41,5.39-4.57,6.42,1.07.26,3.43.68,6.24-.12,3.02-.87,4.88-2.67,5.63-3.48-2.01-3.36-4.01-6.73-6.02-10.09Z"/>
        <path class="cls-6" d="m285.21,126.27c.28,2.25,1.04,5.84,3.32,9.57,1.24,2.04,2.62,3.6,3.8,4.74-.9.32-2.43.72-4.28.48-3.89-.51-6.09-3.44-6.54-4.06,1.23-3.57,2.47-7.15,3.7-10.72Z"/>
        <path class="cls-3" d="m205.66,107.06c-2.44-1.28-7.23-3.3-13.15-2.63-2.6.29-6.15.7-8.97,3.59-2.54,2.61-3.08,5.81-3.23,7.17,2.91,1.07,7.56,2.39,13.39,2.39,5.44,0,9.83-1.16,12.67-2.15-.24-2.79-.48-5.58-.72-8.37Z"/>
        <path class="cls-3" d="m232.87,107.35c1.41-1.14,7.46-5.81,14.48-4.61,1.22.21,3.4.61,5.48,2.32,2.89,2.38,3.59,5.67,3.78,6.78-2.57,1.17-6.65,2.67-11.86,3.1-4.88.4-8.92-.29-11.57-.96-.1-2.21-.2-4.42-.3-6.63Z"/>
        <circle class="cls-9" cx="194.57" cy="111.04" r="5.84"/>
        <circle class="cls-9" cx="243.76" cy="108.82" r="5.67"/>
        <circle class="cls-4" cx="194.57" cy="110.94" r="2.76"/>
        <circle class="cls-4" cx="244.01" cy="108.83" r="2.68"/>
        <path class="cls-5" d="m141.25,218.46c-3.9,1.34-9.58,3.33-16.39,5.88-19.65,7.35-30.3,11.33-41.99,18.23-6.11,3.61-14.54,9.22-23.75,17.63-3.61,8.46-8.68,20.64-14.4,35.52-5.15,13.38-7.66,20.1-9.33,26.51-4.49,17.24-1.79,19.25-6.92,42.24-2.72,12.17-4.04,11.04-7.89,25.67-.93,3.55-2.21,8.69-5.61,14.83-2.37,4.29-3.17,4.33-5.63,8.4-4.51,7.46-6,14.32-7.27,20.54-1.91,9.28-2.86,13.93-.82,18.66,2.43,5.62,7.36,8.65,10.2,10.05,12.68,1.47,22.93,2,29.64,2.22,25.8.86,48.55-1.19,57.32-.47.91.07,4.54.41,9.32-.09,1.8-.19,3.24-.45,4.08-.61,1-18.54,1.99-37.08,2.99-55.62-3.67-.94-7.34-1.88-11.01-2.81,1.26-8.56,2.71-15.44,3.81-20.14,1.02-4.39,1.76-7.03,6.55-24.82.76-2.81,2.14-7.98,2.88-10.71,1.28,7.35,1.42,13.26,1.34,17.08-.19,9.96-1.96,14.59-2.57,25.47-.4,6.99-.04,12.66.28,16.15h-3.32c-2.52,18.69-5.04,37.38-7.57,56.07,29.15.08,58.3.16,87.45.24,5.11-.11,13.56-.26,24-.24,18.45.03,32.01.55,37.02.72,27.11.95,37.62,0,104.69-.09,10.74-.01,27.29-.01,47.75.1,4.42-15.55,3.4-25.82,1.5-32.44-.76-2.65-3.54-11.78-4.62-22.58-.92-9.2.18-12.49.41-21.85.44-17.72-3.13-21.82-4.59-41.13-1.17-15.41.47-21.18.53-32.3.07-14.97-2.74-36.65-16.44-64.09-13.27-8.26-29.48-16.94-48.6-24.51-11.91-4.72-23.2-8.3-33.57-11.06-.32-1.35-.93-3.11-2.16-4.89-3.38-4.88-8.78-6.07-10.26-6.34-.13-1.19-.47-3.01-1.45-5.02,0,0-1.13-2.33-3.11-4.3-2.99-2.97-9.63-5.05-17.7-4.43.98,2.74,1.95,5.58,2.89,8.51.99,3.08,1.89,6.09,2.72,9.02-1.55,3.44-4.33,8.95-8.85,14.98-5.88,7.85-10.77,11.32-20.99,21.18-3.49,3.36-8.73,8.57-14.92,15.33-11.02-8.88-20.11-15.58-26.4-20.08-8.26-5.9-14.18-9.77-20.28-17.47-4.26-5.38-6.9-10.46-8.47-13.94,1.91-3.08,4.14-7.42,5.62-12.94.92-3.43,1.35-6.56,1.53-9.19-.73-.22-7.84-2.23-14.06,2.48-5.72,4.33-6.15,10.9-6.19,11.82-5.53,3.46-10.35,6.61-14.47,9.36-1.36.91-3.39,2.3-3.86,4.68-.38,1.9.41,3.62.96,4.58Z"/>
        <path class="cls-3" d="m196.49,164.31c6.82,1.58,16.14,3,27.19,2.55,9.55-.39,17.62-2.06,23.78-3.81-1.46,1.61-2.92,3.22-4.38,4.83-4.58,1.61-11.28,3.4-19.53,3.7-8.59.32-15.65-1.09-20.43-2.43-2.21-1.62-4.42-3.23-6.64-4.85Z"/>
        <path class="cls-2" d="m204.13,169.43c1.64,1.27,11.49,8.67,24.27,6.17,6.91-1.35,11.61-5,13.85-7.02-3.98,1.13-8.76,2.15-14.23,2.62-9.74.83-17.99-.38-23.89-1.77Z"/>
        <path class="cls-7" d="m224.92,428.19c5.87-2.12,10.05-4.68,12.75-6.6,5.97-4.23,9.58-8.76,17.82-11.23.86-.26,1.46-.4,2.56-.66,5.8-1.35,12.56-2.25,20.28-2.09,1.46,1.98,2.93,3.95,4.39,5.93.49.18,2.9,1.15,3.93,3.69,1.06,2.6.23,5.78-2.12,7.89.24.16,3.67,2.64,3.5,6.93-.11,3.01-1.95,5.73-4.74,7.02.26.24,2.91,2.8,2.39,6.66-.51,3.8-3.65,5.57-3.97,5.75.85.99,2.55,3.27,2.07,5.72-.67,3.43-5.16,4.97-8.41,6.09-4.13,1.42-7.64,1.59-11.31,1.61-8.9.05-15.64-.78-16-.82-5.74-.71-14.07-1.64-24.83-2.55,1-4.94,1.84-10.77,2.13-17.34.26-5.96.03-11.35-.43-16.01Z"/>
      </g>
      <g id="Outline_3" data-name="Outline 3">
        <path class="cls-4" d="m270.58,100.75c1.08,11.53,1.91,23.1,1.49,34.68-.33,8.93-1.14,17.99-3.58,26.62-2.27,8.06-6.52,15.25-10.92,22.31-2.28,3.65-4.64,7.26-7.1,10.79-2.31,3.33-4.81,6.69-8.03,9.19-7.05,5.47-16.95,5.68-25.08,2.6-4.53-1.71-8.89-4.46-12.85-7.23-3.29-2.3-6.34-4.92-9.44-7.46-4.37-3.58-8.97-6.9-13.28-10.54-2.7-2.28-5.14-4.82-7.15-7.73-4.07-5.91-6.27-12.82-7.73-19.79-1.89-9-2.77-18.3-3.16-27.49-.45-10.56-.08-21.14,1.09-31.64.35-3.12.77-6.23,1.24-9.33.19-1.25-1.72-1.79-1.91-.53-3.12,20.71-3.87,42.2-.71,62.97,1.25,8.21,3.15,16.6,7.23,23.91,1.37,2.47,3.04,4.77,4.91,6.88,3.68,4.16,8.23,7.37,12.57,10.8,3.78,2.98,7.45,6.11,11.28,9.04,3.59,2.74,7.43,5.08,11.37,7.27s8.29,3.86,13,4.38c4.96.54,10.06.09,14.71-1.82,8.06-3.31,12.8-11,17.39-18s9.54-14.46,12.55-22.47,4.3-16.29,5.08-24.59c1.05-11.21.77-22.54-.35-33.73-.31-3.11-.76-6.19-1.27-9.27-.12-.75-1.41-.58-1.34.18h0Z"/>
        <path class="cls-4" d="m272.77,108.15c.71-1.81,1.19-3.81,2.73-5.14,1.15-.99,2.26-.76,3.35.2,1.95,1.73,3.31,4.36,4.26,6.76,1.57,4,1.65,8.32,1.04,12.52s-1.33,8.6-2.84,12.52-4.44,6.47-8.09,8.05c-1.06.46-.14,2,.91,1.55,3.72-1.6,6.89-4.42,8.54-8.15.92-2.08,1.44-4.29,1.9-6.51.53-2.54,1.04-5.08,1.37-7.65.64-4.96.41-9.86-1.73-14.45-1.16-2.49-2.73-5.55-5.27-6.88-4.33-2.27-6.79,3.69-6.88,7.08-.01.43.57.45.71.1h0Z"/>
        <path class="cls-4" d="m275.39,111.77c.27-.78.98-3.16,2.08-3.26.64-.06,1.11.98,1.36,1.44.79,1.48,1.28,3.17,1.31,4.84.07,3.87-1.1,7.83-2.31,11.47-.33,1,1.25,1.43,1.58.44,1.17-3.51,2.2-7.22,2.37-10.94.08-1.71-.19-3.39-.81-5-.52-1.34-1.28-3.25-2.83-3.67-2.38-.65-3.33,2.94-3.47,4.58-.04.43.59.47.72.1h0Z"/>
        <path class="cls-4" d="m162.07,114.14l.13.09c.08.05.22.06.3,0,.58-.43.26-2.06.23-2.63-.08-1.74-.84-3.63-1.92-4.98-1.25-1.55-3.19-2.69-5.23-2.25-1.9.42-3.39,1.91-4.53,3.4-5.97,7.78-3.91,18.14.53,26.11,2.87,5.15,6.8,9.59,11.48,13.14.88.67,1.75-.83.87-1.48-6.65-4.92-12.21-12.07-14.21-20.21-1.08-4.38-1.31-9.5.72-13.65,1.14-2.32,3.46-6.16,6.47-5.88,2.17.2,3.68,2.34,4.42,4.19.29.74.61,1.58.78,2.36.07.32,0,.67.07.99.02.08-.03.18,0,.26.1.42-.23-.23.21.04-.33-.2-.62.31-.3.51h0Z"/>
        <path class="cls-4" d="m158.6,114.24c-1.12-1.34-3.26-3.89-5.25-2.56s-2.13,4.64-2.16,6.73c-.08,6.8,3.11,13.04,8.62,16.96.99.7,1.95-.94.95-1.63-4.59-3.19-7.34-8.14-7.82-13.7-.18-2.11-.31-4.8.8-6.71s3.33.62,4.2,1.56c.41.44,1.03-.2.65-.65h0Z"/>
        <path class="cls-4" d="m184.49,74.24c-2.23-1.9-3.65-5.05-3.71-7.96-.06-3.1,1.45-6.33,3.65-8.46,4-3.86,10.43-4.72,15.58-3.01,2.34.78,4.53,2.74,6,4.91.68,1,2.31.04,1.62-.95-1.64-2.32-3.81-4.39-6.51-5.4-3.09-1.16-6.6-1.26-9.81-.63-5.99,1.16-11.43,5.48-11.84,11.92-.26,4.04,1.48,7.53,4.6,10,.29.23.71-.17.42-.42h0Z"/>
        <path class="cls-4" d="m184.36,74.16c-6.06-.86-11.03-6.24-10.96-12.39.08-6.46,3.7-12.63,9.26-15.89,3.68-2.16,7.98-2.89,12.17-2.08,1.17.23,1.67-1.57.49-1.79-8.13-1.55-16.34,2.19-20.66,9.24-3.76,6.12-4.72,15.41,1.31,20.46,2.39,2.01,5.26,2.79,8.31,3.04.33.03.41-.54.08-.58h0Z"/>
        <path class="cls-4" d="m183.74,83.82c-4.61-2.15-7.35-7.51-6.52-12.52.15-.9-1.24-1.28-1.37-.38-.46,3.1.14,6.36,1.97,8.95,1.4,1.98,3.39,3.52,5.62,4.46.34.15.65-.35.3-.51h0Z"/>
        <path class="cls-4" d="m183.67,83.79c-5.12-1.06-9.89-3.66-13.53-7.43-5.53-5.74-7.05-14.12-5.09-21.69,1.19-4.61,3.59-8.8,6.81-12.3.81-.88-.5-2.2-1.31-1.31-5.82,6.35-9.12,15-7.84,23.63,1.19,8.01,6.4,14.48,13.79,17.64,2.24.96,4.6,1.67,7.01,2.03.37.06.54-.49.16-.57h0Z"/>
        <path class="cls-4" d="m169.59,85.31c-2.16-4.14-3.01-8.65-2.92-13.3.02-.95-1.5-.96-1.48,0,.06,4.74,1.55,9.49,3.89,13.6.19.33.69.04.51-.3h0Z"/>
        <path class="cls-4" d="m169.48,84.95c-4.41-.99-8.43-3.49-11.48-6.8-3.66-3.97-5.23-9.11-5.62-14.39-.66-8.97,1.75-17.92,7.94-24.59,2.87-3.1,6.36-5.58,10.2-7.31,1.17-.53.16-2.25-1.01-1.73-7.5,3.37-13.61,9.59-16.71,17.2-2.06,5.05-2.8,10.49-2.44,15.92.35,5.23,1.64,10.28,4.9,14.49,3.47,4.5,8.47,7.03,13.94,8.23.67.15.95-.87.28-1.02h0Z"/>
        <path class="cls-4" d="m250.6,73.46c1.34-6,.67-12.78-3.61-17.51-2.99-3.3-7.21-4.7-11.49-5.42-4.68-.79-9.27-.2-13.83.96-5.47,1.39-10.64,3.81-15.32,6.94-1,.67-.06,2.29.95,1.62,4.02-2.7,8.37-4.86,13.02-6.27,3.8-1.15,7.85-2.02,11.83-1.89,4.25.13,9.07,1.13,12.42,3.88,3.05,2.49,4.69,6.23,5.27,10.05.37,2.4.6,5.05.18,7.47-.06.37.49.54.57.16h0Z"/>
        <path class="cls-4" d="m250.49,73.56c2.1-1.8,3.71-4.35,4.93-6.8,2.3-4.63,3.04-9.89,1.35-14.85-1.36-3.99-4.05-7.36-7.39-9.89-4.05-3.06-8.9-4.39-13.91-4.54-5.52-.16-10.99,1.46-15.64,4.4-.85.53-.07,1.88.79,1.35,7.67-4.79,18.29-5.89,26.25-1.12,3.37,2.02,6.24,4.99,7.94,8.54,2.21,4.62,2.01,9.88.17,14.59-1.13,2.88-2.86,5.59-4.85,7.96-.21.25.11.58.36.36h0Z"/>
        <path class="cls-4" d="m262.3,89.74c3.53-2.8,3.73-7.99,2.87-12.04-1.02-4.85-3.55-9.3-7.18-12.68-.88-.82-2.2.51-1.31,1.31,3.27,2.96,5.71,6.77,6.91,11.02,1.09,3.87,1.8,9.11-1.7,11.97-.3.24.12.65.42.42h0Z"/>
        <path class="cls-4" d="m262.16,89.81c5.14-.22,8.86-5.34,10.55-9.67,2.03-5.19,2.75-11.91-.66-16.69-.73-1.02-2.44-.03-1.7.99,3.05,4.21,2.43,10.05.83,14.72-.75,2.17-1.85,4.3-3.29,6.1-1.6,1.99-3.47,3.05-5.8,3.96-.29.11-.28.6.08.58h0Z"/>
        <path class="cls-4" d="m266.69,105.33c4.4-5.73,5.67-13.31,3.79-20.24-.25-.93-1.72-.53-1.45.4,1.95,6.6.59,13.66-3.36,19.25-.44.63.56,1.17,1.01.59h0Z"/>
        <path class="cls-4" d="m266.34,105.29c.78-.44,1.47-.68,2.18-1.25s1.37-1.12,2.02-1.71c1.52-1.39,2.91-2.92,4.17-4.56,2.55-3.32,4.48-7.08,5.75-11.06,1.72-5.37,2.33-11.06,1.86-16.68-.09-1.11-1.85-1.1-1.73,0,.56,5.26.22,10.68-1.29,15.76-1.14,3.86-2.93,7.5-5.3,10.75-1.25,1.71-2.67,3.3-4.2,4.75-.64.61-1.31,1.2-1.99,1.76s-1.17,1.2-1.82,1.76c-.26.22.07.63.36.47h0Z"/>
        <path class="cls-4" d="m131.97,118.05c3.12-2.55,5.94-5.25,8.11-8.68,2.44-3.85,4-8.31,4.14-12.88s-1.31-9.07-1.75-13.63c-.35-3.57-.29-7.18.13-10.74.67-5.69,2.3-11.23,4.46-16.52.4-.99-1.2-1.42-1.6-.44-3.28,8.09-5.24,16.78-4.76,25.55.23,4.19,1.27,8.22,1.78,12.37.59,4.72-.24,9.4-2.39,13.65s-5.15,7.86-8.55,10.91c-.29.26.13.66.42.42h0Z"/>
        <path class="cls-4" d="m131.68,118.13c1.33.3,2.61.65,3.99.7,2.17.08,4.37-.37,6.39-1.15,2.97-1.15,5.61-3.02,7.62-5.5.78-.96-.6-2.34-1.37-1.37-1.76,2.23-4.03,4.05-6.63,5.21-1.86.83-3.87,1.27-5.88,1.46-1.28.12-2.68.28-3.96.07-.37-.06-.54.49-.16.57h0Z"/>
        <path class="cls-4" d="m143.16,142.85c4.5-3.75,7.12-9.33,7.22-15.17.02-1.03-1.61-1.03-1.59,0,.1,5.52-2.14,10.85-6.15,14.65-.35.33.16.82.52.52h0Z"/>
        <path class="cls-4" d="m142.82,142.65c4.4,1.33,9.75-.35,12.86-3.66.76-.8-.5-2.03-1.2-1.2-1.38,1.62-3.1,2.88-5.11,3.61s-4.19.84-6.34.52c-.48-.07-.69.59-.2.74h0Z"/>
        <path class="cls-4" d="m299.23,29.65c-4.85,5.22-10.55,9.42-17.52,11.28-1.01.27-.58,1.83.43,1.57,7.01-1.84,13.82-6.13,17.55-12.48.17-.29-.23-.61-.47-.36h0Z"/>
        <path class="cls-4" d="m299.53,28.9c-7.95,2.41-16.82,1.41-24.17-2.36-3.63-1.86-7.03-4.18-10.46-6.38s-7.05-4.47-10.7-6.49c-13.04-7.19-30.51-12.18-43.8-2.71-5.91,4.22-10.17,10.78-10.33,18.17-.03,1.36,2.08,1.36,2.11,0,.14-6.48,3.85-12.35,8.99-16.13,6.04-4.45,13.59-5.64,20.92-4.91,8.04.8,15.58,4.02,22.59,7.89s13.37,8.72,20.55,12.13c7.77,3.69,16.33,4.07,24.47,1.36.36-.12.21-.68-.16-.57h0Z"/>
        <path class="cls-4" d="m243.56,2.43c-1.03-.2-2.03-.1-3.06.02-1.31.15-2.59.4-3.86.75-2.45.67-4.79,1.66-6.99,2.93-.99.58-.08,2.14.9,1.54,2.04-1.25,4.21-2.29,6.48-3.04,1.16-.38,2.34-.69,3.53-.95,1.01-.22,2.02-.34,3-.67.26-.09.31-.51,0-.57h0Z"/>
        <path class="cls-4" d="m243.56,2.43c-6.85-1.97-13.77-2.98-20.9-2.12-8.21.99-16.01,4.43-22.19,9.96-3.42,3.06-6.2,6.86-8.26,10.95-.54,1.08,1.08,2.03,1.62.95,3.2-6.38,8.03-11.48,14.1-15.16,8.03-4.86,17.29-6.04,26.52-5.32,3.01.24,6.02.59,8.95,1.31.37.09.53-.47.16-.57h0Z"/>
        <path class="cls-4" d="m135.1,57.92c4.89-4.06,8.82-9.42,10.63-15.55.77-2.6,1.34-5.14,2.67-7.54s3.08-4.61,5.03-6.57c7.06-7.11,17.01-12.13,26.91-13.48,5.3-.72,10.76-.45,15.96.78,1.09.26,1.55-1.43.46-1.67-10.64-2.35-21.91-.8-31.58,4.19-8.41,4.34-17.18,11.1-19.73,20.65-.95,3.56-1.78,6.96-3.59,10.23s-4.3,6.13-7.18,8.56c-.29.25.13.66.42.42h0Z"/>
        <path class="cls-4" d="m300.97,116.02c-2.63-2.86-4.95-6.06-6.9-9.42s-3.49-7.39-3.77-11.44c-.24-3.49.66-6.87.87-10.34.19-3.18.01-6.35-.46-9.5-.71-4.76-2.14-9.37-3.99-13.8-.49-1.17-2.43-.66-1.93.53,3,7.16,4.82,14.83,4.42,22.63-.18,3.59-1.1,7.08-.79,10.69.34,3.99,1.67,7.78,3.67,11.23,2.2,3.81,5.2,6.9,8.45,9.84.28.26.68-.14.42-.42h0Z"/>
        <path class="cls-4" d="m298.49,71.6c-.27-.51-.36-1.05-.67-1.53-.38-.59-.83-1.15-1.27-1.7-1.23-1.52-2.65-2.87-4.21-4.06-3.52-2.67-7.82-4.19-12.2-4.64-1.18-.12-1.19,1.77,0,1.86,4.07.32,7.93,1.74,11.3,4.04,1.46.99,2.79,2.17,3.98,3.46.48.52.93,1.07,1.37,1.63.37.47.84.75,1.19,1.23.22.3.7.04.51-.3h0Z"/>
        <path class="cls-4" d="m298.5,72.02c4.7-5.14,3.9-12.98.34-18.5-1.98-3.06-4.62-5.77-7.46-8.05s-6.09-4.04-9.81-4.24c-1.25-.07-1.24,1.88,0,1.94,3.32.16,6.27,1.85,8.82,3.88s4.91,4.34,6.76,6.99c3.56,5.09,5.38,12.32.81,17.43-.33.37.21.91.54.54h0Z"/>
        <path class="cls-4" d="m300.76,115.93c-4.33-.15-8.88-1.01-12.78-2.97-2.91-1.46-4.69-4.02-5.3-7.24-.14-.75-1.34-.44-1.16.32.77,3.33,2.7,6.11,5.78,7.61,4.13,2.01,8.91,2.78,13.46,2.86.38,0,.38-.58,0-.59h0Z"/>
        <path class="cls-4" d="m292.25,140.66c-3.94.95-8.13-1.11-9.63-4.84-.41-1.03-1.9-.42-1.41.6,1.12,2.32,3.16,4.12,5.65,4.82,1.75.49,3.79.45,5.55-.01.37-.1.21-.66-.16-.57h0Z"/>
        <path class="cls-4" d="m292.68,140.23c-4.68-4.35-7.1-10.39-6.87-16.76.04-1.17-1.84-1.18-1.83,0,.05,6.61,3.04,13.09,8,17.46.47.42,1.16-.26.7-.7h0Z"/>
        <path class="cls-4" d="m179.04,181.27c-1.41,8.73-3.74,17.24-7.41,25.3-.53,1.16,1.19,2.16,1.71,1,3.71-8.26,6.23-17.08,7.06-26.12.07-.77-1.24-.96-1.37-.18h0Z"/>
        <path class="cls-4" d="m263.84,175.05c-.3,1.05-.12,2.31-.09,3.39.03,1.27.09,2.54.21,3.8.26,2.83.79,5.66,1.41,8.43,1.22,5.45,3.08,10.76,5.37,15.85.49,1.09,2.1.15,1.61-.94-2.25-4.95-3.97-10.1-5.26-15.38-.64-2.63-1.1-5.29-1.55-7.96-.21-1.25-.42-2.51-.61-3.77-.16-1.09-.12-2.39-.52-3.42-.1-.26-.49-.3-.57,0h0Z"/>
        <path class="cls-4" d="m271.04,44.16c-2.96-4.34-7.05-8-11.32-11.01-3.93-2.77-8.11-5.32-12.66-6.95-10.23-3.68-21.1-1.66-29.88,4.53-2.7,1.9-5.2,4.11-7.39,6.59-.57.65.38,1.6.95.95,4.61-5.24,10.61-9.49,17.33-11.5,5.5-1.65,11.33-1.61,16.83,0,4.48,1.32,8.55,3.58,12.45,6.1,5.05,3.25,9.18,7.24,13.21,11.64.22.24.66-.08.47-.36h0Z"/>
        <path class="cls-4" d="m177.7,39c6.27-4.32,14.9-4.58,21.38-.56.72.45,1.39-.71.66-1.13-6.9-4.04-15.92-3.61-22.34,1.18-.3.22-.02.73.3.51h0Z"/>
        <path class="cls-4" d="m144.67,106.44c7.56-4.43,11.64-13.84,11.44-22.36-.03-1.11-1.76-1.11-1.72,0,.15,4.21-.77,8.32-2.55,12.12-1.79,3.84-4.44,6.92-7.53,9.77-.25.23.07.64.36.47h0Z"/>
        <path class="cls-4" d="m134.81,58c5.68.77,11.05-1.01,15.28-4.83,2.45-2.22,4.51-4.96,6.02-7.9.46-.89-.93-1.68-1.34-.78-3.55,7.77-10.9,14.04-19.89,12.92-.33-.04-.41.54-.08.58h0Z"/>
        <path class="cls-4" d="m227.08,259.37c1.27-1.25,2.65-2.39,3.93-3.63s2.64-2.55,3.94-3.85c2.2-2.22,4.44-4.41,6.59-6.68,3.46-3.66,7.17-7.02,10.8-10.51,4.15-3.99,8.09-8.25,11.58-12.83s7.31-9.93,9.13-15.67c.44-1.39.74-2.91.39-4.35-.52-2.16-2.32-3.73-4.22-4.7-.88-.45-1.65.87-.77,1.32,1.6.82,3.21,2.1,3.55,3.96.23,1.29-.17,2.66-.59,3.86-.91,2.66-2.31,5.18-3.72,7.6-1.55,2.66-3.14,5.28-4.98,7.75-6.16,8.31-13.93,14.94-21.6,21.78-2.47,2.2-4.8,4.52-7.09,6.91-1.27,1.32-2.49,2.68-3.68,4.06-1.28,1.48-2.42,3.06-3.67,4.56-.24.29.14.69.42.42h0Z"/>
        <path class="cls-4" d="m224.7,257.07c-1.58-1.2-3-2.57-4.58-3.78s-3.26-2.43-4.9-3.61c-2.93-2.11-5.86-4.24-8.75-6.41-4.85-3.64-9.64-7.38-14.31-11.25-7.78-6.46-14.59-14.54-18.89-23.75-.91-1.94-1.93-4.34-1.61-6.55.36-2.52,2.89-3.74,5.17-4.28,1.39-.33.8-2.46-.59-2.14-2.56.6-5.18,1.89-6.31,4.41-.72,1.59-.67,3.34-.32,5.02.63,3.01,2.15,5.86,3.67,8.5,1.92,3.32,4.12,6.47,6.51,9.45,6.3,7.86,14.32,13.74,22.31,19.77,3.34,2.53,6.71,5.01,10.12,7.45,1.87,1.34,3.75,2.65,5.66,3.92,2.1,1.4,4.36,2.45,6.52,3.75.34.2.6-.29.3-.51h0Z"/>
        <path class="cls-4" d="m221.91,268.86c-5.31-2.7-10.58-5.48-15.91-8.14-4.98-2.48-9.98-4.94-14.92-7.5-4.45-2.3-8.72-4.98-12.92-7.7-10.12-6.56-19.8-13.78-29.11-21.44-1.37-1.13-2.74-2.27-4.09-3.42-1.01-.85-2.07-1.7-2.83-2.8-2.17-3.13.15-5.85,2.35-8.17,3.14-3.31,7.31-5.53,11.4-7.45,2.24-1.05,3.97-3,4.94-5.26,1.03-2.4,1.3-5.08,3.24-6.99,3.74-3.68,10.21-3.6,15.03-3.36,1.45.07,1.44-2.18,0-2.25-4.97-.24-10.86-.13-15.13,2.83-1.51,1.05-2.73,2.43-3.5,4.11-1.31,2.86-1.51,5.89-4.09,8.03-1.2,1-2.77,1.46-4.14,2.18-2.7,1.41-5.33,3.12-7.66,5.08-1.8,1.51-3.66,3.39-4.74,5.48-1.42,2.73-.74,5.55,1.21,7.81.88,1.02,1.97,1.86,3,2.72,1.54,1.28,3.09,2.55,4.65,3.81,2.84,2.29,5.71,4.53,8.61,6.73,4.94,3.74,9.99,7.36,15.15,10.8,5.51,3.67,11.15,7.22,17.02,10.3,3.36,1.76,6.82,3.35,10.23,5,6.03,2.91,12.07,5.75,18.19,8.46,1.24.55,2.48,1.1,3.72,1.65.34.15.65-.34.3-.51h0Z"/>
        <path class="cls-4" d="m226.63,269.76c10.7-5.75,21.33-11.55,31.62-18.01,6.11-3.84,12.13-7.87,17.98-12.09,4.18-3.01,8.25-6.18,12.18-9.5,2.6-2.2,5.15-4.47,7.52-6.92,1.9-1.96,3.82-4.06,5.15-6.47,1.24-2.25,1.61-4.46-.23-6.48-3.08-3.39-7.25-5.76-11.41-7.53-1.49-.63-2.38,1.42-.87,2.06,3.63,1.52,7.01,3.47,9.88,6.14,1.76,1.64,1.98,2.48.82,4.66-1.22,2.3-3.03,4.28-4.82,6.14-2.24,2.34-4.64,4.52-7.09,6.63-8.81,7.6-18.39,14.16-28.09,20.57-10.75,7.11-21.63,14.1-32.95,20.27-.34.18-.04.69.3.51h0Z"/>
        <path class="cls-4" d="m292.65,214.34c-3.84,4.99-8.65,9.21-13.96,12.58-.93.59-1.92,1.02-2.88,1.54-.04.02-.37.06-.39.09.15-.26.24.33.2.35.11-.07.27-.52.35-.64,1.09-1.63,2.45-3.1,3.62-4.67,1.99-2.68,3.7-5.53,5.27-8.48s3.2-6.18,3.66-9.6c.77-5.67-2.41-10.07-6.91-13.08s-10.25-4.07-15.7-3.22c-.98.15-.57,1.65.41,1.49,5.22-.84,10.53.26,14.91,3.23,2.1,1.42,3.99,3.18,5.08,5.51,1.7,3.64.82,7.61-.69,11.14-2.49,5.81-5.97,10.96-9.81,15.94-.46.6-1.75,1.88-1.23,2.77.76,1.31,3.36-.58,4.07-1.02,5.67-3.52,10.51-8.29,14.5-13.62.23-.31-.28-.6-.51-.3h0Z"/>
        <path class="cls-4" d="m212.37,254.57c-.4-.79-1.37-1.08-2.19-.9-.98.21-1.67,1.06-2.06,1.93-.85,1.89-1.26,4.45.69,5.81,1.46,1.02,3.56.64,4.98-.25,1.85-1.16,3.03-3.46,2.64-5.64s-3.33-4.02-5.37-2.53c-.46.34-.73.96-.39,1.49.29.44,1,.76,1.49.39.07-.05.14-.1.21-.14.06-.03.29-.11.04-.03.08-.02.16-.05.23-.07.18-.06,0,0-.05,0,.17-.01.33-.01.49,0-.28-.03,0,0,.04.02.08.02.16.05.24.07.26.08-.17-.11.06.03.07.04.15.08.23.13s.15.09.21.15c-.17-.13-.04-.03-.01,0,.06.06.13.12.18.18.03.04.18.26.05.05.05.07.09.14.14.22.01.02.12.27.05.08.07.2.13.41.16.62-.03-.21,0,.14,0,.15,0,.07,0,.14,0,.21,0,.11,0,.21-.02.32.03-.2-.03.15-.04.15-.05.21-.11.42-.19.63s-.31.63-.51.92c0,0-.22.29-.09.12-.05.06-.11.13-.16.19-.11.12-.23.24-.36.34-.02.02-.24.19-.06.05-.07.05-.14.1-.21.15-.12.08-.24.15-.36.22-.07.04-.15.08-.23.12-.03.01-.29.12-.07.04-.16.06-.31.12-.47.16s-.32.09-.48.13c-.07.01-.13.03-.2.04-.16.03.23-.01-.02,0-.16,0-.31.02-.47.01-.06,0-.13,0-.19-.01-.07,0-.05,0,.06,0-.05,0-.1-.02-.15-.03-.14-.03-.29-.07-.42-.13.18.07-.13-.08-.18-.11-.02-.02-.21-.16-.06-.04-.06-.05-.11-.1-.17-.15-.04-.04-.07-.07-.1-.11-.06-.07-.07-.08-.01-.02-.03-.04-.06-.09-.09-.13-.4-.66-.32-1.51-.17-2.24.17-.8.41-1.75,1.06-2.3.52-.44,1.38-.52,1.83.05.22.28.61-.08.47-.36h0Z"/>
        <path class="cls-4" d="m238.78,252.41c-1.84-.75-3.89.32-4.91,1.89s-.86,3.69.49,5.05c1.21,1.22,3.14,1.77,4.8,1.29,1.82-.52,2.92-2.19,2.98-4.04.07-2.05-1.12-4.03-3.07-4.74-.55-.2-1.25.22-1.37.78-.14.62.19,1.18.78,1.37.05.02.3.08.13.04-.15-.03.03.02.09.05.07.04.14.08.21.12.04.03.24.18.11.07s.06.06.1.09c.05.05.1.09.15.14.06.06.11.12.16.18.16.18-.08-.12.02.02.08.13.16.25.24.38.04.07.07.15.11.22.08.16-.07-.2.01.03.05.14.1.29.14.44.02.08.04.16.05.24,0,.03.01.07.02.1.03.17-.03-.06,0-.07-.03.02.03.43.03.49,0,.06-.06.46-.03.49,0,0,.04-.22.01-.11,0,.03-.01.07-.02.1-.02.08-.03.16-.05.23-.02.07-.04.13-.06.2-.01.03-.02.06-.03.1-.06.18.07-.14.01-.03-.07.13-.13.27-.21.39-.04.06-.08.11-.12.17.11-.19.02-.02-.06.06-.05.05-.1.1-.15.15-.03.03-.22.19-.11.1s-.07.04-.1.06c-.08.05-.16.1-.24.14-.03.02-.22.12-.1.05s-.1.04-.14.05c-.15.05-.31.08-.47.12-.18.04.17-.01-.02,0-.08,0-.16.01-.24.02-.16,0-.33,0-.49-.01-.23-.01.11.03-.06,0-.07-.01-.14-.02-.21-.04-.16-.03-.32-.08-.48-.13-.03-.01-.27-.1-.15-.05s-.08-.04-.12-.05c-.15-.07-.29-.15-.43-.24-.07-.04-.13-.09-.2-.14.13.09.03.02-.04-.03-.12-.11-.24-.22-.34-.34-.03-.03-.06-.07-.09-.11,0,0,.09.12.03.04-.04-.06-.08-.11-.12-.17-.04-.07-.08-.14-.12-.21-.02-.04-.11-.24-.07-.15.04.1-.04-.13-.05-.16-.02-.07-.04-.14-.06-.22-.01-.05-.02-.11-.03-.16,0,.02.01.13,0,.03,0-.09-.01-.19-.01-.28s0-.19.01-.28c0-.1,0,0,0,.02,0-.05.02-.11.03-.16.04-.18.09-.36.16-.54,0,0,.05-.12.02-.05-.03.06.04-.07.04-.09.05-.1.1-.19.16-.28.05-.08.1-.16.16-.24,0-.01.09-.12.02-.04.03-.04.07-.08.1-.13.25-.29.58-.58.82-.75.6-.4,1.36-.65,2.12-.53.66.11.89-.74.27-.99h0Z"/>
        <path class="cls-4" d="m211.52,256.1c-1.29,6.36-2.07,12.86-2.88,19.3-.82,6.57-1.53,13.16-2.05,19.76-1.03,13.04-1.54,26.1-1.51,39.18.02,7.52.21,15.03.58,22.54.05,1.06,1.7,1.07,1.66,0-1.14-26.29-.26-52.63,2.39-78.8.74-7.31,1.83-14.57,2.62-21.86.05-.46-.72-.57-.81-.11h0Z"/>
        <path class="cls-4" d="m237.66,256.34c-2.05,23.05-2.82,46.17-2.35,69.3.13,6.54.35,13.09.65,19.62.05,1.11,1.79,1.12,1.73,0-1.06-23.11-.93-46.21-.27-69.32.19-6.54.48-13.07.83-19.6.02-.39-.56-.38-.59,0h0Z"/>
        <path class="cls-4" d="m141.9,218.3c-6.94,1.91-13.79,3.88-20.55,6.38-6.34,2.34-12.57,4.96-18.7,7.79-8.92,4.13-17.61,8.73-25.93,13.96-6.2,3.89-12.2,8.08-18.01,12.53-.82.63,0,2.04.82,1.4,18.34-14.1,38.69-25.17,60.21-33.6,7.32-2.87,14.78-5.64,22.32-7.89.37-.11.21-.67-.16-.57h0Z"/>
        <path class="cls-4" d="m301.4,215.96c22.83,5.64,44.75,14.46,65.34,25.79,5.32,2.93,10.54,6.03,15.65,9.29.82.53,1.59-.79.76-1.31-19.99-12.69-41.66-22.6-64.29-29.55-5.73-1.76-11.49-3.38-17.32-4.8-.37-.09-.53.48-.16.57h0Z"/>
        <path class="cls-4" d="m213.68,140.08c-.91,1.43-1.73,3.06-1.77,4.79-.03,1.56.6,3.02,1.92,3.9,1,.67,1.99-1,.95-1.62-.43-.26-.69-.6-.95-1.08-.24-.44-.38-.96-.41-1.47-.09-1.47.51-2.86.95-4.23.13-.42-.46-.64-.69-.29h0Z"/>
        <path class="cls-4" d="m213.77,144.16c.21.18.4.22.67.22l-.31-.08c.31.2.67.08,1,.07.15,0,.3,0,.44,0,.06,0,.12,0,.18.01,0,0,.26.03.14.01.28.04.54.13.81.22.14.05.28.09.42.14.03.01.22.1.06.02.07.03.13.06.2.09.26.12.5.26.74.41.06.04.12.08.18.13.08.06.15.12.03.02.11.1.23.19.34.29.22.2.42.42.61.64-.06-.07-.08-.11-.01-.01.04.06.08.12.13.18.09.14.17.28.25.43.27.52,1.05.72,1.54.4.52-.34.71-.99.4-1.54-.75-1.34-1.98-2.31-3.44-2.79-.68-.22-1.39-.29-2.09-.25-.36.02-.73.06-1.09.14-.38.08-.88.17-1.07.55l.22-.22c-.23.15-.71.61-.36.91h0Z"/>
        <path class="cls-4" d="m223.18,100.18c-1.16,3.92-1.63,8-1.2,12.08s1.74,7.93,2.74,11.86c1.06,4.18,2.02,8.39,3.04,12.58.47,1.93.81,3.75-.44,5.46-1.06,1.44-2.66,2.4-4.17,3.29-.83.49-.08,1.78.76,1.3,2.63-1.51,5.62-3.48,5.82-6.82.12-2.06-.76-4.05-1.32-5.99-.64-2.23-1.24-4.48-1.95-6.69-1.39-4.3-2.78-8.77-3.5-13.24s-.45-9.25.79-13.67c.1-.37-.46-.52-.57-.16h0Z"/>
        <path class="cls-4" d="m231.3,140.09c.3.37.7.83.92,1.34.14.32.21.66.21,1,0,.08,0,.17-.01.25-.01.21.03-.09-.02.09s-.09.35-.14.53c-.08.26.04-.1-.06.17,0,.02-.14.34-.1.25s-.07.14-.08.17c-.04.08-.09.16-.13.24s-.1.15-.15.23c-.03.04-.05.08-.08.11.05-.06.05-.07.01-.01-.12.15-.25.29-.39.43-.53.52-1.22.9-1.96,1.12-.52.16-.84.7-.7,1.23s.71.86,1.23.7c1.94-.6,3.97-2.15,4.27-4.29.24-1.75-.76-3.58-2.42-4.25-.42-.17-.63.41-.4.69h0Z"/>
        <path class="cls-4" d="m230.33,144.9c-.1-.5-.46-.92-.86-1.23-.22-.17-.45-.3-.71-.4-.22-.09-.44-.12-.66-.17-.36-.08-.73.17-.73.56s.37.64.73.56c.02,0,.12-.02.01,0s0,0,.02,0c.05,0,.1,0,.15,0s.1,0,.15.01c-.17-.01,0,0,.04.01.1.02.2.05.29.08.03.01.06.02.09.03.06.02,0,0-.03-.01.04.03.11.05.15.07.09.05.18.1.26.16.02.01.05.03.06.04-.02-.04-.04-.03,0,0,.04.03.08.07.11.1s.07.07.11.11c.02.02.03.04.05.06,0,0,.06.07.03.03-.04-.05.05.06.07.08.02.02.03.04.05.05.04.04.07.08.11.12.08.1.26.11.36.05.12-.07.16-.21.14-.34h0Z"/>
        <path class="cls-4" d="m232.29,108.31c.73.13,1.32-.76,1.84-1.18,1.13-.9,2.45-1.73,3.79-2.27,2.12-.86,4.45-1.21,6.72-1.31,2.69-.13,5.41.2,7.57,1.95,1.53,1.24,2.71,2.91,3.42,4.74.5,1.29,2.32.56,1.77-.75-.89-2.11-2.3-3.98-4.18-5.31-2.6-1.84-5.64-2.38-8.76-2.28-2.8.09-5.43.24-7.98,1.56-1.47.76-2.7,1.77-3.71,3.07-.16.2-1.33,1.63-.49,1.78h0Z"/>
        <path class="cls-4" d="m232.43,107.62c-.49.27-.46.98-.47,1.48,0,.59,0,1.18.03,1.77.05,1.2.25,2.4.46,3.58.09.5.7.79,1.16.66.51-.14.78-.67.66-1.16-.29-1.17-.49-2.35-.72-3.53-.11-.58-.18-1.16-.28-1.74-.05-.26-.1-.59-.23-.82-.11-.18-.4-.36-.6-.24h0Z"/>
        <path class="cls-4" d="m234.33,114.85c1.89.4,3.78.85,5.72.98,2.15.15,4.27,0,6.4-.31,3.79-.57,7.5-1.67,11.02-3.15,1.17-.49.66-2.43-.53-1.93-3.4,1.43-6.93,2.44-10.56,3.09-3.84.69-8.08,1.08-11.96.61-.41-.05-.5.64-.1.72h0Z"/>
        <path class="cls-4" d="m205,107.59c.18,1.21.57,2.41.72,3.62.14,1.11.15,2.24.06,3.36-.05.6.56,1.17,1.14,1.14.63-.03,1.12-.5,1.14-1.14.03-1.24-.07-2.48-.28-3.71-.23-1.33-.58-2.74-1.37-3.86-.52-.74-1.53-.27-1.4.59h0Z"/>
        <path class="cls-4" d="m204.96,106.75c-.59-.87-1.52-1.2-2.47-1.57-1.44-.56-2.95-.97-4.48-1.21-2.63-.41-5.36-.4-7.96.17-3.13.68-6.31,2.27-8.31,4.84-1.53,1.97-2.32,4.35-2.55,6.81-.11,1.13,1.65,1.12,1.77,0,.23-2.25,1.07-4.47,2.59-6.16,1.95-2.18,4.93-3.42,7.74-3.99,2.32-.47,4.82-.48,7.15-.1,1.21.2,2.39.5,3.55.9.91.32,1.74.79,2.72.76.21,0,.39-.25.26-.45h0Z"/>
        <path class="cls-4" d="m205.58,115.38c-4.07,1.22-8.71,1.66-12.95,1.57-3.67-.08-7.31-.68-10.85-1.65-1.24-.34-1.78,1.61-.53,1.93,3.72.96,7.54,1.52,11.39,1.51,2.1,0,4.23-.14,6.29-.55,2.41-.47,4.56-1.32,6.81-2.24.34-.14.22-.69-.16-.57h0Z"/>
        <path class="cls-4" d="m248.4,160.88c-1.89,3.09-4.56,5.98-7.35,8.26-3.59,2.93-7.89,5.02-12.47,5.81-7.09,1.23-14.58-.9-20.89-4.09-3.99-2.02-7.64-4.62-10.93-7.64-.95-.87-2.37.54-1.41,1.41,6.79,6.19,15.12,10.75,24.31,11.95,7.27.95,14.65-.86,20.67-5.1,2.15-1.51,4.06-3.33,5.7-5.39,1.22-1.53,2.05-3.17,2.88-4.92.16-.34-.31-.63-.51-.3h0Z"/>
        <path class="cls-4" d="m198.99,164.89c7.34,1.74,14.74,2.94,22.3,2.88,8.26-.07,16.55-1.44,24.44-3.85,1.23-.37.7-2.3-.53-1.93-7.78,2.37-15.78,3.67-23.91,3.98-7.38.28-14.91-.07-22.14-1.65-.37-.08-.53.48-.16.57h0Z"/>
        <path class="cls-4" d="m201.99,168.98c13.25,4.38,27.58,4.29,40.75-.36.97-.34.55-1.9-.43-1.55-12.87,4.61-27.01,5.09-40.16,1.34-.37-.11-.52.45-.16.57h0Z"/>
        <path class="cls-4" d="m220.62,186.01c1.93.49,3.83.8,5.82.85s4-.21,5.93-.61c1.05-.22.61-1.89-.44-1.61-3.61.94-7.52,1.21-11.23.79-.34-.04-.4.5-.08.58h0Z"/>
        <path class="cls-4" d="m130.33,301.72c-1.18,6.99-3.28,13.79-5.86,20.38-1.18,3.01-2.55,5.94-3.65,8.98-1.3,3.61-2.34,7.31-3.16,11.06-1.51,6.9-3.01,13.72-5.09,20.48-1.82,5.9-3.5,11.83-4.94,17.84-2.05,8.52-3.82,17.13-5.15,25.79-.26,1.67,2.09,2.01,2.3.31.98-7.92,2.16-15.82,3.92-23.6,1.36-6.04,3.01-12,4.85-17.9,2.05-6.61,3.77-13.21,5.15-19.99.74-3.62,1.58-7.21,2.7-10.73,1.02-3.22,2.33-6.3,3.62-9.42,3.04-7.35,4.62-15.21,5.9-23.03.06-.37-.51-.54-.57-.16h0Z"/>
        <path class="cls-4" d="m10.26,410.61c-4.53,6.78-7.66,14.37-9.21,22.39-1.23,6.41-1.64,13.28.18,19.62,1.55,5.41,5.53,9.71,11.03,11.17,4.96,1.32,10.44,1.33,15.53,1.57,17.58.83,35.23.44,52.82.27,18.46-.19,36.93-.37,55.39-.55s37.1-.16,55.64-.49c2.33-.04,4.66-.08,6.99-.13,1.4-.03,1.4-2.17,0-2.17-18.05.04-36.09.37-54.14.55s-35.93.37-53.89.55c-9.06.09-18.13.12-27.2.3s-17.57.44-26.35.18c-6.25-.18-12.49-.47-18.71-1.01-2.36-.2-4.75-.4-7-1.18-2.88-1-5.27-2.95-6.88-5.6-2.94-4.87-2.83-11.43-2.29-16.88.82-8.32,3.54-16.05,7.03-23.6.68-1.47,1.39-2.92,2.17-4.33.41-.74-.66-1.34-1.12-.65h0Z"/>
        <path class="cls-4" d="m74.13,407.22c4.76-.36,9.5-.36,14.26-.31,5.55.07,11.11.21,16.64.75s11.29,1.41,16.92,2.16c9.99,1.34,19.93,2.68,30.03,2.71,9.22.03,18.35.03,27.45,1.74,3.62.68,7.28,1.57,10.63,3.13,3.78,1.76,7.19,4.29,10.16,7.2.99.97,2.52-.56,1.52-1.52-5.06-4.9-10.92-8.25-17.73-9.97-9.15-2.32-18.69-2.72-28.09-2.66-4.4.03-8.8.02-13.2-.26-5.52-.35-10.99-1.1-16.47-1.81-6.4-.84-12.79-1.8-19.22-2.46-11.03-1.13-21.93-.5-32.92.72-.37.04-.39.62,0,.59h0Z"/>
        <path class="cls-4" d="m201.22,425.46c-.18,1.22.12,2.43.26,3.65.16,1.42.28,2.84.35,4.27.18,3.4.15,6.8-.06,10.2-.36,6.06-1.53,12.01-3.33,17.8-.38,1.23,1.55,1.76,1.93.53,1.83-5.86,2.9-11.96,3.24-18.09.19-3.47.08-6.98-.3-10.44-.16-1.42-.35-2.84-.58-4.25-.21-1.26-.31-2.62-.96-3.74-.12-.2-.5-.19-.54.07h0Z"/>
        <path class="cls-4" d="m207.63,437.9c3.22-.76,6.63-.61,9.82.25.86.23,1.22-1.13.36-1.32-3.45-.75-6.97-.56-10.37.38-.44.12-.26.79.19.69h0Z"/>
        <path class="cls-4" d="m383.99,253.05c3.25,7.5,6.4,15.06,8.73,22.9,2.41,8.14,3.96,16.56,4.7,25.01,1.17,13.26,1.26,26.63.43,39.9-.35,5.64-.1,11.14.61,16.75.8,6.31,2.42,12.5,3.15,18.81.8,7.03.62,14.06.02,21.1s-.15,13.51,1.26,20.12c.62,2.89,1.49,5.72,2.21,8.59.77,3.06,1.31,6.18,1.63,9.32.75,7.18.62,14.42-.48,21.56-.35,2.26-.79,4.51-1.29,6.74-.33,1.49,1.96,2.12,2.29.63,1.74-7.85,2.65-15.95,2.33-24-.24-6.23-1.45-12.31-3.07-18.32-1.8-6.7-2.92-13.63-2.72-20.59.08-2.71.39-5.41.56-8.12.25-3.9.22-7.81,0-11.71-.36-6.39-1.77-12.51-2.89-18.78s-1.72-12.82-1.61-19.25c.09-5.46.68-10.9.71-16.37.03-7.24-.12-14.51-.72-21.72-.68-8.2-1.88-16.39-3.83-24.38-2.08-8.53-4.76-17.14-8.92-24.91-.69-1.3-1.45-2.56-2.21-3.82-.35-.58-1.15-.07-.89.52h0Z"/>
        <path class="cls-4" d="m118.36,340.97c-.99,1.43-1.41,3.28-1.77,4.96-.46,2.12-.7,4.3-.83,6.46-.27,4.59.48,8.93.96,13.47s.22,9-.52,13.52c-.65,3.91-1.27,7.82-1.62,11.78-.47,5.32-.54,10.67-.3,16.01.07,1.64,2.63,1.65,2.56,0-.37-8.72.21-17.34,1.64-25.94.72-4.34,1.3-8.67.97-13.08s-1.53-8.77-1.63-13.27c-.06-2.54.12-5.07.42-7.59.24-2.02.81-4.13.68-6.16-.02-.3-.38-.39-.55-.15h0Z"/>
        <path class="cls-4" d="m328.63,302.21c-4.15,11-6.3,22.87-7.58,34.52s-1.01,23.9-.44,35.9c1.11,23.13,2.44,46.25,3.95,69.36.48,7.31.98,14.62,1.46,21.94.1,1.57,2.56,1.58,2.45,0-1.13-16.9-2.19-33.81-3.24-50.71-.75-12.05-1.5-24.09-2.18-36.14-.64-11.43-1.3-22.81-.53-34.25.52-7.73,1.49-15.43,2.96-23.04,1.13-5.82,2.54-11.58,3.87-17.36.11-.49-.57-.66-.74-.2h0Z"/>
        <path class="cls-4" d="m210.22,85.98c-.31-.44-1.16-.34-1.39-.31-1.53.16-9.04.27-19.57.35-.19,0-4.71-.23-6.98.35-1,.25-1.59.67-1.72.77-.59.43-.93.89-1.16,1.21-1.91,2.67-2.17,3.13-2.17,3.13-2.98,5.17-2.75,4.67-3.29,5.71-1.91,3.7-2.87,5.56-2.5,5.83.69.51,6.04-4.12,10.23-7.75.1-.08.37-.32.79-.48.39-.15.73-.16.97-.17.62-.02,1.23-.11,1.85-.08,1.05.04,5.95,0,12.95-.1,2.26-.09,3.96.01,5.2.16,0,0,2.58.3,3.62-.57.13-.11.25-.24.25-.24.19-.21.38-.49.58-.97.4-.94.82-1.87,1.21-2.81.44-1.07.64-1.63,1.02-2.74.19-.54.33-.98.12-1.28Z"/>
        <path class="cls-4" d="m225.93,85.97c.48-.67,1.69-.56,2.19-.52,2.18.19,5.68.32,10.4.45,6.12.16,10.93.38,13.72.51.64.03,1.86.1,3.12.83.94.54,1.5,1.21,1.74,1.51,2.34,2.89,8.97,11.05,7.93,11.97-.78.69-5.83-2.84-10.07-5.81-.43-.3-1.61-1.13-3.35-1.53-1.26-.29-2.26-.22-2.74-.19-2.47.16-6.35.4-11.23.77-3.1.16-5.5.31-7.34.51-.5.05-1.47.17-2.22-.41-.31-.24-.48-.52-.98-1.98-.29-.86-.64-2-1.09-4.12-.27-1.32-.3-1.67-.08-1.97Z"/>
        <path class="cls-4" d="m362.61,331.05c4.25-9.57,7.92-19.37,10.91-29.41,3.33-11.17,6.22-22.52,8.05-34.04.89-5.62,1.56-11.25,2.03-16.92.08-.96-1.41-.95-1.5,0-.94,10.45-2.37,20.9-4.47,31.18-2.3,11.28-5.37,22.28-9.3,33.1-1.93,5.32-3.98,10.6-6.24,15.79-.15.35.36.65.51.3h0Z"/>
        <path class="cls-4" d="m66.47,317.89c-3.92-14.87-6.04-30.1-6.46-45.47-.12-4.25-.18-8.5-.09-12.75.02-1.03-1.58-1.03-1.59,0-.22,15.77,1.63,31.37,4.83,46.8.81,3.88,1.72,7.74,2.74,11.58.1.37.67.21.57-.16h0Z"/>
        <path class="cls-4" d="m201.26,425.01c1.18.04,2.43-.59,3.55-.92,2.07-.62,4.13-1.04,6.3-1.07,4.53-.07,8.83,1.32,12.5,3.96,1.11.8,2.18-1.05,1.07-1.83-3.91-2.77-8.76-4.34-13.57-4.11-2.24.11-4.53.54-6.63,1.34-1.19.45-2.78,1.06-3.48,2.2-.12.2.04.44.26.45h0Z"/>
        <path class="cls-4" d="m199.71,463.49c3.48,1.22,7.52,1.22,11.17,1.37s7.49,0,11.22-.3c1.34-.11,1.36-2.21,0-2.11-3.66.27-7.33.37-11,.41s-7.59-.48-11.3-.04c-.38.05-.48.54-.09.68h0Z"/>
        <path class="cls-4" d="m223.75,426.16c1.71,11.99,1.34,24.27-2.24,35.89-.37,1.19,1.5,1.71,1.87.52,1.88-6.09,3.02-12.46,3.22-18.84.1-3.34-.04-6.69-.4-10.01-.29-2.67-.95-5.19-1.66-7.77-.14-.52-.86-.29-.78.22h0Z"/>
        <path class="cls-4" d="m206.62,430.75c1.87-.86,3.89-1.34,5.95-1.23s4.03.56,5.9,1.3c1,.4,1.47-1.25.45-1.63-4.08-1.49-8.75-.85-12.6,1.04-.35.17-.04.67.3.51h0Z"/>
        <path class="cls-4" d="m207.25,445.34c3.67-.51,7.43-.49,11.11-.04,1.16.14,1.2-1.76,0-1.84-3.82-.26-7.63.1-11.36.98-.6.14-.33.98.25.9h0Z"/>
        <path class="cls-4" d="m207.33,452.07c1.67.5,3.6.44,5.32.41s3.52-.19,5.27-.46c.46-.07.71-.65.6-1.06-.13-.48-.6-.69-1.06-.6-1.62.3-3.26.5-4.91.58-.89.04-1.79.06-2.69.04-.79-.02-1.6-.07-2.39,0-.6.06-.78.9-.15,1.09h0Z"/>
        <path class="cls-4" d="m205.87,459.24c3.84,1.44,8.11,1.48,11.99.17,1.07-.36.58-2.09-.47-1.69-3.59,1.38-7.53,1.42-11.16.17-.85-.29-1.2,1.03-.37,1.34h0Z"/>
        <path class="cls-4" d="m187.9,242.41c-6.14-5.02-12.51-9.76-18.68-14.75-2.77-2.24-5.88-4.46-8.23-7.16-2.54-2.92-3.33-6.85-3.2-10.62.14-3.99,1.23-7.9,2.59-11.62.5-1.36-1.68-1.95-2.17-.6-2.43,6.73-4.28,15.11-.56,21.73,1.84,3.28,5.13,5.56,8.01,7.87,3.4,2.72,6.88,5.33,10.39,7.9,3.74,2.73,7.55,5.28,11.49,7.71.28.17.63-.25.36-.47h0Z"/>
        <path class="cls-4" d="m148.35,353.25c13.99,7.79,28.07,15.41,42.26,22.83,14.37,7.51,28.66,15.15,43.17,22.39,7.98,3.98,15.99,7.89,24.04,11.72.87.41,1.63-.88.76-1.3-14.32-6.9-28.64-13.82-42.86-20.92-14.57-7.27-29.02-14.71-43.36-22.42-7.91-4.25-15.83-8.5-23.7-12.82-.33-.18-.63.33-.3.51h0Z"/>
        <path class="cls-4" d="m154.92,374.32c10.47,6.14,21.07,12.04,31.82,17.66,11.39,5.95,22.78,11.94,34.4,17.42,6.45,3.04,12.94,5.97,19.49,8.8.88.38,1.64-.91.76-1.3-11.63-5.1-23.24-10.32-34.68-15.82s-22.59-11.21-33.66-17.3c-5.96-3.28-11.92-6.58-17.82-9.98-.33-.19-.63.32-.3.51h0Z"/>
        <path class="cls-4" d="m9.11,415.55c3.91-4.73,6.54-10.72,9.03-16.29,2.21-4.96,4.21-10.02,5.97-15.16,3.73-10.91,6.21-22.26,8.27-33.58.97-5.34,1.78-10.72,2.45-16.11.49-3.98.88-7.9,1.84-11.8,2.08-8.47,5.1-16.77,8.45-24.82,4.78-11.46,9.34-23.69,13.92-35.44.59-1.5-1.83-2.15-2.41-.66-2.58,6.62-5.15,13.23-7.72,19.86-1.83,4.71-3.53,9.5-5.5,14.15-3.07,7.24-5.77,14.67-7.78,22.27-2.32,8.81-2.88,17.87-4.36,26.83-1.86,11.31-4.25,22.66-7.59,33.63-1.87,6.14-4.02,12.18-6.53,18.09-1.27,2.98-2.61,5.94-4.02,8.86-1.57,3.26-3.32,6.49-4.53,9.9-.1.27.31.52.5.29h0Z"/>
        <path class="cls-4" d="m356.49,423.79c15.33,3.33,30.55,7.12,45.82,10.69,1,.23,1.42-1.31.42-1.54-15.32-3.43-30.74-6.44-46.09-9.73-.37-.08-.53.49-.16.57h0Z"/>
        <path class="cls-4" d="m372.11,452.21c10.58-2.94,20.95-6.89,30.48-12.36.89-.51.08-1.9-.8-1.38-9.4,5.57-19.3,10.2-29.83,13.16-.37.1-.21.68.16.57h0Z"/>
        <path class="cls-4" d="m259.9,416.1c3.14-.61,6.32-.9,9.47-1.49,2.49-.47,5.06-1.18,7.61-1.12,2.31.05,5.32.46,7.2,1.86,3.12,2.31,1.2,6.74-.98,8.97-.34.35-.38.98,0,1.32,1.84,1.67,4.14,3.59,4,6.33s-2.44,4.97-4.46,6.51c-.44.33-.67,1-.19,1.44,2.04,1.83,2.83,5.26,1.5,7.73-.68,1.26-2.09,1.84-2.81,3.05-.31.51-.44,1.11-.31,1.7.18.77.79,1.11,1.19,1.73.77,1.19.35,3.55-.2,4.75-.61,1.35-1.8,2.21-3.13,2.77-3.48,1.46-7.53,1.97-11.28,2.12-3.25.13-6.51-.21-9.75-.37-2.11-.1-4.22-.21-6.33-.3-1.17-.05-2.34-.11-3.51-.22-8.16-.79-16.35-1.44-24.53-2.09-1.51-.12-1.46,2.16,0,2.33,7.86.89,15.78,1.61,23.68,2.03,1.48.08,2.95.09,4.43.09,5.84,0,11.73.47,17.56-.01,3.68-.31,7.79-.91,11.05-2.74,2.4-1.35,4.39-4.33,4.29-7.14-.03-.76-.18-1.54-.59-2.19-.22-.34-.56-.54-.79-.85-.45-.6-.07-.97.4-1.41,1.24-1.14,2.2-2.2,2.79-3.81,1.15-3.11.16-6.67-2.55-8.6l.19,1.44c2.23-2.16,4.96-4.49,5.32-7.77s-2.2-5.92-4.65-7.83v1.32c1.85-2.19,3.47-4.88,3.04-7.87-.38-2.61-2.4-4.25-4.8-5.01-4.36-1.39-8.79-.61-13.13.34-3.32.73-6.56,1.75-9.89,2.43-.38.08-.22.64.16.57h0Z"/>
        <path class="cls-4" d="m283.1,412.7c-.6-1.24-1.32-2.4-2.05-3.57-.53-.84-1.1-1.83-1.97-2.37-.79-.5-1.69-.48-2.59-.37-1.63.2-3.25.42-4.88.63-5.33.69-10.78,1.13-16.05,2.16-4.16.81-7.42,2.83-10.79,5.35-2.57,1.92-4.87,4.17-7.44,6.08-3.86,2.87-8.49,4.85-13.2,5.79-1.44.29-.79,2.69.61,2.2,3.98-1.39,7.96-2.8,11.56-5.05,2.32-1.45,4.21-3.28,6.23-5.09,3.27-2.93,6.97-5.34,11.08-6.93,4.12-1.59,8.73-1.76,13.08-2.36,3.09-.42,6.17-.88,9.25-1.28.91-.12,1.82-.26,2.58.34.47.38.78.93,1.15,1.4.93,1.19,1.89,2.37,2.96,3.44.25.25.61-.07.47-.36h0Z"/>
        <path class="cls-4" d="m278.13,439.96c.75-.05,1.51-.13,2.26-.14s1.51-.02,2.26-.05c.27,0,.49-.22.49-.49,0-.24-.23-.53-.49-.49-.76.1-1.51.22-2.26.33s-1.5.16-2.25.24c-.37.04-.39.62,0,.59h0Z"/>
        <path class="cls-4" d="m277.4,452.44c.32,0,.64,0,.96,0s.62.05.92.09c.62.06,1.25.09,1.88.1.31,0,.6-.27.59-.59s-.26-.61-.59-.59c-.64.04-1.29.1-1.92.21-.29.05-.58.11-.88.13-.32.02-.64.04-.96.05-.38.02-.39.59,0,.59h0Z"/>
        <path class="cls-4" d="m277.37,426.12c1.09-.12,2.16-.22,3.25-.28s2.17-.16,3.25-.27c.84-.09.69-1.28-.16-1.15-1.07.16-2.15.35-3.21.57s-2.14.4-3.22.56c-.33.05-.25.62.08.58h0Z"/>
        <path class="cls-4" d="m20.64,430.02c-8.09,6.45-14.67,14.74-18.58,24.34-.38.94,1.17,1.37,1.54.42,3.69-9.47,9.51-17.96,17.46-24.35.3-.24-.12-.66-.42-.42h0Z"/>
        <path class="cls-4" d="m56.06,450.31c-15.51,5.86-31.88,8.82-48.44,9.34-1.02.03-1.03,1.64,0,1.59,16.64-.68,33.05-4.45,48.59-10.36.35-.13.2-.71-.16-.57h0Z"/>
      </g>
      <g id="Schatten">
        <path class="cls-1" d="m288.47,203.17c1.55.87,3.1,1.73,4.65,2.6-.59,2.38-1.51,5.14-3.02,8.02-4.43,8.49-11.25,13.11-14.98,15.23,3.33-3.64,7.52-9.15,10.55-16.68,1.34-3.31,2.21-6.42,2.79-9.18Z"/>
        <path class="cls-1" d="m258.91,184.1c1.83,5.18,3.68,12.01,4.47,20.17.59,6.19.43,11.68,0,16.21,4.56-5.7,7.03-10.24,8.34-12.98.72-1.51,1.44-3.27.94-5.28-.68-2.74-3.42-4.13-4.26-4.51-1.6-7.21-3.19-14.42-4.79-21.64-1.57,2.67-3.13,5.35-4.7,8.02Z"/>
        <path class="cls-1" d="m249.97,255.93c8.96-3.22,21.52-8.93,34.26-19.24,8.71-7.04,15.14-14.32,19.74-20.4-.95-.36-1.91-.71-2.86-1.07-5.12,5.74-11.19,11.85-18.33,17.98-11.63,9.98-23,17.33-32.81,22.73Z"/>
        <path class="cls-1" d="m271.26,100.75c1.52-1.86,3.11-4.03,4.63-6.52.76-1.24,1.43-2.45,2.03-3.62.99,3.35,3.01,8.58,7.24,13.84,5.59,6.94,12.13,10.31,15.6,11.79-2.04-.02-4.67-.24-7.63-1-3.57-.91-6.38-2.28-8.35-3.44.34,1.56.62,3.38.72,5.41.18,3.8-.34,7.04-.94,9.45.35,1.99,1.13,5.02,3.06,8.26,1.56,2.61,3.34,4.47,4.69,5.67-.89.3-2.69.77-4.88.33-3.54-.71-5.48-3.27-5.94-3.92-.67,1.06-1.63,2.37-3.01,3.65-2.08,1.95-4.21,3.03-5.68,3.62.28-7.06.32-14.66,0-22.72-.29-7.36-.84-14.31-1.56-20.79Z"/>
        <path class="cls-1" d="m177.33,194.73c-.34,3.65-.5,7.89-.26,12.6.23,4.43.79,8.4,1.45,11.84-4.17-4.4-6.12-8.64-7.07-11.33-1.39-3.92-1.08-5.67-.88-6.46,1.1-4.38,5.88-6.31,6.75-6.65Z"/>
        <path class="cls-1" d="m126.55,318.46c-1.62,7.39-3.56,18.63-3.86,32.53-.15,6.77.17,10.67.34,16.85.26,9.63.12,23.56-1.87,41.02-2.12-.27-4.25-.54-6.37-.81.13-4.28.43-10.68,1.22-18.44.81-7.92,1.37-8.07,1.7-13.43.41-6.63-.16-9.31-.51-21.57-.13-4.61-.17-8.36-.18-10.74,3.18-8.47,6.36-16.94,9.54-25.41Z"/>
        <path class="cls-1" d="m1.03,445.59c2.17,2.77,5.77,6.64,11.18,9.57,6.76,3.66,13.02,4.06,23.57,4.45,15.24.57,22.86.85,27.06.66,7.46-.35,23.83-.21,56.56.06,0,0,25.26.21,66.17-.91,1.77-.05,5.8-.17,10.88-1.12,0,0,0,0,0,0,2.01-.33,3.6-.67,4.42-.85-.64,1.96-1.28,3.93-1.92,5.89-17.01.1-30.79.24-39.83.34-32.92.38-65.89-.72-98.76,1.09-8.37.46-16.77-.18-25.15-.16-16.04.04-22.44.32-27.59-4.15-4.85-4.21-6.19-10.55-6.6-14.86Z"/>
        <path class="cls-1" d="m116.73,350.44c-4.35,9.97-8.62,21.42-12.24,34.25-2.14,7.59-3.82,14.84-5.14,21.68,1.42.06,2.84.13,4.25.19,1.58-7.65,3.27-15.41,5.07-23.29,2.58-11.25,5.27-22.2,8.06-32.83Z"/>
        <path class="cls-1" d="m321.23,347.93c-.13,38.97-.27,77.93-.4,116.9,2.15-.01,4.31-.03,6.46-.04-2.02-38.95-4.04-77.91-6.06-116.86Z"/>
        <path class="cls-1" d="m399.76,359.12c0,5.97-.11,14.97-.64,25.91-.66,13.74-1.89,15.82-1.7,24.51.29,13.49,2.83,16.22,3.23,27.91.22,6.44-.19,15.89-3.51,27.58,2.98.01,5.95.03,8.93.04,3.72-12.39,3.55-22.02,2.75-28.47-1.33-10.67-4.67-14.86-5.45-28.09-.48-8.28.66-9.79.68-18.72.02-7.23-.7-17.73-4.3-30.68Z"/>
        <path class="cls-1" d="m223.45,458.76c-2.21.92-6.12,2.22-11.12,2.17-5.2-.05-9.2-1.54-11.4-2.54l-2.22,4.45c3.58.74,7.97,1.34,13,1.38,3.9.03,7.4-.28,10.4-.72.45-1.58.9-3.16,1.35-4.74Z"/>
        <path class="cls-1" d="m223.92,457.8c13.29,2.38,24.48,3.27,32.83,3.61,10.31.41,15.73-.06,19.19-3.8,2.12-2.29,4.57-6.96,5.74-11.94.86-3.67.73-6.28,1.55-6.39.95-.13,2.72,3.21,2.46,6.47-.29,3.71-3.1,6.02-3.81,6.57,1.08,1.59,2.07,3.69,1.48,5.67-1.17,3.93-7.91,5.06-14.55,6.11-8.44,1.33-15.02,1.01-16.27.94-7.2-.39-17.16-1.35-29.17-3.87.18-1.12.37-2.23.55-3.35Z"/>
      </g>
    </g>
  </g>
</svg>