<?xml version="1.0" encoding="UTF-8"?>
<svg id="Ebene_1" data-name="Ebene 1" xmlns="http://www.w3.org/2000/svg" xmlns:xlink="http://www.w3.org/1999/xlink" viewBox="0 0 322 270">
  <defs>
    <style>
      .cls-1 {
        fill: none;
      }

      .cls-2 {
        clip-path: url(#clippath);
      }

      .cls-3 {
        fill: #f5e8d6;
      }

      .cls-4 {
        fill: #e3caba;
      }

      .cls-5 {
        fill: #fff7f7;
      }

      .cls-6 {
        fill: #a05b52;
      }

      .cls-7 {
        fill: #b69c65;
      }

      .cls-8 {
        fill: #c46b57;
      }

      .cls-9 {
        fill: #e0bd6f;
      }

      .cls-10 {
        fill: #070d1c;
      }

      .cls-11 {
        opacity: .5;
      }

      .cls-12 {
        fill: url(#Unbenannter_Verlauf_2);
      }

      .cls-13 {
        fill: url(#Unbenannter_Verlauf);
      }
    </style>
    <clipPath id="clippath">
      <rect class="cls-1" y="0" width="322" height="270"/>
    </clipPath>
    <radialGradient id="Unbenannter_Verlauf" data-name="Unbenannter Verlauf" cx="-127.03" cy="536.68" fx="-127.03" fy="536.68" r="1" gradientTransform="translate(2094.99 8113.82) scale(15.16 -14.89)" gradientUnits="userSpaceOnUse">
      <stop offset="0" stop-color="#dea88e"/>
      <stop offset="1" stop-color="#f5e8d6"/>
    </radialGradient>
    <radialGradient id="Unbenannter_Verlauf_2" data-name="Unbenannter Verlauf 2" cx="-125.17" cy="534.86" fx="-125.17" fy="534.86" r="1" gradientTransform="translate(1689.84 7397.76) scale(12.56 -13.6)" gradientUnits="userSpaceOnUse">
      <stop offset="0" stop-color="#dea88e"/>
      <stop offset="1" stop-color="#f5e8d6"/>
    </radialGradient>
  </defs>
  <g class="cls-2">
    <g>
      <path class="cls-3" d="m203.65,176.92l4.3,14.75-16.49,49.62-41.16,14.75-40.06-10.61-21.48-42.04,2.77-17.51c2.81-.19,25.93-8.61,27.59-14.69,0,0,1.11-8.17-.8-9.9-5.81-5.24-12.03-14.06-12.03-14.06l-11.41-27.36,17.77-30.2,30.88-25.87c34.53,22.53,31.01,15.87,53.48,51.59-3.58,13.68-11.37,43.09-15.07,56.5.4,1.87,21.8,5.7,21.72,5.03h0Z"/>
      <path class="cls-4" d="m118.89,163.67s9.24,22.49,27.56,26.86,35.5,2.97,45.73-9.41c6.45-7.82-7.23-5.73-11.32-12.16-3.55-5.58-3.93-16.65-5.11-13.93-14.77,20.95-39.33,21.21-56.86,8.64Zm22.45-86.28c-10.95,19.28-14.14,11.16-24.95,20.47-5.58,6.19-6.62,19.91-11.75,24.36-7.3,6.34-2.21,11.59-2.21,11.59l-7.52-6.74,12.09-26.59,11.09-15.91,18.86-11.14,5.02-7.6,12.68,18.47,23.12,5.6,13.47,16.58-.67,16.32-9.71,3.3c2.85-13.61,7.53-26.36-10.58-30.97-13.27,3.39-24.5-9.06-28.94-17.72h0Z"/>
      <path class="cls-8" d="m286.59,317.64s8.84-1.48,8.25-3.7c-6.13-27.13-25.14-87.02-26.35-115.03-2.02-18.77-3.59-11.06-18.5-14.52-9.72-2.47-12.72-6.3-24.99-8.51s-26.57-2.78-24.47-.47c7.07,7.79,2.45,26.25,2.45,26.25-4.41,29.41-22.62,47.3-52.64,48.79-23.81,6.2-47.88-11.12-56.46-40.21-6.25-15.23,1.42-19.93-1.22-27.64-.84-2.45-21.76,4.75-33.73,9.64-12.01,4.9-15.39,2.55-17.58,4.8-2.94,3.03-10.51,28.04-11.73,62.27-1.22,34.22-9.08,66.26-8.57,71.55.45,4.65,11.67,1.93,25.98,4.58,40.77,8.86,32.15,14.03,35.77-29.39,0,0,3.2,39.42-.93,58.29C72.49,400.49-2.36,590.3.46,610.15c-.45,10.62,35.21,26.59,42.35,36.25,11.3,18.29,15.63,48.06,42.31,38.79,5.99-1.59,27.56-39.72,52.78-37.67,41.57.97,72.6,64.12,88.14,40.4,3.83-7.42-.19-18.97,6.48-21.78,19.41-8.19,30.84-3.07,43.97-8.46,3.05-1.25,2.31-14.05,5.99-18.46,39.68-24.93,20.65-27.75,5.81-81.31-22.78-87.31-57.94-141.59-59.72-224.24,0,0,2.22-8.64,3.18-17.89.96-9.25.18-15.16.18-15.16,0,0-2.52,22.54,5.76,32.01,2.27,2.6,7.51-12.41,20.64-16.23,7.4-2.15,28.35-4.71,28.35-4.71l-.09,5.96h0Z"/>
      <path class="cls-6" d="m237.33,331.45l21.48-16.85c-18.74-.09-20.06-46.16-18.99-50.66,0,0-1.64-9.76-1.64-9.76-.87,6.83-2.82,32.07-6.28,37.8,0,0-.82,27.83-.82,27.83,0,0,6.26,11.64,6.26,11.64Z"/>
      <path class="cls-9" d="m121.92,21.79c-22.9,5.46-30.79,26.17-31.17,46.5l-10.92,12.17s7.99-.36,6.95,1.1-11.01,2.53-11.1,4.72,10.8,3.28,9.5,5.42c-6.53,7.46-13.77,17.67-7.98,27.19l2.2-4.21c1.67,21.87,24.5,17.23,19.14,50.33,0,0,8.05-12.28,9.39-20.5s-6.24-12.25-7.23-19.65,4.38-5.55,7.42-12.9,4.75-16.51,4.75-16.51c9.66-2.79,26.71-13.57,28.74-26.62,3.57,17.52,17.65,25.31,33.91,24.09,13.73,5.26,15.4,19.19,6.48,29.76l4.9-2.5c-.34-.23-1.13,15.33,1.52,15.86-19.96,22.52-25.21,51.5,2.57,66.21-7.46-9.28-9.57-21.44-7.65-28.3,2.59-23.61,27.46-26.18,22.23-51.02-.69-4.04,2.76-4.94,1.34-14.08-1-6.46-3.98-6.28-4.89-14.38-.33-2.95-.65-6.88.48-9.67.82-2.03,4.88,3.79,3.74-.15-4.5-21.8-3.87-51.2-25.46-57.89,9.27-28.03-68.24-38.93-58.85-4.96h0Z"/>
      <path class="cls-7" d="m112.33,97.74c-9.31,1.32-13.65,2.31-5.5-6.91-1.36.64-20.57,6.89-23.58,2.4l3.29-2.68,12.36-.28,12.01-3.75-5.79,10.21,8.31-2.08-1.1,3.1Z"/>
      <g class="cls-11">
        <path class="cls-13" d="m178.85,108.58l-30.4,4.74,6.26,25.68,29.64,1.56-5.5-31.97h0Z"/>
        <path class="cls-12" d="m139.68,104.74l-28.89,6.38-7.18,15.12,9.8,12.37,20.81-10.46s5.46-23.4,5.46-23.4Z"/>
      </g>
      <path class="cls-5" d="m154.16,111.61c2.58,1.21,14.77,3,18.01-.05l2.92-6.91-5.67-.96-8.55,1.41-5.67,2.68-1.05,3.82h0Zm-23.11-.05l-2.8-5.04-9.89-2.49-6.56-.12-.26,5.13,2,3.07c2.05,2.08,16.37.38,17.52-.54Z"/>
      <g>
        <path class="cls-10" d="m238.69,251.05c-3.07,5.44-1.39,13.62-2.42,19.99-.5,24.72-15.8,36.93-40.02,33.79-2.49-.27-6.28.97-1.79,2.43,39.69,4.66,44.7-24.55,44.23-56.22h0Zm-84.01-1c-1.85-.08-.59,3.87-.78,4.78.09,1.17-.57-5.04-.21-1.22.43,3.58.14,2.79.44,4.99,1.25,2.3,1.15-3.39,1.27-3.75.1-.84-.04,1.71.05,2.56.06-.61.29-4,.34-5.09-.47,2.93.71-2.69-1.12-2.27h0Z"/>
        <path class="cls-10" d="m156.58,258.3c-.15.04-.25.18-.39.23-1.14.41,0,0-.34.39-.17.03-.12.29.05.26-3.32,1.13-.68.32.42.23,1.31.33,2.93.26,3.9,1.53,5.47,7.18-3.36,11.03-7.62,4.29-1-1.35-1.52-3.54.05-4.58,1.05-.55,0,0,.23-.31.4-.09.26-.76-.16-.65l1.56-.39c-10.07,0-1.22,13.58,5.41,11.02,6.51-1.99,2.87-12.34-3.12-12.02h0Z"/>
        <path class="cls-10" d="m154.74,269.36c-1.43.81-3.77,20.86-.16,15.72-.38-4.25.34-11.82.16-15.72Zm37.55-39.07c-13,19.72-40.74,21.93-62.43,19.5-2.7.81.58,2.12,1.87,2.12,20.66,1.43,51.28.24,60.56-21.62h0Zm-120.57,12.44c11.65,18.36-7.58,44.8,9.54,61.49,3.98,3.38,13.04,8.82,17.81,6.72.1-.49-.23-.96-.73-1.06-16-2-25.14-14.91-23.14-30.67-.21-11.66,5.45-27.27-3.48-36.48h0Zm46.2-81.56c5.29,15.58-14.06,17.92-24.44,22.83-.87.42-.2,1.8.68,1.35,9.8-4.42,32.7-9.52,23.77-24.18Z"/>
        <path class="cls-10" d="m106.71,148.63c-.88,2.29,7.57,10.48,9.57,12.28,8.45,7.81,19.21,13.7,31.02,12.64,1.69-.39,5.45.16,5.64-2.04-.13-.58-.69-.95-1.27-.83-16.03,4.45-30.46-6.08-40.15-17.89-1.57-1.29-2.64-4.15-4.81-4.16h0Z"/>
        <path class="cls-10" d="m178.06,151.4c-4.88,4.14-9.37,10.5-15.08,14.35-3.09,2.14-6.36,4.16-10.01,5.1-.41.08-.68.47-.6.88,7.76,2.33,22.82-13.72,25.69-20.32ZM31.1,239.75c-2.29-.42-1.21,7.36-1.64,8.38-.21,1.21-.19,4.34-.18,5.61-1.12,11.43-3.32,23.64-4.84,35.06-.38,5.41-9.58,48.07-1.85,46.11,15.49.37,31.04,2.25,46.21,5.61,1.99.12,7.19,2.41,9.12,1.37,7.74-7.72,4.6-24.06,5.28-34.31,0-.61-.9-.6-.91,0-.9,10.58,1.13,23.11-5.15,32.25-1.46,1.32-3.81-.36-5.41-.62-16.08-4.04-32.73-6.74-49.3-6.62-.52-9.09,2.27-20.71,3.25-29.81,1.45-10.43,2.95-21.08,4.08-31.55.84-6.06.89-12.36,1.74-18.44.08-2.85,2.42-12.01-.42-13.03h0Z"/>
        <path class="cls-10" d="m90.61,181.57c-14.89,2.06-28.26,9.83-42.77,13.42-4.17,1.29-9.85.24-10.95,5.74-4.38,13.85-5.6,28.66-7.05,43.08,3.65,6.73,4.56-20.69,5.54-22.88,1.49-6.97,1.15-16.08,5.15-22.14,1.56-.45,3.52-.03,5.17-.67,9.43-2.6,19.26-7.12,28.45-10.55,4.32-.85,20.52-10.3,18.49-.65.26,2.2-1.5,5.19-.62,6.96,1.14-2.16,3.55-12.86-1.4-12.31h0Z"/>
        <path class="cls-10" d="m39.42,197.84c-1.02,2.48,2.42,4.18,1.98,6.77-.59,2.41-2,4.92-.68,7.4,1.12,1.42,3.22.32,4.42,1.68-3.45,4.91,1.02,8.02,4.47,11.17,2.39,1.74,5.88,4.72,8.32,6.41,1.28.47-2.48-3.38-2.37-3.44-2.01-1.85-4.83-4.91-6.63-6.93-.78-1.21-2.87-2.41-2.47-3.98,2.16-3.65.38-6.89-3.98-6.28.45-5.4,2.42-8.79-3.07-12.8h0Zm5.8,15.64s.02.04,0,.05c0-.01-.01-.06,0-.05Zm70.18-23.04c-2.73,1,5.92,3.58,6.76,4.27,7.84,2.2,15.56,6.45,21.66,11.12-6.13-8.39-18.86-11.6-28.42-15.39Zm59.59-1.11c-4.32,3.84-19.54,8.32-15.99,15.54.03-5.84,6.25-8.62,10.92-11.27,1.16-.58,6.06-3.44,5.07-4.27h0Zm91.11-1.08c-.55.96.37,4.79.42,5.95.16,1.84.63,5.61.91,7.45.65,13.55,5.54,26.96,8.16,40.18,6.01,23.89,12.37,48.2,18.31,72.09,5.9,5.62-9.09-41.95-9.18-45.12-4.32-16.47-9.81-35.68-13.13-52.23-2.53-9.15-1.92-19.84-5.49-28.31Zm-61.34-15.02c-9.24.29-1.91,8.3-1.95,3.18,12.83-2.67,26.62,1.84,39.03,5.43,5.94,2.73,12.17,4.67,18.77,4.81,1.52.13,3.62-.09,4.58,1.35.07.24.33.38.57.31,1.2-2.95-4.67-3.28-6.66-3.54-7.5.08-14-3.45-20.88-5.9-10.79-3.46-22.1-5.84-33.46-5.64Zm-2.05,2.69s.11.24.05.34c-.02-.08-.11-.33-.05-.34Z"/>
        <path class="cls-10" d="m265.5,187.42c-.69,7.52-11.93,9.92-7.31,18.8.31,1.81-.41,3.61-1.43,5.09-1.31,3.01-12.87,15.62-10.66,17.45,1.74-.08,2.03-3.17,3.43-4.19,2.03-2.15,4.48-5.68,6.42-7.89,8.41-10.92,2.69-8.29,3.35-16.81,1.56-3.89,10.04-8.06,6.19-12.46h0Zm-150.81,55.62c1.14,2.78,4.28,3.79,6.81,4.99,1.22.37,2.8,1.37,4.11,1.04-.74-1.22-3.33-1.85-4.52-2.59-1.8-.65-4.53-2.88-6.4-3.44Zm-8.24-107.36c1.24,9.56-2.35,20.67-7.98,28.55.14-1.5,2.33-9.18.62-9.54-1.13-.12-.61,2.49-.81,3.05-4.87,25.53,15.88-18.18,8.17-22.06h0Zm-26.68-22.73c-3.42,14.96,17.26,24.03,19.27,37.78.36-12.32-15.16-19.55-17.7-31.55-.96-1.87-.06-4.92-1.56-6.23Z"/>
        <path class="cls-10" d="m84.35,92.08c-6.49,6.13-14.94,20.23-6.76,27.44,2.43-2.91,2.95-7.53,6.11-10.24-.25-4.83-6.05,6.35-6.35,7.83-3.95-8.45,1.95-18.18,7.64-24.38.43-.41-.24-1.08-.65-.65h0Zm26.83-7.11c-6.79,4.95-16.53,6.02-24.7,4.65-3.33-.56-6.39-2.03-9.21-3.83-.34-.24-.82-.18-1.07.16,7.18,9.22,26.36,5.69,35.49-.23.5-.34-.01-1.11-.52-.75h0Z"/>
        <path class="cls-10" d="m87.91,80.03c-.2-.16-.49-.12-.65.08-2.29,2.88-6.29,4.14-9.78,4.86-1.79.72-1.55,1.45.29,1.63,3.63-.72,9.24-2.89,10.14-6.57h0Z"/>
        <path class="cls-10" d="m80.61,79.38c-1.06-.37-1.61,1.3-.54,1.63,0,0,3.64-.31,3.64-.31,1.03-.11-2.05.25-3.04.52-.21.06.39.11.6.16,1.71.25,4.23.18,5.57-.7-2.25.01,0,0,.52-.31.16-.04.07-.3-.08-.26,0,0-3.33-.36-3.33-.36-.91-.12,1.82.24,2.73.39-1.59-.03-3.83,0-5.54-.59,2.05.16,0,0-.52-.15h0Z"/>
        <path class="cls-10" d="m114.25,36.25c-4.21,4.58-9.26,13.07-13.13,18.64-5.25,9.29-13.97,17.04-20.23,24.8,10.14-5.51,17.09-17.92,23.53-27.69,2.19-3.82,5.81-9.33,8.14-13.06.17-1.08,2.29-1.71,1.69-2.69h0Zm14.87-16.81c-22.21,1.53-37.59,24.63-38.2,45.56,1.51,4.22,2.82-13.1,4.5-14.45,6.23-18.8,24.45-33.43,44.57-29.19-2.75-2.08-7.38-1.9-10.87-1.92Zm-17.76,65.94c-.35-.15-3.05,5.54-3.25,5.66-.9,2.09-4.07,3.42-4.27,5.48,3.27.07,8.31-7.98,7.52-11.14h0Zm10.82,4.42c-4.71,4.06-10.89,4.72-16.51,6.75,5.52.29,13.99-2.46,16.51-6.75h0Zm26.29-68.37c-9.88,4.31-11.71,21.6-9.15,30.51,1.31-11.23.24-22.85,9.15-30.51h0Zm9.36,1.84c-.9.18-2.42.17-2.89.96,2.21.32,4.94-.1,7.25.75,2.64.81,6.35,2.23,9.05,3.02,5.8.25,11.93-1.01,16.25,4.06,3.2,2.86,5.89,6.1,8.01,9.82.27.46.86.63,1.32.36.64-5.01-10.6-13.55-15.42-15.28-3.25-.81-6.63.81-9.88.13-4.55-1.26-8.85-3.97-13.7-3.83h0Zm40.01,20.46c1.63,6.63,4,14.32,4.13,21.72,1.13,6.84.69,15.91,5.49,21,.99-.7-1.52-5.91-1.64-6.98-3.34-11.09-.95-26.52-7.98-35.74h0Z"/>
        <path class="cls-10" d="m203.3,83.5c-1.24-.41-1.87,1.52-.62,1.91,0,0,2.24.59,2.24.59.5.14-1.01-.28-1.53-.34.47.37,2.22.41,2.96.8-1.22-.34,0,0,.78.16.55.23.9-.64.34-.85-2.09-1.13-1.11-.72-2.08-1.14-.49-.21.95.49,1.43.72-.39-.04-2.3-1.78-2.73-1.66,1.1.74,0,0-.78-.21h0Z"/>
        <path class="cls-10" d="m202.24,84.27c-4.75,11.46,8.79,24.7.91,36.04-.59,1.33-3.22,2.62-1.79,4.16,2.04,1.2,3.23-2.32,4.24-3.59,5.84-11.95-4.75-24.4-3.36-36.61Z"/>
        <path class="cls-10" d="m194.65,103.25c-.74.15-.95,1.23-.29,1.63,3.24,2.31,5.77,5.62,7.28,9.28,1.77,3.59,1.29,6.56-.21,9.7,6.66-3.87-1.05-18.54-6.79-20.61Zm-4.63,14.12c-.23-.11-.51-.02-.62.21-1.41,2.64-4.71,3.16-6.99,4.76-1.05.63.38,1.12,1.02,1.06,2.55-.41,6.93-3.43,6.6-6.02Z"/>
        <path class="cls-10" d="m184.9,99.42c1.78,9.35,5.05,15.57-2.91,23.06,8.48-2.74,6.88-16.94,2.91-23.06Zm9.21,21c-3.95,4.97-2.32,17.57,4.65,19.06-5.71-4.99-7.38-11.91-4.65-19.06Z"/>
        <path class="cls-10" d="m187.37,121.79c-.25-.04-.5.11-.55.36-.47,3.17-1.92,7.89-.6,10.99,2.02,4.05,8.9,10.8,13.08,6.03.1-1.24-.96-.62-1.04.31-4.15,2.61-9.34-3.24-11.13-6.7-1.18-3.38.3-7.07.6-10.47.05-.24-.12-.48-.36-.52h0Zm16.93-.67c9.63,27.02-41.7,37.81-15.26,81.14.74,1.21,2.67.07,1.9-1.16-26.79-38.75,28.71-57.75,13.36-79.98h0Z"/>
        <path class="cls-10" d="m177.98,151.4c-3.56,2.4-4.24,8.18-5.56,12.18-3.94,14.1,2.98,28.53,14.67,36.67,2.74,2.4,3.75,1.55.49-.62-17.7-14.01-16.63-29.26-9.59-48.22h0Zm5.67,20.51c-4.19,2.01,19.77,6.06,16.56,3.21-5.25.07-11.55-1.94-16.56-3.21h0Zm-28.32-84.07c1.11,6.4,27.36,3.11,35.23,13.73-5.51-11.85-24.46-9.18-35.23-13.73h0ZM146.78-.16c-10.82-.98-27.86,2.61-26.65,16.5-.26,1.41,1.71,6.57,2.5,3.05-8.5-29.58,62.83-19.93,58.53,3.96.26.92-2.63,4.87-.49,3.83C189.19,8.6,160.64.31,146.78-.16h0Z"/>
        <path class="cls-10" d="m167.94,90.91c-4.44,1.5-9.98,3.28-13.5,6.47-.39.52-.55,1.2-1.14,1.55-.6.8.55.82.96.34,5.06-.99,10.11-3.37,14.87-5.38,1.92-.75.73-3.78-1.2-2.97h0Zm-48.39.31c-4.32,2.93,2.18,4.67,4.34,5.43,2.55,1.2,6.24,3.09,8.94,3.75,3.95.17-12.45-10.43-13.29-9.18h0Zm31.59,39.7c-1.94-.35-3.22,2.79-4.99,3.57-4.41,3.46-7.57-.97-10.48-3.41.41,2.78,4.12,5.79,7.18,5.77,3.01-.35,8.02-2.85,8.29-5.92h0Zm24.86-32.14c-6.05,6.01-10.9,3.72-18.18,6.23-2.04-.18-6.25,8.19-3.38,6.67,2.09-8.75,12.62-4.25,18.85-6.49,2.33-.29,6.99-6.13,2.71-6.41Z"/>
        <path class="cls-10" d="m176.55,98.98c-4.07-.01-1.54,7.35-3.64,9.93-.11,1.2-.95,2.29-2,2.84-.56.21-.21,1.08.34.85,3.26.31,9.41-13.25,5.31-13.63Zm-65.86,2.07c-4.1,5.44,14.27,3.56,16.56,6.08,1.48,1.23,2.83,2.73,3.38,4.6.09.24.39.35.62.26.16-6.15-8.03-8.15-13.16-8.66-.97-.22-1.92-.66-2.89-.83-.71-.16-3.79-1.95-4.53-1.45h0Z"/>
        <path class="cls-10" d="m111.29,103.43c-.65-.02-1.21.49-1.22,1.14,1.49,3.78.77,2.4,1.51,3.78.54,1.01-.88-2.15-1.51-3.1-.37,1.93,1.09,5.09,2.39,6.46-.72-2.41,0,0,.6.41,2.08,1.28-.79-4.84-.52-5.74.03-.18-.13-1.25-.13-1.14.48,2.13,0,0,.03-.62.02-.64-.5-1.17-1.14-1.19Zm2.37,7.34c.28.78-.58-2.79-.52-2.66.06,1.05.23,1.47.52,2.66Zm52.37,31.57c-6.1,6.03-14.05,4.51-21.4,7.06-1.85.76-3.48-1.6-5.41-.77-4.67.57-10.25,2.69-14.35.31,1.03,4.52,12.21.22,15.76.57,1.81,1.2,3.73,2.01,5.83.85,3.11-1.3,6.45-.85,9.7-1.24,1.69.48,13.98-6.43,9.88-6.78h0Zm-12.27,9.8c-4.72,2.38-10.42,2.75-15.58,1.52-2.41,1.87,8.93,2.3,10.35,1.89,1.52.27,7.61-1.58,5.23-3.41h0Zm7.21-43.69c-.08-4.83,8.12-4.83,8.04,0,.08,4.83-8.12,4.83-8.04,0Zm-43.57,0c-.07-4.83,7.12-4.83,7.06,0,.07,4.83-7.13,4.83-7.06,0Z"/>
      </g>
    </g>
  </g>
</svg>