<?xml version="1.0" encoding="UTF-8" standalone="no"?>
<!DOCTYPE svg PUBLIC "-//W3C//DTD SVG 20010904//EN"
              "http://www.w3.org/TR/2001/REC-SVG-20010904/DTD/svg10.dtd">

<svg xmlns="http://www.w3.org/2000/svg"
     width="39.8589mm" height="49.03mm"
     viewBox="0 0 113 139">
  <path id="Auswahl"
        fill="none" stroke="black" stroke-width="1"
        d="M 1.00,139.00
           C 1.05,133.61 2.26,121.02 3.77,116.00
             5.09,111.58 8.31,106.31 8.07,101.83
             7.58,92.63 2.25,90.85 0.51,85.00
             -1.99,76.59 3.81,71.97 4.11,68.00
             4.33,65.09 -0.04,57.98 3.03,50.04
             5.27,44.24 10.80,44.15 15.04,37.96
             19.05,32.11 23.93,17.83 28.22,13.90
             36.97,5.89 47.65,3.14 59.00,1.58
             61.79,1.19 66.28,0.52 69.00,0.89
             71.55,1.24 78.56,4.19 80.83,5.53
             84.66,7.78 88.19,12.63 91.15,16.00
             94.13,19.39 101.77,27.70 103.79,31.00
             105.98,34.59 110.75,44.94 110.81,49.00
             110.86,52.95 108.85,55.79 109.19,58.42
             109.53,61.14 112.05,63.35 111.39,67.00
             110.86,69.89 108.00,72.94 106.84,76.00
             105.32,80.00 106.60,83.72 105.36,88.00
             104.03,92.64 99.71,97.80 99.31,100.42
             98.98,102.64 101.19,107.67 102.00,110.00
             102.00,110.00 93.00,109.06 93.00,109.06
             90.25,109.52 88.75,111.50 86.00,111.89
             81.45,112.56 82.52,109.44 73.00,113.00
             73.00,113.00 83.00,139.00 83.00,139.00
             83.00,139.00 1.00,139.00 1.00,139.00 Z" />
</svg>
