<svg width="395" height="264" viewBox="0 0 395 264" fill="none" xmlns="http://www.w3.org/2000/svg">
<path d="M142.757 88.3613L134.074 120.976L100.109 140.139L123.604 46.9898L142.757 32.4332L157.058 8.6829L184.639 0L235.971 10.7259L245.675 26.8148L253.592 43.1591L252.826 64.8664L268.659 85.0414L252.826 130.754H235.971L219.371 140.459L236.737 146.077L244.398 158.335V199.451L239.035 222.691L266.616 231.118L300.582 245.42L343.23 252.06L368.002 250.272L391.752 257.167L394.05 263.041H343.23H188.725H0L38.8177 218.349L66.3987 170.083L112.112 129.477L143.779 117.219L142.757 88.3613Z" fill="#070D1C"/>
</svg>
