<svg xmlns="http://www.w3.org/2000/svg" xmlns:xlink="http://www.w3.org/1999/xlink" width="183" height="583" fill="none"><g clip-path="url(#F)"><g fill="#f5e8d6"><path d="M127.938 526.942l5.705 7.767 15.403-4.846s4.857-6.582 4.029-12.096c-1.071-7.128-2.034-3.246-2.322-7.979-.93-15.267 1.917-53.198 1.917-53.198s4.283-28.608 4.78-42.808-2.254-15.992-2.254-15.992l-2.334-12.632c-.618-4.077-.938-10.474-.938-10.474l-48.084-.979s1.877 9.521 6.31 18.637c2.044 4.203 1.452 7.916 2.271 11.826 1.001 4.781 3.171 9.363 3.171 9.363s-1.804 12.812.814 29.432 8.195 23.536 9.659 37.043c1.757 16.204 2.386 32.704.84 42.838-1.772 11.607 1.033 4.098 1.033 4.098zM83.67 367.223l-1.651 11.422c-.072.497.841 2.685.785 6.306s-1.01 8.177-1.01 8.177 1.603 2.215 1.844 4.519c.673 6.445-.012 16.012-1.083 28.279s-2.823 16.055-3.2 20.789c-1.32 16.604 2.685 54.195 2.685 54.195l-4.138 12.096-23.212-.959 2.526-11.833s-.503 1.397-.473-5.11c.011-2.408.527-3.923.775-7.315.423-5.783-.665-10.958-1.333-16.275-.837-6.666-9.082-29.787-13.341-46.776s-3.102-11.641-3.695-21.179 1.323-16.976 1.323-16.976l22.424-21.899 20.774 2.539zm-40.944-177.05s-1.843 7.72-2.468 14.547 1.706 2.002-.032 12.759-6.92 30.27-6.92 30.27l-21.622 62.546s-2.116-.804-1.868-5.357 1.919-10.903 1.919-10.903.885-9.024-.733-12.992c-.939-2.306 2.131-6.391 2.131-6.391l-1.889-40.837s-.009-12.814-.495-20.458c-.234-3.676 3.207-10.981 3.207-10.981l.384-14.235 28.384 2.032z"/></g><path d="M13.807 190.331s20.74 3.896 23.38 6.815c1.887 2.087.483 8.261 1.002 11.348 1.546 9.194-.387 19.603-.387 19.603l3.054-12.859.702-18.319 1.064-3.385-24.488-4.184-4.327.981z" fill="#e3caba"/><path d="M115.742 100.593l2.442 8.386-9.374 28.214-23.395 8.386-22.764-6.035-12.209-23.904 1.575-9.953s6.516-1.822 10.437-3.909 5.246-4.441 5.246-4.441.631-4.644-.457-5.627c-3.3-2.981-6.834-7.995-6.834-7.995l-6.485-15.557 10.1-17.173L81.57 36.275l19.231 12.488 11.164 16.844-5.024 19.053-3.542 13.071s1.753 1.073 4.839 1.788 7.504 1.074 7.504 1.074z" fill="#f5e8d6"/><g fill="#e3caba"><path d="M39.035 395.693s3.227 8.12 9.775 9.321 8.061-1.836 16.417-4.515c1.785-.573 6.947-4.147 10.4 2.574 3.604 7.013 5.498 24.315 7.055 22.833 3.937-3.747-.291-39.874-.291-39.874l1.514-20.063-17.939 1.774-18.682 16.789-8.609 4.111.359 7.05zm72.018-.001s8.03 8.77 13.411 9.321 11.448 13.408 16.422 13.571 6.202-13.3 6.202-13.3.759-1.675 3.429-5.662 3.931-7.656 3.931-7.656l-1.981-8.893-.321-10.309-24.508.203-24.117 2.577 6.038 15.093 1.494 5.055zM67.572 93.064s5.253 12.791 15.666 15.271 20.178 1.69 25.988-5.349c3.667-4.443-4.109-3.258-6.433-6.913-2.016-3.173-2.232-9.466-2.905-7.92-.684 1.571-4.559 5.585-9.522 7.925-3.804 1.794-8.656 2.274-10.734 1.906-6.453-1.143-11.569-4.64-12.06-4.919zm12.759-49.057s-2.024 4.106-5.568 7.017-5.436 1.106-8.608 4.624-3.763 11.319-6.679 13.852c-4.147 3.603-1.254 6.589-1.254 6.589l-4.272-3.834 6.87-15.119 6.304-9.047 10.719-6.337 2.85-4.322 7.204 10.501 13.138 3.186 7.656 9.426-.383 9.277-5.517 1.874 1.248-6.239s1.191-4.443-.625-7.285-6.638-4.086-6.638-4.086-4.834 1.03-8.946-1.489-7.5-8.588-7.5-8.588zM67.802 505.67l2.919-3.51s1.485 5.801 3.773 6.545 5.083-.739 5.771-4.164-1.481-2.828-1.735-11.786.718-24.046.718-24.046 1.573 21.769 3.171 31.786c.266 1.665-.46 6.173-3.376 8.774-2.917 2.607-8.29 1.642-8.29 1.642l-5.923 2.739 4.305-6.568-1.333-1.412z"/></g><g fill="#fff"><path d="M126.203 524.649s-2.382 6.182-1.569 11.235c.87 5.406.917 9.226.917 9.226l8.754 10.84 5.024 13.959 10.129 8.441s10.576 4.757 19.742 3.091c7.922-1.44 10.606-6.521 10.138-14.387-.467-7.857-7.506-17.107-7.506-17.107l-14.42-18.293s-1.454 1.068-2.796-2.018c-1.488-3.42-4.412-9.363-5.615-9.363-4.98 0-12.475 4.117-13.406 5.759-.751 1.327 5.932 10.219 5.932 10.219l-10.992-6.163-4.332-5.439zm-43.82-25.645s1.572 1.007 2.297 4.996.602 10.963.602 10.963l.424 8.492s-2.839 4.526-7.24 8.158-10.362 6.37-10.362 6.37-1.645 7.792-8.366 12.915-10.466 7.726-18.521 7.58-10.63-2.569-13.502-7.806c-2.872-5.231 2.015-13.131 2.015-13.131l11.763-14.561s5.118-6.107 8.119-10.271 3.886-6.389 3.886-6.389h1.171l2.616-4.032s3.145.216 6.05 1.298 5.569 3.044 5.569 3.044l-1.101 2.64-3.647 5.5s3.014-2.174 4.56-3.016 1.623-.353 1.623-.353 5.694.405 8.706-2.696 3.341-9.701 3.341-9.701z"/></g><path d="M48.478 556.976s-3.46-6.172-.354-15.685 12.777-22.367 12.777-22.367l8.128-7.636s7.567-.758 9.438-2.019c3.016-2.027 4.35-9.837 4.35-9.837s2.036 1.726 2.333 8.473l.797 15.427s-2.233 3.43-6.315 6.977-11.257 7.632-11.257 7.632-2.176 7.024-8.487 12.613c-5.154 4.564-11.409 6.422-11.409 6.422z" fill="#bfc4c6" fill-opacity=".669"/><path d="M162.878 180.609s5.021-.845 4.689-2.104l-10.791-42.072s-2.047-7.11-3.224-14.016-.96-9.319-.96-9.319-.192-6.644-2.628-7.469-2.362.621-7.884-.785-7.231-3.581-14.203-4.839-15.101-1.582-13.907-.266c4.017 4.43 1.393 14.924 1.393 14.924s-2.165 13.051-9.085 19.902-20.832 7.843-20.832 7.843-10.629 2.48-18.651-3.236-9.886-10.967-13.439-19.628.808-11.334-.69-15.716c-.476-1.394-12.365 2.701-19.171 5.479-6.824 2.785-8.745 1.449-9.989 2.73-1.671 1.721-5.973 15.945-6.665 35.404s-5.163 37.674-4.869 40.68c.259 2.646 6.63 1.098 14.764 2.604s16.813 4.479 17.773 3.419c2.274-2.512 2.559-20.132 2.559-20.132s1.82 22.416-.526 33.144c-3.914 17.9-8.038 24.535-21.073 58.711C11.894 301.453.46 342.169.26 346.926c-.254 6.04 20.014 15.118 24.074 20.613 4.941 6.687 4.666 13.638 10.526 19.212s10.582 3.625 13.522 2.843c3.407-.906 15.664-22.586 29.995-21.421 18.373 1.493 36.741 22.756 40.949 25.111 3.66 2.049 7.428 1.188 9.144-2.14 2.174-4.215-.11-10.782 3.683-12.383 11.03-4.657 17.528-1.743 24.989-4.811 1.733-.713 1.311-7.99 3.406-10.497 2.648-3.169 9.004-4.857 12.212-9.753 4.214-6.435-3.838-18.263-8.91-36.479s-11.38-36.385-11.38-36.385L133.083 224.3l-3.176-34.583s1.261-4.91 1.805-10.169.101-8.621.101-8.621-1.43 12.817 3.274 18.202c1.29 1.477 4.268-7.058 11.732-9.227 4.206-1.221 16.11-2.68 16.11-2.68l-.051 3.387z" fill="#c46b57"/><g fill="#a05b52"><path d="M42.375 163.339c.876-2.128 2.395.914 8.841 3.343s7.996 4.381 17.343 6.029 39.18-2.843 39.18-2.843 8.889-2.132 15.221-5.324 11.885-9.733 11.885-9.733l-3.03 11.565-1.132 33.708s-.814-18.767-11.953-21.359c-5.537-1.289-21.198-2.395-28.365-1.927-8.999.587-19.369 4.481-24.653 5.005-9.491.942-17.589-2.925-17.589-2.925l-1.095-4.653s-5.53-8.757-4.654-10.886z"/><path d="M134.882 188.461l12.205-9.582s-3.941.422-7.68-6.637-3.114-22.165-3.114-22.165l-.931-5.552-1.889 16.584-1.68 4.912-.469 15.824 3.558 6.616zm-90.559-17.604l-2.068 10.641-3.494 11.28 5.134 1.206s1.873-4.327 2.802-8.914l.246-1.37c.785-5.054.09-9.934.09-9.934l-2.71-2.909zm13.071 71.944s-1.357 60.14 3.162 86.478 13.169 39.341 13.169 39.341-7.904 2.369-13.768 8.852c-5.822 6.437-12.323 14.753-13.712 12.82-1.81-2.519 1.582-26.721 1.582-26.721l9.567-120.77zm60.178 39.931l13.753 95.654c.57 5.669-2.874 17.307-3.6 13.415-4.431-23.751-10.153-109.069-10.153-109.069z"/></g><path d="M69.289 12.388s-6.227 1.363-10.437 5.716-6.402 11.693-6.402 11.693l-.877 9.031-6.207 6.921s4.538-.204 3.949.623-6.26 1.437-6.308 2.683 6.14 1.864 5.401 3.082c-1.277 2.105-4.219 4.359-5.353 8.224s.819 7.234.819 7.234l1.252-2.396s-.091 3.225 2.195 6.764 5.209 4.093 7.545 8.812 1.136 13.039 1.136 13.039 4.573-6.982 5.336-11.655-3.548-6.966-4.109-11.171 2.491-3.156 4.219-7.337 2.697-9.389 2.697-9.389 7.013-2.497 11.096-6.282 5.236-8.856 5.236-8.856 1.621 7.314 6.439 10.738 12.831 2.959 12.831 2.959 3.916 1.627 5.566 4.351 1.508 3.402 1.037 6.543-2.919 6.025-2.919 6.025l2.785-1.419s-.45 3.839-.183 6.178 1.048 2.838 1.048 2.838-8.419 9.941-9.621 18.625c-1.688 12.2 12.231 20.449 11.083 19.021-4.24-5.274-5.438-12.189-4.349-16.089 1.978-7.081 1.389-7.555 7.071-13.183 5.332-5.282 6.658-9.404 5.563-15.824-.392-2.299 1.567-2.812.762-8.004-.568-3.67-2.261-3.57-2.781-8.176-.188-1.675-.372-3.911.27-5.498.466-1.152 2.773 2.155 2.126-.086-1.584-5.482-1.308-9.313-2.042-13.522-1.511-8.655-3.057-10.822-6.396-15.516-1.889-2.657-6.031-3.878-6.031-3.878s1.949-4.812-2.059-8.416-6.154-4.363-12.682-5.643S77.37-.206 72.363 2.798s-3.073 9.59-3.073 9.59z" fill="#e0bd6f"/><path d="M63.841 55.576s-5.5.858-5.62.226c-.234-1.231 2.494-4.158 2.494-4.158s-5.435 1.774-8.493 2.278-4.905-.914-4.905-.914l1.869-1.523 7.024-.158 6.825-2.132-3.294 5.804 4.722-1.185-.622 1.761z" fill="#b69c65"/><path d="M163.038 177.195s.117 5.77 2.401 12.081 4.431 11.117 6.394 16.966c4.412 13.147 4.412 38.311 4.412 38.311s-.703 19.033 2.777 32.2c3.394 12.836 3.749 18.984 3.749 18.984l-4.287 20.562s-8.624 14.535-12.552 16.323c-.843.384-1.797-2.666-1.797-2.666s-1.962.869-2.649-.41-.312-3.794-.312-3.794l7.291-12.106.036-11.941-1.694-1.496-2.369 12.005s-1.562 6.197-3.263 5.004c-3.65-2.557-2.79-8.58-2.79-8.58l-.793-14.384s-.183-5.835.697-10.006 2.995-6.709 2.995-6.709.484-12.088-3.759-28.321-9.592-24.006-13.381-36.577-2.276-13.249-2.276-13.249l-5.813-12.343c5.162-5.094 4.844-5.742 11.898-7.601s15.085-2.253 15.085-2.253z" fill="#f5e8d6"/><path d="M150.69 180.236s-7.534 3.874-9.796 8.324.744 9.477.744 9.477l-5.908-9.173 2.413-3.77 5.727-4.281 6.82-.577z" fill="#e3caba"/><g opacity=".5"><path d="M101.644 61.74l-17.275 2.692 3.555 14.6 16.846.886-3.126-18.178z" fill="url(#A)"/><path d="M79.383 59.553l-16.418 3.629-4.082 8.596 5.57 7.031 11.829-5.949 3.101-13.307z" fill="url(#B)"/><path d="M168.304 286.977l.088 24.624-6.216 12.281.502 6.048 9.211-4.176 7.229-11.949 2.332-13.34-5.014-12.181-8.132-1.307z" fill="url(#C)"/><path d="M139.207 412.239l-9.293-6.954.374-10.654 14.832 1.08.811 13.063-6.724 3.465z" fill="url(#D)"/><path d="M59.289 400.499s-1.458-10.208-6.788-10.208-9.976 8.658-9.976 8.658l8.546 6.066 8.217-4.516z" fill="url(#E)"/></g><g fill="#fff7f7"><path d="M87.611 63.462s3.394.968 5.817 1.045 4.419-1.071 4.419-1.071l1.661-3.928-3.221-.543-4.858.801-3.221 1.525-.597 2.171zm-13.136-.029l-1.595-2.868-5.619-1.417-3.728-.068-.15 2.917 1.137 1.743s1.697.728 4.185.651 5.77-.959 5.77-.959z"/></g><g fill="#070d1c"><path d="M135.656 142.746c-.155-.032-.307.067-.34.221-.414 1.372-.539 2.795-.65 4.22l-.384 6.924c-.238 2.756-.556 5.535-1.418 8.176-1.245 3.811-3.551 7.227-7.168 9.144-1.117.593-2.315 1.018-3.546 1.309-.787.186-1.592.379-2.394.485-.659.087-1.346.11-2.009.147-.98.055-1.945.103-2.927.089-1.094-.017-2.186-.113-3.28-.133-.294-.005-.594-.036-.887 0-.321.04-.631.157-.945.235a.36.36 0 0 0-.399.324c-.021.202.122.391.325.411.296.141.575.313.887.412.289.091.6.108.901.147.292.039.593.066.887.088.837.062 1.673.06 2.511.045 1.264-.024 2.535-.087 3.783-.295 2.085-.346 4.124-.855 6.045-1.749 1.431-.667 2.802-1.471 4.004-2.5 3.188-2.727 4.82-6.647 5.645-10.674.677-3.306.935-6.69 1.093-10.056.105-2.22.216-4.425.488-6.631.033-.155-.067-.306-.222-.339z"/><path d="M132.139 165.154c-.148-.002-.264.118-.266.265-.256 1.574-.205 3.188-.266 4.778l-.133 3.162-.104.999-.192 3.764-.502 6.234-.532 4.249-.34 2.382c-.276 2.743-.401 5.477-.325 8.234.079 2.841.345 5.663.695 8.483l.251 2.352 1.093 6.543 2.099 8.954c.965 3.683 1.886 7.406 3.073 11.027l1.493 4.352c.26.7.605 1.355.857 2.058a.58.58 0 0 0 .739.338c.296-.108.449-.426.34-.72-.266-.694-.425-1.415-.665-2.117l-1.64-4.896c-.181-.559-.392-1.105-.577-1.662a113.79 113.79 0 0 1-1.566-5.146c-.49-1.758-.921-3.53-1.33-5.307l-.813-3.558c-.124-.596-.219-1.198-.34-1.794-.553-2.744-1.031-5.493-1.433-8.263l-.34-2.308c-.176-1.51-.286-3.028-.399-4.543-.134-1.801-.247-3.604-.237-5.411.012-2.003.003-4.019.222-6.013.176-1.594.458-3.166.709-4.749.218-1.373.349-2.764.488-4.147.401-3.957.43-7.964.34-11.938-.04-1.774.099-3.573-.133-5.337.002-.147-.118-.262-.266-.265zM161.5 277.54c-.125-.078-.29-.051-.369.074-.357.581-.799 1.08-1.197 1.632-.464.641-.858 1.326-1.271 1.999-.559.912-1.067 1.85-1.404 2.867-.329.994-.615 2.056-.694 3.103-.119 1.549.058 3.124.044 4.675-.044 4.624-.017 9.223.355 13.835.146 1.82.41 3.625.783 5.411.23 1.102.526 2.159.945 3.205.361.9.869 1.893 1.64 2.514.777.625 1.735.809 2.543.162a2.87 2.87 0 0 0 .457-.471c.312-.394.545-.853.754-1.308.477-1.037.848-2.128 1.064-3.25l.207-1.117.502-2.397c.272-1.507.435-3.04.636-4.557.307-2.318.476-4.654.665-6.984.085-1.045.212-2.088.31-3.132.043-.425-.267-.795-.694-.837a.78.78 0 0 0-.858.69c-.112 1.045-.162 2.088-.28 3.132l-.828 6.939c-.096.869-.22 1.722-.34 2.588l-.355 2.5a36.78 36.78 0 0 1-.28 1.749c-.101.534-.27 1.047-.399 1.574-.261 1.058-.484 2.167-.946 3.16a4.01 4.01 0 0 1-.251.471c-.311.485-.462.615-.976.309-.068-.041-.143-.084-.206-.133a2.89 2.89 0 0 1-.399-.367 2.94 2.94 0 0 1-.399-.544c-.211-.347-.381-.713-.532-1.088-.25-.619-.4-1.28-.562-1.926-.246-.982-.406-1.956-.561-2.955-.252-1.621-.407-3.274-.503-4.911-.224-3.845-.367-7.677-.458-11.527-.028-1.192.018-2.381.045-3.573.023-1.058-.036-2.091.206-3.131.264-1.131.782-2.231 1.242-3.294.441-1.02.946-1.986 1.463-2.97.315-.601.6-1.182.975-1.749.079-.125.051-.289-.074-.368z"/><path d="M139.394 242.21c-.327.106-.52.454-.414.78l.769 3.337.576 1.617.34 1.074c.215.535.558 1.012.783 1.543s.378 1.094.577 1.632l.99 2.72 2.689 7.675 4.123 11.527 4.595 13.6 1.582 4.793c.292.893.545 1.747.975 2.588.024.078.098.127.177.103s.128-.113.104-.192c-.139-1.117-.488-2.146-.813-3.219l-1.345-4.294-4.566-13.614-3.916-11.6-2.601-7.705-.871-2.764-.503-1.632c-.131-.562-.139-1.146-.281-1.705-.092-.368-.24-.712-.354-1.074l-.488-1.646c-.365-1.09-.892-2.094-1.344-3.147-.107-.325-.457-.502-.784-.397zm27.294 56.913c-.148.007-.257.133-.251.28-.111.192-.177.255-.177.485-.001.594.774 1.683 1.211 2.073.237.211.491.314.592.632.059.186-.015.389-.045.574-.047.294-.063.6-.074.896l-.044 1.044-.089.559c-.035.399-.002.805-.014 1.206l-.045 1.249-.029 2.426v1.573c.036.396.165.772.221 1.162.021.139.03.285.03.426-.03.035-.071.069-.089.089l-.266.338-.798 1.059c-.724 1.117-1.575 2.154-2.393 3.205-.803 1.03-1.416 2.196-2.01 3.352l-.369.691c-.535 1.101-.87 2.274-1.094 3.47-.102.542-.174 1.063-.163 1.617.016.727.147 1.466.547 2.088.601.934 1.928 1.343 2.926.808.251-.073.399-.338.325-.588a.48.48 0 0 0-.591-.323c-.333.013-.787.116-1.108 0-.99-.357-1.023-1.799-.946-2.632l.104-.75a6.64 6.64 0 0 1 .162-.588l.207-.603c.153-.433.337-.862.532-1.279l.606-1.338c.454-.904 1.007-1.763 1.522-2.632.6-1.012 1.083-2.063 1.788-3.014l1.551-1.911c.157-.2.433-.457.518-.706.05-.149.021-.291.014-.441-.011-.242.007-.466.045-.705l.103-.839c.02-.518-.048-1.041-.074-1.558l-.148-4.249c.006-.568-.09-1.108-.073-1.676l.073-1.529c.01-.187.035-.343 0-.53-.045-.248-.164-.443-.28-.661l-.311-.618c-.219-.321-.557-.553-.768-.882-.138-.215-.18-.457-.296-.676-.041-.078-.206-.256-.251-.309-.006-.147-.133-.271-.281-.265z"/><path d="M178.791 303.711a.08.08 0 0 0-.104.058c-.448.825-.663 1.74-.99 2.618l-2.053 5.763-.415 1.206c-.788 1.988-1.761 3.949-2.866 5.778-1.28 2.119-2.538 4.259-4.123 6.175-.617.745-1.306 1.424-1.995 2.102l-.783.794c-.274.246-.588.458-.872.691-.213.166-.24.464-.074.677s.467.253.68.088c.308-.227.59-.493.887-.735l.931-.721c.738-.681 1.385-1.462 2.024-2.234l1.892-2.485.989-1.647 1.257-2.279 2.63-5.969 1.02-2.353c.642-1.718 1.16-3.458 1.61-5.234.187-.736.399-1.429.429-2.19.013-.048-.026-.09-.074-.103zm-.458 11.601c-.149.023-.288.106-.385.236l-2.689 4.322c-1.771 2.875-3.528 5.794-5.66 8.425-.295.365-.43.503-.738.852-.605.686-1.237 1.334-1.995 1.853-.129.087-.542.371-.695.367-.106-.003-.185-.09-.281-.117-.158-.045-.322.036-.487-.044-.357-.174-.541-.585-.813-.853-.073-.203-.298-.322-.502-.25a.39.39 0 0 0-.237.5c-.066.979.78 1.862 1.759 1.882.159.003.42-.004.561-.088.185-.11.115-.182.281-.309.097-.075.231-.09.34-.147.174-.092.356-.195.517-.309.649-.46 1.221-1.004 1.773-1.573 1.28-1.318 2.372-2.808 3.443-4.293 1.259-1.745 2.447-3.541 3.606-5.352.893-1.395 1.718-2.885 2.763-4.176a.57.57 0 0 0-.118-.808c-.13-.096-.295-.14-.443-.118zm1.402-34.138c-.137.055-.204.202-.148.338l.325.617c.141.339.263.987.355 1.338l.354 1.338.222.647c.197.657.355 1.354.473 2.029l.34 2.764c.592 5.4.089 10.911-1.094 16.203-.605 2.704-1.396 5.376-2.246 8.013-.08.239.055.493.296.573a.45.45 0 0 0 .576-.279c.15-.43.326-.863.473-1.294.681-1.997 1.2-4.059 1.655-6.117.888-4.02 1.4-8.055 1.419-12.173.008-1.931-.093-3.806-.37-5.72-.102-.707-.263-1.39-.414-2.088l-.473-2.072c-.051-.231-.07-.464-.133-.692-.125-.452-.307-.888-.487-1.323s-.43-.838-.591-1.279c-.081-.22-.13-.451-.193-.676-.055-.137-.202-.202-.339-.147zm-16.165 34.681a.75.75 0 0 0-.576.015c-.383.171-.557.619-.384 1l.827 1.264c.194.275-.376-.552-.576-.823-.104-.14.186.295.281.441l.399.632c.092.139.229.251.31.397.026.048.044.109.059.162.086.122.268.37.369.47.02.088.104.138.192.118s.138-.104.118-.191c-.3-1.544-.237-.859-.295-1.544-.037-.439.229.858.399 1.264.036.087.027-.2.015-.294-.012-.088-.071-.162-.089-.25s-.018-.186-.03-.279c-.044-.357-.186-.689-.295-1.029l-.148-.485c.121.877.012-.003-.148-.471-.085-.19-.246-.328-.428-.397zm.34 3.088c.006.023.004.052.015.073.038.073.191.262.148.192l-.163-.265z"/><path d="M168.151 330.677a.07.07 0 0 0-.029.102l.266.78c.225.517.535 1.001.768 1.514l1.05 2.455 1.182 3.529 1.699 6.19c.462 2.34.786 4.977-.118 7.263-.43 1.087-1.16 2.042-1.98 2.867-.848.852-1.863 1.445-2.897 2.044l-3.369 1.882c-.677.393-1.378.808-1.995 1.294-.416.327-.73.764-1.138 1.102-.203.169-.45.272-.665.427-.268.194-.487.493-.709.735-.172.187-.298.289-.443.499-1.13 1.636-1.379 3.627-1.655 5.544-.187 1.292-.354 2.646-1.138 3.734-.373.517-.952.864-1.478 1.206a.66.66 0 0 0-.31.882c.157.328.557.465.886.309 1.629-.551 2.608-2.014 3.148-3.573.628-1.815.748-3.759 1.212-5.616.201-.809.502-1.72 1.004-2.397.107-.144.229-.271.34-.412.155-.196.274-.42.459-.588s.424-.266.635-.397l.635-.397 1.241-.838 5.764-3.778c.771-.579 1.591-1.171 2.216-1.912.639-.757 1.145-1.599 1.448-2.543.586-1.824.422-3.88.222-5.749-.295-2.765-.947-5.543-1.995-8.131-.472-1.167-1.049-2.3-1.61-3.425l-1.227-2.412-.798-1.514c-.15-.231-.333-.431-.502-.647-.022-.039-.079-.051-.119-.029zm-14.304 43.621c-.877.119-1.716.34-2.586.485l-2.705.324-5.423.514c-.148.001-.266.118-.266.265s.118.265.266.265l1.788.088 1.847.103c1.573-.003 3.108-.102 4.67-.265l1.832-.191c.291-.06.571-.172.858-.25.375-.077.623-.436.546-.808s-.452-.607-.827-.53zm-75.202-7.217c-.262-.01-.521.018-.783.014-1.005-.014-2.025-.136-3.029 0-.475.065-.937.199-1.404.309a.61.61 0 0 0-.487.721.63.63 0 0 0 .739.485l1.995-.28c.696-.097 1.438-.194 2.142-.147.248.017.492.074.739.103l3.074.427c2.217.467 4.379 1.193 6.487 2.014 2.527.983 4.983 2.153 7.359 3.455l2.364 1.309c1.255.747 2.47 1.591 3.636 2.47l3.783 3.087 3.058 2.956c.055.064.142.069.207.014a.14.14 0 0 0 .015-.206c-.793-1.196-1.831-2.231-2.881-3.205-1.642-1.522-3.377-2.907-5.202-4.205l-4.492-3.058c-4.349-2.664-9.066-4.81-14.098-5.793-1.051-.205-2.148-.433-3.222-.47zm-55.888-1.661a.56.56 0 0 0-.384.191.55.55 0 0 0 .074.779c.104.197.181.407.31.588.118.164.279.29.414.441l1.256 1.47c.881 1.165 1.553 2.493 2.202 3.794.853 1.71 1.559 3.476 2.231 5.263l.901 2.367 1.093 2.25c.835 1.665 1.697 3.353 2.882 4.808 1.118 1.373 2.566 2.517 4.197 3.22.961.414 1.942.836 2.999.941.433.042.855-.025 1.286-.045l.887-.029c.621-.067 1.245-.214 1.847-.368l.488-.117c.167-.036.353-.02.502-.103.174-.097.273-.271.414-.412a.28.28 0 0 0 .193-.338c-.039-.142-.183-.215-.325-.177-.188-.051-.366-.158-.562-.161-.16-.003-.302.109-.458.147s-.304.053-.458.073c-.578.077-1.148.095-1.729.103l-.783.015c-.367-.026-.73-.15-1.093-.206-.869-.133-1.779-.246-2.571-.661-1.589-.835-2.772-2.163-3.857-3.559l-.857-1.176a26.35 26.35 0 0 1-1.507-2.691l-.975-2.219-1.433-3.014-.635-1.529-.709-1.5-1.315-2.941c-.471-.909-1-1.779-1.566-2.632-.416-.625-.801-1.181-1.345-1.705-.171-.165-.329-.361-.532-.485s-.439-.167-.665-.25a.57.57 0 0 0-.414-.132z"/><path d="M2.085 339.161c-.034-.019-.07-.005-.089.029-.318.244-.434.292-.65.632-.424.67-.682 1.62-.887 2.382-.245.911-.422 1.879-.473 2.823-.12 2.231.813 4.314 2.084 6.101.908 1.277 1.99 2.39 3.118 3.471 1.197 1.146 2.486 2.189 3.842 3.146l3.015 1.97 7.788 4.896c1.265.821 2.395 1.823 3.635 2.676a.52.52 0 0 0 .724.044c.213-.182.227-.493.044-.706-.669-1.313-1.9-2.125-3.088-2.94l-4.182-2.661-4.152-2.486c-1.003-.613-1.965-1.323-2.926-1.999l-3.325-2.47c-2.092-1.693-4.144-3.796-5.083-6.366-.606-1.659-.702-3.607-.31-5.322.245-1.071.848-2.038.946-3.132.019-.034.004-.07-.03-.088zm85.827-196.985a.58.58 0 0 0-.576.588l.133 2.132c.026.476-.1-.941-.177-1.412-.039-.237.039.482.059.721l.147 1.411c.013.234.013.94 0 .706-.067-1.185-.01.007.104.72-.01.147.103.27.251.279s.286-.103.295-.249l.177-2.162c.056-.48-.02.975.03 1.456.025.242.025-.492.044-.735l.118-1.456.029-.705c-.154 1.2.001.002-.044-.706-.002-.321-.269-.591-.591-.588z"/><path d="M88.989 146.864c-.084.024-.14.104-.222.133-.649.235-.002.002-.192.22-.039.008-.066.05-.059.089s.049.066.088.059c-.855.332-1.101.347-.857.323.368-.036.725-.162 1.094-.191.073-.006.121.089.192.103.116.021.237-.027.355-.015.64.064 1.236.294 1.67.779.987 1.104 1.611 3.673-.207 4.323-1.646.588-3.209-.611-4.123-1.882-.34-.474-.742-1.458-.488-2.059.087-.205.307-.225.428-.382.038-.049.033-.132.089-.161.599-.313-.002-.001.133-.177.102-.024.158-.134.133-.235s-.119-.157-.222-.132l.887-.221c-.358.111-.749.111-1.124.132-.083.005-.153-.061-.236-.059-.071.003-.142.044-.207.074-.994.459-1.161 1.701-.887 2.632.081.275.235.525.369.779.998 1.887 2.955 3.261 5.157 2.706 1.343-.339 2.031-1.597 1.965-2.926-.06-1.201-.634-2.333-1.552-3.103-.578-.484-1.206-.762-1.965-.793-.078-.004-.147-.037-.221-.016z"/><path d="M87.94 153.157c-.086-.017-.16.047-.177.132-.414 1.185-.565 2.391-.709 3.632-.199 1.715-.257 3.449-.266 5.175a.53.53 0 0 0 1.064 0l-.059-5.131c.02-1.209.204-2.411.281-3.616a.17.17 0 0 0-.133-.192z"/><path d="M89.684 161.185c-.899-.122-1.901.093-2.601.691-.297.254-.549.601-.783.912-.436.577-.773 1.258-.768 1.999.004.676.294 1.435.798 1.897.203.186.458.323.68.485.524.381 1.021.535 1.67.573.241.015.448-.035.68-.088 1.415-.325 2.272-1.407 2.704-2.735.121-.37.204-.739.207-1.132.006-.73-.328-1.444-.813-1.985-.103-.114.001-.008-.975-.455-.047-.028-.082.048-.133.044-.504-.162-.425-.173-.665-.206zm.428.72c.014.012-.001.035.015.045l.236.396c.124.185.342.303.473.486.417.581.505 1.563.266 2.22-.372 1.02-1.378 2.048-2.556 1.867-.234-.036-.44-.163-.65-.264-.203-.099-.397-.177-.561-.339-.183-.179-.391-.442-.503-.676-.338-.708-.048-1.565.399-2.161.19-.253.436-.423.68-.618l.695-.573c.073-.055.131-.04 1.507-.383z"/><path d="M87.793 167.52c-.148.012-.263.133-.251.28l.044 2.22-.044 3.734.089 2.985c.026.309.296.541.606.515s.543-.294.517-.603l-.192-1.456-.487-7.439c-.012-.147-.133-.247-.281-.236z"/><path d="M88.206 176.695c-.007.003-.008.012-.015.015-.92.438-.661.229-.931.427-.311.227-.598.559-.828.867-1.145 1.538-.822 3.893.739 5.058 1.267.945 3.075.845 4.359 0 1.604-1.056 2.228-2.795 1.256-4.514-.207-.366-.493-.698-.798-.985-.735-.692-.001.005-3.783-.868zm.222.5c3.73 2.279 3.005.945 3.739 2.309.613 1.139-.216 2.18-1.123 2.837-.463.336-.943.593-1.522.647-1.823.171-.012.006-1.093-5.793zm20.851-46.254c-.057-.027-.121-.013-.148.044-.39.535-.675 1.137-1.079 1.662a19.67 19.67 0 0 1-2.97 3.101c-2.555 2.133-5.667 3.609-8.837 4.588-1.129.348-2.296.588-3.443.867-3.401.828-6.889 1.233-10.388 1.324-1.313.034-2.648.037-3.96-.045-1.557-.097-3.103-.299-4.655-.455-.257-.042-.504.14-.547.397s.142.487.399.529c.407.091.801.21 1.212.279 1.163.196 2.371.209 3.546.25 1.629.057 3.247.079 4.877.015 3.278-.129 6.572-.498 9.782-1.176 1.19-.252 2.336-.632 3.488-1.015 1.692-.563 3.326-1.231 4.905-2.058 2.801-1.468 5.487-3.509 7.02-6.322.332-.61.661-1.163.842-1.838.027-.057.013-.121-.044-.147zm41.7 46.534c-1.229.15-2.396.586-3.576.941-1.201.362-2.336.881-3.473 1.411-1.105.515-2.173 1.057-3.191 1.735-.659.438-1.246 1.041-1.759 1.632s-1.027 1.224-1.448 1.882c-.451.704-.8 1.418-1.345 2.058-.167.196-.679.863-.99.779-.106-.028-.049-.065-.074-.117-.038-.08-.179-.172-.236-.235-.373-.408-.62-.872-.828-1.382l-1.182-3.058-.635-1.618c-.062-.232-.298-.37-.532-.309s-.372.297-.311.53c.087 1.248.386 2.525.754 3.719l.739 2.059c.395.931 1.058 2.214 2.305 1.999.268-.046.47-.168.695-.308.661-.413 1.188-.978 1.714-1.544.446-.481.986-.874 1.463-1.323l2.142-2.132c.487-.467 1.012-.962 1.582-1.323.913-.58 1.882-1.072 2.911-1.412.473-.156.952-.256 1.433-.382l1.448-.412c.99-.232 2.007-.363 2.97-.691.694-.159 1.121-.853.961-1.544s-.843-1.114-1.537-.955zm11.896-.264c-.036.003-.062.038-.059.074-.089.278-.242.549-.281.838-.036.268.036.539.059.808l.089.794.266 1.588c.429 2.598 1.119 5.173 2.024 7.646l5.63 14.717a60.68 60.68 0 0 1 1.995 6.748l.384 1.53.222 1.587c.046.294.326.486.621.441s.489-.324.443-.617l-.295-1.588-.252-1.602c-.339-1.557-.788-3.104-1.285-4.617l-2.793-7.425-3.517-8.748-2.157-7.454-.518-3.102c-.038-.261-.034-.529-.118-.779-.091-.275-.266-.523-.399-.78-.003-.035-.024-.062-.059-.059z"/><path d="M158.118 176.666l-2.896.161-2.483.295c-.622.136-1.23.357-1.832.558-.583.197-.893.817-.695 1.397s.821.888 1.404.691c.503-.172 1.029-.205 1.551-.279l2.32-.398 4.434-.499 2.202-.235c1.064-.07 2.115-.005 3.176.014.358.007.682-.013 1.035.059.032.007.058.021.089.029-.201.096-.411.161-.621.235s-.381.169-.576.265c-.438.215-.946.333-1.316.676-.103.097-.175.23-.266.339-.109.034-.167.14-.133.249s.156.182.267.148c.137.037.271.085.413.103.418.051.871-.081 1.256-.221l.724-.25c.296-.134.59-.342.843-.544.563-.45.896-1.127.207-1.661-.396-.307-.941-.381-1.404-.53-1.169-.374-2.475-.374-3.694-.456l-1.109-.102c-.955-.067-1.927-.071-2.896-.044zm-22.167 11.543c-.085.039-.128.136-.089.22.829 2.279 2.118 4.302 3.37 6.367.632 1.043 1.393 2.084 1.788 3.249.204.604.129 1.285.133 1.911l.029 2.382c.107 2.344.529 4.653 1.168 6.91 1.044 3.69 2.451 7.249 3.797 10.836l6.133 16.57 1.921 5.499 1.537 4.822c1.528 4.737 2.905 9.534 3.916 14.409a68.21 68.21 0 0 1 1.359 10.718c.059 1.263.087 2.532-.014 3.793a.48.48 0 0 0 .413.529.47.47 0 0 0 .518-.411c.199-1.306.347-2.603.369-3.926.034-2.043-.225-4.098-.517-6.116-.521-3.589-1.39-7.109-2.306-10.615-1.319-5.055-3.011-9.993-4.773-14.909-2.775-7.743-5.843-15.381-8.689-23.097-1.469-3.985-3.084-8.032-3.738-12.248-.233-1.5-.291-3.027-.325-4.543l-.015-1.25c.005-.434.043-.82-.074-1.235-.201-.71-.589-1.367-.96-1.999a67.36 67.36 0 0 0-1.315-2.132c-1.189-1.856-2.312-3.754-3.414-5.66-.04-.086-.137-.113-.222-.074zm38.378 26.595c-.239.023-.421.234-.4.471l.237 4.631.192 2.677.044 1.323.237 2.014.148 2.014.266 6.778.236 4.764.237 3.411.325 6.131.709 8.836c.419 5.136.792 10.285 1.492 15.394.298 2.173.588 4.362 1.094 6.498a.19.19 0 0 0 .221.162c.111-.019.197-.126.178-.235-.223-2.178-.614-4.327-.887-6.499-.612-4.879-1.1-9.781-1.418-14.688-.147-2.262-.205-4.526-.281-6.792l-.354-8.866c-.047-1.137-.041-2.274-.089-3.411l-.429-8.16-.31-4.734c-.034-.898.014-1.794-.044-2.691-.029-.448-.095-.905-.133-1.353l-.222-2.661-.577-4.616a.44.44 0 0 0-.472-.398zM83.242 368.477c-.141.043-.22.197-.177.338.177.965.021 1.977-.103 2.94l-.207 1.441-.251 1-.458 2.646-.192 1.074c-.184 1.576.099 3.166.029 4.749-.054 1.24-.227 2.473-.369 3.705l-.355 3.822-.163 1.162c-.028.37.028.746.044 1.117.045 1.024.159 2.013.503 2.985.222.629.563 1.221.783 1.852.177.506.315 1.018.414 1.544.228 1.224.196 2.453.251 3.691l.089 3.22-.089 1.572c-.019.435.036.86.029 1.294l-.074 1.412c-.013.53.399.972.931.985a.97.97 0 0 0 .99-.941l-.015-1.412.074-1.323-.074-1.602-.148-4.352-.503-3.396-.147-.78c-.306-1.065-.835-2.058-1.064-3.146a9.9 9.9 0 0 1-.192-1.676c-.013-.371.016-.737-.045-1.103-.029-.177-.121-.352-.147-.53-.076-.507-.005-1.092.015-1.602l.207-2.661.266-5.44-.089-1.573a22.72 22.72 0 0 1 .044-2.514c.067-.877.287-1.735.414-2.603l.118-1.029c.198-1.306.612-2.704.266-4.028-.041-.157-.199-.507-.266-.662-.043-.141-.199-.22-.34-.176z"/><path d="M83.907 409.893c-.441-.003-.795.355-.798.793l-.103 3.014c-.057.702-.192 1.391-.281 2.088l-.296 3.044-.295 2.47-.37 4.263-.828 7.881-1.241 10.924c-.342 3.778-.474 7.575-.547 11.367l-.133 7.481c.008 2.498.148 4.992.266 7.485.182 3.849.432 7.697.754 11.541.333 3.976.813 7.918 1.286 11.88l.384 3.176c.101.893.174 1.778.355 2.663.017.15.156.249.311.235s.268-.156.251-.311c-.022-1.11-.197-2.202-.311-3.307l-.31-3.162-.355-4.159-.768-8.149c-.276-3.312-.51-6.629-.62-9.951-.082-2.479-.058-4.963-.015-7.443l.162-6.836c.092-2.314.305-4.61.458-6.921.362-5.454.987-10.892 1.714-16.307l.946-6.998.591-4.323c.131-1.097.207-2.207.296-3.308.083-1.031.184-2.053.207-3.088.016-.712-.005-1.434.015-2.146l.074-3.088c.003-.439-.357-.806-.798-.808zM39.043 390.59c-.118-.006-.216.088-.221.206-.161 1.027-.206 2.035-.252 3.072l-.029 5.367.251 6.101.857 7.543c1.003 6.746 2.474 13.432 4.33 19.995.343 1.213.722 2.413 1.093 3.617l4.374 13.583 3.961 11.193a.753.753 0 1 0 1.419-.503l-2.424-6.982-5.911-17.732c-.431-1.438-.815-2.878-1.226-4.322-1.576-5.535-3.016-11.138-4.019-16.805-.875-4.941-1.532-9.944-1.832-14.953-.122-2.025-.127-4.059-.133-6.087-.003-1.028.037-2.045-.029-3.073.005-.118-.088-.215-.207-.22z"/><path d="M53.954 460.118a.89.89 0 0 0-.724 1.044c.55 1.177.731 2.414 1.005 3.675l1.079 5.542c.938 5.444 1.876 10.967 1.67 16.514-.049 1.303-.139 2.611-.31 3.91-.396 2.988-.979 6.041-.089 9.01.134.451.337.884.532 1.308.046.127.185.197.311.15s.179-.183.133-.31c-.304-1.078-.598-2.188-.68-3.308-.091-1.242-.007-2.517.177-3.75.182-1.213.472-2.408.621-3.632.302-2.489.31-5.039.192-7.542-.209-4.413-.787-8.845-1.596-13.187l-.887-4.926c-.152-.903-.37-1.821-.428-2.734-.022-.353.016-.682.044-1.03-.088-.489-.556-.823-1.049-.734zm-7.256-67.897c-.272.772-.482 1.606-.517 2.426-.017.402.049.806.089 1.206.088.889.237 1.73.532 2.573.166.473.418.91.62 1.367l1.227 3.103c.266.773.439 1.585.621 2.381.179.79.346 1.585.369 2.397.006.205-.026.389-.03.588-.003.166.041.332.044.5-.006.016-.001.038.015.044s.038.001.044-.015c.398-.428.376-.915.369-1.484-.011-1.037-.214-2.098-.458-3.103l-1.079-3.881c-.333-.932-.81-1.836-1.064-2.794-.152-.574-.286-1.174-.34-1.764-.035-.378.002-.755-.03-1.132-.067-.806-.178-1.632-.399-2.412zm.769-189.282c-.145-.028-.297.061-.325.205l-.103 1.162c-.068.376-.208.745-.296 1.117l-.517 2.176-.591 2.677-1.138 4.16c-1.27 4.54-2.801 9.013-4.507 13.409l-.931 2.367c-.331.823-.728 1.629-1.049 2.455-1.567 4.03-3.238 8.014-4.921 11.998l-2.409 5.837c-.755 1.84-1.611 3.648-2.379 5.484l-2.054 4.984-3.798 8.998c-1.495 3.592-2.891 7.21-4.3 10.836-1.074 2.763-2.264 5.472-3.266 8.262-.811 2.262-1.522 4.558-2.276 6.838l-2.32 7.395c-.528 1.839-1.168 3.652-1.67 5.499-.208.767-.357 1.554-.562 2.322-.394 1.482-.852 2.937-1.271 4.411l-1.877 6.925c-.631 2.483-1.249 4.994-1.714 7.513-.308 1.667-.527 3.352-.768 5.028-.121.84-.287 1.666-.443 2.5-.048.253-.143.698-.163.956-.023.308-.017.617-.03.926-.034.218.106.422.325.456s.424-.121.458-.338c.397-1.419.529-2.877.872-4.308.391-1.636.865-3.252 1.286-4.882l1.862-7.424 2.01-7.631c.337-1.23.659-2.461 1.049-3.676.242-.753.55-1.483.798-2.234.595-1.808 1.077-3.658 1.699-5.455l2.483-7.307c.776-2.258 1.644-4.482 2.438-6.734.823-2.336 1.526-4.708 2.35-7.043 1.172-3.323 2.497-6.605 3.798-9.88l4.566-11.321 2.084-4.984c.754-1.842 1.409-3.719 2.172-5.558l3-7.439c1.422-3.731 3.024-7.391 4.344-11.159.22-.628.401-1.27.621-1.897l1.862-5.264c.372-1.099.686-2.216 1.035-3.323.826-2.62 1.629-5.235 2.32-7.895.318-1.222.583-2.46.872-3.69.209-.891.465-1.78.65-2.676.151-.733.282-1.483.414-2.22.067-.378.094-.758.177-1.132.084-.382.224-.744.34-1.118.029-.144-.061-.28-.207-.308z"/><path d="M3.104 336.676c-.121-.023-.228.056-.251.176-.31.827-.003 1.763.266 2.558.675 1.998 1.819 3.73 3.029 5.441 1.887 2.667 4.407 4.957 7.152 6.733 1.262.817 2.615 1.442 3.931 2.161 3.344 1.829 6.659 3.771 9.339 6.514.98 1.002 1.868 2.136 2.542 3.367.574 1.048.97 2.203 1.419 3.308.837 2.06 1.641 4.13 2.586 6.146.457.973.93 1.937 1.522 2.837.396.601.836 1.179 1.256 1.764 1.057 1.474 2.247 2.95 3.827 3.896 1.091.654 2.676 1.059 3.857.324.259-.161.48-.409.68-.632.129-.092.151-.268.059-.397s-.27-.165-.399-.074c-.252.1-.497.159-.754.236-.538.16-.996.299-1.566.205-1.287-.212-2.357-1.113-3.222-2.029-.802-.849-1.477-1.794-2.143-2.749-.773-1.109-1.441-2.17-2.024-3.396-.954-2.004-1.794-4.067-2.645-6.116-.617-1.485-1.176-3.01-2.024-4.382-1.219-1.971-2.89-3.57-4.714-4.984-1.78-1.38-3.707-2.566-5.674-3.661-1.989-1.107-4.078-2.05-5.97-3.323-1.79-1.205-3.368-2.603-4.773-4.234-.767-.89-1.536-1.77-2.187-2.749-.33-.497-.604-1.035-.887-1.559-.647-1.199-1.27-2.403-1.685-3.705-.085-.268-.137-.556-.222-.824-.064-.2-.139-.376-.148-.588.023-.12-.056-.242-.177-.264z"/><path d="M80.849 358.627c-1.961-.023-3.911.17-5.822.602-7.341 1.663-13.478 6.428-18.885 11.424-2.619 2.421-5.136 4.96-7.876 7.249-1.336 1.116-2.764 2.099-4.196 3.087-.026.015-.045.048-.03.074s.048.029.074.015c1.615-.731 2.99-1.818 4.359-2.926 1.921-1.555 3.713-3.24 5.556-4.881 7.033-6.266 14.699-13.262 24.619-13.909 1.736-.113 3.499-.032 5.217.235 3.148.491 6.145 1.685 9.014 3.029.603.283 1.211.546 1.803.852 2.678 1.389 5.152 3.251 7.507 5.117.675.535 1.342 1.085 1.994 1.647.698.6 1.335 1.225 2.114 1.72.086.079.216.086.295 0s.072-.23-.015-.308c-.95-1.231-2.251-2.197-3.442-3.191-1.839-1.535-3.761-2.941-5.778-4.235-1.598-1.024-3.243-2.03-4.95-2.867-1.377-.674-2.86-1.207-4.33-1.646-2.316-.692-4.809-1.06-7.226-1.088z"/><path d="M173.397 344.364c-.044-.018-.086.001-.104.044-.609 1-1.258 1.992-2.024 2.882-.621.72-1.344 1.374-2.084 1.97l-1.478 1.088-.561.382c-.051.032-.112.057-.163.088-.015.01-.061.037-.044.03-.047.013-.086.015-.133.029l-.31.103-.783.25-2.513.985c-2.211.957-4.438 2.204-5.984 4.087-1.438 1.752-1.847 4.155-2.187 6.323l-.488 2.676c-.114.417-.263.91-.592 1.22s-.995.537-1.418.72c-2.145.933-4.45 1.419-6.768 1.691l-3.916.324c-2.652.21-5.33.514-7.935 1.058l-3.399.882-.842.279c-2.162.951-2.652 4.023-3.044 6.043l-.251 1.294-.414 1.809c-.376 1.397-.945 3.14-2.675 3.087-.727-.022-1.429-.292-2.084-.588-1.002-.453-1.935-1.037-2.837-1.661-3.192-2.212-5.927-4.969-8.718-7.646-.895-.858-1.768-1.754-2.764-2.499-.368-.276-.814-.609-1.27-.735a.48.48 0 0 0-.606.294c-.09.244.035.513.28.602.408.441.793.907 1.212 1.338.557.574 1.15 1.11 1.729 1.662 1.365 1.301 2.769 2.564 4.212 3.779 1.546 1.301 3.095 2.603 4.743 3.778 1.252.892 2.596 1.747 4.034 2.308.712.278 1.476.488 2.247.486 1.926-.006 2.936-1.651 3.443-3.309.653-2.134.75-4.398 1.418-6.528.304-.969.783-2.093 1.773-2.543.41-.186.872-.293 1.301-.426a32.28 32.28 0 0 1 2.719-.721c2.579-.567 5.196-.77 7.817-1.044 1.794-.187 3.586-.416 5.364-.72 1.899-.325 3.78-.813 5.542-1.603.493-.22 1.029-.431 1.477-.735.563-.381.808-1.066.975-1.691.286-1.069.398-2.188.577-3.278.297-1.818.705-3.696 1.803-5.22.482-.67 1.094-1.241 1.743-1.749 1.635-1.282 3.603-2.22 5.527-2.985.54-.215 1.091-.398 1.64-.588.234-.081.507-.13.724-.25.577-.319 1.113-.74 1.626-1.147a21.09 21.09 0 0 0 2.763-2.631c.567-.65 1.144-1.389 1.478-2.191.129-.311.192-.675.266-1 .017-.043-.001-.085-.044-.103zm-43.386-143.438a.46.46 0 0 0-.34.059l-3.015 1.69c-1.341.703-2.732 1.32-4.137 1.882-4.475 1.792-9.141 3.035-13.862 3.985-4.978 1.002-10.02 1.613-15.087 1.941a114.44 114.44 0 0 1-12.103.147l-4.965-.25a92.99 92.99 0 0 1-7.197-.824c-5.306-.817-10.585-2.032-15.516-4.19-2.246-.983-4.458-2.11-6.339-3.69-.117-.086-.283-.058-.37.059s-.072.281.044.367c2.094 1.36 4.187 2.665 6.473 3.69 2.298 1.031 4.677 1.839 7.093 2.544 4.966 1.45 10.115 2.26 15.265 2.72 1.657.148 3.318.295 4.98.368 2.867.126 5.747.105 8.615.044 6.781-.145 13.576-.856 20.229-2.176 4.737-.94 9.418-2.21 13.876-4.073 2.258-.943 4.557-2.004 6.502-3.499.204-.132.266-.4.133-.603a.45.45 0 0 0-.28-.191zm1.521-14.218c-.136-.05-.286-.05-.428.015-3.188 1.365-6.433 2.563-9.753 3.572-5.344 1.625-10.837 2.788-16.329 3.793-5.447.998-10.929 1.722-16.447 2.191-4.891.416-9.81.626-14.718.397-4.629-.215-9.283-.754-13.743-2.043-2.189-.633-4.327-1.459-6.325-2.559-1.575-.866-2.952-2.035-4.33-3.175-.037-.039-.095-.037-.133 0s-.037.094 0 .132c.291.384.492.68.828 1.029.799.83 1.792 1.479 2.763 2.088a23.86 23.86 0 0 0 2.586 1.411c4.792 2.234 10.189 3.175 15.427 3.617 5.031.425 10.063.404 15.102.147 8.9-.454 17.764-1.748 26.451-3.72 3.339-.758 6.654-1.625 9.944-2.573 3.11-.895 6.229-1.87 9.148-3.278.284-.129.411-.467.28-.75-.065-.142-.189-.244-.325-.294zm-90.774-48.695c-.066.054-.07.155-.015.22.453.594.868 1.233 1.182 1.912.786 1.697 1.039 3.664 1.094 5.513.06 2.034-.115 4.068-.355 6.087l-.444 4.484c-.519 5.859-.738 12.4 3.96 16.746 1.072.993 2.325 1.81 3.635 2.456a19.01 19.01 0 0 0 5.866 1.779c.282.055.565-.132.62-.412s-.132-.547-.413-.603c-2.59-.68-5.213-1.292-7.492-2.764-.803-.518-1.548-1.128-2.202-1.823-1.976-2.099-2.838-4.804-3.281-7.586-.276-1.733-.264-3.516-.177-5.264.099-1.996.279-3.98.458-5.969a110.28 110.28 0 0 0 .266-3.896c.2-3.672.176-7.978-2.483-10.866-.055-.065-.156-.069-.221-.014zm26.258-46.371c-.135.054-.187.204-.133.338.35.596.439 1.367.531 2.044.079.575.127 1.129.03 1.706-.333 1.98-1.985 3.543-3.665 4.514-1.097.633-2.289 1.069-3.458 1.544-.606.246-1.173.576-1.773.838-.741.323-1.521.468-2.29.705-1.061.327-2.147.782-3.133 1.294a.43.43 0 0 0-.192.574.43.43 0 0 0 .576.191l1.02-.5c.656-.296 1.363-.496 2.025-.78l1.285-.573c.922-.361 1.905-.548 2.823-.911 1.363-.541 2.648-1.237 3.886-2.015 1.76-1.105 3.222-2.661 3.502-4.793a6.37 6.37 0 0 0-.207-2.661c-.138-.465-.361-.895-.473-1.367-.054-.135-.219-.201-.355-.147z"/><path d="M60.648 84.511a.26.26 0 0 0-.044.367c.066.229.103.477.207.691.097.2.264.351.399.529l.828 1.044.812 1.059c.988 1.182 2.091 2.266 3.236 3.293l1.995 1.632 1.492 1.205c2.119 1.547 4.627 2.942 7.167 3.646 1.415.392 2.877.633 4.345.706.657.032 1.294-.035 1.951-.029l.68.029c.917-.031 1.847-.224 2.734-.441a.61.61 0 0 0 .473-.72c-.07-.326-.396-.541-.724-.471l-2.601.427c-.413.065-.823.155-1.241.161-2.786.043-5.51-.591-8.053-1.706-1.46-.64-2.822-1.524-4.108-2.455l-1.936-1.529-4.877-5.073-1.3-1.47c-.143-.166-.258-.361-.428-.5-.186-.151-.427-.235-.636-.353-.09-.114-.255-.134-.369-.044z"/><path d="M101.194 86.084c-.116-.087-.282-.057-.369.059-.798 1.178-1.863 2.172-2.852 3.19-1.682 1.731-3.374 3.502-5.35 4.91-1.207.861-2.516 1.617-3.842 2.279-.572.286-1.248.39-1.847.618-.234.047-.387.267-.34.5s.284.385.517.338c.757-.032 1.366-.292 2.069-.544l.709-.235c1.217-.507 2.326-1.34 3.355-2.147 1.956-1.534 3.803-3.215 5.394-5.131l2.615-3.47c.088-.116.058-.28-.059-.367zM54.913 223.42c-.132-.037-.273.031-.31.162l-1.995 5.999c-1.099 3.374-1.956 6.826-2.837 10.262-1.154 4.5-2.05 9.072-2.941 13.629-1.848 9.457-3.292 18.997-4.507 28.553-3.288 25.86-4.605 51.911-6.28 77.909l-.606 9.468-.517 6.94-.591 9.674c-.01.118.088.225.207.236s.211-.088.222-.206c.175-2.056.491-4.081.709-6.131l.34-3.5.576-6.939.753-9.468c1.958-26.228 3.306-52.542 6.783-78.63 1.194-8.957 2.63-17.877 4.374-26.744 1.402-7.127 3.027-14.208 4.64-21.29l.783-3.469.532-2.647.828-3.514a.23.23 0 0 0-.163-.294zm3.546 7.559c-.114-.01-.212.078-.222.191l-.399 2.455-.488 4.94-.709 6.587-1.344 13.189-1.256 16.481-1.079 14.835-.414 5.764-.547 9.071-1.241 17.305-.65 9.895-1.478 19.775-1.788 23.892-.65 8.248-.089 2.485-.355 3.293c-.013.144.092.267.236.28s.268-.092.281-.236l.221-3.308.355-2.455.222-2.47.547-5.764 2.128-24.715 1.507-19.775.754-9.057 1.286-17.29.798-9.057.679-9.057.857-10.718 2.172-29.684.473-7.425.355-4.955.029-2.5c.01-.112-.079-.21-.192-.22zm57.544 26.433c-.2.001-.37.154-.369.353l-.044 10.498.088 6.278c.814 22.856 3.6 45.565 6.369 68.249l4.005 32.993c.379 3.219.603 6.454.96 9.674.179 1.614.442 3.23.665 4.837.002.018.026.031.045.03s.031-.026.029-.044c-.053-1.623-.066-3.247-.177-4.867-.237-3.465-.662-6.92-.961-10.38-1.05-12.189-2.521-24.337-3.901-36.492-2.002-17.623-3.93-35.273-5.098-52.973l-.621-11.777-.635-16.026a.35.35 0 0 0-.355-.353zm-9.576-26.332c-.057.005-.093.062-.089.118 1.192 25.425 3.187 50.799 5.143 76.174l3.679 46.843 2.276 24.906 1.079 11.571a.22.22 0 0 0 .236.206c.123-.011.218-.113.207-.235l-.99-11.586-1.877-24.936-3.99-52.238-5.571-70.72c-.004-.056-.047-.106-.103-.103zm26.643 23.069c-.28.063-.462.354-.399.632 2.239 10.816 5.3 21.433 8.216 32.081l6.088 23.245c1.624 6.453 3.2 12.933 4.537 19.452.644 3.139 1.245 6.29 1.758 9.453.318 1.96.567 3.931.842 5.896.492 3.507.941 7.022 1.168 10.557.385 6.015.226 12.129-.754 18.084-.016.077.026.16.104.177s.16-.041.177-.118c.327-1.257.637-2.525.842-3.808.763-4.751.766-9.585.562-14.379-.162-3.783-.435-7.563-.901-11.321-.22-1.766-.51-3.521-.784-5.279l-1.256-7.469-2.364-11.821c-1.983-9.094-4.316-18.125-6.798-27.097l-5.703-20.451-4.714-17.437c-.063-.279-.341-.46-.621-.397zM46.757 173.02c-.143.027-.234.152-.207.294.304 1.266.413 2.564.576 3.852l.488 6.205-.044 7.572-1.035 9.836-.221 1.867-.192 1.868-.606 3.69-.384 2.793-1.3 7.322c-.007.03.014.067.044.074s.052-.015.059-.044l1.02-3.573 1.005-4.573 1.123-5.543.384-1.852c.322-1.539.501-3.128.665-4.69l.399-7.131-.088-7.66-.68-6.249-.695-3.852c-.027-.142-.167-.232-.31-.206z"/><path d="M17.674 136.323c-.398-.011-.728.31-.739.705l-.192 4.058-.103 1.25v1.941l-.325 3.366-.222 1.383c-.079.465-.103.942-.163 1.411-.091.717-.289 1.422-.414 2.132-.169.959-.191 1.934-.355 2.897l-.532 3.646-.739 5.101c-.097.722-.316 1.415-.429 2.132-.074.471-.084.954-.148 1.427l-.251 1.381-.768 5.352a169.45 169.45 0 0 0-1.123 10.733c-.079 1.103-.176 2.204-.029 3.308.057.427.115.881.325 1.265.338.619.728.645 1.374.617l1.241-.014c.15-.004.294-.028.443-.015.318.027.628.12.946.147l4.995.264 6.561.706a133.36 133.36 0 0 1 12.073 2.103l3.487.808c.583.137 1.134.252 1.7-.029.53-.264.931-.778 1.241-1.265.816-1.276 1.023-2.843 1.241-4.307.273-1.835.372-3.665.488-5.514l.133-2.779-.03-1.058.015-1.015-.089-3.572c.001-.145-.106-.264-.251-.265s-.265.12-.266.265c.061 1.197-.053 2.378-.133 3.572-.022.333.007.667 0 1-.007.35-.055.694-.074 1.044l-.104 2.764c-.098 1.796-.299 3.618-.665 5.381-.231 1.109-.568 2.25-1.049 3.279-.223.476-.463.974-.901 1.294-.295.214-.649.385-1.02.279l-.665-.206-1.389-.426-5.704-1.323-7.861-1.382-6.62-.75-3.502-.294-1.566-.059c-.325.005-.636.089-.96.103-.3.013-.601-.039-.901-.044l-.901-.015-.059-.47c-.017-.398.005-.809.015-1.206l.059-.956.177-2.823.251-1.94.369-2.132 1.034-7.425.399-2.72.163-1.397.251-1.411.192-2.176.34-2.176.355-2.926.414-2.94.207-2.191.222-1.456.104-2.161.162-1.427.074-1.396.222-2.058.207-1.985.222-1.294.089-1.265.163-4.117c.011-.395-.312-.724-.709-.734z"/><path d="M51.499 103.241c-.42.015-.851.114-1.212.161-1.758.228-3.445.772-5.128 1.308-5.472 1.746-10.767 3.974-16.24 5.72-.568.181-1.152.292-1.729.441-.799.207-1.592.39-2.409.515-.367.056-.738.116-1.108.146-.491.041-.892.059-1.3.368-.703.532-1.102 1.443-1.404 2.235-.305.801-.633 1.642-.798 2.485-.038.194-.035.408-.074.603-.082.407-.198.801-.296 1.205-.158.653-.383 1.279-.502 1.941-.608 3.38-.968 6.792-1.463 10.189a135.29 135.29 0 0 0-.665 5.366c-.096.911-.233 1.788-.207 2.706-.053.328.173.638.502.691s.642-.172.695-.5c.318-.881.44-1.771.591-2.691.293-1.788.494-3.58.68-5.381.177-1.72.424-3.421.68-5.131l.754-4.969c.113-.649.126-1.307.236-1.956.104-.611.235-1.146.414-1.735.197-.646.303-1.313.517-1.955.218-.652.481-1.485 1.005-1.971.217-.201.362-.112.665-.103.139.005.275.02.414.015.635-.021 1.245-.153 1.862-.294.934-.213 1.834-.513 2.734-.838l3.118-1.103c1.837-.673 3.64-1.426 5.453-2.161l4.862-1.896c1.681-.665 3.354-1.292 5.083-1.824 1.175-.361 2.386-.762 3.606-.941.415-.06 1.074-.224 1.448.089.433.361.436 1.158.414 1.661-.01.217-.027.43-.044.647a23.39 23.39 0 0 1-.576 3.646c-.021.143.078.287.222.309s.274-.092.296-.236c.092-1.571.602-3.092.591-4.675-.005-.607-.06-1.328-.547-1.764-.311-.279-.717-.339-1.138-.323z"/><path d="M22.405 112.489c-.043.018-.077.074-.059.118-.018.243-.067.536-.03.779.072.471.466.848.724 1.22.318.459.511 1.177.488 1.735-.028.671-.458 1.214-.606 1.853-.143.619-.06 1.284.044 1.911a1.02 1.02 0 0 0 .177.441c.459.632 1.242.37 1.877.574.196.062.341.158.502.279l.133.103c-.052.114-.13.234-.177.338l-.443 1.059c-.078.235-.17.472-.177.72-.013.428.214.839.458 1.191.796 1.146 1.796 2.167 2.882 3.043.247.2.517.364.768.559l2.098 1.705 1.862 1.383c.04.042.105.054.148.014s.04-.104 0-.147l-1.493-1.823-1.936-1.897c-.277-.29-.335-.409-.606-.706l-1.226-1.337c-.496-.583-1.075-1.15-1.448-1.823-.078-.14.003-.315.044-.442.059-.184.137-.363.207-.543.245-.632.57-1.451.177-2.088-.409-.663-1.11-.909-1.862-.941-.188-.008-.373-.005-.561 0h-.192c-.009 0-.016.003-.03 0-.034-.216-.084-.429-.074-.647.009-.208.11-.401.163-.603.165-.628.378-1.271.399-1.926.027-.84-.185-1.716-.65-2.426-.164-.25-.395-.454-.576-.691-.107-.14-.192-.33-.31-.456-.167-.176-.407-.326-.591-.485-.018-.043-.06-.062-.104-.044zm3.295 8.895c.008.004.017.006.015.015s-.013.009-.015.014c-.001-.006-.009-.034 0-.029zm16.711 72.705c-.077-.023-.154.012-.178.088-.093.166-.21.324-.28.5s-.083.376-.133.559l-.296 1.117-.576 2.941a40.66 40.66 0 0 0-.547 6.719l.177 3.94c.053 2.1-.122 4.214-.413 6.293-.797 5.685-2.453 11.221-4.167 16.688-.758 2.415-1.504 4.832-2.098 7.292-.343 1.419-.723 2.832-.813 4.293-.017.079.039.16.118.177s.146-.039.162-.118c.487-1.364.758-2.797 1.153-4.19l1.951-6.513c1.687-5.52 3.539-11.014 4.344-16.747.297-2.113.456-4.246.458-6.381.002-1.581-.101-3.168-.118-4.749a56.06 56.06 0 0 1 .059-2.999c.077-1.802.263-3.622.591-5.396.139-.751.289-1.512.488-2.249.048-.18.141-.348.177-.53s.029-.372.044-.559c.024-.076-.027-.152-.103-.176zm-28.592-3.969c-.112.009-.187.109-.177.22l.074 2.662c-.025 1.625-.147 3.242-.384 4.851l-.251 1.544-.414 1.515-.562 2.293-.68 2.338-1.005 4.161a.64.64 0 0 0 .473.764.63.63 0 0 0 .754-.47l.99-4.161.488-2.397.488-2.337.192-1.573.502-4.838c.025-.866-.036-1.723-.074-2.587l-.03-.897c-.032-.307-.109-.609-.162-.912-.01-.111-.11-.186-.222-.176zm-3.222 21.361c-.258-.015-.473.185-.488.442-.318.883-.309 1.731-.296 2.661l.074 3.308.192 4.66.458 6.719 1.123 20.614.369 8.542c.18 3.355.453 6.696.532 10.056.053 2.239.042 4.524-.369 6.734-.137.735-.301 1.494-.576 2.191-.121.308-.298.588-.414.897-.076.203-.12.413-.192.617-.01.015-.015.034 0 .045s.034.015.044 0c.111-.096.413-.343.502-.456.283-.359.434-.873.591-1.294.385-1.036.58-2.111.709-3.206.462-3.921.162-7.992-.044-11.924l-.65-17.569-.768-15.761-.266-10.895.03-3.264c.03-.899.091-1.749-.118-2.632.015-.257-.185-.47-.443-.485z"/><path d="M11.056 278.88c-.035-.012-.076.009-.089.045-.587 1.004-.275 2.385-.089 3.469l.65 5.367c.041.927-.009 1.839-.059 2.764-.123 2.243-.381 4.515-.828 6.719l-.458 2.279-.31 2.294-.414 2.984a.343.343 0 1 0 .68.088l.384-2.969.635-3.809.177-1.543c.353-2.46.709-4.951.695-7.44-.01-1.797-.249-3.57-.562-5.337-.215-1.214-.539-2.465-.517-3.705.007-.371.097-.75.148-1.117.012-.035-.009-.076-.044-.089zm54.528-170.595c-.128-.057-.282.006-.34.133s.006.266.133.323c.59.469 1.203.846 1.921 1.103.239.085.503.1.739.191.48.183.917.474 1.389.676l.724.294c.248.082.505.111.754.191 1.717.55 3.385 1.331 5.009 2.103 2.004.951 3.94 2.097 5.453 3.734.102.104.266.101.37 0s.102-.264 0-.367c-.905-.861-1.818-1.715-2.837-2.441-.836-.595-1.753-1.095-2.66-1.573-1.627-.858-3.364-1.443-5.024-2.22-.237-.111-.456-.274-.695-.383s-.481-.178-.724-.264l-1.463-.456c-.231-.098-.423-.275-.65-.382a8.27 8.27 0 0 0-2.098-.662zm33.868-.634c-.408.359-.698.507-1.167.765l-.946.573c-1.789 1.059-3.672 1.98-5.305 3.279-.792.63-1.679 1.507-1.951 2.514-.13.481-.113 1.015-.029 1.5.029.142.167.234.31.206s.236-.167.207-.309c-.401-1.679 1.032-2.947 2.261-3.838 1.18-.855 2.472-1.547 3.739-2.264.667-.377 1.417-.742 2.01-1.235.366-.305.695-.693 1.034-1.029.047-.044.059-.115.015-.162s-.13-.044-.178 0zm51.778-.616c-.061.018-.092.086-.074.146.011.306-.031.609 0 .912l.311 2.323.207 1.985.31 2.25.399 4.234c.142 1.203.401 2.402.65 3.587l1.773 7.293.665 2.529 1.153 5.204 1.034 3.926 1.434 5.925.68 2.603 1.463 5.719 1.404 5.469 1.847 7.146 1.004 4.337 1.108 3.94c.182.645.337 1.262.429 1.926.056.271.319.438.591.383s.455-.318.399-.588c-.243-.883-.362-1.775-.517-2.676l-.65-3.323-2.113-8.028-2.926-11.424-3.118-11.674-.961-3.94-1.862-7.042-1.522-7.043-.783-4.44-.665-3.338-.354-3.058-.311-1.985c-.118-.767-.187-1.605-.414-2.352-.092-.302-.278-.585-.443-.853-.018-.061-.086-.092-.148-.073zm-34.858-8.542c-.559.019-1.18.197-1.714.353-1.073.312-1.294 1.465-.473 2.162.238.284.659.325.946.088.242-.201.264-.523.132-.794.008-.009.007-.022.015-.029.044-.037.097-.064.148-.088.236-.113.514-.134.768-.162.38-.044.728-.154 1.108-.191.304-.031.612.002.917.015.344.014.689-.03 1.034-.03.575 0 1.17.071 1.744.103 2.348.132 4.713.504 7.019.955 3.21.629 6.323 1.49 9.428 2.514 1.227.406 2.355 1.036 3.561 1.485.565.211 1.146.338 1.729.486l1.714.367 3.665.397c.427.021.79.003 1.212.088.488.099 1.141.17 1.389.677a.26.26 0 0 0 .325.176c.14-.04.217-.184.177-.323-.151-.969-1.3-1.247-2.113-1.397l-.872-.206c-.32-.055-.652-.053-.975-.088l-4.33-.514c-.985-.207-1.926-.652-2.852-1.03l-4.684-1.808c-3.551-1.167-7.212-2.047-10.906-2.617-1.325-.205-2.667-.399-4.004-.5a22.97 22.97 0 0 0-2.763-.059c-.451.021-.897-.045-1.345-.029zm-1.168 1.529c.015-.005.033.04.045.132.003.022-.011.038-.015.059-.012-.018-.001-.042-.015-.059-.033-.075-.03-.128-.015-.132z"/><path d="M150.891 106.564c-.141.036-.213.168-.177.308.157 1.563-1.027 2.637-2.054 3.647-.824.809-1.602 1.65-2.173 2.661-.494.874-.448 1.852-.162 2.779.131.427.334.854.413 1.294.026.141.017.283.03.426.011.12.044.247.03.367-.018.151-.095.28-.134.427-.042.162-.051.34-.103.5-.133.408-.415.811-.635 1.176-.474.788-.991 1.515-1.522 2.264l-.665.985-1.522 1.823c-.467.587-.842 1.237-1.242 1.868-.5.789-1 1.548-1.33 2.425a.43.43 0 0 0 .222.559c.214.091.47-.008.562-.22.377-.767.843-1.501 1.389-2.162l1.433-1.661 1.434-1.912.783-.911.694-.955c.64-.879 1.32-1.826 1.67-2.868.137-.407.268-.834.281-1.264.011-.386-.091-.774-.193-1.147-.287-1.063-1.142-2.2-.546-3.323.217-.408.463-.8.754-1.161 1.313-1.633 4.086-3.312 3.088-5.749-.036-.14-.184-.212-.325-.176zm-45.469 274.381c-.049.017-.077.069-.059.117.402 1.626 1.12 3.144 1.817 4.661l2.246 5.278c.26.728.486 1.492.636 2.25.228 1.147.268 2.328.444 3.484l1.655 8.601c.337 1.466.703 2.92 1.256 4.323.274.697.648 1.343.945 2.029.328.758.55 1.553.68 2.367.43 2.699.24 5.434.059 8.145l-.355 8.454c.049 3.076.347 6.124.725 9.175.481 3.897 1.058 7.789 1.743 11.656.176.998.464 1.939.709 2.913.122.489.208.997.325 1.486.499 2.061 1.011 4.122 1.611 6.159 1.709 5.801 3.612 11.532 4.877 17.455.37 1.736.605 3.496.872 5.246.268 1.769.484 3.538.635 5.321l.458 6.502c.07.842.214 1.685.295 2.527l.193 1.985a.534.534 0 1 0 1.064-.089c-.044-.664-.132-1.322-.178-1.986-.058-.837-.036-1.684-.088-2.526-.247-3.976-.526-7.97-1.02-11.922-.136-1.087-.337-2.16-.532-3.237-.305-1.689-.632-3.383-1.019-5.058-.804-3.472-1.855-6.869-2.897-10.275l-1.477-4.987c-.542-1.802-1.094-3.6-1.552-5.425-.12-.475-.272-.955-.37-1.44-.129-.64-.189-1.298-.31-1.943-.371-1.966-.762-3.924-1.049-5.909l-.724-4.968c-.258-1.725-.553-3.441-.739-5.176-.223-2.069-.313-4.139-.325-6.219-.014-2.361.077-4.717.236-7.072.172-2.537.404-5.122.148-7.66a13.49 13.49 0 0 0-.857-3.485c-.26-.673-.618-1.295-.872-1.97-.567-1.507-.97-3.101-1.359-4.66-.639-2.556-1.133-5.145-1.611-7.734-.336-1.821-.673-3.646-1.197-5.425-.666-2.262-1.762-4.324-2.808-6.425-.737-1.482-1.376-3.004-2.113-4.485-.018-.048-.07-.076-.118-.058zm22.225 121.945c-.386.033-.671.381-.636.762.278 1.379.335 2.786.399 4.192l.074 5.999-.148 3.778-.28 2.658c-.295 1.449-1.137 2.969-.577 4.456.144.381.37.757.577 1.105.161.268.329.555.576.762.201.17.537.269.783.353.027.024.064.029.089 0s.027-.061 0-.089c-.144-.325-.181-.696-.37-.998-.395-.635-.962-1.326-1.02-2.103-.03-.418.081-.865.193-1.265l.532-1.764c.359-1.388.426-2.852.517-4.277l.162-8.662-.103-4.276c-.035-.386-.383-.669-.768-.631zm-5.527-107.462a.28.28 0 0 0-.266.279c-.02 2.514.409 5.358 1.685 7.557.109.247.402.359.65.25s.361-.385.251-.632l-1.714-4.734c-.223-.805-.291-1.626-.34-2.456-.004-.144-.12-.268-.266-.264zm21.529 2.292c-.043.009-.068.046-.059.088.006.642.104 1.258.133 1.897.045.992-.04 1.998-.133 2.985l-.606 5.896c-.021 1.236.148 2.498.414 3.704.032.236.251.4.487.368s.402-.235.37-.47c-.042-.811-.269-1.616-.281-2.426-.005-.384.066-.778.074-1.162l-.015-1.161c.014-.584.117-1.169.163-1.75.158-2.008.261-4.025 0-6.028-.055-.424-.088-.854-.207-1.264-.061-.214-.168-.412-.251-.618-.009-.043-.046-.067-.089-.059zm8.364-21.745c-.044 0-.074.029-.074.073l-.118 1.044c-.016.509.036 1.034.044 1.544.04 2.549.39 5.134.976 7.616l.679 2.543.473 1.72c.155.813.154 1.618.192 2.441a19.25 19.25 0 0 0 .252 2.396l1.743 7.837.355 3.823.281 5.94c.058 3.823-.112 7.636-.296 11.453-.266 5.516-.666 11.062-1.507 16.526-.86 5.581-2.274 11.067-3.074 16.656-.297 2.08-.492 4.187-.591 6.281-.042.889-.031 1.783-.059 2.672-.007.283.221.508.502.518a.51.51 0 0 0 .532-.485c.101-4.507.713-9.033 1.478-13.47l2.01-10.952c.433-2.681.714-5.386.99-8.086l.325-3.117c.042-.513.124-1.018.177-1.529.17-1.642.294-3.295.414-4.94.2-2.732.281-5.481.311-8.219.033-3.111-.037-6.255-.355-9.351-.154-1.499-.414-2.976-.695-4.455-.465-2.452-1.44-4.767-1.906-7.219-.126-.659-.258-1.329-.31-2-.065-.839-.027-1.68-.163-2.514-.152-.933-.482-1.827-.739-2.734-.388-1.371-.734-2.763-1.005-4.161-.332-1.715-.475-3.464-.591-5.205-.034-.51-.014-1.02-.044-1.529-.02-.349-.073-.698-.118-1.044 0-.044-.045-.073-.089-.073zm-.265 93.513c-.28-.033-.517.174-.547.451l-.444 5.105-.502 8.864-.281 8.883c-.058 5.542-.036 11.08.591 16.599.195 1.707.485 3.396.813 5.085.118.603.212 1.228.37 1.826.317 1.186.846 2.334 1.034 3.557.122.785.05 1.571-.118 2.352-.145.668-.401 1.379-.414 2.07-.004.269.048.546.089.81-.002.075.06.131.133.131s.131-.056.133-.131c.051-.254.122-.494.177-.748.082-.377.123-.758.207-1.134.19-.857.404-1.703.414-2.588.01-.908-.248-1.755-.384-2.644-.097-.631-.16-1.27-.267-1.896-.102-.602-.27-1.2-.384-1.797-.567-2.993-.898-6.027-1.063-9.071-.193-3.548-.223-7.091-.237-10.643-.025-6.483.179-12.985.665-19.454.127-1.689.32-3.383.473-5.072a.51.51 0 0 0-.458-.555zM65.184 138.19c-.021.022-.008.068.015.088.446.724.952 1.292 1.685 1.75.34.212.74.323 1.108.485l1.064.514 1.108.412c.187.068.364.177.561.206.215.031.448-.02.665-.03-.152-.168-.28-.361-.458-.485-.162-.112-.367-.155-.547-.235l-1.567-.75c-.175-.08-.378-.112-.547-.205-.331-.184-.604-.454-.931-.648l-2.069-1.102c-.022-.021-.068-.022-.088 0zm-4.686-61.046c-.063.037-.081.114-.044.176.114.615.29 1.253.31 1.882.025.774-.143 1.513-.222 2.279-.159 1.548-.605 3.062-1.079 4.543l-1.093 3.132c-.433 1.076-.949 2.148-1.567 3.132-.218.347-.451.706-.739 1-.031.032-.069.058-.103.088.002-.014-.002-.03 0-.044a5.17 5.17 0 0 1 .118-.574 18.41 18.41 0 0 0 .502-2.999l.059-.72.03-.72a.36.36 0 0 0-.355-.368c-.2-.006-.379.138-.385.338l-.074 1.397-.487 2.941c-.04.343-.231 1.18.059 1.456.439.419 1.021-.163 1.3-.485.742-.858 1.235-1.963 1.699-2.985 1.121-2.467 2.047-5.011 2.557-7.675.14-.732.342-1.459.384-2.205.036-.641.018-1.271-.015-1.912-.021-.404-.077-.872-.281-1.235-.092-.164-.246-.276-.384-.397-.037-.062-.13-.08-.192-.044zM45.339 64.221c-.16.003-.284.135-.281.294-.04.204-.109.41-.118.618-.017.397.082.78.118 1.176.103 1.127.411 2.169.828 3.219.392.989.929 1.862 1.508 2.749 1.733 2.661 4.108 4.807 6.029 7.322.852 1.116 1.569 2.279 2.083 3.587.288.734.504 1.505.487 2.294.018.144.151.238.296.22a.27.27 0 0 0 .236-.294l-.576-2.382c-.244-.755-.612-1.474-1.004-2.161-1.803-3.159-4.624-5.552-6.62-8.572-.276-.417-.483-.879-.739-1.308-.603-1.012-1.065-2.078-1.359-3.22a20.73 20.73 0 0 1-.355-1.558c-.065-.367-.039-.748-.089-1.117-.026-.2-.099-.392-.148-.588-.003-.159-.136-.283-.296-.279z"/><path d="M47.939 52.356c-2.298 2.284-4.135 4.763-5.113 7.881-.351 1.12-.569 2.364-.547 3.543.023 1.155.264 2.3.813 3.323.218.406.441.934 1.005.853.232-.034.391-.266.473-.456l.473-1.235c.619-1.522 1.396-2.925 2.527-4.132.163-.178.149-.455-.03-.617a.44.44 0 0 0-.62.029c-1.104 1.232-1.916 2.607-2.571 4.117l-.384.926-.118-.221a6.16 6.16 0 0 1-.576-1.999c-.275-2.273.484-4.513 1.478-6.528.937-1.899 2.037-3.631 3.561-5.117.104-.102.103-.264 0-.367a.26.26 0 0 0-.369 0zm15.249-4.043c-.165.167-.376.399-.576.529-.53.345-1.227.626-1.818.853l-2.837.941c-2.878.739-5.887.862-8.807.323-.694-.128-1.375-.304-2.039-.544-1.138-.411-2.169-.996-3.192-1.632-.192-.139-.466-.103-.606.088s-.104.464.088.603c1.126.928 2.461 1.489 3.857 1.882 2.351.662 4.815.776 7.241.515a22.1 22.1 0 0 0 2.719-.456 22.35 22.35 0 0 0 2.571-.779c.797-.293 1.554-.697 2.29-1.117.235-.134.447-.305.68-.441a11.63 11.63 0 0 1 .724-.338c.12-.082.156-.248.074-.368s-.249-.141-.369-.058z"/><path d="M49.962 45.506c-.114-.09-.279-.069-.369.044l-.325.441c-.317.33-.764.574-1.153.809-.766.462-1.546.858-2.409 1.117l-1.123.294c-.181.04-.374.036-.547.103-.184.071-.346.195-.517.294-.133.018-.225.147-.207.279s.147.224.281.206c.2.048.399.141.606.147s.393-.056.591-.102.407-.113.606-.177c.416-.132.799-.275 1.197-.455.678-.307 1.351-.638 1.936-1.103.554-.44 1.004-1.008 1.478-1.529a.26.26 0 0 0-.044-.367z"/><path d="M45.812 45.137s-.538.05-.621.309.311.617.311.617l.34.118.34.088a7.03 7.03 0 0 0 .724.073c.584.016 1.223-.045 1.788-.191.113-.03.217-.058.325-.103s.325-.176.325-.176-.002-.001.296-.176c.042-.012.056-.047.044-.088s-.088-.059-.088-.059l-.34.015-.34-.03c-.127-.002-.218.011-.325.015a7.14 7.14 0 0 1-1.892-.176l-.295-.074-.296-.073-.296-.088z"/><path d="M64.931 20.612c-.118-.084-.285-.059-.369.059-.101.245-.18.504-.31.735-.245.438-.599.805-.901 1.205l-1.286 1.735-2.941 4.352-1.655 2.514c-1.814 2.73-3.72 5.426-5.866 7.91l-3.015 3.264-2.571 2.426c-.148.129-.174.352-.044.5s.354.159.502.03c1.67-1.209 3.107-2.759 4.522-4.249 3.292-3.468 5.863-7.469 8.349-11.527l1.286-2.161 2.172-3.411 1.167-1.852c.139-.212.246-.442.414-.632.175-.199.407-.353.606-.529.084-.118.059-.284-.06-.368zm8.454-9.555c-3.067.169-6.126 1.138-8.733 2.75-1.758 1.086-3.321 2.449-4.758 3.925l-2.379 2.691c-1.995 2.62-3.48 5.722-4.507 8.837-.463 1.405-.766 2.853-1.02 4.308-.198 1.137-.345 2.242-.311 3.396-.012.199.141.37.34.383s.372-.14.384-.338l.591-4.131c.311-1.395.759-2.787 1.242-4.131.994-2.769 2.419-5.309 4.122-7.704.673-.946 1.377-1.857 2.172-2.705 1.735-1.854 3.815-3.379 6.074-4.543.98-.505 2.011-.957 3.074-1.264 1.804-.521 3.626-.707 5.497-.662l1.817.059 2.35.338c.095.024.197-.024.222-.118s-.038-.196-.133-.221l-.931-.353c-.616-.181-1.262-.254-1.891-.368-1.079-.196-2.129-.207-3.221-.147zM63.291 48.548c-.06-.017-.116.014-.133.073l-1.714 3.146c-.669.992-1.508 1.804-2.364 2.632-.147.118-.179.34-.06.485s.341.163.488.044c1.603-1.091 2.724-2.642 3.473-4.411.081-.193.189-.373.251-.573.153-.497.129-.75.148-1.264.017-.06-.028-.115-.089-.132z"/><path d="M69.438 51.061c-1.601 1.231-3.336 2.079-5.275 2.661-.832.249-1.691.373-2.527.603-.542.149-1.063.358-1.581.574.566.044 1.136.085 1.7.015.87-.109 1.739-.399 2.571-.662 1.958-.617 3.87-1.495 5.231-3.073.033-.032.032-.084 0-.118s-.085-.032-.118 0zm14.941-38.873c-.214.069-.477.136-.68.235-.881.429-1.602 1.251-2.187 2.014-1.556 2.028-2.19 4.615-2.586 7.087l-.221 1.735c-.075.847-.048 1.667-.044 2.514.003.763-.057 1.517.029 2.279.05.44.158.88.266 1.309.009.111.109.185.222.176a.21.21 0 0 0 .192-.221l.088-1.294-.015-2.235.222-2.44c.174-1.833.464-3.625 1.02-5.381.417-1.318.902-2.641 1.759-3.749.552-.713 1.323-1.282 2.069-1.779.072-.035.094-.119.059-.191s-.12-.094-.192-.059zm5.32 1.043c-.536.03-1.035.193-1.537.368-.077.017-.121.1-.104.176s.086.12.162.103a10.81 10.81 0 0 1 3.961.324c.891.244 1.73.593 2.601.897l2.541.823c.659.206 1.423.12 2.099.073 1.155-.079 2.377-.245 3.517.015.412.094.828.304 1.197.5.877.466 1.684 1.06 2.423 1.72 1.819 1.624 3.347 3.469 4.552 5.587.153.262.49.358.753.206s.345-.487.193-.75c-.751-1.255-1.652-2.354-2.646-3.426-1.104-1.19-2.298-2.24-3.65-3.146-.69-.463-1.416-.874-2.187-1.191-.154-.064-.31-.137-.473-.176-1.303-.313-2.66.037-3.975.132-.527.038-1.125.093-1.64-.059-1.62-.478-3.148-1.179-4.758-1.691-.966-.307-2.009-.543-3.029-.485zm22.741 11.631c-.164.08-.228.292-.147.455 1.788 3.71 2.092 7.859 2.497 11.895.123 1.223.22 2.459.399 3.675.077.523.254 1.02.325 1.544.115.836.181 1.668.34 2.499.035.185.046.379.104.559.382 1.197 1.015 2.329 1.536 3.469.062.165.249.253.414.191s.239-.247.177-.412c-.269-.902-.514-1.812-.812-2.705-.096-.287-.211-.562-.296-.853-.089-.303-.114-.631-.177-.941-.067-.33-.128-.658-.207-.985-.119-.492-.299-.968-.37-1.471-.046-.331-.034-.666-.059-.999-.039-.525-.12-1.05-.177-1.573l-.709-5.808c-.389-2.901-1.054-5.756-2.394-8.38-.081-.164-.28-.243-.444-.162z"/><path d="M115.544 47.476c-.298-.094-.629.071-.724.368s.071.626.369.72l1.271.338c.286.08-.576-.16-.872-.191-.135-.014.252.114.384.147.289.073.586.077.872.162l.429.147c-.696-.194-.004 0 .443.088.136.052.287-.012.34-.147a.26.26 0 0 0-.148-.338c-1.188-.643-.629-.412-1.182-.647-.279-.119.539.281.813.412.13.063-.262-.129-.384-.206-.261-.163-.459-.404-.724-.559-.137-.079-.574-.264-.444-.176.625.418.003 0-.443-.118z"/><path d="M114.94 47.915c-.081-.016-.162.037-.177.118-.658 1.944-.463 4.07-.03 6.043.085.388.215.693.325 1.073l.709 2.676.99 3.897c.352 2.275-.025 4.742-1.3 6.689-.317.484-.72.912-1.093 1.353-.261.296-.223.756.073 1.015s.745.222 1.005-.074c.551-.603 1.007-1.258 1.404-1.97 1.595-2.858 1.114-6.026.296-9.042l-.577-2.103-.827-2.617c-.29-1.206-.579-2.469-.695-3.705-.1-1.069-.043-2.108.015-3.176a.15.15 0 0 0-.118-.176z"/><path d="M110.623 58.708a.49.49 0 0 0-.311.221.51.51 0 0 0 .148.706c1.844 1.312 3.283 3.194 4.138 5.278.245.597.464 1.202.576 1.838.185 1.048.154 2.548-.709 3.308-.096.109-.095.272.015.368a.28.28 0 0 0 .384-.03c.245-.356.538-.673.709-1.073 1.043-2.432-.426-5.423-1.67-7.454-.748-1.223-1.633-2.339-2.881-3.087-.119-.078-.271-.101-.399-.074zm-2.629 8.027c-.13-.065-.289-.012-.355.118-.179.488-.379.531-.739.853-.531.474-1.158.804-1.803 1.103-.517.239-.983.389-1.433.75-.148.037-.229.176-.192.323s.177.243.325.206c.145.023.296.073.443.073.387.002.529-.097.872-.25a6.5 6.5 0 0 0 1.966-1.367c.165-.164.366-.301.487-.5.08-.132.117-.292.192-.426.104-.186.239-.351.355-.529.066-.129.012-.288-.118-.353z"/><path d="M105.082 56.532c-.059.022-.096.089-.075.147l.68 2.646.31 1.147c.672 3.157.526 6.935-2.497 8.807-.122.078-.152.246-.074.367s.233.152.355.074c.531-.35 1.054-.744 1.478-1.221 1.966-2.209 1.803-5.429 1.256-8.131l-.237-1.191c-.227-.882-.605-1.779-1.049-2.573-.022-.057-.09-.095-.147-.073zm5.23 11.938c-.084-.039-.182-.01-.222.074-.238.61-.521 1.215-.679 1.852-.573 2.307-.306 4.88.99 6.91a7.34 7.34 0 0 0 1.33 1.559c.132.116.26.237.413.323s.321.129.488.192c.109.068.257.035.325-.074s.036-.255-.073-.323c-.351-.344-.745-.599-1.109-.926-.349-.314-.641-.669-.901-1.059-1.009-1.504-1.343-3.292-1.286-5.072.036-1.111.261-2.254.798-3.234.039-.084.011-.182-.074-.221z"/><path d="M106.487 69.25c-.142-.025-.286.064-.311.206l-.576 3.205c-.117 1.018-.142 2.071.236 3.043.235.603.626 1.119 1.05 1.602.937 1.069 2.152 2.101 3.517 2.573.6.207 1.285.326 1.891.074.374-.156.711-.527.975-.823.07-.127.025-.284-.103-.353a.26.26 0 0 0-.355.102c-.034.136-.057.304-.133.426-.344.555-1.334.449-1.832.294-1.398-.435-2.638-1.536-3.561-2.632-.373-.442-.731-.924-.931-1.47-.541-1.474-.105-3.125.148-4.602l.192-1.353a.25.25 0 0 0-.207-.294zm9.618-.382c-.126.073-.163.228-.089.353.417.988.895 1.913.99 2.999.063.712-.012 1.445-.133 2.146-.562 3.253-2.831 6.081-4.758 8.66l-2.586 3.426-3.458 5.131c-.451.707-.8 1.456-1.138 2.22-.588 1.331-1.076 2.689-1.374 4.117-.195.933-.276 1.888-.325 2.838-.085 1.638-.012 3.269.31 4.881.669 3.345 2.104 6.472 3.887 9.366.183.297.573.388.871.205s.391-.57.207-.867c-2.087-3.373-3.612-6.827-4.049-10.792-.099-.908-.146-1.821-.088-2.735.132-2.072.704-4.175 1.507-6.086.911-2.17 2.196-4.171 3.532-6.102 2.729-3.944 6.052-7.683 7.714-12.247.278-.765.508-1.541.605-2.352.206-1.722-.181-3.69-1.256-5.073-.073-.125-.244-.161-.369-.088z"/><path d="M101.151 86.083c-.119-.059-.267-.015-.325.103-.288.362-.719.885-.946 1.294-.361.65-.602 1.406-.857 2.102-.413 1.129-.769 2.253-1.034 3.426-.48 2.121-.712 4.311-.517 6.484.075.834.237 1.65.399 2.47.121.61.225 1.238.443 1.824.291.779.628 1.573 1.049 2.293l.694 1.088c.97 1.544 2.117 2.961 3.414 4.249a25.89 25.89 0 0 0 2.852 2.441c.212.157.397.358.62.499.23.146.496.246.739.368.047.034.114.017.148-.029s.017-.113-.029-.147l-.562-.574c-.196-.171-.435-.304-.635-.47l-1.685-1.485c-.864-.781-1.683-1.646-2.423-2.543a17.89 17.89 0 0 1-3.266-6.014c-.238-.757-.538-1.48-.68-2.264-.403-2.223-.333-4.489.074-6.704.285-1.547.754-3.093 1.33-4.558l.886-2.014c.181-.491.284-1.009.414-1.514a.24.24 0 0 0-.103-.323zm3.222 11.66c-.13-.049-.276.018-.325.147s.003.274.133.324c.24.145.47.32.724.441.732.349 1.586.495 2.364.706a20.86 20.86 0 0 0 4.005.691c.552.038 1.116-.034 1.67-.029.279.002.549.05.827.073.145.004.263-.105.266-.25s-.105-.276-.251-.279c-.277.01-.551.049-.828.03-.541-.037-1.073-.18-1.61-.25l-3.887-.706c-.775-.195-1.503-.538-2.275-.735-.269-.069-.541-.112-.813-.162zM88.28 49.945c-.077-.043-.178-.017-.222.059s-.017.177.059.221c.297.294.593.609.946.838.624.405 1.374.608 2.084.794l1.847.426 4.891.823c2.706.453 5.507 1.028 7.876 2.485.593.365 1.048.855 1.537 1.338.311.308.673.538 1.005.823-.109-.454-.182-.889-.459-1.279-.335-.473-.832-.878-1.285-1.235a10.71 10.71 0 0 0-3.222-1.764c-2.981-1.02-6.112-1.43-9.191-2.044l-2.704-.632-1.995-.603-1.167-.25zM83.419-.088C80.7-.27 77.9-.095 75.277.676c-3.166.93-6.273 2.907-6.901 6.366-.134.739-.169 1.503-.104 2.249.069.787.143 1.324.503 2.044a.48.48 0 0 0 .606.309.49.49 0 0 0 .31-.617c-.202-1.202-.638-2.267-.487-3.514.505-4.181 5.096-6.007 8.718-6.616.821-.138 1.638-.196 2.468-.235 1.509-.071 3.033-.053 4.537.118.515.059 1.024.16 1.537.235s1.028.114 1.537.221c.758.159 1.509.374 2.261.559.498.122 1.01.211 1.507.338.727.185 1.453.451 2.158.706 1.338.484 2.636 1.078 3.857 1.808 2.344 1.403 4.848 3.478 5.276 6.337.115.771.027 1.536-.104 2.294a5.53 5.53 0 0 1-.739 1.926c-.067.128-.025.3.104.368s.286.01.354-.118c.135-.299.31-.584.443-.882.361-.799.571-1.7.621-2.573.064-1.102-.333-2.207-.812-3.176-1.119-2.257-3.26-3.869-5.423-5.072-1.76-.979-3.616-1.689-5.512-2.352-.753-.264-1.478-.504-2.261-.676-.52-.114-1.056-.178-1.581-.265S87.109.219 86.581.147c-1.038-.142-2.117-.165-3.162-.235z"/><path d="M95.446 51.693l-3.31 1.147a19.75 19.75 0 0 0-3.798 2.059c-.201.139-.405.282-.561.47-.165.199-.234.462-.399.662-.071.086-.165.15-.251.22-.103.074-.134.207-.059.309s.222.133.325.059c.093-.058.177-.142.281-.176.127-.043.596-.047.725-.074.33-.068.636-.251.946-.367l2.068-.676c1.616-.546 3.147-1.278 4.714-1.941.468-.187.69-.726.503-1.191s-.715-.687-1.182-.5zm-27.499.177a1.13 1.13 0 0 0-.651.588 1.16 1.16 0 0 0 .547 1.544l2.571.956 2.453 1.176 1.3.486c.213.091.401.217.62.294.228.079.474.12.709.176.126.073.282.022.355-.103s.037-.28-.088-.353l-.503-.529c-.352-.303-.762-.545-1.123-.838-1.084-.88-2.302-1.541-3.502-2.249l-1.803-1.103a1.16 1.16 0 0 0-.886-.044zm17.954 22.569a.38.38 0 0 0-.532.015c-.813.62-1.45 1.443-2.305 2.014-.374.251-.835.481-1.271.603-1.359.379-2.293-.287-3.236-1.176-.438-.413-.825-.81-1.167-1.308-.063-.092-.189-.122-.281-.059s-.123.188-.059.279c.395.569.762 1.2 1.256 1.691.712.708 1.842 1.345 2.882 1.308.641-.022 1.316-.229 1.876-.529.51-.274 1.031-.589 1.478-.956.506-.416.967-.828 1.359-1.353.144-.146.147-.386 0-.529zm14.126-18.276a.79.79 0 0 0-.502.353c-.141.138-.296.309-.458.426-.142.104-.305.172-.444.279-.186.145-.172.173-.355.323-.189.156-.415.254-.62.383-.564.353-1.166.607-1.832.72-.419.072-.848.045-1.271.088-.22.023-.431.075-.651.103l-1.004.088c-.448.054-.877.181-1.316.279-.631.142-1.279.239-1.876.5-1.032.45-1.824 1.419-2.187 2.47a4.8 4.8 0 0 0-.251 1.206c-.032.141.065.277.207.309s.279-.05.31-.191c.095-.241.157-.508.251-.75.276-.708.756-1.371 1.419-1.764.684-.406 1.492-.681 2.291-.72.415-.021.826.031 1.241.029l.99-.015.68.044c.459-.009.917-.122 1.374-.162l.695-.03c.57-.054 1.223-.145 1.773-.323.362-.117.686-.329 1.005-.529.239-.15.439-.262.636-.47.371-.393.588-.957.768-1.456a.8.8 0 0 0-.266-1.103c-.19-.116-.404-.136-.606-.088zm-38.019-.138a.81.81 0 0 1 .511.353c.143.138.302.309.466.426.145.103.31.172.451.279.189.145.175.173.361.323.192.156.422.254.631.383.573.353 1.186.606 1.864.72.426.072.863.045 1.292.088.224.023.438.075.662.103l1.022.088c.455.054.892.181 1.338.279.642.142 1.3.239 1.908.5 1.05.45 1.855 1.419 2.225 2.47a4.73 4.73 0 0 1 .255 1.206c.032.141-.066.277-.211.309s-.283-.05-.316-.191c-.097-.241-.16-.508-.255-.75-.281-.708-.769-1.371-1.443-1.764-.695-.406-1.517-.681-2.33-.72-.422-.021-.84.031-1.263.029l-1.007-.015-.691.044c-.466-.009-.933-.122-1.398-.162l-.707-.03c-.58-.054-1.244-.145-1.804-.323-.368-.117-.698-.329-1.022-.529-.243-.15-.447-.262-.646-.47-.377-.393-.598-.957-.782-1.456a.79.79 0 0 1 .271-1.103c.193-.116.411-.136.616-.088z"/><path d="M100.338 56.28a1.09 1.09 0 0 0-1.271.868c.026.575-.052 1.118-.118 1.691-.087.742-.147 1.53-.355 2.25-.085.292-.24.545-.325.838l-.133.558c-.17.433-.612.831-1.005 1.059a.26.26 0 1 0 .192.485c.758-.191 1.033-.486 1.567-1.014.261-.259.51-.474.68-.809.109-.214.173-.455.266-.676.413-.973.767-1.946 1.035-2.97a6.47 6.47 0 0 1 .34-1.015c.11-.589-.28-1.155-.872-1.264zm-38.294.739c.694-.11 1.361.278 1.491.868-.031.575.061 1.118.139 1.69.102.742.172 1.53.416 2.25.099.292.282.545.381.838l.156.559c.2.433.718.831 1.179 1.059.159.054.236.204.173.338s-.24.2-.398.147c-.89-.191-1.211-.487-1.837-1.014-.307-.259-.598-.474-.797-.809-.128-.214-.202-.455-.312-.677-.484-.973-.899-1.946-1.213-2.97a5.89 5.89 0 0 0-.399-1.015c-.13-.589.328-1.155 1.022-1.264zm32.309 23.919c-.57.263-.995.774-1.537 1.103-1.076.654-2.24 1.311-3.458 1.661-.939.271-1.826.287-2.793.309-.77.017-1.591.116-2.349.25-.707.125-1.325.527-2.025.691-.197.046-.413.143-.62.103-.6-.116-1.12-.585-1.744-.632-.22-.017-.52.062-.709.088l-1.433.235c-1.533.265-3.287.081-4.849.015-.626-.027-1.189-.057-1.581-.603-.093-.112-.257-.121-.37-.029s-.137.256-.044.367c.678.728 1.716.818 2.66.764 1.413-.08 2.876.215 4.273 0l1.419-.206c.223-.032.491-.11.724-.044.4.112.686.438 1.049.617.327.162.541.191.901.206.469.019.923-.197 1.359-.338.66-.215 1.377-.438 2.069-.515 1.142-.126 2.3-.011 3.443-.191 1.653-.261 3.201-1.115 4.522-2.103.512-.383 1.184-.722 1.522-1.279.13-.118.148-.312.029-.441s-.328-.147-.458-.03zm-6.975 5.571c-.104-.016-.203.007-.296.073-.575.278-1.183.596-1.803.764-1.643.448-3.603.515-5.275.294l-1.478-.265c-.14-.037-.273.036-.31.177s.037.287.177.323c2.012.659 3.913.775 6.014.574.825-.079 1.711-.095 2.438-.544.279-.173.482-.43.709-.662.184-.133.237-.39.104-.573-.067-.092-.176-.145-.281-.162zM67 61.5a2.5 2.5 0 1 1 5 0 2.5 2.5 0 1 1-5 0zm24 0a2.5 2.5 0 1 1 5 0 2.5 2.5 0 1 1-5 0zm-8.601 438.831c-.202-.01-.363.136-.369.338-.048 2.108-.954 3.924-1.892 5.778l-1.345 2.747c-.046.137.025.278.163.325s.294-.023.34-.165c.212-1.096.961-2.041 1.507-2.997 1.003-1.754 1.869-3.613 1.951-5.66.006-.202-.153-.362-.355-.366z"/><path d="M81.039 506.062c-.144-.014-.278.08-.296.221-.008 1.421-1.43 2.442-2.571 3.044-.445.235-.867.381-1.344.532-1.331.418-2.646.701-4.049.748-.624.019-1.239-.043-1.862-.014-.667.033-1.32.169-1.951.381-1.23.414-2.323 1.152-3.34 1.943-2.091 1.618-3.676 3.693-5.187 5.834-.192.273-.124.649.148.842a.61.61 0 0 0 .842-.15l1.581-2.132 1.684-1.882c1.368-1.538 3.003-3.091 5.01-3.749 1.224-.4 2.533-.236 3.798-.367 1.93-.198 3.729-.622 5.378-1.675.679-.433 1.376-1.012 1.803-1.708.291-.471.466-1.035.591-1.572.018-.145-.092-.277-.236-.296z"/><path d="M58.21 501.46c-.447-.042-.878.014-1.271.254-1.151.701-1.865 2.447-2.305 3.628l-.857 2.441-.355 1.252c-.129.4-.326.786-.487 1.176-.369.889-.78 1.652-1.419 2.381-.231.292-.175.71.118.941s.715.188.946-.104c.605-.842 1.118-1.764 1.551-2.705l.502-1.233 1.167-3.058.636-1.618c.245-.584.545-1.294 1.079-1.675.455-.33.64-.301 1.212-.193l1.004.221 2.971.852 2.704 1.086 2.512 1.266c.146.08.517.221.606.381s-.044.485-.089.635c-.188.617-.505 1.162-.872 1.689-1.368 1.967-2.931 3.882-3.901 6.088-.048.094-.009.217.088.264a.2.2 0 0 0 .266-.09l1.123-1.952c.896-1.369 1.977-2.625 2.926-3.957l.975-1.397c.219-.339.397-.673.414-1.087.028-.715-.501-1.021-1.034-1.383l-1.345-.824-2.512-1.293c-.96-.438-1.96-.758-2.955-1.101l-2.084-.617c-.412-.094-.869-.226-1.315-.268z"/><path d="M54.603 504.414c-.137-.047-.289.029-.34.165l-.444.602c-.374.612-.607 1.294-.975 1.911-1.068 1.792-2.286 3.523-3.517 5.208l-5.172 6.45-7.138 8.441-5.009 5.956c-.422.55-.83 1.129-1.153 1.75-.125.24-.273.527-.266.805.006.263.057.447.266.635.613.55 1.752-.25 2.261-.602l4.522-3.487c.425-.357.958-.649 1.345-1.044.223-.226.373-.522.532-.791.096-.08.107-.23.03-.324-.077-.099-.214-.108-.31-.033-.295.099-.633.193-.902.357-.471.287-.869.715-1.315 1.04l-.931.664-3.339 2.394c-.009.01-.02.01-.029.014l.399-.527 2.276-2.822 2.172-2.72 7.462-9 5.467-7.114c1.14-1.543 2.219-3.115 3.148-4.794.352-.635.82-1.308 1.02-2.014.071-.254.076-.517.103-.781.051-.132-.026-.287-.162-.339z"/><path d="M30.589 536.172a.28.28 0 0 0-.369.09c-.143.141-.308.254-.429.413s-.194.367-.296.542l-.325.531c-.573.951-.972 1.962-1.315 3.016s-.671 2.197-.813 3.308c-.086.672-.075 1.35-.059 2.027.046 1.91.59 3.581 1.788 5.086.297.363.835.414 1.197.118s.415-.828.118-1.19c-1.002-1.172-1.605-2.569-1.788-4.103-.096-.805-.007-1.651.059-2.456.087-1.063.335-2.08.695-3.086l.694-1.751.458-1.115c.087-.174.219-.324.296-.503s.122-.386.177-.569c.075-.127.036-.283-.089-.358z"/><path d="M51.516 549.878c-.168-.014-.332.019-.473.132-.347.254-.707.437-1.079.649-1.039.588-2.055 1.087-3.192 1.468l-1.345.485c-.465.131-.946.197-1.419.296-1.932.405-3.926.513-5.896.409l-2.409-.221c-.156-.023-.302-.08-.458-.099-.311-.047-.632-.051-.931-.15-1.134-.367-2.147-.96-3.206-1.482l-1.123-.607c-.111-.09-.276-.066-.369.047s-.082.273.03.367c.296.339.585.691.931.983.714.607 1.643.988 2.512 1.313.462.169.96.259 1.419.437.158.062.298.165.458.222.638.23 1.331.329 1.994.456 1.927.372 3.847.39 5.793.16 2.249-.259 4.416-.743 6.443-1.779.568-.287 1.148-.611 1.655-.997.365-.278.695-.635 1.035-.941a.64.64 0 0 0 .088-.913.67.67 0 0 0-.458-.235zm22.12-24.07c-.988.489-1.788 1.204-2.572 1.971-1.208 1.181-2.258 2.503-3.251 3.867-2.988 4.103-5.421 8.573-8.408 12.675-1.119 1.534-2.371 3.124-3.975 4.188-.474.315-.988.602-1.537.766-.109.033-.228.052-.34.071-.019-.118-.019-.235-.029-.306-.036-.254-.051-.499-.06-.748-.023-.673-.102-1.35-.177-2.018-.057-.499-.088-1.007-.193-1.496s-.272-.965-.414-1.445a2.86 2.86 0 0 0-.207-.541c-.241-.452-.601-.818-.872-1.251-.085-.132-.145-.283-.236-.41-.336-.48-.714-.941-1.094-1.383-.168-.197-.407-.339-.517-.574-.105-.226.146-.428.236-.602.078-.155.192-.292.236-.456.053-.198.091-.414.059-.617-.027-.174-.158-.315-.236-.47-.059-.245-.305-.4-.547-.339s-.385.301-.325.546c-.024.061-.034.131-.074.188-.049.066-.147.108-.192.179a2.52 2.52 0 0 0-.325 1.689c.14.72.827 1.298 1.241 1.853.582.777 1.284 1.614 1.567 2.574.478 1.623.532 3.322.798 4.982.078.49.1 1.473.65 1.722.578.259 1.749-.263 2.276-.531a6.19 6.19 0 0 0 .887-.546c1.488-1.049 2.681-2.479 3.768-3.924 1.639-2.173 3.01-4.521 4.433-6.836 1.98-3.223 3.929-6.497 6.398-9.381.434-.504.883-1.003 1.36-1.468.592-.584 1.251-1.087 1.847-1.661.071-.052.094-.151.044-.221s-.151-.094-.222-.047zm8.895-26.964c-.115.089-.147.254-.059.367.102.089.222.165.31.263.339.386.506.984.709 1.445.685 1.552 1.017 3.26 1.182 4.94.034.339.036.687.044 1.03l.059 1.054-.015 2.15c-.004 4.009-.277 8.083.724 12.012a.48.48 0 0 0 .562.367c.255-.052.407-.306.355-.56-.309-1.962-.249-3.943-.311-5.924-.072-2.343-.117-4.695-.34-7.029-.102-1.068-.273-2.117-.428-3.175-.168-1.144-.361-2.287-.695-3.397-.212-.701-.476-1.445-.842-2.085-.28-.494-.642-.889-.887-1.397-.088-.117-.253-.15-.369-.061z"/><path d="M86.138 522.708c-.149-.047-.32.042-.369.193-.165.447-.34.913-.621 1.308-.405.564-.861 1.101-1.315 1.632a24.53 24.53 0 0 1-3.251 3.143l-1.345.988-1.344 1.026-3.251 2.268c-.897.602-1.845 1.1-2.778 1.646l-4.197 2.456a.7.7 0 0 0-.252.955.69.69 0 0 0 .946.25l4.197-2.532 2.704-1.835 4.699-3.321 1.256-1.134c2.172-1.901 4.238-3.844 5.098-6.676.05-.146-.028-.32-.177-.367z"/><path d="M68.405 537.689c-.144-.014-.278.08-.296.221-.334 1.228-.75 2.395-1.359 3.515-.862 1.585-2.06 2.992-3.266 4.323-.249.297-.209.739.089.984a.71.71 0 0 0 .99-.085c1.171-1.501 2.257-3.049 3.088-4.766.595-1.228 1.015-2.536.99-3.91.017-.146-.092-.263-.237-.282zm-7.108 11.103l-.931.541c-.262.169.535-.32.798-.485.036-.023-.079.042-.118.061-.064.028-.128.047-.192.071a2.83 2.83 0 0 0-.591.31l-.296.207c.451-.221-.008 0-.547.367a.77.77 0 0 0-.029 1.087c.293.311.784.32 1.093.028l.591-.894c.085-.117-.238.245-.192.382.038.112.147-.184.222-.278a2.55 2.55 0 0 0 .355-.574l.074-.193.059-.118c-.374.556.008 0 .074-.131.105-.099.101-.264 0-.367s-.265-.118-.369-.014z"/><path d="M27.147 545.644a.42.42 0 0 0-.369.47c-.035.193-.095.376-.104.574-.023.518.119 1.124.222 1.633.169.828.409 1.618.709 2.409.481 1.265 1.02 2.46 1.803 3.575 1.676 2.386 4.346 4.051 7.212 4.616 4.909.964 9.977-.316 14.466-2.282 2.278-.993 4.556-2.183 6.532-3.703.735-.565 1.371-1.214 2.024-1.868a.261.261 0 0 0-.325-.409l-2.32 1.411c-.77.48-1.531.984-2.32 1.44-1.314.758-2.656 1.459-4.049 2.056a30.44 30.44 0 0 1-3.369 1.223c-1.868.555-3.843 1.007-5.793 1.129-3.881.25-7.947-.776-10.566-3.777a11.15 11.15 0 0 1-2.305-4.235c-.172-.607-.333-1.218-.458-1.835-.099-.494-.131-1.054-.281-1.529-.057-.183-.159-.339-.236-.517-.027-.231-.238-.41-.473-.381zm58.281-25.815c-.095-.047-.207-.01-.251.085l-.813 1.237c-.471.602-1.054 1.124-1.596 1.661-.896.889-1.794 1.661-2.881 2.305a.8.8 0 0 0-.207 1.106c.249.357.748.437 1.108.193 1.056-.828 2.029-1.783 2.837-2.856.496-.654.877-1.365 1.256-2.084.246-.471.506-.88.636-1.398.044-.094.006-.207-.089-.249z"/><path d="M79.841 525.82l-1.995 1.064c-1.01.564-1.944 1.256-2.926 1.863l-1.507.87-1.492.894-2.01 1.059-2.025.912c-.274.109-.419.419-.31.692s.42.405.695.296c1.667-.489 3.234-1.364 4.743-2.206l2.512-1.576 2.881-1.986 1.729-1.453c.12-.08.156-.25.074-.367a.27.27 0 0 0-.369-.062zm-39.866-.186c-.327-.051-.628.174-.68.499s.175.626.502.678l-1.33 1.101c-.472.381.966-.739 1.492-1.045.054-.028.119.052.177.075.209.08.426.132.636.207.079.029.153.076.236.085.194.033.4-.014.591.033.417.103.773.386 1.182.513.228.07.467.084.695.16.478.164.933.404 1.389.621.724.343 1.414.729 2.098 1.148 1.23.743 2.413 1.524 3.532 2.423l.798.649c.571.513 1.001 1.087 1.404 1.731.111.179.222.334.266.546.088.433-.045.852-.236 1.238-.105.207-.281.428-.473.569-.135.099-.298.136-.444.207-.125-.108-.392-.203-.532-.325-.191-.165-.339-.362-.532-.527l-1.004-.823-1.818-1.59-2.069-1.793-1.936-1.336c-1.322-.875-2.868-1.595-4.448-1.84-.521-.08-1.073-.037-1.596.014-.13.015-.473.156-.385.062.708-.758-.002-.01-.369.089-.142.028-.225.179-.192.32s.168.226.31.193c.34-.066.7-.141 1.049-.132s.718.108 1.064.174c1.208.235 2.28.786 3.325 1.412l1.862 1.251 1.403 1.148 1.995 1.689 1.168 1.03.96.913c.264.221.59.386.872.584.329.235.7.48 1.123.338.298-.098.581-.324.828-.512.237-.184.43-.391.606-.631.231-.32.308-.56.355-.941.165-1.36-.579-2.282-1.478-3.209-1.428-1.472-3.179-2.672-4.965-3.674l-2.867-1.529-.68-.339c-.214-.122-.403-.292-.62-.409-.396-.217-.85-.264-1.256-.457-.186-.089-.334-.258-.517-.352-.087-.047-.187-.033-.281-.062-.41-.108-.785-.188-1.212-.174zm6.026-6.323a4.71 4.71 0 0 0-.517.028c-.177.042-.307.146-.458.235-.081.019-.137.099-.118.179s.096.136.177.117c.708.085 1.443.038 2.143.222 1.3.338 2.49 1.166 3.576 1.91 2.212 1.519 4.051 3.51 5.926 5.41a.51.51 0 0 0 .724 0c.2-.202.202-.522 0-.72-1.622-1.557-3.343-2.992-5.157-4.323-1.119-.819-2.232-1.619-3.487-2.221-.851-.409-1.853-.823-2.808-.837zm-2.836 3.001c-.295-.061-.577.132-.635.424a.54.54 0 0 0 .428.635c.408.16.771.414 1.182.569 1.14.442 2.174 1.049 3.221 1.68 1.829 1.096 3.6 2.267 5.246 3.632.803.663 1.567 1.454 2.261 2.235l.236.291c.077.113.091.268.207.339.148.089.345.075.517.089.076.005.259-.141.311-.178l.739-.541.68-.56c.762-.687 1.565-1.694 1.093-2.753-.135-.301-.288-.437-.591-.569-.053-.052-.14-.056-.192 0s-.053.137 0 .188c.084.198.258.475.296.678.157.847-.72 1.632-1.3 2.103a7.01 7.01 0 0 1-.99.691l-.192.118c-.013-.009-.021-.019-.029-.028l-.236-.311-.488-.649c-.531-.645-1.14-1.219-1.744-1.793l-1.256-1.133a37.62 37.62 0 0 0-3.975-2.79l-1.818-1.017-1.02-.56c-.152-.075-.28-.192-.428-.277a4.25 4.25 0 0 0-1.522-.513zm5.852-9.265c-.173-.043-.343.061-.384.235s.063.339.236.381c-.228.367-.204.4-.295.588l.458-.527c.045-.052.13.047.192.071l.207.103.783.311.96.409c.234.118.448.278.68.4l1.936.997 2.01 1.266c1.508.955 3.024 1.967 4.389 3.115.556.47 1.08.969 1.508 1.562.096.131.228.31.28.47.096.292-.167.353-.325.541-.074.09-.123.193-.177.296-.224.419-.332.923-.591 1.323-.114.178-.304.061-.473.014-.341-.094-.643-.287-.96-.443-.473-.23-.892-.517-1.33-.804l-2.379-1.68-1.892-1.336-3.679-2.456c-.625-.339-1.257-.734-1.951-.927-.251-.07-.527-.117-.784-.16-.081-.014-.27.043-.236-.028.487-1.068-.005-.009-.236-.033a.27.27 0 0 0-.28.25.27.27 0 0 0 .251.282c.493.019.878.169 1.33.353.989.395 1.828.974 2.704 1.571l6.073 4.498c.894.616 1.836 1.167 2.852 1.548.331.122.638.301 1.005.263.668-.07.949-.771 1.182-1.294.203-.456.601-.842.709-1.34.056-.254-.027-.457-.118-.687-.248-.64-.686-1.125-1.182-1.591-1.729-1.618-3.652-2.987-5.674-4.22l-1.67-.941-1.921-1.134c-.238-.117-.498-.193-.739-.305-.816-.391-1.555-.819-2.468-.941zm-.443 1.204c-.496.555-1.056 1.204-.665.955.414-.259.373-.357.665-.955z"/><path d="M58.387 523.691c-.111-.089-.276-.08-.369.033-.956.932-.494.551-.946.941-.229.193.404-.452.561-.706.075-.127-.202.198-.31.292-.226.202-.504.353-.695.588-.099.122-.343.508-.222.414.578-.466-.007-.009-.295.334a.55.55 0 0 0 .148.767.56.56 0 0 0 .768-.146l.296-.47c.071-.061.15-.108.207-.179.184-.221.294-.485.458-.72l.133-.193c.073-.122.225-.372.31-.583.094-.113.067-.278-.044-.372zm-4.345 6.192a.41.41 0 0 0-.266.193l-.931 1.378c-.217.301.405-.616.65-.894.121-.136-.17.315-.266.471l-.591.941-.325.456c.476-.79 0-.009-.384.409a.26.26 0 0 0 .044.367c.115.09.281.071.37-.042 1.078-1.308.645-.692 1.079-1.308.217-.31-.506.565-.768.838-.13.131.242-.292.369-.429l.768-.823.369-.442c-.602.724-.006 0 .34-.452.131-.202.069-.475-.133-.602a.42.42 0 0 0-.325-.061zm-8.909-6.221c-.128.023-.245.089-.325.207l-1.227 1.468c-.283.338.554-.697.872-.998.155-.15-.241.358-.369.527l-1.064 1.313-.222.235-.222.202c.728-.922 0-.004-.207.193-.117.085-.146.25-.059.367s.252.146.369.057c1.477-1.388.893-.739 1.478-1.393.385-.433-.824.819-1.212 1.247-.072.08.178-.127.266-.188l.576-.4c.379-.292.723-.65 1.049-.998l.473-.531c-.897.724-.009.014.325-.513.16-.231.113-.546-.118-.706-.115-.08-.256-.113-.384-.089zm4.137-6.378c-.096.038-.179.118-.222.221l-.532 1.115c-.125.254.238-.513.34-.776.047-.122-.121.235-.177.353l-.355.762-.192.381c.307-.612-.009-.009-.162.386-.074.122-.022.291.103.367.125.07.281.019.355-.104.686-1.091.42-.583.68-1.087.134-.263-.308.504-.414.777-.051.131.165-.24.251-.353.209-.273.35-.409.532-.706.079-.127.298-.513.207-.395-.439.574.008 0 .118-.414.086-.202-.016-.442-.221-.527-.103-.042-.215-.038-.31 0zm77.225 6.759c-.129-.066-.287-.009-.355.118-.685 1.298-1.151 2.748-1.448 4.178-.209 1.007-.296 2.037-.414 3.058-.261 2.268-.321 4.554.118 6.808.158.804.341 1.59.651 2.352.132.311.498.457.812.32.315-.131.458-.48.326-.79-.481-1.087-.649-2.221-.783-3.397l-.222-2.912.029-3.087c.076-.978.249-1.943.385-2.912.161-1.162.46-2.343 1.019-3.383.068-.127.01-.282-.118-.353zm-.326 17.353c-.081-.052-.183-.038-.236.042s-.037.198.044.249l1.966 1.445c.448.372.855.795 1.285 1.19l1.611 1.572c1.941 2.079 3.5 4.474 4.862 6.953l2.305 4.635.429.941.502.893.857 1.854 1.152 2.263c.84 1.647 1.743 3.247 2.779 4.78l.857 1.233c2.199 2.752 5.172 5.02 8.408 6.427 1.363.593 2.77 1.035 4.212 1.397 4.362 1.092 8.937 1.6 13.314.306 1.383-.405 2.784-1.021 3.96-1.863.503-.362.942-.814 1.374-1.252.595-.602 1.128-1.223 1.581-1.938.574-.908 1.007-1.887 1.316-2.912.43-1.431.581-2.936.517-4.428-.083-1.933-.521-3.843-1.301-5.617-.367-.833-.698-1.713-1.137-2.513-.389-.71-.849-1.387-1.301-2.06-.284-.419-.56-.842-.887-1.233-.451-.541-1.006-.988-1.477-1.515-.115-.132-.313-.141-.444-.028s-.144.31-.029.442c.458.532.791 1.106 1.197 1.675.379.532.79 1.044 1.152 1.586.512.771.955 1.562 1.404 2.366.283.508.554 1.045.754 1.59.718 1.953 1.256 3.999 1.271 6.088.008 1.252-.171 2.541-.576 3.736-.286.833-.668 1.637-1.153 2.381-.418.635-.906 1.27-1.463 1.792-.417.391-.892.701-1.36 1.031-4.021 2.804-9.127 2.954-13.831 2.248-.912-.136-1.826-.315-2.719-.545-1.386-.358-2.76-.819-4.063-1.412-1.768-.8-3.499-1.821-4.951-3.114-1.225-1.092-2.242-2.353-3.236-3.647-1.294-1.684-2.389-3.519-3.355-5.41-.305-.598-.555-1.219-.842-1.826-.363-.766-.78-1.51-1.108-2.291-.133-.32-.232-.64-.37-.955-.342-.79-.726-1.571-1.108-2.338-2.17-4.376-4.868-8.638-8.645-11.823-.458-.386-.959-.697-1.447-1.045-.686-.485-1.327-.95-2.07-1.35zm29.924-12.177c-.107-.019-.213.009-.31.075-.194.136-.239.395-.103.588l.694.866c.103.155.153.343.251.503s.229.292.34.438l.635.898c.112.151.244.278.355.428l1.286 1.849c.227.302.506.56.738.857.234.291.418.635.636.941.169.235.545.654.724.88l.68.912.768.838 6.443 7.984c1.038 1.327 2.18 2.606 3.044 4.055.085.118.251.146.37.062s.143-.25.059-.367c-.978-1.148-1.78-2.438-2.675-3.647l-3.118-4.074-3.532-4.47c-.231-.301-.422-.635-.65-.941-.206-.277-.522-.597-.739-.865l-.665-.899s-.515-.565-.738-.866-.407-.63-.636-.927l-1.389-1.75-.281-.47-.635-.913-.296-.456s-.287-.259-.399-.41c-.221-.296-.372-.635-.576-.941a.43.43 0 0 0-.281-.178zm-7.92-9.244c-.478.047-.966.151-1.345.235-1.479.33-2.894.833-4.285 1.426l-3.68 1.689c-.95.503-1.915 1.04-2.748 1.722-.298.245-.574.513-.739.866-.528 1.134.363 2.686.931 3.618l1.344 2.042 1.124 1.778 2.719 3.764c.154.23.467.273.694.122a.48.48 0 0 0 .133-.677l-2.69-3.839c-.282-.377-.613-.725-.916-1.087-.646-.777-1.226-1.633-1.743-2.499-.416-.696-1.302-2.145-.857-3.015.207-.405.835-.753 1.196-1.003.965-.653 1.992-1.227 3.03-1.759.997-.513 2.022-.965 3.073-1.355 1.413-.522 2.837-1.045 4.33-1.294.537-.089 1.144-.216 1.655.028.655.32 1.066 1.064 1.404 1.661l.798 1.576 2.113 4.776c.479.898 1.01 1.722 1.862 2.31.126.075.281.023.355-.104s.037-.277-.089-.353c-.46-.216-.683-.564-.961-.969-.365-.536-.637-1.087-.901-1.675-.873-1.952-1.499-4.055-2.601-5.9-.458-.762-1.005-1.632-1.876-1.98-.376-.151-.852-.156-1.33-.104z"/><path d="M125.755 541.057c-.129-.005-.233.094-.236.221-.09 1.341-.723 2.743-.207 4.055.261.669.832 1.144 1.344 1.619l1.758 1.633c1.487 1.406 2.883 2.931 4.123 4.559l1.39 1.938c1.671 2.908 2.189 6.253 2.999 9.457l.651 2.366c.496 1.44 1.194 2.908 2.113 4.131.462.616.98 1.162 1.492 1.736a.52.52 0 0 0 .724 0c.194-.202.186-.532-.015-.72-4.656-3.834-3.9-10.774-6.398-15.794-1.432-2.874-3.649-5.345-5.896-7.617-.781-.786-1.578-1.557-2.423-2.277-.511-.433-1.055-.809-1.286-1.468-.222-.635-.241-1.36-.133-2.014.088-.541.225-1.039.221-1.59.004-.127-.092-.23-.221-.235zm53.522 24.154c-.238.038-.406.25-.369.49l.118 1.246.044 1.191.059.56c.014.296-.042.79-.044 1.086-.002.179.038.353.029.532-.024.508-.216.974-.295 1.468-.05.315-.046.635-.133.941-.084.292-.224.579-.31.87s-.094.584-.193.866c-.146.423-.443.748-.694 1.101l-.458.706-.532.635-.517.644c-.869.908-1.967 1.628-3.089 2.165-.4.188-.733.508-1.167.63-.148.042-.309.024-.458.056-.295.071-.584.189-.872.283l-1.345.353c-1.452.324-2.915.508-4.403.56-1.23.042-2.46-.109-3.68-.222-4.76-.442-9.65-2.169-13.713-4.676-1.588-.979-3.071-2.108-4.492-3.308-.109-.099-.273-.094-.37.014s-.079.273.03.367c2.382 2.212 5.188 3.896 8.127 5.265 3.263 1.52 6.773 2.527 10.33 3.058.361.052.729.066 1.093.104 1.751.178 3.524.169 5.276.028.993-.08 1.988-.282 2.955-.513.456-.113.963-.197 1.389-.4.146-.066.27-.179.414-.249.427-.212.889-.25 1.315-.471 1.23-.63 2.33-1.43 3.325-2.38.218-.212.459-.395.665-.617.369-.4.799-1.035 1.049-1.515.214-.414.337-.87.561-1.279.156-.287.351-.555.473-.852.189-.47.252-.978.399-1.458.051-.165.126-.316.163-.485.111-.522.062-1.087.118-1.618.02-.184.06-.372.074-.556.031-.409-.017-.743-.015-1.148.001-.202.033-.404.03-.602-.015-.833-.21-1.694-.399-2.503-.037-.235-.25-.4-.488-.367zm-28.046-7.951a.55.55 0 0 0-.311.705l.045.292c.019.104.077.188.089.297.013.131-.041.235-.045.367s.035.272.015.409c-.13.884-.575 1.731-.946 2.531a24.69 24.69 0 0 1-1.241 2.305l-1.049 1.722-1.315 1.708c-.208.287-.378.603-.577.894-.204.301-.379.565-.532.899-.029.042-.012.103.03.132s.088.014.118-.029c1.024-.988 1.83-2.183 2.645-3.34.392-.555.858-1.049 1.256-1.6.766-1.058 1.557-2.197 2.084-3.397.23-.522.399-1.077.532-1.632.041-.174.125-.339.147-.513.018-.136-.027-.367-.029-.503-.003-.175.042-.334 0-.513-.033-.137-.137-.301-.207-.428a.55.55 0 0 0-.709-.306zm17.924-3.721c-.038.028-.055.08-.029.117-.009.212-.042.311.059.499.147.282.591.673.827.871.38.315.771.541 1.212.748.204.094.406.211.621.282.208.066.426.085.635.146l1.197.409c.201.09.397.207.591.311.183.094.382.169.547.291.198.151.352.358.532.532l.591.527c.184.174.464.169.635-.014s.169-.475-.014-.645c-.402-.381-.766-.809-1.227-1.119-.209-.142-.452-.212-.679-.325l-.665-.306c-.417-.16-.849-.24-1.271-.381-.201-.071-.392-.179-.591-.254-.193-.066-.401-.085-.592-.16s-.366-.174-.546-.264a3.97 3.97 0 0 1-1.05-.766c-.264-.269-.275-.344-.664-.471-.027-.038-.08-.052-.119-.028zm-42.321-27.482c-.07.043-.101.123-.059.193.03.132.035.273.088.4.104.235.306.428.444.645.217.343.442.597.724.898.888.937 1.845 1.751 2.926 2.47l1.315.852 4.138 2.263 2.556 1.647 2.32 1.868c.135.145.356.15.503.014s.149-.353.014-.499c-.145-.221-.263-.456-.428-.663-.333-.41-.743-.753-1.153-1.087-.829-.673-1.722-1.219-2.66-1.722l-3.487-1.868-2.705-1.44c-1.027-.625-2.094-1.336-2.911-2.234l-.709-.824c-.161-.183-.254-.419-.414-.602-.086-.099-.195-.179-.295-.264-.042-.07-.136-.084-.207-.047zm30.691 9.249c-.434-.01-.867.047-1.3.075-1.302.085-2.593.235-3.813.72a.6.6 0 0 0-.355.762.58.58 0 0 0 .754.339l1.7-.588c1.802-.475 3.658-.786 5.526-.72.146.005.264-.104.266-.25s-.12-.263-.266-.263c-.622.005-1.255.014-1.876-.014l-.636-.061z"/><path d="M157.009 531.702l-2.128.428-2.187.546-1.093.264-2.646.865-1.536.532c-.484.193-.936.437-1.404.659l-1.345.606c-.661.33-1.275.734-1.877 1.163-1.256.884-2.816 2.314-2.305 4.027.169.564.613 1.289 1.271 1.35.403.043.797-.146 1.153-.306.642-.296 1.239-.668 1.861-1.002l2.409-1.425c1.528-.904 3.189-1.623 4.847-2.249.174-.066.258-.254.192-.428a.33.33 0 0 0-.428-.189c-1.712.64-3.313 1.45-4.951 2.249l-.561.25-3.444 1.82a3.19 3.19 0 0 1-.93.283h-.03c-.187-.254-.417-.513-.473-.824-.112-.625.285-1.232.709-1.646.792-.777 1.712-1.346 2.69-1.854l1.212-.649c.593-.297 1.229-.471 1.847-.706l.975-.395c1.011-.391 2.061-.678 3.103-.969l1.049-.325c1.377-.4 2.826-.673 4.242-.899a.58.58 0 0 0 .472-.687c-.059-.324-.368-.545-.694-.489zm2.675 7.194l-2.157.146c-3.561.376-7.127 1.331-10.241 3.133-.904.522-1.763 1.125-2.527 1.835-.321.301-.668.616-.886 1.002-.356.631-.452 1.421-.355 2.131.033.236.084.466.177.692.093.217.226.433.399.602.81.777 1.712.17 2.512-.221l.754-.367c2.643-1.251 5.369-2.315 8.127-3.279 1.872-.659 3.762-1.223 5.704-1.633a43.08 43.08 0 0 1 2.306-.428c.245-.037.736.146.724-.099-.057-1.129.002-.004.724-.089.145-.014.251-.136.236-.282s-.136-.25-.28-.236c-.714-.983-.539-1.1-.754-1.086.447-.165-.211-.748-.724-1.252.416 1.045.226 1.379.606 1.28-.184.174.3.804.133 1.12-.119.221-.503.056-.754.089a30.18 30.18 0 0 0-1.552.249c-2.229.41-4.438.988-6.605 1.647-1.709.518-3.399 1.139-5.054 1.807a78.78 78.78 0 0 0-3.221 1.383l-1.522.706c-.117.056-.265.122-.399.117-.347-.018-.477-.381-.532-.677-.105-.555-.036-1.299.325-1.764.408-.527 1.053-.96 1.596-1.337 1.065-.738 2.216-1.341 3.413-1.839 3.244-1.351 6.748-2.07 10.226-2.484.788-.094 1.571-.184 2.364-.207h.296c.092 0 .202-.066.266 0 .677.705.003-.005.266 0 .066.009.089-.057.133-.104-.122-.118-.277-.254-.355-.353-.059-.07-.186-.028-.28-.042-.311-.047-.618-.09-.931-.118-.722-.061-1.442-.066-2.158-.042zm3.724.555c.033-.033.098-.023.103-.071.013-.117-.075-.225-.192-.235.085.165.033.17.089.306zm2.984 8.518c-1.144-.038-2.272.122-3.413.131-.145.01-.247.137-.237.278a.27.27 0 0 0 .281.249c-.173.414-.104.414-.162.65l.502-.692c.065-.089.215-.009.325-.014h.917c.981.028 2.043.085 2.94.527.803.4.937 1.322.961 2.131l-.015.706-.015.268c-.025.014-.065.042-.133.056a2.46 2.46 0 0 1-.414.062c-.409.023-.816 0-1.226 0l-1.626-.09c-.301-.023-.6-.08-.901-.075-.315.009-.631.071-.946.089s-.926.348-.945.029c-.075-1.238 0 .004-.946.367-.045 0-.089.047-.089.089s.044.075.089.075c.307.127.595.297.916.381.298.08.612.061.916.118l.902.207c.291.052.591.061.886.089l1.655.16c.794.085 1.727.141 2.483-.178.957-.4.859-1.2.768-2.071-.131-1.261-.384-2.517-1.626-3.147-.596-.301-1.192-.377-1.847-.395zm-3.531 1.308c-.566.757-1.207 1.632-.68 1.35.697-.372.454-.447.68-1.35zm-3.679-1.357c-.871.08-1.752.273-2.601.47l-2.468.692c-1.339.452-2.625 1.129-3.842 1.84l-1.921 1.204c-.38.264-.746.518-1.049.87-.99 1.144-1.129 2.875-.621 4.263.234.64.703 1.402 1.478 1.397.384-.004.714-.244 1.049-.4l1.448-.644 3.857-1.557 3.339-1.577c.198-.084.401-.136.591-.235s.36-.244.548-.353c.314-.183.839-.428 1.167-.588.131-.061.182-.221.118-.353s-.224-.178-.354-.117l-1.168.546c-.202.07-.421.094-.621.174s-.367.207-.561.296c-.926.414-1.919.72-2.882 1.045l-4.477 1.599a19.3 19.3 0 0 0-2.01.809 1.33 1.33 0 0 1-.118-.174c-.086-.16-.148-.329-.192-.503a3.34 3.34 0 0 1-.015-1.614c.242-.955.999-1.388 1.788-1.882l1.404-.837c1.172-.668 2.375-1.209 3.606-1.75l2.246-.871c1.63-.489 3.342-.71 4.994-1.115.119-.005.209-.103.207-.221s-.102-.207-.221-.207c-.89-.184-1.81-.287-2.719-.207z"/><path d="M161.972 542.689c-.188.113-.247.357-.133.541l.518.856c.553.828 1.255 1.548 1.861 2.338l.562.791c.088.136.145.306.251.428.117.136.279.221.414.339.01.019.026.023.045.014s.024-.024.014-.042c-.016-.184.008-.372-.044-.546-.049-.165-.166-.297-.251-.442l-.532-.852-2.158-3.293c-.114-.189-.358-.245-.547-.132zm-4.327-6.677c-.137-.127-.345-.123-.473.014s-.123.357.015.484l1.227 1.224c.272.277-.57-.57-.917-.753-.16-.08.21.306.326.442.185.221.428.391.65.574.152.127.263.283.399.428.069.071.127.156.206.221s.351.24.281.16c-.698-.79-.013.01.266.146.053.047.144.038.193-.014s.037-.127-.015-.179c-.291-.367-.281-.385-.385-.541l.237.278c.066.071-.082-.165-.133-.249s-.107-.146-.163-.222c-.047-.061-.291-.395-.325-.47-.127-.268-.21-.56-.399-.79-.13-.165-.563-.607-.458-.429.495.838.006-.009-.532-.324zm-13.034 4.075c-.11-.009-.234.024-.324.104-.181.155-.201.423-.045.602l.724.998c.066.108-.128-.156-.236-.292.219.263.413.513.591.809l.103.16c.04.057.172.203.133.146-.431-.612.012.009.133.179.044.136.187.202.325.16a.26.26 0 0 0 .178-.325c-.642-1.195-.307-.72-.651-1.204-.224-.316.386.691.636.988.053.061.002-.174-.015-.254s-.142-.363-.177-.438c-.128-.282-.275-.583-.444-.842-.086-.127-.348-.527-.295-.381.267.724.011.009-.34-.264a.42.42 0 0 0-.296-.146zm3.901 7.762c-.047.038-.052.113-.014.16l.739 1.529c.012.029.029.052.044.09l.311.56.221.541.118.263c-.48-.993-.008 0 .133.254.018.085.106.132.192.118s.137-.094.119-.179l-.843-1.661c-.256-.47.537.932.872 1.355.065.08-.02-.211-.044-.31a6.49 6.49 0 0 0-.207-.603c-.202-.512-.463-1.02-.783-1.472l-.192-.249c-.072-.08-.277-.32-.237-.222.436 1.068.008 0-.266-.16-.038-.047-.114-.051-.163-.014zm.075.457c-.049-.09.072.174.118.263l.147.264c.109.183.192.376.296.56-.059-.085-.364-.73-.561-1.087z"/></g></g><defs><radialGradient id="A" cx="0" cy="0" r="1" gradientTransform="translate(96.153 70.829) scale(8.61592 8.46438)" xlink:href="#G"><stop stop-color="#dea88e"/><stop offset="1" stop-color="#f5e8d6"/></radialGradient><radialGradient id="B" cx="0" cy="0" r="1" gradientTransform="translate(66.6994 70.498) scale(7.13947 7.73254)" xlink:href="#G"><stop stop-color="#dea88e"/><stop offset="1" stop-color="#f5e8d6"/></radialGradient><radialGradient id="C" cx="0" cy="0" r="1" gradientTransform="translate(172.064 309.107) scale(9.38563 9.3383)" xlink:href="#G"><stop stop-color="#dea88e"/><stop offset="1" stop-color="#f5e8d6"/></radialGradient><radialGradient id="D" cx="0" cy="0" r="1" gradientTransform="translate(137.923 403.435) scale(8.00854 7.96817)" xlink:href="#G"><stop stop-color="#dea88e"/><stop offset="1" stop-color="#e3caba"/></radialGradient><radialGradient id="E" cx="0" cy="0" r="1" gradientTransform="translate(52.8677 398.882) scale(7.94617 9.23417)" xlink:href="#G"><stop stop-color="#dea88e"/><stop offset="1" stop-color="#e3caba"/></radialGradient><clipPath id="F"><path fill="#fff" d="M0 0h183v583H0z"/></clipPath><linearGradient id="G" gradientUnits="userSpaceOnUse"/></defs></svg>