<svg xmlns="http://www.w3.org/2000/svg" width="322" height="270" fill="none" xmlns:v="https://vecta.io/nano"><g clip-path="url(#C)"><path d="M203.653 176.916l4.297 14.748-16.494 49.622-41.164 14.748-40.056-10.613-21.483-42.041 2.772-17.505s11.465-3.204 18.364-6.876 9.231-7.809 9.231-7.809 1.111-8.167-.805-9.897c-5.806-5.244-12.025-14.062-12.025-14.062L94.879 119.87l17.771-30.202 30.875-25.87 33.839 21.963 19.644 29.624-8.84 33.508-6.233 22.988s3.085 1.887 8.515 3.146 13.203 1.888 13.203 1.888z" fill="#f5e8d6"/><g fill="#e3caba"><path d="M118.895 163.674s9.242 22.495 27.565 26.857 35.504 2.972 45.727-9.407c6.453-7.816-7.23-5.731-11.319-12.16-3.548-5.58-3.927-16.647-5.111-13.929-1.204 2.763-8.023 9.823-16.755 13.938-6.694 3.155-15.231 3.999-18.887 3.352-11.354-2.009-20.356-8.161-21.22-8.651zm22.452-86.278s-3.562 7.222-9.798 12.341-9.565 1.945-15.147 8.132-6.621 19.907-11.752 24.362c-7.297 6.337-2.206 11.588-2.206 11.588l-7.517-6.744 12.089-26.59 11.093-15.911 18.861-11.145 5.016-7.601 12.675 18.468 23.116 5.603 13.472 16.578-.674 16.316-9.707 3.296 2.196-10.972s2.095-7.814-1.1-12.813-11.68-7.186-11.68-7.186-8.506 1.812-15.74-2.619-13.197-15.103-13.197-15.103z"/></g><path d="M286.592 317.641s8.836-1.485 8.252-3.7l-18.988-73.992s-3.602-12.504-5.673-24.65-1.688-16.39-1.688-16.39-.338-11.686-4.626-13.135-4.155 1.091-13.872-1.381-12.724-6.298-24.992-8.511-26.569-2.783-24.469-.467c7.067 7.79 2.45 26.246 2.45 26.246s-3.809 22.953-15.984 35.003-36.657 13.793-36.657 13.793-18.701 4.361-32.818-5.692-17.394-19.288-23.647-34.519 1.421-19.934-1.215-27.64c-.838-2.452-21.758 4.75-33.733 9.636-12.007 4.898-15.387 2.548-17.577 4.801-2.941 3.026-10.509 28.043-11.728 62.266s-9.084 66.258-8.567 71.545c.455 4.654 11.666 1.931 25.978 4.58s29.584 7.878 31.272 6.013c4.002-4.418 4.503-35.407 4.503-35.407s3.202 39.423-.925 58.29c-6.887 31.482-14.144 43.152-37.08 103.258C20.927 530.174.808 601.783.456 610.148c-.446 10.623 35.216 26.589 42.36 36.254 8.694 11.76 8.211 23.985 18.52 33.788s18.619 6.375 23.793 5c5.994-1.593 27.561-39.723 52.778-37.675 32.328 2.628 64.648 40.023 72.052 44.165 6.44 3.603 13.071 2.089 16.09-3.763 3.825-7.414-.194-18.964 6.48-21.78 19.409-8.189 30.841-3.065 43.97-8.46 3.049-1.254 2.307-14.052 5.993-18.463 4.658-5.572 15.844-8.541 21.487-17.153 7.416-11.316-6.752-32.119-15.677-64.156s-20.023-63.991-20.023-63.991l-34.114-99.43-5.588-60.823s2.219-8.636 3.176-17.885.178-15.161.178-15.161-2.516 22.541 5.76 32.012c2.271 2.597 7.511-12.413 20.644-16.228 7.4-2.148 28.347-4.714 28.347-4.714l-.091 5.956z" fill="#c46b57"/><path d="M237.333 331.449l21.476-16.851s-6.935.741-13.513-11.673-5.48-38.983-5.48-38.983l-1.638-9.763-3.324 29.165-2.956 8.639-.825 27.83 6.26 11.636z" fill="#a05b52"/><path d="M121.92 21.786s-10.957 2.398-18.364 10.052-11.265 20.565-11.265 20.565l-1.543 15.884-10.921 12.172s7.985-.358 6.947 1.095-11.014 2.528-11.099 4.719 10.803 3.278 9.504 5.42c-2.246 3.702-7.424 7.667-9.419 14.464s1.44 12.723 1.44 12.723l2.203-4.213s-.161 5.671 3.862 11.896 9.165 7.199 13.276 15.498 1.999 22.931 1.999 22.931 8.046-12.28 9.389-20.499-6.242-12.25-7.229-19.646 4.382-5.55 7.424-12.903 4.745-16.513 4.745-16.513 12.34-4.392 19.524-11.048 9.212-15.575 9.212-15.575 2.853 12.863 11.331 18.885 22.577 5.205 22.577 5.205 6.89 2.862 9.794 7.652 2.653 5.982 1.824 11.508-5.136 10.596-5.136 10.596l4.9-2.497s-.791 6.752-.32 10.866 1.843 4.991 1.843 4.991-14.814 17.485-16.928 32.757c-2.971 21.456 21.52 35.964 19.501 33.453-7.461-9.276-9.57-21.438-7.653-28.296 3.48-12.454 2.445-13.287 12.442-23.186 9.382-9.29 11.715-16.538 9.788-27.829-.69-4.043 2.757-4.945 1.342-14.078-1.001-6.455-3.98-6.278-4.894-14.379-.331-2.947-.655-6.878.475-9.669.819-2.026 4.88 3.791 3.74-.151-2.786-9.641-2.301-16.379-3.593-23.781-2.658-15.223-5.379-19.033-11.253-27.289-3.324-4.673-10.612-6.821-10.612-6.821s3.429-8.462-3.624-14.801-10.828-7.673-22.313-9.925-18.699-2.382-27.509 2.901-5.408 16.867-5.408 16.867z" fill="#e0bd6f"/><path d="M112.332 97.742s-9.679 1.508-9.889.397c-.412-2.166 4.388-7.312 4.388-7.312s-9.563 3.12-14.943 4.007-8.632-1.607-8.632-1.607l3.289-2.678 12.358-.277 12.01-3.75-5.795 10.207 8.309-2.084-1.095 3.097z" fill="#b69c65"/><g opacity=".5"><path d="M178.851 108.585l-30.397 4.735 6.255 25.676 29.641 1.559-5.499-31.97z" fill="url(#A)"/><path d="M139.681 104.739l-28.889 6.382-7.183 15.118 9.801 12.366 20.814-10.462 5.457-23.404z" fill="url(#B)"/></g><g fill="#fff7f7"><path d="M154.157 111.613s5.973 1.702 10.235 1.838 7.776-1.885 7.776-1.885l2.923-6.908-5.667-.955-8.548 1.409-5.668 2.682-1.051 3.819zm-23.114-.052l-2.805-5.043-9.888-2.492-6.56-.12-.265 5.131 2.001 3.066s2.985 1.281 7.364 1.145 10.153-1.687 10.153-1.687z"/></g><g fill="#070d1c"><path d="M238.694 251.052c-.273-.057-.541.117-.598.388-.73 2.413-.949 4.916-1.144 7.421-.316 4.056-.326 8.128-.676 12.179-.418 4.846-.978 9.733-2.496 14.378-2.191 6.704-6.248 12.71-12.611 16.083-1.965 1.042-4.074 1.79-6.24 2.301-1.384.327-2.801.668-4.212.854-1.161.152-2.369.193-3.536.258-1.724.096-3.422.18-5.149.156-1.925-.029-3.847-.198-5.772-.234-.518-.009-1.046-.063-1.56 0-.565.071-1.112.278-1.664.414-.358-.036-.665.214-.702.569s.214.688.572.724c.52.247 1.011.551 1.56.724.509.161 1.057.19 1.586.259.514.067 1.043.116 1.56.155 1.474.109 2.944.104 4.42.078 2.224-.041 4.46-.152 6.656-.518 3.669-.609 7.256-1.504 10.635-3.077 2.52-1.173 4.931-2.587 7.046-4.396 5.61-4.796 8.482-11.69 9.933-18.772 1.191-5.815 1.645-11.767 1.924-17.687.184-3.903.38-7.782.858-11.662a.5.5 0 0 0-.39-.595zm-84.01-1.005c-.567.004-1.019.47-1.014 1.034l.234 3.749c.047.838-.176-1.654-.312-2.482-.068-.417.068.847.104 1.267l.26 2.482c.022.412.023 1.653 0 1.241-.118-2.084-.018.014.182 1.267-.018.258.182.474.442.492a.49.49 0 0 0 .52-.44l.312-3.801c.099-.844-.036 1.715.052 2.56.044.426.044-.865.078-1.293l.208-2.559.052-1.242c-.27 2.111.002.005-.078-1.241-.004-.564-.473-1.039-1.04-1.034z"/><path d="M156.581 258.295c-.147.041-.246.181-.39.233-1.142.414-.003.003-.339.387-.068.013-.116.087-.103.156s.087.116.156.103c-1.505.585-1.938.611-1.509.569.648-.064 1.276-.285 1.925-.336.128-.01.212.157.337.181.204.038.418-.047.624-.026 1.127.113 2.175.517 2.938 1.371 1.738 1.941 2.834 6.459-.363 7.601-2.896 1.036-5.646-1.073-7.255-3.309-.599-.834-1.305-2.564-.858-3.621.154-.361.54-.396.754-.671.068-.087.058-.234.157-.285 1.054-.55-.004-.001.233-.31.18-.043.278-.235.234-.414s-.209-.276-.39-.233l1.561-.388c-.63.196-1.318.195-1.977.233-.146.009-.269-.109-.416-.104-.126.005-.25.077-.364.13-1.749.807-2.043 2.991-1.56 4.628.143.485.414.924.65 1.371 1.756 3.318 5.2 5.735 9.075 4.758 2.362-.596 3.574-2.807 3.458-5.146-.105-2.111-1.115-4.101-2.731-5.456-1.016-.852-2.122-1.341-3.458-1.396-.136-.006-.257-.064-.389-.026z"/><path d="M154.735 269.361c-.151-.03-.282.083-.312.233-.728 2.083-.994 4.205-1.248 6.387-.351 3.017-.452 6.066-.468 9.102 0 .515.418.931.936.931s.936-.416.936-.931l-.104-9.024c.035-2.128.359-4.24.494-6.361.031-.151-.083-.306-.234-.337zm37.547-39.072c-.1-.046-.213-.021-.26.078-.686.942-1.187 2-1.898 2.922a34.63 34.63 0 0 1-5.226 5.456c-4.496 3.75-9.972 6.347-15.549 8.068-1.986.613-4.04 1.035-6.058 1.525-5.985 1.457-12.122 2.168-18.279 2.328-2.311.06-4.661.066-6.969-.078-2.74-.171-5.46-.526-8.19-.802a.85.85 0 0 0-.962.699c-.073.45.249.857.702.931.716.159 1.409.37 2.132.491 2.046.344 4.172.367 6.24.44 2.866.1 5.714.138 8.581.025 5.768-.226 11.564-.876 17.212-2.068 2.095-.442 4.111-1.111 6.137-1.784 2.978-.992 5.853-2.165 8.632-3.621 4.927-2.58 9.653-6.172 12.351-11.119.585-1.072 1.164-2.045 1.483-3.232.046-.099.021-.212-.079-.259zM71.714 242.728c-.116.096-.123.272-.027.387.797 1.045 1.528 2.169 2.08 3.362 1.384 2.986 1.828 6.445 1.925 9.697.106 3.577-.203 7.155-.624 10.705-.311 2.617-.547 5.262-.78 7.887-.913 10.305-1.298 21.808 6.968 29.452 1.887 1.745 4.091 3.183 6.397 4.318a33.43 33.43 0 0 0 10.322 3.129c.496.098.994-.231 1.092-.724s-.232-.962-.727-1.06c-4.557-1.196-9.173-2.272-13.183-4.861a20.81 20.81 0 0 1-3.874-3.207c-3.476-3.691-4.993-8.449-5.773-13.342-.485-3.048-.464-6.184-.312-9.257.174-3.51.49-6.999.806-10.499.206-2.282.343-4.564.468-6.852.352-6.458.31-14.03-4.368-19.109-.097-.115-.274-.123-.389-.026zm46.204-81.556c-.238.095-.329.359-.234.595.616 1.048.772 2.405.935 3.595.139 1.01.223 1.985.053 2.999-.587 3.483-3.493 6.232-6.449 7.938-1.929 1.115-4.027 1.88-6.084 2.716-1.067.432-2.065 1.013-3.121 1.473-1.304.569-2.676.825-4.029 1.242a33.82 33.82 0 0 0-5.512 2.275c-.372.185-.523.639-.338 1.009a.76.76 0 0 0 1.013.336c.605-.286 1.185-.605 1.794-.879 1.155-.521 2.398-.873 3.563-1.371.766-.328 1.486-.704 2.261-1.009 1.623-.635 3.353-.963 4.967-1.603 2.399-.95 4.659-2.174 6.838-3.542 3.097-1.944 5.669-4.681 6.163-8.43.208-1.582.089-3.149-.364-4.68-.243-.818-.636-1.575-.832-2.405-.095-.236-.386-.353-.624-.259z"/><path d="M106.712 148.633a.46.46 0 0 0-.078.646c.116.403.18.838.364 1.216.171.352.465.618.702.931l1.456 1.836 1.43 1.862c1.738 2.078 3.678 3.985 5.694 5.792l3.511 2.87 2.626 2.12c3.728 2.722 8.14 5.175 12.61 6.413 2.49.689 5.063 1.114 7.645 1.241 1.156.057 2.277-.061 3.432-.051.396.002.8.064 1.196.051 1.614-.055 3.25-.393 4.81-.776.578-.123.957-.693.832-1.267a1.08 1.08 0 0 0-1.274-.827c-1.521.279-3.051.508-4.576.75-.728.115-1.448.272-2.184.284-4.903.076-9.696-1.039-14.171-3-2.569-1.125-4.965-2.681-7.228-4.317-1.177-.853-2.349-1.69-3.406-2.689-3.007-2.843-5.727-5.934-8.581-8.922-.8-.837-1.531-1.71-2.288-2.586-.252-.292-.454-.635-.754-.879-.327-.264-.751-.413-1.118-.62-.158-.2-.449-.236-.65-.078z"/><path d="M178.057 151.397c-.204-.153-.496-.1-.649.103-1.405 2.072-3.279 3.821-5.019 5.611-2.959 3.044-5.937 6.159-9.412 8.636-2.124 1.515-4.427 2.844-6.761 4.009-1.007.502-2.196.686-3.25 1.086-.411.082-.681.47-.598.879s.499.678.91.595c1.333-.056 2.404-.514 3.641-.957.411-.148.843-.245 1.248-.413 2.141-.892 4.092-2.358 5.902-3.776 3.442-2.698 6.692-5.655 9.49-9.024 1.626-1.958 2.972-4.157 4.602-6.103.154-.203.101-.493-.104-.646zM31.098 239.753c-.7-.019-1.281.546-1.3 1.242l-.338 7.136-.182 2.198v3.413l-.572 5.922-.39 2.431c-.139.819-.182 1.658-.286 2.482-.16 1.26-.508 2.501-.728 3.749-.297 1.687-.336 3.403-.624 5.095l-.936 6.413-1.3 8.972c-.171 1.268-.556 2.487-.754 3.749-.13.829-.148 1.677-.26 2.509l-.442 2.43-1.352 9.412c-.851 6.276-1.526 12.56-1.976 18.877-.138 1.939-.31 3.876-.052 5.818.1.75.203 1.549.572 2.224.596 1.089 1.282 1.135 2.418 1.086.724-.032 1.459-.009 2.184-.026.263-.007.518-.049.78-.026.559.047 1.105.212 1.664.258 2.918.244 5.867.268 8.788.465 3.861.261 7.708.757 11.545 1.242a234.66 234.66 0 0 1 21.244 3.697l6.135 1.423c1.026.24 1.995.443 2.99-.051.932-.465 1.638-1.369 2.184-2.225 1.435-2.245 1.8-5 2.184-7.576.481-3.226.655-6.446.859-9.697.102-1.631.232-3.251.234-4.887 0-.62-.062-1.242-.052-1.861.01-.59.052-1.195.027-1.785-.093-2.103-.293-4.178-.156-6.283.002-.255-.186-.464-.442-.466a.47.47 0 0 0-.468.466c.106 2.106-.093 4.184-.234 6.283-.039.586.012 1.172 0 1.759-.012.616-.097 1.22-.13 1.835-.086 1.613-.094 3.25-.182 4.862-.172 3.159-.526 6.363-1.17 9.464-.406 1.95-.999 3.957-1.846 5.766-.392.838-.814 1.714-1.586 2.276-.519.377-1.142.678-1.795.491-.396-.114-.776-.239-1.17-.362l-2.444-.75c-3.311-.938-6.666-1.644-10.037-2.327-4.588-.93-9.194-1.774-13.833-2.431-3.872-.549-7.759-.922-11.649-1.318-2.047-.21-4.107-.414-6.162-.518-.914-.046-1.841-.116-2.756-.103-.572.008-1.119.156-1.69.18-.528.023-1.058-.068-1.586-.077l-1.586-.025c-.034-.279-.092-.545-.104-.828-.029-.7.009-1.421.026-2.121.014-.562.083-1.12.104-1.68.063-1.659.112-3.312.312-4.965l.442-3.413c.2-1.253.475-2.491.65-3.749l1.82-13.059.702-4.784c.099-.821.16-1.638.286-2.456.128-.829.332-1.65.442-2.483.167-1.267.146-2.56.338-3.827.193-1.276.438-2.542.598-3.827l.624-5.145c.216-1.721.567-3.444.728-5.171.12-1.289.183-2.571.364-3.854.12-.85.327-1.703.39-2.559.093-1.269.046-2.534.182-3.801.089-.831.24-1.675.286-2.509.045-.824.049-1.635.13-2.456l.39-3.62c.112-1.166.17-2.334.364-3.491.126-.755.308-1.514.39-2.276.079-.737.103-1.484.156-2.224.173-2.41.303-4.821.286-7.24.019-.695-.548-1.274-1.248-1.293z"/><path d="M90.615 181.574c-.74.028-1.497.202-2.132.284-3.093.401-6.062 1.358-9.023 2.301-9.628 3.071-18.945 6.989-28.575 10.06-.999.318-2.028.513-3.042.775-1.406.364-2.801.687-4.238.905-.646.099-1.298.206-1.95.259-.864.071-1.57.103-2.288.647-1.236.935-1.94 2.537-2.47 3.93-.536 1.409-1.114 2.888-1.404 4.37-.067.342-.061.718-.13 1.06-.144.716-.348 1.41-.52 2.121-.277 1.147-.675 2.249-.884 3.413-1.07 5.944-1.704 11.946-2.574 17.919-.458 3.141-.838 6.283-1.17 9.438-.168 1.601-.41 3.144-.364 4.758-.093.577.304 1.123.884 1.215s1.129-.302 1.222-.879c.56-1.548.775-3.114 1.04-4.732.515-3.144.869-6.296 1.196-9.464.312-3.025.746-6.017 1.196-9.024l1.326-8.74c.199-1.141.222-2.298.416-3.439a23.82 23.82 0 0 1 .728-3.051c.346-1.137.533-2.31.91-3.439.383-1.147.846-2.611 1.768-3.466.381-.353.637-.197 1.17-.181.245.009.483.035.728.026 1.117-.037 2.19-.27 3.276-.516 1.644-.375 3.228-.904 4.81-1.475l5.486-1.94c3.233-1.184 6.405-2.508 9.595-3.8l8.554-3.335c2.958-1.169 5.903-2.272 8.944-3.208 2.067-.635 4.198-1.34 6.344-1.655.73-.105 1.89-.394 2.548.156.761.636.766 2.037.729 2.922-.017.381-.048.757-.078 1.137a41.11 41.11 0 0 1-1.014 6.413.48.48 0 0 0 .39.543c.253.038.483-.161.52-.414.162-2.763 1.06-5.438 1.04-8.222-.008-1.068-.106-2.337-.963-3.103-.547-.491-1.262-.597-2.002-.569z"/><path d="M39.421 197.839c-.076.031-.135.131-.104.207-.031.427-.117.943-.052 1.37.127.829.82 1.492 1.274 2.147.56.806.9 2.07.858 3.05-.05 1.181-.807 2.135-1.066 3.259-.252 1.09-.106 2.258.078 3.361a1.79 1.79 0 0 0 .312.776c.808 1.111 2.186.651 3.302 1.009.345.11.6.279.884.49l.234.182-.312.595-.78 1.861c-.137.415-.299.831-.312 1.267-.022.752.376 1.476.806 2.094 1.4 2.017 3.16 3.812 5.07 5.353.435.352.909.641 1.352.983l3.692 2.999 3.276 2.431c.071.075.185.096.261.026s.07-.184 0-.258l-2.627-3.207-3.406-3.336c-.488-.511-.589-.72-1.066-1.241l-2.158-2.353c-.872-1.024-1.891-2.021-2.548-3.206-.136-.246.006-.553.078-.776.104-.324.241-.64.364-.957.432-1.11 1.004-2.552.312-3.672-.719-1.165-1.953-1.598-3.276-1.655a14.8 14.8 0 0 0-.988 0h-.338c-.017 0-.028.007-.052 0-.06-.38-.147-.755-.13-1.137.017-.366.193-.706.286-1.061.289-1.104.665-2.235.702-3.387.048-1.478-.326-3.017-1.144-4.267-.288-.44-.694-.799-1.014-1.214-.189-.247-.337-.582-.546-.802-.293-.31-.716-.574-1.04-.853-.031-.076-.106-.109-.182-.078zm5.798 15.644c.014.007.029.01.026.025s-.023.016-.026.026c-.002-.011-.015-.059 0-.051zm70.178-23.039a.46.46 0 0 0-.598.233c-.102.223.01.468.233.569 1.039.824 2.117 1.487 3.38 1.939.42.15.885.177 1.301.336.843.323 1.614.833 2.443 1.189l1.275.518c.436.143.888.195 1.326.336 3.021.967 5.956 2.34 8.814 3.697 3.526 1.674 6.933 3.689 9.594 6.568a.46.46 0 0 0 .651 0c.182-.177.179-.465 0-.646-1.592-1.514-3.198-3.016-4.992-4.293-1.471-1.046-3.085-1.925-4.681-2.766-2.862-1.509-5.918-2.538-8.84-3.905-.417-.195-.803-.482-1.222-.672-.413-.187-.847-.313-1.274-.465-.846-.301-1.748-.45-2.574-.802-.406-.173-.745-.483-1.144-.673-1.177-.557-2.418-.936-3.692-1.163zm59.592-1.114c-.717.631-1.227.891-2.053 1.346l-1.664 1.007c-3.148 1.862-6.462 3.483-9.335 5.767-1.394 1.108-2.954 2.651-3.432 4.422-.229.846-.2 1.784-.052 2.637.051.25.295.413.546.362s.414-.293.364-.543c-.705-2.953 1.815-5.182 3.977-6.749 2.076-1.504 4.35-2.722 6.579-3.982 1.174-.664 2.494-1.305 3.537-2.172.644-.536 1.223-1.219 1.819-1.81.083-.077.104-.202.027-.285s-.23-.077-.313 0zm91.108-1.084c-.107.032-.162.151-.129.258.018.538-.055 1.07 0 1.603l.545 4.086.365 3.49.546 3.957.702 7.447c.25 2.116.706 4.225 1.144 6.309.904 4.305 1.99 8.575 3.12 12.825.394 1.482.827 2.953 1.17 4.449l2.028 9.153c.52 2.322 1.234 4.6 1.82 6.904l2.523 10.421c.366 1.532.829 3.045 1.196 4.577.805 3.372 1.729 6.697 2.574 10.059l2.47 9.619c1.162 4.175 2.224 8.355 3.25 12.567l1.768 7.627c.59 2.331 1.297 4.618 1.95 6.93.32 1.135.591 2.22.754 3.388.099.477.561.77 1.04.673s.801-.559.702-1.035c-.427-1.552-.637-3.121-.91-4.706-.336-1.951-.692-3.915-1.144-5.844-1.11-4.739-2.514-9.401-3.718-14.118l-5.148-20.092-5.486-20.531c-.583-2.304-1.054-4.64-1.691-6.93-1.141-4.103-2.453-8.203-3.276-12.386-.815-4.144-1.836-8.246-2.678-12.386-.527-2.59-.866-5.218-1.378-7.809-.389-1.967-.868-3.885-1.17-5.869-.272-1.788-.42-3.585-.624-5.379-.133-1.171-.366-2.328-.546-3.491-.209-1.35-.329-2.824-.729-4.137-.161-.531-.49-1.03-.779-1.5-.033-.107-.152-.162-.261-.129zm-61.336-15.025c-.982.034-2.075.347-3.016.621-1.887.548-2.276 2.575-.832 3.801.419.5 1.161.572 1.664.155.427-.354.466-.92.234-1.396.012-.016.011-.04.026-.052.076-.065.17-.112.26-.155.415-.199.904-.234 1.352-.285.668-.076 1.281-.27 1.95-.336.535-.054 1.076.004 1.612.026.606.025 1.213-.052 1.821-.052 1.011 0 2.057.124 3.067.181 4.132.233 8.294.887 12.351 1.681 5.649 1.105 11.126 2.619 16.589 4.421 2.16.713 4.143 1.822 6.267 2.612.994.371 2.016.594 3.042.854 1.011.256 1.98.495 3.016.646 2.123.31 4.304.593 6.448.698.751.037 1.39.005 2.132.155.858.173 2.008.298 2.444 1.19a.46.46 0 0 0 .572.31c.246-.07.383-.324.312-.569-.265-1.704-2.287-2.193-3.718-2.457-.515-.095-1.017-.273-1.534-.361-.564-.097-1.147-.095-1.716-.156-2.536-.271-5.115-.38-7.619-.904-1.734-.364-3.389-1.146-5.018-1.811-2.722-1.111-5.448-2.263-8.243-3.18-6.247-2.052-12.688-3.601-19.188-4.603-2.332-.36-4.693-.702-7.047-.879-1.616-.121-3.247-.178-4.861-.104-.794.038-1.578-.078-2.367-.051zm-2.054 2.689c.027-.008.057.071.078.233.005.039-.019.068-.026.103-.021-.031-.001-.073-.026-.103-.058-.133-.053-.225-.026-.233z"/><path d="M265.501 187.416c-.248.063-.376.297-.312.543.277 2.748-1.807 4.637-3.615 6.413-1.448 1.423-2.817 2.903-3.822 4.68-.869 1.537-.789 3.258-.286 4.888.232.75.588 1.502.728 2.275.045.249.03.498.052.75.019.212.077.435.052.646-.031.265-.167.493-.234.75-.074.286-.09.598-.182.879-.234.719-.731 1.428-1.118 2.069l-2.678 3.983-1.17 1.731-2.678 3.207c-.821 1.032-1.481 2.174-2.184 3.284-.882 1.388-1.761 2.722-2.341 4.266-.161.375.014.823.39.983s.827-.014.989-.388c.663-1.348 1.484-2.639 2.443-3.801l2.523-2.922 2.522-3.362 1.378-1.602 1.222-1.681c1.126-1.546 2.322-3.211 2.938-5.043.241-.717.472-1.467.494-2.224.02-.678-.16-1.36-.338-2.016-.506-1.87-2.011-3.869-.962-5.845a12.91 12.91 0 0 1 1.326-2.042c2.311-2.872 7.19-5.825 5.434-10.11-.063-.247-.323-.374-.571-.311zm-150.808 55.622c-.037.039-.014.119.025.155.786 1.274 1.676 2.273 2.965 3.077.598.374 1.303.569 1.949.853l1.873.905 1.95.724c.329.12.641.312.987.362.379.055.789-.035 1.171-.051.004-.009.009-.023 0-.026-.268-.271-.492-.611-.806-.827-.285-.198-.645-.273-.962-.414l-2.756-1.319c-.309-.141-.665-.198-.962-.362-.584-.323-1.064-.798-1.639-1.138l-3.64-1.939c-.039-.036-.12-.039-.155 0zm-8.244-107.363c-.111.064-.143.2-.079.31.201 1.082.51 2.204.546 3.31.044 1.361-.251 2.662-.39 4.008-.28 2.723-1.064 5.386-1.898 7.99l-1.924 5.507c-.761 1.893-1.669 3.778-2.756 5.508-.383.61-.794 1.241-1.3 1.758-.054.056-.121.103-.181.156.003-.025-.003-.053 0-.078.047-.341.123-.674.208-1.009a32.44 32.44 0 0 0 .884-5.275l.104-1.267.052-1.266c.01-.351-.271-.637-.624-.647s-.667.244-.677.595l-.13 2.456-.858 5.172c-.071.604-.406 2.074.104 2.56.773.736 1.797-.287 2.288-.853 1.306-1.509 2.173-3.452 2.99-5.25 1.972-4.339 3.602-8.813 4.498-13.498.247-1.287.602-2.565.676-3.878.064-1.128.033-2.236-.026-3.362-.036-.711-.135-1.533-.494-2.172-.162-.289-.433-.485-.676-.698-.064-.11-.228-.142-.337-.077zm-26.675-22.729c-.281.006-.5.238-.494.518-.071.359-.192.72-.208 1.086-.03.698.145 1.372.208 2.069.181 1.982.723 3.815 1.456 5.662.69 1.738 1.635 3.274 2.653 4.836 3.049 4.679 7.229 8.454 10.608 12.877 1.5 1.964 2.761 4.008 3.666 6.309.508 1.291.886 2.646.858 4.034.032.253.266.419.52.388s.448-.264.416-.518c-.379-1.391-.567-2.808-1.014-4.188-.429-1.327-1.077-2.593-1.767-3.801-3.173-5.557-8.136-9.764-11.649-15.076-.486-.734-.85-1.545-1.3-2.301-1.061-1.78-1.874-3.655-2.392-5.663-.232-.898-.463-1.828-.624-2.741-.114-.646-.069-1.314-.156-1.965-.047-.352-.174-.689-.26-1.034-.006-.28-.239-.497-.52-.492z"/><path d="M84.349 92.079c-4.044 4.017-7.276 8.376-8.997 13.86-.617 1.97-1.002 4.158-.962 6.231.04 2.031.465 4.046 1.43 5.845.383.713.775 1.642 1.768 1.5.409-.06.687-.468.832-.802.307-.708.541-1.457.832-2.172 1.089-2.677 2.457-5.145 4.446-7.267a.77.77 0 0 0-.052-1.085.78.78 0 0 0-1.092.051c-1.942 2.167-3.371 4.586-4.525 7.24-.236.543-.446 1.084-.676 1.629-.07-.126-.141-.253-.208-.388-.546-1.098-.867-2.302-1.014-3.516-.484-3.998.852-7.938 2.6-11.48 1.648-3.341 3.584-6.387 6.266-9a.45.45 0 0 0 0-.646.46.46 0 0 0-.65 0zm26.834-7.107c-.291.294-.662.702-1.014.93-.933.607-2.159 1.101-3.199 1.5l-4.992 1.655c-5.064 1.299-10.358 1.517-15.496.569a22.6 22.6 0 0 1-3.589-.957c-2.002-.722-3.817-1.752-5.616-2.87-.339-.245-.82-.182-1.066.155s-.183.816.156 1.06c1.98 1.632 4.33 2.618 6.787 3.31 4.136 1.165 8.472 1.364 12.74.905 1.609-.173 3.209-.43 4.784-.802 1.536-.362 3.045-.827 4.525-1.37 1.402-.516 2.734-1.226 4.03-1.965.412-.235.786-.536 1.196-.776.24-.14 1.018-.483 1.274-.594a.47.47 0 0 0 .13-.647c-.145-.209-.439-.247-.65-.103z"/><path d="M87.912 80.03c-.201-.159-.491-.122-.65.077l-.572.776c-.557.581-1.345 1.01-2.029 1.422-1.348.812-2.721 1.508-4.238 1.965l-1.976.517c-.318.07-.658.063-.962.181-.324.125-.609.343-.91.516-.235.032-.395.258-.364.492s.259.394.494.362c.353.085.702.248 1.066.258.359.011.691-.099 1.04-.18.357-.084.716-.2 1.066-.311a18.58 18.58 0 0 0 2.106-.801c1.192-.54 2.378-1.122 3.406-1.94.975-.775 1.767-1.773 2.6-2.689a.46.46 0 0 0-.078-.646z"/><path d="M80.605 79.382c-.457-.146-.946.089-1.092.543s.09.941.547 1.086l3.64-.31c1.027-.112-2.047.245-3.042.517-.206.056.389.115.597.156.267.051 1.003.122 1.275.129 1.028.028 2.152-.079 3.146-.336a4.28 4.28 0 0 0 .572-.181c.194-.08.782-.311.572-.31-2.251.012-.003-.002.52-.31.073-.021.099-.083.077-.155s-.082-.125-.156-.104l-3.328-.362c-.914-.122 1.82.243 2.73.388.195.031-.401-.05-.597-.052-.191-.002-.383.02-.572.026-1.147.041-2.209-.054-3.328-.309l-.52-.13-.52-.129c2.047.163.008.007-.52-.155z"/><path d="M114.25 36.253a.47.47 0 0 0-.65.103c-.178.431-.317.886-.546 1.293-.432.77-1.053 1.416-1.586 2.12l-2.262 3.052-5.174 7.654-2.913 4.422c-3.192 4.801-6.545 9.543-10.322 13.911-1.702 1.969-3.444 3.916-5.304 5.741-1.481 1.452-3.091 2.767-4.525 4.266-.26.227-.306.62-.077.879s.623.279.884.052c2.939-2.127 5.467-4.853 7.957-7.473 5.793-6.098 10.316-13.136 14.691-20.273l2.262-3.801 3.822-5.999 2.054-3.258c.245-.372.433-.778.728-1.112.309-.35.716-.621 1.067-.931.148-.208.104-.499-.105-.646zm14.874-16.808c-5.398.296-10.779 2.001-15.367 4.836-3.093 1.91-5.844 4.308-8.373 6.904-1.468 1.507-2.911 3.059-4.186 4.732-3.51 4.607-6.123 10.064-7.93 15.541-.815 2.471-1.348 5.017-1.794 7.576-.349 1.999-.607 3.944-.547 5.973a.64.64 0 0 0 .598.673.64.64 0 0 0 .676-.595c.374-2.423.505-4.865 1.04-7.266.547-2.453 1.335-4.902 2.185-7.266 1.75-4.87 4.256-9.338 7.254-13.55 1.184-1.663 2.423-3.265 3.822-4.758 3.054-3.26 6.712-5.942 10.687-7.99 1.725-.889 3.538-1.684 5.408-2.224 3.174-.916 6.379-1.244 9.673-1.163 1.055.026 2.148-.019 3.197.103 1.39.162 2.741.451 4.135.595.166.043.347-.041.39-.207s-.068-.345-.234-.388c-.569-.239-1.044-.446-1.638-.621-1.084-.318-2.22-.446-3.328-.646-1.899-.344-3.746-.364-5.668-.259zm-17.76 65.937c-.105-.031-.204.024-.234.129l-3.016 5.533c-1.176 1.744-2.653 3.172-4.16 4.629-.258.209-.314.597-.105.853a.62.62 0 0 0 .859.078c2.821-1.918 4.793-4.647 6.11-7.757.144-.34.333-.656.442-1.009.27-.875.227-1.32.26-2.223.03-.105-.05-.203-.156-.233zm10.816 4.42c-2.816 2.165-5.869 3.657-9.282 4.681-1.464.439-2.976.656-4.446 1.06-.954.261-1.871.629-2.783 1.009.996.078 2 .149 2.991.026 1.531-.191 3.059-.703 4.524-1.164 3.444-1.085 6.81-2.63 9.204-5.404.059-.055.056-.148 0-.207s-.149-.056-.208 0zm26.289-68.365c-.377.121-.84.24-1.197.414-1.55.755-2.818 2.201-3.848 3.543-2.737 3.566-3.854 8.117-4.55 12.463-.138.86-.313 2.182-.39 3.052-.132 1.489-.085 2.932-.078 4.421.006 1.341-.1 2.668.052 4.008.087.773.277 1.547.468 2.301.016.196.192.326.39.31s.354-.191.338-.388c.078-.872.134-1.392.156-2.276.033-1.305-.086-2.626-.026-3.93.066-1.431.254-2.865.39-4.292.306-3.223.816-6.375 1.794-9.464.734-2.318 1.587-4.645 3.094-6.594.971-1.255 2.328-2.255 3.64-3.129.128-.061.166-.209.104-.336s-.21-.164-.337-.103zm9.359 1.835c-.943.053-1.82.339-2.704.646-.135.03-.213.176-.182.31s.151.211.285.181a19.02 19.02 0 0 1 6.969.569c1.568.429 3.045 1.043 4.577 1.577l4.471 1.448c1.159.362 2.504.21 3.693.129 2.031-.139 4.182-.43 6.188.026.724.165 1.456.534 2.106.879 1.544.82 2.964 1.865 4.264 3.025 3.2 2.857 5.889 6.101 8.009 9.826.269.461.863.63 1.325.361s.608-.857.339-1.318c-1.321-2.208-2.906-4.141-4.655-6.025-1.942-2.094-4.043-3.939-6.422-5.534-1.215-.815-2.492-1.537-3.848-2.094-.272-.112-.546-.242-.832-.31-2.294-.55-4.682.064-6.995.233-.926.067-1.98.164-2.886-.104-2.85-.841-5.539-2.073-8.372-2.974-1.699-.54-3.535-.954-5.33-.853zm40.015 20.454c-.288.142-.402.514-.259.801 3.146 6.525 3.681 13.822 4.394 20.92.215 2.151.387 4.324.702 6.464.135.92.446 1.795.571 2.716.203 1.47.319 2.933.599 4.395.062.325.08.667.182.983.673 2.104 1.786 4.097 2.704 6.102.108.29.437.444.728.337s.42-.435.312-.724l-1.43-4.758c-.169-.505-.371-.989-.52-1.5-.157-.534-.202-1.11-.312-1.655-.118-.58-.225-1.157-.365-1.732-.208-.866-.525-1.703-.649-2.587-.083-.582-.06-1.172-.104-1.758-.07-.923-.212-1.847-.312-2.767l-1.249-10.214c-.683-5.102-1.854-10.123-4.211-14.739-.143-.288-.492-.427-.781-.285z"/><path d="M203.304 83.495c-.525-.165-1.107.125-1.274.647s.125 1.1.65 1.267l2.236.595c.504.141-1.013-.282-1.533-.337-.239-.025.443.2.675.259.509.129 1.031.136 1.534.285l.754.258c-1.224-.341-.006.001.781.156a.46.46 0 0 0 .597-.259c.093-.237-.021-.502-.259-.595-2.091-1.13-1.108-.724-2.081-1.138-.491-.208.948.494 1.43.724.23.11-.46-.228-.676-.362-.459-.286-.807-.71-1.274-.983-.239-.139-1.01-.464-.78-.31 1.1.735.005 0-.78-.207z"/><path d="M202.241 84.269c-.142-.027-.284.064-.311.207-1.158 3.419-.815 7.157-.053 10.628.15.682.379 1.219.572 1.887.451 1.557.818 3.142 1.248 4.705.63 2.285 1.38 4.502 1.742 6.853.619 4.002-.044 8.34-2.288 11.765-.557.851-1.267 1.604-1.923 2.379-.459.52-.393 1.329.129 1.785s1.311.389 1.768-.13c.97-1.06 1.771-2.212 2.471-3.465 2.806-5.026 1.959-10.599.52-15.903-.336-1.237-.625-2.474-1.015-3.697-.488-1.532-1.079-3.038-1.456-4.603-.509-2.121-1.018-4.342-1.222-6.516-.175-1.88-.076-3.707.026-5.585.028-.142-.065-.283-.208-.31z"/><path d="M194.646 103.251c-.226.047-.41.181-.547.388-.273.416-.157.97.261 1.242 3.244 2.306 5.775 5.616 7.28 9.283.431 1.049.817 2.113 1.014 3.232.325 1.843.27 4.481-1.248 5.818-.169.192-.167.479.026.647s.508.139.676-.052c.432-.626.947-1.185 1.248-1.888 1.835-4.278-.751-9.537-2.938-13.11-1.317-2.151-2.874-4.114-5.071-5.43a.96.96 0 0 0-.701-.13zm-4.627 14.118a.47.47 0 0 0-.624.207c-.315.858-.666.934-1.3 1.5-.934.834-2.038 1.414-3.172 1.939-.91.421-1.73.684-2.522 1.319-.26.065-.402.31-.338.569s.312.427.572.362c.256.041.521.128.781.129.679.003.929-.17 1.533-.439 1.335-.594 2.424-1.382 3.459-2.405.291-.289.644-.529.858-.879.14-.232.205-.513.337-.75.183-.327.421-.618.624-.931.116-.228.021-.506-.208-.621z"/><path d="M184.895 99.422c-.102.039-.169.157-.13.259l1.196 4.654.546 2.017c1.181 5.551.925 12.197-4.394 15.489-.216.137-.269.432-.13.646s.409.268.624.13c.934-.615 1.854-1.309 2.6-2.146 3.46-3.885 3.173-9.548 2.21-14.3-.116-.571-.27-1.528-.416-2.095-.4-1.551-1.065-3.128-1.846-4.525-.038-.101-.158-.167-.26-.129zm9.205 20.997c-.148-.069-.321-.018-.39.13-.419 1.072-.917 2.137-1.196 3.257-1.008 4.057-.537 8.583 1.742 12.153a12.94 12.94 0 0 0 2.34 2.742c.232.204.459.416.728.568s.565.228.859.337a.42.42 0 0 0 .571-.13c.121-.19.063-.449-.129-.568-.618-.606-1.311-1.053-1.951-1.63-.614-.552-1.127-1.177-1.586-1.862-1.774-2.645-2.362-5.789-2.262-8.92.062-1.955.459-3.965 1.405-5.689.068-.148.018-.319-.131-.388z"/><path d="M187.367 121.791c-.25-.044-.502.113-.546.361l-1.015 5.638c-.206 1.789-.248 3.642.416 5.352.413 1.059 1.101 1.968 1.847 2.818 1.65 1.881 3.787 3.695 6.188 4.525 1.056.365 2.261.574 3.329.13.658-.274 1.25-.927 1.715-1.448.123-.224.043-.499-.182-.621s-.501-.043-.624.181c-.061.24-.101.535-.234.75-.605.975-2.347.79-3.224.517-2.46-.765-4.642-2.701-6.266-4.628-.656-.778-1.286-1.625-1.638-2.586-.952-2.592-.185-5.496.26-8.093l.338-2.38a.44.44 0 0 0-.364-.516zm16.925-.671c-.22.129-.285.401-.155.62.734 1.738 1.574 3.365 1.742 5.275.11 1.252-.021 2.542-.234 3.775-.989 5.721-4.983 10.695-8.372 15.231l-4.551 6.025c-2.143 2.935-4.13 5.963-6.085 9.024-.793 1.243-1.407 2.56-2.002 3.905-1.035 2.341-1.892 4.73-2.417 7.24-.343 1.64-.486 3.321-.573 4.99-.149 2.882-.021 5.751.547 8.585 1.177 5.884 3.702 11.383 6.838 16.472.322.522 1.009.683 1.534.362s.687-1.004.364-1.526c-3.673-5.932-6.357-12.005-7.125-18.979-.175-1.597-.258-3.204-.155-4.81.232-3.644 1.24-7.344 2.652-10.705 1.603-3.817 3.864-7.336 6.214-10.731 4.803-6.937 10.65-13.513 13.573-21.54.49-1.346.895-2.71 1.066-4.137.362-3.028-.319-6.49-2.211-8.921-.129-.22-.428-.284-.65-.155z"/><path d="M177.979 151.397c-.208-.103-.468-.026-.571.182-.506.636-1.266 1.557-1.664 2.275-.636 1.144-1.06 2.473-1.509 3.697-.727 1.985-1.353 3.963-1.82 6.026-.844 3.729-1.253 7.582-.91 11.403.132 1.466.417 2.902.702 4.344.213 1.072.396 2.176.78 3.206.512 1.371 1.106 2.768 1.846 4.034.387.662.815 1.264 1.223 1.913 1.705 2.716 3.723 5.207 6.005 7.473a45.47 45.47 0 0 0 5.019 4.293c.373.276.699.63 1.092.878.404.257.872.432 1.3.647.082.06.2.029.26-.052s.03-.198-.052-.258c-.333-.339-.63-.696-.988-1.008-.346-.302-.765-.536-1.118-.828-1.011-.835-1.99-1.732-2.964-2.611-1.521-1.374-2.962-2.895-4.264-4.474-2.58-3.128-4.536-6.72-5.747-10.576-.418-1.331-.946-2.602-1.196-3.982-.709-3.909-.587-7.895.13-11.791.501-2.721 1.326-5.44 2.34-8.016.472-1.198 1.117-2.336 1.56-3.543.317-.863.499-1.774.728-2.663.104-.207.027-.466-.182-.569zm5.669 20.506c-.228-.087-.485.031-.572.258s.006.482.234.569c.423.256.828.564 1.274.776 1.289.614 2.791.87 4.161 1.241 2.28.618 4.681 1.055 7.045 1.215.973.066 1.965-.059 2.939-.051.491.004.966.087 1.456.129.256.006.462-.185.468-.44s-.186-.485-.442-.491c-.488.018-.969.085-1.456.052-.952-.065-1.888-.317-2.834-.44l-6.839-1.241c-1.364-.344-2.645-.946-4.003-1.293-.473-.121-.951-.197-1.431-.284zm-28.315-84.065a.29.29 0 0 0-.39.103c-.077.134-.031.312.104.388.522.517 1.042 1.071 1.664 1.474 1.097.712 2.417 1.069 3.666 1.397l3.25.75 8.606 1.448c4.761.796 9.69 1.807 13.859 4.37 1.044.641 1.845 1.504 2.704 2.353.548.541 1.185.947 1.768 1.448-.19-.798-.319-1.564-.806-2.249-.591-.832-1.465-1.545-2.262-2.172-1.74-1.37-3.567-2.384-5.668-3.103-5.246-1.795-10.756-2.515-16.173-3.594-1.594-.317-3.199-.651-4.758-1.111-1.167-.344-2.323-.779-3.511-1.06-.688-.163-1.365-.271-2.053-.44zM146.78-.156c-4.784-.32-9.711-.011-14.326 1.345-5.57 1.636-11.037 5.112-12.143 11.196a14.95 14.95 0 0 0-.182 3.956c.122 1.385.251 2.329.885 3.594.146.445.618.689 1.065.543s.693-.641.546-1.086c-.355-2.115-1.123-3.988-.858-6.18.889-7.353 8.966-10.565 15.341-11.636 1.444-.243 2.882-.345 4.342-.414 2.656-.125 5.337-.094 7.983.207.906.103 1.801.281 2.704.414s1.808.2 2.704.388c1.333.28 2.654.658 3.978.983.877.215 1.777.372 2.652.595 1.279.326 2.557.793 3.796 1.241 2.354.852 4.639 1.895 6.786 3.181 4.124 2.467 8.531 6.116 9.284 11.145.202 1.357.047 2.7-.183 4.034a9.74 9.74 0 0 1-1.3 3.387c-.119.225-.044.528.182.646s.504.018.624-.207c.236-.526.544-1.027.78-1.552a13 13 0 0 0 1.092-4.525c.113-1.939-.586-3.882-1.43-5.585-1.968-3.969-5.735-6.804-9.542-8.921-3.096-1.722-6.363-2.971-9.699-4.137-1.325-.464-2.601-.887-3.978-1.19-.914-.201-1.859-.314-2.782-.465s-1.828-.416-2.756-.543c-1.827-.25-3.725-.291-5.565-.414z"/><path d="M167.942 90.914l-5.824 2.017c-2.347.949-4.604 2.184-6.683 3.621-.355.245-.712.496-.988.828-.29.349-.412.813-.702 1.163-.125.151-.29.263-.442.387-.181.131-.235.363-.104.544s.391.234.572.103c.163-.103.312-.249.494-.31.224-.076 1.049-.083 1.275-.13.58-.119 1.119-.441 1.664-.646l3.639-1.189c2.843-.96 5.537-2.247 8.295-3.413a1.61 1.61 0 0 0 .884-2.094c-.33-.818-1.258-1.208-2.08-.88zm-48.387.311c-.491.175-.904.527-1.145 1.034-.48 1.014-.056 2.237.963 2.715l4.524 1.681 4.317 2.069 2.288.854c.375.161.706.382 1.091.517.402.14.835.212 1.248.311.222.127.496.039.624-.182s.066-.493-.155-.62l-.885-.931c-.619-.532-1.341-.959-1.976-1.474-1.907-1.547-4.049-2.711-6.162-3.956l-3.172-1.94a2.05 2.05 0 0 0-1.56-.078zm31.591 39.696c-.258-.253-.683-.231-.936.025-1.431 1.09-2.552 2.538-4.057 3.543-.658.441-1.468.846-2.235 1.06-2.392.666-4.036-.505-5.695-2.069-.771-.727-1.451-1.425-2.054-2.301-.112-.162-.332-.215-.494-.104s-.216.33-.103.492c.695 1 1.341 2.111 2.209 2.974 1.254 1.244 3.242 2.365 5.071 2.301 1.128-.039 2.316-.402 3.301-.931.898-.482 1.815-1.035 2.601-1.681.89-.732 1.701-1.456 2.392-2.379a.66.66 0 0 0 0-.93zm24.858-32.144a1.4 1.4 0 0 0-.884.621c-.247.243-.522.544-.806.75-.251.182-.536.302-.781.491-.328.255-.302.304-.624.569-.332.273-.73.446-1.091.672-.992.621-2.051 1.067-3.225 1.267-.737.126-1.492.08-2.235.156-.388.039-.758.131-1.145.18l-1.767.156c-.788.095-1.544.317-2.315.491-1.111.25-2.25.421-3.302.879-1.816.792-3.209 2.496-3.849 4.344-.238.688-.387 1.398-.442 2.121-.055.248.115.487.365.543s.49-.088.546-.336c.167-.425.276-.894.441-1.319.486-1.245 1.331-2.411 2.497-3.103 1.203-.714 2.624-1.198 4.03-1.267.731-.036 1.453.054 2.184.051l1.742-.025 1.196.077c.807-.016 1.614-.214 2.418-.284l1.222-.052c1.003-.095 2.153-.256 3.12-.569.637-.205 1.208-.579 1.768-.931.422-.263.773-.461 1.119-.827.652-.692 1.034-1.684 1.352-2.56.41-.666.202-1.532-.469-1.94a1.39 1.39 0 0 0-1.065-.155z"/><path d="M176.551 98.984c-1.041-.193-2.042.49-2.236 1.526.046 1.011-.091 1.966-.208 2.973-.153 1.305-.258 2.69-.624 3.956-.149.514-.423.959-.573 1.474l-.234.982c-.299.762-1.077 1.462-1.768 1.862-.238.094-.354.358-.259.595a.46.46 0 0 0 .597.259c1.335-.336 1.817-.856 2.757-1.784.46-.455.897-.833 1.195-1.422.192-.377.304-.801.469-1.19.726-1.711 1.349-3.423 1.819-5.223.161-.612.341-1.206.599-1.785.194-1.035-.493-2.03-1.534-2.223zm-65.863 2.066a1.37 1.37 0 0 0-.728.749c-.277.695.082 1.483.781 1.759 1.492.571 2.989 1.298 4.576 1.577 1.269.223 2.612.366 3.9.413 1.711.064 3.385.004 5.044.441 1.054.277 2.084.477 2.991 1.137.975.711 1.704 1.64 2.391 2.612.537.759.759 1.069.988 1.991.094.237.386.351.624.259s.354-.359.26-.595c-.394-.713-.605-1.448-.962-2.172-.474-.963-1.294-1.994-2.158-2.638-1.086-.809-2.427-1.647-3.744-2.017-.385-.108-.779-.148-1.17-.232l-2.938-.621-2.444-.388c-.756-.175-1.488-.467-2.236-.673l-.573-.154c-.024-.006-.036.01-.077 0l-3.485-1.448c-.349-.139-.72-.138-1.04 0z"/><path d="M111.285 103.431c-.648-.016-1.206.493-1.222 1.138 1.487 3.775.767 2.404 1.508 3.775.544 1.006-.88-2.148-1.508-3.103-.134-.203-.06.507-.052.75.016.476.13.932.234 1.396.256 1.138.669 2.276 1.378 3.206l.416.57c.138.183.482.762.416.543-.716-2.406-.003.008.598.413.138.215.409.267.624.129s.294-.406.156-.62l-.182-.853c-.051-.104-.106-.275-.156-.414l-.181-.595c-.271-1.135-.681-2.21-.781-3.388l-.026-.568c-.023-.19-.146-.756-.104-.569.484 2.126.003-.006.026-.62.016-.645-.496-1.174-1.144-1.19zm2.366 7.344c.02.04.088.211.079.154l-.599-2.818c.062 1.05.234 1.472.52 2.664zm52.368 31.572c-1.003.464-1.751 1.361-2.704 1.94-1.893 1.149-3.942 2.305-6.084 2.922-1.652.475-3.212.505-4.914.542-1.355.031-2.8.205-4.134.441-1.245.22-2.331.926-3.563 1.214-.346.081-.726.252-1.091.182-1.057-.204-1.972-1.029-3.069-1.112-.387-.03-.915.109-1.248.155l-2.522.414c-2.697.466-5.65 1.125-8.398 1.008-1.101-.047-2.092-.1-2.782-1.06-.163-.197-.453-.214-.651-.052s-.24.45-.077.647c1.193 1.28 3.02 1.438 4.68 1.344 2.487-.141 4.927-.604 7.384-.982l2.497-.362c.391-.058.863-.193 1.273-.077.703.197 1.207.769 1.847 1.085.575.285.952.336 1.586.363.825.034 1.625-.346 2.392-.595 1.161-.378 2.423-.771 3.64-.906 2.008-.221 4.048-.019 6.058-.335 2.908-.459 5.633-1.961 7.957-3.698.901-.674 2.082-1.27 2.678-2.25.228-.207.26-.549.052-.776s-.578-.259-.807-.052zm-12.272 9.801a.68.68 0 0 0-.52.129c-1.011.488-2.081 1.047-3.171 1.344-2.891.789-6.34.906-9.283.517l-2.601-.465a.43.43 0 0 0-.545.311c-.064.245.065.504.312.568 3.539 1.159 6.885 1.364 10.582 1.009 1.452-.139 3.011-.167 4.29-.957.492-.303.848-.757 1.248-1.163.325-.234.418-.686.183-1.009-.118-.161-.311-.255-.495-.284zm7.205-43.686c0-2.057 1.799-3.725 4.018-3.725s4.019 1.668 4.019 3.725-1.8 3.724-4.019 3.724-4.018-1.668-4.018-3.724zm-43.575 0c0-2.057 1.58-3.725 3.529-3.725s3.53 1.668 3.53 3.725-1.58 3.724-3.53 3.724-3.529-1.668-3.529-3.724z"/></g></g><defs><radialGradient id="A" cx="0" cy="0" r="1" gradientUnits="userSpaceOnUse" gradientTransform="translate(169.189 124.57) scale(15.1603 14.8865)"><stop stop-color="#dea88e"/><stop offset="1" stop-color="#f5e8d6"/></radialGradient><radialGradient id="B" cx="0" cy="0" r="1" gradientUnits="userSpaceOnUse" gradientTransform="translate(117.363 123.989) scale(12.5623 13.5994)"><stop stop-color="#dea88e"/><stop offset="1" stop-color="#f5e8d6"/></radialGradient><clipPath id="C"><path fill="#fff" d="M0 0h322v270H0z"/></clipPath></defs></svg>