<svg xmlns="http://www.w3.org/2000/svg" width="127" height="152" fill="none"><g clip-path="url(#D)"><path d="M89.284 82.237l.151 13.402-2.941 10.042-7.285 3.574-8.191-4.072-5.113-14.655L53.92 71.265s3.046-1.463 5.272-3.056 3.414-3.039 3.414-3.039l16.386-27.592 6.226.333 26.973-6.737 1.293 11.677c-.074.405-2.163 5.812-2.163 5.812s.374 2.221.881 3.986 1.714 2.236 1.551 3.105c-.282 1.506-2.75 2.907-2.75 2.907s-2.02.396-2.183 1.147c-.366 1.684.41 1.625.479 3.288.027.657-.604 1.792-.998 2.568l-2.549.24-3.671-.843s.069 1.216 1.604 2.205c1.035.667 4.171.943 4.171.943l-1.82 6.812s-1.081.761-2.163.628c-3.689-.454-9.805-1.868-9.805-1.868s-2.622.035-4.876 1.051-4.689 2.803-4.689 2.803.871 1.53 2.007 2.892 2.775 1.709 2.775 1.709z" fill="#f5e8d6"/><path d="M98.457 62.705s-1.216 3.62-2.886 5.96-3.793 3.402-3.793 3.402l-1.954-1.263 4.904-3.881 3.728-4.218z" fill="#e3caba"/><path opacity=".694" d="M99.489 45.178s5.85 1.749 8.366 3.7 2.602 3.052 2.144 5.743-1.846 5.455-4.908 6.221-10.426.77-10.426.77-1.672-6.526-.856-10.054 5.681-6.38 5.681-6.38z" fill="url(#A)"/><path opacity=".698" d="M85.76 47.592s.596-2.564-.233-4.562-1.308-3.109-3.081-3.429-3.169.087-4.012 2.15.523 3.944.697 6.703-.621 2.795 0 4.331S81.56 54 81.56 54l.072 1.903s2.242.528 3.427-.489 1.311-3.579 1.311-3.579l.872-4.417-1.483.174z" fill="url(#B)"/><path d="M53.937 70.379c1.697-.21 6.304 5.149 9.983 11.826s4.814 15.27 4.814 15.27 2.074 6.566 5.583 8.302 6.84 2.07 8.854.173c3.503-3.299 4.575-5.844 4.896-13.233.264-6.078-.343-11.288-.343-11.288s1.442.759 4.82 1.838 6.901-.603 8.693 2.478c3.264 5.612 2.103 16.725 2.103 16.725s.4 9.868-.206 13.976c-.95 6.452-.773 12.697-.773 12.697l-3.221-.156-19.79 9.466-28.893-2.905-25.402-3.531s-22.647-.363-22.419-2.524c.187-1.772 7.82-16.121 14.556-28.81s11.044-22.739 13.72-23.19c5.841-.985 18.509-6.555 23.026-7.113z" fill="#c46b57"/><path d="M49.417 104.148c.559 3.181 1.243 5.169-.76 9.856-2.198 5.143-7.167 7.737-2.267 13.042s12.803 7.335 21.864 8.177c8.817.819 11.416-.352 12.675 0 1.74.485-5.14 1.922-5.14 1.922s-17.086-1.35-22.703-2.764-10.553-3.638-10.553-3.638l-8.895-2.772 4.579-6.25 7.319-13.422.886-2.81s2.436-4.523 2.995-1.341z" fill="#a05b52"/><path d="M2.631 133.024c.398-3.435 3.312-5.739 3.312-5.739s1.651-.995 4.905-1.218 4.574.041 7.545.42 4.573 1.356 4.573 1.356 3.976-1.05 9.117-.203 13.728 5.004 24.633 7.44 14.933 2.109 17.732 1.989c4.701-.203 8.599-4.251 8.599-4.251s5.049-6.529 6.002-7.266c1.484-1.148 7.785-3.43 11.74-5.075 3.46-1.439 2.066 2.434 2.066 2.434l-5.656 4.632 2.392 1.71s5.529-.278 9.552-.187 4.526-.067 6.538.553 2.036 2.517.33 2.87c-1.668.345-7.872 2.193-7.872 2.193l.671 1.059s3.813.113 4.549.944.509 1.81-.119 2.772-5.194 1.615-5.194 1.615 1.803 2.155.682 3.655-3.936 2.009-3.936 2.009.161 1.265-.448 2.174c-.626.933-3.27 1.847-4.367 1.805-24.24-.931-91.993-1.024-91.993-1.024s-5.095-2.706-6.403-7.014.65-6.218 1.048-9.653z" fill="#f5e8d6"/><g fill="#e3caba"><path d="M1.104 139.08l5.998 4.625s7.599-.756 15.162-.367 12.765 1.914 23.557 1.914l53.595.123 9.865-2.263s.077 1.264-1.425 2.268-4.586 1.748-4.586 1.748 2.085-.399 1.775.501-3.014 3.1-3.014 3.1l-79.117-1.266-13.559-.217-1.504.499s-2.828-1.66-4.65-4.185-2.097-6.48-2.097-6.48zm112.434-1.082l-9.08 2.208-.427 1.165s5.085-.633 7.461-1.476 2.046-1.897 2.046-1.897zm-9.506-2.251s-.099-1.599 3.26-2.771 10.924-2.682 10.176-1.917c-2.022 2.067-13.436 4.688-13.436 4.688zm-1.047-14.552s-3.651 3.261-6.166 4.815-3.892 1.399-3.892 1.399l3.711 1.049 1.566.034-1.044-1.028 3.694-2.831 1.976-2.32.154-1.118zM81.074 54.836s-1.096 9.187-.569 15.132 2.675 8.647 2.675 8.647 3.909-2.949 6.627-4.2 4.243-.806 4.243-.806l-3.826-2.549-6.032-5.969-2.522-9.563-.596-.692z"/></g><path opacity=".593" d="M101.293 144.352c3.07-1.238 3.602-5.271 3.602-5.271s-1.368-2.094-.864-3.858 2.879-3.196 2.879-3.196l-2.831-2.966-11.827.958s-3.961.012-5.89 2.008-3.39 2.979-1.827 5.98 3.893 4.439 8.082 6.025 5.606 1.557 8.676.32z" fill="url(#C)"/><g fill="#e0bd6f"><path d="M99.512 74.955l-5.501-1.463-2.815.339s-.025 4.187 1.456 10.225 1.384 7.659 3.434 11.688 2.323 3.459 4.428 4.221c1.407.51 4.038-1.306 4.038-1.306s-2.12 1.2-3.936-.088-2.564-2.083-3.381-5.922.112-9.434.112-9.434l2.166-8.26zm11.935-25.866s-.511-1.544-.256-4.551 1.268-4.796 1.36-8.16-1.05-5.437-1.05-5.437-5.706 7.366-11.368 12.568c-2.963 2.721.96 13.471-.747 17.303-3.676 8.251-13.049 12.366-13.049 12.366s-2.371 1.702-.828-.683c1.674-2.587 3.474-5.646 3.852-10.268s-1.845-4.483-2.34-8.22.36-6.726.36-6.726l-1.702.214s.334-3.938-.823-5.858c-.836-1.388-1.407-1.973-3.381-1.817s-4.795 1.613-4.795 1.613l1.747 7.332-4.179 7.688-2.164-.151-1.4 4.034-2.408-.683-4.166 5.889s-1.939-.866-3.501-2.298-2.748-3.429-2.748-3.429.228 2.538-.374 4.947-2.036 4.689-2.036 4.689l-.486 1.234s-.664-.184-1.19-.184c-.689 0-3.272.611-6.272 1.434-4.248 1.166-9.271 3.087-9.271 3.087l1.656-4.324s-3.032 1.636-5.371 2.145-5.678-.27-4.107-.475c3.056-.398 7.18-4.936 10.178-11.391 3.008-6.478 3.686-7.511 4.16-17.158.478-9.72.396-21.441.396-21.441s.456-6.07 3.968-11.1 4.748-7.316 10.081-9.02 9.147-1.017 12.387.374 2.107 5.001 2.107 5.001 5.446-.162 14.269-.162c5.149 0 10.557 1.286 16.967 6.704 5.342 4.516 7.494 6.567 10.027 13.294s1.196 9.883.106 13.612c-1.411 4.827-3.609 8.01-3.609 8.01z"/></g><g fill="#b69c65"><path d="M99.206 44.862l-3.953 1.433s-5.698 1.34-4.88.567c.601-.567 2.73-3.994 2.73-5.037s-2.73.864-2.73.864.529-1.263 1.284-4.553l1.738-8.606s.142 2.855-.292 5.449l-.983 5.454 2.544-1.009s.659 1.407.391 2.646-2.535 2.628-1.007 2.619 7.222-2.863 7.222-2.863l-2.064 3.037zM57.919 16.11c1.062-1.88 3.953-2.356 5.288-4.43s-.077-4.21-.077-4.21-2.36-1.934-5.211.361-3.852 4.018-6.045 12.035-2.724 20.036-2.724 20.036-2.184 17.655-1.502 22.804 4.227-6.634 4.227-2.21c0 4.722-7.455 12.838-7.455 12.838s4.155-2.183 6.737-2.816 3.59.285 3.59.285 2.023-2.714 2.756-5.445.176-5.477.176-5.477-4.164-6.959-5.397-14.119.466-14.518.466-14.518 2.444-10.304 5.171-15.133z"/></g><path d="M106.702 46.368s-.974 1.152-2.176.841-2.635-2.084-2.635-2.084l.069-2.269 3.332-.167 1.23 1.348.18 2.331z" fill="#fff7f7"/><g fill="#070d1c"><path d="M29.958 127.107c-2.407-.094-4.817.082-7.197.444-1.972.3-3.974.676-5.802 1.5a.1.1 0 0 0-.063.126c.018.051.075.082.127.064l1.68-.465 2.917-.655c3.223-.575 6.558-.637 9.807-.264 1.785.205 3.486.74 5.188 1.289 3.643 1.174 7.191 2.623 10.821 3.834l3.435 1.099c3.907 1.13 7.934 1.914 11.952 2.535 1.194.185 2.391.381 3.593.507.57.06 1.141.087 1.712.138 2.56.224 5.13.336 7.693.105a.35.35 0 0 0 .317-.38.35.35 0 0 0-.381-.317c-2.515.239-5.048.105-7.556-.169-1.148-.125-2.291-.306-3.435-.465-2.18-.302-4.346-.694-6.51-1.098-1.612-.302-3.216-.628-4.808-1.025-1.936-.483-3.855-1.109-5.738-1.764l-7.915-2.852c-2.562-.9-5.172-1.707-7.873-2.06-.655-.086-1.306-.101-1.966-.127zm-17.206-1.3c-2.037.015-4.085.286-5.971 1.067-.757.314-1.505.709-2.145 1.225-.539.435-.976.963-1.363 1.532a.42.42 0 0 0 .116.581.42.42 0 0 0 .581-.116 6.89 6.89 0 0 1 1.754-1.849c1.449-1.033 3.235-1.409 4.967-1.637 1.051-.139 2.089-.194 3.149-.179l1.807.084 2.61.254 1.976.316.729.095c.319.066.646.224.972.243.108.007.209-.011.317-.021.018.005.037-.013.042-.031s-.003-.038-.021-.043c-.09-.061-.177-.132-.275-.179-.165-.079-.461-.123-.634-.159l-.697-.169c-1.049-.306-2.112-.493-3.191-.655l-2.695-.296-2.029-.063z"/><path d="M3.179 130.095c-.13-.028-.258.06-.285.19l-.275.697c-.194.646-.287 1.344-.402 2.008l-.19.918-.053.349-.011.095c-.001.01-.003.041 0 .032.046-.15-.014-.003-.032.031l-.211.434c-.14.29-.254.583-.359.887-.296.851-.647 1.761-.687 2.672-.054 1.237.114 2.493.476 3.676.102.333.252.635.37.962l.518 1.299c.349.728.82 1.4 1.31 2.039 1.099 1.431 2.559 2.716 4.29 3.296.44.147.951.36 1.427.253.1-.022.19-.069.285-.106.045.004.08-.029.085-.073s-.029-.081-.074-.085c-.469-.3-.987-.364-1.49-.581-.967-.417-1.865-1.059-2.621-1.785-1.019-.98-1.799-2.109-2.483-3.338l-.592-1.173c-.125-.299-.198-.618-.285-.929-.282-1.002-.416-2.034-.317-3.074.139-1.453.718-2.814 1.152-4.194.148-.47.171-.977.264-1.458.177-.915.367-1.823.38-2.757.028-.13-.06-.257-.19-.285z"/><path d="M23.531 88.35c-.076.019-.136.064-.18.138l-1.913 3.317-.571.993c-.058.123-.09.258-.148.38-.113.239-.292.501-.423.729l-.856 1.616-2.631 4.955-8.232 15.56-2.23 4.362-1.12 2.145-1.014 2.123-1.131 2.228-.391.909c-.177.422-.346.961-.254 1.426.07.35.355.831.761.845.148.005.289-.052.423-.105.06.002.103-.046.106-.106s-.046-.103-.106-.106c-.123-.068-.375-.227-.423-.38-.054-.173.008-.407.032-.581a5.61 5.61 0 0 1 .476-1.616l1.141-2.208 2.642-5.356 6.224-11.915 3.16-5.968 3.16-5.894.877-1.606.38-.75c.071-.115.171-.213.243-.328.201-.321.343-.679.518-1.014l.793-1.447 1.025-1.891c.087-.146.04-.336-.106-.422-.073-.043-.156-.051-.232-.032z"/><path d="M30.845 76.931c-.101.012-.193.084-.285.127l-.275.127c-.351.192-.61.459-.898.729l-1.004 1.004c-.775.852-1.276 1.853-1.775 2.884l-.983 2.113c-.645 1.453-1.377 2.852-2.156 4.236-.091.136-.062.321.074.412s.321.051.412-.085c.384-.489.747-.991 1.057-1.532.302-.527.539-1.097.793-1.648.719-1.56 1.326-3.176 2.219-4.648.49-.807 1.01-1.68 1.754-2.282.346-.279.741-.505 1.099-.771.075-.056.172-.097.232-.169.076-.091.113-.203.169-.307.04-.02.052-.076.032-.116s-.066-.052-.106-.032c-.12-.014-.239-.057-.359-.042zm15.64 28.479c-.069-.017-.131.026-.148.095-.768 2.273-1.657 4.5-2.8 6.613l-1.68 2.81-.972 1.352-1.575 2.281-1.035 1.31-2.526 3.507-2.705 3.645c-.184.257-.131.618.127.802a.58.58 0 0 0 .803-.137l2.631-3.676 2.589-3.496.887-1.405 1.543-2.345 1.089-1.965c1.672-2.879 3.317-5.912 3.867-9.232.017-.07-.026-.142-.095-.159zm1.109-5.039c-.047.028-.061.09-.032.137l.845 2.303c.102.319.157.651.254.972.254.845.52 1.708.623 2.588.024.204-.007.419.021.623.041.293.123.555.137.856a.22.22 0 0 0 .222.221.23.23 0 0 0 .222-.232l.053-.898c-.01-.316-.101-.657-.138-.972-.067-.571-.178-1.137-.295-1.7l-.254-1.025c-.077-.22-.177-.428-.265-.644-.24-.594-.462-1.239-.856-1.754-.114-.149-.271-.309-.401-.444a.1.1 0 0 0-.138-.031z"/><path d="M30.835 77.385c-.312-.007-.564.238-.571.549s.238.563.55.57c.35.006.722-.001 1.025.201.253.169.433.45.644.666.343.351.753.657 1.205.856.114.05.227.114.349.137.717.135 1.366-.078 2.06-.211l.962-.18c.426-.117 1.053-.361 1.5-.254.295.071.778.405.888.708.084.231.107.476.19.708a3.1 3.1 0 0 0 .866 1.204c.352.262.809.418 1.205.591l1.374.592.961.37.264.074.106.212.349.718 1.004 2.092.676 1.585c.312.756.644 1.497.803 2.303.024.121.143.203.264.179s.193-.143.169-.264c-.354-1.811-1.122-3.507-1.786-5.219l-.708-1.627c-.075-.168-.151-.483-.296-.612-.114-.102-.283-.156-.423-.212l-.877-.306-2.019-.718c-.211-.09-.454-.181-.634-.328-.079-.064-.174-.231-.233-.317-.273-.4-.256-.889-.412-1.331-.208-.589-.892-1.143-1.49-1.31-.486-.135-1.015-.02-1.501.053a5.84 5.84 0 0 0-.972.211c-.657.217-1.403.493-2.103.348-.108-.022-.357-.201-.454-.264-.453-.291-.693-.74-1.067-1.109-.514-.507-1.173-.646-1.87-.665z"/><path d="M52.582 69.949c-.876.061-1.752.278-2.579.507-1.254.348-2.454.864-3.646 1.384l-2.124.908-2.917 1.225c-1.396.511-2.844.86-4.291 1.194l-2.8.613c-1.036.211-2.106.363-3.107.708a.58.58 0 0 0-.433.687.56.56 0 0 0 .676.422c1.204-.133 2.395-.479 3.583-.718 2.153-.433 4.313-.926 6.383-1.669 1.326-.476 2.626-1.067 3.889-1.69l4.586-1.996 1.406-.475c1.04-.282 2.313-.472 3.36-.095 1.549.558 2.552 2.006 3.498 3.264l1.194 1.457.317.402c.102.141.17.302.285.433.119.136.265.24.402.359.059.073.17.08.243.021s.09-.159.032-.232c-.085-.159-.16-.329-.264-.476-.099-.141-.239-.247-.349-.38s-.2-.275-.296-.412l-1.321-1.902c-.885-1.147-1.826-2.474-3.17-3.116-.813-.388-1.681-.483-2.557-.423z"/><path d="M60.561 77.236c.039.123.06.254.116.37.052.106.134.188.2.285l.391.581 1.067 1.384c.556.75 1.003 1.56 1.469 2.366.414.715.85 1.403 1.099 2.197.019.054.073.083.127.064a.11.11 0 0 0 .063-.137l-.877-2.345c-.447-.963-1.073-1.85-1.67-2.725-.408-.598-.861-1.128-1.385-1.627-.086-.082-.154-.187-.254-.253-.107-.072-.232-.104-.349-.159zm7.608 10.417a.12.12 0 0 0-.011.169 21.25 21.25 0 0 0 2.304 2.578c1.014.969 2.093 1.853 2.98 2.947.195.24.354.497.528.75.384.56.763 1.26.55 1.954-.021.122.058.243.18.264s.232-.058.254-.18c.015-.236.028-.494 0-.729-.049-.4-.224-.779-.391-1.141-.348-.75-.837-1.403-1.363-2.039-.805-.973-1.622-1.928-2.589-2.746l-1.459-1.162-.814-.655a.12.12 0 0 0-.169-.01zm16.845-.329c-.115-.046-.251.002-.296.116-.044.534-.282.916-.592 1.341-.552.76-1.209 1.395-1.913 2.018-.914.81-1.861 1.57-2.642 2.514l-.56.718c-.46.713-.699 1.517-.835 2.345a.372.372 0 1 0 .74.085c.063-1.187.528-2.28 1.3-3.19.881-1.038 2.04-1.808 2.969-2.8.432-.461.861-.975 1.184-1.521.266-.449.446-.928.771-1.341.046-.115-.012-.24-.127-.285zM79.149 55.36c-.031-.012-.062.001-.074.031-.616 1.113-1.027 2.296-1.374 3.518-.52 1.836-.803 3.709-1.046 5.598l-.412 3.771c-.048.639-.081 1.241-.042 1.88-.003.038.025.071.063.074s.071-.025.074-.063c.194-.819.255-1.647.349-2.483l.497-3.739 1.025-4.901.983-3.613c.012-.031-.012-.062-.042-.074zm28.723 12.77c-.045-.007-.087.018-.095.063l-.2.486c-.09.328-.113.665-.212.993l-.581 1.722-.306 1.373c-.17.757-.294 1.766-.909 2.324-.358.324-.877.346-1.332.37l-.877.021c-.797-.053-1.597-.241-2.378-.402L96.1 73.845l-1.701-.401c-.466-.097-.928-.193-1.406-.18-.836.024-1.664.265-2.441.56-1.636.622-3.129 1.558-4.586 2.514-.91.597-1.785 1.159-2.526 1.965-.861.936-1.54 2.035-2.145 3.148-.987 1.814-1.767 3.734-2.579 5.63l-1.395 3.106-.909 1.87c-.009.015-.004.033.01.042s.034.004.042-.01c.441-.55.749-1.175 1.057-1.806l.782-1.69 3.255-6.993c.871-1.588 1.923-3.204 3.466-4.215l4.597-2.694c1.045-.522 2.195-1.011 3.382-1.035 1.006-.02 2.026.33 2.991.571l6.035 1.458 1.3.148c.987.101 2.079.18 2.789-.666.532-.631.65-1.533.782-2.313a13.61 13.61 0 0 1 .423-1.806l.37-1.151c.12-.369.254-.763.274-1.152.007-.115-.022-.417-.031-.517.007-.046-.018-.088-.064-.095zm-8.348 7.015a.32.32 0 0 0-.18.169c-.471.624-.666 1.416-.887 2.155l-.793 2.936c-.286 1.247-.44 2.518-.634 3.782l-.433 3.982c-.139 2.134-.107 4.291.401 6.38.445 1.827 1.472 3.668 3.307 4.384.435.169.879.255 1.343.296.541.048 1.023.005 1.553-.106.481-.101.933-.17 1.384-.37.062-.016.091-.076.074-.137s-.075-.101-.137-.085l-1.374.211c-.784.041-1.663-.008-2.409-.264-2.175-.745-3.069-3.176-3.413-5.25-.22-1.323-.254-2.636-.254-3.972 0-2.021.243-4.059.634-6.042.112-.569.294-1.108.433-1.669l.391-1.595.666-2.24c.246-.708.584-1.397.729-2.134.074-.163.005-.349-.159-.423a.31.31 0 0 0-.243-.01z"/><path d="M90.944 73.698a.36.36 0 0 0-.338.391l-.032.686c.015.385.126.771.18 1.151l.201 1.447 1.12 6.032.56 2.578 1.321 4.732c.583 1.955 1.272 3.934 2.261 5.725 1.138 2.059 3.032 4.551 5.717 3.983.504-.107.946-.328 1.384-.592.285-.172.629-.367.867-.602.091-.091.164-.204.243-.306.063-.052.063-.148.01-.211s-.137-.063-.2-.011c-.408.207-.752.498-1.152.718a4.13 4.13 0 0 1-1.733.507c-2.143.104-3.695-2.136-4.608-3.782l-.518-.972-.645-1.426-1.311-3.592-1.194-4.732-.972-5.356-.38-2.799-.18-1.69-.064-.887c-.034-.217-.098-.437-.137-.655-.015-.204-.197-.353-.401-.338zM67.736 60.42c-.077-.043-.168-.013-.211.064-.401.43-.636.968-.94 1.468-.641 1.052-1.371 2.232-2.357 3-.139.108-.288.197-.433.296-.014.009-.055.031-.074.031-.163.006-.311-.232-.412-.328s-.187-.21-.306-.274c-.14-.076-.296-.155-.455-.137s-.293.133-.423.232c-.193.147-.468.504-.634.686-.556.614-1.141 1.21-1.775 1.743a19.02 19.02 0 0 1-2.43 1.753c-.767.46-1.575.826-2.357 1.257a.47.47 0 0 0-.201.634c.119.232.402.331.634.211.827-.398 1.599-.893 2.367-1.394 1.117-.73 2.171-1.506 3.128-2.44.522-.51 1.053-1.045 1.469-1.648.08-.116.136-.25.211-.37.018-.028.04-.072.074-.074s.039.043.063.063l.243.201c.272.22.61.535.993.433.265-.07.456-.36.624-.528l.729-.708c.746-.774 1.338-1.701 1.87-2.63.252-.438.523-.832.666-1.321.044-.076.013-.178-.063-.222zm22.625 10.468c-.058-.045-.135-.037-.18.021s-.037.145.021.19c.438.421.903.839 1.427 1.151l1.501.803c.388.205.781.524 1.236.454.006.003.018-.005.021-.01-.154-.283-.36-.385-.634-.528l-.983-.517c-.846-.464-1.591-1.062-2.409-1.563zM81.496 54.23a.4.4 0 0 0-.328.454l-.063.359c-.038.492.147 1.197.232 1.669l.391 1.944c.379 1.871.794 3.76 1.617 5.493.327.689.777 1.288 1.236 1.891l.856 1.025c.413.43.844.831 1.3 1.215.096.081.178.179.285.243.113.068.247.099.37.148.035.027.089.014.116-.021s.014-.079-.021-.106c-.078-.105-.141-.224-.233-.317-.168-.172-.381-.293-.56-.454a10.39 10.39 0 0 1-.951-.982c-1.261-1.483-2.055-3.33-2.558-5.197-.386-1.432-.572-2.901-.719-4.373l-.158-1.331c-.043-.334-.049-.699-.18-1.014-.046-.112-.121-.211-.18-.317-.035-.215-.24-.362-.454-.327zm2.98 23.219c-.104.037-.164.149-.127.254.057.492.304.905.581 1.31.416.609.919 1.117 1.469 1.606l.782.644.296.222.042.031c.005.581.071 1.191.137 1.764l.18 1.997c.04.469.05.935.201 1.384.002.02.022.033.042.032s.033-.022.032-.042c.054-.377.014-.721-.011-1.099l-.085-1.173-.095-2.271-.021-.57c-.002-.034.008-.134-.01-.169-.115-.219-.411-.368-.592-.517-.332-.275-.651-.579-.941-.898-.407-.448-.813-.947-1.12-1.468l-.507-.909c-.038-.104-.15-.164-.254-.127z"/><path d="M88.059 81.197c-.128-.059-.279-.011-.338.116s-.001.279.126.338l2.684 1.099c.461.168.922.28 1.353.518a.22.22 0 0 0 .275-.148.23.23 0 0 0-.148-.285c-.121-.008-.241.003-.359-.021-.232-.046-.446-.156-.666-.243l-.666-.275-2.261-1.099zm10.354 2.273c-.242.023-.464.13-.687.222-.097.017-.165.104-.148.201s.114.165.211.148c.214.013.412.068.623.095.435.056.878.066 1.279.275.323.168.612.489.846.761.801.933 1.15 2.126 1.437 3.296.812 3.308.958 6.704 1.194 10.088.014.18.168.32.349.306s.32-.168.306-.349c-.073-.864-.08-1.732-.126-2.599-.067-1.241-.206-2.473-.349-3.708-.235-2.027-.635-3.945-1.49-5.81-.292-.636-.658-1.295-1.142-1.806-.227-.24-.489-.429-.761-.612-.445-.301-.985-.56-1.543-.507z"/><path d="M100.094 84.357c-.152.028-.295.115-.39.253-.441.834-.099 1.785.18 2.62.07.21.363.609.36.835-.202.2-.253.262-.539.391-.444.199-.836.353-1.089.803-.353.63-.338 1.392-.38 2.091-.028.473-.074.95-.159 1.416-.022.121.059.242.18.264s.242-.059.264-.18l.169-.898.095-1.035c.041-.375.069-.763.317-1.067.117-.144.255-.305.423-.391.556-.285 1.07-.289 1.458-.887.043-.066.073-.147.096-.222.045-.152.035-.338.031-.497-.007-.27-.036-.584-.106-.845s-.208-.521-.295-.782c-.104-.307-.285-.691 0-.93.19-.276.117-.644-.159-.835a.61.61 0 0 0-.455-.105zm2.42 39.01c-.158-.003-.293.128-.296.286-.127 1.054-.044 2.14-.031 3.2v1.373c-.001.153-.025.303-.011.455s.064.311.095.465c-.001.045.039.083.085.084s.083-.039.084-.084c.038-.152.095-.3.116-.455s.004-.302.011-.454l.074-1.373c.08-1.06.23-2.139.148-3.201.003-.157-.117-.292-.275-.296zm.782-23.652c-.131.001-.234.112-.233.243.05 4.01.305 8.009.233 12.021-.032 1.751-.162 3.497-.328 5.24-.092.973-.234 1.949-.285 2.926-.008.05.023.097.074.105a.09.09 0 0 0 .106-.074c.203-.739.274-1.511.359-2.271.145-1.307.232-2.617.317-3.929.205-3.169.138-6.327.042-9.497-.012-.412.006-.823 0-1.236l-.042-3.296c-.001-.131-.112-.234-.243-.233zM58.267 14.828c-.135.032-.259.116-.338.243-.7.956-1.202 2.014-1.723 3.074-1.04 2.119-1.87 4.335-2.557 6.592-1.653 5.424-2.366 11.146-2.114 16.806.19 4.262 1.029 8.569 2.726 12.497 1.438 3.327 3.442 6.409 6.066 8.926.564.541 1.147 1.039 1.754 1.532.154.124.296.266.465.37s.375.171.56.254c.018.013.04.008.053-.011s.008-.039-.01-.053c-.134-.15-.253-.318-.401-.454-.287-.263-.621-.469-.919-.718a23.44 23.44 0 0 1-1.279-1.151c-1.611-1.559-3.05-3.375-4.142-5.334-.915-1.641-1.679-3.354-2.283-5.134-.984-2.902-1.501-5.954-1.744-9-.233-2.919-.123-5.84.211-8.747.454-3.954 1.349-7.819 2.727-11.556.6-1.629 1.304-3.233 2.103-4.775.448-.865.992-1.679 1.437-2.546.158-.255.075-.592-.18-.75-.127-.079-.277-.095-.412-.063z"/><path d="M57.686 60.06c-.11.021-.18.133-.159.243a11.8 11.8 0 0 1 .011 3.465c-.091.609-.236 1.198-.381 1.796a12.07 12.07 0 0 1-.771 2.197c-.433.938-.997 1.778-1.543 2.651-.023.031-.01.072.021.095s.072.02.095-.01c.802-.895 1.356-1.975 1.871-3.053.688-1.441 1.143-2.94 1.3-4.532.058-.598.088-1.23 0-1.827-.043-.291-.133-.569-.201-.855-.021-.11-.133-.19-.243-.169zm-17.69 10.247a.23.23 0 0 0-.285.148c-.113.691-.384 1.342-.676 1.975l-.497 1.13-.761 1.49c-.082.162-.014.361.148.444a.32.32 0 0 0 .433-.148c.516-.858.87-1.777 1.152-2.736.2-.681.324-1.388.634-2.028.037-.118-.03-.238-.148-.275z"/><path d="M40.112 70.181c-.076-.026-.154-.028-.232.011-1.575.744-3.106 1.617-4.766 2.166-.845.279-1.734.445-2.621.507-.619.043-1.252-.016-1.839-.222-.289-.101-.347-.084-.518-.349-.111-.054-.241-.016-.296.095s-.005.252.106.307c.082-.006.161-.035.243-.021.071.012.135.057.201.084a4.51 4.51 0 0 0 .603.201c.635.163 1.3.232 1.955.201.778-.037 1.535-.219 2.283-.423 1.715-.466 3.346-1.179 4.924-1.986.156-.076.214-.256.138-.412-.038-.078-.104-.133-.18-.159z"/><path d="M46.316 15.018c-.086.036-.163.107-.201.201-.484 1.03-.753 2.1-.983 3.211-.249 1.208-.379 2.424-.444 3.655-.159 3.021.011 6.054.126 9.074l.085 9.792c-.189 4.259-.771 8.476-1.807 12.613-.597 2.385-1.339 4.719-2.304 6.982-1.678 3.936-4.053 7.853-7.672 10.278-1.027.688-2.114 1.176-3.266 1.606-.063.02-.094.085-.074.148s.085.095.148.074c2.42-.693 4.543-2.26 6.246-4.078 2.466-2.633 4.233-5.887 5.559-9.222 1.77-4.453 2.881-9.135 3.434-13.891.41-3.52.5-7.065.486-10.606l-.18-10.51a44.44 44.44 0 0 1 .317-4.796c.059-.484.12-.96.222-1.437.191-.895.484-1.756.782-2.62a.36.36 0 0 0-.19-.475.38.38 0 0 0-.285 0zM60.233 6.22c-.936.07-1.706.538-2.272 1.278-.07.091-.155.18-.201.285-.049.112-.057.239-.084.359a.28.28 0 0 0 .084.391c.131.088.303.057.391-.074.095-.062.199-.117.285-.19.139-.117.244-.27.38-.391.469-.417 1.094-.798 1.733-.856 1-.09 2.124.44 2.716 1.246.289.394.41.935.423 1.415.005.184.006.381-.042.56-.144.531-.553.987-.972 1.32-.165.131-.354.234-.507.38l-.264.275c-.065.034-.097.114-.064.18s.115.086.18.053l.401-.063c.41-.127.803-.492 1.099-.782.339-.332.588-.717.75-1.162.116-.317.185-.653.158-.993-.048-.602-.309-1.075-.655-1.553-.542-.749-1.322-1.333-2.219-1.584-.425-.119-.883-.128-1.321-.095z"/><path d="M62.083 7.148c-.668.026-1.156.261-1.733.581-.929.515-1.725 1.23-2.473 1.975-.628.625-1.259 1.28-1.797 1.986l-.666.951-.243.306c-.284.422-.511.893-.772 1.331-1.025 1.72-1.89 3.556-2.114 5.567-.009.072.044.138.116.148s.138-.033.148-.106c.22-1.446.849-2.802 1.564-4.067l.75-1.246c.282-.419.622-.785.93-1.183l.444-.602c.926-1.118 1.939-2.197 3.064-3.116l1.775-1.31 1.163-.761c.124-.044.192-.182.148-.306s-.182-.192-.306-.148zM63.457.726c-4.261.27-8.163 2.65-11.223 5.493-.874.812-1.713 1.67-2.462 2.599-.833 1.033-1.582 2.142-2.198 3.317-.273.521-.512 1.032-.687 1.595-.088.193-.003.419.19.507s.419.003.507-.19c.296-.473.545-.964.824-1.447.491-.849 1.019-1.703 1.617-2.482.782-1.02 1.614-2.019 2.526-2.926 2.563-2.548 5.797-4.599 9.32-5.493 1.172-.297 2.401-.327 3.603-.264 1.392.072 2.796.287 4.132.687.918.275 1.903.623 2.695 1.183.876.618 1.49 1.582 1.522 2.673.011.396-.047.773-.159 1.151a4.49 4.49 0 0 1-.106.306c-.01.028-.02.056-.032.085a.49.49 0 0 1-.127.074c-.104.04-.209.059-.317.085-.369.085-.741.146-1.109.232a8.44 8.44 0 0 0-3.043 1.415c-.082.05-.114.161-.063.243s.161.103.243.053c.953-.476 1.925-.981 2.97-1.225.2-.047.41-.087.613-.116.399-.057.961-.042 1.258-.37.117-.129.154-.346.201-.507a4.92 4.92 0 0 0 .19-1.447c-.009-.394-.055-.829-.18-1.204-.117-.352-.328-.698-.549-.993-.991-1.319-2.797-2.024-4.322-2.43-.359-.096-.693-.169-1.057-.243-.717-.146-1.448-.252-2.177-.317-.862-.076-1.735-.097-2.599-.042zm46.424 21.401c-.104.066-.14.202-.074.306.982 1.153 1.299 2.784 1.574 4.236.027.129.157.217.286.19s.206-.157.179-.285c-.17-.765-.327-1.531-.623-2.261s-.705-1.398-1.036-2.113c-.066-.104-.202-.14-.306-.074zm1.944 5.219c-.123.001-.223.099-.222.222.049.717.152 1.433-.011 2.144-.189.828-.702 1.54-1.173 2.229l-2.05 2.715c-2.623 3.067-5.756 5.818-9.32 7.743-1.725.932-3.549 1.679-5.506 1.922-.205.027-.344.207-.317.412a.37.37 0 0 0 .412.328c2.533-.344 4.865-1.463 7.006-2.821 2.925-1.854 5.568-4.211 7.799-6.855.951-1.127 1.863-2.338 2.589-3.623.311-.55.649-1.085.814-1.701.215-.804.16-1.668.201-2.493-.002-.123-.099-.223-.222-.222z"/><path d="M94.663 39.157a.23.23 0 0 0-.095.306c.389.597.312 1.293.137 1.955-.205.773-.507 1.524-.962 2.186-.234.34-.524.649-.793.961-.122.085-.148.259-.063.38s.248.148.37.063c.137-.057.293-.111.412-.2.386-.289.719-.907.93-1.331.629-1.264.969-2.888.37-4.225a.23.23 0 0 0-.306-.095z"/><path d="M94.599 39.261l-.475.212c-.032.005-.227.071-.338.116l-.803.328-.19.064-.021.011-.56.306c-.084.02-.136.106-.116.19s.106.136.19.116c1.223-.569.65-.387 1.215-.57.306-.099-.575.333-.75.602-.086.132.309-.089.454-.148.29-.118.577-.257.835-.433.128-.087.508-.342.359-.296-.724.224-.006.003.327-.296.054-.035.067-.104.032-.158s-.104-.077-.159-.043z"/><path d="M89.676 15.926c-.102.069-.122.204-.053.306l.359.359c.212.253.368.545.529.835.326.59.596 1.202.845 1.827.384.962.725 1.936.993 2.937.603 2.253.833 4.582.877 6.909a35.55 35.55 0 0 1-.529 6.919l-.549 2.472-.528 1.859c-.049.151.029.31.18.359a.3.3 0 0 0 .37-.19c.368-.925.59-1.902.803-2.873l.539-3.105c.557-4.493.304-9.144-1.099-13.468-.322-.994-.723-1.94-1.215-2.863-.398-.745-.88-1.438-1.205-2.218-.069-.102-.215-.133-.317-.063zm13.419 24.466c-.815.5-1.564 1.064-2.208 1.775-.455.502-.854 1.05-1.173 1.648-1.199 2.246-1.131 4.834-.803 7.289.389 2.908 1.084 5.883.444 8.81-.555 2.534-2.206 4.476-4.037 6.233-1.691 1.622-3.578 3.02-5.516 4.331l-4.925 3.042c-.18.098-.246.317-.148.497s.328.246.507.148l3.825-2.345c2.215-1.461 4.358-3.067 6.298-4.88 1.98-1.851 3.707-3.904 4.354-6.592.794-3.303-.164-6.644-.55-9.93-.267-2.274-.218-4.649.951-6.686.749-1.305 1.895-2.291 3.054-3.222a.08.08 0 0 0 .022-.105c-.023-.032-.064-.033-.096-.011zm-4.775 66.084c-.051-.019-.108.012-.127.064-1.229 2.746-1.736 5.778-1.712 8.778.008 1.088.079 2.193.275 3.264.189 1.038.532 2.022.888 3.011.085.193.304.274.497.19s.285-.304.201-.497c-.851-1.631-1.217-3.507-1.321-5.334-.181-3.178.451-6.311 1.363-9.338.019-.052-.012-.118-.063-.138z"/><path d="M87.488 46.921c-.177-.04-.35.066-.391.243-.255 1.097-.645 2.192-.761 3.317a6.79 6.79 0 0 0 .085 1.933c.227 1.206.604 2.383 1.067 3.517l1.141 2.726c.237.71.37 1.451.433 2.197.171 1.996-.314 3.957-.962 5.831-.645 1.868-1.492 3.651-2.452 5.377l-.94 1.627c-.039.064-.022.14.042.18s.151.022.19-.043l.983-1.616c1.242-2.188 2.31-4.521 2.98-6.951.364-1.32.607-2.683.549-4.056a9.99 9.99 0 0 0-.391-2.366c-.306-1.055-.79-2.045-1.194-3.063-.396-.999-.73-2.062-.898-3.127-.084-.533-.126-1.088-.084-1.627.048-.636.219-1.239.391-1.849l.465-1.859a.33.33 0 0 0-.254-.391z"/><path d="M87.497 46.803c-.922.242-.527.073-.919.243-.192.083.409-.087.603-.169.097-.041-.203.028-.306.042l-.624.116-.306.063c.519-.097.002.008-.285.19-.12.033-.191.155-.159.275s.155.191.275.158c.929-.245.504-.187.93-.253.214-.033-.417.152-.603.264-.089.053.206-.058.306-.084l.603-.179.306-.127c-.52.105-.005-.002.306-.116.118-.036.184-.157.148-.275s-.157-.184-.275-.148z"/><path d="M83.26 39.736c-.084.033-.162.1-.201.19-.077.18.011.388.19.465.838.326 1.307 1.282 1.649 2.049a9.71 9.71 0 0 1 .803 3.01c.048.485.087.975 0 1.458-.037.204-.108.414-.169.612-.028.046-.014.099.031.127a.09.09 0 0 0 .127-.032c.57-.59.58-1.846.496-2.599-.15-1.345-.525-2.726-1.236-3.887-.353-.576-.805-1.109-1.427-1.394-.09-.038-.18-.034-.264 0z"/><path d="M84.274 26.342c-.066-.022-.137.019-.159.085l-.254.412c-.226.468-.328 1.01-.454 1.511l-.391 1.732c-.234 1.263-.311 2.523-.38 3.803-.057 1.049-.08 2.078 0 3.127.044.576.15 1.144.254 1.711.064.345.134.698.296 1.014.043.084.212.341.264.422.006.017.025.027.043.021s.027-.025.021-.042l-.064-.739-.211-1.289a25.11 25.11 0 0 1-.095-4.194c.038-.633.141-1.262.222-1.891l.476-3c.165-.845.438-1.666.518-2.525.022-.066-.019-.136-.085-.158zm-2.588 13.057c-.329.028-.662.09-.994.148-.558.097-1.056.262-1.522.591-.363.258-.671.574-.909.951-1.288 2.038-.142 4.417.475 6.465.136.45.292.904.349 1.373.156 1.288-.663 2.571-.169 3.845.439 1.133 1.792 1.706 2.896 1.13.064-.036.089-.116.053-.179s-.116-.089-.179-.053c-.272.17-.591.209-.909.201-.878-.022-1.529-.683-1.691-1.532-.124-.653.188-1.261.296-1.891.101-.592.15-1.229.064-1.827-.074-.511-.242-.994-.38-1.489-.475-1.693-1.169-3.609-.296-5.292.16-.309.345-.587.602-.824.214-.198.465-.345.729-.465.313-.142.644-.274.983-.338.534-.1 1.076-.081 1.606-.201.159-.002.287-.126.285-.285s-.137-.287-.296-.285c-.334-.067-.664-.07-.993-.042zM84.38 7.213c-1.796-.002-3.595.103-5.389.18l-2.874.053-1.437.063-1.078.042c-.171.007-.303.146-.296.317s.157.302.328.296c1.798.001 3.585-.24 5.379-.338l5.368-.158c5.084-.067 10.332.393 14.932 2.736a25.06 25.06 0 0 1 4.29 2.768c.831.664 1.574 1.416 2.347 2.144.045.048.12.056.169.011s.056-.121.01-.169c-.854-1.007-1.865-1.924-2.906-2.736a21.39 21.39 0 0 0-3.107-2.028C95.295 7.838 89.76 7.22 84.381 7.214z"/><path d="M106.489 15.461c-.01.013-.013.033 0 .042l2.039 1.743a23.92 23.92 0 0 1 2.737 3.127c3.093 4.207 4.766 9.505 4.65 14.725-.036 1.619-.276 3.206-.623 4.785-.15.681-.349 1.35-.55 2.018-.29.963-.599 1.946-1.067 2.841l-1.068 1.986c-.39.682-.823 1.338-1.109 2.07-.044.064-.022.147.042.19s.147.032.19-.032c.12-.114.252-.213.36-.338s.181-.271.274-.402a15.46 15.46 0 0 0 .994-1.606c.649-1.188 1.125-2.458 1.616-3.718.722-1.852 1.083-3.796 1.269-5.767.53-5.634-.981-11.346-4.132-16.035-1.052-1.565-2.279-2.985-3.699-4.225-.608-.531-1.196-.992-1.892-1.405-.012-.009-.022-.013-.031 0zm4.976 27.297c-.053-.01-.107.021-.117.074a19.12 19.12 0 0 0 .466 9.285c.244.791.59 1.614 1.056 2.303.19.28.378.449.603.697.056.062.085.159.084.243-.007.527-.476 1.066-.835 1.405a10.31 10.31 0 0 1-2.652 1.827c-.505.24-1.161.363-1.501.855-.53.771.099 2.004.212 2.81.154 1.105-.259 2.013-.962 2.841a.43.43 0 0 0 .074.602.43.43 0 0 0 .602-.085c.235-.336.467-.669.634-1.046.321-.722.387-1.629.286-2.398-.072-.544-.238-1.054-.37-1.585-.062-.248-.135-.575.021-.803.197-.288.601-.378.898-.507l.698-.338c1.071-.523 2.076-1.278 2.79-2.239.259-.35.487-.738.517-1.183s-.216-.656-.454-1.003l-.486-.75c-.424-.698-.755-1.495-1.004-2.271-.567-1.766-.759-3.625-.761-5.472l.106-2.155.169-.993c.01-.053-.021-.106-.074-.116z"/><path d="M101.964 64.656c-.052-.019-.108.011-.126.063s.01.108.063.127l1.49.539.94.243c1.094.279 2.197.444 3.297.138.217-.06.431-.117.624-.233a.19.19 0 0 0 .074-.264c-.052-.097-.167-.136-.264-.085-.466.154-.93.254-1.427.254-.62-.001-1.248-.151-1.86-.233-.95-.126-1.888-.281-2.811-.549z"/><path d="M101.869 64.539a.23.23 0 0 0-.148.285c.055.049.116.088.158.148.112.156.174.498.254.687a3.88 3.88 0 0 0 .655 1.025c.514.58 1.211.991 1.913 1.299 1.003.44 2.081.626 3.16.402.095-.001.17-.084.169-.18s-.084-.17-.18-.169c-1.052-.209-2.205-.329-3.202-.729-.665-.267-1.24-.653-1.743-1.162-.261-.264-.506-.587-.677-.919-.023-.046-.137-.273-.137-.328-.001-.072.035-.142.053-.211a.22.22 0 0 0-.275-.148zm4.048-27.412a.8.8 0 0 0-.56.243.79.79 0 0 0 .02 1.12c.302.321.487.534.835.814.449.361.927.658 1.406.971.17.111.347.336.549.391.114.031.261-.021.37-.042.073.035.166.009.201-.064s-.001-.165-.074-.201c-.045-.101-.068-.21-.137-.295-.055-.068-.133-.104-.201-.159a1.36 1.36 0 0 1-.37-.433c-.339-.565-.562-1.202-1.004-1.701-.139-.157-.319-.282-.475-.422a.78.78 0 0 0-.56-.222z"/><path d="M101.574 40.106a.88.88 0 0 0-1.109 1.204c.423.614.666 1.264.803 1.996l.169 1.067c.016.13.001.266.042.391.05.148.157.275.233.412a.22.22 0 0 0 .222.222c.123 0 .222-.099.222-.222.075-.139.185-.261.232-.412.041-.129.021-.277.032-.412l.053-.782c.035-1.026-.103-2.017-.391-3-.103-.223-.294-.386-.508-.465z"/><path d="M101.521 39.979c-.247-.064-.525-.035-.761.105-.474.28-.629.889-.349 1.363.02.086.028.173.063.254.051.117.244.359.328.454.375.424.926.777 1.469.929.255.072.605.098.866.137.134.02.267.062.402.063s.275-.054.412-.063c.24-.016.479.022.718.042.459.039.929.092 1.332.338.518.316.626.949.56 1.511l-.063.507c-.01.097-.059.192-.032.285.042.143.156.262.232.391.138-.084.294-.137.392-.254.068-.081.058-.204.084-.306.071-.279.086-.538.095-.824.01-.311.016-.594-.063-.898-.066-.252-.161-.501-.307-.718-.448-.668-1.28-.914-2.007-1.141-.231-.072-.483-.113-.698-.222-.112-.056-.194-.156-.306-.211-.099-.049-.216-.051-.318-.095-.097-.042-.185-.1-.274-.158-.222-.146-.464-.323-.666-.497-.19-.164-.294-.39-.507-.539-.14-.237-.356-.391-.602-.454z"/><path d="M104.945 45.179c0-.93.489-1.684 1.091-1.684s1.09.754 1.09 1.684-.488 1.684-1.09 1.684-1.091-.754-1.091-1.684zm-25.733 3.654l-1.924.533-1.716-5.446s-.516-1.686.348-3.129 1.854-2.369 3.106-2.642 1.901 1.553 1.901 1.553-1.704.162-2.341 1.645-.209 4.287-.209 4.287l.835 3.198z"/><path d="M70.62 38.945c-.267-.032-.507.156-.539.423-.052.056-.122.102-.159.169-.088.16-.074.438-.063.613.034.554.222 1.068.486 1.553.789 1.45 2.149 2.63 3.783 2.989a2.88 2.88 0 0 0 1.004.042c.191-.028.372-.104.56-.148l.37-.074c.063-.012.144.013.19-.032.062-.06.062-.163.095-.243.116-.044.181-.17.138-.285s-.181-.181-.296-.138c-.069-.041-.122-.1-.201-.116-.045-.009-.084.037-.127.053-.076.028-.193.061-.275.063-.19.005-.387-.075-.571-.116-.93-.208-1.789-.711-2.483-1.352-.465-.429-.877-.944-1.099-1.542-.078-.211-.138-.434-.18-.655-.051-.275-.038-.428-.211-.666.032-.267-.156-.507-.423-.539z"/><path d="M67.66 36.687c0-1.866 1.438-3.378 3.211-3.378s3.211 1.512 3.211 3.378-1.438 3.378-3.211 3.378-3.211-1.512-3.211-3.378zm34.717 83.289l-1.416.327-2.177.644c-2.535.735-5.013 1.599-7.397 2.736l-1.405.676a21.29 21.29 0 0 0-2.209 1.342c-.232.166-.282.497-.116.729s.487.282.719.116c.96-.714 1.972-1.387 3.033-1.944l1.744-.813 5.527-2.134 3.815-1.32c.098-.033.149-.135.117-.233s-.135-.159-.233-.126z"/><path d="M102.63 120.262c-.094.008-.176.071-.264.106-.06-.016-.121.014-.137.074s.024.121.084.137c.05.072.085.161.148.222.164.158.404.087.497.37.16.486-.432 1.159-.708 1.499l-.307.37-.359.391c-.965 1.014-2.038 1.872-3.107 2.768l-.708.57c-.27.202-.528.398-.708.687-.041.034-.045.096-.011.137s.086.045.127.011c.378-.145.682-.404 1.004-.645l.972-.728 2.419-2.029c.512-.473 1.017-.978 1.417-1.552.272-.392.571-.976.517-1.469-.041-.381-.322-.698-.665-.855-.068-.031-.138-.07-.212-.064zm-.6 8.882l-22.378-4.82c-1.126-.238-1.231 2.333-.335 2.614 3.367 1.057 13.939 2.85 13.939 2.85l8.774-.644z"/><path d="M86.441 127.507c-.09.017-.177.066-.232.148l-.37.38c-.231.285-.405.606-.613.908l-1.004 1.458-1.543 1.944c-1.464 1.695-3.062 3.058-5.136 3.908-.256.105-.501.24-.772.307s-.55.075-.824.095c-.123.01-.211.12-.201.243s.12.211.243.2l.866-.126c.293-.048.6-.061.888-.138 1.074-.286 2.067-.912 2.938-1.584 1.436-1.109 2.677-2.45 3.804-3.866l1.458-1.933.645-.909c.087-.153.139-.325.211-.486.111-.163.069-.385-.095-.496-.082-.056-.174-.07-.264-.053zm27.686 5.511l9.403 1.655 3.316 1.952-3.437.806-14.938-2.833 5.656-1.58z"/><path d="M108.517 128.638l-3.836.126-4.555.201-4.512.254-3.498.264c-.208.002-.372.172-.37.38s.172.383.38.38c.901.11 1.814.011 2.716-.053l3.72-.285 8.402-.475 4.956-.074 1.151.063.909.085.719.116.634.148.381.105c.393.127 1.415.478 1.447 1.004.008.129-.064.273-.127.38a1.12 1.12 0 0 1-.137.19c-.1.112-.216.21-.338.296-.16.113-.333.208-.507.296a10.57 10.57 0 0 1-.92.401c-.513.201-1.017.373-1.553.507-.101.028-.154.132-.127.233s.132.154.233.126l2.124-.654c.35-.147.681-.318 1.004-.518.309-.191.679-.429.855-.761.399-.748-.283-1.401-.877-1.743-1.27-.73-3.011-.856-4.438-.929l-3.836-.063zm-11.222-1.353a.22.22 0 0 0-.306.053c-.073.098-.056.234.042.306.619.471.401.258.623.465.134.125-.314-.192-.486-.253-.073-.027.119.099.18.148l.19.158a3.55 3.55 0 0 0 .454.317c.044.024.175.096.138.063-.359-.312-.001.006.137.042.113.049.247-.002.296-.116s-.003-.247-.116-.295l-.349-.265c.082.059.074.076.159.138l-.084-.053c-.03-.022-.047-.059-.074-.085-.015-.01-.019-.011-.032-.021l-.306-.327c-.035-.037-.067-.058-.116-.106-.071-.043-.214-.127-.349-.169z"/><path d="M114.445 132.789c-1.036.228-2.034.596-3.043.919l-.877.264c-.146.058-.275.16-.423.211-.327.113-.585.075-.92.138-.301.056-.589.158-.887.232l-1.797.423-1.331.338c-.476.104-.858.165-1.321.338-.054.011-.086.063-.074.116s.063.085.116.074c.616-.041 1.192-.211 1.797-.317l2.251-.475 1.352-.317c.296-.093.572-.253.877-.307.155-.027.31-.009.465-.031.305-.044.599-.151.899-.222 1.041-.246 2.079-.492 3.064-.919.128-.041.2-.179.159-.306s-.179-.2-.307-.159z"/><path d="M108.855 134.765l-2.462.327-.655.096-.793.179c-.39.067-.728.105-1.078.306-.043.005-.078.042-.074.085s.042.068.085.063c.391.123.732.07 1.13.032.27-.026.534-.002.804-.021l.655-.074c1.422-.117 2.857-.093 4.269.106.675.094 1.412.208 2.019.549.211.118.396.279.581.433a.62.62 0 0 0 .866-.887c-.713-.786-1.862-1.069-2.874-1.194-.819-.102-1.646-.078-2.473 0z"/><path d="M114.023 136.487c-.078-.023-.156-.02-.233.021-.153.083-.209.28-.127.433.001.084-.016.172 0 .254.02.099.066.179.074.285.012.155-.038.338-.084.486-.291.918-1.284 1.3-2.093 1.595-1.298.473-2.637.845-3.984 1.152l-1.849.348c-.439.063-.91.168-1.353.074-.122-.015-.238.078-.253.201s.078.227.2.243c.72.035 1.455-.074 2.167-.159l3.328-.549c1.1-.215 2.372-.49 3.351-1.057.812-.47 1.472-1.261 1.405-2.249-.026-.382-.046-.667-.359-.92-.042-.076-.113-.135-.19-.158z"/><path d="M107.956 141.04c-.083.08-.09.213-.011.296.288.296.537.599.719.972.123.252.268.546.317.824.056.319.007.737-.127 1.035-.109.242-.327.444-.539.591-.503.351-1.21.724-1.817.972l-.666.264c-.351.13-.706.223-1.067.317l-1.427.317-.37.053c-.014.002-.028.009-.042.011l-.095.01-.095.021c-.012.002-.044 0-.043.011a5.58 5.58 0 0 0 .127.57s.017.001.021 0c.374-.054.775-.123 1.152-.116l.275.011c.078.008.156.022.232.042.036.009.262.063.275.158.004.032-.001.055-.01.085l-.085.222c-.112.279-.27.535-.454.771-.607.777-1.479 1.32-2.399 1.648-.648.23-1.25.212-1.934.2l-1.501-.031-4.755-.233-2.843-.137c-.239.012-.45.132-.687.169a.3.3 0 0 0-.306.296.31.31 0 0 0 .306.306c.232.039.432.163.666.19.777.091 1.565.047 2.346.064l4.724.116 2.039.031c.512.005 1.026.038 1.533-.052.647-.116 1.255-.358 1.817-.697a5.16 5.16 0 0 0 1.226-1.036 3.98 3.98 0 0 0 .602-.897c.219-.457.519-1.175 0-1.543-.051-.036-.14-.036-.2-.063l1.162-.307c.352-.124.679-.281 1.014-.443l1.036-.56c.404-.245.761-.441 1.004-.877.27-.484.282-1.008.212-1.542-.045-.339-.11-.641-.265-.951-.2-.401-.466-.751-.771-1.077a.21.21 0 0 0-.296-.011z"/><path d="M9.741 148.94c-.408.014-.803.152-1.194.254-.029-.002-.051.023-.053.053s.024.051.053.053c.378.144.748.331 1.152.39.261.039.529.028.793.043l1.596.095 3.625.169 13.009.38 3.879-.095.866-.106c.145-.014.299-.05.444-.031.3.037.568.222.867.264.288.04.576-.002.867 0l.877.01 3.508-.01h11.477l8.824.063 14.308.074 9.194.169 6.425.233c.349.012.642-.264.655-.613s-.253-.643-.602-.655c-2.151.001-4.306-.108-6.457-.159l-8.359-.116a893.04 893.04 0 0 0-14.731 0l-9.257.106-11.477.031c-1.314 0-2.628-.018-3.942-.021-.291 0-.586-.009-.877-.01-.145-.001-.289-.018-.433 0-.3.038-.566.22-.867.253-.289.033-.578-.056-.866-.095l-.866-.095-3.445-.137-13.389-.264-4.016-.159-1.585-.074zm69.377-41.703c-.058.006-.101.058-.095.116-.012.384.042.739.085 1.12.041.368.07.74.169 1.098.134.489.342.961.581 1.405a.2.2 0 0 0 .275.074c.098-.054.138-.176.085-.274-.325-.581-.635-1.161-.782-1.817-.121-.539-.076-1.089-.201-1.627-.006-.058-.058-.101-.116-.095z"/><path d="M79.436 110.712c-.834-.029-1.488.626-1.49 1.447-.003.877.533 1.564 1.173 2.113.886.76 2.387.899 2.949-.307a2.27 2.27 0 0 0 .2-.612 2.28 2.28 0 0 0-.053-.877c-.107-.431-.345-.834-.761-1.025-.14-.064-.486-.074-.486-.074l-.116.021-.127.032-.095.084s.905.453 1.109.919c.119.271.141.574.116.867-.015.178-.048.352-.116.517-.447 1.087-1.669.676-2.431.201-.963-.601-1.445-2.633.011-2.947.128-.028.302-.068.433-.053.055.006.111.013.159.042.277.171.002-.002.169.095.103.019.179-.057.222-.148-.115-.071-.212-.204-.338-.264-.056-.026-.129.014-.19.011-.114-.006-.225-.038-.338-.042z"/><path d="M80.075 114.492c-.047.001-.075.041-.074.091-.023 1.137.08 2.347.465 3.415.128.353.148.321.338.638.007.019.024.019.042.011s.029-.026.021-.045c-.077-.358.028-.364-.063-.718l-.539-2.219c-.061-.357-.083-.721-.106-1.082-.001-.05-.038-.092-.084-.091z"/><path d="M81.095 118.38c-.098-.031-.195-.068-.296-.084-.052-.009-.098.044-.148.063-.089.034-.173.055-.264.085-.635.209-1.002.888-1.014 1.531-.025 1.25.531 2.759 1.775 3.264.855.348 2.03.057 2.431-.824.225-.493.205-1.069.063-1.584-.184-.667-.675-1.663-1.331-1.975-.445-.212-.005-.001-.233-.116-.121-.081-.279-.048-.359.073s.074.36.074.36l.169.158.465.475c.395.467.679.981.761 1.595.043.322.018.67-.159.951-.379.606-1.344.691-1.923.359-.973-.556-1.405-1.911-1.279-2.968.05-.419.877-1.099.877-1.099l.127.022.148.031s.216-.109.211-.232c-.002-.05-.066-.048-.095-.085z"/><path d="M82.003 123.114c-.068.008-.114.07-.105.137l-.042.56-.021.285-.01.275-.021.286c.031-.471-.005-.001-.021.285-.006.147.107.268.254.274s.275-.253.275-.253l.01-.581-.042-.592-.032-.296s-.005.008-.105-.274c-.008-.068-.07-.114-.138-.106zm-.339 4.193c-.052-.003-.092.033-.095.084l-.053.307c.011-.05-.029.209-.021.158-.011.073-.04.197-.031.148.036-.205-.003.006-.043.317-.01.086.051.159.138.169s.169-.051.18-.137l.032-.317.01-.317s-.001.002-.021-.317c.003-.052-.043-.093-.095-.095z"/><path d="M80.545 128.597a1.62 1.62 0 0 0-.698.116 2.79 2.79 0 0 0-1.046.718c-.066.071-.12.145-.18.222s-.169.243-.169.243l-.148.243s-.016.359.148.444.444-.138.444-.138l.105-.222.116-.211c.083-.138.18-.269.285-.391a1.98 1.98 0 0 1 1.046-.633c.028-.007.056-.007.084-.011l.423-.253c.042-.031-.079-.055-.127-.074-.071-.03-.209-.048-.285-.053zm1.965 1.372c-.055.041-.062.115-.021.169.557 1.211-.728 2.373-1.775 2.736-.522.182-1.174.157-1.596-.243-.343-.325-.465-.797-.539-1.246-.016-.109-.113-.185-.222-.169s-.185.124-.169.232c.053.434.15.853.391 1.226.957 1.479 3.122.558 4.016-.507.549-.655.789-1.529.095-2.176-.041-.055-.124-.062-.18-.022z"/></g></g><defs><radialGradient id="A" cx="0" cy="0" r="1" gradientUnits="userSpaceOnUse" gradientTransform="translate(101.143 53.8289) scale(7.33444 7.33149)"><stop stop-color="#dea88e"/><stop offset="1" stop-color="#f5e8d6"/></radialGradient><radialGradient id="B" cx="0" cy="0" r="1" gradientUnits="userSpaceOnUse" gradientTransform="translate(82.8385 47.7521) scale(7.0493 7.04647)"><stop stop-color="#dea88e"/><stop offset="1" stop-color="#f5e8d6"/></radialGradient><radialGradient id="C" cx="0" cy="0" r="1" gradientUnits="userSpaceOnUse" gradientTransform="translate(96.2948 135.288) scale(9.50082 9.49701)"><stop stop-color="#dea88e"/><stop offset="1" stop-color="#f5e8d6"/></radialGradient><clipPath id="D"><path fill="#fff" d="M0 0h127v152H0z"/></clipPath></defs></svg>