<svg width="127" height="152" viewBox="0 0 127 152" fill="none" xmlns="http://www.w3.org/2000/svg">
<g clip-path="url(#clip0_2196_1242)">
<path d="M89.2841 82.237L89.4353 95.6392L86.4939 105.681L79.2085 109.255L71.0178 105.183L65.9045 90.5279L53.9199 71.2653C53.9199 71.2653 56.9654 69.802 59.1922 68.2089C61.4194 66.6154 62.6063 65.1697 62.6063 65.1697L78.9918 37.5778L85.2177 37.9111L112.191 31.1738C112.191 31.1738 113.558 42.4461 113.484 42.8507C113.41 43.2556 111.321 48.6631 111.321 48.6631C111.321 48.6631 111.695 50.8839 112.202 52.6494C112.709 54.4146 113.916 54.8855 113.753 55.7549C113.471 57.2611 111.003 58.6619 111.003 58.6619C111.003 58.6619 108.983 59.0581 108.82 59.8085C108.454 61.4929 109.23 61.4331 109.299 63.0969C109.326 63.7543 108.695 64.8894 108.301 65.6649L105.752 65.9045L102.081 65.0612C102.081 65.0612 102.15 66.2777 103.685 67.2658C104.72 67.9327 107.856 68.2089 107.856 68.2089L106.036 75.0212C106.036 75.0212 104.955 75.7821 103.873 75.6489C100.184 75.1949 94.0678 73.7813 94.0678 73.7813C94.0678 73.7813 91.446 73.8168 89.1915 74.8325C86.9369 75.8483 84.5021 77.6358 84.5021 77.6358C84.5021 77.6358 85.3733 79.1657 86.5088 80.5283C87.6447 81.8906 89.2841 82.237 89.2841 82.237Z" fill="#F5E8D6"/>
<path d="M98.4569 62.7051C98.4569 62.7051 97.2405 66.325 95.571 68.6655C93.9011 71.0064 91.7778 72.0671 91.7778 72.0671L89.8242 70.8039L94.7286 66.9227L98.4569 62.7051Z" fill="#E3CABA"/>
<path opacity="0.693929" d="M99.4892 45.1777C99.4892 45.1777 105.339 46.9264 107.855 48.8775C110.371 50.8286 110.457 51.9298 109.999 54.6209C109.54 57.3116 108.153 60.0757 105.091 60.8416C102.028 61.6076 94.6646 61.6113 94.6646 61.6113C94.6646 61.6113 92.9927 55.085 93.8081 51.5573C94.6234 48.0293 99.4892 45.1777 99.4892 45.1777Z" fill="url(#paint0_radial_2196_1242)"/>
<path opacity="0.697674" d="M85.7603 47.5922C85.7603 47.5922 86.3561 45.0279 85.5276 43.0301C84.6991 41.0324 84.2196 39.921 82.4463 39.6012C80.6729 39.2814 79.2777 39.6884 78.4346 41.7514C77.5916 43.8147 78.9578 45.6958 79.1319 48.4541C79.3064 51.2124 78.5104 51.249 79.1319 52.7853C79.7538 54.3216 81.5603 53.9995 81.5603 53.9995L81.6323 55.9029C81.6323 55.9029 83.8747 56.4313 85.0592 55.4141C86.2438 54.397 86.3706 51.8348 86.3706 51.8348L87.2428 47.4181L85.7603 47.5922Z" fill="url(#paint1_radial_2196_1242)"/>
<path d="M53.9367 70.379C55.6332 70.1694 60.2407 75.5285 63.92 82.2049C67.5995 88.8813 68.7337 97.4747 68.7337 97.4747C68.7337 97.4747 70.808 104.041 74.3165 105.777C77.8249 107.513 81.1565 107.847 83.1703 105.95C86.6733 102.651 87.7453 100.106 88.0662 92.7166C88.3304 86.6388 87.723 81.4285 87.723 81.4285C87.723 81.4285 89.1649 82.1873 92.5432 83.266C95.9215 84.345 99.4441 82.6626 101.236 85.7437C104.5 91.356 103.339 102.469 103.339 102.469C103.339 102.469 103.739 112.337 103.133 116.445C102.183 122.897 102.36 129.142 102.36 129.142L99.1387 128.986L79.3487 138.452L50.456 135.547L25.054 132.016C25.054 132.016 2.4065 131.653 2.63452 129.492C2.82143 127.72 10.4544 113.371 17.1902 100.682C23.9259 87.9923 28.2339 77.9431 30.9107 77.4918C36.7518 76.5068 49.4195 70.9364 53.9367 70.379Z" fill="#C46B57"/>
<path d="M49.4174 104.148C49.9761 107.329 50.6602 109.317 48.6576 114.004C46.4598 119.147 41.4908 121.741 46.3902 127.046C51.2892 132.351 59.1934 134.381 68.2545 135.223C77.0711 136.042 79.6703 134.871 80.9296 135.223C82.6698 135.708 75.7895 137.145 75.7895 137.145C75.7895 137.145 58.7034 135.795 53.0868 134.381C47.4699 132.968 42.5341 130.743 42.5341 130.743L33.6387 127.971L38.2181 121.721L45.5366 108.299L46.4226 105.489C46.4226 105.489 48.8588 100.966 49.4174 104.148Z" fill="#A05B52"/>
<path d="M2.63103 133.024C3.02885 129.589 5.94339 127.285 5.94339 127.285C5.94339 127.285 7.59457 126.29 10.8488 126.067C14.1031 125.844 15.4231 126.108 18.3941 126.487C21.365 126.867 22.9667 127.843 22.9667 127.843C22.9667 127.843 26.9426 126.793 32.0834 127.64C37.2242 128.488 45.8112 132.644 56.7167 135.08C67.6218 137.516 71.65 137.189 74.4486 137.069C79.1491 136.866 83.0478 132.818 83.0478 132.818C83.0478 132.818 88.0966 126.289 89.0496 125.552C90.5331 124.404 96.8344 122.122 100.79 120.477C104.25 119.038 102.856 122.911 102.856 122.911L97.2 127.543L99.5925 129.253C99.5925 129.253 105.122 128.975 109.144 129.066C113.166 129.158 113.67 128.999 115.682 129.619C117.693 130.239 117.718 132.136 116.012 132.489C114.344 132.834 108.14 134.682 108.14 134.682L108.811 135.741C108.811 135.741 112.624 135.854 113.36 136.685C114.095 137.517 113.869 138.495 113.241 139.457C112.614 140.419 108.047 141.072 108.047 141.072C108.047 141.072 109.85 143.227 108.729 144.727C107.607 146.227 104.793 146.736 104.793 146.736C104.793 146.736 104.954 148.001 104.345 148.91C103.719 149.843 101.075 150.757 99.9783 150.715C75.7387 149.784 7.98573 149.691 7.98573 149.691C7.98573 149.691 2.89088 146.985 1.58286 142.677C0.274839 138.369 2.23322 136.459 2.63103 133.024Z" fill="#F5E8D6"/>
<path d="M1.10352 139.08L7.10147 143.705C7.10147 143.705 14.7007 142.949 22.2637 143.338C29.8266 143.726 35.0286 145.252 45.8211 145.252C65.1161 145.252 99.4164 145.375 99.4164 145.375L109.281 143.112C109.281 143.112 109.358 144.376 107.856 145.38C106.353 146.385 103.27 147.128 103.27 147.128C103.27 147.128 105.355 146.729 105.045 147.629C104.735 148.529 102.031 150.729 102.031 150.729L22.9138 149.463L9.35438 149.246L7.85013 149.745C7.85013 149.745 5.0223 148.085 3.20037 145.56C1.37844 143.035 1.10352 139.08 1.10352 139.08Z" fill="#E3CABA"/>
<path d="M113.538 137.998L104.458 140.206L104.031 141.371C104.031 141.371 109.116 140.738 111.492 139.895C113.869 139.052 113.538 137.998 113.538 137.998Z" fill="#E3CABA"/>
<path d="M104.032 135.747C104.032 135.747 103.933 134.148 107.292 132.976C110.651 131.804 118.216 130.294 117.468 131.059C115.446 133.126 104.032 135.747 104.032 135.747Z" fill="#E3CABA"/>
<path d="M102.985 121.195C102.985 121.195 99.3339 124.456 96.8193 126.01C94.3051 127.563 92.9277 127.409 92.9277 127.409L96.6391 128.458L98.2051 128.492L97.1609 127.464L100.855 124.633L102.831 122.313L102.985 121.195Z" fill="#E3CABA"/>
<path d="M81.0736 54.8359C81.0736 54.8359 79.9779 64.0232 80.5045 69.9678C81.0306 75.9127 83.179 78.6149 83.179 78.6149C83.179 78.6149 87.0885 75.6662 89.806 74.4149C92.5235 73.1632 94.0489 73.6087 94.0489 73.6087L90.223 71.0599L84.1911 65.0907L81.6691 55.5275L81.0736 54.8359Z" fill="#E3CABA"/>
<path opacity="0.593023" d="M101.293 144.352C104.363 143.114 104.895 139.081 104.895 139.081C104.895 139.081 103.527 136.987 104.031 135.223C104.534 133.46 106.91 132.027 106.91 132.027L104.079 129.061L92.252 130.019C92.252 130.019 88.2908 130.031 86.3615 132.027C84.4323 134.024 82.9711 135.006 84.5348 138.007C86.0988 141.008 88.4277 142.446 92.6172 144.032C96.8068 145.618 98.2237 145.589 101.293 144.352Z" fill="url(#paint2_radial_2196_1242)"/>
<path d="M99.5115 74.9548L94.0102 73.4922L91.1953 73.8312C91.1953 73.8312 91.1706 78.0184 92.6511 84.0559C94.1316 90.0934 94.0352 91.7149 96.0855 95.7436C98.1362 99.7722 98.408 99.2023 100.513 99.9642C101.92 100.474 104.551 98.6584 104.551 98.6584C104.551 98.6584 102.431 99.8584 100.615 98.5705C98.7993 97.2823 98.0509 96.4872 97.2336 92.6482C96.4159 88.8093 97.3452 83.2146 97.3452 83.2146L99.5115 74.9548Z" fill="#E0BD6F"/>
<path d="M111.447 49.0892C111.447 49.0892 110.936 47.5451 111.191 44.5377C111.445 41.5306 112.459 39.7417 112.551 36.378C112.643 33.0143 111.501 30.9408 111.501 30.9408C111.501 30.9408 105.795 38.3071 100.133 43.5084C97.1703 46.2292 101.093 56.9791 99.3856 60.8113C95.7091 69.0619 86.3369 73.1774 86.3369 73.1774C86.3369 73.1774 83.9663 74.8791 85.509 72.4943C87.1826 69.9077 88.983 66.8482 89.3607 62.2267C89.7388 57.6048 87.5154 57.7434 87.0203 54.0072C86.5252 50.271 87.3801 47.2814 87.3801 47.2814L85.6778 47.4957C85.6778 47.4957 86.0119 43.5577 84.855 41.6374C84.0188 40.2491 83.4476 39.664 81.4741 39.8205C79.5002 39.977 76.6789 41.4332 76.6789 41.4332L78.4259 48.7654L74.2472 56.4532L72.0836 56.3021L70.6839 60.3361L68.2755 59.6529L64.1093 65.5417C64.1093 65.5417 62.1703 64.6757 60.608 63.2441C59.0457 61.8126 57.8604 59.8155 57.8604 59.8155C57.8604 59.8155 58.0887 62.3531 57.4864 64.7622C56.8838 67.171 55.4506 69.4513 55.4506 69.4513L54.965 70.6855C54.965 70.6855 54.3009 70.5016 53.775 70.5016C53.0862 70.5016 50.5026 71.1124 47.5031 71.9359C43.2551 73.1024 38.2317 75.0224 38.2317 75.0224L39.888 70.6983C39.888 70.6983 36.8557 72.3347 34.5166 72.8431C32.1775 73.3512 28.8388 72.573 30.4092 72.3682C33.4656 71.97 37.5895 67.432 40.5873 60.977C43.5956 54.4987 44.2733 53.4663 44.7477 43.8187C45.2259 34.0983 45.1437 22.3773 45.1437 22.3773C45.1437 22.3773 45.5996 16.3073 49.1118 11.2771C52.6239 6.24704 53.8599 3.96136 59.1928 2.25689C64.5256 0.552384 68.3398 1.2401 71.5801 2.63075C74.82 4.0214 73.6868 7.6313 73.6868 7.6313C73.6868 7.6313 79.1326 7.46935 87.9557 7.46935C93.1046 7.46935 98.5128 8.75518 104.923 14.1735C110.265 18.6892 112.417 20.7409 114.95 27.4672C117.484 34.1937 116.146 37.3502 115.056 41.079C113.645 45.9057 111.447 49.0892 111.447 49.0892Z" fill="#E0BD6F"/>
<path d="M99.2062 44.8619L95.253 46.2952C95.253 46.2952 89.5553 47.6348 90.3733 46.8624C90.9746 46.2952 93.1037 42.8686 93.1037 41.8251C93.1037 40.7816 90.3733 42.6887 90.3733 42.6887C90.3733 42.6887 90.9019 41.4255 91.6577 38.1355C92.4135 34.8458 93.3962 29.5293 93.3962 29.5293C93.3962 29.5293 93.5382 32.3846 93.1037 34.978C92.6691 37.5713 92.1206 40.4317 92.1206 40.4317L94.6646 39.423C94.6646 39.423 95.324 40.8299 95.0555 42.0691C94.787 43.3087 92.5207 44.6973 94.0481 44.6882C95.5753 44.679 101.27 41.8251 101.27 41.8251L99.2062 44.8619Z" fill="#B69C65"/>
<path d="M57.9191 16.1095C58.9806 14.2297 61.8726 13.7536 63.2073 11.6791C64.542 9.6047 63.1305 7.4687 63.1305 7.4687C63.1305 7.4687 60.7705 5.53504 57.9191 7.82965C55.0677 10.1242 54.0667 11.8473 51.8744 19.8651C49.6821 27.883 49.1502 39.9009 49.1502 39.9009C49.1502 39.9009 46.9666 57.5562 47.6477 62.705C48.3288 67.8535 51.8744 56.0712 51.8744 60.4953C51.8744 65.2176 44.4199 73.3329 44.4199 73.3329C44.4199 73.3329 48.5749 71.1496 51.1565 70.5168C53.7384 69.8844 54.7468 70.8021 54.7468 70.8021C54.7468 70.8021 56.7697 68.0881 57.5025 65.3575C58.2353 62.6273 57.6783 59.8801 57.6783 59.8801C57.6783 59.8801 53.5142 52.9208 52.2816 45.7613C51.049 38.6022 52.7479 31.243 52.7479 31.243C52.7479 31.243 55.1921 20.9389 57.9191 16.1095Z" fill="#B69C65"/>
<path d="M106.702 46.3682C106.702 46.3682 105.728 47.5202 104.526 47.2092C103.323 46.8982 101.891 45.1249 101.891 45.1249L101.96 42.8561L105.292 42.6895L106.522 44.0375L106.702 46.3682Z" fill="#FFF7F7"/>
<path d="M29.9575 127.107C27.551 127.013 25.1404 127.189 22.7609 127.551C20.7888 127.851 18.7872 128.227 16.9593 129.051C16.9075 129.069 16.878 129.126 16.8959 129.177C16.9138 129.229 16.9709 129.259 17.0227 129.241C17.5893 129.101 18.1376 128.92 18.703 128.776C19.6656 128.531 20.6417 128.296 21.6196 128.121C24.8422 127.546 28.1771 127.484 31.4265 127.857C33.2113 128.062 34.9129 128.597 36.6149 129.146C40.258 130.32 43.806 131.769 47.4362 132.98C48.5768 133.361 49.7157 133.745 50.8709 134.079C54.7784 135.209 58.8046 135.993 62.8226 136.614C64.0167 136.799 65.2138 136.995 66.416 137.121C66.9861 137.181 67.5566 137.208 68.1278 137.259C70.6873 137.483 73.2574 137.595 75.821 137.364C76.0131 137.347 76.1558 137.176 76.1382 136.984C76.1203 136.792 75.9498 136.649 75.7574 136.667C73.2425 136.906 70.709 136.772 68.2018 136.498C67.0541 136.373 65.9111 136.192 64.7671 136.033C62.5869 135.731 60.421 135.339 58.2574 134.935C56.6451 134.633 55.0411 134.307 53.4494 133.91C51.5138 133.427 49.5947 132.801 47.7111 132.146C45.0592 131.224 42.4449 130.224 39.796 129.294C37.2341 128.394 34.6241 127.587 31.9232 127.234C31.2679 127.148 30.6172 127.133 29.9575 127.107Z" fill="#070D1C"/>
<path d="M12.7524 125.807C10.7154 125.822 8.66747 126.093 6.78167 126.874C6.02435 127.188 5.27684 127.583 4.63642 128.099C4.09786 128.534 3.65994 129.062 3.27321 129.631C3.14515 129.823 3.19763 130.084 3.38944 130.212C3.58125 130.34 3.84261 130.287 3.97064 130.096C4.44116 129.378 5.02271 128.748 5.7249 128.247C7.17428 127.214 8.95988 126.838 10.6917 126.61C11.7429 126.471 12.7802 126.416 13.8408 126.431C14.4457 126.438 15.0441 126.484 15.6479 126.515C16.5214 126.559 17.3919 126.639 18.2581 126.769C18.9174 126.867 19.5739 126.994 20.2342 127.085C20.4761 127.119 20.7242 127.132 20.9634 127.18C21.2821 127.246 21.6095 127.404 21.9356 127.423C22.0437 127.43 22.1448 127.412 22.2527 127.402C22.2708 127.407 22.2901 127.389 22.295 127.371C22.2998 127.352 22.292 127.333 22.2738 127.328C22.1843 127.267 22.0971 127.196 21.9991 127.149C21.8342 127.07 21.5385 127.026 21.365 126.99C21.0578 126.926 20.9715 126.91 20.6675 126.821C19.6188 126.515 18.5555 126.328 17.4761 126.166C16.5822 126.032 15.6835 125.926 14.7813 125.87C14.1095 125.83 13.4314 125.802 12.7524 125.807Z" fill="#070D1C"/>
<path d="M3.17864 130.095C3.04821 130.067 2.92099 130.155 2.89333 130.285C2.80486 130.493 2.68248 130.769 2.61853 130.982C2.42494 131.628 2.33184 132.326 2.217 132.99C2.16384 133.296 2.07967 133.602 2.02675 133.908C2.00676 134.024 1.98904 134.14 1.97393 134.257C1.9698 134.289 1.96747 134.32 1.96337 134.352C1.96206 134.362 1.9604 134.393 1.96337 134.384C2.00967 134.234 1.94941 134.381 1.93166 134.415C1.85783 134.559 1.79047 134.703 1.7203 134.849C1.5804 135.139 1.46654 135.432 1.361 135.736C1.06545 136.587 0.71423 137.497 0.67409 138.408C0.619713 139.645 0.787646 140.901 1.14965 142.084C1.25134 142.417 1.40162 142.719 1.5195 143.046C1.67715 143.482 1.83599 143.926 2.03733 144.345C2.38672 145.073 2.85728 145.745 3.34772 146.384C4.44679 147.815 5.90701 149.1 7.63818 149.68C8.07813 149.827 8.58889 150.04 9.06482 149.933C9.16441 149.911 9.25491 149.864 9.35013 149.827C9.39474 149.831 9.43058 149.798 9.43467 149.754C9.43877 149.709 9.40532 149.673 9.36072 149.669C8.89209 149.369 8.37345 149.305 7.87066 149.088C6.90375 148.671 6.00576 148.029 5.24989 147.303C4.23046 146.323 3.45103 145.194 2.76652 143.965C2.55438 143.584 2.34351 143.195 2.17473 142.792C2.04937 142.493 1.97704 142.174 1.88938 141.863C1.60722 140.861 1.473 139.829 1.57236 138.789C1.71107 137.336 2.29024 135.975 2.72424 134.595C2.87195 134.125 2.89532 133.618 2.98842 133.137C3.16555 132.222 3.35523 131.314 3.36885 130.38C3.39655 130.25 3.30907 130.123 3.17864 130.095Z" fill="#070D1C"/>
<path d="M23.5314 88.3498C23.4552 88.3691 23.3951 88.4143 23.3517 88.4874C22.7158 89.592 22.0721 90.6974 21.439 91.8041C21.2509 92.1327 21.0291 92.4538 20.8683 92.7972C20.8108 92.9199 20.7785 93.0548 20.7204 93.1772C20.6073 93.4158 20.4283 93.6785 20.2977 93.9063C19.995 94.4343 19.7257 94.9839 19.4417 95.5224C18.5698 97.175 17.7014 98.8344 16.8103 100.477C14.0121 105.634 11.2617 110.818 8.57814 116.037C7.83029 117.491 7.09262 118.943 6.34839 120.399C5.98165 121.117 5.59009 121.823 5.22822 122.544C4.8767 123.243 4.55595 123.963 4.21373 124.667C3.84827 125.418 3.41776 126.129 3.08297 126.895C2.9516 127.197 2.81897 127.502 2.69199 127.804C2.51503 128.226 2.34557 128.765 2.43837 129.23C2.50813 129.58 2.79351 130.061 3.19924 130.075C3.34708 130.08 3.48806 130.023 3.62194 129.97C3.68169 129.972 3.72522 129.924 3.72762 129.864C3.73002 129.804 3.68169 129.761 3.62194 129.758C3.49888 129.69 3.24688 129.531 3.19924 129.378C3.1451 129.205 3.20725 128.971 3.23096 128.797C3.30711 128.238 3.46797 127.691 3.70648 127.181C4.058 126.43 4.47919 125.715 4.84779 124.973C5.73334 123.19 6.57324 121.385 7.4897 119.617C9.55213 115.639 11.6216 111.664 13.714 107.702C14.7654 105.711 15.8323 103.73 16.8738 101.734C17.9054 99.7565 18.9629 97.796 20.0335 95.8395C20.3254 95.3057 20.634 94.7754 20.9106 94.2338C21.0302 93.9992 21.1523 93.7089 21.291 93.4838C21.3621 93.3685 21.4623 93.2711 21.5341 93.1562C21.7348 92.8351 21.8768 92.4774 22.0519 92.1421C22.3059 91.6557 22.5897 91.1811 22.8445 90.695C23.1789 90.0568 23.4916 89.418 23.8695 88.8041C23.9563 88.6584 23.9097 88.4684 23.7639 88.3816C23.6909 88.3383 23.6076 88.3305 23.5314 88.3498Z" fill="#070D1C"/>
<path d="M30.8447 76.9308C30.7436 76.9433 30.652 77.0153 30.5593 77.0576C30.468 77.0992 30.3726 77.136 30.2847 77.1843C29.934 77.3763 29.6747 77.643 29.3865 77.9131C29.0413 78.237 28.7014 78.5662 28.3825 78.9167C27.6072 79.7686 27.1067 80.7701 26.6071 81.8005C26.2676 82.5005 25.9399 83.2023 25.6243 83.9131C24.9793 85.366 24.2472 86.7647 23.4685 88.1493C23.3775 88.2852 23.4065 88.4701 23.5425 88.561C23.6784 88.652 23.8636 88.6124 23.9546 88.4765C24.3385 87.9877 24.7014 87.4851 25.0114 86.9449C25.3137 86.4179 25.55 85.848 25.804 85.297C26.523 83.7374 27.1295 82.1212 28.0231 80.6491C28.5129 79.8423 29.0332 78.9691 29.7775 78.3674C30.1231 78.0879 30.5187 77.8624 30.8765 77.5964C30.9516 77.5403 31.0486 77.4994 31.1088 77.4274C31.1846 77.3368 31.2218 77.2246 31.2779 77.1208C31.3181 77.1005 31.33 77.0447 31.3097 77.0048C31.2894 76.9646 31.2441 76.9528 31.2038 76.9731C31.0838 76.9589 30.9651 76.9159 30.8447 76.9308Z" fill="#070D1C"/>
<path d="M46.4849 105.41C46.4156 105.393 46.3544 105.436 46.3368 105.505C45.5692 107.778 44.6801 110.005 43.5365 112.118C43.0197 113.073 42.4655 114.028 41.8561 114.928C41.5453 115.387 41.2035 115.826 40.8842 116.28C40.3513 117.037 39.8539 117.812 39.3094 118.561C38.9841 119.01 38.6067 119.429 38.2739 119.871C37.4062 121.023 36.5987 122.214 35.7482 123.378C34.8558 124.6 33.9502 125.812 33.0429 127.023C32.8586 127.28 32.9117 127.641 33.1697 127.825C33.4277 128.01 33.7885 127.946 33.9728 127.688C34.8223 126.444 35.7022 125.219 36.6041 124.012C37.4701 122.853 38.3815 121.715 39.1934 120.516C39.5059 120.054 39.772 119.575 40.0808 119.111C40.5981 118.333 41.1423 117.567 41.6238 116.766C42.0086 116.126 42.337 115.447 42.7124 114.801C44.3846 111.922 46.0297 108.889 46.5799 105.569C46.5972 105.499 46.5542 105.427 46.4849 105.41Z" fill="#070D1C"/>
<path d="M47.5937 100.371C47.5463 100.399 47.5331 100.461 47.5622 100.508C47.8226 101.284 48.1588 102.031 48.4076 102.811C48.5094 103.13 48.5649 103.462 48.6613 103.783C48.9149 104.628 49.181 105.491 49.2845 106.371C49.3088 106.575 49.2774 106.79 49.3058 106.994C49.3464 107.287 49.4286 107.549 49.4431 107.85C49.4451 107.973 49.5418 108.073 49.6649 108.071C49.7884 108.069 49.8891 107.962 49.8868 107.839C49.8912 107.542 49.9487 107.235 49.9399 106.941C49.9301 106.625 49.8394 106.284 49.8022 105.969C49.7353 105.398 49.6237 104.832 49.5067 104.269C49.436 103.929 49.3667 103.572 49.2531 103.244C49.1763 103.024 49.0759 102.816 48.9886 102.6C48.7488 102.006 48.527 101.361 48.1327 100.846C48.0184 100.697 47.8618 100.537 47.7313 100.402C47.7022 100.355 47.641 100.342 47.5937 100.371Z" fill="#070D1C"/>
<path d="M30.8346 77.3849C30.5229 77.3778 30.2709 77.6226 30.2638 77.9342C30.2567 78.2455 30.5019 78.4974 30.8133 78.5045C31.1633 78.5102 31.5353 78.5035 31.8387 78.7053C32.0916 78.8739 32.2722 79.1548 32.4832 79.3708C32.8261 79.722 33.2366 80.0283 33.6877 80.2264C33.8017 80.2764 33.9143 80.3406 34.0367 80.3636C34.754 80.4988 35.4026 80.2852 36.0972 80.1524C36.4242 80.0898 36.739 80.0607 37.0589 79.9729C37.485 79.8559 38.1123 79.6118 38.5593 79.7193C38.8545 79.7903 39.3371 80.1246 39.4474 80.4272C39.5312 80.6584 39.5545 80.9031 39.6374 81.135C39.7784 81.5288 40.1724 82.0923 40.5038 82.3391C40.8558 82.601 41.3127 82.7569 41.7087 82.9306C42.1659 83.1311 42.6203 83.3332 43.0826 83.5222C43.4012 83.6523 43.7163 83.7862 44.044 83.892C44.133 83.9207 44.2188 83.9403 44.3081 83.9657C44.3453 84.038 44.3774 84.1046 44.414 84.1773C44.533 84.4139 44.651 84.6552 44.7626 84.8952C45.0886 85.5966 45.4386 86.2866 45.7666 86.9869C46.0101 87.5065 46.2242 88.0413 46.443 88.5716C46.7547 89.3274 47.0872 90.0684 47.2461 90.8743C47.2698 90.9953 47.3891 91.0778 47.5102 91.0538C47.6313 91.0301 47.703 90.9108 47.6793 90.7898C47.3256 88.9783 46.5569 87.2824 45.8934 85.5713C45.679 85.0183 45.4261 84.4869 45.1853 83.9447C45.1106 83.7764 45.0342 83.4616 44.8894 83.3322C44.7758 83.2304 44.6067 83.1757 44.4667 83.1206C44.1773 83.0067 43.8861 82.9086 43.5899 82.8143C42.9102 82.5983 42.2274 82.3762 41.5714 82.096C41.3607 82.0061 41.1172 81.9145 40.9373 81.7685C40.8585 81.7046 40.7635 81.5379 40.7046 81.4517C40.4321 81.0518 40.4483 80.5627 40.2928 80.1209C40.0848 79.5317 39.4007 78.978 38.8025 78.8107C38.3162 78.6752 37.788 78.7904 37.302 78.8638C36.974 78.9131 36.6453 78.9706 36.3298 79.0751C35.6728 79.2921 34.9264 79.5682 34.2268 79.4236C34.1192 79.4013 33.87 79.2221 33.7723 79.1596C33.3195 78.8685 33.079 78.4196 32.705 78.0502C32.1914 77.5435 31.5316 77.4045 30.8346 77.3849Z" fill="#070D1C"/>
<path d="M52.5818 69.9485C51.7056 70.0094 50.8294 70.2261 50.0032 70.4556C48.7493 70.8038 47.5489 71.3193 46.3575 71.8395C45.6541 72.1464 44.9359 72.4391 44.2335 72.7478C43.2687 73.1716 42.307 73.6104 41.3168 73.9731C39.9205 74.4846 38.4729 74.8331 37.0262 75.1667C36.0935 75.382 35.1636 75.5882 34.2259 75.7795C33.1897 75.9908 32.1198 76.1422 31.1188 76.4874C30.8124 76.556 30.617 76.8676 30.6856 77.1739C30.7546 77.4802 31.0556 77.6651 31.3619 77.5964C32.5658 77.4636 33.7572 77.1171 34.9445 76.8781C37.0972 76.4448 39.2574 75.9523 41.3273 75.2089C42.6536 74.733 43.9535 74.1421 45.2162 73.5188C46.7149 72.7792 48.2363 72.1058 49.8024 71.5224C50.2697 71.3483 50.7259 71.1776 51.2081 71.0471C52.248 70.7652 53.5212 70.5749 54.5685 70.9518C56.1176 71.5099 57.1203 72.958 58.0664 74.2162C58.4442 74.7185 58.8635 75.187 59.2605 75.6737C59.367 75.8046 59.4786 75.9387 59.5777 76.0753C59.6798 76.2159 59.7481 76.3775 59.8628 76.5083C59.9821 76.6442 60.1282 76.7487 60.2645 76.8673C60.323 76.9407 60.4343 76.9471 60.5076 76.8886C60.581 76.8301 60.5979 76.7294 60.5391 76.6564C60.4542 76.4978 60.3788 76.3275 60.275 76.1808C60.1756 76.0402 60.0356 75.9337 59.9263 75.8005C59.8205 75.671 59.7265 75.5253 59.6304 75.3888C59.1847 74.755 58.783 74.1012 58.3096 73.487C57.4249 72.3401 56.4838 71.0133 55.1393 70.3711C54.3263 69.9827 53.4579 69.8877 52.5818 69.9485Z" fill="#070D1C"/>
<path d="M60.5605 77.2363C60.5991 77.3594 60.6201 77.4905 60.6769 77.6061C60.7286 77.7119 60.8111 77.7941 60.8774 77.8914C61.0103 78.0851 61.1331 78.2802 61.2687 78.4722C61.6041 78.9488 61.9893 79.3882 62.3359 79.856C62.8915 80.6061 63.3389 81.4164 63.8049 82.2222C64.2185 82.9375 64.6554 83.6257 64.9039 84.4194C64.9232 84.4732 64.977 84.5022 65.0307 84.483C65.0845 84.4637 65.1133 84.3991 65.094 84.3457C64.7795 83.5716 64.5691 82.7604 64.2171 82.0005C63.7704 81.0371 63.1441 80.1501 62.5473 79.2753C62.1394 78.6773 61.6866 78.1473 61.1628 77.6484C61.0766 77.5662 61.0083 77.4615 60.9092 77.3949C60.8023 77.3229 60.6769 77.2914 60.5605 77.2363Z" fill="#070D1C"/>
<path d="M68.1693 87.6529C68.1202 87.6965 68.1148 87.7729 68.1588 87.8219C68.852 88.7441 69.6274 89.601 70.4624 90.3994C71.4765 91.3689 72.5553 92.2528 73.4426 93.3463C73.6371 93.5863 73.797 93.8429 73.9708 94.0964C74.355 94.6562 74.7334 95.3569 74.5203 96.0506C74.499 96.1722 74.5785 96.2933 74.7002 96.3149C74.8216 96.3362 74.9322 96.2568 74.9539 96.1351C74.9694 95.8995 74.9823 95.6415 74.9539 95.4063C74.9052 95.0064 74.7303 94.6268 74.5626 94.2654C74.215 93.5157 73.7257 92.8629 73.1995 92.2268C72.395 91.2539 71.5773 90.2983 70.6105 89.4803C70.1371 89.0801 69.6406 88.7001 69.152 88.3185C68.8744 88.1011 68.5954 87.9068 68.3384 87.6634C68.2947 87.6144 68.2183 87.609 68.1693 87.6529Z" fill="#070D1C"/>
<path d="M85.0136 87.3238C84.8989 87.2782 84.763 87.3255 84.7174 87.4401C84.6731 87.9745 84.4353 88.3558 84.1256 88.7814C83.5733 89.541 82.9163 90.1765 82.2129 90.7991C81.2989 91.6087 80.3523 92.3686 79.5712 93.3134C79.3875 93.5351 79.1674 93.7893 79.0112 94.0317C78.5509 94.7452 78.3122 95.5487 78.1762 96.3766C78.1532 96.5835 78.297 96.766 78.5039 96.7886C78.7105 96.8113 78.8932 96.668 78.9158 96.4611C78.979 95.2739 79.444 94.1807 80.2157 93.2711C81.0963 92.2334 82.2559 91.4627 83.1851 90.4716C83.6176 90.0105 84.0461 89.4967 84.3687 88.9504C84.6345 88.5012 84.8147 88.0225 85.1401 87.6091C85.1857 87.4945 85.1279 87.3695 85.0136 87.3238Z" fill="#070D1C"/>
<path d="M79.149 55.36C79.1182 55.3478 79.0868 55.361 79.0749 55.3914C78.4585 56.5045 78.0476 57.6876 77.701 58.9093C77.1805 60.7451 76.8975 62.6184 76.655 64.5077C76.4941 65.7611 76.3375 67.0186 76.2428 68.2787C76.1948 68.9176 76.162 69.5193 76.2005 70.1592C76.1972 70.197 76.2259 70.2298 76.2638 70.2332C76.302 70.2363 76.3348 70.2079 76.3378 70.1697C76.532 69.351 76.5925 68.5228 76.6865 67.6872C76.8275 66.4382 76.9695 65.1868 77.1833 63.9479C77.4666 62.3058 77.8038 60.663 78.2082 59.0465C78.5112 57.836 78.9018 56.6475 79.1913 55.4337C79.2031 55.4032 79.1794 55.3715 79.149 55.36Z" fill="#070D1C"/>
<path d="M107.872 68.1302C107.827 68.1228 107.785 68.1478 107.777 68.1934C107.734 68.2952 107.609 68.5605 107.577 68.6795C107.487 69.007 107.464 69.3444 107.365 69.6723C107.192 70.2496 106.943 70.8118 106.784 71.3942C106.66 71.8475 106.58 72.3092 106.478 72.7676C106.308 73.5241 106.184 74.5341 105.569 75.0912C105.211 75.4154 104.692 75.437 104.237 75.461C103.946 75.4766 103.653 75.5016 103.36 75.4823C102.563 75.4296 101.763 75.241 100.982 75.0807C99.3362 74.7431 97.7221 74.2816 96.1003 73.8449C95.5403 73.6941 94.9664 73.5616 94.399 73.4437C93.9333 73.3467 93.4714 73.2507 92.9932 73.2638C92.157 73.2875 91.3288 73.5285 90.552 73.8236C88.9163 74.4456 87.423 75.3816 85.9658 76.3379C85.0558 76.9348 84.181 77.4966 83.4401 78.3025C82.5795 79.2388 81.9004 80.3378 81.2951 81.4505C80.308 83.2647 79.5279 85.1841 78.7163 87.0807C78.2702 88.1236 77.8134 89.1643 77.3217 90.1865C77.0204 90.8126 76.6677 91.4092 76.4127 92.0562C76.4039 92.0714 76.4083 92.0896 76.4232 92.0984C76.4384 92.1072 76.4567 92.1028 76.4655 92.088C76.9061 91.5376 77.2145 90.9133 77.5222 90.2815C77.7951 89.7214 78.0514 89.161 78.3044 88.5914C79.348 86.2394 80.3199 83.858 81.5592 81.5983C82.43 80.0105 83.482 78.3944 85.0254 77.3837C86.5066 76.4132 88.0374 75.4816 89.6221 74.69C90.667 74.1681 91.8168 73.6786 93.0037 73.6546C94.0098 73.6347 95.0297 73.9842 95.9944 74.2252C97.9977 74.7258 99.9858 75.3613 102.029 75.6828C102.463 75.751 102.892 75.7865 103.329 75.8308C104.316 75.9316 105.408 76.0103 106.118 75.1652C106.65 74.5338 106.768 73.632 106.9 72.8521C107.004 72.2416 107.137 71.6362 107.323 71.0457C107.444 70.6614 107.567 70.277 107.693 69.8944C107.813 69.5259 107.947 69.1311 107.967 68.7427C107.974 68.6274 107.945 68.3256 107.936 68.2252C107.943 68.1792 107.918 68.1373 107.872 68.1302Z" fill="#070D1C"/>
<path d="M99.5236 75.1449C99.4459 75.1739 99.3806 75.2324 99.3437 75.3139C98.8727 75.9375 98.6779 76.7299 98.4564 77.4688C98.1646 78.441 97.8903 79.4159 97.6637 80.4053C97.378 81.6519 97.2241 82.9229 97.0297 84.1871C96.8264 85.5081 96.6834 86.8356 96.5965 88.1694C96.4572 90.3037 96.4893 92.4607 96.9979 94.5497C97.4426 96.3764 98.4699 98.2173 100.305 98.9336C100.74 99.1029 101.184 99.1885 101.648 99.2294C102.189 99.277 102.671 99.2348 103.201 99.1236C103.682 99.0228 104.134 98.9539 104.585 98.7538C104.647 98.7375 104.676 98.678 104.659 98.6165C104.643 98.555 104.584 98.5155 104.522 98.532C104.061 98.581 103.612 98.7193 103.148 98.7433C102.364 98.7839 101.485 98.7348 100.739 98.4793C98.5643 97.7346 97.6702 95.3032 97.3256 93.2294C97.1054 91.9063 97.0719 90.5934 97.0719 89.2575C97.0716 87.2361 97.3154 85.1988 97.706 83.2153C97.8179 82.6464 98.0005 82.1076 98.1392 81.5461C98.2701 81.0161 98.3891 80.4789 98.5301 79.9513C98.7313 79.1978 98.9403 78.4488 99.196 77.7115C99.4415 77.0037 99.7803 76.3141 99.925 75.5779C99.9988 75.415 99.9298 75.229 99.7664 75.1553C99.6849 75.1185 99.6011 75.1155 99.5236 75.1449Z" fill="#070D1C"/>
<path d="M90.9436 73.6983C90.7391 73.7132 90.5903 73.8846 90.6055 74.0891C90.5994 74.3139 90.5649 74.5515 90.5737 74.7756C90.5889 75.1603 90.6998 75.547 90.7533 75.927C90.8212 76.41 90.8794 76.892 90.9541 77.3741C91.2669 79.3975 91.6298 81.4071 92.0741 83.4058C92.2652 84.2644 92.4265 85.1284 92.6345 85.9833C93.0223 87.5778 93.4866 89.1439 93.9553 90.7157C94.5383 92.6705 95.2272 94.6493 96.2166 96.4412C97.3542 98.5005 99.2483 100.992 101.934 100.424C102.438 100.317 102.88 100.096 103.318 99.832C103.603 99.6602 103.947 99.4649 104.185 99.2299C104.276 99.1393 104.349 99.0254 104.428 98.9234C104.491 98.871 104.491 98.7753 104.438 98.7124C104.386 98.6492 104.301 98.6492 104.238 98.7016C103.83 98.9088 103.486 99.1999 103.086 99.4199C102.569 99.7042 101.944 99.8986 101.353 99.927C99.2097 100.031 97.6576 97.7906 96.7452 96.1454C96.5666 95.8233 96.3938 95.5018 96.2275 95.1736C95.9914 94.7075 95.7814 94.2302 95.5829 93.7475C95.101 92.5769 94.6391 91.3677 94.2722 90.1559C93.7998 88.5946 93.4288 87.0156 93.0781 85.4235C92.6882 83.6526 92.3595 81.8641 92.1059 80.0678C91.9747 79.1372 91.8364 78.2019 91.7255 77.2686C91.6592 76.7081 91.5787 76.1419 91.5459 75.5784C91.529 75.2864 91.5277 74.9808 91.4823 74.6911C91.4485 74.4738 91.3839 74.2537 91.345 74.0364C91.3298 73.8319 91.1479 73.6831 90.9436 73.6983Z" fill="#070D1C"/>
<path d="M67.7358 60.4203C67.659 60.377 67.5677 60.4071 67.5244 60.4838C67.1237 60.9141 66.888 61.4523 66.584 61.9522C65.9432 63.0045 65.2127 64.1846 64.2273 64.9519C64.0883 65.0601 63.9395 65.1493 63.7941 65.248C63.7806 65.2568 63.739 65.2788 63.7201 65.2794C63.5567 65.2855 63.4093 65.0472 63.3078 64.9519C63.2088 64.8593 63.1205 64.7423 63.0015 64.6774C62.8615 64.601 62.7056 64.5226 62.547 64.5402C62.385 64.5577 62.2538 64.6737 62.1243 64.7724C61.9315 64.9194 61.6559 65.2764 61.4902 65.4589C60.9346 66.0724 60.3492 66.6691 59.7149 67.2021C58.953 67.842 58.1387 68.4434 57.2845 68.9555C56.5175 69.4152 55.71 69.782 54.9278 70.2126C54.6958 70.3319 54.6076 70.6149 54.7269 70.8464C54.8463 71.078 55.1293 71.177 55.361 71.0577C56.1878 70.6595 56.9602 70.165 57.7281 69.6633C58.8451 68.9335 59.8995 68.1574 60.8562 67.2231C61.3786 66.713 61.9089 66.1779 62.3251 65.5752C62.4053 65.4589 62.4607 65.3251 62.5365 65.2054C62.5544 65.177 62.5764 65.1334 62.6106 65.1317C62.642 65.13 62.6498 65.1743 62.6738 65.1949C62.7529 65.2639 62.8354 65.3298 62.9169 65.3957C63.1888 65.6154 63.5273 65.9305 63.9101 65.8287C64.1749 65.7584 64.3656 65.4691 64.5337 65.3007C64.7724 65.0611 65.0281 64.8363 65.2628 64.5929C66.0091 63.8188 66.6006 62.8916 67.1332 61.9627C67.3848 61.5243 67.6563 61.1308 67.799 60.642C67.8426 60.5656 67.8122 60.4639 67.7358 60.4203Z" fill="#070D1C"/>
<path d="M90.3609 70.8883C90.3027 70.8433 90.2263 70.8511 90.1813 70.9096C90.1363 70.9677 90.1441 71.0546 90.2023 71.0995C90.6405 71.5201 91.1055 71.9385 91.629 72.2509C92.1122 72.5396 92.632 72.791 93.1297 73.0537C93.5173 73.2585 93.9109 73.5773 94.3661 73.508C94.3718 73.511 94.3843 73.5033 94.387 73.4975C94.3901 73.4918 94.3823 73.4897 94.3766 73.4867C94.2328 73.2146 94.0266 73.1128 93.753 72.9692C93.4229 72.7961 93.0973 72.6308 92.7703 72.4517C91.9245 71.9879 91.1789 71.3896 90.3609 70.8883Z" fill="#070D1C"/>
<path d="M81.4955 54.2296C81.2808 54.2641 81.1337 54.469 81.1678 54.6839C81.1455 54.8029 81.1137 54.9219 81.1046 55.0429C81.0671 55.5351 81.2513 56.2395 81.3369 56.7121C81.4549 57.3625 81.5966 58.0074 81.7282 58.6558C82.1072 60.5264 82.5225 62.416 83.3449 64.1487C83.6723 64.838 84.1217 65.4363 84.5813 66.0393C84.8538 66.397 85.1254 66.7397 85.4375 67.0639C85.8504 67.4935 86.2819 67.8948 86.7371 68.2788C86.8328 68.3595 86.9149 68.4576 87.0225 68.5218C87.1357 68.5894 87.2697 68.6212 87.3924 68.6695C87.4272 68.6966 87.4817 68.6837 87.5084 68.6486C87.5355 68.6134 87.5226 68.5698 87.4874 68.5431C87.4097 68.4386 87.3461 68.319 87.2548 68.226C87.0864 68.054 86.8737 67.9333 86.6948 67.7717C86.3563 67.4658 86.0398 67.1376 85.7439 66.7894C84.4832 65.3068 83.6892 63.4591 83.1863 61.5922C82.8008 60.1603 82.6145 58.6916 82.4677 57.2191C82.4234 56.7753 82.3653 56.3305 82.3095 55.888C82.2669 55.5544 82.2601 55.1889 82.1296 54.8739C82.0832 54.7617 82.0085 54.6633 81.95 54.5568C81.9155 54.3422 81.7102 54.1951 81.4955 54.2296Z" fill="#070D1C"/>
<path d="M84.4759 77.4486C84.3718 77.4861 84.3116 77.598 84.3491 77.7021C84.4059 78.1939 84.6531 78.6067 84.9304 79.012C85.3464 79.6211 85.8499 80.1292 86.3991 80.6176C86.651 80.8417 86.9148 81.0554 87.1812 81.2619C87.2796 81.3386 87.376 81.4106 87.4771 81.484C87.491 81.4938 87.5052 81.5056 87.5194 81.5154C87.5245 82.0965 87.5904 82.7063 87.6567 83.2796C87.7335 83.9455 87.7801 84.6084 87.8363 85.2763C87.8758 85.7455 87.8863 86.2113 88.0371 86.6599C88.0388 86.6801 88.0591 86.6933 88.0794 86.6916C88.0997 86.6899 88.1129 86.6697 88.1112 86.6494C88.1656 86.2725 88.1257 85.9287 88.1004 85.5508C88.0747 85.1607 88.0409 84.7686 88.0158 84.3782C87.9678 83.6227 87.9523 82.8641 87.9208 82.107C87.913 81.918 87.9093 81.7257 87.8998 81.5367C87.8982 81.5026 87.9076 81.4028 87.8894 81.3677C87.7747 81.1483 87.4785 80.9999 87.2976 80.8502C86.9652 80.5753 86.6469 80.2715 86.3568 79.9524C85.95 79.5045 85.5442 79.0052 85.2368 78.484C85.0579 78.1804 84.9247 77.8684 84.7296 77.5754C84.692 77.4712 84.5801 77.4114 84.4759 77.4486Z" fill="#070D1C"/>
<path d="M88.0588 81.197C87.931 81.1379 87.7798 81.1855 87.7206 81.3133C87.6611 81.4411 87.7196 81.5919 87.8471 81.6514C88.7395 82.0181 89.6245 82.4187 90.5315 82.7499C90.9927 82.9183 91.454 83.0295 91.8841 83.2675C92.0025 83.3019 92.1242 83.2377 92.1587 83.1194C92.1935 83.0014 92.1293 82.8689 92.0109 82.8345C91.8902 82.827 91.7702 82.8372 91.6515 82.8132C91.4198 82.7668 91.2058 82.6573 90.9859 82.5704C90.7638 82.4822 90.5382 82.3926 90.3201 82.2956C89.5545 81.9549 88.8021 81.5827 88.0588 81.197Z" fill="#070D1C"/>
<path d="M98.4134 83.4698C98.1709 83.4927 97.9494 83.5996 97.7265 83.6915C97.6295 83.7084 97.5619 83.7953 97.5788 83.8923C97.5953 83.9893 97.6931 84.0569 97.7901 84.04C98.0045 84.0532 98.2017 84.108 98.4134 84.135C98.8482 84.1908 99.2912 84.2006 99.6923 84.4098C100.015 84.5782 100.304 84.8986 100.538 85.1704C101.339 86.1037 101.688 87.2969 101.975 88.4662C102.787 91.7738 102.933 95.1706 103.169 98.5543C103.183 98.7344 103.337 98.8744 103.518 98.8605C103.698 98.8467 103.838 98.6922 103.824 98.512C103.751 97.6477 103.744 96.7796 103.698 95.9133C103.631 94.672 103.492 93.4399 103.349 92.2058C103.114 90.1786 102.714 88.2603 101.859 86.3957C101.567 85.7602 101.201 85.1008 100.717 84.5893C100.49 84.3493 100.228 84.1604 99.9564 83.9768C99.5114 83.6756 98.971 83.417 98.4134 83.4698Z" fill="#070D1C"/>
<path d="M100.094 84.3568C99.9416 84.3848 99.7986 84.472 99.7036 84.6103C99.2629 85.4439 99.6045 86.3951 99.8831 87.23C99.9535 87.4402 100.246 87.8395 100.243 88.0646C100.041 88.2647 99.99 88.3269 99.7036 88.4553C99.2595 88.6541 98.8676 88.8082 98.615 89.2582C98.2616 89.8882 98.2765 90.6502 98.2346 91.3495C98.2062 91.8224 98.1605 92.2994 98.076 92.7652C98.0537 92.8862 98.1345 93.0069 98.2559 93.0292C98.3769 93.0515 98.4977 92.9707 98.52 92.8497C98.5761 92.5512 98.6481 92.2524 98.6891 91.9519C98.7354 91.6105 98.7469 91.2593 98.7841 90.9165C98.8247 90.5417 98.8531 90.1533 99.1013 89.8497C99.2186 89.706 99.3559 89.5448 99.524 89.4586C100.08 89.174 100.594 89.1693 100.982 88.5716C101.025 88.5057 101.055 88.4249 101.078 88.3495C101.123 88.1971 101.113 88.0112 101.109 87.853C101.102 87.5829 101.073 87.2695 101.003 87.0079C100.932 86.7419 100.795 86.4873 100.708 86.2264C100.604 85.9195 100.423 85.5351 100.708 85.2968C100.898 85.0206 100.825 84.6525 100.549 84.4622C100.411 84.3672 100.247 84.3284 100.094 84.3568Z" fill="#070D1C"/>
<path d="M102.514 123.367C102.356 123.364 102.221 123.495 102.218 123.653C102.091 124.707 102.174 125.793 102.187 126.853C102.192 127.311 102.189 127.769 102.187 128.226C102.186 128.379 102.162 128.529 102.176 128.681C102.191 128.837 102.24 128.992 102.271 129.146C102.27 129.191 102.31 129.229 102.356 129.23C102.401 129.231 102.439 129.191 102.44 129.146C102.478 128.994 102.535 128.846 102.556 128.691C102.577 128.54 102.56 128.389 102.567 128.237C102.588 127.782 102.607 127.318 102.641 126.864C102.721 125.804 102.871 124.725 102.789 123.663C102.792 123.506 102.672 123.371 102.514 123.367Z" fill="#070D1C"/>
<path d="M103.296 99.7149C103.165 99.7159 103.062 99.8267 103.063 99.9579C103.113 103.968 103.368 107.967 103.296 111.979C103.264 113.73 103.134 115.476 102.968 117.219C102.876 118.192 102.734 119.168 102.683 120.145C102.675 120.195 102.706 120.242 102.757 120.25C102.807 120.259 102.854 120.227 102.863 120.176C103.066 119.437 103.137 118.665 103.222 117.905C103.367 116.598 103.454 115.288 103.539 113.976C103.744 110.807 103.677 107.649 103.581 104.479C103.569 104.067 103.587 103.656 103.581 103.243C103.565 102.146 103.543 101.044 103.539 99.9474C103.538 99.8163 103.427 99.7138 103.296 99.7149Z" fill="#070D1C"/>
<path d="M58.2674 14.8278C58.1322 14.8597 58.008 14.9433 57.9293 15.0708C57.2293 16.0265 56.7271 17.0847 56.2066 18.1447C55.1668 20.2632 54.3366 22.4799 53.6495 24.7363C51.9968 30.16 51.2833 35.8825 51.5359 41.5424C51.7256 45.8046 52.5646 50.1118 54.2622 54.039C55.7004 57.3662 57.7044 60.4477 60.3282 62.9653C60.8919 63.5062 61.4756 64.0047 62.0823 64.4969C62.2358 64.6213 62.3785 64.7633 62.5472 64.8664C62.7204 64.9725 62.9223 65.0371 63.1072 65.1199C63.1255 65.1334 63.1468 65.1277 63.16 65.1094C63.1735 65.0912 63.1678 65.0699 63.1495 65.0567C63.0156 64.9063 62.8965 64.7386 62.7481 64.6024C62.4613 64.3397 62.1272 64.1335 61.8286 63.8841C61.3866 63.5149 60.9636 63.133 60.55 62.7327C58.939 61.1741 57.5001 59.3579 56.4075 57.3983C55.4921 55.7569 54.7285 54.0441 54.1249 52.2644C53.1405 49.3624 52.6241 46.3107 52.3813 43.2644C52.1483 40.3455 52.2586 37.4239 52.5923 34.5179C53.0468 30.5636 53.9413 26.6989 55.319 22.9616C55.9195 21.3322 56.6226 19.7288 57.422 18.187C57.8701 17.3224 58.4145 16.5082 58.8592 15.6412C59.0168 15.3862 58.9346 15.0488 58.6793 14.8912C58.5518 14.8124 58.4027 14.7959 58.2674 14.8278Z" fill="#070D1C"/>
<path d="M57.6864 60.0601C57.5765 60.0814 57.5065 60.1933 57.5278 60.3028C57.6993 61.4399 57.7074 62.6294 57.5387 63.7676C57.448 64.377 57.303 64.9659 57.1579 65.5635C56.9766 66.3112 56.7098 67.0617 56.3865 67.7607C55.953 68.6987 55.3893 69.5391 54.8438 70.4122C54.8205 70.4429 54.834 70.4838 54.8648 70.5072C54.8956 70.5305 54.9368 70.5275 54.9598 70.4967C55.7619 69.6016 56.3159 68.5213 56.8305 67.444C57.5184 66.0033 57.9739 64.5035 58.1304 62.912C58.1889 62.314 58.2187 61.6816 58.1304 61.0846C58.0872 60.7936 57.9972 60.5154 57.9296 60.2291C57.9083 60.1192 57.7963 60.0388 57.6864 60.0601Z" fill="#070D1C"/>
<path d="M39.9963 70.3071C39.8789 70.2699 39.7484 70.3375 39.7112 70.4552C39.5982 71.1457 39.3274 71.7975 39.0348 72.4306C38.8614 72.8055 38.7227 73.1912 38.5381 73.5606C38.2878 74.0616 37.9936 74.5325 37.7772 75.0503C37.695 75.2126 37.7627 75.4117 37.9253 75.4938C38.0877 75.5759 38.2763 75.5083 38.3585 75.3457C38.8742 74.4872 39.2286 73.5684 39.5103 72.6101C39.7102 71.9293 39.8343 71.2221 40.1444 70.5819C40.1816 70.4643 40.1139 70.3443 39.9963 70.3071Z" fill="#070D1C"/>
<path d="M40.1122 70.1809C40.0364 70.1552 39.9577 70.1532 39.8799 70.1914C38.305 70.9354 36.7735 71.8079 35.1138 72.3572C34.2687 72.6367 33.38 72.802 32.493 72.8642C31.8745 72.9075 31.2408 72.8483 30.6544 72.6421C30.3656 72.541 30.3078 72.5586 30.1364 72.2936C30.0258 72.2395 29.8949 72.2781 29.8405 72.3886C29.7864 72.4995 29.8354 72.6408 29.9463 72.6952C30.0288 72.6888 30.1076 72.6604 30.1891 72.6739C30.2601 72.6857 30.3237 72.731 30.39 72.7584C30.5861 72.8395 30.7873 72.9065 30.9926 72.9592C31.6273 73.1221 32.2928 73.1911 32.9475 73.16C33.725 73.1228 34.4821 72.9406 35.2301 72.7374C36.9446 72.2716 38.5756 71.5581 40.1545 70.7515C40.31 70.6751 40.3685 70.495 40.2921 70.3395C40.2536 70.2617 40.1883 70.207 40.1122 70.1809Z" fill="#070D1C"/>
<path d="M46.316 15.0181C46.2298 15.0543 46.1534 15.1255 46.1151 15.2188C45.6306 16.2488 45.3617 17.3186 45.1324 18.4301C44.8835 19.6377 44.7534 20.8542 44.6888 22.085C44.5295 25.106 44.6999 28.1394 44.8152 31.159C44.94 34.4206 45.0448 37.688 44.8998 40.951C44.7111 45.2098 44.1284 49.4274 43.093 53.5639C42.4958 55.949 41.7538 58.2831 40.7891 60.5462C39.1111 64.4818 36.7358 68.3996 33.1171 70.8246C32.0898 71.5128 31.0029 72.0006 29.8515 72.4302C29.7889 72.4505 29.7571 72.5154 29.7777 72.5779C29.7984 72.6405 29.863 72.6726 29.9255 72.652C32.3454 71.9587 34.4688 70.3919 36.1711 68.5743C38.6373 65.9411 40.4042 62.6876 41.7298 59.3526C43.4994 54.8997 44.6106 50.2177 45.1642 45.4617C45.5737 41.9418 45.664 38.3972 45.6502 34.856C45.6366 31.3541 45.4222 27.8477 45.4706 24.3455C45.4929 22.7377 45.593 21.1457 45.7878 19.5498C45.8466 19.0661 45.9078 18.5902 46.0096 18.1132C46.2004 17.2183 46.4932 16.3569 46.7915 15.4934C46.8676 15.3068 46.7881 15.0941 46.6014 15.0181C46.5081 14.9801 46.4022 14.9818 46.316 15.0181Z" fill="#070D1C"/>
<path d="M60.2327 6.21961C59.297 6.28995 58.5266 6.75751 57.9609 7.4978C57.8909 7.5891 57.806 7.6777 57.76 7.78299C57.7106 7.89549 57.7025 8.02242 57.6755 8.14215C57.5875 8.2731 57.6288 8.44519 57.76 8.53297C57.8909 8.62079 58.063 8.59 58.1509 8.45905C58.246 8.39678 58.3494 8.34199 58.4363 8.26891C58.575 8.15202 58.6808 7.99862 58.8168 7.87808C59.2861 7.46092 59.9111 7.08023 60.5499 7.02243C61.5495 6.93197 62.6742 7.46284 63.2657 8.26891C63.5548 8.66315 63.6762 9.20413 63.6884 9.6844C63.6931 9.86869 63.6948 10.0651 63.6461 10.2443C63.502 10.7749 63.0935 11.231 62.6739 11.5647C62.5089 11.6958 62.3195 11.7991 62.1666 11.945C62.0746 12.0327 61.9918 12.129 61.9025 12.2196C61.8373 12.2532 61.8055 12.3341 61.839 12.3992C61.8728 12.4643 61.9536 12.4856 62.0189 12.452C62.0794 12.4417 62.3604 12.4072 62.4203 12.3886C62.8298 12.2618 63.2237 11.8971 63.5193 11.6069C63.8581 11.2746 64.107 10.8895 64.2697 10.445C64.3853 10.1281 64.455 9.79179 64.4279 9.45201C64.3803 8.85038 64.1185 8.37701 63.7729 7.89917C63.2312 7.14997 62.4507 6.56585 61.5535 6.3147C61.1288 6.19571 60.6703 6.18672 60.2327 6.21961Z" fill="#070D1C"/>
<path d="M62.0825 7.14842C61.4143 7.17438 60.927 7.40938 60.3494 7.72939C59.4208 8.24393 58.6248 8.95981 57.8768 9.70476C57.2485 10.33 56.6181 10.9849 56.0801 11.6907C55.8447 11.9996 55.6483 12.3308 55.4143 12.6414C55.3365 12.7449 55.2438 12.8402 55.1715 12.9477C54.8871 13.3697 54.6605 13.8411 54.3998 14.2787C53.3748 15.9988 52.5101 17.8347 52.2862 19.8456C52.2768 19.9179 52.3302 19.984 52.4026 19.9935C52.4749 20.003 52.5409 19.9601 52.5507 19.8879C52.7702 18.4423 53.3995 17.0861 54.1144 15.821C54.3524 15.3999 54.5946 14.9759 54.8647 14.5745C55.1471 14.1555 55.487 13.7892 55.7947 13.3914C55.9486 13.1927 56.0784 12.9827 56.2387 12.7893C57.1646 11.671 58.1777 10.592 59.3032 9.67305C59.8743 9.20681 60.4587 8.76277 61.0785 8.36319C61.4732 8.10892 61.8702 7.89323 62.2411 7.60263C62.3652 7.55818 62.4335 7.42056 62.3889 7.29631C62.3446 7.17205 62.207 7.10393 62.0825 7.14842Z" fill="#070D1C"/>
<path d="M63.4565 0.726114C59.1956 0.995759 55.2938 3.37625 52.2335 6.21907C51.3596 7.03064 50.5203 7.88893 49.7713 8.81766C48.938 9.85054 48.1894 10.9593 47.5732 12.1346C47.3 12.6557 47.0609 13.167 46.8864 13.7296C46.7981 13.9226 46.8834 14.1485 47.0765 14.2367C47.2695 14.3249 47.4954 14.2395 47.5837 14.0466C47.8799 13.5731 48.1285 13.0823 48.4081 12.5994C48.8995 11.7499 49.427 10.8961 50.0249 10.117C50.8071 9.09741 51.6386 8.09766 52.5507 7.1909C55.1133 4.64285 58.3475 2.59159 61.8711 1.69794C63.0432 1.40065 64.2724 1.37131 65.4746 1.43384C66.8662 1.50625 68.2709 1.72036 69.6066 2.12048C70.5244 2.39536 71.5092 2.74397 72.3015 3.30358C73.177 3.92207 73.7911 4.88558 73.8232 5.97613C73.8347 6.37179 73.7766 6.74903 73.6646 7.12752C73.6342 7.22991 73.5966 7.33392 73.5588 7.43384C73.5486 7.46149 73.5388 7.49023 73.5273 7.51835C73.5219 7.52379 73.5206 7.52612 73.5168 7.52893C73.4793 7.55553 73.4435 7.57558 73.4005 7.59231C73.2967 7.63264 73.1915 7.6518 73.0833 7.67682C72.7147 7.76214 72.3421 7.82271 71.9738 7.90921C70.8866 8.16456 69.8261 8.66274 68.9303 9.3247C68.8488 9.37477 68.8167 9.48618 68.8671 9.56768C68.9171 9.64914 69.0284 9.67054 69.1099 9.62048C70.0632 9.14443 71.0351 8.63929 72.0796 8.39513C72.2792 8.34845 72.4895 8.30781 72.6924 8.27891C73.0914 8.22219 73.6538 8.23686 73.95 7.90921C74.0667 7.77992 74.1042 7.56368 74.1506 7.40217C74.2838 6.93944 74.3518 6.43592 74.3409 5.95497C74.3322 5.56093 74.2858 5.12643 74.1614 4.75078C74.0447 4.39832 73.8334 4.05278 73.6119 3.75779C72.6207 2.43911 70.8149 1.73428 69.2898 1.32824C68.9307 1.23268 68.5969 1.15923 68.2327 1.08527C67.5161 0.939646 66.7847 0.832863 66.0559 0.768367C65.1936 0.69204 64.3205 0.671421 63.4565 0.726114Z" fill="#070D1C"/>
<path d="M109.881 22.1272C109.777 22.1935 109.741 22.3296 109.807 22.4335C110.789 23.5866 111.106 25.2175 111.381 26.6693C111.408 26.798 111.538 26.8859 111.667 26.8596C111.796 26.8332 111.873 26.7031 111.846 26.5743C111.676 25.809 111.519 25.0433 111.223 24.3138C110.926 23.5818 110.518 22.9158 110.187 22.2011C110.121 22.0972 109.985 22.0608 109.881 22.1272Z" fill="#070D1C"/>
<path d="M111.825 27.3457C111.702 27.3471 111.602 27.4444 111.603 27.5678C111.652 28.2844 111.755 29.001 111.592 29.7119C111.403 30.5397 110.89 31.2523 110.419 31.9409C109.775 32.885 109.113 33.7862 108.369 34.6559C105.746 37.7232 102.613 40.4737 99.0488 42.3988C97.3235 43.3304 95.4994 44.0778 93.5428 44.3212C93.3376 44.3479 93.1992 44.528 93.226 44.7332C93.2527 44.9384 93.4329 45.0875 93.6382 45.0608C96.1714 44.7166 98.5037 43.5974 100.644 42.2402C103.569 40.3862 106.212 38.0291 108.443 35.3847C109.394 34.2574 110.306 33.0466 111.032 31.7614C111.343 31.2114 111.681 30.676 111.846 30.0608C112.061 29.2569 112.006 28.3926 112.047 27.5678C112.045 27.4444 111.948 27.3447 111.825 27.3457Z" fill="#070D1C"/>
<path d="M94.6629 39.1566C94.5543 39.2151 94.5094 39.3544 94.5679 39.4629C94.9564 40.0595 94.8803 40.7555 94.7052 41.4174C94.5006 42.1901 94.1986 42.9415 93.7434 43.6037C93.5097 43.9438 93.2196 44.2531 92.9508 44.5651C92.829 44.6503 92.8023 44.8237 92.8875 44.9454C92.9724 45.0671 93.1354 45.0938 93.2571 45.0086C93.3938 44.9518 93.55 44.8974 93.6694 44.8081C94.0549 44.5195 94.3883 43.9012 94.5993 43.477C95.228 42.2134 95.5688 40.5889 94.9693 39.2516C94.9108 39.1431 94.7714 39.0982 94.6629 39.1566Z" fill="#070D1C"/>
<path d="M94.5985 39.2607C94.1204 39.4669 94.2296 39.4331 94.1231 39.4723C94.0906 39.477 93.8965 39.5436 93.7849 39.5882C93.5174 39.6957 93.253 39.8181 92.9818 39.9158C92.9182 39.9388 92.8888 39.9435 92.7917 39.9793C92.787 39.9814 92.7755 39.9874 92.7704 39.9898C92.6355 40.0554 92.3927 40.1801 92.2104 40.2961C92.1262 40.316 92.0741 40.4022 92.0941 40.4864C92.1141 40.5702 92.2003 40.6226 92.2845 40.6023C93.5073 40.0334 92.9344 40.2153 93.4995 40.0321C93.8052 39.9327 92.925 40.3654 92.7491 40.6341C92.6632 40.7656 93.0582 40.5452 93.2036 40.4864C93.4934 40.3687 93.7802 40.2291 94.0385 40.053C94.1667 39.9655 94.5461 39.7113 94.398 39.7572C93.674 39.9817 94.3916 39.7599 94.7254 39.4615C94.7798 39.4267 94.792 39.3574 94.7571 39.3033C94.7223 39.2488 94.653 39.2259 94.5985 39.2607Z" fill="#070D1C"/>
<path d="M89.6757 15.9259C89.5735 15.9951 89.5536 16.1302 89.6226 16.2323C89.7433 16.3495 89.8738 16.4627 89.982 16.5914C90.1944 16.8446 90.3503 17.1368 90.5106 17.426C90.8369 18.0157 91.1064 18.6281 91.356 19.2534C91.7395 20.2152 92.0814 21.1891 92.3492 22.19C92.9518 24.4429 93.1821 26.7722 93.2264 29.0985C93.2703 31.4224 93.1046 33.7281 92.6978 36.0176C92.5504 36.8478 92.3678 37.6749 92.1483 38.4892C91.9806 39.1116 91.778 39.7237 91.6201 40.3484C91.5711 40.4995 91.6488 40.6587 91.7997 40.7077C91.9505 40.7564 92.1206 40.6685 92.1696 40.5174C92.5372 39.5922 92.7597 38.6153 92.9728 37.6442C93.198 36.6169 93.3823 35.5825 93.5115 34.5387C94.0688 30.0453 93.8151 25.3946 92.4124 21.0703C92.0902 20.0758 91.6894 19.1299 91.1974 18.2076C90.7997 17.4627 90.3175 16.7693 89.9925 15.9893C89.9235 15.8873 89.7778 15.8568 89.6757 15.9259Z" fill="#070D1C"/>
<path d="M103.095 40.3923C102.28 40.8923 101.531 41.4564 100.887 42.167C100.432 42.669 100.033 43.2172 99.7137 43.8149C98.5149 46.0614 98.5825 48.6493 98.9105 51.1038C99.2994 54.0115 99.9947 56.9868 99.3545 59.9135C98.8 62.4477 97.1487 64.3896 95.3175 66.146C93.6267 67.7679 91.7391 69.166 89.8014 70.4768C88.2087 71.5545 86.5706 72.6051 84.8767 73.5191C84.6972 73.6171 84.6309 73.8362 84.7289 74.0157C84.8267 74.1951 85.0566 74.2614 85.2362 74.1634C86.5473 73.4444 87.8137 72.6412 89.0615 71.8185C91.2768 70.3579 93.4198 68.7515 95.3598 66.9384C97.3394 65.0877 99.0671 63.0341 99.7137 60.3468C100.508 57.0443 99.55 53.7029 99.1642 50.4169C98.8974 48.1426 98.946 45.768 100.115 43.7304C100.864 42.4256 102.01 41.4392 103.169 40.5086C103.202 40.486 103.213 40.4349 103.191 40.4032C103.168 40.371 103.127 40.3697 103.095 40.3923Z" fill="#070D1C"/>
<path d="M98.3199 106.476C98.2685 106.457 98.2123 106.488 98.1931 106.54C96.9645 109.286 96.4576 112.318 96.4813 115.318C96.4897 116.406 96.5607 117.511 96.7559 118.582C96.9449 119.62 97.2878 120.604 97.6435 121.593C97.7281 121.786 97.9472 121.867 98.1403 121.783C98.3334 121.699 98.4254 121.479 98.3412 121.286C97.4903 119.655 97.1241 117.779 97.0203 115.952C96.8394 112.774 97.4717 109.641 98.3834 106.614C98.4027 106.562 98.3716 106.496 98.3199 106.476Z" fill="#070D1C"/>
<path d="M87.4876 46.9207C87.3104 46.8802 87.1373 46.9863 87.0967 47.1638C86.8417 48.261 86.4518 49.3556 86.3358 50.4805C86.2699 51.1197 86.3017 51.7826 86.4204 52.4137C86.6473 53.6194 87.0244 54.7971 87.4876 55.9312C87.8603 56.8436 88.3172 57.7201 88.6289 58.6567C88.8657 59.3669 88.9986 60.1082 89.0621 60.8539C89.2329 62.8496 88.7476 64.8109 88.1004 66.6849C87.4555 68.5528 86.6084 70.3359 85.6487 72.0616C85.3423 72.6129 85.0505 73.1578 84.7083 73.6882C84.669 73.7521 84.6866 73.8285 84.7505 73.868C84.8145 73.9072 84.9017 73.8896 84.9409 73.8254C85.2598 73.2812 85.6122 72.7583 85.9236 72.2093C87.166 70.0209 88.2336 67.6885 88.9039 65.2588C89.2677 63.9388 89.5112 62.5755 89.4531 61.2024C89.4192 60.3989 89.286 59.6083 89.0621 58.8362C88.7564 57.7809 88.2718 56.7915 87.8681 55.7727C87.4721 54.7735 87.138 53.711 86.9699 52.6459C86.8857 52.1132 86.8444 51.5581 86.8854 51.0193C86.9334 50.3838 87.1042 49.7805 87.2763 49.1706C87.4494 48.5581 87.6009 47.9321 87.7413 47.3115C87.7818 47.1344 87.6648 46.9613 87.4876 46.9207Z" fill="#070D1C"/>
<path d="M87.4972 46.8028C86.5751 47.0449 86.9704 46.8762 86.5778 47.0459C86.3853 47.129 86.9869 46.9587 87.1804 46.8769C87.2771 46.8356 86.9778 46.9046 86.874 46.9191C86.667 46.9479 86.4543 46.9901 86.2504 47.0351C86.1459 47.0584 85.8385 47.1182 85.944 47.0986C86.4635 47.0016 85.9464 47.1064 85.6586 47.2886C85.5389 47.3214 85.4676 47.4438 85.5 47.5634C85.5325 47.6831 85.6549 47.7544 85.775 47.7219C86.7036 47.4765 86.2792 47.5347 86.7049 47.4684C86.9186 47.435 86.288 47.6209 86.1023 47.7324C86.0134 47.7858 86.3086 47.6746 86.4087 47.6479C86.6133 47.5938 86.8135 47.5431 87.0113 47.4684C87.1141 47.4296 87.4252 47.32 87.3177 47.3417C86.7979 47.4465 87.3123 47.3396 87.624 47.2254C87.7421 47.1892 87.8083 47.0685 87.7722 46.9506C87.736 46.8329 87.6152 46.7667 87.4972 46.8028Z" fill="#070D1C"/>
<path d="M83.2602 39.7361C83.176 39.7696 83.0979 39.8362 83.0593 39.9261C82.9822 40.1059 83.0698 40.3138 83.2497 40.3909C84.0873 40.7174 84.5567 41.673 84.8983 42.4404C85.3271 43.4041 85.5969 44.4013 85.7014 45.4508C85.7498 45.9356 85.788 46.4254 85.7014 46.9088C85.6645 47.1126 85.5932 47.3232 85.5323 47.5213C85.5046 47.5669 85.5185 47.6206 85.5638 47.648C85.6094 47.6754 85.6632 47.6619 85.6909 47.6163C86.2614 47.0261 86.2712 45.7699 86.1874 45.0178C86.0379 43.6732 85.6622 42.2916 84.951 41.1305C84.5983 40.5545 84.1462 40.0218 83.5243 39.7361C83.4344 39.6976 83.3444 39.7023 83.2602 39.7361Z" fill="#070D1C"/>
<path d="M84.2738 26.3419C84.2078 26.32 84.1371 26.3605 84.1152 26.4265C84.0316 26.5634 83.9315 26.6938 83.8615 26.8382C83.6353 27.3067 83.5335 27.8482 83.4074 28.3488C83.2626 28.9221 83.124 29.5001 83.0161 30.0812C82.7821 31.3441 82.7054 32.6046 82.6357 33.884C82.5785 34.9333 82.5559 35.9619 82.6357 37.0108C82.6797 37.5865 82.7855 38.155 82.8893 38.7222C82.9529 39.0674 83.0236 39.4206 83.1852 39.7363C83.2285 39.8201 83.3972 40.0774 83.4493 40.1588C83.4554 40.1757 83.4747 40.1859 83.4919 40.1798C83.5088 40.1741 83.5186 40.1548 83.5129 40.1376C83.4923 39.8915 83.4845 39.643 83.4493 39.3983C83.3874 38.9659 83.285 38.5444 83.2383 38.1094C83.0881 36.7218 83.0591 35.3078 83.1429 33.9158C83.1811 33.283 83.284 32.6533 83.3648 32.0249C83.4943 31.0233 83.6468 30.0166 83.8406 29.0249C84.0056 28.1798 84.2788 27.3584 84.3583 26.5001C84.3803 26.4346 84.3397 26.3639 84.2738 26.3419Z" fill="#070D1C"/>
<path d="M81.6864 39.3993C81.357 39.4274 81.0249 39.4893 80.6928 39.5471C80.1352 39.6441 79.6368 39.8087 79.1711 40.1386C78.8082 40.3962 78.5005 40.7126 78.2624 41.0895C76.974 43.1274 78.1201 45.5065 78.7379 47.5543C78.8739 48.0045 79.0301 48.4588 79.0866 48.9273C79.2425 50.2149 78.4241 51.4987 78.9175 52.7724C79.3568 53.9055 80.7094 54.4781 81.8132 53.9028C81.8771 53.8663 81.9024 53.7872 81.8659 53.7233C81.8294 53.6594 81.7503 53.634 81.6864 53.6705C81.4145 53.8409 81.0953 53.8791 80.7774 53.871C79.8992 53.8487 79.2479 53.1885 79.0866 52.3394C78.9625 51.686 79.2749 51.0779 79.3825 50.4485C79.4836 49.8562 79.5326 49.2191 79.446 48.6211C79.372 48.11 79.2042 47.6269 79.0656 47.1317C78.5908 45.4385 77.8966 43.5226 78.7697 41.8396C78.93 41.5303 79.115 41.2527 79.372 41.0154C79.5864 40.8177 79.8369 40.6703 80.1011 40.5507C80.4142 40.4087 80.7449 40.2762 81.0838 40.2126C81.6174 40.1126 82.1598 40.1318 82.69 40.0118C82.849 40.0102 82.9771 39.8854 82.9754 39.7269C82.9738 39.568 82.8382 39.4399 82.6796 39.4416C82.3451 39.375 82.0154 39.3713 81.6864 39.3993Z" fill="#070D1C"/>
<path d="M84.3798 7.21292C82.5835 7.21099 80.7848 7.31642 78.9905 7.39248C78.0318 7.43314 77.0754 7.44061 76.1161 7.44531C75.6379 7.44768 75.157 7.50014 74.6789 7.50869C74.3184 7.51515 73.961 7.52316 73.6011 7.55094C73.4304 7.5575 73.2985 7.69731 73.3049 7.86785C73.3117 8.03838 73.4622 8.17018 73.6326 8.16362C75.4306 8.1644 77.2178 7.92379 79.0118 7.82559C80.7993 7.72773 82.5902 7.69065 84.3798 7.66716C89.4641 7.6004 94.7121 8.06042 99.3121 10.4031C100.835 11.1788 102.268 12.1032 103.602 13.1707C104.433 13.8351 105.176 14.5865 105.949 15.315C105.994 15.3633 106.069 15.3714 106.118 15.3256C106.166 15.2798 106.174 15.2049 106.128 15.1566C105.274 14.1498 104.263 13.2322 103.222 12.4206C102.249 11.6623 101.205 10.9705 100.115 10.3925C95.294 7.83641 89.7586 7.2187 84.3798 7.21292Z" fill="#070D1C"/>
<path d="M106.489 15.4613C106.479 15.4739 106.476 15.4944 106.489 15.5036C107.16 16.0923 107.882 16.6287 108.528 17.2465C109.528 18.2017 110.447 19.26 111.265 20.3733C114.358 24.5801 116.031 29.8778 115.915 35.0987C115.879 36.7178 115.639 38.3049 115.292 39.8838C115.142 40.5652 114.943 41.2339 114.742 41.9015C114.452 42.8645 114.143 43.8478 113.675 44.7429C113.328 45.4068 112.98 46.0785 112.607 46.7289C112.217 47.4107 111.784 48.0668 111.498 48.7993C111.454 48.8635 111.476 48.9463 111.54 48.9896C111.604 49.0328 111.687 49.022 111.73 48.9578C111.85 48.8442 111.982 48.7449 112.09 48.6198C112.194 48.4981 112.271 48.349 112.364 48.2182C112.734 47.701 113.053 47.171 113.358 46.6126C114.007 45.4244 114.483 44.1548 114.974 42.8943C115.696 41.0425 116.057 39.0982 116.243 37.1268C116.773 31.4929 115.262 25.7804 112.111 21.0916C111.059 19.5269 109.832 18.1067 108.412 16.8663C107.804 16.3354 107.216 15.8743 106.52 15.4613C106.508 15.4522 106.498 15.4487 106.489 15.4613Z" fill="#070D1C"/>
<path d="M111.465 42.7577C111.412 42.7479 111.358 42.7786 111.348 42.8317C110.742 45.8875 110.892 49.1369 111.814 52.117C112.058 52.908 112.404 53.7307 112.87 54.4196C113.06 54.6999 113.248 54.8685 113.473 55.117C113.529 55.1788 113.558 55.2762 113.557 55.36C113.55 55.8867 113.081 56.4255 112.722 56.7649C111.944 57.5021 111.041 58.1319 110.07 58.5923C109.565 58.8319 108.909 58.9556 108.569 59.4478C108.039 60.2185 108.668 61.4516 108.781 62.2578C108.935 63.3632 108.522 64.2708 107.819 65.0993C107.675 65.2869 107.705 65.5573 107.893 65.7013C108.081 65.8453 108.351 65.8048 108.495 65.6168C108.73 65.2805 108.962 64.9475 109.129 64.5713C109.45 63.8489 109.516 62.9423 109.415 62.1733C109.343 61.6294 109.177 61.119 109.045 60.5887C108.983 60.3412 108.91 60.014 109.066 59.7858C109.263 59.4982 109.667 59.4083 109.964 59.2788C110.156 59.1953 110.473 59.033 110.662 58.9408C111.733 58.4178 112.738 57.6627 113.452 56.7013C113.711 56.3518 113.939 55.9634 113.969 55.5182C114 55.0768 113.753 54.8621 113.515 54.515C113.346 54.2679 113.184 54.0208 113.029 53.7649C112.605 53.0668 112.274 52.2698 112.025 51.4937C111.458 49.7278 111.266 47.869 111.264 46.0217C111.264 45.3064 111.279 44.5776 111.37 43.8671C111.413 43.5314 111.482 43.2072 111.539 42.8739C111.549 42.8209 111.518 42.7675 111.465 42.7577Z" fill="#070D1C"/>
<path d="M101.964 64.656C101.912 64.6374 101.856 64.6668 101.838 64.7192C101.819 64.7716 101.848 64.8277 101.901 64.846C102.391 65.0467 102.883 65.2323 103.391 65.3848C103.701 65.4777 104.017 65.5477 104.331 65.6275C105.425 65.9064 106.528 66.0716 107.628 65.7651C107.845 65.7049 108.059 65.6484 108.252 65.5325C108.349 65.4808 108.378 65.3655 108.326 65.2685C108.274 65.1715 108.159 65.1323 108.062 65.184C107.596 65.3378 107.132 65.4378 106.635 65.4375C106.015 65.4368 105.387 65.2864 104.775 65.2049C103.825 65.0789 102.887 64.924 101.964 64.656Z" fill="#070D1C"/>
<path d="M101.869 64.5393C101.751 64.5758 101.684 64.7066 101.721 64.8246C101.776 64.8733 101.837 64.9128 101.879 64.9723C101.991 65.1288 102.053 65.4706 102.133 65.6589C102.289 66.0263 102.524 66.3849 102.788 66.6838C103.302 67.2635 103.999 67.6749 104.701 67.9828C105.704 68.4229 106.782 68.6088 107.861 68.3844C107.956 68.3837 108.031 68.3002 108.03 68.2049C108.029 68.1092 107.946 68.0349 107.85 68.0359C106.798 67.827 105.645 67.707 104.648 67.3067C103.983 67.0397 103.408 66.654 102.905 66.1449C102.644 65.8809 102.399 65.5581 102.228 65.2258C102.205 65.1799 102.091 64.9524 102.091 64.8983C102.09 64.8266 102.126 64.7567 102.144 64.687C102.107 64.5694 101.987 64.5028 101.869 64.5393Z" fill="#070D1C"/>
<path d="M105.917 37.127C105.714 37.1301 105.509 37.2129 105.357 37.3701C105.052 37.6841 105.063 38.1851 105.377 38.4896C105.679 38.8104 105.864 39.0234 106.212 39.3033C106.661 39.6639 107.139 39.9611 107.618 40.2748C107.788 40.3863 107.965 40.6111 108.167 40.6659C108.281 40.6966 108.428 40.6452 108.537 40.6236C108.61 40.6588 108.703 40.6331 108.738 40.5601C108.773 40.487 108.737 40.3948 108.664 40.3593C108.619 40.2585 108.596 40.1497 108.527 40.0638C108.472 39.9959 108.394 39.9597 108.326 39.9053C108.154 39.767 108.077 39.6741 107.956 39.4723C107.617 38.9071 107.394 38.2699 106.952 37.7713C106.813 37.6141 106.633 37.4891 106.477 37.3488C106.32 37.1967 106.119 37.124 105.917 37.127Z" fill="#070D1C"/>
<path d="M101.574 40.1056C101.361 40.0269 101.121 40.035 100.898 40.1374C100.452 40.3429 100.26 40.8642 100.465 41.31C100.888 41.9239 101.131 42.5736 101.268 43.3064C101.335 43.6617 101.392 44.0149 101.437 44.3736C101.453 44.504 101.438 44.6396 101.479 44.7643C101.529 44.9127 101.636 45.0391 101.712 45.176C101.712 45.2994 101.81 45.3985 101.934 45.3981C102.057 45.3978 102.156 45.2994 102.156 45.176C102.231 45.0374 102.341 44.9147 102.388 44.7643C102.429 44.6349 102.409 44.4871 102.42 44.3523C102.441 44.0916 102.464 43.832 102.473 43.5704C102.508 42.5448 102.37 41.5534 102.082 40.5707C101.979 40.3476 101.788 40.1847 101.574 40.1056Z" fill="#070D1C"/>
<path d="M101.521 39.9793C101.274 39.9157 100.996 39.9448 100.76 40.0847C100.286 40.365 100.131 40.9741 100.411 41.4473C100.431 41.5328 100.439 41.6207 100.474 41.7008C100.525 41.8178 100.718 42.0598 100.802 42.1552C101.177 42.5794 101.728 42.9323 102.271 43.0847C102.526 43.1564 102.876 43.1824 103.137 43.222C103.271 43.2423 103.404 43.2842 103.539 43.2855C103.676 43.2865 103.814 43.2311 103.951 43.222C104.191 43.2064 104.43 43.2439 104.669 43.2642C105.128 43.3031 105.598 43.3565 106.001 43.6023C106.519 43.9183 106.627 44.5508 106.561 45.1129C106.542 45.2816 106.515 45.4509 106.498 45.6199C106.488 45.7166 106.439 45.8119 106.466 45.9052C106.508 46.0486 106.622 46.1672 106.698 46.296C106.702 46.2967 106.709 46.2987 106.709 46.296C106.836 46.2122 106.992 46.1591 107.09 46.0425C107.158 45.9614 107.148 45.8386 107.174 45.7362C107.245 45.4567 107.26 45.1981 107.269 44.9121C107.279 44.6008 107.285 44.3182 107.206 44.0143C107.14 43.7625 107.045 43.5133 106.899 43.296C106.451 42.6284 105.619 42.3823 104.892 42.1552C104.661 42.0832 104.409 42.0419 104.194 41.9334C104.082 41.877 104 41.7776 103.888 41.7221C103.789 41.6735 103.672 41.6708 103.57 41.6268C103.473 41.5846 103.385 41.5268 103.296 41.4686C103.074 41.3229 102.832 41.1458 102.63 40.9721C102.44 40.8078 102.336 40.5816 102.123 40.4332C101.983 40.1966 101.767 40.0425 101.521 39.9793Z" fill="#070D1C"/>
<path d="M104.945 45.1785C104.945 44.2483 105.434 43.4941 106.036 43.4941C106.638 43.4941 107.126 44.2483 107.126 45.1785C107.126 46.1088 106.638 46.8629 106.036 46.8629C105.434 46.8629 104.945 46.1088 104.945 45.1785Z" fill="#070D1C"/>
<path d="M79.2123 48.8334L77.2882 49.3665L75.5727 43.9209C75.5727 43.9209 75.057 42.2351 75.9207 40.7924C76.784 39.35 77.7751 38.4232 79.027 38.1507C80.2786 37.8786 80.9278 39.7033 80.9278 39.7033C80.9278 39.7033 79.2238 39.8655 78.5864 41.3488C77.949 42.8317 78.3777 45.6357 78.3777 45.6357L79.2123 48.8334Z" fill="#070D1C"/>
<path d="M70.6203 38.9449C70.3535 38.9131 70.1131 39.1007 70.0813 39.3674C70.0292 39.4236 69.9596 39.4695 69.9227 39.5365C69.8351 39.6963 69.8486 39.9742 69.8595 40.1493C69.8933 40.7033 70.082 41.2171 70.3454 41.7019C71.1343 43.152 72.4941 44.3321 74.1288 44.6914C74.4457 44.761 74.8099 44.7816 75.1328 44.7336C75.3239 44.7053 75.5051 44.6299 75.6928 44.5856C75.7337 44.5761 76.0218 44.52 76.0628 44.5119C76.1253 44.4994 76.2072 44.5247 76.2528 44.4801C76.3147 44.4196 76.3147 44.3169 76.3478 44.2371C76.4635 44.1935 76.5291 44.0674 76.4855 43.9521C76.4418 43.8365 76.3049 43.7709 76.1896 43.8145C76.1202 43.7736 76.0675 43.7145 75.9887 43.6986C75.9434 43.6891 75.9052 43.7354 75.8619 43.7513C75.7861 43.7794 75.6691 43.8125 75.587 43.8145C75.3966 43.82 75.1998 43.7395 75.0165 43.6986C74.0865 43.4907 73.2272 42.9874 72.533 42.3465C72.0684 41.9172 71.6555 41.4024 71.434 40.8041C71.3558 40.5931 71.2957 40.3704 71.2544 40.1493C71.2033 39.8738 71.2162 39.7217 71.043 39.4837C71.0748 39.2167 70.8871 38.9767 70.6203 38.9449Z" fill="#070D1C"/>
<path d="M67.6602 36.6865C67.6602 34.8209 69.0977 33.3086 70.871 33.3086C72.644 33.3086 74.0816 34.8209 74.0816 36.6865C74.0816 38.5521 72.644 40.0644 70.871 40.0644C69.0977 40.0644 67.6602 38.5521 67.6602 36.6865Z" fill="#070D1C"/>
<path d="M102.377 119.976C101.909 120.084 101.423 120.174 100.961 120.303C100.233 120.506 99.5096 120.737 98.7839 120.947C96.249 121.682 93.7706 122.546 91.3866 123.683C90.9182 123.907 90.4414 124.12 89.9812 124.359C89.2115 124.761 88.4872 125.21 87.7726 125.701C87.5403 125.867 87.4903 126.198 87.6563 126.43C87.8223 126.662 88.1429 126.712 88.3749 126.546C89.3346 125.832 90.3471 125.159 91.4079 124.602C91.977 124.303 92.5631 124.048 93.1515 123.789C94.9589 122.995 96.8192 122.317 98.6784 121.655C99.9472 121.203 101.261 120.885 102.493 120.335C102.591 120.302 102.642 120.2 102.61 120.102C102.577 120.005 102.475 119.943 102.377 119.976Z" fill="#070D1C"/>
<path d="M102.63 120.262C102.536 120.27 102.454 120.333 102.366 120.368C102.306 120.352 102.245 120.382 102.229 120.442C102.213 120.502 102.253 120.563 102.313 120.579C102.363 120.651 102.398 120.74 102.461 120.801C102.625 120.959 102.865 120.888 102.958 121.171C103.118 121.657 102.526 122.33 102.25 122.67C102.147 122.797 102.051 122.918 101.943 123.04C101.829 123.171 101.704 123.305 101.584 123.431C100.619 124.445 99.5455 125.303 98.4772 126.199C98.2483 126.391 98.0085 126.59 97.7691 126.769C97.4992 126.971 97.2406 127.167 97.061 127.456C97.0201 127.49 97.0164 127.552 97.0505 127.593C97.0847 127.634 97.1364 127.638 97.1773 127.604C97.5557 127.459 97.8594 127.2 98.1813 126.959C98.5043 126.717 98.8357 126.479 99.1535 126.231C99.9827 125.583 100.802 124.917 101.573 124.202C102.085 123.729 102.59 123.224 102.99 122.65C103.262 122.258 103.561 121.674 103.507 121.181C103.466 120.8 103.185 120.483 102.842 120.326C102.774 120.295 102.704 120.256 102.63 120.262Z" fill="#070D1C"/>
<path d="M102.03 129.144C102.03 129.144 85.7133 125.607 79.6517 124.324C78.5256 124.086 78.4204 126.657 79.3166 126.938C82.6833 127.995 93.256 129.788 93.256 129.788L102.03 129.144Z" fill="#070D1C"/>
<path d="M86.4414 127.507C86.3514 127.524 86.2645 127.573 86.2091 127.655C86.086 127.78 85.9497 127.898 85.8391 128.035C85.6078 128.32 85.434 128.641 85.226 128.943C84.8926 129.43 84.569 129.924 84.2223 130.401C83.7371 131.069 83.2187 131.72 82.6793 132.345C81.2154 134.04 79.6172 135.403 77.5436 136.253C77.2879 136.358 77.0421 136.493 76.7719 136.56C76.5041 136.626 76.2217 136.635 75.9478 136.655C75.825 136.665 75.7365 136.775 75.7469 136.898C75.7578 137.021 75.8673 137.109 75.9901 137.098C76.2839 137.069 76.5653 137.019 76.8564 136.972C77.1496 136.924 77.4564 136.911 77.7445 136.834C78.8185 136.548 79.8117 135.922 80.6821 135.25C82.1186 134.141 83.3587 132.8 84.4865 131.384C84.9896 130.752 85.4752 130.108 85.9449 129.451C86.1604 129.149 86.4059 128.864 86.5895 128.542C86.6767 128.389 86.7288 128.217 86.8008 128.056C86.9121 127.893 86.8695 127.671 86.7058 127.56C86.6236 127.504 86.5317 127.49 86.4414 127.507Z" fill="#070D1C"/>
<path d="M114.127 133.018L123.53 134.673L126.846 136.625L123.409 137.431L108.471 134.598L114.127 133.018Z" fill="#070D1C"/>
<path d="M108.517 128.638C107.236 128.655 105.957 128.704 104.681 128.764C103.164 128.836 101.642 128.882 100.126 128.965C98.6213 129.047 97.1185 129.136 95.6137 129.219C94.4467 129.283 93.2723 129.307 92.1161 129.483C91.9078 129.485 91.7438 129.655 91.7461 129.863C91.7485 130.071 91.9182 130.246 92.1266 130.243C93.0274 130.353 93.9405 130.254 94.8424 130.19C96.0827 130.103 97.3218 129.99 98.5622 129.905C101.362 129.713 104.159 129.539 106.964 129.43C108.614 129.365 110.268 129.312 111.92 129.356C112.306 129.366 112.686 129.39 113.071 129.419C113.375 129.442 113.679 129.464 113.98 129.504C114.22 129.535 114.461 129.575 114.699 129.62C114.914 129.661 115.122 129.712 115.333 129.768C115.461 129.802 115.588 129.833 115.714 129.873C116.107 130 117.129 130.351 117.161 130.877C117.169 131.006 117.097 131.15 117.034 131.257C116.996 131.324 116.948 131.39 116.897 131.447C116.797 131.559 116.681 131.657 116.559 131.743C116.399 131.856 116.226 131.951 116.052 132.039C115.754 132.189 115.443 132.319 115.132 132.44C114.619 132.641 114.115 132.813 113.579 132.947C113.478 132.975 113.425 133.079 113.452 133.18C113.479 133.28 113.584 133.334 113.685 133.306C114.396 133.104 115.124 132.938 115.809 132.652C116.159 132.505 116.49 132.334 116.813 132.134C117.122 131.943 117.492 131.705 117.668 131.373C118.067 130.625 117.385 129.972 116.791 129.63C115.521 128.9 113.78 128.774 112.353 128.701C111.076 128.635 109.798 128.62 108.517 128.638Z" fill="#070D1C"/>
<path d="M97.2946 127.285C97.1965 127.213 97.0605 127.24 96.9882 127.338C96.9155 127.436 96.9324 127.572 97.0305 127.644C97.6496 128.115 97.4315 127.902 97.6537 128.109C97.7876 128.234 97.3399 127.917 97.1677 127.856C97.0944 127.829 97.2868 127.955 97.3473 128.004C97.4126 128.056 97.4721 128.11 97.5377 128.162C97.6791 128.275 97.8343 128.39 97.9919 128.479C98.0355 128.503 98.167 128.575 98.1295 128.542C97.7707 128.23 98.1288 128.548 98.2668 128.584C98.3801 128.633 98.514 128.582 98.5627 128.468C98.6114 128.355 98.5596 128.221 98.4463 128.173C98.1021 127.908 98.1305 127.942 98.0977 127.908C98.1802 127.967 98.1714 127.984 98.2563 128.046C98.2265 128.026 98.2002 128.014 98.1718 127.993C98.142 127.971 98.1251 127.934 98.0977 127.908C98.0828 127.898 98.0791 127.897 98.0659 127.887C97.9591 127.783 97.861 127.665 97.7595 127.56C97.724 127.523 97.6922 127.502 97.6432 127.454C97.5725 127.411 97.4295 127.327 97.2946 127.285Z" fill="#070D1C"/>
<path d="M114.445 132.789C113.409 133.017 112.411 133.385 111.402 133.708C111.11 133.801 110.81 133.86 110.525 133.972C110.379 134.03 110.25 134.132 110.102 134.183C109.775 134.296 109.517 134.258 109.182 134.321C108.881 134.377 108.593 134.479 108.295 134.553C107.699 134.7 107.095 134.835 106.498 134.976C106.054 135.08 105.612 135.216 105.167 135.314C104.691 135.418 104.309 135.479 103.846 135.652C103.792 135.663 103.76 135.715 103.772 135.768C103.783 135.821 103.835 135.853 103.888 135.842C104.504 135.801 105.08 135.631 105.685 135.525C106.44 135.393 107.188 135.222 107.936 135.05C108.38 134.947 108.853 134.869 109.288 134.733C109.584 134.64 109.86 134.48 110.165 134.426C110.32 134.399 110.475 134.417 110.63 134.395C110.935 134.351 111.229 134.244 111.529 134.173C112.57 133.927 113.608 133.681 114.593 133.254C114.721 133.213 114.793 133.075 114.752 132.948C114.71 132.82 114.573 132.748 114.445 132.789Z" fill="#070D1C"/>
<path d="M108.855 134.765C108.028 134.843 107.202 134.977 106.393 135.092C106.172 135.124 105.957 135.148 105.738 135.188C105.471 135.235 105.213 135.321 104.945 135.367C104.555 135.434 104.217 135.472 103.867 135.673C103.824 135.678 103.789 135.715 103.793 135.758C103.798 135.801 103.835 135.826 103.878 135.821C104.269 135.944 104.61 135.891 105.008 135.853C105.278 135.827 105.542 135.851 105.812 135.832C106.031 135.816 106.247 135.776 106.467 135.758C107.889 135.641 109.324 135.665 110.736 135.864C111.411 135.958 112.148 136.072 112.755 136.413C112.966 136.531 113.151 136.692 113.336 136.846C113.581 137.085 113.974 137.08 114.213 136.835C114.452 136.591 114.447 136.198 114.202 135.959C113.489 135.173 112.34 134.89 111.328 134.765C110.509 134.663 109.682 134.687 108.855 134.765Z" fill="#070D1C"/>
<path d="M114.023 136.487C113.945 136.464 113.867 136.467 113.79 136.508C113.637 136.591 113.581 136.788 113.663 136.941C113.664 137.025 113.647 137.113 113.663 137.195C113.683 137.294 113.729 137.374 113.737 137.48C113.749 137.635 113.699 137.818 113.653 137.966C113.362 138.884 112.369 139.266 111.56 139.561C110.262 140.034 108.923 140.406 107.576 140.713C106.962 140.852 106.351 140.972 105.727 141.061C105.288 141.124 104.817 141.229 104.374 141.135C104.252 141.12 104.136 141.213 104.121 141.336C104.106 141.458 104.199 141.563 104.321 141.579C105.041 141.614 105.776 141.505 106.488 141.42C107.612 141.286 108.706 141.087 109.816 140.871C110.916 140.656 112.188 140.381 113.167 139.814C113.979 139.344 114.639 138.553 114.572 137.565C114.546 137.183 114.526 136.898 114.213 136.645C114.171 136.569 114.1 136.51 114.023 136.487Z" fill="#070D1C"/>
<path d="M107.956 141.04C107.873 141.12 107.866 141.253 107.945 141.336C108.233 141.632 108.482 141.935 108.664 142.308C108.787 142.56 108.932 142.854 108.981 143.132C109.037 143.451 108.988 143.869 108.854 144.167C108.745 144.409 108.527 144.611 108.315 144.758C107.812 145.109 107.105 145.482 106.498 145.73C106.276 145.821 106.056 145.911 105.832 145.994C105.481 146.124 105.126 146.217 104.765 146.311C104.295 146.434 103.815 146.54 103.338 146.628C103.215 146.651 103.091 146.663 102.968 146.681C102.954 146.683 102.94 146.69 102.926 146.692C102.894 146.697 102.862 146.697 102.831 146.702C102.797 146.708 102.769 146.717 102.736 146.723C102.724 146.725 102.692 146.723 102.693 146.734C102.724 146.927 102.769 147.115 102.82 147.304C102.82 147.304 102.837 147.305 102.841 147.304C103.215 147.25 103.616 147.181 103.993 147.188C104.085 147.19 104.176 147.189 104.268 147.199C104.346 147.207 104.424 147.221 104.5 147.241C104.536 147.25 104.762 147.304 104.775 147.399C104.779 147.431 104.774 147.454 104.765 147.484C104.741 147.556 104.708 147.635 104.68 147.706C104.568 147.985 104.41 148.241 104.226 148.477C103.619 149.254 102.747 149.797 101.827 150.125C101.179 150.355 100.577 150.337 99.893 150.325C99.3928 150.317 98.892 150.309 98.3922 150.294C96.8059 150.244 95.2212 150.147 93.6369 150.061C92.6972 150.01 91.7358 149.875 90.794 149.924C90.5549 149.936 90.3439 150.056 90.1072 150.093C89.9398 150.092 89.8015 150.222 89.8008 150.389C89.7998 150.556 89.9398 150.694 90.1072 150.695C90.3395 150.734 90.5397 150.858 90.773 150.885C91.5504 150.976 92.3384 150.932 93.1189 150.949C94.6944 150.982 96.2675 151.03 97.8427 151.065C98.5224 151.08 99.2024 151.09 99.8821 151.096C100.394 151.101 100.908 151.134 101.415 151.044C102.062 150.928 102.67 150.686 103.232 150.347C103.695 150.067 104.103 149.719 104.458 149.311C104.697 149.037 104.903 148.742 105.06 148.414C105.279 147.957 105.579 147.239 105.06 146.871C105.009 146.835 104.92 146.835 104.86 146.808C105.246 146.703 105.643 146.635 106.022 146.501C106.374 146.377 106.701 146.22 107.036 146.058C107.392 145.886 107.734 145.703 108.072 145.498C108.476 145.253 108.833 145.057 109.076 144.621C109.346 144.137 109.358 143.613 109.288 143.079C109.243 142.74 109.178 142.438 109.023 142.128C108.823 141.727 108.557 141.377 108.252 141.051C108.173 140.967 108.039 140.961 107.956 141.04Z" fill="#070D1C"/>
<path d="M9.74123 148.94C9.3331 148.954 8.93863 149.092 8.54707 149.194C8.51775 149.192 8.49587 149.217 8.49422 149.247C8.49259 149.276 8.51775 149.298 8.54707 149.3C8.9247 149.444 9.29502 149.631 9.69896 149.69C9.95982 149.729 10.2282 149.718 10.4915 149.733C11.0216 149.762 11.5571 149.8 12.0872 149.828C13.2979 149.892 14.5007 149.945 15.7119 149.997C20.0443 150.184 24.3842 150.324 28.7207 150.377C30.0136 150.393 31.3094 150.388 32.5992 150.282C32.8416 150.262 33.2234 150.199 33.4655 150.176C33.6103 150.162 33.7648 150.126 33.9092 150.145C34.2092 150.182 34.477 150.367 34.7759 150.409C35.064 150.449 35.3515 150.407 35.6426 150.409C35.9335 150.411 36.2283 150.417 36.5195 150.419C37.6896 150.428 38.8583 150.406 40.028 150.409C43.8536 150.417 47.6789 150.409 51.5046 150.409C54.4453 150.408 57.388 150.449 60.3286 150.472C65.0974 150.51 69.8679 150.497 74.637 150.546C77.7018 150.577 80.7666 150.642 83.8311 150.715C85.9757 150.766 88.1156 150.79 90.2562 150.948C90.6052 150.96 90.8983 150.684 90.9112 150.335C90.924 149.985 90.6583 149.692 90.3089 149.68C88.1579 149.681 86.0024 149.572 83.852 149.521C81.0662 149.456 78.2794 149.43 75.4929 149.405C70.5831 149.361 65.6716 149.368 60.7618 149.405C57.6744 149.428 54.592 149.493 51.5046 149.511C47.6803 149.534 43.8523 149.544 40.028 149.542C38.7142 149.542 37.4004 149.524 36.0863 149.521C35.7955 149.521 35.5003 149.512 35.2091 149.511C35.0644 149.51 34.9197 149.493 34.7759 149.511C34.4763 149.549 34.2095 149.731 33.9092 149.764C33.6201 149.797 33.3313 149.708 33.0428 149.669C32.7554 149.631 32.4659 149.593 32.1765 149.574C31.0267 149.5 29.883 149.451 28.7312 149.437C24.2681 149.38 19.8033 149.318 15.342 149.173C14.0037 149.129 12.6646 149.062 11.3263 149.014C10.8058 148.996 10.2611 148.922 9.74123 148.94Z" fill="#070D1C"/>
<path d="M79.1183 107.237C79.0601 107.243 79.0175 107.295 79.0232 107.353C79.0111 107.737 79.0652 108.092 79.1078 108.473C79.1487 108.841 79.1781 109.213 79.2769 109.571C79.4111 110.06 79.6187 110.532 79.8582 110.976C79.9119 111.074 80.0347 111.104 80.1327 111.05C80.2308 110.996 80.2711 110.874 80.2173 110.776C79.892 110.195 79.5826 109.615 79.4355 108.959C79.3141 108.42 79.3597 107.87 79.2346 107.332C79.2288 107.274 79.1764 107.231 79.1183 107.237Z" fill="#070D1C"/>
<path d="M79.4356 110.712C78.602 110.683 77.948 111.338 77.9453 112.159C77.9426 113.036 78.4783 113.723 79.1184 114.272C80.0047 115.032 81.5052 115.171 82.0669 113.965C82.1568 113.772 82.236 113.564 82.2674 113.353C82.3107 113.064 82.285 112.759 82.2146 112.476C82.1078 112.045 81.8694 111.642 81.4538 111.451C81.3134 111.387 80.9678 111.377 80.9678 111.377L80.8515 111.398L80.7247 111.43L80.6297 111.514C80.6297 111.514 81.5343 111.967 81.7392 112.433C81.8582 112.704 81.8805 113.007 81.8555 113.3C81.8403 113.478 81.8072 113.652 81.7392 113.817C81.2925 114.904 80.0703 114.493 79.3085 114.018C78.3457 113.417 77.8638 111.385 79.3193 111.071C79.4474 111.043 79.6213 111.003 79.7525 111.018C79.8079 111.024 79.8634 111.031 79.9111 111.06C80.1877 111.231 79.9134 111.058 80.0801 111.155C80.1833 111.174 80.2594 111.098 80.302 111.007C80.1873 110.936 80.09 110.803 79.9638 110.743C79.9077 110.717 79.8353 110.757 79.7738 110.754C79.6602 110.748 79.5489 110.716 79.4356 110.712Z" fill="#070D1C"/>
<path d="M80.0751 114.492C80.0284 114.493 80 114.533 80.001 114.583C79.9784 115.72 80.0812 116.93 80.466 117.998C80.5935 118.351 80.6138 118.319 80.8041 118.636C80.8116 118.655 80.8282 118.655 80.8464 118.647C80.8643 118.639 80.8752 118.621 80.8674 118.602C80.7906 118.244 80.8951 118.238 80.8041 117.884C80.6151 117.151 80.3933 116.414 80.2651 115.665C80.2042 115.308 80.1823 114.944 80.1596 114.583C80.1583 114.533 80.1211 114.491 80.0751 114.492Z" fill="#070D1C"/>
<path d="M81.0945 118.38C80.9968 118.349 80.8994 118.312 80.7986 118.296C80.7462 118.287 80.7002 118.34 80.6505 118.359C80.5612 118.393 80.4774 118.414 80.3864 118.444C79.751 118.653 79.3848 119.332 79.3719 119.975C79.3469 121.225 79.9028 122.734 81.1473 123.239C82.0018 123.587 83.1773 123.296 83.578 122.415C83.8029 121.922 83.7829 121.346 83.6412 120.831C83.4576 120.164 82.9662 119.168 82.3099 118.856C81.8645 118.644 82.3048 118.855 82.0772 118.74C81.9562 118.659 81.7986 118.692 81.7181 118.813C81.6373 118.934 81.7918 119.173 81.7918 119.173L81.9609 119.331C81.9609 119.331 82.2916 119.648 82.4259 119.806C82.8208 120.273 83.1052 120.787 83.1867 121.401C83.2297 121.723 83.205 122.071 83.0281 122.352C82.6487 122.958 81.6843 123.043 81.105 122.711C80.1324 122.155 79.6999 120.8 79.8264 119.743C79.8764 119.324 80.7036 118.644 80.7036 118.644L80.8301 118.666L80.9782 118.697C80.9782 118.697 81.1943 118.588 81.1895 118.465C81.1875 118.415 81.1236 118.417 81.0945 118.38Z" fill="#070D1C"/>
<path d="M82.0033 123.114C81.9357 123.122 81.8897 123.184 81.8978 123.251C81.8599 123.814 81.8596 123.749 81.8555 123.811C81.8552 123.815 81.8555 123.818 81.8555 123.822C81.8495 123.958 81.8265 124.188 81.8342 124.096C81.8282 124.188 81.8315 124.279 81.8238 124.371C81.8156 124.466 81.7964 124.751 81.8028 124.657C81.8339 124.186 81.7974 124.656 81.7815 124.942C81.7754 125.089 81.888 125.21 82.0351 125.216C82.1822 125.222 82.31 124.963 82.31 124.963L82.3205 124.382C82.3205 124.382 82.2982 123.986 82.2782 123.79C82.2681 123.691 82.2465 123.494 82.2465 123.494C82.2465 123.494 82.2414 123.502 82.141 123.22C82.1328 123.152 82.0713 123.106 82.0033 123.114Z" fill="#070D1C"/>
<path d="M81.6641 127.307C81.6124 127.304 81.5718 127.34 81.5691 127.391C81.5211 127.697 81.5214 127.664 81.5163 127.698C81.5271 127.648 81.4876 127.907 81.495 127.856C81.4835 127.929 81.4548 128.053 81.4636 128.004C81.4994 127.799 81.4602 128.01 81.421 128.321C81.4111 128.407 81.4724 128.48 81.5586 128.49C81.6445 128.5 81.728 128.439 81.7382 128.353L81.7699 128.036L81.7804 127.719C81.7804 127.719 81.7798 127.721 81.7591 127.402C81.7622 127.35 81.7162 127.309 81.6641 127.307Z" fill="#070D1C"/>
<path d="M80.5454 128.597C80.3026 128.581 80.074 128.626 79.8478 128.713C79.4444 128.868 79.095 129.115 78.8015 129.431C78.7359 129.502 78.6815 129.576 78.6219 129.653C78.5624 129.73 78.4529 129.896 78.4529 129.896L78.3051 130.139C78.3051 130.139 78.2895 130.498 78.4529 130.583C78.6162 130.668 78.8969 130.445 78.8969 130.445L79.0024 130.223C79.0024 130.223 79.0775 130.081 79.1187 130.012C79.2019 129.874 79.2983 129.743 79.4041 129.621C79.6841 129.3 80.0378 129.088 80.4504 128.988C80.4781 128.981 80.5065 128.981 80.5349 128.977C80.7713 128.837 80.8244 128.821 80.9576 128.724C80.9992 128.693 80.8785 128.669 80.8305 128.65C80.7591 128.62 80.6215 128.602 80.5454 128.597Z" fill="#070D1C"/>
<path d="M82.5097 129.969C82.4549 130.01 82.4481 130.084 82.4887 130.138C83.0456 131.349 81.7603 132.511 80.7133 132.874C80.1912 133.056 79.5389 133.031 79.1175 132.631C78.7746 132.306 78.6522 131.834 78.5785 131.385C78.5629 131.276 78.4655 131.2 78.3567 131.216C78.2478 131.232 78.172 131.34 78.1876 131.448C78.241 131.882 78.3381 132.301 78.5785 132.674C79.5355 134.153 81.7004 133.232 82.5942 132.167C83.1434 131.512 83.3835 130.638 82.6892 129.991C82.6486 129.936 82.5648 129.929 82.5097 129.969Z" fill="#070D1C"/>
</g>
<defs>
<radialGradient id="paint0_radial_2196_1242" cx="0" cy="0" r="1" gradientUnits="userSpaceOnUse" gradientTransform="translate(101.143 53.8289) scale(7.33444 7.33149)">
<stop stop-color="#DEA88E"/>
<stop offset="1" stop-color="#F5E8D6"/>
</radialGradient>
<radialGradient id="paint1_radial_2196_1242" cx="0" cy="0" r="1" gradientUnits="userSpaceOnUse" gradientTransform="translate(82.8385 47.7521) scale(7.0493 7.04647)">
<stop stop-color="#DEA88E"/>
<stop offset="1" stop-color="#F5E8D6"/>
</radialGradient>
<radialGradient id="paint2_radial_2196_1242" cx="0" cy="0" r="1" gradientUnits="userSpaceOnUse" gradientTransform="translate(96.2948 135.288) scale(9.50082 9.49701)">
<stop stop-color="#DEA88E"/>
<stop offset="1" stop-color="#F5E8D6"/>
</radialGradient>
<clipPath id="clip0_2196_1242">
<rect width="127" height="152" fill="white"/>
</clipPath>
</defs>
</svg>
