<svg xmlns="http://www.w3.org/2000/svg" width="204" height="253" fill="none" xmlns:v="https://vecta.io/nano"><g clip-path="url(#E)"><path d="M135.227 48.611l1.622 4.825 5.025-.815c22.362-3.627 39.459 12.056 48.222 36.652 8.734 24.516 7.873 55.09-4.022 75.694-24.031 41.622-80.882 54.789-127.412 27.925S-4.89 110.211 19.141 68.588c11.774-20.393 38.117-34.753 63.751-38.843 12.713-2.028 24.664-1.42 33.997 1.836 9.216 3.215 15.592 8.861 18.339 17.029z" stroke="#fff" stroke-width="12"/><path d="M134.252 152.743a43.27 43.27 0 0 0 1.542 4.596c.945 2.332 2.678 4.801 2.678 4.801a118.76 118.76 0 0 0 7.067 15.839c4.386 8.075 5.191 7.348 10.032 16.393s9.068 20.113 9.068 20.113-1.527 4.704-1.838 8.567c-.376 4.678 1.982 5.965 1.982 8.688 0 2.405.808 7.959.924 8.819.366 2.708 2.928.995 3.323.448 1.222-1.691 1.97-6.906 1.97-6.906l.361 8.469c-3.391 8.393-2.623 7.745-2.623 7.745s.673 1.734 2.142 1.066 3.735-3.74 3.735-3.74.93 1.727 1.268 1.288c1.353-1.753 4.243-9.401 4.243-9.401s.196-.752.392-.982c3.865-4.505 4.267-10.014 3.701-13.283-1.263-7.283-5.023-16.251-5.023-16.251l-2.242-1.191s-4.319-7.563-6.747-16.49c-2.157-7.928-3.645-18.577-5.142-24.517-2.08-8.251-6.926-16.18-6.926-16.18l-6.836-8.259c-.619-.86-17.051 10.368-17.051 10.368z" fill="#f5e8d6"/><path d="M169.93 224.914s2.91 4.772 3.07 9.526-2.432 9.487-2.432 9.487l.271-8.111-.909-10.902z" fill="#e3caba"/><path d="M123.541 82.15s2.366 9.665-.628 16.638-4.481 9.163-11.348 11.254-9.842 1.818-17.576-2.251-13.363-14.025-13.363-14.025L77.18 80.124s3.633-.576 6.178-3.655 4.095-9.169 4.095-9.169l-1.691-5.295s1.548-1.408 1.621-4.305-1.504-5.475-.35-8.274c1.717-4.164 5.12-9.088 5.12-9.088s5.072-.117 8.333-.816 8.943-6.019 8.943-6.019.257 5.033 3.855 8.066 10.326 5.405 10.326 5.405l3.328 3.147s-1.36 8.1-4.748 10.108c-2.448 1.45 2.334.026 2.334.026s-3.094 6.131-6.108 9.88-5.953 5.118-5.953 5.118-.684 1.036.494 2.155 4.217 2.32 4.217 2.32l6.366 2.423z" fill="#f5e8d6"/><g fill="#e3caba"><path d="M141.987 150.727l-7.741 2.404 2.896 6.848 5.53 12.546 5.213 8.833s-3.475-10.533-4.95-18.191-.948-12.44-.948-12.44zM92.775 74.611s7.682 13.866 15.587 15.847c10.21 2.559 15.416-2.284 14.754-3.144s-.357-6.069-.357-6.069l-8.814-3.136-1.07-2.933s-6.352 2.826-11.376 2.685-8.724-3.251-8.724-3.251z"/></g><path opacity=".698" d="M171.528 241.148l-2.63 10.233 2.011.666 2.732-3.531 1.907.461s3.339-6.21 5.595-11.532 3.427-9.755 3.427-9.755l-2.836-10.899-6.701-.154-5.155 7.062s2.9 7.86 2.9 9.205c0 1.759-1.25 8.244-1.25 8.244z" fill="url(#A)"/><path opacity=".461" d="M100.28 51.231c3.143 2.054 1.722 2.972 1.414 5.573s-1.552 4.382-5.191 5.253-7.147.675-9.362-1.771-.411-4.827.084-7.751-.624-3.789 1.899-3.945c1.941-.12 5.504.938 8.537 2.069.911.34 1.894.098 2.619.572z" fill="url(#B)"/><path opacity=".473" d="M109.618 55.257c2.958-1.5 5.251 1.383 8.535 1.6s3.925-2.813 4.601-.73.419 6.165-1.894 9.062-3.721 3.109-7.356 2.526-6.214-1.743-7.186-4.857.341-6.1 3.3-7.6z" fill="url(#C)"/><path d="M138 203.5h5l5.656-1.146s-9.073-22.11-12.268-33.857-1.922-15.557-1.922-15.557 5.614-1.669 10.085-4.529 8.2-4.978 8.283-7.25l-2.415-7.218s-3.992-14.594-6-24.826-3.273-17.977-4.074-22.67c-.427-2.5-4.719-1.846-9.068-2.913-4.763-1.169-6.985-3.494-8.844-3.055 0 0 .936 4.98.677 10.408s-2.372 10.032-3.156 11.862c-1.043 2.433-5.457 5.003-12.543 5.422s-11.917-1.4-15.814-4.364c-8.284-6.3-12.016-20.914-14.422-25.384-.928-1.724-6.449-1.399-12.407.455l-13.966 4.288c-5.599 1.702-5.145 14.857-5.145 14.857l4.749 45.352c.266 2.548 9.207-3.899 16.163-2.769s12.079 5.819 12.079 5.819l-7.852 28.714-9.297 20.246 3.5 2 4.002 1.5 4.499 1.5 5.149 1.969H83.5l8 1.146 8 1.5h8.5l10 1.5 7-1.5h6.5l6.5-1.5z" fill="#c46b57"/><g fill="#a05b52"><path d="M71 177.612s9.716 8.079 18.737 17.871S102 209.5 102 209.5h10.5 9l5-.5 4-.5 3.064-.99-14.089-1.918-12.577-14.83L73.297 169 71 177.612zm67.19-47.208s-8.92 10.338-24.277 10.406-36.61-10.243-36.61-10.243 1.367 3.747 1.919 7.603-.574 8.15 0 9.731c1.049 2.886 3.982 1.888 3.982 1.888s.157-4.45 2.123-4.45c7.81 0 28.329-.905 28.329-.905l20.028 2.218s-.025-3.634.926-6.125 1.985-1.309 2.88-3.839.7-6.284.7-6.284z"/><path d="M78.539 116.835c.564 5.5-1.298 10.333-.77 13.078.878 4.567 1.663 13.047 1.136 16.366-.258 1.623-6.441-4.002-6.441-4.002s1.822-12.179 2.585-20.771.466-13.596.466-13.596 2.461 3.424 3.025 8.925zm55.689 23.282l-.179 12.915 4.3-1.549 5.313-1.913s-3.182-3.196-4.646-6.481-1.211-6.655-1.211-6.655l-3.577 3.683z"/></g><path d="M78.478 147.445c6.351 6.833 15.575 18.945 15.575 18.945s1.953-.508 3.885.256 3.845 2.8 3.845 2.8 3.045-.403 5.807 1.197 5.244 5.203 5.244 5.203 4.998 5.247 6.655 5.592c2.664.554 5.977-6.823 8.644-6.359 2.595.452 1.42 3.257 1.42 3.257s3.125.851 2.963 1.9c-.36 2.319-3.283 7.479-3.283 7.479l-4.854 3.121-4.066.477s-14.833-.634-16.92-1.941l-14.099-10.745c-23.856-14.8-26.555-12.009-32.549-19.229-1.993-2.4-4.091-6.186-4.091-6.186l-.451-9.369s6.66-3.804 13.096-3.222c10.04.908 11.883 5.429 13.179 6.824z" fill="#f5e8d6"/><path opacity=".705" d="M87.229 177.918l3.31-5.173 8.69 4.927c7.008 3.687 12.167 1.682 12.167 1.682l.461-2.203-5.188-4.112-4.842-3.838s5.128.792 9.223 4.21c3.82 3.187 7.657 7.484 7.657 7.484l9.142-5.932 4.154 4.865-1.883 5.939-4.472 4.776-18.927-.098-19.492-12.527z" fill="url(#D)"/><path d="M87.295 59.089c-1.783 4.877-7.891 9.788-7.891 9.788s2.575-2.891 1.947-8.674c-.326-3-.89-4.035-2.506-7.351-1.273-2.611-1.266-8.803-1.266-8.803l-1.92 1.622s-.353-2.475 1.522-5.202 5.793-5.56 5.793-5.56l-3.012-2.049s2.033-.302 3.397-.83 2.061-1.281 2.061-1.281l-3.114-1.743 6.863-3.872s1.452-5.447 4.821-9.523 8.659-6.78 8.659-6.78l4.368-.362s-.875-4.766 2.801-6.004 5.288-1.456 11.903 1.053 9.002 3.342 11.66 6.974-1.029 7.553-1.029 7.553 3.539 2.809 4.949 7.439.691 11.082.691 11.082-.94 7.767-.162 10.081c.35 1.042-2.777-.771-2.777-.771l.166 11.507c.088 4.139-3.538 5.94-3.538 5.94s1.565 2.756-.221 4.356c-3.505 3.141-8.53 10.862-8.53 10.862s-2.406 3.575-1.076 6.706c.461 1.085.896 3.298 1.828 4.308 1.757 1.905 4.185 2.307 4.185 2.307s-5.066 1.87-7.596-1.451-2.3-6.611-2.524-11.833 2.231-10.37 2.231-10.37l4.476-7.879s-4.447 1.244-3.281.517c.666-.415 4.029-2.854 4.249-6.466s-3.368-7.982-3.368-7.982-5.667-1.836-8.873-4.877-3.953-7.285-3.953-7.285-3.917 3.676-8.145 5.212-8.764.931-8.764.931-3.824 4.803-4.999 8.874c-1.298 4.497 1.758 4.961-.025 9.837z" fill="#e0bd6f"/><path d="M91.457 41.502s-.899-.056-1.9-.571-2.683-1.488-2.104-1.488c1.08 0 2.358-1.265 2.358-1.265l-6.308-.538c-2.343-.27-3.064-.544-3.064-.544l2.546-1.874 7.019 1.306 5.101.262-2.768 2.548-2.24.206 2.164.912-.803 1.046z" fill="#b69c65"/><g fill="#fff7f7"><path d="M110.834 52.49s1.756 1.98 3.822 2.581 4.44-.177 4.44-.177l2.57-3.711-4.226-.524-4.612.168-1.994 1.664zm-10.959-2.791c.085.24-2.846.554-4.671-.098s-2.629-2.51-2.629-2.51l.023-3.481 3.817 1.827 3.036 2.314.425 1.948z"/></g><g fill="#070d1c"><path d="M134.277 140.344c-.123-.009-.233.079-.242.201l-.364 2.098c-.16 1.545-.159 3.085-.202 4.636-.124 4.554.212 9.129.808 13.643 1.007 7.635 2.902 15.115 5.33 22.421 4.493 13.517 7.699 20.232 7.699 20.232l1.386.801.808-1.376-.808-1.518s-1.723-4.094-4.192-10.482c-2.738-7.084-5.682-14.313-7.45-21.7-1.377-5.754-2.213-11.638-2.477-17.545-.074-1.652-.125-3.316-.121-4.97.003-1.54.134-3.083.094-4.623-.014-.529-.045-1.063-.067-1.591.009-.121-.08-.218-.202-.227zm-62.015 29.021a.65.65 0 0 0-.794.468c-1.746 6.245-6.946 18.159-6.946 18.159L63.5 190.5 63 192l-.81 1.046-1.764 3.233-.525 1.337L59 199.5l.121.374.377-.12 1.05-1.791.821-1.176L63 195.5l.5-1 .5-1 .521-1 .478-1.5s2.823-4.961 6.145-15.101c.62-1.893 1.107-3.815 1.588-5.745.093-.35-.119-.697-.471-.789z"/><path d="M51.855 143.938c-.038 0-.068.029-.067.066-.12.356-.323.732-.404 1.096-.056.252-.032.518-.054.775l-.162 1.203c-.136.822-.329 1.663-.364 2.498-.043 1.047.094 2.285.485 3.274.211.533.531 1.01.808 1.51l.781 1.47c.847 1.61 1.779 3.143 3.123 4.396.97.903 2.103 1.569 3.231 2.258l2.813 1.71c3.357 2.034 6.768 3.956 10.19 5.879 4.483 2.52 8.904 5.143 13.286 7.83l6.811 4.263c2.409 1.579 4.755 3.243 7.135 4.863 1.576 1.074 3.14 2.193 4.86 3.034 1.147.56 2.346 1.071 3.594 1.363 1.419.331 2.911.408 4.361.494 2.156.127 4.316.172 6.475.2l4.133.027 1.103-.027c.196-.004.431.021.62-.04.238-.076.461-.27.659-.414.376-.274.744-.561 1.104-.855 1.025-.838 2.02-1.69 2.975-2.606 1.311-1.257 2.042-2.886 2.692-4.556.263-.675.542-1.356.767-2.044l.216-.669a23.92 23.92 0 0 0 .202-.708c.019-.07.073-.193.067-.267-.017-.194.046-.407-.054-.575-.115-.192-.36-.278-.538-.414-.091-.069-.43-.137-.552-.187-.452-.185-.897-.44-1.252-.775-.128-.12-.3-.289-.364-.467-.071-.2.002-.427.027-.628.033-.261.045-.531-.013-.789-.21-.926-1.057-1.572-1.858-1.991-.349-.183-.702-.342-1.104-.227-.316.091-.565.355-.807.561l-1.172 1.002c-1.365 1.198-2.665 2.478-4.065 3.635-.467.386-.952.743-1.48 1.042-.178.101-.419.239-.633.227-.365-.021-.718-.237-1.01-.441-.55-.384-.977-.872-1.427-1.363-.691-.755-1.359-1.541-2.032-2.311-.552-.632-1.081-1.286-1.656-1.898-.487-.518-1.014-.984-1.521-1.483-.658-.648-1.306-1.287-2.059-1.83a13.89 13.89 0 0 0-3.541-1.831c-.923-.324-1.894-.567-2.88-.561-.37.002-.861.085-1.225.134-.19-.009-.355.131-.364.32s.146.352.337.361c1.381.326 2.815.682 4.105 1.283 1.087.505 2.082 1.182 3.056 1.87.7.495 1.419.992 2.046 1.577.616.574 1.186 1.206 1.777 1.804 1.338 1.353 2.488 2.864 3.85 4.196.593.58 1.217 1.27 2.032 1.536 1.164.38 2.269-.398 3.151-1.056 1.283-.957 2.496-1.988 3.634-3.113.54-.534 1.063-1.081 1.628-1.59.168-.151.339-.312.526-.441.009-.006.016-.02.027-.026.082.038.161.079.242.12.263.131.916.394 1.023.654.103.253-.054.602-.081.856a1.98 1.98 0 0 0 .189 1.109c.368.731 1.148 1.343 1.844 1.75.141.083.295.13.444.201l-.282.908c-.259.813-.509 1.623-.822 2.419-.411 1.046-.857 2.158-1.548 3.059-.388.507-.924.905-1.413 1.31-.534.443-1.048.903-1.602 1.323l-1.265.935-.498.361h-.512c-.443 0-.876-.009-1.319-.014-1.167-.012-2.346.023-3.513.014-2.134-.017-4.264-.064-6.394-.187-1.359-.079-2.761-.14-4.093-.441-1.593-.36-3.027-1.134-4.415-1.964-1.178-.705-2.326-1.467-3.446-2.258-2.962-2.096-5.934-4.197-9.005-6.134-4.328-2.728-8.818-5.185-13.259-7.723l-11.065-6.373-6.582-3.768c-1.707-.996-3.476-1.962-4.712-3.541-.96-1.226-1.619-2.648-2.383-3.995-.552-.975-1.17-1.875-1.279-3.02-.048-.498-.032-.997-.027-1.497.009-.813.001-1.619.04-2.431.027-.549.077-1.098.121-1.644.011-.133.04-.255.027-.387-.038-.381-.231-.795-.363-1.15-.001-.037-.043-.067-.081-.066z"/><path d="M77.915 145.62a.61.61 0 0 0-.444.12c-.258.199-.295.573-.094.828 3.811 4.948 7.508 9.993 11.657 14.672l3.419 3.821.767.816c.251.273.372.446.633.681a2.89 2.89 0 0 0 1.077.628c.492.148.989.102 1.494.133.536.034 1.079.154 1.575.361.504.21 1.028.444 1.481.748 1.261.848 2.254 2.002 3.392 2.993.81.706 1.674 1.385 2.571 1.978 1.001.662 2.065 1.243 3.096 1.857.956.57 2.321 1.093 2.773 2.205.186.457.137 1.004.013 1.47-.033.125-.088.25-.121.374-.03.019-.045.031-.067.04-.11.046-.222.078-.336.107-.243.061-.496.072-.741.12-1.516.298-2.963.13-4.469-.187-1.247-.262-2.453-.658-3.661-1.056-1.084-.355-2.172-.732-3.218-1.189-1.515-.661-2.966-1.467-4.415-2.258-.985-.538-1.912-1.163-2.84-1.79-.284-.192-.535-.446-.848-.588-.169-.077-.358-.101-.538-.147-.045-.031-.117-.018-.148.026s-.019.117.027.148c.109.15.203.312.336.44.127.122.283.2.431.295l.862.547c.811.516 1.659.991 2.477 1.497 1.424.88 2.915 1.623 4.429 2.338 1.049.496 2.1.988 3.19 1.39 1.516.559 3.11.927 4.711 1.149a25.03 25.03 0 0 0 2.652.214c.532.017 1.064.066 1.588-.041.385-.078 1.015-.16 1.279-.494.289-.365.431-1.221.431-1.683 0-.368-.072-.736-.229-1.069-.388-.825-1.205-1.353-1.952-1.831-1.062-.679-2.182-1.262-3.23-1.964-1.324-.886-2.598-1.877-3.769-2.953-1.11-1.02-2.133-2.031-3.352-2.926-.295-.217-.591-.441-.915-.615a5.84 5.84 0 0 0-2.383-.682c-.561-.036-1.256.077-1.75-.253-.275-.184-.538-.488-.754-.722-.379-.409-.747-.826-1.117-1.242-1.254-1.411-2.422-2.89-3.608-4.356l-7.188-8.926-3.782-4.797c-.1-.128-.24-.209-.39-.227zm29.547 35.984c-.157-.069-.335.005-.404.161s-.009.331.148.4c.518.232.867.64 1.333.949.707.47 1.543.791 2.369.989.298.071.664.144.969.16.317.017.625-.036.942-.027.461.014.941.076 1.4.121s.904.133 1.36.213l1.319.201 2.059.441c.728.159 1.486.32 2.181.601.5.202.95.467 1.386.775.836.59 1.748 1.327 1.63 2.472-.046.437-.224.841-.445 1.216-.189.318-.078.735.243.922a.67.67 0 0 0 .915-.24c.226-.38.452-.746.565-1.176a3.4 3.4 0 0 0 .108-.909c-.018-1.391-1.212-2.648-2.396-3.274-.636-.336-1.329-.578-1.992-.855l-1.118-.414-1.628-.454c-.733-.162-1.49-.248-2.235-.334-.775-.09-1.575-.088-2.356-.107-.32-.008-.648.008-.969 0l-.956-.054c-.107.003-.215.045-.323.054-.337.026-.732.001-1.063-.067-.622-.127-1.07-.443-1.548-.829-.45-.362-.961-.704-1.494-.935zm13.945 1.884c-.555.011-1.113-.021-1.642.161-.155.028-.257.167-.229.32a.29.29 0 0 0 .336.228l1.293-.027c.939.003 1.88.05 2.813.16.592.07 1.242.134 1.804.348.183.069.344.18.525.254.163.066.332.101.498.16.506.177 1.704.589 1.48 1.336-.046.154-.129.319-.215.454-.13.206-.146.208-.323.401-.238.284-.205.699.081.936s.718.203.956-.081c.331-.425.65-.843.78-1.376.311-1.276-.739-2.222-1.844-2.632-.365-.136-.73-.296-1.117-.348-.211-.028-.42.013-.633 0l-.632-.067c-1.308-.157-2.613-.252-3.931-.227z"/><path d="M130.547 178.891c-.627-.009-1.281.152-1.897.401-.913.368-1.802.826-2.626 1.363-.65.424-1.255.94-1.857 1.43l-1.131.935c-.326.266-.375.745-.107 1.069a.77.77 0 0 0 1.077.106l1.467-1.175 1.453-1.083c.825-.614 1.643-1.239 2.612-1.616.782-.305 1.651-.65 2.477-.308a.28.28 0 0 0 .39-.08c.084-.131.052-.304-.081-.387-.537-.46-1.149-.646-1.777-.655zM71.885 142.23c-.063-.019-.129.017-.148.08s.004.128.067.147c.69.44 1.451.803 2.087 1.323.611.498 1.144 1.071 1.723 1.603a12.26 12.26 0 0 0 2.059 1.523c.326.187.754.083.942-.24a.69.69 0 0 0-.256-.936c-1.407-.775-2.612-1.825-3.998-2.632-.81-.472-1.518-.846-2.477-.868z"/><path d="M74.967 106.833c-.062.045-.072.125-.027.186l.161.548c.134.332.354.642.512.962l.754 1.724c1.099 3.016 1.941 6.165 1.925 9.393-.008 1.494-.323 2.918-.633 4.37l-.296 1.697c-.263 1.535-.484 3.062-.457 4.623.013.783.032 1.596.202 2.365.043.193.111.384.162.575l.659 2.632c.533 2.223 1.012 4.525 1.104 6.814.019.47-.011.934-.027 1.403-.025.729-.056 1.568-.566 2.152-.163.166-.168.438 0 .601s.442.153.606-.013c.912-.853 1.043-2.505 1.023-3.648-.045-2.541-.445-5.058-.835-7.563-.272-1.75-.712-3.509-.632-5.291.066-1.464.32-2.925.552-4.37l.269-1.696c.364-3.663-.019-7.418-1.077-10.944-.492-1.639-1.072-3.243-1.884-4.757-.238-.444-.474-.989-.822-1.363-.079-.085-.381-.299-.484-.374-.046-.061-.127-.072-.189-.026zM54.371 81.578c-1.144.147-2.225.412-3.258.936-.837.424-1.535 1.042-2.181 1.71l-.592.561c-.268.298-.482.673-.686 1.016-.526.88-.89 1.806-1.198 2.779-.594 1.874-.952 3.814-1.104 5.772l-.175 1.617-.121 3.38c.015.994.187 1.973.229 2.966l.067 2.432c.047 1.451.242 2.904.417 4.342l.538 4.383c.63 5.035 1.348 10.07 1.79 15.126l.39 5.344c.132 2.244.267 4.49.66 6.708.186 1.05.432 2.127.848 3.113.143.34.296.712.606.936.811.585 1.856-.084 2.585-.481.575-.314 1.154-.614 1.709-.963.362-.226.692-.496 1.064-.708.625-.355 1.294-.585 1.898-.975.149-.05.239-.213.189-.361s-.215-.224-.364-.173c-.152.013-.308.008-.458.04-.575.12-1.148.475-1.669.734-.394.197-.802.358-1.184.575-.461.261-.901.555-1.346.842-.393.253-1.331.847-1.831.695-.028-.009-.089-.096-.108-.134l-.188-.401c-.062-.139-.118-.287-.175-.427-.321-.795-.515-1.63-.66-2.473-.29-1.691-.376-3.407-.485-5.117l-.444-6.868c-.589-6.523-1.706-13-2.167-19.535-.029-.414-.028-.829-.054-1.242l-.229-3.06c-.041-.402-.106-.813-.135-1.216-.042-.592-.094-1.184-.094-1.778 0-.774.103-1.548.108-2.324.011-1.795-.054-3.599.148-5.385.265-2.344.755-4.65 1.844-6.761.277-.538.637-.996.969-1.496.125-.189.224-.407.377-.575.584-.641 1.374-1.127 2.167-1.47.781-.337 1.619-.485 2.463-.548.429-.044.744-.416.7-.842a.79.79 0 0 0-.861-.695zm18.524-4.851l-1.548.12c-2.882.452-5.683 1.208-8.481 2.018l-1.077.28-3.231 1.055-2.181.829c-.371.122-.568.527-.444.895a.7.7 0 0 0 .889.441c1.498-.291 2.974-.854 4.415-1.349l9.49-2.993 1.535-.267c1.338-.235 2.965-.365 4.106.521.358.278.59.723.794 1.109.208.394.387.809.565 1.216l1.05 2.646.444 1.229.471 1.31.31.641c.198.447.33.928.525 1.376l1.252 2.766c.061.144.219.208.364.147s.223-.231.162-.374c-.419-.925-.728-1.865-1.064-2.819l-.511-1.363-.417-1.349-.538-1.243-.646-1.751c-.43-1.073-.798-2.17-1.373-3.18-.194-.341-.413-.702-.7-.975-1.058-1.006-2.803-.974-4.159-.935z"/><path d="M55.059 81.684c-.139.025-.41.156-.538.214-.248-.037-.474.141-.511.388s.129.47.377.508c.097.087.329.298.444.361.249.135.589.189.861.254l.996.281 1.858.588c1.2.381 2.4.848 3.473 1.51.177.109.373.195.538.321.065.05.148.107.161.187.028.166-.025.328-.053.495-.049.284-.144.563-.215.842-.272 1.058-.659 2.327.094 3.287.158.201.449.464.592.601l1.44 1.269 3.756 3.087c.928.8 1.846 1.629 2.652 2.552.904 1.035 1.632 2.195 2.423 3.314.037.068.119.09.188.053s.091-.118.054-.187c-1.377-3.442-4.175-6.063-6.758-8.632a67.64 67.64 0 0 1-2.921-3.127c-.085-.096-.028-.34-.013-.441.059-.437.212-.863.336-1.283.106-.357.25-.7.296-1.069.048-.388.141-.794.054-1.176s-.316-.714-.552-1.029c-.144-.193-.373-.322-.565-.468-.134-.102-.276-.188-.417-.281a13.54 13.54 0 0 0-1.292-.748c-1.224-.627-2.566-1.128-3.917-1.403-.397-.081-.797-.091-1.198-.133-.521-.056-1.117-.229-1.643-.134zm23.489 53.663c-.141.057-.218.207-.161.347-.084.268-.237.679-.202.976.016.135.091.25.148.374a6.19 6.19 0 0 0 .404.695c.504.752 1.067 1.433 1.723 2.057.881.838 1.925 1.429 3.015 1.964 2.043 1.005 4.329 1.433 6.596 1.47.662.011 1.285-.016 1.938-.12.045-.003.084-.049.081-.093s-.049-.071-.094-.068c-.855-.013-1.705.033-2.557-.066s-1.736-.259-2.558-.508c-.419-.127-.823-.321-1.225-.495-1.106-.476-2.149-1.047-3.015-1.897-.783-.768-1.493-1.591-2.086-2.512-.248-.384-.436-.818-.659-1.216-.058-.103-.09-.211-.175-.293-.224-.219-.542-.325-.821-.468-.057-.14-.209-.204-.35-.147zm55.595 22.714l-2.867 1.122-3.177 1.363-4.496 1.604-3.958 1.229c-3.132.843-6.341 1.476-9.584 1.683-3.034.194-6.08.017-9.086-.4-3.101-.431-6.124-1.166-9.033-2.326-.148-.052-.31.027-.364.174s.028.308.175.361c3.703 1.174 7.429 2.263 11.307 2.686 3.219.351 6.47.329 9.692.053 4.804-.411 9.499-1.484 13.973-3.274.916-.366 1.814-.755 2.719-1.149.766-.333 1.557-.665 2.288-1.068.901-.497 1.772-1.067 2.639-1.617.122-.063.171-.213.107-.335a.25.25 0 0 0-.336-.106zm-.351-10.263c-.056-.048-.139-.042-.189.014-.499.375-.918.82-1.4 1.216-.63.518-1.295 1.003-1.992 1.429-1.548.947-3.218 1.691-4.913 2.339l-3.554 1.189c-.877.228-1.776.353-2.665.521l-4.321.668a.52.52 0 0 0-.458.575c.031.283.294.485.579.454 1.483-.174 2.958-.416 4.402-.802.89-.238 1.749-.569 2.625-.855 2.548-.832 5.052-1.717 7.403-3.02 1.121-.621 2.211-1.311 3.19-2.138.506-.426.966-.832 1.306-1.402.049-.056.043-.139-.013-.188zm-54.207.069c-.023-.013-.054-.009-.068.014s-.009.053.014.066c.124.095.27.167.377.281.349.373.494.84.915 1.162.24.184.524.307.781.468l2.315 1.309 4.563 2.005c3.041 1.173 6.196 2.013 9.409 2.565 1.829.315 3.69.573 5.546.655l4.779.08 5.451-.361c.157-.009.279-.138.27-.294s-.14-.276-.297-.267c-5.662.162-11.36.06-16.907-1.202-3.412-.777-6.744-1.951-9.921-3.408-1.143-.524-2.24-1.127-3.365-1.684-.393-.193-.805-.356-1.198-.547-.267-.13-.518-.303-.794-.415-.482-.195-.965-.109-1.453-.24-.151-.04-.275-.123-.417-.187zm56.24-31.575c-.086.01-.144.088-.134.174.019.549.101 1.072.161 1.616.24 2.162.801 4.287 1.306 6.401l.74 3.861c.042.429.02.842.027 1.27l.027 2.044c-.079 1.554-.476 3.06-1.225 4.423a.86.86 0 0 0 .39 1.162c.433.214.956.042 1.171-.388.557-1.211.974-2.517 1.104-3.848.071-.724.046-1.48.014-2.204l-.122-1.323-.484-2.178-1.562-6.039-.928-3.261c-.131-.512-.206-1.044-.31-1.563-.01-.085-.089-.157-.175-.147z"/><path d="M136.902 136.804a.61.61 0 0 0-.418.213c-1.189 1.252-2.555 2.358-4.145 3.073-.515.232-1.046.384-1.589.535-.942.263-1.62.481-2.598.214-.153-.035-.314.062-.35.214s.063.312.216.347c.944.18 1.976.341 2.934.174.759-.133 1.511-.436 2.221-.722 1.606-.647 3.211-1.65 4.254-3.047.218-.259.181-.652-.081-.868-.131-.108-.287-.148-.444-.133zm-25.442-28.262c-.151-.044-.306.05-.35.2-.116.241-.233.488-.296.748-.231.938.068 2.029.282 2.94l.619 2.472a.65.65 0 0 0 .795.441c.339-.097.528-.452.43-.788l-1.049-2.887c-.258-.883-.339-1.865-.243-2.779.044-.149-.037-.304-.188-.347zm2.154 12.762c-.11-.011-.218.078-.229.187-.063.267-.138.54-.162.814-.051.605.071 1.252.162 1.845l.161 1.028c.204.871.646 1.65 1.131 2.392a.62.62 0 0 0 .848.227.61.61 0 0 0 .229-.842l-.929-1.763c-.23-.409-.504-.803-.673-1.243-.289-.752-.334-1.62-.363-2.418.011-.109-.066-.217-.175-.227zm1.98 10.781c-.101.036-.144.154-.108.254.049.244.071.489.108.735.048.315.098.362.121.681.033.464-.051.947-.121 1.403l-.202 1.483a.42.42 0 0 0 .377.468c.236.029.455-.139.484-.374.143-1.028.173-2.001.054-3.033-.023-.204-.047-.564-.107-.762s-.254-.551-.351-.735c-.035-.1-.155-.156-.255-.12z"/><path d="M111.864 114.114c-.738.025-1.412.324-1.817.948-.681 1.046-.71 2.559-.189 3.661.128.321.498.475.821.348s.479-.494.35-.815l.916-1.55c.252-.495-.615.932-.983 1.349-.043.049-.028-.124-.041-.187l-.027-.2-.04-.401c-.027-.534.04-1.015.337-1.47.249-.382.506-.64.996-.587.131.013.232-.023.363-.041.05-.007.17-.058.148-.013-.518 1.054.007 0 .175 0 .145.061.302-.004.364-.147s-.004-.313-.148-.374c-.166-.158-.361-.368-.579-.455-.178-.07-.467-.073-.646-.066z"/><path d="M114.057 115.772c-.151.037-.157.065-.283.147-.037-.003-.078.016-.081.053s.03.078.067.08c-.14.132-.098.142-.201.254l.296-.16c.057-.041.101.369.107.414.034.227.149.418.176.655.07.631-.237 1.658-.781 2.071-.491.372-1.07.281-1.562-.04-.106-.069-.262-.195-.363-.267-.07-.05-.269-.08-.216-.147.783-.984-.009.001-.242-.174-.153-.131-.38-.112-.511.04s-.113.377.04.508c1.138 1.096 2.906 1.583 3.998.16a3.04 3.04 0 0 0 .444-.802c.125-.339.183-.696.202-1.055.033-.615.002-1.319-.579-1.671-.165-.099-.324-.113-.511-.066zm-.498.534c-.635.353-1.675.779-1.185 1.043.523.28.265-.047 1.185-1.043zm2.262 10.488c-.17.008-.333.053-.471.147-.076.052-.118.153-.203.187-.253.105.001.007-.053.107-.115.096-.124.26-.027.375.086.102.224.104.336.039.014-.007.028.011.041 0 .027 0 .054-.012.08-.013.017-.001.027.018.041.027.064.039.099.197.148.267.016.023.166.176.175.187.112.149.169.332.256.494.137.26.335.479.431.762.358 1.053-.252 1.973-1.374 2.058-.789.059-1.11-.524-1.359-1.176-.253-.663-.462-1.721.067-2.338.044-.051.181-.168.243-.174.43-.043-.002.004.107-.013.095.029.199-.026.229-.12s-.026-.198-.121-.228l.363-.067c-.158.014-.314.006-.471-.013-.051-.006-.1-.049-.148-.067-.205-.075-.403-.011-.579.107-.622.416-.646 1.398-.619 2.058.015.365.038.741.135 1.096.289 1.061 1.212 2.068 2.396 1.964 1.095-.097 2.156-.82 2.423-1.911.147-.605.043-1.221-.095-1.817-.164-.714-.397-1.09-.969-1.55-.145-.117-.306-.241-.484-.307-.154-.058-.328-.089-.498-.081zm-.592 10.744c-.255-.038-.478.006-.727.053-.167.032-.298.039-.457.107-1.209.513-1.392 2.235-1.387 3.354.005.307.256.553.565.548s.558-.254.553-.561l1.238-1.484c.379-.431-.776.847-1.238 1.189-.071.053-.014-.166-.014-.254l.014-.48c.033-.45.2-.989.538-1.31.324-.308.732-.495 1.171-.588.078-.016.163-.026.242-.026.085-.001.289-.044.243.026-.672 1.016.012.001.296-.026.093.012.176-.055.188-.147s-.054-.176-.148-.188c-.341-.122-.716-.16-1.077-.213z"/><path d="M117.154 137.979c-.13.005-.251.073-.377.107-.05-.028-.107-.01-.135.04s-.009.106.041.133c.034.12.043.248.094.361.169.37.658.529.929.815.249.264.394.648.444 1.002.187 1.316-.925 2.153-2.167 2.098-.878-.039-1.74-.547-2.423-1.056a.29.29 0 0 0-.404.041c-.1.12-.081.301.04.4.514.46 1.094.925 1.764 1.136.586.185 1.269.261 1.871.107 1.223-.314 2.143-1.548 2.046-2.806-.057-.741-.483-1.452-.996-1.977-.18-.184-.445-.412-.727-.401zm6.111-57.791a1.12 1.12 0 0 0-.726.374c-.217.244-.291.556-.337.869-.107.734.046 1.364.189 2.084l.497 3.047c.05.52.091.991.014 1.51a.63.63 0 0 0 .498.735.62.62 0 0 0 .727-.495c.139-.606.243-1.219.215-1.844-.054-1.227-.405-2.416-.605-3.621l-.162-1.096a.78.78 0 0 1-.014-.268c.148-.009.362.068.458.107l.431.174 3.19 1.35 4.052 1.296c1.128.245 2.296.255 3.432.454a19 19 0 0 1 2.841.735c.548.187 1.073.462 1.588.721.123.062.393.671.458.842l.121.334.108.361.228.868.068.494c.079.357.214.7.296 1.056l.364 1.831.511 2.833.458 2.338.754 4.743c.083.451.112.91.174 1.363l.916 5.599c1.272 7.021 2.874 13.947 4.913 20.791.672 2.253 1.39 4.496 2.154 6.721l.807 2.405c.232.711.465 1.41.553 2.151a9.41 9.41 0 0 1-.256.348c-.205.261-.415.511-.633.761-.847.973-1.758 1.89-2.787 2.673-.926.705-1.798 1.49-2.718 2.204-1.898 1.474-3.966 2.764-6.139 3.795-1.342.637-2.724 1.066-4.132 1.523-.339.11-.709.125-1.05.228-.177.053-.33.15-.499.227-.129.02-.222.138-.201.267s.139.22.269.2c.188.021.376.065.565.054.373-.022.736-.165 1.104-.228.771-.13 1.439-.362 2.167-.641 2.172-.831 4.208-1.893 6.166-3.14 1.509-.961 2.984-2.009 4.347-3.167.372-.315.693-.646 1.037-.988.496-.494 1.044-.944 1.548-1.43.531-.512 1.065-1.019 1.548-1.577.202-.232.467-.483.579-.775.155-.404.027-.907-.068-1.309-.165-.705-.371-1.408-.592-2.098l-2.261-7.309c-1.457-4.919-2.701-9.898-3.716-14.925-.719-3.568-1.284-7.178-1.951-10.757l-.337-1.83c-.089-.449-.214-.883-.282-1.336-.24-1.583-.533-3.158-.835-4.73-.151-.788-.236-1.587-.364-2.378a59.23 59.23 0 0 0-.538-2.833l-.404-1.857c-.077-.366-.105-.747-.202-1.109-.086-.322-.228-.629-.323-.949-.216-.727-.405-1.572-.834-2.218-.328-.492-.864-.69-1.387-.935-.743-.349-1.483-.706-2.275-.936-1.947-.564-4.008-.556-5.99-.948-1.463-.29-2.804-.919-4.16-1.51l-1.09-.468c-.639-.267-1.659-.866-2.477-.762zm.216 1.27zm14.646 13.469c-1.028.288-2.141.7-2.988 1.363-.199.155-.521.336-.647.561-.098.176-.084.424-.121.615l-.134.668c-.063.604.05 1.226.161 1.817.145.779.325 1.557.363 2.351.021.421-.016.85-.04 1.27-.015.155.1.292.256.307s.308-.098.323-.254c.172-1.266 0-2.539-.189-3.794-.08-.532-.303-1.586.054-2.058.07-.092.252-.094.337-.16.132-.103.181-.273.336-.374.785-.51 1.755-.601 2.652-.761.431-.099.706-.521.606-.949s-.539-.7-.969-.601z"/><path d="M138.879 86.55c-.146.035-.28.118-.364.254-.585.655-.961 1.412-1.292 2.218-.464 1.131-.675 2.3-.431 3.514.126.627.439 1.193.74 1.751.066.122.121.248.202.361.126.176.471.518.619.668a.29.29 0 0 0 .391.107c.137-.077.185-.252.107-.387l-.215-.842-.255-.681c-.254-.809-.417-1.721-.297-2.565.069-.48.203-.97.391-1.416.305-.727.749-1.389 1.036-2.125.169-.272.086-.621-.188-.788-.137-.083-.299-.101-.444-.067zm-4.305 67.341c-.088.023-.145.101-.122.187.257 1.691 1.162 3.187 1.952 4.676.555 1.046 1.053 2.126 1.467 3.234l.822 2.378c.649 1.805 1.408 3.58 2.247 5.305l1.885 3.595c3.049 5.856 6.581 11.431 9.867 17.156 1.037 1.807 2.018 3.643 3.002 5.478.123.227.404.31.633.188a.46.46 0 0 0 .188-.629c-1.767-3.209-3.625-6.363-5.519-9.5-2.594-4.295-5.235-8.57-7.565-13.014-.623-1.188-1.162-2.417-1.723-3.635-.912-1.98-1.81-3.969-2.639-5.986-.399-.974-.717-1.981-1.157-2.939-.495-1.077-1.174-2.064-1.723-3.114-.558-1.065-.991-2.159-1.427-3.273-.023-.086-.101-.13-.188-.107zm22.317 42.934c-.062.026-.093.1-.068.161l.458 1.523.377 1.229c.734 1.861 1.663 3.639 2.504 5.452l1.777 4.116c.631 1.483 1.369 2.913 1.696 4.502.32 1.554-.077 3.012-.471 4.517-.331 1.262-.635 2.553-.7 3.861-.09 1.792.178 3.648.713 5.358l.323.896c.139.3.322.578.418.895.05.168.074.335.107.508.062.143.219.208.364.147s.223-.218.161-.361c-.101-.142-.227-.274-.309-.428-.192-.356-.172-.553-.27-.935l-.377-1.296c-.236-.884-.406-1.798-.457-2.712-.098-1.743.193-3.532.632-5.212l.553-2.031c.259-.939.534-1.874.47-2.859-.06-.939-.373-1.863-.659-2.753l-.619-1.844c-.489-1.232-1.105-2.428-1.71-3.607l-3.284-6.601c-.203-.377-.466-.729-.687-1.096l-.794-1.363c-.026-.061-.087-.092-.148-.067zm7.659 34.474c-.146.056-.219.215-.161.36.407 1.041.5 2.14.565 3.247l.256 4.423c.14.931.335 1.856.942 2.605.176.194.465.203.66.027s.216-.475.04-.668c-.375-.351-.543-.811-.686-1.296-.207-.702-.286-1.427-.364-2.151l-.175-1.483-.215-2.459c-.096-.821-.191-1.671-.499-2.445a.28.28 0 0 0-.363-.16zm5.062-7.793a.13.13 0 0 0-.095.161c.318 1.441.434 2.909.62 4.369.378 2.989.823 6.101.296 9.099-.296 1.683-.946 3.805-2.854 4.223-.143.029-.232.166-.202.307a.26.26 0 0 0 .31.2c2.32-.458 3.066-3.071 3.297-5.104.503-4.418.044-8.902-1.211-13.161-.018-.072-.09-.112-.161-.094zm-17.338-79.916c-.057.061-.047.158.014.214l2.759 3.007c2.115 2.584 3.881 5.391 5.331 8.391 3.436 7.109 5.045 14.965 6.582 22.648 1.641 8.2 3.208 16.552 6.421 24.319.543 1.313 1.164 2.592 1.804 3.861.13.263.448.37.713.241s.373-.445.243-.708a74.23 74.23 0 0 1-4.093-10.436c-3.026-9.815-4.336-20.055-7.188-29.917-1.637-5.662-3.835-11.273-7.296-16.101-1.438-2.007-3.135-3.978-5.074-5.519-.061-.056-.159-.06-.216 0z"/><path d="M177.164 207.539c-.097-.057-.225-.029-.283.067s-.03.223.067.281c.661.528 1.507.825 2.046 1.497.381.473.568 1.039.767 1.603l.472 1.309 1.44 4.209 1.037 3.327.955 4.062c.245 1.2.505 2.417.458 3.648-.039 1.011-.266 2.012-.498 2.993a26.96 26.96 0 0 1-1.575 4.69l-1.629 3.301-1.023 2.418-2.409 5.465-.714 1.269c-.28.458-.469.75-.956.989-.026.013-.085.047-.121.04-.056-.011-.112-.148-.148-.187-.17-.183-.292-.383-.498-.534-.438-.323-.921-.122-1.306.173-.538.414-.889.978-1.211 1.564-.446.81-.769 1.588-1.831 1.603-.264.004-.532-.101-.781-.174-.039-.011-.029-.133-.04-.213-.037-.265-.023-.551 0-.815.041-.485.154-.918.256-1.39l.43-1.937.297-1.123.7-2.365.323-1.016c.117-.48.138-1.008.188-1.496l.175-1.844c.089-1.41.015-2.786-.686-4.049-.03-.085-.116-.122-.202-.093s-.138.115-.108.2c.133.895.006 1.813-.013 2.713l-.148 2.966-.121.909-.054.334-.014.093c-.001.009.002.014 0 .027s-.002.035 0 .027l-.565 1.804-.741 2.672c-.281 1.159-.501 2.324-.578 3.514-.032.48-.067 1.064.188 1.497.307.522 1.67.732 2.221.641.196-.032.389-.096.566-.187.944-.488 1.235-1.596 1.79-2.419a2.6 2.6 0 0 1 .579-.641c.044-.033.099-.067.148-.094.225.219.396.502.713.602.499.156 1.124-.012 1.508-.348.147-.128.248-.283.377-.427a7.91 7.91 0 0 0 .982-1.35l.27-.481c1.312-2.398 2.169-5.01 3.257-7.509l1.063-2.165c.832-1.792 1.464-3.664 1.966-5.571.32-1.219.647-2.505.7-3.769.091-2.207-.437-4.415-1.036-6.52l-1.441-4.597-1.535-4.262-.498-1.336c-.296-.798-.603-1.641-1.184-2.285-.538-.596-1.257-1.005-1.992-1.31z"/><path d="M176.571 232.848c-.033.021-.048.06-.027.093l.081.348c.077.185.25.318.364.481.198.285.335.558.363.908.041.508-.016 1.018-.068 1.524-.102 1.013-.332 1.976-.619 2.952l-1.669 4.958c-.293.811-.689 1.569-1.077 2.338-.235.466-.543.932-.592 1.456-.117.219-.045.485.175.602s.502.031.619-.187c.082-.078.187-.14.256-.227.223-.282.424-.855.565-1.176l.768-1.884c.61-1.423 1.19-2.802 1.548-4.316.319-1.352.437-2.733.498-4.115.036-.824.247-1.714-.067-2.512-.2-.507-.597-.915-1.024-1.23-.021-.033-.061-.034-.094-.013zm3.285-2.979c-.056.038-.078.117-.04.173.095.2.314.338.404.535-.049.111-.028.24-.04.361a5.19 5.19 0 0 0-.014.855c.023.368.135.73.188 1.095l.243 1.965.121 1.189.04.36c.003.024-.002.043 0 .067-.07.161-.087.336-.121.508l-.094.574-.189.882c-.022.192.053.427.095.615-.005.038.016.076.054.08s.076-.029.081-.066c.091-.172.243-.327.309-.508.1-.274.147-.565.242-.842.126-.365.302-.74.377-1.123.029-.146-.007-.32-.014-.467l-.053-.895-.31-2.472-.202-.936c-.057-.482.074-1.068-.215-1.496-.153-.227-.492-.241-.687-.414-.038-.057-.118-.078-.175-.04zm2.84-1.445c-.042.004-.07.039-.067.08l.054 2.766.121 1.657c.012.142.139.252.283.24s.254-.138.242-.28l-.161-1.657-.391-2.739c-.004-.042-.039-.07-.081-.067zm-97.11-166.3c-.049.014-.082.058-.067.107.02.274.015.559.067.829.051.259.156.499.243.748l.538 1.443c.436 1.118.919 2.224 1.481 3.287.896 1.696 2.066 3.273 3.392 4.664 1.817 1.904 3.975 3.46 6.475 4.356 1.523.546 3.184.703 4.792.668 1.112-.024 2.206-.103 3.298-.321 2.669-.531 5.242-1.672 7.565-3.06 1.971-1.178 3.726-2.633 5.358-4.236l1.534-1.644c.096-.124.216-.246.283-.387.072-.154.088-.318.134-.481.084-.095.07-.238-.027-.321s-.24-.082-.323.013c-.156.069-.328.121-.471.214-.128.084-.226.214-.336.321l-.916.949-1.521 1.483c-1.979 1.784-4.148 3.471-6.542 4.677-2.452 1.235-5.26 2.099-8.036 2.058-1.544-.023-3.049-.331-4.523-.761-.661-.193-1.303-.41-1.925-.709-2.193-1.05-4.104-2.63-5.6-4.529-1.362-1.73-2.484-3.724-3.338-5.746l-.781-2.111-.242-.735c-.11-.25-.27-.483-.404-.722-.015-.049-.059-.068-.108-.053z"/><path d="M86.868 66.346c-.068.013-.121.08-.108.147-.068.536-.014 1.08-.054 1.617-.04.545-.106 1.117-.256 1.644-.832 2.914-2.766 5.642-5.088 7.576-.768.64-1.629 1.207-2.517 1.67-.234.122-.563.318-.835.334-.105.006-.206-.023-.309-.04a.27.27 0 0 0-.202.334c.037.151.184.251.336.214.443-.323.97-.371 1.481-.561a7.73 7.73 0 0 0 1.548-.802c1.953-1.281 3.611-3.031 4.805-5.024.658-1.097 1.179-2.288 1.44-3.541.233-1.116.482-2.411-.094-3.461-.013-.067-.081-.12-.148-.107zm26.275 8.646c-.099-.064-.232-.044-.296.053-.134.041-.276.072-.391.16-.143.11-.211.325-.242.494-.124.671.244 1.26.659 1.751.328.387.697.644 1.118.922.617.408 1.261.766 1.938 1.069.504.226 1.025.462 1.575.535.148.053.311-.027.364-.174s-.028-.308-.175-.361c-.276-.174-.559-.292-.849-.441-.975-.5-1.956-1.082-2.719-1.871-.186-.193-.393-.373-.538-.601-.17-.268-.19-.532-.242-.829-.025-.141-.102-.272-.135-.414.065-.098.031-.23-.067-.294zm-28.849 6.921c-.142-.073-.317-.007-.39.134a.27.27 0 0 0 .121.374c1.559 1.089 3.375 1.622 5.156 2.245l3.998 1.349 2.531 1.069c1.578.686 3.278 1.668 4.186 3.18.278.464.45.972.565 1.497a.29.29 0 0 0 .337.227c.154-.029.244-.181.215-.334-.369-2.271-2.261-3.776-4.146-4.891-1.075-.636-2.198-1.127-3.352-1.603l-1.763-.721-7.458-2.526zm32.74.973l-2.504.948-1.763.695c-2.546 1.045-5.748 2.453-6.071 5.559-.047.45-.016.852.067 1.296.015.133.136.229.27.214s.23-.135.215-.267c-.02-.568-.022-1.136.148-1.684.664-2.146 3.149-3.368 5.074-4.142l1.185-.454 1.737-.641c.68-.263 1.316-.571 1.938-.948.16-.08.216-.283.135-.441s-.272-.214-.431-.133zM87.729 56.244c-.028.003-.043.038-.04.067l-.013.107c.003-.028-.008.053-.013.08v.027c-.015.065-.049.121-.054.187-.002.034-.006.14 0 .107.032-.169 0 .001-.014.187a.18.18 0 0 0 .175.187.19.19 0 0 0 .188-.187c-.083-.355-.055-.192-.081-.347-.01-.061.022.118.067.16.025.024.002-.072 0-.107-.006-.093-.044-.156-.081-.241-.011-.025-.032-.107-.027-.08.036.205-.002.007-.04-.094-.003-.028-.039-.056-.067-.053zm-.216 2.084c-.094-.031-.198.014-.229.107-.425 1.11-.976 2.135-1.589 3.153l-.861 1.336-1.036 1.229-1.804 1.951c-.728.698-1.552 1.28-2.302 1.951a.45.45 0 0 0-.081.628c.154.192.439.219.633.067 1.002-.694 1.844-1.606 2.679-2.485l1.79-2.084.902-1.376a14.84 14.84 0 0 0 2.006-4.263c.031-.093-.014-.183-.108-.214zm-8.818-15.753c-.056-.03-.118-.002-.148.054-.457.511-.644 1.055-.888 1.683-1.124 2.884-.04 5.685 1.117 8.391l1.023 2.392c.308.838.547 1.688.767 2.552.055.208.262.322.471.268s.338-.26.283-.468l-.364-1.323c-.337-1.058-.788-2.113-1.238-3.126-.823-1.854-1.768-3.711-1.871-5.772-.046-.916.024-1.877.255-2.766.157-.601.49-1.124.646-1.724.03-.056.003-.13-.054-.161z"/><path d="M81.147 58.716c-.143.013-.255.139-.243.281.155 1.984.155 3.969-.282 5.919a12.51 12.51 0 0 1-.566 1.857 6.71 6.71 0 0 1-.323.681c-.058.11-.16.21-.175.334-.019.163.041.333.067.495-.041.072-.006.159.068.2s.16.019.202-.053c.157-.066.342-.089.471-.201.105-.091.132-.248.189-.374s.097-.259.148-.388l.417-1.176c.671-2.392.565-4.889.31-7.336-.013-.142-.14-.253-.282-.241zm-2.613-16.141l-1.481 1.51c-.354.399.706-.805 1.01-1.243.1-.145-.261.24-.391.361l-.39.361-1.157 1.096c-.121.13-.458.531-.323.414.935-.812-.003-.001-.229.521-.034.034-.034.1 0 .134s.087.034.121 0l1.534-1.47c.403-.35-.724.793-1.01 1.242-.095.15.286-.215.417-.334l.377-.374 1.104-1.149.364-.387c-.941.807-.006.006.269-.468.059-.058.059-.155 0-.214s-.156-.058-.215 0zm21.781-3.38c-1.368.517-2.8.815-4.241 1.042-1.515.239-3.151.348-4.631-.147-.501-.168-.902-.437-1.346-.708-.061-.053-.162-.047-.215.013s-.048.161.013.214c.716.835 2.196 1.151 3.231 1.243 2.513.222 5.08-.148 7.39-1.163.137-.056.205-.212.148-.347a.27.27 0 0 0-.349-.147z"/><path d="M95.535 36.508c-.211.12-.357.272-.552.414-1.027.752-1.831 1.752-3.015 2.298-.385.178-1.29.431-1.669.094-.024-.021-.147-.218-.162-.241a.29.29 0 0 0-.391.107.28.28 0 0 0 .094.387c.475.062.938.221 1.427.174 1.135-.11 2.104-.831 2.934-1.55.38-.329.702-.655.983-1.069.136-.2.282-.357.39-.574.013-.013.013-.028 0-.04s-.028-.013-.041 0z"/><path d="M79.948 32.595a.27.27 0 0 0-.053.387c.379.254.608.626.942.935.582.539 1.211.996 1.925 1.35 1.651.819 3.452 1.16 5.263 1.416l2.235.294 2.854.16 2.477.107c.198.015.375-.137.39-.334s-.138-.359-.336-.374c-1.285-.199-2.593-.162-3.89-.227-2.745-.138-5.567-.226-8.158-1.242-.986-.386-1.96-.901-2.719-1.644-.296-.289-.401-.372-.525-.775-.094-.125-.278-.147-.404-.053z"/><path d="M85.223 30.683c-.183.082-.333.191-.511.281-.426.215-.892.39-1.333.575l-1.09.481c-.711.281-1.458.465-2.208.601-.048.004-.072.046-.067.093s.046.084.094.08c.797.004 1.534-.234 2.288-.468.715-.221 1.449-.477 2.113-.828l.364-.214c.185-.089.377-.145.552-.254.1-.053.134-.169.081-.267s-.183-.133-.283-.08z"/><path d="M82.37 28.935c-.046.034-.062.102-.027.147.032.414.405.686.713.935.763.617 1.655 1.038 2.598 1.309.495.142.888.154 1.158-.334.012-.021.007-.028 0-.027-.516-.498-1.122-.424-1.777-.668-.55-.205-1.111-.489-1.615-.788-.305-.181-.562-.444-.902-.548-.035-.045-.103-.061-.148-.027z"/><path d="M101.566 14.501c-.055-.038-.124-.028-.162.027l-4.994 5.077c-2.894 2.438-6.132 4.445-9.409 6.333-1.029.593-2.032 1.228-3.056 1.831-.296.174-.6.322-.889.508-.146.094-.275.23-.431.307s-.341.108-.511.16a.28.28 0 0 0-.094.387c.081.134.256.174.39.094.126-.125.232-.271.377-.374s.319-.145.471-.227.297-.18.444-.267c.441-.261.885-.499 1.333-.748l3.998-2.165c1.169-.636 2.305-1.34 3.433-2.044 2.276-1.422 4.428-3.022 6.286-4.957.475-.495.989-.983 1.414-1.523.547-.697 1.014-1.477 1.426-2.258a.11.11 0 0 0-.026-.16zM83.057 34.893c-1.285.727-2.431 1.621-3.513 2.619-.946.871-1.86 1.823-2.531 2.926-.851 1.399-1.434 3.093-1.44 4.73-.006.058.036.115.094.12s.115-.035.121-.093c.18-.889.337-1.767.7-2.606.28-.647.66-1.229 1.064-1.804a16.92 16.92 0 0 1 2.436-2.793c1.055-.965 2.24-1.789 3.352-2.686a.25.25 0 0 0 .067-.347c-.078-.114-.236-.145-.35-.067z"/><path d="M107.046 7.861c-.721.04-1.461.104-2.167.254-.685.145-1.352.395-2.02.601l-1.305.441c-2.482.969-4.733 2.688-6.543 4.61-.605.643-1.111 1.376-1.615 2.098l-1.736 2.752c-.607 1.104-1.135 2.281-1.575 3.461-.213.572-.318 1.198-.538 1.764-.074.189-.179.353-.269.535-.04.151.05.308.202.347s.31-.05.35-.2c.01-.201.006-.403.04-.601.1-.575.383-1.163.579-1.71.353-.988.766-1.916 1.252-2.846.693-1.326 1.489-2.599 2.463-3.741l1.319-1.416c1.63-1.737 3.552-3.171 5.734-4.156.797-.36 1.605-.729 2.463-.922.419-.094.922-.139 1.346-.2.925-.133 1.836-.241 2.774-.227l1.467.094 1.507.147c.798.145 1.576.418 2.369.575.256.051.634.032.889.027.107.034.221-.027.256-.134s-.027-.22-.135-.254c-.191-.141-.526-.421-.754-.508-.783-.298-1.654-.406-2.477-.534l-1.588-.254c-.755-.075-1.532-.042-2.288 0zm14.699 5.011a.32.32 0 0 0-.148.428c.066.312.148.623.297.909.304.585.867 1.008 1.426 1.336 1.164.684 2.48.938 3.756 1.336 3.118.973 6.73 2.153 8.547 5.078.745 1.197 1.009 2.58 1.199 3.955l.269 2.565.229 4.035.04 6.133.081 2.338.161 4.917.068 1.016c-.165-.074-.33-.143-.485-.241l-1.009-.614-1.441-.909c-.153-.1-.288-.225-.457-.294s-.36-.075-.539-.107c-.024-.015-.052-.011-.067.014s-.011.065.013.08c.108.143.193.305.323.428s.308.194.458.294l.929.655 1.319.869c.292.153 1.035.516 1.319.187.147-.17.085-.467.067-.655l-.094-1.149.014-4.49.094-2.338-.04-5.532-.041-3.006c-.068-2.355-.126-4.948-.888-7.202a7.57 7.57 0 0 0-.929-1.831c-1.526-2.23-4.081-3.461-6.583-4.302l-2.274-.722c-.697-.24-1.348-.53-2.006-.855-.8-.394-1.53-.788-2.221-1.35-.331-.269-.656-.51-.943-.828-.077-.159-.283-.224-.444-.147z"/><path d="M111.985 1.06c-2.507.18-4.677 1.371-5.52 3.862-.144.427-.256.962-.228 1.416.007.122.105.492.134.615.086.371.18.682.431.975.075.101.221.115.323.04s.116-.219.04-.321c-.137-.218-.238-.518-.256-.775s.036-.269.068-.521c.039-.308.071-.568.162-.869.13-.435.289-.831.538-1.216 1.196-1.854 3.187-2.295 5.263-2.285 2.887.014 5.756.694 8.494 1.55 1.477.462 2.935.985 4.348 1.617l1.978.989c.445.266.863.58 1.293.869l1.898 1.35c.765.623 1.694 1.376 2.167 2.258.171.319.344.666.444 1.016.327 1.135.157 2.376-.161 3.487-.173.602-.415 1.362-.767 1.884-.146.216-.346.412-.526.601-.195.224-.171.554.054.748a.55.55 0 0 0 .768-.053c.686-.849 1.385-1.725 1.777-2.753.527-1.386.46-2.864.04-4.262-.278-.924-.657-1.8-1.279-2.552-.672-.815-1.528-1.477-2.396-2.071-.886-.607-1.812-1.05-2.786-1.497l-2.073-.962c-2.89-1.279-5.912-2.266-9.033-2.806-1.711-.296-3.459-.459-5.195-.334zm5.183 10.689c-.202.062-.406.09-.593.187-.313.163-.546.445-.807.681l-.7.641c-.773.731-1.472 1.552-1.939 2.512-.354.728-.587 1.513-.821 2.285-.19.627-.436 1.298-.511 1.951-.023.197-.009.403-.014.601-.011.042.025.083.067.093s.084-.011.095-.053l.269-.535c.306-.741.445-1.555.713-2.312a11.09 11.09 0 0 1 1.158-2.325c.496-.763 1.084-1.463 1.723-2.111l.714-.682c.131-.121.286-.215.39-.361.121-.17.178-.374.269-.561zM129.9 54.16c.022.162.005.325.054.481.079.248.277.448.418.668l.902 1.416c.784 1.524 1.146 3.386.672 5.051-.09.317-.176.657-.336.949s-.41.563-.633.815c-.039.036-.036.108 0 .147s.096.036.135 0c2.257-1.686 1.858-5.009.888-7.296-.302-.712-.63-1.427-1.238-1.937-.112-.095-.211-.206-.35-.254-.161-.056-.341-.026-.512-.04z"/><path d="M135.299 45.929a.45.45 0 0 0-.417.481l.149 2.686.013 1.831.027 2.713c-.033.867-.155 1.719-.256 2.579-.108.914-.209 1.795-.458 2.686-.526 1.886-1.182 3.604-3.176 4.316-.112.035-.184.156-.149.267s.158.168.27.133c2.037-.544 3.226-2.624 3.769-4.516a20.96 20.96 0 0 0 .606-2.779c.145-1.021.174-2.072.228-3.1l.108-2.312c.015-1.52-.107-3.054-.229-4.569a.45.45 0 0 0-.485-.414zm-9.355 7.896c-.078-.015-.146.042-.162.12l-.498 1.617c-.461 1.255-1.134 2.573-2.046 3.567-.304.332-.651.692-1.023.949l-1.158.722c-.019.005-.032.02-.026.04s.034.033.053.027c.322.01.43.043.741-.067.157-.056.494-.273.632-.361.443-.281.824-.583 1.172-.976.97-1.098 1.617-2.368 2.059-3.754.181-.567.336-1.115.377-1.71.015-.078-.043-.158-.121-.174z"/><path d="M125.515 59.759c-1.032.21-2.004.623-3.029.855-.276.062-.606.151-.889.147-.195-.003-.315-.043-.511 0-.078-.023-.152.016-.175.093s.017.165.094.187c.227.205.461.191.754.24.851.143 1.753-.177 2.517-.521a6.31 6.31 0 0 0 .727-.387l.592-.401c.059-.025.093-.102.068-.16s-.09-.079-.148-.053z"/><path d="M124.678 60.199c-.132-.085-.305-.05-.39.08-.042.182-.052.375-.121.548-.128.319-.379.578-.539.882-.229.438-.42.901-.552 1.376-.667 2.414-.026 4.914 1.777 6.668.217.212.566.533.835.682.165.091.349.144.525.214.081.056.198.028.255-.053s.042-.198-.04-.254c-.557-.614-1.237-1.094-1.75-1.751-1.381-1.767-1.666-3.714-1.09-5.852.125-.467.278-.937.484-1.376.072-.153.131-.313.242-.441.123-.139.295-.224.445-.334.085-.131.051-.303-.081-.388z"/><path d="M128.058 60.721c-.021-.011-.043-.006-.054.013-.69.629-1.069 1.564-1.4 2.419-.594 1.532-1.099 3.261-1.05 4.917a6.04 6.04 0 0 0 .269 1.617c.013.041.109.324.135.36.083.12.215.172.336.241.025.042.079.065.122.04s.051-.079.026-.12c.002-.07.019-.312 0-.388-.027-.108-.107-.203-.148-.308-.087-.224-.129-.442-.161-.681-.11-.802-.037-1.653.107-2.445.215-1.181.636-2.308 1.077-3.421.284-.714.639-1.428.754-2.191.011-.02.007-.043-.013-.053zm3.715 2.672c-.015.01-.024.025-.014.04.031.298.019.596.041.895.007.1.036.232.026.334-.017.179-.104.34-.161.508a8.58 8.58 0 0 1-.767 1.657c-.934 1.554-2.145 2.899-3.285 4.303l-3.096 3.941-.78 1.123c-.526.866-.893 1.813-1.226 2.766-.567 1.625-.95 3.328-1.023 5.051-.106 2.523.481 5.017 2.531 6.681 1.155.938 2.424 1.105 3.796 1.523a.3.3 0 0 0 .337-.24c.026-.154-.074-.294-.229-.321-2-.078-4.034-1.558-4.9-3.3-.467-.939-.648-2.024-.714-3.06-.106-1.666.206-3.333.66-4.93.363-1.276.856-2.556 1.561-3.688.374-.599.852-1.135 1.293-1.683l1.588-1.951 2.881-3.581.807-1.096.647-1.042c.345-.579.696-1.287.78-1.964.029-.233 0-.463-.013-.695-.036-.62-.145-.921-.7-1.256-.01-.015-.025-.023-.04-.013z"/><path d="M119.968 69.006c-.132-.086-.304-.05-.391.08l-.471.762c-.133.258-.205.554-.296.828-.194.584-.342 1.179-.485 1.777l-.484 2.459c-.159 1.165-.24 2.353-.283 3.528l-.027 1.47c.015.581.085.905.135 1.483.184 2.134.4 4.246 1.171 6.267.228.599.462 1.192.781 1.751.884 1.551 2.326 2.799 4.106 3.18.646.138 1.305.166 1.965.134.764-.038 1.526-.25 2.248-.494a.31.31 0 0 0 .202-.388c-.052-.162-.227-.251-.391-.201-.892.256-1.81.477-2.746.481a5.61 5.61 0 0 1-1.427-.174c-3.038-.789-4.46-4.275-4.967-7.028l-.215-1.39c-.103-.712-.187-1.445-.202-2.165-.011-.486.036-.969.04-1.456v-1.456a34.6 34.6 0 0 1 .296-3.448c.211-1.601.438-3.23 1.104-4.717.139-.31.224-.61.417-.895.087-.13.051-.302-.08-.387zm-20.703.628c-.109.112-.112.292 0 .401.532.233.974.654 1.507.909.771.367 1.653.614 2.504.695.329.031.654-.009.983 0 .672.02 1.421.072 1.992-.321.026-.006.033-.028.027-.053s-.028-.046-.054-.04c-.646-.103-1.297.065-1.952.054-.321-.006-.611-.089-.928-.134-.724-.102-1.436-.22-2.127-.468-.44-.158-.864-.345-1.239-.628-.067-.051-.151-.093-.202-.16-.054-.073-.071-.172-.108-.254-.112-.109-.294-.112-.404 0zm-5.655-3.73c-.109-.049-.246-.001-.296.107a.21.21 0 0 0 .108.281c.539.144 1.019.392 1.548.561.356.113.724.19 1.09.267l3.634.628c.315.072.662.152.956.307.445.236.833.583 1.346.668.724.12 1.45-.285 2.167-.16.212.037.469.185.659.267.488.21 1.007.383 1.535.454 1.662.226 3.339-.235 4.873-.828.618-.239 1.262-.518 1.709-1.016-.77.007-1.512.372-2.234.614-.908.306-1.882.516-2.84.588-.791.059-1.672-.031-2.423-.294-.39-.136-.721-.392-1.131-.481-.553-.12-1.109.027-1.656.094-.17.021-.366.055-.538.026-.549-.09-.946-.543-1.481-.668-.281-.066-.586-.023-.875-.04l-.659-.067c-1.367-.156-2.696-.349-4.025-.709-.342-.092-.706-.139-1.023-.294-.161-.079-.295-.207-.444-.307zm6.731-7.135c-.113.038-.172.167-.134.281l.511 1.309c.318.686.831 1.308 1.414 1.791.255.211.585.31.902.387 1.008.247 1.933-.18 2.759-.722.404-.264.694-.509.929-.935.075-.066.079-.18.013-.254s-.167-.079-.242-.013c-.475.177-.834.484-1.265.735-.592.345-1.359.565-2.046.467-.241-.034-.463-.168-.687-.254-.279-.107-.454-.221-.659-.441-.276-.294-.497-.643-.7-.989a4.58 4.58 0 0 1-.525-1.229.21.21 0 0 0-.27-.133zm19.142-14.057l-1.252.174c-.213.049-.41.153-.62.214l-1.844.467-1.804.428-1.777.468c-.208.023-.359.207-.336.414a.39.39 0 0 0 .431.334l1.911-.08c.42-.052.826-.166 1.239-.254l1.831-.361c.795-.136 1.619-.184 2.422-.267a.77.77 0 0 0 .673-.868c-.056-.427-.445-.724-.874-.668zm-21.376-4.836a.59.59 0 0 0-.404.187c-.211.233-.181.592.054.801.073.165.103.354.215.495.101.127.261.182.39.28l1.198.868 2.719 2.165a.23.23 0 0 0 .323-.013c.087-.092.079-.235-.013-.321l-.7-.695c-.11-.123-.192-.259-.296-.387l-1.279-1.523-.942-1.176c-.114-.124-.194-.284-.336-.374-.153-.097-.353-.106-.525-.16-.118-.105-.258-.155-.404-.147zm23.92 9.446a.6.6 0 0 0-.457.093 5.21 5.21 0 0 1-1.67.735c-1.062.245-2.122.032-3.19.027-.165-.001-.333.036-.498.04-.669.015-1.337-.058-2.006.026-.345.044-.656.156-.983.267-.245.084-.488.135-.726.241-.491.218-.982.558-1.387.908-.241.209-.407.473-.619.709-.093.103-.077.255.027.347s.257.091.35-.013c.131-.146.288-.269.444-.387l.606-.494c.403-.275 1.006-.524 1.494-.588.724-.095 1.513-.05 2.235.014.49.043.948.174 1.44.214 1.889.152 3.589.076 5.182-1.016.286-.192.356-.585.162-.868a.62.62 0 0 0-.404-.254z"/><path d="M122.362 49.657c-.189-.057-.399.039-.457.227-.085.161-.15.346-.256.494s-.262.25-.363.401c-.183.273-.266.591-.418.882-.301.578-.677 1.129-1.077 1.644l-.646.789c-.116.128-.257.224-.363.361-.118.151-.21.331-.31.494-.069.052-.079.145-.026.214s.145.092.215.04c.191-.053.399-.078.579-.16.34-.156.619-.413.915-.641.745-.574 1.36-1.299 1.844-2.098.099-.162.183-.339.269-.508s.201-.334.243-.521c.044-.199-.001-.398.013-.601l.067-.575c.058-.188-.039-.384-.229-.441zm-29.653-7.189a.56.56 0 0 0-.417.121c-.248.198-.293.555-.094.802.391.967 1.631 1.334 2.49 1.737 1.206.567 2.407 1.198 3.487 1.978.511.369.867.762 1.212 1.283.094.142.207.261.255.428.098.334.044.714.054 1.056-.031.122.053.236.175.267s.239-.038.27-.16c.277-.511.207-.996.081-1.537-.267-1.138-1.433-1.993-2.356-2.605l-.888-.575-.902-.535-1.266-.775c-.576-.409-1.088-.927-1.709-1.27a.59.59 0 0 0-.39-.214z"/><path d="M92.79 42.667a.61.61 0 0 0-.727.468c.178 2.083.241 1.295.175 2.084-.051.604-.18-1.199-.364-1.777-.037-.115-.071.229-.094.347-.048.244-.035.5-.027.748.008.254-.01.511.027.762.052.358.165.736.269 1.082l.108.334c.038.106.124.434.121.321-.035-1.299-.002-.006.134.267.07.197.286.296.485.227s.312-.284.243-.481c.068-1.834.203-1.127.067-1.83-.1-.516-.061 1.055-.121 1.577-.01.09-.021-.19-.027-.281a5.09 5.09 0 0 1 0-.601c.031-.538.138-1.074.229-1.603.013-.076.008-.151.013-.227l-.027-.695c.069-.332-.15-.654-.485-.722zm.511 1.417c.002-.027.012-.053.014-.08l.013-.307-.027.387zm21.056 8.45c0-.918.752-1.663 1.679-1.663s1.679.744 1.679 1.663-.752 1.663-1.679 1.663-1.679-.745-1.679-1.663zm-19.703-5.211c0-.918.752-1.663 1.679-1.663s1.679.745 1.679 1.663-.752 1.663-1.679 1.663-1.679-.744-1.679-1.663z"/></g><path d="M49.5 187s22.862 18.5 55.5 18.5c33.5 0 50-10 50-10" stroke="#fff" stroke-width="12"/></g><defs><radialGradient id="A" cx="0" cy="0" r="1" gradientUnits="userSpaceOnUse" gradientTransform="translate(176.734 234.342) scale(7.83563 7.77787)"><stop stop-color="#dea88e"/><stop offset="1" stop-color="#f5e8d6"/></radialGradient><radialGradient id="B" cx="0" cy="0" r="1" gradientUnits="userSpaceOnUse" gradientTransform="translate(94.4177 55.3229) scale(7.27677 7.22313)"><stop stop-color="#dea88e"/><stop offset="1" stop-color="#f5e8d6"/></radialGradient><radialGradient id="C" cx="0" cy="0" r="1" gradientUnits="userSpaceOnUse" gradientTransform="translate(114.536 61.4858) scale(8.21784 8.15726)"><stop stop-color="#dea88e"/><stop offset="1" stop-color="#f5e8d6"/></radialGradient><radialGradient id="D" cx="0" cy="0" r="1" gradientUnits="userSpaceOnUse" gradientTransform="translate(109.616 180.122) scale(22.3869 22.2219)"><stop stop-color="#dea88e"/><stop offset="1" stop-color="#f5e8d6"/></radialGradient><clipPath id="E"><path fill="#fff" d="M0 0h204v253H0z"/></clipPath></defs></svg>