<?xml version="1.0" encoding="UTF-8"?>
<svg id="Ebene_1" data-name="Ebene 1" xmlns="http://www.w3.org/2000/svg" xmlns:xlink="http://www.w3.org/1999/xlink" viewBox="0 0 127 152">
  <defs>
    <style>
      .cls-1 {
        fill: none;
      }

      .cls-2 {
        clip-path: url(#clippath);
      }

      .cls-3 {
        fill: #f5e8d6;
      }

      .cls-4 {
        fill: #e3caba;
      }

      .cls-5 {
        fill: #fff7f7;
      }

      .cls-6 {
        fill: #a05b52;
      }

      .cls-7 {
        fill: #b69c65;
      }

      .cls-8 {
        fill: #c46b57;
      }

      .cls-9 {
        fill: #e0bd6f;
      }

      .cls-10 {
        fill: #070d1c;
      }

      .cls-11 {
        fill: url(#Unbenannter_Verlauf_2);
        opacity: .7;
      }

      .cls-11, .cls-12, .cls-13 {
        isolation: isolate;
      }

      .cls-12 {
        fill: url(#Unbenannter_Verlauf_3);
        opacity: .59;
      }

      .cls-13 {
        fill: url(#Unbenannter_Verlauf);
        opacity: .69;
      }
    </style>
    <clipPath id="clippath">
      <rect class="cls-1" width="127" height="152"/>
    </clipPath>
    <radialGradient id="Unbenannter_Verlauf" data-name="Unbenannter Verlauf" cx="-202.08" cy="449.83" fx="-202.08" fy="449.83" r="1.01" gradientTransform="translate(1583.4 3351.77) scale(7.33 -7.33)" gradientUnits="userSpaceOnUse">
      <stop offset="0" stop-color="#dea88e"/>
      <stop offset="1" stop-color="#f5e8d6"/>
    </radialGradient>
    <radialGradient id="Unbenannter_Verlauf_2" data-name="Unbenannter Verlauf 2" cx="-200.81" cy="447.94" fx="-200.81" fy="447.94" r="1.01" gradientTransform="translate(1498.37 3204.07) scale(7.05 -7.05)" gradientUnits="userSpaceOnUse">
      <stop offset="0" stop-color="#dea88e"/>
      <stop offset="1" stop-color="#f5e8d6"/>
    </radialGradient>
    <radialGradient id="Unbenannter_Verlauf_3" data-name="Unbenannter Verlauf 3" cx="-209.36" cy="460.57" fx="-209.36" fy="460.57" r=".99" gradientTransform="translate(2085.49 4509.26) scale(9.5 -9.5)" gradientUnits="userSpaceOnUse">
      <stop offset="0" stop-color="#dea88e"/>
      <stop offset="1" stop-color="#f5e8d6"/>
    </radialGradient>
  </defs>
  <g class="cls-2">
    <g>
      <path class="cls-3" d="m89.28,82.24l.15,13.4-2.94,10.04-7.28,3.57-8.19-4.07-5.11-14.65-11.99-19.26c.1.38,8.92-5.39,8.69-6.1,0,0,16.39-27.59,16.39-27.59,4.19,1.88,28.72-5.5,33.2-6.4l1.29,11.68c-.07.4-2.16,5.81-2.16,5.81,0,0,.37,2.22.88,3.99s1.71,2.24,1.55,3.1c-.28,1.51-2.75,2.91-2.75,2.91,0,0-2.02.4-2.18,1.15-.2,2.42,1.3,3.35-.52,5.86l-2.55.24-3.67-.84c-.17,2.18,4.58,3.26,5.77,3.15l-1.82,6.81c-8.9,2.28-10.95-5.45-21.53,2.61.02.64,3.66,5.02,4.78,4.6h0Z"/>
      <path class="cls-4" d="m98.46,62.71c.02,1.42-4.45,9.1-6.68,9.36l-1.95-1.26c2.48-1.7,6.85-5.68,8.63-8.1h0Z"/>
      <path class="cls-13" d="m99.49,45.18c1.51.39,13.24,3.99,10.51,9.44-.46,2.69-1.85,5.45-4.91,6.22s-10.43.77-10.43.77c-1.61-5.7-2.27-12.91,4.82-16.43h0Z"/>
      <path class="cls-11" d="m85.76,47.59c1.57-3.86-3.34-12.41-7.33-5.84-.84,2.06.52,3.94.7,6.7-.19,3.35-.6,5.87,2.43,5.55l.07,1.9c5.38,1.51,4.66-5.43,5.61-8.48l-1.48.17h0Z"/>
      <path class="cls-8" d="m53.94,70.38c1.7-.21,6.3,5.15,9.98,11.83,7.46,14.14.91,14.65,10.4,23.57,14.96,8.16,14.52-17.9,13.41-24.35,0,0,1.44.76,4.82,1.84s6.9-.6,8.69,2.48c3.26,5.61,2.1,16.72,2.1,16.72.76,1.83-1.28,25.8-.98,26.67l-3.22-.16-19.79,9.47c-13.6-1.19-40.9-4.29-54.3-6.44,0,0-22.65-.36-22.42-2.52.86-2.24,24.16-50.54,28.27-52,5.84-.98,18.51-6.55,23.03-7.11h0Z"/>
      <path class="cls-6" d="m49.42,104.15c3.92,10.56-9.86,15.91-3.03,22.9,4.67,7.61,28.47,9.31,34.54,8.18,1.74.49-5.14,1.92-5.14,1.92,0,0-17.09-1.35-22.7-2.76-10.78-3.18-11.45-4.21-19.45-6.41,3.35-3.68,9.54-15.18,11.9-19.67,0,0,.89-2.81.89-2.81,0,0,2.44-4.52,2.99-1.34Z"/>
      <path class="cls-3" d="m2.63,133.02c1.45-9.85,14.52-7.38,20.33-5.18,9.3-2.61,19.46,4.09,33.75,7.24,10.9,2.44,14.93,2.11,17.73,1.99,9.94-2,8.74-6.04,14.6-11.52,1.48-1.15,7.78-3.43,11.74-5.08,3.46-1.44,2.07,2.43,2.07,2.43l-5.66,4.63,2.39,1.71c-.15.13,22.95-1.82,16.42,3.24-1.67.34-7.87,2.19-7.87,2.19l.67,1.06c8.33.07,5.22,5.16-.76,5.33,2.86,3.19-.82,5.34-3.25,5.66.65,2.22-2.69,4.06-4.82,3.98-24.24-.93-91.99-1.02-91.99-1.02-5.92-3.13-8.45-8.51-5.36-16.67h0Z"/>
      <path class="cls-4" d="m1.1,139.08l6,4.62c8.34-1.63,25.72,1.17,38.72,1.55,7.23-.31,57.9,1.5,63.46-2.14.66,2.06-5.55,4.09-6.01,4.02,4.77-.78-1.23,3.38-1.24,3.6-11.08.26-85.2-2.24-94.18-.98-3.2-1.31-7.07-7.28-6.75-10.67Zm112.43-1.08l-9.08,2.21-.43,1.16c-.26.03,10.09-1.05,9.51-3.37h0Zm-9.51-2.25c-.82-2.81,14.6-5.75,13.44-4.69-2.02,2.07-13.44,4.69-13.44,4.69Zm-1.05-14.55c.31.1-8.8,7.24-10.06,6.21,1.07.31,4.18,1.3,5.28,1.08l-1.04-1.03c1.54-1.07,4.66-3.57,5.67-5.15l.15-1.12h0Zm-21.91-66.36c-.69,1.08-1.45,21.75,2.11,23.78-.16-.28,9.51-6.44,10.87-5.01-2.68-1.28-7.8-6.36-9.86-8.52-.17-.31-2.5-10.6-3.12-10.26Z"/>
      <path class="cls-12" d="m101.29,144.35c3.07-1.24,3.6-5.27,3.6-5.27-2-2.6-.49-5.8,2.01-7.05l-2.83-2.97c-4.49.9-13.73-.32-17.72,2.97-8.56,6.9,8.96,15.84,14.93,12.33h0Z"/>
      <path class="cls-9" d="m99.51,74.96l-5.5-1.46-2.82.34c.44,4.14,2.74,32.53,13.36,24.83-2.87,1.6-6.8-1.03-7.32-6.01-1.13-8.52.86-11.34,2.28-17.69h0Zm11.93-25.87c-1.36-2.99,2.73-15.39.05-18.15,0,0-5.71,7.37-11.37,12.57-4.71,11.97,8.25,17.22-13.8,29.67-4.03,3.08,3.84-6.98,3.02-10.95.01-6.24-4.16-6.85-1.98-14.95l-1.7.21c.67-6.65-2.5-9.8-9-6.06l1.75,7.33-4.18,7.69-2.16-.15-1.4,4.03-2.41-.68-4.17,5.89c-.91.21-6.37-4.93-6.25-5.73.72,3.28-1.76,8.74-2.9,10.87-2.21-1.02-16.18,4.09-16.73,4.34l1.66-4.32s-3.03,1.64-5.37,2.14c-2.34.51-5.68-.27-4.11-.47,3.06-.4,7.18-4.94,10.18-11.39,9.2-16.12-.49-36.08,8.52-49.7,5.12-12.1,26.45-13.28,24.58-3.65,0,0,5.45-.16,14.27-.16,20.24.76,36.5,23.72,23.49,41.62h0Z"/>
      <path class="cls-7" d="m99.21,44.86c-1.65.58-7.72,2.95-8.83,2,.76-1.08,5.95-8.19,0-4.17.52-.56,2.67-11.28,3.02-13.16.38.81-.75,8.88-1.28,10.9l2.54-1.01c1.89,3.18-2.49,5.17-.62,5.27,1.53,0,7.22-2.86,7.22-2.86l-2.06,3.04h0Zm-41.29-28.75c2.15-2.61,8.02-4.32,5.21-8.64-5.68-2.73-8.96,3.42-11.26,12.4-2.19,8.02-2.72,20.04-2.72,20.04,0,0-2.18,17.65-1.5,22.8s4.23-6.63,4.23-2.21c0,4.72-7.45,12.84-7.45,12.84-.04-.22,9.28-4.52,10.33-2.53,11.23-14.9-13.95-17.63,3.17-54.69Z"/>
      <path class="cls-5" d="m106.7,46.37c-1.41,2.09-4.18-.22-4.81-1.24l.07-2.27,3.33-.17,1.23,1.35.18,2.33Z"/>
      <g>
        <path class="cls-10" d="m29.96,127.11c-4.36-.97-20.5,3.78-8.34,1.01,9.03-2.04,17.51,1.9,25.82,4.86,9,2.59,19.67,5.66,28.7,4-9.2-.51-19.4-1.57-28.43-4.84-5.32-1.77-12.1-4.96-17.75-5.04h0Zm-17.21-1.3c-3.1.08-8.94.88-9.36,4.4,3.13-3.13,7.59-4.26,12.26-3.7,2.04.06,4.7.72,6.65.86-2.8-1.22-6.46-1.44-9.54-1.56h0Z"/>
        <path class="cls-10" d="m3.18,130.1c-.34-.1-.43.71-.56.89-.28,1.08-.47,2.32-.66,3.4-3.38,5.17.62,15.36,7.39,15.44-3.97-1.59-8.24-6.02-7.78-11.04.3-2.84,2.25-5.94,1.61-8.69Z"/>
        <path class="cls-10" d="m23.53,88.35c-5.43,8.98-12.21,22.68-17.18,32.05-1.17,2.25-2.61,5.1-3.66,7.41-.48.76-.35,2.69.93,2.17.14,0,.14-.21,0-.21-2.44-.15,9.39-19.93,10.09-22.06,2.12-4.06,5.44-10.18,7.58-14.22.56-.76,1.06-1.98,1.55-2.79-.03-.24,1.8-2.47.69-2.34h0Z"/>
        <path class="cls-10" d="m30.84,76.93c-2.73,1.25-4.04,4.4-5.22,6.98-.45,1.57-2.05,3.16-2.08,4.65,3.32-2.84,3.5-9,7.74-11.44.09-.05.02-.2-.07-.15-.12-.01-.24-.06-.36-.04Zm15.64,28.48c-2.68,7.94-8.49,14.86-13.44,21.61-.21,3.18,3.23-2.72,3.56-3.01,3.9-5.57,8.88-11.84,9.88-18.6h0Zm1.11-5.04c.04.74,1,2.63,1.07,3.41.67,1.31.34,3.16,1,4.29.83-1.51-.59-6.68-2.07-7.7h0Z"/>
        <path class="cls-10" d="m30.83,77.39c-.72-.03-.75,1.12-.02,1.12.35,0,.72,0,1.02.2.59.53,1.07,1.23,1.85,1.52,1.57.61,3.28-.59,4.87-.51,1.25.32.91,1.99,1.94,2.62,1.11.63,2.59,1.21,3.8,1.63,1.02,2.16,2.34,4.59,2.94,6.91,1.43,1.15-2.02-7.85-2.78-7.75-6.42-1.71-2.24-2.58-5.67-4.31-1.68-.49-3.49,1.3-5.03.35-.88-.8-1.56-1.91-2.94-1.77h0Z"/>
        <path class="cls-10" d="m52.58,69.95c-3.92.41-7.62,2.65-11.27,4.02-2.11,1.28-10.18,1.54-10.63,3.2,4.38.75,10.21-1.83,14.53-3.65,2.61-.96,6.47-3.5,9.35-2.57,2.59,1.07,3.77,4.08,5.7,5.92.88.08-.48-1.16-.63-1.48-1.69-2.39-3.62-5.89-7.05-5.44Z"/>
        <path class="cls-10" d="m60.56,77.24c.06.43.49.87.71,1.24,1.55,1.53,2.78,4.7,3.82,5.87-.9-2.57-2.25-5.55-4.53-7.11h0Zm7.61,10.42c1.59,3.11,6.24,4.92,6.53,8.66,1.17-2.74-4.38-7.24-6.53-8.66Zm16.85-.33c-1.06,3.11-7.72,5.94-6.51,9.46.89-.69.55-2.65,1.71-3.52,1.57-1.81,4.57-3.54,4.8-5.95h0Zm-5.86-31.96c-2.3,4.31-2.83,10.07-2.89,14.87.71-4.55,1.59-10.42,2.89-14.87h0Zm28.72,12.77c-.48.73-.67,2.4-1.09,3.26-.36,1.16-.32,2.78-1.21,3.7-2.56,1.23-6.84-.82-9.47-1.25-10.06-2.66-15.91,8.44-18.78,16.34,0,0-.91,1.87-.91,1.87.75-.6,1.37-2.49,1.89-3.46,1.66-3.11,3.55-9.27,6.72-11.21,2.06-1.07,5.56-3.76,7.98-3.73,3.45-.08,10.15,3.76,13.12,1.51.89-1.18.7-2.79,1.21-4.12.19-.86.91-2.07.55-2.92h0Zm-8.35,7.01c-3.2,5.64-6.47,28.03,5,23.39-9.39,2.01-7.92-11.29-6.38-16.99-.13-.92,2.65-6.84,1.38-6.4h0Z"/>
        <path class="cls-10" d="m90.94,73.7c-1.17.44,1.11,8.39,1.13,9.71,1.22,5.14,4.66,22.59,12.36,15.31-7.51,5.03-9.93-8.3-11.36-13.29-.33-1.8-1.18-6.38-1.35-8.16-.27-.8.11-3.33-.78-3.57h0Zm-23.21-13.28c-1.48,1.24-2.04,3.91-4.02,4.86-.43-.15-.64-.8-1.17-.74-1.77,1.36-3.18,3.36-5.26,4.41-.7.68-2.65.78-2.56,1.89,2.86.16,6.13-3.74,7.95-5.65.55.6,1.37.96,1.86.11,1.29-1.31,2.94-3.11,3.2-4.88h0Zm22.62,10.47c-.77.4,3.34,2.69,4.01,2.62,0,0,.02,0,.02-.01-1.15-1.02-2.8-1.62-4.03-2.61h0Zm-8.86-16.66c-.78.42-.23,1.78-.16,2.48.76,4.42,1.9,9.53,6.06,11.96-3.17-2.98-4.98-8.03-5.08-12.78-.08-.55-.12-1.6-.81-1.66h0Zm2.98,23.22c-.34,1.63,1.91,3.07,3.04,4.07-.01.91.61,7.17.58,4.04-.1-1.12-.16-3.06-.21-4.18-1.5-1.03-2.36-2.69-3.41-3.92h0Z"/>
        <path class="cls-10" d="m88.06,81.2c-1.63.19,2.41,1.44,2.47,1.55.37.08,2.07.98,1.48.08-1.12-.06-2.92-1.21-3.95-1.64h0Zm10.35,2.27c-.99.15-1.1.64,0,.67,5.87,1.53,3.3,10.68,5.1,14.73.4-4.27.34-14.04-5.11-15.39h0Z"/>
        <path class="cls-10" d="m100.09,84.36c-1.33.73-.19,2.68.15,3.71-.46.53-1.29.52-1.63,1.19-.26.44-.95,4.42-.1,3.59,0,0,.17-.9.17-.9-.32-3.72,3.09-1.79,2.31-4.94-.09-.53-.73-1.23-.3-1.71.31-.42-.11-1.04-.61-.94h0Zm2.42,39.01c-.8.71-.18,2.44-.33,3.49.08.62-.2,1.88.17,2.38.37-.48.17-1.75.29-2.37-.08-1.05.62-2.74-.13-3.5Zm.78-23.65c-.41,6.49.35,13.89-.54,20.53,1.27-6.44,1.15-14.15.54-20.54h0ZM58.27,14.83c-9.36,14.48-10.54,39.46,4.89,50.28-12.59-9.76-12.92-28.21-7.84-42.15-.02-1.85,4.91-7.77,2.95-8.13h0Z"/>
        <path class="cls-10" d="m57.69,60.06c.15,3.55-.71,7.43-2.82,10.45,2.16-2.5,4.34-7.31,2.82-10.45h0Zm-17.69,10.25c-.69.62-.84,2.35-1.46,3.25-.04.31-1.19,1.7-.61,1.93,1.01-.19,1.17-2.01,1.59-2.88.02-.73.82-1.73.49-2.3Z"/>
        <path class="cls-10" d="m40.11,70.18c-3.01,1.01-6.77,4.02-9.98,2.11-.27-.14-.45.28-.19.4,3.46,1.21,7.08-.38,10.21-1.94.25-.11.21-.5-.04-.57Z"/>
        <path class="cls-10" d="m46.32,15.02c-3.34,7.56-.85,17.81-1.42,25.93-.83,11.55-3.38,26.55-15.12,31.63,13.97-5.39,15.7-24.57,15.87-37.72-.02-3.39-.41-12.04.14-15.31-.31-1.16,1.8-4.33.53-4.53h0Zm13.92-8.8c-.96-.36-3.79,2.44-2.08,2.24,2.7-3.67,8.24.78,4.02,3.48-1.06,1.09,1.11.18,1.35-.34,2.4-2.2-.55-5.8-3.29-5.39h0Z"/>
        <path class="cls-10" d="m62.08,7.15c-4.98,1.43-9.24,7.95-9.68,12.84,1.28-4.63,4.61-8.9,8.68-11.63.17-.17,2.09-1.09,1-1.22h0Zm1.37-6.42c-6.93.72-15.05,6.82-16.38,13.51,2-1.72,3.11-5.21,5.48-7.04C56.91,2.7,63.45.03,69.61,2.12c2.39.26,5.92,3.54,3.48,5.56-.9.15-4.67,1.12-3.97,1.94,1.47-.99,3.29-1.1,4.84-1.71,2.32-5.98-6.24-7.46-10.49-7.18h0Zm46.42,21.4c.33,1.28,1.46,2.93,1.5,4.54,1.3.99-.82-4.73-1.5-4.54h0Zm1.94,5.22c-.05,3.08-1.43,4.84-3.46,7.31-3.84,4.89-9.58,8.33-15.14,10.08,6.34.65,19.73-10.59,18.6-17.39Z"/>
        <path class="cls-10" d="m94.66,39.16c.64,2.35-.72,3.91-1.78,5.79,1.87.28,3.3-4.93,1.78-5.79Z"/>
        <path class="cls-10" d="m94.6,39.26c-.71.42-2.03.56-2.5,1.23.02.08.11.14.19.12,1.22-.57.65-.39,1.21-.57.31-.1-.57.33-.75.6.24.06,1.55-.66,1.65-.88-.72.22,0,0,.33-.3.13-.08,0-.28-.13-.2h0Z"/>
        <path class="cls-10" d="m89.68,15.93c4.3,7,4.42,16.5,1.94,24.42.72,1.29,1.15-2.11,1.35-2.7,1.43-7.09,1.28-16.03-3.3-21.72h0Zm13.42,24.46c-12.98,10.75,9.31,18.64-18.22,33.13-.42.22-.06.89.36.65,27.15-14.77,5.74-21.28,17.86-33.77h0Zm-4.78,66.08c-2,4.21-3.06,11.58-.18,15.31-1.39-4.69-1.42-10.38.18-15.31Z"/>
        <path class="cls-10" d="m87.49,46.92c-4.71,10.15,7.57,9.99-2.74,26.95,5.32-6.82,5.58-13.42,2.22-21.22-.38-1.75.4-3.64.77-5.34.04-.18-.08-.35-.25-.39h0Z"/>
        <path class="cls-10" d="m87.5,46.8c-.92.24-.53.07-.92.24-.19.08.41-.09.6-.17-.16,0-.97.18-1.24.22.72-.12-.61.11-.44.46.03.12.15.19.27.16.93-.24.5-.19.93-.25.21-.03-.42.15-.6.26.17-.02.96-.27,1.21-.39-.74.11.64-.02.45-.39-.04-.12-.16-.18-.27-.15Z"/>
        <path class="cls-10" d="m83.26,39.74c-.29.1-.3.54-.01.66,2.21,1.43,2.75,4.88,2.31,7.26,1.6-2,.19-7.07-2.3-7.91h0Z"/>
        <path class="cls-10" d="m84.27,26.34c-1.81,3.22-2.49,10.57-.76,13.8-1.03-4.56.16-9.4.76-13.8Zm-2.59,13.06c-5.63.15-3.79,6.07-2.6,9.53.16,1.29-.66,2.57-.17,3.85.33,1.1,2.24,1.93,2.95.95-2.24.71-3.36-1.23-2.48-3.28.66-2.9-2.04-5.77-.61-8.61.68-1.53,2.47-1.66,3.92-1.83.92-.48-.58-.76-1-.61h0Zm2.69-32.19c-3.14.05-6.55.21-9.7.3-.22.09-1.46-.17-1.37.36,10.8.21,24.41-2.12,32.64,7.45-3.95-6.21-14.07-8.24-21.57-8.1h0Z"/>
        <path class="cls-10" d="m106.49,15.46c10.34,7.69,12.19,22.86,5.01,33.34,8.26-8.39,5.56-26.74-5.01-33.34h0Zm4.98,27.3c-3.04,12.35,7.46,11.55-2.9,16.69-.53.77.1,2,.21,2.81.52,1.37-1.24,2.37-.89,3.44.66.37.96-.71,1.24-1.13.87-1.57-.23-3.25-.06-4.79,1.48-.94,3.36-1.51,4.39-3.08,1.5-1.75-1.25-3.35-1.43-5.21-.96-2.76-.77-5.97-.56-8.74h0Z"/>
        <path class="cls-10" d="m101.96,64.66c-.46.63,6.38,2.05,6.37.62-2,.24-4.3-.03-6.37-.62Z"/>
        <path class="cls-10" d="m101.87,64.54c-.12.04-.18.17-.15.29.81,2.34,3.92,4.47,6.31,3.38-1.92-.72-5.53-.81-5.89-3.52-.03-.12-.16-.18-.27-.15Zm4.05-27.41c-2.42.67,1.64,3.52,2.62,3.5.18.09.3-.18.13-.26-.98-.95-1.27-2.87-2.75-3.23Z"/>
        <path class="cls-10" d="m101.57,40.11c-2.28-.24-.42,2.12-.31,3.2.17.61.05,1.77.66,2.09.94-.83.76-4.58-.36-5.29h0Z"/>
        <path class="cls-10" d="m101.52,39.98c-3.3.39.52,4.01,2.43,3.24,1.54-.15,3.12.63,2.55,2.4-.11.26.05.47.2.68,1.54-1.29.12-4.01-1.81-4.14-1.43-.24-2.28-1.43-3.37-2.18h0Z"/>
        <path class="cls-10" d="m104.94,45.18c-.02-2.19,2.2-2.19,2.18,0,.02,2.19-2.2,2.19-2.18,0Zm-25.73,3.65l-1.92.53c-.44-2.67-2.82-5.43-1.37-8.57,1.17-2.4,4.28-3.8,5.01-1.09-4.17.4-2.41,6.96-1.71,9.13Z"/>
        <path class="cls-10" d="m70.62,38.94c-.27-.03-.51.16-.54.42-1.12,2.86,3.86,6.82,6.27,4.87.28-.1.11-.52-.16-.42-2.43.08-4.75-1.84-5.15-4.33.03-.27-.16-.51-.42-.54h0Z"/>
        <path class="cls-10" d="m67.66,36.69c-.06-4.38,6.48-4.38,6.42,0,.06,4.38-6.48,4.38-6.42,0Zm34.72,83.29c-3.08.86-13.96,3.6-14.72,6.45.17.23.49.28.72.12,1.39-1.09,3.14-2.06,4.78-2.76,0,0,5.53-2.13,5.53-2.13-.06-.12,5.03-1.36,3.7-1.68Z"/>
        <path class="cls-10" d="m102.63,120.26c-.09,0-.18.07-.26.11-.14-.04-.2.18-.05.21,2.41,1.24-3.48,5.11-4.54,6.19-3.34,3.13,9.19-5.38,4.86-6.51h0Zm-.6,8.88l-22.38-4.82c-1.13-.24-1.23,2.33-.33,2.61,9.17,2.52,15.48,3.22,22.71,2.21Z"/>
        <path class="cls-10" d="m86.44,127.51c-2.71,3.03-4.78,7.26-8.9,8.75-.33.39-2.43.25-1.55.85,3.66-.15,6.32-3.06,8.5-5.71.27-.65,3.38-3.6,1.95-3.88h0Zm27.69,5.51l9.4,1.65,3.32,1.95-3.44.81-14.94-2.83s5.66-1.58,5.66-1.58Z"/>
        <path class="cls-10" d="m108.52,128.64c-5.13.15-11.29.42-16.4.85-3.15,1.86,14.17-.35,14.85-.05,1.48,0,5.61-.16,7.02.07,4.94.65,3.32,2.55-.4,3.44-.81.89,2.14-.34,2.23-.29,6.42-3.51-4.88-4.33-7.29-4.01h0Zm-11.22-1.35c-.23-.17-.49.2-.26.36.62.47.4.26.62.46.22.18-.91-.55-.31-.11,0,0,.19.16.19.16.63.65,1.67.48.56-.25.08.06.07.08.16.14-.34-.23-.52-.65-.96-.76Z"/>
        <path class="cls-10" d="m114.44,132.79c-3.46,1.2-7.29,1.87-10.67,2.98.69.14,12.62-2.28,10.67-2.98h0Z"/>
        <path class="cls-10" d="m108.86,134.76c-1.47.29-3.79.27-5.06.99,3.01.46,6.84-.97,9.54,1.09.56.54,1.43-.33.87-.89-1.37-1.36-3.54-1.33-5.35-1.19Z"/>
        <path class="cls-10" d="m114.02,136.49c-.81-.03-.07,1.04-.37,1.48-1.9,2.76-6.75,2.52-9.53,3.37,1.1.78,4.3-.44,5.69-.46,2.03-.17,6.36-1.91,4.21-4.38Z"/>
        <path class="cls-10" d="m107.96,141.04c2.39,3.34.03,4.33-3.19,5.27-.3.06-1.56.36-1.84.38-.4-.04-.14.37-.11.61,3.88-.85.76,2.35-.99,2.82-3.23.56-7.75-.21-11.03-.2-1.25.13-1.32.77-.02.96,1.55.11,5.45.1,7.07.18,1.74-.01,3.87.34,5.39-.72.96-.57,3.05-2.66,1.63-3.54,1.46-.39,3.25-.97,4.22-2.19.58-1.07.08-3.33-1.12-3.58h0Z"/>
        <path class="cls-10" d="m9.74,148.94c-6.08,1.27,21.94,1.46,22.86,1.34,16.18.3,34.92.04,51.23.43,0,0,6.42.23,6.42.23.78.04.89-1.25.05-1.27-26.63-.8-53.98.53-80.57-.74Zm69.38-41.7c-.42.42.55,4.78,1.1,3.54-.83-1.03-.7-2.48-1.1-3.54Z"/>
        <path class="cls-10" d="m79.44,110.71c-4.33.8,1.86,7,2.83,2.64.22-.92-.61-2.46-1.64-1.84,2.31.83,1.06,4.28-1.32,2.5-1.26-.73-1.27-3.32.6-2.96.28.17,0,0,.17.1.1.02.18-.06.22-.15-.24-.28-.52-.27-.87-.29Z"/>
        <path class="cls-10" d="m80.07,114.49c-.19,1.17,0,3.31.79,4.11-.11-1.14-.62-3.05-.79-4.11Z"/>
        <path class="cls-10" d="m81.1,118.38c-2.67-.2-1.89,4.22.05,4.86,2.99,1.04,3.29-3.23,1.16-4.38-.56-.42-.84.12-.35.48,1.67,1.04,1.69,4.44-.86,3.38-1.38-.75-1.82-3.32-.4-4.07.07.01.21.04.28.05.05,0,.35-.24.12-.32Z"/>
        <path class="cls-10" d="m82,123.11c-.27.34-.1,1.1-.2,1.54.08-.66-.2.66.23.56.56-.25.18-1.24.21-1.72,0,.11-.08-.43-.24-.38Zm-.34,4.19c-.14-.02-.11.31-.15.39.01-.05-.03.21-.02.16-.27.73.35,1.01.29-.14-.02.1.05-.4-.12-.41Z"/>
        <path class="cls-10" d="m80.54,128.6c-.93-.42-3.39,2.42-1.65,1.85.28-.68.81-1.3,1.55-1.46.35-.12.8-.35.09-.39h0Zm1.96,1.37c.67,1.71-1.83,3.84-3.39,2.66-.51-.31-.29-1.22-.76-1.42-.88,4.37,6.98,1.16,4.15-1.25h0Z"/>
      </g>
    </g>
  </g>
</svg>