<svg xmlns="http://www.w3.org/2000/svg" xmlns:xlink="http://www.w3.org/1999/xlink" width="193" height="559" fill="none" xmlns:v="https://vecta.io/nano"><style><![CDATA[.B{fill:#070d1c}]]></style><g clip-path="url(#G)"><g fill="#f5e8d6"><path d="M115.848 376.809l4.521 13.735 2.072 22.885 4.841 14.482s4.687 11.874 6.574 18.465c.875 3.057 4.182 16.1 4.576 21.804 1.067 15.435.151 34.658.151 34.658s1.843 3.129 5.073 4.941 7.845 2.302 7.845 2.302l-1.034-9.878s13.603-4.199 13.231-4.969c-3.049-6.321-3.128-27.054-3.128-27.054l2.106-56.998c-.602-21.681-2.724-24.412-3.386-29.256-1.359-9.944-4.712-18.678-4.712-18.678l-38.73 13.561zm-71.828-9.051s1.672 9.031 1.41 18.15c-.267 9.303 4.687 29.915 4.687 29.915s4.338 13.798 5.909 17.842c2.228 5.733 3.006 9.253 5.781 17.501 4.731 14.065 4.056 18.376 4.056 18.376l13.858 1.309-.325 11.459s4.074.801 5.881-2.343 1.35-10.234 1.35-10.234l-1.338-11.976s-.567-9.592.067-22.919 2.601-18.808 2.468-30.387-3.107-12.773-3.246-18.806l-.975-28.731-39.583 10.844zm78.951-274s-8.426-1.154-12.584-4.39C103.15 83.734 104.674 74.725 105 70.5c.491-6.38 3.518-8 3.518-8s.343-.851-.518-3c-.361-.9-.5-5-.5-5s1.093-3.492-2.051-5.5c-1.449-.926-4.164 1.021-4.164 1.021s3.691 2.789 4.164 10.686c.351 5.848-2.554 11.958-2.554 11.958s-.093 12.011-2.611 13.385c-2.981 1.628-8.096-12.446-8.096-12.446L64.835 44.852l-9.611 23.831s4.169 9.653 7.575 15.769 7.018 8.952 7.018 8.952-1.465 3.443-3.619 4.901-5.751.789-5.751.789l3.808 23.699 16.691 15.703 27.331-1.391 19.457-24.485-4.763-18.862z"/></g><g fill="#e3caba"><path d="M44.877 382.322s7.503 6.187 15.494 6.259 8.499-3.649 15.237-1.455c5.228 1.702 11.971 20.001 11.971 20.001l-2.932-20.001-1.04-30.212-22.494 8.778-15.727 2.363-.51 14.267zm75.665 8.221s3.881 6.317 9.859 10.462 9.861 8.13 14.054 6.12c6.633-3.181 3.072-8.626 7.629-13.916 4.939-5.735 7.281-11.191 7.281-11.191l-4.522-19.625-28.428 6.408-11.634 6.032 5.761 15.71zm-41.264 80.919l.692 5.56-1.644 5.207 6.324-1.424 2.366-4.756-.952-14.336s.398 12.177-1.298 14.614-5.488-4.865-5.488-4.865zM76.5 96.5s12.278 10.487 20.556 12.257 14.181.698 20.875-3.204 1.95-12.15 1.95-12.15-7.984-1.512-10.989-5.411S108 71 108 71l-3.5 5s-6.633 10.421-11 12.931c-1.938 1.114-6 5.569-9 7.069-3.972.879-8 .5-8 .5zm9.543-21.911s0 6.74-.777 8.802c-.614 1.628 6.92-5.364 6.92-5.364l-.836-3.458-4.649 4.966-.658-4.946z"/></g><path opacity=".632" d="M143.512 399.316l7.55-11.569-11.221-7.649-9.279 6.238 3.033 11.004 9.917 1.976z" fill="url(#B)"/><path opacity=".645" d="M68.143 387.125s4.574-13.565.91-17.191-12.125-1.13-15.564 2.686-1.858 8.954 1.806 12.581 12.848 1.924 12.848 1.924z" fill="url(#C)"/><path opacity=".603" d="M67.572 67.545l1.332 13.108-6.748 1.841-7.041-12.547 12.457-2.402z" fill="url(#D)"/><path opacity=".609" d="M76.3 70.057l4.162 10.196 9.267-3.264L84.65 66.78s-5.309-.054-7.397.766-.954 2.512-.954 2.512z" fill="url(#E)"/><path d="M190.089 344.416c-2.612 2.235-16.508 8.712-16.508 8.712s3.343 6.79-4.222 10.188-13.797.638-26.037 3.407c-3.899.882-4.331 14.883-18.339 12.717s-31.728-20.556-38.909-21.097c-9.748-.735-18.288 8.028-24.47 9.475-7.805 1.827-13.604 3.878-21.069-.605-9.281-5.572-3.068-13.469-11.673-17.41-7.937-3.636-21.801-3.264-21.801-3.264s-8.833-1.542-4.732-18.174c4.429-17.967 20.485-54.024 20.485-54.024L51.47 213.8l-1.55-34.77s-6.303-.96-12.276.131-10.043 3.814-11.763 3.332c-3.511-.982 1.994-7.111 1.465-13.701-1.446-18.039.881-54.005 3.866-59.033 1.641-2.764 6.496-.507 13.996-3.06s12.043-9.187 16.261-8.114c1.491.379-1.557 15.572 5.662 25.725s11.555 11.205 22.732 12.961 15.829-2.421 24.45-9.814 7.199-10.815 9.507-19.762-3.549-15.903-.276-16.028c4.119-.158 8.436 1.954 16.922 3.2s14.123 1.83 17.021 1.785c6.46-.1 8.532 40.598 8.532 40.598s3.173 50.943 1.328 50.431c-1.354-.375-4.507-9.227-12.91-12.528-7.715-3.031-20.09-5.093-22.464-.299-2.307 4.657 7.638 53.706 7.638 53.706s11.969 31.403 22.881 55.191 21.581 43.545 21.581 43.545 9.861 13.833 6.017 17.12z" fill="#c46b57"/><g fill="#a05b52"><path d="M133.654 161.615s-1.859 5.79-7.594 9.022-18.902 5.07-36.334 5.694-20.071.967-31.069-1.514-12.925-8.411-12.925-8.411l4.33 12.796 4.669.013 10.206 3.468 40.484-5.133 16.918-.531 9.262.09 2.053-15.494z"/><path d="M48.013 146.471s-3.005 8.044-4.384 13.707-.919 18.04-.919 18.04l7.424.852s-4.12-5.125-4.667-11.718 2.112-10.603 2.749-15.823-.203-5.058-.203-5.058zm119.2 39.887l-.587-29.831s-.394 9.986-1.543 15.784-3.052 7.408-3.052 7.408l5.182 6.639zM65.85 283.387s-.319 32.897 3.334 51.61 11.275 23.245 11.275 23.245-14.291 8.002-22.845 10.834-11.374.492-11.374.492l9.511-46.686 10.099-39.495zm79.191 82.575l-22.916-73.023 11.521 58.283 4.807 21.398 6.588-6.658zm36.735-16.679l-25.021-40-6.636-11.187 15.028 35.019 7.551 19.693 9.078-3.525zm-42.177-121.447l2.911 7.949-11.548-4.183s-34.394-6.492-47.487-7.566c-3.016-.247-3.155 1.513-11.489-.247s-21.846-6.793-21.846-6.793l1.729-5.141 27.801 4.928 20.732-.464 21.276 3.553 17.921 7.964z"/></g><path d="M133.464 173.138c1.531-.706 5.29-2.481 11.952-1.063 6.467 1.377 7.733 1.451 13.079 5.136s7.49 8.678 7.478 9.152c-.16 6.186-6.69 17.333-6.69 17.333-1.561 2.335-3.979 4.754-3.979 4.754s-.294.72.072 1.623c.434 1.065 1.628 1.751 1.686 3.404.048 1.356-1.438 2.594-1.72 3.768-.353 1.469 1.159 2.19.31 3.767s-3.703 2.54-3.703 2.54-.488 1.509-1.554 2.868-2.214 1.784-8.069.999-10.565-2.005-15.351-4.14c-1.953-.872-4.312-3.11-4.312-3.11s-9.345-3.022-20.677-3.994-11.256 1.285-24.653.105-22.608-3.912-29.679-5.282c-1.972-.383.997 2.616.997 2.616s-1.168 2.962-1.945 2.698c-1.947-.662-5.322-3.484-5.993-4.847-.404-.821.953-3.181.953-3.181l-2.625-2.443-2.036 5.125s-3.732.009-4.254-2.348 2.168-7.08 2.168-7.08l-2.588 2.713s-.271.302-.959.966c-1.159 1.12-5.007-.733-3.929-2.687.444-.806 4.579-6.587 4.579-6.587l-.734-2.21c-2.277-.069-5.86 1.144-7.099.737-2.462-.81-2.73-2.588-2.73-2.588l7.258-3.538-1.424-6.102s6.768-2.798 12.369-3.648 10.035.249 10.035.249l.988.509s4.583.318 8.315 1.003 6.614 1.74 6.614 1.74l24.129-1.956s16.77-2.233 27.223-2.978 14.59-.002 14.59-.002-.125-3.082 1.908-4.021z" fill="#f5e8d6"/><g fill="#e3caba"><path d="M162.031 180.971s-5.105 20.483-11.404 21.5c-15.804 2.552-29.171-3.163-50.234-4.104s-34.017.341-34.017.341l-17.597 8.118 15.221.32 11.067-2.452s8.634-1.401 20.88.156 13.184 4.507 28.105 6.071 23.156 2.537 31.58.185c1.434-.4-.485-3.093 1.084-3.779 3.853-1.685 9.449-20.968 9.449-20.968l-4.134-5.388zm-10.8 42.817s-16.313-5.302-28.405-7.4-3.893-1.677-17.107-2.997-26.146-1.072-35.75-2.284c-18.351-2.314-20.546-3.978-20.546-3.978l-2.212 3.709 29.512 5.612 25.42.198 19.436 2.637s4.481 4.503 17.213 7.695c7.131 1.787 10.994.634 10.994.634l1.445-3.826zM38.867 205.725l2.609 2.308 2.295-4.537s-1.506-.707-2.631.034c-1.771 1.165-2.273 2.195-2.273 2.195z"/></g><path opacity=".7" d="M59.035 196.743l.137-12.67s-10.512-.254-19.001 1.111-14.957 4.347-14.957 4.347l5.336 4.191s1.517-.453 1.274 1.911-3.966 6.062-3.338 7.558 5.848-1.574 5.848-1.574l-.873 4.678 3.978 1.267 1.537-1.919 8.238 4.109 11.822-13.009z" fill="url(#F)"/><path d="M62.098 83.647l.398 7.408-3.52-2.37s-.188 1.665-1.455 2.976-3.613 2.269-3.613 2.269 1.296-6.46-.077-10.491-3.936-2.283-5.416-5.634.981-9.166.981-9.166.467.77-3.096 2.465-5.16 1.564-5.16 1.564 1.681-1.518 1.681-4.925c0-2.599.484-4.861.484-4.861l-4.33 1.536L44.5 50.5s-2.5-7.5 1-16c1.575-7.305 5.5-11 5.5-11l6-5s-3.685-3.368-2.5-7c.167-.512.578-3.965 4-6s8-2.345 8-2.345L74 .501s6.132-.482 11.5 3 10 12 10 12 3.499 1.863 6 4.5 4 3.5 4 3.5 4.875 5.188 5.923 10.957c1.678 9.235 1.514 11.779-.423 20.543-.393 1.778-2.5 7-2.5 7l-1-4.5s.272-4.092 0-5.5a6.27 6.27 0 0 0-1.5-3c-1-.5-2.47-.272-3 0-.448.229-1.65.984-1.65.984s3.15 2.016 4.65 6.016c1.5 3.5 1.36 4.327 2 7 .591 2.471-1.551 5.244.316 6.498s5.115-.305 5.115-.305-.838 2.643-3.057 3.446S104 77.001 104 77.001s-.359-.678-1.538 3.883-3.356 9.569-3.356 9.569-2.254 6.172-2.353 10.458 1.959 6.688 1.959 6.688l4.889 5.537s-6.387-1.658-9.89-5.881-4.099-5.886-4.124-11.01 2.152-8.736 2.576-13.975-.686-7.665-.686-7.665l-4.914 5.371s.674-5.501-3.278-10.081-7.103-4.352-11.883-9.493-7.237-11.071-7.237-11.071.171 7.265-2.002 12.274-6.69 7.764-6.69 7.764l3.964 8.684 2.661 5.594z" fill="#e0bd6f"/><g fill="#b69c65"><path d="M108.5 73.5s.784 3.434 2.849 6.87 3.726 3.854 5.57 6.982 1.809 5.526 1.809 5.526-2.259-.346-4.329-1.217-3.95-2.266-3.95-2.266-.383 1.587.396 3.299 2.718 3.551 2.718 3.551-2.697-1.849-3.888-3.916-.874-4.349-.874-4.349-1.633-1.891-1.842-2.579c-.294-.968-1.745-7.958-1.057-9.397C106.383 75 108.5 73.5 108.5 73.5zM96.112 54.205s1.183 5.977.215 12.758-4.089 14.368-4.089 14.368l-.935-6.908s2.23-3.401 3.432-8.455 1.377-11.763 1.377-11.763zM55.616 70.591s-3.709 3.216-4.531 3.466c-.89.271 1.562-2.998.822-3.091s-3.781 2.72-3.781 2.72l.971-4.29 4.41-3.204.736 1.895-.847 2.674 1.775-1.114.446.944z"/></g><path d="M69.167 68.847l-4.544.604-3.827.694-1.961-3.144 1.374-1.666 5.581.454 2.577.701.801 2.356z" fill="#fff7f7"/><g fill="#fff"><path d="M138.169 501.022l-1.886 9.638.297 12.362 6.306 4.877 4.564 6.489 8.095 14.509s12.115 7.84 20.975 7.84 11.666-1.579 14.462-7.851c2.797-6.266-1.446-16.64-1.446-16.64l-10.548-12.337-11-15.327-3.466-9.918-7.981 3.903s-4.845.305-5.601 1.527c-1.531 2.475.919 9.136.919 9.136s-3.646 1.239-7.402-.898c-4.805-2.731-6.288-7.31-6.288-7.31zm-52.125-31.678s1.938.573 2.973 4.915 1.444 12.938 1.444 12.938L84 504l-3.5 12s-7.867 10.743-13.874 14.475-13.173 4.485-13.173 4.485-3.663.604-6.432-2.622-5.193-6.886-4.199-10.395c1.781-6.287 5.585-17.334 5.585-17.334l-.403-2.245 2.241-1.845 2.808-5.731s-1.68-1.032-1.399-2.173 3.176-2.501 3.176-2.501l1.588-4.373s-1.939-.506-1.457-1.477 3.386-2.412 3.386-2.412l6.658-10.108.498-2.449a39.76 39.76 0 0 0 6.881.728c3.489.713 7.076 2.125 7.076 2.125l.509 4.296-1.145 5.636s7.211-1.466 7.792-5.084c.368-2.292-.572-7.652-.572-7.652z"/></g><path opacity=".705" d="M67.798 528.958s-3.375-1.476-2.946-9.146c.429-7.676 1.484-12.151 4.661-21.544s8.047-16.039 8.047-16.039 2.704.673 5.288-.861 4.009-4.701 4.009-4.701l-.632-7.054s2.342 1.05 3.361 6.328c.882 4.567.778 11.809.778 11.809S86.5 496.5 83.5 507.5C80 522 67.798 528.958 67.798 528.958z" fill="#bfc4c6"/><mask id="A" maskUnits="userSpaceOnUse" x="-7" y="-11" width="208" height="581"><path d="M200.073-11H-7v580.162h207.073V-11z" fill="#fff"/></mask><g mask="url(#A)" class="B"><path d="M139.418 226.779c-.128.043-.202.178-.16.307l1.783 5.758c1.097 3.293 2.282 6.558 3.5 9.807 2.827 7.544 5.817 14.999 9.024 22.389l9.634 21.453 4.063 8.887 6.904 14.001c.648 1.266 1.374 2.478 2.024 3.742.485.945.882 1.933 1.348 2.888 1.08 2.209 2.247 4.394 3.372 6.581.211.408.701.566 1.108.354a.84.84 0 0 0 .353-1.128l-3.388-6.549c-.502-.935-1.062-1.828-1.541-2.775-.56-1.108-1.057-2.257-1.606-3.371l-3.372-6.694-1.493-2.855-4.32-8.71-3.901-7.775a522.27 522.27 0 0 1-8.623-18.888c-3.257-7.536-6.353-15.17-9.201-22.872l-3.163-8.743c-.665-1.89-1.289-3.786-2.039-5.645-.043-.129-.177-.204-.306-.162zm43.903 97.024c-.201-.063-.426-.042-.626.064a.83.83 0 0 0-.354 1.113l3.902 7.372c.863 1.558 1.618 3.179 2.345 4.806l1.637 4.097c.128.411.383 1.145.305 1.581-.088.497-.642.919-.995 1.226-.919.799-1.951 1.465-2.987 2.097-2.623 1.6-5.373 2.978-8.141 4.307l-2.938 1.403c-.362.179-.81.33-1.14.564-.224.158-.405.428-.595.629.276-.001.602.045.868-.016.279-.064.571-.246.835-.355l1.509-.645 4.351-2.096 7.034-3.872c.981-.63 2.321-1.501 2.906-2.548.35-.627.227-1.354.064-2.017-.301-1.231-.773-2.398-1.22-3.581l-2.441-5.693-3.838-8.017c-.105-.202-.281-.357-.481-.419z"/><path d="M145.025 277.797c-.069.013-.126.077-.113.146.087.812.268 1.598.401 2.403l.37 2.387 2.408 9.694c2.231 8.173 5.143 16.168 8.511 23.937 3.048 7.034 6.45 13.893 9.618 20.872.655 1.445 1.248 2.925 1.862 4.387.479 1.141.971 2.274 1.397 3.436.242.66.443 1.337.675 2 .698 1.995 1.433 4.006 1.862 6.081.116.561.199 1.129.289 1.694.193 1.214.362 2.43.386 3.661.018.93-.054 1.864-.578 2.662-1.161 1.766-3.942 2.31-5.861 2.613-1.325.209-2.633.354-3.966.484-.873.085-1.74.204-2.617.258-.938.057-1.912.056-2.843.177-.503.066-1.002.242-1.509.274s-1.012-.034-1.526-.048c-.794-.022-1.598-.018-2.392-.016-.253 0-.45.198-.45.451s.197.468.45.469l2.392-.017c.514-.014 1.029-.077 1.542-.048s.987.2 1.493.258c.483.054.976.028 1.461.048.701.03 1.403.021 2.104.033 2.427.039 4.846.013 7.242-.436 2.313-.433 4.862-1.287 6.23-3.355.993-1.503.99-3.251.851-4.984-.077-.959-.201-1.914-.401-2.855-.127-.595-.305-1.173-.466-1.758-.399-1.457-.778-2.931-1.285-4.355-.555-1.562-1.218-3.063-1.878-4.581-.93-2.138-1.899-4.237-2.907-6.339l-6.407-13.566c-3.541-7.573-7.008-15.226-9.811-23.114-1.581-4.451-3.046-8.951-4.206-13.533-.388-1.529-.719-3.077-1.076-4.613-.182-.782-.43-1.541-.61-2.323-.183-.791-.293-1.6-.498-2.387-.013-.068-.077-.109-.144-.097zm.771 87.797c-1.437.131-2.821.979-3.854 1.951l-1.558 1.613c-.215.288-.157.703.129.92s.699.159.915-.129c1.021-1.849 2.977-3.422 5.122-3.63.463-.044.931.055 1.382.146.182.04.361-.074.401-.258s-.074-.363-.257-.404c-.733-.175-1.525-.278-2.28-.209zm-63.747-8.614a11.64 11.64 0 0 0-1.894.194c-1.363.261-2.785.837-3.886 1.694-.199.155-.441.278-.562.5-.152.279-.135.626-.209.935-.084.066-.098.19-.032.274s.174.098.257.033c.305.012.614.083.916.032.216-.037.399-.189.594-.29l1.108-.565c.891-.409 1.798-.728 2.762-.919 2.955-.586 6.062.286 8.751 1.484 2.946 1.311 5.718 2.981 8.414 4.742l5.749 4.097 4.271 3.258 3.581 2.549 2.89 1.822c4.807 2.848 10.585 5.303 16.169 3.242.671-.247 1.326-.573 1.943-.935 1.359-.797 2.571-1.866 3.645-3.016a18.89 18.89 0 0 0 3.276-4.791c.095-.162.033-.373-.128-.467s-.355-.034-.45.129c-1.778 2.543-3.539 5.269-6.278 6.871-1.469.859-3.13 1.443-4.834 1.58-.62.05-1.244-.002-1.862-.048-3.044-.227-5.918-1.403-8.607-2.791-2.72-1.404-5.319-3.031-7.868-4.726-.49-.325-.956-.688-1.445-1.015l-5.154-3.533c-2.809-2.037-5.596-4.142-8.527-6-2.196-1.392-4.522-2.556-6.985-3.388-1.806-.609-3.701-.998-5.604-.952zm-72.95-10.952c-.222.014-.439.076-.658.113-.141-.014-.259.101-.273.242s.084.26.225.274c.208.081.411.185.626.242.801.214 1.699.234 2.521.323l3.661.387c3.435.402 6.79.98 10.084 2.064 2.089.689 4.107 1.613 5.829 3.001 1.046.842 1.925 1.849 2.489 3.081 1.099 2.397 1.092 5.122 2.103 7.548.908 2.179 2.69 3.808 4.705 4.952.701.398 1.413.672 2.152.984.51.216.926.46 1.461.613.256.073.527.087.787.145.522.116 1.031.293 1.558.387 1.01.181 2.235.269 3.259.21.552-.032 1.104-.126 1.654-.177s1.104-.165 1.654-.258c.277-.047.56-.053.835-.113s.568-.084.803-.242c.276-.186.454-.509.675-.758.038-.011.059-.043.048-.081s-.058-.059-.096-.048c-.311-.1-.606-.278-.932-.307-.266-.023-.526.101-.787.161s-.509.157-.771.21c-.744.153-1.585.278-2.344.307-.26.009-.527-.035-.787-.033-1.028.008-2.009 0-3.035-.097-.515-.048-.987-.071-1.493-.193-.241-.058-.468-.159-.707-.226-.379-.107-1.074-.236-1.445-.371-.897-.327-1.783-.877-2.553-1.435-1.186-.861-2.403-1.858-3.099-3.178-.651-1.235-.935-2.651-1.252-4-.477-2.029-.93-4.095-2.103-5.855-1.48-2.221-3.992-3.662-6.407-4.63-1.584-.634-3.205-1.041-4.865-1.403-2.408-.525-4.863-.893-7.306-1.21-1.431-.185-2.851-.344-4.287-.484-.617-.059-1.307-.182-1.927-.145zm42.296-132.976c-.183-.039-.363.09-.401.274l-.514 1.435-.755 2.227-.739 1.726-2.264 5.209-2.055 4.258-3.693 7.662-8.976 17.872c-4.509 8.728-8.782 17.562-12.926 26.469-4.788 10.294-9.4 20.707-13.183 31.421-.755 2.139-1.488 4.3-2.152 6.469-.538 1.758-1.001 3.522-1.445 5.307-.351 1.408-.632 2.833-.979 4.242-.317 1.285-.637 2.612-.739 3.935-.078 1.009-.046 2.037-.08 3.049-.065 1.931-.043 3.873.434 5.758.151.597.367 1.155.594 1.726.625 1.569 1.489 3.024 2.922 3.985.455.304.954.509 1.461.709.301.144.66.029.803-.274s.028-.679-.273-.823c-1.592-.911-2.888-2.368-3.484-4.129-.215-.635-.315-1.323-.417-1.984-.222-1.436-.29-2.887-.257-4.339.036-1.57.383-3.096.594-4.645.148-1.089.27-2.177.466-3.259.439-2.423 1.128-4.8 1.814-7.161a171.84 171.84 0 0 1 3.404-10.437c4.944-13.672 11.111-26.86 17.39-39.953l11.513-23.953c3.485-7.118 7.146-14.159 10.293-21.437 1.011-2.339 2.023-4.662 2.874-7.065.268-.756.593-1.51.787-2.291.127-.514.195-1.054.257-1.58.039-.184-.089-.364-.273-.403z"/><path d="M56.116 281.104c-.065-.022-.138 0-.16.065-.77 1.286-1.287 2.659-1.798 4.065l-1.702 5.065c-1.797 5.383-3.498 10.805-4.962 16.291-2.016 7.553-3.899 15.129-5.459 22.792-1.316 6.464-2.416 12.962-3.404 19.485l-1.381 9.71-.691 6.161c-.016.12.058.243.177.259s.241-.075.257-.194l.947-6.129 1.702-10.55c1.614-9.135 3.49-18.22 5.572-27.259l2.745-11.355c1.578-6.057 3.382-12.056 5.171-18.05.676-2.267 1.467-4.504 2.184-6.759.364-1.147.715-2.239.883-3.435.023-.065-.015-.138-.08-.162zm15.687-18.903c-.166-.055-.347.043-.402.21l-.851 2.467c-2.876 8.162-5.364 16.463-7.547 24.84l-2.986 12.098-3.966 16.581-5.074 24.405-.835 4.484-.835 4.323c-.154.88-.255 1.766-.417 2.645l-2.923 15.437c-.035.185.089.367.273.403s.35-.089.385-.274l2.986-14.888c.218-1.048.518-2.07.755-3.114l3.131-14.468 1.204-5.291 5.78-25.597.979-4.291 3.051-12.065 6.712-25.018c.24-.833.528-1.651.771-2.484.055-.167-.026-.348-.192-.403zm11.772 96.119a.34.34 0 0 0-.305.371c.43 2.699.418 5.467.53 8.194.279 6.787.263 13.581.193 20.372a.66.66 0 0 0 .659.662.66.66 0 0 0 .658-.662c-.085-6.812-.206-13.621-.658-20.42-.182-2.74-.605-5.468-.707-8.21-.018-.188-.182-.325-.369-.307zm.93 30.47a.54.54 0 0 0-.369.661l.481 2.113.61 2.258.37 2.5.675 4.662.401 3.5.113 2.145.128 7.904c-.073 1.841-.229 3.678-.498 5.5l-1.076 6.855-.771 9.969-.064 4.822c-.008 4.187.088 8.373.354 12.55.073 1.152.066 2.315.128 3.468l.257 4.451.771 12.679c.011.233.201.415.434.403s.413-.203.401-.436l-.787-17.146c-.037-1.15-.14-2.301-.145-3.452-.028-7.128-.022-14.271.498-21.388.194-2.653.424-5.302.803-7.936.22-1.535.545-3.05.787-4.581a49.9 49.9 0 0 0 .481-4.242c.278-3.905.116-7.82-.273-11.71-.277-2.776-.646-5.546-1.236-8.275-.181-.837-.439-1.653-.642-2.484-.19-.774-.294-1.567-.498-2.338-.187-.708-.446-1.409-.691-2.098a.51.51 0 0 0-.642-.354zm-39.31-19.197a.34.34 0 0 0-.369.307c-.317 1.724-.456 3.457-.466 5.21l.081 2.693v3.549l.225 5.855.353 6.259.546 4.758.209 2.371.514 3.403c.385 2.008.955 3.993 1.526 5.953l.674 2.499c1.676 5.644 3.561 11.2 5.492 16.759l2.441 7.243 3.292 9.726c1.293 4.127 2.516 8.293 3.581 12.484.269 1.062.469 2.134.738 3.194s.629 2.114.899 3.178.426 2.167.642 3.242c.05.243.288.389.53.339s.402-.29.353-.533c-.222-1.082-.504-2.14-.707-3.226s-.334-2.195-.578-3.274c-.362-1.605-.876-3.184-1.301-4.774-1.395-5.221-3.085-10.339-4.721-15.485l-1.654-5.242-2.521-7.21-2.12-6.275c-1.199-3.457-2.349-6.928-3.34-10.452-.231-.823-.501-1.639-.706-2.468-.297-1.196-.562-2.411-.835-3.613-.425-1.871-.779-3.746-1.14-5.629-.115-.6-.271-1.183-.354-1.791-.236-1.738-.28-3.51-.401-5.258l-.305-4.081-.37-7.968c-.025-1.178-.116-2.354-.096-3.533.015-.892.101-1.786.128-2.677.053-1.722.063-3.439.064-5.162a.34.34 0 0 0-.305-.371z"/><path d="M3.045 326.188c-.136.02-.229.139-.209.275-.057 1.646.42 3.275 1.044 4.79.542 1.316 1.256 2.518 2.2 3.581.639.719 1.355 1.346 2.071 1.984.475.423.95.817 1.525 1.097 1.66.808 3.598 1.107 5.395 1.387 3.885.606 7.91.595 11.625 2.048 1.885.738 3.59 1.943 4.962 3.436 1.842 2.005 3.16 4.445 4.48 6.807 1.339 2.396 2.648 4.984 4.705 6.855 2.249 2.046 5.29 2.875 8.253 3.13 1.819.155 3.845.154 5.652-.113 1.63-.242 3.2-.751 4.753-1.291.691-.24 1.028-.342 1.702-.629 2.292-.977 4.479-2.197 6.664-3.387.826-.45 1.672-.856 2.505-1.29 1.627-.851 3.234-1.722 4.914-2.468 1.063-.474 2.138-.925 3.243-1.291 2.938-.972 6.079-1.216 9.089-.452 1.886.48 3.592 1.36 5.234 2.388a.8.8 0 0 0 1.108-.242.81.81 0 0 0-.24-1.113c-1.476-.991-3.072-1.791-4.769-2.323-1.515-.474-3.054-.716-4.64-.693-5.246.073-10.173 2.317-14.644 4.903-.544.314-1.067.662-1.606.984-2.366 1.414-4.822 2.748-7.338 3.871-.538.24-1.06.488-1.606.71a19.73 19.73 0 0 1-4.93 1.274c-1.657.208-3.321.151-4.977-.016-1.291-.13-2.565-.352-3.806-.742-1.381-.434-2.747-1.02-3.837-2-2.162-1.943-3.46-4.847-4.849-7.355-1.832-3.308-4.038-6.494-7.21-8.63-2.535-1.707-5.585-2.189-8.542-2.645l-4.817-.694c-2.059-.243-4.114-.559-6.021-1.403-.485-.215-1.026-.41-1.445-.742-1.035-.819-1.85-1.864-2.585-2.952-.697-1.03-1.301-2.086-1.734-3.258s-.645-2.399-1.044-3.581a.24.24 0 0 0-.273-.21zm183.824 7.26L183 335.835l-6.552 3.677a25.99 25.99 0 0 0-6.005 5.855c-.186.253-.369.518-.498.807-.401.9-.389 1.96-.498 2.919-.124 1.096-.308 2.2-.723 3.226-.258.64-.582 1.253-1.139 1.678-.928.707-2.189.718-3.292.855l-4.914.5-9.891.839-2.601.306-6.134.936c-3.136.693-3.838 4.023-5.283 6.403-.305.503-.687.952-1.06 1.403-1.208 1.465-2.565 2.663-4.286 3.468l-1.157.485c-.971.428-1.849.714-2.922.516-.479-.089-.946-.269-1.381-.484-.758-.375-1.436-.878-2.119-1.371-.425-.306-.851-.648-1.35-.823-.235-.083-.516-.11-.754-.161-.473-.103-.937-.237-1.397-.387-1.468-.482-2.903-1.139-4.288-1.823-1.812-.895-3.549-1.929-5.282-2.968l-3.533-2.161-2.73-1.872-3.934-2.451-2.81-1.791c-.342-.194-.786-.069-.98.275a.71.71 0 0 0 .273.967c2.287 1.299 4.361 2.932 6.535 4.404l4.56 2.903 3.565 2.226c2.259 1.302 4.582 2.585 7.033 3.484l2.136.678c.334.084.735.111 1.06.225.635.225 1.289.846 1.846 1.226 1.14.779 2.37 1.401 3.757 1.549.825.088 1.682-.053 2.458-.339.332-.123.635-.304.962-.436.666-.266 1.324-.536 1.944-.903 1.325-.785 2.527-1.848 3.58-2.968.594-.63 1.159-1.303 1.606-2.048.814-1.357 1.284-2.911 2.2-4.21.392-.556.874-1.098 1.509-1.371.691-.297 1.515-.345 2.248-.452l3.79-.484 3.083-.29 11.561-1.081 3.838-.467c.802-.117 1.607-.212 2.36-.533 2.061-.877 2.962-2.875 3.308-4.984.205-1.252.194-2.603.562-3.823.134-.445.43-.82.674-1.21l.562-.838c2.462-3.331 6.015-5.528 9.49-7.646l2.697-1.645c.653-.396 1.345-.753 1.911-1.274.187-.173.356-.379.53-.565.093-.072.104-.197.033-.29s-.197-.121-.29-.048z"/><path d="M116.828 260.362c-.108.012-.188.118-.177.226.051 3.48.397 6.939.851 10.388.204 1.545.529 3.077.691 4.629.182 1.749.345 3.502.594 5.242.333 2.333.762 4.644 1.14 6.968l1.268 7.598c.402 2.142.894 4.266 1.317 6.404l2.649 13.452 2.762 12.226 2.136 9.291.739 2.887 3.934 16.679 2.489 10.823c.373 1.509.654 3.01 1.156 4.484.041.184.218.299.401.258s.298-.219.257-.403c-.172-1.549-.543-3.041-.851-4.565-.852-4.208-1.889-8.364-2.842-12.549l-3.42-15.001-.579-2.903-2.986-13.372-1.847-8.759-2.617-12.21c-.451-2.329-.795-4.683-1.22-7.016l-1.333-6.953c-.471-2.502-.81-5.038-1.236-7.548l-1.044-5.759c-.227-1.34-.309-2.685-.482-4.032-.442-3.44-.884-6.901-1.541-10.307-.011-.109-.101-.189-.209-.178zm-3.243 35.18c-.099.018-.162.111-.144.21l.337 3.516.931 5.162.225 1.742 1.156 7.71.578 4.258 3.757 29.905 2.136 20.13.626 6.275.321 2.726.128.903c.068.303.184.59.274.887.008.078.083.137.16.129a.15.15 0 0 0 .129-.161l.08-.92c.014-.608-.08-1.215-.129-1.822l-.144-1.823-.61-6.274-1.831-18.421-3.516-29.985-.916-5.968-1.236-7.711-.353-1.709-.835-5.194c-.233-1.155-.617-2.28-.915-3.42-.018-.099-.11-.163-.209-.145zm13.649-68.068c-1.183.076-1.518 1.504-1.622 2.451-.178 1.629.074 3.336.369 4.936.145.784.277 1.847.691 2.533.132.219.336.398.498.596.016.057.072.081.128.065s.08-.072.064-.129c.033-.251.094-.504.097-.758.008-.831-.318-1.693-.482-2.5-.264-1.296-.417-2.596-.402-3.92.007-.589.036-1.852.498-2.306.243-.239.664.096.851.242.581.45 1.01 1.024 1.397 1.645 1.428 2.291 2.221 4.883 3.565 7.21.008.023.041.04.064.032s.024-.025.016-.048c-.201-1.343-.626-2.596-1.124-3.855-.571-1.447-1.234-2.886-2.103-4.178-.545-.809-1.372-2.09-2.505-2.016zm-43.725-10.921a.66.66 0 0 0-.675.645c.049.184.12.36.145.548.046.357-.001.722-.017 1.081l-.08 1.081c-.175 1.865-.586 3.661-.996 5.484-.336 1.499-.813 2.954-1.268 4.42l-.659 2.225-1.557 4.985-.819 3.306c-.232 1.097-.341 2.188-.739 3.243-.034.184.089.369.273.403a.33.33 0 0 0 .385-.274c.002-.36-.01-.741.048-1.097.087-.536.284-1.077.434-1.597l.658-2.129 1.782-5.469 1.14-3.306c.85-2.756 1.656-5.547 2.087-8.404l.273-2.258.064-1.113c.007-.187-.01-.379.016-.564s.093-.366.144-.549c.003-.365-.279-.658-.642-.661zM69.556 373.772c-.052.027-.076.076-.048.129l.385 1.258.385 1.113c.137.519.209 1.062.241 1.596.136 2.312-.488 4.58-1.012 6.808-.184.785-.292 1.572-.401 2.37-.042.336.196.636.53.678s.632-.181.674-.516l.466-3.452c.317-1.781.676-3.584.53-5.403-.062-.763-.233-1.511-.45-2.243-.111-.375-.226-.819-.402-1.177-.195-.399-.493-.774-.754-1.129-.028-.052-.093-.06-.145-.032zm.161 15.146c-.208.052-.325.275-.273.483l.08 1.291c.084.336.42.552.755.467a.64.64 0 0 0 .45-.774l-.53-1.177c-.052-.209-.274-.343-.481-.29zm-15.481-11.454a.35.35 0 0 0-.434.226c-.479 1.308-.676 2.709-.771 4.097-.194 2.857.085 5.996 1.526 8.517.097.226.353.339.578.242s.322-.371.225-.597c-.923-3.124-1.637-6.416-1.349-9.694.07-.794.259-1.583.45-2.355.055-.18-.046-.38-.225-.436zm68.854-157.007c-.059-.044-.133-.044-.177.016s-.027.15.033.194c.162.185.301.397.481.564.513.478 1.191.842 1.783 1.21 1.018.633 2.09 1.165 3.179 1.661l3.998 1.645 2.714.92 3.356 1.113a.8.8 0 0 0 1.012-.516c.139-.426-.09-.876-.514-1.016-3.341-1.206-6.864-1.818-10.197-3.049-1.3-.48-2.58-1.062-3.789-1.742-.63-.354-1.214-.712-1.879-1z"/><path d="M155.318 208.763c-.28.092-.445.397-.354.678.016.332.061.656.177.968.337.907 1.016 1.66 1.028 2.677.009.792-.298 1.597-.658 2.291-.24.46-.531.882-.563 1.419-.042.724.428 1.253.578 1.92.094.412-.046.895-.208 1.274-.151.351-.376.679-.627.968-.528.61-1.285.812-1.926 1.242-.265.176-.534.414-.755.645-.487.509-.898 1.152-1.221 1.774l-.513 1.065c-.186.318-.431.614-.659.903-.034.043-.692.185-.835.21a14.48 14.48 0 0 1-1.895.177c-1.226.049-2.452.057-3.677-.032l-3.628-.403c-.26-.043-.52.142-.562.403s.142.506.401.549c2.435.54 5.019.809 7.515.757.983-.02 2.297-.031 3.195-.483.611-.307.893-.948 1.172-1.533l.531-1.113c.141-.333.231-.69.497-.951.335-.33.765-.513 1.172-.726.795-.417 1.679-.869 2.264-1.565.244-.29.421-.623.61-.951.453-.786.604-1.759.45-2.646-.078-.449-.322-.844-.385-1.29-.041-.287.316-.673.433-.887.314-.575.586-1.196.723-1.84.425-1.999-.469-3.628-1.622-5.161-.091-.28-.379-.431-.658-.339zm-106.605 1.969c-.507-.019-.755.044-1.253.129a.13.13 0 0 0-.144.113.13.13 0 0 0 .113.145c.372.182.741.372 1.14.484.583.163 1.206.2 1.798.322l2.392.549 7.531 1.838a120.39 120.39 0 0 0 10.486 1.985c2.616.376 5.238.662 7.884.725 2.58.062 5.179-.123 7.756-.225a120.46 120.46 0 0 1 7.579-.065c2.927.067 5.831.45 8.735.79l1.879.21 1.879.274 2.793.291 3.581.516 9.088 1.581c.283.068.575-.104.643-.387a.52.52 0 0 0-.386-.63c-4.211-.995-8.458-1.78-12.733-2.435-.931-.143-1.846-.351-2.778-.484-.627-.09-1.265-.138-1.895-.21-4.139-.472-8.273-1.106-12.444-1.226-3.216-.092-6.424.17-9.634.307-1.345.056-2.701.036-4.047.048-2.583.023-5.169-.058-7.739-.339-5.663-.618-11.142-2.233-16.715-3.338a122.2 122.2 0 0 0-3.693-.678c-.601-.101-1.203-.268-1.814-.29zm67.119 165.975c-.056.011-.091.072-.08.129.414 2.983 1.245 5.885 2.36 8.678.712 1.78 1.755 3.539 2.072 5.452.197 1.194.223 2.408.305 3.613l.16 2.355.546 8.033.755 6.226c.57 3.587 1.491 7.14 2.537 10.613l2.04 6.452c1.649 4.9 3.627 9.674 5.427 14.517 1.179 3.175 2.54 6.281 3.404 9.565.936 3.56 1.497 7.205 1.943 10.856l.385 2.855c.233 1.827.272 3.695.369 5.533.132 2.475.238 4.956.257 7.435.002.222.181.406.402.403s.388-.197.385-.419l-.144-7.468c-.073-1.621-.203-3.238-.338-4.855-.1-1.204-.137-2.411-.272-3.613-.53-4.683-1.475-9.322-2.746-13.856-.787-2.806-1.928-5.502-3.067-8.178l-1.831-4.436c-2.203-5.344-4.212-10.813-5.812-16.371-.643-2.233-1.29-4.472-1.783-6.743-.701-3.227-1.101-6.521-1.413-9.807-.259-2.735-.449-5.496-.562-8.242l-.16-2.855c-.044-.639-.063-1.288-.177-1.92-.182-1.005-.626-1.948-1.012-2.887l-1.525-3.661c-.96-2.388-1.665-4.829-2.296-7.323-.012-.057-.072-.092-.129-.081zm46.837 33.922c-.307.001-.563.255-.561.565.018 3.675-.226 7.35-.45 11.016l-.739 12.211c-.687 11.887-1.146 23.787-.899 35.695.119 5.747.466 11.528 1.461 17.194.303 1.725.677 3.446 1.157 5.13a31.23 31.23 0 0 0 .401 1.306c.082.25.273.504.208.759-.084.337-.474.607-.738.79-.68.47-1.47.789-2.232 1.097-2.087.844-4.258 1.391-6.423 1.984-.814.223-2.027.28-2.665.871-.658.609-.819 1.583-.899 2.435-.153 1.612.066 3.265.481 4.823.137.511.305 1.017.482 1.518.125.351.28.697-.048.996-.38.351-.97.454-1.461.501-.927.098-1.865-.021-2.762-.258-1.451-.382-2.575-1.182-3.774-2.065-1.573-1.156-3.307-2.484-4.094-4.337-.367-.863-.321-1.92-.338-2.839-.027-1.541.053-3.075.145-4.613.276-4.601.678-9.241.177-13.839-.009-.128-.114-.235-.241-.226s-.217.13-.209.258c.055 2.377.086 4.735.016 7.113-.09 3.048-.304 6.086-.482 9.13-.066 1.135-.135 2.281-.08 3.419.032.647.092 1.287.353 1.887.355.813 1.012 1.516 1.622 2.147 1.254 1.291 2.704 2.401 4.223 3.355a9.07 9.07 0 0 0 5.122 1.337c.7-.025 1.549-.124 2.088-.629.623-.584.238-1.151.032-1.807a11.06 11.06 0 0 1-.289-1.161c-.298-1.499-.538-3.115-.369-4.645.074-.677.253-1.34.738-1.839.298-.306.784-.303 1.172-.371a40.48 40.48 0 0 0 1.863-.387c1.353-.305 2.696-.698 4.014-1.129 1.263-.412 2.53-.85 3.694-1.5.7-.392 1.639-.929 1.83-1.79.101-.455-.103-.864-.241-1.291-.14-.433-.262-.836-.385-1.274-.536-1.908-.924-3.851-1.237-5.807-.91-5.702-1.214-11.493-1.364-17.259-.139-5.314.005-10.626.176-15.937.231-7.161.644-14.318 1.092-21.469l.69-11.677c.161-2.948.319-5.887.306-8.84-.002-.309-.254-.55-.563-.548z"/><path d="M155.572 365.836c-.068.03-.093.109-.064.177.973 2.378 1.402 4.972 1.863 7.485l1.381 7.565.578 2.274c.173.562.419 1.081.529 1.662l.707 4.226.402 3.468c.691 5.405 1.207 10.851 1.204 16.307a.49.49 0 0 0 .497.5.52.52 0 0 0 .514-.516c-.018-1.86-.162-3.711-.288-5.565l-.434-5.694-.193-1.951c-.176-2.24-.424-4.462-.787-6.678-.178-1.091-.321-2.196-.562-3.274a12.75 12.75 0 0 0-.546-1.807c-.224-.586-.523-1.156-.706-1.759-.285-.935-.509-1.9-.723-2.854-.637-2.84-1.08-5.722-1.702-8.566-.367-1.68-.794-3.36-1.493-4.935-.03-.069-.108-.094-.177-.065zm-18.755-194.543c-.92.062-1.84.221-2.713.517-1.786.604-2.952 1.836-3.051 3.774-.015.282-.048.626.016.904.072.314.259.633.401.919.027.135.171.22.305.193s.22-.155.193-.29l.112-.919c.019-.244-.022-.479 0-.726.047-.51.237-1.054.514-1.484.91-1.411 2.911-1.776 4.432-1.887 3.571-.26 7.144.496 10.566 1.451 3.164.884 6.437 1.781 9.265 3.517 1.637 1.004 3.114 2.283 4.447 3.661 1.716 1.774 3.16 3.786 4.448 5.888.188.305.352.673.578.951.072.089.141.188.241.243.189.102.396.204.61.209.195.004.374-.088.546-.177.491-.256.627-1.347.707-1.823.075-.445.151-.904.176-1.355.037-.657-.011-1.332.097-1.984.049-.298.211-.598.305-.887a1.1 1.1 0 0 0-.995-1.178c-.596-.05-1.107.387-1.157.984.048.29.136.628.129.92-.017.696-.197 1.389-.322 2.081-.32-.48-.637-.955-.979-1.42-1.316-1.788-2.79-3.476-4.464-4.936-1.599-1.395-3.432-2.617-5.363-3.5-1.424-.651-2.941-1.089-4.448-1.5-1.172-.32-2.344-.633-3.532-.887-2.733-.585-5.512-1.048-8.302-1.226-.909-.058-1.841-.093-2.762-.033z"/><path d="M131.842 135.968c-.071-.027-.149.009-.176.081-.418.828-.682 1.615-.899 2.516l-.531 2.291c-.143.858-.185 1.728-.224 2.596-.156 3.466.204 6.988 1.059 10.356a55.94 55.94 0 0 0 1.012 3.5c.296.909.635 1.792.851 2.726.322 1.389.393 2.809.289 4.226-.175 2.393-.952 4.641-1.75 6.887-.649 1.828-1.378 3.533-.626 5.436.139.397.568.608.963.468a.76.76 0 0 0 .466-.968c-.196-.665-.053-1.379.064-2.048.184-1.05.526-2.064.835-3.081.698-2.296 1.309-4.694 1.285-7.113-.016-1.553-.286-3.094-.723-4.581-.338-1.151-.791-2.255-1.14-3.404-.338-1.112-.616-2.236-.867-3.371-.774-3.494-1.097-7.159-.787-10.726.089-1.023.124-2.074.338-3.081.179-.85.428-1.69.642-2.532.027-.073-.009-.151-.081-.178zm27.666-37.825c-.125.04-.184.164-.144.29.238 1.827.754 3.572 1.252 5.34l.482 1.774.546 1.758c.428 1.813.697 3.679.996 5.516l1.188 9.404 1.429 19.018.723 9.871.658 11.323c.211 4.195.304 8.382.385 12.581.039 1.987-.02 3.978.225 5.952a.691.691 0 1 0 1.381 0c.232-1.992.118-3.984.048-5.984-.072-2.08-.216-4.165-.353-6.242l-.931-13.662c-.919-11.306-1.151-22.67-2.682-33.921l-1.253-8.469c-.325-1.852-.786-3.69-1.156-5.532-.122-.612-.149-1.225-.257-1.839-.158-.905-.415-1.82-.642-2.71-.387-1.519-.858-2.934-1.589-4.323-.04-.126-.18-.185-.306-.145z"/><path d="M123.924 91.224c-.346.011-.672.104-.963.355-.766.659-.606 1.824-.498 2.71.267 2.198 1.119 4.314 1.654 6.453.159.636.313 1.277.353 1.935.029.48-.037.975-.081 1.452l-.224 2.129c-.46 3.774-1.578 7.551-3.196 10.985-1.301 2.76-3.017 5.406-4.977 7.742-1.54 1.834-3.305 3.45-5.122 5-.596.508-1.177 1.042-1.799 1.516-.816.622-1.672 1.216-2.553 1.742-.655.391-1.354.71-1.991 1.129-.653.43-1.209.941-1.75 1.501-.12.067-.165.218-.097.338s.218.165.338.097c.773-.183 1.48-.391 2.184-.774.682-.373 1.306-.878 1.942-1.323l3.244-2.274c2.237-1.556 4.245-3.427 6.053-5.468 2.761-3.116 4.904-6.486 6.407-10.388 1.14-2.96 1.806-6.038 2.2-9.178a36.61 36.61 0 0 0 .273-3.274c.015-.417.027-.828-.016-1.243-.11-1.046-.404-2.056-.69-3.064l-.884-3.162c-.124-.492-.178-.684-.273-1.177-.133-.69-.25-1.38-.128-2.081.04-.231.102-.531.305-.678.37-.267 1.237-.013 1.638.049 1.372.21 2.732.441 4.094.726 5.177 1.083 10.384 2.056 15.624 2.774 2.678.368 5.379.606 8.077.774l2.906.194c.681.038 1.435-.025 2.071.291.245.121.486.251.675.451.145.154.264.388.434.516.04.115.174.17.288.129a.21.21 0 0 0 .129-.274c-.354-1.444-2.383-1.595-3.565-1.694l-.947-.064-.98-.064c-2.435-.175-4.865-.367-7.29-.661-2.126-.259-4.247-.604-6.358-.968-4.193-.723-8.358-1.575-12.525-2.436-.35-.072-.712-.126-1.06-.21-.625-.15-1.243-.307-1.878-.42-.343-.061-.698-.124-1.044-.112z"/><path d="M158.24 96.933c-.158.028-.319.115-.417.258-.262.306-.407.441-.578.823-.11.243-.216.758-.273 1.016-.174.784-.292 1.606-.595 2.356-.3.741-.856 1.393-1.461 1.903-1.138.96-2.654.882-4.014 1.258-.657.182-1.362.485-1.67 1.145-.086.184-.142.389-.209.581-.079.229-.224.435-.241.677-.023.35.035.707.113 1.049.164.722.931 1.735.546 2.532-.564 1.164-1.803 1.99-2.811 2.71-.903.646-1.707 1.302-1.926 2.452-.031.185.104.356.289.387a.33.33 0 0 0 .385-.275c.156-1.109 1.33-1.674 2.184-2.209 1.069-.67 2.132-1.44 2.81-2.532.156-.252.336-.546.401-.839.226-1.013-.549-1.637-.803-2.5-.182-.622.049-1.001.29-1.549.2-.457 1.263-.604 1.67-.661 1.339-.189 2.856-.109 3.982-.984.454-.353.753-.779 1.06-1.258a9.33 9.33 0 0 0 1.22-2.871c.194-.822.294-1.724.674-2.484.198-.285.124-.689-.161-.887-.141-.1-.307-.125-.465-.097zm-64.198 40.18c-.753.027-1.325.318-1.959.71-1.957 1.207-2.531 3.469-2.585 5.645-.013.514-.033.99.032 1.5.042.434.435.753.867.71s.749-.437.706-.871l-.177-1.79c-.027-1.615.318-2.972 1.542-4.081.545-.494 1.228-.726 1.798-1.177.177-.064.272-.259.209-.436a.34.34 0 0 0-.433-.21zm-3.772 9.066c-.039-.026-.102-.023-.129.017s-.007.102.032.129c-.523.517-.656.457-.53.516.24.11.526-.135.787-.097.141.02.226.167.337.258.305.249.533.54.803.823 1.152 1.205 2.056 2.609.963 4.177-.137.196-.306.404-.498.548-1.002.757-2.135 1.028-3.372.968-.143-.006-.399-.258-.482-.338-.302-.293-.563-.652-.771-1.017-.187-.328-.298-.648-.385-1.016-.127-.536-.271-1.08-.144-1.629.159-.684.622-1.241 1.22-1.597.228-.135.52-.232.723-.403.46-.387.006.004.305-.161a.43.43 0 0 0 .305-.533c-.059-.236-.294-.382-.53-.322l.674-.161c-.534-.006-1.199.123-1.734.29-1.017.317-1.969 1.007-2.361 2.032-.556 1.453-.067 2.976.707 4.243.476.779 1.255 1.737 2.216 1.919.391.074.816.033 1.204-.032 1.958-.33 3.992-1.747 4.159-3.872.132-1.689-.978-3.211-2.296-4.129l-.353-.242c-.12-.088-.204-.271-.353-.274-.622-.013-.002.004-.498-.097z"/><path d="M88.968 154.487c-.05-.022-.107-.001-.129.049-.221.185-.481.359-.61.628-.295.615-.323 1.424-.401 2.082-.074.621-.162 1.276-.08 1.903.052.401.205.778.273 1.177.05.293.089.797.112 1.097a.44.44 0 0 0 .546.306c.236-.067.373-.311.305-.548-.193-.362-.323-.533-.385-.952s.011-.712.032-1.128l.048-1.759c.06-.655.308-1.261.401-1.903.039-.267-.043-.557-.064-.823.021-.05.002-.107-.048-.129z"/><path d="M89.532 161.212c-.238-.033-.424.105-.53.307-.275-.014-.591.037-.851.113-1.471.427-2.936 1.485-3.292 3.064-.514 2.287 2.095 4.06 4.111 4.065 1.187.003 2.191-.602 3.051-1.371 1.168-1.046 1.692-2.854 1.044-4.323-.414-.938-1.366-1.469-2.312-1.71l-.385-.081c-.136-.021-.004.015-.834-.064zm-.53.807c.082.148.205.265.385.29.379.08.24.006.369.08.258.148.624.179.899.307.535.248 1.055.621 1.349 1.145.37.66.143 1.526-.193 2.145-.658 1.212-1.904 2.047-3.324 1.823-1.206-.191-2.988-1.507-2.713-2.919.155-.798.794-1.446 1.413-1.92.506-.387.987-.693 1.59-.903.018-.007.2-.042.224-.048z"/><path d="M88.294 167.971a.35.35 0 0 0-.433.226c-.799 1.939-1.259 3.966-1.333 6.065-.016.468-.067.94 0 1.403.034.237.117.461.177.694a.35.35 0 0 0 .369.322.35.35 0 0 0 .321-.371c.088-.89.015-1.786.097-2.677.163-1.787.602-3.488 1.012-5.226.058-.179-.031-.378-.209-.436z"/><path d="M86.159 175.938a3.54 3.54 0 0 0-1.831.79c-.181.152-.331.388-.466.581-.462.665-.779 1.399-.851 2.21a.43.43 0 0 0 .305.516.41.41 0 0 0 .497-.307c.225-.526.434-1.081.819-1.516.156-.176.345-.283.53-.419.268-.198.225-.222.514-.371 1.937-1 3.87.548 4.56 2.323.063.177.258.256.434.193s.256-.258.193-.435c-.47-1.448-1.276-2.661-2.714-3.291-.622-.272-1.322-.36-1.991-.274zm20.424-96.813c-.187-.001-.336.151-.337.339.028 2.229.183 4.729 1.012 6.823.265.672.681 1.282 1.043 1.903a.37.37 0 0 0 .514.113c.176-.108.22-.324.113-.5-.851-1.334-1.566-3.195-1.815-4.774-.186-1.178-.198-2.375-.177-3.565a.35.35 0 0 0-.353-.339zm1.076.163c-.095-.058-.215-.014-.273.081s-.031.216.064.274c.372.269.75.551 1.012.935 1.157 1.698 1.029 4.417 1.14 6.355.197 3.443.789 7.008 3.741 9.162.12.095.291.072.385-.049s.072-.292-.047-.387c-.648-.554-1.249-1.104-1.719-1.822-1.637-2.503-1.628-5.667-1.846-8.549-.16-2.106-.344-4.894-2.457-6.001z"/><path d="M110.372 88.803c-.072.06-.076.169-.016.242.298.626.792.984 1.317 1.419l.883.677c.334.2.703.327 1.06.484 2.221.976 4.458 1.783 6.888 2.016.671.064 1.298.155 1.959 0 .207-.01.363-.196.354-.403s-.195-.364-.402-.355c-.608-.09-1.204-.044-1.815-.113-.721-.082-1.456-.224-2.167-.371-1.483-.307-3.144-.758-4.496-1.452-.329-.168-.623-.388-.947-.565l-.932-.451c-.521-.306-.956-.747-1.445-1.097-.06-.072-.169-.092-.241-.032zm55.527 98.328c-.193-.03-.371.096-.401.29-.412 2.075-.917 4.144-1.606 6.146-.477 1.39-1.073 2.731-1.685 4.065-1.116 2.429-2.406 4.814-4.127 6.871-.674.805-1.432 1.582-2.248 2.242l-.771.565c-.351.296-.64.617-1.06.823-.607.297-1.326.416-1.991.483a.61.61 0 0 0-.53.678.61.61 0 0 0 .675.532c.48-.058.953-.128 1.413-.29.468-.165.909-.417 1.365-.613.499-.215.963-.386 1.397-.726 1.371-1.076 2.436-2.513 3.404-3.952 1.431-2.128 2.669-4.441 3.629-6.823l1.284-3.597c.699-2.042 1.305-4.138 1.542-6.291.03-.194-.096-.373-.29-.403zm-84.093 13.792a48.69 48.69 0 0 0-3.934.08c-2.094.134-4.147.56-6.23.791a.42.42 0 0 0-.353.467c.031.224.243.371.466.339 2.798-.489 5.661-.473 8.494-.564h5.427l2.328.209 7.049.92 7.932 1.209 6.438 1.259c3.287.641 6.595 1.13 9.892 1.709 10.353 1.82 20.888 3.071 31.407 2.291.188-.008.329-.167.322-.355s-.166-.33-.353-.323c-1.798.009-3.598.039-5.396-.016a143.11 143.11 0 0 1-7.049-.387c-6.258-.499-12.497-1.493-18.674-2.597-3.017-.539-6.012-1.209-9.024-1.774-2.427-.455-4.873-.824-7.306-1.242-3.708-.637-7.436-1.313-11.192-1.597-2.108-.16-4.216-.179-6.327-.274l-3.918-.145zm-34.491-59.665c-.068.03-.093.093-.064.162-.015.417-.103.86-.016 1.274.051.242.157.471.224.709a13.31 13.31 0 0 1 .37 1.742c.196 1.376.11 2.705.016 4.081-.031.463.028.925 0 1.387-.041.693-.271 1.4-.449 2.065l-.579 2.081-1.846 7.355c-.275 1.625-.515 3.3-.401 4.952a21.67 21.67 0 0 0 1.091 5.484c.861 2.519 2.18 4.905 3.645 7.113.302.446.906.562 1.349.258s.559-.909.257-1.354c-2.106-3.039-3.731-6.334-4.352-10.017-.134-.795-.185-1.601-.241-2.403-.07-1.018-.117-2.062-.032-3.081.166-1.995.581-3.944 1.044-5.888l.899-3.565c.16-.708.278-1.416.418-2.128.141-.721.438-1.387.546-2.113.177-1.194.133-2.468 0-3.662a15.12 15.12 0 0 0-.546-2.645c-.077-.259-.138-.533-.257-.775-.2-.406-.571-.673-.899-.967-.029-.069-.108-.094-.177-.065zm-15.413-30.775a.33.33 0 0 0-.177.419c-.032.845.128 1.596.289 2.42l.289 1.29c.304 1.312.639 3.103 1.831 3.903.283.191.547.419.867.533.344.122.711.159 1.076.178 1.34.068 2.794-.473 3.886.58.388.375.786.776 1.108 1.21.49.66.822 1.448 1.156 2.193l1.317 3.146 1.734 4.468c.076.172.279.254.45.177s.252-.279.176-.451c-1.433-2.744-2.101-5.832-3.452-8.613-.547-1.127-1.087-2.352-2.039-3.194-.958-.848-2.11-.764-3.292-.775-.81-.006-1.575.161-2.184-.484-.035-.036-.005-.095-.016-.145a.96.96 0 0 0-.08-.225c-.102-.202-.249-.367-.337-.581-.183-.447-.297-.933-.401-1.404-.275-1.241-.447-2.624-1.14-3.726-.222-.353-.36-.447-.658-.741a.31.31 0 0 0-.401-.178zm28.854-12.678c-.301-.004-.607.028-.883.048-1.221.09-2.4.372-3.484.952-1.97 1.053-3.477 2.812-5.283 4.113-2.04 1.471-4.358 2.465-6.744 3.226l-1.766.5c-1.557.324-3.175.464-4.753.645-.614.071-1.236.026-1.847.113-.589.084-1.132.31-1.702.468-1.164.323-2.445.642-3.147 1.726-.063.079-.047.195.032.258s.194.063.257-.016c.431-.44 1.01-.62 1.59-.775l1.445-.322c.567-.077 1.135-.039 1.702-.113l1.782-.307c2.05-.193 4.06-.255 6.054-.822 2.762-.787 5.438-1.921 7.788-3.597 1.491-1.063 2.72-2.429 4.175-3.533 1.187-.9 2.501-1.343 3.982-1.435.324-.02.748-.097 1.06.032.191.078.222.342.24.516.059.552-.027 1.129-.096 1.677l-.385 2.581c-.159 1.532-.192 3.105-.177 4.645.025 2.496.479 5.014 1.349 7.355l1.044 2.452c.41.879.823 1.715 1.349 2.532.573.889 1.238 1.689 1.911 2.501.006.008.024.005.032 0s.005-.024 0-.033l-1.67-3.709-.739-1.678c-1.014-2.605-1.569-5.419-1.847-8.194-.139-1.394-.221-2.798-.08-4.194l.321-3.339.177-2.145c.007-.725-.118-1.582-.835-1.952-.258-.133-.55-.174-.851-.177zm-30.252 13.017c-.084-.023-.17.028-.193.113-.681 1.871-1.062 3.773-1.429 5.726l-.723 4.242-.626 6.017c-.67 6.971-.506 13.975-.53 20.969-.013 3.71-.147 7.42-.225 11.129-.082 3.898-.391 7.755-.803 11.63l-.128 1.371c-.228 1.984-.622 4-1.108 5.936a.42.42 0 0 0 .289.516c.221.065.449-.053.514-.274.176-.528.373-1.058.514-1.597.379-1.455.565-2.955.803-4.436.426-2.647.628-5.308.787-7.984l.289-5.129c.224-4.524.107-9.055.064-13.582-.048-5.039-.051-10.078.177-15.114.09-1.98.158-3.961.337-5.936.231-2.548.542-5.123.98-7.645.334-1.925.787-3.833 1.124-5.759.023-.084-.028-.17-.112-.193z"/><path d="M39.882 177.905c-1.188.076-2.362.24-3.533.532-1.01.252-1.941.651-2.906 1.033l-2.36.871-1.349.629c-1.081.454-2.266.735-3.436.79-.403.019-1.018-.033-1.204-.484-.235-.569.092-1.261.241-1.806.075-.173-.005-.377-.177-.452s-.375.005-.45.178c-.503.831-.97 2.253-.193 3.081.545.579 1.538.647 2.28.596 1.019-.07 2.009-.371 2.986-.645.887-.249 1.761-.469 2.601-.855 1.637-.751 3.085-1.768 4.865-2.145 2.218-.471 4.542-.371 6.776-.081l3.003.403c.777.095 1.542.217 2.328.21a.39.39 0 0 0 .45-.322c.035-.215-.108-.417-.321-.452-1.911-.673-3.993-.945-6.005-1.065-1.2-.071-2.408-.091-3.597-.016zm81.65-1.385c-4.519.004-9.029.284-13.536.58l-4.962.339-5.893.597c-.974.088-1.967.142-2.939.258-.641.076-1.268.189-1.911.242-.954.078-1.906.142-2.858.258-.622.075-1.224.215-1.847.29-.914.11-1.845.121-2.762.226-1.183.135-2.364.361-3.549.484l-5.026.516c-1.52.176-3.033.421-4.544.661-.468.075-.925.21-1.397.242-.454.032-.911-.041-1.365 0l-2.505.242a.94.94 0 1 0 .193 1.871l2.505-.338c.453-.066.898-.244 1.349-.323.696-.122 1.447-.104 2.151-.177l3.051-.323c1.936-.218 3.857-.593 5.781-.887 1.176-.18 2.37-.258 3.549-.419.912-.125 1.818-.339 2.73-.452.621-.077 1.242-.088 1.863-.162.948-.112 1.882-.262 2.826-.403.637-.095 1.287-.126 1.927-.193.971-.102 1.938-.27 2.906-.387 1.959-.239 3.913-.379 5.877-.565l4.929-.5c3.543-.308 7.092-.493 10.646-.613 4.449-.15 8.887-.149 13.328.194 3.811.293 7.673.68 11.32 1.903 1.086.364 2.105.867 3.147 1.339.122.066.271.026.337-.097s.026-.272-.096-.339c-1.004-.638-2.079-1.082-3.195-1.483-1.715-.617-3.465-1.053-5.251-1.404-5.54-1.088-11.153-1.183-16.78-1.177z"/><path d="M65.381 181.453l-3.34.113-1.67.177-5.829.565-2.168.258-3.982.307-4.095.516-1.766.209-2.328.5-1.172.21-2.248.581-2.762.661-2.617.791c-1.869.621-3.677 1.317-5.443 2.193-.98.486-1.925 1.025-2.794 1.694-.725.558-1.697 1.38-2.071 2.225-.055.083-.033.188.048.243s.186.033.241-.048c.516-.535.9-1.149 1.493-1.614 1.889-1.48 4.095-2.371 6.343-3.145 1.48-.51 2.996-.862 4.512-1.242l3.26-.758 1.14-.146 2.28-.419 2.344-.274 1.734-.339 4.046-.548 2.826-.452c2.408-.294 4.855-.296 7.274-.371l1.815-.064 1.654.048 3.26-.016c.51.002.929-.407.932-.92s-.405-.932-.915-.935z"/><path d="M53.722 178.68c-3.635-.105-7.143 1.18-10.437 2.581-1.602.681-3.187 1.381-4.737 2.177-.302.147-.436.52-.289.823a.62.62 0 0 0 .819.29l4.673-2.242c1.316-.594 2.666-1.104 4.014-1.613 1.873-.707 3.89-1.234 5.909-1.129 1.538.08 2.868.628 4.336 1.032 1.358.374 2.717.698 4.094.984l1.558.323c.236.049.57.189.819.161.163-.018.337-.076.497-.113.08.017.16-.049.177-.129s-.033-.144-.112-.161c-.132-.098-.261-.223-.401-.307-.146-.087-.351-.093-.514-.129-.343-.074-.687-.155-1.028-.241l-3.533-.92c-1.948-.529-3.801-1.328-5.845-1.387zm-26.378 3.968c-.129.015-.209.258-.209.258l.002.401.082.309.125.871.482 1.5.257.742s.002.004.241.742c.044.127.179.189.305.145s.145-.306.145-.306v-.259l-.257-.467-.241-.742-.401-1.484-.128-.742s-.004-.007-.145-.758c-.015-.13-.128-.225-.257-.21zm16.247 7.597c-.288-.065-.573.11-.867.129-.152.01-.313-.023-.466-.016-.475.02-.92.166-1.381.258l-3.436.839-2.537.774-1.012.306c-.167.066-.309.193-.482.242s-.369.013-.546.049c-.505.1-1.008.307-1.509.435-1.127.29-2.263.546-3.42.678-2.194.25-4.275.035-6.118-1.259-.22-.152-.522-.108-.674.113a.49.49 0 0 0 .128.678c2.846 1.957 6.083 1.556 9.265.822l2.039-.548c.172-.049.348-.079.514-.145s.309-.202.482-.258.37-.024.546-.065c.687-.16 1.353-.459 2.023-.677l2.489-.774 2.361-.645c.442-.093.905-.1 1.349-.194.144-.031.288-.095.434-.113.279-.035.564.106.835.032.153-.041.281-.177.417-.258.045 0 .08-.035.08-.081s-.035-.08-.08-.08c-.141-.082-.275-.207-.434-.242z"/><path d="M37.553 191.566c-.145-.014-.278.053-.417.097-.337.106-.511.215-.819.387-.849.477-1.641 1.061-2.392 1.678-1.021.838-2.031 1.763-2.89 2.774-.608.715-1.136 1.495-1.702 2.242-.821 1.083-1.77 2.25-2.168 3.581-.097.325-.171.675-.145 1.016.059.763.598 1.33 1.188 1.742.948.662 2.043.838 3.147.484.163-.092.22-.304.128-.468s-.302-.221-.466-.129c-.34.34-.748.26-1.188.178-.871-.163-1.862-.618-2.184-1.516-.36-1.006.383-2.043.931-2.823.5-.713 1.103-1.361 1.654-2.033l.963-1.274c.993-1.111 2.145-2.128 3.324-3.032a18.61 18.61 0 0 1 1.911-1.291l1.108-.597c.11-.065.235-.098.321-.193.112-.125.174-.29.257-.435.051-.017.065-.078.048-.129s-.061-.082-.112-.065c-.162-.064-.324-.177-.498-.194zm5.105 4.082l-4.769 2.549c-.873.532-1.659 1.172-2.473 1.79-1.131.86-2.261 1.863-3.067 3.049-.361.532-.565 1.123-.819 1.71-.058.106-.025.232.08.29s.247.025.305-.081c.343-.51.733-.95 1.108-1.435.844-1.094 1.757-2.105 2.826-2.984.774-.636 1.64-1.09 2.489-1.613l4.641-2.678c.165-.089.233-.302.145-.468s-.301-.217-.466-.129z"/><path d="M35.161 200.956c-.076-.048-.177-.029-.225.048-1.007 1.392-1.617 3.035-2.087 4.678-.171.597-.404 1.229-.433 1.855-.026.549.014 1.145.048 1.693.032.202.233.339.434.307s.338-.234.305-.436c-.04-.144-.13-.398-.145-.548-.043-.428.092-.851.129-1.274.189-2.162 1.012-4.196 2.023-6.097.048-.077.028-.178-.048-.226z"/><path d="M42.21 203.085c-2.422.341-3.936 2.287-4.705 4.484a15.8 15.8 0 0 0-.61 2.307l-.128.774-.016.097-.273.016a6.12 6.12 0 0 1-.867.032c-.847-.033-1.826-.308-2.216-1.129-.097-.166-.301-.226-.466-.129a.36.36 0 0 0-.129.484c.155.227.311.441.514.629.726.675 1.751.798 2.698.758.257-.011 1.005-.034 1.204-.242.128-.134.164-.558.209-.726l.096-.419.626-2.242c.2-.643.379-1.367.69-1.968.593-1.144 1.757-2.002 2.987-2.322.671-.175 1.326-.132 2.007-.162.051.005.091-.03.096-.08s-.03-.092-.08-.098c-.544-.14-1.081-.142-1.638-.064zm-11.723-9.324c-.181.103-.145.517-.145.517v.132l.064.158.096.274a7.11 7.11 0 0 0 .289.548c.063.092.209.258.209.258l.177.275c.158.212.447.255.658.097s.27-.465.112-.678l-.257-.387-.032-.065-.257-.5-.177-.258s.005-.004-.225-.226a.38.38 0 0 0-.514-.145z"/><path d="M43.976 203.02a.22.22 0 0 0-.305.032c-.136.054-.281.078-.401.161-.33.228-.561.729-.755 1.065a27.48 27.48 0 0 0-1.092 2.145c-.486 1.049-.821 2.14-1.204 3.226-.142.403-.563 1.072-.369 1.533.107.255.486.468.658.677l.771.903c1.205 1.336 2.528 2.769 4.255 3.42.45.169.918.241 1.381.355.231.057.44.128.674.032.577-.235.636-.85.739-1.387.078-.408.151-.825.16-1.242.004-.141-.017-.458-.048-.597-.197-.885-.857-1.56-1.205-2.387-.094-.163-.304-.223-.465-.129s-.223.305-.128.467c.346.464.812.882 1.075 1.404.303.598.294 1.449.177 2.097-.09.496-.458 1.322-1.092 1.306-.611-.015-1.214-.501-1.702-.822-.756-.496-1.429-1.082-2.12-1.662l-1.028-.887c-.375-.351-.777-.755-1.092-1.161-.106-.137-.218-.388-.289-.549l.096-.225c.072-.192.114-.387.177-.581.19-.589.466-1.156.707-1.726l1.558-3.339.658-1.081c.064-.108.138-.218.177-.339.042-.133.045-.264.064-.403.074-.092.059-.232-.032-.306z"/><path d="M49.179 206.23c-.133-.049-.289.027-.337.161l-.674 1.403c-.272.686-.506 1.364-.867 2.017l-.354.661-.096.177s-.009-.006-.129.161c-.061.046-.061.133-.016.194s.193.032.193.032l.101-.08h.107l.209-.097c.075-.036.337-.172.401-.226.204-.169.42-.514.546-.726.378-.637.641-1.397.819-2.113l.096-.419.08-.42.065-.403s-.011-.274-.145-.322z"/><path d="M70.775 202.116c-1.223.708-2.419 1.405-3.758 1.871-1.643.572-3.401 1.012-5.122 1.258-.611.088-1.232.1-1.847.161l-6.696.759-3.934.564c-.146.016-.257.143-.241.29s.159.258.305.242l3.934-.209 3.918-.178c1.594-.13 3.148-.358 4.721-.645l3.597-.774c1.956-.599 3.908-1.492 5.508-2.774.155-.107.186-.312.08-.468s-.31-.203-.465-.097zm-31.727 3.437a.12.12 0 0 0-.161.016c-.038.046-.029.123.016.161l1.012 1.226L40 207l.108.311s.032-.036.305.323a4.75 4.75 0 0 1 .145.21l.228.354h.141s.308.199.466.097.112-.467.112-.467l-.051-.194-.045-.065s-.074-.179-.128-.258c-.11-.159-.261-.287-.385-.435l-.787-.872-.466-.322s-.001-.007-.594-.129zM103.827 77.04c-.115-.04-.254.02-.3.129-.375.765-.611 1.544-.877 2.344l-1.805 6.201-.922 2.498-.589 1.279c-.105.216-.248.416-.334.639-.09.233-.124.478-.191.718.17-.194.357-.366.502-.576.276-.402.448-.864.652-1.301l1.076-2.532.868-2.404 1.252-4.395c.221-.784.519-1.558.785-2.331.046-.108-.001-.227-.117-.267zm5.005-2.236c-.119.037-.198.171-.161.291.516 1.358.876 2.659 1.606 3.935.343.6.762 1.159 1.156 1.726 1.195 1.72 2.523 3.322 3.853 4.936.118.139.328.166.466.048s.15-.328.032-.468l-3.918-4.823c-.582-.817-1.077-1.723-1.541-2.613-.488-.936-.974-1.854-1.221-2.887-.036-.119-.154-.182-.272-.145z"/><path d="M115.754 85.771c-.098.053-.134.176-.081.274l1.221 2.581.353 1.032.562 1.565.337 1.113c.058.189.261.3.45.242s.299-.262.24-.451c-.533-2.215-1.699-4.288-2.81-6.259-.053-.097-.175-.15-.272-.097zm-7.261 2.647c-.047.002-.082.034-.08.081-.17 2.083 1.177 4.018 2.504 5.484l1.076 1.113c.418.356.74.527 1.205.806l-.884-1.129-1.075-1.08c-.674-.731-1.341-1.558-1.815-2.436-.478-.885-.693-1.771-.835-2.758-.001-.047-.049-.082-.096-.081zm5.042-19.47c-.072-.014-.146.025-.161.097-.145.282-.203.591-.353.871-.168.313-.398.636-.61.92-.603.804-1.538 1.498-2.473 1.855-.374.143-.761.156-1.14.258-.084-.008-.153.061-.161.145s.045.154.129.162c.609.268 1.347.023 1.911-.274a6.39 6.39 0 0 0 2.713-2.887c.154-.341.282-.621.257-1 .015-.072-.04-.131-.112-.145z"/><path d="M113.487 69.013L113.5 69l-.302.11-.337.112-.771.291c-.639.207-1.468.429-2.151.323-.047-.007-.939-.335-.939-.335l-.25.335.338.242.192.081c.284.096.539.097.835.097a7.56 7.56 0 0 0 2.538-.435l.401-.162c.115-.056.337-.194.337-.194l.225-.226s.085-.115.048-.177-.177-.049-.177-.049zm-5.234 4.204a.17.17 0 0 0-.225.084c-.476 1.036-1.395 1.621-2.294 2.26l-1.614 1.187c-.194.146-.404.246-.575.42-.163.105-.217.33-.113.493s.329.216.493.111c.544-.214 1.062-.654 1.508-1.014.707-.57 1.341-1.188 1.906-1.893.37-.46.745-.881.996-1.423.04-.085.003-.185-.082-.224z"/><path d="M108.55 73.386a.17.17 0 0 0-.19-.147c-1.13.146-2.114-.324-3.132-.748l-1.862-.74c-.227-.087-.422-.212-.661-.265-.175-.083-.394-.009-.477.165s-.009.394.167.477c.47.348 1.117.554 1.659.742.858.298 1.717.508 2.616.613.586.07 1.141.165 1.734.091.093-.011.158-.096.146-.188zm-3.034-24.697c-1.365-.346-2.163-.155-3.306.502-.288.166-.525.386-.825.529-.137.096-.173.276-.078.413a.29.29 0 0 0 .41.078c.444-.443 1.129-.796 1.686-1.069C103.691 49 104 49 104.5 49l.53.008c1.113.054 1.777 1.293 2.069 2.233.578 1.863.198 3.846.163 5.749-.013.757.1 1.489.219 2.235.179 1.133.534 2.225.732 3.355.035.189.226.309.414.274s.305-.211.271-.4c-.313-1.647-.981-3.241-1.083-4.924-.052-.846.08-1.684.102-2.529.029-1.099-.054-2.222-.354-3.282-.294-1.041-.865-2.73-2.047-3.03zm1.116-23.791c-.063-.051-.142-.031-.193.032s-.046.142.016.194c.986.901 1.668 1.971 2.28 3.162.304.592.594 1.223.803 1.855.152.458.225.942.37 1.403.074.237.184.456.257.694.223.737.325 1.525.497 2.274l.385 1.532.611 3.134.61 3.855.273 2.822C112.5 47 112 48.5 111.626 50.027c.033.568-.195 1.355-.22 1.924.011.315-.094 1.06.22 1.048s.654-.732.642-1.048c.232-1.952 1.491-4.153 1.285-6.193l-.37-2.839-.497-3.92-.675-3.166-.353-1.581c-.215-.763-.526-1.491-.771-2.242l-.225-.726c-.246-.68-.603-1.34-.899-2-.729-1.625-1.663-3.316-3.131-4.387z"/><path d="M111.324 53.003c-.25-.029-.485.152-.513.403l-.306 2a12.43 12.43 0 0 1-.883 2.629c-.282.598-.695 1.28-1.381 1.451-.122-.008-.233.087-.24.21s.085.234.208.242c.924.312 1.694-.352 2.168-1.113.605-.972.82-2.119 1.028-3.226l.321-2.097a.45.45 0 0 0-.402-.5z"/><path d="M109.878 58.631c-.095-.081-.241-.062-.321.032s-.063.243.031.323c.233.545.559.819.916 1.274.249.319.48.655.691 1 .889 1.461 1.481 3.125 1.782 4.807.118.66.202 1.297.176 1.968.005.188.15.343.337.339a.35.35 0 0 0 .338-.355l-.177-2.065c-.257-1.797-.765-3.582-1.67-5.162-.359-.628-.795-1.284-1.333-1.775-.106-.097-.208-.194-.337-.258-.135-.067-.287-.089-.433-.129zm-.598-19.781c-.022.002-.034.01-.032.032.091 1.496.083 2.987.016 4.484-.048 1.084-.147 2.164-.385 3.226-.215.959-.471 1.853-1.188 2.548a.34.34 0 0 0 .112.468c.159.099.367.048.466-.112.354-1.102.815-2.132 1.044-3.274.489-2.445.351-4.883.016-7.339-.002-.022-.027-.035-.049-.032zM85.307 12.953c-.333.004-.666-.017-.996.032-.341.051-.662.186-.995.274-.144.01-.251.13-.241.274s.13.252.273.242l1.012.113c.321.014.642-.027.963-.032l1.863.048c1.741.107 3.483.426 5.138.984 3.067 1.034 5.785 2.894 8.189 5.033.889.791 1.904 1.589 2.601 2.565.774 1.082 1.326 2.324 1.831 3.549l1.493 4.162c.441 1.402 1.024 2.814 1.221 4.274a.33.33 0 0 0 .417.226c.179-.055.279-.255.225-.435-.557-1.137-.821-2.393-1.205-3.597l-1.043-3.065c-.561-1.601-1.135-3.23-1.975-4.71-.457-.805-1.003-1.459-1.622-2.145a25.29 25.29 0 0 0-2.088-2.081c-3.481-3.058-7.567-5.048-12.187-5.565-.952-.106-1.917-.156-2.874-.145zM55.5 69a.43.43 0 0 0-.225.565C58.188 76.14 60.202 82.214 64.5 88c.892 1.201 3.85 3.64 6.5 6 2.528 1.772 6.463 3.135 9.599 3.001 1.707-.073 3.423-.671 4.913-1.484.9-.49 1.691-1.023 2.376-1.79.079-.062.093-.179.032-.258s-.178-.094-.257-.032c-1.013.528-1.925 1.226-2.954 1.726-1.449.703-2.987 1.074-4.593 1.145-4.501.2-8.914-2.773-12.174-5.499-2.735-2.745-3.745-3.595-5.777-6.888-2.833-4.593-4.067-9.695-6.105-14.695-.093-.218-.345-.32-.562-.226zm42.813 24.112c-.163-.047-.322.046-.37.21-.623 1.712-.975 3.493-1.14 5.307-.422 4.631.686 9.306 4.271 12.485.258.228.546.417.819.629.584.453 1.138.907 1.782 1.274.07.046.163.022.209-.049s.022-.163-.049-.209c-.571-.425-1.198-.802-1.734-1.274-.251-.223-.471-.47-.706-.71-.338-.344-.675-.672-.98-1.049-2.529-3.124-3.327-7.086-2.906-11.032.188-1.765.649-3.478 1.012-5.21.047-.164-.046-.324-.209-.371zm-8.655 5.677c-.096.014-.175.098-.161.194-.095 2.208 1.134 4.532 2.345 6.29 2.025 2.942 4.927 5.408 8.205 6.823 1.155.499 2.369.838 3.597 1.097.032.01.054 0 .064-.032s0-.071-.032-.081c-4.508-1.983-9.146-4.487-11.77-8.855a14.21 14.21 0 0 1-1.075-2.194c-.391-1.014-.619-2.073-.98-3.097-.014-.096-.097-.16-.192-.145z"/><path d="M62.179 85.19c-.187-.011-.356.112-.369.268-.051.987.034 1.775.149 2.761l.289 1.932c.029.16.091.321.096.483s-.043.332-.064.496c.018.156.183.27.369.255s.324-.153.305-.309c-.06-.158-.143-.32-.177-.483s-.005-.321-.016-.483l-.097-.966-.16-2.871c.012-.323-.044-.455-.005-.776.013-.156-.134-.297-.321-.309z"/><path d="M62.596 91.63c.126-.138.169-.323.093-.404-.499-.485-.995-.965-1.6-1.322l-1.227-.652c-.105-.05-.231-.075-.322-.145s-.151-.183-.226-.273c-.096-.056-.263.018-.375.168s-.126.317-.03.373c.123.026.264.035.374.083s.176.141.27.206l.582.363c.567.359 1.162.718 1.649 1.175.166.155.29.36.438.535.076.081.247.032.373-.106z"/><path d="M58.972 88.676c-.124-.03-.243.053-.273.178-.279.447-.428.978-.723 1.419-.47.701-1.018 1.333-1.67 1.871-.482.397-1.026.721-1.573 1.016-.334.18-.657.309-.883.613-.075.033-.113.134-.08.21s.117.097.193.064c.099.009.207.05.305.032.092-.017.156-.089.241-.129.576-.27 1.071-.624 1.574-1.016.88-.689 1.717-1.41 2.392-2.307.37-.491.707-1.041.674-1.677.03-.124-.052-.244-.176-.274z"/><path d="M49.436 68.706c-.044-.007-.089.02-.096.065-.124.142-.276.27-.369.435-.135.24-.192.58-.289.839l-.546 1.323c-.248.638-.491 1.282-.642 1.952-.444 1.97-.218 4.14 1.156 5.694.645.729 1.539 1.105 2.345 1.613.754.476 1.379 1.139 1.862 1.887.855 1.323 1.152 2.941 1.317 4.484.123 1.153.14 2.326.096 3.484-.042 1.114-.052 2.336-.449 3.387-.021.127.066.255.192.275s.237-.067.257-.194c-.045-.995.169-1.992.241-2.984.194-2.679.246-5.586-.931-8.065-.383-.806-.847-1.553-1.51-2.161-.957-.879-2.314-1.306-3.099-2.371-.349-.473-.509-1.082-.658-1.645-.434-1.635.087-3.508.61-5.065l.45-1.355c.093-.268.282-.631.289-.919.005-.177-.101-.42-.161-.581.008-.044-.02-.089-.064-.097z"/><path d="M53.707 65.708c-.14-.126-.341-.108-.466.032-.052.159-.071.343-.16.484-.081.128-.223.192-.337.29-.229.199-.479.385-.723.565l-1.975 1.339c-1.544.872-3.171 1.597-4.785 2.323l-4.223 1.968c-.204.099-.29.344-.193.549a.41.41 0 0 0 .546.194l5.395-2.613 3.099-1.646c.842-.522 1.72-1.055 2.441-1.742l.658-.678c.104-.116.181-.277.305-.371.135-.102.297-.138.45-.21.125-.141.108-.359-.032-.484z"/><path d="M43.366 62.19c-.138-.039-.267.039-.305.177-.339 1.238-.543 2.454-.578 3.742-.038 1.398.103 2.587-.273 3.952-.162.59-.407 1.599-.819 2.081-.167.195-.221.2-.45.323-.109.153-.072.374.08.484a.33.33 0 0 0 .466-.081c.124-.719.631-1.179.931-1.823.246-.527.387-1.091.482-1.661.224-1.352.174-2.75.209-4.113.024-.924.199-1.872.45-2.758.038-.138-.055-.284-.193-.322z"/><path d="M43.189 62.174l-.27.064-.418.215v.047l-1 .453s-.292.208-.769.383c-.196.072-.403.109-.594.194-.179.08-.514.162-.514.162s.378-.207-.337.096c-.101.043-.286.213-.286.213l-.115.126s-.277.231-.225.403.401.226.401.226l.225.049h.321l.321-.113.755-.258c.623-.266 1.287-.612 1.847-.984l.353-.258c.109-.092.305-.291.305-.291s.006-.009.273-.323c.105-.086.118-.233.032-.339s-.305-.065-.305-.065z"/><path d="M49.837 34.301a.34.34 0 0 0-.369.306l.08.5c.014.381-.116.78-.209 1.145-.175.689-.407 1.368-.658 2.032l-2.12 5.371-2.36 5.759c-.221.618-.374 1.258-.562 1.887l-1.06 3.129-2.649 6.743-1.301 3.161c-.083.19.003.416.193.5a.38.38 0 0 0 .498-.193c.656-1.198 1.086-2.535 1.622-3.791 1.299-3.045 2.376-6.182 3.372-9.339l.498-1.71.899-2.355 2.649-6.694 1.06-3.403.722-2.678a.34.34 0 0 0-.305-.371z"/><path d="M43.784 46.784c-.19.019-.305.371-.305.371l.022.344.123.527.16.855a58.82 58.82 0 0 0 .257.839c.013.078.1.127.177.113s.126-.084.112-.161l-.048-.871a.82.82 0 0 1-.016-.113l-.08-.742-.032-.855s-.179-.326-.369-.307zm19.122-32.38c-6.559 2.783-12.272 7.781-15.72 14.065-1.142 2.082-2.03 4.325-2.665 6.613-1.012 3.649-1.22 7.409-1.22 11.178 0 .132.109.226.241.226s.24-.094.241-.226c.044-6.748 1.678-13.578 5.427-19.243 1.123-1.697 2.473-3.252 3.918-4.678 1.526-1.505 3.207-2.834 4.946-4.081.688-.494 1.372-.997 2.087-1.452l3.019-1.887c.143-.075.187-.259.112-.403s-.242-.188-.385-.113zm5.652-1.386c-3.085 1.821-4.864 5.376-5.845 8.71-.167.567-.38 1.353-.482 1.936-.228 1.303-.304 2.65-.401 3.968-.093 1.268-.231 2.551-.209 3.823.011.607.156 1.203.224 1.807.033.286.02.583.032.871.005.134.123.23.257.226s.23-.108.225-.242c-.007-.287-.033-.585-.016-.871.037-.598.174-1.175.193-1.774.03-.934-.011-1.873.048-2.807.102-1.613.424-3.192.803-4.758.554-2.288 1.18-4.53 2.393-6.565.457-.767.971-1.52 1.557-2.194.496-.57 1.065-1.087 1.606-1.613.141-.107.171-.31.064-.452a.32.32 0 0 0-.45-.065z"/><path d="M75.351.001c-1.518-.011-3.023.112-4.496.5a6.97 6.97 0 0 0-1.574.613c-.901.486-1.674 1.104-2.649 1.452-2.055.731-4.377.347-6.343 1.403-1.162.624-2.222 1.484-3.163 2.403-2.332 2.278-3.733 5.298-2.826 8.565.16.576.38 1.15.691 1.661.349.575.685 1.113 1.172 1.581.119.145.337.168.482.048s.151-.339.032-.484l-.819-1.226a7.18 7.18 0 0 1-.867-2.387c-.498-3.053 1.584-6.111 3.821-7.92.614-.496 1.262-.948 1.975-1.29 1.934-.927 4.21-.554 6.23-1.194.896-.284 1.619-.797 2.441-1.226 1.029-.538 2.262-.827 3.404-.968a17.85 17.85 0 0 1 3.79-.048c2.226.2 4.557.724 6.535 1.807 1.44.788 2.679 1.917 3.87 3.032l3.501 3.565c1.558 1.744 3.156 3.465 4.431 5.436.24.372.738.467 1.108.226a.79.79 0 0 0 .241-1.097c-.717-1.117-1.528-2.196-2.361-3.226l-.963-1.274c-.532-.663-1.137-1.285-1.718-1.903l-2.425-2.452c-1.463-1.4-3.092-2.871-4.93-3.774C81.324.536 78.245.021 75.351.001zm-22.045 65.69c-.156.105-.201.311-.097.468.002-.014.024.021.032.032l.081.113c.08.111.069.118.144.242.134.221.256.425.321.678.202.784.081 1.68-.337 2.371-.143.236-.327.445-.45.694-.047.094-.118.395-.113.291 0 0-.003.003-.161.29-.051.048-.064.125-.016.178s.141.064.193.016l.61-.307c.867-.605 1.278-2.304 1.028-3.29-.136-.535-.486-1.208-.771-1.694-.104-.156-.31-.185-.465-.081z"/><path d="M61.573 62.206c-.041-.011-.069.007-.08.048-.44.954-.792 1.886-1.445 2.726-2.024 2.605-4.926 4.233-7.627 6.016-.156.098-.21.311-.113.468s.31.195.465.097c1.876-1.116 3.743-2.321 5.379-3.775.71-.631 1.393-1.313 1.959-2.081.737-1 1.42-2.146 1.525-3.404.011-.041-.024-.086-.064-.096zm34.107.161c-.041-.008-.088.024-.096.065l-.706 2.549c-.169.564-.416 1.101-.594 1.661l-.739 2.436a23.69 23.69 0 0 1-1.702 3.662c-.766 1.343-1.719 2.555-2.682 3.758l-2.698 3.291c-.067.081-.065.207.016.274s.206.05.273-.032c1.161-1.448 2.521-2.722 3.709-4.145a22.93 22.93 0 0 0 1.59-2.178c.995-1.527 1.656-3.148 2.264-4.855l.674-2c.144-.578.194-1.174.305-1.758l.434-2.629c.008-.041-.007-.088-.048-.097z"/><path d="M82.786 69.416l.53.613c.279.358.422.773.642 1.161.234.414.572.756.819 1.161.35.578.54 1.236.754 1.871.321.949.634 1.88.803 2.871a11.37 11.37 0 0 1 .16 1.823c.002.141.038.283 0 .419-.04.145-.149.257-.224.387-.02.183.106.352.289.371s.35-.107.369-.291c-.046-.146-.112-.299-.128-.451-.033-.297.039-.589.032-.887a11.48 11.48 0 0 0-.128-1.435c-.154-1.003-.385-2.028-.771-2.968-.196-.476-.45-.925-.675-1.387-.281-.577-.484-1.264-.883-1.775-.191-.244-.434-.431-.658-.645l-.932-.838zm10.712-25.548c-.04.014-.062.056-.048.096l.819 2.516c1.16 4.109 1.759 8.478 1.349 12.743-.005.039.025.075.064.081s.075-.025.08-.064c.229-1.303.433-2.625.434-3.952.004-3.933-1.243-7.73-2.601-11.371-.014-.04-.056-.062-.097-.048zM69.667 93.725c-.103-.035-.206.025-.241.129-.697 1.579-1.864 3.055-3.372 3.92-.669.384-1.377.632-2.104.871-.124.041-.226.117-.353.145-.365.08-.819.023-1.188 0-.183.005-.326.154-.321.339s.17.327.353.323l1.22-.194c.139-.016.278 0 .417-.016.395-.047.831-.175 1.204-.307 1.755-.62 3.43-2.022 4.175-3.758.165-.385.24-.788.337-1.194.035-.104-.025-.223-.128-.258zm-.705 12.034c-.102-.011-.198.074-.209.177a.17.17 0 0 0 .16.193l4.287.759 2.971.726c3.4.97 7.206 2.419 9.57 5.177.38.444.764.863 1.06 1.371.432.742.665 1.542.867 2.371.014.087.091.143.177.13s.143-.091.128-.178c-.111-1.231-.611-2.286-1.285-3.307-.204-.31-.293-.467-.546-.742-.655-.713-1.409-1.304-2.2-1.854-3.136-2.185-6.93-3.408-10.63-4.211-1.453-.315-2.869-.549-4.352-.612zm30.443 5.498c-.083-.054-.204-.035-.257.048l-.963 2.21c-.266.618.509-1.249.723-1.887.043-.128-.144.22-.209.339a10.14 10.14 0 0 0-.337.725l-.626 1.501-.289.757c.588-1.205.012-.001-.209.759-.052.201.056.415.257.467s.413-.073.465-.274l.738-2.209c.157-.493-.3 1.016-.578 1.451-.141.221.106-.517.161-.774.145-.68.327-1.238.626-1.855l.176-.339c.06-.112.23-.46.193-.338-.414 1.36-.003.005.177-.339.053-.084.035-.188-.048-.242zm18.353-10.5c-.187.21-.346.45-.562.629-.208.173-.471.287-.707.42l-1.429.774-3.709 1.774c-3.76 1.746-7.609 3.375-11.159 5.533-.106.059-.14.184-.081.29s.199.14.305.08c1.953-1.019 3.834-2.14 5.829-3.08 2.005-.945 4.05-1.788 6.037-2.774 1.227-.61 2.452-1.266 3.629-1.969.469-.279.9-.646 1.397-.87.257-.116.534-.16.803-.242.155-.099.195-.313.096-.468a.32.32 0 0 0-.449-.097zM80.363 88.095a24.81 24.81 0 0 0-6.311.661c-1.237.297-2.79.745-3.42 1.968-.141.188-.107.455.08.597s.453.092.594-.096c.996-.875 2.284-1.34 3.549-1.662 1.792-.456 3.666-.571 5.508-.645 1.064-.043 2.081-.141 3.131.097a.33.33 0 0 0 .369-.29c.024-.183-.107-.347-.289-.371l-3.212-.258zM63.872 60.044c-.478.034-.949.153-1.381.307a.8.8 0 0 0-.658.919c.071.437.48.733.915.662l2.441.371c.657.097-1.312-.186-1.959-.339-.135-.032.264-.031.401-.016s.278.073.418.096c.692.119 1.407.035 2.104.113.383.043.432.056.771.226.111.056.444.208.321.194-1.504-.164-.004-.006.37.096.13.096.322.067.418-.064s.066-.307-.064-.403c-.078-.116-.143-.257-.241-.355-.206-.209-.487-.308-.722-.484-.557-.415-1.07-.88-1.734-1.129a3.32 3.32 0 0 0-1.397-.194zm6.776 12.292c-.18.039-.295.223-.257.403.351 1.351.33 2.766.032 4.129-.318 1.455-.832 2.655-.434 4.162.273 1.03 1.173 1.668 1.991 2.242.173.121.41.34.626.387.397.088.622-.064.996-.194.039.019.078.007.096-.032s.007-.094-.032-.113c-.116-.33-.161-.634-.417-.887-.213-.21-.585-.287-.835-.452-.549-.36-1.171-.852-1.429-1.484s-.092-1.434 0-2.081l.193-1.419c.18-1.532.113-2.881-.144-4.403-.038-.18-.206-.297-.385-.258zm6.726 18.355c-.699-.071-1.413.116-2.087.275-.572.134-1.115.22-1.654.451-.248.08-.384.348-.305.597s.594.306.594.306l.45-.097.192-.065.931-.274 2.151-.387c.218-.033.396.003.611.016.055.003.106.001.16 0h.145l.144.049s.183.041.241-.032.041-.183-.032-.242c-.377-.532-.939-.535-1.541-.597zm-18.22-24.077a.49.49 0 0 0-.427.091c-.265.2-.226.628-.226.628l-.001.403.204.295.73.753.689.766c.047.052.088.103.142.143s.186.091.186.091l.186.091s.344.112.459-.052-.043-.546-.043-.546l-.01-.334v-.403l-.34-.403-.34-.403-.13-.108-.73-.714c-.084-.157-.208-.261-.35-.299zm18.993-1.716a.45.45 0 0 0-.562.306l-.113.645-.064.403c-.014.096-.033.165-.032.161.069-.403.001-.002-.016.097-.048.109.004.242.112.291s.241-.004.289-.113c.347-.61.183-.286.338-.613.085-.182-.184.352-.273.532-.013.026.03-.042.048-.064l.097-.113a1.35 1.35 0 0 0 .257-.403c.027-.067.122-.268.08-.21-.198.278.001.002.144-.355.072-.24-.066-.492-.305-.564zm-15.655 3.928c0-1.237 1.079-2.248 2.185-2.248s1.948.453 1.948 1.69-.512 1.151-1.619 1.151-2.514.645-2.514-.593z"/><path d="M59.713 64.399a.85.85 0 0 0-.08 1.565c1.189.502 2.469.621 3.741.71l2.602.21c1.175.107 2.493.646 2.762 1.92a.33.33 0 0 0 .401.242c.178-.043.284-.224.241-.403-.108-.413-.235-.807-.482-1.161-.557-.799-1.514-1.165-2.392-1.484-.545-.198-1.096-.362-1.67-.451-1.518-.237-3.127-.281-4.48-1.113a.83.83 0 0 0-.642-.032zm78.341 436.364c-.098-.029-.195.032-.225.129-.588 1.417-.957 2.883-1.252 4.39-.599 3.051-.743 6.153-.755 9.255-.01 2.751.012 5.569.546 8.274a.55.55 0 0 0 .61.47.54.54 0 0 0 .466-.599l-.514-5.42c-.15-1.517-.221-3.05-.209-4.578.023-2.731.247-5.471.723-8.163l.738-3.516a.2.2 0 0 0-.128-.242z"/><path d="M136.626 522.75a.33.33 0 0 0-.466.083c-.106.149-.069.356.081.464l2.585 1.874a33.66 33.66 0 0 1 6.904 7.515l1.317 2.096.867 1.517 3.211 6.999c1.309 2.56 2.97 4.945 5.107 6.87 2.305 2.08 5.134 3.345 7.98 4.486a41.49 41.49 0 0 0 4.126 1.419 41.96 41.96 0 0 0 3.373.805c5.805 1.146 13.398.904 17.534-4.015.755-.899 1.39-1.915 1.911-2.968.727-1.466 1.15-3.066 1.413-4.677.065-.407-.206-.789-.61-.857a.76.76 0 0 0-.851.63c-.251 1.616-.667 3.159-1.381 4.63-.504 1.043-1.198 1.956-2.023 2.756-3.72 3.624-9.244 4.026-14.131 3.407-1.094-.139-2.168-.32-3.243-.568a41.07 41.07 0 0 1-4.063-1.177c-1.342-.454-2.615-1.001-3.901-1.595-2.218-1.027-4.294-2.265-6.054-3.984-2.172-2.116-3.821-4.702-5.154-7.417-.836-1.704-1.599-3.443-2.425-5.147-.389-.805-.694-1.636-1.156-2.405-.44-.728-.982-1.43-1.509-2.095-1.641-2.075-3.487-3.99-5.524-5.678-1.259-1.043-2.597-2.008-3.918-2.968z"/><path d="M136.64 518.619c-.125-.036-.253.036-.289.16s.036.253.161.289c.528.304 1.051.573 1.621.789.34.13.708.171 1.028.341.215.114.388.3.578.454l1.156.919.594.449c.209.155.45.279.642.454.393.351.677.8 1.028 1.193l2.232 2.467c.4.526.538.939.883 1.502l1.462 2.256 1.349 2.389 3.741 6.416c1.927 3.211 4.019 6.442 6.856 8.925 2.679 2.338 6.026 3.484 9.378 4.48 2.512.753 5.079 1.29 7.691 1.517 2.286.202 4.738.171 6.92-.645 1.913-.712 3.772-1.853 5.187-3.339 1.616-1.698 2.666-4.104 2.97-6.416.28-2.137.045-4.289-.513-6.359-.343-1.27-.836-2.519-1.494-3.66-.145-.253-.276-.495-.449-.728-.184-.242-.408-.464-.611-.691-.008-.021-.03-.026-.047-.016s-.025.031-.016.047c.403 2.044 1.228 3.964 1.67 6.003.481 2.214.492 4.495-.097 6.694-.351 1.306-.992 2.514-1.847 3.562-.878 1.078-1.861 2.044-3.05 2.777-4.434 2.715-10.447 1.997-15.191.722a30.48 30.48 0 0 1-3.355-1.094c-1.385-.547-2.846-1.048-4.127-1.822-3.008-1.822-5.23-4.506-7.21-7.376-1.913-2.767-3.502-5.729-5.234-8.61-.635-1.058-1.315-2.09-1.976-3.127-.479-.759-.929-1.544-1.46-2.261-.349-.475-.785-.893-1.125-1.373-.167-.232-.29-.501-.449-.738-.458-.697-.976-1.394-1.542-2.003-.369-.397-.822-.712-1.204-1.094-.189-.191-.328-.423-.514-.614-.363-.377-.769-.713-1.204-1.002-.427-.284-.942-.428-1.381-.691-.328-.202-.594-.501-.931-.682-.595-.315-1.168-.433-1.831-.464z"/><path d="M164.051 530.748c-.249.041-.412.284-.369.532.352 1.295.176 2.653-.097 3.954-.516 2.451-1.655 4.81-3.035 6.885-.345.521-.732 1.017-1.123 1.502-.351.434-.682.81-1.156 1.11-.082.072-.088.196-.016.273.071.083.191.088.272.021l1.911-2.163c1.261-1.698 2.252-3.556 3.067-5.502.514-1.228.943-2.555 1.092-3.887.088-.789.05-1.569-.016-2.353-.043-.253-.282-.418-.53-.372zm16.538-3.178a.44.44 0 0 0-.049.614l.546.728c.209.263.392.583.659.79.237.181.546.217.819.335l.755.357c1.98.738 4.434.598 5.571 2.725.041.067.126.093.193.051s.089-.129.048-.196c-.711-1.027-1.402-1.827-2.585-2.338-.718-.31-1.503-.485-2.248-.712-.235-.067-.482-.124-.707-.222s-.43-.238-.642-.372c-.195-.124-.408-.248-.578-.402-.204-.191-.361-.424-.546-.63l-.626-.676a.43.43 0 0 0-.61-.052zm-12.066-20.002s-.748-.403-1.036-.449c-.21-.036-.418.067-.626.113l-1.22.305-3.003.903-3.163.743c-1.891.481-3.77 1.219-5.363 2.37-1.372.996-2.892 2.529-2.971 4.341-.026.603.142 1.548.787 1.806.727.284 1.46-.341 2.071-.63 1.242-.583 2.56-1.078 3.854-1.533l5.315-1.92 5.203-2.018.722-.351c.306-.16.59-.351.883-.532.168-.108.353-.18.514-.294.429-.299.53-1.383.53-1.383l-.386-.568h-.4l-.772.067-.192.089.23.374.059.235-.059.265-.407.408s-.271.09-.578.255c-1.034.568-2.121.991-3.195 1.471l-8.752 3.469c-1.091.439-2.177.934-3.211 1.497-.383.211-.864.707-1.268.309-.332-.33-.036-1.306.096-1.662.6-1.646 2.027-2.869 3.484-3.742 1.242-.748 2.598-1.28 3.982-1.693l2.521-.697 2.393-.82 2.392-.646c.202-.041.44-.232.61-.113.789.542.004 0 .643.031.081-.01.313 0 .313 0zm5.405 7.098c-.229.036-.47.109-.594.129l-3.019.568-4.223.996c-.964.263-1.903.604-2.842.94-1.84.655-3.661 1.347-5.379 2.286l-1.076.63c-1.363.882-3.399 2.57-2.28 4.403.108.18.233.361.401.485.312.232.756.232 1.124.196.91-.093 1.831-.49 2.682-.81l.546-.207.594-.242 1.236-.47 1.349-.48 5.652-2.003 6.021-1.61 1.044-.279c.817-.227 2.515-.676 2.457-1.786-.024-.454-.393-.95-.787-1.166-.065-.031-.135-.047-.208-.062-.087-.016-.257-.016-.257-.016l-.274.016-.481.144.144.454a1.78 1.78 0 0 0 .113.258c.125.207.038.166.193.32.038.042.083.078.128.114-.059.036-.104.088-.145.114-.38.211-.81.33-1.22.464-1.587.527-3.239.852-4.849 1.291-2.467.681-4.848 1.563-7.226 2.503l-3.228 1.337-3.163 1.017c-.226.056-.44.113-.674.129-.063.005-.151-.052-.193-.016-.152-.201-.299-.387-.337-.645-.079-.527.166-.991.498-1.389.971-1.151 2.429-1.899 3.757-2.544 2.054-1.002 4.2-1.75 6.391-2.375l5.171-1.321 2.809-.547.546-.067.225-.098.177-.078.128-.144s-.227-.305-.369-.408c-.113-.077-.334-.067-.562-.031z"/><path d="M176.367 522.118c-3.284.196-6.631.686-9.634 2.111-.478.227-.92.511-1.366.79-.199.129-.428.206-.578.392-.077.093-.16.336-.16.336l-.016.438.176.047h.241l.321-.067.514-.351c.203-.129.41-.222.627-.326 1.272-.603 2.559-1.104 3.918-1.481 1.656-.464 3.355-.795 5.074-.903.445-.031.887 0 1.332.015 1.222.036 2.504.103 3.645.594.253.108.516.242.739.408.212.154.163.16.337.351.157.175.284.32.401.516-.063.098-.187.18-.272.227l-.257.129-.337.129-.835.274-1.028.273-1.814.454c-1.427.32-2.882.718-4.256 1.224-.991.366-1.955.836-2.922 1.259-.315.139-.961.279-1.365.403-.806.253-1.618.438-2.441.629l-1.622.356-1.22.176c-.792.134-1.651.274-2.457.243a3.46 3.46 0 0 1-.722-.114c-.06-.015-.116-.057-.177-.046-.181.02-.405.289-.61.129-.215-.171.003-.568.096-.728.322-.547.683-1.022 1.125-1.482l.176-.196.193-.191s.106-.325 0-.454c-.233.052-.486.088-.675.176-.172.087-.495.604-.626.774-.376.495-.786 1.079-.578 1.729.055.17.167.258.257.403.136.216.132.542.353.707.182.139.638.139.851.149.707.026 1.45.031 2.152-.067.692-.098 1.347-.263 2.023-.433l3.131-.826 2.216-.63c.565-.191 1.078-.506 1.638-.722a44.83 44.83 0 0 1 4.303-1.389l1.959-.563 2.232-.567c.681-.191 1.545-.367 2.104-.852.802-.702-.191-1.776-.787-2.209-1.48-1.084-3.598-1.352-5.379-1.244zm-15.768 1.467c-.196.093-.193.537-.193.537l.095.378.066.246.369.568c.244.356.539.655.819.981l.385.5c-.561-.903-.002.005.241.584.092.16.307.201.466.113s.112-.454.112-.454L162.5 526l-.5-.686-.261-.501-.257-.531s-.008 0-.369-.501a.39.39 0 0 0-.514-.196z"/><use xlink:href="#H"/><path d="M169.193 511.034c-.197.093-.193.537-.193.537l.095.378.066.246.369.568a21.85 21.85 0 0 0 1.085 1.408c.136.16.495.682.385.501-.562-.903-.002.005.241.583.091.16.307.202.466.114s.112-.454.112-.454l-.459-1.038-.766-1.114-.261-.501-.257-.531s-.008 0-.369-.501a.39.39 0 0 0-.514-.196zm5 8c-.197.093-.193.537-.193.537l.095.378.066.246.369.568c.244.356.538.656.819.981.136.16.495.681.385.501-.561-.904-.002.005.241.583.092.16.307.201.466.113s.112-.454.112-.454l-.459-1.038-.5-.686-.261-.501-.257-.531s-.008 0-.369-.501a.39.39 0 0 0-.514-.196zm-23.131-10.433c-.135.098-.081.418-.081.418l.081.273.209.393.321.625.835 1.166.572.524.407.524c.03.052.093.077.145.047s.078-.093.048-.145l-.048-.514-.048-.245-.338-.645c-.231-.459-.392-.862-.69-1.29-.14-.202-.466-.563-.466-.563l-.53-.501s-.283-.16-.417-.067zm13.118-14.451c-.06.022-.087.086-.065.146-.017.193-.094.391-.048.58.042.176.231.287.305.452s.078.344.129.516l.802 2.581 1.381 4.71c.287 1.214.419 2.478.867 3.644.079.31.384.501.691.419a.57.57 0 0 0 .418-.692c-.167-1.265-.678-2.412-1.076-3.613l-1.767-5.226-.787-2.016c-.07-.166-.176-.312-.224-.485s.017-.386-.065-.548c-.087-.174-.263-.266-.401-.403-.022-.06-.101-.087-.16-.065z"/><path d="M169.205 505.745c-.082.051-.114.16-.064.242.177.609.42 1.167.754 1.709.111.18.26.335.369.516.225.371.374.79.595 1.161.337.573.74 1.11 1.108 1.662l2.36 3.402c2.979 4.201 6.099 8.32 9.522 12.166 1 1.125 2.039 2.209 3.067 3.303.543.583 1.074 1.172 1.686 1.677.041.047.101.042.144 0s.057-.098.016-.144c-.459-.645-1.023-1.218-1.541-1.822-.689-.8-1.328-1.626-1.991-2.452-2.753-3.417-5.507-6.87-8.109-10.406-1.637-2.219-3.22-4.49-4.705-6.818-.21-.33-.482-.795-.706-1.115-.248-.351-.566-.655-.803-1.017-.115-.175-.178-.387-.289-.562-.334-.537-.722-1.017-1.172-1.451-.05-.082-.159-.098-.241-.051zm-82.599-36.244c-.022-.014-.05-.005-.064.017s-.005.049.016.064c.322.336.65.713.916 1.097.187.27.31.575.449.871.699 1.48 1.078 3.05 1.349 4.661.26 1.55.354 3.113.449 4.678l.322 7.001c.033.277.285.484.562.451s.483-.287.45-.564c-.43-2.281-.439-4.632-.658-6.936-.206-2.159-.467-4.375-.979-6.484-.305-1.255-.675-2.569-1.429-3.63-.244-.342-.497-.73-.851-.968-.164-.11-.349-.181-.53-.258z"/><path d="M90.703 487.181c-.361-.087-.717.137-.803.5-.853 3.115-2.698 5.731-3.698 8.804l-1.22 3.404-1.718 4.629c-.882 2.082-.718 4.66-1.697 6.699-2.304 4.79-4.87 9.626-8.671 13.399-2.48 2.468-5.341 4.414-8.397 6.081-2.546 1.393-5.227 2.534-8.061 3.179-1.73.393-3.665.728-5.427.341-1.228-.268-2.402-.883-3.372-1.678-2.023-1.662-3.369-4.113-4.287-6.534-.25-.661-.383-1.327-.578-1.998-.126-.438-.321-.851-.514-1.259-.035.227-.099.444-.112.676-.053.94.311 1.905.578 2.793a15.47 15.47 0 0 0 1.156 2.787c.595 1.12 1.317 2.173 2.2 3.081 1.588 1.637 3.644 2.824 5.925 3.097 1.52.186 3.15-.041 4.641-.335 2.927-.584 5.786-1.652 8.446-3.004 1.073-.542 2.108-1.162 3.115-1.822 2.317-1.513 4.543-3.242 6.439-5.276 2.52-2.699 4.505-5.848 6.278-9.079 2.576-4.166 2.278-7.677 3.576-11.166.579-1.554 1.206-2.591 1.75-4.16.303-.872 1.25-2.34 1.25-2.34l1.5-4s1.269-2.43 1.654-3.819c.202-.727.393-1.456.546-2.194a.67.67 0 0 0-.498-.806zm-1.012-2.371c-.173-.062-.356.036-.417.209.018.204.072.411.048.613-.048.396-.262.746-.417 1.113l-1.06 2.484c-.079.231-.118.477-.193.71-.234.733-.546 1.442-.819 2.161l-2.333 5.4-1.55 3.661-.45.839-.738 1.791-.969 3.368-1.036 2.209-1.044 1.693L76.5 514.5c-2.026 3.272-4.412 6.276-7.17 8.97-2.379 2.328-5.226 4.254-8.254 5.616a24.04 24.04 0 0 1-2.633 1.002 25.77 25.77 0 0 1-1.751.485c-1.856.418-3.84.629-5.732.335-.608-.093-1.2-.232-1.75-.516-1.553-.805-2.55-2.405-3.484-3.825-.507-.764-.978-1.579-1.542-2.302-.388-.5-.83-.965-1.236-1.455-.056-.067-.154-.088-.225-.031s-.088.155-.032.227c1.099 1.507 2.043 3.133 3.019 4.728.734 1.192 1.53 2.483 2.746 3.241 1.197.744 2.651.929 4.03 1.033 3.777.273 7.556-1.089 10.822-2.891 4.479-2.462 8.021-6.204 10.999-10.323 1.171-1.616 2.627-3.111 3.692-4.794.537-.852 1.035-1.607 1.5-2.5.309-.599 1.207-1.896 1.5-2.5.58-1.192.5-1.5.5-1.5l.775-3.467.851-1.759s.189-.604.305-.903C83.771 500.497 85 498 85 498s1.541-3.545 2.314-5.722c.258-.727.47-1.477.755-2.194.09-.227.22-.432.305-.661.312-.842.477-1.735.722-2.597.109-.384.157-.808.369-1.146.108-.172.292-.289.434-.435.062-.174-.036-.373-.209-.435z"/><path d="M64.16 506.778c-.303-.041-.583.181-.626.486-.22.717-.2 1.496.24 2.126.187.269.433.496.642.743l.883 1.002c.515.521 1.085.991 1.638 1.466l1.686 1.517 1.076 1.048c1.245 1.301 2.663 3.892 1.573 5.647-.054.175.049.366.225.418s.363-.047.417-.227c.039-.79.275-1.533.209-2.338-.145-1.776-1.259-3.263-2.408-4.548-1.008-1.125-2.174-2.095-3.227-3.179-.428-.439-.91-.904-1.236-1.435-.18-.289-.24-.615-.338-.935-.12-.397-.261-.738-.289-1.161.043-.304-.163-.588-.466-.63zm-11.224-1.917a.35.35 0 0 0-.289.401c-.177.485-.26.996-.45 1.471-.298.743-.831 1.332-1.461 1.822-1.441 1.12-3.12 1.884-4.577 2.984-.682.516-1.414 1.13-1.814 1.904-.224.434-.242.805-.305 1.275-.048.356-.107.63-.08.996-.008.109.07.202.177.212s.201-.072.209-.176c.065-.273.092-.634.209-.887.158-.351.572-.795.819-1.1 1.755-2.137 4.613-2.756 6.664-4.532 1.157-1.001 2.285-2.544 1.3-4.062-.026-.193-.211-.335-.401-.308z"/><path d="M45.34 513.813c-.153-.103-.348-.056-.45.093-1.368 1.6-2.104 3.861-2.376 5.921a5.21 5.21 0 0 0 .032 1.646c.082.537.155.955.45 1.42a.45.45 0 0 0 .578.258.45.45 0 0 0 .257-.579c-.057-.402-.193-.81-.209-1.212-.012-.295.048-.382.064-.677l.048-1.115c.241-1.873.878-3.602 1.702-5.29.102-.155.056-.367-.096-.465zm19.96-45.892c-.347.085-.566.426-.482.775l.193 1.629c.192 1.155.373 2.275.37 3.452-.002.358-.006.708-.065 1.064-.086.523-.3.93-.497 1.403l-.209.533a.35.35 0 0 0-.016.484c.128.132.35.128.482 0 .195-.101.471-.226.626-.387.488-.505.708-1.529.851-2.194.44-2.039.186-4.333-.482-6.291a.63.63 0 0 0-.771-.468z"/><path d="M65.734 469.101c-.134-.015-.257.076-.273.21s.075.258.209.274c1.328.314 2.672.482 4.031.597.73.063 1.496.063 2.216.21.541.11 1.052.34 1.59.468l3.195.774c.731.23 1.417.558 2.135.822a.54.54 0 0 0 .707-.258c.122-.26.002-.571-.257-.693-.715-.414-1.442-.686-2.216-.968-1.09-.397-2.184-.744-3.34-.887-.573-.071-1.147.018-1.718-.017-.743-.043-1.491-.193-2.232-.274l-4.046-.258z"/><path d="M79.125 471.164a.33.33 0 0 0-.209.42c.027.198.034.401.081.596.087.367.251.725.305 1.097.197 1.354.149 2.826-.225 4.145-.091.32-.234.633-.369.936-.403.901-.849 1.766-1.413 2.581-.385.556-.88 1.042-1.22 1.629-.1.172-.175.366-.257.549-.275.262-.277.691-.016.967s.688.295.963.032c.195-.082.413-.13.594-.242.347-.213.629-.533.899-.838.516-.584.951-1.29 1.3-1.984.34-.674.632-1.449.771-2.194.07-.378.099-.779.144-1.161a11.84 11.84 0 0 0-.337-4.597c-.106-.39-.145-.8-.289-1.178-.074-.193-.204-.367-.305-.548-.059-.175-.244-.269-.417-.21zm7.419 3.21c-.178.044-.285.224-.241.403v.162c0-.009-.001.052 0 .08l.016.355a.17.17 0 0 0 0 .016v.21c-.006-.273-.01.003 0 .403a.5.5 0 0 0 .562.436c.278-.035.484-.286.45-.565l-.193-.629c-.024-.084.017.207.097.242.067.029-.032-.137-.048-.21a2.03 2.03 0 0 0-.128-.419l-.048-.097c.099.374.001.009-.064-.129-.044-.179-.223-.302-.401-.258z"/><path d="M86.96 476.003c-.178-.047-.354.064-.402.242-.358 1.152-.902 2.397-1.83 3.21-.421.369-.942.523-1.43.774l-1.044.484c-.719.259-1.477.369-2.216.549-.239.058-.51.044-.707.193-.25.19-.362.504-.546.759-.099.02-.165.126-.144.225s.11.166.209.145c.267.162.502.407.803.484.242.062.493-.054.738-.097a11.29 11.29 0 0 0 2.023-.564c.569-.214 1.176-.454 1.686-.791.564-.371.974-.941 1.381-1.467.874-1.129 1.405-2.347 1.718-3.742.048-.179-.064-.356-.24-.404zm-22.624 4.968c-1.037-.064-2.034.03-3.067.065-.754.025-1.491-.032-2.232.161-1.437.375-2.849 1.077-3.902 2.145a3.27 3.27 0 0 0-.514.646c-.121.208-.206.437-.241.677-.221 1.531 1.767 1.501 2.746 1.565l.755.048 5.812.484c2.032.205 4.027.505 5.973 1.145 1.286.424 2.501.928 3.725 1.5l.691.307.658.339L75 490l.319.053.578-.339 1.204-1.145.016-.016c.547-.036.846-.892 1.156-1.63-.654.701-1.215 1.189-1.461 1.355-.507.046-.966.876-1.541 1-.261.057-.426-.328-.642-.483-.445-.32-.916-.595-1.413-.823-1.874-.862-3.85-1.298-5.861-1.694-2.034-.4-4.091-.738-6.166-.822l-4.046-.081c-.531.013-1.161.16-1.638-.161-.629-.425.339-1.362.658-1.646.624-.555 1.363-1.02 2.168-1.258.291-.086.599-.118.899-.161l1.526-.274c1.149-.213 2.372-.068 3.532 0 .411.023.826-.028 1.237 0 .204.013.392.083.594.113l3.42.58 1.3.42c1.283.344 2.611.446 3.886.838 1.154.355 2.157 1.01 2.81 2.049.119.189.215.388.353.564l.161.194.177.194a.34.34 0 0 0 .08.032c.062-.144.123-.324.193-.436.047-.075-.038-.173-.064-.258s-.058-.166-.097-.242c-.243-.468-.626-.906-.995-1.274-1.503-1.495-3.558-1.758-5.524-2.21l-2.12-.5-1.67-.436-1.815-.306c-.209-.021-.418-.004-.626-.032l-1.253-.194zm-8.012 8.565c-.808.049-1.611.164-2.408.42-.396.126-1.065.416-1.381.677-.695.573-.951 1.454-1.092 2.307-.134.807-.291 1.67.626 2.032.635.251 1.281.235 1.943.193.143-.008.294.034.434 0 .157-.037.275-.175.434-.209s.321.018.482.016c.516-.008 1.044-.094 1.558-.145 2.193-.218 4.409-.379 6.567.177 2.015.52 3.865 1.511 5.684 2.5.775.422 1.54.927 2.409 1.129.167.04.383.086.562.065.645-.075.976-.745 1.22-1.258.275-.58.477-1.176.706-1.774.115-.3.288-.526.273-.872-.019-.45-.293-.859-.61-1.161-.927-.882-2.224-1.359-3.421-1.71l-2.569-.661c-.225-.039-.658-.048-.658-.048l-.417.048-.097.032s-.303.206-.273.387c.009.053.083.04.113.081.114.07.22.148.337.193.247.096.596.087.851.129a10.56 10.56 0 0 1 1.14.259c.884.251 1.685.658 2.505 1.064.638.317 1.257.617 1.75 1.146.285.304.182.267.048.596a4.41 4.41 0 0 0-.128.371c-.153.494-.261 1.025-.466 1.5-.084.195-.186.329-.305.501-.023.032-.066.085-.097.112-.007.007-.023.01-.032.017l-.177-.049-.257-.08-.915-.323c-.785-.309-1.522-.716-2.264-1.113-2.263-1.211-4.3-2.165-6.872-2.355-1.563-.116-3.145-.052-4.705.08l-1.557.178c-.157.03-.306.116-.465.113s-.307-.12-.466-.129c-.138-.008-.264.068-.402.081-.126.011-.259-.007-.385 0-.296.016-.57.084-.867.096-.033.002-.174-.004-.273-.016.011-.053.017-.149.016-.177-.007-.396 0-.773.096-1.161.107-.433.228-.943.498-1.307.322-.433 1.379-.497 1.863-.548l3.87-.242c1.266-.009 2.519.169 3.774.306l1.172.129c.098.014.207.055.305.048.091-.006.385-.129.385-.129l.112-.032s.175-.01.209-.097-.08-.225-.08-.225l-.126-.198h-.003l-.273-.254-1.092-.29c-.663-.143-1.332-.221-2.007-.275l-2.361-.129-2.441-.016zm-1.845 10.178l-2.425.177-1.269.129c-1.11.214-2.34.725-3.067 1.629-.758.943-.737 2.381.385 3.049.512.304-.006.01.498.209.241.08.499-.064.578-.306.072-.219-.043-.431-.24-.532-.074-.044-.15-.075-.225-.113-.103-.052-.224-.126-.289-.226-.129-.199-.042-.486.016-.694.153-.547.497-1.029.947-1.371.752-.57 1.852-.738 2.762-.838 1.851-.205 3.736-.123 5.587 0l4.014.322 2.987.581a23.67 23.67 0 0 1 3.211.871l.546.193c.204.079.437.107.594.258.027.027-.302.569-.353.646l-.241.355c-.333.515-.549 1.068-.787 1.631a5.87 5.87 0 0 0-.257.738c-.065 0-.222.062-.273.067a5.77 5.77 0 0 1-.948.015l-3.581-.289-5.572-.81-3.821-.675-1.927-.21c-.381-.007-.775.01-1.156 0-.074-.001-.156.011-.225-.016-.364-.14.01.005-.177 0a.33.33 0 0 0-.305.355c.012.148.153.209.289.241l.225.031c.317.026.64-.015.963.037l7.595 1.063 4.946.774c1.176.186 2.369.382 3.565.305.332-.021.759-.047.995-.32.129-.15.147-.305.209-.486a4.75 4.75 0 0 1 .305-.727c.159-.289.379-.532.562-.805.447-.669 1.42-2.068.401-2.694-.554-.34-1.281-.528-1.895-.726l-2.681-.774c-1.265-.324-2.565-.468-3.854-.661l-3.292-.387-3.324-.016zm-4.721 5.386l-.546-.064c-.03-.004.001-.004.61.132-.035 0-.031-.057-.064-.068zm-.819-1.031c.126.076.243.166.385.193.113.022.007-.003-.434-.241.023.007.027.037.048.048z"/><path d="M57.271 494.697c-.156-.096-.369-.044-.465.113-.888 1.16-1.763 2.459-2.12 3.903-.06.244-.164.763-.144 1.017.014.179.088.341.128.516-.021.159.082.318.241.338s.301-.098.322-.258c.443-.804.644-1.719.963-2.581.334-.9.776-1.73 1.188-2.596.096-.157.044-.355-.113-.452z"/><use xlink:href="#I"/><path d="M73.732 488.049c-.156-.097-.37-.045-.466.113-.888 1.159-1.763 2.459-2.12 3.903-.06.244-.164.763-.144 1.016.014.179.088.341.129.516-.021.16.082.318.24.339s.301-.099.322-.258c.443-.805.644-1.719.963-2.581.334-.901.776-1.73 1.188-2.597.096-.157.044-.355-.112-.451zm-14-2.016c-.156-.065-.37-.03-.466.076-.888.781-1.763 1.656-2.12 2.629-.06.164-.164.514-.144.685.014.12.088.229.128.347-.021.108.082.214.24.228s.301-.066.322-.173c.443-.543.644-1.159.963-1.739.334-.607.776-1.165 1.188-1.749.096-.106.044-.239-.112-.304zm5.473-9.353c-.12-.091-.295-.056-.385.065l-1.092 1.967c-.324.533.557-1.13.787-1.709.048-.121-.148.202-.225.306l-.433.629a10.38 10.38 0 0 0-.851 1.646l-.144.338c-.043.121-.179.481-.112.371.717-1.17 0 .01-.096.387-.072.24.05.492.289.565a.47.47 0 0 0 .578-.307l.867-1.935c.224-.537-.489 1.063-.755 1.58-.054.107.075-.225.112-.338l.241-.661c.206-.539.412-1.053.706-1.549l.193-.307.193-.306c-.505 1.179.005-.003.177-.355a.28.28 0 0 0-.048-.387zm-.114-5.468c-.175-.055-.364.049-.418.225-.318.713-.549 1.462-.931 2.146-.691 1.237-1.564 2.38-2.361 3.548-.724 1.062-1.623 2.037-2.2 3.194-.144.289-.247.589-.369.887-.074.124-.043.281.08.355s.296.043.369-.081c.809-.985 1.478-2.041 2.232-3.064l1.493-1.92c.661-.938 1.196-1.956 1.67-3 .278-.613.523-1.206.642-1.871a.33.33 0 0 0-.209-.419zm-8.671 14.63c-.157-.03-.353.226-.353.226v.202l-.08.136-.096.324-.241.628c-.181.417-.404.805-.642 1.194l-.369.581-.353.596s-.037.724.289.888.883-.307.883-.307l.044-.31.229-.335.225-.678.497-1.725.081-.355.064-.372.048-.354s-.068-.309-.225-.339zm-3.484 8.613c-.18-.034-.351.093-.385.274-.104.995-.495 2.033-.996 2.887l-1.14 1.936-.385.887a.46.46 0 0 0 .193.613c.22.116.478.028.594-.194l.514-.822c.464-.84.695-1.801 1.028-2.694l.851-2.5c.034-.181-.092-.353-.273-.387zm-4.432 9.841c-.175-.057-.361.034-.418.21l-.674 2.046-.546 1.26-1.316 3.438-.659 1.61c-.109.253-.258.495-.337.759-.082.278-.096.573-.144.857a.21.21 0 0 0 .064.289c.099.061.229.036.289-.068.236-.18.508-.325.707-.547.197-.216.322-.495.465-.758.297-.537.552-1.095.787-1.657.479-1.156.841-2.395 1.124-3.613l.257-1.358c.144-.697.37-1.383.61-2.049a.33.33 0 0 0-.209-.419z"/></g></g><defs><radialGradient id="B" cx="0" cy="0" r="1" gradientTransform="translate(140.812 389.707) scale(10.25 10.2964)" xlink:href="#J"><stop stop-color="#dea88e"/><stop offset="1" stop-color="#e3caba"/></radialGradient><radialGradient id="C" cx="0" cy="0" r="1" gradientTransform="translate(61.2257 379.139) scale(8.96914 9.00979)" xlink:href="#J"><stop stop-color="#dea88e"/><stop offset="1" stop-color="#e3caba"/></radialGradient><radialGradient id="D" cx="0" cy="0" r="1" gradientTransform="translate(60.6658 76.2207) scale(5.55048 5.57564)" xlink:href="#J"><stop stop-color="#dea88e"/><stop offset="1" stop-color="#f5e8d6"/></radialGradient><radialGradient id="E" cx="0" cy="0" r="1" gradientTransform="translate(82.573 72.1274) scale(5.71064 5.73653)" xlink:href="#J"><stop stop-color="#dea88e"/><stop offset="1" stop-color="#f5e8d6"/></radialGradient><radialGradient id="F" cx="0" cy="0" r="1" gradientTransform="translate(42.1921 195.818) scale(16.9792 17.0562)" xlink:href="#J"><stop stop-color="#dea88e"/><stop offset="1" stop-color="#f5e8d6"/></radialGradient><clipPath id="G"><path fill="#fff" d="M0 0h193v559H0z"/></clipPath><path id="H" d="M156.193 515.034c-.197.093-.193.537-.193.537l.095.378.066.246.369.568a21.85 21.85 0 0 0 1.085 1.408c.136.16.495.682.385.501-.562-.903-.002.005.241.583.091.16.307.202.466.114.158-.093.112-.454.112-.454l-.459-1.038-.766-1.114-.261-.501-.257-.531s-.008 0-.369-.501a.39.39 0 0 0-.514-.196z"/><path id="I" d="M68.732 496.049c-.156-.097-.37-.045-.466.113-.888 1.159-1.763 2.459-2.12 3.903-.06.244-.164.763-.144 1.016.014.179.088.341.129.516-.021.16.082.318.24.339s.301-.099.322-.258c.443-.805.644-1.719.963-2.581.334-.901.776-1.73 1.188-2.597.096-.157.044-.355-.112-.451z"/><linearGradient id="J" gradientUnits="userSpaceOnUse"/></defs></svg>