<svg width="322" height="270" viewBox="0 0 322 270" fill="none" xmlns="http://www.w3.org/2000/svg">
<g clip-path="url(#clip0_2137_1884)">
<path d="M203.653 176.916L207.95 191.664L191.456 241.286L150.292 256.034L110.236 245.421L88.7529 203.38L91.5245 185.875C91.5245 185.875 102.99 182.671 109.889 178.999C116.788 175.328 119.12 171.19 119.12 171.19C119.12 171.19 120.231 163.023 118.315 161.293C112.509 156.049 106.29 147.231 106.29 147.231L94.8792 119.87L112.65 89.6683L143.525 63.7988L177.364 85.7619L197.008 115.386L188.168 148.894L181.935 171.882C181.935 171.882 185.02 173.769 190.45 175.028C195.879 176.286 203.653 176.916 203.653 176.916Z" fill="#F5E8D6"/>
<path d="M118.895 163.674C118.895 163.674 128.137 186.169 146.46 190.531C164.783 194.893 181.964 193.503 192.187 181.124C198.64 173.308 184.957 175.393 180.868 168.964C177.32 163.384 176.941 152.317 175.757 155.035C174.553 157.798 167.734 164.858 159.002 168.973C152.308 172.128 143.771 172.972 140.115 172.325C128.761 170.316 119.759 164.164 118.895 163.674Z" fill="#E3CABA"/>
<path d="M141.347 77.3959C141.347 77.3959 137.785 84.6179 131.549 89.7365C125.313 94.8543 121.984 91.6811 116.402 97.8688C110.82 104.056 109.781 117.776 104.65 122.231C97.3535 128.568 102.444 133.819 102.444 133.819L94.9272 127.075L107.016 100.485L118.109 84.5741L136.97 73.4291L141.986 65.8281L154.661 84.296L177.777 89.8987L191.249 106.477L190.575 122.793L180.868 126.089L183.064 115.117C183.064 115.117 185.159 107.303 181.964 102.304C178.769 97.3044 170.284 95.1183 170.284 95.1183C170.284 95.1183 161.778 96.9304 154.544 92.4994C147.31 88.0692 141.347 77.3959 141.347 77.3959Z" fill="#E3CABA"/>
<path d="M286.592 317.641C286.592 317.641 295.428 316.156 294.844 313.941C289.844 294.976 275.856 239.949 275.856 239.949C275.856 239.949 272.254 227.445 270.183 215.299C268.111 203.152 268.495 198.909 268.495 198.909C268.495 198.909 268.157 187.223 263.869 185.774C259.582 184.325 259.714 186.865 249.997 184.393C240.282 181.919 237.273 178.095 225.005 175.882C212.738 173.67 198.436 173.099 200.536 175.415C207.603 183.205 202.986 201.661 202.986 201.661C202.986 201.661 199.177 224.614 187.002 236.664C174.826 248.712 150.345 250.457 150.345 250.457C150.345 250.457 131.644 254.818 117.527 244.765C103.411 234.712 100.133 225.477 93.8798 210.246C87.6279 195.015 95.3009 190.312 92.665 182.606C91.8272 180.154 70.9072 187.356 58.9324 192.242C46.9251 197.14 43.5455 194.79 41.3556 197.043C38.4149 200.069 30.8462 225.086 29.6278 259.309C28.4094 293.537 20.5434 325.567 21.0606 330.854C21.5159 335.508 32.7262 332.785 47.039 335.434C61.352 338.082 76.6233 343.312 78.3115 341.447C82.3136 337.029 82.8145 306.04 82.8145 306.04C82.8145 306.04 86.0162 345.463 81.8893 364.33C75.0025 395.812 67.7454 407.482 44.8091 467.588C20.9267 530.174 0.807842 601.783 0.456304 610.148C0.00983084 620.771 35.6719 636.737 42.8166 646.402C51.5102 658.162 51.0274 670.387 61.337 680.19C71.646 689.992 79.9564 686.565 85.1301 685.19C91.1241 683.597 112.691 645.467 137.908 647.515C170.236 650.143 202.556 687.538 209.96 691.68C216.4 695.283 223.031 693.769 226.05 687.917C229.875 680.503 225.856 668.953 232.53 666.137C251.939 657.948 263.371 663.072 276.5 657.677C279.549 656.423 278.807 643.625 282.493 639.214C287.151 633.642 298.337 630.673 303.98 622.061C311.396 610.745 297.228 589.942 288.303 557.905C279.378 525.868 268.28 493.914 268.28 493.914L234.166 394.484L228.578 333.661C228.578 333.661 230.797 325.025 231.754 315.776C232.712 306.527 231.932 300.615 231.932 300.615C231.932 300.615 229.416 323.156 237.692 332.627C239.963 335.224 245.203 320.214 258.336 316.399C265.736 314.251 286.683 311.685 286.683 311.685L286.592 317.641Z" fill="#C46B57"/>
<path d="M237.333 331.449L258.809 314.598C258.809 314.598 251.874 315.339 245.296 302.925C238.718 290.51 239.816 263.942 239.816 263.942L238.178 254.179L234.854 283.344L231.898 291.983L231.073 319.813L237.333 331.449Z" fill="#A05B52"/>
<path d="M121.92 21.7862C121.92 21.7862 110.963 24.1841 103.556 31.8382C96.1485 39.4923 92.2912 52.4027 92.2912 52.4027L90.7478 68.2864L79.8264 80.4583C79.8264 80.4583 87.8115 80.1 86.7739 81.553C85.7355 83.0068 75.7594 84.0809 75.6745 86.272C75.5896 88.4622 86.4777 89.5503 85.1781 91.6918C82.9316 95.3938 77.7538 99.359 75.7594 106.156C73.765 112.953 77.1996 118.879 77.1996 118.879L79.4029 114.666C79.4029 114.666 79.2423 120.337 83.2652 126.562C87.2873 132.786 92.4301 133.761 96.5413 142.06C100.653 150.358 98.5407 164.991 98.5407 164.991C98.5407 164.991 106.587 152.711 107.93 144.492C109.272 136.272 101.688 132.242 100.701 124.846C99.7138 117.45 105.083 119.296 108.125 111.943C111.168 104.588 112.87 95.4302 112.87 95.4302C112.87 95.4302 125.21 91.0381 132.394 84.3821C139.578 77.7269 141.606 68.8069 141.606 68.8069C141.606 68.8069 144.459 81.6697 152.937 87.6919C161.414 93.7149 175.514 92.8966 175.514 92.8966C175.514 92.8966 182.404 95.7587 185.308 100.549C188.212 105.34 187.961 106.531 187.132 112.057C186.304 117.584 181.996 122.653 181.996 122.653L186.896 120.156C186.896 120.156 186.105 126.908 186.576 131.022C187.047 135.136 188.419 136.013 188.419 136.013C188.419 136.013 173.605 153.498 171.491 168.77C168.52 190.226 193.011 204.734 190.992 202.223C183.531 192.947 181.422 180.785 183.339 173.927C186.819 161.473 185.784 160.64 195.781 150.741C205.163 141.451 207.496 134.203 205.569 122.912C204.879 118.869 208.326 117.967 206.911 108.834C205.91 102.379 202.931 102.556 202.017 94.4555C201.686 91.5089 201.362 87.5777 202.492 84.7867C203.311 82.7611 207.372 88.5773 206.232 84.6353C203.446 74.9946 203.931 68.2567 202.639 60.8543C199.981 45.6316 197.26 41.8212 191.386 33.5655C188.062 28.8929 180.774 26.7443 180.774 26.7443C180.774 26.7443 184.203 18.2821 177.15 11.9436C170.097 5.60498 166.322 4.27087 154.837 2.01855C143.351 -0.233696 136.138 -0.363855 127.328 4.91927C118.518 10.2023 121.92 21.7862 121.92 21.7862Z" fill="#E0BD6F"/>
<path d="M112.332 97.7416C112.332 97.7416 102.653 99.25 102.443 98.1388C102.031 95.9733 106.831 90.8266 106.831 90.8266C106.831 90.8266 97.2683 93.9469 91.8875 94.8331C86.5058 95.7193 83.2559 93.2262 83.2559 93.2262L86.5449 90.5477L98.9032 90.2705L110.913 86.5205L105.118 96.728L113.427 94.6444L112.332 97.7416Z" fill="#B69C65"/>
<g opacity="0.5">
<path d="M178.851 108.585L148.454 113.32L154.709 138.996L184.35 140.555L178.851 108.585Z" fill="url(#paint0_radial_2137_1884)"/>
<path d="M139.681 104.739L110.792 111.121L103.609 126.239L113.41 138.605L134.224 128.143L139.681 104.739Z" fill="url(#paint1_radial_2137_1884)"/>
</g>
<path d="M154.157 111.613C154.157 111.613 160.13 113.315 164.392 113.451C168.655 113.587 172.168 111.566 172.168 111.566L175.091 104.658L169.424 103.703L160.876 105.112L155.208 107.794L154.157 111.613Z" fill="#FFF7F7"/>
<path d="M131.043 111.561L128.238 106.518L118.35 104.026L111.79 103.906L111.525 109.037L113.526 112.103C113.526 112.103 116.511 113.384 120.89 113.248C125.27 113.112 131.043 111.561 131.043 111.561Z" fill="#FFF7F7"/>
<path d="M238.694 251.052C238.421 250.995 238.153 251.169 238.096 251.44C237.366 253.853 237.147 256.356 236.952 258.861C236.636 262.917 236.626 266.989 236.276 271.04C235.858 275.886 235.298 280.773 233.78 285.418C231.589 292.122 227.532 298.128 221.169 301.501C219.204 302.543 217.095 303.291 214.929 303.802C213.545 304.129 212.128 304.47 210.717 304.656C209.556 304.808 208.348 304.849 207.181 304.914C205.457 305.01 203.759 305.094 202.032 305.07C200.107 305.041 198.185 304.872 196.26 304.836C195.742 304.827 195.214 304.773 194.7 304.836C194.135 304.907 193.588 305.114 193.036 305.25C192.678 305.214 192.371 305.464 192.334 305.819C192.297 306.175 192.548 306.507 192.906 306.543C193.426 306.79 193.917 307.094 194.466 307.267C194.975 307.428 195.523 307.457 196.052 307.526C196.566 307.593 197.095 307.642 197.612 307.681C199.086 307.79 200.556 307.785 202.032 307.759C204.256 307.718 206.492 307.607 208.688 307.241C212.357 306.632 215.944 305.737 219.323 304.164C221.843 302.991 224.254 301.577 226.369 299.768C231.979 294.972 234.851 288.078 236.302 280.996C237.493 275.181 237.947 269.229 238.226 263.309C238.41 259.406 238.606 255.527 239.084 251.647C239.142 251.375 238.967 251.109 238.694 251.052Z" fill="#070D1C"/>
<path d="M154.684 250.047C154.117 250.051 153.665 250.517 153.67 251.081C153.913 254.836 153.81 253.156 153.904 254.83C153.951 255.668 153.728 253.176 153.592 252.348C153.524 251.931 153.66 253.195 153.696 253.615C153.767 254.45 153.911 255.261 153.956 256.097C153.978 256.509 153.979 257.75 153.956 257.338C153.838 255.254 153.938 257.352 154.138 258.605C154.12 258.863 154.32 259.079 154.58 259.097C154.839 259.114 155.082 258.916 155.1 258.657C155.413 254.862 155.216 256.528 155.412 254.856C155.511 254.012 155.376 256.571 155.464 257.416C155.508 257.842 155.508 256.551 155.542 256.123C155.609 255.271 155.705 254.417 155.75 253.564C155.772 253.144 155.855 251.905 155.802 252.322C155.532 254.433 155.804 252.327 155.724 251.081C155.72 250.517 155.251 250.042 154.684 250.047Z" fill="#070D1C"/>
<path d="M156.581 258.295C156.434 258.336 156.335 258.476 156.191 258.528C155.049 258.942 156.188 258.531 155.852 258.915C155.784 258.928 155.736 259.002 155.749 259.071C155.762 259.139 155.836 259.187 155.905 259.174C154.4 259.759 153.967 259.785 154.396 259.743C155.044 259.679 155.672 259.458 156.321 259.407C156.449 259.397 156.533 259.564 156.658 259.588C156.862 259.626 157.076 259.541 157.282 259.562C158.409 259.675 159.457 260.079 160.22 260.933C161.958 262.874 163.054 267.392 159.857 268.534C156.961 269.57 154.211 267.461 152.602 265.225C152.003 264.391 151.297 262.661 151.744 261.604C151.898 261.243 152.284 261.208 152.498 260.933C152.566 260.846 152.556 260.699 152.655 260.648C153.709 260.098 152.651 260.647 152.888 260.338C153.068 260.295 153.166 260.103 153.122 259.924C153.079 259.745 152.913 259.648 152.732 259.691C154.293 259.307 154.682 259.182 154.293 259.303C153.663 259.499 152.975 259.498 152.316 259.536C152.17 259.545 152.047 259.427 151.9 259.432C151.774 259.437 151.65 259.509 151.536 259.562C149.787 260.369 149.493 262.553 149.976 264.19C150.119 264.675 150.39 265.114 150.626 265.561C152.382 268.879 155.826 271.296 159.701 270.319C162.063 269.723 163.275 267.512 163.159 265.173C163.054 263.062 162.044 261.072 160.428 259.717C159.412 258.865 158.306 258.376 156.97 258.321C156.834 258.315 156.713 258.257 156.581 258.295Z" fill="#070D1C"/>
<path d="M154.735 269.361C154.584 269.331 154.453 269.444 154.423 269.594C153.695 271.677 153.429 273.799 153.175 275.981C152.824 278.998 152.723 282.047 152.707 285.083C152.707 285.598 153.125 286.014 153.643 286.014C154.161 286.014 154.579 285.598 154.579 285.083C154.562 282.07 154.425 279.074 154.475 276.059C154.51 273.931 154.834 271.819 154.969 269.698C155 269.547 154.886 269.392 154.735 269.361Z" fill="#070D1C"/>
<path d="M192.282 230.289C192.182 230.243 192.069 230.268 192.022 230.367C191.336 231.309 190.835 232.367 190.124 233.289C188.591 235.279 186.832 237.133 184.898 238.745C180.402 242.495 174.926 245.092 169.349 246.813C167.363 247.426 165.309 247.848 163.291 248.338C157.306 249.795 151.169 250.506 145.012 250.666C142.701 250.726 140.351 250.732 138.043 250.588C135.303 250.417 132.583 250.062 129.853 249.786C129.4 249.713 128.965 250.034 128.891 250.485C128.818 250.935 129.14 251.342 129.593 251.416C130.309 251.575 131.002 251.786 131.725 251.907C133.771 252.251 135.897 252.274 137.965 252.347C140.831 252.447 143.679 252.485 146.546 252.372C152.314 252.146 158.11 251.496 163.758 250.304C165.853 249.862 167.869 249.193 169.895 248.52C172.873 247.528 175.748 246.355 178.527 244.899C183.454 242.319 188.18 238.727 190.878 233.78C191.463 232.708 192.042 231.735 192.361 230.548C192.407 230.449 192.382 230.336 192.282 230.289Z" fill="#070D1C"/>
<path d="M71.7143 242.728C71.5978 242.824 71.5911 243 71.6877 243.115C72.4848 244.16 73.2153 245.284 73.7678 246.477C75.1514 249.463 75.5958 252.922 75.6923 256.174C75.7979 259.751 75.4893 263.329 75.0682 266.879C74.7571 269.496 74.5208 272.141 74.2878 274.766C73.375 285.071 72.9898 296.574 81.2561 304.218C83.1432 305.963 85.3473 307.401 87.6529 308.536C90.8828 310.128 94.4082 311.191 97.9752 311.665C98.4711 311.763 98.9695 311.434 99.0668 310.941C99.165 310.448 98.8347 309.979 98.3396 309.881C93.7825 308.685 89.1663 307.609 85.1567 305.02C83.7448 304.109 82.4326 303.035 81.2828 301.813C77.8065 298.122 76.2897 293.364 75.5101 288.471C75.025 285.423 75.0458 282.287 75.198 279.214C75.3719 275.704 75.6881 272.215 76.0043 268.715C76.2098 266.433 76.3471 264.151 76.4719 261.863C76.8238 255.405 76.7822 247.833 72.1037 242.754C72.0072 242.639 71.8299 242.631 71.7143 242.728Z" fill="#070D1C"/>
<path d="M117.918 161.172C117.68 161.267 117.589 161.531 117.684 161.767C118.3 162.815 118.456 164.172 118.619 165.362C118.758 166.372 118.842 167.347 118.672 168.361C118.085 171.844 115.179 174.593 112.223 176.299C110.294 177.414 108.196 178.179 106.139 179.015C105.072 179.447 104.074 180.028 103.018 180.488C101.714 181.057 100.342 181.313 98.9889 181.73C97.1218 182.305 95.2106 183.105 93.4766 184.005C93.1047 184.19 92.9533 184.644 93.1388 185.014C93.3235 185.384 93.7803 185.534 94.1522 185.35C94.7571 185.064 95.3371 184.745 95.9461 184.471C97.101 183.95 98.3441 183.598 99.5089 183.1C100.275 182.772 100.995 182.396 101.77 182.091C103.393 181.456 105.123 181.128 106.737 180.488C109.136 179.538 111.396 178.314 113.575 176.946C116.672 175.002 119.244 172.265 119.738 168.516C119.946 166.934 119.827 165.367 119.374 163.836C119.131 163.018 118.738 162.261 118.542 161.431C118.447 161.195 118.156 161.078 117.918 161.172Z" fill="#070D1C"/>
<path d="M106.712 148.633C106.511 148.791 106.476 149.08 106.634 149.279C106.75 149.682 106.814 150.117 106.998 150.495C107.169 150.847 107.463 151.113 107.7 151.426C108.172 152.05 108.671 152.647 109.156 153.262C109.641 153.875 110.084 154.524 110.586 155.124C112.324 157.202 114.264 159.109 116.28 160.916C117.417 161.934 118.598 162.837 119.791 163.786C120.669 164.485 121.509 165.243 122.417 165.906C126.145 168.628 130.557 171.081 135.027 172.319C137.517 173.008 140.09 173.433 142.672 173.56C143.828 173.617 144.949 173.499 146.104 173.509C146.5 173.511 146.904 173.573 147.3 173.56C148.914 173.505 150.55 173.167 152.11 172.784C152.688 172.661 153.067 172.091 152.942 171.517C152.818 170.943 152.245 170.566 151.668 170.69C150.147 170.969 148.617 171.198 147.092 171.44C146.364 171.555 145.644 171.712 144.908 171.724C140.005 171.8 135.212 170.685 130.737 168.724C128.168 167.599 125.772 166.043 123.509 164.407C122.332 163.554 121.16 162.717 120.103 161.718C117.096 158.875 114.376 155.784 111.522 152.796C110.722 151.959 109.991 151.086 109.234 150.21C108.982 149.918 108.78 149.575 108.48 149.331C108.153 149.067 107.729 148.918 107.362 148.711C107.204 148.511 106.913 148.475 106.712 148.633Z" fill="#070D1C"/>
<path d="M178.057 151.397C177.853 151.244 177.561 151.297 177.408 151.5C176.003 153.572 174.129 155.321 172.389 157.111C169.43 160.155 166.452 163.27 162.977 165.747C160.853 167.262 158.55 168.591 156.216 169.756C155.209 170.258 154.02 170.442 152.966 170.842C152.555 170.924 152.285 171.312 152.368 171.721C152.451 172.13 152.867 172.399 153.278 172.316C154.611 172.26 155.682 171.802 156.919 171.359C157.33 171.211 157.762 171.114 158.167 170.946C160.308 170.054 162.259 168.588 164.069 167.17C167.511 164.472 170.761 161.515 173.559 158.146C175.185 156.188 176.531 153.989 178.161 152.043C178.315 151.84 178.262 151.55 178.057 151.397Z" fill="#070D1C"/>
<path d="M31.0981 239.753C30.3985 239.734 29.817 240.299 29.798 240.995C29.6519 243.374 29.6004 245.75 29.46 248.131C29.4169 248.863 29.3095 249.598 29.278 250.329C29.2286 251.473 29.3581 252.597 29.278 253.742C29.1398 255.718 28.9294 257.696 28.706 259.664C28.6134 260.479 28.4529 261.285 28.3159 262.095C28.1772 262.914 28.1343 263.753 28.0299 264.577C27.8704 265.837 27.522 267.078 27.3019 268.326C27.0044 270.013 26.9657 271.729 26.6779 273.421C26.3145 275.556 26.0682 277.691 25.7418 279.834C25.2864 282.821 24.8466 285.811 24.4417 288.806C24.2703 290.074 23.8859 291.293 23.6877 292.555C23.5575 293.384 23.5401 294.232 23.4277 295.064C23.3168 295.884 23.124 296.678 22.9857 297.494C22.4577 300.611 22.0586 303.773 21.6336 306.906C20.7822 313.182 20.1076 319.466 19.6575 325.783C19.5193 327.722 19.3476 329.659 19.6055 331.601C19.7052 332.351 19.8086 333.15 20.1775 333.825C20.7732 334.914 21.459 334.96 22.5956 334.911C23.3197 334.879 24.055 334.902 24.7797 334.885C25.0431 334.878 25.2973 334.836 25.5598 334.859C26.1186 334.906 26.6649 335.071 27.2239 335.117C30.1416 335.361 33.0911 335.385 36.0123 335.582C39.8734 335.843 43.7199 336.339 47.5568 336.824C54.7086 337.729 61.7621 338.965 68.8004 340.521C70.8455 340.974 72.8965 341.467 74.9358 341.944C75.9617 342.184 76.9311 342.387 77.9262 341.893C78.8581 341.428 79.5637 340.524 80.1103 339.668C81.5456 337.423 81.9108 334.668 82.2944 332.092C82.7753 328.866 82.9492 325.646 83.1531 322.395C83.2546 320.764 83.3852 319.144 83.3869 317.508C83.3869 316.888 83.3245 316.266 83.3345 315.647C83.3445 315.057 83.3869 314.452 83.3611 313.862C83.2679 311.759 83.0682 309.684 83.2047 307.579C83.2063 307.324 83.0183 307.115 82.7628 307.113C82.5066 307.111 82.2961 307.324 82.2944 307.579C82.4009 309.685 82.2012 311.763 82.0606 313.862C82.0215 314.448 82.0723 315.034 82.0606 315.621C82.0481 316.237 81.9633 316.841 81.9308 317.456C81.8451 319.069 81.8368 320.706 81.7486 322.318C81.5764 325.477 81.2227 328.681 80.5787 331.782C80.1727 333.732 79.5795 335.739 78.7324 337.548C78.3406 338.386 77.9179 339.262 77.1466 339.824C76.6274 340.201 76.005 340.502 75.3519 340.315C74.9558 340.201 74.5756 340.076 74.182 339.953C73.3774 339.7 72.5495 339.433 71.7383 339.203C68.4276 338.265 65.072 337.559 61.7014 336.876C57.1134 335.946 52.5075 335.102 47.8689 334.445C43.997 333.896 40.1095 333.523 36.2203 333.127C34.1737 332.917 32.1138 332.713 30.058 332.609C29.1444 332.563 28.2171 332.493 27.3019 332.506C26.7301 332.514 26.1831 332.662 25.6118 332.686C25.0842 332.709 24.5537 332.618 24.0257 332.609C23.4954 332.6 22.9696 332.588 22.4397 332.584C22.4055 332.305 22.3475 332.039 22.3357 331.756C22.3064 331.056 22.3445 330.335 22.3616 329.635C22.3755 329.073 22.4444 328.515 22.4656 327.955C22.5285 326.296 22.5775 324.643 22.7777 322.99C22.9147 321.858 23.0404 320.702 23.2196 319.577C23.4193 318.324 23.6944 317.086 23.8697 315.828C24.4764 311.475 25.0912 307.123 25.6898 302.769C25.9096 301.17 26.1992 299.587 26.3919 297.985C26.4906 297.164 26.5514 296.347 26.6779 295.529C26.8061 294.7 27.01 293.879 27.1199 293.046C27.2872 291.779 27.266 290.486 27.4579 289.219C27.6513 287.943 27.8958 286.677 28.056 285.392C28.2704 283.673 28.4644 281.967 28.68 280.247C28.8957 278.526 29.2473 276.803 29.408 275.076C29.5279 273.787 29.5909 272.505 29.772 271.222C29.8921 270.372 30.0993 269.519 30.162 268.663C30.2549 267.394 30.2083 266.129 30.3441 264.862C30.4329 264.031 30.5845 263.187 30.6301 262.353C30.6751 261.529 30.6791 260.718 30.7601 259.897C30.8791 258.69 31.0343 257.483 31.1501 256.277C31.262 255.111 31.3204 253.943 31.5141 252.786C31.6405 252.031 31.822 251.272 31.9042 250.51C31.9837 249.773 32.0071 249.026 32.0601 248.286C32.2331 245.876 32.3627 243.465 32.3461 241.046C32.3651 240.351 31.7977 239.772 31.0981 239.753Z" fill="#070D1C"/>
<path d="M90.6153 181.574C89.8756 181.602 89.1184 181.776 88.4836 181.858C85.3901 182.259 82.4213 183.216 79.4609 184.159C69.8326 187.23 60.5154 191.148 50.8855 194.219C49.8863 194.537 48.8578 194.732 47.8434 194.994C46.4371 195.358 45.0421 195.681 43.6051 195.899C42.9589 195.998 42.3073 196.105 41.6551 196.158C40.7906 196.229 40.085 196.261 39.367 196.805C38.1309 197.74 37.427 199.342 36.8969 200.735C36.3605 202.144 35.783 203.623 35.4927 205.105C35.4257 205.447 35.4315 205.823 35.3628 206.165C35.2186 206.881 35.0145 207.575 34.8427 208.286C34.5654 209.433 34.1682 210.535 33.9587 211.699C32.8888 217.643 32.2551 223.645 31.3846 229.618C30.9268 232.759 30.5462 235.901 30.2145 239.056C30.0463 240.657 29.8041 242.2 29.8505 243.814C29.7573 244.391 30.1543 244.937 30.7345 245.029C31.3149 245.122 31.8634 244.727 31.9565 244.15C32.5161 242.602 32.7315 241.036 32.9966 239.418C33.5118 236.274 33.8657 233.122 34.1927 229.954C34.505 226.929 34.9383 223.937 35.3887 220.93C35.8257 218.013 36.2089 215.095 36.7148 212.19C36.9135 211.049 36.9366 209.892 37.1308 208.751C37.3137 207.676 37.5436 206.736 37.8589 205.7C38.2048 204.563 38.3917 203.39 38.769 202.261C39.1517 201.114 39.6152 199.65 40.5371 198.795C40.9185 198.442 41.1743 198.598 41.7071 198.614C41.9519 198.623 42.1902 198.649 42.4351 198.64C43.5526 198.603 44.6255 198.37 45.7113 198.124C47.3551 197.749 48.9391 197.22 50.5215 196.649C52.3434 195.992 54.1887 195.376 56.0078 194.709C59.2407 193.525 62.4132 192.201 65.6025 190.909C68.4364 189.76 71.3128 188.696 74.1567 187.574C77.1146 186.405 80.0592 185.302 83.1011 184.366C85.1679 183.731 87.2988 183.026 89.4454 182.711C90.1751 182.606 91.3358 182.317 91.9931 182.867C92.7545 183.503 92.7595 184.904 92.722 185.789C92.7054 186.17 92.6738 186.546 92.6438 186.926C92.4749 189.076 92.1363 191.244 91.6295 193.339C91.5921 193.592 91.766 193.845 92.0198 193.882C92.2727 193.92 92.5024 193.721 92.5398 193.468C92.702 190.705 93.5998 188.03 93.5798 185.246C93.5715 184.178 93.4742 182.909 92.6172 182.143C92.0697 181.652 91.355 181.546 90.6153 181.574Z" fill="#070D1C"/>
<path d="M39.421 197.839C39.3446 197.87 39.2857 197.97 39.317 198.046C39.286 198.473 39.1998 198.989 39.265 199.416C39.3917 200.245 40.0848 200.908 40.5391 201.563C41.0989 202.369 41.4387 203.633 41.3971 204.613C41.347 205.794 40.5905 206.748 40.3311 207.872C40.0795 208.962 40.2251 210.13 40.4091 211.233C40.4562 211.516 40.5521 211.777 40.7211 212.009C41.5292 213.12 42.9068 212.66 44.0232 213.018C44.3683 213.128 44.6234 213.297 44.9073 213.508C44.9861 213.567 45.0615 213.632 45.1413 213.69C45.0489 213.89 44.9119 214.102 44.8293 214.285C44.5613 214.877 44.2474 215.548 44.0493 216.146C43.9119 216.561 43.7501 216.977 43.7372 217.413C43.715 218.165 44.1134 218.889 44.5432 219.507C45.9434 221.524 47.7031 223.319 49.6135 224.86C50.0489 225.212 50.5229 225.501 50.9656 225.843C52.2259 226.816 53.3906 227.878 54.6578 228.842C55.7427 229.668 56.8875 230.393 57.9339 231.273C58.0047 231.348 58.1187 231.369 58.1944 231.299C58.2693 231.229 58.2643 231.115 58.1944 231.041C57.3732 229.949 56.5149 228.82 55.5678 227.834C54.4671 226.687 53.26 225.648 52.1617 224.498C51.6736 223.987 51.5723 223.778 51.0956 223.257C50.3745 222.469 49.6313 221.718 48.9375 220.904C48.0652 219.88 47.0464 218.883 46.3894 217.698C46.2531 217.452 46.3954 217.145 46.4674 216.922C46.5718 216.598 46.7082 216.282 46.8313 215.965C47.2633 214.855 47.835 213.413 47.1434 212.293C46.4239 211.128 45.1907 210.695 43.8673 210.638C43.5358 210.624 43.2102 210.63 42.8791 210.638C42.7682 210.641 42.6523 210.64 42.5412 210.638C42.5245 210.638 42.5132 210.645 42.4892 210.638C42.4296 210.258 42.342 209.883 42.3591 209.501C42.3756 209.135 42.5522 208.795 42.6452 208.44C42.9346 207.336 43.3098 206.205 43.3473 205.053C43.3953 203.575 43.0217 202.036 42.2032 200.786C41.9147 200.346 41.5088 199.987 41.1891 199.572C41.0002 199.325 40.8521 198.99 40.6431 198.77C40.35 198.46 39.9271 198.196 39.6031 197.917C39.5718 197.841 39.4975 197.808 39.421 197.839ZM45.2194 213.483C45.2337 213.49 45.2484 213.493 45.2453 213.508C45.2433 213.519 45.2219 213.524 45.2194 213.534C45.2179 213.523 45.204 213.475 45.2194 213.483Z" fill="#070D1C"/>
<path d="M115.397 190.444C115.172 190.343 114.9 190.454 114.799 190.677C114.697 190.9 114.809 191.145 115.032 191.246C116.071 192.07 117.149 192.733 118.412 193.185C118.832 193.335 119.297 193.362 119.713 193.521C120.556 193.844 121.327 194.354 122.156 194.71C122.575 194.89 122.999 195.086 123.431 195.228C123.867 195.371 124.319 195.423 124.757 195.564C127.778 196.531 130.713 197.904 133.571 199.261C137.097 200.935 140.504 202.95 143.165 205.829C143.345 206.012 143.633 206.007 143.816 205.829C143.998 205.652 143.995 205.364 143.816 205.183C142.224 203.669 140.618 202.167 138.824 200.89C137.353 199.844 135.739 198.965 134.143 198.124C131.281 196.615 128.225 195.586 125.303 194.219C124.886 194.024 124.5 193.737 124.081 193.547C123.668 193.36 123.234 193.234 122.807 193.082C121.961 192.781 121.059 192.632 120.233 192.28C119.827 192.107 119.488 191.797 119.089 191.607C117.912 191.05 116.671 190.671 115.397 190.444Z" fill="#070D1C"/>
<path d="M174.989 189.33C174.272 189.961 173.762 190.221 172.936 190.676C172.37 190.986 171.827 191.355 171.272 191.683C168.124 193.545 164.81 195.166 161.937 197.45C160.543 198.558 158.983 200.101 158.505 201.872C158.276 202.718 158.305 203.656 158.453 204.509C158.504 204.759 158.748 204.922 158.999 204.871C159.249 204.821 159.413 204.578 159.363 204.328C158.658 201.375 161.178 199.146 163.34 197.579C165.416 196.075 167.69 194.857 169.919 193.597C171.093 192.933 172.413 192.292 173.456 191.425C174.1 190.889 174.679 190.206 175.275 189.615C175.358 189.538 175.379 189.413 175.302 189.33C175.224 189.248 175.072 189.253 174.989 189.33Z" fill="#070D1C"/>
<path d="M266.097 188.246C265.99 188.278 265.935 188.397 265.968 188.504C265.986 189.042 265.913 189.574 265.968 190.107C266.108 191.464 266.358 192.835 266.513 194.193C266.647 195.358 266.721 196.521 266.878 197.683C267.056 199.006 267.258 200.316 267.424 201.64C267.733 204.113 267.835 206.615 268.126 209.087C268.376 211.203 268.832 213.312 269.27 215.396C270.174 219.701 271.26 223.971 272.39 228.221C272.784 229.703 273.217 231.174 273.56 232.67C274.26 235.717 274.906 238.772 275.588 241.823C276.108 244.145 276.822 246.423 277.408 248.727C278.29 252.19 279.099 255.673 279.931 259.148C280.297 260.68 280.76 262.193 281.127 263.725C281.932 267.097 282.856 270.422 283.701 273.784C284.506 276.987 285.285 280.22 286.171 283.403C287.333 287.578 288.395 291.758 289.421 295.97C290.037 298.499 290.55 301.074 291.189 303.597C291.779 305.928 292.486 308.215 293.139 310.527C293.459 311.662 293.73 312.747 293.893 313.915C293.992 314.392 294.454 314.685 294.933 314.588C295.412 314.489 295.734 314.029 295.635 313.553C295.208 312.001 294.998 310.432 294.725 308.847C294.389 306.896 294.033 304.932 293.581 303.003C292.471 298.264 291.067 293.602 289.863 288.885C288.154 282.191 286.479 275.472 284.715 268.793C282.906 261.946 280.964 255.129 279.229 248.262C278.646 245.958 278.175 243.622 277.538 241.332C276.397 237.229 275.085 233.129 274.262 228.946C273.447 224.802 272.426 220.7 271.584 216.56C271.057 213.97 270.718 211.342 270.206 208.751C269.817 206.784 269.338 204.866 269.036 202.882C268.764 201.094 268.616 199.297 268.412 197.503C268.279 196.332 268.046 195.175 267.866 194.012C267.657 192.662 267.537 191.188 267.137 189.875C266.976 189.344 266.647 188.845 266.358 188.375C266.325 188.268 266.206 188.213 266.097 188.246Z" fill="#070D1C"/>
<path d="M204.761 173.221C203.779 173.255 202.686 173.568 201.745 173.842C199.858 174.39 199.469 176.417 200.913 177.643C201.332 178.143 202.074 178.215 202.577 177.798C203.004 177.444 203.043 176.878 202.811 176.402C202.823 176.386 202.822 176.362 202.837 176.35C202.913 176.285 203.007 176.238 203.097 176.195C203.512 175.996 204.001 175.961 204.449 175.91C205.117 175.834 205.73 175.64 206.399 175.574C206.934 175.52 207.475 175.578 208.011 175.6C208.617 175.625 209.224 175.548 209.832 175.548C210.843 175.548 211.889 175.672 212.899 175.729C217.031 175.962 221.193 176.616 225.25 177.41C230.899 178.515 236.376 180.029 241.839 181.831C243.999 182.544 245.982 183.653 248.106 184.443C249.1 184.814 250.122 185.037 251.148 185.297C252.159 185.553 253.128 185.792 254.164 185.943C256.287 186.253 258.468 186.536 260.612 186.641C261.363 186.678 262.002 186.646 262.744 186.796C263.602 186.969 264.752 187.094 265.188 187.986C265.259 188.23 265.514 188.366 265.76 188.296C266.006 188.226 266.143 187.972 266.072 187.727C265.807 186.023 263.785 185.534 262.354 185.27C261.839 185.175 261.337 184.997 260.82 184.909C260.256 184.812 259.673 184.814 259.104 184.753C256.568 184.482 253.989 184.373 251.485 183.849C249.751 183.485 248.096 182.703 246.467 182.038C243.745 180.927 241.019 179.775 238.224 178.858C231.977 176.806 225.536 175.257 219.036 174.255C216.704 173.895 214.343 173.553 211.989 173.376C210.373 173.255 208.742 173.198 207.128 173.272C206.334 173.31 205.55 173.194 204.761 173.221ZM202.707 175.91C202.734 175.902 202.764 175.981 202.785 176.143C202.79 176.182 202.766 176.211 202.759 176.246C202.738 176.215 202.758 176.173 202.733 176.143C202.675 176.01 202.68 175.918 202.707 175.91Z" fill="#070D1C"/>
<path d="M265.501 187.416C265.253 187.479 265.125 187.713 265.189 187.959C265.466 190.707 263.382 192.596 261.574 194.372C260.126 195.795 258.757 197.275 257.752 199.052C256.883 200.589 256.963 202.31 257.466 203.94C257.698 204.69 258.054 205.442 258.194 206.215C258.239 206.464 258.224 206.713 258.246 206.965C258.265 207.177 258.323 207.4 258.298 207.611C258.267 207.876 258.131 208.104 258.064 208.361C257.99 208.647 257.974 208.959 257.882 209.24C257.648 209.959 257.151 210.668 256.764 211.309C255.93 212.694 255.02 213.974 254.086 215.292C253.686 215.856 253.339 216.477 252.916 217.023C252.065 218.124 251.103 219.142 250.238 220.23C249.417 221.262 248.757 222.404 248.054 223.514C247.172 224.902 246.293 226.236 245.713 227.78C245.552 228.155 245.727 228.603 246.103 228.763C246.48 228.923 246.93 228.749 247.092 228.375C247.755 227.027 248.576 225.736 249.535 224.574C250.357 223.58 251.266 222.672 252.058 221.652C252.913 220.551 253.718 219.387 254.58 218.29C255.016 217.736 255.519 217.241 255.958 216.688C256.389 216.143 256.772 215.568 257.18 215.007C258.306 213.461 259.502 211.796 260.118 209.964C260.359 209.247 260.59 208.497 260.612 207.74C260.632 207.062 260.452 206.38 260.274 205.724C259.768 203.854 258.263 201.855 259.312 199.879C259.694 199.161 260.127 198.472 260.638 197.837C262.949 194.965 267.828 192.012 266.072 187.727C266.009 187.48 265.749 187.353 265.501 187.416Z" fill="#070D1C"/>
<path d="M114.693 243.038C114.656 243.077 114.679 243.157 114.718 243.193C115.504 244.467 116.394 245.466 117.683 246.27C118.281 246.644 118.986 246.839 119.632 247.123C120.269 247.403 120.86 247.77 121.505 248.028C122.204 248.309 122.746 248.497 123.455 248.752C123.784 248.872 124.096 249.064 124.442 249.114C124.821 249.169 125.231 249.079 125.613 249.063C125.617 249.054 125.622 249.04 125.613 249.037C125.345 248.766 125.121 248.426 124.807 248.21C124.522 248.012 124.162 247.937 123.845 247.796C122.908 247.379 122.02 246.901 121.089 246.477C120.78 246.336 120.424 246.279 120.127 246.115C119.543 245.792 119.063 245.317 118.488 244.977C117.303 244.277 116.085 243.642 114.848 243.038C114.809 243.002 114.728 242.999 114.693 243.038Z" fill="#070D1C"/>
<path d="M106.449 135.675C106.338 135.739 106.306 135.875 106.37 135.985C106.571 137.067 106.88 138.189 106.916 139.295C106.96 140.656 106.665 141.957 106.526 143.303C106.246 146.026 105.462 148.689 104.628 151.293C104.033 153.15 103.433 154.988 102.704 156.8C101.943 158.693 101.035 160.578 99.9479 162.308C99.5652 162.918 99.1541 163.549 98.6474 164.066C98.5934 164.122 98.526 164.169 98.466 164.222C98.4694 164.197 98.4627 164.169 98.466 164.144C98.5126 163.803 98.5892 163.47 98.6741 163.135C99.115 161.396 99.4063 159.653 99.5577 157.86C99.5935 157.44 99.6392 157.015 99.6617 156.593C99.6842 156.171 99.7033 155.749 99.7141 155.327C99.7241 154.976 99.4429 154.69 99.0901 154.68C98.7373 154.67 98.4236 154.924 98.4136 155.275C98.3837 156.213 98.4003 156.801 98.2838 157.731C98.065 159.476 97.6298 161.16 97.426 162.903C97.3553 163.507 97.02 164.977 97.53 165.463C98.303 166.199 99.3272 165.176 99.8181 164.61C101.124 163.101 101.991 161.158 102.808 159.36C104.78 155.021 106.41 150.547 107.306 145.862C107.553 144.575 107.908 143.297 107.982 141.984C108.046 140.856 108.015 139.748 107.956 138.622C107.92 137.911 107.821 137.089 107.462 136.45C107.3 136.161 107.029 135.965 106.786 135.752C106.722 135.642 106.558 135.61 106.449 135.675Z" fill="#070D1C"/>
<path d="M79.7735 112.946C79.4923 112.952 79.2735 113.184 79.2793 113.464C79.2086 113.823 79.0871 114.184 79.0713 114.55C79.0413 115.248 79.2161 115.922 79.2793 116.619C79.4599 118.601 80.0024 120.434 80.7354 122.281C81.4251 124.019 82.3703 125.555 83.3879 127.117C86.4365 131.796 90.6167 135.571 93.9964 139.994C95.4966 141.958 96.7572 144.002 97.6624 146.303C98.17 147.594 98.5486 148.949 98.5203 150.337C98.5519 150.59 98.7865 150.756 99.0403 150.725C99.2949 150.693 99.4879 150.461 99.4563 150.207C99.0777 148.816 98.8897 147.399 98.442 146.019C98.0127 144.692 97.3646 143.426 96.6748 142.218C93.5014 136.661 88.5383 132.454 85.0262 127.142C84.5403 126.408 84.1759 125.597 83.7257 124.841C82.6649 123.061 81.852 121.186 81.3336 119.178C81.1015 118.28 80.871 117.35 80.7096 116.437C80.5956 115.791 80.6405 115.123 80.5532 114.472C80.5066 114.12 80.3793 113.783 80.2936 113.438C80.2877 113.158 80.0548 112.941 79.7735 112.946Z" fill="#070D1C"/>
<path d="M84.3492 92.079C80.3055 96.0955 77.073 100.455 75.3524 105.939C74.735 107.909 74.3506 110.097 74.3905 112.17C74.4305 114.201 74.8556 116.216 75.8208 118.015C76.2036 118.728 76.5963 119.657 77.5889 119.515C77.9974 119.455 78.2762 119.047 78.4209 118.713C78.728 118.005 78.9618 117.256 79.253 116.541C80.3421 113.864 81.71 111.396 83.6994 109.274C83.9856 108.962 83.9615 108.473 83.647 108.189C83.3325 107.903 82.8416 107.927 82.5554 108.24C80.6134 110.407 79.1848 112.826 78.0307 115.48C77.7952 116.023 77.5847 116.564 77.3551 117.109C77.2852 116.983 77.2137 116.856 77.1471 116.721C76.6013 115.623 76.2801 114.419 76.1328 113.205C75.6486 109.207 76.9848 105.267 78.733 101.725C80.3812 98.3842 82.3166 95.3383 84.9991 92.7252C85.1813 92.5465 85.1796 92.2602 84.9991 92.079C84.8193 91.8986 84.5315 91.9003 84.3492 92.079Z" fill="#070D1C"/>
<path d="M111.183 84.9715C110.892 85.2652 110.521 85.6732 110.169 85.9015C109.236 86.5089 108.01 87.0029 106.97 87.4017C105.33 88.0306 103.684 88.6189 101.978 89.0566C96.9142 90.3557 91.6199 90.5733 86.4821 89.6251C85.2606 89.4 84.0625 89.0906 82.8935 88.6686C80.8916 87.9462 79.0761 86.9168 77.2772 85.799C76.9385 85.554 76.4568 85.6169 76.2113 85.9537C75.9659 86.2905 76.0283 86.7696 76.3669 87.0137C78.3472 88.6454 80.6969 89.6317 83.1539 90.3235C87.29 91.4885 91.6257 91.6879 95.8941 91.2287C97.5033 91.0558 99.1033 90.7984 100.678 90.4269C102.214 90.0645 103.723 89.6003 105.203 89.0566C106.605 88.5411 107.937 87.8303 109.233 87.0914C109.645 86.8564 110.019 86.5552 110.429 86.3153C110.669 86.1754 111.447 85.832 111.703 85.7212C111.914 85.5772 111.977 85.2843 111.833 85.0741C111.688 84.8648 111.394 84.8267 111.183 84.9715Z" fill="#070D1C"/>
<path d="M87.9117 80.0296C87.7111 79.8708 87.4207 79.908 87.2618 80.1066C87.1545 80.2622 86.8225 80.7446 86.6902 80.8827C86.1328 81.4636 85.3456 81.8922 84.6617 82.3051C83.3138 83.1169 81.9409 83.8136 80.4233 84.2703C79.7135 84.4838 79.1702 84.6294 78.4472 84.7875C78.1293 84.857 77.789 84.8504 77.4853 84.9687C77.1617 85.0937 76.8763 85.3121 76.5751 85.485C76.3405 85.5173 76.1799 85.7432 76.2115 85.9766C76.2431 86.2107 76.4703 86.3704 76.7057 86.339C77.0585 86.4242 77.408 86.5872 77.7716 86.5971C78.1302 86.6079 78.4622 86.4978 78.8116 86.4168C79.1686 86.3324 79.528 86.2173 79.8775 86.1056C80.6097 85.8739 81.2836 85.6216 81.9834 85.3047C83.1757 84.7652 84.3613 84.1826 85.3897 83.3651C86.3649 82.5906 87.157 81.5919 87.9899 80.6759C88.1488 80.4765 88.1122 80.1877 87.9117 80.0296Z" fill="#070D1C"/>
<path d="M80.6051 79.3819C80.1483 79.2363 79.6591 79.4705 79.5126 79.9248C79.367 80.379 79.6025 80.8656 80.0593 81.0104C83.692 80.6893 82.3058 80.8515 83.6995 80.7001C84.7262 80.5884 81.6527 80.945 80.6575 81.2172C80.452 81.2735 81.0461 81.3322 81.2549 81.3728C81.522 81.4241 82.2576 81.4944 82.5296 81.5019C83.5572 81.53 84.6813 81.4233 85.6756 81.1659C85.8753 81.1138 86.0567 81.0633 86.2472 80.9847C86.4411 80.9045 87.0293 80.6736 86.8196 80.6744C84.569 80.686 86.8163 80.6728 87.3397 80.3641C87.4129 80.3434 87.4387 80.2814 87.417 80.2094C87.3962 80.1366 87.3347 80.0845 87.2614 80.1051C83.9308 79.7361 85.2204 79.9165 83.9333 79.7435C83.0197 79.6211 85.7538 79.9868 86.6632 80.1316C86.8579 80.1622 86.2622 80.0811 86.0658 80.0795C85.8753 80.0778 85.6831 80.0993 85.4934 80.1051C84.346 80.1457 83.2843 80.0514 82.1652 79.7957C81.9888 79.7551 81.8207 79.7104 81.6452 79.6658C81.4729 79.6227 80.9487 79.5226 81.1251 79.5367C83.172 79.6997 81.1335 79.5441 80.6051 79.3819Z" fill="#070D1C"/>
<path d="M114.25 36.2531C114.042 36.1056 113.748 36.149 113.6 36.3565C113.422 36.7874 113.283 37.2424 113.054 37.6494C112.622 38.4192 112.001 39.065 111.468 39.7693C110.705 40.7788 109.942 41.7925 109.206 42.821C107.414 45.3249 105.792 47.9487 104.032 50.4749C103.022 51.9238 102.097 53.4265 101.119 54.8968C97.9269 59.6977 94.5738 64.4399 90.7971 68.808C89.0948 70.7773 87.3533 72.7243 85.4929 74.5488C84.0118 76.001 82.4018 77.3159 80.9682 78.8152C80.7078 79.0419 80.662 79.435 80.8908 79.6939C81.1188 79.9538 81.514 79.9728 81.7745 79.7461C84.7132 77.6195 87.2418 74.8931 89.7313 72.2733C95.5239 66.175 100.047 59.1375 104.422 52.0008C105.191 50.7472 105.9 49.4439 106.684 48.1994C107.949 46.1912 109.252 44.2161 110.506 42.2004C111.185 41.1098 111.855 40.0167 112.56 38.9423C112.805 38.57 112.993 38.1645 113.288 37.8305C113.597 37.4803 114.004 37.209 114.355 36.8996C114.503 36.692 114.459 36.4005 114.25 36.2531Z" fill="#070D1C"/>
<path d="M129.124 19.445C123.726 19.7415 118.345 21.4461 113.757 24.2805C110.664 26.1906 107.913 28.5882 105.384 31.1845C103.916 32.6916 102.473 34.2431 101.198 35.9165C97.6875 40.5236 95.0748 45.9806 93.2676 51.4575C92.4522 53.9283 91.9197 56.4744 91.4738 59.0337C91.1251 61.0328 90.8672 62.9773 90.9271 65.0063C90.9063 65.3554 91.1751 65.6575 91.5254 65.679C91.8756 65.7005 92.1802 65.4332 92.201 65.084C92.5754 62.6613 92.706 60.2186 93.241 57.8182C93.7885 55.3656 94.5756 52.9163 95.426 50.5523C97.1758 45.6827 99.6819 41.2145 102.68 37.0026C103.864 35.3394 105.103 33.7375 106.502 32.2447C109.556 28.9848 113.214 26.3026 117.189 24.2546C118.914 23.3657 120.727 22.5707 122.597 22.0308C125.771 21.1143 128.976 20.7865 132.27 20.8673C133.325 20.8931 134.418 20.8482 135.467 20.9707C136.857 21.1326 138.208 21.4218 139.602 21.5654C139.768 21.6081 139.949 21.5241 139.992 21.3585C140.035 21.1929 139.924 21.0134 139.758 20.9707C139.189 20.7314 138.714 20.5244 138.12 20.3501C137.036 20.0321 135.9 19.9044 134.792 19.7036C132.893 19.3596 131.046 19.3394 129.124 19.445Z" fill="#070D1C"/>
<path d="M111.364 85.3815C111.259 85.3509 111.16 85.4055 111.13 85.5106C110.073 87.3393 109.301 89.2838 108.114 91.0438C106.938 92.788 105.461 94.2162 103.954 95.6725C103.696 95.8811 103.64 96.27 103.849 96.5256C104.06 96.7822 104.45 96.8119 104.708 96.6034C107.529 94.6854 109.501 91.9564 110.818 88.8461C110.962 88.506 111.151 88.1899 111.26 87.8374C111.53 86.9628 111.487 86.5176 111.52 85.614C111.55 85.5089 111.47 85.4113 111.364 85.3815Z" fill="#070D1C"/>
<path d="M122.18 89.8023C119.364 91.9677 116.311 93.4596 112.898 94.4832C111.434 94.9217 109.922 95.1393 108.452 95.5431C107.498 95.8046 106.581 96.172 105.669 96.5518C106.665 96.6296 107.669 96.7007 108.66 96.5775C110.191 96.3863 111.719 95.875 113.184 95.4132C116.628 94.3284 119.994 92.7836 122.388 90.0091C122.447 89.9537 122.444 89.861 122.388 89.8023C122.333 89.7444 122.239 89.7468 122.18 89.8023Z" fill="#070D1C"/>
<path d="M148.469 21.4369C148.092 21.558 147.629 21.677 147.272 21.8506C145.722 22.6053 144.454 24.0513 143.424 25.3932C140.687 28.9596 139.57 33.5103 138.874 37.8567C138.736 38.7168 138.561 40.0387 138.484 40.9084C138.352 42.3978 138.399 43.84 138.406 45.3295C138.412 46.6708 138.306 47.998 138.458 49.3376C138.545 50.1105 138.735 50.885 138.926 51.6388C138.942 51.8349 139.118 51.9648 139.316 51.9491C139.513 51.9334 139.67 51.7579 139.654 51.561C139.732 50.6889 139.788 50.1692 139.81 49.2855C139.843 47.9806 139.724 46.6592 139.784 45.3551C139.85 43.9236 140.038 42.4905 140.174 41.0631C140.48 37.8398 140.99 34.6876 141.968 31.5991C142.702 29.2811 143.555 26.9536 145.062 25.0054C146.033 23.7505 147.39 22.7501 148.702 21.8765C148.83 21.8153 148.868 21.6675 148.806 21.5403C148.745 21.4132 148.596 21.3758 148.469 21.4369Z" fill="#070D1C"/>
<path d="M157.828 23.2721C156.885 23.3251 156.008 23.6114 155.124 23.9185C154.989 23.9487 154.911 24.0949 154.942 24.2288C154.972 24.3627 155.093 24.44 155.227 24.4098C157.559 24.1674 159.936 24.3599 162.196 24.9787C163.764 25.408 165.241 26.0219 166.773 26.5561C168.249 27.071 169.752 27.5377 171.244 28.0041C172.403 28.3659 173.748 28.2144 174.937 28.1333C176.968 27.9947 179.119 27.7033 181.125 28.1592C181.849 28.3239 182.581 28.6935 183.231 29.0384C184.775 29.8581 186.195 30.9032 187.495 32.0637C190.695 34.9203 193.384 38.1651 195.504 41.8898C195.773 42.3506 196.367 42.5194 196.829 42.2513C197.293 41.9841 197.437 41.3941 197.168 40.9332C195.847 38.7252 194.262 36.7925 192.513 34.9081C190.571 32.8144 188.47 30.9692 186.091 29.3745C184.876 28.5598 183.599 27.8373 182.243 27.2801C181.971 27.1681 181.697 27.0385 181.411 26.9698C179.117 26.4194 176.729 27.034 174.416 27.2025C173.49 27.27 172.436 27.3662 171.53 27.099C168.68 26.2581 165.991 25.0258 163.158 24.1253C161.459 23.5853 159.623 23.1711 157.828 23.2721Z" fill="#070D1C"/>
<path d="M197.843 43.7263C197.555 43.8678 197.441 44.2401 197.584 44.5273C200.73 51.0525 201.265 58.349 201.978 65.4469C202.193 67.5983 202.365 69.7712 202.68 71.911C202.815 72.8311 203.126 73.7057 203.251 74.6267C203.454 76.0971 203.57 77.56 203.85 79.0221C203.912 79.3473 203.93 79.6891 204.032 80.0051C204.705 82.1094 205.818 84.1019 206.736 86.1068C206.844 86.3964 207.173 86.5511 207.464 86.4435C207.754 86.3351 207.884 86.0083 207.776 85.7195C207.303 84.1325 206.871 82.533 206.346 80.9617C206.177 80.4569 205.975 79.9729 205.826 79.4615C205.669 78.9278 205.624 78.3519 205.514 77.8066C205.396 77.2266 205.289 76.6498 205.149 76.0747C204.941 75.2092 204.624 74.3718 204.5 73.4881C204.417 72.9056 204.44 72.3164 204.396 71.7306C204.326 70.8072 204.184 69.8837 204.084 68.9636C203.711 65.5537 203.291 62.1487 202.835 58.7495C202.152 53.6474 200.981 48.6265 198.624 44.0109C198.481 43.723 198.132 43.584 197.843 43.7263Z" fill="#070D1C"/>
<path d="M203.304 83.4947C202.779 83.3292 202.197 83.6197 202.03 84.1418C201.863 84.6631 202.155 85.2423 202.68 85.4086C204.903 86.0226 203.919 85.7239 204.916 86.0036C205.42 86.1442 203.903 85.7214 203.383 85.6668C203.144 85.642 203.826 85.867 204.058 85.9258C204.567 86.0549 205.089 86.0615 205.592 86.2104C205.847 86.2849 206.603 86.5398 206.346 86.4686C205.122 86.1277 206.34 86.4694 207.127 86.6242C207.365 86.716 207.631 86.6026 207.724 86.3652C207.817 86.1277 207.703 85.8629 207.465 85.7702C205.374 84.6399 206.357 85.0462 205.384 84.6325C204.893 84.424 206.332 85.1265 206.814 85.3565C207.044 85.4666 206.354 85.1289 206.138 84.9949C205.679 84.7086 205.331 84.285 204.864 84.0119C204.625 83.8729 203.854 83.5477 204.084 83.7016C205.184 84.4364 204.089 83.7016 203.304 83.4947Z" fill="#070D1C"/>
<path d="M202.241 84.2685C202.099 84.2412 201.957 84.333 201.93 84.4753C200.772 87.8944 201.115 91.6328 201.877 95.1032C202.027 95.785 202.256 96.322 202.449 96.9906C202.9 98.5478 203.267 100.133 203.697 101.696C204.327 103.981 205.077 106.198 205.439 108.549C206.058 112.551 205.395 116.889 203.151 120.314C202.594 121.165 201.884 121.918 201.228 122.693C200.769 123.213 200.835 124.022 201.357 124.478C201.88 124.933 202.668 124.867 203.125 124.348C204.095 123.288 204.896 122.136 205.596 120.883C208.402 115.857 207.555 110.284 206.116 104.98C205.78 103.743 205.491 102.506 205.101 101.283C204.613 99.751 204.022 98.245 203.645 96.6803C203.136 94.5595 202.627 92.3386 202.423 90.1641C202.248 88.2841 202.347 86.4571 202.449 84.5788C202.477 84.4364 202.384 84.2958 202.241 84.2685Z" fill="#070D1C"/>
<path d="M194.646 103.251C194.42 103.298 194.236 103.432 194.099 103.639C193.826 104.055 193.942 104.609 194.36 104.881C197.604 107.187 200.135 110.497 201.64 114.164C202.071 115.213 202.457 116.277 202.654 117.396C202.979 119.239 202.924 121.877 201.406 123.214C201.237 123.406 201.239 123.693 201.432 123.861C201.624 124.028 201.94 124 202.108 123.809C202.54 123.183 203.055 122.624 203.356 121.921C205.191 117.643 202.605 112.384 200.418 108.811C199.101 106.66 197.544 104.697 195.347 103.381C195.139 103.245 194.872 103.204 194.646 103.251Z" fill="#070D1C"/>
<path d="M190.019 117.369C189.791 117.254 189.511 117.349 189.395 117.576C189.08 118.434 188.729 118.51 188.095 119.076C187.161 119.91 186.057 120.49 184.923 121.015C184.013 121.436 183.193 121.699 182.401 122.334C182.141 122.399 181.999 122.644 182.063 122.903C182.128 123.162 182.375 123.33 182.635 123.265C182.891 123.306 183.156 123.393 183.416 123.394C184.095 123.397 184.345 123.224 184.949 122.955C186.284 122.361 187.373 121.573 188.408 120.55C188.699 120.261 189.052 120.021 189.266 119.671C189.406 119.439 189.471 119.158 189.603 118.921C189.786 118.594 190.024 118.303 190.227 117.99C190.343 117.762 190.248 117.484 190.019 117.369Z" fill="#070D1C"/>
<path d="M184.895 99.422C184.793 99.4609 184.726 99.5792 184.765 99.681C185.109 101.236 185.534 102.8 185.961 104.335C186.159 105.047 186.353 105.627 186.507 106.352C187.688 111.903 187.432 118.549 182.113 121.841C181.897 121.978 181.844 122.273 181.983 122.487C182.121 122.702 182.392 122.755 182.607 122.617C183.541 122.002 184.461 121.308 185.207 120.471C188.667 116.586 188.38 110.923 187.417 106.171C187.301 105.6 187.147 104.643 187.001 104.076C186.601 102.525 185.936 100.948 185.155 99.5511C185.117 99.4501 184.997 99.384 184.895 99.422Z" fill="#070D1C"/>
<path d="M194.1 120.419C193.952 120.35 193.779 120.401 193.71 120.549C193.291 121.621 192.793 122.686 192.514 123.806C191.506 127.863 191.977 132.389 194.256 135.959C194.901 136.97 195.694 137.907 196.596 138.701C196.828 138.905 197.055 139.117 197.324 139.269C197.596 139.423 197.889 139.497 198.183 139.606C198.374 139.726 198.634 139.667 198.754 139.476C198.875 139.286 198.817 139.027 198.625 138.908C198.007 138.302 197.314 137.855 196.674 137.278C196.06 136.726 195.547 136.101 195.088 135.416C193.314 132.771 192.726 129.627 192.826 126.496C192.888 124.541 193.285 122.531 194.231 120.807C194.299 120.659 194.249 120.488 194.1 120.419Z" fill="#070D1C"/>
<path d="M187.367 121.791C187.117 121.747 186.865 121.904 186.821 122.152C186.394 124.023 186.027 125.881 185.806 127.79C185.6 129.579 185.558 131.432 186.222 133.142C186.635 134.201 187.323 135.11 188.069 135.96C189.719 137.841 191.856 139.655 194.257 140.485C195.313 140.85 196.518 141.059 197.586 140.615C198.244 140.341 198.836 139.688 199.301 139.167C199.424 138.943 199.344 138.668 199.119 138.546C198.894 138.424 198.618 138.503 198.495 138.727C198.434 138.967 198.394 139.262 198.261 139.477C197.656 140.452 195.914 140.267 195.037 139.994C192.577 139.229 190.395 137.293 188.771 135.366C188.115 134.588 187.485 133.741 187.133 132.78C186.181 130.188 186.948 127.284 187.393 124.687C187.523 123.929 187.636 123.069 187.731 122.307C187.774 122.059 187.617 121.834 187.367 121.791Z" fill="#070D1C"/>
<path d="M204.292 121.12C204.072 121.249 204.007 121.521 204.137 121.74C204.871 123.478 205.711 125.105 205.879 127.015C205.989 128.267 205.858 129.557 205.645 130.79C204.656 136.511 200.662 141.485 197.273 146.021C195.767 148.034 194.204 150.016 192.722 152.046C190.579 154.981 188.592 158.009 186.637 161.07C185.844 162.313 185.23 163.63 184.635 164.975C183.6 167.316 182.743 169.705 182.218 172.215C181.875 173.855 181.732 175.536 181.645 177.205C181.496 180.087 181.624 182.956 182.192 185.79C183.369 191.674 185.894 197.173 189.03 202.262C189.352 202.784 190.039 202.945 190.564 202.624C191.089 202.303 191.251 201.62 190.928 201.098C187.255 195.166 184.571 189.093 183.803 182.119C183.628 180.522 183.545 178.915 183.648 177.309C183.88 173.665 184.888 169.965 186.3 166.604C187.903 162.787 190.164 159.268 192.514 155.873C197.317 148.936 203.164 142.36 206.087 134.333C206.577 132.987 206.982 131.623 207.153 130.196C207.515 127.168 206.834 123.706 204.942 121.275C204.813 121.055 204.514 120.991 204.292 121.12Z" fill="#070D1C"/>
<path d="M177.979 151.397C177.771 151.294 177.511 151.371 177.408 151.579C176.902 152.215 176.142 153.136 175.744 153.854C175.108 154.998 174.684 156.327 174.235 157.551C173.508 159.536 172.882 161.514 172.415 163.577C171.571 167.306 171.162 171.159 171.505 174.98C171.637 176.446 171.922 177.882 172.207 179.324C172.42 180.396 172.603 181.5 172.987 182.53C173.499 183.901 174.093 185.298 174.833 186.564C175.22 187.226 175.648 187.828 176.056 188.477C177.761 191.193 179.779 193.684 182.061 195.95C183.642 197.52 185.294 198.919 187.08 200.243C187.453 200.519 187.779 200.873 188.172 201.121C188.576 201.378 189.044 201.553 189.472 201.768C189.554 201.828 189.672 201.797 189.732 201.716C189.792 201.635 189.762 201.518 189.68 201.458C189.347 201.119 189.05 200.762 188.692 200.45C188.346 200.148 187.927 199.914 187.574 199.622C186.563 198.787 185.584 197.89 184.61 197.011C183.089 195.637 181.648 194.116 180.346 192.537C177.766 189.409 175.81 185.817 174.599 181.961C174.181 180.63 173.653 179.359 173.403 177.979C172.694 174.07 172.816 170.084 173.533 166.188C174.034 163.467 174.859 160.748 175.873 158.172C176.345 156.974 176.99 155.836 177.433 154.629C177.75 153.766 177.932 152.855 178.161 151.966C178.265 151.759 178.188 151.5 177.979 151.397Z" fill="#070D1C"/>
<path d="M183.648 171.903C183.42 171.816 183.163 171.934 183.076 172.161C182.988 172.388 183.082 172.643 183.31 172.73C183.733 172.986 184.138 173.294 184.584 173.506C185.873 174.12 187.375 174.376 188.745 174.747C191.025 175.365 193.426 175.802 195.79 175.962C196.763 176.028 197.755 175.903 198.729 175.911C199.22 175.915 199.695 175.998 200.185 176.04C200.441 176.046 200.647 175.855 200.653 175.6C200.659 175.346 200.467 175.115 200.211 175.109C199.723 175.127 199.242 175.194 198.755 175.161C197.803 175.096 196.867 174.844 195.921 174.721C193.607 174.42 191.347 174.05 189.082 173.48C187.718 173.136 186.437 172.534 185.079 172.187C184.606 172.066 184.128 171.99 183.648 171.903Z" fill="#070D1C"/>
<path d="M155.333 87.8376C155.197 87.7615 155.019 87.807 154.943 87.941C154.866 88.0751 154.912 88.253 155.047 88.3291C155.569 88.8463 156.089 89.3998 156.711 89.8028C157.808 90.5152 159.128 90.8719 160.377 91.1995C161.55 91.5073 162.437 91.7076 163.627 91.9492C166.477 92.5284 169.365 92.9182 172.233 93.3973C176.994 94.1933 181.923 95.2044 186.092 97.767C187.136 98.4083 187.937 99.2713 188.796 100.12C189.344 100.661 189.981 101.067 190.564 101.568C190.374 100.77 190.245 100.004 189.758 99.3185C189.167 98.4861 188.293 97.7737 187.496 97.1464C185.756 95.7762 183.929 94.7626 181.828 94.0435C176.582 92.2488 171.072 91.528 165.655 90.449C164.061 90.1321 162.456 89.7978 160.897 89.3378C159.73 88.9935 158.574 88.5583 157.386 88.2778C156.698 88.1148 156.021 88.0072 155.333 87.8376Z" fill="#070D1C"/>
<path d="M146.78 -0.155682C141.996 -0.475244 137.069 -0.166769 132.454 1.18893C126.884 2.8248 121.417 6.30127 120.311 12.3854C120.075 13.685 120.014 15.0286 120.129 16.3417C120.251 17.7263 120.38 18.6706 121.014 19.936C121.16 20.3812 121.632 20.6251 122.079 20.4789C122.527 20.3327 122.772 19.8382 122.625 19.3929C122.27 17.2782 121.502 15.4051 121.767 13.2129C122.656 5.86015 130.733 2.64765 137.108 1.57676C138.552 1.33415 139.99 1.23204 141.45 1.16303C144.106 1.03767 146.787 1.06895 149.433 1.36989C150.339 1.47308 151.234 1.65065 152.137 1.78362C153.042 1.91717 153.945 1.98353 154.841 2.17153C156.174 2.45137 157.495 2.82952 158.819 3.15413C159.696 3.36927 160.596 3.52591 161.471 3.74882C162.75 4.07475 164.028 4.54144 165.267 4.99C167.621 5.8417 169.906 6.88512 172.053 8.17056C176.177 10.6379 180.584 14.2867 181.337 19.3154C181.539 20.6722 181.384 22.0158 181.154 23.3492C180.952 24.5186 180.481 25.7284 179.854 26.7365C179.735 26.9616 179.81 27.2641 180.036 27.383C180.262 27.5019 180.54 27.4012 180.66 27.1762C180.896 26.6498 181.204 26.1487 181.44 25.6247C182.074 24.2194 182.443 22.6345 182.532 21.0995C182.645 19.1605 181.946 17.2174 181.102 15.5142C179.134 11.5455 175.367 8.71048 171.56 6.59327C168.464 4.87151 165.197 3.62263 161.861 2.45601C160.536 1.99222 159.26 1.56931 157.883 1.26646C156.969 1.06547 156.024 0.952609 155.101 0.801102C154.176 0.64943 153.273 0.385225 152.345 0.258045C150.518 0.00774046 148.62 -0.0328047 146.78 -0.155682Z" fill="#070D1C"/>
<path d="M167.942 90.9143C166.021 91.6366 164.021 92.1621 162.118 92.9308C159.771 93.8799 157.514 95.1152 155.435 96.5517C155.08 96.7966 154.723 97.0473 154.447 97.3792C154.157 97.7283 154.035 98.1925 153.745 98.5425C153.62 98.694 153.455 98.8057 153.303 98.9298C153.122 99.0605 153.068 99.293 153.199 99.4734C153.331 99.653 153.59 99.7076 153.771 99.5769C153.934 99.4743 154.083 99.3278 154.265 99.2666C154.489 99.1904 155.314 99.1838 155.54 99.1367C156.12 99.0175 156.659 98.6956 157.204 98.4904C158.405 98.0395 159.629 97.711 160.843 97.3014C163.686 96.3415 166.38 95.054 169.138 93.8881C169.961 93.5596 170.353 92.6114 170.022 91.7938C169.692 90.9755 168.764 90.5858 167.942 90.9143Z" fill="#070D1C"/>
<path d="M119.555 91.2249C119.064 91.4003 118.651 91.752 118.41 92.2592C117.93 93.2729 118.354 94.4967 119.373 94.9741C120.895 95.5277 122.418 95.9853 123.897 96.6547C125.345 97.3108 126.739 98.1259 128.214 98.7233C128.969 99.0303 129.752 99.2562 130.502 99.5772C130.877 99.7378 131.208 99.9595 131.593 100.094C131.995 100.234 132.428 100.306 132.841 100.405C133.063 100.532 133.337 100.444 133.465 100.223C133.594 100.003 133.531 99.7303 133.31 99.6029C133.018 99.2943 132.747 98.9484 132.425 98.672C131.806 98.14 131.084 97.713 130.449 97.1983C128.542 95.651 126.4 94.4876 124.287 93.2423C123.214 92.6093 122.191 91.9307 121.115 91.3027C120.605 91.0636 120.046 91.0495 119.555 91.2249Z" fill="#070D1C"/>
<path d="M151.146 130.921C150.888 130.668 150.463 130.69 150.21 130.946C148.779 132.036 147.658 133.484 146.153 134.489C145.495 134.93 144.685 135.335 143.918 135.549C141.526 136.215 139.882 135.044 138.223 133.48C137.452 132.753 136.772 132.055 136.169 131.179C136.057 131.017 135.837 130.964 135.675 131.075C135.513 131.186 135.459 131.405 135.572 131.567C136.267 132.567 136.913 133.678 137.781 134.541C139.035 135.785 141.023 136.906 142.852 136.842C143.98 136.803 145.168 136.44 146.153 135.911C147.051 135.429 147.968 134.876 148.754 134.23C149.644 133.498 150.455 132.774 151.146 131.851C151.4 131.595 151.404 131.172 151.146 130.921Z" fill="#070D1C"/>
<path d="M176.004 98.7774C175.65 98.8626 175.325 99.0645 175.12 99.398C174.873 99.6412 174.598 99.9416 174.314 100.148C174.063 100.33 173.778 100.45 173.533 100.639C173.205 100.894 173.231 100.943 172.909 101.208C172.577 101.481 172.179 101.654 171.818 101.88C170.826 102.501 169.767 102.947 168.593 103.147C167.856 103.273 167.101 103.227 166.358 103.303C165.97 103.342 165.6 103.434 165.213 103.483C164.63 103.558 164.03 103.568 163.446 103.639C162.658 103.734 161.902 103.956 161.131 104.13C160.02 104.38 158.881 104.551 157.829 105.009C156.013 105.801 154.62 107.505 153.98 109.353C153.742 110.041 153.593 110.751 153.538 111.474C153.483 111.722 153.653 111.961 153.903 112.017C154.152 112.072 154.393 111.929 154.449 111.681C154.616 111.256 154.725 110.787 154.89 110.362C155.376 109.117 156.221 107.951 157.387 107.259C158.59 106.545 160.011 106.061 161.417 105.992C162.148 105.956 162.87 106.046 163.601 106.043C164.18 106.042 164.764 106.004 165.343 106.018C165.742 106.028 166.141 106.104 166.539 106.095C167.346 106.079 168.153 105.881 168.957 105.811C169.367 105.775 169.77 105.797 170.179 105.759C171.182 105.664 172.332 105.503 173.299 105.19C173.936 104.985 174.507 104.611 175.067 104.259C175.489 103.996 175.84 103.798 176.186 103.432C176.838 102.74 177.22 101.748 177.538 100.872C177.948 100.206 177.74 99.34 177.069 98.9321C176.735 98.7286 176.358 98.6921 176.004 98.7774Z" fill="#070D1C"/>
<path d="M176.551 98.9838C175.51 98.791 174.509 99.4736 174.315 100.51C174.361 101.521 174.224 102.476 174.107 103.483C173.954 104.788 173.849 106.173 173.483 107.439C173.334 107.953 173.06 108.398 172.91 108.913C172.853 109.114 172.755 109.698 172.676 109.895C172.377 110.657 171.599 111.357 170.908 111.757C170.67 111.851 170.554 112.115 170.649 112.352C170.743 112.589 171.008 112.705 171.246 112.611C172.581 112.275 173.063 111.755 174.003 110.827C174.463 110.372 174.9 109.994 175.198 109.405C175.39 109.028 175.502 108.604 175.667 108.215C176.393 106.504 177.016 104.792 177.486 102.992C177.647 102.38 177.827 101.786 178.085 101.207C178.279 100.172 177.592 99.1765 176.551 98.9838Z" fill="#070D1C"/>
<path d="M110.688 101.05C110.369 101.187 110.099 101.452 109.96 101.799C109.683 102.494 110.042 103.282 110.741 103.558C112.233 104.129 113.73 104.856 115.317 105.135C116.586 105.358 117.929 105.501 119.217 105.548C120.928 105.612 122.602 105.552 124.261 105.989C125.315 106.266 126.345 106.466 127.252 107.126C128.227 107.837 128.956 108.766 129.643 109.738C130.18 110.497 130.402 110.807 130.631 111.729C130.725 111.966 131.017 112.08 131.255 111.988C131.493 111.894 131.609 111.629 131.515 111.393C131.121 110.68 130.91 109.945 130.553 109.221C130.079 108.258 129.259 107.227 128.395 106.583C127.309 105.774 125.968 104.936 124.651 104.566C124.266 104.458 123.872 104.418 123.481 104.334C122.504 104.122 121.534 103.866 120.543 103.713C119.729 103.587 118.903 103.512 118.099 103.325C117.343 103.15 116.611 102.858 115.863 102.652C115.672 102.6 115.483 102.545 115.29 102.498C115.266 102.492 115.254 102.508 115.213 102.498C114.051 102.007 112.896 101.526 111.728 101.05C111.379 100.911 111.008 100.912 110.688 101.05Z" fill="#070D1C"/>
<path d="M111.285 103.431C110.637 103.415 110.079 103.924 110.063 104.569C111.55 108.344 110.83 106.973 111.571 108.344C112.115 109.35 110.691 106.196 110.063 105.241C109.929 105.038 110.003 105.748 110.011 105.991C110.027 106.467 110.141 106.923 110.245 107.387C110.501 108.525 110.914 109.663 111.623 110.593C111.764 110.778 111.899 110.977 112.039 111.163C112.177 111.346 112.521 111.925 112.455 111.706C111.739 109.3 112.452 111.714 113.053 112.119C113.191 112.334 113.462 112.386 113.677 112.248C113.893 112.111 113.971 111.842 113.833 111.628C113.662 110.777 113.743 111.158 113.651 110.775C113.6 110.671 113.545 110.5 113.495 110.361C113.426 110.167 113.361 109.966 113.314 109.766C113.043 108.631 112.633 107.556 112.533 106.378C112.517 106.19 112.531 105.999 112.507 105.81C112.484 105.62 112.361 105.054 112.403 105.241C112.887 107.367 112.406 105.235 112.429 104.621C112.445 103.976 111.933 103.447 111.285 103.431ZM113.651 110.775C113.671 110.815 113.739 110.986 113.73 110.929C113.576 109.983 113.075 107.154 113.131 108.111C113.193 109.161 113.365 109.583 113.651 110.775Z" fill="#070D1C"/>
<path d="M166.019 142.347C165.016 142.811 164.268 143.708 163.315 144.287C161.422 145.436 159.373 146.592 157.231 147.209C155.579 147.684 154.019 147.714 152.317 147.751C150.962 147.782 149.517 147.956 148.183 148.192C146.938 148.412 145.852 149.118 144.62 149.406C144.274 149.487 143.894 149.658 143.529 149.588C142.472 149.384 141.557 148.559 140.46 148.476C140.073 148.446 139.545 148.585 139.212 148.631C138.366 148.746 137.531 148.899 136.69 149.045C133.993 149.511 131.04 150.17 128.292 150.053C127.191 150.006 126.2 149.953 125.51 148.993C125.347 148.796 125.057 148.779 124.859 148.941C124.662 149.103 124.619 149.391 124.782 149.588C125.975 150.868 127.802 151.026 129.462 150.932C131.949 150.791 134.389 150.328 136.846 149.95C137.679 149.822 138.509 149.71 139.343 149.588C139.734 149.53 140.206 149.395 140.616 149.511C141.319 149.708 141.823 150.28 142.463 150.596C143.038 150.881 143.415 150.932 144.049 150.959C144.874 150.993 145.674 150.613 146.441 150.364C147.602 149.986 148.864 149.593 150.081 149.458C152.089 149.237 154.129 149.439 156.139 149.123C159.047 148.664 161.772 147.162 164.096 145.425C164.997 144.751 166.178 144.155 166.774 143.175C167.002 142.968 167.034 142.626 166.826 142.399C166.618 142.172 166.248 142.14 166.019 142.347Z" fill="#070D1C"/>
<path d="M153.747 152.148C153.564 152.119 153.39 152.16 153.227 152.277C152.216 152.765 151.146 153.324 150.056 153.621C147.165 154.41 143.716 154.527 140.773 154.138C139.91 154.025 139.028 153.838 138.172 153.673C137.925 153.609 137.692 153.737 137.627 153.984C137.563 154.229 137.692 154.488 137.939 154.552C141.478 155.711 144.824 155.916 148.521 155.561C149.973 155.422 151.532 155.394 152.811 154.604C153.303 154.301 153.659 153.847 154.059 153.441C154.384 153.207 154.477 152.755 154.242 152.432C154.124 152.271 153.931 152.177 153.747 152.148Z" fill="#070D1C"/>
<path d="M160.952 108.462C160.952 106.405 162.751 104.737 164.97 104.737C167.189 104.737 168.989 106.405 168.989 108.462C168.989 110.518 167.189 112.186 164.97 112.186C162.751 112.186 160.952 110.518 160.952 108.462Z" fill="#070D1C"/>
<path d="M117.377 108.462C117.377 106.405 118.957 104.737 120.906 104.737C122.856 104.737 124.436 106.405 124.436 108.462C124.436 110.518 122.856 112.186 120.906 112.186C118.957 112.186 117.377 110.518 117.377 108.462Z" fill="#070D1C"/>
</g>
<defs>
<radialGradient id="paint0_radial_2137_1884" cx="0" cy="0" r="1" gradientUnits="userSpaceOnUse" gradientTransform="translate(169.189 124.57) scale(15.1603 14.8865)">
<stop stop-color="#DEA88E"/>
<stop offset="1" stop-color="#F5E8D6"/>
</radialGradient>
<radialGradient id="paint1_radial_2137_1884" cx="0" cy="0" r="1" gradientUnits="userSpaceOnUse" gradientTransform="translate(117.363 123.989) scale(12.5623 13.5994)">
<stop stop-color="#DEA88E"/>
<stop offset="1" stop-color="#F5E8D6"/>
</radialGradient>
<clipPath id="clip0_2137_1884">
<rect width="322" height="270" fill="white"/>
</clipPath>
</defs>
</svg>
