<svg xmlns="http://www.w3.org/2000/svg" xmlns:xlink="http://www.w3.org/1999/xlink" width="198" height="579" fill="none"><path d="M73.319 380.241l-19.748-16.305-22.26 3.105s-1.502 6.514-1.559 15.271c-.032 4.975-.241 9.231-.952 12.522-.926 4.284-2.874 6.312-3.646 15.431-.425 5.011-.896 1.721-.046 20.987s4.688 47.538 4.688 47.538.6 15.649-.142 22.655-2.28 8.113-2.546 11.704 2.029 4.821 2.029 4.821 14.716 4.154 20.034 2.346c5.318-1.814.782-6.187 1.425-10.296 2.005-12.818 3.52-21.906 7.734-40.793s6.902-19.993 8.934-34.056-.262-21.154.739-26.432l5.314-28.498zm34.742-2.789l-1.902 10.585s-3.872 6.669-6.17 21.54-2.798 23.649-3.445 37.072c-1.17 24.242-5.848 41.054-5.848 41.054l3.336 6.901 9.801 1.614 6.689-5.035s5.118-20.098 13.934-42.253 21.333-46.364 21.333-46.364 1.72-7.046 1.983-15.583.846-18.657.846-18.657l-40.556 9.126zm27.082-191.264s.725 2.758 1.873 5.601 3.253 5.853 3.253 5.853 3.259 9.463 8.585 19.306 6.304 8.958 12.186 19.983 11.015 24.517 11.015 24.517-1.855 5.734-2.233 10.443c-.457 5.702 2.407 7.27 2.407 10.59 0 2.931.982 9.701 1.123 10.75.444 3.301 3.557 1.212 4.037.546 1.483-2.062 2.392-8.419 2.392-8.419l.439 10.324c-4.12 10.231-3.186 9.44-3.186 9.44s.817 2.114 2.602 1.3 4.536-4.559 4.536-4.559 1.131 2.105 1.541 1.57c1.644-2.137 5.153-11.46 5.153-11.46s.238-.916.477-1.196c4.695-5.492 5.183-12.207 4.495-16.191-1.533-8.879-6.101-19.81-6.101-19.81l-2.723-1.452s-5.246-9.218-8.196-20.1c-2.62-9.663-4.428-22.645-6.246-29.885-2.526-10.058-8.413-19.723-8.413-19.723l-8.304-10.067c-.752-1.048-20.712 12.639-20.712 12.639z" fill="#f5e8d6"/><path d="M178.48 274.158s3.536 5.817 3.73 11.611-2.954 11.565-2.954 11.565l.329-9.887-1.105-13.289z" fill="#e3caba"/><path d="M122.131 100.137s2.874 11.781-.763 20.281-5.444 11.169-13.785 13.718-11.955 2.217-21.35-2.743-16.232-17.096-16.232-17.096l-4.187-16.63s4.413-.703 7.505-4.456 4.974-11.177 4.974-11.177l-2.054-6.454s1.881-1.717 1.97-5.247-1.827-6.674-.425-10.085c2.086-5.075 6.219-11.078 6.219-11.078s6.161-.143 10.123-.995 10.863-7.337 10.863-7.337.312 6.135 4.684 9.833 12.542 6.589 12.542 6.589l4.043 3.836s-1.651 9.873-5.767 12.32c-2.973 1.768 2.835.032 2.835.032s-3.758 7.473-7.42 12.043-7.231 6.239-7.231 6.239-.831 1.262.6 2.626 5.123 2.828 5.123 2.828l7.733 2.953z" fill="#f5e8d6"/><path d="M73.492 382.812l-5.201 23.262s.562-16.4-.698-20.293-4.372-10.465-4.372-10.465l10.27 7.496zm30.199 11.927c2.582 5.133 7.404-.569 15.388 3.113s9.832 10.51 16.608 10.711 10.391-6.318 11.696-11.359c2.627-10.145 1.139-28.552 1.139-28.552l-39.26 8.417s-6.31 16.2-5.571 17.67zm40.847-211.01l-9.403 2.931 3.518 8.347 6.716 15.292 6.333 10.768s-4.221-12.839-6.013-22.174-1.151-15.164-1.151-15.164zm-59.78-92.782s9.331 16.902 18.933 19.317c12.403 3.119 18.727-2.784 17.922-3.832s-.433-7.397-.433-7.397l-10.707-3.823-1.3-3.575s-7.715 3.445-13.819 3.273-10.596-3.962-10.596-3.962z" fill="#e3caba"/><path opacity=".698" d="M50.843 376.579c-6.065.817-10.044 2.876-13.184 8.384s-3.568 10.697 1.855 15.494 13.272 5.65 19.836 3.696 5.78-5.899 6.422-11.514-.428-7.391-3.853-10.945-5.011-5.932-11.076-5.115z" fill="url(#A)"/><path opacity=".698" d="M138.874 380.269c3.039 1.238 6.349 10.463 6.349 10.463l-1.864 11.324-8.852 2.97s-5.1-.887-9.106-3.764-6.921-7.745-6.921-7.745l7.023-10.765s3.929 3.679 7.562 3.029 2.769-6.75 5.809-5.512z" fill="url(#B)"/><path opacity=".698" d="M180.42 293.948l-3.193 12.474 2.442.811 3.319-4.303 2.316.561s4.056-7.569 6.796-14.056 4.163-11.892 4.163-11.892l-3.444-13.285-8.14-.188-6.263 8.608s3.523 9.582 3.523 11.221c0 2.144-1.519 10.049-1.519 10.049z" fill="url(#C)"/><path opacity=".461" d="M93.876 62.448c3.817 2.503 2.092 3.622 1.718 6.793s-1.886 5.342-6.306 6.403-8.681.822-11.372-2.159-.5-5.884.102-9.448-.758-4.619 2.307-4.809c2.357-.146 6.685 1.144 10.37 2.522 1.106.414 2.3.119 3.182.697z" fill="url(#D)"/><path opacity=".473" d="M105.218 67.357c3.594-1.828 6.38 1.686 10.369 1.951s4.767-3.43 5.588-.89.509 7.515-2.3 11.046-4.52 3.79-8.936 3.079-7.548-2.124-8.728-5.921.413-7.436 4.007-9.264z" fill="url(#E)"/><path opacity=".951" d="M89.076 486.443c-1.665 3.628-.94 23.484-.94 23.484s5.304 2.539 10.333 8.147 9.781 12.056 9.781 12.056 7.063 6.41 13.867 8.526c5.562 1.736 10.692 2.195 13.025.907 4.536-2.502 5.177-5.16 5.33-11.789.064-2.747-1.89-6.896-4.478-9.371-1.308-1.256-3.059-4.832-3.059-4.832s-3.682-2.65-5.288-5.141c-.337-.523 1.637-1.017 1.289-1.503-.587-.817-.612-.725-1.289-1.438-.422-.445-2.716-.037-3.076-.431-2.905-3.181-3.259-4.211-3.259-4.211l1.012-.871-2.206-2.827h-1.707s-1.959-6.052-3.858-7.191c-1.996-1.197-8.047-.565-10.503 1.206-.708.511.888 5.497.535 5.396-1.198-.341-6.793-.341-10.154-2.208-4.064-2.259-3.69-11.537-5.356-7.909zm-36.31 30.573s1.492 6.583 1.848 11.305c.692 9.209-6.957 18.33-6.957 18.33s-1.718 10.638-7.759 18.247c-5.526 6.958-11.175 11.956-16.21 12.337-7.637.578-10.799-3.377-13.92-7.766-4.128-5.806-.93-16.532-.93-16.532s7.14-11.399 11.244-21.255c3.43-8.235 6.68-18.45 6.68-18.45s1.265 5.144 2.146 5.17-.545-5.42 3.5-6.332 9.215 1.162 11.94 2.616c3.696 1.97 1.389 6.713 1.389 6.713l4.482-1.36 2.547-3.023z" fill="#fff7f7"/><path opacity=".604" d="M52.684 516.568l-1.889 3.19s-4.417 1.616-4.696 1.267-7.99 15.192-7.99 15.192l-3.467 9.033s-3.965 12.363-3.693 16.49 1.704 7.704 1.704 7.704l.155 3.049s3.811-1.71 7.476-8.115c3.664-6.411 7.182-17.513 7.182-17.513l6.638-11.867s.644-5.082.288-9.689-1.708-8.741-1.708-8.741z" fill="#bfc4c6"/><path d="M171.58 348.689c-3.584-15.54-6.864-48.426-6.864-48.426s-3.814-30.262-12.079-53.463c-5.645-15.847-11.021-26.951-14.901-41.27s-2.334-18.962-2.334-18.962 6.818-2.035 12.25-5.521 9.96-6.069 10.061-8.838l-2.934-8.799s-4.849-17.788-7.288-30.261-3.976-21.912-4.949-27.634c-.519-3.047-5.731-2.25-11.015-3.55-5.786-1.424-8.485-4.259-10.743-3.725 0 0 1.138 6.07.822 12.687s-2.88 12.23-3.833 14.46c-1.268 2.966-6.629 6.098-15.236 6.609s-14.476-1.706-19.21-5.319c-10.063-7.68-14.596-25.493-17.519-30.942-1.128-2.102-7.834-1.706-15.071.555l-16.965 5.227c-6.801 2.075-6.25 18.11-6.25 18.11l5.769 55.28c.323 3.107 11.184-4.751 19.634-3.375s14.673 7.094 14.673 7.094l-9.538 35s-12.101 28.961-27.51 53.725c-15.119 24.298-15.758 30.314-22.961 48.978s-7.657 21.142-5.848 25.675c1.668 4.181 10.818 5.424 17.957 11.745s8.251 13.28 10.598 13.541c9.369 1.038 13.012-1.261 23.514 2.462s15.205 14.531 30.168 16.25 19.293-7.701 31.394-7.951c6.27-.13 13.373 8.747 17.022 8.09 7.111-1.28 9.168-13.687 9.168-13.687s5.009-4.731 12.885-5.201c4.244-.254 5.266-6.228 7.52-7.679 4.302-2.771 10.204-8.322 9.612-10.885z" fill="#c46b57"/><g fill="#a05b52"><path d="M58.086 216.745s11.802 9.848 22.76 21.784 16.149 25.855 16.149 25.855l22.855 8.22s2.278-2.986 3.872-4.49 3.983-1.791 3.983-1.791 3.164-1.952 4.904-5.078c1.685-3.03 1.955-7.223 1.476-8.055-1.409-2.443-17.115-2.339-17.115-2.339l-15.278-18.077-40.816-26.526-2.79 10.497zm81.838-57.788s-10.835 12.601-29.49 12.684-44.471-12.486-44.471-12.486 1.66 4.568 2.331 9.269-.698 9.934 0 11.86c1.274 3.518 4.837 2.301 4.837 2.301s.19-5.423 2.579-5.423c9.488 0 34.412-1.103 34.412-1.103l24.329 2.703s-.031-4.429 1.125-7.466 2.411-1.595 3.498-4.68.85-7.659.85-7.659z"/><path d="M67.464 142.416c.685 6.705-1.577 12.596-.936 15.942 1.067 5.567 2.02 15.903 1.38 19.949-.313 1.978-7.825-4.879-7.825-4.879s2.213-14.846 3.14-25.318.566-16.573.566-16.573 2.99 4.174 3.675 10.879zm67.648 28.381l-.217 15.742 5.223-1.888 6.453-2.332s-3.864-3.896-5.643-7.899-1.471-8.113-1.471-8.113l-4.345 4.49zM80.794 386.234s-2.356-17.212-3.397-39.183 3.72-40.867 3.989-44.613-11.491 58.329-11.491 58.329l-2.299 16.561s.51 2.391 4.938 5.12 8.26 3.786 8.26 3.786zm60.13-11.326l2.867-4.422 4.837-1.228-14.364-57.738 4.995 47.356 1.665 16.032zm23.594-70.465l7.55 46.006-9.376 8.466-4.866 5.02c-.697.416 2.055-17.172 2.055-17.172l4.637-42.32z"/></g><path d="M67.389 179.728c7.714 8.329 18.919 23.092 18.919 23.092s2.372-.619 4.72.313 4.671 3.413 4.671 3.413 3.698-.491 7.054 1.459 6.369 6.342 6.369 6.342 6.071 6.395 8.084 6.816c3.236.676 7.261-8.316 10.501-7.751 3.152.551 1.725 3.97 1.725 3.97s3.796 1.037 3.598 2.316c-.437 2.827-3.988 9.117-3.988 9.117l-5.895 3.804-4.939.581s-18.019-.773-20.554-2.365l-17.126-13.098c-28.978-18.04-32.257-14.638-39.538-23.439-2.421-2.926-4.969-7.54-4.969-7.54l-.547-11.421s8.09-4.637 15.908-3.927c12.195 1.106 14.435 6.618 16.009 8.318z" fill="#f5e8d6"/><path opacity=".705" d="M78.02 216.874l4.021-6.306a195.43 195.43 0 0 0 10.556 6.005c8.512 4.495 14.779 2.051 14.779 2.051l.561-2.685-6.303-5.013-5.882-4.678s6.229.966 11.204 5.131c4.64 3.885 9.301 9.123 9.301 9.123l11.105-7.23 5.046 5.93-2.287 7.239-5.432 5.821-22.992-.119-23.677-15.269z" fill="url(#F)"/><path d="M78.1 72.027c-2.166 5.944-9.586 11.931-9.586 11.931s3.127-3.524 2.366-10.573c-.396-3.657-1.082-4.919-3.044-8.96-1.546-3.182-1.538-10.73-1.538-10.73l-2.332 1.977s-.428-3.017 1.849-6.341 7.037-6.778 7.037-6.778l-3.659-2.497s2.469-.369 4.127-1.012 2.503-1.562 2.503-1.562l-3.783-2.124 8.336-4.72s1.763-6.64 5.857-11.609 10.518-8.265 10.518-8.265l5.305-.442s-1.063-5.809 3.403-7.318 6.424-1.775 14.46 1.283 10.934 4.074 14.163 8.501-1.25 9.207-1.25 9.207 4.299 3.423 6.011 9.067.84 13.508.84 13.508-1.142 9.468-.197 12.288c.425 1.27-3.373-.94-3.373-.94l.202 14.026c.107 5.046-4.298 7.24-4.298 7.24s1.901 3.36-.269 5.31c-4.257 3.828-10.362 13.24-10.362 13.24s-2.923 4.358-1.307 8.174c.56 1.322 1.089 4.02 2.221 5.251 2.134 2.322 5.084 2.813 5.084 2.813s-6.154 2.279-9.228-1.769-2.793-8.058-3.065-14.423 2.71-12.64 2.71-12.64l5.437-9.604s-5.402 1.516-3.986.63c.81-.506 4.894-3.479 5.162-7.882s-4.092-9.73-4.092-9.73-6.883-2.239-10.778-5.945-4.802-8.88-4.802-8.88-4.758 4.481-9.893 6.353-10.647 1.135-10.647 1.135-4.645 5.855-6.073 10.817c-1.577 5.481 2.135 6.047-.03 11.991z" fill="#e0bd6f"/><path d="M83.155 50.59s-1.093-.068-2.309-.696-3.259-1.813-2.556-1.813c1.311 0 2.864-1.542 2.864-1.542l-7.663-.656c-2.846-.329-3.722-.663-3.722-.663l3.092-2.284 8.526 1.592 6.196.32-3.362 3.106-2.72.251 2.628 1.112-.975 1.275z" fill="#b69c65"/><path d="M106.693 63.983s2.134 2.413 4.643 3.145 5.394-.216 5.394-.216l3.121-4.524-5.134-.639-5.602.205-2.422 2.028zm-13.311-3.402c.104.293-3.458.675-5.675-.119s-3.193-3.059-3.193-3.059l.028-4.244 4.636 2.227 3.687 2.821.517 2.374z" fill="#fff7f7"/><g fill="#070d1c"><path d="M135.169 171.071c-.149-.011-.284.096-.295.245l-.441 2.557c-.195 1.884-.194 3.76-.246 5.651-.15 5.551.258 11.128.982 16.63 1.223 9.307 3.525 18.424 6.475 27.33 5.457 16.477 12.78 32.334 17.005 49.204a1.38 1.38 0 0 0 1.684.977c.737-.195 1.177-.944.982-1.677-1.521-5.36-3.242-10.652-5.168-15.881-2.883-7.832-6.157-15.52-9.156-23.307-3.326-8.635-6.307-17.429-8.454-26.434-1.672-7.013-2.688-14.186-3.009-21.386-.089-2.014-.151-4.042-.147-6.059.005-1.876.164-3.757.114-5.635-.016-.644-.054-1.294-.081-1.938.011-.148-.096-.266-.245-.277zm25.525 103.635a1.37 1.37 0 0 0-1.128 1.581c.408 1.58.577 3.182.851 4.788l.457 2.622.261 1.287.36 2.541.246 1.221c.196 1.204.255 2.437.392 3.649.406 3.596.622 7.2.736 10.815l.18 4.316c.025 1.756-.044 3.505-.098 5.261-.097 3.137-.248 6.267-.491 9.397-.379 4.894-1.242 9.735-1.896 14.594-.261 1.93-.524 3.87-.638 5.814-.058.994-.019 1.99-.082 2.981-.028.442-.142 1.029-.212 1.466-.002.19.152.356.343.358a.34.34 0 0 0 .343-.342c-.074-.51-.148-.947-.147-1.466.003-1.224.218-2.466.36-3.681a132.91 132.91 0 0 1 .768-5.717l1.472-9.137c.21-1.41.364-2.823.556-4.234.237-1.739.506-3.496.654-5.245l.425-5.782c.083-1.782.102-3.559.147-5.342.028-1.092.099-2.182.082-3.274-.018-1.119-.088-2.253-.131-3.371-.104-2.735-.261-5.466-.491-8.193-.086-1.028-.243-2.049-.31-3.078-.028-.423-.019-.849-.049-1.271-.061-.86-.193-1.715-.278-2.573l-.409-3.991c-.212-1.626-.56-3.232-.687-4.869-.124-.749-.834-1.249-1.586-1.125z"/><path d="M164.29 303.114c-.187.037-.314.221-.278.407.48 1.522.68 3.106.965 4.674l1.374 8.323 3.401 22.298.507 3.616.621 4.414c.162 1.371.362 2.523-.425 3.778-1.286 2.05-3.171 3.666-4.971 5.245l-5.445 5.261c-.839.956-1.621 1.975-2.257 3.078-.429.744-.693 1.656-1.455 2.133-.827.519-1.869.712-2.812.896-1.857.362-3.752.468-5.576.994-1.719.495-3.431 1.178-4.808 2.345-1.178.999-1.943 2.294-2.648 3.649-.965 1.85-1.72 3.875-1.995 5.944-.055.208.069.418.277.473s.436-.07.491-.277c1.346-3.271 2.334-7.469 5.576-9.463.858-.528 1.758-.936 2.715-1.254 1.66-.552 3.406-.915 5.117-1.271 1.328-.275 2.722-.457 3.941-1.091.384-.199.745-.438 1.03-.765.228-.261.361-.568.54-.864.184-.305.361-.542.572-.83a29.87 29.87 0 0 1 2.322-2.785c2.373-2.526 5.1-4.69 7.571-7.118 1.119-1.101 2.271-2.268 2.927-3.713.253-.559.481-1.151.572-1.759.111-.746.013-1.504-.065-2.248l-.311-2.639-1.144-7.932c-1.083-6.962-2.283-13.915-3.631-20.831l-1.471-7.704c-.298-1.568-.7-3.116-.834-4.707-.037-.187-.205-.314-.393-.277z"/><path d="M159.24 357.171c-.087-.009-.171.044-.18.13l-.409 2.101c-.733 2.488-1.836 4.845-2.665 7.297-.071.164.016.353.179.424s.355 0 .426-.163c1.332-2.481 2.245-5.072 2.6-7.867l.18-1.743c.009-.086-.045-.17-.131-.179zm-93.19 19.838c-.18-.126-.429-.097-.556.082s-.098.427.082.553c1.016 1.062 2.21 1.926 3.401 2.785l3.106 2.085c1.404.84 2.847 1.595 4.333 2.28l1.864.798c2.874 1.042 6.028 1.65 9.091 1.581 1.257-.029 2.56-.208 3.794-.44 4.458-.839 8.45-3.031 12.525-4.903 1.28-.588 2.565-1.186 3.892-1.661 1.041-.373 2.121-.613 3.09-1.156.046-.013.078-.052.066-.098s-.069-.077-.115-.065c-1.147.002-2.162.366-3.237.732-1.361.464-2.698.96-4.023 1.516-4.497 1.885-8.983 4.257-13.915 4.739-.869.085-1.745.056-2.616.033-4.379-.119-8.571-1.516-12.361-3.665-1.6-.908-3.144-1.917-4.677-2.932-1.223-.809-2.402-1.664-3.744-2.264zM16.229 293.65a.38.38 0 0 0-.491.196c-.137.145-.286.267-.409.424-.461.587-.693 1.362-.997 2.035l-.703 1.564-3.09 7.59-3.695 9.87-1.03 2.655c-1.38 3.779-2.558 7.647-3.597 11.531-.784 2.93-1.501 5.932-1.766 8.958-.084.963-.273 2.059.213 2.948.775 1.418 2.266 2.419 3.565 3.307.857.585 1.712 1.169 2.6 1.71 2.541 1.549 5.172 2.906 7.783 4.332 2.132 1.165 4.2 2.302 5.985 3.974 2.831 2.652 4.631 6.063 6.704 9.284.529.822 1.042 1.66 1.651 2.427.32.403.647.815 1.112 1.059 1.598.838 3.631-.211 5.363.163.063.025.138-.002.164-.066s-.002-.137-.065-.162c-1.161-.709-2.846-.087-4.137-.147-.436-.02-.878-.103-1.243-.358-.476-.334-.79-.936-1.112-1.401-.56-.807-1.061-1.651-1.537-2.508-1.192-2.148-2.405-4.303-3.908-6.255-1.207-1.567-2.604-3.03-4.219-4.186-1.203-.861-2.511-1.529-3.81-2.231-1.068-.577-2.12-1.188-3.172-1.792l-5.036-2.98c-1.187-.728-2.377-1.45-3.483-2.297-.801-.613-2.296-1.632-2.535-2.687-.098-.434.002-.966.033-1.401a30.13 30.13 0 0 1 .213-2.036c.392-2.813 1.1-5.578 1.88-8.306 1.013-3.543 2.264-6.998 3.483-10.473.313-.892.581-1.802.916-2.687 1.169-3.094 2.376-6.17 3.695-9.203l3.401-8.062.867-2.118c.328-.79.541-1.331.589-2.198.08-.186.007-.393-.18-.473z"/><path d="M58.76 274.367c-.121-.022-.24.058-.262.179l-1.684 7.15-1.227 4.936-.9 3.909-3.27 13.046c-.982 3.774-2.039 7.52-3.106 11.271l-2.159 7.801c-1.037 3.538-2.336 7.018-3.532 10.506-1.693 4.939-3.592 9.803-5.428 14.69-.964 2.567-1.852 5.168-2.763 7.753s-1.823 5.153-2.584 7.786c-.287.992-.68 2.036-.818 3.062-.048.361-.044.727-.065 1.091-.015.056.026.115.082.131s.116-.01.131-.066c.164-.324.348-.642.49-.977.341-.802.502-1.681.769-2.508l2.028-6.352c1.405-4.244 3.111-8.391 4.726-12.558l5.51-14.626c.889-2.518 1.619-5.076 2.469-7.606l2.256-7.004c.52-1.702.942-3.445 1.406-5.163l2.535-9.512c1.666-6.424 3.153-12.89 4.366-19.414.448-2.414.929-4.823 1.21-7.265.022-.12-.059-.238-.18-.26zm12.689-34.385c-.039-.027-.087-.023-.114.017-.237.196-.514.358-.72.586s-.335.511-.507.765l-1.014 1.613-1.488 2.606-2.256 4.723-1.504 3.909-1.243 3.827-.539 1.824c-.151.582-.226 1.181-.311 1.776-.014.043.006.084.049.098s.1-.006.115-.049l.801-1.612.67-1.759 1.488-3.714 3.156-7.671 1.734-3.568.916-1.644c.153-.258.359-.48.49-.75s.193-.576.295-.863c.027-.039.023-.087-.017-.114zM3.244 327.364c-.081-.006-.141.049-.147.13-.085.374-.165.637-.163 1.026.002.49.112 1.041.229 1.515.53 2.149 1.997 4.098 3.548 5.635 2.911 2.884 6.404 5.174 9.925 7.248 1.817 1.07 3.678 2.066 5.462 3.192.296.183.7.084.883-.211a.63.63 0 0 0-.213-.864c-4.725-2.851-9.828-5.228-14.111-8.746-1.921-1.577-3.971-3.543-4.807-5.945-.32-.92-.384-1.854-.458-2.818.006-.08-.066-.156-.147-.162z"/><path d="M24.715 346.911c-.077-.048-.165-.028-.213.049s-.028.179.049.227c.169.284.301.602.523.847.355.393.877.661 1.276 1.01.712.624 1.396 1.3 2.011 2.019 1.384 1.619 2.425 3.545 3.941 5.05a7.95 7.95 0 0 0 3.156 1.922c.994.313 2.024.364 3.058.423l4.415.081c4.347.054 8.894.067 13.016 1.613 3.989 1.497 7.386 4.075 10.694 6.694l5.592 4.332c1.631 1.233 3.269 2.476 5.069 3.453.082.055.19.033.245-.048s.034-.19-.049-.245c-1.062-.859-2.202-1.615-3.287-2.443-1.734-1.323-3.399-2.722-5.085-4.104-3.266-2.677-6.491-5.382-10.22-7.411-1.336-.727-2.705-1.35-4.17-1.775-4.019-1.167-8.419-1.137-12.574-1.238-1.574-.038-3.167-.081-4.726-.31-.578-.084-1.182-.154-1.733-.358-1.936-.716-3.124-2.465-4.284-4.072-1.058-1.465-2.22-2.892-3.614-4.055-.534-.446-1.092-.918-1.684-1.287-.128-.08-.251-.174-.392-.228-.267-.101-.739-.121-1.014-.146zm145.412-6.467c-.205.062-.382.203-.491.407-.675 1.468-1.604 2.754-2.55 4.055-1.097 1.509-2.284 2.938-3.614 4.251l-2.485 2.297c-.446.393-.972.768-1.325 1.254-1.025 1.413-.791 3.356-1.684 4.837-.416.691-1.109 1.123-1.766 1.564l-1.128.7c-2.137 1.216-4.479 1.927-6.819 2.639l-4.693 1.547-2.289.815c-.309.119-.635.239-.915.423-.496.327-.787.889-1.014 1.417-.46 1.07-.6 2.25-1.063 3.323-.316.73-.748 1.522-1.341 2.068-.22.203-.489.354-.735.521l-1.194.75c-1.03.53-2.245.808-3.385.961-2.759.368-5.424-.364-7.947-1.417-1.807-.755-3.509-1.758-5.396-2.313-2.221-.654-4.552-.539-6.819-.228-1.849.254-3.63.752-5.428 1.238-3.748 1.012-7.416 2.284-11.152 3.338-3.307.934-6.791 1.754-10.252 1.336-1.45-.175-2.833-.653-4.17-1.222-.058-.028-.135-.008-.163.049s.007.119.065.147c2.031 1.104 4.342 1.648 6.655 1.645 1.943-.003 3.868-.374 5.756-.798 2.21-.497 4.35-1.195 6.524-1.824l6.181-1.792c1.995-.578 4.019-1.144 6.083-1.417 2.128-.281 4.37-.187 6.426.456.553.173 1.034.435 1.553.684.87.417 1.779.791 2.666 1.173 3.106 1.338 6.097 2.304 9.532 1.857 1.27-.166 2.483-.519 3.68-.961.499-.185 1.005-.377 1.455-.668.3-.194.548-.436.817-.668.646-.556 1.179-1.127 1.603-1.873.492-.865.731-1.835.997-2.785.193-.689.362-1.405 1.014-1.792.311-.184.668-.323.998-.472 1.1-.499 2.205-.913 3.351-1.303 3.587-1.22 7.422-2.05 10.662-4.088 1.243-.783 2.442-1.612 3.057-2.981.351-.779.569-1.6.769-2.426.134-.554.236-1.205.588-1.678.278-.373.822-.67 1.178-.977.702-.607 1.355-1.267 1.995-1.939 1.159-1.217 2.272-2.504 3.368-3.778 1.401-1.628 2.735-3.32 3.843-5.163.216-.408.05-.908-.36-1.124-.205-.108-.433-.128-.638-.065z"/><path d="M125.915 260.913c-.188.034-.313.204-.278.391 1.143 5.194 1.971 10.461 2.878 15.701 1.805 10.442 3.424 20.913 4.938 31.402 1.682 11.663 3.176 23.352 4.3 35.082.508 5.3.964 10.614 1.259 15.93l.245 4.821c.042 1.385.024 2.767.033 4.153l.017 6.938c.005.459.39.82.85.815a.82.82 0 0 0 .817-.831l-.212-5.945c-.094-1.733-.289-3.449-.409-5.179l-.589-8.714c-.996-12.626-2.433-25.188-4.137-37.738l-3.286-22.085-3.859-22.444-2.159-12.037c-.034-.187-.221-.295-.408-.26zm.063 89.337c-.106.003-.199.106-.196.212-.148 1.361-.234 2.719-.212 4.088.023 1.522.217 3.034.392 4.544l.981 6.922.867 7.199.425 6.613-.049 2.069c-.028.423-.094 1.008-.033 1.433.038.257.13.514.196.765-.017.19.121.357.311.375s.358-.137.376-.326c.112-.238.263-.449.343-.7.139-.432.145-1.021.164-1.466l.065-1.433c.095-2.052.028-4.126-.131-6.173-.205-2.654-.7-5.262-1.144-7.884l-.605-4.039c-.588-3.996-.912-8.015-1.553-12.003-.003-.107-.09-.199-.197-.196zm-8.712-76.73l1.161 7.573.425 3.306.67 4.708.392 3.452 1.112 9.203 1.439 12.378 1.03 10.343c.532 5.598 1.354 11.169 1.57 16.792a.33.33 0 0 0 .36.31c.19-.017.343-.169.327-.359-.732-5.332-.889-10.733-1.357-16.092l-1.03-11.075c-.664-7.222-1.321-14.462-2.453-21.63l-.474-2.752-.867-5.391c-.16-.876-.372-1.749-.539-2.623-.526-2.736-.954-5.472-1.766-8.143zm-57.427-67.072a.79.79 0 0 0-.965.57c-2.121 7.612-5.164 14.951-8.437 22.135-6.701 14.706-15.007 28.575-22.99 42.607l-3.466 6.059c-1.247 2.205-2.431 4.448-3.63 6.678-.708 1.316-1.527 2.577-2.142 3.942-.239.532-.399 1.096-.638 1.628-.344.77-.744 1.529-1.096 2.297-.088.169-.022.368.147.456s.369.022.458-.147c.431-.722.829-1.471 1.275-2.182.309-.493.683-.944.997-1.433.806-1.255 1.443-2.62 2.191-3.909l5.347-9.072 9.435-16.06 5.739-10.277c6.291-11.349 12.382-22.968 16.417-35.327.753-2.308 1.345-4.651 1.929-7.004.113-.426-.144-.849-.572-.961zm13.604 175.496c-.45-.064-.867.237-.932.685l-1.308 6.221-1.439 6.352-1.079 4.48-.376 1.873c-.501 2.437-.971 4.884-1.079 7.378-.151 3.457.743 6.832 1.128 10.244.376 3.335.222 6.671-.278 9.984-.596 3.953-1.602 7.814-2.665 11.662l-2.812 10.164c-1.498 5.371-2.865 10.78-4.218 16.189l-3.172 13.21c-1.086 4.86-2.125 9.737-2.992 14.642-.685 3.874-1.296 7.783-1.57 11.71-.186 2.665-.294 5.374.18 8.011.2 1.115.456 2.153 1.046 3.127a.35.35 0 0 0 .474.136.35.35 0 0 0 .131-.475c-.734-1.37-.929-2.871-1.014-4.398-.145-2.618.031-5.211.294-7.818.469-4.652 1.244-9.273 2.142-13.86.976-4.99 2.098-9.944 3.287-14.887 2.374-9.871 5.098-19.658 7.849-29.431 1.718-6.102 3.735-12.194 4.628-18.486.432-3.048.573-6.12.278-9.187-.293-3.044-.982-6.073-1.063-9.137-.034-1.284.087-2.572.262-3.844.298-2.17.742-4.301 1.243-6.433l2.011-8.29c.735-2.941 1.567-5.854 1.733-8.893.065-.448-.237-.864-.687-.929zm-42.302-15.099a.74.74 0 0 0-.801.668l-.785 4.136c-.399 3.067-.475 6.185-.687 9.268-.245 3.578-.574 7.149-1.079 10.701-.409 2.869-1.035 5.685-1.782 8.486-.806 3.018-1.728 6.023-2.093 9.137-.167 1.427-.226 2.866-.294 4.3a146.14 146.14 0 0 0-.147 8.127c.063 7.684.431 15.353 1.226 22.998.412 3.966.884 7.921 1.521 11.857l1.88 11.385c1.17 8.477 1.806 17.028 1.488 25.588-.161 4.338-.4 8.717-1.259 12.98-.405 2.013-.926 3.992-1.701 5.895a.36.36 0 0 0 .196.459c.178.068.372-.021.442-.198 1.197-3.13 1.882-6.351 2.387-9.657.803-5.252 1.026-10.542.965-15.848-.075-6.469-.499-12.968-1.357-19.382-.69-5.156-1.775-10.254-2.485-15.408-.967-7.012-1.467-14.085-1.701-21.157-.149-4.533-.1-9.068.065-13.6l.294-5.896c.049-.745.086-1.492.196-2.231.705-4.725 2.776-9.098 3.777-13.747.635-2.949.98-5.96 1.275-8.958l.491-5.098.654-8.762c.078-1.751.004-3.494-.033-5.245.038-.404-.249-.761-.654-.798zm29.27 18.683c-.145.123-.173.328-.049.473 1.199 1.471.553 3.897.098 5.537-.741 2.672-1.875 5.205-2.747 7.834-.454 1.37-.94 2.86-.703 4.316-.005.144.118.272.262.277s.257-.117.262-.26c1.054-4.191 2.762-8.189 3.761-12.395.41-1.726.895-4.291-.409-5.749a.33.33 0 0 0-.475-.033zm-16.237-3.372c-.305.111-.468.144-.736.342-.794.589-1.276 1.609-1.553 2.524-.265.874-.383 1.768-.49 2.671-.144 1.204-.222 2.393-.098 3.6.003.196.179.362.376.358s.346-.178.343-.374l.196-3.486c.165-1.378.591-2.95 1.423-4.088.253-.346.589-.667.9-.961.163-.098.213-.309.115-.472s-.311-.212-.475-.114zm63.607-3.079c-.661-.096-1.261.369-1.358 1.026l-.931 6.401-.23 1.596c-.016.115-.079.259-.098.375l-.229.358-.785 1.499c-.792 1.668-1.443 3.396-2.027 5.146-1.801 5.399-2.892 10.977-3.712 16.597-.951 6.516-1.366 13.115-1.881 19.676l-2.6 31.972c-.2 2.046-.47 4.083-.719 6.124-.402 3.294-.846 6.573-1.455 9.837-.249 1.33-.516 2.672-.818 3.991-.114.497-.314.981-.409 1.482-.073.388-.099.782-.164 1.173-.059.183.045.381.229.44s.382-.045.442-.229c.166-.372.343-.737.474-1.123.166-.49.222-1.03.343-1.532a118.74 118.74 0 0 0 1.096-5.049c.918-4.662 1.611-9.374 2.191-14.088 1.07-8.691 1.842-17.417 2.583-26.142l1.488-16.678c.814-7.777 1.979-15.559 4.186-23.079.648-2.212 1.404-4.419 2.37-6.515.337-.731.705-1.439 1.112-2.134.234-.399.527-.767.654-1.221.098-.349.11-.716.164-1.075l.245-1.596.866-5.863c.097-.658-.369-1.273-1.029-1.369zm40.844-10.114c-.161-.008-.285.117-.294.278l.082 1.4c-.009 1.138-.2 2.282-.245 3.421l-.033 4.821-.311 8.664c-.293 4.921-.854 9.883-2.371 14.594-.502 1.56-1.231 3.049-1.896 4.544-1.193 2.679-2.491 5.305-3.794 7.932l-4.66 9.544-6.181 12.688c-.854 1.886-1.576 3.818-2.436 5.701-1.499 3.278-2.917 6.573-4.219 9.935-1.944 5.018-3.674 10.111-5.331 15.229-2.199 6.792-4.242 13.65-5.788 20.62-.078.255.07.524.327.602s.527-.07.605-.325c2.611-6.638 4.555-13.504 6.72-20.295 2.191-6.867 4.61-13.661 7.277-20.359l1.488-3.681c.215-.532.412-1.075.654-1.596.922-1.989 1.913-3.936 2.861-5.912l5.625-11.825 3.892-7.883 3.892-8.421c1.08-2.423 2.144-4.896 2.796-7.475 1.772-7.02 1.778-14.34 1.7-21.532-.02-1.858.005-3.715-.081-5.57-.053-1.127-.245-2.293-.197-3.421.02-.456.12-.918.197-1.368.008-.161-.117-.301-.279-.31z"/><path d="M35.048 175.451c-.046.001-.083.036-.082.082-.146.433-.392.892-.49 1.335-.068.307-.038.632-.065.945l-.196 1.466-.441 3.045c-.052 1.276.114 2.785.589 3.991.256.65.645 1.231.981 1.84l.948 1.792c1.029 1.964 2.161 3.832 3.794 5.359 1.178 1.101 2.555 1.913 3.924 2.752l3.417 2.085c4.078 2.48 8.221 4.822 12.378 7.166 5.446 3.072 10.816 6.269 16.139 9.544l8.274 5.196c2.926 1.925 5.776 3.953 8.667 5.929 1.915 1.309 3.814 2.673 5.903 3.697 1.394.683 2.85 1.306 4.366 1.662 1.724.404 3.537.498 5.298.602 2.618.155 5.243.21 7.865.244l5.02.033 1.341-.033c.238-.005.523.025.752-.048.289-.094.561-.329.801-.505a30.06 30.06 0 0 0 1.341-1.043c1.246-1.021 2.454-2.059 3.614-3.176 1.592-1.533 2.48-3.518 3.27-5.554.32-.823.658-1.653.932-2.492l.262-.814a25.7 25.7 0 0 0 .245-.863c.023-.086.09-.235.082-.326-.021-.237.056-.496-.066-.701-.139-.234-.437-.338-.654-.505-.11-.084-.522-.166-.67-.227-.548-.226-1.089-.537-1.521-.945-.154-.146-.364-.353-.441-.57-.087-.244.001-.52.032-.766.041-.317.055-.646-.016-.961-.255-1.128-1.284-1.916-2.256-2.426-.425-.223-.853-.418-1.341-.277-.384.11-.687.432-.981.684l-1.423 1.221c-1.658 1.46-3.238 3.021-4.938 4.431-.567.47-1.156.905-1.798 1.27-.217.123-.509.292-.769.277-.444-.026-.873-.29-1.227-.538-.668-.468-1.187-1.063-1.733-1.661-.839-.92-1.651-1.878-2.469-2.818-.671-.77-1.313-1.567-2.011-2.313-.592-.631-1.232-1.199-1.848-1.808-.8-.79-1.587-1.569-2.501-2.231-1.317-.953-2.768-1.691-4.301-2.231-1.122-.395-2.301-.691-3.499-.684-.449.003-1.045.103-1.488.163-.231-.011-.431.16-.442.391s.177.429.409.439c1.678.398 3.419.832 4.987 1.564 1.32.616 2.528 1.441 3.712 2.28.85.603 1.724 1.209 2.485 1.922.748.699 1.44 1.47 2.159 2.199 1.626 1.649 3.022 3.491 4.676 5.114.721.707 1.479 1.549 2.469 1.873 1.414.463 2.756-.485 3.827-1.287a41.64 41.64 0 0 0 4.414-3.795c.657-.651 1.292-1.317 1.979-1.938.204-.184.412-.38.638-.537.011-.008.02-.024.033-.033.099.047.196.097.294.147.319.16 1.113.48 1.242.798.126.308-.065.733-.097 1.042-.049.466.016.929.228 1.352.448.892 1.395 1.638 2.24 2.134.172.101.359.158.54.244l-.343 1.107c-.314.991-.618 1.979-.998 2.949-.499 1.275-1.041 2.631-1.88 3.729-.472.618-1.123 1.103-1.717 1.597-.649.539-1.273 1.101-1.946 1.612l-1.537 1.14-.605.44h-.621c-.539.001-1.064-.011-1.603-.016-1.417-.016-2.85.027-4.267.016-2.592-.02-5.179-.077-7.767-.228-1.651-.096-3.354-.171-4.971-.537-1.935-.439-3.678-1.383-5.363-2.395-1.431-.859-2.826-1.787-4.186-2.752-3.598-2.555-7.209-5.116-10.939-7.476-5.258-3.325-10.711-6.321-16.107-9.415l-13.441-7.769-7.996-4.592c-2.073-1.214-4.222-2.392-5.723-4.317-1.166-1.494-1.967-3.227-2.894-4.869-.671-1.189-1.421-2.286-1.553-3.682-.058-.607-.039-1.214-.033-1.824.011-.991.001-1.973.049-2.964.033-.669.094-1.337.147-2.003.013-.162.049-.311.033-.473-.046-.463-.28-.968-.442-1.4-.001-.046-.052-.083-.098-.082z"/><path d="M66.705 177.503c-.183-.022-.383.025-.54.147a.72.72 0 0 0-.114 1.01c4.63 6.031 9.12 12.181 14.16 17.884l4.154 4.658.932.994c.305.333.452.544.769.83.376.34.821.617 1.308.765.597.181 1.201.125 1.815.163a5.97 5.97 0 0 1 1.913.44c.612.256 1.248.542 1.798.912 1.533 1.034 2.738 2.44 4.121 3.648.984.86 2.033 1.688 3.123 2.411 1.216.807 2.509 1.515 3.762 2.264 1.16.694 2.818 1.332 3.368 2.687.225.557.166 1.225.016 1.792-.04.152-.107.305-.147.456-.036.023-.055.038-.082.049-.133.055-.269.095-.408.131-.295.074-.603.087-.9.146-1.841.363-3.599.158-5.429-.228-1.514-.32-2.979-.803-4.447-1.287-1.317-.434-2.638-.893-3.908-1.45-1.84-.806-3.603-1.788-5.363-2.752-1.196-.656-2.322-1.418-3.45-2.183-.345-.234-.65-.543-1.03-.716-.206-.094-.434-.123-.654-.179-.055-.038-.142-.023-.18.032s-.023.142.032.179c.132.183.246.381.409.538.154.148.344.243.523.358l1.046.668c.985.629 2.016 1.208 3.009 1.824 1.73 1.073 3.541 1.979 5.38 2.851 1.274.604 2.551 1.204 3.875 1.694 1.842.681 3.778 1.13 5.723 1.4a30.2 30.2 0 0 0 3.221.261c.646.02 1.293.081 1.93-.049.466-.096 1.232-.195 1.553-.603.351-.445.523-1.488.523-2.052 0-.448-.087-.897-.277-1.303-.472-1.006-1.464-1.649-2.371-2.231-1.291-.828-2.651-1.539-3.925-2.394a38.26 38.26 0 0 1-4.578-3.6c-1.348-1.243-2.59-2.476-4.072-3.567-.359-.264-.718-.538-1.112-.749a7.07 7.07 0 0 0-2.894-.831c-.681-.044-1.525.094-2.126-.309-.334-.224-.654-.595-.916-.88l-1.357-1.515c-1.523-1.72-2.942-3.521-4.382-5.309l-8.732-10.881-4.595-5.846c-.122-.157-.291-.255-.474-.278zm35.893 43.863a.37.37 0 0 0-.491.195c-.084.19-.011.405.18.489.629.283 1.054.779 1.619 1.156.859.573 1.875.964 2.878 1.205.362.088.806.176 1.177.196.385.021.759-.044 1.144-.033.56.017 1.143.093 1.701.147s1.098.163 1.651.26l1.603.245 2.502.537c.884.194 1.805.391 2.649.733.606.246 1.154.569 1.684.945 1.014.719 2.123 1.618 1.979 3.013-.056.533-.272 1.025-.54 1.482-.23.388-.095.896.294 1.124s.882.094 1.112-.293c.275-.462.549-.909.687-1.433.095-.363.136-.734.13-1.108-.022-1.695-1.472-3.228-2.91-3.991-.773-.409-1.615-.705-2.42-1.042l-1.357-.505-1.979-.554c-.89-.197-1.81-.302-2.714-.407-.941-.109-1.914-.106-2.861-.13-.39-.01-.788.01-1.178 0l-1.161-.065c-.131.003-.262.055-.392.065-.41.032-.889.001-1.292-.081-.755-.155-1.299-.541-1.881-1.01-.546-.442-1.167-.859-1.814-1.14zm16.938 2.297c-.673.013-1.352-.026-1.995.196-.187.033-.312.203-.277.39a.35.35 0 0 0 .408.277l1.57-.032c1.141.004 2.284.06 3.417.195.719.086 1.509.164 2.192.424.222.085.417.219.637.309.198.081.403.124.605.196.615.216 2.07.718 1.799 1.628-.056.188-.158.39-.262.554-.158.251-.178.254-.392.489-.289.345-.249.852.098 1.14a.83.83 0 0 0 1.161-.098c.402-.518.79-1.028.948-1.678.378-1.555-.898-2.708-2.24-3.208-.444-.165-.887-.361-1.357-.424-.256-.034-.511.015-.769 0s-.513-.05-.768-.081c-1.588-.192-3.174-.308-4.775-.277z"/><path d="M130.64 218.059c-.762-.01-1.556.185-2.305.488-1.108.449-2.188 1.008-3.189 1.662-.79.517-1.524 1.146-2.256 1.743l-1.374 1.14c-.396.324-.456.908-.13 1.303a.93.93 0 0 0 1.308.13l1.782-1.433 1.766-1.319c1.001-.749 1.995-1.511 3.172-1.971.95-.371 2.005-.792 3.009-.375a.34.34 0 0 0 .474-.098c.102-.16.063-.37-.098-.472-.653-.56-1.396-.788-2.159-.798zm-71.259-44.69c-.077-.023-.157.022-.18.098s.005.156.082.179c.838.536 1.762.98 2.535 1.613.742.607 1.389 1.305 2.093 1.954.777.717 1.595 1.315 2.502 1.857.396.228.916.101 1.145-.293s.085-.912-.311-1.141c-1.709-.944-3.173-2.224-4.856-3.208-.984-.576-1.844-1.032-3.009-1.059z"/><path d="M63.125 130.223c-.075.056-.088.154-.032.228l.196.668c.162.404.43.782.622 1.173l.916 2.101c1.335 3.676 2.358 7.514 2.338 11.45-.009 1.821-.392 3.556-.769 5.326-.145.68-.243 1.383-.36 2.068-.319 1.872-.588 3.733-.556 5.636.016.955.039 1.945.245 2.883.052.235.134.467.196.7l.801 3.209c.647 2.709 1.229 5.516 1.341 8.306.023.573-.014 1.138-.033 1.71-.03.889-.068 1.911-.687 2.623a.52.52 0 0 0 0 .733c.204.198.537.187.736-.017 1.107-1.038 1.267-3.053 1.243-4.446-.055-3.097-.541-6.165-1.014-9.219-.331-2.133-.865-4.277-.768-6.45.08-1.784.389-3.565.67-5.326.11-.691.258-1.37.327-2.068.442-4.464-.022-9.042-1.308-13.339-.598-1.999-1.303-3.953-2.289-5.799-.289-.541-.576-1.205-.998-1.661-.096-.104-.463-.365-.588-.456a.16.16 0 0 0-.229-.033zM38.107 99.441c-1.389.179-2.703.502-3.957 1.141-1.017.517-1.865 1.271-2.649 2.085l-.719.683c-.325.363-.586.821-.834 1.238-.638 1.073-1.081 2.202-1.455 3.388-.721 2.284-1.156 4.65-1.341 7.036l-.213 1.971-.147 4.121c.018 1.212.227 2.406.278 3.615l.082 2.965c.057 1.768.294 3.539.507 5.293l.654 5.343c.766 6.137 1.637 12.274 2.175 18.437l.474 6.515c.16 2.735.324 5.473.801 8.176.226 1.28.524 2.592 1.03 3.795.174.413.359.867.736 1.14.985.714 2.255-.102 3.139-.586.699-.382 1.402-.748 2.077-1.173.44-.276.84-.605 1.292-.863.759-.434 1.572-.714 2.305-1.189.181-.061.291-.26.229-.44s-.261-.273-.442-.211c-.185.016-.374.01-.556.049-.698.146-1.395.579-2.027.895-.478.239-.975.436-1.439.7-.56.319-1.095.677-1.635 1.027-.477.308-1.617 1.032-2.224.847a.47.47 0 0 1-.131-.164l-.229-.488c-.075-.169-.143-.35-.212-.521-.39-.969-.626-1.987-.801-3.014-.352-2.061-.456-4.154-.589-6.237l-.54-8.372c-.716-7.951-2.072-15.847-2.633-23.812-.035-.505-.034-1.011-.065-1.515l-.278-3.73c-.049-.49-.129-.991-.164-1.482-.051-.721-.114-1.443-.114-2.166 0-.944.125-1.888.131-2.834.014-2.189-.065-4.387.18-6.564.322-2.857.917-5.667 2.24-8.241.337-.656.774-1.214 1.177-1.824.152-.231.272-.497.458-.701.71-.782 1.668-1.374 2.633-1.792.949-.41 1.967-.591 2.992-.667a.94.94 0 0 0 .851-1.027.96.96 0 0 0-1.047-.847zm22.5-5.914l-1.881.146c-3.501.55-6.903 1.473-10.302 2.46-.431.124-.878.215-1.308.342-1.322.388-2.619.845-3.924 1.286-.9.304-1.792.599-2.649 1.01-.451.149-.69.642-.54 1.091a.85.85 0 0 0 1.08.537c1.819-.354 3.613-1.041 5.363-1.645 3.807-1.314 7.575-2.806 11.528-3.648.615-.131 1.245-.217 1.864-.326 1.626-.287 3.602-.445 4.987.635.435.339.716.881.965 1.352.253.48.47.986.686 1.482.466 1.065.846 2.148 1.276 3.226.197.494.383.988.539 1.497.165.538.342 1.083.573 1.597.12.267.257.514.376.782.241.544.401 1.131.637 1.677.489 1.131 1.069 2.223 1.52 3.371a.33.33 0 0 0 .442.18c.176-.074.27-.281.196-.456-.509-1.128-.885-2.273-1.292-3.437-.195-.559-.442-1.096-.621-1.661-.173-.548-.298-1.11-.507-1.645-.199-.512-.463-1-.654-1.515l-.785-2.133c-.523-1.308-.969-2.645-1.668-3.877-.236-.415-.501-.855-.85-1.189-1.286-1.226-3.405-1.187-5.052-1.14z"/><path d="M38.942 99.569c-.169.031-.498.19-.654.261-.301-.045-.576.172-.621.473a.54.54 0 0 0 .458.618c.118.107.4.364.54.44.303.164.715.231 1.047.309l1.21.343 2.257.716c1.458.465 2.916 1.034 4.219 1.841.215.133.453.237.654.391.079.06.18.13.196.227.035.203-.031.401-.065.603-.059.346-.175.686-.262 1.027-.331 1.289-.801 2.836.114 4.006.191.245.545.566.719.733l1.75 1.547 4.562 3.763c1.127.974 2.242 1.986 3.221 3.111 1.098 1.262 1.983 2.676 2.943 4.039.046.083.145.11.229.065s.111-.144.066-.228c-1.673-4.196-5.072-7.391-8.209-10.521-1.232-1.23-2.398-2.508-3.548-3.812-.104-.117-.034-.414-.016-.537.072-.532.258-1.052.409-1.564.128-.435.304-.854.36-1.303.059-.473.17-.968.065-1.433s-.384-.871-.67-1.254c-.175-.235-.454-.392-.687-.57-.163-.125-.336-.229-.507-.342a16.27 16.27 0 0 0-1.57-.912c-1.486-.764-3.117-1.375-4.758-1.711-.482-.099-.968-.111-1.455-.163-.633-.068-1.356-.279-1.995-.163zm28.533 65.411c-.171.069-.265.253-.196.424-.101.327-.288.827-.245 1.189.019.165.11.305.179.456.115.249.339.618.491.847.612.917 1.296 1.747 2.093 2.508 1.07 1.021 2.338 1.741 3.663 2.394 2.482 1.224 5.259 1.747 8.012 1.792.804.013 1.561-.02 2.355-.147.055-.004.103-.06.098-.114s-.06-.085-.115-.082c-1.038-.016-2.072.04-3.106-.081s-2.109-.315-3.107-.619c-.509-.154-.999-.391-1.488-.603-1.343-.581-2.61-1.276-3.663-2.312-.951-.936-1.813-1.94-2.534-3.062-.301-.468-.529-.998-.801-1.482-.071-.126-.11-.258-.213-.358-.272-.267-.659-.396-.997-.571a.32.32 0 0 0-.425-.179zm67.532 27.688l-3.483 1.368-3.859 1.662-5.462 1.954-4.807 1.499c-3.805 1.028-7.703 1.799-11.642 2.052-3.685.236-7.386.02-11.037-.489-3.767-.525-7.438-1.42-10.972-2.834a.35.35 0 0 0-.442.212c-.065.179.034.376.213.44 4.498 1.43 9.024 2.758 13.735 3.274 3.91.427 7.858.401 11.773.064 5.835-.5 11.538-1.809 16.973-3.99 1.113-.447 2.203-.92 3.303-1.4.93-.406 1.892-.812 2.78-1.303 1.093-.605 2.151-1.3 3.205-1.971.148-.077.207-.26.13-.408s-.26-.206-.408-.13zm-.426-12.509c-.067-.059-.168-.051-.229.017-.607.457-1.115.999-1.7 1.481a21.44 21.44 0 0 1-2.42 1.743c-1.881 1.155-3.91 2.061-5.968 2.851l-4.317 1.449c-1.065.278-2.157.431-3.238.635l-5.249.815c-.346.037-.593.355-.556.7s.357.591.703.554c1.802-.212 3.593-.507 5.347-.977 1.082-.29 2.126-.695 3.189-1.043 3.095-1.014 6.137-2.093 8.993-3.681 1.362-.757 2.686-1.599 3.875-2.606.615-.52 1.174-1.014 1.587-1.71.059-.067.051-.168-.017-.228zm-65.847.083c-.028-.017-.065-.011-.082.016s-.011.065.017.082c.15.115.329.203.458.341.424.455.6 1.025 1.112 1.418.292.224.636.374.948.57L74 184.265l5.543 2.443c3.695 1.43 7.526 2.454 11.43 3.127 2.221.383 4.482.699 6.737.798 1.93.086 3.872.139 5.805.098 2.213-.048 4.418-.238 6.622-.44.19-.011.338-.169.327-.358s-.17-.338-.36-.326c-6.879.197-13.799.073-20.538-1.466-4.145-.947-8.192-2.377-12.051-4.153-1.388-.639-2.72-1.374-4.088-2.053-.477-.236-.977-.434-1.456-.667-.325-.159-.629-.369-.965-.505-.585-.238-1.173-.134-1.765-.293-.184-.05-.334-.15-.507-.228zm68.315-38.489c-.104.012-.175.107-.163.212.024.67.123 1.307.196 1.97.291 2.635.973 5.225 1.586 7.802l.9 4.707c.05.523.024 1.026.032 1.547l.033 2.492c-.096 1.894-.579 3.73-1.488 5.392-.262.522-.051 1.156.474 1.417a1.06 1.06 0 0 0 1.423-.473c.676-1.477 1.182-3.068 1.34-4.691.087-.883.056-1.804.017-2.687l-.147-1.613-.589-2.654-1.897-7.362-1.128-3.974c-.159-.625-.25-1.273-.376-1.906-.012-.104-.108-.191-.213-.179z"/><path d="M138.357 166.755c-.191.018-.374.103-.507.261-1.444 1.526-3.104 2.874-5.035 3.746-.626.282-1.271.467-1.93.651-1.145.321-1.968.586-3.156.261a.36.36 0 0 0-.425.261c-.043.185.076.38.261.423 1.148.22 2.401.416 3.565.212.922-.162 1.836-.531 2.698-.88 1.951-.789 3.9-2.011 5.167-3.713.265-.317.22-.795-.098-1.059-.159-.132-.349-.18-.54-.163zm-30.903-34.447c-.183-.053-.372.061-.425.244-.14.294-.282.595-.359.912-.28 1.144.082 2.473.343 3.584l.752 3.013c.118.41.553.655.965.537s.641-.551.523-.961l-1.275-3.518c-.314-1.076-.412-2.274-.295-3.388.053-.182-.045-.37-.229-.423zm2.616 15.554c-.133-.013-.265.096-.278.228-.077.327-.168.659-.197.994-.063.737.086 1.525.197 2.248l.195 1.254c.248 1.06.785 2.011 1.374 2.915a.75.75 0 0 0 1.03.277c.365-.208.487-.663.279-1.026l-1.129-2.15c-.279-.498-.612-.979-.817-1.515-.351-.917-.407-1.975-.442-2.948.013-.132-.08-.264-.212-.277zm2.403 13.143c-.121.044-.174.188-.13.31.06.297.085.596.13.896.059.384.12.441.148.83.04.566-.062 1.154-.148 1.711l-.244 1.807c-.036.286.17.535.457.57a.53.53 0 0 0 .589-.456c.174-1.253.209-2.438.066-3.697-.029-.249-.058-.687-.131-.928s-.308-.672-.426-.896a.25.25 0 0 0-.311-.147z"/><path d="M107.944 139.099c-.896.031-1.714.395-2.207 1.156-.827 1.275-.863 3.118-.229 4.463.155.391.604.579.997.423s.581-.602.425-.994l1.112-1.888c.307-.604-.747 1.136-1.194 1.644-.051.059-.034-.151-.049-.228s-.021-.164-.033-.244l-.049-.489c-.033-.651.049-1.237.409-1.792.303-.465.615-.779 1.21-.716.16.017.283-.027.442-.049.06-.008.206-.071.18-.016-.63 1.284.008 0 .212 0 .176.074.367-.005.442-.179s-.004-.382-.18-.456c-.201-.193-.438-.449-.703-.554-.216-.086-.567-.089-.785-.081z"/><path d="M110.609 141.119c-.183.046-.19.08-.343.18-.046-.004-.095.019-.099.065s.037.095.082.097c-.171.161-.119.173-.245.31l.36-.196c.069-.049.123.451.13.505.041.277.181.509.213.798.085.77-.287 2.021-.948 2.525-.597.454-1.3.343-1.897-.049-.129-.085-.318-.238-.442-.326-.085-.061-.326-.097-.261-.179.951-1.199-.011.001-.294-.212a.44.44 0 0 0-.622.049c-.16.185-.137.46.049.619 1.382 1.336 3.53 1.93 4.856.195.227-.295.412-.628.54-.977.152-.413.222-.848.245-1.287.041-.749.003-1.607-.702-2.035-.201-.122-.395-.139-.622-.082zm-.605.652c-.771.43-2.034.949-1.439 1.27.635.342.322-.057 1.439-1.27zm2.747 12.785c-.206.01-.404.065-.572.18-.092.062-.142.185-.246.227-.308.127.001.008-.065.131-.14.117-.15.316-.032.456.104.125.272.128.408.049.016-.01.034.012.049 0 .033-.001.066-.015.098-.017.02-.001.033.022.049.033.078.048.121.24.18.326.02.028.202.214.213.228.135.182.206.404.311.602.167.317.406.584.523.929.435 1.283-.306 2.405-1.668 2.508-.959.073-1.349-.639-1.652-1.433-.307-.809-.561-2.099.082-2.851.053-.061.22-.204.295-.211.523-.052-.002.005.13-.016.116.036.242-.032.278-.147s-.031-.241-.147-.277l.441-.081c-.192.016-.381.007-.572-.017-.062-.007-.121-.06-.18-.081-.249-.092-.489-.013-.703.13-.755.506-.785 1.704-.752 2.508.019.446.046.904.164 1.336.351 1.293 1.472 2.521 2.91 2.394 1.331-.117 2.62-.999 2.944-2.329.179-.737.053-1.489-.115-2.215-.2-.87-.482-1.328-1.177-1.889-.177-.143-.372-.293-.589-.375-.186-.07-.398-.108-.605-.098zm-.719 13.096c-.311-.046-.581.008-.884.065-.203.039-.362.048-.555.13-1.469.626-1.691 2.725-1.685 4.089.007.374.311.674.687.667s.677-.309.671-.683l1.504-1.809c.46-.525-.943 1.033-1.504 1.45-.086.064-.017-.203-.017-.31l.017-.585c.04-.548.243-1.206.654-1.597.394-.375.888-.603 1.422-.717a1.46 1.46 0 0 1 .294-.032c.104-.001.352-.054.295.032-.816 1.238.015.001.36-.032.113.015.214-.066.228-.179s-.066-.214-.179-.228c-.415-.149-.871-.196-1.308-.261z"/><path d="M114.37 168.19c-.158.006-.305.089-.458.13-.061-.033-.13-.012-.163.049s-.012.129.049.163c.041.145.052.302.114.44.205.451.8.644 1.129.993.302.321.478.79.539 1.222.227 1.604-1.123 2.624-2.632 2.557-1.067-.048-2.114-.667-2.944-1.287-.147-.121-.369-.098-.491.049a.35.35 0 0 0 .05.488c.624.56 1.328 1.127 2.142 1.385.711.225 1.542.318 2.273.13 1.486-.382 2.602-1.887 2.485-3.42-.069-.904-.587-1.771-1.21-2.411-.218-.223-.54-.502-.883-.488zm7.424-70.445a1.36 1.36 0 0 0-.882.456c-.264.298-.354.678-.409 1.059-.13.895.055 1.664.229 2.541l.605 3.714c.06.633.109 1.208.016 1.84-.079.411.192.818.605.896s.804-.192.883-.603c.168-.739.295-1.485.262-2.247-.066-1.496-.492-2.946-.736-4.414l-.196-1.336a.92.92 0 0 1-.017-.326c.179-.011.439.083.556.13l.523.212 3.876 1.644 4.922 1.58c1.37.299 2.788.311 4.169.554a22.95 22.95 0 0 1 3.45.896c.666.228 1.304.563 1.93.879.149.075.477.818.556 1.027l.147.407.131.439.277 1.059.082.603c.097.434.26.852.36 1.286l.442 2.232.621 3.453.556 2.85.916 5.782c.101.549.136 1.109.212 1.661l1.112 6.825c1.545 8.559 3.492 17.001 5.969 25.343a208.46 208.46 0 0 0 2.616 8.193l.98 2.931c.282.866.565 1.719.671 2.622-.102.145-.201.283-.311.424-.248.319-.503.623-.768.928-1.029 1.186-2.136 2.304-3.385 3.258-1.125.859-2.185 1.816-3.303 2.687-2.304 1.796-4.817 3.369-7.456 4.626-1.631.776-3.309 1.299-5.02 1.856-.411.135-.861.152-1.275.277-.215.065-.401.183-.606.277-.157.025-.27.169-.245.326s.169.269.327.244c.229.025.457.079.687.066.453-.028.894-.202 1.341-.278.936-.159 1.748-.441 2.632-.781 2.638-1.014 5.112-2.308 7.49-3.828 1.833-1.171 3.624-2.448 5.281-3.86.451-.385.841-.788 1.259-1.205.602-.602 1.268-1.15 1.88-1.743.645-.623 1.294-1.241 1.881-1.922.245-.283.567-.589.703-.945.189-.493.033-1.106-.082-1.595-.201-.86-.451-1.717-.719-2.557l-2.747-8.91a211.9 211.9 0 0 1-4.514-18.193c-.874-4.35-1.559-8.749-2.37-13.111l-.409-2.232c-.108-.546-.26-1.076-.343-1.628-.291-1.93-.648-3.849-1.014-5.766-.184-.96-.287-1.934-.442-2.899a72.15 72.15 0 0 0-.654-3.453l-.49-2.264c-.094-.447-.129-.911-.246-1.352-.104-.393-.277-.767-.392-1.156-.263-.887-.492-1.917-1.014-2.704-.397-.6-1.049-.841-1.684-1.14-.903-.425-1.802-.861-2.763-1.14-2.365-.688-4.869-.678-7.277-1.156-1.777-.354-3.405-1.121-5.053-1.841l-1.324-.57c-.777-.326-2.015-1.056-3.009-.928zm.262 1.547zm17.791 16.418c-1.248.351-2.6.854-3.63 1.662-.242.189-.632.41-.785.684-.12.214-.103.516-.147.749l-.164.814c-.076.737.062 1.495.196 2.215.177.95.395 1.899.442 2.867.025.513-.02 1.035-.049 1.547-.018.19.121.357.31.375s.374-.12.393-.309c.209-1.544 0-3.096-.229-4.626-.097-.649-.368-1.933.065-2.509.085-.112.306-.114.409-.195.16-.126.22-.332.409-.456.953-.622 2.131-.732 3.221-.928.524-.121.857-.636.736-1.157a.99.99 0 0 0-1.177-.733z"/><path d="M140.761 105.499a.7.7 0 0 0-.442.309c-.711.798-1.168 1.721-1.57 2.704-.563 1.378-.82 2.804-.523 4.283.153.765.533 1.454.9 2.134.08.149.147.302.245.44.152.214.571.632.752.814a.35.35 0 0 0 .474.13c.166-.093.225-.307.131-.472l-.262-1.026-.31-.83c-.308-.987-.507-2.099-.36-3.127.083-.585.246-1.183.474-1.727.371-.886.91-1.693 1.259-2.59a.69.69 0 0 0-.229-.961c-.166-.102-.363-.123-.539-.081zm-5.231 82.086c-.105.029-.175.123-.147.229.312 2.061 1.411 3.884 2.371 5.7.674 1.275 1.279 2.591 1.782 3.942l.998 2.899a65.69 65.69 0 0 0 2.73 6.466l2.29 4.381c3.703 7.139 7.994 13.935 11.986 20.913 1.259 2.202 2.45 4.441 3.646 6.678.149.276.491.377.768.228a.56.56 0 0 0 .229-.766c-2.146-3.911-4.403-7.756-6.704-11.58-3.15-5.236-6.358-10.446-9.189-15.864-.757-1.448-1.412-2.946-2.093-4.43-1.108-2.414-2.199-4.838-3.206-7.297-.485-1.187-.871-2.415-1.406-3.583-.6-1.312-1.425-2.515-2.093-3.795-.677-1.298-1.203-2.632-1.733-3.99-.028-.105-.123-.158-.229-.131zm27.11 52.334c-.075.032-.114.122-.082.196l.556 1.857.458 1.498c.891 2.268 2.02 4.435 3.041 6.645l2.158 5.017c.767 1.808 1.663 3.552 2.061 5.488.389 1.894-.094 3.672-.572 5.506-.402 1.539-.771 3.112-.851 4.707-.109 2.184.216 4.446.867 6.531l.392 1.091c.169.367.392.705.507 1.092.061.204.09.408.131.618.075.175.266.254.442.18s.27-.265.196-.44c-.123-.173-.276-.334-.376-.521-.233-.434-.209-.675-.327-1.14l-.458-1.581c-.287-1.076-.494-2.191-.556-3.306-.119-2.123.235-4.304.768-6.352l.671-2.476c.315-1.145.649-2.284.572-3.485-.073-1.144-.453-2.271-.801-3.355l-.753-2.248c-.593-1.502-1.342-2.96-2.076-4.397l-3.99-8.046c-.246-.459-.565-.889-.834-1.336l-.965-1.661c-.031-.075-.105-.113-.179-.082zm9.305 42.021c-.178.069-.266.262-.197.439.495 1.269.608 2.609.687 3.958l.311 5.391c.17 1.135.407 2.262 1.145 3.176a.56.56 0 0 0 .801.033c.236-.214.263-.579.048-.815-.455-.428-.659-.988-.833-1.58-.251-.855-.347-1.739-.442-2.622l-.212-1.808-.262-2.997c-.117-1.001-.231-2.036-.605-2.98-.069-.177-.264-.265-.441-.195zm6.148-9.497c-.088.022-.137.108-.115.195.386 1.757.527 3.546.752 5.326.46 3.644 1.001 7.437.36 11.092-.36 2.051-1.148 4.637-3.467 5.147-.173.036-.281.202-.245.375s.203.279.376.243c2.818-.558 3.725-3.743 4.006-6.221.611-5.386.053-10.851-1.471-16.043-.023-.088-.109-.137-.196-.114zm-21.061-97.413c-.069.073-.057.192.017.26l3.351 3.665c2.57 3.15 4.714 6.571 6.476 10.229 4.174 8.665 6.128 18.241 7.995 27.607 1.993 9.995 3.898 20.175 7.8 29.642.66 1.601 1.414 3.161 2.191 4.708a.65.65 0 0 0 .867.293.64.64 0 0 0 .294-.863c-1.979-4.111-3.631-8.361-4.971-12.721-3.675-11.964-5.267-24.446-8.731-36.467-1.989-6.902-4.659-13.741-8.863-19.626-1.747-2.447-3.808-4.849-6.164-6.727-.074-.069-.193-.073-.262 0z"/><path d="M187.266 252.979c-.118-.069-.273-.036-.343.082a.25.25 0 0 0 .081.342c.803.644 1.831 1.006 2.486 1.824.462.577.689 1.268.932 1.955l.572 1.596 1.75 5.13 1.259 4.056 1.161 4.951c.297 1.463.613 2.946.556 4.447-.047 1.232-.324 2.452-.605 3.648a33.04 33.04 0 0 1-1.913 5.717l-1.979 4.023-1.242 2.948-2.927 6.661-.867 1.548c-.34.558-.57.913-1.161 1.205-.032.016-.104.057-.147.049-.069-.013-.136-.181-.18-.228-.207-.223-.355-.467-.605-.652-.533-.393-1.12-.148-1.586.212-.654.504-1.081 1.192-1.472 1.906-.541.988-.934 1.936-2.224 1.954-.32.005-.646-.123-.948-.212-.048-.014-.035-.162-.049-.26-.045-.322-.028-.671 0-.994.05-.59.187-1.119.31-1.693l.524-2.362.36-1.369.85-2.882.392-1.238c.143-.586.168-1.229.229-1.824l.213-2.248c.107-1.718.018-3.396-.834-4.935-.036-.104-.141-.15-.245-.114s-.167.14-.131.244c.161 1.091.007 2.21-.017 3.307l-.18 3.615-.147 1.108-.065.407-.017.114c-.001.01.003.017 0 .033s-.002.042 0 .032l-.686 2.199-.9 3.258c-.341 1.413-.609 2.833-.702 4.283-.039.585-.081 1.296.228 1.824.373.637 2.028.893 2.698.782.238-.039.473-.117.687-.228 1.148-.595 1.501-1.946 2.175-2.948.193-.287.423-.574.703-.782.054-.04.121-.082.18-.114.274.267.481.612.867.733.605.191 1.365-.014 1.831-.423.178-.157.301-.345.458-.521.461-.521.847-1.039 1.193-1.645l.327-.587c1.595-2.924 2.635-6.108 3.958-9.153l1.291-2.639c1.01-2.185 1.778-4.467 2.388-6.791.389-1.486.786-3.053.85-4.594.111-2.69-.531-5.382-1.259-7.948l-1.75-5.603-1.864-5.196-.605-1.628c-.36-.973-.733-2-1.439-2.785-.653-.727-1.527-1.225-2.42-1.597z"/><path d="M186.545 283.829c-.04.026-.058.074-.033.114l.099.424c.093.226.304.388.441.586.241.348.407.68.442 1.108.05.619-.02 1.24-.082 1.856-.125 1.236-.404 2.409-.752 3.6l-2.028 6.042c-.356.989-.837 1.914-1.308 2.851-.286.568-.66 1.136-.719 1.775-.143.266-.055.591.212.733s.61.038.753-.228c.099-.094.226-.17.31-.277.27-.343.515-1.042.687-1.433l.932-2.297c.741-1.734 1.446-3.414 1.88-5.26.388-1.648.531-3.331.605-5.017.044-1.003.301-2.089-.081-3.062-.243-.617-.725-1.115-1.243-1.498-.026-.04-.074-.042-.115-.017zm3.99-3.632c-.068.046-.095.143-.049.212.115.243.382.411.491.651-.06.136-.034.293-.049.44a6.36 6.36 0 0 0-.017 1.042c.028.45.164.891.229 1.336l.295 2.394.147 1.45.049.439c.003.03-.003.053 0 .082-.085.195-.106.409-.148.619l-.114.7-.229 1.075c-.028.234.064.52.115.749-.006.046.019.092.065.098s.093-.035.098-.081c.111-.21.296-.398.376-.619.122-.335.179-.689.295-1.026.153-.445.367-.903.458-1.369.035-.179-.009-.39-.017-.569l-.065-1.092-.376-3.013-.246-1.14c-.069-.589.09-1.302-.261-1.824-.186-.277-.598-.294-.834-.505-.047-.069-.144-.095-.213-.049zm3.451-1.759c-.051.004-.086.047-.081.097l.065 3.372.147 2.02a.32.32 0 0 0 .343.292.32.32 0 0 0 .294-.341l-.195-2.02-.475-3.339c-.004-.05-.047-.085-.098-.081zM76.025 75.727c-.06.018-.1.071-.082.13.024.334.018.681.082 1.01.062.316.189.608.294.912l.654 1.759c.53 1.363 1.116 2.711 1.798 4.006 1.089 2.067 2.51 3.99 4.121 5.685 2.207 2.321 4.829 4.217 7.865 5.309 1.85.665 3.868.856 5.822.815 1.35-.029 2.679-.126 4.006-.391 3.242-.647 6.366-2.038 9.189-3.73 2.394-1.435 4.526-3.209 6.508-5.163l1.864-2.004c.116-.151.262-.3.343-.472.088-.188.107-.387.164-.586.101-.116.084-.29-.033-.391s-.292-.1-.393.016c-.189.085-.398.147-.572.261-.155.102-.275.261-.408.391l-1.113 1.156-1.847 1.808c-2.404 2.175-5.039 4.231-7.947 5.7-2.979 1.505-6.39 2.558-9.761 2.508-1.876-.028-3.704-.403-5.494-.928-.803-.236-1.583-.5-2.338-.864-2.664-1.28-4.986-3.205-6.802-5.521-1.655-2.109-3.018-4.539-4.055-7.004a32.85 32.85 0 0 1-.949-2.574c-.098-.301-.167-.605-.294-.895-.134-.305-.329-.589-.491-.88-.018-.059-.071-.083-.131-.065z"/><path d="M77.581 80.872c-.082.016-.147.097-.131.179-.083.653-.017 1.316-.065 1.971-.049.664-.128 1.362-.311 2.004-1.011 3.552-3.36 6.878-6.181 9.235a17.36 17.36 0 0 1-3.058 2.036c-.284.148-.684.388-1.014.407-.128.008-.25-.029-.376-.048a.33.33 0 0 0-.245.407c.046.184.223.306.409.261.538-.394 1.178-.453 1.799-.684.665-.248 1.288-.588 1.88-.977a19.1 19.1 0 0 0 5.837-6.124c.799-1.337 1.432-2.79 1.75-4.316.283-1.36.585-2.939-.115-4.219-.016-.082-.098-.146-.18-.13zm31.917 10.539c-.12-.078-.281-.054-.36.065-.163.05-.335.088-.474.195-.174.134-.257.396-.294.603-.151.818.296 1.535.801 2.134.398.472.846.785 1.357 1.124.75.497 1.532.933 2.355 1.303.612.275 1.245.563 1.913.651.179.064.377-.033.441-.212s-.033-.376-.212-.44c-.336-.212-.679-.357-1.031-.537-1.185-.61-2.376-1.319-3.303-2.28-.226-.235-.477-.454-.654-.733-.206-.326-.231-.649-.294-1.01-.03-.172-.123-.331-.164-.505a.26.26 0 0 0-.081-.358zm-35.042 8.436c-.172-.089-.385-.008-.474.163a.33.33 0 0 0 .147.456c1.894 1.328 4.1 1.977 6.263 2.736l4.856 1.645 3.074 1.303c1.917.837 3.982 2.033 5.085 3.877.339.565.547 1.185.687 1.824.035.187.221.312.409.277s.297-.221.262-.407c-.449-2.769-2.747-4.603-5.036-5.962-1.305-.775-2.67-1.373-4.072-1.954l-2.142-.879-9.059-3.079zm39.767 1.188l-3.041 1.156-2.142.847c-3.093 1.274-6.982 2.99-7.375 6.776-.057.549-.019 1.038.082 1.58.018.161.165.278.328.26s.279-.164.261-.326c-.024-.692-.026-1.385.18-2.052.806-2.616 3.826-4.106 6.164-5.049a53.33 53.33 0 0 1 1.439-.554l2.11-.782c.825-.321 1.598-.696 2.354-1.156.194-.098.262-.345.164-.538s-.33-.26-.524-.162zM78.627 68.559c-.035.004-.053.047-.049.082l-.016.13c.004-.034-.01.065-.016.097-.001.004.001.029 0 .033-.018.079-.06.147-.065.228-.003.041-.008.171 0 .13.039-.206-.001.001-.017.228-.001.124.09.227.213.228s.227-.105.229-.228c-.1-.433-.067-.234-.098-.423-.013-.074.027.144.082.195.031.029.003-.087 0-.13-.007-.113-.053-.19-.098-.293-.014-.03-.039-.13-.033-.097.044.25-.002.009-.049-.114-.004-.034-.047-.069-.082-.065zm-.263 2.541c-.114-.037-.24.017-.278.13-.516 1.353-1.185 2.602-1.93 3.844l-1.047 1.629-1.259 1.498-2.191 2.378c-.884.851-1.886 1.56-2.796 2.378-.235.186-.285.532-.098.766a.55.55 0 0 0 .769.081c1.217-.846 2.24-1.957 3.254-3.029.765-.809 1.522-1.638 2.175-2.541l1.096-1.678a18.11 18.11 0 0 0 2.436-5.196c.038-.114-.017-.223-.131-.261zm-10.71-19.204c-.069-.036-.143-.003-.18.066-.555.623-.782 1.286-1.079 2.052-1.365 3.515-.049 6.929 1.357 10.228.414.971.88 1.924 1.243 2.916.374 1.022.665 2.057.932 3.111a.46.46 0 0 0 .572.326c.254-.067.41-.317.343-.57-.148-.54-.272-1.079-.442-1.613-.41-1.289-.957-2.575-1.504-3.811-1-2.259-2.147-4.523-2.272-7.036-.056-1.116.029-2.288.31-3.372.191-.732.596-1.37.785-2.101.037-.068.003-.159-.065-.196z"/><path d="M70.632 71.572c-.174.016-.31.169-.295.342.188 2.418.188 4.838-.343 7.215-.172.77-.399 1.53-.687 2.264a8.28 8.28 0 0 1-.392.831c-.071.134-.194.256-.212.407-.024.199.05.405.082.603-.05.088-.007.193.082.244s.195.023.245-.065c.191-.081.416-.108.572-.244.128-.111.16-.302.229-.456s.117-.316.18-.473l.507-1.433c.815-2.916.686-5.96.376-8.942-.016-.173-.17-.309-.343-.293zm-3.174-19.675l-1.798 1.841c-.43.486.858-.981 1.227-1.515.122-.177-.318.292-.475.439l-.474.44-1.406 1.336c-.147.159-.556.647-.392.505 1.136-.989-.003-.002-.278.635-.041.041-.041.121 0 .163s.106.041.148 0l1.864-1.792c.489-.427-.879.967-1.226 1.515-.116.183.347-.262.507-.407l.458-.456 1.341-1.401.442-.472c-1.143.983-.007.008.327-.57.072-.071.071-.189 0-.261s-.19-.071-.262 0zm26.456-4.121c-1.662.63-3.401.993-5.151 1.271-1.841.292-3.828.424-5.625-.179-.608-.204-1.096-.533-1.635-.863-.074-.064-.197-.058-.262.016a.19.19 0 0 0 .016.261c.869 1.018 2.668 1.404 3.924 1.515 3.052.27 6.171-.18 8.977-1.417.166-.068.249-.258.18-.423s-.259-.247-.425-.179z"/><path d="M88.109 44.502c-.256.146-.434.331-.67.505-1.247.916-2.225 2.136-3.663 2.801-.468.216-1.567.526-2.028.114-.029-.026-.178-.266-.196-.294-.164-.097-.376-.033-.475.13s-.049.375.115.472c.578.075 1.14.27 1.734.212 1.378-.134 2.555-1.013 3.564-1.89.462-.401.852-.799 1.194-1.303.165-.243.342-.435.474-.7.015-.016.016-.034 0-.049s-.034-.016-.049 0z"/><path d="M69.175 39.73a.33.33 0 0 0-.065.472c.46.31.738.763 1.144 1.14.707.657 1.471 1.214 2.338 1.645 2.005.998 4.193 1.414 6.393 1.726l2.715.359 3.467.195 3.009.13c.241.018.456-.167.474-.408a.43.43 0 0 0-.409-.456c-1.561-.242-3.15-.197-4.725-.277-3.335-.168-6.762-.276-9.909-1.515-1.197-.471-2.381-1.098-3.303-2.003-.359-.353-.487-.454-.638-.945-.114-.152-.337-.179-.491-.065z"/><path d="M75.584 37.401c-.222.099-.405.232-.621.342-.517.263-1.084.476-1.619.7l-1.324.586c-.863.342-1.771.567-2.682.733-.059.005-.087.056-.082.114s.055.103.115.098c.968.005 1.864-.286 2.779-.57.868-.27 1.76-.581 2.567-1.01l.442-.261c.225-.108.458-.177.67-.309.121-.065.163-.206.098-.326s-.223-.163-.344-.098z"/><path d="M72.118 35.269c-.055.042-.075.124-.033.179.039.504.492.836.867 1.14.926.752 2.01 1.265 3.156 1.596.601.173 1.079.188 1.407-.407.009-.002.018-.007.016-.016s-.007-.018-.016-.016c-.627-.607-1.363-.517-2.158-.814-.668-.249-1.35-.596-1.962-.961-.371-.221-.683-.542-1.096-.668-.042-.055-.124-.074-.179-.033z"/><path d="M95.435 17.676c-.066-.047-.15-.034-.196.033l-6.066 6.189c-3.516 2.972-7.449 5.418-11.429 7.72-1.249.723-2.469 1.497-3.712 2.231-.36.213-.728.392-1.079.619-.177.114-.334.281-.523.375s-.414.132-.621.195a.34.34 0 0 0-.114.472c.099.162.311.212.474.114.153-.153.282-.33.458-.456s.388-.176.572-.277.361-.22.54-.326c.536-.318 1.075-.608 1.619-.912l4.856-2.639c1.42-.776 2.799-1.633 4.17-2.492 2.765-1.733 5.379-3.683 7.636-6.043.577-.603 1.202-1.198 1.717-1.857.665-.85 1.232-1.801 1.733-2.753.047-.066.034-.149-.032-.195zM72.951 42.531c-1.561.886-2.953 1.976-4.268 3.192-1.149 1.062-2.259 2.222-3.074 3.567-1.033 1.705-1.742 3.77-1.75 5.766-.007.07.043.14.115.146s.14-.043.147-.114c.219-1.084.41-2.154.85-3.176.34-.788.802-1.498 1.292-2.199.869-1.242 1.84-2.377 2.959-3.404 1.282-1.177 2.721-2.181 4.072-3.274.139-.095.177-.285.082-.423s-.286-.176-.425-.081z"/><path d="M102.092 9.582c-.875.048-1.775.127-2.633.309-.832.177-1.642.481-2.453.733l-1.586.537c-3.014 1.181-5.748 3.276-7.947 5.619-.735.783-1.35 1.677-1.962 2.557l-2.109 3.355c-.737 1.346-1.379 2.78-1.913 4.218-.259.697-.386 1.46-.654 2.15-.09.23-.217.431-.327.652-.049.184.061.375.245.424a.35.35 0 0 0 .425-.244c.013-.244.007-.492.049-.733.121-.701.465-1.417.703-2.085a27.27 27.27 0 0 1 1.52-3.469c.841-1.616 1.809-3.169 2.992-4.561l1.603-1.726c1.98-2.117 4.315-3.865 6.966-5.065.968-.439 1.95-.889 2.992-1.124.509-.115 1.12-.17 1.635-.244 1.123-.162 2.23-.294 3.368-.277l1.782.114 1.832.179c.969.177 1.914.51 2.878.7.311.062.769.039 1.079.033.13.042.269-.033.31-.163s-.032-.268-.163-.309c-.232-.172-.639-.513-.915-.619-.952-.363-2.01-.495-3.009-.652l-1.93-.309c-.917-.092-1.861-.051-2.779 0zm17.854 6.108a.39.39 0 0 0-.18.521c.08.38.18.759.36 1.107.37.713 1.054 1.228 1.733 1.629 1.414.834 3.013 1.143 4.563 1.629 3.787 1.186 8.174 2.625 10.382 6.189.905 1.459 1.225 3.145 1.456 4.821.142 1.035.24 2.086.327 3.127a84.19 84.19 0 0 1 .278 4.919c.062 2.49-.004 4.985.049 7.476l.098 2.85.196 5.994c.018.418.041.822.082 1.238-.201-.091-.4-.174-.588-.293l-1.227-.749a71.51 71.51 0 0 1-1.75-1.108c-.186-.121-.35-.275-.555-.359s-.437-.091-.654-.13c-.03-.018-.064-.013-.083.017s-.013.079.017.097c.131.175.234.372.392.521s.374.236.556.358c.384.257.749.537 1.128.798.524.36 1.039.762 1.603 1.059.354.186 1.257.629 1.602.228.179-.207.103-.569.082-.798-.043-.466-.098-.932-.114-1.401-.061-1.823-.02-3.65.016-5.473.019-.95.09-1.901.115-2.85.057-2.248-.007-4.496-.049-6.743l-.05-3.665c-.083-2.871-.152-6.032-1.079-8.779-.266-.79-.659-1.543-1.128-2.231-1.854-2.719-4.957-4.219-7.996-5.244-.915-.309-1.85-.564-2.763-.88-.846-.292-1.637-.647-2.436-1.042-.972-.48-1.859-.96-2.699-1.645-.401-.328-.796-.622-1.144-1.01-.095-.194-.345-.273-.54-.179z"/><path d="M108.091 1.292c-3.045.22-5.681 1.671-6.705 4.707-.175.52-.31 1.173-.278 1.726.009.149.129.599.164.749.104.452.218.831.523 1.189.092.124.268.141.392.049s.142-.267.05-.391c-.167-.266-.29-.631-.311-.945-.021-.308.043-.328.081-.635.048-.375.087-.692.197-1.059.159-.531.352-1.013.654-1.482 1.453-2.26 3.872-2.797 6.393-2.785 3.507.017 6.992.846 10.318 1.889 1.794.563 3.566 1.201 5.282 1.971.811.364 1.64.746 2.403 1.205.54.324 1.048.707 1.57 1.059.788.53 1.57 1.044 2.306 1.645.93.759 2.058 1.677 2.632 2.753.208.389.418.812.54 1.238.396 1.383.19 2.897-.196 4.251-.21.734-.504 1.66-.932 2.296-.178.264-.421.503-.638.733a.64.64 0 0 0 .065.912c.275.237.695.208.932-.065.834-1.035 1.683-2.102 2.159-3.355.64-1.689.559-3.492.049-5.196-.337-1.126-.799-2.194-1.554-3.111-.817-.993-1.856-1.8-2.91-2.525-1.077-.74-2.201-1.28-3.385-1.824l-2.518-1.173c-3.51-1.56-7.181-2.762-10.972-3.42-2.078-.361-4.202-.56-6.311-.407zm6.296 13.03c-.245.076-.493.11-.72.228-.38.199-.664.542-.981.831l-.85.782c-.938.892-1.788 1.891-2.355 3.062-.43.887-.713 1.844-.997 2.785-.231.765-.53 1.583-.622 2.378-.027.241-.011.491-.016.733-.013.052.03.101.082.114a.09.09 0 0 0 .114-.065l.327-.652c.372-.903.541-1.895.867-2.818a13.47 13.47 0 0 1 1.406-2.834c.603-.93 1.316-1.783 2.093-2.573l.867-.831c.159-.148.348-.262.474-.44.147-.207.217-.455.327-.684-.004-.021-.012-.02-.016-.016zm15.467 51.696c.026.198.005.397.065.586.096.303.336.546.507.815l1.096 1.726c.953 1.858 1.392 4.128.817 6.157-.109.386-.214.801-.409 1.157-.198.361-.497.686-.768.993-.048.044-.044.132 0 .179s.116.044.163 0c2.742-2.056 2.257-6.106 1.079-8.893-.366-.868-.766-1.74-1.504-2.362-.136-.115-.256-.251-.425-.31-.196-.068-.415-.032-.621-.049z"/><path d="M136.411 55.984a.55.55 0 0 0-.507.586l.18 3.274.017 2.232.032 3.307c-.04 1.056-.187 2.096-.31 3.143-.132 1.114-.254 2.188-.556 3.274-.639 2.299-1.437 4.393-3.859 5.261-.136.042-.223.19-.18.326s.191.205.327.163c2.475-.663 3.919-3.199 4.578-5.505a25.47 25.47 0 0 0 .736-3.388c.177-1.244.212-2.525.278-3.779l.131-2.818c.018-1.853-.13-3.723-.278-5.57a.55.55 0 0 0-.589-.505zm-11.363 9.627c-.095-.019-.177.052-.196.146l-.606 1.971c-.559 1.529-1.377 3.136-2.485 4.348-.369.404-.791.844-1.242 1.157l-1.407.88c-.023.007-.039.025-.032.048s.041.04.065.033c.391.013.523.053.899-.081.192-.068.6-.333.769-.44a6.47 6.47 0 0 0 1.423-1.189c1.178-1.339 1.964-2.886 2.501-4.577.219-.691.409-1.359.458-2.085.019-.095-.052-.193-.147-.212z"/><path d="M124.526 72.843c-1.254.256-2.434.759-3.679 1.042-.335.076-.736.183-1.079.179-.237-.003-.383-.053-.622 0-.094-.028-.185.02-.212.114s.02.201.114.228c.276.25.56.233.916.293 1.033.175 2.13-.216 3.058-.635.303-.137.6-.297.882-.472l.72-.489c.072-.031.112-.125.082-.195s-.109-.096-.18-.065z"/><path d="M123.511 73.379a.34.34 0 0 0-.474.098c-.051.222-.063.457-.147.668-.156.388-.461.704-.654 1.075-.279.534-.511 1.098-.671 1.678-.811 2.943-.032 5.99 2.158 8.127.264.258.688.65 1.014.831.201.111.425.175.638.261.099.069.241.034.31-.065s.051-.241-.048-.31c-.677-.748-1.503-1.334-2.126-2.134-1.678-2.154-2.024-4.526-1.325-7.134.153-.57.339-1.142.589-1.678.087-.187.159-.382.294-.537.149-.17.359-.273.54-.407.104-.16.062-.37-.098-.473z"/><path d="M127.615 74.015c-.024-.013-.052-.008-.065.016-.838.767-1.298 1.906-1.701 2.948-.721 1.868-1.334 3.975-1.275 5.994a7.45 7.45 0 0 0 .327 1.971l.164.439c.101.146.261.21.408.293.031.051.097.079.148.049s.062-.096.032-.146c.002-.085.023-.38 0-.473-.033-.132-.13-.248-.18-.375-.106-.273-.156-.538-.196-.83-.133-.977-.044-2.015.131-2.981.261-1.44.772-2.813 1.308-4.17.344-.871.775-1.741.916-2.671.013-.024.008-.052-.017-.065zm4.513 3.258c-.018.012-.028.03-.016.049.037.363.023.727.049 1.091.008.122.044.283.032.407-.021.218-.126.415-.196.619-.243.711-.544 1.372-.932 2.02-1.134 1.894-2.605 3.534-3.989 5.245l-3.762 4.804-.948 1.369c-.639 1.056-1.083 2.21-1.488 3.371-.689 1.981-1.155 4.057-1.243 6.156-.128 3.076.584 6.116 3.075 8.144 1.403 1.143 2.944 1.347 4.611 1.857.188.032.376-.106.409-.293s-.09-.359-.278-.391c-2.429-.095-4.9-1.899-5.953-4.023-.567-1.145-.786-2.467-.866-3.73-.129-2.031.249-4.063.801-6.01.441-1.556 1.04-3.116 1.897-4.496.453-.73 1.034-1.384 1.569-2.052l1.93-2.378 3.5-4.364.98-1.336.785-1.27c.42-.706.847-1.569.949-2.394.035-.284 0-.564-.017-.847-.043-.756-.176-1.123-.85-1.531-.012-.018-.031-.028-.049-.016z"/><path d="M117.789 84.113c-.16-.104-.37-.061-.475.097l-.572.929c-.162.315-.249.675-.36 1.01-.235.713-.415 1.437-.588 2.167l-.589 2.997c-.193 1.42-.291 2.868-.343 4.3l-.033 1.791c.018.708.103 1.103.164 1.808.223 2.602.486 5.176 1.422 7.639.278.73.562 1.452.948 2.133 1.074 1.891 2.826 3.412 4.988 3.876.785.169 1.586.203 2.387.164.929-.047 1.854-.305 2.731-.603.198-.062.307-.275.245-.473a.38.38 0 0 0-.474-.244c-1.084.312-2.2.582-3.336.587-.581.002-1.171-.065-1.733-.212-3.691-.962-5.418-5.211-6.034-8.567-.103-.563-.18-1.128-.262-1.694-.124-.867-.226-1.762-.245-2.639-.013-.593.044-1.182.05-1.775.005-.588-.018-1.187 0-1.775.041-1.407.176-2.807.359-4.202.256-1.952.532-3.938 1.341-5.749.169-.378.272-.743.507-1.091a.34.34 0 0 0-.098-.472zm-25.149.767c-.133.136-.136.356 0 .488.647.284 1.184.797 1.831 1.108.936.448 2.008.749 3.042.847.399.038.794-.011 1.194 0 .816.024 1.725.088 2.42-.391.031-.007.039-.034.033-.065s-.035-.056-.066-.049c-.785-.126-1.576.079-2.371.066-.391-.007-.742-.108-1.128-.163-.88-.125-1.745-.268-2.583-.57-.535-.192-1.05-.421-1.505-.766-.082-.062-.184-.113-.245-.195-.066-.089-.086-.209-.131-.309a.35.35 0 0 0-.491 0zm-6.868-4.546c-.132-.06-.299-.002-.359.13s-.002.282.131.342c.655.175 1.238.479 1.881.684.432.138.88.231 1.324.326l4.415.766c.382.088.805.186 1.161.374.541.288 1.012.71 1.635.815.88.146 1.762-.348 2.632-.195.258.045.57.225.801.326.592.256 1.224.466 1.865.553 2.019.275 4.055-.287 5.919-1.01.751-.291 1.533-.632 2.077-1.238-.937.008-1.838.453-2.715.749-1.103.373-2.286.629-3.45.717-.961.072-2.03-.038-2.943-.358-.474-.166-.876-.478-1.374-.586-.671-.146-1.347.032-2.011.114-.207.025-.445.067-.654.032-.667-.11-1.148-.662-1.798-.814-.342-.08-.713-.028-1.063-.049l-.801-.081c-1.661-.19-3.275-.425-4.889-.864-.415-.113-.857-.169-1.243-.358-.196-.096-.359-.253-.54-.375zm8.175-8.697c-.138.046-.21.204-.163.342l.621 1.596c.386.836 1.009 1.594 1.717 2.183.31.257.712.378 1.096.472 1.225.301 2.348-.22 3.352-.88.49-.322.843-.62 1.129-1.14a.22.22 0 0 0 .016-.31.2.2 0 0 0-.294-.016c-.577.216-1.014.589-1.537.896-.718.421-1.65.689-2.485.57-.293-.041-.562-.204-.834-.309-.338-.131-.551-.27-.801-.537-.335-.358-.603-.784-.85-1.206a5.66 5.66 0 0 1-.638-1.498c-.046-.138-.188-.209-.327-.163zm23.251-17.135l-1.52.212c-.258.059-.499.187-.753.261l-2.24.57-2.191.521-2.159.57c-.253.029-.437.252-.408.505s.269.436.523.407l2.322-.098c.509-.063 1.003-.202 1.504-.31l2.224-.44c.967-.166 1.967-.224 2.943-.326a.94.94 0 0 0 .818-1.059c-.069-.52-.541-.882-1.063-.815zm-25.964-5.896c-.178.009-.363.086-.491.228a.69.69 0 0 0 .065.977c.088.201.125.432.262.603.123.154.318.222.474.342L93 51.815l3.303 2.639a.28.28 0 0 0 .392-.016c.105-.112.096-.287-.016-.391l-.85-.848c-.133-.15-.233-.315-.36-.472l-1.553-1.856-1.145-1.433c-.138-.152-.236-.347-.409-.456-.185-.118-.428-.129-.638-.196a.67.67 0 0 0-.49-.179zm29.055 11.516a.73.73 0 0 0-.556.114c-.61.405-1.31.73-2.028.896-1.29.299-2.577.039-3.875.033-.201-.001-.404.044-.605.049-.813.018-1.625-.071-2.436.032-.42.054-.797.19-1.194.326-.298.102-.594.164-.883.294-.596.265-1.192.681-1.684 1.107-.293.254-.495.576-.752.864-.113.126-.094.311.032.423s.313.111.426-.016c.158-.178.349-.327.539-.472l.736-.602c.489-.336 1.222-.639 1.815-.717.88-.116 1.838-.061 2.715.017.595.052 1.152.212 1.749.261 2.295.185 4.36.092 6.295-1.238.347-.235.432-.714.197-1.059-.118-.173-.301-.274-.491-.31z"/><path d="M120.697 60.53c-.23-.07-.486.048-.556.277-.103.197-.182.421-.31.602s-.319.304-.442.489c-.222.333-.322.72-.507 1.075a13.48 13.48 0 0 1-1.308 2.004l-.785.961c-.141.156-.312.274-.441.44-.143.184-.256.403-.376.603-.085.063-.097.176-.033.261s.177.112.262.049c.232-.064.484-.095.703-.195.413-.19.752-.504 1.111-.782.905-.7 1.652-1.583 2.241-2.557.119-.197.222-.413.326-.619s.244-.408.295-.635c.054-.242 0-.485.016-.733l.082-.7c.071-.229-.048-.468-.278-.537zm-36.022-8.764a.68.68 0 0 0-.507.147c-.301.241-.356.677-.114.977.475 1.178 1.981 1.626 3.025 2.117 1.465.691 2.924 1.46 4.235 2.41.621.45 1.053.929 1.472 1.564.114.174.251.319.31.521.119.408.053.87.065 1.287-.037.149.064.288.212.326s.29-.047.328-.196c.337-.623.252-1.214.098-1.873-.323-1.387-1.74-2.429-2.862-3.176l-1.079-.7-1.096-.651-1.537-.945c-.7-.499-1.322-1.13-2.076-1.547a.72.72 0 0 0-.474-.261z"/><path d="M84.774 52.01a.74.74 0 0 0-.883.57c.217 2.539.293 1.579.212 2.541-.062.736-.219-1.461-.442-2.166-.044-.141-.086.279-.115.423-.058.298-.042.609-.032.912.01.309-.011.623.032.929.063.436.201.896.327 1.319l.131.407c.047.13.151.529.148.391-.042-1.583-.002-.007.163.326a.46.46 0 0 0 .589.277c.241-.084.379-.346.295-.586.082-2.235.246-1.374.082-2.231-.121-.629-.074 1.286-.148 1.922-.013.11-.025-.231-.032-.342a6.22 6.22 0 0 1 0-.733c.038-.656.167-1.309.278-1.955.016-.092.01-.183.016-.277l-.032-.847a.75.75 0 0 0-.589-.88zm.621 1.727c.003-.033.014-.065.017-.098l.016-.374-.033.472zm25.578 10.3c0-1.119.913-2.027 2.039-2.027s2.039.907 2.039 2.027-.913 2.027-2.039 2.027-2.039-.908-2.039-2.027zm-23.934-6.351c0-1.12.913-2.027 2.039-2.027s2.039.908 2.039 2.027-.913 2.027-2.039 2.027-2.039-.907-2.039-2.027zm2.706 427.489c-.443.15-.803.688-1.03 1.026-.788 1.169-.978 2.972-1.144 4.332-.313 2.554-.369 5.135-.409 7.705l.131 6.319.49 5.407a.452.452 0 1 0 .9-.081l-.507-9.838.098-6.71c.133-1.796.264-3.623.703-5.375.137-.545.287-1.042.622-1.498l.262-.326c.011-.012.012-.019.032-.033l.164.766c.097.59.225 1.144.425 1.71.558 1.577 1.22 3.163 2.126 4.577.432.674.941 1.351 1.586 1.84.452.343 1.076.469 1.619.57l1.717.244 2.011.229 1.423.195c2.162.291 5.564.917 6.312 3.371.074.177.281.27.457.196s.254-.28.18-.456c-.248-.463-.524-.917-.883-1.303-1.175-1.264-2.908-1.78-4.529-2.199-1.4-.361-2.785-.56-4.218-.733l-2.322-.326c-.368-.071-.753-.147-1.096-.309-.679-.322-1.166-1.147-1.537-1.759-.919-1.518-1.597-3.187-2.142-4.87-.223-.688-.222-1.422-.474-2.101-.088-.237-.238-.484-.491-.57a.72.72 0 0 0-.474 0z"/><path d="M111.148 488.527c-1.884-.047-3.825.186-5.559.961-.569.255-1 .578-1.472.978-.357.302-.691.607-.85 1.058-.431 1.226.201 2.571.638 3.698l.507 1.482a.45.45 0 0 0 .572.293c.244-.076.388-.328.311-.57l-.9-2.899c-.125-.501-.276-1.109-.065-1.613.41-.977 1.492-1.525 2.453-1.84 1.618-.532 3.431-.63 5.118-.472.805.075 1.643.178 2.321.651.692.482 1.145 1.341 1.489 2.085.656 1.423 1.065 2.922 1.945 4.235a.4.4 0 0 0 .54.179c.2-.103.283-.355.18-.554l-1.472-3.551c-.6-1.325-1.343-2.856-2.714-3.55-.923-.467-2.023-.545-3.042-.571z"/><path d="M118.065 496.689c-1.004.044-2.005.203-2.993.375-2.275.395-4.48 1.066-6.524 2.149-.599.318-1.174.695-1.701 1.124-.123.101-.408.538-.408.538l-.066.211s-.069.328.066.424.266 0 .266 0l.142-.058.18-.121s.115-.059.164-.098c.142-.113.248-.294.376-.423.615-.622 1.538-1.048 2.338-1.369.55-.22 1.121-.374 1.685-.553 2.28-.727 4.661-1.123 7.047-1.271.224-.014.548-.044.785.016.795.202 1.275 1.075 1.635 1.727l.425.749-.392.065-1.079.131c-1.135.154-2.25.42-3.336.781-1.87.622-3.584 1.57-5.396 2.33-.414.173-.998.443-1.472.505-.191.025-.379.005-.572.016-.207.011-.454.019-.638-.098-.218-.138-.392-.57-.392-.57l-.239-.554h-.529-.271l-.085.634s-.077.588.47 1.174c.878.942 2.237.606 3.303.245 2.252-.765 4.278-2.09 6.541-2.819 1.32-.424 2.696-.69 4.055-.96.42-.084 1.059-.126 1.095-.684.01-.155-.117-.346-.18-.473l-.441-.944c-.511-.892-1.227-1.883-2.289-2.134-.499-.118-1.064-.087-1.57-.065zm-29.727 8.583c-.124.089-.155.25-.066.375 1.176 1.832 3.024 3.376 4.66 4.788l3.695 3.11 4.235 3.226 1.684 1.303c1.359 1.24 2.61 2.648 3.565 4.216.965 1.59 1.632 3.367 2.78 4.842.382.49.881.855 1.34 1.267l2.257 2.006c1.619 1.382 3.282 2.674 5.085 3.81l2.273 1.319c.805.386 1.655.698 2.502.98 1.21.401 2.441.714 3.695.943l2.6.36c1.158.114 2.334.234 3.499.146 1.083-.084 2.158-.334 3.189-.667l1.243-.459c.906-.427 1.633-1.188 2.321-1.887.664-.677 1.054-1.251 1.391-2.137s.577-1.751.67-2.705c.131-1.329.012-2.637-.294-3.94a24.62 24.62 0 0 0-.785-2.653c-.086-.24-.154-.495-.278-.719-.133-.235-.326-.417-.491-.636-.043-.104-.156-.156-.261-.115-.107.047-.158.157-.115.261.032.266.036.542.098.803.057.234.178.453.262.682l.425 1.319c.612 2.106.964 4.503.327 6.645-.192.647-.543 1.163-.916 1.71-.271.401-.548.808-.932 1.11-.604.474-1.308.724-1.995 1.042-.235.105-.445.251-.686.339-1.048.401-2.177.516-3.287.605-1.952.156-3.838.041-5.772-.292l-2.698-.62c-1.365-.396-2.66-.97-3.941-1.58-2.675-1.277-4.991-3.132-7.211-5.066-.981-.854-2.146-1.714-2.894-2.804-.291-.422-.521-.907-.752-1.365l-1.112-2.168c-.945-1.705-2.082-3.273-3.483-4.639-.288-.281-.618-.521-.932-.766l-3.205-2.398-2.78-2.116-.703-.469c-2.441-1.75-4.845-3.658-6.917-5.833-.33-.347-.597-.754-.899-1.124-.09-.124-.268-.138-.392-.049z"/><path d="M88.207 509.474c-.118.009-.244.05-.328.147a.46.46 0 0 0 .049.651c.511.343.949.758 1.439 1.126l2.273 1.641c2.555 1.731 5.052 3.571 7.309 5.671l1.93 1.908c2.623 3.09 4.395 6.812 7.096 9.85 1.469 1.652 3.189 3.007 4.988 4.284 1.034.735 2.065 1.475 3.171 2.101 1.054.594 2.155 1.1 3.271 1.563.801.334 1.569.683 2.404.928 3.08.907 6.262 1.564 9.483 1.501.64-.015 1.281-.021 1.914-.13 2.325-.407 4.541-1.798 5.886-3.732.52-.745.901-1.574 1.21-2.429.259-.708.467-1.407.54-2.163.042-.172-.059-.333-.229-.375s-.35.057-.392.229c-.326.777-.536 1.59-.884 2.361-.601 1.335-1.514 2.685-2.681 3.597-1.052.823-2.354 1.209-3.647 1.454-.58.104-1.159.224-1.749.26-1.055.063-2.141-.057-3.189-.166-1.495-.151-2.985-.396-4.431-.813-.78-.224-1.525-.542-2.289-.813-.53-.188-1.069-.371-1.586-.589-1.357-.574-2.655-1.272-3.941-1.986-1.937-1.074-3.83-2.398-5.363-4.008-.138-.141-.229-.302-.36-.454-.402-.458-.892-.86-1.275-1.334-.277-.344-.507-.724-.769-1.079-1.504-2.032-2.909-4.143-4.398-6.186-1.197-1.642-2.433-3.216-3.941-4.592-2.329-2.127-4.922-3.893-7.505-5.686l-2.305-1.548c-.496-.351-.962-.638-1.374-1.091-.096-.083-.209-.106-.326-.098zm36.481-4.788c-.952-.051-1.915.038-2.812.212-1.709.331-3.407.957-5.037 1.564l-2.583 1.009-.916.472-.556.278-.163.26-.148.244s-.163.289-.065.424.425.065.425.065h.136l.126-.049s.191-.012.278-.049.155-.108.229-.162c.539-.402 1.139-.642 1.717-.978 2.546-1.481 5.443-2.007 8.323-2.443 1.49-.225 4.183-.419 4.84 1.368.002.006-.063-.003-.147.049-.124.075-.285.163-.426.196-.239.056-.478.011-.719.065-.4.088-.795.258-1.194.358l-4.464 1.075c-2.041.515-4.167 1.016-6.033 2.02-.532.286-1.155.609-1.57 1.057l-.229.261c-.051.057-.115.12-.163.161.033.094.048.198.097.282s.182-.084.278-.115c.103-.036.222-.057.328-.083.342-.089.631-.245.964-.36l1.488-.453 5.167-1.483 3.385-.879 1.423-.44c.295-.092.62-.16.899-.294.252-.12.428-.349.654-.505.339-.233.903-.463.818-.977-.04-.242-.268-.494-.426-.668a3.6 3.6 0 0 0-1.177-.863c-.848-.388-1.795-.568-2.747-.619zm5.626 7.394c-3.347-.375-6.709 1.24-9.353 3.143-.955.688-.24.26-2.584 3.471-.044.01-.027.047-.049.062-.082.115-.041.079-.131.199.003.015.026.015.033.031.016.005.017.01.033.015.054.089.121.183.228.162.024 0 .013-.036.033-.047 2.373.985 1.514 1.314 2.567.98.573-.188 1.131-.5 1.668-.751l3.287-1.563c1.611-.683 3.27-.886 4.971-1.209.636-.12 1.244-.277 1.864-.454l1.03-.245c.372-.12.699-.349.605-.797-.288-1.376-1.576-2.413-2.878-2.783-.426-.125-.885-.167-1.324-.214zm-.932.605c1.106.01 2.34.328 3.205 1.058.309.26.615.625.817.974a1.31 1.31 0 0 1 .114.292c-.135.021-.122.021-.31.037l-2.06.099c-1.888.245-3.732 1.016-5.478 1.74-1.655.683-.008.016-6.982 1.955.076-.464.036-.375.114-.537.186-.386.602-.641.9-.928l.735-.766c.607-.594 1.394-1.053 2.11-1.501.829-.516 1.699-.954 2.583-1.365l.948-.443c1.038-.443 2.18-.631 3.304-.615z"/><path d="M122.547 518.725a.26.26 0 0 0-.098.36c.188.63.497 1.313.474 1.986-.035 1.011-.392 2.09-.834 2.981l-.638 1.157c-.094.214-.101.458-.213.667-.223.417-.586.73-.849 1.121-.402.599-.76 1.209-1.064 1.86-.456.98-.801 1.929-.964 2.997-.089.579.027 1.152-.164 1.71a.47.47 0 0 0 .507.422c.255-.021.446-.235.425-.49-.057-.099-.146-.198-.179-.308-.08-.265.038-.646.081-.912.168-1.032.667-2.053 1.194-2.95l1.063-1.772c.23-.417.356-.896.621-1.287.135-.198.348-.328.49-.521.39-.532.68-1.241.932-1.84.212-.506.413-1.037.507-1.579.2-1.147-.132-2.653-.932-3.503a.26.26 0 0 0-.359-.099zm-5.588-7.639c-.149.125-.033.49-.033.49l.476.882.636.828.155.149.505.504.505.505.454.306s.001.011.523.667c.13.151.357.162.507.037.149-.131.032-.506.032-.506s-.226-.668-.506-1.009c-.303-.371-.681-.364-.982-.737l-.131-.177s-.427-.299-.637-.552-.225-.471-.425-.735-.015.01-.589-.605c-.123-.145-.342-.168-.49-.047zm15.839 5.685c-.133.062-.18.224-.114.359.016.251-.013.516.048.767.068.265.16.542.327.761s.423.349.638.521l.605.474c.643.417 1.382.662 2.061 1.011.106.052.2.13.31.177.421.183.837.313 1.21.605.164.125.302.287.458.422.13.115.348.282.376.474.008.053-.071.329-.082.376.086.239.349.359.589.276a.46.46 0 0 0 .278-.589c-.11-.094-.236-.182-.327-.292-.152-.188-.211-.448-.343-.651-.201-.308-.496-.558-.769-.798l-.883-.719c-.105-.068-.231-.099-.343-.162l-1.292-.75-.589-.339c-.175-.125-.327-.287-.49-.422-.146-.125-.318-.229-.442-.375-.124-.152-.168-.344-.294-.49-.166-.193-.382-.339-.572-.506-.066-.13-.227-.198-.36-.13z"/><path d="M132.831 515.094c-.025.026-.025.057 0 .083.079.235.132.495.245.714.102.198.264.36.393.537.393.558.804 1.042 1.259 1.548 1.047 1.167 2.22 2.22 3.433 3.211.183.177.475.182.654 0a.46.46 0 0 0 0-.652l-.899-.995-2.223-2.476c-.49-.48-.966-.928-1.521-1.334-.183-.136-.338-.287-.54-.391-.221-.115-.468-.167-.703-.245-.024-.026-.074-.026-.098 0zm-5.362-7.183c-.133-.029-.286.002-.409.081-.247.159-.307.471-.147.717.876 1.593 2.169 2.704 3.646 3.731.208.146.507.11.654-.099s-.114-.651-.114-.651l-.36-.245-.327-.261-.589-.553-1.275-1.482-.229-.326-.245-.342-.278-.342s-.194-.199-.327-.228zm-15.701-4.555c-.133-.028-.286.002-.409.082-.247.159-.307.471-.148.716.877 1.593 2.17 2.705 3.647 3.731.208.146.506.11.654-.099s-.115-.651-.115-.651l-.359-.245-.327-.261-.589-.553-1.275-1.482-.229-.326-.246-.342-.277-.341s-.195-.2-.327-.229zm9.091-3.025c-.133-.029-.285.002-.408.081-.247.159-.307.471-.148.717.877 1.593 2.17 2.704 3.647 3.731.208.146.506.109.654-.099s-.115-.651-.115-.651l-.359-.245-.327-.261-.589-.553-1.276-1.482-.228-.326-.246-.342-.278-.342s-.194-.199-.327-.228zm-86.971 11.196c-.981-.01-1.967.026-2.927.245a2.42 2.42 0 0 0-.621.224c-1.05.563-1.419 2.017-1.602 3.096-.1.589-.08 1.183-.164 1.777-.094.662-.237 1.319-.392 1.97-.065.396.208.767.605.829.397.068.769-.208.834-.599l.18-2.429.262-1.663c.087-.63.227-1.449.752-1.886.349-.292.938-.225 1.357-.245.759-.037 1.5-.006 2.256.047 2.88.213 5.701.781 8.372 1.876a10.68 10.68 0 0 1 1.39.667c.31.177.596.302.818.584.395.51.534 1.235.572 1.855.063 1.043-.007 2.054-.278 3.065l-.344 1.157c-.042.125-.117.229-.131.359-.031.287.064.589.098.876-.019.047-.01.099.032.115s.096-.006.114-.047c.243-.183.534-.334.703-.589.158-.235.182-.542.262-.813a13.79 13.79 0 0 0 .294-1.272c.343-1.756.709-4.555-.85-5.879-.358-.302-.79-.485-1.21-.683-.902-.422-1.784-.797-2.731-1.105-2.465-.808-5.037-1.511-7.652-1.532z"/><path d="M52.023 514.488c-.109.026-.186.12-.163.23-.107.458-.042.583 0 1.026.06.636.002 1.449-.229 2.054-.059.156-.18.292-.278.422-.918 1.215-2.593 1.314-3.974 1.631a10.32 10.32 0 0 0-1.471.454c-.303.115-.456.448-.343.75s.448.454.752.344l1.357-.411c1.527-.396 3.384-.688 4.382-2.069.184-.251.262-.522.376-.814.128-.323.228-.609.262-.959.037-.39.021-.771-.032-1.157-.042-.302-.032-.729-.163-1.011-.058-.12-.166-.229-.245-.339a.19.19 0 0 0-.229-.151z"/><path d="M52.005 515.008c-.066.031-.095.114-.065.182.156.49.361.949.539 1.434.339.917.605 1.891.818 2.85.447 2.012.757 4.066.899 6.125l.082 1.579-.098 2.298-.065 2.83c-.042.433-.151.86-.196 1.288-.022.203-.004.417-.033.62-.027.193-.084.38-.131.568s.072.38.262.427.382-.073.425-.26c.087-.407.236-.803.327-1.209.099-.438.116-.902.164-1.35l.196-2.168c.03-1.053-.092-2.054-.213-3.091l-.147-1.585c-.207-1.819-.48-3.658-.932-5.436l-.916-3.195c-.214-.625-.402-1.245-.736-1.824-.029-.068-.114-.109-.18-.083z"/><path d="M54.13 534.799c-.113-.032-.245.036-.278.151-.672 1.657-1.428 3.252-2.387 4.769-.668 1.058-1.422 2.095-2.191 3.08l-1.03 1.287-1.259 1.825c-.224.349-.124.818.229 1.042a.76.76 0 0 0 1.046-.229l1.128-1.856 1.128-1.876c1.583-2.471 3.224-4.998 3.761-7.933.032-.109-.034-.224-.148-.26z"/><path d="M47.672 546.121c-.109-.026-.218.041-.245.146-.097.104-.24.208-.311.328-.053.089-.133.386-.163.469l-.245.605c-.323.849-.52 1.751-.785 2.621l-1.341 4.008-1.308 3.664c-.612 1.423-1.345 2.784-2.125 4.123-2.063 3.534-4.521 6.901-7.702 9.527-2.513 2.075-5.361 3.602-8.356 4.868-.089.037-.133.126-.098.214s.14.13.229.099c6.626-2.345 12.109-6.942 15.828-12.853 1.596-2.538 2.736-5.331 3.941-8.062.9-2.038 1.625-4.139 2.273-6.27.13-.428.284-.85.392-1.288.084-.339.099-.682.163-1.026.018-.094.117-.36.115-.47-.003-.14-.081-.317-.115-.458a.2.2 0 0 0-.147-.245zm6.23-14.595c-.087-.016-.181.047-.196.13l-.458 1.486c-1.095 2.71-2.945 4.946-4.742 7.213l-2.027 2.621a.55.55 0 0 0 .131.767c.246.177.59.114.768-.131l4.955-7.135c.855-1.475 1.564-3.054 1.684-4.769.016-.088-.028-.167-.115-.182zm-7.833 12.492c-.093-.005-.176.073-.18.161l-.245.897c-.067.214.097-.313.196-.636l-.033.151-.131.521-.114.323c.097-.416.008 0-.18.553-.04.261.131.5.392.537s.516-.131.556-.391l-.049-.975c-.005-.13-.038.282.033.391.06.089-.001-.219 0-.328a4.22 4.22 0 0 0-.033-.615c-.008-.063-.025-.12-.032-.183-.005-.036-.002-.151 0-.114.025.604-.002.015-.016-.115.003-.089-.071-.172-.164-.177z"/><path d="M45.824 546.511a.35.35 0 0 0-.425.245l-.687 2.705c-.582 1.959-1.38 3.877-2.24 5.733a49.09 49.09 0 0 1-4.366 7.589c-2.275 3.241-5.124 6.259-8.503 8.391-2.198 1.381-4.801 2.512-7.424 2.7-1.085.078-2.171-.026-3.238-.23-1.055-.193-2.061-.495-2.992-1.042-1.26-.735-2.385-1.751-3.303-2.882-.974-1.194-1.74-2.58-2.322-4.003-1.01-2.476-1.524-5.29-1.929-7.917-.042-.339-.348-.563-.687-.521s-.582.344-.54.683c.056.568.101 1.141.18 1.709.315 2.257.97 4.43 1.88 6.515 1.093 2.507 2.638 4.894 4.873 6.531 1.096.807 2.36 1.355 3.646 1.777 1.127.37 2.296.516 3.483.474 1.596-.062 3.201-.36 4.709-.881 2.07-.719 4.035-1.793 5.805-3.08 1.846-1.339 3.46-2.96 4.955-4.675 2.785-3.185 4.986-6.869 6.59-10.778 1.146-2.794 1.994-5.708 2.779-8.616a.35.35 0 0 0-.245-.427z"/><path d="M7.676 558.643c-.078 0-.143.052-.147.13-.135.401-.268.787-.311 1.209-.113 1.105.139 2.345.262 3.45.264 2.382 1.109 4.587 2.289 6.661 1.519 2.669 3.669 5.025 6.524 6.291 1.801.792 3.657 1.011 5.609.876.666-.047 1.297-.063 1.897-.376.017 0 .036-.015.033-.031s-.033-.021-.049-.015c-.762-.099-1.506.119-2.273.099-1.51-.042-3.022-.251-4.431-.813-4.523-1.809-6.686-6.442-7.93-10.821-.244-.854-.533-1.699-.736-2.569-.213-.917-.205-1.845-.343-2.768-.059-.401-.173-.787-.262-1.177a.14.14 0 0 0-.131-.146zm12.559-16.088c-.237-.088-.503.042-.589.277-.626 1.052-1.044 2.157-1.995 2.996-.719.636-1.622 1.111-2.436 1.611l-2.616 1.694-1.275.98c-.418.354-.769.781-1.112 1.204l-.785.979a9.67 9.67 0 0 0-1.57 3.857c-.056.365-.035.725-.049 1.095-.006.047.018.088.065.094s.092-.032.098-.079c.283-1.24.572-2.501 1.21-3.617.201-.354.473-.688.719-1.011.239-.307.486-.604.785-.86.386-.333.825-.61 1.243-.896 1.272-.886 2.633-1.585 3.941-2.413.895-.563 1.677-1.22 2.436-1.955.982-.943 1.964-1.98 2.207-3.372.086-.235-.04-.5-.278-.584zm5.869-28.213a.35.35 0 0 0-.392.297c.012.209.049.422.033.631-.063.834-.496 1.662-.785 2.429l-1.717 4.237a.53.53 0 0 0 .327.683c.282.099.586-.047.687-.329l.572-1.839c.36-1.043.808-2.059 1.046-3.143.191-.865.25-1.725.523-2.575.025-.188-.105-.365-.294-.391z"/><path d="M23.653 522.566c-.176-.068-.385.005-.458.182-2.746 6.573-5.084 13.317-8.388 19.644-1.156 2.21-2.398 4.394-3.826 6.448a59.02 59.02 0 0 1-1.57 2.131c-.132.177-.285.334-.392.521-.114.204-.177.438-.262.657-.088.104-.074.25.033.339a.26.26 0 0 0 .36-.031c.198-.126.41-.209.589-.36.344-.292.586-.688.867-1.042a30.65 30.65 0 0 0 .818-1.09 49.54 49.54 0 0 0 3.27-5.264c1.341-2.475 2.462-5.071 3.548-7.667 1.941-4.643 3.677-9.376 5.592-14.025.073-.177-.003-.37-.18-.443zm10.366 24.319c-.151-.005-.272.109-.278.261-.12.208-.246.401-.311.635-.34 1.22.705 2.471 1.308 3.419l.311.522c1.696 2.59 4.774 5.566 3.548 8.975a.36.36 0 0 0 .295.406c.188.037.359-.088.392-.276.016-1.303.078-2.549-.311-3.81-.402-1.303-1.069-2.601-1.832-3.732l-1.651-2.522c-.431-.819-.499-1.668-.719-2.544-.094-.37-.314-.703-.491-1.042.006-.146-.111-.287-.262-.292z"/><path d="M19.615 542.034c-.592.105-1.125.287-1.733.308-.179.068-.278.276-.213.459.066.177.262.26.441.192.625-.495 1.154-.458 1.913-.484 1.161-.047 2.274.125 3.401.385a25.46 25.46 0 0 1 4.546 1.548l1.619.782 6.344 3.018a.47.47 0 0 0 .621-.229c.105-.24-.008-.516-.245-.621l-6.393-2.898-3.401-1.271c-1.619-.563-3.277-1.022-4.987-1.189-.616-.062-1.3-.109-1.913 0zm18.034-.782c-.231-.083-.475.047-.556.276s.031.474.262.553c.5.161 1.022.323 1.471.604 1.758 1.1.264 3.107-.687 4.17l-.605.651c-.12.12-.136.318-.016.438s.321.12.441 0l.654-.651c1.08-1.105 2.719-3.013 1.439-4.561-.306-.37-.736-.651-1.144-.896s-.818-.417-1.259-.584z"/><path d="M23.097 536.885c-.617-.026-1.237-.01-1.848.052-1.571.162-3.554.792-4.235 2.377-.158.365-.242.792-.294 1.188-.067.506-.03.897.196 1.35.022.261.247.448.507.427a.48.48 0 0 0 .442-.505c.165-.485.152-.954.262-1.449.138-.62.541-1.266 1.063-1.631.387-.271.886-.433 1.341-.537 1.253-.292 2.57-.24 3.843-.13 2.674.234 5.314.922 7.849 1.777 1.585.531 3.157 1.12 4.611 1.954.168.089.368.021.458-.146a.33.33 0 0 0-.131-.458c-2.746-1.355-5.686-2.356-8.617-3.226-1.745-.516-3.594-.954-5.445-1.043zm.997-4.463c-.743.099-1.489.26-2.24.276a.36.36 0 0 0-.229.443c.056.183.259.282.441.224.843-.547 1.811-.5 2.78-.422a16.46 16.46 0 0 1 2.305.36c2.789.635 5.421 1.918 7.93 3.257l4.66 2.59a.56.56 0 0 0 .769-.213c.154-.276.065-.626-.212-.782l-4.742-2.523c-2.132-1.052-4.289-1.938-6.573-2.606-.818-.239-1.656-.443-2.502-.557-.784-.105-1.6-.151-2.387-.047z"/><path d="M26.318 528.658c-1.451.011-3.117.199-4.235 1.225-.186.167-.371.344-.491.568-.149.282-.241.683-.311.996-.062.271-.061.531-.049.813a.53.53 0 0 0 .54.505c.288-.011.518-.25.507-.536s-.069-.709.049-.98c.044-.099.137-.167.196-.261.086-.135.156-.302.262-.422 1.039-1.204 3.458-1.173 4.856-1.074 1.212.084 2.433.303 3.614.584a26.98 26.98 0 0 1 2.992.897l2.175.88a21.57 21.57 0 0 1 1.978.975c.401.224.782.49 1.161.751 1.371.938 3.366 2.23 3.09 4.153-.053.371-.23.798-.442 1.105-.153.225-.354.412-.507.636-.048.042-.056.115-.016.167s.116.052.164.016c.37-.167.622-.412.916-.688.252-.23.413-.527.539-.845.607-1.522-.657-3.106-1.668-4.107-.226-.219-.485-.422-.736-.615-1.246-.964-2.705-1.688-4.137-2.329-1.709-.772-3.508-1.329-5.331-1.762-1.672-.396-3.395-.662-5.118-.652zm4.365-8.584c-1.414.057-2.902.375-4.088 1.188-.861.594-1.298 1.58-1.7 2.497-.088.318.102.662.425.745.323.089.648-.099.736-.422.224-2.205 2.812-2.976 4.677-3.096 1.959-.125 3.951.235 5.837.735 2.368.625 4.69 1.543 6.786 2.82l.948.615.801.635a6.64 6.64 0 0 1 .998 1.079c.441.594.759 1.152.131 1.757-.117.151-.085.354.065.474s.374.099.49-.052c1.22-2.012-1.08-3.794-2.551-4.785l-1.03-.656-1.145-.615a27.85 27.85 0 0 0-3.221-1.402c-2.588-.939-5.387-1.627-8.159-1.517zm-4.267 5.083c-.489.031-.901.089-1.39.037-.186.036-.303.234-.262.422.041.182.223.302.409.26.131-.078.249-.187.393-.245.276-.104.588-.109.883-.13.807-.062 1.576.052 2.371.177 1.336.214 2.712.548 3.973 1.027l3.516 1.47a.5.5 0 0 0 .638-.282c.098-.245-.027-.536-.278-.635l-3.679-1.152c-1.362-.355-2.687-.73-4.088-.897-.811-.099-1.67-.094-2.485-.052z"/><path d="M37.11 527.517a.35.35 0 0 0-.442.214.36.36 0 0 0 .229.443c1.065.375 2.047 1.048 3.025 1.595.842.469 1.704.849 2.6 1.204.508.198.979.432 1.521.537 1.517.292 2.84-.183 3.025-1.84.07-.313-.127-.631-.441-.699a.59.59 0 0 0-.703.438c-.378 1.022-1.106.949-2.093.798-.309-.047-.666-.084-.965-.178-.69-.218-1.35-.557-2.011-.849l-1.946-.897c-.586-.276-1.175-.578-1.799-.766zm1.797 10.707c-.178-.073-.458.192-.458.192l-.567.741-.12.088-.442.834s-.011.005-.278.99c-.132.204-.073.475.131.605a.44.44 0 0 0 .605-.13l.671-1.434.443-.953.211-.48s-.018-.386-.196-.453z"/><path d="M42.343 530.595c-.178-.073-.458.193-.458.193l-.567.741-.12.087-.441.834s-.011.005-.278.99c-.132.204-.073.475.131.605a.44.44 0 0 0 .605-.13l.671-1.434.443-.953.211-.48s-.018-.386-.196-.453zm-15.153-5.043c-.178-.073-.458.193-.458.193l-.567.741-.12.087-.442.834s-.011.005-.278.99c-.132.204-.073.475.131.605a.44.44 0 0 0 .605-.13l.671-1.434.443-.953.211-.48s-.018-.386-.196-.453zm-3.131 7.062c-.169-.083-.434.22-.434.22l-.538.847-.114.1-.419.952s-.011.006-.264 1.131c-.125.232-.069.542.124.691s.449.083.574-.149l.636-1.637.42-1.089.2-.548s-.017-.441-.186-.518z"/></g><defs><radialGradient id="A" cx="0" cy="0" r="1" gradientTransform="translate(51.7156 391.334) scale(14.0563 14.0012)" xlink:href="#G"><stop stop-color="#dea88e"/><stop offset="1" stop-color="#f5e8d6"/></radialGradient><radialGradient id="B" cx="0" cy="0" r="1" gradientTransform="translate(131.852 392.914) scale(13.371 13.3185)" xlink:href="#G"><stop stop-color="#dea88e"/><stop offset="1" stop-color="#e3caba"/></radialGradient><radialGradient id="C" cx="0" cy="0" r="1" gradientTransform="translate(186.745 285.652) scale(9.51813 9.48081)" xlink:href="#G"><stop stop-color="#dea88e"/><stop offset="1" stop-color="#f5e8d6"/></radialGradient><radialGradient id="D" cx="0" cy="0" r="1" gradientTransform="translate(86.7548 67.4359) scale(8.83927 8.80461)" xlink:href="#G"><stop stop-color="#dea88e"/><stop offset="1" stop-color="#f5e8d6"/></radialGradient><radialGradient id="E" cx="0" cy="0" r="1" gradientTransform="translate(111.193 74.9497) scale(9.98241 9.94327)" xlink:href="#G"><stop stop-color="#dea88e"/><stop offset="1" stop-color="#f5e8d6"/></radialGradient><radialGradient id="F" cx="0" cy="0" r="1" gradientTransform="translate(105.214 219.56) scale(27.194 27.0873)" xlink:href="#G"><stop stop-color="#dea88e"/><stop offset="1" stop-color="#f5e8d6"/></radialGradient><linearGradient id="G" gradientUnits="userSpaceOnUse"/></defs></svg>