<?xml version="1.0" encoding="UTF-8"?>
<svg id="Ebene_1" data-name="Ebene 1" xmlns="http://www.w3.org/2000/svg" xmlns:xlink="http://www.w3.org/1999/xlink" viewBox="0 0 204 253">
  <defs>
    <style>
      .cls-1, .cls-2 {
        fill: none;
      }

      .cls-3 {
        clip-path: url(#clippath);
      }

      .cls-4 {
        fill: #f5e8d6;
      }

      .cls-5 {
        fill: #e3caba;
      }

      .cls-6 {
        fill: #fff7f7;
      }

      .cls-7 {
        fill: #a05b52;
      }

      .cls-8 {
        fill: #b69c65;
      }

      .cls-9 {
        fill: #c46b57;
      }

      .cls-10 {
        fill: #e0bd6f;
      }

      .cls-11 {
        fill: #070d1c;
      }

      .cls-2 {
        stroke: #fff;
        stroke-width: 12px;
      }

      .cls-12 {
        fill: url(#Unbenannter_Verlauf_4);
        opacity: .7;
      }

      .cls-12, .cls-13, .cls-14, .cls-15 {
        isolation: isolate;
      }

      .cls-13 {
        fill: url(#Unbenannter_Verlauf_3);
        opacity: .47;
      }

      .cls-14 {
        fill: url(#Unbenannter_Verlauf_2);
        opacity: .46;
      }

      .cls-15 {
        fill: url(#Unbenannter_Verlauf);
        opacity: .7;
      }
    </style>
    <clipPath id="clippath">
      <rect class="cls-1" width="204" height="253"/>
    </clipPath>
    <radialGradient id="Unbenannter_Verlauf" data-name="Unbenannter Verlauf" cx="-170.11" cy="510.09" fx="-170.11" fy="510.09" r="1" gradientTransform="translate(1509.68 4201.76) scale(7.84 -7.78)" gradientUnits="userSpaceOnUse">
      <stop offset="0" stop-color="#dea88e"/>
      <stop offset="1" stop-color="#f5e8d6"/>
    </radialGradient>
    <radialGradient id="Unbenannter_Verlauf_2" data-name="Unbenannter Verlauf 2" cx="-168.2" cy="507.19" fx="-168.2" fy="507.19" r="1" gradientTransform="translate(1318.39 3718.8) scale(7.28 -7.22)" gradientUnits="userSpaceOnUse">
      <stop offset="0" stop-color="#dea88e"/>
      <stop offset="1" stop-color="#f5e8d6"/>
    </radialGradient>
    <radialGradient id="Unbenannter_Verlauf_3" data-name="Unbenannter Verlauf 3" cx="-171.28" cy="511.85" fx="-171.28" fy="511.85" r="1" gradientTransform="translate(1522.01 4236.77) scale(8.22 -8.16)" gradientUnits="userSpaceOnUse">
      <stop offset="0" stop-color="#dea88e"/>
      <stop offset="1" stop-color="#f5e8d6"/>
    </radialGradient>
    <radialGradient id="Unbenannter_Verlauf_4" data-name="Unbenannter Verlauf 4" cx="-186.29" cy="534.66" fx="-186.29" fy="534.66" r="1" gradientTransform="translate(4280.06 12061.28) scale(22.39 -22.22)" gradientUnits="userSpaceOnUse">
      <stop offset="0" stop-color="#dea88e"/>
      <stop offset="1" stop-color="#f5e8d6"/>
    </radialGradient>
  </defs>
  <g class="cls-3">
    <g>
      <path class="cls-2" d="m135.23,48.61l1.62,4.83c54.71-13.13,72.08,75.7,49.22,111.53-24.03,41.62-80.88,54.79-127.41,27.93C-17.14,151.02-4.1,39.65,82.9,29.75c20.72-3.01,44.74-1.1,52.33,18.86h0Z"/>
      <path class="cls-4" d="m134.25,152.74c3.46,9.36,7.16,16.65,11.29,25.24,4.39,8.07,5.19,7.35,10.03,16.39s9.07,20.11,9.07,20.11c-2.17,6.58-2.53,10,.14,17.25,0,2.41.81,7.96.92,8.82.37,2.71,2.93.99,3.32.45,1.22-1.69,1.97-6.91,1.97-6.91l.36,8.47c-3.39,8.39-2.62,7.74-2.62,7.74,1.17,3.68,5.67-2.29,5.88-2.67,0,0,.93,1.73,1.27,1.29,1.35-1.75,4.24-9.4,4.24-9.4,8.59-9.35,1.03-25.57-.93-30.52l-2.24-1.19c-11.74-19.19-7.43-48.69-25.65-65.45-.62-.86-17.05,10.37-17.05,10.37h0Z"/>
      <path class="cls-5" d="m169.93,224.91c3.45,4.52,3.95,14.26.64,19.01.48-4.61-.09-14.37-.64-19.01Z"/>
      <path class="cls-4" d="m123.54,82.15c4.82,16.93-7.97,37.44-29.55,25.64-14.71-9.94-13.53-15.93-16.81-27.67,5.59-.15,9.83-9.48,10.27-12.82l-1.69-5.29c4.88-7.5-3.99-8.13,6.39-21.67,6.97.36,12.75-2.04,17.28-6.83.66,11.12,13.26,10.98,17.51,16.62,0,0-1.36,8.1-4.75,10.11-2.45,1.45,2.33.03,2.33.03-.09,1.42-8.97,14.87-12.06,15-1.39,3.65,9.08,5.69,11.08,6.9h0Z"/>
      <path class="cls-5" d="m141.99,150.73l-7.74,2.4c3.5,8.37,8.57,20.64,13.64,28.23-.84-.3-7.74-28.37-5.9-30.63Zm-49.21-76.12s7.68,13.87,15.59,15.85c10.21,2.56,15.42-2.28,14.75-3.14s-.36-6.07-.36-6.07l-8.81-3.14-1.07-2.93c-4.18,2.41-15.5,4.31-20.1-.57h0Z"/>
      <path class="cls-15" d="m171.53,241.15l-2.63,10.23,2.01.67,2.73-3.53,1.91.46c.39.33,9.63-20.56,9.02-21.29,0,0-2.84-10.9-2.84-10.9l-6.7-.15-5.15,7.06c2.85,7.1,3.52,9.93,1.65,17.45h0Z"/>
      <path class="cls-14" d="m100.28,51.23c3.14,2.05,1.72,2.97,1.41,5.57-.03,5.95-11.27,7.56-14.55,3.48-2.22-2.45-.41-4.83.08-7.75s-.62-3.79,1.9-3.94c2.54-.21,7.82,1.96,11.16,2.64Z"/>
      <path class="cls-13" d="m109.62,55.26c2.96-1.5,5.25,1.38,8.54,1.6s3.93-2.81,4.6-.73c3.35,20.45-27.24,10.24-13.14-.87h0Z"/>
      <path class="cls-9" d="m138,203.5c2.73.28,8.01-.41,10.66-1.15-.19.76-17.78-44.66-14.19-49.41,1.32.08,19.03-8.19,18.37-11.78,0,0-2.41-7.22-2.41-7.22,0,0-3.99-14.59-6-24.83s-3.27-17.98-4.07-22.67c-.43-2.5-4.72-1.85-9.07-2.91-4.76-1.17-6.99-3.49-8.84-3.06,1.46,3.11.35,19.03-2.48,22.27-2.89,6.99-23.46,6.82-28.36,1.06-8.28-6.3-12.02-20.91-14.42-25.38-.93-1.72-6.45-1.4-12.41.46-14.5,4.53-19.35,3.15-19.11,19.15,0,0,4.75,45.35,4.75,45.35,7.1,1.74,12.99-9.35,28.24,3.05l-7.85,28.71-9.3,20.25c4.89,3.19,11.82,4.68,17.15,6.97,2.96-.3,9.88.63,12.85,1.15,0,0,8,1.5,8,1.5h8.5l10,1.5,7-1.5h6.5l6.5-1.5h0Z"/>
      <g>
        <path class="cls-7" d="m71,177.61s9.72,8.08,18.74,17.87,12.26,14.02,12.26,14.02c9.86-.33,22.1,1.13,31.56-1.99l-14.09-1.92-12.58-14.83-33.6-21.76-2.3,8.61Zm67.19-47.21c-14.69,18.66-49.12,6.51-60.89.16,4.44,8.6-1.62,20.93,5.9,19.22,0,0,.16-4.45,2.12-4.45,20.42-.69,32.63-1.2,48.36,1.31-.23-10.05,5.13-6.01,4.51-16.25Z"/>
        <path class="cls-7" d="m78.54,116.83c.56,5.5-1.3,10.33-.77,13.08.88,4.57,1.66,13.05,1.14,16.37-.26,1.62-6.44-4-6.44-4,.36.35,4.06-32.87,3.05-34.37,0,0,2.46,3.42,3.03,8.93h0Zm55.69,23.28l-.18,12.91c2.35-.85,7.24-2.61,9.61-3.46-2.31-1.55-6.85-9.76-5.86-13.14l-3.58,3.68h0Z"/>
      </g>
      <path class="cls-4" d="m78.48,147.45c6.35,6.83,15.57,18.95,15.57,18.95,2.1-1.08,6.88,1.63,7.73,3.06,7.76-1.3,11.5,9.15,17.71,11.99,2.66.55,5.98-6.82,8.64-6.36,2.6.45,1.42,3.26,1.42,3.26,0,0,3.12.85,2.96,1.9-.36,2.32-3.28,7.48-3.28,7.48l-4.85,3.12c-3.45.72-15.6.32-20.99-1.46,0,0-14.1-10.75-14.1-10.75-23.86-14.8-26.56-12.01-32.55-19.23-1.99-2.4-4.09-6.19-4.09-6.19,0,0-.45-9.37-.45-9.37,7-4.82,22.17-4.3,26.27,3.6h0Z"/>
      <path class="cls-12" d="m87.23,177.92l3.31-5.17c6.53,4.21,16.21,9.05,20.86,6.61l.46-2.2c-2.5-1.98-7.54-5.97-10.03-7.95,4.56-.41,15.03,8.91,16.88,11.69l9.14-5.93,4.15,4.87c-1.74,6.22-1.9,6.16-6.35,10.71l-18.93-.1s-19.49-12.53-19.49-12.53Z"/>
      <path class="cls-10" d="m87.29,59.09c-1.78,4.88-7.89,9.79-7.89,9.79,5.9-7.9-2.8-16.6-1.82-24.83l-1.92,1.62c-1.26-3.32,5.79-10.11,7.32-10.76l-3.01-2.05c.07.26,5.52-1.42,5.46-2.11l-3.11-1.74,6.86-3.87c1.2-6.61,10.17-17.68,17.85-16.66-1.27-6.76,6.74-8.68,14.7-4.95,8.69,2.4,16.35,8.57,10.63,14.53,5.13,3.07,6.63,14.37,5.64,18.52,0,0-.94,7.77-.16,10.08.35,1.04-2.78-.77-2.78-.77-.19,4.46,1.74,15.96-3.37,17.45,0,0,1.57,2.76-.22,4.36-3.5,3.14-8.53,10.86-8.53,10.86-3.02,3.32-.76,12.82,4.94,13.32-7.69,3-10.6-5.09-10.12-13.28.45-10.39,3.37-11.51,6.71-18.25-9.82,2.42,7.84-1.78-2.4-13.93-4.19-.84-12.56-6.49-12.83-12.16-2.58,3.31-12.39,7.53-16.91,6.14,0,0-3.82,4.8-5,8.87-1.3,4.5,1.76,4.96-.03,9.84h0Z"/>
      <path class="cls-8" d="m91.46,41.5c-.15.33-4.84-1.89-4-2.06,1.08,0,2.36-1.26,2.36-1.26-1.28-.1-8.97-.7-9.37-1.08l2.55-1.87c2.93.66,9.14,1.66,12.12,1.57l-2.77,2.55-2.24.21,2.16.91-.8,1.05h0Z"/>
      <path class="cls-6" d="m110.83,52.49c1.23,2.04,6.06,3.61,8.26,2.4l2.57-3.71c-2.19-.45-6.61-.58-8.84-.36l-1.99,1.66h0Zm-10.96-2.79c-1.42.97-6.82-.13-7.3-2.61,0,0,.02-3.48.02-3.48,1.91.74,5.36,2.74,6.85,4.14l.43,1.95h0Z"/>
      <g>
        <path class="cls-11" d="m134.28,140.34c-4.82,15.8,8.02,53.42,13.03,63.23l1.39.8.81-1.38c-8.37-17.07-16.47-42.54-15.22-62.66Zm-62.01,29.02c-.35-.09-.7.12-.79.47-3.16,10.36-6.83,17.12-8.47,22.17-1.66,1.96-2.89,5.23-4,7.5l.12.37.38-.12c.42-.76,1.35-2.29,1.87-2.97,0,0,1.63-1.29,1.63-1.29.25-.5.75-1.5,1-2,.36-.55.83-1.86,1-2.5,0,0,2.82-4.96,6.15-15.1.23-1.97,2.33-4.95,1.12-6.53h0Z"/>
        <path class="cls-11" d="m51.85,143.94c-.89,2.69-1.5,6.1-.57,8.91,1.87,3.79,3.95,7.73,7.94,9.63,8.64,5.34,17.68,10.04,26.29,15.42,14.82,8.93,18.49,15.8,37.37,14.24,5.39-.35,9.9-7.78,10.35-12.76-.25-.32-.69-.49-1.09-.6-2.86-.92-.4-3.43-3.46-4.65-1.18-.88-2.22.72-3.08,1.34-10.25,11.52-8.23-2.46-19.42-6.25-.6-.45-5.59-1.08-4.13.25,15.08,2.33,12.23,21.36,25.83,6.04,2.69.84-.45,2.97,3.66,4.69-.9,4.5-3.49,7.99-7.43,10.32-6.72-.39-14.28,1.2-20.25-2.59-8.36-5.72-16.75-11.35-25.71-16.11-4.09-2.37-13.63-7.84-17.65-10.14-4.26-1.99-7.03-6.19-8.37-10.56-.39-2.34.7-5.05-.28-7.17h0Z"/>
        <path class="cls-11" d="m77.92,145.62c-.5-.07-.88.54-.54.95,4.98,6.59,10.14,13.3,15.84,19.31,1.44,2.18,4.39.93,6.26,2.55,2.91,2.43,5.59,5.14,9.06,6.83,1.57.74,3.65,2.02,2.66,4.05-7.59,1.99-15.33-4.21-21.25-6.77,4.71,3.63,10.48,6.68,16.44,7.66,2.48.41,7.2.84,5.72-3.07-3.73-3.51-8.66-5.85-12.3-9.67-2.19-1.86-5.44-.59-6.92-3.51-4.51-5.07-10.44-13.35-14.97-18.31Zm29.55,35.98c-.35-.16-.62.41-.26.56,2.67,2.53,6.34,1.93,9.69,2.61,2.65.51,8.8,1.62,6.81,5.51-.19.32-.08.73.24.92,1.15.44,1.57-1.49,1.59-2.32-.17-2.77-3.31-3.74-5.51-4.54-4.16-1.7-9.04.41-12.57-2.73h0Zm13.94,1.88c-.48-.1-2.69.13-1.54.71,2.4.06,7.4-.3,8.41,2.23-.14.62-1.16,1.17-.46,1.79.88.61,1.51-.78,1.74-1.46.11-3.88-5.53-3-8.16-3.27Z"/>
        <path class="cls-11" d="m130.55,178.89c-1.5-.68-11.12,5.56-6.54,5.3,1.72-1.31,3.55-3,5.53-3.87.91-.59,1.99-.29,2.87-.38.1-.78-1.3-1.01-1.86-1.04Zm-58.66-36.66c1.25,1.22,3.95,3.29,5.79,4.68,3.72-.05-4.6-4.93-5.79-4.68h0Z"/>
        <path class="cls-11" d="m74.97,106.83c4.67,10.14,3.1,13.15,1.94,23.5.34,5.45,3.4,11.26,1.53,16.54,4.16-2.36-.37-12.22.16-16.51,1.16-7.68,1.95-17.51-3.64-23.53h0Zm-20.6-25.25c-13.02,2.15-8.84,22.52-8.06,31.89,1.41,8.94,1.83,18.2,2.84,27.18.68,7.42,4.75,2.82,8.71.92.6-1.7-4.16,1.19-4.83,1.66-4.26,4.02-3.3-12.64-3.89-14.72-.26-11.24-7.87-38.01,2.93-44.84.91-.71,3.05.04,3.16-1.39-.05-.43-.43-.74-.86-.7h0Zm18.52-4.85c-1.94-.05-17.58,3.38-16.96,5.2.78,1.57,12.78-3.72,14.79-3.9,5.4-1.44,6.45.46,8.05,5.22.81,2.34,1.95,5.07,3,7.32,1.45.91-1.03-3.83-1.05-4.41-.18-.67-.64-1.97-.96-2.59-1.12-3.37-2.41-7.76-6.88-6.84Z"/>
        <path class="cls-11" d="m55.06,81.68c-.14.03-.41.16-.54.21-.57-.09-.72.82-.13.9,2.51,1.45,6.07,1.49,8.33,3.5-.08,1.51-1.23,3.21-.17,4.62,3.57,3.46,8.37,6.39,10.86,10.82-.4-4.49-7.35-8.19-9.45-12.33,2.94-5.62-4.62-7.62-8.9-7.72h0Zm23.49,53.66c-.14.06-.22.21-.16.35.11,5.68,8.94,8.27,13.7,7.32-6.84.26-9.37-2.74-13.19-7.52-.06-.14-.21-.2-.35-.15Zm55.6,22.71c-13.1,5.93-28.3,10.03-42.2,4.27,10.26,6.18,33.11,3.93,42.2-4.27h0Zm-.35-10.26c-5.1,4.51-12.25,6.67-19.03,7.38-2.15,3.73,19.26-4.4,19.03-7.38h0Zm-54.21.07c7.74,7.68,23.34,9.36,34.08,8.24.36-.01.35-.58-.03-.56-5.66.16-11.36.06-16.91-1.2-6.13-1.03-11.39-4.75-17.15-6.48h0Zm56.24-31.58c-.22,4.92,2.58,10.25,2.13,15.37.44,1.9-2.06,4.14-.85,5.58,2.74-.05,2.33-5.71,2.18-7.76-.9-3.87-2.31-9.54-3.46-13.19h0Z"/>
        <path class="cls-11" d="m136.9,136.8c-2.5,2.38-5.7,4.28-9.1,4.25,1.3,2.34,11.95-2.34,9.1-4.25h0Zm-25.44-28.26c-1.74,1.29.03,4.57.25,6.36.22.79,1.47.45,1.23-.35-.89-1.74-1.27-4.3-1.48-6.01Zm2.15,12.76c-1.59.73,1.47,9.47,2.14,5.65-1.13-1.74-1.88-3.75-2.14-5.65Zm1.98,10.78c-.3.44.14,1.15.12,1.67.04.83-.24,2.05-.32,2.89,1.27,2.24,1.36-4.51.2-4.56h0Z"/>
        <path class="cls-11" d="m111.86,114.11c-3.81-.27-2,7.64-.84,4.14l.92-1.55c.25-.5-.61.93-.98,1.35-.39-1.24.12-3.14,1.74-2.9-.52,1.05,0,0,.17,0,1.08-.1-.46-1.29-1.01-1.04h0Z"/>
        <path class="cls-11" d="m114.06,115.77c-.15.04-.16.07-.28.15-.1-.01-.1.12-.01.13-.14.13-.1.14-.2.25l.3-.16c.95,1.85-.65,4.68-2.64,2.69.78-.98,0,0-.24-.17-2.26.14,2.62,2.9,3.53.71.73-.88,1.24-3.6-.44-3.59Zm-.5.53c-.64.35-1.68.78-1.18,1.04.52.28.26-.05,1.18-1.04Zm2.26,10.49c-.6-.07-1.28,1.04-.38.86,4.06,4.25-3.37,5.5-1.54.27.28-.33.87-.09.46-.53l.36-.07c-3.14-.7-2.02,5.57.71,5.14,3.16-.04,3.32-5.22.38-5.67h0Zm-.59,10.74c-2.9-.85-3.26,6.01-1.45,3.5l1.24-1.48c.38-.43-.78.85-1.24,1.19-.3-1.25.8-2.9,2.19-2.63-.67,1.02.01,0,.3-.03.67-.38-.75-.51-1.04-.55Z"/>
        <path class="cls-11" d="m117.15,137.98c-.13,0-.25.07-.38.11-.11-.07-.21.12-.09.17.13.93,1.5,1.1,1.47,2.18.19,1.32-.92,2.15-2.17,2.1-1.06.16-1.97-1.18-2.83-1.02,2.26,4.48,8.96-.69,4-3.54h0Zm6.11-57.79c-2.63,1.03.26,5.76-.36,7.88.62,2.12,1.73-.57,1.44-1.6-.08-1.67-.68-3.32-.78-4.98,2.19.75,5.83,2.36,8.13,2.93,3.12.68,8.37.12,8.78,4.32.92,4.11,1.81,9.1,2.45,13.3,1.65,13.32,5.48,26.3,9.52,39.03-4.65,5.64-11.14,9.94-18.21,11.76-.62.34.29.6.63.52,4.9-.66,21.48-9.44,17.84-15.35-5.52-15.86-7.72-32.67-10.89-49.06-1.07-7.28-10.19-4.42-14.97-7.5-1.11-.37-2.3-1.29-3.57-1.23h0Zm14.86,14.74c-5.67,1.26-3.63,4.79-3.15,8.95,1.3-1.47-.6-4.33.19-6.11.89-.79,2.08-1.18,3.33-1.29,1.03-.22.65-1.8-.36-1.55h0Z"/>
        <path class="cls-11" d="m138.88,86.55c-2.45,2.06-3.05,6.49-.53,8.77.18.32.69.04.5-.28-.08-.39-.31-1.16-.47-1.52-1.7-2.38,2.59-6.89.5-6.96h0Zm-4.3,67.34c4.89,14.51,13.37,29.65,21.75,42.2-2.66-7.8-9.26-15.28-12.89-23.14-3.11-6.25-5.56-13.05-8.86-19.05h0Zm22.32,42.93c.69,4.15,3.58,8.45,5.05,12.48,4.15,6.03-1.55,12.8,1.56,19.13.29.39.69,2.4,1.05,1.19-.38-.41-.49-.83-.58-1.36-3.65-15.62,7.65-6.82-7.08-31.44h0Zm7.66,34.47c.08,1.94.71,5.81.66,8.03-.04,2.52,2.92,4.4.96.67-.46-1.82-.56-4.21-.75-6.09-.22-.75,0-2.4-.86-2.61h0Zm5.06-7.79c.06,5.61,3.69,14.58-2.23,18.16,6.09-.79,3.69-13.99,2.23-18.16h0Zm-17.34-79.92c17.02,16.34,11.97,44.22,23.62,62.68-9.02-19.53-6.42-47.27-23.62-62.68h0Z"/>
        <path class="cls-11" d="m177.16,207.54c-.23-.12-.44.2-.22.35,3.18,1.3,3.53,5.83,4.73,8.62,3.03,8.12,3.32,14.4-1.25,22.02-.63,1.6-2.72,6.24-3.43,7.88-.48.7-.89,2.04-1.79,2.3-.96-1.82-2.59-.28-3.16,1.02-1.23,2.63-3.53,1.96-2.4-.99.59-3.2,2.08-6.49,2.11-9.78.02-1.34.14-3.22-.89-4.14-.2,2.1-.06,5.09-.46,7.27-.76,2.96-2.39,6.43-1.7,9.49,2.82,2.23,3.74-1.12,5.3-2.7,3.72,3.28,6.4-9.5,8.17-11.68,3.53-6.49,2.96-13.82.19-20.46-1.4-2.9-1.7-8-5.21-9.19h0Z"/>
        <path class="cls-11" d="m176.57,232.85c2,3.19-.64,7.94-1.58,11.26-.25,1.44-2.17,3.04-1.49,4.4,2.3-.27,6.42-14.77,3.07-15.66h0Zm3.29-2.98c-.2.25.3.48.36.71-.28,2.25.92,4.73.32,6.97-.68,3.49,1.09-.18.96-1.43-.05-1.13-.3-3.21-.56-4.3.06-.86-.09-1.84-1.08-1.95h0Zm2.84-1.45c-.19,0,.05,2.77-.01,2.85.11.22-.1,1.99.4,1.9.52.02.01-1.7.08-1.94-.06-.06-.3-2.85-.47-2.81h0ZM85.59,62.12c3.43,18.72,23.49,20.75,34.68,6.84,1.46-2.43-1.06-.6-1.66.31-12.3,13.17-27.56,10.07-33.02-7.15h0Z"/>
        <path class="cls-11" d="m86.87,66.35c.07,5.75-4.35,11.3-9.37,13.28,5.07-.36,11.42-8.02,9.37-13.28h0Zm26.28,8.65c-.1-.06-.23-.04-.3.05-2.62,1.71,3.48,5.37,5.02,4.76-1.27-1.49-4.48-1.96-4.66-4.52.07-.1.03-.23-.07-.29h0Zm-28.85,6.92c-1.56.8,4.05,2.39,4.89,2.75,4.25,1.45,9.97,2.85,11.62,7.32-.34-6.43-11.61-7.89-16.5-10.08Zm32.74.97c-3.65,1.57-11.94,3.42-10,8.71.1-2.98,2.54-5.2,5.44-6.09.55-.32,6.59-2.06,4.56-2.62h0Zm-29.31-26.64c-.06.01-.04.13-.05.17-.08.37-.06.22-.08.59-.01.24.37.24.36,0-.08-.35-.05-.19-.08-.35-.01-.06.02.12.07.16.02-.17-.11-.51-.22-.58Zm-.22,2.08c-1.17,1.7-2.07,4.26-3.72,5.82,0,0-1.8,1.95-1.8,1.95-.6.9-2.58,1.44-2.38,2.58,2.56-.08,7.9-7.75,7.9-10.35h0Zm-8.82-15.75c-3.23,3.58-.53,8.72,1.1,12.52.35.61.75,4.01,1.52,2.35-1.35-4.94-5.12-9.75-2.63-14.87h0Z"/>
        <path class="cls-11" d="m81.15,58.72c-.57,1.74.18,4.24-.53,6.2-.07,1.2-1.1,2.24-1,3.37-.09.16.18.31.27.15,1.98-1.54,2.19-7.61,1.25-9.72h0Zm-2.61-16.14l-1.48,1.51c-.35.4.71-.81,1.01-1.24-.36.34-2.01,1.79-2.26,2.23,1.07-.89-.27.17-.23.66.08.2,1.58-1.48,1.66-1.47.4-.35-.72.79-1.01,1.24.54-.32,1.69-1.69,2.26-2.24-1.33,1.13,1-.8.05-.68Zm21.78-3.38c-3.33,1.13-7.3,1.97-10.43.2.4,2.49,11.6,1.44,10.43-.2h0Z"/>
        <path class="cls-11" d="m95.54,36.51c-1.55.82-3.55,4.04-5.4,2.57-.14-.08-.31-.03-.39.11,1.38,1.88,5.15-1.04,5.79-2.67h0Z"/>
        <path class="cls-11" d="m79.95,32.6c2.66,4.88,10.62,4.19,15.64,4.65,1.58-1.19-3.15-.79-3.84-.94-4.2-.03-9.02-.69-11.81-3.71h0Z"/>
        <path class="cls-11" d="m85.22,30.68c-1.6.91-3.53,1.54-5.21,2.03.49.49,6.59-1.65,5.21-2.03Z"/>
        <path class="cls-11" d="m82.37,28.93s-.06.1-.03.15c.53,1.21,3.4,3.09,4.47,1.88-1.38-.71-3.01-1.02-4.29-2-.04-.05-.1-.06-.15-.03h0Z"/>
        <path class="cls-11" d="m101.57,14.5c-.23-.15-4.98,5.06-5.16,5.1-4.21,3.83-10.18,6.27-14.39,9.53,6.62-3.48,15.86-7.45,19.55-14.63h0Zm-18.51,20.39c-3.59,2.18-7.73,5.9-7.39,10.39.77-4.31,4.17-7.5,7.67-9.98.27-.18-.02-.6-.28-.41h0Z"/>
        <path class="cls-11" d="m107.05,7.86c-9.08.41-15.38,8.38-17.77,16.52.15.82.72.06.59-.45,1.89-6.69,6.98-12.83,13.81-14.79,2.3-.47,4.76-.51,7.09-.19,1.12.1,2.48.97,3.51.47-1.59-1.71-4.97-1.49-7.24-1.55h0Zm14.7,5.01c.02,5.05,11.63,3.73,13.88,9.09,1.68,2.96,1.39,7.25,1.7,10.55,0,4.24.11,10.19.35,14.4-1.29-.5-2.58-1.89-3.93-2.17-.13.54,1.26,1.07,1.66,1.47,1.57,1.05,3.22,2.32,2.61-.75,0,0,.01-4.49.01-4.49.17-3.01.04-7.87.01-10.88.49-6-2.06-11.95-8.4-13.33-2.89-.63-5.66-2.29-7.89-3.9h0Z"/>
        <path class="cls-11" d="m111.99,1.06c-3.27-.28-7.74,4.37-4.86,6.91.25-.31-.28-.72-.22-1.1.03-.47.12-.91.23-1.39,2.73-9.43,34.37,2.33,24.97,12.12-.13,2.47,2.42-1.14,2.6-2.06,2.97-10.27-15.26-14.56-22.72-14.48Zm5.18,10.69c-3.11,1.31-5.6,5.96-5.22,8.9.99-2.58,1.67-5.37,3.86-7.28.44-.47,1.2-.95,1.37-1.6h-.01Zm12.73,42.4c1.48,3.09,3.67,6.25,1.08,9.53,3.01-1.72,2.04-8.51-1.08-9.53h0Z"/>
        <path class="cls-11" d="m135.3,45.93c-.85-.03-.14,2.76-.27,3.17,0,0,.01,1.83.01,1.83-.04,4.35.23,10.24-4.01,12.56,4.23-.44,4.68-6.79,4.87-10.26-.14-2.15.74-5.73-.61-7.3h0Zm-9.35,7.89c-1,2.53-2.07,5.71-4.89,6.97,2.75.05,5.03-4.49,4.89-6.97Z"/>
        <path class="cls-11" d="m125.51,59.76c-1.52.41-3.11.94-4.6,1.09.33,1.28,5.1-.42,4.6-1.09Z"/>
        <path class="cls-11" d="m124.68,60.2c-2.8,2.33-2.43,9.44,1.79,10.4-3.35-3.17-4.1-6.51-1.79-10.4h0Z"/>
        <path class="cls-11" d="m128.06,60.72c-1.71,1.59-3.81,8.36-1.62,9.49-1.17-3.27.8-6.41,1.62-9.49Zm3.71,2.67c-.02,5.01-5.73,8.63-8.04,12.8-3.16,5.32-3.88,15.03,4.08,16.02.36.05.48-.49.11-.56-8.1-1.05-6.23-12.21-2.1-16.66,1.43-2.32,9.12-9.17,5.95-11.6h0Z"/>
        <path class="cls-11" d="m119.97,69.01c-1.64.7-1.6,4.28-2.13,5.91-1.33,6.63.82,21.71,10.3,16.93-12.56,2.68-10.63-15.42-8.17-22.84h0Zm-20.7.63c.88,1.89,5.08,2.6,7.01,1.63-2.41.13-5.19-.34-7.01-1.63h0Zm-5.65-3.73c-1.18.87,5.29,1.65,6.08,1.84.87.08,1.48.79,2.3.98.72.12,1.45-.29,2.17-.16,2.76,1.41,6.4.73,8.78-1.12-2.44.43-4.95,1.88-7.5.91-1.04-.71-2.16-.46-3.33-.36-2.59-1.37-5.96-.51-8.51-2.09h0Zm6.73-7.13c-.28,1.05.96,2.66,1.79,3.38,1.41,1.06,4.18.06,4.6-1.52-3.61,1.82-4.45,1.73-6.39-1.86Zm19.14-14.06c-1.72.2-3.81.95-5.52,1.28-4.69,1.07-.52,1.57,1.47.88,1.3-.29,2.93-.54,4.25-.63,1.01-.11.8-1.69-.2-1.54h0Zm-21.38-4.84c-1.61.64.77,2.17,1.45,2.63.11-.06,3.53,3.27,3.03,1.83-.67-.59-1.68-1.92-2.27-2.61-.56-.68-1.23-1.83-2.21-1.86Zm23.92,9.45c-3.35,2.03-7.84-.46-10.92,2.34-.33.22-1.14,1.33-.24,1.04,1.57-1.86,4.06-1.66,6.22-1.24,1.24.3,6.93-.31,4.94-2.14h0Z"/>
        <path class="cls-11" d="m122.36,49.66c-1.43.84-1.82,3.25-3.22,4.44-2.97,3.53,5.12-1.89,3.22-4.44h0Zm-29.65-7.19c-3.13,1.91,7.81,3.64,7.16,7.67,1.86-2.18-2.1-4.43-3.79-5.41-1.18-.57-2.23-1.71-3.37-2.26Z"/>
        <path class="cls-11" d="m92.79,42.67c-.33-.07-.66.14-.73.47.18,2.08.24,1.29.18,2.08-.05.6-.18-1.2-.36-1.78-.35.97,0,2.67.4,3.59,0-1.62-.14.9.62.49.2-.07.31-.28.24-.48.07-1.83.2-1.13.07-1.83-.1-.52-.06,1.06-.12,1.58-.39-1.16.97-3.36-.3-4.13h0Zm.51,1.42c.02-.05.02-.33.03-.39l-.03.39Zm21.06,8.45c-.03-2.16,3.39-2.16,3.36,0,.03,2.16-3.39,2.16-3.36,0Zm-19.7-5.21c-.03-2.16,3.39-2.16,3.36,0,.03,2.16-3.39,2.16-3.36,0Z"/>
      </g>
      <path class="cls-2" d="m49.5,187c20.94,20.56,81.33,23.75,105.5,8.5"/>
    </g>
  </g>
</svg>