<svg width="204" height="253" viewBox="0 0 204 253" fill="none" xmlns="http://www.w3.org/2000/svg">
<g clip-path="url(#clip0_2176_1759)">
<path d="M135.227 48.6105L136.849 53.436L141.874 52.621C164.236 48.9941 181.333 64.6767 190.096 89.2732C198.83 113.789 197.969 144.363 186.074 164.967C162.043 206.589 105.192 219.756 58.6625 192.892C12.1328 166.028 -4.88995 110.211 19.1409 68.588C30.9149 48.1949 57.2578 33.8346 82.8915 29.7451C95.6046 27.7169 107.555 28.3255 116.888 31.5815C126.104 34.7963 132.48 40.4422 135.227 48.6105Z" stroke="white" stroke-width="12"/>
<path d="M134.252 152.743C134.252 152.743 134.849 155.006 135.794 157.339C136.739 159.671 138.472 162.14 138.472 162.14C138.472 162.14 141.155 169.903 145.539 177.979C149.925 186.054 150.73 185.327 155.571 194.372C160.413 203.417 164.639 214.485 164.639 214.485C164.639 214.485 163.112 219.189 162.801 223.052C162.425 227.73 164.783 229.017 164.783 231.74C164.783 234.145 165.591 239.699 165.707 240.559C166.073 243.267 168.635 241.554 169.03 241.007C170.252 239.316 171 234.101 171 234.101L171.361 242.57C167.97 250.963 168.738 250.315 168.738 250.315C168.738 250.315 169.411 252.049 170.88 251.381C172.35 250.712 174.615 247.641 174.615 247.641C174.615 247.641 175.545 249.368 175.883 248.929C177.236 247.176 180.126 239.528 180.126 239.528C180.126 239.528 180.322 238.776 180.518 238.546C184.383 234.041 184.785 228.532 184.219 225.263C182.956 217.98 179.196 209.012 179.196 209.012L176.954 207.821C176.954 207.821 172.635 200.258 170.207 191.331C168.05 183.403 166.562 172.754 165.065 166.814C162.985 158.563 158.139 150.634 158.139 150.634C158.139 150.634 151.922 143.235 151.303 142.375C150.684 141.515 134.252 152.743 134.252 152.743Z" fill="#F5E8D6"/>
<path d="M169.93 224.914C169.93 224.914 172.84 229.686 173 234.44C173.16 239.193 170.568 243.927 170.568 243.927L170.839 235.816L169.93 224.914Z" fill="#E3CABA"/>
<path d="M123.541 82.15C123.541 82.15 125.907 91.815 122.913 98.7879C119.919 105.761 118.432 107.951 111.565 110.042C104.698 112.133 101.723 111.86 93.9886 107.791C86.254 103.723 80.6261 93.7664 80.6261 93.7664L77.1797 80.1237C77.1797 80.1237 80.8131 79.5473 83.358 76.4683C85.9029 73.3889 87.4527 67.2993 87.4527 67.2993L85.762 62.0042C85.762 62.0042 87.3102 60.5958 87.3834 57.6993C87.4562 54.8029 85.8792 52.2242 87.0336 49.4257C88.7506 45.2619 92.1536 40.3375 92.1536 40.3375C92.1536 40.3375 97.2253 40.2204 100.487 39.5213C103.749 38.8222 109.43 33.502 109.43 33.502C109.43 33.502 109.687 38.5353 113.285 41.5685C116.884 44.6018 123.611 46.974 123.611 46.974L126.939 50.1205C126.939 50.1205 125.579 58.2206 122.191 60.228C119.743 61.6784 124.525 60.2541 124.525 60.2541C124.525 60.2541 121.431 66.3847 118.417 70.1342C115.401 73.884 112.464 75.2527 112.464 75.2527C112.464 75.2527 111.78 76.2883 112.958 77.4073C114.135 78.5258 117.175 79.7273 117.175 79.7273L123.541 82.15Z" fill="#F5E8D6"/>
<path d="M141.987 150.727L134.246 153.131L137.142 159.979L142.672 172.525L147.885 181.358C147.885 181.358 144.41 170.825 142.935 163.167C141.46 155.509 141.987 150.727 141.987 150.727Z" fill="#E3CABA"/>
<path d="M92.7754 74.6113C92.7754 74.6113 100.457 88.4773 108.362 90.4582C118.572 93.0169 123.778 88.1745 123.116 87.3147C122.454 86.4548 122.759 81.2461 122.759 81.2461L113.945 78.1102L112.875 75.177C112.875 75.177 106.523 78.0029 101.499 77.8618C96.4738 77.7203 92.7754 74.6113 92.7754 74.6113Z" fill="#E3CABA"/>
<path opacity="0.697674" d="M171.528 241.148L168.898 251.381L170.909 252.047L173.641 248.516L175.548 248.977C175.548 248.977 178.887 242.767 181.143 237.445C183.398 232.124 184.57 227.69 184.57 227.69L181.734 216.791L175.033 216.637L169.878 223.699C169.878 223.699 172.778 231.559 172.778 232.904C172.778 234.663 171.528 241.148 171.528 241.148Z" fill="url(#paint0_radial_2176_1759)"/>
<path opacity="0.46124" d="M100.28 51.2305C103.423 53.2842 102.002 54.2022 101.694 56.8036C101.387 59.405 100.142 61.1858 96.503 62.0564C92.8649 62.9269 89.3564 62.7311 87.141 60.2853C84.9256 57.8396 86.7296 55.4584 87.225 52.5342C87.7208 49.6104 86.6008 48.745 89.1242 48.5894C91.0647 48.4696 94.6279 49.5275 97.6609 50.6584C98.5715 50.9979 99.5545 50.7563 100.28 51.2305Z" fill="url(#paint1_radial_2176_1759)"/>
<path opacity="0.472868" d="M109.618 55.2568C112.576 53.7569 114.869 56.6396 118.153 56.8572C121.438 57.0749 122.078 54.0438 122.754 56.1269C123.431 58.2097 123.173 62.2918 120.86 65.1886C118.548 68.0854 117.139 68.2975 113.504 67.7143C109.869 67.1315 107.29 65.9715 106.318 62.857C105.347 59.7425 106.659 56.7568 109.618 55.2568Z" fill="url(#paint2_radial_2176_1759)"/>
<path d="M138 203.5H143L148.656 202.354C148.656 202.354 139.583 180.244 136.388 168.497C133.195 156.75 134.466 152.94 134.466 152.94C134.466 152.94 140.08 151.271 144.551 148.411C149.023 145.551 152.751 143.433 152.834 141.161L150.419 133.943C150.419 133.943 146.427 119.349 144.419 109.117C142.411 98.8852 141.146 91.1402 140.345 86.4467C139.918 83.9471 135.626 84.6009 131.277 83.534C126.514 82.3655 124.292 80.0399 122.433 80.4786C122.433 80.4786 123.369 85.4581 123.11 90.8867C122.85 96.3148 120.738 100.919 119.954 102.749C118.911 105.182 114.497 107.752 107.411 108.171C100.326 108.59 95.4944 106.771 91.5974 103.807C83.3131 97.5065 79.5815 82.8931 77.1753 78.4232C76.247 76.6992 70.7265 77.0237 64.7683 78.8786C60.0304 80.3533 57.9559 80.9929 50.8025 83.1668C45.2033 84.8685 45.6573 98.0234 45.6573 98.0234C45.6573 98.0234 49.4408 134.117 50.4066 143.375C50.6725 145.923 59.6135 139.476 66.5697 140.606C73.5255 141.735 78.6489 146.425 78.6489 146.425L70.7967 175.139L61.4997 195.385L64.9997 197.385L69.0014 198.885L73.5 200.385L78.6489 202.354H83.5L91.5 203.5L99.5 205H108L118 206.5L125 205H131.5L138 203.5Z" fill="#C46B57"/>
<path d="M71 177.612C71 177.612 80.7157 185.691 89.7369 195.483C98.7582 205.274 102 209.5 102 209.5H112.5H121.5L126.5 209L130.5 208.5L133.564 207.51L119.475 205.592L106.898 190.762L73.2968 169L71 177.612Z" fill="#A05B52"/>
<path d="M138.19 130.404C138.19 130.404 129.27 140.742 113.913 140.81C98.5553 140.879 77.3027 130.567 77.3027 130.567C77.3027 130.567 78.6695 134.314 79.2213 138.17C79.7731 142.027 78.6471 146.32 79.2213 147.901C80.2698 150.787 83.2036 149.789 83.2036 149.789C83.2036 149.789 83.3604 145.339 85.3268 145.339C93.1373 145.339 113.656 144.434 113.656 144.434L133.684 146.652C133.684 146.652 133.659 143.018 134.61 140.527C135.562 138.036 136.595 139.218 137.49 136.688C138.385 134.157 138.19 130.404 138.19 130.404Z" fill="#A05B52"/>
<path d="M78.5387 116.835C79.1025 122.335 77.2408 127.168 77.7685 129.913C78.6468 134.48 79.4316 142.96 78.9044 146.279C78.6468 147.902 72.4629 142.277 72.4629 142.277C72.4629 142.277 74.285 130.098 75.0478 121.506C75.8103 112.915 75.5135 107.91 75.5135 107.91C75.5135 107.91 77.9748 111.334 78.5387 116.835Z" fill="#A05B52"/>
<path d="M134.228 140.117L134.049 153.032C134.049 153.032 135.946 152.349 138.349 151.483C140.752 150.618 143.662 149.57 143.662 149.57C143.662 149.57 140.48 146.374 139.016 143.089C137.552 139.805 137.805 136.434 137.805 136.434L134.228 140.117Z" fill="#A05B52"/>
<path d="M78.4778 147.445C84.8285 154.278 94.0526 166.39 94.0526 166.39C94.0526 166.39 96.0052 165.882 97.938 166.646C99.8704 167.41 101.783 169.446 101.783 169.446C101.783 169.446 104.828 169.043 107.59 170.643C110.353 172.243 112.834 175.846 112.834 175.846C112.834 175.846 117.832 181.093 119.489 181.438C122.153 181.992 125.466 174.615 128.133 175.079C130.728 175.531 129.553 178.336 129.553 178.336C129.553 178.336 132.678 179.187 132.516 180.236C132.156 182.555 129.233 187.715 129.233 187.715L124.379 190.836L120.313 191.313C120.313 191.313 105.48 190.679 103.393 189.372L89.2937 178.627C65.438 163.827 62.7389 166.618 56.7446 159.398C54.7515 156.998 52.6537 153.212 52.6537 153.212L52.2031 143.843C52.2031 143.843 58.8634 140.039 65.2989 140.621C75.3385 141.529 77.1821 146.05 78.4778 147.445Z" fill="#F5E8D6"/>
<path opacity="0.705426" d="M87.2285 177.918L90.5384 172.745C90.5384 172.745 94.3924 175.127 99.2285 177.672C106.236 181.359 111.395 179.354 111.395 179.354L111.856 177.151C111.856 177.151 109.176 175.027 106.668 173.039C104.161 171.051 101.826 169.201 101.826 169.201C101.826 169.201 106.954 169.993 111.049 173.411C114.869 176.598 118.706 180.895 118.706 180.895L127.848 174.963L132.002 179.828L130.119 185.767L125.647 190.543L106.72 190.445L87.2285 177.918Z" fill="url(#paint3_radial_2176_1759)"/>
<path d="M87.2947 59.0887C85.5118 63.9652 79.4033 68.8768 79.4033 68.8768C79.4033 68.8768 81.9779 65.986 81.3507 60.2026C81.0251 57.2022 80.4604 56.1671 78.8451 52.8516C77.5726 50.2408 77.5791 44.0486 77.5791 44.0486L75.6592 45.6704C75.6592 45.6704 75.3064 43.1956 77.181 40.4681C79.0557 37.741 82.9743 34.9079 82.9743 34.9079L79.962 32.8591C79.962 32.8591 81.9947 32.5567 83.3594 32.0289C84.724 31.5011 85.4201 30.7479 85.4201 30.7479L82.3057 29.0052L89.1685 25.1327C89.1685 25.1327 90.6201 19.6853 93.9899 15.6092C97.3602 11.5333 102.649 8.82878 102.649 8.82878L107.017 8.46653C107.017 8.46653 106.142 3.70062 109.818 2.46282C113.494 1.22507 115.106 1.00649 121.721 3.51548C128.337 6.02442 130.723 6.8579 133.381 10.4898C136.039 14.1216 132.352 18.0429 132.352 18.0429C132.352 18.0429 135.891 20.8514 137.301 25.4816C138.711 30.1117 137.992 36.5634 137.992 36.5634C137.992 36.5634 137.052 44.3304 137.83 46.644C138.18 47.6856 135.053 45.8731 135.053 45.8731C135.053 45.8731 135.138 53.5798 135.219 57.3797C135.307 61.5191 131.681 63.3192 131.681 63.3192C131.681 63.3192 133.246 66.0753 131.46 67.6753C127.955 70.8159 122.93 78.5376 122.93 78.5376C122.93 78.5376 120.524 82.113 121.854 85.2433C122.315 86.328 122.75 88.5412 123.682 89.5515C125.439 91.4564 127.867 91.8588 127.867 91.8588C127.867 91.8588 122.801 93.7286 120.271 90.408C117.74 87.087 117.971 83.7972 117.747 78.5752C117.522 73.3532 119.978 68.2055 119.978 68.2055L124.454 60.3266C124.454 60.3266 120.007 61.5704 121.173 60.8435C121.839 60.4283 125.202 57.9894 125.422 54.3776C125.642 50.7655 122.054 46.3956 122.054 46.3956C122.054 46.3956 116.387 44.5592 113.181 41.5187C109.974 38.4781 109.228 34.2337 109.228 34.2337C109.228 34.2337 105.311 37.9099 101.083 39.4458C96.8558 40.9816 92.3186 40.377 92.3186 40.377C92.3186 40.377 88.4944 45.1804 87.3193 49.2514C86.0214 53.7483 89.0772 54.2122 87.2947 59.0887Z" fill="#E0BD6F"/>
<path d="M91.4566 41.5021C91.4566 41.5021 90.5572 41.4461 89.5561 40.9313C88.5551 40.4169 86.873 39.4437 87.4519 39.4437C88.5314 39.4437 89.8098 38.1785 89.8098 38.1785C89.8098 38.1785 85.8448 37.9113 83.5015 37.6406C81.1586 37.3704 80.4375 37.0967 80.4375 37.0967L82.9833 35.2227L90.002 36.5285L95.103 36.7906L92.3349 39.3385L90.0954 39.5442L92.2591 40.4562L91.4566 41.5021Z" fill="#B69C65"/>
<path d="M110.834 52.4899C110.834 52.4899 112.59 54.4696 114.656 55.0704C116.722 55.6711 119.096 54.8934 119.096 54.8934L121.666 51.182L117.44 50.6582L112.828 50.8262L110.834 52.4899Z" fill="#FFF7F7"/>
<path d="M99.8746 49.6985C99.9599 49.9388 97.0282 50.2527 95.2031 49.6006C93.3784 48.949 92.5742 47.0907 92.5742 47.0907L92.597 43.6094L96.4135 45.4364L99.4491 47.7505C99.4491 47.7505 99.7889 49.4582 99.8746 49.6985Z" fill="#FFF7F7"/>
<path d="M134.277 140.344C134.154 140.335 134.044 140.423 134.035 140.545C133.901 141.24 133.744 141.938 133.671 142.643C133.511 144.188 133.512 145.728 133.469 147.279C133.345 151.833 133.681 156.408 134.277 160.922C135.284 168.557 137.179 176.037 139.607 183.343C144.1 196.86 147.306 203.575 147.306 203.575L148.692 204.376L149.5 203L148.692 201.482C148.692 201.482 146.969 197.388 144.5 191C141.762 183.916 138.818 176.687 137.05 169.3C135.673 163.546 134.837 157.662 134.573 151.755C134.499 150.103 134.448 148.439 134.452 146.785C134.455 145.245 134.586 143.702 134.546 142.162C134.532 141.633 134.501 141.099 134.479 140.571C134.488 140.45 134.399 140.353 134.277 140.344Z" fill="#070D1C"/>
<path d="M72.2617 169.365C71.9098 169.273 71.5596 169.484 71.4674 169.833C69.7211 176.078 64.5215 187.992 64.5215 187.992L63.5004 190.5L63 192L62.1903 193.046L60.4268 196.279L59.9019 197.616L59 199.5L59.1211 199.874L59.498 199.754L60.548 197.963L61.3691 196.787L63.0004 195.5L63.5004 194.5L64.0004 193.5L64.5215 192.5L64.9994 191C64.9994 191 67.8228 186.039 71.1443 175.899C71.7642 174.006 72.2514 172.084 72.7325 170.154C72.8251 169.804 72.6136 169.457 72.2617 169.365Z" fill="#070D1C"/>
<path d="M51.8545 143.938C51.8164 143.938 51.7864 143.967 51.7872 144.004C51.6673 144.36 51.4645 144.736 51.3833 145.1C51.3272 145.352 51.3518 145.618 51.3295 145.875C51.2943 146.279 51.2342 146.677 51.168 147.078C51.0318 147.9 50.8389 148.741 50.8045 149.576C50.7614 150.623 50.8983 151.861 51.2891 152.85C51.4997 153.383 51.8203 153.86 52.0967 154.36C52.3641 154.843 52.6205 155.341 52.8775 155.83C53.7247 157.44 54.6566 158.973 56.0006 160.226C56.9702 161.129 58.104 161.795 59.2312 162.484C60.1673 163.055 61.1063 163.625 62.0445 164.194C65.4018 166.228 68.8121 168.15 72.2344 170.073C76.7177 172.593 81.1381 175.216 85.5206 177.903C87.8045 179.304 90.0913 180.697 92.3317 182.166C94.7405 183.745 97.0868 185.409 99.4663 187.029C101.042 188.103 102.606 189.222 104.326 190.063C105.473 190.623 106.672 191.134 107.92 191.426C109.339 191.757 110.831 191.834 112.281 191.92C114.437 192.047 116.597 192.092 118.756 192.12C120.132 192.138 121.512 192.176 122.889 192.147C123.256 192.139 123.625 192.127 123.992 192.12C124.188 192.116 124.423 192.141 124.612 192.08C124.85 192.004 125.073 191.81 125.271 191.666C125.647 191.392 126.015 191.105 126.375 190.811C127.4 189.973 128.395 189.121 129.35 188.205C130.661 186.948 131.392 185.319 132.042 183.649C132.305 182.974 132.584 182.293 132.809 181.605C132.86 181.452 132.976 181.097 133.025 180.936C133.097 180.699 133.162 180.468 133.227 180.228C133.246 180.158 133.3 180.035 133.294 179.961C133.277 179.767 133.34 179.554 133.24 179.386C133.125 179.194 132.88 179.108 132.702 178.972C132.611 178.903 132.272 178.835 132.15 178.785C131.698 178.6 131.253 178.345 130.898 178.01C130.77 177.89 130.598 177.721 130.534 177.543C130.463 177.343 130.536 177.116 130.561 176.915C130.594 176.654 130.606 176.384 130.548 176.126C130.338 175.2 129.491 174.554 128.69 174.135C128.341 173.952 127.988 173.793 127.586 173.908C127.27 173.999 127.021 174.263 126.779 174.469C126.386 174.803 125.995 175.132 125.607 175.471C124.242 176.669 122.942 177.949 121.542 179.106C121.075 179.492 120.59 179.849 120.062 180.148C119.884 180.249 119.643 180.387 119.429 180.375C119.064 180.354 118.711 180.138 118.419 179.934C117.869 179.55 117.442 179.062 116.992 178.571C116.301 177.816 115.633 177.03 114.96 176.26C114.408 175.628 113.879 174.974 113.304 174.362C112.817 173.844 112.29 173.378 111.783 172.879C111.125 172.231 110.477 171.592 109.724 171.049C108.64 170.267 107.446 169.661 106.183 169.218C105.26 168.894 104.289 168.651 103.303 168.657C102.933 168.659 102.442 168.742 102.078 168.791C101.888 168.782 101.723 168.922 101.714 169.111C101.705 169.3 101.86 169.463 102.051 169.472C103.432 169.798 104.866 170.154 106.156 170.755C107.243 171.26 108.238 171.937 109.212 172.625C109.912 173.12 110.631 173.617 111.258 174.202C111.874 174.776 112.444 175.408 113.035 176.006C114.373 177.359 115.523 178.87 116.885 180.202C117.478 180.782 118.102 181.472 118.917 181.738C120.081 182.118 121.186 181.34 122.068 180.682C123.351 179.725 124.564 178.694 125.702 177.569C126.242 177.035 126.765 176.488 127.33 175.979C127.498 175.828 127.669 175.667 127.856 175.538C127.865 175.532 127.872 175.518 127.883 175.512C127.965 175.55 128.044 175.591 128.125 175.632C128.388 175.763 129.041 176.026 129.148 176.286C129.251 176.539 129.094 176.888 129.067 177.142C129.027 177.523 129.081 177.904 129.256 178.251C129.624 178.982 130.404 179.594 131.1 180.001C131.241 180.084 131.395 180.131 131.544 180.202C131.546 180.202 131.542 180.214 131.544 180.215C131.451 180.514 131.356 180.811 131.262 181.11C131.003 181.923 130.753 182.733 130.44 183.529C130.029 184.575 129.583 185.687 128.892 186.588C128.504 187.095 127.968 187.493 127.479 187.898C126.945 188.341 126.431 188.801 125.877 189.221C125.46 189.537 125.035 189.848 124.612 190.156C124.445 190.277 124.281 190.397 124.114 190.517C123.946 190.518 123.769 190.517 123.602 190.517C123.159 190.517 122.726 190.508 122.283 190.503C121.116 190.491 119.937 190.526 118.77 190.517C116.636 190.5 114.506 190.453 112.376 190.33C111.017 190.251 109.615 190.19 108.283 189.889C106.69 189.529 105.256 188.755 103.868 187.925C102.69 187.22 101.542 186.458 100.422 185.667C97.4602 183.571 94.4876 181.47 91.4168 179.533C87.0886 176.805 82.5992 174.348 78.1573 171.81C74.4575 169.697 70.791 167.552 67.0925 165.437C64.8991 164.182 62.6924 162.942 60.5102 161.669C58.8035 160.673 57.0344 159.707 55.7986 158.128C54.8388 156.902 54.1792 155.48 53.416 154.133C52.8639 153.158 52.2464 152.258 52.1372 151.113C52.0896 150.615 52.1048 150.116 52.1102 149.616C52.1192 148.803 52.1108 147.997 52.1506 147.185C52.1775 146.636 52.2277 146.087 52.2718 145.541C52.2824 145.408 52.312 145.286 52.2987 145.154C52.2605 144.773 52.0681 144.359 51.9352 144.004C51.9345 143.967 51.8925 143.937 51.8545 143.938Z" fill="#070D1C"/>
<path d="M77.9151 145.62C77.7648 145.601 77.5998 145.64 77.4706 145.74C77.213 145.939 77.1755 146.313 77.3766 146.568C81.188 151.516 84.8847 156.561 89.0337 161.24C90.167 162.518 91.2995 163.802 92.453 165.061C92.7063 165.338 92.9665 165.6 93.2202 165.877C93.4714 166.15 93.5924 166.323 93.853 166.558C94.1627 166.837 94.5289 167.064 94.9299 167.186C95.4214 167.334 95.9185 167.288 96.4237 167.319C96.96 167.353 97.5028 167.473 97.999 167.68C98.5026 167.89 99.0268 168.124 99.4795 168.428C100.741 169.276 101.734 170.43 102.872 171.421C103.682 172.127 104.546 172.806 105.443 173.399C106.444 174.061 107.508 174.642 108.539 175.256C109.495 175.826 110.86 176.349 111.312 177.461C111.498 177.918 111.449 178.465 111.325 178.931C111.292 179.056 111.237 179.181 111.204 179.305C111.174 179.324 111.159 179.336 111.137 179.345C111.027 179.391 110.915 179.423 110.801 179.452C110.558 179.513 110.305 179.524 110.06 179.572C108.544 179.87 107.097 179.702 105.591 179.385C104.344 179.123 103.138 178.727 101.93 178.329C100.846 177.974 99.7578 177.597 98.7123 177.14C97.1974 176.479 95.7462 175.673 94.2971 174.882C93.3124 174.344 92.3854 173.719 91.4567 173.092C91.1724 172.9 90.9217 172.646 90.6086 172.504C90.4393 172.427 90.251 172.403 90.0701 172.357C90.0249 172.326 89.953 172.339 89.9224 172.383C89.8914 172.428 89.9038 172.5 89.9491 172.531C90.0581 172.681 90.152 172.843 90.2855 172.971C90.4121 173.093 90.5685 173.171 90.7162 173.266C91.0036 173.449 91.2904 173.63 91.5778 173.813C92.3889 174.329 93.237 174.804 94.0546 175.31C95.4787 176.19 96.9695 176.933 98.4836 177.648C99.5325 178.144 100.584 178.636 101.674 179.038C103.19 179.597 104.784 179.965 106.385 180.187C107.266 180.309 108.148 180.373 109.037 180.401C109.569 180.418 110.101 180.467 110.625 180.36C111.01 180.282 111.64 180.2 111.904 179.866C112.193 179.501 112.335 178.645 112.335 178.183C112.335 177.815 112.263 177.447 112.106 177.114C111.718 176.289 110.901 175.761 110.154 175.283C109.092 174.604 107.972 174.021 106.924 173.319C105.6 172.433 104.326 171.442 103.155 170.366C102.045 169.346 101.022 168.335 99.8026 167.44C99.5075 167.223 99.2116 166.999 98.8872 166.825C98.1476 166.429 97.3412 166.198 96.5047 166.143C95.9439 166.107 95.2491 166.22 94.755 165.89C94.4802 165.706 94.2166 165.402 94.0012 165.168C93.6225 164.759 93.2538 164.342 92.8838 163.926C91.6299 162.515 90.4617 161.036 89.2762 159.57C86.8765 156.601 84.4509 153.641 82.0878 150.644C80.8261 149.043 79.5791 147.438 78.3054 145.847C78.205 145.719 78.0654 145.638 77.9151 145.62Z" fill="#070D1C"/>
<path d="M107.462 181.604C107.305 181.535 107.127 181.609 107.058 181.765C106.988 181.92 107.049 182.096 107.206 182.165C107.724 182.397 108.073 182.805 108.539 183.114C109.246 183.584 110.082 183.905 110.908 184.103C111.206 184.174 111.572 184.247 111.877 184.263C112.194 184.28 112.502 184.227 112.819 184.236C113.28 184.25 113.76 184.312 114.219 184.357C114.681 184.401 115.123 184.49 115.579 184.57C116.016 184.647 116.462 184.691 116.898 184.771C117.587 184.898 118.273 185.063 118.957 185.212C119.685 185.371 120.443 185.532 121.138 185.813C121.638 186.015 122.088 186.28 122.524 186.588C123.36 187.178 124.272 187.915 124.154 189.06C124.108 189.497 123.93 189.901 123.709 190.276C123.52 190.594 123.631 191.011 123.952 191.198C124.272 191.386 124.678 191.275 124.867 190.958C125.093 190.578 125.319 190.212 125.432 189.782C125.51 189.484 125.544 189.18 125.54 188.873C125.522 187.482 124.328 186.225 123.144 185.599C122.508 185.263 121.815 185.021 121.152 184.744C120.782 184.59 120.415 184.456 120.034 184.33C119.501 184.153 118.955 183.997 118.406 183.876C117.673 183.714 116.916 183.628 116.171 183.542C115.396 183.452 114.596 183.454 113.815 183.435C113.495 183.427 113.167 183.443 112.846 183.435C112.526 183.427 112.21 183.374 111.89 183.381C111.783 183.384 111.675 183.426 111.567 183.435C111.23 183.461 110.835 183.436 110.504 183.368C109.882 183.241 109.434 182.925 108.956 182.539C108.506 182.177 107.995 181.835 107.462 181.604Z" fill="#070D1C"/>
<path d="M121.407 183.488C120.852 183.499 120.294 183.467 119.765 183.649C119.61 183.677 119.508 183.816 119.536 183.969C119.564 184.123 119.718 184.225 119.872 184.197C120.307 184.196 120.729 184.168 121.165 184.17C122.104 184.173 123.045 184.22 123.978 184.33C124.57 184.4 125.22 184.464 125.782 184.678C125.965 184.747 126.126 184.858 126.307 184.932C126.47 184.998 126.639 185.033 126.805 185.092C127.311 185.269 128.509 185.681 128.285 186.428C128.239 186.582 128.156 186.747 128.07 186.882C127.94 187.088 127.924 187.09 127.747 187.283C127.509 187.567 127.542 187.982 127.828 188.219C128.114 188.455 128.546 188.422 128.784 188.138C129.115 187.713 129.434 187.295 129.564 186.762C129.875 185.486 128.825 184.54 127.72 184.13C127.355 183.994 126.99 183.834 126.603 183.782C126.392 183.754 126.183 183.795 125.97 183.782C125.759 183.77 125.548 183.741 125.338 183.715C124.03 183.558 122.725 183.463 121.407 183.488Z" fill="#070D1C"/>
<path d="M130.547 178.891C129.92 178.882 129.266 179.043 128.65 179.292C127.737 179.66 126.848 180.118 126.024 180.655C125.374 181.079 124.769 181.595 124.167 182.085C123.785 182.395 123.402 182.688 123.036 183.02C122.71 183.286 122.661 183.765 122.929 184.089C123.197 184.412 123.679 184.462 124.006 184.195C124.513 183.824 124.977 183.407 125.473 183.02C125.949 182.649 126.443 182.298 126.926 181.937C127.751 181.323 128.569 180.698 129.538 180.321C130.32 180.016 131.189 179.671 132.015 180.013C132.147 180.097 132.321 180.065 132.405 179.933C132.489 179.802 132.457 179.629 132.324 179.546C131.787 179.086 131.175 178.9 130.547 178.891Z" fill="#070D1C"/>
<path d="M71.8851 142.23C71.8217 142.211 71.7558 142.247 71.7369 142.31C71.7179 142.372 71.7412 142.438 71.8041 142.457C72.4941 142.897 73.2549 143.26 73.8907 143.78C74.5015 144.278 75.0343 144.851 75.6137 145.383C76.2533 145.971 76.927 146.462 77.6731 146.906C77.9992 147.093 78.4269 146.989 78.6156 146.666C78.8038 146.342 78.6858 145.917 78.3597 145.73C76.9529 144.955 75.7476 143.905 74.3619 143.098C73.5516 142.626 72.8435 142.252 71.8851 142.23Z" fill="#070D1C"/>
<path d="M74.9669 106.833C74.9053 106.878 74.8945 106.958 74.9402 107.019C75.0005 107.202 75.0298 107.389 75.1013 107.567C75.2348 107.899 75.455 108.209 75.613 108.529C75.8892 109.089 76.1536 109.667 76.3669 110.253C77.4657 113.269 78.3078 116.418 78.2919 119.646C78.2841 121.14 77.9693 122.564 77.6591 124.016C77.5398 124.574 77.4593 125.15 77.3628 125.713C77.1 127.248 76.8786 128.775 76.9053 130.336C76.9187 131.119 76.9376 131.932 77.1073 132.701C77.15 132.894 77.218 133.085 77.2689 133.276C77.5006 134.149 77.7181 135.03 77.9283 135.908C78.4608 138.131 78.9402 140.433 79.0324 142.722C79.0509 143.192 79.0212 143.656 79.0052 144.125C78.9807 144.854 78.9492 145.693 78.4396 146.277C78.2764 146.443 78.2721 146.715 78.4396 146.878C78.6076 147.04 78.882 147.031 79.0457 146.865C79.9572 146.012 80.089 144.36 80.0688 143.217C80.0235 140.676 79.6238 138.159 79.234 135.654C78.9617 133.904 78.5215 132.145 78.6016 130.363C78.6671 128.899 78.9217 127.438 79.1534 125.993C79.2443 125.426 79.3658 124.869 79.4226 124.297C79.7866 120.634 79.4041 116.879 78.3457 113.353C77.8534 111.714 77.2732 110.11 76.4612 108.596C76.223 108.152 75.9874 107.607 75.6397 107.233C75.5605 107.148 75.259 106.934 75.1556 106.859C75.1099 106.798 75.0285 106.787 74.9669 106.833Z" fill="#070D1C"/>
<path d="M54.3713 81.5783C53.2276 81.7249 52.1458 81.99 51.1135 82.5138C50.2765 82.938 49.5784 83.5562 48.9328 84.2241C48.7458 84.4174 48.5204 84.5854 48.3405 84.7851C48.0725 85.0827 47.8582 85.4585 47.654 85.8006C47.1284 86.681 46.7641 87.6071 46.4559 88.5799C45.8623 90.4539 45.504 92.3943 45.3521 94.3522C45.3103 94.8909 45.2204 95.431 45.1772 95.9693C45.0871 97.0891 45.0394 98.226 45.056 99.3497C45.0706 100.344 45.2425 101.323 45.2848 102.316C45.3194 103.128 45.326 103.936 45.3521 104.748C45.3989 106.199 45.5944 107.652 45.7694 109.09C45.9471 110.551 46.125 112.013 46.3079 113.473C46.9383 118.508 47.6554 123.543 48.0982 128.599C48.254 130.378 48.3836 132.16 48.4885 133.943C48.6206 136.187 48.7553 138.433 49.1481 140.651C49.3342 141.701 49.5798 142.778 49.9962 143.764C50.1393 144.104 50.292 144.476 50.6019 144.7C51.4125 145.285 52.458 144.616 53.1865 144.219C53.7617 143.905 54.3407 143.605 54.8959 143.256C55.2577 143.03 55.5877 142.76 55.9594 142.548C56.5845 142.193 57.2534 141.963 57.8573 141.573C58.006 141.523 58.0968 141.36 58.046 141.212C57.9952 141.065 57.8311 140.988 57.6825 141.039C57.5304 141.052 57.3745 141.047 57.2246 141.079C56.6495 141.199 56.0762 141.554 55.5558 141.813C55.1621 142.01 54.7533 142.171 54.3713 142.388C53.9103 142.649 53.4699 142.943 53.0249 143.23C52.632 143.483 51.6941 144.077 51.1942 143.925C51.1664 143.916 51.1048 143.829 51.0865 143.791C51.0218 143.657 50.9589 143.526 50.8981 143.39C50.8361 143.251 50.78 143.103 50.7231 142.963C50.4022 142.168 50.208 141.333 50.0635 140.49C49.7734 138.799 49.6878 137.083 49.5789 135.373C49.4332 133.086 49.3409 130.788 49.1347 128.505C48.5453 121.982 47.429 115.505 46.9674 108.97C46.9382 108.556 46.9394 108.141 46.9136 107.728C46.85 106.707 46.7871 105.684 46.6848 104.668C46.6443 104.266 46.5787 103.855 46.5501 103.452C46.5081 102.86 46.4559 102.268 46.4559 101.674C46.456 100.9 46.5587 100.126 46.5636 99.3497C46.5749 97.5543 46.5099 95.7508 46.7117 93.9648C46.9765 91.6208 47.467 89.3153 48.5559 87.2039C48.8331 86.666 49.1929 86.2081 49.5251 85.7074C49.6503 85.5184 49.7491 85.3003 49.902 85.1327C50.4862 84.4914 51.2755 84.0056 52.0692 83.6627C52.8501 83.3258 53.6884 83.1774 54.5324 83.115C54.961 83.0714 55.2767 82.6985 55.2328 82.2731C55.1884 81.8481 54.7994 81.5347 54.3713 81.5783Z" fill="#070D1C"/>
<path d="M72.8946 76.7273C72.3751 76.7418 71.8599 76.7666 71.3465 76.8474C68.4643 77.2989 65.6639 78.0557 62.8658 78.8652C62.5113 78.9673 62.143 79.0417 61.7889 79.1456C60.7004 79.4642 59.633 79.8392 58.5582 80.2009C57.8178 80.4506 57.0833 80.6922 56.3777 81.0296C56.0064 81.1518 55.81 81.5563 55.9332 81.9249C56.0568 82.293 56.4505 82.488 56.8219 82.3657C58.3196 82.075 59.7962 81.5119 61.2371 81.0163C64.3713 79.9384 67.4731 78.7142 70.727 78.0232C71.2336 77.9155 71.7522 77.8454 72.2618 77.756C73.6002 77.5208 75.2267 77.3909 76.3673 78.2768C76.7253 78.5552 76.957 78.9994 77.1616 79.3859C77.3697 79.7797 77.5485 80.1945 77.7268 80.602C78.1102 81.4759 78.4233 82.3636 78.777 83.2478C78.9394 83.6536 79.0927 84.0589 79.2211 84.4767C79.3568 84.9179 79.5024 85.3652 79.6923 85.7864C79.791 86.0053 79.9043 86.2084 80.002 86.4277C80.2002 86.8745 80.332 87.3556 80.5267 87.8041C80.9295 88.7319 81.4063 89.6273 81.7785 90.5697C81.8396 90.7138 81.9973 90.7775 82.142 90.7168C82.2868 90.6565 82.3647 90.4863 82.3036 90.3426C81.8849 89.4178 81.5751 88.478 81.24 87.5236C81.0793 87.0644 80.876 86.624 80.7287 86.1605C80.5861 85.7111 80.4832 85.2502 80.3113 84.8111C80.1472 84.3912 79.9301 83.9905 79.7729 83.5685C79.5541 82.9797 79.3611 82.4016 79.1267 81.818C78.6964 80.7452 78.3286 79.648 77.7539 78.6377C77.5597 78.2969 77.3413 77.936 77.0539 77.6624C75.9956 76.6563 74.2506 76.6883 72.8946 76.7273Z" fill="#070D1C"/>
<path d="M55.059 81.6843C54.9203 81.7096 54.6489 81.84 54.5206 81.8981C54.2729 81.8609 54.0467 82.0396 54.0092 82.2859C53.9717 82.5318 54.1383 82.7563 54.3862 82.7935C54.4835 82.8807 54.7153 83.0919 54.8303 83.1543C55.0797 83.289 55.4191 83.3433 55.6918 83.4079C56.0325 83.4891 56.359 83.5682 56.6877 83.6888C57.3015 83.9137 57.9231 84.0788 58.5455 84.2767C59.7456 84.6581 60.9457 85.1246 62.0187 85.7865C62.1957 85.896 62.3913 85.9811 62.5572 86.1072C62.6218 86.1568 62.7049 86.2141 62.7182 86.294C62.7467 86.4604 62.6928 86.6224 62.6648 86.7888C62.6162 87.0727 62.521 87.3514 62.4495 87.6307C62.1772 88.6885 61.7904 89.9575 62.5434 90.9175C62.701 91.1184 62.9922 91.3818 63.1357 91.5186C63.6 91.9607 64.0855 92.3751 64.5761 92.7881C65.8171 93.8318 67.1033 94.8161 68.3318 95.8748C69.2597 96.6744 70.1776 97.5039 70.9836 98.427C71.8873 99.4622 72.6157 100.622 73.4066 101.741C73.444 101.809 73.5259 101.831 73.5948 101.794C73.6641 101.757 73.6861 101.676 73.6491 101.607C72.272 98.1645 69.4738 95.5439 66.8914 92.9754C65.8774 91.9667 64.9177 90.9179 63.9705 89.8485C63.8852 89.7523 63.9429 89.509 63.9571 89.4077C64.0165 88.9711 64.169 88.5452 64.2935 88.1249C64.3991 87.7683 64.5438 87.4246 64.5894 87.056C64.6377 86.6677 64.7299 86.2615 64.6433 85.8801C64.5567 85.4979 64.3271 85.1657 64.0915 84.8514C63.9472 84.6586 63.718 84.5299 63.5263 84.3836C63.392 84.2814 63.2498 84.1959 63.1089 84.1031C62.6928 83.8286 62.2604 83.5819 61.8167 83.3549C60.5929 82.728 59.2507 82.2273 57.8994 81.9516C57.5022 81.8707 57.1025 81.8609 56.7015 81.8182C56.1807 81.7626 55.585 81.589 55.059 81.6843Z" fill="#070D1C"/>
<path d="M78.5479 135.347C78.407 135.404 78.3295 135.554 78.3868 135.694C78.3032 135.962 78.1499 136.373 78.1848 136.67C78.2003 136.805 78.2757 136.92 78.3325 137.044C78.4269 137.248 78.6112 137.551 78.7366 137.739C79.2405 138.491 79.8031 139.172 80.4596 139.796C81.3405 140.634 82.3846 141.225 83.4749 141.76C85.5179 142.765 87.8039 143.193 90.0706 143.23C90.7326 143.241 91.3559 143.214 92.009 143.11C92.0542 143.107 92.0934 143.061 92.0899 143.017C92.0865 142.972 92.0408 142.946 91.9956 142.949C91.141 142.936 90.2903 142.982 89.4382 142.883C88.5853 142.784 87.7019 142.624 86.8804 142.375C86.4613 142.248 86.0577 142.054 85.6553 141.88C84.5496 141.404 83.5067 140.833 82.6401 139.983C81.8574 139.215 81.1475 138.392 80.5539 137.471C80.3062 137.087 80.1184 136.653 79.8944 136.255C79.8363 136.152 79.804 136.044 79.7191 135.962C79.4956 135.743 79.1768 135.637 78.8981 135.494C78.8412 135.354 78.6892 135.29 78.5479 135.347Z" fill="#070D1C"/>
<path d="M134.143 158.061C133.192 158.442 132.227 158.805 131.276 159.183C130.204 159.609 129.172 160.122 128.099 160.546C126.618 161.131 125.114 161.648 123.603 162.15C122.289 162.585 120.983 163.018 119.645 163.379C116.513 164.222 113.304 164.855 110.061 165.062C107.027 165.256 103.981 165.079 100.975 164.662C97.8739 164.231 94.8513 163.496 91.9424 162.336C91.7946 162.284 91.6322 162.363 91.5788 162.51C91.5258 162.657 91.6064 162.818 91.7541 162.871C95.4573 164.045 99.1834 165.134 103.061 165.557C106.28 165.908 109.531 165.886 112.753 165.61C117.557 165.199 122.252 164.126 126.726 162.336C127.642 161.97 128.54 161.581 129.445 161.187C130.211 160.854 131.002 160.522 131.733 160.119C132.634 159.622 133.505 159.052 134.372 158.502C134.494 158.439 134.543 158.289 134.479 158.167C134.416 158.046 134.265 157.998 134.143 158.061Z" fill="#070D1C"/>
<path d="M133.792 147.798C133.736 147.75 133.653 147.756 133.603 147.812C133.104 148.187 132.685 148.632 132.203 149.028C131.573 149.546 130.908 150.031 130.211 150.457C128.663 151.404 126.993 152.148 125.298 152.796C124.131 153.242 122.955 153.67 121.744 153.985C120.867 154.213 119.968 154.338 119.079 154.506C117.645 154.777 116.212 155.032 114.758 155.174C114.473 155.205 114.269 155.465 114.3 155.749C114.331 156.032 114.594 156.234 114.879 156.203C116.362 156.029 117.837 155.787 119.281 155.401C120.171 155.163 121.03 154.832 121.906 154.546C124.454 153.714 126.958 152.829 129.309 151.526C130.43 150.905 131.52 150.215 132.499 149.388C133.005 148.962 133.465 148.556 133.805 147.986C133.854 147.93 133.848 147.847 133.792 147.798Z" fill="#070D1C"/>
<path d="M79.5849 147.867C79.5621 147.854 79.5311 147.858 79.5173 147.881C79.5039 147.903 79.5082 147.934 79.5311 147.947C79.6547 148.042 79.8016 148.114 79.908 148.228C80.2569 148.601 80.4021 149.068 80.8233 149.39C81.0637 149.574 81.3471 149.697 81.6039 149.858C82.3603 150.331 83.1171 150.773 83.9192 151.167C85.4135 151.902 86.9284 152.572 88.4826 153.172C91.5241 154.345 94.6785 155.185 97.892 155.737C99.7205 156.052 101.582 156.31 103.438 156.392C105.027 156.462 106.626 156.506 108.217 156.472C110.039 156.433 111.854 156.277 113.668 156.111C113.825 156.102 113.947 155.973 113.938 155.817C113.928 155.662 113.798 155.541 113.641 155.55C107.979 155.712 102.281 155.61 96.7341 154.348C93.3217 153.571 89.9898 152.397 86.8134 150.94C85.6706 150.416 84.5739 149.813 83.4484 149.256C83.0555 149.063 82.6437 148.9 82.25 148.709C81.9825 148.579 81.7318 148.406 81.4557 148.294C80.9737 148.099 80.4904 148.185 80.0023 148.054C79.8511 148.014 79.7271 147.931 79.5849 147.867Z" fill="#070D1C"/>
<path d="M135.825 116.292C135.739 116.302 135.681 116.38 135.691 116.466C135.71 117.015 135.792 117.538 135.852 118.082C136.092 120.244 136.653 122.369 137.158 124.483C137.462 125.756 137.771 127.04 137.898 128.344C137.94 128.773 137.918 129.186 137.925 129.614C137.936 130.297 137.987 130.971 137.952 131.658C137.873 133.212 137.476 134.718 136.727 136.081C136.512 136.51 136.685 137.029 137.117 137.243C137.55 137.457 138.073 137.285 138.288 136.855C138.845 135.644 139.262 134.338 139.392 133.007C139.463 132.283 139.438 131.527 139.406 130.803C139.386 130.36 139.361 129.916 139.284 129.48C139.156 128.752 138.956 128.025 138.8 127.302C138.36 125.266 137.808 123.266 137.238 121.263C136.929 120.174 136.589 119.099 136.31 118.002C136.179 117.49 136.104 116.958 136 116.439C135.99 116.354 135.911 116.282 135.825 116.292Z" fill="#070D1C"/>
<path d="M136.902 136.804C136.745 136.818 136.593 136.887 136.484 137.017C135.295 138.269 133.929 139.375 132.339 140.09C131.824 140.322 131.293 140.474 130.75 140.625C129.808 140.888 129.13 141.106 128.152 140.839C127.999 140.804 127.838 140.901 127.802 141.053C127.767 141.204 127.865 141.365 128.018 141.4C128.962 141.58 129.994 141.741 130.952 141.574C131.711 141.441 132.463 141.138 133.173 140.852C134.779 140.205 136.384 139.202 137.427 137.805C137.645 137.546 137.608 137.153 137.346 136.937C137.215 136.829 137.059 136.789 136.902 136.804Z" fill="#070D1C"/>
<path d="M111.46 108.542C111.309 108.498 111.154 108.592 111.11 108.742C110.994 108.983 110.877 109.23 110.814 109.49C110.583 110.428 110.882 111.519 111.096 112.43C111.291 113.26 111.522 114.071 111.715 114.902C111.813 115.239 112.171 115.44 112.51 115.343C112.849 115.246 113.038 114.891 112.94 114.555C112.606 113.587 112.178 112.652 111.891 111.668C111.633 110.785 111.552 109.803 111.648 108.889C111.692 108.74 111.611 108.585 111.46 108.542Z" fill="#070D1C"/>
<path d="M113.614 121.304C113.504 121.293 113.396 121.382 113.385 121.491C113.322 121.758 113.247 122.031 113.223 122.305C113.172 122.91 113.294 123.557 113.385 124.15C113.426 124.416 113.485 124.916 113.546 125.178C113.75 126.049 114.192 126.828 114.677 127.57C114.849 127.868 115.225 127.968 115.525 127.797C115.826 127.627 115.926 127.254 115.754 126.955C115.457 126.362 115.151 125.771 114.825 125.192C114.595 124.783 114.321 124.389 114.152 123.949C113.863 123.197 113.818 122.329 113.789 121.531C113.8 121.422 113.723 121.314 113.614 121.304Z" fill="#070D1C"/>
<path d="M115.594 132.085C115.493 132.121 115.45 132.239 115.486 132.339C115.535 132.583 115.557 132.828 115.594 133.074C115.642 133.389 115.692 133.436 115.715 133.755C115.748 134.219 115.664 134.702 115.594 135.158C115.518 135.651 115.446 136.145 115.392 136.641C115.363 136.876 115.532 137.08 115.769 137.109C116.005 137.138 116.224 136.97 116.253 136.735C116.396 135.707 116.426 134.734 116.307 133.702C116.284 133.498 116.26 133.138 116.2 132.94C116.138 132.74 115.946 132.389 115.849 132.205C115.814 132.105 115.694 132.049 115.594 132.085Z" fill="#070D1C"/>
<path d="M111.864 114.114C111.126 114.139 110.452 114.438 110.047 115.062C109.366 116.108 109.337 117.621 109.858 118.723C109.986 119.044 110.356 119.198 110.679 119.071C111.002 118.943 111.158 118.577 111.029 118.256C111.948 116.704 111.657 117.268 111.945 116.706C112.197 116.211 111.33 117.638 110.962 118.055C110.919 118.104 110.934 117.931 110.921 117.868C110.909 117.803 110.904 117.734 110.894 117.668C110.879 117.562 110.859 117.374 110.854 117.267C110.827 116.733 110.894 116.252 111.191 115.797C111.44 115.415 111.697 115.157 112.187 115.21C112.318 115.223 112.419 115.187 112.55 115.169C112.6 115.162 112.72 115.111 112.698 115.156C112.18 116.21 112.705 115.156 112.873 115.156C113.018 115.217 113.175 115.152 113.237 115.009C113.298 114.865 113.233 114.696 113.089 114.635C112.923 114.477 112.728 114.267 112.51 114.18C112.332 114.11 112.043 114.107 111.864 114.114Z" fill="#070D1C"/>
<path d="M114.057 115.772C113.906 115.809 113.9 115.837 113.774 115.919C113.737 115.916 113.696 115.935 113.693 115.972C113.691 116.009 113.723 116.05 113.76 116.052C113.62 116.184 113.662 116.194 113.559 116.306C113.653 116.254 113.788 116.194 113.855 116.146C113.912 116.105 113.956 116.515 113.962 116.56C113.996 116.787 114.111 116.978 114.138 117.215C114.208 117.846 113.901 118.873 113.357 119.286C112.866 119.658 112.287 119.567 111.795 119.246C111.689 119.177 111.533 119.051 111.432 118.979C111.362 118.929 111.163 118.899 111.216 118.832C111.999 117.848 111.207 118.833 110.974 118.658C110.821 118.527 110.594 118.546 110.463 118.698C110.331 118.85 110.35 119.075 110.503 119.206C111.641 120.302 113.409 120.789 114.501 119.366C114.687 119.124 114.84 118.851 114.945 118.564C115.07 118.225 115.128 117.868 115.147 117.509C115.18 116.894 115.149 116.19 114.568 115.838C114.403 115.739 114.244 115.725 114.057 115.772ZM113.559 116.306C112.924 116.659 111.884 117.085 112.374 117.349C112.897 117.629 112.639 117.302 113.559 116.306Z" fill="#070D1C"/>
<path d="M115.821 126.794C115.651 126.802 115.488 126.847 115.35 126.941C115.274 126.993 115.232 127.094 115.147 127.128C114.894 127.233 115.148 127.135 115.094 127.235C114.979 127.331 114.97 127.495 115.067 127.61C115.153 127.712 115.291 127.714 115.403 127.649C115.417 127.642 115.431 127.66 115.444 127.649C115.471 127.649 115.498 127.637 115.524 127.636C115.541 127.635 115.551 127.654 115.565 127.663C115.629 127.702 115.664 127.86 115.713 127.93C115.729 127.953 115.879 128.106 115.888 128.117C116 128.266 116.057 128.449 116.144 128.611C116.281 128.871 116.479 129.09 116.575 129.373C116.933 130.426 116.323 131.346 115.201 131.431C114.412 131.49 114.091 130.907 113.842 130.255C113.589 129.592 113.38 128.534 113.909 127.917C113.953 127.866 114.09 127.749 114.152 127.743C114.582 127.7 114.15 127.747 114.259 127.73C114.354 127.759 114.458 127.704 114.488 127.61C114.518 127.515 114.462 127.412 114.367 127.382C114.731 127.305 114.833 127.306 114.73 127.315C114.572 127.329 114.416 127.321 114.259 127.302C114.208 127.296 114.159 127.253 114.111 127.235C113.906 127.16 113.708 127.224 113.532 127.342C112.91 127.758 112.886 128.74 112.913 129.4C112.928 129.765 112.951 130.141 113.048 130.496C113.337 131.557 114.26 132.564 115.444 132.46C116.539 132.363 117.6 131.64 117.867 130.549C118.014 129.944 117.91 129.328 117.772 128.732C117.608 128.018 117.375 127.642 116.803 127.182C116.658 127.065 116.497 126.941 116.319 126.875C116.165 126.817 115.991 126.786 115.821 126.794Z" fill="#070D1C"/>
<path d="M115.229 137.538C114.974 137.5 114.751 137.544 114.502 137.591C114.335 137.623 114.204 137.63 114.045 137.698C112.836 138.211 112.653 139.933 112.658 141.052C112.663 141.359 112.914 141.605 113.223 141.6C113.533 141.594 113.781 141.346 113.776 141.039C115.016 139.565 114.543 140.09 115.014 139.555C115.393 139.124 114.238 140.402 113.776 140.744C113.705 140.797 113.762 140.578 113.762 140.49C113.762 140.407 113.769 140.098 113.776 140.01C113.809 139.56 113.976 139.021 114.314 138.7C114.638 138.392 115.046 138.205 115.485 138.112C115.563 138.096 115.648 138.086 115.727 138.086C115.812 138.085 116.016 138.042 115.97 138.112C115.298 139.128 115.982 138.113 116.266 138.086C116.359 138.098 116.442 138.031 116.454 137.939C116.467 137.846 116.4 137.763 116.306 137.751C115.965 137.629 115.59 137.591 115.229 137.538Z" fill="#070D1C"/>
<path d="M117.154 137.979C117.024 137.984 116.903 138.052 116.777 138.086C116.727 138.058 116.67 138.076 116.642 138.126C116.615 138.176 116.633 138.232 116.683 138.259C116.717 138.379 116.726 138.507 116.777 138.62C116.946 138.99 117.435 139.149 117.706 139.435C117.955 139.699 118.1 140.083 118.15 140.437C118.337 141.753 117.225 142.59 115.983 142.535C115.105 142.496 114.243 141.988 113.56 141.479C113.439 141.38 113.256 141.399 113.156 141.52C113.056 141.64 113.075 141.821 113.196 141.92C113.71 142.38 114.29 142.845 114.96 143.056C115.546 143.241 116.229 143.317 116.831 143.163C118.054 142.849 118.974 141.615 118.877 140.357C118.82 139.616 118.394 138.905 117.881 138.38C117.701 138.196 117.436 137.968 117.154 137.979Z" fill="#070D1C"/>
<path d="M123.265 80.1879C122.993 80.223 122.744 80.3308 122.539 80.5621C122.322 80.8062 122.248 81.1184 122.202 81.4309C122.095 82.1646 122.248 82.7953 122.391 83.5149C122.591 84.5261 122.79 85.5348 122.888 86.5619C122.938 87.0814 122.979 87.553 122.902 88.0716C122.837 88.4086 123.06 88.7425 123.4 88.8066C123.74 88.8703 124.062 88.6493 124.127 88.3119C124.266 87.7056 124.37 87.0933 124.342 86.4682C124.288 85.2411 123.937 84.052 123.737 82.8471C123.676 82.4845 123.641 82.1129 123.575 81.7516C123.558 81.6605 123.547 81.5759 123.561 81.4839C123.709 81.4745 123.923 81.5519 124.019 81.5908C124.162 81.649 124.308 81.7054 124.45 81.7648C125.516 82.2104 126.557 82.7102 127.64 83.1143C128.966 83.6086 130.304 84.1088 131.692 84.4103C132.82 84.6557 133.988 84.6651 135.124 84.8648C136.085 85.0333 137.043 85.2851 137.965 85.5998C138.513 85.7867 139.038 86.062 139.553 86.3211C139.676 86.3827 139.946 86.9916 140.011 87.163C140.052 87.2716 140.095 87.3867 140.132 87.497C140.173 87.6188 140.203 87.7347 140.24 87.8578C140.321 88.1246 140.421 88.4526 140.468 88.7263C140.498 88.8904 140.5 89.0581 140.536 89.2205C140.615 89.5771 140.75 89.9201 140.832 90.2762C140.972 90.8838 141.084 91.4931 141.196 92.1067C141.367 93.0491 141.524 93.9992 141.707 94.9394C141.86 95.7236 142.046 96.4868 142.165 97.2778C142.403 98.8594 142.629 100.448 142.919 102.021C143.002 102.472 143.031 102.931 143.093 103.384C143.353 105.256 143.672 107.123 144.009 108.983C145.281 116.004 146.883 122.93 148.922 129.774C149.594 132.027 150.312 134.27 151.076 136.495C151.351 137.297 151.622 138.094 151.883 138.9C152.115 139.611 152.348 140.31 152.436 141.051C152.352 141.17 152.27 141.283 152.18 141.399C151.975 141.66 151.765 141.91 151.547 142.16C150.7 143.133 149.789 144.05 148.76 144.833C147.834 145.538 146.962 146.323 146.042 147.037C144.144 148.511 142.076 149.801 139.903 150.832C138.561 151.469 137.179 151.898 135.771 152.355C135.432 152.465 135.062 152.48 134.721 152.583C134.544 152.636 134.391 152.733 134.222 152.81C134.093 152.83 134 152.948 134.021 153.077C134.042 153.206 134.16 153.297 134.29 153.277C134.478 153.298 134.666 153.342 134.855 153.331C135.228 153.309 135.591 153.166 135.959 153.103C136.73 152.973 137.398 152.741 138.126 152.462C140.298 151.631 142.334 150.569 144.292 149.322C145.801 148.361 147.276 147.313 148.639 146.155C149.011 145.84 149.332 145.509 149.676 145.167C150.172 144.673 150.72 144.223 151.224 143.737C151.755 143.225 152.289 142.718 152.772 142.16C152.974 141.928 153.239 141.677 153.351 141.385C153.506 140.981 153.378 140.478 153.283 140.076C153.118 139.371 152.912 138.668 152.691 137.978C151.913 135.549 151.155 133.115 150.43 130.669C148.973 125.75 147.729 120.771 146.714 115.744C145.995 112.176 145.43 108.566 144.763 104.987C144.649 104.378 144.547 103.765 144.426 103.157C144.337 102.708 144.212 102.274 144.144 101.821C143.904 100.238 143.611 98.6632 143.309 97.0905C143.158 96.3029 143.073 95.5038 142.945 94.7124C142.791 93.7601 142.607 92.8233 142.407 91.8796C142.275 91.2597 142.134 90.6422 142.003 90.0222C141.926 89.6558 141.898 89.2753 141.801 88.9135C141.715 88.5911 141.573 88.2841 141.478 87.9647C141.262 87.2374 141.073 86.3925 140.644 85.7465C140.316 85.2543 139.78 85.0563 139.257 84.8113C138.514 84.4624 137.774 84.1054 136.982 83.8758C135.035 83.3114 132.974 83.3195 130.992 82.9274C129.529 82.6375 128.188 82.0081 126.832 81.4172C126.47 81.2595 126.107 81.1021 125.742 80.9495C125.103 80.6822 124.083 80.0832 123.265 80.1879ZM123.481 81.4574C123.484 81.4557 123.491 81.4587 123.494 81.4574C123.489 81.4591 123.487 81.4698 123.481 81.4707C123.479 81.4711 123.479 81.4583 123.481 81.4574Z" fill="#070D1C"/>
<path d="M138.127 94.9266C137.099 95.2144 135.986 95.6266 135.139 96.2898C134.94 96.445 134.618 96.6258 134.492 96.8507C134.394 97.0265 134.408 97.2745 134.371 97.4656C134.328 97.6901 134.26 97.906 134.237 98.1335C134.174 98.7376 134.287 99.3593 134.398 99.9507C134.543 100.73 134.723 101.508 134.761 102.302C134.782 102.723 134.745 103.152 134.721 103.572C134.706 103.727 134.821 103.864 134.977 103.879C135.133 103.894 135.285 103.781 135.3 103.625C135.472 102.359 135.3 101.086 135.111 99.8305C135.031 99.2982 134.808 98.2446 135.165 97.7726C135.235 97.6802 135.417 97.679 135.502 97.6123C135.634 97.5092 135.683 97.3395 135.838 97.2381C136.623 96.728 137.593 96.6374 138.49 96.4766C138.921 96.3774 139.196 95.9554 139.096 95.5278C138.996 95.1002 138.557 94.8274 138.127 94.9266Z" fill="#070D1C"/>
<path d="M138.879 86.5497C138.733 86.5843 138.599 86.6677 138.515 86.8037C137.93 87.4583 137.554 88.2155 137.223 89.0219C136.759 90.1525 136.548 91.3219 136.792 92.5358C136.918 93.163 137.231 93.7283 137.532 94.2863C137.598 94.4086 137.653 94.5339 137.734 94.6472C137.86 94.8229 138.205 95.1654 138.353 95.315C138.431 95.451 138.607 95.4989 138.744 95.4219C138.881 95.345 138.929 95.1701 138.851 95.0346C138.781 94.7549 138.725 94.4676 138.636 94.1927C138.561 93.9583 138.454 93.7467 138.381 93.5115C138.127 92.7021 137.964 91.7901 138.084 90.946C138.153 90.4663 138.287 89.9763 138.475 89.5295C138.78 88.8026 139.224 88.1407 139.511 87.4048C139.68 87.1325 139.597 86.7836 139.323 86.6164C139.186 86.533 139.024 86.5155 138.879 86.5497Z" fill="#070D1C"/>
<path d="M134.574 153.891C134.486 153.914 134.429 153.992 134.452 154.078C134.709 155.769 135.614 157.265 136.404 158.754C136.959 159.8 137.457 160.88 137.871 161.988C138.164 162.771 138.41 163.58 138.693 164.366C139.342 166.171 140.101 167.946 140.94 169.671C141.531 170.886 142.202 172.067 142.825 173.266C145.874 179.122 149.406 184.697 152.692 190.422C153.729 192.229 154.71 194.065 155.694 195.9C155.817 196.127 156.098 196.21 156.327 196.088C156.555 195.965 156.638 195.686 156.515 195.459C154.748 192.25 152.89 189.096 150.996 185.959C148.402 181.664 145.761 177.389 143.431 172.945C142.808 171.757 142.269 170.528 141.708 169.31C140.796 167.33 139.898 165.341 139.069 163.324C138.67 162.35 138.352 161.343 137.912 160.385C137.417 159.308 136.738 158.321 136.189 157.271C135.631 156.206 135.198 155.112 134.762 153.998C134.739 153.912 134.661 153.868 134.574 153.891Z" fill="#070D1C"/>
<path d="M156.891 196.825C156.829 196.851 156.798 196.925 156.823 196.986C156.955 197.499 157.125 198.003 157.281 198.509C157.409 198.92 157.5 199.338 157.658 199.738C158.392 201.599 159.321 203.377 160.162 205.19C160.792 206.55 161.352 207.927 161.939 209.306C162.57 210.789 163.308 212.219 163.635 213.808C163.955 215.362 163.558 216.82 163.164 218.325C162.833 219.587 162.529 220.878 162.464 222.186C162.374 223.978 162.642 225.834 163.177 227.544C163.247 227.768 163.402 228.228 163.5 228.44C163.639 228.74 163.822 229.018 163.918 229.335C163.968 229.503 163.992 229.67 164.025 229.843C164.087 229.986 164.244 230.051 164.389 229.99C164.533 229.928 164.612 229.772 164.55 229.629C164.449 229.487 164.323 229.355 164.241 229.201C164.049 228.845 164.069 228.648 163.971 228.266C163.861 227.831 163.71 227.404 163.594 226.97C163.358 226.086 163.188 225.172 163.137 224.258C163.039 222.515 163.33 220.726 163.769 219.046C163.946 218.37 164.136 217.689 164.322 217.015C164.581 216.076 164.856 215.141 164.792 214.156C164.732 213.217 164.419 212.293 164.133 211.403C163.934 210.784 163.753 210.165 163.514 209.559C163.025 208.327 162.409 207.131 161.804 205.952C160.681 203.761 159.689 201.519 158.52 199.351C158.317 198.974 158.054 198.622 157.833 198.255C157.56 197.804 157.316 197.341 157.039 196.892C157.013 196.831 156.952 196.8 156.891 196.825Z" fill="#070D1C"/>
<path d="M164.55 231.299C164.404 231.355 164.331 231.514 164.389 231.659C164.796 232.7 164.889 233.799 164.954 234.906C165.041 236.384 164.989 237.862 165.21 239.329C165.35 240.26 165.545 241.185 166.152 241.934C166.328 242.128 166.617 242.137 166.812 241.961C167.006 241.786 167.028 241.486 166.852 241.293C166.477 240.942 166.309 240.482 166.166 239.997C165.959 239.295 165.88 238.57 165.802 237.846C165.749 237.352 165.675 236.857 165.627 236.363C165.548 235.542 165.507 234.724 165.412 233.904C165.316 233.083 165.221 232.233 164.913 231.459C164.857 231.314 164.696 231.242 164.55 231.299Z" fill="#070D1C"/>
<path d="M169.612 223.506C169.539 223.525 169.499 223.595 169.517 223.667C169.835 225.108 169.951 226.576 170.137 228.036C170.515 231.025 170.96 234.137 170.433 237.135C170.137 238.818 169.487 240.94 167.579 241.358C167.436 241.387 167.347 241.524 167.377 241.665C167.407 241.807 167.544 241.895 167.687 241.865C170.007 241.407 170.753 238.794 170.984 236.761C171.487 232.343 171.028 227.859 169.773 223.6C169.755 223.528 169.683 223.488 169.612 223.506Z" fill="#070D1C"/>
<path d="M152.274 143.59C152.217 143.651 152.227 143.748 152.288 143.804C153.21 144.804 154.185 145.758 155.047 146.811C157.162 149.395 158.928 152.202 160.378 155.202C163.814 162.311 165.423 170.167 166.96 177.85C168.601 186.05 170.168 194.402 173.381 202.169C173.924 203.482 174.545 204.761 175.185 206.03C175.315 206.293 175.633 206.4 175.898 206.271C176.163 206.142 176.271 205.826 176.141 205.563C174.511 202.19 173.151 198.704 172.048 195.127C169.022 185.312 167.712 175.072 164.86 165.21C163.223 159.548 161.025 153.937 157.564 149.109C156.126 147.102 154.429 145.131 152.49 143.59C152.429 143.534 152.331 143.53 152.274 143.59Z" fill="#070D1C"/>
<path d="M177.164 207.539C177.067 207.482 176.939 207.51 176.881 207.606C176.823 207.703 176.851 207.829 176.948 207.887C177.609 208.415 178.455 208.712 178.994 209.384C179.375 209.857 179.562 210.423 179.761 210.987C179.915 211.421 180.078 211.862 180.233 212.296C180.73 213.696 181.222 215.09 181.673 216.505C182.027 217.615 182.394 218.711 182.71 219.832C183.085 221.169 183.388 222.534 183.665 223.894C183.91 225.094 184.17 226.311 184.123 227.542C184.084 228.553 183.857 229.554 183.625 230.535C183.247 232.133 182.716 233.722 182.05 235.225C181.552 236.35 180.953 237.419 180.421 238.526C180.042 239.314 179.729 240.135 179.398 240.944C178.645 242.787 177.895 244.634 176.989 246.409C176.764 246.848 176.532 247.258 176.275 247.678C175.995 248.136 175.806 248.428 175.319 248.667C175.293 248.68 175.234 248.714 175.198 248.707C175.142 248.696 175.086 248.559 175.05 248.52C174.88 248.337 174.758 248.137 174.552 247.986C174.114 247.663 173.631 247.864 173.246 248.159C172.708 248.573 172.357 249.137 172.035 249.723C171.589 250.533 171.266 251.311 170.204 251.326C169.94 251.33 169.672 251.225 169.423 251.152C169.384 251.141 169.394 251.019 169.383 250.939C169.346 250.674 169.36 250.388 169.383 250.124C169.424 249.639 169.537 249.206 169.639 248.734C169.778 248.087 169.902 247.437 170.069 246.797C170.167 246.423 170.265 246.047 170.366 245.674C170.58 244.881 170.821 244.093 171.066 243.309C171.171 242.971 171.304 242.638 171.389 242.293C171.506 241.813 171.527 241.285 171.577 240.797C171.64 240.184 171.714 239.568 171.752 238.953C171.841 237.543 171.767 236.167 171.066 234.904C171.036 234.819 170.95 234.782 170.864 234.811C170.778 234.84 170.726 234.926 170.756 235.011C170.889 235.906 170.762 236.824 170.743 237.724C170.722 238.714 170.707 239.705 170.595 240.69C170.56 240.995 170.514 241.295 170.474 241.599C170.458 241.708 170.435 241.824 170.42 241.933C170.415 241.966 170.411 241.993 170.406 242.026C170.405 242.035 170.408 242.04 170.406 242.053C170.404 242.065 170.404 242.088 170.406 242.08C170.194 242.669 170.017 243.284 169.841 243.884C169.58 244.77 169.318 245.658 169.1 246.556C168.819 247.715 168.599 248.88 168.522 250.07C168.49 250.55 168.455 251.134 168.71 251.567C169.017 252.089 170.38 252.299 170.931 252.208C171.127 252.176 171.32 252.112 171.497 252.021C172.441 251.533 172.732 250.425 173.287 249.602C173.446 249.367 173.635 249.132 173.866 248.961C173.91 248.928 173.965 248.894 174.014 248.867C174.239 249.086 174.41 249.369 174.727 249.469C175.226 249.625 175.851 249.457 176.235 249.121C176.382 248.993 176.483 248.838 176.612 248.694C176.991 248.267 177.309 247.842 177.594 247.344C177.687 247.182 177.774 247.027 177.864 246.863C179.176 244.465 180.033 241.853 181.121 239.354C181.442 238.617 181.846 237.919 182.184 237.189C183.016 235.397 183.648 233.525 184.15 231.618C184.47 230.399 184.797 229.113 184.85 227.849C184.941 225.642 184.413 223.434 183.814 221.329C183.374 219.787 182.892 218.25 182.373 216.732C181.884 215.304 181.355 213.888 180.838 212.47C180.676 212.023 180.506 211.579 180.34 211.134C180.044 210.336 179.737 209.493 179.156 208.849C178.618 208.253 177.899 207.844 177.164 207.539Z" fill="#070D1C"/>
<path d="M176.571 232.848C176.538 232.869 176.523 232.908 176.544 232.941C176.56 233.016 176.595 233.217 176.625 233.289C176.702 233.474 176.875 233.607 176.989 233.77C177.187 234.055 177.324 234.328 177.352 234.678C177.393 235.186 177.336 235.696 177.284 236.202C177.182 237.215 176.952 238.178 176.665 239.154C176.175 240.826 175.588 242.474 174.996 244.112C174.703 244.923 174.307 245.681 173.919 246.45C173.684 246.916 173.376 247.382 173.327 247.906C173.21 248.125 173.282 248.391 173.502 248.508C173.722 248.624 174.004 248.539 174.121 248.321C174.203 248.243 174.308 248.181 174.377 248.094C174.6 247.812 174.801 247.239 174.942 246.918C175.216 246.296 175.442 245.658 175.71 245.034C176.32 243.611 176.9 242.232 177.258 240.718C177.577 239.366 177.695 237.985 177.756 236.603C177.792 235.779 178.003 234.889 177.689 234.091C177.489 233.584 177.092 233.176 176.665 232.861C176.644 232.828 176.604 232.827 176.571 232.848Z" fill="#070D1C"/>
<path d="M179.856 229.869C179.8 229.907 179.778 229.986 179.816 230.042C179.911 230.242 180.13 230.38 180.22 230.577C180.171 230.688 180.192 230.817 180.18 230.938C180.15 231.219 180.149 231.51 180.166 231.793C180.189 232.161 180.301 232.523 180.354 232.888C180.451 233.541 180.522 234.197 180.597 234.853C180.642 235.248 180.674 235.646 180.718 236.042C180.731 236.16 180.747 236.284 180.758 236.402C180.761 236.426 180.756 236.445 180.758 236.469C180.688 236.63 180.671 236.805 180.637 236.977C180.6 237.167 180.578 237.361 180.543 237.551C180.49 237.842 180.39 238.14 180.354 238.433C180.332 238.625 180.407 238.86 180.449 239.048C180.444 239.086 180.465 239.124 180.503 239.128C180.54 239.133 180.579 239.099 180.584 239.062C180.675 238.89 180.827 238.735 180.893 238.554C180.993 238.28 181.04 237.989 181.135 237.712C181.261 237.347 181.437 236.972 181.512 236.589C181.541 236.443 181.505 236.269 181.498 236.122C181.486 235.822 181.472 235.525 181.445 235.227C181.371 234.4 181.289 233.572 181.135 232.755C181.082 232.47 180.967 232.107 180.933 231.819C180.876 231.337 181.007 230.751 180.718 230.323C180.565 230.096 180.226 230.082 180.031 229.909C179.993 229.852 179.913 229.831 179.856 229.869Z" fill="#070D1C"/>
<path d="M182.696 228.424C182.654 228.428 182.626 228.463 182.629 228.504C182.63 229.423 182.627 230.352 182.683 231.27C182.717 231.824 182.789 232.371 182.804 232.927C182.816 233.069 182.943 233.179 183.087 233.167C183.23 233.156 183.341 233.029 183.329 232.887C183.253 232.336 183.225 231.782 183.168 231.23C183.071 230.315 182.928 229.398 182.777 228.491C182.773 228.449 182.738 228.421 182.696 228.424Z" fill="#070D1C"/>
<path d="M85.5863 62.1239C85.5372 62.1384 85.5045 62.182 85.5191 62.2308C85.539 62.5048 85.5338 62.7896 85.5863 63.0594C85.6372 63.3185 85.7418 63.558 85.8289 63.8077C85.9973 64.2926 86.1808 64.7723 86.3673 65.2508C86.8037 66.3693 87.2861 67.475 87.8478 68.5376C88.7442 70.2333 89.9141 71.8111 91.24 73.2012C93.0569 75.1052 95.215 76.6607 97.7147 77.5569C99.2374 78.1025 100.899 78.2594 102.507 78.2252C103.619 78.2013 104.713 78.1217 105.805 77.9045C108.474 77.3735 111.047 76.2327 113.37 74.8443C115.341 73.6668 117.096 72.2117 118.728 70.6087C119.26 70.0854 119.805 69.5569 120.262 68.9651C120.358 68.8411 120.478 68.7193 120.545 68.5777C120.617 68.4238 120.633 68.2601 120.679 68.0967C120.763 68.0014 120.749 67.8586 120.652 67.776C120.556 67.6935 120.412 67.6939 120.329 67.7893C120.173 67.8586 120.001 67.9099 119.858 68.0031C119.73 68.0869 119.632 68.2173 119.522 68.3238C119.203 68.6325 118.913 68.9523 118.606 69.2726C118.115 69.7874 117.615 70.2786 117.085 70.7558C115.106 72.5401 112.937 74.2269 110.543 75.4323C108.091 76.6671 105.283 77.5308 102.507 77.4902C100.963 77.4675 99.4584 77.1597 97.9843 76.7287C97.3235 76.5354 96.6808 76.3182 96.0593 76.0202C93.8659 74.97 91.955 73.3906 90.4595 71.4908C89.0974 69.7604 87.9753 67.7671 87.1211 65.745C86.8278 65.0515 86.5745 64.349 86.3402 63.6337C86.2592 63.3865 86.2027 63.1372 86.0981 62.8991C85.9882 62.6489 85.8276 62.4159 85.694 62.1773C85.6794 62.1286 85.6355 62.1093 85.5863 62.1239Z" fill="#070D1C"/>
<path d="M86.8678 66.3457C86.8002 66.3589 86.7468 66.4256 86.7601 66.4928C86.6921 67.0285 86.7459 67.5724 86.7063 68.1094C86.6662 68.6542 86.6007 69.2267 86.4504 69.7531C85.6182 72.667 83.6841 75.3954 81.3623 77.3293C80.5939 77.9694 79.7332 78.5359 78.845 78.9994C78.6111 79.1213 78.282 79.3176 78.0102 79.3334C77.9051 79.3398 77.8047 79.3099 77.7009 79.2936C77.5484 79.3308 77.4614 79.4762 77.4989 79.6276C77.5364 79.7789 77.6828 79.8785 77.8353 79.8413C78.2781 79.5185 78.8054 79.4698 79.3163 79.2799C79.8637 79.0768 80.3768 78.7976 80.8644 78.4782C82.817 77.1976 84.475 75.4467 85.6699 73.4542C86.3276 72.3574 86.8489 71.1658 87.1103 69.9134C87.3429 68.7978 87.5919 67.5023 87.016 66.4526C87.0026 66.3855 86.9354 66.3329 86.8678 66.3457Z" fill="#070D1C"/>
<path d="M113.143 74.9922C113.044 74.9281 112.911 74.9477 112.847 75.0457C112.713 75.0863 112.571 75.1179 112.456 75.206C112.313 75.3159 112.245 75.531 112.214 75.7003C112.09 76.3712 112.458 76.9599 112.873 77.4508C113.201 77.8382 113.57 78.0951 113.991 78.3726C114.608 78.7806 115.252 79.1384 115.929 79.4416C116.433 79.6674 116.954 79.9034 117.504 79.9761C117.652 80.0287 117.815 79.9491 117.868 79.8025C117.921 79.6558 117.84 79.4942 117.693 79.4416C117.417 79.2676 117.134 79.1491 116.844 79.0008C115.869 78.5005 114.888 77.9186 114.125 77.1301C113.939 76.9373 113.732 76.7573 113.587 76.5289C113.417 76.2613 113.397 75.9966 113.345 75.7003C113.32 75.5588 113.243 75.4288 113.21 75.286C113.275 75.188 113.241 75.0563 113.143 74.9922Z" fill="#070D1C"/>
<path d="M84.2943 81.9127C84.1526 81.84 83.9773 81.9058 83.904 82.0465C83.8308 82.1872 83.8834 82.348 84.0251 82.4207C85.584 83.5097 87.4 84.0425 89.1808 84.6654C90.5088 85.1298 91.8592 85.5287 93.1786 86.0149C94.038 86.3317 94.871 86.7195 95.7093 87.0838C97.2876 87.7701 98.9873 88.7514 99.8958 90.2641C100.174 90.7281 100.346 91.236 100.461 91.7607C100.49 91.9137 100.643 92.0164 100.798 91.9877C100.952 91.9591 101.042 91.8069 101.013 91.6538C100.644 89.3825 98.7517 87.8778 96.8672 86.7631C95.7924 86.1273 94.669 85.636 93.515 85.1597C92.9249 84.9164 92.3485 84.6663 91.7519 84.4384C89.3022 83.5016 86.7716 82.7721 84.2943 81.9127Z" fill="#070D1C"/>
<path d="M117.034 82.8862C116.206 83.2227 115.364 83.5113 114.53 83.8345C113.943 84.0624 113.349 84.2908 112.767 84.5298C110.221 85.5744 107.019 86.9828 106.696 90.0883C106.649 90.5385 106.68 90.94 106.763 91.3843C106.778 91.5168 106.899 91.613 107.033 91.5981C107.166 91.5831 107.263 91.4634 107.248 91.3308C107.228 90.763 107.226 90.1943 107.396 89.647C108.06 87.501 110.545 86.279 112.47 85.5051C112.877 85.3417 113.245 85.2019 113.655 85.0506C114.232 84.8376 114.819 84.6315 115.392 84.4092C116.072 84.1458 116.708 83.838 117.33 83.4608C117.49 83.3804 117.546 83.1778 117.465 83.0196C117.384 82.8614 117.193 82.8058 117.034 82.8862Z" fill="#070D1C"/>
<path d="M87.7286 56.2444C87.7002 56.2474 87.6851 56.2828 87.6881 56.3115C87.673 56.418 87.6803 56.385 87.6747 56.4184C87.6778 56.3906 87.6666 56.4714 87.6614 56.4983C87.661 56.5013 87.6618 56.5223 87.6614 56.5253C87.6467 56.5903 87.6123 56.6459 87.6075 56.7121C87.605 56.7459 87.6011 56.8524 87.6075 56.819C87.6394 56.6497 87.6071 56.8199 87.5938 57.0059C87.5929 57.1072 87.6674 57.1919 87.7691 57.1932C87.8707 57.1944 87.956 57.1072 87.9573 57.0059C87.8746 56.6506 87.9022 56.8139 87.8768 56.6587C87.8664 56.598 87.8987 56.7767 87.944 56.819C87.9694 56.843 87.9461 56.7472 87.944 56.7121C87.9384 56.6193 87.9 56.5561 87.8634 56.4714C87.8522 56.4466 87.8315 56.3645 87.8363 56.3914C87.8725 56.5963 87.8346 56.3987 87.7958 56.2978C87.7928 56.2696 87.757 56.2414 87.7286 56.2444Z" fill="#070D1C"/>
<path d="M87.5129 58.328C87.419 58.2973 87.3151 58.3417 87.2841 58.4349C86.8594 59.5449 86.3085 60.5698 85.6955 61.5883C85.4237 62.0407 85.1622 62.5093 84.834 62.9245C84.5028 63.344 84.1418 63.7446 83.7976 64.1538C83.2273 64.8319 82.6341 65.4908 81.9936 66.1048C81.2661 66.8026 80.4412 67.3846 79.6921 68.0555C79.4987 68.2081 79.4578 68.4916 79.6111 68.6836C79.7649 68.8755 80.0505 68.9029 80.2439 68.7503C81.2454 68.0559 82.0875 67.1447 82.9227 66.2652C83.5525 65.6016 84.1758 64.9213 84.713 64.1807C85.0369 63.7339 85.3048 63.2602 85.615 62.8044C86.5165 61.4793 87.1734 60.0798 87.6206 58.5418C87.652 58.4486 87.6068 58.3593 87.5129 58.328Z" fill="#070D1C"/>
<path d="M78.6951 42.5747C78.6386 42.5448 78.5775 42.5726 78.5469 42.6286C78.0899 43.14 77.9033 43.6839 77.6587 44.312C76.5348 47.196 77.6182 49.9966 78.7761 52.7032C79.1168 53.4998 79.5006 54.2814 79.7991 55.0951C80.1067 55.9335 80.3462 56.7827 80.5663 57.6469C80.6214 57.8551 80.8282 57.9688 81.0375 57.9145C81.2469 57.8598 81.3752 57.6545 81.3201 57.4467C81.1982 57.0042 81.0961 56.5612 80.9565 56.1238C80.6193 55.066 80.1687 54.0112 79.7181 52.9974C78.8949 51.1438 77.9503 49.2864 77.8474 47.2251C77.8013 46.3092 77.871 45.3484 78.1028 44.4591C78.2596 43.8583 78.593 43.3354 78.7489 42.7355C78.7791 42.6795 78.7515 42.6051 78.6951 42.5747Z" fill="#070D1C"/>
<path d="M81.1471 58.7158C81.004 58.7286 80.8916 58.8548 80.9045 58.9967C81.0592 60.9802 81.0592 62.9655 80.622 64.9157C80.4807 65.5472 80.2933 66.1706 80.0564 66.7731C79.9642 67.0083 79.8513 67.231 79.7333 67.4546C79.6752 67.565 79.5735 67.665 79.5584 67.7886C79.5391 67.9515 79.5998 68.1212 79.6256 68.2833C79.5843 68.3555 79.62 68.4419 79.6933 68.4834C79.7661 68.5249 79.8535 68.5026 79.8953 68.4299C80.0521 68.3637 80.2377 68.3414 80.3661 68.2294C80.4712 68.1383 80.4979 67.9818 80.5548 67.8557C80.6116 67.7291 80.6513 67.5966 80.7025 67.4679C80.8585 67.0797 81.0071 66.6953 81.1199 66.2921C81.7906 63.8998 81.6846 61.4027 81.4296 58.9565C81.4167 58.8146 81.2896 58.7034 81.1471 58.7158Z" fill="#070D1C"/>
<path d="M78.5338 42.5749C77.0495 44.0889 77.6417 43.4215 77.0533 44.0851C76.6997 44.4836 77.7593 43.2799 78.063 42.8425C78.1634 42.6972 77.8016 43.0824 77.6723 43.203C77.5431 43.3236 77.4083 43.4399 77.2821 43.5639C76.9069 43.9324 76.4809 44.2741 76.1246 44.6597C76.0036 44.7902 75.6667 45.1904 75.8016 45.0736C76.7367 44.2621 75.799 45.0724 75.5724 45.5949C75.5384 45.6286 75.5384 45.6945 75.5724 45.7287C75.6064 45.7625 75.6594 45.7625 75.6939 45.7287C77.2226 44.2591 76.5605 44.8393 77.2282 44.2587C77.631 43.9085 76.5045 45.0518 76.2185 45.5012C76.1233 45.6513 76.5041 45.2866 76.6359 45.1673C76.7669 45.0484 76.8922 44.9223 77.0128 44.7931C77.3755 44.4053 77.7507 44.0286 78.1164 43.6438C78.2383 43.516 78.6144 43.1414 78.48 43.2564C77.5392 44.0633 78.474 43.2628 78.7492 42.7887C78.8082 42.7305 78.8078 42.6334 78.7492 42.5749C78.6906 42.5167 78.5928 42.5167 78.5338 42.5749Z" fill="#070D1C"/>
<path d="M100.315 39.1953C98.9465 39.7123 97.5146 40.0103 96.0742 40.2378C94.5588 40.4772 92.9232 40.5858 91.4436 40.0907C90.9431 39.9231 90.5416 39.6533 90.0975 39.3826C90.0363 39.33 89.9351 39.3352 89.8821 39.3959C89.8291 39.4566 89.8343 39.5571 89.8955 39.6097C90.611 40.4447 92.0919 40.7611 93.1261 40.8522C95.6387 41.0741 98.206 40.7043 100.516 39.6896C100.653 39.634 100.721 39.478 100.664 39.3424C100.608 39.2069 100.451 39.1398 100.315 39.1953Z" fill="#070D1C"/>
<path d="M95.5349 36.5077C95.3238 36.6278 95.1774 36.7796 94.9831 36.922C93.9562 37.6737 93.1516 38.6742 91.9678 39.2202C91.5827 39.3977 90.6782 39.6517 90.2987 39.3139C90.2745 39.2925 90.1518 39.0958 90.1371 39.0731C90.0023 38.9932 89.8274 39.0462 89.7464 39.18C89.6659 39.3139 89.706 39.4875 89.8408 39.5674C90.3163 39.629 90.779 39.7885 91.2679 39.7414C92.4025 39.6316 93.3717 38.9107 94.2022 38.191C94.5825 37.8622 94.9039 37.5356 95.1851 37.1221C95.3208 36.9224 95.4669 36.7655 95.5754 36.5479C95.5879 36.5346 95.5883 36.5201 95.5754 36.5077C95.5621 36.4953 95.5474 36.4944 95.5349 36.5077Z" fill="#070D1C"/>
<path d="M79.9476 32.5947C79.8218 32.688 79.7999 32.8572 79.8942 32.9821C80.2733 33.2365 80.502 33.6078 80.8362 33.9175C81.4186 34.4569 82.0471 34.9131 82.7613 35.2671C84.4119 36.0859 86.2133 36.4276 88.0242 36.6833C88.769 36.7884 89.5086 36.9137 90.259 36.9774C91.2075 37.0578 92.1621 37.0882 93.1127 37.1378C93.9398 37.181 94.7617 37.246 95.5896 37.2447C95.7877 37.2596 95.9648 37.1074 95.9798 36.9103C95.9953 36.7136 95.8416 36.5516 95.6434 36.5366C94.3585 36.3378 93.0503 36.3745 91.7533 36.3091C89.0081 36.1714 86.1866 36.0829 83.5957 35.0666C82.6101 34.6801 81.6353 34.1657 80.8767 33.4231C80.5812 33.1338 80.4761 33.0509 80.3516 32.6481C80.2577 32.5232 80.0738 32.5013 79.9476 32.5947Z" fill="#070D1C"/>
<path d="M85.2233 30.683C85.0407 30.7645 84.8899 30.8735 84.712 30.9636C84.2864 31.1791 83.8199 31.354 83.3792 31.5382C83.0131 31.6914 82.6586 31.8734 82.289 32.0192C81.5782 32.2997 80.8309 32.4845 80.0814 32.6205C80.0331 32.6247 80.0099 32.6662 80.0142 32.714C80.0181 32.7619 80.0598 32.7984 80.1085 32.7942C80.9054 32.7982 81.6429 32.5598 82.3967 32.3266C83.1117 32.1053 83.8457 31.8497 84.51 31.4981C84.6336 31.4328 84.7473 31.3447 84.8735 31.2843C85.0587 31.1957 85.2504 31.1395 85.4253 31.0305C85.5248 30.9773 85.5597 30.8619 85.5063 30.7632C85.4525 30.6645 85.3228 30.6299 85.2233 30.683Z" fill="#070D1C"/>
<path d="M82.37 28.9345C82.3243 28.9688 82.3084 29.0363 82.3428 29.0815C82.3751 29.495 82.7477 29.7672 83.0561 30.0169C83.8186 30.6336 84.7107 31.055 85.654 31.3263C86.1485 31.4684 86.5422 31.4806 86.8119 30.9923C86.8192 30.9908 86.827 30.9862 86.8252 30.9789C86.824 30.9716 86.8192 30.9642 86.8119 30.9655C86.2954 30.4672 85.6898 30.5413 85.035 30.2975C84.4854 30.0928 83.9241 29.8088 83.4197 29.5091C83.1143 29.3278 82.8576 29.0648 82.5177 28.9613C82.4832 28.916 82.4152 28.9003 82.37 28.9345Z" fill="#070D1C"/>
<path d="M101.566 14.5013C101.511 14.4631 101.442 14.4736 101.404 14.5281C99.7878 16.2755 98.2371 18.0664 96.4099 19.6056C93.5156 22.0436 90.2776 24.0506 87.0009 25.939C85.9722 26.5318 84.9686 27.1668 83.9451 27.7696C83.6488 27.9441 83.3455 28.0914 83.0565 28.2774C82.9104 28.3713 82.7816 28.5077 82.6257 28.5847C82.4663 28.6636 82.2846 28.693 82.1144 28.7451C81.9796 28.8255 81.9391 28.999 82.0201 29.1325C82.1011 29.2661 82.2759 29.3066 82.4103 29.2261C82.5365 29.1007 82.6425 28.9553 82.7872 28.852C82.9281 28.7515 83.1064 28.7073 83.2585 28.6248C83.4093 28.5431 83.5553 28.4447 83.7026 28.3576C84.1441 28.097 84.5878 27.8589 85.0354 27.6093C86.3595 26.8711 87.7017 26.1698 89.0332 25.4447C90.2023 24.8083 91.3377 24.1047 92.4659 23.4003C94.7424 21.9788 96.894 20.3786 98.7523 18.4431C99.2274 17.9483 99.7417 17.4599 100.166 16.9198C100.713 16.2228 101.18 15.4426 101.592 14.6617C101.631 14.6072 101.62 14.5396 101.566 14.5013Z" fill="#070D1C"/>
<path d="M83.0571 34.8927C81.7718 35.6196 80.6264 36.5141 79.5439 37.5116C78.598 38.3826 77.6839 39.3348 77.0132 40.4375C76.1625 41.8366 75.5792 43.5302 75.5728 45.1678C75.5672 45.2256 75.6085 45.2824 75.6671 45.288C75.7253 45.294 75.7826 45.2525 75.7882 45.1948C75.9682 44.3054 76.1254 43.428 76.4881 42.5891C76.7681 41.9426 77.1485 41.3598 77.5517 40.7852C78.2667 39.7662 79.0666 38.8354 79.988 37.9926C81.0434 37.0272 82.2279 36.2032 83.3401 35.3066C83.4547 35.2288 83.4857 35.0731 83.4073 34.9594C83.3289 34.8457 83.1717 34.8149 83.0571 34.8927Z" fill="#070D1C"/>
<path d="M107.046 7.86109C106.325 7.90077 105.585 7.96517 104.879 8.11499C104.194 8.26019 103.527 8.5099 102.859 8.71625C102.487 8.83144 101.918 9.01508 101.554 9.15717C99.072 10.1258 96.8213 11.8449 95.0113 13.767C94.4061 14.4097 93.9 15.143 93.396 15.8648C92.7744 16.7554 92.1825 17.666 91.6596 18.6173C91.0527 19.7215 90.5241 20.898 90.0848 22.0781C89.8715 22.6498 89.7669 23.2759 89.5463 23.8418C89.4727 24.0304 89.3676 24.1951 89.2771 24.3763C89.237 24.5271 89.3271 24.6841 89.4791 24.7237C89.6307 24.7633 89.7888 24.6741 89.8289 24.5233C89.8392 24.3227 89.8349 24.1199 89.8694 23.922C89.9689 23.3466 90.2523 22.7595 90.4483 22.2117C90.8015 21.2237 91.2138 20.2958 91.7001 19.3656C92.3927 18.04 93.1892 16.7661 94.1631 15.6243C94.5823 15.1336 95.041 14.6784 95.4825 14.208C97.1125 12.471 99.035 11.0375 101.217 10.0524C102.014 9.69254 102.822 9.32337 103.68 9.13049C104.099 9.03629 104.602 8.99105 105.026 8.93004C105.951 8.79689 106.862 8.68884 107.8 8.70291C108.322 8.71073 108.745 8.76226 109.267 8.79642C109.774 8.82964 110.274 8.85235 110.774 8.94338C111.572 9.08863 112.35 9.36138 113.143 9.51796C113.399 9.5685 113.777 9.55016 114.032 9.54468C114.139 9.5788 114.253 9.51792 114.288 9.41106C114.322 9.30421 114.261 9.19133 114.153 9.15717C113.962 9.0159 113.627 8.73605 113.399 8.64946C112.616 8.35182 111.745 8.24348 110.922 8.11499C110.395 8.03268 109.865 7.91398 109.334 7.86109C108.579 7.78592 107.802 7.8194 107.046 7.86109Z" fill="#070D1C"/>
<path d="M121.745 12.8724C121.585 12.9499 121.519 13.1408 121.597 13.3C121.663 13.6117 121.745 13.9229 121.894 14.2086C122.198 14.7939 122.761 15.2162 123.32 15.5448C124.484 16.2287 125.8 16.4829 127.076 16.881C130.194 17.8539 133.806 19.0342 135.623 21.9585C136.368 23.1554 136.632 24.5383 136.822 25.9136C136.939 26.7627 137.019 27.625 137.091 28.479C137.203 29.8226 137.286 31.1664 137.32 32.5143C137.371 34.5572 137.317 36.604 137.36 38.6474C137.377 39.4264 137.425 40.2063 137.441 40.9858C137.474 42.6247 137.531 44.2653 137.602 45.903C137.617 46.2455 137.636 46.5772 137.67 46.9185C137.505 46.8441 137.34 46.7756 137.185 46.6777C136.851 46.4674 136.513 46.2685 136.176 46.0633C135.694 45.77 135.208 45.4617 134.735 45.1547C134.582 45.0551 134.447 44.9294 134.278 44.8605C134.109 44.7921 133.918 44.7857 133.739 44.7536C133.715 44.7387 133.687 44.7429 133.672 44.7673C133.657 44.7913 133.661 44.8323 133.685 44.8473C133.793 44.9905 133.878 45.1521 134.008 45.2748C134.14 45.3984 134.316 45.4685 134.466 45.5686C134.782 45.7794 135.082 46.009 135.395 46.2236C135.825 46.5187 136.249 46.8488 136.714 47.0921C137.006 47.2447 137.749 47.6081 138.033 47.2789C138.18 47.1087 138.118 46.812 138.1 46.6243C138.065 46.2416 138.019 45.8598 138.006 45.4754C137.956 43.9797 137.99 42.481 138.02 40.9858C138.035 40.2068 138.094 39.426 138.114 38.6474C138.161 36.8028 138.108 34.9591 138.074 33.1156C138.055 32.1128 138.062 31.1119 138.033 30.1091C137.965 27.754 137.907 25.1607 137.145 22.9071C136.926 22.2593 136.602 21.6411 136.216 21.0765C134.69 18.8461 132.135 17.6157 129.633 16.7741C128.88 16.5206 128.11 16.3113 127.359 16.0525C126.662 15.8129 126.011 15.522 125.353 15.1973C124.553 14.8032 123.823 14.4095 123.132 13.8478C122.801 13.579 122.476 13.3373 122.189 13.0194C122.112 12.8602 121.906 12.795 121.745 12.8724Z" fill="#070D1C"/>
<path d="M111.985 1.06005C109.478 1.24054 107.308 2.43079 106.465 4.9216C106.321 5.34858 106.209 5.88408 106.237 6.33796C106.244 6.45994 106.342 6.82963 106.371 6.9526C106.457 7.32314 106.551 7.63463 106.802 7.92799C106.877 8.02946 107.023 8.04344 107.125 7.9681C107.227 7.89276 107.241 7.74884 107.165 7.64742C107.028 7.42918 106.927 7.12962 106.909 6.87243C106.893 6.6199 106.945 6.60314 106.977 6.35134C107.016 6.04344 107.048 5.78364 107.139 5.4828C107.269 5.04744 107.428 4.65171 107.677 4.26689C108.873 2.41296 110.864 1.97199 112.94 1.982C115.827 1.99594 118.696 2.67626 121.434 3.53197C122.911 3.99359 124.369 4.51737 125.782 5.14873C126.45 5.44744 127.132 5.7609 127.76 6.13755C128.205 6.40367 128.623 6.71769 129.053 7.00605C129.702 7.44124 130.345 7.86266 130.951 8.35557C131.716 8.97864 132.645 9.7313 133.118 10.6137C133.289 10.933 133.462 11.28 133.562 11.6292C133.889 12.7638 133.719 14.0057 133.401 15.1167C133.228 15.7188 132.986 16.4786 132.634 17.0007C132.488 17.2171 132.288 17.4131 132.108 17.602C131.913 17.8263 131.937 18.1559 132.162 18.3502C132.388 18.5446 132.734 18.5211 132.93 18.2968C133.616 17.448 134.315 16.572 134.707 15.5443C135.234 14.1588 135.167 12.6798 134.747 11.2818C134.469 10.3581 134.09 9.4822 133.468 8.7297C132.796 7.91482 131.94 7.25302 131.072 6.65864C130.186 6.05131 129.26 5.60893 128.286 5.16212C127.595 4.84511 126.908 4.50809 126.213 4.20006C123.323 2.92062 120.301 1.93385 117.18 1.39408C115.469 1.09819 113.721 0.934903 111.985 1.06005Z" fill="#070D1C"/>
<path d="M117.168 11.7488C116.966 11.8111 116.762 11.8387 116.575 11.9358C116.262 12.0987 116.029 12.3808 115.768 12.6173C115.559 12.8062 115.273 13.0638 115.068 13.2586C114.295 13.99 113.596 14.8103 113.129 15.7706C112.775 16.4986 112.542 17.2835 112.308 18.0555C112.118 18.6828 111.872 19.3538 111.797 20.0063C111.774 20.2037 111.788 20.4091 111.783 20.6076C111.772 20.65 111.808 20.6904 111.85 20.7011C111.893 20.7119 111.934 20.6901 111.945 20.6477C112.036 20.4715 112.138 20.2966 112.214 20.1132C112.52 19.3721 112.659 18.5585 112.927 17.8016C113.218 16.9822 113.611 16.2062 114.085 15.4767C114.581 14.714 115.169 14.0136 115.808 13.3655C116.037 13.1334 116.282 12.9054 116.522 12.684C116.653 12.5626 116.808 12.4688 116.912 12.3233C117.033 12.1534 117.09 11.9497 117.181 11.7621C117.185 11.7588 117.184 11.7525 117.181 11.7488C117.178 11.745 117.172 11.7455 117.168 11.7488Z" fill="#070D1C"/>
<path d="M129.9 54.1602C129.922 54.3222 129.905 54.4855 129.954 54.6412C130.033 54.8896 130.231 55.0893 130.372 55.3095C130.673 55.782 131.016 56.2262 131.274 56.7256C132.058 58.2495 132.42 60.112 131.946 61.7766C131.856 62.0934 131.77 62.4338 131.61 62.7254C131.447 63.0213 131.2 63.2881 130.977 63.5404C130.938 63.5763 130.941 63.6485 130.977 63.6875C131.013 63.7259 131.073 63.7234 131.112 63.6875C133.369 62.0011 132.97 58.6784 132 56.3917C131.698 55.6793 131.37 54.9644 130.762 54.4543C130.65 54.3598 130.551 54.2482 130.412 54.2003C130.251 54.1448 130.071 54.1743 129.9 54.1602Z" fill="#070D1C"/>
<path d="M135.299 45.9288C135.05 45.9459 134.865 46.1622 134.882 46.4098C134.934 47.3069 135.009 48.1975 135.031 49.0954C135.045 49.7052 135.027 50.3166 135.044 50.9263C135.069 51.8319 135.106 52.7328 135.071 53.6389C135.038 54.5056 134.916 55.3582 134.815 56.2176C134.707 57.1318 134.606 58.0122 134.357 58.9032C133.831 60.7893 133.175 62.5073 131.181 63.2192C131.069 63.2538 130.997 63.3753 131.032 63.4864C131.067 63.5976 131.19 63.6545 131.302 63.6199C133.339 63.076 134.528 60.9958 135.071 59.1038C135.33 58.202 135.544 57.2532 135.677 56.3245C135.822 55.3039 135.851 54.2529 135.905 53.2246C135.946 52.4566 136.005 51.6819 136.013 50.9126C136.028 49.3922 135.906 47.8584 135.784 46.3431C135.767 46.0955 135.549 45.9121 135.299 45.9288Z" fill="#070D1C"/>
<path d="M125.944 53.8248C125.866 53.8094 125.798 53.8671 125.782 53.9449C125.599 54.4824 125.48 55.0293 125.284 55.562C124.823 56.8165 124.15 58.1352 123.238 59.1293C122.934 59.4611 122.587 59.8216 122.215 60.0781C121.84 60.3376 121.431 60.5313 121.057 60.7999C121.038 60.8054 121.025 60.8204 121.031 60.8396C121.036 60.8589 121.065 60.8721 121.084 60.8665C121.406 60.8768 121.514 60.9097 121.825 60.7999C121.982 60.7438 122.319 60.5271 122.457 60.439C122.9 60.1576 123.281 59.8562 123.629 59.4632C124.599 58.3652 125.246 57.0953 125.688 55.7087C125.869 55.1421 126.024 54.5936 126.065 53.9984C126.08 53.9205 126.022 53.8402 125.944 53.8248Z" fill="#070D1C"/>
<path d="M125.515 59.7587C124.483 59.9686 123.511 60.3816 122.486 60.6138C122.21 60.6762 121.88 60.7643 121.597 60.7609C121.402 60.7583 121.282 60.7177 121.086 60.7609C121.008 60.7382 120.934 60.7771 120.911 60.8541C120.888 60.9315 120.928 61.0187 121.005 61.0414C121.232 61.2466 121.466 61.2325 121.759 61.2817C122.61 61.4249 123.512 61.1047 124.276 60.7609C124.526 60.6484 124.77 60.5176 125.003 60.3735C125.29 60.1952 125.324 60.1602 125.595 59.9724C125.654 59.9472 125.688 59.8703 125.663 59.8121C125.637 59.754 125.573 59.7334 125.515 59.7587Z" fill="#070D1C"/>
<path d="M124.678 60.1986C124.546 60.114 124.373 60.1482 124.288 60.279C124.246 60.4607 124.236 60.6536 124.167 60.8267C124.039 61.1453 123.788 61.4044 123.628 61.7084C123.399 62.1467 123.208 62.6089 123.076 63.0848C122.409 65.4989 123.05 67.9985 124.853 69.7524C125.07 69.9641 125.419 70.2856 125.688 70.434C125.853 70.5251 126.037 70.5777 126.213 70.6478C126.294 70.7042 126.411 70.6756 126.468 70.5943C126.525 70.5127 126.51 70.3968 126.428 70.3404C125.871 69.7268 125.191 69.2462 124.678 68.5899C123.297 66.8231 123.012 64.8763 123.588 62.7376C123.713 62.2702 123.866 61.8003 124.072 61.3612C124.144 61.2081 124.203 61.0478 124.314 60.9204C124.437 60.781 124.609 60.6968 124.759 60.5864C124.844 60.4552 124.81 60.2833 124.678 60.1986Z" fill="#070D1C"/>
<path d="M128.058 60.7206C128.037 60.7099 128.015 60.7141 128.004 60.7338C127.314 61.3628 126.935 62.2975 126.604 63.1526C126.01 64.6846 125.505 66.4138 125.554 68.0698C125.57 68.6145 125.66 69.1652 125.823 69.6864C125.836 69.7271 125.932 70.0105 125.958 70.0469C126.041 70.1666 126.173 70.2192 126.294 70.2876C126.319 70.3295 126.373 70.3522 126.416 70.3278C126.457 70.303 126.467 70.2491 126.442 70.2077C126.444 70.138 126.461 69.8955 126.442 69.8199C126.415 69.7117 126.335 69.6167 126.294 69.5124C126.207 69.2888 126.165 69.0707 126.133 68.8313C126.023 68.0296 126.096 67.1778 126.24 66.386C126.455 65.2046 126.876 64.0783 127.317 62.9653C127.601 62.2509 127.956 61.5372 128.071 60.774C128.082 60.7539 128.078 60.7312 128.058 60.7206Z" fill="#070D1C"/>
<path d="M131.773 63.393C131.758 63.4028 131.749 63.4178 131.759 63.4332C131.79 63.7312 131.778 64.0292 131.8 64.3285C131.807 64.4286 131.836 64.5607 131.826 64.6625C131.809 64.8416 131.722 65.0028 131.665 65.17C131.465 65.7536 131.217 66.2954 130.898 66.8269C129.964 68.3807 128.753 69.7263 127.613 71.1296C126.561 72.4243 125.49 73.7169 124.517 75.071C124.252 75.44 123.972 75.8052 123.737 76.1938C123.211 77.0601 122.844 78.0068 122.511 78.9594C121.944 80.5846 121.561 82.2877 121.488 84.0104C121.382 86.5335 121.969 89.0272 124.019 90.6913C125.174 91.629 126.443 91.7962 127.815 92.2143C127.97 92.2408 128.125 92.1275 128.152 91.974C128.178 91.8201 128.078 91.6799 127.923 91.6533C125.923 91.5755 123.889 90.0957 123.023 88.3529C122.556 87.4135 122.375 86.3291 122.309 85.2931C122.203 83.6268 122.515 81.9597 122.969 80.3627C123.332 79.0864 123.825 77.8062 124.53 76.6744C124.904 76.0754 125.382 75.5392 125.823 74.991C126.347 74.3407 126.875 73.6809 127.411 73.04C128.4 71.8586 129.364 70.6887 130.292 69.4595C130.563 69.0999 130.85 68.7381 131.099 68.3636C131.301 68.0621 131.559 67.6346 131.746 67.3216C132.091 66.7422 132.442 66.0346 132.526 65.3573C132.555 65.1242 132.526 64.8942 132.513 64.6625C132.477 64.042 132.368 63.7415 131.813 63.4062C131.803 63.3913 131.788 63.3831 131.773 63.393Z" fill="#070D1C"/>
<path d="M119.968 69.0056C119.836 68.92 119.664 68.9555 119.577 69.0855C119.418 69.3322 119.241 69.5866 119.106 69.8475C118.973 70.1057 118.901 70.4012 118.81 70.6757C118.616 71.2602 118.468 71.8545 118.325 72.4531C118.131 73.2685 117.954 74.0801 117.841 74.9117C117.682 76.0768 117.601 77.2642 117.558 78.4392C117.54 78.9309 117.519 79.4167 117.531 79.9088C117.546 80.4899 117.616 80.814 117.666 81.3921C117.85 83.5265 118.066 85.6384 118.837 87.6587C119.065 88.2581 119.299 88.8503 119.618 89.4092C120.502 90.9604 121.944 92.2081 123.724 92.5891C124.37 92.7276 125.029 92.7554 125.689 92.7229C126.453 92.6849 127.215 92.4732 127.937 92.2286C128.1 92.1773 128.19 92.0033 128.139 91.8408C128.087 91.6788 127.912 91.5894 127.748 91.6403C126.856 91.896 125.938 92.1175 125.002 92.1217C124.523 92.1234 124.038 92.0683 123.575 91.9477C120.537 91.1588 119.115 87.6732 118.608 84.9196C118.523 84.4578 118.46 83.9947 118.393 83.53C118.29 82.8185 118.206 82.0848 118.191 81.3651C118.18 80.8786 118.227 80.3958 118.231 79.9088C118.236 79.4261 118.217 78.9348 118.231 78.4525C118.266 77.298 118.377 76.1495 118.527 75.0049C118.738 73.4036 118.965 71.7746 119.631 70.2883C119.77 69.9779 119.855 69.6786 120.048 69.3929C120.135 69.2625 120.099 69.0911 119.968 69.0056Z" fill="#070D1C"/>
<path d="M99.2648 69.6335C99.1554 69.7451 99.1524 69.9256 99.2648 70.0342C99.7972 70.2668 100.239 70.6884 100.772 70.9428C101.543 71.3101 102.425 71.5572 103.276 71.6376C103.605 71.6688 103.93 71.6282 104.259 71.6376C104.931 71.6573 105.68 71.7098 106.251 71.3169C106.277 71.3113 106.284 71.2891 106.278 71.2635C106.272 71.2382 106.25 71.2177 106.224 71.2233C105.578 71.1198 104.927 71.2883 104.272 71.2771C103.951 71.2712 103.661 71.1882 103.344 71.1433C102.62 71.0411 101.908 70.9231 101.217 70.6755C100.777 70.5178 100.353 70.3305 99.9782 70.0474C99.911 69.9965 99.827 69.9546 99.7766 69.8875C99.7223 69.8148 99.7059 69.716 99.6689 69.6335C99.5564 69.5245 99.3747 69.5219 99.2648 69.6335Z" fill="#070D1C"/>
<path d="M93.6103 65.9041C93.5013 65.8549 93.3639 65.9028 93.3144 66.011C93.2649 66.1192 93.3131 66.2423 93.4221 66.2915C93.961 66.4351 94.4408 66.684 94.9702 66.8529C95.326 66.9662 95.6947 67.0427 96.0605 67.1201C97.2648 67.375 98.4959 67.472 99.6947 67.7482C100.01 67.8205 100.357 67.9005 100.651 68.0552C101.096 68.2913 101.484 68.638 101.997 68.7235C102.721 68.8437 103.447 68.4383 104.164 68.5632C104.376 68.6 104.633 68.7479 104.823 68.8304C105.311 69.0408 105.83 69.2131 106.358 69.2845C108.02 69.5103 109.697 69.0494 111.231 68.4563C111.849 68.2173 112.493 67.9381 112.94 67.4408C112.939 67.4378 112.943 67.4258 112.94 67.4276C112.17 67.4477 111.428 67.8124 110.706 68.0552C109.798 68.3614 108.824 68.5713 107.866 68.6432C107.075 68.7026 106.194 68.6119 105.443 68.3494C105.053 68.213 104.722 67.9569 104.312 67.8684C103.759 67.7487 103.203 67.8949 102.656 67.962C102.486 67.9826 102.29 68.0168 102.118 67.9885C101.569 67.8983 101.172 67.4455 100.637 67.3207C100.356 67.2548 100.051 67.298 99.7619 67.2805C99.5414 67.2668 99.3221 67.2386 99.1024 67.2138C97.7352 67.0577 96.4068 66.8649 95.0779 66.5053C94.7363 66.4129 94.3723 66.3663 94.0544 66.2115C93.8933 66.1328 93.7594 66.0041 93.6103 65.9041Z" fill="#070D1C"/>
<path d="M100.341 58.7694C100.228 58.807 100.169 58.9366 100.207 59.0499C100.387 59.483 100.521 59.9337 100.718 60.3591C101.036 61.045 101.549 61.6667 102.132 62.1498C102.387 62.3606 102.717 62.4598 103.034 62.5372C104.042 62.7839 104.967 62.3568 105.793 61.8155C106.197 61.5512 106.487 61.3066 106.722 60.8804C106.797 60.8149 106.801 60.7008 106.735 60.6264C106.67 60.552 106.568 60.5477 106.493 60.6131C106.018 60.7901 105.659 61.0967 105.228 61.3481C104.636 61.6932 103.869 61.9134 103.182 61.8155C102.941 61.7817 102.719 61.6479 102.495 61.5619C102.216 61.4546 102.041 61.3404 101.836 61.1211C101.56 60.8269 101.339 60.4776 101.136 60.1321C100.899 59.7314 100.727 59.353 100.611 58.9028C100.573 58.7899 100.456 58.7313 100.341 58.7694Z" fill="#070D1C"/>
<path d="M119.483 44.7118C119.065 44.7772 118.642 44.7909 118.231 44.8858C118.018 44.9345 117.821 45.0389 117.611 45.0996C117.007 45.2749 116.376 45.407 115.767 45.5669C115.17 45.7243 114.559 45.8324 113.963 45.9945C113.364 46.1578 112.8 46.346 112.186 46.4623C111.978 46.4858 111.827 46.6692 111.85 46.8766C111.873 47.084 112.072 47.2341 112.281 47.2105C112.912 47.1883 113.565 47.208 114.192 47.1306C114.612 47.0788 115.018 46.9651 115.431 46.8766C116.038 46.7462 116.649 46.6205 117.262 46.5157C118.057 46.3797 118.881 46.3319 119.684 46.2485C120.114 46.1929 120.414 45.8068 120.357 45.3801C120.301 44.9533 119.912 44.6562 119.483 44.7118Z" fill="#070D1C"/>
<path d="M98.1065 39.8758C97.96 39.8835 97.808 39.9463 97.7024 40.0631C97.4914 40.2961 97.5211 40.6548 97.7563 40.8643C97.8291 41.029 97.8592 41.2184 97.9717 41.359C98.0729 41.4856 98.2331 41.5412 98.3619 41.6395C98.7548 41.9388 99.164 42.2125 99.5603 42.5079C100.488 43.1998 101.388 43.9386 102.279 44.6728C102.371 44.7583 102.516 44.7506 102.602 44.6595C102.689 44.568 102.681 44.4244 102.589 44.3388C102.363 44.1011 102.107 43.8886 101.889 43.6436C101.779 43.5205 101.697 43.3849 101.593 43.2562C101.178 42.7435 100.725 42.2484 100.314 41.7332C99.9958 41.3342 99.7171 40.934 99.3716 40.5573C99.2579 40.4329 99.1778 40.273 99.0352 40.1832C98.8827 40.0866 98.6824 40.0772 98.5101 40.0229C98.3925 39.9177 98.2525 39.8681 98.1065 39.8758Z" fill="#070D1C"/>
<path d="M122.027 49.3221C121.87 49.2922 121.712 49.3195 121.57 49.4153C121.067 49.7475 120.491 50.0139 119.9 50.1503C118.838 50.3957 117.778 50.1819 116.71 50.1772C116.545 50.1764 116.377 50.2136 116.212 50.2174C115.543 50.232 114.875 50.1593 114.206 50.2439C113.861 50.288 113.55 50.4 113.223 50.5112C112.978 50.595 112.735 50.6459 112.497 50.7519C112.006 50.9695 111.515 51.3103 111.11 51.6601C110.869 51.8687 110.703 52.133 110.491 52.3686C110.398 52.4721 110.414 52.6234 110.518 52.7158C110.623 52.8081 110.775 52.8064 110.868 52.7025C110.999 52.5563 111.156 52.434 111.312 52.3151C111.521 52.1565 111.701 51.9692 111.918 51.8209C112.321 51.5455 112.924 51.2971 113.412 51.2325C114.136 51.1376 114.925 51.1829 115.647 51.2462C116.137 51.2889 116.595 51.4202 117.087 51.46C118.976 51.6122 120.676 51.5357 122.269 50.4445C122.555 50.2521 122.625 49.8591 122.431 49.5761C122.334 49.4341 122.184 49.3516 122.027 49.3221Z" fill="#070D1C"/>
<path d="M122.362 49.657C122.173 49.5998 121.963 49.6964 121.905 49.8841C121.82 50.0453 121.755 50.2296 121.649 50.3784C121.544 50.5272 121.387 50.6281 121.286 50.7794C121.103 51.0522 121.02 51.3704 120.868 51.6611C120.567 52.2388 120.191 52.7903 119.791 53.3047C119.584 53.5724 119.373 53.8422 119.145 54.0932C119.029 54.221 118.888 54.3177 118.782 54.4541C118.664 54.605 118.572 54.785 118.472 54.9483C118.403 55.0001 118.393 55.0929 118.446 55.1621C118.498 55.2314 118.591 55.2541 118.661 55.2023C118.852 55.1497 119.06 55.1245 119.24 55.042C119.58 54.8859 119.859 54.6285 120.155 54.4006C120.9 53.8264 121.515 53.102 121.999 52.3025C122.098 52.1404 122.182 51.9638 122.268 51.7949C122.355 51.6243 122.469 51.4606 122.511 51.2737C122.555 51.0749 122.51 50.8761 122.524 50.6725C122.537 50.4814 122.569 50.2882 122.591 50.0979C122.649 49.9102 122.552 49.7143 122.362 49.657Z" fill="#070D1C"/>
<path d="M92.7086 42.4683C92.5621 42.4525 92.4148 42.4901 92.2912 42.5889C92.0431 42.7865 91.9978 43.1443 92.1968 43.3906C92.588 44.3574 93.8281 44.7242 94.687 45.1274C95.8927 45.694 97.0941 46.3255 98.1736 47.105C98.6844 47.474 99.0407 47.8669 99.3853 48.3877C99.4792 48.5301 99.592 48.649 99.6407 48.8153C99.7389 49.1497 99.6842 49.5289 99.6945 49.871C99.664 49.9929 99.7471 50.1075 99.8694 50.1382C99.9922 50.169 100.108 50.0998 100.139 49.9779C100.416 49.4669 100.346 48.9821 100.22 48.4412C99.9534 47.303 98.7874 46.4482 97.8638 45.8359C97.5714 45.6418 97.2763 45.4421 96.9756 45.2613C96.6758 45.0804 96.376 44.903 96.0736 44.7268C95.6411 44.475 95.2173 44.2419 94.8081 43.9516C94.2317 43.5424 93.72 43.0246 93.0988 42.6821C92.9993 42.5594 92.8546 42.4846 92.7086 42.4683Z" fill="#070D1C"/>
<path d="M92.7903 42.6673C92.456 42.5994 92.1321 42.8033 92.0636 43.1351C92.2419 45.2178 92.3048 44.4302 92.2385 45.2196C92.1877 45.8237 92.0584 44.0211 91.8749 43.4425C91.8383 43.3271 91.8039 43.6713 91.7806 43.7897C91.7328 44.0339 91.7461 44.2896 91.7539 44.538C91.7616 44.7916 91.7444 45.049 91.7806 45.2999C91.8327 45.6578 91.946 46.0354 92.0498 46.3821C92.0834 46.4942 92.1179 46.6058 92.1575 46.7161C92.1959 46.8225 92.2816 47.1496 92.279 47.0368C92.2441 45.7378 92.2773 47.0312 92.4134 47.304C92.4832 47.5007 92.6994 47.6003 92.898 47.5311C93.0961 47.4618 93.2103 47.2471 93.1405 47.05C93.2081 45.2161 93.3434 45.9229 93.2077 45.2196C93.1082 44.7039 93.1465 46.2744 93.0862 46.7965C93.0759 46.8867 93.0655 46.6066 93.0595 46.5156C93.047 46.3249 93.0483 46.1046 93.0595 45.9144C93.091 45.3765 93.1974 44.8403 93.2882 44.311C93.3012 44.2353 93.296 44.1604 93.3016 44.0839C93.3029 43.9048 93.3037 43.5464 93.2749 43.3891C93.3434 43.0573 93.1246 42.7353 92.7903 42.6673ZM93.3016 44.0839C93.3037 44.0565 93.3132 44.0309 93.3154 44.0035C93.3227 43.9039 93.3348 43.5965 93.3287 43.6965C93.2956 44.2549 93.3007 44.2631 93.3016 44.0839Z" fill="#070D1C"/>
<path d="M114.357 52.5339C114.357 51.6155 115.109 50.8711 116.036 50.8711C116.963 50.8711 117.715 51.6155 117.715 52.5339C117.715 53.4524 116.963 54.1972 116.036 54.1972C115.109 54.1972 114.357 53.4524 114.357 52.5339Z" fill="#070D1C"/>
<path d="M94.6543 47.3234C94.6543 46.405 95.406 45.6602 96.3329 45.6602C97.2599 45.6602 98.0116 46.405 98.0116 47.3234C98.0116 48.2419 97.2599 48.9863 96.3329 48.9863C95.406 48.9863 94.6543 48.2419 94.6543 47.3234Z" fill="#070D1C"/>
<path d="M49.5 187C49.5 187 72.3618 205.5 105 205.5C138.5 205.5 155 195.5 155 195.5" stroke="white" stroke-width="12"/>
</g>
<defs>
<radialGradient id="paint0_radial_2176_1759" cx="0" cy="0" r="1" gradientUnits="userSpaceOnUse" gradientTransform="translate(176.734 234.342) scale(7.83563 7.77787)">
<stop stop-color="#DEA88E"/>
<stop offset="1" stop-color="#F5E8D6"/>
</radialGradient>
<radialGradient id="paint1_radial_2176_1759" cx="0" cy="0" r="1" gradientUnits="userSpaceOnUse" gradientTransform="translate(94.4177 55.3229) scale(7.27677 7.22313)">
<stop stop-color="#DEA88E"/>
<stop offset="1" stop-color="#F5E8D6"/>
</radialGradient>
<radialGradient id="paint2_radial_2176_1759" cx="0" cy="0" r="1" gradientUnits="userSpaceOnUse" gradientTransform="translate(114.536 61.4858) scale(8.21784 8.15726)">
<stop stop-color="#DEA88E"/>
<stop offset="1" stop-color="#F5E8D6"/>
</radialGradient>
<radialGradient id="paint3_radial_2176_1759" cx="0" cy="0" r="1" gradientUnits="userSpaceOnUse" gradientTransform="translate(109.616 180.122) scale(22.3869 22.2219)">
<stop stop-color="#DEA88E"/>
<stop offset="1" stop-color="#F5E8D6"/>
</radialGradient>
<clipPath id="clip0_2176_1759">
<rect width="204" height="253" fill="white"/>
</clipPath>
</defs>
</svg>
