<?xml version="1.0" encoding="UTF-8"?>
<svg id="Ebene_1" data-name="Ebene 1" xmlns="http://www.w3.org/2000/svg" xmlns:xlink="http://www.w3.org/1999/xlink" viewBox="0 0 197.59 220">
  <defs>
    <style>
      .cls-1 {
        fill: none;
      }

      .cls-2 {
        clip-path: url(#clippath);
      }

      .cls-3 {
        mask: url(#mask);
      }

      .cls-4 {
        fill: #f5e8d6;
      }

      .cls-5 {
        fill: #e3caba;
      }

      .cls-6 {
        fill: #fff;
      }

      .cls-7 {
        fill: #fff7f7;
      }

      .cls-8 {
        fill: #a05b52;
      }

      .cls-9 {
        fill: #b69c65;
      }

      .cls-10 {
        fill: #c46b57;
      }

      .cls-11 {
        fill: #e0bd6f;
      }

      .cls-12 {
        fill: #070d1c;
      }

      .cls-13 {
        opacity: .69;
      }

      .cls-13, .cls-14 {
        fill: #bfc4c6;
      }

      .cls-13, .cls-14, .cls-15, .cls-16, .cls-17 {
        isolation: isolate;
      }

      .cls-14 {
        opacity: .69;
      }

      .cls-15 {
        fill: url(#Unbenannter_Verlauf_3);
      }

      .cls-15, .cls-16 {
        opacity: .52;
      }

      .cls-16 {
        fill: url(#Unbenannter_Verlauf_2);
      }

      .cls-17 {
        fill: url(#Unbenannter_Verlauf);
        opacity: .67;
      }
    </style>
    <clipPath id="clippath">
      <rect class="cls-1" width="197.59" height="220"/>
    </clipPath>
    <radialGradient id="Unbenannter_Verlauf" data-name="Unbenannter Verlauf" cx="-175.03" cy="494.86" fx="-175.03" fy="494.86" r="1.01" gradientTransform="translate(1652.91 4400.54) scale(8.62 -8.63)" gradientUnits="userSpaceOnUse">
      <stop offset="0" stop-color="#dea88e"/>
      <stop offset="1" stop-color="#f5e8d6"/>
    </radialGradient>
    <radialGradient id="Unbenannter_Verlauf_2" data-name="Unbenannter Verlauf 2" cx="-186.39" cy="511.61" fx="-186.39" fy="511.61" r="1" gradientTransform="translate(3279.59 8439.06) rotate(-1.46) scale(16.36 -16.39)" gradientUnits="userSpaceOnUse">
      <stop offset="0" stop-color="#dea88e"/>
      <stop offset="1" stop-color="#f5e8d6"/>
    </radialGradient>
    <radialGradient id="Unbenannter_Verlauf_3" data-name="Unbenannter Verlauf 3" cx="-144.09" cy="446.34" fx="-144.09" fy="446.34" r="1" gradientTransform="translate(606.87 1669.65) scale(3.67 -3.68)" gradientUnits="userSpaceOnUse">
      <stop offset="0" stop-color="#dea88e"/>
      <stop offset="1" stop-color="#f5e8d6"/>
    </radialGradient>
    <mask id="mask" x="-1.82" y="-2.73" width="202.59" height="224.1" maskUnits="userSpaceOnUse">
      <g id="A">
        <path class="cls-6" d="m200.77-2.73H-1.82v224.1h202.59V-2.73Z"/>
      </g>
    </mask>
  </defs>
  <g class="cls-2">
    <g>
      <path class="cls-4" d="m121.33,142.35c3.02-.02,9.11-.26,12.13-.47,0,0-1.33,5.67.26,14.67,1.71,8.19,9.74,32.54,9.68,37.52,3,4.67,8.01,4.29,11.57.78-.86-.08-3.6-22.09-2.88-22.18l9.86,19.9s1.51,2.29,6.31.91c2.65-.76,3.93-.66,4.38-1.38-.4-7.37-7.05-11.74-11.55-31.08-2.63-10.9-5.71-27.69-5.71-27.69-4.59-10.76-12.85-14.02-21.97-15.56-11.2.25-12.13,18.06-12.09,24.59h0Zm-81.74-55.3l15.79,4.08,3.47,18.99-6.11,17.15-.4,7.71s1.42,4.2.19,4.2l-21.07-.12,2.34-3.87s8.15-2.29,9.13-4.47c1.96-4.37,2.33-21.4,2.33-21.4-.98.32-12.32,20.28-11.88,19.96.26.82.9,10.28-2.93,10.05,0,0-28.92-.65-28.92-.65-2.92-5.5,7.86-3.48,13.16-5.01,5.88-1.26,9.65-3.39,9.65-3.39-.68.94,9.21-33.04,12-34.38,0,0,3.23-8.85,3.24-8.85Zm43.35-24.83s-6.37-8.19-7.29-9.85c-.27-.49-1.59-.21-1.59-.21-1.3-1.24-1.91-10.77-.98-12.07,2.14,1.24,7.99,2.22,9.25,1.05.46-.65.98-4.86.98-4.86l-.5-.86.71-1.07-.96-3.45c.71-.33,3.06-1.56,2.18-3.28-1.09-.68-1.72-3.57-2.12-4.91.56-1.91.23-7.31-.98-8.71l-19.11,8.28-7.53,16.68c1.25,1.41,1.61,7.11.16,8.64l19.6,15.28,6.15.92,2.07-1.58h0Z"/>
      <path class="cls-5" d="m133.25,142.04l-11.92-.08,1.71-7.76c-.24.75,15.68,5.27,15.88,4.37-3.05,14.6,4.76,45.42,7.79,58.34.13-.15-3.11-2.88-3.46-2.61.61-.42-7.75-31.9-8.35-31.77-1.02-5.07-2.03-15.35-1.64-20.49h0Zm19.44,22.08c2.53,5.86,10.44,24.6,13.52,29.82-.49.37-3.97-.37-4.22-1.06,0,0-9.17-18.6-9.17-18.6l-.13-10.16h0Zm-107.53-54.19c1.03,1.79-1.2,22.56-3.23,24.27,0,0-5.82,4.77-5.82,4.77l16.74-.12s.23-1.68.23-1.68l5.37-28.14s-2-14.14-3.5-17.19c-3.55,2.84-7.8,13.94-9.79,18.08h0Zm20.83-78.41c-1.11,4.82,1.9,11.74,6.54,13.92l.44-3.01,2.16-1.12c-2.39-.9-9.41-5.54-9.14-9.8h0Z"/>
      <path class="cls-17" d="m143.32,120.95c2.97.57,9.38,9.7,9.61,11.92-.14,5.44-11.91,5.31-15.54,1.34-6.96-6-2.92-19.69,5.93-13.26h0Z"/>
      <path class="cls-16" d="m30.73,139.07l2.86-3.43-.67-5.11c1.01-6.97-10.04.29-10.47.67,0,0-3.7,1.87-7.8,2.73-2.22.43-12.08.52-13.31,2.54l-.41,1.75c1.91.21,5.8.85,7.69,1.22,0,0,6.35-.9,6.35-.9,3.9.31,11.89.65,15.77.52Z"/>
      <path class="cls-15" d="m79.68,25.45l1.68,2.38-.79,3.66-6.13-1.16-.43-4.52,2.11-1.32,3.56.96h0Z"/>
      <path class="cls-10" d="m133.56,117.55c-8.25.37-11.84,20.48-12.14,24.81l4.04-.09s-1.32,3.12-1.84,6.52c-.55,3.61.41,7.56-1.55,7.9-5.61.97-7.81-5.13-9.6-5.45-1.65-.29-2.14,7.45-3.21,7.01-1.82-.74-8.54-8.43-8.54-8.43-8.71-14.3-31.2-7.29-44.49-10.74-5.69-1.65-4.51-8.72-4.66-10.51,2.41-7.58,9.98-26.5,2.96-36.16-.3-.51-3.67.4-7.59-.91s-7.99-3.4-8.08-4.34c-.32-3.31,2.64-17.58,2.64-17.58l4.01-16.62c1.33-1.53,2.97-4.39,6.29-3.17,13.45-12.55,19.41,17.25,31.16,12.33,4.82,6.59,15.97,14.12,8.71,21.66.41.16-1.33,7.74-1.93,7.76,0,0-.38,6.82.62,11.26.36,1.59,1.7,1.49,2.79,2.87s1.57,2.69,1.57,2.69c.95-.35,4.19,3.71,3.93,4.82,4.79-.06,15.96,1.52,21.34,3.03,3.27.57,11.4.21,13.56,1.33h0Z"/>
      <path class="cls-8" d="m64.23,70.41s-1.65,13.24-1.9,22.03.8,5.63.73,11.22-.31,7.29-1.52,13.03-3.18,7.43-1.39,10.9c1.71,3.3,20.31,5.7,20.31,5.7,5.45-.31,34.72,6.3,40.53,12.3l.65-3.37,3.69.18s-1.63,4.55-1.72,6.58c-.13,2.92-.08,6.8-1.17,7.42-5.01,1.55-7.25-3.09-10.18-5.27,0,0-1.41,1.87-1.83,3.78-.39,1.81-.79,3.67-1.34,3.37-9.84-7.38-7.43-11.39-19.15-16.69-7.59-2.35-21.42-1.32-21.42-1.32,0,0-9.21.9-13.57-1.7-11.56-8.52,10.08-27.19-.4-46.2.61.67,9.27-21.58,9.65-21.96Zm32.97,40.08c2.17,2.48-13.88,3.18-14.52,6.19,4.76-1.58,10.82-3.49,15.88-3.52-.16-.78-.75-2.13-1.36-2.67h0Zm-3.26-32.49c-4.38,11.74-20.62,4.84-25.47-1.32,3.12,7.75,10.13,15.23,19.51,8.2,0,0,3.79-.96,3.79-.96l1.72-2.88.45-3.04Z"/>
      <path class="cls-11" d="m79.52,41.64c-1.2,2.14-1.16,16.28,4.76,14.07-4.23,2.85-6.04-2.54-8.49-7.52-1.02-3.03-1.73-5.2-.78-6.75.05-.38-.31-.65-.31-.65,1.01.46,4.37.97,4.83.85h0Zm3.98-17.05c6.45-17.49-12.45-27.41-27.39-21.04l-.18-1.51c-5.79-3.79-11.7.21-14.96,7.19-2.55,8.14,2.14,26.72-.86,35.11-.34,1.22-1.7,2.51-2.79,3.26-.88.61,1.01.66,2.19.52s2.52-1.08,2.52-1.08c0,0-1.46,4.12-1.57,6.48s.98,3.49,1.14,2.98c.09-3.53,1.51-3.83,4.39-4.1,1.85-2.1,2.8-3.39,5.84-2.63,0,0-.78-11.63.3-12.55.16-.38,3.73,2.99,4.37,2.66l2.2-4.29,1.06.61.49-2.82,1.47-.12c-.27-.1,1.46-5.11,2.2-4.98-2.04-2.02-1.83-8.13,2.54-5.55.91,1.23.3,4.78,2.31,3.37-1.58,7.08,6.41,6.81.97,16.1,14.65-11.11,2.99-11,6.81-20.97,1.65-3.48,4.3-4.77,4.74-7.53,3.15,4.03.15,8.34,2.22,10.89h0Z"/>
      <path class="cls-9" d="m75.74,21.75c.14.18-5.2,4.21-6.07,3.01,1.2-1.1,3.14-3.82-.57-1.45.36-1.64,1.24-9.44.79-10.06.84.62,1.19,7.97.43,8.65l1.78-1.79.44,2.39-.63,1.18c1.24-.43,3.03-1.93,3.85-2.94l-.02,1.01h0Zm-26-13.88c-5.32,4.36-5.01,23.72,2.27,29.27-1.04,2.68-.55,9.8-.31,12.64l-2.7.05c-.96.24-3.17,2.17-3.14,2.66h-2.05c2.56-8.17,4.47-14.89-.14-25.92-1.88-6.15-.24-16.73,1.11-18.48,1.88-3.28,6.16-5.08,4.95-.21h0Z"/>
      <path class="cls-7" d="m143.01,194.53c-2.68,1.61-5.53,10.45-5.53,10.45,1.68,4.23,30.2,14.47,31.51,14.13,12.35.46,2.68-7.92-1.5-11.52,0,0,.42-.56-.26-.77-1.02-.32-1.56-1.17-1.56-1.17l25.41-1.87c1.04,0,7.05-1.46,5.87-4.46l-3.81-2.29-4.98-1.26c-.34-.58-1.85-1.27-2.39-.33l-1.99-.7c-.16-.54-1.57-1.27-2.12-.76l-2.41-.66c.65-1.24-.66-1.38-1.39-1.1-1.06-.17-3.18-1.68-4.03-2.32,0,0-1.89-3.09-1.89-3.09l-.69.98,1.42,2.19.2,2.11c-.82.69-9.63,3.29-11.09.66l-.53,8.63-2.39-2.41-1.6-5.35c-.19-.68-3.98,2.1-3.98,2.1l.15.8c-8.8,1.98-4.02,1.28-10.43-2.02h0Z"/>
      <g>
        <path class="cls-14" d="m145.72,196.51c-4.18,4.56-3.14,6.11-4.49,11.63l-3.85-2.87c1.27-2.51,4.13-15.51,8.33-8.76h0Z"/>
        <path class="cls-13" d="m161.62,192.69l2.1,1.18,2.08.15s-.45,2.94-.19,5.83c.12,1.8,1.5,4.42,1.2,5.71l-1.23.09c-.84-.65-3.39-3.4-4.16-4.21l.21-8.74Z"/>
      </g>
      <path class="cls-7" d="m79.99,23.74c0,1.27-2.7.3-2.85.13l-.68-2.78c.82-.09,2.41.05,3.19.32l.34,2.33h0Z"/>
      <g class="cls-3">
        <g>
          <path class="cls-12" d="m133.27,117.68c-11.29,2.84-12.19,24.03-12.81,33.75,0,0,.03,2.35.03,2.35.88,1.19.43-1.77.47-2.02.81-11.4,1.51-29.42,12.31-34.08h0Z"/>
          <path class="cls-12" d="m125.37,142.42c-1.3,2.41-1.77,5.61-2.06,8.36-.14,1.11,0,7.75-2.09,4.51-.45-.4.12-1.4-.56-1.43-.35.06-.3.44-.12.65.22.92.92,2.65,2.15,1.94,1.57-4.35.69-9.59,2.7-13.98,0-.02,0-.03-.03-.04Z"/>
          <path class="cls-12" d="m136.25,141.15c-4.43.86-10.1.69-14.6.67-1.55,1.18,2.78.69,3.34.73,3.3-.12,8.37,0,11.26-1.4h0Zm-52.47-4.25c-.94.89,3.37,1.36,3.87,1.69,0,0,6.17,1.98,6.17,1.98,4.76,1.77,9.14,4.78,13.5,7.32,5.45,1.97,9.27,10.76,15.22,8.63-3.45.86-6.13-1.44-8.27-3.92-1.15-1.01-3.98-3.48-5.26-4.24-2.71-1.58-8.03-4.81-10.8-6.42-4.15-2.14-9.97-3.83-14.43-5.04h0Zm-3.17-.99c-.22-.07-.32.28-.1.34,1.08.41.59.27,1.09.4.25.07-.48-.2-.7-.32.18.06,1.15.44,1.42.61-.95-.37,1.16.58.56-.23-1.13-.41-.68-.14-1.13-.41-.24-.14.54.14.82.13-1.06-.39-1.22-.25-1.96-.54Z"/>
          <path class="cls-12" d="m76.11,139.85c-.52.15-7.59-.27-5.87.73,17.7-1.1,24.23.68,35.35,14.83,5.16,5.77,3.89,1.75,5.91-2.78-.01-.44,1.4-1.52.55-1.44-1.26,1.48-1.68,3.53-2.17,5.38-.2,1.09-.54,2.22-1.67,1.02-11.11-11.93-13.98-18.25-32.11-17.73Zm-18.99-30.11c-2.95,14.6-15.81,31.73,9.66,30.94.52.02,3.05.2,2.12-.58-14.4.43-21.04-3.47-15.01-18.45.99-3.77,3.79-8.04,3.22-11.91h0Zm7.93-41.99c-.94.14-1.02,2.28-1.49,3.02,0,0-1.26,3.51-1.26,3.51-.92,2.7-3.56,9.25-4.67,11.96-.83,1.24-2.14,5.36-3.64,5.95-.95.24-2.09-.04-3.03-.23,3.44,2.77,5.32-1.75,6.72-4.73,2.56-6.22,6.18-13.12,7.38-19.47h0Z"/>
          <path class="cls-12" d="m62.98,64.73c1.02,2.14,2.86,4.6,3.85,6.71-.44-2.18-2.09-5.21-3.85-6.71h0Zm-6.96-15.58c-1.21-.02-2.33.54-3.49.77-3.12-.64-4.85-.97-6.82,2.13-3.23,7.87-4.05,17.91-5.98,26.25,0,2.96-3.22,9.85,1.27,10.57.05-.37-1.35-.58-1.63-1.14-.82-7.7,2.83-16.82,3.96-24.63,1.21-4.08.9-11.37,5.8-13.03,5.21,1.84,5.33-1.68,9.85,1.06,2.16.06-2.19-2.26-2.96-1.98h0Zm5.31,2.96c-.72-.09.71.95.74,1.05.78.45,1.26,1.46,1.91,1.9.29-1.28-1.66-2.36-2.65-2.95h0Z"/>
          <path class="cls-12" d="m59.2,46.75c-2.42-.28-7.52,1.56-7.64,3.38,4.01-4.83,11.03-3.46,14.56,1.25,2.02,2.08,5.04,5.53,6.87,7.75,1.9.28-1.65-2.49-1.93-3.11-3.3-2.9-6.99-9.13-11.85-9.27Z"/>
          <path class="cls-12" d="m72.46,58c-.09.56,2.81,3.85,2.76,2.71-.85-.78-1.72-2.24-2.76-2.71h0Zm-17.82,34.34c-.05.85,1.58,4.08,1.61,4.97,1.07,4.04,1.45,8.8.7,12.92.49.98.41-2.06.53-2.31.32-5.15-.27-11.14-2.84-15.57Z"/>
          <path class="cls-12" d="m89.63,91.63c-9.16,5.08-20.41,7.2-30.76,4.89-4.12-1.39-2.89-.05.22.54,7.39,1.69,15.42.77,22.67-1.16,1.09-.32,8.99-3.24,7.87-4.28h0Zm-.03,5.85c-8.59,5.3-19.7,7.28-29.61,4.99.02.08-2.94-1.09-2.52-.56,7.43,3.87,27.35,1.91,32.13-4.43h0Zm-35.55-5.14c-1,1.33-2.3,3.7-3.5,5.08-.73,1.65-1.57,4.35-2.55,6-3.36,6.15-7.86,13.6-11.6,19.51-.56.97-2.6,4.35-3.02,5.33-1.57,4.95,2.01,6.41-3.03,11.2,2.28.6,3.7-3.1,3.89-5,.22-2.31-1.23-4.66.39-6.73,5.22-9.84,12.97-18.94,16.16-29.69,1.07-1.75,3.12-3.74,3.27-5.7h0Zm-27.86,41.73c-3.32-.29-6.05,1.97-9.2,2.44-.87.16-1.99-.01-2.73.5-.37,1.02-.05,2.2,1.23,2.13,2.76.39,7.23.49,10.01.36.78-.02,3.52-.33,2.53-1.49-.89.42-2.04.74-3.17.73-3.3.22-6.67.06-9.96-.36-.33-.13-.05-.71-.08-.99,4.61.15,8.54-4.36,13.17-2.46,3.01,2.31.3-1.31-1.8-.87h0Z"/>
          <path class="cls-12" d="m39.17,87.47c-1.97,5.03-5.69,13.88-8.08,18.96-3.05,7.39-5.14,16.07-6.85,23.5,3.53-4.95,3.08-12.95,5.62-18.8,2.57-7.8,7.66-15.74,9.31-23.66Z"/>
          <path class="cls-12" d="m23.93,130.05c-5.8,3.42-13,4.35-19.56,5.49-2.36.15-1.74,2.68.08,3.17,1.41.61,7.34,1,7.35-.18-1.79.76-9.14.87-8.54-2.1,1.44-1.01,5.28-1.02,7.01-1.5,3.65-.58,7.94-1.21,11.2-3.04.63-.5,3.05-.97,2.47-1.85h0Z"/>
          <path class="cls-12" d="m12.23,134.03c-2.36.21-5.45.33-7.82.65-2.5.04-6.29,3.37-1.96,4.09,2.84.28,3.12-.48.09-.68-1.89-.17-1.88-1.33-.33-2.15,1.19-.67,3.03-.78,4.35-1.07,1.56-.18,3.23-.12,4.8-.32.3-.06.99.08,1.13-.3.06-.01.05-.11-.02-.09-.08-.05-.14-.11-.24-.13Zm32.93-24.25c-.94,6.94.84,15.71-3.68,21.8-2.05,2.04-5.89,1.88-7.8,3.56,13.25-.02,11.69-15.94,11.47-25.36Zm7.43,26.55c-.26.6,1.4,2.64-.15,2.61-.89.33-7.2-.6-6.57.34,1.23.63,4.43.07,5.8.15.52-.08,1.31.09,1.66-.39.26-.77-.14-2.31-.74-2.71Zm39.11-52.7c-.27,0-.49.21-.49.48.06,2.64-.87,5.07-2.02,7.38.06,3.75-.96,8.02.78,11.52,1,.89,3.29,3.6,4.19,4.66.42.66,1.2,1.47,1.05,2.27-3.86,1.13-8.23.26-12.22.77-1.05.2-3.15.13-3.52,1.09,1.03-.19,2.14-.58,3.19-.63,9.4-.96,19.36,3.14,7.85-8.83-1.08-3.12-.45-6.69-.48-9.95.2-1.96,1.83-3.6,1.96-5.67-.04-.91.73-2.69-.29-3.09Zm-13.91,28.79c-1.34.52-3.16,1.37-3.53,2.81,1.13-.68,2.08-2.32,3.63-2.47.22-.06.12-.41-.1-.34Z"/>
          <path class="cls-12" d="m95.65,108.73c-1.13-.18,3.06,2.98,2.89,4.45.64-1.46-1.63-3.57-2.89-4.45Z"/>
          <path class="cls-12" d="m100.14,112.97c-4.19-.02-9.37.45-12.81,2.25,6.49-2.04,13.93-2.1,20.62-1.21,8.15,1.41,16.35,3.37,24.6,3.93.61.15,1.89-.23.8-.75-11.14-.54-22.01-3.98-33.21-4.23Z"/>
          <path class="cls-12" d="m134.23,117.65c-1.67-.02.18.55.79.54,10.07,1.24,19.18,10.71,18.32,21.13-.32,12.75-1.64,26.53-1.13,39.29.4,5.26.08,11.5,2.78,16.02-.37-4.34-1.68-9.09-1.74-13.66-.41-7.38-.04-17.05.13-24.52,1.34-17.23,2.51-35.43-19.14-38.79Zm-.87,24.14c-2.65,17.63,7.68,34.74,9.4,52.14,1.73,2.12.53-3.22.53-3.66-3.11-16-11.43-31.98-9.92-48.49h0Z"/>
          <path class="cls-12" d="m152.8,174.63s-.02.03,0,.04c-.21.68.49,1.33.73,1.94,2.46,4.33,5.98,11.76,8.42,16.02-1.14-2.89-4.97-10.38-6.35-13.34-.67-.94-1.71-4.16-2.76-4.65,0-.01-.03-.01-.04,0h0Zm-9.51-54.26c4.31,1.7,9.27,7.17,11.52,12.3.76,2.4,1.42,6.77,1.94,9.28,1.85,10.54,4.12,21.45,7.76,31.51.27,1.58,7.32,18.8,7.17,13.7-5.02-8.83-8.14-18.57-10.57-28.4-3.99-13.2-2.52-32.64-17.82-38.39ZM75.39,52.03c2.21,4.72,6.24,9.43,9.8,13.44,5.09,5.17,11.47,11.31,6.41,18.56-.12.13.08.32.2.18,8.39-7.11-5.05-17.5-9.68-23.08-1.34-1.64-3.33-4.17-4.54-5.9-.5-.59-1.49-2.94-2.19-3.2h0Z"/>
          <path class="cls-12" d="m69.89,50.32c.12,2.11,4.09,2.09,5.62,1.83-1.8-.29-3.99-.34-5.43-1.77-.04-.07-.12-.1-.19-.06h0Z"/>
          <path class="cls-12" d="m76.17,41.18c-1.3.06-3.58.52-3.55,2.16-.1,2.55-.2,7.36,1.56,8.62-.87-1.98-2.4-8.88.12-9.73.32-.18,2.56-.64,1.88-1.05Z"/>
          <path class="cls-12" d="m82.66,35.34c.13.52.42,1.25.47,1.82-.15,1.26-.08,2.74-.78,3.83-3.02.81-6.6.44-9.4-1.03-1.19,1.69,8.09,2.41,9.47,1.42,1.06-.71,1.42-5.49.24-6.05h0Z"/>
          <path class="cls-12" d="m79.46,41.51c-1.66,3.21-1.16,16.94,5.01,14.01.31-.83-1.29.38-1.77.08-4.75-2.29-3.14-9.83-3.23-14.09Zm2.38,43.26s-.01,0-.04.02c-.13.11-1.22.3-.45.53.16-.09.43-.22.57-.31-.19.1,0,0,.04-.02.14-.07.02-.3-.12-.22h0Z"/>
          <path class="cls-12" d="m70.9,80.53c1.07,4.04,6.79,6.37,10.38,4.65-4.17,1.02-8.07-1.06-10.38-4.65Zm10.64-17.85c1.13,1.05,1.68,2.52,2.18,3.94,1.75,1.09-1.24-4.26-2.18-3.94h0Z"/>
          <path class="cls-12" d="m84.7,66.65c-.07-.06-.16.05-.09.11-.53.25-.71.27-.54.25,1.49-.57,2.45,2.9.44,2.39-.79-.24-.99-1.21-.96-1.9.32-.29,0,0,0-.24,0-.05-.01-.1-.04-.14-1.36.73.1,3.33,1.56,2.83,1.65-.53.85-2.34-.12-3.13-.63.06,0,0-.24-.17Zm-1.2.47c.37-.22.58-.23-.03-.03.01.01.02.02.03.03h0Zm-.03-.03c-.12-.15-.37-.06-.39.14l.39-.13h0Z"/>
          <path class="cls-12" d="m85.36,69.89c.39,1.09.96,2.36.98,3.6,1.25.93-.26-3.47-.98-3.6h0Zm2.03,3.71c-.17-.1-.34.17-.16.27-.25.13-.31.12-.24.13.92-.17,1.61,1.85.95,2.47-.89-.04-1.71-1.51-1.27-2.29.39-.26-.14-.47-.31-.13-.76,1.04.52,2.87,1.7,2.78,1.2-.68.13-3.09-.66-3.25h0Zm-.78.28c.3-.15.68-.25-.13,0,.04-.04.08,0,.13,0Z"/>
          <path class="cls-12" d="m87.93,76.81c.38,1.2.48,2.61.6,3.92,1.13,1.08.14-3.87-.6-3.92h0Zm.39,4.18s-.06,0-.07.03c.08,0,.02,0,.08,0,0-.01,0-.03,0-.03Zm0,.03s.01.06.05.08c.4-.06.96-.04-.05-.08Zm.05.08c-.62.12-.71,1.27-.75,1.84.47,2.56,3.68.15,2.26-1.55-.04-.06-.05-.17-.13-.18-.5-.12,0,0-.24-.12-.11-.16-.36.02-.24.18-.47-.11-.55-.25-.47-.1,2.9,2.49-2.54,4.16-.43-.07h0Zm-34.05-42.62c1.07,2.92,2.15,6.13.72,9.03,2.38-1.88,1.19-7.01-.72-9.03h0Z"/>
          <path class="cls-12" d="m48.05,9.38c-4.98,9.38-3.14,24.74,7.13,29.93.13-.01,1.88,1.08,1.36.23-10.08-4.42-11.56-17.41-8.99-26.92.01-.64,1.41-3.09.49-3.24h0Z"/>
          <path class="cls-12" d="m58.38,35.95c-.69.65-.87,2.04-1.37,2.87-1.89,3.12,1.73-1.6,1.36-2.87h0Zm-9.94-31.36c-.76-.23-3.17,1.2-1.44,1.32,2.04-1.33,3.38.25,2.56,2.26,1.44-.85.69-3.7-1.12-3.58Z"/>
          <path class="cls-12" d="m49.31,4.93c-3.03.09-5.38,6.91-4.51,9.21.96-3.57,1.25-7.41,4.51-9.21Zm2.76,32.13c-1.44,2.74-.88,6.59-.78,9.7.04.52.14,1.56.2,2.07.06.37-.15,1.22.39,1.25.65-.43-.09-1.63.03-2.32-.45-3.17-.45-7.75.16-10.7Zm-9.31,7.19c-1.34,3.71-3.46,8.07-1.85,12.04.11.28.49.87.75.4,1.13-3.39.06-3.61,3.84-4.28-2.82-.5-3.59,1.07-4.14,3.55-1.74-3.86,1.57-7.83,1.41-11.7h0Z"/>
          <path class="cls-12" d="m41.76,46.5c-1.21,1.26-3.2,1.77-4.78,1.37.46,1.52,6.42-.82,4.78-1.38h0Z"/>
          <path class="cls-12" d="m50.71.49c-4.5.49-8.46,4.63-10.21,8.63-.88,2.68-.29,7.25-.22,10.05.73,8.01,1.8,25.37-2.2,28.26,5.46-4.73,2.75-20.56,2.76-27.37-.05-2.65-.52-7.42.08-9.99,1.48-5.13,7.27-10.31,12.86-8.56,2.32.69,1.71,2.23.46,3.57,4.96-1.67-.31-5.45-3.53-4.59h0Zm28.62,7.92c5.11,6.2-2.1,8.83-3.33,13.91.92-.68,1.69-2.63,2.57-3.58,2.73-2.91,4.3-7.58.76-10.33Zm-13.34,22.68c-.3,3.3,2.59,6.55,5.1,8.17.29-.22-.82-.93-.89-1.07-2.41-1.74-3.39-4.43-4.21-7.09h0Z"/>
          <path class="cls-12" d="m76.03,20.12c-.3.61.07,1.01-.13,1.12-.11.26-.03-.55-.07-.83-.12.54-.03,1.31.05,1.88.11.19.42.02.3-.18-.18-.39.06-1.16.02-1.67-.03.67.06-.29-.16-.33Zm.12,1.05c-.08-.27,0,.44.03.83,0-.69.08-.49-.03-.83Zm.03.83c0,.06,0,.03,0,.11,0-.03,0-.05,0-.11Zm-.3.23v-.18c0-.05,0-.08,0,.22,0,.01,0-.03,0-.04Z"/>
          <path class="cls-12" d="m76.05,20.17c-.62.44-1.17,1.28-1.73,1.86-.78.92-2.08,1.15-3.03,1.56,1.87,1.03,4.05-1.9,4.76-3.42h0Z"/>
          <path class="cls-12" d="m72.24,19.85c-.52.78.48,2.39-.29,3.25-.19.24-.75.19-.71.57.71.68,1.83-.58,1.56-1.41-.2-.76-.25-1.84-.57-2.42h0Z"/>
          <path class="cls-12" d="m72.09,20.12c-.13-.12-.8.83-.9.87.02.01.4-.44.61-.66-.3.5-1.1.98-1.47,1.5.54-.55,0,0-.1.22-.04.2.94-.9.96-.87.27-.24-.5.54-.7.85.6-.19,1.26-1.02,1.56-1.53-.75.59.31-.18.03-.37Z"/>
          <path class="cls-12" d="m66.58,6.43c2.68,4.58,5.2,10.16,3.73,15.51,1.85-5.21-.48-11.34-3.73-15.51Zm-1.5,15.45c-2.86.16-3.47,3.79-1.81,5.69.52.8.29,1.75.66,2.61.9,2.53,3.51-.16,1.83.56-1.66.26-1.43-1.79-1.67-2.83-.27-.38-.78-1.2-1.01-1.63-1.44-3.74,3.42-5.98,3.9-1.17.41,2.56,2.72.82,1.68.8-1.77,1.45-1.3-4.25-3.59-4.04Z"/>
          <path class="cls-12" d="m64.17,13.61c-.33,2.68-.45,6.36,1.18,8.5-.66-2.56-.86-5.74-1.18-8.5Zm4.48,12.69c-1.14,3.82,3.04,7.4,2.97,11.09,1.24-3.72-3.94-7.09-2.97-11.09Zm2.86,11.68c-.45,1.22-1.42,2.98-1.7,4.19.1.06.23.04.29-.07.55-1.16,1.69-2.9,1.41-4.13Z"/>
          <path class="cls-12" d="m75.99,22.24c-1.68,9.26,5.9,9.78-4.93,18.82-1.02.63-1.33,1.8.05.55,9.89-7.68,4.75-9.83,4.88-19.37h0Zm-21.74,16.68c-.84,1-.48.64-.84.99-.27.26.43-.62.57-.97-.65.16-1.41,1.02-1.39,1.71.59-.55,0,0-.02.25-.05.14.16.21.21.07.81-.87.51-.49.81-.87.2-.25-.44.46-.69.66.32-.82,2.29-1.81,1.34-1.84h0Zm9.58-10.55l-.91.64s-1.86-2.02-2.06-3.84c-.41-2.63,1.87-4.83,3.33-2.82-2.51.81-1.23,5.06-.35,6.02Z"/>
          <path class="cls-12" d="m57.63,22.95c-1.4,1.63,3.43,4.54,3.73,1.84-1.01.74-2.37.48-2.96-.76-.28-.33-.2-1.14-.76-1.09h0Z"/>
          <path class="cls-12" d="m55.41,21.5c-.04-2.66,4.11-2.61,4.01.04-.02,2.6-4.06,2.56-4.01-.05h0Zm19.18,20.13c-.75,4.5,3.91,18.89,9.9,13.95-6.36,3.77-9.25-9.59-9.89-13.95h0ZM66.91,1.48c-3.53.27-9.07-.18-11.32,2.62,6.21-2.65,14.72-3.4,20.9.33,7.22,3.91,10.01,12.71,6.97,20.14,5.85-10.91-4.96-23.71-16.55-23.08h0Zm15.68,21.27c-.06,1.09.57,2.49.95,3.6,1.93,2,1.11,2.77-.76,4.29-1.15,1.39,1.02,3.27-.14,4.63.02,1.19,1.14-.57.92-1.09-.55-1.38-1.38-3.11.39-3.98,1.72-1.04,1.16-2.71-.06-3.87-.73-1.04-.74-2.63-1.31-3.59Zm-3.56-5.05c-1.12.51.13,1.27.77,1.38-.25-.1-1.02-.36-.33-.09.98.42.5.3,1.4.45-.35-.69-.61-.63-.72-.89-.14-.18.32.34.54.43-.04-.25-.74-.74-.99-.98.49.6-.36-.52-.67-.28h0Zm-2.4,2.61c-.9-.16-.73,1.04.06,1.04,1.25.2,3.08-.72,3.46,1.06.45-1.69-2.41-1.61-3.52-2.1h0Z"/>
          <path class="cls-12" d="m76.39,20.16c-.19-.06-.39.04-.44.23-1.28.3,1.25,5.09,1.52,3.62-.66-1-.38-2.43-.85-3.4.06-.19-.04-.39-.23-.44h0Zm2.4,2.61c-.01-1.78,1.5-1.78,1.48,0,.01,1.78-1.5,1.78-1.48,0Zm4.47,11.95c-.94.8-2.81.71-3.89.41-.17.83,3.4,1.03,3.43.71l.46-1.12h0Zm59.84,159.53c-3.19,1.9-4.25,6.3-5.58,9.59-1.54,3.34,7.75,6.62,10.05,7.99,7.92,3.19,16.41,7.57,25.09,7.7,7.26-1.72-1.4-10.81-4.81-11.53,1.9,2.08,4.23,3.79,5.85,6.13,6.82,12.82-29.38-4.13-32.59-6.3-1.12-1.15-4.15-2.09-3.03-3.97,1.31-3.1,2.2-7.36,5.14-9.25.68.05,1.19.55,1.64,1.01,2.01,3.08,5.33,2.57,8.25,1.19.57,1.62,2.07,4.66,3.47,4.91-1.35-1.25-2.02-3.04-2.92-4.66-.16-.42-.42-.89-.91-.56-6.86,2.91-5.06-.92-9.64-2.25h0Z"/>
          <path class="cls-12" d="m138.09,203.4c3.21,3.73,35.95,20.67,36.82,12.51-5.65,6.26-30.45-8.64-36.82-12.51h0Z"/>
          <path class="cls-12" d="m166.47,209.57c-.08.01-.13.07-.2.1-.09-.03-.15.11-.05.14,1.89,1.8-.91,4.96-.06,6.86,0-1.96,2.99-5.76.31-7.1Zm-9.41-16.23c-1.35.11-2.35.99-3.41,1.71-.82.38-.55,1.28-.12,1.84.02.1.19.08.17-.02.27-.33-.21-.8-.21-1.13.98-.85,2.3-1.56,3.57-1.84,0,1.51.58,3.23,1.04,4.66,1.7,3.07.45-.97.15-1.74-.05-.38-.42-1.96-.51-2.36-.02-.45-.06-1.14-.68-1.12h0Z"/>
          <path class="cls-12" d="m159.41,199.44c-1.1.65-4.86,2.54-2.55,3.77.21.25,0,0,.03,0,.07.03.13-.02.18-.07.07-.46-.72-.64-.33-1.11.81-.75,1.79-1.42,2.7-2.04.3.25.75.92,1,1.22-.87.87-2.13,2.21-3.06,2.5.9.52,2.49-1.44,3.22-2.05,1.03-.45-.62-2.14-1.21-2.23h0Zm-2.01,4.28c-.18-.21-.46-.15-.07.15,0-.08.07-.09.07-.15Zm-.07.15c-.07.07.03.15.11.12-.05-.07-.07-.07-.11-.12Zm-.26-.72c.01.12.04.21.13.19.16-.04,0,0-.16-.45.11.04.15.24.02.26h0Zm5.95-.3c-1.01-.06-2.95,2.09-2.95,2.8.37.14.3.22.37.14.07-.07-.16-.12-.18-.22.24-.34.59-.83.93-1.12,1-1.11,1.96-1.8,2.75-.08-1.05.31-2.2,2.55-3.13,1.55-1.55-.17.53,1.89,1.78.09.4-.68,1.54-1.05,1.83-1.68-.37-.52-.67-1.36-1.39-1.49h0Zm3.13,3.37c-1.21.31-1.64,1.69-2.48,2.4.2.3,0,0-.04.02-.21.11-.04.43.17.31.39.12.42.23.39.13.01-.13-.48-.1-.28-.2.73-.66,1.19-1.7,2.08-2.14,2.07-.27,1.01,2.04-.24,2.41-.5.49-1.69-.37-1.46.32,1.85,1.97,5.42-3.37,1.85-3.24h0Zm-1.85,3.24c-.31-.28-.63-.83,0,.04-.01-.01,0-.03,0-.04h0Z"/>
          <path class="cls-12" d="m161.95,205.93c-.7.84,1.93,1.34,2.07,2.3,1.11.2-1.64-2.2-2.07-2.3h0Zm2.46-1.4c.49.8.73.57.77.92.1.25-.4-.35-.64-.46.1.2.75.69,1.02.92.2.17.83.77.64.12-1.13-.94-.79-.97-1.78-1.5h0Zm-5.74-1.17c-.77-.08.62.94.68,1.07.23.2-.43-.43-.64-.65.16.14.98.86,1.21,1.07.06.18.41.25.29.39-.57-.53,0,0,0,.02.97.26-.87-1.46-1.05-1.61-.08-.06-.31-.22-.24-.15.51.53,0,0-.23-.13h0Zm1.59,1.49s.3.22.16.18c-.15.06-.06-.13-.16-.18h0Zm.53-3.79c-.91.24,1.58,1.59,1.81,1.87-.63-.47,0,0,.18.11.04.03.11-.03.06-.07-.93-.94-.49-.56-.93-.94-.28-.24.53.52.8.77-.25-.29-1.1-1.32-1.38-1.46.57.7-.2-.34-.54-.28Z"/>
          <path class="cls-12" d="m161.6,192.42c-.52,2.54-.47,6.09-.65,8.76,1.06,2.47.96-8.82.65-8.76h0Z"/>
          <path class="cls-12" d="m173.62,191.9c-4.4.43-8.04,3.18-12.01.8,4.35,4.39,10.18-2.37,14.84.77,1.99-.42-2.12-1.83-2.83-1.58h0Z"/>
          <path class="cls-12" d="m171.88,186.33c-.32-.11-.64.26-.48.56-.14.37-.48.79-.3,1.24.89,1.16,1.61,2.49,1.59,3.89,1-.62-.01-2.35-.38-3.17-.09-.21-.32-.78-.39-.99.28-.27.61-1.28-.04-1.54h0Z"/>
          <path class="cls-12" d="m172.14,186.67c-.02,2.46,2.75,5.4,5.2,5.66-.23-.92-1.64-1.23-2.35-1.81-1.5-.84-1.99-2.7-2.85-3.85Zm16.06,8.76c-1.44.82,2.29.84,2.79,1.25,1.83.58,3.78,1.2,5.25,2.47,1.31,3.57-19.24,3.82-22.2,4.27-2.3.1-15.38.5-6.47.6,6.97.39,47.26-1.76,20.63-8.6h0Z"/>
          <path class="cls-12" d="m196.9,199.58c-.58,2.38-2.36,2.92-4.69,3.42-3.88.92-7.91,1.09-11.87,1.36-3.19.25-9.37.59-12.49.95-2.59,0-2.79.66.02.39,4.59-.06,10.64-.58,15.23-.84,2.92-.46,16.09-.36,13.79-5.28h0Zm-9.33-2.82c-.54.13-.06.69.23.81,1.48,1,.92,3.41,2.03,4.44-.23-1.59-.58-4.4-2.27-5.25h0Z"/>
          <path class="cls-12" d="m186.78,194.45c-.41-.02-.94.05-1.12.46-.2.45,0,0-.02.12-.14.26.28.48.41.21l-.35.63c.34-.92,1.27-1.17,1.8-.28-.13.44-.51.78-.68,1.22-.1.4-.16.87-.7.8-.56.13-1.22-.5-.8-1.01.25-.44,0,0,.02-.08.15-.18-.13-.41-.28-.23l.28-.62c-1.04,1.3-.63,2.38,1.07,2.31,1.03-.78,2.72-3.18.35-3.51Zm-4.38-.98c-.55-.21-1.24.54-.65.81.17.04.27-.14.33-.27.62-.07,1.1.33,1.45.8-.41.94-1.25,2.25-2.36,1.39.81-1.42.34-2.52-.19-.34.31,3.11,5.55-1.87,1.43-2.38Zm-.4.69c-.13.24-.28.6.07-.09,0,.04-.04.06-.07.09Z"/>
          <path class="cls-12" d="m183.26,195.82c-.69.3,1.13.6,1.36.76.04.02.15.08.11.07-.52-.18,0,0,.08.1.18.14.39-.15.21-.29-.88-.32-.49-.27-.89-.33-.26-.04.51.19.76.27-.33-.26-.92-.43-1.36-.59.49.23,0,0-.28,0h0Zm.43.47c-.81-.25.56.3.31.13-.1-.08-.27-.11-.31-.13Zm.02-1.71c-.63.47.78.63.99.75.22.08-.45-.12-.69-.12.32.16,1.23.31,1.68.43.13.08.26-.13.13-.21-.96-.42-.57-.17-.96-.42-.25-.16.57.18.85.25-.39-.22-1-.46-1.5-.57.63.34-.26-.18-.5-.11Zm1.72,1.01c-.19-.04-.32-.08.08.05.03,0-.04-.02-.08-.05Z"/>
          <path class="cls-12" d="m185.92,195.03c-.09-.04-.19-.01-.24.08-.31.56-.24.28-.31.56-.06.21.41-.77.07-.22-.4.5-.31.36-.38.77-.1.17.17.33.27.15.33-.55.14-.34.33-.55.1-.11-.12.29-.12.44.1-.05.35-.69.37-.78-.31.4.32-.36,0-.45Zm-7.05-3.16c-1.46-.3-2.23,1.49-2.4,2.64,2.16,1.27,2,.14,2.96-1.46.03-.04.12-.05.11-.1-.06-.32,0,0,.08-.15.09-.07-.03-.21-.12-.13-.45-.22-.32-.11-.16.08-1.08.73-.69,2.8-2.46,1.55.23-.91.78-2.02,1.81-1.96.24.13.54.36.65-.12.18.44.04-.08-.1-.2l.03.07c-.1-.14-.19-.24-.39-.22h0Z"/>
          <path class="cls-12" d="m178.84,194.24c-.26-.11-.43.29-.17.39,1.1.45.6.28,1.11.44.25.08-.49-.23-.74-.29.06.1,1.34.67,1.45.65-.71-.38.25.19.52.04.13-.13-1.07-.62-1.11-.68-.23-.13.48.26.74.31-.18-.23-1.03-.59-1.42-.73.57.35,0,0-.38-.14h0Zm.44-1.01c-.55.15.61.4.69.45l-.39-.08c.42.11,1.08.28,1.47.47-.77-.31.38.27.55,0,.13-.25-1.12-.42-1.21-.5-.25-.08.51.11.77.15-.19-.05-1.2-.28-1.51-.41.62.2,0,0-.38-.07h0Z"/>
        </g>
      </g>
    </g>
  </g>
</svg>