<?xml version="1.0" encoding="UTF-8"?>
<svg id="Ebene_1" data-name="Ebene 1" xmlns="http://www.w3.org/2000/svg" xmlns:xlink="http://www.w3.org/1999/xlink" viewBox="0 0 193 559.03">
  <defs>
    <style>
      .cls-1 {
        fill: none;
      }

      .cls-2 {
        clip-path: url(#clippath);
      }

      .cls-3 {
        mask: url(#mask);
      }

      .cls-4 {
        fill: #f5e8d6;
      }

      .cls-5 {
        fill: #e3caba;
      }

      .cls-6 {
        fill: #fff;
      }

      .cls-7 {
        fill: #fff7f7;
      }

      .cls-8 {
        fill: #a05b52;
      }

      .cls-9 {
        fill: #b69c65;
      }

      .cls-10 {
        fill: #c46b57;
      }

      .cls-11 {
        fill: #e0bd6f;
      }

      .cls-12 {
        fill: #070d1c;
      }

      .cls-13 {
        fill: #bfc4c6;
        opacity: .7;
      }

      .cls-13, .cls-14, .cls-15, .cls-16, .cls-17, .cls-18 {
        isolation: isolate;
      }

      .cls-14 {
        fill: url(#Unbenannter_Verlauf_5);
        opacity: .7;
      }

      .cls-15 {
        fill: url(#Unbenannter_Verlauf_2);
        opacity: .64;
      }

      .cls-16 {
        fill: url(#Unbenannter_Verlauf_3);
        opacity: .6;
      }

      .cls-17 {
        fill: url(#Unbenannter_Verlauf_4);
        opacity: .61;
      }

      .cls-18 {
        fill: url(#Unbenannter_Verlauf);
        opacity: .63;
      }
    </style>
    <clipPath id="clippath">
      <rect class="cls-1" y=".03" width="193" height="559"/>
    </clipPath>
    <radialGradient id="Unbenannter_Verlauf" data-name="Unbenannter Verlauf" cx="-181.39" cy="687.23" fx="-181.39" fy="687.23" r="1" gradientTransform="translate(2000.06 7465.71) scale(10.25 -10.3)" gradientUnits="userSpaceOnUse">
      <stop offset="0" stop-color="#dea88e"/>
      <stop offset="1" stop-color="#e3caba"/>
    </radialGradient>
    <radialGradient id="Unbenannter_Verlauf_2" data-name="Unbenannter Verlauf 2" cx="-178.59" cy="685.27" fx="-178.59" fy="685.27" r="1" gradientTransform="translate(1663.02 6553.33) scale(8.97 -9.01)" gradientUnits="userSpaceOnUse">
      <stop offset="0" stop-color="#dea88e"/>
      <stop offset="1" stop-color="#e3caba"/>
    </radialGradient>
    <radialGradient id="Unbenannter_Verlauf_3" data-name="Unbenannter Verlauf 3" cx="-164.79" cy="675.63" fx="-164.79" fy="675.63" r="1" gradientTransform="translate(975.31 3843.34) scale(5.55 -5.58)" gradientUnits="userSpaceOnUse">
      <stop offset="0" stop-color="#dea88e"/>
      <stop offset="1" stop-color="#f5e8d6"/>
    </radialGradient>
    <radialGradient id="Unbenannter_Verlauf_4" data-name="Unbenannter Verlauf 4" cx="-165.81" cy="676.34" fx="-165.81" fy="676.34" r="1" gradientTransform="translate(1029.41 3952.02) scale(5.71 -5.74)" gradientUnits="userSpaceOnUse">
      <stop offset="0" stop-color="#dea88e"/>
      <stop offset="1" stop-color="#f5e8d6"/>
    </radialGradient>
    <radialGradient id="Unbenannter_Verlauf_5" data-name="Unbenannter Verlauf 5" cx="-189.16" cy="692.66" fx="-189.16" fy="692.66" r="1" gradientTransform="translate(3254.01 12009.91) scale(16.98 -17.06)" gradientUnits="userSpaceOnUse">
      <stop offset="0" stop-color="#dea88e"/>
      <stop offset="1" stop-color="#f5e8d6"/>
    </radialGradient>
    <mask id="mask" x="-7" y="-10.97" width="207.07" height="580.16" maskUnits="userSpaceOnUse">
      <g id="A">
        <path class="cls-6" d="m200.07-10.97H-7v580.16h207.07V-10.97Z"/>
      </g>
    </mask>
  </defs>
  <g class="cls-2">
    <g>
      <path class="cls-4" d="m115.85,376.84l4.52,13.73,2.07,22.89c13.62,38.07,18.5,50.14,16.14,89.41,1.38,3.76,9.75,7.46,12.92,7.24l-1.03-9.88s13.6-4.2,13.23-4.97c-3.05-6.32-3.13-27.05-3.13-27.05l2.11-57c-1.48-28.5-4-33.89-8.1-47.93,0,0-38.73,13.56-38.73,13.56Zm-71.83-9.05s1.67,9.03,1.41,18.15c-.27,9.3,4.69,29.92,4.69,29.92,2.31,8.32,17,47.34,15.75,53.72l13.86,1.31-.32,11.46c11.84,1.04,5.87-18.6,5.89-24.55,0,0-.57-9.59.07-22.92s2.6-18.81,2.47-30.39-3.11-12.77-3.25-18.81l-.97-28.73s-39.58,10.84-39.58,10.84ZM122.97,93.79c-13.72-1.38-20.37-9.79-17.97-23.26.49-6.38,3.52-8,3.52-8,0,0,.34-.85-.52-3-.36-.9-.5-5-.5-5,1.07-2.53-1.73-8.2-6.22-4.48,5.24,3.41,4.77,17.99,1.61,22.64-.21,18.75-5.13,16.16-10.71.94,0,0-27.35-28.75-27.35-28.75l-9.61,23.83c-.22.76,11.45,24.4,14.59,24.72-1.22,3.64-5.13,6.9-9.37,5.69l3.81,23.7,16.69,15.7,27.33-1.39,19.46-24.49-4.76-18.86h0Z"/>
      <path class="cls-5" d="m44.88,382.35c22.81,18.37,28.47-14.56,42.7,24.81-2.59-11.68-3.89-38.1-3.97-50.21l-22.49,8.78-15.73,2.36-.51,14.27h0Zm75.67,8.22c.48,2.37,18.66,20.65,23.91,16.58,6.63-3.18,3.07-8.63,7.63-13.92,4.94-5.73,7.28-11.19,7.28-11.19l-4.52-19.62-28.43,6.41-11.63,6.03s5.76,15.71,5.76,15.71Zm-41.26,80.92l.69,5.56-1.64,5.21,6.32-1.42,2.37-4.76-.95-14.34s.4,12.18-1.3,14.61-5.49-4.86-5.49-4.86Zm-2.78-374.96s12.28,10.49,20.56,12.26c11.45,3.2,30.47-3.17,22.82-15.35-14.74-2.39-13.25-11.93-11.88-22.4-3.91,4.82-6.6,11.73-14.5,17.93-5.65,4.7-9.29,8.91-17,7.57Zm9.54-21.91c.79,7.9-4.69,13.43,6.14,3.44l-.84-3.46-4.65,4.97s-.66-4.95-.66-4.95Z"/>
      <path class="cls-18" d="m143.51,399.35l7.55-11.57-11.22-7.65-9.28,6.24,3.03,11,9.92,1.98h0Z"/>
      <path class="cls-15" d="m68.14,387.16s4.57-13.57.91-17.19-12.12-1.13-15.56,2.69-1.86,8.95,1.81,12.58,12.85,1.92,12.85,1.92Z"/>
      <path class="cls-16" d="m67.57,67.58l1.33,13.11-6.75,1.84-7.04-12.55s12.46-2.4,12.46-2.4Z"/>
      <path class="cls-17" d="m76.3,70.09l4.16,10.2,9.27-3.26-5.08-10.21c-.02.07-10.77-.48-8.35,3.28h0Z"/>
      <path class="cls-10" d="m190.09,344.45c-2.61,2.23-16.51,8.71-16.51,8.71,4.57,15.06-17.12,10.63-30.26,13.59-3.9.88-4.33,14.88-18.34,12.72s-31.73-20.56-38.91-21.1c-9.75-.73-18.29,8.03-24.47,9.48-32.67,8.56-22.54-14.15-32.74-18.01-7.94-3.64-21.8-3.26-21.8-3.26-19.07-4.91,18.17-74.26,15.75-72.2,0,0,28.66-60.54,28.66-60.54,0,0-1.55-34.77-1.55-34.77,0,0-6.3-.96-12.28.13s-10.04,3.81-11.76,3.33c-3.51-.98,1.99-7.11,1.47-13.7-1.45-18.04.88-54.01,3.87-59.03,1.64-2.76,6.5-.51,14-3.06s12.04-9.19,16.26-8.11c.66,14.92,2.72,36.63,28.4,38.69,11.18,1.76,15.83-2.42,24.45-9.81s7.2-10.82,9.51-19.76-3.55-15.9-.28-16.03c5.38.5,28.86,5.86,33.94,4.98,6.46-.1,8.53,40.6,8.53,40.6,0,0,3.17,50.94,1.33,50.43-1.35-.38-4.51-9.23-12.91-12.53-7.71-3.03-20.09-5.09-22.46-.3-2.31,4.66,7.64,53.71,7.64,53.71,0,0,11.97,31.4,22.88,55.19,10.91,23.79,21.58,43.55,21.58,43.55,0,0,9.86,13.83,6.02,17.12h0Z"/>
      <g>
        <path class="cls-8" d="m133.65,161.65c-5.59,13.76-21.53,13.18-43.93,14.72-18.13,1.07-38.11.9-43.99-9.93l4.33,12.8h4.67s10.21,3.48,10.21,3.48c16.79-2.29,50-6.81,66.66-5.57l2.05-15.49h0Z"/>
        <path class="cls-8" d="m48.01,146.5c-3.9,8.21-6.33,23.43-5.3,31.75l7.42.85c-10.23-13.05-.19-22.19-2.12-32.6Zm119.2,39.89l-.59-29.83c.32.15-1.36,22.13-4.6,23.19l5.18,6.64Zm-101.36,97.03c-.75,2.96.19,69.75,14.61,74.86.18.23-30.08,16.66-34.22,11.33,4-21.64,13.64-65.15,19.61-86.18Zm79.19,82.57l-22.92-73.02c3.04,15.4,12.73,65.31,16.33,79.68l6.59-6.66Zm36.74-16.68c-5.1-8.19-27.4-43.53-31.66-51.19,5.43,12.44,18.21,42.25,22.58,54.71l9.08-3.52Zm-42.18-121.45l2.91,7.95c-12.38-5.4-34.8-8.73-59.03-11.75-6.59,2.81-31.51-6.13-33.34-7.04l1.73-5.14,27.8,4.93,20.73-.46,21.28,3.55,17.92,7.96Z"/>
      </g>
      <path class="cls-4" d="m133.46,173.17c8.81-5.37,30.33,3.35,32.51,13.23-1.56,10.43-7.05,18.47-10.67,22.09-.24,4.31,3.98,2.81.04,8.79-.35,1.47,1.16,2.19.31,3.77s-3.7,2.54-3.7,2.54c-1.63,3.53-1.98,5.09-9.62,3.87-6.85-.96-15.32-2.84-19.66-7.25,0,0-9.34-3.02-20.68-3.99s-11.26,1.29-24.65.1-22.61-3.91-29.68-5.28c-1.97-.38,1,2.62,1,2.62,0,0-1.17,2.96-1.94,2.7-3.27-1.6-7.93-4.54-5.04-8.03l-2.62-2.44-2.04,5.12c-6.93.21-3.52-7.07-2.09-9.43-.97.98-2.42,2.6-3.55,3.68-1.16,1.12-5.01-.73-3.93-2.69.44-.81,4.58-6.59,4.58-6.59l-.73-2.21c-3.83.3-9.05,2.05-9.83-1.85l7.26-3.54-1.42-6.1c2.51-1.79,18.76-5.47,22.4-3.4,1.38.96,4.35.52,9.3,1.51,3.73.68,6.61,1.74,6.61,1.74,16.05-.36,47.46-6.27,65.94-4.94,0,0-.12-3.08,1.91-4.02Z"/>
      <path class="cls-5" d="m162.03,181s-5.1,20.48-11.4,21.5c-15.8,2.55-29.17-3.16-50.23-4.1-36.15-.87-30.72-1.25-51.61,8.46,0,0,15.22.32,15.22.32,13.07-2.48,10.82-4.08,31.95-2.3,16.03,3.73,45.08,10.83,59.68,6.26,1.43-.4-.49-3.09,1.08-3.78,3.85-1.68,9.45-20.97,9.45-20.97l-4.13-5.39Zm-10.8,42.82c-4.05-1.62-33.65-9.55-45.51-10.4-14.21-.85-51.74-2.81-56.29-6.26l-2.21,3.71,29.51,5.61c11.17-.36,33.99.54,44.86,2.83,0,0,4.48,4.5,17.21,7.7,7.13,1.79,10.99.63,10.99.63l1.45-3.83h0Zm-112.36-18.06l2.61,2.31,2.3-4.54c-1.61-1.29-4.76,1.49-4.9,2.23Z"/>
      <path class="cls-14" d="m59.03,196.77l.14-12.67c-3.78-1.04-30.01,2.1-33.96,5.46l5.34,4.19c4.33.43-3.08,8.2-2.06,9.47.63,1.5,5.85-1.57,5.85-1.57l-.87,4.68,3.98,1.27,1.54-1.92,8.24,4.11,11.82-13.01h0Z"/>
      <path class="cls-11" d="m62.1,83.68l.4,7.41-3.52-2.37c.34,1.9-3.88,5.13-5.07,5.24,3.92-19.37-10.55-8.85-4.51-25.29,0,0,.47.77-3.1,2.46s-5.16,1.56-5.16,1.56c1.47.07,1.99-9.22,2.17-9.79l-4.33,1.54,5.53-13.92c-2.76-3.7,1.55-23.65,6.5-27,0,0,6-5,6-5-2.64-1.81-4.76-9.04,1.5-13,3.42-2.03,8-2.34,8-2.34l7.5-2.65c9.42-1.47,18.69,8.78,21.5,15,17.36,9.67,21.09,28.05,13,46.5l-1-4.5c.51-3.59.21-12.17-6.15-7.52,2.39.5,6.63,9.54,6.65,13.02.59,2.47-1.55,5.24.32,6.5s5.11-.31,5.11-.31c0,0-.84,2.64-3.06,3.45s-6.37,4.36-6.37,4.36c0,0-.36-.68-1.54,3.88s-3.36,9.57-3.36,9.57c-3.37,9.72-4.03,14.68,4.5,22.68-24.34-8.77-8.38-23.36-12.12-38.53l-4.91,5.37c.96-14.35-16.97-14.65-22.4-30.65.66,5.38-2.3,17.04-8.69,20.04,1.55,3.43,5,10.96,6.63,14.28Z"/>
      <path class="cls-9" d="m108.5,73.53c.49,6.52,10.42,13.45,10.23,19.38-.31.5-8.43-2.94-8.28-3.48-.99,1.67,2.13,6.37,3.11,6.85-1.82-.78-5.7-5.61-4.76-8.26-2.28-1.74-3.48-8.84-2.9-11.98.48-1,2.6-2.5,2.6-2.5Zm-12.39-19.29c2.16,4.9-1.55,23.71-3.87,27.13l-.93-6.91c2.5-1.7,5.46-18.62,4.81-20.22Zm-40.5,16.39c-10.71,9.47,2.12-5.26-7.49,3.1l.97-4.29,4.41-3.2.74,1.89-.85,2.67,1.78-1.11.45.94h0Z"/>
      <path class="cls-7" d="m69.17,68.88c-2.09.24-6.32.87-8.37,1.3l-1.96-3.14,1.37-1.67c1.81.12,6.52.44,8.16,1.15l.8,2.36h0Z"/>
      <path class="cls-6" d="m138.17,501.05l-1.89,9.64.3,12.36,6.31,4.88c3.26,3.95,10.17,16.34,12.66,21,3.9,3.51,30.82,15.67,35.44-.01,2.8-6.26-1.45-16.64-1.45-16.64l-10.55-12.34-11-15.33-3.47-9.92-7.98,3.9c-9.06-.21-5.77,6.57-4.68,10.66-5.36,2.42-13.15-4.7-13.69-8.21Zm-52.12-31.68c3.46,0,4.66,18.09,4.42,17.85-2.85,6.87-8.26,21.68-9.96,28.8,0,0-7.87,10.74-13.87,14.47-9.33,4.54-14.77,6.61-19.6,1.86-2.77-3.23-5.19-6.89-4.2-10.4,2.2-8.72,6.36-16.55,5.18-19.58l2.24-1.85,2.81-5.73c-3.35-1.89.3-4.06,1.78-4.67l1.59-4.37c-4.12-1,1.39-3.57,1.93-3.89.93-1.65,7.64-10.6,7.16-12.56,3.22.28,12.74,1.77,13.96,2.85l.51,4.3-1.14,5.64c7.91-1.67,8.88-4.91,7.22-12.74h0Z"/>
      <path class="cls-13" d="m67.8,528.99c-9.29-6.67,5.06-41.9,9.76-46.73,3.42,1.33,8.55-2.84,9.3-5.56,0,0-.63-7.05-.63-7.05,0,0,2.34,1.05,3.36,6.33,2.27,16.87-.36,9.96-6.09,31.56-3.5,14.5-15.7,21.46-15.7,21.46Z"/>
      <g class="cls-3">
        <g>
          <path class="cls-12" d="m139.42,226.81c4.99,19.41,15.6,41.08,23.78,59.71,2.33,5.4,8.29,17.53,10.97,22.89,2.89,3.81,4.14,11.37,7.85,13.57,1.63-.39-3.02-7-3.03-7.68-15.18-28.4-28.72-58.42-39.57-88.49h0Zm43.9,97.02c-3.23-.57,3,7.84,2.92,8.55,1.56,3.13,3.7,7.03,4.29,10.48-4.12,5.13-11.71,6.42-16.8,10.23,4.43-.77,10.52-4.98,14.6-6.98,6.35-2.61.62-9.63-.69-13.84-.16-.11-3.96-8.83-4.32-8.44h0Z"/>
          <path class="cls-12" d="m145.02,277.83c2.71,20.8,12.34,40.53,21.2,59.44,8.79,22.1,12.88,27.88-14.82,27.66-1.83,1.15,1.92.93,2.39.9,27.04,3.25,23.25-9.28,13.99-28.37-9.25-18.95-18.51-39.04-22.75-59.63h0Zm.77,87.8c-1.38-.13-6.38,3.1-5.28,4.48.29.22.7.16.92-.13,1.02-1.85,2.98-3.42,5.12-3.63,3.44.42,1.12-1.1-.75-.73h0Zm-63.75-8.61c-2.25.17-6.06.74-6.55,3.32-.19.14.03.46.23.31.54.07,1.06.1,1.51-.26,7.11-4.34,14.96.91,21.04,4.74,11.94,8.55,31.25,26.75,41.52,6.23.2-.37-.35-.73-.58-.34-2.57,4-6.01,8.13-11.11,8.45-17.88-.67-28.46-21.13-46.05-22.45Zm-72.95-10.95c-5.17.98,15.09,2.26,16.19,3.65,11.71,2.24,6.72,13.95,15.13,18.58,4.25,2.22,10.8,3.74,14.84.79.1-.03.04-.16-.05-.13-34.1,2.79-1.9-21.18-46.1-22.89Zm42.3-132.98c-5.63,18.56-71.11,127.29-44.69,133.46-20.5-17.41,40.91-109.52,44.69-133.46Z"/>
          <path class="cls-12" d="m56.12,281.14c-10.98,26.22-16.08,55.37-19.56,83.63-.05.28.39.36.43.07,3.78-28.29,10.95-56.57,19.12-83.7Zm15.69-18.9c-12.69,33.28-18.93,72.3-25.84,107.49-.08.4.58.6.66.13,6.84-34.9,16.2-73.48,25.18-107.62h0Zm11.77,96.12c0,9.19.77,19.39.42,28.94,2.9,4.87.45-27.68-.42-28.94Zm.93,30.47c-.89.17.14,2.29.11,2.77.38,1.16.86,3.54.98,4.76,1.02,5.36,1.37,12.72,1.32,18.21-.43,6.56-2.18,15.66-2.34,22.32-.23,8.35.2,16.96.67,25.29.27-.66.15,15.99,1.61,12.65-.67-13.21-1.48-28.91-.43-41.99,1.6-14.31,4.6-30.94-1.91-44.02h0Zm-39.31-19.2c-1.33,2.01-.65,5.72-.75,8.21-.08,4.54.32,11.12.58,15.66.86,14.88,6.82,28.96,11.4,42.99,1.54,1.69,12.23,44.53,9.33,28.4-4.26-21.95-14.87-42.42-18.92-64.42-1.8-9.87-.95-21.19-1.64-30.84h0Z"/>
          <path class="cls-12" d="m3.05,326.22c-.03,18.2,20.15,9.47,28.61,18.6,3.78,4.04,5.18,9.82,9.18,13.66,15.91,11.97,30.63-10.89,46.77-7.79,13.4,6.12,3.04-2.78-3.31-1.98-14.75.32-27.81,19.3-42.74,8.98-4.65-4.8-6.1-12.29-12.06-15.98-10.86-5.68-23.12.44-26.46-15.49Zm183.82,7.26c-5.87,4.28-16.71,7.24-17.42,15.64-.04,6.59-5.25,5.68-10.07,6.26-1.99.17-10.71.87-12.49,1.15-13.22.37-7.65,7.38-16.76,12.21-3.39,2.22-6.08.28-8.93-1.68-6.56-1.52-12.41-5.74-17.98-9.37-1.58-1.02-5.19-3.21-6.74-4.24-3.99.27,5.09,4.61,5.83,5.65,5.42,3.34,11.1,7.58,17.29,9.29,2.45.36,4.03,2.94,6.66,3,6.23-.14,10.41-5.73,12.75-10.9,1.36-2.35,5.27-1.77,7.55-2.31,5.64-.72,15.36-1,20.84-2.37,4.57-1.88,2.32-7.72,5.11-10.86,3.09-4.16,7.88-6.6,12.19-9.29.82-.47,3.16-1.83,2.18-2.18h0Z"/>
          <path class="cls-12" d="m116.83,260.39c2.13,37.2,13.37,74.87,21.55,111.3.08.41.77.29.66-.15-.9-5.77-2.42-11.42-3.69-17.11-1.99-8.48-5.08-22.82-6.99-31.28-4.79-20.46-8.13-42.28-11.53-62.76h0Zm-3.24,35.18c3.24,25.08,7.62,56.22,9.92,81.63.55,3.72,1.01.92.64-.98-2.75-25.06-4.63-56.32-10.56-80.65h0Zm13.65-68.07c-4.62.69,1.6,17.2-.26,7.19-.19-1.13-1.31-7.35.95-5.98,2.59,2.32,3.17,6.11,5.03,8.89-.87-3.42-2.09-8.78-5.72-10.1h0Zm-43.72-10.92c-.7.01-.74.68-.53,1.19-.02,4.12-1.14,8.16-2.36,12.07-1.06,4.29-3.64,10.03-3.5,14.16,1.27-3.8,2.87-9.78,4.45-13.87,1.09-3.45,2.04-7.05,2.36-10.66-.2-.85.8-2.69-.42-2.89h0Zm-13.95,157.22c-.18,0,.35,1.31.34,1.39,1.3,3.06.34,6.43-.39,9.52-.01.9-1,2.62.13,3.05,1.12.27.87-3.47,1.14-3.97.61-3.2,1.22-7.49-1.22-9.98h0Zm.16,15.15c-.55.19-.35,2.61.56,2.24.97-.12.03-2.35-.56-2.24Zm-15.48-11.45c-2.01,2.59-1.85,10.99.9,13.08.16-3.09-1.8-6.84-1.12-10.29-.12-.88.82-2.13.22-2.79Zm68.85-157.01c1.66,3.34,11.41,5.8,15.37,7.32,5.77-1.32-14.08-5.11-15.37-7.32h0Z"/>
          <path class="cls-12" d="m155.32,208.79c-1.25,1.19.97,2.9.85,4.32.09,1.38-.99,2.43-1.22,3.71.03,1.12,1.05,2.07.37,3.19-.54,1.55-2.31,1.76-3.31,2.85-3.18,5.23-2.67,4.06-8.8,4.1-.38.05-5.79-1.1-3.79.55,3.56.29,9.76,2.56,11.88-1.26.51-1.1.9-2.41,2.2-2.79,2.59-.98,4.18-3.85,2.94-6.45,1.72-2.47,1.7-6.77-1.12-8.23h0Zm-106.61,1.97c-6.1.1,11.07,3.16,11.58,3.58,15.13,4.53,30.86.96,46.2,3.69,4.03.3,11.43,1.7,15.46,2.39.64.17.95-.86.26-1.02-12.94-2.79-26.21-5.12-39.48-4.05-11.63.99-22.7-2.73-34.01-4.6Zm67.12,165.98c.09,6.22,4.85,11.56,4.66,17.87.52,8.87,1.15,18.77,4,27.23,6.24,18.74,15.05,36.91,13.82,57.21,0,.5.81.54.79-.02,2.19-29.54-14.83-47.79-17.41-75.33-.48-4.28-.46-8.74-.9-13.02-1.55-4.54-3.76-9.38-4.96-13.95h0Zm46.84,33.92c-2.1,18.85-2.71,40.01-2.65,59.49.22,7.93.65,16.01,3.02,23.63.84,1.56-1.75,2.1-2.76,2.65-10.09,3.49-11.34.88-9.07,12.63-4.52,2-9.86-2.43-12.09-6.16-.69-2.39-.24-5-.19-7.45.08-4.57,1.08-9.78-.06-14.07-.42,5.22-.1,11.08-.68,16.5-3.14,8.67,14.7,16.49,13.36,9.71-4.06-12.8,7.78-5.88,12.65-12.82-7.41-27.21-.11-57.07-1.53-84.1h0Z"/>
          <path class="cls-12" d="m155.57,365.87c1.3,4.17,2.36,10.75,3.18,15.23.65,2.26,1.55,5.79,1.81,8.16,1.26,6.53.82,14.21,2.08,20.28,1.34-1.21.02-4.27.25-6.08-.12-1.46-.46-6.29-.63-7.65-1.15-10.05-3.75-20.46-6.7-29.94h0Zm-18.76-194.54c-8.87,0-4.77,10.28-4.74,4.37,1.96-6.01,10.96-2.82,15.51-1.92,8.35,1.51,14.93,6.98,18.98,14.26,3.01.81,1.42-4.45,2.44-6.02.12-1.39-2.05-1.61-2.15-.19.28,1,0,2-.19,3-6.02-10.38-18.62-13.43-29.85-13.5h0Z"/>
          <path class="cls-12" d="m131.84,136c-4.98,8.97.93,19.05,1.38,28.29.07,4.27-3.54,8.12-2.38,12.32.31.93,1.77.43,1.43-.5-.2-.66-.05-1.38.06-2.05,5.78-12.65-4.82-25.2-.5-38.07h0Zm27.67-37.82c.16,4.77,2.82,9.71,3.13,14.68,1.58,10.65,2.49,27.57,3.34,38.29.45,7.15.99,16.82,1.04,23.9.38,2.03-.76,5.36.89,6.67,2.18-3.16.14-8.95.41-12.94,0,0-.93-13.66-.93-13.66-1.84-18.75-.92-39.45-7.89-56.94Z"/>
          <path class="cls-12" d="m123.92,91.26c-4.37,2.09,1.65,9.16.46,12.9-.74,12.71-8.77,24.27-19.86,30.24-7.9,7.29,15.99-7.01,18.32-18.29,2.36-6.37,3.46-13.45.88-19.92-.45-1.59-1.21-4.92,1.54-3.89,9.23,1.63,18.4,3.82,27.79,4.27,1.82.36,4.93-.42,6.09,1.45.08.26.53.12.42-.15-.55-1.78-3.05-1.6-4.51-1.76-10.54-.43-20.82-2.99-31.14-4.87h0Z"/>
          <path class="cls-12" d="m158.24,96.96c-.81.3-1.12,1.31-1.27,2.1-.62,7.02-6.1,3.48-7.95,7.24-.91,1.4.88,2.84.42,4.26-1.01,2.23-4.18,2.68-4.74,5.16-.07.41.6.55.67.12.88-2.5,4.69-2.79,5.4-5.59.24-1.5-1.6-2.58-.51-4.05,1.49-1.32,4.09-.28,5.65-1.65,1.17-.6,4.19-7.62,2.33-7.6h0Zm-64.2,40.18c-5.21-.36-5.62,11.86-2.94,7.69-1.62-6.44,5.08-7.03,2.94-7.69h0Zm-3.77,9.07c-.1-.07-.2.08-.1.15-1.13.89-.26.43.26.42,4.36,2.8,2.55,7.89-2.25,6.44-1.38-1.34-2.09-4.16-.08-5.26.3-.12,1-.6,1.03-.56.55-.13.31-1-.22-.86l.67-.16c-5.32-.37-5.49,6.92-1.17,8.48,5.91.41,7.27-6.81,1.86-8.65h0Z"/>
          <path class="cls-12" d="m88.97,154.52c-2,1.49-1.03,4.78-.84,6.94.15.56,1.02.31.85-.24-.19-.36-.32-.53-.38-.95-.25-1.88.61-3.97.37-5.74Z"/>
          <path class="cls-12" d="m89.53,161.24c-.24-.03-.42.1-.53.31-5.29.28-5.49,7.1-.03,7.24,4.79.03,6.29-7.74.56-7.55Zm-.53.81c.39.49,1.14.4,1.65.68,3.23,1.22.62,5.7-2.17,5.11-4.06-.85-2.95-4.99.52-5.79Z"/>
          <path class="cls-12" d="m88.29,168c-1.36-.01-2.77,10.18-.9,8.34-.33-2.78,1.09-5.84.9-8.34Z"/>
          <path class="cls-12" d="m86.16,175.97c-1.94-.55-4.52,5.17-2.35,3.8.32-.99.94-1.82,1.86-2.31,2.58-1.32,3.64,1.33,4.99,2.52.54-2.02-2.41-4.41-4.51-4h0Zm20.42-96.81c-.89,1.97.08,8.17,2.23,9.18.09-1.47-1.74-3.49-1.7-5.27-.46-1.17.32-3.13-.53-3.9Zm1.08.16c-.92.13.69.89.8,1.29,2.46,4.64-.46,12.98,5.27,15.47-5.56-4.61-1.29-12.7-6.07-16.76h0Z"/>
          <path class="cls-12" d="m110.37,88.83c.79,2.82,10.21,6.09,12.44,4.44-2.53-1-6.25-.65-8.88-2.29-1.23-.56-2.46-1.58-3.57-2.14h0Zm55.53,98.33c-2.53,8.12-5.75,18.88-14.42,22.16,6.8,2.97,15.25-16.92,14.42-22.16Zm-84.09,13.79c-8.93-.09-16.87,2.31-1.56,1.11,12.93-.25,26.37,3.38,39.07,5.31,9.19,1.13,24.24,4.45,31.38,1.61-23.33.86-45.64-8.06-68.89-8.03h0Zm-34.49-59.67c1.46,8.63-.2,12.53-2.34,20.86-1.21,5,.77,16.14,5.68,17.81,1.14-1.85-4.4-7.75-4.09-11.37-2.54-8.75,6.6-19.97.75-27.29h0Zm-15.41-30.77c-.57,1.14.25,2.87.4,4.13.99,7.51,5.89,2.21,8.77,6.4,1.65,2.64,3,6.92,4.21,9.81.17.4.81.13.63-.27-2.04-3.8-2.51-8.55-5.49-11.81-1.54-1.53-3.92-.03-5.48-1.26-1.29-2.05-.66-5.8-3.03-7Zm28.85-12.68c-8.39.66-10.41,9.41-22.91,9.48-1.33-.17-7.55,1.25-6.41,2.55,1.76-1.42,4.44-.97,6.52-1.52,4.91-.18,9.8-1.53,13.84-4.42,1.64-1.61,10.33-8.85,9.36-2.74-1.3,6.65-.52,13.79,3.18,19.56.58.83,1.28,1.89,1.94,2.47-.56-1.18-1.9-4.25-2.41-5.39-4.25-8.88.76-20.42-3.11-20h0Zm-30.25,13.02c-6.8,21.44-.81,45.2-5.77,67.13,1.95,2.26,2.73-12.05,2.91-13.77,1.06-17.74-.91-35.98,2.86-53.36Z"/>
          <path class="cls-12" d="m39.88,177.94c-4.31-.51-12.11,5.4-14.79,3.37,1.19-6.79-5.24,4.49,4.69.95,8.27-3.75,10.59-3.81,19.57-2.47,1.87-1.73-8.16-2.02-9.47-1.86h0Zm81.65-1.38c-15.1.12-30.3,2.17-45.28,3.79-2.45.2-4.85.96-7.31.9-.72.23-3.61-.21-3.34,1.27.48,2.01,5.41-.36,7.04,0,24.18-2.21,50.25-9.66,73.88-1.47-4.98-4.82-17.26-4.17-24.99-4.5h0Z"/>
          <path class="cls-12" d="m65.38,181.48c-3.84.05-9.18.69-13.01,1.11-3.75.28-8.51.69-12.17,1.53-5.06,1.21-17.62,3.75-18.82,8.55,5.21-5.75,14.12-6.36,21.37-7.6,5.13-.92,10.67-1.74,15.88-1.71,1.92-.1,4.8.02,6.73-.03,1.19.03,1.22-1.87.01-1.85Z"/>
          <path class="cls-12" d="m53.72,178.71c-1.76-.84-18.78,4.61-14.64,5.87,0,0,4.67-2.24,4.67-2.24,10.38-5.42,12.19-.88,21.4-.48-.92-1.01-4.28-1.2-5.59-1.76-1.95-.53-3.8-1.33-5.85-1.39h0Zm-26.38,3.97c-.67.59.53,3.26.74,4.08.02-.19.1,1,.55.89.13-.04.15-.31.15-.31.01-.42-.44-1.03-.5-1.47-.14-.48-.48-1.74-.53-2.23,0,0,0,0-.15-.76-.02-.13-.13-.23-.26-.21Zm16.25,7.6c-7.46.61-15.27,5.9-22.45,2.55,3.02,4.41,10.69,1.01,15-.19,2.4-.94,5.54-1.43,7.89-1.95.1,0,.1-.16,0-.16-.14-.08-.28-.21-.43-.24h0Z"/>
          <path class="cls-12" d="m37.55,191.6c-3.32,1-13.56,10.27-9.35,13.52.52.96,4.77.66,2.81-.11-1.06.68-2.92-.21-3.37-1.34-.39-2.48,2.42-4.18,3.55-6.13,1.84-2.39,4.78-3.69,6.92-5.55.1-.03.05-.23-.06-.19-.16-.06-.32-.18-.5-.19h0Zm5.1,4.08c-3.82,2.2-10.1,4.74-11.05,9.39,2.74-3.59,7.14-6.73,11.37-8.79.39-.21.08-.82-.32-.6Z"/>
          <path class="cls-12" d="m35.16,200.99c-1.54,1.61-3.76,6.69-2.26,8.58.2-.03.34-.23.31-.44-.58-2.81,1.16-5.68,1.96-8.15h0Z"/>
          <path class="cls-12" d="m42.21,203.12c-3.65.53-5.02,4.46-5.46,7.66-1.17.11-2.74.12-3.36-1.08-.1-.17-.3-.23-.47-.13-.47,1.78,3.06,2.26,4.29,1.63.81-3.53,1.91-8.45,6.62-7.84.2-.44-1.25-.27-1.62-.24h0Zm-11.72-9.32c-.49.77.33,1.55.69,2.16.36.51,1.13-.1.77-.58-.26-.33-.47-.87-.72-1.21-.04-.04-.49-.61-.74-.37h0Z"/>
          <path class="cls-12" d="m43.98,203.05c-2.15.63-3.65,6.03-4.13,8.16,1.67,2.14,8.5,9.22,8.64,2.76.22-.63-1.67-4.43-1.85-2.65,1.31,1.07,2.19,4.09.16,4.81-2.4-.9-4.78-2.97-6.23-5.08.7-2.47,2.5-5.37,3.44-7.69.07-.09.06-.23-.03-.31h0Z"/>
          <path class="cls-12" d="m49.18,206.26c-.41-.2-.83,1.38-1.01,1.56-.35.98-.8,1.95-1.32,2.86-.21.1-.23.61.15.31,1.34-.12,2.59-3.68,2.18-4.73h0Z"/>
          <path class="cls-12" d="m70.78,202.15c-6.1,4.02-14.45,3.27-21.36,4.61-1.49,1.02,3.93.2,4,.32,5.95-.3,12.84-.62,17.74-4.37.35-.24-.03-.81-.39-.57Zm-31.73,3.44c-.12-.09-.26.08-.14.18.08.05.98,1.28,1.1,1.27l.11.31c.05-.06.6.73.68.89h.14c.44.36.73-.16.53-.56-.38-.66-1.16-1.52-1.81-1.95,0,0,0,0-.6-.13ZM103.83,77.07c-1.32,1.13-2.25,6.96-2.98,8.67-.44,1.57-1.58,3.62-2.04,5.13,2.58-3.79,3.98-9.56,5.02-13.81h0Zm5-2.24c-.89,1.38,6.5,12.57,6.95,10.47-2.57-2.76-5.59-7.22-6.95-10.47Z"/>
          <path class="cls-12" d="m115.75,85.8c-.18.79,1.44,3.02,1.49,3.89.24.64.73,2.03.9,2.68,2.05,1.21-1.64-6.35-2.39-6.56h0Zm-7.26,2.65c-.41,2.95,2.35,5.95,4.7,7.48-1.91-2.27-4.33-4.43-4.7-7.48Zm5.04-19.47c-.87,2.04-2.68,3.71-4.9,4.15,1.91,1.12,5.23-2.24,4.9-4.14h0Z"/>
          <path class="cls-12" d="m113.49,69.04h.01c-1.4.49-3.06,1.29-4.5.49l-.25.33c.51.98,5.54,0,4.74-.82h0Zm-5.23,4.2c-1,1.28-2.69,2.54-4.13,3.53-.55.16-1.19,1.22-.19,1.02,1.65-1,3.93-2.73,4.33-4.55h0Z"/>
          <path class="cls-12" d="m108.55,73.42c-1.61-.17-3.58-.93-5.18-1.64-.43-.39-1.66-.36-.97.38,1.72.87,4.39,1.89,6.16,1.26Zm-3.03-24.7c-.87-.8-5.59,1.11-3.81,1.53,6.88-4.89,5.36,5.15,5.77,9.01.42,1.07.2,3.06,1.15,3.63.7-1.42-.99-3.61-.81-5.32,0-2.86.68-7.22-2.3-8.84Zm1.12-23.79c3.43,4.42,4.78,12.04,5.64,18.14,0,0,.27,2.82.27,2.82.04,1.87-1.75,5.21-.92,7.14,4.05-5.27.31-24.08-4.99-28.1h0Z"/>
          <path class="cls-12" d="m111.32,53.03c-.8-.15-.63,2.01-.82,2.4-.38,1.65-.94,3.55-2.5,4.29,2.05,1.41,3.22-2.52,3.4-4.1-.08-.41.79-2.57-.08-2.6h0Z"/>
          <path class="cls-12" d="m109.88,58.66c-.98-.07.38,1.29.63,1.63,2.08,2.21,2.15,5.69,2.99,8.11,1.04-2.14-1.07-8.78-3.61-9.74h0Zm-.6-19.78c.25,3.6-.1,7.72-1.48,10.76,2.32-2.3,1.96-7.5,1.48-10.76h0Zm-23.97-25.9c-2.77-.05-3,1.19.02.9,9.76-.27,18.99,6.81,21.11,16.34,1.09,4.38,2.82,7.07.66.47-2.08-10.19-11.24-18.03-21.79-17.71h0Zm-29.81,56.05c2.56,12.14,17.61,37.36,32.42,24.47-9.35,7.01-20.6-.95-25.76-9.55-3.22-4.39-3.64-10.91-6.67-14.92h0Zm42.81,24.11c-3.47,6.19-1.51,16.86,5.57,19.86-6.99-4.32-7.03-12.86-5.57-19.85h0Zm-8.65,5.68c-.2,6.94,7.53,13.25,14.05,14.37-6.5-2.62-12.42-7.33-14.05-14.37Z"/>
          <path class="cls-12" d="m62.18,85.22c-1.2,1.31.42,4.21.1,5.94.36.65.9-.04.5-.54-.07-.95-.23-3.33-.27-4.32-.09-.38.21-.99-.33-1.08h0Z"/>
          <path class="cls-12" d="m62.6,91.66c.83-.49-3.56-3.19-3.66-2.63-.28.39.09.38.34.46.18.13.64.45.85.57.91.22,1.75,1.85,2.46,1.6Z"/>
          <path class="cls-12" d="m58.97,88.71c-.92.94-1.36,2.66-2.67,3.47-.7.76-2.12.94-2.54,1.84,1.57.19,6.03-3.6,5.2-5.31Z"/>
          <path class="cls-12" d="m49.44,68.74s-.09.02-.1.07c-7.5,14.83,7.84,6.6,4.67,25.37,4.01-16.93-9.04-11.71-5.09-22.48.16-.83,1.03-2.03.58-2.86,0-.04-.02-.09-.06-.1h0Z"/>
          <path class="cls-12" d="m53.71,65.74c-2.13,1.79-5.43,3.92-8.45,5.03-.19.28-4.97,1.83-4.42,2.52.06.92,5.65-2.47,5.94-2.42,2.16-1.22,6.18-2.96,6.92-5.13Z"/>
          <path class="cls-12" d="m43.37,62.22c-1.83,2.67.08,7.09-1.98,9.95-.22.25-.79.42-.37.81,2.75-2.08,1.96-7.64,2.34-10.76h0Z"/>
          <path class="cls-12" d="m43.19,62.21c-.18.01-.54.19-.69.28v.05c-.79.35-1.92.97-2.88,1.19.33-.26-1.07.4-.96.84.35.38.86.32,1.27.16.56-.02,4.77-2.17,3.26-2.52Z"/>
          <path class="cls-12" d="m49.84,34.33c-1.07,4.24-3.81,10.72-5.64,15.11-1.27,4.52-3.79,10.57-5.57,14.92-.2.44.49.76.69.31,2.67-5.49,4.32-11.47,6.39-17.2.88-2.18,3.16-7.87,3.71-10.1-.09-.24,1.23-3.1.42-3.05h0Z"/>
          <path class="cls-12" d="m43.78,46.82c-.54.26-.22.84-.16,1.24.16.5.14,1.54.59,1.81.3-.38-.05-1.4-.03-1.89-.06-.33.15-1.08-.4-1.16ZM62.91,14.44c-12.45,4.97-21.1,18.92-19.36,32.08.12-13.26,7.49-25.51,19.64-31.57.32-.16.06-.71-.28-.52Zm5.65-1.39c-6.51,4.37-7.77,14.42-6.42,21.34.81-6.96.7-15.74,6.81-20.82.33-.24-.05-.78-.39-.52h0Z"/>
          <path class="cls-12" d="m75.35.03c-3.22-.25-6.04.98-8.72,2.57-6.4.29-14.08,5-12.33,12.37.08,1.92,4.08,5.53,1.56,1.58-3.71-7.19,4.65-12.93,11.16-12.79,2.96-1.65,6.18-2.74,9.64-2.24,8.21.36,13.68,7.92,18.34,13.84,4.38,1.52-2.85-6.38-3.69-7.27C87.28,3.35,81.79-.32,75.35.03Zm-22.04,65.69c-.16.11-.2.31-.1.47,1.24,1.3.49,3.21-.32,4.42.03-.06-.45.68.02.48,2.08-.57,2.29-4.83.4-5.37h0Z"/>
          <path class="cls-12" d="m61.57,62.24c-1.36,4.49-6.48,6.36-9.27,9.26,3.6-1.19,8.75-5.07,9.26-9.26h0Zm34.11.16c-1.77,6.75-4.26,12.26-9.22,17.42,4.69-2.77,8.95-11.09,9.22-17.42h0Z"/>
          <path class="cls-12" d="m82.79,69.45c2.6,2.89,3.73,7.26,3.77,10.68,1.03-3.17-.95-8.4-3.77-10.68h0Zm10.71-25.55c1.57,4.85,2.57,10.32,2.18,15.44,1.34-5.04-.19-10.78-2.18-15.44h0Zm-23.83,49.86c-1.96,3.48-3.98,4.57-7.58,5.4,0,.63,1.27.1,1.57.13,2.69-.12,6.23-2.73,6-5.53h0Zm-.71,12.03c-1.25.54,4.27.99,4.24,1.13,5.76,1.24,12.92,3.57,14.64,9.77-.97-7.95-12.16-10.05-18.88-10.9h0Zm30.44,5.5c-.34-.33-1.09,2.18-1.22,2.26-.27.62.51-1.25.72-1.89-.5.75-1.08,2.39-1.46,3.32.89-1.59-.77.99.05,1.23.65.24.97-2.2,1.2-2.48.28-.71-1.09,3.06-.42.68.16-.85.59-1.91,1-2.53-.56,1.51.33-.34.13-.58Zm18.35-10.5c-5.03,4.1-12.74,5.39-17.65,9.42,5.87-2.54,12.13-5.93,18-8.85.35-.22.01-.81-.35-.57Zm-37.39-12.66c-3.19.19-7.57-.12-9.73,2.63-.34.44.34.96.67.5,1.73-3.05,20.02-1.99,9.06-3.13h0Zm-16.49-28.05c-1.34-.19-3.25,1.51-1.12,1.89,0,0,2.44.37,2.44.37.66.1-1.31-.19-1.96-.34-.13-.03.26-.03.4-.02,1.12.37,2.73-.13,3.61.63-1.5-.16,0,0,.37.1,1.85-.15-2.91-3.16-3.74-2.63Zm6.78,12.29c-.53,1.17.41,3.1-.23,4.53-.32,1.46-.83,2.66-.43,4.16.51,1.27,2.16,3.12,3.61,2.43.09.05.14-.11.06-.14-.24-1.43-2.23-1.41-2.68-2.82-.56-2.49,1.33-6.14-.34-8.16Zm6.73,18.35c-.77-.11-5.71.69-3.45,1.63,1.29-.32,3.15-.91,4.5-.81,1.51.18-.4-1.02-1.04-.82Zm-18.22-24.08c-.71-.14-.68.78-.65,1.12.1.22.76.87.93,1.05.42.39.97,1.42,1.66,1.04.08-.51-.13-.81-.05-1.28-.53-.62-1.24-1.46-1.89-1.93h0Zm18.99-1.72c-.57-.18-.62.59-.67.95-.04.37-.36,1.29.29.84.35-.61.18-.29.34-.61.14-.28-.37.69-.23.47.27-.35,1-1.34.27-1.65Zm-15.65,3.93c-.12-2.44,4.08-3.27,4.13-.56,0,1.24-.51,1.15-1.62,1.15s-2.51.64-2.51-.59Z"/>
          <path class="cls-12" d="m59.71,64.43c-2.7,3.73,8.9.77,9.02,4.4.1.42.75.26.64-.16-1.25-3.84-6.66-2.9-9.67-4.24h0Zm78.34,436.36c-2.15,1.37-3.65,24.75-.61,21.92-1.11-7.19-.74-14.98.61-21.92h0Z"/>
          <path class="cls-12" d="m136.63,522.78c-1.97-.14,2.09,2.22,2.2,2.42,5.8,4.31,9.57,11.58,12.3,18.13,5.86,12.83,32.09,21.19,40.03,6.6.77-.95,2.55-7.52-.05-4.91-2.51,16.71-25.69,11.66-34.8,3.47-7.19-8.25-9.2-20.21-19.69-25.71h0Z"/>
          <path class="cls-12" d="m136.64,518.65c-1.13.53,2.08,1.36,2.52,1.58.34.23,1.37,1.1,1.73,1.37,3.58,2.61,6.04,6.91,8.19,10.71,3.04,5.01,6.13,11.46,10.6,15.34,7.93,5.41,21.39,9.61,29.18,2.01,8.13-6.89-3.45-26.79,1.51-11.82,3.53,16.61-17.5,17.48-27.67,10.84-11.55-7.11-12.83-25.49-26.06-30.03h0Z"/>
          <path class="cls-12" d="m164.05,530.78c-.33,3.6-.89,8.11-3.5,11.37-.12.71-3.03,2.99-2.02,2.91,3.02-3.45,7.73-9.93,5.52-14.28h0Zm16.54-3.18c-.47.69.79,1.59,1.16,2.13,2.43,1.33,5.67,1.07,7.34,3.47-.86-3.23-5.49-2.44-7.26-4.87-.28-.23-.78-1.15-1.24-.73h0Zm-12.07-20c-1.43-1.09-4.31.6-5.89.87-2.84.65-6.16,1.32-8.53,3.11-2.71,1.02-4.9,8.23-.11,5.52,2.96-1.87,17.14-4.91,17.02-8.03l-.39-.57c-.35.01-1.04-.02-1.36.16.17.23.37.58.23.87-2.46,1.88-10.01,4.27-12.93,5.6-1.52.3-3.06,2.01-4.48,1.81-.39-4.95,6.25-6.76,10.08-7.79,1.44-.48,3.93-1.38,5.4-1.58.72.52-.04-.1.96.03Zm5.4,7.1c-5.41.99-11.18,2.31-16.06,4.92-4.57,1.8-5.38,7.8.85,4.9,4.46-1.78,10.69-3.91,15.4-5.01,1.11-.38,3.41-.55,3.5-2.07-.08-.99-1.14-1.54-2.01-1.08.13.39.24.9.58,1.15-5.45,1.96-11.38,3.12-16.67,5.71-.6.14-3.46,1.25-4.03,1.13-1.4-4.9,11.99-7.12,15.48-8.27.74-.26,3.33-.39,3.89-.93-.13-.22-.49-.61-.93-.44h0Z"/>
          <path class="cls-12" d="m176.37,522.15c-3.36.37-10.26.76-11.75,4.07.42.18.93-.11,1.25-.37,4.58-2.05,11.97-4.79,16.07-.83-.36.43-1.2.56-1.7.76-5.74,1.03-10.87,4.06-16.67,4.77-1.09.18-2.28.41-3.36.08-1.7.59.3-1.84.79-2.28.17-.15.33-.33.19-.65-1.14.14-2.49,2.06-1.62,3.08,1.75,3.11,13.51-2.66,16.67-3.21,1.03-.31,3.14-.88,4.19-1.13,6.09-1.41-1.2-5.09-4.06-4.31h0Zm-15.77,1.47c-.69,1.22.97,2.26,1.54,3.21-.62-1.29.17,1.09.71.7.38-.35-.27-1.15-.35-1.49-.38-.46-.78-1.18-1.02-1.72,0,0,0,0-.37-.5-.09-.2-.32-.28-.51-.2h0Z"/>
          <path id="H" class="cls-12" d="m156.19,515.07c-.73,1.25,1.38,2.81,1.81,3.64-.63-1.29.17,1.09.71.7.38-.36-.27-1.15-.35-1.49-.41-.56-1.03-1.51-1.28-2.15,0,0,0,0-.37-.5-.09-.2-.32-.28-.51-.2h0Z"/>
          <path class="cls-12" d="m169.19,511.07c-.73,1.25,1.38,2.81,1.81,3.64-.63-1.29.17,1.09.71.7.38-.35-.27-1.15-.35-1.49-.41-.56-1.03-1.51-1.28-2.15,0,0,0,0-.37-.5-.09-.2-.32-.28-.51-.2h0Zm5,8c-.76,1.12,1.18,2.53,1.54,3.21-.62-1.29.17,1.09.71.7.38-.35-.27-1.15-.35-1.49-.38-.46-.78-1.18-1.02-1.72,0,0,0,0-.37-.5-.09-.2-.32-.28-.51-.2h0Zm-23.13-10.43c-.26.39.06.75.21,1.08.42,1.04,1.45,2,2.14,2.84.91.04-1.54-4.34-2.34-3.92Zm13.12-14.45c-.24.38-.12.87.19,1.18.06.3.82,2.74.93,3.1.78,2.25,1.62,6.12,2.25,8.35,2.18,1.82.38-3.09.03-3.89-.49-1.45-1.97-5.91-2.55-7.24-.34-.51-.13-1.33-.85-1.5h0Z"/>
          <path class="cls-12" d="m169.21,505.78c4.38,9.44,12.12,18.5,19.54,25.84-6.87-8.08-13.22-17.47-19.54-25.84Zm-82.6-36.24c3.75,4.66,2.96,12.56,3.44,18.39,2.3,3.29-.37-19.04-3.44-18.39Z"/>
          <path class="cls-12" d="m90.7,487.21c-.36-.09-.72.14-.8.5-.85,3.11-2.7,5.73-3.7,8.8-1.88,4.6-3.46,9.97-4.63,14.73-4.81,14.94-33.46,36.67-39.31,11.53,2.59,24.59,33.17,7.28,38.67-7.08,3.38-6.38,2.85-12.21,6.58-17.67.17-1.73,5.02-9.72,3.2-10.82Zm-1.01-2.37c-1.53,3.25-3.38,9.02-5.19,12.69-1.21,2.89-3.05,6.58-3.71,9.66-5.76,11.35-15.59,24.84-29.83,23.75-4.37-.45-5.24-5.98-8.24-8.13.65,1.61,2.13,3.28,2.99,4.96,11.05,14.18,30.1-8.41,35.29-18.73,1.07-2.51.78-4.58,2.13-6.73,2.11-5.14,5.35-11.86,6.56-17.46h0Z"/>
          <path class="cls-12" d="m64.16,506.81c-4.2,3.18,10.32,8.75,7.11,14.03.67,1.5.93-1.56.85-2.15-.82-5.02-6.87-7.18-7.96-11.89h0Zm-11.22-1.92c-.62,5.32-9.81,5.53-8.8,11.06.55-4.57,12.53-6.2,8.8-11.06Z"/>
          <path class="cls-12" d="m45.34,513.84c-2.4,1.48-3.56,6.38-2.34,9.08.2.54,1.05.22.84-.32-.91-3.02,1.07-6.1,1.51-8.76h0Zm19.96-45.89c-.35.08-.57.43-.48.77.17,2.47,1.2,5.21,0,7.55-.22.37-.57,1.43.26,1.02,2.26-1.17,2.38-8.37.22-9.34h0Z"/>
          <path class="cls-12" d="m65.73,469.13c-.93.93,3.22.88,3.97,1.08,2.98.19,6.34,1.2,9.14,2.27,2.84-.89-4.09-2.75-5.11-2.81-2.31,0-5.64-.48-8-.55Z"/>
          <path class="cls-12" d="m79.12,471.2c.14,3.37.76,6.65-1.83,9.77-.52.92-2.1,2.03-1.49,3.15,4.78.4,6.17-10.35,3.32-12.92h0Zm7.42,3.21c-.27.06-.26.34-.24.57,0,.15.02.49.02.66-.33,1.01,1.55,1.32.82-.36-.02-.08.02.21.1.24.02-.13-.14-.54-.22-.73.14.5-.13-.62-.47-.39Z"/>
          <path class="cls-12" d="m86.96,476.03c-.99.63-1,2.71-2.23,3.45-.68.53-1.7.86-2.47,1.26-1.16.56-2.91.14-3.47,1.5-.23.04-.17.42.07.37,3.43,1.75,8.79-3.11,8.11-6.58h0Zm-22.62,4.97c-3.48-.07-8.44-.13-9.96,3.69-.16,1.84,2.35,1.44,3.5,1.61,5.63.33,11.9.89,16.86,3.77.15-.06.43-.04.58,0,.45-.16,1.45-1.17,1.8-1.5.55-.04.85-.89,1.16-1.63-1.3,1.34-1.7,1.51-3,2.36-3.93-2.88-9.3-3.35-14.08-3.82-1.14-.16-4.66.18-5.68-.24-.74-2.11,3.67-3.21,5.25-3.34,3.22-.3,6.98.14,10.08,1.11,2.96.47,5.9,1.05,7.47,3.87.34-2.98-4.15-3.94-6.49-4.42-2.35-.6-5.07-1.24-7.48-1.47h0Zm-8.01,8.56c-1.28.08-2.72.33-3.79,1.1-1.73,1.74-1.82,5.23,1.48,4.53,6.96-1.82,12.02.78,18.13,3.53,1.27-.35,1.43-2.01,1.93-3.03,1.13-3.29-4.79-3.98-6.98-4.45-.59-.03-1.17.46-.34.74,2.23.31,4.52,1.13,6.25,2.6.28.3.18.27.05.6-.34.82-.36,1.85-1.03,2.5-9.14-4.23-9.48-4.48-19.61-3.52-.1-1.66.52-3.39,2.47-3.19,2.73-.3,6.13-.25,8.82.19.26.12.6-.05.8-.11.36,0,.13-.36,0-.52h0c-2.27-1.25-5.63-.81-8.17-.96h0Zm-1.85,10.18c-2.22.21-5.2,0-6.76,1.94-.94,1.08-.55,2.93.88,3.26.52.18.85-.61.34-.84-2.59-4.89,10.26-3.06,12.81-2.92,2.32.47,5.21.9,7.34,1.9-.58,1.04-1.33,2.17-1.64,3.37-5.55.37-12.4-1.92-17.68-1.92-1.01.63.72.68,1.17.66,4.7.47,11.44,1.98,16.11,2.14,1.02.12,1.19-.79,1.51-1.53.53-.92,2.21-2.53.96-3.5-4.58-1.97-10.08-2.61-15.05-2.56h0Zm-4.72,5.39c-.34-.02-1.1-.18.06.07-.03,0-.03-.06-.06-.07Zm-.82-1.03c.29.2.79.36-.05-.05.02,0,.03.04.05.05Z"/>
          <path class="cls-12" d="m57.27,494.73c-1.22-.39-4.03,6.75-2.04,5.63.51-1.83,1.96-3.92,2.04-5.63h0Z"/>
          <path id="I" class="cls-12" d="m68.73,496.08c-1.22-.4-4.03,6.74-2.04,5.63.51-1.83,1.95-3.92,2.04-5.63h0Z"/>
          <path class="cls-12" d="m73.73,488.08c-1.22-.4-4.03,6.74-2.04,5.63.51-1.83,1.95-3.92,2.04-5.63h0Zm-14-2.02c-1.17-.25-4.06,4.39-2.04,3.79.51-1.25,1.99-2.69,2.04-3.79h0Zm5.47-9.35c-.45-.42-1.27,1.89-1.48,2.03-.44.73,1.25-2.44.56-1.4-.61.84-1.3,2.08-1.54,2.98.72-1.17,0,.01-.1.39-.18.57.7.82.87.26,0,0,.87-1.93.87-1.93.22-.54-.49,1.06-.76,1.58.3-.95.81-2.26,1.45-3.16-.7,1.38.49-.51.13-.74h0Zm-.11-5.47c-1.35,1.53-2.12,4.23-3.71,5.92-2.76,3.09-3.75,7.16.11,1.29,1.38-1.97,4.05-4.81,3.6-7.21h0Zm-8.67,14.63c-.16-.03-.35.23-.35.23v.2c-.4,1.22-1.09,2.37-1.78,3.46-.14.83.59,1.2,1.17.58.28-.78.8-2.19.99-3.05.03-.45.44-1.08-.03-1.42Zm-3.48,8.61c-.83.51-.58,2.35-1.38,3.16-.34.57-1.33,2.21-1.52,2.82.48,2.36,2.16-2.37,2.33-3.1-.05-.3,1.36-2.84.58-2.89Zm-4.43,9.84c-.59-.28-.89,2.02-1.09,2.26-.4.81-1.52,3.8-1.86,4.7-2.23,4.32-.57,4.71,1.17.48.65-1.56,1.1-3.3,1.38-4.97-.04-.78.98-1.89.4-2.47h0Z"/>
        </g>
      </g>
    </g>
  </g>
</svg>