<svg xmlns="http://www.w3.org/2000/svg" xmlns:xlink="http://www.w3.org/1999/xlink" width="171" height="610" fill="none" xmlns:v="https://vecta.io/nano"><path d="M150.482 112.356l7.882-14.942 5.663-9.137s2.387-4.995-.478-8.322l-6.693-7.849s-2.454-5.232-7.032-12.758S138.545 42 138.545 42l-5.296-12.872-.848-13.849c-.152-2.472-3.323-7.554-4.661-9.729-1.746-2.841-6.071.572-6.071.572-2.693-4.803-7.005-1.127-7.005-1.127s-2.584-2.732-4.538-2.853-3.274 2.366-3.274 2.366l-1.328-.125s-2.149-2.334-3.887-2.381-4.236 2.378-4.236 2.378-3.409-2.195-5.572-1.981-3.003 2.551.86 9.647c4.279 7.859 13.723 21.032 13.723 21.032l4.87 2.781s6.786 9.955 10.843 22.105 7.521 27.643 7.521 27.643l-4.194 2.751s.063 5.476 7.704 12.862c5.279 5.102 7.069 6.759 11.4 9.543s5.925 1.594 5.925 1.594zm-10.555 304.178s-2.654-10.271-10.888-13.121-22.122.362-22.122.362l-20.757 11.23s-6.73-1.321-8.273 1.214c-6.175 10.147-10.827 26.882-16.654 39.224-5.619 11.902-17.611 27.417-17.611 27.417s1.217 5.039 4.999 7.7 12.654 4.138 12.654 4.138l.641-5.069 5.448-2.691 31.758-39.188s-12.538 18.262-12.538 34.231c0 13.102.623 13.343-1.029 26.07s-5.578 24.846-5.578 24.846l-9.619 23.272s1.661 7.834 6.085 10.11 12.428-.683 12.428-.683c3.936 1.18 2.547-5.645 2.547-5.645l4.732-3.094s9.769-25.394 18.286-43.803 21.611-40.034 21.611-40.034 7.918-20.038 8.573-25.977c.65-5.904-4.693-30.509-4.693-30.509zM73.652 137.516l2.439 6.454 5.277-7.727L88.5 143.5l5.8 21.962-7.563 12.672-10.54 10.087-18.02-1.695-14.233-10.487-9.214-15.258s7.651-2.982 9.043-7.648c1.978-6.631-3.473-19.496-3.473-19.496l-2.447-32.487L51.8 81.244l12.112-4.259L80.755 88.76l2.741 12.407s.897 11.862-1.344 21.85-8.5 14.5-8.5 14.5z" fill="#f5e8d6"/><path d="M145.97 110.238c11.54-18.512 13.343-26.282 13.343-26.282s-1.324-.88-8.075-14.824-18.931-40.955-18.931-40.955l17.497 31.559 9.207 14.987s4.975 3.877 5.54 5.814c1.079 3.706-1.42 9.069-1.42 9.069l-10.29 17.181s-.295 3.858-2.012 4.722-4.859-1.27-4.859-1.27zM71.314 430.104s8.305 4.797 7.129 19.723-10.009 35.409-10.009 35.409l15.313-16.944 17.085-22.872s-9.611-12.414-10.939-21.126 5.625-13.722 5.625-13.722-5.894 2.798-10.423 4.235-7.692 1.513-7.692 1.513l-6.09 13.784zm66.403 38.187s-18.324 23.467-29.376 46.315-15.228 44.139-15.228 44.139l3.63-2.555s6.824-23.728 18.637-45.045c11.594-20.925 22.337-42.854 22.337-42.854zM41.51 128.195s11.451 18.11 26.765 22.623c2.713 1.7 8.551-.628 8.551-.628s3.202-1.298 5.584-3.593 3.686-8.244 3.686-8.244l-5.238-5.339-5.634 7.643-1.065-3.905s-3.879 4.119-12.463 2.513-20.184-11.07-20.184-11.07z" fill="#e3caba"/><path d="M51.976 254.011s1.211 23.4-12.439 48.4c-13.475 24.679-9.235 40.523-16.511 61.613s-14.402 23.01-13.723 27.307c1.542 9.747 15.267 10.305 26.743 10.665 8.673.272 8.48-4.307 18.275-1.327 9.666 2.94 2.742 12.658 22.102 15.064 14.989 1.863 19.553-8.773 36.958-11.87 22.012-3.916 24.213 11.515 26.916 12.421 2.781.932-3.617-16.955-3.617-16.955s3.571-3.586 7.578-3.914c3.931-.321 8.271 2.624 11.257 1.753 4.542-1.324 4.299-7.777 4.299-7.777s11.746-5.791 10.645-9.118c-7.724-23.344-11.683-55.798-23.288-87.948-13.035-36.115-22.018-38.118-21.478-62.579.441-19.997 2.788-37.744 2.788-37.744s5.287-6.487 3.606-15.165-11.381-19.343-11.381-19.343 21.272-31.138 31.556-43.146c1.073-1.253.415-4.804.415-4.804s-1.965 3.36-4.655 2.178c-7.783-3.421-21.921-16.586-22.323-23.209-.27-4.436-12.379 14.243-22.494 23.022-3.204 2.781-8.049 1.459-9.449 4.016-2.401 4.386-2.315 7.474-2.315 7.474s-3.545 2.164-4.677 4.514.15 4.883.15 4.883l-1.358 8.285s9.274 19.256 2.398 29.419-13.548 14.355-26.511 12.058c-13.749-2.436-22.772-25.942-27.78-26.698-4.182-.631-12.115 3.761-17.518 9.702-5.017 5.516-10.954 8.428-13.27 11.985-1.376 2.114 3.681 36.092 3.681 36.092l-.132 36.856c.039 2.094 12.566 4.485 13.849.064 3.204-11.04 19.344-23.862 19.344-23.862l12.359 27.688z" fill="#c46b57"/><g fill="#a05b52"><path d="M131.103 179.689s.544 2.904-7.313 9.28-21.447 15.412-28.593 18.528c-19.165 8.358-52.314 1.746-52.314 1.746l3.197 13.238s11.367 3.259 24.519 3.259c6.228 0 12.256-6.723 26.246-13.501s30.756-10.419 30.756-10.419l.979-9.908s2.626-3.621 3.256-6.677-.733-5.546-.733-5.546zm21.741-69.521c-.922.175-1.988 1.816-3.769 1.927s-3.359-1.013-3.359-1.013-15.335 11.707-22.736 20.474-6.471 9.495-6.867 14.594 4.444 10.507 4.444 10.507l31.898-43.858M116.09 327.443s4.104 14.123 8.517 19.119c2.344 2.652.468 12.841.468 12.841s2.882 8.115 9.392 17.475 16.65 19.968 16.65 19.968-7.476-2.35-10.776-.88-2.421 6.761-2.421 6.761l-16.582-49.565-5.248-25.719zm30.771 3.194s6.324 17.84 11.793 31.143 11.645 15.375 10.083 22.07c-.64 2.742-8.278 5.405-8.278 5.405l-1.7 2.68-5.166-30.793-6.732-30.505zm-90.245 69.929s-5.556-10.212-7.927-25.247-1.558-34.893-1.558-34.893-5.306 31.658-10.044 47.112-8.907 14.704-8.907 14.704 9.326.484 15.871-1.553c6.815-2.121 12.565-.123 12.565-.123z"/><path d="M47.628 220.287l-14.129 11.542s4.256-9.951 3.315-19.593-6.884-19.271-6.884-19.271 4.124 1.142 7.576 6.121 6.231 13.794 6.231 13.794l3.892 7.407zm-2.511 71.364l35.256-30.504s1.075 1.014 4.26-1.206 8.481-7.673 8.481-7.673l10.785-2.5 1.27-3.812s3.744-6.679 1.176-10.575c-1.176-1.782-10.835-2.007-10.835-2.007l-10.024 4.656s15.31-3.229 16.337-6.2c.667-1.932-1.898-6.092-1.898-6.092l-12.884 6.092-12.883 14.126-22.052 12.019s-.037 7.12-1.544 13.829-5.445 19.847-5.445 19.847z"/></g><path d="M10.846 252.322l1.328 9.694s1.648 6.003 5.9 10.402 11.105 7.192 11.105 7.192l6.652-3.804 24.228-36.184 10.788-15.356s2.654 1.18 7.184-2.062S88.97 211.3 88.97 211.3s5.943-1.774 7.875-2.589c1.395-.589 1.442-5.204 1.442-5.204s2.392.653 2.971-1.164-.656-6.106-.656-6.106 1.352-5.626.775-6.562c-.717-1.162-7.445-2.505-7.445-2.505l2.349-1.73c4.033.182 4.122-2.824 4.122-2.824l-2.925-3.688-14.023 2.167c-3.921 2.68-8.284 5.118-10.925 8.641-6.258 8.347-9.568 16.38-9.568 16.38l-30.802 27.222c-10.653 10.632-11.705 17.889-12.82 18.742-1.051.803-8.493.242-8.493.242z" fill="#f5e8d6"/><path d="M23.842 277.562l16.6-22.482s9.804-14.279 18.9-23.251 12.95-10.207 17.485-12.636 9.568-6.705 9.568-6.705-3.404 5.27-7.252 8.264-8.139 3.711-8.139 3.711l-30.282 44.088s-4.293 8.332-8.086 10.253-8.795-1.242-8.795-1.242z" fill="#e3caba"/><path d="M71.149 553.184s-2.081-1.35-2.623 3.26c-.708 6.038-1.104 20.758-1.104 20.758s-2.03 3.368-1.15 3.829c7.631 4.015 27.869 18.259 27.869 18.259s6.313 5.702 14.504 8.082 10.763 2.142 18.258 1.438 8.381-1.149 11.722-4.258c1.534-1.433 2.313-3.984 1.174-8.693s-2.329-5.07-5.818-8.304c-3.491-3.228-8.142-4.62-8.142-4.62l-5.377-3.55c.549-2.488-3.886-4.749-3.886-4.749l-1.662.755-1.608-2.633 1.233-.611-3.339-3.073-1.658.558-2.948-3.275.676-1.024-1.711-1.925-2.855.326s-1.184-4.796.264-8.061c.974-2.194-5.288.611-5.288.611s-5.046 1.826-5.896 3.192c-.623.998-.462 6.028-.462 6.028l-3.8.419s-7.383 3.016-11.453.041c-4.854-3.549-4.92-12.78-4.92-12.78zm-25.265-73.846l-4.003.292-12.703 23.028 27.481 22.091 15.68 9.602 5.845 1.827 5.478-19.015-3.044-1.081 1.092-2.256-2.289-3.911-2.172.6-.368-3.099-1.891-4.221-1.916.224-1.317-2.718.923-1.473-1.708-4.247-2.944-1.365 2.462-7.646-7.666 3.542-1.7 4.679-12.778-3.436-4.631-7.392 2.169-4.025z" fill="#fff"/><path d="M56.932 80.719s-2.674 7.677-6.69 12.346c-3.526 4.1-1.487 8.843-3.002 14.142s-3.536 4.844-4.818 9.975 3.673 5.895-.626 12.912c-2.466 4.024-.069 5.119-1.013 8.779s-2.08 6.207-4.02 8.371c-3.417 3.814 3.558 5.46 2.73 6.561s-4.761-.866-6.243-2.634c-1.416-1.688-1.515 5.583-1.515 5.583l-1.335-4.829s-2.865 4.638-7.324 8.701c-4.154 3.785-12.078 5.913-12.078 4.179 0 0 5.249-3.54 6.935-7.174 1.762-3.797-1.556-6.966-1.595-13.222s3.464-11.815 2.804-23.206-4.492-13.847-5.443-22.358 2.453-17.084 2.453-17.084-2.121-12.087.845-20.202 11.02-12.26 11.02-12.26 6.243-4.52 12.436-3.948 12.334 6.234 12.334 6.234 9.226-1.752 15.958 1.892 9.225 9.055 11.782 12.893c.815 1.223 6.669 10.617 6.669 10.617l4.377 6.182-7.169-3.366 4.418 15.487-.173 10.18 1.922 5.654s3.955.863 3.615 1.558-5.083 1.652-5.083 1.652-1.907 7.653-2.364 13.116.536 8.735.536 8.735l4.079 2.329 7.018.361s-5.353 4.213-9.347 4.027-6.63-4.771-6.63-4.771l-3.174-5.526 3.35-11.475 1.062-14.171-4.275-14.325-11.929-4.766-10.497-7.148z" fill="#e0bd6f"/><path d="M47.51 101.051s-8.289 8.495-9.043 6.476c-.81-2.169.73-7.825.73-7.825l-10.326 5.306-1.4 2.608-4.2 1.169 4.181-7.761 10.874-4.102s3.034-3.609 3.384-1.585-1.462 8.232-1.462 8.232l8.064-6.823-.8 4.305z" fill="#b69c65"/><g opacity=".5"><path d="M140.34 434.322c3.877 3.562 4.234 11.455 4.234 11.455l-4.582 15.817s-12.296 1.458-16.732-3.432-4.519-7.248-3.067-13.906 8.872-12.727 8.872-12.727 7.398-.769 11.275 2.793z" fill="url(#A)"/><path d="M72.6 190.457l11.264-7.258 16.547 6.54-.385 4.903.77 6.247-2.463 3.321-1.924 4.271-15.006 1.265-13.313-3.796 4.51-15.493z" fill="url(#B)"/><path d="M127.539 5.879l4.796 6.51-1.267 14.415-17.828 7.254s-8.856-7.45-13.313-14.215-4.515-12.847-4.515-12.847l4.796-5.952 5.068 3.534 3.892-2.79 5.429 3.162 2.896-1.488 4.073 2.325 5.973.093z" fill="url(#C)"/><path d="M59.046 121.8l2.238-13.615-6.348-3.964-9.264 4.052-3.215 7.938 5.761 10.79 10.828-5.201z" fill="url(#D)"/><path d="M73.143 102.347l6.153-4.464 4.721 9.318-4.796 5.856-6.078-10.71z" fill="url(#E)"/></g><path d="M78.115 96.016s-.373 2.937-2.099 3.704-4.803-.637-4.803-.637.619-2.758 2.083-4.551 3.771-2.622 3.771-2.622l1.049 4.106zm-18.797 6.587l-2.716-2.937-7.285.582-.712 4.176s3.401 1.99 6.08 1.535 4.635-3.356 4.635-3.356zm17.555 16.799l-.249 2.137s-.22 2.676-3.366 4.298-9.219 2.187-9.219 2.187c-3.39-.317-3.9-1.133-3.9-1.133l4.76-.305 7.212-2.506 3.01-2.597 1.752-2.081z" fill="#fff7f7"/><path d="M35.461 125.992l-2.262-2.109-3.563-1.674-2.714-6.206-2.191-5.18.065-2.928 2.788-.411s.114 8.659.98 10.287 2.483-3.776 2.483-3.776l3.41 7.978 1.004 4.019z" fill="#f5e8d6"/><g fill="#070d1c"><path d="M51.885 253.731a.28.28 0 0 0-.252.308l.11 5.044c-.014 1.925-.186 3.83-.394 5.74l-.865 5.643c-.892 4.249-2.018 8.443-3.461 12.531-1.831 5.186-3.95 10.275-6.136 15.312-4.37 10.067-9.032 20.073-11.737 30.785-.104.413.133.847.535.954s.809-.153.913-.566a118.02 118.02 0 0 1 3.808-12.369c2.483-6.719 5.415-13.254 8.245-19.823 1.53-3.553 3.034-7.127 4.359-10.768.47-1.295.889-2.621 1.321-3.929 2.25-6.796 3.825-13.796 4.107-20.988.099-2.541.054-5.09-.252-7.615-.013-.159-.145-.271-.299-.259zm-22.609 78.031a.55.55 0 0 0-.629.453l-.33 1.293c-.183.864-.263 1.75-.409 2.62l-.268 1.277-.441 2.555-.315 2.538-.755 4.301-.346 1.827-.346 3.024c-.358 2.362-.924 4.678-1.463 7.001l-1.872 7.373c-1.553 4.909-3.634 9.651-6.294 14.034-.872 1.438-1.813 2.837-2.785 4.204-.378.533-.796 1.026-1.18 1.552-.395.542-.719 1.142-1.07 1.714-.034.041-.024.095.016.13s.092.041.126 0c.495-.456 1.01-.89 1.448-1.407.838-.989 1.613-2.075 2.36-3.137a57.95 57.95 0 0 0 3.886-6.37c2.235-4.247 3.806-8.654 5.224-13.243.408-1.32.826-2.635 1.164-3.977.536-2.13.88-4.312 1.306-6.468l.488-2.376c.141-.599.332-1.192.456-1.795.292-1.413.41-2.888.614-4.317.148-1.042.284-2.088.488-3.121.094-.478.187-.763.267-1.245.213-1.28.318-2.584.519-3.864.136-.868.345-1.731.456-2.603.056-.442.073-.882.11-1.326.051-.3-.133-.595-.425-.647zm-18.66 56.058a.15.15 0 0 0-.204.032c-.485.342-.698.825-.913 1.374-.738 1.885.072 3.973 1.054 5.595l.913 1.374a9.4 9.4 0 0 0 1.101 1.213l1.542 1.293a.46.46 0 0 0 .645-.129c.139-.218.07-.52-.142-.663l-1.149-.776c-.18-.139-.577-.524-.739-.679-1.542-1.477-2.883-3.394-2.816-5.659.015-.522.075-1.094.252-1.585.146-.406.354-.763.472-1.18.045-.063.046-.164-.016-.21zm5.884 10.864a.48.48 0 0 0-.614.307c-.082.262.06.546.315.631l1.668.517 1.778.663 2.879.776 3.54.663 1.526.307 3.021.307c1.834.181 3.636.237 5.475.13 1.697-.099 3.332-.49 4.988-.873l6.372-1.358 1.196-.259c1.492-.235 3.001-.09 4.468.226.451.097.905.072 1.353.178 1.212.287 2.432.916 3.336 1.795.898.873 1.615 1.922 2.297 2.975l2.942 5.061c.082.135.246.164.378.081s.176-.253.095-.388l-1.967-3.347-1.872-3.234c-.866-1.208-1.979-2.21-3.289-2.878-.563-.288-1.155-.482-1.746-.696-.335-.121-.651-.316-.991-.42-.665-.204-1.421-.196-2.108-.21-1.003-.02-1.975.069-2.974.129l-1.243.065c-.635.082-1.275.238-1.904.356l-5.224 1.132-3.383.646c-1.405.145-2.796.048-4.201-.048-1.635-.113-3.22-.352-4.83-.647l-2.014-.291-5.822-1.375-1.809-.372c-.555-.155-1.085-.38-1.636-.549zm100.083 3.895c-3.569.026-7.178.519-10.463 1.86-1.93.787-3.678 1.925-5.476 2.975-1.717 1.003-3.465 1.985-5.239 2.878-2.485 1.25-5.024 2.342-7.646 3.25-1.153.398-2.303.812-3.493 1.083-.832.19-1.679.265-2.517.404-1.776.295-3.555.627-5.366.534-.241-.013-.482-.085-.724-.097-.712-.034-1.412.032-2.124-.065-.458-.062-.904-.178-1.353-.291-.654-.165-1.34-.343-1.967-.598a18.67 18.67 0 0 1-2.438-1.229c-1.211-.717-2.316-1.606-3.541-2.296-.119-.099-.296-.09-.393.033s-.072.304.047.404c.957 1.143 2.174 1.955 3.477 2.635 1.917 1 3.949 1.617 6.042 2.086.712.16 1.444.396 2.171.469.251.025.502-.009.755 0 1.862.061 3.785.088 5.633-.226 1.156-.198 2.295-.576 3.43-.874 4.605-1.209 8.968-3.183 13.2-5.384a88.8 88.8 0 0 0 3.823-2.134c.882-.516 1.725-1.072 2.644-1.52 1.495-.73 3.106-1.264 4.72-1.633 4.005-.915 8.088-.748 12.162-.582.884.036 1.759.158 2.643.178.277.006.558-.007.834 0 .265.007.528.103.787.048.276-.058.503-.259.755-.388.137.003.249-.102.252-.242s-.1-.256-.236-.259c-.243-.138-.472-.345-.74-.42-.248-.07-.514.019-.771 0-.552-.041-1.099-.142-1.652-.178-1.236-.08-2.462-.217-3.697-.307-1.165-.085-2.35-.122-3.54-.114z"/><path d="M143.488 395.095c-2.172.09-4.722.377-6.104 2.345-.437.622-.679 1.335-.866 2.07-.182.72-.179 1.546-.126 2.28.034.456.081.91.173 1.358.145.7.458 1.353.661 2.037.409 1.378.901 2.768 1.495 4.075l1.133 2.392c.215.522.359 1.078.519 1.618.135.454.429.907.378 1.406-.015.15-.079.417-.158.55-.008.014-.099.077-.094.016.001-.019-.02.034-.032.049-.019.024-.013.112-.015.112-.19.04-.475-.329-.582-.436-.538-.533-.964-1.153-1.432-1.746l-.535-.615c-.573-.718-1.042-1.519-1.605-2.247l-1.873-2.296c-.529-.615-1.076-1.245-1.715-1.746l-.755-.55-.676-.582c-.354-.25-.734-.438-1.102-.663-.324-.198-.361-.251-.707-.404-.444-.195-1.441-.57-1.889-.291-.132.082-.22.228-.33.34-.059.004-.098.052-.094.112s.051.102.11.098c.11.095.21.209.33.29.278.189.574.127.881.195.408.089.873.29 1.243.485.459.242.835.653 1.243.97.594.46 1.032 1.033 1.511 1.617l.928 1.051 2.974 3.702c.362.444.658.936 1.007 1.391l.739.873c.502.646 1.395 1.598 2.218 1.779 1.025.224 1.775-.772 1.605-1.763-.075-.44-.263-.865-.33-1.309-.039-.256-.075-.516-.157-.76l-.645-1.634-1.322-3.864c-.478-1.277-.984-2.602-1.149-3.961-.174-1.441-.605-3.022.079-4.398.962-1.935 3.737-2.281 5.586-2.183l1.054.097 1.778.323c.219.023.441 0 .66.016.472.037.938.144 1.401.243.525.096 1.023-.268 1.117-.808s-.245-1.052-.771-1.148c-.718-.109-1.411-.319-2.124-.437-.469-.077-.851-.044-1.322-.049-.77-.006-1.543-.031-2.313 0zm24.561-22.458c-.07.036-.099.122-.063.194.1.729.338 1.417.582 2.102.19.535.306 1.105.472 1.649l.472 1.73c.08.443.096.894.126 1.342.029.435.056.875 0 1.31-.036.282-.148.549-.22.824-.148.564-.305 1.001-.63 1.488-.404.605-.905 1.07-1.463 1.52-.73.588-1.502 1.1-2.329 1.536a28.21 28.21 0 0 1-3.839 1.665c-.682.238-1.422.407-1.919.986-.986 1.15-1.044 3.065-1.039 4.495.003.57.119 1.241-.126 1.779-.068.151-.172.272-.267.404-.08.112-.117.262-.22.356-.428.389-1.555.511-2.061.533-.572.026-1.16-.079-1.731-.113l-2.926-.275c-.406-.021-.751.295-.771.712s.286.771.692.792l3.43.162c.756-.031 1.557-.165 2.297-.324.594-.127 1.074-.365 1.605-.646.201-.107.409-.164.582-.324.647-.597.728-1.546.708-2.377-.034-1.398-.238-3.629.991-4.608.113-.09.194-.113.33-.162l.803-.274 1.731-.679c1.534-.609 3.047-1.459 4.342-2.506 1.123-.908 1.941-2.101 2.486-3.444.061-.15.131-.297.173-.453.084-.31.083-.635.126-.954l.126-1.455c.004-.955-.186-1.949-.377-2.878-.158-.764-.448-1.438-.74-2.151-.287-.699-.63-1.353-1.164-1.892-.036-.071-.119-.101-.189-.064z"/><path d="M128.431 192.872c-.156-.012-.288.115-.299.275-.289 4.866-.963 9.69-1.605 14.519l-.991 7.826c-.605 6.097-.901 12.276-.472 18.4.19 2.719.548 5.4 1.007 8.084.264 1.546.533 3.104.912 4.624 1.421 5.688 3.649 11.15 5.838 16.557 4.124 10.186 8.947 20.075 12.791 30.381a208.93 208.93 0 0 1 4.752 14.293l2.392 8.618 3.241 11.884 1.558 5.999 2.627 9.621 1.542 5.772.566 2.118c.533 1.829 1.114 3.634 1.589 5.481.343 1.332.594 2.694.866 4.042.26 1.292.553 2.58.85 3.865.328 1.421.749 2.812 1.07 4.236.257 1.144.48 2.31.708 3.46.085.413.478.669.881.582s.651-.492.566-.905l-.74-3.444c-.338-1.648-.582-3.308-.959-4.948-.559-2.424-1.294-4.818-1.841-7.244-.421-1.865-.728-3.755-1.117-5.626-.2-.961-.458-1.906-.677-2.862l-2.108-8.812c-1.612-6.513-3.45-12.957-5.239-19.419l-3.462-12.353-1.133-4.187c-.662-2.323-1.435-4.613-2.281-6.872-3.889-10.385-8.685-20.391-13.201-30.494-2.932-6.559-5.711-13.171-7.568-20.147-.549-2.064-1.045-4.127-1.385-6.241-.715-4.459-1.194-8.979-1.195-13.501-.002-7.587 1.062-15.143 1.888-22.669.386-3.518.613-7.076.881-10.606.011-.16-.096-.296-.252-.307zM85.006 415.775c-.097.05-.127.159-.078.259.316 1.099.772 2.103 1.211 3.153l2.218 4.899 4.422 9.006.975 1.73 1.92 3.525 2.234 4.139 1.385 2.328c.3.456.894.583 1.338.275s.567-.935.267-1.39c-.453-.775-1.03-1.424-1.526-2.167l-2.565-3.864c-.942-1.487-1.784-3.062-2.565-4.641l-1.243-2.344c-1.646-3.15-3.161-6.378-4.783-9.54-.912-1.779-1.78-3.668-2.942-5.287-.048-.1-.171-.13-.268-.081zm15.308 30.235c-.182-.122-.432-.058-.55.129-.356.337-.725.678-1.007 1.083-.404.582-.738 1.233-1.102 1.843l-1.4 2.442-4.343 8.149c-2.006 4.3-3.735 8.764-4.72 13.436-.568 2.693-.815 5.425-1.022 8.166-.166 2.19-.42 4.375-.598 6.564-.15 1.853-.179 3.71-.315 5.562l-.456 5.303-.409 4.916-.583 5.044c-.445 4.02-.947 8.035-1.683 12.014-.094.507.216.988.708 1.081a.92.92 0 0 0 1.07-.74l.786-4.046c.328-1.919.581-3.855.834-5.784.075-.575.198-1.144.267-1.718.226-1.883.354-3.767.504-5.657.144-1.834.349-3.676.441-5.514l.283-5.287.189-2.054c.212-3.172.245-6.359.566-9.523.144-1.407.359-2.813.504-4.22.185-1.792.412-3.605.787-5.368.984-4.635 2.824-9.014 4.877-13.242.76-1.564 1.514-3.147 2.344-4.673.772-1.42 1.615-2.778 2.455-4.155.368-.603.787-1.195 1.133-1.811.24-.429.395-.906.55-1.375.119-.187.072-.444-.11-.565zm-17.197 75.929c-.208-.062-.429.077-.487.289-.236.373-.471.751-.629 1.165-.4 1.045-.54 2.167-.913 3.218l-.504 1.293-2.423 7.42c-1.306 3.803-2.742 7.575-4.311 11.269-.93 2.194-2.097 4.294-2.88 6.55a.41.41 0 0 0 .158.548c.193.104.434.021.535-.175.99-1.423 1.662-3.001 2.408-4.559.098-.207.232-.393.33-.6.197-.409.347-.843.535-1.262l.85-1.904c1.531-3.529 2.92-7.099 4.217-10.721.405-1.133.83-2.235 1.196-3.378l.865-2.701c.196-.673.284-1.356.504-2.023.278-.844.614-1.708.771-2.587.098-.544.062-.787.047-1.34.058-.218-.059-.445-.268-.502zm56.767-105.873c-.14.034-.222.179-.189.324l1.778 9.458c.583 3.779 1.004 7.585 1.558 11.367.261 1.783.584 3.548.913 5.319.153.826.361 1.654.456 2.49.111.975.039 1.958-.094 2.927-.605 4.378-2.258 8.659-3.855 12.741l-2.125 5.239c-.368.887-.718 1.785-1.132 2.651-1.041 2.178-2.215 4.294-3.352 6.419l-7.599 13.889c-6.637 12.227-13.07 24.595-18.897 37.251l-3.603 7.973a190.92 190.92 0 0 0-4.531 11.704l-1.668 4.77c-.561 1.676-1.005 3.394-1.479 5.096-.123.445.117.906.551 1.035s.884-.119 1.007-.569c.414-1.516.889-3.016 1.369-4.506.506-1.584.958-3.162 1.511-4.724 1.651-4.672 3.591-9.251 5.491-13.825 2.82-6.788 5.949-13.427 9.188-20.018 3.981-8.096 8.166-16.073 12.414-24.025l5.365-10.057c1.712-3.169 3.461-6.32 4.988-9.588.535-1.146.972-2.33 1.432-3.509l1.715-4.333c1.051-2.717 2.046-5.467 2.832-8.279.481-1.721.916-3.458 1.133-5.238.124-1.024.202-2.075.11-3.105-.113-1.262-.445-2.523-.677-3.767-.324-1.741-.589-3.491-.881-5.239l-2.124-13.646c-.367-2.024-.809-4.033-1.29-6.031-.033-.144-.174-.228-.315-.194z"/><path d="M97.325 449.633c-.101-.079-.239-.056-.315.048-.251.215-.542.392-.755.646s-.292.598-.488.858-.466.446-.676.695c-.419.495-.79 1.049-1.18 1.568l-2.329 3.153-2.407 3.121-1.794 2.376-1.259 1.536-1.165 1.617-3.744 4.641-1.211 1.568c-.213.254-.476.477-.692.728l-1.228 1.568-2.549 3.024-5.806 6.629-1.274 1.471c-.206.248-.483.446-.614.744-.154.351-.134.753-.204 1.132.362-.1.757-.107 1.085-.291.28-.157.452-.463.677-.696l1.951-2.182 5.082-6.031 2.517-3.072 1.29-1.504.582-.825 1.274-1.52 3.053-3.944 1.888-2.313 1.778-2.393 2.989-3.961 2.911-3.945 1.148-1.601c.173-.278.284-.59.472-.857s.471-.452.645-.728.262-.613.393-.921c.075-.104.054-.262-.047-.339zm-19.621-33.407c-.049-.028-.114-.002-.141.049-.943 1.532-1.697 3.19-2.47 4.818l-1.51 3.153-1.479 3.38-2.675 6.16-2.14 5.352-2.077 5.077-3.116 7.987-1.243 3.121c-1.326 2.982-2.994 5.823-4.705 8.585l-3.698 5.772-3.383 5.126-5.255 7.34c-.158.212-.112.518.094.679s.488.131.645-.08c3.633-4.909 7.122-9.927 10.338-15.134 2.089-3.384 4.144-6.815 5.9-10.397 1.167-2.379 2.123-4.853 3.084-7.324l3.996-10.51 2.124-5.352 3.965-9.604 1.038-2.426c.862-1.904 1.873-3.732 2.754-5.626.027-.051.002-.118-.047-.146zm47.345-190.807c-.17-.096-.379-.029-.472.145-.757 1.665-1.773 3.14-2.817 4.625l-.99 1.455c-.545.688-1.261 1.204-1.842 1.859l-1.683 1.973c-2.398 2.433-5.255 4.419-8.135 6.192a62.84 62.84 0 0 1-11.643 5.611c-2.757.994-5.567 1.774-8.402 2.49-5.921 1.495-11.998 2.423-18.079 2.878-4.069.304-8.147.469-12.225.598-2.224.07-4.453-.014-6.656.34-.228 0-.409.186-.409.42s.181.437.409.437c2.462.386 4.99.237 7.474.194 4.715-.082 9.41-.444 14.098-.954 5.551-.605 11.131-1.414 16.552-2.814a83.28 83.28 0 0 0 8.481-2.7c3.833-1.439 7.586-3.164 11.045-5.4 2.947-1.905 5.561-4.215 8.056-6.694.625-.621 1.307-1.192 1.888-1.859.597-.685.982-1.477 1.527-2.199.359-.478.772-.918 1.116-1.407 1.056-1.498 1.881-3.133 2.849-4.689.093-.174.027-.405-.142-.501zm-7.678 208.724c-.097.001-.175.078-.173.178-.045.272-.14.803-.126 1.083.017.358.134.712.188 1.067l.331 2.086c.395 1.875 1.022 3.684 1.668 5.481l.865 2.425.425.938c.508 1.243.899 2.541 1.211 3.848l.582 2.911c.163 1.315.044 2.641.11 3.961-.022.246.154.462.394.485s.449-.159.472-.404c.327-1.41.167-2.774-.063-4.188-.389-2.396-1.337-4.573-2.14-6.839l-.299-.987-.802-1.907c-.706-1.744-1.345-3.518-1.794-5.352-.2-.819-.422-1.679-.488-2.523-.026-.346.041-.688.016-1.035-.026-.354-.137-.702-.205-1.05-.001-.1-.076-.18-.172-.178zm-43.93-146.28c-.19-.04-.37.08-.409.275l-.614 2.021-.677 3.428-.66 3.396-.252 2.07c-.137.674-.388 1.309-.519 1.988l-1.605 9.378-2.14 13.727c-1.285 8.578-2.299 17.2-3.115 25.838l-.771 8.521-.708 10.154c-.062.805-.346 1.548-.456 2.344-.159 1.151-.163 2.349-.236 3.509l-.362 6.37-.409 9.104c-.011.562.022 1.118.016 1.681l-.063 3.913c-.017.556-.078 1.11-.11 1.665-.064 1.097-.076 2.2-.079 3.299-.005 1.818.117 3.644.126 5.464-.004.295.233.53.519.534s.515-.239.52-.534c.062-1.818.26-3.617.33-5.432.043-1.097.071-2.201.063-3.299-.004-.554-.029-1.11-.016-1.665.043-1.862.214-3.721.315-5.578.153-2.833.199-5.671.33-8.505l.362-6.92.142-2.328c.024-.392.081-.789.078-1.181-.005-.803-.191-1.57-.142-2.376.207-3.381.526-6.753.85-10.122l.739-7.891 2.329-19.968 1.59-11.609 1.368-8.537 1.29-7.325c.157-.894.358-1.783.472-2.684.058-.455.05-.921.126-1.374.114-.678.362-1.332.504-2.005.286-1.353.522-2.732.787-4.091.222-1.137.491-2.275.629-3.427.056-.468.084-.938.126-1.407.039-.195-.078-.38-.267-.421zm41.05 14.455c-.05.001-.096.047-.095.098l-.189 2.231.063 1.665.11 3.832.473 7.567 1.085 9.475.236 2.086 1.149 7.195 1.903 9.119c1.43 6.577 3.166 13.061 5.098 19.499l4.878 15.522c.461 1.346 1.027 2.662 1.479 4.01l1.164 3.574c.364 1.02.781 2.021 1.149 3.039.431 1.197.796 2.425 1.227 3.622l2.265 6.209c.14.398.557.613.944.469s.597-.588.457-.986l-2.124-6.274c-.412-1.203-.884-2.369-1.291-3.574l-1.006-3.104c-.399-1.189-.874-2.343-1.29-3.524-.413-1.171-.715-2.377-1.102-3.558l-1.856-5.513-3.431-10.397c-1.171-3.769-2.224-7.563-3.288-11.366-1.198-4.282-2.315-8.594-3.225-12.951-1.418-6.787-2.724-13.627-3.43-20.534-.328-3.203-.599-6.423-.787-9.638l-.189-3.815c-.021-.551-.005-1.115-.031-1.665-.036-.743-.16-1.479-.252-2.215-.001-.051-.045-.098-.094-.098z"/><path d="M137.068 399.428c-.224.066-.363.302-.298.533l.44 1.941c.081.288.38.47.661.388s.442-.391.362-.68l-.645-1.891c-.065-.232-.295-.358-.52-.291zm-22.924-126.244c-.034.026-.041.062-.015.097l.786 1.519c.281.489.628.931.928 1.407.46.728.869 1.478 1.259 2.248 1.225 2.412 2.202 4.982 3.021 7.567l1.228 4.64.975 5.918c.869 5.581 1.462 11.187 1.731 16.832.189 3.988.369 7.988.377 11.981.01 4.264-.19 8.525-.236 12.789l-.063 9.038-.094 6.533c.022 2.244.148 4.483.205 6.726.013.516-.024 1.02 0 1.536.022.496.139.994.188 1.487.047.472.041.934.063 1.407.052.508.497.878.991.824s.855-.51.803-1.018c-.073-.458-.171-.911-.205-1.374-.034-.484.012-.973-.031-1.455-.045-.505-.15-.999-.189-1.504-.194-2.506-.139-5.039-.157-7.551l-.048-6.564.174-8.052c.084-4.824-.053-9.649-.095-14.472l-.062-6.03c-.074-3.094-.269-6.18-.504-9.265-.244-3.194-.567-6.388-1.039-9.556-.228-1.533-.483-3.055-.849-4.56-.396-1.623-.871-3.226-1.322-4.834-.934-3.325-1.987-6.652-3.508-9.75-.649-1.321-1.348-2.614-2.093-3.88-.291-.495-.557-1.006-.913-1.456s-.793-.811-1.196-1.212c-.025-.035-.076-.043-.11-.016zm23.036 29.232l2.612 7.842 2.517 8.844 3.414 11.431c3.207 11.483 6.007 23.081 8.292 34.795 1.132 5.802 2.157 11.626 3.006 17.479l.849 6.192c.168 1.388.308 2.776.535 4.156.019.198.201.343.393.323s.334-.19.315-.388c-.048-1.696-.242-3.374-.409-5.061-.271-2.732-.639-5.447-1.023-8.165-.941-6.666-2.103-13.304-3.414-19.904-1.925-9.692-4.123-19.35-6.719-28.877-1.139-4.185-2.285-8.4-3.65-12.515-.875-2.639-1.945-5.203-3.021-7.761-1.186-2.821-2.334-5.653-3.697-8.391zM70.985 552.594c-.093.005-.178.083-.173.176-.07.316-.171.636-.205.957-.051.487.05 1.263.11 1.744.131 1.055.381 2.028.692 3.042.837 2.711 2.087 5.241 4.232 7.114.697.606 1.356 1.144 2.234 1.423 1.326.419 2.745.476 4.123.466 2.06-.01 4.08-.259 6.12-.518 1.462-.186 3.015-.983 4.468-.305 1.008.471 1.445 1.594 2.155 2.391.179.258.522.315.771.129s.305-.533.126-.792l-.441-.952c-.195-.388-.498-.755-.787-1.066-.951-1.029-2.245-1.417-3.603-1.278-.426.042-.825.156-1.243.244l-2.172.45c-.756.155-1.533.227-2.297.326-1.442.176-2.856.331-4.311.274-1.016-.041-2.078-.145-3.037-.517-.846-.332-1.585-1.071-2.234-1.698-1.635-1.583-2.815-3.652-3.335-5.903-.223-.962-.358-1.977-.488-2.96-.075-.558-.082-1.133-.221-1.681-.078-.305-.212-.605-.315-.906-.005-.093-.08-.165-.173-.16z"/><path d="M70.656 552.883c-1.298.399-2.039 1.78-2.454 3.022-.163.492-.258 1.009-.393 1.506-.147.543-.257 1.076-.346 1.635-.291 1.821-.369 3.715-.44 5.562-.154 3.999-.014 7.978-.016 11.978-.001.434.335.791.755.791s.77-.357.771-.791c.003-1.568-.156-3.12-.205-4.688-.107-3.446-.24-6.918.016-10.364.044-.589.131-1.164.205-1.748.109-.864.192-1.791.409-2.634.113-.435.276-.859.409-1.293.307-.994.755-1.879 1.51-2.587.106-.057.137-.197.079-.306s-.192-.139-.299-.083z"/><path d="M67.367 576.428c-.097-.057-.225-.037-.284.067-.058.098-.034.227.063.29 1.535 1.226 3.3 2.095 4.909 3.218l2.423 1.728 7.426 5.143c4.923 3.528 9.823 7.176 15.057 10.218 2.02 1.175 4.096 2.179 6.199 3.188 1.186.564 2.398 1.128 3.619 1.614.537.212 1.083.367 1.62.579.374.15.733.342 1.118.456.965.289 1.976.465 2.958.693 1.222.285 2.434.616 3.666.843 1.273.238 2.565.347 3.854.451.942.077 1.918.212 2.864.196.613-.01 1.215-.098 1.825-.16 1.105-.119 2.3-.145 3.336-.616.244-.114.463-.279.692-.419.09-.021.146-.119.126-.212s-.115-.15-.205-.13c-.781-.093-1.542-.098-2.328-.046-.273.015-.546.067-.819.078-.872.041-1.742-.073-2.611-.114-.61-.026-1.216.01-1.825-.016-1.57-.062-3.119-.326-4.673-.533-.921-.124-1.843-.196-2.754-.388-1.265-.264-2.457-.662-3.681-1.066-.477-.16-.964-.253-1.432-.434-1.905-.745-3.805-1.583-5.633-2.51-2.045-1.034-4.04-2.193-6.042-3.316-3.496-1.956-6.888-4.082-10.243-6.287l-5.066-3.316c-3.034-2.075-6.036-4.191-9.157-6.126-1.671-1.04-3.211-2.256-5.003-3.073zm72.046 18.914c-.038.016-.061.063-.048.099.034.486-.333.776-.55 1.164-.391.698-.709 1.247-1.275 1.826l-1.699 1.78a13.01 13.01 0 0 1-2.455 1.842c-.799.471-1.645.9-2.58.921-.415.016-.739.367-.723.792s.356.76.77.745c1.882-.083 3.452-1.252 4.83-2.473 1.155-1.02 2.233-2.08 3.021-3.426.524-.895 1.496-2.142.803-3.218-.014-.041-.057-.062-.094-.052z"/><path d="M66.928 580.019c-.156-.135-.391-.094-.519.062a.37.37 0 0 0 .047.517c.155.233.306.502.503.698.431.42.968.756 1.448 1.113l2.392 1.764c2.956 2.173 5.931 4.3 8.968 6.354l5.695 3.865c2.841 1.925 5.778 3.73 8.685 5.546 1.054.658 2.147 1.253 3.21 1.894 4.09 2.458 8.353 4.76 12.901 6.188 2.743.864 5.6 1.325 8.45 1.62 2.231.227 4.462.284 6.702.191 3.14-.124 6.318-.698 9.205-2.018 3.098-1.423 5.578-3.953 5.869-7.569.088-1.102-.033-2.158-.268-3.234-.037-.191-.235-.31-.425-.274-.189.041-.305.227-.267.419.166.993.247 2.007.142 3.011-.069.647-.199 1.294-.425 1.904-1.426 3.844-5.96 5.5-9.535 6.147a32.26 32.26 0 0 1-1.7.259 41.75 41.75 0 0 1-2.643.258c-.918.052-1.849.042-2.769.016a45.91 45.91 0 0 1-3.76-.274c-3.33-.383-6.694-1.17-9.85-2.329-2.568-.941-5.017-2.204-7.426-3.508-2.095-1.133-4.175-2.292-6.215-3.528l-3.257-1.956c-4.446-2.758-8.811-5.676-13.122-8.651l-7.489-5.298-2.36-1.765c-.475-.362-.944-.786-1.447-1.102-.226-.139-.496-.217-.74-.32z"/><path d="M67.446 576.861c-.188-.046-.378.083-.424.279-.565 1.641-.365.88-.551 1.63-.118.476.307-.921.456-1.392.027-.082-.063.166-.095.244-.033.088-.074.16-.11.243l-.566 1.361c-.063.196-.237.807-.158.615.368-.895.005-.015-.094.564-.029.362.232.683.582.709s.648-.238.677-.595c.269-1.609.274-.962.283-1.604.005-.378-.164.74-.283 1.102-.052.155.046-.326.078-.486l.315-1.376.063-.29.063-.274c-.169.978.009-.011.031-.29.047-.192-.079-.388-.267-.44zm52.598 2.153c-.086-.062-.192-.041-.252.052-.06.088-.054.212.031.274.16.15.315.321.488.45.493.378 1.061.642 1.558 1.019 1.332 1.02 2.849 1.754 4.311 2.556 2.116 1.159 4.24 2.292 6.152 3.798 1.439 1.133 2.726 2.432 3.823 3.912.348.47.591 1.003.913 1.49.114.17.264.326.377.502.365.558.598 1.164.897 1.759.22.44.482.859.756 1.262.081.186.289.264.471.176s.271-.295.189-.481l-.173-.745c-.277-.9-.817-1.687-1.227-2.52l-.283-.6c-.294-.538-.689-1.009-1.039-1.506-1.122-1.598-2.508-2.985-4.09-4.103-2.158-1.526-4.602-2.55-6.923-3.772l-3.367-1.888-1.054-.569c-.347-.223-.631-.528-.976-.756-.18-.124-.392-.207-.582-.31z"/><path d="M119.162 579.967s-.181-.026-.236.052a.16.16 0 0 0 .032.227c.885.828 1.367 1.754 2.675 1.925.323.042.652.031.975 0 .429-.046.793-.191 1.196-.341.052-.011.088-.062.079-.114s-.111-.083-.111-.083l-.44.021-.409-.021-.677.021c-.878-.026-1.519-.176-2.155-.813l-.441-.465-.22-.228-.268-.181zm-6.135 4.19c-.241-.094-.494.041-.582.289s.027.523.267.616c.247.15.583.259.771.486.162.192.16.357.236.58.05.145.153.269.189.419.066.274.019.569.079.843.023.109.078.197.094.306.033.232-.062.465-.063.698 0 .269.168.538.142.807-.014.14-.114.238-.158.373l-.236.822-.172.875-.599 1.78-1.289 4.605c-.269.952-.515 1.914-.646 2.897-.032.238-.114.486-.079.724.047.316.275.663.394.958.089-.332.293-.575.393-.89.068-.213.044-.461.079-.683l.22-1.113.96-3.446c.396-1.226.932-2.4 1.212-3.668.068-.31.072-.647.141-.952s.205-.574.267-.874a6.44 6.44 0 0 0 .111-.875c.01-.145-.062-.31-.032-.455.06-.28.295-.492.346-.776.047-.254-.022-.528.016-.792.019-.129.08-.238.095-.367.042-.373-.074-.735-.158-1.087-.04-.17-.09-.517-.173-.678-.105-.201-.288-.351-.441-.517-.401-.44-.801-.786-1.384-.905zm-10.337-29.136c-.137.041-.258.145-.33.29-.366.76-.503 1.593-.755 2.39-.352 1.118-.587 2.463-.284 3.622.186.714.476 1.583 1.306 1.635.191.036.376-.093.41-.29s-.093-.388-.284-.419c-.551-.222-.359-1.257-.33-1.666.053-.755.213-1.485.283-2.235.082-.854.248-1.739.661-2.504.144-.285.025-.626-.252-.776-.138-.073-.287-.094-.425-.047z"/><path d="M102.013 554.809c-1.267-.011-2.367.507-3.572.822-.194.052-.404.063-.598.114-1.482.393-3.075 1.113-4.421 1.863-1.424.786-2.473 1.692-2.88 3.363-.218.895-.247 1.883-.126 2.794.058.44.22.838.268 1.278.111.497.587.812 1.069.693s.788-.615.677-1.112c-.132-.388-.182-.745-.252-1.149-.186-1.066-.279-2.282.378-3.218.397-.564 1.054-.942 1.621-1.294 1.304-.812 2.701-1.386 4.075-2.054.175-.082.341-.212.519-.289.898-.399 1.897-.544 2.832-.823.181-.057 1.041-.336 1.196-.166.143.135.358.119.487-.031.13-.144.128-.382-.015-.517-.325-.29-.85-.269-1.259-.274zm15.122 19.046c-.3-.057-.614-.062-.85.016-.276.098-.502.305-.756.455l-1.683 1.019c-1.176.74-2.209 1.713-3.178 2.717l-1.385 1.438c-.721.869-1.326 1.811-1.762 2.861-.166.399-.336.901-.299 1.34.098 1.159 1.369 2.117 2.454 1.941 1.072-.171 1.896-1.071 2.644-1.796.986-.952 1.816-2.09 2.895-2.939.988-.776 2.114-1.417 3.257-1.924l.96-.373.299-.098.141-.031s.157-.181.189-.305c.01-.006.022.005.032 0 .253-.166.157-.777.157-.777l-.104-.28-.101-.159-.251-.451-.409-.662c-.292-.44-.658-.74-1.007-1.117-.161-.171-.268-.404-.457-.549-.198-.155-.487-.269-.786-.326zm-.252 1.118c.148.005.245.155.362.228.139.082.322.103.44.222.132.14.215.373.315.538l.755 1.211c.09.139.141.346.283.434s.149.171.205.275c-.015.005-.022 0-.032 0a7.47 7.47 0 0 0-.818.31c-.751.321-1.457.714-2.155 1.149-1.437.884-2.685 2.142-3.871 3.347l-1.148 1.128c-.46.399-1.453 1.226-2.125.844-.196-.114-.342-.301-.487-.471-.088-.104-.177-.218-.237-.342-.468-.967.316-2.09.866-2.809.61-.802 1.311-1.615 2.061-2.282 1.004-.89 2.093-1.671 3.163-2.473.643-.481 1.358-.931 2.108-1.211.087-.036.219-.103.315-.098zm-6.105-6.132c-.237.016-.455.088-.708.244-.167.051-.268.232-.22.408s.393.223.393.223h.106.067s.103.041.158.052c.055.005.117-.006.173 0 .26.01.513.077.755.175.607.244 1.161.73 1.526 1.278.134.202.043.347.095.549.015.057.086.088.094.145s-.047.165-.047.165l-.284.078s-.048.735.268.905c.317.176.697.052.865-.274-.034-.212-.041-.455.048-.647.044-.098.13-.17.157-.274.03-.119-.035-.486-.063-.6-.318-1.293-1.401-2.033-2.612-2.328-.281-.068-.533-.109-.771-.099z"/><path d="M109.472 569.099l-.912.585c-.152.088-.325.129-.472.228-.283.186-.537.445-.787.677-.121.114-.206.269-.346.357s-.323.068-.472.145c-.493.244-.979.74-1.447 1.051-.652.434-1.154 1.014-1.763 1.505-.585.471-1.036 1.025-1.51 1.615-.232.289-.429.564-.583.905-.654 1.454.122 2.975 1.149 3.979.499.486 1.005.942 1.731.823.747-.119 1.239-.668 1.731-1.196l1.368-1.407 2.235-2.313c1.187-1.19 2.379-2.297 3.917-2.99.317-.156.453-.549.3-.875s-.85-.305-.85-.305l-.036-.009-.515.299-.55.341-.551.388c-1.091.792-2.153 1.713-3.069 2.717l-2.139 2.359c-.454.491-.886.895-1.416 1.293l-.488.389-.267.181-.252-.181-.614-.502c-.511-.482-1.056-1.278-.787-2.039.15-.414.316-.859.535-1.242.231-.408.548-.709.881-1.019.157-.145.267-.341.41-.502.411-.46.959-.76 1.416-1.164l.598-.548c.334-.27.77-.502 1.069-.808.116-.119.172-.315.299-.424.127-.103.296-.129.441-.207l.425-.243c.148-.083.318-.16.456-.259s.241-.248.378-.357.44-.305.44-.305.012.005.441-.341c.161-.109.202-.337.094-.502a.35.35 0 0 0-.488-.099zm-5.224-5.865c-.091.02-.198.026-.283.067-.091.041-.252.176-.252.176s-.075.176-.204.243-.176.223-.11.357.346.13.346.13h.166l.117-.021s.149 0 .22-.016c.114-.015.215-.057.33-.062.372-.026.749.192.961.502.122.181.235.662.235.662l.061.161.097.258.078.244a3.69 3.69 0 0 1 .063.357c.002.062-.015.191-.015.191l-.032.197a.69.69 0 0 0 .708.677c.38-.01.661-.729.661-.729v-.145l-.032-.078-.047-.243-.031-.258c-.037-.254-.091-.502-.174-.745a3.24 3.24 0 0 0-1.179-1.584 2.08 2.08 0 0 0-1.684-.341z"/><path d="M103.383 562.959a.64.64 0 0 0-.519.067c-1.333.621-2.591 1.382-3.839 2.163-1.994 1.257-4.065 2.639-5.255 4.771-.406.729-.456 1.697-.173 2.488.082.233.189.331.315.533.326.538.602 1.004 1.054 1.444.431.414.962.853 1.589.822.597-.025.782-.533 1.101-.952a10.2 10.2 0 0 1 1.51-1.635c1.541-1.314 3.231-2.359 4.894-3.492l1.07-.73.535-.419c.189-.124.393-.196.582-.32.191-.13.37-.295.551-.44.121-.068.162-.212.094-.337s-.346-.113-.346-.113l-.462.113-.183.145-.582.357c-.198.099-.414.161-.614.259-.945.46-1.859 1.035-2.738 1.614-1.443.957-2.876 1.935-4.153 3.12-.384.357-.778.683-1.102 1.102-.114.145-.204.29-.299.435l-.047-.016c-.09-.051-.14-.098-.221-.16a2.5 2.5 0 0 1-.424-.44c-.229-.3-.531-.61-.677-.967-.056-.14-.07-.3-.126-.44-.069-.171-.169-.305-.189-.502-.023-.217.115-.342.204-.533.08-.166.136-.362.22-.533.52-1.045 1.468-1.8 2.391-2.442l3.351-2.085 1.259-.709.676-.404s-.002.011.693-.455c.333-.186.45-.626.267-.967a.68.68 0 0 0-.409-.342zm2.847 15.231c-.221.031-.436.155-.582.357-.29.393-.212.942.174 1.242 1.291.595.555.3 1.289.6.149.057-.579-.269-.456-.166.243.207 1.115.616.834.471-.56-.29-.007.01.913.29a.35.35 0 0 0 .488-.109c.103-.171.053-.398-.11-.502-.954-1.009-.453-.424-.96-1.003-.097-.114.453.393.346.289l-.677-.615c.401.47.003.015-.613-.678-.193-.15-.424-.207-.646-.176z"/><path d="M100.093 571.625c-.21 0-.422.093-.582.259-.318.331-.322.853 0 1.179l1.148 1.18c.15.14-.202-.186-.441-.419.086.103.156.217.236.326.228.3.511.533.756.823a1.7 1.7 0 0 0 .251.243c.054.036.218.16.174.114-.694-.766-.004 0 .172.093.194.165.484.134.645-.062s.146-.497-.046-.663l-.63-1.117a4.01 4.01 0 0 0-.252-.631c-.097-.192-.426-.756-.33-.564.385.776.013 0-.519-.518a.81.81 0 0 0-.583-.243zm1.747 2.183l.456.746c.027.046-.063-.088-.094-.13-.076-.103-.178-.186-.252-.295-.067-.093-.088-.207-.11-.321zm4.911-6.808c-.159-.124-.382-.099-.503.067-.121.16-.096.393.063.517l.173.176c-.059-.067.125.15.189.212a3.14 3.14 0 0 0 .204.176c.349.295.725.554 1.007.921.113.15.184.3.283.456l.095.16s.015.061.031.098c.079.182.219.326.409.29s.283-.419.283-.419v-.044-.085l-.031-.166c-.015-.078-.047-.228-.079-.305-.077-.186-.209-.378-.33-.533-.315-.404-.702-.802-1.101-1.118l-.236-.16-.237-.129s-.002.005-.22-.114zm5.977 5.836c-.11.015-.224.067-.299.166a.46.46 0 0 0 .063.631l.63.481c.19.181.804.647.598.486-.412-.321.002.011.66.45.118.109.292.094.394-.031a.29.29 0 0 0-.032-.403l-.85-.838-.172-.255-.079-.071s-.001.01-.598-.518c-.094-.077-.204-.108-.315-.098zm-68.726-93.939c-.428.016-.846.086-1.243.258-.696.303-1.16.913-1.621 1.504l-2.061 2.894-2.156 3.379-1.479 2.539-2.297 3.848-.928 1.924-1.259 2.329c-.67 1.178-1.318 2.437-1.605 3.783-.125.587-.406 1.371-.126 1.957.146.305.433.509.677.727l1.857 1.552 2.407 2.119 1.699 1.423.96.724L40 512.5c5.164 2.647 3.733.681 12 6 2.772 1.785 9.686 10.66 12.692 12 .805.357 9.388 5.724 10.227 5.988.849.274 1.748.434 2.628.553.459.063.884-.274.944-.745s-.264-.91-.724-.972c-.803-.109-1.544-.342-2.312-.595-1.507-.502-2.939-1.123-4.359-1.847-2.178-1.103-4.331-2.23-6.404-3.539-2.366-1.491-9.416-10.208-11.692-11.843-5.484-3.937-7.5-3.5-11.295-5.232-1.064-.833-2.11-1.717-3.163-2.571-.325-.264-.657-.502-.975-.776-.287-.243-.604-.569-.881-.823-1.016-.936-2.088-1.81-3.131-2.717-.413-.359-.878-.66-1.29-1.019-.393-.342-.738-.726-1.133-1.066l-.629-.534a11.28 11.28 0 0 0-.157-.113c-.059-.195.008-.46.063-.631.155-.482.367-.951.551-1.423.724-1.859 1.463-3.736 2.454-5.465.237-.413.513-.802.755-1.213.752-1.275 1.398-2.624 2.124-3.912.476-.846 1.02-1.663 1.526-2.49l2.108-3.363c.564-.865 1.141-1.721 1.747-2.555.349-.481.697-1.056 1.196-1.391.708-.475 1.595-.306 2.392-.339.371-.015.749-.107 1.101-.226.165-.035.27-.203.236-.372s-.197-.278-.362-.243c-.325.023-.622-.027-.944-.065-.418-.048-.862-.08-1.29-.064zm31.186-163.061l-.613 1.924c-.38 1.602-.355 3.312-.488 4.948l-.393 3.993-.661 6.08-1.148 11.867-2.439 23.542-.299 5.255-.094 3.654-.865 6.71c-.533 5.049-.738 10.127-.928 15.199l-.22 5.917c-.044 1.294-.092 2.587-.047 3.881.054 1.59.261 3.171.409 4.754.003.13.109.246.236.243s.224-.113.221-.243c.064-1.585.215-3.184.252-4.77.03-1.287-.02-2.561-.032-3.848-.018-1.965-.004-3.937.063-5.901.172-5.063.599-10.11.865-15.167.118-2.239.097-4.509.299-6.742.094-1.037.329-2.08.504-3.105a138.84 138.84 0 0 0 .787-5.174c.843-6.434 1.484-12.906 2.219-19.353l1.825-16.557c.189-2.035.309-4.075.457-6.112l.346-5.029c.099-1.317.265-2.656.126-3.977-.065-.621-.247-1.383-.378-1.989z"/><path d="M31.148 498.995c-.074-.072-.197-.059-.267.016s-.058.187.016.259c.698.845 1.488 1.58 2.266 2.345l3.871 3.508L43.5 510.5c1.188.633 4.41.963 9 4 3.994 2.644 8.25 8.64 12.5 10.834 2.413 1.241 11.415 6.457 13.9 7.533.231.098.489-.021.583-.259a.48.48 0 0 0-.252-.61c-4.549-1.796-8.799-4.222-13.044-6.664-3.538-2.034-9.308-8.537-12.687-10.834-4.862-3.311-7.271-2.531-11.826-6.272-2.036-1.671-4.065-3.359-6.01-5.142l-2.518-2.28c-.661-.611-1.294-1.25-1.998-1.811z"/><path d="M78.491 517.123c-.235-.016-.472.067-.661.238a.96.96 0 0 0-.063 1.33c.598.45.852.952 1.102 1.65.061.171.117.249.142.435.11.828-.251 1.718-.645 2.411-.858 1.5-1.993 2.825-2.958 4.248-.52.771-1.092 1.516-1.18 2.478-.037.155.048.331.205.367a.3.3 0 0 0 .362-.222c.497-1.257 1.392-2.209 2.234-3.218.959-1.154 1.868-2.318 2.517-3.689.367-.771.612-1.537.677-2.391.026-.346.067-.657 0-1.003-.175-.901-.639-1.568-1.101-2.329a.89.89 0 0 0-.629-.305zm-33.906-35.85c-.07-.058-.164-.055-.22.016-.291.257-.59.58-.661.987-.072.416.122.828.158 1.229.024.277-.065.51 0 .792.268 1.171 1.154 2.42 1.825 3.363.352.495.733.879 1.149 1.31.667.69 1.261 1.544 2.077 2.069.333.215.756.362 1.117.518a25.42 25.42 0 0 0 2.328.857l5.837 1.665 1.322.307c.429.091.849.128 1.259.291.219.078.46-.033.535-.259s-.033-.471-.252-.549c-1.401-.445-2.85-.739-4.28-1.067l-4.799-1.326-2.202-.793c-.193-.082-.388-.164-.567-.274-.47-.29-.872-.707-1.259-1.1-.634-.645-1.157-1.369-1.715-2.086-.756-.971-1.291-1.989-1.762-3.12-.091-.218-.309-.417-.361-.647-.081-.347.099-.716.188-1.035s.158-.618.315-.922c.056-.071.038-.167-.032-.226z"/><path d="M69.917 485.687c-.028-.015-.21.071-.236.081l-.614.275-.582.242-2.612 1.132c-.986.482-2.099.949-2.926 1.698-.423.383-.618.887-.818 1.407l-1.306 3.638c-.087.177-.016.395.158.485s.385.016.472-.162a23.17 23.17 0 0 0 1.023-2.328c.278-.732.477-1.538.96-2.167.291-.378.681-.587 1.07-.84.439-.287.88-.519 1.353-.744l2.942-1.31.488-.178-.52 1.439c-.205.492-.342 1.018-.519 1.52-.153.432-.37.844-.472 1.294-.037.162-.026.339-.064.501l-.393 1.504c-.097.3.054.627.346.727s.611-.071.708-.372c.231-.478.365-.968.566-1.455.064-.154.157-.282.221-.437.175-.427.242-.896.362-1.342l.346-1.196.22-1.035c.145-.533.365-1.111.409-1.665l.016-.13c.006-.074.069-.174.016-.226-.17-.166-.407-.241-.613-.356z"/><path d="M68.074 493.142c-.168-.099-.391-.042-.488.13s-.041.402.126.501l1.007.485c.517.204 1.041.391 1.479.76.666.561.929 1.367 1.211 2.167.255.722.536 1.406.881 2.085-.013.001-.011.021-.016.033-.068.17-.183.319-.284.469-.268.401-.517.728-.393 1.245.053.221.264.494.378.695l.755 1.293c.192.331.359.712.724.873.302.134.622.06.928-.016.112-.027.236-.147.331-.08.055.039.087.106.126.162.148.208.242.523.346.759l.771 1.973.598 1.325c.036.078.04.109.047.197.064.739-.28 1.438.016 2.178.401 1.009 1.899.372 2.628.279.073-.01.082.13.126.192l.456.662c.27.414.51.859.74 1.293.096.187.226.388.252.601.053.434-.385.74-.441 1.164-.031.238.033.512.079.745.218 1.112 1.001 1.862 1.998 2.276a.45.45 0 0 0 .66 0c.183-.186.183-.491 0-.677-.221-.476-.565-.828-.96-1.165-.154-.129-.381-.269-.472-.47-.096-.207.057-.321.095-.518.083-.429.294-.802.299-1.257.012-1.288-.845-2.127-1.589-3.042-.179-.218-.271-.497-.488-.678-.595-.492-1.223-.269-1.888-.114-.158.036-.315.052-.472.067-.01-.093-.007-.186 0-.279.041-.559.193-1.123.032-1.682-.086-.295-.264-.558-.394-.838l-.881-1.892-.661-1.407c-.042-.079-.156-.288-.204-.339-.126-.135-.244-.295-.409-.372s-.365-.084-.55-.081c-.14.002-.273.064-.409.097-.09.022-.322.122-.378.048-.399-.534-.703-1.158-1.054-1.73l-.33-.501c-.006-.007-.019-.024-.016-.032.173-.502.748-.921.692-1.504-.029-.306-.306-.668-.409-.889l-.283-.696c-.285-.722-.551-1.454-.96-2.118-.563-.915-1.551-1.336-2.439-1.843-.319-.182-.618-.304-.913-.534z"/><path d="M79.01 509.957c-.397.057-.746.207-1.133.31-1.221.311-2.337.828-3.414 1.501-.408.253-.734.611-1.133.874-.277.181-.604.295-.897.456-.023.01-.306.134-.315.176-.066.284-.203.584-.141.874.042.191.292.259.425.404.377.403.672.864.975 1.324l.944 1.392c.115.15.187.336.346.435.209.134.471.16.708.227.141.036.759-.3.897-.357l3.54-1.485c.231-.114.485-.202.692-.357.212-.16.367-.388.55-.584.183-.109.236-.342.126-.533s-.519-.145-.519-.145l-.411.227h-.329l-.613.357a15.53 15.53 0 0 1-1.857.87 10.69 10.69 0 0 1-1.526.486c-.136.031-.285.041-.425.067-.043-.036-.1-.067-.126-.098l-.724-.828c-.502-.528-1.048-1.061-1.448-1.676l.173-.166c.305-.321.578-.507.976-.693.927-.44 1.785-1.045 2.691-1.537.442-.238.909-.559 1.4-.678.115-.031.346-.051.346-.051s.009.005.346-.078c.19-.036.319-.228.283-.419-.035-.197-.218-.331-.409-.295zm-4.436-7.536c-.187-.049-.391.023-.582.049l-1.038.161c-.876.148-1.817.371-2.58.857-.474.302-.877.704-1.337 1.019-.194.132-.448.295-.677.356-.413.109-.671.004-.865.533-.151.411-.023.962.079 1.356.233.911.687 2.126 1.29 2.866.113.135.266.249.378.388.157.197.18.414.456.451.34.046.765-.104 1.07-.207.666-.233 1.277-.647 1.904-.973.642-.331 1.284-.652 1.983-.838.666-.187 1.362-.207 2.014-.425.135 0 .239-.119.236-.258s-.116-.259-.252-.259c-.892-1.928-.363-1.41-.881-1.923-.439-.435.443 1.183.472 1.809.007.14-.261.016-.393.021a5.9 5.9 0 0 0-.74.062c-.534.083-1.051.233-1.558.419-.759.285-1.441.73-2.187 1.035-.422.176-.894.315-1.337.44.021-.011.043-.021.063-.037-.046-.005-.105-.015-.142-.046-.097-.078-.128-.212-.189-.321l-.629-1.185a6.23 6.23 0 0 1-.519-1.744c-.01-.07-.007-.154 0-.227.001-.009.025-.036.016-.032-.062.026-.122.093-.189.097-.018.001-.048-.04-.031-.049.194-.101.44-.101.645-.21.923-.486 1.856-.941 2.848-1.277.701-.237 1.464-.395 2.203-.404.155-.002.31.052.456 0 .067-.023.137-.191.173-.129.703 1.201-.004.003.141-.146.239.03.459-.158.488-.404a.43.43 0 0 0-.378-.485c-.119-.135-.221-.29-.409-.34zm-4.484 6.902c.038.006.083-.057.063-.046s-.04.036-.063.046zm-.078-14.807c-.69-.008-1.299.235-1.951.453-1.506.503-2.991 1.299-4.201 2.361-.335.294-.72.616-.96 1.002-.226.363-.389.777-.519 1.181-.091.28-.131.199-.158.501-.109 1.243 1.185 2.593 2.235 2.991.77.292 1.638-.351 2.281-.695l.677-.372c.976-.522 1.965-.98 2.989-1.391.225-.09.432-.23.661-.307.369-.123.76-.029 1.133 0 .186.055.37-.051.424-.243s-.05-.397-.236-.452c-.102-.19-.062.094-.155-.055.021.066-.025-.064-.003-.01s-.098-.052-.157-.064a2.99 2.99 0 0 0-.378-.017l-.755.033c-.139.001-.27-.04-.409-.033-.572.028-1.154.26-1.684.469-.922.365-1.804.831-2.69 1.277l-1.259.582c-.052-.027-.095-.065-.141-.096l-.268-.178c-.357-.25-.723-.513-.944-.906a2.32 2.32 0 0 1-.236-.824c.017-.386.307-.673.52-.954.471-.623 1.077-1.082 1.731-1.488l.74-.436.519-.259 1.054-.453c.485-.204.952-.377 1.463-.501.143-.035.349-.215.441-.097.236 0 .378-.146.378-.146.233-.041.387-.277.346-.517s-.255-.397-.488-.356z"/><path d="M60.855 493.983c-.126.108-.137.308-.032.436 1.139 1.969.564 1.132 1.133 1.973.354.522-.626-1.102-.913-1.665-.056-.111.149.19.221.291l.221.307c.343.536.513 1.148.802 1.714.117.229.519.887.393.663-.613-1.099.003-.004.425.647.085.162.283.232.441.145s.211-.29.126-.453l-1.196-2.005c-.254-.461.523.914.897 1.278.183.178-.18-.467-.299-.696-.301-.577-.713-1.107-1.07-1.649l-.221-.323-.236-.323c.696 1.247-.004.004-.267-.292-.105-.129-.299-.156-.424-.048zm5.71 7.793c-.086.086-.083.219 0 .307l.614.889-.315-.388c.204.314.862 1.221.661.906l.314.469.331.469c-.536-.778-.008-.008.315.469a.52.52 0 0 0 .739.097c.228-.183.273-.526.095-.76l-1.227-1.229c-.286-.258.544.559.85.792.151.117-.249-.294-.378-.437l-.803-.824-.409-.42c.65.709.013-.004-.472-.34-.083-.088-.229-.085-.315 0zm4.008 8.211c-.086.085-.083.219 0 .307l.614.889-.315-.388c.204.314.862 1.221.661.906l.314.469.331.469c-.536-.778-.008-.008.315.469a.52.52 0 0 0 .739.097c.228-.183.273-.526.095-.76l-1.227-1.229c-.286-.258.544.559.85.792.151.116-.249-.294-.378-.437l-.803-.824-.409-.421c.65.71.013-.003-.472-.339-.083-.088-.229-.085-.315 0zm.162-285.877c-.135-.081-.299-.041-.378.097-.284.302-.565.615-.755.987-.286.558-.445 1.208-.771 1.745-.222.367-.536.661-.771 1.019l-.661 1.116-.803 1.035-1.432 2.231-1.211 1.617c-.758 1.127-1.307 2.398-2.14 3.476-.212.275-.705.772-.913 1.051-.274.369-.498.766-.755 1.148l-1.164 1.746-3.162 4.608-2.014 2.846c-.339.436-.547.634-.85 1.099l-.724 1.197-1.589 2.264c-.253.382-.447.793-.692 1.18s-.569.721-.865 1.067c-.438.511-.819 1.07-1.211 1.617l-4.925 6.904-2.156 2.991-1.274 2.005-1.904 2.814-1.746 2.635c-.627.964-1.258 1.926-2.14 2.668-1.43 1.204-3.917 1.714-5.711 1.342-.973-.202-1.887-.63-2.753-1.116l-1.621-.97c-.766-.521-1.465-1.159-2.155-1.778-1.689-1.515-3.15-3.292-4.5-5.126-.424-.576-.845-1.184-1.196-1.811-1.335-2.387-1.972-5.138-2.423-7.825l-.472-3.008c-.107-.75-.15-1.533-.362-2.264-.143-.492-.355-.97-.519-1.454-.082-.244-.131-.495-.236-.728s-.264-.442-.393-.663c-.112-.308-.44-.455-.739-.34a.6.6 0 0 0-.346.76c.079.476.212.939.33 1.407s.14.95.22 1.423c.122.72.357 1.419.504 2.134l.802 4.544c.267 1.341.621 2.671 1.07 3.961a20.17 20.17 0 0 0 2.203 4.43c.683 1.033 1.446 1.994 2.234 2.943a32.62 32.62 0 0 0 4.988 4.834c1.501 1.176 3.17 2.098 5.051 2.425 1.08.188 2.196.126 3.273-.064.68-.121 1.374-.289 1.998-.598 2.563-1.271 3.632-3.826 5.113-6.144l2.439-3.72 1.385-1.891 2.061-3.056 5.271-7.486.755-1.116c.232-.394.423-.808.708-1.164l.897-1.035 1.212-1.698 1.29-1.633c.425-.551.751-1.174 1.148-1.746l2.03-2.862 3.21-4.576 1.589-2.279c.365-.601.607-1.244 1.007-1.827l1.967-2.798c.36-.576.629-1.194.976-1.778l1.416-2.264c.213-.385.36-.807.566-1.196.202-.383.468-.721.677-1.1s.32-.807.535-1.18c.316-.547.808-.989 1.149-1.52.225-.351.355-.761.472-1.164.079-.138.025-.307-.11-.388z"/><path d="M95.357 178.174c-.937.064-1.86.191-2.785.356-5.235.93-10.514 2.47-14.837 5.772-1.587 1.212-3.091 2.644-4.359 4.204s-2.388 3.291-3.493 4.98c-1.662 2.54-3.254 5.12-4.862 7.696-.964 1.545-1.885 3.131-2.99 4.576-.279.365-.692.63-1.038.921l-.913.76-3.052 2.62c-.436.357-.889.691-1.322 1.051l-6.152 5.255c-.885.786-1.835 1.526-2.659 2.377-.233.24-.414.518-.645.76s-.496.455-.74.678l-6.75 6.355-3.021 2.975-2.864 2.765c-.355.358-.675.75-1.007 1.131-.636.731-1.301 1.433-1.951 2.151-2.685 2.963-5.233 6.079-7.363 9.491-.282.452-.361.868-.598 1.326-.403.778-1.017 1.458-1.29 2.312-.098.306-.087.5-.173.808-.103.368-.311.717-.456 1.068a9.67 9.67 0 0 0-.519 1.681c-.157.727-.257 1.47-.205 2.215.007.101.005.21.031.308.077.285.294.554.456.792.026.117.137.188.252.162s.183-.142.157-.259c.047-.263.155-.559.173-.825.012-.172-.026-.329-.031-.501-.011-.37-.013-.746.016-1.116.075-.963.284-2.011.582-2.927.131-.402.387-.634.598-.986.434-.726.634-1.598 1.086-2.312.172-.272.424-.471.614-.727s.328-.553.503-.825c.997-1.543 2.137-2.966 3.257-4.414 1.935-2.501 4.016-4.888 6.246-7.114 1.108-1.107 2.118-2.32 3.194-3.46.767-.813 1.592-1.582 2.392-2.361l5.239-4.964 2.124-1.956c.244-.222.48-.46.739-.663s.557-.344.819-.55c.527-.416.993-.909 1.494-1.358l2.329-2.07 2.801-2.49 3.288-2.991c1.146-1.022 2.335-1.987 3.509-2.975.477-.401 1.022-.786 1.447-1.245.46-.496.795-1.148 1.164-1.714l2.029-3.201 5.429-8.554c1.233-1.859 2.441-3.752 4.012-5.335 1.09-1.099 2.353-1.995 3.619-2.862 1.479-1.013 3.021-1.902 4.657-2.619 2.523-1.107 5.255-1.852 7.945-2.377 1.304-.254 2.624-.445 3.949-.534a8.41 8.41 0 0 1 1.337.016c.059.006.164-.005.221.016.571.224 1.096.575 1.557.987a3.72 3.72 0 0 1 .787 1.002c.238.443.468.986.456 1.504-.015.636-.504 1.13-.96 1.504-.936.769-2.149 1.13-3.288 1.439l-1.133.323c-.095.025-.298.051-.378.113-.158.124-.4.209-.456.404-.075.259.034.55.11.809.039.134.288.24.409.291.41.173.857.268 1.29.356 1.391.28 2.772.594 4.028 1.293.258.144.737.351.834.679.041.137 0 .333-.016.469-.046.399-.121.785-.189 1.181-.168.98-.261 1.943-.22 2.942.039.957.519 1.7.834 2.571.182.503.293 1.015.299 1.552.009.842-.163 1.67-.394 2.474l-.22.776c-.008.029-.022.053-.031.081-.143-.087-.279-.191-.44-.194-.356-.007-.743.022-1.039.226-.25.173-.329.513-.456.793-.191.42-.224.997-.283 1.455-.072.561-.093 1.208-.267 1.746-.244.749-.829 1.426-1.495 1.811-1.312.759-2.885.498-4.311.679-1.372.174-2.669.728-3.713 1.666-2.729 2.448-5.242 5.141-7.962 7.599-2.888 2.608-6.051 5.014-9.818 6.047-.471.115-.773.6-.661 1.083a.87.87 0 0 0 1.054.663c3.131-.686 5.788-2.479 8.26-4.511 2.603-2.141 4.984-4.558 7.395-6.92 1.026-1.005 2.022-2.107 3.162-2.975 1.167-.888 2.67-1.051 4.075-1.164 1.147-.093 2.255-.037 3.32-.583.979-.501 1.819-1.458 2.203-2.506.213-.582.289-1.21.33-1.827.028-.417.079-.818.158-1.229.016-.082.048-.175.063-.258.148.066.301.131.456.145.543.052.976-.241 1.244-.711.326-.575.446-1.305.582-1.941.279-1.303.445-2.654.078-3.961a4.63 4.63 0 0 0-.361-.905c-.128-.244-.314-.475-.394-.744-.045-.151-.056-.38-.079-.534-.057-.383-.118-.697-.126-1.099-.017-.935.144-1.861.283-2.781.09-.591.193-1.221-.078-1.779-.424-.873-1.364-1.326-2.203-1.649-.808-.311-1.639-.584-2.47-.824-.016-.005-.031-.012-.047-.017.283-.117.578-.206.85-.339 1.721-.844 3.459-2.027 3.272-4.22-.024-.282-.082-.542-.173-.809-.238-.699-.661-1.304-1.164-1.827-.519-.538-1.07-.945-1.715-1.309-.213-.121-.398-.225-.629-.292-.59-.168-1.256-.089-1.856-.048z"/><path d="M96.648 201.328c-.574-.006-1.179-.004-1.747.097l-1.18.227-1.747.193c-1.174.189-2.352.496-3.509.777-.156.016-.268.164-.252.323a.29.29 0 0 0 .315.259c.528.011 1.019-.047 1.542-.113l1.526-.194 2.234-.421c.383-.065.776-.058 1.164-.065.376-.006.742-.056 1.117-.08 1.264-.082 2.641-.061 3.761.614.149.126.365.105.487-.048a.38.38 0 0 0-.047-.518c-.897-.978-2.45-1.038-3.666-1.051zm-1.62-8.31c-.741.025-1.474.157-2.202.291-.858.158-1.717.346-2.534.663-.628.244-1.23.587-1.841.873l-1.857.905c-.212.102-.431.179-.629.308-.216.141-.4.334-.598.501-.018.005-.021.031-.016.049s.014.021.031.016c.255.028.515.086.771.081.678-.015 1.442-.288 2.093-.469l1.306-.421 1.274-.404 1.731-.743a9.21 9.21 0 0 1 2.25-.631c.192-.027.36.02.551-.033s.389-.178.582-.145c.371.063.708.365 1.086.421.101.014.198-.03.299-.017.205.027.376.16.566.227.314.108.595.171.897.323.437.22.807.522 1.243.743.156.118.389.096.503-.064s.078-.4-.078-.518c-.453-.477-1.026-.776-1.589-1.099-.208-.119-.395-.26-.614-.356-.21-.092-.451-.101-.661-.194-.107-.047-.188-.141-.299-.178-.437-.144-.892.035-1.321.049-.343.011-.595-.19-.945-.178zm-4.391-7.115c-1.588.053-3.152.522-4.594 1.181l-.74.372c-.238.137-.444.306-.677.452l-1.368.825-2.471 1.568c-.082.04-.117.142-.078.227s.138.119.22.081c1.017-.235 1.783-.628 2.722-1.068l1.431-.647.755-.258c1.184-.455 2.366-1.12 3.619-1.374l1.228-.194c.838-.064 1.698.047 2.533.113 1.24.098 2.541.227 3.713-.275a.36.36 0 0 0 .252-.437c-.051-.192-.238-.311-.425-.258-.513.068-1.087.133-1.605.096-1.504-.106-3.001-.454-4.515-.404zM6.572 214.409a.51.51 0 0 0-.472.55c-.024 1.098-.222 2.202-.299 3.298l-.205 6.048-.299 6.16-.157 3.638-.236 3.573.047 1.73.063 4.77c.052 1.638.161 3.276.488 4.883.14.688.293 1.434.787 1.956.793.84 1.949 1.009 2.989 1.326l.566.194c1.268.356 2.692.362 3.996.34 1.267-.022 2.528-.126 3.776-.356l.771-.162c.257-.062.536-.087.771-.21.255-.133.451-.37.677-.55.077-.019.113-.098.094-.178s-.096-.116-.173-.096c-.276-.054-.538-.153-.818-.162-.503-.016-.997.155-1.495.226l-1.479.178c-1.792.166-3.567.105-5.349-.13l-1.101-.112c-.696-.116-1.375-.44-1.967-.825-.856-.558-.923-1.686-1.038-2.636-.273-2.25-.219-4.514-.157-6.775l.047-1.649.157-1.697.063-3.558.236-3.622.142-2.699.33-5.126.189-4.446c-.04-1.148-.248-2.266-.409-3.396-.018-.288-.254-.503-.535-.485zM31.4 155.394c-.432.074-.861.226-1.29.324-.723.164-1.426.294-2.124.566-.987.384-1.955.899-2.895 1.39-.83.433-1.685.887-2.439 1.455l-3.556 2.927-5.711 4.754-4.893 4.155-4.059 3.573-1.636 1.568c-.216.223-.459.448-.629.712-.375.582-.498 1.302-.629 1.973a10.24 10.24 0 0 0-.189 1.471c-.118 2.424.16 4.887.441 7.292l.724 4.964.582 3.557 1.101 5.546 1.07 6.597.928 5.481a.7.7 0 0 0 .802.582.7.7 0 0 0 .566-.809l-.897-5.513-1.227-6.564-.818-5.595-1.054-6.888-.755-7.567c-.036-1.074-.126-2.339.173-3.379.187-.65.682-1.047 1.18-1.52l1.07-.986 5.79-5.093 4.925-4.172 4.767-4.01 1.762-1.471c.269-.223.593-.439.834-.695.14-.15.565-.376.787-.518l1.479-.889c1.148-.646 2.35-1.082 3.572-1.552.519-.2 1.02-.43 1.573-.518.269-.043.547-.024.818-.048.399-.035.777-.165 1.18-.178.861-.028 1.754.157 2.533.534s1.213.887 1.794 1.503c.22.234.464.438.692.663.056.096.174.123.267.065s.135-.179.079-.275c-.095-.334-.182-.701-.362-1.002-.233-.391-.633-.748-.975-1.035-1.162-.973-2.561-1.322-4.028-1.375-.437-.015-.886-.074-1.322 0z"/><path d="M2.513 177.157c-.149-.128-.379-.105-.503.049a.36.36 0 0 0 .047.5c.207.27.436.433.677.664.235.224.43.508.614.776l.771 1.164.787 1.18c.797 1.099 2.165 2.722 3.682 2.49 1.02-.156 1.763-1.01 2.612-1.52.226-.135.452-.284.708-.339.267-.058.546.004.818.016.139.006.052.481.047.614v.356l.016.42c.129.96.722 1.587 1.511 2.054 1.672.989 3.707 1.635 5.554 2.183 1.436.425 2.877.83 4.075 1.778.308.252.762.203 1.007-.113s.197-.783-.11-1.035c-.877-.737-2-1.117-3.037-1.552l-2.423-.954c-1.447-.504-2.96-.912-4.311-1.665-.261-.146-.67-.354-.771-.679-.27-.872.208-1.847-.708-2.474-.134-.092-.332-.172-.488-.211-.125-.03-.249-.068-.378-.064-.376.012-.757.001-1.117.113s-.688.338-1.007.55c-.292.194-.546.44-.818.663-.54.441-1.203 1.088-1.951.792-1.138-.451-1.921-1.553-2.612-2.522l-1.479-1.989c-.381-.458-.691-.952-1.212-1.245zm29.72 19.323c-.158.141-.169.387-.032.549l1.621 2.393 2.297 2.846 4.185 5.724c1.011 1.608 1.938 3.344 2.628 5.125.349.902.626 1.859.865 2.797l.221.922c.146.47.373.924.535 1.39.002.08.064.148.142.146s.144-.082.142-.162c.138-.489.323-1.006.346-1.52.031-.672-.146-1.416-.283-2.069-.291-1.393-.849-2.777-1.447-4.059-1.185-2.538-2.82-4.87-4.5-7.082l-4.091-4.996c-.663-.702-1.37-1.337-2.093-1.972a.37.37 0 0 0-.535-.032zm10.685-29.802c-.073.055-.084.152-.032.227.389.738.833 1.407 1.29 2.102l.928 1.487c.704 1.007 1.509 1.973 2.297 2.911l1.919 2.182c4.821 5.067 11.573 9.136 18.676 8.602 4.187-.314 8.15-2.218 11.628-4.527 1.091-.724 2.199-1.481 3.178-2.361.644-.579 1.194-1.25 1.794-1.875.419-.438.843-.888 1.227-1.359.149-.147.144-.38 0-.533s-.386-.164-.535-.017c-.465.373-.899.779-1.353 1.165-.642.545-1.339 1.013-1.998 1.536-1.556 1.234-3.048 2.51-4.767 3.508-1.765 1.026-3.651 1.929-5.617 2.458-4.66 1.256-9.561.636-13.83-1.633-1.955-1.039-3.779-2.424-5.444-3.897-1.876-1.66-3.609-3.502-5.255-5.4-.392-.451-.759-.937-1.149-1.39-.377-.438-.795-.834-1.164-1.278-.524-.63-.998-1.277-1.558-1.875a.17.17 0 0 0-.236-.033zm55.933 42.297c-.144-.134-.358-.115-.487.032s-.128.368.016.501c.29.29.735.613.928.987.174.336.228 1.092.173 1.471-.308 2.136-3.844 3.515-5.334 1.827-.31-.351-.536-.901-.645-1.358a1.91 1.91 0 0 1-.047-.404c-.002-.144.064-.281.031-.42-.039-.167-.185-.291-.236-.454s-.041-.343-.063-.517c0-.211-.173-.388-.378-.388s-.361.177-.361.388l-.079.55c-.042.187-.166.342-.173.533-.007.171.097.338.142.502.081.297.111.591.189.889.133.511.42 1 .724 1.423 1.827 2.549 5.555 1.215 6.734-1.277.317-.672.455-1.417.283-2.151-.088-.372-.281-.59-.472-.905-.312-.514-.481-.827-.944-1.229zm28.431-4.947c-.193-.01-.352.141-.362.34.125 1.569-.262 2.9-.818 4.349-.408 1.064-.89 2.075-1.463 3.056-1.577 2.696-3.63 4.957-5.901 7.049-1.496 1.379-3.075 2.661-4.72 3.848-3.058 2.209-6.304 4.167-9.629 5.918-5.218 2.748-10.625 5.058-16.19 6.953-2.358.803-4.741 1.488-7.143 2.134-2.723.733-5.482 1.345-8.276 1.714-2.111.279-4.273.485-6.404.437-1.531-.036-3.05-.379-4.579-.308a.44.44 0 0 0-.535.324.46.46 0 0 0 .33.549c.389.23.587.366 1.023.502.559.173 1.199.242 1.778.307 1.098.123 2.216.139 3.319.145 2.589.015 5.159-.336 7.71-.759 2.329-.387 4.654-.864 6.939-1.472 5.974-1.589 11.777-3.816 17.37-6.484 5.253-2.506 10.32-5.432 14.947-9.022 3.15-2.443 6.069-5.13 8.512-8.327 1.335-1.747 2.502-3.62 3.304-5.691.649-1.672.813-3.434 1.117-5.19a.35.35 0 0 0-.33-.372zm-14.789-57.981c-.056.036-.083.103-.047.161.774 1.507 1.814 2.868 2.816 4.221l3.698 4.979c2.185 2.976 4.421 5.942 6.325 9.12.483.805.9 1.658 1.337 2.489 1.055 2.006 1.995 4.041 2.817 6.161 1.221 3.152 2.019 6.771 1.652 10.17-.106.979-.335 1.907-.614 2.845-.102.344-.196.815-.331 1.148-.465 1.158-1.195 2.29-1.95 3.267-1.763 2.277-4.065 4.015-6.451 5.545-1.397.896-2.908 1.57-4.248 2.555-.202.095-.297.343-.205.55s.334.305.535.21a11.66 11.66 0 0 0 1.038-.291c.947-.342 1.844-.888 2.722-1.374a26.93 26.93 0 0 0 3.776-2.523c1.602-1.278 3.056-2.778 4.233-4.478.655-.947 1.148-1.925 1.621-2.975.208-.464.376-.701.55-1.18.723-1.997.912-4.212.787-6.323-.299-5.037-2.391-9.68-5.019-13.873-.881-1.405-1.86-2.759-2.801-4.122-1.065-1.546-2.162-3.06-3.288-4.56-1.322-1.761-2.676-3.484-4.044-5.207-1.665-2.096-3.172-4.321-4.752-6.483-.035-.058-.1-.069-.157-.032z"/><path d="M125.535 86.724c-.692.1-1.182.679-1.636 1.164l-1.967 2.135c-2.731 2.986-5.345 6.082-8.024 9.119-2.657 3.011-5.336 6.004-8.15 8.861-1.314 1.333-2.617 2.726-4.138 3.815-.392.281-.813.547-1.259.728-.699.285-1.534.387-2.266.598-1.623.468-3.253 1.053-4.5 2.264-1.324 1.286-2.139 2.998-2.612 4.786-.233.878-.287 1.786-.74 2.587-.439.778-1.093 1.337-1.762 1.892-.238.197-.465.411-.724.582-.591.389-1.276.623-1.778 1.148-.315.344-.304.872.031 1.196a.82.82 0 0 0 1.18-.032c.147-.199.476-.325.677-.453.245-.156.476-.333.724-.485.298-.183.622-.32.913-.517a7.42 7.42 0 0 0 2.249-2.442c1.179-2.1.753-4.959 2.659-6.694 1.308-1.19 3.15-1.75 4.799-2.199.977-.266 1.862-.412 2.721-.97 1.63-1.056 3.057-2.5 4.421-3.88 2.164-2.187 4.115-4.553 6.137-6.872l9.031-10.639c1.095-1.245 2.195-2.594 3.509-3.605a14.55 14.55 0 0 1 .393-.291c.632 3.01 1.732 5.941 3.446 8.472 1.272 1.879 3.011 3.321 4.657 4.834 2.592 2.381 5.204 4.761 8.025 6.856 1.73 1.285 3.561 2.53 5.538 3.379.648.278 1.399.613 2.108.663 1.045.073 1.897-.809 2.549-1.52.165-.181.323-.369.504-.533.01.029.03.052.031.08.007.507-.211 1.036-.409 1.488-.566 1.287-1.333 2.465-2.155 3.589-.764 1.044-1.562 2.055-2.376 3.056-.251.308-.534.586-.771.906-.216.291-.38.628-.614.905-.203.24-.465.431-.677.663-.324.356-.614.768-.912 1.148-1.003 1.28-1.847 2.664-2.801 3.977-.504.694-1.035 1.36-1.495 2.087-.156.246-.284.508-.456.743-.353.481-.786.885-1.148 1.358-1.496 1.954-2.82 4.062-4.233 6.08l-6.907 9.976-3.917 5.691c-1.007 1.447-2.086 2.845-2.849 4.447-.114.16-.093.384.063.501s.374.08.488-.081c1.446-1.418 2.549-3.19 3.713-4.851l5.051-7.227 5.349-7.729 3.761-5.271a22.5 22.5 0 0 0 .991-1.52c.152-.257.271-.531.441-.776.331-.477.742-.89 1.085-1.358.496-.677.94-1.381 1.463-2.037l2.392-3.072c.303-.401.673-.764.976-1.164.191-.253.336-.529.534-.777.23-.285.53-.517.771-.792.738-.838 1.374-1.803 2.014-2.716.977-1.39 1.967-2.786 2.786-4.285.539-.988 1.386-2.689.755-3.815-.434-.774-1.155-.64-1.715-.13-.469.427-.85.967-1.322 1.39-.176.158-.4.351-.645.388-.307.047-.657-.166-.928-.274-4.882-1.949-8.892-5.674-12.792-9.152-2.812-2.507-5.937-4.89-7.458-8.505-.739-1.757-1.197-3.651-1.605-5.513-.158-.722-.251-1.51-1.196-1.375z"/><path d="M94.604 116.863a.36.36 0 0 0-.221.453c.372 1.313 2.071 1.485 3.131 1.875.444.163.612.264 1.007.517.215.138.816.514.865.793.077.433-.502 1.282-.708 1.633-.244.416-.543.836-.739 1.277-.158.354-.342.701-.409 1.083-.056.322.01.661.047.987.013.117.054.229.094.339a1.29 1.29 0 0 0 .268.404c.801.873 1.721-.075 2.328-.646.179-.169.388-.383.598-.518a1.87 1.87 0 0 1 .252-.129c.01-.005.077.035 0 .032-.054-.001.059.09.063.146a1.66 1.66 0 0 1-.016.323c-.045.33-.145.64-.189.97-.123.941-.355 1.946-.251 2.895.1.922.545 1.807.928 2.635.85 1.839 2.004 3.461 3.241 5.045l1.495 1.875a.84.84 0 0 0 1.196.243c.402-.272.516-.816.251-1.229-.574-.98-1.312-1.831-2.029-2.7-.741-.898-1.421-1.827-2.046-2.814-.316-.499-.63-1.005-.865-1.552s-.369-.981-.346-1.584l.126-1.472c.168-1.036.454-2.087.063-3.12-.342-.902-1.331-1.49-2.234-1.035-.468.235-.822.611-1.181.986-.142.149-.306.278-.456.421-.002-.072-.017-.141 0-.211.104-.438.343-.83.55-1.228.508-.977 1.641-2.547 1.055-3.687-.547-1.064-1.645-1.283-2.675-1.585l-1.148-.355c-.501-.143-1.378-.281-1.605-.841-.062-.188-.257-.29-.441-.226zm21.428 3.071c-.043-.005-.073.021-.078.065l-.63 3.379-.377 2.118-.236 2.377-.315 3.428c-.128 2.136-.117 4.265-.063 6.403.076 2.999.28 6.01.85 8.957l.582 2.393.519 1.456c.516 1.413 1.154 2.791 2.093 3.961.189.235.398.502.629.695.311.26.728.39 1.102.518.071.051.17.024.22-.049s.024-.175-.047-.227l-.63-.921-.724-.857c-.486-.665-.873-1.406-1.195-2.166-.577-1.361-.883-2.804-1.164-4.253-.495-2.542-.718-5.125-.819-7.713l.016-7.259.078-4.285.126-2.36.016-2.151.126-3.428c.005-.044-.035-.075-.079-.081zm-4.938-84.949c-.16.149-.177.402-.032.566l3.509 5.465c1.157 2.118 2.146 4.359 3.099 6.581l3.414 8.667 2.392 7.146.661 2.264.22.695.063.243.031.097a1.28 1.28 0 0 1 .032.113l.047.21.11.501.378 1.536 1.18 4.737 2.14 7.68c.388 1.211.73 2.508 1.353 3.622.824 1.472 2.014 2.654 3.241 3.767.67.607 1.336 1.223 2.093 1.714.089.076.225.076.299-.016s.058-.232-.032-.307l-1.904-1.892-1.007-1.148c-.7-.813-1.385-1.618-1.903-2.571-.431-.792-.682-1.683-.96-2.538l-.882-2.829c-1.009-3.222-1.839-6.48-2.627-9.766l-.692-3.039c-.24-.95-.571-1.87-.881-2.798l-1.007-3.072c-1.4-4.215-2.862-8.413-4.516-12.531-1.035-2.578-2.196-5.093-3.477-7.551-1.045-2.005-2.118-3.988-3.792-5.514-.145-.164-.391-.181-.55-.032z"/><path d="M129.452 84.768c.087-.083-.221.081-.331.129l-.345.162c-.626.281-1.237.594-1.779 1.035-.212.173-.83.712-.582.598 1.184-.542-.001-.007-.393.598-.168.176-.172.458 0 .631s.461.176.629 0l.519-.355c-.173.151.404-.219.599-.34l.629-.42c.108-.067.236-.097.346-.162.249-.146.391-.306.629-.469l.315-.194.299-.21c-1.116.709-.003.008.189-.34.17-.095.233-.326.141-.501s-.301-.241-.472-.146l-1.919 1.261c-.531.395 1.048-.817 1.526-1.278zm3.181-57.933c-.266.075-.435.357-.362.63.477 2.227 1.399 4.35 2.313 6.419l3.792 7.632 3.524 6.209c2.279 3.962 4.723 7.817 7.191 11.658l6.985 10.898c1.446 2.258 2.785 4.596 4.674 6.5.841.849 1.781 1.567 2.643 2.393.428.411.892.836 1.054 1.439.221.822.081 1.698-.031 2.522-.228 1.672-.675 3.233-1.227 4.819-.139.396-.261.805-.41 1.196-.529 1.397-1.302 2.706-2.014 4.01-1.807 3.311-4.031 6.349-5.979 9.572-.917 1.519-1.728 3.089-2.47 4.705-.184.4-.389.797-.535 1.213-.072.209-.155.41-.173.63-.02.243.041.486.063.728.17-.165.376-.294.519-.485.257-.34.368-.785.535-1.18a23.04 23.04 0 0 1 .535-1.164c.769-1.566 1.671-3.078 2.581-4.56 1.276-2.081 2.622-4.124 3.965-6.16.729-1.106 1.451-2.225 2.108-3.379.543-.955 1.013-1.931 1.479-2.926s.937-1.95 1.274-3.008c.464-1.457.815-3.01.913-4.543.035-.557.084-1.208-.047-1.762-.36-1.523-1.605-2.52-2.706-3.476-.613-.532-1.218-1.075-1.763-1.681-1.148-1.28-2.022-2.774-2.926-4.237l-2.612-4.139-11.659-18.642c-2.475-4.103-4.887-8.242-7.017-12.547-.581-1.174-1.169-2.349-1.684-3.557-.748-1.758-1.333-3.55-1.919-5.368-.073-.274-.348-.431-.614-.356zM92.793 1.823c-.557-.051-1.109-.008-1.636.178-.76.268-1.601.843-1.636 1.746-.038.967.373 1.919.74 2.781l.378.986c.113.224.261.424.378.647l.724 1.471 2.864 4.964 6.341 10.009 3.052 4.786 2.282 3.557c.442.697.815 1.364 1.542 1.779 1.757 1.002 3.951.876 5.9.808.19-.034.332-.208.299-.404s-.218-.341-.409-.307c-.537.191-1.107.169-1.668.162-1.112-.015-2.238-.164-3.289-.55-.346-.127-.685-.33-.959-.582-.474-.435-.82-1.183-1.165-1.73l-1.982-3.104c-3.461-5.514-7.231-10.813-10.542-16.428l-.96-1.649-.865-1.552c-.256-.476-.539-.943-.755-1.439-.099-.228-.157-.465-.252-.695-.088-.213-.208-.403-.299-.614-.257-.598-.425-1.268-.55-1.908-.085-.432-.167-1.047.157-1.407.403-.448 1.174-.401 1.715-.42.796-.028 1.536.026 2.297.291.162.056.522.202.661.307.199.15.344.356.535.517.289.244.6.452.849.744.471.55.821 1.213 1.228 1.811a63.54 63.54 0 0 1 1.448 2.247c.738 1.191 1.536 2.319 2.344 3.46.624.879 1.277 1.738 2.03 2.506.572.582 1.209 1.164 1.935 1.536s1.537.542 2.282.873c.571.254 1.125.561 1.683.841.388.194.791.326 1.18.517.771.377 1.467.953 2.188 1.423.672.439 1.391.792 2.045 1.261.422.303.786.688 1.195 1.002.46.352.992.64 1.495.922a.54.54 0 0 0 .771-.129.58.58 0 0 0-.141-.792c-.431-.396-.877-.834-1.369-1.148-.604-.386-1.262-.658-1.857-1.067-.879-.604-1.74-1.213-2.69-1.698-.398-.203-.815-.364-1.196-.598-.583-.358-1.12-.708-1.747-.986a23.06 23.06 0 0 0-2.328-.905c-.449-.144-.871-.25-1.29-.469-1.103-.576-1.965-1.571-2.738-2.538-.848-1.061-1.542-2.203-2.25-3.363l-1.809-2.91c-.581-.99-1.161-1.985-1.92-2.846-.222-.252-.385-.439-.661-.631-.242-.169-.546-.244-.818-.356-.386-.158-.74-.372-1.133-.517-.515-.191-1.064-.337-1.621-.388z"/><path d="M100.583.626c-.249.032-.5.107-.755.243-.519.275-1.023.743-1.432 1.164-.534.551-1.002 1.149-1.337 1.843-.118.161-.078.38.079.501s.37.096.488-.065c.908-.848 1.567-1.931 2.675-2.538.241-.132.583-.336.865-.356.751-.052 1.473.516 1.998.986 1.041.931 1.786 2.086 2.376 3.363l.598 1.342.74 2.053.597 1.973.519 1.681c.092.296.224.656.252.97.019.207-.268.553-.393.695-.444.505-1.345 1.076-2.03 1.051a.53.53 0 0 0-.66.372c-.08.292.093.597.377.679 1.179.514 2.431-.528 3.1-1.455.332-.46.579-1.047.409-1.633l-.913-3.282-.975-2.733-.897-2.07-.677-1.293c-.921-1.653-2.255-3.337-4.232-3.492-.277-.022-.522-.032-.771 0z"/><path d="M110.131 1.127c-.634.021-1.099.285-1.651.598-.593.336-1.16.805-1.7 1.229-.511.402-.95.828-1.604.954-.112-.002-.203.096-.205.21s.077.208.189.21c.494.091.832-.157 1.274-.34.911-.375 1.691-.936 2.502-1.504.381-.267.768-.613 1.227-.647.16-.012.317.102.472.145l.551.162c.515.221.994.574 1.432.922.412.327.872.644 1.243 1.019l.298.307.079.081v.032l-.015.146-.064.469c-.042.443-.026.898-.046 1.342l-.095 3.185-.142 3.816c-.053.674-.073 1.377-.346 2.005-.503 1.16-1.626 1.156-2.517.485-.149-.112-.325-.151-.44-.307-.279-.375-.44-.837-.662-1.245l-.912-1.665a.46.46 0 0 0-.598-.275c-.24.092-.373.368-.283.614.119.571.313 1.164.55 1.698.272.611.75 1.081 1.228 1.52.177.163.271.378.456.534.945.794 2.188.911 3.162.113.262-.214.485-.469.661-.76.49-.806.52-1.728.583-2.652l.11-2.134.015-4.932-.11-1.73c-.022-.133-.012-.293-.063-.42-.085-.217-.49-.539-.645-.711a8.14 8.14 0 0 0-2.092-1.682c-.448-.255-.939-.551-1.432-.695-.134-.039-.27-.102-.41-.097z"/><path d="M118.455 2.761c-.402-.034-.772.038-1.165.113-1.275.243-2.157.645-3.115 1.568-.13.097-.173.271-.078.404a.29.29 0 0 0 .409.065c.778-.435 1.608-.929 2.47-1.164.623-.17 1.281-.065 1.904.065.458.095.808.306 1.195.566.762.511 1.414 1.223 1.731 2.118.225.636.127 1.431.063 2.086-.13 1.332-.431 2.644-.723 3.945l-.473 2.037-.676 2.538-.22.922-.063.275c-.002.007-.014.01-.016.016-.003.019-.012.013-.016.016l-.173.146c-.163.132-.318.274-.503.372-.482.256-1.024.451-1.558.242-.288-.112-.63-.242-.865-.453-.443-.396-.64-1.051-.866-1.585l-.441-1.051c-.099-.288-.125-.614-.282-.873-.102-.168-.263-.292-.394-.437-.041-.179-.203-.285-.377-.242s-.293.209-.252.388c-.053.195-.147.396-.158.598-.009.17.057.319.094.485l.252.905c.31 1.053.818 1.902 1.527 2.716.274.316.607.677 1.007.825 1.104.408 2.235-.041 3.13-.711.285-.213.652-.481.835-.808.178-.322.293-.86.393-1.213l.692-2.797c.447-1.931.847-3.89 1.023-5.869.076-.851.167-1.767-.063-2.603-.215-.779-.717-1.469-1.259-2.037-.359-.377-.718-.728-1.179-.97-.55-.288-1.192-.546-1.81-.598z"/><path d="M126.259 4.071c-.854-.013-1.64.282-2.439.566-.686.244-1.341.467-1.951.873-.14.057-.197.228-.141.372s.206.219.346.162c1.177-.218 2.268-.805 3.445-1.067.296-.066.686-.223.992-.178 1.312.196 1.57 2.211 1.447 3.25l-.126.889c-.307 2.25-1.057 4.44-2.014 6.484-.416.891-.847 1.803-1.416 2.603l-.991 1.261c-.258.292-.539.542-.834.792-.051.043-.098.1-.157.129-.077.038-.192.023-.267-.016-.092-.047-.03-.151-.111-.226-.204-.19-.391-.46-.503-.728-.083-.198-.044-.19-.079-.404-.024-.149-.073-.325-.11-.469-.044-.367-.366-.627-.724-.582s-.61.393-.566.76c-.001.358.078.667.11 1.019.087.968.37 2.108 1.51 2.264.534.073.897-.179 1.338-.42.94-.515 1.623-1.332 2.202-2.247 1.439-2.273 2.555-4.833 3.179-7.47.238-1.009.478-2.093.472-3.137-.004-.612-.07-1.239-.157-1.843-.067-.46-.125-.91-.3-1.342-.18-.446-.486-.9-.912-1.132-.408-.222-.804-.155-1.243-.162z"/><path d="M128.667 6.738c-.059.053-.067.15-.016.21.309.625.74 1.165 1.102 1.762.503.833.9 1.687 1.306 2.571l.409.857c.108.29.169.59.252.889.481 1.748.724 3.559.881 5.368.169 1.963-.025 3.99-.173 5.95-.078 1.03-.169 1.948-.017 2.975-.004.198.154.367.347.372s.341-.157.346-.356c.196-.978.205-1.946.236-2.943l.078-2.49-.031-2.652c-.025-1.238-.042-2.462-.252-3.687-.159-.93-.368-1.884-.66-2.781l-.347-.905-.299-.938c-.511-1.282-1.324-2.396-2.187-3.444-.113-.138-.201-.298-.33-.42s-.306-.217-.456-.323c-.052-.06-.13-.069-.189-.016zM83.884 112.343c-.179-.027-.352.108-.378.292l-.284 1.018c-.091.427-.141.879-.204 1.31l-.441 2.846-.408 2.707c-.018 2-.422 2.725-1 5-.507 1.999-1.128 3.376-1.5 4-.899 1.509-3.15 4.566-4.417 5.766-2.931 2.774-6.719 4.001-10.583 3.734-2.143-.149-3.938-.413-6-1-2.822-.804-8.038-3.057-8.038-3.057l-2.895-1.745-5.237-3.329c-.171-.094-.381-.03-.472.145s-.029.392.142.486c1.283 1.275 4.613 3.174 4.613 3.174l2.386 1.43 2.863 1.43s2.684.989 3.639 1.466c6.318 2.589 13.391 3.504 19.268-1.02.729-.562 1.441-1.174 2.046-1.876 1.4-1.628 2.758-4.151 3.686-6.104 1.031-2.172 1.528-3.629 1.687-4.401l.803-4.171c.134-.829.19-1.661.315-2.49l.457-2.846c.07-.429.166-.873.204-1.309.03-.35.012-.716.016-1.068.027-.183-.089-.36-.267-.388zm-4.721 20.131c-.072.034-.112.121-.078.193.325 1.142.93 2.124 1.494 3.154.865 1.579 1.901 3.09 3.21 4.317.363.341.769.633 1.148.954.987.834 2.074 1.417 3.288 1.811.401.13.477.195.897.258.77.116 1.613.031 2.376-.097 2.819-.472 5.146-2.145 7.143-4.171.155-.154.166-.407.016-.566s-.396-.154-.551 0c-1.072 1.045-2.19 2.038-3.477 2.797a9.54 9.54 0 0 1-2.785 1.115c-.877.193-1.719.143-2.596.017l-.834-.113c-.415-.087-.803-.266-1.196-.421-2.409-.945-4.22-3.063-5.664-5.19-.415-.611-.824-1.257-1.148-1.924l-1.054-2.07c-.033-.073-.117-.098-.189-.064z"/><path d="M88.84 114.203a.35.35 0 0 0-.393.307c.037.199.109.395.11.598s-.074.402-.11.598l-.221 1.246-.865 3.363-.74 3.638-.55 2.942c-.603 4.029-.549 9.319 3.54 11.383.415.21.836.39 1.29.485 1.222.255 2.417.398 3.666.356 1.444-.05 2.847-.218 4.185-.809.108-.02.178-.131.157-.242s-.128-.183-.236-.162c-1.383-.055-2.741.187-4.123.194-1.773.009-3.631-.282-5.129-1.326-1.804-1.256-2.518-3.543-2.643-5.691-.094-1.613.089-3.201.236-4.802.068-.741.129-1.466.267-2.199l.582-2.91c.085-.399.232-1.02.299-1.423l.519-3.363c.073-.406.07-.836.189-1.229.059-.195.178-.352.267-.534.027-.197-.107-.393-.299-.42z"/><path d="M86.273 130.209c-.038 0-.062.026-.063.065l-.173 2.506.063 1.585c-.06 1.667.007 3.308.504 4.915.226.731.513 1.457.897 2.118.099.17.193.347.315.501s.334.255.424.437c.099.197.085.429.126.647.112.161.33.212.488.097s.191-.34.079-.502c-.185-.11-.411-.172-.551-.339-.126-.151-.132-.381-.204-.566l-.818-2.054c-.531-1.688-.793-3.512-.944-5.271-.045-.527.059-1.041.063-1.568a23.56 23.56 0 0 0-.126-2.506c.001-.039-.04-.064-.079-.065zm-12.25 6.492c-.202.079-.313.309-.236.517.075.25.122.538.22.776.045.108.135.198.173.308.041.118.028.251.063.372.116.403.292.783.425 1.18l.629 1.73c.265.694.545 1.361.944 1.989.198.311.461.602.708.873.304.333.581.568 1.039.566.12.021.231-.055.252-.178s-.053-.238-.173-.259c-.981-.412-1.387-1.506-1.778-2.441l-.913-2.523-.33-1.196c-.04-.119-.123-.218-.158-.34-.032-.114-.02-.24-.047-.355-.061-.262-.207-.547-.315-.792-.077-.208-.301-.306-.503-.227z"/><path d="M79.952 134.03c-.061-.05-.157-.035-.206.028-.183.149-.381.273-.549.439-.478.473-.785 1.099-1.111 1.684l-1.248 2.207c-.345.577-.722 1.141-1.166 1.642-.079.089-.138.184-.233.255-.105.078-.241.125-.357.184-.116.126-.109.318.014.439s.309.126.425 0c.21-.489.515-.793.837-1.203l.809-1.09 1.386-2.123 1.124-1.613c.118-.207.19-.434.288-.651.049-.063.047-.148-.014-.198zm.522 6.828c-.186-.055-.387.052-.441.243-.157.498-.247 1.041-.456 1.52-.133.303-.32.578-.472.872l-1.369 2.426-.393.614c-.113.218-.15.475-.283.68s-.365.353-.519.549c-.591.749-1.056 1.691-1.463 2.555-.209.443-.337.922-.488 1.39-.076.234-.193.441-.252.68s-.053.499-.095.743l-.157.728c-.144 1.029-.038 2.06.157 3.072.051.247.294.408.535.356a.45.45 0 0 0 .346-.534c-.207-.934-.245-1.829-.157-2.781.021-.224.029-.46.078-.679s.157-.413.22-.631l.158-.663c.074-.215.191-.421.284-.63l1.18-2.555.331-.647c.095-.229.116-.478.236-.695s.331-.367.472-.566c.277-.391.494-.83.739-1.245.54-.913 1.017-1.82 1.432-2.797.225-.528.473-1.005.614-1.568a.35.35 0 0 0-.236-.437zm-21.603 18.075l-1.684.081c-.528.015-1.045-.023-1.573 0-.415.019-1.018.135-1.431.194-.722.104-1.444.138-2.171.178-.09.006-.163.086-.158.178s.084.168.173.162l2.172-.113 1.431.048 1.574-.113c1.384-.02 2.779.091 4.154.242l2.675.421c.337.083.647.201.976.307.571.184 1.107.333 1.605.695.134.097.241.227.362.34s.335.137.441.275c.079.103.024.433.016.533.076.183.278.256.456.178a.36.36 0 0 0 .189-.469c-.146-.132-.334-.227-.424-.404s-.079-.409-.205-.566-.302-.275-.456-.404c-.417-.348-.901-.635-1.385-.873-.55-.272-1.182-.395-1.778-.518a17.39 17.39 0 0 0-3.257-.339l-1.699-.033zm13.021-26.294l.573-.255.546-.21c.141-.062.334-.187.469-.265.236-.136.302-.549.549-.661.03-.014.045-.055.03-.09s-.053-.053-.083-.039l-.738.333-.503.172-.53.254c-.478.191-.977.335-1.475.46-.326.082-.65.16-.987.194-.128.013-.252.009-.382.012-.224.006-.431.02-.654-.053-.06-.02-.115-.055-.173-.083s-.135-.008-.191-.046c-.042-.03-.069-.164-.08-.203-.052-.061-.132-.062-.183-.008s-.052.145 0 .205c.069.032.328.347.384.403s.085.147.15.19.143.066.215.095c.193.078.401.124.602.151.229.031.465-.006.689-.038a5.82 5.82 0 0 0 1.177-.304l.594-.214zm-32.217-2.308c-.174.079-.265.29-.189.469l1.385 4.22c.683 2.1 1.243 4.231 1.731 6.387l.614 3.412c.049.563-.008 1.132.016 1.697.012.28.093.562.11.841.033.543-.015 1.09-.047 1.633-.107 1.795-1.289 3.399-2.565 4.527a12.75 12.75 0 0 1-1.794 1.31c-.935.574-2.037 1.233-3.147 1.358-.185.059-.293.263-.236.453s.256.301.441.242c2.671-1.261 5.555-2.578 7.096-5.319.739-1.315.884-2.701 1.039-4.188.03-.29.107-.581.11-.873s-.068-.581-.095-.873l-.141-1.762-.629-4.43c-.381-1.623-.879-3.219-1.432-4.786-.508-1.44-1.053-2.819-1.809-4.14-.076-.179-.282-.256-.456-.178zm44.78 44.496c-.128.076-.168.24-.094.372l.677 1.698c.266.533.609.998.912 1.503s.565 1.038.803 1.585c.057.164.234.253.393.194a.32.32 0 0 0 .189-.405c-.314-1.17-.735-2.399-1.4-3.411-.333-.507-.741-.965-1.117-1.439-.074-.132-.234-.173-.362-.097zm9.83-63.147c-.2-.052-.405.069-.456.275-.164.363-.353.745-.645 1.019-.948.885-2.503.874-3.682.744-1.725-.192-3.974-.69-5.365-1.876-.062-.066-.172-.064-.236 0a.18.18 0 0 0 0 .242c.499.645 1.247 1.056 1.967 1.391 1.825.849 3.801 1.148 5.79.97 1.28-.114 2.763-.834 2.895-2.296.051-.206-.067-.417-.267-.469zM70.874 88.356c-.028-.022-.073-.012-.095.016s-.012.059.016.081c.121.171.215.37.362.517.283.284.66.457.991.679.663.447 1.333.812 2.03 1.197l1.039.598c1.859.955 3.877 1.521 5.79 2.344 1.686.725 3.294 1.612 4.641 2.894.436.415.863.892 1.165 1.423.242.425.332.898.535 1.342.072.157.185.304.236.469.107.347.067.724.126 1.083.032.192.105.372.126.566.046.416-.002.842-.016 1.261l-.047 1.035c-.023.246-.101.498-.078.743.041.441.325.904.503 1.294.294-.331.704-.718.834-1.164.1-.345.042-.823.047-1.18.011-.735-.09-1.395-.173-2.119l-.047-.646c-.07-.403-.278-.757-.394-1.148-.108-.366-.153-.764-.33-1.1-.243-.459-.582-.918-.881-1.342-1.575-2.224-4.102-3.257-6.498-4.252l-5.822-2.328c-.89-.343-1.743-.842-2.549-1.358-.326-.209-.609-.487-.944-.679-.177-.102-.378-.15-.566-.226z"/><path d="M88.461 102.432c-.075.007-.133.085-.126.162-.04.459.008.885 0 1.342-.003.159-.043.31-.047.469-.024.96.107 1.985.267 2.926.317 1.861 1.038 3.614 2.754 4.511.407.213.828.346 1.274.437.24.052.468-.109.52-.356a.45.45 0 0 0-.346-.533c-.565-.133-1.104-.309-1.589-.647-.859-.597-1.417-1.664-1.684-2.668-.158-.596-.278-1.199-.362-1.811l-.189-1.908c-.026-.156-.085-.296-.11-.452-.073-.463-.094-.888-.221-1.342-.007-.078-.067-.137-.141-.13zm-9.142-29.428c-.137.14-.151.376-.016.517.183.084.383.13.551.243.547.368 1.058 1.214 1.432 1.762.986 1.445 1.798 2.934 2.502 4.543.871 1.995 1.618 4.048 2.171 6.16l1.935 9.152.755 3.686c.028.155.18.255.33.226s.248-.168.221-.323l-.567-3.719a67.05 67.05 0 0 0-2.093-9.2c-.639-2.111-1.304-4.225-2.266-6.209-.675-1.393-1.484-2.796-2.391-4.042-.34-.467-.719-.912-1.101-1.342-.201-.226-.569-.605-.724-.873-.103-.178-.171-.392-.252-.582-.135-.142-.35-.14-.488 0z"/><path d="M83.946 79.586c-.068-.029-.145-.005-.173.065s.011.149.079.178c.199.133.386.294.598.404s.427.171.645.259l1.967.776 4.5 1.778a.47.47 0 0 0 .614-.275.49.49 0 0 0-.268-.631l-3.288-1.213-1.353-.339-3.32-1.002z"/><path d="M81.005 67.378l1.888 3.525.708 1.374c.37.666.826 1.283 1.212 1.94l2.392 3.864c.783 1.022 1.594 2.035 2.502 2.943.381.381.829.688 1.211 1.067.199.198.353.433.535.647.15.126.382.106.504-.048a.38.38 0 0 0-.047-.517c-.239-.136-.503-.237-.723-.404-.417-.318-.741-.749-1.101-1.132-.687-.732-1.36-1.505-1.92-2.344l-.771-1.261-1.92-3.218-1.054-2.037c-.325-.545-.513-.766-.865-1.294l-1.385-1.924c-.355-.417-.765-.791-1.149-1.18zm-22.564-16.96a25.68 25.68 0 0 0-3.446.113c-.999.1-2.135.232-3.099.517-.348.103-.665.283-1.007.405-.349.123-.737.129-1.07.291-.175.085-.298.271-.472.356-.347.169-.757.152-1.117.291-.727.281-1.423.749-2.061 1.197-.338.237-.701.433-1.007.712-.161.146-.284.334-.425.501-.092.063-.124.181-.063.275s.191.127.283.065c.202-.067.405-.12.598-.211.361-.168.698-.401 1.054-.582l2.045-1.035c.323-.188.577-.508.928-.631.177-.062.387.005.566-.049.341-.102.636-.33.975-.437.333-.104.685-.138 1.023-.226l.975-.307c.642-.172 1.311-.306 1.967-.404 2.208-.331 4.446-.197 6.624.259l1.81.372c1.725.463 3.386 1.264 4.971 2.086 1.286.666 2.453 1.429 3.619 2.296.443.329.943.583 1.353.954.201.182.353.412.535.615l2.502 2.829c.282.358.508.743.771 1.115.367.52.702 1.022.976 1.601.289.611.665 1.327.692 2.021.007.164-.033.338-.047.501a.4.4 0 0 0 .472.323c.218-.04.37-.244.33-.469-.295-.666-.477-1.365-.755-2.038-.404-.979-.925-2.006-1.542-2.862-.893-1.239-1.87-2.447-3.068-3.395-.215-.171-.468-.274-.677-.453-.425-.366-.775-.828-1.211-1.181-1.128-.912-2.394-1.745-3.65-2.458-1.621-.919-3.344-1.536-5.113-2.069l-1.825-.517a22.5 22.5 0 0 0-3.414-.371zm-15.134 5.553c-.34-.074-.73-.007-1.069.033-.05-.009-.086.029-.095.081s.013.104.063.113l.865.517c.188.098.391.152.582.243a5.88 5.88 0 0 1 1.133.711c1.096.87 1.984 1.984 2.785 3.137s1.473 2.372 2.046 3.654l1.211 3.008c.155.467.239.955.393 1.423.21.635.554 1.219.881 1.794.03.156.179.257.331.227a.29.29 0 0 0 .22-.339c.091-.713.143-1.393-.032-2.102-.186-.757-.532-1.526-.818-2.247-.428-1.078-.915-2.111-1.479-3.121l-1.369-2.264c-1.069-1.579-2.392-3.063-4.012-4.058-.485-.299-1.075-.687-1.636-.809zm12.366 27.785c-.107-.058-.243-.013-.299.097-2.533 4.877-5.177 9.729-8.638 13.986-1.468 1.806-3.032 3.528-4.893 4.915-.646.482-1.35.892-2.045 1.294-.209.11-.296.367-.189.582s.357.304.566.194c3.368-1.618 6.143-4.773 8.261-7.842.667-.966 1.351-1.925 1.967-2.926 1.973-3.214 3.663-6.622 5.365-9.993.056-.11.013-.249-.094-.307z"/><path d="M41.662 94.54c-.116.011-.199.123-.189.243.044 2.484.139 2.251-.328 4.69l-.362 1.585c-.365 1.118-.802 2.026-1.332 3.056-.043.047-.046.134 0 .178s.13.031.173-.016c.139-.093.28-.167.409-.275.868-.729 1.125-2.212 1.49-3.266.381-1.102.245-2.179.375-3.336 0-.746.286-.868 0-2.664-.011-.119-.12-.205-.236-.194z"/><path d="M42.009 93.376c-.044-.039-.103-.029-.142.016l-1.935 1.73c-.91.76-1.89 1.457-2.879 2.102-1.261.822-1.515.65-3.025 1.13-.449.261-1.55.52-2.008.758l-.692.356c-.687.199-1.271.528-1.93.798-.282.116-.578.188-.865.291-.314.112-.605.291-.912.42l-2.486.938c-.901.35-1.744.835-2.628 1.229-.168.073-.244.28-.173.453s.272.251.441.178l2.691-1.035 2.423-1.051.944-.324.834-.388 1.977-.716 2.63-1.148c1.604-.432 1.719-.401 3.11-1.386l2.848-2.231c.687-.605 1.325-1.157 1.794-1.956.038-.045.028-.123-.016-.162z"/><path d="M25.542 94.896c-.215.016-.377.216-.362.437-.003.534-.093 1.055-.142 1.585-.038.412-.052.829-.157 1.229-.076.288-.198.561-.299.841l-.787 2.134c-.215.524-.476 1.028-.724 1.536s-.491.99-.834 1.439c-.05.054-.052.142 0 .194s.139.038.189-.016c1.009-.893 1.641-2.05 2.187-3.282.254-.575.49-1.157.661-1.763.084-.298.123-.607.204-.905.114-.421.301-.823.409-1.245.151-.593.16-1.209.079-1.811-.015-.22-.21-.388-.425-.372zm1.007 12.288c-.333-.004-.652.007-.976.098-1.687.472-1.327 2.676-.944 3.961l.267.825.33.873c.046.16.06.327.11.485.104.325.269.627.409.938.471 1.041 1.076 2.014 1.605 3.023l.551 1.067.173.324c.005.008-.005.024 0 .032.005.041.027.101.032.129.015.1.01.124.031.227l.205.841c.208.83.53 1.672 1.039 2.36.575.778 1.372 1.157 2.297 1.294l.976.097.22.032.079.016 1.074 1.234s.433.974.954 1.429c.183.16.397.288.598.421.124.127.317.127.441 0s.124-.342 0-.469c-.715-1.116-1.038-1.858-1.038-1.858l-.954-.953-.272-.434c-.346-.519-1.097-.444-1.621-.486-.8-.064-1.497-.261-2.014-.921-.512-.653-.816-1.528-.976-2.344-.062-.317-.043-.726-.189-1.019l-.818-1.472-1.353-2.651-.645-1.229c-.081-.138-.188-.249-.268-.388-.278-.484-.444-1.081-.598-1.617-.297-1.037-.628-2.58.503-3.218.253-.142.522-.192.802-.242.109-.009.181-.098.173-.21s-.096-.203-.205-.195z"/><path d="M31.677 106.604c-.107-.027-.21.036-.236.145l-.283.663c-.405 1.265-.331 2.895-.205 4.204.275 2.852 1.275 5.563 2.281 8.214 1.687 4.442 4.068 9.284 2.927 14.18-.37 1.586-1.23 2.925-2.014 4.317-.133.174-.091.429.079.566s.401.109.535-.065c.752-.742 1.302-1.559 1.731-2.539.466-1.065.786-2.2.913-3.363.429-3.958-1.181-7.822-2.612-11.399l-1.07-2.667c-.43-1.092-.891-2.201-1.212-3.331-.49-1.727-.894-3.513-.913-5.32-.011-1.128.179-2.24.236-3.363.026-.11-.051-.216-.157-.242z"/><path d="M43.368 126.314c-.015-.004-.028.001-.031.016-.331.808-.529 1.653-.865 2.457a21.83 21.83 0 0 1-2.753 4.803c-.731.959-1.568 1.874-2.439 2.7l-1.4 1.212c-.376.378-.501.608-.802 1.052-.087.067-.097.202-.031.291s.181.099.267.032c.417-.149.846-.295 1.212-.55.353-.246.664-.557.976-.857l1.337-1.374c1.829-2.016 3.232-4.538 3.997-7.179.251-.867.491-1.664.551-2.571.004-.015-.001-.029-.016-.032zM31.93 58.582l-1.259.695c-.851.606-1.609 1.428-2.297 2.215-1.412 1.617-2.59 3.431-3.682 5.287l-2.628 5.012c-2.634 5.588-4.602 11.514-5.711 17.624a47.31 47.31 0 0 0-.677 5.465 27.61 27.61 0 0 0-.063 2.426c.006.25-.006.512.031.76.072.469.253.905.393 1.358.004.035.045.069.079.065s.051-.046.047-.081c.034-.464.12-.926.142-1.39.035-.754-.03-1.507 0-2.264a33.1 33.1 0 0 1 .33-3.412c.754-5.25 2.257-10.349 4.138-15.279 1.841-4.826 4.075-9.55 7.269-13.598 1.264-1.602 2.714-2.991 4.232-4.333.147-.101.192-.318.094-.469s-.293-.181-.441-.081zm8.937-13.599a19.71 19.71 0 0 0-2.895.097c-.985.104-1.933.363-2.895.582l-1.086.194c-.898.226-1.782.613-2.643.954-.983.39-1.983.828-2.895 1.374l-.881.55c-1.56.935-3.044 2.006-4.374 3.266-.906.858-1.744 1.79-2.565 2.733-1.603 1.84-2.979 3.915-3.996 6.16-.936 2.067-1.583 4.31-1.809 6.58-.232 2.333-.072 4.664.189 6.985l.582 4.268.157.841c.14.551.354 1.078.535 1.616a.22.22 0 0 0 .252.178c.115-.022.179-.141.157-.259l-.063-1.698c-.058-.563-.196-1.122-.283-1.682l-.519-3.363c-.409-3.659-.272-7.47.771-11.011.48-1.632 1.271-3.179 2.108-4.64.713-1.244 1.495-2.445 2.376-3.573 1.34-1.717 3.008-3.189 4.736-4.479.79-.59 1.613-1.175 2.486-1.633 1.227-.643 2.489-1.263 3.792-1.73.691-.248 1.411-.409 2.108-.63.258-.082.758-.301 1.023-.372 1.178-.318 2.454-.51 3.666-.631.643-.064 1.276-.052 1.92 0 .238.019.476.01.708.065.114.027.216.107.33.129.446.089.911.087 1.353.194.649.157 1.282.43 1.888.711 2.456 1.143 4.531 2.94 6.923 4.188.089.062.208.043.267-.049s.042-.213-.047-.275c-1.117-.986-2.348-1.818-3.587-2.636-1.444-.953-2.97-1.819-4.61-2.36-.659-.218-1.357-.505-2.045-.598-.126-.018-.266.019-.393.016-.251-.005-.488-.054-.739-.065zM16.022 82.09c-.134-.04-.275.041-.315.178-.311.793-.633 1.584-.802 2.426-.055.274-.057.566-.11.841-.103.538-.296 1.048-.409 1.584-.27 1.288-.405 2.62-.535 3.929l-.189 2.28-.079.744c-.007.247.028.497.031.743l.189 5.643.409 3.266.236 1.245c.03.21.015.438.047.647.063.406.18.799.283 1.197l.661 2.263c.068.179.178.352.236.534s.065.38.11.566a9.35 9.35 0 0 0 .535 1.552c.941 2.119 1.886 4.03 2.266 6.354.361 2.208.291 4.423.157 6.646l-.629 7.146c-.034.341.204.645.535.679s.627-.225.661-.566c.464-4.922 1.06-9.905 0-14.794a16.68 16.68 0 0 0-.85-2.813c-.22-.535-.487-1.033-.708-1.568-.334-.808-.549-1.644-.865-2.458-.133-.342-.326-.654-.441-1.003-.118-.358-.165-.752-.268-1.115a52.67 52.67 0 0 1-.582-2.264c-.093-.396-.226-.788-.33-1.18-.322-1.213-.495-2.521-.645-3.768a44.96 44.96 0 0 1-.315-4.769c-.007-.477-.03-.947 0-1.423.015-.243.067-.485.079-.728s-.011-.483 0-.728c.054-1.256.172-2.524.362-3.767.119-.78.278-1.552.409-2.328.099-.591.102-1.018.252-1.601.068-.266.192-.527.267-.792.229-.81.365-1.647.519-2.474.039-.138-.04-.283-.173-.324zm2.11 52.841c-.073-.026-.163.021-.189.097l-.346.809-.425.759c-.331.748-.497 1.62-.708 2.409-.423 1.583-.655 3.257-.535 4.899.131 1.792.461 3.594.802 5.352.493 2.537.906 5.104.157 7.632-.561 1.893-1.817 3.431-3.178 4.786l-.771.711c-.266.267-.486.58-.771.825-.302.259-.642.457-.96.696a12.41 12.41 0 0 0-.991.84.5.5 0 0 0-.142.679.47.47 0 0 0 .661.146c.401-.176.797-.357 1.164-.599.347-.228.666-.522 1.007-.76l1.007-.63c.304-.227.575-.514.85-.776l1.117-1.165c1.845-2.336 2.742-5.316 2.596-8.31-.071-1.459-.299-2.891-.598-4.317-.3-1.433-.781-2.88-.897-4.349-.145-1.836-.018-3.66.315-5.465.148-.804.463-1.562.614-2.361.054-.286.043-.571.094-.857s.135-.571.205-.857c.026-.075-.005-.168-.079-.194z"/><path d="M30.292 151.698c-.083-.036-.185.011-.22.097-.65.834-1.074 1.816-1.715 2.651-.203.265-.442.509-.661.76l-2.659 2.879-1.274 1.277-1.432 1.164c-.152.139-.271.3-.425.436-.609.542-1.301.929-1.982 1.359l-2.439 1.487c-1.325.655-2.988 1.278-4.468 1.358-.448.025-1.081.035-1.495-.178-.115-.059-.197-.161-.299-.242-.17-.072-.37.003-.441.178s.003.38.173.452c.418.061.799.208 1.212.292a6.29 6.29 0 0 0 2.219.048c1.581-.25 3.029-1.045 4.406-1.843l1.526-.906 1.951-1.519 1.007-.744 1.353-1.278 1.746-1.665 1.841-2.118.881-1.229c.593-.763 1.14-1.499 1.274-2.49.035-.085.004-.19-.079-.226z"/><path d="M29.932 151.73c-.141.06-.2.227-.142.372.173.402.128.377.204.598l-.157-.291c-.053-.1.061.231.095.34l.236.711.456 1.584c.09.253.388 1.002.315.744-.351-1.24.002-.014.598.388.081.109.24.132.346.049s.128-.231.047-.339l-.818-2.006c-.061-.156.148.305.22.453l-.598-1.471-.11-.372-.142-.34c.476 1.245.002.003-.189-.274a.27.27 0 0 0-.362-.146zm1.4 2.603c.05.111.07.228.126.34l.299.598-.425-.938z"/><path d="M32.984 150.939c-.077-.036-.169-.014-.205.064-.658 1.061-1.081 2.318-1.274 3.557-.097.622-.157 1.199 0 1.811.015.102.106.161.204.146s.172-.109.157-.21c-.009-.403-.034-.795.016-1.197.169-1.374.801-2.66 1.18-3.977.035-.079-.002-.159-.079-.194z"/><path d="M32.166 148.35c-.183-.009-.337.135-.346.323l.142.906c.028.225.001.429.079.647.173.486.529.89.865 1.261.644.709 1.431 1.151 2.281 1.552.411.194.88.442 1.322.55.152.037.303.017.456.048.289.059.556.193.834.291.358.127.8.193 1.18.146.128-.016.249-.103.378-.097.105.004.187.086.283.129.112.027.226-.046.252-.161s-.046-.233-.157-.259c-.105-.005-.219.027-.315-.017-.117-.053-.176-.185-.283-.258-.312-.212-.721-.366-1.086-.437-.279-.054-.572-.065-.834-.177-.137-.06-.256-.167-.393-.227-.403-.176-.85-.269-1.259-.436l-.787-.372c-.843-.459-1.598-.975-2.061-1.844-.258-.482-.378-.638-.22-1.213.009-.188-.147-.346-.33-.355z"/><path d="M35.927 148.188c-.092-.007-.181.068-.189.162-.57 1.502.857 3.24 1.762 4.268l.409.453a2.89 2.89 0 0 0 .472.34c.162.096.352.129.504.242.136.102.236.258.346.388a.3.3 0 0 0 .441-.048.32.32 0 0 0-.047-.453c-.145-.084-.304-.141-.425-.259-.133-.129-.204-.32-.315-.469a3.78 3.78 0 0 0-.362-.42c-.135-.134-.285-.243-.425-.372-.596-.547-1.184-1.228-1.542-1.972-.259-.539-.353-1.089-.488-1.665.008-.095-.05-.187-.142-.195z"/><path d="M40.976 138.115c-.06-.004-.122.052-.126.113-.071.156-.157.288-.204.453-.043.149-.037.316-.063.469-.075.442-.184.925-.346 1.342-.166.427-.412.835-.614 1.245l-.629 1.245c-.225.416-.53.779-.802 1.164l-.519.792-.582.76c-.539.782-.993 1.623-1.416 2.474-.12.171-.088.41.079.534s.399.09.519-.081l1.872-2.15c.189-.266.343-.566.519-.841l.535-.825c.161-.288.278-.593.425-.889.296-.596.658-1.152.897-1.779.181-.473.254-.946.362-1.439l.283-1.455c.021-.166.062-.335.047-.501-.016-.177-.092-.348-.142-.518.004-.061-.035-.108-.094-.113zM27.807 55.816c-.924.026-1.806.109-2.706.34-3.052.78-5.474 2.458-7.6 4.818-.708.786-1.374 1.677-1.794 2.668-.212.501-.307 1.062-.393 1.601l1.101-1.148 2.392-2.959c1.471-1.575 3.495-3.028 5.475-3.832 1.081-.439 2.376-.78 3.54-.841.491-.025.993.105 1.479.065.267-.022.523-.117.787-.161.045.007.088-.018.095-.065s-.018-.09-.063-.097c-.248-.126-.489-.297-.755-.372-.486-.136-1.062-.03-1.558-.016zm43.874 32.97a.59.59 0 0 0-.394.226c-.209.102-.438.172-.629.307-.669.474-.214.239-.635.93-.451.741-.264.4-.614 1.201-.089.204-.135.416-.236.615-.096.19-.236.351-.346.534l-.315.582a.43.43 0 0 0 .094.598c.189.142.46.097.598-.097.291-.316.527-.671.818-.987l.928-.937c.414-.499.07.019.472-.49.477-.604.311-.078.604-.801.089-.22.118-.464.173-.695.205-.258.172-.646-.079-.857-.125-.105-.291-.145-.441-.129zm-19.769 4.688c-.388-.037-.712.083-1.085.146-.118.02-.263-.036-.362.032-.134.093-.223.251-.283.405-.084.212-.093.44-.142.663-.027.008-.039.037-.031.065s.036.056.063.049l.424.501c.096.103.17.239.299.291.078.031.168-.06.252-.065.18-.01.355.042.535.049.733.025 1.467-.126 2.203-.081.452.028.886.152 1.337.194.342.032.695-.025 1.038-.016.319.008.641.131.96.129.221-.001.404-.07.614-.129.097.015.189-.062.204-.162s-.045-.178-.142-.194c-.151-.102-.364-.272-.535-.34-.29-.115-.623-.122-.912-.243-.319-.133-.617-.327-.944-.436-.449-.15-.913-.214-1.368-.34l-1.416-.404-.708-.113zm25.24-2.166c-.051.008-.086.062-.078.114-.137.16-.331.291-.414.487-.054.126.021.27.035.408l.115.858c.127.851.304 1.671.654 2.458.172.387.322.704.659.964.076.122.239.164.357.088s.146-.242.07-.364c-.063-.348-.218-.65-.309-.988-.197-.735-.224-1.531-.282-2.286l-.08-.865c-.02-.147.014-.323-.078-.438-.135-.171-.358-.24-.539-.357a.1.1 0 0 0-.112-.081z"/><path d="M77.131 90.259c-.196-.039-.388.093-.427.291-.227.329-.392.681-.615 1.011l-.452.645c-.076.113-.129.234-.213.341-.359.452-.858.835-1.318 1.175l-1.092.834-1.281 1.238c-.429.415-.735.863-.878 1.453-.116.477-.146.936.113 1.365.024.146.157.239.301.215a.26.26 0 0 0 .213-.303c.08-.305.054-.604.113-.91.089-.464.468-1.141.803-1.465.457-.443 1.022-.745 1.544-1.1.78-.53 1.492-1.136 2.222-1.731l.389-.316c.602-.584 1.012-1.473.866-2.312a.37.37 0 0 0-.289-.43zm-28.715 8.504c-.275.098-.508.308-.645.598-.274.581.052.928.617 1.21.342.177.682.343 1.054.436.931.233 1.877.065 2.8-.08l2.061-.259c.924-.142 1.81-.398 2.722-.081.536.187 1.038.571 1.322 1.083.083.15.126.317.204.469.128.248.212.295.409.501.057.18.235.285.409.227s.277-.257.22-.437c.075-.688-.143-1.005-.488-1.568-.486-.795-1.304-1.028-2.19-1.274-.254-.071-.515-.089-.771-.146-.851-.19-1.742-.189-2.612-.113-.672.059-1.309.146-1.983.081-.8-.078-1.517-.235-2.25-.582-.282-.141-.606-.162-.881-.065zm-.55 2.925l-.477.476.476.953.001.687-.001.266.478.477.477.476.477.477.271.212.157.017.141.016s.349.071.457-.081-.079-.469-.079-.469l-.047-.129-.047-.13-.047-.145c-.036-.113-.049-.231-.094-.34-.102-.244-.52-.647-.52-.647l-.519-.792c-.078-.117-.183-.226-.267-.339-.022-.03-.063-.098-.063-.098l-.296-.411-.477-.476zm21.542 5.011c-.171.087-.242.293-.158.469.391.849.807 1.62 1.432 2.312.868.961 2.221 1.786 2.124 3.266-.024.373-.141.772-.236 1.132-.111.419-.3.801-.503 1.18-.435.813-.955 1.56-1.29 2.426-.019.028-.012.061.016.08s.06.012.079-.016c.601-.555 1.027-1.193 1.432-1.908.238-.42.438-.857.645-1.293.126-.265.272-.51.362-.792.62-1.946-.513-2.994-1.731-4.318-.671-.729-1.262-1.487-1.715-2.376-.085-.176-.285-.249-.456-.162z"/><path d="M72.475 96.547c0-1.437.934-2.602 2.087-2.602s2.087 1.165 2.087 2.602-.934 2.602-2.087 2.602-2.087-1.165-2.087-2.602zm-20.348 5.799c0-1.437.934-2.602 2.087-2.602s2.087 1.165 2.087 2.602-.934 2.601-2.087 2.601-2.087-1.165-2.087-2.601zm25.494 14.176a.34.34 0 0 0-.394.275c.007.155.03.314.016.468-.053.597-.397 1.1-.677 1.601-.429.769-.852 1.501-1.448 2.151-2.275 2.481-5.502 3.735-8.669 4.463-.91.209-1.824.387-2.754.468l-2.171.13c-.667-.004-1.318-.086-1.983 0-.183-.031-.348.102-.378.29a.33.33 0 0 0 .267.389c.795.378 1.653.391 2.517.42 1.271.043 2.539-.096 3.792-.323 1.004-.183 1.94-.491 2.895-.841l1.432-.517c.47-.199.907-.463 1.353-.712 2.114-1.182 4.035-2.676 5.35-4.786.171-.274.321-.521.441-.824.29-.735.356-1.52.677-2.248a.35.35 0 0 0-.267-.404z"/><path d="M77.009 119.029c-.183-.016-.347.119-.362.306.054.166.138.33.157.502.047.401-.136.946-.283 1.309-.301.747-.686 1.493-1.164 2.135-.41.55-.898.933-1.432 1.342-2.11 1.616-4.874 2.357-7.474 2.522l-1.699.049c-1.294.06-2.544.274-3.839.161-.092-.013-.175.051-.189.146s.049.18.142.194c1.014.216 2.02.536 3.053.631 1.18.107 2.362-.068 3.524-.259 2.437-.401 4.99-1.219 6.923-2.862.525-.446.995-1.041 1.4-1.601.419-.579.791-1.222.976-1.924.114-.436.17-.898.252-1.342.028-.156.028-.319.079-.469.056-.166.156-.313.236-.468.016-.189-.116-.357-.299-.372z"/><path d="M77.717 117.88c-.096-.019-.186.047-.204.146l-.315 1.552c-.081.251-.207.481-.299.728l-.96 2.829-1.007 2.975c-.088.317.1.637.409.727s.62-.086.708-.404c.512-1.697.934-3.464 1.275-5.206.101-.517.13-1.046.204-1.568.075-.528.22-1.048.33-1.569a.18.18 0 0 0-.141-.21zm-17.686 9.039c-.142.12-.164.34-.047.485.794.788 1.516 1.679 2.455 2.296 1.909 1.257 4.365 1.742 6.608 1.504.971-.104 1.889-.384 2.816-.679.36-.115.982-.291 1.322-.469.393-.207.743-.495 1.101-.76.532-.393.896-.854 1.18-1.455.065-.07.068-.176 0-.243s-.187-.07-.252 0l-1.982 1.164-.551.259c-.591.297-1.108.631-1.747.825-.873.265-1.787.37-2.691.452-2.04.186-3.998-.36-5.743-1.438-.799-.495-1.501-1.08-2.014-1.893-.117-.145-.315-.168-.456-.048zM14.644 382.58c-.074.011-.121.085-.11.162-.064.968.256 1.953.645 2.829 1.365 3.072 4.355 4.677 7.364 5.578 2.59.776 5.307.983 7.993 1.067 3.425.108 6.851-.021 10.274-.113 2.93-.078 5.752-.282 8.607.55.277.076.555-.087.629-.372s-.085-.587-.362-.663c-1.549-.4-3.132-.467-4.72-.55a57.42 57.42 0 0 0-5.082-.016c-4.327.163-8.654.459-12.98.114-3.545-.283-7.754-.991-10.196-3.962-.689-.838-1.177-1.862-1.479-2.91-.154-.537-.232-1.078-.425-1.601-.011-.076-.083-.125-.157-.113z"/><path d="M50.03 391.684c-.258-.06-.509.107-.567.372s.105.538.362.598l2.109.663c1.623.605 3.16 1.456 4.594 2.441 6.549 4.502 11.747 11.942 20.061 13.048.984.132 1.988.064 2.974-.016a15.36 15.36 0 0 0 3.666-.743c.044-.012.075-.069.063-.114s-.05-.076-.095-.064c-1.355.271-2.704.553-4.09.566-4.651.043-8.829-2.067-12.367-5.045-3.473-2.923-6.602-6.287-10.322-8.893-1.91-1.338-4.079-2.485-6.388-2.813zm69.889 2.246l-2.533.113c-5.259.415-10.349 2.11-15.2 4.155-1.295.547-2.591 1.095-3.854 1.715l-9.063 4.575-2.549 1.359c-.492.264-.979.593-1.494.808-.331.137-.741.228-1.085.307-.165.083-.239.284-.158.453s.292.245.456.162c.28-.24.565-.52.881-.712.48-.29 1.04-.496 1.542-.744l2.58-1.277 6.356-3.217a112.45 112.45 0 0 1 4.94-2.216c8.895-3.771 19.236-6.742 28.525-2.57 2.399 1.076 4.597 2.503 6.609 4.22.256.215.64.182.849-.081s.163-.658-.094-.873c-1.96-1.619-4.063-3.065-6.388-4.075-2.465-1.071-5.109-1.737-7.773-2.005-.841-.085-1.699-.107-2.548-.097zm37.493-8.973l-1.778 1.019c-.876.426-1.846.7-2.801.856-3.49.57-7.055-.088-10.558.275-1.584.164-3.147.623-4.562 1.374-1.629.867-2.644 2.269-3.761 3.703-.104.156-.057.362.095.469s.352.075.456-.081c1.167-2.041 3.225-3.38 5.444-3.913.807-.194 1.614-.262 2.439-.323 3.545-.261 7.139.367 10.651-.339 1.797-.362 3.552-1.026 4.878-2.361.182-.144.219-.412.079-.598s-.4-.225-.582-.081zm10.495-13.437c-.142-.007-.26.113-.268.259-.02.401-.037.802-.125 1.196-.184.821-.556 1.625-.913 2.377-.903 1.904-2.183 3.556-3.917 4.721-.269.19-.343.564-.158.841s.549.352.818.162c1.456-1.078 2.63-2.477 3.493-4.091.289-.541.559-1.107.74-1.698.346-1.13.527-2.31.582-3.492.007-.146-.11-.268-.252-.275zm-7.143 10.186l-1.227.371c-.264.077.53-.165.802-.194.142-.015-.258.097-.393.145l-.787.259-.393.097c.661-.241-.012-.004-.441.065-.314.075-.497.406-.424.728s.378.511.691.436l1.259-.598c.282-.13-.563.269-.802.469-.124.103.293-.115.441-.178a7.06 7.06 0 0 0 .833-.42l.394-.243c-.716.303.003.007.393-.243.188-.099.254-.34.157-.533a.36.36 0 0 0-.503-.161zM19.377 105.359s-1.165-5.117.265-5.55 3.201 1.349 3.956 3.981.209 5.117-1.22 5.551-3.001-3.982-3.001-3.982z"/><path d="M20.02 99.674s1.052-.18 1.944.276 1.262.899 1.975 2.396.452 1.418.523 3.186-.591 3.034-.591 3.034l-1.412.765"/><path d="M29.329 107.389s-.212-.97-.438-1.36c-.203-.352-2.318.011-2.731 0-.872-.024-2.133 2.097-2.133 2.097s-.588 2.884.438 4.93c.712 1.42.2 1.018 1.687 3.443s3.177 4.212 3.177 4.212l-1.208-3.027s-2.267-3.318-2.985-5.857.457-4.299.457-4.299l3.737-.139z"/><path d="M21.862 107.847c-.52.03-.926.484-.897 1.018-.02.192-.076.391-.063.583.061.932.723 2.087 1.227 2.846.226.34.529.625.771.953.512.696.925 1.346 1.526 1.973.487.507 1.052 1.001 1.746 1.164.308.073.643-.018.724-.372.069-.303-.044-.687-.094-.986-.064-.177-.253-.26-.425-.194s-.253.26-.189.437c.064.104.098.213.142.323l-.331-.291-.928-1.019-.299-.388-.315-.404-.315-.42-.299-.453c-.16-.301-.264-.716-.378-1.035-.117-.33-.247-.658-.315-1.002l-.299-1.811c-.029-.535-.471-.952-.991-.922z"/></g><defs><radialGradient id="A" cx="0" cy="0" r="1" gradientTransform="translate(133.413 446.562) scale(11.1619 11.4703)" xlink:href="#F"><stop stop-color="#dea88e"/><stop offset="1" stop-color="#f5e8d6"/></radialGradient><radialGradient id="B" cx="0" cy="0" r="1" gradientTransform="translate(84.4426 198.359) scale(16.3529 16.8048)" xlink:href="#F"><stop stop-color="#dea88e"/><stop offset="1" stop-color="#f5e8d6"/></radialGradient><radialGradient id="C" cx="0" cy="0" r="1" gradientTransform="translate(113.873 17.5501) scale(18.4614 18.9716)" xlink:href="#F"><stop stop-color="#dea88e"/><stop offset="1" stop-color="#f5e8d6"/></radialGradient><radialGradient id="D" cx="0" cy="0" r="1" gradientTransform="translate(51.8704 116.184) scale(9.41353 9.67367)" xlink:href="#F"><stop stop-color="#dea88e"/><stop offset="1" stop-color="#f5e8d6"/></radialGradient><radialGradient id="E" cx="0" cy="0" r="1" gradientTransform="translate(79.0097 104.909) scale(3.59048 3.6897)" xlink:href="#F"><stop stop-color="#dea88e"/><stop offset="1" stop-color="#f5e8d6"/></radialGradient><linearGradient id="F" gradientUnits="userSpaceOnUse"/></defs></svg>