<?xml version="1.0" encoding="UTF-8"?>
<svg id="Ebene_1" data-name="Ebene 1" xmlns="http://www.w3.org/2000/svg" xmlns:xlink="http://www.w3.org/1999/xlink" viewBox="0 0 183 583.23">
  <defs>
    <style>
      .cls-1 {
        fill: none;
      }

      .cls-2 {
        clip-path: url(#clippath);
      }

      .cls-3 {
        fill: #f5e8d6;
      }

      .cls-4 {
        fill: #e3caba;
      }

      .cls-5 {
        fill: #fff;
      }

      .cls-6 {
        fill: #fff7f7;
      }

      .cls-7 {
        fill: #a05b52;
      }

      .cls-8 {
        fill: #b69c65;
      }

      .cls-9 {
        fill: #c46b57;
      }

      .cls-10 {
        fill: #e0bd6f;
      }

      .cls-11 {
        fill: #070d1c;
      }

      .cls-12 {
        fill: rgba(191, 196, 198, .67);
      }

      .cls-13 {
        opacity: .5;
      }

      .cls-14 {
        fill: url(#Unbenannter_Verlauf_2);
      }

      .cls-15 {
        fill: url(#Unbenannter_Verlauf_3);
      }

      .cls-16 {
        fill: url(#Unbenannter_Verlauf_4);
      }

      .cls-17 {
        fill: url(#Unbenannter_Verlauf_5);
      }

      .cls-18 {
        fill: url(#Unbenannter_Verlauf);
      }
    </style>
    <clipPath id="clippath">
      <rect class="cls-1" y=".23" width="183" height="583"/>
    </clipPath>
    <radialGradient id="Unbenannter_Verlauf" data-name="Unbenannter Verlauf" cx="-182.09" cy="697.88" fx="-182.09" fy="697.88" r="1" gradientTransform="translate(1665.03 5978.14) scale(8.62 -8.46)" gradientUnits="userSpaceOnUse">
      <stop offset="0" stop-color="#dea88e"/>
      <stop offset="1" stop-color="#f5e8d6"/>
    </radialGradient>
    <radialGradient id="Unbenannter_Verlauf_2" data-name="Unbenannter Verlauf 2" cx="-177.15" cy="696.43" fx="-177.15" fy="696.43" r="1" gradientTransform="translate(1331.43 5455.92) scale(7.14 -7.73)" gradientUnits="userSpaceOnUse">
      <stop offset="0" stop-color="#dea88e"/>
      <stop offset="1" stop-color="#f5e8d6"/>
    </radialGradient>
    <radialGradient id="Unbenannter_Verlauf_3" data-name="Unbenannter Verlauf 3" cx="-184.05" cy="699.3" fx="-184.05" fy="699.3" r="1" gradientTransform="translate(1899.5 6839.62) scale(9.39 -9.34)" gradientUnits="userSpaceOnUse">
      <stop offset="0" stop-color="#dea88e"/>
      <stop offset="1" stop-color="#f5e8d6"/>
    </radialGradient>
    <radialGradient id="Unbenannter_Verlauf_4" data-name="Unbenannter Verlauf 4" cx="-180.28" cy="696.93" fx="-180.28" fy="696.93" r="1" gradientTransform="translate(1581.68 5956.89) scale(8.01 -7.97)" gradientUnits="userSpaceOnUse">
      <stop offset="0" stop-color="#dea88e"/>
      <stop offset="1" stop-color="#e3caba"/>
    </radialGradient>
    <radialGradient id="Unbenannter_Verlauf_5" data-name="Unbenannter Verlauf 5" cx="-180.08" cy="699.14" fx="-180.08" fy="699.14" r=".99" gradientTransform="translate(1483.78 6855.14) scale(7.95 -9.23)" gradientUnits="userSpaceOnUse">
      <stop offset="0" stop-color="#dea88e"/>
      <stop offset="1" stop-color="#e3caba"/>
    </radialGradient>
  </defs>
  <g class="cls-2">
    <g>
      <path class="cls-3" d="m127.94,527.17l5.71,7.77,15.4-4.85s4.86-6.58,4.03-12.1c-1.07-7.13-2.03-3.25-2.32-7.98-.7-47.72,3.18-50.98,6.7-96.01.5-14.2-2.25-15.99-2.25-15.99-1.04-4.44-3.57-20.39-3.27-23.11l-48.08-.98s1.88,9.52,6.31,18.64c2.04,4.2,1.45,7.92,2.27,11.83,1,4.78,3.17,9.36,3.17,9.36,0,0-1.8,12.81.81,29.43s8.19,23.54,9.66,37.04c1.76,16.2,2.39,32.7.84,42.84-1.77,11.61,1.03,4.1,1.03,4.1Zm-44.27-159.72l-1.65,11.42c1.11,1.26.49,13.94-.22,14.48,5.6,9.55-.84,43.07-2.44,53.59-1.32,16.6,2.68,54.2,2.68,54.2,0,0-4.14,12.1-4.14,12.1l-23.21-.96,2.53-11.83s-.5,1.4-.47-5.11c.01-2.41.53-3.92.78-7.32.42-5.78-.67-10.96-1.33-16.27-2.96-15.66-23.17-65.68-15.71-84.93l22.42-21.9,20.77,2.54h0Zm-40.94-177.05s-1.84,7.72-2.47,14.55,1.71,2-.03,12.76c-4.26,28.24-20.54,68.27-28.54,92.82-3.9-.39-.06-16.69.05-16.26,0,0,.88-9.02-.73-12.99-.94-2.31,2.13-6.39,2.13-6.39-.93-17.35-1.85-41.99-2.38-61.3-.23-3.68,3.21-10.98,3.21-10.98l.38-14.24s28.39,2.03,28.39,2.03Z"/>
      <path class="cls-4" d="m13.81,190.56s20.74,3.9,23.38,6.82c1.89,2.09.48,8.26,1,11.35,1.55,9.19-.39,19.6-.39,19.6l3.05-12.86c.23-2.58.2-19.79,1.77-21.7-3.44-.28-25.99-5.59-28.81-3.2Z"/>
      <path class="cls-3" d="m115.74,100.82l2.44,8.39-9.37,28.21-23.4,8.39-22.76-6.04-12.21-23.9,1.58-9.95c4.03-1.23,19.9-5.27,15.23-13.98-3.3-2.98-6.83-7.99-6.83-7.99l-6.49-15.56,10.1-17.17,17.55-14.71c19.63,12.81,17.62,9.03,30.4,29.33-2.04,7.78-6.46,24.5-8.57,32.12.16,1.03,12.44,3.26,12.34,2.86Z"/>
      <path class="cls-4" d="m39.03,395.92c11.31,24.21,28.62-6.74,36.59,7.38,3.6,7.01,5.5,24.32,7.05,22.83,3.94-3.75-.29-39.87-.29-39.87l1.51-20.06-17.94,1.77-18.68,16.79-8.61,4.11.36,7.05h0Zm72.02,0s8.03,8.77,13.41,9.32,11.45,13.41,16.42,13.57,6.2-13.3,6.2-13.3c-.03.07,8.16-13.52,7.36-13.32l-1.98-8.89-.32-10.31c-12.22-.43-36.55.94-48.62,2.78,1.42,3.59,6.84,16.59,7.53,20.15h0ZM67.57,93.29s5.25,12.79,15.67,15.27,20.18,1.69,25.99-5.35c3.67-4.44-4.11-3.26-6.43-6.91-2.02-3.17-2.23-9.47-2.9-7.92-7.57,11.65-23.19,12.03-32.32,4.91h0Zm12.76-49.06c-5.62,10.19-7.49,6.35-14.18,11.64-3.17,3.52-3.76,11.32-6.68,13.85-4.15,3.6-1.25,6.59-1.25,6.59l-4.27-3.83,6.87-15.12,6.3-9.05,10.72-6.34,2.85-4.32,7.2,10.5,13.14,3.19,7.66,9.43-.38,9.28-5.52,1.87c1.65-7.62,4.19-15.11-6.02-17.61-6.96,2.15-14.36-5.47-16.45-10.08h0Zm-12.53,461.66l2.92-3.51s1.49,5.8,3.77,6.55,5.08-.74,5.77-4.16-1.48-2.83-1.74-11.79.72-24.05.72-24.05c0,0,1.57,21.77,3.17,31.79.78,6.87-5.68,12.11-11.67,10.42l-5.92,2.74,4.31-6.57-1.33-1.41h0Z"/>
      <path class="cls-5" d="m126.2,524.88c-2.7,4.02-.9,16.99-.65,20.46l8.75,10.84,5.02,13.96c9.48,7.51,11.7,12.69,29.87,11.53,7.92-1.44,10.61-6.52,10.14-14.39-3.42-17.41-14.11-23.61-21.93-35.4-2.66,1.85-6.46-12.05-8.41-11.38-4.98,0-12.47,4.12-13.41,5.76-.75,1.33,5.93,10.22,5.93,10.22l-10.99-6.16-4.33-5.44h0Zm-43.82-25.64c4.55,4.98,2.32,19.19,3.32,24.45-1.22,3.88-14.32,13.93-17.6,14.53.03,7.01-16.3,22.45-26.89,20.49-14.71.51-16.9-13.91-11.49-20.94,6.17-8.28,18.62-21.34,23.77-31.22h1.17l2.62-4.03c1.38-.58,11.01,3.1,11.62,4.34-.45,1.89-3.65,6.52-4.75,8.14-.19.23,5.38-4.18,6.18-3.37,8.1.92,12-5.81,12.05-12.4h0Z"/>
      <path class="cls-12" d="m48.48,557.2c-7.85-13.35,12.72-40.33,20.55-45.69,9.85-.6,12.18-2.84,13.79-11.86,2.52.29,2.94,20.47,3.13,23.9-.6,3.05-15.98,14.49-17.57,14.61-1.07,6.33-12.46,17.78-19.9,19.04Z"/>
      <path class="cls-9" d="m162.88,180.84s5.02-.85,4.69-2.1c-3.48-15.42-14.28-49.48-14.98-65.41-1.22-10.19-1.27-6.41-10.51-8.25-5.52-1.41-7.23-3.58-14.2-4.84s-15.1-1.58-13.91-.27c4.02,4.43,1.39,14.92,1.39,14.92-2.5,16.72-12.85,26.89-29.92,27.74-13.54,3.53-27.21-6.33-32.09-22.86-3.55-8.66.81-11.33-.69-15.72-.48-1.39-12.36,2.7-19.17,5.48-6.82,2.79-8.74,1.45-9.99,2.73-1.67,1.72-5.97,15.94-6.66,35.4s-5.16,37.67-4.87,40.68c.26,2.65,6.63,1.1,14.76,2.6,23.53,5.3,18.21,7.37,20.33-16.71,0,0,1.82,22.42-.53,33.14C41.2,227.95-1.34,335.86.26,347.15c-.26,6.04,20.01,15.12,24.07,20.61,6.11,10.19,9.47,27.59,24.05,22.05,3.41-.91,15.66-22.59,29.99-21.42,18.37,1.49,36.74,22.76,40.95,25.11,13.97,5.48,7.47-11.85,12.83-14.52,11.03-4.66,17.53-1.74,24.99-4.81,1.73-.71,1.31-7.99,3.41-10.5,21.9-12.78,11.77-17.31,3.3-46.23-10.88-38.14-20.42-61.41-30.77-92.92,0,0-3.18-34.58-3.18-34.58.48.99,2.92-19.05,1.91-18.79,0,0-1.43,12.82,3.27,18.2,1.29,1.48,4.27-7.06,11.73-9.23,4.21-1.22,16.11-2.68,16.11-2.68l-.05,3.39h0Z"/>
      <g>
        <path class="cls-7" d="m42.38,163.57c.43-1.05,1.02-.84,2.28-.07,10.95,5.66,13.02,7.01,23.91,9.44,27.03-.03,50.64-.47,66.29-17.9l-3.03,11.57-1.13,33.71c-1.26-24.8-16.49-23.22-40.32-23.29-16.79,2.26-30,8.72-42.24,2.08l-1.1-4.65s-5.53-8.76-4.65-10.89h0Z"/>
        <path class="cls-7" d="m134.88,188.69l12.21-9.58c-13.02-1.55-10.04-30.2-11.72-34.35-.49,3.87-1.61,18.25-3.57,21.5,0,0-.47,15.82-.47,15.82l3.56,6.62h0Zm-90.56-17.6c-.78,5.61-3.65,16.58-5.56,21.92l5.13,1.21c2.21-3.7,4.34-16.31,3.14-20.22l-2.71-2.91Zm13.07,71.94c-1.55,9.32-.76,109.54,16.33,125.82-10.7,1.32-24.09,23.68-27.48,21.67-.83-17.37,10.49-127.66,11.15-147.49Zm60.18,39.93c-.72,7.37,20.69,109.62,10.16,109.07-4.43-23.75-10.16-109.07-10.16-109.07Z"/>
      </g>
      <path class="cls-10" d="m69.29,12.61c-12.55,2.61-17.78,15.42-17.72,26.44l-6.21,6.92s4.54-.2,3.95.62-6.26,1.44-6.31,2.68,6.14,1.86,5.4,3.08c-3.54,3.73-7.87,10.72-4.53,15.46l1.25-2.4c.92,12.1,14.1,10.48,10.88,28.62,0,0,4.57-6.98,5.34-11.65s-3.55-6.97-4.11-11.17,2.49-3.16,4.22-7.34,2.7-9.39,2.7-9.39c4.99-1.18,15.64-8.29,16.33-15.14,1.78,9.71,10.33,14.55,19.27,13.7,7.66,2.71,8.76,11.21,3.68,16.92l2.79-1.42c-.22-.22-.59,8.81.86,9.02-11.35,12.8-14.33,29.28,1.46,37.65-7.64-10.97-5.65-20.83,2.72-29.27,5.33-5.28,6.66-9.4,5.56-15.82-.39-2.3,1.57-2.81.76-8-.57-3.67-2.26-3.57-2.78-8.18-.19-1.67-.37-3.91.27-5.5.47-1.15,2.77,2.15,2.13-.09-2.51-12.37-2.28-29.15-14.47-32.92,5.18-16.05-38.69-22.08-33.45-2.82h0Z"/>
      <path class="cls-8" d="m63.84,55.8c-5.25.79-7.72,1.21-3.13-3.93-.45.35-12.1,3.88-13.4,1.36l1.87-1.52,7.02-.16,6.83-2.13-3.29,5.8,4.72-1.19s-.62,1.76-.62,1.76Z"/>
      <path class="cls-3" d="m163.04,177.42c-.82,5.21,6.44,22.41,8.8,29.05,8.98,38.24.12,33.6,7.19,70.51,6.37,23.07,2.35,22.13-.54,39.55.63-1.9-12.73,23.64-14.35,13.66-3.21,1.64-3.28-2.89-2.96-4.2,0,0,7.29-12.11,7.29-12.11l.04-11.94-1.69-1.5c-.97,2.4-1.95,17.65-5.63,17.01-3.65-2.56-2.79-8.58-2.79-8.58-.12-7.94-2.99-23.9,2.9-31.1,0,0,.48-12.09-3.76-28.32-3.78-16.25-17.12-38.64-15.66-49.83l-5.81-12.34c5.02-8.34,22.47-9.72,26.98-9.85h0Z"/>
      <path class="cls-4" d="m150.69,180.46c-5.31,2.47-14.46,9.55-9.05,17.8l-5.91-9.17,2.41-3.77,5.73-4.28,6.82-.58Z"/>
      <g class="cls-13">
        <path class="cls-18" d="m101.64,61.97l-17.28,2.69,3.56,14.6,16.85.89s-3.13-18.18-3.13-18.18Z"/>
        <path class="cls-14" d="m79.38,59.78l-16.42,3.63-4.08,8.6,5.57,7.03,11.83-5.95,3.1-13.31Z"/>
        <path class="cls-15" d="m168.3,287.2l.09,24.62-6.22,12.28.5,6.05,9.21-4.18c7.79-12.57,7.25-10.62,9.56-25.29l-5.01-12.18-8.13-1.31Z"/>
        <path class="cls-16" d="m139.21,412.47l-9.29-6.95.37-10.65,14.83,1.08.81,13.06-6.72,3.46h0Z"/>
        <path class="cls-17" d="m59.29,400.73c-2.3-14.89-11.56-11.32-16.76-1.55l8.55,6.07s8.22-4.52,8.22-4.52Z"/>
      </g>
      <path class="cls-6" d="m87.61,63.69c1.07.68,8.85,1.64,10.24-.03l1.66-3.93-3.22-.54-4.86.8-3.22,1.53s-.6,2.17-.6,2.17Zm-13.14-.03l-1.6-2.87c-2.21-.68-7.04-1.78-9.35-1.49l-.15,2.92,1.14,1.74c.66,1.14,9.74.19,9.95-.31h0Z"/>
      <g>
        <path class="cls-11" d="m135.66,142.97c-3.21,17.13.49,32.38-24.12,30.58-1.42-.19-3.49.61-1.02,1.38,21.76,3.19,25.83-14.61,25.13-31.96h0Z"/>
        <path class="cls-11" d="m132.14,165.38c-.99,2.13-.29,5.74-.67,8.2-.23,2.76-.51,8.19-.8,11-3.43,18.99,1.5,38.6,7.51,56.58.98,3.4,2.78,3.1,1.27-.44-3.86-10.61-6.57-21.74-8.04-32.93-2.37-14.07,2.92-28.6.72-42.4h0Zm29.36,112.39c-13.26,11.4,1.75,70.85,5.66,19.39,1.09-5.16-1.62-5.45-1.52-.15-.71,10.25-4.45,33.62-7.54,7.37-.59-9.14-1.6-18.73,3.4-26.61h0Z"/>
        <path class="cls-11" d="m139.39,242.44c-1.58,1.35,3.13,10.44,3.62,12.7,4.62,12.35,9.48,28.12,14.14,40.29-1.97-9.69-7.62-23.27-10.53-32.92-.66-1.95-2.93-8.61-3.47-10.47-1-2.52-1.35-8.43-3.75-9.6h0Zm27.29,56.91c-.15,0-.26.13-.25.28-.7,1.18,1.06,2.36,1.63,3.19-.23,3.6-.63,7.51-.09,11.12-3.06,4.15-7.02,8.38-7.18,13.82-.35,4.4,5.69,3.1,3.21,1.98-4.85.13-.17-7.81,1.08-9.82.6-1.01,1.08-2.06,1.79-3.01.42-.75,2.2-2.15,2.08-3.06.28-2.66-.1-6.34-.15-9.03-.03-.74.31-2.08-.21-2.72-.46-.88-1.17-1.62-1.63-2.49,0-.15-.13-.27-.28-.27h0Z"/>
        <path class="cls-11" d="m178.79,303.94c-2.86,7.26-5.29,15.49-10.55,21.6-.84,1.01-1.86,1.95-2.78,2.9-.35.41-1.38.7-.95,1.37,6.12-1.4,13.69-19.69,14.28-25.86h0Zm-.46,11.6c-4.17,4.91-6.49,12.47-12.16,16.06-.25-.14-.49-.1-.77-.16-.47-.25-1.4-1.98-1.55-.61,2.25,6.75,10.53-7.85,12.28-10.19.29-1.33,4.13-4.5,2.2-5.1h0Zm1.4-34.14c-.42.15.11.74.18.96.33.99.55,2.34.93,3.32,2.88,9.82-.49,20.4-2.23,29.58,4.69-9.4,6.04-24.18,1.12-33.86h0Zm-16.16,34.68c-1.64.06-1.32.72.71,3.56.04.2.36.13.31-.07-.3-1.54-.24-.86-.29-1.54-.04-.44.23.86.4,1.26.05-.66-.35-1.62-.55-2.34.15,1.15-.03-.91-.58-.87h0Zm.34,3.09c.19.42.19.25,0,0h0Z"/>
        <path class="cls-11" d="m168.15,330.9c.28,1.38,1.59,3.43,2.05,4.85,1.44,5.12,4.56,11.64,2.76,16.98-2.31,5.3-9.27,6.11-12.75,10.35-3.08,2.96-.7,8.79-4.71,10.98-.33.16-.47.55-.31.88,1.67,1.24,3.56-1.82,4.03-3.26,1.87-10.71,2.91-8.55,11.29-14.42,8.59-5.98,1.95-19.56-2.37-26.36h0Zm-14.3,43.62c-1.51.29-3.73.68-5.29.81-.01.19-7.04.16-5.42,1.04,1,.27,15.06.41,10.71-1.85Zm-75.2-7.22c-.99-.15-8.03-.1-4.96,1.53,1.26-.14,2.89-.51,4.14-.43,6.25.55,12.19,3.03,17.66,6,4.62,2.32,9.21,6.16,12.84,9.82-5.87-8.39-18.68-15.62-29.67-16.92Zm-55.89-1.66c-1.13.26-.04,1.55.41,2,2.76,2.95,4.25,6.82,5.69,10.53,2.21,5.94,5.92,13.9,13.36,13.54.69.14,5.53-.7,4.01-1.54-10.54,1.87-13.38-6.82-16.92-14.88-1.78-3.18-2.84-8.28-6.55-9.64Z"/>
        <path class="cls-11" d="m2.09,339.39c-8.84,13.69,13.26,21.14,21.38,28.13,2.67.43-1.45-3.29-2.32-3.6-8.32-5.83-24.55-11.76-19.06-24.52Zm85.83-196.99c-1.05-.04-.34,2.2-.44,2.72.03.48-.1-.94-.18-1.41.2,2.04.16,2.04.31,3.56.73,1.29.64-1.92.72-2.13.06-.48-.02.97.03,1.46.03-.35.17-2.27.19-2.9-.27,1.66.4-1.54-.64-1.29h0Z"/>
        <path class="cls-11" d="m88.99,147.09c-.08.02-.14.1-.22.13-.65.24,0,0-.19.22-.09.02-.07.17.03.15-.86.33-1.1.35-.86.32,1.12-.25,2.45-.24,3.31.68,3.15,3.97-2.02,6.29-4.33,2.44-.57-.77-.87-2.01.03-2.6.6-.31,0,0,.13-.18.23-.05.15-.43-.09-.37l.89-.22c-5.61-.01-.74,7.78,3.07,6.26,3.7-1.13,1.63-7.01-1.77-6.84h0Z"/>
        <path class="cls-11" d="m87.94,153.38c-.81.62-2.17,11.63-.09,8.94-.22-2.41.2-6.72.09-8.94Z"/>
        <path class="cls-11" d="m89.68,161.41c-4.86-.6-5.68,7.22-.32,6.47,3.17-.66,4.29-6.21.32-6.47Zm.43.72c2.97,2.42-.87,7.36-3.28,3.74-.58-1.92,1.11-3.33,3.28-3.74h0Z"/>
        <path class="cls-11" d="m87.79,167.75c-.52-.06-.11,2.27-.21,2.5,0,0-.04,3.73-.04,3.73l.09,2.99c.05.72,1.19.64,1.12-.09-.44-.99-.19-8.35-.96-9.13Z"/>
        <path class="cls-11" d="m88.21,176.92c-5.2,1.86-1.12,9.49,3.32,6.37,2.08-1.24,2.27-3.93.46-5.5-.73-.69,0,0-3.78-.87h0Zm.22.5c3.73,2.28,3,.95,3.74,2.31.83,1.66-1.15,3.25-2.64,3.48-1.82.17-.01,0-1.09-5.79h0Zm20.85-46.25c-7.49,11.94-23.95,11.6-36.03,11.48,10.55,3.13,31.38.49,36.03-11.48h0Zm41.7,46.53c-17.73,2.66-13.44,18.87-18.74,4.03-1.73-1.39-.28,3.23-.09,3.94,2.07,8.14,5.53,1.74,9.06-1.25,2.68-2.86,6.77-3.25,10.34-4.22,1.62-.35,1.05-2.9-.58-2.5h0Zm11.9-.26c-1.12,7.35,5.55,19.44,7.73,26.47.99,2.68,1.71,5.5,2.38,8.28.15.4-.03,2.25.84,2.03.89-.1.13-1.73.15-2.2-.39-3.91-2.97-9.93-4.33-13.64-1.73-3.91-4.72-12.06-5.67-16.2-.29-1.09-.34-3.86-1.09-4.72h0Z"/>
        <path class="cls-11" d="m158.12,176.89c-2.19.13-5.17.17-7.21,1.01-1.37.44-.64,2.57.71,2.09,4.69-.82,10.05-1.74,14.81-1.31-.94.46-2.15.63-2.78,1.51-.27.08-.11.47.13.4,1.09.33,2.36-.27,3.24-.91,2.62-3.27-7.12-2.62-8.9-2.79Zm-22.17,11.54c.64,3.49,3.75,6.46,5.07,9.84.28,3.7.1,7.6,1.33,11.2,7.1,21.66,18.3,44.4,19.06,67.18,3.3-24.26-14.23-47.74-19.13-71.32.03-8.22-1.89-10.34-6.33-16.89h0Zm38.38,26.6c-.24.02-.42.23-.4.47.09,1.76.28,5.61.43,7.31.26,3.21.65,8.83.69,12.13,1.13,14.81,1.08,30.86,4.31,45.2-2.26-17.28-2.6-35.77-3.59-53.39.04-3.5-.54-7.83-.98-11.32-.02-.24-.23-.42-.47-.4h0Zm-91.09,153.67c-.37.86.06,2.25-.28,3.28-.17,1.39-.72,3.68-.92,5.09-.39,4.71-.23,9.77-1.05,14.51-.2,3.91,2.45,7.22,2,11.19.1,2.27.06,5.25-.04,7.5-.05,1.24,1.91,1.3,1.92.04,0,0-.01-1.41-.01-1.41.13-3.17-.08-7.53-.65-10.67-.72-2.4-1.47-4.72-1.59-7.24.16-4.26.54-9.52.44-13.79-.04-2.48,2.05-6.65.19-8.5h0Z"/>
        <path class="cls-11" d="m83.91,410.12c-1.36-.11-.68,3.12-.9,3.81-.47,3.64-.94,8.18-1.24,11.86-3.36,23.7-3.57,48.05-.06,71.74.26.89-.11,2.39.66,2.9.68-1.6-.45-4.87-.37-6.78-2.36-19.8-2.36-40.03.58-59.77.24-3.98,3.84-21.93,1.33-23.76Zm-44.86-19.3c-2.72,23.74,6.64,48.4,14.36,70.68.29.93,1.79.45,1.42-.5-8-22.25-16.01-46.53-15.78-70.17Z"/>
        <path class="cls-11" d="m53.95,460.34c-1.73.77.44,3.26.28,4.72,0,0,1.08,5.54,1.08,5.54,1.18,6.72,2.27,13.6,1.36,20.42-.32,3.3-1.48,7.79.75,10.47-.94-10.28,1.85-21.24-1.15-31.73,0,0-.89-4.93-.89-4.93-.73-1.32.44-4.37-1.43-4.5Zm-7.26-67.9c-2.07,5.71,3.49,10.83,2.97,16.59.94-1.22.17-3.18-.04-4.6-1.15-3.9-2.61-7.94-2.91-11.98h-.01Zm.77-189.28c-4.31,19.81-13.34,39.12-21.22,58.03-10.53,24.53-20.03,50.09-24.26,76.53-.39,7.52,2.26-5.76,2.75-7.19,5.54-23.37,13.98-46.49,23.05-68.71,7.46-19,16.72-38.61,19.68-58.66h0Z"/>
        <path class="cls-11" d="m3.1,336.9c-.3,12.46,15.94,16.16,23.47,23.58,5.31,4.49,8.1,25.91,17.69,21.01.45-.82-.72-.36-1.09-.24-8.52-.03-9.84-12.62-13.62-18.47-7.41-10.19-23.78-11.86-26.44-25.89h0Z"/>
        <path class="cls-11" d="m80.85,358.85c-15.69-.38-25.47,14.39-36.73,22.45,12.66-7.83,22.76-24.36,39.75-21.48,8.86,1.28,16,7.3,22.73,12.37-6.18-7.06-15.93-13.14-25.74-13.34Z"/>
        <path class="cls-11" d="m173.4,344.59c-1.59,2.53-3.81,4.97-6.46,6.48-16.95,4.97-8.39,13.04-14.41,16.39-7.22,2.9-15.57,1.43-22.86,4.23-5.6,3.36-.72,17.78-11.31,9.98-1.99-.46-13.96-14.08-13.08-9.98,4.01,3.51,18.02,20.08,21.62,10.04,1.11-2.91.37-7.11,3.19-9.07,7.64-3.69,19.74.08,25.2-6.94.05-15.28,14.36-10.16,18.1-21.14h0Zm-43.39-143.44c-23.32,12.18-60.05,14.29-82.93.81,17.05,13.77,67.39,12.98,82.93-.81h0Zm1.52-14.22c-23.61,8.07-60.56,17.37-82.21,2.32,12.32,15.07,69.63,7.36,82.2-2.32h0Zm-90.77-48.7c3.59,5.21,1.97,12.23,1.46,18.22-2.05,9.59,3.26,21.67,14.08,20.57-24.8-7.08-6.14-25.27-15.55-38.79h0Zm26.26-46.37c3.02,8.67-8.03,10.31-13.89,12.98-.49.24-.11,1.02.38.77,0,0,1.02-.5,1.02-.5,5.55-2.01,17.4-5.52,12.49-13.25h0Z"/>
        <path class="cls-11" d="m60.65,84.74c-.34.92.92,1.91,1.39,2.63,1.16,1.6,2.58,3.04,4.05,4.35,5.4,5.09,12.87,8.66,20.36,6.75.77-.15.53-1.36-.25-1.19-6.44,1.73-13.11-.77-17.94-5.1,0,0-4.88-5.07-4.88-5.07-.73-.63-1.67-2.47-2.74-2.36Z"/>
        <path class="cls-11" d="m101.19,86.31c-4.09,4.34-9.06,9.24-14.6,11.55,4.21,1.43,13.13-7.92,14.6-11.55Zm-46.28,137.34c-16.62,48.64-15.68,101.97-19.99,152.92,0,0-.59,9.67-.59,9.67.8,1.27.83-5.51,1.14-6.1,4.32-49.01,5.26-98.65,17.47-146.57.33-1.39,1.05-4.7,1.31-6.12-.07-.24,1.17-3.78.67-3.81h0Zm3.55,7.56c-3.25,20.17-4.22,43.87-5.91,64.44-1.73,29.08-4.48,61.58-6.44,90.67,0,0-.35,3.29-.35,3.29.76,1.56.63-3.2.74-3.26,3.17-28.96,5.03-61.6,7.6-90.58,1.16-19.05,4.11-45.66,4.37-64.56h0Zm57.54,26.43c-1.78,43.27,7.5,89.56,11.72,132.91-3.2-44.09-10.14-88.97-11.72-132.91h0Zm-9.58-26.33c2.47,51.5,7.44,108.05,12.09,159.61,0,.27.48.26.44-.03-3.82-46.22-8.47-113.1-12.53-159.58Zm26.64,23.07c6.13,38.78,26.13,79.14,21.56,119.58,7.36-28.18-12.91-90.34-21.56-119.58h0Zm-86.31-81.13c1.96,14.5-.14,30.76-2.93,45.3.16.44,1.05-3.59,1.12-3.54,2.53-9.97,4.1-21.13,3.49-31.45-.45-2.37-.46-8.42-1.69-10.31Z"/>
        <path class="cls-11" d="m17.67,136.55c-1.35-.21-.65,4.16-.93,4.76-.12.69-.11,2.47-.1,3.19-.79,7.73-2.23,15.8-3.33,23.5-.83,7.14-2.93,14.92-1.85,22.04.44,1,1.77.51,2.62.6.88.13,5.39.33,6.38.4,6.04.57,12.76,1.45,18.63,2.81,5.29,1.75,6.98.96,7.67-4.79.62-4.5.69-9.39.52-13.94-.97-1.07-.44,4.8-.72,5.62-.37,3.46.19,15.6-5.79,12.37-8.76-2.12-19.02-3.89-28.02-3.76-.28-5.13,1.28-11.81,1.85-16.95.92-7.09,2.13-14.42,2.65-21.55.22-2.13.4-4.73.66-6.87.14-.62.3-1.92.31-2.56-.23-.55.87-5.02-.55-4.85Z"/>
        <path class="cls-11" d="m51.5,103.47c-9.65,1.29-18.17,6.97-27.83,8.29-5.56,1.48-5.66,21.5-6.71,27.1,2.18,3.57,2.53-11.59,3.15-13.01.83-2.6.6-12.86,4-12.68,6.14-.96,12.18-4.24,18.03-6.29,2.64-.48,11.32-5.89,10.51-.37.15,1.25-.85,2.95-.35,3.96.6-1.46,2.15-6.99-.8-7Z"/>
        <path class="cls-11" d="m22.41,112.72c-.58,1.41,1.37,2.38,1.12,3.85-.33,1.37-1.14,2.8-.38,4.21.64.81,1.83.18,2.51.96-2.15,2.85,1.2,5.28,3.31,6.91.95.8,2.95,2.37,3.96,3.09.09.1.25-.03.15-.13-.98-1.4-2.93-3.15-4.04-4.43-.84-.96-2.03-2.08-2.67-3.16.83-2.28.97-4.28-2.22-4.01.32-2.81,1.18-5.38-1.74-7.28h0Zm3.3,8.9s.01.02,0,.03c0,0,0-.03,0-.03Zm16.71,72.71c-1.76,3.34-1.83,8.09-2.01,11.92,1.74,13.42-5.53,25.9-7.2,38.68,2.62-8.85,6.05-18.33,7.61-27.57.89-7.64-.22-15.64,1.6-23.04h0Zm-28.59-3.97c-.36,3.32.05,7.42-1.15,10.79-.03,1.42-3.2,9.25-1.77,9.56,1.16.43,1.4-4.16,1.74-4.63.81-4.53,2.57-11.43,1.18-15.72Zm-3.22,21.36c-1.91.92.03,15.08-.06,17.79.33,5.97,1.3,23.46,1.49,29.16.24,6.79,1.62,14.2-.97,20.54,4.46-6.82.52-25.91,1.11-34.45-.36-6.41-.98-20.33-1.04-26.66-.28-1.61.75-5.31-.53-6.38Z"/>
        <path class="cls-11" d="m11.06,279.11c-1.13,1.92.53,6.68.47,8.88.05,3.17-.28,6.37-.89,9.48-.26,1.13-.65,3.42-.77,4.57.1.26-.82,3.41-.13,3.38.69.23.6-3.01.78-3.27,0,0,.63-3.81.63-3.81,1.53-6.44.29-12.88-.1-19.23h0Zm54.53-170.6c-1.33.78,3.22,1.91,3.84,2.43,4.46,1.25,8.84,3.67,12.31,6.32-3.48-4.77-10.72-6.6-16.15-8.75Zm33.87-.63c-2.62,2.37-10.9,4.44-9.09,8.84-.19-4.9,7.64-5.68,9.09-8.84Zm51.78-.62c-.19,2.26.56,5.29.75,7.62.35,7.41,3.22,15.61,4.64,22.85,3.3,12.77,6.6,26.32,9.97,39.06.88,4.34,1.83,1.92.9-.96-3.27-14.59-7.99-30.92-11.63-45.43-.99-4.2-2.15-10.62-2.97-14.82-.53-2.51-.2-6.26-1.67-8.32Zm-34.86-8.54c-5.17.1-1.17,4.74-1.11,1.81,9.91-2,19.8,2.87,29.18,5.43,1.84.38,5.24,0,6.59,1.34.97-2.37-6.7-2.09-8.11-2.53-8.43-3.28-17.37-6.32-26.55-6.04h0Zm-1.17,1.53s.07.14.03.19c-.01-.05-.06-.19-.03-.19Z"/>
        <path class="cls-11" d="m150.89,106.79c-.04,3.68-5.92,5.33-4.57,9.39.27.8.68,1.69.34,2.51-1,4.11-6.78,7.61-6.8,11.6.99-.04,1.15-1.8,1.95-2.38,1.15-1.22,2.54-3.23,3.65-4.48,4.43-5.6,1.78-4.54,1.91-9.56.89-2.21,5.7-4.59,3.52-7.09Zm-45.47,274.38c.48,2.78,3,7.26,4,10.06,1.79,6.29,1.81,14.78,4.94,20.69,2.43,8.84-.9,19.1,1.11,28.14,1.65,19.35,11.12,37.16,11.23,56.74.38,1.18-.04,4.85,1.05,5.01,2.15-18.44-7.19-36.99-9.99-55.3-2.27-10.27-1.58-20.72-1.4-31.1-4.02-11.29-4.59-23.88-10.94-34.24h0Zm22.22,121.94c-1.44.81.12,3.47-.24,4.95.06,2.33.1,7.5-.07,9.78.07,3.01-2.78,7.68,1.08,9.33.24-.92-1.29-2.07-1.3-3.19.36-2.4,1.34-4.82,1.24-7.31-.27-1.39,1.05-14.05-.71-13.57h0Zm-5.53-107.46c-1.11.71,1.14,10.39,2.32,7.45,0,0-1.71-4.73-1.71-4.73-.42-.8.03-2.18-.61-2.72Zm21.53,2.29c.48,1.1-1.83,17.63.61,14.47-.98-4.71,1.2-9.97-.61-14.47h0Zm8.36-21.74c-.68,4.76.69,9.91,1.98,14.54.03,4.89,2.36,11.6,2.54,16.5.65,11.26,0,22.76-1.52,33.92-.92,8.46-4.91,18.04-3.22,26.13,2.33-16.06,6.12-34.02,6.24-50.8.62-13.77-5.26-26.75-6.02-40.29h0Zm-.26,93.51c-1.3-.06-1.14,12.9-1.49,14.42-.28,8.21-.62,17.35.31,25.48.49,5.4,2.96,10.31,1.77,15.7,2.77-5.5-1.37-13.46-1.03-19.88-1.02-11.76.72-24.48.44-35.72h0ZM65.18,138.42c.65,1.58,2.43,2.16,3.87,2.84.7.21,1.59.78,2.33.59-.44-.7-1.89-1.05-2.57-1.47-1.02-.37-2.57-1.64-3.64-1.95h0Zm-4.69-61.05c.71,5.43-1.34,11.75-4.54,16.23.09-1.06,1.34-4.93.35-5.43-.64-.07-.35,1.41-.46,1.74-2.72,14.37,9.02-10.25,4.64-12.54h0Zm-15.16-12.92c-1.69,5.91,4.8,11,8.08,15.38,1.26,1.72,2.52,3.69,2.57,5.88.04.33.58.26.53-.07-1.68-8.27-10.42-12.43-11.19-21.18Z"/>
        <path class="cls-11" d="m47.94,52.58c-8.37,6.57-5.28,20.18-2.9,13.91,4.81-7.72,1.08-5.13-1.08.32-2.24-4.81,1.11-10.34,4.34-13.87.25-.23-.13-.61-.37-.37h0Zm15.25-4.04c-5.79,4.27-14.02,3.34-19.87.56,3.89,4.88,13.57,3.47,18.77.65.35-.28,2.35-1.12,1.11-1.21h0Z"/>
        <path class="cls-11" d="m49.96,45.73c-.11-.09-.28-.07-.37.04-1.3,1.64-3.57,2.36-5.56,2.76-.99.37-.85.85.16.93,2.06-.41,5.26-1.65,5.76-3.73Z"/>
        <path class="cls-11" d="m45.81,45.36c-.62-.01-.82.56-.31.93,1.19.43,2.73.4,3.84-.19-.1.02.32-.1.34-.26-.28-.12-.78-.05-1.09-.06-.94.05-1.88-.14-2.78-.41h0Z"/>
        <path class="cls-11" d="m64.93,20.84c-6.1,7.55-11.08,17.66-18.91,24.2-.1,2.14,4.27-3.14,4.98-3.72,5.55-5.97,9.68-13.97,13.93-20.48h0Zm8.45-9.56c-12.32.73-22.43,14.78-21.37,26.29,1.8-9.9,6.79-21.6,17.66-24.82,3.14-1.08,6.8-.49,9.89-.38-1.57-1.17-4.2-1.09-6.18-1.09h0Zm-10.09,37.49c-.22-.08-1.72,3.14-1.85,3.22-.51,1.19-2.31,1.94-2.42,3.12,2.2-.36,4.49-4.11,4.27-6.34Z"/>
        <path class="cls-11" d="m69.44,51.29c-2.68,2.31-6.19,2.68-9.38,3.84,3.14.16,7.95-1.4,9.38-3.84h0Zm14.94-38.87c-4.96,2.12-5.66,8.82-5.72,13.58.03.71-.22,4.22.71,3.54-.02-5.92.62-13.6,5.01-17.13Zm5.32,1.04c-.38.03-2.01.26-1.48.65,3.13-.44,6.17,1.2,9.1,2.04,3.29.14,6.77-.58,9.24,2.31,2.26,1.36,3.25,4.88,5.3,5.79-.3-3.62-5.4-7.14-8.76-8.69-1.85-.46-3.77.46-5.62.07-2.59-.72-5.03-2.26-7.79-2.18Zm22.74,11.63c2.83,7.46,1.45,16.69,5.05,24.1,1.61.88-.86-3.92-.69-4.72-1.74-6-.47-14.45-4.36-19.38h0Z"/>
        <path class="cls-11" d="m115.54,47.7c-.71-.23-1.06.87-.35,1.09,0,0,1.27.34,1.27.34.29.08-.58-.16-.87-.19.28.21,1.26.23,1.69.46-1.11-.33,1.56.56.64-.4-1.19-.64-.63-.41-1.18-.65-.28-.12.54.28.81.41-.24-.03-1.3-1.01-1.55-.94.63.42,0,0-.44-.12Z"/>
        <path class="cls-11" d="m114.94,48.14c-1.89,4.18,1.12,9.49,1.82,13.81.47,2.86-.32,5.96-2.39,8.04-.26.3-.22.76.07,1.02,8.07-3.72-.54-16.23.5-22.86h0Z"/>
        <path class="cls-11" d="m110.62,58.93c-1.67.99,7.37,5.59,3.86,11.72,3.72-2.61-.45-10.23-3.86-11.72h0Zm-2.63,8.03c-1.15,1.11-2.75,2.06-4.33,2.82-.59.36.21.64.58.6,1.5-.27,3.89-1.89,3.75-3.42h0Z"/>
        <path class="cls-11" d="m105.08,56.76c1.05,4.87,2.7,9.38-1.66,13.11,4.82-1.56,3.9-9.63,1.66-13.11h0Zm5.23,11.94c-2.25,2.83-1.32,9.99,2.64,10.84-3.14-2.59-4.22-7.03-2.64-10.84h0Z"/>
        <path class="cls-11" d="m106.49,69.48c-.14-.03-.29.06-.31.21-.27,1.8-1.09,4.48-.34,6.25.82,2.29,6.2,6.6,7.33,3.07-2.03,2.55-5.72-1-6.81-3.28-.92-1.96.7-4.49.13-6.25h0Zm9.62-.38c3.66,8.67-6.29,15.63-10.03,22.72-4.36,6.8-3.74,18.58,2.23,23.63-14.09-26.16,16.37-32.39,7.8-46.34Z"/>
        <path class="cls-11" d="m101.15,86.31c-7.28,8.6-3.39,23.75,6.68,28.61-.12-.47-.86-.88-1.23-1.19-10.05-7.97-9.46-16.63-5.45-27.42h0Zm3.22,11.66c-2.06,1.24,10.89,3.41,9.41,1.82-2.98.04-6.56-1.1-9.41-1.82h0Zm-16.09-47.8c1.47,3.93,15.49,1.68,20.02,7.81-2.39-6.32-14.35-5.47-20.02-7.81h0ZM83.42.14c-6.81-.92-17.9,2.72-14.64,11.42.2.6,1.11.29.92-.31-4.52-16.88,35.44-11.42,33.27,2.25.16.59-1.48,2.65-.28,2.18C107.52,5.12,91.3.4,83.42.14Z"/>
        <path class="cls-11" d="m95.45,51.92c-2.65,1.02-6.44,1.85-8.07,4.34-.62.39-.27.89.3.41,1.16-.07,12.95-3.83,7.77-4.75h0Zm-27.5.18c-2.45,1.52,1.27,2.73,2.47,3.09,1.45.68,3.55,1.76,5.08,2.13,2.07-.06-6.93-5.83-7.55-5.22h0Zm17.95,22.57c-4.37,2.31-4.08,4.84-8.79.09.23,1.58,2.34,3.29,4.08,3.28,1.71-.2,4.56-1.62,4.71-3.37Zm14.13-18.28c-2.84,3.11-6.66,2.31-10.33,3.54-1.15-.06-3.54,4.46-1.92,3.79,1.19-4.98,7.17-2.42,10.71-3.69,1.37-.19,3.92-3.41,1.54-3.65h0Zm-38.02-.14c2.9,3.12,6.78,2.31,10.51,3.54,1.17-.06,3.6,4.46,1.95,3.79-1.24-5-7.31-2.4-10.9-3.69-1.39-.18-3.99-3.43-1.56-3.64Z"/>
        <path class="cls-11" d="m100.34,56.51c-2.41.2-.82,4.1-2.07,5.65-.07.68-.54,1.3-1.14,1.62-.32.12-.12.62.19.49,1.95-.09,5.29-7.08,3.02-7.75h0Zm-38.29.74c2.71.03,1.01,4.06,2.43,5.65.09.73.65,1.3,1.33,1.62.39.14.12.62-.23.49-2.12.1-6.26-7.18-3.54-7.75h0Zm32.31,23.92c-3.37,3.38-8.06,2.6-12.16,4.01-1.05.43-1.97-.91-3.07-.44-2.64.46-5.92.73-8.23-.38.27,2.17,7.27.87,9.03.88,1.02.68,2.12,1.14,3.31.48,1.77-.74,3.66-.48,5.51-.71,1.11.15,7.71-3.41,5.61-3.85h0Zm-6.97,5.57c-2.69,1.35-5.92,1.56-8.85.87-1.69,1.56,11.2,1.72,8.85-.87h0Zm-20.38-25.01c-.05-3.24,5.05-3.24,5,0,.05,3.24-5.05,3.24-5,0Zm24,0c-.05-3.24,5.05-3.24,5,0,.05,3.24-5.05,3.24-5,0Zm-8.6,438.83c-.87,1.69-.93,4.29-2.26,6.12.03.21-1.8,2.99-1.18,3.07,1.21-2.34,4.57-6.44,3.44-9.19h0Z"/>
        <path class="cls-11" d="m81.04,506.29c-1.63,4.96-7.84,4.1-12.07,4.91-1.77-.22-11.57,9.25-7.54,8.47.74-1.08,2.36-3.09,3.27-4.01,2.15-2.75,5.27-4.41,8.81-4.12,2.83-.23,8.11-1.88,7.54-5.25h0Z"/>
        <path class="cls-11" d="m58.21,501.69c-4.76.86-3.64,8.21-6.69,11.13.46,4.71,4.6-6.86,4.92-7.78.51-1.67,1.64-2.32,3.3-1.65,1.46.35,4.31,1.31,5.67,1.94.43.29,2.81,1.29,3.12,1.65-.09,2.91-5.29,6.45-4.51,8.59.59-2.49,7.83-8.33,4.41-9.78-3.03-1.94-6.67-3.45-10.21-4.1h0Z"/>
        <path class="cls-11" d="m54.6,504.64c-5.96,9.66-15.17,19.87-22.6,28.73-1.78,1.76-2.06,4.82,1.11,2.59,0,0,4.52-3.49,4.52-3.49,1.02-.48,3.3-3.08.69-1.84-1.4,1.13-4.11,3.05-5.61,4.11,2.97-3.83,9.14-11.25,12.31-15.07,2.67-4.24,9.24-10.08,9.57-15.04Z"/>
        <path class="cls-11" d="m30.59,536.4c-3.37,1.72-5.75,14.93-.62,15.13.83-1.63-1.98-3.29-1.67-5.29-.22-2.48.43-5.03,1.45-7.29.13-.77,1.21-1.83.84-2.54h0Z"/>
        <path class="cls-11" d="m51.52,550.1c-6.37,3.79-15.02,5.15-21.53.88-1.16,2.71,10.21,4.82,12.77,3.98,1.9.02,11.14-2.54,8.76-4.86h0Zm22.12-24.07c-9.01,5.5-10.61,18.88-20.08,23.54-.01-3.83-.92-7.51-3.8-10.17-.02-.58.72-1.02.53-1.68-.05-.67-1.12-1.28-1.11-.26-2.28,2.9,3.4,4.79,3.01,11.47,1.68,6.72,10.81-7.74,12.01-10.11,2.32-4.59,6.7-9.52,9.43-12.78h0Zm8.9-26.96c4.01,6.8,1,15.68,2.95,23.26,2.13,2.88.05-23.9-2.95-23.26h0Z"/>
        <path class="cls-11" d="m86.14,522.93c-3.19,5.15-8.93,9.11-14.27,12.2-.37.51-5.3,2.32-4.45,3.41.71,1.35,6.8-3.66,7.85-4.12,3.77-2.93,10.39-6.5,10.88-11.5h0Z"/>
        <path class="cls-11" d="m68.4,537.92c-1.23,2.7-2.52,5.88-4.92,8.06.07,4.44,6.59-6.77,4.92-8.06h0Zm-7.11,11.1l-.93.54c-.26.17.53-.32.8-.48-.35.14-.86.37-1.2.65-1.58.41-.31,3.22,1.11.59.08-.12-.24.24-.19.38.25-.14.56-.83.71-1.16-.37.56,0,0,.07-.13.25-.23-.14-.62-.37-.38h0Z"/>
        <path class="cls-11" d="m27.15,545.87c-1.61,5.34,3.84,12.41,9.47,13.28,7.42,1.28,19.59-2.58,22.7-8.26h0c-11.55,8.11-28.47,12.86-32.17-5.01h0Zm58.28-25.82c-1.58,1.76-3.28,4.05-5.54,5.29-1.17,4.74,6.28-3.74,5.54-5.29Z"/>
        <path class="cls-11" d="m79.84,526.05c-3.99,2.07-7.76,4.98-11.96,6.66-2.78,4.2,14.61-6.54,11.96-6.66h0Zm-39.87-.19c-.76-.13-.95,1.07-.18,1.18l-1.33,1.1c1.44-3.55,18.97,6.39,13.34,9.16-4.27-3.34-10.05-9.66-14.69-8.07-.32.07-.22.6.12.51,5.64-.56,9.51,5.2,13.7,8.07.88.86,1.97-.03,2.56-.8.96-1.47,0-3.09-1.12-4.15-2.08-2.21-5.15-3.81-7.83-5.2-1.48-.71-2.89-1.75-4.57-1.79h0Zm6.03-6.32c-.31-.1-1.5.3-.92.56,5.39-.4,8.46,5.81,12.37,7.55-1.8-3.51-7.27-7.15-11.45-8.1Zm-2.84,3c-2.54.85,3.57,2.48,4.2,3.31,2.82,1.71,5.64,3.57,7.74,6.16.11.46.71.56,1.04.25,1.33-.73,4.16-3.52,1.73-4.42.95,1.68-.81,2.99-2.19,3.78-3.15-4.05-7.75-7.29-12.52-9.07Zm5.85-9.27c-.4-.11-.55.53-.15.62-.23.37-.2.4-.29.59.31-.29.37-.73.86-.35,2.1.79,4.48,2.16,6.37,3.38,1.46,1.26,7.31,3.92,5.68,5.98-.48,1.32-.66,1.79-2.02.89-2.91-1.75-6.37-4.47-9.28-6.28-.89-.54-1.97-1.05-2.97-1.12.49-1.07,0,0-.24-.03-.34-.02-.38.51-.03.53,4.44.9,8.75,6.46,12.96,7.97.98.63,1.91,0,2.19-1.03,3.47-3.55-10.22-10.32-13.06-11.16Zm-.44,1.2c-.5.55-1.06,1.2-.67.96.41-.26.37-.36.67-.96Z"/>
        <path class="cls-11" d="m58.39,523.92c-.65-.14-1.22,1.1-1.32.97-.23.19.4-.45.56-.71-.1.11-.79.66-1.01.88-.1.12-.34.51-.22.41.76-.63-1.03.7-.15,1.1.49.34.87-.23,1.07-.61.36-.42,1.33-1.5,1.06-2.05h0Zm-4.35,6.19c-.27,0-1.03,1.4-1.2,1.57-.22.3.41-.62.65-.89-.09.26-.91,1.48-1.18,1.87.76-.97-.73.46-.34.77.11.09.28.07.37-.04,1.08-1.31.65-.69,1.08-1.31.22-.31-.51.57-.77.84.16-.24,1.21-1.3,1.51-1.69-.92,1.05,1.35-1.26-.12-1.11Zm-8.91-6.22c-.3-.01-1.34,1.5-1.55,1.67-.28.34.55-.7.87-1-.18.35-1.41,1.87-1.88,2.28.95-1.05-.55.3-.27.56.09.12.25.15.37.06,1.48-1.39.89-.74,1.48-1.39.38-.43-.82.82-1.21,1.25.78-.47,1.74-1.35,2.36-2.12-1.27,1.07,1.6-1.3-.18-1.31h0Zm4.14-6.38c-.45.34-1.14,2.36-.41.56-.12.2-.55,1.18-.72,1.5.47-.82-.5.59-.06.75.59.07,1.03-1.37,1.04-1.19.13-.26-.31.5-.41.78.46-.62,1.94-2.41.58-2.4Zm77.22,6.76c-2.75.41-3.25,20.43-.31,16.04-1.76-5.06-1.02-11.21.31-16.04Zm-.33,17.35c-1.16-.11,1.79,1.65,1.77,1.74,7.95,6.36,10.35,16.89,15.78,25.08,7.29,12.23,35.64,15.87,35.54-3.03,1.21-5.79-11.26-19.56-4.23-9.26,13.18,19.89-13.37,27.83-26.69,16.16-9.38-8.78-10.05-24.35-22.18-30.68h0Zm29.92-12.18c-1.09.07,0,1.17.28,1.53.7,1.31,2.07,2.83,2.87,4.12,3.92,4.75,9.47,12.13,13.4,16.53-2.48-4.65-7.41-9.9-10.65-14.36-2-2.39-3.91-5.44-5.9-7.81h0Zm-7.92-9.24c-4.19.7-8.58,2.68-12.06,5.07-2.33,1.79.53,4.79,1.54,6.53.6.67,3.6,6.23,4.54,5.66.23-.15.29-.46.13-.68-8.7-11.6-9.16-10.92,5.42-15.85,4.28-1.07,4.61,8.59,7.83,10.35.28.17.56-.29.27-.46-3.51-2.5-2.55-10.37-7.67-10.63h0Z"/>
        <path class="cls-11" d="m125.75,541.28c-.87,1.72-1.08,4.64.9,5.89,2.07,1.88,4.21,3.95,5.88,6.19,4.85,5.62,3.07,14.45,8.65,19.63.46.46,1.2-.26.71-.72-4.66-3.83-3.9-10.77-6.4-15.79-2.13-4.59-6.42-7.67-9.61-11.36-.68-1.19.51-2.89-.13-3.84h0Zm53.52,24.15c-.68.06-.21,1.35-.25,1.74-.01.4.06,1.37.1,1.75.36,5.51-3.28,10.79-8.73,11.98-9.76,3.48-21.23-2.71-27.97-6.91,10.81,11.28,42.86,13.65,36.85-8.56h0Zm-28.05-7.95c-.44.16-.34.64-.27,1,.14,4.2-3.69,7.62-5.6,11.13,1.5-.85,9.52-10.99,5.87-12.13Zm17.92-3.72s-.05.08-.03.12c.5,2.45,3.96,2.32,5.69,3.56,1.84,2.24,2.73.7.52-.72-2.04-1.02-4.37-1.33-6.06-2.93-.03-.04-.08-.05-.12-.03h0Zm-42.32-27.48c1.02,3.75,6.42,5.8,9.58,7.72,0,0,2.56,1.65,2.56,1.65.3.07,2.47,2.4,2.82,1.88-.42-3.73-11.52-6.22-14.95-11.25Zm30.69,9.25c-.99-.14-7.74.65-4.72,1.9,1.77-1.19,12.11-1.54,4.72-1.9h0Z"/>
        <path class="cls-11" d="m157.01,531.93c-3.12.56-6.62,1.54-9.59,2.64-2.61,1.35-7.42,2.78-6.93,6.45,1.13,3.3,4.85-.69,6.69-1.38,1.41-1.17,4.05-1.39,5.04-2.68-3.29.06-7,3.54-10.34,4.41-2.16-3.81,7.46-6.1,10.06-7.04.81-.64,8.03-1.04,5.07-2.4h0Zm2.68,7.19c-4.86.29-18.44,2.54-15.59,9.54,1.73,1.2,8.57-3.5,11.39-3.87,2.77-1.03,5.95-1.76,8.73-2.16-.06-1.13,0,0,.72-.09.33-.02.29-.56-.04-.52-.71-.98-.54-1.1-.75-1.09.45-.16-.21-.75-.72-1.25.42,1.04.23,1.38.61,1.28-.12.53.69,1.47-.62,1.21-6.25.92-12.27,3.08-17.95,5.79-5.36-3.29,11.92-8.31,14.63-7.98.96-.11,2-.24,2.93-.21.68.71,0,0,.27,0,.07,0,.09-.06.13-.1-.92-.85-2.52-.46-3.72-.55h0Zm3.72.55c.2-.04.08-.3-.09-.31.09.16.03.17.09.31h0Zm2.98,8.52c-.59.11-4.48-.25-3.37.66-.17.41-.1.41-.16.65l.5-.69c.16-.09,1.02.03,1.24-.01,2.47-.16,4.42.88,3.87,3.63-1.65.42-3.57-.24-5.25.04-.32.02-.93.35-.95.03-.07-1.24,0,0-.95.37-.1,0-.12.17,0,.16,2.35.79,5.29,1.31,7.76.78,2.16-1.61.05-6.08-2.7-5.61h0Zm-3.53,1.31c-.57.76-1.21,1.63-.68,1.35.7-.37.45-.45.68-1.35Zm-3.68-1.36c-4.34.72-14.53,3.31-12.5,9.34.58,2.24,2.6,1.03,3.98.35,2.38-.95,6.13-2.47,8.33-3.72,5.8-3.17-9.88,3.11-10.79,3.41-2.36-4.26,5.98-6.25,8.72-7.63,1.62-.64,3.8-.49,5.2-1.34-.67-.58-2.03-.39-2.94-.41Z"/>
        <path class="cls-11" d="m161.97,542.92c-.77.66,2.88,4.47,3.47,5.29.32-.48-.52-1.38-.77-1.87-.32-.19-2.11-3.96-2.71-3.43h0Zm-4.33-6.68c-1.54-.32.52,1.47.77,1.72.27.28-.57-.57-.92-.75.15.46,1.21,1.14,1.58,1.67.08.06.35.24.28.16-.7-.79-.01.01.27.15.12.1.31-.07.18-.19-.29-.37-.28-.39-.38-.54.14.15.41.51.1.03-.43-.44-.89-1.8-1.35-1.91.5.84,0,0-.53-.32h0Zm-13.03,4.08c-1.12.1.12,1.31.36,1.7.07.11-.13-.16-.24-.29,1.46,2.3,1.91,1.53.81-.08-.22-.32.39.69.64.99.04-.48-.65-1.66-.93-1.92.36.9-.23-.48-.64-.41h0Zm3.9,7.76c.16.92,1.12,2.21,1.42,3.14-.22-.45-.24-.49-.19-.38.14.18.24.76.51.75.42-.02-.75-1.72-.72-1.84-.26-.47.54.93.87,1.36.06-.13-.17-.68-.25-.91-.26-.64-.72-1.57-1.21-1.94.47,1.22-.06-.35-.43-.17h0Zm.07.46c.07.21.42.8.56,1.09-.06-.09-.36-.73-.56-1.09Z"/>
      </g>
    </g>
  </g>
</svg>