<svg xmlns="http://www.w3.org/2000/svg" width="198" height="220" fill="none"><style><![CDATA[.B{fill:#070d1c}]]></style><g clip-path="url(#E)"><g fill="#f5e8d6"><path d="M121.326 142.354l5.919-.133 6.21-.334s-1.332 5.671.261 14.672 3.606 11.849 6.113 21.331 3.565 16.185 3.565 16.185 2.415 3.414 5.309 3.609 6.265-2.831 6.265-2.831-1.432-5.104-2.152-10.65-.728-11.533-.728-11.533l9.863 19.897s1.512 2.295 6.312.914c2.651-.763 3.927-.663 4.381-1.381.902-1.427-1.142-4.545-1.142-4.545s-7.1-12.784-10.411-26.535c-2.624-10.897-5.704-27.695-5.704-27.695s-1.687-3.429-3.901-6.408c-1.754-2.359-3.966-4.306-5.042-4.958-3.754-2.274-13.026-4.199-13.026-4.199s-7.999.527-10.282 9.361c-1.711 6.622-1.81 15.233-1.81 15.233zm-81.74-55.295l15.787 4.077 3.475 18.992-6.106 17.152-.397 7.707s1.418 4.201.189 4.197l-21.069-.124 2.344-3.867s8.151-2.29 9.13-4.471c1.962-4.371 2.326-21.404 2.326-21.404s-2.057 2.612-5.026 7.603-6.85 12.359-6.85 12.359.563 4.854-.17 7.366-2.76 2.684-2.76 2.684l-28.921-.648s-2.085-2.168 1.204-3.42 6.078-.333 11.954-1.59 9.651-3.387 9.651-3.387 3.882-15.338 7.134-23.991 4.869-10.385 4.869-10.385l3.235-8.849zm43.355-24.834s-6.369-8.185-7.294-9.848c-.271-.488-1.59-.209-1.59-.209s-1.227-2.783-1.471-5.8.491-6.268.491-6.268a16.36 16.36 0 0 0 3.864 1.284c2.297.432 4.967.351 5.382-.234.461-.652.977-4.863.977-4.863l-.503-.86.711-1.067-.965-3.452s2.679-1.33 2.355-2.349c-.078-.245-.175-.936-.175-.936s-.649-.515-.966-1.254c-.407-.95-.862-2.643-1.154-3.654-.21-.731.585-2.169.34-4.346s-1.32-4.361-1.32-4.361l-19.114 8.279-7.534 16.684s1.201 2.312 1.24 4.471-1.084 4.164-1.084 4.164l19.6 15.282 6.147.924 2.065-1.584z"/></g><g fill="#e3caba"><path d="M133.246 142.041l-11.92-.082 1.708-7.756s3.311 1.689 7.717 2.97 8.158 1.403 8.158 1.403-1.125 7.561-.303 17.163 3.589 21.242 3.589 21.242l4.504 19.936s-.956-1.095-1.821-1.749-1.638-.866-1.638-.866-1.371-7.745-3.459-15.687-4.895-16.079-4.895-16.079l-1.632-11.046-.008-9.449zm19.438 22.076l9.445 21.853 4.075 7.964s-1.255.196-2.311-.068-1.911-.989-1.911-.989l-9.17-18.6-.128-10.16zM45.15 109.931s.475 6.697-.357 13.123-2.872 11.149-2.872 11.149l-5.82 4.772 16.736-.117.233-1.676 5.371-28.143s-2.004-14.135-3.503-17.19c-.254-.517-4.376 6.093-4.376 6.093l-5.413 11.989zm20.831-78.413s-.622 4.824 1.042 8.235 5.496 5.69 5.496 5.69l.439-3.011 2.164-1.117s-5.176-2.638-7.012-4.842-2.128-4.956-2.128-4.956z"/></g><path opacity=".669" d="M143.32 120.946s3.048 1.568 5.452 4.548 4.162 7.371 4.162 7.371-.391 3.716-4.277 4.05-8.028.167-11.269-2.713-3.508-5.815-3.376-9.153 1.049-4.48 3.376-5.505 5.932 1.402 5.932 1.402z" fill="url(#B)"/><path opacity=".521" d="M30.727 139.071l2.86-3.432-.672-5.107s.435-3.225-2.273-3.113-8.197 3.782-8.197 3.782-3.7 1.868-7.802 2.735c-2.391.505-5.141.335-8.598.772-3.27.413-4.717 1.77-4.717 1.77l-.414 1.749 3.572.482 4.12.742 6.352-.899 8.673.518 7.095.001z" fill="url(#C)"/><path opacity=".521" d="M79.681 25.449l1.68 2.375-.791 3.662-6.126-1.155-.428-4.519 2.108-1.319 3.558.956z" fill="url(#D)"/><path d="M133.562 117.552c.852.926-2.016-.65-4.352 2.176s-2.368 2.529-4.713 8.845-3.074 13.786-3.074 13.786l4.038-.087s-1.321 3.116-1.838 6.52c-.547 3.608.407 7.558-1.547 7.898-5.612.974-7.814-5.132-9.601-5.445-1.648-.288-2.138 7.448-3.213 7.014-1.825-.737-8.544-8.43-8.544-8.43s-5.254-6.726-11.404-8.382c-11.049-2.976-23.032.558-33.09-2.36-5.688-1.65-4.51-8.722-4.658-10.512-.156-1.886 4.288-10.681 5.541-18.591s-.638-14.342-2.582-17.565c-.306-.507-3.671.404-7.587-.908s-7.987-3.4-8.077-4.34c-.317-3.309 2.642-17.579 2.642-17.579l4.01-16.616s2.521-3.169 3.449-3.375c.778-.173 2.838.204 2.838.204s1.531-2.327 4.596-2.693 5.009-.317 7.748 1.849c3.743 2.961 8.015 9.93 10.655 11.67 4.794 3.16 8.161 1.502 8.161 1.502l9.327 10.996c4.42 5.205-.622 10.663-.622 10.663s-.078 2.334-.56 4.275-1.369 3.489-1.369 3.489-.378 6.823.622 11.257c.359 1.589 1.702 1.485 2.794 2.874s1.574 2.686 1.574 2.686.665-.102 2.438 1.737c1.089 1.129 1.489 3.083 1.489 3.083s4.687.206 7.893.608c3.595.451 3.892.203 7.077.859s3.493 1.373 6.374 1.559 3.362.226 6.753.559 5.96-.153 6.811.774z" fill="#c46b57"/><g fill="#a05b52"><path d="M64.229 70.414s-1.648 13.239-1.898 22.03.797 5.628.734 11.221-.314 7.29-1.521 13.032-3.182 7.435-1.388 10.898c1.712 3.304 20.31 5.7 20.31 5.7s13.643 1.442 23.776 4.518 16.755 7.785 16.755 7.785l.65-3.372 3.691.175s-1.629 4.546-1.718 6.581c-.128 2.924-.084 6.796-1.167 7.419-1.905 1.096-5.242-.7-5.242-.7l-4.936-4.572s-1.413 1.873-1.829 3.784c-.394 1.81-.79 3.666-1.339 3.365-2.835-1.555-9.794-10.121-9.794-10.121s-4.461-5.052-9.357-6.566c-7.587-2.346-21.415-1.316-21.415-1.316s-9.211.901-13.567-1.7-3.549-9.018-3.549-9.018.723-3.477 2.075-7.622c.982-3.011 2.505-6.307 3.311-9.209.69-2.482.625-10.119.032-14.115-.391-2.634-2.267-6.233-2.267-6.233s3.786-6.425 5.706-12.295c1.864-5.701 3.947-9.668 3.947-9.668zM97.2 110.49s1.303.717-1.347 1.685-5.96.995-9.252 2.187-3.922 2.318-3.922 2.318l4.802-1.545 4.857-1.268 4.311-.642 1.905-.064-.508-1.59-.847-1.081zm-3.263-32.491s-1.825 4.664-5.956 5.888-5.592.832-10.569-.99-8.943-6.221-8.943-6.221 3.415 8.06 8.308 10.382 11.204-2.184 11.204-2.184l3.786-.956 1.723-2.883.447-3.036z"/></g><g fill="#e0bd6f"><path d="M79.52 41.641s-1.046 3.651-.618 7.069 1.713 5.931 2.33 6.604c.626.683 3.043.399 3.043.399s-2.491 1.322-3.121.849c-1.524-1.146-3.771-4.325-5.373-8.368-1.058-2.67-1.323-4.927-1.135-6.205.024-.167.338-.418.355-.548.05-.383-.307-.648-.307-.648a19.22 19.22 0 0 0 2.343.618c1.279.249 2.483.232 2.483.232zm3.977-17.052s1.904-5.585 1.228-9.151c-.451-2.379-2.544-7.881-8.053-11.168S67.58 1.63 65.047 1.667c-2.619.038-8.937 1.886-8.937 1.886l-.181-1.509S53.169.329 50.665.509s-4.752 2.255-4.752 2.255-3.915 3.211-4.947 6.469-.797 1.701-.747 8.05.936 9.777.947 17.349c.007 5.247-.838 8.904-1.062 9.709-.34 1.217-1.698 2.507-2.788 3.263-.879.609 1.014.66 2.191.518s2.52-1.084 2.52-1.084-1.464 4.115-1.573 6.48.976 3.492 1.136 2.981c.123-.392.195-1.753.491-2.76s3.903-1.336 3.903-1.336 2.419-2.677 2.917-2.767c.877-.159 2.926.132 2.926.132s-.777-11.631.299-12.545c.313-.266 1.846 1.379 2.938 2.043s1.428.613 1.428.613l2.203-4.29 1.061.613.49-2.819 1.469-.123s.311-1.921.861-3.166 1.339-1.816 1.339-1.816-1.308-1.844-1.311-3.324.23-2.138 1.299-2.594 2.111-.265 2.549.368c.739 1.068.476 2.763 1.04 3.465.465.578 1.274-.095 1.274-.095s-.632 2.397.366 4.755 2.174 1.716 2.494 4.626-1.895 6.724-1.895 6.724 3.842-2.946 5.921-5.431c1.67-1.996 1.574-2.834 1.552-5.387s-1.007-2.967-1.327-4.397c-.557-2.481-.394-3.112.666-5.754s2.844-3.623 3.575-4.816c.549-.897 1.165-2.718 1.165-2.718s1.19 1.83 1.591 4.113-.377 3.481-.268 4.801c.077.927.894 1.978.894 1.978z"/></g><g fill="#b69c65"><path d="M75.744 21.753s-2.186 1.981-3.702 2.734-2.364.276-2.364.276 1.988-1.89 1.472-2.355c-.289-.261-2.046.907-2.046.907l.823-5.847c.196-2.515-.037-4.212-.037-4.212s.844 2.126.951 4.288-.523 4.36-.523 4.36l1.778-1.792.445 2.394-.634 1.177 1.965-1.03 1.888-1.912-.016 1.012zM49.743 7.877l-2.573 3.572s-1.818 7.157-.711 13.462 1.342 7.512 4.457 11.08l1.099 1.155-.79 4.17.48 8.466-2.699.048c-.474.362-1.244.532-1.735.949-.891.756-1.406 1.706-1.406 1.706l-2.048.015s2.661-9.607 2.977-12.445-1.385-7.83-3.112-13.489c-1.877-6.152-.237-16.729 1.111-18.475s3.022-4.019 4.761-3.036c.716.405.19 2.822.19 2.822z"/></g><path d="M143.009 194.527c-2.678 1.609-5.527 10.449-5.527 10.449s3.503 3.611 11.379 7.143 20.128 6.985 20.128 6.985 4.79.224 5.845-1.339-1.625-4.911-1.625-4.911l-5.718-5.273s.423-.559-.264-.773c-1.021-.319-1.559-1.167-1.559-1.167l25.407-1.866s3.376-.516 4.845-1.631 1.029-2.829 1.029-2.829l-3.814-2.288-4.981-1.257s-.687-.754-1.285-.838-1.105.505-1.105.505l-1.987-.698s-.464-.684-.995-.872-1.129.116-1.129.116l-2.406-.661s.347-.822 0-1.096-1.389 0-1.389 0l-1.514-.553-2.513-1.768-1.889-3.087-.694.979 1.421 2.191.199 2.112s-3.934 1.668-6.798 1.904-4.289-1.244-4.289-1.244l-.531 8.635-2.389-2.407-1.597-5.345c-.192-.682-3.977 2.102-3.977 2.102l.15.804s-4.302 1.025-5.827 1.1c-.911.044-3.732-3.645-4.601-3.122z" fill="#fff7f7"/><g fill="#bfc4c6"><path opacity=".69" d="M145.722 196.507s-1.866 2.134-3.247 4.863c-.684 1.35-.52 3.451-.66 4.796-.142 1.372-.581 1.975-.581 1.975l-3.845-2.871 2.491-6.642s1.575-3.545 3.036-4.075 2.806 1.954 2.806 1.954z"/><path opacity=".692" d="M161.621 192.689l2.096 1.177 2.081.147s-.445 2.943-.194 5.827c.128 1.463.794 2.973 1.065 4.044.264 1.041.134 1.665.134 1.665l-1.227.094-1.178-1.067-2.984-3.146.207-8.741z"/></g><path d="M79.986 23.737s-.122.669-.835.702-2.019-.571-2.019-.571l-.681-2.78 1.649-.026 1.545.341.34 2.334z" fill="#fff7f7"/><mask id="A" maskUnits="userSpaceOnUse" x="-2" y="-3" width="203" height="225"><path d="M200.775-2.732H-1.82v224.099h202.595V-2.732z" fill="#fff"/></mask><g mask="url(#A)" class="B"><path d="M133.27 117.68c-.431-.078-.907.068-1.315.193-.661.204-1.254.478-1.817.881-2.152 1.538-3.588 3.964-4.682 6.324-.811 1.749-1.431 3.581-1.985 5.426-.789 2.63-1.362 5.323-1.833 8.026-.498 2.853-.835 5.717-1.039 8.605l-.151 2.852.009 1.442.033 2.349c.01.155.147.27.302.26s.269-.139.259-.294l-.092-1.987.084-2.122.569-7.054c.526-4.352 1.277-8.705 2.58-12.899.76-2.446 1.718-4.878 3.082-7.053.583-.93 1.276-1.893 2.093-2.634.707-.64 1.562-1.183 2.445-1.543.597-.243 1.222-.297 1.809-.57.027-.002.044-.024.042-.051s-.024-.043-.05-.042c-.113-.035-.226-.087-.343-.109z"/><path d="M125.372 142.421c-.018-.007-.034-.001-.042.017-.037.027-.079.048-.109.084-.045.053-.104.218-.125.276l-.201.554-.662 2.147a27.92 27.92 0 0 0-.921 5.284l-.193 2.851-.184 1.502a2.17 2.17 0 0 1-.168.536c-.063.124-.136.291-.251.378-.342.257-.703.117-.963-.185-.146-.17-.233-.373-.335-.57-.136-.263-.269-.566-.243-.872.009-.099.038-.189.059-.285-.028-.18-.198-.306-.377-.277s-.296.198-.268.377l.151.269c.201.436.221.922.485 1.333.319.495 1.085 1.083 1.667.604.37-.304.468-.797.553-1.241.255-1.336.248-2.715.335-4.068a28.1 28.1 0 0 1 .511-3.866c.232-1.139.518-2.281.871-3.389l.284-.838c.074-.201.181-.363.151-.579.008-.018-.007-.034-.025-.042z"/><path d="M136.25 141.155c-.619.01-1.216.192-1.826.285-1.096.167-2.225.275-3.333.327l-6.088.126-1.834-.092-.905-.017-.611.042c-.197-.002-.358.155-.36.352s.155.359.352.361c.203.008.4.043.603.058.298.022.614.014.913.009l1.834-.05 5.535-.151 1.223-.151c1.026-.12 2.025-.357 3.031-.579.514-.113 1.005-.218 1.474-.461.016-.004.029-.019.025-.034s-.018-.029-.033-.025zm-52.473-4.252c-.07.028-.135.077-.168.152a.29.29 0 0 0 .151.385c.413.182.851.302 1.281.436l2.604.713 6.172 1.98 3.132 1.325c2.689 1.294 5.21 2.902 7.755 4.453l2.612 1.543 1.474.831c.471.28.93.592 1.374.914 1.575 1.141 3.02 2.456 4.455 3.766l1.633 1.576c.336.337.649.671 1.047.94 1.245.842 2.849 1.043 4.313.855.286-.036.593-.066.871-.151.042-.013.063-.057.05-.1s-.058-.064-.101-.051c-.559.183-1.217.171-1.792.151-.795-.027-1.599-.154-2.336-.461-.454-.189-.885-.447-1.257-.772-.38-.332-.708-.736-1.063-1.098l-1.717-1.686-3.4-2.927-1.859-1.309-1.993-1.157-2.32-1.426-6.49-3.841c-1.362-.71-2.764-1.316-4.195-1.87l-6.197-2.055-2.052-.579c-.59-.16-1.198-.285-1.759-.537-.074-.033-.156-.027-.226 0zm-3.167-.989c-.094-.028-.19.023-.218.117s.024.199.117.227c1.084.407.594.267 1.088.402.248.068-.476-.196-.703-.318-.117-.064.244.095.368.142l.729.293.327.177c-.61-.214-.002.002.36.117.095.055.221.02.276-.075s.019-.213-.075-.269c-1.134-.406-.676-.136-1.13-.411-.239-.144.542.137.821.135.141-.002-.259-.094-.393-.135l-.804-.201c-.131-.027-.518-.117-.394-.067.625.252-.003-.002-.368-.134z"/><path d="M76.105 139.847l-3.768.084-2.127.084a.281.281 0 1 0 .025.562c1.408.023 2.812-.186 4.221-.193l4.932-.033c2.142.055 4.298.217 6.407.612l2.353.545 2.152.654 1.767.738c.699.331 1.362.734 2.018 1.141l2.688 1.778c.549.392 1.026.899 1.491 1.384l1.65 1.778 5.669 6.424.863.897.536.537c.477.457.991.924 1.549 1.284.206.132.472.287.729.243.548-.095.736-.948.854-1.384l.092-.344.092-.369c.295-1.253.647-2.484 1.198-3.648.222-.47.358-.816.779-1.141.081-.063.097-.186.033-.268s-.178-.097-.26-.034c-.204.161-.315.37-.452.587a7.18 7.18 0 0 0-.619 1.233 24.04 24.04 0 0 0-1.014 3.187l-.084.369-.083.352c-.084.337-.171.701-.343 1.007-.052.092-.122.2-.235.218-.298.048-.798-.381-1.005-.554-.864-.718-1.606-1.595-2.37-2.415l-5.351-6.089-2.178-2.407-1.214-1.132c-.334-.255-.696-.475-1.047-.705l-1.172-.763-2.328-1.392-2.06-1.007c-1.615-.61-3.317-.959-5.016-1.232-3.099-.499-6.236-.615-9.371-.588zm-18.993-30.111c-.053.129-.136.25-.168.386-.029.126.008.257.008.386s-.014.272-.025.403c-.038.452-.114.904-.201 1.35-.117.6-.297 1.195-.477 1.778l-.645 1.946c-1.185 3.238-2.588 6.402-3.517 9.729-.322 1.152-.633 2.326-.795 3.514a18.21 18.21 0 0 0-.134 1.551c-.143 2.809.574 5.705 2.923 7.465.482.361 1.014.62 1.557.872.254.117.501.251.762.352 1.221.475 2.541.694 3.835.847 1.374.163 2.748.215 4.129.277l2.412.084c.344.007.694.033 1.038.017.371-.018.701-.079 1.072-.067.146.001.266-.114.268-.26s-.114-.267-.26-.269c-.371.004-.7-.055-1.072-.084-.173-.013-.346-.005-.519-.008-2.084-.04-4.162-.119-6.231-.377-1.399-.176-2.817-.383-4.171-.789-.582-.174-1.137-.341-1.675-.629-.519-.278-1.025-.612-1.449-1.023-.532-.516-.932-1.171-1.248-1.837-1.134-2.388-.913-5.074-.419-7.598.104-.534.223-1.068.36-1.594a41.68 41.68 0 0 1 .561-1.929c.272-.866.558-1.725.854-2.583l1.239-3.472c.718-1.924 1.425-3.849 1.909-5.846a10.43 10.43 0 0 0 .26-1.594c.015-.176.081-.454.033-.628-.038-.139-.142-.247-.218-.37zm7.93-41.992c-.177-.066-.378.024-.444.201-.189.394-.322.795-.469 1.208l-.578 1.61-1.256 3.506-1.608 4.361-3.065 7.599-2.186 4.344c-.355.607-.745 1.368-1.457 1.602-.446.146-.926.101-1.382.042l-.896-.101-.754-.176c-.056-.014-.119.019-.134.075s.019.111.076.126l.745.235c.199.067.295.138.519.21.426.137.926.175 1.373.117.476-.061.952-.26 1.306-.587.395-.364.678-.878.955-1.333.699-1.15 1.3-2.357 1.876-3.573 1.961-4.144 3.64-8.417 5.276-12.698l1.298-3.497.586-1.602c.15-.409.307-.812.419-1.233.065-.177-.024-.371-.201-.436z"/><path d="M62.981 64.732c-.061.045-.07.14-.025.201.381.73.882 1.374 1.34 2.055a30.29 30.29 0 0 1 1.591 2.675c.286.538.599 1.076.72 1.677.034.092.135.135.226.101s.143-.135.109-.226c-.305-.541-.477-1.147-.737-1.711-.44-.957-.968-1.872-1.533-2.759-.445-.701-.911-1.39-1.499-1.979-.045-.062-.131-.079-.193-.034zM56.022 49.15a5.39 5.39 0 0 0-1.131.126c-.569.123-1.124.318-1.683.478-.217.062-.453.146-.678.168-.761.072-1.523-.214-2.244-.428-.482-.143-1.037-.276-1.516-.05a8.98 8.98 0 0 0-1.792 1.115l-.469.411c-.306.329-.546.711-.796 1.082-.221.328-.465.617-.628.981-.38.85-.571 1.8-.787 2.701l-.804 3.724-1.692 8.312c-.738 3.5-1.504 7-2.068 10.534l-.754 4.713c-.12.863-.244 1.737-.276 2.608l-.042 1.099c-.002.188-.013.396.05.579.119.342.416.595.695.805.46.347 1.012.71 1.599.763.042.008.085-.017.092-.058s-.025-.085-.067-.092c-.152-.044-.291-.111-.435-.176-.447-.202-.881-.454-1.222-.814-.139-.146-.294-.329-.352-.528-.041-.143-.004-.34 0-.47.01-.289.003-.414.025-.704.063-.833.163-1.671.268-2.499.526-4.134 1.445-8.204 2.303-12.278l1.717-8.152 1.39-6.651c.174-.762.338-1.526.569-2.273.109-.351.215-.712.385-1.04.139-.267.348-.482.528-.721.255-.341.503-.663.804-.965.129-.129.248-.266.385-.386.389-.341.852-.613 1.323-.822.137-.061.274-.13.419-.168.306-.08.653.015.947.101.62.182 1.197.529 1.851.596.513.052 1.011-.087 1.499-.227.881-.252 1.744-.634 2.68-.579.764.045 1.46.476 2.127.813.247.125.478.28.745.352.128.035.27.018.402.025.113.043.233-.013.277-.126a.22.22 0 0 0-.126-.285c-.362-.318-.772-.537-1.181-.788-.386-.237-.785-.477-1.214-.629-.356-.126-.739-.176-1.122-.176zm5.311 2.96c-.058-.042-.134-.033-.176.025s-.033.143.025.184l.896.839.536.444a6.48 6.48 0 0 1 1.147 1.351c.033.092.134.143.226.109s.142-.135.109-.226c-.079-.501-.399-.887-.745-1.241-.292-.299-.606-.595-.938-.847s-.716-.434-1.08-.637z"/><path d="M59.197 46.751c-1.266-.077-2.56.116-3.752.52-.459.156-.874.4-1.307.612-.502.247-.992.481-1.44.822-.491.374-.892.846-1.407 1.191-.064.074-.057.187.017.252s.187.057.251-.017c.312-.655.889-1.025 1.474-1.417l1.172-.705c.34-.162.706-.257 1.064-.369.916-.287 1.811-.478 2.772-.52 1.486-.065 3 .185 4.305.931.67.383 1.197.904 1.767 1.417l2.002 1.912 3.567 3.833 1.265 1.527 2.035 2.39c.135.143.359.151.502.017s.151-.36.017-.503c-.89-.81-1.643-1.739-2.454-2.625l-5.2-5.435-1.156-1.107c-.596-.581-1.192-1.175-1.901-1.619-1.089-.681-2.327-1.03-3.593-1.107z"/><path d="M72.462 57.999c-.026.022-.031.058-.009.084l.268.461c.055.107.076.23.134.336.174.316.483.564.729.822.443.465.899.922 1.432 1.283a.18.18 0 0 0 .251-.034c.058-.078.036-.185-.042-.243-.203-.169-.359-.368-.536-.562l-1.181-1.384a1.86 1.86 0 0 0-.243-.235c-.095-.072-.213-.114-.31-.185-.143-.104-.274-.222-.41-.335-.022-.026-.058-.03-.084-.008zM54.641 92.334c-.062.027-.094.097-.067.159l1.39 3.715.285 1.099.846 3.951c.204 1.444.244 2.92.234 4.377l-.151 3.028-.067.78-.042.394c-.027.133-.076.257-.117.386-.011.097.054.19.151.201s.189-.062.201-.159c-.01-.135-.038-.267-.033-.403s.042-.262.059-.394l.151-1.56.109-3.757-.21-2.566c-.15-1.344-.351-2.691-.695-4.001l-.452-1.459-.779-2.223-.653-1.501c-.027-.062-.097-.094-.159-.067z"/><path d="M89.631 91.63a.28.28 0 0 0-.209.034l-.804.428c-.268.16-.492.375-.77.52-.154.08-.428.181-.586.252l-1.172.579-.62.251-.327.092c-.322.117-.621.307-.93.453l-.645.268-1.7.545-2.805.889-2.219.495-1.876.369-1.901.251-1.139.176-1.918.126c-2.115.111-4.236.114-6.348-.076-1.612-.145-3.219-.368-4.79-.763l-1.248-.352-1.214-.352c-.092-.034-.193.017-.226.109s.009.193.1.226c.862.459 1.861.689 2.806.914l3.09.587 2.546.243c.878.066 1.75.065 2.63.059l4.229-.21 1.549-.117 2.303-.352 1.909-.319 1.859-.428 2.554-.621c.814-.244 1.589-.582 2.387-.872.438-.159.912-.243 1.332-.453l.913-.495 1.198-.596.544-.369c.275-.165.584-.257.854-.428.259-.163.496-.381.737-.57.125-.082.157-.252.075-.378-.041-.062-.1-.103-.168-.117zm-.026 5.845c-.059-.009-.116.004-.167.042-.168.085-.348.145-.502.252s-.284.262-.436.377c-.31.235-.663.429-1.005.612-.455.243-.932.437-1.399.654l-1.457.679-1.239.487-1.943.746c-.91.305-1.84.522-2.772.746l-2.889.638-2.588.352-2.613.277a39.62 39.62 0 0 1-5.502-.051l-2.454-.26a24.89 24.89 0 0 1-2.646-.561l-2.454-.73c-.046-.018-.099.004-.117.05s.005.099.05.118l.553.318c.49.23 1.032.37 1.549.52 1.215.355 2.449.587 3.693.806 2.293.402 4.664.437 6.984.335l2.646-.151c1.134-.101 2.255-.304 3.375-.503l2.571-.503 3.141-.915c1.524-.454 3.033-.997 4.438-1.752.553-.298 1.082-.647 1.608-.99l.762-.486c.17-.099.361-.169.519-.285s.269-.272.402-.411c.103-.077.127-.215.05-.319a.24.24 0 0 0-.159-.092zm-35.551-5.141c-.092-.034-.192.009-.226.101-.255.649-.626 1.254-1.005 1.837l-1.591 2.247-.678.897c-.102.129-.259.278-.318.436-.037.099-.038.233-.059.335-.038.191-.088.375-.142.562a15.63 15.63 0 0 1-.628 1.744L48 103.412l-3.241 5.796-3.911 6.533-1.75 2.877-2.697 4.302-2.286 3.892-.737 1.442c-.212.444-.409.874-.469 1.367-.064.528-.013 1.069.05 1.594l.276 2.256c.071 1.502-.343 3-1.273 4.193-.162.208-.354.382-.536.571-.276.286-.562.587-.904.797a.321.321 0 0 0 .243.595c1.848-.396 2.836-2.387 3.274-4.068a6.91 6.91 0 0 0 .193-1.107 7.53 7.53 0 0 0-.008-1.358 13.46 13.46 0 0 0-.226-1.493c-.123-.614-.285-1.24-.218-1.871.042-.394.218-.753.385-1.107l.452-.897 3.618-6.19 1.574-2.474c2.251-3.64 4.467-7.307 6.582-11.029.799-1.405 1.605-2.81 2.303-4.269.384-.802.729-1.633 1.064-2.457a22.59 22.59 0 0 0 .779-2.189c.079-.273.158-.542.209-.822a3.3 3.3 0 0 0 .034-.26l.109-.151.285-.394.854-1.191a31.51 31.51 0 0 0 1.34-2.114c.303-.523.593-1.056.795-1.627.034-.092-.017-.192-.109-.226zM26.193 134.06c-1.133-.049-2.249.154-3.341.436a11.28 11.28 0 0 0-1.399.461l-.921.386-1.038.512c-.508.204-1.04.362-1.574.478l-.93.168-.586.033c-.178.021-.35.065-.528.092-.226.035-.459.045-.687.068-.272.026-.751.049-.93.31-.094.137-.079.295-.092.453l-.034.629c.003.124.013.233.05.352.187.59.785.606 1.306.696l1.767.218 4.958.227 3.283-.084c.562-.041 1.16-.078 1.7-.252.082-.026.268-.103.352-.134.332-.122.59-.252.72-.604.07-.206-.037-.425-.243-.495s-.433.037-.503.243c-.009.117-.568.217-.703.244-.648.125-1.31.2-1.968.243-2.613.17-5.24.108-7.847-.126l-1.667-.176-.444-.059c-.016-.002-.091-.011-.101-.033-.116-.294.017-.651.025-.956l.268-.034.611-.084.796-.058c.2-.028.388-.093.586-.135l.636-.117c.678-.149 1.352-.322 1.985-.612.509-.234.972-.551 1.474-.797.564-.277 1.183-.499 1.784-.679.435-.131.891-.219 1.34-.286 1.126-.167 2.64-.194 3.693.344.398.204.722.503 1.03.822.042.073.137.093.209.051s.101-.138.059-.21c-.03-.093-.063-.199-.109-.285-.173-.324-.521-.565-.838-.73-.654-.341-1.421-.488-2.152-.52z"/><path d="M39.173 87.471c-.076-.023-.154.025-.176.101l-1.222 3.531-2.211 5.317-4.472 10.014-1.792 4.504c-1.277 3.639-2.108 7.41-3.04 11.146-.618 2.476-1.28 4.944-2.236 7.314-.09.208.01.446.218.536s.446-.001.536-.209c.915-1.976 1.421-4.098 1.935-6.207 1.008-4.133 1.731-8.364 3.149-12.387.654-1.858 1.409-3.68 2.177-5.494l2.964-6.734c1.072-2.374 2.107-4.764 2.998-7.213.483-1.327.935-2.661 1.273-4.034.022-.076-.025-.162-.1-.184z"/><path d="M23.932 130.051a.26.26 0 0 0-.201.025l-2.538 1.283c-1.295.64-2.627 1.228-3.995 1.695-.855.291-1.72.462-2.605.637l-3.057.562-5.661.998-1.507.293c-.391.081-.78.152-1.114.386-.139.098-.264.222-.352.369-.64 1.074.701 2.07 1.549 2.416.807.328 1.685.425 2.546.494 1.081.088 2.196.098 3.274-.033.558-.068 1.091-.261 1.65-.302.092-.033.133-.134.101-.227s-.134-.141-.226-.108c-.348.249-.632.275-1.047.327l-1.03.083c-.978.04-1.958-.018-2.931-.117-.693-.07-1.395-.157-2.052-.402-.181-.068-.358-.152-.528-.244-.531-.288-1.482-1.06-.955-1.744a.94.94 0 0 1 .209-.202c.381-.263.883-.304 1.323-.385l1.164-.202 4.313-.712 4.137-.705 2.362-.47c1.626-.442 3.181-1.138 4.698-1.862.866-.413 1.747-.81 2.537-1.358a.27.27 0 0 0 .101-.369c-.037-.065-.101-.108-.167-.126z"/><path d="M12.225 134.034c-.128-.02-.276.027-.402.042l-.502.067c-.263.035-.531.01-.796.017l-.904.05-3.107.244-2.11.226c-.485.089-.948.242-1.415.394-.579.189-1.195.391-1.675.78-.532.431-1.095 1.232-.737 1.938.086.17.248.355.394.478a1.55 1.55 0 0 0 .385.251c.35.145.716.193 1.089.244.738.1 1.483.073 2.219-.042a.14.14 0 0 0 .151-.135c.004-.081-.053-.155-.134-.159-.221-.059-.445-.095-.67-.134l-.93-.159-.544-.051a3.69 3.69 0 0 1-.946-.251c-.126-.052-.278-.11-.377-.21-.566-.571.279-1.204.703-1.493l.285-.193c.06-.035.282-.148.343-.176.625-.286 1.291-.392 1.96-.528l2.052-.361c.941-.113 1.901-.124 2.847-.168l1.147-.067.804-.084.67-.042c.076-.007.196-.014.268-.05.109-.055.127-.111.193-.21.026-.005.048-.032.042-.058s-.033-.04-.059-.034c-.084-.054-.141-.109-.243-.126zm32.927-24.255c-.083-.001-.15.068-.151.151l-.033 2.65-.109 3.162c-.091 3.334-.229 6.688-.896 9.964-.291 1.428-.682 2.847-1.306 4.168-.301.637-.658 1.222-1.181 1.703-.929.856-2.199 1.322-3.366 1.745-1.397.506-2.817.956-4.229 1.417-.168.056-.257.234-.201.402s.234.258.402.202c1.41-.487 2.86-.85 4.271-1.334 1.175-.403 2.355-.91 3.3-1.736.599-.524 1.02-1.147 1.407-1.837.928-1.657 1.289-3.62 1.566-5.476.205-1.375.331-2.757.427-4.143a99.22 99.22 0 0 0 .235-5.586v-3.17c-.012-.712-.02-1.419.017-2.131 0-.083-.068-.15-.151-.151zm7.429 26.554a.18.18 0 0 0-.092.235 3.82 3.82 0 0 1 .419.981l.126.545c.038.206.095.598-.084.763-.11.102-.382.073-.519.084l-1.407.051a78.67 78.67 0 0 1-3.4-.092l-.879-.043c-.135-.006-.34-.02-.477 0-.144.022-.254.072-.385.126a.16.16 0 0 0-.167.143c-.007.083.059.152.142.159.134.084.212.149.369.193.241.068.523.058.77.067l.93.017 3.735-.126.561-.033c.364-.029.881-.007 1.097-.361.158-.259.116-.589.067-.872-.105-.607-.385-1.169-.569-1.753-.04-.089-.145-.124-.234-.084zM91.69 83.637c-.269-.004-.49.209-.494.478-.002.821-.102 1.64-.234 2.449-.121.741-.274 1.458-.536 2.164-.204.548-.454 1.074-.72 1.594-.194.377-.42.76-.528 1.174-.117.449-.041.942-.05 1.4l-.067 2.063c-.063 2.156-.248 4.369.26 6.492.127.529.333 1.105.636 1.56.14.21.384.361.561.537l.829.863 2.797 3.263c.378.507.769 1.05.98 1.652.051.145.219.488.067.621-.311.271-.976.325-1.365.369l-2.512.184c-2.779.082-5.568-.03-8.341.218-.787.071-1.589.161-2.353.369-.261.072-.576.15-.812.285-.123.071-.298.24-.402.336-.028.014-.039.048-.025.076s.048.039.075.025l.494-.084 1.064-.294a14.5 14.5 0 0 1 1.633-.251c2.881-.29 5.788-.069 8.676-.084 1.114-.006 2.267.016 3.35-.285.331-.093.754-.186.98-.47.462-.581-.02-1.455-.318-1.988l-.243-.411-.276-.428c-.881-1.275-1.896-2.452-2.948-3.589l-.93-.998-.226-.277c-.03-.034-.055-.055-.084-.084-.036-.077-.088-.141-.126-.218a3.33 3.33 0 0 1-.268-.746c-.338-1.495-.353-3.028-.327-4.554l-.008-1.015.059-1.56.059-2.072v-.495c.002-.069.015-.109.033-.176.12-.426.389-.821.595-1.208a12.72 12.72 0 0 0 .67-1.46c.285-.75.525-1.539.662-2.331.148-.861.168-1.73.193-2.6.004-.269-.209-.491-.477-.495zM77.781 112.43c-.514.258-1.073.395-1.574.688a5.72 5.72 0 0 0-1.532 1.317c-.16.197-.305.414-.452.62-.047.058-.033.138.025.185s.138.041.184-.017c.678-.744 1.392-1.476 2.261-1.996.374-.224.75-.418 1.189-.453.094-.026.144-.124.117-.218a.18.18 0 0 0-.218-.126z"/><path d="M95.65 108.731c-.085-.061-.207-.042-.268.042s-.043.199.042.261c.257.176.475.408.712.612.712.612 1.384 1.333 1.834 2.163.125.232.262.474.352.722.086.237.087.434.218.654 0 .024.017.042.042.042s.05-.018.05-.042c.031-.059.077-.111.092-.176.018-.076-.028-.307-.042-.378a3.38 3.38 0 0 0-.352-1.015c-.513-.921-1.264-1.812-2.085-2.473-.191-.154-.401-.263-.595-.412z"/><path d="M100.14 112.975c-1.566-.011-3.131.009-4.689.176-1.388.15-2.75.422-4.112.722-1.38.303-2.745.696-4.053 1.233-.033.011-.053.042-.042.075s.051.054.084.042l5.092-1.249c1.53-.236 3.078-.357 4.623-.454l2.579-.1 3.634.142 4.69.453 1.558.285 3.718.63 3.685.754c4.11.822 8.221 1.648 12.411 1.921.385.025.781.032 1.164.084l1.005.134c.358.041.703.098 1.063.126.231.018.471.054.695 0 .12-.029.229-.083.344-.126.11.016.21-.066.226-.176s-.057-.21-.168-.226c-.1-.074-.192-.158-.301-.219-.208-.114-.46-.14-.695-.176-.369-.055-.717-.068-1.089-.092-.534-.034-1.071-.029-1.608-.05-2.491-.1-4.954-.416-7.411-.831s-4.905-.933-7.361-1.375c-.62-.111-1.239-.199-1.86-.302-1.244-.207-2.482-.444-3.734-.604-.701-.09-1.409-.147-2.111-.235-2.44-.305-4.874-.543-7.336-.562z"/><path d="M134.233 117.647c-.199-.012-.403.005-.603.008-.058-.008-.109.034-.117.092s.034.109.092.118l.561.184c.278.069.572.088.854.134l1.926.361c2.528.573 5.137 1.544 7.227 3.103 1.018.759 1.949 1.648 2.856 2.533 2.479 2.419 4.741 5.382 5.728 8.756.26.887.37 1.816.453 2.734.108 1.208.128 2.428.125 3.64-.009 3.441-.237 6.874-.427 10.308l-.536 10.24-.209 7.859c-.07 3.626-.098 7.261.042 10.886.127 3.32.264 6.641.82 9.922.186 1.096.394 2.202.704 3.271a21.4 21.4 0 0 0 .98 2.683c.038.118.159.181.276.143s.189-.168.151-.285c-.359-1.681-.705-3.369-.98-5.066-.446-2.754-.736-5.527-.913-8.311-.11-1.72-.143-3.444-.167-5.166-.04-2.802-.015-5.603.025-8.404l.268-10.954.519-13.092c.032-1.632.038-3.258-.017-4.889-.051-1.521-.145-3.059-.435-4.554-.199-1.024-.547-1.991-.963-2.944-.529-1.209-1.145-2.373-1.902-3.456-1.223-1.75-2.733-3.263-4.329-4.671-.475-.42-.938-.852-1.432-1.25-.741-.597-1.55-1.107-2.395-1.543-1.453-.751-2.999-1.265-4.581-1.661a42.47 42.47 0 0 0-2.739-.587c-.282-.051-.575-.126-.862-.142zm-.873 24.137c-.097-.008-.184.062-.192.159l-.243 7.272c.04 1.328.18 2.656.334 3.975l.704 4.898c.398 2.279.976 4.519 1.574 6.752l2.044 7.095 1.566 5.074 1.574 5.728.436 1.879.661 2.994.938 6.315a.51.51 0 0 0 .561.454.52.52 0 0 0 .453-.571l-.486-3.539-.586-2.835-.662-3.036-2.202-7.599-1.6-5.066-2.336-7.539-1.433-5.93-.619-3.472c-.258-1.858-.377-3.722-.469-5.594-.118-2.41-.145-4.821.142-7.221.008-.098-.061-.185-.159-.193z"/><path d="M152.798 174.635c-.013.007-.016.028-.008.042-.015.164-.069.324-.042.486.022.135.119.249.184.369l.201.361.385.721 1.784 3.296 4.246 8.245 2.311 4.445c.016.031.053.049.084.033s.04-.052.025-.084l-2.135-4.537-4.238-8.722-1.717-3.338-.393-.722c-.067-.119-.108-.269-.21-.36-.122-.111-.289-.151-.435-.227-.007-.013-.029-.015-.042-.008zm-9.512-54.256a.19.19 0 0 0-.218.159c-.015.106.063.203.168.219 1.567.084 2.839.957 4.028 1.92a19.18 19.18 0 0 1 2.035 1.904c1.322 1.436 2.438 3.03 3.526 4.646.735 1.093 1.51 2.209 1.985 3.447.212.555.328 1.133.46 1.711l.519 2.483.963 5.091 1.533 8.101c.746 3.817 1.499 7.633 2.479 11.398.346 1.332.787 2.633 1.181 3.951a218.49 218.49 0 0 0 2.562 8.059c.602 1.765 1.242 3.511 1.935 5.242.294.736.568 1.481.887 2.206.513 1.162 1.094 2.298 1.684 3.422.469.894.899 1.806 1.398 2.684.115.202.208.414.344.604.146.205.332.383.502.57.078.158.27.221.427.143a.32.32 0 0 0 .142-.428c-.046-.25-.071-.505-.15-.747-.074-.225-.193-.431-.294-.645-.288-.616-.63-1.195-.962-1.787a56.73 56.73 0 0 1-1.625-3.137c-.518-1.068-1.033-2.142-1.491-3.237-1.012-2.419-1.876-4.908-2.696-7.397-.691-2.094-1.341-4.205-1.952-6.324-.242-.842-.445-1.694-.67-2.541l-.879-3.33c-1.012-4.118-1.861-8.277-2.68-12.438-.672-3.417-1.376-6.823-2.202-10.207-.375-1.535-.617-3.117-1.34-4.537-.849-1.665-2.029-3.14-3.166-4.613-1.085-1.406-2.216-2.77-3.525-3.975-.667-.614-1.378-1.162-2.178-1.594-.851-.459-1.791-.794-2.73-1.023zm-67.9-68.344c-.088.053-.12.172-.067.26l1.248 2.03.762 1.082.762 1.158 2.152 3.044c1.532 2.047 3.204 3.988 4.941 5.863l2.981 3.086c1.192 1.288 2.308 2.655 3.266 4.126.825 1.266 1.537 2.64 1.892 4.118.368 1.528.315 3.163-.352 4.604-.221.478-.518.919-.829 1.342l-.385.503c-.046.058-.115.108-.142.176-.073.178-.03.428-.017.604-.051.056-.047.142.008.193s.142.047.193-.008c.212-.008.429.022.62-.101.069-.044.107-.122.159-.185l.302-.377c.393-.547.696-1.155.946-1.778.256-.635.442-1.298.519-1.979.219-1.931-.343-3.829-1.206-5.535-1.305-2.579-3.192-4.822-5.167-6.911l-3.165-3.212-2.688-3.002-1.717-2.13-2.018-2.642-.804-1.132-.511-.847-1.432-2.281c-.052-.088-.163-.119-.251-.067z"/><path d="M69.89 50.316c-.068.039-.097.133-.059.201.01.644.764 1.018 1.273 1.233.968.409 2.068.48 3.107.503.403.009.815.058 1.214-.017.049-.001.085-.043.084-.092s-.043-.086-.092-.084c-.394-.055-.793-.032-1.189-.075-.894-.097-1.796-.287-2.63-.629-.259-.106-.514-.219-.745-.377-.271-.186-.48-.447-.771-.604-.039-.068-.124-.097-.193-.059z"/><path d="M76.172 41.182c-.219.001-.445-.019-.662.017-.12.02-.234.061-.352.092-.497.131-.977.286-1.44.512-.348.169-.705.381-.921.713-.171.261-.159.516-.176.822l-.059 1.476c-.044 1.608.028 3.218.444 4.781.227.855.567 1.666.921 2.474.029.069.107.105.176.075s.105-.116.076-.185c-.526-1.255-.905-2.587-1.064-3.942-.124-1.055-.107-2.129-.042-3.187l.109-1.451c.012-.165-.016-.387.092-.537.225-.31.68-.481 1.022-.612l1.03-.352.343-.101c.203-.082.389-.207.578-.319.076-.021.122-.108.101-.184s-.1-.114-.176-.092z"/><path d="M82.663 35.344c-.039.035-.043.095-.008.134.217.317.287.768.368 1.132l.084.394.017.101c.003.018-.001.074.008.059l-.067.864c-.069.745-.15 1.494-.36 2.214-.074.254-.16.561-.352.755-.127.128-.402.172-.569.21-.27.061-.537.078-.812.092l-.963.059c-.586.023-1.165-.001-1.751-.017-.309-.008-.622.002-.929-.025-.749-.066-1.506-.257-2.228-.461a9.77 9.77 0 0 1-1.516-.57l-.636-.319c-.104-.072-.247-.046-.318.058a.23.23 0 0 0 .059.319c.208.156.407.321.636.444 1.218.654 2.616.785 3.961.948l.946.126c1.108.088 2.245.022 3.325-.235.285-.068.593-.117.863-.235.49-.215.656-1.145.737-1.61l.176-1.275.075-1.35c.004-.132-.056-.296-.084-.42l-.142-.587c-.082-.278-.166-.593-.385-.797-.035-.039-.095-.043-.134-.008z"/><path d="M79.455 41.51c-.066-.015-.127.018-.142.084-.129.618-.38 1.207-.494 1.828-.101.55-.099 1.12-.109 1.677l-.017 1.317c.005 2.228.202 4.621 1.038 6.71a6.97 6.97 0 0 0 .67 1.233l.268.394c.047.076.092.204.159.268.073.07.171.104.243.176l.201.218a2.38 2.38 0 0 0 1.809.596c.485-.049.95-.284 1.382-.495.09-.049.125-.161.075-.252s-.161-.125-.251-.076c-.274.169-.537.296-.854.361-.242.05-.499.074-.745.05-.44-.041-.803-.239-1.148-.503-.067-.052-.149-.099-.209-.159s-.083-.152-.134-.226c-.037-.054-.158-.155-.201-.201-.099-.109-.179-.24-.251-.369-.215-.383-.353-.805-.502-1.216-.558-1.532-.809-3.145-.946-4.764a21.03 21.03 0 0 1-.084-2.608c.022-.557.094-1.107.151-1.661.077-.75-.004-1.503.184-2.239.015-.066-.026-.127-.092-.143zm2.377 43.259c-.043.014-.015.008-.042.017.026-.007-.044.029-.067.042-.07.039-.129.079-.209.092-.035.006-.132.032-.1.017.138-.065-.003-.005-.193.025-.096.034-.151.138-.117.235s.138.151.234.117l.168-.092c.013-.007.021-.006.042-.017l.058-.034.059-.034.176-.092c.023-.012.09-.055.067-.042-.19.102-.001.007.042-.017.059-.032.082-.108.05-.168s-.108-.083-.168-.05z"/><path d="M70.904 80.525c-.046.027-.06.088-.033.134.305.703.658 1.372 1.131 1.979.997 1.28 2.368 2.142 3.886 2.667.416.144.826.274 1.265.335.568.08 1.147.057 1.717.025.769-.043 1.513-.116 2.269-.268.1-.023.165-.126.142-.227s-.126-.166-.226-.143c-.714.184-1.453.368-2.194.386-.552.013-1.099-.068-1.641-.159-.65-.109-1.285-.245-1.885-.528-1.83-.866-3.117-2.599-4.304-4.168a.09.09 0 0 0-.126-.034zm10.637-17.847l.243.285c.128.131.274.236.385.386.724.979 1.142 2.136 1.549 3.271a.32.32 0 0 0 .419.168c.161-.07.229-.258.159-.419l-.503-1.015c-.366-.791-.736-1.624-1.415-2.197-.143-.121-.294-.28-.461-.369-.109-.057-.259-.082-.377-.109z"/><path d="M84.697 66.653c-.028-.026-.075-.02-.1.008s-.02.075.008.101c-.532.255-.713.269-.536.251.237-.024.477-.072.712-.034.086.014.132.121.193.185l.159.184c.204.245.373.519.477.822.275.8-.255 1.497-1.105 1.233-.49-.152-.8-.643-.904-1.124-.04-.185-.031-.367-.042-.554-.004-.072-.07-.169-.017-.218.318-.295.001-.002 0-.243.006-.054-.015-.1-.042-.142a3.69 3.69 0 0 0-.477.344c-.063.054-.036.169-.042.252-.017.219.023.448.058.663.161.973.961 1.833 2.018 1.568.172-.043.321-.126.46-.235.768-.6.592-1.436.067-2.147-.141-.191-.299-.372-.46-.545-.062-.066-.094-.21-.184-.201-.631.062-.003-.001-.243-.168zm-1.198.47c.124-.075.247-.145.385-.184.121-.035-.271.102-.419.151.013.012.024.019.034.034zm-.034-.034c-.036-.036-.079-.07-.134-.075-.127-.013-.238.082-.251.21l.385-.134z"/><path d="M85.358 69.89c-.031.024-.04.07-.017.101l.494 1.082c.281.78.426 1.592.502 2.415.027.148.17.246.318.218s.245-.17.218-.319c-.227-.814-.388-1.663-.729-2.441-.169-.385-.374-.766-.695-1.04-.024-.031-.061-.04-.092-.017zm2.027 3.707a.16.16 0 0 0-.218.059c-.043.076-.017.167.059.21-.247.132-.305.125-.243.134.107.016.21-.06.318-.058.031 0 .044.046.067.067.092.085.189.161.268.26.306.383.493.853.545 1.342.021.195.016.774-.251.864-.361.122-.793-.443-.98-.671-.304-.371-.468-.87-.394-1.342.01-.066.005-.167.042-.227a.16.16 0 0 1 .058-.05c.188-.109-.001 0 .075-.05.072-.073.073-.187 0-.26-.035-.035-.079.001-.126 0l-.201.092c-.034.019-.036.061-.059.092-.187.256-.252.392-.234.721.032.614.325 1.154.779 1.56.284.253.743.632 1.156.503.435-.135.513-.663.511-1.048a3.01 3.01 0 0 0-.595-1.778 1.29 1.29 0 0 0-.352-.335c-.035-.021-.077-.066-.117-.059-.346.059.004.006-.109-.025zm-.779.277l.318-.143c.121-.041.004.003-.452.143.037-.038.085-.001.134 0z"/><path d="M87.93 76.81c-.049.03-.063.093-.034.142.065.141.146.28.193.428.347 1.087.264 2.236.444 3.346.015.142.142.241.285.226s.24-.143.226-.285c-.017-.431-.064-.863-.117-1.291-.112-.891-.312-1.8-.854-2.533-.029-.05-.093-.063-.143-.034zm.394 4.176c-.028-.014-.062-.003-.075.025.083.006.017.004.084.008-.005-.011.004-.027-.008-.033zm.008.033c.007.015.025.026.017.042-.005.025.024.025.034.042l.511-.05c.118-.002-.115-.006-.561-.034zm.05.084c-.078.011-.158.006-.234.025-.048.012-.052.09-.075.134l-.059.126c-.096.192-.174.389-.234.595-.088.3-.174.649-.143.965.056.56.41 1.11 1.014 1.124 1.017.023 1.714-.969 1.541-1.929-.048-.263-.154-.519-.293-.746-.04-.065-.052-.167-.126-.185-.498-.117-.002-.004-.243-.117-.049-.069-.141-.082-.209-.034a.15.15 0 0 0-.034.21c-.467-.107-.546-.252-.469-.101.091.18.336.218.486.352.09.081.116.209.167.319.112.238.215.513.21.78-.013.646-.68 1.29-1.34 1.023-.686-.277-.42-1.27-.243-1.803l.176-.495c.017-.045.002-.131.05-.134.267-.019.108-.025.059-.109zM54.331 38.481c-.009.005-.005.017 0 .025.02.116.026.239.059.352.065.227.166.439.243.663.298.868.685 1.694.896 2.591.289 1.232.389 2.622.042 3.858a4.99 4.99 0 0 1-.31.83c-.081.166-.184.287-.251.461-.057.079-.037.194.042.252s.186.037.243-.042c.337-.283.548-.756.695-1.166.397-1.105.4-2.326.209-3.472-.07-.42-.17-.838-.276-1.25l-.36-1.199c-.174-.503-.419-.94-.72-1.376-.068-.098-.12-.206-.201-.293s-.192-.152-.285-.227c-.005-.009-.016-.014-.025-.009z"/><path d="M48.052 9.38c-.059.022-.114.073-.142.134-.337.322-.464.602-.645 1.023-.216.506-.399 1.015-.553 1.543-.546 1.877-.877 3.824-1.047 5.77l-.168 2.55c-.048 2.023.143 4.099.553 6.081.264 1.276.702 2.481 1.156 3.699.734 1.967 1.744 3.773 3.115 5.368l.804.889c.574.56 1.207 1.123 1.876 1.568.703.469 1.432.919 2.186 1.3l1.214.562c.089.04.186-.003.226-.092s.005-.195-.084-.235c-.901-.401-1.797-.881-2.605-1.451-.33-.233-.624-.5-.938-.755-1.987-1.613-3.493-3.697-4.581-6.005l-.72-1.736c-.32-.945-.501-1.941-.687-2.919-.394-2.074-.549-4.148-.536-6.256l.142-2.826c.179-1.679.475-3.349.938-4.973l.536-1.77c.072-.223.169-.441.218-.671.037-.172.034-.286.042-.461.057-.123.005-.27-.117-.327-.061-.028-.125-.03-.184-.008z"/><path d="M58.385 35.948c-.022-.009-.049.003-.059.025-.076.093-.162.183-.226.285-.245.388-.363.875-.528 1.3l-.553 1.258c-.163.325-.295.615-.636.78-.068.071-.062.184.008.252s.184.063.251-.008c.123-.28.331-.492.519-.73a2.9 2.9 0 0 0 .293-.453c.234-.416.394-.854.561-1.3.171-.457.329-.863.385-1.35.009-.022.005-.05-.017-.059zM48.444 4.59c-.334-.004-.672.074-1.013.193-.311.109-.581.229-.846.428-.192.114-.248.361-.134.554s.36.257.553.143l.712-.344c.63-.237 1.521-.228 1.892.428.072.127.125.267.151.411.028.16.078.324.075.486-.008.401-.195.777-.293 1.157-.027.043-.017.099.025.126s.099.009.126-.034c.048-.041.179-.141.218-.193.021-.028.101-.22.117-.252.039-.076.102-.163.134-.243.048-.121.067-.259.092-.386l.076-.503c.029-.612-.38-1.367-.896-1.686a1.88 1.88 0 0 0-.988-.285z"/><path d="M49.307 4.933c-.654.014-1.221.336-1.717.746-.943.781-1.541 1.989-1.993 3.103l-.36.99-.276.998-.301 1.401c-.061.365-.144.833-.117 1.208.008.118.071.221.1.335.014.053.014.235.017.294 0 .073.061.134.134.134s.134-.061.134-.134a1.03 1.03 0 0 1 .025-.277c.038-.106.117-.2.142-.31.054-.231.064-.499.101-.73l.142-.856a17.08 17.08 0 0 1 .461-1.887c.355-1.176.775-2.329 1.516-3.321.324-.434.695-.836 1.164-1.115.268-.159.574-.248.871-.335.067-.01.11-.075.1-.143s-.075-.111-.142-.101zm2.756 32.131c-.088-.027-.174.021-.201.109l-.494 1.971c-.387 2.239-.304 4.55-.117 6.802l.033.814.092 1.057.109 1.015.009.503c.011.162.037.318.058.478.016.162.165.285.327.268s.276-.165.26-.327l-.034-.486c-.023-.165-.075-.321-.1-.486-.052-.338-.06-.684-.1-1.023l-.075-.52-.31-5.141c0-1.62.139-3.282.662-4.822.027-.088-.029-.182-.117-.21zm-9.305 7.189c-.016-.003-.031.002-.034.017-.446 1.02-.723 2.107-1.097 3.154l-1.055 3.145c-.088.372-.128.745-.168 1.124-.075.732-.133 1.471-.067 2.206.037.407.147.788.243 1.183.1.412.14.824.327 1.208.035.072.211.434.285.47.086.042.173.125.268.109.088-.014.132-.119.193-.184.034-.037.077-.29.092-.344l.076-.243.084-.294.528-1.795c.05-.194.034-.417.134-.595.203-.364.675-.508 1.047-.604a9.01 9.01 0 0 1 .921-.176c.297-.044.603-.04.888-.143.044-.005.072-.039.067-.084s-.039-.081-.084-.076c-.298-.038-.598.016-.896.042-.724.063-1.644.139-2.144.747-.284.345-.38.809-.511 1.224l-.503 1.61c-.003-.008-.005-.017-.008-.025-.123-.313-.294-.595-.36-.931-.072-.368-.07-.759-.084-1.132a10.96 10.96 0 0 1 .084-1.87c.122-.904.432-1.764.72-2.625l.695-2.382c.243-.897.43-1.766.385-2.701.003-.015-.01-.031-.025-.034z"/><path d="M41.762 46.499c-.802.823-1.935 1.322-3.065 1.493-.352.053-.688.029-1.039 0-.065-.005-.129-.003-.192-.017-.106-.023-.248-.104-.344-.151-.054-.027-.115-.004-.142.05s-.012.124.042.151c.243.121.517.255.787.302.377.066.796.034 1.172-.017.81-.108 1.585-.433 2.278-.856.188-.115.389-.201.553-.352.097-.09.177-.198.268-.294.085-.089.088-.225 0-.31s-.233-.089-.318 0z"/><path d="M50.705.489c-.629.036-1.258.105-1.859.302-.684.224-1.288.599-1.892.981-1.384.876-2.615 1.978-3.727 3.179-1.125 1.215-2.258 2.552-2.73 4.168-.43 1.471-.494 2.981-.486 4.504l.268 5.544.728 11.926-.033 6.156-.084 1.837c-.108 1.723-.335 3.501-.921 5.133-.276.768-.614 1.501-1.122 2.147-.472.599-1.105 1.074-1.767 1.442-.028.013-.038.048-.025.076s.048.038.076.025c.33-.133.654-.28.946-.486.358-.253.668-.579.946-.914 1.297-1.561 1.754-3.672 2.01-5.636l.151-1.409.134-1.828.067-8.261-.553-9.326-.235-5.921c-.005-1.353.054-2.737.318-4.068.308-1.55 1.035-2.724 2.01-3.933a17.74 17.74 0 0 1 3.433-3.246c.778-.561 1.595-1.01 2.496-1.342.34-.126.687-.245 1.047-.302.476-.075.968-.084 1.449-.084.365 0 .726.017 1.089.059a6.38 6.38 0 0 1 .712.117 7.31 7.31 0 0 1 .62.176c.833.274 1.971.953 1.583 2.005a1.88 1.88 0 0 1-.243.428 7.47 7.47 0 0 1-.838.956c-.064.039-.081.12-.042.185s.12.081.184.042c.343-.116.674-.246.963-.47a2.18 2.18 0 0 0 .586-.704c.105-.198.184-.407.218-.629C56.394 1.9 54.918 1.063 53.77.74c-.986-.277-2.049-.309-3.065-.252zm28.616 7.918a.18.18 0 0 0-.025.252c.522.528.923 1.131 1.256 1.795a5.71 5.71 0 0 1 .502 1.367c.551 2.6-1.459 4.711-2.906 6.6l-1.356 1.887c-.362.528-.753 1.059-.963 1.669a.27.27 0 0 0 .159.344.26.26 0 0 0 .335-.159c.277-.652.717-1.238 1.114-1.82l1.122-1.602 1.382-1.912c.782-1.135 1.495-2.436 1.532-3.85.015-.569-.109-1.156-.285-1.694-.347-1.064-1.01-1.93-1.616-2.852a.18.18 0 0 0-.251-.025zm-13.34 22.677c-.014.002-.028.02-.025.034-.028.108-.076.207-.084.319-.007.099.024.196.042.294l.117.554c.074.423.148.832.285 1.241.355 1.064.885 2.057 1.625 2.902.625.714 1.345 1.34 2.035 1.988l.863.839c.07.068.174.07.243 0s.07-.183 0-.252l-.888-.822c-1.127-1.032-2.24-2.052-2.923-3.447-.282-.577-.471-1.184-.661-1.795l-.235-.729c-.047-.169-.082-.366-.117-.537-.02-.095-.028-.197-.067-.285-.045-.101-.122-.185-.184-.277-.002-.014-.011-.028-.025-.025z"/><path d="M76.029 20.122c-.053-.005-.096.03-.1.084-.028 1.041.105.714-.034 1.04-.109.257-.029-.555-.075-.83-.011-.066-.019.135-.025.201a2.32 2.32 0 0 0-.008.185c-.005.318-.074.693 0 1.006.02.084.061.16.084.243.005.017.015.032.017.05.01.09-.001.045-.017.126v.067c.05.084.159.109.243.059s.102-.152.059-.235c-.009.009-.038.004-.05-.008-.088-.085-.005-.226.008-.319.03-.201.017-.414.017-.621v-.184l.042-.344v-.193c-.005.555 0-.006-.067-.226.005-.053-.039-.096-.092-.101zm.117 1.048c-.085-.266.001.442.025.83-.007-.688.083-.489-.025-.83zm.025.83c.001.059-.002.034 0 .109.008-.031.003-.054 0-.109zm-.302.226v-.176c.001-.052.001-.079-.008.218-.001.014.006-.029.008-.042z"/><path d="M76.054 20.172c-.024-.019-.057-.016-.076.008-.312.288-.559.611-.837.931l-.436.461-.377.461c-.016 0-.247.217-.268.235a5.37 5.37 0 0 1-.561.419c-.38.244-.801.462-1.231.604-.251.082-.512.092-.77.134-.102-.009-.192.065-.201.168s.073.193.176.201c.606.186 1.306-.115 1.826-.419.337-.197.644-.436.955-.671.139-.105.32-.219.427-.361.255-.336.467-.692.703-1.04l.687-1.057c.019-.024.007-.057-.017-.076z"/><path d="M72.244 19.854c-.098.002-.178.078-.176.176.106.513.096 1.071.126 1.594.026.451.158 1.128-.235 1.485-.144.13-.35.216-.527.285a.24.24 0 0 0-.184.285c.028.13.163.213.293.185.187-.013.372-.039.544-.117.148-.068.296-.16.41-.277.304-.31.364-.786.318-1.199a4.13 4.13 0 0 0-.126-.721c-.13-.492-.353-1.011-.268-1.526-.002-.098-.078-.17-.176-.168z"/><path d="M72.093 20.124c-.053-.03-.12-.011-.151.042l-.745.83c.022.013.402-.445.611-.662.048-.05-.083.113-.126.168-.075.095-.187.227-.276.31l-.209.184-.569.503-.151.159-.134.176c.54-.551.004.002-.1.218-.01.009-.017.023-.008.034s.032.009.042 0l.93-.906c.274-.243-.5.542-.703.847-.041.062.136-.057.201-.092.108-.059.27-.169.368-.243.302-.227.515-.521.737-.822l.134-.184c.041-.064.175-.242.117-.193-.612.514-.005-.002.075-.218.03-.053.011-.121-.042-.151z"/><path d="M66.576 6.435c-.012.008-.008.022 0 .034L68.05 9.06c.618 1.238 1.121 2.533 1.591 3.833l.662 1.979a14.28 14.28 0 0 1 .427 3.044c.032.888-.006 1.799-.159 2.675-.077.44-.2.865-.302 1.3-.007.023.011.052.034.059s.043-.011.05-.034c.759-2.029.711-4.314.327-6.416-.19-1.04-.399-2.078-.745-3.078-.422-1.22-1.025-2.36-1.675-3.472l-1.239-2.004-.41-.512c-.008-.011-.022-.008-.034 0zm-1.499 15.449c-.139-.006-.284.024-.419.05a2.46 2.46 0 0 0-.628.218c-.273.136-.538.304-.762.512-.915.849-1.189 2.396-.745 3.539.191.492.487.919.745 1.376.111.197.146.392.235.595.038.088.113.159.142.252s.015.209.017.302l.017.453a3.02 3.02 0 0 0 .251 1.006c.328.73 1.034 1.472 1.884.998a1.99 1.99 0 0 0 .452-.335c.075-.068.076-.185.009-.26s-.185-.076-.26-.008c-.08.063-.16.137-.26.168a1.19 1.19 0 0 1-.921-.185c-.218-.172-.354-.421-.444-.679-.113-.324-.163-.69-.184-1.031-.019-.301.005-.649-.126-.931-.097-.21-.286-.392-.41-.587l-.595-1.04c-.365-.739-.336-1.618-.092-2.39.095-.299.267-.649.503-.864.212-.194.509-.329.762-.461.195-.102.411-.207.628-.252.731-.149 1.131.233 1.466.881.153.295.239.621.335.939l.302.981c.178.554.529 1.714 1.365 1.392.192-.074.381-.204.545-.327a.18.18 0 0 0 .025-.252c-.063-.075-.176-.08-.251-.017-.086.08-.178.183-.285.235-.667.325-.94-.716-1.064-1.141l-.067-.235-.075-.243c-.148-.503-.323-1-.561-1.468-.307-.604-.812-1.158-1.533-1.191z"/><path d="M64.172 13.606l-.226 2.147c-.034.798.023 1.615.117 2.407l.285 1.719c.178.74.515 1.409.771 2.122.037.09.144.138.234.101s.129-.144.092-.235c-.263-.567-.385-1.155-.528-1.761a14.21 14.21 0 0 1-.343-1.996l-.117-2.357c-.052-.721-.197-1.432-.285-2.147zm4.479 12.69c-.04-.008-.076.019-.084.059-.122.508-.185 1.019-.159 1.543.065 1.288.619 2.426 1.173 3.564l.837 1.677c.337.666.699 1.382.88 2.114.154.623.173 1.243.109 1.879-.009.131.088.243.218.252s.242-.088.251-.218c.053-1.334-.277-2.606-.863-3.799s-1.431-2.24-1.918-3.481c-.458-1.168-.582-2.266-.385-3.506.008-.04-.019-.076-.059-.084zm2.864 11.684c-.079-.017-.159.038-.176.117-.311 1.344-.857 2.622-1.6 3.783-.062.103-.027.231.075.293s.231.036.293-.067l.821-1.576a11.23 11.23 0 0 0 .704-2.374c.017-.079-.038-.16-.117-.176z"/><path d="M75.987 22.244c-.056-.012-.106.029-.117.084l-.176 1.166-.084 1.082c-.026.734.083 1.464.234 2.181l1.047 4.085c.201 1.113.183 2.319-.159 3.405-.373 1.184-1.093 2.207-1.884 3.145-.749.887-1.581 1.692-2.437 2.474l-1.356 1.199c-.226.2-.546.434-.737.662-.076.09-.121.202-.184.302-.044.038-.054.099-.017.142s.107.055.151.017c.108-.048.226-.081.327-.143.189-.116.341-.284.511-.428l.486-.419 1.524-1.392c1.374-1.313 2.806-2.691 3.618-4.445.592-1.279.751-2.745.578-4.135-.148-1.187-.551-2.304-.879-3.447-.486-1.692-.877-3.683-.36-5.41.012-.055-.028-.114-.084-.126zm-21.74 16.674c-.839.997-.477.636-.837.989-.267.262.432-.616.569-.965.031-.078-.151.064-.226.101l-.209.118c-.258.154-.511.353-.67.612-.115.188-.191.433-.243.646-.019.079-.101.29-.042.235.589-.546-.001-.001-.017.252-.018.057.01.125.067.143s.125-.018.142-.076c.811-.869.514-.493.812-.872.196-.25-.444.458-.687.662-.056.047.078-.123.117-.184.07-.109.147-.207.235-.302.198-.213.39-.441.62-.62l.159-.118c.059-.041.232-.172.184-.118-.466.531-.005 0 .176-.184.088-.042.134-.146.092-.235s-.154-.126-.243-.084zm9.576-10.552l-.913.64s-1.861-2.02-2.062-3.838.434-2.655 1.259-3.436 2.066.614 2.066.614-1.498.73-1.58 2.311 1.23 3.709 1.23 3.709z"/><path d="M57.631 22.95c-.195.038-.322.224-.285.419.011.149.015.299.059.445.067.224.205.438.335.629.447.656 1.099 1.176 1.867 1.392.4.112.893.101 1.248-.143.14-.096.236-.233.343-.361.1-.119.146-.2.184-.352.043-.059.033-.141-.025-.185s-.141-.025-.184.034c-.106.06-.173.128-.268.201-.151.115-.423.194-.611.218-.813.106-1.527-.543-1.901-1.208-.14-.248-.243-.537-.335-.805-.038-.195-.232-.323-.427-.285z"/><path d="M55.414 21.496a2.03 2.03 0 0 1 2.023-2.037 2.037 2.037 0 0 1 0 4.073 2.03 2.03 0 0 1-2.023-2.037zm19.175 20.131c-.113.473-.122.941-.126 1.426-.008 1.21.201 2.401.528 3.564.53 1.883 1.206 3.714 2.127 5.443.438.823.909 1.632 1.508 2.348.914 1.095 1.999 2.408 3.567 2.365.26-.007.506-.055.754-.134a3.4 3.4 0 0 0 .762-.352c.272-.168.541-.348.762-.579.042-.033.05-.093.017-.134s-.092-.05-.134-.017c-.182.105-.347.236-.527.344a3.61 3.61 0 0 1-.971.394c-1.398.336-2.714-.587-3.534-1.652-.358-.464-.654-.99-.955-1.493-1.395-2.335-2.372-4.923-3.032-7.557l-.385-1.602-.092-.495-.151-.688c-.059-.391-.083-.788-.109-1.183zm-7.68-40.148c-.956-.016-1.913.014-2.864.076-1.999.13-4.014.393-5.937.973-.875.264-1.767.565-2.479 1.157-.123.103-.145.287-.042.411s.287.136.41.034c.914-.762 2.114-1.115 3.249-1.392 1.866-.456 3.795-.671 5.712-.755 1.588-.069 3.176-.038 4.757.134 1.011.11 2.023.272 2.998.57 1.319.404 2.593 1.032 3.777 1.736 4.225 2.512 7.462 6.613 8.115 11.574.258 1.961.082 3.975-.402 5.888-.221.873-.555 1.707-.787 2.575-.016.04.003.085.042.101s.085-.003.1-.042c.277-.509.47-1.058.645-1.61a17.81 17.81 0 0 0 .611-2.516 15.57 15.57 0 0 0 .092-4.428c-.786-6.336-5.692-11.15-11.423-13.413-1.186-.468-2.449-.722-3.71-.881a26.59 26.59 0 0 0-2.864-.193zm15.679 21.269c-.068.018-.11.091-.092.159.176.493.247.988.377 1.493a13.85 13.85 0 0 0 .41 1.283l.26.663c.15.305.362.584.595.83.119.126.275.239.377.377.237.321.223.884.101 1.241-.193.563-.725.852-1.164 1.199a4.18 4.18 0 0 0-.67.646c-.173.215-.286.416-.327.688-.054.356.039.726.109 1.073l.218.931.151.503c.042.141.112.278.109.428-.007.355-.21.717-.402 1.006-.083.119-.061.286.059.369s.285.052.369-.067c.276-.389.537-.902.494-1.392-.023-.261-.172-.491-.268-.73-.245-.611-.536-1.271-.452-1.946.071-.573.696-.974 1.114-1.3.583-.455 1.002-.843 1.122-1.61.031-.195.051-.409.008-.604-.053-.242-.208-.419-.36-.604-.281-.342-.601-.669-.829-1.049-.369-.613-.583-1.316-.787-1.996-.149-.497-.282-.99-.368-1.501-.018-.068-.082-.11-.151-.092zm-3.56-5.049a.57.57 0 0 0-.352.252c-.162.261-.077.601.184.763l.938.361a11.07 11.07 0 0 0-.636-.218c-.107-.031.208.081.31.126l.594.277c.107.039.431.139.327.092-.506-.226.005-.001.352.084.038.031.095.03.125-.008s.021-.095-.017-.126c-.704-.764-.423-.404-.703-.763-.142-.182.323.34.536.428.112.046-.13-.201-.209-.293-.12-.138-.382-.343-.519-.461l-.259-.226c.37.451.004 0-.251-.21a.55.55 0 0 0-.419-.075zm-2.405 2.617a.48.48 0 0 0-.611.294c-.086.251.051.526.301.612.123.043.241.11.369.134.275.052.558.021.837.025a3.64 3.64 0 0 0 .603-.034c.129-.02.256-.067.385-.084.379-.049.85.038 1.156.277.288.225.302.582.478.872.002.018.024.027.042.025s.028-.016.025-.034c.141-.522-.304-1.091-.745-1.317-.287-.147-.608-.185-.913-.277-.263-.079-.505-.162-.779-.201-.181-.026-.368-.036-.544-.084-.205-.056-.401-.143-.603-.21z"/><path d="M76.39 20.156a.35.35 0 0 0-.444.227c-.134.075-.23.1-.302.252-.084.178-.025.567.009.755l.075.377a6.19 6.19 0 0 0 .611 1.552 2.63 2.63 0 0 0 .21.327c.041.048.092.087.134.134.105.117.178.277.301.378.072.058.166.086.251.117a.18.18 0 0 0 .251-.025.18.18 0 0 0-.025-.252c-.029-.06-.047-.125-.075-.184-.055-.114-.143-.2-.176-.327-.013-.053-.014-.114-.025-.168-.032-.166-.093-.323-.134-.487a8.89 8.89 0 0 1-.176-.906 5.63 5.63 0 0 1-.067-.814c.001-.073.029-.25-.008-.319-.043-.079-.124-.127-.184-.193.059-.187-.04-.385-.226-.445zm2.405 2.605c0-.758.332-1.372.742-1.372s.742.614.742 1.372-.332 1.373-.742 1.373-.742-.614-.742-1.373zm4.475 11.946s-1.204.712-2.175.712-1.585-.518-1.711-.298.173.285 1.037.71 2.388 0 2.388 0l.46-1.125zm59.84 159.528c-.371.055-.699.322-.963.571-.48.452-.865.992-1.223 1.543a21.38 21.38 0 0 0-1.164 2.046l-.686 1.409c-.6 1.309-1.099 2.657-1.541 4.026-.172.534-.407 1.179-.109 1.711.09.161.218.303.351.428.432.403.928.733 1.391 1.098l1.398 1.108c1.083.732 2.259 1.327 3.425 1.912l3.593 1.736 3.811 1.61 3.961 1.711 4.497 1.652 3.509 1.082c2.045.626 4.102 1.195 6.222 1.502 1.019.147 2.061.278 3.09.142.466-.061.906-.196 1.332-.394a2.74 2.74 0 0 0 .686-.445c1.158-1.036.996-2.585.36-3.875-.461-.935-1.084-1.763-1.742-2.566-.546-.667-1.129-1.289-1.758-1.879-.575-.537-1.159-1.082-1.818-1.517-.244-.162-.511-.285-.762-.437l-.427-.276c-.186-.112-.386-.194-.586-.277-.037-.026-.091-.012-.117.025s-.021.083.017.109l.443.47.369.327c.205.202.377.44.578.645.457.468.965.885 1.44 1.334 1.091 1.032 2.167 2.116 3.023 3.355.546.79 1.246 2.032.997 3.044-.122.496-.457.831-.854 1.124-.141.104-.273.202-.436.268-.433.178-.91.24-1.373.269-1.672.105-3.316-.184-4.941-.545l-1.935-.445-3.567-1.065-2.043-.746-4.096-1.543-3.852-1.552-2.939-1.359-5.142-2.407-2.412-1.342c-.568-.361-1.06-.814-1.591-1.224l-1.382-1.04c-.116-.101-.236-.214-.293-.361-.144-.367.121-1.004.234-1.35a44.99 44.99 0 0 1 1.667-4.294l.678-1.418.854-1.56c.371-.607.795-1.262 1.366-1.702a1.41 1.41 0 0 1 .527-.269c.017-.004.033-.012.05-.008l.386.101c.119.033.252.04.36.1.134.075.234.203.351.302l.545.503.971 1.015c.428.444.899.909 1.474 1.158.486.209 1 .146 1.516.1.687-.06 1.351-.177 2.027-.31.186-.037.388-.033.569-.092.084-.028.151-.096.234-.126s.163-.035.243-.051c.325-.06.623-.173.921-.318.109-.053.202-.109.294-.184.037.159.086.299.142.435l.536 1.225c.199.387.395.815.678 1.149.077.091.19.149.251.252s.055.243.109.352c.106.209.327.332.478.511.073.089.104.204.176.294.104.133.262.223.402.319.21.144.381.356.586.511.036.03.088.02.117-.016s.028-.088-.008-.118c-.178-.152-.416-.324-.536-.528-.082-.14-.146-.297-.252-.42-.072-.084-.18-.135-.242-.226s-.081-.217-.134-.319-.102-.2-.176-.285-.211-.136-.277-.235-.065-.218-.109-.327a3.47 3.47 0 0 0-.142-.31l-.586-1.116-.251-.486-.218-.411c-.091-.186-.255-.614-.469-.688-.03-.01-.211.051-.243.059l-.092.025c-.037.011-.073.028-.109.042l-.787.302c-.126.057-.274.167-.411.201-.082.021-.176.006-.259.025-.179.042-.341.13-.519.177-.637.165-1.321.24-1.977.268-.395.017-.82.068-1.197-.084-.551-.222-.986-.683-1.39-1.099-.391-.402-.758-.874-1.198-1.224-.133-.106-.281-.194-.419-.294-.145-.105-.274-.24-.435-.318-.138-.067-.295-.073-.444-.109-.197-.049-.402-.122-.603-.093z"/><path d="M138.093 203.396a.13.13 0 0 0 0 .184c.345.381.77.672 1.189.965l1.65 1.098c1.776 1.143 3.62 2.18 5.494 3.154 3.885 2.02 7.818 3.94 11.874 5.594 2.239.912 4.51 1.778 6.834 2.449l2.026.57c.516.134 1.031.254 1.55.369.493.109.992.198 1.49.277 1.242.198 2.566.227 3.727-.336.628-.303 1.115-.801 1.206-1.509a.27.27 0 0 0-.226-.31c-.149-.022-.288.085-.31.234-.125.734-.794 1.104-1.457 1.3-1.226.364-2.341.207-3.576-.016-.376-.068-.748-.149-1.122-.227-.522-.108-1.042-.228-1.558-.36-.678-.175-1.35-.377-2.018-.588-6.582-2.076-12.895-4.917-18.968-8.185-1.446-.778-2.865-1.589-4.288-2.407-1.148-.661-2.351-1.354-3.333-2.256a.13.13 0 0 0-.184 0z"/><path d="M166.474 209.566c-.076.015-.132.067-.201.101-.04-.014-.087.01-.101.05s.011.079.05.093c.028.066.048.139.084.201.056.096.172.136.251.21a.83.83 0 0 1 .243.394c.243.954-.08 1.911-.301 2.834l-.444 1.879c-.044.24-.019.48-.034.722-.009.158-.039.312-.058.469.014.097.104.166.201.151s.157-.104.142-.201c-.193-.398.009-.664.126-1.049l.243-.779.393-1.024c.204-.571.348-1.179.444-1.778.044-.275.069-.569.05-.847-.035-.527-.312-1.041-.77-1.317-.088-.053-.206-.13-.318-.109zm-9.414-16.228c-.411-.012-.929.206-1.206.336-.363.171-.766.341-1.097.57-.136.094-.249.217-.385.311l-.72.495c-.238.175-.557.395-.57.729-.008.233.138.472.227.68.079.187.057.284.226.427.007.045.055.074.1.067s.074-.047.067-.092c.025-.043.061-.086.076-.134.039-.131-.107-.502-.16-.629-.029-.071-.163-.281-.125-.369.043-.1.191-.191.268-.252a6.54 6.54 0 0 1 .837-.562c.139-.078.291-.124.436-.193s.276-.166.418-.243c.324-.175.671-.318 1.014-.453.16-.063.328-.135.502-.151.015-.001.056.004.092.009-.036.053-.01.134-.008.201.002.074.009.144.017.218l.134 1.006.226 1.124.268.831.402 1.283c.145.383.297.768.636 1.015.037.068.124.095.193.058s.095-.124.058-.193c-.004-.387-.143-.733-.259-1.098l-.478-1.518-.1-.562-.41-1.795c-.048-.334.007-.802-.319-1.015a.69.69 0 0 0-.36-.101z"/><path d="M159.406 199.443c-.031-.004-.169.101-.184.11l-.36.193c-.154.08-.149.073-.301.167-.29.18-.555.397-.838.587s-.598.362-.862.588c-.178.15-.325.337-.469.519-.135.17-.243.354-.277.571-.06.384.162.722.469.931.105.071.095.067.21.092.022.005.052-.01.067.008.205.252-.001.004.025.009.068.032.131-.02.184-.067-.011-.095-.014-.209-.042-.277-.039-.096-.149-.157-.218-.227-.188-.189-.244-.384-.067-.603.046-.056.104-.114.159-.16.123-.101.262-.185.386-.285l.435-.377a6.62 6.62 0 0 1 .838-.604l.72-.495.167-.118c.065.065.151.124.201.193l.611.78c.069.075.126.165.193.244-.078.096-.167.186-.251.276-.23.248-.474.452-.729.671-.178.154-.327.331-.494.495-.273.268-.618.48-.921.713l-.343.252c-.056.036-.132.149-.176.1-.168-.185-.112-.091-.142-.008.068.075.143.155.226.185.066.023.126-.051.192-.076l.21-.075c.451-.2.791-.515 1.189-.797l.402-.285c.176-.149.312-.32.469-.487l.527-.511.294-.269c.005-.005.066-.05.067-.059.006-.107.046-.226.008-.327-.059-.154-.187-.269-.285-.402a8.74 8.74 0 0 0-.645-.755c-.112-.121-.188-.279-.326-.369-.09-.059-.213-.036-.319-.051zm-2.009 4.278c-.074-.081-.146-.151-.235-.118-.116.045-.014.07.168.269.008-.031.001-.071.033-.084.042-.014.024-.042.034-.067zm-.067.151c-.007.022-.035.036-.026.059a.1.1 0 0 0 .134.058c-.051-.072-.067-.072-.108-.117zm-.26-.721c.014.117.045.215.134.193.165-.042.001-.002-.159-.453.09.043.126.145.084.234-.011.023-.042.01-.059.026zm5.954-.301a.81.81 0 0 0-.318.008c-.271.077-.541.27-.762.436-.164.123-.299.267-.452.403-.24.212-.492.43-.687.687l-.26.369-.41.52c-.032.05-.096.094-.084.151.071.338.004-.003 0 .21-.004.007-.007.021 0 .025s.021-.001.025-.008c.37.138.298.217.369.142.065-.068-.159-.125-.176-.218-.01-.056.074-.088.109-.134l.368-.528c.136-.166.308-.304.452-.461.351-.382.711-.721 1.156-.99.235-.142.477-.257.745-.143.213.09.343.299.461.487l.335.511c.006.007.031.032.05.059-.005.004-.011.012-.016.017-.016.011-.034.016-.051.025l-.217.109c-.252.129-.462.285-.67.478l-.712.696c-.119.098-.25.172-.377.26s-.27.193-.427.235c-.127.034-.261.033-.377-.034-.08-.046-.122-.157-.209-.193-.271-.11.002-.002-.076-.041-.131-.121-.331-.107-.452.025a.31.31 0 0 0-.084.218l.159.327c.104.181.673.266.846.268.55.006.958-.374 1.307-.746l.795-.805c.254-.227.567-.371.854-.546.121-.073.192-.178.176-.327-.014-.129-.276-.407-.351-.528-.262-.417-.499-.89-1.039-.964zm3.132 3.371c-.173.044-.342.125-.511.227-.53.319-.854.752-1.189 1.258a6.69 6.69 0 0 1-.57.73c-.04.045-.086.097-.134.134-.024.019-.092.024-.075.05.198.303-.002-.002-.042.017-.085.047-.122.157-.075.243s.157.114.243.067c.393.125.423.233.393.126-.033-.121-.241-.087-.343-.159-.02-.014.04-.027.059-.042l.058-.05a2.42 2.42 0 0 0 .168-.168c.166-.187.309-.38.46-.579.17-.223.365-.421.553-.629.231-.255.501-.61.846-.713a1.21 1.21 0 0 1 .728.05c.093.036.173.083.252.143.659.505-.075 1.352-.495 1.736l-.167.151c-.167.127-.365.235-.553.327-.356.176-.727.228-1.097.101-.285-.098-.003-.003-.075-.042-.085-.08-.214-.076-.293.008-.068.073-.045.173.008.252.085.094.138.21.243.277.759.477 1.738-.185 2.286-.688.143-.131.23-.219.352-.369.396-.487.811-1.299.368-1.887a1.56 1.56 0 0 0-.393-.344c-.142-.094-.296-.182-.461-.227-.196-.052-.372-.042-.544 0zm-1.851 3.238c-.117-.131-.257-.242-.335-.386-.088-.164 0-.005.335.428-.012-.011.009-.029 0-.042z"/><path d="M161.951 205.935c-.064.007-.124.039-.167.093a.25.25 0 0 0 .033.352c.592.465 1.253.829 1.809 1.342.161.149.372.28.394.511.052.083.16.111.242.059s.111-.16.059-.243c-.154-.1-.203-.224-.301-.369-.087-.128-.247-.268-.352-.369-.486-.467-1.015-.895-1.533-1.325-.053-.044-.12-.057-.184-.051zm2.455-1.4c-.025.021-.021.059 0 .084.777.84.612.422.77.838.095.249-.404-.347-.645-.461-.117-.056.174.195.268.285a10.95 10.95 0 0 0 .754.638l.151.117c.03.019.05.027.092.05.061.08.133.162.159.218.074.064.188.05.251-.025s.058-.179-.016-.243c-.784-.688-.498-.58-.804-.721l-.302-.311-.125-.134c-.1-.076-.3-.235-.469-.327a.06.06 0 0 0-.084-.008zm-5.745-1.174c-.071-.045-.164-.028-.21.042s-.028.164.042.21l.846.814c.232.2-.429-.43-.637-.654-.059-.064.128.118.193.176l.201.167.812.722c.066.063.142.197.218.243.021.012.053.007.076.017.061.026.029.041.008.092-.006.013-.006.051-.017.042-.574-.53-.003.004-.008.017.06.077.174.085.251.025s.085-.166.025-.244c-.364-.337-.43-.429-.502-.519-.189-.243-.381-.497-.603-.697l-.218-.176c-.076-.055-.308-.219-.243-.151.506.53.002.003-.234-.126zm1.591 1.493l.201.176c.01.011-.028.007-.042.009-.024.004-.053.016-.075.008-.015-.005-.022-.026-.026-.042-.005-.024.009-.052 0-.075s-.037-.05-.058-.076zm.528-3.791c-.065.012-.127.049-.167.109-.08.118-.043.272.075.352l.93.679c.029.018.063.056.108.084l.495.394.192.126.176.126c-.635-.468-.002.001.184.109.019.016.051.01.067-.008s.011-.043-.008-.059c-.931-.938-.49-.557-.93-.939-.278-.243.534.519.804.771.052.049-.106-.104-.15-.159l-.268-.352-.62-.655c-.109-.104-.443-.406-.344-.293.488.556-.001-.001-.351-.252a.25.25 0 0 0-.193-.033z"/><path d="M161.6 192.424c-.039 0-.075.036-.075.076-.035.12-.083.236-.101.36-.017.119.004.241 0 .361l-.042.712-.117 1.443-.201 2.902-.109 2.91c-.003.179.14.324.319.327s.323-.14.326-.318l.193-5.796-.009-1.82c-.005-.242.025-.481-.008-.721-.017-.124-.075-.24-.109-.36 0-.04-.027-.076-.067-.076z"/><path d="M173.625 191.904c-1.129-.003-2.258.278-3.333.613l-1.482.536c-.861.303-1.739.568-2.647.68a5.84 5.84 0 0 1-3.056-.453c-.473-.207-.9-.515-1.366-.738-.046-.035-.107-.022-.142.025s-.03.107.017.142c.377.418.827.673 1.323.923 1.295.653 2.811.779 4.221.461.924-.208 1.829-.488 2.73-.78 1.422-.46 2.901-.943 4.413-.679.774.135 1.481.449 2.152.847a.37.37 0 0 0 .503-.134.37.37 0 0 0-.134-.503c-.654-.378-1.331-.694-2.077-.839-.375-.073-.746-.1-1.122-.101z"/><path d="M171.884 186.328a.39.39 0 0 0-.302.025.4.4 0 0 0-.175.537c.023.091-.085.176-.126.251-.022.04-.041.084-.059.126-.117.271-.225.57-.117.864.102.276.32.472.486.705.341.477.631.989.846 1.534.094.239.192.47.209.73.016.245-.015.456-.059.696a.18.18 0 0 0 .109.227c.093.031.195-.017.226-.109.497-1.007-.185-2.165-.603-3.062l-.276-.671-.117-.318c-.004-.013.023.033.033.025.036-.026.073-.196.092-.235s.05-.074.067-.117c.039-.098.077-.2.101-.302.031-.132.086-.269.067-.403-.016-.114-.113-.201-.168-.302a.4.4 0 0 0-.234-.201z"/><path d="M172.136 186.671c-.093.031-.14.134-.109.226.043.074.096.147.126.227.056.151.059.313.1.469a5.83 5.83 0 0 0 .469 1.183c.288.544.618 1.067 1.039 1.518.572.612 1.274 1.059 1.993 1.476.424.246.834.489 1.306.629.093.059.217.026.276-.067s.026-.209-.066-.269c-.62-.702-1.523-1.027-2.287-1.543-1.081-.729-1.728-1.701-2.261-2.868-.087-.191-.265-.422-.326-.612-.026-.081-.024-.168-.034-.252-.031-.092-.133-.149-.226-.117zm16.06 8.755a.32.32 0 0 0-.36.277c-.022.177.109.339.285.361.51.05 1.022.129 1.524.235.455.095.894.247 1.34.377 1.377.402 2.706.9 3.969 1.585l.562.327c.317.185.476.305.72.562.253.267.443.494.167.822-.09.107-.205.196-.318.277-.158.113-.322.219-.494.31-.295.155-.612.285-.929.386-.616.195-1.256.331-1.885.478l-3.19.604c-3.639.551-7.309.846-10.979 1.09l-4.573.302-3.71.176c-.549.026-1.092.013-1.641.034-.374.014-.748.051-1.122.067-.44.018-.876.019-1.315.025-.64.009-1.288-.023-1.926.017-.081-.001-.15.062-.151.142a.14.14 0 0 0 .142.143c.364.034.724.02 1.089.017l2.169-.017c.375.002.747.029 1.122.025.55-.006 1.1-.051 1.65-.059l3.71-.109c4.443-.168 8.893-.394 13.307-.956 1.066-.135 2.129-.247 3.191-.419 1.029-.167 2.062-.329 3.073-.587.599-.153 1.187-.349 1.767-.562.373-.137.758-.285 1.097-.495.168-.104.331-.234.469-.377.13-.135.238-.293.302-.47.188-.527-.114-1.048-.495-1.401-.18-.167-.423-.283-.628-.419-.183-.122-.369-.245-.561-.352-.519-.291-1.065-.529-1.608-.772-1.835-.819-3.786-1.345-5.77-1.644z"/><path d="M196.898 199.578c-.143.018-.244.15-.226.294.001.2-.03.352-.075.545-.025.106-.022.215-.084.31-.03.047-.083.073-.117.118-.064.085-.083.197-.142.285-.033.048-.081.081-.118.126-.175.211-.332.425-.561.587-.265.187-.615.28-.913.402a12.97 12.97 0 0 1-1.767.596l-.686.159-1.106.252-1.616.268c-3.025.52-6.098.613-9.153.839l-7.454.528-2.127.126-2.906.293-1.859.118c-.098.005-.173.087-.167.184s.086.174.184.168l1.867-.084 2.915-.058 2.135-.143 6.147-.377 4.036-.26 1.918-.177 3.693-.335 1.717-.193 1.583-.26c.485-.085.958-.219 1.432-.352.618-.174 1.234-.362 1.801-.671.247-.135.457-.319.695-.47.277-.176.597-.347.82-.595.127-.141.346-.415.402-.596.025-.077.019-.155.034-.235.025-.138.084-.318.092-.461.013-.234-.047-.471-.101-.696-.018-.144-.149-.253-.293-.235zm-9.328-2.817c-.069.007-.137.034-.184.092-.096.116-.082.291.033.386.059.068.109.142.176.202.061.054.146.083.209.134.3.24.593.647.771.981.321.603.424 1.287.569 1.946.106.48.266.962.469 1.409.036.091.136.137.226.1s.137-.135.101-.226c-.296-.858-.499-1.731-.729-2.609-.127-.487-.261-.982-.544-1.409-.139-.21-.315-.396-.477-.586-.061-.071-.106-.158-.176-.219s-.161-.094-.243-.142c-.058-.048-.132-.065-.201-.059z"/><path d="M186.783 194.454c-.203-.016-.458.009-.653.067s-.387.207-.469.394c-.2.453-.006-.006-.017.118a.23.23 0 1 0 .41.209l-.351.629c.158-.214.281-.456.427-.679.033-.051.109-.115.167-.134a.83.83 0 0 1 .252-.05c.098.012.189.058.284.084.14.036.707.253.67.494-.026.177-.156.34-.251.487-.152.235-.312.473-.427.729-.086.192-.069.425-.176.604-.124.208-.313.169-.519.193-.359.042-.82-.109-.905-.511-.021-.103-.028-.301.017-.395.02-.042.062-.068.084-.109.247-.445 0 .006.025-.083.061-.077.051-.191-.025-.252a.18.18 0 0 0-.251.025l.284-.62-.377.679c-.089.157-.222.327-.251.511-.103.659.735 1.021 1.24 1.133.171.038.291.045.46-.017.187-.069.387-.186.511-.344.186-.237.227-.569.394-.822.208-.315.534-.553.67-.914.277-.739-.565-1.373-1.223-1.426zm-4.381-.981c-.178-.027-.367-.048-.536.034-.139.066-.255.186-.301.335-.095.303.004-.006-.025.117a.27.27 0 0 0 .209.319c.104.021.191-.037.251-.117l.076-.152c.004-.01.022.002.033 0 .072-.009.146-.009.218 0a1.64 1.64 0 0 1 .218.051l.259.084a.76.76 0 0 1 .193.092c.18.123.271.309.419.461l.108.109a.44.44 0 0 1-.025.067c-.023.054-.117.244-.142.286l-.352.553c-.15.213-.558.747-.837.78-.063.008-.122-.017-.185-.017-.302.003-.453-.091-.703-.226-.037-.02-.079-.033-.117-.05.106-.203.22-.461.284-.655.038-.111.047-.235.093-.343.161-.384.001-.002.108-.344.029-.094-.023-.19-.117-.218s-.197.023-.226.117l-.1.336-.235.763c-.009.046-.109.341-.1.377.07.3.66.529.896.604a1.29 1.29 0 0 0 .184.042c.104.017.205-.018.301-.051.276-.092.504-.271.72-.461.441-.385.873-.88 1.031-1.459.043-.159.001-.243-.059-.386-.045-.108-.064-.208-.134-.31-.337-.493-.834-.654-1.407-.738zm-.402.688c-.054.098-.111.194-.142.302-.011.036.001 0 .209-.395-.008.041-.044.062-.067.093z"/><path d="M183.265 195.82c-.074-.02-.156.019-.176.093s.027.147.1.167l.503.21c.024.006.034.005.05.009.258.062.506.141.754.234l.134.051c.039.018.149.081.109.067-.521-.182.004.001.083.1a.17.17 0 0 0 .243-.033c.059-.078.045-.193-.033-.252-.885-.325-.487-.267-.888-.327-.264-.039.506.193.762.269.049.014-.09-.057-.134-.084-.136-.086-.138-.091-.285-.16-.204-.095-.424-.159-.636-.234l-.302-.11c.491.225.003.005-.284 0zm.427.47c-.126-.033-.339-.096-.26-.058.181.084.729.304.57.184-.101-.076-.274-.114-.31-.126zm.025-1.711c-.057.021-.098.066-.125.125-.054.12-.003.265.117.319l.996.302c.217.084-.454-.117-.686-.117-.125 0 .232.081.351.117.281.084.568.141.855.193.053.01.108.014.159.033.018.008.021.018.05.034.096.022.204.049.268.05.057.035.133.016.167-.042s.016-.133-.041-.167c-.963-.42-.575-.173-.963-.42-.251-.159.566.178.854.252.061.016-.119-.048-.176-.075-.113-.056-.212-.133-.327-.185-.216-.098-.453-.151-.678-.218l-.318-.092c.528.264-.001-.005-.319-.101a.24.24 0 0 0-.184-.008zm1.717 1.006c-.187-.043-.317-.077.084.05.03.01-.037-.025-.084-.05z"/><path d="M185.919 195.033c-.088-.044-.191-.012-.235.076-.306.557-.238.283-.31.562-.035.137.152-.242.193-.378.02-.066-.082.105-.126.16l-.268.335c-.04.06-.152.251-.109.193.212-.283 0-.007 0 .243-.041.074-.014.168.059.21s.168.014.209-.059c.332-.553.142-.34.335-.553.101-.111-.12.286-.125.436-.002.069.084-.115.117-.176.068-.128.121-.261.176-.395.028-.069.119-.27.075-.209-.21.29.001-.007.084-.21.044-.087.012-.191-.075-.235zm-7.052-3.162l-.301.009c-.168-.014-.37-.051-.536.008-.092.033-.159.102-.243.151-.5.289-.822.964-1.038 1.476l-.243.663c-.044.115-.104.202-.042.335.045.098.2.131.285.176.044.024.087.05.134.067.056.021.118.027.176.042.436.117 1.064.49 1.457.067.157-.169.195-.401.268-.612a4.45 4.45 0 0 1 .41-.872c.068-.11.141-.231.226-.327.033-.038.118-.052.109-.101-.06-.322-.003-.006.084-.151.037-.032.041-.088.008-.126s-.088-.041-.125-.008c-.309-.113-.222-.161-.31-.109-.068.04.142.106.15.185.006.054-.077.079-.117.117s-.078.065-.117.1c-.171.157-.317.35-.427.554-.134.249-.193.518-.293.78-.046.12-.095.279-.21.352-.074.048-.219.02-.301.017-.248-.008-.462-.066-.678-.193l-.319-.176c.004-.022.003-.045.009-.067.033-.129.074-.263.125-.386.151-.357.329-.695.561-1.006.118-.158.241-.305.428-.378.08-.031.086.006.192-.016.158-.033.325-.161.494-.11.061.019.123.069.184.093.211.081.002.002.017.017.118.095.29.076.385-.043.044-.054.062-.119.059-.184.022.06.091.254.092.193.002-.114-.064-.209-.142-.302-.017-.032-.021-.068-.05-.092l.033.075-.117-.142c-.05-.063-.161-.076-.277-.076z"/><path d="M178.842 194.236c-.109-.045-.239 0-.285.109s.009.24.117.286c1.105.447.599.28 1.106.444.252.082-.487-.225-.745-.285-.128-.03.227.133.343.193l.72.335c.126.048.507.177.385.118-.593-.29 0-.001.402.084.046.021.096.003.118-.042s.003-.097-.042-.118l-1.064-.562c-.232-.132.483.259.745.311.131.025-.22-.166-.335-.235a5.66 5.66 0 0 0-.711-.352l-.377-.143c.567.349-.001.004-.377-.143zm.437-1.015c-.056-.017-.117.019-.134.075s.019.109.075.126l.746.244-.386-.084.746.201.368.117.36.151c-.615-.198-.004.003.377.093.069.025.151-.015.176-.084s-.014-.142-.084-.168l-1.122-.335c-.247-.084.513.107.771.151.129.021-.258-.062-.386-.093l-.753-.193-.369-.126c.621.195.002-.002-.385-.075z"/></g></g><defs><radialGradient id="B" cx="0" cy="0" r="1" gradientUnits="userSpaceOnUse" gradientTransform="translate(144.315 128.881) scale(8.61919 8.63204)"><stop stop-color="#dea88e"/><stop offset="1" stop-color="#f5e8d6"/></radialGradient><radialGradient id="C" cx="0" cy="0" r="1" gradientUnits="userSpaceOnUse" gradientTransform="translate(17.2073 135.174) rotate(-1.45846) scale(16.3636 16.3879)"><stop stop-color="#dea88e"/><stop offset="1" stop-color="#f5e8d6"/></radialGradient><radialGradient id="D" cx="0" cy="0" r="1" gradientUnits="userSpaceOnUse" gradientTransform="translate(77.6881 27.9887) scale(3.67263 3.6781)"><stop stop-color="#dea88e"/><stop offset="1" stop-color="#f5e8d6"/></radialGradient><clipPath id="E"><path fill="#fff" d="M0 0h197.587v220H0z"/></clipPath></defs></svg>