<svg width="145" height="172" viewBox="0 0 145 172" fill="none" xmlns="http://www.w3.org/2000/svg">
<g clip-path="url(#clip0_2403_958)">
<path d="M7.25234 119.71C6.00574 104.002 16.101 91.8673 30.8367 89.4967C47.6981 86.7801 60.1352 99.6351 60.8991 117.044C61.0504 120.481 60.4019 128.357 53.6068 137.047C50.6453 140.83 49.3915 142.589 45.2554 146.552C41.1841 150.443 41.4147 151.725 39.3179 157.771C37.4155 163.269 35.0737 167.218 30.6926 168.853C26.5565 170.396 20.6694 169.026 17.8664 166.36C14.5373 163.197 15.2435 157.721 15.0778 156.431" stroke="#070D1C" stroke-width="3.60287" stroke-miterlimit="10" stroke-linecap="round"/>
<path d="M18.4258 140.189C22.5259 141.4 29.3065 138.842 28.5859 130.944C27.959 124.027 21.0559 124.812 19.5859 119.689C17.7413 113.254 21.409 104.268 31.7132 102.438C40.4898 100.882 49.6411 107.266 49.8861 116.497C49.9653 119.372 49.324 121.98 47.7532 124.927C46.2039 127.846 44.0206 129.64 41.1455 132.198" stroke="#070D1C" stroke-width="3.60287" stroke-miterlimit="10" stroke-linecap="round"/>
<path d="M72.5944 140.477C72.443 141.464 72.2917 143.677 72.1476 144.39C71.8089 146.069 70.375 147.287 68.6672 147.373C66.5992 147.474 64.2573 147.445 61.7209 147.171C56.4247 146.602 52.1228 145.19 49.082 143.9" stroke="#070D1C" stroke-width="3.60287" stroke-miterlimit="10" stroke-linecap="round"/>
<path d="M75.8273 105.587C75.3734 113.679 74.5879 124.156 73.7305 132.501" stroke="#070D1C" stroke-width="3.60287" stroke-miterlimit="10" stroke-linecap="round"/>
<path d="M7.18612 115.509C6.59525 115.481 6.20614 115.459 6.20614 115.459C4.37588 115.221 2.87709 115.459 2.56724 113.636C1.95475 109.99 1.78902 106.409 2.31504 102.856C3.13649 97.3654 4.31823 95.0379 5.89629 92.1268C11.1277 82.4999 21.6913 80.295 27.7369 79.1421C49.3901 75.0132 68.8961 87.5728 76.037 92.7969C76.2531 92.9555 75.9577 101.79 75.8208 105.587" stroke="#070D1C" stroke-width="3.60287" stroke-miterlimit="10" stroke-linecap="round"/>
<path d="M10.4805 86.3909C11.4028 87.9545 12.4837 89.6118 13.2907 90.5053C14.8616 92.2347 16.4973 93.2868 17.6142 93.8848" stroke="#070D1C" stroke-width="3.60287" stroke-miterlimit="10" stroke-linecap="round"/>
<path d="M107.303 58.7139C109.09 63.9524 113.528 74.3071 114.962 76.8579C115.431 77.8811 113.391 79.3871 112.721 79.6537C112.433 79.7834 112.152 79.9059 111.857 80.0284C111.244 80.2734 109.018 80.6337 108.578 79.8123C107.396 77.0741 102.626 67.3824 99.7656 62.5185" stroke="#070D1C" stroke-width="3.60287" stroke-miterlimit="10" stroke-linecap="round"/>
<path d="M81.3853 18.3183C84.2892 16.4953 87.9209 15.8612 91.4661 16.8483L91.6174 16.8916C98.3115 18.8443 102.145 25.8555 100.193 32.5424C100.063 32.9892 99.9112 33.4215 99.7311 33.8323C98.9889 35.6337 97.8648 37.1757 96.4885 38.4151C93.5341 41.0452 89.3908 42.2342 85.298 41.3046C85.0458 41.247 84.7936 41.1821 84.5414 41.1101C80.2323 39.8491 77.105 36.4912 75.9449 32.4704C75.318 30.2582 75.282 27.8371 75.9737 25.4664" stroke="#070D1C" stroke-width="3.60287" stroke-miterlimit="10" stroke-linecap="round"/>
<path d="M89.8658 55.4496C86.8394 55.6585 83.7265 55.3415 80.6496 54.4408C66.6056 50.3407 58.5424 35.6194 62.6425 21.5754C66.7425 7.53139 81.4639 -0.53183 95.5079 3.56824C109.559 7.67551 117.615 22.3896 113.515 36.4336C112.326 40.5121 110.236 44.1005 107.52 47.0188" stroke="#070D1C" stroke-width="3.60287" stroke-miterlimit="10" stroke-linecap="round"/>
<path d="M85.2969 41.3118C86.8245 46.0244 88.3449 50.7369 89.8653 55.4495C90.24 56.6168 90.6219 57.7986 90.9966 58.9659C93.0359 61.1276 95.7812 62.3742 98.5987 62.5255C99.8885 62.5976 101.178 62.4391 102.432 62.0427C103.873 61.5888 105.177 60.8394 106.272 59.8594C108.621 57.7914 109.515 53.7994 109.544 50.4775L107.512 47.0332C104.918 42.6377 102.324 38.235 99.7228 33.8467" stroke="#070D1C" stroke-width="3.60287" stroke-miterlimit="10" stroke-linecap="round"/>
<path d="M69.3945 88.3942C69.971 87.5727 71.5995 84.5319 72.4642 83.8474C73.5666 82.9755 75.1159 83.1268 76.2256 83.7033C78.2936 84.7769 79.252 87.0539 81.3272 90.7361C82.3648 92.5735 84.5842 97.0699 84.6923 98.4318C84.7427 99.0803 83.4025 100.284 81.6155 100.284C80.2103 100.284 76.0526 92.8041 76.0454 92.8041" stroke="#070D1C" stroke-width="3.60287" stroke-miterlimit="10" stroke-linecap="round"/>
<path d="M43.5156 78.7819C43.5156 78.6234 43.5445 78.4577 43.5805 78.2919L43.948 76.5698C44.2722 75.0565 45.771 74.091 47.2914 74.4152L52.5588 75.5393C54.0793 75.8636 55.0448 77.3624 54.7206 78.8828L54.3459 80.5978C54.3098 80.7779 54.2594 80.9436 54.1873 81.1094" stroke="#070D1C" stroke-width="3.60287" stroke-miterlimit="10" stroke-linecap="round"/>
<path d="M83.3516 99.8874C87.041 104.831 89.2747 114.198 96.149 123.746C101.878 131.701 109.292 138.64 121.204 137.869C129.44 137.336 138.094 132.104 141.452 124.106C147.274 110.242 135.255 92.624 124.698 89.54C122.731 88.9635 120.656 88.56 117.802 86.9603C114.949 85.3606 113.155 81.1525 112.182 79.8843" stroke="#070D1C" stroke-width="3.60287" stroke-miterlimit="10" stroke-linecap="round"/>
</g>
<defs>
<clipPath id="clip0_2403_958">
<rect width="145" height="172" fill="white"/>
</clipPath>
</defs>
</svg>
