<svg width="145" height="172" viewBox="0 0 145 172" fill="none" xmlns="http://www.w3.org/2000/svg">
<path d="M7.25112 119.71C6.00452 104.002 16.0998 91.8673 30.8355 89.4967C47.6969 86.7801 60.134 99.6351 60.8979 117.044C61.0492 120.481 60.4007 128.357 53.6056 137.047C50.6441 140.83 49.3903 142.589 45.2542 146.552C41.1829 150.443 41.4135 151.725 39.3167 157.771C37.4143 163.269 35.0725 167.218 30.6914 168.853C26.5553 170.396 20.6682 169.026 17.8652 166.36C14.5361 163.197 15.2423 157.721 15.0766 156.431" stroke="#231F20" stroke-width="3.60287" stroke-miterlimit="10" stroke-linecap="round"/>
<path d="M18.427 140.189C22.5271 141.4 29.3077 138.842 28.5871 130.944C27.9602 124.027 21.0571 124.812 19.5871 119.689C17.7425 113.254 21.4102 104.268 31.7144 102.438C40.491 100.882 49.6423 107.266 49.8873 116.497C49.9665 119.372 49.3252 121.98 47.7544 124.927C46.2051 127.846 44.0218 129.64 41.1467 132.198" stroke="#231F20" stroke-width="3.60287" stroke-miterlimit="10" stroke-linecap="round"/>
<path d="M72.5927 140.477C72.4413 141.464 72.29 143.677 72.1459 144.39C71.8072 146.069 70.3733 147.287 68.6655 147.373C66.5975 147.474 64.2556 147.445 61.7192 147.171C56.423 146.602 52.1211 145.19 49.0803 143.9" stroke="#231F20" stroke-width="3.60287" stroke-miterlimit="10" stroke-linecap="round"/>
<path d="M75.8278 105.587C75.3739 113.679 74.5884 124.156 73.731 132.501" stroke="#231F20" stroke-width="3.60287" stroke-miterlimit="10" stroke-linecap="round"/>
<path d="M7.18612 115.509C6.59525 115.481 6.20614 115.459 6.20614 115.459C4.37588 115.221 2.87709 115.459 2.56724 113.636C1.95475 109.99 1.78902 106.409 2.31504 102.856C3.13649 97.3654 4.31823 95.0379 5.89629 92.1268C11.1277 82.4999 21.6913 80.295 27.7369 79.1421C49.3901 75.0132 68.8961 87.5728 76.037 92.7969C76.2531 92.9555 75.9577 101.79 75.8208 105.587" stroke="#231F20" stroke-width="3.60287" stroke-miterlimit="10" stroke-linecap="round"/>
<path d="M10.479 86.3909C11.4013 87.9545 12.4822 89.6118 13.2892 90.5053C14.8601 92.2347 16.4958 93.2868 17.6127 93.8848" stroke="#231F20" stroke-width="3.60287" stroke-miterlimit="10" stroke-linecap="round"/>
<path d="M107.303 58.7139C109.09 63.9524 113.528 74.3071 114.962 76.8579C115.431 77.8811 113.391 79.3871 112.721 79.6537C112.433 79.7834 112.152 79.9059 111.857 80.0284C111.244 80.2734 109.018 80.6337 108.578 79.8123C107.396 77.0741 102.626 67.3824 99.7654 62.5185" stroke="#231F20" stroke-width="3.60287" stroke-miterlimit="10" stroke-linecap="round"/>
<path d="M81.3836 18.3183C84.2875 16.4953 87.9192 15.8612 91.4644 16.8483L91.6157 16.8916C98.3098 18.8443 102.143 25.8555 100.191 32.5424C100.061 32.9892 99.9095 33.4215 99.7294 33.8323C98.9872 35.6337 97.8631 37.1757 96.4868 38.4151C93.5324 41.0452 89.3891 42.2342 85.2963 41.3046C85.0441 41.247 84.7919 41.1821 84.5397 41.1101C80.2306 39.8491 77.1033 36.4912 75.9432 32.4704C75.3163 30.2582 75.2803 27.8371 75.972 25.4664" stroke="#231F20" stroke-width="3.60287" stroke-miterlimit="10" stroke-linecap="round"/>
<path d="M89.8648 55.4496C86.8384 55.6585 83.7255 55.3415 80.6486 54.4408C66.6046 50.3407 58.5414 35.6194 62.6415 21.5754C66.7415 7.53139 81.4629 -0.531829 95.5069 3.56824C109.558 7.67551 117.614 22.3896 113.514 36.4336C112.325 40.5121 110.235 44.1005 107.519 47.0188" stroke="#231F20" stroke-width="3.60287" stroke-miterlimit="10" stroke-linecap="round"/>
<path d="M85.2964 41.3118C86.824 46.0244 88.3444 50.7369 89.8648 55.4495C90.2395 56.6168 90.6214 57.7986 90.9961 58.9659C93.0354 61.1276 95.7807 62.3742 98.5982 62.5255C99.888 62.5976 101.178 62.4391 102.432 62.0427C103.873 61.5888 105.177 60.8394 106.272 59.8594C108.621 57.7914 109.515 53.7994 109.544 50.4775L107.512 47.0332C104.918 42.6377 102.324 38.235 99.7223 33.8467" stroke="#231F20" stroke-width="3.60287" stroke-miterlimit="10" stroke-linecap="round"/>
<path d="M69.3933 88.3942C69.9698 87.5727 71.5983 84.5319 72.463 83.8474C73.5654 82.9755 75.1147 83.1268 76.2244 83.7033C78.2924 84.7769 79.2508 87.0539 81.326 90.7361C82.3636 92.5735 84.583 97.0699 84.6911 98.4318C84.7415 99.0803 83.4013 100.284 81.6143 100.284C80.2091 100.284 76.0514 92.8041 76.0442 92.8041" stroke="#231F20" stroke-width="3.60287" stroke-miterlimit="10" stroke-linecap="round"/>
<path d="M43.5173 78.7819C43.5173 78.6234 43.5462 78.4577 43.5822 78.2919L43.9497 76.5698C44.2739 75.0565 45.7727 74.091 47.2931 74.4152L52.5605 75.5393C54.081 75.8636 55.0465 77.3624 54.7223 78.8828L54.3476 80.5978C54.3115 80.7779 54.2611 80.9436 54.189 81.1094" stroke="#231F20" stroke-width="3.60287" stroke-miterlimit="10" stroke-linecap="round"/>
<path d="M83.3508 99.8874C87.0402 104.831 89.2739 114.198 96.1482 123.746C101.877 131.701 109.291 138.64 121.203 137.869C129.439 137.336 138.093 132.104 141.451 124.106C147.273 110.242 135.254 92.624 124.697 89.54C122.73 88.9635 120.655 88.56 117.801 86.9603C114.948 85.3606 113.154 81.1525 112.181 79.8843" stroke="#231F20" stroke-width="3.60287" stroke-miterlimit="10" stroke-linecap="round"/>
</svg>
