<svg width="118" height="144" viewBox="0 0 118 144" fill="none" xmlns="http://www.w3.org/2000/svg">
<g clip-path="url(#clip0_2403_972)">
<path d="M72.1017 10.4678H50.1953" stroke="#070D1C" stroke-width="2.56575" stroke-miterlimit="10" stroke-linecap="round"/>
<path d="M44.965 10.4678H23.0586" stroke="#070D1C" stroke-width="2.56575" stroke-miterlimit="10" stroke-linecap="round"/>
<path d="M44.965 10.4678H23.0586" stroke="#070D1C" stroke-width="2.56575" stroke-miterlimit="10" stroke-linecap="round"/>
<path d="M94.0184 85.4231L92.9922 26.8907V20.9579C92.9922 15.1637 88.2968 10.4678 82.5034 10.4678H77.3359" stroke="#070D1C" stroke-width="2.56575" stroke-miterlimit="10" stroke-linecap="round"/>
<path d="M72.1017 10.4678H50.1953" stroke="#070D1C" stroke-width="2.56575" stroke-miterlimit="10" stroke-linecap="round"/>
<path d="M2.68359 115.118C2.68359 120.913 7.37893 125.608 13.1724 125.608H61.3932" stroke="#070D1C" stroke-width="2.56575" stroke-miterlimit="10" stroke-linecap="round"/>
<path d="M17.8203 10.4678H12.6529C6.8594 10.4678 2.16406 15.1637 2.16406 20.9579V101.276" stroke="#070D1C" stroke-width="2.56575" stroke-miterlimit="10" stroke-linecap="round"/>
<path d="M85.2945 26.8911H2.16406" stroke="#070D1C" stroke-width="2.56575" stroke-miterlimit="10" stroke-linecap="round"/>
<path d="M23.0586 10.4678H44.965" stroke="#070D1C" stroke-width="2.56575" stroke-miterlimit="10" stroke-linecap="round"/>
<path d="M50.1953 10.4678H72.1017" stroke="#070D1C" stroke-width="2.56575" stroke-miterlimit="10" stroke-linecap="round"/>
<path d="M23.0544 4.6174C23.0544 3.17185 21.8828 2 20.4374 2C18.992 2 17.8203 3.17185 17.8203 4.6174V18.3716C17.8203 19.8172 18.992 20.989 20.4374 20.989C21.8828 20.989 23.0544 19.8172 23.0544 18.3716V4.6174Z" stroke="#070D1C" stroke-width="2.56575" stroke-miterlimit="10" stroke-linecap="round"/>
<path d="M50.199 4.6174C50.199 3.17185 49.0273 2 47.582 2C46.1365 2 44.9648 3.17185 44.9648 4.6174V18.3716C44.9648 19.8172 46.1365 20.989 47.582 20.989C49.0273 20.989 50.199 19.8172 50.199 18.3716V4.6174Z" stroke="#070D1C" stroke-width="2.56575" stroke-miterlimit="10" stroke-linecap="round"/>
<path d="M77.3358 4.6174C77.3358 3.17185 76.164 2 74.7187 2C73.2733 2 72.1016 3.17185 72.1016 4.6174V18.3716C72.1016 19.8172 73.2733 20.989 74.7187 20.989C76.164 20.989 77.3358 19.8172 77.3358 18.3716V4.6174Z" stroke="#070D1C" stroke-width="2.56575" stroke-miterlimit="10" stroke-linecap="round"/>
<path d="M88.128 113.235C88.128 113.409 88.0714 113.568 87.9791 113.702C87.8354 113.913 87.5892 114.051 87.312 114.051C86.8605 114.051 86.4961 113.681 86.4961 113.235C86.4961 112.788 86.8605 112.413 87.312 112.413C87.7636 112.413 88.128 112.784 88.128 113.235Z" stroke="#070D1C" stroke-width="2.56575" stroke-miterlimit="10"/>
<path d="M94.1903 85.5928C92.0402 85.0745 89.7926 84.8025 87.4833 84.8025C86.2621 84.8025 85.0613 84.8795 83.8811 85.0282C77.3897 85.8443 71.5757 88.8363 67.1934 93.25C66.9881 93.4605 66.7829 93.6708 66.5827 93.8864C65.3203 95.2413 64.1863 96.7142 63.2062 98.295C62.7803 98.9775 62.38 99.6806 62.0157 100.399C60.0195 104.3 58.8906 108.718 58.8906 113.404C58.8906 114.825 58.9933 116.222 59.1933 117.582C59.6603 120.764 60.6507 123.771 62.0721 126.522C66.8239 135.714 76.4198 142 87.4833 142C103.278 142 116.076 129.196 116.076 113.404C116.076 99.9166 106.747 88.6105 94.1903 85.5928Z" stroke="#070D1C" stroke-width="2.56575" stroke-miterlimit="10"/>
<path d="M88.128 113.235C88.128 113.409 88.0714 113.568 87.9791 113.702C87.8354 113.913 87.5892 114.051 87.312 114.051C86.8605 114.051 86.4961 113.681 86.4961 113.235C86.4961 112.788 86.8605 112.413 87.312 112.413C87.7636 112.413 88.128 112.784 88.128 113.235Z" stroke="#070D1C" stroke-width="2.56575" stroke-miterlimit="10"/>
<path d="M87.3164 112.413V95.3699" stroke="#070D1C" stroke-width="2.56575" stroke-miterlimit="10" stroke-linecap="round"/>
<path d="M87.3164 113.229L97.5949 120.425" stroke="#070D1C" stroke-width="2.56575" stroke-miterlimit="10" stroke-linecap="round"/>
<path d="M88.128 113.235C88.128 113.409 88.0714 113.568 87.9791 113.702C87.8354 113.913 87.5892 114.051 87.312 114.051C86.8605 114.051 86.4961 113.681 86.4961 113.235C86.4961 112.788 86.8605 112.413 87.312 112.413C87.7636 112.413 88.128 112.784 88.128 113.235Z" stroke="#070D1C" stroke-width="2.56575" stroke-miterlimit="10"/>
<path d="M110.762 113.4C110.762 118.223 109.294 122.703 106.786 126.419C104.276 130.135 100.72 133.086 96.5431 134.857C93.7568 136.037 90.6932 136.689 87.4809 136.689C74.6213 136.689 64.1992 126.265 64.1992 113.404C64.1992 100.543 74.6213 90.1196 87.4809 90.1196C100.34 90.1196 110.762 100.543 110.762 113.404V113.4Z" stroke="#070D1C" stroke-width="2.56575" stroke-miterlimit="10" stroke-linecap="round"/>
<path d="M2.16406 109.442C2.16406 109.488 2.16406 109.396 2.16406 109.442Z" stroke="#070D1C" stroke-width="2.56575" stroke-miterlimit="10" stroke-linecap="round"/>
<path d="M43.7305 43.781L78.9788 44.0273" stroke="#070D1C" stroke-width="2.56575" stroke-linecap="round" stroke-linejoin="round"/>
<path d="M43.5273 50.3193L78.7757 50.5657" stroke="#070D1C" stroke-width="2.56575" stroke-linecap="round" stroke-linejoin="round"/>
<path d="M43.875 68.7542L79.1182 68.9952" stroke="#070D1C" stroke-width="2.56575" stroke-linecap="round" stroke-linejoin="round"/>
<path d="M43.6719 75.2922L78.9202 75.5385" stroke="#070D1C" stroke-width="2.56575" stroke-linecap="round" stroke-linejoin="round"/>
<path d="M66.5851 93.8864L43.3086 93.7222" stroke="#070D1C" stroke-width="2.56575" stroke-linecap="round" stroke-linejoin="round"/>
<path d="M62.0124 100.399L43.0977 100.266" stroke="#070D1C" stroke-width="2.56575" stroke-linecap="round" stroke-linejoin="round"/>
<path d="M15.4648 47.743L20.6579 51.9874L30.6491 39.198" stroke="#070D1C" stroke-width="2.56575" stroke-linecap="round" stroke-linejoin="round"/>
<path d="M27.519 64.1455H18.5953C17.3087 64.1455 16.2656 65.1887 16.2656 66.4755V75.4004C16.2656 76.6872 17.3087 77.7303 18.5953 77.7303H27.519C28.8057 77.7303 29.8487 76.6872 29.8487 75.4004V66.4755C29.8487 65.1887 28.8057 64.1455 27.519 64.1455Z" stroke="#070D1C" stroke-width="2.56575" stroke-miterlimit="10" stroke-linecap="round"/>
<path d="M27.8354 89.8833H18.9117C17.6251 89.8833 16.582 90.9265 16.582 92.2133V101.138C16.582 102.425 17.6251 103.468 18.9117 103.468H27.8354C29.1221 103.468 30.1651 102.425 30.1651 101.138V92.2133C30.1651 90.9265 29.1221 89.8833 27.8354 89.8833Z" stroke="#070D1C" stroke-width="2.56575" stroke-miterlimit="10" stroke-linecap="round"/>
</g>
<defs>
<clipPath id="clip0_2403_972">
<rect width="118" height="144" fill="white"/>
</clipPath>
</defs>
</svg>
