<svg width="109" height="133" viewBox="0 0 109 133" fill="none" xmlns="http://www.w3.org/2000/svg">
<path d="M66.6028 9.66821H46.3672" stroke="#231F20" stroke-width="2.37006" stroke-miterlimit="10" stroke-linecap="round"/>
<path d="M41.5325 9.66821H21.2969" stroke="#231F20" stroke-width="2.37006" stroke-miterlimit="10" stroke-linecap="round"/>
<path d="M41.5325 9.66821H21.2969" stroke="#231F20" stroke-width="2.37006" stroke-miterlimit="10" stroke-linecap="round"/>
<path d="M86.8486 78.8978L85.9006 24.8366V19.357C85.9006 14.0054 81.5634 9.66821 76.2118 9.66821H71.4385" stroke="#231F20" stroke-width="2.37006" stroke-miterlimit="10" stroke-linecap="round"/>
<path d="M66.6028 9.66821H46.3672" stroke="#231F20" stroke-width="2.37006" stroke-miterlimit="10" stroke-linecap="round"/>
<path d="M2.479 106.324C2.479 111.676 6.81622 116.013 12.1678 116.013H56.7108" stroke="#231F20" stroke-width="2.37006" stroke-miterlimit="10" stroke-linecap="round"/>
<path d="M16.4621 9.66821H11.6888C6.33722 9.66821 2 14.0054 2 19.357V93.54" stroke="#231F20" stroke-width="2.37006" stroke-miterlimit="10" stroke-linecap="round"/>
<path d="M78.79 24.8369H2" stroke="#231F20" stroke-width="2.37006" stroke-miterlimit="10" stroke-linecap="round"/>
<path d="M21.2969 9.66821H41.5325" stroke="#231F20" stroke-width="2.37006" stroke-miterlimit="10" stroke-linecap="round"/>
<path d="M46.3672 9.66821H66.6028" stroke="#231F20" stroke-width="2.37006" stroke-miterlimit="10" stroke-linecap="round"/>
<path d="M21.2973 4.26463C21.2973 2.9295 20.215 1.84717 18.8799 1.84717C17.5447 1.84717 16.4624 2.9295 16.4624 4.26463V16.9682C16.4624 18.3033 17.5447 19.3856 18.8799 19.3856C20.215 19.3856 21.2973 18.3033 21.2973 16.9682V4.26463Z" stroke="#231F20" stroke-width="2.37006" stroke-miterlimit="10" stroke-linecap="round"/>
<path d="M46.372 4.26463C46.372 2.9295 45.2897 1.84717 43.9546 1.84717C42.6194 1.84717 41.5371 2.9295 41.5371 4.26463V16.9682C41.5371 18.3033 42.6194 19.3856 43.9546 19.3856C45.2897 19.3856 46.372 18.3033 46.372 16.9682V4.26463Z" stroke="#231F20" stroke-width="2.37006" stroke-miterlimit="10" stroke-linecap="round"/>
<path d="M71.438 4.26463C71.438 2.9295 70.3556 1.84717 69.0205 1.84717C67.6854 1.84717 66.603 2.9295 66.603 4.26463V16.9682C66.603 18.3033 67.6854 19.3856 69.0205 19.3856C70.3556 19.3856 71.438 18.3033 71.438 16.9682V4.26463Z" stroke="#231F20" stroke-width="2.37006" stroke-miterlimit="10" stroke-linecap="round"/>
<path d="M81.4063 104.585C81.4063 104.746 81.3541 104.893 81.2688 105.016C81.1361 105.211 80.9086 105.339 80.6526 105.339C80.2355 105.339 79.8989 104.997 79.8989 104.585C79.8989 104.172 80.2355 103.826 80.6526 103.826C81.0697 103.826 81.4063 104.168 81.4063 104.585Z" stroke="#231F20" stroke-width="2.37006" stroke-miterlimit="10"/>
<path d="M87.0048 79.0544C85.0187 78.5757 82.9425 78.3245 80.8094 78.3245C79.6813 78.3245 78.5721 78.3956 77.4819 78.533C71.4856 79.2867 66.1151 82.0502 62.067 86.1267C61.8774 86.3211 61.6878 86.5154 61.5029 86.7145C60.3368 87.9659 59.2893 89.3263 58.3839 90.7863C57.9905 91.4167 57.6207 92.0661 57.2842 92.7297C55.4403 96.3322 54.3975 100.413 54.3975 104.741C54.3975 106.054 54.4923 107.344 54.6771 108.6C55.1085 111.539 56.0233 114.316 57.3363 116.857C61.7257 125.347 70.5897 131.153 80.8094 131.153C95.3996 131.153 107.221 119.327 107.221 104.741C107.221 92.2841 98.6039 81.8416 87.0048 79.0544V79.0544Z" stroke="#231F20" stroke-width="2.37006" stroke-miterlimit="10"/>
<path d="M81.4063 104.585C81.4063 104.746 81.3541 104.893 81.2688 105.016C81.1361 105.211 80.9086 105.339 80.6526 105.339C80.2355 105.339 79.8989 104.997 79.8989 104.585C79.8989 104.172 80.2355 103.826 80.6526 103.826C81.0697 103.826 81.4063 104.168 81.4063 104.585Z" stroke="#231F20" stroke-width="2.37006" stroke-miterlimit="10"/>
<path d="M80.6577 103.826V88.0845" stroke="#231F20" stroke-width="2.37006" stroke-miterlimit="10" stroke-linecap="round"/>
<path d="M80.6577 104.58L90.1522 111.226" stroke="#231F20" stroke-width="2.37006" stroke-miterlimit="10" stroke-linecap="round"/>
<path d="M81.4063 104.585C81.4063 104.746 81.3541 104.893 81.2688 105.016C81.1361 105.211 80.9086 105.339 80.6526 105.339C80.2355 105.339 79.8989 104.997 79.8989 104.585C79.8989 104.172 80.2355 103.826 80.6526 103.826C81.0697 103.826 81.4063 104.168 81.4063 104.585Z" stroke="#231F20" stroke-width="2.37006" stroke-miterlimit="10"/>
<path d="M102.315 104.737C102.315 109.192 100.959 113.33 98.6415 116.762C96.3236 120.194 93.0387 122.92 89.1802 124.555C86.6064 125.645 83.7765 126.247 80.8092 126.247C68.9304 126.247 59.3032 116.62 59.3032 104.741C59.3032 92.8626 68.9304 83.2354 80.8092 83.2354C92.6879 83.2354 102.315 92.8626 102.315 104.741V104.737Z" stroke="#231F20" stroke-width="2.37006" stroke-miterlimit="10" stroke-linecap="round"/>
<path d="M2 101.082C2 101.125 2 101.039 2 101.082" stroke="#231F20" stroke-width="2.37006" stroke-miterlimit="10" stroke-linecap="round"/>
<path d="M40.395 40.4365L72.9549 40.664" stroke="#231F20" stroke-width="2.37006" stroke-linecap="round" stroke-linejoin="round"/>
<path d="M40.2051 46.4753L72.765 46.7029" stroke="#231F20" stroke-width="2.37006" stroke-linecap="round" stroke-linejoin="round"/>
<path d="M40.5278 63.502L73.083 63.7247" stroke="#231F20" stroke-width="2.37006" stroke-linecap="round" stroke-linejoin="round"/>
<path d="M40.3379 69.5408L72.8978 69.7683" stroke="#231F20" stroke-width="2.37006" stroke-linecap="round" stroke-linejoin="round"/>
<path d="M61.5032 86.7144L40.002 86.5627" stroke="#231F20" stroke-width="2.37006" stroke-linecap="round" stroke-linejoin="round"/>
<path d="M57.2841 92.7294L39.812 92.6062" stroke="#231F20" stroke-width="2.37006" stroke-linecap="round" stroke-linejoin="round"/>
<path d="M14.2861 44.0959L19.0831 48.016L28.3122 36.2036" stroke="#231F20" stroke-width="2.37006" stroke-linecap="round" stroke-linejoin="round"/>
<path d="M25.421 59.2454H17.1779C15.9894 59.2454 15.0259 60.2089 15.0259 61.3974V69.6405C15.0259 70.829 15.9894 71.7925 17.1779 71.7925H25.421C26.6095 71.7925 27.573 70.829 27.573 69.6405V61.3974C27.573 60.2089 26.6095 59.2454 25.421 59.2454Z" stroke="#231F20" stroke-width="2.37006" stroke-miterlimit="10" stroke-linecap="round"/>
<path d="M25.7149 83.0171H17.4718C16.2833 83.0171 15.3198 83.9806 15.3198 85.1691V93.4122C15.3198 94.6007 16.2833 95.5642 17.4718 95.5642H25.7149C26.9034 95.5642 27.8669 94.6007 27.8669 93.4122V85.1691C27.8669 83.9806 26.9034 83.0171 25.7149 83.0171Z" stroke="#231F20" stroke-width="2.37006" stroke-miterlimit="10" stroke-linecap="round"/>
</svg>
