<svg width="136" height="136" viewBox="0 0 136 136" fill="none" xmlns="http://www.w3.org/2000/svg">
<path d="M38.7892 119.934C37.0884 120.923 29.4702 124.079 20.6232 122.107C11.1295 119.992 6.90653 112.691 5.58725 110.608C4.3391 108.642 1.04089 102.996 2.26964 94.3564C3.36257 86.6865 6.53791 81.0666 11.5176 77.8136C15.0033 75.5308 18.1334 73.4936 25.4476 73.2091C29.1209 73.0668 34.3528 73.3514 37.9356 71.3272C41.1368 69.5228 48.5092 62.9717 50.4106 53.187" stroke="black" stroke-width="3.23354" stroke-miterlimit="10" stroke-linecap="round"/>
<path d="M50.1685 46.7133C49.6706 43.7061 45.3182 39.8 43.9795 34.3094C43.0806 30.6103 41.7031 19.7197 48.1702 11.1508C55.4845 1.46314 67.4809 1.95463 69.5633 2.02577C73.8704 2.16158 82.0641 3.35152 88.971 13.5436C91.1957 16.8354 93.7307 26.4196 92.3145 31.341C90.6718 37.0191 89.3719 38.8299 86.8692 43.2922C85.8797 45.0512 83.3382 53.1545 87.3089 60.3135C90.4067 65.8882 94.7461 69.4644 96.4469 70.6285C102.675 74.9033 108.793 71.9543 115.163 73.7586C118.448 74.6899 122.755 76.0803 128.026 81.1893" stroke="black" stroke-width="3.23354" stroke-miterlimit="10" stroke-linecap="round"/>
<path d="M132.853 89.9004C133.545 92.0345 135.44 99.8985 132.006 107.659C127.99 116.739 118.839 122.216 111.227 122.805C100.278 123.646 95.0786 119.604 89.795 113.156C84.5114 106.708 84.0458 103.449 77.6628 99.9955C72.5409 97.2276 63.1442 97.7838 59.5356 99.407C55.9269 101.03 52.8292 101.767 47.2287 112.011C45.6508 114.896 45.1787 115.2 43.8594 116.48" stroke="black" stroke-width="3.23354" stroke-miterlimit="10" stroke-linecap="round"/>
<circle cx="130.371" cy="85.1378" r="1.61677" fill="black"/>
<path d="M26.9462 114.359C36.1004 114.359 43.5213 106.938 43.5213 97.7836C43.5213 88.6294 36.1004 81.2085 26.9462 81.2085C17.792 81.2085 10.3711 88.6294 10.3711 97.7836C10.3711 106.938 17.792 114.359 26.9462 114.359Z" stroke="black" stroke-width="3.23354" stroke-miterlimit="10" stroke-linecap="round"/>
<path d="M26.9463 105.609C31.268 105.609 34.7714 102.105 34.7714 97.7837C34.7714 93.4619 31.268 89.9585 26.9463 89.9585C22.6245 89.9585 19.1211 93.4619 19.1211 97.7837C19.1211 102.105 22.6245 105.609 26.9463 105.609Z" stroke="black" stroke-width="3.23354" stroke-miterlimit="10" stroke-linecap="round"/>
<path d="M68.2001 43.3114C77.3543 43.3114 84.7752 35.8904 84.7752 26.7363C84.7752 17.5821 77.3543 10.1611 68.2001 10.1611C59.0459 10.1611 51.625 17.5821 51.625 26.7363C51.625 35.8904 59.0459 43.3114 68.2001 43.3114Z" stroke="black" stroke-width="3.23354" stroke-miterlimit="10" stroke-linecap="round"/>
<path d="M68.2002 34.5615C72.5219 34.5615 76.0253 31.058 76.0253 26.7363C76.0253 22.4146 72.5219 18.9111 68.2002 18.9111C63.8784 18.9111 60.375 22.4146 60.375 26.7363C60.375 31.058 63.8784 34.5615 68.2002 34.5615Z" stroke="black" stroke-width="3.23354" stroke-miterlimit="10" stroke-linecap="round"/>
<path d="M108.833 114.32C117.987 114.32 125.408 106.899 125.408 97.7448C125.408 88.5906 117.987 81.1697 108.833 81.1697C99.6787 81.1697 92.2578 88.5906 92.2578 97.7448C92.2578 106.899 99.6787 114.32 108.833 114.32Z" stroke="black" stroke-width="3.23354" stroke-miterlimit="10" stroke-linecap="round"/>
<path d="M108.833 105.57C113.155 105.57 116.658 102.067 116.658 97.7448C116.658 93.4231 113.155 89.9197 108.833 89.9197C104.511 89.9197 101.008 93.4231 101.008 97.7448C101.008 102.067 104.511 105.57 108.833 105.57Z" stroke="black" stroke-width="3.23354" stroke-miterlimit="10" stroke-linecap="round"/>
<path d="M67.9474 87.2745C75.2836 87.2745 81.2308 81.3274 81.2308 73.9911C81.2308 66.6549 75.2836 60.7078 67.9474 60.7078C60.6112 60.7078 54.6641 66.6549 54.6641 73.9911C54.6641 81.3274 60.6112 87.2745 67.9474 87.2745Z" stroke="black" stroke-width="3.23354" stroke-miterlimit="10" stroke-linecap="round"/>
<path d="M8.87891 66.8131C9.21519 62.2085 10.334 55.0753 14.1625 47.3278C19.8794 35.7646 28.4289 29.304 32.7101 26.4973" stroke="black" stroke-width="3.23354" stroke-miterlimit="10" stroke-linecap="round"/>
<path d="M102.512 25.9216C105.099 27.3573 108.287 29.4591 111.494 32.4922C116.086 36.8316 118.893 41.3456 120.555 44.5727" stroke="black" stroke-width="3.23354" stroke-miterlimit="10" stroke-linecap="round"/>
<path d="M123.426 52.0486C124.493 54.1569 125.676 57.0024 126.446 60.5075C127.047 63.2366 127.248 65.6812 127.274 67.6795" stroke="black" stroke-width="3.23354" stroke-miterlimit="10" stroke-linecap="round"/>
<path d="M43.4609 127.785C44.6056 128.457 45.9508 128.987 47.7939 129.848C49.443 130.617 51.409 131.018 52.4178 131.477" stroke="black" stroke-width="3.23354" stroke-miterlimit="10" stroke-linecap="round"/>
<path d="M60.1523 133.068C63.9032 133.741 69.5037 134.297 76.1584 133.295C83.5955 132.176 89.2736 129.576 92.7723 127.629" stroke="black" stroke-width="3.23354" stroke-miterlimit="10" stroke-linecap="round"/>
</svg>
