<svg width="133" height="123" viewBox="0 0 133 123" fill="none" xmlns="http://www.w3.org/2000/svg">
<path d="M31.5974 72.641L20.3354 75.6586C17.8655 76.3204 16.3998 78.8592 17.0616 81.329L26.7285 117.407C27.3903 119.876 29.929 121.342 32.3989 120.68L43.6609 117.663C46.1308 117.001 47.5965 114.462 46.9347 111.992L37.2678 75.9148C36.606 73.4449 34.0672 71.9792 31.5974 72.641Z" stroke="black" stroke-width="2.73308" stroke-miterlimit="10" stroke-linecap="round"/>
<path d="M6.47208 85.624L17.1533 82.7619L26.2006 116.527L15.5194 119.389C13.0484 120.051 10.5097 118.581 9.84901 116.115L3.1997 91.2996C2.5376 88.8286 4.00778 86.2899 6.47349 85.6293L6.47208 85.624Z" stroke="black" stroke-width="2.73308" stroke-miterlimit="10" stroke-linecap="round"/>
<path d="M89.3479 117.527L100.61 120.544C103.08 121.206 105.619 119.74 106.28 117.271L115.947 81.193C116.609 78.7232 115.143 76.1845 112.673 75.5227L101.411 72.505C98.9416 71.8432 96.4029 73.3089 95.7411 75.7788L86.0741 111.856C85.4123 114.326 86.8781 116.865 89.3479 117.527Z" stroke="black" stroke-width="2.73308" stroke-miterlimit="10" stroke-linecap="round"/>
<path d="M117.481 119.249L106.8 116.387L115.847 82.622L126.528 85.484C128.999 86.1461 130.463 88.6887 129.802 91.1544L123.153 115.97C122.491 118.441 119.948 119.904 117.482 119.244L117.481 119.249Z" stroke="black" stroke-width="2.73308" stroke-miterlimit="10" stroke-linecap="round"/>
<path d="M5.6865 84.7985C4.9431 83.1915 4.06304 80.0867 3.4235 76.9491C0.264061 61.4143 3.93732 49.0662 5.82861 44.2068C9.41441 35.0182 14.17 27.699 18.5374 23.2605" stroke="black" stroke-width="2.73308" stroke-miterlimit="10" stroke-linecap="round"/>
<path d="M24.8516 17.6852C28.2023 14.8318 41.6709 4.09083 60.3816 2.27606C80.3932 0.341041 97.0814 9.10876 102.077 12.3393C107.456 15.8157 122.461 27.6172 128.556 47.9185C133.202 63.3877 129.643 78.7914 127.976 84.3668" stroke="black" stroke-width="2.73308" stroke-miterlimit="10" stroke-linecap="round"/>
<path d="M15.7374 81.7266C13.8297 77.4357 12.3046 71.1278 13.0262 66.5471" stroke="black" stroke-width="2.73308" stroke-miterlimit="10" stroke-linecap="round"/>
<path d="M2.65234 65.7819C3.57066 66.241 10.9609 66.651 15.4268 65.6944C17.7335 65.2025 19.2968 64.1967 20.1495 61.4199C21.9698 55.4891 23.79 48.6455 26.1459 44.4529C31.8252 34.3405 40.5328 27.7866 45.5508 25.5783C62.1624 18.2591 77.5114 22.2111 81.611 23.3645" stroke="black" stroke-width="2.73308" stroke-miterlimit="10" stroke-linecap="round"/>
<path d="M87.1055 25.9556C97.36 31.3944 98.6883 33.9252 102.028 37.8062C107.948 44.6936 111.588 54.9973 112.14 62.0705C112.233 63.2512 113.119 64.9839 115.415 66.3067C118.366 68.0067 128.922 68.4768 130.676 67.9903" stroke="black" stroke-width="2.73308" stroke-miterlimit="10" stroke-linecap="round"/>
<path d="M119.938 68.6243C119.839 71.2754 118.877 78.5891 117.336 80.9996" stroke="black" stroke-width="2.73308" stroke-miterlimit="10" stroke-linecap="round"/>
<circle cx="21.6908" cy="20.3119" r="1.36654" fill="black"/>
</svg>
