<svg width="117" height="121" viewBox="0 0 117 121" fill="none" xmlns="http://www.w3.org/2000/svg">
<path d="M109.913 84.3764C110.035 82.1226 110.217 80.1124 110.461 78.2241" stroke="#070D1C" stroke-width="3.04567" stroke-miterlimit="10"/>
<path d="M113.167 61.1468C113.898 56.6392 114.142 52.7407 113.045 47.2585C109.878 30.9946 99.0351 20.4566 95.5021 17.1673C88.3144 10.4059 80.9438 6.69016 75.8271 4.68002C74.8525 4.31454 73.7561 4.31454 72.7814 4.74093C71.8677 5.16733 70.8931 5.59372 69.9794 6.02012C68.0302 6.93382 66.0201 7.78661 64.0708 8.70031C62.1825 9.55309 60.3551 10.4059 58.4668 11.2587C57.0049 11.9287 56.5175 13.817 57.4922 15.0962C61.0251 19.6038 63.7662 23.015 65.9591 25.6951C67.4211 27.4616 69.3094 29.7154 70.4667 33.2484C71.3804 36.0504 71.4414 38.5479 71.3804 40.2535C70.5277 57.9183 69.3094 75.5832 68.8221 93.309C68.7612 96.5984 68.5175 100.862 70.8322 105.553C75.0352 113.898 83.7458 116.639 88.8017 117.918C88.9844 117.979 89.1671 117.979 89.289 118.04C95.1366 119.502 100.192 119.014 103.238 118.405C103.908 118.344 105.857 118.04 107.624 116.456C109.634 114.69 110 112.436 110.121 111.766C110.487 109.086 110.365 105.857 110.121 102.081" stroke="#070D1C" stroke-width="3.04567" stroke-miterlimit="10"/>
<path d="M64.0098 8.70044C81.9792 21.7359 87.5224 33.9795 88.9234 43.2383C91.4208 59.1977 82.101 68.4565 82.5884 89.7762C82.832 100.802 85.5731 110.304 88.7406 117.918" stroke="#070D1C" stroke-width="3.04567" stroke-miterlimit="10"/>
<path d="M69.9183 6.02028C64.497 4.68019 59.0757 3.3401 53.7154 2C53.4108 2.12183 52.2534 2.4873 51.5225 3.70557C50.5478 5.47206 51.4615 7.23855 51.5225 7.36038C53.8372 8.63956 56.091 9.91874 58.4057 11.1979" stroke="#070D1C" stroke-width="3.04567" stroke-miterlimit="10"/>
<path d="M114.34 61.9075L113 61.2374C112.208 60.872 111.233 61.2374 110.929 62.0293C110.198 63.9176 109.223 66.5369 108.066 69.7044C106.848 72.9937 106.178 74.8821 107.091 76.7095C107.274 77.0749 108.127 78.6587 109.772 78.9023C110.807 79.0851 111.904 78.6587 112.756 77.8668C113.305 77.3795 113.67 76.6485 113.731 75.9176C114.218 71.7755 114.766 67.5724 115.254 63.4303C115.254 62.8212 114.949 62.2121 114.34 61.9075Z" stroke="#070D1C" stroke-width="3.04567" stroke-miterlimit="10"/>
<path d="M110.807 85.6636L109.223 85.1154C108.431 84.8718 107.578 85.0545 107.03 85.6027C105.69 87.0037 105.507 88.892 105.69 93.7042C105.934 100.344 106.543 101.075 107.091 101.501C107.822 101.988 108.675 102.11 109.467 102.049C110.38 101.988 111.172 101.257 111.355 100.344C111.721 98.5164 112.086 96.4453 112.269 94.1306C112.451 91.6941 112.451 89.4403 112.269 87.491C112.208 86.6992 111.66 85.9073 110.807 85.6636Z" stroke="#070D1C" stroke-width="3.04567" stroke-miterlimit="10"/>
<path d="M25.8169 84.7202L26.426 88.4359C26.6088 89.4106 25.9997 90.3243 25.086 90.5679L23.0758 91.6034C22.2839 91.8471 21.3703 91.6034 20.822 90.9334L18.8728 88.2532" stroke="#070D1C" stroke-width="3.04567" stroke-miterlimit="10"/>
<path d="M16.0101 88.4362C23.7476 88.4362 30.0202 82.1637 30.0202 74.4261C30.0202 66.6885 23.7476 60.416 16.0101 60.416C8.27253 60.416 2 66.6885 2 74.4261C2 82.1637 8.27253 88.4362 16.0101 88.4362Z" stroke="#070D1C" stroke-width="3.04567" stroke-miterlimit="10"/>
<path d="M14.3403 70.7959C16.7698 69.6375 17.9645 67.0737 17.0089 65.0694C16.0533 63.0651 13.3091 62.3793 10.8796 63.5376C8.45018 64.696 7.25541 67.2598 8.21104 69.2641C9.16668 71.2684 11.9108 71.9542 14.3403 70.7959Z" stroke="#070D1C" stroke-width="3.04567" stroke-miterlimit="10"/>
<path d="M50.7917 3.88819C45.7359 3.52271 38.3654 3.52272 35.5025 8.03031C28.9238 18.3856 39.8882 25.817 48.5989 49.1469C54.7511 65.7153 63.0962 88.1924 53.5328 99.0959C50.4263 102.629 45.3096 105.126 40.1928 104.822C29.8375 104.213 25.0254 92.4563 24.7817 91.9081" stroke="#070D1C" stroke-width="3.04567" stroke-miterlimit="10"/>
</svg>
