<svg width="157" height="112" viewBox="0 0 157 112" fill="none" xmlns="http://www.w3.org/2000/svg">
<path d="M1.29834 94.8691V103.48C1.29834 107.145 4.27397 110.119 7.94027 110.119H125.433" stroke="#231F20" stroke-width="1.74816" stroke-miterlimit="10" stroke-linecap="round"/>
<path d="M125.433 110.119H148.345C152.017 110.119 154.987 107.145 154.987 103.481V8.51483C154.987 4.85032 152.017 1.88135 148.345 1.88135H7.94027C4.27397 1.88135 1.29834 4.85032 1.29834 8.51483V81.1354" stroke="#231F20" stroke-width="1.74816" stroke-miterlimit="10" stroke-linecap="round"/>
<path d="M11.4092 110.119V1.88135" stroke="#231F20" stroke-width="1.74816" stroke-miterlimit="10" stroke-linecap="round"/>
<path d="M143.074 110.119V1.88135" stroke="#231F20" stroke-width="1.74816" stroke-miterlimit="10" stroke-linecap="round"/>
<path d="M149.119 58.0424C150.485 58.0424 151.591 56.9363 151.591 55.5718C151.591 54.2072 150.485 53.1011 149.119 53.1011C147.754 53.1011 146.647 54.2072 146.647 55.5718C146.647 56.9363 147.754 58.0424 149.119 58.0424Z" stroke="#231F20" stroke-width="1.74816" stroke-miterlimit="10" stroke-linecap="round"/>
<path d="M29.2469 14.9868H24.2096C22.1905 14.9868 20.5537 16.6228 20.5537 18.6409V23.6757C20.5537 25.6939 22.1905 27.3299 24.2096 27.3299H29.2469C31.266 27.3299 32.9028 25.6939 32.9028 23.6757V18.6409C32.9028 16.6228 31.266 14.9868 29.2469 14.9868Z" stroke="#231F20" stroke-width="1.74816" stroke-linecap="round" stroke-linejoin="round"/>
<path d="M52.3563 14.9868H47.319C45.2999 14.9868 43.6631 16.6228 43.6631 18.6409V23.6757C43.6631 25.6939 45.2999 27.3299 47.319 27.3299H52.3563C54.3754 27.3299 56.0122 25.6939 56.0122 23.6757V18.6409C56.0122 16.6228 54.3754 14.9868 52.3563 14.9868Z" stroke="#231F20" stroke-width="1.74816" stroke-linecap="round" stroke-linejoin="round"/>
<path d="M84.7924 8.36963H74.3439C70.1623 8.36963 66.7725 11.7578 66.7725 15.9374V26.3807C66.7725 30.5603 70.1623 33.9485 74.3439 33.9485H84.7924C88.974 33.9485 92.3639 30.5603 92.3639 26.3807V15.9374C92.3639 11.7578 88.974 8.36963 84.7924 8.36963Z" stroke="#231F20" stroke-width="1.74816" stroke-linecap="round" stroke-linejoin="round"/>
<path d="M110.114 52.5926V82.5316C110.114 86.1234 107.206 89.0353 103.612 89.0353H73.3472C69.7536 89.0353 66.8403 86.1234 66.8403 82.5316V52.5926C66.8403 49.0008 69.7536 46.0941 73.3472 46.0941H76.6304L79.4255 36.9453L82.2202 46.0941H103.612C107.206 46.0941 110.114 49.0008 110.114 52.5926Z" stroke="#231F20" stroke-width="1.74816" stroke-linecap="round" stroke-linejoin="round"/>
<path d="M80.3472 63.0723H96.482V77.7562C96.482 79.6871 94.9137 81.2495 92.9871 81.2495H83.8473C81.9155 81.2495 80.3524 79.6819 80.3524 77.7562V63.0723H80.3472Z" stroke="#231F20" stroke-width="1.74816" stroke-linecap="round" stroke-linejoin="round"/>
<path d="M81.1938 58.2397H95.6202C96.8146 58.2397 97.7909 59.2104 97.7909 60.4094V63.0773H79.0283V60.4094C79.0283 59.2156 79.9994 58.2397 81.199 58.2397H81.1938Z" stroke="#231F20" stroke-width="1.74816" stroke-linecap="round" stroke-linejoin="round"/>
<path d="M88.2617 54.4243H88.5525C90.6609 54.4243 92.3694 56.132 92.3694 58.2393H84.4448C84.4448 56.132 86.1533 54.4243 88.2617 54.4243Z" stroke="#231F20" stroke-width="1.74816" stroke-linecap="round" stroke-linejoin="round"/>
<path d="M84.4551 67.1572V77.5331" stroke="#231F20" stroke-width="1.74816" stroke-linecap="round" stroke-linejoin="round"/>
<path d="M88.4062 77.5331V67.1572" stroke="#231F20" stroke-width="1.74816" stroke-linecap="round" stroke-linejoin="round"/>
<path d="M92.3789 67.1572V77.5331" stroke="#231F20" stroke-width="1.74816" stroke-linecap="round" stroke-linejoin="round"/>
</svg>
