<svg width="121" height="96" viewBox="0 0 121 96" fill="none" xmlns="http://www.w3.org/2000/svg">
<path d="M1.42365 69.5948C0.906419 69.857 0.699696 70.4888 0.961916 71.0061C1.22414 71.5233 1.856 71.73 2.37323 71.4678L1.42365 69.5948ZM10.5243 93.9209C10.0318 94.2272 9.8809 94.8746 10.1872 95.3671C10.4934 95.8595 11.1409 96.0104 11.6333 95.7042L10.5243 93.9209ZM87.2779 22.6163C86.8127 22.9626 86.7164 23.6204 87.0626 24.0855C87.4089 24.5507 88.0667 24.6471 88.5319 24.3008L87.2779 22.6163ZM109.08 7.76056L109.707 8.6028C109.75 8.57077 109.79 8.53549 109.828 8.49727L109.08 7.76056ZM108.641 2.75288L109.415 2.04251C109.386 2.01101 109.355 1.98131 109.322 1.95357L108.641 2.75288ZM102.955 2.22487L102.479 1.28882C102.442 1.30793 102.405 1.32928 102.37 1.35277L102.955 2.22487ZM82.0267 16.4151L81.4408 15.5437C81.4241 15.555 81.4076 15.5668 81.3916 15.579L82.0267 16.4151ZM76.9024 18.8006C76.4059 19.1002 76.2463 19.7456 76.5459 20.2421C76.8456 20.7386 77.491 20.8982 77.9874 20.5985L76.9024 18.8006ZM108.006 7.25299C107.544 7.60417 107.455 8.26296 107.806 8.72443C108.157 9.18589 108.816 9.2753 109.277 8.92411L108.006 7.25299ZM116.549 9.3303L117.45 8.79101L117.449 8.7893L116.549 9.3303ZM112.923 16.4151L112.423 15.4918C112.389 15.5103 112.356 15.5307 112.324 15.5529L112.923 16.4151ZM91.308 30.0339C90.8318 30.3648 90.7141 31.0191 91.0451 31.4953C91.376 31.9715 92.0304 32.0892 92.5065 31.7583L91.308 30.0339ZM94.8313 38.7058C94.354 39.035 94.234 39.6889 94.5632 40.1663C94.8925 40.6436 95.5464 40.7636 96.0238 40.4343L94.8313 38.7058ZM106.425 31.9964L107.021 32.8607L107.023 32.8598L106.425 31.9964ZM110.437 29.042L111.035 29.9053L111.041 29.9006L110.437 29.042ZM118.719 18.0487L119.63 17.5263L119.628 17.524L118.719 18.0487ZM115.232 29.6181C114.91 29.1361 114.258 29.0069 113.776 29.3294C113.294 29.6519 113.165 30.3041 113.487 30.786L115.232 29.6181ZM114.84 31.2477L113.829 31.5323C113.831 31.5403 113.834 31.5483 113.836 31.5563L114.84 31.2477ZM112.758 36.5306L113.344 37.402L113.35 37.3978L112.758 36.5306ZM110.217 38.3362L110.843 39.1792L110.849 39.1744L110.217 38.3362ZM60.5024 24.1196L61.4274 24.6165L61.4276 24.6161L60.5024 24.1196ZM64.6743 18.6926L63.9478 17.9345C63.9364 17.9454 63.9252 17.9566 63.9143 17.9681L64.6743 18.6926ZM77.4621 9.21905L76.9753 8.28875C76.9273 8.31385 76.8813 8.34264 76.8378 8.37483L77.4621 9.21905ZM85.3053 7.20374L84.7556 8.09836L84.7579 8.09979L85.3053 7.20374ZM84.0963 13.6828C83.6261 14.0223 83.5202 14.6786 83.8596 15.1488C84.1991 15.6189 84.8554 15.7249 85.3256 15.3855L84.0963 13.6828ZM113.679 26.7601L114.284 27.6188C114.295 27.6107 114.306 27.6023 114.318 27.5938L113.679 26.7601ZM57.0735 31.4818L58.0299 31.9152C58.0468 31.8779 58.0615 31.8396 58.074 31.8005L57.0735 31.4818ZM8.97495 66.9437L9.44975 67.8802L9.44975 67.8802L8.97495 66.9437ZM87.9513 53.2267C87.4704 53.5507 87.3431 54.2033 87.6671 54.6842C87.9911 55.1652 88.6437 55.2924 89.1246 54.9684L87.9513 53.2267ZM19.7801 90.6376C20.2726 90.3313 20.4235 89.6838 20.1172 89.1914C19.811 88.699 19.1635 88.548 18.6711 88.8543L19.7801 90.6376ZM12.1855 61.4692L12.6982 62.3855L12.6982 62.3855L12.1855 61.4692ZM41.943 43.6182L42.6 44.4372L42.6 44.4372L41.943 43.6182ZM119.311 19.5993L118.284 19.8172L119.311 19.5993ZM16.7434 72.5101L16.1945 71.615L16.1945 71.615L16.7434 72.5101ZM82.137 32.4052L81.5881 31.5101L81.5881 31.5101L82.137 32.4052ZM83.2237 59.3951L82.8873 58.4004L82.8873 58.4004L83.2237 59.3951ZM79.878 60.5269L80.2144 61.5215L80.2144 61.5215L79.878 60.5269ZM20.5936 92.0551L21.5015 91.5276L21.5015 91.5276L20.5936 92.0551ZM17.6861 87.0514L16.7782 87.579L16.7782 87.579L17.6861 87.0514ZM87.2069 34.8788L88.248 34.7423L88.248 34.7423L87.2069 34.8788ZM88.4901 44.6721L89.538 44.6048L89.5358 44.5701L89.5312 44.5357L88.4901 44.6721ZM88.8839 50.808L87.8361 50.8752L87.8361 50.8753L88.8839 50.808ZM24.761 93.0584L24.1932 92.1752L24.1932 92.1752L24.761 93.0584ZM32.8619 89.0997C33.3497 88.7861 33.4909 88.1365 33.1774 87.6487C32.8638 87.1608 32.2142 87.0196 31.7264 87.3331L32.8619 89.0997ZM61.8542 69.2023L62.421 70.0863L62.421 70.0863L61.8542 69.2023ZM38.34 83.0306C37.8518 83.3436 37.7098 83.9931 38.0228 84.4813C38.3358 84.9694 38.9852 85.1115 39.4734 84.7985L38.34 83.0306ZM14.2442 79.3551L15.2424 79.0295L15.2424 79.0295L14.2442 79.3551ZM42.123 43.203L41.2087 43.7193L41.2087 43.7193L42.123 43.203ZM43.1635 39.2148L42.6178 38.3178L42.6178 38.3178L43.1635 39.2148ZM51.4372 53.8665L50.8916 52.9695L50.8916 52.9695L51.4372 53.8665ZM47.5761 52.8598L48.4904 52.3435L48.4904 52.3435L47.5761 52.8598ZM56.2221 47.6008L57.1364 47.0845L57.1364 47.0845L56.2221 47.6008ZM55.1816 51.589L55.7273 52.486L55.7273 52.486L55.1816 51.589ZM50.769 37.944L51.6833 37.4277L51.6833 37.4277L50.769 37.944ZM46.9078 36.9373L47.4535 37.8343L47.4535 37.8343L46.9078 36.9373ZM29.8935 50.66L30.8078 50.1437L30.8078 50.1437L29.8935 50.66ZM30.934 46.6718L30.3883 45.7748L30.3883 45.7748L30.934 46.6718ZM39.2077 61.3235L38.6621 60.4265L38.6621 60.4265L39.2077 61.3235ZM35.3466 60.3168L36.2609 59.8005L36.2609 59.8005L35.3466 60.3168ZM43.9926 55.0578L44.9069 54.5415L43.9926 55.0578ZM42.9521 59.046L43.4978 59.943L43.4978 59.943L42.9521 59.046ZM38.5395 45.401L39.4538 44.8847L39.4538 44.8847L38.5395 45.401ZM34.6784 44.3943L35.224 45.2913L35.224 45.2913L34.6784 44.3943ZM17.8443 58.1166L16.93 58.6329L16.93 58.6329L17.8443 58.1166ZM18.8848 54.1284L19.4305 55.0255L19.4305 55.0255L18.8848 54.1284ZM27.1585 68.7801L27.7042 69.6772L27.7042 69.6772L27.1585 68.7801ZM23.2974 67.7734L22.3831 68.2897L22.3831 68.2897L23.2974 67.7734ZM31.9434 62.5143L32.8577 61.998L32.8577 61.998L31.9434 62.5143ZM30.9029 66.5025L30.3572 65.6054L30.3572 65.6054L30.9029 66.5025ZM26.4903 52.8575L25.576 53.3738L25.576 53.3738L26.4903 52.8575ZM22.6292 51.8508L22.0835 50.9537L22.0835 50.9537L22.6292 51.8508ZM36.1977 86.961C36.6658 86.6188 36.768 85.9619 36.4258 85.4937C36.0836 85.0255 35.4267 84.9233 34.9585 85.2655L36.1977 86.961ZM34.9401 85.279C34.472 85.6211 34.3698 86.2781 34.712 86.7463C35.0542 87.2144 35.7111 87.3166 36.1793 86.9744L34.9401 85.279ZM52.2701 40.6023L51.3558 41.1186L51.3558 41.1186L52.2701 40.6023ZM50.0557 37.1109L49.408 37.9373L49.408 37.9373L50.0557 37.1109ZM42.2282 43.3894L43.1425 42.8731L43.1425 42.8731L42.2282 43.3894ZM47.9465 53.3737L48.7242 52.6683L47.9465 53.3737ZM56.462 48.1513L55.4612 48.4691L55.4612 48.4691L56.462 48.1513ZM19.7454 61.4833L20.6597 60.967L20.6597 60.967L19.7454 61.4833ZM28.7695 56.8938L27.8552 57.4101L27.8552 57.4101L28.7695 56.8938ZM17.9242 58.2581L18.8385 57.7418L18.8385 57.7418L17.9242 58.2581ZM32.1769 63.0449L31.1784 63.3699L32.1769 63.0449ZM44.2437 55.6445L43.2389 55.9492L43.2389 55.9492L44.2437 55.6445ZM32.152 54.6597L33.0663 54.1434L33.0663 54.1434L32.152 54.6597ZM40.6124 49.0718L39.6981 49.5881L39.6981 49.5881L40.6124 49.0718ZM88.5319 24.3008C91.8353 21.8416 95.4753 19.1482 99.117 16.4536C102.758 13.7594 106.401 11.0641 109.707 8.6028L108.453 6.91831C105.15 9.37747 101.51 12.0709 97.8679 14.7655C94.2268 17.4597 90.5842 20.155 87.2779 22.6163L88.5319 24.3008ZM109.828 8.49727C110.695 7.6168 110.947 6.37558 110.837 5.24803C110.725 4.10961 110.236 2.93665 109.415 2.04251L107.868 3.46324C108.364 4.00304 108.677 4.74201 108.747 5.45298C108.818 6.17483 108.63 6.72048 108.332 7.02385L109.828 8.49727ZM109.322 1.95357C107.458 0.365094 104.731 0.144422 102.479 1.28882L103.431 3.16092C105.003 2.36204 106.803 2.56644 107.961 3.55218L109.322 1.95357ZM102.37 1.35277C95.3041 6.09077 88.4836 10.8085 81.4408 15.5437L82.6126 17.2864C89.7559 12.4836 96.4048 7.8811 103.54 3.09698L102.37 1.35277ZM82.0267 16.4151C81.3916 15.579 81.3916 15.579 81.3916 15.579C81.3915 15.579 81.3915 15.579 81.3915 15.579C81.3914 15.5791 81.3913 15.5792 81.3911 15.5793C81.3907 15.5796 81.3901 15.58 81.3894 15.5806C81.3879 15.5818 81.3856 15.5835 81.3825 15.5859C81.3763 15.5905 81.3671 15.5975 81.3549 15.6068C81.3306 15.6252 81.2947 15.6524 81.2484 15.6874C81.1558 15.7573 81.0219 15.8583 80.8572 15.9819C80.5277 16.2291 80.0756 16.5664 79.585 16.927C78.587 17.6603 77.4817 18.451 76.9024 18.8006L77.9874 20.5985C78.6641 20.1902 79.8496 19.3386 80.8286 18.6192C81.3264 18.2534 81.7843 17.9117 82.1176 17.6615C82.2844 17.5364 82.4201 17.4341 82.5143 17.3629C82.5614 17.3273 82.5981 17.2995 82.6232 17.2805C82.6357 17.2711 82.6453 17.2638 82.6518 17.2589C82.655 17.2564 82.6575 17.2545 82.6592 17.2532C82.66 17.2526 82.6607 17.2521 82.6611 17.2518C82.6614 17.2516 82.6615 17.2515 82.6616 17.2514C82.6617 17.2513 82.6618 17.2513 82.6618 17.2513C82.6618 17.2512 82.6619 17.2512 82.0267 16.4151ZM109.277 8.92411C111.466 7.25882 114.472 7.91226 115.649 9.8713L117.449 8.7893C115.579 5.67885 111.113 4.88793 108.006 7.25299L109.277 8.92411ZM115.648 9.86959C116.113 10.6454 116.047 11.6103 115.424 12.69C114.797 13.774 113.682 14.81 112.423 15.4918L113.423 17.3384C114.967 16.5025 116.392 15.2118 117.242 13.7406C118.094 12.2652 118.441 10.4465 117.45 8.79101L115.648 9.86959ZM112.324 15.5529C108.854 17.9643 105.339 20.376 101.821 22.7898C98.304 25.2029 94.7836 27.6182 91.308 30.0339L92.5065 31.7583C95.9761 29.3468 99.4911 26.9352 103.009 24.5214C106.527 22.1082 110.047 19.693 113.522 17.2773L112.324 15.5529ZM96.0238 40.4343C97.8548 39.1712 99.6879 37.9099 101.522 36.6483C103.355 35.3867 105.189 34.1247 107.021 32.8607L105.829 31.1321C103.998 32.3953 102.165 33.6566 100.331 34.9182C98.4977 36.1798 96.6636 37.4417 94.8313 38.7058L96.0238 40.4343ZM107.023 32.8598C107.738 32.3648 108.413 31.8519 109.066 31.3552C109.726 30.8543 110.364 30.3696 111.034 29.9053L109.839 28.1786C109.124 28.6736 108.449 29.1865 107.796 29.6832C107.137 30.1841 106.498 30.6688 105.828 31.1331L107.023 32.8598ZM111.041 29.9006L114.284 27.6188L113.075 25.9014L109.833 28.1833L111.041 29.9006ZM119.628 17.524C118.255 15.1436 115.092 14.3235 112.503 15.4527L113.343 17.3775C115.1 16.6109 117.048 17.2529 117.809 18.5733L119.628 17.524ZM113.487 30.786C113.636 31.0089 113.756 31.2715 113.829 31.5323L115.851 30.9632C115.72 30.4979 115.509 30.0318 115.232 29.6181L113.487 30.786ZM113.836 31.5563C114.278 32.9924 113.591 34.6912 112.166 35.6634L113.35 37.3978C115.382 36.011 116.606 33.4196 115.843 30.9391L113.836 31.5563ZM112.173 35.6592C111.3 36.2461 110.431 36.859 109.584 37.498L110.849 39.1744C111.661 38.5618 112.498 37.9712 113.344 37.4019L112.173 35.6592ZM58.074 31.8005C58.8092 29.493 60.0296 27.2182 61.4274 24.6165L59.5774 23.6226C58.202 26.1828 56.8784 28.6352 56.0731 31.163L58.074 31.8005ZM61.4276 24.6161C62.0203 23.5118 63.0063 22.222 63.8785 21.1772C64.3084 20.6621 64.6995 20.2198 64.9827 19.9067C65.1241 19.7504 65.2383 19.6266 65.3165 19.5426C65.3556 19.5006 65.3857 19.4685 65.4057 19.4473C65.4157 19.4367 65.4232 19.4288 65.428 19.4237C65.4304 19.4212 65.4322 19.4194 65.4332 19.4182C65.4337 19.4177 65.4341 19.4173 65.4343 19.4171C65.4344 19.417 65.4344 19.417 65.4344 19.417C65.4344 19.417 65.4344 19.417 65.4344 19.417C65.4344 19.417 65.4343 19.4171 64.6743 18.6926C63.9143 17.9681 63.9143 17.9681 63.9142 17.9682C63.9141 17.9683 63.914 17.9684 63.914 17.9685C63.9138 17.9686 63.9136 17.9689 63.9133 17.9691C63.9128 17.9697 63.9121 17.9704 63.9112 17.9713C63.9095 17.9731 63.9071 17.9757 63.904 17.9789C63.8978 17.9854 63.889 17.9948 63.8776 18.0069C63.8547 18.0311 63.8217 18.0664 63.7795 18.1117C63.6951 18.2023 63.5741 18.3335 63.4253 18.498C63.1279 18.8267 62.718 19.2904 62.2663 19.8314C61.3753 20.8989 60.2752 22.3226 59.5773 23.623L61.4276 24.6161ZM65.4008 19.4507C65.3637 19.4862 65.3524 19.4917 65.4518 19.415C65.5226 19.3603 65.6236 19.2835 65.7533 19.1857C66.012 18.9906 66.3758 18.7189 66.8208 18.3878C67.7105 17.7261 68.9188 16.8319 70.2486 15.8495C72.9059 13.8864 76.0501 11.5693 78.0865 10.0633L76.8378 8.37483C74.8004 9.88159 71.6628 12.1938 69.0007 14.1605C67.6708 15.143 66.4601 16.0389 65.5675 16.7029C65.1214 17.0346 64.7533 17.3097 64.4889 17.509C64.3571 17.6085 64.2487 17.6908 64.1685 17.7528C64.1169 17.7926 64.013 17.8721 63.9478 17.9345L65.4008 19.4507ZM77.949 10.1494C78.1805 10.0282 78.4145 9.8519 78.6088 9.69928C78.8013 9.54797 79.0594 9.33496 79.2793 9.15899C79.76 8.77449 80.2939 8.37456 80.8833 8.06182C82.0257 7.45568 83.2986 7.2031 84.7556 8.09836L85.855 6.30913C83.5702 4.90523 81.469 5.37375 79.899 6.20678C79.1323 6.61363 78.4755 7.1128 77.9675 7.51914C77.6932 7.73859 77.5074 7.89393 77.3114 8.04795C77.117 8.20064 77.0176 8.26661 76.9753 8.28875L77.949 10.1494ZM84.7579 8.09979C85.1353 8.33029 85.77 9.17064 85.8817 10.2927C85.9823 11.3039 85.6515 12.56 84.0963 13.6828L85.3256 15.3855C87.476 13.8329 88.1475 11.8546 87.9714 10.0847C87.8063 8.42573 86.8854 6.93855 85.8526 6.3077L84.7579 8.09979ZM114.318 27.5938C115.565 26.6386 117.237 25.4899 118.462 24.2422C119.687 22.9944 120.758 21.3597 120.338 19.3815L118.284 19.8172C118.477 20.7273 118.049 21.6648 116.963 22.7712C115.877 23.8777 114.427 24.8652 113.041 25.9264L114.318 27.5938ZM8.50016 66.0072L1.42365 69.5948L2.37323 71.4678L9.44975 67.8802L8.50016 66.0072ZM109.591 37.4932C103.29 42.1724 92.498 50.1638 87.9513 53.2267L89.1246 54.9684C93.722 51.8713 104.564 43.8421 110.843 39.1792L109.591 37.4932ZM18.6711 88.8543L10.5243 93.9209L11.6333 95.7042L19.7801 90.6376L18.6711 88.8543ZM10.025 66.9437C10.025 65.0527 11.0473 63.3092 12.6982 62.3855L11.6728 60.5529C9.35855 61.8478 7.92495 64.2921 7.92495 66.9437H10.025ZM117.808 18.571C118.029 18.9562 118.192 19.3821 118.284 19.8172L120.338 19.3815C120.201 18.7332 119.96 18.1018 119.63 17.5263L117.808 18.571ZM82.8873 58.4004L79.5415 59.5322L80.2144 61.5215L83.5602 60.3897L82.8873 58.4004ZM21.5015 91.5276L18.5939 86.5239L16.7782 87.579L19.6858 92.5827L21.5015 91.5276ZM86.1658 35.0152L87.449 44.8085L89.5312 44.5357L88.248 34.7423L86.1658 35.0152ZM87.4423 44.7393L87.8361 50.8752L89.9317 50.7408L89.538 44.6048L87.4423 44.7393ZM61.2875 68.3184L38.34 83.0306L39.4734 84.7985L62.421 70.0863L61.2875 68.3184ZM18.5939 86.5239C17.22 84.1596 16.0965 81.6474 15.2424 79.0295L13.246 79.6808C14.1456 82.4383 15.3295 85.086 16.7782 87.579L18.5939 86.5239ZM79.5415 59.5322C73.1436 61.6964 67.0142 64.6469 61.2875 68.3184L62.421 70.0863C68.0048 66.5063 73.9797 63.6305 80.2144 61.5215L79.5415 59.5322ZM19.6858 92.5827C20.8437 94.5752 23.3903 95.1877 25.3287 93.9417L24.1932 92.1752C23.2605 92.7747 22.0575 92.4843 21.5015 91.5276L19.6858 92.5827ZM83.5602 60.3897C87.5905 59.0264 90.2073 55.0344 89.9317 50.7408L87.8361 50.8753C88.0524 54.247 85.9926 57.35 82.8873 58.4004L83.5602 60.3897ZM82.686 33.3003C84.1099 32.427 85.9393 33.2867 86.1658 35.0152L88.248 34.7423C87.8297 31.5503 84.3469 29.8182 81.5881 31.5101L82.686 33.3003ZM16.1945 71.615C13.4797 73.2799 12.2556 76.6451 13.246 79.6808L15.2424 79.0295C14.5506 76.9087 15.4137 74.5573 17.2923 73.4051L16.1945 71.615ZM54.6359 50.6919L50.8916 52.9695L51.9829 54.7636L55.7273 52.486L54.6359 50.6919ZM43.7091 40.1119L47.4535 37.8343L46.3622 36.0402L42.6178 38.3178L43.7091 40.1119ZM43.0373 42.6867C42.5371 41.801 42.8396 40.6408 43.7091 40.1119L42.6178 38.3178C40.7803 39.4355 40.1511 41.8465 41.2087 43.7193L43.0373 42.6867ZM42.4064 58.1489L38.6621 60.4265L39.7534 62.2206L43.4978 59.943L42.4064 58.1489ZM31.4797 47.5689L35.224 45.2913L34.1327 43.4972L30.3883 45.7748L31.4797 47.5689ZM30.8078 50.1437C30.3076 49.258 30.6101 48.0978 31.4797 47.5689L30.3883 45.7748C28.5508 46.8925 27.9216 49.3035 28.9792 51.1763L30.8078 50.1437ZM39.4538 44.8847C38.3831 42.9886 35.9929 42.3657 34.1327 43.4972L35.224 45.2913C36.0709 44.7762 37.1381 45.0547 37.6252 45.9173L39.4538 44.8847ZM30.3572 65.6054L26.6129 67.883L27.7042 69.6772L31.4486 67.3996L30.3572 65.6054ZM19.4305 55.0255L23.1748 52.7479L22.0835 50.9537L18.3391 53.2313L19.4305 55.0255ZM18.7586 57.6003C18.2584 56.7145 18.5609 55.5544 19.4305 55.0255L18.3391 53.2313C16.5016 54.349 15.8724 56.76 16.93 58.6329L18.7586 57.6003ZM27.4046 52.3412C26.3339 50.4452 23.9437 49.8222 22.0835 50.9537L23.1748 52.7479C24.0217 52.2328 25.0889 52.5112 25.576 53.3738L27.4046 52.3412ZM34.9585 85.2655L34.9401 85.279L36.1793 86.9744L36.1977 86.961L34.9585 85.2655ZM31.7264 87.3331L24.1932 92.1752L25.3287 93.9417L32.8619 89.0997L31.7264 87.3331ZM49.8547 38.4603L51.3558 41.1186L53.1844 40.086L51.6833 37.4277L49.8547 38.4603ZM51.3558 41.1186L55.3078 48.1171L57.1364 47.0845L53.1844 40.086L51.3558 41.1186ZM56.1171 31.0484C55.2854 32.8838 53.2424 37.3645 51.408 40.003L53.1323 41.2017C55.0982 38.3741 57.2206 33.701 58.0299 31.9152L56.1171 31.0484ZM48.4904 52.3435L45.0407 46.2346L43.2121 47.2672L46.6618 53.3761L48.4904 52.3435ZM51.6833 37.4277C51.4268 36.9735 51.092 36.589 50.7034 36.2844L49.408 37.9373C49.5811 38.0729 49.7343 38.2471 49.8547 38.4603L51.6833 37.4277ZM50.7034 36.2844C49.4858 35.3301 47.7691 35.1844 46.3622 36.0402L47.4535 37.8343C48.0988 37.4418 48.8656 37.5122 49.408 37.9373L50.7034 36.2844ZM50.7127 37.9299L57.7305 32.3009L56.4165 30.6627L49.3987 36.2918L50.7127 37.9299ZM42.6 44.4372L42.8852 44.2085L41.5712 42.5704L41.286 42.7991L42.6 44.4372ZM45.0407 46.2346L43.1425 42.8731L41.3139 43.9057L43.2121 47.2672L45.0407 46.2346ZM43.1425 42.8731L43.0373 42.6867L41.2087 43.7193L41.3139 43.9057L43.1425 42.8731ZM50.8916 52.9695C50.1585 53.4154 49.2652 53.2648 48.7242 52.6683L47.1687 54.0791C48.3784 55.4128 50.3799 55.7387 51.9829 54.7636L50.8916 52.9695ZM48.7242 52.6683C48.6376 52.5728 48.5588 52.4647 48.4904 52.3435L46.6618 53.3761C46.8069 53.6331 46.9773 53.8681 47.1687 54.0791L48.7242 52.6683ZM57.0109 49.0464L82.686 33.3003L81.5881 31.5101L55.913 47.2562L57.0109 49.0464ZM55.3078 48.1171C55.3722 48.231 55.4231 48.3489 55.4612 48.4691L57.4627 47.8335C57.3813 47.5771 57.2728 47.326 57.1364 47.0845L55.3078 48.1171ZM55.4612 48.4691C55.7232 49.2942 55.3894 50.2336 54.6359 50.6919L55.7273 52.486C57.3321 51.5099 58.0092 49.5544 57.4627 47.8335L55.4612 48.4691ZM24.2117 67.2571L20.6597 60.967L18.8312 61.9996L22.3831 68.2897L24.2117 67.2571ZM19.2707 60.5468L8.50016 66.0072L9.44975 67.8802L20.2202 62.4198L19.2707 60.5468ZM27.8552 57.4101L31.0291 63.0306L32.8577 61.998L29.6838 56.3775L27.8552 57.4101ZM20.6597 60.967L18.8385 57.7418L17.0099 58.7744L18.8312 61.9996L20.6597 60.967ZM18.8385 57.7418L18.7586 57.6003L16.93 58.6329L17.0099 58.7745L18.8385 57.7418ZM12.6982 62.3855L18.4369 59.1744L17.4115 57.3418L11.6728 60.5529L12.6982 62.3855ZM25.576 53.3738L25.8367 53.8355L27.6653 52.8029L27.4046 52.3412L25.576 53.3738ZM25.8367 53.8355L27.8552 57.4101L29.6838 56.3775L27.6653 52.8029L25.8367 53.8355ZM17.2923 73.4051L24.2029 69.167L23.105 67.3768L16.1945 71.615L17.2923 73.4051ZM26.6129 67.883C25.876 68.3312 24.9771 68.1768 24.4369 67.5723L22.871 68.9716C24.0785 70.3228 26.0927 70.6574 27.7042 69.6772L26.6129 67.883ZM24.4369 67.5723C24.3537 67.4792 24.2779 67.3742 24.2117 67.2571L22.3831 68.2897C22.5234 68.5381 22.6873 68.766 22.871 68.9716L24.4369 67.5723ZM31.0291 63.0306C31.0912 63.1405 31.1408 63.2541 31.1784 63.3699L33.1753 62.72C33.0949 62.473 32.9893 62.231 32.8577 61.998L31.0291 63.0306ZM31.1784 63.3699C31.4479 64.1978 31.1148 65.1447 30.3572 65.6054L31.4486 67.3996C33.0616 66.4184 33.7376 64.4476 33.1753 62.72L31.1784 63.3699ZM44.7927 56.5396L48.4954 54.2688L47.3975 52.4786L43.6948 54.7495L44.7927 56.5396ZM43.0783 55.5741C43.1468 55.6953 43.2 55.821 43.2389 55.9492L45.2486 55.3398C45.1656 55.0663 45.0521 54.7985 44.9069 54.5415L43.0783 55.5741ZM43.2389 55.9492C43.4876 56.7692 43.1525 57.6951 42.4064 58.1489L43.4978 59.943C45.0876 58.976 45.7666 57.0481 45.2486 55.3398L43.2389 55.9492ZM32.7258 63.94L36.2913 61.7534L35.1934 59.9632L31.628 62.1499L32.7258 63.94ZM38.6621 60.4265C37.9359 60.8682 37.0528 60.7245 36.5105 60.1425L34.9742 61.5741C36.1873 62.876 38.1659 63.1862 39.7534 62.2206L38.6621 60.4265ZM36.5105 60.1425C36.4177 60.0428 36.3335 59.929 36.2609 59.8005L34.4323 60.8331C34.5862 61.1056 34.7685 61.3534 34.9742 61.5741L36.5105 60.1425ZM31.5734 53.7835L28.1908 56.0176L29.3482 57.7699L32.7307 55.5358L31.5734 53.7835ZM36.2609 59.8005L33.0663 54.1434L31.2378 55.176L34.4323 60.8331L36.2609 59.8005ZM43.5477 45.8747L40.0337 48.1957L41.1911 49.9479L44.7051 47.627L43.5477 45.8747ZM39.6981 49.5881L43.0783 55.5741L44.9069 54.5415L41.5267 48.5555L39.6981 49.5881ZM33.0663 54.1434L31.1943 50.8283L29.3657 51.8609L31.2378 55.176L33.0663 54.1434ZM31.1943 50.8283L30.8078 50.1437L28.9792 51.1763L29.3657 51.8609L31.1943 50.8283ZM27.2637 54.2355L30.7927 52.2609L29.7673 50.4283L26.2383 52.4029L27.2637 54.2355ZM37.6252 45.9172L37.9443 46.4823L39.7729 45.4497L39.4538 44.8847L37.6252 45.9172ZM37.9443 46.4823L39.6981 49.5881L41.5267 48.5555L39.7729 45.4497L37.9443 46.4823ZM39.4731 46.8174C40.535 46.0509 41.5777 45.2573 42.6 44.4372L41.286 42.7991C40.2914 43.5969 39.2771 44.369 38.244 45.1147L39.4731 46.8174Z" fill="#070D1C"/>
</svg>
