<svg width="151" height="102" viewBox="0 0 151 102" fill="none" xmlns="http://www.w3.org/2000/svg">
<g clip-path="url(#clip0_2403_1054)">
<path d="M90.748 91.3786C81.7814 87.0105 75.6094 77.8109 75.6094 67.1716V54.3271H136.894V67.1716C136.894 73.9484 134.387 80.1353 130.258 84.8616C130.258 84.8686 130.251 84.8685 130.251 84.8685C127.899 87.5722 125.006 89.7914 121.755 91.3786" stroke="#070D1C" stroke-width="2.7" stroke-linejoin="round"/>
<path d="M136.893 60.802H139.084C144.146 60.802 148.415 60.802 149.693 66.1743C150.164 68.1406 150.059 70.1983 149.525 72.1435L149.405 72.5789C148.352 76.4484 145.53 79.6367 141.752 80.992C137.679 82.4527 133.242 82.9162 130.257 84.8615C130.257 84.8685 130.25 84.8685 130.25 84.8685" stroke="#070D1C" stroke-width="2.7" stroke-linejoin="round"/>
<path d="M133.495 100.206H137.827C140.263 100.206 142.468 99.2161 144.069 97.622C145.663 96.0209 146.653 93.8158 146.653 91.3789H65.8477C65.8477 96.2526 69.8009 100.206 74.6739 100.206H123.875" stroke="#070D1C" stroke-width="2.7" stroke-linecap="round" stroke-linejoin="round"/>
<path d="M92.3838 25.8154C92.5664 25.9489 94.1111 27.1006 94.2586 29.2495C94.3709 30.8717 93.6477 32.4518 92.3838 33.3718C92.0257 33.7159 90.3826 35.4013 90.2001 38.1823C89.9754 41.5742 92.117 43.7582 92.3838 44.0251" stroke="#070D1C" stroke-width="2.7" stroke-linecap="round" stroke-linejoin="round"/>
<path d="M105.45 22.9363C105.633 23.0697 107.178 24.2214 107.325 26.3703C107.437 27.9926 106.714 29.5726 105.45 30.4926C105.092 30.8367 103.449 32.5221 103.266 35.3031C103.042 38.695 105.183 40.8791 105.45 41.1459" stroke="#070D1C" stroke-width="2.7" stroke-linecap="round" stroke-linejoin="round"/>
<path d="M117.439 27.2832C117.622 27.4166 119.166 28.5683 119.314 30.7173C119.426 32.3395 118.703 33.9196 117.439 34.8395C117.081 35.1836 115.438 36.8691 115.255 39.65C115.031 43.0419 117.172 45.226 117.439 45.4928" stroke="#070D1C" stroke-width="2.7" stroke-linecap="round" stroke-linejoin="round"/>
<path d="M61.5853 82.4248C56.1575 84.988 50.0908 86.4276 43.6871 86.4276C20.5297 86.4276 1.75391 67.6492 1.75391 44.4886C1.75391 21.328 20.5297 2.54956 43.6871 2.54956C66.8445 2.54956 85.6203 21.328 85.6203 44.4886C85.6203 47.8735 85.2201 51.1671 84.4618 54.3273" stroke="#070D1C" stroke-width="2.7" stroke-linecap="round" stroke-linejoin="round"/>
<path d="M43.6875 20.9631V44.4889" stroke="#070D1C" stroke-width="2.7" stroke-linecap="round" stroke-linejoin="round"/>
<path d="M59.437 51.406L43.6875 44.4888" stroke="#070D1C" stroke-width="2.7" stroke-linecap="round" stroke-linejoin="round"/>
</g>
<defs>
<clipPath id="clip0_2403_1054">
<rect width="151" height="102" fill="white"/>
</clipPath>
</defs>
</svg>
