<svg width="160" height="116" viewBox="0 0 160 116" fill="none" xmlns="http://www.w3.org/2000/svg">
<g clip-path="url(#clip0_755_138)">
<path d="M80.0024 100.583H103.138V99.7995C103.138 99.0103 103.246 98.2469 103.458 97.5093H133.051C133.268 98.2418 133.381 99.0103 133.381 99.7995V100.583H152.024C155.939 100.583 159.111 97.4113 159.111 93.4964V88.5189M159.111 75.335V51.0819M111.51 35.7987V35.8297L111.67 37.4854L111.51 35.7987ZM118.778 4.40698H118.773C110.421 4.40698 103.654 11.1743 103.654 19.5251V23.502C103.654 25.297 104.077 26.9837 104.825 28.4846C105.712 30.2538 107.058 31.7548 108.704 32.8328C107.533 31.0482 106.857 28.9179 106.857 26.6278V18.8082H113.805L115.487 13.3768L117.256 18.8082H130.421V26.6278C130.421 29.0469 129.667 31.2803 128.383 33.1217C131.684 31.1874 133.897 27.6026 133.897 23.502V19.5251C133.897 11.1743 127.129 4.40698 118.778 4.40698H118.778Z" stroke="#231F20" stroke-width="1.40105" stroke-miterlimit="10" stroke-linecap="round"/>
<path d="M7.9758 1.58545C4.0606 1.58545 0.888184 4.75762 0.888184 8.67257V51.0818H24.3073C24.3846 45.7639 29.2026 41.4776 35.1451 41.4776H35.6299V41.9831C35.6299 42.0089 35.6299 42.0398 35.6351 42.0656C35.6867 43.6182 37.3115 44.8561 39.3079 44.8561C41.3093 44.8561 42.929 43.6182 42.9806 42.0656C42.9858 42.0398 42.9858 42.0089 42.9858 41.9831V41.4776H43.4707C49.4028 41.4776 54.2311 45.7639 54.3084 51.0818H80.0024V1.58545H7.9758ZM55.531 23.0944C55.4897 23.1202 55.4536 23.146 55.4123 23.1718L52.3276 26.4935C52.7558 33.8747 47.3292 38.4034 40.03 38.4034H38.5805C31.2763 38.4034 25.3596 32.4872 25.3596 25.1834L24.2144 24.2807L22.8062 23.1718C21.9241 22.6095 21.3412 21.6244 21.3412 20.4999C21.3412 19.1176 22.2284 17.9415 23.4613 17.5083C23.0538 16.977 22.8113 16.3116 22.8113 15.5895C22.8113 13.8358 24.2299 12.4173 25.9786 12.4121C25.6588 11.8705 25.4731 11.2361 25.4731 10.5604C25.4731 8.53845 27.1134 6.8982 29.1355 6.8982C29.739 6.8982 30.3065 7.04261 30.8068 7.30568C31.3639 6.00071 32.6639 5.08257 34.1753 5.08257C34.5622 5.08257 34.9335 5.14446 35.2791 5.2528C36.1612 4.06129 37.5798 3.28759 39.184 3.28759C40.7677 3.28759 42.1759 4.0458 43.0632 5.21669C43.3727 5.12901 43.7028 5.08257 44.0433 5.08257C45.5547 5.08257 46.8546 6.00071 47.4117 7.30568C47.9121 7.04261 48.4795 6.8982 49.083 6.8982C51.1051 6.8982 52.7455 8.53845 52.7455 10.5604C52.7455 11.2361 52.5597 11.8705 52.2399 12.4121C53.9886 12.4173 55.4072 13.8357 55.4072 15.5895C55.4072 16.3116 55.1648 16.977 54.7572 17.5083C55.9901 17.9415 56.8773 19.1176 56.8773 20.4999C56.8773 21.5728 56.346 22.5218 55.531 23.0944V23.0944Z" stroke="#231F20" stroke-width="1.40105" stroke-miterlimit="10" stroke-linecap="round"/>
<path d="M56.8775 20.5002C56.8775 21.573 56.3461 22.5221 55.5311 23.0946C55.4898 23.1204 55.4537 23.1462 55.4125 23.172L52.3278 26.4938C52.7559 33.8749 47.3293 38.4037 40.0301 38.4037H38.5806C31.2764 38.4037 25.3597 32.4874 25.3597 25.1837L24.2145 24.281L22.8063 23.172C21.9242 22.6098 21.3413 21.6246 21.3413 20.5002C21.3413 19.1178 22.2285 17.9418 23.4614 17.5085C23.0539 16.9772 22.8114 16.3119 22.8114 15.5897C22.8114 13.836 24.23 12.4175 25.9787 12.4124C25.6589 11.8708 25.4732 11.2363 25.4732 10.5606C25.4732 8.5387 27.1135 6.89846 29.1356 6.89846C29.7391 6.89846 30.3066 7.04287 30.8069 7.30593C31.3641 6.00097 32.664 5.08283 34.1754 5.08283C34.5623 5.08283 34.9336 5.14472 35.2793 5.25305C36.1613 4.06155 37.5799 3.28784 39.1842 3.28784C40.7678 3.28784 42.176 4.04606 43.0633 5.21694C43.3728 5.12926 43.7029 5.08283 44.0434 5.08283C45.5548 5.08283 46.8547 6.00097 47.4118 7.30593C47.9122 7.04287 48.4796 6.89846 49.0831 6.89846C51.1052 6.89846 52.7456 8.5387 52.7456 10.5606C52.7456 11.2363 52.5598 11.8708 52.24 12.4124C53.9887 12.4175 55.4073 13.836 55.4073 15.5897C55.4073 16.3119 55.1649 16.9772 54.7573 17.5085C55.9902 17.9418 56.8775 19.1178 56.8775 20.5002V20.5002Z" stroke="#231F20" stroke-width="1.40105" stroke-miterlimit="10" stroke-linecap="round"/>
<path d="M133.381 99.7992V100.583H103.138V99.7992C103.138 99.01 103.246 98.2466 103.458 97.509H133.051C133.268 98.2415 133.381 99.01 133.381 99.7992V99.7992Z" fill="#231F20" stroke="#231F20" stroke-width="1.40105" stroke-miterlimit="10"/>
<path d="M54.6697 99.7994V100.583H27.7017V99.7994C27.7017 94.4196 32.0605 90.0559 37.4458 90.0559H37.8792V90.5614C37.8792 90.5872 37.8791 90.6181 37.8843 90.6439C37.9307 92.1965 39.3906 93.4344 41.1857 93.4344C42.9808 93.4344 44.4354 92.1965 44.4819 90.6439C44.4922 90.6181 44.4922 90.5872 44.4922 90.5614V90.0559H44.9255C50.3006 90.0559 54.6697 94.4196 54.6697 99.7994V99.7994Z" fill="#231F20" stroke="#231F20" stroke-width="1.40105" stroke-miterlimit="10"/>
<path d="M0.888184 51.082V93.4965C0.888184 97.4114 4.0606 100.584 7.9758 100.584H27.7015V99.7996C27.7015 94.4197 32.0603 90.056 37.4457 90.056H37.879V90.5616C37.879 90.5873 37.879 90.6183 37.8842 90.6441C37.9306 92.1966 39.3904 93.4345 41.1855 93.4345C42.9806 93.4345 44.4353 92.1966 44.4817 90.6441C44.492 90.6183 44.492 90.5873 44.492 90.5616V90.056H44.9253C50.3004 90.056 54.6695 94.4197 54.6695 99.7996V100.584H80.0024V51.082H0.888184ZM27.3662 78.0121C25.6278 78.0121 24.2144 76.604 24.2144 74.8657C24.2144 73.994 24.5652 73.21 25.1378 72.6426C25.7103 72.07 26.4944 71.7193 27.3662 71.7193H28.6506V74.453C28.6506 75.691 28.8312 76.8825 29.1665 78.0121H27.3662H27.3662ZM40.7522 65.3491C35.9343 68.2892 31.3691 70.1409 28.6506 70.8889C27.5932 71.1777 26.8142 71.3015 26.4119 71.2499C25.9631 69.7747 25.21 63.8636 27.7015 59.567C31.3846 53.2071 42.2894 52.5882 45.5031 54.5637C48.1287 56.1782 45.1884 62.6463 40.7522 65.3491H40.7522ZM57.1972 77.0888C56.6297 77.6613 55.8457 78.0121 54.9739 78.0121H53.1942C53.5295 76.8825 53.7101 75.691 53.7101 74.453V71.7193H54.9739C56.7123 71.7193 58.1205 73.1274 58.1205 74.8657C58.1205 75.7374 57.7697 76.5214 57.1972 77.0888Z" stroke="#231F20" stroke-width="1.40105" stroke-miterlimit="10"/>
<path d="M111.51 35.8296C111.489 36.9902 110.514 38.0167 110.432 38.1043C108.503 40.1572 104.99 39.9767 102.591 37.7072C100.187 35.4428 99.8055 31.9457 101.74 29.9031C102.555 29.0365 103.648 28.562 104.825 28.4846C105.712 30.2538 107.058 31.7548 108.704 32.8328C109.452 33.9831 110.401 34.9889 111.505 35.7935L111.51 35.8296V35.8296Z" fill="#231F20" stroke="#231F20" stroke-width="1.40105" stroke-miterlimit="10"/>
<path d="M159.112 8.67281V51.0821H131.318C131.23 45.3876 127.16 40.797 122.162 40.797H121.749V37.6712C124.478 37.011 126.82 35.3604 128.383 33.1218C131.684 31.1876 133.897 27.6028 133.897 23.5021V19.5253C133.897 11.1744 127.129 4.40712 118.778 4.40712H118.773C110.421 4.40712 103.654 11.1744 103.654 19.5253V23.5021C103.654 25.2971 104.077 26.9838 104.825 28.4848C103.649 28.5621 102.555 29.0367 101.74 29.9032C99.8055 31.9458 100.187 35.4429 102.591 37.7073C104.99 39.9769 108.503 40.1574 110.432 38.1045C110.514 38.0168 111.489 36.9903 111.51 35.8298L111.67 37.4855L111.51 35.7988C112.696 36.6705 114.058 37.3153 115.533 37.6764V40.797H115.126C110.117 40.797 106.057 45.3876 105.97 51.0821H80.0024V1.58569H152.024C155.939 1.58569 159.112 4.75786 159.112 8.67281V8.67281Z" stroke="#231F20" stroke-width="1.40105" stroke-miterlimit="10"/>
<path d="M131.318 51.082H105.97" stroke="#231F20" stroke-width="1.40105" stroke-miterlimit="10"/>
<path d="M114.214 23.208V23.6784" stroke="#231F20" stroke-width="1.40105" stroke-miterlimit="10" stroke-linecap="round"/>
<path d="M123.07 23.208V23.6784" stroke="#231F20" stroke-width="1.40105" stroke-miterlimit="10" stroke-linecap="round"/>
<path d="M114.916 30.488C115.539 31.9447 116.824 32.9407 118.269 33.0652C119.995 33.2137 121.671 32.0959 122.367 30.2898" stroke="#231F20" stroke-width="1.40105" stroke-miterlimit="10" stroke-linecap="round"/>
<path d="M115.533 37.6764V37.4856" stroke="#231F20" stroke-width="1.40105" stroke-miterlimit="10"/>
<path d="M121.749 40.7969V41.3385C121.749 41.3643 121.749 41.3952 121.744 41.4262C121.697 43.0922 120.331 44.423 118.644 44.423C116.957 44.423 115.585 43.0922 115.538 41.4262C115.533 41.3952 115.533 41.3643 115.533 41.3385V40.7969" stroke="#231F20" stroke-width="1.40105" stroke-miterlimit="10"/>
<path d="M121.749 37.671V37.4956" stroke="#231F20" stroke-width="1.40105" stroke-miterlimit="10"/>
<path d="M115.56 40.7969H115.533" stroke="#231F20" stroke-width="1.40105" stroke-miterlimit="10"/>
<path d="M121.751 40.7969H121.718" stroke="#231F20" stroke-width="1.40105" stroke-miterlimit="10"/>
<path d="M130.439 70.1456V74.4525C130.439 81.3746 124.831 86.9814 117.914 86.9814H117.909C110.991 86.9814 105.384 81.3746 105.384 74.4525V69.4028" stroke="#231F20" stroke-width="1.40105" stroke-miterlimit="10" stroke-linecap="round"/>
<path d="M115.248 80.8059H120.575" stroke="#231F20" stroke-width="1.40105" stroke-miterlimit="10" stroke-linecap="round"/>
<path d="M113.202 72.2788V72.7489" stroke="#231F20" stroke-width="1.40105" stroke-miterlimit="10" stroke-linecap="round"/>
<path d="M122.621 72.2788V72.7489" stroke="#231F20" stroke-width="1.40105" stroke-miterlimit="10" stroke-linecap="round"/>
<path d="M121.217 86.9864V90.5609C121.217 90.5867 121.217 90.6176 121.211 90.6434C121.163 92.196 119.709 93.4339 117.911 93.4339C116.118 93.4339 114.658 92.196 114.611 90.6434C114.605 90.6176 114.605 90.5867 114.605 90.5609V86.9812" stroke="#231F20" stroke-width="1.40105" stroke-miterlimit="10" stroke-linecap="round"/>
<path d="M114.605 90.0559C111.51 90.0559 108.709 91.0978 106.651 92.7793C105.103 94.0482 103.973 95.6781 103.458 97.5092" stroke="#231F20" stroke-width="1.40105" stroke-miterlimit="10" stroke-linecap="round"/>
<path d="M133.051 97.5092C132.52 95.642 131.339 93.9863 129.724 92.7123C127.64 91.0669 124.829 90.0559 121.739 90.0559H121.213" stroke="#231F20" stroke-width="1.40105" stroke-miterlimit="10" stroke-linecap="round"/>
<path d="M34.0659 22.6687V23.1388" stroke="#231F20" stroke-width="1.40105" stroke-miterlimit="10" stroke-linecap="round"/>
<path d="M44.5483 22.6685V23.1385" stroke="#231F20" stroke-width="1.40105" stroke-miterlimit="10" stroke-linecap="round"/>
<path d="M34.897 32.4138C35.6346 31.3239 37.155 30.5788 38.8658 30.4857C40.9084 30.3746 42.8921 31.2108 43.7167 32.5621" stroke="#231F20" stroke-width="1.40105" stroke-miterlimit="10" stroke-linecap="round"/>
<path d="M35.6299 41.4775V38.4033" stroke="#231F20" stroke-width="1.40105" stroke-miterlimit="10"/>
<path d="M42.9858 41.4775V38.4084" stroke="#231F20" stroke-width="1.40105" stroke-miterlimit="10"/>
<path d="M35.6566 41.4773H35.6299" stroke="#231F20" stroke-width="1.40105" stroke-miterlimit="10"/>
<path d="M42.9863 41.4773H42.9497" stroke="#231F20" stroke-width="1.40105" stroke-miterlimit="10"/>
<path d="M28.6509 71.721V70.8896" stroke="#231F20" stroke-width="1.40105" stroke-miterlimit="10"/>
<path d="M29.1665 78.012C30.6985 83.2009 35.501 86.9818 41.1804 86.9818C46.8649 86.9818 51.6622 83.2009 53.1943 78.012" stroke="#231F20" stroke-width="1.40105" stroke-miterlimit="10"/>
<path d="M53.71 71.7193V71.2603" stroke="#231F20" stroke-width="1.40105" stroke-miterlimit="10"/>
<path d="M36.4746 71.2476V71.7176" stroke="#231F20" stroke-width="1.40105" stroke-miterlimit="10" stroke-linecap="round"/>
<path d="M45.8931 71.2476V71.7176" stroke="#231F20" stroke-width="1.40105" stroke-miterlimit="10" stroke-linecap="round"/>
<path d="M37.2217 79.2425C37.8845 80.6982 39.2505 81.6935 40.7877 81.8178C42.6229 81.9662 44.4053 80.8492 45.1461 79.0444" stroke="#231F20" stroke-width="1.40105" stroke-miterlimit="10" stroke-linecap="round"/>
<path d="M37.8789 90.0556V86.9814" stroke="#231F20" stroke-width="1.40105" stroke-miterlimit="10"/>
<path d="M44.4922 90.0561V86.9871" stroke="#231F20" stroke-width="1.40105" stroke-miterlimit="10"/>
<path d="M37.9056 90.0559H37.8789" stroke="#231F20" stroke-width="1.40105" stroke-miterlimit="10"/>
<path d="M44.4926 90.0559H44.4561" stroke="#231F20" stroke-width="1.40105" stroke-miterlimit="10"/>
<path d="M106.653 92.7789C103.909 92.3405 101.809 89.9575 101.809 87.0845V69.5059C101.809 61.2428 108.51 54.5425 116.774 54.5425H119.255C127.518 54.5425 134.219 61.2428 134.219 69.5059V87.0845C134.219 89.8337 132.3 92.1342 129.726 92.7118" stroke="#231F20" stroke-width="1.40105" stroke-miterlimit="10" stroke-linecap="round"/>
<path d="M105.384 69.4029C107.19 68.24 108.454 67.7567 110.061 66.2822C111.762 64.7215 113.28 63.1845 114.627 61.7163C115.643 63.1364 117.325 65.1094 119.896 66.809C124.165 69.6314 128.421 70.0719 130.439 70.1456" stroke="#231F20" stroke-width="1.40105" stroke-linecap="round" stroke-linejoin="round"/>
<path d="M40.7525 65.349C35.9346 68.289 31.3694 70.1408 28.6509 70.8887C27.5935 71.1775 26.8145 71.3013 26.4122 71.2497C25.9634 69.7745 25.2103 63.8634 27.7018 59.5668C31.3849 53.207 42.2897 52.588 45.5034 54.5635C48.129 56.178 45.1887 62.6462 40.7525 65.349H40.7525Z" stroke="#231F20" stroke-width="1.40105" stroke-linecap="round" stroke-linejoin="round"/>
<path d="M45.1899 60.7446C45.5842 62.0075 47.1222 65.2687 48.8749 67.3064C51.0316 69.8137 53.4852 70.9922 54.7813 71.5072C55.3495 70.7451 56.3386 68.249 56.0439 64.2695C55.8263 61.3319 54.8221 58.6021 52.0734 57.2447C49.5897 56.0182 47.3737 56.0284 46.5802 56.302" stroke="#231F20" stroke-width="1.40105" stroke-linecap="round" stroke-linejoin="round"/>
<path d="M130.42 18.8081V26.6277C130.42 29.0468 129.667 31.2802 128.383 33.1216C126.82 35.3602 124.478 37.0108 121.749 37.671C120.888 37.8825 119.985 37.9959 119.057 37.9959H118.226C117.298 37.9959 116.395 37.8825 115.533 37.6761C114.058 37.3151 112.696 36.6703 111.51 35.7986V35.8296L111.505 35.7935C110.401 34.9888 109.452 33.983 108.704 32.8328C107.533 31.0481 106.857 28.9178 106.857 26.6277V18.8081H113.805L115.487 13.3767L117.256 18.8081H130.42L130.42 18.8081Z" stroke="#231F20" stroke-width="1.40105" stroke-linecap="round" stroke-linejoin="round"/>
<path d="M133.897 19.5251V23.502C133.897 27.6026 131.684 31.1874 128.383 33.1217C129.668 31.2803 130.421 29.0469 130.421 26.6278V18.8082H117.256L115.487 13.3768L113.806 18.8082H106.857V26.6278C106.857 28.9179 107.533 31.0482 108.704 32.8328C107.058 31.7548 105.712 30.2538 104.825 28.4846C104.077 26.9837 103.654 25.297 103.654 23.502V19.5251C103.654 11.1743 110.422 4.40698 118.773 4.40698H118.778C127.13 4.40698 133.897 11.1743 133.897 19.5251H133.897Z" fill="#231F20" stroke="#231F20" stroke-width="1.40105" stroke-linecap="round" stroke-linejoin="round"/>
<path d="M104.824 28.4845C105.49 28.4381 106.176 28.5155 106.851 28.7115" stroke="#231F20" stroke-width="1.40105" stroke-linecap="round" stroke-linejoin="round"/>
<path d="M55.5229 23.0886C56.7352 23.5219 57.6069 24.6825 57.6069 26.0493C57.6069 26.921 57.2562 27.7051 56.6836 28.2724C56.1162 28.845 55.3321 29.1957 54.4603 29.1957H52.6807" stroke="#231F20" stroke-width="1.40105" stroke-linecap="round" stroke-linejoin="round"/>
<path d="M22.8086 23.1714C22.4475 23.3261 22.1225 23.5531 21.8491 23.8265C21.2766 24.3938 20.9258 25.1779 20.9258 26.0496C20.9258 27.7878 22.3392 29.196 24.0776 29.196H25.8778" stroke="#231F20" stroke-width="1.40105" stroke-linecap="round" stroke-linejoin="round"/>
<path d="M44.7622 15.5488C44.3883 16.5257 43.54 17.2943 42.4383 17.5198C41.084 17.7971 39.7538 17.1638 39.082 16.043" stroke="#231F20" stroke-width="1.40105" stroke-miterlimit="10" stroke-linecap="round"/>
<path d="M39.0823 16.0429C38.6435 16.5487 38.0402 16.9197 37.3327 17.0645C35.6145 17.4162 33.9403 16.3111 33.5845 14.5991" stroke="#231F20" stroke-width="1.40105" stroke-miterlimit="10" stroke-linecap="round"/>
<path d="M44.7603 15.5481C45.5185 17.2709 46.4728 18.0239 47.2157 18.3953C48.5362 19.0504 49.5008 18.6429 50.1972 19.4579C50.8162 20.1903 50.4603 20.995 50.6253 22.4444C50.7388 23.445 51.1154 24.8532 52.3276 26.4934" stroke="#231F20" stroke-width="1.40105" stroke-miterlimit="10" stroke-linecap="round"/>
<path d="M33.2491 14.5991C32.4907 16.3199 32.0569 17.0753 31.3136 17.4451C29.9932 18.1021 29.0248 17.6912 28.3297 18.5107C27.7109 19.2402 28.069 20.048 27.9034 21.4945C27.7887 22.4958 27.4114 23.905 26.1982 25.5439" stroke="#231F20" stroke-width="1.40105" stroke-miterlimit="10" stroke-linecap="round"/>
<path d="M80.0025 114.415C82.6288 114.415 84.7579 112.286 84.7579 109.66C84.7579 107.033 82.6288 104.905 80.0025 104.905C77.3761 104.905 75.2471 107.033 75.2471 109.66C75.2471 112.286 77.3761 114.415 80.0025 114.415Z" stroke="#231F20" stroke-width="1.40105" stroke-miterlimit="10"/>
<path d="M92.5593 112.916C94.3581 112.916 95.8163 111.458 95.8163 109.66C95.8163 107.861 94.3581 106.403 92.5593 106.403C90.7605 106.403 89.3022 107.861 89.3022 109.66C89.3022 111.458 90.7605 112.916 92.5593 112.916Z" stroke="#231F20" stroke-width="1.40105" stroke-miterlimit="10"/>
<path d="M67.446 112.916C69.2448 112.916 70.703 111.458 70.703 109.66C70.703 107.861 69.2448 106.403 67.446 106.403C65.6472 106.403 64.189 107.861 64.189 109.66C64.189 111.458 65.6472 112.916 67.446 112.916Z" stroke="#231F20" stroke-width="1.40105" stroke-miterlimit="10"/>
</g>
<defs>
<clipPath id="clip0_755_138">
<rect width="160" height="114.606" fill="white" transform="translate(0 0.697021)"/>
</clipPath>
</defs>
</svg>
