<svg width="160" height="116" viewBox="0 0 160 116" fill="none" xmlns="http://www.w3.org/2000/svg">
<g clip-path="url(#clip0_2403_1064)">
<mask id="mask0_2403_1064" style="mask-type:luminance" maskUnits="userSpaceOnUse" x="0" y="0" width="160" height="116">
<path d="M160 0.697021H0V115.303H160V0.697021Z" fill="white"/>
</mask>
<g mask="url(#mask0_2403_1064)">
<path d="M80 100.583H103.136V99.7995C103.136 99.0103 103.244 98.2469 103.456 97.5093H133.049C133.266 98.2418 133.379 99.0103 133.379 99.7995V100.583H152.022C155.937 100.583 159.109 97.4113 159.109 93.4964V88.5189M159.109 75.335V51.0819M111.508 35.7987V35.8297L111.668 37.4854L111.508 35.7987ZM118.776 4.40698H118.771C110.419 4.40698 103.652 11.1743 103.652 19.5251V23.502C103.652 25.297 104.075 26.9837 104.823 28.4846C105.71 30.2538 107.056 31.7548 108.702 32.8328C107.531 31.0482 106.855 28.9179 106.855 26.6278V18.8082H113.803L115.485 13.3768L117.254 18.8082H130.419V26.6278C130.419 29.0469 129.665 31.2803 128.381 33.1217C131.682 31.1874 133.895 27.6026 133.895 23.502V19.5251C133.895 11.1743 127.127 4.40698 118.776 4.40698Z" stroke="#070D1C" stroke-width="1.40105" stroke-miterlimit="10" stroke-linecap="round"/>
<path d="M7.97433 1.58545C4.05913 1.58545 0.886719 4.75762 0.886719 8.67257V51.0818H24.3058C24.3831 45.7639 29.2011 41.4776 35.1436 41.4776H35.6284V41.9831C35.6284 42.0089 35.6284 42.0398 35.6336 42.0656C35.6852 43.6182 37.31 44.8561 39.3064 44.8561C41.3078 44.8561 42.9275 43.6182 42.9791 42.0656C42.9843 42.0398 42.9843 42.0089 42.9843 41.9831V41.4776H43.4692C49.4013 41.4776 54.2296 45.7639 54.3069 51.0818H80.0009V1.58545H7.97433ZM55.5295 23.0944C55.4882 23.1202 55.4521 23.146 55.4108 23.1718L52.3261 26.4935C52.7543 33.8747 47.3277 38.4034 40.0285 38.4034H38.579C31.2748 38.4034 25.3581 32.4872 25.3581 25.1834L24.2129 24.2807L22.8047 23.1718C21.9226 22.6095 21.3397 21.6244 21.3397 20.4999C21.3397 19.1176 22.2269 17.9415 23.4598 17.5083C23.0523 16.977 22.8098 16.3116 22.8098 15.5895C22.8098 13.8358 24.2284 12.4173 25.9771 12.4121C25.6573 11.8705 25.4716 11.2361 25.4716 10.5604C25.4716 8.53845 27.1119 6.8982 29.134 6.8982C29.7375 6.8982 30.305 7.04261 30.8053 7.30568C31.3624 6.00071 32.6624 5.08257 34.1738 5.08257C34.5607 5.08257 34.932 5.14446 35.2776 5.2528C36.1597 4.06129 37.5783 3.28759 39.1825 3.28759C40.7662 3.28759 42.1744 4.0458 43.0617 5.21669C43.3712 5.12901 43.7013 5.08257 44.0418 5.08257C45.5532 5.08257 46.8531 6.00071 47.4102 7.30568C47.9106 7.04261 48.478 6.8982 49.0815 6.8982C51.1036 6.8982 52.744 8.53845 52.744 10.5604C52.744 11.2361 52.5582 11.8705 52.2384 12.4121C53.9871 12.4173 55.4057 13.8357 55.4057 15.5895C55.4057 16.3116 55.1633 16.977 54.7557 17.5083C55.9886 17.9415 56.8758 19.1176 56.8758 20.4999C56.8758 21.5728 56.3445 22.5218 55.5295 23.0944Z" stroke="#070D1C" stroke-width="1.40105" stroke-miterlimit="10" stroke-linecap="round"/>
<path d="M56.876 20.5002C56.876 21.573 56.3446 22.5221 55.5296 23.0946C55.4883 23.1204 55.4522 23.1462 55.411 23.172L52.3263 26.4938C52.7544 33.8749 47.3278 38.4037 40.0286 38.4037H38.5791C31.2749 38.4037 25.3582 32.4874 25.3582 25.1837L24.213 24.281L22.8048 23.172C21.9227 22.6098 21.3398 21.6246 21.3398 20.5002C21.3398 19.1178 22.227 17.9418 23.4599 17.5085C23.0524 16.9772 22.8099 16.3119 22.8099 15.5897C22.8099 13.836 24.2285 12.4175 25.9772 12.4124C25.6574 11.8708 25.4717 11.2363 25.4717 10.5606C25.4717 8.5387 27.112 6.89846 29.1341 6.89846C29.7376 6.89846 30.3051 7.04287 30.8054 7.30593C31.3626 6.00097 32.6625 5.08283 34.1739 5.08283C34.5608 5.08283 34.9321 5.14472 35.2778 5.25305C36.1598 4.06155 37.5784 3.28784 39.1827 3.28784C40.7663 3.28784 42.1745 4.04606 43.0618 5.21694C43.3713 5.12926 43.7014 5.08283 44.0419 5.08283C45.5533 5.08283 46.8532 6.00097 47.4103 7.30593C47.9107 7.04287 48.4781 6.89846 49.0816 6.89846C51.1037 6.89846 52.7441 8.5387 52.7441 10.5606C52.7441 11.2363 52.5583 11.8708 52.2385 12.4124C53.9872 12.4175 55.4058 13.836 55.4058 15.5897C55.4058 16.3119 55.1634 16.9772 54.7558 17.5085C55.9887 17.9418 56.876 19.1178 56.876 20.5002Z" stroke="#070D1C" stroke-width="1.40105" stroke-miterlimit="10" stroke-linecap="round"/>
<path d="M133.38 99.7992V100.583H103.137V99.7992C103.137 99.01 103.245 98.2466 103.457 97.509H133.05C133.267 98.2415 133.38 99.01 133.38 99.7992Z" fill="#070D1C" stroke="#070D1C" stroke-width="1.40105" stroke-miterlimit="10"/>
<path d="M54.6672 99.7994V100.583H27.6992V99.7994C27.6992 94.4196 32.058 90.0559 37.4433 90.0559H37.8767V90.5614C37.8767 90.5872 37.8766 90.6181 37.8818 90.6439C37.9282 92.1965 39.3881 93.4344 41.1832 93.4344C42.9783 93.4344 44.4329 92.1965 44.4794 90.6439C44.4897 90.6181 44.4897 90.5872 44.4897 90.5614V90.0559H44.923C50.2981 90.0559 54.6672 94.4196 54.6672 99.7994Z" fill="#070D1C" stroke="#070D1C" stroke-width="1.40105" stroke-miterlimit="10"/>
<path d="M0.886719 51.082V93.4965C0.886719 97.4114 4.05913 100.584 7.97433 100.584H27.7V99.7996C27.7 94.4197 32.0588 90.056 37.4442 90.056H37.8775V90.5616C37.8775 90.5873 37.8775 90.6183 37.8827 90.6441C37.9291 92.1966 39.3889 93.4345 41.184 93.4345C42.9791 93.4345 44.4338 92.1966 44.4802 90.6441C44.4905 90.6183 44.4905 90.5873 44.4905 90.5616V90.056H44.9238C50.2989 90.056 54.668 94.4197 54.668 99.7996V100.584H80.0009V51.082H0.886719ZM27.3647 78.0121C25.6263 78.0121 24.2129 76.604 24.2129 74.8657C24.2129 73.994 24.5637 73.21 25.1363 72.6426C25.7088 72.07 26.4929 71.7193 27.3647 71.7193H28.6491V74.453C28.6491 75.691 28.8297 76.8825 29.165 78.0121H27.3647ZM40.7507 65.3491C35.9328 68.2892 31.3676 70.1409 28.6491 70.8889C27.5917 71.1777 26.8127 71.3015 26.4104 71.2499C25.9616 69.7747 25.2085 63.8636 27.7 59.567C31.3831 53.2071 42.2879 52.5882 45.5016 54.5637C48.1272 56.1782 45.1869 62.6463 40.7507 65.3491ZM57.1957 77.0888C56.6282 77.6613 55.8442 78.0121 54.9724 78.0121H53.1927C53.528 76.8825 53.7086 75.691 53.7086 74.453V71.7193H54.9724C56.7108 71.7193 58.119 73.1274 58.119 74.8657C58.119 75.7374 57.7682 76.5214 57.1957 77.0888Z" stroke="#070D1C" stroke-width="1.40105" stroke-miterlimit="10"/>
<path d="M111.508 35.8296C111.487 36.9902 110.512 38.0167 110.43 38.1043C108.501 40.1572 104.988 39.9767 102.589 37.7072C100.185 35.4428 99.8036 31.9457 101.738 29.9031C102.553 29.0365 103.646 28.562 104.823 28.4846C105.71 30.2538 107.056 31.7548 108.702 32.8328C109.45 33.9831 110.399 34.9889 111.503 35.7935L111.508 35.8296Z" fill="#070D1C" stroke="#070D1C" stroke-width="1.40105" stroke-miterlimit="10"/>
<path d="M159.11 8.67281V51.0821H131.316C131.228 45.3876 127.158 40.797 122.16 40.797H121.747V37.6712C124.476 37.011 126.818 35.3604 128.381 33.1218C131.682 31.1876 133.895 27.6028 133.895 23.5021V19.5253C133.895 11.1744 127.127 4.40712 118.776 4.40712H118.771C110.419 4.40712 103.652 11.1744 103.652 19.5253V23.5021C103.652 25.2971 104.075 26.9838 104.823 28.4848C103.647 28.5621 102.553 29.0367 101.738 29.9032C99.8031 31.9458 100.185 35.4429 102.589 37.7073C104.988 39.9769 108.501 40.1574 110.43 38.1045C110.512 38.0168 111.487 36.9903 111.508 35.8298L111.668 37.4855L111.508 35.7988C112.694 36.6705 114.056 37.3153 115.531 37.6764V40.797H115.124C110.115 40.797 106.055 45.3876 105.968 51.0821H80V1.58569H152.022C155.937 1.58569 159.11 4.75786 159.11 8.67281Z" stroke="#070D1C" stroke-width="1.40105" stroke-miterlimit="10"/>
<path d="M131.317 51.082H105.969" stroke="#070D1C" stroke-width="1.40105" stroke-miterlimit="10"/>
<path d="M114.211 23.208V23.6784" stroke="#070D1C" stroke-width="1.40105" stroke-miterlimit="10" stroke-linecap="round"/>
<path d="M123.07 23.208V23.6784" stroke="#070D1C" stroke-width="1.40105" stroke-miterlimit="10" stroke-linecap="round"/>
<path d="M114.914 30.488C115.537 31.9447 116.822 32.9407 118.267 33.0652C119.993 33.2137 121.669 32.0959 122.365 30.2898" stroke="#070D1C" stroke-width="1.40105" stroke-miterlimit="10" stroke-linecap="round"/>
<path d="M115.531 37.6764V37.4856" stroke="#070D1C" stroke-width="1.40105" stroke-miterlimit="10"/>
<path d="M121.747 40.7969V41.3385C121.747 41.3643 121.747 41.3952 121.742 41.4262C121.695 43.0922 120.329 44.423 118.642 44.423C116.955 44.423 115.583 43.0922 115.536 41.4262C115.531 41.3952 115.531 41.3643 115.531 41.3385V40.7969" stroke="#070D1C" stroke-width="1.40105" stroke-miterlimit="10"/>
<path d="M121.746 37.671V37.4956" stroke="#070D1C" stroke-width="1.40105" stroke-miterlimit="10"/>
<path d="M115.558 40.7969H115.531" stroke="#070D1C" stroke-width="1.40105" stroke-miterlimit="10"/>
<path d="M121.748 40.7969H121.715" stroke="#070D1C" stroke-width="1.40105" stroke-miterlimit="10"/>
<path d="M130.438 70.1456V74.4525C130.438 81.3746 124.83 86.9814 117.913 86.9814H117.908C110.99 86.9814 105.383 81.3746 105.383 74.4525V69.4028" stroke="#070D1C" stroke-width="1.40105" stroke-miterlimit="10" stroke-linecap="round"/>
<path d="M115.246 80.8059H120.573" stroke="#070D1C" stroke-width="1.40105" stroke-miterlimit="10" stroke-linecap="round"/>
<path d="M113.199 72.2788V72.7489" stroke="#070D1C" stroke-width="1.40105" stroke-miterlimit="10" stroke-linecap="round"/>
<path d="M122.621 72.2788V72.7489" stroke="#070D1C" stroke-width="1.40105" stroke-miterlimit="10" stroke-linecap="round"/>
<path d="M121.217 86.9864V90.5609C121.217 90.5867 121.217 90.6176 121.211 90.6434C121.163 92.196 119.709 93.4339 117.911 93.4339C116.118 93.4339 114.658 92.196 114.611 90.6434C114.605 90.6176 114.605 90.5867 114.605 90.5609V86.9812" stroke="#070D1C" stroke-width="1.40105" stroke-miterlimit="10" stroke-linecap="round"/>
<path d="M114.604 90.0559C111.509 90.0559 108.708 91.0978 106.65 92.7793C105.102 94.0482 103.972 95.6781 103.457 97.5092" stroke="#070D1C" stroke-width="1.40105" stroke-miterlimit="10" stroke-linecap="round"/>
<path d="M133.049 97.5092C132.518 95.642 131.337 93.9863 129.722 92.7123C127.638 91.0669 124.827 90.0559 121.737 90.0559H121.211" stroke="#070D1C" stroke-width="1.40105" stroke-miterlimit="10" stroke-linecap="round"/>
<path d="M34.0625 22.6687V23.1388" stroke="#070D1C" stroke-width="1.40105" stroke-miterlimit="10" stroke-linecap="round"/>
<path d="M44.5469 22.6685V23.1385" stroke="#070D1C" stroke-width="1.40105" stroke-miterlimit="10" stroke-linecap="round"/>
<path d="M34.8945 32.4138C35.6321 31.3239 37.1525 30.5788 38.8633 30.4857C40.9059 30.3746 42.8896 31.2108 43.7142 32.5621" stroke="#070D1C" stroke-width="1.40105" stroke-miterlimit="10" stroke-linecap="round"/>
<path d="M35.6289 41.4775V38.4033" stroke="#070D1C" stroke-width="1.40105" stroke-miterlimit="10"/>
<path d="M42.9844 41.4775V38.4084" stroke="#070D1C" stroke-width="1.40105" stroke-miterlimit="10"/>
<path d="M35.6556 41.4773H35.6289" stroke="#070D1C" stroke-width="1.40105" stroke-miterlimit="10"/>
<path d="M42.9858 41.4773H42.9492" stroke="#070D1C" stroke-width="1.40105" stroke-miterlimit="10"/>
<path d="M28.6484 71.721V70.8896" stroke="#070D1C" stroke-width="1.40105" stroke-miterlimit="10"/>
<path d="M29.1641 78.012C30.6961 83.2009 35.4986 86.9818 41.178 86.9818C46.8625 86.9818 51.6598 83.2009 53.1919 78.012" stroke="#070D1C" stroke-width="1.40105" stroke-miterlimit="10"/>
<path d="M53.707 71.7193V71.2603" stroke="#070D1C" stroke-width="1.40105" stroke-miterlimit="10"/>
<path d="M36.4727 71.2476V71.7176" stroke="#070D1C" stroke-width="1.40105" stroke-miterlimit="10" stroke-linecap="round"/>
<path d="M45.8906 71.2476V71.7176" stroke="#070D1C" stroke-width="1.40105" stroke-miterlimit="10" stroke-linecap="round"/>
<path d="M37.2188 79.2425C37.8816 80.6982 39.2476 81.6935 40.7848 81.8178C42.62 81.9662 44.4024 80.8492 45.1432 79.0444" stroke="#070D1C" stroke-width="1.40105" stroke-miterlimit="10" stroke-linecap="round"/>
<path d="M37.8789 90.0556V86.9814" stroke="#070D1C" stroke-width="1.40105" stroke-miterlimit="10"/>
<path d="M44.4922 90.0561V86.9871" stroke="#070D1C" stroke-width="1.40105" stroke-miterlimit="10"/>
<path d="M37.9056 90.0559H37.8789" stroke="#070D1C" stroke-width="1.40105" stroke-miterlimit="10"/>
<path d="M44.4896 90.0559H44.4531" stroke="#070D1C" stroke-width="1.40105" stroke-miterlimit="10"/>
<path d="M106.653 92.7789C103.909 92.3405 101.809 89.9575 101.809 87.0845V69.5059C101.809 61.2428 108.51 54.5425 116.774 54.5425H119.255C127.518 54.5425 134.219 61.2428 134.219 69.5059V87.0845C134.219 89.8337 132.3 92.1342 129.726 92.7118" stroke="#070D1C" stroke-width="1.40105" stroke-miterlimit="10" stroke-linecap="round"/>
<path d="M105.383 69.4029C107.189 68.24 108.453 67.7567 110.06 66.2822C111.761 64.7215 113.279 63.1845 114.626 61.7163C115.642 63.1364 117.324 65.1094 119.895 66.809C124.164 69.6314 128.42 70.0719 130.438 70.1456" stroke="#070D1C" stroke-width="1.40105" stroke-linecap="round" stroke-linejoin="round"/>
<path d="M40.753 65.349C35.9351 68.289 31.3699 70.1408 28.6514 70.8887C27.594 71.1775 26.815 71.3013 26.4127 71.2497C25.9639 69.7745 25.2108 63.8634 27.7023 59.5668C31.3854 53.207 42.2902 52.588 45.5039 54.5635C48.1295 56.178 45.1892 62.6462 40.753 65.349Z" stroke="#070D1C" stroke-width="1.40105" stroke-linecap="round" stroke-linejoin="round"/>
<path d="M45.1875 60.7446C45.5818 62.0075 47.1198 65.2687 48.8725 67.3064C51.0292 69.8137 53.4828 70.9922 54.7789 71.5072C55.3471 70.7451 56.3362 68.249 56.0415 64.2695C55.8239 61.3319 54.8197 58.6021 52.071 57.2447C49.5873 56.0182 47.3713 56.0284 46.5778 56.302" stroke="#070D1C" stroke-width="1.40105" stroke-linecap="round" stroke-linejoin="round"/>
<path d="M130.418 18.8081V26.6277C130.418 29.0468 129.665 31.2802 128.381 33.1216C126.818 35.3602 124.476 37.0108 121.747 37.671C120.886 37.8825 119.983 37.9959 119.055 37.9959H118.224C117.296 37.9959 116.393 37.8825 115.531 37.6761C114.056 37.3151 112.694 36.6703 111.508 35.7986V35.8296L111.503 35.7935C110.399 34.9888 109.45 33.983 108.702 32.8328C107.531 31.0481 106.855 28.9178 106.855 26.6277V18.8081H113.803L115.485 13.3767L117.254 18.8081H130.418Z" stroke="#070D1C" stroke-width="1.40105" stroke-linecap="round" stroke-linejoin="round"/>
<path d="M133.895 19.5251V23.502C133.895 27.6026 131.682 31.1874 128.381 33.1217C129.666 31.2803 130.419 29.0469 130.419 26.6278V18.8082H117.254L115.485 13.3768L113.804 18.8082H106.855V26.6278C106.855 28.9179 107.531 31.0482 108.702 32.8328C107.056 31.7548 105.71 30.2538 104.823 28.4846C104.075 26.9837 103.652 25.297 103.652 23.502V19.5251C103.652 11.1743 110.42 4.40698 118.771 4.40698H118.776C127.128 4.40698 133.895 11.1743 133.895 19.5251Z" fill="#070D1C" stroke="#070D1C" stroke-width="1.40105" stroke-linecap="round" stroke-linejoin="round"/>
<path d="M104.824 28.4845C105.49 28.4381 106.176 28.5155 106.851 28.7115" stroke="#070D1C" stroke-width="1.40105" stroke-linecap="round" stroke-linejoin="round"/>
<path d="M55.5219 23.0886C56.7342 23.5219 57.6059 24.6825 57.6059 26.0493C57.6059 26.921 57.2552 27.7051 56.6826 28.2724C56.1152 28.845 55.3311 29.1957 54.4593 29.1957H52.6797" stroke="#070D1C" stroke-width="1.40105" stroke-linecap="round" stroke-linejoin="round"/>
<path d="M22.8086 23.1714C22.4475 23.3261 22.1225 23.5531 21.8491 23.8265C21.2766 24.3938 20.9258 25.1779 20.9258 26.0496C20.9258 27.7878 22.3392 29.196 24.0776 29.196H25.8778" stroke="#070D1C" stroke-width="1.40105" stroke-linecap="round" stroke-linejoin="round"/>
<path d="M44.7622 15.5488C44.3883 16.5257 43.54 17.2943 42.4383 17.5198C41.084 17.7971 39.7538 17.1638 39.082 16.043" stroke="#070D1C" stroke-width="1.40105" stroke-miterlimit="10" stroke-linecap="round"/>
<path d="M39.0798 16.0429C38.641 16.5487 38.0377 16.9197 37.3302 17.0645C35.612 17.4162 33.9378 16.3111 33.582 14.5991" stroke="#070D1C" stroke-width="1.40105" stroke-miterlimit="10" stroke-linecap="round"/>
<path d="M44.7578 15.5481C45.516 17.2709 46.4703 18.0239 47.2132 18.3953C48.5337 19.0504 49.4983 18.6429 50.1947 19.4579C50.8137 20.1903 50.4578 20.995 50.6228 22.4444C50.7363 23.445 51.1129 24.8532 52.3251 26.4934" stroke="#070D1C" stroke-width="1.40105" stroke-miterlimit="10" stroke-linecap="round"/>
<path d="M33.2462 14.5991C32.4878 16.3199 32.054 17.0753 31.3107 17.4451C29.9903 18.1021 29.0219 17.6912 28.3268 18.5107C27.708 19.2402 28.0661 20.048 27.9005 21.4945C27.7858 22.4958 27.4085 23.905 26.1953 25.5439" stroke="#070D1C" stroke-width="1.40105" stroke-miterlimit="10" stroke-linecap="round"/>
<path d="M80.0015 114.415C82.6278 114.415 84.7569 112.286 84.7569 109.66C84.7569 107.033 82.6278 104.905 80.0015 104.905C77.3751 104.905 75.2461 107.033 75.2461 109.66C75.2461 112.286 77.3751 114.415 80.0015 114.415Z" stroke="#070D1C" stroke-width="1.40105" stroke-miterlimit="10"/>
<path d="M92.5579 112.916C94.3567 112.916 95.8149 111.458 95.8149 109.66C95.8149 107.861 94.3567 106.403 92.5579 106.403C90.7591 106.403 89.3008 107.861 89.3008 109.66C89.3008 111.458 90.7591 112.916 92.5579 112.916Z" stroke="#070D1C" stroke-width="1.40105" stroke-miterlimit="10"/>
<path d="M67.4445 112.916C69.2433 112.916 70.7015 111.458 70.7015 109.66C70.7015 107.861 69.2433 106.403 67.4445 106.403C65.6457 106.403 64.1875 107.861 64.1875 109.66C64.1875 111.458 65.6457 112.916 67.4445 112.916Z" stroke="#070D1C" stroke-width="1.40105" stroke-miterlimit="10"/>
</g>
</g>
<defs>
<clipPath id="clip0_2403_1064">
<rect width="160" height="116" fill="white"/>
</clipPath>
</defs>
</svg>
