<svg width="164" height="151" viewBox="0 0 164 151" fill="none" xmlns="http://www.w3.org/2000/svg">
<path d="M125.265 123.865L130.391 123.877C135.963 123.877 140.48 119.356 140.48 113.785V55.7234" stroke="black" stroke-width="2.08217" stroke-miterlimit="10" stroke-linecap="round"/>
<path d="M80.4456 29.0986H11.5867C6.01403 29.0986 1.49146 33.6195 1.49146 39.1901V113.779C1.49146 119.35 6.01403 123.871 11.5867 123.871L56.1442 123.883L85.4813 123.894H112.891" stroke="black" stroke-width="2.08217" stroke-miterlimit="10" stroke-linecap="round"/>
<path d="M56.1442 134.922V123.876" stroke="black" stroke-width="2.08217" stroke-miterlimit="10" stroke-linecap="round"/>
<path d="M85.4811 134.922V123.876" stroke="black" stroke-width="2.08217" stroke-miterlimit="10" stroke-linecap="round"/>
<path d="M70.8096 134.917H92.3486C96.3401 134.917 99.5799 138.15 99.5799 142.146C99.5799 145.802 96.6146 148.76 92.9631 148.76H48.6622C45.0047 148.76 42.0453 145.796 42.0453 142.146C42.0453 138.156 45.2792 134.917 49.2767 134.917H61.8063" stroke="black" stroke-width="2.08217" stroke-miterlimit="10" stroke-linecap="round"/>
<path d="M140.492 55.7234V106.247H140.486H1.49728" stroke="black" stroke-width="2.08217" stroke-miterlimit="10" stroke-linecap="round"/>
<path d="M118.07 123.894C118.07 123.942 118.07 123.847 118.07 123.894" stroke="black" stroke-width="2.08217" stroke-miterlimit="10" stroke-linecap="round"/>
<path d="M13.1677 117.513C14.7526 117.513 16.0375 116.229 16.0375 114.645C16.0375 113.06 14.7526 111.776 13.1677 111.776C11.5827 111.776 10.2978 113.06 10.2978 114.645C10.2978 116.229 11.5827 117.513 13.1677 117.513Z" stroke="black" stroke-width="2.08217" stroke-miterlimit="10" stroke-linecap="round"/>
<path d="M25.2378 117.513C26.8228 117.513 28.1077 116.229 28.1077 114.645C28.1077 113.06 26.8228 111.776 25.2378 111.776C23.6528 111.776 22.3679 113.06 22.3679 114.645C22.3679 116.229 23.6528 117.513 25.2378 117.513Z" stroke="black" stroke-width="2.08217" stroke-miterlimit="10" stroke-linecap="round"/>
<path d="M80.4455 37.8066H1.59277" stroke="black" stroke-width="2.08217" stroke-miterlimit="10" stroke-linecap="round"/>
<path d="M81.6332 76.4199H33.5913" stroke="black" stroke-width="2.08217" stroke-miterlimit="10" stroke-linecap="round"/>
<path d="M25.4947 76.4199H19.7132" stroke="black" stroke-width="2.08217" stroke-miterlimit="10" stroke-linecap="round"/>
<path d="M80.4456 67.0503H60.804" stroke="black" stroke-width="2.08217" stroke-miterlimit="10" stroke-linecap="round"/>
<path d="M71.3587 57.895H60.804" stroke="black" stroke-width="2.08217" stroke-miterlimit="10" stroke-linecap="round"/>
<path d="M101.06 85.79H63.8828" stroke="black" stroke-width="2.08217" stroke-miterlimit="10" stroke-linecap="round"/>
<path d="M55.4044 85.79H44.629" stroke="black" stroke-width="2.08217" stroke-miterlimit="10" stroke-linecap="round"/>
<path d="M35.733 85.79H19.7131" stroke="black" stroke-width="2.08217" stroke-miterlimit="10" stroke-linecap="round"/>
<path d="M121.907 85.7898H108.404" stroke="black" stroke-width="2.08217" stroke-miterlimit="10" stroke-linecap="round"/>
<path d="M111.555 95.1594H92.7665" stroke="black" stroke-width="2.08217" stroke-miterlimit="10" stroke-linecap="round"/>
<path d="M85.022 95.1594H36.5803" stroke="black" stroke-width="2.08217" stroke-miterlimit="10" stroke-linecap="round"/>
<path d="M29.689 95.1594H19.7131" stroke="black" stroke-width="2.08217" stroke-miterlimit="10" stroke-linecap="round"/>
<path d="M116.871 95.1592H121.907" stroke="black" stroke-width="2.08217" stroke-miterlimit="10" stroke-linecap="round"/>
<path d="M33.1079 46.9267V64.0919C33.1079 65.2191 32.1592 65.9229 31.4015 65.3622L25.077 60.6445H20.5306C19.7728 60.6445 19.1523 59.9885 19.1523 59.1833V51.8532C19.1523 51.048 19.7728 50.392 20.5306 50.392H25.071L31.4015 45.6683C32.1592 45.1017 33.1079 45.8114 33.1079 46.9387V46.9267Z" fill="black" stroke="black" stroke-width="2.08217" stroke-miterlimit="10" stroke-linecap="round"/>
<path d="M38.2093 51.5315C38.5136 51.8595 39.6054 53.1299 39.7069 55.116C39.8321 57.6329 38.257 59.2612 38.0243 59.4938" stroke="black" stroke-width="2.08217" stroke-miterlimit="10" stroke-linecap="round"/>
<path d="M42.6244 48.0488C43.1913 48.6631 45.2437 51.0488 45.4287 54.7646C45.6673 59.4823 42.708 62.536 42.2724 62.9714" stroke="black" stroke-width="2.08217" stroke-miterlimit="10" stroke-linecap="round"/>
<path d="M121.907 2.24219C99.9023 2.24219 82.0626 15.4888 82.0626 31.8309C82.0626 48.1729 99.9023 61.4195 121.907 61.4195C143.911 61.4195 161.751 48.1729 161.751 31.8309C161.751 15.4888 143.911 2.24219 121.907 2.24219ZM100.392 37.807C97.0921 37.807 94.4132 35.1291 94.4132 31.8309C94.4132 28.5326 97.0921 25.8547 100.392 25.8547C103.691 25.8547 106.37 28.5326 106.37 31.8309C106.37 35.1291 103.691 37.807 100.392 37.807ZM121.907 37.807C118.607 37.807 115.928 35.1291 115.928 31.8309C115.928 28.5326 118.607 25.8547 121.907 25.8547C125.206 25.8547 127.885 28.5326 127.885 31.8309C127.885 35.1291 125.206 37.807 121.907 37.807ZM143.422 37.807C140.122 37.807 137.443 35.1291 137.443 31.8309C137.443 28.5326 140.122 25.8547 143.422 25.8547C146.721 25.8547 149.4 28.5326 149.4 31.8309C149.4 35.1291 146.721 37.807 143.422 37.807Z" fill="black" stroke="black" stroke-width="2.08217" stroke-miterlimit="10" stroke-linecap="round"/>
<path d="M96.8118 73.0322L115.105 56.1176L100.225 47.5291L94.7175 71.8215C94.4431 73.0382 95.8989 73.8791 96.8177 73.0322H96.8118Z" fill="black" stroke="black" stroke-width="2.08217" stroke-miterlimit="10" stroke-linecap="round"/>
</svg>
