<svg width="164" height="151" viewBox="0 0 164 151" fill="none" xmlns="http://www.w3.org/2000/svg">
<path d="M125.266 123.865L130.392 123.877C135.964 123.877 140.481 119.356 140.481 113.785V55.7234" stroke="#070D1C" stroke-width="2.08217" stroke-miterlimit="10" stroke-linecap="round"/>
<path d="M80.4463 29.0986H11.5874C6.01476 29.0986 1.49219 33.6195 1.49219 39.1901V113.779C1.49219 119.35 6.01476 123.871 11.5874 123.871L56.1449 123.883L85.482 123.894H112.892" stroke="#070D1C" stroke-width="2.08217" stroke-miterlimit="10" stroke-linecap="round"/>
<path d="M56.1445 134.922V123.876" stroke="#070D1C" stroke-width="2.08217" stroke-miterlimit="10" stroke-linecap="round"/>
<path d="M85.4805 134.922V123.876" stroke="#070D1C" stroke-width="2.08217" stroke-miterlimit="10" stroke-linecap="round"/>
<path d="M70.8112 134.917H92.3502C96.3417 134.917 99.5815 138.15 99.5815 142.146C99.5815 145.802 96.6162 148.76 92.9647 148.76H48.6638C45.0063 148.76 42.0469 145.796 42.0469 142.146C42.0469 138.156 45.2808 134.917 49.2783 134.917H61.8079" stroke="#070D1C" stroke-width="2.08217" stroke-miterlimit="10" stroke-linecap="round"/>
<path d="M140.491 55.7234V106.247H140.485H1.49609" stroke="#070D1C" stroke-width="2.08217" stroke-miterlimit="10" stroke-linecap="round"/>
<path d="M118.07 123.894C118.07 123.942 118.07 123.847 118.07 123.894Z" stroke="#070D1C" stroke-width="2.08217" stroke-miterlimit="10" stroke-linecap="round"/>
<path d="M13.1668 117.513C14.7517 117.513 16.0366 116.229 16.0366 114.645C16.0366 113.06 14.7517 111.776 13.1668 111.776C11.5818 111.776 10.2969 113.06 10.2969 114.645C10.2969 116.229 11.5818 117.513 13.1668 117.513Z" stroke="#070D1C" stroke-width="2.08217" stroke-miterlimit="10" stroke-linecap="round"/>
<path d="M25.2371 117.513C26.8221 117.513 28.107 116.229 28.107 114.645C28.107 113.06 26.8221 111.776 25.2371 111.776C23.6521 111.776 22.3672 113.06 22.3672 114.645C22.3672 116.229 23.6521 117.513 25.2371 117.513Z" stroke="#070D1C" stroke-width="2.08217" stroke-miterlimit="10" stroke-linecap="round"/>
<path d="M80.4465 37.8066H1.59375" stroke="#070D1C" stroke-width="2.08217" stroke-miterlimit="10" stroke-linecap="round"/>
<path d="M81.6317 76.4199H33.5898" stroke="#070D1C" stroke-width="2.08217" stroke-miterlimit="10" stroke-linecap="round"/>
<path d="M25.4963 76.4199H19.7148" stroke="#070D1C" stroke-width="2.08217" stroke-miterlimit="10" stroke-linecap="round"/>
<path d="M80.4463 67.0503H60.8047" stroke="#070D1C" stroke-width="2.08217" stroke-miterlimit="10" stroke-linecap="round"/>
<path d="M71.3594 57.895H60.8047" stroke="#070D1C" stroke-width="2.08217" stroke-miterlimit="10" stroke-linecap="round"/>
<path d="M101.06 85.79H63.8828" stroke="#070D1C" stroke-width="2.08217" stroke-miterlimit="10" stroke-linecap="round"/>
<path d="M55.4043 85.79H44.6289" stroke="#070D1C" stroke-width="2.08217" stroke-miterlimit="10" stroke-linecap="round"/>
<path d="M35.7347 85.79H19.7148" stroke="#070D1C" stroke-width="2.08217" stroke-miterlimit="10" stroke-linecap="round"/>
<path d="M121.905 85.7898H108.402" stroke="#070D1C" stroke-width="2.08217" stroke-miterlimit="10" stroke-linecap="round"/>
<path d="M111.554 95.1594H92.7656" stroke="#070D1C" stroke-width="2.08217" stroke-miterlimit="10" stroke-linecap="round"/>
<path d="M85.0237 95.1594H36.582" stroke="#070D1C" stroke-width="2.08217" stroke-miterlimit="10" stroke-linecap="round"/>
<path d="M29.6907 95.1594H19.7148" stroke="#070D1C" stroke-width="2.08217" stroke-miterlimit="10" stroke-linecap="round"/>
<path d="M116.871 95.1592H121.907" stroke="#070D1C" stroke-width="2.08217" stroke-miterlimit="10" stroke-linecap="round"/>
<path d="M33.1079 46.9267V64.0919C33.1079 65.2191 32.1592 65.9229 31.4015 65.3622L25.077 60.6445H20.5306C19.7728 60.6445 19.1523 59.9885 19.1523 59.1833V51.8532C19.1523 51.048 19.7728 50.392 20.5306 50.392H25.071L31.4015 45.6683C32.1592 45.1017 33.1079 45.8114 33.1079 46.9387V46.9267Z" fill="#070D1C" stroke="#070D1C" stroke-width="2.08217" stroke-miterlimit="10" stroke-linecap="round"/>
<path d="M38.2084 51.5315C38.5127 51.8595 39.6045 53.1299 39.706 55.116C39.8312 57.6329 38.2561 59.2612 38.0234 59.4938" stroke="#070D1C" stroke-width="2.08217" stroke-miterlimit="10" stroke-linecap="round"/>
<path d="M42.6254 48.0488C43.1923 48.6631 45.2447 51.0488 45.4297 54.7646C45.6683 59.4823 42.709 62.536 42.2734 62.9714" stroke="#070D1C" stroke-width="2.08217" stroke-miterlimit="10" stroke-linecap="round"/>
<path d="M121.907 2.24219C99.9022 2.24219 82.0625 15.4888 82.0625 31.8309C82.0625 48.1729 99.9022 61.4195 121.907 61.4195C143.911 61.4195 161.751 48.1729 161.751 31.8309C161.751 15.4888 143.911 2.24219 121.907 2.24219ZM100.392 37.807C97.092 37.807 94.4131 35.1291 94.4131 31.8309C94.4131 28.5326 97.092 25.8547 100.392 25.8547C103.691 25.8547 106.37 28.5326 106.37 31.8309C106.37 35.1291 103.691 37.807 100.392 37.807ZM121.907 37.807C118.607 37.807 115.928 35.1291 115.928 31.8309C115.928 28.5326 118.607 25.8547 121.907 25.8547C125.206 25.8547 127.885 28.5326 127.885 31.8309C127.885 35.1291 125.206 37.807 121.907 37.807ZM143.422 37.807C140.122 37.807 137.443 35.1291 137.443 31.8309C137.443 28.5326 140.122 25.8547 143.422 25.8547C146.721 25.8547 149.4 28.5326 149.4 31.8309C149.4 35.1291 146.721 37.807 143.422 37.807Z" fill="#070D1C" stroke="#070D1C" stroke-width="2.08217" stroke-miterlimit="10" stroke-linecap="round"/>
<path d="M96.8118 73.0322L115.105 56.1176L100.225 47.5291L94.7175 71.8215C94.4431 73.0382 95.8989 73.8791 96.8177 73.0322H96.8118Z" fill="#070D1C" stroke="#070D1C" stroke-width="2.08217" stroke-miterlimit="10" stroke-linecap="round"/>
</svg>
