<svg width="109" height="200" viewBox="0 0 109 200" fill="none" xmlns="http://www.w3.org/2000/svg">
<g clip-path="url(#clip0_2403_1154)">
<mask id="mask0_2403_1154" style="mask-type:luminance" maskUnits="userSpaceOnUse" x="0" y="0" width="109" height="200">
<path d="M108.217 0.160156H0V199.839H108.217V0.160156Z" fill="white"/>
</mask>
<g mask="url(#mask0_2403_1154)">
<path d="M49.0186 126.843C48.894 126.817 48.7693 126.784 48.6445 126.758" stroke="#070D1C" stroke-width="3.2817" stroke-miterlimit="10"/>
<path d="M53.3945 127.554C54.1165 127.633 54.694 127.672 55.0944 127.692C55.9214 127.737 56.5974 127.744 57.0175 127.744C57.0175 127.744 62.9901 127.744 68.7594 125.816C81.0002 121.727 93.4312 103.05 93.4312 91.5135V75.5605" stroke="#070D1C" stroke-width="3.2817" stroke-miterlimit="10"/>
<path d="M43.3515 125.099C43.3055 125.08 43.2597 125.06 43.2137 125.046C43.2202 125.04 43.2137 125.04 43.2137 125.04C42.9906 124.955 42.7674 124.863 42.5508 124.765" stroke="#070D1C" stroke-width="3.2817" stroke-miterlimit="10"/>
<path d="M20.6211 71.001V91.5137C20.6276 100.895 24.2113 109.446 30.0855 115.874C30.7353 116.573 31.6148 117.469 32.7109 118.448" stroke="#070D1C" stroke-width="3.2817" stroke-miterlimit="10"/>
<path d="M43.3515 125.099C43.0824 124.994 42.8133 124.883 42.5508 124.765" stroke="#070D1C" stroke-width="3.2817" stroke-miterlimit="10"/>
<path d="M45.4531 107.434C47.3303 111.53 51.1896 114.333 55.5346 114.679C60.7262 115.097 65.7603 111.954 67.8606 106.872" stroke="#070D1C" stroke-width="3.2817" stroke-miterlimit="10" stroke-linecap="round"/>
<path d="M40.7822 85.9738C41.9131 85.9738 42.8299 84.6782 42.8299 83.0799C42.8299 81.4815 41.9131 80.1858 40.7822 80.1858C39.6512 80.1858 38.7344 81.4815 38.7344 83.0799C38.7344 84.6782 39.6512 85.9738 40.7822 85.9738Z" fill="#070D1C" stroke="#070D1C" stroke-width="3.2817" stroke-miterlimit="10" stroke-linecap="round"/>
<path d="M73.3864 85.9738C74.521 85.9738 75.4408 84.6782 75.4408 83.0799C75.4408 81.4815 74.521 80.1858 73.3864 80.1858C72.2518 80.1858 71.332 81.4815 71.332 83.0799C71.332 84.6782 72.2518 85.9738 73.3864 85.9738Z" fill="#070D1C" stroke="#070D1C" stroke-width="3.2817" stroke-miterlimit="10" stroke-linecap="round"/>
<path d="M20.6211 71.0007C29.5408 71.3274 38.4736 71.654 47.3998 71.9806C48.8175 72.0329 50.1629 71.9545 51.4625 71.765C56.5885 71.0007 60.1787 68.7469 62.0231 67.5645C69.9254 62.5213 71.6712 54.0222 72.892 51.6899C75.6684 54.891 80.4924 59.882 86.3011 63.1092C89.3464 64.8077 91.1121 65.5329 93.4486 65.9705C93.4486 65.9705 93.4552 68.3484 93.4486 66.4082C93.4617 68.7012 93.4486 73.1173 93.4486 75.5606" stroke="#070D1C" stroke-width="3.2817" stroke-linecap="round" stroke-linejoin="round"/>
<path d="M14.8039 75.2993C13.7079 72.9867 13.4453 70.8635 13.4453 67.2313C13.4453 52.1734 19.0177 43.8573 26.1323 36.7366C36.5747 26.2973 50.4367 24.5074 56.7704 24.1089C60.0783 24.331 65.1583 24.9124 70.7044 26.7219C76.2439 28.538 82.2494 31.5823 87.4017 36.7366C90.2897 39.8789 92.2258 42.7794 93.44 44.8176C95.534 48.3192 100.24 56.4066 100.089 67.2313C100.043 70.5434 99.5575 73.2219 99.1698 74.9139" stroke="#070D1C" stroke-width="3.2817" stroke-miterlimit="10" stroke-linecap="round"/>
<path d="M68.7668 125.817V135.459C68.7668 136.518 68.6289 137.55 68.3926 138.523C67.0143 144.03 62.013 148.106 56.06 148.106C54.8852 148.106 53.7431 147.95 52.6602 147.643" stroke="#070D1C" stroke-width="3.2817" stroke-miterlimit="10" stroke-linecap="round"/>
<path d="M19.9308 94.6619C19.1825 94.8317 18.395 94.9298 17.6008 94.9298C12.0416 94.9298 7.53906 90.4485 7.53906 84.9153C7.53906 79.3821 12.0416 74.9072 17.6008 74.9072C18.4015 74.9072 19.1891 75.0052 19.9308 75.1751" stroke="#070D1C" stroke-width="3.2817" stroke-miterlimit="10" stroke-linecap="round"/>
<path d="M19.2392 82.6223C17.0667 82.7921 15.4718 84.2032 14.9336 84.7258L19.2392 82.6223Z" fill="#070D1C"/>
<path d="M19.2392 82.6223C17.0667 82.7921 15.4718 84.2032 14.9336 84.7258" stroke="#070D1C" stroke-width="3.2817" stroke-miterlimit="10" stroke-linecap="round"/>
<path d="M94.1797 75.1751C94.9282 75.0052 95.7158 74.9072 96.5101 74.9072C102.069 74.9072 106.571 79.3886 106.571 84.9153C106.571 90.442 102.069 94.9298 96.5101 94.9298C95.7092 94.9298 94.9216 94.8317 94.1797 94.6619" stroke="#070D1C" stroke-width="3.2817" stroke-miterlimit="10" stroke-linecap="round"/>
<path d="M99.1732 84.7326C98.6348 84.2035 97.0339 82.799 94.8672 82.6292L99.1732 84.7326Z" fill="#070D1C"/>
<path d="M99.1732 84.7326C98.6348 84.2035 97.0339 82.799 94.8672 82.6292" stroke="#070D1C" stroke-width="3.2817" stroke-miterlimit="10" stroke-linecap="round"/>
<path d="M68.765 133.297C71.7906 133.682 76.3522 134.715 81.0188 137.654C82.4956 138.582 90.4241 143.749 93.5746 154.032C94.4081 156.762 94.8614 159.656 94.8614 162.661V198.206H17.0781V165.797C17.0781 163.687 17.4589 157.827 18.3909 154.221C19.5526 149.72 21.9876 144.722 24.6523 140.777" stroke="#070D1C" stroke-width="3.2817" stroke-linecap="round" stroke-linejoin="round"/>
<path d="M81.0234 165.752V161.002" stroke="#070D1C" stroke-width="3.2817" stroke-linecap="round" stroke-linejoin="round"/>
<path d="M81.0234 198.206V183.762V171.095" stroke="#070D1C" stroke-width="3.2817" stroke-linecap="round" stroke-linejoin="round"/>
<path d="M94.8717 183.762H81.0234" stroke="#070D1C" stroke-width="3.2817" stroke-linecap="round" stroke-linejoin="round"/>
<path d="M29.5785 154.221L22.4375 198.036" stroke="#070D1C" stroke-width="3.2817" stroke-linecap="round" stroke-linejoin="round"/>
<path d="M43.4081 156.279L36.5625 198.206" stroke="#070D1C" stroke-width="3.2817" stroke-linecap="round" stroke-linejoin="round"/>
<path d="M35.9694 134.735C36.5732 129.92 37.328 124.152 37.9318 119.337C37.5052 117.919 36.1794 117.018 34.8208 117.155C33.6525 117.272 32.6352 118.148 32.2676 119.356C31.3947 124.315 31.4209 129.404 30.5546 134.362C30.5546 134.362 30.2724 136.805 30.082 137.648" stroke="#070D1C" stroke-width="3.2817" stroke-linecap="round" stroke-linejoin="round"/>
<path d="M37.8984 119.656C38.1216 117.71 39.9593 116.417 41.6658 116.801C43.3001 117.174 44.4027 118.997 43.9039 120.806C43.1229 125.725 42.3352 130.651 41.5542 135.57" stroke="#070D1C" stroke-width="3.2817" stroke-linecap="round" stroke-linejoin="round"/>
<path d="M46.7785 138.183C47.1985 135.596 47.6252 133.009 48.0452 130.422C48.2028 129.442 48.3668 128.456 48.5244 127.476L49.3841 122.204C49.2726 120.904 48.3603 119.819 47.1198 119.513C45.8924 119.212 44.5994 119.735 43.8906 120.819" stroke="#070D1C" stroke-width="3.2817" stroke-linecap="round" stroke-linejoin="round"/>
<path d="M48.5257 127.469C49.1558 126.385 50.3897 125.823 51.5776 126.078C51.8009 126.117 52.024 126.196 52.2209 126.3C53.3038 126.842 53.8289 128.123 53.6254 129.338C53.5204 129.939 53.4286 130.547 53.3563 131.154C52.6476 136.752 50.6785 149.968 50.2978 150.85C49.2412 153.267 47.0359 154.855 47.0359 154.855C45.7034 155.756 45.3359 155.972 43.4062 156.279" stroke="#070D1C" stroke-width="3.2817" stroke-linecap="round" stroke-linejoin="round"/>
<path d="M29.5744 154.222C26.9228 152.464 26.063 149.812 25.0325 146.65C24.5337 145.122 24.4156 143.73 24.4221 142.665C24.4221 142.482 25.2294 136.328 25.6101 133.369C25.8135 132.67 25.4461 129.868 27.9598 129.214C28.905 128.966 31.2218 129.79 30.8477 132.455" stroke="#070D1C" stroke-width="3.2817" stroke-linecap="round" stroke-linejoin="round"/>
<path d="M23.3397 183.762H17.0781" stroke="#070D1C" stroke-width="3.2817" stroke-linecap="round" stroke-linejoin="round"/>
<path d="M37.3567 15.6882C36.8381 17.2887 36.5625 18.9742 36.5625 20.7184C36.5625 23.4491 37.2385 26.0426 38.4659 28.3879" stroke="#070D1C" stroke-width="3.2817" stroke-linecap="round" stroke-linejoin="round"/>
<path d="M78.2108 29.9297C80.0025 27.2056 81.0198 24.0633 81.0198 20.7185C81.0198 10.2661 71.0632 1.79321 58.7896 1.79321C53.9524 1.79321 49.4696 3.1063 45.8203 5.34701" stroke="#070D1C" stroke-width="3.2817" stroke-linecap="round" stroke-linejoin="round"/>
<path d="M40.125 10.4951C40.125 10.5557 40.125 10.4343 40.125 10.4951Z" stroke="#070D1C" stroke-width="3.2817" stroke-miterlimit="10" stroke-linecap="round"/>
<path d="M37.4896 111.726C34.2735 100.797 26.5288 99.3271 23.0764 99.3271C8.89288 99.3394 2.40824 110.635 3.58966 120.408C4.65293 130.155 4.65292 126.15 7.17984 145.689" stroke="#070D1C" stroke-width="3.2817" stroke-linecap="round" stroke-linejoin="round"/>
<path d="M7.69474 146.885L1.63672 141.698" stroke="#070D1C" stroke-width="3.2817" stroke-linecap="round" stroke-linejoin="round"/>
<path d="M11.8105 140.17L7.69531 146.885" stroke="#070D1C" stroke-width="3.2817" stroke-linecap="round" stroke-linejoin="round"/>
<path d="M55.7925 102.227C55.7072 102.195 53.6791 101.358 53.3706 99.3659C53.1081 97.6678 54.2042 95.8904 56.0551 95.231" stroke="#070D1C" stroke-width="3.2817" stroke-linecap="round" stroke-linejoin="round"/>
</g>
</g>
<defs>
<clipPath id="clip0_2403_1154">
<rect width="109" height="200" fill="white"/>
</clipPath>
</defs>
</svg>
