<svg width="115" height="212" viewBox="0 0 115 212" fill="none" xmlns="http://www.w3.org/2000/svg">
<g clip-path="url(#clip0_177_268)">
<path d="M51.7206 134.454C51.5891 134.426 51.4575 134.391 51.3259 134.364" stroke="#070D1C" stroke-width="3.46234" stroke-miterlimit="10"/>
<path d="M56.3394 135.208C57.1011 135.291 57.7104 135.333 58.1328 135.354C59.0054 135.402 59.7186 135.409 60.1618 135.409C60.1618 135.409 66.4632 135.409 72.55 133.366C85.4646 129.031 98.5799 109.234 98.5799 97.0048V80.0947" stroke="#070D1C" stroke-width="3.46234" stroke-miterlimit="10"/>
<path d="M45.7447 132.605C45.6962 132.584 45.6478 132.563 45.5993 132.549C45.6062 132.542 45.5993 132.542 45.5993 132.542C45.3639 132.452 45.1284 132.355 44.8999 132.251" stroke="#070D1C" stroke-width="3.46234" stroke-miterlimit="10"/>
<path d="M21.7573 75.2612V97.0047C21.7642 106.949 25.5451 116.013 31.7427 122.827C32.4283 123.568 33.3562 124.517 34.5126 125.555" stroke="#070D1C" stroke-width="3.46234" stroke-miterlimit="10"/>
<path d="M45.7447 132.605C45.4608 132.494 45.1769 132.376 44.8999 132.251" stroke="#070D1C" stroke-width="3.46234" stroke-miterlimit="10"/>
<path d="M47.9604 113.88C49.9409 118.222 54.0126 121.193 58.5968 121.56C64.0742 122.003 69.3854 118.672 71.6013 113.285" stroke="#070D1C" stroke-width="3.46234" stroke-miterlimit="10" stroke-linecap="round"/>
<path d="M43.0301 91.1326C44.2233 91.1326 45.1906 89.7592 45.1906 88.065C45.1906 86.3707 44.2233 84.9973 43.0301 84.9973C41.8369 84.9973 40.8696 86.3707 40.8696 88.065C40.8696 89.7592 41.8369 91.1326 43.0301 91.1326Z" fill="#070D1C" stroke="#070D1C" stroke-width="3.46234" stroke-miterlimit="10" stroke-linecap="round"/>
<path d="M77.4318 91.1326C78.6289 91.1326 79.5993 89.7592 79.5993 88.065C79.5993 86.3707 78.6289 84.9973 77.4318 84.9973C76.2348 84.9973 75.2644 86.3707 75.2644 88.065C75.2644 89.7592 76.2348 91.1326 77.4318 91.1326Z" fill="#070D1C" stroke="#070D1C" stroke-width="3.46234" stroke-miterlimit="10" stroke-linecap="round"/>
<path d="M21.7573 75.2611C31.168 75.6074 40.5925 75.9536 50.0101 76.2998C51.5058 76.3552 52.9253 76.2721 54.2964 76.0713C59.7046 75.2611 63.4924 72.8721 65.4383 71.6187C73.7756 66.2729 75.6175 57.2639 76.9055 54.7917C79.8347 58.1848 84.9243 63.4753 91.0527 66.8961C94.2657 68.6965 96.1285 69.4652 98.5937 69.9291C98.5937 69.9291 98.6006 72.4497 98.5937 70.3931C98.6075 72.8236 98.5937 77.5047 98.5937 80.0946" stroke="#070D1C" stroke-width="3.46234" stroke-linecap="round" stroke-linejoin="round"/>
<path d="M15.6221 79.8175C14.4657 77.3662 14.1887 75.1156 14.1887 71.2655C14.1887 55.3041 20.0678 46.489 27.5741 38.9411C38.5913 27.8754 53.2163 25.9781 59.8986 25.5557C63.3886 25.7911 68.7483 26.4074 74.5997 28.3255C80.4441 30.2506 86.7802 33.4775 92.2161 38.9411C95.263 42.2719 97.3057 45.3464 98.5868 47.5069C100.796 51.2186 105.761 59.7913 105.602 71.2655C105.553 74.7763 105.041 77.6155 104.632 79.409" stroke="#070D1C" stroke-width="3.46234" stroke-miterlimit="10" stroke-linecap="round"/>
<path d="M72.5569 133.366V143.587C72.5569 144.709 72.4115 145.803 72.1622 146.835C70.708 152.672 65.4314 156.993 59.1507 156.993C57.9112 156.993 56.7063 156.827 55.5637 156.502" stroke="#070D1C" stroke-width="3.46234" stroke-miterlimit="10" stroke-linecap="round"/>
<path d="M21.0304 100.342C20.2409 100.522 19.41 100.626 18.5721 100.626C12.7069 100.626 7.95654 95.8759 7.95654 90.0107C7.95654 84.1455 12.7069 79.4021 18.5721 79.4021C19.4169 79.4021 20.2479 79.506 21.0304 79.686" stroke="#070D1C" stroke-width="3.46234" stroke-miterlimit="10" stroke-linecap="round"/>
<path d="M20.3031 87.5801C18.011 87.7601 16.3283 89.2558 15.7605 89.8098L20.3031 87.5801Z" fill="#070D1C"/>
<path d="M20.3031 87.5801C18.011 87.7601 16.3283 89.2558 15.7605 89.8098" stroke="#070D1C" stroke-width="3.46234" stroke-miterlimit="10" stroke-linecap="round"/>
<path d="M99.3623 79.686C100.152 79.506 100.983 79.4021 101.821 79.4021C107.686 79.4021 112.436 84.1524 112.436 90.0107C112.436 95.869 107.686 100.626 101.821 100.626C100.976 100.626 100.145 100.522 99.3623 100.342" stroke="#070D1C" stroke-width="3.46234" stroke-miterlimit="10" stroke-linecap="round"/>
<path d="M104.639 89.8169C104.071 89.256 102.382 87.7672 100.096 87.5872L104.639 89.8169Z" fill="#070D1C"/>
<path d="M104.639 89.8169C104.071 89.256 102.382 87.7672 100.096 87.5872" stroke="#070D1C" stroke-width="3.46234" stroke-miterlimit="10" stroke-linecap="round"/>
<path d="M72.5571 141.295C75.7493 141.703 80.562 142.798 85.4855 145.914C87.0435 146.897 95.4085 152.374 98.7324 163.274C99.6118 166.168 100.09 169.236 100.09 172.421V210.099H18.0251V175.745C18.0251 173.509 18.4268 167.297 19.4101 163.475C20.6358 158.704 23.2048 153.406 26.0162 149.224" stroke="#070D1C" stroke-width="3.46234" stroke-linecap="round" stroke-linejoin="round"/>
<path d="M85.4854 175.697V170.663" stroke="#070D1C" stroke-width="3.46234" stroke-linecap="round" stroke-linejoin="round"/>
<path d="M85.4854 210.099V194.788V181.361" stroke="#070D1C" stroke-width="3.46234" stroke-linecap="round" stroke-linejoin="round"/>
<path d="M100.096 194.788H85.4854" stroke="#070D1C" stroke-width="3.46234" stroke-linecap="round" stroke-linejoin="round"/>
<path d="M31.2096 163.475L23.6755 209.918" stroke="#070D1C" stroke-width="3.46234" stroke-linecap="round" stroke-linejoin="round"/>
<path d="M45.7998 165.656L38.5774 210.099" stroke="#070D1C" stroke-width="3.46234" stroke-linecap="round" stroke-linejoin="round"/>
<path d="M37.9541 142.819C38.5912 137.715 39.3875 131.601 40.0246 126.497C39.5745 124.994 38.1757 124.039 36.7423 124.184C35.5097 124.309 34.4364 125.237 34.0486 126.518C33.1276 131.774 33.1553 137.168 32.2413 142.424C32.2413 142.424 31.9435 145.014 31.7427 145.907" stroke="#070D1C" stroke-width="3.46234" stroke-linecap="round" stroke-linejoin="round"/>
<path d="M39.9832 126.836C40.2186 124.773 42.1575 123.402 43.9579 123.81C45.6822 124.205 46.8455 126.137 46.3192 128.055C45.4952 133.269 44.6642 138.49 43.8402 143.705" stroke="#070D1C" stroke-width="3.46234" stroke-linecap="round" stroke-linejoin="round"/>
<path d="M49.3591 146.474C49.8023 143.732 50.2524 140.99 50.6956 138.248C50.8618 137.209 51.0349 136.164 51.2011 135.125L52.1082 129.537C51.9905 128.159 51.028 127.009 49.7192 126.684C48.4243 126.365 47.0601 126.919 46.3123 128.069" stroke="#070D1C" stroke-width="3.46234" stroke-linecap="round" stroke-linejoin="round"/>
<path d="M51.2011 135.118C51.8658 133.969 53.1677 133.373 54.421 133.643C54.6565 133.685 54.8919 133.768 55.0997 133.879C56.2422 134.453 56.7962 135.811 56.5815 137.099C56.4707 137.736 56.3738 138.38 56.2976 139.024C55.5498 144.958 53.4724 158.967 53.0707 159.902C51.9559 162.464 49.6292 164.147 49.6292 164.147C48.2234 165.102 47.8357 165.331 45.7998 165.656" stroke="#070D1C" stroke-width="3.46234" stroke-linecap="round" stroke-linejoin="round"/>
<path d="M31.2096 163.475C28.412 161.612 27.5049 158.801 26.4177 155.449C25.8914 153.829 25.7668 152.354 25.7737 151.225C25.7737 151.031 26.6254 144.508 27.0271 141.371C27.2417 140.63 26.854 137.66 29.5061 136.967C30.5033 136.704 32.9477 137.577 32.553 140.402" stroke="#070D1C" stroke-width="3.46234" stroke-linecap="round" stroke-linejoin="round"/>
<path d="M24.6313 194.788H18.0251" stroke="#070D1C" stroke-width="3.46234" stroke-linecap="round" stroke-linejoin="round"/>
<path d="M39.4153 16.6299C38.8682 18.3264 38.5774 20.113 38.5774 21.9619C38.5774 24.8564 39.2906 27.6055 40.5856 30.0915" stroke="#070D1C" stroke-width="3.46234" stroke-linecap="round" stroke-linejoin="round"/>
<path d="M82.5215 31.7258C84.4119 28.8382 85.4852 25.5074 85.4852 21.9619C85.4852 10.8824 74.9805 1.90112 62.0313 1.90112C56.9278 1.90112 52.1983 3.29299 48.3481 5.66815" stroke="#070D1C" stroke-width="3.46234" stroke-linecap="round" stroke-linejoin="round"/>
<path d="M42.3374 11.1252C42.3374 11.1892 42.3374 11.0611 42.3374 11.1252" stroke="#070D1C" stroke-width="3.46234" stroke-miterlimit="10" stroke-linecap="round"/>
<path d="M39.5607 118.43C36.1676 106.845 27.9965 105.287 24.3541 105.287C9.38983 105.3 2.54824 117.273 3.79469 127.633C4.91649 137.964 4.91648 133.719 7.58249 154.431" stroke="#070D1C" stroke-width="3.46234" stroke-linecap="round" stroke-linejoin="round"/>
<path d="M8.12269 155.698L1.7312 150.2" stroke="#070D1C" stroke-width="3.46234" stroke-linecap="round" stroke-linejoin="round"/>
<path d="M12.4643 148.58L8.12256 155.698" stroke="#070D1C" stroke-width="3.46234" stroke-linecap="round" stroke-linejoin="round"/>
<path d="M58.8667 108.361C58.7767 108.327 56.6369 107.44 56.3115 105.328C56.0345 103.528 57.1909 101.644 59.1437 100.945" stroke="#070D1C" stroke-width="3.46234" stroke-linecap="round" stroke-linejoin="round"/>
</g>
<defs>
<clipPath id="clip0_177_268">
<rect width="114.174" height="211.66" fill="white" transform="translate(0 0.169922)"/>
</clipPath>
</defs>
</svg>
