<svg width="147" height="128" viewBox="0 0 147 128" fill="none" xmlns="http://www.w3.org/2000/svg">
<g clip-path="url(#clip0_166_228)">
<path d="M116.936 100.274L11.9206 100.245C6.1403 100.245 1.45215 95.5564 1.45215 89.7761V12.4187C1.45215 6.63835 6.1403 1.9502 11.9206 1.9502H135.085C140.865 1.9502 145.547 6.63835 145.547 12.4187V89.7761C145.547 95.5564 140.865 100.245 135.085 100.245L129.769 100.227" stroke="#070D1C" stroke-width="2.90468" stroke-miterlimit="10" stroke-linecap="round"/>
<path d="M58.1111 111.695V100.245" stroke="#070D1C" stroke-width="2.90468" stroke-miterlimit="10" stroke-linecap="round"/>
<path d="M88.5229 111.695V100.245" stroke="#070D1C" stroke-width="2.90468" stroke-miterlimit="10" stroke-linecap="round"/>
<path d="M73.3143 111.695H95.6455C99.7876 111.695 103.14 115.053 103.14 119.189C103.14 122.977 100.066 126.05 96.2787 126.05H50.3557C46.568 126.05 43.4949 122.977 43.4949 119.189C43.4949 115.047 46.8527 111.695 50.9889 111.695H63.9729" stroke="#070D1C" stroke-width="2.90468" stroke-miterlimit="10" stroke-linecap="round"/>
<path d="M1.45215 81.963H145.547V14.7661" stroke="#070D1C" stroke-width="2.90468" stroke-miterlimit="10" stroke-linecap="round"/>
<path d="M122.31 100.262C122.31 100.315 122.31 100.21 122.31 100.262" stroke="#070D1C" stroke-width="2.90468" stroke-miterlimit="10" stroke-linecap="round"/>
<path d="M31.8237 62.0718H67.1621H70.4966H75.1732H95.6976" stroke="#070D1C" stroke-width="2.90468" stroke-miterlimit="10" stroke-linecap="round"/>
<path d="M102.709 62.0718H115.176" stroke="#070D1C" stroke-width="2.90468" stroke-miterlimit="10" stroke-linecap="round"/>
<path d="M52.4702 69.9434H108.943" stroke="#070D1C" stroke-width="2.90468" stroke-miterlimit="10" stroke-linecap="round"/>
<path d="M44.2904 69.9434H34.5249" stroke="#070D1C" stroke-width="2.90468" stroke-miterlimit="10" stroke-linecap="round"/>
<path d="M80.1924 39.7868L70.4675 44.5446C69.1836 45.1778 67.6848 44.2425 67.6848 42.8076V33.2861C67.6848 31.8512 69.1836 30.9159 70.4675 31.5433L80.1924 36.3069C81.6331 37.0157 81.6331 39.078 80.1924 39.7868Z" stroke="#070D1C" stroke-width="2.90468" stroke-miterlimit="10" stroke-linecap="round"/>
<path d="M73.3141 24.415C65.7909 24.415 59.6853 30.5207 59.6853 38.0438C59.6853 45.5669 65.7909 51.6784 73.3141 51.6784C80.8372 51.6784 86.9486 45.5727 86.9486 38.0438C86.9486 30.5149 80.843 24.415 73.3141 24.415ZM80.1923 39.7866L70.4675 44.5445C69.1836 45.1777 67.6848 44.2424 67.6848 42.8075V33.2859C67.6848 31.851 69.1836 30.9157 70.4675 31.5431L80.1923 36.3068C81.6331 37.0155 81.6331 39.0779 80.1923 39.7866Z" fill="#070D1C"/>
<path d="M80.1924 39.7868L70.4675 44.5446C69.1836 45.1778 67.6848 44.2425 67.6848 42.8076V33.2861C67.6848 31.8512 69.1836 30.9159 70.4675 31.5433L80.1924 36.3069C81.6331 37.0157 81.6331 39.078 80.1924 39.7868Z" stroke="#070D1C" stroke-width="2.90468" stroke-miterlimit="10" stroke-linecap="round"/>
<path d="M13.5591 93.6456C15.2018 93.6456 16.5335 92.3139 16.5335 90.6712C16.5335 89.0285 15.2018 87.6968 13.5591 87.6968C11.9164 87.6968 10.5847 89.0285 10.5847 90.6712C10.5847 92.3139 11.9164 93.6456 13.5591 93.6456Z" stroke="#070D1C" stroke-width="2.90468" stroke-miterlimit="10" stroke-linecap="round"/>
<path d="M26.0667 93.6456C27.7094 93.6456 29.0411 92.3139 29.0411 90.6712C29.0411 89.0285 27.7094 87.6968 26.0667 87.6968C24.424 87.6968 23.0923 89.0285 23.0923 90.6712C23.0923 92.3139 24.424 93.6456 26.0667 93.6456Z" stroke="#070D1C" stroke-width="2.90468" stroke-miterlimit="10" stroke-linecap="round"/>
<path d="M145.449 10.9839H1.55103" stroke="#070D1C" stroke-width="2.90468" stroke-miterlimit="10" stroke-linecap="round"/>
</g>
<defs>
<clipPath id="clip0_166_228">
<rect width="147" height="127.004" fill="white" transform="translate(0 0.498047)"/>
</clipPath>
</defs>
</svg>
