<svg width="127" height="110" viewBox="0 0 127 110" fill="none" xmlns="http://www.w3.org/2000/svg">
<g clip-path="url(#clip0_1105_135)">
<path d="M1.06739 76.5979V83.5936C1.06739 86.5707 3.48519 88.9869 6.46419 88.9869H72.0571" stroke="black" stroke-width="2.35892" stroke-miterlimit="10" stroke-linecap="round"/>
<path d="M101.927 88.9873H120.544C123.527 88.9873 125.941 86.5711 125.941 83.594V6.44305C125.941 3.46598 123.527 1.05396 120.544 1.05396H6.46439C3.48538 1.05396 1.06758 3.46598 1.06758 6.44305V65.4406" stroke="black" stroke-width="2.35892" stroke-miterlimit="10" stroke-linecap="round"/>
<path d="M9.28281 88.9871V1.05371" stroke="black" stroke-width="2.35892" stroke-miterlimit="10" stroke-linecap="round"/>
<path d="M116.265 88.9871V1.05371" stroke="black" stroke-width="2.35892" stroke-miterlimit="10" stroke-linecap="round"/>
<path d="M121.173 46.6799C122.282 46.6799 123.181 45.7813 123.181 44.6727C123.181 43.5642 122.282 42.6655 121.173 42.6655C120.063 42.6655 119.164 43.5642 119.164 44.6727C119.164 45.7813 120.063 46.6799 121.173 46.6799Z" stroke="black" stroke-width="2.35892" stroke-miterlimit="10" stroke-linecap="round"/>
<path d="M80.9099 108.946C78.4373 102.389 76.7916 100.293 72.7662 89.6118C72.7155 89.4769 67.8588 85.6817 66.2892 83.354C63.4241 79.0951 62.7026 76.8475 61.5717 74.562C59.943 71.2644 54.2846 66.2127 48.0481 61.9874C47.8286 61.8398 47.6683 61.6248 47.5924 61.3718C47.3181 60.4356 47.162 59.2802 47.7569 58.5381C49.1536 56.7965 53.7866 58.4537 55.4492 59.0483C60.2637 60.7688 60.9219 62.6579 63.2764 62.9826C65.4073 63.2735 69.1922 62.7296 72.6227 56.8092C73.8633 54.667 75.9435 50.9309 75.0574 38.8834C74.6354 33.157 74.5932 31.4492 74.838 28.7546C75.146 25.3854 76.4287 21.9909 78.0491 21.9403C79.5343 21.8939 80.7791 22.8848 81.1926 26.6125C81.4922 30.0914 83.5893 47.0556 84.1505 49.1092C84.391 49.9948 84.9565 50.252 85.5599 49.5604C87.754 47.0388 90.733 41.2575 92.9314 38.7359C94.653 36.9437 97.3957 36.8172 99.0751 38.2467C100.421 39.3937 99.9612 41.5316 99.2945 43.3364C99.2565 43.4418 97.3071 46.9334 96.4547 49.6321C96.0243 51.0026 95.7079 52.1664 95.5855 53.2502" stroke="black" stroke-width="2.35892" stroke-miterlimit="10" stroke-linecap="round"/>
<path d="M98.1003 45.6592C98.3155 45.2375 98.5307 44.8158 98.7459 44.3984C99.1763 43.5592 99.9232 42.914 100.83 42.6484C102.282 42.2225 103.695 42.408 104.611 43.1966C105.767 44.196 105.763 45.8658 105.759 46.7261C105.75 48.7417 103.847 52.4483 102.683 54.5736C102.683 54.5736 101.573 57.091 101.683 58.9759" stroke="black" stroke-width="2.35892" stroke-miterlimit="10" stroke-linecap="round"/>
<path d="M102.679 54.5696C102.885 54.1775 103.092 53.7853 103.303 53.3931C103.548 52.9293 103.961 52.5751 104.463 52.4148C105.544 52.0691 106.712 52.1998 107.611 52.8154C109.05 53.8022 109.573 55.8811 108.683 57.6437C107.822 59.3642 106.594 61.9997 105.388 65.3183C103.767 69.7628 103.383 72.1285 102.261 75.6706C101.413 78.3399 100.037 82.0127 97.729 86.297C97.345 87.0054 97.3999 88.3717 97.8978 89.0042C98.4252 89.6747 99.0835 90.2229 99.7375 91.9054C100.392 93.5879 100.109 94.68 100.535 95.612C102.704 100.352 105.05 104.088 107.033 107.782" stroke="black" stroke-width="2.35892" stroke-miterlimit="10" stroke-linecap="round"/>
<path d="M46.9383 44.2881L47.7232 51.3007" stroke="black" stroke-width="2.35892" stroke-miterlimit="10" stroke-linecap="round"/>
<path d="M54.5377 50.0273L47.7231 51.3008" stroke="black" stroke-width="2.35892" stroke-miterlimit="10" stroke-linecap="round"/>
<path d="M47.9806 50.9679L48.1283 50.7781L56.6265 39.6963" stroke="black" stroke-width="2.35892" stroke-miterlimit="10" stroke-linecap="round"/>
<path d="M62.0232 24.3604L68.9939 23.2092" stroke="black" stroke-width="2.35892" stroke-miterlimit="10" stroke-linecap="round"/>
<path d="M68.9939 23.2092L69.6184 30.1037" stroke="black" stroke-width="2.35892" stroke-miterlimit="10" stroke-linecap="round"/>
<path d="M60.2383 34.9237L68.5972 23.7365L68.7365 23.5425" stroke="black" stroke-width="2.35892" stroke-miterlimit="10" stroke-linecap="round"/>
<path d="M1.06751 70.0579C1.10552 70.0579 1.02949 70.0579 1.06751 70.0579" stroke="black" stroke-width="2.35892" stroke-miterlimit="10" stroke-linecap="round"/>
</g>
<defs>
<clipPath id="clip0_1105_135">
<rect width="127" height="110" fill="white"/>
</clipPath>
</defs>
</svg>
