<svg width="127" height="110" viewBox="0 0 127 110" fill="none" xmlns="http://www.w3.org/2000/svg">
<g clip-path="url(#clip0_2403_1216)">
<mask id="mask0_2403_1216" style="mask-type:luminance" maskUnits="userSpaceOnUse" x="0" y="0" width="127" height="110">
<path d="M127 0H0V110H127V0Z" fill="white"/>
</mask>
<g mask="url(#mask0_2403_1216)">
<path d="M1.06641 76.5979V83.5936C1.06641 86.5707 3.48421 88.9869 6.46321 88.9869H72.0561" stroke="#070D1C" stroke-width="2.35892" stroke-miterlimit="10" stroke-linecap="round"/>
<path d="M101.926 88.9873H120.543C123.526 88.9873 125.94 86.5711 125.94 83.594V6.44305C125.94 3.46598 123.526 1.05396 120.543 1.05396H6.46322C3.48421 1.05396 1.06641 3.46598 1.06641 6.44305V65.4406" stroke="#070D1C" stroke-width="2.35892" stroke-miterlimit="10" stroke-linecap="round"/>
<path d="M9.28125 88.9871V1.05371" stroke="#070D1C" stroke-width="2.35892" stroke-miterlimit="10" stroke-linecap="round"/>
<path d="M116.262 88.9871V1.05371" stroke="#070D1C" stroke-width="2.35892" stroke-miterlimit="10" stroke-linecap="round"/>
<path d="M121.173 46.6799C122.282 46.6799 123.181 45.7813 123.181 44.6727C123.181 43.5642 122.282 42.6655 121.173 42.6655C120.063 42.6655 119.164 43.5642 119.164 44.6727C119.164 45.7813 120.063 46.6799 121.173 46.6799Z" stroke="#070D1C" stroke-width="2.35892" stroke-miterlimit="10" stroke-linecap="round"/>
<path d="M80.9089 108.946C78.4363 102.389 76.7906 100.293 72.7652 89.6118C72.7145 89.4769 67.8578 85.6817 66.2882 83.354C63.4231 79.0951 62.7016 76.8475 61.5707 74.562C59.942 71.2644 54.2836 66.2127 48.0471 61.9874C47.8276 61.8398 47.6673 61.6248 47.5914 61.3718C47.3171 60.4356 47.161 59.2802 47.7559 58.5381C49.1526 56.7965 53.7856 58.4537 55.4482 59.0483C60.2627 60.7688 60.9209 62.6579 63.2754 62.9826C65.4063 63.2735 69.1912 62.7296 72.6217 56.8092C73.8623 54.667 75.9425 50.9309 75.0564 38.8834C74.6344 33.157 74.5922 31.4492 74.837 28.7546C75.145 25.3854 76.4277 21.9909 78.0481 21.9403C79.5333 21.8939 80.7781 22.8848 81.1916 26.6125C81.4912 30.0914 83.5883 47.0556 84.1495 49.1092C84.39 49.9948 84.9555 50.252 85.5589 49.5604C87.753 47.0388 90.732 41.2575 92.9304 38.7359C94.652 36.9437 97.3947 36.8172 99.0741 38.2467C100.42 39.3937 99.9602 41.5316 99.2935 43.3364C99.2555 43.4418 97.3061 46.9334 96.4537 49.6321C96.0233 51.0026 95.7069 52.1664 95.5845 53.2502" stroke="#070D1C" stroke-width="2.35892" stroke-miterlimit="10" stroke-linecap="round"/>
<path d="M98.0977 45.6592C98.3129 45.2375 98.5281 44.8158 98.7433 44.3984C99.1737 43.5592 99.9206 42.914 100.827 42.6484C102.279 42.2225 103.692 42.408 104.608 43.1966C105.764 44.196 105.76 45.8658 105.756 46.7261C105.747 48.7417 103.844 52.4483 102.68 54.5736C102.68 54.5736 101.57 57.091 101.68 58.9759" stroke="#070D1C" stroke-width="2.35892" stroke-miterlimit="10" stroke-linecap="round"/>
<path d="M102.678 54.5696C102.884 54.1775 103.091 53.7853 103.302 53.3931C103.547 52.9293 103.96 52.5751 104.462 52.4148C105.543 52.0691 106.711 52.1998 107.61 52.8154C109.049 53.8022 109.572 55.8811 108.682 57.6437C107.821 59.3642 106.593 61.9997 105.387 65.3183C103.766 69.7628 103.382 72.1285 102.26 75.6706C101.412 78.3399 100.036 82.0127 97.7282 86.297C97.3442 87.0054 97.3991 88.3717 97.897 89.0042C98.4244 89.6747 99.0827 90.2229 99.7367 91.9054C100.391 93.5879 100.108 94.68 100.534 95.612C102.703 100.352 105.049 104.088 107.032 107.782" stroke="#070D1C" stroke-width="2.35892" stroke-miterlimit="10" stroke-linecap="round"/>
<path d="M46.9375 44.2881L47.7224 51.3007" stroke="#070D1C" stroke-width="2.35892" stroke-miterlimit="10" stroke-linecap="round"/>
<path d="M54.5373 50.0273L47.7227 51.3008" stroke="#070D1C" stroke-width="2.35892" stroke-miterlimit="10" stroke-linecap="round"/>
<path d="M47.9805 50.9679L48.1282 50.7781L56.6264 39.6963" stroke="#070D1C" stroke-width="2.35892" stroke-miterlimit="10" stroke-linecap="round"/>
<path d="M62.0195 24.3604L68.9902 23.2092" stroke="#070D1C" stroke-width="2.35892" stroke-miterlimit="10" stroke-linecap="round"/>
<path d="M68.9922 23.2092L69.6167 30.1037" stroke="#070D1C" stroke-width="2.35892" stroke-miterlimit="10" stroke-linecap="round"/>
<path d="M60.2383 34.9237L68.5972 23.7365L68.7365 23.5425" stroke="#070D1C" stroke-width="2.35892" stroke-miterlimit="10" stroke-linecap="round"/>
<path d="M1.06566 70.0579C1.10367 70.0579 1.02764 70.0579 1.06566 70.0579Z" stroke="#070D1C" stroke-width="2.35892" stroke-miterlimit="10" stroke-linecap="round"/>
</g>
</g>
<defs>
<clipPath id="clip0_2403_1216">
<rect width="127" height="110" fill="white"/>
</clipPath>
</defs>
</svg>
