<svg width="140" height="138" viewBox="0 0 140 138" fill="none" xmlns="http://www.w3.org/2000/svg">
<g clip-path="url(#clip0_2574_940)">
<path d="M7.90082 1.62402C7.90082 1.62402 0.0254799 8.51509 0.874586 17.3804C1.72369 26.2457 11.4377 27.4722 13.9842 27.3777C16.5307 27.2831 31.5268 25.444 34.4504 25.067C37.374 24.6899 47.1829 23.3692 49.6823 27.6606C52.1818 31.952 51.3802 39.6856 51.3802 39.6856" stroke="black" stroke-width="1.9" stroke-miterlimit="10" stroke-linecap="round"/>
<path d="M9.41254 4.41113C9.41254 4.41113 4.04677 9.78989 5.07406 15.8704C6.25315 22.8496 10.8274 23.557 17.1462 23.0383C23.465 22.5196 30.0675 21.1992 31.2462 20.9634C32.4249 20.7276 43.6012 19.4544 48.3172 21.5292C53.0331 23.6041 55.1267 27.2205 55.2679 30.1916C55.4092 33.1626 55.5853 38.4785 55.5853 38.4785" stroke="black" stroke-width="1.9" stroke-miterlimit="10" stroke-linecap="round"/>
<path d="M138.354 106.136C138.354 103.979 140.233 101.497 136.698 95.3512C136.698 95.3512 109.497 48.1378 103.625 37.0243C97.7532 25.9113 89.0056 29.923 89.0056 29.923L11.2345 50.774C11.2345 50.774 4.2842 52.4515 8.83779 63.2366C10.5259 67.2346 14.5287 77.2558 18.857 88.1801" stroke="black" stroke-width="1.9" stroke-miterlimit="10" stroke-linecap="round"/>
<path d="M22.6328 97.7275C29.0409 113.94 34.0024 126.627 34.0024 126.627C34.0024 126.627 37.1179 135.255 42.75 134.895L132.553 110.377" stroke="black" stroke-width="1.9" stroke-miterlimit="10" stroke-linecap="round"/>
<circle cx="19.97" cy="90.9631" r="0.811765" fill="black"/>
<circle cx="103.572" cy="73.8557" r="0.811765" fill="black"/>
<path d="M67.8037 96.4108C85.0416 96.4108 99.0157 84.8935 99.0157 70.6863C99.0157 56.4791 85.0416 44.9619 67.8037 44.9619C50.5659 44.9619 36.5918 56.4791 36.5918 70.6863C36.5918 84.8935 50.5659 96.4108 67.8037 96.4108Z" stroke="black" stroke-width="1.9" stroke-miterlimit="10" stroke-linecap="round"/>
<path d="M103.882 76.8096C103.042 90.8677 87.4679 102.534 67.744 102.534C48.0202 102.534 32.6936 90.8677 32.0312 76.8096" stroke="black" stroke-width="1.9" stroke-miterlimit="10" stroke-linecap="round"/>
<path d="M38.5186 61.7686L22.1644 66.1699C22.1644 66.1699 19.195 66.6132 21.739 73.4746C24.9297 82.0793 35.2793 107.157 35.2793 107.157C35.2793 107.157 36.2579 111.012 41.3456 109.389C46.4333 107.766 60.1315 104.925 60.1315 104.925" stroke="black" stroke-width="1.9" stroke-miterlimit="10" stroke-linecap="round"/>
<path d="M85.7559 49.6398L97.5098 46.6911C97.5098 46.6911 100.993 46.2852 103.459 50.5461C105.924 54.8071 121.97 85.7779 121.97 85.7779C121.97 85.7779 123.927 89.301 119.231 90.7212C114.534 92.1414 100.617 95.591 100.617 95.591" stroke="black" stroke-width="1.9" stroke-miterlimit="10" stroke-linecap="round"/>
<path d="M40.8516 126.075L132.553 101.789" stroke="black" stroke-width="1.9" stroke-miterlimit="10" stroke-linecap="round"/>
<path d="M54.1515 59.1531C55.8748 57.4298 56.2325 54.9936 54.9505 53.7116C53.6685 52.4296 51.2322 52.7873 49.509 54.5106C47.7857 56.2339 47.4279 58.6701 48.7099 59.9521C49.9919 61.2341 52.4282 60.8764 54.1515 59.1531Z" stroke="black" stroke-width="1.9" stroke-miterlimit="10" stroke-linecap="round"/>
</g>
<defs>
<clipPath id="clip0_2574_940">
<rect width="139.664" height="138" fill="white"/>
</clipPath>
</defs>
</svg>
